<svg xmlns="http://www.w3.org/2000/svg" viewBox="848.114 351.704 2.236 4.956">
  <path d="M849.81,356.643l0.005,-0.105l0.193,-0.028l0.086,-0.063l0.003,-0.044l0.034,-0.018l0.06,0.018l0.086,-0.058l0.073,-0.135l-0.097,-0.154l-0.117,0.003l-0.073,0.135l0.026,0.094l-0.042,0.031l-0.193,-0.062l-0.093,-0.131l-0.016,-0.13l0.016,-0.109l-0.084,-0.178l0.031,-0.073l0.094,0.027l0.042,-0.35l-0.063,-0.193l-0.02,-0.14l-0.068,-0.016l-0.089,0.11l-0.213,0.119h-0.126l-0.119,-0.052l-0.068,0.006l-0.058,0.005l0.006,0.088l0.057,0.047l-0.042,0.235l-0.047,0.114l0.047,0.131l-0.133,0.159l0.18,0.047l0.084,0.083l0.052,0.021l-0.016,0.066l0.068,0.01l-0.068,0.158v0.086l0.039,0.037l0.042,0.026l-0.01,0.082l0.164,0.118l0.193,-0.023l0.174,0.006z M849.383,351.766l0.047,-0.007h0.036l0.024,0.015l0.036,-0.005l0.029,-0.026l0.021,-0.034l0.049,-0.005l0.037,0.055l-0.013,0.023l0.033,0.089l0.047,0.044v0.078l0.032,0.094l-0.037,0.07l-0.055,0.032l0.019,0.104l0.028,0.013l-0.002,0.102l-0.065,0.067l0.007,0.073l-0.044,0.029l-0.036,0.091l0.002,0.057l0.039,0.053l0.013,0.148l0.042,0.115l-0.031,0.18l-0.007,0.089l-0.038,0.004l-0.084,0.073l-0.108,0.034l-0.135,0.014l-0.028,0.097l-0.055,0.07l-0.219,0.035l-0.025,0.104l0.063,0.163l0.08,0.101l-0.014,0.08l0.104,0.028l0.146,-0.07l0.07,-0.073l0.083,0.035l0.017,0.083l0.032,0.066l-0.039,0.091l-0.18,0.083l-0.018,0.077l0.08,0.048l0.111,-0.059l0.053,-0.059l0.069,0.042l-0.007,0.083l-0.205,0.202l-0.135,0.07l-0.119,0.011l-0.02,-0.05l0.086,-0.007l0.004,-0.049l-0.045,-0.048l-0.066,-0.018l0.009,-0.146l-0.049,-0.011l-0.097,0.084l-0.088,-0.003l-0.032,-0.068h-0.036l-0.112,0.084l-0.013,0.047l0.021,0.039l-0.021,0.054h-0.084l0.003,-0.101l-0.021,-0.115l-0.01,-0.128l-0.117,-0.216l-0.032,-0.151l0.003,-0.237l-0.302,-0.376l0.067,-0.114l0.11,-0.099l0.266,-0.073l0.146,-0.104l0.255,-0.308l0.229,-0.37l0.052,-0.172l0.079,-0.115l0.065,-0.206z"/>
</svg>
