<svg xmlns="http://www.w3.org/2000/svg" viewBox="846.649 353.890 3.815 3.024">
  <path d="M850.253,356.056l0.089,0.003l0.107-0.029l-0.026-0.138l-0.018-0.209l-0.019-0.13l-0.115-0.01l-0.031,0.062l0.005,0.261l-0.078,0.083l-0.135,0.037l-0.079-0.037l-0.02-0.104l-0.131-0.182l-0.094-0.026l-0.031,0.072l0.084,0.178l-0.016,0.109l0.016,0.13l0.093,0.131l0.193,0.062l0.042-0.031l-0.026-0.094l0.073-0.135l0.117-0.003L850.253,356.056z M848.39,356.778v-0.031l-0.026-0.013v-0.43l0.146-0.217h0.216l0.182-0.161l0.133-0.159l-0.047-0.13l0.047-0.115l0.042-0.235l-0.057-0.047l-0.006-0.088l0.058-0.005l-0.042-0.149l0.003-0.068l0.021-0.044v-0.141h-0.038l-0.09-0.073l-0.004-0.059l0.049-0.045l0.115,0.003l0.009-0.146l-0.049-0.011l-0.097,0.084l-0.088-0.003l-0.032-0.068h-0.036l-0.112,0.084l-0.013,0.047l0.021,0.039l-0.021,0.054h-0.084l-0.101,0.045l-0.136,0.005l-0.052-0.065l0.047-0.06l-0.055-0.125l-0.106-0.068l-0.068-0.073l-0.047-0.023l-0.143,0.005l-0.235-0.076l-0.128-0.109l-0.156-0.076l-0.13-0.141l-0.075,0.084l-0.049,0.101l-0.062,0.086l0.097,0.021l0.156-0.007l0.306,0.105l0.014,0.052l-0.136,0.156l-0.312,0.042l-0.174-0.066l-0.136-0.101l-0.097,0.059l-0.097,0.108l-0.056,0.127l-0.01,0.057l0.054,0.04l0.066-0.009l0.907,0.365l0.125,0.605l-0.005,0.286l0.198,0.568l0.089,0.345l0.135-0.053l0.172-0.083L848.39,356.778z M849.907,354.873l0.073-0.031l0.031-0.055l-0.037-0.094l0.034-0.06l0.071-0.008l0.104,0.042l0.044,0.055l0.083,0.013l0.1-0.068l0.054-0.013l-0.003-0.069l-0.025-0.034l-0.086,0.017l-0.018-0.07l0.077-0.104l0.006-0.105h-0.039l-0.165,0.123l-0.041,0.075l-0.078,0.058l-0.112,0.02l-0.118,0.149l-0.005,0.091l0.05,0.068L849.907,354.873z"/>
</svg>
