<svg xmlns="http://www.w3.org/2000/svg" viewBox="832.512 353.185 17.937 12.072">
  <path d="M847.486,353.772l0.024,-0.031l0.028,0.003l-0.003,0.035l-0.021,0.024l-0.028,0.003v-0.035Z M847.598,353.543l-0.01,0.063l0.028,0.031l0.045,-0.01l0.09,-0.129l0.059,-0.031l-0.01,-0.024l-0.129,0.035l-0.073,0.066Z  M848.056,353.206l0.024,-0.021h0.031l0.007,0.031l-0.038,0.031l-0.028,-0.014l0.003,-0.028Z  M842.385,355.042l0.029,-0.06l0.076,-0.021l0.036,0.042l0.013,0.078l-0.031,0.026l-0.083,-0.013l-0.039,-0.052Z M837.46,355.397l0.036,0.083l0.042,-0.005l0.005,-0.083l-0.036,-0.083l-0.036,0.005l-0.01,0.083Z M838.179,356.371v0.068l0.031,0.057l0.057,0.01l0.016,-0.073l-0.052,-0.063h-0.052Z M836.303,356.731v0.052l0.026,0.047l0.042,-0.005l0.01,-0.047l-0.036,-0.057l-0.042,0.01Z M835.406,358.118l0.036,-0.005l0.073,-0.151l-0.005,-0.109l-0.068,-0.063l-0.068,-0.005l-0.063,0.083l-0.005,0.099l0.099,0.151Z M836.511,358.894l0.104,-0.141l0.047,-0.177l-0.094,-0.125l-0.13,-0.01l-0.136,0.083l-0.031,0.167l0.151,0.219l0.089,-0.016Z M838.268,358.67l0.052,-0.021v-0.057l-0.036,-0.031l-0.042,0.005l-0.016,0.057l0.042,0.047Z M838.679,358.779h0.063l0.005,-0.042l-0.047,-0.047l-0.047,-0.005l-0.026,0.042l0.052,0.052Z M838.841,358.852l0.063,-0.016l0.057,-0.047l0.094,-0.005l0.083,0.063l0.063,-0.026l-0.005,-0.099l-0.042,-0.047l-0.151,-0.005l-0.113,0.036l-0.069,0.047l-0.01,0.052l0.031,0.047Z M839.451,359.144l0.073,-0.005l0.021,-0.042l-0.021,-0.042l-0.068,-0.021l-0.068,0.016l0.005,0.047l0.057,0.047Z M840.259,359.212l0.005,0.052l0.115,0.042h0.13l0.281,0.089l0.167,-0.026l0.115,-0.141l0.073,0.005l0.151,0.156l0.115,-0.005l0.12,-0.089l0.005,-0.099l-0.125,-0.125l-0.193,-0.063l-0.052,-0.052v-0.089l-0.057,-0.016l-0.083,0.068l-0.156,0.036l-0.12,0.005l-0.188,0.057l-0.125,0.125l-0.177,0.068Z M840.889,358.759l0.047,-0.021l0.026,-0.042l-0.005,-0.042l-0.042,-0.01l-0.047,0.031l-0.01,0.047l0.031,0.036Z M838.914,359.4l0.005,0.057l0.073,0.026l0.036,-0.036l-0.005,-0.057l-0.057,-0.021l-0.052,0.031Z M835.846,359.429l0.003,0.045l0.031,0.031l0.024,-0.007l0.003,-0.042l-0.028,-0.038l-0.035,0.01Z M834.237,359.03l0.017,0.035h0.042l0.042,-0.073l-0.017,-0.09h-0.035l-0.031,0.049l-0.017,0.08Z M834.195,359.172l0.014,0.069l0.031,-0.003l0.017,-0.038l-0.017,-0.101l-0.028,-0.007l-0.017,0.08Z M844.032,356.773l-0.016,-0.047l0.063,-0.073h0.036l0.005,0.036l-0.036,0.036l-0.016,0.042l-0.036,0.005Z M843.654,357.699h0.09l0.017,-0.028l-0.045,-0.038l-0.111,-0.003l-0.024,0.028l0.073,0.042Z M843.595,357.522l0.097,-0.024l0.021,-0.066l-0.017,-0.031l-0.069,0.007l-0.049,0.056l-0.038,0.007l-0.021,0.031l0.076,0.021Z M843.779,357.358l0.073,-0.056l0.059,-0.052l-0.007,-0.028l-0.052,0.003l-0.087,0.076l-0.017,0.052l0.031,0.003Z M843.817,357.476h0.038l0.014,-0.042l0.052,-0.038l0.01,-0.056l-0.042,-0.028l-0.038,0.021l-0.028,0.063l-0.007,0.08Z M844.029,357.282l0.031,-0.003l0.017,-0.028l-0.007,-0.042h-0.028l-0.017,0.035l0.003,0.038Z M843.567,357.793l0.024,0.021l0.042,-0.017l0.007,-0.035l-0.035,-0.014l-0.035,0.014l-0.003,0.031Z M843.275,357.979l0.035,0.071l0.049,0.007l0.021,-0.024l-0.014,-0.038l-0.059,-0.042l-0.023,0.003l-0.009,0.023Z M843.389,358.105l0.047,-0.007l0.019,-0.017l-0.01,-0.024l-0.035,-0.003l-0.035,0.031l0.014,0.021Z M843.424,358.018l0.063,0.023l0.017,-0.012v-0.021l-0.069,-0.021l-0.019,0.009l0.009,0.023Z M842.896,357.979l0.06,-0.063l0.005,-0.029l-0.023,-0.005l-0.05,0.031l-0.013,0.055l0.021,0.01Z M842.849,358.164l-0.008,0.023l0.031,0.039l0.073,0.05l0.143,0.044l0.172,0.099l0.076,0.029l0.026,-0.018l0.003,-0.042l-0.042,-0.039l-0.208,-0.073l-0.24,-0.117l-0.026,0.005Z M843.05,358.394l-0.021,0.016v0.023l0.021,0.01l0.026,-0.018v-0.029l-0.026,-0.003Z M843.303,358.488l-0.021,0.036l0.003,0.057l-0.016,0.031l-0.031,0.018l-0.01,0.036l0.021,0.016l0.036,-0.021l0.063,-0.18l-0.021,-0.005l-0.023,0.01Z M843.089,358.691l-0.016,0.023l0.031,0.026l0.055,0.003l0.036,-0.018l-0.013,-0.018l-0.034,0.005l-0.036,-0.005l-0.023,-0.016Z M842.312,358.709l0.063,0.039l0.078,0.107l0.089,0.026l0.042,-0.031l0.065,-0.013l0.096,0.029l0.018,-0.026l-0.034,-0.021l-0.091,-0.138l-0.073,-0.125l-0.083,-0.034l-0.128,0.031l-0.063,0.068l-0.01,0.047l0.031,0.042Z M842.654,358.667l0.076,0.112l0.029,0.023l0.044,-0.013l0.005,-0.044l-0.063,-0.07l-0.026,-0.089l-0.06,-0.029l-0.023,0.018l0.018,0.091Z M842.742,358.527l0.01,0.057l0.057,0.068l0.034,-0.003l0.076,-0.102l0.003,-0.057l-0.102,-0.128l-0.057,-0.013l-0.031,0.029l0.021,0.057l-0.01,0.091Z M842.453,358.456l0.096,0.01l0.065,0.047l0.023,-0.01l-0.003,-0.029l-0.052,-0.042l-0.008,-0.086l0.029,-0.052l-0.013,-0.026l-0.029,0.005l-0.076,0.081l-0.073,0.026l-0.036,0.047l0.016,0.031l0.06,-0.003Z M840.986,358.808l-0.005,0.021l0.023,0.005l0.094,-0.036l0.005,-0.023l-0.021,-0.008l-0.096,0.042Z M841.723,359.16l0.016,0.042l0.07,0.013l0.023,0.029l0.055,0.003l0.034,-0.031l-0.013,-0.057l-0.076,-0.047l-0.065,0.005l-0.044,0.044Z M841.901,359.103l0.039,0.034l0.008,0.042l0.034,0.01l0.036,-0.023l-0.008,-0.042l-0.063,-0.039l-0.036,-0.003l-0.01,0.021Z M841.955,359.058l0.078,0.05l0.008,0.039l0.023,0.003l0.073,-0.018l-0.003,-0.031l-0.128,-0.099l-0.065,-0.01l-0.016,0.023l0.029,0.044Z M837.121,359.165l-0.021,0.036l0.031,0.042l0.036,-0.016l0.005,-0.042l-0.016,-0.031l-0.036,0.01Z M841.972,359.256h0.052l0.028,-0.021l-0.014,-0.024h-0.042l-0.031,0.021l0.007,0.024Z M832.586,358.326l0.036,-0.021l-0.047,-0.089l-0.063,0.021l0.016,0.052l0.057,0.036Z M833.196,357.518l-0.021,0.057l0.01,0.063l0.042,0.005l0.026,-0.047l-0.005,-0.073l-0.052,-0.005Z M835.688,356.074l-0.005,0.052l0.042,0.026l0.036,-0.01l-0.005,-0.042l-0.031,-0.042l-0.036,0.016Z M837.35,356.168l0.005,0.042l0.031,0.042l0.031,-0.01l-0.01,-0.063l-0.031,-0.026l-0.026,0.016Z M839.925,359.137l0.036,0.029l0.018,-0.005l-0.01,-0.05l-0.029,-0.023l-0.018,0.01l0.003,0.039Z  M832.717,358.899v0.496l3.688,4.656l9.459,1.206l0.264-0.306l0.014,0.023l0.024-0.214l0.042-0.098l-0.014-0.403l-0.042-0.111l0.007-0.438l0.038-0.107l0.031-0.244l0.185-0.253l0.434-0.824l0.052,0.038l0.083-0.121l0.032-0.167l0.191-0.313l0.111-0.09l0.063-0.139l0.097-0.132l-0.011-0.365l-0.125-0.146l-0.017-0.361l-0.059-0.167l-0.108-0.181l0.031-0.059l0.303-0.135l0.09-0.084l0.469-0.191l0.171,0.014l0.111,0.108l0.121,0.041l0.233-0.125l0.242-0.052l0.187-0.021l-0.005-0.104l-0.057-0.104l-0.089-0.099l-0.047-0.104l0.042-0.063l-0.031-0.117l-0.045,0.008l0.011-0.04l-0.316,0.029l-0.132,0.06l-0.092-0.039l-0.112-0.091l-0.086-0.005l-0.005-0.053l0.023-0.057l0.045-0.003l0.07-0.065l0.039-0.099l0.115-0.081v-0.32h-0.026l-0.026-0.128l-0.128-0.174l-0.068-0.159l0.006-0.185l0.174-0.167l-0.081-0.086l0.162-0.138l-0.031-0.097l-0.003-0.094l0.013-0.185l-0.005-0.054l-0.039-0.042v-0.031l-0.026-0.013v-0.43l0.146-0.217h0.216l0.182-0.161l0.18,0.047l0.084,0.083l0.052,0.021l-0.013,0.081l0.065-0.005l-0.068,0.158v0.086l0.039,0.037l0.042,0.026l-0.308-0.086l-0.002,0.065l0.202,0.24l0.006,0.104l0.065,0.064l0.013,0.06l0.039,0.059l0.053,0.002l0.122,0.021l0.13-0.055l0.094-0.093l0.099-0.04l0.008-0.158l0.005-0.105l0.193-0.028l0.086-0.063l0.003-0.044l0.034-0.018l0.06,0.018l0.086-0.058l0.073-0.135l-0.097-0.154l0.089,0.003l0.107-0.029l-0.026-0.138l-0.018-0.209l-0.019-0.13L832.717,358.899z M849.907,354.873l0.073-0.031l0.031-0.055l-0.037-0.094l0.034-0.06l0.071-0.008l0.104,0.042l0.044,0.055l0.084,0.013L849.907,354.873z"/>
</svg>
