<svg xmlns="http://www.w3.org/2000/svg" viewBox="832.512 351.704 17.952 13.553">
  <path fill-rule="evenodd" d="M847.486331,353.772246l0.024324,-0.031274l0.027799,0.003475l-0.003475,0.034748l-0.020849,0.024324l-0.027799,0.003475v-0.034748Z M847.597526,353.542906l-0.010425,0.062547l0.027799,0.031274l0.045173,-0.010425l0.090346,-0.128569l0.059072,-0.031274l-0.010425,-0.024324l-0.128569,0.034748l-0.072972,0.066022Z  M848.056204,353.205847l0.024324,-0.020849h0.031274l0.00695,0.031274l-0.038223,0.031274l-0.027799,-0.013899l0.003475,-0.027799Z  M842.385267,355.042299l0.028667,-0.059941l0.075578,-0.020849l0.036486,0.041698l0.013031,0.078184l-0.031274,0.026061l-0.083396,-0.013031l-0.039092,-0.052123Z M837.459683,355.396733l0.036486,0.083396l0.041698,-0.005212l0.005212,-0.083396l-0.036486,-0.083396l-0.036486,0.005212l-0.010425,0.083396Z M838.178974,356.371425v0.067759l0.031274,0.057335l0.057335,0.010425l0.015637,-0.072972l-0.052123,-0.062547h-0.052123Z M836.302561,356.731071v0.052123l0.026061,0.04691l0.041698,-0.005212l0.010425,-0.04691l-0.036486,-0.057335l-0.041698,0.010425Z M835.406053,358.117532l0.036486,-0.005212l0.072972,-0.151155l-0.005212,-0.109457l-0.067759,-0.062547l-0.067759,-0.005212l-0.062547,0.083396l-0.005212,0.099033l0.099033,0.151155Z M836.511052,358.894158l0.104245,-0.140731l0.04691,-0.177217l-0.093821,-0.125094l-0.130306,-0.010425l-0.135519,0.083396l-0.031274,0.166792l0.151155,0.218915l0.088608,-0.015637Z M838.267583,358.670031l0.052123,-0.020849v-0.057335l-0.036486,-0.031274l-0.041698,0.005212l-0.015637,0.057335l0.041698,0.04691Z M838.679351,358.779489h0.062547l0.005212,-0.041698l-0.04691,-0.04691l-0.04691,-0.005212l-0.026061,0.041698l0.052123,0.052123Z M838.840931,358.85246l0.062547,-0.015637l0.057335,-0.04691l0.093821,-0.005212l0.083396,0.062547l0.062547,-0.026061l-0.005212,-0.099033l-0.041698,-0.04691l-0.151155,-0.005212l-0.112932,0.036486l-0.069497,0.04691l-0.010425,0.052123l0.031274,0.04691Z M839.450765,359.144347l0.072972,-0.005212l0.020849,-0.041698l-0.020849,-0.041698l-0.067759,-0.020849l-0.067759,0.015637l0.005212,0.04691l0.057335,0.04691Z M840.258665,359.212106l0.005212,0.052123l0.11467,0.041698h0.130306l0.281462,0.088608l0.166792,-0.026061l0.11467,-0.140731l0.072972,0.005212l0.151155,0.156368l0.11467,-0.005212l0.119882,-0.088608l0.005212,-0.099033l-0.125094,-0.125094l-0.192854,-0.062547l-0.052123,-0.052123v-0.088608l-0.057335,-0.015637l-0.083396,0.067759l-0.156368,0.036486l-0.119882,0.005212l-0.187641,0.057335l-0.125094,0.125094l-0.177217,0.067759Z M840.889349,358.75864l0.04691,-0.020849l0.026061,-0.041698l-0.005212,-0.041698l-0.041698,-0.010425l-0.04691,0.031274l-0.010425,0.04691l0.031274,0.036486Z M838.913903,359.399748l0.005212,0.057335l0.072972,0.026061l0.036486,-0.036486l-0.005212,-0.057335l-0.057335,-0.020849l-0.052123,0.031274Z M835.84562,359.429284l0.003475,0.045173l0.031274,0.031274l0.024324,-0.00695l0.003475,-0.041698l-0.027799,-0.038223l-0.034748,0.010425Z M834.236769,359.029677l0.017374,0.034748h0.041698l0.041698,-0.072972l-0.017374,-0.090346h-0.034748l-0.031274,0.048648l-0.017374,0.079921Z M834.195071,359.172146l0.013899,0.069497l0.031274,-0.003475l0.017374,-0.038223l-0.017374,-0.10077l-0.027799,-0.00695l-0.017374,0.079921Z M844.032341,356.772769l-0.015637,-0.04691l0.062547,-0.072972h0.036486l0.005212,0.036486l-0.036486,0.036486l-0.015637,0.041698l-0.036486,0.005212Z M843.653583,357.698814h0.090346l0.017374,-0.027799l-0.045173,-0.038223l-0.111195,-0.003475l-0.024324,0.027799l0.072972,0.041698Z M843.594511,357.521597l0.097295,-0.024324l0.020849,-0.066022l-0.017374,-0.031274l-0.069497,0.00695l-0.048648,0.055597l-0.038223,0.00695l-0.020849,0.031274l0.076446,0.020849Z M843.778677,357.35828l0.072972,-0.055597l0.059072,-0.052123l-0.00695,-0.027799l-0.052123,0.003475l-0.086871,0.076446l-0.017374,0.052123l0.031274,0.003475Z M843.816901,357.476424h0.038223l0.013899,-0.041698l0.052123,-0.038223l0.010425,-0.055597l-0.041698,-0.027799l-0.038223,0.020849l-0.027799,0.062547l-0.00695,0.079921Z M844.028866,357.281833l0.031274,-0.003475l0.017374,-0.027799l-0.00695,-0.041698h-0.027799l-0.017374,0.034748l0.003475,0.038223Z M843.566712,357.792634l0.024324,0.020849l0.041698,-0.017374l0.00695,-0.034748l-0.034748,-0.013899l-0.034748,0.013899l-0.003475,0.031274Z M843.274826,357.978538l0.034748,0.071234l0.048648,0.00695l0.020849,-0.024324l-0.013899,-0.038223l-0.059072,-0.041698l-0.022586,0.003475l-0.008687,0.022586Z M843.389495,358.10537l0.04691,-0.00695l0.019112,-0.017374l-0.010425,-0.024324l-0.034748,-0.003475l-0.034748,0.031274l0.013899,0.020849Z M843.424244,358.018499l0.062547,0.022586l0.017374,-0.012162v-0.020849l-0.069497,-0.020849l-0.019112,0.008687l0.008687,0.022586Z M842.896068,357.979407l0.059941,-0.062547l0.005212,-0.028667l-0.023455,-0.005212l-0.049516,0.031274l-0.013031,0.054729l0.020849,0.010425Z M842.849158,358.164442l-0.007818,0.023455l0.031274,0.039092l0.072972,0.049516l0.143337,0.044304l0.172005,0.099033l0.075578,0.028667l0.026061,-0.018243l0.002606,-0.041698l-0.041698,-0.039092l-0.20849,-0.072972l-0.239764,-0.117276l-0.026061,0.005212Z M843.04983,358.393782l-0.020849,0.015637v0.023455l0.020849,0.010425l0.026061,-0.018243v-0.028667l-0.026061,-0.002606Z M843.302624,358.487602l-0.020849,0.036486l0.002606,0.057335l-0.015637,0.031274l-0.031274,0.018243l-0.010425,0.036486l0.020849,0.015637l0.036486,-0.020849l0.062547,-0.179823l-0.020849,-0.005212l-0.023455,0.010425Z M843.088922,358.69088l-0.015637,0.023455l0.031274,0.026061l0.054729,0.002606l0.036486,-0.018243l-0.013031,-0.018243l-0.03388,0.005212l-0.036486,-0.005212l-0.023455,-0.015637Z M842.312295,358.709123l0.062547,0.039092l0.078184,0.106851l0.088608,0.026061l0.041698,-0.031274l0.065153,-0.013031l0.096427,0.028667l0.018243,-0.026061l-0.03388,-0.020849l-0.091215,-0.138125l-0.072972,-0.125094l-0.083396,-0.03388l-0.1277,0.031274l-0.062547,0.067759l-0.010425,0.04691l0.031274,0.041698Z M842.653698,358.667425l0.075578,0.112064l0.028667,0.023455l0.044304,-0.013031l0.005212,-0.044304l-0.062547,-0.070365l-0.026061,-0.088608l-0.059941,-0.028667l-0.023455,0.018243l0.018243,0.091215Z M842.742307,358.526694l0.010425,0.057335l0.057335,0.067759l0.03388,-0.002606l0.075578,-0.101639l0.002606,-0.057335l-0.101639,-0.1277l-0.057335,-0.013031l-0.031274,0.028667l0.020849,0.057335l-0.010425,0.091215Z M842.453026,358.456329l0.096427,0.010425l0.065153,0.04691l0.023455,-0.010425l-0.002606,-0.028667l-0.052123,-0.041698l-0.007818,-0.086002l0.028667,-0.052123l-0.013031,-0.026061l-0.028667,0.005212l-0.075578,0.08079l-0.072972,0.026061l-0.036486,0.04691l0.015637,0.031274l0.059941,-0.002606Z M840.985776,358.808156l-0.005212,0.020849l0.023455,0.005212l0.093821,-0.036486l0.005212,-0.023455l-0.020849,-0.007818l-0.096427,0.041698Z M841.72331,359.159984l0.015637,0.041698l0.070365,0.013031l0.023455,0.028667l0.054729,0.002606l0.03388,-0.031274l-0.013031,-0.057335l-0.075578,-0.04691l-0.065153,0.005212l-0.044304,0.044304Z M841.900527,359.102649l0.039092,0.03388l0.007818,0.041698l0.03388,0.010425l0.036486,-0.023455l-0.007818,-0.041698l-0.062547,-0.039092l-0.036486,-0.002606l-0.010425,0.020849Z M841.955256,359.058345l0.078184,0.049516l0.007818,0.039092l0.023455,0.002606l0.072972,-0.018243l-0.002606,-0.031274l-0.1277,-0.099033l-0.065153,-0.010425l-0.015637,0.023455l0.028667,0.044304Z M837.120886,359.165196l-0.020849,0.036486l0.031274,0.041698l0.036486,-0.015637l0.005212,-0.041698l-0.015637,-0.031274l-0.036486,0.010425Z M841.971761,359.255542h0.052123l0.027799,-0.020849l-0.013899,-0.024324h-0.041698l-0.031274,0.020849l0.00695,0.024324Z M832.586221,358.326022l0.036486,-0.020849l-0.012131,-0.070801l-0.062596,-0.023473l-0.03473,0.026515l0.015637,0.052123l0.057335,0.036486Z M833.196055,357.518122l-0.020849,0.057335l0.010425,0.062547l0.041698,0.005212l0.026061,-0.04691l-0.005212,-0.072972l-0.052123,-0.005212Z M835.687515,356.074327l-0.005212,0.052123l0.041698,0.026061l0.036486,-0.010425l-0.005212,-0.041698l-0.031274,-0.041698l-0.036486,0.015637Z M837.350225,356.168147l0.005212,0.041698l0.031274,0.041698l0.031274,-0.010425l-0.010425,-0.062547l-0.031274,-0.026061l-0.026061,0.015637Z M839.925081,359.136528l0.036486,0.028667l0.018243,-0.005212l-0.010425,-0.049516l-0.028667,-0.023455l-0.018243,0.010425l0.002606,0.039092Z  M849.356663,356.968229l0.122,0.021l0.13,-0.055l0.094,-0.093l0.099,-0.04l0.008,-0.158l0.005,-0.105l0.193,-0.028l0.086,-0.063l0.003,-0.044l0.034,-0.018l0.06,0.018l0.086,-0.058l0.073,-0.135l-0.097,-0.154l0.089,0.003l0.107,-0.029l-0.026,-0.138l-0.018,-0.209l-0.019,-0.13l0.002,-0.134l-0.007,-0.151l0.042,-0.186l0.003,-0.17l0.038,-0.258l-0.003,-0.069l-0.025,-0.034l-0.086,0.017l-0.018,-0.07l0.077,-0.104l0.006,-0.105l-0.013,-0.072l0.01,-0.097l-0.007,-0.143l0.021,-0.062l-0.01,-0.087l-0.032,-0.052l-0.014,-0.16l-0.041,-0.063l-0.198,-0.031l-0.025,-0.038l-0.05,-0.018l-0.031,0.018l-0.006,0.031l0.032,0.021l-0.007,0.017h-0.084l-0.052,-0.021h-0.087l-0.034,-0.034l-0.021,-0.115l-0.073,-0.052l-0.059,-0.021l0.007,-0.089l0.031,-0.18l-0.042,-0.115l-0.013,-0.148l-0.039,-0.053l-0.002,-0.057l0.036,-0.091l0.044,-0.029l-0.007,-0.073l0.065,-0.067l0.002,-0.102l-0.028,-0.013l-0.019,-0.104l0.055,-0.032l0.037,-0.07l-0.032,-0.094v-0.078l-0.047,-0.044l-0.033,-0.089l0.013,-0.023l-0.037,-0.055l-0.049,0.005l-0.021,0.034l-0.029,0.026l-0.036,0.005l-0.024,-0.015h-0.036l-0.047,0.007l-0.065,0.206l-0.079,0.115l-0.052,0.172l-0.229,0.37l-0.255,0.308l-0.146,0.104l-0.266,0.073l-0.11,0.099l-0.067,0.114l-0.127,0.126l-0.202,0.121l-0.042,0.08l0.014,0.101l-0.041,0.042l-0.216,0.055l-0.066,-0.003l-0.017,-0.052l0.038,-0.143l0.059,-0.049l0.004,-0.069l-0.035,0.003l-0.024,0.053l-0.053,0.027l-0.073,0.101l-0.01,0.094l-0.043,0.076l-0.075,0.084l-0.049,0.101l-0.062,0.086l-0.063,0.042l-0.069,0.073l-0.052,0.087l-0.098,0.059l-0.097,0.108l-0.056,0.127l-0.01,0.057l-0.045,-0.012l-0.111,-0.144l-0.047,0.015l-0.011,0.058l0.026,0.052l-0.047,0.067l-0.021,0.115l-0.344,0.464l-0.046,0.12l-0.029,0.026l-0.031,-0.016l-0.037,-0.075l-0.099,-0.003l-0.07,0.073l0.005,0.083l0.089,0.034l0.005,0.037l-0.089,0.107l-0.042,0.088l-0.072,0.042l-0.094,-0.047l-0.042,0.042l0.01,0.078l-0.052,0.047l-0.026,-0.018l-0.015,-0.089l-0.107,-0.055l-0.11,0.034l-0.031,0.12l0.042,0.063l0.062,0.018l-0.002,0.029l-0.079,0.013l-0.099,0.083l-0.083,-0.042l-0.042,0.032l0.032,0.062l-0.05,0.041l-0.023,0.042l-0.158,0.091l-0.049,0.08l-0.16,0.069l-0.083,-0.007l-0.056,0.028l-0.021,0.125l0.056,0.063l0.021,0.09h-0.028l-0.035,-0.062l-0.059,-0.056l-0.01,-0.063l-0.046,-0.003l-0.076,0.073l-0.031,0.111l-0.115,0.108l-0.014,0.083l0.042,0.08l0.021,0.188l-0.028,0.031h-0.059l-0.014,0.028l0.024,0.038l-0.028,0.049l-0.104,0.021l-0.021,0.045l0.039,0.021l0.055,-0.025l0.038,0.018l-0.007,0.076l-0.076,0.212l-0.118,0.08l-0.223,-0.021l-0.152,-0.137v-0.084l-0.073,-0.005l-0.125,0.104l-0.094,0.021v0.042l0.286,0.146l0.24,0.042l0.125,-0.011l0.058,0.063l-0.011,0.052h-0.078l-0.104,-0.047l-0.136,-0.005l-0.047,0.078l-0.109,0.026l-0.089,-0.036l-0.109,-0.209l-0.099,-0.052l-0.021,-0.073l-0.047,-0.005l-0.026,0.041l0.016,0.079l-0.131,0.14l-0.083,0.026l-0.021,0.037l0.115,0.021l0.26,0.12l0.261,0.073l0.026,0.078l-0.052,0.104l-0.073,0.193l-0.172,0.135l-0.287,0.094l-0.307,0.037l-0.152,-0.058l-0.156,-0.192l-0.016,-0.073l-0.052,-0.011l-0.13,0.084l-0.026,0.088l0.078,0.172l0.13,0.136l0.084,0.02l-0.005,0.047l-0.183,0.115l-0.271,0.016l-0.078,0.057v0.089l-0.083,0.093l-0.746,0.157l-0.24,-0.042l-0.161,0.005l-0.177,0.073l-0.193,-0.01l-0.261,-0.188l-0.198,-0.052l-0.073,-0.057l-0.094,-0.005l-0.093,0.047l-0.235,0.015l-0.141,0.073h-0.13l-0.141,-0.068l-0.14,-0.172l-0.155,-0.067l-0.07,0.041v0.07l-0.208,0.048l-0.153,-0.02l-0.132,-0.077l-0.104,-0.007l-0.098,0.049l-0.291,0.014l-0.07,-0.042l-0.104,0.007l-0.063,0.042l-0.104,0.007l-0.153,-0.049l-0.194,-0.014l-0.133,-0.083l-0.069,-0.105l-0.146,-0.013l-0.09,0.062l-0.014,0.09l0.062,0.049v0.049l-0.375,0.167l-0.146,0.132l-0.278,0.111l-0.181,0.125l-0.382,0.125l-0.208,0.007l-0.118,-0.028h-0.084l-0.069,0.035l-0.091,-0.007l-0.104,-0.063l-0.264,-0.062l-0.097,0.035l-0.049,0.048l-0.271,-0.041l-0.153,-0.098l-0.062,-0.146l0.013,-0.125l-0.02,-0.153l-0.042,-0.097l0.035,-0.389l0.027,-0.07l-0.083,-0.125l-0.09,0.007l-0.077,0.104l0.007,0.126l-0.048,0.076l-0.063,-0.014l-0.014,-0.195l-0.083,-0.208l-0.049,0.028l0.014,0.097l0.056,0.125l-0.049,0.139l-0.063,0.007l-0.055,-0.208l0.014,-0.23l-0.084,-0.18h-0.048l-0.028,0.125l0.048,0.118l-0.039,0.234v0.496l3.688,4.656l9.459,1.206l0.264,-0.306l0.014,0.023l0.024,-0.214l0.042,-0.098l-0.014,-0.403l-0.042,-0.111l0.007,-0.438l0.038,-0.107l0.031,-0.244l0.185,-0.253l0.434,-0.824l0.052,0.038l0.083,-0.121l0.032,-0.167l0.191,-0.313l0.111,-0.09l0.063,-0.139l0.097,-0.132l-0.011,-0.365l-0.125,-0.146l-0.017,-0.361l-0.059,-0.167l-0.108,-0.181l0.031,-0.059l0.303,-0.135l0.09,-0.084l0.469,-0.191l0.171,0.014l0.111,0.108l0.121,0.041l0.233,-0.125l0.242,-0.052l0.187,-0.021l-0.005,-0.104l-0.057,-0.104l-0.089,-0.099l-0.047,-0.104l0.042,-0.063l-0.031,-0.117l-0.045,0.008l0.011,-0.04l-0.316,0.029l-0.132,0.06l-0.092,-0.039l-0.112,-0.091l-0.086,-0.005l-0.005,-0.053l0.023,-0.057l0.045,-0.003l0.07,-0.065l0.039,-0.099l0.115,-0.081v-0.32h-0.026l-0.026,-0.128l-0.128,-0.174l-0.068,-0.159l0.006,-0.185l0.174,-0.167l-0.081,-0.086l0.162,-0.138l-0.031,-0.097l-0.003,-0.094l0.013,-0.185l-0.005,-0.054l-0.039,-0.042v-0.031l-0.026,-0.013v-0.43l0.146,-0.217h0.216l0.182,-0.161l0.18,0.047l0.084,0.083l0.052,0.021l-0.016,0.066l0.068,0.01l-0.068,0.158v0.086l0.039,0.037l0.042,0.026l-0.047,0.014l-0.261,-0.1l-0.002,0.065l0.202,0.24l0.006,0.104l0.065,0.064l0.013,0.06l0.039,0.059l0.053,0.002z M849.906556,354.872901l0.073,-0.031l0.031,-0.055l-0.037,-0.094l0.034,-0.06l0.071,-0.008l0.104,0.042l0.044,0.055l0.084,0.013l0.028,0.044l-0.021,0.099l-0.099,0.037l-0.078,0.073l-0.156,0.041l-0.12,-0.026l-0.034,-0.069l0.076,-0.061z M850.049893,354.85987l0.023,-0.047l0.032,-0.003l0.041,0.037v0.018l-0.028,0.005l-0.021,0.034l-0.029,0.003l-0.018,-0.047z"/>
</svg>
