<svg xmlns="http://www.w3.org/2000/svg" viewBox="411.947 386.279 0.909 0.673">
  <path d="M412.479195,386.343247l0.011088,-0.012243l0.035889,0.004141l0.009828,0.007302l-0.001432,0.008219l-0.02017,0.015783l-0.025496,0.005965l-0.012423,-0.009663l0.002715,-0.019505Z M412.592431,386.433151l0.006902,-0.008282l-0.00138,-0.008282l-0.009663,0.00138l-0.00138,0.009663l0.005521,0.005521Z M412.534455,386.498028l0.013804,0.004141l0.046932,-0.012423l0.045552,-0.033129l-0.005521,-0.011043l-0.020705,-0.005521l-0.011043,0.008282l-0.004141,0.012423l-0.035889,0.017945l-0.027607,0.005521l-0.00138,0.013804Z M412.825712,386.685758l0.026227,0.002761l0.004141,-0.011043l-0.011043,-0.005521l-0.024847,-0.00138l-0.013804,-0.005521l-0.005558,0.003829l0.000036,0.005833l0.024847,0.011043Z M412.473719,386.398642l0.008282,-0.004141l-0.001206,-0.01205l-0.009601,-0.008801l-0.007138,0.000145l0.002761,0.015184l0.006902,0.009663Z M412.610375,386.398642l0.009663,-0.004141l0.005521,-0.011043l-0.012423,-0.002761l-0.008282,0.011043l0.005521,0.006902Z M412.822952,386.750635l0.009663,-0.004141l-0.004141,-0.011043l-0.013804,0.00138l-0.00138,0.012423l0.009663,0.00138Z M412.446112,386.513212l0.012423,-0.00138l0.005521,-0.008282l-0.009663,-0.004141l-0.012423,0.006902l0.004141,0.006902Z M412.02234,386.586371l0.005521,-0.004141l0.00138,-0.008282h-0.011043l-0.004141,0.008282l0.008282,0.004141Z M411.993352,386.553242l0.063497,-0.011043l0.012423,0.012423l-0.001321,0.014248l-0.018005,0.038206l-0.015184,0.009663l-0.008282,-0.011043h-0.022086l-0.013804,0.012423l-0.022086,-0.002761l-0.021367,0.019919l0.002042,0.009069l0.023466,-0.005521l0.030368,0.005521l0.004141,0.013804l-0.016564,0.004141l-0.00138,0.012423h0.015184l0.011043,0.023466l-0.000292,0.017105l-0.012131,0.020164l-0.012423,0.00138l-0.009663,0.011043l0.026227,0.093865l0.024847,0.015184l0.023466,-0.00138l0.063497,0.006902l0.012423,0.015184l0.069018,0.017945l0.012423,-0.009663l0.012423,0.002761l-0.009663,0.034509l0.006902,0.009663l0.012423,-0.009663l0.047458,-0.003072l0.013278,-0.00659l0.009663,-0.017945l0.020705,-0.004141l0.03727,0.011043l0.025496,0.017633l0.009013,-0.002449l-0.005813,-0.011152v-0.009601l0.020997,-0.034461l0.027607,-0.002761l0.016564,0.011043l-0.002761,0.023466l-0.023466,0.006902l-0.008282,0.020705l0.006944,0.011109l0.019283,0.008216l0.017521,-0.004215l0.004565,-0.006828l-0.005521,-0.016564l0.003357,-0.007811h0.006401l0.010948,0.016093v0.017945l0.017945,0.013804l0.019113,0.000963l0.019537,-0.006485l0.006902,-0.022086l0.011043,-0.00138l0.009663,0.012423h0.011043l0.002761,-0.019325l-0.017744,-0.015953v-0.009601l0.005321,-0.007575l0.017945,0.00138l0.006902,-0.015184l-0.004564,-0.009025l-0.031325,-0.025485l-0.01428,-0.02172l-0.003665,-0.023832l0.011043,-0.009663h0.023466l0.045552,0.027607l0.048313,0.017945h0.059356l0.019325,-0.012423l-0.00138,-0.016564l0.023466,-0.016564h0.017945l0.013804,-0.011043l-0.012423,-0.035889l-0.002761,-0.057975l-0.009663,-0.006902l-0.022086,0.017945h-0.028988l-0.008282,-0.015184l-0.017945,-0.006902l-0.009663,0.009663l-0.027607,0.011043l0.002761,-0.012423l0.025292,-0.01974l0.006456,-0.01753l0.020705,-0.002761l0.011043,-0.008282v-0.016564l0.008282,-0.002761l0.016564,0.017945l0.008282,-0.005521l0.017945,-0.048313l-0.004141,-0.015184l-0.015184,-0.002761l-0.015792,0.008208l-0.014402,-0.0008l-0.016002,-0.008801l-0.018402,0.004801l-0.009943,0.013157l-0.024847,0.015184h-0.020705l0.011043,-0.017945l-0.009663,-0.002761l-0.03865,0.012423l-0.013804,0.019325l-0.011043,0.004141l0.005521,-0.030368l0.020705,-0.027607l-0.012423,-0.019325l-0.022086,0.00138l-0.023466,-0.00138l-0.011043,-0.012423l-0.016564,-0.006902l-0.011043,-0.019325l0.00138,-0.015184l0.013804,-0.009663l0.012009,-0.01314l0.0016,-0.012001l-0.008087,-0.01627l-0.012423,0.002761l-0.00138,0.017945l-0.008512,0.012366l-0.028758,0.0111l-0.004046,0.009702l0.009567,0.012384l0.002761,0.024847l-0.005521,0.011043l-0.012423,-0.00138l-0.034509,0.012423l-0.015184,-0.013804l0.008282,-0.020705l0.00138,-0.023466l-0.013804,-0.006902l-0.024847,0.015184l-0.005521,-0.015184l0.015184,-0.015184l0.002761,-0.019325l0.006267,-0.011935l0.006401,-0.0008l0.012801,0.008001l0.00904,-0.002167l-0.001029,-0.01544l-0.00641,-0.007995l-0.032591,-0.013835l-0.017945,-0.022086l0.00138,-0.019325l-0.006902,-0.011043l-0.017945,-0.002761l-0.017945,-0.035889l-0.016564,-0.005521l-0.040031,0.011043h-0.026227l-0.019325,-0.016564h-0.022086l-0.044172,0.023466l0.00138,0.016564l-0.028988,0.033129l-0.017674,0.049223l-0.016802,0.021602l-0.0032,0.015202l0.004547,0.003697l0.015184,-0.006902l0.023466,0.002761l0.001607,0.007645l-0.014031,0.004778l-0.005171,0.006423l0.004801,0.007201l0.023837,0.002941l0.011043,0.013804l-0.005521,0.009663l-0.04136,-0.003205l-0.036804,-0.017602l-0.026744,-0.020605l-0.033129,-0.004141l-0.006902,0.015184l-0.040031,0.023466l-0.015608,0.0277l-0.007858,0.039938l0.015184,0.012423l0.022086,-0.015184Z M412.635222,386.536678l0.017945,-0.008282l0.002761,-0.015184l-0.015184,0.006902l-0.020705,0.008282v0.008282h0.015184Z M412.679394,386.54358l0.015825,0.001288l0.011783,-0.004049l-0.004582,-0.004752l-0.024406,-0.004911l-0.009663,0.005521l0.011043,0.006902Z "/>
</svg>
