<svg xmlns="http://www.w3.org/2000/svg" viewBox="411.947 386.278 0.909 0.673">
  <path d="M412.479,386.343l0.011,-0.012l0.036,0.004l0.01,0.007v0.008l-0.022,0.016 l-0.025,0.006l-0.012,-0.01l0.003,-0.02Z M412.592,386.433l0.007,-0.008v-0.008l-0.011,0.001 v0.01l0.004,0.006 Z M412.534,386.498l0.014,0.004l0.047,-0.012l0.046,-0.033l-0.006,-0.011l-0.021,-0.006l-0.011,0.008l-0.004,0.012l-0.036,0.018l-0.028,0.006v0.014Z M412.826,386.686l0.026,0.003l0.004,-0.011l-0.011,-0.006h-0.025l-0.014,-0.007 l-0.006,0.004v0.006l0.025,0.011 Z M412.474,386.399l0.008,-0.004v-0.012l-0.011,-0.009 h-0.007l0.003,0.015 l0.007,0.01Z M412.61,386.399l0.01,-0.004l0.006,-0.011l-0.012,-0.003l-0.008,0.011l0.006,0.007Z M412.823,386.751l0.01,-0.004l-0.004,-0.011h-0.014l-0.001,0.014 h0.01Z M412.446,386.513h0.012l0.006,-0.01 l-0.01,-0.004l-0.012,0.007l0.004,0.007Z M412.022,386.586l0.006,-0.004v-0.008l-0.01,0 l-0.004,0.008l0.008,0.004Z M411.993,386.553l0.063,-0.011l0.012,0.012v0.014l-0.019,0.038 l-0.015,0.01l-0.008,-0.011h-0.022l-0.014,0.012l-0.022,-0.003l-0.021,0.02l0.002,0.009l0.023,-0.006l0.03,0.006l0.004,0.014l-0.017,0.004v0.012l0.014,0 l0.011,0.023v0.017l-0.012,0.02 h-0.012l-0.01,0.012 l0.026,0.094l0.025,0.015h0.023l0.063,0.006 l0.012,0.015l0.069,0.018l0.012,-0.01l0.012,0.003l-0.01,0.035l0.007,0.01l0.012,-0.01l0.047,-0.003l0.013,-0.007l0.01,-0.018l0.021,-0.004l0.037,0.011l0.025,0.018l0.009,-0.002l-0.006,-0.011v-0.01l0.021,-0.034l0.028,-0.003l0.017,0.011l-0.003,0.023l-0.023,0.007l-0.008,0.021l0.007,0.011l0.019,0.008l0.018,-0.004l0.005,-0.007l-0.006,-0.017l0.003,-0.008h0.006l0.011,0.016v0.018l0.018,0.014h0.019l0.02,-0.006 l0.007,-0.022h0.011l0.01,0.011 h0.011l0.003,-0.019l-0.018,-0.016v-0.01l0.005,-0.008h0.018l0.007,-0.014 l-0.005,-0.009l-0.031,-0.025l-0.014,-0.022l-0.004,-0.024l0.011,-0.01h0.023l0.046,0.028l0.048,0.018h0.059l0.019,-0.012v-0.017l0.022,-0.017 h0.018l0.014,-0.011l-0.012,-0.036l-0.003,-0.058l-0.01,-0.007l-0.022,0.018h-0.029l-0.008,-0.015l-0.018,-0.007l-0.01,0.01l-0.028,0.011l0.003,-0.012l0.025,-0.02l0.006,-0.018l0.021,-0.003l0.011,-0.008v-0.017l0.008,-0.003l0.017,0.018l0.008,-0.006l0.018,-0.048l-0.004,-0.015l-0.015,-0.003l-0.016,0.008h-0.014l-0.016,-0.01 l-0.018,0.005l-0.01,0.013l-0.025,0.015h-0.021l0.011,-0.018l-0.01,-0.003l-0.039,0.012l-0.014,0.019l-0.011,0.004l0.006,-0.03l0.021,-0.028l-0.012,-0.019h-0.022l-0.023,0 l-0.011,-0.012l-0.017,-0.007l-0.011,-0.019v-0.015l0.015,-0.01 l0.012,-0.013l0.002,-0.012l-0.008,-0.016l-0.012,0.003v0.018l-0.01,0.012 l-0.029,0.011l-0.004,0.01l0.01,0.012l0.003,0.025l-0.006,0.011h-0.012l-0.035,0.011 l-0.015,-0.014l0.008,-0.021v-0.023l-0.012,-0.007 l-0.025,0.015l-0.006,-0.015l0.015,-0.015l0.003,-0.019l0.006,-0.012h0.006l0.013,0.007 l0.009,-0.002v-0.015l-0.007,-0.008 l-0.033,-0.014l-0.018,-0.022v-0.019l-0.006,-0.011 l-0.018,-0.003l-0.018,-0.036l-0.017,-0.006l-0.04,0.011h-0.026l-0.019,-0.017h-0.022l-0.044,0.023v0.017l-0.028,0.033 l-0.018,0.049l-0.017,0.022l-0.003,0.015l0.005,0.004l0.015,-0.007l0.023,0.003l0.002,0.008l-0.014,0.005l-0.005,0.006l0.005,0.007l0.024,0.003l0.011,0.014l-0.006,0.01l-0.041,-0.003l-0.037,-0.018l-0.027,-0.021l-0.033,-0.004l-0.007,0.015l-0.04,0.023l-0.016,0.028l-0.008,0.04l0.015,0.012l0.022,-0.015Z M412.635,386.537l0.018,-0.008l0.003,-0.015l-0.015,0.007l-0.021,0.008v0.008h0.015Z M412.679,386.544h0.016l0.012,-0.003 l-0.005,-0.005l-0.024,-0.005l-0.01,0.006l0.011,0.007Z "/>
</svg>
