<svg xmlns="http://www.w3.org/2000/svg" viewBox="412.016 384.136 0.569 0.722">
  <path d="M412.124,384.648l0.019,-0.088v-0.043l-0.004,-0.04 l0.01,-0.01v0.023l0.011,0.036l-0.01,0.066l0.011,0.009l0.014,0.002l0.028,-0.017l0.011,-0.023l-0.008,-0.048l0.011,-0.033l0.019,-0.029l0.002,-0.015l-0.021,-0.025l-0.006,-0.025l0.011,-0.05v-0.026l0.01,-0.008 l0.036,0.003l0.031,-0.015l0.005,-0.01l-0.008,-0.01l-0.02,0.006l-0.011,-0.006l-0.003,-0.014l-0.014,-0.004l-0.026,0.012l-0.007,-0.007l0.007,-0.018v-0.021l-0.014,-0.017l-0.005,0.004l0.002,0.018l-0.007,0.005h-0.013l-0.008,0.009v0.02l0.019,0.028 l0.012,0.007l0.005,0.01l-0.002,0.015l-0.01,-0.002l-0.012,-0.013l-0.01,-0.022l-0.007,-0.004l-0.006,0.004v0.024l-0.007,0 l-0.016,-0.025l-0.009,-0.007l-0.022,-0.004l-0.004,-0.008l0.007,-0.017l-0.003,-0.018l-0.012,-0.01v-0.029l0.03,-0.011 l0.008,-0.012l-0.006,-0.015l0.017,-0.014l0.026,0.004l0.055,0.063l0.017,0.03l0.018,0.004l0.018,-0.006l0.014,0.006l0.01,0.012l0.013,0.003l0.023,-0.005l0.022,0.011l0.068,0.097l0.021,0.018h0.011l0.01,0.008v0.01l0.055,0.052 l0.026,0.059l0.018,0.091l0.011,0.018v0.025l-0.011,0.049 l-0.012,0.017l-0.002,0.013l0.006,0.022l-0.003,0.025l-0.01,0.011v0.017l0.012,0.014 v0.021l0.016,0.024 l-0.004,0.006l-0.03,-0.032l-0.037,-0.012l-0.023,0.002l-0.012,0.009l-0.02,0.036l-0.011,-0.007l0.008,-0.035l-0.023,-0.047l-0.047,-0.03h-0.025l-0.028,-0.014 l-0.015,-0.021l-0.065,-0.039h-0.046l-0.052,0.03l-0.021,0.021l-0.018,-0.003l-0.007,-0.019l0.018,-0.048Z M412.134,384.451l0.005,-0.007l0.003,-0.032l-0.004,-0.012l-0.022,-0.017l-0.007,-0.017l-0.006,-0.045l-0.017,-0.039l0.002,-0.013l0.015,-0.016l-0.003,-0.017l-0.011,-0.006v-0.035l-0.012,-0.006l-0.035,0.051l-0.026,0.024l0.003,0.012l0.046,0.03l0.021,0.036l0.01,0.041l0.011,0.015l0.017,0.011l0.011,0.039Z "/>
</svg>
