<svg xmlns="http://www.w3.org/2000/svg" viewBox="412.016 384.137 0.567 0.722">
  <path d="M412.124487,384.648338l0.019325,-0.088343l0.00138,-0.042791l-0.005521,-0.040031l0.009663,-0.009663v0.023466l0.011043,0.035889l-0.009663,0.066258l0.010785,0.009452l0.014056,0.002008l0.027612,-0.016981l0.011043,-0.023466l-0.008282,-0.048313l0.011043,-0.033129l0.018826,-0.028715l0.00188,-0.015456l-0.020705,-0.024847l-0.005521,-0.024847l0.011043,-0.049693l0.00138,-0.026227l0.008282,-0.008282l0.035889,0.002761l0.031006,-0.015057l0.004884,-0.009789l-0.007896,-0.010291l-0.019712,0.00615l-0.010754,-0.005774l-0.0032,-0.013601l-0.013653,-0.004091l-0.026227,0.012423l-0.006902,-0.006902l0.006902,-0.017945v-0.020705l-0.013804,-0.016564l-0.004723,0.004179l0.001962,0.017907l-0.006763,0.005295h-0.012801l-0.008001,0.008801l-0.000042,0.020413l0.019325,0.027607l0.012046,0.006903l0.004882,0.010025l-0.001744,0.01482l-0.010166,-0.001752l-0.01192,-0.013432l-0.010372,-0.021896l-0.00681,-0.004284l-0.006285,0.004095l-0.000116,0.023908l-0.006786,0.000938l-0.015617,-0.024941l-0.00923,-0.006808l-0.022086,-0.004141l-0.004141,-0.008282l0.006902,-0.016564l-0.002761,-0.017945l-0.012423,-0.009663l0.00138,-0.028988l0.028988,-0.011043l0.008282,-0.012423l-0.005521,-0.015184l0.016564,-0.013804l0.026227,0.004141l0.055215,0.063497l0.016564,0.030368l0.017945,0.004141l0.017945,-0.005521l0.013804,0.005521l0.009663,0.012423l0.013064,0.002632l0.022826,-0.005393l0.022086,0.011043l0.067638,0.096626l0.020705,0.017945h0.011043l0.009663,0.008282l0.00138,0.009663l0.053834,0.052454l0.026227,0.059356l0.017945,0.091104l0.011043,0.017945l-0.000722,0.024656l-0.010321,0.048503l-0.012423,0.016564l-0.002059,0.012541l0.006401,0.021602l-0.002962,0.025213l-0.009663,0.011043l0.00138,0.016564l0.011043,0.013804l0.00138,0.020705l0.014822,0.023883l-0.003779,0.006485l-0.030368,-0.031748l-0.03727,-0.012423l-0.023157,0.002014l-0.012073,0.008846l-0.019985,0.036073l-0.011043,-0.006902l0.008282,-0.034509l-0.023466,-0.046932l-0.046932,-0.030368l-0.024847,0.00138l-0.027607,-0.015184l-0.015184,-0.020705l-0.064877,-0.03865h-0.045552l-0.052454,0.030368l-0.020705,0.020705l-0.017945,-0.002761l-0.006902,-0.019325l0.017945,-0.048313Z M412.134149,384.450946l0.005261,-0.007007l0.003021,-0.031643l-0.004025,-0.01153l-0.022202,-0.017458l-0.006915,-0.016679l-0.005508,-0.045437l-0.016581,-0.038901l0.002008,-0.013052l0.014573,-0.015684l-0.002761,-0.016564l-0.011043,-0.005521v-0.034509l-0.012423,-0.005521l-0.034509,0.051074l-0.026127,0.023715l0.00266,0.012175l0.045552,0.030368l0.020705,0.035889l0.009663,0.041411l0.011043,0.015184l0.016564,0.011043l0.011043,0.03865Z "/>
</svg>
