<svg xmlns="http://www.w3.org/2000/svg" viewBox="406.890 381.988 1.245 0.564">
  <path d="M406.891,382.066l0.018,-0.019h0.018l0.03,0.008 l0.033,-0.007v0.012l-0.046,0.025 l-0.003,0.011h-0.012l-0.012,-0.01l-0.021,-0.004l-0.006,-0.017Z M407.195,382.12v-0.01l-0.028,-0.01 l-0.017,0.006l0.008,0.01l0.022,0.006h0.014Z M407.217,382.135l0.021,0.003l0.01,-0.01l-0.011,-0.01l-0.026,-0.003l-0.007,0.01l0.014,0.01Z M408.02,382.008l0.014,-0.006l0.007,-0.011l-0.011,-0.003l-0.011,0.01v0.01Z M408.015,382.074l0.006,0.01l0.044,-0.023l0.006,-0.015l0.061,-0.015l0.003,-0.011l-0.017,-0.015h-0.032l-0.017,-0.006 l-0.04,0.023l-0.008,0.014l0.006,0.021l-0.011,0.018Z M407.206,382.545l0.006,0.007h0.01v-0.011l-0.012,-0.004 l-0.003,0.008Z M407.225,382.526l0.01,0.004l0.043,-0.014l0.022,0.008h0.017l0.059,-0.035l0.011,0.007h0.011l0.046,-0.033 l0.025,0.006l0.01,0.017l-0.003,0.014l0.01,0.004l0.066,-0.019l0.037,-0.021l0.022,-0.036l0.021,-0.006h0.023l0.041,-0.035 h0.025l0.029,-0.026 l0.062,-0.023l0.008,-0.011l-0.003,-0.017l0.017,-0.012v-0.012l0.011,-0.003l0.012,0.012l0.033,-0.007l0.028,-0.026l0.006,-0.032l0.019,-0.022l-0.006,-0.01h-0.015l-0.008,-0.011l0.01,-0.017l0.037,-0.025l0.012,-0.025h0.015l0.004,-0.01l-0.007,-0.011l0.004,-0.019h-0.01l-0.015,0.019 l-0.039,0.026h-0.021l-0.041,0.025 l-0.012,-0.004l0.004,-0.012h-0.019l-0.046,0.025h-0.017l-0.004,-0.01h-0.011l-0.018,0.015 l-0.04,0.011l-0.088,0.054l-0.015,0.017v0.01l0.012,0.012 l0.006,0.023l-0.015,0.022l-0.051,0.023l-0.028,0.007l-0.01,0.015l0.011,0.006l0.004,0.014l-0.015,0.014h-0.028l-0.046,0.012h-0.048l-0.029,0.012l-0.007,0.019l-0.017,0.017l-0.011,-0.003l-0.011,0.007l-0.006,0.01l-0.025,0.018l-0.01,-0.003l-0.017,0.007l-0.006,0.015l-0.029,0.021Z "/>
</svg>
