<svg xmlns="http://www.w3.org/2000/svg" viewBox="685.993 466.856 4.017 5.139">
  <path d="M685.993186,469.265471l0.004,-0.048l0.264,-0.264l0.274,-0.223l0.115,-0.375l0.042,-0.01l0.017,0.034l0.035,0.007l0.031,-0.024l0.035,0.003l0.003,0.039l0.032,0.007l0.079,-0.052l0.15,0.013l0.083,-0.031l0.129,-0.198l0.021,-0.108l0.038,-0.02l0.017,-0.032l-0.01,-0.045l0.042,-0.049l0.02,-0.079l-0.041,-0.063l0.024,-0.083l0.16,-0.032l0.062,-0.021l0.098,-0.1l0.062,-0.007l0.033,0.041l0.07,0.035l0.104,0.002l0.007,-0.044l0.023,-0.036l0.246,-0.005l0.058,-0.026l0.034,-0.068l0.075,-0.061v-0.057l0.087,-0.092l0.076,-0.005l0.139,0.086h0.047l0.033,-0.043l-0.21,-0.313l0.016,-0.015l0.029,0.024l0.085,0.019l0.025,-0.016l-0.002,-0.059l0.036,-0.015l0.15,0.168l0.059,0.014l0.024,-0.024l-0.003,-0.042l0.041,-0.01l0.226,0.205l0.23,0.215l0.031,0.077l0.201,0.236l0.084,0.076l0.014,0.042l0.087,0.056l0.076,0.069l-0.024,0.021l-0.091,-0.004l-0.045,-0.034l-0.048,0.007l-0.055,0.1l-0.053,0.021l-0.052,-0.031l-0.098,0.01l-0.055,0.04l-0.111,0.047l-0.025,0.056l-0.038,0.003l-0.066,-0.045l-0.087,0.042l0.004,0.052l-0.028,0.01l-0.052,-0.02l-0.027,0.029l0.01,0.021l-0.023,0.026h-0.024l-0.034,0.047l-0.023,0.102l-0.039,0.028l-0.003,0.029l0.021,0.016l-0.015,0.031l-0.045,0.015l-0.034,0.04l-0.002,0.039l-0.029,0.013h-0.073l-0.073,0.062l-0.042,0.076l-0.023,0.128l-0.042,0.02l-0.034,-0.007l-0.049,0.005l-0.021,0.021l-0.049,0.002l-0.053,-0.036l-0.057,-0.003l-0.052,0.037l-0.005,0.106l-0.063,0.089v0.047l-0.031,0.013l-0.044,-0.008l-0.063,0.031l-0.008,0.032l-0.021,0.01l-0.028,-0.018l-0.037,0.008l-0.018,0.034l-0.047,0.002l-0.036,-0.015l-0.055,0.015l-0.026,0.047l-0.091,0.055l-0.008,0.042l-0.026,0.023l0.002,0.031l0.045,0.013l0.015,0.047l0.063,0.06l0.047,0.005l0.031,-0.018l0.034,0.003l0.021,0.044l-0.011,0.052v2.179h-0.982l-0.037,0.036l-0.101,-0.002l-0.052,0.026l-0.034,0.052l-0.092,-0.104l-0.083,-0.183l-0.005,-0.099l-0.029,-0.044l-0.002,-0.076l0.052,-0.088l0.034,-0.201l0.046,-0.029l0.063,0.003l0.039,0.023l0.052,-0.005l0.034,-0.073l-0.01,-0.208l-0.102,-0.321l-0.128,-0.211l0.013,-0.039l0.034,-0.026l-0.052,-0.133l-0.117,-0.169l-0.008,-0.05l0.029,-0.047l-0.201,-0.331l-0.259,-0.319z"/>
</svg>
