<svg xmlns="http://www.w3.org/2000/svg" viewBox="685.993 466.856 4.017 5.139">
  <path d="M686.685,471.995l0.034,-0.052l0.052,-0.026l0.101,0.002l0.037,-0.036h0.982v-2.179l0.011,-0.052l-0.021,-0.044l-0.034,-0.003l-0.031,0.018l-0.047,-0.005l-0.063,-0.06l-0.015,-0.047l-0.045,-0.013l-0.002,-0.031l0.026,-0.023l0.008,-0.042l0.091,-0.055l0.026,-0.047l0.055,-0.015l0.036,0.015l0.047,-0.002l0.018,-0.034l0.037,-0.008l0.028,0.018l0.021,-0.01l0.008,-0.032l0.063,-0.031l0.044,0.008l0.031,-0.013v-0.047l0.063,-0.089l0.005,-0.106l0.052,-0.037l0.057,0.003l0.053,0.036l0.049,-0.002l0.021,-0.021l0.049,-0.005l0.034,0.007l0.042,-0.02l0.023,-0.128l0.042,-0.076l0.073,-0.062h0.073l0.029,-0.013l0.002,-0.039l0.034,-0.04l0.045,-0.015l0.015,-0.031l-0.021,-0.016l0.003,-0.029l0.039,-0.028l0.023,-0.102l0.034,-0.047h0.024l0.023,-0.026l-0.01,-0.021l0.027,-0.029l0.052,0.02l0.028,-0.01l-0.004,-0.052l0.087,-0.042l0.066,0.045l0.038,-0.003l0.025,-0.056l0.111,-0.047l0.055,-0.04l0.098,-0.01l0.052,0.031l0.053,-0.021l0.055,-0.1l0.048,-0.007l0.045,0.034l0.091,0.004l0.024,-0.021l-0.076,-0.069l-0.087,-0.056l-0.014,-0.042l-0.084,-0.076l-0.201,-0.236l-0.031,-0.077l-0.23,-0.215l-0.226,-0.205l-0.041,0.01l0.003,0.042l-0.024,0.024l-0.059,-0.014l-0.15,-0.168l-0.036,0.015l0.002,0.059l-0.025,0.016l-0.085,-0.019l-0.029,-0.024l-0.016,0.015l0.21,0.313l-0.033,0.043h-0.047l-0.139,-0.086l-0.076,0.005l-0.087,0.092v0.057l-0.075,0.061l-0.034,0.068l-0.058,0.026l-0.246,0.005l-0.023,0.036l-0.007,0.044l-0.104,-0.002l-0.07,-0.035l-0.033,-0.041l-0.062,0.007l-0.098,0.1l-0.062,0.021l-0.16,0.032l-0.024,0.083l0.041,0.063l-0.02,0.079l-0.042,0.049l0.01,0.045l-0.017,0.032l-0.038,0.02l-0.021,0.108l-0.129,0.198l-0.083,0.031l-0.15,-0.013l-0.079,0.052l-0.032,-0.007l-0.003,-0.039l-0.035,-0.003l-0.031,0.024l-0.035,-0.007l-0.017,-0.034l-0.042,0.01l-0.115,0.375l-0.274,0.223l-0.264,0.264l-0.004,0.048l0.259,0.319l0.201,0.331l-0.029,0.047l0.008,0.05l0.117,0.169l0.052,0.133l-0.034,0.026l-0.013,0.039l0.128,0.211l0.102,0.321l0.01,0.208l-0.034,0.073l-0.052,0.005l-0.039,-0.023l-0.063,-0.003l-0.046,0.029l-0.034,0.201l-0.052,0.088l0.002,0.076l0.029,0.044l0.005,0.099l0.083,0.183l0.092,0.104z"/>
</svg>
