<svg xmlns="http://www.w3.org/2000/svg" viewBox="1342.782 503.420 5.184 0.831">
  <path d="M1342.782,504.068l0.005,-0.024l0.117,-0.092l0.099,-0.026l0.115,0.012l0.093,-0.037l0.021,-0.047l0.125,-0.095l0.054,-0.026l0.017,0.009l-0.019,0.033l0.016,0.005l0.028,-0.01l0.033,0.012l0.002,0.019h0.017l0.028,-0.024l0.049,-0.002l0.005,0.016l-0.007,0.017h0.023l0.036,-0.017l0.068,0.014l0.01,0.017l0.016,-0.007l0.003,-0.028l0.038,-0.023l0.04,0.007l0.017,0.043l-0.026,0.049l-0.073,0.019l-0.052,0.031l-0.026,-0.014l0.007,-0.028l-0.026,-0.014l-0.04,0.014l-0.024,0.033l-0.085,0.033l-0.043,-0.009l-0.007,-0.054l-0.024,-0.021l-0.097,0.007l0.005,0.012l0.068,0.016l0.012,0.043l-0.019,0.04l-0.07,0.057l-0.031,-0.005l-0.019,0.019l0.019,0.035l-0.014,0.03l-0.032,0.021l-0.061,0.091l-0.018,0.007l-0.021,-0.014h-0.017l-0.019,0.039h-0.012l0.001,-0.03 l-0.015,-0.008l-0.03,0.009l-0.05,-0.029l-0.009,-0.074l-0.076,-0.038l-0.033,0.014l-0.09,-0.026Z M1347.598,503.75l0.036,0.029l0.022,0.07l0.026,0.036h0.025l0.052,-0.069l0.041,-0.023h0.046l0.077,0.033l0.025,-0.01l0.01,-0.046l0.008,-0.105l-0.037,-0.025l-0.029,0.008h-0.037l-0.03,-0.007 l-0.069,0.017l-0.104,0.006l-0.036,-0.011l-0.039,0.032l0.012,0.065Z M1346.956,503.449l0.006,-0.014l0.043,0.006l0.014,0.011l0.076,0.011l0.057,-0.002l0.038,-0.014l0.024,-0.027h0.021v0.058l0.014,0.03l-0.004,0.023l-0.015,0.029h-0.017l-0.053,-0.072 l-0.02,-0.005l-0.046,0.007l-0.054,0.046l-0.035,0.008l-0.025,-0.012l-0.012,-0.051l-0.011,-0.032Z M1343.83,503.933h0.033l0.019,-0.01 l0.003,-0.019l-0.025,-0.018l-0.032,0.007l-0.011,0.026l0.012,0.014Z "/>
</svg>
