<svg xmlns="http://www.w3.org/2000/svg" viewBox="1342.782 503.420 5.184 0.831">
  <path d="M1342.781655,504.067714l0.005197,-0.024251l0.117196,-0.091618l0.099386,-0.026227l0.11457,0.012423l0.093242,-0.03662l0.020787,-0.04677l0.12472,-0.095272l0.053699,-0.025983l0.017322,0.008661l-0.019054,0.032912l0.01559,0.005197l0.027716,-0.010393l0.032912,0.012126l0.001732,0.019054h0.017322l0.027716,-0.024251l0.048502,-0.001732l0.005197,0.01559l-0.006929,0.017322h0.022519l0.036377,-0.017322l0.067557,0.013858l0.010393,0.017322l0.01559,-0.006929l0.003464,-0.027716l0.038109,-0.022519l0.039841,0.006929l0.017322,0.043306l-0.025983,0.048502l-0.072753,0.019054l-0.051967,0.03118l-0.025983,-0.013858l0.006929,-0.027716l-0.025983,-0.013858l-0.039841,0.013858l-0.024251,0.032912l-0.084879,0.032912l-0.043306,-0.008661l-0.006929,-0.053699l-0.024251,-0.020787l-0.097004,0.006929l0.005197,0.012126l0.067557,0.01559l0.012126,0.043306l-0.019433,0.039949l-0.070399,0.056595l-0.031424,-0.004737l-0.019054,0.019054l0.019054,0.034644l-0.014128,0.029718l-0.031748,0.020705l-0.060736,0.091104l-0.018107,0.007443l-0.020543,-0.014345h-0.016564l-0.019325,0.03865l-0.012423,-0.00138l0.00138,-0.028988l-0.015184,-0.008282l-0.029935,0.009148l-0.050234,-0.029448l-0.008661,-0.074486l-0.076218,-0.038109l-0.032912,0.013858l-0.090076,-0.025983Z M1347.597738,503.750017l0.035889,0.028988l0.022086,0.070399l0.026227,0.035889h0.024847l0.052454,-0.069018l0.041411,-0.023466h0.045552l0.0773,0.033129l0.024847,-0.009663l0.009663,-0.045552l0.008282,-0.104908l-0.03727,-0.024847l-0.028988,0.008282l-0.03727,0.00138l-0.030368,-0.008282l-0.069018,0.016564l-0.103527,0.005521l-0.035889,-0.011043l-0.03865,0.031748l0.012423,0.064877Z M1346.955868,503.449097l0.005521,-0.013804l0.042791,0.005521l0.013804,0.011043l0.075704,0.010718l0.057163,-0.001732l0.038109,-0.013858l0.023656,-0.026877l0.020705,0.00138v0.056595l0.013804,0.030368l-0.004141,0.023466l-0.015184,0.028988l-0.016564,-0.00138l-0.053455,-0.070967l-0.019704,-0.004953l-0.045552,0.006902l-0.053834,0.045552l-0.034509,0.008282l-0.024847,-0.012423l-0.012423,-0.051074l-0.011043,-0.031748Z M1343.830273,503.93252l0.033129,0.00138l0.019325,-0.011043l0.002761,-0.019325l-0.024847,-0.017945l-0.031748,0.006902l-0.011043,0.026227l0.012423,0.013804Z "/>
</svg>
