<svg xmlns="http://www.w3.org/2000/svg" viewBox="808.349 285.532 21.703 15.311">
  <path fill-rule="evenodd" d="M828.103781,292.054239l-0.003475,-0.069497l-0.072972,-0.145943l-0.079921,-0.024324v-0.041698l0.066022,-0.034748l0.048648,0.003475l0.038223,0.045173l0.059072,0.205016l-0.027799,0.069497l-0.027799,-0.00695Z M828.958591,292.391298v0.052123l-0.052123,0.048648l-0.020849,0.062547l0.027799,0.00695l0.055597,-0.052123l0.097295,-0.020849l0.031274,-0.027799l-0.013899,-0.052123l-0.135519,-0.076446l-0.020849,0.017374l0.031274,0.041698Z M829.952395,292.808279l0.031274,0.066022l0.052123,0.020849l0.017374,-0.024324l-0.066022,-0.083396l-0.066022,-0.034748l-0.010425,0.020849l0.041698,0.034748Z M826.546951,292.53342l-0.001737,0.015637l-0.027799,0.012162l-0.050385,-0.005212l0.001737,-0.017374l0.033011,-0.013899l0.045173,0.008687Z M825.438667,293.845904v0.037382l0.05538,0.02769l0.022152,-0.008307l0.002769,-0.035997l-0.030459,-0.037382h-0.02769l-0.022152,0.016614Z M823.516891,298.327714l0.010425,0.034748l0.055597,0.010425l0.149418,-0.090346l0.045173,-0.062547l-0.00695,-0.10772l-0.041698,-0.017374l-0.048648,0.027799l-0.097295,0.125094l-0.048648,0.038223l-0.017374,0.041698Z  M813.978458,298.793342l0.053,-0.025l0.086,-0.086l0.117,-0.062l0.307,-0.37v-0.055l0.042,-0.037l0.097,0.003l0.078,-0.042l0.057,-0.057l0.003,-0.089l0.049,-0.07l0.133,-0.089l0.188,-0.25l0.148,-0.042l0.133,0.011l0.06,0.062l0.063,0.003l0.239,-0.167l0.084,-0.107l0.005,-0.13l0.146,-0.172l0.214,-0.135l0.229,-0.079l0.292,-0.195l0.049,-0.005l0.034,-0.021l0.06,-0.136l0.17,-0.185l0.015,-0.054l0.039,-0.032l0.084,0.011l0.068,-0.032l0.057,-0.041l0.172,-0.039l0.232,-0.112l0.047,-0.053l0.461,-0.263l0.05,-0.002l0.135,-0.071l0.052,-0.075l0.071,-0.034l0.026,-0.065l0.114,-0.063l0.219,-0.047l0.102,0.037l0.086,-0.029l0.042,-0.063l0.104,-0.044l0.026,-0.047l0.06,-0.013l0.143,0.058l1.134,1.201l0.109,0.169l-0.023,0.034l-0.081,0.013l-0.284,0.146l-0.099,0.008l-0.154,0.068l-0.167,0.133l-0.052,0.067l-0.018,0.1l0.039,0.172l0.096,0.096l0.099,0.057l0.092,0.073l0.041,0.097l0.097,0.047l0.088,0.013l0.089,0.065l0.018,0.078l0.094,0.188l0.008,0.073l-0.037,0.088l-0.13,0.133l-0.086,0.052l-0.208,0.05l-0.089,-0.008l-0.109,0.008l-0.021,0.028l-0.034,0.011l-0.039,-0.008l-0.107,0.018l-0.034,-0.013l-0.029,0.011l-0.026,0.067l-0.01,0.066l-0.159,0.054l-0.037,-0.036l-0.039,0.005l-0.007,0.052l0.036,0.232l0.078,0.12l0.138,0.081l0.081,0.015l0.018,0.037l-0.01,0.039l0.016,0.018l0.062,-0.002l0.123,0.043l0.07,0.002l0.096,0.055l0.013,0.033l0.037,0.023l0.097,0.014l0.03,0.042l0.024,0.09l-0.024,0.055l0.005,0.106l0.04,0.039l0.076,0.012l0.044,0.045l0.035,0.083l0.013,0.06l0.056,0.031l0.141,0.029l0.078,-0.027l0.087,0.001l0.061,-0.031l0.104,-0.007l0.026,0.043l-0.004,0.08l0.056,0.11l0.082,0.021l0.043,0.036l0.012,0.087l0.178,0.182l0.052,0.025l0.078,0.13l0.005,0.054l0.052,0.085l0.097,0.064l0.068,0.002l0.025,0.017l0.123,-0.017l0.024,-0.033l0.047,-0.019l0.077,0.005l0.045,-0.022l0.059,-0.098l0.029,-0.017l0.037,0.003l0.021,-0.007l0.008,-0.027l0.044,-0.009l0.048,0.007l0.093,-0.017l0.111,0.029l0.028,0.03l0.027,-0.002l-0.008,-0.094l-0.021,-0.928l-0.018,-0.201l0.011,-0.077l-0.014,-0.052l-0.052,-0.059l-0.07,-0.181l-0.014,-0.125l0.032,-0.08l0.066,-0.045l0.094,-0.028l0.086,-0.104l0.091,-0.208l0.038,-0.205l-0.014,-0.202l-0.038,-0.059l-0.004,-0.045l0.035,-0.066l0.021,-0.167l0.08,-0.191l0.08,-0.083l0.104,-0.066l0.024,-0.049l-0.013,-0.028l-0.056,-0.003l-0.031,-0.042l-0.063,0.003l-0.049,0.066l-0.069,0.032l-0.063,0.08h-0.031l-0.09,-0.035h-0.045l-0.021,-0.035l0.052,-0.069l0.118,-0.063l0.149,-0.031l0.06,-0.035l0.017,-0.045l-0.045,-0.056l0.01,-0.045l0.059,-0.028l0.077,0.011l0.097,0.118l0.014,0.08l0.031,0.045l0.038,0.017l0.014,0.042l-0.014,0.066l0.014,0.045l0.049,0.038l0.024,0.039v0.052l0.091,0.083l0.159,0.021l0.063,-0.028l0.007,-0.062l0.076,-0.125h0.049l0.035,0.066l-0.004,0.114l-0.024,0.042l0.01,0.024l0.046,-0.024l0.034,-0.094l0.032,-0.319l0.027,-0.428l0.046,-0.104l0.104,-0.049l0.083,0.018l0.052,0.048l-0.021,0.045l0.025,0.059l0.361,0.139l0.024,-0.017l-0.1,-0.135l-0.042,-0.119v-0.059l0.042,-0.041l-0.018,-0.056l-0.205,-0.188l-0.17,-0.201l-0.049,-0.167l0.035,-0.17l0.129,-0.375l0.118,-0.164l0.142,-0.087l0.08,-0.017l0.011,-0.031l-0.094,-0.178l-0.024,-0.125l0.013,-0.114l0.077,-0.205l0.076,-0.049l0.014,-0.056l-0.083,-0.264l0.007,-0.08l0.031,-0.066l0.191,-0.114l0.004,-0.056l-0.118,-0.128l-0.077,-0.167l0.01,-0.097l0.101,-0.084l0.098,-0.017l0.017,-0.042l-0.038,-0.111l0.014,-0.125l0.152,-0.111l0.146,-0.035l0.06,-0.028l0.031,-0.049l0.066,-0.024l0.111,0.004l0.063,-0.028l0.104,-0.094l0.024,-0.059l0.077,-0.038l0.062,0.01l0.066,-0.024l0.052,-0.049l0.136,-0.042l0.087,0.007l0.08,-0.048l0.048,-0.115l-0.01,-0.066l0.035,-0.066l0.073,-0.028l0.114,0.007l0.129,0.056l0.077,0.103l0.034,0.021l0.138,0.003l0.096,-0.079l0.081,-0.01l0.06,0.023l0.047,-0.01l0.081,-0.057l0.154,0.007l0.153,0.045l0.206,0.041l0.271,0.112l0.11,0.105l0.031,0.127l0.034,0.131l0.042,0.044l0.013,-0.016l-0.032,-0.083l-0.02,-0.177l0.005,-0.167l-0.031,-0.208l-0.136,-0.183l-0.109,-0.047l-0.131,-0.125l-0.073,-0.151l-0.104,-0.063l-0.24,-0.062l-0.167,-0.12l-0.093,-0.12l-0.016,-0.057l-0.052,-0.026l-0.162,0.026l-0.182,-0.011l-0.271,0.094l-0.261,0.005l-0.088,-0.026l-0.193,-0.005l-0.141,-0.042l-0.052,-0.093l-0.083,-0.037l-0.152,-0.005l-0.182,-0.047l-0.115,-0.104l-0.094,-0.198l0.006,-0.219l0.047,-0.136l-0.026,-0.151l-0.089,-0.089l-0.261,-0.057l-0.114,-0.068l-0.047,-0.088l-0.089,-0.084l-0.115,-0.067l-0.26,-0.287l-0.172,-0.188l-0.13,-0.297l-0.115,-0.401l-0.031,-0.24l-0.053,-0.208l-0.135,-0.282l-0.318,-0.448l-0.318,-0.407l-0.453,-0.505l-0.157,-0.235l-0.156,-0.198l-0.235,-0.234l-0.229,-0.164l-0.028,0.066l0.011,0.063l-0.042,0.038h-0.038l-0.025,0.028l-0.01,0.108l-0.202,0.222l-0.059,0.094l-0.139,0.156l-0.069,0.122l-0.018,0.087l-0.135,0.146l-0.233,0.121l-0.097,0.004l-0.091,0.059l-0.069,0.111l-0.163,0.056l-0.136,-0.014l-0.09,0.014l-0.045,0.062l-0.077,0.007l-0.073,-0.017l-0.076,0.041l-0.032,0.073l0.021,0.059l-0.021,0.035l-0.083,0.063l-0.076,0.034l-0.028,0.126l0.01,0.114l-0.041,0.091l-0.039,0.017l-0.083,-0.038l-0.035,0.014l0.007,0.059l0.049,0.09l-0.021,0.042l-0.094,0.003l-0.066,0.049l-0.062,0.01l-0.021,0.056l0.045,0.052l-0.021,0.167l-0.07,0.083l-0.142,0.014l-0.059,-0.024l-0.056,0.01l-0.066,0.059l-0.055,0.073l-0.146,-0.003l-0.049,-0.032v-0.034l-0.035,-0.025l-0.038,0.011l-0.024,-0.021v-0.059l-0.049,-0.021l-0.035,0.021l-0.107,-0.007l-0.059,-0.028l-0.056,0.004l-0.056,0.059l-0.076,-0.007l-0.052,0.034l-0.021,0.049l-0.042,0.004l-0.149,-0.091l-0.031,-0.048l0.01,-0.046l-0.028,-0.076l-0.041,-0.024l-0.046,0.024l-0.045,-0.01l-0.028,-0.049l-0.052,-0.007l-0.027,0.031l-0.087,0.007l-0.136,-0.021l-0.167,-0.121l-0.083,-0.007l-0.042,-0.032l-0.007,-0.041l-0.034,-0.031l-0.07,-0.021l-0.017,-0.049l0.021,-0.045l-0.032,-0.16l-0.041,-0.042l-0.077,0.011l-0.028,-0.032l0.028,-0.038l-0.021,-0.055l0.08,-0.077l-0.01,-0.035l-0.118,-0.024l-0.049,-0.052l0.003,-0.059l-0.059,-0.059l-0.083,-0.035l-0.004,-0.049l0.042,-0.038l-0.01,-0.041l-0.08,-0.039l-0.118,-0.149l-0.018,-0.084l-0.041,-0.003l-0.105,0.083l0.007,0.053l-0.038,0.02l-0.097,-0.02l-0.049,0.017l-0.035,-0.024l0.004,-0.063l-0.08,-0.045v-0.063l0.052,-0.097l-0.055,-0.094l-0.067,-0.01l-0.09,-0.056l-0.021,-0.055l-0.041,-0.028h-0.028l-0.021,-0.028l0.031,-0.07v-0.069l-0.114,-0.066l-0.066,0.01l-0.025,0.035h-0.045l-0.094,-0.104l-0.003,-0.049l-0.063,-0.041l-0.087,-0.025l-0.107,-0.121l0.013,-0.042l0.035,-0.011l0.007,-0.041l-0.069,-0.15l-0.052,-0.017l-0.108,0.049l-0.004,0.073l-0.052,0.007l-0.062,-0.028l-0.118,0.024l-0.105,-0.031l-0.038,0.024l0.007,0.049l-0.111,0.062l-0.066,-0.01l-0.073,-0.077l0.01,-0.145l-0.069,-0.101l-0.098,-0.038l-0.118,0.038l-0.031,0.066l-0.066,0.024l-0.045,-0.021l0.007,-0.048l-0.031,-0.073l-0.06,-0.033l-0.036,0.052l0.01,0.088l-0.057,0.131l-0.167,0.099l-0.182,0.172l-0.162,0.036l-0.052,0.047h-0.047l-0.088,-0.031l-0.047,0.015l-0.042,0.136l0.01,0.193l0.073,0.099v0.083l-0.036,0.052l0.052,0.105l0.11,0.073l0.041,-0.021l-0.021,-0.058l0.058,-0.047l0.052,0.011l0.01,0.078l0.068,0.016l0.078,-0.037l0.099,0.078l0.011,0.084l-0.042,0.01l-0.057,-0.041l-0.058,0.046l-0.005,0.1l0.057,0.031l0.037,0.062l0.005,0.068l0.084,0.057l0.119,0.011l0.167,0.094l0.073,0.104l0.256,0.156l0.333,0.084l0.089,0.073l-0.005,0.057l0.041,0.026h0.058l0.145,0.125v0.063l0.058,0.062l0.099,0.052l-0.026,0.042l-0.042,0.005l-0.052,0.052l0.01,0.068l-0.047,0.078l-0.088,0.021l-0.052,0.104l0.031,0.068v0.078l-0.036,0.037v0.167l-0.084,0.114l-0.104,-0.005l-0.094,-0.057l-0.13,0.01l-0.162,0.219l-0.068,0.005l-0.057,-0.052l-0.042,-0.114l-0.093,-0.037l-0.178,0.01l-0.073,-0.041l-0.02,-0.068l-0.261,-0.209l-0.016,-0.062l-0.057,-0.016l-0.073,0.042l-0.057,-0.005l-0.079,-0.052l-0.218,-0.042l-0.115,0.031l-0.073,0.115l-0.068,-0.005l-0.042,-0.047l-0.109,-0.005l-0.281,0.036l-0.162,-0.047l-0.094,-0.073l-0.141,-0.041l-0.203,-0.047l-0.193,-0.115l-0.172,-0.177v-0.068l0.11,-0.13l0.062,-0.026l0.005,-0.047l-0.125,-0.042l-0.109,0.031l-0.083,-0.015l-0.063,-0.073l-0.104,-0.016l-0.11,0.037l-0.057,-0.021v-0.058l-0.036,-0.062l-0.183,-0.078l-0.188,-0.115l-0.104,-0.005l-0.109,0.094l-0.115,-0.006l-0.089,-0.12l-0.229,-0.073l-0.156,0.032l-0.063,0.094l-0.141,0.083l-0.073,-0.01l-0.036,0.026l-0.031,0.073l-0.235,0.255l-0.104,0.01l-0.068,0.073l-0.047,0.073l-0.061,0.02l-0.038,0.038l0.052,0.121l0.084,0.059l0.021,0.046l-0.053,0.097l-0.066,0.014l-0.02,0.052l0.034,0.021l0.056,-0.004l0.101,0.08h0.069l0.091,-0.094l0.083,0.018l0.09,0.135l0.052,0.025l0.066,-0.018l0.046,0.045l-0.035,0.087l-0.084,0.073l-0.055,-0.017l-0.035,0.01l-0.021,0.038h-0.094l-0.079,-0.02l-0.08,0.059l-0.004,0.114l-0.052,0.091l0.024,0.031l0.056,-0.007l0.045,-0.052l0.049,0.007l-0.011,0.069h0.032l0.055,-0.069l0.007,-0.118l0.052,-0.004l0.063,0.056l-0.004,0.087l0.046,0.034l0.069,0.004l0.08,0.042l0.014,0.062l0.135,0.084l0.028,-0.018v-0.055l0.056,-0.059l0.059,0.006l0.035,0.105l0.069,0.045l0.153,0.003l0.132,-0.09l0.111,0.003l0.031,0.042l-0.1,0.094l0.028,0.09l0.045,0.025l0.107,-0.011l0.077,0.122l-0.004,0.049l0.028,0.024l0.073,-0.014l0.042,0.014l-0.014,0.04l0.068,0.057h0.067l0.037,0.026v0.037l0.042,0.015l0.057,-0.015l0.063,0.021l-0.006,0.125l-0.047,0.182l-0.14,0.156l-0.157,0.037l-0.114,0.078l-0.157,0.005l-0.125,0.11l0.021,0.078l-0.042,0.026h-0.057l-0.052,0.156v0.073l0.094,0.058l0.005,0.057l-0.005,0.052l0.052,0.037l0.057,-0.006l0.125,0.084l0.011,0.047l-0.032,0.041v0.063l-0.057,0.057l0.01,0.115l0.084,0.089l0.083,0.015l0.094,0.073l0.011,0.073l0.187,0.12l0.125,0.016l0.146,0.13l0.026,0.078l0.068,0.047h0.125l0.163,0.059l0.15,0.09l0.125,0.042l0.243,0.073l0.042,0.042l0.09,0.017l0.038,-0.024l0.046,0.014l0.017,0.042l0.076,0.045l0.018,0.052l-0.031,0.035h-0.049l-0.017,0.027l0.142,0.105v0.163l-0.063,0.16l0.014,0.076l-0.027,0.031l-0.112,0.021l-0.066,0.094l0.025,0.08l-0.105,0.212l-0.118,0.063l-0.038,0.079h-0.049l-0.097,-0.114l-0.101,-0.011l-0.073,-0.034h-0.059l-0.055,0.021l-0.091,-0.004l-0.041,-0.024h-0.049l-0.042,0.038l-0.187,0.017l-0.052,0.077l0.059,0.111l0.055,0.028l0.097,-0.025l0.188,0.042l0.045,0.063l0.077,0.021l0.128,-0.004l0.105,0.063l0.003,0.062l-0.052,0.056l-0.004,0.048l0.06,0.014l0.079,0.271l0.046,0.042l0.08,0.003l0.26,0.139l0.16,0.011l0.181,0.174l0.048,0.087l0.112,0.1l0.006,0.073l0.032,0.028l0.09,-0.007l0.101,0.115l0.087,0.024l0.062,0.077v0.069l0.035,0.139l0.031,0.014l0.073,-0.08l0.122,0.01l0.128,-0.031l0.073,-0.066l0.233,-0.066l0.059,0.014l0.018,0.056l0.045,0.02l0.059,-0.038l0.045,0.028l0.021,0.188l0.056,0.014l0.139,-0.053l0.135,-0.003l0.219,0.083l0.059,0.094l-0.042,0.045l-0.107,-0.041l-0.143,0.104l-0.007,0.052l0.122,0.139l-0.028,0.021l-0.153,-0.059l-0.038,0.017l0.003,0.045l-0.083,0.087l-0.056,0.011l-0.076,-0.039l-0.104,0.021l-0.039,0.063l0.018,0.174l0.066,0.135l0.208,0.139l0.073,0.004l0.046,-0.035l0.048,0.003l0.104,0.15l-0.017,0.034l-0.038,0.007l-0.011,0.032l0.112,0.146l0.041,0.02l0.032,-0.006l0.045,0.013l0.021,0.053l0.048,0.017l0.108,0.014l0.007,0.031l-0.198,0.021l-0.014,0.035l0.024,0.021l-0.003,0.031l-0.042,0.045l-0.066,0.049l-0.017,0.08l-0.032,-0.004l-0.017,-0.111l-0.028,-0.073l-0.045,-0.021l-0.028,0.038l0.014,0.063l-0.031,0.017l-0.156,-0.097l-0.08,0.024l-0.021,0.049l0.052,0.128l0.083,0.039l0.084,-0.021l0.045,0.035l-0.038,0.027l-0.004,0.035l0.038,0.031l-0.003,0.07l0.031,0.035l0.087,0.038l0.01,0.059l-0.059,0.031l0.004,0.038h0.108l0.01,0.046l-0.052,0.045v0.076l0.024,0.07l-0.003,0.041l-0.091,0.018l-0.017,0.035l0.028,0.041l-0.011,0.052l-0.041,0.035l0.007,0.084l0.093,0.072l0.018,0.084l-0.021,0.052l0.003,0.09z M810.053627,291.132191l0.015,-0.117l0.099,-0.078l0.115,0.013l0.07,0.094l-0.034,0.101l-0.088,0.047l-0.06,0.094l-0.057,-0.008l-0.026,-0.117l-0.034,-0.029z"/>
</svg>
