<svg xmlns="http://www.w3.org/2000/svg" viewBox="701.494 270.403 12.691 12.202">
  <path d="M713.35,278.187l-0.001,0.013l0.05,0.02l0.021,0.029h0.023l0.028-0.049l-0.014-0.06l-0.03-0.004l-0.027,0.021L713.385,278.186z M701.873,271.662l0.081-0.005l0.122-0.013l0.032-0.04l-0.003-0.088l0.039-0.073l0.037-0.018l0.026-0.045l0.008-0.073l0.041-0.096l-0.01-0.031l0.002-0.037l0.063-0.044l0.089-0.026l0.093-0.058l0.055-0.093l0.011-0.037l-0.021-0.039l0.008-0.036l0.031-0.029l0.031-0.096l0.097-0.066h0.065l0.057,0.019l0.102-0.006l0.047-0.026l0.041-0.002l0.065,0.031l0.175,0.107l0.117,0.01l0.058-0.036h0.088l0.219,0.081l0.117-0.003l0.045-0.057l-0.026-0.068l0.023-0.016l0.058,0.021l0.057-0.021l0.029-0.044l0.002-0.065l0.034-0.039l0.052-0.003l0.039-0.029l0.029-0.07h0.055l0.046,0.06l0.003,0.039l-0.044,0.026l-0.008,0.05l0.039,0.031l0.086,0.005l0.013-0.031l-0.036-0.052l0.02-0.019l0.042,0.016l0.013,0.078l0.029,0.034l0.042-0.002l0.002-0.05l0.018-0.026l0.037,0.01l0.008,0.032l-0.037,0.031l-0.002,0.034l0.044,0.002l0.036-0.033h0.029l0.013,0.058l0.09,0.083l0.351,0.174l0.094,0.028l0.184,0.007l0.066-0.028l0.021-0.115l0.028-0.041h0.031l0.042,0.038l0.08,0.014l0.062,0.052l0.025,0.066l0.066,0.041l0.201,0.025l0.07-0.025l0.066-0.09l0.038,0.004l-0.003,0.104l0.017,0.038h0.063l0.034-0.042l0.035,0.004l0.004,0.049l-0.046,0.041l0.004,0.028l0.083-0.007l0.087,0.014l0.035-0.024v-0.049l0.028-0.021l0.034,0.021l0.007,0.063l0.035,0.006l0.028-0.017h0.038l0.035,0.028h0.052l0.066-0.038l0.049-0.059l0.076-0.021l0.066,0.01l0.059,0.056l0.077,0.024l0.156,0.118l0.101,0.028l0.076,0.08l0.16,0.076l0.066,0.007l0.115-0.055l0.038-0.049l0.087-0.045l0.021-0.042l-0.014-0.066l0.021-0.035l0.093-0.02l0.049-0.035l0.024-0.094l0.049-0.045l0.045-0.007l0.045,0.028l0.042,0.09h0.035l0.01-0.045l0.046-0.024l0.055,0.01l0.045,0.073v0.045l-0.034,0.021v0.031l0.083,0.032l0.062,0.066l0.042,0.003l0.035-0.017l0.063,0.007l0.059,0.024l0.079-0.004l0.101-0.041l0.018-0.056l-0.032-0.021l-0.014-0.045l0.018-0.055l0.097-0.042l0.084-0.011l0.062,0.032l0.004,0.059l0.024,0.021l0.042-0.007l0.052,0.021l0.027,0.038l0.073,0.007l0.178-0.039h0.125l0.059,0.042l0.035,0.091l0.146,0.09l0.132,0.017l0.026,0.057l0.031,0.052l0.221,0.13l0.391,0.177l0.084,0.068l-0.016,0.018l-0.047-0.002l-0.026,0.015l-0.013,0.058l-0.039,0.034l-0.073,0.026l-0.07,0.06l-0.159,0.247l-0.073,0.044l-0.115,0.011l-0.06-0.044l-0.081-0.17l-0.07-0.047l-0.266-0.067l-0.07-0.003l-0.06,0.034l-0.17,0.159l-0.033,0.068l0.007,0.192l-0.028,0.042l-0.154,0.031l-0.245,0.024l-0.305,0.117l-0.065,0.086l-0.003,0.084l0.052,0.041l0.162,0.021l0.086,0.06l0.089,0.029l0.143,0.023l0.198,0.086l0.094,0.107l0.258,0.188v0.041l-0.052,0.055l-0.191,0.063l-0.216,0.005l-0.172-0.052l-0.182-0.003l-0.102,0.037l-0.169,0.031l-0.037-0.016l-0.018-0.128l0.013-0.041v-0.063l-0.055-0.164l-0.172-0.177l-0.253-0.089l-0.106,0.021l-0.225,0.151l-0.049,0.068l0.026,0.162l0.164,0.187l0.063,0.052l-0.008,0.032l0.016,0.02l0.039,0.004l0.027,0.031l-0.027,0.236l-0.035,0.139l-0.066,0.063l-0.205,0.028l-0.118,0.048l-0.511,0.303l-0.358,0.132h-0.08l-0.055-0.035l-0.129-0.024h-0.122l-0.066-0.049l-0.052-0.111l-0.069-0.059l-0.077-0.028l-0.076-0.052l-0.056-0.056l-0.108-0.055l-0.128-0.021l-0.038,0.017l0.003,0.045l-0.038,0.032l-0.073,0.003l-0.136-0.055l-0.093-0.007l-0.084,0.027l-0.035,0.063l0.028,0.459l0.049,0.059l0.076,0.288l0.052,0.091l0.108,0.107l0.056,0.177l-0.025,0.15l-0.055,0.059l-0.052,0.104l-0.021,0.129l-0.038,0.031l-0.296-0.007l-0.114-0.031l-0.362-0.233l-0.274-0.129l-0.223-0.201l-0.052-0.156l-0.09-0.06l-0.122-0.041l-0.542-0.32l-0.212-0.153l-0.299-0.285l-0.052-0.108l-0.083-0.062l-0.188-0.08l-0.035-0.059l0.018-0.049l0.121-0.062l0.296-0.063l0.406,0.007l0.16,0.031l0.209,0.007l0.354-0.038l0.073-0.059l0.024-0.059l-0.017-0.215l-0.073-0.153l-0.073-0.059l-0.062-0.07l-0.021-0.08l-0.073-0.076l-0.111-0.063l-0.032-0.076l-0.003-0.122l-0.038-0.125l-0.108-0.149l-0.136-0.049h-0.09l-0.094-0.028l-0.163-0.08l-0.125-0.024l-0.494-0.049l-0.177,0.028l-0.059,0.052l-0.035,0.104l-0.038,0.007l-0.08-0.038l-0.174-0.236l-0.201-0.122l-0.143-0.184l0.018-0.125l0.045-0.035l0.184-0.007l0.132-0.069L701.873,271.662z M709.422,282.328h0.063l0.054,0.012l0.06,0.09l0.051,0.044l0.151,0.099l0.002,0.032l0.021-0.001l0.014-0.029l0.051-0.011l0.04,0.009l0.011-0.008l-0.002-0.019l0.009-0.016l0.057-0.027l0.022-0.038l0.028-0.003l0.059,0.012l0.035,0.015l0.018,0.03l0.029,0.004l0.039-0.026v-0.03l-0.021-0.031l-0.032-0.019l-0.02-0.02l-0.009-0.031l-0.037-0.034l0.021-0.055l0.041-0.039l0.087-0.019l0.046,0.003l-0.043-0.088l-0.039-0.025l-0.012-0.022l0.005-0.033l-0.019-0.035l0.008-0.011l0.016-0.001l0.031-0.043l0.006-0.035l0.029-0.042l-0.05-0.014l-0.073-0.002l-0.05-0.019l-0.035-0.036l-0.041-0.003l-0.017-0.011l0.003-0.019l-0.025-0.022l-0.058-0.024l-0.022-0.032l-0.004-0.077l-0.028-0.024l-0.004-0.023l0.007-0.013v-0.021l-0.022-0.019v-0.018l0.008-0.014l-0.006-0.018l-0.03-0.017l0.097-0.058l-0.035-0.044l0.007-0.058l0.021-0.035l0.023-0.007l0.028,0.01l0.024-0.012l0.004-0.038l-0.02-0.036l0.074-0.039l-0.051-0.114l-0.045-0.066l0.01-0.148l0.044-0.145l0.045-0.031l0.03-0.074l0.072-0.06l0.209-0.004l0.076,0.017h0.056l0.083-0.034l0.033-0.004l-0.043-0.484l0.059-0.233l0.066-0.047l0.016-0.048l0.107-0.048l-0.036-0.012l-0.067-0.087l0.165-0.115l0.204-0.1l0.066-0.016l0.033-0.027l0.028-0.007l0.028,0.003l0.015-0.008l0.011-0.02l0.05-0.015l0.009-0.018l-0.009-0.036l-0.04-0.041v-0.016l0.037-0.002l0.086-0.034l0.04-0.002l0.025,0.009h0.036l0.021-0.018h0.039l0.105,0.118l0.05,0.017l0.004,0.054l-0.032,0.04l0.007,0.066l0.023,0.024l0.042,0.008l0.051,0.04l0.013,0.06l0.06,0.047l0.031,0.001l0.03-0.037l0.05-0.126l0.02-0.01l0.025,0.003l0.109-0.035l0.014-0.018l-0.004-0.023l0.016-0.038l-0.007-0.027l-0.019-0.013l-0.008-0.02v-0.03l-0.046-0.063l-0.069-0.063l-0.01-0.036l-0.018-0.016l0.001-0.013l0.02-0.011l0.004-0.066l-0.029-0.007l-0.046-0.042l-0.004-0.07l-0.012-0.049l-0.035-0.034l-0.043-0.013l-0.066-0.04l-0.059,0.014l-0.012-0.015l0.01-0.058l-0.02-0.097l-0.036-0.057l-0.03,0.003l-0.013,0.033l-0.036,0.01l-0.029-0.013l-0.007-0.034l0.032-0.049l0.05-0.008l0.118-0.053l0.043-0.032l0.018-0.08l0.025-0.022l0.054,0.007l0.015,0.04l0.054,0.029l0.054,0.072l0.005,0.071l0.021,0.02l0.051-0.007l0.028-0.024l0.1-0.024l0.025-0.019l0.031-0.006l0.036,0.006l0.036-0.007l0.07-0.058l0.029-0.002l0.043,0.008l0.031-0.005l0.135,0.01l0.034,0.019l0.084-0.005l0.022-0.023l-0.022-0.062l0.022-0.125l-0.013-0.049l0.013-0.017l0.039,0.005l0.026-0.012v-0.021l-0.033-0.007l-0.005-0.017l0.027-0.007l0.045,0.031l0.04,0.002l0.077,0.034l0.104-0.01l0.078-0.071l0.056,0.007l0.096,0.083l-0.011,0.038l0.024,0.023h0.046l0.031-0.026l0.104-0.002l0.094,0.026h0.035l0.052-0.033l0.01-0.033l-0.024-0.035l0.002-0.074l-0.021-0.03l-0.004-0.055l0.019-0.018l0.035,0.026l0.023-0.005l0.01-0.05l0.044-0.042l0.015-0.075l-0.055-0.092l-0.002-0.054l0.012-0.021l0.002-0.038l-0.139-0.085l-0.012-0.045l-0.049-0.05l-0.002-0.035l-0.061-0.049l-0.038-0.005l-0.028-0.023l-0.019-0.054l-0.024-0.015l-0.038,0.008l-0.061-0.031l-0.01-0.041l-0.06-0.066l0.004-0.032l-0.012-0.019l-0.035-0.009l-0.042-0.043l-0.041-0.094l-0.044-0.047l-0.048-0.033l-0.065-0.099l-0.012-0.054l-0.09-0.104l-0.054-0.031l-0.007-0.023l0.007-0.021l-0.004-0.026l-0.06-0.087l-0.009-0.1l0.016-0.025h0.029l0.068,0.054l0.035,0.014l0.076-0.002l0.054,0.016l0.085,0.049l0.057,0.007l0.032,0.015l0.021,0.035l0.081,0.047h0.03l0.024-0.019l0.04-0.002l0.082,0.033l0.093-0.002l0.233,0.014l0.035-0.017l0.012-0.035l0.03-0.033l0.083-0.038l0.016-0.021l-0.014-0.031l0.012-0.026l0.08-0.011l0.028-0.029l0.09-0.031l0.004-0.03l-0.025-0.038l-0.001-0.033l0.026-0.052l-0.02-0.011l-0.02,0.014l-0.025-0.007l-0.015-0.082l-0.035-0.01l-0.028,0.023l-0.01,0.08l-0.026,0.006l-0.056-0.092l-0.031-0.022l-0.113-0.026l-0.04-0.023l-0.051-0.078l-0.003-0.049l-0.017-0.017l-0.04,0.005l-0.025-0.024l0.006-0.045l0.029-0.03l0.004-0.035l-0.021-0.015l-0.051,0.007l-0.038,0.062h-0.042l-0.086-0.059l-0.032-0.09l-0.055-0.042l-0.117-0.042l-0.024-0.053l0.01-0.037l-0.008-0.029l-0.037-0.026l-0.01-0.034l0.001-0.043l-0.073-0.158l-0.041-0.021l-0.038,0.011l-0.042-0.007l-0.024-0.021l-0.046-0.003l-0.092,0.057l-0.054,0.003l-0.05-0.034l-0.031-0.086l-0.052-0.008l-0.065,0.045l-0.055-0.011l-0.131-0.172l0.008-0.065l-0.013-0.029l-0.057-0.01l-0.016-0.06l0.019-0.029l-0.006-0.02l-0.031-0.006l-0.008-0.041l0.029-0.089l0.112-0.06l0.021-0.034l0.008-0.161l-0.081-0.154l-0.021-0.084l0.036-0.091l0.042-0.005l0.039,0.018l0.068-0.015l0.01-0.042l0.071-0.068l-0.005-0.052l-0.034-0.021l-0.003-0.036l0.081-0.073l0.06-0.011l0.018-0.023l-0.01-0.052l0.018-0.021l0.039-0.008l0.021-0.026l0.002-0.044l0.066-0.141l0.041-0.003l0.019-0.028l-0.032-0.058l0.011-0.026l0.083-0.013l0.029-0.052l0.036-0.023l0.06-0.128l0.042-0.016l0.005-0.02l-0.018-0.024l0.005-0.029l-0.044-0.049l0.005-0.024l0.044-0.007l0.034-0.081l0.013-0.146l-0.026-0.026l0.005-0.024l0.055-0.028l0.026-0.136l-0.026-0.091l-0.057-0.01l-0.141-0.071l-0.063-0.008l-0.033,0.016l-0.042-0.003l-0.042-0.023l-0.065,0.003l-0.076,0.057l-0.036-0.003l-0.052-0.083l-0.063-0.016l-0.041,0.011l-0.055,0.049l-0.073,0.034l-0.065,0.065l-0.076,0.016l-0.047,0.034l-0.028,0.041l-0.054,0.037l-0.163,0.018l-0.028-0.001l-0.022,0.006l-0.01,0.06v0.024l0.058,0.034l-0.003,0.034h-0.06l-0.055-0.024l-0.054,0.003l-0.076,0.091l-0.003,0.065l-0.078,0.081l-0.047,0.015l-0.166-0.015l-0.107-0.029l-0.05,0.018l-0.015,0.06l0.028,0.089l-0.021,0.109l-0.044,0.039l-0.133,0.04l-0.086,0.073l-0.104,0.198v0.073l0.036,0.049l0.522,0.357l0.07,0.021l0.057-0.018l0.058-0.076l0.073-0.159l0.08-0.086l0.136-0.039l0.086,0.016l0.031,0.047l-0.008,0.179l-0.044,0.209l-0.042,0.052l-0.112,0.065l-0.075,0.131l-0.018,0.07v0.055l-0.029,0.041l-0.117,0.071l-0.084,0.023l-0.075-0.002l-0.071,0.028l-0.107,0.146l-0.083,0.058l-0.227,0.08l-0.013,0.037l0.091,0.383l0.087,0.075l0.078,0.011l0.015,0.029l-0.01,0.046l0.078,0.149l-0.008,0.044l-0.094,0.084l-0.179,0.096l-0.339,0.099l-0.042,0.034l-0.12,0.185l-0.391,0.383l-0.005,0.068l-0.138,0.214l-0.018,0.073l-0.003,0.099l-0.026,0.166l-0.026,0.016l-0.055-0.023l-0.047-0.042l-0.07-0.008l-0.169,0.042l-0.089,0.086l-0.016,0.065l0.011,0.076l0.07,0.054l0.102,0.024l0.034,0.039v0.101l0.049,0.047l0.417,0.021l0.11,0.021l0.109,0.068l0.318,0.078l0.083-0.008l0.055-0.055l0.037-0.104l0.159-0.203l0.075-0.034l0.115,0.016h0.114l0.089-0.013l0.123,0.023l0.062,0.057l0.034,0.107l0.068,0.047l0.091,0.029l0.107,0.107l0.023,0.081l-0.015,0.122l-0.125,0.151l-0.209,0.091l-0.388,0.042l-0.068,0.016l-0.365-0.055l-0.169-0.081l-0.123-0.028l-0.19-0.016l-0.169-0.055l-0.06-0.049l-0.032-0.123l-0.062-0.028l-0.102-0.003l-0.068,0.029l-0.078,0.075l-0.047,0.151l-0.07,0.076l-0.078,0.081l-0.042,0.078l0.042,0.396l-0.068,0.021l-0.38-0.005l-0.178,0.036l-0.104-0.005l-0.078-0.045l-0.255-0.01l-0.23,0.107l-0.052,0.104l-0.039,0.032l-0.024,0.057v0.115l0.047,0.054l0.097,0.052l0.026,0.053l0.049,0.43l-0.099,0.135l-0.156,0.047l-0.068,0.115l-0.021,0.135l0.094,0.151l0.198,0.058l0.071,0.075l-0.003,0.047l-0.203,0.188l-0.029,0.062l0.024,0.076l-0.06,0.135l0.049,0.063l0.039,0.177l0.052,0.071l0.013,0.195l0.271,0.334l0.172,0.083l0.245,0.182l0.217,0.271l0.125,0.073l0.052,0.058l0.081,0.031l0.095,0.028L709.422,282.328z"/>
</svg>
