<svg xmlns="http://www.w3.org/2000/svg" viewBox="699.769 270.283 14.407 12.298">
  <path d="M701.855149,271.551934l-0.055,-0.037l-0.023,-0.042l-0.029,-0.008l-0.036,0.016l-0.06,0.003l-0.032,-0.019l-0.005,-0.031l-0.068,-0.034l-0.044,0.002l-0.039,-0.021l-0.063,-0.115v-0.045l-0.117,-0.084l-0.099,-0.018l-0.084,-0.05l-0.018,-0.034l-0.005,-0.103l-0.104,-0.137l-0.008,-0.044l-0.034,-0.034l-0.097,-0.006l-0.005,-0.028l0.034,-0.048l-0.034,-0.084l-0.115,-0.06h-0.044l-0.104,0.068l-0.055,0.008l-0.029,-0.013l0.013,-0.053l-0.036,-0.015l-0.086,0.007l-0.018,0.04l-0.105,0.005l-0.052,-0.024l-0.042,0.008l-0.015,0.058l-0.032,0.005l-0.026,-0.01l-0.044,0.01l-0.01,0.035l-0.081,0.068l-0.011,0.047l-0.023,0.024l-0.008,0.044l0.049,0.147l0.029,0.037v0.034l-0.031,0.04l-0.029,0.076l-0.005,0.052l-0.097,0.061v0.029l0.029,0.029l0.06,0.191l0.039,0.016l0.019,0.055l-0.019,0.042l0.016,0.05l-0.024,0.016h-0.041l-0.055,0.024l-0.044,0.126l0.075,0.231v0.079l0.125,0.115l-0.122,0.082l-0.112,0.013l0.049,0.076l-0.008,0.045l0.107,0.126l0.055,0.102l0.076,0.037l0.026,0.029l0.013,0.039l0.055,0.047l0.031,-0.007l0.034,-0.069l0.036,-0.01l0.05,0.026l0.042,-0.01l0.007,-0.056l0.027,-0.021l0.049,0.003l0.013,0.055l0.086,0.108l0.076,0.008l0.023,0.023l-0.002,0.042l0.057,0.108l0.144,0.079l0.041,0.002l0.042,0.024l0.037,0.092l0.036,0.032l0.005,0.063l-0.031,0.018l-0.01,0.034l0.007,0.024l-0.028,0.018l-0.05,-0.005l-0.029,0.026l0.006,0.1l0.13,0.113l0.18,0.039l0.065,0.058l0.005,0.058l0.047,0.066l0.011,0.099l-0.016,0.029l0.003,0.029l0.021,0.013l0.007,0.029l-0.015,0.032l0.015,0.073l0.055,0.019l0.05,0.044l-0.005,0.04l-0.055,0.021l-0.084,0.002l-0.01,0.034l0.023,0.048l0.042,0.008l0.031,-0.019l0.06,0.021l0.013,0.032l0.113,0.039l0.049,0.042l-0.003,0.032l-0.054,0.036l-0.045,0.111l-0.002,0.084l0.021,0.136l0.052,0.056l0.036,0.073l-0.005,0.045l-0.026,0.036l-0.098,0.01l-0.042,0.023l0.01,0.01l0.043,-0.018l0.091,-0.007l0.083,0.048l0.1,0.121l0.11,0.071l0.063,0.078l0.003,0.084l0.043,0.054l0.051,0.003l0.094,0.052l0.017,0.061l0.036,0.034l0.076,0.007l0.122,-0.01l0.05,0.043l0.001,0.029l-0.02,0.041l0.002,0.107l0.045,0.024l0.125,-0.005l0.077,0.023l0.054,0.098l0.078,0.092l0.027,0.098l0.034,0.032l0.117,0.042l0.048,0.046l0.013,0.042l0.081,0.101l0.079,0.066l0.235,0.146l0.038,0.098l-0.004,0.116l0.027,0.032l-0.001,0.031l0.082,0.092l0.048,0.022l0.122,0.013l0.062,0.035l0.053,0.11l0.147,0.091l0.033,0.039l0.028,0.068l0.035,0.032l0.066,0.036l0.071,0.085l0.016,0.052l0.141,0.12l0.087,0.137l0.101,0.091l0.209,0.098l0.045,0.049l0.125,0.073l0.091,0.088l0.1,0.014l0.06,-0.018l0.125,0.004l0.167,0.084l0.059,0.081l-0.004,0.105l-0.048,0.091l-0.08,0.059l0.007,0.028l0.034,0.032l0.021,0.087l0.167,0.343l0.056,0.039l0.014,0.077l0.038,0.063l0.222,0.046l0.091,0.084l0.021,0.094l-0.018,0.067l0.007,0.035l0.042,0.007l0.059,0.017l0.101,0.077l0.268,0.126l0.069,0.049l0.247,0.141l0.223,0.441l0.042,0.063l-0.087,0.045l-0.094,0.007l-0.07,0.025l-0.049,0.042l-0.08,0.028l-0.115,0.01l0.05,0.038l0.06,0.018l0.046,0.031l-0.006,0.021l-0.048,-0.007l-0.106,-0.053l-0.05,-0.011l-0.005,0.014l0.084,0.051l0.161,0.064l0.033,0.023l0.031,0.035l0.107,-0.133l0.059,-0.031l0.155,0.037l0.101,0.038l0.087,0.072l0.028,0.002l0.06,-0.109l0.124,0.058l0.057,0.063l0.002,0.032l-0.014,0.026v0.04l0.037,0.072l0.048,0.058l0.077,0.026v0.014l-0.031,0.033l-0.006,0.035l0.023,0.018l0.073,0.002l0.139,0.047l0.087,0.082l0.057,0.011l0.026,0.017l0.002,0.035l0.058,0.063l0.111,0.019l0.123,0.104l0.082,0.037l0.031,0.05l-0.012,0.062l0.028,0.022l0.103,0.018l0.031,0.028l0.024,0.068l0.026,0.014l0.058,-0.017l0.055,0.028l0.101,0.124l0.051,0.044l0.031,0.009l0.014,0.035l0.024,0.01l0.082,-0.024l0.015,-0.021l0.023,-0.004l0.12,0.004l0.068,-0.021h0.062l0.054,0.012l0.061,0.091l0.051,0.044l0.151,0.099l0.002,0.033l0.021,-0.001l0.014,-0.03l0.051,-0.011l0.04,0.01l0.011,-0.008l-0.002,-0.02l0.009,-0.015l0.057,-0.028l0.022,-0.038l0.028,-0.003l0.06,0.011l0.034,0.016l0.018,0.03l0.029,0.005l0.039,-0.027v-0.031l-0.021,-0.03l-0.032,-0.02l-0.02,-0.019l-0.009,-0.032l-0.037,-0.034l0.021,-0.056l0.041,-0.039l0.088,-0.019l0.045,0.002l-0.043,-0.087l-0.038,-0.026l-0.013,-0.022l0.006,-0.033l-0.02,-0.035l0.008,-0.011l0.016,-0.002l0.032,-0.043l0.005,-0.035l0.029,-0.043l-0.05,-0.014l-0.073,-0.002l-0.05,-0.019l-0.035,-0.036l-0.041,-0.003l-0.017,-0.011l0.003,-0.02l-0.025,-0.022l-0.058,-0.024l-0.022,-0.032l-0.004,-0.078l-0.028,-0.024l-0.004,-0.024l0.007,-0.012v-0.021l-0.023,-0.02v-0.018l0.009,-0.014l-0.006,-0.018l-0.03,-0.017l0.097,-0.058l-0.035,-0.045l0.007,-0.058l0.021,-0.035l0.023,-0.007l0.028,0.009l0.024,-0.012l0.004,-0.038l-0.02,-0.036l0.074,-0.039l-0.051,-0.116l-0.045,-0.066l0.01,-0.149l0.044,-0.146l0.045,-0.031l0.03,-0.075l0.072,-0.06l0.209,-0.005l0.077,0.017h0.055l0.083,-0.033l0.033,-0.005l-0.043,-0.488l0.06,-0.234l0.065,-0.048l0.017,-0.049l0.106,-0.047l-0.036,-0.013l-0.066,-0.087l0.165,-0.116l0.203,-0.101l0.067,-0.017l0.033,-0.026l0.028,-0.007l0.028,0.003l0.015,-0.009l0.011,-0.019l0.05,-0.015l0.009,-0.019l-0.009,-0.036l-0.04,-0.042v-0.015l0.037,-0.003l0.086,-0.033l0.04,-0.003l0.025,0.01h0.036l0.021,-0.019h0.039l0.105,0.119l0.05,0.017l0.004,0.054l-0.032,0.041l0.007,0.067l0.024,0.023l0.041,0.009l0.051,0.04l0.013,0.06l0.061,0.048l0.03,0.001l0.031,-0.038l0.05,-0.127l0.019,-0.009l0.025,0.002l0.109,-0.034l0.014,-0.019l-0.004,-0.023l0.017,-0.038l-0.007,-0.028l-0.02,-0.012l-0.008,-0.021v-0.03l-0.046,-0.064l-0.069,-0.063l-0.01,-0.036l-0.018,-0.017l0.002,-0.012l0.019,-0.011l0.004,-0.067l-0.029,-0.007l-0.045,-0.042l-0.005,-0.071l-0.012,-0.049l-0.035,-0.035l-0.043,-0.013l-0.066,-0.04l-0.058,0.014l-0.013,-0.016l0.01,-0.058l-0.019,-0.098l-0.037,-0.057l-0.03,0.003l-0.012,0.033l-0.036,0.01l-0.03,-0.013l-0.007,-0.034l0.032,-0.049l0.05,-0.009l0.118,-0.053l0.043,-0.032l0.018,-0.081l0.025,-0.022l0.054,0.007l0.015,0.04l0.054,0.03l0.054,0.072l0.006,0.071l0.021,0.021l0.051,-0.007l0.028,-0.025l0.099,-0.023l0.025,-0.02l0.032,-0.006l0.036,0.006l0.036,-0.007l0.069,-0.059l0.03,-0.001l0.042,0.008l0.032,-0.005l0.135,0.01l0.034,0.019l0.084,-0.005l0.023,-0.023l-0.023,-0.063l0.023,-0.126l-0.014,-0.049l0.014,-0.017l0.038,0.005l0.026,-0.012v-0.021l-0.033,-0.007l-0.005,-0.018l0.027,-0.007l0.046,0.032l0.04,0.001l0.076,0.035l0.104,-0.01l0.079,-0.072l0.055,0.007l0.096,0.084l-0.01,0.039l0.024,0.023h0.045l0.031,-0.027l0.105,-0.002l0.094,0.027h0.034l0.053,-0.034l0.01,-0.033l-0.024,-0.035l0.001,-0.075l-0.021,-0.03l-0.003,-0.056l0.019,-0.017l0.035,0.026l0.023,-0.005l0.01,-0.051l0.043,-0.042l0.016,-0.075l-0.056,-0.093l-0.001,-0.055l0.012,-0.021l0.002,-0.038l-0.14,-0.086l-0.012,-0.045l-0.048,-0.051l-0.002,-0.035l-0.061,-0.049l-0.038,-0.006l-0.028,-0.022l-0.019,-0.055l-0.024,-0.015l-0.039,0.008l-0.061,-0.031l-0.01,-0.042l-0.059,-0.067l0.003,-0.031l-0.012,-0.019l-0.035,-0.009l-0.041,-0.044l-0.042,-0.095l-0.044,-0.047l-0.048,-0.033l-0.065,-0.1l-0.012,-0.054l-0.09,-0.105l-0.054,-0.032l-0.007,-0.023l0.007,-0.021l-0.004,-0.026l-0.06,-0.087l-0.009,-0.102l0.016,-0.024h0.029l0.068,0.054l0.035,0.014l0.076,-0.002l0.054,0.016l0.085,0.049l0.058,0.007l0.031,0.016l0.021,0.035l0.082,0.047h0.029l0.024,-0.019l0.04,-0.002l0.082,0.033l0.094,-0.002l0.233,0.014l0.035,-0.017l0.012,-0.035l0.03,-0.033l0.083,-0.039l0.016,-0.021l-0.014,-0.031l0.012,-0.027l0.08,-0.01l0.028,-0.03l0.09,-0.031l0.004,-0.03l-0.025,-0.039l-0.001,-0.033l0.026,-0.053l-0.019,-0.01l-0.021,0.014l-0.025,-0.007l-0.015,-0.082l-0.035,-0.011l-0.028,0.023l-0.01,0.08l-0.026,0.007l-0.056,-0.092l-0.031,-0.023l-0.113,-0.026l-0.04,-0.023l-0.051,-0.079l-0.003,-0.049l-0.018,-0.017l-0.04,0.005l-0.024,-0.025l0.005,-0.045l0.03,-0.03l0.003,-0.035l-0.021,-0.016l-0.05,0.007l-0.038,0.063h-0.042l-0.087,-0.059l-0.031,-0.091l-0.056,-0.042l-0.116,-0.042l-0.025,-0.055l0.011,-0.036l-0.009,-0.03l-0.037,-0.026l-0.01,-0.034l0.002,-0.043l-0.073,-0.16l-0.042,-0.021l-0.038,0.011l-0.042,-0.007l-0.023,-0.021l-0.047,-0.003l-0.092,0.058l-0.054,0.002l-0.05,-0.034l-0.031,-0.086l-0.052,-0.008l-0.066,0.044l-0.054,-0.01l-0.131,-0.173l0.008,-0.066l-0.013,-0.029l-0.057,-0.011l-0.016,-0.06l0.018,-0.029l-0.005,-0.021l-0.031,-0.005l-0.008,-0.042l0.029,-0.089l0.112,-0.061l0.021,-0.034l0.007,-0.163l-0.08,-0.155l-0.021,-0.084l0.036,-0.092l0.042,-0.005l0.039,0.018l0.068,-0.015l0.01,-0.042l0.071,-0.069l-0.006,-0.052l-0.033,-0.021l-0.003,-0.037l0.081,-0.074l0.06,-0.01l0.018,-0.024l-0.01,-0.052l0.018,-0.021l0.039,-0.008l0.021,-0.026l0.002,-0.045l0.066,-0.142l0.041,-0.003l0.019,-0.028l-0.032,-0.058l0.011,-0.026l0.083,-0.014l0.029,-0.052l0.036,-0.024l0.06,-0.128l0.042,-0.016l0.005,-0.021l-0.018,-0.024l0.005,-0.029l-0.044,-0.05l0.005,-0.023l0.045,-0.008l0.033,-0.082l0.014,-0.147l-0.027,-0.026l0.006,-0.024l0.054,-0.029l0.027,-0.136l-0.027,-0.092l-0.057,-0.011l-0.141,-0.07l-0.062,-0.008l-0.034,0.015l-0.042,-0.002l-0.042,-0.024l-0.065,0.003l-0.076,0.058l-0.036,-0.003l-0.052,-0.084l-0.063,-0.016l-0.042,0.011l-0.054,0.05l-0.073,0.034l-0.066,0.065l-0.075,0.016l-0.047,0.034l-0.029,0.042l-0.054,0.037l-0.162,0.018h-0.028l-0.023,0.005l-0.098,0.022l-0.422,-0.019l-0.076,-0.028l-0.146,-0.112l-0.136,-0.084l-0.007,-0.042l0.021,-0.024l-0.01,-0.035l-0.042,-0.025l-0.028,-0.052l0.024,-0.025l0.094,0.042h0.07l0.014,-0.031l-0.052,-0.06l-0.014,-0.063l0.031,-0.081l-0.017,-0.035l-0.077,-0.024h-0.059l-0.031,0.028l-0.035,-0.004l-0.021,-0.035l0.031,-0.045l-0.013,-0.039l-0.074,-0.073l-0.09,-0.025l-0.073,-0.084l0.01,-0.045l0.042,-0.028l-0.003,-0.046l-0.032,-0.035l-0.038,0.004l-0.035,0.045l-0.003,0.049l0.024,0.042l-0.021,0.032l-0.16,-0.028l0.004,-0.035l0.08,-0.056l0.003,-0.056l-0.034,-0.004l-0.046,0.06l-0.059,-0.007l-0.062,-0.053l-0.028,0.011l0.003,0.035l0.039,0.035l-0.014,0.045l-0.039,-0.014l-0.02,-0.059l-0.094,-0.046l-0.035,0.018l0.003,0.031l0.066,0.028v0.028l-0.043,0.044l-0.008,0.074l-0.023,0.002l-0.026,-0.057l-0.133,-0.017l-0.146,-0.091l-0.034,-0.091l-0.059,-0.042h-0.126l-0.177,0.038l-0.073,-0.007l-0.028,-0.038l-0.052,-0.021l-0.042,0.007l-0.024,-0.021l-0.004,-0.06l-0.062,-0.031l-0.084,0.01l-0.097,0.042l-0.017,0.056l0.014,0.046l0.031,0.021l-0.018,0.056l-0.1,0.042l-0.08,0.003l-0.059,-0.024l-0.063,-0.007l-0.035,0.017l-0.042,-0.003l-0.062,-0.067l-0.084,-0.031v-0.032l0.035,-0.021v-0.045l-0.045,-0.074l-0.056,-0.01l-0.045,0.024l-0.01,0.046h-0.035l-0.042,-0.091l-0.045,-0.028l-0.045,0.007l-0.049,0.045l-0.024,0.095l-0.049,0.035l-0.094,0.021l-0.021,0.035l0.014,0.066l-0.021,0.042l-0.087,0.046l-0.038,0.049l-0.115,0.056l-0.066,-0.007l-0.16,-0.077l-0.076,-0.081l-0.101,-0.028l-0.156,-0.119l-0.077,-0.024l-0.059,-0.056l-0.066,-0.011l-0.077,0.021l-0.048,0.06l-0.066,0.038h-0.053l-0.034,-0.028h-0.039l-0.027,0.018l-0.035,-0.007l-0.007,-0.063l-0.035,-0.021l-0.028,0.021v0.049l-0.035,0.024l-0.086,-0.014l-0.084,0.007l-0.003,-0.028l0.045,-0.042l-0.004,-0.049l-0.034,-0.003l-0.035,0.042h-0.063l-0.017,-0.039l0.003,-0.105l-0.038,-0.004l-0.066,0.092l-0.07,0.024l-0.201,-0.024l-0.066,-0.042l-0.025,-0.067l-0.062,-0.053l-0.08,-0.014l-0.042,-0.038h-0.031l-0.028,0.042l-0.021,0.116l-0.066,0.028l-0.184,-0.007l-0.094,-0.028l-0.351,-0.176l-0.091,-0.084l-0.013,-0.058h-0.029l-0.036,0.034l-0.044,-0.003l0.002,-0.034l0.037,-0.031l-0.008,-0.032l-0.037,-0.01l-0.018,0.026l-0.003,0.05l-0.041,0.002l-0.029,-0.034l-0.013,-0.079l-0.042,-0.015l-0.021,0.018l0.037,0.053l-0.013,0.031l-0.086,-0.005l-0.039,-0.032l0.008,-0.05l0.044,-0.026l-0.003,-0.039l-0.047,-0.061h-0.054l-0.029,0.071l-0.039,0.029l-0.052,0.003l-0.034,0.039l-0.003,0.066l-0.029,0.044l-0.057,0.021l-0.057,-0.021l-0.024,0.016l0.026,0.069l-0.044,0.057l-0.117,0.003l-0.22,-0.082h-0.088l-0.058,0.037l-0.117,-0.01l-0.175,-0.108l-0.065,-0.031l-0.042,0.002l-0.047,0.026l-0.101,0.006l-0.058,-0.019h-0.065l-0.096,0.066l-0.032,0.097l-0.031,0.029l-0.008,0.037l0.021,0.039l-0.01,0.037l-0.055,0.095l-0.094,0.057l-0.089,0.027l-0.062,0.044l-0.003,0.037l0.011,0.032l-0.042,0.097l-0.008,0.073l-0.026,0.045l-0.037,0.018l-0.039,0.074l0.003,0.089l-0.031,0.04l-0.123,0.013l-0.081,0.005z"/>
</svg>
