<svg xmlns="http://www.w3.org/2000/svg" viewBox="650.833 240.678 14.278 9.805">
  <path d="M662.958,250.243l0.088-0.028l0.016-0.035l0.091-0.061l0.008-0.049l-0.016-0.03l-0.044,0.015l-0.023-0.009l0.002-0.037l0.07-0.046l0.021-0.028l0.021-0.092l0.026-0.035l0.037,0.005l0.026-0.023l-0.008-0.084l0.021-0.031l-0.016-0.025l-0.039,0.005l-0.096-0.033l-0.016-0.033l0.01-0.064l0.06-0.049l0.003-0.04l-0.044-0.059l-0.047-0.008l-0.065,0.021l-0.047-0.013v-0.059l0.018-0.028l-0.005-0.033l-0.039-0.01l-0.099-0.16l0.002-0.036l-0.034-0.02l-0.091,0.023l-0.031-0.016l-0.018-0.135l-0.029-0.043l0.003-0.036l0.062-0.025l0.005-0.026l-0.041-0.01l-0.002-0.018l0.038-0.007v-0.036l-0.013-0.023l0.013-0.02l0.065,0.015l0.026-0.015l-0.01-0.054l-0.149-0.056l-0.005-0.025l0.026-0.041l0.068-0.036l0.008-0.061l0.028-0.038l-0.005-0.064l0.018-0.053l0.068-0.023l0.029,0.012l0.031-0.01l0.013-0.036l0.094-0.043l-0.005-0.046l-0.06-0.035l-0.008-0.051l0.01-0.033l0.086-0.028l0.037-0.039l0.005-0.035l0.031-0.033l0.006-0.036l-0.039-0.038v-0.043l0.03-0.029l0.064-0.017l0.016-0.022l-0.004-0.042l0.035-0.055l0.002-0.047l0.069-0.063l0.098-0.029l0.066-0.003l0.01-0.014l-0.014-0.019l0.005-0.061l0.028-0.02l0.004-0.015l-0.025-0.029l0.004-0.026l0.026-0.037l0.118-0.009l0.057-0.028l0.032,0.005l0.017,0.085l0.125,0.047l0.045-0.01l0.011-0.053l0.015-0.022l0.065,0.005l0.054,0.033l0.003,0.028l0.021,0.028l-0.004,0.022l-0.02,0.02l-0.009,0.034l0.031,0.005l0.024,0.027l0.032,0.004l0.025-0.045l0.054-0.064l-0.01-0.027l-0.054,0.004l-0.012-0.029l0.034-0.016l0.013-0.023l-0.017-0.025l0.024-0.039l0.106-0.007l0.025-0.041l0.002-0.094l-0.056-0.086l0.027-0.057l0.065-0.014l0.036-0.037l0.02-0.054l0.162-0.053l0.072,0.007l0.03-0.046l0.007-0.096l0.08-0.116l0.079-0.005l0.089,0.033h0.076l0.028-0.049l0.058-0.006l0.013-0.058l-0.202-0.198l-0.002-0.048l0.063-0.078l0.039-0.184l-0.016-0.053l-0.094-0.056l-0.023-0.086l0.023-0.026l-0.003-0.019l-0.056-0.008l-0.089-0.043l-0.19-0.01l-0.066,0.026l-0.041-0.005l-0.067-0.104l-0.051-0.008l-0.002-0.027l0.028-0.024v-0.029l-0.064-0.048l0.015-0.067l0.146-0.136l0.056-0.008l0.097-0.131v-0.04l-0.061-0.019l-0.189-0.016l-0.049,0.03l-0.03-0.014l-0.011-0.069l0.028-0.027l-0.043-0.091l-0.151-0.176l-0.018-0.083l-0.066-0.021l-0.179-0.019l-0.036,0.024l-0.036-0.018l0.018-0.097l-0.096-0.045l-0.125,0.002l-0.035-0.033l-0.051-0.004l-0.147,0.048l-0.088-0.018l-0.021-0.042l-0.03-0.015l-0.044,0.015l-0.043,0.04l-0.024-0.002l-0.011-0.027l-0.024-0.004l-0.057,0.026l-0.075-0.009l-0.076-0.062l-0.009-0.04l-0.049-0.01l-0.1,0.074l-0.012,0.038l-0.039,0.007l-0.042-0.02l-0.048,0.002l-0.042,0.018l-0.026-0.013l0.039-0.078l-0.034-0.154l-0.124-0.067l-0.053-0.11l0.026-0.122l0.122-0.055l0.053-0.06v-0.057l0.034-0.024l0.05,0.013l0.04-0.018l0.015-0.075l0.093-0.11l-0.016-0.042l-0.04-0.007l-0.045,0.02l-0.031-0.018l0.045-0.075l0.129-0.107l0.026-0.12l-0.047-0.05l0.037-0.112l0.084-0.018l0.027-0.026l-0.022-0.11l0.032-0.036l0.074,0.01l0.037-0.046l-0.032-0.019l-0.045-0.005l-0.013-0.036l0.135-0.107l0.008-0.05l-0.08-0.088l-0.068,0.01l-0.077,0.047l-0.042-0.008l-0.013-0.104l-0.095-0.044l-0.166,0.015l-0.151-0.015l-0.066-0.06l-0.308-0.115l-0.027-0.216l-0.134-0.128l-0.137-0.021l-0.077,0.057l-0.079,0.026l-0.084,0.081l-0.264-0.057l-0.029,0.055l-0.166,0.015l-0.108-0.021l-0.095,0.011l-0.037-0.021l0.042-0.185l-0.161-0.07l-0.135,0.041l-0.095-0.028l-0.018-0.151l-0.219-0.227l0.121-0.18l-0.097-0.193l-0.095-0.002l-0.05-0.034l0.005-0.039h-0.034l-0.082,0.093l0.005,0.066l-0.032,0.054l-0.139,0.099l-0.135,0.131l-0.058-0.026l-0.032-0.053l-0.089-0.018l-0.024,0.024h-0.037l-0.055-0.013l-0.095-0.003l-0.106,0.021l-0.076-0.018l-0.024-0.068l0.034-0.029l0.082,0.013l0.128,0.058l0.026-0.008l-0.012-0.017l-0.026-0.003l-0.025-0.112l0.029-0.044h0.035l0.008-0.02l-0.022-0.034l0.027-0.053l-0.013-0.019l-0.045-0.004l-0.031-0.02l-0.033-0.046l-0.126-0.037l-0.092,0.019l-0.042,0.06l-0.129,0.1l-0.035,0.062l-0.035,0.021l-0.064,0.019l-0.011,0.028l0.004,0.051l-0.018,0.022l-0.09,0.013l-0.078-0.024l-0.195-0.021l-0.145,0.039l-0.023-0.124l0.067-0.12l-0.042-0.038l-0.235,0.022l-0.042,0.038l-0.083,0.007l-0.216,0.085l0.001,0.019l0.039,0.007l0.012,0.04l-0.001,0.037l-0.036,0.029l-0.003,0.04l0.042,0.056l0.127,0.137l-0.018,0.052l-0.118,0.049l-0.19-0.012l-0.033-0.094l-0.336,0.017l0.034,0.088l0.078,0.055l0.034,0.091v0.078l0.036,0.039l0.084,0.037l0.044,0.06l-0.008,0.028l-0.052,0.045l0.008,0.041l0.141,0.071l0.159,0.015l0.026,0.037l-0.031,0.104l-0.099,0.047l-0.011-0.018l0.078-0.052l0.021-0.052l-0.026-0.029l-0.117-0.011l-0.18-0.078l-0.023-0.06l0.049-0.057l-0.01-0.05l-0.118-0.057l-0.026-0.057v-0.05l-0.023-0.052l-0.1-0.087l-0.253,0.269l-0.389,0.231l-0.085,0.01l-0.103-0.003l-0.081,0.045l-0.056,0.052l-0.115,0.05l-0.04-0.024l-0.043,0.017l-0.005,0.04l-0.104,0.032l-0.034-0.04l0.054-0.037l-0.022-0.029l-0.104,0.054l-0.214-0.007l-0.042-0.035l-0.007-0.115l0.025-0.059l-0.155-0.068l-0.202-0.034l-0.158-0.068l-0.071,0.003l-0.164-0.077l-0.026,0.029l0.01,0.028l-0.023,0.024l-0.058-0.021l-0.106,0.034l-0.034-0.008l-0.037,0.008l0.039,0.193l-0.289,0.023l-0.065-0.015l-0.011-0.04l-0.039-0.026h-0.041l-0.094-0.096l-0.037-0.099l0.019-0.013l-0.006-0.029l-0.044-0.026l0.003-0.029l0.075-0.067v-0.05l-0.036-0.039l0.002-0.052l-0.021-0.029l-0.106,0.025h-0.108l-0.25,0.076l-0.052-0.031l-0.025,0.007l-0.01,0.052l-0.056,0.007l-0.045-0.07l-0.038-0.003l-0.031,0.024l0.017,0.045l-0.017,0.039l-0.066,0.024l-0.143,0.024l-0.132,0.052l-0.132,0.08l-0.542,0.25l-0.74,0.438l-0.375,0.177l-0.176,0.073l0.051,0.086l0.063,0.287l-0.018,0.026l0.014,0.042l0.072,0.043l0.041,0.006l0.012,0.013l0.007,0.058l0.081,0.158l-0.014,0.026l-0.041,0.014l-0.103,0.101l0.007,0.017l0.028-0.002l0.017,0.025l0.016,0.208l-0.038,0.097l0.015,0.018l0.037-0.005l0.025,0.012l0.007,0.05l0.031,0.084l0.042,0.019l0.053-0.008l0.025-0.045l0.022,0.005l0.041,0.036l0.086,0.006l0.033-0.006l0.039,0.033l-0.006,0.044l0.02,0.043l0.036,0.007l0.035,0.047l0.004,0.038l0.037,0.038l0.051,0.018l0.033,0.04l0.002,0.057l0.045,0.063l0.07,0.045h0.034l0.098-0.018l0.033,0.014l0.055,0.083l0.04,0.005l0.026-0.005l0.049,0.056l0.034-0.007l-0.006-0.035l0.022-0.014l0.033-0.004l0.023-0.038l-0.004-0.062l0.019-0.026l0.037,0.001l0.014-0.017l-0.026-0.059l0.032-0.037l0.098,0.002l0.038-0.045l0.111-0.057h0.066l0.071-0.025l0.087,0.025l0.046-0.013l0.047-0.041l0.018-0.04l0.022-0.002l0.036,0.03l0.07-0.007l0.031,0.014l0.053,0.08l0.042,0.034l0.029,0.062l0.036,0.023l0.049,0.116l0.039,0.015l0.086-0.007l0.054,0.053l0.004,0.052l-0.015,0.021l0.017,0.039l-0.006,0.029l-0.061,0.029l0.002,0.067l0.021,0.044l-0.004,0.041l0.036,0.045l0.005,0.047l0.051,0.058l0.019,0.088l0.008-0.003l-0.006,0.124l0.004,0.065l0.047,0.068l0.127,0.054l0.017,0.025l0.113,0.023l0.037,0.061l0.027,0.003l0.054-0.032l0.13-0.034l0.026-0.018l0.048-0.006l0.023-0.051l0.07-0.069l0.028-0.004l0.044,0.023l0.038-0.007l0.059,0.033l-0.01,0.063l-0.049,0.023l-0.019,0.045l0.002,0.048l0.023,0.006l0.075-0.035l0.155-0.024l0.048,0.02l0.015,0.021l0.041,0.001l0.037-0.026l0.024,0.005l0.078,0.072l0.003,0.038l0.041,0.041l0.044,0.011l0.031,0.053l-0.018,0.026l0.003,0.022l0.033,0.032l0.005,0.109l0.02,0.054l-0.005,0.079l-0.056,0.079l0.004,0.022l0.044,0.021l0.006,0.02l-0.002,0.049l0.036,0.039l0.003,0.04l0.054,0.053l0.016,0.05l0.051,0.048l0.021-0.004l-0.005-0.039l-0.024-0.027l0.011-0.009l0.034,0.017l0.01,0.028l0.018,0.007l0.018-0.017l-0.011-0.032l0.025-0.123l0.046-0.042l0.038,0.016l0.023-0.006l0.026-0.019l0.089,0.004l0.028-0.014l0.033,0.011l0.003,0.033l0.023-0.001l0.026-0.036h0.07l0.085,0.071l0.032,0.004l0.026-0.013l0.022,0.003l0.006,0.04l-0.023,0.022l0.007,0.011l0.073-0.007l0.218-0.112l0.011,0.009l-0.014,0.026l0.007,0.008l0.036-0.016l0.046-0.002l0.08-0.029l0.022-0.034l0.031-0.003l0.028,0.026l0.011,0.043l0.031,0.022h0.027l0.021,0.017l0.02,0.036l0.056,0.045l-0.005,0.049l0.012,0.01l0.065-0.014l0.07,0.044l0.04,0.072l-0.013,0.071l0.013,0.012l0.024-0.007l0.012,0.015l-0.001,0.052l0.014,0.013l0.064,0.005l0.038-0.02l-0.001-0.036l-0.058-0.033l-0.003-0.024l0.037-0.045h0.035l0.023,0.026l0.009,0.033l0.018,0.017l0.089,0.001l0.041,0.06l-0.001,0.058l-0.058,0.046l-0.039,0.007l-0.071,0.106l-0.078,0.024l-0.002,0.026l0.03,0.037l-0.014,0.09l-0.027,0.025l0.003,0.021l0.021,0.013l-0.009,0.055l-0.069,0.053l-0.026,0.06l0.009,0.034l0.07,0.016l0.042-0.034l0.068,0.009l0.056-0.011l0.018,0.014l-0.005,0.035l0.009,0.058l-0.016,0.023l0.004,0.017l0.03-0.001l0.005,0.015l-0.016,0.015l0.005,0.017l0.033,0.008l0.048,0.055l0.016,0.046l-0.008,0.047l-0.06,0.036l-0.049,0.009l-0.024,0.033l-0.065,0.019l-0.037-0.018l-0.018,0.002l-0.087,0.148l0.002,0.043l0.035,0.026l0.001,0.019l0.029,0.01l0.017-0.01l0.02,0.011l-0.003,0.032l-0.029,0.036l-0.045,0.022v0.023l0.038,0.011l0.047-0.011l0.112,0.052l-0.001,0.051l0.014,0.007l0.032-0.018l0.099,0.004l0.113-0.033l0.108,0.003l0.04-0.024l0.021,0.002l0.041,0.026l0.04-0.003l0.032,0.014l0.025,0.042l0.091,0.005l0.038-0.008l0.095,0.019l0.119,0.054l0.044-0.002l0.097-0.042l0.112-0.005l0.058-0.024l0.058-0.072l0.08-0.01l0.039-0.052l0.063-0.03l0.147-0.005l0.102-0.035l0.058-0.006l0.075,0.006l0.007-0.015l-0.04-0.023l-0.004-0.123l0.056-0.132l-0.01-0.023l-0.033-0.002l-0.02-0.041l0.027-0.07l0.059-0.08l0.053-0.038l0.114-0.038l0.01-0.021l-0.015-0.024l0.003-0.014l0.039-0.004l0.003-0.047l0.016-0.026l0.093-0.033l0.077-0.057l0.047-0.07l0.013,0.006l-0.002,0.05l0.033,0.03l0.091,0.005l0.051-0.014l0.027,0.016l0.007,0.052l0.047,0.008v0.021l-0.091,0.056l-0.007,0.036l0.019,0.052l-0.014,0.028v0.021l0.019,0.016l-0.007,0.033h-0.019l-0.032-0.03l-0.001-0.031l-0.028-0.009l-0.046,0.028v0.023l0.018,0.027l-0.02,0.077l-0.065,0.019l-0.014,0.029l0.016,0.011l0.023-0.007l0.012,0.016l-0.017,0.031l0.014,0.021l0.04,0.001l0.002,0.035l-0.02,0.023l-0.026,0.003l-0.037,0.045l-0.007,0.159l-0.043,0.045l-0.048,0.005l-0.019,0.062l0.014,0.06l0.137,0.045l0.04-0.009l0.044,0.019l0.026,0.078l0.084,0.042v0.036l0.037,0.028l-0.005,0.021h-0.035l-0.005,0.019l0.028,0.012l-0.006,0.021l-0.029,0.009l-0.057,0.101l0.009,0.029l-0.016,0.012l-0.038-0.008l-0.011,0.015l0.042,0.108l0.037,0.021l0.002,0.062l0.026,0.025l-0.003,0.024l-0.032,0.018l-0.038,0.093l0.022,0.025l0.053-0.019l0.119,0.033l0.081-0.013l0.058-0.053l0.033-0.018l0.044,0.011l0.116,0.008l0.054,0.089l0.1,0.05l0.091,0.016l0.014,0.029l0.039,0.006l0.044-0.026l0.028,0.01l0.029,0.063l0.05,0.059l0.024,0.066l-0.009,0.038l0.025,0.026l0.054,0.005l0.042-0.026l0.041,0.021l0.003,0.035l-0.014,0.054l0.023,0.015l0.047-0.014l0.095,0.002l0.028,0.023l0.033,0.003l0.099-0.01l0.024-0.018h0.046l0.051,0.054l0.087,0.056l0.088,0.081l-0.002,0.026l-0.037,0.016l-0.049,0.07l-0.007,0.048l0.021,0.063l0.023,0.003l0.025-0.026l0.047-0.002l0.023-0.024l0.003-0.043l0.028-0.004l0.056,0.035l0.109,0.028l0.04,0.047l0.081,0.057l0.04,0.136l0.058,0.01l0.004,0.021l-0.051,0.057l0.003,0.023l0.079,0.04l0.002,0.054l-0.054,0.038l0.003,0.029l0.051,0.025l0.005,0.057l0.023,0.009l0.028-0.019v-0.028l0.025-0.016l0.056,0.007l0.067-0.009l0.084-0.041l0.01-0.039l0.044-0.02l0.135,0.033l0.037,0.029l0.003,0.044l0.028,0.008l0.036-0.054l-0.02-0.048l0.009-0.032l0.096-0.076l0.076-0.012l0.133,0.05l0.065,0.004l0.019-0.023l0.034,0.002l0.031,0.028l0.049-0.014l0.016-0.089l0.06-0.019l0.072,0.061l0.056,0.005l0.036,0.028L662.958,250.243z"/>
</svg>
