<svg xmlns="http://www.w3.org/2000/svg" viewBox="408.197 383.301 0.458 0.355">
  <path d="M408.197347,383.316286l0.011043,-0.015184h0.017945l0.033129,0.012423l-0.011043,0.011043l-0.012423,0.004141l-0.002761,0.013804l-0.011043,-0.005521l0.005521,-0.017945l-0.009663,-0.005521l-0.011043,0.006902l-0.009663,-0.004141Z M408.54796,383.385304l0.005521,-0.011043l-0.00138,-0.011043l-0.009663,-0.006902l-0.005521,0.009663l0.002761,0.008282l0.008282,0.011043Z M408.415445,383.423954l0.016564,-0.005521l0.011043,-0.022086l-0.009663,-0.006902l-0.023466,0.009663l-0.005521,0.016564l0.011043,0.008282Z M408.467899,383.389445l0.008282,0.004141l0.022086,-0.009663l0.008282,-0.011043l-0.016564,-0.00138l-0.015184,0.009663l-0.006902,0.008282Z M408.560383,383.646193l0.012423,0.009663v-0.013804l-0.006902,-0.009663l-0.008282,0.004141l0.002761,0.009663Z M408.616978,383.468126l0.009663,-0.00138l-0.00138,-0.009663l-0.011043,-0.00138l-0.004141,0.008282l0.006902,0.004141Z M408.346427,383.325948l0.004141,-0.006902l-0.005521,-0.006902l-0.009663,0.004141l0.00138,0.008282l0.009663,0.00138Z M408.47342,383.621347l0.011043,-0.019325l0.011043,-0.004141l0.011043,0.012423l0.013804,-0.00138l0.006902,-0.016564l0.015184,-0.004141l0.020705,0.017945l0.013804,-0.002761v-0.020705l0.008282,-0.013804 l0.040031,-0.019325l0.011043,0.011043l0.008282,-0.00138v-0.026227l0.011043,-0.030368l-0.004141,-0.008282l-0.016564,0.017945l-0.011043,-0.002761l0.00138,-0.013804l-0.004141,-0.004141l-0.015184,0.013804l-0.005521,-0.008282l0.002761,-0.009663l-0.008282,0.00138l-0.009663,0.012423l-0.006902,-0.002761l0.005521,-0.019325l-0.002761,-0.006902l-0.012423,0.002761l-0.009663,-0.012423l-0.012423,0.008282l-0.00138,0.012423l-0.013804,0.022086l-0.016564,0.002761l-0.009663,-0.008282l-0.015184,0.009663l-0.00138,0.013804l-0.012423,0.004141l-0.013804,-0.008282l0.005521,-0.011043l-0.00138,-0.012423l-0.013804,0.004141l-0.006902,-0.009663l0.008282,-0.009663l-0.006902,-0.009663h-0.012423l-0.002761,-0.015184l-0.016564,-0.004141l-0.012423,0.012423l-0.027607,-0.009663l-0.009663,-0.024847l-0.012423,-0.002761l-0.006902,0.005521l0.009663,0.008282v0.012423l-0.016564,-0.00138l-0.009663,0.008282l0.017945,0.006902l0.033129,0.03727l0.023466,0.006902l0.009663,0.016564l-0.004141,0.023466l0.023466,0.020705l0.027607,0.033129l0.002761,0.013804l0.009663,0.002761Z "/>
</svg>
