<svg xmlns="http://www.w3.org/2000/svg" viewBox="400.891 326.179 0.877 0.580">
  <path d="M401.710875,326.232211l0.013804,-0.004141l0.012423,0.011043l-0.004141,0.006902l-0.016564,-0.005521l-0.005521,-0.008282Z M401.524526,326.284665l0.012423,0.002761l0.028988,-0.019325l0.049693,-0.020705l0.03865,-0.027607l0.023466,-0.005521l0.028988,0.012423l0.008282,-0.006902l-0.03865,-0.040031l-0.017945,0.002761l-0.044172,0.03865l-0.086963,0.052454l-0.002761,0.011043Z M401.698452,326.254297l0.020705,0.006902l0.006902,-0.008282l-0.022086,-0.008282l-0.011503,-0.003221l-0.005521,0.004141l0.011503,0.008742Z M401.705354,326.360585l0.015184,-0.00138l0.008282,-0.006902l-0.011043,-0.006902l-0.013804,0.005521l0.00138,0.009663Z M401.514863,326.308131l0.009663,0.005521l0.008282,-0.004141l-0.004141,-0.011043l-0.009663,0.00138l-0.004141,0.008282Z M401.129741,326.660124l0.017945,-0.008282l-0.004141,-0.009663l-0.015184,0.00138l-0.009663,0.012423l0.011043,0.004141Z M401.194619,326.628376l0.015184,-0.004141l0.002761,-0.012423l-0.013804,-0.004141l-0.008282,0.009663l0.004141,0.011043Z M401.169772,326.584204l0.009663,-0.005521l-0.00138,-0.015184h-0.009663l-0.005521,0.015184l0.006902,0.005521Z M401.096613,326.592486l-0.00138,0.013804l0.006902,0.004141l0.006902,-0.011043l-0.00138,-0.011043l-0.011043,0.004141Z M401.167011,326.621474l0.011043,-0.005521v-0.011043l-0.011043,-0.00138l-0.004141,0.011043l0.004141,0.006902Z M401.133883,326.628376l0.008282,-0.006902l-0.00138,-0.011043h-0.011043l-0.004141,0.012423l0.008282,0.005521Z M401.117318,326.618713l0.006902,-0.006902l-0.004141,-0.011043l-0.008282,0.005521l-0.004141,0.009663l0.009663,0.002761Z M401.136643,326.604909h0.012423l0.007822,-0.007362l-0.013344,-0.002301l-0.013804,0.00138l0.006902,0.008282Z M401.581121,326.308131l0.011043,-0.015184l0.017945,-0.005521l0.015184,0.005521l0.004141,0.033129l0.008282,-0.00138l0.00138,-0.028988l0.019325,-0.008282l0.044172,0.019325l0.031748,0.03865l0.013344,0.007822h0.008282l-0.010583,-0.014724l-0.019325,-0.024847l0.009663,-0.015184l0.023466,0.002761l0.008282,-0.011043l0.002761,-0.017945l-0.006902,-0.019325h-0.016564l-0.004141,0.016564l-0.026227,0.005521l-0.034509,-0.015184l-0.045552,-0.004141l-0.064877,0.022086l-0.017945,0.013804l0.008282,0.017945l0.019325,-0.00138Z M401.682808,326.393253l0.006902,-0.006902l-0.002301,-0.006442l-0.011043,0.00138l-0.00184,0.007822l0.008282,0.004141Z M401.485876,326.353683l-0.041411,0.011043l-0.017945,0.03727l0.006902,0.015184l-0.016564,0.042791l-0.03865,0.031748l-0.073159,0.023466l-0.073159,0.012423l-0.046932,-0.011043l-0.024847,0.002761l-0.011043,0.015184l0.015184,0.009663l0.020705,0.002761l0.005521,0.012423l-0.005521,0.019325l0.013804,0.004141l0.013804,-0.006902l0.016564,0.009663l0.024847,0.00138l0.042791,-0.013804l0.013344,0.00092l-0.00092,0.011503l-0.019325,0.004141l-0.015184,0.019325l-0.044172,0.015184l-0.031748,0.026227l-0.057975,0.023466l-0.040031,0.006902l-0.006902,0.013804l0.009663,0.005521l0.015184,-0.005521l0.008282,0.002761l-0.028988,0.019325l-0.046932,0.015184l-0.048313,0.002761l-0.027607,-0.017945v-0.03865l0.012423,-0.006902l0.026227,0.008282l0.018865,-0.005982l0.002761,-0.006902l-0.014724,-0.006442l-0.035889,0.00138l-0.03865,-0.012423l-0.005521,-0.012423l0.016564,-0.006902l0.002761,-0.009663l-0.006902,-0.011043l0.008282,-0.027607l0.017945,-0.008282l0.012423,-0.013804l-0.00138,-0.017945l0.015184,-0.013804l0.015184,-0.006902l0.011043,-0.012423l0.016564,-0.009663l0.011043,-0.008282l0.002761,-0.013804l0.015184,-0.017945l0.019325,-0.027607l-0.006902,-0.009663l-0.011043,0.005521l-0.030368,0.044172l-0.057975,0.052454l-0.019325,0.002761l-0.00138,-0.022086l-0.011043,0.002761l-0.004141,0.015184l-0.019325,0.006902l-0.013804,-0.005521l-0.005521,0.008282l0.017945,0.040031l-0.002761,0.041411l-0.019325,0.026227l-0.006902,-0.009663l0.008282,-0.016564l-0.006902,-0.00138l-0.015184,0.012423l0.024847,0.070399l0.023466,0.034509l0.03727,0.028988l0.026227,0.005521l0.027607,-0.006902l0.045552,0.005521l0.046932,-0.008282l0.078681,-0.045552l0.088343,-0.042791l0.042791,-0.044172l0.023466,-0.016564l0.073159,-0.064877l0.069018,-0.042791l0.019325,-0.005521l0.012423,-0.012423l0.005521,-0.012423l0.048313,-0.034509l0.048313,-0.011043l0.028988,-0.019325l0.005521,-0.011043l-0.03727,0.017945l-0.013804,-0.00138l-0.011043,-0.013804l-0.03865,-0.015184l-0.011043,-0.011043l-0.008282,-0.027607l-0.022086,-0.017945l-0.016564,0.00138l-0.022086,0.030368Z "/>
</svg>
