<svg xmlns="http://www.w3.org/2000/svg" viewBox="400.892 326.179 0.876 0.580">
  <path d="M401.711,326.232l0.014,-0.004l0.012,0.011l-0.004,0.007l-0.017,-0.006l-0.006,-0.008Z M401.525,326.285l0.012,0.003l0.029,-0.019l0.05,-0.021l0.039,-0.028l0.023,-0.006l0.029,0.012l0.008,-0.007l-0.039,-0.04l-0.018,0.003l-0.044,0.039l-0.087,0.052l-0.003,0.011Z M401.698,326.254l0.021,0.007l0.007,-0.008l-0.022,-0.008l-0.012,-0.003l-0.006,0.004l0.012,0.009Z M401.705,326.361h0.015l0.008,-0.008 l-0.011,-0.007l-0.014,0.006v0.01Z M401.515,326.308l0.01,0.006l0.008,-0.004l-0.004,-0.011h-0.01l-0.004,0.01 Z M401.13,326.66l0.018,-0.008l-0.004,-0.01h-0.015l-0.01,0.014 l0.011,0.004Z M401.195,326.628l0.015,-0.004l0.003,-0.012l-0.014,-0.004l-0.008,0.01l0.004,0.011Z M401.17,326.584l0.01,-0.006v-0.015h-0.011l-0.006,0.015l0.007,0.006Z M401.097,326.592v0.014l0.006,0.004 l0.007,-0.011v-0.011l-0.012,0.004 Z M401.167,326.621l0.011,-0.006v-0.011h-0.011l-0.004,0.01 l0.004,0.007Z M401.134,326.628l0.008,-0.007v-0.011h-0.012l-0.004,0.012l0.008,0.006Z M401.117,326.619l0.007,-0.007l-0.004,-0.011l-0.008,0.006l-0.004,0.01l0.01,0.003Z M401.137,326.605h0.012l0.008,-0.007l-0.013,-0.002h-0.014l0.007,0.01 Z M401.581,326.308l0.011,-0.015l0.018,-0.006l0.015,0.006l0.004,0.033h0.008l0.001,-0.03 l0.019,-0.008l0.044,0.019l0.032,0.039l0.013,0.008h0.008l-0.011,-0.015l-0.019,-0.025l0.01,-0.015l0.023,0.003l0.008,-0.011l0.003,-0.018l-0.007,-0.019h-0.017l-0.004,0.017l-0.026,0.006l-0.035,-0.015l-0.046,-0.004l-0.065,0.022l-0.018,0.014l0.008,0.018h0.019Z M401.683,326.393l0.007,-0.007l-0.002,-0.006h-0.011l-0.002,0.009 l0.008,0.004Z M401.486,326.354l-0.041,0.011l-0.018,0.037l0.007,0.015l-0.017,0.043l-0.039,0.032l-0.073,0.023l-0.073,0.012l-0.047,-0.011l-0.025,0.003l-0.011,0.015l0.015,0.01l0.021,0.003l0.006,0.012l-0.006,0.019l0.014,0.004l0.014,-0.007l0.017,0.01h0.025l0.043,-0.012 h0.013l0,0.012 l-0.019,0.004l-0.015,0.019l-0.044,0.015l-0.032,0.026l-0.058,0.023l-0.04,0.007l-0.007,0.014l0.01,0.006l0.015,-0.006l0.008,0.003l-0.029,0.019l-0.047,0.015l-0.048,0.003l-0.028,-0.018v-0.039l0.012,-0.007l0.026,0.008l0.019,-0.006l0.003,-0.007l-0.015,-0.006h-0.036l-0.039,-0.011 l-0.006,-0.012l0.017,-0.007l0.003,-0.01l-0.007,-0.011l0.008,-0.028l0.018,-0.008l0.012,-0.014v-0.018l0.014,-0.014 l0.015,-0.007l0.011,-0.012l0.017,-0.01l0.011,-0.008l0.003,-0.014l0.015,-0.018l0.019,-0.028l-0.007,-0.01l-0.011,0.006l-0.03,0.044l-0.058,0.052l-0.019,0.003v-0.022l-0.012,0.003 l-0.004,0.015l-0.019,0.007l-0.014,-0.006l-0.006,0.008l0.018,0.04l-0.003,0.041l-0.019,0.026l-0.007,-0.01l0.008,-0.017h-0.007l-0.015,0.011 l0.025,0.07l0.023,0.035l0.037,0.029l0.026,0.006l0.028,-0.007l0.046,0.006l0.047,-0.008l0.079,-0.046l0.088,-0.043l0.043,-0.044l0.023,-0.017l0.073,-0.065l0.069,-0.043l0.019,-0.006l0.012,-0.012l0.006,-0.012l0.048,-0.035l0.048,-0.011l0.029,-0.019l0.006,-0.011l-0.037,0.018h-0.014l-0.011,-0.015 l-0.039,-0.015l-0.011,-0.011l-0.008,-0.028l-0.022,-0.018h-0.017l-0.022,0.032 Z "/>
</svg>
