<svg xmlns="http://www.w3.org/2000/svg" viewBox="1064.390 431.925 4.789 3.860">
  <path d="M1068.188,431.949l0.004-0.008l0.074-0.014l0.062,0.003l-0.002,0.004l-0.058,0.002l-0.075,0.016L1068.188,431.949L1068.188,431.949z M1068.05,432.182l0.009-0.006l0.005-0.014l-0.006-0.008l-0.008,0.004l-0.006,0.02L1068.05,432.182L1068.05,432.182z M1067.957,432.45l0.027-0.032l0.007-0.035l0.007-0.002l0.004,0.007l-0.005,0.029l-0.028,0.03L1067.957,432.45L1067.957,432.45z M1068.107,432.044l-0.001-0.021l0.012-0.005l0.066,0.03h0.068l0.008-0.008l0.012,0.002l0.019,0.047l0.017,0.019l-0.005,0.007l-0.024-0.001l-0.031-0.006l-0.032,0.001l-0.024,0.006l-0.036-0.01l-0.019-0.031L1068.107,432.044L1068.107,432.044z M1064.39,433.612l0.004,0.026l0.331,0.033l0.09,0.096l0.024,0.053l0.027,0.008l0.028-0.02l0.033,0.006l0.169,0.122l0.068,0.129l0.004,0.051l0.09,0.129l0.022,0.097l-0.024,0.086l0.008,0.023l0.076,0.047l0.004,0.026l-0.035,0.09l-0.023,0.198l0.029,0.031l0.139-0.003l0.037-0.022h0.12l0.056,0.039l0.022-0.008l-0.002-0.033l0.051-0.053h0.037l0.03,0.049l-0.008,0.088l0.023,0.04l0.006,0.052l0.065,0.116l0.015,0.079l0.043,0.043l0.004,0.027l0.038,0.01l0.039-0.014l0.055,0.055l0.041,0.01l0.017,0.053l-0.003,0.037l0.031,0.043l-0.01,0.036l0.014,0.017l0.035,0.002l0.084,0.118l0.082,0.01l0.059,0.043l-0.002,0.047l-0.057,0.045l0.014,0.016l0.114-0.008l0.145-0.051l0.109-0.071l0.237-0.296l0.061-0.025l0.006-0.034l0.047-0.06l0.009-0.038l-0.017-0.01l-0.03,0.022l-0.012-0.013l0.014-0.058l0.028-0.04l0.024-0.005l0.004-0.016l-0.009-0.014l0.08-0.096l0.088-0.164l0.001-0.042l-0.015-0.004l-0.06,0.066l-0.037,0.006l-0.034,0.028l-0.014-0.013l0.225-0.336l0.027-0.104l-0.004-0.09l0.01-0.037v-0.057l-0.029-0.011l-0.047,0.021h-0.07l-0.06-0.047l-0.035-0.169l0.005-0.291l-0.016-0.03l0.003-0.094l-0.029-0.041l-0.005-0.102l-0.031-0.047l0.001-0.105l0.013-0.032l-0.016-0.011l-0.025,0.01l-0.028-0.045l-0.024-0.012l-0.002-0.021l0.03-0.047l-0.004-0.015l-0.028-0.023l0.004-0.032l0.022-0.003l0.013,0.009l0.145-0.052l0.096-0.163l0.054-0.023l0.015-0.03l0.095-0.053l0.026,0.002l0.033,0.024l0.03-0.001l0.039-0.023h0.037l0.094,0.026l0.023-0.001l0.054-0.102l-0.012-0.031l0.004-0.02l0.023-0.014l0.004-0.022l-0.013-0.019l0.003-0.013l0.005-0.023l0.079-0.071l0.047-0.021l0.007-0.031l-0.011-0.043h-0.013l-0.042,0.068l-0.029,0.023l-0.025,0.003l-0.034,0.022l-0.022,0.039l-0.063,0.047l-0.006,0.03l-0.015-0.001l-0.026-0.034v-0.051l-0.009-0.016l0.017,0.007l0.009,0.03l0.024,0.004l0.047-0.028l0.035-0.047l0.041-0.028l0.036-0.008l0.016-0.015l0.009-0.037l0.052-0.088l0.059-0.071l0.033-0.019l0.006-0.024l-0.044-0.061l0.012-0.038l0.039-0.005l0.024,0.011l0.029-0.013l0.007-0.062l0.03-0.033l0.064-0.031l-0.004-0.012h-0.088l-0.028-0.019l-0.032-0.001l-0.141,0.026l-0.138,0.07l-0.452,0.173l-0.202,0.161l-0.225,0.166l-0.268,0.168l-0.188,0.171l-0.01,0.057l-0.052,0.037l-0.038,0.005l-0.293,0.233l-0.266,0.14l-0.351,0.136l-0.299,0.096l-0.194,0.03l-0.372,0.025l-0.136-0.007L1064.39,433.612z M1068.019,432.866l0.001,0.011l-0.078,0.05l-0.002,0.066l-0.023,0.03l0.001,0.053l0.025,0.008l0.002-0.017l0.014-0.007l0.018,0.026l-0.023,0.016l-0.001,0.016l0.022,0.019v0.013l-0.043,0.027v0.018l0.017,0.013l0.007,0.033l0.022,0.027l0.002,0.025l-0.014,0.025v0.03l0.03,0.022l0.004,0.023l-0.025,0.039l0.003,0.059l0.042,0.077l0.029,0.025l0.008,0.041l0.03,0.058l-0.007,0.055l0.052,0.065l0.003,0.027l-0.016,0.025l0.002,0.045l0.027,0.019l0.017,0.047l-0.009,0.044l0.007,0.019l0.02,0.011l0.001,0.047l-0.017,0.023l-0.009,0.071l0.048,0.055l0.001,0.027l-0.048,0.073l0.001,0.023l0.055,0.019l0.013,0.029l0.022,0.01l0.094-0.023l0.025-0.03l0.019,0.001l0.015,0.029l0.063,0.029l0.02-0.012l0.03,0.001l0.046,0.042l0.054,0.003l0.064-0.032h0.029l0.029,0.032l-0.009,0.058l0.026,0.024l0.051,0.001l0.018-0.025l0.019,0.001l0.024,0.024l0.033-0.007l0.018,0.006l-0.002,0.048l0.087,0.094l0.028,0.004l0.029-0.012l0.082-0.088l0.037-0.054l-0.009-0.031l-0.03-0.006l-0.05-0.05l-0.014-0.053l-0.051-0.054l-0.04-0.004l-0.048-0.033l-0.001-0.036l-0.099-0.113l-0.006-0.035l0.032-0.048v-0.041l-0.03-0.023l0.001-0.024l0.013-0.026v-0.026l-0.03-0.038l-0.004-0.065l0.022-0.111l0.06-0.166l-0.007-0.112l-0.102-0.073l-0.004-0.025l0.038-0.056l-0.006-0.042l-0.058-0.015l-0.011-0.047l0.025-0.059v-0.043l-0.018-0.029l-0.024-0.001l-0.013-0.01l-0.004-0.024l-0.027-0.078l0.015-0.112l-0.191-0.183l-0.008-0.038l0.01-0.017l-0.006-0.018l-0.032,0.001l-0.027-0.017l-0.028,0.009l-0.032-0.005l-0.003-0.016l0.011-0.038l0.02-0.011l-0.002-0.028l-0.014-0.012v-0.016l0.008-0.01l-0.004-0.01l-0.029,0.004l-0.02,0.014l-0.021,0.003l-0.02-0.004l-0.059,0.007l-0.054,0.039v0.023l0.018,0.052l0.04,0.018l0.031,0.026l-0.002,0.008l-0.027-0.01l-0.004,0.007l0.008,0.026l-0.023,0.02l-0.027-0.008l-0.011,0.006l-0.012,0.024l-0.009-0.001l-0.013-0.012h-0.03l-0.06,0.03l-0.029,0.045l-0.003,0.054l0.008,0.054l0.011,0.017l-0.007,0.006l-0.015-0.01l-0.023,0.006L1068.019,432.866z"/>
</svg>
