<svg xmlns="http://www.w3.org/2000/svg" viewBox="347.456 346.942 24.345 25.039">
  <path d="M370.578,369.93l-0.021,-0.111l-0.076,-0.132l0.028,-0.09l0.194,-0.083l0.069,-0.097l0.069,0.014l0.132,0.104l0.118,0.055v0.104l-0.104,0.069l-0.229,0.083l-0.146,0.104l-0.035,-0.021Z M368.34,371.981l0.062,-0.007l0.09,-0.111l0.263,-0.007l0.159,0.076l0.416,-0.035l0.159,-0.104l0.215,-0.014l0.159,0.035l0.27,-0.055l0.062,-0.028l0.062,-0.152l0.062,-0.059l0.139,-0.288l0.146,-0.125l0.118,-0.243l0.035,-0.423l-0.035,-0.111l-0.104,-0.021l-0.097,0.09l-0.111,0.215l-0.069,0.09l-0.083,0.187l-0.146,0.104l-0.152,0.035l-0.125,0.069l-0.187,-0.021l-0.18,-0.132l-0.111,-0.243l-0.055,0.007l-0.055,0.118l-0.104,0.049l-0.229,0.021l-0.083,0.055l-0.104,0.152l-0.277,0.132l-0.076,-0.007l-0.062,-0.028v0.035l0.055,0.09v0.132l-0.069,0.055l-0.097,0.021l-0.021,0.055l0.076,0.118l0.007,0.159l0.076,0.111Z M363.799,361.242l0.104,0.013l0.132,0.06l0.097,-0.027l0.035,-0.181l-0.062,-0.067l-0.125,-0.007l-0.312,0.081l-0.097,0.087l0.028,0.06l0.201,-0.02Z M367.762,363.478l0.128,0.057l0.191,0.02l0.109,-0.06l0.144,-0.007l-0.021,-0.037l-0.142,-0.034l-0.094,0.017l-0.121,-0.017l-0.187,0.03l-0.007,0.03Z M370.19,366.265l0.042,0.06l0.125,-0.02l0.125,0.05l0.088,0.065h0.057l0.151,-0.146h0.088l0.047,0.035l0.052,0.01l0.078,-0.039l0.161,0.018l0.114,0.05l0.244,0.247h0.094l0.14,-0.111l0.005,-0.091l-0.062,-0.064l-0.118,-0.02l-0.159,-0.107l-0.388,-0.081l-0.094,0.02l-0.177,-0.05l-0.156,-0.091h-0.197l-0.099,-0.065l-0.031,0.01l-0.026,0.156l-0.104,0.161Z M365.685,365.58l0.047,0.01l0.078,-0.126l0.099,-0.081l0.114,-0.141l0.026,-0.121l-0.042,0.02l-0.052,0.106l-0.083,0.065l-0.13,0.076l-0.057,0.096v0.096Z M366.259,364.988v0.038l0.023,0.008l0.005,-0.035l0.021,-0.013l0.016,0.043l0.029,0.023l0.049,-0.003l0.042,0.023l0.003,0.04l0.034,0.018l0.078,-0.048l0.112,-0.048l0.026,0.015l0.008,0.088l0.055,0.003l0.148,-0.098l0.057,-0.091l0.104,-0.03l-0.018,-0.018l-0.101,-0.011l-0.052,-0.017l-0.073,-0.05l-0.125,-0.005l-0.088,0.04l-0.062,-0.015l-0.036,-0.06l-0.057,-0.015h-0.062l-0.073,-0.081l-0.042,-0.101l-0.14,-0.071l-0.078,-0.01l-0.073,-0.05l-0.13,-0.01l-0.052,0.04l0.057,0.171l0.052,0.071l0.104,0.055l0.031,0.101l-0.026,0.116l0.016,0.03l0.049,-0.005l0.07,-0.055l0.065,-0.015l0.036,0.033Z M368.481,365.459l0.018,0.018l0.086,-0.063l0.01,-0.076l-0.052,-0.005l-0.057,0.05l-0.005,0.076Z M368.751,365.339l0.12,0.013l0.047,0.023l0.109,0.05l0.047,0.005l-0.026,-0.055l-0.146,-0.053l-0.146,0.005l-0.005,0.013Z M365.945,367.228l0.042,-0.015v-0.03l-0.078,-0.005l-0.026,0.035l0.062,0.015Z M366.023,367.041l0.021,0.015l0.083,-0.096l0.078,-0.04l0.13,-0.01l0.156,-0.116l0.062,-0.166l0.057,-0.045l0.442,-0.116l0.094,-0.071l0.073,-0.116l0.031,-0.096l0.099,-0.186l0.094,-0.045l0.14,-0.166l0.068,-0.161l-0.057,-0.282l-0.007,-0.2l-0.042,-0.081l0.017,-0.054l0.076,-0.047l0.042,-0.091l-0.045,-0.034l-0.163,0.057l-0.059,0.05l-0.076,0.003l-0.038,-0.057h-0.038l-0.038,0.084l-0.087,0.033h-0.081l-0.036,0.043l0.042,0.06l-0.004,0.052l-0.111,0.084l0.003,0.067l0.076,0.074l0.139,0.034l0.139,-0.04l0.083,0.013l0.107,0.114l0.059,0.138l-0.017,0.091l-0.094,0.124l-0.111,0.044l-0.215,0.037l-0.024,0.04l0.01,0.057l-0.042,0.081l-0.087,0.04l-0.191,0.017l-0.031,0.054l0.038,0.054l-0.021,0.084l-0.107,0.054l-0.111,0.007l-0.125,0.067l-0.035,0.047l0.014,0.037l0.042,0.01v0.04l-0.066,0.054l-0.007,0.03l0.035,0.024l-0.021,0.054l-0.08,0.044h-0.08l-0.055,-0.034l-0.062,0.007l-0.073,0.047v0.037l0.017,0.047l-0.031,0.101Z M360.421,366.363l0.014,-0.04l-0.035,-0.03l-0.024,-0.047l-0.017,-0.077l-0.028,0.017l0.014,0.107l0.045,0.067l0.031,0.003Z M360.299,366.064l0.018,-0.034l-0.01,-0.124l-0.028,-0.057l-0.019,0.031l0.016,0.043l0.023,0.141Z M360.189,364.311l0.017,-0.034l-0.01,-0.037l-0.045,0.02l0.003,0.06l0.035,-0.01Z M366.366,365.181l0.031,-0.007l0.014,-0.024l-0.031,-0.013l-0.038,0.024l0.024,0.02Z M365.146,367.367l0.031,-0.01l0.003,-0.027l-0.035,-0.007l-0.024,0.03l0.024,0.013Z M366.026,365.701l0.024,-0.02l-0.007,-0.027l-0.045,0.003l-0.003,0.034l0.031,0.01Z M366.144,365.799l0.028,0.037l0.035,-0.007l-0.021,-0.044l-0.031,-0.017l-0.01,0.03Z M366.264,365.956l-0.013,0.03l0.018,0.02l0.029,-0.018l-0.005,-0.028l-0.029,-0.005Z M360.808,367.114l0.029,-0.018l-0.057,-0.065l-0.036,0.023l0.003,0.043l0.062,0.018Z M360.66,367.029l0.049,0.002l0.035,-0.015l0.005,-0.034l-0.057,-0.082l-0.023,-0.088l-0.016,0.006l0.003,0.065l0.003,0.032l0.028,0.05l-0.01,0.018l-0.031,-0.023l-0.029,-0.05l-0.01,0.03l0.026,0.058l0.029,0.031Z M360.622,366.796l0.019,-0.02v-0.03l-0.029,-0.082l-0.012,0.01l0.002,0.072l-0.021,0.035l0.009,0.018l0.033,-0.003Z M360.497,366.566l0.04,-0.005l0.01,-0.024l-0.024,-0.017l-0.043,0.008l-0.014,0.018l0.031,0.018Z M360.566,366.615l0.019,0.008l0.014,-0.012l-0.003,-0.055l-0.014,-0.005l-0.016,0.029v0.035Z M360.563,366.517l0.016,-0.008l-0.005,-0.044l-0.021,-0.008l-0.009,0.017l0.019,0.044Z M368.392,363.502l0.042,-0.007l0.014,-0.024l-0.045,-0.017l-0.028,0.027l0.017,0.02Z M360.665,363.826l0.014,-0.002l0.057,-0.097l0.024,-0.032l0.023,-0.018l-0.009,-0.01l-0.035,0.018l-0.073,0.121l-0.002,0.02Z M363.885,364.334l0.055,0.037l0.062,-0.02l0.028,-0.077l-0.076,-0.195l-0.01,-0.081l0.024,-0.114l-0.049,-0.111l-0.09,-0.067l-0.062,-0.111l-0.076,-0.057l-0.021,-0.064l-0.045,-0.02h-0.055l-0.045,-0.04l-0.049,-0.017l-0.139,-0.007l-0.146,-0.111l-0.059,-0.091l-0.069,-0.225v-0.104l0.021,-0.054l-0.017,-0.144l-0.054,-0.16l-0.208,-0.337l-0.104,-0.111l-0.062,-0.181l0.005,-0.091l-0.036,-0.086l-0.223,-0.222l-0.021,-0.06l0.005,-0.071l-0.031,-0.06l-0.13,-0.126l-0.052,0.003l-0.036,0.052l0.023,0.059l0.028,0.027l-0.042,0.074l0.01,0.04l0.038,0.003l0.062,-0.057l0.035,0.017l-0.019,0.094l-0.052,0.101l0.016,0.015l0.068,-0.055l0.052,-0.01l0.036,0.045l-0.021,0.045l0.031,0.045l0.062,0.04l0.021,0.096l-0.021,0.065l0.021,0.05l0.068,0.065l0.021,0.055l-0.021,0.035l0.021,0.055l0.057,0.02l0.031,0.055l-0.01,0.044l0.038,0.04l0.154,0.047l0.016,0.024l-0.031,0.04l-0.014,0.04l0.014,0.012l0.035,-0.032l0.042,0.013l0.066,0.118l-0.017,0.054l0.017,0.071l0.035,0.024l0.01,0.047l-0.104,0.118l-0.014,0.071l0.031,0.04l-0.007,0.03l-0.045,0.037l0.042,0.087l0.059,0.054l0.073,0.027l0.042,0.06l0.069,0.057l0.031,0.067l-0.035,0.04l-0.083,0.007l-0.073,-0.044l-0.125,-0.121l-0.163,-0.107l-0.014,-0.047l-0.066,-0.05l-0.035,0.017l-0.007,0.054l0.066,0.064l0.094,0.037l0.114,0.087l0.107,0.097l0.076,0.04l0.097,0.037l0.128,0.01l0.18,0.044l0.1,0.071l0.087,0.168l0.066,0.081l0.087,0.262l0.052,0.057l0.055,0.148Z M362.863,363.132l-0.028,-0.06l-0.035,-0.01l-0.014,0.027l0.021,0.027l0.038,0.024l0.017,-0.007Z M362.527,363.136l0.017,-0.024l-0.045,-0.007l-0.038,0.017l0.01,0.02l0.055,-0.007Z M362.527,362.914l0.031,-0.01l-0.007,-0.02h-0.038l-0.021,0.027l0.035,0.003Z M362.659,362.911l0.031,-0.003l0.01,-0.024h-0.042l-0.024,0.02l0.024,0.007Z M364.999,360.13l0.021,0.035l0.088,-0.04l0.14,0.005l0.062,-0.035l0.109,-0.141l0.088,-0.237l0.005,-0.091l-0.042,-0.151l-0.068,-0.03l-0.171,0.005l-0.088,0.081l-0.047,0.161l0.068,0.121l-0.031,0.086l-0.057,0.141l-0.078,0.091Z M362.993,360.684l0.01,-0.06l0.042,-0.03l0.01,-0.04l-0.042,-0.045h-0.057l-0.026,0.081l0.036,0.096h0.026Z M359.863,357.682l0.104,0.04l0.125,-0.02l0.021,-0.034l-0.118,-0.054l-0.139,-0.027l-0.028,0.027l0.035,0.067Z M355.292,359.757l0.026,0.035h0.062l0.026,-0.04l-0.052,-0.015l-0.062,0.02Z M360.618,357.289l0.042,0.04v0.055l0.031,0.025l0.047,-0.02l0.135,0.06l0.125,0.121l0.042,0.146l-0.042,0.091l0.026,0.015l0.068,-0.025l0.104,0.06l0.068,0.146l0.104,0.156l0.083,0.217l0.161,0.181l0.036,0.106l0.088,0.086h0.057l0.062,0.04l0.099,0.196l-0.026,0.116l-0.078,0.05l-0.099,0.01l-0.104,0.05l-0.073,0.086l-0.073,0.04l-0.016,0.06l0.088,0.05l0.13,0.005l0.104,-0.126l0.057,-0.005l0.026,0.04l0.047,0.01l0.099,-0.035l0.146,-0.015l0.094,0.05l0.047,-0.01l-0.005,-0.05l-0.161,-0.297l-0.052,-0.04l-0.031,-0.106l-0.156,-0.217l-0.187,-0.111l-0.109,-0.091l-0.229,-0.343l-0.099,-0.237l-0.073,-0.096l-0.057,-0.035l-0.068,-0.131v-0.166l-0.021,-0.055l-0.182,-0.181l-0.125,-0.025l-0.088,0.04l-0.094,0.02l-0.005,0.035l0.036,0.01Z M347.817,354.337l0.028,-0.02l-0.01,-0.027l-0.035,-0.003l-0.007,0.034l0.024,0.017Z M347.519,353.8l0.014,0.017l0.031,0.013l0.031,0.04l0.017,-0.003l-0.035,-0.087l-0.069,-0.071l-0.014,0.02l0.024,0.047v0.024Z M347.46,353.185l0.052,0.024l0.055,0.003l0.055,0.03l0.042,-0.013v-0.027l-0.173,-0.077l-0.035,0.007l0.003,0.054Z M347.654,353.105l0.031,-0.054l-0.021,-0.141l-0.021,-0.03l-0.045,0.003l-0.055,0.06l-0.049,0.084l0.003,0.057h0.017l0.021,-0.067l0.073,-0.091l0.017,0.01l-0.01,0.044l-0.031,0.037l-0.014,0.05l0.035,0.04l0.049,-0.003Z M356.412,354.022l0.024,-0.003l0.052,-0.05l0.104,-0.04l0.08,-0.003l0.035,-0.04l-0.021,-0.007l-0.045,0.024h-0.076l-0.094,0.04l-0.055,0.05l-0.003,0.03Z M356.769,353.823l0.08,0.013l0.062,-0.007l0.017,-0.024l-0.069,-0.024h-0.045l-0.083,0.017l-0.007,0.02l0.045,0.003Z M356.544,354.67l-0.01,0.06l0.042,-0.02l0.099,-0.141l0.052,-0.05l0.047,-0.086l-0.01,-0.04l-0.042,0.02l-0.073,0.116l-0.104,0.141Z M356.773,354.344l0.01,0.013l0.114,-0.091l0.146,-0.054l0.083,-0.003l0.135,0.034h0.173l0.045,0.037l0.042,0.092l0.301,0.207l0.083,0.025h0.057l0.114,0.06l0.192,0.01l0.099,0.04l0.083,0.136l0.068,0.101l0.255,0.247l0.036,0.086l0.13,0.091l0.12,0.025l0.078,0.101l0.031,0.151l-0.021,0.287l-0.088,0.116l-0.104,0.06l-0.057,0.292l0.031,0.111l0.042,0.045l0.021,-0.035v-0.091l0.052,-0.02l0.042,0.03l0.026,0.141l-0.052,0.065l-0.047,0.03l-0.047,-0.02l-0.036,0.02l0.026,0.06l-0.047,0.06l-0.104,0.03l-0.208,-0.076l-0.12,-0.146l-0.047,0.01l-0.005,0.111l0.068,0.111l0.171,0.055l0.166,0.116l0.104,0.247l0.146,0.212l0.052,0.02l0.031,-0.055l-0.083,-0.237l-0.083,-0.101l-0.005,-0.166l0.109,-0.136l0.036,-0.121l0.057,-0.081l-0.005,-0.161l0.021,-0.065l-0.021,-0.071l-0.073,-0.04l-0.005,-0.101l0.073,-0.101l0.088,-0.267l-0.005,-0.171l-0.047,-0.03l-0.01,-0.065l0.036,-0.065l-0.042,-0.101l-0.12,-0.076l-0.197,-0.081l-0.197,-0.161l-0.135,-0.136l-0.125,-0.191l-0.031,-0.081l-0.083,-0.025l-0.073,0.02l-0.135,-0.015l-0.168,-0.086l-0.152,-0.054l-0.111,-0.092l-0.073,-0.079l-0.118,-0.064l-0.055,-0.064l-0.038,-0.071l-0.024,0.007l-0.003,0.04l-0.038,0.003l-0.069,-0.074l-0.031,-0.124l-0.038,-0.02l-0.035,0.01l-0.017,0.047l-0.042,0.003l-0.028,-0.074l0.007,-0.094l0.1,-0.03l0.007,-0.03l-0.059,-0.027l-0.135,0.003l-0.024,0.027l0.028,0.037l0.007,0.084l-0.094,0.154l-0.007,0.047l0.007,0.044l-0.042,0.087l-0.09,0.118Z M357.369,354.052l0.003,-0.06l-0.017,-0.071l-0.024,-0.01l-0.014,0.06l0.035,0.094l0.017,-0.013Z M357.275,353.783l0.059,0.054l0.021,-0.024l-0.038,-0.04l-0.028,-0.007l-0.014,0.017Z M362.149,361.51l0.024,-0.034l-0.01,-0.034l-0.038,0.007l-0.005,0.055l0.029,0.005Z M354.731,355.645l0.063,0.013l0.092,0.003l0.032,-0.017l-0.007,-0.02l-0.032,-0.004l-0.026,0.011l-0.075,-0.011l-0.028,0.009h-0.037l0.017,0.016 Z M353.972,355.971l0.074,0.017l0.038,-0.017l0.05,0.003l0.057,0.02l0.024,0.035l0.042,0.029l0.074,0.002l0.031,-0.022l0.054,-0.003l0.054,-0.015l0.068,0.02l0.042,-0.002l0.147,-0.086l0.059,0.002l0.045,-0.007l0.024,-0.022l0.126,-0.02l0.066,-0.054l-0.003,-0.042l-0.04,-0.045l-0.085,-0.025l-0.066,-0.055l-0.078,-0.01l-0.062,-0.018l-0.109,-0.007l-0.035,0.029l-0.036,0.008l-0.043,-0.024l-0.13,-0.003l-0.208,0.064l-0.036,0.059l-0.159,0.091l-0.016,0.055l0.031,0.044Z M348.635,349.315l0.073,0.01l0.249,0.212l0.026,0.065l0.229,0.217l0.14,0.076l0.094,0.086l0.239,0.081l0.166,-0.02l0.301,-0.186l0.603,-0.237l0.13,-0.01l0.769,-0.136l0.613,-0.086l0.255,0.055l0.161,0.161l0.135,0.232l0.078,0.01l0.042,-0.111l-0.021,-0.207l-0.047,-0.096l-0.151,-0.091l-0.068,-0.101l0.01,-0.136l-0.026,-0.126l-0.062,0.005l-0.057,0.091l-0.114,0.04l-0.161,-0.025l-0.249,0.045l-0.068,0.06l-0.078,0.02l-0.068,-0.04h-0.104l-0.068,0.03l-0.114,0.02l-0.114,-0.06h-0.078l-0.088,0.101l-0.255,0.005l-0.166,-0.05l-0.099,0.015l-0.161,-0.091l-0.223,-0.025l-0.094,0.045l-0.016,0.106l-0.13,0.227l-0.12,0.156l-0.322,0.116l-0.13,-0.035l-0.088,0.03l-0.031,0.06l-0.052,-0.01l-0.182,-0.252l-0.14,-0.141l-0.187,-0.081l-0.062,-0.086l-0.125,-0.06l-0.052,0.025v0.05l0.057,0.045Z M353.908,350.962l0.062,-0.057l0.045,-0.071l-0.021,-0.071l-0.059,-0.054l-0.083,-0.013l-0.017,0.03l0.059,0.087l0.007,0.05l-0.017,0.084l0.024,0.013Z M354.043,351.704l0.031,-0.034l-0.031,-0.074h-0.038l-0.024,0.03l0.014,0.057l0.049,0.02Z M353.869,351.09l0.035,-0.027l-0.007,-0.024l-0.042,0.01l-0.017,0.04h0.031Z M353.942,351.127l0.021,-0.02v-0.024l-0.031,-0.003l-0.014,0.027l0.024,0.02Z M352.501,348.769l0.135,-0.017l0.028,-0.044l-0.038,-0.04l-0.087,0.007l-0.066,0.047l-0.003,0.03l0.031,0.017Z M353.086,348.39l0.107,0.017l0.038,0.04l0.059,0.017l0.052,-0.037l0.114,0.017l0.087,0.077l0.132,0.03l0.18,-0.01l0.104,-0.027v-0.02l-0.1,0.007l-0.031,-0.034v-0.037l-0.035,-0.03l-0.135,0.013l-0.308,-0.04l-0.256,-0.054l-0.118,0.027l0.028,0.04l0.083,0.003Z M355.403,350.015l-0.042,-0.023l0.008,-0.043l-0.008,-0.045l-0.078,-0.043l-0.052,0.023l-0.003,0.045l0.086,0.071l0.023,0.053l-0.054,0.098l-0.002,0.055l-0.031,0.05l0.024,0.024l0.035,0.003l0.007,0.024l-0.12,0.078l-0.042,-0.018l-0.026,0.03l0.055,0.06l0.029,0.078l0.055,0.033l0.094,0.017l0.004,0.026l-0.143,0.021l-0.035,0.054l0.017,0.034l-0.01,0.037l-0.035,0.013l-0.003,0.054l0.062,0.037l0.035,0.06l-0.014,0.074l-0.083,0.064l-0.028,0.091l0.035,0.134l-0.031,0.084l0.031,0.01l0.049,-0.044l0.042,0.003l0.031,0.044l-0.017,0.047l-0.1,0.04l-0.107,0.081l-0.042,0.06l-0.107,0.05l-0.128,0.124l-0.1,0.06l-0.024,0.071l-0.038,0.027l-0.059,0.007l-0.01,-0.04l-0.038,0.003l-0.014,0.091l0.024,0.047l0.125,0.013l0.042,-0.017l0.104,0.034l0.08,0.003l0.076,0.04l0.042,0.124l-0.035,0.06l0.003,0.034l0.066,0.027l0.156,0.238l0.038,0.027l0.076,-0.03l0.031,-0.034l-0.007,-0.071l0.014,-0.101l0.003,-0.144l-0.028,-0.087l-0.003,-0.138l-0.028,-0.138l0.003,-0.074l0.052,-0.118l0.014,-0.104l-0.021,-0.077l-0.003,-0.071l0.024,-0.034l0.003,-0.047l-0.014,-0.05l0.003,-0.104l0.083,-0.175l0.173,-0.168l0.094,-0.05l0.138,-0.035l0.036,0.015l-0.005,0.033l0.021,0.015l0.056,-0.014l0.055,-0.04l0.017,-0.094l-0.031,-0.007l-0.028,0.037l-0.049,0.007l-0.038,-0.057l-0.003,-0.077l0.038,-0.04h0.031l0.007,0.027l0.045,0.007l0.028,-0.024v-0.084l-0.028,-0.003l-0.031,0.027l-0.049,-0.007l-0.08,-0.077l-0.049,-0.168l0.003,-0.124l0.052,-0.081l0.01,-0.04l-0.038,-0.087l0.038,-0.091l-0.028,-0.027l-0.08,0.02l-0.097,-0.04l-0.087,-0.087l-0.069,-0.007l-0.09,-0.047l-0.024,-0.04l-0.042,-0.007l-0.062,0.017l-0.107,-0.013l-0.201,-0.124l-0.094,-0.144l0.003,-0.027l0.042,0.024l0.035,-0.01l0.017,-0.034l-0.066,-0.047l-0.014,-0.044l-0.222,-0.131l-0.059,-0.054l-0.09,-0.141l-0.107,-0.114l-0.423,-0.359l-0.107,-0.05l-0.035,0.024l0.017,0.057l0.031,0.027l0.083,-0.003l0.062,0.034l0.197,0.208l0.094,0.171l0.007,0.262l0.073,0.101l0.066,0.044l0.094,-0.013l0.066,-0.06l0.069,-0.01l0.055,0.047l0.01,0.144l-0.052,0.081l0.017,0.091l0.1,0.091l0.187,0.087l0.166,-0.017l0.118,0.007l0.042,0.044l0.125,0.027l0.042,0.067l-0.038,0.101l-0.063,0.057Z M352.941,353.219l0.042,-0.027l-0.007,-0.094l-0.135,-0.134l-0.09,-0.134l-0.021,-0.077l-0.042,0.007l-0.003,0.131l0.035,0.081l0.097,0.138l0.125,0.111Z M352.723,354.361h0.042l0.059,0.024l0.042,-0.003l0.031,-0.04l0.031,-0.084l-0.028,0.007l-0.028,0.057l-0.049,0.017l-0.17,-0.013l-0.024,0.024l0.031,0.024l0.062,-0.01Z M353.336,354.058v-0.071l0.014,-0.047l-0.007,-0.024l-0.035,0.037l-0.007,0.101l-0.038,0.05l0.024,0.01l0.049,-0.057Z M353.097,354.408l0.09,-0.064l0.003,-0.084l-0.014,-0.037l-0.024,0.027l0.007,0.054l-0.031,0.047l-0.076,0.037l0.007,0.02h0.038Z M352.941,354.441l0.055,-0.024l0.007,-0.024l-0.038,0.003l-0.052,0.037l0.028,0.007Z M353.357,353.739l-0.028,-0.067l-0.003,-0.044l-0.021,-0.037l-0.024,0.024l0.007,0.077l0.059,0.06l0.01,-0.013Z M353.27,353.511l-0.028,-0.084l-0.024,-0.034l-0.007,0.03l0.014,0.064l0.031,0.044l0.014,-0.02Z M355.154,355.642l0.104,0.003l0.086,-0.028l0.101,-0.058l0.036,-0.018l0.13,-0.025l0.039,-0.028l-0.005,-0.01l-0.177,0.04l-0.039,0.015l-0.104,0.06l-0.088,0.025l-0.099,-0.005l-0.008,0.018l0.023,0.01Z M350.457,349.004l0.003,-0.047l-0.028,-0.047l-0.038,0.01v0.057l0.031,0.04l0.031,-0.013Z M349.982,349.159l0.042,-0.007l0.055,-0.047l-0.014,-0.034l-0.045,0.007l-0.062,0.06l0.024,0.02Z M349.986,348.323l0.01,0.034l0.031,0.003l0.014,-0.027l-0.028,-0.027l-0.028,0.017Z M350.225,349.058l-0.01,-0.024l-0.052,-0.044l-0.028,0.003l0.007,0.034l0.066,0.054l0.017,-0.024Z M350.111,348.689l0.014,-0.027l-0.028,-0.027l-0.024,0.02l0.007,0.037l0.031,-0.003Z M350.488,348.763l-0.01,-0.03l-0.028,-0.007l-0.01,0.027l0.024,0.024l0.024,-0.013Z M350.807,346.979l0.045,-0.003l0.003,-0.027l-0.055,-0.007l-0.021,0.024l0.028,0.013Z M351.063,347.117l0.076,0.01l0.038,-0.01l-0.09,-0.054l-0.055,-0.003l-0.007,0.034l0.038,0.024Z M351.479,348.202l0.021,-0.003l0.021,-0.144l0.045,-0.067l0.076,-0.04l0.017,-0.047l-0.028,-0.007l-0.149,0.111l-0.007,0.03l0.01,0.047l-0.007,0.121Z M351.288,347.231l0.055,0.007l0.01,-0.024l-0.066,-0.02l-0.031,0.013l0.031,0.024Z M351.961,347.513l0.021,0.04l0.031,-0.02l-0.017,-0.044l-0.066,-0.017l-0.01,0.017l0.042,0.024Z M352.252,347.695l0.024,-0.03l-0.017,-0.027l-0.055,0.01l0.003,0.044l0.045,0.003Z M350.558,348.969l0.014,-0.031l-0.028,-0.024l-0.044,0.037l-0.004,0.029l0.062,-0.012Z M350.414,348.709l0.028,-0.025l-0.019,-0.018l-0.033,0.003l-0.003,0.037l0.028,0.003Z M350.336,348.675l0.028,-0.017l-0.005,-0.024l-0.033,-0.002l-0.007,0.037l0.017,0.005Z M350.149,348.858l0.017,0.017l0.033,-0.008l-0.005,-0.029l-0.029,-0.005l-0.016,0.025Z M350.149,348.956l0.016,-0.017l-0.014,-0.032l-0.021,0.002l-0.005,0.024l0.024,0.024Z M356.007,350.056l0.016,-0.04l-0.002,-0.039l-0.023,-0.002l-0.016,0.044l0.007,0.042l0.017,-0.005Z M356.057,350.289l-0.009,-0.094v-0.069l0.023,-0.074l-0.017,-0.003l-0.026,0.039l-0.002,0.111l0.017,0.091h0.014Z M356.064,350l0.009,0.01l0.071,-0.101l0.002,-0.035l-0.016,-0.04h-0.029l-0.014,0.052l0.007,0.052l-0.029,0.062Z M356.016,349.673l0.003,-0.017l-0.071,-0.089h-0.017l0.005,0.029l0.064,0.076l0.016,0.002Z M355.737,349.458l0.031,-0.002l-0.005,-0.022l-0.057,-0.035l-0.019,0.01l0.002,0.027l0.049,0.022Z M355.643,349.389l0.009,-0.01l-0.035,-0.037l-0.166,-0.092l-0.031,-0.049l-0.023,-0.007l-0.029,0.015l0.005,0.022l0.035,0.008l0.026,0.037l0.038,0.02l0.029,0.003l0.1,0.067l0.042,0.022Z M354.728,348.889l0.049,0.091l0.042,0.01l0.003,-0.045l-0.052,-0.083h-0.034l-0.008,0.028Z M354.556,348.65l0.086,0.093l0.049,0.015l0.005,-0.043l-0.044,-0.04l-0.078,-0.04l-0.018,0.015Z M353.465,348.051l0.026,0.04l0.073,0.035l0.047,-0.008l-0.018,-0.025l-0.06,-0.013l-0.047,-0.038l-0.021,0.008Z M353.966,348.202l0.036,0.033l0.052,0.008l-0.003,-0.018l-0.07,-0.028l-0.016,0.005Z M354.247,348.416l0.005,-0.038l-0.016,-0.025h-0.042l-0.008,0.023l0.044,0.05l0.016,-0.01Z M355.084,349.152l0.023,0.034l0.045,0.013l0.019,-0.01l-0.069,-0.04l-0.017,0.003Z M354.886,349.013l0.021,0.025l0.023,0.008l-0.01,-0.03l-0.016,-0.01l-0.018,0.008Z M352.621,348.552l0.081,0.025v-0.023l-0.039,-0.045h-0.039l-0.013,0.02l0.01,0.023Z M352.779,348.524v-0.02l-0.039,-0.008l-0.016,0.018l0.023,0.028l0.031,-0.018Z M352.47,348.436l0.294,-0.055l0.062,-0.023l0.096,-0.005l-0.018,-0.018l-0.083,-0.003l-0.101,0.033l-0.244,0.045l-0.016,0.013l0.01,0.013Z M352.873,348.408l0.078,0.038l0.026,-0.01l-0.057,-0.048l-0.036,-0.003l-0.01,0.023Z M354.068,348.658l0.031,-0.003l-0.055,-0.04l-0.021,-0.033l-0.013,-0.033l-0.021,0.008l0.005,0.045l0.073,0.055Z M354.13,348.809l0.042,0.005l0.023,-0.015l-0.062,-0.045l-0.026,0.008l0.005,0.033l0.018,0.015Z M354.699,349.36l0.036,-0.013l-0.003,-0.025l-0.036,-0.008l-0.021,0.028l0.023,0.018Z M354.686,349.428l0.026,-0.028l-0.003,-0.018l-0.031,0.01l-0.01,0.025l0.018,0.01Z M354.798,349.703l-0.021,-0.053l-0.036,-0.043l-0.026,-0.003l-0.008,0.018l0.042,0.033l0.042,0.073l0.008,-0.025Z M354.343,349.456l0.036,-0.005l0.036,-0.045l-0.023,-0.008l-0.047,0.03l-0.003,0.028Z M354.437,349.6l0.01,-0.028l-0.016,-0.045l-0.057,-0.04l-0.013,0.02l0.039,0.081l0.036,0.013Z M355.172,350.625l0.013,-0.055l-0.031,-0.058l-0.062,-0.005l-0.021,0.053l0.049,0.076l0.052,-0.01Z M354.941,350.421l0.026,-0.038l0.065,-0.06l-0.018,-0.025l-0.031,0.003l-0.044,0.068l-0.013,0.045l0.016,0.008Z M355.097,350.272l0.036,-0.083l-0.008,-0.076l-0.057,-0.018l-0.031,0.033l-0.068,-0.003l-0.018,0.028l0.044,0.04l0.005,0.043l0.055,0.055l0.042,-0.02Z M354.998,350.086l0.044,-0.033l-0.008,-0.04l-0.107,-0.033l-0.031,0.033l0.016,0.038l0.086,0.035Z M355.118,349.95l0.018,-0.068l-0.034,-0.025l-0.075,0.018l0.003,0.06l0.047,0.048l0.042,-0.033Z M354.816,349.874l0.023,0.033h0.044l0.023,-0.035l-0.034,-0.015l-0.057,0.018Z M355.25,350.02l0.021,-0.023l-0.042,-0.013l-0.047,-0.045l-0.021,0.013l0.023,0.05l0.065,0.018Z M354.832,350.657l0.052,-0.013l0.044,0.023l0.008,0.06l-0.018,0.035l0.013,0.023l0.029,-0.023l0.005,-0.098l-0.036,-0.055l-0.044,-0.008l-0.07,0.035l0.018,0.02Z M355.027,350.625l0.005,-0.043l-0.023,-0.013l-0.021,0.02l0.016,0.043l0.023,-0.008Z M355.029,350.534l0.026,-0.003l0.021,-0.045l0.044,-0.018l-0.021,-0.028h-0.036l-0.034,0.04v0.053Z M355.089,350.35l0.055,-0.023l0.029,-0.023l-0.039,-0.018l-0.049,0.02l-0.021,0.035l0.026,0.008Z M355.288,349.794l0.01,-0.024l-0.042,-0.008l-0.038,0.024l0.016,0.022l0.054,-0.013Z M355.203,350.173l0.003,-0.067l-0.019,-0.029l-0.031,0.015l0.007,0.062l0.017,0.03l0.023,-0.012Z M354.93,350.548l0.009,-0.03l-0.012,-0.032l-0.024,0.012l0.002,0.049l0.026,0.002Z M354.73,349.916l0.016,-0.012l0.007,-0.034l-0.029,-0.007l-0.024,0.018l0.007,0.03l0.024,0.003Z M355.226,350.284v-0.029l-0.019,-0.02l-0.031,0.007l-0.002,0.02l0.029,0.029l0.023,-0.007Z M354.862,350.487l0.035,-0.025l-0.007,-0.018h-0.026l-0.024,0.024v0.02h0.023Z M354.652,349.604l0.006,-0.028l-0.006,-0.023l-0.029,-0.009l-0.006,0.013l0.018,0.05l0.017,-0.003Z M354.468,349.402l0.008,-0.023l-0.01,-0.048l-0.023,-0.004l-0.008,0.019l0.012,0.052l0.021,0.004Z M352.61,352.738l0.07,-0.005l-0.008,-0.023l-0.078,-0.005l-0.034,0.02l0.049,0.013Z M352.901,353.297l0.018,-0.015l-0.018,-0.028l-0.031,0.015l0.005,0.028h0.026Z M353.034,354.186l0.036,-0.013l0.016,-0.023l-0.036,-0.01l-0.031,0.023l0.016,0.023Z M353.015,354.025h0.042l0.003,-0.033h-0.044l-0.029,0.015l0.029,0.018Z M349.227,349.441v-0.027l-0.028,-0.013l-0.024,0.02l0.017,0.04l0.035,-0.02Z M349.165,349.377l0.031,-0.017l-0.017,-0.037h-0.028l-0.01,0.03l0.024,0.024Z M351.786,354.796l0.029,-0.028l-0.021,-0.081l-0.029,0.003l-0.005,0.065l0.026,0.04Z M351.802,354.856l0.018,0.02l0.044,-0.003l0.01,-0.025l-0.039,-0.043l-0.031,0.018l-0.003,0.033Z M353.816,360.702l0.009,0.09l0.08,0.04l0.01,0.06l-0.052,0.036l-0.023,0.081l0.026,0.013l0.091,-0.089l0.125,-0.334l0.005,-0.196l0.026,-0.071l-0.036,-0.086l-0.036,-0.312l-0.073,-0.388l-0.094,-0.186l-0.068,-0.217l-0.052,-0.03l-0.052,0.04l-0.057,0.176l-0.146,0.163l-0.038,0.111l-0.052,0.111l-0.073,0.074l-0.139,0.034l-0.087,0.071l-0.116,0.193l-0.036,0.055v0.084l0.049,0.057l0.017,0.074l0.059,0.037l0.007,0.057l0.042,0.077l0.107,0.02l0.086,-0.036h0.055l0.033,0.043l-0.045,0.057l-0.057,0.013l-0.037,0.025l-0.062,0.008l-0.016,0.041l0.104,0.037l0.079,0.068l0.07,0.008l0.097,-0.032l0.042,-0.06l0.168,-0.104l0.083,-0.005l0.044,-0.025l0.029,0.018l-0.021,0.063l-0.044,0.003l-0.029,0.035Z M352.667,359.68l0.118,0.007l0.035,-0.034l-0.09,-0.057l-0.132,-0.024l-0.042,0.013v0.037l0.111,0.057Z M352.872,359.479l0.076,0.013l0.104,0.074l-0.003,0.071l0.118,0.067l0.139,0.03l0.042,-0.027l0.049,-0.228l-0.031,-0.03l-0.1,0.017l-0.073,-0.047l0.007,-0.037l0.08,-0.027l0.035,-0.081l0.076,-0.06l0.09,-0.104l0.156,-0.04l0.045,-0.057l-0.007,-0.03l-0.059,-0.003l-0.059,-0.057l-0.052,-0.165l-0.059,-0.01l-0.249,0.101l-0.069,0.064l-0.021,0.091l-0.038,0.047l-0.128,0.054l-0.066,0.06l0.01,0.057l-0.087,0.084v0.128l0.076,0.047Z M350.887,357.417l-0.101,-0.008l-0.18,0.111l-0.007,0.064l0.194,0.158l0.029,-0.015l0.013,-0.045l0.023,0.055l0.014,0.089l0.197,0.128l0.225,0.154l0.184,0.087l0.097,-0.024l0.062,-0.077l0.152,-0.091l0.045,-0.087l-0.017,0.118l-0.118,0.084l-0.076,0.124l0.014,0.097l0.152,0.111l0.097,0.034l0.132,0.171l0.017,0.077l0.055,0.104l0.069,0.003l0.01,-0.111l0.17,-0.094l0.038,-0.064l0.031,-0.003l0.031,0.057l0.069,0.02l0.135,-0.071l0.097,-0.128l0.014,-0.06l-0.059,-0.057l0.028,-0.057l0.125,-0.03l0.076,-0.057l0.163,-0.02l0.107,-0.06l0.066,-0.013l0.069,-0.074l-0.01,-0.134l-0.052,-0.047l-0.042,-0.071l-0.024,-0.232l0.031,-0.118l-0.062,-0.255l-0.076,-0.128l-0.073,-0.037l-0.243,-0.262l-0.177,-0.275l-0.104,-0.255v-0.124l-0.042,-0.071l-0.028,0.01v0.081l-0.035,0.03l-0.069,-0.047l-0.021,-0.074l0.069,-0.208l0.042,-0.067l-0.031,-0.06l-0.121,-0.02l-0.01,-0.084l0.055,-0.074l-0.003,-0.091l-0.118,-0.131l-0.076,0.007l-0.045,0.087l-0.208,0.013l-0.049,-0.06l-0.121,-0.054h-0.173l-0.076,-0.054l-0.021,0.03l0.177,0.349l0.066,0.181l-0.014,0.282l-0.069,0.091l-0.01,0.091l0.017,0.099l-0.109,0.212l-0.156,0.166l-0.005,0.141l0.081,0.071l-0.016,0.025l-0.122,-0.02l-0.021,0.045l0.125,0.116l0.062,0.106l-0.021,0.101l0.052,0.121l0.078,0.02l0.068,0.091l-0.036,0.043l-0.075,-0.01l-0.031,-0.065h-0.039l-0.013,0.055l0.055,0.126l0.01,0.076l-0.101,0.068l-0.07,-0.013l-0.023,-0.184l0.075,-0.139l-0.016,-0.078l-0.057,-0.008l-0.023,0.083l0.015,0.039l-0.02,0.014l-0.036,-0.055l0.008,-0.136l-0.021,-0.025l-0.031,0.071l0.021,0.174l-0.068,0.086l-0.078,-0.005l-0.003,-0.073l0.042,-0.086l-0.052,-0.01l-0.052,0.063l-0.044,-0.015l-0.003,-0.071l-0.047,-0.038Z M351.391,357.684l0.034,-0.003l-0.018,-0.048l-0.042,-0.028l-0.042,0.028l0.018,0.035l0.049,0.015Z M350.399,357.337l-0.018,-0.055l-0.039,-0.013l-0.021,0.038l0.049,0.065l0.029,-0.035Z M350.557,357.417l0.138,-0.063l0.005,-0.043l-0.062,-0.03l-0.122,0.058l-0.005,0.055l0.047,0.023Z M350.984,357.294l-0.031,-0.083l-0.036,-0.035l-0.06,-0.005l-0.018,0.05l0.12,0.088l0.026,-0.015Z M351.316,357.279l0.013,-0.096l-0.042,-0.116l-0.078,-0.073l-0.042,-0.073h-0.042l0.016,0.081l0.104,0.108l-0.01,0.191l0.034,0.033l0.047,-0.055Z M351.178,357.138l0.008,-0.033l-0.026,-0.023l-0.034,0.018l0.013,0.05l0.039,-0.013Z M351.085,357.08l0.042,-0.023l0.003,-0.03l-0.039,-0.008l-0.026,0.043l0.021,0.018Z M350.874,357.365l-0.013,-0.048l-0.042,-0.028l-0.013,0.028l0.031,0.055l0.036,-0.008Z M351.108,357.297l-0.008,-0.033l-0.052,-0.015l-0.029,0.023l0.042,0.035l0.047,-0.01Z M351.168,357.246l0.013,-0.048l-0.034,-0.018l-0.021,0.025l0.01,0.043l0.031,-0.003Z M351.075,357.203l0.021,-0.035l-0.008,-0.03l-0.036,0.01l-0.008,0.05l0.031,0.005Z M351.36,357.367l0.023,-0.01l-0.01,-0.045h-0.042l-0.013,0.038l0.042,0.018Z M351.573,355.23l0.026,-0.029l-0.036,-0.04l-0.036,0.007l0.002,0.06l0.045,0.002Z M353.703,361.057l0.031,-0.015l-0.038,-0.049l-0.031,0.003l-0.012,0.03l0.05,0.03Z M353.688,360.97l0.078,-0.012l0.003,-0.03l-0.064,-0.015l-0.036,-0.082l-0.081,-0.024l-0.033,0.017l0.028,0.077l0.106,0.069Z M353.8,360.891l0.029,-0.02l-0.068,-0.049h-0.038l-0.004,0.036l0.029,0.031l0.052,0.002Z M353.556,361.062l0.035,-0.013l0.016,-0.072l-0.055,-0.052l-0.002,-0.049l-0.036,-0.02l-0.154,-0.01l-0.057,-0.044l-0.029,0.005l-0.054,0.071l-0.068,-0.002l-0.017,0.04l0.066,0.047h0.218l0.087,0.03l0.012,0.042l0.04,0.027Z M353.095,360.897l0.026,-0.022l-0.016,-0.042l-0.047,-0.008l-0.014,0.025l0.05,0.047Z M353.173,360.847l0.031,-0.022l-0.045,-0.071l-0.066,-0.012l-0.01,0.027l0.04,0.044l0.05,0.034Z M353.315,361.198l0.069,-0.034l0.005,-0.072l-0.035,-0.055h-0.036l-0.014,0.077l-0.036,0.013l-0.01,0.032l0.057,0.039Z M353.138,360.669l0.016,-0.025l-0.031,-0.02l-0.065,0.025l0.005,0.023l0.075,-0.003Z M353.048,360.51l0.023,-0.018l-0.024,-0.06l-0.038,-0.015l-0.019,0.032l0.04,0.057l0.019,0.005Z M353.08,360.61l0.071,-0.027v-0.025l-0.118,0.015l-0.017,0.029l0.064,0.008Z M352.922,360.884l0.047,-0.002l-0.009,-0.029l-0.052,-0.01l-0.017,0.024l0.031,0.017Z M352.977,360.716l0.059,0.018l0.019,-0.013l-0.033,-0.034l-0.049,-0.008l-0.01,0.022l0.014,0.015Z M352.988,360.78l0.01,-0.032l-0.028,-0.008l-0.021,0.017l0.002,0.035l0.036,-0.012Z M353.413,361.316l0.029,-0.015l-0.008,-0.02l-0.039,-0.003l-0.021,0.028l0.039,0.01Z M353.021,360.971l0.021,-0.01l-0.018,-0.035l-0.034,-0.01v0.03l0.031,0.025Z M353.491,359.425l0.01,-0.048l-0.099,-0.02l-0.031,0.013v0.048l0.049,0.043l0.07,-0.035Z M353.358,359.304l0.026,0.027h0.049l-0.018,-0.032 l-0.034,-0.01l-0.023,0.015Z M353.475,359.261l0.081,-0.03l0.057,-0.106l-0.002,-0.018l-0.1,0.027l-0.08,0.084l-0.008,0.038l0.052,0.005Z M353.551,359.311l0.036,-0.028l-0.003,-0.033l-0.053,0.013l-0.015,0.04l0.034,0.008Z M352.724,358.647l0.055,0.023l0.091,-0.033l0.026,-0.063l-0.034,-0.04l-0.127,0.03l-0.029,0.05l0.018,0.033Z M352.621,359.48l0.055,0.008l-0.029,-0.083l-0.021,-0.028l-0.034,-0.013v0.073l0.029,0.043Z M352.168,358.989l0.127,0.111l0.057,0.02l0.125,-0.048l0.01,-0.043l-0.075,-0.02l-0.088,0.033l-0.07,-0.053l-0.013,-0.045l0.094,-0.038l0.068,-0.065l-0.016,-0.023l-0.122,0.04l-0.044,0.05l-0.044,0.01l-0.044,-0.033l-0.023,0.008l0.06,0.096Z M352.42,358.919l0.003,0.038l0.055,0.013l0.078,-0.045l-0.008,-0.043l-0.057,-0.028l-0.049,0.023l-0.021,0.043Z M352.355,359.266l0.055,0.058l0.081,0.02l0.114,-0.065l0.138,-0.045l0.06,-0.045l0.021,-0.108l-0.044,-0.083l0.016,-0.03l0.13,0.023l0.062,-0.048l-0.013,-0.048l-0.104,0.003l-0.133,-0.025l-0.086,0.03l0.008,0.035l0.078,0.003l0.01,0.035l-0.047,0.028l-0.016,0.088l-0.023,0.04h-0.047l-0.039,0.023l0.005,0.06l-0.016,0.05l-0.065,0.028l-0.029,-0.03l0.008,-0.02l0.049,-0.046l0.003,-0.068l-0.06,-0.008l-0.023,0.055l-0.029,0.023l-0.083,0.005l-0.026,0.038l0.044,0.025Z M352.545,358.689l0.036,-0.003l0.008,-0.035h-0.031l-0.036,0.018l0.023,0.02Z M352.649,358.747l0.044,-0.033l-0.013,-0.02l-0.055,0.02l-0.026,0.03l0.049,0.003Z M352.997,358.835l0.021,0.025l0.07,-0.02l0.109,-0.076l-0.039,-0.003l-0.117,0.033l-0.044,0.04Z M352.886,359.863l0.055,0.03l0.034,-0.018l-0.049,-0.063l-0.049,-0.008l-0.023,0.025l0.034,0.033Z M352.922,360.019l0.047,0.015l0.031,-0.015l-0.044,-0.04l-0.057,-0.005l-0.018,0.023l0.042,0.023Z M353.065,359.719l-0.01,-0.05l-0.036,-0.025l-0.016,0.025l0.029,0.063l0.034,-0.013Z M352.992,359.034l0.047,-0.015l0.008,-0.033l-0.042,-0.008l-0.034,0.028l0.021,0.028Z M353.005,358.601l0.073,-0.038l-0.005,-0.038l-0.055,0.003l-0.057,0.06l0.044,0.013Z M353.047,358.677l0.042,-0.028l0.016,-0.05l-0.023,-0.013l-0.042,0.025l-0.031,0.048l0.039,0.018Z M353.106,358.707l0.044,-0.008l0.039,-0.05l-0.021,-0.038l-0.036,0.005l-0.039,0.073l0.013,0.018Z M353.372,358.577l0.05,0.017l0.036,-0.022l-0.095,-0.307l-0.021,-0.008l-0.09,0.059l-0.043,0.053l-0.126,0.052l0.005,0.018l0.129,-0.005l-0.002,0.025l-0.099,0.056l0.011,0.019l0.105,-0.006l0.106,0.018l0.035,0.03Z M353.252,358.692l0.052,-0.033v-0.02l-0.044,0.005l-0.029,0.038l0.021,0.01Z M353.005,359.915l0.045,-0.032l0.062,-0.054l-0.003,-0.022l-0.068,0.04l-0.045,0.052l0.009,0.015Z M353.246,358.607l0.081,0.002l0.009,-0.017l-0.089,-0.04l-0.064,0.005l-0.016,0.02l0.078,0.03Z M361.619,362.326h0.076v-0.03l-0.132,-0.024l-0.042,0.02l0.097,0.034Z M361.356,362.246l0.091,-0.003l-0.01,-0.033l-0.13,-0.068l-0.122,-0.03l-0.102,-0.058l-0.069,-0.008l-0.081,0.025l-0.068,0.008l-0.034,-0.018l-0.021,-0.045l-0.075,-0.02l-0.052,0.008l-0.083,-0.053l-0.052,-0.106l-0.086,-0.086l-0.088,-0.015l-0.343,-0.34l-0.182,-0.144l-0.101,-0.081l-0.042,0.01l-0.047,0.038l-0.078,-0.03l-0.034,-0.088l-0.07,-0.068l-0.036,0.015l-0.008,0.091l0.036,0.058l0.068,0.03l0.107,0.088l0.062,0.02l0.052,0.045v0.048l-0.081,0.043l0.013,0.028l0.218,0.048l0.174,0.098l0.125,0.03l0.052,0.048l-0.003,0.043l0.049,0.035l0.101,0.013l0.044,0.038l0.042,0.096l-0.021,0.008l-0.039,-0.02l-0.008,0.018l0.042,0.063l0.065,0.02l0.081,-0.013l0.127,0.023l0.107,0.058l0.083,0.008l0.057,-0.025l0.127,0.055l0.005,0.028l0.068,0.025l0.047,0.003l0.122,0.04Z M360.506,361.724l0.081,0.083l0.12,0.063l0.018,-0.008l-0.049,-0.05l-0.083,-0.043l-0.068,-0.053l-0.018,0.008Z M360.899,362.047l0.042,-0.015l0.005,-0.023l-0.036,-0.01l-0.034,0.035l0.023,0.013Z M360.657,361.923l0.021,-0.018l-0.031,-0.013l-0.026,0.003l0.008,0.025l0.029,0.003Z M359.646,362.135l0.047,-0.008l-0.003,-0.033l-0.036,-0.008l-0.036,0.028l0.029,0.02Z M359.815,362.105l0.031,-0.015l-0.003,-0.025l-0.029,-0.003l-0.021,0.028l0.021,0.015Z M360.322,361.969l0.055,-0.008l0.008,-0.02l-0.036,-0.013l-0.035,0.022l0.009,0.018Z M360.215,361.999l0.026,-0.013l-0.008,-0.02h-0.031l-0.013,0.025l0.026,0.008Z M360.299,362.032l0.008,-0.02l-0.026,-0.035l-0.018,0.015l0.008,0.05l0.029,-0.01Z M359.93,362.064l0.021,-0.02l-0.034,-0.023l-0.026,0.008l0.003,0.035h0.036Z M360.021,362.049l0.031,-0.01l-0.026,-0.025l-0.039,0.01v0.023l0.034,0.003Z M360.148,362.049l0.013,-0.023l-0.031,-0.028l-0.023,0.015l0.013,0.028l0.029,0.008Z M356.644,356.738l0.031,-0.04l0.021,-0.084l-0.024,-0.017l-0.042,0.044l-0.014,0.107l0.028,-0.01Z M356.665,357.111l0.035,-0.081l-0.028,-0.02l-0.042,0.037l-0.003,0.067l0.038,-0.003Z M356.873,358.082l0.003,-0.06l-0.01,-0.097l-0.031,0.01l-0.017,0.05l0.031,0.111l0.024,-0.013Z M356.832,357.846l0.021,-0.06l-0.038,-0.067h-0.049l-0.028,0.087l0.035,0.064l0.059,-0.024Z M356.666,357.599l0.018,-0.086l0.029,-0.05l0.005,-0.05l-0.031,-0.043l-0.023,0.03l-0.018,0.181l0.021,0.018Z M357.027,358.226l-0.01,-0.055l-0.026,-0.018l-0.013,0.025l0.023,0.045l0.026,0.003Z M357.42,358.427l-0.036,-0.063l-0.026,-0.003v0.038l0.049,0.053l0.013,-0.025Z M357.568,358.538l-0.013,-0.053l-0.034,-0.005l-0.01,0.023l0.042,0.055l0.016,-0.02Z M357.625,358.742l0.029,-0.028l-0.016,-0.03l-0.026,0.008l-0.016,0.043l0.029,0.008Z M357.802,358.898l0.018,-0.01l-0.018,-0.043l-0.042,-0.025l-0.01,0.033l0.023,0.038l0.029,0.008Z M357.807,358.997l0.005,-0.038l-0.026,-0.03l-0.023,0.013l0.016,0.063l0.029,-0.008Z M358.03,359.211l0.013,-0.048l-0.026,-0.02l-0.026,0.025l0.005,0.045l0.034,-0.003Z M358.087,359.276l0.008,-0.035l-0.031,-0.03l-0.023,0.036l0.021,0.044l0.026,-0.015Z M357.965,359.085l-0.029,-0.063l-0.044,-0.013v0.035l0.058,0.058l0.015,-0.018Z M358.524,360.027l-0.07,-0.144l-0.068,-0.078l-0.052,-0.081l-0.086,-0.237l-0.039,-0.023l-0.023,0.023l0.007,0.024l-0.007,0.044l0.008,0.038l0.065,0.025l0.049,0.154l0.086,0.091l0.127,0.191l0.003,-0.028Z M357.731,358.76l-0.003,-0.038l-0.023,-0.028l-0.01,0.023l0.013,0.058l0.023,-0.015Z M358.178,359.402l-0.005,-0.035l-0.029,-0.03l-0.01,0.02l0.021,0.05l0.023,-0.005Z M357.906,359.334l0.018,-0.008l0.013,-0.02l-0.029,-0.01l-0.021,0.028l0.018,0.01Z M358.563,360.087l-0.008,0.023l0.042,0.086l0.029,0.003l-0.01,-0.04l-0.052,-0.071Z M359.225,360.865l0.018,-0.015l-0.008,-0.06l-0.039,-0.03l-0.018,0.018l0.021,0.078l0.026,0.01Z M358.719,360.299l-0.003,-0.025l-0.039,-0.023l-0.01,0.018l0.023,0.038l0.029,-0.008Z M358.799,360.417l0.036,0.01l-0.052,-0.073l-0.031,-0.005l-0.005,0.03l0.052,0.038Z M358.862,360.548l0.034,-0.008l0.023,-0.045l-0.049,-0.028l-0.039,0.025l-0.005,0.025l0.036,0.03Z M359.07,360.699h0.029l0.013,-0.033l-0.023,-0.02l-0.031,0.005l-0.008,0.033l0.021,0.015Z M359.028,360.626l-0.003,-0.028l-0.052,-0.04l-0.008,0.023l0.036,0.05l0.026,-0.005Z M359.584,361.329l-0.021,-0.04l-0.057,-0.028l-0.008,0.023l0.039,0.055l0.047,-0.01Z M359.41,360.881l-0.078,-0.093l-0.031,-0.01l-0.026,0.005l0.008,0.028l0.12,0.086l0.008,-0.015Z M359.098,361.037l-0.026,-0.038l-0.055,-0.018l-0.003,0.023l0.055,0.048l0.029,-0.015Z M359.163,361.105l0.018,-0.015l-0.047,-0.033l-0.021,0.013l0.008,0.02l0.042,0.015Z M359.553,360.991l0.013,-0.018l-0.036,-0.028l-0.018,0.008l0.016,0.033l0.026,0.005Z M359.459,360.936h0.023l-0.01,-0.03l-0.026,-0.008l-0.016,0.018l0.029,0.02Z M359.335,361.148l0.036,-0.005l-0.021,-0.025l-0.052,0.003l-0.016,0.02l0.052,0.008Z M359.566,361.412l0.026,-0.01l0.003,-0.018l-0.031,-0.008l-0.013,0.023l0.016,0.013Z M352.91,358.37l0.035,-0.024l-0.007,-0.027l-0.042,0.007l-0.021,0.037l0.035,0.007Z M352.653,358.666l0.035,-0.027l-0.014,-0.027l-0.038,0.007l-0.021,0.03l0.038,0.017Z M352.747,358.83l0.045,-0.01l0.007,-0.034l-0.035,-0.013l-0.042,0.037l0.024,0.02Z M353.111,359.761l0.045,-0.007v-0.027l-0.062,-0.003l-0.01,0.02l0.028,0.017Z M352.972,359.808l0.059,0.003l0.024,-0.027l-0.083,-0.03l-0.014,0.024l0.014,0.03Z "/>
</svg>
