<svg xmlns="http://www.w3.org/2000/svg" viewBox="347.456 346.942 24.345 25.039">
  <path d="M370.577614,369.929662l-0.020787,-0.110862l-0.076218,-0.131649l0.027716,-0.090076l0.194009,-0.083147l0.069289,-0.097004l0.069289,0.013858l0.131649,0.103933l0.117791,0.055431v0.103933l-0.103933,0.069289l-0.228653,0.083147l-0.145507,0.103933l-0.034644,-0.020787Z M368.339581,371.980614l0.06236,-0.006929l0.090076,-0.110862l0.263298,-0.006929l0.159365,0.076218l0.415734,-0.034644l0.159365,-0.103933l0.214796,-0.013858l0.159365,0.034644l0.270227,-0.055431l0.06236,-0.027716l0.06236,-0.152436l0.06236,-0.058896l0.138578,-0.287549l0.145507,-0.12472l0.117791,-0.242511l0.034644,-0.422662l-0.034644,-0.110862l-0.103933,-0.020787l-0.097004,0.090076l-0.110862,0.214796l-0.069289,0.090076l-0.083147,0.18708l-0.145507,0.103933l-0.152436,0.034644l-0.12472,0.069289l-0.18708,-0.020787l-0.180151,-0.131649l-0.110862,-0.242511l-0.055431,0.006929l-0.055431,0.117791l-0.103933,0.048502l-0.228653,0.020787l-0.083147,0.055431l-0.103933,0.152436l-0.277156,0.131649l-0.076218,-0.006929l-0.06236,-0.027716v0.034644l0.055431,0.090076v0.131649l-0.069289,0.055431l-0.097004,0.020787l-0.020787,0.055431l0.076218,0.117791l0.006929,0.159365l0.076218,0.110862Z M363.798545,361.241581l0.103933,0.013433l0.131649,0.060447l0.097004,-0.026865l0.034644,-0.181341l-0.06236,-0.067163l-0.12472,-0.006716l-0.3118,0.080596l-0.097004,0.087312l0.027716,0.060447l0.200938,-0.020149Z M367.761872,363.478117l0.128185,0.057089l0.190545,0.020149l0.10913,-0.060447l0.143775,-0.006716l-0.020787,-0.03694l-0.142042,-0.033582l-0.09354,0.016791l-0.121256,-0.016791l-0.18708,0.030223l-0.006929,0.030223Z M370.190449,366.265392l0.041573,0.060447l0.12472,-0.020149l0.12472,0.050372l0.088343,0.065484h0.057163l0.150703,-0.14608h0.088343l0.04677,0.035261l0.051967,0.010074l0.077898,-0.03862l0.161149,0.018471l0.114327,0.050372l0.244243,0.246825h0.09354l0.14031,-0.110819l0.005197,-0.09067l-0.06236,-0.063805l-0.117791,-0.020149l-0.159365,-0.107461l-0.388018,-0.080596l-0.09354,0.020149l-0.176687,-0.050372l-0.1559,-0.09067h-0.197473l-0.098737,-0.065484l-0.03118,0.010074l-0.025983,0.156155l-0.103933,0.161192Z M365.684936,365.580326l0.04677,0.010074l0.07795,-0.125931l0.098737,-0.080596l0.114327,-0.141043l0.025983,-0.120894l-0.041573,0.020149l-0.051967,0.105782l-0.083147,0.065484l-0.129917,0.075559l-0.057163,0.095708v0.095708Z M366.259168,364.98845v0.037779l0.023385,0.007556l0.005197,-0.035261l0.020787,-0.012593l0.01559,0.042817l0.028582,0.022668l0.049368,-0.002519l0.041573,0.022668l0.002598,0.040298l0.033778,0.01763l0.07795,-0.047854l0.111728,-0.047854l0.025983,0.015112l0.007795,0.088152l0.054565,0.002519l0.148105,-0.098226l0.057163,-0.09067l0.103933,-0.030223l-0.018188,-0.01763l-0.101335,-0.010914l-0.051967,-0.016791l-0.072753,-0.050372l-0.12472,-0.005037l-0.088343,0.040298l-0.06236,-0.015112l-0.036377,-0.060447l-0.057163,-0.015112h-0.06236l-0.072753,-0.080596l-0.041573,-0.100745l-0.14031,-0.070521l-0.07795,-0.010074l-0.072753,-0.050372l-0.129917,-0.010074l-0.051967,0.040298l0.057163,0.171266l0.051967,0.070521l0.103933,0.05541l0.03118,0.100745l-0.025983,0.115857l0.01559,0.030223l0.049368,-0.005037l0.070155,-0.05541l0.064958,-0.015112l0.036377,0.032742Z M368.480744,365.459433l0.018188,0.01763l0.085745,-0.062966l0.010393,-0.075559l-0.051967,-0.005037l-0.057163,0.050372l-0.005197,0.075559Z M368.750971,365.338539l0.119523,0.012593l0.04677,0.022668l0.10913,0.050372l0.04677,0.005037l-0.025983,-0.05541l-0.145507,-0.052891l-0.145507,0.005037l-0.005197,0.012593Z M365.94477,367.227505l0.041573,-0.015112v-0.030223l-0.07795,-0.005037l-0.025983,0.035261l0.06236,0.015112Z M366.02272,367.041127l0.020787,0.015112l0.083147,-0.095708l0.07795,-0.040298l0.129917,-0.010074l0.1559,-0.115857l0.06236,-0.166229l0.057163,-0.045335l0.441717,-0.115857l0.09354,-0.070521l0.072753,-0.115857l0.03118,-0.095708l0.098737,-0.186378l0.09354,-0.045335l0.14031,-0.166229l0.067557,-0.161192l-0.057163,-0.282086l-0.006929,-0.199811l-0.041573,-0.080596l0.017322,-0.053731l0.076218,-0.047014l0.041573,-0.09067l-0.045038,-0.033582l-0.162829,0.057089l-0.058896,0.050372l-0.076218,0.003358l-0.038109,-0.057089h-0.038109l-0.038109,0.083954l-0.086611,0.032742h-0.080548l-0.036377,0.042817l0.041573,0.060447l-0.004331,0.052052l-0.110862,0.083954l0.003464,0.067163l0.076218,0.07388l0.138578,0.033582l0.138578,-0.040298l0.083147,0.013433l0.107398,0.114178l0.058896,0.137685l-0.017322,0.09067l-0.09354,0.124252l-0.110862,0.043656l-0.214796,0.03694l-0.024251,0.040298l0.010393,0.057089l-0.041573,0.080596l-0.086611,0.040298l-0.190545,0.016791l-0.03118,0.053731l0.038109,0.053731l-0.020787,0.083954l-0.107398,0.053731l-0.110862,0.006716l-0.12472,0.067163l-0.034644,0.047014l0.013858,0.03694l0.041573,0.010074v0.040298l-0.065824,0.053731l-0.006929,0.030223l0.034644,0.023507l-0.020787,0.053731l-0.079682,0.043656h-0.079682l-0.055431,-0.033582l-0.06236,0.006716l-0.072753,0.047014v0.03694l0.017322,0.047014l-0.03118,0.100745Z M360.42071,366.362778l0.013858,-0.040298l-0.034644,-0.030223l-0.024251,-0.047014l-0.017322,-0.077238l-0.027716,0.016791l0.013858,0.107461l0.045038,0.067163l0.03118,0.003358Z M360.298588,366.063902l0.018188,-0.033582l-0.010393,-0.124252l-0.027716,-0.057089l-0.019054,0.031063l0.01559,0.042817l0.023385,0.141043Z M360.188592,364.310941l0.017322,-0.033582l-0.010393,-0.03694l-0.045038,0.020149l0.003464,0.060447l0.034644,-0.010074Z M366.3657,365.180705l0.03118,-0.006716l0.013858,-0.023507l-0.03118,-0.013433l-0.038109,0.023507l0.024251,0.020149Z M365.146215,367.366869l0.03118,-0.010074l0.003464,-0.026865l-0.034644,-0.006716l-0.024251,0.030223l0.024251,0.013433Z M366.026184,365.70122l0.024251,-0.020149l-0.006929,-0.026865l-0.045038,0.003358l-0.003464,0.033582l0.03118,0.010074Z M366.143975,365.798607l0.027716,0.03694l0.034644,-0.006716l-0.020787,-0.043656l-0.03118,-0.016791l-0.010393,0.030223Z M366.264365,365.955601l-0.012992,0.030223l0.018188,0.020149l0.028582,-0.01763l-0.005197,-0.027705l-0.028582,-0.005037Z M360.807862,367.114167l0.028582,-0.01763l-0.057163,-0.065484l-0.036377,0.022668l0.002598,0.042817l0.06236,0.01763Z M360.659757,367.029374l0.048502,0.001679l0.034644,-0.015112l0.005197,-0.033582l-0.057163,-0.082275l-0.023385,-0.088152l-0.016456,0.005877l0.003464,0.065484l0.003464,0.031903l0.027716,0.050372l-0.010393,0.01763l-0.03118,-0.022668l-0.028582,-0.050372l-0.010393,0.030223l0.025983,0.057928l0.028582,0.031063Z M360.621648,366.795981l0.019054,-0.020149v-0.030223l-0.029448,-0.082275l-0.012126,0.010074l0.001732,0.0722l-0.020787,0.035261l0.008661,0.01847l0.032912,-0.003358Z M360.496928,366.565947l0.039841,-0.005037l0.010393,-0.023507l-0.024251,-0.016791l-0.043306,0.008395l-0.013858,0.01847l0.03118,0.01847Z M360.566217,366.61464l0.019054,0.008395l0.013858,-0.011754l-0.003464,-0.05541l-0.013858,-0.005037l-0.01559,0.028544v0.035261Z M360.562752,366.517254l0.01559,-0.008395l-0.005197,-0.043656l-0.020787,-0.008395l-0.008661,0.016791l0.019054,0.043656Z M368.392401,363.501624l0.041573,-0.006716l0.013858,-0.023507l-0.045038,-0.016791l-0.027716,0.026865l0.017322,0.020149Z M360.664953,363.825687l0.013858,-0.001679l0.057163,-0.097387l0.024251,-0.031903l0.022519,-0.01847l-0.008661,-0.010074l-0.034644,0.01847l-0.072753,0.120894l-0.001732,0.020149Z M363.885156,364.334448l0.055431,0.03694l0.06236,-0.020149l0.027716,-0.077238l-0.076218,-0.194773l-0.010393,-0.080596l0.024251,-0.114178l-0.048502,-0.110819l-0.090076,-0.067163l-0.06236,-0.110819l-0.076218,-0.057089l-0.020787,-0.063805l-0.045038,-0.020149h-0.055431l-0.045038,-0.040298l-0.048502,-0.016791l-0.138578,-0.006716l-0.145507,-0.110819l-0.058896,-0.09067l-0.069289,-0.224997v-0.104103l0.020787,-0.053731l-0.017322,-0.144401l-0.053699,-0.159513l-0.207867,-0.337495l-0.103933,-0.110819l-0.06236,-0.181341l0.005197,-0.09067l-0.036377,-0.085633l-0.223457,-0.221639l-0.020787,-0.060447l0.005197,-0.070521l-0.03118,-0.060447l-0.129917,-0.125931l-0.051967,0.003358l-0.036377,0.052052l0.022519,0.058768l0.027716,0.026865l-0.041573,0.07388l0.010393,0.040298l0.038109,0.003358l0.06236,-0.057089l0.034644,0.016791l-0.019054,0.094029l-0.051967,0.100745l0.01559,0.015112l0.067557,-0.05541l0.051967,-0.010074l0.036377,0.045335l-0.020787,0.045335l0.03118,0.045335l0.06236,0.040298l0.020787,0.095708l-0.020787,0.065484l0.020787,0.050372l0.067557,0.065484l0.020787,0.05541l-0.020787,0.035261l0.020787,0.05541l0.057163,0.020149l0.03118,0.05541l-0.010393,0.043656l0.038109,0.040298l0.154168,0.047014l0.01559,0.023507l-0.03118,0.040298l-0.013858,0.040298l0.013858,0.011754l0.034644,-0.031903l0.041573,0.013433l0.065824,0.117536l-0.017322,0.053731l0.017322,0.070521l0.034644,0.023507l0.010393,0.047014l-0.103933,0.117536l-0.013858,0.070521l0.03118,0.040298l-0.006929,0.030223l-0.045038,0.03694l0.041573,0.087312l0.058896,0.053731l0.072753,0.026865l0.041573,0.060447l0.069289,0.057089l0.03118,0.067163l-0.034644,0.040298l-0.083147,0.006716l-0.072753,-0.043656l-0.12472,-0.120894l-0.162829,-0.107461l-0.013858,-0.047014l-0.065824,-0.050372l-0.034644,0.016791l-0.006929,0.053731l0.065824,0.063805l0.09354,0.03694l0.114327,0.087312l0.107398,0.097387l0.076218,0.040298l0.097004,0.03694l0.128185,0.010074l0.180151,0.043656l0.100469,0.070521l0.086611,0.167908l0.065824,0.080596l0.086611,0.261937l0.051967,0.057089l0.055431,0.147759Z M362.863145,363.132226l-0.027716,-0.060447l-0.034644,-0.010074l-0.013858,0.026865l0.020787,0.026865l0.038109,0.023507l0.017322,-0.006716Z M362.527093,363.135584l0.017322,-0.023507l-0.045038,-0.006716l-0.038109,0.016791l0.010393,0.020149l0.055431,-0.006716Z M362.527093,362.913945l0.03118,-0.010074l-0.006929,-0.020149h-0.038109l-0.020787,0.026865l0.034644,0.003358Z M362.658742,362.910587l0.03118,-0.003358l0.010393,-0.023507h-0.041573l-0.024251,0.020149l0.024251,0.006716Z M364.998976,360.130029l0.020787,0.035261l0.088343,-0.040298l0.14031,0.005037l0.06236,-0.035261l0.10913,-0.141043l0.088343,-0.23675l0.005197,-0.09067l-0.041573,-0.151117l-0.067557,-0.030223l-0.17149,0.005037l-0.088343,0.080596l-0.04677,0.161192l0.067557,0.120894l-0.03118,0.085633l-0.057163,0.141043l-0.07795,0.09067Z M362.993061,360.684126l0.010393,-0.060447l0.041573,-0.030223l0.010393,-0.040298l-0.041573,-0.045335h-0.057163l-0.025983,0.080596l0.036377,0.095708h0.025983Z M359.862934,357.681928l0.103933,0.040298l0.12472,-0.020149l0.020787,-0.033582l-0.117791,-0.053731l-0.138578,-0.026865l-0.027716,0.026865l0.034644,0.067163Z M355.291597,359.757273l0.025983,0.035261h0.06236l0.025983,-0.040298l-0.051967,-0.015112l-0.06236,0.020149Z M360.618183,357.289023l0.041573,0.040298v0.05541l0.03118,0.025186l0.04677,-0.020149l0.135113,0.060447l0.12472,0.120894l0.041573,0.14608l-0.041573,0.09067l0.025983,0.015112l0.067557,-0.025186l0.103933,0.060447l0.067557,0.14608l0.103933,0.156155l0.083147,0.216601l0.161097,0.181341l0.036377,0.105782l0.088343,0.085633h0.057163l0.06236,0.040298l0.098737,0.196453l-0.025983,0.115857l-0.07795,0.050372l-0.098737,0.010074l-0.103933,0.050372l-0.072753,0.085633l-0.072753,0.040298l-0.01559,0.060447l0.088343,0.050372l0.129917,0.005037l0.103933,-0.125931l0.057163,-0.005037l0.025983,0.040298l0.04677,0.010074l0.098737,-0.035261l0.145507,-0.015112l0.09354,0.050372l0.04677,-0.010074l-0.005197,-0.050372l-0.161097,-0.297197l-0.051967,-0.040298l-0.03118,-0.105782l-0.1559,-0.216601l-0.18708,-0.110819l-0.10913,-0.09067l-0.228653,-0.342533l-0.098737,-0.23675l-0.072753,-0.095708l-0.057163,-0.035261l-0.067557,-0.130968v-0.166229l-0.020787,-0.05541l-0.181883,-0.181341l-0.12472,-0.025186l-0.088343,0.040298l-0.09354,0.020149l-0.005197,0.035261l0.036377,0.010074Z M347.817054,354.337198l0.027716,-0.020149l-0.010393,-0.026865l-0.034644,-0.003358l-0.006929,0.033582l0.024251,0.016791Z M347.519112,353.799892l0.013858,0.016791l0.03118,0.013433l0.03118,0.040298l0.017322,-0.003358l-0.034644,-0.087312l-0.069289,-0.070521l-0.013858,0.020149l0.024251,0.047014v0.023507Z M347.460216,353.185349l0.051967,0.023507l0.055431,0.003358l0.055431,0.030223l0.041573,-0.013433v-0.026865l-0.173222,-0.077238l-0.034644,0.006716l0.003464,0.053731Z M347.654225,353.104753l0.03118,-0.053731l-0.020787,-0.141043l-0.020787,-0.030223l-0.045038,0.003358l-0.055431,0.060447l-0.048502,0.083954l0.003464,0.057089h0.017322l0.020787,-0.067163l0.072753,-0.09067l0.017322,0.010074l-0.010393,0.043656l-0.03118,0.03694l-0.013858,0.050372l0.034644,0.040298l0.048502,-0.003358Z M356.412346,354.021531l0.024251,-0.003358l0.051967,-0.050372l0.103933,-0.040298l0.079682,-0.003358l0.034644,-0.040298l-0.020787,-0.006716l-0.045038,0.023507h-0.076218l-0.09354,0.040298l-0.055431,0.050372l-0.003464,0.030223Z M356.769184,353.8234l0.079682,0.013433l0.06236,-0.006716l0.017322,-0.023507l-0.069289,-0.023507h-0.045038l-0.083147,0.016791l-0.006929,0.020149l0.045038,0.003358Z M356.543995,354.669657l-0.010393,0.060447l0.041573,-0.020149l0.098737,-0.141043l0.051967,-0.050372l0.04677,-0.085633l-0.010393,-0.040298l-0.041573,0.020149l-0.072753,0.115857l-0.103933,0.141043Z M356.772648,354.343915l0.010393,0.013433l0.114327,-0.09067l0.145507,-0.053731l0.083147,-0.003358l0.135113,0.033582h0.173222l0.045038,0.03694l0.041573,0.092349l0.301407,0.206527l0.083147,0.025186h0.057163l0.114327,0.060447l0.192277,0.010074l0.098737,0.040298l0.083147,0.136006l0.067557,0.100745l0.254637,0.246825l0.036377,0.085633l0.129917,0.09067l0.119523,0.025186l0.07795,0.100745l0.03118,0.151117l-0.020787,0.287123l-0.088343,0.115857l-0.103933,0.060447l-0.057163,0.29216l0.03118,0.110819l0.041573,0.045335l0.020787,-0.035261v-0.09067l0.051967,-0.020149l0.041573,0.030223l0.025983,0.141043l-0.051967,0.065484l-0.04677,0.030223l-0.04677,-0.020149l-0.036377,0.020149l0.025983,0.060447l-0.04677,0.060447l-0.103933,0.030223l-0.207867,-0.075559l-0.119523,-0.14608l-0.04677,0.010074l-0.005197,0.110819l0.067557,0.110819l0.17149,0.05541l0.166293,0.115857l0.103933,0.246825l0.145507,0.211564l0.051967,0.020149l0.03118,-0.05541l-0.083147,-0.23675l-0.083147,-0.100745l-0.005197,-0.166229l0.10913,-0.136006l0.036377,-0.120894l0.057163,-0.080596l-0.005197,-0.161192l0.020787,-0.065484l-0.020787,-0.070521l-0.072753,-0.040298l-0.005197,-0.100745l0.072753,-0.100745l0.088343,-0.266974l-0.005197,-0.171266l-0.04677,-0.030223l-0.010393,-0.065484l0.036377,-0.065484l-0.041573,-0.100745l-0.119523,-0.075559l-0.197473,-0.080596l-0.197473,-0.161192l-0.135113,-0.136006l-0.12472,-0.191415l-0.03118,-0.080596l-0.083147,-0.025186l-0.072753,0.020149l-0.135113,-0.015112l-0.168026,-0.085633l-0.152436,-0.053731l-0.110862,-0.092349l-0.072753,-0.078917l-0.117791,-0.063805l-0.055431,-0.063805l-0.038109,-0.070521l-0.024251,0.006716l-0.003464,0.040298l-0.038109,0.003358l-0.069289,-0.07388l-0.03118,-0.124252l-0.038109,-0.020149l-0.034644,0.010074l-0.017322,0.047014l-0.041573,0.003358l-0.027716,-0.07388l0.006929,-0.094029l0.100469,-0.030223l0.006929,-0.030223l-0.058896,-0.026865l-0.135113,0.003358l-0.024251,0.026865l0.027716,0.03694l0.006929,0.083954l-0.09354,0.154475l-0.006929,0.047014l0.006929,0.043656l-0.041573,0.087312l-0.090076,0.117536Z M357.368533,354.051755l0.003464,-0.060447l-0.017322,-0.070521l-0.024251,-0.010074l-0.013858,0.060447l0.034644,0.094029l0.017322,-0.013433Z M357.274993,353.783102l0.058896,0.053731l0.020787,-0.023507l-0.038109,-0.040298l-0.027716,-0.006716l-0.013858,0.016791Z M362.149469,361.510234l0.024251,-0.033582l-0.010393,-0.033582l-0.038109,0.006716l-0.005197,0.05541l0.029448,0.005037Z M354.730519,355.645386l0.063497,0.01338l0.092484,0.002676l0.031748,-0.017394l-0.006902,-0.02007l-0.031748,-0.004014l-0.026227,0.010704l-0.07454,-0.010704l-0.027607,0.009366l-0.03727,-0.001338l0.016564,0.017394Z M353.971643,355.970945l0.074486,0.016791l0.038109,-0.016791l0.050234,0.003358l0.057163,0.020149l0.024251,0.035261l0.041573,0.028544l0.074486,0.001679l0.03118,-0.021828l0.053699,-0.003358l0.053699,-0.015112l0.067557,0.020149l0.041573,-0.001679l0.147239,-0.085633l0.058896,0.001679l0.045038,-0.006716l0.024251,-0.021828l0.126452,-0.020149l0.065824,-0.053731l-0.003464,-0.041977l-0.039841,-0.045335l-0.084879,-0.025186l-0.065824,-0.05541l-0.07795,-0.010074l-0.06236,-0.01847l-0.10913,-0.006716l-0.034644,0.028544l-0.036377,0.008395l-0.043306,-0.023507l-0.129917,-0.003358l-0.207867,0.063805l-0.036377,0.058768l-0.159365,0.09067l-0.01559,0.05541l0.03118,0.043656Z M348.634664,349.315066l0.072753,0.010074l0.24944,0.211564l0.025983,0.065484l0.228653,0.216601l0.14031,0.075559l0.09354,0.085633l0.239047,0.080596l0.166293,-0.020149l0.301407,-0.186378l0.602814,-0.23675l0.129917,-0.010074l0.769107,-0.136006l0.613207,-0.085633l0.254637,0.05541l0.161097,0.161192l0.135113,0.231713l0.07795,0.010074l0.041573,-0.110819l-0.020787,-0.206527l-0.04677,-0.095708l-0.150703,-0.09067l-0.067557,-0.100745l0.010393,-0.136006l-0.025983,-0.125931l-0.06236,0.005037l-0.057163,0.09067l-0.114327,0.040298l-0.161097,-0.025186l-0.24944,0.045335l-0.067557,0.060447l-0.07795,0.020149l-0.067557,-0.040298h-0.103933l-0.067557,0.030223l-0.114327,0.020149l-0.114327,-0.060447h-0.07795l-0.088343,0.100745l-0.254637,0.005037l-0.166293,-0.050372l-0.098737,0.015112l-0.161097,-0.09067l-0.223457,-0.025186l-0.09354,0.045335l-0.01559,0.105782l-0.129917,0.226676l-0.119523,0.156155l-0.322194,0.115857l-0.129917,-0.035261l-0.088343,0.030223l-0.03118,0.060447l-0.051967,-0.010074l-0.181883,-0.251862l-0.14031,-0.141043l-0.18708,-0.080596l-0.06236,-0.085633l-0.12472,-0.060447l-0.051967,0.025186v0.050372l0.057163,0.045335Z M353.907551,350.962245l0.06236,-0.057089l0.045038,-0.070521l-0.020787,-0.070521l-0.058896,-0.053731l-0.083147,-0.013433l-0.017322,0.030223l0.058896,0.087312l0.006929,0.050372l-0.017322,0.083954l0.024251,0.013433Z M354.042664,351.704399l0.03118,-0.033582l-0.03118,-0.07388h-0.038109l-0.024251,0.030223l0.013858,0.057089l0.048502,0.020149Z M353.869442,351.089855l0.034644,-0.026865l-0.006929,-0.023507l-0.041573,0.010074l-0.017322,0.040298h0.03118Z M353.942195,351.126795l0.020787,-0.020149v-0.023507l-0.03118,-0.003358l-0.013858,0.026865l0.024251,0.020149Z M352.500986,348.769365l0.135113,-0.016791l0.027716,-0.043656l-0.038109,-0.040298l-0.086611,0.006716l-0.065824,0.047014l-0.003464,0.030223l0.03118,0.016791Z M353.086477,348.389893l0.107398,0.016791l0.038109,0.040298l0.058896,0.016791l0.051967,-0.03694l0.114327,0.016791l0.086611,0.077238l0.131649,0.030223l0.180151,-0.010074l0.103933,-0.026865v-0.020149l-0.100469,0.006716l-0.03118,-0.033582v-0.03694l-0.034644,-0.030223l-0.135113,0.013433l-0.308336,-0.040298l-0.256369,-0.053731l-0.117791,0.026865l0.027716,0.040298l0.083147,0.003358Z M355.403326,350.015243l-0.041573,-0.022668l0.007795,-0.042817l-0.007795,-0.045335l-0.07795,-0.042817l-0.051967,0.022668l-0.002598,0.045335l0.085745,0.070521l0.023385,0.052891l-0.053699,0.098226l-0.001732,0.05541l-0.03118,0.050372l0.024251,0.023507l0.034644,0.003358l0.006929,0.023507l-0.119523,0.078077l-0.041573,-0.01763l-0.025983,0.030223l0.054565,0.060447l0.028582,0.078077l0.054565,0.032742l0.094406,0.016791l0.004331,0.026026l-0.142908,0.020989l-0.034644,0.053731l0.017322,0.033582l-0.010393,0.03694l-0.034644,0.013433l-0.003464,0.053731l0.06236,0.03694l0.034644,0.060447l-0.013858,0.07388l-0.083147,0.063805l-0.027716,0.09067l0.034644,0.134326l-0.03118,0.083954l0.03118,0.010074l0.048502,-0.043656l0.041573,0.003358l0.03118,0.043656l-0.017322,0.047014l-0.100469,0.040298l-0.107398,0.080596l-0.041573,0.060447l-0.107398,0.050372l-0.128185,0.124252l-0.100469,0.060447l-0.024251,0.070521l-0.038109,0.026865l-0.058896,0.006716l-0.010393,-0.040298l-0.038109,0.003358l-0.013858,0.09067l0.024251,0.047014l0.12472,0.013433l0.041573,-0.016791l0.103933,0.033582l0.079682,0.003358l0.076218,0.040298l0.041573,0.124252l-0.034644,0.060447l0.003464,0.033582l0.065824,0.026865l0.1559,0.23843l0.038109,0.026865l0.076218,-0.030223l0.03118,-0.033582l-0.006929,-0.070521l0.013858,-0.100745l0.003464,-0.144401l-0.027716,-0.087312l-0.003464,-0.137685l-0.027716,-0.137685l0.003464,-0.07388l0.051967,-0.117536l0.013858,-0.104103l-0.020787,-0.077238l-0.003464,-0.070521l0.024251,-0.033582l0.003464,-0.047014l-0.013858,-0.050372l0.003464,-0.104103l0.083147,-0.174624l0.173222,-0.167908l0.09354,-0.050372l0.137712,-0.035261l0.036377,0.015112l-0.005197,0.032742l0.020787,0.015112l0.056297,-0.014272l0.055431,-0.040298l0.017322,-0.094029l-0.03118,-0.006716l-0.027716,0.03694l-0.048502,0.006716l-0.038109,-0.057089l-0.003464,-0.077238l0.038109,-0.040298h0.03118l0.006929,0.026865l0.045038,0.006716l0.027716,-0.023507v-0.083954l-0.027716,-0.003358l-0.03118,0.026865l-0.048502,-0.006716l-0.079682,-0.077238l-0.048502,-0.167908l0.003464,-0.124252l0.051967,-0.080596l0.010393,-0.040298l-0.038109,-0.087312l0.038109,-0.09067l-0.027716,-0.026865l-0.079682,0.020149l-0.097004,-0.040298l-0.086611,-0.087312l-0.069289,-0.006716l-0.090076,-0.047014l-0.024251,-0.040298l-0.041573,-0.006716l-0.06236,0.016791l-0.107398,-0.013433l-0.200938,-0.124252l-0.09354,-0.144401l0.003464,-0.026865l0.041573,0.023507l0.034644,-0.010074l0.017322,-0.033582l-0.065824,-0.047014l-0.013858,-0.043656l-0.221725,-0.130968l-0.058896,-0.053731l-0.090076,-0.141043l-0.107398,-0.114178l-0.422662,-0.359323l-0.107398,-0.050372l-0.034644,0.023507l0.017322,0.057089l0.03118,0.026865l0.083147,-0.003358l0.06236,0.033582l0.197473,0.208206l0.09354,0.171266l0.006929,0.261937l0.072753,0.100745l0.065824,0.043656l0.09354,-0.013433l0.065824,-0.060447l0.069289,-0.010074l0.055431,0.047014l0.010393,0.144401l-0.051967,0.080596l0.017322,0.09067l0.100469,0.09067l0.18708,0.087312l0.166293,-0.016791l0.117791,0.006716l0.041573,0.043656l0.12472,0.026865l0.041573,0.067163l-0.038109,0.100745l-0.063226,0.057089Z M352.940971,353.21893l0.041573,-0.026865l-0.006929,-0.094029l-0.135113,-0.134326l-0.090076,-0.134326l-0.020787,-0.077238l-0.041573,0.006716l-0.003464,0.130968l0.034644,0.080596l0.097004,0.137685l0.12472,0.110819Z M352.72271,354.360706h0.041573l0.058896,0.023507l0.041573,-0.003358l0.03118,-0.040298l0.03118,-0.083954l-0.027716,0.006716l-0.027716,0.057089l-0.048502,0.016791l-0.169758,-0.013433l-0.024251,0.023507l0.03118,0.023507l0.06236,-0.010074Z M353.335917,354.058471v-0.070521l0.013858,-0.047014l-0.006929,-0.023507l-0.034644,0.03694l-0.006929,0.100745l-0.038109,0.050372l0.024251,0.010074l0.048502,-0.057089Z M353.096871,354.40772l0.090076,-0.063805l0.003464,-0.083954l-0.013858,-0.03694l-0.024251,0.026865l0.006929,0.053731l-0.03118,0.047014l-0.076218,0.03694l0.006929,0.020149h0.038109Z M352.940971,354.441302l0.055431,-0.023507l0.006929,-0.023507l-0.038109,0.003358l-0.051967,0.03694l0.027716,0.006716Z M353.356704,353.739446l-0.027716,-0.067163l-0.003464,-0.043656l-0.020787,-0.03694l-0.024251,0.023507l0.006929,0.077238l0.058896,0.060447l0.010393,-0.013433Z M353.270093,353.51109l-0.027716,-0.083954l-0.024251,-0.033582l-0.006929,0.030223l0.013858,0.063805l0.03118,0.043656l0.013858,-0.020149Z M355.153886,355.641845l0.103933,0.002519l0.085745,-0.027705l0.101335,-0.057928l0.036377,-0.01763l0.129917,-0.025186l0.038975,-0.027705l-0.005197,-0.010074l-0.176687,0.040298l-0.038975,0.015112l-0.103933,0.060447l-0.088343,0.025186l-0.098737,-0.005037l-0.007795,0.01763l0.023385,0.010074Z M350.456963,349.004436l0.003464,-0.047014l-0.027716,-0.047014l-0.038109,0.010074v0.057089l0.03118,0.040298l0.03118,-0.013433Z M349.982333,349.158912l0.041573,-0.006716l0.055431,-0.047014l-0.013858,-0.033582l-0.045038,0.006716l-0.06236,0.060447l0.024251,0.020149Z M349.985798,348.322729l0.010393,0.033582l0.03118,0.003358l0.013858,-0.026865l-0.027716,-0.026865l-0.027716,0.016791Z M350.224845,349.058167l-0.010393,-0.023507l-0.051967,-0.043656l-0.027716,0.003358l0.006929,0.033582l0.065824,0.053731l0.017322,-0.023507Z M350.110518,348.688769l0.013858,-0.026865l-0.027716,-0.026865l-0.024251,0.020149l0.006929,0.03694l0.03118,-0.003358Z M350.488143,348.762649l-0.010393,-0.030223l-0.027716,-0.006716l-0.010393,0.026865l0.024251,0.023507l0.024251,-0.013433Z M350.806872,346.979464l0.045038,-0.003358l0.003464,-0.026865l-0.055431,-0.006716l-0.020787,0.023507l0.027716,0.013433Z M351.063241,347.117149l0.076218,0.010074l0.038109,-0.010074l-0.090076,-0.053731l-0.055431,-0.003358l-0.006929,0.033582l0.038109,0.023507Z M351.478974,348.201836l0.020787,-0.003358l0.020787,-0.144401l0.045038,-0.067163l0.076218,-0.040298l0.017322,-0.047014l-0.027716,-0.006716l-0.148971,0.110819l-0.006929,0.030223l0.010393,0.047014l-0.006929,0.120894Z M351.28843,347.231327l0.055431,0.006716l0.010393,-0.023507l-0.065824,-0.020149l-0.03118,0.013433l0.03118,0.023507Z M351.960532,347.513412l0.020787,0.040298l0.03118,-0.020149l-0.017322,-0.043656l-0.065824,-0.016791l-0.010393,0.016791l0.041573,0.023507Z M352.251546,347.694753l0.024251,-0.030223l-0.017322,-0.026865l-0.055431,0.010074l0.003464,0.043656l0.045038,0.003358Z M350.557675,348.968677l0.013804,-0.030774l-0.027607,-0.024084l-0.044172,0.037465l-0.004141,0.029436l0.062116,-0.012042Z M350.413657,348.708918l0.027716,-0.025186l-0.019054,-0.01847l-0.032912,0.003358l-0.003464,0.03694l0.027716,0.003358Z M350.335707,348.675337l0.027716,-0.016791l-0.005197,-0.023507l-0.032912,-0.001679l-0.006929,0.03694l0.017322,0.005037Z M350.148627,348.858356l0.017322,0.016791l0.032912,-0.008395l-0.005197,-0.028544l-0.029448,-0.005037l-0.01559,0.025186Z M350.148627,348.955743l0.01559,-0.016791l-0.013858,-0.031903l-0.020787,0.001679l-0.005197,0.023507l0.024251,0.023507Z M356.007005,350.055541l0.01559,-0.040298l-0.001732,-0.038619l-0.022519,-0.001679l-0.01559,0.043656l0.006929,0.041977l0.017322,-0.005037Z M356.05724,350.288934l-0.008661,-0.094029v-0.068842l0.022519,-0.07388l-0.017322,-0.003358l-0.025983,0.038619l-0.001732,0.110819l0.017322,0.09067h0.013858Z M356.064169,350.000132l0.008661,0.010074l0.071021,-0.100745l0.001732,-0.035261l-0.01559,-0.040298h-0.029448l-0.013858,0.052052l0.006929,0.052052l-0.029448,0.062126Z M356.015667,349.672711l0.003464,-0.016791l-0.071021,-0.088991h-0.017322l0.005197,0.028544l0.064092,0.075559l0.01559,0.001679Z M355.736779,349.457788l0.03118,-0.001679l-0.005197,-0.021828l-0.057163,-0.035261l-0.019054,0.010074l0.001732,0.026865l0.048502,0.021828Z M355.643239,349.388946l0.008661,-0.010074l-0.034644,-0.03694l-0.166293,-0.092349l-0.03118,-0.048693l-0.022519,-0.006716l-0.029448,0.015112l0.005197,0.021828l0.034644,0.008395l0.025983,0.03694l0.038109,0.020149l0.029448,0.003358l0.100469,0.067163l0.041573,0.021828Z M354.727759,348.889419l0.049368,0.09067l0.041573,0.010074l0.002598,-0.045335l-0.051967,-0.083115h-0.033778l-0.007795,0.027705Z M354.556269,348.65015l0.085745,0.093189l0.049368,0.015112l0.005197,-0.042817l-0.044172,-0.040298l-0.07795,-0.040298l-0.018188,0.015112Z M353.464968,348.050718l0.025983,0.040298l0.072753,0.035261l0.04677,-0.007556l-0.018188,-0.025186l-0.059762,-0.012593l-0.04677,-0.037779l-0.020787,0.007556Z M353.966447,348.201836l0.036377,0.032742l0.051967,0.007556l-0.002598,-0.01763l-0.070155,-0.027705l-0.01559,0.005037Z M354.247067,348.415918l0.005197,-0.037779l-0.01559,-0.025186h-0.041573l-0.007795,0.022668l0.044172,0.050372l0.01559,-0.010074Z M355.083731,349.152196l0.022519,0.033582l0.045038,0.013433l0.019054,-0.010074l-0.069289,-0.040298l-0.017322,0.003358Z M354.886257,349.012832l0.020787,0.025186l0.023385,0.007556l-0.010393,-0.030223l-0.01559,-0.010074l-0.018188,0.007556Z M352.620509,348.551924l0.080548,0.025186v-0.022668l-0.038975,-0.045335h-0.038975l-0.012992,0.020149l0.010393,0.022668Z M352.779008,348.524219v-0.020149l-0.038975,-0.007556l-0.01559,0.01763l0.023385,0.027705l0.03118,-0.01763Z M352.469806,348.436067l0.293612,-0.05541l0.06236,-0.022668l0.096138,-0.005037l-0.018188,-0.01763l-0.083147,-0.002519l-0.101335,0.032742l-0.244243,0.045335l-0.01559,0.012593l0.010393,0.012593Z M352.872548,348.408363l0.07795,0.037779l0.025983,-0.010074l-0.057163,-0.047854l-0.036377,-0.002519l-0.010393,0.022668Z M354.067782,348.657706l0.03118,-0.002519l-0.054565,-0.040298l-0.020787,-0.032742l-0.012992,-0.032742l-0.020787,0.007556l0.005197,0.045335l0.072753,0.05541Z M354.130142,348.808823l0.041573,0.005037l0.023385,-0.015112l-0.06236,-0.045335l-0.025983,0.007556l0.005197,0.032742l0.018188,0.015112Z M354.699177,349.360402l0.036377,-0.012593l-0.002598,-0.025186l-0.036377,-0.007556l-0.020787,0.027705l0.023385,0.01763Z M354.686185,349.428404l0.025983,-0.027705l-0.002598,-0.01763l-0.03118,0.010074l-0.010393,0.025186l0.018188,0.010074Z M354.797914,349.702934l-0.020787,-0.052891l-0.036377,-0.042817l-0.025983,-0.002519l-0.007795,0.01763l0.041573,0.032742l0.041573,0.07304l0.007795,-0.025186Z M354.343205,349.456109l0.036377,-0.005037l0.036377,-0.045335l-0.023385,-0.007556l-0.04677,0.030223l-0.002598,0.027705Z M354.436745,349.599671l0.010393,-0.027705l-0.01559,-0.045335l-0.057163,-0.040298l-0.012992,0.020149l0.038975,0.080596l0.036377,0.012593Z M355.172074,350.62475l0.012992,-0.05541l-0.03118,-0.057928l-0.06236,-0.005037l-0.020787,0.052891l0.049368,0.075559l0.051967,-0.010074Z M354.940822,350.420741l0.025983,-0.037779l0.064958,-0.060447l-0.018188,-0.025186l-0.03118,0.002519l-0.044172,0.068003l-0.012992,0.045335l0.01559,0.007556Z M355.096722,350.272143l0.036377,-0.083115l-0.007795,-0.075559l-0.057163,-0.01763l-0.03118,0.032742l-0.067557,-0.002519l-0.018188,0.027705l0.044172,0.040298l0.005197,0.042817l0.054565,0.05541l0.041573,-0.020149Z M354.997985,350.085765l0.044172,-0.032742l-0.007795,-0.040298l-0.106532,-0.032742l-0.03118,0.032742l0.01559,0.037779l0.085745,0.035261Z M355.117509,349.949759l0.018188,-0.068003l-0.033778,-0.025186l-0.075352,0.01763l0.002598,0.060447l0.04677,0.047854l0.041573,-0.032742Z M354.816102,349.874201l0.023385,0.032742h0.044172l0.023385,-0.035261l-0.033778,-0.015112l-0.057163,0.01763Z M355.250024,350.020281l0.020787,-0.022668l-0.041573,-0.012593l-0.04677,-0.045335l-0.020787,0.012593l0.023385,0.050372l0.064958,0.01763Z M354.831692,350.657492l0.051967,-0.012593l0.044172,0.022668l0.007795,0.060447l-0.018188,0.035261l0.012992,0.022668l0.028582,-0.022668l0.005197,-0.098226l-0.036377,-0.05541l-0.044172,-0.007556l-0.070155,0.035261l0.018188,0.020149Z M355.026567,350.62475l0.005197,-0.042817l-0.023385,-0.012593l-0.020787,0.020149l0.01559,0.042817l0.023385,-0.007556Z M355.029166,350.534079l0.025983,-0.002519l0.020787,-0.045335l0.044172,-0.01763l-0.020787,-0.027705h-0.036377l-0.033778,0.040298v0.052891Z M355.088927,350.35022l0.054565,-0.022668l0.028582,-0.022668l-0.038975,-0.01763l-0.049368,0.020149l-0.020787,0.035261l0.025983,0.007556Z M355.288133,349.793605l0.010393,-0.023507l-0.041573,-0.008395l-0.038109,0.023507l0.01559,0.021828l0.053699,-0.013433Z M355.203254,350.173077l0.003464,-0.067163l-0.019054,-0.028544l-0.03118,0.015112l0.006929,0.062126l0.017322,0.030223l0.022519,-0.011754Z M354.929563,350.547512l0.008661,-0.030223l-0.012126,-0.031903l-0.024251,0.011754l0.001732,0.048693l0.025983,0.001679Z M354.730357,349.916178l0.01559,-0.011754l0.006929,-0.033582l-0.029448,-0.006716l-0.024251,0.01847l0.006929,0.030223l0.024251,0.003358Z M355.225773,350.283896v-0.028544l-0.019054,-0.020149l-0.03118,0.006716l-0.001732,0.020149l0.029448,0.028544l0.022519,-0.006716Z M354.862006,350.487065l0.034644,-0.025186l-0.006929,-0.01847h-0.025983l-0.024251,0.023507v0.020149h0.022519Z M354.651839,349.604236l0.005521,-0.028098l-0.005521,-0.022746l-0.028988,-0.009366l-0.005521,0.01338l0.017945,0.049507l0.016564,-0.002676Z M354.46825,349.402195l0.008282,-0.022746l-0.009663,-0.048169l-0.023466,-0.004014l-0.008282,0.018732l0.012423,0.052183l0.020705,0.004014Z M352.610116,352.737874l0.070155,-0.005037l-0.007795,-0.022668l-0.07795,-0.005037l-0.033778,0.020149l0.049368,0.012593Z M352.901129,353.297008l0.018188,-0.015112l-0.018188,-0.027705l-0.03118,0.015112l0.005197,0.027705h0.025983Z M353.033644,354.186081l0.036377,-0.012593l0.01559,-0.022668l-0.036377,-0.010074l-0.03118,0.022668l0.01559,0.022668Z M353.015456,354.024889h0.041573l0.002598,-0.032742h-0.044172l-0.028582,0.015112l0.028582,0.01763Z M349.227084,349.440998v-0.026865l-0.027716,-0.013433l-0.024251,0.020149l0.017322,0.040298l0.034644,-0.020149Z M349.164724,349.377192l0.03118,-0.016791l-0.017322,-0.03694h-0.027716l-0.010393,0.030223l0.024251,0.023507Z M351.786444,354.795588l0.028582,-0.027705l-0.020787,-0.080596l-0.028582,0.002519l-0.005197,0.065484l0.025983,0.040298Z M351.802034,354.856035l0.018188,0.020149l0.044172,-0.002519l0.010393,-0.025186l-0.038975,-0.042817l-0.03118,0.01763l-0.002598,0.032742Z M353.815743,360.701756l0.008661,0.089831l0.079682,0.040298l0.010393,0.060447l-0.051967,0.0361l-0.023385,0.080596l0.025983,0.012593l0.090942,-0.088991l0.12472,-0.334137l0.005197,-0.196453l0.025983,-0.070521l-0.036377,-0.085633l-0.036377,-0.312309l-0.072753,-0.387868l-0.09354,-0.186378l-0.067557,-0.216601l-0.051967,-0.030223l-0.051967,0.040298l-0.057163,0.176304l-0.145507,0.162871l-0.038109,0.110819l-0.051967,0.110819l-0.072753,0.07388l-0.138578,0.033582l-0.086611,0.070521l-0.116059,0.193094l-0.036377,0.05541v0.083954l0.048502,0.057089l0.017322,0.07388l0.058896,0.03694l0.006929,0.057089l0.041573,0.077238l0.107398,0.020149l0.085745,-0.0361h0.054565l0.032912,0.042817l-0.045038,0.057089l-0.057436,0.013313l-0.03697,0.025306l-0.06236,0.007556l-0.016456,0.041137l0.103933,0.03694l0.078816,0.068003l0.070155,0.007556l0.097004,-0.031903l0.041573,-0.060447l0.168026,-0.104103l0.083147,-0.005037l0.044172,-0.025186l0.028582,0.01763l-0.020787,0.062966l-0.044172,0.002519l-0.028582,0.035261Z M352.667279,359.680035l0.117791,0.006716l0.034644,-0.033582l-0.090076,-0.057089l-0.131649,-0.023507l-0.041573,0.013433v0.03694l0.110862,0.057089Z M352.871682,359.478545l0.076218,0.013433l0.103933,0.07388l-0.003464,0.070521l0.117791,0.067163l0.138578,0.030223l0.041573,-0.026865l0.048502,-0.228355l-0.03118,-0.030223l-0.100469,0.016791l-0.072753,-0.047014l0.006929,-0.03694l0.079682,-0.026865l0.034644,-0.080596l0.076218,-0.060447l0.090076,-0.104103l0.1559,-0.040298l0.045038,-0.057089l-0.006929,-0.030223l-0.058896,-0.003358l-0.058896,-0.057089l-0.051967,-0.16455l-0.058896,-0.010074l-0.24944,0.100745l-0.069289,0.063805l-0.020787,0.09067l-0.038109,0.047014l-0.128185,0.053731l-0.065824,0.060447l0.010393,0.057089l-0.086611,0.083954v0.12761l0.076218,0.047014Z M350.88742,357.417473l-0.101335,-0.007556l-0.180151,0.110819l-0.006929,0.063805l0.194009,0.157834l0.029448,-0.015112l0.012992,-0.045335l0.023385,0.05541l0.013858,0.088991l0.197473,0.12761l0.225189,0.154475l0.183616,0.087312l0.097004,-0.023507l0.06236,-0.077238l0.152436,-0.09067l0.045038,-0.087312l-0.017322,0.117536l-0.117791,0.083954l-0.076218,0.124252l0.013858,0.097387l0.152436,0.110819l0.097004,0.033582l0.131649,0.171266l0.017322,0.077238l0.055431,0.104103l0.069289,0.003358l0.010393,-0.110819l0.169758,-0.094029l0.038109,-0.063805l0.03118,-0.003358l0.03118,0.057089l0.069289,0.020149l0.135113,-0.070521l0.097004,-0.12761l0.013858,-0.060447l-0.058896,-0.057089l0.027716,-0.057089l0.12472,-0.030223l0.076218,-0.057089l0.162829,-0.020149l0.107398,-0.060447l0.065824,-0.013433l0.069289,-0.07388l-0.010393,-0.134326l-0.051967,-0.047014l-0.041573,-0.070521l-0.024251,-0.231713l0.03118,-0.117536l-0.06236,-0.25522l-0.076218,-0.12761l-0.072753,-0.03694l-0.242511,-0.261937l-0.176687,-0.275369l-0.103933,-0.25522v-0.124252l-0.041573,-0.070521l-0.027716,0.010074v0.080596l-0.034644,0.030223l-0.069289,-0.047014l-0.020787,-0.07388l0.069289,-0.208206l0.041573,-0.067163l-0.03118,-0.060447l-0.121256,-0.020149l-0.010393,-0.083954l0.055431,-0.07388l-0.003464,-0.09067l-0.117791,-0.130968l-0.076218,0.006716l-0.045038,0.087312l-0.207867,0.013433l-0.048502,-0.060447l-0.121256,-0.053731h-0.173222l-0.076218,-0.053731l-0.020787,0.030223l0.176687,0.349249l0.065824,0.181341l-0.013858,0.282086l-0.069289,0.09067l-0.010393,0.09067l0.017322,0.099066l-0.10913,0.211564l-0.1559,0.166229l-0.005197,0.141043l0.080548,0.070521l-0.01559,0.025186l-0.122122,-0.020149l-0.020787,0.045335l0.12472,0.115857l0.06236,0.105782l-0.020787,0.100745l0.051967,0.120894l0.07795,0.020149l0.067557,0.09067l-0.036377,0.042817l-0.075352,-0.010074l-0.03118,-0.065484h-0.038975l-0.012992,0.05541l0.054565,0.125931l0.010393,0.075559l-0.101335,0.068003l-0.070155,-0.012593l-0.023385,-0.183859l0.075352,-0.138524l-0.01559,-0.078077l-0.057163,-0.007556l-0.023385,0.083115l0.014724,0.038619l-0.019921,0.014272l-0.036377,-0.05541l0.007795,-0.136006l-0.020787,-0.025186l-0.03118,0.070521l0.020787,0.173785l-0.067557,0.085633l-0.07795,-0.005037l-0.002598,-0.07304l0.041573,-0.085633l-0.051967,-0.010074l-0.051967,0.062966l-0.044172,-0.015112l-0.002598,-0.070521l-0.04677,-0.037779Z M351.391497,357.684447l0.033778,-0.002519l-0.018188,-0.047854l-0.041573,-0.027705l-0.041573,0.027705l0.018188,0.035261l0.049368,0.015112Z M350.398933,357.336877l-0.018188,-0.05541l-0.038975,-0.012593l-0.020787,0.037779l0.049368,0.065484l0.028582,-0.035261Z M350.557431,357.417473l0.137712,-0.062966l0.005197,-0.042817l-0.06236,-0.030223l-0.122122,0.057928l-0.005197,0.05541l0.04677,0.022668Z M350.983558,357.294061l-0.03118,-0.083115l-0.036377,-0.035261l-0.059762,-0.005037l-0.018188,0.050372l0.119523,0.088152l0.025983,-0.015112Z M351.316145,357.278949l0.012992,-0.095708l-0.041573,-0.115857l-0.07795,-0.07304l-0.041573,-0.07304h-0.041573l0.01559,0.080596l0.103933,0.108301l-0.010393,0.191415l0.033778,0.032742l0.04677,-0.05541Z M351.178433,357.137906l0.007795,-0.032742l-0.025983,-0.022668l-0.033778,0.01763l0.012992,0.050372l0.038975,-0.012593Z M351.084893,357.079978l0.041573,-0.022668l0.002598,-0.030223l-0.038975,-0.007556l-0.025983,0.042817l0.020787,0.01763Z M350.874428,357.364582l-0.012992,-0.047854l-0.041573,-0.027705l-0.012992,0.027705l0.03118,0.05541l0.036377,-0.007556Z M351.108278,357.296579l-0.007795,-0.032742l-0.051967,-0.015112l-0.028582,0.022668l0.041573,0.035261l0.04677,-0.010074Z M351.16804,357.246207l0.012992,-0.047854l-0.033778,-0.01763l-0.020787,0.025186l0.010393,0.042817l0.03118,-0.002519Z M351.0745,357.20339l0.020787,-0.035261l-0.007795,-0.030223l-0.036377,0.010074l-0.007795,0.050372l0.03118,0.005037Z M351.360317,357.367101l0.023385,-0.010074l-0.010393,-0.045335h-0.041573l-0.012992,0.037779l0.041573,0.01763Z M351.572514,355.23047l0.025983,-0.028544l-0.036377,-0.040298l-0.036377,0.006716l0.001732,0.060447l0.045038,0.001679Z M353.703149,361.056882l0.03118,-0.015112l-0.038109,-0.048693l-0.03118,0.003358l-0.012126,0.030223l0.050234,0.030223Z M353.687559,360.969569l0.07795,-0.011754l0.003464,-0.030223l-0.064092,-0.015112l-0.036377,-0.082275l-0.081414,-0.023507l-0.032912,0.016791l0.027716,0.077238l0.105666,0.068842Z M353.800153,360.890653l0.029448,-0.020149l-0.067557,-0.048693h-0.038109l-0.004331,0.0361l0.028582,0.031063l0.051967,0.001679Z M353.55591,361.061919l0.034644,-0.013433l0.01559,-0.0722l-0.055431,-0.052052l-0.001732,-0.048693l-0.036377,-0.020149l-0.154168,-0.010074l-0.057163,-0.043656l-0.029448,0.005037l-0.053699,0.070521l-0.067557,-0.001679l-0.017322,0.040298l0.065824,0.047014h0.21826l0.086611,0.030223l0.012126,0.041977l0.039841,0.026865Z M353.095138,360.897369l0.025983,-0.021828l-0.01559,-0.041977l-0.04677,-0.008395l-0.013858,0.025186l0.050234,0.047014Z M353.173088,360.846996l0.03118,-0.021828l-0.045038,-0.070521l-0.065824,-0.011754l-0.010393,0.026865l0.039841,0.043656l0.050234,0.033582Z M353.315131,361.197924l0.069289,-0.033582l0.005197,-0.0722l-0.034644,-0.05541h-0.036377l-0.013858,0.077238l-0.036377,0.013433l-0.010393,0.031903l0.057163,0.038619Z M353.137578,360.669014l0.01559,-0.025186l-0.03118,-0.020149l-0.064958,0.025186l0.005197,0.022668l0.075352,-0.002519Z M353.048368,360.509501l0.022519,-0.01847l-0.024251,-0.060447l-0.038109,-0.015112l-0.019054,0.031903l0.039841,0.057089l0.019054,0.005037Z M353.079548,360.610246l0.071021,-0.026865v-0.025186l-0.117791,0.015112l-0.017322,0.028544l0.064092,0.008395Z M352.921916,360.883936l0.04677,-0.001679l-0.008661,-0.028544l-0.051967,-0.010074l-0.017322,0.023507l0.03118,0.016791Z M352.977347,360.716028l0.058896,0.01847l0.019054,-0.013433l-0.032912,-0.033582l-0.048502,-0.008395l-0.010393,0.021828l0.013858,0.015112Z M352.987741,360.779833l0.010393,-0.031903l-0.027716,-0.008395l-0.020787,0.016791l0.001732,0.035261l0.036377,-0.011754Z M353.413001,361.3163l0.028582,-0.015112l-0.007795,-0.020149l-0.038975,-0.002519l-0.020787,0.027705l0.038975,0.010074Z M353.020653,360.971248l0.020787,-0.010074l-0.018188,-0.035261l-0.033778,-0.010074v0.030223l0.03118,0.025186Z M353.490951,359.424815l0.010393,-0.047854l-0.098737,-0.020149l-0.03118,0.012593v0.047854l0.049368,0.042817l0.070155,-0.035261Z M353.358436,359.303921l0.025983,0.026865l0.049368,0.00084l-0.018188,-0.032742l-0.033778,-0.010074l-0.023385,0.015112Z M353.475361,359.261104l0.080548,-0.030223l0.057163,-0.105782l-0.001732,-0.01763l-0.100469,0.026865l-0.079682,0.083954l-0.007795,0.037779l0.051967,0.005037Z M353.550713,359.311477l0.036377,-0.027705l-0.002598,-0.032742l-0.052833,0.012593l-0.014724,0.040298l0.033778,0.007556Z M352.724443,358.64656l0.054565,0.022668l0.090942,-0.032742l0.025983,-0.062966l-0.033778,-0.040298l-0.127318,0.030223l-0.028582,0.050372l0.018188,0.032742Z M352.620509,359.480224l0.054565,0.007556l-0.028582,-0.083115l-0.020787,-0.027705l-0.033778,-0.012593v0.07304l0.028582,0.042817Z M352.168399,358.989093l0.127318,0.110819l0.057163,0.020149l0.12472,-0.047854l0.010393,-0.042817l-0.075352,-0.020149l-0.088343,0.032742l-0.070155,-0.052891l-0.012992,-0.045335l0.09354,-0.037779l0.067557,-0.065484l-0.01559,-0.022668l-0.122122,0.040298l-0.044172,0.050372l-0.044172,0.010074l-0.044172,-0.032742l-0.023385,0.007556l0.059762,0.095708Z M352.420437,358.918572l0.002598,0.037779l0.054565,0.012593l0.07795,-0.045335l-0.007795,-0.042817l-0.057163,-0.027705l-0.049368,0.022668l-0.020787,0.042817Z M352.355479,359.266141l0.054565,0.057928l0.080548,0.020149l0.114327,-0.065484l0.137712,-0.045335l0.059762,-0.045335l0.020787,-0.108301l-0.044172,-0.083115l0.01559,-0.030223l0.129917,0.022668l0.06236,-0.047854l-0.012992,-0.047854l-0.103933,0.002519l-0.132515,-0.025186l-0.085745,0.030223l0.007795,0.035261l0.07795,0.002519l0.010393,0.035261l-0.04677,0.027705l-0.01559,0.088152l-0.023385,0.040298h-0.04677l-0.038975,0.022668l0.005197,0.060447l-0.01559,0.050372l-0.064958,0.027705l-0.028582,-0.030223l0.008139,-0.019792l0.049024,-0.045692l0.002598,-0.068003l-0.059762,-0.007556l-0.023385,0.05541l-0.028582,0.022668l-0.083147,0.005037l-0.025983,0.037779l0.044172,0.025186Z M352.545158,358.689377l0.036377,-0.002519l0.007795,-0.035261h-0.03118l-0.036377,0.01763l0.023385,0.020149Z M352.649091,358.747305l0.044172,-0.032742l-0.012992,-0.020149l-0.054565,0.020149l-0.025983,0.030223l0.049368,0.002519Z M352.997268,358.835457l0.020787,0.025186l0.070155,-0.020149l0.10913,-0.075559l-0.038975,-0.002519l-0.116925,0.032742l-0.044172,0.040298Z M352.885539,359.863055l0.054565,0.030223l0.033778,-0.01763l-0.049368,-0.062966l-0.049368,-0.007556l-0.023385,0.025186l0.033778,0.032742Z M352.921916,360.019209l0.04677,0.015112l0.03118,-0.015112l-0.044172,-0.040298l-0.057163,-0.005037l-0.018188,0.022668l0.041573,0.022668Z M353.064824,359.719493l-0.010393,-0.050372l-0.036377,-0.025186l-0.01559,0.025186l0.028582,0.062966l0.033778,-0.012593Z M352.992071,359.034428l0.04677,-0.015112l0.007795,-0.032742l-0.041573,-0.007556l-0.033778,0.027705l0.020787,0.027705Z M353.005063,358.601225l0.072753,-0.037779l-0.005197,-0.037779l-0.054565,0.002519l-0.057163,0.060447l0.044172,0.012593Z M353.046636,358.676784l0.041573,-0.027705l0.01559,-0.050372l-0.023385,-0.012593l-0.041573,0.025186l-0.03118,0.047854l0.038975,0.01763Z M353.106398,358.707007l0.044172,-0.007556l0.038975,-0.050372l-0.020787,-0.037779l-0.036377,0.005037l-0.038975,0.07304l0.012992,0.01763Z M353.37224,358.576984l0.050289,0.016686l0.036377,-0.021828l-0.095272,-0.307272l-0.020787,-0.008395l-0.090076,0.058768l-0.043414,0.053311l-0.126344,0.052471l0.004872,0.018444l0.128509,-0.005011l-0.001732,0.025186l-0.09917,0.056092l0.011043,0.018732l0.105449,-0.005982l0.105666,0.01847l0.03459,0.030328Z M353.251905,358.691896l0.051967,-0.032742v-0.020149l-0.044172,0.005037l-0.028582,0.037779l0.020787,0.010074Z M353.005063,359.915106l0.045038,-0.031903l0.06236,-0.053731l-0.003464,-0.021828l-0.067557,0.040298l-0.045038,0.052052l0.008661,0.015112Z M353.245842,358.607102l0.081414,0.001679l0.009094,-0.017079l-0.088776,-0.040009l-0.064092,0.005037l-0.01559,0.020149l0.07795,0.030223Z M361.619408,362.326267h0.076218v-0.030223l-0.131649,-0.023507l-0.041573,0.020149l0.097004,0.033582Z M361.356111,362.245671l0.090942,-0.002519l-0.010393,-0.032742l-0.129917,-0.068003l-0.122122,-0.030223l-0.102201,-0.057928l-0.069289,-0.007556l-0.080548,0.025186l-0.067557,0.007556l-0.033778,-0.01763l-0.020787,-0.045335l-0.075352,-0.020149l-0.051967,0.007556l-0.083147,-0.052891l-0.051967,-0.105782l-0.085745,-0.085633l-0.088343,-0.015112l-0.34298,-0.340014l-0.181883,-0.143561l-0.101335,-0.080596l-0.041573,0.010074l-0.04677,0.037779l-0.07795,-0.030223l-0.033778,-0.088152l-0.070155,-0.068003l-0.036377,0.015112l-0.007795,0.09067l0.036377,0.057928l0.067557,0.030223l0.106532,0.088152l0.06236,0.020149l0.051967,0.045335v0.047854l-0.080548,0.042817l0.012992,0.027705l0.21826,0.047854l0.174088,0.098226l0.12472,0.030223l0.051967,0.047854l-0.002598,0.042817l0.049368,0.035261l0.101335,0.012593l0.044172,0.037779l0.041573,0.095708l-0.020787,0.007556l-0.038975,-0.020149l-0.007795,0.01763l0.041573,0.062966l0.064958,0.020149l0.080548,-0.012593l0.127318,0.022668l0.106532,0.057928l0.083147,0.007556l0.057163,-0.025186l0.127318,0.05541l0.005197,0.027705l0.067557,0.025186l0.04677,0.002519l0.122122,0.040298Z M360.506455,361.724316l0.080548,0.083115l0.119523,0.062966l0.018188,-0.007556l-0.049368,-0.050372l-0.083147,-0.042817l-0.067557,-0.052891l-0.018188,0.007556Z M360.898804,362.0467l0.041573,-0.015112l0.005197,-0.022668l-0.036377,-0.010074l-0.033778,0.035261l0.023385,0.012593Z M360.657158,361.923288l0.020787,-0.01763l-0.03118,-0.012593l-0.025983,0.002519l0.007795,0.025186l0.028582,0.002519Z M359.646406,362.134852l0.04677,-0.007556l-0.002598,-0.032742l-0.036377,-0.007556l-0.036377,0.027705l0.028582,0.020149Z M359.815298,362.104628l0.03118,-0.015112l-0.002598,-0.025186l-0.028582,-0.002519l-0.020787,0.027705l0.020787,0.015112Z M360.321973,361.968623l0.054565,-0.007556l0.007795,-0.020149l-0.036377,-0.012593l-0.034644,0.021828l0.008661,0.01847Z M360.215442,361.998846l0.025983,-0.012593l-0.007795,-0.020149h-0.03118l-0.012992,0.025186l0.025983,0.007556Z M360.298588,362.031588l0.007795,-0.020149l-0.025983,-0.035261l-0.018188,0.015112l0.007795,0.050372l0.028582,-0.010074Z M359.929625,362.06433l0.020787,-0.020149l-0.033778,-0.022668l-0.025983,0.007556l0.002598,0.035261h0.036377Z M360.020566,362.049219l0.03118,-0.010074l-0.025983,-0.025186l-0.038975,0.010074v0.022668l0.033778,0.002519Z M360.147885,362.049219l0.012992,-0.022668l-0.03118,-0.027705l-0.023385,0.015112l0.012992,0.027705l0.028582,0.007556Z M356.644464,356.738285l0.03118,-0.040298l0.020787,-0.083954l-0.024251,-0.016791l-0.041573,0.043656l-0.013858,0.107461l0.027716,-0.010074Z M356.66525,357.111041l0.034644,-0.080596l-0.027716,-0.020149l-0.041573,0.03694l-0.003464,0.067163l0.038109,-0.003358Z M356.873117,358.08155l0.003464,-0.060447l-0.010393,-0.097387l-0.03118,0.010074l-0.017322,0.050372l0.03118,0.110819l0.024251,-0.013433Z M356.831544,357.846478l0.020787,-0.060447l-0.038109,-0.067163h-0.048502l-0.027716,0.087312l0.034644,0.063805l0.058896,-0.023507Z M356.666116,357.598814l0.018188,-0.085633l0.028582,-0.050372l0.005197,-0.050372l-0.03118,-0.042817l-0.023385,0.030223l-0.018188,0.181341l0.020787,0.01763Z M357.027285,358.225951l-0.010393,-0.05541l-0.025983,-0.01763l-0.012992,0.025186l0.023385,0.045335l0.025983,0.002519Z M357.419633,358.42744l-0.036377,-0.062966l-0.025983,-0.002519v0.037779l0.049368,0.052891l0.012992,-0.025186Z M357.567739,358.53826l-0.012992,-0.052891l-0.033778,-0.005037l-0.010393,0.022668l0.041573,0.05541l0.01559,-0.020149Z M357.624902,358.742268l0.028582,-0.027705l-0.01559,-0.030223l-0.025983,0.007556l-0.01559,0.042817l0.028582,0.007556Z M357.801589,358.898423l0.018188,-0.010074l-0.018188,-0.042817l-0.041573,-0.025186l-0.010393,0.032742l0.023385,0.037779l0.028582,0.007556Z M357.806785,358.996649l0.005197,-0.037779l-0.025983,-0.030223l-0.023385,0.012593l0.01559,0.062966l0.028582,-0.007556Z M358.030242,359.210732l0.012992,-0.047854l-0.025983,-0.020149l-0.025983,0.025186l0.005197,0.045335l0.033778,-0.002519Z M358.087405,359.276216l0.007795,-0.035261l-0.03118,-0.030223l-0.023385,0.0361l0.020787,0.044496l0.025983,-0.015112Z M357.965284,359.084801l-0.028582,-0.062966l-0.044172,-0.012593v0.035261l0.058029,0.057928l0.014724,-0.01763Z M358.523926,360.026765l-0.070155,-0.143561l-0.067557,-0.078077l-0.051967,-0.080596l-0.085745,-0.23675l-0.038975,-0.022668l-0.023385,0.022668l0.006929,0.024347l-0.006929,0.043656l0.007795,0.037779l0.064958,0.025186l0.049368,0.153636l0.085745,0.09067l0.127318,0.191415l0.002598,-0.027705Z M357.731434,358.759898l-0.002598,-0.037779l-0.023385,-0.027705l-0.010393,0.022668l0.012992,0.057928l0.023385,-0.015112Z M358.178347,359.402147l-0.005197,-0.035261l-0.028582,-0.030223l-0.010393,0.020149l0.020787,0.050372l0.023385,-0.005037Z M357.905522,359.334144l0.018188,-0.007556l0.012992,-0.020149l-0.028582,-0.010074l-0.020787,0.027705l0.018188,0.010074Z M358.562901,360.087212l-0.007795,0.022668l0.041573,0.085633l0.028582,0.002519l-0.010393,-0.040298l-0.051967,-0.070521Z M359.225476,360.865466l0.018188,-0.015112l-0.007795,-0.060447l-0.038975,-0.030223l-0.018188,0.01763l0.020787,0.078077l0.025983,0.010074Z M358.718801,360.298776l-0.002598,-0.025186l-0.038975,-0.022668l-0.010393,0.01763l0.023385,0.037779l0.028582,-0.007556Z M358.799349,360.417152l0.036377,0.010074l-0.051967,-0.07304l-0.03118,-0.005037l-0.005197,0.030223l0.051967,0.037779Z M358.861709,360.54812l0.033778,-0.007556l0.023385,-0.045335l-0.049368,-0.027705l-0.038975,0.025186l-0.005197,0.025186l0.036377,0.030223Z M359.069576,360.699237h0.028582l0.012992,-0.032742l-0.023385,-0.020149l-0.03118,0.005037l-0.007795,0.032742l0.020787,0.015112Z M359.028003,360.626197l-0.002598,-0.027705l-0.051967,-0.040298l-0.007795,0.022668l0.036377,0.050372l0.025983,-0.005037Z M359.584046,361.328893l-0.020787,-0.040298l-0.057163,-0.027705l-0.007795,0.022668l0.038975,0.05541l0.04677,-0.010074Z M359.409958,360.880578l-0.07795,-0.093189l-0.03118,-0.010074l-0.025983,0.005037l0.007795,0.027705l0.119523,0.085633l0.007795,-0.015112Z M359.098158,361.036733l-0.025983,-0.037779l-0.054565,-0.01763l-0.002598,0.022668l0.054565,0.047854l0.028582,-0.015112Z M359.163116,361.104735l0.018188,-0.015112l-0.04677,-0.032742l-0.020787,0.012593l0.007795,0.020149l0.041573,0.015112Z M359.552866,360.991397l0.012992,-0.01763l-0.036377,-0.027705l-0.018188,0.007556l0.01559,0.032742l0.025983,0.005037Z M359.459326,360.935988h0.023385l-0.010393,-0.030223l-0.025983,-0.007556l-0.01559,0.01763l0.028582,0.020149Z M359.334606,361.147552l0.036377,-0.005037l-0.020787,-0.025186l-0.051967,0.002519l-0.01559,0.020149l0.051967,0.007556Z M359.565858,361.412007l0.025983,-0.010074l0.002598,-0.01763l-0.03118,-0.007556l-0.012992,0.022668l0.01559,0.012593Z M352.90979,358.370352l0.034644,-0.023507l-0.006929,-0.026865l-0.041573,0.006716l-0.020787,0.03694l0.034644,0.006716Z M352.653421,358.66587l0.034644,-0.026865l-0.013858,-0.026865l-0.038109,0.006716l-0.020787,0.030223l0.038109,0.016791Z M352.746962,358.83042l0.045038,-0.010074l0.006929,-0.033582l-0.034644,-0.013433l-0.041573,0.03694l0.024251,0.020149Z M353.110728,359.760631l0.045038,-0.006716v-0.026865l-0.06236,-0.003358l-0.010393,0.020149l0.027716,0.016791Z M352.972151,359.807645l0.058896,0.003358l0.024251,-0.026865l-0.083147,-0.030223l-0.013858,0.023507l0.013858,0.030223Z "/>
</svg>
