<svg xmlns="http://www.w3.org/2000/svg" viewBox="970.308 342.935 12.565 6.191">
  <path d="M970.308,347.356l0.008,0.022l0.068,0.015l0.048,0.002l0.062-0.01l0.032,0.012l0.023,0.04l0.116,0.062l0.038,0.004l0.036-0.006l0.024,0.01l0.012,0.057l-0.006,0.036l0.004,0.04l0.021,0.056l-0.007,0.101l-0.026,0.11l-0.004,0.086l0.022,0.121l0.023,0.006l0.052-0.044l0.084-0.101l0.028-0.002l0.099,0.091l0.006,0.062l-0.024,0.062l0.006,0.028l0.096,0.038l0.034-0.004l0.096-0.06l0.029,0.002l0.022,0.04l0.026,0.008l0.024-0.01l0.026,0.006l0.012,0.032l-0.006,0.065l0.014,0.008l0.052-0.012h0.032l0.063,0.036l0.02,0.024l-0.008,0.042l0.006,0.024l0.026,0.016l0.01,0.026l-0.004,0.093l0.024,0.034l0.042,0.016l0.034,0.034l0.034,0.006l0.107-0.026l0.042,0.002l0.036,0.02h0.04l0.057-0.026h0.058l0.096,0.016l0.036-0.012l0.05-0.052l0.121-0.068h0.03l0.026,0.008h0.03l0.032-0.016l0.095-0.006l0.05,0.014l0.018,0.028l0.034,0.014l0.064-0.004l0.029,0.015l0.024,0.002l0.027-0.017l0.027,0.002l0.023,0.034l0.009,0.059l0.066,0.048l0.092,0.003l0.06-0.033l0.095-0.004l0.03,0.012h0.023l0.012-0.012h0.023l0.04,0.06l0.184,0.068l0.027-0.009l0.03,0.001l0.05,0.035l0.001,0.028l-0.022,0.047l-0.083,0.086l-0.009,0.023l0.014,0.016l0.025,0.003l0.018-0.01l0.023,0.004l0.042,0.024h0.027l0.036-0.044l0.006-0.03l0.015-0.01l0.047,0.019h0.024l0.011-0.009l0.022,0.002l0.073,0.047l0.034,0.001l0.06-0.035h0.026l0.015,0.014l0.006,0.051l0.035,0.029v0.021l0.016,0.013l0.136-0.04l0.194,0.033l0.006-0.05l-0.007-0.042l-0.002-0.026l0.014-0.012l0.141,0.052l0.253,0.003l0.16-0.038l0.117,0.007l0.537-0.152l0.018-0.04l-0.006-0.024l-0.025-0.021l-0.003-0.052l0.058-0.134l0.066-0.055l0.108-0.038l0.202,0.036l0.154-0.089l0.048-0.116l0.23-0.013l0.475,0.348l0.149,0.057l0.173,0.031l0.051,0.068l0.121-0.033l0.09,0.068l0.451-0.03l0.515-0.033l-0.015,0.022l0.137-0.03l0.227,0.036l0.172-0.171l0.173,0.045l0.343-0.005l0.131,0.041l0.106,0.057l0.14,0.026l0.141-0.044l0.13-0.185l0.2,0.143l0.137,0.042l0.321-0.044l0.149-0.069l0.237,0.051l0.06-0.018l0.049,0.003l0.378-0.206l0.128-0.197l0.122-0.025l0.288,0.142l0.014,0.041l0.045,0.049l0.104,0.034l0.125,0.013l0.062-0.004l0.141-0.073l0.011-0.033l0.046-0.063l0.011-0.053l-0.015-0.036l-0.002-0.027l0.011-0.078l-0.014-0.034l0.005-0.024l0.019-0.027v-0.034l-0.051-0.038l-0.004-0.021l0.009-0.023l-0.009-0.048l-0.046-0.041l-0.042-0.013l-0.01-0.029l0.01-0.043l-0.012-0.029l-0.092-0.03l-0.043-0.024l-0.035-0.074l-0.006-0.095l-0.023-0.041l-0.001-0.027l0.035-0.066l0.003-0.054l-0.021-0.071l0.003-0.038l0.034-0.04l0.057-0.021l0.017-0.023v-0.035l0.014-0.039l0.025-0.018l0.005-0.093l-0.032-0.023l-0.003-0.021l-0.02-0.013l-0.063-0.009l-0.003-0.02l0.039-0.035l0.045-0.01l0.032-0.021l0.032,0.001l0.031,0.026l0.11,0.001l0.03-0.027l0.005-0.027l-0.027-0.035l-0.154-0.084l-0.042-0.047l-0.012-0.063l-0.047-0.063l-0.004-0.071l0.022-0.039v-0.059l-0.063-0.069v-0.017l0.021-0.024l0.002-0.033l-0.014-0.013l-0.037-0.008l-0.025-0.024l-0.015-0.119l-0.015-0.012l-0.033,0.011l-0.019-0.011h-0.026l-0.011,0.029l-0.027,0.019l-0.039,0.002l-0.033,0.019l-0.087-0.001l-0.055-0.042l-0.022-0.009l-0.029,0.009l-0.055,0.004l-0.035-0.013h-0.024l-0.017,0.015l-0.022-0.002l-0.036-0.048h-0.047l-0.057,0.051l-0.041,0.002l-0.033-0.017h-0.057l-0.059,0.026h-0.048l-0.023-0.027l-0.038-0.005l-0.06,0.017l-0.075-0.011l-0.012-0.024l0.012-0.06l-0.012-0.017h-0.033l-0.023-0.019l-0.03-0.002l-0.036,0.041l-0.032,0.001l-0.034,0.035l-0.032,0.001l-0.018-0.012l-0.002-0.031l-0.019-0.027l-0.056-0.037l-0.027-0.03l-0.033-0.093l-0.018-0.005l-0.026,0.006l-0.028-0.007l-0.031-0.044l-0.004-0.042l-0.014-0.018l-0.027-0.012l-0.019-0.035l0.003-0.04l0.04-0.052v-0.037l-0.057-0.051l-0.001-0.043l0.018-0.064l0.027-0.036l0.062-0.034l0.015-0.031l0.043-0.045l0.045-0.012l0.028-0.029l0.003-0.057l0.037-0.051l0.006-0.034l-0.019-0.022l0.001-0.023l0.024-0.036l0.006-0.054l-0.024-0.029l-0.013-0.117l-0.067-0.067l-0.048-0.004l-0.054,0.015l-0.017,0.023l-0.022,0.001l-0.009-0.026l-0.022-0.008l-0.034,0.013l-0.042-0.005l-0.029-0.028l0.002-0.035l0.055-0.09l0.037-0.006l0.022-0.018h0.042l0.024,0.027l0.026,0.001l0.015-0.022h0.024l0.014,0.013l0.022-0.001l0.015-0.045l-0.01-0.029v-0.026l0.029-0.006v-0.027l-0.031-0.016l-0.033,0.001l-0.062-0.042h-0.05l-0.038,0.032h-0.043l-0.026-0.03l-0.01-0.045l-0.028-0.02h-0.04l-0.036-0.016l-0.024-0.036l-0.03-0.012h-0.038l-0.039-0.018l-0.004-0.03l0.022-0.05l-0.006-0.036l-0.028-0.035l-0.042-0.02l-0.026-0.042l-0.002-0.046l-0.046-0.014l-0.028,0.004l-0.016,0.018l-0.018-0.002l-0.018-0.042l-0.085-0.028l-0.018-0.024l-0.028-0.014l-0.05-0.008l-0.05-0.047l-0.043-0.018h-0.038l-0.016-0.014l-0.008-0.052l-0.018-0.002l-0.026,0.018h-0.056l-0.02,0.016v0.024l0.016,0.026l-0.008,0.049l-0.034,0.02l-0.043,0.006l-0.046,0.058l-0.006,0.066l-0.04,0.036l-0.022,0.046l-0.044,0.015l-0.064-0.035l-0.023-0.036l-0.042-0.002l-0.028,0.018l-0.044-0.002l-0.034-0.022l-0.044-0.008l-0.057,0.01l-0.118-0.018l-0.026,0.012l-0.034-0.004l-0.036-0.018l-0.071-0.012l-0.022,0.008l-0.012,0.024l-0.032-0.002l-0.05-0.052l-0.04-0.016l-0.049-0.044l-0.058-0.01l-0.06,0.012l-0.022,0.054l-0.034,0.012l-0.05-0.014l-0.063-0.062l-0.016-0.042l-0.04-0.039l-0.034-0.002l-0.018,0.024l-0.014,0.037l-0.034,0.014l-0.034-0.01l-0.002-0.028l-0.029-0.027l-0.056-0.012l-0.04-0.034l-0.04,0.004l-0.028,0.016l-0.073,0.014l-0.042-0.012l-0.05-0.002l-0.046,0.018l-0.04-0.002l-0.012-0.028l-0.026-0.004l-0.03,0.014l-0.071-0.026l-0.064-0.046l-0.064-0.012l-0.02-0.038l-0.028-0.004l-0.033,0.036l-0.048,0.018l-0.028,0.032l-0.1,0.04l-0.101,0.014l-0.078,0.073l-0.034-0.002l-0.062-0.065l-0.121-0.04l-0.034-0.032l-0.034-0.016l-0.038,0.004l-0.053,0.046l-0.05,0.014l-0.07,0.004l-0.038-0.024l-0.016-0.034l-0.093-0.024l-0.056-0.002l-0.036,0.02l-0.048-0.002l-0.028-0.026l-0.022-0.072l-0.037-0.053l-0.07-0.056l-0.072-0.122l-0.038-0.032l-0.044-0.012l-0.014-0.025l-0.023-0.002l-0.042,0.037l-0.04,0.008l-0.022,0.036l-0.022-0.002l-0.016-0.022l-0.04-0.01l-0.073,0.018l-0.04-0.004l-0.074-0.063l-0.002-0.046l-0.064-0.054l-0.123-0.016l-0.04,0.02l0.016,0.112l0.018,0.035l-0.024,0.046l-0.076,0.002l-0.107-0.072l-0.06,0.004l-0.062,0.078l-0.046-0.004l-0.016-0.056l-0.045-0.067l-0.05-0.016l-0.074-0.074l-0.047-0.01l-0.039,0.017l-0.013,0.021h-0.032l-0.026-0.021h-0.078l-0.032,0.021l-0.04-0.002l-0.036-0.038l-0.011-0.039l-0.074-0.064l-0.007-0.035l-0.029-0.009l-0.035,0.015l-0.034-0.006l-0.044-0.044l-0.036-0.007l-0.023,0.009l-0.028-0.002l-0.015-0.027l-0.024,0.002l-0.021,0.055l-0.046,0.017l-0.01,0.039l0.036,0.033v0.03l-0.041,0.065l-0.03,0.003l-0.034-0.012l-0.034,0.002l-0.054,0.055l-0.028,0.003l-0.112-0.04l-0.053-0.002l-0.033,0.042l-0.069,0.009l-0.029-0.01l-0.024,0.001l-0.024,0.023l-0.03,0.003l-0.036-0.009l-0.044,0.007l-0.013,0.023l0.001,0.035l-0.053,0.061l-0.031,0.061l-0.027,0.009l-0.035-0.003l-0.019,0.025l-0.008,0.042l-0.041,0.047l-0.03,0.008l-0.056-0.014l-0.027,0.015l-0.016,0.044l-0.029,0.043l-0.036,0.022l-0.048,0.078l-0.041,0.021l-0.004,0.021l0.034,0.047l-0.013,0.034l-0.044,0.012l-0.009,0.024l0.008,0.035l-0.022,0.084l-0.037,0.053l-0.008,0.041l-0.019,0.021l-0.038,0.01l-0.032,0.041l0.002,0.027l-0.015,0.018l-0.029,0.008l-0.018,0.027l-0.033,0.095l-0.035,0.018l-0.021,0.018l-0.006,0.021l-0.016,0.017l-0.039,0.003l-0.07,0.028l-0.018,0.033l-0.027,0.005l-0.051-0.009l-0.039,0.01l-0.094,0.094l-0.03,0.003l-0.012,0.016l0.012,0.027l-0.013,0.032l-0.064,0.038l-0.031-0.006l-0.014,0.015l0.002,0.031l-0.02,0.026l-0.024,0.015l-0.013,0.069l-0.002,0.035l0.027,0.027l-0.001,0.02l-0.014,0.015l-0.001,0.018l0.019,0.01l-0.003,0.02l-0.046,0.023h-0.044l-0.026,0.021l-0.013,0.07l-0.029,0.023l-0.015,0.044l0.003,0.028l-0.036,0.038l-0.038,0.009l-0.074,0.063l-0.004,0.029l-0.032,0.03l-0.009,0.078l0.039,0.054l0.041,0.017l0.048,0.066l-0.006,0.032l-0.046,0.058l-0.081,0.048h-0.042l-0.036,0.018l-0.006,0.051l-0.04,0.024l-0.063,0.008l-0.046,0.024h-0.064l-0.052,0.028h-0.066l-0.043,0.038h-0.036l-0.026,0.024l0.018,0.071l-0.002,0.072l-0.024,0.056l-0.028,0.02l-0.01,0.042l0.016,0.032l-0.046,0.057l0.002,0.03l0.03,0.054l0.018,0.118l0.03,0.031l0.028,0.006l0.018,0.058l-0.008,0.036l-0.064,0.032l-0.02,0.028l-0.032,0.002l-0.056-0.048l-0.047-0.066l-0.036-0.004l-0.034,0.038l-0.044,0.076l-0.002,0.032l0.018,0.026l-0.004,0.037l-0.028,0.036l-0.06,0.02l-0.026,0.024l-0.029,0.002l-0.034-0.012l-0.106,0.008l-0.088,0.044l-0.039,0.036v0.079l-0.014,0.056l-0.036,0.058v0.036l-0.016,0.02l-0.054,0.004l-0.036,0.034l-0.012,0.039l0.012,0.03l-0.012,0.018l-0.022,0.004l-0.01,0.023L970.308,347.356z"/>
</svg>
