<svg xmlns="http://www.w3.org/2000/svg" viewBox="653.388 674.898 0.553 0.352">
  <path d="M653.388,675.145l0.005-0.005l0.008,0.002l-0.002,0.006l-0.005,0.003L653.388,675.145z M653.637,674.941l-0.053,0.013l-0.046,0.005h-0.064l-0.022,0.005l-0.005-0.013l-0.019-0.004l-0.003,0.01l0.011,0.009v0.011l-0.014,0.004l-0.015,0.017l0.002,0.022l0.012,0.016l0.001,0.02l-0.009,0.012l-0.002,0.008l0.01,0.004l0.001,0.007l-0.007,0.005l-0.001,0.006l0.016,0.014v0.018l-0.008,0.01l0.005,0.005l0.015-0.005l0.015,0.017l0.019,0.01l0.016,0.023l0.021,0.015l0.013,0.017l0.005,0.016l0.017,0.005l0.045-0.002l0.017-0.01l0.054-0.017l0.036-0.006l0.028,0.008h0.013l0.011-0.004l0.025-0.003l0.02,0.004l0.068-0.009l0.017-0.007l0.008-0.016l0.012-0.008l0.035-0.079l0.004-0.024l-0.016-0.046l-0.02-0.012l-0.035-0.043l-0.023-0.012h-0.019l-0.023-0.01l-0.026-0.018l-0.036-0.008l-0.049,0.005l-0.026-0.009l-0.014-0.019l-0.011,0.005v0.025L653.637,674.941z M653.512,675.25l0.011-0.004l-0.004-0.008h-0.008l-0.008,0.007L653.512,675.25z"/>
</svg>
