<svg xmlns="http://www.w3.org/2000/svg" viewBox="715.390 533.996 42.065 18.590">
  <path d="M715.39,544.221l0.037,0.038l0.061,0.039l0.026,0.033l0.009,0.043l0.024,0.02l0.075,0.012l0.021,0.023v0.033l0.024,0.016h0.043l0.019,0.022l-0.009,0.051l0.025,0.021l0.041,0.016l0.024,0.029l0.01,0.049l0.027,0.018l0.082-0.018l0.038,0.01l0.1,0.106l0.029,0.004l0.031-0.051l0.024,0.002l0.057,0.075l0.023,0.005l0.042-0.015l0.098,0.041l0.033,0.082l0.051,0.032l0.008,0.058l0.043,0.042l0.059,0.021l0.033,0.034l0.012,0.037l0.027,0.013l0.043,0.006l0.026,0.024l0.018,0.037l0.09,0.033l0.009,0.038l-0.015,0.074l0.025,0.043l0.102,0.045l0.002,0.026l-0.021,0.041l0.008,0.012l0.033,0.006l0.029,0.031v0.028l-0.019,0.015l0.002,0.02l0.025,0.018v0.021l-0.01,0.016l-0.002,0.027l0.043,0.026l0.03-0.002l0.031-0.034l0.028,0.004l0.021,0.03v0.043l-0.035,0.057l-0.033,0.014l-0.018,0.025l0.059,0.071l0.004,0.035l0.033,0.021l0.061-0.013l0.035,0.019l-0.031,0.091l0.002,0.027l0.051,0.059l0.053,0.01l0.035,0.037l0.061,0.006l-0.002,0.021l-0.09,0.049l-0.014,0.042l0.016,0.025l0.033,0.002l0.053-0.02l0.021,0.022l-0.027,0.082l0.002,0.032l0.088,0.162l0.053,0.008l0.045-0.019l0.028,0.007l0.023,0.034l-0.019,0.061l0.003,0.035l0.028,0.01l0.065-0.022l0.025,0.014l-0.008,0.025l-0.047,0.036l-0.004,0.033l0.036,0.043h0.053l0.068-0.063l0.035,0.004l0.018,0.028l-0.006,0.039l-0.023,0.02l-0.081,0.005l-0.021,0.022l0.015,0.071l-0.005,0.033l-0.044,0.037l0.004,0.055l0.026,0.02l0.049,0.004l0.098,0.098l0.072,0.145l-0.021,0.027l-0.094,0.016l-0.051,0.1l0.019,0.027l0.073-0.029l0.041,0.02l-0.004,0.072l-0.037,0.063l0.004,0.068l0.037,0.036l0.08,0.045l0.053,0.063l0.03,0.092l-0.004,0.074l0.018,0.016l0.062,0.008l0.041,0.031v0.039l-0.049,0.036l-0.037,0.06l0.008,0.034l0.026,0.01l0.039-0.018l0.021-0.045l0.055-0.037l0.034,0.011l0.001,0.03l-0.009,0.017l-0.004,0.032l0.013,0.027l-0.003,0.028l-0.02,0.041l0.014,0.035l0.072,0.018l0.024,0.029v0.075l-0.043,0.031l-0.006,0.033l0.019,0.069l0.134,0.122v0.035l-0.032,0.033l-0.009,0.065l-0.038,0.053v0.027l0.055,0.065l0.004,0.057l-0.018,0.039l-0.037,0.031l0.002,0.03l0.035,0.031l0.04,0.026l-0.002,0.029l-0.055,0.049l-0.004,0.03l0.067,0.062l0.049,0.006l0.025,0.024l-0.004,0.031l-0.07,0.098l-0.065,0.039l-0.032,0.069l-0.007,0.1l-0.022,0.051l-0.012,0.065l-0.047,0.059l-0.008,0.039l-0.105,0.051l-0.024,0.031l-0.043,0.098l-0.081,0.055l-0.023,0.037l-0.02,0.053l-0.049,0.049l-0.008,0.096l-0.017,0.026l-0.065,0.012l-0.076,0.117l-0.03,0.018l-0.07,0.004l-0.036,0.041l-0.015,0.212l-0.022,0.043l-0.002,0.037l0.012,0.049l0.006,0.098l0.076,0.108l0.006,0.108l-0.012,0.1v0.061l0.028,0.019l-0.004,0.03l-0.067,0.045l-0.014,0.055l0.018,0.078l0.055,0.051l-0.002,0.031l-0.025,0.046l0.004,0.035l0.037,0.045l-0.004,0.035l-0.045,0.043v0.02l0.049,0.022l0.041,0.051l-0.002,0.027l-0.02,0.029l0.006,0.034l0.067,0.015l0.076,0.032l0.004,0.033l-0.025,0.039v0.034l0.037,0.135l0.024-0.002l0.039-0.049l0.014-0.063l0.052-0.031h0.142l0.039-0.022l0.041-0.062l0.035-0.018h0.075l0.023-0.02l0.008-0.055l0.026-0.017l0.078-0.004l0.132-0.071l0.094-0.002l0.108,0.053h0.037l0.064-0.017l0.036,0.005l0.129,0.14l0.037,0.011h0.1l0.038,0.016l0.039,0.002l0.039-0.008l0.071,0.024l0.072,0.014l0.043,0.052l0.042,0.002l0.052-0.021l0.089-0.002l0.072-0.059l0.073-0.031l0.043,0.002l0.063,0.007l0.064-0.027h0.046l0.052,0.031h0.065l0.057-0.035l0.047-0.047l0.057-0.004l0.074,0.016h0.042l0.06-0.028l0.075,0.002l0.092,0.024l0.061,0.053l0.11,0.015l0.096,0.061h0.041l0.037-0.055l0.037-0.013l0.053,0.013l0.032-0.002l0.029-0.025l0.061-0.002l0.053,0.025l0.076,0.069l0.042,0.006l0.092-0.002l0.041-0.035h0.031l0.041,0.013l0.038-0.003l0.137-0.126l0.078-0.049l0.042-0.045l0.033-0.01l0.01-0.019l0.002-0.048l0.031-0.045l-0.002-0.029l-0.027-0.067l0.005-0.092l-0.052-0.072l-0.002-0.053l0.039-0.059l0.086-0.034l0.055-0.033h0.065l0.155,0.039l0.074-0.004l0.035-0.021l0.063-0.002l0.051,0.025l0.041-0.002l0.128-0.078l0.06-0.01l0.063-0.039l0.124-0.018l0.066-0.1l0.03-0.109l0.021-0.022l0.044-0.014l0.039-0.068l0.019-0.02l0.069-0.012l0.016-0.025l0.009-0.059l0.02-0.024l0.071-0.035l0.013-0.041l-0.025-0.043l0.006-0.026l0.078-0.043l0.016-0.045l-0.008-0.059l0.008-0.029l0.053-0.034l0.004-0.039l-0.036-0.051l0.014-0.037l0.159-0.096l0.004-0.055l0.029-0.033l0.147-0.036l0.071,0.014l0.027-0.006l0.055-0.074l0.061-0.004l0.037,0.021l0.036-0.004l0.017-0.031l-0.019-0.112l0.021-0.019l0.071-0.002l0.061-0.045l0.011-0.038l-0.023-0.043l0.008-0.023l0.043-0.03l0.019-0.051l0.024-0.007l0.065,0.019l0.047-0.004l0.029-0.037l0.014-0.051l0.035-0.016l0.126,0.049l0.068,0.051l0.079-0.006l0.035-0.027l0.018-0.053l0.053-0.067l0.004-0.172l0.023-0.01l0.047,0.035l0.026-0.009l0.011-0.073l0.038-0.02l0.062-0.015l0.002-0.034l-0.019-0.027l0.004-0.037l0.137-0.077l0.014-0.041l-0.004-0.092l-0.024-0.063l0.01-0.041l0.037-0.006l0.12,0.026l0.059-0.026l0.011-0.169l-0.021-0.06l0.008-0.046l0.082-0.074l0.002-0.022l-0.11-0.053l-0.019-0.043l0.008-0.029l0.066-0.018l0.022-0.025l-0.008-0.059l0.018-0.029l0.105-0.044l0.036-0.053l-0.01-0.049l-0.145-0.076l0.004-0.024l0.07-0.011l0.02-0.036l0.02-0.166l0.023-0.026l0.086-0.027l0.087-0.12l0.004-0.068l0.027-0.046l-0.004-0.019l-0.063-0.02l-0.039-0.047l0.002-0.033l0.082-0.041l0.083-0.004l0.017-0.018l-0.003-0.023l-0.122-0.098l0.006-0.026l0.037-0.043l0.041-0.088l0.039-0.042l0.016-0.062l0.018-0.032l-0.006-0.021l-0.043-0.037l0.006-0.028l0.051-0.035l0.06,0.015l0.049,0.028l0.028-0.01l-0.004-0.021l-0.047-0.03l0.002-0.031l0.049-0.055l0.039-0.106l0.049-0.059l0.171-0.102l0.025-0.043l-0.006-0.092l0.026-0.033l0.084-0.004l0.035-0.034l-0.013-0.109l0.015-0.014l0.061,0.039l0.028-0.006l0.047-0.065h0.033l0.012,0.03l0.002,0.027l-0.026,0.04l-0.002,0.025l0.057,0.031l0.032,0.004l0.029-0.025l0.014-0.049l0.033-0.012l0.026-0.022l0.029,0.002l0.057,0.042h0.025l0.028-0.038l0.029-0.011l0.041,0.007l0.026-0.017l0.019-0.053l0.051-0.034l0.093-0.017l0.064,0.019l0.036,0.002l0.021-0.011h0.024l0.023,0.011h0.028l0.027-0.017l0.028,0.004l0.039,0.06l0.033,0.002l0.039-0.033l0.02,0.002l0.025,0.031l0.038,0.002l0.064-0.025l0.036,0.008l0.035,0.061l0.037,0.009h0.069l0.049,0.036l0.035-0.006l0.073-0.13l0.037-0.015l0.055,0.007l0.004,0.03l-0.03,0.039l0.006,0.022h0.057l0.078,0.068l0.012,0.059l-0.01,0.067l0.014,0.006l0.069-0.041l0.029,0.003l0.037,0.04l0.065,0.007l0.016,0.018l-0.006,0.037l0.018,0.01l0.037-0.002l0.045,0.026v0.053l0.029,0.017l0.03-0.002l0.019-0.043l0.028-0.002l0.025,0.016l-0.004,0.027l-0.029,0.03l0.006,0.015l0.059,0.01l0.025,0.024l0.018,0.059l0.039,0.002l0.028-0.044l0.035-0.007l0.031,0.029l-0.004,0.029l-0.023,0.028l0.004,0.02l0.043,0.013l0.043-0.012l0.035,0.016l0.004,0.053h0.024l0.041-0.057h0.027l0.022,0.036l0.025,0.021l0.063,0.014l0.002,0.025l-0.02,0.024l0.002,0.021l0.032,0.018l0.01,0.019l-0.003,0.03l0.012,0.013l0.042,0.001l0.039,0.027l0.026,0.004l0.061-0.016l0.034,0.016v0.02l-0.056,0.053l0.003,0.043l0.035,0.029l0.029-0.007l0.023-0.026l0.021,0.004l0.025,0.039l-0.017,0.042l0.013,0.026l0.098,0.007l0.038,0.022l0.005,0.057l0.02,0.019l0.065,0.019l0.015,0.021l-0.016,0.06l0.02,0.024l0.043,0.008l0.036,0.023l0.062,0.008l0.023-0.027l-0.007-0.028l0.013-0.01l0.034-0.003l0.019-0.021h0.03l0.028,0.018l0.085,0.002l0.023,0.014l-0.004,0.018l-0.026,0.016l-0.006,0.056l0.017,0.013l0.064-0.021l0.01-0.037l0.021-0.002l0.064,0.058l0.056,0.005l0.009-0.013l-0.013-0.034l0.011-0.028l0.034-0.001l0.018,0.041l0.024-0.002l0.023-0.032l0.039-0.016l0.114-0.001l0.011-0.019l0.005-0.035l0.048-0.031l0.034,0.01l0.004,0.026l-0.021,0.032l0.009,0.023l0.045,0.002l0.039-0.041l0.043,0.001l0.058,0.05l0.015,0.033l0.015,0.009l0.028-0.001l0.011,0.014l-0.003,0.04l0.036,0.038l0.047,0.019l0.007,0.018l-0.015,0.02l0.006,0.013l0.043,0.019l0.008,0.02l-0.005,0.038l0.014,0.009l0.029-0.009l0.02-0.038l0.033-0.001l0.013,0.019l-0.008,0.028l-0.032,0.017l-0.001,0.032l0.028,0.017l0.067-0.043l0.07-0.01l0.012,0.017l-0.008,0.064l0.052,0.057l0.046,0.019l0.023,0.026l0.068,0.021l0.025,0.001l0.021-0.029h0.016l0.021,0.02l0.019-0.004l0.005-0.043l0.024-0.007l0.042,0.02l0.029-0.012l0.009-0.054h0.013l0.011,0.016h0.012l0.019-0.018l0.014,0.002l0.014,0.023l0.019,0.001l0.017-0.012l0.017,0.003l0.009,0.018l0.178,0.059l0.096,0.035l0.071,0.002l0.065,0.026l0.084,0.066l0.04,0.019l0.095,0.019l0.092,0.045l0.045,0.005l0.012,0.012h0.015l0.05-0.045l0.082-0.026l0.045,0.004l0.056,0.031l0.031,0.004l0.023-0.009l0.026,0.001l0.04,0.025l0.037,0.003l0.018,0.017l0.018,0.001l0.025-0.018l0.022-0.003l0.002-0.025l0.019-0.002l0.02,0.012l0.052-0.003l0.038-0.022l0.085-0.008l0.033,0.009l0.038-0.005l0.023,0.009l0.013-0.005l0.012-0.025l0.039-0.022l0.002-0.047l0.014-0.004l0.018,0.019l0.026-0.011l0.031-0.038l0.047-0.012l0.015-0.041l0.017-0.002l0.024,0.017l0.021-0.003l0.024-0.046l0.034-0.007l0.033-0.036l0.028-0.009l0.006-0.038l0.033-0.019l0.034,0.019h0.017l0.038-0.03l0.053,0.005l0.045,0.043l0.036,0.003l0.026-0.014l0.018,0.004l0.006,0.027l0.017,0.007l0.05,0.005l0.039,0.056l0.026,0.003l0.038-0.015l0.071,0.009l0.053,0.032l0.042,0.004l0.076-0.024l0.038,0.002l0.036,0.022l0.023,0.001l0.028-0.006l0.097,0.014l0.092-0.011l0.066,0.003l0.08,0.021l0.068-0.007l0.051-0.032l0.069-0.02l0.055-0.046l0.16-0.065l0.139-0.12l0.05-0.009l0.031-0.025l0.019-0.003l0.03,0.007l0.029-0.011l0.109-0.1l0.126-0.066l0.04-0.043l0.305-0.66l0.099-0.37l0.041-0.327l0.104-0.132l0.487-1.285l0.064-0.032l0.002-0.016l-0.024-0.018l0.001-0.015l0.027-0.002v-0.01l-0.016-0.018l0.003-0.029l0.037-0.011l0.003-0.017l-0.018-0.077l-0.027-0.03l-0.005-0.091l-0.017-0.022l-0.013-0.003l-0.017,0.013l-0.012-0.01l0.015-0.035l-0.002-0.031l-0.071-0.065l0.005-0.04l0.027-0.02l-0.002-0.055l-0.015-0.018l0.007-0.012l0.227-0.007l0.038-0.027l0.174,0.01l0.203-0.103l0.604-0.13l0.778-0.201l0.055,0.035l0.023-0.006l0.036-0.054l-0.001-0.032l0.016-0.014l0.029-0.001l0.029-0.022l0.038-0.015l0.073-0.087l0.025-0.069l0.009-0.051l0.03-0.076l0.028-0.036l0.011-0.069l0.03-0.032l0.008-0.045l0.062-0.036l0.028-0.024l0.001-0.023l0.014-0.012l0.029-0.007l0.024-0.035l0.031-0.014l0.029-0.055l0.045-0.036l0.014-0.026l0.001-0.03l0.016-0.013l0.073-0.007l0.016-0.012l0.007-0.022l0.035-0.015l0.027,0.003l0.012-0.012l0.005-0.019l0.029-0.015l0.034,0.007l0.025-0.01l0.027-0.037v-0.024l-0.01-0.023l0.013-0.029l0.017-0.008l0.007-0.031l0.044-0.021l0.032,0.004l0.017-0.014l0.014-0.052l0.016-0.009l0.043-0.001l0.027-0.018l0.01-0.03l0.019-0.009l0.034,0.011l0.008,0.019h0.024l0.088-0.044l0.013,0.001l0.011,0.021h0.009l0.016-0.018l0.028-0.006l0.01-0.013l-0.003-0.025l0.016-0.012l0.035-0.005l0.056-0.05l0.054-0.001l0.027-0.022l0.024-0.043l0.027-0.019l0.008-0.027l-0.027-0.059l0.009-0.044l0.038-0.019l0.036-0.082l-0.012-0.006l-0.03,0.005l-0.014-0.015l-0.004-0.05l0.015-0.019l0.03-0.012l-0.002-0.062l-0.05-0.041l-0.004-0.022l0.015-0.033v-0.028l-0.024-0.041l0.006-0.029l0.071-0.021l0.028-0.068l0.007-0.086l0.014-0.033l0.048-0.053l0.007-0.025l0.01-0.178l0.013-0.041l0.058-0.045l0.005-0.026l-0.016-0.092l0.008-0.037l0.043-0.061l0.012-0.061l0.032-0.041v-0.037l-0.025-0.027l-0.042-0.012l-0.004-0.025l0.029-0.031l0.044-0.012l0.013-0.018l-0.002-0.02l-0.029-0.028l-0.001-0.033l0.013-0.032l0.004-0.049l0.034-0.063l0.005-0.129l0.018-0.059l0.003-0.035l0.017-0.019l-0.002-0.019l-0.013-0.015l0.012-0.022l0.094-0.034l0.009-0.018l-0.013-0.029l0.002-0.024l0.011-0.022l-0.004-0.021l-0.009-0.028l0.013-0.033l0.033-0.022l0.031,0.004l0.029,0.022l-0.002,0.025l-0.012,0.015l0.008,0.016l0.038-0.008l0.01,0.013l-0.018,0.054l0.014,0.025h0.034l0.085-0.037l0.03-0.038l-0.008-0.018l0.008-0.013l0.016,0.002l0.005-0.039l-0.043-0.065l-0.03-0.012l-0.013-0.037l0.014-0.017h0.035l0.017,0.012l0.016-0.008l0.003-0.047l0.021-0.001l0.031,0.013l0.02-0.005l0.027-0.041l-0.001-0.082l0.023-0.021l0.043,0.008l0.023,0.026l0.045,0.003l0.034-0.024l-0.002-0.027l-0.02-0.029l-0.036-0.016l-0.017-0.04l0.002-0.051l0.022-0.009l0.032,0.005l0.036,0.042l0.025-0.003l0.004-0.042l0.029-0.002l0.056,0.036h0.042l0.027-0.019l0.003-0.028l-0.059-0.042v-0.036l0.042-0.054l0.088-0.023l0.012,0.015l-0.004,0.026l0.018,0.006l0.027-0.026l0.012-0.033l0.063-0.034l0.047,0.004l0.045-0.019l0.025-0.032l0.026-0.013l0.035-0.004l0.033-0.036l-0.005-0.041l0.019-0.043l0.03-0.029l0.011-0.051l0.055-0.03l0.043,0.008l0.008,0.049l-0.023,0.032l0.006,0.023l0.078,0.002l0.022-0.016l0.002-0.025l-0.018-0.028l0.002-0.035l0.041-0.043l0.08,0.004l0.008,0.029l-0.006,0.036l-0.017,0.013v0.03l0.037,0.029l0.049-0.004l0.053-0.137l0.049-0.016l0.198,0.01l0.078-0.012l0.032-0.027l0.016-0.049l0.076-0.061l0.033-0.061l-0.004-0.035l-0.031-0.027l0.002-0.028l0.045-0.065l0.01-0.051l-0.012-0.047l0.024-0.033l0.051-0.01l0.019-0.039l-0.006-0.076l0.022-0.03h0.063l0.06,0.032l0.067-0.006l0.067-0.087l0.049-0.021l0.068,0.019l0.04,0.091l0.045,0.025l0.061-0.006l0.033-0.045l0.002-0.051l0.039-0.072l0.035-0.032l0.038-0.01l0.019-0.035l-0.016-0.043l-0.06-0.043l-0.006-0.028l0.033-0.019l0.024,0.01l0.002,0.025l0.019,0.004l0.089-0.025l0.027-0.024l0.006-0.041l-0.022-0.032l0.01-0.027l0.026-0.002l0.023,0.022l0.053-0.008l0.147-0.059l0.145-0.094l0.067-0.079l0.01-0.056l-0.016-0.079l0.014-0.078l-0.026-0.1l0.012-0.03h0.024l0.019,0.016l0.049-0.004l0.108-0.086l0.098-0.032l0.08-0.078l0.042-0.069l-0.002-0.027l-0.024-0.041l-0.002-0.026l0.016-0.025l-0.002-0.022l-0.028-0.045l0.004-0.031l0.03-0.02l0.07-0.004l0.053-0.045l0.057-0.016l0.112-0.119l0.067-0.024l0.064-0.068l0.006-0.044l-0.016-0.092l0.012-0.035l0.108-0.124l0.08-0.064l0.124-0.032l0.076-0.066l0.036-0.077l0.025-0.023l0.092-0.016l0.085-0.057l0.045-0.063l0.023-0.017l0.085,0.004l0.047-0.01l0.153,0.008l0.041-0.006l0.147,0.008l0.041,0.009l0.077,0.048l0.039-0.002l0.117-0.047l0.049-0.051l0.032-0.008l0.153,0.013l0.106-0.017l0.066-0.037l0.034-0.038l0.027-0.017l0.053-0.004l0.039-0.028l0.018-0.033l0.131-0.053l0.1-0.006l0.19-0.043l0.038-0.004l0.019-0.025l-0.006-0.053l0.01-0.04l0.096-0.043h0.081l0.102,0.043l0.035-0.002l0.086-0.086l0.049-0.135l0.059-0.086l0.002-0.032l-0.02-0.092l0.006-0.135l0.041-0.051l0.014-0.041l0.022-0.018l0.031-0.004l0.026-0.027l0.013-0.038l0.026-0.045l0.01-0.076l0.017-0.02h0.026l0.027-0.025l0.185,0.002l0.066-0.03h0.065l0.084,0.014l0.053-0.01l0.137-0.112l0.089-0.017l0.082,0.008l0.051,0.035h0.082l0.045-0.02l0.118,0.002l0.029,0.02l0.016,0.039h0.024l0.027-0.027h0.026l0.025,0.019l0.022-0.002l0.031-0.013l0.126-0.044l0.079-0.053l0.148-0.024l0.075,0.006l0.102,0.043h0.048l0.023-0.028l0.01-0.049l0.031-0.023l0.052,0.001l0.066-0.037l0.037,0.002l0.074,0.048l0.025-0.001l0.074-0.08l0.076-0.026l0.033,0.004l0.036,0.035l0.035,0.008l0.057-0.009l0.081,0.021h0.169l0.061,0.017l0.117,0.089l0.089,0.019l0.076,0.002l0.047,0.022l0.047,0.041l0.043,0.01l0.096-0.012l0.055,0.018l0.122,0.096l0.059,0.019l0.106,0.006l0.033,0.018l0.023,0.07l0.032,0.018l0.08,0.012l0.047,0.029l0.038,0.045l0.094,0.043l0.072,0.075l0.045,0.008l0.102-0.043l0.19-0.014l0.083,0.014l0.025,0.041l0.057,0.033l0.059,0.102l0.055,0.035l0.035,0.002l0.053-0.023l0.279,0.006l0.125-0.045l0.082-0.008l0.134-0.073l0.057-0.002l0.18,0.047l0.043-0.002l0.051-0.029l0.114-0.006l0.104,0.051h0.031l0.09-0.082l0.047-0.002l0.12,0.021l0.043-0.002l0.055-0.025l0.231-0.03l0.12-0.037l0.084,0.004l0.122,0.039l0.031-0.004l0.041-0.019h0.067l0.057,0.017l0.035,0.038l0.028,0.011l0.059,0.002l0.029,0.014l0.016,0.028l0.031,0.005l0.031-0.011l0.006-0.024l0.03-0.008l0.294,0.118l0.078-0.002l0.183-0.067l0.062,0.002l0.073,0.04l0.035,0.064l0.053,0.041l0.079,0.004l0.052-0.023l0.079,0.017l0.072,0.132l0.083,0.076L715.39,544.221z"/>
</svg>
