<svg xmlns="http://www.w3.org/2000/svg" viewBox="310.585 381.262 6.448 9.973">
  <path d="M315.012419,383.007227l0.002606,-0.028728l0.024324,-0.044324l0.010805,-0.000436l0.003095,0.015211l-0.028667,0.056636l-0.012162,0.001642Z M315.328032,382.896572l0.011076,-0.011774l-0.020035,-0.021213l-0.001737,-0.016416l-0.013899,-0.004925l-0.008633,0.020315l0.01037,0.02565l0.022858,0.008362Z M315.216565,382.811053l0.026061,-0.011491l0.031274,-0.047607l-0.008687,-0.014775l-0.022586,0.008208l-0.017374,-0.008208l-0.020849,0.006567l-0.010425,0.032833l-0.020849,0.0197l-0.001737,0.013133l0.045173,0.001642Z M315.319073,382.953875l0.003475,-0.016416l-0.012162,-0.008208l-0.012162,0.011491l0.008687,0.018058l0.012162,-0.004925Z M315.342312,382.67692l0.015374,-0.022129l0.00141,-0.019098l-0.01171,-0.007263l-0.015457,0.011116l0.000221,0.029366l0.010161,0.008008Z M315.282343,382.671566h0.012461l0.011076,-0.019623l-0.002443,-0.016545l-0.010017,0.004771l-0.006923,0.013082l-0.004154,0.018314Z M315.338185,382.728972l0.010425,-0.0197l-0.010425,-0.014775l-0.031274,-0.001642l-0.013899,0.014775l-0.001737,0.041041l0.012162,0.008208l0.034748,-0.027908Z M314.738775,384.520228l0.008687,-0.024324h0.034748l0.033011,0.026061l0.026061,0.105983v0.059072l0.026061,0.024324 l-0.00695,0.013899l-0.039961,-0.017374l-0.020849,-0.026061l-0.001737,-0.052123l-0.003475,-0.052123l-0.015637,-0.029536l-0.039961,-0.027799Z M315.032399,384.000739l0.013899,-0.012162l0.001737,-0.064285l0.024324,-0.066022l-0.012162,-0.00695l-0.031274,0.024324l-0.008687,0.092083l0.012162,0.033011Z M314.829121,385.919719l0.013031,-0.028667l0.007818,-0.072972l-0.007818,-0.03388h-0.03388l-0.010425,0.031274l0.013031,0.041698v0.054729l0.018243,0.007818Z M314.794372,385.032767l0.005212,0.076446l0.067759,0.10077l0.026061,-0.003475l-0.022586,-0.121619l0.026061,-0.04691l-0.010425,-0.043435l-0.067759,-0.067759l-0.078184,-0.027799l-0.024324,0.019112l0.005212,0.041698l0.072972,0.072972Z M314.487718,384.762598l0.020849,-0.015637v-0.020849l-0.03388,0.005212l-0.007818,0.020849l0.020849,0.010425Z M312.572213,390.003524l0.028667,0.013031l0.020849,-0.018243l-0.010425,-0.018243h-0.031274l-0.007818,0.023455Z M314.758755,387.603279l0.015637,-0.018243l-0.007818,-0.026061h-0.026061l-0.002606,0.036486l0.020849,0.007818Z M312.785915,389.917522l0.020849,-0.018243l-0.010425,-0.018243l-0.028667,0.002606l-0.007818,0.026061l0.026061,0.007818Z M314.094192,388.796886l0.03388,-0.015637l-0.023455,-0.020849h-0.03388l-0.018243,0.026061l0.041698,0.010425Z M314.808272,387.332241h0.026061l0.015637,-0.026061v-0.026061h-0.023455l-0.026061,0.03388l0.007818,0.018243Z M316.985258,385.236045l0.045173,-0.013899l0.003475,-0.048648l-0.038223,-0.020849l-0.055597,0.020849l-0.00695,0.045173l0.052123,0.017374Z M316.623875,386.174251l0.045173,-0.038223l0.017374,-0.034748l-0.034748,-0.031274l-0.027799,0.003475l-0.017374,0.079921l0.017374,0.020849Z M314.952478,387.018637l0.034748,-0.013899l-0.003475,-0.024324l-0.045173,-0.003475l-0.020849,0.027799l0.034748,0.013899Z M315.049773,386.917867l0.010425,-0.027799l-0.01998,-0.019112l-0.023455,0.015637l0.002606,0.03388l0.030405,-0.002606Z M314.964639,386.631193l0.039092,-0.015637l0.031274,-0.015637l-0.007818,-0.044304l-0.028667,-0.013031l-0.03388,0.026061l-0.018243,0.04691l0.018243,0.015637Z M314.902092,385.484496l0.018243,-0.020849l-0.013031,-0.036486l-0.028667,-0.002606l-0.023455,0.015637l0.002606,0.041698l0.044304,0.002606Z M314.380867,384.723506l0.018243,-0.013031l-0.015637,-0.020849l-0.026061,0.007818l0.005212,0.026061h0.018243Z M314.537234,384.918966l0.023455,0.044304l0.023455,0.007818l0.028667,-0.013031l-0.005212,-0.028667l-0.041698,-0.023455l-0.028667,0.013031Z M314.461657,384.872055l0.026061,0.002606l0.010425,-0.020849l-0.020849,-0.015637l-0.020849,0.007818l0.005212,0.026061Z M314.881243,385.346371l0.015637,-0.020849l-0.010425,-0.026061h-0.023455l-0.005212,0.026061l0.023455,0.020849Z M314.870819,383.627762l0.007818,0.0197l0.028667,0.004925l0.065153,-0.00985l0.002606,-0.0197l-0.075578,-0.007387l-0.028667,0.012312Z M314.443414,384.438569l0.067759,-0.001737l0.027799,-0.029536l-0.005212,-0.045173l0.031274,-0.034748l0.064285,-0.00695l0.039961,-0.045173l0.08079,-0.052123l0.02693,-0.005212l0.013899,-0.020849l-0.000869,-0.039961l-0.024324,-0.024324l-0.019112,0.00695l-0.027799,0.05386l-0.041698,0.045173l-0.075578,0.041698l-0.05386,0.013899l-0.057335,0.045173l-0.033011,0.050385l-0.05386,0.015637l-0.001737,0.020849l0.041698,0.012162Z M314.968114,384.271777l0.013899,-0.034748l-0.001737,-0.06081l-0.012162,0.00695l-0.013899,0.052123l0.001737,0.048648l0.012162,-0.012162Z M314.99765,384.108459l0.033011,-0.020849l0.013899,-0.05386l-0.012162,-0.001737l-0.015637,0.020849l-0.024324,0.005212l-0.012162,0.017374l0.001737,0.033011h0.015637Z M314.877769,384.504591l0.012162,-0.038223l-0.003475,-0.015637l-0.019112,0.001737l-0.010425,0.012162l0.00695,0.050385l0.013899,-0.010425Z M315.816844,384.713081l0.028667,-0.018243l-0.002606,-0.020849l-0.041698,-0.005212l-0.020849,0.015637l0.007818,0.028667h0.028667Z M315.939332,384.663565l0.028667,-0.010425l-0.002606,-0.020849l-0.026061,-0.005212l-0.018243,0.026061l0.018243,0.010425Z M315.637021,386.167301l0.002606,-0.070365l-0.026061,-0.015637l-0.023455,0.013031l-0.002606,0.036486l0.031274,0.049516l0.018243,-0.013031Z M315.806419,385.857172l0.018243,-0.015637l0.010425,-0.026061l-0.028667,-0.005212l-0.020849,0.015637l0.002606,0.031274h0.018243Z M315.681325,385.96663l0.039092,-0.03388l0.007818,-0.065153l-0.015637,-0.018243l-0.041698,0.018243l-0.028667,0.049516l0.005212,0.049516h0.03388Z M315.93412,384.827751l0.007818,0.028667l0.023455,0.013031l0.018243,-0.010425l-0.013031,-0.036486l-0.020849,-0.013031l-0.015637,0.018243Z M315.420712,386.193363l0.010425,-0.018243l-0.031274,-0.059941l-0.005212,-0.091215l0.018243,-0.020849v-0.031274l-0.023455,-0.059941l-0.018243,-0.005212l-0.015637,0.03388v0.158974l0.03388,0.088608l0.031274,0.005212Z M315.780765,385.35704l0.009692,0.060918l0.024921,0.045689l-0.005538,0.037382l-0.029075,0.008307l-0.011076,0.023537l0.022152,0.029075l-0.013845,0.048458l0.006923,0.037382l-0.023537,0.040151l-0.009692,0.05196l0.018243,-0.005212l0.018243,-0.039092l0.028667,-0.018243l0.031762,0.01751l-0.012461,0.013845l0.001385,0.022152l0.018406,0.00904l0.030052,-0.053344l0.001385,-0.074763l-0.044467,-0.116869l-0.04691,-0.157264l0.001385,-0.017999l0.022152,-0.031844l-0.013112,-0.011809l-0.025654,0.002117l-0.04292,0.05538l0.013845,0.020768l0.029075,0.002769Z M315.459804,385.632176l0.039961,-0.088608l0.005212,-0.092083l-0.012162,-0.045173l0.001737,-0.039961l0.022586,-0.06081l0.020849,-0.034748l0.036486,-0.001737l0.020849,0.008687l0.019112,-0.001737l0.010425,-0.036486l0.048648,-0.034748l0.017374,0.003475l-0.001737,0.034748l0.017374,0.038223l0.036486,0.001737l0.034748,-0.031274l0.041698,-0.010425l0.017374,-0.017374l-0.005212,-0.062547l0.022586,-0.062547l0.062547,-0.078184l0.079921,-0.050385l-0.005212,-0.017374l-0.059072,-0.003475l-0.029536,-0.027799l0.027799,-0.055597l-0.017374,-0.005212l-0.022586,0.012162l-0.027799,-0.00695l-0.003475,-0.024324l-0.029536,-0.015637l-0.020849,0.012162l-0.038223,0.064285l-0.008687,0.057335h0.015637l0.026061,-0.062547l0.033011,-0.015637l0.027799,0.015637v0.048648l0.026061,0.010425v0.026061l-0.059072,0.013899l-0.038223,0.039961l-0.00695,0.05386l-0.034748,0.038223l-0.090346,0.043435l-0.045173,-0.008687l-0.001737,-0.020849l0.052123,-0.06081l0.015637,-0.048648h-0.015637l-0.078184,0.081659l-0.093821,0.16853l-0.048648,0.066022l-0.033011,0.074709l-0.010425,0.052123l0.008687,0.015637l0.029536,-0.020849l0.029536,0.010425l0.003475,0.050385l-0.069497,0.099033l-0.033011,0.097295l0.008687,0.010425l0.079921,-0.105983Z M314.714451,384.492429l0.008687,-0.019112l-0.019112,-0.039961l-0.083396,-0.033011l-0.017374,-0.033011l-0.022586,-0.003475l-0.003475,0.017374l0.015637,0.033011l0.066022,0.050385l0.033011,0.008687l0.022586,0.019112Z  M310.852167,383.87428v2.909l-0.267,4.452h0.059l0.069,-0.076l0.077,-0.003l0.052,0.041l0.139,-0.007l0.048,-0.041l0.077,0.003l0.035,0.028l0.045,0.003l0.038,-0.048l0.087,0.014l0.052,0.048l0.049,0.003l0.017,-0.027h0.049l0.104,0.058l0.115,-0.003l0.059,-0.045l-0.078,-0.17l-0.013,-0.117l0.071,-0.106l0.166,-0.067l0.068,-0.072l0.011,-0.078l0.062,-0.054l0.073,-0.021l0.029,-0.026v-0.041l0.073,-0.093l0.117,-0.062l0.05,-0.124l-0.029,-0.106l0.005,-0.067l0.031,-0.062l0.055,-0.034l0.055,0.008l0.094,-0.028l0.08,-0.011l0.034,-0.018l-0.002,-0.052l0.036,-0.033l0.058,0.005l0.135,0.129l0.042,-0.005l0.023,-0.075l0.024,-0.023l0.067,0.008l0.029,-0.019l0.021,-0.103l0.049,-0.034l0.152,-0.178l0.018,-0.114l0.029,-0.038h0.052l0.057,-0.031l-0.013,-0.062l0.013,-0.073l0.055,-0.026l0.021,-0.025v-0.062l0.086,-0.168l-0.008,-0.052l0.01,-0.047l0.078,-0.1l0.019,-0.055l-0.006,-0.119l0.034,-0.067l0.058,-0.039l0.062,-0.098l0.063,-0.036l0.013,-0.028l-0.008,-0.062l0.044,-0.07l0.003,-0.034l-0.068,-0.139l0.031,-0.078l0.128,-0.077l0.063,-0.011l0.018,-0.02l-0.039,-0.042l-0.071,-0.188l0.003,-0.104l0.052,-0.101l0.162,-0.051l0.036,-0.099l-0.078,-0.173l-0.023,-0.212l-0.034,-0.025l-0.05,0.012l-0.057,-0.023l-0.031,-0.111l-0.066,-0.13l-0.003,-0.293l0.024,-0.272l0.07,-0.241l0.069,-0.269l0.025,-0.179l0.062,-0.09l0.045,-0.003l0.049,0.031l0.049,0.003l0.069,-0.048l-0.01,-0.091l-0.063,-0.013l-0.069,0.011l-0.056,-0.035l-0.01,-0.044l-0.032,-0.025l-0.125,-0.058l-0.045,-0.062l-0.01,-0.176l0.031,-0.065l0.062,-0.042l0.025,-0.086l0.066,-0.072l0.066,-0.148l0.01,-0.142l0.059,-0.448l0.056,-0.155l0.076,-0.093l0.066,-0.038l0.028,-0.058l-0.021,-0.035l0.011,-0.076l0.069,-0.079l0.063,-0.255l0.045,-0.058l0.038,-0.176l0.014,-0.407l-0.028,-0.145l0.018,-0.313l-0.028,-0.021l-0.045,0.038l-0.07,0.017l-0.156,0.093l-0.063,-0.003l-0.038,-0.041l-0.028,-0.011l-0.059,0.017l-0.076,-0.031l-0.171,0.035l-0.1,0.059l-0.092,0.024l-0.013,-0.037l0.03,-0.05l0.06,-0.04l-0.017,-0.021l-0.159,0.068l-0.063,0.013l-0.055,-0.068l0.015,-0.07l0.26,-0.159l0.034,-0.067l0.052,-0.048l-0.007,-0.059l-0.045,-0.034l-0.004,-0.042l-0.055,-0.014l-0.146,0.035h-0.063l-0.055,-0.048l-0.053,0.003l-0.08,0.041h-0.055l-0.021,-0.037l-0.069,-0.011l-0.146,0.111l-0.021,0.165l-0.084,0.145v0.089l-0.187,0.248l-0.035,0.2l-0.042,0.083l-0.243,0.096l-0.042,0.056l0.042,0.075l-0.097,0.166l-0.035,0.22l-0.167,0.131l-0.146,0.269l-0.174,0.097l-0.013,0.103l-0.049,0.041l-0.083,-0.014l-0.195,-0.186l-0.169,-0.025l-0.156,-0.171l-0.099,-0.003l-0.214,0.101l-0.151,0.143v0.472z M315.632623,382.391617l0.013,0.025h0.02l0.015,-0.015l0.031,0.058l0.001,0.04l0.043,0.115l-0.007,0.033l-0.096,0.046l-0.067,0.077l-0.063,0.128l-0.004,0.047l-0.029,0.058l-0.03,0.033l-0.086,0.197l-0.035,0.029l-0.073,0.128l-0.039,0.031l-0.012,0.023l-0.01,0.038l-0.054,0.048l-0.065,0.016l-0.04,-0.003l-0.046,-0.01l0.003,-0.012l0.037,-0.009l0.029,-0.012l0.058,0.003l0.009,-0.016l-0.016,-0.02l0.003,-0.036l0.021,-0.04l0.005,-0.055l0.036,-0.078l0.039,-0.058l0.064,-0.153l0.073,-0.098l0.025,-0.014l-0.003,-0.05l-0.022,-0.01l-0.001,-0.027l0.04,-0.047h0.053l0.015,-0.017l-0.015,-0.021l-0.038,-0.007l0.002,-0.021l0.041,-0.023l0.053,-0.102l0.001,-0.041l0.038,-0.08l0.059,-0.063l0.024,-0.035z"/>
</svg>
