<svg xmlns="http://www.w3.org/2000/svg" viewBox="275.983 71.097 15.415 8.355">
  <path d="M276.280121,71.909016l0.111111,-0.36111l0.555554,-0.347222l0.513888,-0.104166l0.958331,0.041667l1.013887,0.104166l1.756941,0.489582l0.565971,0.315972l0.538193,0.152777l0.624999,-0.013889l0.513888,0.152777l0.347222,0.36111l0.208333,0.055555l0.277777,-0.069444h0.222222l0.041667,0.125l-0.249999,0.430555l-0.180555,0.138889v0.083333l0.624999,0.152777l0.444444,0.222222h0.263888l0.722221,-0.277777l0.916665,0.097222l1.361108,0.472221l0.722221,0.388888l0.347222,0.319444v0.138889l-0.48611,0.263888l-0.416666,0.069444l-0.319444,0.222222l-0.402777,0.208333l-0.541666,0.097222l-0.027778,0.083333l0.152777,0.111111l0.374999,-0.027778l0.305555,0.055555l0.430555,0.319444l0.069444,0.166666l0.527777,0.263888v0.194444l-0.208333,0.513888l-0.36111,0.444444l-0.249999,0.083333l-0.499999,-0.083333l-0.527777,-0.013889l-0.388888,0.222222l-0.666665,0.138889l-1.263886,0.36111l-1.041665,0.097222l-0.333333,-0.055555l-0.236111,-0.194444l-0.249999,-0.041667l-0.722221,0.194444l-0.027778,0.083333l0.111111,0.069444l0.236111,0.013889l0.138889,-0.083333l0.138889,0.013889l0.055555,0.097222l-0.152777,0.097222l-0.593749,0.006944l-0.125,0.083333l-0.142361,0.284722l-0.236111,0.041667l-0.222222,-0.041667l-0.166666,-0.083333l-0.36111,0.013889l-0.166666,-0.180555v-0.305555l0.152777,-0.166666l0.333333,-0.166666l-0.027778,-0.097222l-0.73611,-0.236111l-0.48611,-0.069444l-0.624999,-0.333333l-0.444444,-0.083333l-0.499999,-0.097222l0.013889,-0.097222l0.222222,-0.138889l0.013889,-0.111111l-0.083333,-0.083333l0.083333,-0.097222h0.708332l0.388888,0.111111l0.97222,-0.013889l0.518879,0.057705l0.189453,-0.00215l0.249999,-0.111111v-0.097222l-0.194444,-0.069444v-0.083333l0.083333,-0.055555l-0.013889,-0.125l-0.277777,-0.083333l-0.472221,-0.041667l-0.583332,-0.222222l-0.152777,-0.138889l-0.472221,-0.041667l-0.402777,0.083333l-0.402777,-0.027778l-0.430555,-0.138889h-0.277777l-0.249999,0.027778l-0.222222,-0.097222l0.041667,-0.069444l0.263888,-0.041667l0.263888,0.041667l0.125,-0.055555l-0.027778,-0.097222l-0.374999,-0.263888l-0.569443,-0.069444l-0.111111,-0.069444l0.013889,-0.097222l0.083333,-0.069444l0.013889,-0.152777l-0.194444,-0.333333l-0.277777,-0.180555l-0.708332,-0.277777l-0.152777,-0.277777l0.097222,-0.277777l0.249999,-0.138889l0.805554,-0.013889l0.152777,-0.125l-0.027778,-0.152777l-0.249999,-0.194444l-0.458332,-0.194444l-0.083333,-0.166666l-0.208333,-0.125l-0.111111,-0.263888l-0.055555,-0.36111Z M281.422431,76.847732l-0.101961,0.023529l-0.015686,0.062745l0.117647,0.015686l0.117647,-0.039216v-0.054902l-0.117647,-0.007843Z M282.283581,79.450668h0.21875l0.072917,-0.052083l-0.052083,-0.052083l-0.260416,-0.010417l-0.052083,0.052083l0.072917,0.0625Z M280.200252,79.086085l0.260416,0.010417l0.03125,-0.052083l-0.166666,-0.09375l-0.135416,0.010417l-0.0625,0.052083l0.072917,0.072917Z M276.064844,71.346518h0.1875l0.0625,-0.104166l-0.083333,-0.083333h-0.145833l-0.104166,0.083333l0.083333,0.104166Z M290.377315,75.950675l0.354166,0.333333l0.479166,0.104166l0.1875,-0.083333v-0.249999l-0.520832,-0.458332l-0.499999,-0.104166l-0.333333,0.125l-0.041667,0.145833l0.374999,0.1875Z "/>
</svg>
