<svg xmlns="http://www.w3.org/2000/svg" viewBox="341.481 110.033 17.852 7.225">
  <path d="M341.481,112.701l0.083-0.542l0.229-0.146l0.042-0.146l-0.271-0.229l-0.083-0.292l0.062-0.375l0.229-0.229l0.021-0.292l-0.104-0.25l0.083-0.146l0.917-0.021l0.708,0.062l0.729,0.333h0.292l0.146-0.104h0.333l1.312,0.438l0.708,0.146l1.375-0.042l0.354-0.188l2.5-0.042l0.583,0.083l0.25,0.208l0.542,0.208l1.042,0.188l1.271,0.437l0.625,0.521l0.292,0.542l0.312,0.229l0.458,0.042l0.292,0.167l0.104,0.229l0.458,0.333v0.208l-0.104,0.104l0.021,0.188l0.333,0.229l0.646,0.083l0.167,0.229l-0.062,0.375l0.062,0.312l0.208,0.229l0.458,0.062l0.229,0.167v0.229l-0.583,0.375l-1.146,0.146l-2.396-0.271l-1.458-0.292l-1.833-0.042l-1.375,0.146l-1.438,0.458l-1.625,0.5l-0.979-0.062l-1.021-0.5l-0.75-0.333l-0.5-0.792l-0.083-0.521l0.125-0.521l-0.062-0.562l-0.333-0.208l-0.875-0.083l-1.042-0.208l-0.312-0.188L341.481,112.701L341.481,112.701z"/>
</svg>
