<svg xmlns="http://www.w3.org/2000/svg" viewBox="259.862 87.187 21.918 15.844">
  <path d="M264.328756,89.020093v-0.145833l0.604165,-0.291666l0.999998,-0.125l0.687499,-0.333333l0.374999,-0.312499l1.083331,-0.208333l1.208331,0.125l0.041667,0.145833l-0.541666,0.312499l-1.854163,0.666665l-1.270831,0.354166l-0.666665,0.020833l-0.666665,-0.208333Z M265.641254,87.395096l0.166666,-0.020833l0.104166,-0.083333l-0.041667,-0.104166h-0.208333l-0.166666,0.125l0.145833,0.083333Z M277.57873,89.290926l0.270833,0.0625l0.437499,-0.020833l0.041667,-0.083333l-0.270833,-0.145833l-0.437499,-0.041667l-0.1875,0.083333l0.145833,0.145833Z M274.203737,88.561761l0.104166,-0.041667l-0.1875,-0.229166l-0.458332,-0.0625l-0.020833,0.104166l0.208333,0.104166l0.354166,0.125Z M272.891239,88.728427l0.249999,-0.0625l0.104166,-0.083333l-0.145833,-0.083333l-0.333333,0.0625l-0.104166,0.125l0.229166,0.041667Z M269.932912,87.978429l0.291666,0.0625l0.291666,-0.041667v-0.145833l-0.166666,-0.041667l-0.374999,0.041667l-0.041667,0.125Z M271.099576,88.103428l0.604165,0.145833l0.395833,0.083333l0.333333,-0.104166l0.0625,-0.166666l-0.333333,-0.208333l-0.541666,-0.083333l-0.624999,0.083333l-0.041667,0.145833l0.145833,0.104166Z M263.766258,88.964538h0.125l0.083333,-0.069444l-0.055555,-0.055555h-0.125l-0.125,0.083333l0.097222,0.041667Z M266.66903,91.186755l0.138889,-0.013889l0.055555,-0.069444l-0.083333,-0.055555l-0.180555,0.013889l-0.041667,0.083333l0.111111,0.041667Z M267.544028,90.950645h0.097222l0.111111,-0.069444l-0.055555,-0.069444h-0.125l-0.111111,0.069444l0.083333,0.069444Z M281.613444,92.256198l0.125,-0.013889l0.041667,-0.083333l-0.041667,-0.055555l-0.152777,-0.013889l-0.083333,0.083333l0.111111,0.083333Z M270.276661,96.384662l0.166666,-0.010417l0.072917,-0.114583l-0.03125,-0.09375l-0.114583,-0.03125l-0.135416,0.0625l-0.041667,0.125l0.083333,0.0625Z M270.672494,96.072162l0.1875,-0.03125l0.072917,-0.041667l-0.041667,-0.052083l-0.208333,0.010417l-0.125,0.0625l0.114583,0.052083Z M266.891251,96.790911l0.437499,-0.010417l0.854165,-0.1875l0.906248,-0.072917l0.458332,0.072917l0.239583,-0.072917l0.041667,-0.125l-0.135416,-0.15625l-0.229166,-0.03125l-1.052081,0.104166l-1.406247,0.270833l-0.239583,0.125l0.125,0.083333Z M265.287088,97.020077l0.385416,-0.072917l0.104166,-0.125l-0.0625,-0.072917l-0.552082,-0.03125l-0.281249,0.135416v0.104166l0.406249,0.0625Z M269.09958,97.374243l0.083333,-0.052083v-0.052083l-0.260416,-0.03125l-0.312499,0.083333v0.052083l0.229166,0.03125l0.260416,-0.03125Z M279.294004,99.992293l-0.055555,-0.208333l-0.666665,-0.749998l-0.819443,-0.208333l-0.194444,-0.249999l0.069444,-0.263888l0.499999,-0.041667l0.027778,-0.111111l-0.319444,-0.166666l0.069444,-0.111111l0.541661,-0.041641l0.013901,-0.152832l-0.305563,-0.124971l-0.166666,-0.180555l0.125,-0.236111l0.222222,-0.027778l0.138889,0.291666l0.208333,0.013889l0.055555,-0.208333l-0.180555,-0.305555l0.027778,-0.125l0.249999,-0.125l0.249999,0.027778l0.583332,0.402777l0.194444,0.48611l0.458332,0.305555l0.138889,-0.041667l-0.041667,-0.138889l-0.249999,-0.166666l-0.125,-0.61111l0.027778,-0.597221l0.125,-0.291666l0.013889,-0.194444l-0.277777,-0.166666l-0.73611,-0.069444l-0.874998,-0.180555l-0.027778,-0.083333l0.236111,-0.208333l0.597221,-0.125l0.222222,-0.402777v-0.527777l-0.152777,-0.388888l0.055555,-0.458332l0.458332,-0.597221l0.055555,-0.430555l-0.111111,-0.249999l-0.784721,-0.659721l-0.104166,-0.291666l0.104166,-0.479166l0.145833,-0.249999l-0.020833,-0.499999l-0.395833,-0.229166l-1.562497,-0.208333l-0.541666,-0.270833l0.020833,-0.104166l0.395833,0.083333l0.249999,-0.0625l-0.104166,-0.125l-0.479166,-0.083333l-0.166666,-0.1875l-0.1875,-0.312499l-0.562499,-0.125l-0.729165,0.0625l-0.104166,0.104166l0.041667,0.145833l0.729165,0.083333l0.208333,0.104166l-0.083333,0.145833l-0.458332,0.0625l-0.520832,-0.083333l-0.624999,0.166666l-0.145833,0.312499l0.229166,0.270833l0.333333,0.229166l-0.083333,0.166666l-0.291666,-0.0625l-0.312499,0.145833l-0.0625,0.208333l0.104166,0.145833l-0.104166,0.104166l-0.416666,-0.145833l-0.1875,-0.333333l0.229166,-0.229166l-0.104166,-0.145833l-0.437499,-0.125l-0.770832,-0.687499l-0.312499,-0.145833l-0.437499,0.020833l-0.208333,0.104166l-0.437499,0.020833l-0.604165,-0.145833l-0.749998,-0.041667l-1.249997,0.416666l-0.374999,0.312499l-0.749998,0.208333l-0.125,0.1875l0.208333,0.312499l0.729165,0.437499l0.812498,0.125l0.812498,-0.125l0.520832,0.125l0.708332,0.479166l-0.0625,0.145833l-0.374999,0.083333l-0.708332,-0.0625l-0.624999,0.020833l-0.333333,0.1875l0.020833,0.145833l0.541666,0.208333l0.666665,0.083333l0.520832,-0.041667l0.499999,0.104166l0.624999,0.270833h0.249999l0.354166,-0.0625l0.041667,0.125l-0.333333,0.166666h-0.437499l-0.604165,-0.1875l-0.499999,-0.041667l-0.333333,0.0625v0.1875l0.562499,0.708332l0.479166,0.374999l0.437499,0.104166l0.541666,-0.0625l0.0625,0.104166l-0.437499,0.249999l-0.666665,0.041667l-0.812498,-0.270833l-0.874998,-0.812498l-0.749998,-0.229166l-1.166664,-0.895832l-0.729165,-0.229166l-0.1875,-0.249999l0.041667,-0.374999l-0.333333,-0.374999l-0.874998,-0.458332l-1.291664,-0.145833l-0.583332,0.083333l-0.374999,0.354166l-0.291666,0.624999v0.354166l-0.104166,0.125l0.020833,0.1875l0.458332,0.104166l0.854165,-0.0625l0.979165,-0.041667l0.1875,0.083333l-0.312499,0.145833l-0.666665,0.104166l-0.562499,0.437499l-0.041667,0.354166l0.374999,0.520832l0.437499,0.125l0.729165,-0.083333l0.354166,-0.083333l0.166666,0.020833l-0.125,0.1875l-0.604165,0.229166l-0.173611,0.277777l0.069444,0.305555l0.208333,0.194444l0.333333,0.013889l0.305555,0.194444v0.263888l0.166666,0.111111l0.48611,-0.013889l0.305555,-0.166666l0.291666,-0.055555l0.138889,0.041667l-0.041667,0.097222l-1.013887,0.291666h-0.388888l-0.249999,-0.111111l-0.041667,-0.166666l-0.277777,-0.236111l-1.083331,-0.527777l-0.347222,-0.041667l-0.791665,0.097222l-0.749998,0.263888l-0.249999,0.319444l0.069444,0.194444l0.319444,0.041667l0.263888,-0.083333l0.180555,0.041667l-0.013889,0.097222l-0.333333,0.125l0.013889,0.097222h0.208333l0.194444,0.083333l-0.055555,0.111111h-0.277777l-0.36111,-0.152777h-0.555554l-0.472221,0.166666l-0.263888,0.36111l-0.208333,0.125l-0.36111,0.027778l-0.125,0.111111l0.013889,0.152777l0.319444,0.222222l0.111111,0.222222l0.333333,0.263888h0.319444l0.763887,-0.305555l0.73611,-0.055555l0.249999,0.055555h0.416666l1.22222,-0.263888l0.513888,-0.138889l0.513888,0.013889l0.194444,0.083333l0.680554,-0.041667l1.319442,-0.166666l1.666663,-0.347222l1.944441,-0.166666l0.347222,0.041667l-0.013889,0.138889l-0.291666,0.125l-0.114583,0.114583l0.052083,0.083333l0.270833,0.03125l0.0625,0.114583l-0.572916,0.166666l-0.520832,0.114583l-0.21875,0.166666l-0.552082,0.104166l0.010417,0.09375l1.572913,-0.020833l0.15625,0.09375l-0.0625,0.0625l-0.260416,0.0625l-0.249999,-0.020833l-1.041665,-0.03125l-0.229166,0.052083l-0.03125,0.052083l0.083333,0.03125h0.614582l0.135416,0.052083l-0.03125,0.052083l-0.406249,0.072917l-0.624999,-0.020833l-1.322914,0.0625l-0.072917,0.0625l0.09375,0.09375l0.531249,0.125l0.281249,0.177083l-0.020833,0.125l-0.447916,0.145833l-0.330882,0.03027l-0.078431,-0.054902l0.070588,-0.070588l-0.047059,-0.047059l-0.243137,0.054902l-0.054902,0.086274l0.133333,0.12549l0.282352,0.117647l0.164706,0.149019l0.311764,0.056863l0.624999,-0.03125l0.333333,-0.114583l0.239583,0.03125l-0.020833,0.083333l-0.520832,0.1875v0.072917l0.1875,0.09375l0.802082,0.010417l0.385416,0.09375l-0.041667,0.072917l-0.791665,0.052083l-0.687499,-0.052083l-0.364583,0.041667l-0.197916,0.15625l0.010417,0.114583l0.430555,0.229166l0.152777,0.388888l-0.013889,0.458332l0.152777,0.277777l0.888887,0.263888l1.958329,0.069444l0.402777,-0.138889l0.027778,-0.222222l-0.055555,-0.138889l0.125,-0.222222l0.48611,-0.36111l0.097222,0.027778l0.013889,0.166666l-0.333333,0.333333l-0.055555,0.222222l0.138889,0.166666l0.916665,0.027778l0.458332,-0.125l0.055555,-0.208333l0.236111,-0.138889l0.111111,0.027778l-0.027778,0.166666l0.125,0.180555l0.444444,0.083333l0.708332,-0.027778l0.986109,-0.180555l0.805554,-0.027778l0.263888,-0.083333l0.083333,-0.36111l-0.222222,-0.277777l-0.444444,-0.222222v-0.222222l0.166666,-0.152777l0.111111,0.055555l0.041667,0.208333l0.48611,0.291666l0.444444,0.125l0.513888,-0.069444l0.138889,-0.138889Z M280.55789,97.117299l0.194444,-0.027778l0.041667,-0.097222l-0.083333,-0.111111l-0.180555,0.027778l-0.111111,0.125l0.138889,0.083333Z M279.22456,97.367299l-0.027778,0.152777l0.097222,0.194444h0.097222l0.013889,-0.152777l-0.055555,-0.166666l-0.125,-0.027778Z M279.252337,98.478407h0.180555l0.041667,-0.125l-0.111111,-0.097222h-0.180555l-0.055555,0.111111l0.125,0.111111Z M280.780112,98.506185l0.013889,0.249999l0.180555,0.208333h0.166666l0.041667,-0.319444l-0.111111,-0.249999l-0.347222,-0.097222l-0.069444,0.083333l0.125,0.125Z M278.995394,101.020069l0.249999,0.010417l0.166666,-0.0625l0.010417,-0.104166l-0.104166,-0.072917h-0.249999l-0.125,0.09375l0.052083,0.135416Z M276.568315,102.988815l0.239583,0.041667l0.395833,-0.041667l0.104166,-0.114583l-0.052083,-0.083333l-0.583332,-0.010417l-0.166666,0.114583l0.0625,0.09375Z "/>
</svg>
