<svg xmlns="http://www.w3.org/2000/svg" viewBox="341.481 110.033 17.853 7.226">
  <path d="M341.481379,112.700601l0.083333,-0.541666l0.229166,-0.145833l0.041667,-0.145833l-0.270833,-0.229166l-0.083333,-0.291666l0.0625,-0.374999l0.229166,-0.229166l0.020833,-0.291666l-0.104166,-0.249999l0.083333,-0.145833l0.916665,-0.020833l0.708332,0.0625l0.729165,0.333333h0.291666l0.145833,-0.104166h0.333333l1.312497,0.437499l0.708332,0.145833l1.374997,-0.041667l0.354166,-0.1875l2.499995,-0.041667l0.583332,0.083333l0.249999,0.208333l0.541666,0.208333l1.041665,0.1875l1.270831,0.437499l0.624999,0.520832l0.291666,0.541666l0.312499,0.229166l0.458332,0.041667l0.291666,0.166666l0.104166,0.229166l0.458332,0.333333v0.208333l-0.104166,0.104166l0.020833,0.1875l0.333333,0.229166l0.645832,0.083333l0.166666,0.229166l-0.0625,0.374999l0.0625,0.312499l0.208333,0.229166l0.458332,0.0625l0.229166,0.166666v0.229166l-0.583332,0.374999l-1.145831,0.145833l-2.395829,-0.270833l-1.45833,-0.291666l-1.83333,-0.041667l-1.374997,0.145833l-1.437497,0.458332l-1.624997,0.499999l-0.979165,-0.0625l-1.020831,-0.499999l-0.749998,-0.333333l-0.499999,-0.791665l-0.083333,-0.520832l0.125,-0.520832l-0.0625,-0.562499l-0.333333,-0.208333l-0.874998,-0.083333l-1.041665,-0.208333l-0.312499,-0.1875l-0.166666,-0.583332Z "/>
</svg>
