<svg xmlns="http://www.w3.org/2000/svg" viewBox="345.437 92.336 3.470 2.186">
  <path d="M345.783453,93.877722l0.197916,-0.0625l0.09375,-0.1875l0.687499,-0.458332l0.364583,-0.15625l0.437499,-0.374999l0.166666,-0.197916l0.302083,-0.104166l0.562499,0.052083l0.312499,0.145833v0.15625l-0.416666,0.354166l-0.499999,0.145833l-0.354166,0.239583l-0.010417,0.15625l0.260416,0.229166l0.697915,0.260416l0.052083,0.15625l-0.135416,0.072917l-0.270833,-0.052083l-0.104166,-0.145833l-0.1875,-0.0625l-0.229166,0.041667h-0.302083l-0.270833,-0.072917l-0.229166,0.052083l-0.114583,0.166666v0.208333l-0.1875,0.083333l-0.416666,-0.052083l-0.114583,-0.114583l0.020833,-0.135416l-0.15625,-0.083333l-0.333333,0.010417l-0.166666,-0.083333l0.041667,-0.135416l0.302083,-0.052083Z "/>
</svg>
