<svg xmlns="http://www.w3.org/2000/svg" viewBox="300.073 33.388 114.502 58.808">
  <path d="M401.779868,36.089379l0.055555,-0.083891l0.36111,-0.041945l0.166666,0.055927l-0.013889,0.069909l-0.374999,0.069909l-0.194444,-0.069909Z M391.863222,37.277832l0.208333,-0.013982l0.388888,-0.097873l0.041667,-0.083891l-0.263888,-0.055927l-0.333333,0.083891l-0.138889,0.097873l0.097222,0.069909Z M376.658391,35.257461l0.114583,0.083891l0.197916,0.020973l0.052083,-0.062918l-0.145833,-0.073404l-0.135416,-0.010486l-0.083333,0.041945Z M368.262575,36.001992l0.09375,0.094377l0.135416,-0.041945l0.010417,-0.083891l-0.09375,-0.062918l-0.09375,0.010486l-0.052083,0.083891Z M350.66886,35.921597l0.194444,-0.027964l0.569443,-0.363527l0.083333,-0.139818l-0.208333,-0.1538l-0.597221,-0.083891l-0.374999,0.097873l-0.041667,0.209727l0.180555,0.391491l0.194444,0.069909Z M359.710509,38.997595l0.097222,-0.209727l-0.055555,-0.1538h-0.125l-0.069444,0.125836l0.027778,0.1538l0.125,0.083891Z M347.970949,84.773574v-0.281249l-0.21875,-0.333333l-1.104164,-0.354166l-0.958331,-0.083333l-0.620849,0.090856l-0.399982,0.159144l-0.624999,0.541666l-0.499999,0.333333l-0.416666,0.0625l0.083333,-0.145833l0.541666,-0.312499l0.270833,-0.333333l-0.041667,-0.145833l-1.45833,-0.270833l-1.729163,-0.249999l-0.833332,0.083333l-1.562497,0.604165l-0.333333,0.083333h-0.395833l-0.291666,-0.249999l-0.1875,-0.291666l-0.666665,-0.249999v-0.145833l0.458332,-0.0625l0.666665,0.125h1.166664l1.229164,-0.208333l0.020833,-0.1875l-0.208333,-0.166666l-0.937498,-0.125l-0.812498,-0.354166l-0.083333,-0.229166l0.208333,-0.354166l-0.0625,-0.291666l-0.770832,-0.604165l-0.104166,-0.395833l0.125,-0.229166l0.145833,0.041667l0.125,0.333333l0.208333,0.270833l0.437499,0.166666l0.249999,0.437499l0.479166,0.333333l0.416666,0.145833l0.291666,0.291666l0.312499,0.166666l0.583332,0.145833l0.416666,0.208333l0.333333,0.249999l1.208331,0.270833l0.479166,0.0625l0.395833,-0.041667l1.041665,0.104166l0.541666,-0.0625l0.479166,-0.166666l0.791665,0.0625l0.687499,0.125l0.749998,-0.041667l0.583332,-0.270833l0.479166,-0.374999l0.270833,-0.0625l0.083333,0.083333l-0.083333,0.166666l-0.354166,0.291666v0.104166l0.333333,0.041667l0.729165,-0.312499l0.708332,-0.583332l0.729165,-0.333333l0.604165,-0.125l0.145833,-0.1875v-0.291666l0.249999,-0.166666l0.541666,-0.166666l0.145833,-0.166666l-0.125,-0.125l-0.270833,-0.083333l-0.312499,-0.249999l-0.562499,-0.145833l-0.083333,-0.229166l0.312499,-0.291666l0.125,-0.229166l-0.104166,-0.1875l-1.124998,-0.604165l-0.458332,-0.166666l-0.104166,-0.145833l0.083333,-0.270833l0.333333,-0.249999l0.770832,-0.041667l0.687499,0.145833l1.916663,0.125l0.791665,-0.020833l0.708332,0.104166l0.749998,0.354166h0.291666l0.249999,-0.041667l0.041667,-0.125l-0.229166,-0.125l0.041667,-0.125l0.520832,-0.020833l0.624999,-0.395833l0.624999,-0.1875l0.374999,0.020833l0.520832,0.229166l0.437499,0.020833l0.645832,-0.270833l0.437499,-0.583332l-0.041667,-0.229166l-0.458332,-0.166666l-1.333331,-0.083333l-1.166664,0.0625l-1.479164,-0.270833l-0.458332,-0.229166l0.0625,-0.166666l1.020831,-0.1875l2.062496,0.0625l1.083331,0.1875l0.395833,0.145833l0.520832,-0.020833l0.520832,-0.499999l0.0625,-0.249999l0.395833,-0.145833l0.604165,0.020833l0.083333,-0.1875l-0.1875,-0.291666l-1.166664,-0.458332l-1.270831,-0.145833l-1.104164,-0.208333l-0.416666,-0.270833l-1.020831,0.020833l-0.416666,0.041667l-0.166666,-0.145833l0.354166,-0.166666l1.249997,-0.041667l0.687499,0.104166l0.708332,0.229166l1.666663,-0.0625l1.541664,-0.270833l0.520832,-0.354166l0.291666,-0.0625l0.312499,0.041667l0.166666,-0.083333v-0.166666l-0.437499,-0.1875h-0.249999l-0.1875,-0.1875l0.0625,-0.291666l0.291666,-0.125l0.083333,-0.229166l0.020833,-0.479166l-0.416666,-0.354166l-1.499997,-0.395833l-1.416664,-0.0625l-1.854163,0.104166l-0.229166,-0.104166l0.083333,-0.145833l1.104164,-0.125l0.458332,-0.1875l-0.104166,-0.1875l-1.354164,-0.270833l-2.354162,-0.125l-1.749996,0.270833l-1.666663,0.145833l-0.958331,0.583332l-0.854165,0.916665l-0.166666,0.041667l-0.083333,-0.145833l0.479166,-0.645832l0.958331,-0.812498l0.444444,-0.180555l0.055555,-0.152777l-0.416666,-0.208333l-1.208331,-0.041667l-0.499999,-0.111111h-1.791663l0.125,-0.097222l1.83333,-0.125l0.541666,0.104166l1.062498,0.020833l0.458332,0.166666l0.166666,0.1875l0.541666,0.0625l0.874998,-0.270833l1.64583,-0.208333l0.888887,-0.006944l1.166664,0.111111l0.569443,-0.013889l0.180555,-0.069444l-0.027778,-0.125l-0.874998,-0.277777l-1.444442,-0.194444l-1.388886,-0.027778l-0.930554,-0.083333l-1.972218,-0.055555l-0.944443,0.041667l-0.805554,0.166666l-0.263888,-0.013889l0.138889,-0.083333l0.986109,-0.277777l0.874998,-0.069444l1.999996,-0.013889l0.916665,0.138889l0.722221,0.013889l0.458332,-0.055555l1.777774,-0.041667l0.861109,0.055555l0.666665,0.319444l0.041667,0.138889l-0.055555,0.277777l0.125,0.125l0.597221,0.180555l1.180553,0.125l2.166662,0.277777l0.763887,-0.013889l0.527777,-0.125l0.027778,-0.125l-0.36111,-0.458332l-0.569443,-0.347222l-0.374999,-0.083333l-0.055555,-0.111111l0.194444,-0.125l0.777776,-0.097222l0.208333,-0.138889l0.013889,-0.111111l-0.583332,-0.097222l-3.638882,-0.069444l-0.555554,0.138889l-0.749998,-0.027778l-0.388888,-0.097222l-0.138889,-0.152777l-0.472221,-0.083333l-1.361108,-0.041667l-0.430555,-0.041667l-1.166664,0.013889l-0.888887,0.222222l-0.444444,0.027778l-0.055555,-0.055555l0.083333,-0.041667l0.152777,-0.013889l0.013889,-0.069444l-0.569443,-0.236111l-0.708332,-0.138889l-0.652776,-0.041667l-0.583332,-0.166666l0.013889,-0.097222l0.374999,-0.083333l0.402777,0.027778l0.347222,0.125l1.041665,0.041667l0.541666,0.125l0.319444,0.013889l0.055555,-0.083333l-0.194444,-0.236111l-0.48611,-0.527777l-0.111111,-0.125l0.083333,-0.111111h0.263888l0.125,0.083333l0.236111,-0.041667l0.111111,-0.083333l0.208333,-0.013889l0.111111,0.097222v0.180555l-0.041667,0.111111l0.097222,0.263888l0.402777,0.249999l0.708332,0.097222l1.611108,-0.041667l0.861109,0.083333l0.652776,-0.055555l0.013889,-0.083333l-0.902776,-0.402777l-0.194444,-0.180555l0.027778,-0.111111l0.111111,-0.041667l0.013889,-0.097222l-0.347222,-0.138889l-0.888887,0.027778l-0.472221,-0.069444l-0.291666,-0.152777h-0.263888l-0.249999,0.069444l-0.569443,-0.013889l-0.61111,-0.152777l-0.125,-0.194444l-0.027778,-0.166666l0.222222,-0.152777l0.180555,0.041667l0.347222,0.263888l0.583332,0.111111l0.680554,-0.041667l1.666663,0.152777l0.527777,0.194444l0.277777,0.388888l0.277777,0.097222l1.138887,0.097222l0.958331,0.222222l0.986109,0.125l0.555554,-0.055555l0.194444,-0.194444l-0.041667,-0.208333l-0.430555,-0.36111l-0.055555,-0.166666l0.111111,-0.180555l0.208333,-0.013889l0.902776,0.48611l0.624999,0.111111l1.777774,-0.027778l0.388888,-0.194444l0.041667,-0.236111l-0.111111,-0.291666l0.027778,-0.138889l0.138889,-0.027778l0.430555,0.180555l0.333333,0.236111l0.499999,0.041667l1.152775,-0.152777l0.555554,-0.305555l-0.013889,-0.249999l-0.152777,-0.138889l-0.013889,-0.111111l0.111111,-0.152777l-0.055555,-0.263888l-0.402777,-0.583332l-0.333333,-0.270833l-0.395833,-0.145833h-0.541666l-0.562499,-0.020833l-0.854165,-0.249999l-1.749996,-0.104166l-1.208331,0.083333l-1.249997,-0.104166l-0.229166,-0.145833l0.125,-0.125l0.874998,-0.0625l1.729163,-0.104166l0.541666,-0.1875h1.083331l0.906248,0.197916l-0.010417,0.083333l-0.347222,0.114583l-0.013889,0.097222l0.319444,0.027778l0.895832,-0.0625l1.42708,0.125l0.520832,0.270833l0.343749,0.499999l0.749998,0.291666h0.687499l0.395833,-0.083333l0.291666,0.041667l0.249999,0.1875l0.458332,-0.020833l0.520832,-0.208333l1.916663,-0.208333l1.333331,-0.479166l0.833332,-0.645832v-0.249999l-0.395833,-0.166666l-0.520832,-0.020833l-0.624999,0.1875l-0.312499,-0.020833l-0.020833,-0.166666l0.562499,-0.374999l1.416664,-0.229166l0.520832,-0.0625l0.354166,-0.208333l0.479166,-0.145833l0.1875,-0.374999l-0.249999,-0.249999l-0.895832,-0.145833l-1.333331,0.291666l-1.187498,0.229166l-2.270829,0.083333l-0.395833,-0.0625l0.145833,-0.125l0.854165,-0.104166l0.0625,-0.166666l-1.312497,-0.562499l-0.333333,-0.291666l0.145833,-0.083333l0.437499,0.229166l0.666665,0.104166l0.624999,0.333333l0.1875,0.1875l0.520832,0.145833l0.749998,-0.125l1.104164,-0.333333l1.479164,-0.229166l1.083331,0.041667l1.062498,0.020833l0.312499,-0.125l0.520832,-0.374999l-0.020833,-0.208333l-0.999998,-0.354166l-0.666665,-0.1875l-0.229166,-0.229166l0.0625,-0.208333l0.229166,-0.083333l-0.041667,-0.229166l-1.229164,-0.958331v-0.166666l0.229166,0.020833l1.249997,0.687499l0.395833,0.395833v0.229166l-0.208333,0.229166l0.0625,0.166666l1.104164,0.104166l1.395831,-0.208333l0.916665,-0.458332l0.770832,-0.916665l1.270831,-0.958331l1.666663,-0.937498l1.166664,-0.270833l0.583332,-0.229166l0.424334,-0.398571l0.700664,-0.184761l0.041667,-0.166666l-0.145833,-0.229166l0.083333,-0.145833l0.479166,0.020833l0.937498,-0.145833l2.083329,-0.874998l0.854165,-0.833332l0.687499,-0.437499l0.666665,-0.291666l0.874998,-0.020833l1.64583,-0.437499l2.645828,-1.083331l0.708332,-0.624999l-0.0625,-0.354166l-0.333333,-0.249999l-1.64583,0.020833l-4.729157,0.743054l-2.888883,0.666665l-4.666657,0.916665l-3.388882,0.527777l-1.22222,0.305555l-0.111111,-0.111111l0.249999,-0.249999l1.749996,-0.388888l2.999994,-0.666665l4.361102,-0.999998l1.333331,-0.444444l-0.027778,-0.194444l-1.22222,-0.277777l-3.111105,0.083333l-1.527775,0.138889l-0.083333,-0.166666l0.416666,-0.138889l2.999994,-0.305555l3.555548,-0.194444h2.111107l1.916663,-0.472221l0.083333,-0.249999l0.555554,-0.305555l0.944443,-0.027778l1.416664,0.305555l1.249997,-0.194444l2.222218,-0.944443l2.55555,-0.694443l1.472219,-0.669879l-0.027778,-0.1538l0.069444,-0.083891h0.222222l0.291666,0.055927l1.166664,-0.475381l0.458332,-0.279636l-0.027778,-0.125836l-0.347222,-0.097873v-0.097873l0.791665,-0.1538l0.958331,-0.097873l0.461764,-0.100147l0.843789,-0.473107l0.305555,-0.405472l-0.004248,-0.580241l-0.151305,-0.295654l-0.441668,-0.424413l-1.194442,-0.531309l-1.166664,-0.111854l-1.319442,-0.069909v-0.097873l0.116666,-0.092514l-0.023529,-0.054902l-0.094117,-0.031372l-1.179573,0.011007l-0.499999,0.125836h-0.680554l-0.319444,0.209727l-0.347222,0.3076l-0.166666,-0.055927l-0.013889,-0.279636l0.347222,-0.531309l0.347222,-0.111854v-0.097873l-1.069442,-0.223709l-0.652776,-0.055927v-0.097873l0.472221,-0.111854l0.027778,-0.097873l-0.763887,-0.237691l-0.458332,-0.069909l-0.194444,-0.181763l-0.569443,-0.195745l0.027778,-0.083891l0.305555,-0.055927l0.291666,0.055927l0.388888,-0.125836l0.263888,-0.335563l-0.013889,-0.265654l-0.374999,-0.226139l-0.260416,-0.0625l-0.836804,-0.060907l-0.791665,0.041945l-0.61111,0.363527l-0.680554,0.069909l-0.055555,0.083891l0.027778,0.111854l-0.083333,0.041945l-0.652776,-0.293618l-0.374999,-0.419454l0.055555,-0.335563l0.166666,-0.083891l-0.027778,-0.181763l-0.652776,-0.055927l-1.34722,0.125836l-0.152777,0.1538l-0.013889,0.209727l0.041667,0.125836l-0.138889,0.265654l-0.458332,0.195745l-0.222222,-0.041945l-0.013889,-0.125836l0.125,-0.111854l-0.041667,-0.1538l-0.652776,-0.069909l-0.73611,0.027964l-2.111107,0.531309l-1.069442,0.405472l-1.083331,0.209727l-1.249997,0.265654l-0.527777,0.251673l-0.708332,0.097873l-1.652774,0.055927l-0.374999,0.069909h-0.277777l-0.277777,-0.041945l-0.763887,0.125836l-0.402777,0.027964l-0.013889,-0.111854l0.527777,-0.265654l1.069442,-0.209727l0.73611,-0.027964l1.805552,-0.405472l1.319442,-0.4614l0.847221,-0.111854l1.666663,-0.643163l0.499999,-0.3076l0.055555,-0.181763l-0.180555,-0.111854l-1.013887,-0.041945l-0.194444,-0.1538l-0.222222,-0.013982l-0.236111,0.195745h-0.222222l-0.180555,-0.181763l-0.458332,-0.069909l-0.263888,0.111854l-0.027778,0.111854l-0.472221,0.041945l-0.569443,-0.195745l-1.611108,-0.097873l-0.680554,0.223709l-0.236111,-0.027964l-0.083333,-0.181763l0.055555,-0.195745l-0.208333,-0.1538l-1.041665,-0.1538l-0.541666,0.111854l-0.444444,0.251673l-0.097222,0.209727l-0.194444,0.013982l-0.499999,-0.251673l-0.097222,-0.377509l-0.263888,-0.125836l-0.555554,0.027964l-1.180553,0.335563l-0.458332,0.027964l0.013889,-0.111854l0.61111,-0.237691l0.041667,-0.097873l-0.166666,-0.069909l-0.749998,0.013982l-0.125,-0.097873l0.097222,-0.1538l0.263888,-0.013982l0.055392,-0.09286l-0.104575,-0.120261l-0.52026,-0.164387l-2.152773,-0.083891l-2.19444,0.251673l-1.388886,0.4614l-0.277777,0.237691v0.139818l0.930554,0.447418l1.069442,0.293618l0.416666,0.279636l-0.083333,0.097873l-0.472221,-0.041945l-0.888887,-0.293618l-0.888887,-0.125836l-1.166664,-0.671127l-0.055555,-0.251673l0.305555,-0.3076l0.374999,-0.167782l-0.069444,-0.139818l-0.916665,-0.167782l-2.999994,0.041945l-1.333331,0.125836l-0.833332,0.237691l-0.847221,0.125836l-0.833332,0.041945l-0.48611,0.1538l-0.138889,0.181763l0.138889,0.3076l0.402777,0.139818l0.36111,-0.097873l0.666665,0.027964l0.027778,0.083891l-0.48611,0.251673l-0.236111,0.055927l-0.027778,0.1538l0.249999,0.167782l0.48611,0.1538l0.277777,0.279636l0.138889,0.265654l0.999998,0.447418l1.138887,0.223709l1.083331,0.419454l0.097222,0.237691l-0.222222,0.335563l-0.374999,0.237691l-0.111111,0.237691l-0.180555,-0.013982l-0.166666,-0.195745l0.055555,-0.237691l0.291666,-0.167782l-0.027778,-0.167782l-0.527777,-0.279636l-1.666663,-0.377509l-1.722219,-0.69909l-0.97222,-0.810945l-0.430555,-0.517327l-0.874998,-0.419454l-0.513888,-0.139818l0.027778,-0.097873l0.513888,-0.041945v-0.069909l-0.208333,-0.167782v-0.097873l0.277777,-0.013982l0.555554,0.139818l0.472221,-0.070427l0.333333,-0.195227l0.041667,-0.139818l-0.708332,-0.3076l-2.916661,-0.083891l-1.611108,0.097873l-3.249993,-0.027964l-2.583328,0.251673l-0.847221,0.1538l-0.402777,0.167782l-1.027776,0.181763l-0.222222,0.139818l0.027778,0.1538l0.569443,0.041945l-0.013889,0.097873l-0.222222,0.223709l0.041667,0.167782l1.277775,0.489363l1.083331,0.223709l0.708332,0.559272l0.458332,0.489363l0.499999,0.181763l0.166666,0.209727l0.111111,0.391491l0.333333,0.209727l0.61111,0.083891l1.430553,0.433436l0.652776,0.097873l0.027778,0.097873l-0.430555,0.069909l-0.97222,0.419454l-0.458332,0.405472l-0.472221,0.111854l-0.36111,-0.041945l0.027778,-0.111854l0.541666,-0.433436l-0.013889,-0.209727l-0.916665,-0.503345l-1.013887,-0.251673l-0.444444,-0.3076l-0.277777,-0.391491l-1.069442,-0.713072l-0.319444,-0.349545l-0.388888,-0.181763l-0.805554,-0.111854l-1.319442,-0.405472l-0.555554,0.027964l-0.930554,0.54529l-0.48611,0.083891l-0.430555,-0.111854l-0.347222,-0.391491l-0.583332,-0.3076l-0.305555,0.013982l-0.333333,0.321582l-0.430555,0.1538l-0.125,0.209727l-0.291666,-0.027964l-0.097222,-0.3076l0.069444,-0.3076l-0.284722,-0.161846l-2.270829,-0.104166l-1.624997,0.333333l-0.499999,0.354166l-0.020833,0.208333l1.062498,0.458332l0.624999,0.624999l1.020831,0.312499l1.541664,0.270833l1.041665,0.083333l-0.374999,0.166666l-0.770832,0.020833l-1.479164,-0.270833l-1.062498,-0.104166l-0.229166,0.125l-0.0625,0.166666l-0.270833,0.0625l-0.270833,-0.145833l-0.125,-0.416666l-0.791665,-0.541666l-1.77083,-0.270833l-2.270829,-0.041667l-0.270833,0.208333l0.083333,0.1875l1.333331,0.541666l1.52083,0.958331l1.395831,1.166664v0.145833l-0.437499,0.1875l-0.833332,-0.270833l-1.416664,-0.937498l-1.666663,-0.499999l-2.062496,-0.312499l-0.624999,0.083333l-0.270833,0.229166l0.020833,0.270833l0.520832,0.395833l2.229162,0.479166l0.291666,0.125l-0.083333,0.104166h-1.395831l-1.812496,-0.145833l-0.520832,0.166666l-0.166666,0.270833l0.083333,0.166666l-0.041667,0.125l-0.208333,0.104166l-0.104166,0.249999l0.249999,0.312499l2.916661,1.020831l1.89583,0.583332l0.708332,0.104166l0.520832,-0.020833l0.1875,0.0625l-0.0625,0.249999l0.291666,0.270833l1.437497,0.395833l2.166662,0.125l0.416666,0.0625v0.125l-0.229166,0.020833l0.041667,0.145833l0.708332,0.437499l0.479166,0.208333l-0.0625,0.1875l-0.374999,0.083333l-0.397508,-0.017283l-0.235088,-0.067521l-0.513234,-0.415195l-0.687499,-0.270833l-1.687497,-0.145833l-1.979163,-0.708332l-3.708326,-1.124998l-0.541666,-0.416666l-1.437497,-0.541666h-1.020831l-0.270833,0.374999l0.208333,0.312499l0.583332,0.333333l0.333333,0.499999l0.604165,0.249999h0.729165l0.895832,0.0625l0.541666,0.229166l0.0625,0.125l-0.208333,0.041667l-0.937498,-0.166666l-1.937496,-0.0625l-0.437499,-0.166666l-0.083333,-0.291666l-0.270833,-0.416666l-0.374999,-0.125l-0.770832,-0.416666l-0.298611,-0.597221l-0.916665,-0.541666l-1.027776,-0.222222l-1.333331,-0.055555l-0.444444,-0.125l-0.583332,-0.055555l-1.291664,-0.249999l-0.236111,-0.125l0.069444,-0.097222h0.277777l0.319444,-0.041667l0.027778,-0.111111l-0.194444,-0.138889l-0.847221,-0.138889l-2.083329,0.111111l-0.749998,0.180555l-0.013889,0.166666l0.597221,0.180555l0.48611,0.069444l0.041667,0.138889l-0.166666,0.222222l0.055555,0.347222l0.444444,0.458332l-0.041667,0.166666l-0.73611,0.374999l-1.861107,-0.013889l-2.249995,0.041667l-0.555554,0.194444l-0.055555,0.125l0.333333,0.444444l0.722221,0.319444l0.833332,0.083333l1.069442,0.152777l1.305553,0.36111l1.249997,0.138889l1.374997,0.027778l0.888887,0.180555l0.472221,0.291666l-0.027778,0.319444l0.055555,0.305555l0.236111,0.069444l0.166666,0.125l-0.055555,0.097222h-0.347222l-0.333333,-0.291666l-0.069444,-0.472221l-0.291666,-0.263888l-0.499999,-0.055555l-0.194444,0.083333l-0.027778,0.152777l0.347222,0.444444l-0.027778,0.097222l-0.166666,-0.013889l-0.402777,-0.416666l-0.388888,-0.291666l-1.041665,-0.083333l-0.722221,0.083333l-0.041667,0.180555l0.416666,0.319444l-0.013889,0.111111l-0.166666,-0.013889l-1.555552,-0.861109l-0.97222,-0.249999l-1.722219,-0.027778l-0.624999,0.194444l-0.236111,0.402777l-0.499999,0.249999l-0.069444,0.152777l-0.263888,-0.055555l-0.041667,-0.249999l0.333333,-0.180555l0.013889,-0.138889l-0.458332,-0.374999l-0.819443,-0.277777l-1.430553,-0.125l-0.97222,0.083333l-2.236107,0.416666l-1.749996,0.597221l-0.61111,0.472221l0.027778,0.180555l0.319444,0.041667l0.347222,0.152777l0.055555,0.111111l-0.208333,0.305555l-0.444444,0.180555l-0.499999,-0.166666l-0.833332,-0.666665h-0.61111l-0.61111,0.152777l-1.22222,0.027778l-0.708332,0.166666l-0.166666,0.152777l-0.36111,0.125l-1.016828,0.094608l-0.427614,0.127614l-0.125,0.180555l0.041667,0.222222l-0.236111,0.097222l-0.347222,0.013889l-0.374999,-0.083333l-0.444444,0.083333l-0.666665,0.347222l-0.236111,0.319444l-0.333333,0.083333l-0.263888,0.263888v0.222222l0.222222,0.055555l0.347222,-0.013889l0.48611,0.152777l0.638888,0.055555l0.138889,0.194444l-0.083333,0.263888l0.083333,0.152777l0.249999,0.041667l0.666665,-0.166666l0.347222,0.055555l0.319444,-0.083333l0.208333,-0.180555l-0.041667,-0.374999l0.111111,-0.111111l0.236111,0.013889l0.388888,-0.097222l0.194444,-0.236111l0.236111,-0.069444l0.666665,0.027778l0.583332,0.277777l0.111111,-0.097222l-0.083333,-0.152777l0.013889,-0.222222l0.166666,-0.069444l0.291666,0.083333l0.347222,0.347222l0.055555,0.194444l0.125,0.069444l0.430555,-0.125l0.497493,-0.071916l0.655283,0.085804l0.069444,0.083333l-0.125,0.069444l-0.527777,-0.027778l-0.277777,0.055555l-0.347222,0.236111l-0.597221,0.111111l-0.61111,0.291666l-0.73611,0.236111l-0.749998,0.152777l-0.763887,0.305555l-0.055555,0.125l0.236111,0.125l0.513888,0.027778l0.499999,0.166666l0.277777,0.249999h0.333333l1.513886,-0.374999l1.486108,-0.499999l2.111107,-0.569443l1.444442,-0.111111l0.541666,-0.125l0.430555,0.027778l0.208333,0.125l0.430555,0.041667l-0.097222,0.111111l-1.541664,0.097222l-0.763887,0.166666l-1.208331,0.499999l-1.027776,0.472221l-0.749998,0.249999l-1.083331,0.125l-0.138889,0.125l0.152777,0.166666l1.70833,0.430555l0.597221,0.083333l0.666665,-0.069444l-0.069444,0.111111l-0.527777,0.194444l-1.263886,0.027778l-0.73611,-0.222222l-0.624999,-0.013889l-0.874998,0.249999l-0.277777,0.319444l-0.013889,0.249999l0.041667,0.291666l0.541666,0.61111l1.166664,0.305555l0.791665,0.013889l1.638886,-0.152777l0.97222,-0.180555l1.763885,-0.152777l1.319442,-0.027778l0.499999,0.083333h0.763887l1.305553,-0.097222l0.986109,-0.166666l0.791665,-0.194444l1.152775,-0.069444l0.861109,-0.166666l0.73611,-0.48611l1.541664,-0.541666l1.888885,-0.430555l0.916665,-0.055555l0.333333,0.138889l0.055555,0.111111l-0.083333,0.097222l-1.208331,0.263888l-2.208329,0.902776l-0.472221,0.291666l0.041667,0.069444l0.249999,0.027778l0.083333,0.083333l-0.125,0.041667l-0.513888,-0.041667l-0.999998,0.194444l-1.319442,0.472221l-1.194442,0.055555l-0.805554,0.194444h-1.34722l-0.930554,-0.194444l-1.236109,-0.055555l-1.569441,0.152777l-2.388884,0.333333l-0.930554,0.36111l0.013889,0.138889l0.194444,0.208333l0.958331,0.374999l1.666663,0.555554l0.874998,0.416666l0.791665,0.277777l0.374999,0.027778l0.388888,0.055555l0.374999,0.138889l1.374997,0.305555l1.027776,0.069444l0.472221,-0.166666l0.222222,-0.319444l0.069444,-0.347222l0.236111,-0.194444l1.34722,-0.652776l1.83333,-1.388886l1.527775,-0.652776l0.847221,-0.111111l0.347222,0.041667l0.722221,-0.027778l1.013887,-0.194444l1.513886,-0.069444l1.847219,-0.152777l1.111109,-0.097222l1.527775,-0.263888l1.263886,-0.138889l0.999998,-0.166666l0.694443,0.055555l0.152777,0.111111l-0.097222,0.055555l-0.222222,-0.041667l-0.402777,0.027778l-0.347222,0.180555l-0.472221,0.027778l-1.166664,0.097222l-1.972218,0.402777l-1.680552,0.138889l-1.847219,0.180555l-1.70833,0.194444l-1.263886,0.208333l-0.958331,0.333333l-0.569443,0.541666l-1.819441,1.194442l-0.958331,0.944443l-0.111111,0.374999l0.097222,0.166666l1.513886,0.402777l0.999998,0.097222l0.263888,-0.097222l0.083333,-0.138889l0.416666,-0.333333l0.569443,-0.222222l0.152777,0.027778l-0.083333,0.097222l-0.61111,0.347222l-0.180555,0.208333l0.055555,0.069444l1.111109,0.027778l0.61111,0.138889l1.569441,0.013889l0.541666,-0.111111l0.347222,0.013889l0.319444,0.083333l1.361108,-0.055555l0.638888,-0.125h0.583332l0.444444,-0.166666l0.236111,-0.333333l0.041667,-0.416666l-0.249999,-0.444444l-0.027778,-0.263888l0.166666,-0.166666l0.680554,-0.291666l0.944443,-0.472221l0.333333,-0.041667l0.291666,0.069444l0.027778,0.097222l-0.874998,0.472221l-0.708332,0.138889l-0.055555,0.138889l0.180555,0.194444l0.444444,0.208333l0.333333,0.013889l0.541666,-0.125l1.027776,-0.249999l1.09722,-0.180555l0.388888,-0.194444l0.61111,-0.180555l1.013887,-0.36111l0.472221,-0.027778l0.333333,0.083333l0.055555,0.111111l-0.541666,0.388888l-0.958331,0.36111l-1.263886,0.138889l-1.09722,0.236111l-0.402777,0.194444l-0.444444,0.097222l-0.305555,0.263888l-0.111111,0.36111l0.083333,0.249999l0.222222,0.055555l1.666663,-0.041667l2.652772,-0.319444l2.763883,-0.444444l3.847214,-1.083331l1.680552,-0.472221l0.805554,-0.347222l0.166666,-0.180555l0.013889,-0.333333l0.166666,-0.111111h0.305555l0.249999,-0.055555l0.166666,-0.194444l0.055555,-0.291666l-0.111111,-0.069444l-0.208333,0.041667l-0.249999,-0.055555l-0.041667,-0.097222l0.125,-0.222222l0.416666,-0.333333l0.305555,-0.069444l0.180555,-0.125l-0.041667,-0.097222l-0.499999,-0.138889l-0.430555,-0.263888l-0.388888,-0.36111l0.027778,-0.083333l0.180555,-0.013889l0.61111,0.430555l0.48611,0.111111l0.527777,0.222222l0.319444,0.041667l0.444444,-0.097222l0.125,-0.138889l0.013889,-0.194444l0.166666,-0.333333l0.513888,-0.249999l0.597221,-0.402777l0.097222,-0.194444l0.249999,-0.180555l0.36111,-0.041667l1.791663,-0.499999l1.305553,-0.458332l1.513886,-0.444444l0.430555,0.013889l0.111111,0.041667l-0.097222,0.111111l-0.416666,0.125l-0.236111,0.263888l-1.166664,0.444444l-1.111109,0.152777l-1.263886,0.569443l-0.236111,0.277777l-0.402777,0.333333l-0.555554,0.097222l-0.569443,0.180555v0.125l0.166666,0.055555l0.013889,0.125l-0.416666,0.499999l-0.847221,0.305555l-0.930554,0.527777l-0.013889,0.138889l0.194444,0.194444l0.027778,0.208333l-0.111111,0.277777l-0.194444,0.097222l-0.027778,0.138889l0.152777,0.138889l0.208333,0.041667l1.055553,-0.166666l1.791663,-0.249999l1.444442,-0.138889l0.694443,0.027778l0.638888,0.111111l0.694443,0.083333l1.499997,-0.013889l0.513888,-0.111111l0.347222,-0.013889l0.430555,0.069444l0.027778,0.097222l-0.291666,0.083333l-0.083333,0.125l0.111111,0.125l-0.125,0.083333l-0.305555,-0.027778l-2.013885,0.013889l-2.597217,0.166666l-2.402773,0.333333l-1.916663,0.416666l-1.819441,0.458332l-1.597219,0.527777l-0.069444,0.097222l0.222222,0.055555l1.388886,0.027778l1.319442,-0.111111l2.333329,0.013889l1.083331,0.069444l0.694443,0.097222l0.027778,0.097222l-0.388888,0.069444l-4.02777,0.097222l-1.847219,0.208333l-1.749996,0.041667l-0.541666,0.166666l-0.027778,0.125l0.180555,0.069444l0.041667,0.097222l-0.347222,0.111111l-0.97222,-0.027778l-0.861109,0.152777l-1.499997,0.166666l-2.736106,0.249999l-1.499997,0.249999l-2.305551,0.222222l-0.444444,0.194444v0.125l0.874998,0.388888l0.652776,0.569443l2.138885,1.319442l1.22222,0.444444l0.847221,0.111111l0.499999,0.138889v0.111111l-0.652776,0.138889l-0.013889,0.152777l0.249999,0.277777l0.055555,0.236111l-0.041667,0.444444l0.291666,0.444444l0.236111,0.097222l0.48611,-0.013889l0.888887,0.111111l0.694443,0.305555l0.861109,0.041667l0.97222,-0.249999l1.45833,-0.194444l0.805554,0.041667l0.069444,0.097222l-0.472221,0.263888l-0.986109,0.055555l-1.374997,0.236111l-0.583332,0.222222l-0.333333,0.013889l-1.722219,-0.36111l-0.819443,-0.055555l-0.249999,0.138889h-0.222222l-0.208333,-0.125l-0.097222,-0.222222l-0.222222,-0.180555l-0.458332,-0.097222l-0.36111,-0.291666l-0.347222,-0.722221l-0.458332,-0.444444l-0.999998,-0.430555l-1.958329,-0.958331l-1.111109,-0.597221l-1.569441,-0.916665l-0.902776,-0.236111l-1.847219,-0.083333l-1.888885,0.111111l-1.269605,-0.037255l-0.721567,-0.109804l-0.692783,-0.260486l-0.635483,-0.134121l-0.922711,-0.021078l-1.070341,0.125245l-0.458332,0.364583l-0.354166,0.812498l-0.052083,0.749998l0.260416,0.246527l0.374999,0.222222l0.638888,0.055555l1.027776,0.083333l1.124998,0.194444l0.944443,0.263888l0.48611,0.138889l0.097222,0.097222l-0.138889,0.069444h-0.402777l-0.249999,-0.166666l-0.472221,-0.097222l-0.986109,-0.041667l-0.48611,-0.152777l-0.708332,-0.138889l-0.638888,0.083333l-0.152777,0.194444l-0.069444,0.791665l-0.152777,0.236111l0.013889,0.208333l0.083333,0.194444l0.472221,0.291666l1.083331,0.166666l0.444444,0.152777l0.569443,0.083333l0.749998,0.013889l1.236109,0.347222l0.680554,0.527777l0.222222,0.569443l0.583332,0.541666l0.97222,0.388888l0.36111,0.430555l0.069444,0.430555l0.319444,0.583332l0.152777,0.472221l0.347222,0.152777l0.388888,-0.055555l0.138889,-0.138889l0.347222,-0.125l0.208333,0.069444l-0.013889,0.097222l-0.263888,0.166666l-0.041667,0.152777l0.208333,0.166666l0.902776,0.388888l0.388888,0.249999l0.333333,0.041667l0.222222,-0.069444h0.319444l0.111111,0.097222l-0.374999,0.194444l-0.777776,0.013889l-0.847221,-0.111111l-0.333333,-0.111111l-0.236111,-0.291666l-0.388888,-0.222222l-1.013887,-0.236111l-0.458332,-0.013889l-0.624999,0.374999l-0.194444,0.263888l0.055555,0.208333l0.374999,0.249999l0.805554,0.152777l0.305555,0.138889l0.638888,0.138889l1.152775,0.041667l0.694443,0.152777l0.805554,0.055555l0.652776,-0.083333l1.388886,0.041667l1.152775,0.263888l0.805554,0.055555l0.791665,-0.125l0.347222,-0.125l0.305555,-0.374999l0.527777,-0.36111l0.458332,-0.083333l0.388888,-0.222222l0.263888,-0.041667l0.166666,0.055555l-0.027778,0.111111l-0.48611,0.319444l-0.36111,0.527777l0.111111,0.222222l0.222222,0.069444l0.041667,0.111111l-0.305555,0.236111h-0.222222l-0.319444,-0.097222l-0.805554,0.027778l-0.819443,0.194444h-0.916665l-0.930554,-0.152777l-1.333331,0.013889l-0.36111,0.152777v0.138889l0.236111,0.138889l0.48611,0.069444l0.527777,0.222222l0.305555,0.194444l0.513888,0.138889l0.458332,-0.069444l0.402777,-0.138889l0.694443,0.027778l0.249999,0.111111v0.097222l-0.277777,0.027778l-0.513888,-0.055555l-0.499999,0.097222l-0.083333,0.138889l0.138889,0.166666l0.916665,0.444444l0.291666,0.222222l-0.055555,0.097222l-0.374999,0.027778l-0.541666,-0.111111l-0.36111,-0.208333l-0.111111,-0.194444l-0.444444,-0.291666l-0.458332,-0.138889l-0.36111,-0.013889l-0.388888,-0.069444l-0.819443,-0.444444l-0.347222,-0.152777l-0.541666,-0.069444l-0.374999,-0.277777l-0.638888,-0.180555h-0.999998l-2.055551,-0.069444l-0.791665,-0.249999l-0.916665,-0.236111l-0.583332,0.027778l-1.152775,0.430555l-1.749996,0.277777l-2.027774,0.166666l-0.541666,0.180555l-0.73611,0.61111l-0.152777,0.36111l-0.513888,0.555554l0.013889,0.138889l0.388888,0.125l0.249999,-0.041667l0.208333,0.069444l-0.027778,0.083333l-0.347222,0.069444l-0.333333,-0.055555l-0.319444,0.041667l-0.916665,0.472221l-0.472221,0.541666l-0.055555,0.430555l0.041667,1.041665l0.097222,0.166666l0.152777,0.027778l0.374999,-0.083333l0.652776,0.041667l0.222222,0.097222l-0.083333,0.083333l-0.694443,0.027778l-0.694443,0.263888l-0.055555,0.152777l0.236111,0.152777l1.208331,0.166666l1.305553,-0.069444l0.555554,-0.194444l0.555554,-0.513888l0.208333,-0.083333l0.444444,0.083333l0.402777,-0.069444l0.333333,-0.249999l0.180555,-0.333333l0.416666,-0.277777l0.166666,-0.374999l0.194444,-0.125l0.111111,0.055555l0.027778,0.180555l-0.416666,0.819443l-0.652776,0.555554l-0.374999,0.069444l-0.208333,0.180555l-0.069444,0.36111l0.055555,0.208333l0.36111,0.083333l0.652776,-0.041667l0.902776,-0.236111l1.027776,-0.083333l0.263888,-0.097222l0.152777,-0.208333l0.930554,-0.847221l0.472221,-0.569443l0.180555,-0.763887l0.749998,-1.208331l0.291666,-0.208333l0.111111,0.027778l-0.680554,1.166664l-0.097222,0.499999l0.069444,0.333333l-0.069444,0.36111l-0.36111,0.347222l-0.069444,0.263888l0.166666,0.194444l0.291666,-0.041667l0.305555,-0.166666l0.583332,-0.013889l0.986109,0.138889l0.333333,0.138889l-0.013889,0.097222l-0.152777,0.027778l-0.833332,-0.166666l-0.569443,0.013889l-0.416666,0.138889h-0.555554l-0.291666,0.055555l-0.208333,0.416666l0.111111,0.194444l0.73611,0.236111l0.347222,-0.027778l0.319444,-0.194444l0.374999,-0.069444l0.656249,0.059028l0.177083,0.09375l-0.902776,0.027778l-0.61111,0.305555l-0.416666,0.027778l-0.48611,-0.138889h-0.569443l-1.25347,0.475693l-0.739582,0.437499l-0.010417,0.145833l0.249999,0.083333l0.302083,0.010417l0.0625,0.09375l-0.072917,0.145833l0.104166,0.125l0.208333,-0.03125l0.364583,-0.197916l0.489582,-0.083333l1.052081,0.03125l0.604165,-0.0625l0.281249,-0.125l0.312499,0.010417l0.385416,0.09375l0.03125,0.083333l-0.083333,0.03125l-0.312499,-0.0625l-0.312499,0.041667l-0.687499,0.479166l-0.697915,0.374999l-0.239583,-0.010417l-0.166666,0.052083l-0.114583,0.229166l-0.260416,0.145833l-0.145833,0.260416l0.020833,0.260416l0.177083,0.166666l0.541666,0.15625l0.468749,0.239583l0.239583,0.020833l0.656249,-0.302083l0.697915,-0.354166l0.15625,-0.208333v-0.177083l0.072917,-0.145833l0.083333,-0.010417l0.114583,0.09375l-0.041667,0.302083l-0.229166,0.270833l-0.583332,0.364583l-0.593749,0.302083l-0.166666,0.177083l0.041667,0.135416l0.197916,0.125l0.510416,0.09375l0.364583,0.03125l0.270833,-0.072917l0.562499,0.010417l0.427082,0.09375l0.791665,0.0625l0.562499,-0.010417l0.770832,-0.270833l0.729165,-0.458332l0.343749,-0.385416l0.593749,-0.531249l0.249999,-0.572916l0.635415,-0.687499l0.802082,-0.416666l0.03125,-0.208333l-0.15625,-0.239583l0.020833,-0.229166l0.343749,-0.333333l0.729165,-0.21875l0.479166,0.03125l0.104166,0.09375l-0.260416,0.166666l-0.343749,0.03125l-0.343749,0.145833l-0.052083,0.15625l0.1875,0.229166l-0.041667,0.364583l-0.437499,0.593749l-0.416666,0.260416l-0.312499,0.333333l-0.406249,0.645832l-1.135414,1.093748l-1.072915,0.624999l-0.624999,0.0625l-0.343749,0.114583v0.114583l0.458332,0.270833l0.270833,0.03125l0.447916,0.09375l0.145833,0.135416l-0.041667,0.104166l-0.125,0.010417l-0.197916,-0.083333l-0.791665,-0.03125l-0.770832,-0.208333l-0.583332,-0.03125l-0.406249,0.083333h-0.437499l-0.406249,-0.145833l-0.374999,0.041667l-0.0625,0.15625l0.21875,0.281249l0.260416,0.229166l-0.0625,0.072917l-0.427082,-0.010417l-0.624999,-0.1875l-0.510416,-0.343749l-0.687499,-0.135416l-1.104164,0.010417l-0.177083,-0.041667l-0.041667,-0.145833l-0.291666,-0.291666l-0.208333,-0.010417l-0.552082,0.249999h-0.166666l-0.010417,-0.072917l0.197916,-0.281249l-0.010417,-0.177083l-0.197916,-0.1875l-0.1875,-0.802082l-0.437499,-0.666665l-0.833332,-0.656249l-0.947915,-0.427082l-1.343747,-0.312499l-0.874998,-0.041667l-0.395833,-0.083333h-0.645832l-0.989581,0.197916l-0.999998,0.270833l-0.687499,0.072917l-0.489582,0.21875l-0.052083,0.166666l0.09375,0.166666l-0.010417,0.302083l-0.177083,0.21875l-0.041667,0.281249l0.21875,0.270833l0.645832,0.135416l0.937498,0.520832l0.239583,0.270833l0.010417,0.229166l-0.281249,0.177083l-0.072917,0.229166l0.083333,0.249999l0.260416,0.208333l0.843748,0.166666l0.489582,-0.010417l0.343749,-0.197916l1.083331,-0.041667l0.333333,0.052083l0.010417,0.104166l-0.163194,0.111111l-0.666665,0.041667l-0.513888,0.208333l-0.138889,0.222222l0.083333,0.138889l0.472221,0.027778l0.444444,-0.041667l0.180555,0.055555l-0.097222,0.097222l-0.555554,0.069444l-0.249999,0.152777l0.027778,0.111111l0.680554,0.152777l0.305555,0.166666l-0.041667,0.069444h-0.333333l-0.569443,-0.166666h-0.624999l-0.388888,0.152777l-0.097222,0.222222l0.055555,0.152777l-0.138889,0.111111l-0.430555,-0.013889l-0.222222,-0.194444l-0.805554,-0.083333l-0.666665,0.125l-0.847221,-0.013889l-0.48611,0.097222l-0.874998,0.444444l-0.277777,0.333333l-0.374999,0.194444l-0.430555,0.027778l-0.249999,0.125l-0.111111,0.138889l-0.847221,0.333333l-0.527777,0.111111l-0.374999,0.263888l-0.041667,0.236111l0.180555,0.527777v0.402777l-0.027778,0.291666l-0.458332,0.291666l-0.180555,0.305555l-0.013889,0.166666l0.347222,0.152777l0.236111,-0.055555l0.208333,0.041667l0.055555,0.138889l-0.041667,0.166666l0.111111,0.152777l0.458332,0.166666l0.194444,0.222222l0.305555,0.069444l0.236111,-0.166666l0.138889,0.013889l0.083333,0.166666l0.236111,0.083333l0.277777,-0.083333l0.263888,-0.208333l0.013889,-0.166666l-0.083333,-0.152777l0.083333,-0.305555l0.305555,-0.472221l0.333333,-0.152777l0.069444,-0.208333l-0.111111,-0.277777l-0.194444,-0.249999l0.069444,-0.180555l0.333333,-0.277777l0.138889,-0.277777l0.208333,-0.083333l0.083333,0.055555l-0.083333,0.319444l-0.194444,0.152777l-0.013889,0.166666l0.222222,0.319444l0.027778,0.236111l-0.097222,0.138889l0.027778,0.180555l0.472221,0.541666l0.055555,0.277777l-0.013889,0.138889l-0.069444,0.194444l-0.013889,0.194444l-0.111111,0.125l-0.013889,0.111111l0.333333,0.125l1.361108,0.166666l0.249999,-0.097222l0.027778,-0.180555l0.097222,-0.069444l0.125,0.041667l0.208333,0.333333l0.499999,0.138889l0.138889,-0.052083l0.010417,-0.135416l0.145833,-0.072917l0.281249,0.09375l0.0625,-0.041667l-0.0625,-0.104166l0.03125,-0.125l0.125,-0.104166l-0.020833,-0.114583l-0.291666,-0.09375l-0.104166,-0.177083l0.114583,-0.166666v-0.15625l-0.177083,-0.15625l-0.03125,-0.374999l0.114583,-0.239583h0.104166l0.135416,0.177083l-0.010417,0.135416l-0.072917,0.104166l0.03125,0.15625l0.322916,0.15625l0.052083,0.125l-0.072917,0.15625l0.020833,0.114583l0.395833,0.104166l0.406249,0.020833l0.229166,0.135416v0.09375l-0.135416,0.0625l0.010417,0.09375l0.635415,0.166666l0.854165,0.125l0.177083,-0.083333l0.281249,-0.468749l-0.010417,-0.208333l0.197916,-0.208333l0.718749,-0.239583l0.177083,-0.010417l0.072917,-0.083333l-0.104166,-0.166666l-0.791665,-0.427082l-0.1875,-0.177083l0.0625,-0.052083l0.395833,0.145833l0.802082,0.479166l0.135416,0.145833v0.104166l-0.145833,0.1875l-0.374999,0.083333l-0.104166,0.197916l0.03125,0.312499l0.312499,0.270833l1.020831,0.125l0.354166,0.010417l0.260416,0.09375l0.541666,0.03125l1.020831,0.312499l1.062498,0.125l1.312497,-0.03125l0.302083,-0.083333l0.906248,-0.010417l0.229166,-0.09375l0.010417,-0.083333l-0.447916,-0.229166l-0.812498,-0.21875l-0.645832,-0.249999l-0.333333,-0.364583l-0.197916,-0.447916l-0.041667,-0.343749l-0.239583,-0.239583l-0.197916,-0.135416l-0.020833,-0.09375l0.135416,-0.072917l0.343749,0.03125l0.552082,0.333333l-0.010417,0.0625l-0.072917,0.072917v0.09375l0.374999,0.208333l0.197916,0.302083l0.052083,0.208333l0.458332,0.281249l0.593749,0.083333l0.572916,-0.145833l0.416666,0.010417l0.114583,-0.114583l0.03125,-0.270833l-0.1875,-0.260416v-0.270833l0.104166,-0.166666l0.03125,-0.197916l-0.322916,-0.177083l-0.083333,-0.09375l0.072917,-0.0625l0.427082,0.104166l0.270833,0.15625l0.104166,0.291666l0.041667,0.249999l0.604165,0.416666l0.427082,0.145833l0.1875,0.239583l0.624999,0.1875l0.947915,0.052083l0.364583,-0.072917l0.052083,-0.166666l-0.104166,-0.208333v-0.499999l-0.114583,-0.281249l-0.645832,-0.510416l-0.260416,-0.385416l0.010417,-0.21875l0.312499,-0.260416l0.114583,-0.010417l0.010417,0.083333l-0.083333,0.125v0.249999l0.260416,0.291666l0.562499,0.333333l0.302083,0.447916l0.114583,0.374999l-0.03125,0.15625l-0.083333,0.104166l0.010417,0.104166l0.354166,0.229166l0.427082,0.083333l0.260416,0.197916l0.541666,0.010417l0.354166,-0.114583l1.052081,0.010417l0.437499,-0.125l0.104166,-0.270833l-0.239583,-0.364583l0.010417,-0.260416l0.249999,-0.208333l-0.03125,-0.145833l-0.374999,-0.15625l-0.739582,-0.249999l-0.395833,-0.406249l-0.333333,-0.562499l-0.406249,-0.291666v-0.09375l0.09375,-0.010417l0.458332,0.21875l0.416666,0.437499l0.437499,0.520832l0.541666,0.239583l0.395833,0.03125l0.833332,-0.249999l0.208333,-0.166666l0.114583,-0.052083l0.072917,0.041667l-0.072917,0.1875l-0.406249,0.21875l-0.406249,0.052083l-0.125,0.083333l0.020833,0.083333l0.166666,0.09375l0.010417,0.114583l-0.1875,0.239583l-0.041667,0.104166l0.041667,0.114583l0.708332,0.249999l0.812498,0.0625l0.895832,-0.0625l0.312499,-0.208333l0.15625,-0.229166l0.125,-0.0625l0.09375,0.020833l0.010417,0.145833l-0.114583,0.09375v0.083333l0.270833,0.052083l0.343749,-0.010417l0.541666,0.177083l0.583332,0.385416l0.020833,0.125l-0.125,0.197916l-0.281249,0.177083l-0.395833,0.520832l-0.281249,0.208333l-0.09375,0.197916l0.0625,0.114583l0.281249,0.03125l0.03125,0.09375l-0.260416,0.1875l-0.010417,0.114583l0.135416,0.0625l0.478798,-0.213112h0.274509l0.203921,0.047059l0.298039,-0.015686l0.332025,-0.172549l0.172339,-0.059235l0.366222,-0.042726l0.35294,-0.078431l0.337254,-0.180392l0.392279,-0.02451l0.239583,0.052083l0.343749,-0.03125l0.885415,-0.312499l0.781248,-0.177083l0.406249,-0.197916l0.614582,-0.125l0.427082,-0.354166l0.114583,-0.374999l0.135416,-0.114583h0.343749l0.104166,0.041667l0.1875,-0.03125l0.260416,-0.364583l-0.007113,-0.142254l-0.091662,-0.08679l-0.486274,-0.156862l0.032966,-0.06201l0.614582,-0.09375l0.718749,0.03125l0.135416,0.104166l0.041667,0.270833l0.125,0.374999l0.312499,0.15625l0.260416,-0.020833l0.239583,-0.260416l0.072917,-0.239583l0.822915,-0.593749l0.437499,-0.15625l0.531249,-0.09375l0.135416,-0.135416l0.125,-0.416666v-0.520832l0.072917,-0.177083l-0.020833,-0.1875l-0.406249,-0.177083l-0.010417,-0.104166l0.0625,-0.083333l-0.010417,-0.166666l-0.281249,-0.437499l-0.520832,-0.406249l-0.520832,-0.0625l-0.604165,0.166666l-0.15625,0.197916l-0.302083,0.135416l-0.249999,0.1875l-0.09375,0.302083l-0.03125,0.208333l-0.135416,0.125l-0.291666,0.114583l-0.312499,0.010417l-0.437499,-0.09375l-0.03125,-0.177083l0.125,-0.281249l0.010417,-0.125l-0.197916,-0.125h-0.354166l-0.15625,0.072917l-0.291666,0.020833l-0.135416,-0.041667h-0.166666l-0.135416,0.0625h-0.343749l-0.125,-0.114583l0.0625,-0.197916l0.572916,-0.302083l0.739582,-0.604165l0.041667,-0.197916l-0.104166,-0.1875Z M393.460441,47.756287l0.472221,0.111111l0.916665,0.027778l0.388888,-0.111111l-0.138889,-0.111111l-1.111109,-0.083333h-0.36111l-0.166666,0.166666Z M399.68265,46.450734l-0.249999,0.194444l0.305555,0.166666l0.694443,-0.027778l0.166666,-0.166666l-0.111111,-0.166666h-0.805554Z M300.426314,47.506615l-0.031372,0.086274l0.274509,0.305882l0.392156,0.12549l0.399999,-0.039216l0.258823,-0.188235l-0.094117,-0.156862l-0.643136,-0.156862l-0.423529,-0.015686l-0.133333,0.039216Z M300.081217,48.228182l-0.007843,0.086274l0.274509,0.172549l0.274509,0.031372l0.101961,-0.070588l-0.109804,-0.141176l-0.321568,-0.109804l-0.211764,0.031372Z M301.367489,48.385044l-0.047059,0.047059l0.015686,0.062745l0.196078,0.015686l0.086274,-0.047059v-0.054902l-0.141176,-0.047059l-0.109804,0.023529Z M318.918924,52.242389l0.312499,-0.0625l0.1875,-0.166666l-0.020833,-0.125l-0.1875,0.020833l-0.374999,0.208333l0.083333,0.125Z M370.293821,64.881253l0.208333,0.083333l0.097222,-0.013889l-0.013889,-0.097222l-0.194444,-0.055555l-0.111111,0.013889l0.013889,0.069444Z M364.127166,66.395139l0.166666,0.055555h0.208333l0.055555,-0.069444l-0.125,-0.138889l-0.236111,-0.013889l-0.111111,0.041667l0.041667,0.125Z M358.83551,69.464577h0.277777l0.055555,-0.055555l-0.069444,-0.069444l-0.208333,-0.013889l-0.166666,0.055555l0.111111,0.083333Z M364.641054,72.061794l0.791665,0.138889l0.499999,-0.083333l0.166666,-0.166666l0.013889,-0.138889l-0.874998,-0.305555l-0.833332,-0.069444l-0.194444,0.194444l0.027778,0.249999l0.402777,0.180555Z M329.960569,68.770134l-0.111111,0.027778l-0.013889,0.125l0.097222,0.111111l0.277777,0.013889l0.083333,-0.069444l-0.125,-0.138889l-0.208333,-0.069444Z M326.224465,69.853465l0.166666,-0.027778l0.041667,-0.083333l-0.069444,-0.069444l-0.208333,0.013889l-0.097222,0.083333l0.166666,0.083333Z M321.40503,70.492353l1.666663,-0.291666l1.888885,-0.430555l0.388888,-0.236111l-0.013889,-0.152777l-0.374999,-0.222222l-0.847221,-0.055555l-1.277775,0.027778l-0.916665,0.263888l-0.444444,0.041667l-0.402777,0.222222l-0.583332,0.694443l0.097222,0.166666l0.819443,-0.027778Z M304.929369,44.794488l0.239583,0.072917h0.239583l0.135416,-0.09375l-0.03125,-0.104166l-0.239583,-0.0625l-0.260416,0.052083l-0.083333,0.135416Z M324.877246,78.784003l-0.333333,0.260416l-0.010417,0.166666l0.145833,0.15625l0.364583,0.020833l1.322914,-0.458332l0.15625,-0.135416l-0.020833,-0.083333l-0.21875,-0.010417l-0.427082,0.09375l-0.302083,0.020833l-0.260416,-0.0625l-0.416666,0.03125Z M325.030186,79.608511l-0.090441,-0.022426l-0.114583,0.03125l-0.03125,0.072917l0.135416,0.03125l0.108701,-0.050245l-0.007843,-0.062745Z M324.325163,81.992329l-0.0625,-0.052083l-0.125,-0.010417l-0.114583,0.020833l-0.03125,0.072917l0.197916,0.052083l0.104166,-0.010417l0.03125,-0.072917Z M326.710575,82.658995l0.03125,0.0625l0.104166,0.020833l0.0625,-0.052083v-0.052083l-0.104166,-0.020833l-0.09375,0.041667Z M324.502246,81.513164l0.562499,0.020833l0.322916,0.145833l0.041667,0.083333l-0.125,0.083333l-0.03125,0.145833l0.135416,0.09375l0.437499,0.010417l0.562499,-0.1875l0.1875,-0.135416l-0.020833,-0.125l-0.291666,-0.125l-0.270833,-0.291666l-0.687499,-0.15625l-0.749998,0.020833l-0.416666,0.249999l-0.010417,0.09375l0.354166,0.072917Z M352.127191,79.117335l-0.020833,0.166666l0.166666,0.270833l0.416666,0.020833l0.770832,-0.374999l0.0625,-0.1875l-0.333333,-0.0625l-0.833332,0.041667l-0.229166,0.125Z M358.210512,78.81178l0.097222,-0.041667v-0.083333l-0.125,-0.041667l-0.152777,0.027778v0.097222l0.180555,0.041667Z M308.960611,89.964536l0.347222,0.027778l0.263888,-0.055555l-0.013889,-0.083333l-0.430555,-0.111111l-0.236111,0.041667l-0.166666,0.111111l0.236111,0.069444Z M312.488382,90.339535l0.125,-0.097222l0.041667,-0.236111l-0.083333,-0.263888l-0.152777,-0.055555l-0.125,0.055555l-0.055555,0.319444l0.055555,0.222222l0.194444,0.055555Z M312.738381,89.631203l0.152777,-0.097222l0.055555,-0.374999l-0.125,-0.277777l-0.208333,-0.027778l-0.111111,0.083333l-0.097222,0.208333l0.013889,0.277777l0.125,0.152777l0.194444,0.055555Z M329.200154,89.492314l-0.072917,0.072917l0.03125,0.270833l0.374999,0.21875l0.260416,-0.010417l0.166666,-0.15625l-0.010417,-0.114583l-0.354166,-0.229166l-0.395833,-0.052083Z M338.590943,91.9928l0.164706,-0.007843l0.054902,-0.054902l-0.031372,-0.047059l-0.141176,-0.007843l-0.101961,0.054902l0.054902,0.062745Z M339.422314,92.09476l0.305882,-0.015686l0.164706,-0.133333l0.007843,-0.109804l-0.141176,-0.062745l-0.392156,0.039216l-0.290195,0.156862l0.031372,0.070588l0.313725,0.054902Z M344.929288,91.700643l0.166666,0.020833l0.229166,-0.0625l0.010417,-0.114583l-0.083333,-0.072917l-0.239583,0.052083l-0.145833,0.114583l0.0625,0.0625Z M338.835551,82.388162l0.135416,0.104166l0.166666,-0.010417l0.104166,-0.114583l-0.041667,-0.114583l-0.197916,-0.083333l-0.166666,0.052083v0.166666Z M338.345968,82.169412l0.177083,0.010417l0.114583,-0.052083l-0.072917,-0.072917h-0.177083l-0.083333,0.052083l0.041667,0.0625Z M343.502208,83.711076l0.145833,0.041667l0.15625,-0.020833l-0.03125,-0.072917l-0.114583,-0.03125h-0.125l-0.03125,0.083333Z M349.095947,86.294404l0.020833,-0.208333l-0.052083,-0.114583l-0.239583,0.010417l-0.041667,0.104166l0.041667,0.135416l0.15625,0.135416l0.114583,-0.0625Z "/>
</svg>
