<svg xmlns="http://www.w3.org/2000/svg" viewBox="249.322 66.286 24.914 13.060">
  <path d="M249.988508,69.561799l-0.527777,-0.333333l-0.138889,-0.61111l0.111111,-0.722221l0.444444,-0.472221l0.055555,-0.222222l-0.138889,-0.222222l0.083333,-0.194444l0.61111,-0.055555l1.749996,0.055555l1.416664,-0.249999l0.472221,-0.194444l1.694441,-0.055555l0.805554,0.194444l0.694443,0.416666l0.638888,0.166666l0.694443,0.055555l0.694443,0.36111l1.138887,1.305553l0.055555,0.416666l-0.083333,0.499999l-0.416666,0.277777l0.055555,0.166666l0.388888,-0.083333l0.138889,0.111111l0.083333,0.416666l0.222222,0.055555l0.444444,-0.305555l0.083333,-0.555554l0.36111,-0.444444l1.277775,-0.416666l0.944443,0.055555l0.916665,0.527777l0.916665,0.36111l0.333333,0.027778l0.36111,0.222222l-0.027778,0.277777l-0.555554,0.61111l0.027778,0.222222l0.61111,0.166666l1.277775,-0.083333l0.722221,-0.277777l0.416666,0.111111l0.36111,0.305555l1.166664,0.472221l0.027778,0.222222l-0.249999,0.277777l0.027778,0.194444l0.305555,0.055555l0.638888,-0.027778l0.777776,0.305555v0.222222l-0.388888,0.666665l-0.722221,0.277777l-0.055555,0.166666l0.194444,0.36111l-0.027778,0.305555l-0.138889,0.305555l0.083333,0.111111h0.694443l0.444444,0.194444l0.249999,0.416666l1.388886,1.055553l0.388888,0.138889l0.027778,0.222222l-0.416666,0.388888l-0.027778,0.388888l0.166666,0.305555l-0.027778,0.194444l-0.97222,0.36111l-1.694441,0.083333l-0.333333,0.222222h-0.416666l-0.583332,-0.194444l-0.888887,-0.083333l-0.916665,-0.583332l-0.749998,-0.833332l-0.027778,-0.472221l-0.249999,-0.36111l-0.805554,-0.472221l-0.694443,-0.083333l-0.527777,-0.166666l-0.499999,-0.249999l-0.888887,-0.222222l-1.194442,-0.083333l-0.861109,0.055555l-0.666665,0.194444l-0.555554,-0.083333l-0.444444,-0.194444l-0.027778,-0.194444l0.249999,-0.305555l0.277777,-0.083333l-0.027778,-0.138889l-0.555554,-0.055555l-1.861107,0.305555l-0.833332,0.055555l-1.166664,0.36111l-0.305555,0.333333l-0.499999,0.027778l-1.277775,-0.166666l-1.472219,-0.861109l-0.555554,-0.722221l-0.055555,-0.444444l0.36111,-0.388888l1.083331,-0.194444l1.083331,0.194444l0.916665,0.416666l1.499997,0.083333l0.555554,-0.194444l0.305555,-0.527777l-0.194444,-0.138889l-0.97222,-0.111111l-0.805554,0.027778l-0.166666,-0.138889l0.555554,-0.277777l1.111109,-0.055555l0.499999,-0.388888l0.027778,-0.222222l-0.36111,-0.166666l-0.472221,0.083333l-1.333331,0.083333l-0.749998,-0.222222l-0.027778,-0.194444l0.583332,-0.499999l0.499999,-0.166666v-0.222222l-0.583332,-0.416666l-0.61111,-0.138889l-0.61111,0.111111l-0.499999,0.416666l-0.555554,0.666665l-0.749998,0.277777l-0.583332,-0.055555l0.027778,-0.333333l0.694443,-0.416666l0.499999,-0.805554l-0.055555,-0.277777l-0.638888,-0.166666l-0.805554,0.027778l-0.722221,0.277777h-0.666665Z M263.523203,76.138175l0.083333,0.270833l0.624999,0.125l0.229166,-0.104166l-0.020833,-0.291666l-0.395833,-0.229166l-0.333333,0.020833l-0.1875,0.208333Z M258.00238,76.367341v0.166666l0.312499,0.1875l0.562499,-0.020833l0.999998,-0.562499l0.041667,-0.270833l-0.229166,-0.249999l-0.562499,-0.041667l-0.770832,0.437499l-0.354166,0.354166Z "/>
</svg>
