<svg xmlns="http://www.w3.org/2000/svg" viewBox="267.252 129.805 3.021 3.604">
  <path d="M270.023,133.409l0.104,-0.125v-0.229l-0.083,-0.229l-0.104,0.021l-0.125,0.25v0.229l0.208,0.083Z M269.711,131.992l-0.458,-0.354l-0.854,-0.271l-0.312,0.083l-0.125,0.333l0.146,0.437l0.729,0.292l0.698,0.094l0.115,-0.135l-0.062,-0.177l-0.344,-0.167l0.01,-0.115l0.177,-0.031l0.229,0.073l0.052,-0.062Z M269.252,131.138l0.187,-0.042l0.021,-0.104l-0.167,-0.083l-0.125,0.042l-0.083,0.104l0.167,0.083Z M268.419,130.742h0.125l0.083,-0.083l-0.042,-0.104h-0.125l-0.104,0.104l0.062,0.083Z M270.002,132.221l0.167,0.021l0.104,-0.062l-0.062,-0.104h-0.187l-0.125,0.083l0.104,0.062Z M268.961,131.353l0.167,-0.028l-0.028,-0.083l-0.125,-0.014l-0.097,0.056l0.083,0.069Z M267.294,129.94l0.104,0.031l0.083,-0.062l-0.042,-0.104h-0.104l-0.083,0.062l0.042,0.073Z M270.002,132.451l0.134,-0.026l0.019,-0.071l-0.139,-0.014l-0.068,0.045l0.054,0.066Z "/>
</svg>
