<svg xmlns="http://www.w3.org/2000/svg" viewBox="272.112 136.706 16.345 9.292">
  <path d="M273.735,143.604l-0.231-0.006l-0.277-0.235l-0.36-0.042l-0.138-0.152l-0.125-0.332l-0.318-0.318l-0.014-0.318l0.263-0.415l0.277-0.125l0.692-0.055l0.194,0.055l0.443-0.014l0.332-0.18l0.291-0.055l0.18,0.028l0.374-0.069l0.152-0.208l-0.014-0.374l0.083-0.152l0.249-0.028l0.097,0.097l0.138-0.028l0.18-0.111l0.36,0.028v-0.111l-0.277-0.055v-0.152l0.166-0.055l-0.069-0.125l-0.332-0.083l-0.235-0.235l0.042-0.235l0.166-0.055l0.235,0.083l0.069-0.097l-0.374-0.249l-0.111-0.208l0.125-0.249h0.36l0.512,0.208l0.318,0.415l0.72,0.36l0.166-0.028l-0.111-0.166l-0.554-0.346l-0.166-0.36l-0.388-0.111l-0.069-0.208l0.194-0.761l0.388-0.443l0.291-0.042l0.097-0.152l0.069-0.249l0.194-0.18l0.402,0.014l0.651,0.277h0.18l0.097,0.097l0.028,0.166l0.512,0.249l0.263,0.042l0.249,0.18l0.083,0.305l-0.152,0.111l-0.18,0.014l-0.042,0.18l0.152,0.194v0.277l0.097-0.028l0.194-0.388l0.028-0.222l0.166-0.125l0.332,0.125l0.305,0.291l0.152,0.415l0.471,0.305l0.401,0.152l0.318,0.069l0.249,0.152l0.097,0.152l0.138,0.042l0.152-0.042l0.249,0.111l0.263,0.277l0.277,0.138l0.194,0.028l0.512,0.471l0.014,0.194l-0.083,0.222l-0.028,0.983l0.097,0.111l0.125-0.083l-0.028-0.568l0.125-0.291l0.152-0.111l0.097-0.152l0.125,0.042l0.014,0.263l0.222,0.194l0.042,0.388l-0.083,0.18l0.014,0.166l0.305,0.332l0.097,0.222v0.374l0.138,0.111l0.277-0.042l0.277,0.097l0.069,0.152l0.374,0.042l0.401-0.277l0.402-0.125l0.291,0.069l0.194,0.18l-0.014,0.097l-0.152,0.083l-0.097,0.208l-0.568,0.346l-0.36,0.471l-0.125-0.028l0.042-0.374l-0.111-0.125l-0.249-0.028l-0.526,0.291l-0.18,0.332l-0.014,0.277l-0.138,0.028l-0.194-0.069l-0.249,0.014l-0.332,0.388l-0.318,0.125l-0.402,0.374l-0.291,0.055l-0.249,0.111l-0.554,0.014l-1.218-0.457l-0.194,0.014l-0.208-0.069l-0.263-0.346l-0.097,0.028l-0.014,0.125l0.097,0.138l-0.042,0.125l-0.263,0.042l-0.789-0.194h-0.291l-0.582-0.208l-0.471-0.374l-1.177-0.291l-0.18,0.042l-0.194-0.042l-0.485-0.415l0.028-0.194l0.125-0.083v-0.152l-0.332-0.166h-0.249l-0.069,0.125l0.097,0.277l-0.083,0.18l-0.235,0.069l-0.249-0.083l-0.125-0.166l-0.291-0.055l-0.16,0.01l-0.236-0.07l-0.351-0.273l0.014-0.18l0.138-0.111l0.014-0.18l-0.415-0.18l-0.36-0.028l-0.042,0.111l0.143,0.083l0.003,0.063l-0.149,0.014l-0.177-0.049l-0.055,0.069l0.222,0.249l-0.083,0.111l-0.163-0.061l-0.167,0.056L273.735,143.604L273.735,143.604z M275.399,144.073l0.076,0.021l0.069-0.035v-0.09l-0.111-0.035l-0.069,0.035L275.399,144.073L275.399,144.073z M273.957,141.548l0.068,0.026l0.068-0.036l0.005-0.057l-0.141-0.026l-0.047,0.047L273.957,141.548L273.957,141.548z M274.909,143.729l0.122,0.129l0.108,0.031l0.014-0.031l-0.097-0.059l-0.125-0.139l-0.038,0.003L274.909,143.729L274.909,143.729z M273.284,141.486l0.029-0.009l0.007-0.021l-0.031-0.016l-0.086,0.014l-0.008,0.02l0.013,0.013L273.284,141.486L273.284,141.486z M272.112,142.821l0.04,0.008l0.029-0.033l-0.004-0.043l-0.029-0.008l-0.029,0.022L272.112,142.821L272.112,142.821z M272.3,142.782l0.008-0.044l-0.026-0.023l-0.026,0.005l-0.008,0.031l0.021,0.039L272.3,142.782L272.3,142.782z M272.294,142.892l-0.007,0.036l0.016,0.036l0.053,0.028l0.027-0.016l-0.002-0.026l-0.041-0.063L272.294,142.892L272.294,142.892z M274.224,141.538h0.02l0.01-0.01l-0.003-0.017l-0.012-0.008l-0.021,0.005l-0.007,0.014L274.224,141.538L274.224,141.538z"/>
</svg>
