<svg xmlns="http://www.w3.org/2000/svg" viewBox="272.112 136.203 16.347 9.778">
  <path d="M282.355664,138.885563l0.20849,0.014004l0.076446,-0.042011l-0.048648,-0.126032l-0.187641,-0.105027l-0.132044,0.014004l-0.027799,0.161041l0.111195,0.084021Z M280.037946,136.592484l0.302311,0.031508l0.187641,-0.105027l0.031274,-0.136534l-0.416981,-0.178545l-0.156368,0.073519l-0.010425,0.168042l0.062547,0.147037Z M280.673842,136.907563h0.218915l0.072972,-0.105027l-0.104245,-0.15754h-0.11467l-0.156368,0.147037l0.083396,0.115529Z M280.225588,136.923317l0.130306,0.021005l0.041698,-0.031508l-0.020849,-0.068267l-0.104245,-0.021005l-0.088608,0.052513l0.041698,0.047262Z M280.465351,137.023092l0.072972,0.036759l0.062547,-0.015754l-0.015637,-0.07877l-0.083396,-0.036759l-0.052123,0.052513l0.015637,0.042011Z M281.070112,137.233126l0.029402,-0.01712l-0.045089,-0.048729l-0.060793,-0.016462l-0.030056,0.00395l0.02549,0.046753l0.081046,0.031608Z M282.623735,138.62063l0.041573,-0.001745l0.020787,-0.024433l-0.017322,-0.029669l-0.039841,-0.001745l-0.024251,0.017452l-0.006929,0.026178l0.025983,0.013962Z M282.258368,138.293913l0.016434,0.057042l0.024129,0.020584l0.025457,-0.021948l0.009362,-0.066501l-0.032515,-0.055349l-0.030822,0.007098l-0.012044,0.059075Z M282.258368,138.293913l0.016434,0.057042l0.024129,0.020584l0.025457,-0.021948l0.009362,-0.066501l-0.032515,-0.055349l-0.030822,0.007098l-0.012044,0.059075Z M273.734805,143.575654l-0.230914,-0.005689l-0.276901,-0.23713l-0.359972,-0.041847l-0.138451,-0.153437l-0.124606,-0.334772l-0.318436,-0.320823l-0.013845,-0.320823l0.263056,-0.418465l0.276901,-0.12554l0.692253,-0.055795l0.193831,0.055795l0.443042,-0.013949l0.332281,-0.181335l0.290746,-0.055795l0.179986,0.027898l0.373817,-0.069744l0.152296,-0.209233l-0.013845,-0.376619l0.08307,-0.153437l0.249211,-0.027898l0.096915,0.097642l0.138451,-0.027898l0.179986,-0.111591l0.359972,0.027898v-0.111591l-0.276901,-0.055795v-0.153437l0.166141,-0.055795l-0.069225,-0.12554l-0.332281,-0.083693l-0.235366,-0.23713l0.041535,-0.23713l0.166141,-0.055795l0.235366,0.083693l0.069225,-0.097642l-0.373817,-0.251079l-0.11076,-0.209233l0.124606,-0.251079h0.359972l0.512267,0.209233l0.318436,0.418465l0.719943,0.36267l0.166141,-0.027898l-0.11076,-0.167386l-0.553802,-0.348721l-0.166141,-0.36267l-0.387662,-0.111591l-0.069225,-0.209233l0.193831,-0.767186l0.387662,-0.446363l0.290746,-0.041847l0.096915,-0.153437l0.069225,-0.251079l0.193831,-0.181335l0.401507,0.013949l0.650718,0.278977h0.179986l0.096915,0.097642l0.02769,0.167386l0.512267,0.251079l0.263056,0.041847l0.249211,0.181335l0.08307,0.306874l-0.152296,0.111591l-0.179986,0.013949l-0.041535,0.181335l0.152296,0.195284v0.278977l0.096915,-0.027898l0.193831,-0.390567l0.02769,-0.223181l0.166141,-0.12554l0.332281,0.12554l0.304591,0.292926l0.152296,0.418465l0.470732,0.306874l0.401507,0.153437l0.318436,0.069744l0.249211,0.153437l0.096915,0.153437l0.138451,0.041847l0.152296,-0.041847l0.249211,0.111591l0.263056,0.278977l0.276901,0.139488l0.193831,0.027898l0.512267,0.47426l0.013845,0.195284l-0.08307,0.223181l-0.02769,0.990367l0.096915,0.111591l0.124606,-0.083693l-0.02769,-0.571902l0.124606,-0.292926l0.152296,-0.111591l0.096915,-0.153437l0.124606,0.041847l0.013845,0.265028l0.221521,0.195284l0.041535,0.390567l-0.08307,0.181335l0.013845,0.167386l0.304591,0.334772l0.096915,0.223181v0.376619l0.138451,0.111591l0.276901,-0.041847l0.276901,0.097642l0.069225,0.153437l0.373817,0.041847l0.401507,-0.278977l0.401507,-0.12554l0.290746,0.069744l0.193831,0.181335l-0.013845,0.097642l-0.152296,0.083693l-0.096915,0.209233l-0.567648,0.348721l-0.359972,0.47426l-0.124606,-0.027898l0.041535,-0.376619l-0.11076,-0.12554l-0.249211,-0.027898l-0.526112,0.292926l-0.179986,0.334772l-0.013845,0.278977l-0.138451,0.027898l-0.193831,-0.069744l-0.249211,0.013949l-0.332281,0.390567l-0.318436,0.12554l-0.401507,0.376619l-0.290746,0.055795l-0.249211,0.111591l-0.553802,0.013949l-1.218365,-0.460312l-0.193831,0.013949l-0.207676,-0.069744l-0.263056,-0.348721l-0.096915,0.027898l-0.013845,0.12554l0.096915,0.139488l-0.041535,0.12554l-0.263056,0.041847l-0.789169,-0.195284h-0.290746l-0.581493,-0.209233l-0.470732,-0.376619l-1.17683,-0.292926l-0.179986,0.041847l-0.193831,-0.041847l-0.484577,-0.418465l0.02769,-0.195284l0.124606,-0.083693v-0.153437l-0.332281,-0.167386h-0.249211l-0.069225,0.12554l0.096915,0.278977l-0.08307,0.181335l-0.235366,0.069744l-0.249211,-0.083693l-0.124606,-0.167386l-0.290746,-0.055795l-0.160386,0.010229l-0.236289,-0.070018l-0.350959,-0.274984l0.013845,-0.181335l0.138451,-0.111591l0.013845,-0.181335l-0.415352,-0.181335l-0.359972,-0.027898l-0.041535,0.111591l0.143391,0.083693l0.003475,0.063016l-0.149418,0.014004l-0.177434,-0.049122l-0.05538,0.069744l0.221521,0.251079l-0.08307,0.111591l-0.162774,-0.061211l-0.166792,0.056014l-0.062547,0.108527Z M275.399253,144.048274l0.076446,0.021005l0.069497,-0.035009v-0.091023l-0.111195,-0.035009l-0.069497,0.035009l0.034748,0.105027Z M273.957195,141.504881l0.067759,0.026257l0.067759,-0.036759l0.005212,-0.057765l-0.140731,-0.026257l-0.04691,0.047262l0.04691,0.047262Z M274.909301,143.701686l0.121619,0.129533l0.10772,0.031508l0.013899,-0.031508l-0.097295,-0.059515l-0.125094,-0.140035l-0.038223,0.003501l0.017374,0.066517Z M273.283774,141.441988l0.029213,-0.009263l0.007187,-0.020926l-0.030696,-0.015636l-0.086462,0.014225l-0.00774,0.01996l0.012694,0.013227l0.075805,-0.001585Z M272.111713,142.786897l0.039665,0.007742l0.028701,-0.032811l-0.004452,-0.04294l-0.028713,-0.008043l-0.029,0.021778l-0.0062,0.054275Z M272.299539,142.74828l0.007795,-0.044503l-0.025983,-0.02356l-0.025983,0.005236l-0.007795,0.031414l0.020787,0.039267l0.03118,-0.007853Z M272.294233,142.859094l-0.006652,0.035804l0.016212,0.036192l0.05266,0.028677l0.027169,-0.015804l-0.001576,-0.026456l-0.040651,-0.063035l-0.047162,0.004622Z M274.223724,141.494755h0.019608l0.010457,-0.010536l-0.002614,-0.017121l-0.011765,-0.007902l-0.020915,0.005268l-0.006536,0.014487l0.011765,0.015804Z M282.932487,138.871559l0.229339,0.154039l0.257138,0.385097l0.312736,0.140035l0.243239,0.014004l0.125094,0.077019l0.083396,0.19605l0.764465,0.43411l0.125094,-0.028007l0.00695,-0.301076l-0.041698,-0.175044l0.027799,-0.091023l0.111195,-0.049012l0.041698,-0.112028l-0.062547,-0.462117l-0.194591,-0.287073l-0.104245,-0.028007l-0.076446,0.098025l-0.152893,0.056014l-0.201541,0.189048l-0.145943,-0.035009l-0.145943,-0.189048l-0.229339,-0.077019l-0.396132,0.084021l-0.271037,-0.028007l-0.187641,-0.098025l-0.145943,-0.021005l-0.027799,0.077019l0.055597,0.077019Z "/>
</svg>
