<svg xmlns="http://www.w3.org/2000/svg" viewBox="285.628 138.403 2.359 2.439">
  <path d="M285.879151,140.26812l0.20849,-0.187731l0.22239,-0.462107l0.138994,-0.064984l0.041698,-0.101086l-0.125094,-0.115527l-0.013899,-0.194952l-0.166792,-0.274376l0.041698,-0.086645h0.159843l0.312736,0.144409l0.104245,0.238274l-0.048648,0.462107l0.076446,0.144409l-0.041698,0.137188l-0.180692,0.101086l-0.034748,0.238274l0.138994,0.17329l0.403081,0.086645l0.055597,-0.072204l0.236289,-0.036102l0.305786,-0.303258l0.083396,-0.17329l-0.00695,-0.151629l0.118145,-0.317699l-0.00695,-0.274376l-0.451729,-0.409759l-0.361383,-0.189536l-0.486477,-0.144409l-0.368333,-0.028882l-0.361383,0.194952l-0.145943,0.33214l0.020849,0.108306l-0.027799,0.115527l-0.076446,0.057763l-0.013899,0.281597l0.166792,0.223833l-0.013899,0.115527l-0.111195,0.072204l-0.027799,0.158849l0.048648,0.16607l0.187641,0.036102Z M287.772938,138.935952l0.172005,0.043323l0.041698,-0.070399l-0.140731,-0.135383l-0.145943,-0.032492l-0.057335,0.048738l0.130306,0.146214Z M286.829519,140.668854l0.072972,0.032492l0.104245,-0.037907l0.015637,-0.064984l-0.109457,-0.059569l-0.093821,-0.010831l-0.052123,0.048738l0.062547,0.09206Z M286.683576,140.755499l0.072972,-0.005415l-0.057335,-0.129968l-0.088608,-0.037907l-0.052123,0.010831v0.086645l0.125094,0.075814Z M286.219685,140.820483l0.130306,0.021661l0.057335,-0.043323l-0.057335,-0.075814l-0.093821,-0.010831l-0.072972,0.059569l0.036486,0.048738Z M286.386477,140.668854l0.057335,0.027077l0.036486,-0.027077l-0.041698,-0.075814l-0.052123,-0.021661l-0.036486,0.043323l0.036486,0.054153Z "/>
</svg>
