<svg xmlns="http://www.w3.org/2000/svg" viewBox="204.908 86.232 45.512 19.029">
  <path d="M235.957,86.357l0.094,-0.104l0.448,-0.021l0.281,0.135v0.135l-0.229,0.042l-0.437,-0.083l-0.156,-0.104Z M247.447,100.812l0.736,-0.264l0.042,-0.167l-0.278,-0.222l0.014,-0.125l0.528,-0.139l0.194,-0.208l0.014,-0.194l-0.097,-0.125l-0.014,-0.194l0.097,-0.25l0.556,-0.417l0.222,-0.375l0.056,-0.361l0.167,-0.222v-0.25l-0.097,-0.139l0.083,-0.292l0.5,-0.264l0.25,-0.458l-0.028,-0.458l-0.069,-0.375l0.056,-0.444l-0.056,-0.437l-0.5,-0.625l-1.542,-0.646l-1.521,-0.375l-0.958,0.062l-0.833,0.604l-0.125,0.333l0.125,0.583l0.25,0.312v0.187l-0.229,0.187l-0.083,0.458l-0.125,0.146l-0.062,-0.437l-0.562,-0.583v-0.271l0.104,-0.208l-0.021,-0.146l-0.521,-0.104l-1.208,0.021l-0.896,0.333l-0.125,0.354l-0.458,0.25l-0.292,-0.042v-0.146l0.375,-0.562l1,-0.583l0.021,-0.229l-0.542,-0.396l-0.542,-0.104l-0.625,0.125l-0.854,0.042l-0.375,-0.062l-0.042,-0.167l0.312,-0.562l0.292,-0.271l0.562,-0.125l0.021,-0.146l-0.271,-0.146l0.042,-0.125l0.354,-0.062v-0.125l-0.292,-0.167l-0.229,-0.458l-0.417,-0.271l-0.396,-0.021l-0.354,-0.083v-0.104l0.229,-0.104v-0.146l-0.271,-0.146v-0.187l0.125,-0.25l-0.021,-0.167l-0.5,-0.125l-0.187,-0.271l0.042,-0.146l0.646,-0.125l0.458,-0.396l0.021,-0.187l-0.375,-0.208l-0.375,0.021l-0.354,-0.062v-0.104l0.125,-0.146v-0.167l-0.167,-0.146l-0.375,-0.021l-0.292,0.125l-0.771,-0.021l-0.729,0.167l-0.625,0.562l-0.292,0.583l-0.396,0.396l-0.312,0.104l-0.375,0.292l0.042,0.146h0.375l0.021,0.125l-0.25,0.167l-0.542,0.062l-0.854,0.187l-0.812,0.271l-0.167,0.146v0.5l0.167,0.271l0.542,0.083l0.917,0.583h0.271l0.208,-0.167l0.75,0.167l1.125,0.625l0.042,0.25l-0.187,0.458l-0.5,0.354l-1.271,0.354l-0.396,0.25l-0.104,0.229l0.125,0.187l0.396,0.083l0.333,-0.167l0.271,-0.083l0.167,0.146l-0.104,0.229l0.125,0.229l1.417,0.25l1.083,0.375l0.437,0.542l-0.042,0.229l-0.167,0.083l-0.146,0.292l0.083,0.292l0.062,0.229l-0.146,0.062l-0.396,-0.146l-0.625,-0.083h-0.833l-0.812,-0.187l-2.521,-0.083l-0.521,-0.125l-1.146,0.042l-0.833,0.208h-0.687l-0.417,-0.229l-0.125,-0.354l-0.021,-0.458l-0.083,-0.354l-0.292,-0.354l-0.021,-0.229l0.125,-0.146l-0.062,-0.125l-0.333,-0.021l-1.083,0.104l-0.396,0.125l-0.562,-0.021l-0.187,-0.083v-0.167l0.354,-0.25l1.062,-0.146l0.146,-0.229l-0.042,-0.167l-0.604,-0.167l-0.417,-0.25l-0.771,-0.187l-0.792,-0.271l-0.292,-0.354l0.042,-0.25l0.229,-0.146v-0.146l-0.687,-0.125l-0.375,-0.125l-0.375,-0.25l-0.542,-0.167l-1.271,0.042l-0.979,0.312l-1.187,0.229l-0.396,-0.062l-0.083,-0.167l0.083,-0.167l-0.042,-0.187l-0.437,-0.312v-0.271l0.229,-0.187l0.021,-0.396l-0.333,-0.312l-1.25,-0.333l-1.167,-0.021l-0.896,0.292l-1.437,0.146l-1.021,0.312l-0.729,0.5l-0.062,0.437l0.167,0.229l0.792,0.187h1.25l0.833,0.125l0.521,0.25l0.562,0.042l0.292,0.062l-0.25,0.083l-1.021,-0.042l-0.583,-0.187l-1.625,-0.083l-2.271,0.042l-1.104,0.396l-0.375,0.521l0.125,0.25l0.354,0.083l0.125,0.187l-0.083,0.146l-0.375,0.021l-0.25,0.146l-0.125,0.271l0.062,0.271l0.271,0.125l0.917,0.062l2.312,-0.042l1.875,-0.021l0.896,-0.146l0.583,0.021l0.083,0.104l-0.396,0.146l-1.521,0.167h-1.5l-1.042,0.187l-1.937,0.042l-1.229,0.125l-0.833,0.667l-0.417,0.771l0.25,0.187l2.167,0.083l1.542,-0.125l1.75,-0.479l1.312,-0.167l0.646,-0.208l0.208,0.062l-0.646,0.375l-1.167,0.312l-0.969,0.531l-0.792,0.229l-3.031,-0.01l-1.354,0.094l-0.583,0.271l-0.562,0.531l-0.111,0.375l-0.25,0.333l-0.014,0.25l0.431,0.472l1.069,0.292l1.236,0.083l0.569,0.181l0.306,0.014l0.333,-0.236l0.444,-0.208l0.778,-0.153l0.125,0.083l-0.014,0.306l-0.181,0.194v0.125l0.278,0.042l0.375,-0.083l0.069,0.056l-0.111,0.139l-0.347,0.097l-0.042,0.111l0.639,0.278l1.236,0.361l0.417,-0.028l0.333,-0.208l0.028,-0.222l-0.361,-0.556l0.014,-0.181h0.181l0.333,0.222l0.319,0.014l0.306,-0.194l0.167,-0.292l0.139,-0.056l0.153,0.111l0.014,0.514l-0.167,0.194l0.014,0.306l0.292,0.306l0.583,0.125l0.764,-0.208l1.361,-0.583l0.417,-0.569l-0.062,-0.264l-0.417,-0.5l-0.417,-0.146l-0.062,-0.125l0.146,-0.083l0.5,0.083l0.25,0.292l0.333,0.208l0.208,-0.062l0.375,-0.542l0.021,-0.625l-0.062,-0.333l0.104,-0.146l0.146,-0.021l0.312,0.229l0.104,0.292l0.25,0.042l0.771,-0.125l0.5,-0.208l0.333,-0.042l0.104,0.125l-0.104,0.125l-0.437,0.104l-0.396,0.25l-0.521,0.146l-0.292,0.458l-0.292,0.417l-0.146,0.687l0.083,0.437l0.458,0.146l1.208,-0.208l0.979,-0.062l0.229,-0.333l0.167,0.021l0.146,0.146l0.437,0.042l0.937,-0.312l0.021,-0.25l-0.125,-0.417l0.208,-0.25l0.229,-0.021l0.083,0.125l-0.104,0.187l0.042,0.229l0.396,0.083l0.25,-0.083l-0.021,-0.208l0.167,-0.083l0.292,0.083l0.021,0.187l-0.229,0.187l-0.229,0.083l-0.021,0.146l0.333,0.146l0.979,-0.042l1.187,-0.25l0.875,0.042l0.875,-0.292l0.479,-0.479l0.292,-0.062l0.562,0.125l-0.062,0.146l-0.312,0.229l-0.187,0.333l-0.917,0.521l-0.667,0.208l-0.542,0.354l-0.687,0.104l-1.167,-0.042l-2.583,0.104l-1.208,0.417l-0.979,0.542l-1.333,0.229l-1.646,0.479l-0.625,0.375l-0.042,0.229l0.437,0.458l1.958,0.958l2.042,0.437h2.708l2.187,-0.437l2.056,-0.625l2.639,-1.042l0.181,-0.167l-0.028,-0.153l-0.167,-0.167l0.014,-0.111l0.306,-0.056l0.333,0.028l0.306,-0.097l0.222,-0.264l0.264,-0.056l0.486,0.056l0.514,-0.014l0.403,-0.181l0.556,-0.028l0.403,0.083l0.486,-0.056l0.542,-0.5l0.333,-0.153l0.542,-0.069l0.667,-0.375l0.25,-0.264l0.347,-0.111l0.556,0.028l0.375,0.333l0.056,0.319l-0.056,0.264l0.181,0.181h0.667l1.181,-0.264l0.083,-0.236l-0.056,-0.125l0.083,-0.111l0.472,-0.014l0.25,-0.097l0.056,-0.153l-0.083,-0.208l0.111,-0.097l0.139,0.028l0.097,0.222l-0.056,0.25l0.028,0.306l0.361,0.25l1.194,0.222l1.014,-0.028l0.722,-0.278l0.083,-0.181l0.264,-0.111l1.014,-0.083l0.819,-0.111Z M226.364,94.534l0.406,0.052l0.437,-0.094l0.062,-0.115l-0.135,-0.052l-0.677,0.062l-0.135,0.062l0.042,0.083Z M225.697,94.711l0.146,0.021l0.135,-0.042v-0.073l-0.177,-0.052l-0.125,0.052l0.021,0.094Z M209.864,99.784l0.097,-0.014l0.097,-0.056l-0.014,-0.069l-0.125,-0.014l-0.097,0.069l0.042,0.083Z M226.655,100.534l0.187,0.021l0.104,-0.062l-0.083,-0.125l-0.125,-0.021l-0.187,0.062l0.104,0.125Z M237.947,101.423h0.222l0.167,-0.042l0.014,-0.097l-0.097,-0.069h-0.264l-0.139,0.111l0.097,0.097Z "/>
</svg>
