<svg xmlns="http://www.w3.org/2000/svg" viewBox="328.247 160.527 5.025 3.439">
  <path d="M331.323,162.157l0.104,-0.016l0.083,-0.104l-0.021,-0.057l-0.104,-0.005l-0.083,0.042l-0.036,0.099l0.057,0.042Z M332.637,163.69v-0.052l-0.182,-0.021l-0.115,-0.047l-0.005,-0.052l0.083,-0.026l0.229,0.057l0.172,-0.016l0.021,-0.073l-0.078,-0.094l0.036,-0.078l0.169,-0.065l-0.039,-0.096l-0.236,-0.05h-0.667l-0.47,-0.175l-0.141,-0.033l-0.378,-0.264l-0.175,-0.027l-0.057,-0.047l0.081,-0.136l0.177,-0.02l0.107,-0.105l0.052,-0.203l-0.005,-0.125l-0.159,-0.206l-0.462,-0.223l-0.375,-0.208l-0.146,-0.16l-0.003,-0.115l-0.045,-0.084l-0.127,-0.007l-0.087,0.111l-0.1,-0.037l-0.032,-0.085l-0.122,-0.066l-0.195,0.014l-0.136,-0.066l-0.122,-0.066l-0.219,-0.024l-0.275,-0.188l-0.272,-0.005l-0.068,0.055l-0.024,0.157l0.017,0.156l0.05,0.177l0.235,0.31l0.257,0.083l0.276,-0.007l0.202,0.075l0.034,0.093v0.123l0.056,0.146 l0.181,0.09l0.028,0.111l-0.044,0.087l-0.015,0.112l0.066,0.045l0.028,0.149l0.003,0.158l-0.108,0.134l0.031,0.08l0.212,0.099l0.104,-0.063l0.068,0.021l0.063,0.109l0.186,0.035l0.045,-0.035l-0.037,-0.077l0.062,-0.055l0.142,-0.01l0.128,-0.108l0.191,-0.041l0.063,0.042l-0.049,0.09l0.056,0.042l0.215,-0.007l0.132,0.049l-0.014,0.063l-0.292,0.083l-0.072,0.099l-0.027,0.129l-0.125,0.089l0.005,0.125l0.094,0.021l0.082,-0.125l0.132,-0.005l0.143,0.11l0.227,0.047l0.264,-0.064l0.417,0.035l0.368,0.161l0.131,0.003l0.174,-0.031Z M330.277,163.459l0.111,0.01l0.076,-0.059l0.024,-0.115l-0.028,-0.042h-0.045l-0.174,0.115l-0.007,0.066l0.042,0.024Z M331.629,162.441l0.188,0.146l0.327,-0.007l0.174,-0.101l0.347,-0.01l0.028,-0.083l-0.142,-0.129l-0.24,-0.038l-0.66,0.08l-0.052,0.049l0.031,0.094Z M333.111,163.945l0.078,0.021l0.083,-0.026l-0.005,-0.063l-0.042,-0.031l-0.068,0.005l-0.057,0.052l0.01,0.042Z "/>
</svg>
