<svg xmlns="http://www.w3.org/2000/svg" viewBox="325.561 160.905 2.119 3.535">
  <path d="M325.617,162.69l0.166,0.374l0.665,0.346l0.208,0.277l0.111,0.305l0.346,0.249l0.318-0.069l0.249-0.415l-0.208-0.748l-0.709-1.039l-0.066-0.318l-0.388-0.305l-0.498-0.069l-0.222,0.166l-0.028,0.36L325.617,162.69L325.617,162.69z M325.791,161.12l0.271-0.028l0.021-0.083l-0.174-0.104l-0.188,0.014l-0.056,0.132L325.791,161.12L325.791,161.12z M327.357,164.44l0.13-0.052l0.005-0.073l-0.073-0.031l-0.12,0.052l-0.031,0.078L327.357,164.44L327.357,164.44z M327.471,162.694l0.063-0.026l0.016-0.115l-0.063-0.12l-0.078-0.005l-0.026,0.115l0.016,0.094L327.471,162.694L327.471,162.694z M326.898,161.902l0.078,0.016l0.063-0.021l-0.031-0.083l-0.115-0.063l-0.063,0.021l0.005,0.083L326.898,161.902L326.898,161.902z"/>
</svg>
