<svg xmlns="http://www.w3.org/2000/svg" viewBox="267.653 141.743 3.560 2.837">
  <path d="M270.779413,142.574075l-0.235366,-0.636873l-0.290746,-0.193831l-0.179986,0.013845l-0.235366,0.290746l-0.069225,0.512267l0.318436,0.290746l0.484577,0.069225l0.193831,-0.096915l0.013845,-0.249211Z M268.2945,143.998537l0.214323,0.098494l0.332281,-0.193831l0.152296,0.069225l0.166141,0.456887h0.207676l0.166141,-0.346127l0.373817,-0.166141l0.249211,-0.401507l-0.08307,-0.401507l-0.470732,-0.332281l-0.08307,-0.263056l-0.304591,-0.207676l-0.539957,0.02769l-0.235366,0.276901l0.069225,0.304591l-0.214323,1.078336Z M270.963132,142.013773l0.117367,0.007824l0.133016,-0.07042v-0.125192l-0.093894,-0.07042l-0.164314,0.046947l-0.07042,0.148665l0.078245,0.062596Z M269.053955,142.185912l0.328629,0.07042l0.086069,-0.062596l-0.046947,-0.133016l-0.289506,-0.07042l-0.086069,0.07042l0.007824,0.125192Z M267.770738,143.696039l0.117367,-0.07042l-0.007824,-0.101718l-0.078245,-0.031298l-0.133016,0.054771l-0.015649,0.109543l0.117367,0.039122Z M268.733151,144.580207l0.109543,-0.039122v-0.125192l-0.086069,-0.015649l-0.086069,0.07042l-0.007824,0.078245l0.07042,0.031298Z "/>
</svg>
