<svg xmlns="http://www.w3.org/2000/svg" viewBox="285.918 106.921 22.029 15.737">
  <path d="M287.349543,109.682967l0.069444,-0.05577h0.125l0.097222,0.05577l-0.097222,0.05577h-0.138889l-0.055555,-0.05577Z M289.405095,122.482239l0.791665,-0.195196l0.830582,-0.032519l0.594197,-0.062547l0.366884,-0.141957l0.319444,-0.027885l0.291666,-0.167311l0.138889,-0.446162l0.458332,-0.934152l0.416666,-0.348564l0.36111,-0.083655l0.305555,-0.181253l0.152777,-0.334621l0.249999,-0.139426l0.166666,-0.237024v-0.306736l-0.444444,-0.6553l-0.541666,-0.278851l-0.236111,-0.195196l-0.055555,-0.306736l-0.125,-0.05577l-0.194444,0.027885l-0.527777,-0.013943l-0.319444,-0.11154l-0.374999,0.013943l-0.277777,0.069713l-0.138889,-0.05577l0.055555,-0.250966l0.138889,-0.05577l0.263888,0.027885h0.541666l1.45833,-0.083655l0.999998,-0.167311l0.513888,0.013943l0.597221,0.195196l1.791663,0.306736l1.22222,0.153368l0.597221,-0.195196l0.958331,-0.766841l1.013887,-1.185118l0.847221,-1.254831l-0.069444,-0.139426l-0.166666,0.013943l-0.249999,-0.041828l0.013889,-0.083655l0.208333,-0.083655l0.388888,-0.041828l0.263888,-0.125483l0.208333,-0.418277l0.861109,-0.989922l0.055555,-0.264909l-0.125,-0.195196v-0.139426l0.152777,-0.041828l0.152777,0.069713l0.319444,-0.027885l0.791665,-0.711071l0.847221,-1.101462l0.069444,-0.501932l0.138889,-0.013943l0.152777,0.083655h0.208333l0.194444,-0.125483l0.041667,-0.209138l-0.125,-0.167311l-0.374999,-0.05577l-0.236111,0.05577l-0.291666,-0.013943l-1.041665,-0.418277l-2.055551,-0.306736l-1.958329,-0.027885l-0.73611,0.223081l-0.680554,0.404334l-0.430555,-0.027885l-0.027778,-0.11154l0.152777,-0.250966l-0.013889,-0.209138l-0.958331,-0.54376l-0.444444,-0.097598l-0.208333,0.125483h-0.125l-0.069444,-0.069713l0.013889,-0.125483l-0.388888,-0.139426l-1.958329,-0.250966l-0.999998,0.027885l-0.36111,0.250966l-0.055555,0.376449l-0.111111,0.05577l-0.208333,-0.069713l-0.027778,-0.139426l-0.291666,-0.237024l-0.444444,-0.027885l-1.680552,0.181253l-2.138885,0.59953l-0.944443,0.529817l-0.055555,0.404334l0.36111,0.404334l0.291666,0.083655l0.249999,-0.083655l0.263888,0.013943l0.041667,0.125483l-0.249999,0.139426l-0.041667,0.181253l0.763887,0.501932l0.041667,0.153368l-0.249999,0.181253l-0.388888,-0.05577l-0.430555,-0.306736l-0.472221,-0.278851l-0.652776,-0.013943l-0.402777,0.156854l-0.364583,0.428734l-0.010417,0.470561l0.197916,0.282337l0.052083,0.334621l-0.114583,0.250966v0.418277l0.125,0.627415l0.145833,0.501932l-0.010417,0.522846l0.114583,0.345078l-0.041667,0.177768l-0.333333,0.052285l-0.072917,0.219595l0.0625,0.230052l-0.010417,0.198682l-0.104166,0.156854v0.188225l0.208333,0.188225l-0.010417,0.209138l-0.125,0.219595l-0.052083,0.418277l0.09375,0.303251l0.249999,0.115026l0.083333,0.198682l-0.135416,0.13594v0.167311l0.125,0.115026l0.510416,0.160339l0.263888,0.237024l0.013889,0.334621l0.222222,0.278851l0.322916,0.087141l0.149305,0.233538l0.013889,0.250966l-0.208333,0.139426l-0.041667,0.181253l0.194444,0.223081l0.013889,0.250966l-0.083333,0.223081l-0.027778,0.878381l0.152777,0.306736v0.264909l-0.138889,0.250966v0.292794l0.069444,0.292794l0.319444,0.11154l0.666665,-0.069713Z M286.429406,116.769274l0.010417,-0.230052l-0.229166,-0.345078l-0.145833,-0.010457l-0.052083,0.146397l0.125,0.324165l0.145833,0.104569l0.145833,0.010457Z M286.45024,116.005919l0.03125,-0.146397l-0.020833,-0.282337l-0.125,-0.230052l-0.09375,0.010457l-0.135416,0.282337l0.09375,0.324165l0.15625,0.094112l0.09375,-0.052285Z M286.23149,114.991598h0.145833l0.072917,-0.27188l-0.020833,-0.282337l-0.1875,-0.052285l-0.249999,0.083655l-0.072917,0.156854l0.052083,0.146397l0.177083,0.073198l0.083333,0.146397Z M286.439823,112.105487l-0.052083,0.156854l0.010417,0.13594l0.114583,0.020914l0.020833,-0.125483l-0.020833,-0.177768l-0.072917,-0.010457Z M293.48842,107.03388l-0.069444,0.11154v0.097598l0.097222,0.041828l0.083333,-0.083655v-0.125483l-0.111111,-0.041828Z M288.085653,108.06563l0.097222,-0.027885v-0.167311l-0.125,-0.013943l-0.055555,0.097598l0.013889,0.083655l0.069444,0.027885Z M306.918948,108.191113l0.749998,0.05577l0.249999,-0.195196l0.027778,-0.195196l-0.208333,-0.139426l-0.749998,0.027885l-0.263888,0.139426l0.013889,0.167311l0.180555,0.139426Z M286.849544,117.881194l0.013889,0.125483l0.069444,0.083655l0.083333,-0.027885l0.027778,-0.11154l-0.083333,-0.097598l-0.111111,0.027885Z M287.043988,118.299471v0.11154l0.083333,0.027885l0.055555,-0.069713l-0.041667,-0.097598l-0.097222,0.027885Z M287.488432,121.366834l0.055555,-0.069713l-0.027778,-0.083655l-0.069444,-0.041828l-0.069444,0.05577l0.013889,0.097598l0.097222,0.041828Z M291.921699,122.331731l0.156614,-0.007096l0.041667,-0.069713l-0.083333,-0.11154l-0.166666,0.027885l-0.111111,0.069713l0.037736,0.075114l0.125094,0.015637Z M292.425534,122.450118l0.222222,-0.041828l0.027778,-0.11154l-0.069444,-0.139426l-0.180555,-0.013943l-0.166666,0.125483l0.027778,0.139426l0.138889,0.041828Z M291.875287,122.657692l0.111111,-0.027885l0.041667,-0.11154l-0.041667,-0.097598l-0.083333,0.013943l-0.055555,0.125483l0.027778,0.097598Z "/>
</svg>
