<svg xmlns="http://www.w3.org/2000/svg" viewBox="285.919 106.921 22.028 15.737">
  <path d="M287.35,109.683l0.069,-0.056h0.125l0.097,0.056l-0.097,0.056h-0.139l-0.056,-0.056Z M289.405,122.482l0.792,-0.195l0.831,-0.033l0.594,-0.063l0.367,-0.142l0.319,-0.028l0.292,-0.167l0.139,-0.446l0.458,-0.934l0.417,-0.349l0.361,-0.084l0.306,-0.181l0.153,-0.335l0.25,-0.139l0.167,-0.237v-0.307l-0.444,-0.655l-0.542,-0.279l-0.236,-0.195l-0.056,-0.307l-0.125,-0.056l-0.194,0.028l-0.528,-0.014l-0.319,-0.112l-0.375,0.014l-0.278,0.07l-0.139,-0.056l0.056,-0.251l0.139,-0.056l0.264,0.028h0.542l1.458,-0.084l1,-0.167l0.514,0.014l0.597,0.195l1.792,0.307l1.222,0.153l0.597,-0.195l0.958,-0.767l1.014,-1.185l0.847,-1.255l-0.069,-0.139l-0.167,0.014l-0.25,-0.042l0.014,-0.084l0.208,-0.084l0.389,-0.042l0.264,-0.125l0.208,-0.418l0.861,-0.99l0.056,-0.265l-0.125,-0.195v-0.139l0.153,-0.042l0.153,0.07l0.319,-0.028l0.792,-0.711l0.847,-1.101l0.069,-0.502l0.139,-0.014l0.153,0.084h0.208l0.194,-0.125l0.042,-0.209l-0.125,-0.167l-0.375,-0.056l-0.236,0.056l-0.292,-0.014l-1.042,-0.418l-2.056,-0.307l-1.958,-0.028l-0.736,0.223l-0.681,0.404l-0.431,-0.028l-0.028,-0.112l0.153,-0.251l-0.014,-0.209l-0.958,-0.544l-0.444,-0.098l-0.208,0.125h-0.125l-0.069,-0.07l0.014,-0.125l-0.389,-0.139l-1.958,-0.251l-1,0.028l-0.361,0.251l-0.056,0.376l-0.111,0.056l-0.208,-0.07l-0.028,-0.139l-0.292,-0.237l-0.444,-0.028l-1.681,0.181l-2.139,0.6l-0.944,0.53l-0.056,0.404l0.361,0.404l0.292,0.084l0.25,-0.084l0.264,0.014l0.042,0.125l-0.25,0.139l-0.042,0.181l0.764,0.502l0.042,0.153l-0.25,0.181l-0.389,-0.056l-0.431,-0.307l-0.472,-0.279l-0.653,-0.014l-0.403,0.157l-0.365,0.429l-0.01,0.471l0.198,0.282l0.052,0.335l-0.115,0.251v0.418l0.125,0.627l0.146,0.502l-0.01,0.523l0.115,0.345l-0.042,0.178l-0.333,0.052l-0.073,0.22l0.062,0.23l-0.01,0.199l-0.104,0.157v0.188l0.208,0.188l-0.01,0.209l-0.125,0.22l-0.052,0.418l0.094,0.303l0.25,0.115l0.083,0.199l-0.135,0.136v0.167l0.125,0.115l0.51,0.16l0.264,0.237l0.014,0.335l0.222,0.279l0.323,0.087l0.149,0.234l0.014,0.251l-0.208,0.139l-0.042,0.181l0.194,0.223l0.014,0.251l-0.083,0.223l-0.028,0.878l0.153,0.307v0.265l-0.139,0.251v0.293l0.069,0.293l0.319,0.112l0.667,-0.07Z M286.429,116.769l0.01,-0.23l-0.229,-0.345l-0.146,-0.01l-0.052,0.146l0.125,0.324l0.146,0.105l0.146,0.01Z M286.45,116.006l0.031,-0.146l-0.021,-0.282l-0.125,-0.23l-0.094,0.01l-0.135,0.282l0.094,0.324l0.156,0.094l0.094,-0.052Z M286.231,114.992h0.146l0.073,-0.272l-0.021,-0.282l-0.187,-0.052l-0.25,0.084l-0.073,0.157l0.052,0.146l0.177,0.073l0.083,0.146Z M286.44,112.105l-0.052,0.157l0.01,0.136l0.115,0.021l0.021,-0.125l-0.021,-0.178l-0.073,-0.01Z M293.488,107.034l-0.069,0.112v0.098l0.097,0.042l0.083,-0.084v-0.125l-0.111,-0.042Z M288.086,108.066l0.097,-0.028v-0.167l-0.125,-0.014l-0.056,0.098l0.014,0.084l0.069,0.028Z M306.919,108.191l0.75,0.056l0.25,-0.195l0.028,-0.195l-0.208,-0.139l-0.75,0.028l-0.264,0.139l0.014,0.167l0.181,0.139Z M286.85,117.881l0.014,0.125l0.069,0.084l0.083,-0.028l0.028,-0.112l-0.083,-0.098l-0.111,0.028Z M287.044,118.299v0.112l0.083,0.028l0.056,-0.07l-0.042,-0.098l-0.097,0.028Z M287.488,121.367l0.056,-0.07l-0.028,-0.084l-0.069,-0.042l-0.069,0.056l0.014,0.098l0.097,0.042Z M291.922,122.332l0.157,-0.007l0.042,-0.07l-0.083,-0.112l-0.167,0.028l-0.111,0.07l0.038,0.075l0.125,0.016Z M292.426,122.45l0.222,-0.042l0.028,-0.112l-0.069,-0.139l-0.181,-0.014l-0.167,0.125l0.028,0.139l0.139,0.042Z M291.875,122.658l0.111,-0.028l0.042,-0.112l-0.042,-0.098l-0.083,0.014l-0.056,0.125l0.028,0.098Z "/>
</svg>
