<svg xmlns="http://www.w3.org/2000/svg" viewBox="1000.407 495.492 0.438 0.538">
  <path d="M1000.510109,495.539425l0.019325,-0.011043l-0.009663,-0.026227l-0.020705,-0.009663l-0.027607,0.00138l-0.004141,0.017945l0.042791,0.027607Z M1000.659189,495.560131l0.008282,0.009663l0.004141,0.013804l0.013804,-0.005521l-0.002761,-0.019325l-0.017945,-0.012423l-0.022086,0.002761l0.00138,0.008282l0.015184,0.002761Z M1000.74063,495.694026l0.012423,-0.006902l-0.027607,-0.031748l-0.019325,-0.004141l-0.023466,-0.023466l-0.004141,0.012423l0.015184,0.017945l0.004141,0.024847l0.013804,0.005521l0.012423,-0.005521l0.016564,0.011043Z M1000.424527,495.854149l-0.015184,0.031748l0.008282,0.042791l0.035889,0.017945l0.042791,0.063497l0.033129,0.012423l0.013804,-0.008282l0.041411,-0.013804l0.011043,-0.020705l-0.013804,-0.023466h-0.015184l-0.012423,0.033129l-0.020705,0.012423l-0.020705,-0.005521l-0.028988,-0.057975l-0.023466,-0.030368l-0.023466,0.002761l-0.004141,-0.015184l0.012423,-0.048313l0.012423,0.00138l0.004141,0.03727l0.011043,0.00138l0.004141,-0.026227l-0.019325,-0.03727l-0.006902,-0.044172l-0.017945,-0.045552l-0.013804,0.00138l-0.012423,0.028988l0.017945,0.089724Z M1000.686796,496.00875l0.013804,0.020705l0.040031,-0.002761l0.064877,-0.033129l0.034509,-0.055215l0.004141,-0.031748l-0.023466,-0.059356l-0.020705,-0.020705l-0.015184,0.006902l0.017945,0.041411l0.023466,0.027607v0.019325l-0.016564,0.005521l-0.012423,0.045552l-0.015184,0.009663l-0.027607,-0.011043l-0.015184,0.004141l-0.004141,0.019325l-0.024847,0.005521l-0.022086,-0.012423l-0.002761,-0.019325l-0.012423,0.004141l-0.005521,0.026227l0.019325,0.009663Z M1000.747532,495.70645l0.006902,0.019325l0.012423,-0.00138v-0.019325l-0.011043,-0.008282l-0.008282,0.009663Z M1000.775139,495.758903l0.016564,0.012423l0.008282,-0.009663l-0.023466,-0.024847l-0.006902,0.006902l0.005521,0.015184Z M1000.786182,495.814118h0.015184l0.002761,-0.009663l-0.020705,-0.004141l-0.009663,0.008282l0.012423,0.005521Z M1000.784802,495.778229v0.013804l0.020705,0.005521l0.005521,-0.015184l-0.008282,-0.011043l-0.017945,0.006902Z M1000.529434,495.977001l0.017945,-0.002761l-0.00138,-0.011043h-0.026227l-0.005521,0.011043l0.015184,0.002761Z "/>
</svg>
