<svg xmlns="http://www.w3.org/2000/svg" viewBox="1000.407 495.492 0.438 0.538">
  <path d="M1000.51,495.539l0.019,-0.011l-0.01,-0.026l-0.021,-0.01h-0.028l-0.004,0.019 l0.043,0.028Z M1000.659,495.56l0.008,0.01l0.004,0.014l0.014,-0.006l-0.003,-0.019l-0.018,-0.012l-0.022,0.003v0.008l0.017,0.003 Z M1000.741,495.694l0.012,-0.007l-0.028,-0.032l-0.019,-0.004l-0.023,-0.023l-0.004,0.012l0.015,0.018l0.004,0.025l0.014,0.006l0.012,-0.006l0.017,0.011Z M1000.425,495.854l-0.015,0.032l0.008,0.043l0.036,0.018l0.043,0.063l0.033,0.012l0.014,-0.008l0.041,-0.014l0.011,-0.021l-0.014,-0.023h-0.015l-0.012,0.033l-0.021,0.012l-0.021,-0.006l-0.029,-0.058l-0.023,-0.03l-0.023,0.003l-0.004,-0.015l0.012,-0.048h0.012l0.004,0.039 h0.011l0.004,-0.025 l-0.019,-0.037l-0.007,-0.044l-0.018,-0.046h-0.014l-0.012,0.03 l0.018,0.09Z M1000.687,496.009l0.014,0.021l0.04,-0.003l0.065,-0.033l0.035,-0.055l0.004,-0.032l-0.023,-0.059l-0.021,-0.021l-0.015,0.007l0.018,0.041l0.023,0.028v0.019l-0.017,0.006l-0.012,0.046l-0.015,0.01l-0.028,-0.011l-0.015,0.004l-0.004,0.019l-0.025,0.006l-0.022,-0.012l-0.003,-0.019l-0.012,0.004l-0.006,0.026l0.019,0.01Z M1000.748,495.706l0.007,0.019h0.012v-0.021l-0.011,-0.008l-0.008,0.01Z M1000.775,495.759l0.017,0.012l0.008,-0.01l-0.023,-0.025l-0.007,0.007l0.006,0.015Z M1000.786,495.814h0.015l0.003,-0.01l-0.021,-0.004l-0.01,0.008l0.012,0.006Z M1000.785,495.778v0.014l0.021,0.006l0.006,-0.015l-0.008,-0.011l-0.018,0.007Z M1000.529,495.977l0.018,-0.003v-0.011h-0.028l-0.006,0.011l0.015,0.003Z "/>
</svg>
