<svg xmlns="http://www.w3.org/2000/svg" viewBox="341.918 579.903 7.450 0.855">
  <path d="M348.657,580.321v-0.01l0.008,-0.017 h0.018l0.028,0.017 l0.004,0.029l0.029,0.015l0.013,0.011l0.021,0.011l-0.006,0.007l-0.027,-0.01l-0.028,0.004l-0.039,-0.019l-0.006,-0.032l-0.017,-0.007Z M348.685,580.223l0.025,0.018l0.018,0.004l0.007,-0.01l-0.01,-0.021l0.021,-0.021h0.024l0.018,-0.023l-0.006,-0.021l0.02,-0.021l0.017,0.004l0.013,0.021h0.017l0.004,-0.03 l0.017,-0.012l0.022,0.011l0.003,0.018l0.02,-0.003l0.021,-0.018l0.014,-0.029l0.034,-0.015l0.025,0.01v0.026l0.003,0.03 l0.004,0.022l0.014,0.008l0.035,-0.012h0.031l0.042,-0.017 h0.018l0.007,0.012 l0.014,0.006l0.022,0.003l0.035,0.019l0.017,0.017l0.057,0.029h0.028l0.032,-0.032 l-0.004,-0.03l-0.022,-0.021l-0.006,-0.022l-0.034,-0.041l-0.003,-0.022l-0.02,-0.011l-0.041,-0.003l-0.043,0.006l-0.025,0.011h-0.02l-0.017,-0.019 l0.008,-0.019l-0.006,-0.015l-0.066,-0.046l-0.008,-0.026l-0.043,-0.025h-0.028l-0.018,-0.01 l-0.021,0.003l-0.02,0.017l-0.006,0.011l-0.018,0.004l0.003,0.006l0.017,0.003l0.017,0.026l-0.007,0.011v0.012l0.01,0.01l-0.006,0.025l-0.024,0.018l-0.011,0.018l-0.046,0.014l-0.024,-0.007l-0.028,0.007l-0.021,0.023l-0.006,0.015l-0.018,0.01l-0.018,0.003l-0.027,0.026l-0.003,0.018l0.011,0.012v0.01l-0.017,0.004 h-0.014l-0.014,0.01 v0.012Z M341.92,580.475l-0.002,0.023l0.037,0.031l0.002,0.024l-0.014,0.033l0.012,0.031l0.016,-0.002l0.019,0.007l-0.004,0.02l0.01,0.021l0.024,-0.003l0.025,0.023l0.002,0.023l0.008,0.014l0.018,0.003l0.008,0.008v0.014l0.009,0.006 l0.053,0.007h0.023l0.051,-0.043l0.016,-0.045l-0.005,-0.031l0.002,-0.052l0.011,-0.034l-0.007,-0.025l-0.028,-0.044l-0.021,-0.051l-0.006,-0.046l-0.013,-0.014v-0.015l-0.011,-0.008 h-0.078l-0.026,0.017 h-0.023l-0.04,0.024l-0.009,0.029l-0.021,0.019l-0.011,0.021l-0.026,0.016Z "/>
</svg>
