<svg xmlns="http://www.w3.org/2000/svg" viewBox="663.515 258.541 16.720 9.247">
  <path fill-rule="evenodd" d="M673.509434,259.070255l0.042,-0.01l0.013,-0.023l-0.026,-0.039l0.038,-0.02l0.083,-0.006l0.034,0.034l0.015,0.057l-0.023,0.02l-0.049,-0.013l-0.054,0.011l-0.031,0.025l-0.039,-0.005l-0.003,-0.031z M667.508779,267.283502l0.097,0.118l0.016,0.069l0.084,0.083l0.031,0.092l0.056,0.042l0.059,-0.005l0.074,-0.08l0.036,-0.003l0.041,0.054l0.079,0.031l0.041,-0.015l0.003,-0.057l0.074,-0.065l0.094,-0.01l0.041,0.018l0.039,-0.01l0.041,-0.059l0.012,-0.067l0.057,-0.018l0.061,0.041l0.043,0.002l0.049,-0.015l0.061,0.018l0.029,0.033l0.043,0.016l0.044,-0.008l0.162,-0.098l0.082,-0.015l0.031,-0.031l0.01,-0.07l0.074,-0.054l0.105,-0.034l0.043,0.029l0.031,-0.011l-0.015,-0.1l0.041,-0.057l0.092,-0.018l0.03,0.034l0.092,0.028l0.123,-0.008l0.087,-0.028l0.051,0.01l0.067,0.07l0.064,0.023l0.03,0.036l0.005,0.067l0.039,0.028h0.054l0.063,-0.061l0.054,0.002l0.077,0.065l0.061,0.007l0.069,-0.023l0.133,0.039l0.054,-0.023l0.008,-0.042l-0.021,-0.051l0.023,-0.119l0.085,-0.1l0.076,-0.029h0.21l0.072,-0.028l0.075,-0.143l0.041,-0.027l0.01,-0.035l-0.027,-0.161l0.02,-0.062l0.072,-0.034l0.184,-0.028l0.051,-0.041l0.003,-0.055l0.052,-0.035h0.047l0.034,-0.041l-0.013,-0.058l0.02,-0.052l0.024,-0.024l0.004,-0.048l-0.069,-0.169l-0.105,-0.11l-0.089,-0.027l-0.014,-0.048l0.12,-0.141l0.082,-0.041l0.057,0.017l0.127,-0.007l0.082,-0.048l0.047,-0.107l0.051,-0.038l0.048,-0.006l0.034,-0.045l0.014,-0.059l0.041,-0.027l0.106,-0.01l0.04,-0.052l-0.017,-0.079l-0.058,-0.028l0.004,-0.048l0.051,-0.038l0.061,-0.006l0.164,-0.121l0.099,-0.01l0.123,-0.048l0.061,0.014l0.055,0.051l-0.014,0.11l0.031,0.083l0.003,0.072l-0.017,0.041l-0.003,0.093l0.003,0.12l-0.034,0.083l-0.055,0.02l-0.027,0.09l0.021,0.072l0.051,0.041v0.055l-0.021,0.031l0.007,0.028l0.099,0.072l0.15,0.045l0.075,0.051l0.026,0.079l0.09,0.079l0.034,0.073l0.068,0.048l0.024,0.079l0.051,0.051l0.14,0.031l0.201,0.09l0.12,-0.052l0.058,0.017l0.051,0.045l0.075,0.014l0.054,-0.014l0.14,0.072l0.027,0.086l-0.098,0.144l-0.082,0.038l-0.058,0.131l0.027,0.021l0.106,0.006l0.201,0.145l0.034,-0.004l0.041,0.024l-0.003,0.11l0.098,0.124l0.031,0.169l-0.061,0.092l0.003,0.062l0.027,0.007l0.072,-0.048l0.085,0.017h0.072l0.037,0.028l0.004,0.041l0.085,0.024l0.062,-0.065l0.04,-0.162l0.035,-0.041l0.068,-0.031l0.037,-0.086l-0.126,-0.11l-0.078,-0.021l-0.052,-0.072l-0.008,-0.077l-0.061,-0.031l0.01,-0.059l0.089,-0.049l0.013,-0.096l-0.064,-0.08l0.031,-0.098l0.125,-0.062l0.059,0.006l0.033,-0.029l0.034,-0.09l-0.047,-0.113l0.023,-0.047l0.113,-0.039l0.067,-0.074l0.115,-0.091l0.069,-0.018l0.051,-0.043l0.007,-0.088l0.082,-0.114l0.085,-0.038l0.023,-0.034l0.036,-0.142l0.092,-0.131l0.064,-0.165l-0.018,-0.103l-0.049,-0.026l-0.015,-0.049l0.028,-0.057l-0.028,-0.149l-0.095,-0.062l-0.02,-0.054l0.025,-0.039l0.056,-0.015l0.029,-0.057v-0.096l0.048,-0.064l0.123,-0.034l0.113,0.003l0.03,-0.01l0.031,0.018l0.005,0.067l0.061,0.062l0.077,0.036l0.049,-0.016l0.023,-0.087l0.105,-0.073l0.025,0.013l-0.013,0.083l-0.033,0.002l0.003,0.021l0.041,0.013l0.002,0.036l-0.02,0.134v0.116l0.03,0.121l-0.015,0.039l0.01,0.039l0.113,0.051l0.064,0.078l0.013,0.072l0.102,0.111l0.23,0.064l0.049,0.029l0.074,0.002l0.092,-0.067l0.054,0.005l0.041,0.031l0.066,0.003l0.049,-0.065l0.005,-0.16l0.043,-0.049l0.044,0.003l0.066,0.059l0.049,0.005l0.041,-0.036l0.13,-0.038l0.026,-0.036l0.076,-0.021l0.052,0.005l0.058,-0.018l0.041,-0.054h0.051l0.044,0.057l0.031,-0.003l0.028,-0.033l0.056,-0.006l0.113,0.091l0.051,0.01l0.015,0.028l-0.051,0.065l-0.005,0.044l0.048,0.059l0.008,0.051l-0.023,0.029l0.018,0.046l0.128,0.042l0.097,0.064l-0.003,0.08l-0.04,0.049l0.015,0.039l0.072,0.025l0.066,-0.028l0.087,0.003l0.046,0.012l0.064,-0.023l0.031,-0.062l0.081,-0.051l-0.002,-0.06l-0.128,-0.185l-0.082,-0.047l-0.046,-0.092l0.026,-0.088l0.048,-0.013l0.023,-0.031l-0.002,-0.069l0.043,-0.042l0.057,0.003l0.023,-0.023l-0.029,-0.122l-0.084,-0.061l-0.054,0.005l-0.076,0.038l-0.046,-0.005l-0.034,-0.02h-0.033l-0.026,-0.016l-0.01,-0.044l-0.038,-0.013l-0.021,-0.031l0.049,-0.067l-0.008,-0.046l-0.023,-0.046l-0.002,-0.129l0.023,-0.031l0.005,-0.052l-0.028,-0.033l0.015,-0.031l0.059,-0.018l0.077,-0.122l0.041,-0.012l0.017,-0.037l-0.015,-0.054l0.01,-0.059l0.026,-0.015l0.082,0.012l0.199,-0.064l0.08,0.008l0.048,-0.005l0.056,-0.06l0.031,0.008l0.01,0.046l0.039,0.037l0.002,0.041l-0.046,0.054l0.005,0.082l0.036,0.021l0.049,-0.021l0.071,0.039l0.039,0.075l0.056,0.018l0.028,-0.018l0.033,0.01l0.011,0.026l0.03,0.003l0.051,-0.042l0.093,0.005l0.04,0.031l0.041,0.006l0.039,-0.026l0.046,0.005l0.074,0.072l0.038,-0.005l0.062,-0.059l0.046,-0.158l0.013,-0.139l-0.031,-0.046l-0.09,-0.105l-0.049,-0.008l-0.084,0.021l-0.041,-0.021l-0.046,-0.093l0.002,-0.059l-0.033,-0.047l0.005,-0.028l0.049,-0.018l0.071,-0.111l-0.035,-0.069l0.007,-0.042l0.105,-0.062l0.021,-0.074l-0.052,-0.075l0.011,-0.054l0.066,-0.039l0.053,-0.161l0.007,-0.082l-0.02,-0.063l0.037,-0.104l0.037,-0.035l-0.01,-0.097l-0.101,-0.073l-0.081,-0.014l-0.041,-0.034l0.014,-0.07l-0.071,-0.094l-0.071,-0.01l-0.06,0.035l-0.068,0.01l-0.037,0.024l-0.067,0.143l-0.041,0.021l-0.017,0.038l0.034,0.048l-0.013,0.035h-0.064l-0.108,-0.031l-0.068,-0.007l-0.027,0.031l-0.027,0.146l0.014,0.104l-0.037,0.028l-0.105,0.004l-0.067,0.055l-0.108,0.032l-0.148,0.02l-0.044,-0.027l-0.017,-0.052l-0.037,-0.021l-0.061,0.007l-0.037,-0.011l-0.024,-0.055l-0.074,-0.105l-0.057,-0.02l-0.047,0.003l-0.041,-0.01l-0.044,-0.049l-0.067,-0.007l-0.044,0.01l-0.087,-0.017l-0.132,-0.087l-0.03,-0.073v-0.101l0.047,-0.066l0.003,-0.066l-0.06,-0.034l-0.003,-0.033l0.025,-0.013l-0.012,-0.026h-0.056l-0.061,0.037l-0.065,-0.013l-0.124,-0.084l-0.073,-0.015l-0.064,0.008l-0.124,-0.037l-0.073,-0.058l-0.073,-0.013l-0.081,0.019l-0.026,0.018l-0.069,-0.001l-0.061,-0.033l-0.167,0.053l-0.02,-0.006l-0.006,-0.031l-0.03,-0.031l-0.037,-0.004l-0.056,0.016l-0.032,0.021l-0.063,0.005l-0.016,0.021h-0.014l-0.003,-0.023h-0.013l-0.009,0.016l-0.015,-0.002l0.002,-0.057l0.128,-0.084l0.025,-0.043l0.002,-0.049l-0.034,-0.177l-0.059,-0.085l-0.014,-0.089l0.012,-0.095l0.043,-0.115l0.068,-0.102l0.03,-0.113l0.063,-0.04l0.032,-0.082l0.098,-0.071l0.045,-0.12l0.041,-0.071l0.077,-0.061l0.078,-0.005l0.075,-0.058l0.004,-0.05l-0.076,-0.073l-0.017,-0.149l0.035,-0.044l0.002,-0.026l-0.135,-0.017l-0.031,-0.056l-0.027,0.002l-0.008,0.033l-0.033,-0.007l-0.038,-0.087l-0.075,-0.062l-0.002,-0.053l-0.023,-0.098l-0.034,-0.079l-0.161,-0.014l-0.238,-0.264l-0.662,-0.292l-0.079,-0.006l-0.071,0.022l-0.162,-0.01l-0.037,0.001l-0.04,-0.019l-0.024,-0.024l-0.062,0.008l-0.062,-0.01l-0.054,-0.036l-0.064,-0.018l-0.132,-0.013l-0.072,-0.026l-0.085,0.003l-0.103,0.043l-0.093,0.062l-0.181,0.062l-0.069,0.003l-0.031,-0.013l-0.037,-0.03l-0.007,-0.06l-0.066,-0.052l-0.012,-0.046l0.021,-0.019l0.06,0.014l0.005,-0.021l-0.022,-0.027l-0.05,-0.002l-0.051,-0.034l-0.076,-0.012l-0.048,-0.045l0.007,-0.022l-0.012,-0.033l-0.024,0.002l-0.021,0.036l-0.05,0.007l-0.046,0.063l0.024,0.033l0.06,0.008l0.038,0.047l-0.016,0.063l-0.022,0.019l-0.04,-0.009l-0.099,-0.054l-0.088,-0.011l-0.012,-0.025l0.022,-0.066l-0.014,-0.027l-0.055,-0.026l-0.001,-0.045l0.034,-0.056l0.055,-0.014l0.004,-0.031l-0.064,-0.044h-0.057l-0.039,0.029l-0.026,-0.005l-0.016,-0.038l-0.001,-0.046l-0.019,-0.04l-0.074,-0.031l-0.002,-0.024l-0.026,-0.01l-0.027,0.044l0.014,0.037v0.053l-0.043,0.051h-0.03l-0.025,-0.029l-0.002,-0.043l-0.019,-0.022l-0.003,-0.031l0.015,-0.028v-0.018l-0.028,-0.016l-0.048,-0.008l-0.039,0.006l-0.06,-0.012l-0.009,-0.017l-0.021,-0.003l-0.013,0.046l0.012,0.028l0.036,0.012l0.003,0.025l-0.024,0.021h-0.034l-0.036,-0.021l-0.086,0.028l-0.016,0.024l-0.022,0.002l-0.017,-0.018l-0.023,-0.001l-0.032,0.02l-0.047,0.002l-0.055,0.039l-0.02,0.045l-0.052,0.064l-0.003,0.03l0.018,0.021l-0.003,0.029l-0.034,0.005l-0.064,0.042l-0.033,0.008l-0.031,0.029l-0.005,0.036l0.035,0.047l-0.004,0.02l-0.034,0.007l-0.012,0.029l0.019,0.028l0.06,0.012l0.046,0.036l0.057,0.015l0.022,-0.012l0.018,0.004l0.001,0.053l0.026,0.022l0.014,-0.01l-0.009,-0.026l0.019,-0.008l0.038,0.029l0.017,0.002l0.005,-0.018l0.128,-0.007l0.01,-0.018l-0.009,-0.038l0.012,-0.009l0.021,0.019l0.019,-0.003l-0.004,-0.033l0.045,-0.024l0.029,0.005l0.016,0.021l0.041,0.01l0.05,-0.015l0.034,-0.029h0.028l0.002,0.018l0.074,0.076l0.001,0.029l-0.034,0.033l-0.031,0.001l-0.007,-0.017l0.014,-0.031l-0.023,-0.012l-0.039,0.036l-0.005,0.067l0.029,0.05l-0.005,0.04l-0.069,0.065h-0.034l-0.028,-0.012l-0.015,-0.021l0.008,-0.026l0.024,-0.01l0.004,-0.026l-0.064,-0.041l-0.039,0.002l-0.03,-0.014l-0.02,-0.024h-0.054l-0.01,0.041l-0.033,0.03l-0.11,0.027l-0.061,0.045l0.008,0.056l0.043,0.021l0.047,-0.007l0.024,0.005l-0.004,0.022l-0.191,0.06l-0.063,-0.006l-0.083,-0.031l-0.036,0.003l-0.024,0.034h-0.029l-0.059,-0.012l-0.082,-0.006l-0.059,-0.012l-0.086,-0.076l-0.008,-0.06l-0.026,-0.027l-0.052,-0.009l-0.017,0.012l-0.026,-0.003l-0.013,-0.024l-0.073,0.003l-0.037,0.038h-0.024l-0.037,-0.06l-0.039,-0.006l-0.038,0.018l-0.045,0.06l-0.084,0.043l-0.038,-0.014l-0.039,0.02l-0.007,0.026l-0.022,0.021h-0.071l-0.038,0.039l-0.005,0.045l-0.029,0.027h-0.04l-0.039,-0.022h-0.05l-0.081,0.053l-0.055,0.002l-0.069,-0.027l-0.156,0.006l-0.076,0.054l-0.079,-0.014l-0.033,-0.036l0.002,-0.074l-0.033,-0.051l-0.056,-0.026l-0.095,-0.004l-0.046,0.026l-0.045,-0.002l-0.046,-0.015l-0.04,0.021l-0.021,0.051l-0.067,0.07l-0.278,0.062l-0.072,0.04l-0.09,-0.016l-0.039,-0.034l-0.047,-0.021l-0.058,-0.058l0.01,-0.014l0.05,0.014l0.086,-0.012l0.058,-0.019l0.007,-0.021l-0.022,-0.012l-0.029,-0.042l0.003,-0.023l0.036,-0.038l-0.012,-0.01l-0.046,0.033l-0.057,-0.014l-0.048,0.007l-0.084,0.079l-0.04,-0.002l-0.029,-0.027l-0.08,-0.036l-0.006,0.071l-0.024,0.009l-0.046,-0.006l-0.037,0.029l-0.002,0.027l-0.138,0.084l-0.05,0.013l-0.025,0.037l0.013,0.022l0.067,-0.005l0.031,0.01v0.027l-0.029,0.03h-0.039l-0.012,0.027l0.011,0.049l-0.017,0.032l-0.062,0.057h-0.062l-0.04,-0.034l-0.04,-0.011l-0.048,-0.028l-0.061,0.068l0.01,0.009l0.033,-0.005l0.083,0.043l-0.031,0.048l-0.049,0.006l-0.025,0.019l-0.018,0.05l-0.063,0.031l-0.008,0.018l-0.09,0.007l-0.095,-0.007l-0.051,-0.025l-0.126,0.008l-0.076,0.023l-0.045,0.035l-0.069,0.022l-0.024,-0.011l-0.037,-0.062l-0.027,-0.011l-0.099,0.02l-0.041,-0.023l-0.057,-0.005l-0.01,-0.019l0.028,-0.112l0.05,-0.085l0.033,-0.022l-0.009,-0.009l-0.059,0.017l-0.076,0.002l-0.085,-0.049l-0.038,-0.003l-0.053,0.034l-0.079,-0.001l-0.048,0.034l-0.021,-0.003l-0.018,-0.018l-0.138,-0.035l-0.04,-0.016l-0.127,0.04l-0.003,0.023l0.027,0.115l0.026,0.014v0.058l-0.028,0.024l-0.067,0.001l-0.021,0.018l-0.001,0.032l-0.024,0.019l-0.058,-0.004l-0.016,0.019l0.007,0.091l-0.018,0.017l-0.069,0.006l-0.024,0.044l0.004,0.034l-0.012,0.015l-0.057,0.016l-0.04,0.042l-0.015,0.102l0.015,0.008l0.055,-0.027l0.032,-0.004l0.054,0.016h0.023l0.028,-0.016l0.214,-0.023l0.058,-0.038l0.03,-0.007l0.068,0.023l0.045,0.035l0.014,0.061l0.021,0.026l-0.029,0.054l-0.036,0.015l-0.112,0.002l-0.005,0.018l0.02,0.014l0.002,0.033l-0.032,0.053l-0.051,0.02l-0.057,0.006l-0.022,0.016h-0.078l-0.018,0.02l0.018,0.089l-0.007,0.064l0.029,0.035l-0.004,0.02l-0.049,0.027l-0.024,0.034l-0.093,0.045l-0.105,0.11l-0.034,0.073l-0.104,0.054l0.004,0.023l0.047,0.005v0.019l-0.164,0.169l-0.12,0.058l-0.055,0.001l-0.059,0.049l-0.025,-0.002l-0.01,0.01l0.022,0.047l-0.005,0.023l-0.026,0.011l-0.04,-0.004l-0.071,0.036l-0.007,0.037l-0.04,0.024l-0.001,0.02l0.09,0.052l-0.002,0.019l-0.081,0.062l-0.062,0.001l-0.072,0.041l-0.068,0.11l-0.082,0.052h-0.087l-0.083,0.043l-0.188,0.039l-0.031,0.026l-0.021,-0.004l-0.025,-0.035l-0.021,0.001l-0.058,0.05l-0.088,0.111l-0.07,0.039v0.023l0.085,0.093l0.024,0.066l-0.017,0.215l-0.061,0.084l-0.006,0.068l-0.032,0.031l0.005,0.032l0.089,0.065l-0.018,0.062l-0.101,0.089l-0.109,0.03l-0.022,0.026l-0.003,0.032l-0.025,0.02l-0.045,0.014l-0.037,0.026l-0.027,0.037l-0.245,0.126l-0.048,0.039l-0.014,0.029l-0.142,0.131l-0.036,0.01l-0.044,0.04l-0.039,0.021l-0.059,0.052l-0.008,0.024l-0.062,0.024l-0.083,0.057l-0.098,0.09l0.166,0.145l-0.024,0.024l0.014,0.014l-0.04,0.038l-0.019,-0.014l-0.079,0.081l-0.07,0.141l-0.082,0.065v0.066l0.037,0.024l-0.001,0.029l-0.04,0.036l-0.036,0.059l0.01,0.022l0.105,0.027l0.016,0.039l0.028,0.012h0.032l0.071,0.045l0.051,0.045l0.039,0.002l0.029,0.033v0.025l-0.033,0.036l-0.004,0.029l-0.042,0.041l-0.034,0.012l-0.01,0.012l-0.001,0.034l-0.044,0.046l-0.009,0.069l-0.011,0.033l-0.044,0.033l0.003,0.042l0.057,0.063l0.006,0.058l-0.044,0.052l-0.036,0.004l-0.058,-0.033l-0.082,0.012l-0.043,0.044l-0.029,0.004l-0.037,-0.016l-0.091,0.035l-0.025,0.031l-0.043,0.019l-0.041,0.004l-0.028,0.038l-0.016,0.036l0.011,0.023l0.081,0.03l0.015,0.031l-0.025,0.044l-0.036,-0.005l-0.052,0.112l0.003,0.037l-0.033,0.031l0.004,0.016l0.066,-0.012l0.032,-0.049l0.043,-0.011l0.027,0.012l0.082,0.003l0.04,0.023l0.033,-0.016l0.016,-0.046l0.051,-0.008l0.1,0.005l0.031,0.03l0.095,0.015l0.064,-0.014l0.058,-0.042l0.069,-0.025l0.037,-0.039l0.008,-0.056l0.057,-0.052l0.099,-0.06l0.067,-0.005l0.031,-0.021l0.08,-0.025l0.054,-0.049l0.052,-0.077l0.002,-0.046l-0.017,-0.005l-0.023,0.008l-0.017,-0.012l0.011,-0.03l-0.013,-0.005l-0.038,0.048l-0.038,0.026l-0.033,-0.006l-0.094,-0.098l-0.003,-0.045l0.047,-0.032l-0.013,-0.056l-0.103,-0.047l0.12,-0.217l0.309,-0.199l0.333,-0.054l0.339,-0.185l0.613,0.01l0.496,0.122l-0.062,0.183l0.015,0.033l-0.041,0.056l-0.063,0.005l-0.028,0.028l0.008,0.058l0.106,0.107l0.192,0.132l0.037,0.061l-0.011,0.084l-0.031,0.054l-0.057,0.03l-0.109,0.173l0.021,0.084l-0.034,0.074l-0.044,0.035l0.039,0.117l0.067,0.026l0.104,-0.008l0.159,0.023l0.028,0.036l-0.015,0.076l-0.029,0.048l-0.008,0.077l-0.041,0.091l0.033,0.036l0.086,-0.013l0.073,-0.071l0.036,-0.013l0.019,0.018l0.001,0.038l0.049,0.031l0.024,0.064l0.083,0.07l0.018,0.057l0.039,0.023l0.034,-0.004l0.021,0.023l0.004,0.036l0.035,0.034l-0.006,0.019l-0.033,0.007l-0.008,0.028l0.034,0.035l0.053,0.015l0.02,0.028l-0.005,0.062l0.007,0.081z M674.641052,267.022328l-0.031,0.088l0.034,0.013l0.03,-0.01l0.018,-0.039l-0.013,-0.052h-0.038z"/>
</svg>
