<svg xmlns="http://www.w3.org/2000/svg" viewBox="26.005 483.851 31.857 49.872">
  <path d="M48.636,531.096l-0.027-0.117l0.035-0.105l0.109-0.035l0.085,0.027l0.101-0.008l0.105,0.078v0.124l-0.051,0.078l-0.109,0.031l-0.152-0.05L48.636,531.096z M55.603,533.661l0.089,0.062l0.12-0.019l0.093,0.014l0.033-0.047l-0.014-0.093l-0.068-0.025l-0.039-0.091l-0.153,0.016l-0.052,0.082L55.603,533.661z M54.784,526.126l0.093,0.067l0.124-0.041v-0.109l-0.114-0.098l-0.098,0.026L54.784,526.126z M56.365,525.701l0.124-0.026l0.031-0.14l-0.088-0.041l-0.088,0.031l-0.01,0.109L56.365,525.701z M57.743,526.773l0.088,0.005l0.031-0.104l-0.047-0.088l-0.062-0.021l-0.052,0.067l0.01,0.104L57.743,526.773z M51.856,523.422l0.031,0.016l0.037-0.031l-0.029-0.05l-0.037-0.004l-0.017,0.035L51.856,523.422z M51.71,523.439l0.062,0.028l0.023-0.004l0.012-0.026l-0.011-0.004l-0.02,0.015l-0.016-0.013l0.004-0.041l-0.041-0.012l-0.023,0.027L51.71,523.439z M48.656,522.033l0.067-0.031l0.008-0.049l-0.021-0.036l0.013-0.07l0.044-0.065l-0.052-0.023l-0.093,0.119l-0.005,0.093L48.656,522.033z M35.967,518.694l0.019-0.021l-0.017-0.027l-0.03,0.007l-0.003,0.041H35.967z M36.058,518.45l0.035,0.027l0.025-0.006v-0.023l-0.045-0.016L36.058,518.45z M36.19,518.595l0.035,0.025l0.038-0.012l-0.004-0.021l-0.038-0.022L36.19,518.595z M36.034,518.791l0.01-0.019l-0.004-0.025l-0.021,0.008l0.001,0.027L36.034,518.791z M36.117,518.777l-0.005-0.025l-0.035-0.01l-0.004,0.021l0.028,0.023L36.117,518.777z M36.182,518.705l0.021-0.012L36.2,518.67l-0.031,0.001l0.003,0.026L36.182,518.705z M44.157,489.311l0.039-0.047l0.097,0.012l0.152,0.109l-0.008,0.062l0.03,0.017l0.055-0.064l-0.034-0.088l-0.148-0.103l-0.175-0.012l-0.036,0.099L44.157,489.311z M44.099,489.392l0.012,0.155l0.043,0.035l0.031-0.039l-0.027-0.051l-0.008-0.058L44.099,489.392z M44.296,489.594l0.052,0.021l0.062-0.028l-0.039-0.047l-0.07,0.004L44.296,489.594z M43.959,488.161l0.117-0.039l0.016-0.117l-0.051-0.004l-0.027,0.062l-0.099-0.007l-0.078,0.026l-0.014,0.057L43.959,488.161z M43.889,487.951l0.004-0.101l0.078-0.031l0.074,0.039l-0.008,0.066l0.029,0.008l0.056-0.066l-0.085-0.089l-0.106-0.011l-0.084,0.031l-0.02,0.115l0.012,0.075L43.889,487.951z M27.76,493.716l0.202-0.07l0.027-0.113l-0.183-0.148l-0.221,0.023l-0.023,0.113L27.76,493.716z M26.005,491.124l0.14-0.005l0.052-0.031l-0.036-0.067l-0.097,0.007l-0.058,0.04V491.124z M26.316,491.259l0.107,0.008l0.094-0.057l0.005-0.089l-0.031-0.073l-0.04-0.003l-0.014,0.139l-0.064,0.018l-0.078-0.057l-0.052,0.052L26.316,491.259z M26.272,490.685l0.045,0.033l-0.004,0.064l0.051,0.017l0.028-0.043l0.004-0.096l-0.057-0.062l-0.135,0.017l-0.021,0.063l0.033,0.034L26.272,490.685z M55.06,483.89l0.091,0.061l0.083,0.016l0.097-0.046l0.08,0.009l0.12,0.078l0.01-0.031l-0.036-0.057l-0.127-0.061l-0.167,0.027l-0.117-0.035L55.06,483.89z M55.029,483.96l0.023,0.093h0.062l-0.027-0.089L55.029,483.96z M55.115,484.233l0.068,0.099l0.068,0.025v-0.062l-0.109-0.078L55.115,484.233z M55.379,484.434l0.07,0.074l0.031-0.025l-0.051-0.08l-0.09-0.035l-0.027,0.019L55.379,484.434z M55.698,484.357l0.035-0.058l-0.033-0.081l-0.033-0.004l-0.019,0.124L55.698,484.357z M55.667,484.108l0.008-0.051l-0.058-0.008l-0.023,0.054L55.667,484.108z M55.628,484.43l-0.008-0.066l-0.051,0.016v0.058L55.628,484.43z M36.988,500.128l0.016-0.017l-0.014-0.019l-0.023,0.003l-0.005,0.023L36.988,500.128z M36.683,499.91l-0.003,0.018l0.019,0.007l0.017,0.003l0.002-0.016l-0.026-0.019L36.683,499.91z M36.769,499.973v-0.014l-0.005-0.024l-0.016-0.005l-0.003,0.014l0.01,0.028L36.769,499.973z M36.835,499.951l0.026,0.017l0.021-0.002l-0.005-0.016l-0.031-0.012L36.835,499.951z M36.664,499.88l0.014-0.006l-0.001-0.019l-0.018-0.001l-0.006,0.017L36.664,499.88z M36.643,499.821h0.017l0.01-0.012l-0.018-0.011l-0.018,0.01L36.643,499.821z M36.369,500.055l0.026,0.019l0.012-0.009l-0.01-0.017l-0.016-0.003L36.369,500.055z M36.439,499.925l0.024,0.017l0.012-0.009l-0.016-0.026l-0.017-0.002L36.439,499.925z M36.676,499.797l0.007-0.016l-0.009-0.016l-0.014,0.009l0.004,0.019L36.676,499.797z M36.699,500.279l-0.001,0.012l0.011,0.014l0.014-0.002v-0.012l-0.012-0.016L36.699,500.279z"/>
</svg>
