<svg xmlns="http://www.w3.org/2000/svg" viewBox="235.610 553.399 0.847 0.622">
  <path d="M235.649,553.967l-0.013,-0.065l0.026,-0.052l0.006,-0.041l0.011,-0.019l0.022,-0.008l0.018,-0.026v-0.037l0.014,-0.037 l0.004,-0.046l0.014,-0.029l0.023,-0.021l0.04,-0.112l0.054,-0.063l0.037,-0.012l0.032,0.004l0.021,0.014l0.065,0.005l0.047,0.023l0.008,0.018l0.023,0.008l0.018,-0.01l0.023,0.008l0.005,0.021l0.049,0.044h0.036l0.017,0.008l0.008,0.017l0.017,0.004l0.03,-0.011h0.054l0.015,0.008 l0.012,0.003l0.021,-0.007l0.025,0.007l0.026,0.04v0.018l-0.014,0.014 l-0.004,0.032l-0.015,0.012h-0.048l-0.055,0.008 h-0.029l-0.011,0.01 l0.006,0.019l-0.028,0.036l-0.035,0.014l-0.054,-0.008l-0.014,-0.01l-0.033,0.004l-0.08,0.052l-0.044,0.05l-0.061,0.022l-0.058,-0.006l-0.04,0.006l-0.032,0.018l-0.028,0.066l-0.04,0.029l-0.039,0.003l-0.055,-0.024Z M235.617,554.02h0.014l0.006,-0.008 l-0.006,-0.015h-0.01l-0.011,0.014l0.007,0.01Z M235.634,553.993h0.011v-0.006l-0.007,-0.007 l-0.008,0.004l0.004,0.008Z "/>
</svg>
