<svg xmlns="http://www.w3.org/2000/svg" viewBox="1044.168 374.807 8.947 7.705">
  <path d="M1052.249332,377.276238l0.011835,0.138455l-0.017753,0.037051l-0.100599,0.068253l-0.025643,0.039002l-0.025643,0.101404l-0.094681,0.050702h-0.116379l-0.055231,0.017551 l-0.065093,0.111154v0.052652l0.035505,0.107254 l-0.021698,0.070203l-0.03945,0.023401h-0.084819l-0.03156,0.062402l0.027615,0.070203l-0.098626,0.25741l-0.067066,0.062402l-0.086791,0.24181l0.003945,0.218409l-0.035505,0.097504l-0.094681,0.035101l-0.082846,0.206708l-0.02367,0.397816l0.086791,0.343214l-0.035505,0.070203l-0.046026,0.018201l-0.131502,0.0052l-0.071011,0.044202l-0.078901,0.135205l-0.035505,0.198908l-0.030245,0.040302l-0.03682,0.0104l-0.051286,-0.039002h-0.181472l-0.134132,0.035101l-0.095996,-0.0065l-0.099941,0.020801l-0.174897,0.118305l-0.067066,0.113104l-0.067066,0.054602l-0.161747,0.070203l-0.090736,0.136505l-0.094681,0.382215l-0.098626,0.171607l-0.123612,0.045502l-0.076271,-0.018201l-0.135447,-0.101404l-0.172267,-0.020801l-0.073641,0.013001l-0.207773,0.113104l-0.047341,0.014301l-0.03419,-0.020801l0.014465,-0.055902l-0.017095,-0.019501l-0.063121,-0.0078l-0.076271,0.0104l-0.092051,0.094904l-0.114406,0.230109v0.074103l0.063121,0.148206v0.097504l-0.114406,0.140406l-0.055231,-0.0078l-0.003945,-0.097504l-0.03156,-0.042902l-0.149912,0.0078l-0.106516,0.081903l-0.019725,0.132605l-0.035505,0.032501l-0.098626,0.0065l-0.030245,-0.022101l0.02104,-0.072803l-0.00263,-0.045502l-0.074956,-0.066303h-0.114406l-0.098626,0.105304l-0.067066,-0.0039v-0.062402l0.076271,-0.075403l0.00797,-0.042813l-0.040845,-0.096292l-0.180234,-0.073963l-0.081454,-0.01054l-0.173582,0.015601l-0.053916,-0.013001l-0.055231,-0.050702l-0.138077,-0.023401l-0.268263,0.027301l-0.123612,0.062402l-0.081531,-0.0078l-0.063121,-0.033801l-0.03945,-0.040302l0.00789,-0.093604l-0.03945,-0.061102l-0.106516,-0.059802l-0.132817,-0.028601l-0.100697,0.004701l-0.117596,0.027801l-0.090736,-0.019501l-0.094681,-0.144306l-0.059176,-0.035101l-0.280098,-0.035101l-0.051286,-0.027301l-0.0263,-0.093604l-0.073641,-0.067603l-0.128872,-0.053302l-0.232758,-0.035101l-0.169637,-0.058502l-0.042081,-0.063703l-0.001315,-0.104004l0.095996,-0.236609l0.01578,-0.192408l-0.02893,-0.25741l-0.110461,-0.269111l-0.145967,-0.097504l-0.02367,-0.081903l0.098626,-0.132605l0.035505,-0.183307l-0.035505,-0.140406v-0.159906l-0.098626,-0.288611l0.02367,-0.093604l0.143337,-0.165107l0.01841,-0.061102l-0.02367,-0.140406l-0.088106,-0.071503l-0.035505,-0.080603l0.009205,-0.152106l0.115721,-0.115705l0.01841,-0.048102v-0.105304l0.042081,-0.074103l0.056546,-0.032501l0.201197,-0.018201l0.071011,-0.046802l0.106516,-0.120905l0.118351,-0.097504l0.197252,-0.081903l0.319549,-0.273011l0.090736,-0.136505l0.102571,-0.066303l0.149912,-0.039002l0.355054,-0.159906l0.126242,-0.081903l0.057861,-0.071503l0.004738,-0.076502l0.020248,-0.058703l0.098626,-0.036401l0.098626,-0.0065l0.048656,0.014301l0.057861,0.088403l0.03419,0.013001l0.015123,-0.026001l-0.009863,-0.052002l-0.013808,-0.020151l-0.096654,-0.057852l-0.00526,-0.044202l0.094681,-0.020801l0.01578,-0.093604l-0.040108,-0.040952l-0.047341,-0.00585l-0.120324,0.058502l-0.049971,0.055902l-0.076271,0.113754l-0.03156,0.018851h-0.097311l-0.030903,-0.028601l-0.045368,-0.158606l0.01578,-0.065653l0.035505,-0.042902l0.067066,-0.042902l0.042081,-0.033151l0.026958,-0.068253l0.043396,-0.039002l0.102571,-0.033151l0.021698,-0.036401l0.00789,-0.085803l0.03419,-0.031201l0.076271,0.0052l0.02367,-0.023401l0.00789,-0.049402l0.029588,-0.014951l0.041423,0.017551l0.035505,0.029251l0.003945,0.033151l-0.020038,0.021461l-0.00166,0.017541l0.040108,0.028601l0.03682,-0.00325l0.071011,-0.042902l0.063121,0.0078l0.053258,0.033151l0.030903,0.065003l0.057861,0.028601l0.04835,-0.014428l0.038441,-0.032373l0.059176,0.0039l0.022355,0.0091l0.02893,0.075403l0.071011,0.033801l0.059176,-0.013001l0.055231,-0.035101h0.035505l0.01052,0.014301l-0.03682,0.041602l0.008548,0.016251l0.027615,-0.0078l0.082846,-0.046802l0.019725,-0.037051l-0.023143,-0.020899l-0.083373,-0.016153l-0.034848,-0.027951l-0.01315,-0.117005l0.049971,-0.149506l0.114406,-0.109204l0.182787,-0.088403l0.217635,-0.048102l0.125584,-0.0065l0.072326,0.029901l0.090079,0.105304l0.047727,0.017138l0.08246,0.000412l0.03945,0.021451l0.003945,0.046802l0.030903,0.022101l0.03945,-0.018201l0.01052,-0.109204l0.03419,-0.015601l0.03419,0.031201l0.01841,0.097504l0.090736,0.0117l0.03945,-0.046802l0.027615,-0.074103l0.055231,-0.042902l0.094681,-0.019501l0.078901,0.0078l0.02367,0.081903l0.047341,0.070203l0.082846,0.035101h0.090736l0.029443,-0.024868l0.037622,-0.053135l0.082846,-0.046802l0.169637,-0.027301l0.078901,-0.054602l0.106516,-0.206708l0.063121,-0.058502l0.145967,0.0117l0.118351,0.097504l0.134132,0.027301l0.122296,-0.070203l0.003945,-0.101404l0.035505,-0.039002l0.086791,-0.027301l0.090736,-0.0078l0.047341,0.050702l0.418175,0.226209l0.126242,0.0117l0.043396,0.027301l0.025643,0.107254l0.047998,0.018851l0.0263,-0.049402l0.038135,-0.027951l0.035505,0.00975l-0.01578,0.085803l0.02104,0.153406l0.060491,0.080603l0.052601,0.041602l0.03945,-0.015601l0.01578,-0.111804l-0.051286,-0.25351l-0.047341,-0.054602l-0.102571,-0.035101l-0.047341,-0.081903l0.041423,-0.099454l-0.011564,-0.045192l0.009591,-0.046462l0.067066,-0.060452l0.061148,-0.015601l0.094681,0.023401l0.051286,-0.0078l0.084819,-0.079953l-0.003945,-0.089704l0.027615,-0.017551l0.03945,0.017551l0.061148,0.093604l0.017753,0.175507l0.068381,0.122205l0.164377,0.127405l0.142022,0.046802l0.173582,0.066303l0.181472,-0.027301l0.055231,-0.058502l0.043396,0.015601l0.078901,0.167707l0.01578,0.148206l0.103684,0.316832l0.014667,0.125835l0.00263,0.342564l0.03419,0.104004l0.069696,0.066303l0.027615,0.109204l0.03945,0.046802l-0.00263,0.022101l-0.03156,0.0026l-0.088106,-0.040302l-0.082846,0.019501l-0.106516,0.136505l-0.155829,0.099454l-0.059464,0.057517l-0.104255,0.147241l-0.025643,0.00195l-0.053258,-0.029251l-0.027615,-0.109204l-0.051286,-0.062402l-0.00789,-0.093604l0.067066,-0.035101l0.078901,0.021451l0.03945,-0.00585l0.033125,-0.035477l0.016188,-0.040576l-0.00789,-0.076053h-0.019725l-0.027615,0.054602l-0.01578,0.015601l-0.132159,0.021451l-0.051286,-0.00195l-0.084819,-0.021451l-0.041423,0.00585l-0.011835,0.035101l0.059176,0.095554l0.041423,0.017551l0.100599,0.167707l0.001973,0.050702h-0.02367l-0.037478,-0.029251l-0.029588,0.0078l-0.025643,0.054602Z M1050.968607,374.987511l-0.023719,-0.014116l-0.115661,0.014034l-0.009868,0.02348l0.05376,0.007345l0.095489,-0.030743Z M1050.158287,375.190194l-0.010456,-0.036178l-0.041822,-0.012921l-0.002614,0.028426l0.031367,0.033594l0.023525,-0.012921Z M1051.336444,375.138634l0.003186,0.011709l0.016255,-0.0021v-0.012355l-0.011109,-0.006864l-0.008332,0.00961Z M1051.33029,375.2109l0.013886,0.005491l0.008332,-0.005491l-0.002777,-0.013728h-0.013886l-0.005555,0.013728Z M1051.307957,375.336052l-0.004166,0.017847l0.015275,0.006864l0.023607,-0.005491v-0.015101l-0.016664,-0.00961l-0.018052,0.005491Z M1051.327743,375.429513l-0.003525,-0.037049l-0.02367,-0.0039l-0.00789,0.023401l0.01578,0.027301l0.019305,-0.009752Z M1051.057952,380.627043l0.034068,0.002513l-0.010061,-0.065006l-0.041266,-0.04749l-0.027203,-0.01362l-0.005116,0.052413l0.049578,0.07119Z M1046.979356,382.289463l-0.017201,-0.035789l-0.018027,-0.033493l-0.014757,-0.002605l-0.004086,0.047696l0.019601,0.032754l0.024044,0.005871l0.010426,-0.014435Z M1051.354091,380.037625l0.013886,0.005491l0.008332,-0.005491l-0.002777,-0.013728h-0.013886l-0.005555,0.013728Z M1050.581892,380.692123l-0.005228,0.012059l0.010456,0.008614l0.015683,-0.010337l-0.003485,-0.012059l-0.017426,0.001723Z M1049.991062,380.932323l-0.00727,0.009691l0.012498,0.006864l0.013886,-0.004118l0.004166,-0.010983l-0.02328,-0.001454Z M1048.003031,382.320459l0.00697,0.024119l0.027882,0.003446l0.003485,-0.024119l-0.013941,-0.013782l-0.024396,0.010337Z M1047.097244,382.323045l-0.004166,0.017847l0.015275,0.006864l0.023607,-0.005491v-0.015101l-0.016664,-0.00961l-0.018052,0.005491Z M1048.396218,381.984434h0.020829l0.008332,-0.016474l-0.016664,-0.016474l-0.029161,0.001373l-0.005555,0.017847l0.022218,0.013728Z "/>
</svg>
