<svg xmlns="http://www.w3.org/2000/svg" viewBox="1044.060 374.742 8.884 7.741">
  <path d="M1052.088,377.214l0.012,0.139l-0.018,0.037l-0.1,0.069l-0.026,0.039l-0.026,0.102l-0.094,0.051h-0.116l-0.055,0.018l-0.065,0.112v0.053l0.035,0.108l-0.022,0.071l-0.039,0.024h-0.084l-0.031,0.063l0.027,0.071l-0.098,0.259l-0.067,0.063l-0.086,0.243l0.004,0.22l-0.035,0.098l-0.094,0.035l-0.082,0.208l-0.023,0.4l0.086,0.345l-0.035,0.071l-0.046,0.018l-0.131,0.005l-0.071,0.044l-0.078,0.136l-0.035,0.2l-0.03,0.041l-0.036,0.01l-0.051-0.039h-0.18l-0.133,0.035l-0.095-0.007l-0.099,0.021l-0.174,0.119l-0.067,0.114l-0.067,0.055l-0.161,0.071l-0.09,0.137l-0.094,0.384l-0.098,0.173l-0.123,0.046l-0.076-0.018l-0.135-0.102l-0.171-0.021l-0.073,0.013l-0.206,0.114l-0.047,0.014l-0.034-0.021l0.014-0.056l-0.017-0.02l-0.063-0.008l-0.076,0.01l-0.092,0.095l-0.114,0.231v0.074l0.063,0.149v0.098l-0.114,0.141l-0.055-0.008l-0.004-0.098l-0.031-0.043l-0.149,0.008l-0.106,0.082l-0.02,0.133l-0.035,0.033l-0.098,0.007l-0.03-0.022l0.021-0.073l-0.003-0.046l-0.074-0.067h-0.114l-0.098,0.106l-0.067-0.004v-0.063l0.076-0.076l0.008-0.043l-0.041-0.097l-0.179-0.074l-0.081-0.011l-0.172,0.016l-0.054-0.013l-0.055-0.051l-0.137-0.024l-0.267,0.027l-0.123,0.063l-0.081-0.008l-0.063-0.034l-0.039-0.041l0.008-0.094l-0.039-0.061l-0.106-0.06l-0.132-0.029l-0.1,0.005l-0.117,0.028l-0.09-0.02l-0.094-0.145l-0.059-0.035l-0.278-0.035l-0.051-0.027l-0.026-0.094l-0.073-0.068l-0.128-0.054l-0.231-0.035l-0.169-0.059l-0.042-0.064l-0.001-0.105l0.095-0.238l0.016-0.193l-0.029-0.259l-0.11-0.271l-0.145-0.098l-0.024-0.082l0.098-0.133l0.035-0.184l-0.035-0.141v-0.161l-0.098-0.29l0.024-0.094l0.142-0.166l0.018-0.061l-0.023-0.141l-0.088-0.072l-0.035-0.081l0.009-0.153l0.115-0.116l0.018-0.048v-0.106l0.042-0.074l0.056-0.033l0.2-0.018l0.071-0.047l0.106-0.122l0.118-0.098l0.196-0.082l0.318-0.275l0.09-0.137l0.102-0.067l0.149-0.039l0.353-0.161l0.125-0.082l0.057-0.072l0.005-0.077l0.02-0.059l0.098-0.037l0.098-0.007l0.048,0.014l0.057,0.089l0.034,0.013l0.015-0.026l-0.01-0.052l-0.014-0.02l-0.096-0.058l-0.005-0.044l0.094-0.021l0.016-0.094l-0.04-0.041l-0.047-0.006l-0.12,0.059l-0.05,0.056l-0.076,0.114l-0.031,0.019h-0.097l-0.031-0.029l-0.045-0.159l0.016-0.066l0.035-0.043l0.067-0.043l0.042-0.033l0.027-0.069l0.043-0.039l0.102-0.033l0.021-0.037l0.008-0.086l0.034-0.031l0.076,0.005l0.024-0.024l0.008-0.05l0.029-0.015l0.041,0.018l0.035,0.029l0.004,0.033l-0.02,0.022l-0.002,0.018l0.04,0.029l0.037-0.003l0.071-0.043l0.063,0.008l0.053,0.033l0.031,0.065l0.057,0.029l0.048-0.014l0.038-0.033l0.059,0.004l0.022,0.009l0.029,0.076l0.071,0.034l0.059-0.013l0.055-0.035h0.035l0.01,0.014l-0.037,0.042l0.009,0.016l0.027-0.008l0.082-0.047l0.02-0.037l-0.023-0.021l-0.083-0.016l-0.035-0.028l-0.013-0.118l0.05-0.15l0.114-0.11l0.182-0.089l0.216-0.048l0.125-0.007l0.072,0.03l0.089,0.106l0.047,0.017l0.082,0l0.039,0.022l0.004,0.047l0.031,0.022l0.039-0.018l0.01-0.11l0.034-0.016l0.034,0.031l0.018,0.098l0.09,0.012l0.039-0.047l0.027-0.074l0.055-0.043l0.094-0.02l0.078,0.008l0.024,0.082l0.047,0.071l0.082,0.035h0.09l0.029-0.025l0.037-0.053l0.082-0.047l0.169-0.027l0.078-0.055l0.106-0.208l0.063-0.059l0.145,0.012l0.118,0.098l0.133,0.027l0.122-0.071l0.004-0.102l0.035-0.039l0.086-0.027l0.09-0.008l0.047,0.051l0.416,0.227l0.125,0.012l0.043,0.027l0.026,0.108l0.048,0.019l0.026-0.05l0.038-0.028l0.035,0.01l-0.016,0.086l0.021,0.154l0.06,0.081l0.052,0.042l0.039-0.016l0.016-0.112l-0.051-0.255l-0.047-0.055l-0.102-0.035l-0.047-0.082l0.041-0.1l-0.011-0.045l0.01-0.047l0.067-0.061l0.061-0.016l0.094,0.024l0.051-0.008l0.084-0.08l-0.004-0.09l0.027-0.018l0.039,0.018l0.061,0.094l0.018,0.176l0.068,0.123l0.163,0.128l0.141,0.047l0.173,0.067l0.18-0.027l0.055-0.059l0.043,0.016l0.078,0.169l0.016,0.149l0.103,0.319l0.015,0.127l0.003,0.344l0.034,0.105l0.069,0.067l0.027,0.11l0.039,0.047l-0.003,0.022l-0.031,0.003l-0.088-0.041l-0.082,0.02l-0.106,0.137l-0.155,0.1l-0.059,0.058l-0.104,0.148l-0.026,0.002l-0.053-0.029l-0.027-0.11l-0.051-0.063l-0.008-0.094l0.067-0.035l0.078,0.022l0.039-0.006l0.033-0.036l0.016-0.041l-0.008-0.076h-0.02l-0.027,0.055l-0.016,0.016l-0.131,0.022l-0.051-0.002l-0.084-0.022l-0.041,0.006l-0.012,0.035l0.059,0.096l0.041,0.018l0.1,0.169l0.002,0.051h-0.024l-0.037-0.029l-0.029,0.008L1052.088,377.214L1052.088,377.214z M1050.814,374.913l-0.024-0.014l-0.115,0.014l-0.01,0.024l0.053,0.007L1050.814,374.913L1050.814,374.913z M1050.009,375.116l-0.01-0.036l-0.042-0.013l-0.003,0.029l0.031,0.034L1050.009,375.116L1050.009,375.116z M1051.18,375.064l0.003,0.012l0.016-0.002v-0.012l-0.011-0.007L1051.18,375.064L1051.18,375.064z M1051.174,375.137l0.014,0.006l0.008-0.006l-0.003-0.014h-0.014L1051.174,375.137L1051.174,375.137z M1051.152,375.263l-0.004,0.018l0.015,0.007l0.023-0.006v-0.015l-0.017-0.01L1051.152,375.263L1051.152,375.263z M1051.171,375.357l-0.003-0.037l-0.024-0.004l-0.008,0.024l0.016,0.027L1051.171,375.357L1051.171,375.357z M1050.903,380.583l0.034,0.003l-0.01-0.065l-0.041-0.048l-0.027-0.014l-0.005,0.053L1050.903,380.583L1050.903,380.583z M1046.849,382.255l-0.017-0.036l-0.018-0.034l-0.015-0.003l-0.004,0.048l0.02,0.033l0.024,0.006L1046.849,382.255L1046.849,382.255z M1051.198,379.99l0.014,0.006l0.008-0.006l-0.003-0.014h-0.014L1051.198,379.99L1051.198,379.99z M1050.43,380.648l-0.005,0.012l0.01,0.009l0.016-0.01l-0.003-0.012L1050.43,380.648L1050.43,380.648z M1049.843,380.89l-0.007,0.01l0.012,0.007l0.014-0.004l0.004-0.011L1049.843,380.89L1049.843,380.89z M1047.867,382.286l0.007,0.024l0.028,0.003l0.004-0.024l-0.014-0.014L1047.867,382.286L1047.867,382.286z M1046.966,382.288l-0.004,0.018l0.015,0.007l0.023-0.006v-0.015l-0.016-0.01L1046.966,382.288L1046.966,382.288z M1048.257,381.948h0.021l0.008-0.017l-0.017-0.017l-0.029,0.001l-0.006,0.018L1048.257,381.948L1048.257,381.948z M1052.088,377.214l0.012,0.139l-0.018,0.037l-0.1,0.069l-0.026,0.039l-0.026,0.102l-0.094,0.051h-0.116l-0.055,0.018l-0.065,0.112v0.053l0.035,0.108l-0.022,0.071l-0.039,0.024h-0.084l-0.031,0.063l0.027,0.071l-0.098,0.259l-0.067,0.063l-0.086,0.243l0.004,0.22l-0.035,0.098l-0.094,0.035l-0.082,0.208l-0.023,0.4l0.086,0.345l-0.035,0.071l-0.046,0.018l-0.131,0.005l-0.071,0.044l-0.078,0.136l-0.035,0.2l-0.03,0.041l-0.036,0.01l-0.051-0.039h-0.18l-0.133,0.035l-0.095-0.007l-0.099,0.021l-0.174,0.119l-0.067,0.114l-0.067,0.055l-0.161,0.071l-0.09,0.137l-0.094,0.384l-0.098,0.173l-0.123,0.046l-0.076-0.018l-0.135-0.102l-0.171-0.021l-0.073,0.013l-0.206,0.114l-0.047,0.014l-0.034-0.021l0.014-0.056l-0.017-0.02l-0.063-0.008l-0.076,0.01l-0.092,0.095l-0.114,0.231v0.074l0.063,0.149v0.098l-0.114,0.141l-0.055-0.008l-0.004-0.098l-0.031-0.043l-0.149,0.008l-0.106,0.082l-0.02,0.133l-0.035,0.033l-0.098,0.007l-0.03-0.022l0.021-0.073l-0.003-0.046l-0.074-0.067h-0.114l-0.098,0.106l-0.067-0.004v-0.063l0.076-0.076l0.008-0.043l-0.041-0.097l-0.179-0.074l-0.081-0.011l-0.172,0.016l-0.054-0.013l-0.055-0.051l-0.137-0.024l-0.267,0.027l-0.123,0.063l-0.081-0.008l-0.063-0.034l-0.039-0.041l0.008-0.094l-0.039-0.061l-0.106-0.06l-0.132-0.029l-0.1,0.005l-0.117,0.028l-0.09-0.02l-0.094-0.145l-0.059-0.035l-0.278-0.035l-0.051-0.027l-0.026-0.094l-0.073-0.068l-0.128-0.054l-0.231-0.035l-0.169-0.059l-0.042-0.064l-0.001-0.105l0.095-0.238l0.016-0.193l-0.029-0.259l-0.11-0.271l-0.145-0.098l-0.024-0.082l0.098-0.133l0.035-0.184l-0.035-0.141v-0.161l-0.098-0.29l0.024-0.094l0.142-0.166l0.018-0.061l-0.023-0.141l-0.088-0.072l-0.035-0.081l0.009-0.153l0.115-0.116l0.018-0.048v-0.106l0.042-0.074l0.056-0.033l0.2-0.018l0.071-0.047l0.106-0.122l0.118-0.098l0.196-0.082l0.318-0.275l0.09-0.137l0.102-0.067l0.149-0.039l0.353-0.161l0.125-0.082l0.057-0.072l0.005-0.077l0.02-0.059l0.098-0.037l0.098-0.007l0.048,0.014l0.057,0.089l0.034,0.013l0.015-0.026l-0.01-0.052l-0.014-0.02l-0.096-0.058l-0.005-0.044l0.094-0.021l0.016-0.094l-0.04-0.041l-0.047-0.006l-0.12,0.059l-0.05,0.056l-0.076,0.114l-0.031,0.019h-0.097l-0.031-0.029l-0.045-0.159l0.016-0.066l0.035-0.043l0.067-0.043l0.042-0.033l0.027-0.069l0.043-0.039l0.102-0.033l0.021-0.037l0.008-0.086l0.034-0.031l0.076,0.005l0.024-0.024l0.008-0.05l0.029-0.015l0.041,0.018l0.035,0.029l0.004,0.033l-0.02,0.022l-0.002,0.018l0.04,0.029l0.037-0.003l0.071-0.043l0.063,0.008l0.053,0.033l0.031,0.065l0.057,0.029l0.048-0.014l0.038-0.033l0.059,0.004l0.022,0.009l0.029,0.076l0.071,0.034l0.059-0.013l0.055-0.035h0.035l0.01,0.014l-0.037,0.042l0.009,0.016l0.027-0.008l0.082-0.047l0.02-0.037l-0.023-0.021l-0.083-0.016l-0.035-0.028l-0.013-0.118l0.05-0.15l0.114-0.11l0.182-0.089l0.216-0.048l0.125-0.007l0.072,0.03l0.089,0.106l0.047,0.017l0.082,0l0.039,0.022l0.004,0.047l0.031,0.022l0.039-0.018l0.01-0.11l0.034-0.016l0.034,0.031l0.018,0.098l0.09,0.012l0.039-0.047l0.027-0.074l0.055-0.043l0.094-0.02l0.078,0.008l0.024,0.082l0.047,0.071l0.082,0.035h0.09l0.029-0.025l0.037-0.053l0.082-0.047l0.169-0.027l0.078-0.055l0.106-0.208l0.063-0.059l0.145,0.012l0.118,0.098l0.133,0.027l0.122-0.071l0.004-0.102l0.035-0.039l0.086-0.027l0.09-0.008l0.047,0.051l0.416,0.227l0.125,0.012l0.043,0.027l0.026,0.108l0.048,0.019l0.026-0.05l0.038-0.028l0.035,0.01l-0.016,0.086l0.021,0.154l0.06,0.081l0.052,0.042l0.039-0.016l0.016-0.112l-0.051-0.255l-0.047-0.055l-0.102-0.035l-0.047-0.082l0.041-0.1l-0.011-0.045l0.01-0.047l0.067-0.061l0.061-0.016l0.094,0.024l0.051-0.008l0.084-0.08l-0.004-0.09l0.027-0.018l0.039,0.018l0.061,0.094l0.018,0.176l0.068,0.123l0.163,0.128l0.141,0.047l0.173,0.067l0.18-0.027l0.055-0.059l0.043,0.016l0.078,0.169l0.016,0.149l0.103,0.319l0.015,0.127l0.003,0.344l0.034,0.105l0.069,0.067l0.027,0.11l0.039,0.047l-0.003,0.022l-0.031,0.003l-0.088-0.041l-0.082,0.02l-0.106,0.137l-0.155,0.1l-0.059,0.058l-0.104,0.148l-0.026,0.002l-0.053-0.029l-0.027-0.11l-0.051-0.063l-0.008-0.094l0.067-0.035l0.078,0.022l0.039-0.006l0.033-0.036l0.016-0.041l-0.008-0.076h-0.02l-0.027,0.055l-0.016,0.016l-0.131,0.022l-0.051-0.002l-0.084-0.022l-0.041,0.006l-0.012,0.035l0.059,0.096l0.041,0.018l0.1,0.169l0.002,0.051h-0.024l-0.037-0.029l-0.029,0.008L1052.088,377.214L1052.088,377.214z M1050.814,374.913l-0.024-0.014l-0.115,0.014l-0.01,0.024l0.053,0.007L1050.814,374.913L1050.814,374.913z M1050.009,375.116l-0.01-0.036l-0.042-0.013l-0.003,0.029l0.031,0.034L1050.009,375.116L1050.009,375.116z M1051.18,375.064l0.003,0.012l0.016-0.002v-0.012l-0.011-0.007L1051.18,375.064L1051.18,375.064z M1051.174,375.137l0.014,0.006l0.008-0.006l-0.003-0.014h-0.014L1051.174,375.137L1051.174,375.137z M1051.152,375.263l-0.004,0.018l0.015,0.007l0.023-0.006v-0.015l-0.017-0.01L1051.152,375.263L1051.152,375.263z M1051.171,375.357l-0.003-0.037l-0.024-0.004l-0.008,0.024l0.016,0.027L1051.171,375.357L1051.171,375.357z M1050.903,380.583l0.034,0.003l-0.01-0.065l-0.041-0.048l-0.027-0.014l-0.005,0.053L1050.903,380.583L1050.903,380.583z M1046.849,382.255l-0.017-0.036l-0.018-0.034l-0.015-0.003l-0.004,0.048l0.02,0.033l0.024,0.006L1046.849,382.255L1046.849,382.255z M1051.198,379.99l0.014,0.006l0.008-0.006l-0.003-0.014h-0.014L1051.198,379.99L1051.198,379.99z M1050.43,380.648l-0.005,0.012l0.01,0.009l0.016-0.01l-0.003-0.012L1050.43,380.648L1050.43,380.648z M1049.843,380.89l-0.007,0.01l0.012,0.007l0.014-0.004l0.004-0.011L1049.843,380.89L1049.843,380.89z M1047.867,382.286l0.007,0.024l0.028,0.003l0.004-0.024l-0.014-0.014L1047.867,382.286L1047.867,382.286z M1046.966,382.288l-0.004,0.018l0.015,0.007l0.023-0.006v-0.015l-0.016-0.01L1046.966,382.288L1046.966,382.288z M1048.257,381.948h0.021l0.008-0.017l-0.017-0.017l-0.029,0.001l-0.006,0.018L1048.257,381.948L1048.257,381.948z"/>
</svg>
