<svg xmlns="http://www.w3.org/2000/svg" viewBox="1044.062 374.748 8.887 7.735">
  <path d="M1052.088,377.214l0.012,0.139l-0.118,0.106l-0.051,0.141l-0.094,0.051h-0.145l-0.09,0.129l0.035,0.161l-0.047,0.09l-0.098,0.004l-0.031,0.063l0.027,0.071l-0.098,0.259l-0.067,0.063l-0.086,0.243l0.004,0.22l-0.035,0.098l-0.094,0.035l-0.082,0.208l-0.023,0.4l0.086,0.345l-0.035,0.071l-0.192,0.008l-0.133,0.196l-0.035,0.2l-0.067,0.051l-0.051-0.039h-0.18l-0.133,0.035h-0.165l-0.204,0.133l-0.133,0.169l-0.251,0.208l-0.094,0.384l-0.098,0.173l-0.169,0.047l-0.165-0.122l-0.173-0.039l-0.278,0.145h-0.075l0.008-0.063l-0.102-0.027l-0.145,0.106l-0.114,0.306l0.063,0.149v0.098l-0.114,0.141l-0.055-0.008l-0.004-0.098l-0.031-0.043l-0.149,0.008l-0.106,0.082l-0.02,0.133l-0.133,0.039l-0.039-0.016l0.027-0.125l-0.074-0.067h-0.114l-0.098,0.106l-0.067-0.004v-0.063l0.094-0.094l-0.051-0.122l-0.208-0.086l-0.278,0.004l-0.055-0.051l-0.137-0.024l-0.267,0.027l-0.173,0.067l-0.133-0.086l0.008-0.094l-0.145-0.122l-0.169-0.039l-0.18,0.043l-0.09-0.02l-0.153-0.18l-0.278-0.035l-0.051-0.027l-0.043-0.106l-0.184-0.11l-0.231-0.035l-0.169-0.059l-0.043-0.169l0.106-0.322l-0.024-0.369l-0.11-0.271l-0.145-0.098l-0.024-0.082l0.098-0.133l0.035-0.184l-0.035-0.141v-0.161l-0.098-0.29l0.024-0.094l0.161-0.227l-0.023-0.141l-0.11-0.082l-0.004-0.224l0.133-0.165v-0.106l0.051-0.09l0.247-0.035l0.176-0.169l0.118-0.098l0.196-0.082l0.318-0.275l0.09-0.137l0.102-0.067l0.149-0.039l0.353-0.161l0.183-0.154l0.008-0.128l0.115-0.044l0.146,0.008l0.057,0.089l0.034,0.013l0.005-0.078l-0.11-0.078l-0.005-0.044l0.094-0.021l0.016-0.094l-0.073-0.05l-0.183,0.118l-0.107,0.133h-0.097l-0.076-0.188l0.034-0.107l0.125-0.078l0.06-0.107l0.133-0.071l0.008-0.086l0.034-0.031l0.076,0.005l0.031-0.073l0.071,0.003l0.039,0.039l-0.031,0.058l0.05,0.034l0.123-0.044l0.078,0.016l0.052,0.089l0.073,0.042l0.071-0.06l0.081,0.013l0.029,0.076l0.071,0.034l0.125-0.044l0.034,0.01l-0.037,0.042l0.021,0.008l0.107-0.058l0.008-0.039l-0.139-0.052l-0.013-0.118l0.05-0.15l0.114-0.11l0.182-0.089l0.341-0.055l0.072,0.03l0.103,0.118l0.145,0.024l0.044,0.073l0.039-0.018l0.01-0.11l0.034-0.016l0.034,0.031l0.018,0.098l0.09,0.012l0.067-0.122l0.149-0.063l0.078,0.008l0.024,0.082l0.11,0.106h0.121l0.055-0.078l0.329-0.129l0.106-0.208l0.063-0.059l0.145,0.012l0.118,0.098l0.133,0.027l0.122-0.071l0.004-0.102l0.122-0.067l0.09-0.008l0.047,0.051l0.416,0.227l0.125,0.012l0.043,0.027l0.026,0.108l0.035,0.029l0.076-0.088l0.035,0.01l-0.016,0.086l0.051,0.18l0.078,0.024l0.029,0.084l0.022-0.014l0.008-0.125l-0.098-0.31l-0.102-0.035l-0.047-0.082l0.039-0.192l0.106-0.075l0.137,0.027l0.114-0.094l-0.004-0.09l0.051-0.012l0.059,0.106l0.035,0.176l0.231,0.251l0.141,0.047l0.173,0.067l0.18-0.027l0.055-0.059l0.043,0.016l0.078,0.169l0.016,0.149l0.13,0.4l0.02,0.478l0.075,0.082l0.027,0.11l0.039,0.047l-0.024,0.02l-0.098-0.035l-0.082,0.02l-0.106,0.137l-0.18,0.11l-0.153,0.206l-0.063-0.037l-0.027-0.11l-0.051-0.063l-0.008-0.094l0.067-0.035l0.098,0.02l0.067-0.055l-0.006-0.102l-0.026-0.008l-0.022,0.063l-0.198,0.035l-0.125-0.016l-0.012,0.035l0.059,0.096l0.041,0.018l0.1,0.169l0.002,0.051h-0.024l-0.037-0.029L1052.088,377.214L1052.088,377.214z M1050.814,374.913l-0.024-0.014l-0.115,0.014l-0.01,0.024l0.053,0.007L1050.814,374.913L1050.814,374.913z M1050.009,375.116l-0.01-0.036l-0.042-0.013l-0.003,0.029l0.031,0.034L1050.009,375.116L1050.009,375.116z M1051.18,375.064l0.003,0.012l0.016-0.002v-0.012l-0.011-0.007L1051.18,375.064L1051.18,375.064z M1051.174,375.137l0.014,0.006l0.008-0.006l-0.003-0.014h-0.014L1051.174,375.137L1051.174,375.137z M1051.152,375.263l-0.004,0.018l0.015,0.007l0.023-0.006v-0.015l-0.017-0.01L1051.152,375.263L1051.152,375.263z M1051.171,375.357l-0.01-0.041l-0.028,0.001l-0.004,0.037l0.023,0.024L1051.171,375.357L1051.171,375.357z M1050.903,380.583l0.034,0.003l-0.01-0.065l-0.041-0.048l-0.027-0.014l-0.005,0.053L1050.903,380.583L1050.903,380.583z M1046.849,382.255l-0.017-0.036l-0.018-0.034l-0.015-0.003l-0.004,0.048l0.02,0.033l0.024,0.006L1046.849,382.255L1046.849,382.255z M1051.198,379.99l0.014,0.006l0.008-0.006l-0.003-0.014h-0.014L1051.198,379.99L1051.198,379.99z M1050.43,380.648l-0.005,0.012l0.01,0.009l0.016-0.01l-0.003-0.012L1050.43,380.648L1050.43,380.648z M1049.843,380.89l-0.007,0.01l0.012,0.007l0.014-0.004l0.004-0.011L1049.843,380.89L1049.843,380.89z M1047.867,382.286l0.007,0.024l0.028,0.003l0.004-0.024l-0.014-0.014L1047.867,382.286L1047.867,382.286z M1046.966,382.288l-0.004,0.018l0.015,0.007l0.023-0.006v-0.015l-0.016-0.01L1046.966,382.288L1046.966,382.288z M1048.257,381.948h0.021l0.008-0.017l-0.017-0.017l-0.029,0.001l-0.006,0.018L1048.257,381.948L1048.257,381.948z M1052.088,377.214l0.012,0.139l-0.118,0.106l-0.051,0.141l-0.094,0.051h-0.145l-0.09,0.129l0.035,0.161l-0.047,0.09l-0.098,0.004l-0.031,0.063l0.027,0.071l-0.098,0.259l-0.067,0.063l-0.086,0.243l0.004,0.22l-0.035,0.098l-0.094,0.035l-0.082,0.208l-0.023,0.4l0.086,0.345l-0.035,0.071l-0.192,0.008l-0.133,0.196l-0.035,0.2l-0.067,0.051l-0.051-0.039h-0.18l-0.133,0.035h-0.165l-0.204,0.133l-0.133,0.169l-0.251,0.208l-0.094,0.384l-0.098,0.173l-0.169,0.047l-0.165-0.122l-0.173-0.039l-0.278,0.145h-0.075l0.008-0.063l-0.102-0.027l-0.145,0.106l-0.114,0.306l0.063,0.149v0.098l-0.114,0.141l-0.055-0.008l-0.004-0.098l-0.031-0.043l-0.149,0.008l-0.106,0.082l-0.02,0.133l-0.133,0.039l-0.039-0.016l0.027-0.125l-0.074-0.067h-0.114l-0.098,0.106l-0.067-0.004v-0.063l0.094-0.094l-0.051-0.122l-0.208-0.086l-0.278,0.004l-0.055-0.051l-0.137-0.024l-0.267,0.027l-0.173,0.067l-0.133-0.086l0.008-0.094l-0.145-0.122l-0.169-0.039l-0.18,0.043l-0.09-0.02l-0.153-0.18l-0.278-0.035l-0.051-0.027l-0.043-0.106l-0.184-0.11l-0.231-0.035l-0.169-0.059l-0.043-0.169l0.106-0.322l-0.024-0.369l-0.11-0.271l-0.145-0.098l-0.024-0.082l0.098-0.133l0.035-0.184l-0.035-0.141v-0.161l-0.098-0.29l0.024-0.094l0.161-0.227l-0.023-0.141l-0.11-0.082l-0.004-0.224l0.133-0.165v-0.106l0.051-0.09l0.247-0.035l0.176-0.169l0.118-0.098l0.196-0.082l0.318-0.275l0.09-0.137l0.102-0.067l0.149-0.039l0.353-0.161l0.183-0.154l0.008-0.128l0.115-0.044l0.146,0.008l0.057,0.089l0.034,0.013l0.005-0.078l-0.11-0.078l-0.005-0.044l0.094-0.021l0.016-0.094l-0.073-0.05l-0.183,0.118l-0.107,0.133h-0.097l-0.076-0.188l0.034-0.107l0.125-0.078l0.06-0.107l0.133-0.071l0.008-0.086l0.034-0.031l0.076,0.005l0.031-0.073l0.071,0.003l0.039,0.039l-0.031,0.058l0.05,0.034l0.123-0.044l0.078,0.016l0.052,0.089l0.073,0.042l0.071-0.06l0.081,0.013l0.029,0.076l0.071,0.034l0.125-0.044l0.034,0.01l-0.037,0.042l0.021,0.008l0.107-0.058l0.008-0.039l-0.139-0.052l-0.013-0.118l0.05-0.15l0.114-0.11l0.182-0.089l0.341-0.055l0.072,0.03l0.103,0.118l0.145,0.024l0.044,0.073l0.039-0.018l0.01-0.11l0.034-0.016l0.034,0.031l0.018,0.098l0.09,0.012l0.067-0.122l0.149-0.063l0.078,0.008l0.024,0.082l0.11,0.106h0.121l0.055-0.078l0.329-0.129l0.106-0.208l0.063-0.059l0.145,0.012l0.118,0.098l0.133,0.027l0.122-0.071l0.004-0.102l0.122-0.067l0.09-0.008l0.047,0.051l0.416,0.227l0.125,0.012l0.043,0.027l0.026,0.108l0.035,0.029l0.076-0.088l0.035,0.01l-0.016,0.086l0.051,0.18l0.078,0.024l0.029,0.084l0.022-0.014l0.008-0.125l-0.098-0.31l-0.102-0.035l-0.047-0.082l0.039-0.192l0.106-0.075l0.137,0.027l0.114-0.094l-0.004-0.09l0.051-0.012l0.059,0.106l0.035,0.176l0.231,0.251l0.141,0.047l0.173,0.067l0.18-0.027l0.055-0.059l0.043,0.016l0.078,0.169l0.016,0.149l0.13,0.4l0.02,0.478l0.075,0.082l0.027,0.11l0.039,0.047l-0.024,0.02l-0.098-0.035l-0.082,0.02l-0.106,0.137l-0.18,0.11l-0.153,0.206l-0.063-0.037l-0.027-0.11l-0.051-0.063l-0.008-0.094l0.067-0.035l0.098,0.02l0.067-0.055l-0.006-0.102l-0.026-0.008l-0.022,0.063l-0.198,0.035l-0.125-0.016l-0.012,0.035l0.059,0.096l0.041,0.018l0.1,0.169l0.002,0.051h-0.024l-0.037-0.029L1052.088,377.214L1052.088,377.214z M1050.814,374.913l-0.024-0.014l-0.115,0.014l-0.01,0.024l0.053,0.007L1050.814,374.913L1050.814,374.913z M1050.009,375.116l-0.01-0.036l-0.042-0.013l-0.003,0.029l0.031,0.034L1050.009,375.116L1050.009,375.116z M1051.18,375.064l0.003,0.012l0.016-0.002v-0.012l-0.011-0.007L1051.18,375.064L1051.18,375.064z M1051.174,375.137l0.014,0.006l0.008-0.006l-0.003-0.014h-0.014L1051.174,375.137L1051.174,375.137z M1051.152,375.263l-0.004,0.018l0.015,0.007l0.023-0.006v-0.015l-0.017-0.01L1051.152,375.263L1051.152,375.263z M1051.171,375.357l-0.01-0.041l-0.028,0.001l-0.004,0.037l0.023,0.024L1051.171,375.357L1051.171,375.357z M1050.903,380.583l0.034,0.003l-0.01-0.065l-0.041-0.048l-0.027-0.014l-0.005,0.053L1050.903,380.583L1050.903,380.583z M1046.849,382.255l-0.017-0.036l-0.018-0.034l-0.015-0.003l-0.004,0.048l0.02,0.033l0.024,0.006L1046.849,382.255L1046.849,382.255z M1051.198,379.99l0.014,0.006l0.008-0.006l-0.003-0.014h-0.014L1051.198,379.99L1051.198,379.99z M1050.43,380.648l-0.005,0.012l0.01,0.009l0.016-0.01l-0.003-0.012L1050.43,380.648L1050.43,380.648z M1049.843,380.89l-0.007,0.01l0.012,0.007l0.014-0.004l0.004-0.011L1049.843,380.89L1049.843,380.89z M1047.867,382.286l0.007,0.024l0.028,0.003l0.004-0.024l-0.014-0.014L1047.867,382.286L1047.867,382.286z M1046.966,382.288l-0.004,0.018l0.015,0.007l0.023-0.006v-0.015l-0.016-0.01L1046.966,382.288L1046.966,382.288z M1048.257,381.948h0.021l0.008-0.017l-0.017-0.017l-0.029,0.001l-0.006,0.018L1048.257,381.948L1048.257,381.948z"/>
</svg>
