<svg xmlns="http://www.w3.org/2000/svg" viewBox="326.491 362.672 40.121 13.467">
  <path d="M361.763,372.58l0.106,0.014l0.047,0.023l0.116,0.007l0.125,0.05l-0.002,0.028l-0.106,0.04v0.051l0.054,0.051 l0.183,0.059l0.06,-0.032l-0.011,-0.058l-0.056,-0.009l-0.087,-0.073l0.012,-0.04l0.058,-0.016l0.196,-0.003l0.172,0.018l0.154,0.065l0.018,0.034l0.063,0.005l0.05,-0.023l0.271,0.021l0.099,-0.026l0.185,0.005l0.099,0.034l0.073,0.076l0.206,0.047l0.146,0.104l0.156,0.021l0.214,-0.003l0.039,0.026l0.016,0.055l-0.044,0.073l0.052,0.086l0.125,0.063l0.36,0.242l0.227,0.25l0.029,0.115l0.086,0.133l0.07,0.029l0.063,-0.018l0.063,0.01l0.229,0.193l0.11,0.023l0.196,-0.013l0.112,-0.06h0.209l0.236,0.166 l0.07,0.215l-0.043,0.127l-0.269,0.165l-0.059,0.094l0.005,0.096l-0.104,0.078l-0.136,-0.005l-0.094,-0.042l-0.224,0.016l-0.32,0.063h-0.219l-0.129,0.052l-0.198,-0.007l-0.083,0.038l-0.111,-0.007l-0.097,-0.031l-0.271,0.014l-0.285,0.076l-0.139,0.163l-0.198,0.052l-0.15,0.17l-0.209,0.076l-0.223,0.014l-0.205,0.045l-0.056,-0.038l0.007,-0.066l0.118,-0.073l-0.017,-0.094l0.017,-0.066l0.111,-0.069l0.07,-0.115l-0.049,-0.097l-0.09,0.007l-0.021,0.069l-0.063,0.024h-0.087l-0.049,0.049l0.028,0.066l0.049,0.024l0.01,0.063l-0.024,0.104l-0.087,0.056l-0.035,0.066l-0.24,0.073l-0.163,0.066l-0.396,-0.014l-0.115,-0.066l-0.049,0.014l-0.056,0.049l-0.494,-0.042l-0.184,-0.132l-0.16,-0.052l-0.038,-0.056l-0.076,-0.014l-0.097,0.035l-0.299,-0.059l-0.118,-0.003l-0.031,-0.104l0.104,-0.08l-0.014,-0.038l-0.097,0.017l-0.052,0.101l0.024,0.066l-0.035,0.028l-0.181,0.021l-0.09,0.038l-0.508,-0.049l-0.181,-0.069l-0.403,-0.031l-0.32,0.122l-0.48,0.007l-0.254,0.056l-0.296,-0.01l-0.181,-0.045l-0.056,0.007l-0.056,0.045l-0.233,0.01l-0.115,0.049l-0.223,-0.007l-0.049,-0.007l-0.08,0.035l-0.132,0.097l-0.143,0.024l-0.09,0.038l-0.216,-0.021l-0.351,-0.01l-0.181,-0.08h-0.056l-0.08,0.028l-0.285,-0.021l-0.099,0.04l-0.008,0.05l0.042,0.021v0.029l-0.068,0.029l-0.057,0.052l-0.245,0.023l-0.11,-0.044l-0.083,0.005l-0.123,0.052l-0.305,-0.013l-0.141,0.021l-0.159,0.063l-0.099,-0.003l-0.136,-0.039l-0.063,-0.063l0.003,-0.107l0.133,-0.18l0.078,-0.01l0.07,-0.083l0.013,-0.057l0.151,-0.232l0.177,-0.141l0.003,-0.047l-0.044,-0.018l0.005,-0.034l0.141,0.021l0.125,-0.055l0.167,-0.198l0.149,-0.073l0.123,-0.128l0.203,-0.089l0.232,-0.076l0.089,-0.102l-0.003,-0.068l0.026,-0.023l0.052,0.008l0.01,0.05l0.063,0.01l0.12,-0.055l0.07,-0.109l0.016,-0.065l0.034,-0.036l0.099,-0.026l0.065,-0.12l-0.013,-0.07l0.01,-0.057l0.047,-0.036l0.039,-0.162l-0.099,-0.169l-0.081,-0.052l-0.149,-0.034l-0.06,-0.065l-0.031,0.008l0.01,0.042l-0.039,0.005l-0.128,-0.036l-0.042,-0.05l0.008,-0.107l0.042,-0.07l0.078,-0.021l0.05,-0.065l-0.021,-0.044l-0.154,-0.091h-0.034l-0.018,0.057h-0.026l-0.146,-0.203l-0.099,-0.068l-0.154,0.008l-0.125,0.07l-0.19,0.052l-0.034,0.034l-0.068,0.008l-0.159,-0.063l-0.167,-0.029l-0.271,0.021l-0.253,-0.013l-0.078,0.013l-0.12,-0.023l-0.081,-0.044l-0.115,-0.018l-0.052,-0.05h-0.196l-0.047,0.034l-0.003,0.044l-0.031,0.029l-0.05,0.003l-0.125,-0.029l-0.211,0.01l-0.138,-0.047l-0.13,-0.107l-0.149,-0.063l-0.07,-0.109l-0.078,-0.13l-0.115,-0.063l-0.096,0.003l-0.057,-0.01l-0.063,0.013l-0.034,-0.021l-0.013,-0.104l-0.042,-0.047l-0.01,-0.063l-0.044,-0.036l-0.115,-0.036l-0.083,-0.05l-0.018,-0.063l-0.037,-0.026l-0.151,-0.016l-0.068,-0.034l-0.013,-0.078l-0.094,-0.076l-0.203,-0.109l-0.052,-0.086l0.023,-0.117l-0.018,-0.096l-0.034,-0.06l-0.003,-0.06l0.023,-0.065l-0.016,-0.091l-0.076,-0.109l-0.003,-0.12l-0.031,-0.076l0.018,-0.042h0.055l0.023,-0.044l-0.026,-0.034l-0.068,-0.018l-0.073,-0.128l-0.037,-0.122l0.005,-0.109l-0.094,-0.172l-0.023,-0.104l-0.11,-0.195l-0.209,-0.193l-0.24,-0.052l-0.06,0.029l-0.052,0.089l-0.026,-0.003l-0.005,-0.07l0.096,-0.138l0.042,-0.016l0.151,0.031l0.031,-0.023l-0.104,-0.089l-0.026,-0.05l-0.091,-0.016l-0.349,0.039l-0.162,0.091l-0.063,0.005l-0.143,-0.026l-0.146,0.031l-0.091,0.026l-0.125,0.003l-0.232,0.12l-0.25,0.047l-0.211,-0.018l-0.261,-0.097l-0.149,-0.099l-0.094,-0.01l-0.138,0.026l-0.172,-0.029l-0.167,-0.151l-0.057,0.005l-0.04,0.066l-0.028,0.003l-0.039,-0.057l-0.07,-0.018l-0.089,0.003l-0.034,-0.016l-0.008,-0.068l-0.102,-0.068l-0.136,-0.039l-0.123,0.042l-0.07,-0.003l-0.172,-0.112l-0.146,-0.021l-0.063,0.036l-0.003,0.115l-0.037,0.01l-0.063,-0.081l-0.083,-0.021l-0.052,0.008l-0.013,-0.039l0.047,-0.07l-0.034,-0.091l-0.055,-0.005l-0.057,0.039l-0.263,-0.065l-0.078,0.01l0.008,0.026l0.104,0.039l0.008,0.029h-0.063l-0.138,-0.091l-0.031,-0.169l-0.073,-0.05l-0.313,-0.063l-0.269,-0.159l-0.089,-0.029l-0.227,-0.167l-0.047,-0.094l-0.133,-0.133l-0.193,-0.162l0.005,-0.05l-0.047,-0.034l-0.083,-0.013l-0.044,-0.068l0.008,-0.047l0.136,-0.008l0.037,-0.031l-0.021,-0.099l-0.19,-0.167l-0.005,-0.057l-0.083,-0.06l-0.17,-0.018l-0.034,0.044l0.042,0.089l0.216,0.219l0.026,0.081l0.003,0.076l0.021,0.031l-0.039,0.018l-0.156,-0.081l-0.177,-0.008l-0.112,0.057h-0.078l-0.078,-0.021 l-0.329,-0.013l-0.117,-0.016l-0.17,0.01l-0.25,0.065l-0.355,-0.003l-0.339,-0.102l-0.237,-0.159l-0.11,-0.245l-0.008,-0.136l0.021,-0.05l-0.021,-0.042l-0.034,-0.016l-0.063,-0.133l-0.07,-0.06l-0.06,0.003l-0.031,0.034l0.037,0.068l0.047,0.182l-0.016,0.143l-0.029,0.052l0.005,0.086l0.042,0.159l-0.031,0.128l-0.039,0.036l-0.039,-0.013l0.01,-0.036l0.039,-0.01l0.018,-0.089l-0.057,-0.125l-0.112,-0.057l-0.078,0.039l-0.003,0.065l0.023,0.044l-0.047,0.086h-0.068l-0.055,-0.031l-0.06,0.008l-0.037,0.034l-0.07,-0.013l-0.037,-0.094l-0.063,-0.044l-0.01,-0.151l-0.102,-0.109l-0.209,-0.003l-0.07,-0.055l-0.112,-0.01l-0.156,0.091l-0.037,-0.005l-0.039,-0.044l-0.141,-0.018l-0.068,0.031l-0.057,-0.013l-0.047,-0.047l-0.034,0.01l0.023,0.05l0.096,0.047l0.005,0.039l-0.029,0.003l-0.029,-0.031l-0.078,-0.042l-0.063,-0.068l-0.117,0.016l-0.065,0.055l-0.016,0.047l-0.055,-0.005l-0.018,-0.047l-0.083,-0.016l-0.06,0.01l-0.086,-0.065l-0.047,-0.021l-0.031,-0.156l-0.083,-0.068l-0.25,-0.055l-0.076,-0.029l-0.263,-0.193l-0.065,-0.028l-0.141,-0.017l-0.024,-0.021l0.009,-0.076l-0.026,-0.036l-0.038,-0.002l-0.064,0.04l-0.03,-0.012l-0.009,-0.049l-0.052,-0.047l0.007,-0.052l0.059,-0.075l0.057,-0.03l0.047,0.002l0.033,0.01h0.073l0.049,-0.017l0.203,0.003l0.047,0.016h0.059l0.054,-0.03l0.056,-0.003l0.063,0.019l0.072,0.003l0.057,-0.023h0.099l0.123,0.034l0.133,-0.013l0.188,-0.076l0.102,-0.026l0.06,0.008l0.136,-0.055l0.083,-0.06l0.01,-0.06l-0.008,-0.122l0.042,-0.143l-0.026,-0.026l-0.07,-0.013l-0.151,-0.102l-0.065,-0.078l-0.243,-0.117l-0.282,-0.078l-0.386,0.005l-0.331,0.047l-0.073,0.036l-0.057,-0.008l-0.295,-0.107l-0.362,-0.016l-0.193,0.036l-0.292,-0.026l-0.162,0.013h-0.068l-0.063,-0.023h-0.125l-0.081,0.052l-0.034,0.003l-0.042,-0.055l-0.057,-0.01l-0.154,0.034l-0.073,-0.005l-0.271,-0.094l-0.146,0.013l-0.078,0.05l0.008,0.068l0.026,0.026l-0.004,0.019l-0.032,0.014l-0.019,0.057l0.006,0.05l-0.058,0.08l-0.103,0.065l-0.144,0.035l-0.097,0.082l-0.024,0.044l-0.061,0.028h-0.134l-0.021,0.014 l-0.017,0.061l-0.082,0.037l-0.167,0.038l-0.128,0.073l-0.044,-0.005l-0.026,0.021l-0.016,0.07l-0.128,0.224l-0.013,0.078l-0.102,0.185l-0.083,0.055l-0.099,0.008l-0.104,-0.063l-0.099,-0.008l-0.039,0.034l0.005,0.042l-0.023,0.013l-0.037,-0.013l-0.023,0.013l0.008,0.086l-0.018,0.052l-0.094,0.042l-0.021,0.034l0.021,0.083l-0.018,0.031l-0.057,0.013l-0.021,0.026l-0.021,0.068l-0.07,0.052l-0.107,-0.003l-0.034,0.018l-0.034,0.047l-0.047,0.003l-0.06,-0.01l-0.06,0.016l-0.057,0.047l-0.034,-0.005l-0.057,-0.042l-0.138,-0.036l-0.055,-0.055l-0.003,-0.063l-0.047,-0.065l-0.021,-0.008l-0.068,0.055l-0.13,0.177l-0.055,0.016l-0.039,0.034l-0.034,-0.01l-0.021,-0.06l-0.039,-0.016l-0.029,0.016l-0.008,0.039l-0.026,0.003l-0.052,-0.013l-0.083,0.005l-0.073,0.047h-0.12l-0.042,-0.023l-0.102,-0.003l-0.055,0.018l-0.107,-0.008l-0.05,-0.023l-0.141,0.026l-0.159,0.117l-0.044,0.086l-0.013,0.091l0.023,0.036l-0.008,0.05l-0.089,0.039l-0.013,0.065l0.029,0.068l0.055,0.031l0.021,-0.008l0.013,-0.055l0.026,-0.008l-0.005,0.042l-0.039,0.078l-0.11,0.108l-0.01,0.056l0.024,0.042l-0.017,0.08l-0.063,0.073l-0.07,0.028l-0.052,-0.017l-0.122,-0.069l-0.24,0.021l-0.296,0.115l-0.125,0.014l-0.174,0.087l-0.414,0.368l-0.101,0.049l-0.111,0.007l-0.118,0.031l-0.038,-0.021l0.028,-0.174l0.087,-0.142l0.097,-0.09l0.017,-0.08l-0.059,-0.115l-0.122,-0.066l-0.198,-0.003l-0.435,0.132l-0.174,0.087l-0.202,0.219l-0.066,0.035l-0.108,-0.007l-0.365,-0.066l-0.094,-0.076l-0.014,-0.101l0.09,-0.156h0.052l0.073,0.09l0.174,0.01l0.07,-0.021l0.035,-0.038l-0.038,-0.076h-0.059l0.007,-0.028l0.063,-0.014l0.056,0.035l0.014,0.066l0.049,0.003l0.132,-0.056l0.115,-0.083l0.139,-0.08l0.261,-0.069l0.16,-0.066l0.153,-0.129l0.177,-0.059l0.035,0.017v0.073l0.07,0.038h0.118l0.104,-0.097l0.08,-0.007l0.111,0.056l0.01,0.073l0.066,0.059l0.056,-0.017l0.017,-0.052l0.038,-0.021l0.063,0.003l0.031,-0.035l-0.007,-0.118l0.028,-0.073l-0.024,-0.024l-0.035,0.049l-0.01,0.111l-0.045,0.035l-0.049,-0.003l-0.031,-0.059l0.014,-0.083l-0.031,-0.073l-0.07,-0.021l-0.003,-0.038l0.024,-0.087l-0.038,-0.042l-0.118,-0.017l-0.017,-0.035l-0.035,-0.007l-0.035,0.01l-0.024,-0.038l0.021,-0.08l-0.038,-0.094l-0.035,-0.014l-0.047,0.023l-0.012,-0.023l0.087,-0.094l0.066,-0.243v-0.16l0.09,-0.125l0.014,-0.069l0.028,-0.024l0.063,-0.007l0.066,-0.063l0.042,-0.097l0.133,-0.134v-0.031l-0.031,-0.01l-0.039,0.013v-0.026l0.039,-0.023l0.12,0.01l0.164,-0.122l0.047,-0.065l-0.005,-0.096l-0.052,-0.042l0.013,-0.034l0.159,-0.036l0.102,0.039l0.044,-0.016l0.047,-0.169l0.029,-0.018l0.023,0.018l0.018,0.031l0.039,0.003l0.034,-0.055l-0.013,-0.07l0.023,-0.031l0.086,-0.026l0.055,0.031l0.031,-0.013l0.037,-0.136l-0.047,-0.076h-0.055l-0.003,-0.021l0.073,-0.029l0.039,0.016l0.047,0.115l0.083,0.018l0.149,-0.081l0.06,-0.086l0.073,-0.018l0.057,0.031l0.031,-0.016l0.018,-0.081l0.07,-0.036l0.143,0.016l0.172,-0.065l0.086,-0.055l0.128,-0.039l0.021,-0.076l0.042,-0.013l0.099,0.029l0.039,0.052l0.07,-0.003l0.052,-0.047l-0.008,-0.042l-0.023,-0.023l0.018,-0.036l0.081,-0.023l0.133,0.018l0.044,0.026l0.026,-0.01l0.047,-0.083l-0.005,-0.057l0.016,-0.023l0.078,0.003l0.047,0.042l0.104,-0.021l0.057,-0.091l-0.029,-0.063l0.034,-0.047l0.063,-0.005l0.154,0.102l0.018,0.057l0.026,0.005l0.05,-0.081l0.104,-0.086l0.005,-0.044l0.297,-0.227l0.198,-0.068l0.115,0.023l0.057,0.052l-0.013,0.047l-0.073,0.042l-0.013,0.076l0.047,0.034l0.107,-0.005l0.029,-0.05l-0.008,-0.042l-0.039,-0.036l0.013,-0.068l0.042,-0.05l0.177,-0.013l0.099,-0.034l0.159,-0.005l0.073,-0.023l0.073,0.021l0.003,0.031l-0.076,0.018l-0.029,0.057l0.039,0.063h0.089l0.044,-0.05l0.128,-0.026l0.016,-0.034l-0.05,-0.034l-0.057,0.005l-0.031,0.031l-0.023,-0.016l0.016,-0.055l0.06,-0.036l0.219,-0.003l0.107,-0.026h0.209l0.073,-0.021l0.076,0.016l0.01,0.029l-0.026,0.057l0.018,0.029l0.042,-0.01l0.013,-0.052l-0.021,-0.029l0.018,-0.018l0.193,-0.008l0.248,-0.06l0.141,-0.013l0.209,-0.068l0.083,-0.091l0.094,-0.036h0.065l0.057,-0.023l0.172,-0.177l0.068,-0.026l0.052,0.01l0.05,-0.003l0.047,-0.039l0.143,-0.044l0.096,-0.003l0.081,-0.026l0.222,-0.008l0.185,0.029l0.185,-0.005l0.047,-0.036l0.206,-0.029l0.141,0.021l0.055,0.06l0.206,0.047l0.177,-0.003l0.089,0.026l0.417,0.023l0.076,-0.029l0.057,-0.003l0.099,0.036h0.063l0.047,-0.031l0.156,-0.005l0.175,0.047l0.086,0.078l0.042,0.109l-0.005,0.081l-0.065,0.063l-0.081,0.034l-0.01,0.026l0.034,0.018l0.164,-0.021l0.063,-0.031l0.055,-0.089l0.005,-0.057l0.037,-0.023l0.081,0.018l0.06,-0.005l0.167,-0.091l0.081,-0.01l0.044,-0.039l0.099,-0.034l0.107,-0.008l0.063,-0.018l0.141,-0.073l0.149,-0.094l0.083,-0.013l0.086,-0.065l0.076,-0.008l0.083,0.055l-0.005,0.021l-0.031,0.005l-0.055,-0.023l-0.076,0.026l-0.042,0.057l-0.039,0.003l-0.068,-0.008l-0.156,0.091l-0.078,0.029l-0.055,0.073l0.016,0.029l0.081,0.026l0.047,0.034l0.042,0.078l0.177,0.19l0.175,0.047l0.065,-0.013l0.102,-0.136l0.037,-0.107l0.115,-0.065l0.089,0.008l0.039,0.029l0.039,-0.003v-0.044l0.023,-0.005l0.039,0.057l-0.016,0.07l0.026,0.065l0.102,0.026l0.263,-0.078l0.214,-0.01l0.211,-0.083l0.149,0.005l0.185,0.042l0.063,-0.01l0.136,-0.138l-0.003,-0.044l-0.063,-0.042l0.031,-0.042l0.096,0.016l0.099,0.057l-0.005,0.023l-0.091,-0.023l-0.018,0.031l0.01,0.068l-0.021,0.021l-0.047,0.005l-0.026,0.05l0.037,0.06l0.11,0.104l0.104,0.039l0.073,0.07l0.016,0.078l0.081,0.06l0.13,0.003l0.089,0.047l0.052,0.07l0.12,0.052l0.125,-0.003l0.021,-0.052l-0.026,-0.091l0.031,-0.034l0.057,0.013l0.086,-0.031h0.076l0.047,-0.063l0.12,-0.052l0.123,-0.013l0.021,-0.047l0.047,-0.013l0.044,0.047l-0.01,0.078l-0.078,0.086l-0.016,0.07l0.01,0.042l-0.026,0.021l-0.125,-0.042l-0.229,-0.016l-0.07,0.029l-0.013,0.036l0.039,0.055l0.19,0.099l0.123,0.013l0.258,-0.115l0.073,-0.003l0.01,-0.026l-0.034,-0.029h-0.031l-0.008,-0.029l0.104,-0.029l0.073,0.021l0.104,0.07l0.154,0.034l0.047,-0.026l0.06,-0.005l0.081,0.052l0.013,0.06l0.083,0.13l0.073,0.036h0.083l0.078,0.047l0.042,0.065h0.049l0.028,-0.025 l-0.006,-0.091l0.039,-0.029l0.186,-0.006l0.055,-0.028l0.058,-0.055l0.03,0.007l0.019,0.048l-0.061,0.073l-0.114,0.017l-0.083,-0.003l-0.022,0.025l-0.007,0.097l0.021,0.047l0.006,0.066l0.03,0.014l0.144,-0.004l0.119,0.046l0.205,0.109l0.028,0.054l0.039,0.004l0.089,-0.065l0.091,0.012l0.058,0.097l0.006,0.12l0.086,0.191l0.043,0.028l0.035,-0.004l0.018,0.015l0.004,0.042l0.058,0.084l0.047,0.017l0.019,0.035l0.024,0.1l0.09,0.133l0.053,0.028l0.029,-0.006l0.012,-0.04l0.035,-0.017l0.051,0.017v0.018l-0.06,0.022l0.011,0.026l0.093,0.039l0.108,0.086l0.051,0.119l0.04,0.032l0.069,0.024l0.039,0.039l0.025,0.076l0.053,0.029h0.043l0.096,0.06 l0.057,0.015l0.042,-0.003l0.047,0.021l0.025,0.047l0.071,0.028l0.033,-0.004l0.035,-0.04l0.064,-0.011l0.075,0.033l0.094,0.021l0.053,-0.008l0.036,-0.025l0.007,-0.053l0.025,-0.011l0.112,0.033l0.028,0.04h0.104l0.108,-0.044 l0.172,-0.017l0.226,0.017l0.082,-0.036l0.107,0.008l0.093,0.047l0.119,0.025l0.044,-0.003l0.06,-0.033l0.057,0.003l0.048,0.05l0.003,0.078l-0.017,0.055l0.025,0.082l0.129,0.061l0.047,-0.008l0.033,-0.147l-0.103,-0.112l0.015,-0.03l0.069,-0.004l0.089,0.046l0.042,0.054l0.15,0.093l0.11,0.026l0.237,0.112l0.12,0.13l0.115,0.047l0.162,0.021l0.177,0.086l0.141,0.107l0.029,0.13l0.065,0.044h0.141l0.112,0.036l0.07,0.06l0.128,0.013l-0.005,-0.055l-0.021,-0.036l0.013,-0.029l0.063,0.005l0.073,0.065l0.042,0.107l0.102,0.055l0.188,0.003l0.164,0.05l0.096,0.076l0.047,0.117l0.107,0.109l0.026,0.107l0.162,0.081l0.096,0.167l0.07,0.055l0.06,0.146l0.044,0.01l0.068,-0.073l0.013,-0.102l-0.044,-0.091l0.003,-0.05l0.06,-0.078l0.078,-0.005l0.151,0.094l0.073,0.013l0.021,-0.031l0.029,0.008l-0.008,0.057l-0.068,0.029l-0.13,-0.029l-0.076,-0.044l-0.039,0.01l-0.034,0.047l0.117,0.185l0.083,0.036l0.057,-0.008l0.029,-0.029l0.042,0.013l0.026,0.18l0.081,0.112l0.128,0.06l0.185,0.034l0.216,-0.003l0.104,0.031l0.096,0.07l0.063,0.018l0.065,0.063l0.013,0.081l0.055,0.031l0.068,0.008l0.078,0.057l0.021,0.109l0.047,0.026l0.156,0.008l0.094,0.042l0.008,0.057l-0.026,0.063l0.068,0.07l0.219,0.099l0.17,-0.018l0.07,0.023l-0.003,0.068l-0.154,0.057l-0.029,0.076l0.037,0.128l0.06,0.029h0.096l0.076,0.044l0.05,-0.008l0.063,-0.07l0.073,-0.031l0.029,-0.149l0.037,-0.055l0.021,-0.091l0.06,-0.065l0.034,-0.081l0.065,-0.026l0.123,0.057l0.138,0.229l0.11,0.06l0.156,0.222l0.136,0.091l0.149,0.057l0.06,-0.01l0.029,0.023l0.013,0.099l0.039,0.021l0.008,0.052l-0.029,0.073l-0.094,0.018l-0.12,0.003l-0.026,0.044v0.143l0.057,0.021l0.083,-0.07l0.034,-0.065l0.068,-0.034l0.044,-0.076l0.021,-0.078l0.068,-0.003l0.12,0.047l0.133,0.008l0.141,0.052l0.125,0.016l0.063,0.052l0.005,0.078l-0.026,0.039l-0.156,0.052l-0.125,-0.044l-0.044,0.018l-0.023,0.057l0.05,0.029l0.065,-0.003l0.115,0.068l0.039,0.047l0.117,0.026l0.063,-0.018l-0.003,-0.026l-0.086,-0.013l-0.029,-0.029l-0.016,-0.044l-0.029,-0.039l0.013,-0.036l0.076,-0.023l0.227,0.078l0.091,0.005l0.031,0.021l0.01,0.112l-0.047,0.07l-0.136,0.01l-0.078,0.044l0.008,0.047l0.091,0.01l0.078,-0.044l0.044,0.01l0.013,0.078l0.052,0.018l0.07,-0.034l0.091,-0.094l0.003,-0.042l-0.133,-0.05l-0.031,-0.042l0.005,-0.073l0.063,-0.055l0.193,-0.005l0.076,0.021l0.154,-0.005l0.17,0.044l0.399,0.222l0.117,0.036l0.243,0.133l0.068,0.096l0.021,0.091l0.065,0.034l0.151,0.036l0.136,0.057l0.06,0.003l0.274,-0.057l0.065,-0.047l0.229,-0.018l0.089,-0.044l0.407,0.013l0.13,0.042l0.076,0.081l-0.008,0.073l0.031,0.029l0.138,-0.018l0.076,0.034l0.104,0.122l0.021,0.128l-0.073,0.185l-0.06,0.076l-0.055,0.102l-0.104,0.091l0.005,0.023l0.07,0.026l0.104,0.01l0.115,0.073l0.013,0.057l0.06,0.047l0.013,0.099l-0.031,0.034l-0.086,-0.023l-0.083,-0.094l-0.042,-0.081l-0.047,-0.016l-0.117,0.039l-0.214,0.029l-0.065,-0.021l-0.034,-0.047l-0.073,0.008l-0.029,0.057l0.029,0.042l-0.003,0.044l-0.044,0.128v0.159l0.078,0.107l0.149,0.042l0.076,-0.016l0.047,-0.115l0.07,-0.068l0.021,-0.068l0.07,-0.026l0.138,0.01l0.042,0.063l-0.016,0.104l0.023,0.016l0.044,-0.06l0.055,-0.018l0.016,-0.036l-0.042,-0.052l0.005,-0.047l0.044,-0.013l0.055,0.013l0.034,-0.01l0.018,-0.039l0.042,-0.008l0.076,0.055l0.074,0.131l-0.026,0.043l-0.063,0.009l-0.092,-0.05l-0.097,0.014l-0.089,0.061l-0.026,0.089l0.035,0.021l0.059,-0.024l0.014,-0.042l0.016,-0.002l0.043,0.064l0.087,0.035l0.066,-0.009l0.047,-0.047l0.002,-0.076l0.023,-0.01l0.024,0.03l0.009,0.052l0.049,0.033l0.037,-0.003l0.007,-0.043l-0.03,-0.038l-0.049,-0.021l-0.014,-0.056l0.023,-0.028l0.071,-0.016Z M334.056,369.871h0.229l0.515,-0.17l0.143,-0.101l0.268,-0.066l0.191,-0.136l0.024,-0.066l-0.101,-0.167l0.014,-0.056l-0.031,-0.042l-0.087,-0.045l-0.024,-0.087l0.094,-0.181l-0.028,-0.087l-0.111,-0.111l-0.104,-0.031l-0.146,-0.115l-0.031,-0.101l0.045,-0.073l-0.052,-0.08l-0.153,-0.076l-0.09,0.003l-0.136,-0.045l-0.059,-0.056l-0.129,-0.035l-0.229,0.01l-0.146,-0.052h-0.146l-0.049,0.049l0.014,0.024l0.073,-0.038l0.08,0.017l-0.003,0.035l-0.191,0.094l-0.111,0.136l-0.094,0.066l-0.101,0.208l0.017,0.063l0.052,0.035l0.15,0.281l0.083,0.059l0.108,0.278l-0.056,0.184l-0.104,0.052l-0.101,-0.024l-0.163,-0.007l-0.087,-0.076l-0.056,-0.09l-0.191,-0.125l-0.017,0.028l0.076,0.101l0.01,0.111l0.122,0.174l0.083,0.031l0.115,0.167l0.153,0.042l0.17,0.003l0.299,0.087Z M328.505,366.152l0.141,-0.016l0.021,-0.034l-0.164,-0.052l-0.07,0.016l-0.021,0.044l0.094,0.042Z M336.164,369.287h0.026l0.023,-0.06l-0.03,-0.029l-0.031,-0.003l-0.064,0.021l-0.023,0.056h0.028l0.039,-0.041 l0.032,0.008v0.047Z M328.833,365.777l0.06,-0.057l-0.018,-0.023l-0.094,0.05l-0.008,0.034l0.06,-0.003Z M338.939,367.455l0.031,0.026l0.073,0.005l0.018,0.034l0.047,0.003l0.008,-0.034l-0.099,-0.094l-0.052,-0.018l-0.031,0.026l0.005,0.052Z M330.749,364.628l0.005,-0.052l0.09,-0.059l0.082,-0.009l0.003,-0.023l-0.085,-0.009l-0.096,0.043l-0.04,0.087l0.016,0.033l0.024,-0.012Z M335.489,365.264l-0.024,0.174l0.003,0.083l0.045,-0.007l0.052,-0.129l-0.031,-0.184l-0.056,-0.049l-0.021,0.021l0.031,0.09Z M335.581,365.689l0.063,0.026l0.017,-0.012l-0.037,-0.043l-0.064,-0.016l-0.01,0.019l0.031,0.026Z M338.798,367.223l0.026,-0.013l0.047,-0.115l-0.026,-0.083l-0.055,-0.013l-0.018,0.044l0.05,0.044l-0.034,0.096l0.01,0.039Z M336.048,365.858l0.026,-0.009l-0.021,-0.026l0.01,-0.083l-0.019,-0.014l-0.033,0.028l0.002,0.078l0.035,0.026Z M338.464,367.023l0.086,0.042l0.018,-0.016l-0.052,-0.052l-0.076,-0.018l-0.052,0.005l-0.016,0.026l0.091,0.013Z M340.068,367.552l0.175,-0.023l0.01,-0.023l-0.039,-0.013l-0.193,0.029l-0.018,0.021l0.065,0.01Z M339.953,367.56l-0.011,-0.024l-0.057,0.017l-0.044,-0.028l-0.01,-0.053l-0.026,-0.015l-0.043,0.007l-0.003,0.069l-0.053,0.015h-0.042l-0.018,-0.037 l-0.043,-0.007l-0.162,-0.119l-0.022,0.006l0.003,0.025l0.133,0.087l0.042,0.054l0.075,0.036l0.107,-0.012l0.05,0.03h0.05l0.075,-0.051 Z M338.824,367.315l-0.018,0.044l0.034,0.029l0.044,-0.023l0.013,-0.042l-0.065,-0.057l-0.021,0.005l0.013,0.044Z M349.305,370.009l0.031,-0.023l0.016,-0.076l-0.013,-0.026l-0.023,0.008l-0.018,0.089l0.008,0.029Z M346.784,371.179l0.132,0.01l0.021,-0.035l-0.07,-0.063l-0.136,-0.021l-0.042,0.028l0.094,0.08Z M335.726,369.386l0.123,0.047l0.039,-0.031l-0.021,-0.044l-0.125,-0.026l-0.039,0.023l0.023,0.031Z M336.32,369.376l0.094,-0.031l-0.031,-0.063l-0.063,-0.005l-0.146,0.07l0.023,0.034l0.123,-0.005Z M337.118,369.381l0.039,-0.055l0.209,-0.065l0.164,-0.083l0.018,-0.094l-0.083,-0.047l-0.096,0.003l-0.003,0.029l0.076,0.013l0.021,0.042l-0.055,0.05l-0.263,0.086l-0.107,0.078v0.057l0.081,-0.013Z M337.63,369.055l-0.003,0.07l0.073,0.091l0.06,0.008l0.12,-0.128l0.104,-0.039l0.01,-0.039l-0.055,-0.016l-0.102,0.036l-0.078,0.109l-0.06,0.003l-0.039,-0.055l-0.013,-0.055l-0.018,0.013Z M339.043,369.274l0.091,-0.026l0.096,-0.003l0.282,-0.172l0.117,-0.128l0.125,-0.089l-0.026,-0.016l-0.141,0.05l-0.096,0.112l-0.25,0.128h-0.143l-0.063,0.031l-0.031,0.073l0.039,0.039Z M336.978,369.238l0.042,0.023l0.07,-0.008l0.104,-0.052l-0.031,-0.021l-0.172,0.018l-0.013,0.039Z M336.589,369.36l0.06,-0.039l-0.003,-0.023l-0.07,0.013l-0.12,-0.003l-0.013,0.023l0.146,0.029Z M335.369,368.804l0.106,-0.003l0.023,-0.063l-0.033,-0.054l-0.115,-0.03l-0.028,0.036l0.021,0.09l0.026,0.023Z M335.059,367.983l-0.021,0.03l-0.002,0.042l0.068,0.052l0.057,0.002l0.045,0.024l-0.017,0.047l0.03,0.016l0.047,-0.052l-0.002,-0.033l-0.057,-0.031l-0.076,0.003l-0.05,-0.028l-0.012,-0.026l0.023,-0.036l-0.009,-0.036l-0.019,-0.003l-0.003,0.031Z M354.421,368.669l0.031,-0.049l-0.052,-0.146l-0.083,-0.028l-0.052,0.063l0.007,0.052l0.066,0.069l0.083,0.038Z M353.267,368.026l0.139,0.007l0.132,-0.111l-0.014,-0.132l0.115,-0.129l-0.028,-0.139l-0.094,-0.083l-0.351,0.003l-0.285,-0.153l-0.028,-0.094l0.007,-0.094l-0.052,-0.056l-0.156,-0.028l-0.003,-0.059l0.083,-0.021l0.007,-0.076l-0.125,-0.09l-0.122,-0.017l-0.153,-0.156l-0.063,-0.108l-0.087,-0.017l-0.035,0.031l-0.028,0.069l-0.111,-0.031l-0.059,-0.129l0.007,-0.198l-0.146,-0.163l-0.393,-0.083l-0.122,0.031l-0.101,-0.024l-0.24,-0.281l-0.028,-0.115l-0.15,-0.087h-0.156l-0.122,0.104l-0.313,0.003l-0.261,-0.083l-0.111,-0.104l-0.094,-0.136l-0.094,-0.028l-0.076,0.052l0.028,0.083l0.143,0.028l0.066,0.069l-0.035,0.031l-0.153,-0.024l-0.035,0.059l0.056,0.136l0.15,0.101l0.334,0.073l0.087,0.087l0.257,0.028l0.139,-0.056l0.122,0.024l0.163,0.066l0.08,-0.003l0.073,-0.052l0.042,0.01l-0.007,0.097l-0.083,0.052l0.007,0.038l0.16,0.045l0.118,0.125l0.073,0.149l0.108,0.052l0.101,-0.017l0.125,0.052l0.063,0.139l0.031,0.01l0.028,-0.08l0.003,-0.118l0.045,-0.007l0.195,0.167l0.024,0.094l0.08,0.08l-0.017,0.049l-0.101,-0.01l-0.056,-0.052l-0.076,0.024l-0.031,0.076l0.031,0.073l0.07,0.028l0.07,-0.003l0.083,0.059l0.024,0.087l0.115,0.038l0.087,-0.003l0.07,0.063v0.215l0.073,0.083l0.198,0.108l0.083,-0.021l0.063,-0.083l0.066,0.028l0.014,0.069l-0.049,0.049l0.021,0.049l0.136,0.08l0.118,-0.003l0.097,0.063l-0.007,0.087l0.042,0.035Z M354.185,368.683l0.045,0.115l0.024,0.014l-0.007,-0.073l0.017,-0.035l0.09,0.056l0.049,-0.031l-0.09,-0.076l-0.083,-0.01l-0.087,-0.073l-0.056,0.003l-0.024,0.045l0.122,0.066Z M331.856,367.935l0.055,-0.034l-0.023,-0.018l-0.091,0.013l-0.016,0.029l0.076,0.01Z M351.493,365.952l0.094,-0.013l0.042,-0.068l0.044,0.005l0.042,0.081l0.023,-0.003l0.005,-0.039l-0.06,-0.083l-0.068,-0.01l-0.096,0.076l-0.091,-0.015l-0.059,0.003l-0.027,0.022l0.013,0.026l0.066,0.004l0.072,0.014Z M333.998,367.22l0.044,0.006l0.033,-0.021l-0.012,-0.025l-0.057,-0.007l-0.021,0.019l0.012,0.028Z M333.068,368.537l-0.06,-0.109l-0.021,-0.063l-0.026,-0.01v0.07l0.086,0.12l0.021,-0.008Z M331.397,367.755l0.083,0.089l0.261,0.021l0.013,-0.023l-0.138,-0.036l-0.078,-0.013l-0.086,-0.068l-0.05,-0.003l-0.005,0.034Z M334.282,367.48l-0.028,-0.004l-0.014,-0.022v-0.028l-0.014,-0.003l-0.026,0.032l-0.042,0.003l-0.007,0.015l0.072,0.021l0.018,0.042h0.032l0.061,-0.053l0.05,-0.006l0.09,-0.026l0.057,0.007l0.041,0.026l0.037,-0.01v-0.031l-0.083,-0.029l-0.184,0.034l-0.061,0.032Z M332.284,367.898l0.13,0.013l0.07,-0.008l-0.016,-0.023l-0.099,-0.008l-0.086,-0.018l-0.146,0.052l-0.01,0.026l0.156,-0.034Z M335.546,368.868l0.042,-0.031h0.07l0.115,0.05l0.008,0.034l-0.073,0.034l-0.005,0.057l0.047,0.005l0.073,-0.078l0.003,-0.065l-0.11,-0.068l-0.13,-0.031l-0.076,0.047v0.039l0.037,0.008Z M335.791,369.055l0.047,0.047l0.01,0.068l0.044,0.031h0.091l0.008,-0.029l-0.034,-0.01l-0.05,0.008l-0.034,-0.029l0.003,-0.052l-0.065,-0.042l-0.021,0.008Z M335.189,368.233l0.005,0.054l0.037,0.057l0.028,-0.002l-0.002,-0.036l-0.038,-0.038l-0.009,-0.036l-0.021,0.002Z M335.057,367.828l0.028,0.038l-0.002,0.035l0.017,0.003l0.038,-0.031l-0.009,-0.019l-0.043,-0.019l-0.007,-0.031h-0.019l-0.003,0.024 Z M335.041,367.797l0.008,-0.014l-0.036,-0.032h-0.043l-0.029,-0.024 l-0.007,-0.04l-0.094,-0.054h-0.139l-0.043,-0.018l-0.064,-0.06l-0.019,0.006l0.025,0.053l0.057,0.039l0.072,0.011l0.071,-0.008l0.103,0.037l0.019,0.054l0.037,0.024l0.051,0.004l0.03,0.022Z M334.866,365.35l-0.024,0.063l0.002,0.056l0.023,0.019l0.024,-0.007l0.007,-0.056l0.03,-0.057l-0.021,-0.026l-0.04,0.009Z M334.896,365.206l0.035,0.063h0.024l0.009,-0.03l-0.038,-0.061l-0.045,-0.016l-0.016,0.017l0.031,0.026Z M350.89,366.744l0.031,0.052l0.094,-0.052l0.057,-0.104l-0.052,-0.016l-0.094,0.036l-0.037,0.083Z M355.43,369.423l0.024,-0.066l0.07,-0.031l0.038,-0.083l-0.063,-0.073l-0.094,-0.021v-0.083l-0.198,-0.115l-0.303,-0.087l-0.104,-0.097l-0.035,-0.097l-0.097,-0.063l-0.087,-0.003l-0.059,0.052l-0.003,0.073l-0.056,0.097l0.094,0.08l0.066,0.014l0.045,0.052l0.003,0.073l0.111,0.104l0.056,0.087l0.063,0.01l0.059,-0.049l0.066,0.017l0.223,0.104l0.125,0.111l0.056,-0.007Z M352.763,366.521l0.049,0.17l0.143,0.229l0.177,0.097l0.042,-0.024l-0.056,-0.056l-0.115,-0.076l-0.132,-0.202l-0.08,-0.202l-0.097,-0.028l-0.028,0.038l0.045,0.038l0.052,0.014Z M352.589,366.466l0.024,-0.024l-0.083,-0.142l-0.08,-0.049l-0.021,0.028l0.045,0.09l0.076,0.059l0.038,0.038Z M354.233,368.481l0.052,-0.059l-0.177,-0.149l-0.136,-0.205l-0.219,-0.142h-0.136l-0.049,0.073l-0.031,0.076l-0.163,0.031l-0.014,0.049l0.073,0.017l0.209,0.017l0.08,-0.069l0.042,0.017l0.021,0.129l-0.073,0.083l0.021,0.035l0.205,0.017l0.111,0.09l0.115,0.01l0.07,-0.021Z M341.407,363.266l0.15,-0.035l0.08,0.042l0.059,0.007l0.122,-0.038v-0.056l-0.097,-0.104 l-0.118,-0.01l-0.049,0.024l-0.031,0.08l-0.09,0.031l-0.233,0.132l0.024,0.021l0.184,-0.094Z M348.566,366.084l0.049,-0.028l0.063,-0.097l-0.038,-0.024l-0.083,0.066l-0.024,0.073l0.035,0.01Z M345.329,364.106l0.038,-0.01l-0.003,-0.052l0.045,-0.035l0.038,-0.073l-0.049,-0.052l-0.104,0.003l-0.028,0.073l0.024,0.115l0.038,0.031Z M344.16,363.877l0.066,-0.003l0.003,-0.049l-0.097,-0.104l-0.031,0.024l0.003,0.083l0.056,0.049Z M353.188,368.128l0.083,0.013l0.013,-0.034l-0.078,-0.06l-0.042,-0.01l-0.023,0.039l0.047,0.052Z M341.765,362.988l0.278,0.045l0.219,-0.007l0.209,0.056l0.143,0.007l0.303,0.059l0.111,-0.028l0.031,-0.063l-0.042,-0.125l-0.035,0.017l0.003,0.069l-0.09,0.024l-0.125,-0.052l-0.139,-0.028l-0.08,-0.063l-0.156,-0.01l-0.184,0.073l-0.226,-0.01l-0.188,-0.028l-0.108,-0.045l-0.021,0.031l0.097,0.076Z M341.594,362.908l0.045,-0.038l-0.049,-0.097l-0.104,-0.028l-0.024,-0.066l-0.052,-0.007l-0.223,0.066l-0.035,0.063l0.01,0.069l0.143,0.014l0.156,-0.049l0.08,0.028l0.052,0.045Z M341.041,362.859l0.024,0.028l0.035,-0.035l0.021,-0.076l-0.035,-0.01l-0.031,0.021l-0.014,0.073Z M340.961,362.967l0.059,-0.031l0.01,-0.031l-0.035,-0.007l-0.049,0.052l0.014,0.017Z M349.425,365.653l0.08,-0.052l-0.003,-0.031l-0.09,-0.003l-0.066,0.045v0.052l0.08,-0.01Z M349.258,365.781l0.017,-0.038l-0.066,-0.014l-0.076,0.021l-0.216,-0.042l-0.073,-0.045l-0.219,-0.059l-0.087,0.007l-0.073,-0.076l0.014,-0.115l0.073,-0.118l-0.017,-0.049l-0.045,0.042l-0.063,0.181l0.024,0.122l0.101,0.094l0.056,0.007l0.066,-0.031l0.16,0.049l0.087,0.049l0.191,0.042l0.146,-0.024Z M346.487,364.847l0.094,0.063l0.143,0.087l0.146,0.003l0.268,0.17l0.094,0.108l0.059,0.024l0.01,-0.031l-0.181,-0.205l-0.247,-0.16l-0.129,-0.035l-0.15,-0.104l-0.076,-0.045l-0.174,-0.208l-0.146,-0.003l-0.059,0.063l0.035,0.056l0.049,-0.01l0.066,-0.038l0.066,0.024l0.122,0.16l0.01,0.083Z M348.169,365.118l0.111,0.045l0.073,-0.028l0.111,-0.003l0.024,0.063l0.045,0.017l0.097,-0.035l0.021,-0.045l-0.076,-0.059l-0.216,0.021l-0.177,-0.035l-0.035,0.028l0.021,0.031Z M347.895,365.309l0.083,-0.035l0.01,-0.052l-0.035,-0.024l-0.167,0.045l-0.028,0.031l0.017,0.049l0.118,-0.014Z M347.721,365.357l0.017,-0.038l-0.021,-0.042l-0.059,0.007l-0.024,0.049l0.024,0.035l0.063,-0.01Z M347.7,365.215l0.094,-0.024v-0.024l-0.111,0.003l-0.028,0.024l0.045,0.021Z M347.53,365.413l0.101,-0.01l-0.028,-0.031h-0.073l-0.035,0.031l0.035,0.01Z M346.563,365.142l0.108,0.017l0.08,0.056l0.16,0.038l0.073,0.104l0.066,0.01l0.003,-0.045l-0.066,-0.149l-0.063,-0.045l-0.181,-0.059l-0.104,-0.063l-0.094,-0.003l-0.042,0.069l0.059,0.069Z M343.117,363.276l0.045,-0.056l0.115,-0.021l0.076,0.042l0.056,0.003l0.024,-0.059l-0.07,-0.042l-0.188,0.003l-0.066,0.024l-0.021,0.069l0.028,0.035Z M343.618,363.325h0.09l0.052,0.045l0.045,0.08l0.07,0.042l0.087,-0.014l0.143,0.076l0.104,0.021l0.108,-0.115l-0.021,-0.049l-0.087,0.01l-0.115,-0.066l-0.111,-0.003l-0.066,-0.017l0.003,-0.069l-0.031,-0.038l-0.111,-0.028l-0.163,0.017l-0.052,0.066l0.056,0.042Z M344.362,363.752l0.129,0.024l0.028,-0.024l-0.118,-0.087l-0.129,-0.024l-0.049,0.063l0.028,0.056l0.111,-0.007Z M345.909,364.398l0.08,0.017l0.028,-0.049l-0.108,-0.129l-0.129,-0.052l-0.024,0.076l0.153,0.136Z M344.47,363.603l0.104,0.049l0.031,-0.007l-0.035,-0.111l-0.087,-0.038l-0.049,0.045l0.035,0.063Z M344.703,363.745l0.076,-0.021l0.01,-0.049l-0.042,-0.076l-0.073,0.01l-0.014,0.104l0.042,0.031Z M345.005,364.04l0.115,-0.017l0.059,0.038l0.042,-0.014l-0.007,-0.08l-0.07,-0.069l-0.163,0.017l-0.024,0.059l0.049,0.066Z M352.119,373.144l0.055,-0.013l0.005,-0.081l-0.026,-0.042v-0.094l-0.023,0.003l-0.042,0.104v0.099l0.031,0.023Z M349.56,372.946l0.264,-0.007l0.156,0.035l0.042,-0.021l-0.028,-0.049l-0.118,-0.017h-0.351l-0.014,0.031l0.049,0.028Z M347.161,371.221l0.068,0.109l0.125,0.052l0.037,-0.042l-0.078,-0.12l-0.229,-0.12l-0.073,0.01l0.01,0.063l0.141,0.047Z M347.61,371.607l0.11,0.016l0.214,0.172l0.261,0.25l0.276,0.151l0.094,-0.016v-0.063l-0.407,-0.198l-0.386,-0.36l-0.151,-0.042l-0.057,0.047l0.047,0.042Z M350.197,372.748l0.101,0.007l0.143,-0.059l0.198,-0.017l0.167,-0.083l-0.017,-0.024l-0.275,0.066l-0.097,-0.014l-0.066,-0.08l-0.059,-0.059l-0.014,0.038l0.056,0.111l-0.003,0.052l-0.174,0.042l0.042,0.021Z M350.169,373.068l0.236,0.052l0.177,0.083l0.049,0.073l0.122,0.115l0.184,0.049l0.024,-0.038l-0.038,-0.108l-0.08,-0.045l-0.049,-0.042l0.007,-0.129l-0.035,-0.066l0.031,-0.052l-0.024,-0.156l-0.031,-0.024l-0.07,0.059l0.031,0.142l-0.01,0.139l0.035,0.101l0.139,0.094l0.031,0.056l-0.031,0.003l-0.122,-0.056l-0.087,-0.118l-0.143,-0.118l-0.334,-0.059l-0.035,0.014l0.021,0.031Z M349.713,372.582l0.042,0.038l0.042,-0.052l-0.003,-0.094l-0.038,-0.014l-0.042,0.073v0.049Z M348.865,372.463l0.076,-0.024l0.021,-0.069l-0.066,-0.021l-0.066,0.059l-0.115,-0.017l-0.017,0.024l0.167,0.049Z M349.133,372.637l0.108,0.076l0.083,-0.003l0.031,-0.056l-0.052,-0.045l-0.08,0.01l-0.111,-0.073l-0.028,0.024l0.049,0.066Z M349.414,372.842l-0.007,-0.045l0.031,-0.045l-0.01,-0.028l-0.066,0.028l-0.014,0.045l0.028,0.045h0.038Z M349.79,372.241l0.021,0.049l0.038,0.003l0.017,-0.028l-0.028,-0.069l-0.049,-0.017l-0.017,0.031l0.017,0.031Z M354.984,374.256l-0.007,0.022l0.039,0.004l0.056,-0.026l0.003,-0.015l-0.035,-0.003l-0.056,0.019Z M353.724,375.096h0.021l0.008,-0.017l-0.017,-0.017h-0.029l-0.006,0.019 l0.022,0.014Z M353.537,373.489l0.013,-0.019l-0.005,-0.011l-0.028,0.01l-0.01,0.023l0.008,0.011l0.022,-0.014Z M351.819,372.893l0.019,-0.005l0.008,-0.025l-0.049,-0.036h-0.02l-0.006,0.021 l0.048,0.046Z M351.817,373.079h0.017l0.014,-0.032 v-0.044l-0.012,-0.01 l-0.018,0.036v0.05Z M352.777,373.434l0.011,-0.025l-0.016,-0.003l-0.031,0.033l0.01,0.01l0.026,-0.015Z M352.614,373.292l0.034,-0.029l-0.005,-0.035l-0.023,-0.013l-0.026,0.019l-0.009,0.043l0.029,0.014Z M351.369,372.506l0.011,0.016l0.039,-0.004l0.036,-0.034l-0.01,-0.028l-0.024,0.005l-0.052,0.045Z M351.264,372.484l-0.005,0.031l0.021,0.013l0.034,-0.013v-0.023l-0.023,-0.013l-0.026,0.005Z M351.291,372.429l0.021,-0.006l-0.003,-0.02l-0.029,-0.016l-0.025,0.002l-0.008,0.017l0.043,0.023Z M349.988,372.693l0.007,0.024l0.028,0.003l0.003,-0.024l-0.014,-0.014l-0.024,0.01Z M349.05,372.532l0.034,-0.017l0.006,-0.043l-0.029,0.002l-0.028,0.037l0.017,0.021Z M348.455,371.397l-0.003,0.019l0.011,0.006l0.014,-0.012l-0.007,-0.012h-0.015Z M349.502,371.201l0.008,-0.017l-0.023,-0.032l-0.047,-0.015l-0.019,0.022l0.016,0.019l0.065,0.023Z M348.968,372.448l-0.005,0.031l0.021,0.013l0.034,-0.013v-0.023l-0.023,-0.013l-0.026,0.005Z M348.687,372.275l0.021,-0.03l-0.012,-0.012l-0.034,0.021l-0.013,0.026l0.011,0.011l0.027,-0.016Z M348.729,372.288h0.014l0.014,-0.031l-0.012,-0.007l-0.016,0.012v0.026Z M348.807,372.363h0.021l0.006,-0.012 l-0.028,-0.012l-0.026,0.003v0.017l0.028,0.006 Z M336.054,369.441l0.042,-0.002l0.021,-0.024l-0.017,-0.029l-0.04,-0.002l-0.024,0.017l-0.007,0.026l0.026,0.014Z M338.665,369.144l0.005,0.018l0.025,0.004l0.019,-0.013v-0.017l-0.019,-0.005 l-0.03,0.013Z M336.945,369.248l-0.007,-0.015l-0.01,0.012l-0.002,0.026l0.009,0.012l0.01,-0.034Z M338.03,368.905l0.016,-0.016l-0.012,-0.016h-0.033l-0.021,0.014l0.002,0.019l0.049,-0.002Z M338.183,369.108l0.021,-0.007l-0.017,-0.026l-0.028,-0.009l-0.007,0.019l0.031,0.023Z M337.625,368.93l0.026,-0.005l0.008,-0.029l-0.034,-0.016l-0.023,0.016v0.029l0.023,0.005Z M338.085,368.208l0.008,-0.02l-0.031,-0.003l-0.024,0.016l0.01,0.018l0.037,-0.009Z M338.859,369.156h0.021l0.006,-0.012 l-0.028,-0.012l-0.026,0.003v0.017l0.028,0.006 Z M338.576,369.181l0.008,-0.019l-0.015,-0.003l-0.022,0.014v0.014l0.029,-0.006 Z M338.912,369.143l0.005,0.018l0.026,0.005l0.026,-0.016v-0.018l-0.031,-0.005l-0.026,0.016Z M336.823,369.458l-0.025,-0.024l-0.032,-0.012v0.015l0.033,0.031 l0.025,0.009v-0.019Z M336.754,369.32l-0.005,0.012l0.01,0.009l0.016,-0.01l-0.003,-0.012l-0.017,0.002Z M338.149,367.171l0.01,-0.008l-0.004,-0.033l-0.013,-0.008l-0.003,0.019l0.01,0.03Z M338.628,367.314l-0.006,0.024l0.019,0.005l0.016,-0.012l-0.012,-0.019l-0.018,0.002Z M338.993,367.606l0.014,-0.013l-0.009,-0.024l-0.021,-0.01l-0.015,0.007l0.005,0.02l0.026,0.02Z M337.747,366.862l0.021,0.003l0.007,-0.009l-0.016,-0.019l-0.019,-0.002l-0.002,0.012l0.009,0.014Z M337.806,367.186l-0.015,-0.039l-0.028,0.005v0.037l0.027,0.02 l0.016,-0.024Z M334.077,367.442l0.007,0.024l0.028,0.003l0.003,-0.024l-0.014,-0.014l-0.024,0.01Z M334.016,367.411l-0.003,0.019l0.011,0.006l0.014,-0.012l-0.007,-0.012h-0.015Z M333.997,367.335l-0.004,0.018l0.015,0.007l0.023,-0.006v-0.015l-0.017,-0.01l-0.018,0.006Z M333.99,367.3l0.026,-0.005l-0.008,-0.018l-0.026,-0.003l-0.008,0.016l0.016,0.01Z M329.094,365.538l0.007,0.024l0.028,0.003l0.003,-0.024l-0.014,-0.014l-0.024,0.01Z M331.773,364.238l0.035,0.002l0.032,-0.011l-0.01,-0.011l-0.045,-0.003l-0.025,0.01l0.013,0.014Z M341.178,363.08l0.017,-0.008v-0.026l-0.017,-0.017 l-0.017,0.002l-0.002,0.021l0.018,0.028Z M341.644,363.001l0.008,-0.01l-0.01,-0.032l-0.014,-0.006v0.019l0.015,0.028Z M342.794,363.351l0.016,-0.014l-0.003,-0.019l-0.036,-0.007l-0.024,0.009l0.003,0.024l0.045,0.007Z M343.284,363.728l0.01,-0.018l-0.006,-0.009l-0.023,0.008l-0.008,0.017l0.011,0.006l0.016,-0.003Z M344.992,364.126l-0.022,0.007l0.019,0.034l0.053,0.031l0.014,-0.006l-0.017,-0.03l-0.047,-0.035Z M344.845,363.817l0.02,0.009l0.011,-0.017l-0.011,-0.031l-0.02,-0.015l-0.017,0.008l0.018,0.045Z M344.976,363.887l0.019,-0.005l0.008,-0.025l-0.049,-0.036h-0.02l-0.006,0.021 l0.048,0.046Z M347.484,365.58l0.056,-0.035l-0.014,-0.038l-0.042,-0.014l-0.076,0.024l-0.003,0.049l0.08,0.014Z M348.02,365.562l0.108,0.021l0.063,-0.003l-0.01,-0.024l-0.16,-0.035l-0.028,0.014l0.028,0.028Z M347.846,365.58l0.066,-0.003l0.017,-0.024l-0.097,-0.014l-0.035,0.017l0.049,0.024Z M347.672,365.621l0.073,-0.014v-0.031l-0.087,0.007l-0.024,0.021l0.038,0.017Z M347.227,365.892l0.108,-0.052v-0.028l-0.129,0.042l-0.017,0.035l0.038,0.003Z M347.38,365.927l0.09,0.01l0.049,-0.035l-0.038,-0.035l-0.083,0.003l-0.049,0.031l0.031,0.024Z "/>
</svg>
