<svg xmlns="http://www.w3.org/2000/svg" viewBox="547.427 386.160 9.955 9.138">
  <path d="M549.641,395.184l0.003,-0.104l0.026,-0.013l0.026,0.003l0.016,-0.023l-0.023,-0.023l0.023,-0.036l0.06,-0.003l0.06,-0.018l0.029,-0.023l0.029,0.008l0.029,0.031l-0.01,0.062l0.034,0.055l-0.003,0.112l-0.034,0.044l-0.075,0.042l-0.068,-0.008l-0.052,-0.039l-0.013,-0.039l-0.016,-0.008l-0.021,0.008l-0.018,-0.026Z M550.018,394.693l0.023,0.003l0.04,-0.019l0.005,-0.031l-0.014,-0.025l-0.018,0.008l-0.005,0.021l-0.01,0.023l-0.018,0.003l-0.003,0.018Z M550.618,395.031l0.039,0.036l0.021,0.031l0.031,0.029l0.034,0.01l0.049,0.057l0.086,0.06l0.13,0.023l0.109,-0.018l0.146,-0.081l0.094,-0.096l0.023,-0.099l-0.026,-0.184l-0.018,-0.07l0.008,-0.057l-0.036,-0.148l-0.044,-0.073l-0.081,-0.057l-0.112,-0.029l-0.078,0.018l-0.047,0.049l-0.049,0.029l-0.042,-0.005l-0.055,0.021l-0.182,0.156l-0.049,0.114l-0.023,0.101l0.003,0.114l0.023,0.049l0.047,0.018Z M553.262,394.33l0.083,0.094l0.057,0.026l0.073,0.078l-0.016,0.062v0.047l0.177,0.166l0.171,0.099l0.099,0.01l0.094,0.026l0.182,0.016l0.099,-0.031l0.052,0.016l0.036,-0.016l-0.01,-0.052l0.078,-0.114l0.005,-0.057l0.042,-0.052l0.057,-0.016l-0.005,-0.094l-0.036,-0.12l-0.104,-0.083l-0.083,-0.125l-0.042,-0.104l-0.14,-0.12h-0.057l-0.068,-0.042l-0.109,-0.187l-0.109,-0.104l-0.171,-0.078l-0.026,-0.099l0.016,-0.094l-0.052,-0.073l-0.156,-0.031l-0.073,0.036l-0.057,0.12l0.047,0.047v0.047l0.016,0.047l0.052,0.036l0.005,0.057l-0.042,0.052l-0.042,0.182l0.01,0.12l-0.005,0.078l-0.062,0.166l0.016,0.062Z M555.32,393.598l0.005,0.109l-0.036,0.042l-0.026,0.161l0.01,0.094l0.114,0.094l0.125,0.026l0.088,-0.031l0.151,-0.099l0.047,-0.088l-0.057,-0.343l0.021,-0.047l-0.047,-0.13l-0.052,-0.021l-0.047,0.026l-0.12,-0.047l-0.026,-0.047l-0.042,0.016v0.057l-0.047,0.078l-0.104,0.073l-0.005,0.052l0.047,0.026Z M556.507,390.171l-0.007,0.107l-0.09,0.09l-0.052,0.003l-0.045,0.055l0.01,0.038l-0.031,0.114l0.017,0.08l0.059,0.052l0.156,0.042l0.042,0.028l0.01,0.049l0.042,0.028l0.062,-0.014h0.166l0.055,0.031l0.024,-0.003l0.007,-0.035l0.031,-0.049l0.166,-0.104l0.073,-0.024l0.132,-0.097l0.01,-0.049l0.038,-0.09l-0.024,-0.128l0.014,-0.038l-0.01,-0.066l-0.111,-0.135l-0.003,-0.052l-0.049,-0.052h-0.062l-0.159,-0.052l-0.038,-0.035l-0.028,0.014l0.003,0.038l-0.038,0.031l-0.163,0.024l-0.114,-0.014l-0.08,-0.066l-0.049,-0.028l-0.017,0.035l0.014,0.087l-0.007,0.073l0.045,0.111Z M556.438,388.529l0.031,0.007l0.024,-0.035l0.028,-0.01l0.062,0.024l0.021,-0.024l-0.062,-0.094l-0.003,-0.059l0.021,-0.028l0.035,-0.007v-0.035l0.021,-0.035l0.024,-0.021l-0.031,-0.118l-0.035,-0.042l-0.021,-0.08l0.01,-0.052l-0.01,-0.038l0.017,-0.035l0.035,0.003l0.01,-0.035l-0.055,-0.1l-0.031,-0.017l0.003,-0.031l0.049,-0.058l-0.008,-0.039l-0.062,-0.028l-0.01,-0.035l-0.035,-0.007l-0.066,0.042l-0.052,0.003l-0.118,0.052l-0.038,0.08l0.021,0.194l0.024,0.014l0.016,-0.019l0.01,0.016l-0.008,0.029l-0.029,0.048l0.003,0.045l0.014,0.038l-0.028,0.052l0.031,0.021l0.059,-0.017l0.069,0.021l0.035,0.069l-0.014,0.062l-0.024,0.031l0.007,0.042l0.038,0.042l0.021,0.055v0.107Z M550.249,388.448l0.055,0.003l0.023,-0.018l0.01,-0.047l-0.047,-0.026l-0.065,0.026l-0.008,0.036l0.031,0.026Z M549.594,387.84l0.083,0.047v0.052l0.042,0.021l0.151,-0.005l0.052,-0.036v-0.042l-0.042,-0.01l-0.062,0.031l-0.057,-0.036l-0.073,-0.125l-0.062,-0.042l-0.057,0.005l-0.042,0.062l0.016,0.062l0.052,0.016Z M548.493,387.59l0.042,0.031l0.005,0.047l0.182,0.062l0.062,0.057l0.052,0.01l0.036,-0.036l0.171,-0.036l0.125,-0.057l0.083,-0.005l0.026,-0.068l-0.036,-0.062l0.035,-0.057l-0.024,-0.021l-0.047,0.016l-0.047,-0.005l-0.078,-0.083l0.021,-0.104l-0.042,-0.036l-0.052,0.005l-0.026,0.042l-0.062,0.005l-0.01,-0.04l-0.038,-0.01l-0.069,0.035l-0.031,0.042l0.028,0.055l-0.024,0.028l-0.062,0.01l-0.057,-0.026l-0.083,0.01l-0.099,0.094l-0.042,0.099l0.021,0.021l0.042,-0.021Z M547.698,387.289l0.042,-0.042l0.083,-0.005l0.088,0.031l0.099,0.005l0.104,-0.042l0.083,-0.125l0.062,-0.026l0.078,-0.094l0.084,-0.084l0.051,-0.025h0.052l0.1,-0.038 l0.154,-0.107l0.088,-0.099l0.028,-0.061l0.007,-0.066l-0.019,-0.024l-0.042,0.005l-0.057,-0.026l-0.073,-0.109l-0.01,-0.078l-0.052,-0.036l-0.104,-0.016l-0.094,-0.062l-0.052,-0.005l-0.265,0.135l-0.104,0.026l-0.088,0.047l-0.021,0.057l-0.182,0.088l-0.192,0.047l-0.088,0.104l-0.031,0.094l0.042,0.073l0.062,0.026l0.047,0.088l0.031,0.161l-0.026,0.068l0.068,0.109l0.047,0.005Z M550.904,388.466l0.114,0.075l0.068,0.013l0.029,0.036v0.052l0.031,0.023l0.023,0.068l0.036,0.039l0.036,0.086l-0.008,0.026l0.013,0.034l0.052,0.01l0.021,-0.021l-0.01,-0.018l0.013,-0.062l0.029,-0.034l0.06,-0.166l0.036,-0.029l0.034,-0.044l0.06,-0.016l0.052,-0.042l0.109,0.016l0.091,-0.005l0.036,0.013l0.042,0.039l0.083,0.023l0.039,0.044l0.047,0.029l0.122,0.013l0.068,-0.021l0.052,0.003l0.055,0.023l0.049,-0.01l0.026,-0.06l-0.026,-0.052l-0.07,-0.026l-0.034,-0.049l-0.091,-0.042l-0.158,-0.013l-0.044,-0.026l-0.036,-0.003l-0.034,0.039l-0.073,-0.021l-0.047,-0.052l-0.138,-0.06l-0.052,-0.003l-0.047,0.039h-0.042l-0.023,-0.013h-0.036l-0.026,0.034l-0.044,-0.018l-0.088,-0.112l-0.083,-0.055l-0.042,-0.008l-0.029,0.034l-0.042,0.016l-0.042,-0.005l-0.042,-0.005l-0.104,0.052l-0.047,0.055l-0.005,0.094l0.036,0.062Z M550.013,388.257l-0.042,-0.042l-0.033,-0.011l-0.023,0.021l0.077,0.069l0.035,0.005l-0.015,-0.042Z M556.443,390.103l-0.018,-0.033l-0.043,-0.003l0.004,0.028l0.038,0.026l0.02,-0.018Z M549.819,394.697l0.035,0.021l0.038,-0.021l0.01,-0.042l-0.024,-0.017l-0.035,0.01l-0.024,0.049Z M549.965,394.696h0.021l0.008,-0.017l-0.017,-0.017h-0.029l-0.006,0.019 l0.022,0.014Z "/>
</svg>
