<svg xmlns="http://www.w3.org/2000/svg" viewBox="761.106 314.514 6.762 2.353">
  <path d="M766.422371,315.411171l0.003,-0.029l-0.003,-0.036l-0.038,-0.028l-0.077,-0.018l-0.039,0.01l-0.041,-0.008l-0.035,-0.039l-0.112,-0.027l-0.066,0.018l-0.035,-0.01l-0.034,-0.057l-0.033,0.002l-0.008,0.049l-0.056,0.043l-0.098,-0.002l-0.059,-0.049l0.002,-0.059l-0.017,-0.033l-0.026,0.012l-0.012,0.147l-0.035,0.047l-0.094,0.007l-0.045,0.041l-0.047,-0.013l0.004,-0.061l0.034,-0.019l0.003,-0.032l-0.011,-0.021l0.002,-0.039l0.072,-0.069l0.004,-0.049l-0.039,-0.055l-0.008,-0.066l0.02,-0.063l-0.028,-0.049l-0.084,-0.056l-0.02,-0.047l0.004,-0.033l-0.019,-0.026l-0.033,-0.01l-0.01,-0.058l0.015,-0.043l-0.041,-0.045l-0.029,-0.002l-0.037,0.097l-0.084,0.006l-0.045,-0.035l-0.045,0.002l-0.024,0.035l-0.168,0.131l-0.072,-0.013l-0.071,-0.09l-0.166,-0.077l-0.086,-0.015l-0.059,0.029l-0.043,0.076l-0.113,0.09l-0.139,0.004l-0.045,-0.033l-0.1,-0.016l-0.055,0.012l-0.082,0.09l-0.082,0.041l-0.049,0.063l-0.082,0.049l-0.113,0.007l-0.087,-0.06l-0.046,0.004l0.001,0.047l-0.06,0.058h-0.096l-0.096,-0.039l-0.109,-0.135l-0.106,-0.011l-0.069,-0.045l-0.144,0.003l-0.032,-0.039l0.016,-0.092l-0.002,-0.128l-0.083,-0.03l-0.082,-0.008l-0.035,0.021l-0.046,-0.011l-0.031,0.013l-0.025,0.036l-0.074,0.016l-0.043,0.023l-0.051,0.008l-0.026,-0.011l-0.005,-0.02l-0.02,0.002l-0.038,0.101l-0.059,0.044l-0.058,0.121l-0.084,0.142l-0.128,0.103l-0.147,0.06l-0.13,-0.008l-0.084,-0.034l-0.181,-0.139l-0.048,-0.083l-0.044,-0.002l-0.035,0.082l0.005,0.166l0.13,0.167l0.018,0.08l0.002,0.089l-0.008,0.029l-0.029,0.005l-0.004,0.027l0.044,0.023l0.048,0.091l-0.008,0.054l-0.028,0.023l0.005,0.039l0.077,0.103l0.023,0.059l0.038,0.011l0.031,-0.008l0.076,0.046l0.025,0.08l0.008,0.119l0.048,0.14l-0.02,0.038l0.01,0.018l0.049,-0.007l0.071,0.074l0.069,0.018l0.099,0.093l0.064,0.021l0.045,-0.013l0.079,0.036l0.054,0.003l0.168,0.067l0.102,0.072l0.155,0.054l0.084,0.011l0.071,0.036h0.054l0.038,-0.026l0.076,0.005l0.042,-0.025l0.006,-0.105l0.027,-0.017l0.105,0.014l0.043,-0.063l0.061,-0.013l0.025,-0.039l0.112,0.003l0.018,0.072l0.092,0.075l0.064,0.018l0.04,-0.039l0.072,0.016l0.068,-0.057l0.123,0.015l0.005,0.096l-0.056,0.008l-0.044,-0.016l-0.038,0.036l0.013,0.057l0.033,0.01l0.025,-0.028l0.062,-0.013l0.081,-0.003l0.09,-0.089l0.128,-0.086l0.198,-0.08l0.135,-0.02l0.153,0.023l0.239,0.005l0.031,-0.018l0.023,-0.041l0.061,-0.021l0.081,0.023l0.051,-0.008l0.061,-0.043l0.089,-0.011l0.156,-0.075l0.057,-0.055l0.153,-0.052l0.095,-0.004l0.044,-0.044l0.099,-0.069l0.051,-0.052l0.068,-0.017l0.088,0.004l0.041,0.027l0.027,-0.021l0.003,-0.051l0.041,-0.062l0.071,-0.066l0.007,-0.037l-0.017,-0.045l0.014,-0.152l0.03,-0.127l0.112,-0.11l0.088,-0.038z M767.147602,315.03131l0.022,0.043l0.143,0.013l0.047,-0.029l0.039,0.002l0.055,0.029l0.039,0.002l0.057,-0.027l0.091,0.055l0.087,0.106l0.01,0.048l0.093,0.109l-0.002,0.019h-0.025l-0.002,0.026l0.016,0.007l0.003,0.012l-0.002,0.02l0.019,0.016l0.012,-0.005l0.013,0.003l0.005,0.021l-0.01,0.02l-0.022,-0.005l-0.002,-0.02l-0.02,-0.007l-0.022,0.015l-0.025,-0.003l-0.012,-0.018l-0.051,-0.025l-0.078,-0.021l-0.026,-0.028l-0.03,-0.008l-0.024,0.008l-0.031,-0.001l-0.03,-0.018l-0.09,0.002l-0.061,0.035l-0.146,0.022l-0.026,0.031l-0.193,-0.033l-0.031,-0.019l0.024,-0.034l0.041,-0.003l-0.012,-0.081l-0.058,-0.001l-0.032,-0.026l-0.006,-0.092l-0.117,-0.06l0.016,-0.041l0.074,-0.051l0.072,0.038l0.066,-0.022l0.067,-0.06l0.054,0.055l0.021,-0.019z"/>
</svg>
