<svg xmlns="http://www.w3.org/2000/svg" viewBox="760.995 312.316 8.821 4.833">
  <path d="M766.359,315.122l-0.038-0.035l0.017-0.069l0.069-0.017l0.039-0.028l0.045,0.017l-0.042,0.125l0.029,0.007l0.101-0.072l0.096,0.062l0.032-0.034l0.046,0.003l0.029-0.049l0.096-0.06l0.075,0.041l0.055-0.015l0.065-0.06l-0.023-0.083l0.019-0.086l0.028-0.011l0.088,0.066v0.054l0.05,0.029v0.035l-0.048,0.021l-0.035,0.038l-0.067-0.052l-0.068,0.061l-0.067,0.022l-0.073-0.039l-0.076,0.051l-0.017,0.042l0.12,0.06l0.006,0.093l0.033,0.026l0.059,0.001l0.012,0.081l-0.042,0.004l-0.024,0.034l0.04,0.011l0.189,0.041l-0.039,0.06l-0.058,0.034l-0.087-0.011l-0.097-0.083l-0.247-0.072l-0.228,0.003v-0.066l0.052-0.013v-0.028l-0.055-0.025l-0.004-0.034l0.025-0.018l-0.004-0.024l-0.076-0.038L766.359,315.122z M762.844,316.762l0.005-0.105l0.028-0.018l0.108,0.014l0.043-0.063l0.063-0.013l0.026-0.039l0.114,0.002l0.018,0.073l0.094,0.075l0.065,0.019l0.041-0.039l0.073,0.015l0.07-0.057l0.125,0.016l0.005,0.096l-0.057,0.008l-0.044-0.016l-0.039,0.036l0.013,0.058l0.033,0.01l0.026-0.029l0.063-0.013l0.083-0.002l-0.019,0.147l0.014,0.061l0.097,0.13l-0.024,0.021l-0.197-0.045l-0.042,0.02l-0.097-0.01l0.003-0.059l-0.094-0.221l-0.162-0.129l-0.217,0.004l-0.218,0.053L762.844,316.762z"/>
  <path fill="#bbb" d="M766.359,315.122l-0.038-0.035l0.017-0.069l0.069-0.017l0.039-0.028l0.045,0.017l-0.042,0.125l0.029,0.007l0.101-0.072l0.096,0.062l0.032-0.034l0.046,0.003l0.029-0.049l0.096-0.06l0.075,0.041l0.055-0.015l0.065-0.06l-0.023-0.083l0.019-0.086l0.028-0.011l0.088,0.066v0.054l0.05,0.029v0.035l-0.048,0.021l-0.035,0.038l-0.067-0.052l-0.068,0.061l-0.067,0.022l-0.073-0.039l-0.076,0.051l-0.017,0.042l0.12,0.06l0.006,0.093l0.033,0.026l0.059,0.001l0.012,0.081l-0.042,0.004l-0.024,0.034l0.04,0.011l0.189,0.041l0.026-0.031l0.149-0.022l0.062-0.035l0.092-0.002l0.031,0.018l0.031,0.001l0.024-0.008l0.031,0.008l0.026,0.028l0.08,0.021l0.052,0.026l0.012,0.017l0.026,0.004l0.023-0.016l0.02,0.007l0.002,0.021l0.023,0.005l0.01-0.021l-0.005-0.021l-0.014-0.003l-0.012,0.005l-0.019-0.016l0.002-0.02l-0.004-0.012l-0.015-0.007l0.001-0.026h0.026l0.002-0.019l-0.095-0.11l-0.011-0.048l-0.088-0.108l-0.064-0.032l-0.052-0.049l-0.049-0.043l-0.097-0.127l-0.012-0.041l-0.02-0.023l-0.056-0.041l-0.054-0.097l-0.036-0.021l-0.012-0.031l0.003-0.023l-0.036-0.095l0.003-0.104l0.021-0.146l0.076-0.1l0.052-0.097l0.104-0.083l0.104-0.017l0.063,0.024l0.183-0.028l0.045-0.028l0.035-0.135l0.066-0.076l0.159-0.159l0.191-0.111l0.215-0.104l0.187-0.073l0.232-0.201l0.097-0.038l0.104-0.076l0.031-0.09l0.069-0.08l0.142-0.076l0.097-0.028l0.132-0.059l0.1-0.01l0.052-0.066l0.004-0.062l0.024-0.08l0.048-0.031h-0.052l-0.124,0.031l-0.049,0.052l-0.069,0.028l-0.028-0.025l-0.027,0.007l-0.011,0.052l-0.135,0.038l-0.055-0.01l-0.07,0.014l-0.086,0.069l-0.049,0.007h-0.066l-0.097,0.052l-0.038,0.066l-0.097,0.076l-0.111,0.059l-0.048-0.003l-0.104,0.034l-0.059,0.038l-0.114,0.014l-0.076-0.021l-0.039,0.011l-0.017,0.062l-0.052,0.028l-0.048,0.055l-0.049,0.08l-0.062,0.031l-0.135,0.038l-0.246,0.132l-0.187,0.066l-0.274,0.076l-0.153,0.059l-0.117,0.003l-0.16-0.007l-0.145,0.045l-0.16,0.104l-0.173,0.087l-0.232,0.017l-0.121,0.035l-0.118,0.007l-0.17,0.048l-0.169-0.01l-0.094,0.014l-0.281-0.024l-0.038-0.018l-0.156-0.027l-0.059,0.006l-0.051-0.01l-0.066,0.01l-0.125-0.045h-0.055l-0.056,0.028l-0.104-0.014l-0.086-0.038l-0.059-0.003l-0.083,0.041l-0.149-0.014l-0.077-0.038l-0.145-0.01l-0.104-0.076l-0.069-0.018l-0.101-0.059l-0.014,0.028l0.014,0.049l0.004,0.117l0.013,0.039l0.028,0.027l0.024,0.205l-0.041,0.246l-0.083,0.201l-0.063,0.097l-0.086,0.045l-0.118,0.062l-0.069-0.007l-0.118-0.066l-0.166-0.055l-0.011-0.031l-0.031-0.007l-0.024,0.014l-0.063-0.021l-0.077-0.006l-0.085-0.031l-0.084-0.007l-0.036,0.02l-0.047-0.01l-0.031,0.013l-0.026,0.036l-0.075,0.016l-0.044,0.023l-0.052,0.008l-0.026-0.01l-0.006-0.021l-0.02,0.003l-0.039,0.101l-0.06,0.044l-0.06,0.122l-0.086,0.143l-0.13,0.104l-0.15,0.06l-0.133-0.008l-0.085-0.034l-0.185-0.14l-0.049-0.083l-0.045-0.003l-0.036,0.083l0.005,0.167l0.133,0.169l0.018,0.08l0.003,0.089l-0.009,0.03l-0.03,0.005l-0.003,0.027l0.044,0.023l0.05,0.091l-0.008,0.055l-0.029,0.023l0.005,0.039l0.078,0.104l0.024,0.06l0.039,0.01l0.031-0.008l0.078,0.047l0.026,0.081l0.008,0.119l0.049,0.14l-0.021,0.039l0.011,0.019l0.049-0.008l0.073,0.075l0.07,0.018l0.101,0.094l0.065,0.021l0.047-0.013l0.08,0.036l0.055,0.003l0.172,0.067l0.103,0.073l0.159,0.055l0.086,0.01l0.072,0.036h0.055l0.039-0.026l0.078,0.006l0.043-0.026l0.005-0.105l0.028-0.018l0.108,0.014l0.043-0.063l0.063-0.013l0.026-0.039l0.114,0.002l0.018,0.073l0.094,0.075l0.065,0.019l0.041-0.039l0.073,0.015l0.07-0.057l0.125,0.016l0.005,0.096l-0.057,0.008l-0.044-0.016l-0.039,0.036l0.013,0.058l0.033,0.01l0.026-0.029l0.063-0.013l0.083-0.002l0.092-0.091l0.13-0.086l0.203-0.08l0.138-0.021l0.155,0.024l0.245,0.005l0.031-0.018l0.023-0.042l0.063-0.021l0.083,0.024l0.052-0.008l0.062-0.044l0.09-0.011l0.16-0.076l0.058-0.055l0.156-0.052l0.097-0.004l0.045-0.045l0.101-0.069l0.052-0.052l0.069-0.018l0.09,0.004l0.042,0.028l0.027-0.021l0.004-0.052l0.041-0.062l0.073-0.066l0.007-0.038l-0.017-0.045l0.014-0.153l0.031-0.128l0.114-0.111l0.09-0.038v-0.066l0.052-0.013v-0.028l-0.055-0.025l-0.004-0.034l0.025-0.018l-0.004-0.024l-0.076-0.038L766.359,315.122z"/>
</svg>
