<svg xmlns="http://www.w3.org/2000/svg" viewBox="762.722 312.379 7.027 2.943">
  <path d="M766.361,315.167l-0.037,-0.035l0.017,-0.068l0.068,-0.018l0.037,-0.027l0.044,0.017l-0.04,0.124l0.028,0.007l0.099,-0.072l0.094,0.062l0.031,-0.034l0.046,0.003l0.028,-0.049l0.094,-0.059l0.074,0.041l0.053,-0.016l0.064,-0.059l-0.023,-0.083l0.019,-0.085l0.027,-0.01l0.086,0.064v0.055l0.05,0.028v0.035l-0.047,0.021l0.017,0.025l0.058,0.011l0.057,-0.002l0.057,-0.026h0.046l0.064,0.03l0.055,-0.009l-0.047,-0.043l-0.095,-0.126l-0.012,-0.041l-0.021,-0.022l-0.054,-0.042l-0.052,-0.096l-0.036,-0.021l-0.012,-0.031l0.003,-0.022l-0.035,-0.095l0.003,-0.103l0.021,-0.145l0.074,-0.099l0.051,-0.097l0.102,-0.082l0.102,-0.017l0.061,0.024l0.18,-0.028l0.044,-0.027l0.034,-0.135l0.064,-0.075l0.157,-0.159l0.186,-0.11l0.211,-0.103l0.183,-0.072l0.227,-0.2l0.095,-0.038l0.102,-0.075l0.031,-0.09l0.068,-0.079l0.139,-0.076l0.095,-0.027l0.129,-0.059l0.098,-0.01l0.051,-0.066l0.004,-0.061l0.023,-0.08l0.048,-0.031h-0.051l-0.122,0.031l-0.048,0.052l-0.068,0.028l-0.027,-0.025l-0.027,0.007l-0.01,0.052l-0.132,0.038l-0.055,-0.011l-0.068,0.014l-0.085,0.069l-0.047,0.007h-0.065l-0.095,0.052l-0.037,0.065l-0.095,0.076l-0.109,0.058l-0.047,-0.003l-0.102,0.034l-0.058,0.038l-0.112,0.014l-0.074,-0.021l-0.038,0.01l-0.017,0.062l-0.051,0.028l-0.047,0.055l-0.048,0.079l-0.061,0.031l-0.132,0.038l-0.241,0.131l-0.183,0.065l-0.269,0.076l-0.149,0.058l-0.115,0.004l-0.156,-0.007l-0.143,0.045l-0.156,0.103l-0.17,0.086l-0.227,0.017l-0.119,0.034l-0.116,0.007l-0.166,0.049l-0.166,-0.011l-0.092,0.014l-0.275,-0.024l-0.037,-0.017l-0.153,-0.028l-0.058,0.007l-0.051,-0.01l-0.064,0.01l-0.122,-0.045h-0.055l-0.054,0.028l-0.102,-0.014l-0.085,-0.038l-0.057,-0.003l-0.082,0.041l-0.146,-0.014l-0.074,-0.038l-0.143,-0.01l-0.102,-0.076l-0.068,-0.017l-0.098,-0.058l-0.014,0.027l0.014,0.048l0.003,0.117l0.014,0.038l0.027,0.028l0.024,0.203l-0.041,0.244l-0.081,0.2l-0.061,0.096l-0.085,0.045l-0.116,0.062l-0.068,-0.007l-0.115,-0.065l-0.163,-0.056l-0.01,-0.031l-0.031,-0.006l-0.023,0.013l-0.062,-0.02l0.002,0.039l-0.019,0.071l0.045,0.062l0.115,0.014l0.037,0.037l0.129,0.038l0.024,0.045l0.136,0.117l0.064,0.01l0.038,-0.02l-0.014,-0.042l0.017,-0.031l0.088,-0.024l0.106,0.042l0.033,0.007l0.106,-0.028l0.112,-0.093l0.023,-0.062l0.106,-0.069l0.176,-0.069l0.095,0.004l0.034,0.048l0.031,0.014l0.047,-0.024l0.017,-0.052l0.082,-0.086l0.074,-0.01l0.143,0.027l0.163,0.083l0.146,0.027l0.095,-0.027l0.02,-0.041l0.095,-0.004l0.034,0.035l0.051,-0.007l0.024,-0.083l0.03,-0.027h0.055l0.03,0.017l-0.003,0.041l0.044,0.048l0.003,0.031l-0.03,0.017l0.007,0.025h0.03l0.051,0.089l0.112,0.149l0.058,0.144l-0.014,0.096l-0.03,0.062l-0.055,0.034l-0.017,0.066l0.034,0.024l0.062,-0.007l0.01,-0.028l0.034,-0.127l-0.004,-0.065l0.021,-0.055l0.078,-0.007l0.037,-0.035l0.054,-0.007l0.109,0.073l0.007,0.044l0.061,0.055h0.041l0.047,-0.044l0.054,0.007l0.034,0.034l0.061,0.017l0.136,-0.01z"/>
</svg>
