<svg xmlns="http://www.w3.org/2000/svg" viewBox="761.106 312.379 8.643 4.801">
  <path d="M762.663474,314.551721l0.043,0.005l0.033,0.001l0.062,0.02l0.023,-0.013l0.031,0.006l0.01,0.031l0.163,0.056l0.115,0.065l0.068,0.007l0.116,-0.062l0.085,-0.045l0.061,-0.096l0.081,-0.2l0.041,-0.244l-0.024,-0.203l-0.027,-0.028l-0.014,-0.038l-0.003,-0.117l-0.014,-0.048l0.014,-0.027l0.098,0.058l0.068,0.017l0.102,0.076l0.143,0.01l0.074,0.038l0.146,0.014l0.082,-0.041l0.057,0.003l0.085,0.038l0.102,0.014l0.054,-0.028h0.055l0.122,0.045l0.064,-0.01l0.051,0.01l0.058,-0.007l0.153,0.028l0.037,0.017l0.275,0.024l0.092,-0.014l0.166,0.011l0.166,-0.049l0.116,-0.006l0.119,-0.035l0.227,-0.017l0.17,-0.086l0.156,-0.103l0.143,-0.045l0.156,0.007l0.115,-0.004l0.149,-0.058l0.269,-0.076l0.183,-0.065l0.241,-0.131l0.132,-0.038l0.061,-0.031l0.048,-0.079l0.047,-0.055l0.051,-0.028l0.017,-0.062l0.038,-0.01l0.074,0.021l0.112,-0.014l0.058,-0.038l0.102,-0.034l0.047,0.003l0.109,-0.058l0.095,-0.076l0.037,-0.065l0.095,-0.052h0.065l0.047,-0.007l0.085,-0.069l0.068,-0.014l0.055,0.011l0.132,-0.038l0.01,-0.052l0.027,-0.007l0.027,0.025l0.068,-0.028l0.048,-0.052l0.122,-0.031h0.051l-0.048,0.031l-0.023,0.08l-0.004,0.061l-0.051,0.066l-0.098,0.01l-0.129,0.059l-0.095,0.027l-0.139,0.076l-0.068,0.079l-0.031,0.09l-0.102,0.075l-0.095,0.038l-0.227,0.2l-0.183,0.072l-0.211,0.103l-0.186,0.11l-0.157,0.159l-0.064,0.075l-0.034,0.135l-0.044,0.027l-0.18,0.028l-0.061,-0.024l-0.102,0.017l-0.102,0.082l-0.051,0.097l-0.074,0.099l-0.021,0.145l-0.003,0.103l0.035,0.095l-0.003,0.022l0.012,0.031l0.036,0.021l0.052,0.096l0.054,0.042l0.021,0.022l0.012,0.041l0.095,0.126l0.047,0.043l0.01,0.015l0.013,0.011l0.091,0.055l0.087,0.106l0.01,0.048l0.093,0.109l-0.002,0.019h-0.025l-0.002,0.026l0.016,0.007l0.003,0.012l-0.002,0.02l0.019,0.016l0.012,-0.005l0.013,0.003l0.005,0.021l-0.01,0.02l-0.022,-0.005l-0.002,-0.02l-0.02,-0.007l-0.022,0.015l-0.025,-0.003l-0.012,-0.018l-0.051,-0.025l-0.078,-0.021l-0.026,-0.028l-0.03,-0.008l-0.024,0.008l-0.031,-0.001l-0.03,-0.018l-0.09,0.002l-0.061,0.035l-0.146,0.022l-0.026,0.031l-0.037,0.059l-0.058,0.034l-0.085,-0.01l-0.094,-0.083l-0.248,-0.063l-0.048,-0.001l-0.018,0.007l-0.029,-0.009l-0.123,-0.003l-0.088,0.038l-0.112,0.11l-0.03,0.127l-0.014,0.152l0.017,0.045l-0.007,0.037l-0.071,0.066l-0.041,0.062l-0.003,0.051l-0.027,0.021l-0.041,-0.027l-0.088,-0.004l-0.068,0.017l-0.051,0.052l-0.099,0.069l-0.044,0.044l-0.095,0.004l-0.153,0.052l-0.057,0.055l-0.156,0.075l-0.089,0.011l-0.061,0.043l-0.051,0.008l-0.081,-0.023l-0.061,0.021l-0.023,0.041l-0.031,0.018l-0.239,-0.005l-0.153,-0.023l-0.135,0.02l-0.198,0.08l-0.128,0.086l-0.09,0.089l-0.018,0.147l0.014,0.061l0.094,0.128l-0.023,0.021l-0.194,-0.045l-0.041,0.021l-0.095,-0.01l0.004,-0.059l-0.092,-0.22l-0.159,-0.128l-0.213,0.004l-0.214,0.053l-0.042,0.025l-0.076,-0.005l-0.038,0.026h-0.054l-0.071,-0.036l-0.084,-0.011l-0.155,-0.054l-0.102,-0.072l-0.168,-0.067l-0.054,-0.003l-0.079,-0.036l-0.045,0.013l-0.064,-0.021l-0.099,-0.093l-0.069,-0.018l-0.071,-0.074l-0.049,0.007l-0.01,-0.018l0.02,-0.038l-0.048,-0.14l-0.008,-0.119l-0.025,-0.08l-0.076,-0.046l-0.031,0.008l-0.038,-0.011l-0.023,-0.059l-0.077,-0.103l-0.005,-0.039l0.028,-0.023l0.008,-0.054l-0.048,-0.091l-0.044,-0.023l0.004,-0.027l0.029,-0.005l0.008,-0.029l-0.002,-0.089l-0.018,-0.08l-0.13,-0.167l-0.005,-0.166l0.035,-0.082l0.044,0.002l0.048,0.083l0.181,0.139l0.084,0.034l0.13,0.008l0.147,-0.06l0.128,-0.103l0.084,-0.142l0.058,-0.121l0.059,-0.044l0.038,-0.101l0.02,-0.002l0.005,0.02l0.026,0.011l0.051,-0.008l0.043,-0.023l0.074,-0.016l0.025,-0.036l0.031,-0.013l0.046,0.011l0.035,-0.021l0.082,0.008l0.083,0.03z"/>
</svg>
