<svg xmlns="http://www.w3.org/2000/svg" viewBox="760.995 312.316 8.821 4.833">
  <path d="M762.662,314.509l0.063,0.021l0.024-0.014l0.031,0.007l0.011,0.031l0.166,0.055l0.118,0.066l0.069,0.007l0.118-0.062l0.086-0.045l0.063-0.097l0.083-0.201l0.041-0.246l-0.024-0.205l-0.028-0.027l-0.013-0.039l-0.004-0.117l-0.014-0.049l0.014-0.028l0.101,0.059l0.069,0.018l0.104,0.076l0.145,0.01l0.077,0.038l0.149,0.014l0.083-0.041l0.059,0.003l0.086,0.038l0.104,0.014l0.056-0.028h0.055l0.125,0.045l0.066-0.01l0.051,0.01l0.059-0.006l0.156,0.027l0.038,0.018l0.281,0.024l0.094-0.014l0.169,0.01l0.17-0.048l0.118-0.007l0.121-0.035l0.232-0.017l0.173-0.087l0.16-0.104l0.145-0.045l0.16,0.007l0.117-0.003l0.153-0.059l0.274-0.076l0.187-0.066l0.246-0.132l0.135-0.038l0.062-0.031l0.049-0.08l0.048-0.055l0.052-0.028l0.017-0.062l0.039-0.011l0.076,0.021l0.114-0.014l0.059-0.038l0.104-0.034l0.048,0.003l0.111-0.059l0.097-0.076l0.038-0.066l0.097-0.052h0.066l0.049-0.007l0.086-0.069l0.07-0.014l0.055,0.01l0.135-0.038l0.011-0.052l0.027-0.007l0.028,0.025l0.069-0.028l0.049-0.052l0.124-0.031h0.052l-0.048,0.031l-0.024,0.08l-0.004,0.062l-0.052,0.066l-0.1,0.01l-0.132,0.059l-0.097,0.028l-0.142,0.076l-0.069,0.08l-0.031,0.09l-0.104,0.076l-0.097,0.038l-0.232,0.201l-0.187,0.073l-0.215,0.104l-0.191,0.111l-0.159,0.159l-0.066,0.076l-0.035,0.135l-0.045,0.028l-0.183,0.028l-0.063-0.024l-0.104,0.017l-0.104,0.083l-0.052,0.097l-0.076,0.1l-0.021,0.146l-0.003,0.104l0.036,0.095l-0.003,0.023l0.012,0.031l0.036,0.021l0.054,0.097l0.056,0.041l0.02,0.023l0.012,0.041l0.097,0.127l0.049,0.043l0.052,0.049l0.064,0.032l0.088,0.108l0.011,0.048l0.095,0.11l-0.002,0.019h-0.026l-0.001,0.026l0.015,0.007l0.004,0.012l-0.002,0.02l0.019,0.016l0.012-0.005l0.014,0.003l0.005,0.021l-0.01,0.021l-0.023-0.005l-0.002-0.021l-0.02-0.007l-0.023,0.016l-0.026-0.004l-0.012-0.017l-0.052-0.026l-0.08-0.021l-0.026-0.028l-0.031-0.008l-0.024,0.008l-0.031-0.001l-0.031-0.018l-0.092,0.002l-0.062,0.035l-0.149,0.022l-0.026,0.031l-0.039,0.06l-0.058,0.034l-0.087-0.011l-0.097-0.083l-0.247-0.072l-0.228,0.003l-0.09,0.038l-0.114,0.111l-0.031,0.128l-0.014,0.153l0.017,0.045l-0.007,0.038l-0.073,0.066l-0.041,0.062l-0.004,0.052l-0.027,0.021l-0.042-0.028l-0.09-0.004l-0.069,0.018l-0.052,0.052l-0.101,0.069l-0.045,0.045l-0.097,0.004l-0.156,0.052l-0.058,0.055l-0.16,0.076l-0.09,0.011l-0.062,0.044l-0.052,0.008l-0.083-0.024l-0.063,0.021l-0.023,0.042l-0.031,0.018l-0.245-0.005l-0.155-0.024l-0.138,0.021l-0.203,0.08l-0.13,0.086l-0.092,0.091l-0.019,0.147l0.014,0.061l0.097,0.13l-0.024,0.021l-0.197-0.045l-0.042,0.02l-0.097-0.01l0.003-0.059l-0.094-0.221l-0.162-0.129l-0.217,0.004l-0.218,0.053l-0.043,0.026l-0.078-0.006l-0.039,0.026h-0.055l-0.072-0.036l-0.086-0.01l-0.159-0.055l-0.103-0.073l-0.172-0.067l-0.055-0.003l-0.08-0.036l-0.047,0.013l-0.065-0.021l-0.101-0.094l-0.07-0.018l-0.073-0.075l-0.049,0.008l-0.011-0.019l0.021-0.039l-0.049-0.14l-0.008-0.119l-0.026-0.081l-0.078-0.047l-0.031,0.008l-0.039-0.01l-0.024-0.06l-0.078-0.104l-0.005-0.039l0.029-0.023l0.008-0.055l-0.05-0.091l-0.044-0.023l0.003-0.027l0.03-0.005l0.009-0.03l-0.003-0.089l-0.018-0.08l-0.133-0.169l-0.005-0.167l0.036-0.083l0.045,0.003l0.049,0.083l0.185,0.14l0.085,0.034l0.133,0.008l0.15-0.06l0.13-0.104l0.086-0.143l0.06-0.122l0.06-0.044l0.039-0.101l0.02-0.003l0.006,0.021l0.026,0.01l0.052-0.008l0.044-0.023l0.075-0.016l0.026-0.036l0.031-0.013l0.047,0.01l0.036-0.02l0.084,0.007l0.085,0.031l0.077,0.006L762.662,314.509z"/>
</svg>
