<svg xmlns="http://www.w3.org/2000/svg" viewBox="686.278 242.885 25.066 12.110">
  <path d="M692.754,254l-0.083-0.005l-0.037-0.026v-0.034l0.021-0.037l-0.005-0.041l-0.078-0.107l0.005-0.026l-0.039-0.013l-0.023,0.013l-0.042-0.024l-0.055-0.148l-0.042-0.063v-0.031l-0.028-0.005l-0.034,0.031l-0.07-0.005l-0.045,0.013l-0.052-0.005l-0.021-0.019l-0.002-0.031l-0.055-0.044l-0.055-0.094l-0.008-0.036l-0.047-0.055l0.014-0.026l-0.011-0.026l-0.044,0.002l-0.016,0.026h-0.026l-0.044-0.049v-0.047l-0.052-0.034l-0.123,0.003l-0.042-0.016l-0.07,0.008l-0.013,0.026l-0.005,0.083l-0.024,0.021l-0.041-0.002l-0.063-0.063l-0.083-0.042l-0.052-0.013l-0.12-0.081l-0.005-0.052l0.02-0.021v-0.026l-0.031-0.026l-0.005-0.036l0.016-0.031l-0.029-0.079l0.002-0.041l-0.036-0.032l-0.036-0.01l-0.04-0.047l-0.08-0.062l-0.008-0.04l-0.196-0.138l-0.065-0.007l-0.101,0.023h-0.06l-0.105-0.044l-0.104-0.063l-0.005-0.055l0.018-0.049l-0.015-0.055l-0.113-0.065l-0.054-0.065l-0.052-0.018l-0.013-0.021l0.013-0.047l-0.012-0.018l-0.054-0.013l-0.026-0.03l0.009-0.042l-0.024-0.031l-0.035-0.003l-0.047-0.025l-0.012-0.041l-0.024-0.02l-0.063-0.015l-0.026-0.056l0.014-0.054l-0.012-0.067l-0.073-0.02l-0.12-0.123l-0.117-0.045l-0.085-0.007l-0.066-0.031l-0.057-0.002l-0.024,0.014l0.014,0.054l-0.007,0.022l-0.035-0.001l-0.082-0.035l-0.022-0.023h-0.019l-0.02,0.018h-0.088l-0.11-0.03l-0.015-0.022l0.015-0.032l-0.015-0.028l-0.037-0.008l-0.031-0.044l-0.009-0.099l-0.095-0.071l-0.04-0.007l-0.028-0.019l-0.007-0.031l-0.026-0.018h-0.097l-0.082-0.059v-0.08l-0.026-0.066l-0.033-0.036l0.005-0.087l-0.022-0.033v-0.038l0.022-0.028l0.004-0.063l-0.03-0.019l-0.042,0.021l-0.114-0.052l-0.004-0.028l-0.064-0.073l-0.011-0.062l0.016-0.042l-0.003-0.035l-0.035-0.034l-0.023-0.106l-0.026-0.028l-0.061,0.01l-0.029-0.022l-0.007-0.068l-0.024-0.025l-0.002-0.026l0.019-0.027l0.009-0.115l-0.032-0.04h-0.092l-0.034-0.014l-0.013-0.028l-0.137-0.041l-0.054-0.08l-0.005-0.039l-0.021-0.029l-0.043-0.005l-0.033-0.085l0.007-0.049l0.241-0.115l0.016-0.036l-0.024-0.077l0.022-0.031l0.014-0.054l-0.005-0.035l0.031-0.033l0.038,0.006l0.019-0.018l-0.008-0.048l0.017-0.026l0.031-0.002l0.026-0.026l0.007-0.063l0.026-0.04l0.053-0.033l0.036-0.054l-0.009-0.083l-0.034-0.026l-0.106-0.019l-0.127-0.04l-0.012-0.052l0.036-0.049l0.035-0.01l0.017-0.018l0.009-0.057l-0.03-0.021l-0.043-0.003l-0.016-0.014l-0.014-0.037l-0.043-0.012l-0.085,0.035l-0.019-0.016l0.017-0.036l-0.021-0.026l-0.085-0.006l-0.024-0.019l0.012-0.022l-0.019-0.019l-0.066,0.001l-0.144-0.102l-0.039,0.012l-0.029-0.014l-0.026-0.064l-0.07-0.038l-0.114-0.004l-0.016-0.029l0.028-0.042l-0.004-0.035l-0.151-0.101l-0.052-0.008l-0.036-0.023l-0.03-0.076l-0.003-0.079l0.036-0.076l0.028-0.031l-0.004-0.049l-0.036-0.088l-0.104-0.11l-0.042-0.002l-0.016-0.019l0.014-0.019l-0.014-0.035l-0.048-0.029l-0.092-0.007l-0.037-0.03l-0.002-0.021l-0.019-0.017l-0.04-0.002l-0.005-0.026l0.021-0.015l0.005-0.028l0.04-0.028h0.037l0.062-0.04l-0.005-0.04l-0.047-0.031l-0.01-0.045l0.015-0.025l-0.005-0.019l-0.066-0.024l-0.016-0.024l0.016-0.018l0.03,0.004l0.013,0.022l0.033,0.002l0.018-0.016l0.135-0.015l0.054,0.015l0.018,0.033l0.033,0.016l0.012,0.024l-0.004,0.117l0.023,0.036l0.102,0.018l0.058-0.004l0.043,0.007l0.028,0.038l0.009,0.039l-0.019,0.015l-0.06-0.014l-0.015,0.03l0.076,0.068l0.058,0.007l0.043,0.062l-0.023,0.07l-0.033,0.033l0.002,0.034l0.038,0.023l0.032,0.052l0.069,0.016l0.075,0.003l0.01-0.015l-0.04-0.016l0.002-0.024l0.031-0.03l0.009-0.035l-0.043-0.041l0.003-0.046l0.021-0.015l0.007-0.023l-0.014-0.059l0.016-0.035l0.059,0.016l0.022-0.019l-0.021-0.056l0.007-0.048l0.049-0.092l0.057-0.035l0.058-0.011l0.021-0.047l-0.018-0.031l0.005-0.055l0.025-0.028l0.092,0.007l0.024-0.019l-0.007-0.033l0.016-0.032l0.09-0.062l0.031-0.002l0.026,0.019h0.032l0.015-0.029l-0.017-0.04l0.005-0.047l0.049-0.075l0.068-0.052l0.292-0.043l0.053-0.039l0.059-0.003l0.051,0.021h0.049l0.031-0.019l0.043,0.003l0.099,0.07l0.018-0.009l0.007-0.038l0.069-0.051l0.024-0.061l0.191-0.074l0.047,0.005l0.035,0.059l0.018-0.002l-0.009-0.043l0.029-0.063l0.023-0.014l0.241,0.132l0.025,0.037l0.031,0.014l0.033-0.004l0.066,0.039l0.031,0.038h0.018l0.005-0.023l0.127-0.05l0.066-0.063l0.085-0.057l0.019-0.044l-0.017-0.045l0.014-0.114l0.033-0.065l0.003-0.036l0.035-0.014l0.05,0.042l0.085,0.012l0.084-0.014l0.095-0.068h0.033l0.006,0.04l0.026,0.011l0.045-0.007l0.111,0.026l0.033-0.018l0.007-0.05l0.104-0.17l-0.007-0.046l0.009-0.031l0.026-0.015l0.012-0.028l-0.003-0.03l0.066-0.052l0.085,0.002l0.057,0.066l0.08-0.004l0.037-0.02l-0.013-0.086l0.037-0.04l0.128-0.05l0.044-0.061l-0.023-0.083l0.018-0.012l0.047,0.019l0.073,0.069l0.024,0.072l0.059,0.039l0.052,0.004l0.064,0.033l0.03-0.005l0.026-0.047l0.064-0.051l0.011-0.031l0.102-0.055l0.002-0.032l-0.031-0.007l-0.009-0.027l0.049-0.063l0.038-0.009l0.021-0.019l-0.011-0.085l-0.062-0.047l0.012-0.026l0.042-0.005l0.041-0.037l0.047-0.007l0.141,0.02l0.087-0.025l0.01-0.031l0.058-0.031l0.09-0.009l0.102,0.059h0.054l0.009-0.035l0.042-0.033l0.029-0.001l0.037,0.019l0.031-0.002l0.036-0.028l0.179,0.009l0.07,0.033l0.106-0.009l0.024-0.062l0.024-0.009l0.051,0.019l0.062-0.029l0.009-0.049l-0.042-0.038l-0.005-0.04l0.038-0.065l-0.001-0.031l0.024-0.021l0.052,0.019l0.08-0.005l0.05-0.04l0.011-0.045l0.106-0.049l0.036-0.003l0.032,0.028l0.04,0.003l0.052,0.038h0.027l0.02-0.027l0.055-0.007l0.028,0.005l0.047-0.005l0.007-0.04l0.047-0.039l0.123-0.024l0.054-0.019l0.059-0.045l0.063-0.019l0.097-0.011l0.132-0.095l0.005-0.059l0.024-0.03l0.108-0.026l0.044,0.005l0.034,0.033l0.073,0.006l0.127-0.04l0.011-0.03l0.017-0.01l0.056,0.024h0.04l0.031-0.024l-0.002-0.058l0.011-0.034l0.039-0.028v-0.037l-0.027-0.038l-0.042-0.007l-0.03,0.011l-0.165-0.042l-0.045-0.03l-0.009-0.041l-0.02-0.006l-0.006-0.024l0.025-0.017l0.041-0.004l0.018-0.019l-0.009-0.042l-0.075-0.003l-0.041,0.033l-0.058,0.002l-0.08-0.04l-0.003-0.03l0.026-0.021l0.007-0.024l-0.017-0.021l0.014-0.052l0.043-0.01l0.03-0.047l-0.033-0.039l0.006-0.022l0.044-0.009l0.043-0.062l0.051-0.002l0.073,0.068l0.029,0.007l0.064-0.023l0.065,0.028l0.021,0.055l0.071,0.035l0.075,0.002l0.09-0.068h0.073l0.031,0.04l0.042,0.011l0.022-0.016l-0.006-0.05l0.008-0.035l0.028-0.011l0.024,0.021l-0.027,0.066l0.001,0.037l0.104,0.021l0.023,0.026l-0.009,0.027l0.023,0.013l0.059-0.018h0.054l0.102,0.104l0.009,0.047l-0.016,0.054l-0.057,0.113l-0.069,0.064l-0.007,0.042l0.031,0.026l0.063,0.005l0.222-0.074l0.021,0.015l0.003,0.087l-0.017,0.035l-0.024,0.024l-0.056,0.139l-0.028,0.023l0.002,0.036l0.104,0.044l0.04-0.005l0.05,0.012l0.046,0.041l0.04,0.006l0.045-0.004l0.047,0.026v0.045l0.026,0.011l0.041-0.03l0.035-0.003l0.082,0.042l0.083-0.004l0.04-0.014l0.007-0.068l0.026-0.064l0.047-0.043l0.008-0.048l0.025-0.018l0.089,0.005l0.04-0.012l0.012-0.03h0.029l0.065,0.04l0.021-0.003l0.013-0.025l0.03-0.003l0.182,0.06l0.035-0.001l0.04-0.023l0.07-0.007l0.014-0.024l-0.014-0.095l0.012-0.053v-0.042l-0.032-0.034l0.006-0.028l0.074-0.077l0.007-0.061l-0.014-0.034l0.007-0.023l0.02-0.008l0.008-0.023l-0.045-0.071l-0.031-0.001l-0.042,0.032l-0.076-0.062l0.057-0.096l0.049-0.002l0.064-0.033l0.021-0.033l0.043,0.011l0.012,0.034l0.032,0.011l0.045-0.006l0.007-0.043l0.028-0.001l0.055,0.034l0.078,0.012l0.007,0.023l-0.017,0.022l0.028,0.055h0.05l0.042,0.014l0.034-0.002l0.004-0.013l-0.03-0.006l0.035-0.082l0.096-0.045l0.021,0.005l0.012,0.117l-0.014,0.033l0.005,0.017l0.063,0.024l0.029-0.019l-0.009-0.02l0.023-0.021l0.031,0.002l0.087-0.037l0.023,0.007l-0.009,0.025l0.012,0.044l0.021,0.023l0.082-0.004l0.022,0.031l-0.007,0.044l0.014,0.022l0.03,0.005l0.024,0.031l-0.012,0.035l-0.071,0.052l-0.012,0.084l0.029,0.05l0.009,0.043l-0.002,0.045l0.127,0.154l0.087,0.014l0.061,0.022l0.071,0.086l0.011,0.081l-0.001,0.191l0.043,0.029l0.048-0.009l0.096-0.134l0.048-0.021l0.06,0.012l0.104,0.075l0.045,0.012l0.04-0.011l0.041,0.012l0.023,0.043l0.028,0.011l0.033-0.018l0.053,0.003l0.025,0.019l0.045,0.003l0.067-0.011l0.095,0.023l0.04,0.043l0.187,0.045l0.027,0.021l0.012,0.036l0.044,0.023l0.142,0.014l0.07-0.026l0.085-0.003l0.033-0.025l0.019-0.027l0.061-0.008l0.035,0.011l0.043,0.052l0.008,0.091l0.061,0.075l0.05,0.124l-0.002,0.036l0.059,0.027l0.029-0.007l0.02-0.026l0.097-0.033l0.024,0.011l0.022-0.001l0.033-0.028l0.081-0.019l0.053,0.008l0.057,0.029l0.013,0.05l0.025,0.035l0.02,0.086l-0.009,0.026l0.016,0.049l0.042,0.01l-0.004,0.018l-0.071,0.027l-0.032,0.035l0.007,0.023l0.054,0.032l0.02-0.01l0.02,0.008l0.003,0.02l0.013,0.008h0.018l0.042-0.059l0.028-0.006l0.027,0.01l0.02-0.008l0.021-0.106l0.025-0.035l0.082-0.051l0.026-0.048l0.032-0.007l0.058,0.011l0.04,0.038l0.031,0.009l0.026-0.008l0.084,0.043l0.025,0.038v0.03l0.021,0.011l0.108-0.018l0.021-0.041l0.002-0.059l0.042-0.084l0.035-0.012l0.051,0.016h0.086l0.029,0.033l0.066,0.006l0.053-0.029l0.061,0.005l0.033,0.028l0.011,0.045l0.022,0.014l0.045,0.006l0.03,0.041l0.018,0.003l0.014,0.015l0.004,0.03l0.042,0.045l0.037,0.009l0.082,0.063l0.058,0.08l-0.003,0.049l-0.069,0.045h-0.049l-0.015,0.016l0.018,0.072l-0.014,0.02l-0.059,0.018l-0.003,0.017l0.037,0.036l-0.001,0.025l-0.054,0.041l-0.04,0.017l-0.058,0.074l-0.061,0.015l-0.071-0.044l-0.033,0.003l-0.015,0.027l0.007,0.024l-0.012,0.015l-0.02,0.001l-0.018,0.017l-0.004,0.03l-0.018,0.018l-0.032-0.002l-0.024-0.017l-0.018,0.006v0.024l-0.016,0.001l-0.03-0.016l-0.031,0.023l0.002,0.041l-0.048,0.025l-0.053,0.006l-0.009,0.022l0.047,0.034l-0.015,0.029l-0.023-0.004l-0.015-0.033l-0.029,0.007l-0.004,0.026l-0.033,0.005l-0.02,0.017l0.007,0.044l0.043,0.034l0.013,0.044l-0.01,0.019l0.021,0.02l0.07-0.028l0.057,0.034l-0.011,0.05l0.015,0.014l0.032-0.002l0.018,0.015l-0.004,0.035l0.015,0.02l0.022,0.006l0.013,0.014l-0.004,0.026l0.015,0.009l0.032-0.006l0.052-0.06l0.074-0.004l0.04,0.018l0.036,0.003l0.016-0.014l0.042,0.003l0.03,0.051l-0.001,0.026l-0.017,0.048l0.009,0.033l0.04,0.034l0.047,0.086l0.029,0.022h0.028l0.033-0.024l0.059,0.002l0.071,0.092l0.06,0.043v0.033l0.011,0.024l0.025,0.014l0.054,0.083l0.029,0.022l0.038,0.017l0.029,0.061l0.049,0.034l0.042,0.007l0.059,0.077l0.014,0.062l-0.02,0.04l0.012,0.07l0.016,0.021l0.003,0.023l-0.014,0.03l0.013,0.035l0.063,0.037l0.011,0.029l-0.002,0.022l0.015,0.019l0.041,0.01l0.063,0.046l0.059,0.079l0.039,0.019h0.051l0.101,0.03l0.038,0.028l0.049,0.007l0.066-0.038l0.042-0.097l0.028-0.044l0.057-0.011l0.083-0.044l0.069-0.11l0.015-0.076l0.05-0.048l0.029,0.003l0.038-0.025l0.014-0.033l0.037-0.015l0.057,0.033l0.052,0.005l0.029-0.024l0.016-0.057l0.049-0.041l0.084-0.008l0.037,0.014l0.073-0.002l0.032-0.036l-0.008-0.026l0.012-0.027l0.028-0.011l0.026,0.008l0.058,0.11l0.03,0.011l0.044-0.011l0.037-0.037l-0.005-0.033l-0.047-0.044l-0.006-0.04l-0.019-0.014v-0.024l0.052-0.046l0.006-0.066l-0.042-0.073l-0.033-0.034l-0.037-0.004l-0.053-0.021l-0.015-0.027l-0.022-0.009l-0.02,0.009l-0.026-0.003l-0.042-0.028l-0.023-0.055l0.014-0.023l-0.009-0.041l-0.034-0.014l-0.042-0.08l0.011-0.044l-0.018-0.08l-0.029-0.013l-0.016,0.008l-0.025-0.011l-0.013-0.025l-0.058-0.025l-0.045-0.031l0.001-0.03l0.043-0.077l0.026-0.064l0.089-0.018l0.038,0.007l0.028,0.028l0.151,0.07l0.025,0.03l0.028,0.003l0.052-0.036l0.045,0.004l0.036,0.024l0.087,0.027l0.051,0.036l0.1,0.025l0.044-0.018l0.055-0.002l0.018,0.017l-0.002,0.033l0.016,0.012l0.04,0.006l0.065,0.059l0.056,0.003l0.093-0.044l0.063,0.007l0.009,0.023l-0.014,0.03l0.009,0.055l0.043,0.037l0.05,0.073l0.094,0.068l0.058,0.017l0.05,0.031l0.064,0.008l0.064-0.014l0.043-0.03l0.062-0.007l0.018,0.012l-0.015,0.045l0.005,0.023l0.02,0.009l0.002,0.021l-0.024,0.029l-0.003,0.062l-0.021,0.012l0.001,0.021l0.024,0.016l0.01,0.051l0.023,0.022l0.021-0.002l0.008-0.065l0.025-0.03l0.068-0.002l0.04,0.013l0.015,0.024l0.025,0.003l0.024-0.011l0.033,0.01l0.017,0.047l-0.003,0.041l0.029,0.023l0.026,0.002l0.039-0.027l0.007-0.056l0.015-0.005l0.018,0.008l0.09-0.029l0.058-0.006l0.195,0.022l0.038-0.004l0.043-0.031l0.043-0.004l0.02,0.013l0.003,0.024l0.029,0.016l0.053,0.002l0.112-0.047l0.06-0.061l0.044-0.022l0.036-0.041l-0.003-0.109l0.015-0.011l0.086,0.024l0.028,0.023l0.012,0.047l0.027,0.02l0.065,0.01l0.005,0.021l-0.032,0.037l-0.026,0.055l-0.033,0.034v0.068l0.13,0.097l-0.001,0.029l-0.013,0.043l-0.004,0.077l-0.037,0.02h-0.035l-0.037-0.012l-0.042,0.003l-0.032,0.084l-0.037,0.018l-0.241,0.049l-0.019,0.019h-0.064l-0.054,0.035l0.001,0.029l0.036,0.042l0.006,0.037l0.124,0.066l0.053,0.08l0.057,0.029l0.028-0.006l0.019-0.045l0.029-0.007l0.062,0.014l0.09,0.078l0.004,0.043l0.063,0.054l0.08,0.151l0.007,0.1l0.029,0.036l0.046,0.007l0.038,0.026l0.078,0.007l0.04,0.027v0.024l-0.029,0.026l0.014,0.025l0.055,0.015l0.056,0.031l0.012,0.031l0.028,0.006l0.044-0.023l0.105,0.001l0.053-0.015l0.098-0.118l0.061-0.016l0.032,0.011l0.029-0.006l0.044-0.054l0.024,0.006l0.007,0.019l0.019,0.011l0.063,0.003l0.041,0.018l0.021-0.006l-0.004-0.073l0.012-0.027l-0.011-0.032l-0.044-0.016l-0.036,0.001l-0.029,0.032l-0.022-0.002l-0.021-0.039l0.005-0.071l0.089-0.05h0.04l0.076,0.03l0.016,0.037l0.031,0.019l0.035,0.002l0.025,0.022l-0.011,0.037l0.012,0.024l0.042,0.027l0.001,0.023l-0.025,0.021l0.006,0.034l0.039,0.045l0.048,0.02l0.051-0.006l0.053,0.026l0.015,0.037l0.035,0.006l0.038-0.032l-0.009-0.033l0.016-0.02l0.036-0.005l0.024,0.021l0.062,0.003l0.031,0.064l0.001,0.05l0.029,0.021l0.054-0.011l0.104,0.013l0.037,0.024l0.023,0.051l-0.002,0.064l0.031,0.044l0.025,0.006l0.019,0.013l0.017,0.021l0.049,0.023l0.027-0.008l0.007-0.044l0.02-0.009l0.031,0.013l0.034-0.033l-0.019-0.024l-0.054-0.024l0.012-0.015l0.071,0.007l0.046,0.034l0.052,0.014l0.099-0.003l0.054-0.024l0.038,0.017l0.01,0.04l0.038,0.026l0.065,0.005l0.013,0.011l0.005,0.022l0.072,0.048l0.139,0.031h0.038l0.029-0.044l-0.01-0.063l0.021-0.01l0.032,0.025l0.023,0.002l0.035-0.014l0.017,0.009l0.007,0.083l-0.03,0.1l0.011,0.048l0.037,0.021l0.069,0.006l0.025,0.015l0.001,0.02l-0.066,0.029l-0.014,0.05l-0.032,0.03l-0.006,0.066l0.032,0.03l0.104,0.253l-0.003,0.061l0.022,0.018l0.029-0.002l0.019,0.017v0.095l-0.012,0.019l0.042,0.04l0.101,0.022l0.007,0.02l0.029,0.009l0.064-0.014l0.061,0.015l0.026,0.078l0.084,0.044h0.053l0.042-0.028l0.065-0.003l0.081,0.026l0.024,0.036l-0.01,0.114l0.062,0.179l0.006,0.057l0.039,0.024l0.004,0.024l-0.017,0.028l0.002,0.062l0.034,0.049l0.054,0.053l-0.003,0.045l-0.045,0.044l-0.003,0.026l-0.019,0.017l0.009,0.024l-0.042,0.008l-0.064,0.004l-0.119,0.042l-0.066,0.074h-0.08l-0.066-0.046l-0.049-0.012l-0.042,0.01l-0.031-0.005l-0.014-0.015l-0.039-0.006l-0.099,0.036l-0.103,0.021l-0.045-0.015l-0.014-0.047l-0.042-0.008l-0.16,0.036l-0.049,0.055l-0.004,0.037l0.051,0.05l-0.014,0.032l-0.195,0.146l-0.011,0.044l-0.075,0.088l-0.047,0.024l-0.026,0.029l-0.049,0.005l-0.078-0.026l-0.023,0.022l0.025,0.129l-0.047,0.051l-0.006,0.038l-0.073,0.082l-0.05,0.033l-0.225,0.07l-0.025,0.019l-0.179,0.049h-0.098l-0.125,0.036l-0.018,0.07l-0.089,0.057l-0.05,0.087l-0.002,0.051l0.035,0.03l-0.016,0.07l-0.073,0.09l-0.01,0.089l0.022,0.03l-0.003,0.032l-0.061,0.038l-0.032,0.087l0.018,0.06l-0.007,0.062l0.003,0.08l-0.069,0.099l-0.007,0.052l-0.046,0.068l-0.083,0.057l-0.102,0.03l-0.022,0.019l-0.052-0.001l-0.051-0.026l-0.037,0.002l-0.026,0.022h-0.043l-0.035-0.012l-0.131,0.015l-0.036,0.07l-0.008,0.066l-0.034,0.046l-0.011,0.063l0.005,0.05l-0.041,0.075l-0.006,0.062l-0.04,0.03l-0.043,0.004l-0.044-0.015l-0.244,0.008l-0.023,0.039l-0.081,0.052l-0.037,0.032l-0.04,0.071l-0.108,0.089l-0.079,0.013l-0.104,0.029l-0.089,0.004l-0.042,0.031l-0.01,0.024l-0.021,0.011l-0.033-0.001l-0.028,0.015l-0.013,0.04l-0.034,0.013l-0.072,0.002l-0.04-0.026l-0.021,0.016l0.018,0.025l-0.03,0.026l-0.03-0.01l-0.054,0.026l-0.021-0.006l-0.01-0.019l0.015-0.035l-0.009-0.006l-0.021,0.028l-0.018,0.002l-0.114-0.096l-0.079-0.022l-0.053,0.022l-0.038,0.053l-0.018,0.013l-0.027-0.002l-0.068,0.056l-0.032,0.003l-0.03-0.017h-0.034l-0.031,0.018l-0.022-0.003l-0.022-0.03l-0.104-0.07l-0.005-0.029l-0.02-0.011l-0.041,0.004l-0.08-0.038l-0.013-0.026l-0.033-0.012l-0.056-0.004l-0.071-0.036l-0.077-0.015l-0.032-0.019l-0.043-0.004l-0.05,0.027l-0.061,0.083l-0.045,0.04l-0.16,0.06l-0.023,0.045l-0.013,0.087l-0.037,0.041l-0.013,0.034l-0.066,0.04l-0.032,0.037l-0.045,0.02l-0.025,0.029l-0.001,0.028l-0.015,0.02l-0.037,0.027l-0.02,0.042l-0.038,0.041l-0.011,0.041l-0.032,0.027l-0.015,0.037l0.005,0.048l-0.022,0.03l-0.042,0.016l-0.041,0.086l-0.011,0.051l0.002,0.081l-0.026,0.056l0.001,0.022l-0.013,0.023l-0.077,0.043l-0.08-0.008l-0.005-0.036l0.026-0.046l-0.002-0.033l-0.024-0.01l-0.002-0.021l0.015-0.028v-0.064l-0.036-0.01l-0.013-0.036l0.021-0.036l-0.016-0.089l-0.067-0.059l-0.065-0.005l-0.047,0.041l-0.052,0.002l-0.033-0.012l-0.031-0.003l-0.037,0.013l-0.039,0.002l-0.023,0.021h-0.031l-0.021-0.021l-0.052-0.005l-0.083-0.03l-0.026-0.044l-0.075-0.03l-0.103-0.006l-0.052,0.034l-0.034-0.003l-0.018-0.041l0.028-0.048l-0.02-0.103l-0.055-0.053l-0.085-0.013l-0.045,0.02l-0.101-0.015l-0.057-0.041l-0.07-0.013l-0.064-0.069l-0.042-0.005l-0.049,0.038h-0.166l-0.031-0.023h-0.031l-0.034,0.031l-0.011,0.049l-0.041,0.053l0.005,0.036l-0.018,0.028l-0.044,0.016l-0.036,0.038l-0.013,0.051l-0.07,0.026l-0.039,0.028l-0.088-0.005l0.002-0.031l-0.036-0.013l-0.052,0.041h-0.067l-0.055-0.028l-0.103-0.01l-0.039,0.018l-0.389-0.051l-0.055,0.015l-0.15-0.003l-0.125-0.035l-0.041-0.036l-0.236-0.1l-0.137-0.092l-0.013-0.038l0.023-0.049l-0.034-0.018l-0.049,0.023l-0.041-0.023l0.015-0.041l-0.054-0.025l-0.06,0.007l-0.047-0.035l-0.013-0.057l-0.031-0.005l-0.02,0.021l-0.081-0.031l-0.005-0.018l0.021-0.013l0.002-0.028l-0.041-0.015l-0.044,0.023l-0.135-0.018l-0.052,0.01l-0.015,0.041l-0.055,0.041l-0.049,0.005l-0.122-0.028l-0.065,0.01l-0.041-0.01l-0.096-0.095l-0.081-0.028l-0.028-0.036l-0.047-0.02l-0.041,0.013l-0.091-0.003l-0.052-0.03l-0.168-0.052l-0.045-0.03l-0.025-0.082l-0.115-0.054h-0.067l-0.109-0.02l-0.119-0.087l-0.099-0.051l-0.122-0.011l-0.036,0.031l-0.067-0.01l-0.037-0.023l-0.005-0.038l-0.041-0.016l-0.024,0.033l0.019,0.039l-0.037,0.1l-0.044,0.025l-0.057-0.023l-0.124,0.013l-0.055,0.064h-0.023l-0.018-0.021h-0.029l-0.015,0.018l-0.037-0.005l-0.005-0.025l0.034-0.046l0.003-0.036l-0.029-0.021l-0.021-0.048l-0.005-0.051l-0.062-0.029l-0.088-0.002l-0.055,0.02l-0.101-0.025l-0.021-0.026l-0.002-0.036l-0.036-0.01l-0.042,0.013l-0.034-0.003l-0.036-0.028h-0.034l-0.041,0.028l-0.036-0.002l-0.016,0.02l0.034,0.031l-0.018,0.056l-0.057,0.054l-0.011,0.107l0.026,0.077l-0.008,0.049l0.029,0.058l0.01,0.077l-0.034,0.11l-0.031,0.031v0.084l0.034,0.033l-0.008,0.023l-0.036,0.011l-0.065,0.186l0.016,0.056l0.059,0.031l0.011,0.051l-0.06,0.041l-0.052-0.002l-0.098-0.031l-0.039,0.008l-0.081-0.026l-0.025-0.028l-0.045-0.01l-0.038,0.018l-0.034-0.003l-0.031-0.025l-0.109,0.007l-0.023,0.039l0.015,0.035l-0.026,0.087l0.016,0.044l-0.011,0.025l-0.039,0.011l-0.059,0.071l-0.161,0.079l-0.031,0.046v0.054l-0.044,0.102l0.015,0.031l0.008,0.069l-0.021,0.054l-0.005,0.038l0.018,0.031l-0.007,0.036l-0.037,0.028l-0.002,0.036l-0.031,0.012l-0.099,0.003l-0.036-0.018l-0.008-0.049l-0.028-0.043l-0.034-0.005l-0.036,0.018l-0.032-0.005l-0.015-0.069l-0.029-0.031h-0.044l-0.132,0.092l-0.039,0.005l-0.034-0.041l-0.093-0.02l-0.049,0.007l-0.031-0.018l-0.021-0.061l-0.099-0.059l-0.059,0.008l-0.016,0.023l0.031,0.043l-0.007,0.049l-0.07,0.136l-0.037,0.007l-0.046-0.018h-0.063l-0.018,0.023l0.013,0.041l-0.031,0.036l-0.041,0.003l-0.034-0.021l-0.031,0.005l-0.011,0.059l-0.057,0.033l-0.028-0.005l-0.01-0.033l-0.055-0.005l-0.124-0.046l-0.026-0.031l-0.057-0.01l-0.037,0.018l-0.046-0.01l-0.042-0.034l-0.129-0.028l-0.039,0.018l-0.055-0.002l-0.031-0.023h-0.096l-0.059,0.025l-0.052-0.008l-0.037-0.03l-0.064-0.005l-0.019-0.026l-0.039-0.003l-0.033-0.033l0.002-0.048l-0.023-0.023h-0.044l-0.052-0.041l-0.005-0.028l0.052-0.046l0.096-0.011l0.028-0.038l-0.015-0.054l-0.07-0.01l-0.05-0.038l-0.057-0.092l-0.033-0.016l-0.075-0.002l-0.06-0.018l-0.026-0.028l-0.026-0.018l-0.029-0.003l-0.095-0.102l-0.135-0.097l-0.084-0.019l-0.067,0.008L692.754,254z"/>
</svg>
