<svg xmlns="http://www.w3.org/2000/svg" viewBox="663.125 222.729 34.047 38.303">
  <path d="M666.030845,230.266262l0.003506,-0.059092l0.073632,-0.03476l0.296282,-0.039105l0.089411,0.002607l0.164796,0.057354l-0.014025,0.031284l-0.206872,0.010428l-0.056101,0.055616v0.041712l0.080645,0.062568l-0.017531,0.03476l-0.031557,-0.003476l-0.017531,-0.031284l-0.042076,-0.006952l-0.017531,0.045188h-0.042076l-0.063113,-0.055616l-0.136746,-0.041712l-0.021038,-0.045188l-0.042076,-0.024332Z M666.688276,229.966458l0.023668,-0.015642l0.052594,0.005214l0.039446,0.05214l-0.015778,0.023463h-0.065743l-0.031557,-0.033891l-0.00263,-0.031284Z M666.901284,229.976886l0.047335,0.007821l0.034186,0.059961l-0.018408,0.036498l-0.044705,-0.010428l-0.055224,-0.062568l0.005259,-0.02607l0.031557,-0.005214Z M666.885505,229.851751l0.662691,-0.088638l0.199859,0.007821l0.013149,0.02607l-0.039446,0.015642l-0.239305,0.010428l-0.599577,0.088638l-0.055224,-0.007821l-0.00263,-0.02607l0.060484,-0.02607Z M667.945284,229.62755l0.134116,-0.044319l0.523315,-0.007821l0.057854,0.018249l-0.005259,0.031284l-0.268232,0.065175l-0.18934,-0.013035l-0.18934,0.007821l-0.026297,0.028677h-0.042076l-0.049965,-0.020856l-0.00263,-0.031284l0.057854,-0.033891Z M668.789426,229.528484l0.105189,-0.007821l0.076262,0.023463l0.00263,0.031284l-0.065743,0.02607l-0.165673,-0.015642l-0.005259,-0.02607l0.052594,-0.031284Z M669.115512,229.491987l0.057854,-0.054747l0.152524,-0.023463l0.326086,-0.010428l0.081521,0.023463l-0.005259,0.023463l-0.068373,0.023463l-0.197229,-0.010428l-0.170932,0.028677l-0.034186,0.046926l-0.084151,0.046926l-0.055224,0.002607l-0.026297,-0.031284l0.023668,-0.065175Z M669.970172,229.288641l0.268232,-0.015642l0.18671,0.023463v0.02607l-0.199859,0.065175l-0.134116,-0.013035l-0.128856,0.010428l-0.044705,0.049533l-0.044705,-0.013035v-0.046926l0.0973,-0.086031Z M670.672308,229.218253l0.163043,0.015642l0.152524,0.028677l0.026297,0.031284l-0.026297,0.015642l-0.197229,-0.005214l-0.071003,-0.031284l-0.057854,-0.005214l-0.034186,0.028677h-0.036816l-0.031557,-0.02607v-0.031284l0.113078,-0.020856Z M671.166697,229.408563l0.034186,0.02607l0.00263,0.033891l-0.031557,0.007821l-0.031557,-0.031284l-0.00263,-0.031284l0.028927,-0.005214Z M671.645307,229.564982l0.063113,-0.007821l0.039446,0.02607l-0.005259,0.020856l-0.086781,0.041712l-0.055224,-0.015642l-0.00263,-0.020856l0.047335,-0.044319Z M672.936762,228.535133l0.038978,0.002606l0.036379,0.031267l-0.007796,0.031267l-0.036379,0.023451l-0.033781,-0.002606l-0.015591,-0.028662l0.01819,-0.057324Z M673.672138,227.836827l0.025985,0.031267l-0.010394,0.033873l-0.033781,0.015634l-0.025985,-0.031267l0.002599,-0.044296l0.041576,-0.005211Z M672.649627,228.432646l-0.003465,-0.048638l0.041576,-0.038216l0.045041,0.003474l0.013859,0.031267l-0.05197,0.059061l-0.045041,-0.006948Z M670.666536,227.196713l0.031182,0.010422l0.008662,0.034742l-0.005197,0.020845h-0.025985l-0.02945,-0.048638l0.020788,-0.017371Z M670.784335,227.194976l0.027717,0.013897l-0.001732,0.019108l-0.025985,0.010422l-0.02252,-0.01216l-0.005197,-0.022582l0.027717,-0.008685Z M676.65262,229.679869h0.025985l0.064963,0.052112l0.038978,0.132887l-0.023387,0.018239l-0.038978,-0.059929l-0.023387,-0.088591l-0.044175,-0.054718Z M676.803333,229.93522h0.020788l0.023387,0.080774l0.002599,0.036479h-0.023387l-0.033781,-0.072957l0.010394,-0.044296Z M676.493787,229.648439l0.011044,-0.00969l0.046448,0.020275l0.031182,0.04169l-0.012749,0.014168l-0.03175,-0.011074l-0.044175,-0.055369Z M676.961842,230.23834l0.043308,0.017371l0.031182,0.024319l-0.012126,0.008685l-0.038111,-0.010422l-0.039844,-0.034742l0.015591,-0.005211Z M677.278859,230.422471l0.013859,-0.010422l0.057167,0.010422l0.010394,0.015634l-0.015591,0.01216l-0.034647,-0.003474l-0.031182,-0.024319Z M677.507528,230.453738l0.020788,-0.010422l0.091814,0.006948l0.02945,0.01216v0.01216l-0.142051,-0.008685v-0.01216Z M672.830223,225.746684l0.038111,0.006946l0.019056,0.050359l0.086617,0.071197l0.017323,0.026048l-0.003465,0.027784l0.02945,0.029521l0.045041,0.001737l0.008662,0.020838l-0.10394,0.097244l-0.053702,-0.001737l-0.143784,-0.116346l-0.008662,-0.065987l0.02252,-0.088562l0.046773,-0.059041Z M672.828491,225.501836l0.019056,-0.086825l0.036379,-0.010419l0.076223,0.050359l0.015591,0.038203l-0.02945,0.093771l-0.046773,0.041676l-0.045041,-0.008683l-0.025985,-0.118083Z M672.809435,225.260462l0.039844,-0.053832l0.027717,-0.001737l0.001732,0.067724l-0.02252,0.046886l-0.036379,-0.001737l-0.010394,-0.057305Z M673.017315,225.258725l0.008662,-0.024311l0.107405,-0.006946l0.069293,0.027784l0.032914,0.059041l-0.020788,0.024311l-0.076223,-0.00521l-0.046773,-0.036467l-0.07449,-0.038203Z M673.169761,225.814408l0.013859,0.017365l-0.015591,0.012156l-0.017323,-0.001737l-0.010394,-0.019102l0.008662,-0.012156l0.020788,0.003473Z M673.741431,224.939208l0.031182,-0.03473l0.045041,-0.008683l0.02252,0.013892l-0.008662,0.03994l-0.050238,0.020838l-0.032914,-0.00521l-0.006929,-0.026048Z M674.056716,225.382017l0.003465,-0.020838l0.043308,-0.008683l0.060632,0.026048l0.001732,0.026048l-0.02945,0.006946l-0.064096,-0.017365l-0.015591,-0.012156Z M673.076215,224.975674l0.036379,-0.029521l0.171501,-0.046886l0.086617,-0.008683l0.114334,-0.03473l0.062364,-0.03994l0.019056,0.00521l0.003465,0.045149l-0.079687,0.059041l-0.122996,0.019102l-0.069293,-0.003473l-0.109137,0.038203l-0.031182,0.036467h-0.031182l-0.043308,-0.019102l-0.006929,-0.020838Z M673.642688,224.716935l0.060632,-0.026048l0.025985,-0.038203l0.025985,-0.010419l0.017323,0.019102l-0.013859,0.046886l-0.057167,0.029521l-0.050238,-0.003473l-0.008662,-0.017365Z M673.330868,225.463633l0.271977,-0.107663l0.08142,-0.008683l0.039844,0.022575l-0.020788,0.123292l-0.095278,0.156286l-0.124728,0.043413l-0.097011,-0.008683l-0.093546,-0.112873l-0.001732,-0.057305l0.039844,-0.050359Z M673.762219,225.814408l0.012126,-0.012156l0.019056,0.003473l0.008662,0.012156l-0.006929,0.012156l-0.02252,-0.001737l-0.010394,-0.013892Z M672.615413,224.426938l0.124728,-0.088562l0.192289,-0.008683l0.067561,-0.024311l0.116066,-0.001737l0.154178,0.07467l-0.003465,0.048622l0.041576,0.059041l-0.003465,0.024311l-0.036379,0.026048l-0.027717,0.102454l-0.071026,0.055568l-0.180163,0.00521l-0.228668,-0.041676l-0.166304,-0.083352l-0.010394,-0.083352l0.031182,-0.064251Z M672.249891,224.671786l0.067561,-0.032994l0.076223,-0.097244l0.043308,-0.003473v0.020838l-0.036379,0.041676l0.001732,0.123292l0.036379,0.118083l0.058899,0.03994l0.083152,0.130238l-0.003465,0.043413l-0.077955,0.013892l-0.064096,-0.027784l-0.213077,-0.236165l-0.006929,-0.092035l0.034647,-0.041676Z M672.559979,222.776387l0.05197,-0.046886l0.10394,0.00521l0.101342,0.0547l-0.012993,0.020838l-0.106539,-0.026048l-0.085751,0.015629l-0.015591,0.031257l0.072758,0.015629l0.064963,0.052095v0.046886l-0.163706,0.070329l-0.067561,0.057305l-0.083152,0.145867l0.024253,0.271763l0.086617,0.102454l0.187092,0.072933l0.083152,-0.008683l0.102208,0.012156l-0.003465,0.022575l-0.216542,0.11461l-0.077955,0.003473l-0.065829,-0.036467l-0.076223,-0.095508l-0.109137,-0.022575l-0.077955,0.024311l-0.055435,0.145867l-0.017323,0.319517l0.02252,0.083352l-0.012126,0.133711l-0.034647,0.008683l-0.031182,-0.055568l-0.008662,-0.159759l0.031182,-0.493168l0.046773,-0.222273l0.343002,-0.664214Z M683.741336,228.379229l0.15591,0.007814l0.077955,-0.041676l0.10394,-0.221405l-0.046773,-0.046886l-0.101342,-0.007814l-0.254653,0.122424l-0.031182,0.096376l0.028584,0.065119l0.067561,0.026048Z M683.012889,226.060992l-0.005197,0.015629h-0.032914v0.017365l0.02252,0.006946l0.13339,-0.013892l0.187092,0.041676l0.077955,-0.001737l0.017323,-0.020838l-0.142051,-0.265686l-0.180163,-0.222273l-0.20788,-0.093771l-0.332608,-0.06946l-0.110869,0.031257l-0.124728,0.170178l-0.048505,0.243111l0.041576,0.055568l0.038111,-0.006946l0.003465,-0.03473l0.100475,-0.03473l0.114334,0.020838l0.048505,0.062514l-0.017323,0.06946l0.027717,0.062514l0.098743,0.036467l0.178431,0.012156l0.006929,-0.024311l-0.020788,-0.024311l0.013859,-0.03473l0.064096,-0.015629l0.048505,0.017365Z M684.136308,227.94163l0.015591,0.057305l0.020788,-0.010419l0.007796,-0.062514l-0.012993,-0.028652l-0.020788,0.00521l-0.010394,0.039071Z M693.06996,226.946611l0.015591,-0.026048l0.020788,-0.002605l0.01126,0.011287l-0.013859,0.017365l-0.02252,0.008683l-0.01126,-0.008683Z M691.651178,226.56892l0.036379,-0.013024l0.020788,-0.018233l-0.010394,-0.026048h-0.023387l-0.033781,0.039071l0.010394,0.018233Z M688.668097,226.13132l0.046773,-0.031257l-0.012993,-0.018233h-0.031182l-0.028584,0.018233v0.026048l0.025985,0.00521Z M688.517237,226.056204l0.127473,0.002183l0.01819,-0.023443l-0.033781,-0.033862l-0.063257,-0.002279l-0.034511,0.012454l-0.029558,0.028897l0.015444,0.01605Z M689.437253,225.977639l0.033781,-0.015629l0.064963,-0.010419v-0.023443l-0.067561,-0.007814l-0.054569,0.010419l-0.005197,0.033862l0.028584,0.013024Z M689.585368,225.930754v0.026048l0.041576,0.010419l0.064963,-0.033862l0.098743,-0.013024l0.05197,0.007814l0.054569,-0.046886l-0.015591,-0.031257l-0.033781,-0.002605l-0.05197,0.036467l-0.181895,0.028652l-0.028584,0.018233Z M690.175228,225.938568l0.054569,-0.020838l0.106539,-0.083352l0.166304,-0.041676l0.020788,-0.036467l-0.036379,-0.065119l-0.132524,-0.031257l-0.098743,0.039071l-0.111736,0.174519v0.044281l0.031182,0.020838Z M689.910181,225.823958l0.023387,0.00521l0.031182,-0.067724l0.005197,-0.117214l0.044175,-0.125029l0.083152,-0.0547l0.01819,-0.052095l-0.002599,-0.156286l0.020788,-0.05991l0.054569,-0.044281l0.023387,0.002605l0.012993,0.052095l0.020788,0.002605l0.002599,-0.075538l-0.041576,-0.039071l-0.064963,0.007814l-0.075357,0.04949l-0.01819,0.05991l0.007796,0.0547l-0.031182,0.135448l-0.054569,0.127633l-0.054569,0.216195l-0.005197,0.078143Z M692.560654,227.139363l-0.005197,0.031257l0.015591,0.015629l0.015591,-0.013024l0.002599,-0.028652l-0.007796,-0.013024l-0.020788,0.007814Z M693.117599,228.101388l0.032914,-0.017365l0.012993,-0.01997l-0.015591,-0.020838l-0.020788,0.00521l-0.023387,0.033862l0.013859,0.019102Z M690.270723,225.575367l-0.009663,0.012454l0.009663,0.01107l0.035892,-0.002768l0.00138,-0.01107l-0.011044,-0.01107l-0.026229,0.001384Z M690.26964,225.430639l0.024253,0.118083l0.032914,0.032994l0.077955,0.026048h0.045041l0.02252,-0.022575l0.053702,-0.008683l0.02252,0.015629l-0.015591,0.029521l0.006929,0.072933l0.034647,0.020838l0.050238,-0.00521l0.02252,0.013892l-0.045041,0.060778l-0.122996,0.048622l-0.039844,0.041676l-0.036379,0.006946l-0.036379,-0.017365l-0.046773,0.017365l-0.032914,0.072933l-0.036379,0.024311l-0.008662,0.024311l0.045041,0.026048l0.067561,-0.001737l0.105672,-0.032994l0.024253,0.010419l-0.001732,0.038203l0.020788,0.027784l0.045041,0.012156l0.017323,0.027784l-0.010394,0.067724l0.043308,0.041676l0.039844,-0.001737l0.015591,0.015629l-0.093546,0.060778l-0.107405,-0.001737l-0.017323,-0.015629l-0.045041,-0.006946l-0.036379,0.013892l-0.083152,-0.010419l-0.086617,0.010419l-0.048505,0.055568l-0.027717,0.126765l0.032914,0.050359l0.045041,0.013892l0.027717,0.024311l0.001732,0.019102l0.034647,0.022575l0.079687,0.012156l0.039844,0.050359l-0.013859,0.010419l-0.064096,-0.032994l-0.064096,0.024311l-0.015591,0.057305l0.032914,0.013892l0.109137,-0.015629l0.02945,-0.022575l0.02945,-0.003473l0.020788,0.022575l-0.015591,0.041676l0.02945,0.043413l0.05197,0.00521l0.065829,0.022575l0.084884,0.059041l0.064096,0.010419l0.02252,-0.017365l0.116066,-0.001737l0.015591,-0.019102l-0.010394,-0.017365l0.008662,-0.022575l0.046773,-0.024311l0.017323,0.008683l-0.031182,0.029521l0.003465,0.053832l-0.034647,0.03473l-0.058899,-0.017365l-0.010394,0.012156l0.084884,0.055568l0.218274,0.048622l0.046773,0.031257l0.02945,0.001737l0.086617,-0.076406l0.005197,-0.057305l-0.077955,-0.071197l-0.043308,-0.001737l-0.019056,0.026048l-0.045041,0.008683l-0.034647,-0.020838l-0.013859,0.008683l0.005197,0.045149l-0.020788,0.001737l-0.017323,-0.081616l0.050238,-0.052095l0.064096,-0.001737l0.019056,0.026048l0.017323,0.001737l0.091814,-0.145867l0.055435,-0.052095l0.062364,-0.019102l0.055435,-0.038203l0.019056,-0.053832l0.12646,-0.048622l0.116066,-0.00521l0.043308,0.008683l0.05197,-0.010419l0.036379,-0.045149l0.055435,-0.006946l0.071026,0.041676l0.019056,0.048622l0.020788,0.013892l0.02945,-0.010419l0.088349,-0.065987l0.109137,-0.012156l0.025985,0.008683l-0.032914,0.052095l-0.121263,0.059041l-0.077955,0.015629l-0.003465,0.017365l0.058899,-0.003473l0.154178,-0.043413l0.08142,0.017365l0.010394,0.020838l-0.034647,0.036467l-0.166304,0.060778l-0.008662,0.031257l0.038111,0.032994l0.043308,0.00521l0.098743,-0.027784l0.031182,0.003473l0.012126,0.03473l-0.015591,0.019102l-0.05197,-0.010419l-0.008662,0.017365l0.069293,0.053832h0.050238l0.024253,-0.022575l-0.031182,-0.092035l0.008662,-0.055568l0.025985,-0.024311l0.024253,-0.043413l-0.003465,-0.038203l0.05197,-0.057305l0.065829,-0.019102l-0.003465,-0.020838l-0.076223,-0.013892l-0.095278,-0.090298l-0.019056,-0.052095l-0.110869,-0.111136l-0.055435,-0.026048l-0.062364,0.008683l-0.110869,-0.022575l-0.084884,-0.065987l-0.071026,-0.123292l-0.02252,-0.098981l0.012126,-0.088562l0.039844,-0.041676l0.034647,-0.008683l0.027717,-0.013892l0.008662,-0.022575l0.245992,-0.156286l0.02945,-0.045149l-0.001732,-0.1094l0.008662,-0.027784l-0.005197,-0.032994l-0.136854,-0.100717l-0.128193,-0.00521l-0.247724,0.038203l-0.187092,0.029521l-0.180163,-0.001737l-0.08142,-0.031257l-0.091814,-0.083352l-0.05197,-0.102454l-0.019056,-0.076406l0.019056,-0.079879l0.067561,-0.041676l0.058899,-0.003473l0.057167,-0.048622l0.019056,-0.072933l-0.020788,-0.031257l-0.181895,0.003473l-0.192289,0.038203l-0.122996,0.003473l-0.116066,0.043413l-0.150713,0.116346l-0.02252,0.060778l0.013859,0.119819l-0.015591,0.052095l-0.065829,0.06946l-0.098743,0.03994l-0.041576,0.038203l-0.012126,0.03994l0.010394,0.019102l0.036379,-0.00521l0.142051,-0.116346l0.060632,-0.032994l0.039844,-0.057305l-0.02252,-0.03994l-0.017323,-0.065987l0.008662,-0.032994l0.10394,-0.078143l0.065829,-0.022575l0.034647,0.008683l0.019056,0.083352l-0.031182,0.086825l-0.057167,0.053832l-0.067561,0.142394l-0.013859,0.072933l0.020788,0.00521l0.02945,-0.022575l0.067561,-0.006946l0.209613,-0.10419v-0.031257l0.013859,-0.029521l0.032914,-0.006946l0.032914,-0.036467v-0.024311l0.015591,-0.029521l0.043308,0.00521l0.048505,0.092035l-0.001732,0.060778l0.050238,0.062514l0.071026,0.006946l0.060632,0.029521l0.041576,0.059041l0.041576,0.013892l0.034647,-0.015629l0.08142,0.006946l0.058899,0.026048l0.043308,0.123292l0.001732,0.067724l-0.039844,0.119819l-0.031182,0.017365l-0.053702,-0.001737l-0.055435,0.019102l-0.039844,0.032994l-0.025985,-0.006946l-0.008662,-0.046886l-0.034647,-0.024311l-0.062364,-0.017365l-0.034647,-0.038203l-0.001732,-0.038203l0.012126,-0.024311l-0.001732,-0.055568l-0.10394,-0.118083l-0.02252,-0.050359l-0.034647,-0.003473l-0.041576,0.046886l-0.032914,0.001737l-0.003465,-0.015629l0.034647,-0.022575l0.03822,-0.106795l-0.011044,-0.02214l-0.048316,0.008303l-0.173937,0.11347l-0.020707,0.041513l0.03037,0.029059v0.034594l-0.012424,0.026292v0.020757l0.026229,0.013838l0.004141,0.026292l-0.022087,0.01107l-0.053838,-0.02214l-0.009663,-0.024908l0.023468,-0.045665l-0.011044,-0.034594l-0.139426,-0.060886l-0.063501,-0.006919l-0.209829,0.038746l-0.110572,0.001791l-0.009528,0.018966l0.032048,0.02271Z M694.262244,229.690657l0.001385,0.016614l0.019383,0.006923l0.023537,-0.006923l0.006923,-0.01523l-0.033228,-0.006923l-0.017999,0.005538Z M695.29533,229.885546l0.03388,0.002606l0.015637,-0.018243l-0.018243,-0.020849h-0.023455l-0.018243,0.018243l0.010425,0.018243Z M695.677562,231.223359h0.017374l0.013899,-0.019112l0.010425,-0.05386l-0.008687,-0.024324l-0.015637,0.00695l-0.019112,0.071234l0.001737,0.019112Z M695.547256,231.030506l0.020849,-0.017374l0.008687,-0.024324l-0.008687,-0.015637l-0.015637,0.003475l-0.019112,0.048648l0.013899,0.005212Z M695.693823,230.981016l0.019383,0.017999l0.014741,-0.004995l0.031274,-0.043435l-0.00695,-0.039961l-0.036486,-0.033011l-0.008687,-0.033011l0.017374,-0.10772l-0.010425,-0.031274l-0.019112,0.001737l-0.041698,0.142468l-0.071234,0.097295l0.010425,0.031274l0.101395,0.002633Z M695.754009,230.695184l0.003475,-0.038223l-0.012162,-0.017374l-0.024324,0.005212l-0.003475,0.019112l0.022586,0.038223l0.013899,-0.00695Z  M663.69302,244.313078l-0.003,-0.044l0.021,-0.026l-0.002,-0.032l-0.171,-0.104l0.002,-0.049l0.037,-0.006l0.034,0.027l0.037,-0.003l0.063,-0.05v-0.07l-0.031,-0.034l0.021,-0.049l0.105,-0.037l0.061,0.024l0.031,-0.011l0.04,-0.088l-0.003,-0.047l-0.034,-0.026l-0.003,-0.055l0.05,-0.094l-0.045,-0.031l-0.197,-0.065l-0.045,-0.107l0.045,-0.107l-0.023,-0.018h-0.135l-0.029,0.013l-0.031,-0.003l-0.063,-0.029l-0.055,0.008l-0.092,0.047l-0.043,-0.008v-0.036l0.029,-0.034l-0.026,-0.073l-0.071,-0.076v-0.065l-0.042,-0.039l0.008,-0.028l0.095,-0.029l0.05,-0.044l0.039,0.005l0.066,0.12l0.063,0.007l0.055,-0.049l0.021,-0.086l0.147,-0.133l0.092,-0.021l0.166,-0.135l0.047,-0.052l0.132,-0.053l0.11,-0.01l0.04,-0.029l-0.003,-0.026l-0.118,-0.065l0.147,-0.062l-0.055,-0.04l-0.176,0.071l-0.056,0.042l-0.081,-0.006l-0.032,-0.107l-0.01,-0.117l0.045,-0.036l-0.016,-0.06l0.042,-0.06l0.139,-0.125l0.169,-0.271l0.202,-0.133l-0.047,-0.146l0.042,-0.037l-0.016,-0.018l-0.042,-0.008l0.018,-0.182l0.021,-0.063l0.013,-0.127l-0.039,-0.066l-0.008,-0.104l-0.063,-0.091l-0.058,-0.042l-0.1,-0.143l-0.11,-0.115l-0.095,-0.054l-0.013,-0.04l0.092,-0.187v-0.034l-0.068,-0.018l-0.077,-0.008l-0.157,-0.057l-0.032,-0.073v-0.11l0.053,-0.005v-0.029l-0.163,-0.088l-0.148,-0.013l-0.005,-0.042l0.14,-0.083l-0.017,-0.128l-0.109,-0.097l-0.01,-0.066l0.063,-0.046l0.084,0.018l0.109,-0.021l0.154,-0.108h0.07l0.109,0.045l0.182,0.039l0.032,-0.014l-0.004,-0.08l-0.112,-0.118l-0.091,-0.025l0.01,-0.038l0.161,-0.031l0.102,0.066l0.025,0.069l0.101,0.038l0.169,0.004l0.052,-0.028l0.074,0.038l0.017,0.073l0.057,0.018l0.08,-0.011l0.081,0.028l0.045,0.045l0.095,0.021l0.035,-0.087l-0.073,-0.076l0.035,-0.028l0.175,0.024l0.081,0.046l0.108,-0.028l0.049,-0.049l0.218,-0.094l0.417,-0.125l0.084,0.028l0.046,0.059l0.063,-0.003l0.196,-0.143l0.049,-0.139l0.06,-0.031h0.049l0.024,-0.045l-0.056,-0.115l-0.192,-0.111l-0.046,-0.045l-0.126,-0.053l-0.081,-0.003l-0.038,-0.031l0.028,-0.115l0.143,-0.031l0.067,-0.073l0.028,-0.143l0.344,-0.007l0.066,-0.041l0.042,-0.139l0.113,-0.094l0.122,-0.024l0.081,-0.066l0.038,-0.119l0.071,-0.038l0.14,-0.007l0.084,-0.031l0.01,-0.042l-0.084,-0.069l-0.045,-0.139l0.067,-0.241l0.101,-0.135l0.011,-0.122l-0.057,-0.104l-0.066,-0.038l-0.112,-0.132l-0.067,-0.184l-0.035,-0.004l-0.084,0.118l-0.074,0.035l-0.277,-0.062l-0.052,-0.039l-0.298,-0.007l-0.109,-0.041l-0.172,-0.094l0.035,-0.174l-0.091,-0.157l0.126,0.023l0.042,-0.07l0.092,0.023l0.045,-0.01v-0.018l-0.163,-0.12l0.026,-0.133l-0.055,-0.039l0.003,-0.026l0.136,-0.094l0.132,-0.026l0.247,0.015l0.084,-0.021l0.132,0.024l0.034,0.036l0.137,0.019l0.071,-0.042l0.115,0.023l0.037,0.032l0.082,0.007l0.063,-0.046l0.063,-0.835l0.079,-0.14l-0.016,-0.047l0.347,-0.472l0.113,-0.303l0.019,-0.018l-0.021,-0.029l-0.05,-0.331l0.013,-0.177l-0.069,-0.039l-0.015,-0.084l0.042,-0.046v-0.073l0.05,-0.068l0.084,-0.024l-0.063,-0.041l0.029,-0.045v-0.099l-0.02,-0.088l0.074,-0.013l0.052,-0.121l0.045,-0.254l0.049,-0.031l0.256,0.01l0.055,0.028l0.018,0.045l0.052,0.024l0.014,-0.031l-0.045,-0.069l-0.087,-0.032l-0.225,-0.017l-0.111,-0.028l-0.485,-0.021l-0.239,0.007l-0.108,-0.052l-0.041,-0.128l0.09,-0.539l0.066,-0.139v-0.055l-0.035,-0.066l0.021,-0.039l0.059,0.011l0.048,0.055l0.101,0.004l0.124,-0.045l0.007,-0.038l-0.166,-0.16l0.014,-0.066l0.197,-0.15l0.059,-0.083l0.239,-0.167l0.274,-0.094l0.336,-0.034l0.364,0.017l0.152,0.045l0.142,-0.014l0.371,-0.111l0.509,-0.066l0.163,-0.007l0.167,-0.031l0.301,0.007l0.18,0.035l0.017,0.055l-0.01,0.077l0.035,0.156l0.045,0.049l0.048,0.01l0.052,-0.021l0.066,0.031l0.107,0.195l0.094,0.003l0.035,0.066l-0.038,0.046l0.048,0.118l0.049,0.08l-0.032,0.093l-0.093,0.063l-0.16,0.042l-0.086,-0.018l-0.038,0.039l0.041,0.159l0.094,0.094l0.062,0.018l0.042,-0.035l0.083,0.014l0.145,0.132l0.011,0.059l0.111,0.059l0.152,-0.007l0.125,-0.115l0.007,-0.083l0.021,-0.049l0.052,-0.048l0.007,-0.244l-0.011,-0.066l-0.048,-0.031l-0.142,0.031h-0.09l-0.028,-0.038l0.038,-0.271l0.08,-0.121l0.138,-0.066l0.111,-0.004l0.08,0.052l0.093,0.139l0.115,0.066l0.225,0.07l0.114,0.007l0.031,-0.021l0.038,0.007l0.032,0.045l0.1,0.055l-0.007,0.042l-0.152,0.108l-0.09,0.153l-0.004,0.366l0.042,0.261l0.036,-0.011v-0.234l-0.01,-0.349l0.078,-0.146l0.14,-0.068l0.052,-0.094l-0.016,-0.088l-0.213,-0.266l-0.005,-0.104l-0.104,-0.198v-0.157l0.208,-0.516l0.083,-0.239l0.156,-0.214l0.224,-0.063l0.098,0.032l0.135,0.135l0.245,0.11l0.374,0.036l0.317,-0.057l0.171,-0.011l0.193,-0.093l0.363,-0.032l0.338,0.047l0.213,0.162l0.161,0.297l0.198,0.234l0.203,0.177l0.109,0.167l0.093,0.203l0.182,0.152l0.104,0.036l0.135,0.068l0.083,0.073l0.136,0.026l0.161,-0.005l0.083,0.02l0.088,0.042l0.057,-0.005l0.052,-0.042l0.224,0.037l0.078,-0.011l0.01,-0.041h-0.114l-0.385,-0.084l-0.234,-0.021l-0.171,-0.052l-0.281,-0.135l-0.104,-0.099l-0.041,-0.261l-0.078,-0.146l-0.12,-0.104l-0.161,-0.052l-0.104,-0.12l-0.036,-0.109l-0.083,-0.204l-0.198,-0.177l-0.229,-0.114l-0.259,-0.073l-0.442,-0.011l-0.208,-0.047h-0.083l-0.057,0.021l-0.109,-0.005l-0.167,-0.13l-0.083,-0.167l0.01,-0.115l-0.036,-0.067l-0.119,-0.068l-0.068,-0.11l0.036,-0.078l0.125,-0.01l0.094,0.047l0.166,-0.006l0.088,-0.067v-0.089l-0.192,-0.344l-0.088,-0.015l-0.12,0.046l-0.083,-0.02l-0.12,-0.146l-0.015,-0.141l0.088,-0.162l0.011,-0.177l0.067,-0.047l0.135,-0.01l0.172,-0.125l0.026,-0.136h-0.037l-0.213,0.183l-0.078,0.026l-0.057,-0.011l-0.021,-0.062l-0.093,-0.016l-0.083,0.031l-0.083,-0.005l-0.058,-0.047l-0.171,0.006l-0.062,0.067l-0.084,0.011l-0.192,-0.063l-0.062,-0.13l0.031,-0.083l0.067,-0.016l0.078,0.011l0.115,-0.073l-0.011,-0.063l-0.083,-0.016l-0.031,-0.052l0.073,-0.093l0.488,-0.084l0.198,0.037l0.249,-0.068l0.141,-0.162l0.088,-0.052l0.088,-0.005l0.057,-0.125l-0.093,-0.167l-0.062,-0.005l-0.146,0.167l-0.057,0.099l-0.104,0.047l-0.239,-0.021l-0.057,-0.073l-0.003,-0.099l0.047,-0.057l0.145,-0.068l0.045,-0.096l-0.016,-0.107l0.01,-0.07l0.045,-0.092l-0.016,-0.057l-0.065,-0.01l-0.156,0.026l-0.016,-0.024l0.063,-0.036l0.028,-0.06l-0.083,-0.156l-0.192,-0.115l-0.07,-0.086l0.008,-0.062l-0.034,-0.055l-0.081,-0.029l-0.072,-0.047l-0.011,-0.036l0.037,-0.042l-0.003,-0.081l-0.049,-0.119l-0.05,-0.066l-0.057,-0.028l-0.044,-0.05l-0.016,-0.044l-0.13,-0.125l-0.018,-0.065l0.003,-0.133l-0.06,-0.036l0.01,-0.037l0.096,-0.026l0.05,-0.052l0.013,-0.05l0.071,0.015l0.039,-0.011l0.074,0.012l0.125,0.079l0.041,0.001l0.072,-0.014l0.116,-0.001l0.077,-0.041l0.1,-0.009l0.062,0.042l0.06,0.005l0.105,-0.038l0.209,0.008l0.135,0.054l0.119,0.036l0.041,0.027l0.008,0.024l0.067,0.025l0.176,0.008l0.064,-0.021l0.113,0.005l0.359,0.123l0.012,0.034l-0.029,0.034v0.038l0.036,0.093l0.029,0.014l0.065,-0.014l0.042,0.008l0.022,0.038l0.023,-0.002l0.008,-0.023l0.094,0.009l0.056,0.025l0.02,-0.004l0.007,-0.027l0.036,-0.046l0.065,-0.031l0.011,-0.051l0.035,-0.036h0.064l0.039,-0.019l0.029,0.019l-0.011,0.021l0.011,0.018l0.007,0.051l0.043,0.058l-0.001,0.035l-0.014,0.028l0.014,0.01l0.052,-0.036l0.05,-0.072l0.041,-0.024h0.075l0.059,-0.035l0.047,-0.055l0.093,-0.066l0.076,-0.024l0.082,-0.058l0.014,-0.038l0.046,-0.01l0.014,0.012l-0.034,0.038l-0.026,0.078l0.005,0.049l0.028,0.05l0.041,0.017l0.028,-0.005l0.061,0.016l0.041,0.031l0.03,0.007l0.031,-0.01l0.072,0.024l0.066,0.038l0.118,0.035l0.056,0.005l0.107,0.035l0.035,-0.002l0.034,0.017l0.028,0.061l0.114,0.113l0.097,0.05l0.049,-0.003l0.026,-0.054l0.045,-0.026l0.028,0.005l0.02,-0.012l0.004,-0.048l-0.016,-0.023l0.012,-0.064l0.028,-0.005l0.147,0.072l0.092,0.125l0.017,0.129l0.036,0.086l0.161,0.135l0.005,0.055l-0.021,0.008l-0.02,-0.052l-0.042,-0.013l-0.052,0.039l-0.023,-0.005l-0.003,-0.068l-0.031,-0.008l-0.036,0.044l-0.011,0.039l-0.065,0.034l0.008,0.021h0.065l0.117,0.029l0.031,0.036l0.041,-0.004l0.025,-0.041l0.015,0.008l-0.016,0.087v0.203l-0.018,0.065l0.005,0.242l-0.013,0.026l-0.028,0.024l-0.063,0.114l-0.073,0.063l-0.202,0.104l-0.232,0.11l-0.067,-0.006l-0.016,0.019l0.039,0.065l0.086,0.026l0.156,-0.021l0.062,-0.047l0.133,-0.029l0.06,0.011l0.062,-0.005l0.055,-0.034l0.356,-0.058l0.088,0.008l0.132,0.073l0.076,0.07l-0.005,0.04l-0.071,0.062l-0.007,0.047l0.078,0.104l-0.013,0.07l-0.081,0.037l-0.01,0.026l0.002,0.034l-0.062,0.086v0.044l0.034,0.034l-0.006,0.049l-0.054,0.068l0.021,0.018l0.057,-0.018l0.049,-0.073l0.011,-0.112l0.023,-0.036l0.039,-0.016l0.075,-0.151v-0.06l0.052,-0.049l0.159,-0.006l0.088,-0.039l0.026,-0.041l0.104,-0.032l0.185,0.026l0.103,0.04l0.06,0.049l0.213,0.104l0.317,0.097l0.198,0.083l0.119,0.081l0.084,0.104l0.08,0.065l0.091,0.023l0.252,-0.015l0.205,-0.13l0.091,-0.105l0.081,-0.052l0.057,-0.01l0.114,-0.076l0.125,-0.013l0.135,0.019l0.089,0.036l0.135,-0.008l0.127,-0.109l0.096,-0.005l0.043,0.039l-0.051,0.104l-0.145,0.078l-0.018,0.107l0.028,0.484l0.052,0.154l-0.034,0.075l-0.343,0.178l-0.262,0.2l-0.127,0.143l-0.112,0.021l-0.146,-0.026l-0.088,0.034l-0.026,0.055l-0.039,0.047l-0.067,0.039l-0.029,0.101l0.08,0.193l0.094,0.034l0.182,-0.003l0.109,0.032l0.023,0.06l-0.002,0.062l0.021,0.029l0.07,0.007l0.148,-0.065l0.174,-0.122l0.208,-0.076l0.187,-0.023l0.158,0.021l0.112,-0.021l0.057,0.026l0.016,0.063l0.13,0.049l0.101,0.003l0.018,0.02l-0.044,0.058l-0.023,0.099l0.031,0.06l0.081,0.039l0.106,-0.021l0.101,-0.107l0.039,0.003l0.05,0.067l0.062,0.029l0.099,-0.003l0.031,0.021l0.018,0.052l0.07,0.047l0.047,0.065l0.034,-0.005l0.003,-0.044l0.096,-0.102l0.008,-0.174l0.093,-0.203l0.086,-0.068l-0.008,-0.042l0.018,-0.021l0.076,0.011l0.08,-0.031l0.042,-0.102l0.041,-0.055l0.076,-0.039l0.033,-0.057l-0.023,-0.068l-0.049,-0.002l-0.135,0.135l-0.099,0.081l-0.026,-0.016l0.005,-0.091l0.075,-0.089l0.151,-0.049l0.135,-0.094l0.125,-0.141l0.122,-0.023l0.255,0.005l0.189,0.039l0.172,-0.01l0.151,-0.031l0.13,-0.071l0.334,-0.06l0.196,-0.01l0.038,0.036l0.012,0.071l-0.031,0.081l0.008,0.134l0.051,0.096l0.033,0.01l0.012,-0.014l-0.03,-0.026l-0.031,-0.082l0.002,-0.105l0.024,-0.063l0.083,-0.023l0.045,-0.052l-0.017,-0.029l-0.057,-0.004l-0.042,0.019l-0.029,-0.006l-0.002,-0.03l0.055,-0.012l0.132,-0.101l0.061,-0.114l0.078,-0.084l0.239,-0.134l0.204,-0.081l0.135,-0.11l0.224,-0.352l0.15,-0.139l0.089,-0.116l0.074,-0.179l0.068,-0.13l0.052,-0.021l0.026,0.014l-0.002,0.055l0.062,0.064l0.165,0.039l0.135,0.009l0.168,0.042l0.395,0.001l0.342,0.001l0.166,-0.013l0.032,0.012l-0.002,0.024l0.018,0.044l-0.015,0.022l-0.135,0.043l-0.046,0.001l-0.059,-0.026l-0.075,-0.007l-0.065,0.017l-0.038,0.041h-0.031l-0.037,-0.03h-0.07l-0.043,0.011l-0.068,-0.011l-0.048,-0.063l-0.046,-0.024l-0.095,0.002l-0.077,0.057l-0.018,0.047l-0.026,0.011l-0.05,-0.046l-0.003,-0.029l-0.018,-0.008l-0.197,0.094l-0.025,0.039l0.015,0.044l-0.021,0.013l-0.046,-0.01l-0.086,0.022l-0.091,0.064l-0.036,0.001l-0.04,-0.039l-0.09,-0.004l-0.124,0.02l-0.075,0.049l-0.004,0.061l0.011,0.035l-0.02,0.055l-0.032,0.013l-0.025,-0.025l-0.037,-0.004l-0.014,0.026l0.03,0.03l-0.004,0.049l-0.039,0.054l-0.069,0.022l-0.02,0.028l0.007,0.044l0.059,0.068l-0.001,0.036l-0.035,0.026l0.003,0.024l0.188,0.092h0.069l0.07,-0.023l0.001,-0.017l-0.095,-0.016l-0.069,-0.05v-0.075l0.079,-0.072l0.153,-0.042l0.014,-0.026l-0.022,-0.091l0.03,-0.026l0.077,0.002l0.108,-0.033l0.021,-0.022l0.012,-0.046l0.044,-0.043l-0.004,-0.013l-0.034,-0.002l-0.002,-0.022l0.04,-0.026h0.071l0.023,0.021l-0.005,0.038l0.027,0.02l0.061,-0.022l0.014,-0.045l0.043,-0.021l0.049,-0.001l0.145,-0.08l0.01,-0.029l-0.026,-0.029l-0.002,-0.025l0.034,-0.018l0.073,0.003l0.049,-0.013l0.024,0.011l-0.01,0.024l-0.037,0.008l-0.043,0.036l0.003,0.054l-0.028,0.051l0.016,0.013l0.044,-0.047l0.015,-0.057l0.021,-0.029l0.041,0.004l0.003,0.09l0.027,0.037l0.046,0.003l0.019,-0.017l0.026,-0.001l0.025,0.015l0.039,0.003l0.019,-0.018l0.003,-0.037l0.019,-0.036l0.024,-0.002l0.011,0.053l0.043,0.015l0.034,0.053l0.007,0.095l0.021,0.004l0.027,-0.023l0.105,-0.007l0.114,-0.078l0.024,-0.033l0.002,-0.054l0.044,-0.084l0.097,-0.054l0.116,-0.038l0.022,-0.019l0.077,-0.011l0.039,-0.017l0.037,-0.038l0.062,-0.011l0.044,0.022l0.003,0.041l-0.033,0.028l-0.006,0.062l0.021,0.069l0.074,0.067l0.114,0.004l0.044,0.037l0.007,0.057l-0.046,0.044l-0.009,0.047l0.033,0.119l0.051,0.039l0.047,0.002l0.019,0.029l-0.047,0.087l0.011,0.048l0.09,0.062l0.05,0.006l0.066,-0.035l0.027,-0.001l0.021,0.03l-0.022,0.013l-0.03,-0.007l-0.033,0.018l-0.027,0.046l0.01,0.008l0.079,-0.046l0.066,0.002l0.099,0.07l-0.007,0.02v0.018l0.036,0.007l0.125,0.001l0.084,0.014l0.07,0.058l0.033,0.097l0.082,0.119l0.031,0.005l0.013,0.017l-0.044,0.07l0.007,0.014l0.037,-0.023l0.061,-0.004l0.059,-0.029l0.057,-0.005l0.03,0.023l0.019,-0.006l0.002,-0.032l0.018,-0.007l0.051,0.035l-0.015,0.04l-0.098,0.043l-0.028,0.034l0.018,0.028l0.043,-0.005l0.018,-0.021l0.022,-0.002l0.071,0.068l0.074,0.176l0.08,0.073l0.099,0.014l0.013,-0.023l-0.031,-0.031l-0.044,-0.087v-0.037l0.068,-0.036l0.232,-0.017l0.149,-0.018l0.099,-0.028l0.062,-0.055l0.203,-0.108l0.046,0.004l0.015,0.042l-0.022,0.018l-0.028,-0.002l-0.021,0.02l0.021,0.041l0.108,0.047l0.062,0.011l0.201,0.193l0.006,0.029l-0.021,0.016l-0.009,0.03l0.005,0.038l-0.018,0.038l-0.043,0.036l-0.013,0.02l0.011,0.027l-0.035,0.052l-0.069,0.031l-0.011,0.031l0.034,0.029l0.023,0.057l0.12,0.086l0.065,0.016l0.145,0.132l0.005,0.066l0.039,0.02l0.037,-0.002l0.08,0.049l0.06,0.104l-0.015,0.037l-0.091,0.034l-0.102,0.078l-0.021,0.049l-0.025,0.019h-0.058l-0.046,0.07l-0.008,0.065l0.036,0.037l0.088,0.007l0.084,0.052l0.026,0.058l0.117,0.091l0.039,0.005l0.202,0.146l0.188,0.102l0.068,0.003l0.083,0.028l0.04,0.039l0.101,0.021l0.089,-0.028l0.083,0.005l0.029,0.026h0.052l0.122,-0.089l0.013,-0.028l0.079,-0.003l0.083,0.07l0.003,0.073l-0.071,0.071l-0.101,0.049l-0.006,0.037l0.073,0.034l0.061,0.003l0.036,-0.018l0.015,0.037l0.043,0.035l-0.004,0.048l-0.04,0.033l0.001,0.027h0.025l0.031,0.03l-0.002,0.123l0.094,0.071l0.021,0.044l-0.019,0.244l-0.024,0.04l0.006,0.065l0.036,0.036l0.009,0.083l0.043,0.081l0.059,0.024l0.024,0.049l0.013,0.138l0.052,0.039l0.008,0.227l0.073,0.151l0.008,0.058l-0.016,0.057l0.005,0.031l0.055,0.037l0.031,0.117l-0.026,0.057l0.008,0.034l0.029,0.037l0.018,0.088l0.088,0.042l0.006,0.057l-0.131,0.191l-0.015,0.052l-0.024,0.023l-0.078,0.026l-0.026,0.052l-0.026,0.131l0.068,0.117l-0.013,0.143l-0.037,0.047l-0.013,0.042v0.068l-0.086,0.166l-0.138,0.097l-0.12,0.12l-0.156,0.091l-0.107,0.023l-0.125,0.068l-0.021,0.031l-0.031,0.026l-0.047,0.013l-0.016,0.04l0.018,0.054l0.008,0.081l0.057,0.057l0.019,0.111l-0.131,0.151l0.013,0.075l0.072,0.045l0.21,0.016l0.082,0.034l0.025,0.053l0.174,0.149l0.258,0.114l0.203,0.21l0.025,0.053l0.067,0.08l0.056,0.029l0.041,0.04l0.005,0.034l0.061,0.051l0.156,0.09l0.159,0.064l0.128,0.077l0.064,0.117l0.072,0.05v0.043l-0.069,0.071l-0.041,0.106l0.025,0.116l0.079,0.055v0.045l-0.028,0.042l-0.038,0.01l-0.026,0.037l-0.007,0.052l-0.08,0.09l-0.104,0.036l-0.047,0.058l-0.002,0.074l-0.026,0.06l0.003,0.047l0.051,0.089l0.01,0.108l0.026,0.118l0.054,0.04l0.01,0.097l-0.021,0.031l0.013,0.042l0.077,0.06l0.084,0.016l0.103,0.042l0.14,0.032l0.092,0.089l0.006,0.058l-0.031,0.089l-0.074,0.068l0.005,0.04l0.059,0.06v0.052l-0.08,0.087l-0.002,0.152l0.087,0.095l0.094,0.031l0.08,0.061l0.03,0.057l-0.007,0.04l-0.031,0.044l-0.028,0.134l-0.064,0.063l-0.013,0.045l0.018,0.052l-0.026,0.047l-0.035,0.021v0.069l0.053,0.065l-0.01,0.05l-0.048,0.058l-0.052,0.102l-0.002,0.037l-0.046,0.047l-0.067,0.016l-0.023,0.032l-0.002,0.044l-0.072,0.068l-0.069,0.016l-0.021,0.032l0.006,0.034l-0.023,0.016l-0.026,-0.006l-0.02,0.021v0.074l0.069,0.081l0.102,0.026l0.054,0.048l0.012,0.073l-0.002,0.047l0.013,0.118l0.048,0.084l0.264,0.224l0.038,0.102l-0.002,0.136l0.038,0.066l-0.01,0.058l-0.182,0.204l0.015,0.04l0.034,0.01l0.015,0.04l-0.015,0.031l0.028,0.058l0.095,0.034l0.133,0.011l0.138,0.07l0.013,0.04l0.074,0.034l0.171,0.018l0.059,0.016l0.008,0.029l0.033,0.018l0.043,-0.002l0.041,0.034v0.047l0.059,0.066l-0.005,0.031l-0.028,-0.003l-0.01,0.032l0.02,0.029l-0.008,0.149l0.029,0.071l0.03,0.024l0.003,0.037l-0.026,0.031l0.016,0.123l0.115,0.098l-0.003,0.047l0.087,0.071l0.026,0.086l-0.01,0.066l-0.041,0.018v0.027l0.017,0.031l-0.069,0.168l-0.041,0.207l-0.025,0.029l-0.01,0.092l0.025,0.058l-0.015,0.058l-0.036,0.023l-0.013,0.04l0.005,0.055l-0.071,0.22l-0.044,0.037l-0.051,0.11l0.003,0.045l-0.028,0.052l-0.031,0.005l-0.016,0.037l0.016,0.047l-0.016,0.035l-0.04,0.015l-0.049,0.1l0.018,0.05l-0.031,0.029l-0.031,-0.008l-0.033,0.024v0.049l-0.176,0.153l-0.005,0.05l0.029,0.039l-0.008,0.048l-0.047,0.043l-0.026,0.064l-0.007,0.068l-0.04,0.014l-0.083,0.004l-0.082,-0.042l-0.035,0.003l-0.041,0.03l-0.026,-0.011v-0.045l-0.047,-0.026l-0.045,0.004l-0.04,-0.006l-0.046,-0.041l-0.05,-0.012l-0.04,0.005l-0.104,-0.044l-0.002,-0.036l0.028,-0.023l0.056,-0.139l0.024,-0.024l0.017,-0.035l-0.003,-0.087l-0.021,-0.015l-0.222,0.074l-0.063,-0.005l-0.031,-0.026l0.007,-0.042l0.069,-0.064l0.057,-0.113l0.016,-0.054l-0.009,-0.047l-0.102,-0.104h-0.054l-0.059,0.018l-0.023,-0.013l0.009,-0.027l-0.023,-0.026l-0.104,-0.021l-0.001,-0.037l0.027,-0.066l-0.024,-0.021l-0.028,0.011l-0.009,0.035l0.007,0.05l-0.022,0.016l-0.042,-0.011l-0.031,-0.04h-0.073l-0.09,0.068l-0.075,-0.002l-0.071,-0.035l-0.021,-0.055l-0.065,-0.028l-0.064,0.023l-0.029,-0.007l-0.073,-0.068l-0.051,0.002l-0.043,0.062l-0.044,0.009l-0.007,0.022l0.034,0.039l-0.03,0.047l-0.043,0.01l-0.014,0.052l0.017,0.021l-0.007,0.024l-0.026,0.021l0.003,0.03l0.08,0.04l0.058,-0.002l0.041,-0.033l0.075,0.003l0.009,0.042l-0.018,0.019l-0.041,0.004l-0.025,0.017l0.006,0.024l0.02,0.006l0.009,0.041l0.045,0.03l0.165,0.042l0.03,-0.011l0.042,0.007l0.027,0.038v0.037l-0.04,0.028l-0.01,0.034l0.002,0.058l-0.031,0.024h-0.04l-0.056,-0.024l-0.017,0.01l-0.011,0.03l-0.127,0.04l-0.073,-0.006l-0.034,-0.033l-0.044,-0.005l-0.108,0.026l-0.024,0.03l-0.005,0.059l-0.132,0.095l-0.097,0.011l-0.063,0.019l-0.059,0.045l-0.054,0.019l-0.123,0.025l-0.047,0.038l-0.007,0.04l-0.047,0.005l-0.028,-0.005l-0.055,0.007l-0.02,0.027h-0.027l-0.052,-0.038l-0.04,-0.003l-0.032,-0.028l-0.036,0.003l-0.106,0.049l-0.011,0.045l-0.05,0.04l-0.08,0.005l-0.052,-0.019l-0.024,0.021l0.001,0.031l-0.038,0.065l0.005,0.04l0.042,0.038l-0.009,0.049l-0.062,0.029l-0.051,-0.019l-0.024,0.009l-0.024,0.062l-0.106,0.009l-0.07,-0.033l-0.179,-0.009l-0.036,0.028l-0.031,0.002l-0.037,-0.019l-0.029,0.001l-0.042,0.033l-0.009,0.035h-0.054l-0.102,-0.059l-0.09,0.009l-0.058,0.031l-0.01,0.031l-0.087,0.025l-0.141,-0.02l-0.047,0.007l-0.041,0.037l-0.042,0.005l-0.012,0.026l0.062,0.047l0.011,0.085l-0.021,0.019l-0.038,0.009l-0.049,0.063l0.009,0.027l0.031,0.007l-0.002,0.032l-0.102,0.055l-0.011,0.031l-0.064,0.051l-0.026,0.047l-0.03,0.005l-0.064,-0.033l-0.052,-0.004l-0.059,-0.039l-0.024,-0.072l-0.073,-0.069l-0.047,-0.019l-0.018,0.012l0.023,0.083l-0.044,0.061l-0.128,0.05l-0.037,0.04l0.013,0.086l-0.037,0.02l-0.08,0.004l-0.057,-0.066l-0.085,-0.002l-0.066,0.052l0.003,0.03l-0.012,0.028l-0.026,0.015l-0.009,0.031l0.007,0.046l-0.104,0.17l-0.007,0.05l-0.033,0.018l-0.111,-0.026l-0.045,0.007l-0.026,-0.011l-0.006,-0.04h-0.033l-0.095,0.068l-0.084,0.014l-0.085,-0.012l-0.05,-0.042l-0.035,0.014l-0.003,0.036l-0.033,0.065l-0.014,0.114l0.017,0.045l-0.019,0.044l-0.085,0.057l-0.066,0.063l-0.127,0.05l-0.005,0.023h-0.018l-0.031,-0.038l-0.066,-0.039l-0.033,0.004l-0.031,-0.014l-0.025,-0.037l-0.241,-0.132l-0.023,0.014l-0.029,0.063l0.009,0.043l-0.018,0.002l-0.035,-0.059l-0.046,-0.005l-0.192,0.074l-0.024,0.061l-0.069,0.051l-0.007,0.038l-0.018,0.009l-0.099,-0.07l-0.043,-0.003l-0.031,0.019h-0.049l-0.051,-0.021l-0.059,0.003l-0.053,0.039l-0.292,0.043l-0.068,0.052l-0.049,0.075l-0.005,0.047l0.017,0.04l-0.015,0.029h-0.032l-0.026,-0.019l-0.031,0.002l-0.09,0.062l-0.016,0.032l0.007,0.033l-0.024,0.019l-0.092,-0.007l-0.025,0.028l-0.005,0.055l0.018,0.031l-0.021,0.047l-0.058,0.011l-0.057,0.035l-0.049,0.092l-0.007,0.048l0.021,0.056l-0.022,0.019l-0.059,-0.016l-0.016,0.035l0.014,0.059l-0.007,0.023l-0.021,0.015l-0.003,0.046l0.043,0.041l-0.009,0.035l-0.031,0.03l-0.002,0.024l0.04,0.016l-0.01,0.015l-0.075,-0.003l-0.069,-0.016l-0.032,-0.052l-0.038,-0.023l-0.002,-0.034l0.033,-0.033l0.023,-0.07l-0.043,-0.062l-0.058,-0.007l-0.076,-0.068l0.015,-0.03l0.06,0.014l0.019,-0.015l-0.009,-0.039l-0.028,-0.038l-0.043,-0.007l-0.058,0.004l-0.102,-0.018l-0.023,-0.036l0.004,-0.117l-0.012,-0.024l-0.033,-0.016l-0.018,-0.033l-0.054,-0.015l-0.135,0.015l-0.018,0.016l-0.033,-0.002l-0.013,-0.022l-0.03,-0.004l-0.016,0.018l0.016,0.024l0.066,0.024l0.005,0.019l-0.015,0.025l0.01,0.045l0.047,0.031l0.005,0.04l-0.062,0.04h-0.037l-0.04,0.028l-0.005,0.028l-0.021,0.015l0.005,0.026l0.04,0.002l0.019,0.017l0.002,0.021l0.037,0.03l0.092,0.007l0.048,0.029l0.014,0.035l-0.014,0.019l0.016,0.019l0.042,0.002l0.104,0.109l0.036,0.089l0.004,0.049l-0.028,0.031l-0.036,0.076l0.003,0.079l0.03,0.076l0.036,0.023l0.052,0.008l0.151,0.101l0.004,0.035l-0.028,0.042l0.016,0.029l0.114,0.004l0.07,0.038l0.026,0.064l0.029,0.014l0.039,-0.012l0.144,0.102l0.066,-0.001l0.019,0.019l-0.012,0.022l0.024,0.019l0.085,0.006l0.021,0.026l-0.017,0.036l0.019,0.016l0.085,-0.035l0.043,0.012l0.014,0.037l0.016,0.014l0.043,0.003l0.03,0.021l-0.009,0.057l-0.017,0.018l-0.035,0.01l-0.036,0.049l0.012,0.052l0.127,0.04l0.106,0.019l0.034,0.026l0.009,0.083l-0.036,0.054l-0.053,0.033l-0.026,0.04l-0.007,0.063l-0.026,0.026l-0.031,0.002l-0.017,0.026l0.008,0.048l-0.019,0.018l-0.038,-0.006l-0.031,0.033l0.005,0.035l-0.014,0.054l-0.022,0.031l0.024,0.077l-0.016,0.036l-0.241,0.115l-0.007,0.049l0.033,0.085l0.043,0.005l0.021,0.029l0.005,0.039l0.054,0.08l0.137,0.041l0.013,0.028l0.034,0.014h0.092l0.032,0.04l-0.009,0.115l-0.019,0.027l0.002,0.026l0.024,0.025l0.007,0.068l0.029,0.022l0.061,-0.01l0.026,0.028l0.023,0.106l0.035,0.034l0.003,0.035l-0.015,0.042l0.01,0.062l0.064,0.073l0.004,0.028l0.114,0.052l0.042,-0.021l0.03,0.019l-0.004,0.063l-0.022,0.028v0.038l0.022,0.033l-0.005,0.087l0.033,0.036l0.026,0.066v0.08l0.082,0.059h0.097l0.026,0.018l0.007,0.031l0.028,0.019l0.04,0.007l0.095,0.071l0.009,0.099l0.031,0.044l0.037,0.008l0.015,0.028l-0.015,0.032l0.015,0.022l0.11,0.03h0.088l0.02,-0.018h0.019l0.022,0.023l0.082,0.035l0.035,0.001l0.007,-0.022l-0.014,-0.054l0.024,-0.014l0.057,0.002l0.066,0.031l0.085,0.007l0.117,0.045l0.12,0.123l0.073,0.02l0.012,0.067l-0.014,0.054l0.026,0.056l0.063,0.015l0.024,0.02l0.012,0.041l0.047,0.025l0.035,0.003l0.024,0.031l-0.009,0.042l0.026,0.03l0.054,0.013l0.012,0.018l-0.013,0.047l0.013,0.021l0.052,0.018l0.054,0.065l0.113,0.065l0.015,0.055l-0.018,0.049l0.005,0.055l0.104,0.063l0.105,0.044h0.06l0.101,-0.023l0.065,0.007l0.196,0.138l0.008,0.04l0.08,0.062l0.04,0.047l0.036,0.01l0.036,0.032l-0.002,0.041l0.029,0.079l-0.016,0.031l0.005,0.036l0.031,0.026v0.026l-0.02,0.021l0.005,0.052l0.12,0.081l0.052,0.013l0.083,0.042l0.063,0.063l0.041,0.002l0.024,-0.021l0.005,-0.083l0.013,-0.026l0.07,-0.008l0.042,0.016l0.123,-0.003l0.052,0.034v0.047l0.044,0.049h0.026l0.016,-0.026l0.044,-0.002l0.011,0.026l-0.014,0.026l0.047,0.055l0.008,0.036l0.055,0.094l0.055,0.044l0.002,0.031l0.021,0.019l0.052,0.005l0.045,-0.013l0.07,0.005l0.034,-0.031l0.028,0.005v0.031l0.042,0.063l0.055,0.148l0.042,0.024l0.023,-0.013l0.039,0.013l-0.005,0.026l0.078,0.107l0.005,0.041l-0.021,0.037v0.034l0.037,0.026l0.083,0.005l-0.005,0.041l-0.049,0.032l-0.021,0.038l0.003,0.057l-0.021,0.047l-0.057,0.046v0.026l0.044,0.016l0.026,0.028l0.065,0.003l0.013,0.026l-0.034,0.018l-0.031,-0.008l-0.021,0.013l0.018,0.106l-0.018,0.065l0.023,0.05l-0.007,0.083l-0.057,0.073l0.008,0.06l-0.024,0.05l-0.034,0.011l-0.057,0.071l-0.031,0.003l-0.015,-0.043h-0.031l-0.021,0.056l0.008,0.076l-0.016,0.042h-0.034l-0.023,0.024v0.029l-0.031,0.013l-0.057,-0.016l-0.094,-0.068l-0.052,-0.008l-0.036,-0.021l-0.013,-0.055l-0.052,-0.032h-0.041l-0.05,-0.021l-0.057,-0.055l-0.044,0.002l-0.021,0.037l-0.064,0.003l-0.172,-0.129h-0.049l-0.018,0.036l0.013,0.04l-0.062,0.045h-0.032l-0.02,0.01v0.032l-0.039,0.003l-0.047,-0.029l-0.044,0.013l-0.005,0.045l0.039,0.042l0.005,0.034l-0.016,0.026l0.003,0.032l0.031,0.034l0.005,0.042l-0.093,0.185l-0.008,0.066l0.029,0.074l-0.006,0.06l-0.046,0.085l-0.013,0.113l-0.042,0.068l-0.109,0.061l-0.181,0.169l-0.177,0.097l-0.127,0.037l-0.202,-0.002l-0.112,0.015l-0.112,0.056l-0.088,0.018l-0.085,-0.002l-0.055,0.015l-0.041,0.032l-0.179,0.069l-0.045,0.073l-0.137,0.106l-0.07,0.023l-0.101,-0.005l-0.177,0.027l-0.041,0.042l-0.005,0.063l-0.083,0.132l-0.034,0.021h-0.034l-0.057,0.029l-0.042,0.089l-0.031,0.011l-0.049,-0.016l-0.036,0.016v0.034l-0.026,0.042v0.08l0.02,0.068l0.05,0.055l0.288,0.224l0.041,0.079l0.034,0.14l0.036,0.05l0.055,0.027l0.075,0.01l0.031,0.021v0.04l0.021,0.013l0.036,-0.005l0.021,0.016l0.018,0.076l0.213,0.335l-0.013,0.055l-0.047,0.04l-0.049,0.097l-0.086,0.106l-0.036,0.015l-0.034,0.05v0.021l0.039,0.008l0.005,0.035l-0.041,0.071l-0.047,0.008l-0.046,0.068v0.037l0.07,0.048l0.131,0.023l0.113,-0.01l0.065,-0.057l0.052,-0.003l0.08,0.049l0.057,0.062l0.052,0.031l0.023,0.047l-0.01,0.049l0.01,0.029l0.034,0.038l0.031,0.094l-0.011,0.046l-0.041,0.021l-0.065,0.09l0.013,0.047l-0.018,0.031l-0.072,0.016l-0.013,0.046l0.039,0.039v0.041l-0.068,0.086l-0.005,0.033l0.054,0.037l0.006,0.088l-0.019,0.057l-0.064,0.036l-0.008,0.039l-0.057,0.046l-0.044,-0.015l-0.021,-0.044l-0.049,-0.016l-0.033,0.026l-0.042,-0.008l-0.155,-0.077l-0.109,-0.081v-0.028l-0.028,-0.026l-0.049,-0.005l-0.052,-0.036l-0.01,-0.049l-0.021,-0.016l-0.096,-0.005l-0.08,-0.047l-0.041,-0.052l-0.019,-0.049l0.042,-0.057l0.01,-0.038l0.07,-0.05l0.036,0.006l0.005,-0.021l-0.121,-0.091l-0.052,-0.013l-0.057,-0.057l0.003,-0.028l0.059,-0.023l0.026,-0.062l-0.021,-0.006l-0.031,0.034h-0.057l-0.028,-0.041l-0.059,-0.016l-0.039,0.013l-0.034,-0.003l-0.041,-0.025l-0.122,0.002l-0.065,0.049l-0.057,-0.005l-0.02,-0.013l-0.078,0.016l-0.088,0.09l-0.031,0.075l-0.049,0.013l-0.083,-0.013l-0.057,0.008l-0.057,0.042l-0.046,-0.011l-0.034,-0.044l-0.062,-0.033l-0.041,-0.032l-0.037,-0.082l-0.033,-0.016l-0.016,-0.034l0.013,-0.054l-0.013,-0.023h-0.044l-0.194,0.049h-0.052l-0.036,-0.028l-0.083,-0.019l-0.168,0.021l-0.075,0.057l-0.036,-0.003l-0.047,-0.075l0.011,-0.067l0.064,-0.075l0.011,-0.039l-0.029,-0.031l-0.036,0.005l-0.08,0.106l-0.093,0.037l-0.062,0.039h-0.044l-0.029,0.028l0.021,0.07l0.044,0.041l0.065,0.122l0.028,0.15l-0.026,0.036l-0.077,0.018l-0.011,-0.018l0.023,-0.02l-0.012,-0.026l-0.06,0.007l-0.067,0.034h-0.047l-0.075,-0.023l-0.121,-0.003l-0.06,-0.028l-0.083,0.002l-0.039,0.018h-0.041l-0.057,-0.049l-0.062,0.013l-0.031,0.029l-0.031,0.005l-0.029,-0.016l-0.173,0.016l-0.057,0.026h-0.036l-0.142,0.031l-0.034,0.085l-0.044,0.003l-0.059,-0.024l-0.166,-0.02l-0.075,0.015l-0.173,-0.005l-0.073,0.026h-0.093l-0.078,-0.044l-0.026,0.008l0.003,0.041l-0.026,0.008l-0.036,-0.018l-0.049,0.015v0.055l-0.062,0.08l-0.016,0.129l-0.07,0.052l-0.16,0.013l-0.044,0.023l-0.036,0.003l-0.091,-0.021h-0.101l-0.023,-0.028l-0.031,-0.003l-0.049,0.036l-0.052,0.081l-0.062,0.049l-0.018,0.044l0.02,0.018l0.044,-0.003l0.031,0.021l0.021,0.06l-0.01,0.023l-0.124,-0.018l-0.05,0.01l-0.103,-0.013l-0.049,0.023l-0.031,0.052l-0.06,0.013l-0.031,0.013l-0.005,0.062l-0.036,0.062l-0.047,0.018l-0.064,-0.005l-0.096,0.013l-0.013,-0.023l0.07,-0.096l0.033,-0.028l-0.013,-0.021l-0.095,0.005l-0.039,-0.013l-0.036,0.003l-0.016,0.028l-0.147,0.021l-0.06,0.036h-0.054l-0.023,0.031l0.005,0.039l-0.039,0.016l-0.321,-0.003l-0.103,0.01l-0.099,-0.028l-0.015,-0.042l0.033,-0.038l0.037,-0.013l0.002,-0.029l-0.08,-0.09l-0.132,-0.101l-0.003,-0.031l0.024,-0.013v-0.026l-0.106,-0.013l-0.104,0.026l-0.031,-0.036l0.016,-0.063l0.155,-0.059l-0.008,-0.021l-0.049,-0.008l-0.036,-0.059l-0.031,-0.013l-0.104,0.005l-0.049,0.029l-0.091,0.007l-0.033,0.029h-0.049l-0.068,0.023l-0.051,-0.031l-0.018,-0.052l-0.081,-0.02l-0.072,-0.003l-0.078,-0.031l-0.008,-0.036l-0.031,-0.024l-0.183,0.003l-0.062,-0.041l-0.094,-0.008l-0.044,0.049v0.041l-0.031,0.068l-0.028,0.005l-0.028,-0.016l-0.125,0.011l-0.119,-0.018l-0.085,-0.055l-0.057,-0.01v-0.023l0.075,-0.07l0.005,-0.049l-0.036,-0.013l-0.062,0.013l-0.057,-0.006l-0.018,0.026l0.01,0.044l0.042,0.018l0.02,0.065l-0.041,0.104l-0.003,0.049l-0.018,0.065l0.02,0.078l0.031,0.014l0.048,0.005l0.03,0.029l0.003,0.033l-0.012,0.029l0.002,0.052l0.029,0.076l-0.005,0.024l-0.038,0.005l-0.017,0.018l-0.005,0.022l-0.019,0.021l-0.04,0.01l-0.026,0.03l-0.012,0.074l0.01,0.034l-0.013,0.009l-0.035,-0.005l-0.033,0.024l-0.057,0.015l-0.039,0.045l-0.006,0.047l-0.106,0.091l-0.037,0.057l-0.003,0.042l-0.066,0.039l-0.048,-0.001l-0.04,0.024l-0.039,0.005l-0.049,0.052l-0.053,0.001l-0.033,0.025l-0.033,0.008l-0.039,0.043h-0.03l-0.034,-0.022l-0.085,-0.002l-0.062,0.028l-0.029,-0.004l-0.007,-0.039l0.021,-0.071l0.019,-0.004l0.019,0.011l0.051,-0.023l0.042,-0.055l-0.004,-0.038l-0.041,-0.027l-0.002,-0.016l0.021,-0.014l0.003,-0.036l0.035,-0.036l0.009,-0.035l0.062,-0.083l0.001,-0.046l-0.019,-0.021l-0.026,-0.002l-0.037,0.028l-0.044,-0.01l-0.029,-0.03l-0.046,-0.003l-0.04,0.029l-0.002,0.054l-0.024,0.019l-0.107,-0.002l-0.043,-0.026l-0.028,0.002l-0.041,0.071h-0.024l-0.049,-0.156l0.006,-0.034l-0.05,-0.047l0.003,-0.019l0.078,-0.019l0.031,-0.034l0.001,-0.028l-0.029,-0.031l-0.012,-0.088l-0.022,-0.009l-0.019,0.016l-0.047,-0.012l-0.052,-0.045l0.002,-0.031l-0.033,-0.054l-0.053,-0.005l-0.08,0.023l-0.053,-0.009l-0.022,-0.055l0.012,-0.021l-0.004,-0.019l-0.084,-0.062l-0.012,-0.031l0.001,-0.05l0.019,-0.035l-0.01,-0.015l-0.031,0.009l0.003,0.029l-0.012,0.017l-0.062,-0.012l-0.048,0.035l-0.048,-0.009l-0.038,-0.045l-0.087,-0.015l-0.024,0.015v0.054l-0.027,0.007l-0.059,-0.045l-0.11,-0.033l-0.018,-0.035l0.025,-0.105l-0.013,-0.052l-0.07,-0.031l-0.078,-0.008l-0.041,0.017l-0.069,0.09l-0.005,0.034l-0.057,0.092l-0.005,0.041l-0.674,-0.003l-0.161,-0.014l-0.238,-0.264l-0.662,-0.292l-0.079,-0.006l-0.071,0.022l-0.162,-0.01l-0.037,0.001l-0.04,-0.019l-0.024,-0.024l-0.062,0.008l-0.062,-0.01l-0.054,-0.036l-0.064,-0.018l-0.132,-0.013l-0.072,-0.026l-0.085,0.003l-0.103,0.043l-0.093,0.062l-0.181,0.062l-0.069,0.003l-0.031,-0.013l-0.037,-0.03l-0.007,-0.06l-0.066,-0.052l-0.012,-0.046l0.021,-0.019l0.06,0.014l0.005,-0.021l-0.022,-0.027l-0.05,-0.002l-0.051,-0.034l-0.076,-0.012l-0.048,-0.045l0.007,-0.022l-0.012,-0.033l-0.024,0.002l-0.021,0.036l-0.05,0.007l-0.046,0.063l0.024,0.033l0.06,0.008l0.038,0.047l-0.016,0.063l-0.022,0.019l-0.04,-0.009l-0.099,-0.054l-0.088,-0.011l-0.012,-0.025l0.022,-0.066l-0.014,-0.027l-0.055,-0.026l-0.001,-0.045l0.034,-0.056l0.055,-0.014l0.004,-0.031l-0.064,-0.044h-0.057l-0.039,0.029l-0.026,-0.005l-0.016,-0.038l-0.001,-0.046l-0.019,-0.04l-0.074,-0.031l-0.002,-0.024l-0.026,-0.01l-0.027,0.044l0.014,0.037v0.053l-0.043,0.051h-0.03l-0.025,-0.029l-0.002,-0.043l-0.019,-0.022l-0.003,-0.031l0.015,-0.028v-0.018l-0.028,-0.016l-0.048,-0.008l-0.039,0.006l-0.06,-0.012l-0.009,-0.017l-0.021,-0.003l-0.013,0.046l0.012,0.028l0.036,0.012l0.003,0.025l-0.024,0.021h-0.034l-0.036,-0.021l-0.086,0.028l-0.016,0.024l-0.022,0.002l-0.017,-0.018l-0.023,-0.001l-0.032,0.02l-0.047,0.002l-0.055,0.039l-0.02,0.045l-0.052,0.064l-0.003,0.03l0.018,0.021l-0.003,0.029l-0.034,0.005l-0.064,0.042l-0.033,0.008l-0.031,0.029l-0.005,0.036l0.035,0.047l-0.004,0.02l-0.034,0.007l-0.012,0.029l0.019,0.028l0.06,0.012l0.046,0.036l0.057,0.015l0.022,-0.012l0.018,0.004l0.001,0.053l0.026,0.022l0.014,-0.01l-0.009,-0.026l0.019,-0.008l0.038,0.029l0.017,0.002l0.005,-0.018l0.128,-0.007l0.01,-0.018l-0.009,-0.038l0.012,-0.009l0.021,0.019l0.019,-0.003l-0.004,-0.033l0.045,-0.024l0.029,0.005l0.016,0.021l0.041,0.01l0.05,-0.015l0.034,-0.029h0.028l0.002,0.018l0.074,0.076l0.001,0.029l-0.034,0.033l-0.031,0.001l-0.007,-0.017l0.014,-0.031l-0.023,-0.012l-0.039,0.036l-0.005,0.067l0.029,0.05l-0.005,0.04l-0.069,0.065h-0.034l-0.028,-0.012l-0.015,-0.021l0.008,-0.026l0.024,-0.01l0.004,-0.026l-0.064,-0.041l-0.039,0.002l-0.03,-0.014l-0.02,-0.024h-0.054l-0.01,0.041l-0.033,0.03l-0.11,0.027l-0.061,0.045l0.008,0.056l0.043,0.021l0.047,-0.007l0.024,0.005l-0.004,0.022l-0.191,0.06l-0.063,-0.006l-0.083,-0.031l-0.036,0.003l-0.024,0.034h-0.029l-0.059,-0.012l-0.082,-0.006l-0.059,-0.012l-0.086,-0.076l-0.008,-0.06l-0.026,-0.027l-0.052,-0.009l-0.017,0.012l-0.026,-0.003l-0.013,-0.024l-0.073,0.003l-0.037,0.038h-0.024l-0.037,-0.06l-0.039,-0.006l-0.038,0.018l-0.045,0.06l-0.084,0.043l-0.038,-0.014l-0.039,0.02l-0.007,0.026l-0.022,0.021h-0.071l-0.038,0.039l-0.005,0.045l-0.029,0.027h-0.04l-0.039,-0.022h-0.05l-0.081,0.053l-0.055,0.002l-0.069,-0.027l-0.156,0.006l-0.076,0.054l-0.079,-0.014l-0.033,-0.036l0.002,-0.074l-0.033,-0.051l-0.056,-0.026l-0.095,-0.004l-0.046,0.026l-0.045,-0.002l-0.046,-0.015l-0.04,0.021l-0.021,0.051l-0.067,0.07l-0.278,0.062l-0.072,0.04l-0.09,-0.016l-0.039,-0.034l-0.047,-0.021l-0.058,-0.058l0.01,-0.014l0.05,0.014l0.086,-0.012l0.058,-0.019l0.007,-0.021l-0.022,-0.012l-0.029,-0.042l0.003,-0.023l0.036,-0.038l-0.012,-0.01l-0.046,0.033l-0.057,-0.014l-0.048,0.007l-0.084,0.079l-0.04,-0.002l-0.029,-0.027l-0.08,-0.036l0.014,-0.058l-0.013,-0.03l-0.044,-0.017l-0.021,-0.033l0.003,-0.043l-0.034,-0.045l-0.061,-0.026l-0.066,-0.023l-0.028,-0.063l0.006,-0.057l-0.032,-0.055l0.004,-0.043l0.073,-0.048l0.048,-0.05l0.007,-0.078l-0.085,-0.126l-0.003,-0.093l0.05,-0.097l0.014,-0.067l0.044,-0.069l0.017,-0.07l-0.031,-0.101l0.022,-0.063l0.056,-0.038l0.021,-0.046l-0.007,-0.097l0.021,-0.071l0.087,-0.074l0.054,-0.078l0.005,-0.064l-0.052,-0.091l-0.123,-0.084l-0.005,-0.031l0.021,-0.042l-0.002,-0.043l-0.012,-0.074l0.003,-0.073l0.035,-0.043l0.007,-0.045l-0.007,-0.048l0.005,-0.036l0.057,-0.042l0.023,-0.034l-0.006,-0.079l0.063,-0.122l0.065,-0.119l0.08,-0.091l0.1,-0.34l0.035,-0.036l0.115,-0.05l0.04,-0.06l-0.045,-0.244l0.01,-0.093l0.115,-0.246l0.011,-0.133l0.023,-0.05l0.081,-0.036l0.035,-0.068l-0.011,-0.062l0.004,-0.254l0.017,-0.055l0.061,-0.095l0.059,-0.141l0.179,-0.099l0.287,-0.309l0.015,-0.14l0.035,-0.022l0.118,0.002l0.035,-0.03l0.016,-0.078l0.045,-0.039l0.087,0.005l0.055,-0.029l0.077,-0.085l0.055,-0.171l0.096,-0.223l0.203,-0.298l0.138,-0.054l-0.044,-0.038l-0.069,0.024l-0.021,-0.003l-0.005,-0.031l-0.087,-0.014l-0.016,0.012l-0.071,-0.002l-0.084,-0.039l-0.113,-0.018l-0.085,-0.043l-0.088,-0.09l-0.174,-0.058l-0.056,0.012l-0.034,-0.011l-0.009,-0.041l-0.096,-0.062l-0.008,-0.028l-0.044,-0.009l-0.052,0.073l-0.022,0.002l-0.014,-0.019l-0.077,-0.005l-0.076,0.053l-0.042,-0.003l-0.026,-0.035l-0.061,-0.019l-0.092,-0.086l-0.054,-0.012l-0.05,0.017l-0.035,0.05l-0.04,0.022l-0.083,0.007l-0.023,-0.046l-0.019,-0.011l-0.05,0.006l-0.066,-0.016l-0.011,0.014l0.018,0.017l-0.011,0.016l-0.066,0.012l-0.153,-0.045l-0.017,-0.09l-0.037,-0.009l-0.081,-0.036l-0.087,0.021l-0.04,-0.002l-0.103,-0.069l-0.053,-0.107l-0.042,-0.028l-0.018,-0.038l-0.039,-0.02l-0.002,-0.028l0.054,-0.031l0.003,-0.028l-0.029,-0.02l-0.014,-0.049l-0.066,-0.005l-0.039,0.028l-0.033,0.001l-0.026,-0.019l-0.053,0.007l-0.007,-0.015l0.024,-0.023l-0.009,-0.031l0.018,-0.02l-0.014,-0.011l-0.244,0.059l-0.02,0.014l0.005,0.034l-0.021,0.04l0.002,0.041l-0.016,0.021l-0.083,-0.008l-0.082,0.046l-0.061,0.092l-0.029,0.01l-0.056,-0.041l-0.111,-0.026l-0.125,0.019l-0.03,0.029h-0.019l-0.049,-0.052h-0.055l-0.04,0.028l-0.08,-0.021l-0.003,-0.033l-0.03,-0.026l-0.078,-0.003l-0.004,-0.022l0.025,-0.026l-0.011,-0.025l-0.09,0.009l-0.019,0.026l0.029,0.062l-0.005,0.031l-0.043,0.021l-0.021,0.055l-0.049,0.004l-0.042,-0.035l0.013,-0.036l-0.006,-0.059l-0.052,-0.065l-0.007,-0.073l0.016,-0.083l-0.021,-0.033l-0.085,-0.007l-0.03,-0.038l-0.073,-0.036l-0.05,0.012l-0.036,-0.003l-0.046,-0.042l-0.012,-0.034l-0.062,-0.002l-0.033,0.033l-0.068,0.029l-0.125,-0.055l-0.051,0.021l-0.015,0.036l0.026,0.064l0.047,0.059l-0.018,0.031l-0.034,0.003l-0.018,0.019l0.009,0.061l-0.049,0.013l-0.13,-0.058l-0.073,-0.007l-0.132,0.031l-0.078,-0.047l-0.016,-0.065l0.051,-0.111l-0.02,-0.053l-0.033,-0.007l-0.059,0.017l-0.043,-0.026l0.003,-0.131l-0.038,-0.033l-0.05,0.002l-0.012,-0.035l0.019,-0.026l0.014,-0.06l-0.028,-0.017l-0.024,0.01l-0.02,-0.003l-0.001,-0.035l-0.091,-0.069l-0.041,-0.002l-0.087,-0.074l-0.007,-0.031l0.019,-0.031l-0.014,-0.024l-0.038,-0.009l-0.038,-0.038l-0.011,-0.057l0.033,-0.01l0.04,0.041h0.016l0.002,-0.033l0.026,-0.015l0.007,-0.033l-0.02,-0.021l-0.027,0.012l-0.016,-0.007l0.014,-0.065l-0.038,-0.024l-0.049,-0.006l-0.073,-0.057l-0.023,-0.046l0.033,-0.035l0.035,-0.001l0.004,-0.021l-0.063,-0.059l-0.057,-0.008l-0.084,-0.07l-0.046,-0.013l-0.082,-0.054l-0.047,0.002l-0.057,-0.026l-0.025,-0.038l-0.047,0.002l-0.034,0.046l-0.066,0.018l-0.095,-0.016l-0.004,-0.173l-0.05,-0.124l0.016,-0.039l0.073,-0.056l0.007,-0.048l-0.075,-0.064l0.021,-0.028h0.039l0.013,-0.02l-0.024,-0.038l0.013,-0.036l0.081,-0.028l0.086,-0.097l0.073,-0.178l-0.023,-0.016h-0.029l0.005,-0.033l0.107,-0.094l0.091,-0.048l0.045,-0.059l0.036,-0.018l-0.026,-0.041l0.016,-0.02l0.032,0.007l0.009,-0.016l-0.039,-0.037l-0.005,-0.081l0.063,-0.054v-0.092l-0.024,-0.023l0.013,-0.035l0.05,-0.044v-0.028l-0.032,-0.01l-0.046,0.021l-0.11,-0.062h-0.036l-0.066,0.041l-0.174,-0.038l-0.143,-0.15l-0.074,0.01l-0.037,0.047l-0.028,0.007l-0.015,-0.069l-0.031,-0.045l0.001,-0.037l-0.024,-0.008l-0.031,0.015l-0.026,-0.009l-0.009,-0.034l-0.04,-0.017l-0.028,0.006l-0.054,-0.031l-0.078,-0.07l-0.024,-0.051v-0.054l-0.028,-0.022v-0.09l-0.03,-0.032l-0.06,-0.021l-0.011,-0.069l-0.016,-0.005l-0.023,0.002l-0.002,0.021l0.004,0.045l-0.018,0.011l-0.046,-0.051l-0.01,-0.057l0.024,-0.038l-0.026,-0.025l-0.088,-0.033l-0.004,-0.027l0.03,-0.008l0.001,-0.029l-0.059,-0.032l0.002,-0.017h0.03l0.008,-0.029l-0.052,-0.027l-0.002,-0.028l0.016,-0.037l-0.036,-0.064l-0.035,-0.011l0.002,-0.03l0.044,-0.036l-0.003,-0.019l-0.022,0.002l-0.004,-0.015l0.023,-0.022l0.002,-0.019l-0.015,-0.018l0.005,-0.015l0.027,0.004l0.003,-0.013l-0.016,-0.018l0.008,-0.015l0.024,-0.001l0.007,-0.014l-0.014,-0.012l0.012,-0.03l-0.015,-0.021l0.026,-0.037v-0.022l0.025,-0.045l0.054,-0.064l-0.01,-0.027l-0.054,0.004l-0.012,-0.029l0.034,-0.016l0.013,-0.023l-0.017,-0.025l0.024,-0.039l0.106,-0.007l0.025,-0.041l0.002,-0.094l-0.056,-0.086l0.027,-0.057l0.065,-0.014l0.036,-0.037l0.02,-0.054l0.162,-0.053l0.072,0.007l0.03,-0.046l0.007,-0.096l0.08,-0.116l0.079,-0.005l0.089,0.033h0.076l0.028,-0.049l0.058,-0.006l0.013,-0.058l-0.202,-0.198l-0.002,-0.048l0.063,-0.078l0.039,-0.184l-0.016,-0.053l-0.094,-0.056l-0.023,-0.086l0.023,-0.026l-0.003,-0.019l-0.056,-0.008l-0.089,-0.043l-0.19,-0.01l-0.066,0.026l-0.041,-0.005l-0.067,-0.104l-0.051,-0.008l-0.002,-0.027l0.028,-0.024v-0.029l-0.064,-0.048l0.015,-0.067l0.146,-0.136l0.056,-0.008l0.097,-0.131v-0.04l-0.061,-0.019l-0.189,-0.016l-0.049,0.03l-0.03,-0.014l-0.011,-0.069l0.028,-0.027l-0.043,-0.091l-0.151,-0.176l-0.018,-0.083l-0.066,-0.021l-0.179,-0.019l-0.036,0.024l-0.036,-0.018l0.018,-0.097l-0.096,-0.045z M694.11041,228.869156l-0.029,-0.002l-0.034,-0.032l-0.068,-0.005l-0.044,0.016l-0.26,0.002l-0.104,-0.016l-0.085,0.016l-0.039,0.065l-0.083,0.05l-0.188,0.031l-0.057,-0.016l0.016,-0.023l0.049,0.005l0.042,-0.026l-0.003,-0.044l-0.072,-0.034l-0.024,0.003l0.003,0.049l-0.042,0.073l-0.078,0.026l-0.104,-0.018l-0.065,-0.037l-0.07,-0.008l-0.01,-0.039l0.041,-0.054l0.068,-0.006l0.213,-0.07l0.07,-0.075l0.013,-0.086l-0.041,-0.154l-0.078,-0.068l-0.016,-0.047l0.005,-0.06l0.05,-0.049l0.129,-0.01l0.058,0.031v0.094l-0.029,0.057l-0.008,0.101l0.026,0.008l0.031,-0.067l-0.01,-0.021l0.005,-0.032l0.112,-0.005l0.062,-0.005l0.019,0.018l-0.026,0.026l0.015,0.037l0.073,0.018l0.015,-0.021l-0.007,-0.039l0.031,-0.101l-0.005,-0.123l-0.034,-0.078l-0.055,-0.013l-0.052,0.031l-0.023,-0.026l-0.008,-0.099l-0.031,-0.065l-0.096,-0.052l-0.133,-0.026l-0.059,0.013l-0.011,0.057l0.034,0.05v0.034l-0.096,0.112l-0.078,0.013l-0.031,0.028h-0.029l-0.005,-0.08l0.078,-0.094l-0.008,-0.034l-0.096,-0.018l-0.135,0.065l-0.026,0.047l-0.044,0.028l-0.073,-0.008l-0.024,-0.039l0.021,-0.049l0.037,-0.029l0.054,-0.114l0.044,-0.065l0.013,-0.105l-0.023,-0.052l-0.055,-0.018l-0.052,-0.047l-0.005,-0.039l-0.026,-0.031l-0.047,-0.026l-0.01,-0.084l0.036,-0.059l0.107,-0.024l0.081,0.029l0.015,0.073l0.06,0.112l0.127,0.14l0.208,0.131l0.153,0.033l0.224,0.123l0.049,0.065l0.13,0.099l0.143,0.099l0.156,0.211l0.115,0.086l0.059,0.032z"/>
</svg>
