<svg xmlns="http://www.w3.org/2000/svg" viewBox="796.316 403.164 6.167 6.740">
  <path d="M801.518554,406.849544l0.028667,-0.023455l0.078184,-0.007818l0.020849,0.026061l-0.007818,0.031274l-0.03388,0.010425l-0.067759,-0.007818l-0.018243,-0.028667Z M802.445467,404.070541l0.027799,0.010425l0.010425,-0.012162l-0.008687,-0.019112l-0.024324,-0.00695l-0.013899,0.005212l0.008687,0.022586Z M801.40364,406.882527l0.002769,0.012461l0.024921,0.004154l0.034613,-0.004154l0.005538,-0.016614l-0.040151,-0.005538l-0.02769,0.009692Z  M798.649205,404.063591l0.214,-0.214l0.287,0.104l0.192,0.146l0.131,0.151l0.271,0.24l0.026,-0.07l0.065,-0.034l0.081,-0.008l0.031,-0.06l0.083,-0.052l0.115,-0.016l0.057,-0.062l-0.002,-0.097l-0.076,-0.078l0.003,-0.094l0.081,-0.107l0.091,-0.031l0.052,-0.057l0.026,-0.115l0.081,-0.086l0.174,-0.052l0.107,-0.073l0.597,-0.235l0.034,0.058l0.05,0.161l0.419,0.514l0.11,0.19l0.033,0.021l0.053,-0.031l0.026,0.01l0.02,0.133l0.105,0.188l0.054,0.221l-0.005,0.091l0.026,0.071l0.089,0.101l0.044,0.125l0.013,0.264l-0.013,0.252l-0.13,0.324l-0.083,0.049l-0.188,0.018l-0.037,0.037l-0.088,0.01l-0.131,-0.008l-0.174,0.032l-0.081,0.057l-0.383,0.446l-0.086,0.044l-0.203,0.005l-0.076,0.039l-0.044,0.065l-0.058,0.006l-0.125,-0.039l-0.117,0.002l-0.12,0.055l-0.044,0.047l-0.055,0.026l-0.075,0.008l-0.076,0.054l-0.065,0.11l-0.011,0.06l-0.033,0.049l-0.081,0.05l-0.084,0.109l-0.02,0.099v0.073l-0.055,0.073l-0.107,0.032l-0.11,-0.04l-0.052,-0.007l-0.036,0.015l-0.099,-0.018l-0.06,-0.062l-0.073,-0.011l-0.047,0.034l-0.008,0.034l0.055,0.065l-0.003,0.029l-0.034,0.034v0.033l0.089,0.055l0.19,0.167l0.073,0.008l0.058,-0.021l0.01,-0.034l0.039,-0.01l0.133,0.028l0.031,-0.021l-0.005,-0.057l-0.088,-0.088l0.01,-0.047l0.068,-0.047l0.08,-0.003l0.248,-0.07l0.073,-0.058l0.125,-0.028l0.816,-0.008l0.064,-0.031l0.073,0.003l0.042,0.045l0.083,0.004l0.059,-0.042l0.038,-0.09l0.035,-0.007l0.025,0.041l-0.011,0.115l0.104,0.195l0.042,0.034l0.045,0.004l0.087,0.062v0.098l0.075,0.074l-0.568,0.908l-0.497,0.793l-0.115,0.011l-0.097,0.073h-0.132l-0.094,-0.042l-0.174,-0.014l-0.055,-0.048l-0.011,-0.119l-0.094,-0.156l-0.052,-0.003l-0.187,0.062l-0.049,-0.003l-0.115,-0.125l-0.073,-0.007l-0.066,0.038l-0.027,0.058l-0.419,0.128l-0.181,0.131l-0.088,0.064l-0.213,-0.065l-0.112,0.005l-0.126,0.055l-0.101,0.083l-0.136,0.045l-0.096,-0.011l-0.034,-0.041l-0.083,-0.032l-0.118,-0.002l-0.185,0.08l-0.06,0.06l-0.01,0.063l-0.031,0.023l-0.125,-0.002l-0.06,0.023h-0.052l-0.068,-0.018l-0.042,0.005l-0.034,0.042h-0.057l-0.024,-0.05l0.011,-0.028l-0.008,-0.024l-0.154,-0.005l-0.281,-0.073l-0.123,-0.047l0.003,-0.023l0.075,-0.008l0.003,-0.021l-0.107,-0.034v-0.047l0.033,-0.035l0.052,-1.018l-0.027,-0.306l-0.108,-0.497l0.038,-0.198l0.049,-0.066l0.024,-0.212l0.021,-0.07l0.007,-0.087l0.094,-0.25l0.194,-0.087l0.035,-0.128l0.184,-0.094l0.15,-0.167l0.25,-0.386l0.139,-0.166l0.145,-0.223l0.057,-0.039l0.048,-0.134l0.32,-0.494l0.25,-0.215l0.083,-0.282l0.245,-0.326z"/>
</svg>
