<svg xmlns="http://www.w3.org/2000/svg" viewBox="671.388 208.574 26.405 16.747">
  <path d="M697.778,221.387l0.013,0.013l0.002,0.024l-0.014,0.007l-0.014-0.021l0.002-0.019L697.778,221.387z M672.835,222.465l0.007,0.094l0.107,0.139l0.087,0.014l0.163-0.101l0.01-0.052l-0.042-0.066v-0.215l0.059-0.149l0.062-0.045l0.003-0.045l-0.229-0.104l-0.087,0.021l-0.087,0.146L672.835,222.465L672.835,222.465z M673.092,221.555l0.08-0.056l0.104,0.007l0.024,0.028l-0.045,0.073l-0.097,0.038l-0.059-0.035L673.092,221.555L673.092,221.555z M672.35,220.631l0.08-0.049l0.173,0.007l0.031,0.038l-0.007,0.129l0.045,0.038l0.062-0.035l0.059,0.017l0.049,0.08l-0.013,0.065l-0.033,0.025l-0.014,0.049l0.076,0.108l0.021,0.132l-0.055,0.021l-0.132-0.063l-0.184-0.309l-0.159-0.191V220.631L672.35,220.631z M672.251,220.328l0.021-0.005l0.039,0.029l0.013,0.036l-0.021,0.003l-0.052-0.039V220.328L672.251,220.328z M695.956,222.177l-0.027-0.13l0.036-0.195l0.154-0.208l0.026-0.143l0.063-0.016l0.112,0.086l0.083,0.13l0.318,0.169l0.162,0.042l0.093,0.052l0.168,0.146l0.24,0.128l0.199,0.037l0.049,0.045l-0.028,0.33l-0.122,0.132l-0.007,0.059l0.017,0.083l-0.108,0.142l-0.111,0.01l-0.476-0.111l-0.16-0.104l-0.337-0.118l-0.115-0.007l-0.254-0.16l-0.045-0.09l0.063-0.136L695.956,222.177L695.956,222.177z M684.172,214.112l-0.045-0.09l0.055-0.031l0.173-0.003l0.249-0.066l0.055,0.014l-0.035,0.031l-0.114,0.059l-0.094,0.118l-0.121,0.028L684.172,214.112L684.172,214.112z M681.753,211.16l0.076-0.049l0.146-0.135l0.236-0.038l0.149-0.059l0.322-0.017l0.08-0.024l0.161,0.017l0.052,0.042l-0.012,0.083l-0.038,0.007l-0.049-0.028l-0.173,0.014l-0.166,0.066l-0.003,0.038l0.049,0.01l0.014,0.031l-0.038,0.076l-0.135,0.146l-0.237,0.071l-0.038-0.012l-0.052-0.075l-0.081-0.057l-0.114-0.007l-0.146-0.052V211.16L681.753,211.16z M682.235,211.438l0.097-0.014l0.035,0.024l-0.007,0.024l-0.062,0.024l-0.083-0.003l-0.014-0.031L682.235,211.438L682.235,211.438z M681.944,210.677l-0.013-0.016l0.02-0.029l0.035-0.01l0.016,0.014l-0.01,0.028L681.944,210.677L681.944,210.677z M680.74,209.943l0.018-0.008l0.039,0.018v0.018l-0.026,0.003l-0.029-0.013L680.74,209.943L680.74,209.943z M672.09,213.313l-0.148,0.326l-0.026,0.279l0.01,0.076l0.047,0.039l0.016,0.07h0.021l0.01-0.036l0.021-0.344l0.023-0.008l0.078,0.039l0.065,0.068l0.029,0.151l0.042,0.068l0.062,0.044l0.049,0.068l0.013,0.07l0.036,0.021l0.096,0.008l0.12,0.044l0.073,0.044l0.195,0.154l0.062,0.122l0.029,0.083l0.068,0.042l0.061,0.007l0.005-0.021l-0.063-0.023l-0.008-0.029l0.039-0.039l0.14-0.018l0.037-0.016l0.024-0.108l-0.024-0.066l-0.042-0.034l-0.026-0.06l0.021-0.073l0.029-0.047l-0.018-0.029l-0.065-0.008l-0.096,0.031l-0.078,0.065l-0.068,0.013l-0.068-0.042l-0.01-0.029l-0.049-0.018l-0.068,0.01l-0.036,0.034l-0.052,0.013l-0.057-0.008l-0.018-0.023l0.026-0.031l0.049-0.002l0.073-0.053l0.065-0.008l0.075,0.023l0.034,0.042l0.062,0.016l0.031-0.008l0.005-0.031l0.037-0.043l-0.002-0.017l-0.03-0.007l-0.005-0.021l0.013-0.029l-0.021-0.021l-0.052,0.005l-0.075-0.018l-0.01-0.034l0.036-0.109l0.036-0.031l0.005-0.034l-0.096-0.089v-0.055l0.039-0.044l0.125-0.06l0.047-0.005l0.023-0.016v-0.026l0.018-0.021l0.105,0.006l0.064-0.03l0.137-0.148l0.029-0.078l-0.003-0.12l0.061-0.136l0.042-0.026l0.016-0.034l-0.003-0.044l0.048-0.072l0.139-0.023l0.167,0.037l0.117-0.042l0.034-0.042l0.169-0.052l0.013-0.034l-0.062-0.06l-0.086-0.036l-0.003-0.029l0.039-0.008l0.07,0.044l0.099,0.003l0.018-0.026l-0.034-0.083l0.013-0.044l0.034-0.01l0.044,0.049l0.013,0.112l0.036,0.104h0.042l0.083-0.138l0.065-0.023l0.07-0.003l0.049-0.016l0.044-0.044l0.101-0.016l0.062,0.016l0.018,0.042l0.039,0.005l0.044-0.055l0.229-0.099l0.055,0.003l0.109,0.078l0.055,0.016l0.146,0.13l0.073,0.016l0.091-0.01l0.083-0.031l0.091-0.073l0.515-0.125l0.104-0.029l0.25-0.003l0.075,0.016l0.06-0.01l0.016-0.029l0.047-0.01l0.039,0.005l0.044-0.013l0.029-0.042l0.133-0.063l0.081,0.016l0.052,0.039l0.034,0.008l0.101-0.021l0.083-0.031l0.081-0.115l0.036-0.005l0.005-0.021l-0.044-0.023l0.01-0.023l0.044,0.005l0.114,0.049l0.153,0.096l0.042,0.039l0.083,0.034l0.057,0.003l0.078,0.039l0.047-0.003l0.088-0.128l0.107-0.044l0.078,0.008l0.065,0.073l0.12,0.081l0.109,0.034l0.255,0.18l0.034,0.055l0.205,0.104h0.114l0.078-0.034l0.094,0.005l0.065,0.016l0.039-0.005l0.156-0.336l0.078-0.328l0.156-0.292l0.166-0.167l0.197-0.083l0.042-0.115l-0.13-0.566l-0.003-0.222l0.04-0.191l0.095-0.059l0.014-0.049l-0.068-0.111l-0.317-0.318l-0.094-0.203l0.01-0.161l0.08-0.179l0.243-0.278l0.184-0.149l0.09-0.021l0.194-0.125l0.014-0.038l-0.094-0.035l-0.211,0.021l-0.204,0.111l-0.703,0.483l-0.291,0.142l-0.294,0.087l-0.218,0.017l-0.357-0.003l-0.114-0.042l-0.094,0.014l-0.087,0.08l-0.104,0.181l-0.152,0.184L677.79,210l-0.09,0.115l-0.17,0.337l-0.405,0.566l-0.305,0.337l-0.405,0.267l-0.194,0.087l-0.267,0.035l-0.197,0.056l-0.298,0.028l-0.187-0.01l-0.322-0.097l-0.215,0.003l-0.125,0.049l-0.187,0.111l-0.298,0.104l-0.215,0.042l-0.083-0.003l-0.227-0.084l-0.127-0.018l-0.062-0.023l-0.104,0.005l-0.218,0.273l-0.117,0.115l-0.088,0.018l-0.068,0.047l-0.091,0.143l-0.218,0.24l-0.062,0.021l-0.026,0.06L672.09,213.313L672.09,213.313z M681.842,211.299l-0.007-0.017l0.024-0.007l0.059,0.01l0.009,0.014l-0.021,0.012L681.842,211.299L681.842,211.299z M680.831,210.026l-0.016-0.021l0.016-0.018h0.026l0.013,0.023l-0.016,0.018L680.831,210.026L680.831,210.026z M678.012,212.179l0.031,0.033l-0.005,0.023l-0.043,0.028l-0.078,0.002l-0.055-0.03l-0.028-0.031l0.017-0.028l0.085-0.014L678.012,212.179L678.012,212.179z M676.865,212.502l0.007-0.019l0.024-0.002l0.038,0.024l-0.002,0.024l-0.031,0.003L676.865,212.502L676.865,212.502z M677.017,212.624l0.04,0.009l0.021,0.014l-0.01,0.014l-0.04-0.005l-0.023-0.014L677.017,212.624L677.017,212.624z M675.739,212.645l-0.014-0.012l0.016-0.017l0.038-0.007l0.014,0.005l-0.005,0.019l-0.028,0.012H675.739L675.739,212.645z M675.068,213.096l0.05-0.045l0.04,0.005l0.038,0.083v0.045l-0.014,0.007l-0.055-0.024l-0.047-0.033L675.068,213.096L675.068,213.096z M674.935,213.49l-0.045,0.083l-0.042,0.026l-0.024-0.002l-0.135-0.141l-0.047-0.023l0.003-0.026l0.101-0.014l0.107-0.042l0.125-0.005l0.085,0.017l-0.002,0.016l-0.021,0.016l-0.002,0.033l0.019,0.014l0.028-0.005l0.017,0.016l-0.048,0.049h-0.045l-0.028-0.017L674.935,213.49L674.935,213.49z M673.459,215.036l-0.024-0.002l-0.038-0.057l-0.014-0.083l0.017-0.075l0.055-0.061l0.023,0.002l0.033,0.023l-0.003,0.036l-0.043,0.04l-0.019,0.08l0.023,0.045L673.459,215.036L673.459,215.036z M673.428,214.489l-0.099-0.064l-0.04-0.056l0.009-0.042l0.076-0.023l0.09,0.023l0.009,0.035l-0.019,0.122L673.428,214.489L673.428,214.489z M673.114,214.131l-0.038-0.007l0.002-0.016l0.019-0.009h0.023l0.012,0.019L673.114,214.131L673.114,214.131z M673.184,214.095l-0.026-0.057l0.012-0.028l0.055-0.012l0.04,0.01l0.026,0.05l-0.01,0.021l-0.064,0.024L673.184,214.095L673.184,214.095z M673.55,214.259h-0.07l-0.047-0.042l-0.003-0.07l-0.12-0.161l-0.036-0.031l-0.031-0.003l-0.01,0.018h-0.034l-0.044-0.044l-0.055-0.003l-0.075,0.057l-0.047-0.003l-0.021-0.042l0.034-0.057l0.078-0.047l0.068-0.008l0.026-0.031l-0.052-0.109l0.018-0.026l0.055-0.003l0.06-0.042h0.083l0.083,0.026l0.125-0.052l0.039-0.052l-0.023-0.026l-0.094-0.026h-0.068l-0.021-0.026l0.034-0.029l0.083-0.005l0.005-0.023l-0.031-0.016l-0.005-0.034l0.047-0.039v-0.128l0.034-0.049l0.062-0.021l0.088,0.016l0.083-0.018l0.044,0.016l0.042-0.003l0.052-0.042l0.13-0.029l0.06,0.005l0.049-0.023l0.029-0.065v-0.039l0.094-0.117l0.039-0.016l0.094,0.008l0.081-0.057l0.023-0.057l0.021-0.01l0.01,0.042l-0.023,0.047l-0.031,0.029l-0.01,0.081l0.042,0.068l-0.008,0.049l-0.031,0.034l-0.052,0.188l-0.023,0.005l-0.042-0.049l-0.049-0.021l-0.068,0.003l-0.06,0.065l0.003,0.049l0.029,0.047l0.018,0.065l0.003,0.055l0.044,0.07l0.078,0.068l-0.01,0.068l-0.049,0.052l-0.039,0.013l-0.031,0.039l-0.003,0.063l-0.07,0.115l-0.096,0.049l-0.086,0.089l-0.008,0.039l0.016,0.023l-0.013,0.026l-0.143,0.063l-0.062,0.008l-0.049-0.01L673.55,214.259L673.55,214.259z M684.843,216.689l0.052,0.005l0.013,0.021l-0.018,0.018l-0.039-0.003l-0.023-0.023L684.843,216.689L684.843,216.689z M675.507,213.973l0.021-0.009l0.031,0.016l-0.002,0.016l-0.026,0.01l-0.021-0.01L675.507,213.973L675.507,213.973z M688.743,219.533l0.065-0.003l0.039,0.042l0.003,0.138l0.039,0.094l-0.049,0.042l-0.052-0.01l-0.081-0.086l-0.023-0.104L688.743,219.533L688.743,219.533z M688.682,219.346l-0.01-0.011l0.011-0.01h0.015l0.012,0.008l-0.006,0.011L688.682,219.346L688.682,219.346z M688.446,219.25l-0.007-0.008l0.006-0.01l0.015-0.001l0.008,0.007l-0.001,0.012H688.446L688.446,219.25z M682.561,218.2l0.066,0.017l0.253,0.156l0.142,0.122l-0.024,0.017l-0.198-0.063l-0.242-0.177l-0.024-0.056L682.561,218.2L682.561,218.2z M683.302,218.953l-0.024-0.069l0.024-0.021l0.042,0.021l0.049,0.125l-0.028,0.007L683.302,218.953L683.302,218.953z M679.238,219.828l-0.013,0.026l-0.026-0.003l-0.013-0.034l0.008-0.029l-0.008-0.06l-0.049-0.052l0.021-0.023h0.055l0.034,0.023l-0.005,0.031l-0.021,0.029v0.063L679.238,219.828L679.238,219.828z M679.503,219.104l-0.083,0.008l-0.01-0.031l0.057-0.034l0.14-0.01l0.042-0.039l0.018-0.083l0.018-0.023l0.031,0.003l0.031,0.081l-0.003,0.104l-0.029,0.057l-0.068,0.003l-0.065-0.023L679.503,219.104L679.503,219.104z M678.519,218.462h0.054l0.002,0.016l-0.031,0.012h-0.035l-0.005-0.017L678.519,218.462L678.519,218.462z M678.755,218.695l0.005-0.026l0.033-0.01l0.064,0.007l0.035,0.03l-0.007,0.028l-0.038,0.012l-0.066-0.017L678.755,218.695L678.755,218.695z M678.673,218.591l0.003-0.043l0.045-0.066l0.052-0.017l0.158,0.026l0.031,0.019l-0.01,0.012h-0.047l-0.064,0.049l-0.078,0.007l-0.068,0.024L678.673,218.591L678.673,218.591z M679.553,218.294l0.009-0.017l0.026-0.007l0.012,0.009l-0.016,0.021l-0.023,0.009L679.553,218.294L679.553,218.294z M680.061,218.037l-0.029-0.033l0.005-0.017l0.052-0.005l0.107,0.03l0.01,0.028l-0.016,0.024l-0.031,0.01L680.061,218.037L680.061,218.037z M681.473,217.061l0.033-0.011l0.026,0.003l0.001,0.015l-0.015,0.011l-0.033,0.001l-0.017-0.007L681.473,217.061L681.473,217.061z M681.303,218.035l0.035,0.003l0.036,0.019l-0.005,0.016l-0.016,0.003l-0.043-0.014l-0.014-0.017L681.303,218.035L681.303,218.035z M680.868,218.337l0.009-0.012l0.038,0.009l0.007,0.014l-0.014,0.009l-0.024-0.005L680.868,218.337L680.868,218.337z M680.917,218.306l0.005-0.016l0.017-0.005l0.012,0.012l-0.012,0.017l-0.014,0.003L680.917,218.306L680.917,218.306z M680.936,218.391l-0.005-0.016l0.014-0.007l0.019,0.002l0.005,0.012l-0.012,0.009H680.936L680.936,218.391z M680.485,217.863l0.09-0.083l0.042,0.007l0.021,0.129l0.097,0.184l0.083,0.063l0.114,0.035l0.007,0.028l-0.104,0.017l-0.017,0.052l0.031,0.094l0.045,0.042l0.073,0.01l0.069-0.056l0.024,0.003l0.007,0.059l-0.028,0.045l-0.066,0.042l-0.062,0.132v0.094l0.014,0.056l-0.007,0.059l-0.069,0.135l-0.042,0.01l-0.069-0.024l-0.073-0.003l-0.069,0.003l-0.042-0.021l-0.069-0.104l0.007-0.257l0.038-0.104l0.052-0.021l0.049,0.007l0.049-0.01l0.052-0.09l0.021-0.108l-0.007-0.059l-0.066-0.083l-0.087-0.035l-0.052-0.003l-0.048-0.031l-0.042-0.111L680.485,217.863L680.485,217.863z M677.365,220.39l-0.018-0.042l0.023-0.023l0.052,0.003l0.088,0.052h0.088l0.07-0.07l-0.005-0.081l0.023-0.029l0.083-0.023l0.057-0.042l0.109-0.003l0.042,0.034l0.003,0.104l0.052,0.073l0.148,0.023l0.146-0.016l0.283-0.175l0.031-0.044l0.07-0.034l0.107-0.01l0.156-0.076l0.12-0.016l0.151-0.044l0.052-0.031l0.073-0.055l0.187-0.016l0.029,0.029l-0.003,0.078l0.031,0.026l0.078-0.008l0.021-0.036l-0.049-0.057l-0.036-0.089l0.031-0.029l0.078,0.013l0.156,0.094l0.104,0.029l0.122,0.068l0.088,0.081l0.294,0.159l0.104,0.089l0.018,0.034l-0.021,0.008l-0.075-0.034l-0.042-0.065l-0.086-0.047l-0.036,0.003l-0.057,0.057v0.031l0.094,0.128l-0.013,0.021h-0.047l-0.042,0.049l-0.061,0.023l-0.079,0.1l-0.005,0.055l-0.018,0.047l0.008,0.026l0.138,0.01l0.073-0.031l0.029-0.042l-0.044-0.094l0.018-0.01l0.094,0.029l0.052-0.01l0.031-0.036l0.031-0.008l0.039,0.01l0.06-0.008l0.029-0.031l0.07-0.008l0.055,0.013l0.034-0.031l-0.003-0.065l-0.029-0.036l-0.125-0.039l-0.042-0.029l-0.003-0.031l0.049-0.034l0.052,0.005l0.039,0.052l0.065,0.016l0.021-0.018l-0.036-0.076l-0.003-0.06l-0.057-0.065l-0.023-0.096l0.018-0.008l0.042,0.073l0.036,0.031h0.026l0.008-0.044l-0.013-0.089l-0.047-0.099l-0.075-0.016l-0.036-0.042v-0.034l0.018-0.003l0.029,0.047l0.049,0.01l0.013-0.021h0.023l0.109,0.117l0.109,0.185l0.075,0.057l0.023,0.052l-0.005,0.047l0.047,0.096l0.091,0.078l0.029,0.068l-0.021,0.031l-0.055,0.005l-0.047-0.008l-0.073,0.016l-0.099,0.052L681,220.667l-0.083,0.023l-0.099-0.013l-0.07-0.047l-0.107,0.005l-0.06,0.052l0.005,0.073l0.075,0.052l0.026-0.005l0.005-0.044l-0.026-0.047l0.013-0.047h0.062l0.065,0.042l0.109,0.023l0.044-0.005l0.023-0.029l0.036-0.003l0.078,0.06l0.031,0.049l0.042,0.036l0.034,0.013l0.031,0.023l0.021,0.042l0.042,0.042l0.078,0.052l0.021,0.023l0.01,0.039l0.068,0.094l0.068,0.128l0.01,0.073l0.034,0.055l0.088,0.047l0.016,0.034l-0.026,0.031l-0.034-0.003l-0.052-0.049l-0.083-0.049l-0.031,0.005l-0.016,0.026v0.044l0.023,0.039l0.026,0.161l0.052,0.057l0.005,0.055l-0.016,0.047l-0.003,0.055l0.016,0.042l-0.01,0.122l-0.065,0.083l-0.034,0.089l0.005,0.052l-0.044,0.175l-0.047,0.036l-0.021,0.036v0.042l-0.036,0.06l-0.109,0.042l-0.256,0.03l-0.037-0.019l-0.075,0.003l-0.039,0.031l-0.107,0.042l-0.031,0.031l-0.177,0.06l-0.088-0.003l-0.036-0.034l-0.086-0.026l-0.172,0.003l-0.094-0.039l-0.042-0.068h-0.036l-0.047,0.036l-0.091,0.008l-0.12-0.06l-0.047-0.063l-0.192-0.117l-0.052-0.003l-0.023,0.021l0.003,0.031l0.023,0.029l-0.021,0.078l-0.031,0.034l-0.034-0.005l-0.036-0.052l-0.047-0.029l-0.042,0.005l-0.06-0.018l-0.042-0.031l-0.065-0.016l-0.14,0.057l-0.044-0.003l-0.008-0.034l0.026-0.089l0.065-0.055l0.255-0.065l0.01-0.026l-0.07-0.102l-0.044-0.016l-0.034-0.039l0.003-0.049l-0.047-0.083l-0.031-0.005l-0.096,0.052l-0.125-0.003l-0.101-0.044l-0.016-0.047l-0.073-0.034L678.511,222l0.026,0.026l-0.003,0.023l-0.034,0.003l-0.031-0.029v-0.068l-0.034-0.049l-0.044-0.018l-0.081,0.008l-0.052-0.023l-0.034-0.052l-0.073-0.047l-0.078-0.013l-0.036-0.031l0.013-0.018l0.039,0.005l0.026,0.018h0.034l-0.003-0.034l-0.057-0.055l-0.003-0.039l0.029-0.026l0.018-0.151l-0.057-0.109l0.003-0.049l-0.065-0.062l-0.143-0.023l-0.125-0.063l0.003-0.034l0.159-0.039l0.018-0.055l-0.049-0.063l-0.114-0.042v-0.026l0.088-0.003l0.018-0.023l-0.047-0.042l-0.096-0.023l-0.07,0.008l-0.073-0.036l-0.016-0.06l-0.083-0.083l0.005-0.029l0.039,0.008l0.138,0.086l0.034,0.039l0.122,0.047l0.029-0.005l0.008-0.018l-0.047-0.052l-0.101-0.049l-0.153-0.094l-0.023-0.068l-0.034-0.026l-0.078-0.013L677.365,220.39L677.365,220.39z M682.097,221.332l-0.018-0.018l0.034-0.049l0.073-0.029l0.026,0.008l0.016,0.023l-0.023,0.034L682.097,221.332L682.097,221.332z M680.246,220.584l-0.017-0.003l0.019-0.04l0.023-0.01l0.014,0.007l-0.007,0.021L680.246,220.584L680.246,220.584z M681.416,220.355l0.01-0.019l0.026-0.009l0.038,0.007l0.005,0.021l-0.026,0.017l-0.045-0.003L681.416,220.355L681.416,220.355z M680.793,220.004l-0.006-0.025l0.004-0.015h0.011l0.01,0.022l-0.007,0.018H680.793L680.793,220.004z M680.815,219.95l-0.015-0.015l-0.004-0.017l0.01-0.01l0.018,0.01l0.003,0.025L680.815,219.95L680.815,219.95z M677.336,220.458l0.018-0.021l0.052,0.026l0.068,0.021l0.008,0.031l-0.034,0.029l-0.052-0.01l-0.026-0.036L677.336,220.458L677.336,220.458z M677.375,221.154l0.031-0.023l0.052,0.003l0.026,0.029l-0.016,0.029l-0.055,0.01l-0.034-0.018L677.375,221.154L677.375,221.154z M677.534,221.622l0.049-0.023l0.052,0.029l0.018,0.065l-0.013,0.039l-0.042,0.003l-0.06-0.049L677.534,221.622L677.534,221.622z M677.786,221.339l0.057-0.005l0.042,0.013l0.021,0.052l-0.026,0.065l-0.057,0.023l-0.039-0.021l-0.016-0.091L677.786,221.339L677.786,221.339z M678.466,222.162l0.008-0.049h0.023l0.029,0.052l0.086,0.057l0.081,0.117l-0.016,0.034l-0.057,0.023l-0.086-0.008l-0.065-0.044l-0.003-0.039l0.029-0.026l-0.005-0.063L678.466,222.162L678.466,222.162z M676.854,222.406l-0.007-0.056l0.038-0.007l0.042,0.024l0.021,0.042l-0.014,0.035l-0.031,0.007L676.854,222.406L676.854,222.406z M678.854,222.319l0.073-0.009l0.013,0.018l-0.016,0.022l-0.052,0.007l-0.025-0.016L678.854,222.319L678.854,222.319z M679.428,222.662l0.062,0.023l0.023,0.044l-0.021,0.01l-0.044-0.021l-0.029-0.039L679.428,222.662L679.428,222.662z M678.994,222.797v-0.063l0.047-0.01l0.052,0.034l0.086,0.005l0.031,0.023l-0.01,0.044l-0.091,0.036l-0.081-0.021L678.994,222.797L678.994,222.797z M679.482,222.927l-0.075-0.06l0.005-0.029l0.036-0.01l0.052,0.01l0.083,0.081l-0.013,0.023L679.482,222.927L679.482,222.927z M679.698,222.995l-0.057-0.044l0.021-0.016l0.078,0.008l0.049,0.018l0.01,0.029l-0.018,0.018L679.698,222.995L679.698,222.995z M680.215,223.006l0.01-0.036l0.034-0.01l0.086,0.029l0.005,0.023l-0.044,0.023h-0.06L680.215,223.006L680.215,223.006z M679.893,223.128l0.049-0.005l0.034,0.016l0.078,0.008l0.047-0.005l0.049,0.021v0.034l-0.031,0.029l-0.055-0.008l-0.047-0.042l-0.07-0.003l-0.039,0.008l-0.029-0.029L679.893,223.128L679.893,223.128z M680.28,223.183l0.042-0.005l0.036,0.018l-0.003,0.029l-0.029,0.013l-0.029-0.003l-0.023-0.026L680.28,223.183L680.28,223.183z M680.744,223.467l0.042-0.017l0.047,0.01l0.019,0.033l-0.003,0.068l-0.036,0.031l-0.028-0.002l-0.043-0.085L680.744,223.467L680.744,223.467z M680.385,223.39l-0.016-0.024l0.009-0.014h0.024l0.029,0.024l0.002,0.019l-0.019,0.007L680.385,223.39L680.385,223.39z M680.296,223.451l-0.001-0.023l0.019-0.003l0.04,0.026l-0.003,0.016h-0.033L680.296,223.451L680.296,223.451z M680.654,223.537h0.017l0.014,0.014l-0.004,0.011l-0.014,0.001l-0.018-0.014L680.654,223.537L680.654,223.537z M680.543,223.504l0.018,0.003l0.004,0.014l-0.011,0.006l-0.015-0.006l-0.005-0.01L680.543,223.504L680.543,223.504z M681.102,223.296l-0.028-0.019l-0.021-0.028l0.016-0.012l0.05,0.01l0.014,0.035l-0.012,0.012L681.102,223.296L681.102,223.296z M680.955,222.777l0.019-0.017l0.165-0.003l0.042,0.031l0.003,0.061l-0.055,0.023l-0.095-0.009l-0.023-0.047l-0.052-0.012L680.955,222.777L680.955,222.777z M680.832,222.746h0.047l0.026,0.021v0.057l0.021,0.028h0.035l0.019,0.012l-0.002,0.028l-0.036,0.04l-0.031,0.047l-0.01,0.047l-0.035,0.064l0.017,0.03l0.045,0.016l0.048-0.002l0.038-0.03l0.007-0.031l0.017-0.024l0.042-0.003l0.024,0.014l-0.019,0.031l-0.005,0.056l-0.021,0.023l-0.095,0.01l-0.073,0.042l-0.04,0.068l-0.036,0.002l-0.054-0.03l-0.05-0.007l-0.014,0.012l0.005,0.021l-0.017,0.014l-0.052-0.005l-0.049-0.035v-0.028l-0.017-0.019l-0.061-0.023l-0.019-0.038l-0.01-0.094l-0.021-0.031l-0.003-0.026l0.016-0.019l0.059-0.01l0.172-0.123l0.059-0.017l0.038-0.023L680.832,222.746L680.832,222.746z M677.211,222.819l-0.012-0.042l0.111-0.111l0.2-0.067h0.13l0.223,0.091l0.161,0.122l0.039,0.065l0.096,0.052l0.114,0.008l0.12,0.052l0.146,0.138l0.156,0.234l0.023,0.128l0.057,0.096l0.016,0.065l-0.021,0.029l-0.096-0.008l-0.068,0.016l-0.06,0.049l-0.039,0.049l-0.156,0.003l-0.148-0.055l-0.07-0.005l-0.075-0.044l-0.005-0.044l0.07-0.057h0.044l0.159,0.07l0.065,0.057l0.094,0.047l0.029-0.016l-0.013-0.047l-0.133-0.094l-0.169-0.086h-0.078l-0.086,0.029l-0.07,0.052l-0.088-0.008l-0.088-0.034l-0.049-0.052l-0.01-0.036l-0.055-0.063l-0.023-0.203l-0.026-0.042l0.013-0.021l0.031,0.008l0.036,0.036l0.07,0.034l0.114,0.133l0.065,0.013l0.06-0.021l0.003-0.021l-0.07-0.029l-0.034-0.047l0.029-0.044l-0.003-0.029l-0.07-0.036l-0.117-0.018l-0.031-0.034l-0.005-0.049l0.044-0.031l-0.003-0.026l-0.094-0.013l-0.192,0.029l-0.083-0.01l-0.109-0.063v-0.029l0.029-0.026l0.065-0.003l0.024-0.021h0.021l0.017,0.017l0.04,0.002l0.005-0.012l-0.045-0.047H677.4l-0.04,0.031l-0.049,0.005l-0.047-0.017L677.211,222.819L677.211,222.819z M679.323,223.25l-0.023-0.047l0.021-0.01l0.045,0.019l0.073,0.083l0.081,0.042l0.073,0.012l0.135,0.106l0.076,0.102l0.102,0.052h0.066l0.054-0.063l0.029,0.007l0.021,0.085l0.073,0.073l0.048,0.021l0.062-0.033l0.01-0.04l-0.05-0.054l0.009-0.016l0.078,0.028l0.135,0.116l0.029,0.076l-0.024,0.024l-0.151,0.01l-0.116,0.047l-0.021,0.056l-0.05,0.026l-0.042-0.007l-0.087-0.068l-0.104-0.052l-0.126-0.122l-0.016-0.04l-0.048-0.043l-0.078-0.043l-0.099-0.106l-0.043-0.024l-0.024-0.035l-0.01-0.068l-0.033-0.063L679.323,223.25L679.323,223.25z M680.77,223.868l0.055,0.003l0.08,0.028l0.052-0.014l0.052-0.09v-0.101l0.024-0.049l0.042,0.003l0.024,0.038h0.055l0.055-0.024l0.014-0.024l-0.069-0.083l-0.049,0.007l-0.055-0.024l0.003-0.052l0.17-0.215l0.187-0.142l0.076-0.024l0.097-0.118l0.028-0.073l0.107-0.167l0.059-0.17l-0.003-0.066l0.028-0.052l0.062-0.056l0.017-0.042l0.003-0.049l0.028-0.038l0.097-0.087l0.052,0.007l0.017,0.076l-0.052,0.285l-0.125,0.32l-0.035,0.167l-0.066,0.094l-0.083,0.069l-0.104,0.181l-0.003,0.094l-0.076,0.229l-0.076,0.101l-0.111,0.295l-0.014,0.129l-0.09,0.17l-0.101,0.056l-0.066-0.007l-0.045-0.076l0.01-0.09l-0.055-0.17l-0.087-0.142l-0.135-0.076L680.77,223.868L680.77,223.868z M684.976,222.751l-0.107-0.03l-0.054-0.035l-0.159-0.049l-0.059-0.01l-0.036-0.016l0.008-0.013l0.047,0.003l0.198,0.059l0.192,0.03l0.116,0.049l0.177,0.049l0.016-0.036l-0.068-0.07l-0.182-0.076l-0.122-0.135l-0.018-0.063l0.021-0.023l0.083,0.021l0.068-0.021l0.018-0.044l0.049-0.008l0.078,0.018l0.034-0.036l-0.026-0.049l-0.125-0.034l-0.184-0.008l-0.031-0.034l0.013-0.042l0.07-0.07l-0.013-0.089l-0.075-0.052l-0.107,0.021l-0.083,0.078v0.065l0.135,0.115l0.029,0.049l-0.016,0.016l-0.078-0.065l-0.099-0.047l-0.132-0.104l-0.23-0.019l-0.097-0.023l-0.265-0.108l-0.132-0.003l-0.223,0.073l-0.286,0.024l-0.111-0.017l-0.075-0.099l-0.01-0.099l0.023-0.021l0.075,0.023l0.06-0.003l0.091-0.112l0.005-0.083l-0.031-0.008l-0.034,0.029l-0.013,0.073l-0.036,0.057h-0.042l-0.088-0.096l-0.013-0.094l-0.086-0.076l-0.159-0.06l-0.083-0.089l0.026-0.021l0.088,0.016l0.086-0.036l0.005-0.049l-0.081-0.06l-0.052-0.008l-0.034,0.026l0.005,0.055l-0.052,0.029l-0.078-0.016l-0.084-0.053l-0.01-0.049l0.066-0.056l0.121-0.01l0.18-0.059l0.052-0.045l0.007-0.063l-0.055-0.073l-0.003-0.069l0.035-0.056l-0.017-0.094l-0.076-0.066l-0.028-0.066l0.01-0.042l-0.045-0.083l-0.135-0.115l-0.031,0.01l-0.003,0.052l-0.028,0.031l-0.059,0.007l-0.055-0.038l0.01-0.059l0.073-0.045l0.146-0.021l0.055-0.076l-0.007-0.069l-0.045-0.177l-0.128-0.132l-0.326-0.153l-0.163-0.007l-0.08-0.007l-0.09-0.035l-0.003-0.031l0.055-0.017l0.111,0.031l0.118-0.003l0.229,0.028l0.094-0.014l0.014-0.031l-0.052-0.038l-0.087-0.014l-0.142-0.097l-0.092-0.112l-0.109-0.042l-0.06,0.013l-0.161-0.013l-0.135-0.055l0.005-0.023l0.187-0.034l0.231,0.01l0.153,0.068l0.13,0.008l0.12-0.029l0.122-0.065h0.182l0.065,0.081l0.075,0.005l0.016-0.036l0.042-0.01l0.101,0.063l0.086-0.021l0.042-0.055l0.094-0.044l0.13-0.021l0.094-0.078l0.008-0.094l-0.013-0.172l-0.023-0.073l0.018-0.008l0.078,0.029h0.057l0.13-0.081l0.096-0.005l0.049,0.01l0.049-0.005l0.042-0.044l0.057-0.112l0.01-0.201l-0.029-0.073l-0.104-0.068l-0.13-0.034l-0.148-0.008l-0.114-0.005l-0.096-0.021l-0.052-0.063l-0.065-0.023l-0.075-0.003l-0.078-0.055l-0.021-0.104l0.023-0.01l0.065,0.081l0.078,0.031l0.078,0.008l0.073,0.031l0.042,0.042l0.13,0.029l0.135-0.008l0.172,0.023l0.06,0.034l0.088,0.008l0.179-0.049l0.052,0.013l0.031,0.06l0.091,0.031l0.096,0.003l0.237-0.078l0.026-0.049l0.146-0.057l0.06,0.018l0.021,0.07l-0.01,0.031l-0.104,0.06l-0.029,0.065l0.023,0.073l-0.026,0.052l-0.065,0.018l-0.068-0.013l-0.052-0.052l-0.086-0.016l-0.034,0.018l-0.013,0.122l0.023,0.055l0.081,0.034l0.065,0.065l0.075,0.133l0.003,0.094l-0.049,0.049h-0.036l-0.088-0.036l-0.075-0.008l-0.039,0.039l0.003,0.039l-0.044,0.049l-0.099,0.047l-0.003,0.034l0.099,0.031l0.133-0.031l0.047-0.036l0.107-0.044l0.073,0.003l0.036,0.031l0.005,0.109l-0.029,0.01l0.003,0.029l0.099,0.049v0.031l-0.065,0.029l-0.338,0.026l-0.026,0.031l0.026,0.047l0.049,0.008l0.078-0.016h0.247l0.057-0.023l0.036,0.005l0.078,0.188l-0.023,0.044l-0.044,0.021l-0.052,0.06l0.016,0.021l0.094-0.013l0.052-0.06l0.052-0.034l0.021-0.052l-0.003-0.057l0.023-0.047l0.039-0.049l0.018-0.094l-0.016-0.089l0.042-0.208l0.062-0.099l0.107-0.036l0.055,0.01l0.049-0.005l0.026-0.029l0.039-0.107v-0.073l-0.073-0.096l-0.013-0.07l-0.109-0.156l-0.003-0.068l0.029-0.021l0.184,0.034l0.052,0.057l0.065,0.029l0.057-0.005l0.047,0.036l0.01,0.042l-0.086,0.097l0.003,0.094l0.104,0.071l0.023,0.076l0.005,0.104l0.109,0.267l-0.048,0.175l-0.126,0.049l-0.055-0.012l-0.028-0.054l-0.042,0.007l-0.019,0.092l-0.064,0.118l-0.109,0.127l-0.024,0.092l0.021,0.014l0.045-0.042l0.021-0.073l0.048-0.031l0.09-0.007l0.01-0.035l-0.007-0.045l0.031-0.031l0.083,0.01l0.094,0.056l-0.007,0.028h-0.066l-0.052-0.028l-0.024,0.024l0.021,0.042l0.062,0.028l0.076-0.01l0.052,0.017l0.007,0.042l0.052,0.038l0.031-0.007v-0.066l-0.031-0.028l-0.01-0.045l0.036-0.082l0.078-0.026l0.031-0.13l-0.042-0.063l-0.016-0.089l-0.047-0.068l-0.078-0.302l-0.061-0.082l-0.012-0.069l0.073-0.068l0.005-0.057l-0.052-0.063l-0.026-0.109l0.005-0.099l-0.111-0.167l-0.111-0.038l-0.114,0.035l-0.035,0.042l-0.26,0.052l-0.08-0.024l-0.045-0.108l0.035-0.052l0.631-0.326l0.128-0.115l0.405-0.254l0.364-0.097l0.298,0.017l0.152,0.104l0.198,0.045l0.184-0.003l0.232,0.097l0.149,0.135l0.094,0.045l0.01,0.049l-0.08,0.104l-0.139,0.101l-0.149,0.32l0.003,0.104l0.18,0.33l0.031,0.191l0.069,0.153l0.007,0.159l-0.049,0.105l0.004,0.114l0.016,0.013l0.046-0.039l0.039-0.013l0.086,0.003v0.018l-0.083,0.036l-0.06,0.057v0.031l0.018,0.042l0.03-0.002v-0.045l0.027-0.005l0.073,0.047l0.01,0.042l-0.016,0.09l0.069,0.132l0.062,0.021l0.042,0.059l-0.014,0.169l-0.044,0.047l-0.101,0.039l-0.17,0.089l-0.107-0.014l-0.17-0.132l-0.038-0.108l-0.038-0.014l-0.052,0.042l-0.118-0.01l-0.045-0.035l-0.17,0.007l-0.038,0.049l-0.305,0.101l-0.218,0.17l-0.111,0.205l-0.07,0.268l0.07,0.164l0.333,0.133l0.125-0.005l0.148,0.031l0.255,0.245l0.031,0.263l-0.044,0.128l-0.374,0.195l-0.32-0.016l-0.39,0.175l-0.148,0.146l-0.018,0.083l0.023,0.065l-0.01,0.052l-0.034,0.026l-0.044,0.003l-0.036-0.031l0.021-0.104l0.034-0.06l-0.021-0.018l-0.117,0.005l-0.099,0.052l-0.044,0.096l0.068,0.091l0.052,0.023h0.143l0.06-0.023l0.073-0.016l0.177,0.07l0.034,0.068l-0.031,0.036l-0.016,0.063l-0.047,0.042l-0.088-0.005l-0.039,0.034l0.026,0.122l0.157,0.248l-0.03,0.036l-0.112-0.005l-0.088,0.029l-0.031,0.047l-0.14,0.104l-0.156,0.003l-0.174-0.089l-0.083-0.086l-0.083-0.023l-0.049,0.018l-0.06-0.008l-0.221-0.109l-0.075-0.073l-0.156-0.07L684.976,222.751L684.976,222.751z M686.226,219.193l0.002-0.04l0.024-0.002l0.038,0.031l-0.002,0.023l-0.036,0.005L686.226,219.193L686.226,219.193z M685.132,218.919l0.052-0.021l0.071,0.021l0.033-0.002l0.019-0.036l-0.009-0.057l0.014-0.028l0.024-0.003l0.05,0.108l-0.01,0.092l-0.057,0.082h-0.069l-0.069-0.04l-0.049-0.068V218.919L685.132,218.919z M683.84,221.958l0.062,0.016l0.026,0.057l-0.023,0.026l-0.068-0.005l-0.047-0.049l0.013-0.034L683.84,221.958L683.84,221.958z M684.95,222.065l-0.055,0.049l-0.07,0.003l-0.018-0.039l0.052-0.081l0.047-0.005l0.036,0.026L684.95,222.065L684.95,222.065z M684.916,222.38l-0.018-0.005l-0.005-0.055l0.021-0.036l0.026-0.003l0.008,0.057L684.916,222.38L684.916,222.38z M684.016,222.006l0.01-0.016l0.017-0.003l0.012,0.005v0.016l-0.022,0.019l-0.016-0.003L684.016,222.006L684.016,222.006z M683.706,222.05l-0.017-0.012l0.009-0.016l0.029-0.007l0.043,0.012l0.005,0.014l-0.016,0.007L683.706,222.05L683.706,222.05z M682.879,221.75l0.018-0.031l0.026,0.003l0.021,0.021l0.003,0.044l-0.026,0.021l0.005,0.044l0.099,0.128l0.008,0.06l-0.018,0.021l-0.104-0.052l-0.034-0.057L682.879,221.75L682.879,221.75z M682.821,222.138l0.062-0.026l0.026,0.005l0.003,0.031l-0.049,0.049l-0.036,0.081l-0.023,0.005l-0.047-0.042l0.003-0.055L682.821,222.138L682.821,222.138z M683.52,222.88l0.03-0.029l0.051-0.017l0.025,0.01l-0.01,0.022l-0.079,0.036l-0.018-0.006V222.88L683.52,222.88z M685.51,223.051l0.022-0.004l0.028,0.011l0.026,0.072l-0.012,0.01l-0.043-0.029l-0.028-0.04L685.51,223.051L685.51,223.051z M686.649,222.779l0.07-0.047l0.091-0.013l0.023,0.026l-0.049,0.104l-0.047,0.005l-0.088-0.047V222.779L686.649,222.779z M686.919,222.651l-0.005-0.044l0.023-0.008l0.036,0.026l0.018,0.042l-0.018,0.018L686.919,222.651L686.919,222.651z M686.363,223.17l0.034-0.063l0.036-0.01l0.021,0.005l-0.034,0.06l-0.039,0.023L686.363,223.17L686.363,223.17z M686.197,223.274l0.044-0.023l0.091-0.016l0.021,0.013l-0.018,0.029l-0.099,0.021l-0.036-0.005L686.197,223.274L686.197,223.274z M685.906,223.266l0.036,0.005l0.016,0.036l0.049,0.063l0.049,0.01l0.034-0.026h0.109l0.07,0.044l0.021,0.055l-0.023,0.044l-0.055,0.01l-0.229-0.055l-0.036-0.052l0.005-0.044l-0.016-0.034l-0.034-0.013l-0.013-0.026L685.906,223.266L685.906,223.266z M686.867,222.842l-0.023-0.029l0.023-0.047l0.062-0.034h0.034l0.042,0.07l0.07,0.068l0.114,0.021l0.442,0.018l0.213,0.063l0.117,0.073l0.075,0.188l-0.039,0.073l-0.081,0.023l-0.122-0.018l-0.169-0.063l-0.229-0.034l-0.143,0.018l-0.161,0.078l-0.197,0.164l-0.057,0.102l-0.081,0.07l-0.122,0.018l-0.127-0.013l-0.062-0.047l0.003-0.026l0.034-0.008l0.003-0.023l-0.088-0.036l-0.016-0.057l0.031-0.065l0.065-0.029l0.003-0.026l-0.052-0.049l0.003-0.036l0.083-0.06l0.07-0.008l0.039,0.016l0.021-0.013l-0.042-0.055l0.023-0.021l0.068,0.008l0.062,0.047l0.094-0.005l0.096-0.039l0.044,0.013l0.005,0.068l0.036,0.013l0.117-0.07l0.003-0.023l-0.057-0.018l-0.075,0.003l-0.036-0.021l-0.003-0.052l0.042-0.052l-0.013-0.047l-0.081-0.086L686.867,222.842L686.867,222.842z M682.944,224.498l-0.221-0.081l-0.226-0.057l-0.168-0.055l-0.1-0.073l-0.148-0.206l-0.016-0.079l0.017-0.035l0.027,0.012l0.008,0.083l0.047,0.063l0.029,0.023l0.072-0.023v-0.049l-0.047-0.039l0.01-0.023l0.112,0.031l0.057,0.034l0.026,0.049l0.052,0.005l0.052-0.031l-0.018-0.055l0.016-0.016l0.031,0.036l0.057-0.013l0.039-0.042l-0.005-0.03l-0.063-0.015l-0.044-0.029l-0.005-0.042l-0.06-0.099l-0.075-0.06l-0.093-0.047l-0.007-0.059l0.055-0.092l0.161-0.13l0.205-0.068l0.049,0.008l0.068-0.005l0.07-0.047l0.195-0.003l0.133,0.016l0.07,0.034l0.078,0.104l0.065,0.036l0.083,0.013l0.06,0.042l0.005,0.083l0.042,0.055l0.088,0.047l0.062,0.01l0.094,0.049l0.06,0.01l0.042,0.026v0.057l0.049,0.034l0.317,0.081h0.075l0.008-0.018l-0.088-0.065l0.003-0.036l0.06-0.029l0.06,0.003l0.031,0.018l0.049,0.003l0.091-0.042l0.016-0.029l-0.018-0.049l0.016-0.083l-0.036-0.047l0.016-0.026h0.034l0.068,0.023l0.099,0.083l0.078,0.039h0.086l0.018,0.023l-0.016,0.068l0.029,0.078l0.044,0.031l0.083,0.01l0.021,0.026l-0.026,0.102l0.065,0.068l0.083,0.039l0.12,0.107l0.042,0.102v0.055l-0.036,0.042h-0.104l-0.036,0.031l-0.013,0.073l0.06,0.06l0.078,0.016l0.031,0.049l-0.12,0.177l-0.078,0.044l-0.052-0.003l-0.06-0.029l-0.234-0.026l-0.047-0.031l-0.081-0.008l-0.073,0.023l-0.2-0.005l-0.06-0.018l-0.107,0.034l-0.057,0.081l-0.052,0.021l-0.091-0.005l-0.073,0.044l-0.068,0.07l-0.003,0.023l0.083,0.049l0.088,0.016l0.044-0.01l0.023,0.008l-0.013,0.023l-0.065,0.013l-0.101-0.023l-0.338-0.206l-0.112-0.039l-0.174-0.109l-0.062-0.099l-0.133-0.091L682.944,224.498L682.944,224.498z M682.323,223.93h-0.016l-0.01-0.08l0.01-0.023l0.023-0.003l0.012,0.023l-0.003,0.05L682.323,223.93L682.323,223.93z M682.433,223.816l0.01-0.031l0.016-0.002l0.009,0.014l-0.007,0.021l-0.016,0.01L682.433,223.816L682.433,223.816z M682.448,223.887l-0.005-0.024l0.014-0.009l0.016,0.005l0.002,0.014l-0.009,0.012L682.448,223.887L682.448,223.887z M684.17,223.183l-0.055-0.047l0.013-0.042l0.112-0.013l0.099,0.049l0.01,0.055l-0.081,0.091l-0.034,0.005l-0.06-0.044L684.17,223.183L684.17,223.183z M683.541,223.219l0.005-0.026h0.036l0.034,0.026l0.042,0.049l0.088,0.018l0.031-0.013l0.013-0.055l0.034-0.016l0.146,0.039l0.034,0.073l-0.026,0.021l-0.107-0.008l-0.07,0.036l-0.047,0.057h-0.047l-0.075-0.06l-0.01-0.06l-0.039-0.057L683.541,223.219L683.541,223.219z M683.359,223.217l0.003-0.029l0.031-0.018l0.021,0.01l-0.003,0.036l-0.018,0.013L683.359,223.217L683.359,223.217z M684.035,223.516l-0.039-0.016l0.013-0.021l0.065-0.005l0.018,0.013l-0.005,0.021L684.035,223.516L684.035,223.516z M684.027,223.62l-0.013-0.026l0.023-0.034l0.039-0.003l0.094,0.042l-0.013,0.021l-0.07,0.018L684.027,223.62L684.027,223.62z M684.88,223.375l0.038-0.038l0.047-0.007l0.017-0.024l0.005-0.047l0.052-0.023l0.071-0.002l0.055,0.031l0.045,0.078l0.048,0.014l0.042-0.024l0.017-0.045l-0.003-0.066l0.042-0.007l0.066,0.038l0.08,0.073l0.052,0.108l0.059,0.024l0.055-0.01l0.014-0.059l0.045-0.031l0.114-0.005l0.042,0.035l-0.003,0.057l0.045,0.09l0.08,0.049l0.149,0.028l0.087-0.014l0.128,0.017l0.059,0.042l0.021,0.073l0.132,0.163l-0.024,0.045l-0.073,0.042l-0.094,0.097l-0.094,0.045l-0.135,0.139l-0.048,0.132l-0.097,0.115l-0.118,0.073l-0.073,0.139l-0.003,0.233l0.055,0.285l-0.007,0.083h-0.052l-0.118-0.073l-0.042-0.163l-0.156-0.201l-0.021-0.08l0.024-0.104l0.031-0.069l0.083-0.076l-0.003-0.059l-0.097-0.031l-0.017-0.042l0.035-0.073l-0.055-0.122l-0.128-0.122l-0.083-0.038l-0.035-0.056l0.035-0.097l-0.042-0.083l-0.128-0.042l-0.038-0.052l0.007-0.042l-0.021-0.049l-0.038-0.035l-0.007-0.063l0.045-0.056l-0.007-0.049l-0.062-0.045l-0.085,0.002L684.88,223.375L684.88,223.375z M673.467,223.474l0.071,0.015l0.039-0.011l0.074,0.012l0.125,0.079l0.041,0.001l0.072-0.014l0.116-0.001l0.077-0.041l0.1-0.009l0.062,0.042l0.06,0.005l0.105-0.038l0.209,0.008l0.135,0.054l0.119,0.036l0.041,0.027l0.008,0.024l0.067,0.025l0.176,0.008l0.064-0.021l0.113,0.005l0.359,0.123l0.012,0.034l-0.029,0.034v0.038l0.036,0.093l0.029,0.014l0.065-0.014l0.042,0.008l0.022,0.038l0.023-0.002l0.008-0.023l0.094,0.009l0.056,0.025l0.02-0.004l0.007-0.027l0.036-0.046l0.065-0.031l0.011-0.051l0.035-0.036h0.064l0.039-0.019l0.029,0.019l-0.011,0.021l0.011,0.018l0.086-0.015l0.164-0.068l0.072-0.093l0.128-0.068l0.088-0.003l0.057-0.055l-0.002-0.057l0.02-0.026l0.055-0.015l0.047-0.063l0.005-0.039l0.026-0.024l0.07,0.006l0.114,0.06l0.006,0.044l-0.034,0.01l-0.081-0.031l-0.091,0.023l-0.018,0.034l0.169,0.118l-0.003,0.039l-0.044,0.044l0.011,0.039l0.054,0.021h0.109l0.065,0.018l0.042,0.06l0.062,0.016l0.081-0.011l0.023-0.065l-0.044-0.112l-0.067-0.073l-0.084-0.01l-0.031-0.019l0.029-0.041l0.049-0.016l0.073,0.024l0.083,0.002l0.044-0.026l0.008-0.039l-0.062-0.075l-0.037-0.188l-0.054-0.115l-0.065-0.028l-0.115-0.013l-0.236-0.117l-0.073-0.118l-0.075-0.031l-0.039,0.003l-0.026,0.041l-0.164,0.039l-0.057,0.042l-0.07,0.01l-0.112-0.005l-0.119-0.049l-0.003-0.047l0.073-0.044l0.184-0.011l0.076-0.01l0.135-0.13l0.007-0.037l-0.033-0.075l-0.161-0.11l-0.065-0.008l-0.055,0.011l-0.018-0.018l0.047-0.05l0.036-0.005l0.036,0.015l0.068-0.002l0.01-0.021l-0.033-0.031l-0.017-0.071l0.014-0.041l0.222-0.101l0.069-0.069l0.076-0.007l0.056,0.024l0.038,0.055l0.059,0.004l0.076-0.049l0.083-0.027l0.021-0.046l-0.004-0.069l0.025-0.076l0.041-0.032l0.011-0.104l-0.028-0.052l-0.087-0.024l-0.069-0.066l-0.003-0.058l-0.085-0.1v-0.044l0.033-0.047l0.001-0.055l-0.1-0.094l-0.045,0.002l-0.024-0.012v-0.032l0.053-0.062v-0.089l-0.083-0.106l0.005-0.048l0.045-0.028h0.063l0.128-0.043l0.114-0.119l-0.002-0.026l-0.062-0.034l-0.024-0.037l-0.156-0.099l-0.088,0.007l-0.051,0.047h-0.045l-0.043-0.023l-0.081,0.006l-0.065,0.024h-0.067l-0.05-0.035l0.015-0.022l0.087-0.011l0.069,0.012l0.089-0.005l0.064-0.015l0.012-0.025l-0.063-0.076l-0.001-0.033l0.026-0.005l0.104,0.04l0.019,0.029l0.046,0.016l0.111-0.005l0.068-0.077l0.05-0.012l0.043,0.007l0.09,0.036l0.072-0.005l0.013-0.021l-0.034-0.097l0.001-0.045l0.077-0.033l0.039-0.002l0.021-0.01l0.025-0.057l0.05-0.054l0.017-0.052l0.036-0.035l0.155-0.087l0.033-0.033l-0.006-0.021l-0.162-0.021l-0.132,0.026l-0.061-0.008l-0.04-0.04l-0.012-0.11l-0.059-0.048l-0.081-0.023l-0.035-0.022l-0.026-0.049l-0.064-0.054l-0.128-0.019l-0.121,0.016h-0.085l-0.082-0.026l-0.003-0.021l0.023-0.023l0.026-0.007l0.05,0.009l0.197-0.017l0.09-0.019l0.059,0.003l0.134,0.052l0.102,0.099l0.052,0.01l0.112-0.003l0.085,0.024l0.035,0.035l0.028,0.005l0.107-0.036l0.054-0.047l0.187-0.049l0.109,0.004l0.146-0.014l0.041-0.03h0.05l0.049,0.019l0.015-0.007l-0.022-0.053l-0.087-0.052l-0.007-0.023l0.009-0.028l0.054-0.024l0.064-0.009l0.038-0.014l0.021-0.027l0.038-0.016l0.071,0.003l0.005-0.022l-0.028-0.019l-0.188-0.037l-0.018-0.05l0.012-0.057l0.109-0.106l0.044-0.03l0.008-0.028l-0.038-0.048l-0.033-0.021l-0.043,0.009l-0.04-0.013l-0.012-0.019l-0.024-0.007l-0.042,0.025l-0.197-0.042l-0.09-0.035l-0.125-0.019l-0.059-0.038l0.002-0.028l0.055-0.043l0.056-0.007l0.038,0.019l0.128,0.003l0.057,0.018l0.017-0.018l-0.019-0.02l0.003-0.047l0.044-0.034l0.07-0.005l0.065,0.02l0.122,0.003l0.091-0.031l0.071-0.005l0.075,0.015l0.036,0.039l0.029-0.002l0.021-0.029h0.026l0.01,0.06l-0.013,0.026l0.003,0.034l0.049,0.044l0.107,0.047h0.054l0.013-0.018l-0.018-0.034l0.005-0.026l0.031-0.013l0.003-0.026l-0.036-0.055v-0.049l0.015-0.024l0.031-0.01l0.102-0.102l0.049-0.015l0.023-0.029l0.029-0.19v-0.065l-0.031-0.094l0.01-0.097l0.07-0.099l0.003-0.023l-0.026-0.016l-0.008-0.031l0.011-0.075l-0.034-0.084l-0.031-0.14l-0.064-0.133l-0.091-0.125l0.009-0.023l0.055-0.006l0.067-0.039l0.014-0.04l-0.025-0.012l-0.039,0.007l-0.025-0.016v-0.069l0.069-0.093l0.105-0.046l0.054-0.044l0.026-0.055l0.059-0.059l0.1-0.044l0.038-0.057l-0.017-0.057l0.015-0.038l0.054-0.046l0.062-0.001l0.028-0.035v-0.042l0.028-0.022l0.106-0.011l0.098,0.004l0.03,0.047l0.055,0.015l0.056-0.001l0.074,0.041l0.012,0.052l-0.027,0.025l-0.04-0.004l-0.028,0.012l-0.014,0.047l-0.099,0.085v0.025l0.052,0.008l0.033,0.071l-0.007,0.03l-0.05,0.05l-0.054-0.001l-0.052-0.016l-0.019-0.031l0.004-0.026l0.022-0.026l-0.012-0.018l-0.066,0.009l-0.041,0.057l-0.064,0.012l-0.045,0.033l-0.078,0.009l-0.002,0.024l0.064,0.035l0.031,0.049l0.011,0.048l0.041,0.033h0.073l0.057-0.017l0.045-0.062l0.052-0.018l0.099,0.014l0.05,0.043l0.045,0.006l0.044-0.013l0.029,0.009l-0.002,0.044l-0.021,0.071l-0.032,0.014l-0.047-0.009l-0.05,0.021l-0.006,0.045l0.097,0.201l0.047,0.009l0.071-0.033l0.057-0.045l0.012-0.064l-0.032-0.139l-0.053-0.066l0.004-0.054l0.035-0.063l0.145-0.185l0.076-0.045l0.111-0.007l0.096,0.024l0.053,0.069l-0.019,0.092l-0.045,0.032l-0.059,0.001l-0.026,0.026l0.021,0.056l0.099,0.066l0.05,0.075l0.088,0.017l0.061-0.024l0.043-0.098l0.005-0.076l-0.01-0.139l0.028-0.101l0.09-0.086l0.09-0.028l0.09-0.066l0.052-0.125l0.052-0.052l0.083-0.056l0.16-0.18l0.031-0.08l-0.004-0.146l0.052-0.226l0.052-0.059l0.042-0.007l0.017-0.035l-0.038-0.069l-0.225-0.132l-0.07-0.066l-0.003-0.052l-0.048-0.077l-0.098-0.062l-0.18-0.021l-0.291,0.035l-0.124-0.007l-0.132,0.017l-0.142,0.059l-0.284,0.028l-0.298-0.059l-0.205-0.108l-0.128-0.142l-0.007-0.087l-0.031-0.045l-0.076-0.042l-0.052,0.007l-0.028,0.063l-0.111,0.097l-0.01,0.056l-0.052,0.059l-0.059,0.024l-0.017,0.055l0.024,0.091l0.007,0.1l-0.028,0.07l0.011,0.038l0.048,0.021l0.108,0.003l0.034,0.021l-0.118,0.014l-0.128-0.035l-0.017-0.045l0.031-0.08l0.01-0.076l-0.031-0.122l0.021-0.093l0.045-0.028l0.035-0.038l0.01-0.066l0.194-0.174l0.166-0.062l0.042-0.07l0.003-0.104l0.021-0.045l-0.027-0.122l-0.056-0.045l-0.076-0.007l-0.09,0.035h-0.045l-0.035-0.025l-0.087,0.007l-0.152,0.066l-0.09-0.007l-0.056-0.079l-0.069-0.042h-0.104l-0.034,0.052l-0.059,0.066l-0.066,0.01l-0.073-0.031l-0.052,0.014l-0.048,0.066l-0.111,0.031l-0.111,0.08l-0.194,0.045l-0.184,0.007l-0.09,0.032l-0.069-0.011l0.003-0.028l0.222-0.048l0.108,0.007l0.128-0.039l0.031-0.045l0.087-0.055h0.051l0.052-0.018l0.028-0.055l0.153-0.038l0.065,0.017l0.07-0.01l0.014-0.049l0.062-0.045l0.142-0.018l0.073,0.066l0.062,0.007l0.069-0.052h0.063l0.097,0.025l0.239,0.017l0.055-0.028l-0.007-0.059l-0.076-0.073l-0.073-0.132l-0.083-0.312l-0.027-0.393l0.034-0.187l0.08-0.091l0.06-0.14l-0.023-0.018l-0.099,0.023h-0.2l-0.265-0.13l-0.405-0.282l-0.068-0.083l-0.083-0.01l-0.088,0.026l-0.078,0.109l-0.089,0.016l-0.072-0.042l-0.125-0.005l-0.083,0.057l-0.099,0.005l-0.13-0.041l-0.145,0.005l-0.211,0.055l-0.091,0.059l-0.023,0.097l-0.224,0.229l-0.091,0.029l-0.031,0.041l-0.015,0.123l-0.024,0.015l-0.044-0.028l-0.052-0.097l0.005-0.047l0.057-0.015l0.052,0.018l0.011-0.023l-0.026-0.032l0.008-0.039l0.028-0.036l0.003-0.037l-0.112-0.067l-0.197-0.06h-0.265l-0.388,0.07l-0.109,0.06l-0.044,0.089l-0.049,0.02l-0.055,0.003l-0.049,0.034l-0.039,0.081l-0.151,0.132l-0.065,0.141l0.005,0.06l0.141,0.068l0.02,0.083l-0.01,0.07l-0.138,0.159l-0.002,0.05l0.049,0.054l0.013,0.055l-0.018,0.047l0.031,0.026l0.143,0.021l0.049,0.044v0.073l-0.062,0.104l-0.223,0.175l-0.016,0.057l0.039,0.042l0.044,0.002l0.057-0.049l0.224-0.096l0.088-0.021l0.068,0.018l0.065,0.112l0.007,0.164l-0.101,0.287l-0.021,0.13l0.052,0.036l0.102-0.002l0.106-0.05l0.042,0.013l-0.012,0.124l-0.038,0.017l-0.057-0.018l-0.205-0.006l-0.086-0.085l-0.039-0.105l0.055-0.093l0.083-0.045l0.018-0.054l-0.138-0.084l-0.184-0.005l-0.063,0.039l-0.062,0.005l-0.06-0.028l-0.015-0.047l0.013-0.042l-0.016-0.034l-0.026,0.005l-0.023,0.079l-0.07,0.065l0.007,0.028l0.099-0.005l0.021,0.029l-0.07,0.047l-0.042,0.005l-0.041-0.029l-0.065,0.016l-0.024,0.068l0.024,0.041l-0.021,0.058l-0.062,0.072l-0.073-0.023l-0.037-0.109l0.026-0.188l0.063-0.096l0.114-0.037l0.018-0.041l-0.018-0.039l0.013-0.037l0.047-0.003l0.028-0.02l0.003-0.047l0.055-0.06l0.127-0.081l0.005-0.031l-0.158-0.141l-0.084-0.161l0.003-0.047l-0.013-0.039l-0.101-0.063l-0.076-0.008l-0.091,0.012l-0.007,0.026l0.023,0.038l-0.023,0.019l-0.092-0.019l-0.14-0.06l-0.085,0.005l-0.13,0.125l-0.065,0.039l-0.078,0.024l-0.076,0.094l-0.088,0.174l0.01,0.034l0.133-0.029l0.166,0.008l0.026,0.037l-0.036,0.033l-0.06,0.008l-0.039-0.028l-0.044,0.005l-0.021,0.034l-0.106,0.007l-0.045-0.023l-0.046,0.003l-0.096,0.093l-0.05,0.146l-0.179,0.13l-0.055,0.003l-0.044-0.023h-0.057l-0.031,0.031l0.008,0.057l0.036,0.013l0.034,0.037l0.02,0.078l0.214,0.143l-0.003,0.052l-0.065,0.044l-0.013,0.068l0.018,0.031v0.146l-0.034,0.065l-0.256,0.063l-0.133-0.03l-0.066-0.097l-0.179-0.008l-0.046,0.033l-0.021-0.018l0.034-0.057l0.109-0.018l0.062-0.047l0.003-0.055l-0.078-0.086l-0.052-0.167l-0.029,0.003l-0.008,0.065l-0.122,0.083l-0.078-0.005l-0.067-0.054l-0.359-0.115l-0.241,0.018l-0.063,0.094h-0.036l-0.016-0.102l0.003-0.044l0.039-0.016l0.005-0.028l-0.036-0.026l-0.125,0.005l-0.091-0.047l-0.008-0.07l-0.083-0.063l-0.156-0.039l0.013-0.042l0.12-0.031l0.072-0.099l0.019-0.133l-0.032-0.057l-0.059,0.003l-0.169,0.294l-0.142,0.485l-0.018,0.282l0.028,0.257l-0.021,0.368l0.042,0.007l0.031-0.014v-0.042l-0.028-0.055l0.011-0.132l0.041-0.035l0.07,0.021l-0.004,0.125l0.121,0.184l0.135,0.059l0.07,0.097v0.038l0.038,0.042l0.069,0.007l0.042,0.042l-0.028,0.073l-0.103,0.05l-0.048-0.029l-0.001-0.077l-0.027-0.04l-0.089-0.007l-0.042-0.026l-0.045-0.002l-0.031,0.017l-0.03-0.01l0.01-0.039l0.04-0.026l0.037-0.004l0.007-0.018l-0.036-0.006l-0.167,0.063l-0.022-0.011v-0.141l-0.022-0.073l-0.039,0.003l0.013,0.341l0.048,0.229l0.007,0.229l-0.056,0.292l-0.08,0.653l0.039,0.174l0.038,0.041l0.038-0.024l0.024-0.035l-0.021-0.163l0.052-0.274l-0.01-0.077l0.017-0.021l0.101,0.056l0.263,0.083l0.208,0.153l0.034,0.056l0.018,0.278l0.066,0.121l0.169,0.142l0.018,0.077l-0.045,0.101l0.01,0.027l0.052-0.01l0.017,0.024l-0.239,0.202l-0.183,0.097l-0.042-0.021l0.038-0.094l-0.007-0.08l-0.09-0.041l-0.111-0.011l-0.052,0.056l0.007,0.125l-0.041,0.017l-0.042-0.066l-0.042-0.368l-0.096-0.253l-0.073-0.059l-0.025,0.02l0.049,0.098l0.049,0.186l0.098,0.659l0.011,0.259l-0.023,0.196l-0.107,0.362l-0.146,0.356l-0.093,0.164l-0.003,0.039l0.356,0.122l0.114,0.052l0.271,0.209l0.101,0.031l0.021-0.013l-0.008-0.078l-0.148-0.138l-0.008-0.029l0.016-0.021l-0.003-0.021l-0.052-0.018l-0.042-0.036l-0.007-0.112l0.065-0.107l0.062-0.037l0.075,0.008l0.078,0.057l-0.013,0.029l-0.049,0.026l-0.008,0.031l0.218,0.237l0.094,0.055l0.19,0.196l0.044,0.078l0.098,0.029l0.055-0.014l0.212,0.018l0.204,0.083l0.1,0.087l0.108,0.305l0.066,0.125l-0.007,0.094l-0.045,0.115l0.017,0.292l0.094,0.354l-0.024,0.194l-0.062,0.164l-0.081,0.144l-0.023,0.255l0.101,0.232l-0.005,0.122l-0.06,0.125l-0.036,0.117L673.467,223.474z"/>
</svg>
