<svg xmlns="http://www.w3.org/2000/svg" viewBox="413.491 392.146 0.889 1.653">
  <path d="M413.493425,392.539099l0.019054,-0.032912l0.041573,-0.017322l0.025983,-0.055431l0.006929,-0.039841l-0.020787,-0.03118l-0.024251,-0.001732l-0.025983,0.010393l-0.01559,-0.01559l0.012126,-0.019054l0.039841,-0.005197l0.013858,-0.03118l-0.020787,-0.053699l0.017322,-0.074486l0.025983,-0.022519l0.098737,-0.003464l0.048502,0.019054l0.088343,0.138578l0.025983,0.013858h0.041573l0.027716,-0.019054l0.012126,0.001732l0.027716,0.024251l0.03118,-0.003464l0.013858,-0.010393l0.034644,0.006929l0.010393,0.024251l0.032912,0.006929l0.025983,-0.003464l0.039841,0.006929l0.003464,0.017322l-0.010393,0.025983l0.025983,0.036377l0.022519,0.067557l0.027716,0.022519h0.038109l0.013858,0.020787l-0.01559,0.055431l0.01559,0.013858l0.024251,-0.008661l0.03118,0.010393v0.057163l0.043306,0.105666l-0.006929,0.060628l-0.041573,0.084879l0.010393,0.01559l0.019054,0.003464l0.003464,0.01559l-0.005197,0.020787l0.008661,0.041573l-0.025983,0.022519l0.012126,0.012126l0.025983,-0.005197l0.012126,0.012126l-0.006929,0.027716l-0.029448,0.012126l-0.003464,0.019054l0.025983,0.013858v0.01559l-0.024251,0.012126l0.001732,0.074486l0.010393,0.045038l0.022519,0.032912v0.027716l-0.020787,0.076218l-0.001732,0.03118l0.008661,0.017322v0.025983l-0.027716,0.01559l-0.017322,0.064092v0.038109l-0.013858,0.027716l-0.041573,0.022519h-0.041573l-0.017322,0.013858l-0.010393,-0.001732l-0.008661,-0.01559l-0.045038,-0.003464l-0.017322,0.013858l-0.008661,0.041573l-0.01559,0.017322l-0.034644,0.012126l-0.012126,0.01559l0.003464,0.017322l-0.008661,0.012126l-0.069289,0.012126l-0.057163,-0.003464l-0.012126,-0.017322l0.024251,-0.029448l0.006929,-0.027716l-0.010393,-0.022519l-0.034644,-0.025983l-0.017322,-0.079682l0.012126,-0.055431l-0.003464,-0.043306l-0.022519,-0.022519l-0.029448,-0.006929l-0.006929,-0.019054l0.010393,-0.04677l-0.006929,-0.01559l-0.019054,-0.019054l-0.001732,-0.029448l0.012126,-0.025983l-0.005197,-0.076218l-0.039841,-0.045038l-0.027716,-0.06236l-0.048502,-0.03118l-0.008661,-0.034644l0.006929,-0.04677l-0.034644,-0.048502l-0.001732,-0.020787l-0.012126,-0.017322l-0.036377,-0.024251l-0.004709,-0.016727l0.011638,-0.017918l-0.008661,-0.020787l-0.022519,-0.025983l-0.01559,-0.058896l-0.024251,-0.029448l-0.013858,-0.043306l0.012126,-0.03118l-0.029448,-0.086611l-0.024251,-0.027716Z "/>
</svg>
