<svg xmlns="http://www.w3.org/2000/svg" viewBox="374.478 375.735 13.649 9.431">
  <path d="M386.419,382.491l0.01,-0.068l0.042,-0.026l0.151,0.042l0.062,0.044l0.052,0.003l0.042,-0.013l0.036,0.008l0.047,0.049l0.091,0.021l0.094,-0.018l0.06,0.005l0.065,0.057l0.039,0.086l-0.034,0.039l-0.036,-0.003l-0.148,-0.057h-0.076l-0.143,0.047l-0.068,-0.01l-0.122,-0.052l-0.026,-0.036l-0.06,-0.026l-0.034,-0.052l-0.044,-0.039Z M385.581,381.836l0.055,-0.005l0.008,-0.055l-0.049,-0.057l-0.055,0.018l-0.013,0.065l0.055,0.034Z M375.823,385.142l0.017,0.024l0.036,-0.01l0.003,-0.016h-0.03l-0.017,-0.01l-0.01,0.012Z M376.163,384.813l-0.002,0.078l0.042,0.009l0.146,-0.031l0.109,-0.118l-0.007,-0.026l-0.04,0.007l-0.036,-0.043l-0.012,-0.05l-0.073,-0.023l-0.038,0.019l-0.047,0.075l-0.042,0.104Z  M375.386,383.013l0.005,-0.028l0.05,-0.036l0.032,-0.104l-0.047,-0.128l0.015,-0.093l-0.14,-0.13l-0.008,-0.073l0.101,-0.151v-0.062l0.219,-0.374l-0.354,-0.136l-0.042,-0.062l-0.091,-0.021l-0.057,-0.114l-0.224,-0.107l-0.029,-0.109l0.123,-0.015l-0.005,-0.063l-0.253,-0.278l-0.065,-0.104l-0.128,-0.049l-0.01,-0.037l0.086,-0.041l0.047,-0.068l0.159,0.076l0.07,-0.042l0.172,0.075l0.19,-0.02l0.034,-0.214l0.229,-0.127l0.06,-0.32l-0.019,-0.15l0.008,-0.128l-0.161,-0.132l-0.065,-0.169l-0.188,-0.042l-0.148,0.091l-0.042,-0.034l0.076,-0.122l0.14,-0.08l0.136,-0.003l0.307,-0.244l0.029,-0.12l0.067,-0.052l0.11,-0.018l0.049,-0.104l0.037,-0.265l-0.037,-0.06l-0.164,-0.029l-0.226,-0.148l-0.12,-0.197l0.002,-0.039l0.188,-0.107l0.101,0.013l0.037,-0.044l-0.021,-0.104l0.065,-0.171l-0.057,-0.143l0.005,-0.128l-0.104,-0.187l-0.089,-0.086l-0.007,-0.187l0.049,-0.057l-0.016,-0.068l-0.07,-0.067l-0.01,-0.07l0.097,-0.016l0.027,-0.06l-0.088,-0.131l-0.004,-0.096l-0.024,-0.007l-0.071,0.069l-0.024,-0.011l0.037,-0.078l0.097,-0.096l0.041,-0.021l0.176,-0.048l0.09,-0.082l0.018,-0.16l0.044,-0.018l0.046,0.046l0.05,-0.005l0.078,-0.066l0.162,-0.026l0.261,0.024l0.381,0.184l0.334,0.041l0.132,0.045l0.142,-0.013l0.028,-0.104h0.045l0.087,0.045l0.17,-0.014l0.187,-0.097l0.021,-0.097l0.139,-0.076l0.174,-0.004l0.173,0.076l0.347,0.025l0.087,0.045l0.17,0.197l0.163,0.045l0.254,0.142l0.076,0.08l0.236,0.055l0.216,-0.017l0.048,-0.066l0.118,-0.027l0.163,0.027l0.195,0.156l0.142,0.208l0.222,0.146l0.288,0.031l0.181,0.062l0.247,-0.034l0.166,-0.184l0.333,-0.007l0.226,0.142l0.052,0.142l-0.066,0.187l0.021,0.115l0.09,0.062l0.011,0.059l-0.028,0.159l0.118,0.298l0.233,0.278l0.18,0.107l0.191,-0.01l0.149,-0.063l0.195,-0.024l0.177,-0.09l0.479,0.028l0.267,0.114l0.052,-0.003l0.094,-0.129l0.17,-0.069l0.08,-0.076l0.045,0.01l-0.014,0.101l-0.104,0.135l0.024,0.035l0.171,-0.007l0.138,-0.052l0.049,0.055l-0.062,0.114l-0.136,0.08l-0.041,0.069l-0.014,0.097l-0.098,0.059l-0.211,-0.041l-0.136,-0.042l-0.229,0.021l-0.055,0.035l-0.07,-0.011l-0.101,-0.045l-0.381,-0.045l-0.178,-0.062l-0.045,0.024l-0.01,0.153l-0.049,0.218l0.052,0.159l0.105,0.021l0.097,-0.034l0.065,0.003l0.044,0.039l0.05,0.002l0.062,-0.033l0.073,0.007l0.133,0.052l0.049,-0.015l0.005,-0.073l0.05,-0.031l0.107,0.023l0.065,0.068l0.036,0.093l0.125,0.037l0.068,-0.013l0.078,0.026l0.125,0.099l0.039,-0.003l0.078,-0.039l0.071,0.013l0.067,0.055l0.175,0.028l0.034,-0.023l0.002,-0.076l-0.018,-0.052l0.021,-0.01l0.075,0.114l0.086,0.029l0.102,0.078l0.174,-0.003l0.055,-0.052l-0.024,-0.044l0.019,-0.026l0.093,-0.002l0.045,-0.045l0.166,0.003l0.198,0.125l0.13,0.021l0.297,0.109l0.302,0.218l0.237,0.278l0.261,0.221l0.078,0.026l0.151,0.127l0.07,0.034l0.247,0.25l0.071,0.013l0.138,0.091l0.049,0.101l-0.015,0.13l-0.185,0.281l-0.047,0.034l-0.05,0.119l-0.096,0.078l-0.076,0.12l-0.013,0.21l-0.065,0.06l-0.138,-0.005l-0.19,-0.063l-0.13,-0.075l-0.052,0.008l-0.029,0.047l0.039,0.085l-0.005,0.078l-0.104,0.174l-0.023,0.094l-0.006,0.13l-0.031,0.013l-0.041,-0.018l-0.06,0.008l-0.042,0.028l-0.135,-0.005l-0.032,-0.031h-0.031l-0.008,0.041l-0.023,-0.005l-0.021,-0.088l-0.214,-0.408l-0.085,-0.06l-0.068,-0.091l-0.182,-0.083l-0.177,-0.047h-0.058l-0.08,0.044l-0.219,0.034l-0.182,-0.013l-0.287,-0.083l-0.075,-0.055l-0.019,-0.065l-0.06,-0.01l-0.122,0.041l-0.169,0.013l-0.068,-0.031l-0.028,0.008l-0.034,0.06l-0.149,0.015l-0.083,-0.015l-0.216,0.015l-0.193,0.073l-0.135,-0.002l-0.185,-0.156l-0.11,-0.006l-0.036,0.039l0.008,0.11l-0.047,0.023l-0.102,-0.016l-0.059,-0.093l-0.008,-0.065l-0.078,-0.037l-0.526,-0.038l-0.227,0.044l-0.088,0.072l-0.196,0.055l-0.106,-0.01l-0.026,0.018l-0.006,0.047l-0.159,0.226l-0.046,0.132l-0.063,0.047l-0.039,0.016l-0.104,0.14l-0.05,0.109l-0.041,0.011l-0.055,-0.019l-0.125,0.006l-0.057,0.033h-0.052l-0.11,-0.041l-0.057,-0.003l-0.112,0.042l-0.182,-0.005l-0.12,-0.034l-0.088,0.018l-0.188,0.117l-0.101,0.023l-0.053,-0.002l-0.054,-0.029l-0.125,-0.008l-0.016,-0.036l0.029,-0.047h0.026l0.002,0.031l0.094,0.006l0.018,-0.021l-0.067,-0.06l-0.172,-0.109l-0.026,-0.109l0.057,-0.13l0.005,-0.18l-0.054,-0.13l-0.089,-0.046l-0.25,-0.042l-0.06,0.029l-0.049,0.08l0.005,0.096l-0.083,0.102l-0.219,0.026l-0.044,-0.026h-0.034l-0.039,0.036h-0.037l-0.031,-0.018l-0.039,0.005l-0.078,0.089l-0.034,0.09l-0.151,0.141l-0.143,0.044l-0.068,-0.044l-0.036,-0.102l-0.175,-0.098l-0.091,-0.008l-0.091,0.047l-0.081,0.096l-0.018,0.109l0.073,0.096l0.01,0.102l0.107,0.161l-0.003,0.098l-0.13,0.237l-0.067,0.052l-0.133,0.211l-0.071,0.057l-0.106,0.2l-0.219,0.21l-0.12,0.149v0.049l-0.039,0.026l-0.06,0.013l-0.114,0.195l-0.102,0.338l-0.169,0.265l-0.034,0.002l-0.096,-0.143l-0.071,-0.044l-0.02,-0.041l-0.071,-0.206l-0.088,-0.101l-0.143,-0.07l-0.237,0.002l-0.081,0.032l-0.094,-0.003l-0.065,-0.034l0.005,-0.021l0.06,-0.026l0.05,-0.062l-0.006,-0.044l0.013,-0.018l0.066,-0.006l0.026,-0.057l-0.024,-0.093l-0.12,-0.172v-0.041l0.045,-0.045v-0.096l-0.068,-0.112l-0.102,-0.09l-0.057,-0.019l-0.047,-0.039l-0.034,-0.054l-0.049,-0.011l-0.032,-0.021z"/>
</svg>
