<svg xmlns="http://www.w3.org/2000/svg" viewBox="609.288 306.441 76.578 72.948">
  <path d="M609.288,346.744l10.858,7.05l3.37,2.188l22.217,15.184l0.098,0.46v0.306l-0.104,0.431l-0.007,0.215l0.118,0.07h0.153l0.132,-0.056l0.174,0.035l0.125,0.208l0.173,0.084l0.362,0.09l0.32,0.104l0.291,0.271l0.028,0.257l-0.035,0.132l0.077,0.146l0.271,0.181l0.167,0.174l0.132,0.035l0.104,-0.028l0.083,0.055l0.091,0.216l0.083,-0.007l0.07,-0.091l0.111,-0.006l0.042,0.048l0.097,-0.007l0.049,-0.055h0.111l0.097,0.069l0.174,-0.007l0.18,-0.111l0.056,-0.118l0.104,-0.021l0.181,0.049l0.122,0.142l0.069,0.177l0.09,0.101l0.035,0.122l0.059,0.048l0.063,0.007l0.041,0.035l-0.006,0.073l-0.08,0.066l-0.011,0.087l0.021,0.066l-0.028,0.094l0.014,0.028l0.063,-0.042l0.014,-0.097l0.062,-0.053l0.073,-0.01l0.108,-0.056l0.194,0.025l0.122,0.118l0.014,0.073l0.049,0.035l0.086,-0.014l0.042,-0.045l0.08,-0.032l0.042,0.025l0.08,-0.025l0.062,-0.149l0.052,-0.007l0.052,0.059l0.046,0.229l0.069,0.077l0.063,0.007l0.059,0.028l0.014,0.041l0.045,0.021l0.052,-0.017l0.052,0.014l0.035,0.038h0.055l0.035,-0.031h0.049l0.042,0.034l0.173,0.011l0.254,0.052l0.094,0.069l0.101,0.056l0.128,0.017l0.212,0.125l0.077,0.066l0.166,0.059h0.115l0.097,0.039l0.021,0.087l-0.043,0.073l-0.011,0.083l0.026,0.057l-0.01,0.078l-0.057,0.105v0.099l0.052,0.099v0.099l-0.042,0.094l-0.005,0.13l0.114,0.167l-0.01,0.062l-0.042,0.047l-0.005,0.073l0.052,0.099l-0.015,0.052l-0.073,0.032l-0.115,0.015l-0.042,0.073l-0.01,0.089l-0.047,0.094v0.109l0.062,0.13l-0.02,0.11l-0.099,0.104l-0.063,0.13l-0.104,0.105l-0.011,0.109l0.037,0.115l0.125,0.041l0.412,0.298l0.062,0.109l0.047,0.031l0.078,-0.01l0.063,0.036v0.052l0.062,0.032l3.347,-0.678l0.219,-0.01l5.483,-1.122l6.169,-5.443l16.801,-10.391l-1.48,-2.992l-0.068,0.047l-0.13,0.011l-0.167,0.088l-0.313,0.099l-1.162,-0.792l-0.125,-0.021l-0.115,-0.057l-0.02,-0.089l-0.303,-0.307l-0.391,-0.172l-0.156,0.021l-0.052,0.12l-0.073,0.078l-0.073,-0.016l-0.104,-0.156l-0.094,-0.047l-0.313,0.01l-0.135,0.115l-0.152,0.026l-0.119,-0.042l-0.136,0.005l-0.078,0.053l-0.334,-0.011l-0.052,-0.036l-0.036,-0.084l-0.23,-0.234l-0.177,-0.089l-0.115,-0.13l-0.01,-0.094l-0.313,-0.552l-0.021,-0.12l-0.036,-0.094l-0.209,-0.256l-0.047,-1.548l-2.345,-3.309l0.13,-0.178l0.245,-0.526l1.35,-0.553l0.188,-0.516l-0.042,-0.39l0.11,-0.438l-0.094,-0.068l-0.177,-0.245l-0.105,-0.636l-0.093,-0.245l-0.027,-0.219l-0.057,-0.13l-0.005,-0.11l0.047,-0.182l0.01,-0.203l0.063,-0.125l0.005,-0.141l0.057,-0.177l0.152,-0.115l0.046,-0.141l-0.02,-0.052l-0.167,0.005l-0.026,-0.041l0.021,-0.042l0.156,-0.021l0.094,-0.104l0.182,-0.459l-0.002,-0.38l0.028,-0.105l0.063,-0.062l0.007,-0.09l-0.501,-1.613l0.258,-1.904l-0.105,-1.084l-0.34,-1.626l-0.938,-2.071l-0.404,-0.515l-0.052,-0.385l0.039,-0.091l0.069,-0.041h0.063l0.114,-0.025l0.184,-0.111l0.15,-0.038l-1.786,-7.586l-2.674,-1.72l-0.11,-1.324l-0.823,-0.917l0.01,-0.214l-0.792,-0.333l-0.156,0.005l-0.151,-0.115l-0.256,-0.875l-0.448,-0.626l-0.125,-0.307l-0.078,-0.324l0.036,-0.078l-0.021,-0.094l-0.182,-0.125l0.062,-0.156l-0.088,-0.282l0.083,-0.145l-0.01,-0.167l0.062,-0.151l-0.094,-0.178l0.037,-0.073l0.141,-0.057l0.12,-0.146l0.169,-0.294l0.255,0.117l0.248,-0.146l0.068,-0.094l0.036,-0.164l0.138,-0.391v-0.162l0.058,-0.054l0.177,-0.016l0.133,-0.104l0.193,-0.073l0.179,-0.157l0.266,-0.106l0.144,-0.125l0.013,-0.073l0.054,-0.037l0.112,-0.003l0.034,-0.031l-0.018,-0.057l0.117,-0.125l0.131,-0.081l-0.003,-0.039l-0.125,-0.047l-0.031,-0.06l0.034,-0.034l0.099,-0.021l0.075,-0.117l0.076,-0.016l0.013,-0.031l-0.089,-0.06l-0.029,-0.125l-0.01,-0.154l-0.078,-0.367l-0.042,-0.047l0.016,-0.05l0.12,-0.088l0.08,0.002l0.027,-0.049l0.013,-0.229l0.148,-0.357l0.167,-0.113l0.042,-0.075l0.044,-0.136l0.109,-0.195l0.097,-0.055l-0.013,-0.018h-0.107l-0.13,-0.044l-0.172,-0.11l-0.076,-0.021l-0.078,-0.107v-0.138l0.055,-0.302l0.01,-0.154l0.089,-0.12l0.101,-0.033l0.008,-0.079l-0.055,-0.06l-0.044,-0.393l0.037,-0.154l-0.021,-0.146l-0.073,-0.065l-0.081,-0.01l-0.159,-0.18l-0.042,-0.162l0.042,-0.227l-0.013,-0.203l-0.039,-0.036l-0.005,-0.042l0.041,-0.044l0.003,-0.045l-0.026,-0.112l0.031,-0.06l0.076,-0.052l0.041,-0.216l0.006,-0.146l0.067,-0.167l0.076,-0.073l-0.003,-0.138l-0.107,-0.107l0.011,-0.065l0.068,-0.07l0.086,-0.204l-0.032,-0.127l0.039,-0.091l0.076,-0.019l0.026,-0.047l-0.031,-0.08l0.018,-0.123l0.055,-0.07l0.013,-0.107l0.029,-0.047l-0.011,-0.052l-0.104,-0.037l-0.044,-0.049l-0.053,-0.005l-0.08,0.039l-0.167,-0.039l-0.097,0.015l-0.205,-0.054l-0.159,-0.102v-0.094l0.078,-0.06l0.094,0.003l0.211,-0.104l0.101,-0.008l0.089,-0.058l0.049,-0.096l0.183,-0.089l0.044,-0.002l0.047,-0.026l0.018,-0.06l0.06,-0.029l0.058,0.016l0.062,-0.039l0.011,-0.107l0.017,-0.045l0.075,-0.061l0.01,-0.085l-0.033,-0.035l-0.047,-0.099l0.011,-0.049l-0.025,-0.036l-0.094,0.007l-0.015,-0.03l0.012,-0.029l0.222,-0.072l0.242,0.018l0.068,-0.009l0.043,-0.073l0.052,-0.012l0.063,0.007l0.135,-0.057l0.089,-0.11l0.002,-0.04l-0.054,-0.031l-0.059,-0.004l-0.066,-0.045l-0.011,-0.111l0.019,-0.069l0.07,-0.042l0.002,-0.035l-0.03,-0.029v-0.053l-0.057,0.021h-0.099l-0.125,0.032l-0.199,0.089l-0.203,0.05l-0.159,-0.024l-0.06,-0.042l-0.203,-0.041l-0.208,0.034l-0.086,-0.027l-0.021,-0.041l-0.084,-0.076l-0.06,-0.01l-0.445,0.234l-0.472,0.183l-0.391,0.049l-0.229,-0.028l-0.146,-0.112l-0.011,-0.055l0.034,-0.065l0.003,-0.058l-0.039,-0.036l-0.005,-0.037l0.067,-0.075l0.021,-0.06l-0.034,-0.013l-0.07,0.042l-0.159,0.028l-0.057,-0.01l-0.021,-0.032l-0.125,-0.049l-0.076,0.034l-0.081,-0.003l-0.177,-0.07l-0.06,-0.084l-0.104,-0.072l-0.031,-0.068l-0.079,-0.042l-0.091,-0.021l-0.245,0.013l-0.075,-0.047l-0.019,-0.073l-0.062,-0.02l-0.107,0.046l-0.151,-0.033l-0.115,0.002l-0.068,-0.047l-0.135,-0.015l-0.055,0.036l-0.055,-0.008l-0.015,0.021l0.028,0.05l0.248,0.177l-0.001,0.096l-0.099,0.167l-0.234,0.212l-0.129,0.007l-0.076,-0.028l-0.176,-0.002l-0.236,0.119l-0.264,0.034l-0.136,-0.047l-0.017,-0.123l-0.165,-0.122l-0.151,-0.017l-0.12,0.037l-0.41,-0.025l-0.135,-0.071l-0.117,-0.018l-0.052,-0.049l0.007,-0.09l-0.013,-0.053l-0.08,-0.04l-0.054,-0.104l-0.05,-0.019l-0.062,-0.096l-0.125,-0.037l-0.068,0.024l-0.091,0.002l-0.052,-0.015l-0.086,0.008l-0.212,0.07l-0.036,0.055l-0.081,0.068l-0.146,0.039l-0.018,0.039l0.013,0.028l-0.003,0.039l-0.078,0.063l0.005,0.05l0.047,0.031l0.026,0.052l-0.007,0.07l-0.05,0.071l-0.125,0.07l-0.159,0.031l-0.255,0.089l-0.258,0.13l-0.386,0.117l-0.391,0.058l-0.102,0.005l-0.054,-0.039l-0.008,-0.05l-0.031,-0.01l-0.139,0.031l-0.062,0.003l-0.11,0.034l-0.161,0.127l-0.154,0.04l-0.096,0.049l-0.086,0.117l-0.006,0.06l-0.093,0.123l-0.175,0.104l-0.136,0.018l-0.052,0.034l-0.169,0.018l-0.07,0.034l-0.146,0.024l-0.261,-0.003l-0.305,-0.094l-0.242,-0.12l-0.105,-0.112l-0.002,-0.099l0.083,-0.094l-0.005,-0.049l-0.042,-0.023l-0.101,-0.003l-0.144,-0.068l-0.028,-0.044l-0.078,-0.039l-0.079,-0.011l-0.114,-0.057l-0.081,-0.076l-0.261,-0.091l-0.143,-0.026l-0.123,-0.06l-0.117,-0.002l-0.081,0.036h-0.234l-0.05,-0.016l-0.044,-0.002l-0.039,0.015l-0.31,-0.002l-0.102,-0.008l-0.086,-0.044l-0.109,-0.021l-0.055,-0.031l-0.086,0.005l-0.065,0.049l-0.102,0.011l-0.177,-0.052l-0.304,-0.001l-0.129,0.04l-0.099,-0.008l-0.062,-0.021l-0.118,-0.005l-0.093,0.042h-0.092l-0.104,-0.032l-0.219,-0.013l-0.13,0.016l-0.12,-0.011l-0.117,-0.075l-0.12,0.005l-0.154,0.055l-0.359,0.06l-0.066,0.06l-0.057,0.099l-0.221,0.125l-0.238,0.07l-0.099,0.045l-0.143,0.096l-0.143,0.039l-0.261,-0.021l-0.412,-0.096l-0.177,-0.076h-0.068l-0.005,0.031l0.021,0.045l-0.029,0.104l-0.14,0.094l-0.191,0.021l-0.195,-0.034l-0.071,-0.052l0.003,-0.071l-0.023,-0.067l-0.089,-0.079l-0.162,-0.028l-0.302,0.062l-0.062,0.029l-0.032,0.107l-0.065,0.044l-0.073,0.005l-0.021,0.016l0.003,0.068l-0.076,0.13l-0.104,0.091l-0.141,0.034l-0.164,0.083l-0.266,0.191l-0.338,0.114l-0.371,-0.01l-0.138,-0.05l-0.06,-0.106l-0.096,-0.047l-0.208,0.002l-0.24,0.089l-0.198,0.042l-0.201,0.08l-0.313,0.071l-0.331,0.036l-0.193,-0.018l-0.273,0.016l-0.136,0.031h-0.255l-0.136,0.034h-0.216l-0.159,0.057l-0.263,0.005l-0.104,0.042l-0.105,-0.005l-0.104,-0.044l-0.188,0.002l-0.091,-0.029l-0.12,0.003l-0.099,0.115l-0.12,0.044l-0.138,0.016l-0.193,-0.039l-0.086,0.013l-0.044,0.047l-0.099,0.026l-0.154,-0.003l-0.127,0.029l-0.162,0.088l-0.24,0.073l-0.104,0.081l-0.089,0.18l-0.125,0.086l-0.148,0.005l-0.089,0.034l-0.109,0.073l-0.138,0.049l-0.227,-0.005l-0.078,0.034l-0.058,0.068l-0.146,0.094l-0.127,0.039l-0.498,0.284l-0.203,0.021l-0.123,0.062l-0.073,0.136l-0.172,0.127l-0.226,0.055l-0.342,0.36l-0.138,0.354l-0.206,0.329l-0.19,0.187l-0.321,0.151l-0.109,0.003l-0.339,-0.055l-0.253,-0.112l-0.034,-0.086l0.019,-0.078l-0.016,-0.055l-0.164,-0.083l-0.154,-0.003l-0.149,0.084l-0.151,0.021l-0.052,0.057l-0.008,0.214l-0.08,0.138l-0.092,0.039l-0.06,0.002l-0.075,0.029l-0.073,0.11l-0.185,0.112l-0.151,-0.003l-0.105,-0.043l-0.007,-0.053l-0.038,-0.02l-0.071,0.012l-0.174,-0.077l-0.048,-0.047l-0.058,-0.007l-0.059,0.033l-0.09,0.166l-0.123,0.052l-0.082,-0.004l-0.068,-0.054h-0.049l-0.081,0.049l-0.068,0.095l-0.076,0.053l-0.089,0.003l-0.094,0.057l-0.052,0.103l-0.04,0.026l-0.066,0.007l-0.179,0.151l-0.035,0.073l-0.034,0.023l-0.098,-0.016l-0.031,0.026l-0.009,0.066l-0.073,0.177l-0.064,0.244l-0.115,0.314l-0.062,0.08l-0.077,0.043l-0.085,0.002l-0.066,0.031l-0.036,0.069l-0.13,0.089l-0.118,0.015l-0.081,-0.011l-0.079,0.002l-0.225,0.127l-0.066,0.007l-0.093,0.058l-0.071,0.086l-0.148,0.091l-0.141,0.167h-0.039l-0.034,-0.026l-0.065,0.002l-0.086,0.084l-0.058,0.086l-0.143,0.091l-0.075,0.002l-0.045,-0.028l-0.036,0.002l-0.032,0.04l-0.179,0.093l-0.324,0.084l-0.213,0.005l-0.11,0.016l-0.181,-0.015l-0.101,-0.066l-0.112,-0.038h-0.046l-0.041,0.042l-0.075,0.019h-0.054l0.004,0.091l-0.014,0.055l0.118,0.094l0.056,0.076l0.125,0.046l0.062,0.045l0.08,0.128l0.209,0.139l0.121,-0.034l0.066,0.014l0.06,-0.018l0.003,0.219l0.108,0.083l0.08,0.021l0.111,0.073l0.017,0.139l0.111,0.025l0.15,0.093l0.274,0.146l-0.111,0.094l-0.017,0.111l-0.139,0.143l-0.08,0.139l-0.063,0.052l0.063,0.007l0.083,0.052l0.084,0.136l0.024,0.076l0.139,0.163l0.222,0.094l-0.354,0.424l0.038,0.083l0.146,0.119l0.097,0.163l-0.01,0.066l0.003,0.288l0.226,0.494l-0.191,1.004l0.104,0.407l-0.218,0.159l-0.032,0.143l0.108,0.055l0.017,0.046l0.077,0.007l0.059,-0.025h0.059l0.031,0.035l0.063,0.202l0.083,0.024l0.026,0.069l-0.015,0.178l0.026,0.135l-0.094,0.172l-0.011,0.136l-0.036,0.093l-0.068,0.058l-0.052,0.156l0.016,0.329l-0.037,0.078l0.042,0.109l0.062,0.058l0.051,0.083l0.073,0.038l0.101,0.167l0.02,0.118l0.132,0.108l0.018,0.048l0.069,0.049l0.094,0.028l0.059,0.059l0.042,0.139l-0.049,0.09l0.004,0.052l0.021,0.028l-0.084,0.143l-0.076,-0.007l-0.038,0.031l-0.084,0.014l0.605,0.903l0.413,0.188l1.025,0.751l-0.194,0.156l-0.007,0.04l-0.044,0.021l-0.05,0.06l-0.169,0.067l-0.026,0.04v0.033l-0.1,-0.013l-0.036,0.003l-0.026,0.023l-0.039,-0.005l-0.097,0.073l0.013,0.034l-0.033,0.081l-0.026,0.021v0.065l-0.047,0.036l-0.053,0.024l-0.007,0.047l0.044,0.039l-0.003,0.094l-0.023,0.062l0.003,0.055l-0.019,0.029l0.019,0.19l-0.047,0.015l-0.034,0.053l-0.12,0.083l0.042,0.042l0.049,-0.016l0.057,0.008l0.128,-0.06l0.136,0.036l0.049,0.063l0.008,0.049l0.06,0.053l-0.005,0.065l-0.102,0.028l-0.044,0.04l-0.008,0.033l-0.031,0.011l-0.045,-0.005l-0.078,0.026h-0.065l-0.055,-0.039l-0.245,0.023l-0.062,-0.01l-0.024,-0.029l-0.049,0.005l-0.021,0.026l-0.115,-0.013l-0.14,-0.034h-0.136l-0.044,-0.036l-0.042,0.002l-0.05,0.047h-0.26l-0.203,-0.073l-0.102,-0.002l-0.023,-0.024l-0.05,-0.005l-0.057,0.013l-0.073,-0.029h-0.076l-0.128,-0.057l-0.067,-0.002l-0.076,-0.024l-0.039,-0.023l-0.089,-0.008l-0.026,0.018l-0.039,-0.01l-0.094,-0.071l-0.073,0.005l-0.026,0.05l-0.065,-0.029l-0.104,-0.005l-0.037,-0.044l-0.049,-0.024l-0.133,0.013l-0.013,0.029l-0.047,0.01l-0.104,0.013l-0.089,0.047l-0.12,0.042l-0.13,-0.008l-0.13,-0.018l-0.107,-0.047l-0.055,-0.005l-0.036,0.013l-0.045,-0.018l-0.122,0.023l-0.545,-0.029l-0.073,0.034l-0.26,0.021l-0.079,0.073l-0.086,0.026l-0.046,0.045l-0.196,-0.024l-0.219,0.016l-0.002,0.021l-0.047,0.005l-0.342,-0.024l-0.226,0.006l-0.063,-0.011l-0.021,-0.018l-0.036,0.002l-0.003,0.047l-0.039,0.034l0.003,0.068l-0.021,0.026l-0.026,0.201l0.049,0.047l0.005,0.052l0.052,0.06v0.047l0.06,0.041l0.019,0.065l-0.011,0.073l0.073,0.071l0.005,0.039l0.071,0.096l0.002,0.063l0.019,0.021v0.044l-0.024,0.037l0.003,0.041l0.021,0.029l0.031,0.008l0.026,0.041v0.071l-3.13,0.664l0.005,1.025l-0.023,-0.013l-0.037,0.052l-0.049,0.028l-0.034,-0.002l-0.029,0.015l-0.008,0.066l-0.052,0.015l-0.044,-0.013l-0.008,-0.062l-0.031,0.005l-0.034,0.039l0.026,0.031l-0.008,0.026h-0.031l0.01,0.058l-0.015,0.041l-0.065,0.058l0.007,0.02h0.032l0.013,0.04l0.023,0.005l0.022,-0.017l0.014,0.005l-0.01,0.064l-0.083,0.057l-0.005,0.039l-0.034,0.032l0.018,0.031l0.042,-0.003l0.034,0.099v0.058l0.028,0.026l-0.005,0.039l-0.068,0.083l0.005,0.068l-0.015,0.047l-0.003,0.083l0.018,0.003l0.014,-0.073l0.046,-0.031h0.058l0.023,0.039l0.024,-0.003l0.023,-0.078l-0.034,-0.009l-0.022,-0.015l0.012,-0.023l0.042,0.008l0.023,-0.026h0.023l0.006,0.065h0.018l0.008,-0.068l-0.032,-0.049l0.032,-0.026l0.073,0.023l0.052,0.065l-0.013,0.057l0.01,0.055l-0.028,0.136l0.018,0.021l0.093,0.007l0.01,-0.018l-0.042,-0.012l-0.036,0.002l-0.012,-0.018l0.019,-0.034l0.043,0.005l0.066,0.041l0.013,-0.01l-0.056,-0.078v-0.117l0.014,-0.055h0.014l0.003,0.036l0.016,0.021l-0.019,0.045l0.001,0.065l0.027,0.015l0.034,-0.027l0.014,-0.039l0.018,0.004l-0.007,0.076l0.027,0.033l0.002,0.089l0.028,0.009l0.017,-0.02l0.018,0.004l0.001,0.066l0.046,0.061l0.019,0.001l0.008,-0.031h0.02l0.017,0.014l0.016,-0.005l-0.002,-0.049l0.022,-0.031l0.018,0.002l0.001,0.031l-0.015,0.019v0.073l0.031,0.033l0.016,0.057l-0.002,0.047l-0.023,0.025l0.002,0.033l0.023,0.017l-0.007,0.054l-0.028,0.021l-0.031,0.078l0.001,0.069l-0.017,0.013l-0.047,-0.021l-0.024,0.021l0.014,0.027l-0.016,0.014l-0.028,-0.003l-0.008,0.019l0.014,0.033l-0.002,0.068l-0.026,0.019l-0.039,-0.009l-0.029,0.025l-0.019,0.068l-0.021,0.006l-0.039,-0.011l-0.021,0.006l-0.034,0.053l-0.025,0.005l-0.008,0.017l0.013,0.041v0.11l-0.016,0.056l-0.021,0.02l0.001,0.065l0.025,0.023l0.018,0.002l0.016,-0.021l0.025,-0.003l0.056,0.043l0.01,0.064l-0.012,0.022l0.013,0.022l0.018,0.008l-0.007,0.018l-0.031,0.007l-0.056,0.107l-0.743,0.293l-0.525,0.129l-0.619,0.041l-0.639,0.223l-1.008,0.952l-1.202,0.577l-1.287,0.959l-0.115,0.203l-0.052,0.057l-0.011,0.078l0.027,0.079l-0.037,0.093l-0.896,1.147l-0.06,-0.018l-0.076,0.003l-0.117,-0.045l-0.091,-0.052l-0.011,-0.034l-0.075,-0.073l-0.027,0.005l-0.044,0.045l-0.029,0.044l-0.119,0.016l-0.034,-0.029l0.015,-0.081l0.034,-0.06l0.052,-0.034l0.026,-0.054l0.006,-0.047l-0.032,-0.031l-0.091,-0.011l-0.065,-0.039l-0.068,-0.005l-0.039,-0.018l-0.078,0.005l-0.05,0.023l-0.096,0.008l-0.039,0.052l-0.047,0.003l-0.042,-0.021l-0.135,0.005l-0.055,0.044l-0.135,0.016l-0.04,0.021h-0.127l-0.076,0.034l-0.096,0.008l-0.159,-0.026l-0.112,-0.037l-0.076,-0.01l-0.068,0.01l-0.036,-0.023h-0.031l-0.037,0.031l-0.141,0.044l-0.117,-0.018h-0.047l-0.015,0.018l-0.034,0.003l-0.045,-0.013h-0.208l-0.073,0.036l-0.209,-0.005l-0.039,-0.008l-0.193,0.112l-0.039,0.055l-0.044,0.029l-0.039,-0.013l0.008,-0.026l-0.031,-0.011l-0.073,0.016l-0.133,-0.026l-0.05,0.026l-0.091,0.008l-0.016,0.028l-0.047,0.011l-0.036,-0.013l-0.086,0.01l-0.078,0.076l-0.032,0.054l-0.062,0.006l-0.031,0.028l-0.019,0.037l-0.044,0.013l-0.096,-0.037l-0.157,-0.005l-0.041,-0.031l-0.011,-0.031l-0.042,-0.013l-0.091,0.013l-0.044,-0.029l-0.003,-0.034l-0.026,-0.005l-0.081,0.034h-0.033l-0.034,-0.019l-0.065,-0.007l-0.037,-0.016l-0.078,-0.003l-0.07,0.037h-0.037l-0.026,-0.021l-0.086,-0.01l-0.039,0.002l-0.055,-0.052l-0.047,-0.005v-0.024l0.018,-0.028l-0.015,-0.016l-0.115,0.044l-0.07,-0.005l-0.024,0.011l-0.026,0.031l-0.086,0.034l-0.234,0.094l-0.076,0.06l-0.273,0.289l-0.05,0.021l-0.096,0.013l-0.05,0.034l-0.036,0.002l-0.021,-0.021l-0.316,0.071l-0.166,-0.008l-0.115,-0.037l-0.128,-0.002l-0.075,0.039l-0.026,0.049l0.026,0.029l-0.008,0.065l-0.029,0.013l-0.015,0.047l-0.032,0.029l-0.002,0.042l-0.026,0.007l-0.042,-0.026l-0.07,0.008l-0.159,0.081l-0.05,0.005l-0.175,0.083l-0.166,0.139l0.005,0.036l-0.037,0.021h-0.109l-0.146,0.062l-0.209,0.199l0.006,0.052l-0.037,0.026l-0.078,0.015l-0.407,0.256l-0.172,0.146l-0.145,0.12l-0.068,-0.016l-0.131,0.068l-0.057,0.094l-0.13,0.041l-0.146,0.125l-0.329,0.329l-0.088,0.109l-0.162,0.089l-0.182,0.062l-0.197,0.082l-0.1,0.069l-0.167,0.042l-0.052,0.052v4.214v0.736v0.7z"/>
</svg>
