<svg xmlns="http://www.w3.org/2000/svg" viewBox="301.541 448.182 9.007 7.587">
  <path d="M304.823,448.535l-0.042-0.052l-0.016-0.192l0.037-0.109l0.084,0.005l0.026,0.068l0.11,0.104l0.026,0.171l-0.058,0.036L304.823,448.535z M305.872,449.549l0.094,0.083l0.136-0.01l0.168-0.099l0.01-0.088l-0.184-0.182l-0.142-0.036l-0.157,0.068l-0.063,0.099l0.026,0.12L305.872,449.549z M307.879,449.522l0.025-0.007l0.002-0.031l0.035-0.012l0.026,0.023l-0.023,0.052l0.019,0.016l0.051-0.081l-0.019-0.092l-0.065-0.021l-0.073,0.042l-0.016,0.073L307.879,449.522z M305.078,452.17l0.063-0.01l0.016-0.042l-0.026-0.057l-0.052-0.005l-0.031,0.068L305.078,452.17z M305.172,452.871l0.058,0.042l0.079,0.016l0.037-0.031l-0.005-0.073l-0.063-0.062l-0.073-0.01l-0.037,0.062L305.172,452.871z M307.469,453.672l0.147,0.016l0.047-0.042l-0.021-0.057l-0.058-0.052h-0.147l-0.037,0.078L307.469,453.672z M305.893,455.506l0.131,0.073l0.152,0.016l0.136-0.073l0.126-0.203l-0.026-0.088l-0.225-0.125l-0.105,0.031l-0.047-0.031l-0.047,0.011l-0.052,0.088l-0.01,0.088l-0.063,0.146L305.893,455.506z M308.972,455.759l0.188,0.01l0.047-0.073l-0.031-0.088l-0.136-0.083l-0.147-0.016l-0.152,0.073l-0.005,0.057L308.972,455.759z M309.171,454.025l0.236,0.083l0.141,0.005l0.131-0.057l0.236-0.052l0.068-0.047l0.021-0.088l0.099-0.114l0.005-0.094l0.042-0.042l0.099-0.021l0.147-0.114l0.152-0.229l-0.01-0.083l-0.068-0.026l-0.073,0.036l-0.089-0.057h-0.188l-0.073,0.078l-0.115,0.021l-0.194,0.151l-0.016,0.146l-0.058,0.083l-0.126,0.016l-0.068-0.031l-0.037,0.031l-0.005,0.083l-0.283,0.197l-0.031,0.068L309.171,454.025z M306.653,452.357l0.038,0.016l0.07-0.003l0.054-0.033l0.016-0.052l-0.07-0.081l-0.035-0.087l-0.042,0.002l0.005,0.114l-0.042,0.047L306.653,452.357z M306.663,452.071l0.063-0.01l0.016-0.042l-0.058-0.01l-0.037,0.021L306.663,452.071z M304.553,451.614l0.068,0.083l0.016,0.099l0.084,0.042l0.052-0.016l0.073,0.026l0.052,0.062l0.11,0.026l0.226-0.031l0.252,0.073l0.089-0.031l0.042-0.125l0.084-0.031l-0.005-0.078l-0.084-0.062l-0.058-0.197l-0.152-0.124l-0.225-0.042l-0.084-0.062l-0.252-0.088l-0.126,0.021l-0.084,0.088l0.01,0.099l-0.068,0.109l-0.068,0.031v0.12L304.553,451.614z M305.655,451.629l0.026,0.042l0.047-0.005v-0.047l-0.047-0.021L305.655,451.629z M301.588,451.812l0.005,0.161l0.021,0.109l0.105,0.166l0.005,0.068l0.084,0.047l0.142,0.005l0.136,0.047l0.079,0.005l0.289-0.047l0.126-0.14l-0.005-0.094l0.037-0.109v-0.156l-0.105-0.249l-0.142-0.104l-0.142-0.005l-0.094,0.073l-0.1,0.005l-0.094,0.042l-0.336,0.01l-0.058,0.068L301.588,451.812z M304.464,454.371l0.014-0.042h0.031v0.035l0.021,0.017l0.017-0.042l-0.024-0.045l-0.059-0.01l-0.031,0.035l0.007,0.055L304.464,454.371z M304.841,453.803l0.038-0.021l-0.014-0.028l-0.042-0.003l-0.017,0.035L304.841,453.803z M304.733,453.744l0.038-0.007l0.014-0.028l-0.031-0.014l-0.031,0.021L304.733,453.744z M305.836,453.207l0.122,0.035l0.07,0.031l0.052,0.073l0.209,0.094l0.042-0.028h0.035l0.024,0.035l0.042,0.003l0.014-0.035l0.056-0.021l0.077,0.024l0.038-0.021l-0.028-0.038l0.017-0.035l0.202,0.021l0.07-0.031l0.063-0.149l0.066,0.007l0.087-0.125l-0.028-0.042l0.024-0.045l-0.007-0.142l0.038-0.062l-0.004-0.066l-0.174-0.111l-0.063-0.055l-0.045-0.118l-0.035-0.021l-0.091,0.014l-0.045,0.017l-0.112,0.01l-0.045-0.024l-0.094,0.014l0.007,0.052l-0.028,0.028l-0.154-0.052l-0.15,0.021l-0.161,0.069l-0.059-0.003l-0.038,0.021l0.017,0.042l-0.021,0.045h-0.056l-0.028,0.031l0.021,0.073l-0.056,0.211l0.059,0.208L305.836,453.207z M301.975,450.769l0.215-0.094l0.115-0.042l0.126,0.036l0.068,0.114l0.007,0.284l0.021,0.104l0.058,0.083l0.005,0.052l-0.037,0.047l0.021,0.177l0.063,0.01l0.084,0.187l0.1,0.094l0.126,0.036l0.105,0.099l0.094,0.026l0.042,0.042l-0.026,0.078l0.01,0.171l0.062,0.14l0.126,0.073l0.121,0.13l0.136,0.068l0.028,0.045l0.026,0.024l0.061,0.019l0.005,0.083l-0.079,0.104l-0.063-0.016l-0.094,0.052l-0.021,0.057l-0.084,0.057l-0.058,0.005l-0.126-0.057l-0.105,0.021l-0.047,0.057l-0.22-0.005l-0.052,0.031v0.068l-0.189,0.161l-0.11,0.047l-0.315,0.312l-0.058,0.187l0.089,0.114l0.105,0.021l0.047,0.036l-0.005,0.088l0.031,0.083l0.241,0.083l0.194-0.031l0.357,0.073l0.152,0.055l0.055,0.021l0.029-0.01l0.008-0.049l0.171-0.088l0.357-0.094l0.094-0.109l0.068-0.016l0.136,0.042l0.121-0.047l0.058-0.12l0.042-0.021h0.094l0.037-0.036l-0.01-0.088l0.1-0.327l0.131-0.078l0.005-0.094l-0.184-0.156l-0.199-0.312l-0.068-0.036l-0.052,0.057l-0.084-0.005l-0.058-0.068l0.016-0.062l-0.021-0.052l-0.075,0.012l0.004-0.021l0.077-0.033l0.021-0.052l0.026-0.307l-0.037-0.057l0.037-0.062l-0.037-0.036l-0.047,0.01l-0.1-0.13l-0.147-0.14l-0.257-0.197l-0.058-0.125l-0.22-0.197l-0.058-0.249l0.026-0.14l-0.005-0.151l-0.052-0.182l-0.327-0.289l-0.1-0.265l-0.058-0.031l-0.031-0.078h-0.089l-0.121,0.135l-0.163,0.068l-0.068-0.01l-0.115,0.031l-0.01,0.083l-0.136,0.166l-0.226,0.094l-0.016,0.083l0.094,0.125L301.975,450.769z"/>
</svg>
