<svg xmlns="http://www.w3.org/2000/svg" viewBox="340.812 445.165 21.832 24.037">
  <path d="M345.526,459.938l-0.03,-0.018l-0.087,-0.113l-0.052,-0.14l-0.002,-0.124l0.021,-0.046l0.024,0.004l0.058,0.067l0.033,0.101v0.117l0.056,0.087l0.003,0.046l-0.024,0.019Z M345.51,459.956l-0.047,-0.043l-0.014,0.011l0.009,0.039l0.019,0.014l0.024,-0.007l0.009,-0.014Z M344.627,449.038l0.018,-0.018l-0.016,-0.062l-0.021,-0.033l-0.014,0.012l0.006,0.093l0.026,0.008Z M344.735,449.176l0.071,0.055h0.028l0.006,-0.05 l-0.026,-0.04l-0.06,-0.035h-0.051l-0.011,0.012 l0.044,0.057Z M344.909,449.745l0.03,0.032l0.032,0.003l0.018,-0.032v-0.068l-0.026,-0.022 l-0.029,0.004l-0.024,0.046v0.037Z M340.878,455.357l0.049,0.01l0.026,-0.014l-0.033,-0.059l-0.066,-0.052l-0.042,0.028v0.042l0.066,0.045Z M341.61,456.572l0.036,-0.013v-0.031l-0.034,-0.005l-0.021,0.023l0.018,0.026Z M343.851,461.842l0.129,0.028l0.241,-0.05l0.101,-0.046l0.007,-0.089l0.084,-0.184l0.101,-0.064l0.283,-0.418l0.122,-0.074l0.133,-0.014l0.08,-0.12l-0.028,-0.078l-0.192,-0.089l-0.084,-0.078l-0.245,-0.071l-0.136,0.039l-0.122,0.085l-0.304,0.085l-0.077,0.081l-0.154,0.407l-0.017,0.553l0.077,0.096Z M344.56,460.101l0.029,-0.029l0.008,-0.037h-0.029l-0.045,0.04l0.003,0.027h0.034Z M344.261,460.6l0.034,-0.011l0.005,-0.021l-0.052,0.005l-0.013,0.024l0.026,0.003Z M345.097,460.513l0.008,-0.035l-0.021,-0.019l-0.024,0.016l0.014,0.041l0.022,-0.004Z M345.339,458.895l0.031,-0.023l0.01,-0.092l-0.01,-0.048l-0.059,-0.037l-0.038,0.018l-0.021,0.032l0.003,0.041l0.037,0.073l0.047,0.037Z M345.332,460.457l0.038,-0.019l0.017,-0.037l0.002,-0.124l0.051,-0.174l0.012,-0.081l-0.03,-0.147l-0.075,-0.133l-0.019,0.002l-0.03,0.081l-0.009,0.149l-0.065,0.232l-0.037,0.168l0.045,0.055l0.098,0.028Z M344.23,463.269l0.075,-0.015l0.103,-0.007l0.035,0.022l0.08,-0.013l0.009,-0.05l0.036,-0.055l0.054,-0.042l0.014,-0.06l-0.009,-0.048l0.026,-0.191l0.058,-0.076l0.014,-0.058l-0.045,-0.149l-0.023,-0.007l-0.04,0.032l-0.084,0.246l-0.154,0.151l-0.049,0.028l-0.11,-0.007l-0.107,0.037l-0.126,-0.011l-0.021,0.018l0.02,0.074l0.047,0.099l0.036,0.021h0.042l0.069,0.056l0.047,0.007Z M343.892,463.255l0.032,0.024l0.011,-0.01l-0.024,-0.049l-0.046,-0.037l-0.007,0.012l0.033,0.06Z M344.123,463.296l0.017,-0.023l-0.022,-0.041l-0.052,0.008l-0.036,-0.013l-0.07,-0.133l-0.084,-0.112l-0.035,-0.004l-0.028,0.045l-0.003,0.04l0.059,0.097l0.06,0.054l0.026,0.056l0.038,0.016l0.063,-0.011l0.067,0.02Z M343.857,463.241l-0.029,-0.062l-0.074,-0.041l-0.011,-0.021l-0.006,-0.062l0.022,-0.042l0.004,-0.03h-0.017l-0.057,0.073 l-0.045,0.096l0.013,0.04l0.042,0.04l0.149,0.024l0.008,-0.014Z M343.127,462.387l0.01,-0.013l-0.011,-0.004l-0.015,0.008l-0.003,0.011l0.02,-0.003Z M344.045,460.416l0.032,-0.018l-0.003,-0.017h-0.017l-0.029,0.016 l-0.007,0.017l0.024,0.003Z M344.069,460.457l0.029,-0.013l0.021,-0.02l-0.01,-0.011l-0.025,0.006l-0.021,0.024l0.006,0.014Z M343.793,463.136l-0.006,-0.017l-0.015,-0.006l-0.007,0.013l0.013,0.013l0.015,-0.003Z M343.814,463.125l0.006,-0.016l-0.013,-0.024l-0.014,-0.006l-0.006,0.014l0.014,0.025l0.013,0.006Z  M343.889,463.377l-0.068,0.076l0.011,0.096l0.076,0.052l0.039,0.193l-0.034,0.076l0.021,0.057l0.073,0.013l0.014,0.036l-0.027,0.063l0.034,0.169l-0.042,0.076l0.048,0.172l-0.034,0.096l0.057,0.115l0.063,0.05l0.029,0.245l0.095,0.075l0.002,0.037l-0.312,0.198l-0.081,-0.021l-0.035,0.026l0.006,0.049l-0.084,0.131l-0.126,0.039l-0.108,-0.026l-0.131,-0.078l-0.257,0.013l-0.176,0.239l-0.024,0.138l0.077,0.12l0.047,0.016v0.287l0.071,-0.034l0.06,0.021l0.005,0.052l0.045,0.002l0.076,-0.062l0.063,0.002l0.026,0.06h0.047l0.113,-0.06l0.021,0.016l-0.199,0.245l-0.016,0.055l-0.136,0.094l-0.084,0.093l-0.092,0.165l0.013,0.229l0.186,0.135l0.137,-0.002l0.202,-0.107l0.06,-0.128l0.053,-0.034l0.078,-0.005l0.25,-0.276l0.047,-0.143l0.031,-0.003l0.016,0.042h0.034l0.047,-0.065h0.027l0.015,0.041l0.147,0.011l0.113,0.054l0.058,0.097l0.205,0.154l0.068,0.002l0.063,0.045l0.092,0.002l0.034,-0.026h0.044l0.152,0.11l0.058,0.075l0.003,0.068l0.152,0.133l0.113,0.01l0.21,-0.088l0.073,-0.003l0.176,-0.12l0.089,-0.005l0.126,0.07l0.121,0.211l0.102,0.047l0.069,0.003l0.042,-0.026h0.049l0.042,0.039l0.037,0.146l-0.058,0.055l0.019,0.161l0.092,0.089l0.042,0.221l0.081,0.118l0.11,0.294l0.047,0.044l0.069,0.006l0.039,0.044l0.029,0.125l0.155,0.086l0.081,0.154l0.081,0.083l0.412,-0.016l0.142,0.055l0.076,0.005l0.042,-0.026l0.047,0.003l0.019,0.062l0.055,0.006l0.071,0.078l0.084,0.008l0.137,-0.391l0.045,-0.038l0.175,-0.014l0.056,0.041l0.042,-0.017v-0.087l-0.087,-0.062l0.01,-0.059l0.06,-0.098v-0.048l-0.067,-0.056l0.004,-0.049l0.084,-0.034l0.021,-0.101l-0.014,-0.091l0.094,-0.09l0.06,-0.118l0.15,-0.066l0.147,-0.007l0.231,-0.059l0.165,-0.136l0.017,-0.1l-0.021,-0.108l0.088,-0.125l0.066,-0.216l0.091,-0.059l-0.011,-0.038l-0.119,-0.007l-0.062,-0.128l0.035,-0.251l0.09,-0.083l0.042,-0.142l-0.024,-0.063l0.017,-0.073l0.098,-0.056l0.018,-0.139l-0.028,-0.1l0.14,-0.185l0.01,-0.073l-0.101,-0.107l0.024,-0.17l0.144,-0.185l0.129,-0.027l0.053,-0.101l-0.011,-0.115l0.07,-0.167l0.116,-0.062l0.07,-0.15l-0.004,-0.16l-0.056,-0.111l0.025,-0.041l0.08,-0.007l0.021,-0.178l-0.024,-0.111l0.045,-0.191l0.084,-0.104l0.032,-0.24l0.049,-0.059l0.007,-0.08l-0.056,-0.101l0.056,-0.045l0.126,0.049l0.203,0.017l0.052,0.045l0.028,0.289l0.066,0.059l0.221,-0.101l0.031,-0.083l-0.045,-0.164l-0.091,-0.045l-0.049,-0.101l0.035,-0.073l0.168,-0.121l0.147,-0.226l0.035,-0.083l-0.014,-0.077l0.024,-0.017l0.084,0.028l0.168,-0.143l0.067,-0.135l0.188,-0.265l0.375,-0.225l0.031,-0.056l4.509,-1.51l2.204,-1.735l1.697,-2.12h0.024l0.039,0.059l0.033,0.002l0.01,-0.026l-0.012,-0.03l0.632,-2.236l-0.001,-0.101l0.058,-0.002l0.11,0.096l0.044,0.083l0.082,0.047l0.065,0.006l0.061,-0.06h0.063l0.065,0.031h0.158l0.029,-0.052l-0.124,-0.071l-0.034,-0.062l0.04,-0.097l-0.006,-0.148l-0.081,-0.047l-0.018,-0.065l0.036,-0.078l-0.005,-0.05l-0.094,-0.036l-0.003,-0.05l0.042,-0.018v-0.05l-0.055,-0.041l-0.003,-0.128l0.063,-0.042l0.005,-0.036l-0.065,-0.065l0.005,-0.058l0.129,-0.057l0.026,-0.063l-0.029,-0.104l0.024,-0.141l-0.042,-0.07l0.005,-0.057l-0.037,-0.026l-0.058,0.034l-0.031,-0.024l0.016,-0.057l-0.053,-0.031l-0.044,0.015l-0.069,-0.055l-0.005,-0.091l-0.055,-0.031l-0.068,0.013l-0.142,-0.083l-0.026,-0.089l-0.126,-0.138l-0.155,-0.261l-0.06,-0.245l-0.194,-0.226l-0.116,0.033l-0.037,-0.023l-0.049,0.039h-0.066v-0.287l0.052,0.003l0.111,0.063h0.052l0.058,-0.055l0.115,0.013l0.181,0.122l0.113,0.011l0.074,0.052l0.123,-0.018l0.029,-0.06h0.034l0.021,0.044l0.147,-0.003l0.185,-0.114l0.005,-0.048l-0.099,0.026l-0.254,-0.138l-0.12,0.013l-0.166,-0.044l-0.135,-0.132l-0.255,-0.144l-0.125,0.013l-0.072,-0.05v-0.119l-0.172,-0.119h-0.4l-0.213,-0.075l-0.192,-0.127l-0.099,-0.01l-0.083,-0.059l-0.006,-0.075l-0.292,-0.334l-0.066,-0.204l-0.284,-0.15l-0.111,0.075l-0.066,-0.025l-0.003,-0.161l-0.125,-0.064l-0.104,0.043l-0.191,-0.047l-0.079,-0.146l-0.097,-0.059l-0.135,0.021l-0.068,0.161l-0.062,0.022l-0.083,-0.038l-0.127,0.05v0.465l-0.048,0.064l-0.271,0.014l-0.097,-0.057l-0.069,-0.007l-0.132,0.086l-0.076,0.007l-0.097,-0.115l-0.383,-0.078l-0.093,0.016l-0.002,0.091l-0.069,0.014l-0.073,-0.05h-0.076l-0.108,0.068l-0.225,-0.007l-0.121,-0.075l-0.152,-0.021l-0.063,-0.065l-0.076,-0.007l-0.064,0.036l-0.166,-0.019l-0.034,-0.134l-0.122,-0.217l-0.244,-0.054l-0.115,0.108l-0.291,-0.011l-0.073,-0.064l-0.265,-0.049l-0.088,-0.042l-0.042,-0.118h-0.077l-0.089,0.059l-0.213,0.085l-0.026,-0.037l0.047,-0.064l-0.026,-0.183l0.047,-0.253l0.119,-0.145l0.011,-0.188l-0.042,-0.041l-0.114,0.026l-0.172,0.005l-0.239,-0.166l-0.145,-0.037l-0.089,-0.114l0.011,-0.078l0.072,-0.088l0.016,-0.12l-0.177,-0.109l-0.109,0.047l-0.062,-0.021l-0.146,0.031l-0.135,0.099l-0.234,-0.016l-0.259,-0.078l-0.047,-0.083l-0.265,-0.145l-0.109,-0.016l-0.068,-0.052l-0.021,-0.067l-0.088,-0.031l-0.073,0.026l-0.171,-0.073l0.015,-0.063l-0.031,-0.13l-0.281,-0.176l-0.005,-0.078l0.094,-0.047l0.01,-0.057l-0.083,-0.047l-0.078,-0.114l0.005,-0.089l-0.057,-0.083l-0.073,-0.01l-0.161,0.057l-0.046,0.052l-0.063,0.026l-0.038,-0.028l-0.038,0.018l0.021,0.041v0.035l-0.059,-0.007l-0.021,-0.076l0.035,-0.083l-0.052,-0.028l-0.08,0.034l-0.173,-0.069l-0.163,-0.18l-0.218,-0.01l-0.111,-0.07l-0.062,-0.173l-0.326,-0.256l-0.108,-0.031l-0.062,-0.042l-0.017,-0.066l-0.121,-0.086l-0.078,-0.028l-0.054,-0.052l-0.037,-0.006l-0.023,0.034l-0.016,0.154l0.052,0.206l-0.008,0.104l0.039,0.037l0.107,0.018l0.052,0.068l-0.054,0.007l-0.06,-0.031l-0.092,-0.008l-0.052,-0.086l-0.002,-0.093l-0.039,-0.068h-0.039l-0.11,0.146l-0.122,0.114l0.002,0.107l0.076,0.071l0.055,0.002l0.041,-0.049l0.047,0.002l0.037,0.037l0.093,-0.037l0.099,0.019v0.026l-0.109,0.015l-0.044,0.034h-0.05l-0.041,-0.034l-0.021,0.011l-0.019,0.057l-0.08,0.01l-0.138,-0.101l-0.008,-0.045h-0.065l-0.097,0.073l-0.002,0.042l0.127,0.112l0.013,0.115l-0.023,-0.005l-0.05,-0.079l-0.088,-0.054l-0.047,0.008l-0.243,0.281l-0.126,0.114l-0.285,0.087l-0.298,-0.004l-0.125,0.032l-0.122,-0.007l-0.056,-0.032l-0.166,0.035l-0.254,0.198l-0.275,0.101l-0.298,-0.004l-0.306,0.108l-0.23,0.257l-0.375,0.136l-0.115,0.083l-0.152,0.052h-0.209l-0.115,0.052l-0.104,0.167l0.007,0.177l-0.014,0.122l0.038,0.108l0.108,0.031l0.181,0.278l-0.011,0.167l-0.135,0.177l0.014,0.101l0.14,0.164l0.073,0.044l0.041,0.123l-0.018,0.112l0.011,0.151l0.104,0.076l0.026,0.067l0.005,0.136l-0.07,0.091l-0.021,-0.016l-0.008,-0.059l-0.089,-0.094l-0.013,-0.131l0.016,-0.065l-0.034,-0.185l-0.109,-0.117l-0.024,0.003l-0.005,0.078l0.026,0.18l0.008,0.393l-0.028,0.248l-0.102,0.267l-0.082,0.038l-0.063,0.164l-0.196,0.243l-0.106,0.056l-0.203,0.229l-0.188,0.155l-0.05,0.005l-0.047,-0.038l-0.038,0.003l-0.036,0.087l-0.055,0.057l-0.06,0.029l-0.047,0.057l-0.065,0.235l-0.114,0.133l-0.149,0.104l-0.057,0.008l-0.024,0.031l0.011,0.112l0.054,0.13l0.063,0.073l0.086,0.365l0.091,0.102l0.018,0.094l0.066,0.086l0.078,0.018l0.073,-0.013l0.14,0.052l-0.037,0.017l-0.094,-0.019l-0.102,0.016l-0.111,-0.03l-0.072,-0.081l-0.001,-0.087l-0.044,-0.004l-0.075,0.056l-0.078,0.16l-0.13,0.362l-0.047,0.251l-0.078,0.214l-0.11,0.16l-0.146,0.081l-0.089,-0.003l-0.034,-0.047l-0.034,-0.002l-0.083,0.06l-0.115,-0.003l-0.029,-0.029h-0.036l-0.146,0.045l-0.122,0.023l-0.066,-0.01l-0.033,0.023l-0.016,0.058l-0.185,0.214l-0.05,0.016l-0.041,0.088l0.067,0.285l0.159,0.275l0.287,0.337l0.104,0.188v0.055l-0.06,0.078l-0.007,0.12l-0.037,0.037l-0.01,0.055l0.007,0.057l-0.02,0.057l-0.139,0.068l-0.023,0.081l0.023,0.074l-0.015,0.07l-0.089,0.047l-0.034,0.097l0.006,0.096l0.14,0.207l0.006,0.076l0.101,0.141l0.055,0.143l0.029,0.202l0.046,0.06l0.066,0.279l0.005,0.076l-0.037,0.07l-0.047,0.027l-0.054,0.01v0.044l0.086,0.16l-0.011,0.185l-0.049,0.134l-0.086,0.109l-0.091,0.055l-0.068,0.013l-0.115,0.126l-0.107,0.039l-0.086,0.065l-0.12,-0.008l-0.026,-0.049l-0.049,-0.021l-0.063,-0.003l-0.067,-0.055l-0.04,0.005l0.013,0.045l0.303,0.295l0.018,0.058l0.068,0.091l-0.003,0.052l0.018,0.016l0.032,-0.042l0.057,0.005l0.235,0.194l0.114,0.044l0.188,0.005l0.198,0.079l0.294,0.243l0.318,0.384l0.153,0.197l0.107,0.026l0.063,-0.021l0.05,0.024l0.249,0.253l0.215,0.111l0.042,-0.013l0.024,-0.109l-0.026,-0.191l0.118,-0.117l0.026,-0.061l0.047,-0.054l0.1,-0.031l0.238,-0.237l0.042,-0.104l0.121,-0.175l0.06,-0.181l0.071,-0.098l0.008,-0.069l0.045,-0.064l0.133,-0.018l0.053,-0.056l-0.026,-0.053l0.028,-0.016l0.142,-0.037l0.039,-0.085l0.027,0.01l-0.003,0.099l-0.047,0.055l-0.068,0.014l-0.145,0.154l-0.078,0.013l-0.053,0.128l-0.081,0.31l0.005,0.072l0.032,-0.005l0.06,-0.072l0.079,-0.034l0.078,0.026l0.048,0.088l0.036,-0.003l0.024,-0.127l0.063,-0.022l0.084,0.008l0.005,0.022l-0.097,0.029l-0.029,0.048l-0.01,0.069l-0.042,0.034l-0.09,-0.018l-0.026,-0.064l-0.065,-0.011l-0.074,0.069l-0.021,0.112l-0.099,0.133l-0.058,0.04v0.066l0.029,0.037l0.057,0.008l0.066,-0.064l0.089,-0.023l0.005,0.021l-0.047,0.032l-0.031,0.063l0.068,0.088l0.173,0.032l0.047,-0.032l0.003,-0.143l0.05,-0.069l0.091,-0.062l0.158,-0.515l-0.003,-0.223l0.045,-0.213l-0.034,-0.207l-0.097,-0.125l-0.008,-0.119l0.037,-0.091l-0.019,-0.234l0.053,-0.111l0.094,-0.043l0.076,0.035l0.053,-0.037l-0.011,-0.104l0.053,-0.08l0.141,-0.01l-0.013,0.024l-0.11,0.024l-0.039,0.066l0.042,0.085l-0.011,0.061l-0.094,0.029l-0.079,-0.016l-0.026,0.04l0.021,0.096l-0.011,0.082l-0.044,0.064l0.002,0.056l0.082,0.05l0.021,0.083l-0.011,0.191l0.024,0.194l-0.034,0.21l0.013,0.072l0.086,0.101l0.029,0.095l0.011,0.138l0.07,0.115l0.058,0.008l0.105,-0.064l0.021,0.018l-0.032,0.069l-0.086,0.032h-0.055l-0.066,0.072l-0.047,0.205l0.021,0.117l0.058,0.01l0.113,-0.024l0.083,-0.117l-0.013,-0.095l0.037,-0.064l0.011,0.021l-0.016,0.048l0.021,0.106l-0.058,0.141l-0.058,0.032l-0.131,0.032l-0.029,0.045v0.284l-0.042,0.152l-0.052,0.064l-0.021,0.138l-0.097,0.138l-0.013,0.343l0.031,0.101l-0.013,0.101l-0.105,0.18l-0.052,0.006l-0.032,0.045l-0.031,0.273l-0.194,0.123l-0.116,0.124l-0.028,0.067l-0.027,0.151l-0.078,0.133l-0.009,0.122l-0.009,0.064l-0.114,0.183l-0.173,0.03l-0.097,-0.019l-0.102,0.024l-0.079,0.066l-0.206,-0.01z"/>
</svg>
