<svg xmlns="http://www.w3.org/2000/svg" viewBox="733.018 329.153 45.215 38.513">
  <path d="M761.252987,331.06591l0.011293,-0.153762l0.031274,-0.049516l0.039092,0.005212l0.036486,0.062547l-0.002606,0.072972l-0.013031,0.062547l-0.026061,0.031274h-0.066022l-0.010425,-0.031274Z M761.369394,331.067647l0.013899,0.003475l0.026116,-0.092762l0.015582,-0.028857l-0.008687,-0.008687l-0.023509,0.025084l-0.012976,0.047888l-0.010425,0.05386Z M761.273836,331.364746l0.045173,-0.225865l-0.010425,-0.015637l-0.04691,0.003475l-0.012162,0.022586l0.013899,0.21544h0.010425Z M766.003092,344.911406l0.033011,-0.008687l0.003475,-0.04691l-0.010425,-0.027799h-0.033011l-0.022586,0.031274v0.036486l0.029536,0.015637Z M767.22971,345.920847l0.166792,0.039092l0.138125,0.132913l0.099033,0.036486l0.015637,-0.018243l-0.075578,-0.185035l-0.221521,-0.104245l-0.1277,0.002606l-0.026061,0.039092l0.031274,0.057335Z M766.619876,345.641991l0.018243,0.04691l0.057335,0.054729l0.044304,-0.002606l0.015637,-0.093821l-0.018243,-0.054729l-0.065153,-0.041698l-0.015637,-0.091215l-0.039092,-0.002606l-0.059941,0.096427l0.005212,0.059941l0.057335,0.028667Z M766.700666,345.352711l0.049516,0.093821l0.031274,0.010425l0.039092,-0.044304l-0.018243,-0.075578l-0.041698,-0.028667l-0.044304,0.005212l-0.015637,0.039092Z M766.111681,345.253678l-0.005212,0.036486l0.03388,0.052123l0.023455,0.002606l-0.002606,-0.049516l-0.028667,-0.039092l-0.020849,-0.002606Z M766.288898,345.152039l0.067759,0.049516l0.020849,-0.007818l-0.020849,-0.072972l-0.041698,-0.036486h-0.03388l-0.015637,0.020849l0.023455,0.04691Z M766.416598,345.232829l-0.018243,0.026061l0.015637,0.059941h0.026061l0.083396,-0.067759l0.026061,-0.099033l-0.026061,-0.013031l-0.036486,0.018243l-0.018243,0.052123l-0.052123,0.023455Z M767.172376,347.051907l0.10772,0.10077l0.055597,0.027799l0.010425,-0.024324l-0.11467,-0.232814l-0.055597,-0.052123l-0.027799,0.013899l-0.003475,0.104245l0.027799,0.062547Z M767.391291,347.09708v0.041698l0.020849,0.034748l0.024324,-0.003475l0.00695,-0.048648l-0.024324,-0.038223l-0.027799,0.013899Z M767.040332,347.10403l0.038223,-0.027799v-0.024324l-0.024324,-0.00695l-0.031274,0.017374l-0.010425,0.031274l0.027799,0.010425Z M767.024966,347.291997l0.019383,-0.016614l-0.001385,-0.017999l-0.012461,-0.004154l-0.019383,0.01523v0.020768l0.013845,0.002769Z M767.42232,348.983863l0.012461,0.051227l0.041535,0.069225l0.019383,-0.001385l0.009692,-0.052611l-0.017999,-0.130144l-0.05538,-0.041535l-0.030459,0.002769l-0.026306,0.026306l0.004154,0.041535l0.04292,0.034613Z M771.798255,357.280964l0.057335,0.049516l0.020849,-0.010425l-0.039092,-0.067759l-0.041698,-0.026061l-0.013031,0.010425l0.015637,0.044304Z M775.587567,361.380406l0.010425,0.041698l0.026061,0.010425l0.062547,-0.023455l-0.002606,-0.028667l-0.044304,-0.036486h-0.028667l-0.023455,0.036486Z M774.193288,360.528202l0.026061,-0.007818l0.005212,-0.020849l-0.018243,-0.018243l-0.020849,0.005212l-0.010425,0.023455l0.018243,0.018243Z M773.440985,360.586405l0.013899,-0.034748l-0.00695,-0.020849h-0.015637l-0.010425,0.026061v0.027799l0.019112,0.001737Z M773.649476,360.987749l0.024324,-0.010425v-0.017374l-0.017374,-0.008687l-0.026061,0.010425l-0.005212,0.019112l0.024324,0.00695Z M773.901401,364.116842l-0.002606,0.015637l0.054729,0.020849l0.031274,0.03388l0.010425,0.044304l0.020849,0.002606l0.007818,-0.028667l-0.00969,-0.045733l-0.029402,-0.037663l-0.04691,-0.015637l-0.036486,0.010425Z M777.251146,366.651737l0.026061,0.019112l0.085134,0.005212l0.015637,-0.017374l-0.04691,-0.06081l-0.031274,-0.001737l-0.039961,0.026061l-0.008687,0.029536Z  M734.105807,367.66639v-28.76l-0.414,-0.934l-0.027,-0.139l0.059,-0.361l-0.021,-0.209l-0.264,-0.42l0.01,-0.115l0.07,-0.187l-0.011,-0.174l-0.104,-0.219l-0.136,-0.372l-0.024,-0.115l-0.045,-0.121l-0.177,-0.223l-0.004,-0.062l0.087,-0.226l0.139,-0.215l0.063,-0.178l0.062,-0.097l0.094,-0.056l0.118,-0.121l0.094,-0.191l0.122,-0.118l0.118,-0.195l0.027,-0.139l-0.01,-0.101l0.017,-0.132l0.084,-0.146l0.08,-0.386l0.062,-0.121l0.007,-0.125l-0.09,-0.237l-0.024,-0.191l-0.122,-0.288l-0.007,-0.097l-0.108,-0.292l-0.121,-0.181l-0.059,-0.188l0.017,-0.066l0.007,-0.243l0.038,-0.097l-0.014,-0.219l-0.08,-0.181l-0.01,-0.191l0.024,-0.073l0.382,-0.33l0.361,-0.225l0.037,-0.053l-0.003,-0.094l0.035,-0.123l0.055,-0.08l0.121,-0.089l0.069,-0.017l0.024,0.167l0.052,0.101l0.007,0.093l-0.024,0.046l0.003,0.069l0.097,0.066l0.355,0.083l0.431,0.018l0.615,-0.157l0.9,-0.314l0.266,-0.052l0.297,0.021l1.126,0.312l0.328,0.12l0.547,0.094l0.131,-0.026l0.104,0.011l0.109,0.052l0.375,0.031l0.131,-0.016l0.167,0.047l0.067,0.063l0.183,0.057l0.307,0.011l0.125,-0.021l0.12,0.047l0.026,0.057l0.068,0.042h0.104l0.063,0.036l0.042,0.068l0.135,0.042l0.568,0.02l0.209,-0.031l0.083,0.021l0.031,0.063v0.083l0.152,0.318l0.135,0.13l0.198,0.073l0.25,0.021l0.115,0.036h0.177l0.104,0.047l0.251,-0.01l0.354,-0.125l0.136,-0.11l0.041,0.006l0.016,0.146l0.068,0.099l0.021,0.151l-0.016,0.052l0.042,0.104l0.161,0.047l0.365,0.037l0.344,-0.037l0.136,0.037l0.073,0.046l0.448,0.026l0.318,-0.062l0.172,0.021l0.146,0.078l0.146,0.042h0.104l0.146,0.057l0.073,0.068l0.193,0.073l0.172,0.026l0.271,0.13l0.156,0.026l0.047,0.042l0.01,0.088l0.282,0.219l0.177,0.063l0.188,0.104l0.318,0.042l0.448,-0.063l0.625,-0.234l0.631,-0.344l0.438,-0.318l0.125,-0.125l0.182,-0.125l0.079,-0.105l0.057,-0.015l0.057,0.015l0.084,-0.01l0.135,-0.12l0.028,-0.08l-0.028,-0.01l-0.038,0.021l-0.031,-0.007l0.041,-0.063l0.07,-0.017l0.052,0.021l0.191,-0.108l0.236,-0.219l0.091,-0.031l0.076,-0.098l-0.01,-0.031h-0.066l-0.011,-0.028l0.046,-0.048l0.055,0.007l0.056,0.048l0.034,0.157l0.08,0.059l0.202,0.031l0.254,-0.066l0.267,-0.191l0.162,-0.288l0.064,-0.247l0.031,-0.042l0.094,-0.024l0.125,0.062l0.223,0.052l0.291,-0.014l0.807,-0.257l0.549,-0.222l0.368,-0.087l0.347,0.004l0.504,0.149l0.456,0.195l0.243,0.163l0.264,0.108l0.226,0.034l0.302,-0.062l0.41,-0.111l0.174,-0.108l0.111,-0.056l0.198,0.011l0.184,0.073l0.098,0.107l-0.011,0.098l0.056,0.125l0.173,0.177l0.32,0.208l0.261,0.164l0.201,0.045l0.198,0.028l0.028,0.038l-0.035,0.056l-0.013,0.253l0.016,0.292l-0.008,0.112l0.011,0.727l0.018,0.138l0.002,0.324l0.081,0.299l0.045,0.11l-0.011,0.094l-0.055,0.26l-0.075,0.081l-0.107,0.026l-0.003,0.034l0.032,0.068l0.169,0.19l0.037,0.115l0.044,0.265l-0.016,0.045l-0.083,0.023l-0.05,0.055l-0.01,0.102l-0.029,0.088l0.031,0.071l0.12,0.166l0.073,0.026l0.107,0.006l0.089,0.054l0.049,0.065l0.008,0.045l0.07,0.036l0.06,-0.008l0.034,-0.041l-0.008,-0.042l0.04,-0.016l0.127,0.034l0.042,0.047l-0.01,0.076l0.041,0.068l0.047,0.015l0.034,0.031l0.008,0.157l0.015,0.451l0.047,0.247l-0.005,0.115l-0.023,0.031l-0.024,-0.002l-0.013,-0.034l-0.068,-0.008l-0.138,0.023l-0.091,0.068l-0.06,0.13l0.003,0.06l0.065,0.094l0.073,0.003l0.018,0.018l-0.036,0.096l-0.112,0.131l-0.107,0.078l-0.149,0.185l-0.026,0.099l-0.042,0.063l-0.046,0.054l-0.024,0.06l0.029,0.115l-0.013,0.062l-0.052,0.076l-0.016,0.07l0.06,0.11l0.031,0.091l0.102,0.11l0.122,0.07l0.172,0.154l0.024,0.06l0.206,0.182l0.073,0.044l0.122,0.185l0.034,0.214l0.05,0.076l0.023,0.091l0.005,0.13l0.047,0.065l0.037,0.112v0.118l0.023,0.065l0.037,0.034l-0.003,0.073l-0.039,0.078l-0.104,0.065l-0.006,0.036l0.024,0.037v0.039l-0.026,0.063l0.005,0.14l0.031,0.065l0.097,0.073l0.067,0.141l0.008,0.102l0.045,0.075l0.093,0.06l0.05,0.055l0.021,0.065l0.065,0.06l0.091,0.026l0.112,0.102l0.076,0.177l0.002,0.07l0.06,0.185l0.058,0.097l0.028,0.117l-0.008,0.117l0.042,0.055l0.146,0.044l0.091,0.071l0.112,0.146l0.097,0.065l0.156,0.216l0.011,0.084l0.127,0.153l0.089,0.034l0.039,0.055l0.013,0.13l0.047,0.102l0.076,0.042l0.033,0.047l0.011,0.075l0.273,0.292l0.032,0.083l0.054,0.05l0.066,0.023l0.198,0.193l0.036,0.097l0.141,0.104l0.159,0.029l0.208,0.135l0.292,0.388l0.034,0.107l0.065,0.125v0.154l-0.028,0.011l-0.029,-0.058l-0.039,-0.018l-0.044,0.005l-0.042,-0.015l-0.047,-0.047l-0.123,-0.021l-0.041,0.031l-0.008,0.068l0.115,0.169l0.088,0.052l0.086,-0.02l0.021,0.023l-0.057,0.167l0.003,0.065l0.035,0.028l0.09,0.014l0.07,0.083v0.052l-0.045,0.004l-0.118,-0.094l-0.091,-0.028l-0.08,0.073v0.049l0.16,0.177l0.045,0.153l-0.01,0.118l0.031,0.035l0.097,0.024l0.122,0.129l0.007,0.072l0.056,0.084l0.104,0.073l0.062,0.135l-0.017,0.112l0.122,0.187l0.271,0.167l0.153,0.045l0.066,0.104l-0.014,0.16l-0.046,0.091l-0.024,0.215l0.045,0.104l0.209,0.118l0.021,0.087l-0.039,0.08l0.025,0.063l0.059,0.048l0.076,0.164l0.007,0.094l0.049,0.066l0.108,0.09l0.034,-0.014l0.039,0.028l-0.007,0.101l0.045,0.083l-0.025,0.028l-0.093,-0.049l-0.066,0.014l-0.032,0.143l0.011,0.059l-0.035,0.083v0.045l0.035,0.038l0.003,0.052l-0.038,0.115l-0.007,0.17l0.07,0.112l0.187,0.097l0.07,0.104l0.024,0.139l0.024,0.049l0.073,0.066l0.07,0.114l0.055,0.23l0.098,0.194l0.167,0.174l0.083,0.205l0.017,0.125l0.202,0.469l0.073,0.07l0.101,0.205l0.052,0.042l0.041,0.083v0.076l0.119,0.23l0.118,0.08l0.118,0.229l0.038,0.195l0.052,0.076l0.073,0.028l0.125,0.139l0.011,0.062l0.055,0.049l0.077,0.038l0.125,0.223l0.017,0.1l0.084,0.205l0.146,0.146l0.052,0.122l-0.007,0.115l0.038,0.076l0.09,0.084l0.052,0.166l0.007,0.125l0.063,0.122l0.076,0.049l0.049,0.114l0.021,0.129l0.048,0.08l0.073,0.062l0.06,0.112l0.024,0.114l0.069,0.105l0.108,0.09l0.097,0.208l0.018,0.105l0.149,0.278l0.066,0.052l0.024,0.097l-0.02,0.076l0.031,0.091l0.115,0.128l0.038,0.157l0.003,0.1l0.059,0.122l0.251,0.261l0.048,0.163l-0.007,0.073l0.021,0.052l0.045,0.024l0.014,0.035l-0.021,0.059l0.049,0.094l0.16,0.177l0.007,0.052l-0.08,0.143l0.031,0.076l0.163,0.139l0.171,0.251l0.198,0.145l0.066,0.014l0.052,0.039l0.024,0.073l0.264,0.285l0.105,0.284l0.194,0.226l0.024,0.08l0.035,0.011l0.018,-0.049l-0.035,-0.045l0.021,-0.024l0.1,0.041l0.226,0.174l0.063,0.142l-0.007,0.108l0.066,0.059l0.201,0.007l0.212,0.08l0.105,0.08l0.052,0.142l0.076,0.091l-0.014,0.028l-0.08,-0.066l-0.062,-0.077l-0.07,-0.017l-0.132,0.104l-0.062,0.007l-0.129,-0.066l-0.069,-0.007l-0.045,0.014l-0.108,-0.021l-0.097,-0.083l-0.073,0.007l-0.059,0.059l-0.035,-0.007l0.048,-0.084l0.08,-0.021l-0.017,-0.041l-0.104,-0.021l-0.063,0.017l-0.08,0.167l0.025,0.212l-0.007,0.177l-0.039,0.105l0.021,0.121l0.037,0.013l0.043,-0.055l0.042,0.007l0.01,0.042l-0.055,0.07l0.045,0.371l-0.011,0.299l-0.076,0.358l0.024,0.115l0.146,0.167l0.056,0.232l0.017,0.282l0.066,0.288l0.125,0.202l0.105,0.125l0.073,0.215l0.02,0.278l0.028,0.098l-0.007,0.076l0.032,0.024l0.027,-0.027l0.039,0.01l0.073,0.209l0.121,0.135l0.091,-0.014l0.048,0.028l0.018,0.083l0.059,0.073l0.027,0.101l0.167,0.163l0.254,0.157l0.073,0.01l0.028,0.025l-0.007,0.048l0.038,0.018l0.101,-0.007l0.469,0.104h0.118l0.163,0.048l0.049,0.053l0.167,0.083l0.132,0.149l0.062,0.265l0.08,0.118l0.212,0.16l0.129,0.038l0.038,0.045l-0.004,0.115l0.084,0.139l0.347,0.166l0.209,0.139l0.288,0.275l0.111,0.066l0.105,0.097l0.059,0.011l0.059,-0.021l0.09,0.052l0.035,0.09l0.205,0.174l0.115,0.045l0.045,0.052l-0.004,0.132l-0.043,0.092h-20.302l0.101,-0.293l0.181,-0.285l0.08,-0.082l0.009,-0.084l-0.058,-0.105l-0.084,-0.011l-0.156,0.101l-0.215,0.261l-0.136,0.344l-0.017,0.154h-23.483z"/>
</svg>
