<svg xmlns="http://www.w3.org/2000/svg" viewBox="733.018 329.153 45.215 38.513">
  <path d="M761.253,331.066l0.011,-0.154l0.031,-0.05l0.039,0.005l0.036,0.063l-0.003,0.073l-0.013,0.063l-0.026,0.031h-0.066l-0.01,-0.031Z M761.369,331.068l0.014,0.003l0.026,-0.093l0.016,-0.029l-0.009,-0.009l-0.024,0.025l-0.013,0.048l-0.01,0.054Z M761.274,331.365l0.045,-0.226l-0.01,-0.016l-0.047,0.003l-0.012,0.023l0.014,0.215h0.01Z M766.003,344.911l0.033,-0.009l0.003,-0.047l-0.01,-0.028h-0.033l-0.023,0.031v0.036l0.03,0.016Z M767.23,345.921l0.167,0.039l0.138,0.133l0.099,0.036l0.016,-0.018l-0.076,-0.185l-0.222,-0.104l-0.128,0.003l-0.026,0.039l0.031,0.057Z M766.62,345.642l0.018,0.047l0.057,0.055l0.044,-0.003l0.016,-0.094l-0.018,-0.055l-0.065,-0.042l-0.016,-0.091l-0.039,-0.003l-0.06,0.096l0.005,0.06l0.057,0.029Z M766.701,345.353l0.05,0.094l0.031,0.01l0.039,-0.044l-0.018,-0.076l-0.042,-0.029l-0.044,0.005l-0.016,0.039Z M766.112,345.254l-0.005,0.036l0.034,0.052l0.023,0.003l-0.003,-0.05l-0.029,-0.039l-0.021,-0.003Z M766.289,345.152l0.068,0.05l0.021,-0.008l-0.021,-0.073l-0.042,-0.036h-0.034l-0.016,0.021l0.023,0.047Z M766.417,345.233l-0.018,0.026l0.016,0.06h0.026l0.083,-0.068l0.026,-0.099l-0.026,-0.013l-0.036,0.018l-0.018,0.052l-0.052,0.023Z M767.172,347.052l0.108,0.101l0.056,0.028l0.01,-0.024l-0.115,-0.233l-0.056,-0.052l-0.028,0.014l-0.003,0.104l0.028,0.063Z M767.391,347.097v0.042l0.021,0.035l0.024,-0.003l0.007,-0.049l-0.024,-0.038l-0.028,0.014Z M767.04,347.104l0.038,-0.028v-0.024l-0.024,-0.007l-0.031,0.017l-0.01,0.031l0.028,0.01Z M767.025,347.292l0.019,-0.017v-0.018l-0.014,-0.004 l-0.019,0.015v0.021l0.014,0.003Z M767.422,348.984l0.012,0.051l0.042,0.069h0.019l0.01,-0.054 l-0.018,-0.13l-0.055,-0.042l-0.03,0.003l-0.026,0.026l0.004,0.042l0.043,0.035Z M771.798,357.281l0.057,0.05l0.021,-0.01l-0.039,-0.068l-0.042,-0.026l-0.013,0.01l0.016,0.044Z M775.588,361.38l0.01,0.042l0.026,0.01l0.063,-0.023l-0.003,-0.029l-0.044,-0.036h-0.029l-0.023,0.036Z M774.193,360.528l0.026,-0.008l0.005,-0.021l-0.018,-0.018l-0.021,0.005l-0.01,0.023l0.018,0.018Z M773.441,360.586l0.014,-0.035l-0.007,-0.021h-0.016l-0.01,0.026v0.028l0.019,0.002Z M773.649,360.988l0.024,-0.01v-0.017l-0.017,-0.009l-0.026,0.01l-0.005,0.019l0.024,0.007Z M773.901,364.117l-0.003,0.016l0.055,0.021l0.031,0.034l0.01,0.044l0.021,0.003l0.008,-0.029l-0.01,-0.046l-0.029,-0.038l-0.047,-0.016l-0.036,0.01Z M777.251,366.652l0.026,0.019l0.085,0.005l0.016,-0.017l-0.047,-0.061l-0.031,-0.002l-0.04,0.026l-0.009,0.03Z  M764.825,331.046l0.004,-0.015l0.284,0.056l0.242,0.096l0.029,0.036l-0.018,0.013l-0.156,-0.042l-0.121,-0.074l-0.226,-0.044l-0.039,-0.026Z M763.391,331.488l0.031,-0.005l0.013,-0.021l-0.01,-0.018l-0.021,0.003l-0.021,0.018l0.008,0.023Z M763.526,331.507l0.037,-0.006l0.007,-0.019l-0.015,-0.01l-0.021,0.005l-0.018,0.018l0.01,0.011Z  M734.106,367.666v-28.76l-0.414-0.934l-0.027-0.139l0.059-0.361l-0.021-0.209l-0.264-0.42l0.01-0.115l0.07-0.187l-0.011-0.174l-0.104-0.219l-0.136-0.372l-0.024-0.115l-0.045-0.121l-0.177-0.223l-0.004-0.062l0.087-0.226l0.139-0.215l0.063-0.178l0.062-0.097l0.094-0.056l0.118-0.121l0.094-0.191l0.122-0.118l0.118-0.195l0.027-0.139l-0.01-0.101l0.017-0.132l0.084-0.146l0.08-0.386l0.062-0.121l0.007-0.125l-0.09-0.237l-0.024-0.191l-0.122-0.288l-0.007-0.097l-0.108-0.292l-0.121-0.181l-0.059-0.188l0.017-0.066l0.007-0.243l0.038-0.097l-0.014-0.219l-0.08-0.181l-0.01-0.191l0.024-0.073l0.382-0.33l0.361-0.225l0.037-0.053l-0.003-0.094l0.035-0.123l0.055-0.08l0.121-0.089l0.069-0.017l0.024,0.167l0.052,0.101l0.007,0.093l-0.024,0.046l0.003,0.069l0.097,0.066l0.355,0.083l0.431,0.018l0.615-0.157l0.9-0.314l0.266-0.052l0.297,0.021l1.126,0.312l0.328,0.12l0.547,0.094l0.131-0.026l0.104,0.011l0.109,0.052l0.375,0.031l0.131-0.016l0.167,0.047l0.067,0.063l0.183,0.057l0.307,0.011l0.125-0.021l0.12,0.047l0.026,0.057l0.068,0.042h0.104l0.063,0.036l0.042,0.068l0.135,0.042l0.568,0.02l0.209-0.031l0.083,0.021l0.031,0.063v0.083l0.152,0.318l0.135,0.13l0.198,0.073l0.25,0.021l0.115,0.036h0.177l0.104,0.047l0.251-0.01l0.354-0.125l0.136-0.11l0.041,0.006l0.016,0.146l0.068,0.099l0.021,0.151l-0.016,0.052l0.042,0.104l0.161,0.047l0.365,0.037l0.344-0.037l0.136,0.037l0.073,0.046l0.448,0.026l0.318-0.062l0.172,0.021l0.146,0.078l0.146,0.042h0.104l0.146,0.057l0.073,0.068l0.193,0.073l0.172,0.026l0.271,0.13l0.156,0.026l0.047,0.042l0.01,0.088l0.282,0.219l0.177,0.063l0.188,0.104l0.318,0.042l0.448-0.063l0.625-0.234l0.631-0.344l0.438-0.318l0.125-0.125l0.182-0.125l0.079-0.105l0.057-0.015l0.057,0.015l0.084-0.01l0.135-0.12l0.028-0.08l-0.028-0.01l-0.038,0.021l-0.031-0.007l0.041-0.063l0.07-0.017l0.052,0.021l0.191-0.108l0.236-0.219l0.091-0.031l0.076-0.098l-0.01-0.031h-0.066l-0.011-0.028l0.046-0.048l0.055,0.007l0.056,0.048l0.034,0.157l0.08,0.059l0.202,0.031l0.254-0.066l0.267-0.191l0.162-0.288l0.064-0.247l0.031-0.042l0.094-0.024l0.125,0.062l0.223,0.052l0.291-0.014l0.807-0.257l0.549-0.222l0.368-0.087l0.347,0.004l0.504,0.149l0.456,0.195l0.243,0.163l0.264,0.108l0.226,0.034l0.302-0.062l0.41-0.111l0.174-0.108l0.111-0.056l0.198,0.011l0.184,0.073l0.098,0.107l-0.011,0.098l0.056,0.125l0.173,0.177l0.32,0.208l0.261,0.164l0.201,0.045l0.198,0.028l0.028,0.038l-0.035,0.056l-0.013,0.253l0.016,0.292l-0.008,0.112l0.011,0.727l0.018,0.138l0.002,0.324l0.081,0.299l0.045,0.11l-0.011,0.094l-0.055,0.26l-0.075,0.081l-0.107,0.026l-0.003,0.034l0.032,0.068l0.169,0.19l0.037,0.115l0.044,0.265l-0.016,0.045l-0.083,0.023l-0.05,0.055l-0.01,0.102l-0.029,0.088l0.031,0.071l0.12,0.166l0.073,0.026l0.107,0.006l0.089,0.054l0.049,0.065l0.008,0.045l0.07,0.036l0.06-0.008l0.034-0.041l-0.008-0.042l0.04-0.016l0.127,0.034l0.042,0.047l-0.01,0.076l0.041,0.068l0.047,0.015l0.034,0.031l0.008,0.157l0.015,0.451l0.047,0.247l-0.005,0.115l-0.023,0.031l-0.024-0.002l-0.013-0.034l-0.068-0.008l-0.138,0.023l-0.091,0.068l-0.06,0.13l0.003,0.06l0.065,0.094l0.073,0.003l0.018,0.018l-0.036,0.096l-0.112,0.131l-0.107,0.078l-0.149,0.185l-0.026,0.099l-0.042,0.063l-0.046,0.054l-0.024,0.06l0.029,0.115l-0.013,0.062l-0.052,0.076l-0.016,0.07l0.06,0.11l0.031,0.091l0.102,0.11l0.122,0.07l0.172,0.154l0.024,0.06l0.206,0.182l0.073,0.044l0.122,0.185l0.034,0.214l0.05,0.076l0.023,0.091l0.005,0.13l0.047,0.065l0.037,0.112v0.118l0.023,0.065l0.037,0.034l-0.003,0.073l-0.039,0.078l-0.104,0.065l-0.006,0.036l0.024,0.037v0.039l-0.026,0.063l0.005,0.14l0.031,0.065l0.097,0.073l0.067,0.141l0.008,0.102l0.045,0.075l0.093,0.06l0.05,0.055l0.021,0.065l0.065,0.06l0.091,0.026l0.112,0.102l0.076,0.177l0.002,0.07l0.06,0.185l0.058,0.097l0.028,0.117l-0.008,0.117l0.042,0.055l0.146,0.044l0.091,0.071l0.112,0.146l0.097,0.065l0.156,0.216l0.011,0.084l0.127,0.153l0.089,0.034l0.039,0.055l0.013,0.13l0.047,0.102l0.076,0.042l0.033,0.047l0.011,0.075l0.273,0.292l0.032,0.083l0.054,0.05l0.066,0.023l0.198,0.193l0.036,0.097l0.141,0.104l0.159,0.029l0.208,0.135l0.292,0.388l0.034,0.107l0.065,0.125v0.154l-0.028,0.011l-0.029-0.058l-0.039-0.018l-0.044,0.005l-0.042-0.015l-0.047-0.047l-0.123-0.021l-0.041,0.031l-0.008,0.068l0.115,0.169l0.088,0.052l0.086-0.02l0.021,0.023l-0.057,0.167l0.003,0.065l0.035,0.028l0.09,0.014l0.07,0.083v0.052l-0.045,0.004l-0.118-0.094l-0.091-0.028l-0.08,0.073v0.049l0.16,0.177l0.045,0.153l-0.01,0.118l0.031,0.035l0.097,0.024l0.122,0.129l0.007,0.072l0.056,0.084l0.104,0.073l0.062,0.135l-0.017,0.112l0.122,0.187l0.271,0.167l0.153,0.045l0.066,0.104l-0.014,0.16l-0.046,0.091l-0.024,0.215l0.045,0.104l0.209,0.118l0.021,0.087l-0.039,0.08l0.025,0.063l0.059,0.048l0.076,0.164l0.007,0.094l0.049,0.066l0.108,0.09l0.034-0.014l0.039,0.028l-0.007,0.101l0.045,0.083l-0.025,0.028l-0.093-0.049l-0.066,0.014l-0.032,0.143l0.011,0.059l-0.035,0.083v0.045l0.035,0.038l0.003,0.052l-0.038,0.115l-0.007,0.17l0.07,0.112l0.187,0.097l0.07,0.104l0.024,0.139l0.024,0.049l0.073,0.066l0.07,0.114l0.055,0.23l0.098,0.194l0.167,0.174l0.083,0.205l0.017,0.125l0.202,0.469l0.073,0.07l0.101,0.205l0.052,0.042l0.041,0.083v0.076l0.119,0.23l0.118,0.08l0.118,0.229l0.038,0.195l0.052,0.076l0.073,0.028l0.125,0.139l0.011,0.062l0.055,0.049l0.077,0.038l0.125,0.223l0.017,0.1l0.084,0.205l0.146,0.146l0.052,0.122l-0.007,0.115l0.038,0.076l0.09,0.084l0.052,0.166l0.007,0.125l0.063,0.122l0.076,0.049l0.049,0.114l0.021,0.129l0.048,0.08l0.073,0.062l0.06,0.112l0.024,0.114l0.069,0.105l0.108,0.09l0.097,0.208l0.018,0.105l0.149,0.278l0.066,0.052l0.024,0.097l-0.02,0.076l0.031,0.091l0.115,0.128l0.038,0.157l0.003,0.1l0.059,0.122l0.251,0.261l0.048,0.163l-0.007,0.073l0.021,0.052l0.045,0.024l0.014,0.035l-0.021,0.059l0.049,0.094l0.16,0.177l0.007,0.052l-0.08,0.143l0.031,0.076l0.163,0.139l0.171,0.251l0.198,0.145l0.066,0.014l0.052,0.039l0.024,0.073l0.264,0.285l0.105,0.284l0.194,0.226l0.024,0.08l0.035,0.011l0.018-0.049l-0.035-0.045l0.021-0.024l0.1,0.041l0.226,0.174l0.063,0.142l-0.007,0.108l0.066,0.059l0.201,0.007l0.212,0.08l0.105,0.08l0.052,0.142l0.076,0.091l-0.014,0.028l-0.08-0.066l-0.062-0.077l-0.07-0.017l-0.132,0.104l-0.062,0.007l-0.129-0.066l-0.069-0.007l-0.045,0.014l-0.108-0.021l-0.097-0.083l-0.073,0.007l-0.059,0.059l-0.035-0.007l0.048-0.084l0.08-0.021l-0.017-0.041l-0.104-0.021l-0.063,0.017l-0.08,0.167l0.025,0.212l-0.007,0.177l-0.039,0.105l0.021,0.121l0.037,0.013l0.043-0.055l0.042,0.007l0.01,0.042l-0.055,0.07l0.045,0.371l-0.011,0.299l-0.076,0.358l0.024,0.115l0.146,0.167l0.056,0.232l0.017,0.282l0.066,0.288l0.125,0.202l0.105,0.125l0.073,0.215l0.02,0.278l0.028,0.098l-0.007,0.076l0.032,0.024l0.027-0.027l0.039,0.01l0.073,0.209l0.121,0.135l0.091-0.014l0.048,0.028l0.018,0.083l0.059,0.073l0.027,0.101l0.167,0.163l0.254,0.157l0.073,0.01l0.028,0.025l-0.007,0.048l0.038,0.018l0.101-0.007l0.469,0.104h0.118l0.163,0.048l0.049,0.053l0.167,0.083l0.132,0.149l0.062,0.265l0.08,0.118l0.212,0.16l0.129,0.038l0.038,0.045l-0.004,0.115l0.084,0.139l0.347,0.166l0.209,0.139l0.288,0.275l0.111,0.066l0.105,0.097l0.059,0.011l0.059-0.021l0.09,0.052l0.035,0.09l0.205,0.174l0.115,0.045l0.045,0.052l-0.004,0.132l-0.043,0.092h-20.302l0.101-0.293l0.181-0.285l0.08-0.082l0.009-0.084l-0.058-0.105l-0.084-0.011l-0.156,0.101l-0.215,0.261l-0.136,0.344l-0.017,0.154h-23.483L734.106,367.666z M768.329,330.571l0.047,0.107l0.034,0.023l0.097,0.293l0.486,1.477l0.355,0.727l0.093,0.375v0.25l0.139,0.15l-0.062,0.205l0.007,0.128l0.25,0.17l0.877,2.485l0.036,0.289l0.081,0.188l-0.016,0.107l-0.026,0.073l0.042,0.234l0.088,0.18l-0.086,0.016l-0.073,0.057l-0.013,0.063l-0.044,0.091l-0.06,0.042l-0.052,0.078l-0.008,0.06l-0.112,0.185l-0.073,0.039l-0.052,0.083l-0.044,0.232l0.01,0.167l-0.055,0.13l-0.099,0.065l-0.028,0.055v0.063l-0.081,0.245l0.003,0.159l0.036,0.039l0.029,0.12l-0.024,0.075l-0.057,0.013l-0.081,0.065l-0.018,0.063l0.023,0.075l0.008,0.172l-0.028,0.097l-0.063,0.057l-0.005,0.071l0.023,0.046l-0.005,0.303l-0.044,0.125l-0.084,0.083l-0.052,0.112v0.068l-0.023,0.06l-0.071,0.05l-0.028,0.054l0.008,0.042l-0.016,0.039l-0.07,0.076l-0.04,0.127l0.021,0.11l-0.036,0.078l-0.068,0.008l-0.052,0.042l-0.102,0.255l-0.015,0.091l-0.039,0.099l-0.058,0.052l-0.039,0.094l-0.002,0.177l0.031,0.211l0.114,0.172l0.006,0.105l-0.045,0.075l-0.026,0.222l0.037,0.049l0.008,0.162l-0.034,0.12l-0.047,0.083l-0.068,0.026l-0.047,0.045l-0.021,0.049l-0.075,0.089l-0.078,0.015l-0.047,0.037l-0.037,0.159l-0.049,0.034l-0.068-0.006l-0.042,0.026l-0.057,0.204l-0.044,0.034l-0.136-0.026l-0.023,0.013l0.002,0.039l0.047,0.047l0.094,0.026l0.032,0.032l0.007,0.086l-0.031,0.013l-0.074-0.06l-0.043-0.08l-0.073-0.065l-0.049-0.015l-0.115-0.01l-0.141-0.026l-0.076-0.007l-0.115-0.043l-0.164-0.151l-0.057-0.094l-0.076-0.06l-0.078-0.021l-0.102-0.065l-0.041-0.086l-0.055-0.036l-0.107,0.01l-0.052-0.031l-0.057-0.071l-0.243-0.203l-0.041-0.01l-0.034-0.032l0.005-0.054l-0.039-0.052l-0.117-0.073l-0.152-0.211l-0.052-0.139l-0.052-0.052l-0.055-0.018l-0.041-0.052l-0.011-0.13l-0.044-0.06l-0.039-0.011l-0.042-0.039l-0.018-0.088l-0.143-0.133l-0.128-0.058l-0.136-0.111l-0.15-0.075l-0.255-0.278l-0.016-0.073l-0.047-0.048l-0.057-0.016l-0.179-0.161l-0.066-0.139l0.003-0.072l-0.022-0.048l-0.045-0.023h-0.063l-0.033-0.024l-0.023-0.177l-0.067-0.101l-0.007-0.078l0.031-0.12l0.068-0.179l-0.005-0.084l-0.061-0.129l-0.126-0.171l-0.003-0.182l0.045-0.081l0.002-0.062l-0.052-0.063l0.003-0.107l0.023-0.065l-0.01-0.043l-0.094-0.098l-0.132-0.083l-0.049-0.01l-0.085-0.082l-0.017-0.073l-0.178-0.165l-0.073-0.099l-0.055-0.047l-0.058-0.014l-0.053-0.054l-0.023-0.048l-0.052-0.044l-0.075-0.022l-0.115-0.094l-0.05-0.083v-0.07l-0.066-0.104l-0.047-0.018l-0.069-0.076l0.01-0.054l-0.007-0.033l-0.031-0.026l-0.012-0.05l0.022-0.089l-0.019-0.066l-0.12-0.118l-0.074-0.017l-0.04-0.04l0.003-0.032l-0.061-0.128l-0.045-0.058l-0.007-0.043l0.007-0.115l-0.035-0.147l-0.043-0.046l-0.071-0.022l-0.009-0.033l0.024-0.075l-0.008-0.177l0.019-0.05l0.002-0.08l0.019-0.065l-0.002-0.08l-0.059-0.078l-0.033-0.014l-0.031-0.038l-0.028-0.069l-0.144-0.165v-0.027l0.06-0.073l0.004-0.071l-0.037-0.071l-0.201-0.172l-0.002-0.03l0.045-0.036l0.028-0.054l0.007-0.111l-0.049-0.266l-0.015-0.427l0.008-0.198l-0.047-0.146l-0.111-0.115l-0.262-0.061l-0.056-0.05l-0.008-0.108l0.015-0.071l-0.059-0.11l-0.038-0.01l-0.021,0.019l-0.042,0.005l-0.043-0.04l-0.023-0.087l-0.055-0.064l-0.031-0.078l-0.016-0.186l-0.082-0.419l-0.002-0.158l0.063-0.276l0.005-0.108l-0.041-0.1l-0.084-0.296l-0.005-0.328l-0.016-0.146l-0.008-0.725l0.083-0.361l0.056-0.045l0.034-0.122h0.046l0.187,0.104l0.181,0.136l0.16,0.236l0.163,0.132l0.188,0.07l0.264-0.004l0.337-0.08l0.34-0.163l0.223-0.142l0.208-0.08l0.247-0.129l0.177-0.104l0.195-0.028l0.219,0.024l0.194,0.046l-0.007,0.015l-0.191-0.029l-0.226-0.014l-0.177,0.028l-0.028,0.041l-0.055,0.025l-0.084,0.02l-0.236,0.132l-0.217,0.079l-0.235,0.147l-0.336,0.16l-0.258,0.058l-0.081,0.036l0.006,0.016l0.062-0.019l0.047,0.008v0.032l-0.018,0.018l0.01,0.026l0.065-0.013l0.063-0.045l0.115-0.01l0.086-0.029l0.114-0.091l0.206-0.062l0.156,0.013l0.037-0.008l0.021-0.031l0.062,0.005l0.065,0.06l-0.013,0.078l0.053,0.036l0.101-0.015l0.021-0.047l-0.034-0.016l0.011-0.036l0.099-0.045l0.07-0.101l-0.016-0.021l-0.083,0.01l-0.05,0.032v0.047l-0.07,0.028h-0.102l-0.015-0.018l0.068-0.042l0.06-0.07l0.054-0.107l0.209-0.12l0.081,0.003l0.075,0.068l0.021,0.086l0.065,0.031l-0.013,0.021l-0.094-0.011l-0.026,0.026l0.026,0.107l0.097,0.07l0.021,0.071l-0.029,0.07l0.047,0.026l0.094-0.021l0.049-0.065l0.091-0.054l0.165-0.024l0.148-0.062l0.078-0.058l0.123-0.036l0.12-0.12l0.112-0.021l0.109,0.021l0.099,0.062l0.193,0.06l0.305,0.013l0.354-0.034l0.668-0.161l0.677-0.271l0.428-0.276l0.145-0.12L768.329,330.571z"/>
</svg>
