<svg xmlns="http://www.w3.org/2000/svg" viewBox="621.476 311.440 0.385 0.194">
  <path d="M621.476,311.461l0.015,0.026l0.003,0.04l0.011,0.014l-0.003,0.024l0.02,0.029l0.022,0.003l0.015,0.008l0.006,0.012l0.019,0.009l0.008-0.011l0.01,0.001l0.004,0.013l0.018,0.005l0.007-0.022l0.011-0.013l0.015-0.001l0.013,0.007l0.015-0.001l0.021-0.035h0.026l0.02,0.01l0.026-0.003l0.011-0.011l0.014-0.008h0.02l0.032-0.023l0.006-0.018l-0.021-0.022l-0.017-0.004l-0.03,0.015l-0.014,0.032l-0.033,0.015l-0.022-0.001l-0.025-0.022l0.003-0.014l-0.013-0.006l-0.029,0.024l-0.019-0.001l-0.038-0.05l-0.065-0.042l-0.045,0.004l-0.017,0.017L621.476,311.461z"/>
</svg>
