<svg xmlns="http://www.w3.org/2000/svg" viewBox="606.977 277.105 50.511 33.972">
  <path d="M608.422616,284.275465l-0.00695,-0.050385l0.027799,-0.00695l0.069497,0.055597l-0.015637,0.020849l-0.05386,-0.005212l-0.020849,-0.013899Z M608.396555,284.183381l0.017374,0.013899l0.039961,-0.013899l0.029536,-0.06081l-0.020849,-0.071234l-0.052123,-0.036486l-0.013899,0.024324l0.026061,0.052123l0.005212,0.055597l-0.031274,0.036486Z M608.347907,283.62567l0.012162,-0.027799l-0.020849,-0.015637l-0.026061,0.012162v0.033011l0.034748,-0.001737Z M608.299259,283.570072l0.034748,-0.019112l0.038223,-0.126832l0.036486,-0.055597l-0.024324,-0.003475l-0.052123,0.022586l-0.04691,0.095558l-0.001737,0.059072l0.015637,0.027799Z M608.049071,283.092282l0.043435,-0.013899l0.001737,-0.039961l-0.048648,-0.052123l-0.029536,0.010425l0.001737,0.074709l0.031274,0.020849Z M608.592883,282.800395v-0.045173l0.043435,-0.074709l-0.003475,-0.052123l-0.057335,-0.031274l-0.04691,-0.008687l-0.031274,0.027799l0.008687,0.038223l0.048648,0.013899l0.013899,0.024324l-0.027799,0.041698l-0.001737,0.05386l0.022586,0.024324l0.031274,-0.012162Z M608.660642,279.056256l0.05386,0.005212l0.020849,-0.020849l-0.019112,-0.029536h-0.064285l-0.00695,0.022586l0.015637,0.022586Z M608.529467,283.016704l0.007818,-0.036486l-0.020849,-0.023455l-0.023455,0.020849l0.005212,0.044304l0.031274,-0.005212Z M609.01942,283.34247l0.028667,-0.010425l0.007818,-0.023455l-0.031274,-0.010425l-0.023455,0.023455l0.018243,0.020849Z M638.590398,303.930141l0.011195,-0.009674l-0.009796,-0.031784l-0.015393,-0.00691l-0.011195,0.00691l0.004198,0.026257l0.020991,0.015201Z M643.62436,291.417077l0.021073,0.072297l0.152781,0.015492l0.205465,-0.103282l0.036878,-0.061969l-0.042147,-0.020656h-0.147513l-0.073757,0.051641l-0.110635,-0.010328l-0.042147,0.056805Z M613.133646,277.198725l0.013031,0.018243l0.018243,-0.010425v-0.023455l-0.020849,-0.002606l-0.010425,0.018243Z M613.842513,277.381154l0.005212,0.026061h0.020849l0.010425,-0.018243l-0.018243,-0.018243l-0.018243,0.010425Z M640.902471,300.43182l0.008396,0.012345l0.015393,-0.005487l0.004198,-0.012345l-0.016793,-0.009602l-0.011195,0.015089Z M638.452928,303.887111l0.001756,0.015608l0.021073,0.010405l0.014049,-0.013874l-0.007024,-0.019076l-0.021073,-0.006937l-0.008781,0.013874Z M639.587664,301.885949l0.06322,0.002582l0.001235,-0.016945l-0.051284,-0.02695h-0.036878l-0.007902,0.020656l0.03161,0.020656Z M638.823467,303.791731l0.010537,-0.022544l-0.019317,-0.012139l-0.015805,0.010405l0.003512,0.022544l0.021073,0.001734Z M643.985837,294.239124l0.017561,-0.006885l0.005268,-0.015492l-0.014049,-0.003443l-0.014049,0.001721l-0.005268,0.020656l0.010537,0.003443Z  M647.538684,298.081731l0.018188,0.002681l0.023385,0.026809l-0.005197,0.021447l-0.03118,-0.010724l-0.018188,-0.02949l0.012992,-0.010724Z M645.867088,298.858292l0.003464,0.010724l0.045038,-0.008936l0.006929,-0.01966l-0.017322,-0.012511l-0.020787,0.010724l-0.017322,0.01966Z M645.879214,298.459735h0.025983l0.008661,-0.014298l-0.019054,-0.008936l-0.029448,0.007149l0.001732,0.014298l0.012126,0.001787Z M645.957164,298.368585l0.017322,-0.005362l0.001732,-0.016085l-0.013858,-0.001787l-0.008661,-0.012511l0.013858,-0.008936l0.003464,-0.028596l-0.017322,-0.008936l-0.020787,0.025022l0.003464,0.037532l0.020787,0.01966Z M646.731468,299.235402l0.010393,-0.017873l0.012126,0.007149l0.006929,0.016085l0.01559,0.005362l-0.010393,-0.046469l-0.024251,-0.048256l-0.019054,0.007149l-0.006929,0.041107l0.003464,0.030383l0.012126,0.005362Z M646.949728,299.192508l-0.001732,-0.030383l0.005197,-0.012511l-0.010393,-0.028596l-0.013858,0.003575l-0.006929,0.032171l0.017322,0.032171l0.010393,0.003575Z M645.974486,298.418628l0.012126,-0.014298l-0.012126,-0.014298l-0.01559,0.003575l-0.001732,0.017873l0.017322,0.007149Z M646.703752,299.076336l-0.001732,-0.021447l-0.012126,-0.005362l-0.008661,0.012511l0.013858,0.021447l0.008661,-0.007149Z M645.965825,298.85293l0.005197,-0.012511l-0.012126,-0.012511l-0.017322,0.008936l-0.003464,0.012511l0.027716,0.003575Z M646.600685,299.743875l-0.012992,0.050937l0.010393,0.034851l0.023385,0.002681l0.04677,-0.02949l0.059762,-0.067022l0.03118,-0.013404l0.023385,-0.050937l0.03118,-0.02949l0.101335,0.005362l0.129917,0.064341l0.054565,0.06166l0.06236,0.016085l0.132515,-0.002681l0.041573,-0.048256l-0.002598,-0.042894l-0.051967,-0.083107l-0.033778,-0.005362l-0.028582,0.034851l-0.070155,0.034851l-0.051967,-0.002681l-0.075352,-0.040213l-0.072753,-0.067022l-0.002598,-0.037532l-0.018188,-0.034851v-0.037532l-0.018188,-0.008043l-0.023385,0.024128l-0.054565,-0.040213l-0.03118,-0.06166l-0.023385,-0.101873h-0.010393l0.002598,0.064341l-0.007795,0.048256l-0.038975,0.045575l-0.067557,0.018766l-0.01559,-0.024128h-0.012992v0.024128l-0.044172,0.034851l-0.007795,0.018766l0.020787,0.021447l0.01559,0.048256l-0.007795,0.032171l-0.023385,0.010724l0.012992,0.067022l0.007795,0.064341Z M645.992674,298.746589l-0.002598,0.042894l0.01559,0.02949l0.059762,0.018766l0.020787,0.056298l0.028582,-0.005362v-0.026809l0.032912,-0.053618l0.029448,-0.010724l0.07795,0.013404l0.023385,0.013404l0.002598,0.037532l0.020787,0.005362l0.023385,-0.024128l0.028582,0.008043l-0.005197,0.040213l0.020787,0.002681l0.020787,-0.040213l0.051967,-0.016085l0.059762,0.02949l0.033778,0.072384v0.040213l0.028582,0.016085l0.028582,-0.034851l0.033778,0.002681l0.035511,0.030383l0.01559,0.001787l-0.012126,-0.044681l0.002598,-0.132257l0.007795,-0.042894l0.036377,-0.062554l0.039841,-0.023234l0.040707,0.005362l0.007795,-0.018766l-0.018188,-0.013404l0.007795,-0.021447l0.03118,0.002681l0.025983,0.033064l0.017322,0.005362l-0.01559,-0.046469l0.024251,-0.008043l0.020787,0.016979l0.036377,-0.000894l0.041573,-0.053618l0.057163,-0.021447l0.025983,-0.050937l0.020787,-0.018766l0.038109,0.008043l0.019054,-0.024128l0.010393,-0.118852l0.025983,-0.032171l0.067557,-0.028596l0.064958,0.008043l0.023385,-0.002681l-0.005197,-0.048256l0.023385,-0.048256l0.064958,-0.056298l0.054565,0.005362l0.018188,-0.032171l-0.010393,-0.026809l-0.028582,0.005362l-0.023385,-0.005362l-0.007795,-0.037532l-0.037243,-0.033064l-0.022519,-0.050043l0.012992,-0.034851l0.033778,-0.002681l0.013858,-0.017873l-0.016456,-0.025022l0.002598,-0.035745l-0.018188,-0.015192l-0.070155,-0.016085l-0.049368,0.013404h-0.033778l-0.051967,-0.050937l0.005197,-0.034851l-0.033778,-0.018766l-0.033778,0.016085l-0.051967,0.006255l-0.012126,0.016085l-0.001732,0.033958l-0.03118,0.010724l-0.017322,-0.040213l-0.03118,-0.005362l-0.010393,0.025915l-0.041573,0.016979l-0.067557,0.021447l-0.018188,0.032171l-0.033778,0.016085l-0.038975,-0.02949l-0.03118,0.010724l-0.012992,0.048256l-0.049368,0.013404l-0.025983,-0.018766l-0.038975,0.002681l-0.018188,0.045575l-0.023385,0.021447l-0.025983,-0.005362l-0.012992,-0.042894l-0.028582,0.002681l-0.005197,0.026809l-0.033778,0.013404l-0.021653,0.03932l-0.053699,0.008936l-0.01559,0.024128l-0.098737,0.064341l-0.018188,0.034851l0.018188,0.02949v0.048256l-0.03118,0.034851l-0.002598,0.040213l0.072753,0.048256l0.005197,0.034851l-0.028582,0.016085l-0.028582,-0.013404l-0.038975,-0.013404l-0.051967,0.021447l-0.07795,0.005362l-0.057163,-0.005362l-0.048502,0.048256l0.008661,0.01966l0.047636,0.058086l0.005197,0.034851l-0.068423,0.107235l-0.006929,0.053618l0.033778,0.024128Z M652.240525,297.653308l0.051967,0.052361l0.09354,0.010472l0.083147,-0.109959l-0.025983,-0.047125l-0.067557,-0.010472l-0.114327,0.047125l-0.020787,0.057598Z M652.391229,297.485752l0.041573,0.020945l0.041573,-0.047125l-0.01559,-0.020945l-0.051967,0.015708l-0.01559,0.031417Z M649.969581,295.784006l0.035503,0.0016l0.08402,-0.059198l0.030563,-0.047859l-0.004167,-0.013644l-0.047183,0.014378l-0.072753,0.047125l-0.031105,0.042405l0.005121,0.015193Z M650.182644,295.852076l0.048198,0.022414l0.019359,0.016906l0.025983,0.057598l0.01559,0.033986l0.031998,0.012686l0.019969,-0.00745l0.008789,-0.0426l0.026144,-0.023708l0.043017,0.013947v0.041889l0.041573,0.010472l0.061815,-0.039966h0.031372l0.026336,0.050438l-0.021107,0.078639l0.015686,0.031611l0.046995,0.036362l0.020787,0.06807l0.098737,0.062834l0.047861,0.014496l0.009303,-0.00926v-0.062834l0.041573,-0.052361v-0.125667l0.03118,-0.057598l0.14031,-0.020945l0.04677,-0.020945l0.005197,-0.057598l0.04677,-0.015708l0.036377,0.026181l0.04677,-0.005236l-0.005197,-0.041889l0.036377,-0.031417l0.098737,0.005236l0.145507,0.104723l0.06236,0.026181l0.088343,0.083778l0.005197,0.057598l-0.07795,0.078542l-0.01559,0.057598l0.088343,0.13614l-0.025983,0.089014l0.041573,0.109959l0.083147,0.047125l0.051967,0.073306l0.145507,0.026181l0.067557,-0.020945h0.150703l0.103933,0.041889 l0.051967,-0.036653l0.094021,-0.001358l0.08366,0.031611l0.045776,0.07447l-0.01559,0.06807l0.036377,0.036653l0.041573,-0.005236l0.04677,0.047125l0.01559,0.057598l0.102894,0.098963l0.032492,0.012224l0.062087,-0.011701l0.14031,-0.167557l0.103933,-0.073306l0.077982,-0.002957l0.041541,-0.023223l0.057805,-0.068975l0.046128,-0.025276l0.07795,-0.015708l0.07795,-0.06807l0.072753,-0.141376l0.057163,-0.078542l0.010393,-0.188501l0.07795,-0.16232l0.129917,-0.13614l0.09354,-0.062834l0.04677,-0.041889l0.01559,-0.06807l0.114327,-0.015708v-0.020945l-0.051967,-0.015708l-0.03118,-0.036653l0.057163,-0.157084l0.041573,-0.026181l0.053072,0.01426l0.036394,-0.001881l0.024861,-0.017615l-0.010393,-0.041889l0.020787,-0.036653l0.04677,-0.015708l0.009479,-0.02248l-0.025069,-0.082243l0.025983,-0.109959l0.067557,-0.015708l0.012575,-0.015999l-0.002181,-0.020654l-0.067557,-0.005236l-0.026994,-0.008355l-0.009383,-0.017826l0.025983,-0.047125l0.004315,-0.03515l-0.020915,-0.013171l-0.066546,0.006432l-0.12472,-0.06807l-0.10913,-0.041889l-0.098737,-0.078542l-0.051967,0.010472v0.06807l-0.036377,0.052361l-0.223457,0.120431l-0.129917,-0.005236l-0.21826,-0.109959l-0.14031,-0.115195l-0.06236,-0.115195l0.001652,-0.076667l0.019135,-0.033292l0.051967,-0.010472l0.041573,0.026181l0.036345,0.001778l0.041605,-0.027958l0.070813,-0.040532l0.017531,-0.038011l-0.010393,-0.078542l0.041573,-0.073306l-0.020787,-0.005236l-0.057163,0.052361l-0.228653,0.083778l-0.09354,-0.010472l-0.035495,-0.030673l-0.021669,-0.105466l0.01644,-0.034148l0.036601,-0.023708l0.061285,-0.004978l0.06236,-0.031417l0.020787,-0.036653l0.036377,-0.010472l0.051967,0.015708l0.129917,-0.057598l0.09354,-0.06807l0.006512,-0.030431l-0.016905,-0.016694l-0.083147,0.020945l-0.04677,-0.020945l-0.12472,0.041889l-0.067557,0.057598l-0.105345,0.054188l-0.065359,0.015805l-0.047556,-0.007159l-0.025647,-0.02972l-0.033991,-0.012169h-0.070279l-0.098737,0.041889l-0.067557,0.062834l-0.067557,0.005236l-0.041573,-0.031417h-0.04677l-0.051967,0.062834l-0.12472,0.026181l-0.181883,0.130904l-0.103933,0.041889l-0.057163,-0.015708l-0.070861,0.003636l-0.049673,0.042148l-0.009383,0.053703l-0.051967,0.036653h-0.057163l-0.259833,0.16232l-0.03118,0.083778l-0.10913,0.062834l-0.098737,0.115195l-0.176687,0.125667l-0.114327,0.015708l-0.129917,0.078542l-0.09354,0.120431l-0.161097,0.078542l-0.06236,0.041889l-0.14031,0.06807l-0.067557,0.073306l-0.01559,0.099487l0.041573,0.073306Z M655.678988,294.234616l0.065824,0.013858l0.194009,-0.010393l0.048502,-0.034644l0.145507,-0.010393l0.166293,0.058896l0.051967,-0.003464l0.043257,0.007855l0.164609,0.109936l0.051967,0.06236l0.036365,0.021821l0.136858,0.047468l0.251377,0.162336l0.166191,0.072616l0.057061,0.00756l0.079682,-0.020787l0.055431,-0.069289l0.027716,-0.148971l-0.065824,-0.076218l-0.072753,-0.024251l-0.041573,-0.027716l0.017599,-0.007061l0.062083,0.010526l0.083147,0.034644l0.024251,-0.006929l-0.013858,-0.045038l-0.081114,-0.106929l-0.015891,-0.038578l0.010008,-0.030049l-0.010008,-0.025382l-0.03705,-0.031481l-0.039167,-0.065524l0.003464,-0.12472l-0.019199,-0.031324l-0.045098,-0.007843l-0.070817,0.011452l-0.064477,-0.042824l-0.014595,-0.025392l-0.003052,-0.058921l-0.017647,-0.023529l-0.024949,0.005161l-0.024251,0.041573h-0.034644l-0.034644,-0.045038l0.016528,-0.082088l-0.023529,-0.039216l-0.058823,-0.031132l-0.027451,0.005642l-0.007843,0.027451l0.017972,0.029267l-0.006929,0.086611l-0.013004,0.017455l-0.038963,0.013725l-0.0179,-0.019608l0.001403,-0.025733l0.030354,-0.068986l-0.006929,-0.027716l-0.016985,-0.003055l-0.034981,0.023842l-0.017322,0.045038l-0.027716,0.006929l-0.012138,-0.013064l-0.009804,-0.056863l0.011548,-0.092902l-0.017322,-0.041573l-0.021677,-0.0067l-0.012968,0.017094l0.006929,0.055431l-0.051967,0.072753l-0.051798,0.02727l-0.02442,-0.003019l-0.055431,-0.038109l-0.045038,-0.003464l-0.142042,0.041573l-0.065824,-0.003464l-0.045038,-0.027716l-0.110862,0.006929l-0.03118,0.041573h-0.034644l-0.048502,-0.041573l-0.235582,0.017322l-0.06236,0.034644l-0.038109,0.072753l-0.055431,0.06236l-0.005533,0.055876l0.02632,0.016877l0.069289,0.006929l0.045038,0.020787l0.013858,0.12472l-0.045038,0.138578l0.014062,0.035246l0.021474,0.005578l0.033752,-0.009644Z M657.345387,294.792392h0.034644l0.003464,-0.024251l-0.034644,-0.010393l-0.027716,0.020787l0.024251,0.013858Z M657.334993,294.096038l-0.003464,-0.03118l-0.017322,-0.010393l-0.020787,0.027716l0.024251,0.027716l0.017322,-0.013858Z M657.473571,294.466734l0.013858,-0.024251l-0.027716,-0.010393l-0.03118,0.013858l0.020787,0.024251l0.024251,-0.003464Z  M608.902168,285.488183l0.106,-0.085l0.021,-0.111l0.048,-0.068l0.198,-0.089l0.073,-0.062l0.02,-0.127l0.068,-0.076l0.136,-0.037l0.088,0.029l0.15,-0.038l0.064,-0.078l0.221,-0.031l0.115,0.043l0.149,-0.013l0.046,-0.053l0.045,-0.01l0.067,0.028l0.063,-0.018l0.083,-0.086l0.189,-0.113l0.09,-0.006l0.062,-0.067l0.031,-0.009l0.023,0.056l-0.014,0.13l0.021,0.191l0.045,0.019l0.102,-0.068l0.055,0.014l0.068,-0.026l0.083,0.045l0.04,0.077l-0.002,0.161l-0.052,0.047l-0.112,0.014l-0.035,0.025l-0.012,0.059l-0.033,0.024h-0.059l-0.024,0.023l-0.005,0.069l-0.16,0.221l-0.002,0.059l0.04,0.021l0.028,0.033l0.004,0.053l0.031,0.016l0.078,-0.019l0.026,0.038l-0.009,0.223l0.128,0.05l0.167,-0.012l0.121,-0.042l0.048,-0.043l0.092,-0.021l0.021,-0.066l0.094,-0.111l0.079,-0.011l0.052,0.016l0.07,-0.019l0.078,-0.221l0.062,0.01l0.01,0.209l-0.013,0.075l0.045,0.055l0.029,-0.001l0.08,-0.061l0.034,-0.084l0.186,-0.01l0.059,-0.066h0.05l0.036,0.036l0.045,-0.003l0.073,-0.071l0.059,0.003l0.156,0.117l0.108,0.012l0.128,-0.026l0.031,0.029l-0.069,0.07l-0.058,0.133l0.023,0.025l0.059,-0.018l0.093,0.011l0.21,-0.078l0.012,-0.03l-0.021,-0.05l0.051,-0.03l0.06,0.035l0.094,-0.012l0.042,0.031l-0.011,0.073l0.071,0.049l-0.007,0.093l0.037,0.02l0.085,-0.073l0.032,-0.094l0.078,-0.03l0.061,0.033l0.138,0.003l0.218,-0.115l0.102,-0.005l0.114,-0.06l0.068,-0.162l-0.024,-0.122l-0.002,-0.145l0.045,-0.023l0.031,0.013l0.041,-0.004l0.018,-0.049l0.06,-0.005l0.149,0.07l0.071,0.1l0.224,0.007l0.07,-0.084l0.107,-0.005l0.085,0.107l0.188,0.028l0.046,-0.025l0.048,-0.003l0.075,0.017l0.067,-0.012l0.056,-0.111l-0.013,-0.087l0.155,0.029l0.064,0.171l0.1,0.038l0.139,0.01l0.275,-0.036l0.089,-0.103l0.14,0.089l0.014,0.063l-0.083,0.213l0.184,0.04l0.01,0.03l-0.036,0.062l-0.025,0.172l-0.09,0.277l-0.038,0.022l-0.005,0.037l0.052,0.034l0.045,0.155l-0.014,0.016l-0.033,-0.009l-0.007,0.029l0.049,0.061l0.145,0.101l0.07,0.002l0.095,-0.044l0.017,-0.06l0.037,-0.013l0.05,0.019l0.194,0.019l0.101,-0.005l0.193,0.066l0.15,0.11l0.08,0.134l0.12,0.043l0.038,0.091l-0.078,0.086l-0.036,0.099l-0.172,0.23l0.022,0.087l-0.058,0.063l-0.058,0.009l-0.011,0.033l0.051,0.044l-0.002,0.058l-0.115,0.026l-0.096,-0.045l-0.067,0.028l0.004,0.058l0.043,0.036l-0.007,0.048l-0.128,0.016l-0.04,0.056l0.02,0.059l-0.122,0.111l-0.067,-0.002l-0.067,0.033l0.013,0.086l-0.09,0.042l-0.031,-0.047h-0.038l-0.105,0.124l-0.27,-0.003l-0.126,0.049l-0.12,0.125l-0.084,0.16l-0.222,0.171l-0.011,0.055l0.054,0.105l-0.102,0.197l-0.172,0.11l-0.238,0.014l-0.106,-0.039l-0.078,0.039l0.005,0.082l0.27,0.291l0.026,0.2l0.141,0.103l0.028,0.136l-0.078,0.032l-0.011,0.042l0.037,0.1l-0.003,0.079l-0.038,0.051l0.001,0.181l0.063,0.135l0.048,0.243l-0.078,0.209l-0.08,0.077l0.004,0.105l0.128,0.06l0.018,0.196l-0.188,0.224l0.049,0.224l0.189,0.177l0.003,0.043l-0.03,0.035v0.1l-0.042,0.032l-0.081,0.02l-0.126,0.092l0.004,0.115l-0.052,0.065l-0.116,0.022l-0.073,-0.024l-0.082,0.01l-0.045,0.084l-0.045,0.007l-0.052,-0.014l-0.09,0.06l-0.019,0.119l-0.041,0.049l0.002,0.031l0.039,0.032l0.021,0.179l0.087,0.067l0.138,0.015l0.087,0.065l0.05,0.132l0.08,0.068l0.076,0.168l0.004,0.086l-0.051,0.117v0.121l-0.015,0.044l-0.047,0.016l-0.016,0.051l0.03,0.073l-0.011,0.119l-0.034,0.058l-0.064,0.034l-0.063,0.105l-0.095,0.03l-0.062,0.085l0.038,0.148l-0.035,0.036l-0.024,0.123l0.014,0.032l-0.032,0.066l-0.053,0.174l-0.175,0.059l-0.092,-0.023l-0.135,-0.001l-0.09,0.043l-0.2,-0.036l-0.074,0.005l-0.106,-0.025l-0.078,0.006l-0.215,0.105h-0.043l-0.113,-0.039l-0.034,-0.002l-0.066,0.02l-0.064,-0.007l-0.115,-0.055l-0.296,-0.035l-0.044,0.006v0.018l0.051,0.032v0.106l0.063,0.066l0.062,0.127l0.077,0.03l0.073,0.069l0.024,0.078l0.062,0.04l0.098,0.003l0.051,0.038l0.008,0.147l0.079,0.047l0.064,-0.007l0.182,0.099v0.034l-0.035,0.032l-0.004,0.061l0.024,0.045l-0.006,0.056l-0.076,0.1l0.001,0.034l0.046,0.038l0.021,0.093l-0.017,0.032v0.025l0.141,0.109l0.011,0.048l0.135,0.096l-0.055,0.108l0.018,0.062l-0.001,0.132l0.074,0.079l0.315,0.088l0.014,0.056l-0.055,0.159l0.015,0.064l0.128,0.039l0.064,-0.04l0.142,-0.043l0.091,0.005l0.186,0.13l0.073,0.14l-0.029,0.074l0.048,0.063l-0.048,0.063l-0.071,0.137l-0.136,0.168l-0.029,0.084l-0.078,0.054l0.061,0.125l-0.018,0.059l-0.105,0.049l-0.073,0.139l-0.04,0.026l-0.102,-0.002l-0.108,0.092l-0.039,0.068l-0.104,0.058l-0.014,0.042l-0.115,0.084l-0.06,0.007l-0.052,0.056l-0.028,0.103l-0.017,0.254l0.022,0.048l0.064,0.007l0.014,0.033l-0.055,0.053l-0.025,0.084l-0.132,0.194l-0.079,0.265l0.029,0.019l0.05,-0.018l0.023,0.029l-0.132,0.131l0.007,0.031l0.06,0.008l0.13,0.077l0.029,0.115l0.249,0.268l0.125,0.197l0.065,0.029l0.026,0.069v0.073l0.148,0.258l0.078,0.039l0.208,-0.05l0.07,-0.078l0.224,-0.064l0.049,0.048l-0.034,0.063l-0.059,0.039l-0.037,0.084l0.031,0.071l-0.046,0.176l-0.063,0.048l-0.002,0.178l-0.039,0.035l-0.024,0.102l-0.078,-0.005l-0.075,0.034l-0.052,-0.013l-0.042,-0.066l-0.096,-0.037l-0.109,0.056l0.01,0.085l-0.026,0.035l-0.125,0.036l-0.085,-0.036l-0.064,0.005l-0.059,0.047l-0.071,-0.003l-0.075,0.042l-0.001,0.038l0.042,0.043l-0.03,0.161l-0.073,0.121l-0.009,0.096l-0.142,0.229l-0.175,0.116l-0.111,0.112l-0.048,0.004l-0.042,0.044l-0.117,0.441l-0.052,0.047l-0.073,0.148l-0.059,0.002l-0.011,0.029l0.034,0.032l-0.036,0.121l-0.05,0.023l0.021,0.129l0.073,0.029l0.099,0.123l0.041,0.163v0.111l0.047,0.029v0.031l-0.06,0.016v0.032l0.076,0.047l0.02,0.165l-0.028,0.032l0.002,0.142l0.077,0.152v0.049l-0.038,0.033l0.001,0.052l0.07,0.071l0.017,0.116l0.038,0.072l0.08,-0.004l0.128,-0.031l0.137,-0.076l0.293,-0.033l0.474,-0.014l0.314,0.048l0.343,0.169l0.42,0.135l0.485,0.247l0.59,0.411l0.3,0.323l0.198,0.441l0.095,0.032l0.069,-0.017l0.014,-0.04l-0.036,-0.092l0.023,-0.108l0.011,0.108l0.048,0.096l-0.039,0.075l-0.221,0.106l-0.047,0.051l-0.071,0.049l-0.013,0.088l0.17,0.296l0.011,0.07l0.115,0.073l0.112,-0.032l0.159,0.051l0.055,0.062l0.026,0.064l0.053,0.017l0.042,-0.033l0.041,0.014l0.019,0.094l-0.032,0.127l-0.057,0.04l0.026,0.043h0.097l0.099,-0.059l0.047,0.029l-0.031,0.089l-0.128,0.108l-0.108,-0.003l-0.055,-0.081l0.016,-0.067l-0.063,-0.094l-0.091,-0.022l-0.016,0.03l0.05,0.027l0.152,0.307l0.062,0.062l0.047,0.159l0.04,0.048l0.081,0.035l0.075,0.094l0.05,0.189l0.076,0.064l0.081,0.014l0.081,0.07l0.128,0.288l0.107,0.086l0.173,0.024l0.138,-0.038l0.126,0.019l0.23,0.178l0.149,0.231l0.049,0.019l0.05,-0.029l0.057,0.013l0.037,0.049l0.157,0.051l0.094,-0.016l0.162,0.072l0.076,0.081l0.026,0.067l0.104,0.025l0.204,-0.116l0.081,-0.011l0.097,-0.062l0.112,-0.011l0.129,-0.097l-0.016,-0.029l-0.047,-0.027l0.013,-0.113l0.056,-0.03l-0.001,-0.028l-0.071,-0.038l-0.002,-0.088l0.044,-0.061l0.085,-0.034l0.071,0.013l0.012,0.029l0.039,0.028l0.03,-0.003l0.052,0.041h0.023l0.023,0.012l0.026,-0.124l0.086,-0.226l0.065,-0.051l0.06,-0.154l0.097,-0.091l0.055,-0.089l0.045,-0.167l0.167,-0.172l0.096,-0.032l0.05,-0.046l0.133,-0.038l0.1,-0.056l0.149,-0.041l0.162,-0.021l0.238,-0.148l0.146,-0.027l0.186,0.013l0.345,0.078l0.185,-0.016l0.076,-0.048l0.144,-0.03l0.049,-0.04l0.029,-0.119l0.047,-0.064l0.089,-0.054l0.146,-0.024l0.139,-0.095l0.107,-0.183l0.092,-0.089l0.081,-0.156l0.065,-0.056l0.144,-0.016l0.133,0.032l0.421,0.013l0.423,-0.061l0.076,-0.049l0.047,-0.04l0.12,-0.011l0.207,0.051l0.094,0.043h0.052l0.149,-0.059l0.123,-0.011l0.113,-0.04l0.18,0.013l0.084,0.07h0.054l0.04,-0.019l0.031,0.003l0.029,0.051h0.036l0.042,-0.029l0.126,0.008l0.091,-0.054l0.212,0.011l0.068,0.062l0.11,0.032l0.083,-0.022l0.097,0.03l0.052,0.062l0.133,0.035l0.138,-0.01l0.085,-0.053l0.131,-0.042l0.112,-0.086l0.163,-0.014l0.064,-0.062h0.099l0.071,0.03l0.149,-0.014l0.047,0.022h0.076l0.068,-0.04l0.342,0.005l0.094,0.032l0.141,-0.005l0.084,-0.038l0.094,0.003l0.118,0.067l0.097,0.143l0.062,0.013l0.063,-0.032l0.091,0.005l0.121,0.095l0.258,-0.011l0.204,-0.078l0.144,-0.172l0.037,-0.143l0.136,-0.164l0.251,-0.078l0.13,0.008l0.068,0.059l0.081,0.003l0.071,-0.068l0.115,-0.045l0.175,0.026l0.199,0.146l0.237,0.315l0.079,0.021l0.175,-0.032l0.131,-0.137l0.062,-0.014l0.066,-0.067l0.023,-0.11l0.115,-0.113l0.092,-0.017l0.026,-0.053l-0.031,-0.13l0.073,-0.091l0.073,-0.016l0.026,-0.033l0.008,-0.054l0.057,-0.051l0.118,-0.013l0.037,-0.059l-0.013,-0.121l0.1,-0.211l0.038,-0.167l-0.01,-0.102l0.034,-0.087l0.044,-0.036l0.029,-0.1l-0.005,-0.108l0.108,-0.233l0.081,-0.045l0.09,-0.139l0.157,-0.139l0.1,-0.189l0.089,-0.013l0.04,-0.029l0.05,-0.06l0.147,-0.113l0.1,-0.008l0.176,-0.11l0.047,-0.003l0.047,0.034l0.04,-0.018l0.013,-0.123l0.058,-0.116l0.102,-0.071l0.105,-0.018l0.047,-0.026l0.042,-0.079l0.113,-0.097l0.113,-0.034l0.187,0.023l0.058,-0.021l0.01,-0.039l0.061,-0.024l0.168,0.013l0.068,0.035l0.018,0.07l0.042,0.024l0.171,0.026l0.016,-0.018l-0.053,-0.047l0.011,-0.042l0.118,-0.063l0.095,-0.016l0.089,0.005l0.053,0.034l0.034,-0.013l0.023,-0.042l0.082,0.003l0.097,0.05l-0.005,0.026h-0.053l-0.002,0.024l0.057,0.018l0.161,-0.005l0.144,-0.076l0.111,-0.016l0.086,0.002l0.158,-0.06l0.218,-0.042l0.079,-0.097l0.002,-0.079l-0.071,-0.11l-0.049,-0.144v-0.108l0.018,-0.094l-0.034,-0.034l-0.008,-0.037l0.012,-0.029l-0.002,-0.022l-0.043,-0.017l-0.014,0.008l0.023,0.104l0.027,0.035l-0.016,0.094l0.005,0.115l0.042,0.137l0.042,0.066l-0.016,0.047l-0.065,0.002l-0.211,-0.091l-0.189,-0.226v-0.079l0.045,-0.089l0.068,-0.018l0.082,-0.103l0.005,-0.102l0.058,-0.053h0.034l0.061,0.105l0.027,-0.012l-0.036,-0.187v-0.1l0.026,-0.121l0.027,-0.044l0.06,-0.012l0.019,-0.025l0.017,-0.083l0.094,-0.099l0.113,-0.025l0.053,-0.091l-0.018,-0.231l0.046,-0.486l0.07,-0.157l0.091,-0.066l0.136,-0.014l0.137,0.014l0.067,-0.048l-0.053,-0.358l0.024,-0.139l0.071,-0.094l0.133,-0.076l0.154,-0.007l0.031,-0.024v-0.143l0.088,-0.16l0.361,-0.236l0.431,-0.139l0.056,-0.052l0.073,-0.021l0.119,0.038l0.084,-0.02l0.095,-0.122l-0.025,-0.087l0.172,-0.194l0.081,-0.021l0.101,0.014l0.154,-0.059l0.053,-0.101l0.186,-0.087l0.031,0.021l0.032,-0.021l0.021,-0.062l0.157,-0.122l0.084,-0.007l0.021,-0.062l-0.182,-0.174l0.011,-0.028l0.045,-0.01v-0.045l-0.284,-0.171l-0.231,-0.076l-0.122,-0.003l-0.186,-0.066l-0.203,-0.167l-0.249,-0.285l-0.214,-0.358l-0.133,-0.351l0.011,-0.118l0.042,-0.017l0.017,-0.042l-0.108,-0.17l-0.179,-0.382l-0.133,-0.42l0.018,-0.035l0.056,-0.01l0.01,-0.125l-0.035,-0.098l0.011,-0.17l0.073,-0.125l0.06,-0.059l0.056,-0.111l0.017,-0.118l0.081,-0.083h0.08l0.042,-0.06l-0.021,-0.09l0.053,-0.215l0.406,-0.587l0.105,-0.07l0.172,-0.18l0.221,-0.506l0.136,-0.109l0.142,-0.031l0.105,-0.125l0.105,-0.261l0.147,-0.182l0.142,-0.047l0.069,-0.078l0.021,-0.11l0.052,-0.073l0.126,-0.041l0.289,-0.396l0.042,-0.162l0.355,-0.505l0.092,-0.237l0.176,-0.193l0.118,-0.065l0.197,-0.021l0.105,-0.044l0.239,-0.021l0.376,-0.188l0.066,-0.139l-0.032,-0.084l-0.068,-0.021l-0.026,0.033l-0.065,-0.001l-0.114,-0.134l-0.079,-0.118l-0.128,-0.035l-0.028,0.025l0.021,0.029l0.09,0.021l0.045,0.047l-0.021,0.022l-0.114,-0.015l-0.117,-0.066l-0.021,-0.089l0.051,-0.057l0.109,-0.074l0.025,-0.062l0.077,-0.066l0.094,-0.049l0.246,-0.323l0.182,-0.174l0.065,-0.024l0.065,-0.115l0.158,-0.125l0.2,-0.091l0.165,-0.016l0.1,-0.033l0.097,0.007l0.079,0.06l0.039,-0.01l0.048,-0.099l0.107,-0.088l0.077,0.004l0.074,-0.039l0.035,-0.048l0.182,-0.042l0.256,-0.01l0.084,-0.025l0.112,-0.076l0.287,-0.104l0.515,-0.07l0.14,-0.038l0.091,-0.052l0.134,-0.035l0.122,-0.01l0.266,-0.063l0.095,-0.052l0.221,-0.062l0.42,-0.038l0.308,-0.112l0.122,-0.09l0.067,-0.159l0.137,-0.21l0.074,-0.158l0.091,-0.091l0.392,-0.136l0.291,-0.203l0.353,-0.182l0.41,-0.168l0.211,-0.056l0.231,-0.126l0.063,-0.105l0.206,-0.122l0.193,-0.021l0.186,-0.116l0.07,-0.122l0.129,-0.091l0.098,-0.021l0.109,-0.095l0.046,-0.122l0.122,-0.109l0.13,-0.021l0.136,-0.084l0.123,-0.157l0.028,-0.126l0.046,-0.06l-0.011,-0.08l-0.066,-0.046l-0.049,-0.171l0.01,-0.119l0.037,-0.074l-0.093,-0.188l-0.161,-0.049l-0.084,-0.119l-0.018,-0.217l0.06,-0.175l0.133,-0.105l0.049,0.014l0.035,0.059l0.118,0.066l0.053,-0.008l0.021,-0.05l0.157,-0.008l0.05,-0.068l0.024,-0.163l0.097,-0.063l-0.008,-0.042l-0.181,-0.065l-0.058,0.018l-0.039,-0.005l-0.034,-0.053h-0.092l-0.048,0.045l-0.047,-0.005l-0.005,-0.055l-0.087,-0.103v-0.124l0.035,-0.094l0.002,-0.034l-0.108,0.03l-0.075,-0.008l-0.053,0.003l-0.032,0.046l-0.063,-0.004l-0.131,-0.121v-0.077l-0.053,-0.024l-0.053,0.038l-0.057,-0.024l-0.053,-0.007l-0.063,0.017l-0.068,-0.045l-0.07,0.017l-0.039,0.08l-0.078,-0.007l-0.099,-0.031l-0.06,0.042l-0.067,-0.004l-0.149,0.157l-0.102,0.02l-0.092,-0.034l-0.106,0.014l-0.088,0.062l-0.082,0.011l-0.042,0.066l-0.007,0.09l0.063,0.062l-0.01,0.053l-0.078,0.01l-0.155,-0.024l-0.121,-0.052l-0.07,0.013l-0.043,0.067l-0.07,0.034l-0.195,-0.048l-0.169,-0.139l0.01,-0.063l-0.039,-0.031h-0.102l-0.191,-0.052l-0.046,-0.052l-0.106,-0.039l-0.057,0.014l-0.123,-0.059l-0.05,0.004l-0.025,0.038l-0.155,0.048l-0.136,-0.043l-0.149,0.049l-0.06,0.132l-0.113,0.09l-0.265,0.038l-0.166,-0.111l-0.045,-0.237l-0.085,-0.078l-0.162,-0.018l-0.254,-0.149l-0.286,-0.021l-0.046,-0.03l-0.055,0.046l-0.04,0.01l-0.032,-0.031l-0.108,0.021l-0.008,0.081l-0.037,0.028l-0.21,0.011l-0.045,0.054l-0.032,0.008l-0.029,-0.034l-0.026,0.008l-0.016,0.081l-0.035,0.034l-0.124,0.015l-0.059,-0.02l-0.159,-0.016l-0.045,-0.039l-0.005,-0.11l-0.032,-0.052l-0.053,-0.002l-0.034,-0.021l0.013,-0.026l0.138,-0.018l0.053,-0.05v-0.049l-0.043,-0.086l-0.053,-0.021l-0.084,0.028l-0.014,-0.01l0.037,-0.078l0.075,-0.047l-0.008,-0.031l-0.037,-0.008l-0.008,-0.055l0.051,-0.075l-0.061,-0.084l-0.029,-0.117l-0.081,-0.081l-0.008,-0.073l-0.055,-0.044h-0.045l-0.042,-0.032l-0.008,-0.07l-0.1,-0.031l-0.165,0.044l-0.097,-0.005l-0.021,-0.034l-0.068,-0.018l-0.056,0.034l-0.086,0.01l-0.099,0.037l-0.102,-0.08l-0.01,-0.104l-0.088,-0.097l-0.122,-0.052l-0.105,0.007l-0.147,-0.042l-0.063,0.017l-0.049,-0.01l-0.046,-0.066h-0.052l-0.056,0.066l-0.042,0.003l-0.056,-0.027l-0.056,-0.063l-0.095,-0.028l-0.024,-0.038l-0.21,-0.062l-0.088,0.01l-0.14,-0.042l-0.035,-0.052l-0.108,-0.031l-0.133,0.042l-0.046,0.086l0.035,0.046l0.007,0.087l-0.056,0.024l-0.024,0.066l0.049,0.028l-0.007,0.031l-0.039,0.01l-0.01,0.046l0.052,0.034l0.063,0.098l0.007,0.09l-0.045,0.056l-0.249,-0.049l-0.07,0.014l-0.189,-0.018l-0.091,0.035l-0.112,-0.028l-0.143,0.039l-0.13,-0.032l-0.101,-0.1h-0.081l-0.091,0.066l-0.028,0.073l-0.063,0.055h-0.052l-0.074,-0.066l-0.052,-0.118l-0.126,-0.017l-0.133,-0.063l-0.06,0.003l-0.045,0.049l-0.186,0.052l-0.056,-0.034l-0.055,0.013l-0.029,0.054l-0.084,0.024l-0.092,-0.021l-0.039,0.01l-0.029,0.047l-0.076,0.016l-0.16,-0.05l-0.018,-0.057l-0.032,-0.039l-0.136,-0.024l-0.014,-0.065l-0.118,-0.148l-0.028,-0.091l-0.035,-0.02l-0.052,0.038l-0.06,-0.004l-0.114,-0.051l-0.065,-0.083l-0.164,-0.077l-0.093,-0.043l-0.056,0.039l-0.082,0.003l-0.063,0.091l-0.087,0.052l-0.095,-0.004l-0.112,0.025l-0.117,-0.047l-0.092,-0.073h-0.031l-0.054,0.054v0.062l-0.028,0.028l-0.035,-0.003l-0.054,0.054l-0.051,-0.02l0.011,-0.08l-0.039,-0.017l-0.056,0.017l-0.035,-0.017l-0.021,-0.111l-0.154,-0.101l-0.063,-0.09l-0.059,-0.032l-0.07,0.014l-0.116,-0.076l-0.006,-0.063l0.021,-0.054l-0.018,-0.088l-0.074,-0.097l-0.134,0.007l-0.078,0.055l-0.205,0.008l-0.087,-0.018l-0.023,-0.032l-0.061,-0.01l-0.042,0.044l-0.084,-0.002l-0.191,-0.099l-0.019,-0.06l-0.044,-0.026l-0.053,0.01l-0.197,-0.044l-0.01,-0.037l-0.105,-0.054l-0.074,0.062l-0.039,-0.008l-0.011,-0.075l-0.081,-0.042l-0.053,0.008l-0.107,-0.076l-0.071,-0.013l-0.061,0.055l-0.052,-0.003l-0.047,-0.06l-0.129,-0.062l0.032,-0.11l0.083,-0.047l0.002,-0.037l-0.148,-0.015l-0.077,0.039l-0.039,0.105l0.024,0.135l-0.055,0.117l-0.323,-0.078l-0.103,-0.13l0.016,-0.07l0.071,-0.034l0.121,-0.11l0.015,-0.099l0.027,-0.031l0.013,-0.091l0.055,-0.058l0.037,-0.198l-0.006,-0.08l-0.094,-0.099l-0.045,-0.008l-0.063,0.023l-0.144,-0.031l-0.142,-0.089l-0.181,0.005l-0.021,0.032l0.024,0.041l-0.058,0.102l-0.121,0.003l-0.055,-0.029l-0.024,-0.128l0.016,-0.049l-0.034,-0.05l-0.122,-0.046l-0.114,0.012l-0.103,0.065l-0.056,-0.006l-0.03,-0.06l-0.002,-0.07l-0.056,-0.064l-0.073,-0.009l-0.056,-0.05l0.014,-0.111l-0.018,-0.051l-0.019,-0.018l-0.106,0.011l-0.151,0.075l-0.043,0.067l-0.096,0.084l-0.123,0.032l-0.062,-0.029l-0.066,0.01l-0.057,0.066l-0.042,0.006l-0.026,-0.027h-0.086l-0.07,0.048l-0.198,0.042l-0.097,0.058l-0.172,0.002l-0.196,-0.105l-0.057,0.016l-0.034,0.047l-0.081,0.021h-0.156l-0.206,-0.047l-0.207,-0.111l-0.117,-0.029l-0.07,-0.039l-0.094,-0.116l-0.086,-0.027l-0.055,0.019l-0.047,-0.019l-0.018,-0.039l-0.05,-0.019l-0.052,0.016l-0.154,-0.042l-0.055,-0.053l-0.125,-0.018l-0.042,0.024l-0.041,-0.003l-0.016,-0.037l-0.13,-0.068l-0.047,-0.09l-0.034,-0.018l-0.089,0.021l-0.096,0.071l-0.217,0.008l-0.162,-0.032l-0.13,0.003l-0.034,0.034l0.021,0.069l-0.021,0.021l-0.044,-0.024l-0.032,0.024l-0.018,0.039l-0.094,0.079l-0.107,0.034l-0.023,0.037l0.078,0.069l0.008,0.118l-0.034,0.011l-0.154,-0.134l-0.141,-0.035l-0.078,0.045h-0.141l-0.169,-0.103l-0.042,-0.076l-0.115,-0.048l-0.209,-0.013l-0.083,-0.034h-0.363l-0.117,-0.071l0.011,-0.04l0.086,-0.029l0.01,-0.065l-0.021,-0.027l-0.128,-0.01l-0.135,-0.061l-0.152,-0.126l-0.193,-0.024l-0.07,0.05l-0.123,0.013l-0.12,0.077l-0.122,0.018l-0.091,0.074l-0.087,0.021l-0.088,0.095l-0.021,0.095l-0.094,0.057l-0.013,-0.028l0.036,-0.04l0.006,-0.037l-0.05,-0.026l0.008,-0.048l0.06,-0.068l0.06,-0.024l0.026,-0.05l-0.009,-0.082l-0.111,-0.014l-0.174,0.078l-0.205,0.007l-0.15,0.038l-0.104,0.095l-0.342,0.044l-0.298,0.137l-0.588,0.076l-0.08,-0.06l-0.055,-0.014l-0.084,0.035l-0.299,0.021l-0.57,-0.042l-0.405,-0.116l-0.16,-0.011l-0.496,-0.142l-0.417,-0.026l-0.357,-0.074l-0.139,0.032l-0.165,-0.021l-0.149,-0.101l-0.027,-0.063l-0.107,-0.058l-0.293,-0.005l-0.107,-0.063l-0.133,-0.011l-0.352,0.042l-0.308,0.009l-0.188,0.042l-0.082,-0.014l-0.032,-0.066l0.057,-0.106l-0.022,-0.007l-0.088,0.06l-0.089,-0.007l-0.153,-0.158l-0.032,-0.085l-0.207,-0.14l-0.078,0.003l-0.028,0.099l-0.082,0.031l-0.057,-0.007l-0.053,0.028v0.067l-0.135,0.109l-0.146,0.021l-0.089,-0.028l-0.075,0.004l-0.106,0.084l-0.153,0.035l-0.292,-0.039l-0.206,-0.108l-0.039,0.007l-0.025,0.045l-0.338,0.106l-0.263,0.007l-0.132,-0.057l-0.057,0.007l-0.039,0.053l-0.149,0.028l-0.253,-0.031l-0.117,-0.053l-0.171,-0.004l-0.128,0.036l-0.306,-0.025l-0.074,0.028l-0.096,-0.003l-0.086,-0.039l-0.402,-0.011l-0.124,0.06l-0.675,0.007l-0.285,-0.053l-0.226,-0.144l-0.191,-0.214l-0.045,-0.105l-0.091,-0.058l-0.219,-0.062l-0.08,-0.045l-0.038,-0.078l-0.157,-0.056l-0.09,0.014l-0.049,0.074l-0.08,0.011l-0.031,0.031l0.007,0.074l-0.063,0.077l-0.038,-0.01l0.004,-0.162l-0.073,-0.165l-0.046,-0.025l-0.09,0.028l-0.045,0.057l-0.07,0.049v-0.046l0.104,-0.204l-0.031,-0.024l-0.101,0.056l-0.069,0.105l-0.233,0.067l-0.115,0.067l-0.017,0.074l-0.035,0.021l-0.052,-0.021l-0.049,0.035l0.024,0.088l-0.028,0.042l-0.055,0.014l-0.028,-0.007l0.045,-0.042l-0.035,-0.064l0.028,-0.091l0.063,-0.028l0.014,-0.028l-0.038,-0.039l0.017,-0.151l-0.045,-0.035l-0.105,0.018l-0.125,0.123l-0.247,0.144l-0.149,-0.028l-0.091,0.045l-0.038,0.12l0.045,0.108l-0.041,0.025l-0.074,-0.028l-0.104,0.049l-0.083,0.091l-0.077,0.032l-0.055,-0.01l-0.06,0.028l-0.097,0.154l-0.143,0.099l-0.089,-0.003l-0.104,-0.04l-0.021,0.035l0.065,0.095l-0.021,0.055l-0.07,0.018l-0.006,0.058l0.024,0.048l-0.016,0.058l-0.06,0.06l0.013,0.04h0.154l0.102,-0.029l0.039,-0.061l0.037,-0.008l0.067,0.037l0.107,-0.013l0.076,-0.05l0.052,-0.092l0.031,-0.011l-0.034,0.103l-0.073,0.103l-0.12,0.05l-0.133,-0.021l-0.193,0.052l0.008,0.05l0.204,0.087l0.208,-0.008l0.097,0.043l0.086,-0.011l-0.076,0.04l-0.125,-0.022l-0.076,0.058l-0.005,0.156l0.042,0.113l-0.031,0.034l-0.107,-0.085l-0.008,-0.06l-0.065,-0.079l-0.09,-0.028l-0.032,-0.051l-0.044,-0.027l-0.106,0.029l-0.019,0.052l0.021,0.037l0.004,0.054l-0.053,0.087l-0.058,0.011l-0.035,0.022l0.005,0.042l0.051,0.051l-0.054,-0.023l-0.036,-0.064l0.008,-0.146l-0.04,-0.071l-0.046,0.003v0.046l-0.019,0.013l-0.053,-0.035l-0.101,0.017l-0.028,0.063l-0.066,0.032l-0.049,-0.021l-0.047,0.005l-0.011,0.113l-0.075,0.074l-0.099,0.018l-0.112,-0.031l-0.118,0.013l-0.107,0.055l-0.216,0.056l-0.146,-0.008l-0.212,-0.09l-0.104,-0.121h-0.042l-0.036,0.071l-0.031,0.024l-0.139,-0.013l-0.047,0.031l-0.007,0.085l-0.076,0.026h-0.091l-0.097,0.055v0.05l0.133,0.079l0.06,0.122l-0.036,0.015l-0.06,-0.034l-0.165,0.005l-0.088,0.05l-0.081,0.114l-0.107,0.034l-0.178,-0.063l-0.182,0.055l-0.034,0.082l-0.039,0.026l-0.042,-0.008l-0.023,0.032l0.018,0.074l0.047,0.06l0.065,-0.003l0.044,-0.028l0.024,0.031l-0.081,0.132l-0.05,0.002l-0.047,-0.057l-0.044,0.002l-0.018,0.066l-0.05,0.016l-0.052,-0.011l-0.018,0.027l0.021,0.079l-0.032,0.076l-0.06,0.021l-0.07,-0.024l-0.013,0.022l0.039,0.034l0.013,0.108l0.039,0.039h0.045l0.031,0.04l-0.034,0.121l-0.081,0.095l-0.029,0.132l0.047,0.044l0.016,0.116l0.026,0.003l0.05,-0.153l0.096,-0.079h0.052l0.086,0.09l0.027,-0.016l-0.014,-0.1l0.019,-0.016l0.041,0.037l0.027,0.076l0.052,0.058l0.057,-0.008l0.024,0.029l-0.06,0.079l-0.013,0.077l0.039,0.079l0.081,0.037l0.028,0.042l-0.008,0.058l-0.109,0.071l-0.024,0.045l0.118,0.16l0.088,0.077l0.042,0.008l0.011,-0.061l0.086,-0.034l0.021,-0.05l-0.034,-0.042l0.002,-0.037l0.131,-0.024l0.036,0.045l0.105,0.021l0.101,-0.016l0.016,-0.053l0.049,-0.021l0.058,0.008l0.049,-0.021l0.04,-0.071l0.07,-0.021l-0.011,0.032l-0.049,0.039l-0.018,0.069l-0.066,0.021l-0.065,0.044l-0.07,0.114l-0.141,0.066l-0.136,0.187l-0.049,0.274l-0.12,0.155l-0.055,0.124l0.034,0.029l0.057,-0.032l0.066,0.008l0.06,0.071l-0.021,0.063v0.093l0.036,0.021l0.091,-0.045l0.055,-0.079l0.011,-0.084l0.101,-0.072l0.089,-0.031l0.029,-0.032l-0.005,-0.081l0.08,-0.106l0.058,-0.021l0.039,0.029v0.092l0.063,0.013l0.026,-0.06l0.047,-0.032v-0.039l-0.055,-0.042l0.008,-0.05l0.06,-0.043l0.065,0.019l0.005,0.058l0.029,0.047l0.075,0.003l0.128,-0.048l0.037,-0.052l0.036,-0.032l0.045,-0.01l-0.042,0.036l-0.021,0.08l-0.11,0.105l-0.023,0.1l-0.055,0.074l-0.109,0.039l-0.045,0.108l0.05,0.187l-0.013,0.201l-0.029,0.042l-0.115,0.01l-0.028,-0.037l0.034,-0.042l0.005,-0.079l-0.045,-0.058l-0.054,0.011l-0.037,0.058l-0.052,0.034l-0.063,-0.003l-0.041,0.04l0.018,0.053h0.102l0.057,0.029l0.055,0.071l-0.008,0.118l0.128,0.111h0.07l0.013,-0.034l0.078,-0.011l0.079,0.026l0.083,-0.013l0.05,-0.074l0.107,-0.068l0.096,-0.021l0.045,0.034l-0.06,0.069l-0.094,0.052l-0.152,0.23l-0.112,0.039l-0.133,-0.037l-0.023,0.016l0.034,0.108l0.002,0.116l-0.039,0.01l-0.091,-0.086l-0.029,0.023l0.008,0.108l-0.031,0.09l0.028,0.021l0.05,-0.042l0.216,0.037l0.159,-0.069l0.06,-0.082l0.055,-0.005l0.026,0.029l0.081,-0.005l0.026,-0.042l0.105,-0.048l-0.008,-0.06l0.055,-0.106l0.032,-0.037l0.052,0.008l0.01,0.05l-0.024,0.043l0.005,0.135l-0.038,0.023l-0.073,-0.013l-0.07,0.036l-0.048,0.086l-0.207,0.144l-0.059,0.005l-0.072,0.037l-0.031,0.077l-0.097,0.046l-0.032,0.037l0.002,0.068l-0.04,0.049l-0.069,0.004l-0.004,0.024l0.096,0.083l-0.014,0.074l-0.032,0.012l-0.069,-0.037l-0.049,0.002l-0.031,0.028l-0.035,0.005l-0.029,-0.01l-0.03,0.026l0.002,0.125l0.038,0.144l0.028,0.195l-0.014,0.095l0.003,0.342l0.021,0.142l0.035,0.013l0.038,-0.03l0.042,-0.081l0.082,-0.069l0.172,-0.01z"/>
</svg>
