<svg xmlns="http://www.w3.org/2000/svg" viewBox="763.784 394.918 55.539 43.057">
  <path d="M767.867571,415.233281l0.154,1.736v1.609l-0.06,0.046l-0.029,0.068l-0.062,0.06l-0.073,0.015l-0.177,0.133l-0.029,0.086l-0.057,0.021l-0.105,-0.029l-0.179,0.006l-0.165,0.088l-0.044,0.097l0.01,0.078l-0.046,0.062l-0.261,0.047l-0.115,0.084l-0.182,0.005l-0.11,-0.068l-0.026,-0.141l-0.052,-0.062l-0.146,-0.073l-0.067,0.005l-0.053,0.063l-0.083,-0.005l-0.068,-0.079l-0.125,-0.01l-0.083,-0.026l-0.058,0.015l-0.041,0.063l-0.12,0.042l-0.104,0.01l-0.058,0.052l-0.078,-0.01l-0.188,-0.094h-0.062l-0.047,0.052h-0.052l-0.057,-0.036l-0.084,0.036v0.042l-0.036,0.031l-0.052,-0.026l-0.037,0.037l0.03,0.034l-0.032,0.032l-0.048,0.013l-0.025,0.091l0.007,0.069l0.045,0.011l0.032,-0.021l0.034,0.017l-0.017,0.059l-0.066,0.021l-0.017,0.038l0.038,0.046l-0.014,0.038l-0.087,0.038l-0.01,0.076l0.034,0.066l0.073,0.046l-0.017,0.069l-0.073,0.052l-0.01,0.084l0.052,0.156l-0.049,0.08l-0.163,0.042l-0.049,0.048l0.004,0.105l-0.025,0.02l-0.059,-0.038l-0.055,0.025l-0.011,0.128l-0.052,0.045l-0.073,0.025l-0.038,0.073v0.076l-0.049,0.056l-0.076,0.041l-0.011,0.098l0.066,0.083l-0.013,0.031l-0.035,0.032v0.09l0.132,0.149l0.031,0.087l0.073,0.004l0.063,-0.028l0.062,0.014l0.024,0.041l0.133,-0.007l0.066,-0.031l0.114,0.025l0.08,0.069l0.045,0.004l0.045,-0.028l0.053,0.01l0.02,0.045l0.192,0.125l0.02,0.046l0.073,0.007l0.07,-0.049l0.146,-0.045l0.083,0.003l0.045,-0.055h0.046l0.027,0.041l0.039,0.004l0.045,-0.028l0.163,0.062l0.042,0.07l0.08,0.063l0.212,0.02l0.083,-0.02l0.136,0.034l0.114,0.084l0.073,0.014l0.073,0.066l0.018,0.062l0.225,0.191l0.094,0.045l0.118,0.011l0.15,0.09l0.017,0.094l0.115,0.125l0.059,0.011l0.038,0.041l0.014,0.049l0.139,0.142l0.049,0.122l0.062,0.045l0.011,0.056l-0.021,0.076l0.024,0.177l-0.017,0.042l-0.045,0.014l-0.014,0.049l0.107,0.111l0.105,0.038l0.26,0.233l0.146,0.069l0.035,0.07l-0.003,0.226l0.041,0.066l0.059,0.003l0.021,0.049l-0.007,0.035l0.045,0.038l0.077,-0.011l0.142,0.108l0.035,0.111l0.09,0.077l0.153,0.045l0.087,-0.014l0.226,0.011l0.118,0.066l0.139,0.156l0.004,0.066l0.052,0.097l-0.018,0.205l0.042,0.066l0.188,0.059l0.083,-0.01l0.035,-0.045l0.062,0.01l0.066,0.101l0.059,0.052l0.091,0.014l0.024,0.049v0.059l0.078,0.09l0.051,0.028l0.083,0.128l0.08,0.021l0.066,-0.028l0.125,0.004l0.094,-0.028l0.069,0.024l0.004,0.063l0.038,0.028l0.056,0.017l0.114,0.094l0.056,0.139l0.024,0.024l0.039,0.011l0.066,0.073l0.069,0.038l0.038,0.097l-0.027,0.125l-0.028,0.045l-0.045,0.018l-0.011,0.062l0.017,0.112l-0.041,0.121l-0.056,0.056l-0.035,0.087l0.007,0.08l-0.024,0.045l0.01,0.08l0.06,0.073v0.1l-0.018,0.059l-0.021,0.16l0.046,0.115l0.069,0.031l0.021,0.063l-0.024,0.08l0.006,0.059l0.042,0.052l-0.007,0.087l-0.048,0.087l0.007,0.087l0.055,0.111l-0.021,0.052l0.007,0.052l0.442,0.737l0.003,0.253l0.681,0.452l-0.028,0.042l-0.003,0.087l-0.042,0.107l-0.021,0.188l0.059,0.136l0.073,0.027l0.396,-0.135l0.167,-0.15l0.195,-0.024l0.062,0.031l0.07,0.007l0.052,-0.017l0.115,0.055l0.045,0.06l0.048,0.013l0.067,-0.024l0.201,-0.007l0.125,0.056l0.042,0.059l0.069,0.031l0.063,-0.01l0.267,0.128l0.007,0.066l-0.118,0.129l-0.007,0.073l0.101,0.146l0.017,0.17l-0.069,0.132l-0.045,0.017l-0.042,0.063l-0.028,1.244l0.518,0.591l-0.044,0.155l0.076,0.032l0.006,0.05l-0.054,0.061l0.35,0.308l0.036,0.001l0.05,-0.039l0.002,-0.05l0.081,-0.031l0.042,0.011l0.151,-0.006l0.029,-0.021h0.036l0.039,0.024l0.034,-0.011l0.023,-0.041l0.032,0.002l0.018,0.045l-0.026,0.049l0.018,0.104l0.151,0.003l0.039,-0.018l0.037,0.005l0.036,0.026l1.113,0.003l0.211,-0.029l0.094,0.008l0.057,0.042l0.66,-0.027l0.143,0.068l0.097,0.016l0.19,0.073l0.01,0.031l0.037,0.018l0.034,-0.002l0.057,0.021l0.026,0.033l0.052,0.016l0.05,-0.021l0.062,0.026l0.047,0.079l0.039,0.023h0.039l0.078,0.047l0.034,0.091l0.058,0.047l0.049,0.005l1.043,0.675l1.376,0.949l0.651,0.401l0.131,0.059l0.048,0.056l0.052,0.087l0.289,0.219l0.066,0.09l0.041,-0.028l0.164,-0.028l0.976,0.063l0.254,-0.09l0.024,-0.049l-0.028,-0.028l0.018,-0.028l0.076,0.011l0.056,0.062l0.021,0.07l0.066,0.042l0.201,0.017l0.104,0.024l0.046,-0.031l0.007,-0.063l0.031,-0.014l0.132,0.181l0.664,0.226l0.201,-0.007l0.031,-0.042l0.056,-0.007l0.167,0.035l0.17,-0.028l0.056,-0.045l0.059,0.004l0.135,0.097l0.216,0.101l0.385,0.031l0.08,-0.08l0.045,-0.003l0.021,0.059l-0.007,0.052l0.056,0.021l0.427,0.021l0.101,-0.025l0.049,0.021l0.038,0.181l0.052,0.028l0.09,-0.007l0.146,-0.303l0.112,-0.08l0.569,-0.583l0.355,-0.751l1.022,-0.534h0.038l0.026,-0.029l0.071,-0.038l0.03,-0.051l0.028,-0.01l0.043,0.014l0.646,-0.263l0.042,0.002l0.03,-0.03l1.129,-0.462l0.106,-0.02l0.076,-0.091l0.077,0.004l0.145,0.094l0.094,0.021l0.143,0.132l0.024,0.076l0.073,0.111l0.063,0.045l0.097,0.004l0.188,0.153l0.062,0.087l0.174,0.156l0.052,0.09l0.202,0.178l0.222,0.114h0.056l0.066,-0.055l0.139,-0.007l0.083,0.045l0.208,-0.007l0.046,-0.031l0.142,-0.018l0.108,0.035l0.285,-0.045l0.041,0.021l0.049,-0.004l0.038,-0.08h0.07l0.069,0.039l0.15,-0.014l0.031,-0.039l0.059,0.007l0.073,0.056l0.09,-0.017l0.073,-0.066l0.139,0.003l0.049,0.042l0.059,0.003l0.035,-0.024l0.055,0.01l0.035,0.066l0.084,0.032l0.083,0.003l0.115,-0.101l0.048,-0.017l0.042,0.017l0.038,-0.052l0.094,-0.035l0.052,-0.086l-0.003,-0.115l0.114,-0.16l0.132,-0.045l0.16,-0.16l0.059,-0.076l0.348,-0.059h0.855l0.385,-0.07l0.223,-0.007l0.476,-0.188l0.187,-0.034l0.33,-0.004l0.15,-0.073l0.229,-0.215l0.177,-0.219l0.132,-0.24l0.056,-0.226l0.066,-0.146l0.156,-0.139l0.317,-0.201l0.309,-0.17l0.667,-0.331l0.445,-0.159l0.761,-0.191l1.004,-0.209l0.487,-0.021l0.84,0.028l0.772,0.049l1.432,0.007l0.104,-0.098l1.501,-2.182l1.661,-1.668l2.439,-2.057l1.494,-1.591l1.571,-1.592l0.813,-0.674l1.571,-1.633l-0.226,0.001l-3.434,0.014l-11.09,-3.682l-1.301,-1.332h-0.172l-0.177,-0.073l-0.14,-0.026l-0.146,-0.104l-0.131,-0.136l-0.088,-0.218l-0.037,-0.141l-0.172,-0.172l-0.214,-0.073l-0.166,-0.912l-0.282,-0.162l-0.083,-0.026l-0.068,0.005l-0.052,0.032l-0.141,-0.063l-0.292,-0.693l-0.151,-0.162l-0.083,-0.031l-0.104,-0.156l-0.225,-0.157l-0.01,-0.104l-0.156,-0.365l-0.047,-0.031v-0.381l-0.068,-0.099l-0.136,-0.088v-0.052l-0.041,-0.042l-0.063,-0.016l-0.057,-0.094l-0.005,-0.078l-0.105,-0.13l0.011,-0.063l0.151,-0.047l0.13,-0.25l0.089,-0.125l0.104,-0.062l0.11,-0.141l0.083,-0.214l0.063,-0.052l0.135,-0.047l0.099,-0.182l-0.021,-0.12l0.129,-0.223l-0.115,0.011l-0.097,0.073h-0.132l-0.094,-0.042l-0.174,-0.014l-0.055,-0.048l-0.011,-0.119l-0.094,-0.156l-0.052,-0.003l-0.187,0.062l-0.049,-0.003l-0.115,-0.125l-0.073,-0.007l-0.066,0.038l-0.027,0.058l-0.419,0.128l-0.181,0.131l-0.088,0.064l-0.213,-0.065l-0.112,0.005l-0.126,0.055l-0.101,0.083l-0.136,0.045l-0.096,-0.011l-0.034,-0.041l-0.083,-0.032l-0.118,-0.002l-0.185,0.08l-0.06,0.06l-0.01,0.063l-0.031,0.023l-0.125,-0.002l-0.06,0.023h-0.052l-0.068,-0.018l-0.042,0.005l-0.034,0.042h-0.057l-0.024,-0.05l0.011,-0.028l-0.008,-0.024l-0.154,-0.005l-0.281,-0.073l-0.123,-0.047l0.003,-0.023l0.075,-0.008l0.003,-0.021l-0.107,-0.034v-0.047l0.033,-0.035l0.052,-1.018l-0.027,-0.306l-0.108,-0.497l0.038,-0.198l0.049,-0.066l0.024,-0.212l0.021,-0.07l0.007,-0.087l0.094,-0.25l0.194,-0.087l0.035,-0.128l0.184,-0.094l0.15,-0.167l0.25,-0.386l0.139,-0.166l0.145,-0.223l0.057,-0.039l0.048,-0.134l0.32,-0.494l0.25,-0.215l0.083,-0.282l0.245,-0.326l-0.453,-0.61l-0.23,-0.488l-0.325,-0.054l-0.282,-0.097l-0.128,-0.263l-0.195,-0.188l-0.146,-0.312l-0.143,-0.245l-0.261,-0.313l-0.323,-0.308l-0.047,-0.13l-0.198,-0.193l-0.083,-0.219l-0.407,-0.172l-0.307,-0.213l-0.188,-0.068l-0.329,-0.256l-0.239,-0.166l-0.167,-0.297l-0.104,-0.115l-0.183,-0.355l-0.26,-0.364l-0.219,-0.376l-0.183,-0.255l-0.271,-0.209l-0.349,-0.187l-0.766,-0.313l-0.443,-0.132l-0.223,-0.149l-0.43,-0.226l-0.105,-0.018l-0.076,0.046l-0.073,-0.007l-0.229,-0.549l-0.153,-0.035l-0.112,0.035l-0.114,0.107l-0.014,0.073l-0.118,0.146l-0.07,0.014l-0.041,0.031l-0.018,0.053l-0.066,0.048l-0.108,-0.003l-0.1,-0.066l-0.035,-0.073l-0.132,-0.098l-0.125,-0.034l-0.077,-0.049l-0.031,-0.073l-0.115,-0.09l-0.104,-0.014l-0.097,-0.052l-0.07,-0.101l-0.18,-0.066h-0.205l-0.167,0.08l-0.111,0.132l-0.018,0.111l0.08,0.056l0.035,0.045l-0.024,0.024l-0.275,-0.076l-0.236,-0.108l-0.063,0.014l-0.048,0.062l0.007,0.077l-0.032,0.028l-0.062,-0.007l-0.028,0.021l0.028,0.055l-0.025,0.021l-0.1,-0.01l-0.08,0.083l-0.049,0.132l-0.042,0.003l-0.052,-0.024l-0.034,-0.101l0.01,-0.069l0.083,-0.094l0.014,-0.132l-0.097,-0.156l-0.156,-0.039l-0.129,-0.132l-0.01,-0.08l0.024,-0.048l-0.004,-0.038l-0.062,-0.007l-0.174,0.048l-0.212,0.004l-0.087,0.055l-0.007,0.101l-0.087,0.163l-0.083,0.042h-0.073l-0.073,0.035l-0.049,0.08l-0.097,0.042h-0.108l-0.121,0.034l-0.129,0.098l-0.219,0.02l-0.076,-0.013l-0.09,0.013l-0.091,0.056l-0.413,0.066l-0.105,0.073h-0.048l-0.063,-0.024h-0.135l-0.087,-0.056l-0.031,-0.118l-0.132,-0.101l-0.094,-0.021l-0.164,-0.184l-0.017,-0.135l-0.08,-0.119l-0.059,-0.01l-0.035,-0.035l0.004,-0.135l-0.059,-0.091l-0.184,-0.048l-0.091,0.052l-0.132,-0.007l-0.233,-0.125l-0.125,-0.011l-0.111,-0.076l-0.042,-0.122l-0.236,-0.288l-0.01,-0.076l-0.084,-0.108l-0.034,0.003l-1.416,2.695l-0.076,0.023l-0.031,-0.018l-0.011,-0.034l-0.086,-0.086l-0.008,-0.125l-0.031,-0.036l-0.049,-0.008l-0.092,-0.089l-0.07,-0.026l-0.026,-0.039l0.031,-0.13l-0.026,-0.031l-0.047,-0.006l-0.028,-0.026l0.01,-0.07l-0.128,-0.128l-0.007,-0.039l-0.11,-0.112l-0.052,-0.023l-0.159,0.047h-0.076l-0.039,-0.032l-0.06,0.003l-0.08,0.081l-0.149,0.018l-0.076,0.049l-0.104,0.245l0.029,0.063l-0.021,0.133l-0.052,0.068l-0.143,0.007l-0.107,0.058h-0.047l-0.073,-0.042l-0.011,-0.049l-0.093,-0.063l-0.089,-0.008l-0.123,-0.036l-0.041,-0.045l-0.144,-0.015l-0.049,0.039h-0.05l-0.041,-0.021l-0.267,-0.013l-0.156,0.061l-0.089,0.002l-0.078,-0.033h-0.085l-0.073,0.059l-0.124,0.014l-0.083,0.034l-0.009,0.03l0.021,0.031l-0.01,0.042l-0.355,1.053l0.105,0.545l-0.091,0.177l-0.073,0.066l-0.158,0.426l-0.078,0.448l-0.401,0.662l-0.407,1.314l-0.036,0.031l-0.011,0.172l-0.042,0.068v0.083l0.053,0.068l0.062,0.026l-0.068,0.771l-0.114,0.037l-0.094,-0.021l-0.047,-0.062l-0.25,-0.047h-0.099l-0.782,0.208l-0.042,-0.015l-0.047,0.01l-0.015,0.036h-0.047l-0.063,-0.046l-0.104,0.005l-0.136,0.114l-1.303,2.236l-0.151,0.381l-0.703,0.521l-0.136,0.219l0.007,0.111l0.118,0.292l-0.021,0.396l-0.111,0.216l-0.007,0.229l-0.215,0.306l-0.07,0.201l-0.08,0.049l-0.014,0.052l-0.045,0.028v0.031l0.12,0.038l0.13,0.172l-0.166,0.887l0.121,0.158l-0.003,0.059l-0.171,0.087l-0.26,0.225l-0.011,0.16l0.046,0.018l0.003,0.031l-0.083,0.104l-0.059,0.042h-0.035l-0.052,-0.049h-0.045l-0.056,0.056l-0.049,0.007l-0.014,-0.028l0.056,-0.049l0.01,-0.076l-0.038,-0.028l-0.073,0.004l-0.215,-0.251l-0.372,-0.316l-0.507,0.344l-0.278,0.508l-0.344,0.359l-0.058,0.193l0.089,0.297l-0.037,0.198l0.157,0.433l0.021,0.208l-0.042,0.266l-0.021,0.042l-0.005,0.047l0.021,0.041l-0.365,0.271l-0.068,0.454l0.026,0.146l-0.229,0.469l-0.219,0.771l0.018,0.198z"/>
</svg>
