<svg xmlns="http://www.w3.org/2000/svg" viewBox="1297.372 509.328 17.439 13.441">
  <path d="M1306.5198,515.54935l-0.09354,-0.365499l0.013858,-0.048502l0.240779,-0.069289l0.051967,0.029448l0.034644,0.247708l-0.09354,0.225189l-0.100469,0.09354l-0.095272,0.01559l0.041573,-0.128185Z M1306.642788,517.416686l0.060628,0.003464l0.029448,-0.051967l-0.025983,-0.055431l0.005197,-0.07795l0.050234,-0.025983l0.005197,-0.025983l-0.161097,-0.032912l-0.058896,0.034644l0.024251,0.129917l0.071021,0.102201Z M1305.728174,517.259054l0.053699,-0.065824l-0.072753,-0.074486l-0.069289,0.006929l-0.017322,0.048502l0.029448,0.090076l0.076218,-0.005197Z M1306.331556,518.483628l0.086043,0.008769l0.069289,-0.083147l-0.013858,-0.147239l-0.091808,-0.275423l-0.128185,-0.20267l-0.102201,-0.010393l-0.071021,0.072753l-0.064092,0.001732l-0.012126,0.032912l0.029448,0.039841l-0.045038,0.102201l0.001732,0.12472l0.0547,0.046066l0.028988,-0.017945l-0.019325,-0.063497l0.015184,-0.012423l0.07592,0.093865l0.056595,0.028988l0.049693,0.063497l0.00138,0.080061l0.078681,0.117331Z M1304.948674,515.800522l-0.03118,0.064958l0.03118,0.088343l0.057163,-0.002598l0.041573,-0.090942l-0.018188,-0.072753l-0.080548,0.012992Z M1305.037017,516.496876l0.114327,0.150703l0.064958,0.028582l-0.067557,-0.220858l-0.06236,-0.036377l-0.044172,0.03118l-0.005197,0.04677Z M1303.874695,516.386014l0.022519,0.041573h0.027716v-0.026849l0.033778,-0.028582l-0.020787,-0.038975l-0.063226,0.052833Z M1304.262713,517.02174l0.161097,-0.018188l0.085745,-0.083147l0.010393,-0.132515l-0.085745,-0.23385l-0.101335,-0.03118l-0.168892,0.101335l-0.03118,0.103933l0.025983,0.17149l0.103933,0.122122Z M1304.039257,516.941191l0.06236,0.096138l0.010393,0.085745l0.103933,0.088343l0.067557,-0.036377l0.005197,-0.051967l-0.06236,-0.025983l-0.116925,-0.12472l-0.025983,-0.088343l-0.041573,0.010393l-0.002598,0.04677Z M1301.368169,519.547321l0.051967,-0.038975l-0.002598,-0.033778h-0.051967l-0.03118,0.044172l0.033778,0.028582Z M1301.7865,519.690229l0.137712,-0.007795l0.116925,-0.096138l-0.018188,-0.116925l-0.072753,-0.049368l-0.119523,-0.007795l-0.088343,0.14031l-0.01559,0.103933l0.059762,0.033778Z M1300.0716,520.358001l0.051967,0.023385l0.018188,-0.04677l-0.044172,-0.067557l-0.03118,-0.116925l0.036377,-0.116925l-0.051967,-0.096138l-0.049368,-0.007795l-0.07795,0.075352l-0.012992,0.044172l0.161097,0.309202Z M1298.165288,515.364002l0.051967,-0.041573l0.038109,-0.166293l-0.045038,-0.027716l-0.041573,0.045038l-0.083147,0.013858l-0.038109,0.135113l0.038109,0.051967l0.079682,-0.010393Z M1298.144501,515.478329l0.055431,0.03118l0.06236,-0.024251l-0.006929,-0.076218l-0.051967,-0.024251l-0.058896,0.045038v0.048502Z M1298.269221,517.092761l0.086611,0.017322l0.041573,-0.079682l-0.048502,-0.055431h-0.072753l-0.045038,0.065824l0.038109,0.051967Z M1297.40311,514.726544l0.051967,-0.041573l0.013858,-0.072753l-0.058896,-0.006929l-0.013858,0.055431l-0.024251,0.048502l0.03118,0.017322Z M1298.414728,517.182836l0.034644,-0.045038v-0.045038l-0.041573,0.013858l-0.020787,0.06236l0.027716,0.013858Z M1298.01112,516.499474l-0.01559,0.038975l0.023385,0.028582l0.028582,-0.007795l0.010393,-0.036377l-0.023385,-0.033778l-0.023385,0.010393Z M1301.908622,515.415969l0.06236,-0.005197l0.041573,-0.06236l-0.036377,-0.025983l-0.09354,0.005197l-0.020787,0.04677l0.04677,0.041573Z M1302.210029,515.312035l0.020787,-0.020787l-0.007795,-0.038975l0.028582,-0.033778l-0.023385,-0.018188l-0.028582,0.018188l-0.044172,-0.005197l-0.007795,0.023385l0.038975,0.012992l0.018188,0.025983l0.005197,0.036377Z M1302.217824,515.39778l0.025983,0.018188l0.044172,-0.018188l0.020787,-0.054565l-0.03118,-0.01559l-0.036377,0.025983l-0.023385,0.044172Z M1299.422882,516.285545l0.034644,-0.020787l-0.003464,-0.034644l-0.024251,-0.006929l-0.03118,0.038109l0.024251,0.024251Z M1298.678026,516.081142l0.038109,-0.003464l-0.003464,-0.038109l-0.017322,-0.024251l-0.041573,0.003464v0.034644l0.024251,0.027716Z M1300.392927,515.644622l-0.003464,0.03118l0.034644,0.010393l0.041573,-0.024251l-0.024251,-0.027716l-0.048502,0.010393Z M1298.792353,518.187526l-0.010393,0.162829l0.166293,0.166293l0.21826,0.041573l0.221725,0.121256l0.491951,0.069289l0.803752,0.221725l0.128185,0.083147l0.252905,0.048502l0.388018,-0.027716l0.291013,-0.065824l0.110862,0.076218l0.128185,-0.041573l0.183616,-0.214796l0.304871,-0.166293l0.110862,-0.12472l0.076218,-0.027716l0.065824,0.055431l0.090076,-0.034644l0.038109,-0.058896l0.12472,0.017322l-0.010393,0.162829l0.069289,0.017322l0.128185,-0.169758l0.072753,-0.048502l0.058896,0.055431l-0.006929,0.138578l0.045038,0.013858l0.03118,-0.065824l0.058896,-0.006929l0.069289,0.048502l0.24944,-0.173222l0.190545,-0.21826l-0.020787,-0.06236l0.100469,-0.180151h-0.041573l-0.110862,0.138578l-0.042439,-0.01559l-0.054565,-0.122122l-0.103933,-0.090942l-0.09354,-0.225189l0.080548,-0.128185l0.059762,-0.038975l-0.012992,-0.088343l-0.071887,-0.090942l-0.003464,-0.121256l-0.024251,-0.055431l-0.103067,-0.028582l-0.03118,-0.044172l0.127318,-0.34298l-0.033778,-0.12472l-0.3118,-0.168892l-0.007795,-0.075352l-0.10913,-0.064958l-0.075352,0.01559l-0.207867,-0.090942l-0.142908,-0.1559l-0.051967,-0.189678l-0.17149,-0.075352l-0.07795,0.010393l-0.020787,0.070155l-0.059762,0.049368l-0.051967,-0.028582l0.002598,-0.153302l0.07795,-0.025983l0.036377,-0.04677l-0.057163,-0.17149l-0.080548,-0.036377l-0.150703,-0.145507l-0.036377,0.005197l0.012992,0.09354l-0.090942,0.054565l-0.083147,0.005197l-0.059762,0.054565l-0.103933,0.020787l-0.038975,-0.033778l-0.20267,0.010393l-0.03118,0.020787l-0.049368,0.132515l-0.064958,-0.010393l-0.070155,0.03118l-0.036377,0.057163l-0.101335,0.010393l-0.241645,-0.088343l-0.051967,0.01559l-0.033778,0.06236l-0.07795,0.041573l-0.025983,-0.04677l0.072753,-0.189678l-0.049368,-0.01559l-0.158498,0.067557l-0.088343,0.096138v0.096138l-0.049368,0.033778l-0.17149,-0.044172l-0.096138,0.049368l-0.122122,-0.002598l-0.070155,0.03118l-0.033778,0.072753l-0.116925,0.10913l-0.096138,0.041573l-0.057163,0.059762l-0.03118,-0.01559l-0.007795,-0.06236l-0.028582,-0.002598l-0.049368,0.083147l0.010393,0.163695l-0.088343,0.088343l-0.150703,0.044172l-0.04677,0.111728l-0.051967,0.044172l-0.072753,0.002598l-0.03118,0.051967l0.002598,0.09354l0.075352,0.025983l0.049368,0.049368l-0.005197,0.098737l0.04677,0.106532l-0.067557,0.06236l-0.10913,-0.028582l-0.07795,0.033778l0.002598,0.129917l-0.038975,0.132515l-0.14031,0.07795l-0.067557,-0.025983l-0.098737,0.03118l-0.06236,0.098737l0.01559,0.085745l0.044172,0.020787v0.036377l-0.09354,0.132515l0.016456,0.084013l0.180151,0.252905Z M1298.411264,514.766385l0.04677,-0.007795l0.038975,-0.083147l0.023385,-0.010393l0.018188,0.028582l0.038975,-0.012992l0.080548,-0.085745l0.088343,-0.04677l0.04677,-0.101335l-0.012992,-0.054565l-0.04677,0.010393l-0.044172,0.106532l-0.041573,0.01559l-0.036377,-0.018188l-0.01559,-0.028582l0.028582,-0.038975l-0.018188,-0.03118l-0.07795,0.067557l-0.018188,0.083147l-0.064958,0.067557l-0.051967,0.106532l0.018188,0.033778Z M1302.402306,513.397531l0.054565,0.10284l0.101335,0.045149l0.064958,-0.032608l-0.01559,-0.085282l-0.051967,-0.035116l-0.080548,0.010033l-0.051967,-0.032608l-0.020787,0.027591Z M1299.302492,513.433439l0.005197,0.080548l0.041573,0.033778l0.09354,-0.010393l0.051967,-0.096138l0.041573,-0.041573l0.057163,-0.005197l0.051967,-0.054565l0.036377,-0.080548l0.179285,-0.17149l0.020787,-0.070155l-0.04677,-0.04677h-0.057163l-0.005197,0.03118l0.041573,0.007795l0.005197,0.04677l-0.215662,0.21826l-0.1559,0.127318l-0.059762,0.083147l-0.025983,-0.010393l-0.018188,-0.072753l-0.041573,0.03118Z M1299.128404,513.856968l0.054565,0.018188l0.03118,-0.023385l-0.025983,-0.033778l0.01559,-0.025983l0.075352,-0.005197l0.051967,-0.067557l-0.007795,-0.10913l-0.028582,-0.018188l-0.054565,0.028582l-0.03118,0.090942l-0.04677,0.005197l-0.036377,0.020787l-0.023385,0.09354l0.025983,0.025983Z M1298.816604,514.21294v0.054565l0.028582,0.01559l0.051967,-0.044172l0.01559,-0.051967l0.064958,-0.049368l-0.002598,-0.033778l-0.044172,-0.012992l-0.054565,0.080548l-0.059762,0.041573Z M1298.962111,514.07263l0.020787,-0.020787l-0.01559,-0.049368l0.018188,-0.012992h0.033778v-0.064958l-0.072753,-0.01559l-0.038975,0.033778l-0.023385,0.07795l0.018188,0.033778l0.059762,0.018188Z M1299.068642,513.971295l-0.002598,0.06236l0.028582,-0.007795l0.007795,-0.075352l-0.023385,-0.036377l-0.018188,0.020787l0.007795,0.036377Z M1298.988094,513.867361l0.018188,0.028582l0.033778,-0.03118l0.002598,-0.038975l-0.028582,0.002598l-0.025983,0.038975Z M1308.913733,509.349129l0.03118,0.042641l0.067557,0.017558l0.044172,-0.002508l0.085745,0.050166l0.057163,0.060199l0.085745,-0.010033l-0.057163,-0.065216l-0.127318,-0.062708l-0.132515,-0.022575l-0.04677,-0.027591l-0.007795,0.020066Z M1309.989443,513.280477l-0.03118,0.05351l0.041573,0.016722l0.051967,-0.0301l0.048502,-0.127087l-0.034644,-0.036788l-0.072753,0.013378l-0.027716,0.050166l0.024251,0.060199Z M1309.888974,513.330643l0.041573,-0.033444l0.003464,-0.100332l-0.027716,-0.010033l-0.072753,0.043477l-0.051967,-0.010033l-0.041573,-0.056855l-0.107398,0.023411l-0.034644,0.05351l0.003464,0.120399l0.06236,0.05351l0.131649,-0.026755l-0.003464,-0.063544l0.041573,-0.040133l0.055431,0.046822Z M1308.402727,512.885837l0.017322,0.036788l0.121256,-0.003344l0.100469,-0.127087v-0.103677l-0.034644,0.006689l-0.003464,0.056855l-0.027716,0.006689l-0.045038,-0.013378l-0.055431,0.033444l-0.013858,0.073577l-0.058896,0.033444Z M1308.735314,512.404243l0.055431,0.026755l0.166293,-0.003344l0.138578,-0.050166l0.024251,-0.060199l-0.058896,-0.100332l0.045038,-0.060199l0.076218,-0.040133l-0.003464,-0.070233l-0.083147,-0.003344l-0.183616,0.090299l-0.1559,0.183942l-0.020787,0.086955Z M1303.491008,512.617449l0.018188,0.0301l0.103933,0.01505l0.083147,-0.040133l0.083147,-0.055183l-0.028582,-0.010033l-0.103933,0.012542l-0.1559,0.047658Z M1304.08083,512.557249h0.054565l0.044172,-0.045149l-0.007795,-0.045149l-0.044172,-0.007525l-0.01559,0.035116l-0.036377,0.01505l-0.051967,-0.012542l-0.01559,0.027591l0.072753,0.032608Z M1304.519949,512.233678h0.044172l0.01559,-0.035116l-0.002598,-0.052674l-0.041573,-0.007525l-0.044172,0.065216l0.028582,0.0301Z M1305.372202,512.045555l0.06236,-0.042641l-0.002598,-0.042641l-0.04677,-0.002508l-0.044172,0.055183l0.03118,0.032608Z M1305.494324,511.308114l0.03118,-0.017558l-0.002598,-0.050166l-0.044172,0.002508l-0.012992,0.057691l0.028582,0.007525Z M1306.39075,511.737034l0.116925,-0.01505l0.044172,-0.035116l-0.025983,-0.0301l-0.135113,0.010033l-0.036377,0.035116l0.036377,0.035116Z M1307.427485,511.19524l0.033778,-0.010033l0.010393,-0.070233l-0.054565,-0.025083l-0.028582,0.010033l-0.002598,0.055183l0.041573,0.040133Z M1308.461622,513.899192l-0.03118,0.130432l0.067557,0.135448l0.072753,0.035116l0.254637,-0.110365l0.21826,-0.25083l0.119523,-0.055183l0.259833,-0.376246l0.083147,-0.035116l-0.010393,-0.070233l-0.083147,-0.045149l-0.04677,-0.085282l0.036377,-0.070233l-0.036377,-0.115382l-0.098737,-0.0301l-0.207867,0.165548l-0.129917,0.170565l-0.119523,0.070233l-0.083147,0.145482l-0.06236,0.220731l-0.20267,0.170565Z M1304.394362,514.126611l0.045038,-0.173909l0.003464,-0.090299l0.194009,-0.19732h0.103933l0.363767,0.163876l0.027716,0.08361l0.072753,0.003344l0.03118,-0.056855l0.058896,-0.046822l0.079682,-0.003344l0.06236,-0.040133l-0.03118,-0.066888l-0.076218,0.010033l-0.051967,-0.036788l0.017322,-0.153843l0.09354,-0.100332l0.131649,-0.006689l0.069289,-0.050166l0.006929,-0.08361l0.3118,-0.247486l0.284085,0.003344l0.277156,0.123743l-0.017322,0.107021l-0.12472,0.050166l-0.114327,0.143809l0.069289,0.020066l0.107398,-0.043477l0.256369,-0.0301l0.110862,0.033444h0.117791l0.287549,-0.070233l0.083147,0.046822h0.083147l0.169758,-0.170565l0.214796,-0.066888l0.058896,-0.050166l0.055431,-0.020066l0.069289,0.0301l0.190545,-0.006689l0.294478,0.173909l0.065824,-0.023411l-0.020787,-0.076921l0.051967,-0.006689l0.065824,0.05351l0.041573,-0.006689l-0.006929,-0.086955l-0.173222,-0.137121l-0.010393,-0.060199l-0.058896,-0.040133l-0.114327,0.010033l-0.013858,-0.036788l0.072753,-0.050166l0.200938,-0.347818l0.121256,-0.257519l-0.020787,-0.063544l-0.103933,0.003344l-0.069289,0.080266l-0.263298,0.096988l-0.138578,0.143809l-0.242511,0.193975l-0.045038,0.150498l-0.211331,0.127087l-0.09354,0.140465l-0.121256,0.040133l-0.076218,0.073577l-0.266762,0.056855l-0.048502,-0.013378l0.041573,-0.180598l0.107398,-0.240797l0.107398,-0.073577l0.103933,-0.257519l0.232118,-0.193975l0.256369,-0.100332l0.145507,-0.127087l0.138578,-0.247486l0.076218,-0.063544l0.138578,-0.324407l0.419198,-0.324407l0.360302,-0.190631l-0.006929,-0.050166l-0.12472,0.006689l-0.349909,0.177253l-0.110862,0.020066l-0.142042,0.08361l-0.135113,-0.013378l-0.18708,0.040133l-0.228653,-0.073577l-0.183616,0.023411l-0.03118,0.11371l-0.166293,0.046822l-0.097004,-0.040133l-0.245976,0.093643l-0.027716,0.08361l-0.138578,0.0301l-0.131649,0.090299l-0.117791,0.140465l-0.145507,0.056855l-0.072753,0.103677l-0.169758,0.100332l-0.12472,-0.050166l-0.100469,0.016722l-0.06236,-0.023411l-0.128185,0.026755l-0.117791,0.093643l-0.367231,0.066888l-0.03118,0.050166l-0.045038,0.006689l-0.058896,-0.026755l-0.114327,0.016722l-0.055431,0.046822l-0.041573,-0.013378v-0.05351l-0.041573,-0.013378l-0.14031,0.140465l0.005197,0.087791l-0.236448,0.125415l-0.111728,0.120399l-0.095272,0.067724l-0.051967,-0.020066l-0.038109,0.006689l-0.014724,0.061035l-0.142908,0.110365l-0.028582,-0.032608l-0.025983,0.007525l-0.009527,0.06438l-0.045038,0.063544l-0.159365,-0.020066l-0.051967,-0.060199l-0.055431,-0.013378l-0.051967,0.033444l-0.041573,-0.013378l0.006929,-0.046822l-0.083147,-0.056855l-0.12472,0.0301l-0.055431,0.080266l0.055431,0.073577l0.083147,-0.0301l0.041573,0.010033l-0.06236,0.137121l-0.159365,0.013378l-0.117791,0.117054l0.017322,0.214042l0.069289,0.107021l0.162829,-0.073577l0.142042,-0.016722l0.107398,0.073577l-0.013858,0.117054l0.121256,0.157187l0.083147,0.214042l0.138578,0.217386l0.09354,0.016722l0.1559,-0.020066l0.100469,-0.060199Z M1311.443154,514.2184l0.017176,0.058371l0.054963,0.034336l0.051528,-0.013734l0.024046,-0.054938l-0.09962,-0.058371l-0.048092,0.034336Z M1310.501918,515.128307l-0.030917,0.051504l0.061833,0.048071l0.09962,-0.013734l0.027481,-0.044637l-0.020611,-0.048071l-0.137407,0.006867Z M1310.560316,515.780693l-0.048092,0.024035v0.054938l0.054963,0.013734l0.034352,-0.054938l-0.041222,-0.03777Z M1311.920643,515.275952l0.089314,-0.030902l0.003435,-0.072106l-0.061833,-0.041203l-0.082444,0.020602l-0.010306,0.058371l0.061833,0.065239Z M1311.814153,515.962674l0.09275,0.041203l0.089314,-0.030902l0.017176,-0.096141l-0.068703,-0.075539l-0.085879,0.006867l-0.061833,0.092707l0.017176,0.061805Z M1311.202693,517.085464l0.075574,0.075539l0.120231,0.003434l0.082444,-0.061805v-0.103008l-0.079009,-0.065239l-0.140842,0.003434l-0.058398,0.147645Z M1313.181351,516.865713l0.058398,-0.030902l-0.024046,-0.106442l-0.054963,-0.048071l-0.082444,0.024035l-0.00687,0.065239l0.109925,0.096141Z M1312.274466,518.029707h0.103055l0.020611,-0.068672l-0.037787,-0.089274l-0.082444,-0.041203l-0.068703,0.030902l-0.013741,0.061805l0.079009,0.106442Z M1313.198527,518.917295l0.010306,0.072106l0.037787,0.020602l0.065268,-0.065239l0.10649,-0.034336l0.054963,-0.092707l-0.051528,-0.103008l-0.175194,-0.041203l-0.130536,0.061805l-0.020611,0.127044l0.103055,0.054938Z M1311.953784,510.775518l0.041573,-0.013378l-0.006929,-0.0301l-0.045038,-0.010033l-0.013858,0.0301l0.024251,0.023411Z M1311.501552,519.490707l0.058398,-0.010301l0.024046,-0.068672l-0.065268,-0.03777l-0.037787,0.024035l-0.003435,0.065239l0.024046,0.027469Z M1314.362231,519.713185l0.021149,0.024958l0.062113,0.006652l0.082444,-0.051504l-0.024046,-0.03777l-0.048092,0.006867l-0.093568,0.050797Z M1312.544127,514.95491l0.058064,0.067683l-0.003888,0.0583l-0.105703,0.121237l-0.036069,0.164813l0.066303,0.132546l0.044362,0.032255l0.131515,0.010313l0.027911,-0.033632l-0.023331,-0.03498l-0.09733,-0.003493l-0.046542,-0.047033l-0.019442,-0.08162l0.060831,-0.118567l0.09275,-0.041203l0.087501,-0.088976l0.011665,-0.0583l-0.088861,-0.130847l-0.340082,-0.108159l-0.037668,0.01358l-0.003554,0.048225l0.221569,0.097858Z M1312.796612,514.913706l0.030917,0.036053l0.05668,-0.025752l0.015458,-0.072106l-0.051528,0.00515l-0.051528,0.056655Z M1313.255207,515.305138l0.05668,-0.025752l-0.020611,-0.046354l-0.061833,-0.00515l-0.010306,0.066955l0.036069,0.010301Z M1312.920278,515.660516l0.05668,-0.051504l0.005153,-0.072106l-0.066986,0.020602l-0.041222,0.092707l0.046375,0.010301Z M1308.326509,520.44288l0.083147,0.142042l0.058896,-0.020787l0.013858,-0.086611l0.051967,-0.058896l-0.013858,-0.041573l-0.072753,0.024251l-0.010393,-0.045038l0.232118,-0.114327l-0.013858,-0.069289l-0.166293,-0.013858l-0.252905,0.103933l-0.038109,0.072753l0.128185,0.107398Z M1314.354645,520.607442l0.088343,-0.01559l0.020787,-0.083147l-0.083147,-0.051967l-0.083147,0.04677l0.005677,0.04885l0.051487,0.055083Z M1314.107932,522.297815l-0.052287,0.015686l-0.059569,0.071201l0.010393,0.10913l0.1559,0.103933l0.081511,-0.007141l0.026144,-0.036601l-0.008918,-0.034208l-0.06236,0.010393l-0.119523,-0.072753l-0.020787,-0.067557l0.057163,-0.051967l-0.007667,-0.040118Z M1314.744396,522.576979l0.06236,-0.036377l0.005197,-0.161097l-0.051967,-0.01559l-0.04677,0.041573l-0.020787,0.145507l0.051967,0.025983Z M1314.676839,522.769256l0.072753,-0.010393l0.036377,-0.041573l-0.036377,-0.041573l-0.072753,0.005197l-0.036377,0.051967l0.036377,0.036377Z M1312.676121,521.870232l0.088343,0.010393l0.072753,-0.119523l-0.051967,-0.161097l-0.06236,-0.03118l-0.10913,0.072753l-0.01559,0.114327l0.07795,0.114327Z M1312.941151,521.428515l0.057163,-0.067557l-0.005197,-0.06236l-0.06236,0.005197l-0.098737,0.103933l0.036377,0.04677l0.072753,-0.025983Z M1313.933715,521.366155l0.10913,-0.025983l0.010393,-0.04677l-0.254637,-0.020787l-0.040124,0.035521l0.018243,0.036486l0.156994,0.021534Z M1307.872666,522.393364l-0.041573,0.207867l0.055431,0.076218l0.103933,-0.006929l0.069289,-0.097004l-0.041573,-0.173222l-0.145507,-0.006929Z M1309.397023,521.672759l0.090076,0.013858l0.009078,0.056951l-0.031372,0.073202l0.04183,0.015686l0.088889,-0.073202l0.000337,-0.062981l-0.039473,-0.078945l-0.200938,-0.020787l-0.090076,0.097004l-0.030635,0.18597l0.04183,0.047059l0.044236,-0.03209l0.020787,-0.173222l0.055431,-0.048502Z M1303.17661,521.397335l-0.064958,0.07795l0.012992,0.098737l0.067557,0.025983l0.01559,0.051967l0.041573,-0.005197l0.023385,-0.064958l0.083147,-0.025983l0.020787,-0.070155l-0.057163,-0.096138l-0.142908,0.007795Z M1303.389673,521.293402l0.04677,-0.007795l0.002598,-0.044172l-0.025983,-0.018188l-0.028582,0.012992l-0.018188,0.03118l0.023385,0.025983Z M1301.316202,522.449661l0.413135,0.04677l0.114327,-0.033778l0.12472,-0.090942l0.038975,0.023385l-0.033778,0.09354l0.04677,0.028582l0.101335,-0.059762l0.01559,-0.103933l-0.06236,-0.03118l-0.044172,-0.064958l0.010393,-0.10913l0.070155,-0.06236l0.098737,0.018188l0.07795,-0.044172l0.002598,-0.075352l0.03118,-0.036377l0.040375,0.022466l0.058362,-0.019868l0.007795,-0.054565l0.065824,-0.029448l0.06236,0.029448l0.002544,0.061792l0.024847,0.044172h0.066258l0.026227,0.028988l-0.04539,0.049531l0.036377,0.020787l0.137712,0.01559l0.14031,-0.057163l-0.005197,-0.067557l0.03118,-0.01559l0.070155,0.059762l0.083147,0.002598l0.09354,-0.135113l-0.028582,-0.12472l-0.075352,-0.051967l-0.072753,0.007795l-0.044172,0.07795l-0.025983,-0.018188l0.005197,-0.075352l-0.025983,-0.033778l-0.168892,-0.051967l-0.135113,-0.002598l-0.150703,0.04677l-0.04677,0.067557l-0.04677,0.018188l-0.080548,-0.018188l-0.172356,0.045038l-0.131649,0.079682l0.002598,0.189678l-0.03118,0.025983l-0.049368,-0.025983l-0.064958,0.025983l-0.01559,0.088343l-0.070155,0.010393l-0.101335,-0.038975l-0.145507,0.038975l-0.036377,0.080548l-0.085745,0.038975l-0.150703,0.01559l-0.015848,0.090128l0.062618,0.039788Z M1301.782542,522.557801l0.020172,0.035862l0.042586,-0.008965l0.002241,-0.044827l-0.024655,-0.031379l-0.035862,0.013448l-0.004483,0.035862Z M1302.085124,522.185738l-0.015689,0.026896l0.022413,0.03362l0.042586,-0.002241l0.022413,-0.040344l-0.058275,-0.060516l-0.020172,0.013448l0.006724,0.029138Z M1303.402665,521.150493l0.01559,-0.028582l-0.010393,-0.036377l-0.020787,0.002598l-0.007795,0.051967l0.023385,0.010393Z M1303.389673,520.96861l0.007795,-0.038975l-0.023385,-0.002598l-0.023385,0.041573l0.01559,0.025983l0.023385,-0.025983Z M1314.445587,521.802675h0.049368v-0.036377l-0.04677,-0.01559l-0.036377,0.025983l0.033778,0.025983Z M1314.601487,521.724725l0.028582,-0.054565l-0.010393,-0.03118l-0.041573,0.020787l-0.018188,0.075352l0.041573,-0.010393Z M1313.19319,521.891019l0.025983,-0.023385l-0.007795,-0.028582l-0.033778,-0.002598l-0.020787,0.036377l0.036377,0.018188Z M1313.923322,520.690588l0.051967,-0.025983l-0.012992,-0.03118l-0.080548,0.018188l-0.023385,0.025983l0.064958,0.012992Z M1309.981648,512.301402l0.04677,-0.010033l0.025983,-0.032608h-0.07795l-0.023385,0.017558l0.028582,0.025083Z M1298.185209,515.608246l0.038975,-0.028582l-0.025983,-0.033778l-0.023385,0.005197l-0.018188,0.038975l0.028582,0.018188Z M1298.021513,516.387746l0.023385,-0.04677l-0.018188,-0.020787l-0.025983,0.023385l-0.005197,0.033778l0.025983,0.010393Z M1297.909785,516.463098l0.028582,-0.005197l-0.012992,-0.041573l-0.054565,-0.028582l-0.002598,0.028582l0.041573,0.04677Z M1298.325437,514.914003l0.013073,-0.012504l-0.018188,-0.028582l-0.020787,0.010393l0.005197,0.028582l0.020705,0.002111Z M1298.38528,514.833942l0.028582,-0.018188l-0.012992,-0.028582l-0.025983,0.005197l-0.010393,0.033778l0.020787,0.007795Z M1298.348904,514.85213l-0.005197,0.023385l0.025983,0.054565l0.012992,-0.020787l-0.018188,-0.041573l-0.01559,-0.01559Z M1297.811048,516.434516l0.012992,0.028582l0.020787,-0.002598l0.010393,-0.025983l-0.018188,-0.012992l-0.025983,0.012992Z M1297.87081,516.083741l0.020787,-0.033778l-0.005197,-0.028582l-0.023385,0.002598l-0.007795,0.041573l0.01559,0.018188Z M1297.863015,515.930439l0.025983,-0.01559l0.007795,-0.036377l-0.025983,-0.007795l-0.020787,0.025983l0.012992,0.033778Z M1298.308873,514.956794l0.017945,0.006902l0.015184,-0.013804l-0.006902,-0.016564l-0.023466,0.004141l-0.002761,0.019325Z M1299.366233,513.361092v0.013804l0.016564,0.012423l0.013804,-0.011043l-0.008282,-0.017945l-0.022086,0.002761Z M1299.404883,513.586092l0.016564,0.012423l0.03727,-0.012423v-0.022086l-0.026227,-0.002761l-0.023466,0.006902l-0.004141,0.017945Z "/>
</svg>
