<svg xmlns="http://www.w3.org/2000/svg" viewBox="1297.372 509.328 17.439 13.441">
  <path d="M1306.52,515.549l-0.094-0.366l0.014-0.048l0.241-0.069l0.052,0.029l0.035,0.248l-0.094,0.225l-0.1,0.094l-0.095,0.016L1306.52,515.549z M1306.643,517.417l0.061,0.003l0.03-0.052l-0.026-0.055l0.005-0.078l0.05-0.026l0.005-0.026l-0.161-0.033l-0.059,0.035l0.024,0.13L1306.643,517.417z M1305.728,517.259l0.054-0.066l-0.073-0.074l-0.069,0.007l-0.017,0.049l0.029,0.09L1305.728,517.259z M1306.332,518.484l0.086,0.009l0.069-0.083l-0.014-0.147l-0.092-0.275l-0.128-0.203l-0.102-0.01l-0.071,0.073l-0.064,0.002l-0.012,0.033l0.03,0.04l-0.045,0.102l0.002,0.125l0.055,0.046l0.029-0.018l-0.019-0.063l0.015-0.012l0.076,0.094l0.057,0.029l0.05,0.064l0.001,0.08L1306.332,518.484z M1304.949,515.801l-0.031,0.065l0.031,0.088l0.057-0.003l0.042-0.091l-0.018-0.073L1304.949,515.801z M1305.037,516.497l0.114,0.151l0.065,0.029l-0.068-0.221l-0.062-0.036l-0.044,0.031L1305.037,516.497z M1303.875,516.386l0.022,0.042h0.028v-0.027l0.034-0.029l-0.021-0.039L1303.875,516.386z M1304.263,517.022l0.161-0.018l0.086-0.083l0.01-0.133l-0.086-0.234l-0.101-0.031l-0.169,0.101l-0.031,0.104l0.026,0.171L1304.263,517.022z M1304.039,516.941l0.062,0.096l0.01,0.086l0.104,0.088l0.068-0.036l0.005-0.052l-0.062-0.026l-0.117-0.125l-0.026-0.088l-0.042,0.01L1304.039,516.941z M1301.368,519.547l0.052-0.039l-0.003-0.034h-0.052l-0.031,0.044L1301.368,519.547z M1301.786,519.69l0.138-0.008l0.117-0.096l-0.018-0.117l-0.073-0.049l-0.12-0.008l-0.088,0.14l-0.016,0.104L1301.786,519.69z M1300.072,520.358l0.052,0.023l0.018-0.047l-0.044-0.068l-0.031-0.117l0.036-0.117l-0.052-0.096l-0.049-0.008l-0.078,0.075l-0.013,0.044L1300.072,520.358z M1298.165,515.364l0.052-0.042l0.038-0.166l-0.045-0.028l-0.042,0.045l-0.083,0.014l-0.038,0.135l0.038,0.052L1298.165,515.364z M1298.145,515.478l0.055,0.031l0.062-0.024l-0.007-0.076l-0.052-0.024l-0.059,0.045V515.478z M1298.269,517.093l0.087,0.017l0.042-0.08l-0.049-0.055h-0.073l-0.045,0.066L1298.269,517.093z M1297.403,514.727l0.052-0.042l0.014-0.073l-0.059-0.007l-0.014,0.055l-0.024,0.049L1297.403,514.727z M1298.415,517.183l0.035-0.045v-0.045l-0.042,0.014l-0.021,0.062L1298.415,517.183z M1298.011,516.499l-0.016,0.039l0.023,0.029l0.029-0.008l0.01-0.036l-0.023-0.034L1298.011,516.499z M1301.909,515.416l0.062-0.005l0.042-0.062l-0.036-0.026l-0.094,0.005l-0.021,0.047L1301.909,515.416z M1302.21,515.312l0.021-0.021l-0.008-0.039l0.029-0.034l-0.023-0.018l-0.029,0.018l-0.044-0.005l-0.008,0.023l0.039,0.013l0.018,0.026L1302.21,515.312z M1302.218,515.398l0.026,0.018l0.044-0.018l0.021-0.055l-0.031-0.016l-0.036,0.026L1302.218,515.398z M1299.423,516.286l0.035-0.021l-0.003-0.035l-0.024-0.007l-0.031,0.038L1299.423,516.286z M1298.678,516.081l0.038-0.003l-0.004-0.038l-0.017-0.024l-0.042,0.003v0.035L1298.678,516.081z M1300.393,515.645l-0.004,0.031l0.035,0.01l0.042-0.024l-0.024-0.028L1300.393,515.645z M1298.792,518.188l-0.01,0.163l0.166,0.166l0.218,0.042l0.222,0.121l0.492,0.069l0.804,0.222l0.128,0.083l0.253,0.048l0.388-0.028l0.291-0.066l0.111,0.076l0.128-0.042l0.184-0.215l0.305-0.166l0.111-0.125l0.076-0.028l0.066,0.055l0.09-0.035l0.038-0.059l0.125,0.017l-0.01,0.163l0.069,0.017l0.128-0.17l0.073-0.049l0.059,0.055l-0.007,0.139l0.045,0.014l0.031-0.066l0.059-0.007l0.069,0.049l0.249-0.173l0.191-0.218l-0.021-0.062l0.1-0.18h-0.042l-0.111,0.139l-0.042-0.016l-0.055-0.122l-0.104-0.091l-0.094-0.225l0.08-0.128l0.06-0.039l-0.013-0.088l-0.072-0.091l-0.004-0.121l-0.024-0.055l-0.103-0.029l-0.031-0.044l0.127-0.343l-0.034-0.125l-0.312-0.169l-0.008-0.075l-0.109-0.065l-0.075,0.016l-0.208-0.091l-0.143-0.156l-0.052-0.19l-0.172-0.075l-0.078,0.01l-0.021,0.07l-0.06,0.049l-0.052-0.029l0.003-0.153l0.078-0.026l0.036-0.047l-0.057-0.172l-0.081-0.036l-0.151-0.146l-0.036,0.005l0.013,0.094l-0.091,0.055l-0.083,0.005l-0.06,0.055l-0.104,0.021l-0.039-0.034l-0.203,0.01l-0.031,0.021l-0.049,0.133l-0.065-0.01l-0.07,0.031l-0.036,0.057l-0.101,0.01l-0.242-0.088l-0.052,0.016l-0.034,0.062l-0.078,0.042l-0.026-0.047l0.073-0.19l-0.049-0.016l-0.159,0.068l-0.088,0.096v0.096l-0.049,0.034l-0.172-0.044l-0.096,0.049l-0.122-0.003l-0.07,0.031l-0.034,0.073l-0.117,0.109l-0.096,0.042l-0.057,0.06l-0.031-0.016l-0.008-0.062l-0.029-0.003l-0.049,0.083l0.01,0.164l-0.088,0.088l-0.151,0.044l-0.047,0.112l-0.052,0.044l-0.073,0.003l-0.031,0.052l0.003,0.094l0.075,0.026l0.049,0.049l-0.005,0.099l0.047,0.107l-0.068,0.062l-0.109-0.029l-0.078,0.034l0.003,0.13l-0.039,0.133l-0.14,0.078l-0.068-0.026l-0.099,0.031l-0.062,0.099l0.016,0.086l0.044,0.021v0.036l-0.094,0.133l0.016,0.084L1298.792,518.188z M1298.411,514.766l0.047-0.008l0.039-0.083l0.023-0.01l0.018,0.029l0.039-0.013l0.081-0.086l0.088-0.047l0.047-0.101l-0.013-0.055l-0.047,0.01l-0.044,0.107l-0.042,0.016l-0.036-0.018l-0.016-0.029l0.029-0.039l-0.018-0.031l-0.078,0.068l-0.018,0.083l-0.065,0.068l-0.052,0.107L1298.411,514.766z M1302.402,513.398l0.055,0.103l0.101,0.045l0.065-0.033l-0.016-0.085l-0.052-0.035l-0.081,0.01l-0.052-0.033L1302.402,513.398z M1299.302,513.433l0.005,0.081l0.042,0.034l0.094-0.01l0.052-0.096l0.042-0.042l0.057-0.005l0.052-0.055l0.036-0.081l0.179-0.171l0.021-0.07l-0.047-0.047h-0.057l-0.005,0.031l0.042,0.008l0.005,0.047l-0.216,0.218l-0.156,0.127l-0.06,0.083l-0.026-0.01l-0.018-0.073L1299.302,513.433z M1299.128,513.857l0.055,0.018l0.031-0.023l-0.026-0.034l0.016-0.026l0.075-0.005l0.052-0.068l-0.008-0.109l-0.029-0.018l-0.055,0.029l-0.031,0.091l-0.047,0.005l-0.036,0.021l-0.023,0.094L1299.128,513.857z M1298.817,514.213v0.055l0.029,0.016l0.052-0.044l0.016-0.052l0.065-0.049l-0.003-0.034l-0.044-0.013l-0.055,0.081L1298.817,514.213z M1298.962,514.073l0.021-0.021l-0.016-0.049l0.018-0.013h0.034v-0.065l-0.073-0.016l-0.039,0.034l-0.023,0.078l0.018,0.034L1298.962,514.073z M1299.069,513.971l-0.003,0.062l0.029-0.008l0.008-0.075l-0.023-0.036l-0.018,0.021L1299.069,513.971z M1298.988,513.867l0.018,0.029l0.034-0.031l0.003-0.039l-0.029,0.003L1298.988,513.867z M1308.914,509.349l0.031,0.043l0.068,0.018l0.044-0.003l0.086,0.05l0.057,0.06l0.086-0.01l-0.057-0.065l-0.127-0.063l-0.133-0.023l-0.047-0.028L1308.914,509.349z M1309.99,513.28l-0.031,0.054l0.042,0.017l0.052-0.03l0.049-0.127l-0.035-0.037l-0.073,0.013l-0.028,0.05L1309.99,513.28z M1309.889,513.331l0.042-0.033l0.003-0.1l-0.028-0.01l-0.073,0.043l-0.052-0.01l-0.042-0.057l-0.107,0.023l-0.035,0.054l0.004,0.12l0.062,0.054l0.132-0.027l-0.003-0.064l0.042-0.04L1309.889,513.331z M1308.403,512.886l0.017,0.037l0.121-0.003l0.1-0.127v-0.104l-0.035,0.007l-0.004,0.057l-0.028,0.007l-0.045-0.013l-0.055,0.033l-0.014,0.074L1308.403,512.886z M1308.735,512.404l0.055,0.027l0.166-0.003l0.139-0.05l0.024-0.06l-0.059-0.1l0.045-0.06l0.076-0.04l-0.004-0.07l-0.083-0.003l-0.184,0.09l-0.156,0.184L1308.735,512.404z M1303.491,512.617l0.018,0.03l0.104,0.015l0.083-0.04l0.083-0.055l-0.029-0.01l-0.104,0.013L1303.491,512.617z M1304.081,512.557h0.055l0.044-0.045l-0.008-0.045l-0.044-0.008l-0.016,0.035l-0.036,0.015l-0.052-0.013l-0.016,0.028L1304.081,512.557z M1304.52,512.234h0.044l0.016-0.035l-0.003-0.053l-0.042-0.008l-0.044,0.065L1304.52,512.234z M1305.372,512.046l0.062-0.043l-0.003-0.043l-0.047-0.003l-0.044,0.055L1305.372,512.046z M1305.494,511.308l0.031-0.018l-0.003-0.05l-0.044,0.003l-0.013,0.058L1305.494,511.308z M1306.391,511.737l0.117-0.015l0.044-0.035l-0.026-0.03l-0.135,0.01l-0.036,0.035L1306.391,511.737z M1307.427,511.195l0.034-0.01l0.01-0.07l-0.055-0.025l-0.029,0.01l-0.003,0.055L1307.427,511.195z M1308.462,513.899l-0.031,0.13l0.068,0.135l0.073,0.035l0.255-0.11l0.218-0.251l0.12-0.055l0.26-0.376l0.083-0.035l-0.01-0.07l-0.083-0.045l-0.047-0.085l0.036-0.07l-0.036-0.115l-0.099-0.03l-0.208,0.166l-0.13,0.171l-0.12,0.07l-0.083,0.145l-0.062,0.221L1308.462,513.899z M1304.394,514.127l0.045-0.174l0.003-0.09l0.194-0.197h0.104l0.364,0.164l0.028,0.084l0.073,0.003l0.031-0.057l0.059-0.047l0.08-0.003l0.062-0.04l-0.031-0.067l-0.076,0.01l-0.052-0.037l0.017-0.154l0.094-0.1l0.132-0.007l0.069-0.05l0.007-0.084l0.312-0.247l0.284,0.003l0.277,0.124l-0.017,0.107l-0.125,0.05l-0.114,0.144l0.069,0.02l0.107-0.043l0.256-0.03l0.111,0.033h0.118l0.288-0.07l0.083,0.047h0.083l0.17-0.171l0.215-0.067l0.059-0.05l0.055-0.02l0.069,0.03l0.19-0.007l0.295,0.174l0.066-0.023l-0.021-0.077l0.052-0.007l0.066,0.054l0.042-0.007l-0.007-0.087l-0.173-0.137l-0.01-0.06l-0.059-0.04l-0.114,0.01l-0.014-0.037l0.073-0.05l0.201-0.348l0.121-0.258l-0.021-0.064l-0.104,0.003l-0.069,0.08l-0.263,0.097l-0.139,0.144l-0.243,0.194l-0.045,0.151l-0.211,0.127l-0.094,0.141l-0.121,0.04l-0.076,0.074l-0.267,0.057l-0.049-0.013l0.042-0.181l0.107-0.241l0.107-0.074l0.104-0.258l0.232-0.194l0.256-0.1l0.146-0.127l0.139-0.247l0.076-0.064l0.139-0.324l0.419-0.324l0.36-0.191l-0.007-0.05l-0.125,0.007l-0.35,0.177l-0.111,0.02l-0.142,0.084l-0.135-0.013l-0.187,0.04l-0.229-0.074l-0.184,0.023l-0.031,0.114l-0.166,0.047l-0.097-0.04l-0.246,0.094l-0.028,0.084l-0.139,0.03l-0.132,0.09l-0.118,0.14l-0.146,0.057l-0.073,0.104l-0.17,0.1l-0.125-0.05l-0.1,0.017l-0.062-0.023l-0.128,0.027l-0.118,0.094l-0.367,0.067l-0.031,0.05l-0.045,0.007l-0.059-0.027l-0.114,0.017l-0.055,0.047l-0.042-0.013v-0.053l-0.042-0.013l-0.14,0.141l0.005,0.088l-0.236,0.125l-0.112,0.12l-0.095,0.068l-0.052-0.02l-0.038,0.007l-0.015,0.061l-0.143,0.11l-0.029-0.033l-0.026,0.008l-0.01,0.064l-0.045,0.064l-0.159-0.02l-0.052-0.06l-0.055-0.013l-0.052,0.033l-0.042-0.013l0.007-0.047l-0.083-0.057l-0.125,0.03l-0.055,0.08l0.055,0.074l0.083-0.03l0.042,0.01l-0.062,0.137l-0.159,0.013l-0.118,0.117l0.017,0.214l0.069,0.107l0.163-0.074l0.142-0.017l0.107,0.074l-0.014,0.117l0.121,0.157l0.083,0.214l0.139,0.217l0.094,0.017l0.156-0.02L1304.394,514.127z M1311.443,514.218l0.017,0.058l0.055,0.034l0.052-0.014l0.024-0.055l-0.1-0.058L1311.443,514.218z M1310.502,515.128l-0.031,0.052l0.062,0.048l0.1-0.014l0.027-0.045l-0.021-0.048L1310.502,515.128z M1310.56,515.781l-0.048,0.024v0.055l0.055,0.014l0.034-0.055L1310.56,515.781z M1311.921,515.276l0.089-0.031l0.003-0.072l-0.062-0.041l-0.082,0.021l-0.01,0.058L1311.921,515.276z M1311.814,515.963l0.093,0.041l0.089-0.031l0.017-0.096l-0.069-0.076l-0.086,0.007l-0.062,0.093L1311.814,515.963z M1311.203,517.085l0.076,0.076l0.12,0.003l0.083-0.062V517l-0.079-0.065l-0.141,0.003L1311.203,517.085z M1313.181,516.866l0.058-0.031l-0.024-0.106l-0.055-0.048l-0.083,0.024l-0.007,0.065L1313.181,516.866z M1312.274,518.03h0.103l0.021-0.069l-0.038-0.089l-0.082-0.041l-0.069,0.031l-0.014,0.062L1312.274,518.03z M1313.198,518.917l0.01,0.072l0.038,0.021l0.065-0.065l0.106-0.034l0.055-0.093l-0.052-0.103l-0.175-0.041l-0.13,0.062l-0.021,0.127L1313.198,518.917z M1311.954,510.776l0.042-0.013l-0.007-0.03l-0.045-0.01l-0.014,0.03L1311.954,510.776z M1311.502,519.491l0.058-0.01l0.024-0.069l-0.065-0.038l-0.038,0.024l-0.003,0.065L1311.502,519.491z M1314.362,519.713l0.021,0.025l0.062,0.007l0.083-0.052l-0.024-0.038l-0.048,0.007L1314.362,519.713z M1312.544,514.955l0.058,0.068l-0.004,0.058l-0.106,0.121l-0.036,0.165l0.066,0.133l0.044,0.032l0.132,0.01l0.028-0.034l-0.023-0.035l-0.097-0.003l-0.047-0.047l-0.02-0.082l0.061-0.119l0.093-0.041l0.087-0.089l0.012-0.058l-0.089-0.131l-0.34-0.108l-0.038,0.014l-0.004,0.048L1312.544,514.955z M1312.797,514.914l0.031,0.036l0.057-0.026l0.016-0.072l-0.052,0.005L1312.797,514.914z M1313.255,515.305l0.057-0.026l-0.021-0.046l-0.062-0.005l-0.01,0.067L1313.255,515.305z M1312.92,515.661l0.057-0.052l0.005-0.072l-0.067,0.021l-0.041,0.093L1312.92,515.661z M1308.327,520.443l0.083,0.142l0.059-0.021l0.014-0.087l0.052-0.059l-0.014-0.042l-0.073,0.024l-0.01-0.045l0.232-0.114l-0.014-0.069l-0.166-0.014l-0.253,0.104l-0.038,0.073L1308.327,520.443z M1314.355,520.607l0.088-0.016l0.021-0.083l-0.083-0.052l-0.083,0.047l0.006,0.049L1314.355,520.607z M1314.108,522.298l-0.052,0.016l-0.06,0.071l0.01,0.109l0.156,0.104l0.082-0.007l0.026-0.037l-0.009-0.034l-0.062,0.01l-0.12-0.073l-0.021-0.068l0.057-0.052L1314.108,522.298z M1314.744,522.577l0.062-0.036l0.005-0.161l-0.052-0.016l-0.047,0.042l-0.021,0.146L1314.744,522.577z M1314.677,522.769l0.073-0.01l0.036-0.042l-0.036-0.042l-0.073,0.005l-0.036,0.052L1314.677,522.769z M1312.676,521.87l0.088,0.01l0.073-0.12l-0.052-0.161l-0.062-0.031l-0.109,0.073l-0.016,0.114L1312.676,521.87z M1312.941,521.429l0.057-0.068l-0.005-0.062l-0.062,0.005l-0.099,0.104l0.036,0.047L1312.941,521.429z M1313.934,521.366l0.109-0.026l0.01-0.047l-0.255-0.021l-0.04,0.035l0.018,0.036L1313.934,521.366z M1307.873,522.393l-0.042,0.208l0.055,0.076l0.104-0.007l0.069-0.097l-0.042-0.173L1307.873,522.393z M1309.397,521.673l0.09,0.014l0.009,0.057l-0.031,0.073l0.042,0.016l0.089-0.073l0-0.063l-0.039-0.079l-0.201-0.021l-0.09,0.097l-0.031,0.186l0.042,0.047l0.044-0.032l0.021-0.173L1309.397,521.673z M1303.177,521.397l-0.065,0.078l0.013,0.099l0.068,0.026l0.016,0.052l0.042-0.005l0.023-0.065l0.083-0.026l0.021-0.07l-0.057-0.096L1303.177,521.397z M1303.39,521.293l0.047-0.008l0.003-0.044l-0.026-0.018l-0.029,0.013l-0.018,0.031L1303.39,521.293z M1301.316,522.45l0.413,0.047l0.114-0.034l0.125-0.091l0.039,0.023l-0.034,0.094l0.047,0.029l0.101-0.06l0.016-0.104l-0.062-0.031l-0.044-0.065l0.01-0.109l0.07-0.062l0.099,0.018l0.078-0.044l0.003-0.075l0.031-0.036l0.04,0.022l0.058-0.02l0.008-0.055l0.066-0.029l0.062,0.029l0.002,0.062l0.025,0.044h0.066l0.026,0.029l-0.045,0.049l0.036,0.021l0.138,0.016l0.14-0.057l-0.005-0.068l0.031-0.016l0.07,0.06l0.083,0.003l0.094-0.135l-0.029-0.125l-0.075-0.052l-0.073,0.008l-0.044,0.078l-0.026-0.018l0.005-0.075l-0.026-0.034l-0.169-0.052l-0.135-0.003l-0.151,0.047l-0.047,0.068l-0.047,0.018l-0.081-0.018l-0.172,0.045l-0.132,0.08l0.003,0.19l-0.031,0.026l-0.049-0.026l-0.065,0.026l-0.016,0.088l-0.07,0.01l-0.101-0.039l-0.146,0.039l-0.036,0.081l-0.086,0.039l-0.151,0.016l-0.016,0.09L1301.316,522.45z M1301.783,522.558l0.02,0.036l0.043-0.009l0.002-0.045l-0.025-0.031l-0.036,0.013L1301.783,522.558z M1302.085,522.186l-0.016,0.027l0.022,0.034l0.043-0.002l0.022-0.04l-0.058-0.061l-0.02,0.013L1302.085,522.186z M1303.403,521.151l0.016-0.029l-0.01-0.036l-0.021,0.003l-0.008,0.052L1303.403,521.151z M1303.39,520.969l0.008-0.039l-0.023-0.003l-0.023,0.042l0.016,0.026L1303.39,520.969z M1314.446,521.803h0.049v-0.036l-0.047-0.016l-0.036,0.026L1314.446,521.803z M1314.601,521.725l0.029-0.055l-0.01-0.031l-0.042,0.021l-0.018,0.075L1314.601,521.725z M1313.193,521.891l0.026-0.023l-0.008-0.029l-0.034-0.003l-0.021,0.036L1313.193,521.891z M1313.923,520.691l0.052-0.026l-0.013-0.031l-0.081,0.018l-0.023,0.026L1313.923,520.691z M1309.982,512.301l0.047-0.01l0.026-0.033h-0.078l-0.023,0.018L1309.982,512.301z M1298.185,515.608l0.039-0.029l-0.026-0.034l-0.023,0.005l-0.018,0.039L1298.185,515.608z M1298.021,516.388l0.023-0.047l-0.018-0.021l-0.026,0.023l-0.005,0.034L1298.021,516.388z M1297.91,516.463l0.029-0.005l-0.013-0.042l-0.055-0.029l-0.003,0.029L1297.91,516.463z M1298.325,514.914l0.013-0.013l-0.018-0.029l-0.021,0.01l0.005,0.029L1298.325,514.914z M1298.385,514.834l0.029-0.018l-0.013-0.029l-0.026,0.005l-0.01,0.034L1298.385,514.834z M1298.349,514.852l-0.005,0.023l0.026,0.055l0.013-0.021l-0.018-0.042L1298.349,514.852z M1297.811,516.435l0.013,0.029l0.021-0.003l0.01-0.026l-0.018-0.013L1297.811,516.435z M1297.871,516.084l0.021-0.034l-0.005-0.029l-0.023,0.003l-0.008,0.042L1297.871,516.084z M1297.863,515.93l0.026-0.016l0.008-0.036l-0.026-0.008l-0.021,0.026L1297.863,515.93z M1298.309,514.957l0.018,0.007l0.015-0.014l-0.007-0.017l-0.023,0.004L1298.309,514.957z M1299.366,513.361v0.014l0.017,0.012l0.014-0.011l-0.008-0.018L1299.366,513.361z M1299.405,513.586l0.016,0.012l0.037-0.012v-0.022l-0.026-0.003l-0.023,0.007L1299.405,513.586z"/>
</svg>
