<svg xmlns="http://www.w3.org/2000/svg" viewBox="414.079 658.104 13.267 7.116">
  <path d="M424.82,660.493l-0.056,0.069l-0.004,0.169l0.049,0.014l0.021,-0.103l0.039,-0.052l0.056,0.031l-0.014,0.055l0.049,0.059l0.102,0.01l0.053,-0.069l0.053,-0.014l0.148,0.083l0.091,0.124l0.214,0.09l0.025,-0.021l-0.084,-0.103l-0.12,-0.083l0.011,-0.09l0.112,-0.031l0.02,-0.039l-0.031,-0.021l-0.197,0.029l-0.09,-0.02l-0.024,-0.039l0.049,-0.066l-0.018,-0.03l-0.063,0.01l-0.137,0.086l-0.098,-0.069l0.035,-0.152l0.215,-0.136l0.059,-0.081l0.032,-0.145l0.148,-0.114l0.169,0.031l0.496,-0.062l0.211,0.041l0.148,-0.062l0.137,0.01l0.211,0.227l0.032,0.165l0.158,0.165l0.169,0.062l0.063,0.083l-0.042,0.155l-0.376,0.024l-0.436,-0.076l-0.063,-0.103l-0.137,-0.01l-0.063,0.093l-0.369,0.062l0.007,0.062l0.211,0.062l0.141,0.103l0.176,0.028l0.155,-0.021l0.204,0.062h0.155l0.401,0.124l0.034,0.086l-0.024,0.057l-0.309,0.063l-0.043,0.042l0.012,0.062l0.098,0.021l0.148,-0.083l0.176,0.006l0.031,0.039l-0.038,0.058l-0.148,0.021l-0.373,0.227l-0.506,0.076l-0.352,0.041l-0.309,-0.028l-0.229,-0.052v0.032l0.224,0.092l0.271,0.054l0.01,0.02l-0.011,0.026l-0.364,-0.016l-0.111,0.026l0.026,0.036l0.153,0.036l0.111,0.016v0.031l-0.026,0.015 l-0.174,0.005l-0.042,0.088l-0.285,0.16l-0.227,0.078l-0.095,0.145l-0.149,0.015l-0.067,-0.026l-0.095,-0.108l-0.216,-0.026l-0.206,0.057h-0.264l-0.09,-0.047l-0.132,-0.016l-0.1,0.031l-0.137,-0.047l-0.111,-0.083l-0.227,-0.083l-0.142,-0.103l-0.026,-0.134l-0.069,0.01l-0.058,0.155l0.037,0.103l0.285,0.186l0.263,0.109l0.145,0.077l-0.007,0.036l-0.142,-0.047l-0.111,-0.067h-0.132l-0.047,0.026l0.176,0.034l0.193,0.105l0.19,0.021l0.153,-0.026l0.279,0.067l0.047,0.093l-0.009,0.073l0.016,0.028l0.077,0.044l-0.026,0.041l-0.098,-0.019l-0.056,0.034h-0.074l-0.022,0.015l0.008,0.031l0.074,0.021l0.005,0.047l-0.055,0.057l-0.01,0.052l0.065,0.18l-0.037,0.171l-0.056,-0.009l-0.011,-0.062l-0.04,-0.018l-0.025,-0.051l0.033,-0.055l-0.018,-0.069l-0.088,-0.093l-0.049,-0.01l-0.06,0.059l-0.018,-0.024l0.042,-0.074l-0.008,-0.025l-0.068,-0.033l-0.065,0.016l-0.049,-0.021l-0.032,-0.038l-0.067,-0.014l-0.025,0.028l0.025,0.048l-0.039,0.028l-0.13,-0.021l-0.042,-0.038l-0.035,0.017l0.039,0.086l-0.028,0.072l-0.134,0.076l-0.056,0.107l-0.032,-0.01l0.004,-0.072l-0.042,-0.072l-0.004,-0.065l-0.046,-0.028l-0.077,0.131l-0.039,-0.017l-0.042,-0.193l-0.07,-0.086l-0.056,-0.01l-0.053,0.031l-0.074,-0.034l0.004,-0.055l-0.056,-0.024l-0.074,0.048l-0.049,-0.059l-0.007,-0.052l-0.091,-0.038l-0.063,0.031l-0.06,0.055l-0.221,-0.014l-0.032,-0.055l-0.056,-0.007l-0.081,0.072l0.004,0.048l0.074,-0.052l0.042,0.007l0.035,0.038h0.13l0.053,0.028l0.021,0.048l-0.053,0.086l0.035,0.048l0.091,-0.038l0.095,-0.096l0.035,0.01l-0.004,0.048l-0.032,0.024l0.018,0.052l0.112,0.062l-0.018,0.041l-0.098,0.017l-0.056,0.065l0.014,0.024l0.049,-0.028l0.105,0.021l0.127,-0.007l0.014,0.055l-0.084,0.069l-0.112,-0.01l-0.081,0.121l0.025,0.028l0.091,-0.048l0.098,0.034l0.07,-0.062l0.098,0.003l0.056,0.038l-0.014,0.059l-0.183,0.103l-0.049,0.076l0.019,0.045l0.031,0.009l0.067,-0.023l0.098,0.01l-0.004,0.041l-0.053,0.048l0.028,0.079l0.102,0.09l-0.011,0.038l-0.06,-0.014l-0.13,-0.096l-0.07,-0.014l-0.039,0.017l-0.049,-0.007l-0.032,-0.059l-0.105,-0.024l-0.147,-0.077l-0.036,-0.002l-0.032,0.031l-0.007,0.048l-0.053,0.024l-0.063,-0.031l-0.046,-0.121l0.01,-0.056l-0.01,-0.035l-0.073,-0.054l-0.049,0.007l-0.039,-0.052l0.018,-0.069l-0.039,-0.003l-0.077,0.055l-0.086,-0.008l-0.026,-0.027l-0.015,-0.079l-0.042,0.007l-0.01,0.03l-0.02,0.009l-0.047,-0.015l-0.042,-0.093l-0.018,0.031l0.014,0.072l0.039,0.053l-0.011,0.029l-0.039,0.025l-0.039,-0.024l-0.07,-0.114l-0.032,0.031l0.007,0.079l0.053,0.052l0.091,0.05l-0.007,0.043l-0.088,0.021l-0.021,0.065l0.032,0.041l0.047,-0.016l0.011,0.041l-0.063,0.078l0.004,0.028h0.023l0.125,-0.131 l0.053,-0.021l0.131,0.01l0.007,0.02l-0.016,0.032l-0.142,0.036v0.047l0.121,0.031l-0.005,0.078l-0.137,0.085l-0.079,0.031l0.011,0.016l0.134,-0.031l0.045,-0.039l0.047,0.026l-0.005,0.072l-0.058,0.031l-0.084,0.036l-0.016,0.088l0.105,0.083l0.111,0.005l0.053,-0.036l0.037,0.026l-0.058,0.093l-0.153,0.026l-0.199,-0.124l-0.014,-0.096l-0.105,-0.048l-0.141,0.034l-0.049,-0.041l0.056,-0.09l-0.06,-0.121l-0.095,-0.055l-0.179,0.041l-0.06,-0.038l-0.007,-0.052l0.098,-0.114l-0.028,-0.031l-0.12,0.007l-0.091,-0.031l0.018,-0.134l-0.063,-0.062l-0.088,-0.024l-0.183,-0.138l-0.039,-0.083l0.046,-0.096l0.105,-0.021l0.141,0.117l0.116,0.014l0.021,-0.048l-0.109,-0.131l0.042,-0.041l0.105,0.048l0.112,-0.076l-0.035,-0.096l-0.12,-0.021l-0.057,-0.033l-0.09,-0.16l0.049,-0.076l0.232,0.062l0.063,-0.028l-0.141,-0.048l-0.081,-0.083l0.011,-0.038l0.074,0.052l0.07,-0.003l0.137,-0.045l0.02,-0.037l-0.033,-0.026l-0.163,-0.004l-0.082,-0.03l-0.031,-0.076l0.053,-0.124l0.057,-0.02l0.051,0.006l0.063,0.076l0.162,0.041l0.095,-0.032l0.006,-0.03l-0.03,-0.049l-0.096,-0.015l-0.049,-0.036l-0.01,-0.1l0.044,-0.037l0.041,0.002l0.077,0.097l0.056,-0.009l0.016,-0.056l-0.051,-0.079l-0.071,-0.048v-0.08l0.078,-0.037l0.232,-0.034l0.099,0.041l0.057,-0.006l0.055,-0.091l0.007,-0.103l0.056,-0.048l0.098,0.069l0.064,-0.015l0.02,-0.04l-0.022,-0.101l0.023,-0.054l0.19,-0.162l0.073,-0.01l0.137,0.023l0.063,-0.018l0.127,-0.1l0.197,-0.048l0.098,0.041l0.07,0.317l-0.035,0.124l-0.007,0.167l0.022,0.024l0.041,-0.004l0.049,-0.09l0.073,-0.02l0.022,-0.04l0.004,-0.112l-0.063,-0.26l-0.029,-0.03l-0.063,-0.024l-0.008,-0.101l0.07,-0.083l-0.006,-0.048l-0.051,-0.069l-0.197,-0.069l-0.141,-0.124l-0.183,-0.083l0.018,-0.107l0.158,-0.224l-0.007,-0.117l0.042,-0.028l0.07,0.076l0.084,0.293l0.1,0.124l0.047,-0.021l-0.021,-0.129l-0.1,-0.243l0.069,-0.067l0.111,0.01l-0.011,-0.057l-0.269,-0.103l-0.116,0.01l-0.095,-0.083l0.074,-0.155l0.098,-0.053l0.07,-0.006l0.122,0.063h0.058l0.094,-0.087l0.042,-0.124l0.158,-0.041l0.232,0.031l0.106,-0.075l-0.009,-0.09l-0.224,-0.207l-0.169,-0.331l0.026,-0.031l0.195,0.176l0.538,0.222l0.272,0.051h0.141l0.262,-0.139l0.39,0.021l0.337,0.165l0.19,0.227l0.042,0.207l-0.084,0.124l-0.06,0.031l-0.063,-0.031l-0.12,-0.024l-0.162,0.028l-0.081,-0.065l-0.028,-0.169l-0.046,-0.021l-0.021,0.052l-0.025,0.069l-0.039,-0.021v-0.045l0.077,-0.09l-0.007,-0.034l-0.063,0.024l-0.077,0.107l-0.004,0.069l0.067,0.041l0.032,0.096l-0.053,0.034v0.096l0.049,0.034l0.077,-0.096l0.046,0.003l0.011,0.041l0.042,0.017l0.06,-0.041l0.049,0.014l0.07,0.079l-0.007,0.096Z M426.086,660.762l0.105,0.007l-0.021,-0.055l-0.12,-0.028l-0.056,0.034l0.091,0.041Z M426.079,661.92l0.073,-0.004v-0.036l-0.08,-0.022l-0.063,0.021l0.013,0.021l0.057,0.02Z M425.435,662.292l0.058,-0.028l0.053,-0.002l0.007,-0.019l-0.03,-0.021l-0.077,0.021l-0.04,0.031l0.03,0.017Z M424.578,662.75l0.069,0.005l0.058,-0.026l-0.021,-0.036h-0.086l-0.036,0.021 l0.016,0.036Z M423.628,662.569l0.042,0.041l0.063,0.016l0.005,-0.041l-0.058,-0.036l-0.053,0.021Z M424.045,663.597l0.042,0.036l0.021,0.062l0.039,0.007l0.012,-0.02l-0.009,-0.054l-0.053,-0.036l-0.021,-0.072l-0.032,0.01v0.067Z M423.718,663.654l0.042,-0.021l-0.005,-0.047l-0.079,-0.016l-0.021,0.041l0.063,0.041Z M421.472,663.861l0.042,0.01l0.047,-0.078l-0.016,-0.041l-0.058,0.026l-0.016,0.083Z M422.679,663.69l0.026,-0.036l-0.01,-0.041h-0.024l-0.045,0.041 l-0.005,0.047l0.058,-0.01Z M422.651,664.166l0.032,0.017l0.06,-0.024l0.183,0.003l0.295,-0.1l0.07,-0.083l0.005,-0.052l-0.039,-0.044l-0.011,-0.031l0.03,-0.093l0.043,-0.039l0.006,-0.032l-0.014,-0.068l-0.031,0.008l-0.053,0.093l-0.042,0.124l0.014,0.121l-0.012,0.016l-0.093,0.043l-0.074,-0.003l-0.07,0.031l-0.06,0.055l-0.098,-0.003l-0.032,-0.041l-0.06,-0.003l-0.021,0.024l0.028,0.031l-0.021,0.031l-0.035,0.021Z M423.006,665.199l0.021,0.021l0.053,-0.026l0.012,-0.04l-0.023,-0.005l-0.036,0.014l-0.026,0.036Z M422.178,665.199l0.09,-0.005l0.132,-0.072h0.084l0.047,-0.016l-0.013,-0.018l-0.098,-0.028l-0.137,0.005l-0.153,0.052l-0.016,0.057l0.063,0.026Z M424.409,662.509l0.067,0.003l0.021,-0.028l-0.06,-0.04l-0.075,-0.006l-0.008,0.026l0.056,0.044Z M424.627,662.874l0.091,0.003l0.035,-0.024l-0.032,-0.021l-0.053,0.007l-0.1,-0.034l-0.031,0.004l0.004,0.022l0.084,0.042Z M424.328,663.103l0.049,0.022l0.04,0.002l0.026,0.06l-0.016,0.033l0.014,0.033l0.116,0.045l0.044,0.055l0.044,0.005l0.021,-0.033l0.037,0.009l0.004,0.045l-0.076,0.016l-0.009,0.028l0.028,0.026l0.084,0.01l0.063,-0.007l0.009,-0.026l-0.051,-0.031l-0.005,-0.048l0.021,-0.024l0.002,-0.06l-0.037,-0.06l0.011,-0.078l0.037,-0.028l-0.018,-0.031h-0.049l-0.025,-0.026l0.021,-0.044l0.076,0.022l0.005,0.028l0.032,0.014l0.038,-0.032l0.005,-0.096l-0.069,-0.013l-0.013,0.044l-0.069,-0.003l-0.032,-0.044l-0.127,-0.016l-0.034,0.054l-0.174,0.062l-0.038,0.042l0.012,0.045Z M424.965,662.969l0.008,0.028l-0.032,0.008l0.003,0.031h0.108v-0.021l-0.026,-0.01l-0.005,-0.021l0.032,-0.026l-0.016,-0.026l-0.069,-0.003l-0.045,-0.01l-0.013,0.034l0.055,0.016Z M423.887,662.677h0.069l-0.016,-0.036l-0.079,-0.016l-0.037,0.026l0.063,0.026Z M425.031,660.662l0.047,-0.021l-0.005,-0.047h-0.042l-0.037,0.041l0.037,0.026Z M422.356,663.349l0.035,-0.017l-0.014,-0.041l-0.032,0.007l-0.014,0.034l0.025,0.017Z M421.698,664l0.032,-0.017l-0.004,-0.031l-0.039,-0.007l-0.018,0.028l0.028,0.028Z M421.512,664.173l0.035,-0.01l-0.007,-0.028l-0.028,-0.014l-0.025,0.021l0.025,0.031Z M421.477,664.228l0.039,-0.003l0.004,-0.028l-0.032,-0.014l-0.021,0.021l0.011,0.024Z M420.651,664.355l0.053,-0.017l0.011,-0.028l-0.042,-0.028l-0.046,0.031l0.025,0.041Z M425.583,661.987l0.097,0.003l0.028,-0.017l-0.021,-0.021l-0.09,-0.002l-0.054,0.016l0.04,0.021Z M425.332,662.314h0.063l-0.004,-0.019l-0.047,-0.005l-0.018,-0.017l-0.026,0.022l0.032,0.019Z M425.253,662.345l0.058,-0.007l-0.016,-0.022l-0.056,-0.002l-0.019,0.014l0.033,0.017Z M421.97,660.9l0.029,-0.003l-0.008,-0.028l-0.032,-0.021l-0.011,0.023l0.021,0.028Z M421.893,660.91l0.018,-0.023l-0.011,-0.026l-0.029,0.003l-0.011,0.041l0.032,0.005Z M422.344,660.406l0.045,-0.005l0.026,-0.026l-0.029,-0.013l-0.061,0.028l0.018,0.016Z M420.232,661.909l0.021,0.028l0.088,-0.072l0.032,-0.059l-0.032,0.003l-0.109,0.1Z M420.394,661.985l0.077,-0.024l0.148,0.007l0.021,-0.048l-0.004,-0.09l0.053,-0.086h-0.042l-0.116,0.114l-0.13,0.01l-0.049,0.065l0.042,0.052Z M420.753,661.689l0.049,-0.041l0.028,-0.055h-0.039l-0.067,0.079l0.028,0.017Z M420.359,662.798l0.014,-0.024l-0.035,-0.038l-0.039,0.003v0.028l0.06,0.031Z M420.264,662.932l0.032,-0.017l-0.004,-0.034h-0.039l-0.021,0.034l0.032,0.017Z M420.173,663.087l0.046,-0.003l0.004,-0.034l-0.06,-0.024l-0.021,0.031l0.032,0.031Z M419.948,663.401l0.039,-0.014l0.039,-0.059l0.021,-0.107l-0.021,-0.024l-0.07,0.055l-0.032,0.127l0.025,0.021Z M419.547,663.635l0.025,-0.014l0.004,-0.045l-0.049,-0.003l-0.011,0.038l0.032,0.024Z M419.54,663.122l0.018,-0.031l-0.011,-0.038h-0.035l-0.007,0.055l0.035,0.014Z M419.768,663.863l0.035,0.021l0.06,-0.028l0.039,0.003l0.067,0.134l-0.049,0.09l0.018,0.079l-0.042,0.059l0.007,0.152l0.039,0.055l0.039,-0.031l0.007,-0.121h0.074l0.084,-0.072l0.018,-0.096l0.056,-0.038l-0.011,-0.031l-0.053,-0.007l-0.018,-0.052l0.028,-0.114l-0.061,-0.076l-0.039,-0.008l-0.104,0.029l-0.105,-0.017l-0.032,-0.107h-0.049l-0.06,0.103l0.053,0.072Z M419.719,664.779l0.032,-0.017l0.035,0.017l-0.007,0.055l0.06,0.031l0.053,0.003l0.067,-0.096l-0.035,-0.048l0.011,-0.038l0.081,-0.041l0.032,-0.038l-0.011,-0.045l0.025,-0.021l0.084,-0.01l0.007,-0.048l-0.046,-0.017l-0.12,0.045l-0.074,-0.007l-0.049,0.052l0.018,0.093l-0.025,0.034l-0.056,-0.021l-0.074,0.038l-0.042,0.055l0.035,0.024Z M420,664.933l0.095,0.013l0.032,-0.023l0.003,-0.049l0.042,-0.028l0.082,-0.013l0.032,-0.034l-0.026,-0.036l-0.061,-0.005l-0.066,0.057l-0.079,-0.016l-0.084,0.052l-0.008,0.049l0.04,0.034Z M420.182,662.445l0.04,-0.008l0.021,-0.041l-0.016,-0.023l-0.045,0.008l-0.026,0.047l0.026,0.018Z M420.314,662.587l0.024,-0.021l-0.042,-0.036l-0.032,-0.005l-0.005,0.034l0.055,0.028Z M420.351,662.383l0.018,-0.026l-0.016,-0.028l-0.029,0.013v0.034l0.026,0.008Z M420.412,662.308l0.045,0.013l0.053,-0.034l-0.008,-0.044l-0.05,-0.01l-0.05,0.018l-0.016,0.028l0.026,0.028Z M420.058,662.76l-0.047,0.039l0.013,0.034l0.05,-0.003l0.029,0.016l-0.005,0.039l0.032,0.021l0.074,-0.031l0.026,-0.057l-0.055,-0.057l-0.069,-0.008v-0.034l0.045,-0.026l0.016,-0.036l-0.05,-0.028l-0.063,0.016l-0.018,0.083l0.024,0.034Z M414.478,658.269l0.174,0.054l0.016,-0.04l-0.197,-0.145l-0.12,-0.034l-0.028,0.048l0.155,0.117Z M417.487,658.757l0.106,-0.025l-0.029,-0.037h-0.134l-0.077,0.034l0.038,0.018l0.096,0.01Z M416.882,659.486l0.179,0.072l0.058,-0.026l-0.058,-0.093l-0.2,-0.165h-0.069l-0.047,0.083l0.137,0.129Z M417.548,659.81l0.09,0.016l-0.005,-0.047l-0.105,-0.047l-0.047,0.016l0.069,0.062Z M419.288,659.071l0.063,0.016l0.011,-0.031l-0.032,-0.029l-0.053,-0.006l-0.031,0.02l0.042,0.031Z M419.404,659.22l0.105,0.057l0.053,-0.005l-0.053,-0.067l-0.116,-0.052l-0.042,0.021l0.053,0.047Z M419.716,659.37l0.105,0.007l0.076,0.045l0.145,0.041l0.127,-0.026l0.2,0.041l0.074,0.072l0.005,0.072l0.105,0.062l0.111,0.016l0.19,-0.026l0.084,0.031l0.047,-0.016l-0.069,-0.041l-0.021,-0.047l0.055,-0.023l0.125,0.057l0.009,-0.029l-0.1,-0.114l-0.026,-0.093l-0.116,-0.057l-0.153,0.031l-0.063,0.134l-0.09,0.01l-0.047,-0.047l0.018,-0.136l-0.06,-0.05h-0.153l-0.105,0.036l-0.232,-0.031l-0.037,-0.062l-0.095,-0.021l-0.185,0.036l-0.007,0.059l0.081,0.065Z M419.041,659.684l0.169,0.062l0.07,-0.024v-0.062l-0.056,-0.052l0.025,-0.045l0.07,0.017l0.014,-0.034l-0.091,-0.052l-0.038,-0.059l-0.053,-0.041l-0.095,0.01l-0.053,0.041l-0.137,0.017l-0.025,0.045l0.2,0.176Z M414.914,658.372l0.032,0.041l0.098,0.021l0.06,-0.003l-0.011,-0.041l-0.077,-0.034l-0.077,-0.131l-0.109,-0.065l-0.035,0.024l0.06,0.076v0.041l-0.056,0.021l0.021,0.045l0.095,0.007Z M415.642,658.531l0.042,0.059l0.067,0.059l0.046,-0.003l-0.011,-0.045l-0.134,-0.12l-0.032,-0.008l-0.014,0.026l0.035,0.033Z M415.831,658.872l0.081,-0.034l0.014,-0.041l-0.063,-0.024l-0.074,0.031l-0.004,0.069h0.046Z M415.726,659.085l0.088,-0.037l0.028,-0.045h-0.067l-0.193,0.048l-0.063,0.041l0.03,0.011l0.177,-0.018Z M416.165,658.682l0.021,0.021l0.056,-0.024l0.004,-0.034l-0.049,0.01l-0.032,0.028Z M418.501,660.068l0.083,0.033l0.029,-0.004l-0.011,-0.031l-0.097,-0.038l-0.032,0.016l0.029,0.024Z M417.94,659.849l0.06,0.055l-0.021,0.031l-0.063,-0.028l-0.014,0.031l0.116,0.076l0.091,0.01l0.095,-0.065l0.081,-0.01l0.088,0.031l0.162,-0.014l0.172,-0.152l0.134,-0.165l-0.018,-0.028l-0.06,0.003l-0.032,-0.024l0.021,-0.069l-0.074,-0.045l-0.077,-0.014l-0.137,0.055l-0.116,0.01l-0.123,-0.045l-0.077,-0.007l-0.06,-0.038l-0.067,-0.127l-0.109,-0.055l-0.084,0.038v0.079l0.137,0.096l0.109,0.017l0.042,0.021l0.039,0.079l0.229,0.127l0.102,0.01l0.074,0.045l-0.039,0.096l-0.102,0.045l-0.074,-0.024l-0.028,-0.127l-0.158,-0.114l-0.046,0.01l0.014,0.059l-0.056,0.052h-0.081l-0.046,0.038l-0.004,0.034Z M417.279,659.665h0.047l0.005,-0.036l-0.042,-0.026l-0.042,0.021l0.032,0.041Z M416.367,659.716l-0.005,0.088l0.053,0.047l0.063,-0.021l0.039,-0.074v-0.054l-0.06,-0.059l-0.116,-0.041l-0.047,0.041l0.074,0.072Z M416.367,660.347l0.079,0.026v-0.047l-0.105,-0.047l-0.032,0.026l0.058,0.041Z M419.563,659.851l0.074,-0.026l-0.026,-0.041h-0.1l-0.042,0.041l0.095,0.026Z M420.016,660.052l0.111,-0.031l0.026,-0.067l-0.084,-0.047l-0.069,0.016l-0.053,0.072l0.069,0.057Z M420.322,660.037l0.09,0.036h0.069l0.005,-0.062l-0.047,-0.031l-0.111,0.021l-0.005,0.036Z M420.253,659.877l0.095,-0.005l0.132,-0.01l-0.021,-0.052l-0.19,-0.005l-0.037,0.031l0.021,0.041Z M420.111,659.701l0.137,0.047l0.105,-0.052l-0.026,-0.047l-0.084,0.01l-0.137,-0.036l-0.047,0.026l0.053,0.052Z M419.668,659.753l0.026,0.016l0.116,-0.026l0.058,0.031l0.016,0.047l0.058,0.005l0.047,-0.062h0.069l0.09,0.036l0.04,-0.004l-0.015,-0.03l-0.146,-0.065l-0.09,-0.109l-0.09,-0.005l-0.026,0.083l-0.153,0.083Z M417.153,660.771l0.047,-0.005l0.026,-0.047l-0.047,-0.021l-0.063,0.041l0.037,0.031Z M417.432,661.081l0.037,-0.005l-0.058,-0.093l-0.063,-0.01l-0.026,0.041l0.111,0.067Z M417.707,661.163l0.053,-0.005l0.011,-0.041l-0.058,-0.026l-0.053,0.031l0.047,0.041Z M417.068,660.455l0.058,-0.036l-0.016,-0.036l-0.053,0.01l-0.032,0.036l0.042,0.026Z M415.782,660.781l0.063,0.01l0.005,-0.036l-0.069,-0.031l-0.063,0.016l0.063,0.041Z M415.924,660.838l0.021,-0.021l-0.011,-0.052l-0.042,0.005l-0.011,0.052l0.042,0.016Z M416.045,660.864l0.206,0.021l0.074,-0.021l-0.148,-0.078l-0.158,-0.01l-0.016,0.052l0.042,0.036Z M416.441,661.287l0.047,0.031l0.074,-0.057l0.005,-0.052l-0.047,-0.052l-0.005,-0.119l-0.063,-0.078l-0.021,0.047l0.042,0.072l-0.005,0.145l-0.026,0.062Z M417.17,662.14l0.009,0.067l0.04,0.022l0.049,-0.069l-0.028,-0.062l-0.07,-0.041l-0.033,0.041l0.033,0.041Z M417.317,664.01l0.015,0.039l0.12,-0.034l0.032,-0.06l-0.053,-0.009l-0.081,0.028l-0.032,0.036Z M415.595,662.953l0.144,0.054l0.102,-0.004l0.024,-0.053l-0.037,-0.149l-0.053,-0.031l-0.069,0.072l-0.112,0.041v0.069Z M415.585,663.822l0.057,-0.008l0.006,-0.031l-0.023,-0.037l-0.072,0.006l-0.021,0.048l0.053,0.022Z M414.203,661.745l0.039,0.013l0.067,-0.011l0.027,-0.052l-0.008,-0.034l-0.061,-0.014l-0.022,-0.03l0.008,-0.091l0.077,-0.062l0.102,0.011l0.059,-0.011l0.043,-0.028l-0.019,-0.021l-0.108,-0.041l-0.211,0.014l-0.056,0.09l0.007,0.179l0.056,0.088Z M414.196,662.216l0.19,0.09l0.148,-0.021l0.022,-0.052l-0.016,-0.04l-0.102,-0.03l-0.01,-0.038l0.036,-0.047l0.123,0.007l0.039,-0.028l-0.014,-0.044l-0.091,-0.087l-0.066,-0.011l-0.022,0.014l-0.003,0.066l-0.091,0.055l-0.054,-0.006l-0.108,-0.048l-0.029,0.006l-0.069,0.096l0.012,0.03l0.107,0.087Z M415.328,662.884l0.098,-0.041l0.134,-0.124l0.148,-0.034l0.081,-0.137l0.012,-0.075l-0.044,-0.201l0.098,-0.372l-0.042,-0.117l-0.105,-0.014l-0.049,0.062l0.022,0.076l0.055,0.062l-0.028,0.103l-0.239,0.193l-0.153,0.024l-0.069,-0.012l-0.017,-0.047l0.288,-0.193v-0.083l-0.091,-0.083l-0.141,-0.041l-0.084,0.055l-0.07,0.152l-0.063,0.041l-0.112,-0.062l-0.12,0.028l-0.091,0.069l0.028,0.076l0.084,0.021v0.234l0.098,0.131l0.127,0.028l0.105,0.179l0.141,0.103Z M414.66,662.257l0.05,-0.038l-0.028,-0.059h-0.063l-0.014,0.083l0.056,0.014Z M414.597,662.471l0.105,-0.09v-0.069h-0.07l-0.083,0.092l-0.016,0.06l0.063,0.007Z M414.681,662.526l0.063,-0.034l0.021,-0.055l-0.056,-0.014l-0.077,0.076l0.049,0.028Z M415.141,661.893l0.043,-0.028l0.004,-0.035l-0.056,-0.014l-0.084,0.028l-0.01,0.035l0.026,0.024l0.077,-0.01Z M414.766,661.926h0.056v-0.055l-0.063,-0.028l-0.04,0.013l-0.004,0.026l0.051,0.043Z M414.47,661.265l0.042,-0.028l-0.007,-0.055l-0.049,-0.014l-0.021,0.062l0.035,0.034Z M417.211,664.13l0.074,-0.021l-0.026,-0.036l-0.074,0.01l-0.037,0.031l0.063,0.016Z M415.444,663.075l0.053,-0.005l0.026,-0.041l-0.074,-0.021l-0.042,0.036l0.037,0.031Z M416.172,663.685l0.037,-0.021l-0.011,-0.041l-0.047,-0.01l-0.011,0.041l0.032,0.031Z M416.694,664.248l0.09,-0.047l0.032,-0.057l0.301,-0.134l0.037,-0.088l0.053,-0.057l0.137,-0.021l0.021,-0.052l-0.063,-0.016l-0.005,-0.047l0.158,-0.057l0.053,0.031l-0.021,0.057l0.032,0.052l0.121,0.01l0.037,-0.052l0.105,-0.062l0.163,-0.253l0.084,-0.057l0.032,-0.3l0.079,-0.078l0.264,-0.062l0.142,0.031l0.111,-0.016l0.032,-0.062l-0.042,-0.052l0.037,-0.191l0.063,0.005l0.037,0.098l0.069,0.01l0.047,-0.031l0.069,0.016l0.049,0.057l-0.002,0.046l-0.063,0.036l-0.005,0.052h0.127l0.111,-0.046l0.11,-0.096l0.069,-0.034h0.11l0.074,-0.062l-0.011,-0.067l0.058,-0.186l0.1,-0.165l0.211,-0.264l0.111,-0.047l0.295,-0.248l0.116,-0.14l0.158,-0.274l0.163,-0.186l0.127,-0.083l0.074,-0.109l0.058,-0.031l-0.074,0.134v0.062h0.111l0.074,-0.083l0.095,-0.047l0.037,-0.047l-0.011,-0.047l0.174,-0.289l0.2,-0.233l0.206,-0.119l0.121,-0.124h-0.042l-0.205,0.098l-0.048,-0.004l-0.016,-0.079l0.037,-0.062l0.153,-0.021l0.111,-0.078l0.011,-0.036h-0.084l-0.074,-0.041l-0.2,-0.062l-0.23,-0.106l-0.04,-0.078l-0.047,-0.024h-0.095l-0.028,0.031l0.035,0.045l-0.028,0.038l-0.116,-0.031l-0.028,0.024l0.06,0.096l-0.025,0.079l-0.109,0.031l0.025,0.034h0.127l0.169,0.1v0.041l-0.07,0.01l-0.176,0.114l-0.183,-0.014l-0.091,-0.048h-0.053l0.021,0.059l-0.007,0.041l-0.102,-0.024l-0.105,-0.045l0.014,-0.041l0.151,-0.034l0.137,-0.093l0.07,-0.017l0.032,-0.034l-0.018,-0.069l-0.06,-0.01l-0.084,0.09l-0.193,0.117h-0.134l-0.299,0.048l-0.148,0.072l-0.253,-0.017l-0.018,-0.055l0.074,-0.065l0.178,-0.019l0.033,-0.029l-0.021,-0.028l-0.067,-0.031l-0.081,0.024l-0.102,-0.028l-0.162,0.021l-0.088,-0.052l0.007,-0.079l-0.067,-0.034l-0.197,0.062l-0.155,0.127l-0.084,-0.01l-0.007,-0.059l0.046,-0.041l0.004,-0.062l-0.109,-0.014l-0.056,0.038l0.046,0.065l-0.018,0.045h-0.112l-0.075,0.071l-0.016,0.081l0.074,0.065l0.207,-0.007l0.112,0.069l-0.021,0.038l-0.323,0.041l-0.063,0.09l-0.19,0.007l-0.049,-0.034l0.025,-0.062l-0.032,-0.01l-0.134,0.072l-0.193,-0.024l-0.443,-0.231l-0.095,-0.124l-0.443,-0.241l-0.165,-0.024l-0.207,-0.122l-0.063,-0.01l-0.022,0.022l0.109,0.065l-0.02,0.02l-0.039,0.002l-0.077,-0.024l-0.029,0.004l-0.004,0.022l0.095,0.076l0.025,0.09l-0.056,0.038l-0.007,0.055l0.105,0.021l0.046,0.062l0.323,0.103l0.134,-0.055l0.127,0.014l0.232,0.234l-0.056,0.055l-0.288,-0.055l-0.105,0.062l-0.007,0.09l0.232,0.11l0.218,0.138l0.239,0.048l0.091,0.096l0.176,0.041l0.061,0.041l0.037,0.104l0.147,0.128l0.171,0.085l0.148,-0.007l0.187,0.069l0.031,0.041l-0.225,0.007l-0.274,-0.055l-0.19,-0.179h-0.07l-0.035,0.076l-0.176,0.048l-0.197,-0.048l-0.162,0.034l-0.246,0.131h-0.302l-0.127,-0.096l-0.218,-0.083l-0.07,0.055l0.063,0.22l0.26,0.351l0.112,0.055l0.063,-0.048l-0.056,-0.09l0.077,-0.041l0.169,0.021l0.232,-0.124l0.126,0.016l0.037,-0.036l-0.024,-0.092l0.024,-0.068l0.119,-0.027l0.091,0.048h0.134l0.063,-0.069l0.148,-0.028l0.091,0.062l0.014,0.152l-0.07,0.152l-0.169,0.028l-0.162,-0.131l-0.072,-0.003l-0.033,0.051l0.042,0.131l-0.042,0.2l-0.127,0.186l-0.07,-0.048l0.035,-0.186l-0.014,-0.172l-0.042,-0.069l-0.194,0.047l-0.08,0.044l-0.063,0.143l0.077,0.131l0.007,0.158l-0.197,0.282l-0.148,0.021l-0.305,-0.061l-0.039,0.027l0.239,0.069l0.107,0.065l0.086,0.008l0.204,-0.04l0.161,-0.091l0.067,0.012l-0.004,0.044l-0.169,0.151l-0.369,0.062l-0.274,-0.041l-0.169,-0.005l-0.337,-0.083l-0.279,-0.016l-0.037,0.067l0.057,0.12l0.064,0.04l0.079,-0.016l0.169,0.047l-0.021,0.078l-0.213,0.087h-0.108l-0.163,-0.045 l-0.095,0.022l-0.127,0.071l-0.185,-0.041l-0.011,-0.088l-0.079,-0.062l-0.074,0.016l-0.032,0.16l0.025,0.108l0.053,0.036l0.171,0.024l0.065,0.04l0.053,0.116l0.09,0.032l0.17,0.017l0.216,0.186l-0.011,0.093l0.132,0.078l0.206,-0.01v-0.062l-0.105,-0.041l-0.105,-0.109l-0.09,-0.026l-0.121,-0.093l0.026,-0.078l0.09,-0.01l0.243,0.098l0.1,-0.036l0.079,0.026l0.011,0.052l-0.116,0.005l-0.032,0.078l0.248,0.196l-0.005,0.057l-0.069,0.062l0.021,0.103l0.116,0.119l0.09,0.026Z M424.532,660.238l0.032,-0.007l0.004,-0.028l-0.032,-0.017l-0.018,0.031l0.014,0.021Z M420.076,659.877l0.105,0.005l0.012,-0.029l-0.018,-0.016l-0.149,0.01l-0.078,0.02l-0.021,0.028l0.148,-0.019Z M420.276,660.059l0.026,-0.012l-0.011,-0.038l-0.026,-0.007l-0.018,0.026l0.028,0.031Z M419.568,659.727l0.03,0.012l0.023,-0.029l-0.04,-0.038l-0.033,0.021l0.021,0.034Z M419.366,659.841l0.049,-0.016l0.009,-0.029l-0.035,-0.012l-0.044,0.034l0.021,0.022Z M420.182,660.12l0.045,0.013l0.011,-0.028l-0.037,-0.023l-0.026,0.01l0.008,0.028Z M420.222,659.967l0.016,-0.034l0.05,-0.01l0.003,-0.021l-0.069,-0.003l-0.021,0.021v0.054l0.021,-0.008Z "/>
</svg>
