<svg xmlns="http://www.w3.org/2000/svg" viewBox="1151.151 413.007 94.798 23.719">
  <path d="M1215.689,436.682l0.019,-0.017l0.007,-0.033l-0.024,-0.053l-0.055,-0.039h-0.068l-0.001,-0.01 l0.069,-0.008l0.068,0.044l0.03,0.066l-0.007,0.039l-0.026,0.021l-0.046,0.015l-0.003,-0.008l0.036,-0.018Z M1215.581,436.721l-0.006,-0.011l-0.033,-0.002l-0.01,0.011l0.018,0.007l0.031,-0.005Z M1245.904,430.782l0.032,0.006l0.006,-0.017l-0.017,-0.012h-0.026l-0.011,0.01 l0.017,0.014Z M1245.865,430.789l0.007,-0.037l0.026,-0.044l-0.004,-0.068l-0.048,-0.021l-0.091,0.011l-0.055,0.024h-0.021l-0.047,0.033l0.01,0.01l0.019,-0.011l0.014,0.011l-0.014,0.028l-0.065,0.072l-0.065,0.047l-0.061,0.017l-0.024,0.021l-0.003,0.035l0.035,0.064l0.09,0.036h0.065l0.062,-0.037l0.021,0.007l0.007,0.026l0.05,0.03h0.057l0.083,-0.083l0.036,-0.118l-0.008,-0.033l-0.021,-0.006l-0.03,0.008l-0.024,-0.021Z M1237.225,427.552l0.008,-0.012l0.015,-0.003l0.012,0.003l0.006,-0.01l-0.021,-0.015l-0.024,0.007l-0.007,0.033l0.01,-0.003Z M1237.257,427.591l0.003,0.043l0.011,0.01l0.01,-0.014l0.006,-0.021l0.019,-0.019l0.008,-0.024l-0.006,-0.015h-0.026l-0.001,0.011 l0.014,0.015l-0.01,0.011l-0.018,-0.006l-0.01,0.008Z M1233.726,425.899l0.007,0.01h0.025l0.012,-0.014 l-0.006,-0.012h-0.022l-0.017,0.017 Z M1233.74,425.821h0.01l0.007,-0.035 l-0.012,-0.006l-0.008,0.012l0.004,0.028Z M1233.76,425.849l0.007,0.006l0.028,-0.019l0.011,-0.035l-0.006,-0.017h-0.028v0.015l0.014,0.007l-0.008,0.025l-0.018,0.018Z M1224.154,429.183l0.011,-0.016l-0.013,-0.022l-0.022,-0.007l-0.014,0.01l0.009,0.019l0.029,0.015Z M1224.642,428.909l0.003,0.012l0.016,-0.002v-0.012l-0.011,-0.007l-0.008,0.01Z M1224.852,429.16l0.01,-0.014l-0.015,-0.003l-0.023,0.011l-0.006,0.014l0.035,-0.008Z M1228.577,425.141l-0.006,0.024l0.019,0.005l0.016,-0.012l-0.012,-0.019l-0.018,0.002Z M1226.58,424.438l-0.003,0.019l0.011,0.006l0.014,-0.012l-0.007,-0.012h-0.015Z M1228.101,424.6l0.007,0.018h0.011l0.003,-0.019 l-0.012,-0.008l-0.008,0.01Z M1226.542,424.343l0.014,0.006l0.008,-0.006l-0.003,-0.014h-0.014l-0.006,0.014Z M1227.29,425.322l-0.015,-0.007v0.015l0.015,0.021 l0.015,0.003l-0.014,-0.033Z M1226.386,424.28l-0.012,-0.017h-0.012l0.003,0.031 l0.016,0.021l0.014,-0.009l-0.008,-0.025Z M1226.581,424.385l0.016,0.016l0.007,-0.01l-0.017,-0.027h-0.013l0.007,0.021 Z M1226.964,425.629l0.033,0.007l0.024,-0.01l0.017,-0.045l0.028,-0.021l0.068,-0.003l0.035,-0.009l0.031,-0.021l0.047,-0.003l0.023,-0.012l0.059,-0.069l0.007,-0.036l-0.012,-0.014h-0.014l-0.005,0.016l0.002,0.031l-0.063,0.063l-0.043,0.003l-0.047,0.024l-0.087,0.007l-0.043,0.033l-0.012,0.04l-0.021,0.007l-0.021,0.003l-0.005,0.01Z M1228.182,424.629l0.007,-0.019l0.021,-0.005l0.021,-0.024l-0.017,-0.031l-0.017,-0.002l-0.026,0.031l-0.002,0.045l0.014,0.005Z M1228.303,424.679h0.023l0.007,-0.016l-0.017,-0.019h-0.019l-0.01,0.023l0.017,0.012Z M1228.359,424.648l0.021,-0.012l-0.003,-0.019h-0.031l-0.017,0.019l0.012,0.014l0.019,-0.002Z M1228.342,424.849l0.028,-0.012l0.031,-0.087l-0.009,-0.019l-0.019,0.005l-0.045,0.078l-0.007,0.023l0.021,0.012Z M1228.008,424.672l0.042,-0.002l0.023,-0.021l-0.007,-0.016l-0.035,-0.009l-0.033,0.007l-0.007,0.023l0.017,0.017Z M1228.085,424.578l0.014,-0.003l0.007,-0.012l-0.012,-0.009l-0.01,0.009l0.002,0.016Z M1227.739,425.046l0.01,-0.012l-0.005,-0.014h-0.014l-0.007,0.019l0.016,0.007Z M1227.817,425.294l0.01,-0.003l-0.002,-0.014h-0.012l-0.007,0.012l0.01,0.005Z M1227.82,425.391l-0.003,0.012l0.01,0.014l0.009,-0.012l-0.002,-0.017l-0.014,0.003Z M1227.751,425.004l-0.064,-0.021l-0.026,-0.064l0.01,-0.076l0.085,-0.052l0.03,-0.031h0.052l0.04,0.049l0.036,-0.007l0.016,-0.054l-0.035,-0.052l0.014,-0.049l0.036,0.003l0.05,0.045l0.068,0.007l0.016,-0.014l0.026,-0.002l0.045,0.052l0.024,-0.003l0.026,-0.036l0.043,-0.002l0.052,0.045l0.005,0.108l0.028,0.021l0.063,-0.002l0.05,-0.036l0.019,0.01l0.021,0.066l0.01,0.123l0.026,0.028l-0.007,0.028l-0.038,0.024l-0.016,-0.012l-0.016,-0.026l-0.035,-0.003l-0.047,0.038l0.007,0.031l0.04,0.024l0.045,-0.024l0.042,0.003l0.023,0.03l-0.009,0.03h-0.028l-0.026,-0.012l-0.016,0.012v0.042l-0.024,0.059l-0.026,0.01l-0.007,0.028l0.01,0.036l-0.035,0.023l-0.05,-0.01l-0.057,-0.054l-0.035,-0.002l-0.007,0.012l0.019,0.016l-0.014,0.024l-0.113,0.019l-0.066,-0.017l-0.007,-0.047l-0.023,-0.005l-0.023,0.016l-0.099,-0.019l-0.03,-0.052l-0.04,-0.042l-0.002,-0.04l0.017,-0.021l-0.005,-0.028l-0.042,-0.031l0.002,-0.023l0.026,-0.024v-0.066l-0.024,-0.009l-0.035,0.007Z M1216.72,422.259l0.002,-0.011l-0.009,-0.007l-0.01,0.01l0.007,0.012l0.01,-0.005Z M1209.294,428.593l-0.007,0.012l0.02,0.028l0.012,-0.007l-0.003,-0.02l-0.023,-0.013Z M1209.288,428.717l0.011,0.009l0.015,-0.005l0.002,-0.015l-0.015,-0.004l-0.012,0.015Z M1209.181,428.617l-0.016,-0.016l-0.012,0.004l0.006,0.015l0.015,0.007l0.007,-0.01Z M1211.379,430.178h0.015l-0.007,-0.025 l-0.018,-0.01l-0.006,0.017l0.015,0.019Z M1210.557,430.181l-0.012,-0.004l-0.027,0.02v0.015l0.018,-0.007 l0.021,-0.024Z M1210.434,430.345l-0.003,0.019l0.011,0.006l0.014,-0.012l-0.007,-0.012h-0.015Z M1210.744,429.81l0.007,0.008l0.011,-0.003v-0.014l-0.015,-0.003 l-0.003,0.011Z M1210.696,430.227l0.007,0.008l0.011,-0.003v-0.014l-0.015,-0.003 l-0.003,0.011Z M1210.437,430.315l0.003,0.012l0.016,-0.002v-0.012l-0.011,-0.007l-0.008,0.01Z M1210.767,430.231l0.012,-0.009l-0.014,-0.01l-0.024,0.002l0.003,0.014l0.023,0.003Z M1211.711,430.115l0.012,-0.006l0.004,-0.012l-0.008,-0.01l-0.015,0.007l-0.003,0.011l0.01,0.01Z M1210.848,429.742l0.012,0.012l0.049,0.142l-0.01,0.038l-0.017,0.003l-0.012,0.009l0.016,0.01l0.03,-0.012l0.013,-0.039v-0.024l-0.053,-0.137l-0.023,-0.024l-0.017,0.002l-0.003,0.015l0.017,0.004Z M1211.646,430.038l-0.012,0.002l0.004,0.014l0.013,0.007l0.011,-0.005l-0.016,-0.017Z M1211.592,430.214l0.075,-0.01l0.01,-0.007l-0.012,-0.004l-0.083,0.01l-0.01,0.01h0.021Z M1211.711,430.205l0.026,0.004l0.043,-0.012l0.012,-0.026l-0.01,-0.029l-0.018,-0.007l-0.006,0.01l0.006,0.011v0.024l-0.024,0.015 l-0.042,0.004l0.011,0.007Z M1211.444,430.861l0.037,-0.029l0.004,-0.03l-0.024,-0.017l-0.011,0.01v0.022l-0.014,0.028l-0.026,0.007l-0.006,0.01h0.039Z M1211.128,430.991l0.014,0.01h0.03l0.047,-0.018 l0.042,-0.008l0.036,-0.021l0.008,-0.024l0.075,-0.058l-0.012,-0.003l-0.071,0.048l-0.021,0.03l-0.058,0.014l-0.057,0.022l-0.026,-0.004l-0.007,0.011Z M1211.098,430.984h0.011l0.003,-0.011 l-0.012,-0.007l-0.006,0.008l0.004,0.01Z M1204.603,423.432l-0.028,-0.007l-0.008,0.051l0.025,0.038l0.033,-0.003l0.013,-0.04l-0.035,-0.039Z M1207.74,424.994l0.005,0.018l0.026,0.005l0.026,-0.016v-0.018l-0.031,-0.005l-0.026,0.016Z M1203.829,423.298v-0.028l-0.021,-0.021 l-0.027,0.011v0.021l0.034,0.023 l0.014,-0.006Z M1207.189,424.659l0.014,-0.013l-0.009,-0.024l-0.021,-0.01l-0.015,0.007l0.005,0.02l0.026,0.02Z M1204.605,423.271l0.002,0.015l0.024,-0.011l0.007,-0.02l-0.017,-0.003l-0.016,0.018Z M1203.698,423.772l0.019,-0.007l-0.01,-0.014h-0.029l-0.007,0.015l0.026,0.006Z M1204.597,424.19l-0.002,-0.024h-0.012l-0.005,0.016 l0.009,0.015l0.01,-0.007Z M1205.054,423.712l-0.003,0.019l0.01,0.005l0.011,-0.014l-0.007,-0.013l-0.012,0.004Z M1204.91,422.68l0.007,0.008l0.011,-0.003v-0.014l-0.015,-0.003 l-0.003,0.011Z M1205.018,423.759l-0.005,0.011l0.014,0.009l0.008,-0.01l-0.004,-0.012l-0.013,0.002Z M1204.927,422.624l0.014,0.006l0.008,-0.006l-0.003,-0.014h-0.014l-0.006,0.014Z M1204.987,423.829v0.013l0.014,0.003 l0.009,-0.016l-0.009,-0.009l-0.015,0.009Z M1204.163,422.06l-0.005,0.012l0.01,0.009l0.016,-0.01l-0.003,-0.012l-0.017,0.002Z M1204.626,424.027l-0.012,0.002l0.004,0.014l0.013,0.007l0.011,-0.005l-0.016,-0.017Z M1204.378,423.491l0.016,0.032l0.013,-0.006l-0.006,-0.041l-0.014,-0.018l-0.012,0.004l0.004,0.03Z M1204.825,422.36h0.015l-0.004,-0.016 l-0.02,-0.014l-0.006,0.013l0.015,0.017Z M1203.823,423.081l0.019,-0.003l0.003,-0.014l-0.016,-0.01h-0.029l-0.007,0.014l0.029,0.014Z M1204.066,423.169l0.014,0.005l0.007,-0.01v-0.022l-0.015,-0.002 l-0.009,0.016l0.003,0.013Z M1207.647,425.221l0.01,-0.014l-0.015,-0.003l-0.023,0.011l-0.006,0.014l0.035,-0.008Z M1204.236,423.334l0.009,-0.019l-0.007,-0.01l-0.025,0.018l-0.011,0.024l0.015,0.007l0.018,-0.02Z M1204.617,422.79l-0.009,-0.01h-0.013l-0.006,0.011 l0.012,0.012h0.011l0.006,-0.014 Z M1204.939,424.654l0.022,-0.006l-0.006,-0.011h-0.032l-0.007,0.012 l0.022,0.004Z M1203.259,423.325l0.012,-0.006l0.004,-0.012l-0.008,-0.01l-0.015,0.007l-0.003,0.011l0.01,0.01Z M1204.243,423.276l0.014,0.003l0.035,-0.019l0.007,-0.012l-0.024,-0.028l-0.026,0.007l-0.003,0.019l0.007,0.014l-0.009,0.016Z M1203.946,423.208l0.021,-0.014l0.023,-0.002l0.014,0.021l0.033,0.012l0.03,-0.007l0.012,-0.012l-0.014,-0.019l-0.057,-0.021l-0.023,-0.038l-0.019,-0.005l-0.016,0.017l-0.002,0.035l-0.012,0.028l0.01,0.005Z M1204.391,423.285l0.038,0.026l0.021,0.028l-0.003,0.063l0.007,0.026l0.035,-0.002l0.007,-0.017l-0.003,-0.099l0.01,-0.035l-0.01,-0.023l-0.05,-0.014l-0.028,-0.019l-0.03,0.002l-0.017,0.021l0.024,0.043Z M1204.14,423.253l0.014,-0.01l-0.005,-0.014l-0.012,0.003l-0.007,0.012l0.01,0.009Z M1204.594,423.239l0.026,-0.017l0.036,-0.007l0.026,-0.023l-0.021,-0.04l-0.023,-0.007l-0.033,0.003l-0.045,-0.012l-0.024,0.019l-0.007,0.064l0.03,0.023l0.035,-0.003Z M1204.479,423.061l0.031,-0.024l0.025,-0.007l0.016,-0.014l-0.007,-0.021l0.009,-0.021l0.052,-0.03l0.054,-0.002l0.023,-0.016l-0.009,-0.016h-0.043l-0.028,-0.026l-0.059,-0.009l-0.03,-0.021h-0.045l-0.033,0.03l-0.002,0.078l0.023,0.096l0.023,0.002Z M1203.435,423.354l0.03,0.023l0.043,0.01l0.049,-0.016l0.005,-0.03l0.035,-0.052l0.01,-0.002l-0.009,0.057l-0.017,0.03l0.003,0.028l0.023,0.009l0.089,-0.038l0.005,-0.017l-0.028,-0.05l-0.021,-0.019l0.002,-0.01l0.038,0.021l0.017,-0.009l-0.009,-0.068l-0.045,-0.033l-0.04,-0.012l-0.036,-0.052l-0.031,0.002l-0.01,0.028l0.016,0.026l-0.014,0.005l-0.033,-0.019h-0.024l-0.026,0.028v0.026l0.03,0.024l0.035,-0.005l0.012,-0.028l0.038,-0.007l0.031,0.026v0.028l-0.078,0.045l-0.116,0.028l-0.003,0.021l0.031,0.003Z M1204.686,424.065l0.036,0.003l0.021,-0.009l0.017,-0.017l-0.017,-0.002l-0.026,0.012l-0.04,-0.009l-0.012,0.009l0.021,0.012Z M1204.79,424.02l0.076,-0.054l0.003,-0.014l-0.016,0.002l-0.063,0.042l-0.01,0.021l0.009,0.003Z M1204.948,423.915l0.023,-0.01l0.026,-0.021l-0.002,-0.019l-0.012,0.003l-0.016,0.017l-0.036,0.028l0.017,0.002Z M1202.538,418.75l0.006,-0.007l-0.005,-0.043l-0.01,-0.005l-0.004,0.008l0.006,0.038l0.008,0.01Z M1205.099,418.555l0.007,0.024l0.015,-0.003l0.007,-0.022l-0.015,-0.011l-0.014,0.012Z M1204.028,419.155l-0.003,0.019l0.011,0.006l0.014,-0.012l-0.007,-0.012h-0.015Z M1204.208,419.076v-0.015l-0.016,0.004 l-0.014,0.02l0.013,0.006l0.017,-0.015Z M1206.249,418.163l-0.018,-0.004l-0.007,0.015l0.006,0.023h0.015l0.01,-0.017l-0.006,-0.018Z M1205.86,418.502l0.023,0.002l0.011,-0.006l-0.012,-0.012l-0.024,-0.002l-0.008,0.009l0.01,0.008Z M1204.657,418.692l0.044,-0.029l-0.01,-0.013l-0.068,0.023l-0.01,0.026l0.044,-0.008Z M1196.383,418.653l0.021,0.005l0.023,-0.016l-0.016,-0.036l0.01,-0.034l0.05,-0.063h-0.021l-0.076,0.063l-0.008,0.042l0.016,0.039Z M1198.823,417.979l0.004,-0.008l-0.007,-0.028l-0.011,-0.003l-0.003,0.009l0.007,0.022l0.01,0.008Z M1197.803,417.252l0.019,-0.014l-0.006,-0.011l-0.017,0.004l-0.008,0.015l0.011,0.006Z M1198.636,417.784l-0.007,0.01l0.012,0.007l0.014,-0.004l0.004,-0.011h-0.023Z M1198.04,417.105l0.019,-0.009l-0.01,-0.012l-0.026,-0.004l-0.008,0.011l0.025,0.014Z M1199.119,418.661h0.017l-0.005,-0.013 l-0.021,-0.015l-0.015,0.002l0.024,0.026Z M1195.383,422.523l0.032,0.014h0.034l-0.006,-0.013 l-0.041,-0.019h-0.027l0.007,0.018 Z M1195.467,422.147l-0.003,-0.019l-0.014,-0.003l-0.01,0.016v0.029l0.014,0.007 l0.014,-0.029Z M1194.579,423.234l0.034,-0.034l0.003,-0.034l-0.026,-0.013l-0.021,0.018l-0.005,0.05l0.016,0.013Z M1194.535,423.185l0.016,-0.018l-0.013,-0.029l-0.044,-0.008l-0.013,0.018l0.021,0.023l0.034,0.013Z M1194.968,425.76l0.023,-0.039l0.01,-0.057l-0.01,-0.023l-0.029,0.003l-0.018,0.021l0.003,0.089l0.021,0.008Z M1188.807,420.466l0.007,0.008l0.011,-0.003v-0.014l-0.015,-0.003 l-0.003,0.011Z M1185.415,420.546l0.007,0.008l0.011,-0.003v-0.014l-0.015,-0.003 l-0.003,0.011Z M1183.354,422.672l-0.018,0.005l0.002,0.017l0.017,0.018l0.013,-0.008v-0.019l-0.014,-0.013 Z M1184.134,422.873h-0.018l-0.004,0.015 l0.01,0.022l0.015,-0.003l0.007,-0.018l-0.009,-0.017Z M1183.924,422.662l0.012,0.006l0.012,-0.005l0.002,-0.013l-0.015,-0.007l-0.01,0.005v0.014h-0.001Z M1186.532,423.208l0.044,-0.026l0.005,-0.021l-0.031,-0.008l-0.031,0.01l-0.01,0.039l0.023,0.005Z M1182.261,421.976l0.024,0.014l0.014,-0.024l-0.018,-0.011l-0.021,0.005v0.017Z M1180.433,416.143v0.018l0.018,0.003l0.008,-0.018l-0.01,-0.01l-0.016,0.008Z M1177.259,418.555l0.007,-0.012l-0.012,-0.007l-0.012,0.005v0.014h0.017Z M1177.188,418.519l0.016,0.003l0.01,-0.012l-0.01,-0.012l-0.016,0.005v0.016Z M1177.229,418.597l0.014,-0.01l-0.005,-0.012l-0.019,0.005l-0.003,0.014l0.014,0.003Z M1174.682,423.294l0.007,0.018h0.011l0.003,-0.019 l-0.012,-0.008l-0.008,0.01Z M1174.666,423.119l-0.012,0.018l0.014,0.005l0.024,-0.01v-0.014l-0.027,0 Z M1171.858,425.711h0.01l0.007,-0.01 l-0.014,-0.007l-0.01,0.006l0.007,0.011Z M1176.942,423.618l0.004,-0.011l-0.01,-0.006l-0.01,0.008l0.003,0.011l0.012,-0.003Z M1171.694,425.642l0.004,-0.011l-0.01,-0.006l-0.01,0.008l0.003,0.011l0.012,-0.003Z M1176.991,423.63l0.021,-0.003l-0.005,-0.026l-0.018,-0.023l-0.013,-0.029l-0.029,-0.005v0.021l0.018,0.016l0.008,0.029l0.018,0.021Z M1174.735,423.134l0.021,0.003l0.004,-0.011l-0.021,-0.011l-0.018,0.006v0.01l0.014,0.004Z M1174.781,423.167l0.011,-0.004l-0.003,-0.011l-0.012,-0.003l-0.007,0.011l0.011,0.007Z M1174.824,423.195l0.018,-0.003l0.017,-0.01l-0.011,-0.006l-0.029,0.003l-0.01,0.01l0.015,0.006Z M1174.875,423.152l0.018,-0.008l-0.003,-0.017h-0.012l-0.011,0.015 l0.008,0.01Z M1174.941,423.147l0.021,0.033v0.021l-0.008,0.021 v0.017l0.011,-0.003l0.014,-0.042v-0.021l-0.012,-0.019 l0.006,-0.036l-0.015,-0.021h-0.018l-0.015,0.026 l0.003,0.018l0.015,0.006Z M1161.765,420.226l0.007,0.008l0.011,-0.003v-0.014l-0.015,-0.003 l-0.003,0.011Z M1161.675,420.201l-0.007,0.01l0.012,0.007l0.014,-0.004l0.004,-0.011h-0.023Z M1161.925,420.333l0.016,0.032l0.013,-0.006l-0.006,-0.041l-0.014,-0.018l-0.012,0.004l0.004,0.03Z M1162.43,414.266l0.021,0.012l0.033,-0.019l0.026,-0.033l-0.015,-0.019l-0.035,0.006l-0.03,0.054Z M1159.69,413.251l0.014,-0.007l-0.019,-0.019h-0.021l0.003,0.017l0.023,0.009Z M1159.561,413.037v0.014l0.012,0.011 l0.02,0.002v-0.013l-0.013,-0.011 l-0.019,-0.003Z M1159.897,413.624l-0.005,-0.008l-0.027,-0.008l-0.008,0.008l0.006,0.007l0.023,0.005l0.012,-0.004Z M1159.314,413.051v0.014l0.014,0.008l0.012,-0.008l-0.007,-0.014h-0.019Z M1159.417,413.851l0.007,0.018h0.011l0.003,-0.019 l-0.012,-0.008l-0.008,0.01Z M1159.121,413.327l0.007,0.008l0.011,-0.003v-0.014l-0.015,-0.003 l-0.003,0.011Z M1160.178,413.61l0.003,0.012l0.016,-0.002v-0.012l-0.011,-0.007l-0.008,0.01Z M1159.37,413.551l0.003,0.012l0.016,-0.002v-0.012l-0.011,-0.007l-0.008,0.01Z M1160.196,413.556l0.014,0.006l0.008,-0.006l-0.003,-0.014h-0.014l-0.006,0.014Z M1159.45,413.007l-0.007,0.01l0.012,0.007l0.014,-0.004l0.004,-0.011h-0.023Z M1159.753,413.266l-0.005,0.031l0.021,0.013l0.034,-0.013v-0.023l-0.023,-0.013l-0.026,0.005Z M1159.981,413.667l0.022,0.006v-0.012l-0.028,-0.015 l-0.012,0.006l0.017,0.015Z M1159.372,413.784l0.007,-0.012l-0.012,-0.007l-0.012,0.005v0.014h0.017Z M1159.021,413.18h0.01l0.007,-0.01 l-0.014,-0.007l-0.01,0.006l0.007,0.011Z M1158.979,413.204l0.004,-0.011l-0.01,-0.006l-0.01,0.008l0.003,0.011l0.012,-0.003Z M1159.086,413.183l0.014,-0.009l-0.007,-0.014l-0.016,0.005l-0.007,0.012l0.016,0.005Z M1159.169,413.394l-0.005,-0.019h-0.012l-0.005,0.014l0.009,0.017l0.014,-0.012Z M1159.281,413.722l0.003,-0.017l0.009,-0.021l0.017,-0.022l-0.007,-0.003l-0.026,0.019l-0.012,0.028l0.005,0.023l0.01,-0.005Z M1151.168,419.839l0.007,-0.012l-0.012,-0.007l-0.012,0.005v0.014h0.017Z M1153.342,415.565l0.03,-0.002l0.026,-0.035v-0.04l0.021,-0.056l0.056,-0.026l0.064,-0.064l0.036,-0.003l0.023,-0.019l0.005,-0.118l0.021,-0.035l0.014,0.005l0.021,0.099l0.047,0.024l0.036,-0.012l0.014,-0.023l0.068,-0.033l0.021,-0.021l-0.002,-0.035l0.024,-0.026l0.009,-0.047l-0.014,-0.019l-0.028,-0.002l-0.043,0.042l-0.026,-0.007l0.002,-0.057l0.024,-0.038l0.012,-0.057l-0.023,-0.059l-0.03,0.003l-0.063,0.092l-0.024,0.08l-0.023,0.002l-0.003,-0.066l-0.021,-0.021l-0.056,0.016l-0.054,0.116l-0.066,0.089l-0.021,0.064l-0.057,0.078l-0.007,0.057l-0.023,0.031l-0.005,0.096l0.014,0.026Z M1153.712,414.922l0.016,-0.014l0.003,-0.052l-0.021,-0.035h-0.028l-0.017,0.028l0.009,0.036l0.038,0.036Z "/>
</svg>
