<svg xmlns="http://www.w3.org/2000/svg" viewBox="612.968 182.805 5.403 5.691">
  <path d="M613.230838,184.409054l0.162829,-0.007028l0.18708,0.119472l-0.038109,0.031625l-0.159365,-0.024597l-0.1559,0.007028l-0.12472,-0.028111l-0.079682,0.024597l-0.055431,-0.017569l0.263298,-0.105416Z M615.557133,187.200578l0.07592,0.067203l-0.006902,0.023801l-0.035889,0.016801l0.006902,0.036402l0.067448,0.029978l0.008472,0.016224l-0.018865,0.052296l0.032912,0.04041l0.060492,0.017899l0.044172,0.039202l0.008282,0.057402l0.073159,0.063003l0.084121,0.047382l0.027716,0.04568l-0.051967,0.105416l0.132001,0.194938l0.359951,0.24254l0.03118,0.076427l0.23385,0.118593l0.09354,0.005271l0.033778,-0.055343l-0.036377,-0.089604l-0.054565,-0.023719l-0.01559,-0.026354l0.01559,-0.050073l-0.020787,-0.037774l-0.086611,0.003514l-0.010393,-0.042166l0.03118,-0.024597l-0.038109,-0.042166l-0.145507,0.038653l-0.020787,0.056222l-0.041573,-0.024597v-0.049194l-0.070642,-0.05043l-0.07592,-0.015401l-0.006739,-0.022895l0.205268,0.028989l0.09354,-0.059736l0.135113,-0.042166l-0.020787,-0.035139l-0.103933,0.003514l-0.103933,-0.049194l0.019054,-0.026354l0.095272,0.008785l0.032912,-0.015812l-0.03118,-0.049194l-0.012126,-0.054465l-0.06236,-0.012299l-0.097004,-0.005271l-0.04677,-0.028111l-0.043306,0.007028l-0.019054,-0.021083l0.038109,-0.015812l-0.005197,-0.028111l-0.131649,-0.068521l0.008174,-0.023774l0.030368,0.0056l0.172546,0.096604l0.097248,-0.001126l0.058896,-0.052708l-0.024251,-0.035139l-0.051967,-0.003514l-0.020787,-0.031625l0.048502,-0.035139l-0.027716,-0.038653l-0.12472,-0.028111l-0.083147,0.024597l-0.083147,-0.028111l-0.055431,-0.080819l-0.18708,-0.007028l-0.157903,0.030362l-0.040031,-0.039202l0.015184,-0.015401l0.067638,-0.012601l0.075271,-0.065062l0.102201,-0.052708l-0.017322,-0.017569l-0.088343,0.021083l-0.065824,-0.003514l-0.001732,-0.031625l0.121256,-0.042166l-0.013858,-0.042166l-0.09354,-0.021083l-0.190545,0.017569l-0.027716,0.021083l0.020787,0.042166l-0.020787,0.021083l-0.042791,0.011502l-0.024847,0.039202Z M616.071684,186.373309l0.055431,0.066764l0.107398,0.059736h0.097004l0.024251,-0.052708 l-0.072753,-0.122986l-0.100469,-0.038653l-0.076218,0.024597l-0.034644,0.06325Z M616.431987,186.752807l0.011341,0.096357l0.026227,0.023801l0.062116,0.0028l0.023466,-0.025201l-0.027607,-0.072803l-0.071779,-0.047602l-0.023764,0.022648Z M618.075,183.224001l0.07795,0.031625l0.174088,-0.06325l0.044172,-0.068521l-0.04677,-0.039531l-0.07795,0.031625l-0.051967,-0.018448l0.012992,-0.026354l-0.023385,-0.039531l-0.057163,-0.002635l-0.059762,0.03426l-0.012992,0.118593l0.020787,0.042166Z M617.758004,183.534978l0.083147,0.057979l0.005197,0.055343l0.020787,0.076427l0.054565,0.002635l0.179285,-0.050073l0.03118,-0.100145v-0.036896l-0.088343,-0.044802l0.012992,-0.026354l0.085745,-0.007906l0.064958,0.021083l0.041573,-0.013177v-0.057979l-0.041573,-0.044802l-0.070155,-0.007906l-0.033778,-0.044802l-0.098737,0.007906l-0.054565,0.110687l-0.038975,0.023719l-0.049368,-0.018448l-0.064958,0.015812l-0.036377,0.047437l-0.002598,0.03426Z M615.528632,185.066148l-0.01559,0.026354l0.049368,0.03426l0.072753,0.015812l0.054565,0.036896l0.023385,0.036896l0.025983,-0.018448l-0.049368,-0.076427l-0.09354,-0.047437l-0.067557,-0.007906Z M615.866416,185.30597l0.090942,0.071156l0.059762,0.071156l0.054565,0.010542l0.012992,-0.031625l-0.070155,-0.110687l-0.07795,-0.068521l-0.098737,-0.021083l-0.036377,0.018448l0.005197,0.036896l0.059762,0.023719Z M616.760811,184.985686l0.026227,0.063003l-0.012423,0.102204l0.012423,0.043402l0.060736,0.018201l0.057975,0.075603v0.047602l0.030368,0.032201l0.085583,-0.050402l-0.004141,-0.057402l-0.052454,-0.049002l-0.008282,-0.064403l-0.041411,-0.049002l-0.049693,-0.015401l-0.031748,-0.035001l-0.011043,-0.065803l-0.078681,-0.044802l-0.016564,0.021001l0.033129,0.028001Z M613.949007,184.59927l-0.059356,-0.0028l-0.031748,0.013754l-0.002598,0.031625l0.103365,-0.000576l0.02915,-0.020507l-0.038813,-0.021495Z M615.783269,185.614312l0.06236,0.092239v0.060614l0.090942,0.16076l-0.01559,0.044802l0.090942,0.123864l0.041573,-0.002635l0.002598,-0.050073l0.116925,-0.03426l0.041573,0.015812l0.049368,0.042166l0.03118,-0.010542l-0.018188,-0.039531l0.028582,-0.018448l0.098737,0.039531l0.057163,0.076427l0.010393,0.100145l0.12472,0.144947l0.064958,0.031625l0.064958,0.076427l0.064958,-0.002635l0.049368,-0.050073l-0.007795,-0.073791l-0.027247,-0.040885l0.012992,-0.026354l0.042837,-0.017094l-0.012992,-0.076427l-0.041573,-0.010542l-0.010393,-0.023719l0.09354,-0.039531l0.051967,-0.057979l-0.033778,-0.036896l-0.070155,-0.002635l-0.072753,-0.115958l-0.085745,-0.06325l-0.075352,0.002635l-0.228653,-0.086968l-0.03118,-0.052708l-0.116925,-0.052708l-0.14031,0.005271l-0.098737,-0.060614l-0.103933,-0.005271l-0.135113,-0.031625l-0.020787,0.028989l0.054565,0.036896Z M616.279551,183.077297l0.003464,0.06325l0.100469,0.168666l0.079682,0.056222l0.159365,0.186235l-0.017322,0.087847l0.013858,0.080819l0.097004,0.06325l0.097004,0.017569l0.041573,-0.042166l-0.010393,-0.101902l-0.069289,-0.042166l-0.065824,-0.070277l-0.006929,-0.06325l-0.221725,-0.277596l-0.069289,-0.189749l-0.09354,-0.084333h-0.06236l-0.013858,0.070277l0.038109,0.077305Z M616.69182,183.305698l0.097004,0.084333l0.038109,0.144069l0.142042,0.098388l0.09354,0.003514l0.017322,-0.056222l-0.055431,-0.203805l-0.043306,-0.079062l-0.071021,-0.054465l-0.069289,-0.112444l0.006929,-0.04568l-0.020787,-0.084333l-0.100469,-0.056222l-0.06236,0.038653l-0.017322,0.168666l0.045038,0.15461Z M617.242667,182.97188l0.017322,0.049194l-0.038109,0.049194l0.017322,0.080819l0.048502,0.031625l0.055431,0.147583l0.048502,0.077305l0.266762,0.077305l0.051967,-0.014055l-0.003464,-0.038653l0.086611,-0.070277l-0.006929,-0.056222l-0.100469,-0.070277l-0.086611,0.010542l-0.017322,0.080819l-0.038109,0.003514v-0.10893l-0.024251,-0.06325l-0.069289,-0.035139l-0.058896,-0.080819l-0.027716,-0.140555l-0.090076,-0.084333l-0.100469,-0.014055l-0.079682,0.042166l-0.006929,0.056222l0.1559,0.070277Z M613.818928,184.388849l0.142908,0.139676l0.28062,0.068521l0.130323,0.058226l-0.016564,0.015401l-0.110429,-0.028001l-0.151434,-0.027178l-0.080548,0.010542l-0.007795,0.03426l0.067557,0.050073l0.025983,0.042166l0.207867,0.03426l0.038975,0.03426l0.20267,0.039531l0.111728,0.084333l0.127318,0.013177l0.197473,-0.065885l0.01559,-0.023719l-0.041573,-0.031625l-0.101335,-0.021083v-0.021083l0.080548,0.007906l0.023385,-0.039531h0.025983l0.005197,0.028989l0.080548,0.03426l0.166293,-0.013177l0.033778,-0.044802l-0.012992,-0.055343l0.020787,-0.031625l0.049368,-0.023719l0.007795,-0.047437l-0.036377,-0.079062l-0.09354,-0.042166h-0.163695l-0.127318,-0.071156l-0.033778,-0.073791l-0.06236,-0.044802l-0.083147,-0.015812l-0.09354,-0.065885l0.012992,-0.052708l-0.038975,-0.018448l-0.26503,0.094875l-0.051967,-0.010542l-0.041573,0.018448l0.01559,0.042166l-0.051967,0.055343l-0.122122,-0.007906l-0.049368,-0.050073l-0.174088,-0.06325l-0.064958,0.036896l0.005197,0.126499Z M617.06598,183.256504l0.03118,0.101902l-0.017322,0.121229l0.010393,0.047437l0.032912,0.02284l0.01559,0.065007l-0.050234,0.068521l0.005197,0.049194l-0.019054,-0.003514l-0.01559,-0.04041l-0.055431,-0.012299l-0.045038,0.010542l-0.013858,0.028111l0.029448,0.101902l0.058896,0.050951l0.065824,0.098388l0.072753,0.056222l0.051967,0.068521l0.048502,0.024597l0.041573,-0.015812l0.001732,-0.036896l-0.034644,-0.036896l-0.03118,-0.050951l-0.010393,-0.068521l-0.039841,-0.04568l-0.029448,-0.059736l0.029448,-0.008785l0.038109,0.015812l0.069289,0.119472l0.105666,0.093118l0.060628,0.033382l0.142042,0.005271l0.045038,-0.029868l-0.001732,-0.031625l-0.041573,-0.031625v-0.02284l0.027716,-0.031625l-0.006929,-0.049194l-0.045038,-0.02284l-0.081414,-0.001757l-0.095272,-0.052708l-0.09354,-0.098388l-0.020787,-0.056222l0.012126,-0.015812l0.04677,0.019326l0.04677,0.057979l0.128185,0.066764l0.121256,-0.017569l0.04677,-0.04041l0.024251,-0.080819l-0.029448,-0.036896l-0.057163,-0.005271l-0.100469,-0.047437l-0.136846,-0.035139l-0.058896,-0.054465l0.005197,-0.059736l-0.029448,-0.054465l-0.025983,-0.010542l-0.143775,-0.186235l-0.006929,-0.08609l-0.017322,-0.031625l-0.058896,-0.017569l-0.045038,0.021083l-0.029448,0.084333l0.001732,0.073791l0.071021,0.082576Z M615.150142,183.36192h0.055431l0.051967,0.035139l0.103933,0.214346l0.013858,0.066764l0.142042,0.140555l0.055431,0.119472l0.051967,0.052708l0.072753,0.024597l0.121256,0.119472l0.048502,0.017569l0.107398,-0.007028l0.090076,0.052708l0.058896,0.101902l0.069289,0.056222l0.128185,0.070277l0.097004,0.122986l0.048502,0.003514l-0.017322,-0.06325l0.041573,-0.091361l-0.010393,-0.130013l-0.107398,-0.137041l-0.148971,-0.080819l-0.121256,-0.087847l0.024251,-0.021083l0.065824,0.010542l0.232118,0.122986l0.148971,0.193263l0.020787,0.15461l-0.045038,0.003514l-0.027716,0.031625l0.024251,0.122986l0.083147,0.112444l0.079682,0.059736l0.038109,-0.031625l-0.017322,-0.052708l0.013858,-0.119472l-0.024251,-0.056222l0.020787,-0.024597l0.076218,0.021083l0.121256,-0.017569l0.024251,-0.042166l-0.041573,-0.056222l-0.090076,-0.049194l-0.097004,-0.017569l-0.058896,-0.028111l0.020787,-0.031625l0.138578,0.003514l0.245976,0.080819l0.034644,-0.010542l-0.058896,-0.049194l-0.079682,-0.021083l-0.117791,-0.077305l-0.131649,-0.035139l-0.038109,-0.04568l-0.180151,-0.056222l-0.010393,-0.042166l0.03118,-0.04568l0.211331,0.031625l0.180151,0.059736l0.041573,-0.028111l-0.013858,-0.06325l-0.06236,-0.042166l-0.242511,-0.059736l-0.03118,-0.038653l-0.103933,-0.021083l-0.058896,0.035139l-0.107398,-0.003514l-0.079682,-0.052708l-0.024251,-0.059736l0.03118,-0.017569l0.041573,0.031625h0.072753l0.055431,-0.049194l-0.003464,-0.084333l-0.058896,-0.04568l-0.142042,-0.021083l-0.121256,0.04568l-0.034644,-0.014055l0.038109,-0.066764l0.069289,-0.035139l-0.003464,-0.042166l-0.079682,-0.021083l-0.287549,0.059736l-0.051967,0.105416l-0.006929,0.06325l0.041573,0.070277l0.003464,0.038653l-0.06236,-0.049194l-0.034644,-0.10893l0.020787,-0.038653l0.006929,-0.056222l-0.024251,-0.049194l0.097004,-0.080819l0.114327,-0.052708l-0.013858,-0.042166l-0.097004,-0.028111l-0.058896,-0.056222l-0.128185,-0.052708l-0.128185,0.052708l-0.041573,0.052708l-0.131649,0.073791l-0.076218,0.003514l-0.041573,-0.056222h-0.045038l-0.041573,0.098388l0.034644,0.028111Z M614.578508,184.03307l0.003464,0.04568l0.072753,0.003514l0.06236,0.04568l0.010393,0.056222l0.048502,0.042166l0.117791,0.014055l0.027716,-0.049194l0.055431,-0.010542l0.034644,0.024597l-0.058896,0.021083l-0.03118,0.073791l0.079682,0.094875l0.159365,0.031625l0.110862,-0.017569l0.117791,0.007028l0.110862,0.087847l0.069289,0.126499v0.147583l0.086611,0.080819l0.131649,-0.017569l0.045038,0.04568l0.055431,0.17218l0.18708,0.119472l0.090076,0.028111l0.055431,0.066764l0.176687,0.119472l0.135113,0.024597l0.034644,-0.04568l-0.03118,-0.049194l0.003464,-0.066764l0.024251,-0.056222l-0.010393,-0.031625l-0.107398,-0.035139l-0.045038,-0.052708l0.017322,-0.028111l0.041573,-0.003514l0.034644,-0.042166l0.003464,-0.098388l-0.06236,-0.101902l-0.142042,-0.031625l-0.114327,0.028111l-0.138578,-0.052708l-0.069289,0.003514l-0.083147,-0.031625l0.006929,-0.031625l0.069289,0.021083h0.058896l0.079682,0.028111l0.086611,-0.003514l0.09354,-0.031625l0.027716,-0.038653l-0.114327,-0.140555l-0.145507,-0.070277h-0.097004l-0.083147,0.056222l-0.086611,-0.003514l-0.017322,-0.024597l0.065824,-0.007028l0.097004,-0.080819l0.097004,-0.007028l0.013858,-0.042166l-0.041573,-0.06325l-0.114327,-0.073791l-0.072753,0.007028l-0.034644,-0.017569l-0.006929,-0.056222l-0.12472,-0.091361l-0.183616,-0.04568l0.006929,-0.031625l0.048502,-0.010542l0.020787,-0.042166l-0.051967,-0.091361l-0.06236,-0.021083l-0.138578,-0.168666l-0.048502,-0.140555l-0.06236,-0.084333l-0.086611,-0.031625l-0.058896,0.021083l-0.03118,-0.014055l0.017322,-0.049194l-0.090076,-0.04568l-0.103933,0.042166l-0.076218,-0.010542l-0.050234,0.065885l-0.041573,0.192384l0.03118,0.050073l0.044172,0.010542l0.006063,0.014934l-0.042439,0.021962l-0.033778,0.188871l-0.079682,0.161638Z M616.637317,187.181737l0.041573,-0.001757l0.020787,-0.024597l-0.017322,-0.029868l-0.039841,-0.001757l-0.024251,0.017569l-0.006929,0.026354l0.025983,0.014055Z "/>
</svg>
