<svg xmlns="http://www.w3.org/2000/svg" viewBox="612.968 182.805 5.403 5.691">
  <path d="M613.231,184.409l0.163,-0.007l0.187,0.119l-0.038,0.032l-0.159,-0.025l-0.156,0.007l-0.125,-0.028l-0.08,0.025l-0.055,-0.018l0.263,-0.105Z M615.557,187.201l0.076,0.067l-0.007,0.024l-0.036,0.017l0.007,0.036l0.067,0.03l0.008,0.016l-0.019,0.052l0.033,0.04l0.06,0.018l0.044,0.039l0.008,0.057l0.073,0.063l0.084,0.047l0.028,0.046l-0.052,0.105l0.132,0.195l0.36,0.243l0.031,0.076l0.234,0.119l0.094,0.005l0.034,-0.055l-0.036,-0.09l-0.055,-0.024l-0.016,-0.026l0.016,-0.05l-0.021,-0.038l-0.087,0.004l-0.01,-0.042l0.031,-0.025l-0.038,-0.042l-0.146,0.039l-0.021,0.056l-0.042,-0.025v-0.049l-0.071,-0.05l-0.076,-0.015l-0.007,-0.023l0.205,0.029l0.094,-0.06l0.135,-0.042l-0.021,-0.035l-0.104,0.004l-0.104,-0.049l0.019,-0.026l0.095,0.009l0.033,-0.016l-0.031,-0.049l-0.012,-0.054l-0.062,-0.012l-0.097,-0.005l-0.047,-0.028l-0.043,0.007l-0.019,-0.021l0.038,-0.016l-0.005,-0.028l-0.132,-0.069l0.008,-0.024l0.03,0.006l0.173,0.097h0.097l0.059,-0.054 l-0.024,-0.035l-0.052,-0.004l-0.021,-0.032l0.049,-0.035l-0.028,-0.039l-0.125,-0.028l-0.083,0.025l-0.083,-0.028l-0.055,-0.081l-0.187,-0.007l-0.158,0.03l-0.04,-0.039l0.015,-0.015l0.068,-0.013l0.075,-0.065l0.102,-0.053l-0.017,-0.018l-0.088,0.021l-0.066,-0.004l-0.002,-0.032l0.121,-0.042l-0.014,-0.042l-0.094,-0.021l-0.191,0.018l-0.028,0.021l0.021,0.042l-0.021,0.021l-0.043,0.012l-0.025,0.039Z M616.072,186.373l0.055,0.067l0.107,0.06h0.097l0.024,-0.053 l-0.073,-0.123l-0.1,-0.039l-0.076,0.025l-0.035,0.063Z M616.432,186.753l0.011,0.096l0.026,0.024l0.062,0.003l0.023,-0.025l-0.028,-0.073l-0.072,-0.048l-0.024,0.023Z M618.075,183.224l0.078,0.032l0.174,-0.063l0.044,-0.069l-0.047,-0.04l-0.078,0.032l-0.052,-0.018l0.013,-0.026l-0.023,-0.04l-0.057,-0.003l-0.06,0.034l-0.013,0.119l0.021,0.042Z M617.758,183.535l0.083,0.058l0.005,0.055l0.021,0.076l0.055,0.003l0.179,-0.05l0.031,-0.1v-0.037l-0.088,-0.045l0.013,-0.026l0.086,-0.008l0.065,0.021l0.042,-0.013v-0.058l-0.042,-0.045l-0.07,-0.008l-0.034,-0.045l-0.099,0.008l-0.055,0.111l-0.039,0.024l-0.049,-0.018l-0.065,0.016l-0.036,0.047l-0.003,0.034Z M615.529,185.066l-0.016,0.026l0.049,0.034l0.073,0.016l0.055,0.037l0.023,0.037l0.026,-0.018l-0.049,-0.076l-0.094,-0.047l-0.068,-0.008Z M615.866,185.306l0.091,0.071l0.06,0.071l0.055,0.011l0.013,-0.032l-0.07,-0.111l-0.078,-0.069l-0.099,-0.021l-0.036,0.018l0.005,0.037l0.06,0.024Z M616.761,184.986l0.026,0.063l-0.012,0.102l0.012,0.043l0.061,0.018l0.058,0.076v0.048l0.03,0.032l0.086,-0.05l-0.004,-0.057l-0.052,-0.049l-0.008,-0.064l-0.041,-0.049l-0.05,-0.015l-0.032,-0.035l-0.011,-0.066l-0.079,-0.045l-0.017,0.021l0.033,0.028Z M613.949,184.599l-0.059,-0.003l-0.032,0.014l-0.003,0.032h0.103l0.029,-0.021 l-0.039,-0.021Z M615.783,185.614l0.062,0.092v0.061l0.091,0.161l-0.016,0.045l0.091,0.124l0.042,-0.003l0.003,-0.05l0.117,-0.034l0.042,0.016l0.049,0.042l0.031,-0.011l-0.018,-0.04l0.029,-0.018l0.099,0.04l0.057,0.076l0.01,0.1l0.125,0.145l0.065,0.032l0.065,0.076l0.065,-0.003l0.049,-0.05l-0.008,-0.074l-0.027,-0.041l0.013,-0.026l0.043,-0.017l-0.013,-0.076l-0.042,-0.011l-0.01,-0.024l0.094,-0.04l0.052,-0.058l-0.034,-0.037l-0.07,-0.003l-0.073,-0.116l-0.086,-0.063l-0.075,0.003l-0.229,-0.087l-0.031,-0.053l-0.117,-0.053l-0.14,0.005l-0.099,-0.061l-0.104,-0.005l-0.135,-0.032l-0.021,0.029l0.055,0.037Z M616.28,183.077l0.003,0.063l0.1,0.169l0.08,0.056l0.159,0.186l-0.017,0.088l0.014,0.081l0.097,0.063l0.097,0.018l0.042,-0.042l-0.01,-0.102l-0.069,-0.042l-0.066,-0.07l-0.007,-0.063l-0.222,-0.278l-0.069,-0.19l-0.094,-0.084h-0.062l-0.014,0.07l0.038,0.077Z M616.692,183.306l0.097,0.084l0.038,0.144l0.142,0.098l0.094,0.004l0.017,-0.056l-0.055,-0.204l-0.043,-0.079l-0.071,-0.054l-0.069,-0.112l0.007,-0.046l-0.021,-0.084l-0.1,-0.056l-0.062,0.039l-0.017,0.169l0.045,0.155Z M617.243,182.972l0.017,0.049l-0.038,0.049l0.017,0.081l0.049,0.032l0.055,0.148l0.049,0.077l0.267,0.077l0.052,-0.014l-0.003,-0.039l0.087,-0.07l-0.007,-0.056l-0.1,-0.07l-0.087,0.011l-0.017,0.081l-0.038,0.004v-0.109l-0.024,-0.063l-0.069,-0.035l-0.059,-0.081l-0.028,-0.141l-0.09,-0.084l-0.1,-0.014l-0.08,0.042l-0.007,0.056l0.156,0.07Z M613.819,184.389l0.143,0.14l0.281,0.069l0.13,0.058l-0.017,0.015l-0.11,-0.028l-0.151,-0.027l-0.081,0.011l-0.008,0.034l0.068,0.05l0.026,0.042l0.208,0.034l0.039,0.034l0.203,0.04l0.112,0.084l0.127,0.013l0.197,-0.066l0.016,-0.024l-0.042,-0.032l-0.101,-0.021v-0.021l0.081,0.008l0.023,-0.04h0.026l0.005,0.029l0.081,0.034l0.166,-0.013l0.034,-0.045l-0.013,-0.055l0.021,-0.032l0.049,-0.024l0.008,-0.047l-0.036,-0.079l-0.094,-0.042h-0.164l-0.127,-0.071l-0.034,-0.074l-0.062,-0.045l-0.083,-0.016l-0.094,-0.066l0.013,-0.053l-0.039,-0.018l-0.265,0.095l-0.052,-0.011l-0.042,0.018l0.016,0.042l-0.052,0.055l-0.122,-0.008l-0.049,-0.05l-0.174,-0.063l-0.065,0.037l0.005,0.126Z M617.066,183.257l0.031,0.102l-0.017,0.121l0.01,0.047l0.033,0.023l0.016,0.065l-0.05,0.069l0.005,0.049l-0.019,-0.004l-0.016,-0.04l-0.055,-0.012l-0.045,0.011l-0.014,0.028l0.029,0.102l0.059,0.051l0.066,0.098l0.073,0.056l0.052,0.069l0.049,0.025l0.042,-0.016l0.002,-0.037l-0.035,-0.037l-0.031,-0.051l-0.01,-0.069l-0.04,-0.046l-0.029,-0.06l0.029,-0.009l0.038,0.016l0.069,0.119l0.106,0.093l0.061,0.033l0.142,0.005l0.045,-0.03l-0.002,-0.032l-0.042,-0.032v-0.023l0.028,-0.032l-0.007,-0.049l-0.045,-0.023l-0.081,-0.002l-0.095,-0.053l-0.094,-0.098l-0.021,-0.056l0.012,-0.016l0.047,0.019l0.047,0.058l0.128,0.067l0.121,-0.018l0.047,-0.04l0.024,-0.081l-0.029,-0.037l-0.057,-0.005l-0.1,-0.047l-0.137,-0.035l-0.059,-0.054l0.005,-0.06l-0.029,-0.054l-0.026,-0.011l-0.144,-0.186l-0.007,-0.086l-0.017,-0.032l-0.059,-0.018l-0.045,0.021l-0.029,0.084l0.002,0.074l0.071,0.083Z M615.15,183.362h0.055l0.052,0.035l0.104,0.214l0.014,0.067l0.142,0.141l0.055,0.119l0.052,0.053l0.073,0.025l0.121,0.119l0.049,0.018l0.107,-0.007l0.09,0.053l0.059,0.102l0.069,0.056l0.128,0.07l0.097,0.123l0.049,0.004l-0.017,-0.063l0.042,-0.091l-0.01,-0.13l-0.107,-0.137l-0.149,-0.081l-0.121,-0.088l0.024,-0.021l0.066,0.011l0.232,0.123l0.149,0.193l0.021,0.155l-0.045,0.004l-0.028,0.032l0.024,0.123l0.083,0.112l0.08,0.06l0.038,-0.032l-0.017,-0.053l0.014,-0.119l-0.024,-0.056l0.021,-0.025l0.076,0.021l0.121,-0.018l0.024,-0.042l-0.042,-0.056l-0.09,-0.049l-0.097,-0.018l-0.059,-0.028l0.021,-0.032l0.139,0.004l0.246,0.081l0.035,-0.011l-0.059,-0.049l-0.08,-0.021l-0.118,-0.077l-0.132,-0.035l-0.038,-0.046l-0.18,-0.056l-0.01,-0.042l0.031,-0.046l0.211,0.032l0.18,0.06l0.042,-0.028l-0.014,-0.063l-0.062,-0.042l-0.243,-0.06l-0.031,-0.039l-0.104,-0.021l-0.059,0.035l-0.107,-0.004l-0.08,-0.053l-0.024,-0.06l0.031,-0.018l0.042,0.032h0.073l0.055,-0.049l-0.003,-0.084l-0.059,-0.046l-0.142,-0.021l-0.121,0.046l-0.035,-0.014l0.038,-0.067l0.069,-0.035l-0.003,-0.042l-0.08,-0.021l-0.288,0.06l-0.052,0.105l-0.007,0.063l0.042,0.07l0.003,0.039l-0.062,-0.049l-0.035,-0.109l0.021,-0.039l0.007,-0.056l-0.024,-0.049l0.097,-0.081l0.114,-0.053l-0.014,-0.042l-0.097,-0.028l-0.059,-0.056l-0.128,-0.053l-0.128,0.053l-0.042,0.053l-0.132,0.074l-0.076,0.004l-0.042,-0.056h-0.045l-0.042,0.098l0.035,0.028Z M614.579,184.033l0.003,0.046l0.073,0.004l0.062,0.046l0.01,0.056l0.049,0.042l0.118,0.014l0.028,-0.049l0.055,-0.011l0.035,0.025l-0.059,0.021l-0.031,0.074l0.08,0.095l0.159,0.032l0.111,-0.018l0.118,0.007l0.111,0.088l0.069,0.126v0.148l0.087,0.081l0.132,-0.018l0.045,0.046l0.055,0.172l0.187,0.119l0.09,0.028l0.055,0.067l0.177,0.119l0.135,0.025l0.035,-0.046l-0.031,-0.049l0.003,-0.067l0.024,-0.056l-0.01,-0.032l-0.107,-0.035l-0.045,-0.053l0.017,-0.028l0.042,-0.004l0.035,-0.042l0.003,-0.098l-0.062,-0.102l-0.142,-0.032l-0.114,0.028l-0.139,-0.053l-0.069,0.004l-0.083,-0.032l0.007,-0.032l0.069,0.021h0.059l0.08,0.028l0.087,-0.004l0.094,-0.032l0.028,-0.039l-0.114,-0.141l-0.146,-0.07h-0.097l-0.083,0.056l-0.087,-0.004l-0.017,-0.025l0.066,-0.007l0.097,-0.081l0.097,-0.007l0.014,-0.042l-0.042,-0.063l-0.114,-0.074l-0.073,0.007l-0.035,-0.018l-0.007,-0.056l-0.125,-0.091l-0.184,-0.046l0.007,-0.032l0.049,-0.011l0.021,-0.042l-0.052,-0.091l-0.062,-0.021l-0.139,-0.169l-0.049,-0.141l-0.062,-0.084l-0.087,-0.032l-0.059,0.021l-0.031,-0.014l0.017,-0.049l-0.09,-0.046l-0.104,0.042l-0.076,-0.011l-0.05,0.066l-0.042,0.192l0.031,0.05l0.044,0.011l0.006,0.015l-0.042,0.022l-0.034,0.189l-0.08,0.162Z M616.637,187.182l0.042,-0.002l0.021,-0.025l-0.017,-0.03l-0.04,-0.002l-0.024,0.018l-0.007,0.026l0.026,0.014Z "/>
</svg>
