<svg xmlns="http://www.w3.org/2000/svg" viewBox="673.103 280.529 3.808 7.539">
  <path d="M675.753,287.907l0.036-0.034l0.055,0.003l0.01,0.047l-0.036,0.026l-0.047-0.016L675.753,287.907z M675.785,288.068l0.029-0.029l-0.021-0.057l-0.044,0.003l-0.013,0.057L675.785,288.068z M676.177,287.123l0.023-0.018v-0.026l-0.029-0.003l-0.013,0.034L676.177,287.123z M676.198,287.05l0.023,0.013l0.018-0.016l-0.005-0.029l-0.023,0.003L676.198,287.05z M673.538,283.22l-0.067,0.004l-0.062-0.026l-0.048,0.026l-0.012,0.043l0.018,0.049l-0.049,0.056l-0.076,0.014l-0.049,0.031l-0.049-0.017l-0.031,0.031l0.028,0.059l0.007,0.083l0.031,0.031l0.056-0.011l0.055-0.047l0.047-0.016l0.057,0.015l0.025,0.04l-0.02,0.039l-0.061,0.049l0.008,0.036l0.058,0.009l0.048,0.032l0.101,0.016l0.054,0.022l0.038,0.066l-0.003,0.044l-0.039,0.023l-0.166,0.022l-0.179,0.057l-0.068,0.033l-0.028,0.001l-0.038-0.019l-0.021,0.021l0.028,0.038l0.028,0.01l0.048-0.02l0.029,0.023l-0.026,0.057v0.036l0.036,0.018l0.01,0.065l-0.018,0.034l-0.044,0.018v0.023l0.049,0.008l0.037-0.008l0.004,0.029l-0.1,0.052l-0.007,0.028l0.09-0.021l0.031,0.038l-0.036,0.051l0.012,0.015l0.074-0.023l0.042,0.005l0.133,0.07l0.013,0.044l0.026,0.01l0.053-0.007l0.052-0.028l0.049,0.024l0.051,0.129l0.062,0.035l0.035,0.049l-0.035,0.069l-0.152,0.042l-0.118,0.056l-0.035,0.083l0.055,0.028l-0.028,0.056l-0.069,0.042h-0.132l-0.028,0.076l0.092,0.07l-0.003,0.039l-0.042,0.052l-0.008,0.055l0.03,0.019l0.076-0.035l0.132,0.014l0.134-0.006l0.06-0.024l0.077-0.068l0.078-0.006l0.089,0.045l0.043,0.096l-0.016,0.031l-0.052,0.021l-0.01,0.049l0.035,0.045l-0.017,0.066l-0.042,0.01l-0.062-0.01l-0.02,0.014l0.018,0.034l0.06,0.018l0.014,0.038l-0.038,0.056l-0.08,0.021l-0.042,0.038l-0.062-0.01l-0.022,0.01v0.026l0.057,0.051l-0.01,0.052l-0.08,0.073l-0.069,0.031l-0.034-0.018h-0.042l-0.025,0.018l0.021,0.028l0.093,0.009l0.037,0.018l0.019,0.042l0.052,0.016l0.168-0.057l0.046-0.003l0.036,0.029l-0.028,0.071l0.033,0.028l0.114-0.016l0.059,0.016l0.06,0.046l0.07,0.027l0.131-0.005l0.031,0.024l-0.009,0.033l-0.056,0.009l-0.042,0.037l-0.016,0.058l-0.036,0.036l-0.258,0.07l-0.031,0.045l-0.038,0.125l0.056,0.051l0.001,0.027l-0.031,0.036l0.021,0.052l0.157,0.043l0.034,0.036l0.013,0.034l-0.017,0.036l0.042,0.028l0.052-0.018l0.044,0.002l0.036,0.023l-0.031,0.035l0.017,0.017l0.097-0.005l0.073,0.047l0.187,0.073h0.094l0.058,0.022l0.065,0.045l0.06,0.006l0.05-0.048l0.028-0.016l0.013,0.012l-0.031,0.074l0.002,0.035l0.029,0.026l0.05-0.012l0.038,0.009l0.042,0.035l-0.01,0.047l-0.073,0.083l0.011,0.055l0.035,0.012l0.094-0.009l0.119,0.038l0.044,0.055l0.055,0.027l0.086,0.007l0.06-0.024l0.124-0.181l0.021-0.057l-0.019-0.013l-0.038,0.008l-0.078,0.089l-0.033-0.003l0.023-0.064l0.005-0.075l0.027-0.032l0.068-0.016l0.118-0.122l0.016-0.073l-0.047-0.042l0.031-0.115l0.135-0.12l0.073-0.01l0.099-0.115l0.005-0.062l-0.114-0.026h-0.083l-0.057,0.073h-0.047l-0.021-0.022l0.021-0.066l0.073-0.083l0.042-0.005l0.036,0.042l0.063,0.006l0.03-0.02l0.004-0.022l-0.019-0.026l0.036-0.036l0.04,0.001l0.044-0.017l0.023-0.069l-0.035-0.062l0.021-0.062l0.069-0.038l0.032-0.093l-0.006-0.19l-0.042-0.069l-0.007-0.104l0.042-0.097l0.003-0.073l-0.044-0.102l0.003-0.055l0.05-0.113l0.01-0.084l0.006-0.122l0.083-0.174l0.409-0.514l0.035-0.174l-0.007-0.403l0.021-0.181l-0.007-0.118l-0.062-0.215l-0.028-0.167l0.042-0.194l-0.007-0.153l-0.049-0.167l0.021-0.201l-0.028-0.153l-0.277-0.361l-0.014-0.167l0.062-0.326l0.09-0.132v-0.146l-0.076-0.514l-0.049-0.111l0.007-0.139l-0.104-0.09l-0.173-0.021l-0.115,0.018l-0.05,0.039l-0.016,0.088l0.069,0.132l0.009,0.094l-0.034,0.052l-0.086,0.041l-0.021,0.069l0.046,0.086l0.002,0.074l-0.062,0.062v0.083l0.076,0.087l0.029,0.065l0.016,0.194l-0.016,0.063l-0.062,0.083l-0.014,0.09l-0.062,0.076l-0.057,0.012l-0.039-0.029l-0.039-0.089l-0.059-0.054l-0.132-0.069l-0.083,0.014l-0.125-0.042l-0.169,0.035l-0.097,0.065l-0.129,0.142l-0.005,0.067l-0.044,0.053l-0.111,0.074l-0.187,0.035l-0.118-0.021l-0.146,0.027l-0.071,0.065l-0.055,0.031l-0.137,0.022l-0.046,0.023l-0.029,0.065l-0.008,0.072l-0.06,0.052l-0.105,0.008l-0.071-0.035l-0.049-0.08l-0.034,0.008l-0.014,0.027l0.027,0.075l-0.005,0.063l-0.063,0.076l-0.108,0.05l-0.035,0.038l-0.014,0.083l-0.035,0.042l0.01,0.042l0.069-0.007l0.007,0.042l-0.076,0.083l-0.01,0.038l0.038,0.042L673.538,283.22z"/>
</svg>
