<svg xmlns="http://www.w3.org/2000/svg" viewBox="622.354 242.636 49.504 41.012">
  <path d="M667.486979,278.273903l0.005512,-0.016709l0.031691,-0.006962l0.074406,0.023671l-0.005512,0.013924l-0.033069,0.002785l-0.060627,-0.00557l-0.012401,-0.011139Z M667.513159,278.322638l0.017913,0.001392l0.01929,-0.00557l-0.005512,-0.011139l-0.033069,-0.001392l-0.009645,0.008355l0.011023,0.008355Z M636.808011,273.474492l0.028691,-0.002635l0.020866,-0.021076l-0.01565,-0.026345l-0.031299,0.002635l-0.01565,0.02898l0.013041,0.018442Z M638.805961,270.69508l-0.007825,-0.042152l0.020866,-0.047421l0.026083,0.002635l0.01565,0.068497l0.002608,0.084304l-0.020866,0.007904l-0.036516,-0.073766Z M636.800186,273.564066l0.093898,-0.118553l0.026083,0.002635l-0.018258,0.050056l-0.059991,0.076401l-0.031299,0.010538l-0.010433,-0.021076Z M637.074057,273.00028l-0.020866,-0.031614l0.023475,-0.021076l0.041733,0.013173l0.023475,0.02898l-0.018258,0.018442l-0.049558,-0.007904Z M637.102748,268.874631v-0.034249l0.031299,-0.007904l0.018258,0.036883l-0.023475,0.018442l-0.026083,-0.013173Z M638.902468,270.945359l-0.01565,-0.092208v-0.076401l0.01565,0.002635l0.023475,0.123822l0.002608,0.065863l-0.026083,-0.023711Z M639.246762,271.523196l-0.01565,0.003513l-0.109548,-0.093086l-0.109548,-0.151045l-0.04521,-0.042152l-0.013911,-0.024589l-0.001739,-0.036883l0.012172,-0.005269l0.050427,0.047421l0.078249,0.108893l0.085204,0.09133l0.069554,0.101868Z M661.112867,279.321003h0.04547l0.013779,0.018101l-0.042715,0.012532l-0.012401,0.022279l-0.039959,0.027848l-0.02618,0.03481l-0.015157,0.002785l-0.002756,-0.032026l0.039959,-0.037595l0.011023,-0.030633l0.028936,-0.018101Z M661.35262,279.806957l0.023424,-0.012532l0.042715,0.008355l0.013779,0.015317l-0.012401,0.013924l-0.059249,-0.011139l-0.008267,-0.013924Z M661.191407,279.666323l0.020668,-0.00557l0.02618,0.011139l0.004134,0.015317l-0.013779,0.008355l-0.037203,-0.013924v-0.015317Z M660.816621,279.734551l0.005512,-0.011139l0.012401,-0.001392l0.005512,0.009747l-0.012401,0.006962l-0.011023,-0.004177Z M661.308527,279.720627l0.030314,0.011139l0.007862,0.012532l-0.011996,0.00557l-0.037203,-0.012532l-0.005512,-0.012532l0.016535,-0.004177Z M661.393956,279.761007l0.017913,0.008355l0.015157,0.012532l-0.013779,0.004177l-0.01929,-0.006962l-0.011023,-0.015317l0.011023,-0.002785Z M662.267538,279.901642l0.016535,0.018101l-0.008267,0.008355l-0.016535,-0.006962l-0.005512,-0.016709l0.013779,-0.002785Z M664.294844,280.609236l-0.003458,-0.029705l0.025937,-0.012231h0.031124l0.027666,0.019221h0.062248l0.024208,-0.024463l0.05879,-0.020968l0.020749,-0.034947l0.024208,-0.003495l0.025937,0.036694l0.003458,0.047178l-0.01902,0.022716l-0.102018,0.027958l-0.036311,0.045431l-0.03977,-0.001747l-0.032853,-0.040189l-0.070894,-0.031452Z M664.995135,280.590015l0.010375,-0.05242l0.017291,-0.008737l0.015562,0.017473l-0.017291,0.054168l-0.017291,0.010484l-0.008646,-0.020968Z M665.041821,280.607489l0.015562,-0.029705l0.089914,-0.047178l0.041499,0.001747l0.005187,0.031452l-0.015562,0.048926l-0.043228,0.010484l-0.071115,-0.00609l-0.022257,-0.009636Z M665.294272,280.569047l-0.01902,0.001747l-0.013833,-0.045431l0.027666,-0.029705l0.050144,-0.010484l0.043228,-0.047178v-0.02621l0.024208,-0.017473l0.086456,-0.015726l0.03977,0.010484v0.022716l-0.051873,0.010484l-0.062248,0.061157l-0.006916,0.040189l-0.032853,0.012231l-0.050144,0.001747l-0.01902,0.005242l-0.015562,0.02621Z M637.314019,267.175369l0.026083,0.015807l0.028691,-0.013173v-0.02898l-0.031299,-0.026345l-0.046949,-0.002635l-0.005217,0.018442l0.028691,0.036883Z M631.289578,259.528039l0.012262,-0.009084l-0.001408,-0.016255l-0.016901,-0.013546h-0.014085l0.002817,0.018964l0.017316,0.01992Z M637.094923,266.919821l0.023475,0.013173l0.017389,-0.011416l0.000869,-0.033371l0.020866,-0.010538l0.033908,0.002635l0.005217,-0.021076l-0.034777,-0.016685l-0.033038,0.000878l-0.023475,0.023711l-0.010433,0.05269Z M636.941034,267.844536l0.033908,-0.021076l0.054774,-0.050056l0.007825,-0.039518l-0.023475,-0.079035l0.059991,-0.150167l-0.026083,-0.047421l-0.109548,-0.094843l-0.018258,-0.055325l0.013041,-0.039518v-0.044787l-0.044341,-0.060594l0.018258,-0.044787l0.007825,-0.057959l-0.007825,-0.031614l-0.052166,-0.02898l-0.099115,0.015807l-0.080857,-0.005269l-0.070424,-0.031614l-0.007825,-0.034249l-0.057382,-0.05269l-0.039124,-0.010538l-0.070424,-0.05269l0.007825,-0.034249l-0.01565,-0.023711h-0.070424l-0.062599,-0.034249l-0.023475,0.013173l0.010433,0.050056l0.059991,0.131726l0.01565,0.065863l-0.018258,0.05269l0.018258,0.065863v0.047421l0.049558,0.060594l0.135631,0.123822l0.049558,0.013173l0.065207,0.057959l0.036516,0.005269l0.044341,0.055325l0.062599,0.050056l0.052166,0.118553l0.018258,0.147533l0.031299,0.073766l0.028691,0.005269l0.01565,-0.02898Z M636.808011,266.226944l-0.013041,-0.018442l-0.036516,-0.005269l-0.044341,-0.100112l-0.065207,-0.02898l-0.065207,0.005269l-0.070424,-0.057959l-0.07564,-0.023711l-0.096507,0.018442l-0.12259,-0.007904l-0.046949,-0.026345l0.002608,-0.023711l0.070424,-0.026345l0.026083,-0.02898l-0.020866,-0.015807l-0.135631,0.010538l-0.057382,0.063228l-0.049558,0.034249l-0.049558,0.002635l-0.049558,-0.055325l0.007825,-0.047421l0.054774,-0.013173l0.033908,0.018442l0.028691,-0.023711l-0.020866,-0.063228l-0.057382,-0.047421h-0.070424l-0.046949,0.050056l-0.059991,0.013173l-0.046949,-0.010538l-0.01565,0.021076l0.059991,0.073766l0.057382,0.100112l0.080857,0.039518l0.052166,-0.002635l0.049558,-0.02898l0.073032,-0.002635l0.117373,0.063228l0.200838,0.092208l0.062599,0.057959l0.153889,0.065863l0.119981,-0.018442l0.065207,-0.05269Z M632.746904,263.692541l0.166931,0.039518l0.07564,-0.018442l0.083465,0.002635l0.01565,-0.018442l-0.10694,-0.108015l-0.208663,-0.063228l-0.07564,0.013173l-0.026083,0.039518l0.026083,0.071132l0.049558,0.042152Z M633.558951,262.737969l0.022605,-0.007025l0.008694,-0.154558l-0.029561,-0.070254l-0.036516,-0.024589l-0.236485,-0.107137l-0.036516,-0.077279l0.01565,-0.012294l0.039994,0.01932l0.020866,-0.010538l-0.001739,-0.075523l-0.036516,-0.03864l-0.073032,-0.035127l-0.09216,-0.015807l-0.085204,0.014051l-0.008694,0.01932l0.026083,0.047421l-0.024344,0.082548l0.010433,0.029858l0.043471,0.021076l0.078249,0.100112l0.036516,0.014051l0.078249,-0.029858l0.038255,0.005269l0.109548,0.073766l0.067816,0.101868l0.031299,0.11065l0.033038,0.01932Z M630.727521,260.61085l-0.010605,0.030597l0.031815,0.006799l0.045954,-0.016999l0.010605,-0.040797l-0.024745,-0.006799l-0.053024,0.027198Z M629.408983,260.746839l0.070699,0.071394l0.102514,0.013599l0.067164,-0.020398l0.296936,0.067994l0.074234,-0.020398l0.060094,-0.078194l-0.02121,-0.050996l-0.106049,-0.010199l-0.152003,-0.064595l-0.067164,-0.112191l-0.049489,-0.037397l-0.077769,-0.010199l-0.194422,-0.095192l-0.03535,0.020398l-0.03535,0.105391l0.031815,0.098592l0.03535,0.057795v0.064595Z M628.52878,259.27816l0.159073,0.044196l0.084839,-0.010199l0.00707,-0.044196l-0.031815,-0.044196l-0.240377,-0.061195l-0.077769,0.010199l-0.017675,0.030597l0.116653,0.074794Z M626.625207,258.91949l0.010605,0.020398l0.01414,0.0034l0.022977,-0.013599l-0.010605,-0.027198h-0.02828l-0.008837,0.016999Z M630.834232,259.565011l0.015493,-0.001355l-0.008451,-0.027092l0.012676,-0.043346l0.042254,-0.051474l0.001408,-0.041992l-0.016901,-0.008127l-0.038028,0.028446l-0.026761,0.082629l0.001408,0.041992l0.016901,0.020319Z M631.013106,259.502701l0.014085,-0.03251l0.019718,-0.017609h0.021127l0.009859,-0.0149l-0.004225,-0.031155l-0.016901,-0.002709l-0.032395,0.020319l-0.022535,0.028446l-0.001408,0.046056l0.012676,0.004064Z M626.607532,258.865094l0.02121,-0.0034l0.024745,-0.011899l-0.003535,-0.015299l-0.02121,-0.0017l-0.026512,0.020398l0.005302,0.011899Z M623.357143,257.353919l0.038884,0.037397l0.077769,0.016999l0.03535,-0.013599l-0.031815,-0.044196l-0.081304,-0.013599l-0.038884,0.016999Z M626.809025,258.907591l0.015907,-0.028898l-0.003535,-0.037397l-0.022977,-0.0017l-0.012372,0.013599l-0.001767,0.049296l0.024745,0.0051Z M623.388957,255.936236l0.02828,0.010199l0.040652,-0.028898l0.031815,-0.048446l-0.026512,-0.017849l-0.045071,0.035697l-0.029163,0.049296Z M623.057555,255.713555l0.063629,-0.068844l-0.010605,-0.025498l-0.06628,0.015299l-0.029163,0.028048l0.007954,0.048446l0.034466,0.00255Z M622.447776,255.41268l0.076885,-0.010199l0.02121,0.020398l-0.074234,0.040797l0.007954,0.022948h0.034466l0.074234,-0.045896l0.098095,-0.017849l0.090141,-0.040797l0.005302,-0.030597l-0.050373,-0.022948l-0.026512,-0.050996l-0.082188,-0.022948l-0.111351,0.017849l-0.018559,0.043346l-0.082188,0.040797l-0.055676,0.061195l0.018559,0.022948l0.074234,-0.028048Z M622.964763,255.596264l0.018559,-0.007649l0.010605,-0.022948l-0.023861,-0.010199l-0.026512,0.010199l-0.002651,0.025498l0.023861,0.0051Z M623.118533,255.810447l0.026512,-0.010199l0.015907,-0.025498l-0.02121,-0.0051l-0.031815,0.012749l-0.010605,0.020398l0.02121,0.007649Z M623.245791,255.800248h0.047722l0.02121,-0.012749l-0.015907,-0.017849l-0.053024,0.00255l-0.02121,0.015299l0.02121,0.012749Z M626.496265,254.061735l0.103382,-0.002515l0.015905,-0.02012l-0.045064,-0.047784l-0.082175,-0.00503l-0.039762,0.03018l0.010603,0.032695l0.037111,0.012575Z M635.854527,254.541254l0.001767,-0.016766l0.017672,-0.00503l0.014138,0.011736l-0.003534,0.013413l-0.015905,0.006707l-0.014138,-0.01006Z M635.859829,254.430596l0.017672,-0.00503l0.003534,-0.011736l-0.01237,-0.008383l-0.014138,0.001677l-0.007069,0.013413l0.01237,0.01006Z M634.700539,253.453114l0.021207,-0.02012l-0.03181,-0.035209l-0.060969,-0.017605l-0.021207,0.01006l0.03181,0.02515l-0.005302,0.02012l0.039762,0.017605h0.026508Z M630.319234,260.336322l0.037117,0.050996l0.06628,0.017849l0.039768,0.030597h0.02121l-0.018559,-0.048446l-0.058327,-0.033147l-0.034466,-0.007649l-0.037117,-0.022948l-0.015907,0.012749Z M628.126517,253.769999l0.03181,0.01509l0.053016,-0.017605l-0.002651,-0.032695l-0.037111,-0.002515l-0.037111,0.017605l-0.007952,0.02012Z M629.637481,253.450599l-0.005302,-0.037724l-0.026508,-0.02012h-0.023857l-0.002651,0.017605l0.021207,0.01509l0.018556,0.032695l0.018556,-0.007545Z M630.162343,253.488324l0.023857,-0.01006v-0.017605l-0.029159,-0.002515l-0.021207,0.017605l0.026508,0.012575Z M630.366456,253.785089l0.029159,-0.002515l0.010603,-0.017605l-0.039762,-0.01006l-0.023857,0.01509l0.023857,0.01509Z M630.289582,253.591437l0.037111,0.007545l0.03181,-0.042754l0.01226,-0.078278l-0.031893,-0.023106l-0.049289,0.013361l-0.023857,0.02515l0.005302,0.060359l0.018556,0.037724Z M626.883284,254.305686l-0.005302,-0.052814l-0.015905,-0.02515l-0.018556,0.02012l0.010603,0.047784l0.018556,0.03018l0.010603,-0.02012Z M633.307977,254.61335l0.01237,0.011736l0.03181,-0.023473l0.001767,-0.035209l-0.019439,-0.001677l-0.026508,0.02515v0.023473Z M633.753314,254.3585l0.030043,-0.008383l0.01237,-0.018443l-0.015905,-0.008383l-0.021207,0.00503l-0.010603,0.013413l0.005302,0.016766Z M628.913113,253.725786l0.002606,-0.025826l-0.010423,-0.030991l-0.023452,-0.01033l-0.007817,0.020661l0.013029,0.036156l0.026057,0.01033Z  M667.508779,267.283502l-0.052,0.01l-0.094,0.086l-0.002,0.042l0.007,0.036l-0.045,0.072l-0.071,0.009l-0.085,0.038l-0.032,0.051l-0.099,0.023l-0.08,-0.002l-0.033,-0.026l-0.033,0.002l-0.024,0.054l0.007,0.047l-0.017,0.004l-0.061,-0.072l-0.044,-0.004l-0.071,0.032l-0.047,0.084l0.031,0.038l-0.01,0.062l-0.031,0.026l0.01,0.192l0.035,0.023v0.035l-0.03,0.03l0.012,0.033l0.072,0.091l0.043,0.004l0.035,0.056l0.092,0.042l0.094,-0.009l0.026,0.019l-0.009,0.06l0.045,0.052l0.054,0.025l0.115,-0.035l0.055,0.043l0.08,0.018l0.006,0.028l-0.061,0.054l-0.005,0.033l0.007,0.03l-0.028,0.086l0.005,0.037l0.049,0.022l0.007,0.046l-0.023,0.035l0.026,0.084l-0.019,0.03l0.005,0.031l0.042,0.039l0.002,0.026l-0.023,0.026l0.003,0.023l0.084,0.033l0.115,-0.002l0.02,0.021l-0.003,0.027l-0.035,0.019l0.007,0.047l0.049,0.007l0.036,-0.021l0.118,0.028l-0.003,0.017l-0.019,0.021l0.01,0.037l0.051,0.047v0.037l0.064,0.037l0.071,0.003l0.028,0.032l0.09,0.035l0.011,0.028l-0.026,0.07l-0.054,0.024l-0.016,0.049l0.009,0.055l-0.03,0.036h-0.048l-0.025,0.016l0.002,0.077l-0.026,0.023l-0.054,-0.004l-0.012,0.027l0.035,0.057l0.012,0.07l0.04,0.046l0.009,0.126l-0.037,0.045l-0.052,-0.008l-0.026,0.017l-0.002,0.035l-0.108,0.112l-0.033,0.004l-0.055,-0.063l-0.037,-0.002l-0.04,0.03l-0.041,0.012l-0.065,-0.009l-0.047,0.028l-0.088,0.019l-0.016,0.018l0.016,0.042l-0.04,0.019l-0.009,0.047l-0.035,0.039l-0.118,0.028l-0.071,-0.005l-0.026,0.05l0.049,0.067l-0.018,0.028l-0.083,0.005l-0.066,0.026l-0.035,-0.01l-0.116,-0.082l-0.153,-0.046l-0.031,0.004l-0.072,0.085l-0.034,0.007l-0.096,-0.028l-0.101,0.023l-0.035,0.067l-0.076,0.038l-0.066,0.007l-0.016,0.035l0.052,0.086v0.045l0.023,0.028l0.04,-0.005l0.012,0.025l-0.015,0.043l0.033,0.042l-0.007,0.06l0.043,0.058l0.176,-0.006l0.071,0.028l0.015,0.056l-0.034,0.025v0.026l0.083,0.077l0.01,0.04l-0.017,0.056l-0.047,0.056l0.04,0.009l0.009,0.021l-0.035,0.04v0.065l0.026,0.03l0.051,0.003l0.059,0.053h0.04l0.015,0.012v0.037l0.101,0.059l0.132,0.077l0.174,0.025l0.064,-0.069l0.056,0.011l0.104,0.061l0.035,-0.005l0.088,0.03l0.011,0.059l0.05,0.018l0.005,0.024l-0.048,0.082l-0.039,0.03l-0.005,0.028l0.059,0.021l0.038,0.082l-0.012,0.058l0.035,0.095l0.044,0.056l0.06,0.008l0.026,0.018v0.03l0.037,0.098l-0.007,0.022l-0.056,0.002l-0.104,-0.047l-0.083,0.012l-0.054,-0.007l-0.071,0.044l-0.039,0.009l-0.024,0.022l-0.002,0.046l-0.026,0.033v0.061l0.03,0.056l0.031,0.021l-0.002,0.028l-0.054,0.004l-0.01,0.033l-0.042,0.046l-0.019,0.115l-0.064,0.04l-0.007,0.04l-0.087,0.025l-0.042,0.002l-0.034,0.063l-0.061,0.047l0.028,0.129l0.054,0.053l0.015,0.045l0.103,0.062l0.024,0.077l0.089,0.047l0.036,0.045l-0.014,0.014l-0.035,-0.007l-0.029,0.02l-0.04,-0.014l-0.08,0.033l0.01,0.044l-0.003,0.171l-0.024,0.021l0.003,0.032l0.052,0.01l0.054,0.042l0.021,0.067l0.036,0.017l0.087,0.091l0.006,0.06l0.048,0.049l0.049,0.007l0.054,0.036l0.008,0.142l0.054,0.058l0.077,0.033l0.087,-0.002l0.031,-0.019l0.035,-0.002l0.036,0.014l0.016,0.028l0.026,0.016l0.05,0.007l0.101,0.075l0.035,0.004l0.043,-0.028l0.026,0.007l0.042,0.03l0.031,-0.009l0.017,0.007l0.03,0.066l0.073,0.074l0.035,0.002l0.028,-0.025l0.033,0.011l0.022,0.068l0.08,0.04l0.024,0.033l0.028,0.004l0.018,-0.021l0.073,-0.002l0.033,0.012l0.078,-0.019l0.024,0.009l-0.003,0.035l0.045,0.091l0.047,0.003l0.08,-0.033l0.074,0.023l0.039,0.031l0.027,-0.007l0.004,-0.063l0.017,-0.015l0.097,0.019l0.084,-0.03l0.042,-0.038l0.029,-0.007l0.047,0.019l0.04,-0.004l0.036,-0.036l0.066,0.005l0.04,-0.03l0.077,0.004l0.043,-0.007l0.054,0.022l0.042,-0.021l0.036,-0.092l0.044,-0.021h0.118l0.024,0.022l-0.014,0.037l-0.031,0.021v0.028l0.017,0.035l-0.034,0.065l0.021,0.057l0.036,0.02l0.05,0.077l0.08,0.066l-0.015,0.098l-0.032,0.026l-0.008,0.053l-0.018,0.019l-0.05,0.007l-0.026,0.03l-0.038,-0.002l-0.021,0.014v0.049l0.028,0.098l-0.052,0.088l-0.051,0.021l-0.108,0.08l-0.034,-0.014l-0.045,0.009l-0.028,0.024l-0.037,0.009l-0.019,0.023l0.019,0.031l-0.022,0.062l-0.03,0.035l0.014,0.068l-0.023,0.031l-0.126,0.037l-0.094,0.065l-0.014,0.038l0.01,0.063l0.039,0.037l0.039,0.168l0.033,0.066l0.001,0.052l-0.027,0.002l-0.026,0.015l-0.007,0.024l-0.015,0.014l-0.035,0.01l-0.048,0.047l0.003,0.033l-0.01,0.01l-0.033,-0.004l-0.044,-0.038l-0.022,0.003l-0.029,0.024l-0.036,0.009l-0.011,-0.008l-0.023,0.011l-0.017,0.024l-0.014,0.015l-0.038,0.027l-0.009,0.023l0.024,0.02l-0.022,0.022l-0.066,0.014l-0.124,-0.002l-0.07,0.035l-0.025,0.048l0.012,0.078l-0.014,0.033l-0.021,-0.001l-0.019,-0.067l0.012,-0.026l-0.017,-0.028l-0.019,0.002l-0.035,0.08l-0.024,0.002l-0.048,-0.035l-0.071,-0.01l-0.075,0.022l-0.052,0.056l-0.01,0.06l-0.066,0.075l-0.036,-0.004l-0.028,-0.037l-0.1,0.004l-0.064,0.038l-0.066,0.112l-0.02,0.107l-0.004,0.084l0.045,0.056l0.019,0.084l-0.015,0.033l-0.05,0.001l-0.028,-0.012l-0.011,-0.014l0.011,-0.031l-0.019,-0.042l-0.031,-0.012l-0.068,0.001l-0.06,0.037l-0.118,0.112l-0.014,0.002l-0.015,-0.041l-0.031,-0.015l-0.095,-0.004l-0.078,0.016l-0.061,0.035l-0.06,0.098l0.008,0.028l0.044,0.015l0.006,0.042l-0.076,0.065l-0.039,0.044l-0.004,0.063l-0.019,0.042l-0.076,0.047l-0.031,0.05l-0.073,0.014l-0.022,-0.015l-0.017,0.003l-0.013,0.065l-0.019,0.01l-0.064,-0.022h-0.034l-0.113,0.022h-0.046l-0.068,-0.047l-0.048,0.009l-0.059,0.066l-0.019,0.07l-0.041,0.06l-0.007,0.029l0.014,0.044l-0.014,0.056l-0.071,0.033h-0.064l-0.035,0.028l-0.01,0.042l0.005,0.044l-0.019,0.019l-0.062,0.003l-0.047,0.016l-0.031,0.04l-0.13,0.07l-0.019,0.03l0.016,0.037l0.033,0.017l0.09,-0.01l0.043,-0.035l0.047,-0.002l0.048,0.037l0.028,-0.009l0.001,-0.035l0.028,-0.014l0.035,0.01l0.041,0.053l-0.017,0.047l-0.05,0.044l-0.044,0.01l-0.024,0.077l0.071,0.107l-0.002,0.018l-0.086,0.005l-0.044,0.034l-0.013,0.05l-0.07,0.068h-0.039l-0.039,-0.081l-0.073,-0.034l-0.088,-0.008l-0.057,0.037l-0.034,0.052l-0.098,0.055l-0.06,0.019l-0.078,-0.016l-0.041,0.005l-0.06,0.029l-0.145,0.005l-0.109,0.039l-0.043,0.088l0.002,0.047l0.022,0.038l-0.014,0.048l-0.084,0.008l-0.03,-0.014l-0.021,-0.038l-0.069,-0.039l-0.057,-0.001l-0.024,-0.011l-0.004,-0.024l-0.038,-0.028l-0.045,-0.002l-0.076,0.039h-0.039l-0.016,-0.025l-0.041,-0.028l-0.071,-0.003l-0.031,0.017l0.01,0.016l0.05,-0.007l0.028,0.007l-0.005,0.016h-0.04l-0.049,0.024l-0.1,0.1l-0.029,0.097l-0.002,0.104l0.014,0.031l0.065,0.012v0.014l-0.072,0.014l-0.076,-0.026h-0.066l-0.028,0.019l-0.032,0.002l-0.018,-0.026l0.005,-0.028l0.028,-0.011l0.087,-0.003l0.017,-0.035l-0.007,-0.095l-0.019,-0.031l-0.126,-0.033l-0.056,0.002l-0.077,0.031l-0.096,0.007l-0.019,-0.012l0.004,-0.049l-0.053,-0.052l-0.098,-0.019l-0.155,-0.004l-0.033,0.011l-0.014,-0.009l0.008,-0.03l-0.014,-0.013l-0.04,-0.001l-0.024,0.015h-0.057l-0.019,0.02l0.001,0.022l0.051,0.007l0.017,0.018l-0.032,0.061l0.007,0.018l0.026,0.006l0.019,-0.014l0.073,-0.003l0.042,0.01l0.023,0.026l-0.005,0.031l-0.017,0.007l-0.023,-0.017l-0.031,-0.002l-0.04,0.016l-0.029,-0.005l-0.057,-0.032l-0.032,0.004l-0.065,0.056l-0.016,0.037l-0.032,0.029l-0.054,0.002l-0.054,-0.017l-0.057,-0.06l-0.056,-0.019l-0.001,-0.02l0.044,-0.058l0.008,-0.091l-0.029,-0.04l-0.092,-0.009l-0.014,-0.016l0.01,-0.045l-0.029,-0.026l-0.034,0.011l-0.101,-0.004l-0.026,-0.011l-0.022,-0.035l-0.022,-0.009l-0.065,0.003l-0.029,-0.044l0.021,-0.069l-0.026,-0.03l-0.038,-0.002l-0.127,-0.042l-0.066,0.017l-0.041,0.051l-0.012,0.047l-0.024,0.007l-0.121,-0.052l-0.08,-0.095l-0.005,-0.059l-0.064,-0.011l-0.064,0.049l-0.05,0.006l-0.11,-0.036l-0.049,-0.005l-0.015,0.014l0.021,0.019l-0.006,0.012l-0.038,-0.01l-0.062,-0.033l-0.014,0.005l0.009,0.017l-0.009,0.007l-0.066,-0.044l-0.035,0.001l-0.106,0.028l-0.073,-0.03l-0.009,-0.038l0.088,-0.125l0.008,-0.046l-0.005,-0.031l-0.082,-0.077l-0.002,-0.039l0.042,-0.043l0.006,-0.028l-0.014,-0.073l-0.096,-0.126l-0.061,-0.046l-0.047,-0.001l-0.061,0.026l-0.053,0.046l-0.04,0.01l-0.051,0.041l-0.186,0.012l-0.053,-0.012l-0.035,0.001l-0.043,0.018l-0.095,0.001l-0.082,-0.012h-0.18l-0.039,0.024l-0.045,-0.003l-0.07,-0.074l0.002,-0.049l-0.034,-0.037l-0.015,-0.035l-0.077,-0.086l0.002,-0.024l0.031,-0.02v-0.021l-0.018,-0.012l-0.055,-0.001l-0.018,-0.019l-0.006,-0.068l-0.036,-0.069l-0.034,-0.041l-0.023,-0.012l-0.011,0.016l0.026,0.032l0.004,0.037l-0.022,0.018l-0.073,-0.014l-0.044,0.012l-0.028,0.043l-0.062,0.038l-0.004,-0.01l0.032,-0.051l0.026,-0.01l0.004,-0.011h-0.043l-0.042,0.039l-0.011,-0.004l-0.02,-0.048l-0.027,-0.032l-0.017,-0.048l-0.015,-0.01l-0.017,0.01l0.058,0.114l0.02,0.064l-0.036,0.018l-0.09,-0.072l-0.036,-0.013l-0.012,0.015l0.058,0.044l0.043,0.045l-0.017,0.013l-0.025,-0.015h-0.034l-0.011,0.018l0.011,0.016l0.051,0.009l0.026,0.036l-0.011,0.045l0.022,0.023l0.046,0.014l0.059,0.004l0.086,-0.044l0.007,-0.042l0.011,-0.003l0.008,0.015l-0.003,0.034l-0.192,0.173l-0.055,0.033l-0.051,0.001l-0.115,-0.057l-0.104,-0.025l-0.18,-0.005l-0.24,0.016l-0.128,-0.016l-0.175,-0.051l-0.079,-0.083l0.001,-0.046l0.097,-0.045l0.017,-0.028v-0.063l-0.053,-0.074l-0.12,-0.068l-0.167,-0.024l-0.192,0.005l-0.08,0.033h-0.079l-0.135,-0.029l-0.329,-0.018l-0.143,0.004l-0.145,-0.027l-0.256,-0.09l-0.054,-0.086l0.021,-0.068l0.059,-0.021l0.011,-0.026l-0.024,-0.048l-0.083,-0.049l-0.114,-0.019l-0.176,0.011l-0.195,0.063l-0.272,0.123l-0.226,0.168l-0.083,0.115l-0.072,0.055l-0.114,0.045l-0.112,0.065l-0.067,0.063l-0.099,0.021l-0.083,-0.011l-0.083,0.032l-0.259,0.22l-0.151,0.173l-0.103,0.094l-0.112,0.016l-0.218,-0.06l-0.148,0.023l-0.358,0.189l-0.298,0.241l-0.202,0.22l-0.215,0.323l-0.117,0.278l-0.054,0.266l0.011,0.058l0.052,0.042l0.01,0.055l-0.034,0.073l-0.046,0.338l-0.016,0.496l0.012,0.434l0.052,0.3l0.044,0.055l0.24,0.043l0.024,0.042l-0.021,0.068l0.038,0.068l0.052,0.032l0.078,0.107v0.045l-0.032,0.07l-0.108,0.03l-0.075,-0.008l-0.053,0.003l-0.032,0.046l-0.063,-0.004l-0.131,-0.121v-0.077l-0.053,-0.024l-0.053,0.038l-0.057,-0.024l-0.053,-0.007l-0.063,0.017l-0.068,-0.045l-0.07,0.017l-0.039,0.08l-0.078,-0.007l-0.099,-0.031l-0.06,0.042l-0.067,-0.004l-0.149,0.157l-0.102,0.02l-0.092,-0.034l-0.106,0.014l-0.088,0.062l-0.082,0.011l-0.042,0.066l-0.007,0.09l0.063,0.062l-0.01,0.053l-0.078,0.01l-0.155,-0.024l-0.121,-0.052l-0.07,0.013l-0.043,0.067l-0.07,0.034l-0.195,-0.048l-0.169,-0.139l0.01,-0.063l-0.039,-0.031h-0.102l-0.191,-0.052l-0.046,-0.052l-0.106,-0.039l-0.057,0.014l-0.123,-0.059l-0.05,0.004l-0.025,0.038l-0.155,0.048l-0.136,-0.043l-0.149,0.049l-0.06,0.132l-0.113,0.09l-0.265,0.038l-0.166,-0.111l-0.045,-0.237l-0.085,-0.078l-0.162,-0.018l-0.254,-0.149l-0.286,-0.021l-0.046,-0.03l-0.002,-0.07l0.026,-0.057l0.013,-0.099l0.044,-0.049l0.062,-0.002l0.046,-0.01l0.028,-0.04l-0.012,-0.028l-0.067,0.005l-0.068,-0.026l-0.063,-0.003l-0.014,-0.01l0.013,-0.047l0.042,-0.055l-0.018,-0.018l-0.059,0.002l-0.071,-0.031l-0.077,-0.01l-0.037,0.02l-0.045,-0.002l-0.011,-0.024l-0.069,-0.015l-0.108,0.013l-0.088,-0.032l-0.037,-0.065l-0.089,-0.032l-0.071,0.014l-0.044,0.026l-0.073,-0.002l-0.022,-0.032l-0.059,0.015l-0.029,0.069l0.019,0.103l-0.061,0.043l-0.063,-0.005l-0.061,-0.084l-0.029,-0.117l-0.081,-0.081l-0.008,-0.073l-0.055,-0.044h-0.045l-0.042,-0.032l-0.008,-0.07l-0.1,-0.031l-0.165,0.044l-0.097,-0.005l-0.021,-0.034l-0.068,-0.018l-0.056,0.034l-0.086,0.01l-0.099,0.037l-0.102,-0.08l-0.01,-0.104l-0.088,-0.097l-0.122,-0.052l-0.105,0.007l-0.147,-0.042l-0.063,0.017l-0.049,-0.01l-0.046,-0.066h-0.052l-0.056,0.066l-0.042,0.003l-0.056,-0.027l-0.056,-0.063l-0.095,-0.028l-0.024,-0.038l-0.21,-0.062l-0.088,0.01l-0.14,-0.042l-0.035,-0.052l-0.108,-0.031l-0.133,0.042l-0.046,0.086l0.035,0.046l0.007,0.087l-0.056,0.024l-0.024,0.066l0.049,0.028l-0.007,0.031l-0.039,0.01l-0.01,0.046l0.052,0.034l0.063,0.098l0.007,0.09l-0.045,0.056l-0.249,-0.049l-0.07,0.014l-0.189,-0.018l-0.091,0.035l-0.112,-0.028l-0.143,0.039l-0.13,-0.032l-0.101,-0.1h-0.081l-0.091,0.066l-0.028,0.073l-0.063,0.055h-0.052l-0.074,-0.066l-0.052,-0.118l-0.126,-0.017l-0.133,-0.063l-0.06,0.003l-0.045,0.049l-0.186,0.052l-0.056,-0.034l-0.055,0.013l-0.029,0.054l-0.084,0.024l-0.092,-0.021l-0.039,0.01l-0.029,0.047l-0.076,0.016l-0.16,-0.05l-0.018,-0.057l-0.032,-0.039l-0.136,-0.024l-0.014,-0.065l-0.118,-0.148l-0.028,-0.091l-0.035,-0.02l-0.052,0.038l-0.06,-0.004l-0.114,-0.051l-0.065,-0.083l-0.164,-0.077l-0.093,-0.043l-0.056,0.039l-0.082,0.003l-0.063,0.091l-0.087,0.052l-0.095,-0.004l-0.112,0.025l-0.117,-0.047l-0.092,-0.073h-0.031l-0.054,0.054v0.062l-0.028,0.028l-0.035,-0.003l-0.054,0.054l-0.051,-0.02l0.011,-0.08l-0.039,-0.017l-0.056,0.017l-0.035,-0.017l-0.021,-0.111l-0.154,-0.101l-0.063,-0.09l-0.059,-0.032l-0.07,0.014l-0.116,-0.076l-0.006,-0.063l0.021,-0.054l-0.018,-0.088l-0.074,-0.097l-0.134,0.007l-0.078,0.055l-0.205,0.008l-0.087,-0.018l-0.023,-0.032l-0.061,-0.01l-0.042,0.044l-0.084,-0.002l-0.191,-0.099l-0.019,-0.06l-0.044,-0.026l-0.053,0.01l-0.197,-0.044l-0.01,-0.037l-0.105,-0.054l-0.074,0.062l-0.039,-0.008l-0.011,-0.075l-0.081,-0.042l-0.053,0.008l-0.107,-0.076l-0.071,-0.013l-0.061,0.055l-0.052,-0.003l-0.047,-0.06l-0.129,-0.062l0.032,-0.11l0.083,-0.047l0.002,-0.037l-0.148,-0.015l-0.077,0.039l-0.039,0.105l0.024,0.135l-0.055,0.117l-0.323,-0.078l-0.103,-0.13l0.016,-0.07l0.071,-0.034l0.121,-0.11l0.015,-0.099l0.027,-0.031l0.013,-0.091l0.055,-0.058l0.037,-0.198l-0.006,-0.08l-0.094,-0.099l-0.045,-0.008l-0.063,0.023l-0.144,-0.031l-0.142,-0.089l-0.181,0.005l-0.021,0.032l0.024,0.041l-0.058,0.102l-0.121,0.003l-0.055,-0.029l-0.024,-0.128l0.016,-0.049l-0.034,-0.05l-0.122,-0.046l-0.114,0.012l-0.103,0.065l-0.056,-0.006l-0.03,-0.06l-0.002,-0.07l-0.056,-0.064l-0.073,-0.009l-0.056,-0.05l0.014,-0.111l0.091,-0.003l0.018,-0.032l0.032,-0.01l0.039,0.016l0.216,-0.079l0.131,-0.032l0.247,-0.171l0.126,-0.208l0.099,-0.119l0.297,-0.524l0.05,-0.175l0.038,-0.27l0.118,-0.513l0.226,-0.836l0.139,-0.745l0.146,-1.001l0.025,-0.271l-0.025,-0.126l0.018,-0.116l0.125,-0.176l0.052,-0.147l-0.002,-0.119l0.05,-0.097l0.11,-0.005l0.096,0.044l0.034,0.053l0.19,0.011l0.175,-0.069l0.026,-0.039l-0.005,-0.048l-0.297,-0.29l-0.204,-0.137l-0.036,0.011l-0.039,0.042l-0.003,0.061l-0.17,0.181l-0.034,0.098l-0.028,0.174v0.097l-0.024,0.019l-0.047,-0.056l0.011,-0.239l0.078,-0.393l0.089,-0.701l0.068,-0.682l0.086,-0.714l0.041,-0.387l0.008,-0.282l-0.023,-0.116v-0.113l0.039,-0.098v-0.066l-0.021,-0.068l0.003,-0.058l0.096,-0.195l0.068,-0.037l0.047,-0.084l0.036,-0.103l0.089,-0.04l0.031,0.029v0.053l0.013,0.032l0.039,0.023l0.003,0.058l-0.055,0.066l0.024,0.066l0.075,0.034l0.047,0.045l0.066,0.077l0.12,0.084l0.093,0.031l0.087,0.066l0.039,0.071l0.044,0.051l0.274,0.176l0.094,0.111l0.128,0.271l0.057,0.216l0.013,0.203l0.198,0.506l0.102,0.116l0.117,0.152l0.102,0.085l0.136,0.066l0.06,0.063l0.023,0.079l-0.044,0.15l0.005,0.069l0.05,0.113l-0.016,0.134l-0.05,0.045l0.045,-0.013l0.034,-0.032l0.021,-0.153l-0.04,-0.1l-0.005,-0.068l0.047,-0.145l-0.023,-0.087l-0.068,-0.082l-0.105,-0.063l-0.057,-0.087l0.021,-0.003l0.094,0.04l0.094,0.024l0.117,0.084l0.091,0.034l0.029,0.035l0.013,0.094l0.094,0.148l0.05,0.016l0.096,-0.042l0.055,0.01l0.055,0.034l0.185,0.021l0.031,0.032l0.018,0.082l0.034,0.039l-0.01,-0.039l-0.013,-0.098l-0.042,-0.039l-0.188,-0.032l-0.062,-0.037l-0.071,-0.008l-0.088,0.045l-0.037,-0.024l-0.068,-0.131l-0.015,-0.108l-0.058,-0.045l-0.075,-0.027l-0.118,-0.084l-0.086,-0.037l-0.068,-0.013l-0.07,-0.026l-0.123,-0.095l-0.047,-0.061l-0.018,-0.084l-0.06,-0.105l-0.021,-0.106v-0.11l-0.081,-0.314l-0.015,-0.15l-0.11,-0.416l-0.086,-0.195l-0.175,-0.277l-0.177,-0.203l-0.276,-0.239l-0.066,-0.019l-0.028,0.019l-0.055,-0.008l-0.107,-0.114l-0.018,-0.079l-0.097,-0.108l-0.086,-0.01l-0.146,-0.087l-0.151,-0.058l-0.152,-0.124l-0.169,-0.087l-0.044,0.011l-0.011,0.031l0.026,0.063l0.042,0.014l-0.05,0.01l-0.033,-0.026l-0.032,-0.098l-0.002,-0.329l0.015,-0.063l0.115,-0.05l0.065,0.023l0.092,-0.047l0.067,0.005l0.029,-0.021l0.01,-0.084l-0.054,-0.063l-0.013,-0.079l0.044,-0.042l0.068,0.01l0.068,-0.026l0.026,-0.071l0.086,-0.101l0.021,-0.097l-0.019,-0.068l-0.067,-0.043l0.01,-0.026l0.047,-0.011l0.008,-0.036l-0.029,-0.09l-0.044,-0.034l0.018,-0.037l0.12,-0.008l0.029,-0.05l-0.019,-0.124l-0.06,-0.076l-0.054,-0.016l-0.026,-0.037l0.002,-0.097l-0.044,-0.077l-0.052,-0.05l-0.024,-0.061l-0.115,-0.065l-0.013,-0.037l0.029,-0.037l-0.026,-0.019l-0.073,0.008l-0.063,0.032l-0.086,-0.003l-0.015,-0.06l0.044,-0.085l0.055,-0.052l-0.005,-0.069l0.062,-0.066l0.058,-0.023l0.127,-0.108l0.042,-0.095l-0.029,-0.15l-0.041,-0.032l-0.089,-0.003l-0.089,0.037l-0.062,0.082l0.01,0.055l-0.029,0.008l-0.167,-0.124l-0.151,-0.15l-0.021,0.008l0.026,0.076l0.029,0.051l-0.023,0.015l-0.073,-0.071l-0.05,-0.095l-0.094,-0.06h-0.151h-0.107l-0.078,0.021l-0.071,-0.021l-0.088,-0.208l-0.073,-0.066l-0.081,-0.019l-0.092,0.003l-0.19,-0.024l-0.133,-0.058l-0.044,-0.055l-0.217,-0.1l-0.149,-0.092l-0.06,-0.066l-0.046,-0.016h-0.068l-0.037,-0.026l-0.018,-0.164l-0.117,-0.337l-0.092,-0.116l-0.109,-0.105l-0.055,-0.098l-0.063,-0.076l-0.096,-0.011l-0.044,-0.044l-0.008,-0.087l-0.279,-0.264l-0.204,-0.11l-0.102,-0.098l-0.015,-0.219l-0.029,-0.065l0.021,-0.043l0.076,-0.013l0.073,-0.121l0.164,-0.124l0.065,-0.103l0.024,-0.134l0.047,-0.076l0.125,-0.04l0.031,-0.042l-0.089,-0.153l-0.156,-0.142l-0.204,-0.079l-0.156,-0.013l-0.125,-0.053l-0.133,-0.016l-0.079,-0.029l0.003,-0.039l0.073,-0.066l0.099,-0.021l0.063,0.002l0.047,-0.052l0.026,-0.164l-0.048,-0.111l0.014,-0.158l0.097,-0.067l0.268,-0.028l0.091,-0.039l0.253,0.032l0.23,0.017l0.136,0.064l0.1,0.102l0.08,0.112l0.06,0.025l-0.035,-0.046l-0.077,-0.116l-0.104,-0.112l-0.157,-0.064l-0.246,-0.028l-0.275,-0.07l-0.265,0.021l-0.191,0.067l-0.132,0.095l-0.059,0.066l-0.118,0.078l-0.126,0.007l-0.128,-0.092l-0.094,-0.091l-0.115,-0.028l-0.083,0.028v0.07l-0.042,0.014l-0.209,-0.07l-0.069,-0.049l-0.129,-0.039l-0.003,-0.031l0.059,-0.021l0.066,0.017l0.031,0.046l0.056,0.021l0.128,0.003l0.025,-0.024l-0.059,-0.102v-0.046l-0.039,-0.024l-0.066,0.042h-0.045l-0.035,-0.127l-0.066,-0.091l-0.087,-0.025l-0.003,-0.052l0.205,-0.158l0.083,-0.032l0.077,0.032l0.129,-0.007l0.007,-0.018l-0.091,-0.01l-0.031,-0.043l-0.004,-0.063l-0.041,-0.031l-0.073,0.003l-0.063,-0.042l0.028,-0.095l-0.031,-0.074l0.034,-0.024l0.077,0.031l0.097,-0.017l0.111,0.014l0.046,-0.021l0.031,-0.042l-0.028,-0.011l-0.049,0.028l-0.107,-0.014l-0.153,-0.074l-0.126,-0.035l-0.08,0.011l-0.024,0.042l-0.045,0.007l-0.097,-0.025l-0.073,0.011l0.003,-0.032l0.07,-0.021l0.059,-0.088l-0.028,-0.003l-0.059,0.063l-0.077,0.004l-0.139,-0.028l-0.01,0.021l0.118,0.052l-0.014,0.032l-0.108,0.003l-0.045,0.032l-0.01,0.056l-0.073,0.004l-0.091,-0.035l-0.346,0.011l-0.081,-0.002l-0.111,0.053l-0.067,-0.013l-0.085,-0.063l-0.013,-0.064l-0.124,-0.097l-0.085,-0.028l-0.019,-0.049l0.04,-0.04l0.098,0.015l0.08,0.056l0.106,-0.002l0.042,-0.036l0.125,0.033l0.045,0.043h0.077l0.053,-0.043l0.021,-0.084l0.037,-0.036v-0.066l-0.035,-0.064l-0.066,-0.023l-0.077,-0.046l-0.167,-0.018l-0.079,0.021l-0.09,0.005l-0.051,0.059l-0.053,0.025l-0.016,0.054l-0.034,0.007l-0.133,-0.053l-0.047,-0.107l-0.003,-0.041l-0.09,-0.14l-0.006,0.023l0.048,0.099l0.008,0.087l0.005,0.099l0.088,0.14l-0.021,0.023l-0.072,-0.01l-0.098,-0.122l-0.024,0.007v0.049l-0.037,0.007l-0.058,-0.079l-0.021,0.005l-0.011,0.039l-0.058,0.002l-0.061,0.029l-0.112,0.03l-0.037,-0.013l-0.01,-0.038l-0.006,-0.041l-0.063,-0.051l-0.019,0.018l-0.005,0.066l0.018,0.028v0.039l-0.026,0.071l0.002,0.071l0.053,0.156l0.093,0.084l0.008,0.031l-0.066,0.015l-0.045,-0.026l-0.064,-0.007l-0.055,-0.107l-0.008,-0.112l0.047,-0.072v-0.171l-0.055,-0.122l-0.059,-0.049l-0.069,-0.022l-0.039,-0.026l-0.011,-0.048l-0.133,-0.12l-0.156,-0.097l-0.17,-0.049l-0.103,0.005v-0.022l0.111,-0.018l0.125,0.043l0.029,-0.013l-0.029,-0.041l-0.133,-0.025l-0.079,0.01l-0.011,-0.033l0.019,-0.074l0.037,-0.03l0.074,-0.021l0.053,-0.069l0.037,-0.066l0.035,-0.026h-0.035l-0.047,0.046l-0.072,0.085l-0.09,0.033l-0.064,0.081l-0.042,0.077l-0.045,0.018h-0.133l-0.066,0.03l-0.037,-0.01l-0.157,-0.14l-0.062,-0.108l-0.089,-0.053l-0.119,-0.025l-0.228,-0.016l-0.082,-0.043l-0.048,-0.003l-0.034,0.016l-0.04,-0.008l-0.114,-0.104l-0.051,-0.003l-0.084,0.051l-0.17,0.003l-0.064,-0.023l-0.087,0.005l-0.035,-0.016l-0.024,-0.046l-0.143,-0.145l-0.032,-0.104l-0.103,-0.102l-0.079,-0.056l-0.077,-0.008l-0.018,0.015l0.001,0.086l0.04,0.07l-0.006,0.028l-0.059,0.014l-0.128,0.001l-0.035,0.026l-0.034,-0.008l-0.074,-0.082l-0.04,-0.01l-0.072,0.008l-0.068,-0.005l-0.125,0.048l-0.05,0.051l-0.027,-0.015l0.013,-0.054l-0.033,-0.073l-0.022,-0.016l-0.014,0.011l0.033,0.083l-0.012,0.008l-0.038,-0.029l-0.028,-0.009l-0.007,0.014l0.047,0.058l0.025,0.046l0.052,0.034l0.017,0.027l-0.008,0.047l-0.049,0.067l-0.066,0.018l-0.045,-0.008l-0.032,0.005l-0.037,0.033h-0.159l-0.122,-0.033l-0.249,-0.005l-0.039,-0.062l0.007,-0.042l0.04,-0.028l0.036,0.007l0.025,-0.022l0.005,-0.127l-0.085,-0.218l-0.085,-0.139l-0.116,-0.133l-0.107,-0.085l-0.19,-0.095l-0.124,-0.041l-0.06,0.01l-0.025,0.034h-0.042l-0.092,-0.068l-0.103,-0.02l-0.017,-0.037h-0.029l-0.042,0.027l-0.156,-0.017l-0.162,-0.048l0.017,-0.027l0.057,-0.003l0.018,-0.034l-0.015,-0.051l0.029,-0.021l0.053,0.021l0.116,-0.034l0.156,-0.021l0.138,-0.051l0.063,0.004l0.025,0.023l0.039,-0.01l0.06,-0.041l0.152,-0.006l0.064,-0.031l0.152,-0.01l0.085,-0.034l0.123,-0.021l0.057,0.004l0.12,0.061l0.113,0.007l0.06,-0.051l0.014,-0.119l0.032,-0.051l-0.014,-0.055l-0.078,-0.061l-0.007,-0.075l-0.07,-0.088l-0.075,-0.027l-0.074,0.007l-0.06,-0.014l-0.049,-0.051l-0.174,-0.044l-0.067,-0.038l-0.085,-0.006l-0.081,0.023l-0.053,0.102l-0.039,0.113l-0.06,0.037l-0.032,0.048l-0.042,-0.014l0.014,-0.116l-0.035,-0.149l0.017,-0.041l0.039,-0.02l-0.003,-0.058l-0.057,-0.014l-0.081,0.017l-0.12,-0.034l-0.018,-0.044l0.014,-0.054l0.049,-0.014l0.057,0.034l0.064,-0.027l-0.011,-0.16l0.025,-0.068l0.102,-0.058l0.032,0.021l-0.042,0.071l-0.029,0.112l0.053,0.048l0.046,-0.024l0.057,-0.078l0.028,-0.004l-0.032,0.079l0.05,0.051l0.088,-0.011l0.082,-0.037l0.106,0.014l0.07,0.071h0.124l0.219,-0.092l0.156,-0.003l0.01,0.024l-0.053,0.034v0.03l0.089,-0.017l0.092,-0.051l-0.029,-0.041l-0.148,-0.054l-0.198,-0.007l-0.004,-0.027l0.11,-0.048l0.081,-0.068l-0.007,-0.044l-0.042,0.004l-0.043,0.04h-0.067l-0.102,0.031l-0.089,0.048l-0.099,0.02l-0.06,-0.027l-0.088,0.007l-0.028,-0.038l0.084,-0.149l0.138,-0.099l0.138,-0.068l0.089,-0.02l0.099,-0.058h-0.05l-0.163,0.051l-0.169,0.078l-0.057,-0.024l-0.035,0.014l-0.004,0.041l-0.056,0.013l-0.074,-0.003l-0.121,0.024l-0.116,0.081l-0.124,0.034l-0.138,0.075l-0.095,0.003l-0.159,-0.074l-0.092,0.017l-0.022,0.061l-0.063,0.03l-0.163,0.011l-0.053,-0.038l-0.025,-0.102l0.057,-0.075v-0.057l-0.081,-0.102l-0.007,-0.085l0.088,-0.184v-0.065l-0.053,-0.088v-0.058l0.11,-0.17l0.164,-0.127l0.149,-0.021l0.09,-0.02l0.045,0.008l0.029,-0.03l0.003,-0.091l0.026,-0.02l0.037,0.045l0.101,0.003l0.019,-0.025l-0.045,-0.073l0.037,-0.048l0.14,-0.025l0.056,0.03l0.13,-0.008l0.114,-0.068l0.045,-0.052l0.148,-0.036l0.096,-0.057l0.108,-0.011l0.114,0.033l0.014,0.05l-0.051,0.094l0.027,0.015l0.098,-0.058l0.115,-0.018h0.116l0.037,-0.01l-0.008,-0.02l-0.035,-0.018l0.003,-0.032l0.089,-0.071l0.049,-0.022l0.214,-0.035l0.105,0.011l0.071,0.025l0.06,-0.019l0.048,-0.06l0.077,-0.048l0.109,-0.015l0.05,-0.035l0.061,-0.005l0.019,0.027l-0.038,0.066l-0.005,0.052l0.029,0.081l0.053,0.033l0.014,0.06l0.039,0.002l0.074,-0.062l0.046,0.002l0.016,0.076l0.05,0.05l0.083,0.034l0.032,0.038l0.006,0.025h0.012l0.013,-0.041l-0.022,-0.035l-0.021,-0.059l-0.008,-0.073l0.02,-0.041l0.017,-0.072l0.037,-0.032l0.01,-0.039l0.046,-0.035h0.098l0.04,0.041l0.058,0.002l0.053,-0.017l0.138,0.01l0.074,0.065l0.083,0.003l0.1,-0.018l0.019,0.02l0.005,0.073l0.032,0.013l0.021,-0.038l0.059,-0.008l0.05,0.048l0.079,-0.002l0.019,-0.038l-0.003,-0.166l0.035,-0.055l0.055,-0.023l0.006,-0.055l-0.098,-0.088l-0.011,-0.071l0.032,-0.051l0.066,-0.029l0.064,-0.048v-0.063l0.103,-0.05l0.037,0.012l0.037,-0.005l0.024,-0.043h0.043l0.037,0.078l0.082,-0.002l0.029,0.028l-0.008,0.055l0.037,0.023l0.12,-0.016l0.037,-0.052l0.151,-0.078l0.095,-0.103l0.088,-0.01l0.042,0.025l0.103,-0.01l0.077,-0.068l0.064,0.002l0.03,0.091l-0.002,0.032l0.025,0.033l-0.007,0.089l-0.078,0.072v0.049l0.03,0.073v-0.031l-0.012,-0.052l0.014,-0.041l0.071,-0.065l0.023,-0.085l0.053,-0.063l0.033,-0.013l0.043,-0.037l0.095,-0.019l0.048,-0.035l0.13,-0.008l0.018,0.022l-0.017,0.037l0.008,0.033l-0.035,0.074l0.023,0.014l0.005,0.033l-0.037,0.074l-0.011,0.072l-0.038,0.051l-0.034,0.032l-0.005,0.033l0.041,0.003l0.04,-0.039l0.023,-0.104l0.022,-0.063l0.071,-0.053l0.076,0.009l0.08,-0.013l0.033,0.017l0.027,0.067l-0.001,0.023l-0.036,0.022l-0.074,0.027l-0.004,0.033l0.079,0.071l0.116,0.016l0.125,-0.013l0.041,0.037l0.037,0.005l0.005,0.022l-0.03,0.023v0.025l0.022,0.015l-0.004,0.027l-0.041,0.024l0.007,0.027l0.068,0.062l0.076,0.041l0.046,0.009l0.021,0.02l0.023,0.075l0.04,0.026l0.046,0.001l0.11,0.081l0.025,0.057l-0.002,0.042l0.028,0.095l-0.003,0.032l-0.025,0.029l0.021,0.031l0.046,0.009l0.035,0.023l0.039,0.002l0.036,0.023l0.023,0.051l0.097,0.05l0.104,0.017l0.002,0.023l-0.02,0.02l0.013,0.047l-0.004,0.037l0.055,0.061l0.03,0.072l0.037,0.035l0.016,-0.007l0.016,-0.087l-0.025,-0.07l0.011,-0.024l0.039,-0.007l0.053,0.039l0.06,0.007l0.023,-0.015l0.016,-0.046l0.088,-0.065l0.046,-0.05l0.053,-0.039l0.044,-0.069l0.046,-0.028l0.004,-0.03l0.017,-0.01l0.037,0.01l0.098,-0.015l0.127,-0.073l0.019,-0.05l-0.009,-0.033l-0.037,-0.032l0.02,-0.024l0.157,-0.025l0.065,0.02l0.015,0.029l0.028,0.005l0.095,-0.054l0.083,-0.017l0.124,-0.082l0.005,-0.042l0.018,-0.02l0.03,0.007l0.02,0.032l0.005,0.03l0.065,0.017v0.028l-0.067,0.123l-0.064,0.048l-0.03,0.012l0.004,0.015l0.039,0.005l0.035,0.024l0.037,-0.019l0.059,-0.077l0.132,-0.055l0.02,0.01l-0.018,0.05l0.028,0.045l0.013,0.041l0.058,0.048l0.014,0.039l0.026,0.016l0.006,0.078l0.019,-0.002l0.055,-0.086l0.014,-0.043h0.02l0.003,0.035l-0.012,0.039l0.016,0.043h0.031l0.043,-0.04l-0.002,-0.024l-0.018,-0.025l0.008,-0.035l0.084,-0.062l0.006,-0.027l-0.03,-0.011l0.001,-0.019l0.103,-0.042h0.033l0.048,0.019l0.106,-0.007l0.034,-0.017l0.042,0.002l0.011,0.018l-0.025,0.027l0.012,0.012l0.05,-0.002l0.021,0.027l-0.003,0.065l0.023,0.02l0.035,0.071l0.044,0.007l0.023,0.021l-0.003,0.026l-0.023,0.018l0.001,0.028l0.057,0.091l0.04,0.013l0.004,0.049l-0.034,0.04l-0.005,0.072l0.016,0.009l0.032,-0.029l0.009,-0.048l0.032,-0.015l0.021,0.01l0.021,-0.017l-0.011,-0.03l-0.039,-0.004l-0.012,-0.025l0.018,-0.033l-0.013,-0.036l-0.031,0.002l-0.008,-0.018l0.009,-0.022l-0.012,-0.025l-0.027,-0.025l-0.01,-0.039l0.018,-0.01l0.077,0.049l0.016,-0.005l-0.026,-0.039l0.005,-0.023l-0.023,-0.011l-0.032,0.005l-0.049,-0.015l-0.023,0.009l-0.043,-0.029l-0.01,-0.035l0.005,-0.027l-0.025,-0.04l0.004,-0.029l-0.034,-0.038l-0.024,-0.002l-0.002,-0.023l0.028,-0.071l0.018,-0.01l0.034,0.005l0.065,-0.033l0.03,-0.042l-0.009,-0.025l0.017,-0.019l0.096,0.006l0.041,-0.019l-0.005,-0.023l0.026,-0.016l0.059,0.002l0.022,0.01l0.084,-0.004l0.026,-0.026l0.024,-0.002l0.033,0.008l0.052,-0.016l0.041,-0.032l0.021,0.003l-0.006,0.049l0.021,0.038l0.024,0.022l-0.003,0.024l-0.08,0.046l-0.027,0.044l-0.014,0.044l0.003,0.037l0.041,0.073l0.067,0.049l0.131,0.035l0.137,0.012l0.056,-0.015h0.106l0.045,0.011l0.065,-0.004l0.101,-0.032l0.058,-0.004l0.107,-0.052l0.034,-0.043l0.07,-0.028l0.061,-0.002l0.046,-0.016l0.124,0.008l0.033,0.019l0.019,0.028l0.075,0.006l0.038,-0.047l0.031,0.001l0.02,0.011l0.156,-0.002l0.056,-0.017l0.038,-0.043l-0.017,-0.008l-0.045,0.008l-0.056,0.002l-0.018,-0.011l-0.009,-0.032l-0.196,-0.084l-0.015,-0.024l0.001,-0.03l-0.052,-0.099l-0.01,-0.048l-0.04,-0.034l-0.076,-0.011l-0.069,-0.055l-0.01,-0.051l0.015,-0.073l0.002,-0.147l-0.019,-0.082l-0.048,-0.057l-0.04,-0.012l-0.034,0.001l-0.007,-0.012l0.032,-0.024l0.041,-0.011l0.039,-0.068l0.041,-0.223l0.004,-0.087l0.017,-0.024l0.017,0.003l-0.01,0.04l0.007,0.048h0.019l0.024,-0.045l0.007,-0.074l-0.024,-0.021l-0.026,0.001l-0.016,-0.014l0.002,-0.146l-0.005,-0.116l0.012,-0.014l0.02,0.01l0.011,-0.014l-0.017,-0.053l0.01,-0.072l0.036,-0.024l0.059,0.005l0.055,0.036l0.005,-0.008l-0.045,-0.039l-0.07,-0.016l-0.055,0.007l-0.04,0.035l-0.032,0.063l0.001,0.04l0.012,0.022l-0.006,0.011l-0.035,-0.021l-0.052,-0.118l-0.013,-0.118l0.016,-0.053l-0.005,-0.028l-0.038,-0.055l-0.007,-0.096l0.051,-0.108l0.006,-0.09l-0.017,-0.141l-0.03,-0.081l-0.003,-0.028l0.01,-0.03l-0.001,-0.022l-0.024,-0.034l0.013,-0.015l0.038,0.008l0.083,-0.02l0.001,-0.019l-0.025,-0.029l-0.028,-0.003l-0.019,0.011h-0.024l-0.025,-0.012l-0.021,0.002l-0.027,0.032l-0.011,0.057l-0.019,0.001l-0.05,-0.044l-0.052,-0.108l-0.012,-0.057l-0.036,-0.062l-0.082,-0.087l-0.067,-0.122l-0.041,-0.026l-0.083,-0.107l-0.106,-0.107l-0.051,-0.022l-0.028,0.007l-0.06,-0.016l-0.067,-0.115l-0.009,-0.108l0.004,-0.163l-0.03,-0.075l-0.048,-0.055l-0.016,-0.066l0.002,-0.079l-0.03,-0.025l-0.069,-0.03l-0.035,-0.065l0.014,-0.054l0.095,-0.055l0.057,-0.079l0.003,-0.151l-0.03,-0.154l-0.054,-0.098l-0.087,-0.05l-0.117,-0.036l-0.066,-0.012l-0.011,-0.027l0.02,-0.033l0.003,-0.034l-0.024,-0.051l0.005,-0.08l0.024,-0.045l0.058,-0.003l0.094,0.055l0.026,0.044l0.042,0.003l0.061,-0.047l0.042,0.004l0.063,0.042l0.026,0.069l0.03,0.017l0.11,0.018l0.064,0.033l0.103,0.014l0.068,-0.012l0.055,0.008l0.022,0.028l0.032,0.003l0.026,-0.008l0.019,0.015l0.007,0.03l0.044,0.021l0.075,0.005l0.047,-0.007l0.031,0.017l0.021,0.054l0.033,-0.001l0.021,-0.039l0.026,-0.007l0.037,0.007l0.082,-0.019l0.087,0.005l0.072,-0.01l0.126,-0.069l0.049,-0.065l-0.004,-0.035l0.016,-0.019l0.066,0.013l0.047,-0.007l0.096,-0.051l0.089,-0.01l0.133,0.007l0.063,0.024l0.183,0.038l0.058,-0.012l0.026,0.009l0.007,0.047l-0.007,0.026l0.01,0.031l0.094,0.083l0.006,0.023l-0.009,0.019l0.04,0.113l0.007,0.096l-0.019,0.003l-0.04,-0.022l-0.04,0.006l-0.035,0.07v0.033l-0.035,0.012h-0.063l-0.045,0.052l-0.02,0.091l0.002,0.071l0.056,0.108l0.11,0.1l0.059,0.092l0.086,0.077l0.073,0.091l0.096,0.085l0.047,0.075l0.009,0.094l-0.012,0.027l-0.032,0.021l-0.026,0.072l-0.007,0.057l-0.014,0.027l-0.054,0.045l0.021,-0.003l0.049,-0.032l0.042,-0.067l0.043,-0.025l0.054,0.003l0.088,0.071l0.014,-0.009l-0.002,-0.047l0.01,-0.033l0.089,-0.084l0.075,-0.035l0.114,0.004l0.04,-0.002l0.073,-0.022l0.201,-0.007l0.091,0.015l0.112,0.059l0.209,0.087l0.174,0.047l0.231,0.022l0.324,0.008l0.09,0.023h0.132l0.079,-0.02l0.211,0.005l0.164,0.034l0.185,0.008l0.122,0.03l0.098,0.039l0.131,0.083l0.125,0.051l0.105,0.005l0.028,0.011l0.009,0.047l0.028,0.015l-0.006,0.012l-0.033,0.013l-0.015,0.034l0.005,0.023l0.014,-0.007l0.007,-0.016l0.052,-0.009l0.019,-0.025l-0.007,-0.047l-0.042,-0.018l0.002,-0.017l0.033,-0.015l0.065,0.002l0.047,0.013l0.182,-0.006l0.242,-0.081l0.075,-0.006l0.19,-0.074l0.149,-0.085l0.105,-0.086l0.026,-0.033l0.047,-0.015l0.103,-0.109l0.084,-0.052l0.193,-0.053l0.128,-0.062l0.092,-0.01l0.232,-0.007l0.259,-0.037l0.213,-0.08l0.202,-0.11l0.038,-0.012l0.051,0.003l0.037,0.017l0.176,0.181l0.082,0.051l0.082,0.002l0.096,-0.058l0.054,-0.054l-0.033,0.01l-0.044,0.037l-0.078,0.045l-0.068,-0.005l-0.072,-0.042l-0.167,-0.179l-0.055,-0.032l-0.066,-0.008l-0.054,0.02l-0.208,0.114l-0.192,0.07l-0.206,0.032l-0.078,-0.005l-0.218,-0.05l-0.112,-0.014l-0.136,-0.011l-0.176,-0.045l-0.046,-0.049l-0.017,-0.047l-0.067,-0.077l-0.059,-0.025l-0.014,-0.043l0.039,-0.116l0.094,-0.164l0.019,-0.06l0.075,-0.109l0.087,-0.16l0.009,-0.076l0.023,-0.057l0.017,-0.08l0.032,-0.056l0.118,-0.087l0.06,-0.026l0.061,-0.005l0.085,-0.035l0.11,-0.061l0.115,-0.017l0.102,-0.056l0.04,-0.034l0.008,-0.026l0.028,-0.021l0.061,-0.011l0.149,-0.066l0.103,-0.071l0.127,-0.059l0.063,-0.047l0.04,-0.01l0.098,-0.08l0.122,-0.068l0.08,-0.014l0.067,-0.031l0.136,-0.037l0.08,-0.008l0.068,-0.023h0.056l0.016,0.019l0.199,-0.008l0.106,-0.023l0.075,-0.037l0.047,-0.027l0.061,-0.002l0.267,-0.073l0.1,-0.042l0.031,-0.026l0.037,-0.009l0.089,0.011l0.147,-0.002l0.157,-0.05l0.033,-0.031l0.059,-0.023h0.04l0.191,-0.087l0.078,-0.043l0.042,-0.009l0.047,-0.028l0.014,-0.038l0.04,-0.028l0.035,-0.005l0.091,-0.066l0.073,-0.073l0.108,-0.08l0.042,-0.017l0.033,-0.026l0.028,-0.037l0.137,-0.085l0.041,-0.007l0.034,-0.026l0.026,-0.04l0.122,-0.075l0.101,-0.097l0.061,-0.12l0.066,-0.119l0.07,-0.099l0.116,-0.107l0.097,0.008l0.047,0.057l0.05,0.021l0.047,0.039l0.032,0.005l-0.027,-0.067l0.003,-0.063l-0.089,-0.167l-0.039,-0.026l-0.089,-0.013l-0.063,-0.049l-0.008,-0.12l0.045,-0.278l0.039,-0.039l0.133,-0.016l0.011,-0.018l-0.079,-0.044l-0.015,-0.045l-0.071,-0.052l0.003,-0.06l0.044,-0.112l0.034,-0.283l0.025,-0.189l0.031,-0.044h0.031l0.029,0.016l0.019,-0.011l-0.006,-0.039l-0.091,-0.091l-0.016,-0.141l0.005,-0.237l-0.031,-0.078l-0.032,-0.214l0.006,-0.049l0.031,-0.076l0.068,-0.062l0.05,-0.165l0.006,-0.134l-0.086,-0.276l-0.008,-0.084l0.018,-0.026h0.113l0.144,-0.049l0.107,-0.112l0.057,-0.089l0.163,-0.13l0.188,-0.068l0.115,-0.013l0.152,-0.06l0.029,-0.031l0.026,-0.006l0.042,0.029l0.042,-0.005l0.079,-0.039l0.246,-0.047l0.191,-0.018l0.06,-0.042l0.178,-0.063l0.204,-0.026l0.042,0.029l0.021,0.07l0.016,-0.021l0.002,-0.083l0.029,-0.065l0.032,-0.005l0.047,0.021l0.17,-0.045h0.073l0.199,-0.049l0.149,0.021l0.176,-0.039l0.234,-0.078l0.23,-0.088l0.051,0.086l0.063,0.287l-0.018,0.026l0.014,0.042l0.072,0.043l0.041,0.006l0.012,0.013l0.007,0.058l0.081,0.158l-0.014,0.026l-0.041,0.014l-0.103,0.101l0.007,0.017l0.028,-0.002l0.017,0.025l0.016,0.208l-0.038,0.097l0.015,0.018l0.037,-0.005l0.025,0.012l0.007,0.05l0.031,0.084l0.042,0.019l0.053,-0.008l0.025,-0.045l0.022,0.005l0.041,0.036l0.086,0.006l0.033,-0.006l0.039,0.033l-0.006,0.044l0.02,0.043l0.036,0.007l0.035,0.047l0.004,0.038l0.037,0.038l0.051,0.018l0.033,0.04l0.002,0.057l0.045,0.063l0.07,0.045h0.034l0.098,-0.018l0.033,0.014l0.055,0.083l0.04,0.005l0.026,-0.005l0.049,0.056l0.034,-0.007l-0.006,-0.035l0.022,-0.014l0.033,-0.004l0.023,-0.038l-0.004,-0.062l0.019,-0.026l0.037,0.001l0.014,-0.017l-0.026,-0.059l0.032,-0.037l0.098,0.002l0.038,-0.045l0.111,-0.057h0.066l0.071,-0.025l0.087,0.025l0.046,-0.013l0.047,-0.041l0.018,-0.04l0.022,-0.002l0.036,0.03l0.07,-0.007l0.031,0.014l0.053,0.08l0.042,0.034l0.029,0.062l0.036,0.023l0.049,0.116l0.039,0.015l0.086,-0.007l0.054,0.053l0.004,0.052l-0.015,0.021l0.017,0.039l-0.006,0.029l-0.061,0.029l0.002,0.067l0.021,0.044l-0.004,0.041l0.036,0.045l0.005,0.047l0.051,0.058l0.019,0.088l0.008,-0.003l-0.006,0.124l0.004,0.065l0.047,0.068l0.127,0.054l0.017,0.025l0.113,0.023l0.037,0.061l0.027,0.003l0.054,-0.032l0.13,-0.034l0.026,-0.018l0.048,-0.006l0.023,-0.051l0.07,-0.069l0.028,-0.004l0.044,0.023l0.038,-0.007l0.059,0.033l-0.01,0.063l-0.049,0.023l-0.019,0.045l0.002,0.048l0.023,0.006l0.075,-0.035l0.155,-0.024l0.048,0.02l0.015,0.021l0.041,0.001l0.037,-0.026l0.024,0.005l0.078,0.072l0.003,0.038l0.041,0.041l0.044,0.011l0.031,0.053l-0.018,0.026l0.003,0.022l0.033,0.032l0.005,0.109l0.02,0.054l-0.005,0.079l-0.056,0.079l0.004,0.022l0.044,0.021l0.006,0.02l-0.002,0.049l0.036,0.039l0.003,0.04l0.054,0.053l0.016,0.05l0.051,0.048l0.021,-0.004l-0.005,-0.039l-0.024,-0.027l0.011,-0.009l0.034,0.017l0.01,0.028l0.018,0.007l0.018,-0.017l-0.011,-0.032l0.025,-0.123l0.046,-0.042l0.038,0.016l0.023,-0.006l0.026,-0.019l0.089,0.004l0.028,-0.014l0.033,0.011l0.003,0.033l0.023,-0.001l0.026,-0.036h0.07l0.085,0.071l0.032,0.004l0.026,-0.013l0.022,0.003l0.006,0.04l-0.023,0.022l0.007,0.011l0.073,-0.007l0.218,-0.112l0.011,0.009l-0.014,0.026l0.007,0.008l0.036,-0.016l0.046,-0.002l0.08,-0.029l0.022,-0.034l0.031,-0.003l0.028,0.026l0.011,0.043l0.031,0.022h0.027l0.021,0.017l0.02,0.036l0.056,0.045l-0.005,0.049l0.012,0.01l0.065,-0.014l0.07,0.044l0.04,0.072l-0.013,0.071l0.013,0.012l0.024,-0.007l0.012,0.015l-0.001,0.052l0.014,0.013l0.064,0.005l0.038,-0.02l-0.001,-0.036l-0.058,-0.033l-0.003,-0.024l0.037,-0.045h0.035l0.023,0.026l0.009,0.033l0.018,0.017l0.089,0.001l0.041,0.06l-0.001,0.058l-0.058,0.046l-0.039,0.007l-0.071,0.106l-0.078,0.024l-0.002,0.026l0.03,0.037l-0.014,0.09l-0.027,0.025l0.003,0.021l0.021,0.013l-0.009,0.055l-0.069,0.053l-0.026,0.06l0.009,0.034l0.07,0.016l0.042,-0.034l0.068,0.009l0.056,-0.011l0.018,0.014l-0.005,0.035l0.009,0.058l-0.016,0.023l0.004,0.017l0.03,-0.001l0.005,0.015l-0.016,0.015l0.005,0.017l0.033,0.008l0.048,0.055l0.016,0.046l-0.008,0.047l-0.06,0.036l-0.049,0.009l-0.024,0.033l-0.065,0.019l-0.037,-0.018l-0.018,0.002l-0.087,0.148l0.002,0.043l0.035,0.026l0.001,0.019l0.029,0.01l0.017,-0.01l0.02,0.011l-0.003,0.032l-0.029,0.036l-0.045,0.022v0.023l0.038,0.011l0.047,-0.011l0.112,0.052l-0.001,0.051l0.014,0.007l0.032,-0.018l0.099,0.004l0.113,-0.033l0.108,0.003l0.04,-0.024l0.021,0.002l0.041,0.026l0.04,-0.003l0.032,0.014l0.025,0.042l0.091,0.005l0.038,-0.008l0.095,0.019l0.119,0.054l0.044,-0.002l0.097,-0.042l0.112,-0.005l0.058,-0.024l0.058,-0.072l0.08,-0.01l0.039,-0.052l0.063,-0.03l0.147,-0.005l0.102,-0.035l0.058,-0.006l0.075,0.006l0.007,-0.015l-0.04,-0.023l-0.004,-0.123l0.056,-0.132l-0.01,-0.023l-0.033,-0.002l-0.02,-0.041l0.027,-0.07l0.059,-0.08l0.053,-0.038l0.114,-0.038l0.01,-0.021l-0.015,-0.024l0.003,-0.014l0.039,-0.004l0.003,-0.047l0.016,-0.026l0.093,-0.033l0.077,-0.057l0.047,-0.07l0.013,0.006l-0.002,0.05l0.033,0.03l0.091,0.005l0.051,-0.014l0.027,0.016l0.007,0.052l0.047,0.008v0.021l-0.091,0.056l-0.007,0.036l0.019,0.052l-0.014,0.028v0.021l0.019,0.016l-0.007,0.033h-0.019l-0.032,-0.03l-0.001,-0.031l-0.028,-0.009l-0.046,0.028v0.023l0.018,0.027l-0.02,0.077l-0.065,0.019l-0.014,0.029l0.016,0.011l0.023,-0.007l0.012,0.016l-0.017,0.031l0.014,0.021l0.04,0.001l0.002,0.035l-0.02,0.023l-0.026,0.003l-0.037,0.045l-0.007,0.159l-0.043,0.045l-0.048,0.005l-0.019,0.062l0.014,0.06l0.137,0.045l0.04,-0.009l0.044,0.019l0.026,0.078l0.084,0.042v0.036l0.037,0.028l-0.005,0.021h-0.035l-0.005,0.019l0.028,0.012l-0.006,0.021l-0.029,0.009l-0.057,0.101l0.009,0.029l-0.016,0.012l-0.038,-0.008l-0.011,0.015l0.042,0.108l0.037,0.021l0.002,0.062l0.026,0.025l-0.003,0.024l-0.032,0.018l-0.038,0.093l0.022,0.025l0.053,-0.019l0.119,0.033l0.081,-0.013l0.058,-0.053l0.033,-0.018l0.044,0.011l0.116,0.008l0.054,0.089l0.1,0.05l0.091,0.016l0.014,0.029l0.039,0.006l0.044,-0.026l0.028,0.01l0.029,0.063l0.05,0.059l0.024,0.066l-0.009,0.038l0.025,0.026l0.054,0.005l0.042,-0.026l0.041,0.021l0.003,0.035l-0.014,0.054l0.023,0.015l0.047,-0.014l0.095,0.002l0.028,0.023l0.033,0.003l0.099,-0.01l0.024,-0.018h0.046l0.051,0.054l0.087,0.056l0.088,0.081l-0.002,0.026l-0.037,0.016l-0.049,0.07l-0.007,0.048l0.021,0.063l0.023,0.003l0.025,-0.026l0.047,-0.002l0.023,-0.024l0.003,-0.043l0.028,-0.004l0.056,0.035l0.109,0.028l0.04,0.047l0.081,0.057l0.04,0.136l0.058,0.01l0.004,0.021l-0.051,0.057l0.003,0.023l0.079,0.04l0.002,0.054l-0.054,0.038l0.003,0.029l0.051,0.025l0.005,0.057l0.023,0.009l0.028,-0.019v-0.028l0.025,-0.016l0.056,0.007l0.067,-0.009l0.084,-0.041l0.01,-0.039l0.044,-0.02l0.135,0.033l0.037,0.029l0.003,0.044l0.028,0.008l0.036,-0.054l-0.02,-0.048l0.009,-0.032l0.096,-0.076l0.076,-0.012l0.133,0.05l0.065,0.004l0.019,-0.023l0.034,0.002l0.031,0.028l0.049,-0.014l0.016,-0.089l0.06,-0.019l0.072,0.061l0.056,0.005l0.036,0.028l-0.008,0.019l0.01,0.02l0.071,-0.006l0.02,0.036l-0.023,0.038l0.01,0.033l0.115,0.09l0.094,0.012l0.057,-0.023l0.128,0.008l0.091,0.043l0.013,0.051l-0.01,0.041l0.018,0.041l0.042,0.008l0.002,0.02l-0.013,0.021l0.012,0.004l0.048,-0.012l0.084,0.005l0.026,0.025l0.041,0.003l0.063,-0.082l0.068,0.005l0.049,0.051l0.029,-0.005l0.015,-0.071l0.068,-0.028l0.021,-0.069l0.031,-0.013l0.042,0.005l0.042,-0.017l-0.005,-0.041l0.067,-0.036l0.032,0.018l0.106,-0.003l0.092,-0.022l0.146,0.04l0.078,0.1l0.109,0.058l0.084,0.023l0.026,0.028l0.028,0.005l0.01,-0.036l0.095,0.016l0.066,-0.018l0.034,-0.046l0.047,-0.002l0.025,0.038l0.057,0.026l0.047,-0.002l0.082,0.054l0.046,0.013l0.084,0.07l0.057,0.008l0.063,0.059l-0.004,0.021l-0.035,0.001l-0.033,0.035l0.023,0.046l0.073,0.057l0.049,0.006l0.038,0.024l-0.014,0.065l0.016,0.007l0.027,-0.012l0.02,0.021l-0.007,0.033l-0.026,0.015l-0.002,0.033h-0.016l-0.04,-0.041l-0.033,0.01l0.011,0.057l0.038,0.038l0.038,0.009l0.014,0.024l-0.019,0.031l0.007,0.031l0.087,0.074l0.041,0.002l0.091,0.069l0.001,0.035l0.02,0.003l0.024,-0.01l0.028,0.017l-0.014,0.06l-0.019,0.026l0.012,0.035l0.05,-0.002l0.038,0.033l-0.003,0.131l0.043,0.026l0.059,-0.017l0.033,0.007l0.02,0.053l-0.051,0.111l0.016,0.065l0.078,0.047l0.132,-0.031l0.073,0.007l0.13,0.058l0.049,-0.013l-0.009,-0.061l0.018,-0.019l0.034,-0.003l0.018,-0.031l-0.047,-0.059l-0.026,-0.064l0.015,-0.036l0.051,-0.021l0.125,0.055l0.068,-0.029l0.033,-0.033l0.062,0.002l0.012,0.034l0.046,0.042l0.036,0.003l0.05,-0.012l0.073,0.036l0.03,0.038l0.085,0.007l0.021,0.033l-0.016,0.083l0.007,0.073l0.052,0.065l0.006,0.059l-0.013,0.036l0.042,0.035l0.049,-0.004l0.021,-0.055l0.043,-0.021l0.005,-0.031l-0.029,-0.062l0.019,-0.026l0.09,-0.009l0.011,0.025l-0.025,0.026l0.004,0.022l0.078,0.003l0.03,0.026l0.003,0.033l0.08,0.021l0.04,-0.028h0.055l0.049,0.052h0.019l0.03,-0.029l0.125,-0.019l0.111,0.026l0.056,0.041l0.029,-0.01l0.061,-0.092l0.082,-0.046l0.083,0.008l0.016,-0.021l-0.002,-0.041l0.021,-0.04l-0.005,-0.034l0.02,-0.014l0.244,-0.059l0.014,0.011l-0.018,0.02l0.009,0.031l-0.024,0.023l0.007,0.015l0.053,-0.007l0.026,0.019l0.033,-0.001l0.039,-0.028l0.066,0.005l0.014,0.049l0.029,0.02l-0.003,0.028l-0.054,0.031l0.002,0.028l0.039,0.02l0.018,0.038l0.042,0.028l0.053,0.107l0.103,0.069l0.04,0.002l0.087,-0.021l0.081,0.036l0.037,0.009l0.017,0.09l0.153,0.045l0.066,-0.012l0.011,-0.016l-0.018,-0.017l0.011,-0.014l0.066,0.016l0.05,-0.006l0.019,0.011l0.023,0.046l0.083,-0.007l0.04,-0.022l0.035,-0.05l0.05,-0.017l0.054,0.012l0.092,0.086l0.061,0.019l0.026,0.035l0.042,0.003l0.076,-0.053l0.077,0.005l0.014,0.019l0.022,-0.002l0.052,-0.073l0.044,0.009l0.008,0.028l0.096,0.062l0.009,0.041l0.034,0.011l0.056,-0.012l0.174,0.058l0.088,0.09l0.085,0.043l0.113,0.018l0.084,0.039l0.071,0.002l0.016,-0.012l0.087,0.014l0.005,0.031l0.021,0.003l0.069,-0.024l0.044,0.038l-0.138,0.054l-0.203,0.298l-0.096,0.223l-0.055,0.171l-0.077,0.085l-0.055,0.029l-0.087,-0.005l-0.045,0.039l-0.016,0.078l-0.035,0.03l-0.118,-0.002l-0.035,0.022l-0.015,0.14l-0.287,0.309l-0.179,0.099l-0.059,0.141l-0.061,0.095l-0.017,0.055l-0.004,0.254l0.011,0.062l-0.035,0.068l-0.081,0.036l-0.023,0.05l-0.011,0.133l-0.115,0.246l-0.01,0.093l0.045,0.244l-0.04,0.06l-0.115,0.05l-0.035,0.036l-0.1,0.34l-0.08,0.091l-0.065,0.119l-0.063,0.122l0.006,0.079l-0.023,0.034l-0.057,0.042l-0.005,0.036l0.007,0.048l-0.007,0.045l-0.035,0.043l-0.003,0.073l0.012,0.074l0.002,0.043l-0.021,0.042l0.005,0.031l0.123,0.084l0.052,0.091l-0.005,0.064l-0.054,0.078l-0.087,0.074l-0.021,0.071l0.007,0.097l-0.021,0.046l-0.056,0.038l-0.022,0.063l0.031,0.101l-0.017,0.07l-0.044,0.069l-0.014,0.067l-0.05,0.097l0.003,0.093l0.085,0.126l-0.007,0.078l-0.048,0.05l-0.073,0.048l-0.004,0.043l0.032,0.055l-0.006,0.057l0.028,0.063l0.066,0.023l0.061,0.026l0.034,0.045l-0.003,0.043l0.021,0.033l0.044,0.017l0.013,0.03l-0.014,0.058l-0.006,0.071l-0.024,0.009l-0.046,-0.006l-0.037,0.029l-0.002,0.027l-0.138,0.084l-0.05,0.013l-0.025,0.037l0.013,0.022l0.067,-0.005l0.031,0.01v0.027l-0.029,0.03h-0.039l-0.012,0.027l0.011,0.049l-0.017,0.032l-0.062,0.057h-0.062l-0.04,-0.034l-0.04,-0.011l-0.048,-0.028l-0.061,0.068l0.01,0.009l0.033,-0.005l0.083,0.043l-0.031,0.048l-0.049,0.006l-0.025,0.019l-0.018,0.05l-0.063,0.031l-0.008,0.018l-0.09,0.007l-0.095,-0.007l-0.051,-0.025l-0.126,0.008l-0.076,0.023l-0.045,0.035l-0.069,0.022l-0.024,-0.011l-0.037,-0.062l-0.027,-0.011l-0.099,0.02l-0.041,-0.023l-0.057,-0.005l-0.01,-0.019l0.028,-0.112l0.05,-0.085l0.033,-0.022l-0.009,-0.009l-0.059,0.017l-0.076,0.002l-0.085,-0.049l-0.038,-0.003l-0.053,0.034l-0.079,-0.001l-0.048,0.034l-0.021,-0.003l-0.018,-0.018l-0.138,-0.035l-0.04,-0.016l-0.127,0.04l-0.003,0.023l0.027,0.115l0.026,0.014v0.058l-0.028,0.024l-0.067,0.001l-0.021,0.018l-0.001,0.032l-0.024,0.019l-0.058,-0.004l-0.016,0.019l0.007,0.091l-0.018,0.017l-0.069,0.006l-0.024,0.044l0.004,0.034l-0.012,0.015l-0.057,0.016l-0.04,0.042l-0.015,0.102l0.015,0.008l0.055,-0.027l0.032,-0.004l0.054,0.016h0.023l0.028,-0.016l0.214,-0.023l0.058,-0.038l0.03,-0.007l0.068,0.023l0.045,0.035l0.014,0.061l0.021,0.026l-0.029,0.054l-0.036,0.015l-0.112,0.002l-0.005,0.018l0.02,0.014l0.002,0.033l-0.032,0.053l-0.051,0.02l-0.057,0.006l-0.022,0.016h-0.078l-0.018,0.02l0.018,0.089l-0.007,0.064l0.029,0.035l-0.004,0.02l-0.049,0.027l-0.024,0.034l-0.093,0.045l-0.105,0.11l-0.034,0.073l-0.104,0.054l0.004,0.023l0.047,0.005v0.019l-0.164,0.169l-0.12,0.058l-0.055,0.001l-0.059,0.049l-0.025,-0.002l-0.01,0.01l0.022,0.047l-0.005,0.023l-0.026,0.011l-0.04,-0.004l-0.071,0.036l-0.007,0.037l-0.04,0.024l-0.001,0.02l0.09,0.052l-0.002,0.019l-0.081,0.062l-0.062,0.001l-0.072,0.041l-0.068,0.11l-0.082,0.052h-0.087l-0.083,0.043l-0.188,0.039l-0.031,0.026l-0.021,-0.004l-0.025,-0.035l-0.021,0.001l-0.058,0.05l-0.088,0.111l-0.07,0.039v0.023l0.085,0.093l0.024,0.066l-0.017,0.215l-0.061,0.084l-0.006,0.068l-0.032,0.031l0.005,0.032l0.089,0.065l-0.018,0.062l-0.101,0.089l-0.109,0.03l-0.022,0.026l-0.003,0.032l-0.025,0.02l-0.045,0.014l-0.037,0.026l-0.027,0.037l-0.245,0.126l-0.048,0.039l-0.014,0.029l-0.142,0.131l-0.036,0.01l-0.044,0.04l-0.039,0.021l-0.059,0.052l-0.008,0.024l-0.062,0.024l-0.083,0.057l-0.098,0.09l0.166,0.145l-0.024,0.024l0.014,0.014l-0.04,0.038l-0.019,-0.014l-0.079,0.081l-0.07,0.141l-0.082,0.065v0.066l0.037,0.024l-0.001,0.029l-0.04,0.036l-0.036,0.059l0.01,0.022l0.105,0.027l0.016,0.039l0.028,0.012h0.032l0.071,0.045l0.051,0.045l0.039,0.002l0.029,0.033v0.025l-0.033,0.036l-0.004,0.029l-0.042,0.041l-0.034,0.012l-0.01,0.012l-0.001,0.034l-0.044,0.046l-0.009,0.069l-0.011,0.033l-0.044,0.033l0.003,0.042l0.057,0.063l0.006,0.058l-0.044,0.052l-0.036,0.004l-0.058,-0.033l-0.082,0.012l-0.043,0.044l-0.029,0.004l-0.037,-0.016l-0.091,0.035l-0.025,0.031l-0.043,0.019l-0.041,0.004l-0.028,0.038l-0.016,0.036l0.011,0.023l0.081,0.03l0.015,0.031l-0.025,0.044l-0.036,-0.005l-0.052,0.112l0.003,0.037l-0.033,0.031l0.004,0.016l0.066,-0.012l0.032,-0.049l0.043,-0.011l0.027,0.012l0.082,0.003l0.04,0.023l0.033,-0.016l0.016,-0.046l0.051,-0.008l0.1,0.005l0.031,0.03l0.095,0.015l0.064,-0.014l0.058,-0.042l0.069,-0.025l0.037,-0.039l0.008,-0.056l0.057,-0.052l0.099,-0.06l0.067,-0.005l0.031,-0.021l0.08,-0.025l0.054,-0.049l0.052,-0.077l0.002,-0.046l-0.017,-0.005l-0.023,0.008l-0.017,-0.012l0.011,-0.03l-0.013,-0.005l-0.038,0.048l-0.038,0.026l-0.033,-0.006l-0.094,-0.098l-0.003,-0.045l0.047,-0.032l-0.013,-0.056l-0.103,-0.047l0.12,-0.217l0.309,-0.199l0.333,-0.054l0.339,-0.185l0.613,0.01l0.496,0.122l-0.062,0.183l0.015,0.033l-0.041,0.056l-0.063,0.005l-0.028,0.028l0.008,0.058l0.106,0.107l0.192,0.132l0.037,0.061l-0.011,0.084l-0.031,0.054l-0.057,0.03l-0.109,0.173l0.021,0.084l-0.034,0.074l-0.044,0.035l0.039,0.117l0.067,0.026l0.104,-0.008l0.159,0.023l0.028,0.036l-0.015,0.076l-0.029,0.048l-0.008,0.077l-0.041,0.091l0.033,0.036l0.086,-0.013l0.073,-0.071l0.036,-0.013l0.019,0.018l0.001,0.038l0.049,0.031l0.024,0.064l0.083,0.07l0.018,0.057l0.039,0.023l0.034,-0.004l0.021,0.023l0.004,0.036l0.035,0.034l-0.006,0.019l-0.033,0.007l-0.008,0.028l0.034,0.035l0.053,0.015l0.02,0.028l-0.005,0.062l0.007,0.081z"/>
</svg>
