<svg xmlns="http://www.w3.org/2000/svg" viewBox="622.579 242.466 49.147 41.226">
  <path d="M667.273,278.393l0.005-0.017l0.032-0.007l0.075,0.024l-0.006,0.014l-0.033,0.003l-0.061-0.006L667.273,278.393z M667.299,278.442l0.018,0.001l0.019-0.006l-0.006-0.011l-0.033-0.001l-0.01,0.008L667.299,278.442z M636.66,273.606l0.029-0.003l0.021-0.021l-0.016-0.026l-0.031,0.003l-0.016,0.029L636.66,273.606z M638.656,270.857l-0.008-0.042l0.021-0.047l0.026,0.003l0.016,0.068l0.003,0.083l-0.021,0.008L638.656,270.857z M636.652,273.695l0.094-0.117l0.026,0.003l-0.018,0.05l-0.06,0.076l-0.031,0.01L636.652,273.695z M636.926,273.137l-0.021-0.031l0.023-0.021l0.042,0.013l0.023,0.029l-0.018,0.018L636.926,273.137z M636.955,269.056v-0.034l0.031-0.008l0.018,0.036l-0.023,0.018L636.955,269.056z M638.753,271.104l-0.016-0.091v-0.076l0.016,0.003l0.023,0.122l0.003,0.065L638.753,271.104z M639.097,271.676l-0.016,0.003l-0.109-0.092l-0.109-0.149l-0.045-0.042l-0.014-0.024l-0.002-0.036l0.012-0.005l0.05,0.047l0.078,0.108l0.085,0.09L639.097,271.676z M660.868,279.435h0.046l0.014,0.018l-0.043,0.012l-0.012,0.022l-0.04,0.028l-0.026,0.035l-0.015,0.003l-0.003-0.032l0.04-0.037l0.011-0.03L660.868,279.435z M661.109,279.918l0.023-0.012l0.043,0.008l0.014,0.015l-0.012,0.014l-0.06-0.011L661.109,279.918z M660.947,279.778l0.021-0.006l0.026,0.011l0.004,0.015l-0.014,0.008l-0.037-0.014V279.778z M660.57,279.846l0.005-0.011l0.012-0.001l0.006,0.01l-0.012,0.007L660.57,279.846z M661.065,279.832l0.03,0.011l0.008,0.012l-0.012,0.006l-0.037-0.012l-0.006-0.012L661.065,279.832z M661.15,279.872l0.018,0.008l0.015,0.012l-0.014,0.004l-0.019-0.007l-0.011-0.015L661.15,279.872z M662.028,280.012l0.017,0.018l-0.008,0.008l-0.017-0.007l-0.005-0.017L662.028,280.012z M664.065,280.715l-0.003-0.03l0.026-0.012h0.031l0.028,0.019h0.063l0.024-0.024l0.059-0.021l0.021-0.035l0.024-0.003l0.026,0.036l0.003,0.047l-0.019,0.023l-0.102,0.028l-0.036,0.045l-0.04-0.002l-0.033-0.04L664.065,280.715z M664.769,280.696l0.01-0.052l0.017-0.009l0.016,0.017l-0.017,0.054l-0.017,0.01L664.769,280.696z M664.816,280.714l0.016-0.03l0.09-0.047l0.042,0.002l0.005,0.031l-0.016,0.049l-0.043,0.01l-0.071-0.006L664.816,280.714z M665.069,280.676l-0.019,0.002l-0.014-0.045l0.028-0.03l0.05-0.01l0.043-0.047v-0.026l0.024-0.017l0.087-0.016l0.04,0.01v0.023l-0.052,0.01l-0.063,0.061l-0.007,0.04l-0.033,0.012l-0.05,0.002l-0.019,0.005L665.069,280.676z M637.166,267.375l0.026,0.016l0.029-0.013v-0.029l-0.031-0.026l-0.047-0.003l-0.005,0.018L637.166,267.375z M631.362,259.814l0.012-0.009l-0.001-0.017l-0.017-0.014h-0.014l0.003,0.019L631.362,259.814z M636.947,267.122l0.023,0.013l0.017-0.011l0.001-0.033l0.021-0.01l0.034,0.003l0.005-0.021l-0.035-0.017l-0.033,0.001l-0.023,0.023L636.947,267.122z M636.793,268.037l0.034-0.021l0.055-0.05l0.008-0.039l-0.023-0.078l0.06-0.149l-0.026-0.047l-0.109-0.094l-0.018-0.055l0.013-0.039v-0.044l-0.044-0.06l0.018-0.044l0.008-0.057l-0.008-0.031l-0.052-0.029l-0.099,0.016l-0.081-0.005l-0.07-0.031l-0.008-0.034l-0.057-0.052l-0.039-0.01l-0.07-0.052l0.008-0.034l-0.016-0.023h-0.07l-0.063-0.034l-0.023,0.013l0.01,0.05l0.06,0.13l0.016,0.065l-0.018,0.052l0.018,0.065v0.047l0.049,0.06l0.135,0.122l0.049,0.013l0.065,0.057l0.036,0.005l0.044,0.055l0.062,0.05l0.052,0.117l0.018,0.146l0.031,0.073l0.029,0.005L636.793,268.037z M636.66,266.437l-0.013-0.018l-0.036-0.005l-0.044-0.099l-0.065-0.029l-0.065,0.005l-0.07-0.057l-0.076-0.023l-0.096,0.018l-0.122-0.008l-0.047-0.026l0.003-0.023l0.07-0.026l0.026-0.029l-0.021-0.016l-0.135,0.01l-0.057,0.063l-0.05,0.034l-0.049,0.003l-0.049-0.055l0.008-0.047l0.055-0.013l0.034,0.018l0.029-0.023l-0.021-0.063l-0.057-0.047h-0.07l-0.047,0.05l-0.06,0.013l-0.047-0.01l-0.016,0.021l0.06,0.073l0.057,0.099l0.081,0.039l0.052-0.003l0.049-0.029l0.073-0.003l0.117,0.063l0.201,0.091l0.063,0.057l0.154,0.065l0.12-0.018L636.66,266.437z M632.602,263.929l0.167,0.039l0.076-0.018l0.083,0.003l0.016-0.018l-0.107-0.107l-0.208-0.063l-0.076,0.013l-0.026,0.039l0.026,0.07L632.602,263.929z M633.414,262.985l0.023-0.007l0.009-0.153l-0.03-0.069l-0.036-0.024l-0.236-0.106l-0.036-0.076l0.016-0.012l0.04,0.019l0.021-0.01l-0.002-0.075l-0.036-0.038l-0.073-0.035l-0.092-0.016l-0.085,0.014l-0.009,0.019l0.026,0.047l-0.024,0.082l0.01,0.03l0.043,0.021l0.078,0.099l0.036,0.014l0.078-0.03l0.038,0.005l0.109,0.073l0.068,0.101l0.031,0.109L633.414,262.985z M630.809,260.921l-0.01,0.031l0.031,0.007l0.045-0.017l0.01-0.042l-0.024-0.007L630.809,260.921z M629.513,261.06l0.07,0.073l0.101,0.014l0.066-0.021l0.292,0.069l0.073-0.021l0.059-0.08l-0.021-0.052l-0.104-0.01l-0.149-0.066l-0.066-0.115l-0.049-0.038l-0.076-0.01l-0.191-0.097l-0.035,0.021l-0.035,0.108l0.031,0.101l0.035,0.059V261.06z M628.648,259.559l0.156,0.045l0.083-0.01l0.007-0.045l-0.031-0.045l-0.236-0.063l-0.076,0.01l-0.017,0.031L628.648,259.559z M626.777,259.192l0.01,0.021l0.014,0.003l0.023-0.014l-0.01-0.028h-0.028L626.777,259.192z M630.914,259.852l0.015-0.001l-0.008-0.028l0.012-0.044l0.042-0.053l0.001-0.043l-0.017-0.008l-0.037,0.029l-0.026,0.084l0.001,0.043L630.914,259.852z M631.09,259.788l0.014-0.033l0.019-0.018h0.021l0.01-0.015l-0.004-0.032l-0.017-0.003l-0.032,0.021l-0.022,0.029l-0.001,0.047L631.09,259.788z M626.759,259.137l0.021-0.003l0.024-0.012l-0.003-0.016l-0.021-0.002l-0.026,0.021L626.759,259.137z M623.564,257.592l0.038,0.038l0.076,0.017l0.035-0.014l-0.031-0.045l-0.08-0.014L623.564,257.592z M626.957,259.18l0.016-0.03l-0.003-0.038l-0.023-0.002l-0.012,0.014l-0.002,0.05L626.957,259.18z M623.596,256.143l0.028,0.01l0.04-0.03l0.031-0.049l-0.026-0.018l-0.044,0.036L623.596,256.143z M623.27,255.916l0.063-0.07l-0.01-0.026l-0.065,0.016l-0.029,0.029l0.008,0.05L623.27,255.916z M622.67,255.608l0.076-0.01l0.021,0.021l-0.073,0.042l0.008,0.023h0.034l0.073-0.047l0.096-0.018l0.089-0.042l0.005-0.031l-0.05-0.023l-0.026-0.052l-0.081-0.023l-0.109,0.018l-0.018,0.044l-0.081,0.042l-0.055,0.063l0.018,0.023L622.67,255.608z M623.179,255.796l0.018-0.008l0.01-0.023l-0.023-0.01l-0.026,0.01l-0.003,0.026L623.179,255.796z M623.33,256.015l0.026-0.01l0.016-0.026l-0.021-0.005l-0.031,0.013l-0.01,0.021L623.33,256.015z M623.455,256.004h0.047l0.021-0.013l-0.016-0.018l-0.052,0.003l-0.021,0.016L623.455,256.004z M626.72,254.222l0.102-0.003l0.016-0.021l-0.044-0.05l-0.081-0.005l-0.039,0.031l0.01,0.034L626.72,254.222z M635.921,254.718l0.002-0.017l0.017-0.005l0.014,0.012l-0.003,0.014l-0.016,0.007L635.921,254.718z M635.926,254.604l0.017-0.005l0.003-0.012l-0.012-0.009l-0.014,0.002l-0.007,0.014L635.926,254.604z M634.786,253.591l0.021-0.021l-0.031-0.036l-0.06-0.018l-0.021,0.01l0.031,0.026l-0.005,0.021l0.039,0.018H634.786z M630.408,260.64l0.036,0.052l0.065,0.018l0.039,0.031h0.021l-0.018-0.05l-0.057-0.034l-0.034-0.008l-0.036-0.023L630.408,260.64z M628.323,253.919l0.031,0.016l0.052-0.018l-0.003-0.034l-0.036-0.003l-0.036,0.018L628.323,253.919z M629.809,253.588l-0.005-0.039l-0.026-0.021h-0.023l-0.003,0.018l0.021,0.016l0.018,0.034L629.809,253.588z M630.325,253.627l0.023-0.01v-0.018l-0.029-0.003l-0.021,0.018L630.325,253.627z M630.525,253.935l0.029-0.003l0.01-0.018l-0.039-0.01l-0.023,0.016L630.525,253.935z M630.45,253.734l0.036,0.008l0.031-0.044l0.012-0.081l-0.031-0.024l-0.048,0.014l-0.023,0.026l0.005,0.063L630.45,253.734z M627.101,254.474l-0.005-0.055l-0.016-0.026l-0.018,0.021l0.01,0.05l0.018,0.031L627.101,254.474z M633.417,254.793l0.012,0.012l0.031-0.024l0.002-0.036l-0.019-0.002l-0.026,0.026V254.793z M633.855,254.529l0.03-0.009l0.012-0.019l-0.016-0.009l-0.021,0.005l-0.01,0.014L633.855,254.529z M628.985,253.763l0.003-0.026l-0.01-0.031l-0.023-0.01l-0.008,0.021l0.013,0.036L628.985,253.763z M647.61,282.934l0.045,0.031l0.282,0.02l0.25,0.149l0.159,0.018l0.083,0.078l0.045,0.238l0.163,0.111l0.26-0.038l0.112-0.091l0.059-0.132l0.146-0.048l0.134,0.043l0.152-0.049l0.025-0.038l0.048-0.003l0.122,0.059l0.056-0.014l0.104,0.038l0.045,0.052l0.188,0.052h0.1l0.039,0.031l-0.011,0.063l0.167,0.139l0.191,0.049l0.07-0.035l0.041-0.066l0.07-0.014l0.118,0.052l0.153,0.024l0.076-0.01l0.011-0.052l-0.063-0.063l0.007-0.09l0.042-0.066l0.08-0.01l0.087-0.063l0.104-0.014l0.09,0.035l0.101-0.021l0.146-0.156l0.066,0.003l0.059-0.042l0.097,0.032l0.077,0.007l0.038-0.08l0.07-0.018l0.066,0.046l0.062-0.018l0.052,0.007l0.056,0.024l0.052-0.038l0.052,0.025v0.076l0.129,0.122l0.062,0.003l0.031-0.045l0.053-0.004l0.079,0.021l0.112-0.002l0.014-0.05l-0.042-0.163l-0.052-0.031l-0.038-0.068l0.02-0.068l-0.023-0.042l-0.242-0.042l-0.044-0.055l-0.052-0.299l-0.012-0.432l0.015-0.492l0.047-0.336l0.034-0.073l-0.01-0.055l-0.052-0.042l-0.011-0.057l0.054-0.265l0.117-0.276l0.217-0.321l0.203-0.219l0.3-0.239l0.359-0.188l0.149-0.024l0.219,0.06l0.112-0.015l0.104-0.094l0.151-0.172l0.261-0.219l0.083-0.031l0.084,0.01l0.099-0.021l0.067-0.062l0.113-0.065l0.114-0.045l0.073-0.054l0.084-0.115l0.226-0.167l0.274-0.122l0.195-0.063l0.178-0.01l0.114,0.018l0.084,0.049l0.023,0.047l-0.01,0.026l-0.06,0.021l-0.021,0.068l0.054,0.085l0.257,0.091l0.146,0.026l0.144-0.004l0.33,0.017l0.136,0.03h0.08l0.08-0.033l0.192-0.005l0.169,0.024l0.12,0.068l0.054,0.073v0.062l-0.018,0.028l-0.097,0.045l-0.002,0.046l0.08,0.083l0.176,0.05l0.128,0.016l0.242-0.016l0.18,0.005l0.105,0.025l0.116,0.057l0.05-0.002l0.056-0.033l0.193-0.172l0.003-0.033l-0.008-0.015l-0.011,0.003l-0.007,0.042l-0.087,0.043l-0.059-0.003l-0.046-0.014l-0.022-0.024l0.011-0.044l-0.026-0.036l-0.052-0.008l-0.011-0.017l0.011-0.018h0.035l0.025,0.015l0.017-0.012l-0.043-0.046l-0.058-0.043l0.012-0.015l0.036,0.013l0.09,0.072l0.036-0.018l-0.019-0.064l-0.059-0.114l0.017-0.009l0.015,0.009l0.017,0.049l0.028,0.032l0.019,0.047l0.011,0.004l0.043-0.039h0.043l-0.004,0.011l-0.027,0.01l-0.031,0.051l0.004,0.01l0.062-0.038l0.028-0.042l0.044-0.013l0.073,0.014l0.023-0.018l-0.005-0.036l-0.026-0.032l0.011-0.017l0.024,0.013l0.034,0.04l0.036,0.069l0.006,0.068l0.018,0.018l0.055,0.002l0.018,0.012v0.021l-0.03,0.019l-0.003,0.024l0.078,0.086l0.015,0.034l0.034,0.038l-0.002,0.048l0.07,0.073l0.046,0.003l0.039-0.023h0.181l0.082,0.012l0.095-0.001l0.043-0.018l0.036-0.002l0.053,0.013l0.187-0.013l0.051-0.04l0.04-0.01l0.054-0.045l0.061-0.027l0.047,0.002l0.061,0.046l0.097,0.124l0.014,0.074l-0.006,0.027l-0.043,0.043l0.003,0.039l0.082,0.076l0.005,0.031l-0.008,0.045l-0.089,0.125l0.01,0.037l0.073,0.031l0.107-0.028l0.035-0.001l0.066,0.044l0.009-0.007l-0.009-0.018l0.014-0.005l0.063,0.033l0.038,0.011l0.005-0.013l-0.02-0.019l0.015-0.014l0.049,0.006l0.11,0.035l0.051-0.005l0.064-0.05l0.064,0.011l0.005,0.06l0.08,0.093l0.122,0.053l0.024-0.007l0.012-0.047l0.042-0.051l0.066-0.017l0.128,0.042l0.037,0.002l0.027,0.03l-0.021,0.068l0.029,0.044l0.065-0.003l0.022,0.009l0.022,0.034l0.027,0.011l0.101,0.005l0.034-0.011l0.029,0.026l-0.009,0.044l0.014,0.017l0.092,0.008l0.029,0.04l-0.008,0.09l-0.044,0.058l0.001,0.02l0.056,0.019l0.058,0.06l0.054,0.016l0.054-0.001l0.032-0.029l0.016-0.038l0.065-0.055l0.032-0.004l0.058,0.032l0.029,0.005l0.04-0.016l0.031,0.002l0.023,0.017l0.017-0.007l0.006-0.03l-0.024-0.027l-0.042-0.009l-0.073,0.002l-0.019,0.014l-0.027-0.005l-0.007-0.018l0.032-0.061l-0.016-0.018l-0.052-0.007l-0.001-0.022l0.019-0.02h0.057l0.025-0.015l0.04,0.002l0.014,0.012l-0.008,0.03l0.014,0.009l0.033-0.011l0.156,0.004l0.099,0.019l0.052,0.051l-0.003,0.049l0.019,0.012l0.096-0.007l0.078-0.031l0.056-0.002l0.126,0.033l0.02,0.032l0.007,0.093l-0.018,0.035l-0.087,0.004l-0.028,0.01l-0.005,0.028l0.018,0.026l0.033-0.002l0.027-0.019h0.066l0.077,0.026l0.073-0.014v-0.014l-0.066-0.012l-0.014-0.031l0.002-0.103l0.029-0.097l0.101-0.099l0.049-0.024h0.04l0.005-0.016l-0.028-0.007l-0.05,0.007l-0.011-0.016l0.032-0.017l0.071,0.004l0.041,0.027l0.016,0.025h0.04l0.076-0.039l0.046,0.002l0.038,0.028l0.003,0.024l0.025,0.011l0.057,0.001l0.07,0.039l0.02,0.038l0.03,0.014l0.085-0.009l0.014-0.047l-0.023-0.038l-0.001-0.047l0.043-0.087l0.11-0.039l0.145-0.005l0.06-0.029l0.042-0.005l0.078,0.016l0.06-0.019l0.099-0.054l0.034-0.052l0.057-0.037l0.089,0.008l0.073,0.034l0.039,0.081h0.039l0.071-0.068l0.013-0.05l0.044-0.034l0.086-0.005l0.003-0.018l-0.072-0.106l0.025-0.076l0.043-0.011l0.05-0.043l0.018-0.047l-0.042-0.052l-0.035-0.011l-0.027,0.014l-0.002,0.035l-0.028,0.009l-0.049-0.037l-0.047,0.002l-0.043,0.035l-0.09,0.01l-0.033-0.017l-0.016-0.037l0.019-0.029l0.13-0.07l0.032-0.04l0.047-0.015l0.062-0.004l0.019-0.019l-0.005-0.044l0.01-0.041l0.035-0.028h0.065l0.071-0.033l0.014-0.056l-0.014-0.043l0.007-0.03l0.041-0.059l0.02-0.069l0.059-0.066l0.048-0.009l0.068,0.047h0.047l0.113-0.023h0.035l0.064,0.023l0.019-0.01l0.012-0.065l0.018-0.003l0.022,0.015l0.073-0.013l0.031-0.051l0.077-0.047l0.019-0.041l0.003-0.063l0.04-0.043l0.077-0.065l-0.007-0.041l-0.044-0.016l-0.008-0.028l0.061-0.097l0.06-0.035l0.079-0.015l0.095,0.003l0.031,0.016l0.016,0.04l0.014-0.002l0.118-0.111l0.061-0.037l0.068-0.002l0.031,0.013l0.019,0.041l-0.01,0.032l0.01,0.013l0.028,0.013l0.05-0.002l0.016-0.033l-0.019-0.084l-0.045-0.055l0.003-0.084l0.021-0.105l0.066-0.112l0.064-0.038l0.101-0.003l0.028,0.036l0.036,0.004l0.066-0.075l0.011-0.059l0.052-0.056l0.075-0.022l0.071,0.01l0.048,0.035l0.025-0.002l0.034-0.08l0.02-0.002l0.017,0.028l-0.012,0.026l0.019,0.066l0.021,0.002l0.014-0.033l-0.012-0.078l0.026-0.047l0.069-0.035l0.125,0.002l0.066-0.014l0.022-0.022l-0.023-0.02l0.008-0.023l0.039-0.026l0.014-0.016l0.016-0.023l0.024-0.011l0.011,0.008l0.036-0.01l0.029-0.023l0.022-0.003l0.044,0.037l0.034,0.005l0.009-0.01l-0.002-0.033l0.048-0.047l0.035-0.01l0.015-0.014l0.007-0.023l0.026-0.016l0.028-0.001l-0.001-0.03l-0.043-0.064l-0.04-0.167l-0.038-0.037l-0.011-0.062l0.014-0.038l0.094-0.065l0.127-0.036l0.023-0.031l-0.014-0.068l0.029-0.035l0.023-0.061l-0.019-0.031l0.019-0.023l0.036-0.008l0.028-0.025l0.045-0.008l0.035,0.014l0.108-0.08l0.05-0.021l0.052-0.087l-0.028-0.097v-0.049l0.021-0.014l0.038,0.002l0.027-0.03l0.05-0.007l0.017-0.019l0.009-0.052l0.031-0.026l0.016-0.097l-0.08-0.066l-0.05-0.077l-0.037-0.019l-0.021-0.057l0.035-0.064l-0.017-0.035v-0.028l0.031-0.021l0.014-0.036l-0.025-0.023h-0.118l-0.043,0.021l-0.037,0.092l-0.041,0.021l-0.054-0.023l-0.044,0.007l-0.076-0.003l-0.04,0.029l-0.066-0.005l-0.036,0.037l-0.04,0.003l-0.047-0.019l-0.03,0.007l-0.042,0.038l-0.083,0.03l-0.097-0.019l-0.018,0.015l-0.003,0.063l-0.028,0.007l-0.038-0.032l-0.075-0.022l-0.08,0.033l-0.047-0.004l-0.045-0.09l0.004-0.035l-0.025-0.008l-0.078,0.019l-0.033-0.012l-0.073,0.001l-0.017,0.021l-0.028-0.003l-0.024-0.033l-0.08-0.04l-0.023-0.068l-0.033-0.01l-0.028,0.024l-0.034-0.002l-0.073-0.073l-0.03-0.066l-0.017-0.007l-0.032,0.009l-0.041-0.03l-0.026-0.007l-0.044,0.028l-0.035-0.003l-0.1-0.075l-0.051-0.007l-0.026-0.016l-0.015-0.027l-0.037-0.014l-0.035,0.001l-0.031,0.02l-0.087,0.001l-0.076-0.033l-0.054-0.057l-0.009-0.141l-0.054-0.036l-0.048-0.007l-0.049-0.049l-0.005-0.059l-0.087-0.09l-0.036-0.018l-0.021-0.066l-0.054-0.041l-0.052-0.011l-0.004-0.031l0.025-0.021l0.003-0.17l-0.01-0.044l0.08-0.033l0.039,0.014l0.03-0.019l0.035,0.007l0.014-0.014l-0.037-0.045l-0.088-0.047l-0.025-0.076l-0.102-0.061l-0.016-0.045l-0.054-0.052l-0.028-0.129l0.061-0.047l0.035-0.062l0.042-0.002l0.087-0.025l0.007-0.04l0.064-0.039l0.019-0.115l0.042-0.045l0.01-0.033l0.054-0.004l0.002-0.028l-0.032-0.02l-0.029-0.056v-0.061l0.026-0.033l0.002-0.045l0.024-0.023l0.038-0.008l0.071-0.044l0.054,0.007l0.084-0.012l0.104,0.047l0.055-0.002l0.007-0.022l-0.036-0.098v-0.029l-0.026-0.018l-0.061-0.008l-0.043-0.056l-0.035-0.094l0.012-0.057l-0.038-0.082l-0.059-0.02l0.005-0.028l0.038-0.03l0.049-0.082l-0.005-0.024l-0.051-0.017l-0.01-0.059l-0.089-0.03l-0.035,0.005l-0.104-0.06l-0.055-0.011l-0.065,0.068l-0.173-0.024l-0.132-0.077l-0.101-0.059v-0.036l-0.016-0.013h-0.04l-0.059-0.052l-0.05-0.003l-0.026-0.03v-0.064l0.034-0.04l-0.008-0.021l-0.04-0.008l0.047-0.056l0.017-0.056l-0.01-0.04l-0.084-0.076v-0.026l0.035-0.024l-0.016-0.056l-0.071-0.028l-0.175,0.005l-0.044-0.057l0.007-0.059l-0.033-0.042l0.016-0.043l-0.012-0.025l-0.04,0.006l-0.023-0.028v-0.045l-0.052-0.085l0.016-0.035l0.066-0.007l0.076-0.038l0.035-0.066l0.101-0.023l0.095,0.028l0.035-0.007l0.071-0.085l0.031-0.004l0.153,0.045l0.117,0.082l0.034,0.011l0.066-0.026l0.084-0.006l0.017-0.028l-0.048-0.066l0.026-0.05l0.071,0.005l0.118-0.028l0.035-0.038l0.008-0.047l0.04-0.019l-0.015-0.041l0.015-0.018l0.089-0.019l0.047-0.028l0.064,0.009l0.042-0.012l0.04-0.03l0.036,0.002l0.056,0.063l0.033-0.004l0.108-0.111l0.001-0.035l0.026-0.017l0.053,0.008l0.036-0.045l-0.009-0.125l-0.04-0.045l-0.012-0.069l-0.034-0.058l0.012-0.026l0.054,0.004l0.026-0.023l-0.002-0.076l0.024-0.016h0.049l0.029-0.037l-0.008-0.053l0.015-0.049l0.054-0.024l0.026-0.07l-0.01-0.028l-0.091-0.034l-0.027-0.032l-0.072-0.003l-0.064-0.037v-0.036l-0.05-0.047l-0.011-0.037l0.019-0.02l0.004-0.018l-0.118-0.028l-0.037,0.021l-0.048-0.007l-0.007-0.047l0.034-0.019l0.004-0.026l-0.021-0.021l-0.115,0.002l-0.083-0.033l-0.003-0.022l0.022-0.027l-0.002-0.026l-0.041-0.038l-0.006-0.031l0.02-0.03l-0.026-0.083l0.022-0.035l-0.007-0.045l-0.048-0.023l-0.006-0.036l0.028-0.085l-0.007-0.03l0.005-0.033l0.061-0.054l-0.005-0.027l-0.08-0.018l-0.056-0.043l-0.114,0.035l-0.054-0.025l-0.045-0.052l0.008-0.059l-0.026-0.019l-0.093,0.009l-0.093-0.042l-0.034-0.056l-0.044-0.003l-0.071-0.09l-0.012-0.034l0.029-0.029v-0.035l-0.034-0.022l-0.011-0.191l0.032-0.027l0.01-0.06l-0.031-0.039l0.047-0.083l0.071-0.031l0.043,0.003l0.061,0.071l0.017-0.003l-0.006-0.047l0.024-0.054l0.033-0.002l0.033,0.027l0.08,0.001l0.099-0.022l0.031-0.051l0.085-0.038l0.071-0.009l0.046-0.071l-0.007-0.036l0.001-0.042l0.094-0.085l0.052-0.011l-0.019-0.06l0.006-0.064l-0.021-0.029l-0.053-0.015l-0.034-0.036l0.008-0.029l0.033-0.007l0.006-0.019l-0.035-0.035l-0.004-0.037l-0.021-0.024l-0.034,0.004l-0.039-0.023l-0.018-0.058l-0.083-0.072l-0.025-0.066l-0.049-0.031l-0.001-0.039l-0.019-0.02l-0.036,0.014l-0.073,0.073l-0.086,0.013l-0.034-0.036l0.041-0.094l0.008-0.078l0.029-0.05l0.016-0.078l-0.029-0.037l-0.159-0.023l-0.104,0.008l-0.068-0.026l-0.039-0.12l0.044-0.037l0.034-0.075l-0.021-0.086l0.11-0.177l0.057-0.032l0.031-0.054l0.011-0.086l-0.037-0.063l-0.193-0.136l-0.107-0.109l-0.007-0.06l0.028-0.029l0.063-0.005l0.042-0.057l-0.016-0.034l0.062-0.188l-0.497-0.124l-0.615-0.01l-0.341,0.189l-0.334,0.055l-0.31,0.204l-0.12,0.223l0.103,0.048l0.013,0.057l-0.047,0.033l0.003,0.046l0.094,0.101l0.033,0.006l0.039-0.027l0.037-0.05l0.014,0.006l-0.011,0.03l0.017,0.013l0.023-0.008l0.017,0.005l-0.002,0.047l-0.052,0.079l-0.054,0.05l-0.081,0.026l-0.031,0.021l-0.067,0.006l-0.1,0.061l-0.056,0.054l-0.009,0.056l-0.037,0.04l-0.069,0.027l-0.058,0.043l-0.064,0.014l-0.096-0.016l-0.032-0.03l-0.099-0.006l-0.051,0.009l-0.017,0.047l-0.033,0.016l-0.04-0.023l-0.082-0.003l-0.028-0.012l-0.043,0.011l-0.032,0.049l-0.066,0.013l-0.004-0.017l0.033-0.032l-0.003-0.037l0.053-0.115l0.036,0.006l0.025-0.046l-0.015-0.032l-0.082-0.03l-0.011-0.024l0.016-0.037l0.028-0.039l0.042-0.004l0.043-0.02l0.025-0.031l0.091-0.036l0.037,0.016l0.029-0.004l0.043-0.044l0.083-0.013l0.059,0.034l0.036-0.005l0.044-0.052l-0.007-0.06l-0.057-0.065l-0.003-0.043l0.045-0.033l0.011-0.035l0.008-0.07l0.044-0.047l0.002-0.035l0.009-0.012l0.035-0.013l0.042-0.041l0.004-0.031l0.033-0.036v-0.026l-0.029-0.033l-0.039-0.003l-0.051-0.046l-0.072-0.045h-0.032l-0.028-0.013l-0.016-0.04l-0.105-0.028l-0.01-0.022l0.036-0.061l0.04-0.037l0.001-0.029l-0.037-0.025v-0.068l0.082-0.067l0.07-0.144l0.079-0.083l0.02,0.014l0.04-0.039l-0.014-0.013l0.023-0.025l-0.166-0.148l0.099-0.093l0.083-0.058l0.062-0.025l0.008-0.025l0.06-0.053l0.039-0.022l0.044-0.04l0.036-0.011l0.142-0.134l0.014-0.03l0.049-0.04l0.252-0.105l0.026-0.039l0.037-0.026l0.046-0.014l0.025-0.021l0.003-0.033l0.022-0.026l0.109-0.031l0.101-0.091l0.018-0.064l-0.088-0.066l-0.006-0.033l0.032-0.032l0.007-0.069l0.061-0.086l0.017-0.195l-0.024-0.068l-0.086-0.096v-0.023l0.071-0.04l0.088-0.114l0.059-0.051l0.02-0.002l0.025,0.036l0.021,0.005l0.032-0.027l0.188-0.04l0.083-0.044h0.087l0.084-0.053l0.067-0.113l0.072-0.042l0.063-0.001l0.081-0.064l0.002-0.019l-0.09-0.053l0.001-0.021l0.04-0.025l0.007-0.037l0.071-0.037l0.04,0.004l0.026-0.011l0.006-0.024l-0.022-0.048l0.009-0.01l0.025,0.001l0.06-0.049l0.055-0.002l0.121-0.059l0.164-0.133v-0.02l-0.047-0.005l-0.004-0.024l0.104-0.055l0.035-0.075l0.105-0.086l0.093-0.045l0.024-0.035l0.049-0.028l0.004-0.021l-0.029-0.036l0.007-0.065l-0.018-0.091l0.018-0.021h0.079l0.022-0.016l0.057-0.006l0.051-0.021l0.032-0.054l-0.002-0.034l-0.02-0.014l0.005-0.018l0.112-0.003l0.036-0.015l0.029-0.055l-0.02-0.027l-0.014-0.062l-0.046-0.036l-0.068-0.024l-0.03,0.007l-0.058,0.039l-0.215,0.024l-0.028,0.016h-0.023l-0.054-0.016l-0.032,0.004l-0.055,0.027l-0.016-0.008l0.016-0.084l0.04-0.043l0.057-0.017l0.012-0.015l-0.004-0.035l0.023-0.045l0.07-0.006l0.018-0.018l-0.007-0.093l0.016-0.019l0.058,0.004l0.024-0.019l0.001-0.034l0.021-0.018l0.068-0.001l0.028-0.025v-0.059l-0.027-0.014l-0.026-0.099l0.003-0.023l0.127-0.042l0.04,0.017l0.139,0.036l0.018,0.018l0.021,0.003l0.048-0.035l0.079,0.002l0.054-0.035l0.037,0.003l0.086,0.05l0.076-0.002l0.06-0.018l0.008,0.01l-0.033,0.022l-0.05,0.087l-0.028,0.115l0.01,0.02l0.057,0.005l0.041,0.023l0.1-0.02l0.027,0.011l0.037,0.064l0.024,0.011l0.069-0.023l0.045-0.035l0.077-0.024l0.127-0.009l0.05,0.026l0.096,0.007l0.09-0.007l0.009-0.019l0.062-0.031l0.018-0.051l0.025-0.02l0.05-0.005l0.03-0.05l-0.083-0.045l-0.033,0.006l-0.01-0.01l0.061-0.069l0.049,0.029l0.04,0.011l0.04,0.035h0.062l0.063-0.058l0.016-0.034l-0.011-0.049l0.013-0.028h0.038l0.029-0.031v-0.027l-0.03-0.011l-0.068,0.005l-0.012-0.022l0.024-0.038l0.051-0.014l0.139-0.085l0.001-0.028l0.037-0.029l0.047,0.005l0.024-0.009l0.006-0.057l0.014-0.058l-0.013-0.031l-0.044-0.017l-0.02-0.033l0.002-0.043l-0.034-0.046l-0.061-0.026l-0.065-0.069l-0.028-0.063l0.005-0.057l-0.031-0.056l0.003-0.043l0.073-0.049l0.049-0.05l0.007-0.079l-0.065-0.126l-0.003-0.094l0.05-0.098l0.014-0.067l0.044-0.07l0.017-0.069l-0.031-0.103l0.022-0.062l0.056-0.039l0.021-0.046l-0.007-0.098l0.021-0.071l0.114-0.083l0.054-0.079l0.005-0.064l-0.052-0.111l-0.123-0.125l-0.005-0.031l0.021-0.042l-0.002-0.044l-0.012-0.074l0.003-0.073l0.035-0.044l0.007-0.045l-0.007-0.048l0.005-0.037l0.058-0.042l0.022-0.034l0.002-0.084l0.095-0.118l0.065-0.12l0.08-0.092l0.1-0.366l0.035-0.037l0.115-0.05l0.04-0.061l-0.045-0.245l0.01-0.094l0.109-0.271l0.011-0.134l0.022-0.05l0.082-0.037l0.035-0.067l-0.011-0.063l0.003-0.255l0.018-0.056l0.061-0.096l0.059-0.142l0.179-0.099l0.287-0.311l0.015-0.141l0.035-0.022l0.118,0.001l0.035-0.029l0.016-0.078l0.045-0.04l0.087,0.005l0.055-0.03l0.077-0.085l0.055-0.172l0.096-0.224l0.203-0.3l0.138-0.054l-0.044-0.039l-0.069,0.025l-0.021-0.004l-0.006-0.031l-0.086-0.014l-0.016,0.012l-0.071-0.001l-0.084-0.04l-0.113-0.018l-0.085-0.043l-0.088-0.091l-0.174-0.059l-0.056,0.013l-0.034-0.011l-0.009-0.042l-0.096-0.062l-0.008-0.028l-0.044-0.009l-0.052,0.073l-0.022,0.002l-0.014-0.019l-0.077-0.005l-0.076,0.054l-0.042-0.004l-0.026-0.035l-0.061-0.019l-0.092-0.087l-0.054-0.012l-0.05,0.018l-0.035,0.05l-0.04,0.023l-0.083,0.007l-0.023-0.047l-0.019-0.011l-0.05,0.005l-0.066-0.015l-0.011,0.014l0.018,0.017l-0.011,0.016l-0.066,0.012l-0.153-0.045l-0.017-0.091l-0.037-0.008l-0.081-0.037l-0.087,0.021l-0.04-0.002l-0.103-0.069l-0.053-0.108l-0.042-0.028l-0.018-0.038l-0.039-0.021l-0.002-0.028l0.054-0.031l0.003-0.028l-0.029-0.021l-0.014-0.048l-0.066-0.005l-0.039,0.027l-0.033,0.002l-0.026-0.019l-0.054,0.007l-0.006-0.016l0.024-0.022l-0.009-0.032l0.018-0.02l-0.014-0.011l-0.244,0.059l-0.02,0.014l0.005,0.035l-0.021,0.04l0.002,0.042l-0.016,0.02l-0.083-0.008l-0.082,0.047l-0.061,0.092l-0.029,0.01l-0.056-0.042l-0.111-0.026l-0.125,0.02l-0.03,0.029h-0.019l-0.049-0.052h-0.055l-0.04,0.028l-0.08-0.021l-0.004-0.033l-0.029-0.026l-0.078-0.004l-0.004-0.022l0.025-0.026l-0.011-0.025l-0.09,0.009l-0.019,0.026l0.029,0.063l-0.005,0.031l-0.043,0.021l-0.021,0.055l-0.049,0.004l-0.042-0.035l0.013-0.036l-0.006-0.059l-0.052-0.066l-0.007-0.073l0.016-0.084l-0.021-0.033l-0.085-0.007l-0.03-0.038l-0.073-0.037l-0.05,0.013l-0.036-0.004l-0.046-0.042l-0.012-0.034l-0.062-0.002l-0.033,0.033l-0.068,0.03l-0.125-0.056l-0.051,0.021l-0.015,0.036l0.026,0.065l0.047,0.059l-0.018,0.031l-0.034,0.003l-0.018,0.02l0.009,0.06l-0.049,0.014l-0.13-0.059l-0.073-0.007l-0.132,0.031l-0.078-0.046l-0.016-0.066l0.051-0.112l-0.02-0.054l-0.033-0.006l-0.059,0.017l-0.043-0.026l0.003-0.132l-0.038-0.033l-0.05,0.002l-0.012-0.035l0.019-0.026l0.014-0.061l-0.028-0.017l-0.025,0.01l-0.019-0.004l-0.001-0.034l-0.091-0.07l-0.041-0.002l-0.087-0.074l-0.007-0.031l0.019-0.032l-0.014-0.024l-0.038-0.009l-0.038-0.038l-0.011-0.057l0.033-0.011l0.04,0.042h0.016l0.002-0.033l0.026-0.016l0.007-0.033l-0.02-0.021l-0.027,0.013l-0.016-0.007l0.014-0.066l-0.038-0.025l-0.049-0.005l-0.073-0.057l-0.023-0.047l0.033-0.035l0.035-0.002l0.004-0.02l-0.063-0.06l-0.057-0.008l-0.084-0.07l-0.047-0.014l-0.081-0.053l-0.047,0.001l-0.057-0.026l-0.025-0.038l-0.047,0.002l-0.034,0.047l-0.066,0.017l-0.079-0.016l-0.01,0.037l-0.029-0.005l-0.026-0.029l-0.083-0.024l-0.11-0.059l-0.078-0.102l-0.146-0.042l-0.091,0.024l-0.107,0.002l-0.031-0.018l-0.068,0.037l0.005,0.041l-0.041,0.018l-0.042-0.005l-0.031,0.013l-0.021,0.071l-0.068,0.028l-0.016,0.073l-0.028,0.005l-0.05-0.052l-0.068-0.005l-0.062,0.084l-0.042-0.003l-0.026-0.026l-0.083-0.005l-0.048,0.012l-0.012-0.004l0.013-0.021l-0.003-0.021l-0.041-0.008l-0.019-0.042l0.011-0.041l-0.013-0.053l-0.092-0.044l-0.127-0.008l-0.058,0.024l-0.093-0.013l-0.115-0.091l-0.01-0.034l0.023-0.039l-0.021-0.037l-0.07,0.005l-0.011-0.02l0.009-0.019l-0.031-0.019l-0.056-0.005l-0.071-0.061l-0.059,0.019l-0.016,0.089l-0.048,0.014l-0.032-0.028l-0.033-0.002l-0.019,0.023l-0.064-0.004l-0.132-0.05l-0.075,0.012l-0.095,0.076l-0.009,0.032l0.019,0.048l-0.035,0.054l-0.028-0.008l-0.003-0.044l-0.036-0.029l-0.134-0.033l-0.044,0.02l-0.01,0.039l-0.084,0.041l-0.066,0.009l-0.055-0.007l-0.024,0.016v0.028l-0.028,0.019l-0.023-0.009l-0.005-0.057l-0.05-0.025l-0.004-0.029l0.054-0.038l-0.002-0.054l-0.078-0.04l-0.003-0.023l0.05-0.057l-0.004-0.021l-0.057-0.01l-0.04-0.136l-0.08-0.057l-0.04-0.047l-0.107-0.028l-0.056-0.035l-0.028,0.004l-0.003,0.043l-0.023,0.024l-0.047,0.002l-0.024,0.026l-0.023-0.003l-0.021-0.063l0.007-0.048l0.049-0.07l0.037-0.016l0.001-0.026l-0.087-0.081l-0.086-0.056l-0.051-0.054h-0.045l-0.024,0.018l-0.098,0.01l-0.033-0.003l-0.027-0.023l-0.094-0.002l-0.047,0.014l-0.023-0.015l0.014-0.054l-0.003-0.035l-0.04-0.021l-0.042,0.026l-0.054-0.005l-0.024-0.026l0.008-0.038l-0.024-0.066l-0.048-0.059l-0.03-0.063l-0.028-0.01l-0.043,0.026l-0.038-0.006l-0.014-0.029l-0.091-0.016l-0.099-0.05l-0.054-0.089l-0.114-0.008l-0.044-0.011l-0.033,0.018l-0.057,0.053l-0.08,0.013l-0.118-0.033l-0.052,0.019l-0.023-0.025l0.038-0.094l0.032-0.017l0.003-0.024l-0.026-0.025l-0.002-0.062l-0.036-0.021l-0.042-0.108l0.011-0.015l0.038,0.008l0.015-0.012l-0.008-0.029l0.055-0.101l0.03-0.009l0.005-0.021l-0.028-0.012l0.005-0.019h0.035l0.005-0.021l-0.036-0.028v-0.036l-0.083-0.042l-0.026-0.078l-0.044-0.019l-0.04,0.009l-0.135-0.045l-0.014-0.06l0.019-0.062l0.047-0.005l0.043-0.045l0.007-0.159l0.037-0.045l0.026-0.003l0.019-0.023l-0.002-0.035l-0.04-0.001l-0.014-0.021l0.018-0.031l-0.013-0.016l-0.022,0.007l-0.016-0.011l0.014-0.029l0.064-0.019l0.019-0.077l-0.017-0.027v-0.023l0.045-0.028l0.028,0.009l0.002,0.031l0.031,0.03h0.019l0.007-0.033l-0.019-0.016v-0.021l0.014-0.028l-0.019-0.052l0.007-0.036l0.09-0.056v-0.021l-0.047-0.008l-0.007-0.052l-0.026-0.016l-0.05,0.014l-0.091-0.005l-0.033-0.03l0.002-0.05l-0.012-0.006l-0.047,0.07l-0.076,0.057l-0.092,0.033l-0.016,0.026l-0.004,0.047l-0.038,0.004l-0.003,0.014l0.015,0.024l-0.01,0.021l-0.113,0.038l-0.052,0.038l-0.059,0.08l-0.026,0.07l0.019,0.041l0.033,0.002l0.01,0.023l-0.055,0.132l0.003,0.123l0.04,0.023l-0.007,0.015l-0.075-0.006l-0.057,0.006l-0.101,0.035l-0.146,0.005l-0.062,0.03l-0.038,0.052l-0.08,0.01l-0.058,0.072l-0.057,0.024l-0.111,0.005l-0.096,0.042l-0.043,0.002l-0.118-0.054l-0.094-0.019l-0.038,0.008l-0.09-0.005l-0.025-0.042l-0.032-0.014l-0.04,0.003l-0.04-0.026l-0.021-0.002l-0.04,0.024l-0.106-0.003l-0.113,0.033l-0.098-0.004l-0.032,0.018l-0.013-0.007l0.001-0.051l-0.111-0.052l-0.047,0.011l-0.037-0.011v-0.023l0.044-0.022l0.029-0.036l0.003-0.032l-0.02-0.011l-0.016,0.01l-0.029-0.01l-0.002-0.019l-0.034-0.026l-0.002-0.043l0.086-0.148l0.018-0.002l0.036,0.018l0.065-0.019l0.024-0.033l0.048-0.009l0.06-0.036l0.008-0.047l-0.017-0.046l-0.047-0.055l-0.033-0.008l-0.004-0.017l0.015-0.015l-0.004-0.015l-0.03,0.001l-0.004-0.017l0.016-0.023l-0.01-0.058l0.006-0.035l-0.018-0.014l-0.055,0.011l-0.068-0.009l-0.042,0.034l-0.069-0.016l-0.008-0.034l0.025-0.06l0.069-0.053l0.008-0.055l-0.021-0.013l-0.002-0.021l0.026-0.025l0.014-0.09l-0.029-0.037l0.001-0.026l0.078-0.024l0.07-0.106l0.039-0.007l0.057-0.046l0.001-0.058l-0.04-0.06l-0.089-0.001l-0.018-0.017l-0.008-0.033l-0.024-0.026h-0.034l-0.036,0.045l0.003,0.024l0.056,0.033l0.002,0.036l-0.038,0.02l-0.063-0.005l-0.014-0.013l0.001-0.052l-0.012-0.015l-0.024,0.007l-0.012-0.012l0.012-0.071l-0.04-0.072l-0.069-0.044l-0.064,0.014l-0.012-0.01l0.005-0.049l-0.055-0.045l-0.021-0.036l-0.021-0.017h-0.026l-0.03-0.022l-0.011-0.043l-0.028-0.026l-0.031,0.003l-0.022,0.034l-0.079,0.029l-0.045,0.002l-0.036,0.016l-0.007-0.008l0.014-0.026l-0.012-0.009l-0.215,0.112l-0.073,0.007l-0.006-0.011l0.022-0.022l-0.006-0.04l-0.022-0.003l-0.025,0.013l-0.032-0.005l-0.084-0.07h-0.069l-0.027,0.036l-0.022,0.001l-0.003-0.033l-0.033-0.011l-0.028,0.014l-0.088-0.004l-0.025,0.019l-0.024,0.006l-0.037-0.016l-0.046,0.042l-0.025,0.123l0.011,0.032l-0.018,0.017l-0.018-0.007l-0.009-0.028l-0.033-0.017l-0.011,0.009l0.023,0.027l0.006,0.039l-0.021,0.004l-0.051-0.048l-0.016-0.05l-0.054-0.053l-0.002-0.04l-0.036-0.039l0.002-0.049l-0.007-0.02l-0.042-0.021l-0.005-0.022l0.056-0.079l0.005-0.079l-0.02-0.054l-0.005-0.109l-0.033-0.032l-0.003-0.022l0.018-0.026l-0.03-0.053l-0.044-0.011l-0.041-0.041l-0.002-0.038l-0.078-0.072l-0.023-0.005l-0.038,0.026l-0.04-0.001l-0.015-0.021l-0.047-0.02l-0.154,0.024l-0.075,0.035l-0.022-0.006l-0.003-0.048l0.02-0.045l0.048-0.023l0.01-0.063l-0.058-0.033l-0.038,0.007l-0.044-0.023l-0.028,0.004l-0.069,0.069l-0.022,0.051l-0.048,0.006l-0.025,0.018l-0.129,0.034l-0.054,0.032l-0.026-0.003l-0.038-0.061l-0.112-0.023l-0.017-0.025l-0.126-0.054l-0.045-0.068l-0.004-0.065l0.005-0.124l-0.008-0.081l-0.018-0.088l-0.051-0.059l-0.005-0.047l-0.036-0.044l0.005-0.041l-0.021-0.045l-0.003-0.066l0.061-0.029l0.006-0.029l-0.017-0.039l0.015-0.021l-0.004-0.053l-0.054-0.052l-0.084,0.007l-0.039-0.015l-0.049-0.117l-0.036-0.022l-0.028-0.062l-0.042-0.035l-0.052-0.13l-0.032-0.014l-0.069,0.007l-0.035-0.03l-0.022,0.002l-0.018,0.04l-0.047,0.042l-0.045,0.012l-0.087-0.024l-0.069,0.024h-0.066l-0.11,0.057l-0.038,0.046l-0.097-0.002l-0.031,0.036l0.026,0.059l-0.014,0.018l-0.037-0.002l-0.019,0.026l0.004,0.063l-0.023,0.038l-0.033,0.003l-0.021,0.014l0.005,0.035l-0.033,0.007l-0.048-0.056l-0.026,0.005l-0.04-0.005l-0.054-0.083l-0.033-0.014l-0.084,0.031h-0.033l-0.074-0.048l-0.03-0.119l-0.028-0.026h-0.034l-0.03-0.04v-0.041l-0.031-0.038l-0.049-0.014l-0.055-0.098l0.005-0.043l-0.038-0.033l-0.033,0.005l-0.086-0.005l-0.04-0.037l-0.022-0.005l-0.024,0.045l-0.053,0.009l-0.041-0.019l-0.044-0.104l-0.007-0.051l-0.024-0.012l-0.036,0.005l-0.016-0.017l0.038-0.097l-0.016-0.209l-0.017-0.024l-0.028,0.002l-0.007-0.018l0.103-0.101l0.04-0.013l0.014-0.027l-0.08-0.158l-0.007-0.057l-0.012-0.014l-0.04-0.005l-0.071-0.043l-0.014-0.042l0.017-0.026l-0.063-0.287l-0.05-0.087l-0.229,0.089l-0.233,0.077l-0.175,0.039l-0.148-0.021l-0.198,0.05h-0.073l-0.17,0.044l-0.047-0.021l-0.031,0.006l-0.029,0.065l-0.002,0.083l-0.016,0.021l-0.021-0.07l-0.041-0.029l-0.204,0.026l-0.177,0.063l-0.06,0.041l-0.19,0.018l-0.245,0.047l-0.078,0.039l-0.042,0.006l-0.042-0.029l-0.026,0.005l-0.028,0.031l-0.151,0.06l-0.115,0.013l-0.188,0.068l-0.161,0.131l-0.058,0.088l-0.107,0.112l-0.143,0.05h-0.112l-0.018,0.026l0.008,0.083l0.086,0.276l0.005,0.172l-0.05,0.165l-0.067,0.062l-0.032,0.076l-0.005,0.049l0.031,0.214l0.032,0.078l-0.006,0.237l0.016,0.141l0.091,0.091l0.005,0.039l-0.018,0.011l-0.028-0.016h-0.032l-0.031,0.044l0.003,0.17l-0.034,0.318l-0.045,0.112l-0.002,0.06l0.07,0.052l0.016,0.044l0.078,0.045l-0.01,0.018l-0.133,0.015l-0.039,0.039l-0.045,0.329l0.008,0.12l0.063,0.049l0.088,0.013l0.039,0.026l0.089,0.167l-0.003,0.063l0.026,0.067l-0.031-0.005l-0.047-0.039l-0.049-0.021l-0.047-0.057l-0.097-0.008l-0.153,0.089l-0.071,0.099l-0.065,0.203l-0.061,0.12l-0.101,0.097l-0.121,0.075l-0.026,0.04l-0.033,0.026l-0.042,0.007l-0.135,0.085l-0.028,0.037l-0.033,0.026l-0.042,0.017l-0.108,0.08l-0.073,0.073l-0.09,0.066l-0.035,0.005l-0.04,0.028l-0.014,0.038l-0.046,0.028l-0.042,0.009l-0.078,0.043l-0.19,0.087h-0.04l-0.059,0.023l-0.033,0.031l-0.156,0.05l-0.146,0.002l-0.089-0.011l-0.036,0.009l-0.031,0.026l-0.099,0.042l-0.266,0.073l-0.061,0.002l-0.047,0.027l-0.075,0.037l-0.106,0.023l-0.198,0.008l-0.015-0.019h-0.056l-0.068,0.023l-0.08,0.008l-0.135,0.037l-0.066,0.031l-0.08,0.014l-0.122,0.068l-0.097,0.08l-0.04,0.01l-0.063,0.047l-0.126,0.059l-0.103,0.071l-0.148,0.066l-0.06,0.011l-0.028,0.021l-0.009,0.026l-0.04,0.034l-0.101,0.056l-0.114,0.017l-0.11,0.061l-0.085,0.035l-0.061,0.005l-0.059,0.026l-0.118,0.087l-0.031,0.056l-0.018,0.08l-0.022,0.057l-0.009,0.076l-0.087,0.172l-0.074,0.113l-0.02,0.063l-0.093,0.17l-0.039,0.12l0.014,0.045l0.059,0.026l0.066,0.08l0.018,0.049l0.045,0.05l0.175,0.047l0.136,0.012l0.111,0.014l0.217,0.052l0.078,0.006l0.206-0.033l0.191-0.073l0.206-0.119l0.054-0.02l0.066,0.008l0.054,0.033l0.167,0.186l0.071,0.044l0.068,0.005l0.078-0.047l0.044-0.038l0.033-0.011l-0.054,0.056l-0.096,0.061l-0.082-0.002l-0.081-0.054l-0.176-0.188l-0.036-0.017l-0.051-0.003l-0.038,0.012l-0.201,0.114l-0.212,0.084l-0.257,0.038l-0.231,0.007l-0.093,0.01l-0.126,0.065l-0.193,0.055l-0.084,0.054l-0.102,0.113l-0.047,0.016l-0.026,0.034l-0.104,0.089l-0.148,0.089l-0.189,0.076l-0.075,0.007l-0.242,0.083l-0.18,0.007l-0.047-0.013l-0.064-0.002l-0.034,0.015l-0.001,0.018l0.041,0.019l0.007,0.049l-0.019,0.026l-0.052,0.008l-0.007,0.018l-0.014,0.007l-0.005-0.025l0.016-0.034l0.033-0.014l0.005-0.013l-0.028-0.015l-0.009-0.049l-0.027-0.012l-0.105-0.005l-0.125-0.052l-0.13-0.087l-0.097-0.04l-0.122-0.031l-0.184-0.009l-0.163-0.035l-0.211-0.005l-0.078,0.021h-0.132l-0.088-0.025l-0.324-0.008l-0.229-0.023l-0.174-0.048l-0.208-0.091l-0.111-0.061l-0.091-0.015l-0.2,0.007l-0.072,0.022l-0.04,0.002l-0.113-0.003l-0.075,0.036l-0.089,0.087l-0.01,0.035l0.002,0.048l-0.014,0.009l-0.087-0.073l-0.054-0.003l-0.043,0.026l-0.042,0.069l-0.049,0.033l-0.021,0.004l0.054-0.047l0.014-0.028l0.007-0.059l0.026-0.075l0.031-0.022l0.013-0.028l-0.009-0.098l-0.047-0.078l-0.096-0.088l-0.073-0.094l-0.085-0.08l-0.059-0.096l-0.109-0.133l-0.056-0.108l-0.002-0.071l0.02-0.091l0.045-0.052h0.062l0.035-0.012v-0.033l0.035-0.07l0.04-0.006l0.04,0.022l0.019-0.003l-0.007-0.096l-0.04-0.113l0.009-0.019l-0.006-0.023l-0.093-0.083l-0.011-0.031l0.007-0.026l-0.007-0.047l-0.026-0.009l-0.057,0.012l-0.183-0.038l-0.062-0.024l-0.132-0.007l-0.089,0.01l-0.095,0.051l-0.047,0.007l-0.066-0.013l-0.016,0.019l0.003,0.035l-0.048,0.065l-0.125,0.069l-0.072,0.01l-0.086-0.005l-0.082,0.019l-0.037-0.007l-0.026,0.007l-0.02,0.039l-0.033,0.001l-0.021-0.054l-0.032-0.017l-0.046,0.007l-0.075-0.005l-0.044-0.021l-0.007-0.03l-0.019-0.015l-0.026,0.008l-0.031-0.003l-0.023-0.028l-0.054-0.008l-0.067,0.012l-0.103-0.014l-0.064-0.033l-0.109-0.018l-0.03-0.017l-0.026-0.069l-0.063-0.042l-0.041-0.004l-0.061,0.047l-0.042-0.003l-0.026-0.044l-0.094-0.055l-0.057,0.003l-0.024,0.045l-0.006,0.08l0.025,0.051l-0.004,0.034l-0.019,0.033l0.011,0.027l0.066,0.012l0.132,0.036l0.085,0.052l0.054,0.101l0.029,0.16l-0.003,0.156l-0.056,0.082l-0.094,0.057l-0.014,0.056l0.035,0.068l0.068,0.031l0.029,0.026l-0.001,0.082l0.015,0.067l0.047,0.058l0.03,0.078l-0.004,0.168l0.009,0.113l0.065,0.119l0.06,0.016l0.027-0.007l0.05,0.022l0.104,0.111l0.082,0.111l0.04,0.028l0.066,0.126l0.081,0.09l0.036,0.065l0.011,0.058l0.051,0.112l0.05,0.046l0.018-0.002l0.011-0.058l0.026-0.033l0.021-0.003l0.025,0.013h0.023l0.018-0.011l0.028,0.002l0.025,0.031l-0.001,0.019l-0.082,0.021l-0.037-0.008l-0.013,0.015l0.024,0.036l0.001,0.022l-0.01,0.032l0.003,0.029l0.029,0.083l0.017,0.147l-0.006,0.092l-0.05,0.113l0.007,0.099l0.038,0.057l0.004,0.029l-0.015,0.056l0.012,0.121l0.051,0.122l0.035,0.022l0.005-0.011l-0.011-0.023l-0.001-0.042l0.032-0.065l0.039-0.036l0.054-0.007l0.069,0.017l0.044,0.04l-0.005,0.008l-0.054-0.037l-0.059-0.006l-0.034,0.025l-0.01,0.075l0.017,0.055l-0.011,0.014l-0.02-0.009l-0.012,0.013l0.005,0.121l-0.002,0.151l0.016,0.015l0.025-0.001l0.024,0.022l-0.007,0.076l-0.024,0.047h-0.018l-0.007-0.05l0.01-0.041l-0.017-0.003l-0.016,0.025l-0.004,0.09l-0.041,0.231l-0.038,0.071l-0.041,0.011l-0.031,0.025l0.007,0.012l0.033-0.001l0.04,0.012l0.047,0.06l0.018,0.084l-0.001,0.152l-0.016,0.077l0.01,0.052l0.068,0.057l0.075,0.011l0.04,0.036l0.01,0.05l0.051,0.102l-0.002,0.031l0.016,0.025l0.192,0.087l0.008,0.033l0.018,0.011l0.056-0.001l0.044-0.008l0.017,0.008l-0.038,0.044l-0.055,0.018l-0.154,0.002l-0.019-0.012l-0.031-0.001l-0.037,0.049l-0.073-0.006l-0.02-0.029l-0.032-0.019l-0.121-0.009l-0.046,0.017l-0.06,0.001l-0.069,0.029l-0.033,0.045l-0.105,0.054l-0.057,0.004l-0.1,0.033l-0.063,0.004l-0.045-0.011h-0.104l-0.055,0.015l-0.134-0.012l-0.129-0.036l-0.067-0.051l-0.04-0.075l-0.002-0.039l0.013-0.046l0.027-0.045l0.079-0.047l0.002-0.025l-0.023-0.024l-0.021-0.039l0.006-0.051l-0.021-0.003l-0.04,0.034l-0.052,0.016l-0.031-0.008l-0.024,0.001l-0.026,0.028l-0.082,0.004l-0.022-0.011l-0.058-0.001l-0.025,0.016l0.004,0.024l-0.04,0.019l-0.094-0.005l-0.017,0.019l0.008,0.026l-0.029,0.043l-0.064,0.035l-0.033-0.005l-0.017,0.01l-0.029,0.073l0.002,0.024l0.025,0.002l0.033,0.04l-0.004,0.03l0.024,0.041l-0.005,0.028l0.011,0.037l0.041,0.029l0.023-0.008l0.049,0.015l0.031-0.005l0.022,0.01l-0.005,0.025l0.026,0.04l-0.015,0.005l-0.077-0.05l-0.017,0.01l0.01,0.04l0.026,0.026l0.012,0.026l-0.008,0.023l0.007,0.019l0.031-0.002l0.012,0.036l-0.017,0.035l0.012,0.026l0.038,0.004l0.011,0.031l-0.021,0.017l-0.021-0.01l-0.031,0.016l-0.009,0.05l-0.031,0.03l-0.016-0.009l0.005-0.075l0.033-0.042l-0.003-0.05l-0.04-0.014l-0.056-0.094l-0.002-0.029l0.023-0.019l0.004-0.026l-0.023-0.023l-0.043-0.007l-0.035-0.073l-0.023-0.021l0.004-0.067l-0.021-0.028l-0.049,0.001l-0.012-0.012l0.024-0.028l-0.01-0.019l-0.042-0.001l-0.033,0.017l-0.104,0.007l-0.047-0.019h-0.033l-0.101,0.043l-0.001,0.019l0.029,0.013l-0.005,0.027l-0.084,0.065l-0.007,0.036l0.018,0.026l0.002,0.025l-0.042,0.041h-0.031l-0.016-0.045l0.012-0.04l-0.003-0.036h-0.019l-0.014,0.045l-0.054,0.088l-0.019,0.002l-0.006-0.08l-0.026-0.017l-0.013-0.04l-0.058-0.051l-0.012-0.041l-0.028-0.047l0.018-0.052l-0.02-0.011l-0.13,0.058l-0.057,0.08l-0.037,0.019l-0.034-0.025l-0.039-0.005l-0.003-0.015l0.029-0.013l0.063-0.05l0.066-0.127v-0.029l-0.064-0.018l-0.005-0.031l-0.02-0.033l-0.029-0.007l-0.018,0.021l-0.005,0.043l-0.121,0.085l-0.082,0.018l-0.094,0.055l-0.028-0.005l-0.014-0.029l-0.064-0.021l-0.154,0.026l-0.02,0.024l0.037,0.033l0.009,0.035l-0.019,0.052l-0.126,0.075l-0.095,0.015l-0.037-0.01l-0.017,0.01l-0.003,0.032l-0.046,0.029l-0.043,0.071l-0.052,0.04l-0.045,0.053l-0.087,0.067l-0.016,0.047l-0.022,0.016l-0.06-0.007l-0.052-0.04l-0.038,0.007l-0.01,0.024l0.024,0.073l-0.016,0.09l-0.015,0.007l-0.037-0.036l-0.029-0.075l-0.054-0.062l0.003-0.039l-0.012-0.048l0.019-0.021l-0.001-0.024l-0.103-0.018l-0.095-0.052l-0.023-0.052l-0.035-0.024l-0.038-0.002l-0.035-0.024l-0.045-0.009l-0.021-0.033l0.025-0.03l0.003-0.033l-0.028-0.099l0.002-0.043l-0.024-0.059l-0.108-0.084l-0.045-0.001l-0.04-0.026l-0.023-0.079l-0.021-0.02l-0.045-0.009l-0.075-0.043l-0.066-0.065l-0.007-0.028l0.04-0.024l0.004-0.028l-0.021-0.015v-0.026l0.03-0.025l-0.006-0.022l-0.036-0.005l-0.041-0.039l-0.123,0.014l-0.113-0.017l-0.078-0.073l0.004-0.035l0.073-0.028l0.035-0.022l0.001-0.025l-0.027-0.069l-0.032-0.018l-0.079,0.014l-0.074-0.009l-0.07,0.055l-0.022,0.065l-0.022,0.108l-0.04,0.04l-0.04-0.003l0.005-0.034l0.033-0.033l0.038-0.053l0.011-0.075l0.036-0.076l-0.005-0.035l-0.023-0.014l0.035-0.076l-0.009-0.035l0.018-0.038l-0.018-0.023l-0.128,0.008l-0.047,0.036l-0.094,0.02l-0.042,0.039l-0.033,0.014l-0.052,0.064l-0.022,0.088l-0.07,0.068l-0.014,0.042l0.012,0.054v0.033l-0.029-0.077v-0.05l0.076-0.075l0.007-0.092l-0.024-0.035l0.002-0.033l-0.03-0.093l-0.062-0.003l-0.076,0.07l-0.102,0.011l-0.041-0.026l-0.086,0.01l-0.094,0.107l-0.149,0.081l-0.036,0.054l-0.117,0.016l-0.037-0.023l0.008-0.058l-0.029-0.028l-0.081,0.002l-0.036-0.081h-0.042l-0.023,0.045l-0.037,0.005l-0.036-0.013l-0.102,0.052v0.065l-0.062,0.05l-0.066,0.031l-0.031,0.052l0.011,0.073l0.096,0.091l-0.005,0.058l-0.055,0.023l-0.034,0.057l0.003,0.172l-0.018,0.04l-0.079,0.002l-0.049-0.049l-0.057,0.007l-0.021,0.04l-0.031-0.013l-0.006-0.076l-0.018-0.021l-0.099,0.018l-0.081-0.002l-0.073-0.068l-0.135-0.01l-0.052,0.018l-0.058-0.003l-0.039-0.042h-0.096l-0.046,0.037l-0.01,0.04l-0.036,0.033l-0.016,0.075l-0.02,0.041l0.008,0.077l0.02,0.061l0.022,0.036l-0.012,0.042h-0.013l-0.005-0.026l-0.032-0.039l-0.082-0.035l-0.049-0.052l-0.016-0.078l-0.044-0.002l-0.073,0.064l-0.039-0.002l-0.013-0.063l-0.052-0.034l-0.029-0.083l0.005-0.055l0.037-0.068l-0.019-0.028l-0.06,0.005l-0.049,0.036l-0.107,0.016l-0.076,0.049l-0.046,0.063l-0.059,0.02l-0.071-0.027l-0.102-0.011l-0.211,0.036l-0.048,0.024l-0.088,0.073l-0.003,0.033l0.034,0.019l0.008,0.021l-0.036,0.01h-0.114l-0.113,0.018l-0.097,0.06l-0.026-0.015l0.05-0.097l-0.013-0.052l-0.112-0.034l-0.107,0.011l-0.094,0.059l-0.146,0.037l-0.044,0.055l-0.112,0.07l-0.128,0.008l-0.055-0.031l-0.138,0.026l-0.036,0.049l0.044,0.076l-0.018,0.026l-0.099-0.003l-0.037-0.047l-0.026,0.021l-0.002,0.094l-0.029,0.031l-0.044-0.008l-0.089,0.021l-0.216,0.016l-0.162,0.13l-0.108,0.174v0.059l0.053,0.09v0.066l-0.087,0.188l0.007,0.087l0.08,0.104v0.059l-0.056,0.077l0.024,0.104l0.052,0.038l0.16-0.01l0.063-0.032l0.021-0.062l0.09-0.017l0.156,0.076l0.094-0.004l0.136-0.076l0.121-0.035l0.115-0.083l0.118-0.024l0.073,0.003l0.056-0.014l0.003-0.042l0.035-0.013l0.056,0.024l0.166-0.08l0.16-0.052h0.049l-0.097,0.059l-0.087,0.021l-0.136,0.069l-0.135,0.101l-0.084,0.153l0.028,0.038l0.087-0.007l0.059,0.028l0.097-0.021l0.087-0.049l0.101-0.031h0.066l0.042-0.041l0.041-0.004l0.007,0.045l-0.08,0.07l-0.107,0.048l0.003,0.028l0.195,0.007l0.146,0.056l0.027,0.041l-0.09,0.053l-0.087,0.017v-0.031l0.052-0.035l-0.01-0.024l-0.153,0.003l-0.215,0.094h-0.122l-0.07-0.073l-0.104-0.014l-0.08,0.038l-0.087,0.011l-0.048-0.053l0.031-0.079l-0.028,0.003l-0.055,0.08l-0.046,0.024l-0.052-0.048l0.028-0.115l0.042-0.073l-0.031-0.021l-0.101,0.059l-0.024,0.07l0.01,0.163l-0.063,0.028l-0.055-0.035l-0.049,0.014l-0.014,0.056l0.018,0.045l0.118,0.035l0.08-0.018l0.055,0.014l0.004,0.059l-0.038,0.021l-0.018,0.042l0.035,0.153l-0.014,0.118l0.042,0.014l0.031-0.049l0.059-0.038l0.038-0.115l0.052-0.104l0.08-0.025l0.084,0.007l0.066,0.039l0.17,0.045l0.049,0.052l0.059,0.014l0.073-0.007l0.073,0.028l0.069,0.09l0.007,0.077l0.077,0.062l0.013,0.056l-0.031,0.052l-0.014,0.121l-0.059,0.053l-0.111-0.007l-0.118-0.063l-0.056-0.003l-0.121,0.02l-0.084,0.035l-0.149,0.011l-0.063,0.031l-0.149,0.007l-0.059,0.041l-0.038,0.011l-0.025-0.024l-0.062-0.004l-0.136,0.052l-0.153,0.021l-0.114,0.035l-0.053-0.021l-0.027,0.021l0.014,0.052l-0.018,0.035l-0.055,0.003l-0.018,0.028l0.16,0.049l0.153,0.017l0.042-0.028h0.027l0.018,0.038l0.101,0.021l0.09,0.07h0.042l0.024-0.035l0.059-0.01l0.122,0.041l0.187,0.098l0.105,0.086l0.114,0.136l0.084,0.142l0.083,0.223l-0.005,0.13l-0.024,0.023l-0.035-0.007l-0.04,0.028l-0.007,0.043l0.038,0.063l0.245,0.006l0.12,0.034h0.156l0.037-0.034l0.031-0.006l0.044,0.008l0.066-0.018l0.047-0.068l0.008-0.049l-0.016-0.027l-0.051-0.035l-0.025-0.047l-0.046-0.06l0.007-0.013l0.028,0.009l0.037,0.029l0.011-0.008l-0.032-0.085l0.013-0.011l0.022,0.017l0.033,0.074l-0.013,0.055l0.026,0.016l0.05-0.052l0.122-0.05l0.068,0.005l0.07-0.008l0.039,0.011l0.073,0.083l0.034,0.008l0.034-0.026l0.126-0.001l0.058-0.014l0.005-0.029l-0.038-0.072l-0.002-0.087l0.018-0.016l0.075,0.008l0.079,0.057l0.101,0.105l0.031,0.106l0.141,0.149l0.024,0.047l0.034,0.015l0.086-0.005l0.062,0.024l0.167-0.003l0.083-0.052l0.05,0.003l0.112,0.106l0.039,0.008l0.034-0.015l0.047,0.002l0.081,0.045l0.224,0.015l0.117,0.026l0.087,0.054l0.061,0.11l0.154,0.144l0.037,0.01l0.065-0.031h0.13l0.044-0.018l0.042-0.079l0.063-0.083l0.088-0.034l0.071-0.086l0.047-0.047h0.033l-0.033,0.026l-0.037,0.068l-0.052,0.071l-0.073,0.02l-0.036,0.032l-0.019,0.075l0.011,0.034l0.078-0.01l0.13,0.026l0.029,0.041l-0.029,0.013l-0.122-0.044l-0.11,0.018v0.024l0.102-0.005l0.167,0.049l0.153,0.099l0.131,0.123l0.01,0.049l0.039,0.026l0.068,0.024l0.057,0.049l0.055,0.125v0.175l-0.047,0.073l0.008,0.115l0.055,0.109l0.062,0.008l0.045,0.026l0.065-0.016l-0.008-0.031l-0.091-0.086l-0.052-0.159l-0.003-0.073l0.026-0.073v-0.039l-0.018-0.029l0.005-0.067l0.018-0.019l0.063,0.052l0.005,0.042l0.01,0.039l0.037,0.013l0.11-0.03l0.059-0.03l0.058-0.002l0.01-0.039l0.021-0.006l0.057,0.081l0.037-0.008v-0.049l0.023-0.008l0.097,0.125l0.07,0.011l0.021-0.024l-0.086-0.143l-0.005-0.102l-0.008-0.088l-0.047-0.102l0.005-0.024l0.089,0.144l0.002,0.041l0.047,0.11l0.131,0.055l0.033-0.008l0.016-0.055l0.052-0.026l0.05-0.06l0.088-0.005l0.079-0.021l0.164,0.018l0.075,0.047l0.065,0.024l0.034,0.065v0.068l-0.036,0.036l-0.021,0.086l-0.052,0.044h-0.076l-0.044-0.044l-0.123-0.034l-0.041,0.037l-0.104,0.002l-0.079-0.057l-0.096-0.016l-0.039,0.042l0.018,0.049l0.083,0.029l0.123,0.099l0.013,0.065l0.083,0.066l0.066,0.013l0.109-0.055l0.08,0.002l0.128-0.027l0.091,0.034l0.073-0.003l0.01-0.056l0.045-0.031l0.108-0.003l0.014-0.032l-0.118-0.052l0.01-0.021l0.139,0.028l0.077-0.003l0.059-0.063l0.028,0.004l-0.059,0.086l-0.07,0.021l-0.003,0.032l0.073-0.011l0.097,0.024l0.045-0.007l0.024-0.041l0.08-0.011l0.125,0.035l0.153,0.073l0.108,0.014l0.049-0.028l0.027,0.011l-0.031,0.041l-0.045,0.021l-0.111-0.014l-0.098,0.018l-0.076-0.032l-0.035,0.025l0.032,0.073l-0.028,0.093l0.062,0.042l0.073-0.003l0.042,0.031l0.003,0.063l0.032,0.041l0.09,0.011l-0.007,0.017l-0.128,0.007l-0.077-0.031l-0.083,0.031l-0.205,0.156l0.003,0.052l0.087,0.025l0.066,0.09l0.035,0.125h0.045l0.066-0.041l0.038,0.024v0.045l0.059,0.101l-0.024,0.024l-0.129-0.003l-0.055-0.021l-0.031-0.045l-0.067-0.018l-0.059,0.021l0.004,0.031l0.128,0.039l0.07,0.048l0.208,0.07l0.042-0.014v-0.07l0.084-0.027l0.114,0.027l0.094,0.091l0.129,0.09l0.125-0.007l0.118-0.076l0.059-0.066l0.132-0.094l0.191-0.066l0.264-0.021l0.275,0.069l0.246,0.028l0.157,0.063l0.104,0.111l0.076,0.115l0.035,0.045l-0.059-0.025l-0.08-0.111l-0.101-0.1l-0.135-0.063l-0.229-0.017l-0.254-0.032l-0.09,0.039l-0.268,0.027l-0.097,0.066l-0.014,0.157l0.048,0.11l-0.026,0.162l-0.047,0.052l-0.063-0.003l-0.099,0.021l-0.073,0.065l-0.003,0.039l0.079,0.029l0.133,0.016l0.125,0.052l0.156,0.013l0.203,0.078l0.157,0.141l0.088,0.151l-0.031,0.041l-0.125,0.04l-0.047,0.075l-0.023,0.133l-0.066,0.102l-0.164,0.122l-0.073,0.12l-0.075,0.013l-0.021,0.042l0.028,0.065l0.016,0.216l0.102,0.097l0.203,0.109l0.279,0.261l0.008,0.086l0.044,0.044l0.096,0.01l0.063,0.076l0.055,0.096l0.109,0.105l0.091,0.114l0.118,0.334l0.018,0.162l0.036,0.026h0.068l0.047,0.015l0.06,0.065l0.149,0.092l0.216,0.099l0.044,0.054l0.133,0.058l0.19,0.023l0.091-0.002l0.081,0.018l0.073,0.065l0.089,0.206l0.07,0.021l0.078-0.021h0.107h0.151l0.094,0.06l0.05,0.094l0.073,0.07l0.023-0.016l-0.028-0.049l-0.027-0.076l0.021-0.008l0.151,0.149l0.167,0.122l0.029-0.007l-0.01-0.055l0.062-0.081l0.089-0.036l0.088,0.002l0.042,0.032l0.029,0.148l-0.042,0.094l-0.128,0.107l-0.057,0.023l-0.063,0.065l0.006,0.068l-0.055,0.052l-0.044,0.084l0.015,0.06l0.086,0.002l0.063-0.031l0.073-0.008l0.026,0.018l-0.029,0.037l0.013,0.036l0.115,0.065l0.023,0.06l0.052,0.05l0.045,0.075l-0.003,0.097l0.026,0.036l0.055,0.016l0.06,0.076l0.018,0.122l-0.029,0.05l-0.119,0.007l-0.019,0.037l0.045,0.034l0.028,0.088l-0.008,0.037l-0.046,0.01l-0.011,0.026l0.068,0.042l0.018,0.068l-0.021,0.096l-0.086,0.099l-0.026,0.071l-0.068,0.026l-0.067-0.011l-0.045,0.042l0.013,0.078l0.055,0.063l-0.01,0.083l-0.029,0.021l-0.068-0.005l-0.091,0.047l-0.065-0.024l-0.115,0.05l-0.015,0.062l0.002,0.326l0.031,0.096l0.034,0.027l0.05-0.011l-0.042-0.013l-0.026-0.062l0.011-0.032l0.044-0.01l0.169,0.086l0.151,0.122l0.152,0.058l0.145,0.086l0.086,0.01l0.097,0.107l0.018,0.078l0.107,0.112l0.055,0.008l0.028-0.018l0.066,0.018l0.276,0.237l0.177,0.201l0.175,0.273l0.086,0.193l0.109,0.412l0.016,0.149l0.08,0.31v0.109l0.021,0.104l0.06,0.105l0.019,0.083l0.046,0.06l0.123,0.094l0.07,0.026l0.068,0.013l0.086,0.036l0.117,0.084l0.076,0.026l0.057,0.044l0.016,0.107l0.068,0.13l0.036,0.024l0.089-0.044l0.07,0.007l0.063,0.037l0.187,0.031l0.042,0.039l0.013,0.097l0.01,0.039l-0.033-0.039l-0.019-0.081l-0.031-0.031l-0.185-0.021l-0.055-0.034l-0.054-0.011l-0.097,0.042l-0.049-0.016l-0.094-0.145l-0.013-0.094l-0.029-0.034l-0.091-0.034l-0.117-0.083l-0.094-0.024l-0.094-0.039l-0.021,0.003l0.057,0.086l0.105,0.062l0.067,0.081l0.024,0.086l-0.047,0.143l0.005,0.068l0.039,0.099l-0.021,0.151l-0.033,0.032l-0.045,0.013l0.05-0.045l0.015-0.133l-0.049-0.112l-0.005-0.067l0.044-0.149l-0.023-0.078l-0.06-0.063l-0.136-0.065l-0.102-0.083l-0.117-0.151l-0.101-0.115l-0.199-0.501l-0.013-0.2l-0.057-0.214l-0.128-0.268l-0.093-0.11l-0.274-0.174l-0.044-0.05l-0.039-0.07l-0.086-0.065l-0.094-0.032l-0.12-0.083l-0.065-0.076l-0.047-0.044l-0.076-0.034l-0.023-0.065l0.054-0.065l-0.002-0.057l-0.039-0.024l-0.013-0.031v-0.052l-0.032-0.029l-0.088,0.039l-0.037,0.102l-0.047,0.083l-0.067,0.037l-0.097,0.192l-0.002,0.058l0.021,0.068v0.065l-0.04,0.096v0.112l0.024,0.115l-0.008,0.279l-0.042,0.383l-0.086,0.706l-0.067,0.675l-0.089,0.693l-0.078,0.389l-0.011,0.237l0.047,0.054l0.024-0.018v-0.096l0.028-0.172l0.034-0.097l0.17-0.179l0.002-0.06l0.039-0.042l0.037-0.01l0.203,0.135l0.297,0.287l0.005,0.047l-0.026,0.039l-0.174,0.067l-0.19-0.01l-0.034-0.052l-0.097-0.044l-0.109,0.005l-0.05,0.096l0.002,0.118l-0.052,0.145l-0.125,0.174l-0.018,0.115l0.025,0.125l-0.025,0.268l-0.146,0.99l-0.139,0.737l-0.225,0.827l-0.118,0.507l-0.039,0.267l-0.049,0.173l-0.297,0.519l-0.099,0.117l-0.126,0.206l-0.247,0.169l-0.13,0.032l-0.217,0.078l-0.039-0.016l-0.031,0.011l-0.018,0.031l-0.091,0.003l-0.004,0.081l0.056,0.051l0.073,0.008l0.055,0.065l0.002,0.069l0.029,0.061l0.056,0.005l0.103-0.064l0.112-0.012l0.122,0.046l0.034,0.049l-0.016,0.05l0.024,0.127l0.055,0.029l0.119-0.002l0.058-0.102l-0.024-0.042l0.021-0.031l0.18-0.005l0.141,0.088l0.143,0.032l0.063-0.024l0.044,0.008l0.094,0.099l0.005,0.081l-0.037,0.198l-0.054,0.057l-0.013,0.091l-0.026,0.032l-0.016,0.099l-0.12,0.109l-0.07,0.034l-0.016,0.07l0.102,0.131l0.32,0.078l0.055-0.117l-0.023-0.136l0.039-0.104l0.075-0.039l0.17-0.011l-0.107,0.11l-0.032,0.109l0.128,0.063l0.047,0.06l0.052,0.002l0.06-0.054l0.071,0.013l0.106,0.075l0.053-0.008l0.08,0.042l0.011,0.076l0.039,0.007l0.073-0.062l0.104,0.055l0.01,0.036l0.196,0.044l0.052-0.01l0.044,0.026l0.019,0.06l0.19,0.099l0.083,0.003l0.042-0.045l0.06,0.011l0.023,0.031l0.086,0.018l0.204-0.008l0.078-0.054l0.133-0.008l0.073,0.097l0.018,0.088l-0.021,0.055l0.006,0.062l0.115,0.077l0.069-0.014l0.059,0.031l0.063,0.09l0.153,0.101l0.021,0.111l0.034,0.018l0.056-0.018l0.038,0.018l-0.01,0.08l0.05,0.02l0.054-0.055l0.035,0.003l0.028-0.027v-0.063l0.053-0.054h0.031l0.091,0.073l0.117,0.047l0.111-0.024l0.094,0.003l0.086-0.052l0.063-0.09l0.082-0.004l0.054-0.039l0.093,0.044l0.163,0.076l0.065,0.083l0.113,0.052l0.059,0.003l0.052-0.038l0.035,0.021l0.028,0.09l0.117,0.149l0.013,0.065l0.135,0.023l0.032,0.039l0.018,0.058l0.159,0.049l0.075-0.015l0.029-0.047l0.039-0.011l0.091,0.021l0.084-0.023l0.029-0.055l0.054-0.013l0.056,0.035l0.184-0.052l0.045-0.049l0.059-0.004l0.132,0.063l0.125,0.017l0.053,0.119l0.072,0.066h0.053l0.062-0.056l0.028-0.073l0.09-0.066h0.08l0.101,0.101l0.129,0.031l0.142-0.038l0.111,0.028l0.091-0.035l0.187,0.017l0.07-0.014l0.246,0.049l0.046-0.056l-0.007-0.09l-0.063-0.097l-0.052-0.035l0.01-0.045l0.039-0.011l0.007-0.031l-0.049-0.028l0.024-0.066l0.056-0.024l-0.007-0.087l-0.035-0.045l0.045-0.087l0.132-0.042l0.108,0.032l0.035,0.052l0.139,0.041l0.087-0.01l0.208,0.063l0.024,0.038l0.094,0.028l0.056,0.062l0.055,0.028l0.042-0.004l0.056-0.066h0.052l0.045,0.066l0.049,0.011l0.062-0.018l0.146,0.042l0.104-0.007l0.122,0.052l0.087,0.098l0.01,0.104l0.101,0.08l0.098-0.038l0.086-0.01l0.055-0.034l0.068,0.018l0.021,0.034l0.096,0.005l0.164-0.044l0.099,0.031l0.008,0.071l0.042,0.031h0.044l0.055,0.044l0.008,0.073l0.08,0.081l0.029,0.117l0.079,0.085l0.062,0.004l0.06-0.043l-0.018-0.103l0.028-0.069l0.058-0.014l0.022,0.032l0.071,0.002l0.044-0.026l0.069-0.014l0.088,0.032l0.037,0.065l0.086,0.031l0.106-0.013l0.068,0.016l0.011,0.023l0.044,0.003l0.036-0.021l0.076,0.01l0.07,0.032l0.058-0.003l0.018,0.018l-0.042,0.055l-0.013,0.047l0.014,0.01l0.062,0.003l0.068,0.026l0.065-0.004l0.012,0.028l-0.028,0.039l-0.045,0.011l-0.061,0.002l-0.043,0.048l-0.013,0.099l-0.026,0.058l0.002,0.069L647.61,282.934z"/>
</svg>
