<svg xmlns="http://www.w3.org/2000/svg" viewBox="620.150 218.792 27.680 29.194">
  <path d="M624.455,232.06l-0.013-0.05l-0.041-0.036l-0.004-0.024l-0.032-0.029l-0.027-0.008l-0.003-0.032l0.022-0.033l0.001-0.064l-0.041-0.024l-0.045,0.003l-0.029-0.035l-0.13-0.042l-0.091-0.001l-0.031,0.036l-0.034,0.006l-0.011,0.035l0.048,0.05l0.006,0.043l0.076,0.037l0.052-0.021l0.094,0.014l0.017,0.019l-0.018,0.021l0.001,0.029l0.027,0.026l0.02,0.071l0.049,0.039l0.097,0.004L624.455,232.06z M625.256,232.625l0.032-0.029l0.095-0.016l0.222-0.162l0.079-0.029l0.047-0.05l0.008-0.073l0.098-0.073l0.322-0.169l0.077-0.094l0.024-0.065l0.061-0.076l0.048-0.036l-0.016-0.029l-0.119-0.008l-0.098-0.026l-0.092,0.018l-0.053,0.05l-0.166,0.052l-0.066-0.003l-0.008-0.023l0.024-0.063l-0.108-0.201l-0.111-0.047l-0.045-0.078l0.024-0.065l-0.04-0.089l-0.114-0.052h-0.169l-0.069-0.031l-0.206-0.021l-0.061,0.013l-0.021,0.034l-0.04,0.003l-0.063-0.008l-0.137,0.021l-0.05,0.036l-0.124,0.013l-0.021,0.052l0.037,0.115l-0.005,0.065l-0.048,0.086v0.102l0.04,0.063l0.005,0.065l-0.037,0.089l0.021,0.076l0.032,0.029l0.021,0.06l0.092,0.073l0.082,0.099l0.011,0.065l-0.008,0.052l0.071,0.055l0.055,0.003l0.045,0.031l0.008,0.05l0.058,0.031l0.048-0.003l0.034,0.023l0.013,0.042l0.061,0.031h0.061l0.069,0.039l0.055,0.018l0.024-0.01L625.256,232.625z M623.939,240.069l0.045,0.029l0.04-0.013l0.003-0.023l-0.024-0.021h-0.098l-0.003,0.016L623.939,240.069z M621.778,239.778l0.032-0.003l0.023-0.016l0.002-0.017l-0.019-0.009l-0.033,0.005l-0.018,0.028L621.778,239.778z M621.709,239.607h0.033l0.058-0.03l0.007-0.014l-0.081-0.033l-0.049,0.009l-0.023,0.03l0.016,0.026L621.709,239.607z M621.542,238.996l0.025,0.002l0.021-0.019l0.002-0.043l0.018-0.045l-0.026-0.016l-0.037,0.012l-0.026,0.049v0.036L621.542,238.996z M624.818,234.28l0.018-0.01l-0.008-0.021h-0.024l-0.011,0.021L624.818,234.28z M623.569,234.57l0.055-0.031l0.034-0.05l-0.016-0.042l-0.047-0.005l-0.024,0.021l0.003,0.047l-0.026,0.055L623.569,234.57z M624.784,234.322l0.018-0.016l-0.013-0.018l-0.018,0.003l-0.011,0.021L624.784,234.322z M623.952,234.377l0.013-0.016l-0.013-0.01l-0.018,0.005v0.018L623.952,234.377z M629.77,241.323l0.019-0.014l-0.011-0.014h-0.023l-0.011,0.017L629.77,241.323z M634.483,219.473l-0.002-0.031l0.048-0.012l0.069,0.014l0.104-0.017l0.058,0.035l0.011,0.059l-0.021,0.021l-0.072-0.005l-0.042-0.024l-0.025-0.038l-0.063-0.005l-0.032,0.019L634.483,219.473z M638.84,229.701l0.04-0.021l0.025-0.023l-0.009-0.014l-0.035,0.012l-0.033,0.036L638.84,229.701z M629.456,227.05l0.014-0.023l-0.002-0.019l-0.016-0.003l-0.013,0.014l-0.003,0.029L629.456,227.05z M629.272,227.436l0.018-0.021l-0.014-0.007l-0.063,0.023l-0.03,0.056l0.009,0.09l0.083,0.172l0.155,0.203l0.053,0.023l0.079-0.003l0.048-0.035l-0.007-0.026l-0.039-0.033l-0.019-0.05l-0.062-0.035l-0.063-0.019l-0.044-0.066l-0.046-0.038l-0.03-0.075l0.002-0.059l-0.03-0.076L629.272,227.436z M629.598,227.862l-0.004-0.011l-0.011-0.001l-0.006,0.01l0.01,0.009L629.598,227.862z M644.128,239.643l0.04,0.018h0.045l0.024-0.013l-0.024-0.021l-0.071-0.003L644.128,239.643z M643.416,241.185l0.004-0.01l0.056-0.003l0.006,0.012l-0.024,0.01L643.416,241.185z M643.531,241.219l0.015,0.008l0.034-0.014l0.004-0.017l-0.018-0.004l-0.028,0.011L643.531,241.219z M643.86,241.118l0.007-0.024l-0.013-0.01l-0.059,0.006l-0.013,0.019l0.021,0.025L643.86,241.118z M643.817,241.254l0.014-0.007l0.01-0.017l-0.014-0.004l-0.022,0.01l-0.004,0.012L643.817,241.254z M643.876,241.218l0.018-0.01l0.001-0.028l-0.017-0.021l-0.031-0.004l-0.042,0.01l0.003,0.021l0.039,0.03L643.876,241.218z M635.474,244.702l0.006,0.02l0.195-0.041l0.158,0.016l0.127,0.101l0.149,0.047l0.298,0.18l0.055,0.083l0.042,0.016l0.211-0.029l0.121-0.055h0.079l0.058-0.044l0.055-0.203l0.069-0.063l0.148-0.034l0.119-0.086l-0.008-0.039l-0.071-0.039l-0.045-0.089l-0.188-0.081l-0.151,0.005l-0.148-0.047l-0.129-0.107l-0.153-0.005l-0.151,0.117l-0.193,0.068h-0.095l-0.166,0.078l-0.148,0.016l-0.069,0.036l-0.066,0.091l-0.062,0.04l-0.012,0.028L635.474,244.702z M633.972,244.591l0.067-0.002l0.025-0.016l-0.011-0.03l-0.056-0.007l-0.047,0.017l-0.004,0.023L633.972,244.591z M632.245,245.182l0.005,0.031l-0.026,0.052l-0.007,0.123l0.028,0.014l0.092-0.104l0.037-0.024l0.011-0.054l-0.051-0.073l-0.079-0.002l-0.026-0.024l-0.018,0.01L632.245,245.182z M625.67,242.787l0.022-0.007v-0.011l-0.032-0.014l-0.013,0.004l0.004,0.017L625.67,242.787z M629.797,241.493l0.018,0.009l0.025-0.007l-0.005-0.019l-0.023,0.002L629.797,241.493z M644.169,241.339l0.028,0.016l0.049-0.014l0.173,0.036l0.083,0.003l0.118,0.031l0.093-0.005l0.127-0.064v-0.031l-0.069-0.094l-0.116-0.087l-0.095-0.024l-0.208-0.031l-0.104-0.068l-0.137-0.017l-0.039,0.035l-0.012,0.061l0.011,0.036l-0.014,0.036l-0.03-0.002l-0.004,0.021l0.093,0.05l0.055,0.073L644.169,241.339z M629.962,223.118l0.092-0.092l0.071-0.193l-0.04-0.047l-0.047-0.007l0.005-0.034l0.048-0.016l0.279,0.037l0.074-0.047l0.006-0.047l0.081-0.042l0.069-0.01l0.101-0.133l0.066-0.024l0.084-0.075l0.005-0.055l0.029-0.029l0.048,0.008l0.084-0.026l0.175-0.115l0.137-0.052l0.129-0.237l0.13-0.013l0.013-0.112l0.074-0.013l-0.14-0.068l0.061-0.015l0.082-0.11l0.118-0.062l0.074-0.092l0.13-0.057l0.126-0.151l0.151-0.026l0.153,0.002l0.034,0.047l0.064,0.003l0.129-0.096l0.008-0.045l0.037-0.034l-0.026-0.096l0.031-0.042l0.061-0.002l0.058-0.029l0.019-0.031l0.116-0.052h0.119l0.097-0.042l0.048-0.06l0.021-0.083l0.061-0.021l-0.003-0.029l-0.103-0.013l-0.032-0.034l0.003-0.052l-0.066-0.089v-0.073l-0.063-0.177l-0.101-0.088l-0.076-0.032l-0.016-0.041l0.018-0.04v-0.049l-0.024-0.033l-0.047-0.004l-0.024-0.028l0.029-0.023l-0.018-0.024l-0.05-0.005l-0.029-0.034l0.024-0.047l0.058-0.021l0.177,0.003l0.073,0.026l0.043-0.034l-0.016-0.055l0.069-0.039l0.002-0.057l0.108-0.112l0.053-0.016l0.011-0.036l-0.021-0.058l0.021-0.026l0.055,0.005l0.024-0.018v-0.057l0.04-0.021l0.052,0.008l0.061-0.052l-0.008-0.037l0.027-0.023h0.037l0.026-0.034l-0.024-0.086l0.027-0.052l0.169-0.083l0.151,0.167l0.074,0.142l0.166,0.171l0.183,0.125l0.056,0.076l0.014,0.097l0.137,0.129l0.074,0.007l0.043-0.028l0.007-0.076l0.031-0.004l0.074,0.15l-0.035,0.083l0.032,0.017l0.081-0.038l0.105,0.011l0.134,0.069l0.151,0.136l0.044,0.09l-0.003,0.116l0.058,0.113l-0.003,0.056l0.019,0.038l0.049,0.009l0.021,0.061l-0.007,0.219l0.018,0.031l0.056,0.026l0.002,0.101l-0.044,0.034l-0.063,0.1l0.012,0.144l0.072,0.087l0.099,0.071l0.005,0.062l-0.055,0.115l-0.005,0.103l0.069,0.158l0.07,0.081l0.021,0.078l0.074,0.086l0.004,0.045l-0.078,0.12l0.025,0.102l0.063,0.073l0.023,0.059l-0.005,0.047l0.051,0.103l0.099,0.083l0.014,0.028v0.059l0.091,0.108l0.097,0.213l0.16,0.12l0.011,0.104l-0.03,0.058l0.017,0.18l-0.007,0.051l0.066,0.226l0.075,0.083l0.044,0.132l0.004,0.16l0.054,0.092l0.102,0.08l0.09,0.103l0.145,0.09l0.098,0.035l0.005,0.019l-0.068,0.066l0.002,0.062l0.102,0.122l-0.014,0.061l-0.076,0.038l0.003,0.023l0.095,0.024l0.013,0.052l-0.099,0.097l0.025-0.007l0.098-0.083l0.006-0.08l0.037-0.049l0.01-0.045l0.023-0.003l0.053,0.048l0.107,0.047l0.076,0.009l0.083,0.031l0.074,0.068l0.181,0.073l0.077,0.009l0.069-0.014l0.1,0.028l0.048,0.043l0.056,0.014l0.106-0.002l0.158,0.068l0.116,0.018l0.092,0.086l0.016,0.047l0.053,0.018l0.092-0.008l0.132,0.073l0.037,0.066l0.093,0.036l0.153,0.026l0.119,0.065l0.034,0.063l0.143,0.094l-0.003,0.047l-0.027,0.033l0.016,0.076l0.061,0.044l0.085,0.026l0.097,0.118l0.135,0.271l0.024,0.127l0.079,0.178l0.116,0.14l0.312,0.133l0.005,0.021l-0.032,0.07l0.029,0.084l0.13,0.102l0.274,0.091l0.177,0.083l0.117,0.037l0.031,0.028l-0.01,0.052l-0.111,0.029l-0.122,0.003l-0.097,0.034l-0.109,0.104l-0.053,0.143l0.003,0.209l0.248,0.602l0.098,0.161l0.37,0.451l0.515,0.573l0.103,0.248l0.005,0.081l-0.023,0.035l-0.039,0.02l0.039-0.052l-0.011-0.071l-0.093-0.081l-0.206-0.086l-0.132-0.008l-0.293,0.089l-0.15-0.021l-0.14-0.088l-0.328-0.292l-0.045-0.089l-0.055-0.039l-0.124-0.044l-0.19,0.013l-0.159,0.07l-0.224,0.052l-0.177,0.003l-0.164,0.031l-0.111-0.016l-0.142-0.093l-0.177,0.005l-0.098,0.036l-0.09,0.11l-0.013,0.062l0.042,0.055l-0.01,0.05l0.023-0.019l0.014-0.047l-0.029-0.044l0.013-0.042l0.185-0.086h0.097l0.233,0.167l0.145,0.005l0.108-0.07l0.093-0.021l0.187-0.005l0.317-0.078l0.119,0.015l0.06,0.047l0.114,0.183l0.169,0.169l0.211,0.136l0.161,0.138l0.043,0.008l0.029-0.024l0.047,0.005l0.246,0.243l0.15,0.062l0.103,0.006l0.285,0.135l0.154,0.177l0.174,0.334l0.018,0.112l0.138,0.344l0.137,0.185l0.058,0.245l0.053,0.125l-0.037,0.451l-0.085,0.169l-0.147,0.045l-0.093,0.099l-0.211,0.08l-0.087,0.013l-0.278,0.282l-0.113,0.24l0.008,0.075l0.105,0.055l0.125,0.016l0.161,0.06l0.052,0.065l0.103,0.203l0.127,0.06l0.188-0.026l0.116,0.003l0.076,0.036l0.061-0.013l0.227-0.185l0.13-0.214l0.034-0.19l0.116-0.169l0.153-0.058l0.275-0.002l0.137-0.058l0.193-0.005l0.177,0.05l0.388-0.003l0.085,0.039l0.232-0.01l0.092-0.037h0.056l0.253,0.104l0.272,0.063l0.455,0.047l0.237,0.062l0.344,0.193l0.261,0.214l0.436,0.287l0.327,0.307l0.18,0.448l0.002,0.113l-0.039,0.216l0.005,0.12l0.1,0.279l-0.005,0.093l-0.053,0.066l-0.042,0.101l-0.003,0.136l-0.05,0.156l-0.1,0.177l-0.032,0.115l-0.066,0.083l-0.069,0.042l-0.06,0.133l-0.029,0.248l0.005,0.119l-0.019,0.092l-0.044,0.091l-0.085,0.352l-0.074,0.067l-0.274,0.081l-0.106,0.094l-0.116,0.185l-0.235,0.196l-0.095,0.052l-0.066,0.091l-0.022-0.011l-0.034-0.08l-0.068-0.042l-0.04-0.073l-0.011-0.07l-0.081-0.045l-0.249-0.08l-0.071-0.063l-0.032-0.008l0.006,0.039l0.071,0.073l0.256,0.089l0.053,0.039l0.034,0.107l-0.021,0.021l-0.071-0.019h-0.069l-0.045,0.026l-0.113-0.015l-0.043-0.037l-0.087-0.002l-0.095,0.047l-0.182-0.006l-0.084,0.024l-0.003,0.021l0.203,0.034l0.093,0.005l0.084-0.034l0.066,0.005l0.074,0.029l0.129-0.005l0.04-0.029h0.053l0.05,0.018l0.061-0.015l0.039,0.026l-0.132,0.14l-0.045,0.12l0.027,0.029l0.076,0.002l0.053,0.032l-0.005,0.086l-0.158,0.172l-0.13,0.091l-0.211,0.096l-0.09,0.058l-0.301,0.021l-0.049-0.068l-0.016-0.079l-0.131-0.114l-0.012-0.084l-0.034-0.051l0.011,0.051l-0.005,0.073l0.033,0.057l0.058,0.061l0.001,0.028l-0.147,0.083l-0.129,0.03h-0.114l-0.035-0.025l-0.041-0.005l-0.002,0.016l0.036,0.041l-0.046,0.056l-0.099,0.073l-0.1,0.01l-0.134-0.014l-0.118,0.014l-0.077,0.042l-0.078-0.021l-0.01,0.016l0.063,0.062l0.146,0.021l0.021,0.023l0.044-0.005l0.035-0.039l0.092-0.017l0.072,0.009l0.125-0.049l0.102-0.083l0.069-0.006l0.083,0.032l0.023,0.047l-0.002,0.064l-0.016,0.078l0.025,0.057l0.001,0.073l-0.033,0.105l-0.007,0.08l-0.044,0.045l-0.12,0.029l-0.252-0.01l-0.137-0.019l-0.053-0.038l0.007,0.026l0.036,0.036l0.153,0.024l0.243,0.014l0.126-0.015l0.073-0.021l0.044,0.002l0.007,0.02l-0.069,0.092l-0.164,0.127l-0.169,0.087l-0.179,0.117l-0.041,0.041h-0.04l-0.108-0.04l-0.341-0.048l-0.079,0.001l-0.06,0.033l-0.08-0.008l0.027,0.024l0.076,0.019l0.014,0.026l-0.02,0.025l-0.149,0.026l-0.206-0.004l-0.263,0.04l-0.059,0.052l-0.029,0.124l-0.077,0.04l-0.173,0.022h-0.068l-0.057-0.031l-0.051-0.066l-0.07,0.003l-0.058,0.04l-0.055-0.005l-0.193-0.115l-0.066-0.008l-0.038,0.01l-0.023-0.012l-0.023-0.073l-0.158-0.068l-0.166,0.023l-0.084,0.069l-0.161,0.002l-0.067-0.043l-0.047,0.017l0.042,0.005l0.064,0.045h0.179l0.095-0.067l0.143-0.016l0.128,0.059l0.03,0.068l0.055,0.033l0.051-0.009l0.049,0.012l0.185,0.113l0.07,0.005l0.071-0.052l0.024,0.002l0.053,0.073l0.065,0.03l0.168,0.001l0.153-0.019l0.063-0.035l0.069-0.126l0.086-0.037l0.199-0.002l0.259,0.042h0.125l0.206,0.037l0.063,0.073l-0.007,0.052l-0.051,0.045l-0.107,0.007l-0.053-0.018l-0.12,0.013l-0.025,0.06l-0.047,0.026l-0.268,0.025l-0.054,0.052l0.007,0.017l0.065-0.036l0.03,0.008l0.012,0.03l0.152,0.052l0.037,0.028h0.029l0.03-0.037l0.067-0.013l0.016-0.023h0.039l0.039,0.069h0.051l0.047-0.05h0.018l0.023,0.031l0.031-0.001l0.009-0.02l-0.049-0.064l-0.002-0.064l0.03-0.019l0.074-0.009l0.009,0.023l-0.041,0.028l0.021,0.064l0.094,0.047l0.039,0.048v0.066l0.042,0.023l0.121,0.003l0.055,0.025l0.178-0.009l0.144,0.056l0.326-0.013l0.162-0.09l0.522-0.064l0.333,0.003l0.104-0.022l0.183-0.009l0.099-0.035l0.163-0.015l0.092,0.04l0.035,0.088l-0.039,0.11l-0.072,0.078l-0.049,0.021h-0.074l-0.037-0.009l-0.04,0.023v0.036l0.133,0.328l0.013,0.136l-0.011,0.207l-0.04,0.099l-0.083,0.069l-0.187,0.072l-0.024,0.048l-0.173,0.066l-0.148,0.004l-0.056,0.026l-0.058,0.073l-0.097,0.031l-0.238,0.012l-0.183,0.056l-0.209,0.146l-0.095,0.133l-0.03,0.139l0.01,0.101l0.058,0.127l-0.012,0.037l-0.056,0.015l-0.297-0.035l-0.311-0.068l-0.101,0.005l-0.208,0.109l-0.172,0.162l-0.077,0.037l-0.393,0.073l-0.312,0.086l-0.169,0.013l-0.195,0.073l-0.108,0.096l-0.032,0.057l-0.106,0.058l-0.105,0.104l-0.027,0.052l-0.079,0.013l-0.14-0.021l-0.185-0.075l-0.097-0.008l-0.082-0.029l-0.103-0.07l-0.309-0.071l-0.336-0.096l-0.338-0.057l-0.359-0.006l-0.396,0.102l-0.264,0.018l-0.296-0.002l-0.557,0.109l-0.132,0.044l-0.098,0.081l-0.058,0.112l-0.055,0.032l-0.185-0.141l-0.129-0.071l-0.161-0.05l0.005-0.04l0.044-0.035l-0.003-0.041l-0.149-0.135l-0.025,0.005l-0.035,0.09l0.021,0.091l0.067,0.019l-0.005,0.025l-0.059,0.01l-0.142-0.026l-0.09,0.001l-0.007-0.032l0.093-0.052l0.041-0.136l-0.043-0.053h-0.087l-0.082,0.09l0.01,0.132l-0.035,0.043l-0.121,0.033l-0.091-0.035l-0.019-0.091l0.043-0.112l-0.03-0.078l-0.035,0.003l-0.032,0.035l-0.08,0.007l-0.011,0.029l0.085,0.087l0.003,0.133l-0.049,0.037l-0.052-0.007l-0.091-0.061l-0.195-0.113l-0.256-0.101l-0.227-0.201l-0.182-0.094l-0.115-0.045l-0.058-0.005l-0.069-0.049l0.017,0.039l0.044,0.035l0.076,0.011l0.091,0.058l0.07,0.086l0.074,0.068l0.148,0.081l0.102,0.097l-0.007,0.036l-0.056,0.023l-0.046,0.038l-0.022,0.054l-0.044,0.017l-0.076,0.003l-0.202,0.083l-0.312,0.047l-0.046,0.029l-0.021,0.048l-0.05,0.04l-0.006,0.031l-0.065,0.041l-0.232-0.073l-0.219-0.036l-0.129,0.007l-0.068,0.035h-0.093l-0.044-0.019l-0.005,0.017l0.044,0.038l0.06,0.006l0.003,0.022l-0.072,0.007l-0.088-0.026l-0.192-0.005l-0.179,0.026l-0.103,0.057l-0.077,0.075l-0.021-0.003l0.03-0.053l-0.093-0.076l-0.092,0.021l-0.106-0.009l-0.109-0.029l-0.074,0.029l-0.042,0.075l0.018,0.022l0.051-0.013l0.065-0.06l0.03,0.007l0.023,0.047l-0.014,0.044l0.035,0.021l0.072,0.014l0.074,0.038l0.063-0.009l0.043-0.033l0.031,0.012l-0.023,0.087l0.014,0.05l0.062,0.039l-0.002,0.031l-0.063,0.028l-0.021,0.038l0.01,0.063l-0.007,0.045l-0.051,0.017l-0.211,0.014l-0.079,0.05l-0.051-0.008l-0.028-0.047l-0.059-0.026l-0.146-0.026l-0.049-0.042l-0.266-0.052l-0.113,0.021l-0.32-0.037l-0.07-0.031l-0.157-0.021l-0.165,0.012l-0.066,0.064v0.049l-0.021,0.042l-0.038,0.029l-0.013,0.04l-0.03,0.002l-0.079-0.054l-0.021-0.073l-0.049-0.026l-0.099-0.029l-0.253-0.146l-0.407-0.197l-0.271-0.102l-0.129-0.012l-0.218-0.061l-0.111,0.003l-0.149,0.094l-0.166,0.061h-0.13l-0.129-0.016l-0.06,0.023l-0.021,0.047l-0.033,0.017l-0.095-0.014l-0.282,0.016l-0.171,0.04l-0.102,0.066l-0.04,0.104l-0.065,0.051l-0.08,0.01l-0.082,0.035l-0.037,0.047l-0.131,0.003l-0.1-0.04l-0.002-0.019l0.014-0.04l-0.102-0.221l-0.061-0.013l-0.029-0.042l-0.054-0.023l0.044,0.044l0.009,0.071l0.024,0.04l0.048,0.036l0.021,0.08l0.005,0.077l0.058,0.028l0.009,0.019l-0.137,0.139l-0.012,0.06l-0.085,0.091l-0.069,0.009l-0.179-0.002l-0.044,0.019l0.039,0.005l0.038-0.007l0.155,0.007l0.028,0.019l-0.042,0.124l-0.007,0.109l0.078,0.09l-0.015,0.028l-0.081,0.024l-0.082-0.001l-0.06,0.061l-0.009,0.131l0.031,0.045l0.097,0.027l0.046,0.005l0.048-0.014l0.035,0.007v0.023l-0.055,0.05l-0.052,0.075l-0.015,0.09l-0.045,0.057l-0.056,0.004l-0.076-0.046l-0.039-0.089l-0.01-0.101l-0.045-0.033l-0.077-0.005l-0.073-0.034l-0.035-0.044l-0.056-0.005l0.032,0.019l0.044,0.047l0.067,0.04l0.058,0.013l0.047,0.025l0.025,0.084l0.043,0.093l0.023,0.029l0.002,0.034l-0.034,0.028l-0.083,0.017l-0.125,0.076l-0.058,0.106l-0.046,0.151l0.009,0.092l0.033,0.033l-0.016,0.019l-0.031,0.007l-0.071-0.004l-0.077,0.032l-0.028,0.036l-0.071-0.002l-0.086-0.064l-0.065-0.012l-0.009-0.035l0.03-0.047l-0.009-0.008l-0.047,0.033l-0.025,0.057l0.004,0.038l-0.03,0.007l-0.102-0.028l-0.057-0.04l-0.104-0.043l-0.003-0.035l0.017-0.057l-0.029-0.052l-0.194-0.124l-0.134-0.055l-0.135-0.009l-0.129,0.056l-0.102-0.002l-0.078-0.045l-0.003-0.03l-0.044-0.024l-0.1,0.002l-0.043-0.037l-0.012-0.154l-0.055-0.026l-0.07-0.006l-0.088-0.057l-0.021-0.073l-0.037-0.047l0.017-0.073l0.062-0.059l0.055-0.062l0.038-0.077l-0.024,0.007l-0.071,0.096l-0.026-0.004l-0.07-0.113l-0.025-0.024l-0.037,0.002l-0.023,0.026l0.03-0.006l0.025,0.004l0.03,0.087l0.028,0.026l-0.011,0.028l-0.035,0.017l-0.004,0.069l0.016,0.02l-0.009,0.038l-0.079,0.022l-0.074,0.053l-0.044,0.006l-0.04,0.023l-0.034-0.016l0.025,0.032l0.106-0.011l0.049-0.033l0.012-0.026l0.039-0.012l0.069,0.033l0.017,0.037l-0.021,0.027l-0.067,0.026l0.002,0.032l0.04,0.014l0.071-0.009l0.076,0.009l0.005,0.04l-0.093,0.052l-0.011,0.026l0.018,0.026l-0.002,0.026l-0.094,0.031l-0.015-0.012l0.001-0.05l-0.033-0.042l-0.146-0.078l-0.116-0.037l-0.224,0.004l-0.09-0.023l-0.176,0.016l-0.06,0.036l-0.068,0.087l-0.037,0.011h-0.081l-0.123,0.031h-0.066l-0.075-0.021l-0.05,0.005l-0.047,0.033l-0.201-0.003l-0.056,0.047l-0.046-0.014l-0.003-0.098l-0.032-0.043l-0.034,0.002l-0.038,0.033l-0.115,0.014l-0.077,0.057l0.003,0.059l0.037,0.024l-0.001,0.037l-0.095,0.04l-0.022,0.055l0.013,0.077l0.031,0.01v0.028l-0.047,0.031v0.025l-0.014,0.027l-0.027,0.011l-0.014,0.019l0.004,0.028l-0.025,0.003l-0.049-0.034l-0.109-0.025l-0.088,0.009l-0.141,0.139l-0.039,0.009l-0.058-0.021l-0.091,0.017l-0.044,0.069l-0.016,0.121l-0.05,0.058l-0.062,0.027l-0.04-0.027l-0.027-0.086v-0.067l-0.03-0.07l0.002-0.025l0.039-0.026l0.001-0.056l0.04-0.029l-0.035,0.004l-0.028,0.025l-0.009,0.038l-0.042,0.019l-0.049,0.039l-0.031-0.007l-0.038-0.038l-0.025,0.005l0.015,0.022l0.038,0.026l0.024,0.028l0.017,0.05l0.032,0.027l-0.007,0.032l-0.042,0.019l-0.039-0.004l-0.044-0.018h-0.025l0.011,0.013l0.026,0.007l0.035,0.019l0.061,0.003l0.007,0.026l-0.025,0.032l-0.076,0.036l-0.044,0.061l-0.005,0.032l0.021,0.036l-0.016,0.034l-0.03,0.014l-0.062-0.007l-0.11,0.007l-0.092,0.024l-0.025,0.023l0.041-0.012l0.083-0.011l0.116,0.004l0.109,0.047l0.03-0.01l0.013,0.014l-0.016,0.057l0.011,0.022l0.031,0.012l0.016,0.066l-0.02,0.034l0.001,0.038l-0.022,0.016l-0.067,0.006l-0.023,0.029l0.01,0.047l-0.027,0.05l-0.06,0.001l-0.041-0.021l-0.116,0.002l-0.049,0.03l-0.052,0.096l-0.016,0.077l-0.049,0.009l-0.06-0.018l-0.098-0.059l-0.045-0.085l-0.037-0.018v-0.035l0.029-0.046l-0.02-0.08l-0.069-0.104l-0.116-0.115l-0.07-0.036l-0.093-0.004l-0.046-0.012l-0.045-0.038l-0.098-0.014l-0.055,0.014l-0.024-0.005l-0.029-0.035l-0.094-0.058l-0.114-0.031l-0.09,0.007l-0.098,0.075l-0.004,0.031l0.04,0.058l-0.007,0.054l-0.124,0.119l-0.162,0.026l-0.213,0.061l-0.041-0.014l-0.033-0.062l-0.033-0.02l-0.047-0.018l-0.014-0.041l0.022-0.046l0.066-0.026l0.011-0.035l-0.063-0.164l0.01-0.035l0.028-0.012l0.018-0.018l0.006-0.041l0.039-0.058l0.03-0.021l0.15-0.011l0.021-0.012l0.021-0.033l0.175-0.112l0.138-0.059l0.157-0.015l0.087,0.022l0.008,0.031l-0.005,0.021l0.018,0.022l0.07,0.005l0.084-0.021l0.083-0.092l0.022-0.082l0.033-0.011l0.07,0.014l0.141-0.028l0.078-0.066l0.115-0.077l0.061-0.024l0.049-0.045l0.041-0.094v-0.041l0.031-0.021l0.071-0.006l0.066-0.029l0.096-0.079l0.045-0.07l0.005-0.061l-0.025-0.031l0.001-0.032l0.034-0.024l0.002-0.035l0.058-0.043l0.114-0.008l0.016-0.032l0.03-0.003l0.037,0.013l0.064-0.042l0.048-0.078l0.039-0.132l-0.001-0.095l-0.024-0.026l0.002-0.033l0.053-0.06l0.003-0.098l-0.03-0.043l0.023-0.016l0.042,0.004l0.066,0.03l0.061-0.01l0.054-0.067l0.071-0.042l0.017,0.011l0.006,0.05l0.039,0.037l0.004,0.035l-0.001,0.041l0.017,0.01l0.043-0.005l0.081,0.009l0.033-0.012l0.08,0.004l0.063,0.025l0.001-0.013l-0.052-0.033l-0.087-0.007l-0.042,0.016l-0.045-0.01l-0.052-0.053l-0.032-0.065l0.002-0.039l0.035-0.033l-0.003-0.019l-0.027-0.035l0.02-0.026h0.031l0.052,0.032l0.036-0.002l0.081-0.044l0.25-0.018l0.07-0.051l0.047-0.075l0.021-0.115l0.001-0.07l0.065-0.049l0.039-0.001l0.109-0.056l0.183-0.153l0.015-0.086l0.076-0.062l0.035-0.009l0.025-0.018l0.023-0.034l0.102-0.038l0.067-0.037l0.02-0.032l0.007-0.406l-0.032-0.12l0.005-0.072l0.059-0.067l0.021-0.115l0.027-0.047l0.018-0.106l-0.011-0.043l0.02-0.118l0.025-0.021l0.214-0.002l0.087,0.034l0.078,0.011l0.091,0.049l0.032,0.043l0.069,0.019l0.171-0.007l0.093-0.036l0.147-0.185l0.064-0.035l0.038-0.091l0.058-0.004l0.024,0.027l0.039,0.003l0.022,0.028l0.002,0.041l-0.017,0.017l0.032-0.01l0.009-0.048l-0.01-0.035l0.021-0.036l0.101-0.051l0.119-0.018l0.017-0.025l0.02-0.001l0.096,0.038l-0.014-0.02l-0.08-0.041h-0.047l-0.024,0.028l-0.082,0.021l-0.057,0.007l-0.066,0.029l-0.01,0.033l-0.022,0.004l-0.082-0.037l-0.035-0.032l-0.015-0.053l0.001-0.105l-0.035-0.046l-0.015-0.047l-0.055-0.034l0.003-0.02l0.035-0.007l0.06,0.006l0.045-0.051l0.017-0.098l-0.014-0.042l0.014-0.036l0.05-0.033l0.083-0.006l0.066-0.025l0.199-0.015l0.052-0.032l0.083-0.001l0.07,0.033h0.048l0.076-0.044l0.216-0.006l0.087-0.039l0.208,0.003l0.1-0.023l0.16-0.001l0.074-0.056l0.051,0.002l0.046,0.031l0.143,0.01l0.084,0.028l0.259,0.035l0.056,0.023l0.094-0.014l0.079-0.059h0.139l0.174,0.057l0.076,0.045l0.099,0.021l0.089,0.09l0.085,0.014l0.41,0.005l0.183-0.043l0.099-0.047l0.188-0.04l0.203,0.011l0.077,0.033l0.076-0.009l0.097-0.066l0.026,0.002l0.002,0.048l-0.037,0.063l-0.062,0.022l-0.021,0.044l0.035-0.025l0.072-0.027l0.085-0.139l0.009-0.066l-0.013-0.072l-0.044-0.056l-0.005-0.107l0.029-0.125l-0.013-0.05l-0.069-0.02l-0.002-0.024l0.081,0.008l0.048,0.021l0.04-0.011l0.015-0.083l-0.034-0.042l0.019-0.044l0.063-0.021l0.021-0.073l-0.018-0.042l0.089-0.046l0.098,0.005l0.114-0.081l0.179-0.208l0.174-0.126l0.243-0.054l0.114-0.102l0.108-0.162l0.029-0.106l0.146-0.17l0.105-0.057l0.053-0.05l0.048-0.135l0.079-0.071l0.156-0.067l0.063-0.06l0.032-0.099l0.1-0.081l0.079-0.01l0.174-0.092l0.006-0.054l-0.095-0.073l-0.095-0.011l-0.037-0.034l0.037-0.07h0.042l0.111,0.057l0.079,0.016l-0.074-0.034l-0.106-0.076h-0.06l-0.063,0.089l0.003,0.04l0.041,0.036l0.118,0.017l0.014,0.015l-0.024,0.033l-0.101,0.044l-0.08,0.063l-0.118,0.08l-0.049,0.091l-0.192,0.079l-0.233,0.146l-0.037,0.088l-0.046,0.051l-0.018,0.104l-0.029,0.012l-0.076,0.034l-0.093,0.089l-0.071,0.031l-0.114,0.008l-0.314,0.161l-0.327,0.097l-0.09-0.005l-0.082-0.063v-0.042l0.023-0.032l-0.012-0.007l-0.061,0.037l-0.024,0.08l-0.05,0.045l-0.277,0.091l-0.169,0.102l-0.032,0.091l-0.063,0.073l-0.035-0.011l0.003-0.031l-0.05-0.005l-0.029,0.016l0.008,0.041l0.042,0.003l0.032,0.026l-0.031,0.167l-0.067,0.041l-0.116-0.024l-0.097,0.016l-0.051,0.05l-0.095,0.017l-0.079-0.026l-0.048,0.006l-0.046,0.031l-0.227,0.007l-0.095-0.024l-0.153-0.009l-0.188-0.044l-0.101,0.004l-0.088-0.03l-0.116-0.163l-0.13-0.085l-0.044-0.061l-0.062-0.036l-0.146,0.005l-0.09-0.026l-0.045-0.085l-0.057-0.039l-0.125-0.29l-0.195-0.196l-0.099-0.063l-0.098-0.003l-0.062,0.019h-0.172l-0.113,0.03l-0.042,0.057l-0.011,0.09l0.063,0.042l-0.007,0.016l-0.047,0.013l-0.129-0.029l-0.044,0.002l-0.063,0.041l-0.039,0.007l-0.116-0.033l-0.028-0.022l-0.048-0.009l-0.126,0.04l-0.011,0.038l0.039,0.035l-0.004,0.029l-0.026,0.014l-0.057-0.024l-0.075-0.016l-0.046,0.016l-0.007,0.031l-0.019,0.009l-0.111-0.028l-0.099-0.064l-0.081-0.033h-0.06l-0.007-0.014l0.039-0.042l0.011-0.062l-0.05-0.089l0.011-0.038l0.067-0.024l0.058-0.077l0.039-0.012l0.042-0.057l0.088-0.002l0.181,0.059l0.076-0.002l0.123-0.041l0.053-0.046l0.086-0.027l0.037-0.032l0.007-0.036l-0.019-0.045l0.009-0.016h0.021l0.019-0.028l0.002-0.031l-0.023,0.031l-0.03,0.002l-0.023,0.021v0.083l-0.026,0.033l-0.197,0.042l-0.06-0.014l-0.05-0.083l-0.056-0.039l-0.109-0.012l-0.106,0.019l-0.114,0.053l-0.09-0.002l-0.137-0.087l-0.116-0.12l-0.032-0.076l0.023-0.014l0.053,0.014l0.042-0.025l-0.002-0.017l-0.081-0.024l-0.026-0.084l0.037-0.068l0.001-0.06l0.027-0.032l0.046-0.019l0.026-0.028l-0.084,0.023l-0.043,0.036l-0.005,0.053l-0.083,0.08l-0.065,0.013l-0.095-0.038l-0.011-0.033l0.013-0.022l-0.021-0.04l-0.025-0.006l0.016,0.037l-0.018,0.026l-0.003,0.038l0.112,0.08l-0.01,0.026l-0.122,0.045l-0.359-0.024l-0.084,0.03l-0.087-0.013l-0.217,0.031l-0.09,0.036l-0.026,0.063l0.026,0.055l-0.039,0.132l-0.082,0.081l-0.127,0.024l-0.098,0.062h-0.06l-0.098-0.036l-0.156,0.005l-0.121,0.089l-0.021,0.054l-0.082,0.086l-0.058,0.006l-0.114-0.05l-0.185-0.026l-0.156-0.055l-0.005-0.041l0.026-0.021l0.006-0.032l-0.024-0.08l-0.055-0.029l-0.096-0.003l-0.068-0.039l-0.013-0.041l0.074-0.045l0.074,0.011l0.044,0.054h0.064l0.024-0.023l-0.024-0.037l0.021-0.033l0.071-0.008l0.114,0.036l0.074,0.005l0.074-0.041l0.076-0.029l0.05,0.005l0.037-0.01l-0.079-0.016l-0.098,0.016l-0.066,0.026l-0.058-0.003l-0.084-0.036h-0.248l-0.156-0.044h-0.135l-0.005,0.023l0.053,0.063l-0.029,0.062l-0.069,0.011l-0.034-0.024l-0.008-0.091l-0.08-0.063l-0.076-0.013l-0.066-0.049l-0.003-0.026l0.122,0.005l0.047-0.018l0.006-0.052l0.082-0.081l0.106-0.028l0.123,0.01l0.049-0.034l0.011-0.108l-0.07-0.247l-0.088-0.059l-0.191-0.028l-0.271-0.003l-0.148,0.035l-0.024-0.028l0.042-0.091l0.014-0.097l0.042-0.045l0.261-0.094l0.095-0.062l0.306-0.087l0.067-0.087l0.039-0.212l0.077-0.038l0.064,0.031l0.211,0.021l0.021,0.042l-0.028,0.048l0.042,0.028l0.204-0.073l0.053-0.108l0.043-0.003l0.049,0.062l0.148,0.014l0.028-0.021l-0.028-0.086l0.042-0.063l0.109-0.017l0.085-0.042l0.13-0.15l0.028-0.09l0.056-0.01l0.127,0.087l0.039,0.055v-0.073l-0.039-0.076l0.018-0.066l0.183-0.049l0.25-0.01l0.112,0.036l0.128-0.026l0.094-0.115l0.131-0.041l0.218-0.209l0.074-0.017l0.091,0.024l0.5-0.274l0.247-0.313l0.06-0.181l0.102-0.173l0.028-0.226l0.043-0.102l0.055-0.055l-0.005-0.174l0.005-0.071l0.029-0.002l0.072,0.023l0.1-0.023l0.129-0.058l0.043-0.057l-0.04-0.01l-0.113,0.036l-0.206,0.039l-0.08-0.036l-0.071-0.153l-0.12-0.136l-0.014-0.08l0.095-0.215l0.161-0.112l0.023-0.071l0.08-0.065l0.113-0.047l0.037-0.044l0.087-0.036l0.024-0.06l-0.048,0.039l-0.14,0.039l-0.036,0.039l-0.059,0.023l-0.104-0.028l-0.293-0.358l-0.003-0.08l0.081-0.104l0.003-0.101l-0.074-0.155l0.026-0.039l0.066-0.005l0.103-0.029l0.058-0.049l0.016-0.047l-0.034,0.002l-0.056,0.042h-0.042l-0.016-0.031l-0.045-0.005l-0.095,0.06l-0.066,0.005l-0.082-0.039l-0.142-0.023l-0.31,0.045l-0.046,0.063l-0.042,0.014l-0.19-0.004l-0.264,0.118l-0.138,0.16l-0.01,0.105l0.049,0.062l-0.018,0.045l-0.081,0.025l-0.038,0.048l-0.057-0.003l-0.035-0.115l-0.113-0.08l-0.126,0.007l-0.095,0.073l-0.275,0.024l-0.106,0.08l-0.088-0.031l-0.003-0.028l0.13-0.191l0.039-0.097l0.246-0.25l0.293-0.167l0.133-0.011l0.106-0.045l0.246-0.229l0.117-0.038l0.186-0.146l0.071-0.098l0.017-0.132l-0.031-0.128l0.024-0.056l0.039-0.003l0.028,0.066l0.042-0.007l0.025-0.125l0.085-0.052l0.123-0.129l0.095-0.049l0.063-0.066l0.004-0.066l0.088-0.062l0.207-0.097l0.233,0.006l0.186-0.072l0.032-0.053l0.155-0.069h0.074l0.201-0.097l0.102-0.014l0.063-0.045l-0.005-0.07l-0.029-0.039l-0.066-0.016l-0.032-0.049l0.019-0.031l0.095-0.003l0.066,0.031l0.01,0.037l0.035,0.018l0.058-0.018h0.074l0.15,0.073l0.029,0.054l0.066,0.029l0.367,0.026l0.127-0.018l0.203-0.078l0.117-0.076l0.066-0.021l0.108-0.01l0.29-0.097l0.164-0.023l0.061,0.023l0.01,0.058l0.043,0.049l0.367,0.204l0.25,0.198l0.132,0.062l0.008-0.023l-0.039-0.039l-0.005-0.079l0.049-0.057l-0.015-0.019l-0.042-0.012l-0.066-0.071l-0.053-0.177l-0.119-0.086l-0.106-0.169l0.003-0.037l0.143-0.096l0.171-0.052l0.09-0.042l0.095-0.075l0.074,0.002l0.034,0.026l0.014,0.065l0.079,0.149l0.034,0.12l0.077,0.07l0.079,0.151l0.1,0.099l0.193,0.076h0.119l0.068-0.031l0.095-0.019l0.082,0.003l0.048-0.018l0.032-0.055l0.002-0.086l0.053-0.05l0.09-0.007l0.042-0.039l0.048-0.013l0.06,0.01l0.048-0.021l-0.005-0.052l-0.019,0.036l-0.034,0.011l-0.045-0.013l-0.048,0.005l-0.103,0.047l-0.092,0.01l-0.058,0.047l-0.024,0.065l-0.042,0.019l-0.101-0.037l-0.071,0.016l-0.079-0.003l-0.225-0.133l-0.139-0.075l-0.103-0.102l-0.069-0.148l-0.003-0.099l-0.124-0.136l-0.087-0.19l-0.005-0.081l-0.024-0.042l-0.129-0.112v-0.094l0.113-0.203l0.058-0.044l0.093-0.13l0.021-0.076l-0.013-0.086l0.05-0.07l0.068-0.024l0.135-0.141l0.093-0.046l0.126-0.008l0.143-0.026l0.039-0.029l-0.084,0.016l-0.362,0.007l-0.214-0.065l-0.108-0.174l0.013-0.339l0.035-0.154l-0.011-0.222l0.037-0.033l0.214-0.029l0.092-0.057l0.119-0.026l0.098,0.01l0.066-0.016l0.045-0.088l-0.008-0.097l-0.119-0.192l-0.044-0.023l-0.011-0.042l0.067-0.073l0.021-0.073l0.067-0.055l0.201-0.094l0.084-0.111v-0.07l-0.137-0.247l-0.07-0.055l-0.014-0.042l0.148-0.073l0.091-0.094l-0.003-0.08l-0.025-0.027l-0.007,0.076l-0.127,0.097l-0.116,0.028l-0.116,0.052l-0.116,0.164l-0.113,0.062l-0.095,0.004l-0.039-0.039l0.011-0.045l-0.011-0.062l-0.098-0.066l-0.004-0.028l0.035-0.021v-0.056l-0.049-0.066l-0.042-0.02l0.007-0.042l0.028-0.045l-0.06,0.031l-0.014,0.069l0.042,0.053l-0.007,0.097l-0.053,0.062l-0.021,0.126l-0.144,0.208l-0.18,0.143l-0.038,0.072l0.028,0.06l-0.018,0.007l-0.07-0.056l-0.141-0.049l-0.028-0.052l-0.043-0.035l-0.024-0.066l-0.004-0.076l0.014-0.115l-0.052-0.052l0.017-0.035l0.088-0.017l0.046-0.076l0.049-0.181v-0.094l-0.067-0.087l-0.052-0.014l0.035,0.042l-0.007,0.08l-0.064,0.052l-0.028,0.063l0.025,0.069l-0.06,0.045l-0.063-0.021l-0.113,0.046l-0.07-0.025l-0.25-0.292l-0.099-0.166l-0.025-0.261l-0.024-0.07l-0.127-0.125l-0.215-0.305l-0.155-0.136l-0.127-0.174l-0.073-0.027l-0.067-0.094l0.003-0.056l0.092-0.062l0.077-0.122l0.06-0.288l-0.025-0.129l0.018-0.087l0.046-0.024l0.158-0.198l0.025-0.091l0.074-0.069l0.102-0.063l0.106-0.094l0.028-0.093l-0.025-0.084l0.007-0.09l0.12-0.275l0.102-0.135l0.137-0.049l0.123,0.063l0.131-0.021l0.045-0.045l-0.021-0.028l-0.098,0.014l-0.05-0.045l0.05-0.101l0.218-0.115l0.158,0.007l0.173,0.111l0.165,0.014l0.127-0.08l0.074-0.017l-0.081-0.021l-0.137,0.07l-0.092-0.021v-0.056l0.085-0.083l0.109-0.025l0.007-0.045L629.962,223.118z"/>
</svg>
