<svg xmlns="http://www.w3.org/2000/svg" viewBox="620.229 218.854 27.742 29.311">
  <path d="M624.148,242.223l0.045,0.089l-0.003,0.083l-0.036,0.026l-0.047,-0.031l0.005,-0.141l0.036,-0.026Z M634.626,219.552l0.032,-0.019l0.064,0.005l0.025,0.038l0.042,0.024l0.072,0.005l0.021,-0.021l-0.011,-0.059l-0.058,-0.035l-0.104,0.017l-0.069,-0.014l-0.048,0.012l0.002,0.031l0.032,0.014Z M638.948,229.67l0.034,-0.037l0.035,-0.012l0.009,0.014l-0.025,0.023l-0.041,0.021l-0.012,-0.009Z M629.537,226.969l0.003,-0.029l0.013,-0.015l0.016,0.003l0.002,0.019l-0.014,0.023h-0.019Z M629.37,227.384l0.03,0.077l-0.002,0.06l0.03,0.076l0.046,0.039l0.044,0.067l0.064,0.019l0.062,0.035l0.019,0.051l0.039,0.033l0.007,0.026l-0.048,0.035l-0.079,0.004l-0.053,-0.023l-0.155,-0.206l-0.083,-0.174l-0.009,-0.092l0.03,-0.056l0.064,-0.023l0.014,0.007l-0.018,0.021l-0.002,0.023Z M629.687,227.8l-0.01,-0.009l0.006,-0.011h0.011l0.004,0.013 l-0.011,0.007Z M644.274,239.578l0.071,0.003l0.024,0.022l-0.024,0.013h-0.045l-0.04,-0.019l0.013,-0.019Z M643.589,241.199l0.024,-0.01l-0.006,-0.013l-0.056,0.003l-0.004,0.01l0.042,0.01Z M643.669,241.209l0.028,-0.011l0.018,0.004l-0.004,0.017l-0.034,0.014l-0.015,-0.009l0.007,-0.016Z M643.936,241.138l-0.021,-0.026l0.013,-0.02l0.059,-0.006l0.013,0.01l-0.007,0.024l-0.056,0.017Z M643.932,241.255l0.004,-0.013l0.022,-0.01l0.014,0.004l-0.01,0.017l-0.014,0.007l-0.017,-0.006Z M643.98,241.222l-0.039,-0.031l-0.003,-0.021l0.042,-0.01l0.031,0.004l0.017,0.021v0.029l-0.02,0.01 h-0.028Z M635.624,244.758l0.012,-0.029l0.063,-0.042l0.066,-0.097l0.069,-0.039l0.148,-0.017l0.167,-0.083h0.095l0.193,-0.072l0.151,-0.124l0.153,0.006l0.13,0.113l0.148,0.05l0.151,-0.006l0.188,0.085l0.045,0.094l0.071,0.041l0.008,0.041l-0.119,0.091l-0.148,0.036l-0.069,0.066l-0.056,0.215l-0.058,0.047h-0.079l-0.122,0.058l-0.212,0.03l-0.042,-0.017l-0.056,-0.088l-0.299,-0.19l-0.149,-0.05l-0.127,-0.107l-0.159,-0.017l-0.195,0.043l-0.006,-0.021l0.037,-0.02Z M634.056,244.646l0.004,-0.024l0.048,-0.018l0.056,0.007l0.011,0.031l-0.025,0.017l-0.067,0.002l-0.026,-0.015Z M632.316,245.232l0.018,-0.011l0.026,0.026l0.079,0.002l0.051,0.077l-0.011,0.057l-0.037,0.026l-0.092,0.11l-0.028,-0.015l0.007,-0.131l0.026,-0.055l-0.005,-0.033l-0.035,-0.053Z M625.743,242.835l-0.004,-0.017l0.013,-0.004l0.032,0.014v0.011l-0.022,0.007l-0.018,-0.011Z M629.911,241.458l0.023,-0.002l0.005,0.02l-0.025,0.007l-0.018,-0.009l0.014,-0.016Z M644.303,241.308l-0.055,-0.075l-0.094,-0.052l0.004,-0.022l0.03,0.002l0.014,-0.038l-0.011,-0.038l0.012,-0.063l0.039,-0.036l0.138,0.018l0.104,0.07l0.208,0.032l0.095,0.025l0.116,0.09l0.069,0.097v0.032l-0.127,0.066l-0.094,0.005l-0.118,-0.032l-0.083,-0.004l-0.173,-0.038l-0.049,0.014l-0.028,-0.016l0.002,-0.039Z  M629.957,231.897l0.094,0.067l0.123,0.001l0.085,0.036l0.263,0.178l0.104,0.129l-0.009,0.06l-0.079,0.055l-0.175,0.041l-0.004,0.021l0.055,0.026l0.125,0.108l0.099,0.037l0.058,0.007l0.062-0.037l0.018,0.013l-0.03,0.074l-0.044,0.042l0.001,0.028l0.085,0.046l0.053,0.112l0.007,0.185l0.027,0.02h0.037l0.026,0.031l-0.01,0.061l0.052,0.033l0.108,0.011l0.039-0.025l0.085,0.009l0.024,0.032l0.115,0.012l0.003,0.025l-0.019,0.033l0.019,0.092l-0.012,0.034l0.007,0.116l-0.021,0.025l-0.09,0.002l-0.095,0.027l-0.055,0.039l-0.023-0.002l-0.032-0.084l-0.098-0.112l-0.015-0.039l-0.044-0.026h-0.106l-0.024-0.022l-0.037,0.004l-0.032,0.028l-0.06-0.003l-0.032,0.016l-0.09-0.048l-0.047-0.048v-0.045l-0.02-0.002l-0.035,0.041l-0.072,0.004l-0.073,0.067l-0.023,0.052l-0.12,0.041l-0.056,0.012l-0.055-0.016l-0.04,0.009l-0.039,0.068l-0.006,0.094l-0.111,0.011l-0.01,0.025l0.033,0.016l-0.046,0.028v0.021l0.076,0.04l-0.002,0.024l-0.1,0.068l-0.004,0.02l0.022,0.026l-0.011,0.054l-0.035,0.03l-0.013,0.09l0.014,0.015l0.029-0.007l0.009,0.012l-0.016,0.027l0.007,0.028l0.049,0.023l0.099,0.011l0.095-0.046l0.025,0.017l-0.018,0.056l0.051,0.056l0.21,0.034l0.03,0.029l-0.037,0.046l0.02,0.018l0.03-0.007l0.06,0.03l-0.011,0.041l0.028,0.012l0.055-0.009l0.028,0.023l0.014,0.059l-0.01,0.023l-0.039-0.002l-0.016-0.016l0.011-0.024l-0.021-0.018l-0.068,0.026l-0.067-0.01l-0.026,0.009l-0.007,0.035l0.014,0.039l-0.042,0.071l-0.039,0.004l-0.007,0.027l0.016,0.065l-0.039,0.134l-0.11,0.021l0.002,0.018l0.043,0.005l0.038,0.027l-0.012,0.027l-0.042,0.007l-0.055,0.074l-0.005,0.045l-0.02,0.034l-0.072,0.044l-0.074,0.011l-0.011,0.071l0.066,0.075l0.026,0.088l-0.078,0.031l0.006,0.023l0.076-0.002l0.098-0.028l0.013-0.02l-0.03-0.034l0.024-0.037l0.094-0.025l0.074-0.064l0.065-0.023l0.06,0.009l0.03,0.094l-0.028,0.151l-0.023,0.016l-0.065-0.005l-0.028,0.048l0.021,0.053l-0.028,0.02l-0.265-0.004l-0.118,0.045l-0.156,0.085l-0.067,0.004l-0.118,0.106l-0.007,0.057l0.018,0.016v0.037l0.046,0.052l0.132,0.053l0.076,0.056v0.039l0.042,0.028l0.071,0.013l0.083,0.039l0.053,0.064l0.098,0.046l0.048,0.046l0.081,0.013l0.117-0.043l0.105-0.009l0.062,0.02l0.004,0.026l-0.03,0.066l-0.134,0.06l-0.014,0.056l0.012,0.04l-0.012,0.049l-0.029,0.028l0.004,0.043l0.065,0.028l0.09,0.005l0.007,0.032l-0.04,0.025l-0.108-0.016l-0.132,0.054l-0.009,0.053l-0.027,0.023l-0.049,0.002l-0.026,0.021l-0.025,0.098l-0.076,0.059l-0.007,0.026l0.018,0.029l-0.006,0.062l-0.086,0.064l-0.004,0.029l0.083,0.032l0.058-0.031l0.045,0.011l-0.004,0.025l-0.053,0.044l-0.106,0.034l-0.065,0.011l-0.027,0.039l0.018,0.03l0.034-0.003l0.074,0.026l-0.002,0.046l-0.042,0.022l-0.011,0.03l-0.012,0.108l0.035,0.064l0.086,0.063l0.016,0.064l-0.042,0.083l0.007,0.025l0.046,0.039l0.062,0.089l0.007,0.038l0.109,0.042l0.042,0.021l0.064,0.088l-0.009,0.046l0.039,0.035l0.074-0.015l0.026,0.023l0.002,0.081l0.058,0.009l0.152-0.084l0.062-0.004l0.039-0.034l0.009-0.023l0.045,0.005l0.103,0.05l-0.002,0.017l-0.049,0.01l-0.006,0.025l0.039,0.004l0.027-0.018l0.104,0.088l0.166,0.08l0.005,0.026l-0.028,0.028l0.003,0.036l0.133,0.062l0.051-0.002l0.014-0.032l0.023-0.002l0.019,0.032l0.02,0.002l0.019-0.025l0.025,0.004l0.005,0.047l0.03,0.003l0.03-0.018l0.069,0.024l0.009,0.041l-0.018,0.091l-0.058,0.012l-0.004,0.031l0.018,0.047l-0.03,0.092l0.005,0.038l0.06,0.038l-0.005,0.063l-0.071,0.069l0.007,0.067l0.059,0.061v0.065l-0.013,0.06l0.046,0.036l-0.005,0.035l-0.032,0.023v0.045l-0.034,0.036l0.009,0.056l0.066,0.069l-0.009,0.069l0.028-0.013l0.019-0.108l0.046-0.053l0.037-0.092l0.233-0.151l0.193-0.082l0.049-0.096l0.118-0.083l0.08-0.065l0.101-0.046l0.024-0.035l-0.014-0.015l-0.118-0.018l-0.041-0.037l-0.003-0.042l0.063-0.092h0.061l0.106,0.079l0.074,0.035l-0.08-0.016l-0.111-0.06h-0.042l-0.037,0.073l0.037,0.036l0.095,0.01l0.095,0.076l-0.005,0.057l-0.175,0.095l-0.079,0.011l-0.101,0.084l-0.031,0.103l-0.064,0.062l-0.156,0.071l-0.079,0.073l-0.048,0.141l-0.053,0.052l-0.106,0.059l-0.145,0.177l-0.029,0.111l-0.109,0.168l-0.114,0.106l-0.243,0.057l-0.175,0.13l-0.18,0.217l-0.114,0.084l-0.098-0.006l-0.09,0.049l0.019,0.043l-0.021,0.076l-0.064,0.022l-0.018,0.046l0.034,0.044l-0.016,0.086l-0.039,0.011l-0.048-0.022l-0.082-0.008l0.002,0.025l0.069,0.021l0.014,0.052l-0.03,0.13l0.006,0.111l0.044,0.059l0.012,0.074l-0.009,0.069l-0.084,0.144l-0.073,0.029l-0.035,0.026l0.021-0.046l0.062-0.023l0.037-0.065l-0.002-0.051l-0.026-0.002l-0.097,0.069l-0.076,0.009l-0.078-0.034l-0.203-0.011l-0.188,0.042l-0.099,0.048l-0.184,0.046l-0.411-0.006l-0.085-0.014l-0.09-0.094l-0.098-0.022l-0.076-0.047l-0.175-0.06h-0.139l-0.08,0.062l-0.093,0.014l-0.057-0.023l-0.259-0.036l-0.085-0.029l-0.143-0.011l-0.045-0.033l-0.052-0.002l-0.074,0.058l-0.16,0.002l-0.101,0.024l-0.209-0.003l-0.087,0.04l-0.216,0.006l-0.076,0.046h-0.048l-0.07-0.034l-0.083,0.001l-0.052,0.033l-0.2,0.016l-0.066,0.026l-0.083,0.006l-0.051,0.034l-0.014,0.038l0.014,0.043l-0.016,0.102l-0.045,0.054l-0.061-0.006l-0.035,0.007l-0.003,0.02l0.055,0.036l0.015,0.049l0.036,0.048l-0.002,0.109l0.016,0.055l0.035,0.033l0.081,0.039l0.023-0.004l0.01-0.035l0.066-0.03l0.057-0.007l0.082-0.022l0.024-0.029h0.048l0.08,0.042l0.014,0.022l-0.097-0.041l-0.02,0.002l-0.017,0.026l-0.119,0.018l-0.101,0.054l-0.022,0.037l0.01,0.036l-0.008,0.051l-0.032,0.01l0.016-0.018l-0.001-0.043l-0.023-0.029l-0.039-0.003l-0.024-0.028l-0.057,0.004l-0.038,0.095l-0.065,0.036l-0.148,0.193l-0.092,0.037l-0.172,0.008l-0.069-0.02l-0.032-0.045l-0.092-0.051l-0.077-0.011l-0.087-0.036l-0.215,0.003l-0.026,0.021l-0.019,0.123l0.011,0.045l-0.018,0.11l-0.027,0.049l-0.021,0.12l-0.059,0.069l-0.006,0.075l0.033,0.125l-0.007,0.445l-0.02,0.033l-0.068,0.039l-0.102,0.039l-0.023,0.036l-0.025,0.019l-0.035,0.009l-0.076,0.064l-0.016,0.09l-0.182,0.16l-0.11,0.057l-0.039,0.002l-0.065,0.05l-0.001,0.074l-0.022,0.119l-0.046,0.078l-0.07,0.053l-0.251,0.019l-0.081,0.046l-0.037,0.001l-0.052-0.033h-0.031l-0.019,0.028l0.026,0.036l0.003,0.02l-0.035,0.034l-0.001,0.041l0.032,0.067l0.052,0.055l0.045,0.01l0.042-0.016l0.087,0.008l0.052,0.034l-0.001,0.013l-0.063-0.026l-0.08-0.004l-0.033,0.013l-0.081-0.01l-0.044,0.006l-0.017-0.011l0.002-0.043l-0.005-0.036l-0.039-0.039l-0.006-0.052l-0.016-0.011l-0.072,0.043l-0.054,0.071l-0.061,0.01l-0.066-0.032l-0.043-0.004l-0.022,0.017l0.029,0.045l-0.002,0.102l-0.054,0.062l-0.001,0.035l0.024,0.027l0.001,0.098l-0.039,0.133l-0.048,0.078l-0.065,0.042l-0.036-0.013l-0.031,0.003l-0.016,0.032l-0.114,0.008l-0.059,0.044l-0.001,0.034l-0.034,0.025l-0.001,0.032l0.025,0.031l-0.006,0.061l-0.045,0.071l-0.095,0.079l-0.066,0.029l-0.072,0.006l-0.031,0.021v0.041l-0.041,0.095l-0.049,0.044l-0.062,0.026l-0.115,0.076l-0.077,0.067l-0.142,0.028l-0.071-0.014l-0.032,0.011l-0.023,0.082l-0.082,0.093l-0.085,0.021l-0.07-0.006l-0.018-0.022l0.005-0.021l-0.008-0.031l-0.087-0.022l-0.158,0.016l-0.138,0.058l-0.175,0.113l-0.021,0.033l-0.022,0.012l-0.15,0.012l-0.03,0.02l-0.039,0.059l-0.006,0.04l-0.018,0.018l-0.028,0.013l-0.01,0.034l0.064,0.166l-0.012,0.035l-0.066,0.026l-0.022,0.046l0.014,0.042l0.048,0.018l0.032,0.019l0.034,0.063l0.04,0.014l0.214-0.062l0.162-0.026l0.125-0.12l0.007-0.054l-0.041-0.058l0.004-0.031l0.099-0.075l0.09-0.007l0.114,0.031l0.094,0.058l0.029,0.035l0.024,0.006l0.055-0.014l0.099,0.014l0.045,0.037l0.046,0.013l0.093,0.004l0.07,0.036l0.117,0.115l0.069,0.105l0.019,0.08l-0.028,0.046v0.035l0.037,0.018l0.045,0.086l0.098,0.058l0.061,0.018l0.049-0.008l0.015-0.078l0.052-0.096l0.05-0.03l0.116-0.002l0.041,0.021l0.06-0.001l0.027-0.05l-0.01-0.047l0.023-0.03l0.067-0.005l0.023-0.017l-0.002-0.037l0.02-0.035l-0.015-0.066l-0.031-0.012l-0.012-0.022l0.016-0.057l-0.013-0.014l-0.029,0.01l-0.11-0.048l-0.117-0.004l-0.083,0.011l-0.04,0.013l0.025-0.024l0.091-0.023l0.111-0.007l0.062,0.007l0.03-0.014l0.017-0.035l-0.021-0.036l0.004-0.032l0.045-0.061l0.076-0.037l0.025-0.032l-0.007-0.026l-0.062-0.003l-0.035-0.019l-0.025-0.007l-0.012-0.013h0.026l0.043,0.018l0.04,0.005l0.042-0.02l0.007-0.032l-0.032-0.028l-0.017-0.05l-0.024-0.027l-0.038-0.027l-0.016-0.022l0.026-0.004l0.038,0.037l0.031,0.007l0.049-0.039l0.042-0.019l0.008-0.038l0.029-0.025l0.035-0.004l-0.04,0.029l-0.001,0.056l-0.039,0.026l-0.002,0.025l0.03,0.071v0.067l0.026,0.086l0.041,0.028l0.062-0.028l0.051-0.058l0.015-0.121l0.044-0.069l0.092-0.018l0.058,0.021l0.039-0.009l0.141-0.139l0.088-0.009l0.109,0.024l0.05,0.035l0.024-0.003l-0.003-0.028l0.014-0.019l0.027-0.011l0.014-0.028v-0.024l0.047-0.031v-0.028l-0.031-0.011l-0.013-0.077l0.021-0.055l0.096-0.041l0.001-0.036l-0.037-0.025l-0.003-0.059l0.077-0.057l0.115-0.014l0.039-0.034l0.033-0.001l0.032,0.043l0.004,0.098l0.046,0.014l0.056-0.047l0.201,0.003l0.048-0.033l0.049-0.005l0.076,0.021h0.065l0.124-0.032h0.081l0.037-0.01l0.069-0.087l0.06-0.037l0.176-0.016l0.09,0.023l0.224-0.003l0.117,0.036l0.146,0.079l0.034,0.042l-0.002,0.05l0.016,0.012l0.093-0.031l0.002-0.026l-0.017-0.026l0.01-0.026l0.094-0.053l-0.006-0.04l-0.076-0.009l-0.07,0.009l-0.041-0.014l-0.001-0.031l0.067-0.026l0.021-0.028l-0.018-0.037l-0.069-0.033l-0.038,0.012l-0.013,0.026l-0.049,0.033l-0.106,0.011l-0.025-0.032l0.034,0.016l0.04-0.023l0.044-0.007l0.075-0.052l0.079-0.023l0.009-0.038l-0.016-0.019l0.003-0.07l0.036-0.017l0.01-0.028l-0.028-0.026l-0.03-0.088l-0.025-0.003l-0.03,0.005l0.023-0.026l0.037-0.002l0.025,0.025l0.071,0.113l0.026,0.004l0.071-0.096l0.024-0.007l-0.038,0.076l-0.055,0.063l-0.062,0.059l-0.018,0.074l0.037,0.047l0.022,0.073l0.088,0.058l0.07,0.005l0.055,0.026l0.013,0.155l0.042,0.037l0.1-0.002l0.045,0.025l0.003,0.029l0.078,0.046l0.102,0.001l0.129-0.055l0.136,0.008l0.134,0.056l0.194,0.124l0.03,0.052l-0.018,0.058l0.004,0.035l0.104,0.043l0.056,0.04l0.103,0.028l0.03-0.007l-0.004-0.038l0.025-0.058l0.047-0.033l0.009,0.009l-0.03,0.047l0.009,0.035l0.065,0.012l0.087,0.065l0.07,0.002l0.029-0.037l0.077-0.031l0.071,0.003l0.032-0.007l0.015-0.019l-0.033-0.033l0.013-0.158l0.082-0.193l0.126-0.08l0.083-0.018l0.034-0.029l-0.002-0.037l-0.024-0.031l-0.042-0.098l-0.025-0.089l-0.048-0.026l-0.058-0.014l-0.067-0.042l-0.044-0.05l-0.032-0.02l0.056,0.005l0.035,0.047l0.073,0.035l0.078,0.006l0.045,0.035l0.01,0.107l0.039,0.094l0.076,0.049l0.056-0.005l0.045-0.06l0.016-0.095l0.052-0.079l0.054-0.053v-0.025l-0.035-0.007l-0.047,0.014l-0.047-0.004l-0.097-0.029l-0.031-0.047l0.009-0.14l0.06-0.064l0.083,0.002l0.081-0.026l0.014-0.029l-0.078-0.096l0.007-0.116l0.043-0.13l-0.028-0.021l-0.156-0.007l-0.039,0.007l-0.038-0.005l0.044-0.02l0.18,0.001l0.069-0.009l0.084-0.095l0.013-0.065l0.137-0.147l-0.009-0.02l-0.058-0.029l-0.005-0.081l-0.021-0.085l-0.048-0.039l-0.025-0.042l-0.008-0.075l-0.045-0.046l0.055,0.024l0.028,0.044l0.062,0.015l0.102,0.233l-0.014,0.042l0.002,0.021l0.101,0.042l0.13-0.004l0.037-0.049l0.083-0.037l0.08-0.011l0.065-0.054l0.04-0.11l0.103-0.07l0.171-0.042l0.282-0.017l0.095,0.015l0.034-0.018l0.021-0.05l0.06-0.024l0.129,0.017h0.131l0.165-0.065l0.15-0.099l0.111-0.004l0.219,0.065l0.129,0.013l0.272,0.108l0.407,0.208l0.254,0.154l0.099,0.032l0.05,0.027l0.021,0.077l0.079,0.057l0.03-0.001l0.013-0.043l0.038-0.031l0.022-0.044v-0.052l0.065-0.068l0.166-0.012l0.157,0.022l0.07,0.033l0.321,0.038l0.113-0.022l0.267,0.055l0.049,0.044l0.147,0.028l0.058,0.028l0.028,0.049l0.051,0.009l0.08-0.053l0.211-0.015l0.051-0.018l0.008-0.048l-0.011-0.066l0.021-0.04l0.064-0.03l0.001-0.033l-0.061-0.04l-0.014-0.054l0.022-0.092l-0.031-0.012l-0.043,0.034l-0.063,0.01l-0.074-0.041l-0.073-0.014l-0.035-0.023l0.014-0.046l-0.023-0.049l-0.03-0.008l-0.065,0.063l-0.051,0.015l-0.018-0.024l0.043-0.079l0.074-0.032l0.109,0.032l0.106,0.009l0.092-0.022l0.093,0.081l-0.03,0.055l0.021,0.004l0.078-0.079l0.102-0.061l0.18-0.028l0.193,0.006l0.088,0.027l0.072-0.007l-0.003-0.024l-0.06-0.005l-0.044-0.041l0.005-0.018l0.044,0.02h0.093l0.068-0.037l0.129-0.007l0.219,0.038l0.234,0.077l0.065-0.043l0.005-0.033l0.051-0.042l0.021-0.051l0.046-0.031l0.312-0.05l0.203-0.088l0.076-0.003l0.045-0.017l0.021-0.058l0.046-0.041l0.056-0.023l0.008-0.038l-0.103-0.103l-0.148-0.086l-0.074-0.072l-0.071-0.091l-0.091-0.061l-0.076-0.012l-0.043-0.037l-0.017-0.041l0.069,0.052l0.057,0.005l0.116,0.047l0.182,0.1l0.228,0.212l0.256,0.107l0.195,0.12l0.092,0.065l0.052,0.007l0.049-0.039l-0.003-0.141l-0.086-0.092l0.012-0.031l0.08-0.007l0.032-0.037l0.035-0.003l0.03,0.082l-0.042,0.119l0.018,0.097l0.091,0.036l0.121-0.035l0.035-0.045l-0.009-0.14l0.082-0.095h0.088l0.042,0.056l-0.041,0.143l-0.093,0.056l0.007,0.034l0.09-0.002l0.142,0.028l0.059-0.01l0.006-0.026l-0.068-0.021l-0.021-0.097l0.036-0.095l0.025-0.004l0.149,0.142l0.003,0.044l-0.044,0.036l-0.006,0.043l0.162,0.053l0.129,0.075l0.186,0.149l0.055-0.033l0.059-0.119l0.097-0.085l0.133-0.047l0.558-0.116l0.297,0.003l0.264-0.02l0.397-0.107l0.36,0.005l0.339,0.061l0.336,0.102l0.31,0.074l0.103,0.075l0.082,0.03l0.098,0.008l0.185,0.08l0.14,0.023l0.08-0.014l0.026-0.055l0.106-0.111l0.106-0.06l0.032-0.061l0.108-0.102l0.196-0.077l0.17-0.014l0.312-0.091l0.394-0.077l0.077-0.039l0.172-0.171l0.209-0.116l0.101-0.005l0.312,0.071l0.297,0.038l0.057-0.017l0.012-0.038l-0.058-0.134l-0.011-0.107l0.03-0.147l0.095-0.142l0.21-0.154l0.184-0.059l0.238-0.013l0.097-0.033l0.058-0.077l0.057-0.028l0.148-0.003l0.173-0.07l0.025-0.052l0.187-0.075l0.083-0.074l0.04-0.104l0.011-0.219l-0.013-0.144l-0.134-0.182v-0.08l0.041-0.024l0.037,0.009h0.074l0.049-0.021l0.073-0.081l0.039-0.113l-0.036-0.091l-0.091-0.042l-0.165,0.016l-0.098,0.036l-0.184,0.009l-0.104,0.024l-0.333-0.004l-0.524,0.066l-0.163,0.094l-0.326,0.012l-0.145-0.057l-0.178,0.009l-0.055-0.025l-0.121-0.004l-0.043-0.023v-0.068l-0.039-0.051l-0.093-0.048l-0.021-0.066l0.04-0.029l-0.009-0.024l-0.074,0.009l-0.03,0.02l0.002,0.067l0.049,0.066l-0.008,0.02l-0.032,0.001l-0.023-0.032h-0.018l-0.047,0.052h-0.051l-0.039-0.072h-0.039l-0.016,0.024l-0.067,0.014l-0.03,0.038h-0.03l-0.037-0.029l-0.152-0.054l-0.012-0.03l-0.03-0.009l-0.065,0.037l-0.007-0.017l0.054-0.054l0.268-0.025l0.048-0.027l0.025-0.063l0.12-0.013l0.053,0.018l0.107-0.007l0.051-0.047l0.007-0.053l-0.063-0.076l-0.206-0.037h-0.126l-0.259-0.043l-0.199,0.001l-0.087,0.038l-0.069,0.131l-0.063,0.036l-0.154,0.02l-0.167-0.002l-0.066-0.031l-0.053-0.075l-0.024-0.002l-0.071,0.054l-0.07-0.005l-0.186-0.117l-0.049-0.013l-0.051,0.009l-0.055-0.034l-0.03-0.07l-0.129-0.061l-0.143,0.017l-0.095,0.069h-0.18l-0.063-0.046l-0.043-0.006l0.048-0.017l0.067,0.044l0.16-0.001l0.085-0.072l0.166-0.024l0.159,0.07l0.023,0.076l0.023,0.012l0.039-0.01l0.065,0.009l0.194,0.118l0.055,0.005l0.058-0.041l0.07-0.003l0.052,0.068l0.056,0.032h0.069l0.173-0.023l0.077-0.042l0.029-0.127l0.06-0.054l0.262-0.041l0.207,0.004l0.15-0.027l0.019-0.026l-0.014-0.026l-0.076-0.02l-0.026-0.025l0.079,0.009l0.06-0.034l0.08-0.002l0.342,0.05l0.108,0.041h0.04l0.041-0.043l0.18-0.12l0.169-0.09l0.164-0.131l0.069-0.095l-0.007-0.021l-0.044-0.002l-0.073,0.022l-0.127,0.016l-0.243-0.015l-0.154-0.025l-0.035-0.037l-0.007-0.027l0.053,0.039l0.138,0.02l0.252,0.011l0.12-0.031l0.044-0.047l0.007-0.082l0.034-0.108l-0.002-0.075l-0.025-0.059l0.016-0.081l0.002-0.066l-0.023-0.049l-0.083-0.032l-0.069,0.005l-0.102,0.086l-0.126,0.051l-0.072-0.009l-0.092,0.018l-0.035,0.039l-0.044,0.005l-0.021-0.023l-0.147-0.021l-0.063-0.065l0.01-0.016l0.078,0.021l0.078-0.043l0.118-0.014l0.134,0.014l0.101-0.01l0.098-0.076l0.046-0.057l-0.035-0.043l0.002-0.016l0.04,0.005l0.036,0.025h0.114l0.129-0.03l0.148-0.087l-0.001-0.028l-0.058-0.063l-0.034-0.059l0.006-0.075l-0.012-0.053l0.034,0.053l0.013,0.087l0.131,0.117l0.016,0.081l0.049,0.071l0.302-0.022l0.09-0.059l0.211-0.1l0.13-0.094l0.159-0.178l0.005-0.088l-0.053-0.033l-0.076-0.002l-0.027-0.03l0.045-0.124l0.132-0.145l-0.039-0.027l-0.061,0.016l-0.05-0.019h-0.053l-0.04,0.03l-0.13,0.005l-0.074-0.029l-0.066-0.006l-0.085,0.035l-0.092-0.005l-0.204-0.035l0.003-0.022l0.084-0.024l0.183,0.006l0.095-0.049l0.087,0.003l0.043,0.038l0.114,0.016l0.045-0.027h0.068l0.072,0.019l0.021-0.022l-0.034-0.11l-0.053-0.041l-0.257-0.091l-0.071-0.075l-0.006-0.041l0.032,0.008l0.071,0.065l0.249,0.083l0.082,0.046l0.011,0.073l0.04,0.075l0.068,0.043l0.035,0.084l0.021,0.01l0.066-0.094l0.095-0.054l0.236-0.202l0.116-0.191l0.106-0.096l0.275-0.084l0.075-0.07l0.084-0.363l0.045-0.094l0.019-0.095l-0.006-0.123l0.03-0.256l0.06-0.137l0.069-0.043l0.066-0.086l0.032-0.119l0.101-0.183l0.05-0.161l0.003-0.14l0.042-0.105l0.053-0.067l0.005-0.097l-0.1-0.288l-0.006-0.124l0.04-0.223l-0.003-0.116l-0.179-0.297l-0.329-0.313l-0.436-0.292l-0.262-0.218l-0.344-0.196l-0.239-0.064l-0.455-0.048l-0.272-0.063l-0.254-0.106h-0.056l-0.093,0.037l-0.233,0.01l-0.084-0.04l-0.389,0.003l-0.178-0.05l-0.193,0.005l-0.137,0.058l-0.276,0.003l-0.153,0.058l-0.117,0.173l-0.034,0.194l-0.13,0.217l-0.227,0.189l-0.061,0.013l-0.077-0.037l-0.116-0.003l-0.188,0.027l-0.127-0.061l-0.104-0.207l-0.052-0.067l-0.162-0.061l-0.124-0.016l-0.106-0.055l-0.008-0.077l0.114-0.244l0.278-0.287l0.087-0.013l0.212-0.083l0.092-0.101l0.148-0.045l0.085-0.172l0.037-0.459l-0.053-0.128l-0.058-0.249l-0.138-0.189l-0.137-0.251l-0.019-0.113l-0.174-0.337l-0.154-0.18l-0.286-0.137l-0.103-0.005l-0.151-0.063l-0.246-0.246l-0.048-0.005l-0.029,0.024l-0.042-0.008l-0.161-0.14l-0.212-0.137l-0.17-0.171l-0.113-0.185l-0.061-0.047l-0.119-0.016l-0.318,0.079l-0.188,0.005l-0.092,0.021l-0.109,0.072l-0.145-0.006l-0.233-0.169h-0.098l-0.186,0.087l-0.013,0.043l0.029,0.045l-0.013,0.047l-0.024,0.018l0.011-0.05l-0.042-0.055l0.013-0.063l0.09-0.111l0.098-0.037l0.177-0.005l0.143,0.095l0.111,0.015l0.164-0.031l0.177-0.003l0.225-0.053l0.159-0.071l0.191-0.013l0.124,0.045l0.056,0.039l0.045,0.09l0.328,0.295l0.14,0.09l0.151,0.021l0.294-0.089l0.132,0.007l0.207,0.087l0.092,0.082l0.012,0.072l-0.039,0.053l0.039-0.021l0.023-0.035l-0.006-0.082l-0.103-0.25l-0.516-0.581l-0.371-0.456l-0.097-0.163l-0.249-0.522l-0.003-0.21l0.053-0.145l0.109-0.105l0.097-0.034l0.122-0.002l0.111-0.029l0.011-0.053l-0.032-0.029l-0.116-0.036l-0.178-0.084l-0.275-0.092l-0.129-0.102l-0.03-0.084l0.032-0.071l-0.005-0.021l-0.312-0.134l-0.117-0.142l-0.079-0.178l-0.024-0.129l-0.135-0.273l-0.098-0.118l-0.085-0.026l-0.061-0.045l-0.015-0.076l0.026-0.034l0.003-0.047l-0.143-0.095l-0.035-0.063l-0.119-0.065l-0.153-0.027l-0.093-0.036l-0.037-0.066l-0.132-0.073l-0.093,0.008l-0.053-0.019l-0.016-0.047l-0.092-0.087l-0.116-0.018l-0.159-0.068l-0.106,0.001l-0.056-0.014l-0.048-0.043l-0.1-0.028l-0.069,0.014l-0.078-0.009l-0.181-0.074l-0.074-0.068l-0.083-0.031l-0.076-0.009l-0.108-0.047l-0.053-0.049l-0.023,0.003l-0.01,0.046l-0.037,0.049l-0.006,0.08l-0.098,0.084l-0.025,0.007l0.099-0.098l-0.013-0.052l-0.095-0.025l-0.004-0.022l0.076-0.039l0.014-0.061l-0.102-0.123l-0.002-0.063l0.069-0.066l-0.005-0.019l-0.099-0.035l-0.145-0.091l-0.09-0.104l-0.102-0.08l-0.055-0.093l-0.003-0.161l-0.044-0.133l-0.076-0.084l-0.065-0.227l0.007-0.051l-0.018-0.182l0.03-0.058l-0.011-0.105l-0.16-0.12l-0.066-0.139l-0.123-0.115v-0.06l-0.014-0.028l-0.099-0.083l-0.051-0.103l0.005-0.047l-0.023-0.06l-0.063-0.073l-0.025-0.103l0.078-0.12l-0.004-0.046l-0.074-0.085l-0.021-0.079l-0.071-0.082l-0.068-0.158l0.005-0.103l0.055-0.115l-0.006-0.063l-0.099-0.072l-0.072-0.087l-0.012-0.145l0.063-0.099l0.044-0.035l-0.001-0.101l-0.057-0.026l-0.017-0.032l0.007-0.22l-0.022-0.061l-0.049-0.008l-0.019-0.039l0.003-0.056l-0.058-0.113l0.003-0.117l-0.044-0.091l-0.151-0.136l-0.135-0.069l-0.105-0.011l-0.082,0.038l-0.031-0.017l0.035-0.084l-0.074-0.15l-0.032,0.004l-0.007,0.076l-0.042,0.028l-0.074-0.007l-0.138-0.129l-0.014-0.097l-0.057-0.077l-0.183-0.126l-0.166-0.171l-0.074-0.143l-0.152-0.167l-0.169,0.083l-0.027,0.052l0.024,0.086l-0.026,0.035l-0.037-0.001l-0.027,0.024l0.008,0.037l-0.061,0.052l-0.053-0.008l-0.039,0.021v0.058l-0.024,0.018l-0.056-0.005l-0.021,0.026l0.021,0.057l-0.01,0.037l-0.053,0.016l-0.109,0.112l-0.002,0.058l-0.069,0.039l0.016,0.055l-0.043,0.034l-0.074-0.026l-0.177-0.003l-0.058,0.021l-0.024,0.047l0.029,0.034l0.05,0.005l0.018,0.024l-0.028,0.024l0.023,0.028l0.047,0.004l0.025,0.033v0.05l-0.019,0.039l0.016,0.042l0.077,0.031l0.101,0.089l0.063,0.178v0.073l0.066,0.089l-0.002,0.053l0.031,0.034l0.104,0.013l0.002,0.029l-0.061,0.021l-0.021,0.083l-0.047,0.06l-0.098,0.042h-0.119l-0.117,0.053l-0.018,0.031l-0.059,0.029l-0.06,0.002l-0.032,0.042l0.026,0.097l-0.037,0.034l-0.008,0.045l-0.129,0.096l-0.064-0.002l-0.034-0.047l-0.154-0.003l-0.151,0.026l-0.127,0.152l-0.129,0.058l-0.075,0.091l-0.119,0.063l-0.082,0.11l-0.061,0.016l0.015,0.025l0.125,0.019l0.001,0.024l-0.074,0.013l-0.014,0.112l-0.129,0.013l-0.13,0.238l-0.138,0.053l-0.174,0.115l-0.085,0.026l-0.048-0.008l-0.029,0.029l-0.005,0.055l-0.085,0.076l-0.066,0.023l-0.1,0.134l-0.069,0.01l-0.082,0.042l-0.006,0.047l-0.074,0.047l-0.28-0.036l-0.048,0.015l-0.005,0.034l0.047,0.008l0.04,0.047l-0.042,0.12l-0.121,0.097l-0.007,0.046l-0.109,0.024l-0.085,0.084v0.056l0.092,0.021l0.137-0.07l0.081,0.021l-0.074,0.018l-0.127,0.08l-0.166-0.014l-0.173-0.112l-0.158-0.007l-0.219,0.116l-0.049,0.101l0.049,0.046l0.099-0.014l0.021,0.028l-0.046,0.045l-0.131,0.021l-0.123-0.063l-0.138,0.049l-0.102,0.137l-0.12,0.276l-0.007,0.091l0.025,0.084l-0.029,0.095l-0.105,0.094l-0.103,0.063l-0.074,0.07l-0.025,0.091l-0.158,0.2l-0.046,0.024l-0.018,0.088l0.025,0.129l-0.06,0.291l-0.078,0.122l-0.092,0.063l-0.003,0.056l0.067,0.095l0.074,0.028l0.127,0.175l0.155,0.136l0.206,0.234l0.137,0.078l0.024,0.071l0.025,0.264l0.099,0.169l0.25,0.296l0.071,0.024l0.113-0.045l0.063,0.021l0.06-0.046l-0.024-0.07l0.028-0.064l0.063-0.053l0.007-0.081l-0.035-0.042l0.053,0.014l0.067,0.088v0.095l-0.049,0.183l-0.046,0.078l-0.088,0.017l-0.018,0.036l0.053,0.053l-0.014,0.116l0.003,0.077l0.025,0.067l0.042,0.035l0.029,0.053l0.141,0.049l0.07,0.057l0.018-0.007l-0.028-0.06l0.039-0.074l0.18-0.144l0.144-0.212l0.021-0.127l0.053-0.063l0.007-0.099l-0.042-0.052l0.014-0.071l0.06-0.031l-0.028,0.045l-0.007,0.043l0.042,0.021l0.05,0.067v0.056l-0.036,0.021l0.004,0.028l0.099,0.067l0.01,0.064l-0.01,0.045l0.039,0.039l0.095-0.003l0.113-0.064l0.116-0.165l0.117-0.053l0.116-0.028l0.127-0.099l0.007-0.077l0.025,0.028l0.003,0.081l-0.091,0.095l-0.149,0.074l0.015,0.042l0.07,0.056l0.138,0.25v0.071l-0.085,0.113l-0.201,0.095l-0.067,0.056l-0.021,0.074l-0.067,0.074l0.01,0.042l0.044,0.023l0.119,0.195l0.008,0.098l-0.045,0.09l-0.066,0.016l-0.098-0.011l-0.119,0.027l-0.092,0.058l-0.215,0.029l-0.037,0.033l0.011,0.226l-0.035,0.156l-0.013,0.343l0.109,0.177l0.214,0.066l0.363-0.008l0.084-0.016l-0.039,0.029l-0.143,0.027l-0.127,0.008l-0.093,0.047l-0.135,0.143l-0.069,0.023l-0.05,0.072l0.013,0.087l-0.021,0.077l-0.093,0.132l-0.058,0.044l-0.114,0.206v0.096l0.13,0.113l0.024,0.042l0.005,0.082l0.087,0.143l0.125,0.138l0.002,0.101l0.069,0.151l0.103,0.103l0.141,0.077l0.225,0.135l0.079,0.003l0.072-0.016l0.1,0.037l0.042-0.019l0.024-0.066l0.059-0.048l0.092-0.01l0.103-0.048l0.048-0.005l0.045,0.013l0.034-0.011l0.019-0.037l0.005,0.053l-0.047,0.022l-0.061-0.011l-0.048,0.013l-0.042,0.04l-0.09,0.008l-0.053,0.05l-0.003,0.088l-0.032,0.055l-0.047,0.019l-0.082-0.003l-0.096,0.019l-0.068,0.032h-0.119l-0.194-0.077l-0.1-0.101l-0.08-0.154l-0.076-0.071l-0.035-0.122l-0.079-0.151l-0.013-0.066l-0.035-0.027l-0.074-0.003l-0.095,0.077l-0.09,0.043l-0.172,0.053l-0.143,0.098l-0.003,0.037l0.106,0.172l0.119,0.088l0.053,0.18l0.066,0.071l0.042,0.013l0.016,0.019l-0.049,0.058L629.957,231.897z"/>
</svg>
