<svg xmlns="http://www.w3.org/2000/svg" viewBox="412.309 403.924 1.582 2.069">
  <path d="M413.625279,404.014721l-0.004141,-0.046932l0.006902,-0.015184l0.033129,-0.026227l0.015184,-0.002761l0.024441,0.013371l-0.005197,0.036377l0.009717,0.023683l0.027283,0.024847l-0.015184,0.056595l-0.023141,0.013804l-0.005846,0.062116l0.013804,0.019325l-0.011043,0.022086h-0.081442l-0.030368,0.008282l-0.026227,0.031748l-0.022086,0.00138l-0.036945,-0.015184l-0.033129,0.017945l-0.009987,0.028988l-0.009663,0.009663l0.004466,-0.053834l0.028988,-0.022086l0.020705,-0.002761l0.002761,-0.024847l-0.016564,-0.012423l-0.026552,0.004141l-0.015184,-0.011043l-0.002761,-0.028988l0.011043,-0.005521l0.011043,0.009663l0.03865,0.008282l0.016564,-0.008282l0.006902,-0.019325l0.013804,-0.004141l0.028988,0.004141l0.040031,-0.031748l0.005873,-0.043062l0.015184,-0.022086Z M413.840589,403.979102l0.027607,0.008282l0.019325,-0.006902l0.002761,-0.027607l-0.009663,-0.022086l-0.020705,-0.004141l-0.028988,0.020705l-0.002761,0.015184l0.012423,0.016564Z M413.142774,404.855093l0.017945,-0.017945l-0.009581,-0.017295l-0.03321,0.006252l-0.011043,0.013804l0.012423,0.017945l0.023466,-0.002761Z M413.473358,404.409126l0.019054,-0.010393l-0.010393,-0.020787l-0.017322,-0.003464l-0.010393,0.017322l0.019054,0.017322Z M413.516853,404.347226l-0.012126,0.01559l0.012126,0.01559l0.01559,-0.008661l0.001732,-0.019054l-0.017322,-0.003464Z M413.533066,404.282349l-0.010393,0.013858l0.010393,0.013858l0.017322,-0.005197l-0.001732,-0.019054l-0.01559,-0.003464Z M413.249062,404.750022l0.020787,-0.018188l-0.012992,-0.028582l-0.028582,0.005197l-0.005197,0.03118l0.025983,0.010393Z M413.043469,405.150058l-0.018188,-0.024711l0.015428,-0.041546l0.011043,-0.008282l-0.004141,-0.011043l-0.042791,-0.023466l-0.026227,0.00138l-0.03819,0.017133l-0.051967,-0.006929l-0.025983,-0.025983l-0.03708,-0.002165l-0.049531,0.042006l-0.048475,0.027012l-0.046797,0.06826l-0.038786,0.021463l-0.046932,0.046932l-0.022546,0.059789l-0.009527,0.048502l-0.034184,0.031126l-0.03865,0.085583l0.002761,0.016564l0.011043,0.015184l-0.020705,0.082822l-0.026227,0.016564l-0.00138,0.028988l0.028988,0.017945l0.005521,0.024847l-0.017945,0.016564l0.0059,0.044902l0.007903,0.024116h0.015184l0.017945,0.017945l-0.012423,0.006902l-0.016564,-0.005521l-0.011043,0.026227l0.002761,0.027607l-0.019325,0.020705l-0.030368,0.015184l-0.022086,-0.017945l-0.008282,0.004141l0.011043,0.016564l-0.035889,0.030368l-0.067638,0.026227l0.008282,0.013804l0.048313,0.004141l0.031748,-0.002761l0.016564,0.015184l0.023466,-0.002761l0.00138,-0.023466l0.011043,-0.002761l0.015184,0.030368l-0.011043,0.03865l0.017945,-0.004141l0.013804,-0.020705l0.004141,-0.035889l0.012423,-0.005521l0.002761,0.022086l0.012423,-0.002761l0.019325,-0.027607l0.002761,-0.013804l-0.006902,-0.017945l0.009663,-0.004141l0.042791,0.042791l0.026227,0.012423l0.008282,-0.013804l-0.022086,-0.026227l0.002761,-0.009663l0.028988,0.016564l0.019325,0.040031l-0.002761,0.012423l0.005521,0.012423l0.015184,-0.023466l-0.002761,-0.020705l-0.023466,-0.040031l0.005521,-0.006902l0.020705,0.030368l0.030368,0.004141v-0.009663l-0.027607,-0.008282 l-0.009663,-0.015184l0.012423,-0.004141l0.046932,0.009663l0.046932,-0.019325l0.049693,-0.002761l0.066258,-0.03865l0.006902,-0.019325l-0.006902,-0.011043l0.008282,-0.009663l0.026227,-0.002761l0.012423,-0.015184l0.002761,-0.028988l0.016564,-0.023466l0.016564,-0.004141l0.008282,-0.013804l-0.011043,-0.015184l0.002761,-0.028988l0.015184,-0.002761l0.013804,0.004141l0.008282,-0.009663l-0.016564,-0.022086l-0.013804,-0.049693l0.006902,-0.022086l-0.011043,-0.027607l0.016564,-0.045552l0.027607,-0.015184l0.026227,0.002761l0.015184,0.006902l0.008282,-0.009663l-0.011043,-0.009663l-0.016564,-0.00138l-0.005521,-0.031748l0.008282,-0.0773l0.013804,-0.045552l0.012423,-0.009663l-0.012423,-0.066258l0.011043,-0.013804l-0.004141,-0.009663l-0.013804,-0.013804v-0.022086Z M413.118333,404.669393v0.017945l0.013804,0.004141l0.009663,-0.011043l-0.009663,-0.013804l-0.013804,0.002761Z M413.112487,404.81157l0.015184,-0.009663l0.016564,-0.027607l0.002761,-0.044172l-0.022086,-0.013804l-0.017945,0.008282l0.002761,0.020705l-0.023466,0.033129l0.004141,0.017945l0.022086,0.015184Z M413.033806,405.039628l-0.00138,0.011043l0.012423,0.005521l0.006902,-0.013804l-0.009663,-0.005521l-0.008282,0.002761Z M413.091782,405.057573l0.002761,-0.012423l-0.012423,-0.012423l-0.011043,0.006902l0.004141,0.017945h0.016564Z M413.118009,405.085181l0.009663,-0.004141l-0.004141,-0.012423l-0.012423,-0.005521l-0.005521,0.011043l0.012423,0.011043Z M413.250524,405.140395l0.012423,-0.005521v-0.009663l-0.011043,-0.005521l-0.006902,0.011043l0.005521,0.009663Z M413.460664,404.093672l0.009663,-0.008282l-0.002761,-0.012423l-0.011043,0.00138l-0.005521,0.012423l0.009663,0.006902Z M412.543777,405.946529l0.015184,-0.009663l-0.00138,-0.016564l-0.012423,-0.002761l-0.013804,0.020705l0.012423,0.008282Z M412.581047,405.956191l0.012423,0.013804l0.011043,-0.004141l-0.008282,-0.012423v-0.017945l-0.012423,0.00138l-0.002761,0.019325Z M412.357427,405.993461l0.011043,-0.009663l-0.00138,-0.009663l-0.011043,0.00138l-0.005521,0.013804l0.006902,0.004141Z M413.090401,404.957889l0.015184,-0.004141l-0.005521,-0.009663l-0.013804,0.00138l-0.004141,0.009663l0.008282,0.002761Z M412.999297,405.554505l0.017945,0.004141l-0.00138,-0.009663l-0.017945,-0.009663l-0.009663,0.005521l0.011043,0.009663Z "/>
</svg>
