<svg xmlns="http://www.w3.org/2000/svg" viewBox="795.416 279.496 19.334 9.736">
  <path d="M795.415867,287.215178l0.049,0.031l0.041,-0.02l0.035,0.003l0.042,0.052l0.111,0.031l0.073,0.077l0.118,0.007l0.115,-0.045l0.052,0.034l-0.018,0.046l0.053,0.024l0.18,0.017l0.063,0.028l0.028,0.049l0.066,0.052l0.052,0.007l0.066,-0.028l0.149,-0.118l0.042,-0.073l0.121,-0.143l0.115,-0.027l0.104,0.021l0.049,0.072l0.163,0.025l0.105,-0.056l0.111,-0.007l0.069,0.021h0.105l0.069,-0.031l0.063,0.01l0.059,0.073h0.045l0.048,-0.024l0.178,0.021l0.118,0.045l0.045,0.049l0.09,0.02h0.118l0.126,0.025l0.045,0.048l0.128,0.066l0.084,-0.003l0.062,-0.021l0.087,0.007l0.017,-0.031l-0.041,-0.091l0.01,-0.045l0.122,-0.094l0.073,-0.031l0.014,-0.035l-0.032,-0.024l0.007,-0.038l0.035,-0.035l0.014,-0.049l-0.014,-0.034l0.021,-0.052l0.097,-0.073l0.188,-0.025l0.066,-0.038l0.09,-0.003l0.136,0.024l0.052,0.045l0.087,0.021l0.069,-0.038l0.101,-0.004l0.059,0.021l-0.007,0.077l-0.048,0.041l-0.073,0.174l0.038,0.115l0.139,0.083l0.052,-0.017l0.021,-0.098l0.073,-0.02l0.048,0.024l-0.007,0.055l0.042,0.039l0.07,0.014l0.142,0.107l0.014,0.066l0.118,0.112l0.063,0.132l0.048,0.02l0.084,-0.02l0.177,0.073l0.125,0.17l0.108,0.031l0.076,-0.003l0.108,0.031l0.01,0.055l-0.125,0.073l-0.121,0.021l-0.046,0.063l0.025,0.021l0.094,-0.004l0.069,-0.031l0.063,0.021l0.021,0.069l0.114,0.212l-0.017,0.049l0.028,0.01l0.1,-0.031l0.108,-0.052l0.08,-0.004l0.09,-0.045h0.171l0.248,0.111l0.099,0.233l0.084,-0.003l0.048,-0.042l0.087,-0.007l0.083,-0.038h0.098l0.069,0.049l0.136,0.01l0.069,-0.024l0.118,0.007l0.223,0.111l0.045,-0.004l0.188,-0.166l0.121,-0.053l0.164,-0.017l0.166,-0.049l0.063,0.004l0.028,0.031h0.059l0.076,-0.069l0.125,-0.032h0.098l0.1,-0.048l0.035,0.003l0.042,0.049l0.208,-0.007l0.087,-0.143l-0.003,-0.097l0.027,-0.014l0.073,0.049l0.056,0.003l0.031,-0.017l0.059,0.003l0.07,0.094l0.066,0.014h0.097l0.101,0.049l0.031,-0.018l-0.003,-0.076l0.038,-0.021l0.125,0.031l0.09,0.087l0.139,0.045l0.053,0.046l0.052,0.003l0.118,-0.069l0.083,-0.129h0.042v0.073l-0.038,0.042l0.017,0.028l0.111,-0.042l0.038,-0.045l0.028,0.003l-0.003,0.066l0.031,0.011l0.049,-0.098v-0.076l0.041,-0.024l0.119,0.027l0.107,-0.031l0.028,0.017l-0.007,0.056l0.042,0.035l0.097,-0.038l0.024,0.017l-0.017,0.052l0.028,0.014l0.076,-0.038l0.028,-0.056h0.122l0.055,0.042l0.129,0.021l0.132,0.045l0.076,-0.018l0.007,-0.038l-0.059,-0.031h-0.087l-0.166,-0.066l-0.059,-0.045l-0.007,-0.045l0.041,-0.056l-0.014,-0.09l0.042,-0.035h0.049l0.069,0.056l0.004,0.034l0.107,0.035l0.039,-0.014l0.048,0.007l0.063,0.056l0.132,0.003l0.069,-0.069l0.066,-0.014l0.046,-0.052l0.048,-0.007l0.038,-0.038l0.061,-0.02l0.047,-0.073l0.068,-0.073l0.104,-0.01l0.235,-0.255l0.031,-0.073l0.036,-0.026l0.073,0.01l0.141,-0.083l0.063,-0.094l0.156,-0.032l0.229,0.073l0.089,0.12l0.115,0.006l0.109,-0.094l0.104,0.005l0.188,0.115l0.183,0.078l0.036,0.062v0.058l0.057,0.021l0.11,-0.037l0.104,0.016l0.063,0.073l0.083,0.015l0.109,-0.031l0.125,0.042l-0.005,0.047l-0.062,0.026l-0.11,0.13v0.068l0.172,0.177l0.193,0.115l0.203,0.047l0.141,0.041l0.094,0.073l0.162,0.047l0.281,-0.036l0.109,0.005l0.042,0.047l0.068,0.005l0.073,-0.115l0.115,-0.031l0.218,0.042l0.079,0.052l0.057,0.005l0.073,-0.042l0.057,0.016l0.016,0.062l0.261,0.209l0.02,0.068l0.073,0.041l0.178,-0.01l0.093,0.037l0.042,0.114l0.057,0.052l0.068,-0.005l0.162,-0.219l0.13,-0.01l0.094,0.057l0.104,0.005l0.084,-0.114v-0.167l0.036,-0.037v-0.078l-0.031,-0.068l0.052,-0.104l0.088,-0.021l0.047,-0.078l-0.01,-0.068l0.052,-0.052l0.042,-0.005l0.026,-0.042l-0.099,-0.052l-0.058,-0.062v-0.063l-0.145,-0.125h-0.058l-0.041,-0.026l0.005,-0.057l-0.089,-0.073l-0.333,-0.084l-0.256,-0.156l-0.073,-0.104l-0.167,-0.094l-0.119,-0.011l-0.084,-0.057l-0.005,-0.068l-0.037,-0.062l-0.057,-0.031l0.005,-0.1l0.058,-0.046l0.057,0.041l0.042,-0.01l-0.011,-0.084l-0.099,-0.078l-0.078,0.037l-0.068,-0.016l-0.01,-0.078l-0.052,-0.011l-0.058,0.047l0.021,0.058l-0.041,0.021l-0.11,-0.073l-0.052,-0.105l0.036,-0.052v-0.083l-0.073,-0.099l-0.01,-0.193l0.042,-0.136l0.047,-0.015l0.088,0.031h0.047l0.052,-0.047l0.162,-0.036l0.182,-0.172l0.167,-0.099l0.057,-0.131l-0.01,-0.088l0.036,-0.052l0.027,-0.063l-0.032,-0.031l-0.043,0.003l-0.019,-0.021l0.014,-0.029l-0.023,-0.028l-0.05,-0.002l-0.079,0.026l-0.024,-0.008l-0.002,-0.021l-0.057,-0.024l-0.038,0.01l-0.023,0.049l-0.04,-0.006l-0.104,-0.055l-0.021,-0.068l-0.052,-0.057l0.019,-0.033l-0.015,-0.012l-0.07,0.017l-0.016,-0.016l0.016,-0.04l0.035,-0.019l-0.004,-0.031l-0.081,-0.047l-0.047,-0.002l-0.018,0.025l-0.053,0.007l-0.028,0.04l-0.077,0.005l-0.05,0.031l-0.042,-0.024l-0.003,-0.058l-0.037,-0.008l-0.076,0.052l-0.021,0.05l-0.03,0.002l-0.071,-0.087l-0.003,-0.085l-0.032,-0.056l-0.034,0.004l-0.045,0.061l-0.058,0.008l-0.059,-0.031l-0.009,-0.05l-0.027,-0.009l-0.021,0.028h-0.028l-0.047,-0.035l-0.052,0.014l-0.03,0.062l-0.04,0.018l-0.04,-0.016l-0.001,-0.024l-0.019,-0.009l-0.042,0.018l-0.009,-0.014l0.035,-0.051l-0.017,-0.047l-0.07,-0.033l-0.002,-0.034l0.026,-0.032l-0.013,-0.073l-0.061,-0.06h-0.033l-0.016,0.015l-0.029,-0.002l-0.066,-0.038l-0.063,0.004l-0.049,0.033l-0.038,-0.002l-0.047,-0.04l-0.04,0.009l-0.012,0.043l-0.028,-0.003l-0.062,-0.059l0.017,-0.025l-0.016,-0.015l-0.05,0.003l-0.054,-0.023l-0.007,-0.031l0.033,-0.035l-0.001,-0.026l-0.054,-0.003l-0.035,-0.016l-0.024,-0.04l-0.157,-0.085l-0.116,-0.028l-0.061,-0.071l-0.052,-0.017l-0.023,-0.038l0.021,-0.075l0.028,-0.021l0.01,-0.026l-0.015,-0.024l0.01,-0.028l0.038,-0.035l0.066,-0.13l0.04,-0.004l0.044,0.032l0.061,-0.004l0.034,-0.04l0.051,-0.003l0.041,0.021l0.056,-0.009l0.037,-0.051l0.017,-0.069l-0.044,-0.05l-0.005,-0.131l-0.033,-0.048l0.005,-0.035l0.046,-0.042l0.022,-0.071l0.051,-0.049l0.052,-0.099l0.003,-0.064l-0.012,-0.057l-0.009,-0.091l-0.024,-0.012l-0.168,0.042l-0.058,-0.014l-0.036,-0.037l-0.04,-0.086l-0.087,-0.004l-0.033,0.019l-0.024,-0.002l-0.046,-0.031l-0.034,-0.002l-0.03,0.011l-0.033,-0.007l-0.04,-0.035l-0.007,-0.081l-0.054,-0.049l-0.045,-0.004l-0.043,0.032l-0.065,0.005l-0.055,-0.026l-0.038,0.003l-0.021,0.025l-0.085,0.003l-0.092,-0.012l-0.03,-0.026l-0.031,0.002l-0.028,0.017l-0.033,-0.002l-0.047,-0.041l-0.05,0.003l-0.04,0.059l-0.054,0.035l-0.058,0.007l-0.031,0.026h-0.042l-0.045,-0.042l-0.022,-0.149l-0.019,-0.028l-0.023,-0.002l-0.021,0.011l-0.031,-0.014l-0.028,-0.049l-0.047,-0.024l-0.003,-0.021l0.021,-0.012l-0.002,-0.019l-0.016,-0.016l-0.057,0.002l-0.037,-0.016l-0.012,-0.057l-0.045,-0.084l-0.066,-0.052l-0.005,-0.026l-0.028,-0.026l-0.075,-0.021l-0.085,-0.095l-0.029,-0.056l-0.04,-0.029l-0.092,-0.006l-0.047,0.026l-0.051,-0.005l-0.04,-0.024l-0.034,-0.002l-0.028,0.021l-0.038,0.064l-0.084,0.005l-0.036,-0.02l0.003,-0.03l-0.106,-0.069l-0.017,-0.039l-0.047,-0.027l-0.014,-0.039l-0.068,-0.033l-0.21,-0.008l-0.096,0.031l-0.043,0.097l-0.005,0.117l-0.047,0.083l-0.057,0.004l-0.016,0.029l0.003,0.033l-0.015,0.05l-0.026,0.027l-0.007,0.031l0.017,0.068l-0.019,0.024l-0.083,0.003l-0.077,-0.093l-0.052,-0.027l-0.002,-0.043l-0.043,-0.064l0.003,-0.051l-0.038,-0.06l-0.002,-0.065l0.019,-0.015l0.006,-0.03l-0.047,-0.045l-0.049,-0.012l-0.045,-0.045l-0.054,-0.009l-0.049,-0.042l-0.053,-0.005l-0.07,0.031l-0.203,-0.01l-0.051,0.014l-0.043,-0.002l-0.059,-0.033l-0.167,0.019l-0.029,0.075l0.062,0.102l-0.005,0.044l-0.03,0.007l-0.309,-0.087l-0.043,0.005l-0.026,0.04l-0.073,0.007l-0.032,-0.045l-0.066,-0.004l-0.041,0.021l-0.049,-0.007l-0.069,-0.031l-0.053,0.014l-0.041,0.052l-0.181,0.101l-0.038,0.073l-0.007,0.097l-0.014,0.066l0.005,0.033l-0.013,0.037l0.031,0.086l0.037,0.005l0.049,-0.042l0.068,0.013l0.084,0.078l0.028,0.091l0.123,0.079l0.034,0.075l0.086,0.039l0.002,0.029l-0.094,0.034l-0.039,0.047l0.003,0.049l0.135,0.047l0.026,0.034l0.047,0.01l0.063,-0.023l0.117,0.029l0.094,0.146l0.117,0.065l0.105,0.008l0.073,0.044l0.015,0.049l0.039,0.021l0.068,-0.005l0.089,0.044l0.002,0.055l-0.083,0.084l-0.008,0.065l0.055,0.047l0.013,0.057l0.039,0.049l0.031,0.105l-0.002,0.146l0.026,0.119l-0.011,0.042l-0.091,0.034l-0.086,0.07l-0.008,0.042l0.016,0.031l-0.024,0.058l-0.031,0.026l-0.008,0.031l0.024,0.029l-0.013,0.028l-0.06,0.013l-0.039,0.055l-0.055,0.018l-0.011,0.053l0.011,0.054l0.039,0.016l0.036,-0.016l0.066,0.032l-0.008,0.028l-0.076,0.063l-0.049,-0.003l-0.125,-0.083l-0.026,0.01l0.015,0.058l-0.023,0.023l-0.12,-0.013l-0.073,-0.026l-0.196,-0.011l-0.057,0.04l-0.039,0.005l-0.039,-0.011l-0.044,0.016l-0.019,0.073l-0.036,0.023l-0.039,-0.018l0.002,-0.068l0.032,-0.036l-0.008,-0.055l-0.031,-0.031l-0.032,0.005l-0.034,0.065v0.05l-0.028,0.005l-0.058,-0.039l-0.005,-0.06l0.058,-0.091l0.023,-0.099l-0.034,-0.021h-0.057l-0.06,-0.047h-0.05l-0.031,-0.031l0.013,-0.05l-0.031,-0.036l-0.058,-0.008l-0.005,-0.026l0.018,-0.031l-0.023,-0.014l-0.039,0.034l-0.008,0.047l-0.083,0.032l-0.045,0.049l-0.013,0.076l-0.028,0.002l-0.032,-0.041v-0.063l0.042,-0.029l0.003,-0.057l-0.032,-0.021l0.011,-0.031l-0.026,-0.013l-0.044,0.01l-0.034,-0.021v-0.062l-0.026,-0.039v-0.063l-0.034,-0.041l-0.006,-0.04l-0.075,-0.036l-0.07,0.016l-0.066,0.088l-0.083,0.013l-0.065,0.011l-0.042,0.049l-0.055,0.003l-0.086,-0.039l-0.057,0.002l-0.013,0.024l0.013,0.041l-0.021,0.084l-0.047,0.034l-0.08,0.005l-0.05,-0.021l-0.029,0.016l-0.002,0.054l0.013,0.04l-0.016,0.031l-0.036,0.018l-0.021,0.06l-0.045,0.016l-0.114,-0.042l-0.034,-0.039v-0.065l0.039,-0.024l-0.013,-0.036l-0.154,-0.011l-0.068,-0.015l-0.093,0.005l-0.032,0.047v0.039l-0.033,0.005l-0.05,-0.047l-0.013,-0.041l-0.05,-0.016l-0.031,0.01l-0.052,-0.015l-0.065,-0.055l-0.003,-0.068l-0.041,-0.047l-0.053,-0.023l-0.018,-0.063l0.029,-0.06l-0.011,-0.07l0.024,-0.083l0.115,-0.06l0.023,-0.047l0.063,-0.042l0.015,-0.063l-0.049,-0.046l-0.131,-0.013l-0.091,-0.04l-0.002,-0.036l0.073,-0.091l-0.003,-0.047l-0.086,-0.086l-0.018,-0.146l-0.026,-0.052l0.002,-0.065l0.073,-0.06v-0.107l0.026,-0.11l-0.005,-0.049l-0.057,-0.031v-0.047l0.034,-0.029l0.002,-0.029l-0.075,-0.015v-0.039l0.096,-0.105l0.073,-0.039l0.042,-0.086l0.073,-0.044l0.062,0.013l0.073,-0.018l0.06,-0.071l0.003,-0.062l0.039,-0.024l0.086,-0.01l0.112,-0.083l0.068,-0.126l-0.004,-0.054l-0.135,-0.087l-0.101,-0.014l-0.132,-0.073l-0.014,-0.049l-0.031,-0.021l-0.111,0.021l-0.046,-0.021l-0.003,-0.031l-0.035,-0.021l-0.049,0.007l-0.034,-0.024l-0.004,-0.08l-0.062,-0.038l-0.028,-0.052l-0.101,-0.059l-0.059,0.014l-0.125,-0.021l-0.073,-0.039l-0.017,-0.038l-0.032,-0.017l-0.069,0.01l-0.045,-0.027l-0.216,-0.014l-0.097,0.038l-0.094,-0.028l-0.028,-0.069l-0.052,-0.011l-0.031,0.021l-0.031,-0.004l-0.049,-0.031l-0.136,-0.014l-0.031,-0.034l-0.066,-0.018l-0.052,0.014l-0.062,-0.045l-0.021,-0.07l-0.07,-0.055h-0.059l-0.045,-0.031l-0.007,-0.042l-0.076,-0.059l-0.08,-0.007l-0.125,-0.08l-0.08,-0.073l-0.066,-0.132v-0.052l0.069,-0.025l0.007,-0.048l-0.125,-0.084l-0.149,-0.062l-0.133,-0.007l-0.024,-0.035l0.018,-0.038l-0.018,-0.038l-0.156,-0.025l-0.035,-0.027l-0.014,-0.053l-0.055,-0.024l-0.167,0.042l-0.052,-0.024l-0.046,-0.049l-0.1,-0.014l-0.07,0.045l-0.194,0.028l-0.035,0.038l0.014,0.045l-0.035,0.073l-0.031,0.004l-0.125,-0.101l-0.143,-0.052h-0.108l-0.055,-0.021l-0.129,-0.094l-0.201,-0.057l-0.047,-0.071l0.009,-0.07l-0.06,-0.057l-0.074,0.002l-0.033,0.046l-0.058,0.007l-0.059,-0.026l-0.064,0.018l-0.016,0.067l-0.048,0.044l-0.122,0.002l-0.054,0.034l-0.137,-0.003l-0.009,-0.042l-0.052,-0.04l-0.127,-0.001l-0.053,0.053l-0.056,0.002l-0.026,-0.021l-0.031,-0.001l-0.032,0.024l-0.045,0.012l-0.04,0.033l0.073,0.122l-0.024,0.069l-0.073,0.035l-0.153,0.257l-0.087,0.073l-0.062,0.132l-0.07,0.021l-0.049,-0.017l-0.066,0.006l-0.17,0.091l-0.139,0.014l-0.087,0.052l-0.045,0.087l0.024,0.066l0.087,0.035l0.014,0.062l-0.021,0.087l0.045,0.118l0.098,0.073l-0.004,0.052l-0.114,0.035l-0.094,0.08l-0.004,0.083l0.049,0.042l0.056,0.177l-0.011,0.15l0.059,0.194l0.091,0.094v0.056l-0.028,0.034l0.007,0.042l0.041,0.049l-0.027,0.052l-0.091,0.021l-0.184,0.139l-0.153,0.187l-0.347,0.198h-0.115l-0.115,0.066l-0.083,0.125l0.024,0.122l-0.045,0.035l-0.094,-0.007l-0.1,0.021l-0.066,0.059l-0.098,0.028l0.028,0.08l0.097,0.052l0.091,0.125l0.111,0.365l0.007,0.17l-0.031,0.083l0.01,0.108l0.056,0.08l0.048,0.174l0.167,0.191l0.094,0.177l0.087,0.125l0.01,0.233l0.042,0.17l0.031,0.299l-0.049,0.281l-0.198,0.393l-0.17,0.17l-0.142,0.018l-0.101,0.073l-0.087,0.135l0.014,0.098l-0.063,0.215l-0.069,0.177z"/>
</svg>
