<svg xmlns="http://www.w3.org/2000/svg" viewBox="438.724 429.343 11.004 13.489">
  <path d="M448.582,432.806l0.012-0.012l0.026,0.005v0.021l-0.029,0.003L448.582,432.806z M447.426,432.321l0.014-0.012l-0.01-0.019h-0.019l-0.009,0.021L447.426,432.321z M447.586,432.436l0.03,0.007l0.016-0.014l-0.012-0.028l-0.036-0.007l-0.009,0.019L447.586,432.436z M447.666,432.582l0.033,0.003l0.003-0.024l-0.016-0.016h-0.033l-0.009,0.014L447.666,432.582z M447.758,432.585l0.014-0.023l-0.021-0.012l-0.021,0.012v0.021L447.758,432.585z M446.225,431.107l-0.013-0.055l-0.021-0.008l-0.029,0.018l-0.005,0.036l0.036,0.026L446.225,431.107z M440.602,430.61l0.085-0.047l0.073-0.13h0.033l0.007,0.054l-0.019,0.052l-0.064,0.052l-0.116,0.068l-0.017-0.007L440.602,430.61z M440.967,429.805l-0.012,0.024l0.012,0.042l0.023,0.003l0.002-0.033l-0.009-0.033L440.967,429.805z M438.724,442.044l0.083,0.045l0.063-0.018l0.093,0.046l0.065,0.093l-0.039,0.087l0.225,0.184l0.152,0.035l0.153-0.017l0.08-0.056l0.063,0.042l-0.004,0.139l0.16,0.083l0.233,0.011l0.215-0.087l0.042,0.021l0.024,0.128l0.112,0.052l0.1-0.003l0.091-0.089l0.048-0.158l0.07-0.031l0.132,0.017l0.299-0.135l-0.004-0.146l0.059-0.028l0.077,0.028l0.062-0.052l0.032-0.08l0.243-0.122l0.049-0.08l0.139-0.066l0.1,0.035l0.039,0.083l-0.066,0.115l0.041,0.042l0.132-0.004l0.275,0.108l0.538,0.073l0.101-0.021l0.097-0.122l0.178-0.079l0.076-0.108l0.094-0.011l0.365,0.268l0.003,0.08l-0.118,0.052l-0.066,0.139l0.038,0.035l0.105-0.066l0.507-0.066l0.111,0.038l0.087,0.101l0.236,0.073l0.164-0.035l0.052-0.059l0.083-0.011l0.129-0.25l0.125-0.111l0.292-0.097l0.173-0.143l0.185-0.062l0.048-0.191l0.031-0.046l0.087-0.006l0.018-0.042l-0.052-0.049l0.034-0.049l0.087-0.006l0.143-0.171l-0.011-0.087l0.087-0.1l0.004-0.101l-0.059-0.063l-0.004-0.1l0.083-0.06l0.195-0.357v-0.098l0.191-0.378l0.115-0.025l0.038-0.052l-0.045-0.097l0.254-0.501l-0.08-0.166l0.076-0.181l0.08-0.024l0.038-0.039l0.004-0.135l0.107-0.118l0.073,0.003l0.014,0.045h0.056l0.153-0.212l-0.007-0.09l0.615-1.001l0.121-0.135l0.049-0.278l0.077-0.087l0.086,0.014l0.053-0.049l-0.018-0.156l0.073-0.077l0.111-0.027l0.181-0.237l0.101-0.062l0.059-0.132l-0.014-0.164l0.115-0.146l0.201-0.118l0.08-0.007l0.07-0.093l-0.021-0.171l0.021-0.132l0.093-0.18l-0.007-0.067l-0.215-0.253l-0.08-0.209l0.011-0.125l0.079-0.062l-0.017-0.039l-0.09-0.003l-0.108-0.108l-0.066-0.177l0.007-0.261l-0.163-0.312l-0.275-0.178h-0.08l-0.087,0.157l-0.003,0.504l0.028,0.17l-0.063,0.212l-0.174,0.156l-0.17,0.066l-0.003-0.027l0.121-0.091l0.108-0.059l0.08-0.104v-0.236l-0.063-0.39l-0.107-0.205l-0.039-0.225l-0.107-0.132l-0.308-0.155l-0.224-0.175l-0.094-0.125l-0.09-0.022l-0.087,0.066l-0.108-0.003l-0.041,0.063l-0.014,0.1l-0.07,0.122l0.031-0.115l0.021-0.142l0.052-0.073l0.105-0.021l0.048-0.056l-0.017-0.093l-0.153-0.171l-0.122-0.01l-0.059,0.048l-0.01,0.084l-0.076,0.045l-0.112-0.003v-0.021l0.091-0.014v-0.056l-0.188-0.226l-0.351-0.312l-0.215-0.125l-0.36-0.371l-0.297-0.224l-0.157-0.239l-0.39-0.334l-0.271-0.136l-0.273-0.041l-0.27-0.146l-0.338-0.146l-0.23-0.101l-0.066,0.014l-0.114,0.073l-0.237-0.059l-0.328-0.031l-0.469-0.141l-0.344-0.172l-0.172-0.151l-0.375-0.183l-0.204-0.031l-0.13,0.042l-0.108,0.121l-0.09,0.237l0.014,0.222l-0.038,0.236l-0.084,0.059l-0.09,0.132l0.028,0.094l-0.032,0.08l-0.222,0.139l-0.059,0.087l-0.247,0.243l-0.243,0.111l-0.125,0.16l-0.16,0.244l-0.073,0.055l-0.094,0.094l-0.16,0.104l-0.114,0.264l-0.014,0.285l-0.101,0.115l-0.01,0.111l0.045,0.389l-0.014,0.143l0.052,0.052l0.083,0.003l0.035,0.063l-0.031,0.267l0.055,0.136l-0.024,0.17l-0.094,0.084l0.042,0.486l0.059,0.101l0.111,0.097l0.018,0.313l-0.049,0.198l0.045,0.104l0.195,0.104l0.014,0.077l-0.059,0.073l-0.032,0.219l0.07,0.045l0.097,0.202l0.052,0.215l0.157,0.083l-0.014,0.049l0.062,0.122l0.101,0.014l0.052,0.079l-0.007,0.091l0.07,0.052l0.118-0.021l0.104,0.052l0.136,0.254l0.003,0.177l0.115,0.118l0.076,0.025l0.07-0.039l0.066,0.035l0.048,0.115l-0.031,0.104l-0.059,0.045l-0.056,0.532l-0.132,0.153l-0.038,0.253l-0.073,0.073l-0.167,0.046l-0.163,0.264l-0.08,0.045l-0.073,0.246l0.042,0.028l0.062-0.017l0.056,0.056l-0.01,0.142l-0.059,0.042l-0.004,0.055l0.059,0.153l0.007,0.254l-0.045,0.09l-0.021,0.143l0.031,0.062l-0.017,0.087l-0.056,0.014l-0.02,0.045l0.024,0.094l-0.084,0.167l-0.142,0.111l-0.108,0.271l-0.08,0.069l-0.118,0.338l-0.253,0.354l-0.105,0.031h-0.114l-0.098,0.098l-0.041,0.163l0.007,0.09l-0.046,0.025l-0.17-0.08l-0.108,0.031l-0.027,0.042L438.724,442.044z"/>
</svg>
