<svg xmlns="http://www.w3.org/2000/svg" viewBox="631.575 249.249 1.903 1.654">
  <path d="M631.581,250.564l0.004-0.014l0.019-0.004l0.011,0.01l-0.001,0.017l-0.017,0.001L631.581,250.564z M631.579,250.711l0.017,0.025l0.036,0.01l0.036-0.01l0.046,0.007l0.068,0.025l0.072,0.006l0.044-0.012l0.012-0.012l0.015-0.007l0.043,0.01l0.012,0.025l0.015,0.001l0.012-0.018l0.026-0.021l0.015-0.007l0.021,0.008l-0.003,0.017l0.007,0.011l0.024-0.011l0.011-0.017l-0.017-0.048l0.003-0.039l0.011-0.014l0.001-0.014l-0.014-0.011v-0.011l0.021-0.012l-0.001-0.03l-0.022-0.022l0.006-0.026l0.022-0.021l0.046-0.017l0.021-0.026l0.001-0.025l0.018-0.025l0.001-0.035l-0.015-0.028l-0.029-0.003l-0.008-0.014h-0.012l-0.004,0.019l-0.012,0.014h-0.018l-0.008-0.015l0.008-0.014l-0.007-0.007l-0.013,0.006l-0.022-0.003l-0.022,0.007l-0.007,0.012l0.018,0.007l0.008,0.012l-0.007,0.018l0.001,0.021l-0.012,0.007l-0.019-0.015l-0.001-0.015l-0.012-0.004l-0.017,0.011l-0.033-0.004l-0.022,0.014v0.018l-0.012,0.008l-0.025-0.001l-0.014,0.008l0.004,0.018l-0.011,0.032l-0.017,0.008l-0.021,0.003l-0.015,0.008l-0.028-0.004l-0.003,0.007l0.014,0.01l0.003,0.011l-0.014,0.018l-0.026,0.003l-0.017-0.017l-0.025-0.007l-0.014,0.01l0.008,0.032l-0.014,0.012l-0.019-0.007h-0.03l-0.03,0.011l-0.003,0.014l0.025,0.021l0.004,0.036l-0.018,0.032l-0.017,0.011l-0.036-0.007l-0.014,0.01L631.579,250.711z M632.338,250.617l0.007-0.014l0.015-0.004l0.007,0.011l-0.007,0.012l-0.015,0.004L632.338,250.617z M632.421,250.579l0.007-0.026l-0.014-0.029l-0.003-0.028l-0.011-0.008l-0.03,0.012l-0.004,0.017l0.019,0.025l-0.001,0.021l0.01,0.025l0.014,0.001L632.421,250.579z M632.613,250.748l0.006,0.01h0.012l0.015-0.007l0.001-0.011l-0.017-0.008l-0.029,0.007l-0.001,0.01H632.613z M632.706,250.903l0.004-0.011l-0.008-0.006l-0.008,0.007l0.001,0.008L632.706,250.903z M632.654,250.855l0.022,0.008l0.017-0.012l0.012-0.035l0.025-0.025l0.036-0.01l0.024-0.021l0.003-0.032l-0.01-0.014l-0.021-0.006l-0.012-0.022l-0.047-0.033l-0.006,0.007l0.007,0.012l-0.006,0.026l-0.008,0.029l-0.018,0.008l-0.001,0.028l0.024,0.017v0.015l-0.039,0.021l-0.007,0.021L632.654,250.855z M633.097,249.274l0.033-0.012l0.001-0.012l-0.011-0.001l-0.03,0.011l-0.003,0.011L633.097,249.274z M633.184,249.401l0.017,0.017l0.043,0.008l0.04-0.008l0.024-0.019l0.048-0.011l0.035-0.03l0.019-0.003l0.014-0.021l-0.007-0.018l0.01-0.007h0.025l0.026-0.024l-0.007-0.019l-0.047-0.006l-0.014-0.007l-0.029,0.003l-0.014,0.021v0.022l-0.017,0.011l-0.026-0.004l-0.01-0.019l-0.011-0.003l-0.017,0.021l-0.042,0.006l-0.014,0.012l-0.007,0.017l-0.04,0.01v0.01l0.012,0.008v0.012l-0.011,0.008L633.184,249.401z M631.581,250.564l0.004-0.014l0.019-0.004l0.011,0.01l-0.001,0.017l-0.017,0.001L631.581,250.564z M631.579,250.711l0.017,0.025l0.036,0.01l0.036-0.01l0.046,0.007l0.068,0.025l0.072,0.006l0.044-0.012l0.012-0.012l0.015-0.007l0.043,0.01l0.012,0.025l0.015,0.001l0.012-0.018l0.026-0.021l0.015-0.007l0.021,0.008l-0.003,0.017l0.007,0.011l0.024-0.011l0.011-0.017l-0.017-0.048l0.003-0.039l0.011-0.014l0.001-0.014l-0.014-0.011v-0.011l0.021-0.012l-0.001-0.03l-0.022-0.022l0.006-0.026l0.022-0.021l0.046-0.017l0.021-0.026l0.001-0.025l0.018-0.025l0.001-0.035l-0.015-0.028l-0.029-0.003l-0.008-0.014h-0.012l-0.004,0.019l-0.012,0.014h-0.018l-0.008-0.015l0.008-0.014l-0.007-0.007l-0.013,0.006l-0.022-0.003l-0.022,0.007l-0.007,0.012l0.018,0.007l0.008,0.012l-0.007,0.018l0.001,0.021l-0.012,0.007l-0.019-0.015l-0.001-0.015l-0.012-0.004l-0.017,0.011l-0.033-0.004l-0.022,0.014v0.018l-0.012,0.008l-0.025-0.001l-0.014,0.008l0.004,0.018l-0.011,0.032l-0.017,0.008l-0.021,0.003l-0.015,0.008l-0.028-0.004l-0.003,0.007l0.014,0.01l0.003,0.011l-0.014,0.018l-0.026,0.003l-0.017-0.017l-0.025-0.007l-0.014,0.01l0.008,0.032l-0.014,0.012l-0.019-0.007h-0.03l-0.03,0.011l-0.003,0.014l0.025,0.021l0.004,0.036l-0.018,0.032l-0.017,0.011l-0.036-0.007l-0.014,0.01L631.579,250.711z M632.338,250.617l0.007-0.014l0.015-0.004l0.007,0.011l-0.007,0.012l-0.015,0.004L632.338,250.617z M632.421,250.579l0.007-0.026l-0.014-0.029l-0.003-0.028l-0.011-0.008l-0.03,0.012l-0.004,0.017l0.019,0.025l-0.001,0.021l0.01,0.025l0.014,0.001L632.421,250.579z M632.613,250.748l0.006,0.01h0.012l0.015-0.007l0.001-0.011l-0.017-0.008l-0.029,0.007l-0.001,0.01H632.613z M632.706,250.903l0.004-0.011l-0.008-0.006l-0.008,0.007l0.001,0.008L632.706,250.903z M632.654,250.855l0.022,0.008l0.017-0.012l0.012-0.035l0.025-0.025l0.036-0.01l0.024-0.021l0.003-0.032l-0.01-0.014l-0.021-0.006l-0.012-0.022l-0.047-0.033l-0.006,0.007l0.007,0.012l-0.006,0.026l-0.008,0.029l-0.018,0.008l-0.001,0.028l0.024,0.017v0.015l-0.039,0.021l-0.007,0.021L632.654,250.855z M633.097,249.274l0.033-0.012l0.001-0.012l-0.011-0.001l-0.03,0.011l-0.003,0.011L633.097,249.274z M633.184,249.401l0.017,0.017l0.043,0.008l0.04-0.008l0.024-0.019l0.048-0.011l0.035-0.03l0.019-0.003l0.014-0.021l-0.007-0.018l0.01-0.007h0.025l0.026-0.024l-0.007-0.019l-0.047-0.006l-0.014-0.007l-0.029,0.003l-0.014,0.021v0.022l-0.017,0.011l-0.026-0.004l-0.01-0.019l-0.011-0.003l-0.017,0.021l-0.042,0.006l-0.014,0.012l-0.007,0.017l-0.04,0.01v0.01l0.012,0.008v0.012l-0.011,0.008L633.184,249.401z"/>
</svg>
