<svg xmlns="http://www.w3.org/2000/svg" viewBox="631.576 249.249 1.902 1.654">
  <path d="M631.580637,250.564139l0.004154,-0.013845l0.019383,-0.004154l0.011076,0.009692l-0.001385,0.016614l-0.016614,0.001385l-0.016614,-0.009692Z M631.579253,250.710897l0.016614,0.024921l0.035997,0.009692l0.035997,-0.009692l0.045689,0.006923l0.067841,0.024921l0.071994,0.005538l0.044304,-0.012461l0.012461,-0.012461l0.01523,-0.006923l0.04292,0.009692l0.012461,0.024921l0.01523,0.001385l0.012461,-0.017999l0.026306,-0.020768l0.01523,-0.006923l0.020768,0.008307l-0.002769,0.016614l0.006923,0.011076l0.023537,-0.011076l0.011076,-0.016614l-0.016614,-0.048458l0.002769,-0.038766l0.011076,-0.013845l0.001385,-0.013845l-0.013845,-0.011076v-0.011076l0.020768,-0.012461l-0.001385,-0.030459l-0.022152,-0.022152l0.005538,-0.026306l0.022152,-0.020768l0.045689,-0.016614l0.020768,-0.026306l0.001385,-0.024921l0.017999,-0.024921l0.001385,-0.034613l-0.01523,-0.02769l-0.029075,-0.002769l-0.008307,-0.013845h-0.012461l-0.004154,0.019383l-0.012461,0.013845h-0.017999l-0.008307,-0.01523l0.008307,-0.013845l-0.006923,-0.006923l-0.012461,0.005538l-0.022152,-0.002769l-0.022152,0.006923l-0.006923,0.012461l0.017999,0.006923l0.008307,0.012461l-0.006825,0.018171l0.001287,0.020596l-0.012461,0.006923l-0.019383,-0.01523l-0.001385,-0.01523l-0.012461,-0.004154l-0.016614,0.011076l-0.033228,-0.004154l-0.022152,0.013845v0.017999l-0.012461,0.008307l-0.024921,-0.001385l-0.013845,0.008307l0.004154,0.017999l-0.011076,0.031844l-0.016614,0.008307l-0.020768,0.002769l-0.01523,0.008307l-0.02769,-0.004154l-0.002769,0.006923l0.013845,0.009692l0.002769,0.011076l-0.013845,0.017999l-0.026306,0.002769l-0.016614,-0.016614l-0.024921,-0.006923l-0.013845,0.009692l0.008307,0.031844l-0.013845,0.012461l-0.019383,-0.006923h-0.030459l-0.030459,0.011076l-0.002769,0.013845l0.024921,0.020768l0.004154,0.035997l-0.017999,0.031844l-0.016614,0.011076l-0.035997,-0.006923l-0.013845,0.009692l0.004154,0.023537Z  M632.337962,250.616609l0.006923,-0.013845l0.01523,-0.004154l0.006923,0.011076l-0.006923,0.012461l-0.01523,0.004154l-0.006923,-0.009692Z M632.421033,250.579227l0.006923,-0.026306l-0.013845,-0.029075l-0.002769,-0.02769l-0.011076,-0.008307l-0.030459,0.012461l-0.004154,0.016614l0.019383,0.024921l-0.001385,0.020768l0.009692,0.024921l0.013845,0.001385l0.013845,-0.009692Z M632.613479,250.748137l0.005538,0.009692h0.012461l0.01523,-0.006923l0.001385,-0.011076l-0.016614,-0.008307l-0.029075,0.006923l-0.001385,0.009692h0.012461Z M632.706241,250.903202l0.004154,-0.011076l-0.008307,-0.005538l-0.008307,0.006923l0.001385,0.008307l0.011076,0.001385Z M632.65363,250.854744l0.022152,0.008307l0.016614,-0.012461l0.012461,-0.034613l0.024921,-0.024921l0.035997,-0.009692l0.023537,-0.020768l0.002769,-0.031844l-0.009692,-0.013845l-0.020768,-0.005538l-0.012461,-0.022152l-0.047073,-0.033228l-0.005538,0.006923l0.006923,0.012461l-0.005538,0.026306l-0.008307,0.029075l-0.017999,0.008307l-0.001385,0.02769l0.023537,0.016614v0.01523l-0.038766,0.020768l-0.006923,0.020768l0.005538,0.016614Z M633.096672,249.273638l0.033228,-0.012461l0.001385,-0.012461l-0.011076,-0.001385l-0.030459,0.011076l-0.002769,0.011076l0.009692,0.004154Z M633.183896,249.401013l0.016614,0.016614l0.04292,0.008307l0.040151,-0.008307l0.023537,-0.019383l0.048458,-0.011076l0.034613,-0.030459l0.019383,-0.002769l0.013845,-0.020768l-0.006923,-0.017999l0.009692,-0.006923h0.024921l0.026306,-0.023537l-0.006923,-0.019383l-0.047073,-0.005538l-0.013845,-0.006923l-0.029075,0.002769l-0.013845,0.020768v0.022152l-0.016614,0.011076l-0.026306,-0.004154l-0.009692,-0.019383l-0.011076,-0.002769l-0.016614,0.020768l-0.041535,0.005538l-0.013845,0.012461l-0.006923,0.016614l-0.040151,0.009692v0.009692l0.012461,0.008307v0.012461l-0.011076,0.008307l-0.001385,0.013845Z "/>
</svg>
