<svg xmlns="http://www.w3.org/2000/svg" viewBox="631.576 250.317 0.629 0.462">
  <path d="M631.580637,250.564139l0.004154,-0.013845l0.019383,-0.004154l0.011076,0.009692l-0.001385,0.016614l-0.016614,0.001385l-0.016614,-0.009692Z M631.579253,250.710897l0.016614,0.024921l0.035997,0.009692l0.035997,-0.009692l0.045689,0.006923l0.067841,0.024921l0.071994,0.005538l0.044304,-0.012461l0.012461,-0.012461l0.01523,-0.006923l0.04292,0.009692l0.012461,0.024921l0.01523,0.001385l0.012461,-0.017999l0.026306,-0.020768l0.01523,-0.006923l0.020768,0.008307l-0.002769,0.016614l0.006923,0.011076l0.023537,-0.011076l0.011076,-0.016614l-0.016614,-0.048458l0.002769,-0.038766l0.011076,-0.013845l0.001385,-0.013845l-0.013845,-0.011076v-0.011076l0.020768,-0.012461l-0.001385,-0.030459l-0.022152,-0.022152l0.005538,-0.026306l0.022152,-0.020768l0.045689,-0.016614l0.020768,-0.026306l0.001385,-0.024921l0.017999,-0.024921l0.001385,-0.034613l-0.01523,-0.02769l-0.029075,-0.002769l-0.008307,-0.013845h-0.012461l-0.004154,0.019383l-0.012461,0.013845h-0.017999l-0.008307,-0.01523l0.008307,-0.013845l-0.006923,-0.006923l-0.012461,0.005538l-0.022152,-0.002769l-0.022152,0.006923l-0.006923,0.012461l0.017999,0.006923l0.008307,0.012461l-0.006825,0.018171l0.001287,0.020596l-0.012461,0.006923l-0.019383,-0.01523l-0.001385,-0.01523l-0.012461,-0.004154l-0.016614,0.011076l-0.033228,-0.004154l-0.022152,0.013845v0.017999l-0.012461,0.008307l-0.024921,-0.001385l-0.013845,0.008307l0.004154,0.017999l-0.011076,0.031844l-0.016614,0.008307l-0.020768,0.002769l-0.01523,0.008307l-0.02769,-0.004154l-0.002769,0.006923l0.013845,0.009692l0.002769,0.011076l-0.013845,0.017999l-0.026306,0.002769l-0.016614,-0.016614l-0.024921,-0.006923l-0.013845,0.009692l0.008307,0.031844l-0.013845,0.012461l-0.019383,-0.006923h-0.030459l-0.030459,0.011076l-0.002769,0.013845l0.024921,0.020768l0.004154,0.035997l-0.017999,0.031844l-0.016614,0.011076l-0.035997,-0.006923l-0.013845,0.009692l0.004154,0.023537Z "/>
</svg>
