<svg xmlns="http://www.w3.org/2000/svg" viewBox="672.643 436.547 1.954 2.160">
  <path d="M672.709444,438.354038l-0.041573,-0.069289l-0.024251,-0.107398l0.017322,-0.131649l0.076218,-0.207867l0.055431,-0.086611l0.090076,-0.027716l0.1559,0.034644l0.051967,-0.017322l0.038109,0.006929l0.038109,0.024251l0.06236,-0.020787l0.045038,-0.076218l0.003464,-0.058896l-0.045038,-0.038109v-0.045038l0.051967,-0.065824l0.076218,-0.069289l0.006929,-0.038109l-0.013858,-0.03118l0.003464,-0.041573l0.017322,-0.027716v-0.252905l0.017322,-0.034644l0.03118,-0.013858l0.142042,-0.169758l0.076218,-0.117791l0.013858,-0.058896l0.024251,-0.027716l0.076218,-0.034644l0.048502,0.020787l0.010393,0.024251l-0.013858,0.027716l0.03118,0.038109l0.051967,-0.013858l0.072753,0.017322l0.072753,-0.020787l0.048502,0.003464l0.017322,0.024251l0.024251,0.006929l0.041573,-0.013858l0.072753,0.010393l0.038109,-0.020787l0.06236,-0.006929l0.065824,-0.020787l0.065824,0.020787l0.051967,0.06236l0.027716,0.083147l0.038109,0.03118l0.017322,0.194009l-0.03118,0.107398l-0.097004,0.103933l-0.038109,0.083147l-0.117791,0.142042l-0.086611,0.204402l-0.079682,0.12472l-0.027716,0.017322l-0.010393,0.072753l0.003464,0.041573l-0.090076,0.086611l-0.051967,0.010393l-0.03118,0.034644l0.038109,0.083147l-0.013858,0.131649l-0.072753,0.121256l-0.138578,0.131649l-0.010393,0.041573l-0.03118,0.034644l-0.010393,0.045038l-0.069289,0.076218l-0.048502,-0.003464l-0.027716,-0.034644l-0.131649,-0.051967l-0.034644,0.010393l-0.090076,-0.045038l-0.076218,-0.006929l-0.048502,0.027716l-0.176687,-0.069289l-0.06236,0.003464l-0.117791,-0.048502l-0.045038,-0.003464l-0.045038,-0.024251l-0.020787,-0.110862Z M673.200529,437.478399l0.018188,0.005197l0.007795,-0.018188l-0.010393,-0.012992l-0.01559,0.012992v0.012992Z "/>
</svg>
