<svg xmlns="http://www.w3.org/2000/svg" viewBox="713.316 294.346 14.629 17.463">
  <path d="M727.715578,311.507778l0.027799,-0.00695l0.062547,0.038223l0.045173,0.010425l0.069497,0.076446l0.024324,0.177217l-0.024324,0.00695l-0.11467,-0.079921l-0.052123,-0.086871l-0.017374,-0.086871l-0.020849,-0.048648Z M726.478535,309.120564l0.041698,0.010425l0.038223,-0.034748l0.076446,-0.003475l0.059072,0.031274l0.017374,-0.027799l-0.038223,-0.125094l-0.052123,-0.020849l-0.072972,0.024324l-0.076446,0.093821l0.00695,0.052123Z M726.356916,309.759934l0.062547,0.045173l0.031274,0.045173v0.045173l-0.031274,0.045173l-0.003475,0.045173l0.041698,0.038223l-0.017374,0.045173l-0.059072,0.017374l-0.00695,0.041698l0.034748,0.048648l0.020849,0.086871l0.072972,0.076446l0.062547,0.090346l0.20849,0.072972l0.059072,-0.003475l0.069497,0.038223l0.034748,-0.017374l0.010425,-0.059072l-0.024324,-0.055597l0.003475,-0.121619l0.031274,-0.104245l0.079921,-0.031274l0.055597,0.003475l0.031274,-0.020849l-0.003475,-0.086871l-0.198066,-0.170267l-0.132044,-0.055597l-0.118145,-0.111195l-0.003475,-0.059072l-0.031274,-0.062547l-0.104245,-0.086871l-0.079921,0.010425l-0.045173,0.118145l-0.059072,0.072972l0.00695,0.059072Z M722.617989,308.12676l-0.010425,0.027799l0.007818,0.024324h0.018243l0.010425,-0.023455l-0.005212,-0.028667h-0.020849Z M721.906516,307.808812l-0.013031,0.104245l0.028667,0.04691l0.023455,-0.005212l0.018243,-0.062547l0.03388,-0.031274v-0.083396l-0.031274,-0.03388l-0.026061,0.002606l-0.03388,0.062547Z M722.125431,307.972998v0.096427l0.067759,0.065153l0.031274,-0.013031l-0.002606,-0.104245l0.026061,-0.044304v-0.026061l-0.036486,-0.005212l-0.03388,-0.036486l-0.036486,0.005212l-0.015637,0.062547Z M721.784028,307.165098l0.036486,0.062547h0.020849l0.005212,-0.031274l-0.036486,-0.086002l-0.018243,-0.026061l-0.023455,0.007818l0.015637,0.072972Z M721.356623,306.623023v0.028667l0.026061,0.044304l0.018243,0.002606l0.013031,-0.044304v-0.052123l-0.020849,-0.015637l-0.036486,0.036486Z M719.370752,305.838578l0.026061,0.002606l0.026061,-0.007818l0.007818,-0.020849l-0.015637,-0.020849l-0.041698,0.005212l-0.018243,0.018243l0.015637,0.023455Z M717.947806,303.216812l0.031274,0.069497l-0.002741,0.106737l0.051389,0.053105l0.093821,0.034748l0.027799,0.034748l-0.003475,0.038223l0.020849,0.038223l0.041698,0.013899l0.010425,0.038223l-0.010425,0.041698l0.072972,0.083396l0.11467,0.031274l0.229339,0.250188l0.104245,0.052123l0.067759,-0.015637l0.020849,-0.062547l-0.057335,-0.078184l0.015637,-0.078184l0.11467,-0.140731h0.135519l0.271037,0.11467l0.026061,-0.041698l-0.031274,-0.067759l-0.088608,-0.036486l-0.203278,-0.156368l-0.072972,-0.156368l-0.359646,-0.140731l-0.119882,-0.010425l-0.156368,-0.198066l-0.031274,-0.119882l-0.062547,-0.015637l-0.119882,0.067759l-0.105983,0.135519l-0.024324,0.11467Z M718.239692,300.221501l0.038223,0.00695l0.024324,-0.020849v-0.062547l-0.031274,-0.020849l-0.027799,0.00695l-0.013899,0.059072l0.010425,0.031274Z M718.628874,300.509913l0.038223,-0.013899l0.024324,-0.055597l-0.017374,-0.034748h-0.031274l-0.052123,0.055597v0.038223l0.038223,0.010425Z M717.95128,300.586359l0.00695,0.076446l0.048648,0.048648l0.093821,0.211965l0.013899,0.10772l0.052123,0.034748l0.041698,0.048648l0.003475,0.072972l0.076446,0.076446l0.055597,0.00695l0.111195,-0.048648v-0.041698l-0.041698,-0.031274l-0.020849,-0.045173l0.013899,-0.10772l-0.041698,-0.069497l-0.045173,-0.00695l-0.038223,0.045173h-0.038223l-0.059072,0.038223l-0.031274,-0.010425v-0.072972l0.079921,-0.145943l0.00695,-0.10077l-0.041698,-0.055597l-0.059072,-0.010425l-0.038223,-0.048648l0.027799,-0.069497v-0.041698l-0.048648,-0.027799l-0.048648,0.013899l-0.00695,0.083396l-0.034748,0.017374l-0.059072,-0.017374l-0.017374,0.027799l0.038223,0.041698Z M717.652444,300.596784v0.059072l-0.027799,0.017374v0.052123l0.038223,0.027799v0.128569l-0.017374,0.041698h-0.041698v0.027799l0.052123,0.020849l0.003475,0.048648l-0.048648,0.10077l-0.159843,0.111195l-0.038223,-0.00695l-0.013899,-0.027799l-0.024324,-0.017374l-0.038223,0.010425l-0.038223,-0.031274l-0.024324,-0.090346l-0.045173,-0.010425l-0.031274,0.034748l-0.027799,-0.003475l-0.031274,-0.031274l-0.024324,0.017374l0.013899,0.10772l-0.052123,0.128569l0.003475,0.086871l-0.045173,0.069497l-0.059072,0.010425l-0.017374,0.041698l0.017374,0.10077l-0.034748,0.072972l-0.034748,0.045173l0.003475,0.055597l0.020849,0.041698l0.062547,0.00695l0.031274,0.020849l0.034748,0.059072l0.038223,0.00695l0.076446,-0.045173h0.076446l0.020849,-0.034748l0.010425,-0.246714l-0.055597,-0.128569l-0.003475,-0.062547l0.017374,-0.031274l0.052123,-0.010425l0.034748,0.020849v0.038223l0.097295,0.260613l0.041698,0.034748l0.034748,0.069497l-0.003475,0.041698h-0.024324l-0.034748,-0.066022l-0.034748,-0.020849l-0.013899,0.027799l0.031274,0.038223l0.00695,0.038223l-0.020849,0.024324l0.010425,0.041698l0.034748,0.020849l0.027799,0.059072l-0.003475,0.066022l0.062547,0.055597l0.104245,0.020849l0.059072,0.048648h0.048648l0.027799,-0.055597l0.097295,-0.055597l0.11467,0.017374l0.20849,0.128569l0.034748,0.055597l0.097295,0.031274l0.149418,-0.013899l0.079921,0.034748l0.066022,-0.045173l-0.00695,-0.041698l0.048648,-0.138994l-0.020849,-0.059072l-0.066022,-0.038223l-0.072972,-0.097295l-0.031274,-0.083396l-0.211965,-0.260613l-0.027799,-0.10772l-0.076446,-0.072972l-0.038223,-0.003475l-0.076446,0.086871l-0.059072,-0.00695l-0.090346,-0.159843l0.003475,-0.045173l0.059072,-0.041698l0.010425,-0.062547l-0.062547,-0.288412l-0.048648,-0.076446l-0.090346,-0.239764l-0.086871,-0.041698l-0.055597,0.017374v0.041698l0.027799,0.027799Z M719.392524,300.52069l0.040151,0.011076l0.017999,-0.009692l-0.001385,-0.034613l-0.030459,-0.020768l-0.024921,0.002769l-0.016614,0.016614l0.01523,0.034613Z M719.34822,300.558072l0.019383,-0.004154l0.008307,-0.013845l-0.009692,-0.01523l-0.017999,-0.001385l-0.013845,0.020768l0.013845,0.013845Z M719.439597,300.459772l0.017999,0.009692l0.009692,-0.008307l0.002769,-0.017999l-0.013845,-0.009692l-0.011076,0.008307l-0.005538,0.017999Z M719.497747,300.540073l0.020768,-0.001385l0.008307,-0.016614l-0.013845,-0.01523l-0.029075,0.002769l-0.008307,0.013845l0.022152,0.016614Z M719.499131,300.602376l0.012461,0.004154l0.020768,-0.01523l0.004154,-0.022152l-0.01523,-0.013845l-0.017999,0.005538l-0.009692,0.020768l0.005538,0.020768Z M719.58774,300.624528l0.020768,-0.004154l0.001385,-0.013845l-0.011076,-0.012461h-0.030459l-0.004154,0.01523l0.023537,0.01523Z M719.431182,300.757359l0.020768,0.005538l0.002769,-0.009692l-0.017999,-0.017999h-0.01523l-0.004154,0.012461l0.013845,0.009692Z M719.651318,300.75459l0.002769,0.030459l0.053996,0.065072l0.030459,0.011076l0.016614,-0.016614l-0.011076,-0.065072l-0.07061,-0.07061h-0.029075l-0.011076,0.01523l0.017999,0.030459Z M719.695622,301.009339l0.013845,-0.01523l0.024921,-0.05538l-0.002769,-0.017999l-0.016614,0.001385l-0.022152,0.040151l-0.011076,0.04292l0.013845,0.004154Z M719.44918,301.007955l0.05538,0.051227l0.026306,0.011076l0.001385,-0.011076l-0.049842,-0.060918l-0.029075,-0.020768l-0.011076,0.008307l0.006923,0.022152Z M719.327344,301.009339l0.01523,0.001385l0.013845,-0.011076l0.002769,-0.019383l-0.023537,-0.023537l-0.013845,-0.001385l-0.009692,0.013845l0.001385,0.029075l0.013845,0.011076Z M719.742696,301.264088l-0.011076,0.012461l-0.022152,-0.005538l-0.017999,0.017999l0.008307,0.051227l0.030459,0.013845l0.012461,-0.008307l-0.012461,-0.029075l0.008307,-0.01523l0.030459,-0.001385l0.031844,-0.058149l-0.008307,-0.031844l-0.02769,-0.006923l-0.026306,0.013845l-0.004154,0.024921l0.008307,0.022152Z M718.8808,300.066002l0.036486,-0.031274l0.013031,-0.059941l0.04691,-0.039092l0.059941,-0.013031l0.122488,-0.083396l0.015637,-0.065153l-0.023455,-0.023455l-0.130306,0.007818l-0.065153,0.031274l-0.096427,0.172005l-0.007818,0.091215l0.028667,0.013031Z M718.977227,300.22237l0.015637,-0.007818l-0.007818,-0.03388l0.031274,-0.065153l0.062547,-0.08079l-0.002606,-0.03388l-0.020849,-0.002606l-0.099033,0.140731l-0.010425,0.062547l0.031274,0.020849Z M718.372605,299.841875l0.08079,0.078184l0.158974,0.099033l0.018243,-0.005212l-0.013031,-0.026061l-0.151155,-0.091215l-0.026061,-0.04691l0.018243,-0.062547l0.026061,-0.005212l0.028667,0.010425l0.036486,-0.005212l0.054729,-0.049516l-0.005212,-0.03388l-0.062547,-0.015637l-0.08079,0.018243l-0.036486,-0.013031l-0.044304,0.010425l-0.018243,0.088608l0.015637,0.049516Z M718.581964,300.049497l0.022586,0.00695l0.015637,-0.005212l-0.00695,-0.015637l-0.027799,-0.010425l-0.013899,0.00695l0.010425,0.017374Z M718.368261,299.517846l0.017374,-0.003475l0.015637,-0.013899l-0.003475,-0.013899l-0.019112,-0.001737l-0.022586,0.024324l0.012162,0.008687Z M718.38911,299.59603l0.029536,-0.008687l-0.003475,-0.015637l-0.017374,-0.010425l-0.027799,0.012162v0.013899l0.019112,0.008687Z M718.319613,298.934073l0.038223,-0.026061l-0.001737,-0.012162l-0.019112,0.001737l-0.034748,0.026061l-0.003475,0.013899l0.020849,-0.003475Z M718.314576,299.24809l-0.00365,-0.124639l-0.022586,-0.118145l-0.048648,-0.043435l-0.04691,-0.00695l-0.010425,-0.015637l0.022586,-0.015637l0.057335,0.003475l0.015637,-0.008687l-0.012162,-0.012162l-0.072972,-0.005212l-0.036486,0.024324l-0.017374,0.038223l-0.017374,0.00695l-0.019112,-0.008687l-0.045173,0.001737l-0.057335,0.041698l-0.019112,0.069497l-0.029536,0.043435l-0.067759,0.06081l-0.062547,0.112932l-0.033011,0.088608l-0.005212,0.072972l-0.020849,0.064285l-0.052123,0.076446l-0.015637,0.088608l0.017374,0.062547l-0.017374,0.173742l-0.038223,0.090346l-0.001737,0.036486l0.015637,0.015637l0.001737,0.034748l0.013899,0.005212l0.026061,-0.031274l0.020849,-0.045173l0.069497,-0.132044l0.039961,-0.041698h0.026061l0.015637,0.026061l-0.003475,0.031274l0.036486,0.072972l0.019112,0.005212l0.020849,-0.00695l0.015637,0.012162l0.003475,0.027799l0.022586,0.034748l0.012162,-0.001737l0.008687,-0.055597l0.027799,-0.052123l0.024324,-0.005212l0.022586,0.019112h0.041698l0.039961,-0.026061l0.017374,-0.036486l0.019112,-0.001737l0.005212,-0.015637l-0.013899,-0.026061l0.008687,-0.029536h0.015637l0.034748,0.041698l0.019112,0.008687l0.031274,-0.027799l-0.00695,-0.10772l-0.019112,-0.045173l0.005212,-0.020849l0.015637,-0.013899l0.008687,-0.039961l-0.017374,-0.059072l-0.019112,-0.005212l-0.012162,0.008687l-0.003475,0.020849l0.008687,0.019112l-0.010425,0.038223h-0.013899l-0.026061,-0.026061l0.00695,-0.027799l0.013899,-0.015637l0.027799,-0.06081l0.045173,-0.038223l0.034748,-0.066022l-0.00695,-0.05386l-0.036486,-0.022586l-0.00695,-0.020849l0.014074,-0.061265Z M716.115697,297.287868l0.112064,0.125094l0.099033,0.036486l0.023455,-0.007818l-0.007818,-0.031274l-0.099033,-0.138125l-0.078184,-0.04691l-0.044304,0.010425l-0.005212,0.052123Z M716.483161,297.629271l0.052123,0.020849l0.020849,-0.010425l-0.020849,-0.031274l-0.072972,-0.04691l-0.026061,0.005212v0.026061l0.04691,0.036486Z M714.130695,294.938877l0.013899,-0.014768l-0.005212,-0.020849l-0.013899,-0.001737l-0.012162,0.012162l0.001737,0.015637l0.015637,0.009556Z M714.113321,294.439369l0.022586,-0.020849l0.00695,-0.029536l-0.045173,-0.041698l-0.041698,0.003475l-0.012162,0.034748l0.033011,0.043435l0.036486,0.010425Z M713.347119,294.614848l0.052123,0.00695l0.06081,-0.020849l0.024324,-0.062547l0.034748,-0.027799l0.001737,-0.020849l-0.031274,-0.00695l-0.055597,0.027799h-0.027799l-0.027799,-0.019112l-0.043435,0.001737l-0.019112,0.039961l0.00695,0.059072l0.024324,0.022586Z M713.81101,294.880673l0.024324,0.012162l0.013899,0.04691l0.027799,0.022586h0.026061l0.008687,-0.020849l-0.050385,-0.078184l-0.027799,-0.012162l-0.026061,0.012162l0.003475,0.017374Z M715.461558,294.844188l-0.018243,-0.006081l-0.026061,0.018243l-0.031274,-0.005212l-0.018243,-0.028667l-0.044304,-0.015637l-0.028667,0.007818l-0.096427,-0.041698l-0.039092,-0.054729l-0.054729,-0.028667l-0.044304,0.002606l-0.044304,0.057335l-0.101639,0.059941l-0.052123,0.002606l-0.020849,-0.015637l-0.052123,-0.007818l-0.020849,0.015637l-0.031274,-0.002606l-0.020849,-0.018243l-0.041698,-0.005212l-0.065153,0.03388h-0.049516l-0.031274,-0.020849l-0.086002,0.002606l-0.065153,0.057335l-0.059941,0.101639l-0.03388,0.023455v0.018243l0.028667,0.005212l0.036486,0.059941v0.093821l0.018243,0.002606l0.015637,-0.031274l0.026061,-0.005212l0.039092,0.028667l0.007818,0.03388l-0.031274,0.091215l0.036486,0.03388l0.078184,0.018243l0.065153,0.002606l0.026061,0.020849l-0.013031,0.072972l0.067759,0.117276l0.1277,0.093821l0.075578,0.03388l0.091215,0.059941l0.088608,0.145943l0.002606,0.044304l-0.015637,0.041698l0.028667,0.156368l0.093821,0.177217l0.172005,0.093821l0.140731,0.039092l0.11467,0.067759l0.044304,0.041698l0.044304,0.015637h0.036486l0.140731,0.075578l0.140731,0.044304l0.052123,-0.020849l0.013031,-0.036486l-0.059941,-0.083396l-0.020849,-0.099033l-0.093821,-0.156368l-0.031274,-0.005212l-0.067759,0.070365l-0.075578,0.020849l-0.059941,-0.020849l-0.028667,-0.057335l-0.057335,-0.028667l-0.052123,0.005212l-0.112064,-0.062547l-0.054729,-0.08079l-0.005212,-0.158974l-0.036486,-0.04691l-0.010425,-0.091215l0.013031,-0.072972l-0.010425,-0.041698l-0.023455,-0.018243l-0.013031,-0.028667l0.013031,-0.026061l0.020849,0.002606l0.013031,0.031274l0.020849,0.005212l0.020849,-0.044304v-0.091215l-0.020849,-0.013031l-0.03388,0.007818l-0.125094,-0.03388l-0.104245,-0.072972l-0.010425,-0.03388l0.028667,-0.018243l0.002606,-0.031274l-0.03388,-0.023455l-0.026061,-0.075578l0.026061,-0.057335l0.11467,-0.065153l0.104245,-0.010425l0.109457,-0.070365l0.031274,-0.078184l0.044304,-0.036486v-0.039092l-0.010425,-0.038223Z "/>
</svg>
