<svg xmlns="http://www.w3.org/2000/svg" viewBox="715.667 286.114 24.551 23.323">
  <path d="M726.999,297.543l0.023,-0.013l0.047,-0.003l0.01,0.023l-0.023,0.018l-0.05,-0.005l-0.008,-0.021Z M727.481,297.569l0.015,0.004l0.024,-0.027v-0.026l-0.018,-0.003l-0.018,0.02l-0.002,0.032Z M727.094,299.697l0.028,-0.021l0.003,-0.035l-0.028,-0.014l-0.024,0.014l-0.003,0.042l0.024,0.014Z M727.117,299.81l0.022,0.015l0.021,-0.003l0.019,-0.029l-0.004,-0.015h-0.036l-0.018,0.006 l-0.004,0.026Z M720.37,301.087l-0.003,0.016l0.014,0.017l0.014,-0.003l0.002,-0.019l-0.01,-0.014l-0.016,0.003Z M723.27,300.994l0.026,0.029l0.06,0.021l0.018,-0.013l-0.008,-0.021l-0.086,-0.034l-0.01,0.018Z M726.678,302.044l0.047,0.044l0.018,-0.005l-0.003,-0.023l-0.021,-0.026l-0.029,-0.01l-0.013,0.021Z M726.578,301.823l0.03,-0.005l0.035,-0.014l-0.002,-0.014l-0.021,-0.002l-0.043,0.01l-0.01,0.017l0.012,0.007Z M726.762,301.804l0.045,-0.009l-0.002,-0.016l-0.036,-0.01l-0.031,0.005l-0.003,0.016l0.028,0.014Z M726.706,301.799l0.014,-0.009l0.002,-0.012l-0.014,-0.009l-0.016,0.007v0.014l0.014,0.009Z  M738.008,290.673l0.064,0.001l0.033,0.015l0.043-0.001l0.047-0.042l0.119-0.019l0.024-0.05l-0.001-0.066l0.012-0.043l0.039-0.031l0.005-0.044l0.044-0.052l0.005-0.03l0.023-0.01l0.038,0.003l0.11-0.047l0.055-0.062l-0.005-0.037l-0.021-0.034l0.011-0.044l0.04-0.031l0.01-0.068l0.028-0.005l0.038,0.014l0.023-0.014l0.007-0.063l0.027-0.047l0.021,0.006l0.004,0.033l0.045,0.031l0.055,0.003l0.023-0.022l-0.007-0.042l-0.042-0.068l0.014-0.036l0.025-0.002l0.019,0.018l0.028-0.004l0.045-0.054l0.054-0.012l0.06,0.012l0.032-0.024l-0.042-0.085l-0.076-0.056l-0.006-0.036l0.021-0.019l0.04,0.001l0.05-0.047l0.027-0.069l-0.009-0.037l-0.049-0.022l-0.125-0.153l-0.007-0.066l0.026-0.049l0.045-0.033l0.013-0.04l-0.021-0.022l-0.066,0.007l-0.03-0.014l0.004-0.026l0.057-0.025l0.017-0.045l0.033-0.017l0.004-0.038l-0.075-0.059l-0.028-0.053l0.007-0.043l0.044-0.031l-0.002-0.066l0.023-0.047l0.005-0.033l-0.03-0.056v-0.059l0.044-0.05l0.05-0.004l0.035,0.028l0.052,0.007l0.122-0.003l0.111-0.105l0.097-0.031l0.024-0.024l-0.003-0.037l0.016-0.022l0.059-0.02l0.029-0.039l0.011-0.056l0.029-0.011l0.044,0.004l0.053-0.021l0.032-0.022l0.059,0.001l0.041,0.04l0.06,0.021l0.06-0.005l0.087-0.059l0.042-0.111l0.012-0.099l-0.014-0.06v-0.052l-0.014-0.045l-0.031-0.014l-0.021-0.04l0.004-0.104l-0.013-0.056l-0.029-0.048l-0.004-0.03l0.004-0.06l-0.002-0.051l-0.031-0.043l-0.002-0.051l0.012-0.057v-0.031l-0.027-0.035l0.001-0.056l0.026-0.048l-0.015-0.136l-0.026-0.017l-0.086-0.004l-0.13-0.047l-0.156-0.139l-0.007-0.029l0.024-0.023l-0.009-0.026l-0.074-0.001l-0.058-0.023l-0.04-0.042h-0.033l-0.033,0.025l-0.085-0.023l-0.095-0.043l-0.03-0.051l-0.045-0.003l-0.017-0.028l-0.028,0.015l-0.049-0.015h-0.033l-0.035,0.017l-0.102-0.008l-0.149-0.047l-0.053-0.066l-0.031-0.007l-0.026,0.022h-0.043l-0.094-0.028l-0.023-0.024l-0.038-0.003l-0.158,0.074l-0.023,0.051l-0.031,0.019l-0.092-0.007l-0.043,0.024l-0.006,0.033l-0.01,0.018l-0.024,0.012l-0.002,0.041l0.026,0.037v0.031l-0.014,0.026v0.032l0.05,0.059l0.047,0.014l0.012,0.041l0.037,0.028h0.054l0.038-0.024l0.038,0.005l0.016,0.075l0.036,0.027l0.007,0.226l0.026,0.025l0.072,0.007l0.026,0.024l0.015,0.087l-0.033,0.137l-0.024,0.023l-0.05,0.036l0.003,0.042l0.052,0.043l0.101,0.113l-0.01,0.016l-0.077,0.019l-0.042,0.056l-0.003,0.055l-0.042,0.129l-0.04,0.014l-0.008,0.022v0.028l-0.016,0.033l-0.078,0.012l-0.026-0.005l-0.033,0.002l-0.03,0.047h-0.028l-0.024-0.014l-0.035-0.004l-0.028,0.016h-0.026l-0.04-0.021l-0.031,0.003l-0.094,0.047l-0.015,0.039l-0.018,0.019l-0.033,0.005l-0.026,0.026l-0.043,0.009l-0.096-0.011l-0.036,0.002l-0.092,0.059l-0.092,0.009l-0.047-0.037l0.008-0.05l-0.022-0.023l-0.028,0.005l-0.033-0.015l-0.038-0.044l-0.054-0.024l-0.023,0.007l-0.019,0.033l-0.043,0.023l-0.035,0.001l-0.028,0.013l-0.017,0.04l-0.031,0.003l-0.019-0.014l-0.028,0.002l-0.019,0.019l-0.044,0.005l-0.068-0.009l-0.031,0.018l-0.019,0.054l0.009,0.027l-0.019,0.023l-0.028-0.002l-0.038-0.048l-0.086-0.018l-0.034-0.027h-0.073l-0.032,0.034l-0.057,0.011l-0.085-0.03l-0.049-0.038l-0.076-0.002l-0.045,0.035l-0.045,0.134l-0.027,0.014l-0.052-0.033l-0.128-0.011l-0.035,0.019l-0.118,0.037l-0.017,0.035l-0.068,0.024l-0.104,0.024l-0.042-0.015l-0.038,0.008l-0.028,0.045l-0.059,0.018l-0.025,0.024l-0.097-0.007l-0.045,0.011l-0.021,0.031h-0.038l-0.056-0.042l-0.08-0.01l-0.059-0.066l-0.021-0.091l-0.059-0.048h-0.038l-0.042-0.032l-0.003-0.038l-0.066-0.041h-0.045l-0.066-0.035l-0.025-0.063l-0.045-0.014l-0.052,0.021l-0.076-0.021l-0.063-0.066l-0.08-0.034l-0.125-0.018l-0.219-0.073l-0.09-0.09l-0.066-0.007l-0.077,0.059h-0.059l-0.048-0.028h-0.101l-0.031,0.021v0.142l-0.032,0.073h-0.045l-0.191-0.142l-0.042-0.111l-0.059-0.045l-0.149-0.021l-0.059,0.017l-0.038-0.01l0.013-0.049l-0.045-0.017l-0.08,0.014l-0.02,0.024l-0.039-0.004l-0.041-0.083v-0.059l-0.021-0.042l-0.07-0.034l-0.055-0.119l0.003-0.08l-0.038-0.079l0.01-0.066l-0.055-0.056l-0.063-0.004l-0.045,0.032l-0.076,0.007l-0.091,0.048l-0.01,0.066l-0.035,0.028l-0.104-0.01l-0.042-0.035l-0.076-0.014l-0.046,0.031l-0.02,0.052l-0.039,0.004l-0.052-0.035h-0.062l-0.056,0.045l-0.042,0.007l-0.027-0.041l0.007-0.056l-0.035-0.063l-0.049-0.013l-0.028-0.056l-0.055-0.024l-0.049,0.034l-0.024,0.059l-0.045,0.014h-0.056l-0.049,0.049l-0.007,0.073l-0.038,0.028l-0.066-0.059l-0.021-0.038l-0.076-0.021l-0.097,0.007l-0.056-0.028l-0.059,0.003l-0.059,0.073l-0.017,0.094l0.027,0.149l-0.017,0.046l-0.049,0.048h-0.055l-0.059-0.048l-0.039,0.003l-0.097,0.087l-0.062,0.003l-0.084-0.055l-0.094-0.108l-0.041,0.004v0.073l-0.049,0.038h-0.052l-0.084,0.017l-0.038,0.031l-0.156,0.025l-0.052,0.038l-0.063,0.108l-0.038,0.014l-0.09-0.028l-0.08-0.004l-0.059,0.021l-0.056-0.003l-0.028-0.018l-0.041,0.004l-0.073,0.066l-0.025,0.049l-0.048,0.02l-0.119-0.014l-0.048-0.027l-0.059-0.011l-0.063,0.007l-0.048-0.01l-0.032-0.056l-0.059-0.01l-0.083,0.021h-0.073l-0.08-0.028h-0.059l-0.052,0.028h-0.084l-0.153,0.107l-0.031,0.039h-0.038l-0.038-0.06l-0.011-0.059l-0.048-0.031l-0.115,0.004l-0.101,0.076l-0.066,0.017l-0.031,0.063l0.007,0.063l-0.035,0.066l-0.115,0.069l-0.038,0.004l-0.073-0.018l-0.167,0.004l-0.038,0.017l-0.104-0.003l-0.142-0.067h-0.053l-0.031,0.018l-0.073-0.004l-0.045-0.024l-0.042-0.007l-0.024,0.014h-0.066l-0.05-0.026h-0.146l-0.251,0.026l-0.057-0.031h-0.057l-0.037,0.057l-0.099,0.026l-0.031,0.115l0.016,0.109l-0.047,0.48l-0.063,0.073h-0.088l-0.146-0.157h-0.058l-0.052,0.125l-0.156,0.152l-0.068,0.005l-0.089-0.052h-0.104l-0.203,0.052l-0.172-0.016l-0.115-0.052l-0.109-0.01l-0.099,0.041l-0.052-0.01l-0.032-0.089l-0.193-0.078h-0.198l-0.135,0.057l-0.104,0.126h-0.079l-0.14-0.063l-0.037-0.068l-0.057-0.01l-0.094,0.088l-0.115,0.032l-0.083-0.005l-0.052,0.015l-0.026,0.047l-0.136,0.073l-0.067,0.089l0.005,0.135l-0.021,0.042h-0.047l-0.052,0.036v0.047l-0.261,0.183l-0.036,0.067l0.01,0.084l-0.073,0.057l-0.099,0.021l-0.156-0.052h-0.089l-0.062,0.068l0.005,0.078l-0.047,0.047l-0.115,0.005l-0.12,0.13l-0.078-0.01l-0.182-0.183l-0.078-0.015l-0.089,0.015l-0.083-0.005l-0.084-0.026l-0.109,0.011l-0.157,0.161l-0.291,0.068l-0.11-0.011l-0.13-0.078l-0.136,0.016l-0.115,0.114l-0.614-0.005l0.005,0.282l-0.068,0.062l-0.01,0.042l0.062,0.047l0.021,0.083l0.13,0.11l0.131,0.219l0.01,0.146l-0.026,0.062l-0.037,0.052l-0.01,0.079l0.026,0.078l-0.01,0.057l-0.089,0.011l-0.057,0.031l-0.032,0.068l-0.104,0.099l-0.015,0.125l-0.063,0.067l-0.057,0.006l-0.094-0.042l-0.125,0.01l-0.058-0.031l-0.057,0.021l-0.062,0.13l-0.11,0.026l-0.021,0.084l0.021,0.088l-0.016,0.151l-0.104,0.126l-0.005,0.073l-0.052,0.067l-0.073,0.042l-0.052,0.109l0.036,0.172l-0.026,0.105l-0.114,0.067l-0.027,0.094l0.053,0.058l-0.006,0.078l-0.041,0.062v0.094l-0.042,0.063l-0.172,0.021l-0.068,0.067l-0.177,0.016l-0.104-0.052l-0.068,0.005l-0.052,0.047h-0.068l-0.068-0.021l-0.125,0.026l-0.052,0.063v0.094l-0.073,0.14l-0.073,0.037l-0.193-0.005l-0.015,0.046l0.078,0.068l0.031,0.089l-0.031,0.052l0.026,0.063l0.141,0.104l0.14,0.234l-0.02,0.12l-0.058,0.104l-0.062,0.016l-0.115-0.062l-0.141-0.058l-0.052,0.021v0.057l0.037,0.047v0.052l-0.042,0.037l0.016,0.068l0.083,0.047l-0.016,0.062l-0.172,0.115l-0.01,0.088l-0.042,0.021l-0.068-0.052l-0.041,0.021l-0.016,0.073l0.021,0.047l-0.037,0.031l-0.119-0.005l-0.115-0.047l-0.089-0.005l-0.109-0.058l-0.052-0.052l-0.177-0.062l-0.063-0.005l-0.05,0.039l0.027,0.01l0.01,0.026l0.036,0.016l0.089-0.008l0.13,0.057l0.016,0.052l0.036,0.019l0.034-0.013l0.196,0.075l0.081,0.073l0.002,0.06l-0.034,0.044l-0.107,0.032l-0.002,0.028l0.036,0.016l0.029-0.005l0.023,0.015l-0.013,0.066l-0.026,0.041l-0.049,0.029l-0.013,0.036l0.023,0.021l0.052-0.008l0.152,0.079l0.088,0.01l0.047-0.01l0.05,0.026l0.028,0.065l-0.018,0.023l-0.076-0.018l-0.036,0.018v0.037l0.162,0.122l-0.011,0.024l-0.128,0.008l-0.033,0.018l-0.006,0.044l0.065,0.13l0.126,0.073l0.02,0.042l0.019,0.18l0.047,0.07l0.161,0.138l0.136,0.047l0.039-0.008l0.002-0.02l0.029-0.006l0.081,0.047l0.049,0.003l0.024-0.024l0.044,0.008l0.031,0.011l0.037-0.008l0.023,0.021l-0.008,0.041l0.011,0.167l0.044,0.05l0.159,0.104l0.102,0.112l0.114,0.162l0.183,0.133l0.055,0.007l0.125,0.089l0.075,0.141l0.024,0.107l-0.029,0.096l0.021,0.081l0.07,0.094l0.055,0.01l0.044-0.07l0.068-0.016l0.133,0.031l0.029,0.026l0.026-0.005l0.01-0.044l-0.036-0.037l-0.185-0.083l-0.092-0.065l-0.005-0.037l0.045-0.028l0.044-0.092l0.047-0.018l0.01-0.034l-0.036-0.062l0.013-0.065l0.14-0.086l0.045-0.003l0.086,0.05l0.047,0.065l0.01,0.08l-0.029,0.071l0.013,0.055l0.027,0.005l0.01-0.021l-0.021-0.024l0.018-0.054l0.055-0.029l0.01-0.039l0.034-0.005l0.115,0.036l0.042,0.058l0.057,0.052l0.063,0.008l0.039,0.028l0.013,0.037l0.041,0.013l0.086,0.002l0.092-0.013l0.028-0.031l-0.015-0.044l0.021-0.029l0.052,0.013l0.028-0.008l0.011-0.026l0.06-0.002l0.104,0.049l0.099,0.177l0.013,0.089l-0.039,0.063l-0.016,0.143l0.026,0.06l0.068,0.052l0.026,0.055v0.047l-0.029,0.007l-0.044-0.062l-0.167-0.078l-0.041,0.007l-0.013,0.042l0.002,0.073l-0.028,0.05l-0.034,0.005l-0.172-0.102l-0.016-0.036l0.016-0.032l-0.005-0.049l-0.045-0.016l-0.034,0.011l-0.023,0.031l-0.024-0.003l-0.023-0.086l-0.063-0.031l-0.078,0.037l-0.034,0.002l-0.026-0.021h-0.039l-0.07,0.058l-0.076,0.002l-0.057-0.06v-0.047l-0.024-0.01l-0.018,0.047l-0.049,0.039l-0.034,0.05l-0.117,0.002l-0.066-0.036l-0.026-0.084l-0.034-0.015l-0.026,0.013l-0.007,0.067l-0.021,0.042v0.081l0.028,0.008l0.026-0.047l0.032-0.003l0.013,0.024l-0.029,0.041l-0.003,0.045l0.06,0.049l0.058,0.018l-0.005,0.026l-0.055,0.014l-0.055-0.006l-0.094,0.06l-0.023,0.047v0.039l-0.031,0.042l0.005,0.086l0.057,0.057l0.031,0.055l0.006,0.052l0.041,0.029l0.115-0.034l0.07-0.042l0.034-0.057l0.06-0.024l0.089,0.013l0.028,0.037l-0.005,0.055l0.031,0.096l0.037,0.031l0.008,0.042l-0.008,0.081l0.021,0.065l0.055,0.081l0.036,0.018l0.023-0.013h0.021l0.019,0.029l0.041,0.005l0.037-0.021l0.075,0.01l0.024,0.032l0.013,0.086l0.091,0.127l0.01,0.086l-0.023,0.206v0.055l0.036,0.099l0.066,0.021l0.054-0.037l0.071-0.073l0.036-0.015l0.024,0.021l-0.008,0.067l-0.024,0.053l0.003,0.07l0.052,0.029l0.011,0.036l-0.019,0.026l0.006,0.031l0.044,0.029l0.044,0.084l-0.005,0.028l0.016,0.024l0.062,0.002l0.06,0.034l-0.003,0.026l-0.06-0.026l-0.044,0.005l-0.008,0.042l0.016,0.039l-0.003,0.034l-0.073,0.06l-0.007,0.031l0.026,0.042l-0.016,0.052l0.016,0.021l0.044-0.003l0.036,0.026l0.006,0.05l0.054,0.057l0.042-0.002l0.011-0.055h0.07l0.083,0.018l-0.002,0.021l-0.037,0.021l0.011,0.01h0.047l0.083,0.023h0.045l0.123-0.035h0.054l0.021,0.017l0.042,0.004l0.035-0.019l0.008-0.021h-0.012l-0.026,0.016l-0.031-0.002l-0.028-0.012h-0.061l-0.105,0.019l-0.053-0.002l-0.073-0.026l-0.002-0.019l0.024-0.039l0.138-0.042l0.016-0.039l-0.006-0.047l0.034-0.031l0.055,0.013l0.026-0.016l0.01-0.03l0.049-0.033l0.096-0.021l0.017-0.03l-0.005-0.06l0.026-0.092l-0.016-0.105l-0.034-0.045l-0.042-0.019l-0.051-0.05l-0.005-0.049l0.047-0.047l0.023,0.004l0.007,0.031l0.057,0.052l0.009,0.031l0.067,0.084l-0.003,0.059l0.019,0.038l-0.022,0.038l0.01,0.017l0.035,0.006l0.093,0.071l0.04,0.016l0.054,0.059l-0.001,0.045l-0.035,0.029l-0.007,0.056l0.01,0.029l-0.012,0.056l0.016,0.024l0.087,0.014l0.118,0.061l0.048,0.047l0.051,0.003l0.076-0.027l0.037-0.044l0.097-0.043l0.063-0.012l0.04-0.023l0.015-0.031l0.021-0.011l0.049,0.011l0.054-0.016l0.027-0.035l0.052-0.017l0.049,0.024l0.195,0.014l0.097,0.045l0.09,0.021l0.042-0.007l0.031-0.107l0.063-0.08l0.087-0.014l0.038-0.035h0.042l0.097,0.073l0.09,0.003l0.108-0.069l0.031-0.063l0.066-0.027l0.125,0.003l0.08,0.052l0.08,0.018l0.056-0.018l0.076,0.014l0.052,0.052l0.136,0.059h0.049l0.045,0.032v0.045l0.035,0.017l0.031-0.007l0.038,0.025l0.045,0.069h0.038l0.046-0.09l0.104-0.059l0.09,0.007l0.091,0.069l0.045-0.003l0.027-0.046h0.032l0.052,0.032l0.066,0.003l0.038-0.017l0.042,0.007l0.014,0.041l0.041,0.018l0.06-0.031l0.006-0.032l-0.024-0.038l0.011-0.024l0.038-0.007l0.01-0.052l-0.066-0.042l0.007-0.059l0.024-0.049l0.063-0.003l0.007-0.066l-0.038-0.063l0.021-0.028l0.055,0.018l0.018,0.052l0.052,0.021l0.041-0.014l0.049,0.024l0.028,0.063l0.132,0.125l0.045,0.09l0.066,0.063l-0.003,0.027l-0.042,0.018v0.038l0.111,0.132l0.004,0.049l0.034,0.024l0.059-0.003l0.039-0.053l0.003-0.055l0.028-0.035v-0.042l-0.038-0.038l0.024-0.087l0.08-0.041l0.062,0.041l0.035-0.007l0.014-0.048l-0.038-0.032l0.007-0.034l0.052-0.032l0.052,0.004l0.066,0.066l0.021,0.069l-0.021,0.056l0.028,0.087l0.111,0.083l0.132,0.039l0.136,0.062v0.042l-0.098,0.076v0.038l0.059,0.042l0.205,0.035l0.077-0.028l0.087-0.01l0.034,0.01l0.032,0.084l0.003,0.076l0.032,0.021l0.062-0.011l0.083,0.007l0.042-0.017l-0.003-0.028l-0.059-0.021l-0.049,0.004l-0.031-0.025l0.01-0.041l0.066-0.004l0.049,0.025l0.121,0.014l0.101-0.007l0.111,0.052v0.034l-0.038,0.021v0.032l0.09,0.034h0.056l0.066-0.107l0.056-0.039l0.048,0.021l0.014,0.035l0.038,0.028v0.028l-0.038,0.045l0.018,0.024l0.073,0.004l0.045-0.018l0.149,0.014l0.077,0.052l-0.014,0.028l-0.094,0.007l-0.042,0.031l0.007,0.038l0.045,0.021l0.039-0.007l0.038,0.021l0.003,0.052l-0.028,0.039l-0.104,0.048l-0.041,0.056l-0.195,0.059l-0.139,0.007l-0.056,0.031h-0.052l-0.038-0.031l-0.038-0.004l-0.025,0.014l-0.079-0.014l-0.112-0.069l-0.1-0.004l-0.105,0.063l-0.017,0.038l-0.045,0.014l-0.049-0.007l-0.055,0.056l-0.06,0.027l-0.003,0.025l0.083,0.024l0.122,0.021l0.115,0.073l0.027,0.045l0.077,0.045l-0.007,0.07l-0.07,0.073l-0.111,0.01l-0.062,0.042l-0.108-0.011l-0.202-0.086l-0.121-0.094l-0.028-0.077l-0.052-0.052l-0.066-0.028l-0.104-0.107l-0.205-0.101l-0.049-0.049l-0.177-0.087l-0.216-0.059l-0.142-0.111l-0.104-0.021l-0.08,0.028l-0.198-0.028l-0.178-0.066l-0.055-0.069l-0.097-0.032l-0.143,0.032l-0.104-0.038h-0.056l-0.062-0.014l-0.052-0.073l-0.073-0.039h-0.049l-0.045-0.024l-0.07-0.149l-0.066-0.059l-0.038-0.007l-0.059,0.024l-0.07-0.017l-0.159-0.101l-0.021-0.063l-0.049-0.052l-0.083-0.021l-0.056-0.038l-0.101-0.021l-0.222,0.004l-0.083-0.028h-0.07l-0.069,0.052l-0.129,0.038l-0.066,0.042l-0.017,0.042l-0.032,0.034l-0.062,0.028l-0.038,0.08v0.063l-0.07,0.156l-0.087,0.066l-0.062,0.09l-0.125,0.077l-0.15,0.045h-0.087l-0.069-0.028l-0.111-0.017l-0.188-0.115l-0.042-0.042l-0.09-0.013l-0.056,0.02l-0.048-0.003l-0.084-0.097l-0.052-0.018l-0.021,0.025l0.011,0.062l-0.032,0.087v0.076l0.014,0.091l-0.014,0.097l-0.08,0.08l-0.055,0.163l-0.056,0.059l-0.028,0.094l0.014,0.045l-0.014,0.056l-0.104,0.045l-0.274,0.233l-0.08,0.035l-0.087-0.004l-0.049-0.066l-0.052-0.003l-0.024,0.035v0.059l-0.038,0.121l-0.028,0.139l0.024,0.07l0.084,0.045l0.267,0.069l0.247,0.146l0.101,0.125l0.027,0.139l0.035,0.063l-0.01,0.087l-0.042,0.042l-0.003,0.034l0.031,0.042l-0.018,0.097l0.011,0.035l0.024-0.003l0.018-0.042v-0.049l0.031-0.035l0.139,0.014l0.194,0.101l0.112,0.108l0.156,0.104l0.146,0.077l0.184,0.184l0.136,0.173l0.135,0.233l0.094,0.243l0.056,0.244l-0.014,0.069l-0.039,0.049l-0.034,0.052l0.003,0.038l-0.021,0.028l-0.083,0.031l-0.063,0.07l-0.125,0.08l-0.076,0.118l-0.038,0.094v0.083l0.038,0.087l0.014,0.163l-0.014,0.084l0.007,0.052l0.09,0.062l0.031,0.077l0.046,0.052l0.059,0.031l0.066,0.111l0.017,0.105l0.031,0.017l0.084-0.003l0.066,0.052l0.003,0.048l-0.09,0.125l-0.011,0.084l0.035,0.17l0.118,0.146l0.077,0.024l0.024,0.039l0.028,0.003l0.049-0.042l0.132-0.027l0.048,0.031l0.014,0.073l0.08,0.107l0.042,0.021l0.031,0.042l0.014,0.07l0.028,0.01l0.052-0.017l0.052-0.073l0.049-0.042l0.045-0.007l0.017-0.028l-0.014-0.052l0.038-0.052l0.039-0.007l0.01-0.045l-0.076-0.063l-0.039-0.198l-0.003-0.17l0.038-0.073l0.007-0.163l-0.031-0.039l0.024-0.08l0.073-0.062l0.202-0.083l0.246-0.053l0.195,0.018l0.083,0.038l0.011,0.097l-0.031,0.066l-0.011,0.077l0.021,0.076l-0.007,0.049l-0.042,0.017l-0.003,0.049l0.097,0.09l0.066,0.011l0.063-0.042l0.052,0.007l0.097,0.066l0.028,0.073l0.076,0.118l0.056,0.045l0.066,0.073l0.01,0.077l0.08,0.205l0.042,0.034l0.024,0.046l0.004,0.055l0.045,0.08l0.052,0.017l0.063-0.024l0.024,0.018l-0.007,0.024l-0.069,0.035l-0.021,0.059l0.01,0.048l0.049,0.028v0.028l-0.045,0.01l-0.007,0.07l0.024,0.073l0.049,0.028l0.003,0.034l-0.042,0.021v0.035l0.053,0.042l0.007,0.083l-0.028,0.042l-0.094,0.045l-0.017,0.059l0.066,0.156l0.059,0.021l0.059-0.031l0.111,0.045l0.115,0.083l0.041,0.087l-0.01,0.087l0.035,0.063h0.031l0.024-0.059l0.007-0.188l0.024-0.073l-0.01-0.101l-0.083-0.107l-0.007-0.077l0.024-0.048v-0.073l-0.031-0.042l0.003-0.125l0.031-0.056l0.042-0.01l0.028,0.007l0.017,0.045l0.039,0.003l0.027-0.027l-0.003-0.06l-0.084-0.111l0.011-0.048l0.052-0.011l0.042,0.011l0.038,0.069l0.028-0.003l0.014-0.059l-0.035-0.056l-0.052-0.021l-0.014-0.059l0.045-0.108l0.129-0.062l0.017-0.042l-0.028-0.073l0.014-0.069l0.063-0.063l0.159-0.052l0.226,0.014l0.129,0.003l0.101-0.01l0.097,0.014l0.045,0.048l0.004,0.105l0.038,0.083l0.055,0.09l0.004,0.063l-0.042,0.104l-0.003,0.052l0.021,0.042h0.027l0.039-0.087l0.034-0.01l0.056,0.028l0.101,0.135l0.003,0.056l-0.021,0.027l0.007,0.046l0.188,0.118l0.049,0.076l-0.007,0.038l0.073,0.119l0.08,0.055l0.069,0.007l0.056-0.038l0.062,0.007l0.104,0.087l0.032,0.062l-0.014,0.077l0.059,0.114l0.132,0.053l0.059,0.003l0.066-0.042l0.149,0.014l0.032-0.017l-0.007-0.049l-0.087-0.052l-0.021-0.052l-0.038-0.028l-0.052-0.014l-0.045-0.045l0.006-0.104l0.033-0.042l-0.012-0.062l-0.135-0.066l-0.115-0.063l-0.049-0.056l-0.003-0.041l-0.042-0.056l-0.062-0.049l-0.025-0.114l0.007-0.084l0.039-0.031l-0.007-0.066l-0.035-0.069l0.028-0.091l0.08-0.045l0.045,0.007l0.031,0.056l0.035,0.003l0.024-0.042l-0.017-0.073l0.045-0.045l-0.004-0.041l-0.041-0.025l-0.004-0.038l0.021-0.035l-0.021-0.069l-0.045-0.066l-0.066-0.032l-0.049-0.066l-0.003-0.083l-0.038-0.16l-0.063-0.101l-0.024-0.107l-0.045-0.049l0.003-0.031l0.031-0.045l-0.017-0.15l-0.049-0.087l-0.066-0.076l0.011-0.024l0.045-0.018l-0.007-0.038l-0.069-0.035l-0.025-0.041l0.011-0.039l-0.059-0.024l-0.073,0.021l-0.066-0.014l-0.046-0.038l0.004-0.139l0.021-0.087l0.028-0.028l-0.004-0.049l-0.049-0.048l-0.076-0.164l-0.052-0.027l-0.021-0.035l0.024-0.031l-0.014-0.028l-0.045-0.025l-0.08-0.135l-0.01-0.087l-0.073-0.122l-0.097-0.128l-0.066-0.031v-0.046l0.038-0.034l-0.007-0.056l-0.049-0.035l-0.021-0.052l0.014-0.028l-0.007-0.048l-0.059-0.056l-0.007-0.066l0.025-0.055l-0.007-0.063l-0.052-0.083l0.01-0.094l0.083-0.087l0.094-0.038l0.059,0.017l0.035,0.083l0.115,0.167l0.08,0.056l0.038-0.004l0.059-0.048l0.142-0.018l0.063,0.011l0.045,0.038l0.07,0.024l0.027-0.003l0.049,0.024l0.073,0.157l0.038,0.02l0.084-0.038l0.041,0.011l0.014,0.052l0.042,0.045l0.059,0.007l0.059-0.018l0.09,0.018l0.06,0.066l0.038,0.094l-0.035,0.014l-0.045-0.035l-0.028,0.021l-0.007,0.08l-0.056,0.024h-0.079l-0.014,0.045l0.014,0.108l0.048,0.021l0.059-0.011l0.063,0.045v0.049l0.031,0.059l0.087,0.08l0.083,0.035l0.056-0.011l0.021-0.034l-0.018-0.066l-0.059-0.035l0.014-0.038l0.094-0.046l0.132-0.017l0.094,0.021l0.024-0.021l-0.017-0.024l-0.056-0.007l-0.024-0.021l-0.035-0.073l0.007-0.036l0.055-0.037l0.023-0.031l-0.002-0.039l0.026-0.019l0.044,0.011l0.037,0.039h0.054l0.06-0.018l0.026-0.029l0.05-0.023l0.185,0.01l0.044,0.021l0.047-0.003l0.055-0.023l0.237-0.031l0.096-0.055v-0.047l-0.044-0.084l-0.039-0.026l-0.042,0.003l-0.044-0.023l-0.018-0.034l-0.078-0.029l-0.024-0.031l-0.096-0.034l-0.065-0.005l-0.04-0.026l0.013-0.021l0.063-0.003l0.029-0.021v-0.031l-0.102-0.042l-0.039-0.034v-0.026l0.036-0.036l0.019-0.06l0.049-0.06l0.024-0.083l-0.029-0.086l-0.081-0.037l-0.107,0.013l-0.138,0.065l-0.01,0.037l0.06,0.042l0.039,0.059l0.06,0.063l0.015,0.055l0.016,0.031l-0.003,0.031l-0.075,0.06l-0.065,0.016l-0.045-0.013l-0.033-0.031l-0.094-0.037l-0.039-0.031l-0.024-0.052l-0.062-0.058l-0.066-0.007l-0.213-0.105l-0.052-0.036l0.005-0.045l0.029-0.041l0.005-0.055l-0.045-0.073l-0.005-0.042l0.052-0.099l-0.005-0.039l-0.146-0.081l-0.041-0.083l0.015-0.044l0.026-0.013l0.037,0.018l0.057-0.005l0.089-0.084l-0.003-0.088l-0.117-0.112l-0.026-0.042l-0.102-0.047l-0.078-0.005l-0.039,0.023l-0.05,0.003l-0.062-0.026l-0.055-0.005l-0.039,0.01l-0.039-0.01l-0.058-0.076l-0.002-0.057l0.052-0.05l0.008-0.057l-0.016-0.034l0.024-0.034l0.122-0.008l0.044,0.037l0.068-0.003l0.039-0.018l0.159,0.003l0.058-0.045l0.01-0.054l0.099-0.058l0.055-0.01l0.075-0.032l0.042-0.044l0.154-0.015l0.122,0.028h0.068l0.052-0.028l0.086-0.003l0.091,0.021l0.11,0.008l0.018-0.011l-0.052-0.018l-0.008-0.021l0.071-0.029l0.02-0.023v-0.037l0.029-0.026l0.044-0.015l0.063-0.045l0.122-0.013l0.037-0.018l0.026-0.039l0.055-0.018l0.075,0.029l0.055,0.002l0.042-0.029l0.049,0.008l0.044,0.047l0.013,0.086l-0.036,0.039l-0.047,0.011l-0.062,0.067l-0.011,0.05l0.026,0.036l0.05,0.021l0.028,0.021l0.063,0.005l0.091,0.058l0.021,0.026l0.042,0.013l0.086-0.047l0.06,0.005l0.031,0.055l0.12,0.117l0.044,0.12l0.044,0.05l0.013,0.049l0.068,0.057l0.005,0.039l-0.013,0.045l0.016,0.052l0.063,0.016l0.065-0.063h0.091l0.146,0.06l0.112,0.112l0.01,0.143l0.029,0.065l0.042,0.024l0.07-0.005l0.016,0.021l-0.019,0.046l0.008,0.11l0.055,0.055l0.216,0.044l0.024,0.029l0.039,0.002l0.086-0.083l0.047-0.167l-0.026-0.081l0.008-0.049l0.052-0.058l0.028-0.146l-0.021-0.065l-0.091-0.062l-0.01-0.068l0.023-0.086l-0.018-0.047l-0.091-0.044l-0.063-0.071l0.013-0.02l0.081,0.005l0.031-0.034l-0.005-0.055l-0.091-0.039l-0.016-0.036l0.016-0.042l-0.003-0.05l-0.028-0.041l0.007-0.084l0.05-0.034l0.003-0.044l-0.026-0.083l-0.066-0.055l-0.033-0.177l-0.037-0.058l-0.003-0.101l0.112-0.107l0.126-0.031l0.062-0.042l0.029-0.047v-0.036l-0.047-0.034v-0.039l0.039-0.024l-0.003-0.036l-0.08-0.039l-0.115-0.123l-0.128-0.104l-0.049-0.068l-0.162-0.073h-0.073l-0.044-0.005l-0.052-0.039l-0.068-0.021l-0.039,0.005l-0.065-0.015l-0.05-0.053l-0.057-0.013l-0.037,0.019l-0.026-0.006l-0.031-0.033l-0.091-0.021l-0.047,0.01l-0.169-0.016l-0.089-0.039l-0.102-0.078l-0.049-0.12l0.008-0.052l-0.032-0.041l-0.052-0.016l-0.049-0.037l-0.006-0.052l-0.018-0.031l-0.044-0.031l-0.005-0.037l0.041-0.013l0.019-0.049l-0.029-0.053l-0.129-0.077l-0.073,0.011l-0.062,0.073h-0.049l-0.048-0.032l-0.101-0.031l-0.104,0.004l-0.07-0.014l-0.045-0.039l-0.118-0.007l-0.066,0.039l-0.052-0.007l-0.018-0.025l0.042-0.048l0.115-0.025v-0.024l-0.066-0.024l-0.063,0.01l-0.028-0.01l-0.014-0.052l-0.069-0.073l-0.045-0.007l-0.014-0.025l0.045-0.069l0.118-0.052l0.014-0.052l-0.042-0.077l-0.09-0.062l-0.136-0.021l-0.055,0.017l-0.073-0.028l-0.087-0.093l-0.066-0.021l-0.064,0.022l-0.003,0.038l0.051,0.064l-0.021,0.025l-0.146-0.004l-0.047,0.073l-0.071,0.008l-0.068-0.036l-0.012-0.041l-0.024-0.062l-0.034-0.024l-0.031-0.129l0.008-0.05l-0.009-0.06l-0.099-0.123l-0.042-0.007l-0.048,0.024h-0.094l-0.216-0.052l-0.079-0.062l-0.07-0.004l-0.069,0.049l-0.063-0.014l-0.115-0.09l-0.08-0.011l-0.073,0.028l-0.1-0.038l-0.073-0.115l-0.084-0.038l-0.062-0.077l-0.042-0.003l-0.066,0.056l-0.177-0.007l-0.118,0.02l-0.066-0.013l-0.028-0.039l0.017-0.031l-0.014-0.052l-0.038-0.042l0.014-0.066l0.191-0.083l0.125,0.017l0.084,0.07l0.1,0.014l0.049-0.011l0.042,0.004l0.107,0.052l0.08-0.007l0.063-0.038l0.183-0.037l0.034-0.042l0.008-0.067l0.031-0.047l0.091-0.003l0.133,0.039l0.037-0.015l0.031-0.032l0.089-0.057l0.013-0.034l0.041-0.013l0.063,0.031l0.029-0.013l0.002-0.065l0.013-0.029l0.039-0.015l0.024-0.05l-0.013-0.044l0.039-0.073l0.055-0.023h0.054l0.032-0.019l0.013-0.057l-0.029-0.016l-0.081,0.008l-0.068,0.044l-0.08,0.042l-0.063,0.011l-0.036,0.028l-0.026-0.01l0.005-0.081l0.018-0.023l0.091-0.011l0.013-0.023l-0.023-0.045l0.002-0.028l0.026-0.026l-0.005-0.024l-0.028-0.005l-0.029-0.055l-0.003-0.07l-0.065-0.076l-0.057-0.015l-0.042,0.036l-0.042-0.008l-0.031-0.088l-0.005-0.078l-0.026-0.058l-0.06-0.028l-0.016-0.055l-0.034-0.005l-0.02,0.026l0.005,0.039l-0.029,0.06l-0.036,0.021l-0.029-0.021l-0.003-0.055l-0.112-0.237l-0.008-0.097l0.029-0.096l0.047-0.052l0.167-0.042l0.073,0.005l0.146-0.031l0.005-0.044l-0.037-0.071l0.024-0.057l0.055-0.042l0.151-0.002l0.07,0.041l0.016,0.073l0.044,0.029l0.128,0.013l0.049-0.008l0.167,0.034l0.12,0.094l0.094,0.143l-0.003,0.068l0.058,0.128l0.099,0.081l0.01,0.078l-0.039,0.096l-0.034,0.008l-0.073-0.042l-0.034,0.013l0.011,0.094l-0.026,0.021l-0.063-0.008l-0.063,0.029l-0.049,0.052l-0.065,0.037l-0.029-0.014v-0.033l0.047-0.039l0.013-0.063l-0.034-0.057l-0.028-0.008l-0.05,0.008l-0.039,0.039l-0.034,0.107l-0.034,0.046l0.005,0.034l0.076,0.032l0.034-0.008l0.068,0.002l0.049,0.016l0.029-0.005l0.034-0.029l0.049-0.005l0.039,0.013l0.024-0.008l0.021-0.031l0.07-0.018l0.047,0.007l0.067-0.017l0.003-0.024l-0.035-0.038l0.011-0.035l0.042-0.011l0.08,0.028l0.034-0.017l0.025-0.035l0.038-0.01l0.111-0.011l0.087-0.045l0.087-0.122l-0.004-0.055l-0.034-0.038l-0.08-0.188l-0.087-0.08l-0.042-0.066l-0.042-0.149l-0.08-0.101l-0.083-0.042l-0.101-0.115l-0.045-0.104l-0.288-0.302l-0.052-0.129l-0.199-0.149l-0.076-0.004l-0.042-0.027l-0.003-0.039l-0.035-0.024l-0.062-0.003l-0.157-0.098l-0.073-0.083l-0.094-0.219l-0.003-0.094l-0.042-0.142l-0.048-0.07l-0.042-0.139l-0.007-0.198l-0.035-0.048l-0.062-0.018l-0.101-0.073l-0.038-0.076l-0.119-0.087l-0.1-0.056l-0.08-0.212l0.003-0.073l-0.031-0.066l-0.136-0.107l-0.159-0.059l-0.108-0.091l-0.042-0.114l-0.062-0.098l-0.011-0.066l0.011-0.059l-0.018-0.108l-0.052-0.115l0.003-0.071l0.06-0.138l0.07-0.075l0.011-0.06l-0.014-0.05l0.032-0.146l0.112-0.224l0.133-0.206l-0.003-0.039l-0.102-0.041l-0.046-0.055l-0.045-0.193l-0.039-0.076l-0.002-0.065l0.031-0.036l0.12,0.002l0.065-0.018l0.021-0.06l-0.024-0.055l0.016-0.083l0.094-0.018l0.049,0.015l0.05,0.073h0.026l0.015-0.026h0.06l0.026-0.044l-0.02-0.042l0.013-0.088l0.039-0.05l0.114-0.023l0.037,0.01l0.044-0.005l0.177-0.102l0.024-0.054l-0.018-0.055l-0.042-0.026v-0.026l0.096-0.024l0.071-0.052l0.049,0.016l0.016,0.029l0.031,0.002l0.034-0.008l0.042,0.024l0.041,0.041v0.11l-0.028,0.036l0.005,0.045l0.122,0.096l0.011,0.063l-0.052,0.073l-0.164,0.078l-0.175,0.021l-0.104-0.021l-0.084,0.021l-0.013,0.06l0.034,0.062l0.094,0.021l0.05,0.083l0.002,0.071l0.034,0.047l0.055,0.021l0.036,0.106l-0.023,0.071l0.021,0.015l0.06-0.015h0.122l0.13,0.052l0.125,0.125l0.008,0.06l0.042,0.034l0.203,0.06l0.157,0.081l0.031,0.044l0.068,0.023l0.067,0.006l0.042,0.015l0.034,0.037l0.154,0.044l0.088,0.008l0.178,0.073l0.057,0.12l0.013,0.106l-0.008,0.086l-0.026,0.042v0.044l0.023,0.029l-0.002,0.039l-0.047,0.12l0.031,0.073l0.052,0.029l0.042,0.062l0.008,0.063l0.146,0.19l-0.005,0.06l-0.047,0.052l-0.032,0.076l0.024,0.005l0.068-0.021l0.086,0.008l0.041-0.008l0.06-0.034l0.097,0.003l0.125,0.039l0.109,0.065l0.086,0.042l0.089,0.005l0.049,0.026l0.021,0.023l0.034,0.014h0.047l0.13,0.023l0.094-0.013l0.076,0.01l0.039,0.021l0.055,0.003l0.036-0.026l0.057,0.002l0.016-0.026l-0.013-0.041l-0.036-0.011l-0.076,0.013l-0.063-0.013l-0.049-0.047l-0.003-0.044l-0.041-0.104l-0.04-0.024l-0.049,0.003l-0.094-0.016l-0.029-0.023l-0.065-0.029l-0.073-0.01l-0.174-0.071l-0.157-0.104l-0.114-0.109l-0.092-0.191l-0.065-0.091l-0.088-0.044l-0.071-0.013l-0.07-0.081l-0.018-0.068l-0.058-0.117l0.008-0.073l0.068-0.125l0.091-0.099l0.063-0.024h0.078l0.154,0.058l0.088,0.008l0.076,0.026l0.083,0.075l0.063,0.021l0.026-0.016l0.088,0.027l0.029,0.02l0.057,0.006l0.06-0.013l0.128,0.01l0.078,0.063l0.024,0.054l0.036,0.029l0.052,0.005l0.081,0.078l0.039,0.11l0.039,0.047l0.081,0.052l0.026,0.055l0.003,0.052l0.031,0.036l0.031,0.018l0.008,0.076l-0.013,0.055l0.018,0.028l0.037,0.008l0.036,0.037l0.013,0.065l0.053,0.026l0.057,0.002l0.094,0.055l0.007,0.042l0.027,0.021l0.039,0.005l0.036,0.076l-0.005,0.049l0.016,0.026l0.062,0.011l0.083,0.075h0.037l0.013-0.026l0.034-0.013l0.086-0.01l0.002-0.026l-0.057-0.029l0.003-0.021h0.052l0.044-0.023l0.003-0.024l-0.031-0.023l0.005-0.034l0.101-0.078l-0.005-0.094l-0.031-0.024l-0.047,0.006l-0.026-0.027l0.018-0.046l0.031-0.034l-0.007-0.047l-0.055-0.037l-0.024-0.088l0.016-0.042l-0.005-0.055l-0.039-0.031l-0.063-0.008l-0.07-0.034l-0.031-0.06l-0.068-0.041l-0.073-0.013l-0.13-0.055l-0.079-0.011l-0.073-0.039l-0.057-0.013l-0.047,0.006l-0.057-0.027l-0.047-0.067l-0.011-0.06l-0.052-0.055l-0.028-0.008l-0.021-0.018l-0.003-0.034l-0.028-0.034l-0.045-0.028l-0.044-0.084l-0.013-0.057l0.036-0.13l0.029-0.029l0.055-0.008l0.015-0.018l-0.005-0.029l0.024-0.034l0.039-0.002l0.075,0.023l0.058,0.039l0.031-0.005l0.021-0.037l0.086-0.059l0.099-0.037l0.088,0.003l0.063,0.036h0.047l0.031-0.015l0.073,0.013l0.13,0.065l0.084,0.107l0.164,0.119l0.063,0.013l0.052-0.01l0.067,0.013l0.042,0.024l0.037,0.002l0.023-0.018l0.156,0.018l0.073,0.044l0.027,0.06l0.148,0.157l0.026,0.054l-0.01,0.073l0.036,0.042l0.071,0.013l0.099,0.078l0.067,0.118v0.062l0.039,0.037l0.037,0.007l0.052-0.031l0.117-0.01l0.123-0.063l0.021-0.06l-0.032-0.125l-0.052-0.057l-0.073-0.021l-0.047-0.026l-0.026-0.042l-0.054-0.057l-0.107-0.063l-0.039-0.041l-0.006-0.052l-0.054-0.094l-0.05-0.055l-0.002-0.039l-0.045-0.042l-0.049-0.015l-0.073,0.015l-0.045-0.023l-0.015-0.045l0.008-0.039l-0.016-0.028l-0.07-0.029l-0.052,0.01l-0.06-0.01l-0.047-0.023l-0.209-0.055l-0.125-0.12l-0.044-0.076l-0.016-0.086l-0.044-0.049l-0.026-0.003l-0.018,0.05l0.044,0.182l-0.024,0.037l-0.099,0.031l-0.151-0.01l-0.148-0.058l-0.086-0.081l-0.079-0.119l-0.049-0.032l-0.042-0.112l-0.002-0.13l0.026-0.06l0.052-0.021h0.154l0.057-0.01l0.042-0.029l0.002-0.023l-0.062-0.053l-0.024-0.052l-0.028-0.005l-0.024,0.018l-0.029-0.002l-0.031-0.021l-0.042-0.003l-0.036,0.008l-0.034-0.018l-0.021-0.057l-0.034-0.027l-0.052-0.013l-0.067-0.057l-0.019-0.073l-0.096-0.115l-0.026-0.057l-0.045-0.031l-0.091-0.021l-0.039-0.042v-0.07l0.021-0.081l0.102-0.169l0.036-0.026l0.055-0.006l0.057-0.026l0.05-0.049l0.143-0.034l0.063-0.034h0.039l0.054,0.016l0.196,0.125l0.221,0.073l0.157,0.031l0.125,0.042l0.122-0.003l0.073-0.041l0.062-0.022l0.061-0.007l0.078-0.038l0.083-0.08l0.091-0.049l0.053-0.005l0.041-0.026l0.027-0.042l0.15-0.083l0.136-0.032l0.058-0.033v-0.021l-0.058-0.013l-0.031-0.026l0.008-0.024l0.117-0.013l0.003-0.026l-0.077-0.08l0.004-0.045l0.062-0.063l0.129-0.069l0.041-0.045l0.143-0.073l0.16-0.059l0.156-0.028l0.139,0.007l0.045,0.052l0.011,0.049l0.069,0.107l0.08,0.052l0.045,0.06l0.035,0.1l0.035,0.004l0.045-0.032l0.083-0.017l0.07,0.031l0.042,0.049l0.076,0.007l0.125-0.035h0.073l0.111,0.052l0.042-0.01l0.031-0.063l0.157-0.149l0.184-0.122l0.121-0.038l0.07,0.007l0.038-0.014l0.07-0.125l0.055-0.028l0.125-0.135l0.146-0.021l0.122,0.01l0.08,0.073l-0.025,0.084l0.014,0.045l0.073,0.01l0.101,0.056l0.167,0.014l0.122,0.055l0.055-0.01l0.104-0.061l0.063-0.01l0.134,0.021l0.052,0.036l0.042,0.07l0.064,0.036l0.187,0.03l0.197,0.071l0.041,0.036l0.16,0.072l0.07,0.001l0.052-0.031l0.057-0.003l0.165,0.022l0.228,0.066l0.172,0.002l0.101-0.019l0.099,0.002l0.156,0.02l0.07,0.026l0.09,0.004l0.054-0.024l0.08,0.001l0.187,0.066l0.051,0.058l0.031,0.017l0.041-0.017l0.016-0.033l0.028-0.014l0.057,0.017l0.022,0.03l-0.007,0.028l-0.044,0.019l-0.055,0.003l-0.042,0.022l0.007,0.026h0.043l0.028,0.018l0.045,0.07l0.01,0.102l-0.02,0.071l0.003,0.025L738.008,290.673z"/>
</svg>
