<svg xmlns="http://www.w3.org/2000/svg" viewBox="537.241 684.857 6.771 16.939">
  <path d="M537.241,686.888l0.035-0.048h0.055l0.021,0.048l-0.062,0.028L537.241,686.888z M539.14,685l0.031,0.055h0.048l0.024-0.042l0.062-0.024l0.007-0.059l-0.066-0.066l-0.076-0.007l-0.031,0.035l-0.038,0.017l-0.003,0.059L539.14,685z M540.484,687.159l0.18,0.014l0.132-0.069l0.014-0.083l-0.139-0.076l-0.173-0.007l-0.118,0.076l0.014,0.111L540.484,687.159z M541.968,689.225l0.073,0.01l0.021-0.047l-0.042-0.052l-0.078-0.005l-0.021,0.052L541.968,689.225z M542.291,689.043l0.005,0.062l0.052,0.042h0.073l0.057-0.016l-0.005-0.073l-0.057-0.073l-0.104-0.036l-0.078,0.005l-0.005,0.047L542.291,689.043z M543.091,692.915l0.151,0.016l0.187-0.031l0.14-0.073l-0.021-0.031l-0.109-0.021l-0.114-0.09l-0.007-0.062l-0.024-0.028l-0.109-0.038l-0.068,0.021l-0.036,0.088l-0.078,0.068v0.104L543.091,692.915z M543.235,696.325l0.111,0.09l0.125,0.014l0.104,0.069l0.076,0.021l0.062-0.028l0.118,0.014l0.139,0.088l0.042-0.031l-0.007-0.099l-0.055-0.073l-0.005-0.109l0.033-0.074l-0.007-0.125l-0.09-0.083l-0.222-0.021l-0.111,0.035l-0.187,0.007l-0.104,0.055l-0.035,0.125L543.235,696.325z M543.6,695.911l0.034-0.016l-0.01-0.031h-0.055l-0.018,0.031L543.6,695.911z M543.751,695.908l0.042-0.008l-0.013-0.026l-0.034-0.005l-0.018,0.023L543.751,695.908z M542.854,699.423l0.118,0.132l0.139,0.007l0.236-0.139l0.028-0.09l-0.048-0.055l-0.222-0.132l-0.055-0.076h-0.076l-0.097,0.09l-0.09,0.007l-0.097,0.083l0.007,0.09L542.854,699.423z M542.589,699.361l0.018-0.021l-0.023-0.026l-0.036,0.005v0.039L542.589,699.361z M542.473,699.369l0.018-0.042l-0.013-0.029l-0.034,0.016l-0.005,0.06L542.473,699.369z M542.298,699.416l0.044-0.003l0.016-0.021l-0.031-0.023h-0.036l-0.013,0.034L542.298,699.416z M542.389,699.491l0.016-0.021l0.003-0.023l-0.023-0.01l-0.023,0.01l0.003,0.031L542.389,699.491z M542.467,699.486l0.026-0.023l-0.018-0.023l-0.023,0.013l-0.008,0.029L542.467,699.486z M540.981,701.567l0.052-0.005l0.036-0.036l-0.016-0.047l-0.052-0.005l-0.047,0.057L540.981,701.567z M540.576,701.759l0.135,0.036l0.099-0.042l0.031-0.099l-0.057-0.062l-0.239-0.036l-0.078,0.047l-0.036,0.104l0.021,0.042L540.576,701.759z M539.9,701.754l0.172,0.036l0.062-0.01l0.083,0.016l0.01-0.026l-0.094-0.036l-0.073-0.047l0.01-0.083l0.057-0.036v-0.042l-0.125-0.01l-0.182,0.109l-0.01,0.083L539.9,701.754z"/>
</svg>
