<svg xmlns="http://www.w3.org/2000/svg" viewBox="499.616 672.793 9.204 4.766">
  <path d="M499.735477,673.046089l0.073351,-0.025489l-0.013972,-0.047336h-0.136224l-0.041915,0.043695l0.010479,0.021847l0.10828,0.007282Z M500.231471,673.046089l-0.006986,-0.065542l0.146702,-0.043695l0.08383,0.021847l-0.041915,0.05826l-0.118759,0.02913h-0.062872Z M504.283254,675.412893l0.02445,-0.014565l0.027943,0.014565l-0.013972,0.025489l-0.027943,0.003641l-0.010479,-0.02913Z M503.801232,675.471153l0.020957,-0.061901l0.08383,-0.025489l0.109154,0.039143l0.078591,0.051888l0.047154,0.06008l-0.025324,0.020027l-0.132731,0.021847l-0.048901,0.02913l-0.023577,-0.021847l0.030563,-0.043695l-0.046281,-0.035502l-0.048028,-0.008193l-0.045408,-0.025489Z M505.097104,676.239454l0.020957,-0.019116l0.036676,0.008193l0.00262,0.021847l-0.026197,0.002731l-0.034056,-0.013655Z M505.154737,676.187567l0.020957,-0.002731l0.020957,0.019116l-0.010479,0.019116l-0.028817,-0.013655l-0.00262,-0.021847Z M508.687822,677.127916l0.031436,-0.043695l0.080337,0.003641l0.020957,0.050977l-0.020957,0.072825h-0.090816v-0.043695l-0.020957,-0.040054Z M502.9542,673.087963l0.047154,-0.043695h0.052394v0.06008l-0.057633,0.016386l-0.041915,-0.032771Z M503.247605,673.104348l0.047154,-0.065542h0.047154l-0.031436,0.076466l-0.041915,0.021847l-0.020957,-0.032771Z M501.392866,673.683305l0.036676,-0.032771l0.062872,-0.005462v0.043695l-0.052394,0.021847l-0.047154,-0.027309Z M499.857729,672.967802l0.020957,-0.032771l0.057633,0.005462l0.020957,0.038233l-0.052394,0.016386l-0.047154,-0.027309Z M502.356911,672.820332l0.047154,-0.027309l0.041915,0.005462l-0.015718,0.038233l-0.047154,0.010924l-0.026197,-0.027309Z M503.87109,674.630027l-0.019211,-0.049157l0.062872,-0.040054l-0.010479,-0.047336l0.027943,-0.069184l-0.020957,-0.020027l-0.043661,0.001821l-0.041915,-0.018206l-0.064619,0.014565l-0.036676,-0.021847l-0.008732,-0.027309l-0.050647,-0.023668l-0.050647,0.014565l-0.130984,-0.021847l-0.022704,-0.02913l0.026197,-0.010924l0.005239,-0.021847l-0.050647,-0.034592l0.005239,-0.056439l-0.033183,-0.032771l-0.043661,0.010924l-0.019211,0.063722l-0.02445,0.003641l-0.008732,-0.023668h-0.02969l-0.062872,0.103775l-0.106534,0.05826l-0.139717,0.007282l-0.073351,0.043695l-0.015718,-0.020027l0.02445,-0.038233l-0.010479,-0.016386h-0.082084l-0.096055,0.020027l-0.036676,-0.014565l0.005239,-0.074645l0.041915,-0.032771l0.258476,-0.027309l0.013972,-0.027309l0.08383,-0.027309l-0.012225,-0.018206l-0.045408,-0.003641l-0.055887,-0.036412l-0.082084,-0.025489l-0.087323,-0.016386l-0.050647,-0.018206l-0.052394,-0.098313l-0.001746,-0.021847l0.043661,-0.010924l0.022704,-0.025489l0.164167,-0.021847l0.16766,-0.023668l0.043661,-0.021847l0.141463,-0.016386l0.122252,0.018206l0.001746,-0.027309l-0.052394,-0.041874l-0.157181,-0.038233l-0.061126,0.001821l-0.078591,0.016386l-0.11352,-0.001821l-0.185125,0.027309l-0.127491,-0.014565l-0.022704,-0.02913l-0.036676,-0.010924h-0.031436l-0.080337,-0.032771l-0.001746,-0.034592l-0.02445,-0.007282l-0.015718,0.020027l-0.027943,0.010924l-0.033183,-0.038233l-0.040169,0.007282l-0.006986,0.018206l0.040169,0.007282l0.012225,0.025489l-0.017465,0.018206l-0.104787,0.003641l-0.02969,-0.016386v-0.030951l-0.052394,-0.038233l-0.019211,0.016386l0.022704,0.052798l-0.017465,0.018206v0.036412l0.05414,0.012744l0.026197,0.025489l-0.003493,0.050977l-0.071605,0.041874l-0.16766,0.040054l-0.082084,0.001821l-0.085576,-0.02913l-0.075098,0.001821l-0.045408,-0.018206l-0.008732,-0.045515l0.052394,-0.032771l-0.015718,-0.014565l-0.045408,0.001821l-0.057633,-0.034592l-0.090816,-0.027309l0.008732,-0.025489l0.055887,-0.005462l0.036676,-0.02913l0.073351,-0.020027l0.057633,-0.041874l0.061126,-0.007282l0.013972,-0.018206l-0.05414,-0.056439l-0.050647,-0.003641l-0.034929,0.038233l-0.104787,0.001821l-0.050647,-0.049157l0.015718,-0.034592l0.129238,-0.091031l0.139717,-0.009103l0.027943,-0.050977l0.123999,-0.065542l-0.003493,-0.034592l-0.026197,-0.009103l-0.075098,0.020027l-0.10828,0.005462l-0.026197,-0.016386l0.015718,-0.049157l-0.02445,-0.020027l-0.082084,0.021847l-0.050647,0.045515l-0.104787,0.023668l-0.040169,0.023668l-0.127491,-0.025489l-0.05414,0.02913l-0.069858,-0.012744l-0.020957,-0.021847l0.034929,-0.054619l-0.031436,-0.010924l-0.155435,0.111058l-0.076844,-0.014565l-0.078591,0.012744l-0.087323,-0.061901l-0.11352,-0.040054l-0.064619,0.049157l-0.040169,0.091031l-0.071605,0.025489l-0.040169,-0.041874l0.003493,-0.063722l0.045408,-0.063722l0.006986,-0.050977l-0.045408,-0.061901l0.020957,-0.02913l0.129238,0.054619l0.034929,-0.010924l0.055887,-0.069184l0.19211,-0.021847l0.181632,0.05826l0.034929,0.050977l0.139717,-0.010924l0.153688,-0.047336l0.052394,-0.076466l0.003493,-0.069184l0.087323,-0.018206l0.045408,0.054619l0.080337,-0.007282l0.031436,0.043695l-0.031436,0.072825l0.031436,0.032771l0.115266,-0.040054l0.247997,0.021847l0.066365,0.040054l0.206082,0.003641l0.136224,-0.05826l0.031436,-0.076466l0.041915,-0.007282l0.048901,0.036412l0.041915,-0.014565l0.027943,-0.065542l0.094309,-0.003641l0.076844,0.025489l0.013972,0.047336l-0.080337,0.054619l-0.087323,-0.014565l-0.115266,0.021847l-0.031436,0.040054l0.038422,0.050977l-0.020957,0.083748l-0.146702,0.040054l-0.027943,0.050977l0.282926,0.018206l0.199096,-0.036412l0.062872,-0.054619l0.076844,0.014565l0.041915,0.040054h0.129238l0.055887,-0.021847l0.02445,0.02913l-0.006986,0.036412l0.055887,0.043695l0.003493,0.069184h0.038422l0.048901,-0.08739l-0.013972,-0.072825l0.041915,-0.025489l0.090816,0.069184l0.041915,-0.007282l-0.006986,-0.054619l0.041915,-0.05826h0.14321l0.013972,0.036412l-0.073351,0.054619l0.02445,0.040054l0.08383,-0.018206l0.031436,0.014565l-0.048901,0.047336l-0.087323,0.02913l-0.010479,0.091031l0.02445,0.065542l-0.045408,0.05826l0.02445,0.02913l0.101295,-0.025489l0.122252,-0.185703l0.171153,-0.112878l0.136224,0.007282l0.052394,-0.069184l0.062872,0.010924v0.08739l0.020957,0.036412l-0.034929,0.047336l-0.118759,0.05826l-0.090816,0.072825l-0.038422,0.091031l0.048901,0.021847l0.073351,-0.025489l0.08383,-0.094672l0.146702,-0.054619l0.080337,-0.120161l0.146702,-0.010924l0.080337,0.036412l0.090816,-0.007282l0.129238,0.050977l0.017465,0.076466l-0.045408,0.112878l0.017465,0.08739l0.055887,0.025489l0.055887,-0.018206l0.017465,-0.11652l-0.02445,-0.065542l0.041915,-0.036412l0.188617,0.003641l0.300391,0.072825l0.041915,0.047336l-0.045408,0.061901l-0.10828,-0.010924l-0.041915,0.040054l-0.066365,0.018206l-0.02445,0.040054l0.10828,0.018206l0.110027,0.003641l-0.018338,0.021847l-0.16766,0.03004l-0.018338,0.032771l0.102168,0.043695l0.08121,-0.005462l0.193857,-0.103775l0.185998,-0.032771l0.044535,0.024578l0.047154,0.071004l0.102168,0.008193l0.041915,0.024578l0.013098,0.043695l-0.052394,0.008193l-0.104787,-0.040964h-0.039295l0.00262,0.035502l-0.047154,0.016386l-0.08383,-0.038233l-0.044535,0.019116l0.015718,0.057349l-0.047154,0.057349l-0.041915,-0.010924l-0.026197,0.013655l0.005239,0.046426l-0.065492,0.054619l-0.08645,0.008193l-0.199096,-0.040964l-0.149322,-0.051888l-0.08645,-0.010924l-0.162421,0.076466l-0.013098,0.038233l0.031436,0.035502l0.062872,-0.010924l0.070732,-0.040964l0.136224,0.016386l0.023577,0.016386l0.005239,0.043695l0.020957,0.010924l0.013098,-0.032771h0.055013l0.08383,0.032771l0.015718,0.027309l0.08383,0.040964l-0.005239,0.027309l-0.068112,0.038233l-0.075971,0.090121l0.028817,0.016386l0.057633,-0.024578l0.044535,-0.062811l0.08383,-0.051888l0.034056,0.002731l0.010479,0.032771h0.047154l0.047154,-0.065542l0.123125,-0.08739l0.047154,-0.002731l0.102168,-0.065542l0.049774,0.005462l0.013098,0.046426l0.028817,0.005462l0.055013,-0.046426l0.065492,0.03004l0.005239,0.120161l-0.020957,0.049157h-0.089069l-0.015718,0.024578l0.062872,0.021847l0.020957,0.06008l-0.047154,0.046426l-0.007859,0.065542l0.015718,0.057349l-0.060253,0.161125l0.020957,0.035502l0.073351,-0.06008l0.128365,-0.223936l0.08121,0.005462l0.023577,0.065542l0.096928,0.120161l0.007859,0.046426l-0.010479,0.062811l0.094309,0.038233l0.052394,0.043695l0.028817,-0.008193l-0.005239,-0.076466l0.023577,-0.08739l0.031436,-0.027309l-0.00262,-0.035502l-0.052394,-0.051888l-0.018338,-0.079197l-0.034056,-0.062811l-0.123125,-0.120161l-0.007859,-0.125623l-0.031436,-0.065542l0.020957,-0.024578l0.065492,0.062811l0.115266,0.040964l0.044535,-0.013655l0.041915,0.019116l0.005239,0.035502l0.047154,0.005462l0.031436,-0.032771l0.041915,0.016386v0.068273l-0.039295,0.06008l0.034056,0.027309l0.068112,-0.043695l0.036676,-0.002731l0.044535,-0.027309l0.013098,0.019116l-0.028817,0.040964l0.013098,0.101044l0.057633,0.024578l0.00262,0.046426l-0.023577,0.027309l0.005239,0.054619l0.036676,0.008193l0.055013,-0.016386l0.018338,0.032771l-0.070732,0.084659l-0.073351,0.054619l-0.020957,0.054619l0.020957,0.013655l0.172899,-0.043695l0.094309,0.019116l0.089069,-0.051888l0.00262,0.021847l-0.044535,0.049157l-0.047154,0.024578l0.023577,0.057349l0.044535,0.024578l-0.010479,0.038233l-0.044535,0.054619l-0.018338,0.051888l0.073351,0.08739l0.16504,0.049157l0.068112,-0.016386l0.141463,0.043695h0.055013l0.018338,0.021847l-0.005239,0.06008l0.062872,0.068273l0.073351,0.03004l-0.013098,0.03004l-0.060253,0.005462l-0.060253,0.038233l-0.128365,-0.005462l-0.018338,0.027309l0.023577,0.043695l-0.020957,0.032771l-0.044535,0.002731l-0.047154,0.051888l-0.08645,0.002731l-0.023577,0.032771v0.049157l0.075971,0.024578l0.00262,0.051888l-0.031436,0.071004l0.005239,0.095582l0.026197,0.002731l0.015718,-0.079197l0.068112,-0.106506l0.125745,-0.038233l0.096928,0.002731l0.049774,-0.019116l0.078591,0.049157v0.065542l0.026197,0.024578l0.044535,-0.076466l0.091689,-0.03004l0.060253,-0.049157l0.096928,-0.051888l0.015718,-0.035502l0.047154,-0.002731l0.026197,0.049157l-0.044535,0.051888l-0.028817,0.111968l-0.070732,0.109237l0.007859,0.038233l-0.023577,0.027309l-0.099548,0.016386l-0.015718,0.03004l0.089069,0.038233l0.055013,0.079197l0.036676,0.226667l-0.034056,0.019116l-0.047154,-0.016386l-0.08383,0.010924l-0.089069,-0.038233l-0.005239,0.03004l0.078591,0.049157l0.107407,0.024578l0.036676,0.03004l-0.020957,0.021847l-0.08121,-0.002731l-0.123125,-0.046426l-0.034056,0.010924l0.094309,0.08739l0.112647,0.043695l0.068112,-0.016386l0.047154,-0.035502l0.125745,0.027309l0.057633,0.038233l0.007859,0.046426l0.099548,0.054619l0.104787,-0.008193l0.034056,0.049157l-0.036676,0.092852l-0.075971,0.06008l-0.136224,0.010924l-0.151942,-0.035502l-0.044535,0.035502l0.010479,0.054619l-0.047154,0.03004l-0.157181,-0.005462l-0.175519,-0.054619l-0.314362,-0.158394l-0.08383,-0.062811l-0.039295,0.005462l0.065492,0.095582l0.185998,0.079197l0.133604,0.11743l0.217434,0.076466l0.102168,0.079197l-0.010479,0.054619l-0.08121,0.03004l-0.036676,0.073735h-0.062872l-0.031436,-0.035502l-0.041915,0.005462l-0.026197,0.032771l-0.052394,0.002731l-0.013098,-0.065542l-0.039295,-0.005462l-0.015718,0.068273l-0.057633,0.03004l-0.110027,0.027309l-0.130984,-0.068273l-0.00262,-0.120161l-0.115266,-0.120161l-0.178139,-0.065542l-0.183378,-0.131085l0.013098,-0.08739l-0.028817,-0.027309l-0.049774,-0.019116l-0.123125,-0.103775l-0.004366,-0.083748l-0.087323,-0.254887l0.069858,-0.08739l-0.034929,-0.043695l-0.185125,-0.050977l-0.16766,-0.203909l0.013972,-0.047336l-0.038422,-0.047336l-0.241011,-0.109237l-0.013972,-0.076466l0.08383,-0.043695l0.031436,-0.076466l-0.052394,-0.02913l-0.132731,-0.010924l-0.017465,-0.032771l0.087323,-0.02913l-0.031436,-0.02913l-0.174646,-0.007282l-0.199096,0.018206l-0.087323,0.061901l-0.122252,-0.069184l0.006986,-0.069184l0.062872,-0.02913l-0.020957,-0.036412l-0.094309,0.018206l-0.034929,0.032771l-0.199096,-0.072825l-0.115266,-0.072825l-0.14321,-0.003641l-0.045408,-0.043695l0.052394,-0.142008l0.10828,-0.032771l-0.010479,-0.043695l-0.209575,-0.021847l-0.062872,-0.050977l0.017465,-0.043695l-0.031436,-0.014565l-0.10828,0.025489l-0.062872,-0.054619l0.003493,-0.069184l0.076844,-0.040054h0.090816l0.010479,-0.02913l-0.164167,-0.025489l-0.073351,-0.040054h-0.08383l-0.052394,0.083748l-0.139717,0.032771l-0.185125,-0.069184l-0.230532,-0.123802Z M507.955182,675.573108l0.010479,-0.024578l0.034056,0.002731l0.007859,0.019116l-0.023577,0.008193l-0.028817,-0.005462Z M502.631105,673.810749l0.015718,-0.010924l0.055887,0.009103l0.008732,0.016386h-0.045408l-0.034929,-0.014565Z "/>
</svg>
