<svg xmlns="http://www.w3.org/2000/svg" viewBox="1177.584 399.606 1.363 1.695">
  <path d="M1177.683,401.301l0.009-0.018l0.051-0.02l-0.005,0.014l-0.034,0.02L1177.683,401.301z M1178.502,399.665l-0.04,0.055l-0.008,0.063l0.004,0.052l-0.003,0.034l-0.018,0.02l-0.001,0.019l-0.007,0.013l-0.017,0.006l-0.03,0.055l-0.025,0.023l-0.005,0.026l-0.03,0.038l-0.007,0.022l0.014,0.064l-0.014,0.037l-0.035,0.014l-0.034-0.009l-0.035,0.001l-0.014,0.009l-0.008,0.033l0.018,0.013l0.003,0.027l-0.035,0.033l-0.043,0.006l-0.004-0.013l-0.009-0.003l-0.014,0.012l-0.04-0.005l-0.052,0.003l-0.039,0.02l-0.023-0.006l-0.012,0.001l-0.005,0.02l-0.052,0.018l-0.026-0.009l-0.03,0.013l-0.035,0.001l-0.027-0.008l-0.101,0.003l-0.059,0.04h0.012l0.051-0.029l0.082-0.003l0.014,0.01l0.052,0.003l0.025-0.009l0.013,0.001l-0.009,0.017l-0.056,0.001l-0.01,0.013l0.027,0.008l0.014-0.013l0.018,0.001l0.005,0.042l-0.016,0.009l-0.02-0.01l-0.024,0.009l-0.001,0.023l0.013-0.001l0.016,0.006l0.006,0.026l-0.012,0.015l-0.009,0.029l-0.014,0.001l-0.02-0.028l-0.005-0.037l0.014-0.015l-0.001-0.017l-0.037-0.006l-0.055,0.011l-0.042-0.019l-0.034-0.009l-0.017,0.011l0.014,0.029l0.065,0.033l0.004,0.033l0.03,0.024l0.029,0.003l0.021,0.015l0.009,0.041l-0.008,0.037l-0.021,0.02l-0.016,0.029l0.003,0.026l-0.04,0.102l-0.02,0.018l-0.004,0.012l0.038,0.014l0.025,0.033v0.024l0.006,0.017l0.017,0.004l0.004,0.012l-0.022,0.004l0.007,0.026l0.018,0.004l-0.005,0.01l0.001,0.017l0.016,0.001l0.005,0.009l-0.014,0.01l-0.004,0.017l0.02,0.055l-0.008,0.023l0.016,0.018l0.026,0.017l0.009,0.02l0.027,0.017l0.013-0.008l0.012,0.001l0.004,0.017l0.042,0.015l0.051,0.006l0.018-0.017l0.016-0.003l0.003,0.017l0.024,0.003l0.003-0.015l0.02-0.013l0.027-0.037l0.021-0.01l-0.004-0.01l-0.017,0.001l0.003-0.008l0.03-0.005l0.017-0.013l-0.01-0.013l0.005-0.01l0.014,0.01h0.012l0.027-0.036l0.003-0.015l0.008-0.015l0.015-0.008l0.013-0.039l-0.004-0.045l0.005-0.019l-0.002-0.051l-0.009-0.01l-0.021,0l-0.007-0.01l0.009-0.006l0.025,0.004l0.006-0.013l-0.004-0.083l-0.006-0.01v-0.018l0.012-0.013l0.009-0.063l-0.013-0.011l0.003-0.017l0.025-0.015l0.02-0.043l0.018-0.009l0.003-0.017l-0.017-0.014l0.012-0.023l0.027-0.005l0.043,0.001l0.016-0.012l0.003-0.018l0.029-0.029l0.04-0.008l0.059-0.069l0.047-0.02l0.084-0.093l0.042-0.011l0.028-0.019l0.004-0.037l0.035-0.024l0.084-0.033l0.02-0.019l0.055-0.112l-0.008-0.032l0.009-0.032l0.031-0.022l0.013-0.051l0.02-0.055l-0.018-0.017l-0.093,0.003l-0.074-0.012l-0.018-0.019l-0.008-0.029l-0.123-0.135l-0.055-0.014l-0.037,0.024L1178.502,399.665z M1177.798,401.281l0.024-0.005l-0.007-0.006l-0.017-0.001l-0.01,0.008L1177.798,401.281z M1177.644,400.799l0.003,0.009l0.013-0.006v-0.01l-0.009,0.001L1177.644,400.799z M1177.632,400.871l0.007-0.005v-0.008h-0.009l-0.003,0.006L1177.632,400.871z M1177.689,400.714l0.009-0.008l-0.001-0.008h-0.008l-0.005,0.009L1177.689,400.714z"/>
</svg>
