<svg xmlns="http://www.w3.org/2000/svg" viewBox="1063.436 365.572 2.245 1.589">
  <path d="M1064.324,366.38l0.024-0.022l0.054-0.006l0.025,0.017l0.032,0.104l-0.012,0.017l-0.068,0.006l-0.019-0.022l0.004-0.026l-0.022-0.036l-0.014-0.014L1064.324,366.38L1064.324,366.38z M1063.651,366.51l0.011,0.025l-0.036,0.018l0.001,0.017l0.014,0.004l0.005,0.021l-0.008,0.019l0.008,0.01l0.073-0.006l0.044,0.015l0.017-0.001l0.014-0.011l0.012-0.036v-0.026l0.011-0.032l-0.007-0.017l-0.062-0.022l-0.018-0.022l-0.019-0.003l-0.143,0.051l0.008,0.018L1063.651,366.51L1063.651,366.51z M1063.855,366.556l0.019,0.003l0.008-0.026l-0.014-0.015l-0.026-0.003l-0.01,0.015l0.004,0.018L1063.855,366.556L1063.855,366.556z M1064.148,366.78l0.019,0.018l0.012,0.025l0.015,0.003l0.003-0.014l-0.007-0.037l-0.015-0.011l-0.043,0.003l-0.001,0.011L1064.148,366.78L1064.148,366.78z M1064.116,367.007l0.021-0.017l0.035-0.008l0.003-0.017l-0.025-0.01l-0.008-0.017l0.012-0.024l-0.005-0.012l-0.025,0.008l-0.007,0.028l0.008,0.017v0.012l-0.029,0.022v0.014L1064.116,367.007L1064.116,367.007z M1065.108,365.634l0.001,0.017l-0.019,0.015l0.007,0.012l0.042,0.001l0.01-0.012l-0.019-0.024l0.004-0.017l0.047-0.008l0.003-0.01l-0.04,0.001l-0.022-0.014l-0.018,0.001l-0.008,0.01L1065.108,365.634L1065.108,365.634z M1065.617,365.638l0.012,0.025l0.023,0.01l0.029-0.004l-0.006-0.012l-0.024-0.006l-0.012-0.015l-0.001-0.019l-0.015-0.003L1065.617,365.638L1065.617,365.638z M1065.386,365.911l-0.01-0.037l-0.015-0.007l-0.017,0.011v0.029l0.014,0.035l0.015-0.003L1065.386,365.911L1065.386,365.911z M1065.155,366.391l0.008,0.024l0.042,0.011l0.017-0.003l0.014-0.022l0.001-0.026l-0.026-0.025l-0.015-0.051l-0.023-0.004l-0.015,0.03l0.005,0.036L1065.155,366.391L1065.155,366.391z M1065.073,366.787l-0.007,0.024l0.011,0.017l0.032,0.001l0.015-0.017l0.001-0.036l-0.018-0.01L1065.073,366.787L1065.073,366.787z M1064.984,367.151l0.024-0.01l0.024,0.003l0.012-0.011l-0.018-0.048l-0.024-0.004l-0.037,0.024l-0.007,0.035L1064.984,367.151L1064.984,367.151z M1063.979,367.034l0.024,0.001l0.007-0.01l-0.021-0.029l-0.014-0.003l-0.015,0.011l0.001,0.018L1063.979,367.034L1063.979,367.034z M1063.696,367.077h0.029l-0.001-0.011l-0.032-0.014l-0.015-0.001l-0.007,0.011L1063.696,367.077L1063.696,367.077z M1063.668,367.161l0.026-0.003l0.015-0.014l0.003-0.032l-0.012,0.001l-0.008,0.017l-0.014,0.01l-0.019,0.001l-0.007,0.014L1063.668,367.161L1063.668,367.161z M1063.625,366.681l-0.036,0.035l-0.033,0.007l-0.021,0.022l-0.047,0.017l-0.003,0.019l0.022,0.008v0.021l-0.022,0.006l-0.012,0.014v0.024l-0.011,0.008l-0.015-0.006l-0.011,0.015l0.007,0.094l0.019,0.039l0.021,0.001l0.011-0.017l0.044-0.015l0.065-0.06l0.043,0.001l0.011,0.028l0.047,0.022l0.031-0.003l0.033-0.01l0.005-0.018l-0.039-0.024l0.007-0.014l0.028-0.001l0.071-0.032l0.029,0.004l0.028-0.007l0.017-0.019h0.021l0.022,0.011l-0.007,0.035l0.015,0.039l0.026,0.015l0.026-0.014l0.019,0.004l0.021-0.004l0.014-0.026l0.021-0.011l0.001-0.017l-0.05-0.015l-0.029-0.022l0.005-0.018l0.043-0.025l0.003-0.018l-0.032-0.03l-0.004-0.025l0.013-0.006l0.032,0.019l0.025,0.001l0.011-0.011v-0.05l-0.012-0.019l0.003-0.018l0.017-0.011l-0.001-0.017l-0.024-0.012l-0.003-0.021l0.017-0.017l0.036-0.001l0.022,0.014l0.026,0.003l0.037-0.011l0.007-0.021l-0.007-0.025l0.008-0.064l-0.008-0.021l-0.029-0.014l-0.019,0.004l-0.046,0.046l-0.017,0.006l-0.014-0.004l-0.021,0.008l-0.017,0.021l-0.021,0.015l-0.022,0.003l-0.065,0.044l-0.021,0.022l-0.033,0.015l-0.073,0.015l-0.039,0.026l-0.017,0.028l-0.017,0.001l-0.012-0.026l-0.029-0.01l-0.065,0.003l-0.018,0.015L1063.625,366.681L1063.625,366.681z M1064.406,366.927l0.011,0.011l0.033-0.015l0.017,0.011l0.011,0.047l-0.005,0.042l-0.019,0.024l0.005,0.018l0.06,0.012l0.039-0.015l0.007-0.019l-0.008-0.024l0.007-0.021l0.055-0.022l0.001-0.017l-0.039-0.008l-0.067,0.022l-0.008-0.01l0.025-0.03l-0.01-0.017l-0.025-0.007l-0.019-0.033l0.005-0.018l-0.008-0.017l-0.037,0.003l-0.012,0.025l0.004,0.026L1064.406,366.927L1064.406,366.927z M1064.46,366.71l0.022,0.014l0.04,0.072l0.024,0.01l0.065,0.004l0.026,0.017l0.018,0.043h0.015l0.015-0.04l0.018-0.007l0.036,0.024l0.018,0.022l-0.007,0.037l0.015,0.01l0.003,0.014l-0.014,0.018l0.008,0.01l0.044-0.028l0.01,0.015l-0.008,0.019l0.004,0.044l0.014,0.012l0.026-0.021l-0.008-0.058l-0.019-0.018l-0.001-0.015l0.014-0.022l0.033-0.014l0.004-0.014l-0.018-0.025l0.005-0.011l0.028,0.017l0.011,0.06l0.014,0.021l0.007,0.032l0.022,0.019h0.04l0.003-0.011l-0.014-0.012l-0.012-0.051l0.003-0.03l-0.011-0.053l0.018-0.029l-0.003-0.037l-0.066-0.073l-0.035-0.012l-0.033-0.025l-0.053-0.015l-0.044,0.014l-0.032,0.025l-0.044,0.007l-0.093-0.026l-0.047,0.004l-0.051,0.03l-0.011,0.014L1064.46,366.71L1064.46,366.71z M1064.573,366.844l0.029,0.014l0.021-0.003l-0.003-0.024l-0.014-0.011l-0.033-0.004l-0.011,0.01L1064.573,366.844L1064.573,366.844z M1063.585,366.298l0.003,0.015l0.011,0.001l0.001-0.012l-0.001-0.015l-0.015-0.008l-0.005,0.007L1063.585,366.298L1063.585,366.298z M1065.162,365.763l0.011,0.01l0.028-0.012l0.001-0.026l-0.019-0.019l-0.011,0.003l0.001,0.019L1065.162,365.763L1065.162,365.763z M1065.213,365.71l0.005-0.029l-0.011-0.003l-0.008,0.012l-0.015-0.012l-0.014,0.001l0.001,0.017l0.025,0.014H1065.213L1065.213,365.71z M1065.203,366.477l0.024,0.017l0.022-0.007v-0.019l-0.024-0.029l-0.024,0.003L1065.203,366.477L1065.203,366.477z M1065.32,366.537l0.019-0.008l0.011-0.025l-0.011-0.004l-0.018,0.007l-0.014,0.019L1065.32,366.537L1065.32,366.537z M1065.212,366.316l0.007,0.012l0.017,0.006l0.006-0.012l-0.017-0.019l-0.011,0.004L1065.212,366.316L1065.212,366.316z M1065.127,366.509l0.016,0.001l-0.007-0.026l-0.018-0.01l-0.006,0.017L1065.127,366.509L1065.127,366.509z M1063.957,366.44l-0.009,0.016l0.008,0.008l0.016-0.009l-0.002-0.015L1063.957,366.44L1063.957,366.44z M1063.957,366.44l-0.009,0.016l0.008,0.008l0.016-0.009l-0.002-0.015L1063.957,366.44L1063.957,366.44z M1064.302,366.665l0.014,0.006l0.008-0.006l-0.003-0.014h-0.014L1064.302,366.665L1064.302,366.665z M1064.702,366.853l-0.007,0.01l0.012,0.007l0.014-0.004l0.004-0.011L1064.702,366.853L1064.702,366.853z M1065.425,366.492l0.012-0.009l-0.014-0.01l-0.024,0.002l0.003,0.014L1065.425,366.492L1065.425,366.492z M1064.263,366.393l-0.015-0.012l-0.013,0.006l0.002,0.019l0.019,0.023l0.015-0.004L1064.263,366.393L1064.263,366.393z M1064.935,367.035l-0.008,0.018l0.017,0.017l0.022,0.003l0.015-0.018l-0.012-0.021L1064.935,367.035L1064.935,367.035z M1064.204,366.752l0.005,0.014l0.012-0.001l0.017-0.014l-0.008-0.012l-0.018,0.003L1064.204,366.752L1064.204,366.752z M1065.366,366.46l-0.003,0.021l0.009,0.007l0.019-0.016l0.002-0.019l-0.012-0.002L1065.366,366.46L1065.366,366.46z M1064.865,365.98l-0.007,0.02l0.007,0.008l0.021-0.012l0.005-0.018l-0.012-0.004L1064.865,365.98L1064.865,365.98z M1064.865,365.98l-0.007,0.02l0.007,0.008l0.021-0.012l0.005-0.018l-0.012-0.004L1064.865,365.98L1064.865,365.98z M1065.371,365.816l0-0.021l-0.01-0.005l-0.016,0.019l0.002,0.019l0.012,0L1065.371,365.816L1065.371,365.816z M1064.169,366.627l-0.015,0.015l0.01,0.033l0.028,0.008l0.01-0.018l-0.008-0.029L1064.169,366.627L1064.169,366.627z M1064.169,366.627l-0.015,0.015l0.01,0.033l0.028,0.008l0.01-0.018l-0.008-0.029L1064.169,366.627L1064.169,366.627z M1065.333,366.777l-0.002-0.01l-0.013-0.003l-0.002,0.015l0.008,0.007L1065.333,366.777L1065.333,366.777z M1063.897,366.487l0.01,0.001l0.007-0.011l-0.014-0.007l-0.01,0.006L1063.897,366.487L1063.897,366.487z M1065.182,366.694l0.01,0.006l0.007-0.009l-0.006-0.011l-0.011,0.001L1065.182,366.694L1065.182,366.694z M1065.182,366.694l0.01,0.006l0.007-0.009l-0.006-0.011l-0.011,0.001L1065.182,366.694L1065.182,366.694z M1065.169,365.659l0.004-0.011l-0.01-0.006l-0.01,0.008l0.003,0.011L1065.169,365.659L1065.169,365.659z M1064.45,366.665l0.001-0.012l-0.012-0.003l-0.011,0.008l0.008,0.01L1064.45,366.665L1064.45,366.665z M1063.626,366.413l-0.012,0.004v0.015l0.012,0.003l0.004-0.011L1063.626,366.413L1063.626,366.413z M1065.135,366.307l0.017-0.001l0.007-0.014l-0.005-0.011h-0.015l-0.008,0.012L1065.135,366.307L1065.135,366.307z M1065.125,365.777l0.011,0.011l0.015-0.004v-0.012l-0.012-0.01l-0.017,0.003L1065.125,365.777L1065.125,365.777z M1065.125,365.777l0.011,0.011l0.015-0.004v-0.012l-0.012-0.01l-0.017,0.003L1065.125,365.777L1065.125,365.777z M1065.317,366.745l0.011-0.019l-0.003-0.014l-0.011,0.004l-0.008,0.015l-0.001,0.018L1065.317,366.745L1065.317,366.745z M1065.097,366.339l0.011,0.035l0.015,0.007l0.006-0.035l-0.014-0.032l-0.016-0.002L1065.097,366.339L1065.097,366.339z M1065.097,366.339l0.011,0.035l0.015,0.007l0.006-0.035l-0.014-0.032l-0.016-0.002L1065.097,366.339L1065.097,366.339z M1065.366,366.533l0.009,0.026l0.018,0.01l0.011-0.012l-0.012-0.025l-0.014-0.01L1065.366,366.533L1065.366,366.533z M1065.079,367.066l0.012-0.002l0.007-0.019l-0.003-0.012l-0.019,0.005l-0.005,0.014L1065.079,367.066L1065.079,367.066z M1064.166,365.785l0.046,0.011l0.021-0.01l0.004-0.026l0.019-0.017l0.031-0.005l0.018-0.015l0.008-0.025l0.036-0.029h0.054l0.028,0.016h0.021l0.026-0.032l0.048-0.016l0.028,0.005l0.024-0.007l0.013-0.043l0.029-0.02l0.056,0.004l0.014,0.012l0.051,0.003l0.016-0.008l0.071,0.007l0.033,0.023l0.001,0.019l-0.027,0.01l-0.03,0.032l-0.002,0.021l0.013,0.014l0.069-0.024l0.025-0.025l0.009-0.03l0.024-0.003l0.058,0.035l0.011,0.034l0.022,0.009l0.027-0.005l0.012,0.021l-0.012,0.031l0.023,0.027l0.054,0.034l0.081-0.02l0.047-0.025l0.008,0.01l-0.021,0.023l-0.039,0.03l-0.061,0.054l-0.134,0.069l-0.043,0.04l-0.029,0.001l-0.003-0.014l0.032-0.044l0.047-0.026l0.039-0.008l0.028-0.027l-0.01-0.025l-0.033-0.002l-0.044,0.018l-0.05-0.012l-0.02,0.009l-0.018,0.04l-0.043,0.025l-0.059,0.012l-0.008,0.018l0.027,0.042l-0.004,0.011l-0.023-0.008l-0.016-0.024l-0.047,0.01l-0.039,0.023l0.012,0.027l0.051,0.018l0.05,0.041l0.004,0.067l0.019,0.002l0.011-0.048l0.047-0.05l0.046-0.008l0.069,0.015l0.02,0.047h0.026l0.015-0.037l-0.005-0.065l0.038-0.038l0.027,0.004l0.02-0.016l0.005-0.038l0.041-0.033l0.028,0.003l0.018,0.025v0.019l0.016,0.002l0.02-0.045l0.015-0.001l0.017,0.041l-0.005,0.017l-0.024,0.017l-0.003,0.032l0.01,0.011v0.016l-0.02,0.035l0.008,0.011l0.02-0.017l0.015,0.004l0.008,0.032h0.01l0.011-0.052l-0.007-0.029l0.024-0.035v-0.015l0.015-0.006l0.024,0.028l-0.003,0.043l0.023,0.019l0.06-0.001l0.026,0.021v0.033l0.021,0.037l-0.013,0.007l-0.034-0.021l-0.036,0.006l-0.018,0.033l0.005,0.04l0.043,0.057l0.006,0.054l-0.006,0.014h-0.014l-0.022-0.026l-0.012,0.001v0.065l-0.025,0.015l-0.018-0.001l-0.017,0.011l-0.005,0.046l-0.018-0.002l-0.007-0.039l-0.018-0.008l-0.024,0.002l-0.036-0.046l0.006-0.039l-0.018-0.029l-0.042-0.044l-0.026,0.003l-0.021,0.015l-0.03-0.003l-0.039-0.028l-0.032,0.01l-0.015,0.069l0.012,0.079l-0.013,0.001l-0.024-0.051l-0.021,0.003l-0.01,0.03l0.027,0.038l0.019,0.087l0.024,0.021l0.025,0.001l0.025,0.018l0.002,0.025l0.011,0.007l0.027-0.003l0.032,0.029l-0.002,0.034l-0.032,0.016l-0.03,0.002l-0.013,0.023l0.013,0.018l0.025,0.007l0.021,0.042l-0.016,0.012l-0.044-0.026l-0.025,0.001l-0.018,0.025l-0.021-0.004l-0.024-0.05l0.013-0.054l-0.026-0.037l-0.022,0.001l-0.042,0.042l-0.02,0.001l-0.095-0.105l-0.009,0.004l-0.035-0.032l-0.01,0.008l0.064,0.063l-0.01,0.009l-0.07-0.066l-0.01,0.015l-0.001,0.018l0.009,0.015l-0.004,0.016l-0.045,0.015l-0.017,0.021h-0.022l-0.007-0.025l-0.021-0.003l-0.022,0.007l-0.01-0.007l0.018-0.028l0.002-0.03l-0.038-0.046l-0.019-0.003l-0.006,0.01l0.007,0.014l-0.004,0.016h-0.04l-0.035-0.013l0.003-0.02l0.008-0.022l-0.051-0.13l-0.032-0.024l-0.084,0.006l-0.025,0.014l-0.112,0.018l-0.036,0.016h-0.045l-0.03-0.02l-0.026-0.009l-0.029,0.003l-0.052-0.035l-0.037-0.036l-0.021,0.007l0.003,0.023l-0.019,0.006l-0.032-0.002l-0.024,0.018l-0.001,0.022l-0.022,0.005l-0.044-0.004l-0.068-0.043l-0.002-0.016l0.02-0.016l-0.002-0.037l-0.02-0.047l-0.03-0.012l-0.001-0.018l0.033-0.042l0.039-0.014h0.032l0.039-0.025l0.036-0.065l0.037-0.029l0.029-0.003l0.022-0.018l0.027-0.043l0.033-0.031l0.009-0.029l0.028-0.012l0.036,0.012l0.014,0.019h0.015l0.017-0.024l0.003-0.044l0.018-0.022l0.027-0.011L1064.166,365.785z"/>
</svg>
