<svg xmlns="http://www.w3.org/2000/svg" viewBox="1063.543 365.572 2.246 1.589">
  <path d="M1064.431,366.38l0.024,-0.022l0.054,-0.006l0.025,0.017l0.032,0.104l-0.012,0.017l-0.068,0.006l-0.019,-0.022l0.004,-0.026l-0.022,-0.036l-0.014,-0.014l-0.003,-0.017Z M1063.758,366.51l0.011,0.025l-0.036,0.018v0.017l0.015,0.004 l0.006,0.021l-0.008,0.019l0.008,0.01l0.073,-0.006l0.044,0.015h0.017l0.014,-0.012 l0.012,-0.036v-0.026l0.011,-0.032l-0.007,-0.017l-0.062,-0.022l-0.018,-0.022l-0.019,-0.003l-0.143,0.051l0.008,0.018l0.073,-0.022Z M1063.962,366.556l0.019,0.003l0.008,-0.026l-0.014,-0.015l-0.026,-0.003l-0.01,0.015l0.004,0.018l0.018,0.008Z M1064.255,366.78l0.019,0.018l0.012,0.025l0.015,0.003l0.003,-0.014l-0.007,-0.037l-0.015,-0.011l-0.043,0.003v0.011l0.015,0.003 Z M1064.223,367.007l0.021,-0.017l0.035,-0.008l0.003,-0.017l-0.025,-0.01l-0.008,-0.017l0.012,-0.024l-0.006,-0.012l-0.025,0.008l-0.007,0.028l0.008,0.017v0.012l-0.029,0.022v0.014l0.021,0.003Z M1065.215,365.634v0.017l-0.018,0.015 l0.007,0.012h0.042l0.01,-0.011 l-0.019,-0.024l0.004,-0.017l0.047,-0.008l0.003,-0.01h-0.04l-0.022,-0.012 h-0.018l-0.008,0.011 l0.014,0.026Z M1065.724,365.638l0.012,0.025l0.024,0.01l0.029,-0.004l-0.006,-0.012l-0.024,-0.006l-0.012,-0.015v-0.019l-0.017,-0.003 l-0.007,0.025Z M1065.493,365.911l-0.01,-0.037l-0.015,-0.007l-0.017,0.011v0.029l0.014,0.035l0.015,-0.003l0.012,-0.028Z M1065.262,366.391l0.008,0.024l0.042,0.011l0.017,-0.003l0.014,-0.022v-0.026l-0.025,-0.025 l-0.015,-0.051l-0.024,-0.004l-0.015,0.03l0.006,0.036l-0.007,0.03Z M1065.18,366.787l-0.007,0.024l0.011,0.017h0.032l0.015,-0.015 v-0.036l-0.017,-0.01 l-0.035,0.021Z M1065.091,367.151l0.024,-0.01l0.024,0.003l0.012,-0.011l-0.018,-0.048l-0.024,-0.004l-0.037,0.024l-0.007,0.035l0.026,0.012Z M1064.086,367.034h0.024l0.007,-0.008 l-0.021,-0.029l-0.014,-0.003l-0.015,0.011v0.018l0.019,0.011 Z M1063.802,367.077h0.029v-0.011l-0.033,-0.014 h-0.015l-0.007,0.01 l0.026,0.015Z M1063.775,367.161l0.026,-0.003l0.015,-0.014l0.003,-0.032h-0.012l-0.008,0.018 l-0.014,0.01h-0.019l-0.007,0.015 l0.017,0.006Z M1063.732,366.681l-0.036,0.035l-0.033,0.007l-0.021,0.022l-0.047,0.017l-0.003,0.019l0.022,0.008v0.021l-0.022,0.006l-0.012,0.014v0.024l-0.011,0.008l-0.015,-0.006l-0.011,0.015l0.007,0.094l0.019,0.039h0.021l0.011,-0.015 l0.044,-0.015l0.065,-0.06h0.043l0.011,0.029 l0.047,0.022l0.03,-0.003l0.033,-0.01l0.006,-0.018l-0.039,-0.024l0.007,-0.014h0.028l0.071,-0.033 l0.029,0.004l0.028,-0.007l0.017,-0.019h0.021l0.022,0.011l-0.007,0.035l0.015,0.039l0.026,0.015l0.026,-0.014l0.019,0.004l0.021,-0.004l0.014,-0.026l0.021,-0.011v-0.017l-0.048,-0.015 l-0.029,-0.022l0.006,-0.018l0.043,-0.025l0.003,-0.018l-0.032,-0.03l-0.004,-0.025l0.012,-0.006l0.032,0.019h0.025l0.011,-0.01 v-0.05l-0.012,-0.019l0.003,-0.018l0.017,-0.011v-0.017l-0.025,-0.012 l-0.003,-0.021l0.017,-0.017h0.036l0.022,0.012 l0.026,0.003l0.037,-0.011l0.007,-0.021l-0.007,-0.025l0.008,-0.064l-0.008,-0.021l-0.029,-0.014l-0.019,0.004l-0.046,0.046l-0.017,0.006l-0.014,-0.004l-0.021,0.008l-0.017,0.021l-0.021,0.015l-0.022,0.003l-0.065,0.044l-0.021,0.022l-0.033,0.015l-0.073,0.015l-0.039,0.026l-0.017,0.028h-0.017l-0.012,-0.025 l-0.029,-0.01l-0.065,0.003l-0.018,0.015l-0.008,0.029Z M1064.513,366.927l0.011,0.011l0.033,-0.015l0.017,0.011l0.011,0.047l-0.006,0.042l-0.019,0.024l0.006,0.018l0.06,0.012l0.039,-0.015l0.007,-0.019l-0.008,-0.024l0.007,-0.021l0.055,-0.022v-0.017l-0.037,-0.008 l-0.066,0.022l-0.008,-0.01l0.025,-0.03l-0.01,-0.017l-0.025,-0.007l-0.019,-0.033l0.006,-0.018l-0.008,-0.017l-0.037,0.003l-0.012,0.025l0.004,0.026l-0.022,0.032Z M1064.567,366.71l0.022,0.014l0.04,0.072l0.024,0.01l0.065,0.004l0.026,0.017l0.018,0.043h0.015l0.015,-0.04l0.018,-0.007l0.036,0.024l0.018,0.022l-0.007,0.037l0.015,0.01l0.003,0.014l-0.014,0.018l0.008,0.01l0.044,-0.028l0.01,0.015l-0.008,0.019l0.004,0.044l0.014,0.012l0.026,-0.021l-0.008,-0.058l-0.019,-0.018v-0.015l0.012,-0.022 l0.033,-0.014l0.004,-0.014l-0.018,-0.025l0.006,-0.011l0.028,0.017l0.011,0.06l0.014,0.021l0.007,0.032l0.022,0.019h0.04l0.003,-0.011l-0.014,-0.012l-0.012,-0.051l0.003,-0.03l-0.011,-0.053l0.018,-0.029l-0.003,-0.037l-0.066,-0.073l-0.035,-0.012l-0.033,-0.025l-0.053,-0.015l-0.044,0.014l-0.032,0.025l-0.044,0.007l-0.093,-0.026l-0.047,0.004l-0.051,0.03l-0.011,0.014v0.022h0.001Z M1064.68,366.844l0.029,0.014l0.021,-0.003l-0.003,-0.024l-0.014,-0.011l-0.033,-0.004l-0.011,0.01l0.011,0.018Z M1063.692,366.298l0.003,0.015h0.011l0.001,-0.011 v-0.015l-0.017,-0.008 l-0.006,0.007l0.007,0.012Z M1065.269,365.763l0.011,0.01l0.028,-0.012v-0.026l-0.018,-0.019 l-0.011,0.003v0.019l-0.01,0.026 Z M1065.32,365.71l0.006,-0.029l-0.011,-0.003l-0.008,0.012l-0.015,-0.012h-0.014l0.001,0.018 l0.025,0.014h0.017Z M1065.31,366.477l0.024,0.017l0.022,-0.007v-0.019l-0.024,-0.029l-0.024,0.003v0.036h0.001Z M1065.426,366.537l0.019,-0.008l0.011,-0.025l-0.011,-0.004l-0.018,0.007l-0.014,0.019l0.012,0.011Z M1065.318,366.316l0.007,0.012l0.017,0.006l0.006,-0.012l-0.017,-0.019l-0.011,0.004v0.01h-0.001Z M1065.234,366.509h0.015l-0.007,-0.025 l-0.018,-0.01l-0.006,0.017l0.015,0.019Z M1064.064,366.44l-0.009,0.016l0.008,0.008l0.016,-0.009l-0.002,-0.015h-0.013Z M1064.064,366.44l-0.009,0.016l0.008,0.008l0.016,-0.009l-0.002,-0.015h-0.013Z M1064.409,366.665l0.014,0.006l0.008,-0.006l-0.003,-0.014h-0.014l-0.006,0.014Z M1064.809,366.853l-0.007,0.01l0.012,0.007l0.014,-0.004l0.004,-0.011h-0.023Z M1065.532,366.492l0.012,-0.009l-0.014,-0.01l-0.024,0.002l0.003,0.014l0.023,0.003Z M1064.37,366.393l-0.015,-0.012l-0.013,0.006l0.002,0.019l0.019,0.023l0.015,-0.004l-0.008,-0.031Z M1065.042,367.035l-0.008,0.018l0.017,0.017l0.022,0.003l0.015,-0.018l-0.011,-0.021h-0.033Z M1064.311,366.752l0.006,0.014h0.012l0.017,-0.015 l-0.008,-0.012l-0.018,0.003l-0.008,0.011Z M1065.473,366.46l-0.003,0.021l0.009,0.007l0.019,-0.016l0.002,-0.019l-0.012,-0.002l-0.014,0.009Z M1064.972,365.98l-0.007,0.02l0.007,0.008l0.021,-0.012l0.005,-0.018l-0.012,-0.004l-0.015,0.006Z M1064.972,365.98l-0.007,0.02l0.007,0.008l0.021,-0.012l0.005,-0.018l-0.012,-0.004l-0.015,0.006Z M1065.478,365.816v-0.021l-0.01,-0.005 l-0.016,0.019l0.002,0.019h0.012l0.012,-0.011 Z M1064.276,366.627l-0.015,0.015l0.01,0.033l0.028,0.008l0.011,-0.018l-0.008,-0.029l-0.026,-0.009Z M1064.276,366.627l-0.015,0.015l0.01,0.033l0.028,0.008l0.011,-0.018l-0.008,-0.029l-0.026,-0.009Z M1065.44,366.777l-0.002,-0.01l-0.013,-0.003l-0.002,0.015l0.009,0.007l0.008,-0.01Z M1064.004,366.487h0.01l0.007,-0.01 l-0.014,-0.007l-0.01,0.006l0.007,0.011Z M1065.289,366.694l0.01,0.006l0.007,-0.009l-0.006,-0.011h-0.011l0,0.014 Z M1065.289,366.694l0.01,0.006l0.007,-0.009l-0.006,-0.011h-0.011l0,0.014 Z M1065.275,365.659l0.004,-0.011l-0.01,-0.006l-0.01,0.008l0.003,0.011l0.012,-0.003Z M1064.557,366.665v-0.012l-0.011,-0.003 l-0.011,0.008l0.008,0.01l0.014,-0.003Z M1063.733,366.413l-0.012,0.004v0.015l0.012,0.003l0.004,-0.011l-0.004,-0.011Z M1065.242,366.307h0.017l0.007,-0.015 l-0.006,-0.011h-0.015l-0.008,0.012l0.006,0.014Z M1065.232,365.777l0.011,0.011l0.015,-0.004v-0.012l-0.012,-0.01l-0.017,0.003l0.003,0.012Z M1065.232,365.777l0.011,0.011l0.015,-0.004v-0.012l-0.012,-0.01l-0.017,0.003l0.003,0.012Z M1065.424,366.745l0.011,-0.019l-0.003,-0.014l-0.011,0.004l-0.008,0.015v0.018l0.011,-0.004 Z M1065.203,366.339l0.011,0.035l0.015,0.007l0.006,-0.035l-0.014,-0.032l-0.016,-0.002l-0.002,0.027Z M1065.203,366.339l0.011,0.035l0.015,0.007l0.006,-0.035l-0.014,-0.032l-0.016,-0.002l-0.002,0.027Z M1065.473,366.533l0.009,0.026l0.018,0.01l0.011,-0.012l-0.012,-0.025l-0.014,-0.01l-0.011,0.012Z M1065.186,367.066l0.012,-0.002l0.007,-0.019l-0.003,-0.012l-0.019,0.005l-0.005,0.014l0.009,0.014Z  M1064.273,365.785l0.046,0.011l0.021-0.01l0.004-0.026l0.019-0.017l0.031-0.005l0.018-0.015l0.008-0.025l0.036-0.029h0.054l0.028,0.016h0.02l0.027-0.032l0.048-0.016l0.028,0.005l0.023-0.007l0.014-0.043l0.029-0.02l0.056,0.004l0.013,0.012l0.052,0.003l0.016-0.008l0.071,0.007l0.033,0.023l0.001,0.019l-0.027,0.01l-0.031,0.032l-0.001,0.021l0.012,0.014l0.07-0.024l0.025-0.025l0.009-0.03l0.024-0.003l0.058,0.035l0.011,0.034l0.022,0.009l0.027-0.005l0.012,0.021l-0.012,0.031l0.023,0.027l0.054,0.034l0.08-0.02l0.047-0.025l0.009,0.01l-0.021,0.023l-0.039,0.03l-0.061,0.054l-0.134,0.069l-0.043,0.04l-0.029,0.001l-0.003-0.014l0.032-0.044l0.047-0.026l0.039-0.008l0.028-0.027l-0.01-0.025l-0.033-0.002l-0.045,0.018l-0.049-0.012l-0.02,0.009l-0.018,0.04l-0.043,0.025l-0.059,0.012l-0.009,0.018l0.028,0.042l-0.004,0.011l-0.024-0.008l-0.015-0.024l-0.047,0.01l-0.039,0.023l0.011,0.027l0.052,0.018l0.049,0.041l0.005,0.067l0.019,0.002l0.011-0.048l0.047-0.05l0.046-0.008l0.069,0.015l0.019,0.047h0.027l0.015-0.037l-0.006-0.065l0.039-0.038l0.027,0.004l0.02-0.016l0.004-0.038l0.042-0.033l0.028,0.003l0.018,0.025v0.019l0.016,0.002l0.02-0.045l0.015-0.001l0.017,0.041l-0.005,0.017l-0.025,0.017l-0.002,0.032l0.009,0.011v0.016l-0.019,0.035l0.008,0.011l0.02-0.017l0.015,0.004l0.008,0.032h0.01l0.011-0.052l-0.007-0.029l0.024-0.035v-0.015l0.015-0.006l0.023,0.028l-0.002,0.043l0.023,0.019l0.06-0.001l0.026,0.021v0.033l0.021,0.037l-0.013,0.007l-0.034-0.021l-0.036,0.006l-0.018,0.033l0.005,0.04l0.043,0.057l0.006,0.054l-0.006,0.014h-0.014l-0.022-0.026l-0.012,0.001v0.065l-0.025,0.015l-0.018-0.001l-0.017,0.011l-0.005,0.046l-0.018-0.002l-0.007-0.039l-0.018-0.008l-0.024,0.002l-0.036-0.046l0.006-0.039l-0.018-0.029l-0.042-0.044l-0.026,0.003l-0.021,0.015l-0.03-0.003l-0.039-0.028l-0.032,0.01l-0.015,0.069l0.012,0.079l-0.014,0.001l-0.023-0.051l-0.021,0.003l-0.01,0.03l0.027,0.038l0.019,0.087l0.024,0.021l0.025,0.001l0.024,0.018l0.003,0.025l0.011,0.007l0.027-0.003l0.031,0.029l-0.001,0.034l-0.032,0.016l-0.03,0.002l-0.013,0.023l0.013,0.018l0.025,0.007l0.02,0.042l-0.015,0.012l-0.044-0.026l-0.025,0.001l-0.018,0.025l-0.021-0.004l-0.025-0.05l0.014-0.054l-0.026-0.037l-0.022,0.001l-0.042,0.042l-0.021,0.001l-0.094-0.105l-0.009,0.004l-0.035-0.032l-0.01,0.008l0.064,0.063l-0.01,0.009l-0.07-0.066l-0.01,0.015l-0.001,0.018l0.009,0.015l-0.004,0.016l-0.046,0.015l-0.016,0.021h-0.022l-0.007-0.025l-0.021-0.003l-0.022,0.007l-0.01-0.007l0.018-0.028l0.001-0.03l-0.037-0.046l-0.019-0.003l-0.006,0.01l0.007,0.014l-0.004,0.016h-0.04l-0.035-0.013l0.003-0.02l0.008-0.022l-0.051-0.13l-0.032-0.024l-0.084,0.006l-0.025,0.014l-0.112,0.018l-0.036,0.016h-0.045l-0.03-0.02l-0.026-0.009l-0.029,0.003l-0.052-0.035l-0.037-0.036l-0.021,0.007l0.003,0.023l-0.019,0.006l-0.032-0.002l-0.024,0.018l-0.001,0.022l-0.022,0.005l-0.045-0.004l-0.068-0.043l-0.001-0.016l0.019-0.016l-0.001-0.037l-0.021-0.047l-0.029-0.012l-0.001-0.018l0.033-0.042l0.039-0.014h0.032l0.038-0.025l0.036-0.065l0.038-0.029l0.029-0.003l0.022-0.018l0.026-0.043l0.034-0.031l0.009-0.029l0.028-0.012l0.036,0.012l0.014,0.019h0.015l0.017-0.024l0.002-0.044l0.018-0.022l0.028-0.011L1064.273,365.785z"/>
</svg>
