<svg xmlns="http://www.w3.org/2000/svg" viewBox="309.966 388.846 23.148 13.503">
  <path d="M316.057,401.03l-0.017-0.016l0.002-0.021l0.039-0.003l0.018,0.021l-0.003,0.021L316.057,401.03z M316.331,401.336l0.09-0.017l0.028-0.054l-0.021-0.076l-0.116-0.03l-0.049,0.04l-0.009,0.101L316.331,401.336z M316.199,401.126l0.033-0.031l-0.003-0.031l-0.033-0.012l-0.019,0.021l-0.002,0.045L316.199,401.126z M320.576,391.005l0.002-0.028l0.017-0.007l0.021,0.021l-0.014,0.021L320.576,391.005z M318.772,390.47l0.002,0.047l0.033,0.023l0.089,0.017l0.083-0.019l0.092-0.063l0.083-0.016l0.045-0.052l-0.002-0.033l-0.035-0.017l-0.054-0.002l-0.026,0.026h-0.035l-0.05-0.017l-0.028,0.007l-0.026,0.042l-0.04,0.014l-0.083,0.012L318.772,390.47z M320.662,390.936l0.022,0.035l0.017-0.003l0.008-0.028l-0.008-0.013l-0.035-0.002L320.662,390.936z M322.664,389.261l0.136-0.09l0.023-0.057l0.045-0.036l0.075,0.002l0.049-0.023l0.028-0.087l0.094-0.028l0.016-0.028l-0.019-0.023l-0.078-0.017l-0.012-0.028l-0.038,0.002l-0.028,0.031l-0.085,0.024l-0.094,0.134l-0.076,0.066l-0.014,0.078l-0.035,0.068L322.664,389.261z M321.847,389.153l0.052,0.01l0.04,0.003l0.035-0.033l-0.024-0.019l-0.059-0.002l-0.05,0.028L321.847,389.153z M320.317,389.735l0.089-0.108l0.155-0.023l0.08-0.043l0.014-0.026l0.184-0.099l0.127-0.023l0.04-0.023l0.021-0.043l0.142-0.049l0.042,0.003l0.038-0.002l0.03-0.026l0.063-0.036l0.059,0.005l0.031-0.002l0.036-0.024l0.123,0.002l0.024,0.024l0.019,0.002l0.03-0.033l0.059-0.026l-0.005-0.014l-0.104,0.017l-0.094-0.016l-0.229,0.003l-0.313,0.087l-0.174,0.113l-0.104,0.016l-0.177,0.057l-0.203,0.111l-0.08,0.109l-0.01,0.096l0.012,0.019L320.317,389.735z M309.966,396.876l0.008-0.167l0.172-0.104l0.008-0.055l0.07-0.034l0.016-0.075l0.065-0.042l0.083-0.146l0.131,0.005l0.151,0.039l0.047-0.044l0.015-0.086l-0.018-0.039l0.021-0.042l-0.034-0.156l0.103-0.164l-0.128-0.078l-0.005-0.164l-0.101-0.085l-0.104-0.134l-0.009-0.193l0.073-0.066l0.064-0.003l0.113-0.273l-0.003-0.042l-0.077-0.029l-0.017-0.049l0.031-0.073l-0.012-0.034l0.014-0.025l0.029-0.003l0.044-0.068l-0.009-0.037l0.672-0.26l0.473-0.407l0.627-0.38l0.266-0.271l0.05-0.033l0.08-0.014l0.028-0.064l0.045-0.016l0.758-0.636l0.104-0.151l0.005-0.08l0.124-0.012l0.029-0.051l0.129-0.024l-0.007-0.085l0.064-0.038l0.222,0.143l0.109,0.005l0.11-0.08l0.031-0.097l0.141-0.12l0.033-0.065l0.055-0.029l0.157-0.007l0.164-0.058l0.156-0.094l0.065-0.086l-0.036-0.015l-0.094,0.057l-0.096,0.005l-0.016-0.044l0.044-0.057h0.188l0.237-0.133l0.115-0.013l0.146,0.036h0.078l0.047-0.083l0.101,0.002l0.232,0.149l0.032-0.021l-0.013-0.044l0.002-0.058l0.091-0.052l0.029,0.003l-0.076,0.073l0.047,0.12l0.167,0.174l0.19,0.133l0.165,0.037l0.109-0.026l0.039-0.084l0.031-0.015l0.073,0.002l0.068-0.02l0.039-0.086l0.06-0.014l0.482,0.162l0.305,0.057l0.131-0.002l0.398,0.078l0.404,0.047l0.271-0.047l0.097-0.083l0.12-0.024l0.161,0.031l0.188,0.003l0.409-0.05l0.164-0.044l0.128-0.008l0.141,0.105l0.245,0.031l0.091-0.011l0.034-0.057l0.237-0.088l0.172-0.191l0.159-0.101l0.26-0.037l0.441,0.005l0.208-0.078l0.107-0.112l0.018-0.122l-0.044-0.073l-0.075-0.032l-0.079,0.016l-0.075-0.005l-0.078-0.055l0.013-0.031l0.351,0.039l0.425,0.112l0.389,0.128l0.325,0.219l0.363,0.138l0.203,0.013l0.141-0.055l0.495-0.008l0.362-0.091l0.169-0.149l0.23-0.151l0.177-0.026l0.162,0.031l0.469,0.204l0.149,0.056v0.027l-0.097-0.008l-0.044,0.085l0.025,0.11l0.107,0.066l0.153-0.019l0.077-0.056l0.005-0.087l-0.06-0.035l0.007-0.018l0.076,0.022l0.355,0.073l0.015,0.031l-0.057,0.089l-0.008,0.096l0.037,0.112l0.091,0.047l0.057-0.034l0.006-0.07l0.013-0.031h0.044l0.068,0.091l0.159,0.008l0.119-0.081l0.011-0.07l-0.128-0.063l-0.005-0.023l0.438,0.075l0.331,0.021l0.174,0.047l0.618,0.511l0.336,0.339l0.508,0.443l0.4,0.222l0.188,0.07l0.009,0.026l-0.058,0.057l-0.059-0.007l-0.146-0.136l-0.236-0.104h-0.139l-0.08-0.048l-0.004-0.08l-0.142-0.112l-0.236-0.083l-0.073,0.014l-0.066,0.115l0.038,0.045l0.066,0.17l-0.007,0.07l-0.045,0.003l-0.066-0.201l-0.084-0.046l-0.069,0.039l0.014,0.107l-0.084,0.132l0.011,0.108l0.153,0.149l0.184,0.027l0.04,0.02l0.005,0.073l0.042,0.039l0.13,0.01l0.054,0.042l-0.011,0.088l0.12,0.098l0.091,0.013l0.239-0.072l0.014-0.053l-0.198-0.179l-0.354-0.095l-0.164-0.082l-0.057-0.109l0.09-0.066l0.115-0.004l0.157,0.052l0.118,0.119l0.198,0.132l0.118,0.017l0.212,0.142l0.076,0.112l-0.052,0.076l0.021,0.077l0.129,0.048l0.069-0.031l0.011-0.084l0.066-0.052l0.152-0.055l0.018-0.098l0.048-0.041l0.136,0.028l0.226,0.027l0.038-0.024l-0.278-0.09l-0.087-0.005l-0.341-0.136l-0.051-0.047l0.048-0.097l0.052-0.014l0.181,0.135l0.243,0.119l0.674,0.222l0.112,0.073l0.093,0.156l0.066,0.237l0.134,0.235l0.205,0.159l0.24,0.1l0.151,0.026l0.036,0.022l-0.159,0.042l-0.084-0.036l-0.122,0.067l-0.084-0.026l-0.08,0.011l-0.024-0.031l0.029-0.029l-0.026-0.026l-0.078,0.031l-0.151-0.039l-0.021,0.047l-0.045-0.008l-0.013-0.049l-0.122-0.063l-0.037,0.021l-0.015,0.099l-0.141,0.057l-0.076-0.002l-0.036-0.076l-0.05-0.031l-0.083,0.015l-0.086,0.115l0.008,0.078l-0.091,0.084l-0.008,0.067l-0.063,0.019l-0.049-0.026l-0.016,0.018l0.008,0.047l-0.063,0.036l0.003,0.073l-0.034,0.011l-0.047-0.045l-0.125,0.013l-0.039,0.055l-0.034-0.005l-0.01-0.047l-0.037,0.003l-0.057,0.088l0.052,0.031l0.013,0.092h-0.039l-0.021-0.05h-0.06v0.06l-0.039,0.008l-0.023-0.044l-0.032,0.005l-0.002,0.078l-0.102-0.016l-0.175,0.068l-0.054,0.081l-0.149,0.034l-0.073-0.037l-0.12-0.007v0.031l0.055,0.047l-0.016,0.026l-0.083-0.031l-0.078,0.033l-0.076-0.005l-0.023-0.036l-0.045,0.002l-0.057,0.058l-0.075-0.029l0.028-0.083l-0.054-0.008l-0.066,0.07h-0.044l-0.029-0.057l0.024-0.032l-0.018-0.046l-0.097,0.005l-0.029,0.049l0.089,0.175l-0.029,0.026l-0.057-0.031l-0.065,0.013l-0.05,0.049l-0.151,0.013l-0.088-0.07l-0.05,0.016l-0.015-0.042l0.036-0.044l-0.044-0.037l-0.144,0.068l-0.013,0.073l0.058,0.182l-0.06,0.063l-0.081-0.013l-0.021-0.068l-0.047-0.01l-0.055,0.031l-0.07-0.016l-0.01-0.049l0.026-0.042l-0.055-0.06l-0.044,0.026l-0.039,0.141l-0.167,0.159l-0.112,0.015l-0.052,0.053l-0.102-0.013l-0.042-0.058l-0.073-0.01l-0.005-0.063l-0.36-0.039l-0.028-0.049l-0.167-0.032l-0.06,0.092l-0.047-0.032l0.003-0.086l-0.146-0.114l-0.026-0.178l-0.123-0.106l-0.008-0.063l-0.099-0.068l-0.093,0.011l-0.066,0.049h-0.14l-0.112,0.154l-0.013,0.063l-0.06,0.02l-0.05-0.015l-0.245,0.211l0.013,0.055l-0.018,0.049l-0.065,0.016l-0.029,0.067l0.086,0.034l0.011,0.065l-0.05,0.201l-0.188,0.086l-0.065-0.039l-0.052-0.083l-0.088,0.021l-0.016,0.065l0.034,0.169l-0.042,0.143l-0.115,0.047l-0.033,0.237l-0.11,0.107l0.013,0.042l0.081,0.042l0.062,0.164l0.089,0.034l-0.003,0.057l-0.093,0.141l-0.204,0.008l-0.174-0.037l-0.217,0.047l-0.119,0.12l-0.019,0.146l-0.062,0.062l-0.045,0.154l-0.101,0.065l-0.081,0.003l-0.18,0.112l-0.06,0.096l-0.12-0.005l-0.031-0.041l-0.055-0.003l-0.039,0.081l-0.143,0.117l-0.138,0.026l-0.018,0.07l-0.045,0.019l-0.062-0.045l-0.081,0.013l-0.063,0.079l-0.073,0.018l-0.033,0.276l0.028,0.055l0.078,0.044l-0.01,0.091l-0.05,0.021l-0.028-0.034l-0.065-0.01l-0.06,0.029l-0.11-0.05l-0.073-0.117l0.016-0.081l-0.052-0.06l-0.099-0.016l-0.073,0.081l-0.068-0.028l-0.016-0.073l-0.279-0.133l-0.143-0.089l-0.013-0.063l0.104-0.177l0.016-0.075l-0.05-0.029l-0.271,0.05l-0.237,0.125l-0.008,0.057l0.055,0.036l-0.015,0.05l-0.081,0.065l-0.06-0.023l-0.029,0.028v0.105l-0.18,0.205l-0.192,0.165l-0.034,0.164l-0.097,0.141l-0.143,0.041l-0.269-0.01l-0.044-0.086h-0.026l-0.065,0.073l-0.143-0.026l-0.06-0.084l-0.12-0.015l-0.086,0.062l-0.3,0.018l-0.219-0.02l-0.148,0.07l-0.021,0.068l0.021,0.107l-0.076,0.224l0.047,0.049h0.057l0.029,0.047l-0.081,0.224l0.086,0.089l0.021,0.258l0.057,0.099l0.003,0.096l-0.068,0.107l0.029,0.11l0.07,0.013l0.039,0.054l0.006,0.238l-0.188,0.13l-0.154-0.13l-0.128-0.026l-0.125,0.026l-0.044,0.083l-0.12,0.05l-0.018,0.179l-0.063,0.12l-0.002,0.058l0.047,0.067l-0.037,0.11l0.003,0.068l0.041,0.002l0.008,0.029l-0.146,0.122l-0.021,0.089l-0.242,0.125l-0.008,0.065l-0.086,0.003l-0.08-0.075l-0.903,0.049l0.038-0.098l-0.055-0.059l-0.101-0.045l-0.094-0.135l0.087-0.052l-0.028-0.039l-0.16-0.045l-0.111,0.004l-0.028-0.028l0.007-0.118l-0.087-0.275l-0.08-0.115l-0.146-0.069l-0.01-0.066l0.059-0.066l0.08-0.017l0.073-0.126l0.01-0.055l0.077-0.021l0.01-0.042l-0.073-0.014l-0.208,0.059l-0.226,0.126l-0.059,0.076l-0.16-0.007l-0.122-0.087l0.011-0.114l0.073-0.046l0.073,0.014l0.038-0.034l-0.007-0.08l-0.052-0.087l0.035-0.108l-0.042-0.045l-0.087,0.014l-0.035,0.076l0.035,0.084l-0.038,0.114l-0.132,0.087l-0.146,0.049l-0.087-0.028l-0.038-0.066l-0.122-0.038l-0.076-0.07l0.097-0.01l0.042-0.063l0.229-0.083l-0.003-0.191l-0.046-0.049l-0.139,0.004l-0.059-0.063l0.066-0.25l0.063-0.042l-0.004-0.326l0.066-0.07l0.028-0.087l-0.024-0.066l0.101-0.125l-0.004-0.122l-0.128-0.069l-0.014-0.09l-0.181-0.126l0.007-0.059l-0.028-0.052l-0.09-0.007l-0.084,0.091l-0.173-0.018l-0.108,0.042l-0.163-0.017l-0.139,0.086l-0.039-0.003l-0.1-0.222l-0.08-0.049l-0.038-0.184l-0.126-0.031l-0.139,0.062l-0.104-0.007l-0.18-0.055l-0.056,0.017v0.073l0.062,0.087l-0.038,0.055l-0.097-0.007l-0.035,0.025l-0.014,0.08l-0.264,0.08l-0.041,0.079l-0.049,0.007l-0.052-0.055l-0.174,0.017l-0.056,0.07l-0.107,0.034l-0.087-0.041l-0.049-0.181l0.031-0.142l-0.013-0.073l-0.105-0.059l-0.114,0.024l-0.049-0.021l-0.021-0.066l-0.128-0.063l-0.139-0.02l-0.077,0.045l-0.042-0.011l-0.003-0.066l-0.031-0.052l-0.143-0.024l-0.038-0.077l0.038-0.059l0.018-0.09l-0.053-0.038l-0.128,0.055l-0.084-0.031l-0.076,0.031l-0.045-0.017l-0.111-0.236l-0.153-0.115l-0.064-0.031l-0.05,0.021l-0.13-0.042v-0.044l-0.073-0.112l-0.135-0.077l-0.003-0.142l-0.037-0.076l-0.102-0.005l-0.067-0.034l0.001-0.083l-0.022-0.115l-0.093-0.021l-0.143,0.181l-0.09-0.045l-0.109-0.024l-0.021-0.049l-0.089-0.039l-0.049,0.015l-0.123-0.036l-0.073-0.047l-0.091,0.01l-0.12-0.044L309.966,396.876z"/>
</svg>
