<svg xmlns="http://www.w3.org/2000/svg" viewBox="691.480 264.257 22.035 19.039">
  <path d="M692.348685,271.866053l0.009699,-0.011163l0.02494,-0.001395l0.009699,0.011163l-0.002771,0.012558l-0.033253,-0.001395l-0.008313,-0.009767Z M692.395793,271.920471l0.022169,0.001395l0.019397,0.015349l0.013122,0.04197l-0.015893,0.019425l-0.001386,0.01814l0.020783,0.025116l0.019397,-0.001395l0.011084,-0.026512l0.048494,-0.036279l-0.004238,-0.026512l-0.066424,-0.043256l-0.05265,-0.005581l-0.018012,0.009767l0.004157,0.008372Z M695.437037,270.381397l-0.004157,0.013954l0.022169,0.022326l0.013855,-0.004186l0.001386,-0.019535l-0.019397,-0.013954l-0.013855,0.001395Z M695.872094,270.935352l0.001386,-0.046047l-0.011084,-0.036279l-0.016626,-0.001395l-0.019397,0.015349l-0.056807,-0.023721l-0.011084,-0.02093l-0.030482,-0.006977l-0.042952,0.006977l-0.055421,0.027907l-0.031867,-0.012558l0.001386,-0.023721l0.020783,-0.043256l0.031867,-0.002791l0.049879,0.013954l0.011084,-0.009767l-0.038795,-0.083721l-0.06512,-0.071163l-0.027711,-0.061396l-0.042952,-0.054419l0.002771,-0.009767l0.027711,0.012558l0.02494,0.002791l0.002771,-0.012558l-0.015241,-0.022326l-0.05265,-0.025116l-0.048494,-0.001395l-0.036024,-0.015349l-0.022169,0.001395l-0.01247,0.02093l-0.042952,0.006977l-0.005542,0.016744l0.030482,0.013954l0.015241,0.019535l0.009699,0.068372l-0.011084,0.005581l-0.04018,-0.036279l-0.019397,-0.037675l-0.013855,0.002791l0.002771,0.037675l0.04018,0.053023l-0.001386,0.016744l-0.016626,0.023721l-0.004157,0.072558l0.022169,0.048837v0.033488l-0.043169,0.047661l-0.006955,0.028016l0.003477,0.061286l-0.03999,0.061286l-0.024342,0.012257l-0.033035,-0.001751l-0.020864,-0.036772l-0.064332,-0.003502l-0.03999,0.03327l-0.003477,0.028016l0.008694,0.026265l-0.008694,0.03327l-0.09389,0.028016l-0.033035,0.035021v0.05078l0.060855,0.099809l0.137358,0.126074l0.055639,0.024514l0.034774,-0.003502l0.099106,0.03327l0.092151,0.003502l0.050423,-0.042025l0.038252,0.001751l0.073026,0.035021l0.03999,0.001751l0.006955,-0.01751l-0.022603,-0.031519l0.001739,-0.026265l0.026081,-0.03327l0.019126,0.001751l0.015648,0.040274l-0.015648,0.054282l-0.003477,0.064788l0.008694,0.024514l-0.005216,0.043776l-0.026081,0.014008v0.022763l0.1078,0.071792l0.033035,0.003502l0.034774,-0.008755l0.066071,0.031519l0.083458,0.075294l0.099106,0.031519l0.079981,-0.003502l0.019126,-0.021012l-0.017387,-0.061286l-0.027819,-0.026265l0.001739,-0.031519l0.046945,-0.010506l0.137358,0.035021l0.036513,-0.001751l0.012171,-0.029768l-0.036513,-0.057784l0.012171,-0.005253l0.036513,0.031519l0.01391,-0.003502l-0.006955,-0.038523l-0.09389,-0.098058l-0.062593,-0.021012l-0.066071,-0.05078l-0.055639,-0.06829l0.008694,-0.05078l-0.006955,-0.031519l-0.026081,-0.024514l0.01391,-0.031519l-0.017387,-0.010506l-0.031297,0.005253l-0.034774,-0.007004l-0.033035,0.012257l-0.043468,-0.003502l-0.085197,-0.064788l-0.031297,-0.057784l0.008694,-0.080547l-0.019126,-0.031519l0.006955,-0.01751l0.022603,-0.008755l0.024179,-0.043995Z M696.213913,271.945916l0.039121,0.039398l0.206037,0.094556l0.018256,-0.018386l-0.059985,-0.099809l-0.122579,-0.084049l-0.062593,-0.013133l-0.023473,0.018386l0.005216,0.063037Z M696.122631,272.179679l0.078242,0.036772l0.046945,-0.005253v-0.042025l-0.06781,-0.049904l-0.049553,-0.005253l-0.026081,0.026265l0.018256,0.039398Z M696.357357,272.3005l0.039121,0.031519l0.039121,0.002627l0.031297,-0.042025l0.007824,-0.028892l-0.031297,-0.023639l-0.09389,-0.002627l-0.015648,0.021012l0.023473,0.042025Z M695.20981,271.63861l-0.002608,0.028892l0.130403,0.086676l0.054769,0.005253l0.015648,-0.023639l-0.065202,-0.097182l-0.073026,-0.013133l-0.059985,0.013133Z M694.508241,272.560528l-0.018256,0.060411l0.005216,0.034145l0.018256,0.002627l0.033905,-0.055157l0.007824,-0.057784l-0.020864,-0.005253l-0.026081,0.021012Z M694.276124,273.211911l-0.005216,0.023639l-0.031297,0.005253l-0.007824,0.034145l0.026081,0.031519l0.065202,0.005253l0.065202,0.049904l0.026081,-0.005253l-0.007824,-0.036772l-0.054769,-0.065664l-0.010432,-0.049904l0.031297,-0.07617l0.044337,-0.018386l0.01304,-0.052531l-0.031297,-0.063037l-0.028689,-0.005253l-0.059985,0.060411l-0.049553,0.110315l0.015648,0.052531Z M696.581799,274.441614l0.009485,-0.013762l-0.021805,-0.028742l-0.037591,-0.023464l-0.015281,0.007179l0.022125,0.033748l0.043067,0.025041Z M695.521553,273.108983l0.006934,-0.012095l-0.004391,-0.01587l-0.015698,-0.011937l-0.006643,0.011837l0.005257,0.015946l0.01454,0.012119Z M695.908969,272.982119l0.009694,0.010008l0.010134,0.004155l0.000692,-0.014984l-0.005755,-0.009331l-0.010101,-0.003072l-0.004663,0.013223Z M697.04781,274.329225l0.006907,0.008347l0.011051,-0.002782l-0.001381,-0.013912l-0.013814,-0.002782l-0.002763,0.011129Z M696.09459,274.180152l0.012425,0.001384l0.00116,-0.014972l-0.018164,-0.010791l-0.007586,0.011821l0.012165,0.012559Z M696.09459,274.180152l0.012425,0.001384l0.00116,-0.014972l-0.018164,-0.010791l-0.007586,0.011821l0.012165,0.012559Z M694.596808,273.582501l0.018635,0.009229l0.010311,-0.006856l-0.01771,-0.024755l-0.024111,-0.010807l-0.007092,0.015153l0.019967,0.018035Z M694.596808,273.582501l0.018635,0.009229l0.010311,-0.006856l-0.01771,-0.024755l-0.024111,-0.010807l-0.007092,0.015153l0.019967,0.018035Z M695.49583,274.48589l0.009699,0.001395l0.006928,-0.011163l-0.013855,-0.006977l-0.009699,0.005581l0.006928,0.011163Z M695.395904,273.964367l-0.003941,-0.011242l-0.010992,0.002003l-0.002086,0.012692l0.009248,0.006757l0.007771,-0.01021Z M696.259471,275.129566l0.000415,-0.017864l-0.012566,-0.008797l-0.015823,0.010308l0.001537,0.017692l0.011504,0.0079l0.014933,-0.009239Z M696.247923,275.137085l0.013855,-0.011163l-0.001386,-0.015349l-0.018012,-0.005581l-0.01247,0.012558l0.001386,0.013954l0.016626,0.005581Z M697.829321,274.792775l-0.014437,-0.017171l-0.013968,-0.00215l0.000115,0.011921l0.011478,0.013117l0.016452,0.007515l0.000359,-0.013233Z M695.515223,273.615228l0.002821,0.016083l0.013298,0.014825l0.007521,-0.009207l-0.005592,-0.020917l-0.01242,-0.010502l-0.005628,0.009717Z M696.539736,273.976507l0.042627,0.016698l0.010898,-0.026014l-0.021422,-0.032675l-0.037877,-0.017979l-0.022944,0.01901l0.028718,0.040961Z M694.563011,273.513088l-0.020864,-0.049029l-0.055639,-0.031519l-0.003477,0.015759l0.043468,0.036772l0.027819,0.042025l0.008694,-0.014008Z M694.493462,273.845784l0.036513,0.001751l0.019126,-0.035021l-0.01391,-0.029768l-0.066071,-0.024514l-0.026081,0.008755l0.003477,0.040274l0.046945,0.038523Z M694.95422,273.602391l-0.003477,0.021012l0.01391,0.010506l0.017387,-0.007004l0.001739,-0.015759l-0.01391,-0.010506l-0.015648,0.001751Z M695.416716,273.840531l0.022603,0.021012l0.015648,-0.007004l-0.008694,-0.022763l-0.020864,-0.012257l-0.015648,0.003502l0.006955,0.01751Z M695.404545,274.006879l0.027819,0.010506l0.012171,-0.007004l-0.005216,-0.014008l-0.029558,-0.010506l-0.01391,0.007004l0.008694,0.014008Z M694.997688,273.598889l0.078242,0.047278l0.005216,0.019261l-0.01391,0.003502l-0.038252,-0.031519l-0.01391,0.008755l0.001739,0.042025l0.041729,0.061286l0.116493,0.056033l0.01391,0.022763l0.001739,0.029768l0.076503,0.080547l0.034774,0.015759l0.045206,-0.012257l0.027819,-0.026265l-0.005216,-0.026265l-0.034774,-0.031519l-0.057377,-0.096307l-0.0539,-0.036772l-0.074764,-0.024514l-0.038252,-0.056033l-0.081719,-0.05078l-0.001739,-0.022763l-0.017387,-0.022763l-0.036513,-0.021012l-0.057377,-0.117319l-0.041729,-0.054282v-0.026265l-0.012171,-0.01751l-0.022603,-0.012257l-0.006955,-0.05078l0.019126,-0.031519l0.003477,-0.162846l-0.01391,-0.042025l0.010432,-0.014008l0.017387,0.012257l0.015648,0.028016l0.048684,0.028016l0.0539,0.061286l0.017387,0.056033l0.041729,0.047278l0.151268,0.126074l0.033035,0.005253l0.019126,-0.015759l-0.020864,-0.03327l0.010432,-0.005253l0.031297,0.026265h0.022603l0.012171,-0.012257l-0.008694,-0.022763l0.012171,-0.010506l0.015648,0.014008l0.012171,-0.008755l-0.008694,-0.028016l0.008694,-0.008755l0.043468,0.001751l0.008694,-0.014008l-0.033035,-0.021012l-0.069548,-0.015759l-0.048684,-0.026265l0.001739,-0.024514l0.034774,-0.021012l0.001739,-0.035021l-0.045206,-0.06829l-0.052161,-0.026265l-0.050423,-0.080547v-0.028016l-0.01391,-0.036772l-0.022603,-0.014008l-0.003477,-0.031519l0.057377,-0.078796v-0.022763l-0.017387,-0.019261l-0.003477,-0.036772l-0.020864,-0.045527l-0.06781,-0.071792l-0.006955,-0.031519l0.019126,-0.012257l0.031297,0.008755l0.027819,-0.003502l0.010432,-0.036772l-0.052161,-0.227634l-0.038252,-0.084049v-0.057784l0.041729,-0.089303l0.001739,-0.061286l-0.010432,-0.026265v-0.029768l0.029558,-0.064788l-0.005216,-0.038523l0.01391,-0.008755l0.019126,0.007004l0.027819,-0.024514l0.010432,-0.045527l-0.027819,-0.059535l-0.022603,-0.022763l-0.033035,-0.001751l-0.041729,0.019261l-0.043468,-0.001751l-0.048684,-0.035021l-0.113016,-0.175103l-0.071287,-0.183858l-0.005216,-0.043776l-0.045206,-0.105062l-0.010432,-0.131327l0.017387,-0.061286l0.029558,-0.022763l0.001739,-0.031519l-0.027819,-0.052531l-0.059116,-0.03327l-0.059116,-0.003502l-0.024342,-0.021012l-0.038252,0.005253l-0.029558,0.035021l-0.046945,0.124323l-0.073026,0.06829l0.001739,0.024514l0.020864,0.007004l0.003477,0.022763l-0.010432,0.022763l0.010432,0.026265l0.052161,0.029768l0.027819,0.049029l0.010432,0.059535l0.038252,0.031519l0.092151,0.029768l0.045206,0.036772l0.026081,0.082298v0.031519l-0.024342,0.045527l0.008694,0.06829l0.038252,0.03327l0.048684,0.024514l0.043468,0.077045l0.076503,0.061286l0.015648,0.038523l-0.012171,0.008755l-0.036513,-0.019261l-0.031297,0.001751l-0.027819,0.026265l0.001739,0.031519l0.050423,0.084049l0.001739,0.063037l-0.026081,0.012257l-0.03999,-0.008755l-0.041729,-0.005253h-0.043468l-0.034774,-0.012257l-0.064332,-0.110315l-0.055639,-0.057784l-0.027819,0.001751l-0.020864,0.057784v0.092805l0.050423,0.082298l0.01391,0.071792l-0.006955,0.024514l0.003477,0.021012l0.033035,0.029768l0.012171,0.047278l-0.012171,0.040274v0.078796l0.045206,0.06829h0.015648l0.006955,-0.019261h0.027819l0.034774,0.036772l0.003477,0.057784l-0.006955,0.031519l0.03999,0.182107l0.020864,0.024514h0.017387l0.010432,-0.014008l0.024342,0.005253l0.003477,0.040274l-0.019126,0.03327l0.001739,0.029768l0.026081,0.031519l0.001739,0.043776l-0.017387,0.045527l-0.017387,0.001751l-0.024342,-0.012257h-0.079981l-0.066071,-0.05078l-0.017387,0.005253l-0.003477,0.131327l0.033035,0.099809l0.066071,0.098058l0.060855,0.073543l0.041729,0.094556l-0.010432,0.01751l-0.052161,0.03327l-0.010432,0.029768l0.008694,0.035021l-0.005216,0.049029l0.050423,0.040274l0.034774,-0.001751l0.034774,-0.028016l0.001739,-0.035021l0.019126,-0.003502l0.027819,0.026265l0.038252,0.007004l0.036513,0.045527Z M695.408023,274.036647l-0.036513,-0.026265l-0.026081,0.010506v0.052531l0.065202,0.034145l0.078242,-0.00788l0.010432,-0.031519l-0.091282,-0.031519Z M695.595803,274.603981l0.070418,0.026265l0.044337,0.047278l0.083458,0.039398l0.020864,-0.010506l-0.065202,-0.070917l-0.106931,-0.057784l-0.062593,-0.060411l-0.033905,-0.005253l-0.018256,0.018386l0.06781,0.073543Z M695.953107,274.82461l0.015648,0.036772l0.033905,0.013133l0.033905,-0.00788l0.002608,-0.039398l-0.046945,-0.034145h-0.062593l-0.002608,0.023639l0.026081,0.00788Z M696.169576,274.940179h0.039121l-0.005216,-0.039398l0.020864,-0.010506l0.049553,0.021012l0.031297,-0.010506l0.002608,-0.026265l-0.117363,-0.081423l-0.023473,0.00788l0.007824,0.031519l-0.018256,0.015759l-0.049553,0.005253l-0.015648,0.031519l0.078242,0.055157Z M695.877474,274.349206l0.033905,0.034145l0.033905,0.086676l0.088674,0.063037l0.028689,-0.010506l-0.018256,-0.052531l-0.062593,-0.055157l-0.01304,-0.049904l0.005216,-0.042025l-0.018256,-0.047278l-0.078242,-0.034145l-0.054769,0.031519l0.007824,0.052531l0.046945,0.023639Z M696.683364,274.11807l0.169524,0.14446l0.075634,0.021012l0.023473,-0.010506l-0.109539,-0.07617l-0.119971,-0.128701l-0.049553,-0.018386l-0.023473,0.013133l0.033905,0.055157Z M696.146104,274.435882l0.002608,0.026265l0.059985,0.021012l0.075634,0.06829l0.09389,0.021012l0.031297,-0.028892l-0.015648,-0.063037l-0.06781,-0.060411l-0.007824,-0.049904l0.046945,-0.060411l-0.018256,-0.070917l-0.054769,-0.031519h-0.044337l-0.033905,0.044651l-0.002608,0.089303l0.026081,0.044651l-0.015648,0.028892l-0.075634,0.021012Z M696.307804,272.81005l0.099106,0.124843l0.070418,0.053762l0.011329,-0.009111l-0.058192,-0.076744l-0.114836,-0.113762l-0.06781,-0.039398l-0.005216,0.013133l0.065202,0.047278Z M696.448476,272.891637l0.047108,0.033981l0.052161,-0.005253l0.033905,-0.034145l-0.020864,-0.078796l-0.224293,-0.225883l-0.224293,-0.191738l0.005216,-0.023639l0.046945,-0.013133l0.018256,-0.060411l-0.041729,-0.034145l-0.078242,-0.005253l-0.033905,0.028892l-0.036513,0.002627l-0.083458,-0.021012l-0.015648,0.018386l0.036513,0.057784l0.083458,0.055157l0.044337,0.065664l-0.018256,0.010506l-0.062593,-0.036772l-0.018256,0.010506l0.018256,0.065664l-0.020864,0.005253l-0.091282,-0.044651l-0.049553,0.00788l-0.007824,0.036772l0.057377,0.099809l0.122579,0.047278l0.112147,0.00788l0.033905,-0.018386l0.117363,0.034145l0.19805,0.205035Z M698.008259,274.582968l-0.015648,-0.042025l-0.164308,-0.13658h-0.057377l-0.026081,-0.023639l-0.007824,-0.039398l-0.057377,-0.055157l-0.039121,-0.010506l-0.039121,-0.023639l-0.015648,-0.034145l-0.049553,-0.049904l-0.028689,-0.042025l-0.041729,-0.026265l-0.049553,-0.015759l-0.070418,-0.073543l-0.083458,-0.055157l-0.020864,0.002627l0.015648,0.097182l0.044337,0.081423l-0.020864,0.002627l-0.190388,-0.170725l-0.026081,-0.052531l-0.070418,-0.063037l-0.033905,-0.057784l-0.127795,-0.099809l-0.057377,-0.026265l-0.007824,-0.042025l0.026081,-0.00788l0.083458,0.042025l0.028689,0.039398l0.062593,0.039398l0.054769,0.00788l0.059985,0.034145l0.028689,0.044651l0.044337,0.021012l0.08085,0.023639l0.036513,0.044651l0.086066,0.047278l0.01304,-0.018386l-0.049553,-0.055157l-0.039121,-0.078796l-0.109539,-0.07617l-0.112147,-0.036772l-0.117363,-0.112941l-0.015648,-0.073543l-0.166916,-0.141833l-0.109539,-0.028892l-0.036513,0.018386l-0.005216,0.047278l0.033905,0.057784l0.005216,0.044651l-0.020864,-0.002627l-0.075634,-0.110315l-0.091282,-0.078796l-0.252982,-0.307306l-0.109539,-0.081423l-0.020864,0.010506l0.01304,0.042025l0.091282,0.131327l0.052161,0.034145l0.049553,0.094556l0.052161,0.036772l0.135619,0.168099l0.078242,0.049904l0.049553,0.091929l0.020864,0.086676l0.020864,0.021012l0.044337,0.013133l0.086066,0.107688l-0.007824,0.036772l-0.046945,0.010506l-0.01304,0.023639l0.065202,0.070917l0.06781,0.036772l0.083458,0.00788l0.065202,0.028892l0.208645,0.202244l0.023473,0.049904l-0.015648,0.031519l0.005216,0.028892l0.039121,0.005253l0.057377,-0.005253l0.020864,-0.026265l0.020864,-0.010506l0.096498,0.036772l0.057377,0.06829l-0.020864,0.026265h-0.033905l-0.033905,0.023639v0.055157l0.049553,0.026265v0.031519l-0.023473,0.021012l0.005216,0.036772l0.075634,0.057784l0.182564,0.105062h0.028689l-0.007824,-0.021012l-0.135619,-0.099809l-0.015648,-0.039398l0.020864,-0.018386l0.195605,0.073543l0.078242,0.005253l0.041729,-0.031519l0.002608,-0.039398l-0.143443,-0.110315l0.007824,-0.013133l0.151268,0.097182l0.088674,0.031519l0.01304,-0.015759l-0.018256,-0.031519Z M697.14673,274.714296l0.052161,0.070041l0.078242,0.043776l0.060855,-0.014008l0.036513,-0.035021l0.055639,-0.008755l0.060855,0.024514l0.020864,0.031519l0.020864,0.007004l0.017387,-0.010506l0.003477,-0.022763l-0.081719,-0.073543l-0.220816,-0.080547l-0.099106,-0.012257l-0.019126,0.019261l0.01391,0.061286Z M696.378221,275.150302l0.06781,0.081423l0.023473,-0.002627l-0.005216,-0.031519l-0.057377,-0.084049l0.005216,-0.018386l0.033905,0.002627l0.177348,0.112941l0.054769,0.013133l0.033905,-0.015759l0.01304,-0.036772l-0.059985,-0.042025l-0.075634,-0.015759l-0.153876,-0.105062l-0.104322,-0.044651l-0.028689,0.013133l0.075634,0.173352Z M696.897225,275.315775l0.179956,0.199618l0.08085,0.036772l0.015648,-0.018386l-0.007824,-0.047278l-0.039121,-0.044651l-0.088674,-0.049904l-0.153876,-0.147087l-0.018256,0.00788l0.031297,0.063037Z M697.309299,275.457608l0.031297,0.084049l0.359912,0.341451l0.031297,0.049904l0.073026,0.047278l0.039121,-0.005253l0.015648,-0.026265l0.028689,0.002627l0.04086,0.070917l0.057377,0.03327l0.024342,-0.01751l-0.017387,-0.06829l-0.106061,-0.10156l-0.041729,-0.010506l-0.03999,-0.038523l-0.034774,-0.073543l-0.069548,-0.054282l-0.064332,-0.031519l-0.196474,-0.150589l-0.059116,-0.03327l-0.041729,-0.045527l-0.022603,0.001751l-0.007824,0.02539Z M697.350159,275.864723l0.036513,0.054282l0.057377,0.029768l0.182564,0.162846l0.020864,-0.007004l-0.024342,-0.064788l-0.099106,-0.098058l-0.034774,-0.070041l-0.102584,-0.073543l-0.033035,0.001751l-0.003477,0.064788Z M698.096064,276.179908l0.060855,0.10156l0.071287,0.071792l0.078242,0.022763l0.100845,0.099809l0.003477,0.040274l0.029558,0.024514l0.066071,-0.001751l0.059116,0.042025l0.149529,0.052531l0.026081,-0.021012l-0.020864,-0.061286l-0.085197,-0.070041l-0.055639,-0.01751l-0.052161,-0.043776l-0.022603,-0.066539l-0.060855,-0.06829l-0.092151,-0.035021l-0.073026,-0.078796l-0.165177,-0.091054l-0.081719,-0.014008l-0.026081,0.01751l0.090413,0.096307Z M697.897851,276.738487l0.060855,0.059535l0.015648,0.049029l0.071287,0.073543l0.060855,0.019261l0.196474,0.159344l0.088674,0.026265l0.09389,0.054282l0.217338,0.127825l0.059116,0.012257l0.003477,-0.012257l-0.057377,-0.024514l-0.206906,-0.120821l-0.078242,-0.057784l-0.008694,-0.024514l-0.048684,-0.042025l-0.01391,-0.028016l-0.038252,-0.03327l-0.059116,-0.022763l-0.226032,-0.183858l-0.001739,-0.031519l-0.022603,-0.021012l-0.09389,-0.021012l-0.020864,0.015759l0.008694,0.026265Z M698.273412,276.736736l-0.005216,-0.042025l-0.029558,-0.026265l-0.015648,0.007004l0.006955,0.022763l-0.015648,0.012257l-0.064332,-0.031519l-0.012171,-0.031519l-0.045206,-0.022763l-0.03999,-0.001751l-0.017387,0.01751l0.015648,0.026265l0.066071,0.03327l0.027819,0.022763l0.019126,0.036772l0.071287,0.05078l0.052161,0.019261l0.130403,0.11907l0.015648,-0.008755l-0.074764,-0.10156l-0.046945,-0.047278l-0.038252,-0.054282Z M697.151946,275.425214l0.057377,0.05078l0.045206,0.010506l0.003477,-0.01751l-0.050423,-0.056033l-0.055639,-0.03327l-0.019126,0.005253l0.019126,0.040274Z M696.745088,275.321903l0.069548,0.035021l0.015648,-0.003502l-0.017387,-0.035021l-0.055639,-0.040274l-0.043468,-0.005253l-0.003477,0.014008l0.034774,0.035021Z M696.672063,275.386691l0.1078,0.059535l0.057377,0.015759l0.005216,-0.015759l-0.069548,-0.061286l-0.114755,-0.043776l-0.012171,0.014008l0.026081,0.031519Z M697.258007,276.001303l0.034774,0.05078l0.0539,0.035021l0.019126,-0.005253l-0.005216,-0.036772l-0.064332,-0.078796l-0.033035,-0.021012l-0.015648,0.010506l0.010432,0.045527Z M697.788313,276.423302l0.045206,0.045527l0.034774,0.008755l0.010432,-0.015759l-0.038252,-0.056033l-0.046945,-0.024514l-0.015648,0.005253l0.010432,0.036772Z M698.125622,276.45482l0.050423,0.022763l0.03999,0.038523l0.01391,-0.005253l-0.006955,-0.028016l-0.048684,-0.043776l-0.050423,-0.015759l-0.015648,0.010506l0.017387,0.021012Z M698.880221,276.805026l0.038252,0.022763h0.033035l0.010432,-0.014008l-0.012171,-0.022763l-0.059116,-0.019261l-0.024342,0.010506l0.01391,0.022763Z M699.040182,276.789267l0.029558,0.015759l0.026081,0.001751l0.001739,-0.024514l-0.022603,-0.026265l-0.036513,-0.010506l-0.017387,0.014008l0.019126,0.029768Z M698.250809,277.170992l0.085197,0.03327l0.012171,-0.010506l-0.048684,-0.03327l-0.06781,-0.024514l-0.006955,0.012257l0.026081,0.022763Z M698.388167,277.263796l0.03999,0.012257l0.029558,-0.012257l0.003477,-0.028016l-0.034774,-0.015759l-0.031297,0.001751l-0.017387,0.01751l0.010432,0.024514Z M697.969138,276.950362l0.046945,0.007004l0.012171,-0.014008l-0.029558,-0.022763l-0.071287,-0.026265l-0.015648,0.008755l0.057377,0.047278Z M698.826321,277.487928l0.059116,0.029768l0.085197,0.031519l0.01391,-0.010506l-0.01391,-0.015759l-0.076503,-0.022763l-0.066071,-0.042025l-0.01391,0.007004l0.012171,0.022763Z M699.95822,277.346095l0.031297,0.049029l0.026081,0.007004l0.019126,-0.024514l-0.008694,-0.036772l-0.0539,-0.043776l-0.022603,0.005253l0.008694,0.043776Z M700.10601,277.521198l0.126926,0.085801l0.026081,0.042025l0.022603,0.001751v-0.022763l-0.019126,-0.084049l-0.064332,-0.070041l-0.041729,-0.010506l-0.022603,0.014008h-0.029558l-0.015648,0.015759l0.017387,0.028016Z M699.909536,277.442401l0.022603,0.001751l0.012171,-0.026265l-0.015648,-0.035021l-0.057377,-0.036772l-0.022603,0.001751l-0.001739,0.038523l0.062593,0.056033Z M699.791304,277.486177l0.020864,0.038523l0.045206,0.024514l0.06781,0.008755l0.003477,-0.01751l-0.041729,-0.035021l-0.043468,-0.010506l-0.019126,-0.029768l-0.019126,-0.003502l-0.01391,0.024514Z M699.441824,277.482675l0.078242,0.057784l0.045206,0.038523l0.046945,0.008755l0.01391,-0.010506l-0.010432,-0.024514l-0.057377,-0.036772l-0.026081,0.001751l-0.055639,-0.03327l-0.041729,-0.036772l-0.012171,0.008755l0.019126,0.026265Z M699.579182,277.437148l0.012171,0.036772l0.055639,0.064788l0.003477,0.029768l0.059116,0.026265l0.024342,-0.003502l0.019126,-0.054282l-0.01391,-0.015759l-0.033035,-0.005253l-0.085197,-0.089303l-0.046945,-0.021012l-0.010432,0.010506l0.015648,0.021012Z M699.300988,277.636766l0.043468,0.026265h0.031297l0.020864,0.007004l0.026081,0.038523l0.050423,0.040274l0.097368,0.028016l0.059116,0.001751l0.088674,0.024514h0.029558l-0.001739,-0.015759l-0.099106,-0.05078h-0.034774l-0.026081,-0.014008l-0.033035,-0.042025l-0.0539,-0.035021l-0.090413,-0.029768l-0.062593,-0.007004l-0.03999,-0.014008l-0.015648,0.007004l0.010432,0.035021Z M696.386915,275.416459l0.006955,0.036772l0.043468,0.043776l0.126926,0.066539l0.020864,-0.001751l0.005216,-0.024514l0.019126,-0.001751l0.043468,0.026265l0.12171,0.106813l0.034774,0.061286l0.060855,0.05078l0.099106,0.057784l0.109539,0.112066l0.06781,0.094556l0.010432,0.042025l0.1078,0.134829l0.031297,0.070041l0.09389,0.092805l0.055639,0.085801l0.203429,0.180356l0.118232,0.073543l0.024342,-0.001751l0.005216,-0.036772l-0.020864,-0.014008h-0.026081l-0.038252,-0.022763l-0.019126,-0.036772l-0.026081,-0.012257l-0.029558,0.008755l-0.017387,-0.019261l-0.001739,-0.038523l-0.024342,-0.028016l-0.026081,-0.005253l-0.010432,-0.029768l0.01391,-0.01751l0.024342,0.001751l0.045206,0.052531l0.003477,0.028016l0.027819,0.019261l0.052161,0.001751l0.092151,0.054282l0.036513,-0.001751l0.036513,-0.040274l-0.003477,-0.028016l-0.052161,-0.036772l-0.050423,-0.008755l-0.078242,-0.049029l-0.022603,-0.049029l-0.088674,-0.071792l-0.050423,-0.019261l-0.038252,-0.052531v-0.043776l-0.043468,-0.028016l-0.036513,-0.003502l-0.012171,0.015759l-0.036513,-0.008755l-0.119971,-0.103311l-0.102584,-0.159344l-0.003477,-0.056033l-0.050423,-0.108564l-0.031297,-0.026265l-0.043468,0.003502l-0.090413,-0.03327l-0.086935,-0.06829l-0.008694,-0.047278l-0.020864,-0.01751l-0.043468,-0.003502l-0.0539,-0.056033l-0.01391,-0.052531l-0.090413,-0.078796l-0.083458,-0.05078l-0.020864,0.003502l-0.001739,0.022763l0.045206,0.040274l0.029558,0.066539l-0.015648,0.005253l-0.034774,-0.026265l-0.034774,-0.001751l-0.015648,0.019261h-0.019126l-0.03999,-0.043776v-0.01751l0.01391,-0.014008l-0.005216,-0.010506l-0.027819,0.005253l-0.019126,0.022763Z M701.528273,278.398464l0.001739,0.021012l0.064332,0.026265l0.099106,0.012257l0.071287,-0.022763l0.106061,0.012257l0.090413,0.019261h0.179087l0.059116,-0.01751l-0.003477,-0.014008l-0.119971,-0.026265l-0.116493,-0.066539l-0.074764,-0.024514l-0.09389,0.007004l-0.060855,0.019261l-0.022603,0.049029l-0.031297,0.012257h-0.055639l-0.045206,-0.012257l-0.046945,0.005253Z M701.503931,278.830969l0.015648,0.054282l0.034774,0.028016l0.060855,0.001751l0.180826,0.057784l0.088674,0.043776l0.033035,0.036772l0.060855,0.031519l0.059116,0.005253l0.149529,0.071792l0.03999,-0.026265l-0.010432,-0.040274l-0.081719,-0.056033l-0.034774,-0.070041l-0.076503,-0.056033l-0.027819,-0.042025h-0.031297l-0.019126,0.024514l-0.022603,-0.007004l-0.003477,-0.043776l-0.184303,-0.071792l-0.18778,0.001751l-0.031297,0.014008l-0.012171,0.042025Z M700.994489,278.636604l0.050423,0.005253l0.038252,0.015759l0.022603,-0.003502l0.006955,-0.028016l-0.024342,-0.03327l-0.057377,-0.005253l-0.060855,0.015759l-0.005216,0.019261l0.029558,0.014008Z M701.173576,278.682131l0.017387,0.021012l0.066071,0.001751l0.123448,-0.028016l0.017387,-0.042025l-0.017387,-0.043776l-0.092151,-0.021012l-0.071287,0.03327l-0.043468,0.078796Z M702.357636,278.929027l0.052161,0.045527l0.005216,0.036772l0.022603,0.022763l-0.001739,0.015759l-0.057377,0.021012l-0.019126,0.028016l0.005216,0.026265l0.015648,0.024514l-0.010432,0.01751h-0.029558l-0.019126,-0.022763l-0.029558,-0.008755l-0.017387,0.012257l0.008694,0.035021l0.03999,0.047278l0.059116,0.01751l0.045206,-0.008755l0.055639,0.024514l0.017387,0.029768l0.104322,0.047278l0.029558,0.036772l0.151268,0.043776l0.208645,0.022763l0.064332,0.015759l0.118232,0.007004l0.027819,-0.012257h0.026081l0.059116,0.010506l0.074764,0.001751l0.050423,-0.015759l0.199951,0.003502l0.205167,-0.022763l0.09389,-0.022763l0.064332,-0.043776l0.029558,0.001751l0.019126,-0.014008l-0.005216,-0.026265l0.012171,-0.022763l0.031297,-0.019261l0.019126,-0.054282v-0.022763l-0.109539,-0.057784l-0.045206,-0.042025l-0.0539,-0.012257l-0.03999,0.014008l-0.050423,-0.010506l-0.003477,-0.028016l-0.015648,-0.01751l-0.126926,-0.035021l-0.352958,-0.057784l-0.262545,-0.029768l-0.052161,-0.019261l-0.135619,-0.012257l-0.055639,0.01751l-0.359912,-0.045527l-0.059116,0.001751l-0.019126,0.024514l0.015648,0.031519Z M703.22699,280.21691l0.005216,0.021012l0.119971,0.023639l0.125187,-0.018386l0.010432,-0.023639l-0.052161,-0.026265l-0.130403,-0.013133l-0.078242,0.036772Z M701.998593,279.849193l0.002608,0.026265l0.086066,0.028892l0.106931,0.021012l0.052161,-0.005253l0.002608,-0.021012l-0.138227,-0.034145l-0.041729,-0.028892l-0.041729,-0.002627l-0.028689,0.015759Z M702.340249,279.872832l0.135619,0.039398l0.036513,0.002627l0.026081,-0.005253l0.06781,0.005253l0.099106,0.047278l0.052161,0.031519l0.052161,0.005253l0.036513,-0.002627l0.08085,0.00788l0.258198,0.073543l0.130403,0.005253l0.104322,-0.018386l0.179956,-0.013133l0.185172,0.013133l0.179956,0.034145l0.359912,0.018386l0.08085,-0.013133l0.119971,0.010506l0.448587,-0.00788l0.054769,-0.021012l0.140835,-0.018386l0.007824,-0.023639l-0.070418,-0.034145l-0.099106,-0.010506l-0.065202,0.010506l-0.17474,-0.00788l-0.237334,-0.018386l-0.226901,-0.047278l-0.260806,-0.005253l-0.046945,-0.026265l-0.445978,-0.00788l-0.083458,0.015759l-0.06781,-0.010506l-0.049553,-0.036772l-0.031297,-0.063037l-0.046945,-0.042025l-0.031297,-0.073543l-0.049553,-0.028892l-0.179956,-0.002627l-0.073026,0.021012l-0.046945,-0.002627l-0.018256,-0.036772l0.01304,-0.034145l-0.023473,-0.026265l-0.065202,-0.002627l-0.109539,0.026265v0.031519l0.041729,0.023639l0.08085,0.015759l0.062593,0.060411l0.01304,0.063037l-0.028689,0.015759l-0.062593,-0.023639l-0.101714,-0.07617l-0.130403,-0.021012l-0.119971,0.018386l-0.135619,0.047278h-0.039121l-0.073026,-0.021012l-0.062593,0.00788l-0.007824,0.023639l0.216469,0.107688Z M707.512034,281.803343l0.057377,0.00788l0.005216,-0.018386l-0.031297,-0.034145l-0.135619,-0.047278l-0.01304,0.018386l0.117363,0.073543Z M707.658085,281.850621l0.143443,0.089303l0.049553,-0.00788l0.015648,-0.049904l-0.033905,-0.057784l-0.177348,-0.099809l-0.078242,-0.018386l-0.020864,0.015759l0.101714,0.128701Z M707.924108,282.050239l0.059985,0.00788l0.065202,-0.021012l0.007824,-0.021012l-0.057377,-0.042025l-0.057377,0.002627l-0.044337,0.044651l0.026081,0.028892Z M705.655094,281.559075l0.002608,0.036772l0.096498,0.049904l0.122579,0.036772l0.031297,-0.015759l0.059985,0.010506l0.036513,0.028892l0.104322,0.028892l0.065202,-0.00788l0.26863,0.070917l0.091282,0.044651l0.073026,0.013133l0.078242,-0.005253l0.159092,0.026265l0.190388,0.057784l0.015648,0.023639l0.039121,0.010506l0.036513,-0.010506l0.059985,0.013133l0.036513,0.028892h0.026081l0.007824,-0.028892l-0.041729,-0.060411l-0.258198,-0.115568l-0.044337,-0.005253l-0.033905,0.00788l-0.156484,-0.031519l-0.057377,-0.031519l-0.500748,-0.131327l-0.096498,-0.044651l-0.099106,-0.018386l-0.041729,-0.036772l-0.088674,-0.00788l-0.182564,0.063037Z M702.562803,281.72017l0.019126,0.012257l0.057377,-0.05078l0.069548,0.001751l0.022603,-0.01751l-0.010432,-0.028016l-0.062593,-0.012257l-0.060855,0.031519l-0.034774,0.063037Z M703.755557,281.70441l0.027819,-0.003502l0.001739,-0.03327l0.036513,-0.038523l-0.008694,-0.015759l-0.048684,0.003502l-0.033035,0.031519l-0.003477,0.036772l0.027819,0.019261Z M703.81815,281.681647l-0.008694,0.047278l0.01391,0.071792l0.038252,0.021012l0.052161,-0.001751l0.048684,-0.031519l0.048684,0.005253l0.036513,0.040274l0.081719,-0.008755l0.088674,-0.064788l0.022603,-0.091054l-0.027819,-0.029768l-0.239942,-0.029768l-0.099106,0.008755l-0.055639,0.063037Z M703.104411,280.666049v0.023639l0.039121,0.026265l0.083458,0.002627l0.117363,0.047278l-0.002608,0.031519l-0.114755,0.034145l-0.031297,0.036772l-0.052161,0.031519l-0.002608,0.047278l0.054769,0.039398l0.031297,-0.005253l0.018256,-0.026265l0.1617,0.00788l0.143443,0.060411l0.284279,0.031519l0.078242,-0.015759l0.020864,0.010506l-0.005216,0.018386l0.031297,0.015759l0.125187,-0.013133l0.135619,-0.06829l0.073026,-0.013133l0.036513,-0.034145l0.091282,-0.00788l0.195605,0.018386l0.200821,0.055157l0.156484,0.00788l0.065202,-0.021012h0.143443l0.026081,-0.015759l-0.007824,-0.023639l-0.086066,-0.021012l-0.052161,-0.034145l-0.031297,-0.07617l-0.125187,-0.055157l-0.271238,-0.060411l-0.138227,-0.00788l-0.062593,0.015759h-0.179956l-0.247766,0.06829h-0.117363l-0.135619,-0.039398l-0.250374,-0.047278l-0.075634,-0.042025l-0.101714,-0.023639l-0.119971,0.002627l-0.101714,0.018386Z M699.753052,280.503203l0.002608,0.021012l0.046945,0.023639l0.062593,-0.013133l0.028689,-0.031519l-0.007824,-0.023639l-0.057377,-0.005253l-0.075634,0.028892Z M700.76498,280.736966l-0.01304,0.065664l0.026081,0.013133l0.065202,-0.049904l-0.010432,-0.07617l-0.057377,-0.036772l-0.023473,0.015759l0.01304,0.06829Z M700.955368,280.366623l0.005216,0.031519l0.096498,0.018386l0.046945,0.039398l-0.002608,0.042025l-0.083458,0.065664l0.010432,0.026265l0.117363,0.005253l0.203429,-0.047278l0.166916,-0.00788l0.078242,-0.044651l0.026081,-0.047278l0.073026,-0.060411l0.020864,-0.057784l-0.046945,-0.039398l-0.099106,-0.005253l-0.059985,0.042025l-0.023473,-0.00788l-0.007824,-0.036772l-0.075634,-0.023639l-0.203429,0.010506l-0.148659,0.034145l-0.09389,0.063037Z M698.570897,277.407259l0.015403,-0.001785l-0.011397,-0.024614l-0.019548,-0.007165l-0.002671,0.017599l0.018212,0.015965Z M697.927387,276.647965l0.013868,-0.006983l-0.019069,-0.019204h-0.020802l0.003467,0.017458l0.022536,0.008729Z M708.894959,282.521852l0.004743,-0.013124l-0.00706,-0.014861l-0.017518,-0.009011l-0.004501,0.012819l0.007927,0.014785l0.016409,0.009392Z M699.855108,277.310252l-0.000557,-0.009343l-0.019855,-0.02068l-0.011044,0.002895l0.001816,0.008915l0.017084,0.015846l0.012556,0.002367Z M698.247017,276.545194l0.022932,0.009907l0.007148,-0.013544l-0.012492,-0.019636l-0.018233,0.004569l0.000644,0.018705Z M697.838502,276.714501l-0.01192,0.00891l0.00205,0.024644l0.016299,0.006487l0.012971,-0.013545l-0.001709,-0.019676l-0.01769,-0.00682Z M697.838502,276.714501l-0.01192,0.00891l0.00205,0.024644l0.016299,0.006487l0.012971,-0.013545l-0.001709,-0.019676l-0.01769,-0.00682Z M702.301917,279.917712l-0.006023,0.012597l-0.000411,0.011011l0.014218,-0.00447l0.006738,-0.008637l-0.000589,-0.01061l-0.013933,0.000109Z M702.301917,279.917712l-0.006023,0.012597l-0.000411,0.011011l0.014218,-0.00447l0.006738,-0.008637l-0.000589,-0.01061l-0.013933,0.000109Z M699.858877,277.621538v0.013912l0.013814,0.008347l0.012432,-0.008347l-0.006907,-0.013912h-0.019339Z M700.360292,277.691579l-0.002763,0.019477l0.011051,0.005565l0.013814,-0.012521l-0.006907,-0.012521h-0.015195Z M701.467539,278.866161l0.006546,0.017758l0.011412,-0.001064l0.002763,-0.018085l-0.012432,-0.008347l-0.008288,0.009738Z M699.499226,277.483615l0.006907,0.008347l0.011051,-0.002782l-0.001381,-0.013912l-0.013814,-0.002782l-0.002763,0.011129Z M697.832926,276.005025l0.006907,0.008347l0.011051,-0.002782l-0.001381,-0.013912l-0.013814,-0.002782l-0.002763,0.011129Z M696.509412,275.308018l0.006907,0.008347l0.011051,-0.002782l-0.001381,-0.013912l-0.013814,-0.002782l-0.002763,0.011129Z M707.900613,281.92207l0.013814,0.005565l0.008288,-0.005565l-0.002763,-0.013912h-0.013814l-0.005526,0.013912Z M701.910766,279.857604l0.013814,0.005565l0.008288,-0.005565l-0.002763,-0.013912h-0.013814l-0.005526,0.013912Z M702.265478,279.899692l-0.005201,0.012221l0.010401,0.008729l0.015602,-0.010475l-0.003467,-0.012221l-0.017335,0.001746Z M698.662236,277.349242l-0.011042,0.007287l0.003874,0.013065l0.018751,-0.000041l0.00382,-0.012113l-0.015403,-0.008198Z M698.032704,276.495742l0.022834,0.005907l0.00905,-0.008697l-0.019367,-0.023096l-0.024944,-0.001636l-0.007821,0.011551l0.020248,0.015971Z M698.032704,276.495742l0.022834,0.005907l0.00905,-0.008697l-0.019367,-0.023096l-0.024944,-0.001636l-0.007821,0.011551l0.020248,0.015971Z M698.720237,277.385227l0.022141,0.030063l0.012035,0.001262l0.005296,-0.011269l-0.030129,-0.043812l-0.014732,0.002616l0.005389,0.02114Z M698.955361,276.906833l0.025001,0.022151l0.011047,-0.00728l-0.012849,-0.033173l-0.021187,-0.010419l-0.014763,0.006167l0.01275,0.022554Z M698.955361,276.906833l0.025001,0.022151l0.011047,-0.00728l-0.012849,-0.033173l-0.021187,-0.010419l-0.014763,0.006167l0.01275,0.022554Z M698.667537,276.751216l0.028441,0.017442l0.009624,-0.009101l-0.018374,-0.030422l-0.022662,-0.006556l-0.013475,0.008655l0.016445,0.019982Z M698.667537,276.751216l0.028441,0.017442l0.009624,-0.009101l-0.018374,-0.030422l-0.022662,-0.006556l-0.013475,0.008655l0.016445,0.019982Z M701.634987,278.493886l0.010445,-0.010718l-0.015463,-0.00789l-0.023599,0.005963l0.005823,0.013148l0.022795,-0.000502Z M697.38521,276.175421l0.014867,0.001168l-0.003938,-0.017002l-0.019705,-0.014373l-0.006258,0.012943l0.015035,0.017263Z M697.38521,276.175421l0.014867,0.001168l-0.003938,-0.017002l-0.019705,-0.014373l-0.006258,0.012943l0.015035,0.017263Z M698.611717,276.648059l-0.005201,0.031424l0.020802,0.013093l0.033803,-0.013093v-0.023568l-0.023402,-0.013093l-0.026003,0.005237Z M698.801849,277.384232l0.018283,0.00837l0.016621,-0.016739l0.003324,-0.021761l-0.018283,-0.015065l-0.020923,0.011575l0.000977,0.033621Z M703.321848,281.055737l0.019592,0.002252l0.014403,-0.015447l-0.013334,-0.007848l-0.017458,-0.000056l-0.011249,0.010726l0.008046,0.010374Z M703.321848,281.055737l0.019592,0.002252l0.014403,-0.015447l-0.013334,-0.007848l-0.017458,-0.000056l-0.011249,0.010726l0.008046,0.010374Z M697.975964,276.591687l0.010881,0.016562l0.021008,0.001182l-0.002601,-0.015332l-0.01118,-0.013505l-0.015389,-0.001784l-0.002719,0.012876Z M697.975964,276.591687l0.010881,0.016562l0.021008,0.001182l-0.002601,-0.015332l-0.01118,-0.013505l-0.015389,-0.001784l-0.002719,0.012876Z M703.457694,281.689952l-0.062589,0.028112l-0.005298,0.017938l0.020315,0.00999l0.046026,-0.016672l0.015313,-0.028215l-0.013767,-0.011153Z M697.971421,276.98064l-0.004647,0.014234l0.010412,0.006982l0.021578,0.000074l0.001642,-0.014957l-0.015533,-0.009494l-0.013453,0.00316Z M697.971421,276.98064l-0.004647,0.014234l0.010412,0.006982l0.021578,0.000074l0.001642,-0.014957l-0.015533,-0.009494l-0.013453,0.00316Z M701.582869,280.541141l0.007064,0.013339l0.016777,-0.000889l0.006736,-0.013084l-0.008288,-0.012521l-0.013459,0.001595l-0.00883,0.01156Z M700.864274,278.491919l-0.019749,0.007451l-0.001671,0.011051l0.023046,0.008775l0.017381,-0.00809l-0.004566,-0.011456l-0.01444,-0.007731Z M700.864274,278.491919l-0.019749,0.007451l-0.001671,0.011051l0.023046,0.008775l0.017381,-0.00809l-0.004566,-0.011456l-0.01444,-0.007731Z M698.796741,277.52348l0.020802,0.003492l0.006934,-0.008729l-0.015602,-0.019204l-0.019069,-0.001746l-0.001734,0.012221l0.008668,0.013966Z M701.673164,280.512343l0.002333,-0.024629l-0.00974,-0.005361l-0.014841,0.010463l-0.000821,0.020914l0.009923,0.005462l0.013147,-0.006849Z M704.369272,281.652369l0.021569,-0.00007l0.004415,-0.01156l-0.009713,-0.013339l-0.019426,-0.001779l-0.005513,0.012782l0.008668,0.013966Z M703.249544,281.014994l0.021569,-0.00007l0.004415,-0.01156l-0.009713,-0.013339l-0.019426,-0.001779l-0.005513,0.012782l0.008668,0.013966Z M700.434603,277.621538l0.014128,-0.001779l0.003532,-0.016007l-0.012362,-0.010671l-0.015894,0.004446l-0.000883,0.013339l0.011479,0.010671Z M698.506079,277.327603l0.011391,-0.023137l-0.001472,-0.016917l-0.013416,0.007705l-0.010886,0.023728l0.004647,0.014234l0.009737,-0.005613Z M703.686761,281.690722l0.01519,-0.05584l-0.003351,-0.021831l-0.019819,-0.007177l-0.021751,0.033476l-0.003208,0.03843l0.01607,0.018808l0.01687,-0.005868Z M703.051261,280.705003l0.015873,-0.013413l-0.004306,-0.018154l-0.023354,-0.002058l-0.021334,0.019845l0.00731,0.017431l0.025811,-0.003651Z M697.854726,276.668879l0.007087,0.019609l0.018412,0.002134l0.009907,-0.021397l-0.01122,-0.026977l-0.018765,0.000956l-0.005421,0.025675Z M703.696874,281.750579l0.020544,0.010075l0.012602,-0.002101l-0.007222,-0.015211l-0.022496,-0.009903l-0.010309,0.00586l0.006881,0.011279Z M703.696874,281.750579l0.020544,0.010075l0.012602,-0.002101l-0.007222,-0.015211l-0.022496,-0.009903l-0.010309,0.00586l0.006881,0.011279Z M697.828688,275.817238l0.015241,-0.009767l0.004157,-0.019535l-0.011084,-0.011163l-0.013855,0.011163l-0.002771,0.015349l0.008313,0.013954Z M698.478231,277.293658l0.005542,-0.022326l-0.009699,-0.008372l-0.009699,0.012558l0.001386,0.016744l0.01247,0.001395Z M697.26855,275.79467l0.005542,-0.022326l-0.009699,-0.008372l-0.009699,0.012558l0.001386,0.016744l0.01247,0.001395Z M699.122319,276.790818l-0.002373,0.013914l0.013816,0.00239l0.009653,-0.009129l-0.004757,-0.013163l-0.016339,0.005989Z M700.071213,277.647804l0.006955,-0.012257l-0.012171,-0.007004l-0.012171,0.005253v0.014008h0.017387Z M699.79272,277.821022l0.013794,-0.002513l-0.002496,-0.013892l-0.011819,-0.006013l-0.010655,0.009004l0.011176,0.013414Z M699.79272,277.821022l0.013794,-0.002513l-0.002496,-0.013892l-0.011819,-0.006013l-0.010655,0.009004l0.011176,0.013414Z M698.504634,276.292353l0.006539,0.007347l0.012432,-0.004067l-0.006161,-0.014314l-0.010992,-0.002003l-0.001818,0.013036Z M698.066484,276.416829l0.009699,0.001395l0.006928,-0.011163l-0.013855,-0.006977l-0.009699,0.005581l0.006928,0.011163Z M702.092678,279.950847h0.01247l0.006928,-0.013954l-0.008313,-0.008372l-0.013855,-0.002791l-0.004157,0.012558l0.006928,0.012558Z M700.061868,277.423234h0.01247l0.006928,-0.013954l-0.008313,-0.008372l-0.013855,-0.002791l-0.004157,0.012558l0.006928,0.012558Z M700.021066,277.596687l0.001386,-0.012558l-0.01247,-0.002791l-0.011084,0.008372l0.008313,0.009767l0.013855,-0.002791Z M698.104056,276.472205l-0.01247,0.004186v0.015349l0.01247,0.002791l0.004157,-0.011163l-0.004157,-0.011163Z M698.380536,277.00963l0.014176,0.004694l0.008906,-0.010689l-0.002428,-0.016623l-0.014896,-0.001659l-0.007845,0.011586l0.002086,0.012692Z M698.380536,277.00963l0.014176,0.004694l0.008906,-0.010689l-0.002428,-0.016623l-0.014896,-0.001659l-0.007845,0.011586l0.002086,0.012692Z M698.661909,277.400252v0.013954l0.01247,0.006977l0.011084,-0.009767l0.001386,-0.013954l-0.006928,-0.006977l-0.018012,0.009767Z M700.387609,277.784349l-0.011999,0.006977l0.000235,0.014364l0.013941,0.004784l0.012692,-0.005768l0.002536,-0.00953l-0.017405,-0.010826Z M700.387609,277.784349l-0.011999,0.006977l0.000235,0.014364l0.013941,0.004784l0.012692,-0.005768l0.002536,-0.00953l-0.017405,-0.010826Z M698.287001,276.714586v0.013954l0.01247,0.006977l0.011084,-0.009767l0.001386,-0.013954l-0.006928,-0.006977l-0.018012,0.009767Z M704.337594,281.634846l0.011084,-0.011163l-0.004157,-0.015349h-0.01247l-0.009699,0.012558l0.002771,0.016744l0.01247,-0.002791Z M701.217248,278.761947l0.015141,0.004086l0.011121,-0.0113l-0.006235,-0.010876l-0.015649,-0.00218l-0.013013,0.010789l0.008635,0.00948Z M701.217248,278.761947l0.015141,0.004086l0.011121,-0.0113l-0.006235,-0.010876l-0.015649,-0.00218l-0.013013,0.010789l0.008635,0.00948Z M699.777614,277.623043l0.014207,0.006672l0.0129,-0.009183l-0.004265,-0.011801l-0.015035,-0.004883l-0.014676,0.008349l0.006869,0.010846Z M699.777614,277.623043l0.014207,0.006672l0.0129,-0.009183l-0.004265,-0.011801l-0.015035,-0.004883l-0.014676,0.008349l0.006869,0.010846Z M700.370839,278.076806l0.014207,0.006672l0.0129,-0.009183l-0.004265,-0.011801l-0.015035,-0.004883l-0.014676,0.008349l0.006869,0.010846Z M700.370839,278.076806l0.014207,0.006672l0.0129,-0.009183l-0.004265,-0.011801l-0.015035,-0.004883l-0.014676,0.008349l0.006869,0.010846Z M698.061108,276.761821l0.011084,0.011163l0.015241,-0.004186v-0.012558l-0.01247,-0.009767l-0.016626,0.002791l0.002771,0.012558Z M698.061108,276.761821l0.011084,0.011163l0.015241,-0.004186v-0.012558l-0.01247,-0.009767l-0.016626,0.002791l0.002771,0.012558Z M698.745227,276.805143l0.012841,0.009055l0.014288,-0.006788l-0.002165,-0.012367l-0.013965,-0.007438l-0.015893,0.005656l0.004894,0.011883Z M698.745227,276.805143l0.012841,0.009055l0.014288,-0.006788l-0.002165,-0.012367l-0.013965,-0.007438l-0.015893,0.005656l0.004894,0.011883Z M698.044793,277.033425l0.021028,0.007601l0.013164,-0.005171l-0.006018,-0.010266l-0.016453,-0.00558l-0.017979,0.001776l0.006259,0.01164Z M698.33706,276.57275l-0.019397,-0.011163l-0.013855,0.002791l0.004157,0.011163l0.015241,0.008372l0.018012,0.001395l-0.004157,-0.012558Z M700.310276,277.633186l0.000005,0.016332l0.01054,0.016925l0.008994,-0.007752l-0.0019,-0.021577l-0.010421,-0.012514l-0.007218,0.008585Z M701.422356,278.821892l-0.011479,-0.01479l-0.017096,0.001215l-0.00353,0.012125l0.016697,0.017134l0.016374,0.002908l-0.000966,-0.018591Z M708.597168,282.268311l0.016621,0.021761l0.019946,0.003348l0.006649,-0.015065l-0.019946,-0.020087l-0.016621,-0.005022l-0.006649,0.015065Z M699.960367,277.560774l-0.005868,0.02681l0.010274,0.017539l0.015733,-0.004555l0.002458,-0.028299l-0.006864,-0.016051l-0.015733,0.004555Z M699.960367,277.560774l-0.005868,0.02681l0.010274,0.017539l0.015733,-0.004555l0.002458,-0.028299l-0.006864,-0.016051l-0.015733,0.004555Z M697.545637,276.283002l0.016621,0.021761l0.019946,0.003348l0.006649,-0.015065l-0.019946,-0.020087l-0.016621,-0.005022l-0.006649,0.015065Z M698.566635,276.655709l-0.011897,-0.019082l-0.025143,-0.011319l-0.005871,0.010466l0.014243,0.024147l0.025143,0.011319l0.003525,-0.015532Z M699.158881,276.851513l0.01185,-0.008643l0.002625,-0.013182l-0.011777,-0.009235l-0.011336,0.002727l-0.008628,0.014143l0.004177,0.011546l0.013089,0.002644Z M699.241774,277.392029l0.011235,0.006951l0.011336,-0.002727l0.005305,-0.009965l-0.006315,-0.012479l-0.011492,-0.003993l-0.013988,0.00771l0.00392,0.014504Z M699.241774,277.392029l0.011235,0.006951l0.011336,-0.002727l0.005305,-0.009965l-0.006315,-0.012479l-0.011492,-0.003993l-0.013988,0.00771l0.00392,0.014504Z M698.582945,277.361043l0.009711,0.009577l0.016669,0.004493l0.012988,-0.012322l-0.009683,-0.017776l-0.019477,-0.002755l-0.009638,0.008301l-0.000569,0.010483Z M698.582945,277.361043l0.009711,0.009577l0.016669,0.004493l0.012988,-0.012322l-0.009683,-0.017776l-0.019477,-0.002755l-0.009638,0.008301l-0.000569,0.010483Z M707.348413,281.688035l0.009811,-0.017114l-0.003831,-0.014397l-0.016036,-0.006281l-0.012684,0.006316l-0.005934,0.02089l0.009191,0.01295l0.019481,-0.002364Z M697.878948,276.785702l0.00633,0.011293l0.014624,0.012358l0.016066,0.00433l0.005813,-0.006976l-0.009457,-0.018559l-0.01604,-0.012234l-0.015819,-0.001479l-0.001517,0.011267Z M697.878948,276.785702l0.00633,0.011293l0.014624,0.012358l0.016066,0.00433l0.005813,-0.006976l-0.009457,-0.018559l-0.01604,-0.012234l-0.015819,-0.001479l-0.001517,0.011267Z M704.369101,281.681024l-0.005797,-0.010919l-0.020351,0.000006l-0.010248,0.007483l0.011443,0.016303l0.014855,0.000145l0.010097,-0.013018Z M704.428471,281.624384l0.019069,-0.003492l0.003467,-0.013966l-0.015602,-0.010475h-0.02947l-0.006934,0.013966l0.02947,0.013966Z M708.15968,282.035011l-0.020864,0.023639l0.020864,0.031519l0.075634,0.002627l0.007824,-0.028892l-0.028689,-0.026265l-0.054769,-0.002627Z  M691.830496,269.340464l0.067,0.055l0.061,0.021l0.054,0.004l0.08,0.038l0.038,0.039l0.039,0.001l0.059,-0.053l0.038,-0.001l0.03,0.009l0.036,-0.006l0.035,-0.028l0.081,-0.003l0.049,-0.027l0.084,0.007l0.053,0.032l0.013,0.032l-0.005,0.028l0.046,0.046l0.129,0.026l0.075,0.029l0.043,-0.01l0.065,-0.092l0.043,-0.025l0.105,-0.017l0.057,0.003l0.037,0.028l0.028,-0.003l0.031,-0.031l0.012,-0.051l0.028,-0.032l0.001,-0.038l-0.054,-0.05l-0.046,-0.017l-0.015,-0.039l0.031,-0.041l0.025,-0.001l0.058,0.024l0.022,-0.009l-0.007,-0.026l0.022,-0.018l0.031,0.001l0.104,0.087l0.049,0.018l0.063,0.047l0.07,0.018l0.086,0.005l0.079,0.029l0.035,-0.002l0.042,-0.022l0.084,0.007l0.096,0.042l0.022,-0.003l0.005,-0.036l-0.008,-0.024l0.061,-0.072l0.046,-0.023l0.037,0.004l0.06,0.081l0.029,0.007l0.039,-0.028l0.036,0.009l0.026,0.025l0.043,0.013l0.023,-0.01l0.02,0.01l0.014,0.037l0.02,0.004l0.066,-0.048l0.058,-0.007l0.123,-0.044l0.024,-0.047l0.045,-0.029l0.059,0.004l0.098,-0.052l0.06,-0.057l0.062,-0.018l0.036,-0.039l0.011,-0.048l-0.018,-0.056l0.01,-0.055l0.026,-0.037l0.003,-0.044l-0.022,-0.028l0.004,-0.028l0.03,-0.006l0.025,0.011l0.063,-0.026l0.126,-0.184l0.005,-0.092l0.014,-0.01l0.028,0.014l0.005,0.026l0.022,0.006l0.036,-0.022l0.039,0.011l0.011,0.032l-0.023,0.06l-0.007,0.053l-0.014,0.022l0.008,0.027l0.05,0.035l0.045,0.011l0.016,0.014v0.025l0.022,0.017l0.02,0.001l0.062,0.052l0.064,0.011l0.062,0.049l0.032,0.072l-0.015,0.029l-0.027,0.021l-0.006,0.088l0.015,0.025l0.023,0.01l0.017,-0.007v-0.022l0.053,-0.013l0.073,0.027l0.103,0.089l0.116,0.038l0.035,0.042l0.012,0.069l0.028,0.027l0.001,0.038l0.026,0.016l0.163,-0.026l0.036,-0.029l0.062,-0.02l0.039,0.004l0.033,-0.029l0.022,-0.109l-0.01,-0.053l0.024,-0.056h0.047l0.193,0.144l0.109,0.014l0.042,0.033l0.063,0.005l0.023,-0.024l0.043,0.001l0.085,0.045l0.013,0.056l0.036,0.028l0.036,0.005l0.072,0.069l0.04,0.011l0.027,0.026l0.025,0.049l0.06,0.034l0.066,0.004l0.023,-0.028l0.002,-0.029l0.016,-0.005l0.035,0.035l0.077,-0.001l0.023,-0.048l0.083,-0.09l0.083,-0.032l0.064,0.004l0.135,0.047l0.067,-0.018l0.061,-0.096l0.077,-0.034v-0.022l-0.034,-0.032l-0.015,-0.003l-0.016,0.011l-0.018,-0.002l-0.093,-0.062l-0.069,-0.074l-0.004,-0.026l-0.014,-0.016l-0.025,-0.007l-0.014,-0.016l-0.005,-0.192l-0.014,-0.034l-0.06,-0.07l0.005,-0.024l0.034,-0.025l0.046,-0.004l0.01,-0.014l-0.013,-0.029l0.008,-0.037l0.046,-0.017l0.108,-0.004l0.02,-0.019l-0.017,-0.024l0.017,-0.013l0.05,-0.002l0.026,0.01l0.019,0.026l0.054,0.006l0.045,-0.042l-0.007,-0.021l-0.029,-0.009l-0.013,-0.016l-0.005,-0.051l-0.08,-0.078l-0.021,0.005l-0.008,0.03l-0.03,0.028l-0.021,-0.004l-0.002,-0.038l0.016,-0.023l0.03,-0.011l0.01,-0.033l-0.028,-0.082l-0.028,-0.013l-0.05,0.023l-0.049,0.084l0.012,0.074h-0.019l-0.036,-0.054l0.005,-0.035l-0.016,-0.013l-0.024,0.013l-0.007,0.024l-0.028,-0.007l-0.003,-0.047l-0.023,-0.034l-0.031,-0.005l-0.021,-0.023l-0.024,-0.008l-0.012,-0.02l0.017,-0.036l0.029,-0.028l0.027,-0.037l0.056,-0.03l0.02,-0.023l0.11,-0.044l0.116,-0.064h0.029l0.052,-0.022l0.03,-0.032l0.057,-0.03l0.062,-0.009l0.042,0.009l0.108,-0.001l0.03,-0.01l0.006,-0.017l-0.033,-0.072l0.005,-0.017l0.028,-0.001l0.017,-0.021l0.004,-0.021l0.029,-0.018l0.028,0.001l0.023,0.007l0.003,0.013l-0.011,0.014l0.005,0.015h0.034l0.062,-0.015l0.025,-0.03l0.008,-0.076l0.017,-0.006l0.029,0.014l0.008,0.021l0.021,0.018l0.017,-0.001l0.002,-0.032l0.024,-0.037l0.021,-0.001l0.026,0.018l0.042,0.007l0.14,0.08l0.03,0.033l0.024,-0.001l0.054,-0.07l0.032,-0.017l0.065,-0.004l0.018,-0.021l0.019,-0.006l0.024,0.01l0.011,-0.012l-0.018,-0.031l-0.068,-0.046l-0.017,-0.029l0.014,-0.046l0.024,-0.005l0.004,-0.015l-0.029,-0.017l-0.013,-0.06l0.008,-0.025l0.06,-0.038l0.029,-0.039l0.013,-0.055l-0.006,-0.187l-0.015,-0.059l0.005,-0.053l0.021,-0.022l0.01,-0.031l-0.014,-0.024l0.001,-0.016l0.017,-0.012l0.015,-0.039l-0.002,-0.032l0.022,-0.022l0.025,0.001l0.012,-0.012l-0.012,-0.035l-0.061,-0.045l-0.031,0.002l-0.05,-0.02l-0.009,-0.018l-0.061,-0.029l-0.035,0.007l-0.021,-0.012l-0.003,-0.039l-0.045,-0.019l-0.042,0.011l-0.032,-0.013l-0.009,-0.028l0.011,-0.022l-0.013,-0.015l-0.032,-0.011l-0.023,-0.045l0.015,-0.061l-0.004,-0.058l-0.033,-0.025l-0.003,-0.022l0.028,-0.021l0.008,-0.052l0.016,-0.025l0.073,-0.043l0.018,-0.038l0.038,-0.033l0.003,-0.048l-0.023,-0.018l-0.002,-0.023l0.02,-0.021l0.07,-0.042l0.046,-0.004l0.086,0.009l0.061,-0.001l0.023,0.007l0.007,0.021l0.02,0.003l0.022,-0.016h0.032l0.019,0.014l0.003,0.038l0.014,0.01l0.033,-0.007l0.076,-0.048l0.02,-0.032l-0.006,-0.029l0.006,-0.02l0.023,-0.011l0.003,-0.032l-0.028,-0.053l0.004,-0.018l0.129,-0.01l0.038,-0.015l0.087,-0.016l0.033,-0.047l0.071,-0.018l0.032,-0.025l0.04,-0.006l0.032,0.01l0.119,-0.031l0.055,-0.028l0.031,-0.05l0.062,-0.007l0.046,0.015l0.043,-0.015l0.037,-0.096l0.032,-0.024l0.05,0.002l0.085,-0.028l0.016,-0.023l-0.021,-0.079l-0.068,-0.085l0.007,-0.041l0.028,-0.012l0.079,0.015l0.049,-0.001l0.101,-0.041l0.04,-0.026h0.053l0.091,0.081l0.072,0.032l0.094,-0.006l0.024,-0.02l0.032,0.005l0.008,0.022l0.021,0.007l0.023,-0.006l0.057,0.014l0.114,-0.004l0.029,-0.026l0.003,-0.078l-0.07,-0.066l-0.033,-0.008l-0.014,-0.021l0.003,-0.028l-0.058,-0.217l-0.029,-0.044l-0.027,-0.014l-0.007,-0.033l0.017,-0.047l0.07,-0.027l0.014,-0.042l0.038,-0.01l0.061,0.019l0.036,-0.009l0.021,-0.023l0.01,-0.026l0.033,-0.021l0.04,-0.007l0.023,-0.016l0.012,-0.029l0.068,-0.037l0.005,-0.023l0.021,-0.014l0.038,0.011l0.006,0.019l-0.023,0.012l0.002,0.018l0.08,0.035l0.022,0.028l0.028,0.007l0.054,-0.011l0.047,0.026l0.003,0.034l0.033,0.01l0.065,-0.005l0.068,0.04l0.014,0.039l0.026,0.019h0.029l0.038,0.028l0.013,0.047l0.027,0.009l0.03,-0.009l0.097,0.014l0.028,0.023l0.045,0.005l0.067,-0.007l0.001,-0.014l0.028,0.002l0.044,0.037l0.067,0.019l0.052,0.002l0.042,0.039l-0.007,0.028l0.005,0.009l0.028,-0.009l0.026,0.013l0.07,0.135l0.081,0.122l0.018,0.001l0.017,-0.031l0.029,-0.009l0.02,0.015l0.001,0.039l0.022,0.015l0.034,0.002l0.036,0.019l0.05,0.005l0.044,-0.024l0.039,0.013l0.037,0.043l0.052,0.015l0.026,-0.013l0.023,0.011l0.008,0.029l0.047,0.055l0.047,0.018l0.034,0.063l-0.008,0.05l0.013,0.089l0.039,0.05v0.061l0.092,0.097l0.073,0.034l0.075,0.068l0.055,-0.005l0.023,0.018l-0.002,0.053l0.052,0.024l0.063,0.005l0.156,0.086l0.047,0.006l0.024,0.016l0.013,0.034l0.036,0.021l0.047,-0.006l0.131,0.065l0.014,0.039l0.035,0.01l0.038,-0.021l0.045,0.021l0.014,0.039l0.07,0.052l0.01,0.067l-0.017,0.042v0.073l0.031,0.014l0.104,-0.017l0.039,0.05l-0.013,0.06l-0.071,0.026l0.006,0.024l0.065,-0.016l0.044,0.019l0.021,0.05l0.023,0.018l0.081,0.008l0.008,0.037l-0.036,0.034l0.02,0.042l0.097,0.01l0.01,0.032l-0.117,0.05l0.008,0.021l0.078,0.039l0.063,-0.002l0.013,0.018l-0.037,0.05l0.029,0.026l0.047,-0.021l0.018,0.018l-0.031,0.066l0.018,0.013l0.057,-0.039l0.011,-0.04l-0.018,-0.047l0.015,-0.013l0.032,0.034l0.013,0.053l0.039,0.002l0.031,-0.065l0.029,0.005v0.074l-0.032,0.039l0.019,0.021l0.052,-0.013l0.021,0.018l-0.05,0.021l-0.107,-0.013l-0.021,0.026l0.021,0.045l0.045,0.01l0.075,-0.026l0.029,0.016l-0.005,0.053l0.031,0.01l0.034,-0.037l0.031,0.008l0.013,0.032l0.058,0.01l0.013,-0.031l-0.029,-0.037l0.01,-0.032l0.053,-0.002l0.146,0.036l0.112,0.008l0.049,0.024l0.058,0.005l0.049,-0.021l0.068,0.016l0.083,0.074l0.068,0.036l0.076,0.103l0.047,0.11l0.008,0.081l0.044,0.053l0.052,0.013l0.045,-0.018l0.046,0.005l0.042,0.026l0.104,0.021l0.053,0.061l0.041,0.002l0.029,-0.018l0.05,0.005l0.054,0.045l0.037,0.008l0.036,-0.019l0.04,0.019l0.002,0.05l0.073,0.065l0.018,0.048l0.04,0.005l0.031,-0.045l0.089,-0.055l0.041,-0.003l0.039,0.021h0.029l0.073,-0.026l0.11,0.005l0.044,-0.015l0.036,0.005l0.089,0.068l0.12,0.029l0.081,0.034l0.073,-0.005l0.089,-0.097l0.081,-0.003l0.062,0.045h0.042l0.044,-0.034h0.055l0.107,0.034l0.055,0.071l0.109,0.026l0.073,-0.013l0.136,0.023l0.018,0.032l0.026,-0.003l0.063,-0.084l0.052,-0.008l0.073,0.032l0.013,0.06l0.039,0.035l0.125,0.018l0.037,-0.029l-0.013,-0.074l0.044,-0.031l0.071,-0.003l0.02,-0.023l0.021,-0.095l0.042,-0.005l0.047,0.034l0.065,-0.029l0.081,-0.005l0.065,-0.05l0.013,-0.039l0.112,-0.105l0.047,-0.011l0.019,-0.029l-0.011,-0.052l0.029,-0.084l0.026,-0.006l0.026,0.024l0.037,-0.005l0.002,-0.029l-0.031,-0.047l0.013,-0.035l0.044,-0.008l0.013,-0.028l-0.026,-0.058l0.021,-0.016l0.05,0.011l0.075,-0.011l0.055,0.013l0.026,0.034l0.052,0.021h0.05l0.115,0.066l0.046,0.042l0.055,0.003l0.032,-0.021l0.007,-0.063l-0.021,-0.037l0.028,-0.025l0.047,0.073l0.004,0.081l0.035,0.049l0.066,0.038l0.01,0.063l-0.031,0.14v0.077l0.038,0.049l0.076,0.032l0.053,0.087l0.048,0.252l0.084,0.095l0.115,0.056v0.077l-0.101,0.133l-0.091,0.053l-0.014,0.052l0.011,0.077l-0.052,0.088l0.031,0.07l0.132,0.094l0.087,0.014l0.118,-0.031l0.049,-0.067h0.059l0.038,0.088l0.049,0.024l0.083,0.004l0.105,0.056l0.01,0.074l-0.062,0.063l-0.136,0.01l-0.122,-0.042l-0.059,0.007l-0.031,0.063l-0.004,0.154l0.049,0.06l0.08,0.049l0.021,0.056l-0.028,0.052l-0.139,0.011l-0.049,0.042v0.056l0.167,0.143l0.122,0.025h0.101l0.069,0.035l0.025,0.056l-0.004,0.07l0.038,0.06l0.167,0.084l0.174,0.059l0.233,0.105l0.254,0.039l0.275,-0.007l0.055,0.021l0.014,0.066l0.063,0.07l-0.007,0.028l-0.049,0.018l-0.003,0.024l0.021,0.035l-0.004,0.028l-0.076,0.018l-0.112,-0.025l-0.121,0.004l-0.07,-0.053l-0.038,-0.098l-0.066,-0.017l-0.059,0.021l-0.004,0.056l0.032,0.07l-0.025,0.021l-0.184,-0.028l-0.167,-0.112l-0.059,-0.004l-0.028,0.035l0.014,0.039l0.066,0.024l0.007,0.032l-0.028,0.052l-0.135,0.134l-0.053,0.01l-0.132,-0.045l-0.041,0.014l-0.032,0.052l-0.003,0.063l0.062,0.063l0.032,0.095l-0.018,0.059l-0.003,0.144l0.014,0.091l-0.021,0.073l-0.07,0.06l-0.08,0.024l0.004,0.025l0.069,0.021h0.136l0.094,-0.042l0.042,0.028l0.003,0.109l-0.052,0.049l-0.174,0.066l-0.028,0.081l-0.031,0.028l-0.042,-0.004l-0.097,-0.07l-0.073,-0.007l-0.066,0.025l-0.028,0.052l0.01,0.06l0.049,0.055l0.042,0.108h-0.028l-0.023,0.005l-0.098,0.022l-0.422,-0.019l-0.076,-0.028l-0.146,-0.112l-0.136,-0.084l-0.007,-0.042l0.021,-0.024l-0.01,-0.035l-0.042,-0.025l-0.028,-0.052l0.024,-0.025l0.094,0.042h0.07l0.014,-0.031l-0.052,-0.06l-0.014,-0.063l0.031,-0.081l-0.017,-0.035l-0.077,-0.024h-0.059l-0.031,0.028l-0.035,-0.004l-0.021,-0.035l0.031,-0.045l-0.013,-0.039l-0.074,-0.073l-0.09,-0.025l-0.073,-0.084l0.01,-0.045l0.042,-0.028l-0.003,-0.046l-0.032,-0.035l-0.038,0.004l-0.035,0.045l-0.003,0.049l0.024,0.042l-0.021,0.032l-0.16,-0.028l0.004,-0.035l0.08,-0.056l0.003,-0.056l-0.034,-0.004l-0.046,0.06l-0.059,-0.007l-0.062,-0.053l-0.028,0.011l0.003,0.035l0.039,0.035l-0.014,0.045l-0.039,-0.014l-0.02,-0.059l-0.094,-0.046l-0.035,0.018l0.003,0.031l0.066,0.028v0.028l-0.043,0.044l-0.008,0.074l-0.023,0.002l-0.026,-0.057l-0.133,-0.017l-0.146,-0.091l-0.034,-0.091l-0.059,-0.042h-0.126l-0.177,0.038l-0.073,-0.007l-0.028,-0.038l-0.052,-0.021l-0.042,0.007l-0.024,-0.021l-0.004,-0.06l-0.062,-0.031l-0.084,0.01l-0.097,0.042l-0.017,0.056l0.014,0.046l0.031,0.021l-0.018,0.056l-0.1,0.042l-0.08,0.003l-0.059,-0.024l-0.063,-0.007l-0.035,0.017l-0.042,-0.003l-0.062,-0.067l-0.084,-0.031v-0.032l0.035,-0.021v-0.045l-0.045,-0.074l-0.056,-0.01l-0.045,0.024l-0.01,0.046h-0.035l-0.042,-0.091l-0.045,-0.028l-0.045,0.007l-0.049,0.045l-0.024,0.095l-0.049,0.035l-0.094,0.021l-0.021,0.035l0.014,0.066l-0.021,0.042l-0.087,0.046l-0.038,0.049l-0.115,0.056l-0.066,-0.007l-0.16,-0.077l-0.076,-0.081l-0.101,-0.028l-0.156,-0.119l-0.077,-0.024l-0.059,-0.056l-0.066,-0.011l-0.077,0.021l-0.048,0.06l-0.066,0.038h-0.053l-0.034,-0.028h-0.039l-0.027,0.018l-0.035,-0.007l-0.007,-0.063l-0.035,-0.021l-0.028,0.021v0.049l-0.035,0.024l-0.086,-0.014l-0.084,0.007l-0.003,-0.028l0.045,-0.042l-0.004,-0.049l-0.034,-0.003l-0.035,0.042h-0.063l-0.017,-0.039l0.003,-0.105l-0.038,-0.004l-0.066,0.092l-0.07,0.024l-0.201,-0.024l-0.066,-0.042l-0.025,-0.067l-0.062,-0.053l-0.08,-0.014l-0.042,-0.038h-0.031l-0.028,0.042l-0.021,0.116l-0.066,0.028l-0.184,-0.007l-0.094,-0.028l-0.351,-0.176l-0.091,-0.084l-0.013,-0.058h-0.029l-0.036,0.034l-0.044,-0.003l0.002,-0.034l0.037,-0.031l-0.008,-0.032l-0.037,-0.01l-0.018,0.026l-0.003,0.05l-0.041,0.002l-0.029,-0.034l-0.013,-0.079l-0.042,-0.015l-0.021,0.018l0.037,0.053l-0.013,0.031l-0.086,-0.005l-0.039,-0.032l0.008,-0.05l0.044,-0.026l-0.003,-0.039l-0.047,-0.061h-0.054l-0.029,0.071l-0.039,0.029l-0.052,0.003l-0.034,0.039l-0.003,0.066l-0.029,0.044l-0.057,0.021l-0.057,-0.021l-0.024,0.016l0.026,0.069l-0.044,0.057l-0.117,0.003l-0.22,-0.082h-0.088l-0.058,0.037l-0.117,-0.01l-0.175,-0.108l-0.065,-0.031l-0.042,0.002l-0.047,0.026l-0.101,0.006l-0.058,-0.019h-0.065l-0.096,0.066l-0.032,0.097l-0.031,0.029l-0.008,0.037l0.021,0.039l-0.01,0.037l-0.055,0.095l-0.094,0.057l-0.089,0.027l-0.062,0.044l-0.003,0.037l0.011,0.032l-0.042,0.097l-0.008,0.073l-0.026,0.045l-0.037,0.018l-0.039,0.074l0.003,0.089l-0.031,0.04l-0.123,0.013l-0.081,0.005l-0.055,-0.037l-0.023,-0.042l-0.029,-0.008l-0.036,0.016l-0.06,0.003l-0.032,-0.019l-0.005,-0.031l-0.068,-0.034l-0.044,0.002l-0.039,-0.021l-0.063,-0.115v-0.045l-0.117,-0.084l-0.099,-0.018l-0.084,-0.05l-0.018,-0.034l-0.005,-0.103l-0.104,-0.137l-0.008,-0.044l-0.034,-0.034l-0.097,-0.006l-0.005,-0.028l0.034,-0.048l-0.034,-0.084l-0.115,-0.06h-0.044l-0.104,0.068l-0.055,0.008l-0.029,-0.013l0.013,-0.053l-0.036,-0.015l-0.086,0.007l-0.018,0.04l-0.105,0.005l-0.052,-0.024l-0.042,0.008l-0.015,0.058l-0.032,0.005l-0.026,-0.01l-0.044,0.01l-0.01,0.035l-0.081,0.068l-0.011,0.047l-0.023,0.024l-0.008,0.044l0.049,0.147l0.029,0.037v0.034l-0.031,0.04l-0.029,0.076l-0.005,0.052l-0.097,0.061v0.029l0.029,0.029l0.06,0.191l0.039,0.016l0.019,0.055l-0.019,0.042l0.016,0.05l-0.024,0.016h-0.041l-0.055,0.024l-0.044,0.126l0.075,0.231v0.079l0.125,0.115l-0.122,0.082l-0.112,0.013l0.049,0.076l-0.008,0.045l0.107,0.126l0.055,0.102l0.076,0.037l0.026,0.029l0.013,0.039l0.055,0.047l0.031,-0.007l0.034,-0.069l0.036,-0.01l0.05,0.026l0.042,-0.01l0.007,-0.056l0.027,-0.021l0.049,0.003l0.013,0.055l0.086,0.108l0.076,0.008l0.023,0.023l-0.002,0.042l0.057,0.108l0.144,0.079l0.041,0.002l0.042,0.024l0.037,0.092l0.036,0.032l0.005,0.063l-0.031,0.018l-0.01,0.034l0.007,0.024l-0.028,0.018l-0.05,-0.005l-0.029,0.026l0.006,0.1l0.13,0.113l0.18,0.039l0.065,0.058l0.005,0.058l0.047,0.066l0.011,0.099l-0.016,0.029l0.003,0.029l0.021,0.013l0.007,0.029l-0.015,0.032l0.015,0.073l0.055,0.019l0.05,0.044l-0.005,0.04l-0.055,0.021l-0.084,0.002l-0.01,0.034l0.023,0.048l0.042,0.008l0.031,-0.019l0.06,0.021l0.013,0.032l0.113,0.039l0.049,0.042l-0.003,0.032l-0.054,0.036l-0.045,0.111l-0.002,0.084l0.021,0.136l0.052,0.056l0.036,0.073l-0.005,0.045l-0.026,0.036l-0.098,0.01l-0.042,0.023l0.01,0.01l0.043,-0.018l0.091,-0.007l0.083,0.048l0.1,0.121l0.11,0.071l0.063,0.078l0.003,0.084l0.043,0.054l0.051,0.003l0.094,0.052l0.017,0.061l0.036,0.034l0.076,0.007l0.122,-0.01l0.05,0.043l0.001,0.029l-0.02,0.041l0.002,0.107l0.045,0.024l0.125,-0.005l0.077,0.023l0.054,0.098l0.078,0.092l0.027,0.098l0.034,0.032l0.117,0.042l0.048,0.046l0.013,0.042l0.081,0.101l0.079,0.066l0.235,0.146l0.038,0.098l-0.004,0.116l0.027,0.032l-0.001,0.031l0.082,0.092l0.048,0.022l0.122,0.013l0.062,0.035l0.053,0.11l0.147,0.091l0.033,0.039l0.028,0.068l0.035,0.032l0.066,0.036l0.071,0.085l0.016,0.052l0.141,0.12l0.087,0.137l0.101,0.091l0.209,0.098l0.045,0.049l0.125,0.073l0.091,0.088l0.1,0.014l0.06,-0.018l0.125,0.004l0.167,0.084l0.059,0.081l-0.004,0.105l-0.048,0.091l-0.08,0.059l0.007,0.028l0.034,0.032l0.021,0.087l0.167,0.343l0.056,0.039l0.014,0.077l0.038,0.063l0.222,0.046l0.091,0.084l0.021,0.094l-0.018,0.067l0.007,0.035l0.042,0.007l0.059,0.017l0.101,0.077l0.268,0.126l0.069,0.049l0.247,0.141l0.223,0.441l0.042,0.063l-0.087,0.045l-0.094,0.007l-0.07,0.025l-0.049,0.042l-0.08,0.028l-0.115,0.01l-0.044,-0.007l-0.084,-0.003l-0.115,-0.047l-0.125,-0.132l-0.07,-0.189l-0.037,-0.018l-0.075,0.008l-0.029,-0.021l0.026,-0.061l-0.005,-0.029h-0.021l-0.031,0.05h-0.027l-0.033,-0.044l-0.092,-0.074l-0.023,-0.047l-0.071,-0.053l-0.015,-0.06l-0.11,-0.068l-0.088,-0.021l-0.037,-0.024l-0.023,-0.045l-0.193,-0.1l-0.186,-0.049l-0.047,-0.035l-0.005,-0.031l-0.039,-0.029l-0.055,-0.01l-0.081,-0.061l-0.01,-0.045l-0.039,-0.034l-0.047,-0.015l-0.091,-0.085l-0.013,-0.049l-0.034,-0.042l-0.06,-0.032l-0.091,-0.089l-0.032,-0.061l-0.115,-0.11l-0.065,-0.084l-0.201,-0.158l-0.02,-0.039l-0.034,-0.008l-0.042,0.011l-0.352,-0.027l-0.164,-0.036l-0.079,-0.048l-0.044,-0.063l-0.057,-0.018l-0.04,0.018l-0.099,-0.002l-0.054,-0.045l-0.097,-0.047l-0.068,-0.011l-0.135,-0.097l-0.039,-0.068l-0.055,-0.019l-0.089,0.011l-0.313,-0.021l-0.078,-0.013l-0.003,-0.021l0.058,-0.024l0.148,-0.034l0.079,-0.029v-0.021l-0.105,-0.029l-0.313,-0.045l-0.122,0.035l-0.084,0.073l-0.099,0.026l-0.091,-0.002l-0.071,0.016l-0.036,0.034l-0.094,0.01l-0.18,-0.034h-0.076l-0.013,0.021l0.191,0.053l0.015,0.028l-0.041,0.037l-0.115,0.019l-0.07,0.039l-0.081,0.003l-0.052,-0.037l-0.05,-0.011l-0.044,0.021l-0.058,-0.01l-0.026,-0.04l-0.078,-0.018l-0.039,0.021l-0.031,-0.013l0.002,-0.024l-0.026,-0.01l-0.042,0.016l-0.036,-0.008l-0.047,-0.04l0.008,-0.036l0.083,-0.003l0.021,-0.034l-0.018,-0.053l-0.021,-0.01l-0.037,0.034l-0.028,-0.005l-0.006,-0.042l-0.093,-0.04l-0.042,-0.11l0.013,-0.061l-0.024,-0.173l0.019,-0.037l0.161,0.008l0.002,-0.02l-0.076,-0.021l-0.084,-0.007l-0.038,-0.017l0.01,-0.025l0.066,0.004l0.056,0.021l0.028,-0.007l-0.038,-0.07l-0.14,-0.13l-0.097,-0.028l-0.069,-0.077l0.007,-0.032l0.069,-0.017l0.045,0.021l0.025,-0.007l-0.025,-0.06l-0.073,-0.059l-0.024,0.003l0.017,0.056l-0.062,0.035l-0.066,-0.003l-0.122,-0.077l-0.097,-0.039l-0.199,-0.021l-0.128,-0.066l-0.063,-0.088l-0.062,-0.021l-0.021,0.025l0.073,0.108l-0.011,0.025l-0.052,-0.004l-0.129,-0.066l-0.048,-0.084l-0.139,-0.13l0.007,-0.028h0.034l0.084,0.028l0.024,0.067l0.07,0.052l0.007,-0.024l-0.039,-0.042l0.007,-0.025l0.108,0.011l0.084,0.038l0.031,-0.007l-0.035,-0.045l-0.174,-0.095l-0.118,-0.024l-0.181,-0.137l-0.028,-0.049l-0.1,-0.084l-0.136,-0.042l-0.07,-0.056l-0.034,-0.077l-0.063,-0.067l-0.045,-0.014l-0.07,-0.059l-0.038,-0.077l-0.184,-0.182l-0.098,-0.028l-0.076,-0.085l-0.025,-0.08l-0.086,-0.088l-0.084,-0.042l-0.094,-0.119l-0.003,-0.07l-0.112,-0.122l-0.086,-0.049l-0.018,-0.049l0.049,-0.056v-0.088l-0.087,-0.056l-0.077,-0.07v-0.053l0.066,-0.049l0.049,0.004l0.101,0.129l0.059,0.011l0.056,-0.021l0.014,-0.053l-0.035,-0.063v-0.045l0.035,-0.018l0.038,0.007l0.101,0.091l0.128,0.091h0.042l0.014,-0.049l-0.049,-0.077l0.014,-0.028l0.045,-0.01l0.004,-0.032l-0.115,-0.091l-0.024,-0.059l0.024,-0.021l0.212,0.108l0.021,0.063l0.258,0.144l0.076,0.007l0.045,-0.018l0.07,0.004l0.094,0.035l0.18,0.031l0.018,-0.028l-0.042,-0.066l-0.069,-0.021h-0.084l-0.118,-0.053l-0.111,-0.119l-0.087,-0.045l-0.226,-0.091l-0.254,-0.147l-0.212,-0.242l-0.285,-0.238l-0.098,-0.172l-0.254,-0.213l-0.111,-0.049l-0.076,-0.067l-0.053,-0.105l-0.038,-0.112l-0.108,-0.119l-0.001,-0.042l-0.123,-0.163v-0.076l0.01,-0.071v-0.05l-0.028,-0.066l-0.029,-0.189l0.016,-0.226l0.034,-0.06l0.02,-0.108l0.055,-0.16l0.021,-0.158l-0.026,-0.078l-0.05,-0.053l-0.062,-0.129l-0.013,-0.092l-0.086,-0.202l-0.039,-0.058l-0.024,-0.081l-0.042,-0.031l-0.062,-0.008l-0.136,-0.066l-0.083,-0.011l-0.11,-0.078l-0.034,-0.058l-0.253,-0.205l-0.049,-0.013l-0.052,-0.042l-0.021,-0.061l-0.05,-0.044l-0.064,-0.03l-0.057,-0.056l-0.03,-0.069l0.018,-0.029l0.029,-0.005l0.01,-0.021l-0.044,-0.05l-0.068,-0.034l-0.013,0.018l0.055,0.074l-0.016,0.028h-0.052l-0.081,-0.039l-0.143,-0.113l-0.18,-0.087l-0.35,-0.097l-0.041,0.003l-0.063,0.06l-0.036,0.083l-0.04,0.033l-0.028,0.063l-0.007,0.044l-0.047,0.145l-0.012,0.072l-0.073,0.184l0.007,0.054l-0.023,0.103l-0.056,0.147l-0.057,0.088h-0.021l-0.017,-0.03l-0.047,-0.026l-0.007,0.014l0.04,0.037l0.017,0.049l-0.035,0.078l-0.078,0.076l-0.026,0.005l-0.01,-0.014l-0.019,0.009l0.027,0.089l0.007,0.058l-0.012,0.005l-0.017,-0.01l-0.014,0.007l0.066,0.14l0.016,0.096l-0.016,0.068l-0.071,0.084l-0.03,-0.005l-0.014,-0.023l-0.021,-0.005l-0.015,0.014l-0.025,-0.005l-0.022,-0.025l-0.028,-0.003l-0.089,0.058l-0.036,0.043l-0.018,-0.003l0.004,-0.061l0.029,-0.037l0.058,-0.011l0.003,-0.017l-0.059,-0.07l-0.009,-0.041l-0.017,-0.012h-0.035l-0.021,-0.028l0.002,-0.035l-0.026,-0.054l-0.024,-0.012l-0.011,0.012l0.014,0.056l-0.021,0.042l0.016,0.03l0.054,0.017l0.043,0.026l0.004,0.046l-0.037,0.086l-0.041,0.059l-0.021,0.002l-0.007,0.014l0.017,0.058l-0.038,0.059l-0.035,0.007l-0.009,0.018l0.023,0.016l-0.012,0.028l-0.077,0.057l-0.043,0.002l-0.026,-0.024l-0.025,-0.006l-0.001,0.016l0.045,0.04l0.029,0.013l-0.003,0.016l-0.026,0.012l-0.005,0.028l0.021,0.042l-0.007,0.023l-0.033,0.015l-0.03,0.048l0.005,0.031l0.033,0.047l0.025,0.084l-0.016,0.023h-0.12l-0.08,-0.017l-0.049,-0.044l-0.041,-0.004l-0.014,0.016l0.029,0.06l-0.008,0.079l0.026,0.07l-0.016,0.014l-0.047,-0.011l-0.014,-0.023l0.012,-0.073l-0.007,-0.058l-0.021,-0.019l-0.121,-0.016l-0.068,-0.063l-0.002,-0.03l-0.024,-0.019l-0.023,0.002l-0.012,-0.021l0.014,-0.048l-0.021,-0.028l-0.062,-0.022h-0.04l-0.032,-0.039l0.007,-0.021l0.03,-0.002l0.042,0.035l0.053,0.002l0.061,-0.044l0.004,-0.033l-0.025,-0.003l-0.062,0.031l-0.04,-0.014l-0.019,-0.035l0.007,-0.068l-0.014,-0.105l-0.073,-0.129l-0.069,-0.098l-0.007,-0.046l-0.014,-0.015l-0.08,0.007l-0.024,-0.013l-0.011,-0.029l-0.064,-0.08l-0.004,-0.039l-0.024,-0.018l-0.048,-0.003l-0.014,-0.014l0.003,-0.037l-0.024,-0.041l-0.007,-0.032l-0.079,-0.057l-0.059,-0.011l-0.032,0.011l-0.025,-0.007l0.001,-0.029l0.025,-0.027l0.018,-0.064l-0.012,-0.038l-0.065,-0.018l-0.049,-0.036l0.002,-0.032l0.022,-0.011l0.022,0.002l0.011,-0.008l0.003,-0.029l0.019,-0.01l0.036,0.004l0.174,0.001l0.052,-0.018l0.057,-0.004l0.042,0.007l0.006,-0.01l-0.054,-0.015l-0.061,0.001l-0.047,0.016l-0.173,-0.004l-0.034,-0.01l-0.03,-0.003l-0.022,0.028l-0.027,0.003l-0.024,-0.023l-0.001,-0.05l0.016,-0.022l0.003,-0.027l-0.026,-0.051l-0.024,-0.031l0.002,-0.017l0.029,-0.005l0.001,-0.016l-0.061,-0.047v-0.029l0.037,-0.01l0.002,-0.017l-0.021,-0.02l-0.003,-0.019l0.018,-0.028l0.017,-0.091l-0.028,-0.069l-0.044,-0.021l-0.007,-0.031l0.036,-0.053l0.042,0.004l0.016,-0.011l-0.015,-0.02l-0.051,-0.011l-0.038,-0.04l0.004,-0.024l0.075,-0.028l0.027,-0.038l0.002,-0.034l-0.016,-0.007l-0.059,0.039l-0.069,-0.006l-0.012,-0.033l-0.045,-0.019l-0.025,-0.029l-0.018,-0.289l-0.072,-0.107l-0.027,-0.243l-0.064,-0.071l0.01,-0.056l0.068,-0.029l0.103,0.036l0.127,0.08l0.029,0.022l0.015,-0.004l-0.002,-0.023z M709.791153,282.580965l-0.002,0.155l0.031,0.031v0.034l-0.036,0.077l0.01,0.034l0.102,0.047l0.057,0.06l0.029,0.058l0.132,0.1l-0.011,0.008l-0.02,-0.004l-0.012,0.012l-0.002,0.037l0.014,0.026l0.029,0.012l0.018,0.019l-0.014,0.009l-0.035,-0.016l-0.203,-0.203l-0.087,-0.034l-0.044,0.018l-0.031,-0.021l-0.005,-0.021l0.026,0.003l0.005,-0.018l-0.164,-0.108l-0.243,-0.134l-0.068,-0.018l-0.075,-0.045l-0.021,-0.042l-0.045,-0.037l-0.073,-0.029l-0.07,-0.084l0.003,-0.063l0.026,-0.026l-0.003,-0.068l-0.055,-0.048l-0.044,-0.007l-0.055,0.031l-0.039,-0.003l-0.049,-0.047l-0.173,-0.068l-0.08,-0.003l-0.11,-0.034l-0.008,-0.026l0.024,-0.026l0.034,-0.003l0.013,-0.018l-0.141,-0.092l-0.05,-0.006l-0.133,-0.057l-0.253,-0.173l-0.084,-0.026l-0.101,-0.092l0.004,-0.028l0.025,-0.014l0.019,-0.035l-0.003,-0.013l-0.021,0.006l-0.024,0.031l-0.032,0.001l-0.054,-0.04l-0.017,-0.049l-0.028,-0.013l-0.023,0.01l-0.064,-0.01l-0.036,-0.021l-0.03,0.003v0.028l-0.042,0.039l-0.028,-0.007l-0.025,-0.036l-0.099,-0.063l-0.138,-0.07l-0.019,-0.022l-0.011,0.007l0.012,0.028l0.147,0.093l0.068,0.076l0.025,0.043l0.001,0.031l-0.018,0.039h-0.019l-0.028,-0.023v-0.018l0.018,-0.024l-0.001,-0.04l-0.026,-0.029l-0.016,-0.003l-0.022,0.01l-0.066,-0.012l-0.125,-0.047l-0.021,-0.02l-0.027,-0.011l-0.086,-0.012l-0.241,-0.088l-0.26,-0.06l-0.063,-0.034l-0.161,-0.047l-0.05,-0.028l-0.005,-0.024l0.015,-0.019l0.025,-0.006l0.019,-0.026l-0.011,-0.017l-0.079,-0.036l-0.087,-0.058l-0.02,-0.001l-0.029,0.017l-0.106,-0.003l-0.068,-0.038l-0.029,-0.033l-0.046,-0.027l-0.243,-0.086l-0.065,-0.035l-0.059,-0.059l-0.064,-0.023h-0.042l-0.022,0.018l-0.048,0.011l-0.146,-0.01l-0.151,-0.033l-0.068,-0.003l-0.077,-0.025l-0.097,-0.062l-0.054,-0.008l-0.004,-0.015l0.022,-0.051l0.026,-0.03l-0.004,-0.01l-0.025,0.003l-0.025,-0.017l-0.011,-0.04l-0.031,-0.014l0.006,-0.013h0.037l0.06,0.017l0.13,0.085l0.046,0.018h0.064l0.079,-0.015l0.209,0.002l0.076,0.023l0.065,0.01l0.088,0.005l0.171,0.046l0.096,0.016l0.391,0.18l0.032,0.002l0.049,0.02l0.048,0.044l0.004,0.052l0.027,0.034l0.102,0.047l0.026,0.02l0.105,0.012l0.024,-0.011l0.004,-0.038l0.018,-0.004l0.03,0.021l0.215,0.087l0.036,0.001l0.05,0.024l0.051,0.053l0.052,0.019l0.029,-0.01l0.094,0.047l0.077,0.083l0.068,0.042l0.053,0.01l0.004,-0.011l-0.066,-0.039l-0.117,-0.102l-0.116,-0.056l-0.043,-0.036l0.107,-0.133l0.059,-0.031l0.155,0.037l0.101,0.038l0.087,0.072l0.028,0.002l0.06,-0.109l0.124,0.058l0.057,0.063l0.002,0.032l-0.014,0.026v0.04l0.037,0.072l0.048,0.058l0.077,0.026v0.014l-0.031,0.033l-0.006,0.035l0.023,0.018l0.073,0.002l0.139,0.047l0.087,0.082l0.057,0.011l0.026,0.017l0.002,0.035l0.058,0.063l0.111,0.019l0.123,0.104l0.082,0.037l0.031,0.05l-0.012,0.062l0.028,0.022l0.103,0.018l0.031,0.028l0.024,0.068l0.026,0.014l0.058,-0.017l0.055,0.028l0.101,0.124l0.051,0.044l0.031,0.009l0.014,0.035l0.024,0.01l0.082,-0.024l0.015,-0.021l0.023,-0.004l0.12,0.004l0.068,-0.021h0.062l0.054,0.012l0.061,0.091l0.051,0.044l0.151,0.099l0.002,0.033z"/>
</svg>
