<svg xmlns="http://www.w3.org/2000/svg" viewBox="691.506 264.424 22.018 18.891">
  <path d="M692.374,271.973l0.01-0.011l0.025-0.001l0.01,0.011l-0.003,0.012l-0.033-0.001L692.374,271.973L692.374,271.973z M692.421,272.027l0.022,0.001l0.019,0.015l0.013,0.042l-0.016,0.019l-0.001,0.018l0.021,0.025l0.019-0.001l0.011-0.026l0.048-0.036l-0.004-0.026l-0.066-0.043l-0.053-0.006l-0.018,0.01L692.421,272.027L692.421,272.027z M695.46,270.5l-0.004,0.014l0.022,0.022l0.014-0.004l0.001-0.019l-0.019-0.014L695.46,270.5L695.46,270.5z M695.895,271.05l0.001-0.046l-0.011-0.036l-0.017-0.001l-0.019,0.015l-0.057-0.024l-0.011-0.021l-0.03-0.007l-0.043,0.007l-0.055,0.028l-0.032-0.012l0.001-0.024l0.021-0.043l0.032-0.003l0.05,0.014l0.011-0.01l-0.039-0.083l-0.065-0.071l-0.028-0.061l-0.043-0.054l0.003-0.01l0.028,0.012l0.025,0.003l0.003-0.012l-0.015-0.022l-0.053-0.025l-0.048-0.001l-0.036-0.015l-0.022,0.001l-0.013,0.021l-0.043,0.007l-0.006,0.017l0.03,0.014l0.015,0.019l0.01,0.068l-0.011,0.006l-0.04-0.036l-0.019-0.037l-0.014,0.003l0.003,0.037l0.04,0.053l-0.001,0.017l-0.017,0.024l-0.004,0.072l0.022,0.048v0.033l-0.043,0.047l-0.007,0.028l0.003,0.061l-0.04,0.061l-0.024,0.012l-0.033-0.002l-0.021-0.036l-0.064-0.003l-0.04,0.033l-0.003,0.028l0.009,0.026l-0.009,0.033l-0.094,0.028l-0.033,0.035v0.05l0.061,0.099l0.137,0.125l0.056,0.024l0.035-0.003l0.099,0.033l0.092,0.003l0.05-0.042l0.038,0.002l0.073,0.035l0.04,0.002l0.007-0.017l-0.023-0.031l0.002-0.026l0.026-0.033l0.019,0.002l0.016,0.04l-0.016,0.054l-0.003,0.064l0.009,0.024l-0.005,0.043l-0.026,0.014v0.023l0.108,0.071l0.033,0.003l0.035-0.009l0.066,0.031l0.083,0.075l0.099,0.031l0.08-0.003l0.019-0.021l-0.017-0.061l-0.028-0.026l0.002-0.031l0.047-0.01l0.137,0.035l0.036-0.002l0.012-0.03l-0.036-0.057l0.012-0.005l0.036,0.031l0.014-0.003l-0.007-0.038l-0.094-0.097l-0.063-0.021l-0.066-0.05l-0.056-0.068l0.009-0.05l-0.007-0.031l-0.026-0.024l0.014-0.031l-0.017-0.01l-0.031,0.005l-0.035-0.007l-0.033,0.012l-0.043-0.003l-0.085-0.064l-0.031-0.057l0.009-0.08l-0.019-0.031l0.007-0.017l0.023-0.009L695.895,271.05L695.895,271.05z M696.236,272.053l0.039,0.039l0.206,0.094l0.018-0.018l-0.06-0.099l-0.122-0.083l-0.063-0.013l-0.023,0.018L696.236,272.053L696.236,272.053z M696.145,272.285l0.078,0.036l0.047-0.005v-0.042l-0.068-0.049l-0.049-0.005l-0.026,0.026L696.145,272.285L696.145,272.285z M696.379,272.405l0.039,0.031l0.039,0.003l0.031-0.042l0.008-0.029l-0.031-0.023l-0.094-0.003l-0.016,0.021L696.379,272.405L696.379,272.405z M695.233,271.748l-0.003,0.029l0.13,0.086l0.055,0.005l0.016-0.023l-0.065-0.096l-0.073-0.013L695.233,271.748L695.233,271.748z M694.532,272.663l-0.018,0.06l0.005,0.034l0.018,0.003l0.034-0.055l0.008-0.057l-0.021-0.005L694.532,272.663L694.532,272.663z M694.3,273.309l-0.005,0.023l-0.031,0.005l-0.008,0.034l0.026,0.031l0.065,0.005l0.065,0.05l0.026-0.005l-0.008-0.036l-0.055-0.065l-0.01-0.049l0.031-0.076l0.044-0.018l0.013-0.052l-0.031-0.063l-0.029-0.005l-0.06,0.06l-0.049,0.109L694.3,273.309L694.3,273.309z M696.604,274.529l0.009-0.014l-0.022-0.029l-0.038-0.023l-0.015,0.007l0.022,0.034L696.604,274.529L696.604,274.529z M695.544,273.207l0.007-0.012l-0.004-0.016l-0.016-0.012l-0.007,0.012l0.005,0.016L695.544,273.207L695.544,273.207z M695.931,273.081l0.01,0.01l0.01,0.004l0.001-0.015l-0.006-0.009l-0.01-0.003L695.931,273.081L695.931,273.081z M697.069,274.418l0.007,0.008l0.011-0.003l-0.001-0.014l-0.014-0.003L697.069,274.418L697.069,274.418z M696.117,274.27l0.012,0.001l0.001-0.015l-0.018-0.011l-0.008,0.012L696.117,274.27L696.117,274.27z M696.117,274.27l0.012,0.001l0.001-0.015l-0.018-0.011l-0.008,0.012L696.117,274.27L696.117,274.27z M694.62,273.677l0.019,0.009l0.01-0.007l-0.018-0.025l-0.024-0.011l-0.007,0.015L694.62,273.677L694.62,273.677z M694.62,273.677l0.019,0.009l0.01-0.007l-0.018-0.025l-0.024-0.011l-0.007,0.015L694.62,273.677L694.62,273.677z M695.519,274.573l0.01,0.001l0.007-0.011l-0.014-0.007l-0.01,0.006L695.519,274.573L695.519,274.573z M695.419,274.055l-0.004-0.011l-0.011,0.002l-0.002,0.013l0.009,0.007L695.419,274.055L695.419,274.055z M696.282,275.212l0-0.018l-0.013-0.009l-0.016,0.01l0.002,0.018l0.011,0.008L696.282,275.212L696.282,275.212z M696.27,275.219l0.014-0.011l-0.001-0.015l-0.018-0.006l-0.012,0.012l0.001,0.014L696.27,275.219L696.27,275.219z M697.85,274.877l-0.014-0.017l-0.014-0.002l0,0.012l0.011,0.013l0.016,0.007L697.85,274.877L697.85,274.877z M695.538,273.709l0.003,0.016l0.013,0.015l0.008-0.009l-0.006-0.021l-0.012-0.01L695.538,273.709L695.538,273.709z M696.562,274.068l0.043,0.017l0.011-0.026l-0.021-0.032l-0.038-0.018l-0.023,0.019L696.562,274.068L696.562,274.068z M694.586,273.608l-0.021-0.049l-0.056-0.031l-0.003,0.016l0.043,0.036l0.028,0.042L694.586,273.608L694.586,273.608z M694.517,273.938l0.036,0.002l0.019-0.035l-0.014-0.03l-0.066-0.024l-0.026,0.009l0.003,0.04L694.517,273.938L694.517,273.938z M694.977,273.696l-0.003,0.021l0.014,0.01l0.017-0.007l0.002-0.016l-0.014-0.01L694.977,273.696L694.977,273.696z M695.44,273.933l0.023,0.021l0.016-0.007l-0.009-0.023l-0.021-0.012l-0.016,0.003L695.44,273.933L695.44,273.933z M695.427,274.098l0.028,0.01l0.012-0.007l-0.005-0.014l-0.03-0.01l-0.014,0.007L695.427,274.098L695.427,274.098z M695.021,273.693l0.078,0.047l0.005,0.019l-0.014,0.003l-0.038-0.031l-0.014,0.009l0.002,0.042l0.042,0.061l0.116,0.056l0.014,0.023l0.002,0.03l0.076,0.08l0.035,0.016l0.045-0.012l0.028-0.026l-0.005-0.026l-0.035-0.031l-0.057-0.096l-0.054-0.036l-0.075-0.024l-0.038-0.056l-0.082-0.05l-0.002-0.023l-0.017-0.023l-0.036-0.021l-0.057-0.116l-0.042-0.054v-0.026l-0.012-0.017l-0.023-0.012l-0.007-0.05l0.019-0.031l0.003-0.162l-0.014-0.042l0.01-0.014l0.017,0.012l0.016,0.028l0.049,0.028l0.054,0.061l0.017,0.056l0.042,0.047l0.151,0.125l0.033,0.005l0.019-0.016l-0.021-0.033l0.01-0.005l0.031,0.026h0.023l0.012-0.012l-0.009-0.023l0.012-0.01l0.016,0.014l0.012-0.009l-0.009-0.028l0.009-0.009l0.043,0.002l0.009-0.014l-0.033-0.021l-0.07-0.016l-0.049-0.026l0.002-0.024l0.035-0.021l0.002-0.035l-0.045-0.068l-0.052-0.026l-0.05-0.08v-0.028l-0.014-0.036l-0.023-0.014l-0.003-0.031l0.057-0.078v-0.023l-0.017-0.019l-0.003-0.036l-0.021-0.045l-0.068-0.071l-0.007-0.031l0.019-0.012l0.031,0.009l0.028-0.003l0.01-0.036l-0.052-0.226l-0.038-0.083v-0.057l0.042-0.089l0.002-0.061l-0.01-0.026v-0.03l0.03-0.064l-0.005-0.038l0.014-0.009l0.019,0.007l0.028-0.024l0.01-0.045l-0.028-0.059l-0.023-0.023l-0.033-0.002l-0.042,0.019l-0.043-0.002l-0.049-0.035l-0.113-0.174l-0.071-0.182l-0.005-0.043l-0.045-0.104l-0.01-0.13l0.017-0.061l0.03-0.023l0.002-0.031l-0.028-0.052l-0.059-0.033l-0.059-0.003l-0.024-0.021l-0.038,0.005l-0.03,0.035l-0.047,0.123l-0.073,0.068l0.002,0.024l0.021,0.007l0.003,0.023l-0.01,0.023l0.01,0.026l0.052,0.03l0.028,0.049l0.01,0.059l0.038,0.031l0.092,0.03l0.045,0.036l0.026,0.082v0.031l-0.024,0.045l0.009,0.068l0.038,0.033l0.049,0.024l0.043,0.076l0.076,0.061l0.016,0.038l-0.012,0.009l-0.036-0.019l-0.031,0.002l-0.028,0.026l0.002,0.031l0.05,0.083l0.002,0.063l-0.026,0.012l-0.04-0.009l-0.042-0.005h-0.043l-0.035-0.012l-0.064-0.109l-0.056-0.057l-0.028,0.002l-0.021,0.057v0.092l0.05,0.082l0.014,0.071l-0.007,0.024l0.003,0.021l0.033,0.03l0.012,0.047l-0.012,0.04v0.078l0.045,0.068h0.016l0.007-0.019h0.028l0.035,0.036l0.003,0.057l-0.007,0.031l0.04,0.181l0.021,0.024h0.017l0.01-0.014l0.024,0.005l0.003,0.04l-0.019,0.033l0.002,0.03l0.026,0.031l0.002,0.043l-0.017,0.045l-0.017,0.002l-0.024-0.012h-0.08l-0.066-0.05l-0.017,0.005l-0.003,0.13l0.033,0.099l0.066,0.097l0.061,0.073l0.042,0.094l-0.01,0.017l-0.052,0.033l-0.01,0.03l0.009,0.035l-0.005,0.049l0.05,0.04l0.035-0.002l0.035-0.028l0.002-0.035l0.019-0.003l0.028,0.026l0.038,0.007L695.021,273.693L695.021,273.693z M695.431,274.127l-0.036-0.026l-0.026,0.01v0.052l0.065,0.034l0.078-0.008l0.01-0.031L695.431,274.127L695.431,274.127z M695.618,274.69l0.07,0.026l0.044,0.047l0.083,0.039l0.021-0.01l-0.065-0.07l-0.107-0.057l-0.063-0.06l-0.034-0.005l-0.018,0.018L695.618,274.69L695.618,274.69z M695.976,274.909l0.016,0.036l0.034,0.013l0.034-0.008l0.003-0.039l-0.047-0.034h-0.063l-0.003,0.023L695.976,274.909L695.976,274.909z M696.192,275.024h0.039l-0.005-0.039l0.021-0.01l0.049,0.021l0.031-0.01l0.003-0.026l-0.117-0.081l-0.023,0.008l0.008,0.031l-0.018,0.016l-0.05,0.005l-0.016,0.031L696.192,275.024L696.192,275.024z M695.9,274.437l0.034,0.034l0.034,0.086l0.089,0.063l0.029-0.01l-0.018-0.052l-0.063-0.055l-0.013-0.049l0.005-0.042l-0.018-0.047l-0.078-0.034l-0.055,0.031l0.008,0.052L695.9,274.437L695.9,274.437z M696.705,274.208l0.169,0.143l0.076,0.021l0.023-0.01l-0.109-0.076l-0.12-0.128l-0.049-0.018l-0.023,0.013L696.705,274.208L696.705,274.208z M696.168,274.523l0.003,0.026l0.06,0.021l0.076,0.068l0.094,0.021l0.031-0.029l-0.016-0.063l-0.068-0.06l-0.008-0.05l0.047-0.06l-0.018-0.07l-0.055-0.031h-0.044l-0.034,0.044l-0.003,0.089l0.026,0.044l-0.016,0.029L696.168,274.523L696.168,274.523z M696.33,272.91l0.099,0.124l0.07,0.053l0.011-0.009l-0.058-0.076l-0.115-0.113l-0.068-0.039l-0.005,0.013L696.33,272.91L696.33,272.91z M696.471,272.991l0.047,0.034l0.052-0.005l0.034-0.034l-0.021-0.078l-0.224-0.224l-0.224-0.19l0.005-0.023l0.047-0.013l0.018-0.06l-0.042-0.034l-0.078-0.005l-0.034,0.029l-0.036,0.003l-0.083-0.021l-0.016,0.018l0.036,0.057l0.083,0.055l0.044,0.065l-0.018,0.01l-0.063-0.036l-0.018,0.01l0.018,0.065l-0.021,0.005l-0.091-0.044l-0.049,0.008l-0.008,0.036l0.057,0.099l0.122,0.047l0.112,0.008l0.034-0.018l0.117,0.034L696.471,272.991L696.471,272.991z M698.029,274.669l-0.016-0.042l-0.164-0.135h-0.057l-0.026-0.023l-0.008-0.039l-0.057-0.055l-0.039-0.01l-0.039-0.023l-0.016-0.034l-0.05-0.049l-0.029-0.042l-0.042-0.026l-0.049-0.016l-0.07-0.073l-0.083-0.055l-0.021,0.003l0.016,0.096l0.044,0.081l-0.021,0.003l-0.19-0.169l-0.026-0.052l-0.07-0.063l-0.034-0.057l-0.128-0.099l-0.057-0.026l-0.008-0.042l0.026-0.008l0.083,0.042l0.029,0.039l0.063,0.039l0.055,0.008l0.06,0.034l0.029,0.044l0.044,0.021l0.081,0.023l0.036,0.044l0.086,0.047l0.013-0.018l-0.049-0.055l-0.039-0.078l-0.109-0.076l-0.112-0.036l-0.117-0.112l-0.016-0.073l-0.167-0.141l-0.109-0.029l-0.036,0.018l-0.005,0.047l0.034,0.057l0.005,0.044l-0.021-0.003l-0.076-0.109l-0.091-0.078l-0.253-0.305l-0.109-0.081l-0.021,0.01l0.013,0.042l0.091,0.13l0.052,0.034l0.049,0.094l0.052,0.036l0.135,0.167l0.078,0.049l0.049,0.091l0.021,0.086l0.021,0.021l0.044,0.013l0.086,0.107l-0.008,0.036l-0.047,0.01l-0.013,0.023l0.065,0.07l0.068,0.036l0.083,0.008l0.065,0.029l0.208,0.201l0.023,0.049l-0.016,0.031l0.005,0.029l0.039,0.005l0.057-0.005l0.021-0.026l0.021-0.01l0.096,0.036l0.057,0.068l-0.021,0.026h-0.034l-0.034,0.023v0.055l0.049,0.026v0.031l-0.023,0.021l0.005,0.036l0.076,0.057l0.182,0.104h0.029l-0.008-0.021l-0.135-0.099l-0.016-0.039l0.021-0.018l0.195,0.073l0.078,0.005l0.042-0.031l0.003-0.039l-0.143-0.109l0.008-0.013l0.151,0.096l0.089,0.031l0.013-0.016L698.029,274.669L698.029,274.669z M697.168,274.8l0.052,0.069l0.078,0.043l0.061-0.014l0.036-0.035l0.056-0.009l0.061,0.024l0.021,0.031l0.021,0.007l0.017-0.01l0.003-0.023l-0.082-0.073l-0.221-0.08l-0.099-0.012l-0.019,0.019L697.168,274.8L697.168,274.8z M696.4,275.232l0.068,0.081l0.023-0.003l-0.005-0.031l-0.057-0.083l0.005-0.018l0.034,0.003l0.177,0.112l0.055,0.013l0.034-0.016l0.013-0.036l-0.06-0.042l-0.076-0.016l-0.154-0.104l-0.104-0.044l-0.029,0.013L696.4,275.232L696.4,275.232z M696.919,275.396l0.18,0.198l0.081,0.036l0.016-0.018l-0.008-0.047l-0.039-0.044l-0.089-0.05l-0.154-0.146l-0.018,0.008L696.919,275.396L696.919,275.396z M697.331,275.537l0.031,0.083l0.36,0.339l0.031,0.049l0.073,0.047l0.039-0.005l0.016-0.026l0.029,0.003l0.041,0.07l0.057,0.033l0.024-0.017l-0.017-0.068l-0.106-0.101l-0.042-0.01l-0.04-0.038l-0.035-0.073l-0.069-0.054l-0.064-0.031l-0.196-0.149l-0.059-0.033l-0.042-0.045l-0.023,0.002L697.331,275.537L697.331,275.537z M697.372,275.941l0.036,0.054l0.057,0.03l0.182,0.162l0.021-0.007l-0.024-0.064l-0.099-0.097l-0.035-0.07l-0.103-0.073l-0.033,0.002L697.372,275.941L697.372,275.941z M698.117,276.254l0.061,0.101l0.071,0.071l0.078,0.023l0.101,0.099l0.003,0.04l0.03,0.024l0.066-0.002l0.059,0.042l0.149,0.052l0.026-0.021l-0.021-0.061l-0.085-0.069l-0.056-0.017l-0.052-0.043l-0.023-0.066l-0.061-0.068l-0.092-0.035l-0.073-0.078l-0.165-0.09l-0.082-0.014l-0.026,0.017L698.117,276.254L698.117,276.254z M697.919,276.808l0.061,0.059l0.016,0.049l0.071,0.073l0.061,0.019l0.196,0.158l0.089,0.026l0.094,0.054l0.217,0.127l0.059,0.012l0.003-0.012l-0.057-0.024l-0.207-0.12l-0.078-0.057l-0.009-0.024l-0.049-0.042l-0.014-0.028l-0.038-0.033l-0.059-0.023l-0.226-0.182l-0.002-0.031l-0.023-0.021l-0.094-0.021l-0.021,0.016L697.919,276.808L697.919,276.808z M698.294,276.806l-0.005-0.042l-0.03-0.026l-0.016,0.007l0.007,0.023l-0.016,0.012l-0.064-0.031l-0.012-0.031l-0.045-0.023l-0.04-0.002l-0.017,0.017l0.016,0.026l0.066,0.033l0.028,0.023l0.019,0.036l0.071,0.05l0.052,0.019l0.13,0.118l0.016-0.009l-0.075-0.101l-0.047-0.047L698.294,276.806L698.294,276.806z M697.173,275.505l0.057,0.05l0.045,0.01l0.003-0.017l-0.05-0.056l-0.056-0.033l-0.019,0.005L697.173,275.505L697.173,275.505z M696.767,275.402l0.07,0.035l0.016-0.003l-0.017-0.035l-0.056-0.04l-0.043-0.005l-0.003,0.014L696.767,275.402L696.767,275.402z M696.694,275.467l0.108,0.059l0.057,0.016l0.005-0.016l-0.069-0.061l-0.115-0.043l-0.012,0.014L696.694,275.467L696.694,275.467z M697.279,276.077l0.035,0.05l0.054,0.035l0.019-0.005l-0.005-0.036l-0.064-0.078l-0.033-0.021l-0.016,0.01L697.279,276.077L697.279,276.077z M697.809,276.495l0.045,0.045l0.035,0.009l0.01-0.016l-0.038-0.056l-0.047-0.024l-0.016,0.005L697.809,276.495L697.809,276.495z M698.146,276.527l0.05,0.023l0.04,0.038l0.014-0.005l-0.007-0.028l-0.049-0.043l-0.05-0.016l-0.016,0.01L698.146,276.527L698.146,276.527z M698.9,276.874l0.038,0.023h0.033l0.01-0.014l-0.012-0.023l-0.059-0.019l-0.024,0.01L698.9,276.874L698.9,276.874z M699.06,276.858l0.03,0.016l0.026,0.002l0.002-0.024l-0.023-0.026l-0.036-0.01l-0.017,0.014L699.06,276.858L699.06,276.858z M698.272,277.237l0.085,0.033l0.012-0.01l-0.049-0.033l-0.068-0.024l-0.007,0.012L698.272,277.237L698.272,277.237z M698.409,277.329l0.04,0.012l0.03-0.012l0.003-0.028l-0.035-0.016l-0.031,0.002l-0.017,0.017L698.409,277.329L698.409,277.329z M697.99,277.018l0.047,0.007l0.012-0.014l-0.03-0.023l-0.071-0.026l-0.016,0.009L697.99,277.018L697.99,277.018z M698.847,277.552l0.059,0.03l0.085,0.031l0.014-0.01l-0.014-0.016l-0.076-0.023l-0.066-0.042l-0.014,0.007L698.847,277.552L698.847,277.552z M699.978,277.411l0.031,0.049l0.026,0.007l0.019-0.024l-0.009-0.036l-0.054-0.043l-0.023,0.005L699.978,277.411L699.978,277.411z M700.125,277.585l0.127,0.085l0.026,0.042l0.023,0.002v-0.023l-0.019-0.083l-0.064-0.069l-0.042-0.01l-0.023,0.014h-0.03l-0.016,0.016L700.125,277.585L700.125,277.585z M699.929,277.506l0.023,0.002l0.012-0.026l-0.016-0.035l-0.057-0.036l-0.023,0.002l-0.002,0.038L699.929,277.506L699.929,277.506z M699.811,277.55l0.021,0.038l0.045,0.024l0.068,0.009l0.003-0.017l-0.042-0.035l-0.043-0.01l-0.019-0.03l-0.019-0.003L699.811,277.55L699.811,277.55z M699.462,277.546l0.078,0.057l0.045,0.038l0.047,0.009l0.014-0.01l-0.01-0.024l-0.057-0.036l-0.026,0.002l-0.056-0.033l-0.042-0.036l-0.012,0.009L699.462,277.546L699.462,277.546z M699.599,277.501l0.012,0.036l0.056,0.064l0.003,0.03l0.059,0.026l0.024-0.003l0.019-0.054l-0.014-0.016l-0.033-0.005l-0.085-0.089l-0.047-0.021l-0.01,0.01L699.599,277.501L699.599,277.501z M699.321,277.699l0.043,0.026h0.031l0.021,0.007l0.026,0.038l0.05,0.04l0.097,0.028l0.059,0.002l0.089,0.024h0.03l-0.002-0.016l-0.099-0.05h-0.035l-0.026-0.014l-0.033-0.042l-0.054-0.035l-0.09-0.03l-0.063-0.007l-0.04-0.014l-0.016,0.007L699.321,277.699L699.321,277.699z M696.409,275.496l0.007,0.036l0.043,0.043l0.127,0.066l0.021-0.002l0.005-0.024l0.019-0.002l0.043,0.026l0.122,0.106l0.035,0.061l0.061,0.05l0.099,0.057l0.109,0.111l0.068,0.094l0.01,0.042l0.108,0.134l0.031,0.069l0.094,0.092l0.056,0.085l0.203,0.179l0.118,0.073l0.024-0.002l0.005-0.036l-0.021-0.014h-0.026l-0.038-0.023l-0.019-0.036l-0.026-0.012l-0.03,0.009l-0.017-0.019l-0.002-0.038l-0.024-0.028l-0.026-0.005l-0.01-0.03l0.014-0.017l0.024,0.002l0.045,0.052l0.003,0.028l0.028,0.019l0.052,0.002l0.092,0.054l0.036-0.002l0.036-0.04l-0.003-0.028l-0.052-0.036l-0.05-0.009l-0.078-0.049l-0.023-0.049l-0.089-0.071l-0.05-0.019l-0.038-0.052v-0.043l-0.043-0.028l-0.036-0.003l-0.012,0.016l-0.036-0.009l-0.12-0.103l-0.102-0.158l-0.003-0.056l-0.05-0.108l-0.031-0.026l-0.043,0.003l-0.09-0.033l-0.087-0.068l-0.009-0.047l-0.021-0.017l-0.043-0.003l-0.054-0.056l-0.014-0.052l-0.09-0.078l-0.083-0.05l-0.021,0.003l-0.002,0.023l0.045,0.04l0.029,0.066l-0.016,0.005l-0.035-0.026l-0.035-0.002l-0.016,0.019h-0.019l-0.04-0.043v-0.017l0.014-0.014l-0.005-0.01l-0.028,0.005L696.409,275.496L696.409,275.496z M701.547,278.455l0.002,0.021l0.064,0.026l0.099,0.012l0.071-0.023l0.106,0.012l0.09,0.019h0.179l0.059-0.017l-0.003-0.014l-0.12-0.026l-0.116-0.066l-0.075-0.024l-0.094,0.007l-0.061,0.019l-0.023,0.049l-0.031,0.012h-0.056l-0.045-0.012L701.547,278.455L701.547,278.455z M701.522,278.884l0.016,0.054l0.035,0.028l0.061,0.002l0.181,0.057l0.089,0.043l0.033,0.036l0.061,0.031l0.059,0.005l0.149,0.071l0.04-0.026l-0.01-0.04l-0.082-0.056l-0.035-0.069l-0.076-0.056l-0.028-0.042h-0.031l-0.019,0.024l-0.023-0.007l-0.003-0.043l-0.184-0.071l-0.188,0.002l-0.031,0.014L701.522,278.884L701.522,278.884z M701.013,278.691l0.05,0.005l0.038,0.016l0.023-0.003l0.007-0.028l-0.024-0.033l-0.057-0.005l-0.061,0.016l-0.005,0.019L701.013,278.691L701.013,278.691z M701.192,278.737l0.017,0.021l0.066,0.002l0.123-0.028l0.017-0.042l-0.017-0.043l-0.092-0.021l-0.071,0.033L701.192,278.737L701.192,278.737z M702.375,278.982l0.052,0.045l0.005,0.036l0.023,0.023l-0.002,0.016l-0.057,0.021l-0.019,0.028l0.005,0.026l0.016,0.024l-0.01,0.017h-0.03l-0.019-0.023l-0.03-0.009l-0.017,0.012l0.009,0.035l0.04,0.047l0.059,0.017l0.045-0.009l0.056,0.024l0.017,0.03l0.104,0.047l0.03,0.036l0.151,0.043l0.208,0.023l0.064,0.016l0.118,0.007l0.028-0.012h0.026l0.059,0.01l0.075,0.002l0.05-0.016l0.2,0.003l0.205-0.023l0.094-0.023l0.064-0.043l0.03,0.002l0.019-0.014l-0.005-0.026l0.012-0.023l0.031-0.019l0.019-0.054v-0.023l-0.109-0.057l-0.045-0.042l-0.054-0.012l-0.04,0.014l-0.05-0.01l-0.003-0.028l-0.016-0.017l-0.127-0.035l-0.353-0.057l-0.262-0.03l-0.052-0.019l-0.136-0.012l-0.056,0.017l-0.36-0.045l-0.059,0.002l-0.019,0.024L702.375,278.982L702.375,278.982z M703.244,280.259l0.005,0.021l0.12,0.023l0.125-0.018l0.01-0.023l-0.052-0.026l-0.13-0.013L703.244,280.259L703.244,280.259z M702.017,279.895l0.003,0.026l0.086,0.029l0.107,0.021l0.052-0.005l0.003-0.021l-0.138-0.034l-0.042-0.029l-0.042-0.003L702.017,279.895L702.017,279.895z M702.358,279.918l0.136,0.039l0.036,0.003l0.026-0.005l0.068,0.005l0.099,0.047l0.052,0.031l0.052,0.005l0.036-0.003l0.081,0.008l0.258,0.073l0.13,0.005l0.104-0.018l0.18-0.013l0.185,0.013l0.18,0.034l0.36,0.018l0.081-0.013l0.12,0.01l0.448-0.008l0.055-0.021l0.141-0.018l0.008-0.023l-0.07-0.034l-0.099-0.01l-0.065,0.01l-0.175-0.008l-0.237-0.018l-0.227-0.047l-0.261-0.005l-0.047-0.026l-0.446-0.008l-0.083,0.016l-0.068-0.01l-0.049-0.036l-0.031-0.063l-0.047-0.042l-0.031-0.073l-0.05-0.029l-0.18-0.003l-0.073,0.021l-0.047-0.003l-0.018-0.036l0.013-0.034l-0.023-0.026l-0.065-0.003l-0.109,0.026v0.031l0.042,0.023l0.081,0.016l0.063,0.06l0.013,0.063l-0.029,0.016l-0.063-0.023l-0.102-0.076l-0.13-0.021l-0.12,0.018l-0.136,0.047h-0.039l-0.073-0.021l-0.062,0.008l-0.008,0.023L702.358,279.918L702.358,279.918z M707.526,281.834l0.057,0.008l0.005-0.018l-0.031-0.034l-0.136-0.047l-0.013,0.018L707.526,281.834L707.526,281.834z M707.672,281.88l0.143,0.089l0.049-0.008l0.016-0.049l-0.034-0.057l-0.177-0.099l-0.078-0.018l-0.021,0.016L707.672,281.88L707.672,281.88z M707.938,282.078l0.06,0.008l0.065-0.021l0.008-0.021l-0.057-0.042l-0.057,0.003l-0.044,0.044L707.938,282.078L707.938,282.078z M705.67,281.591l0.003,0.036l0.096,0.05l0.122,0.036l0.031-0.016l0.06,0.01l0.036,0.029l0.104,0.029l0.065-0.008l0.268,0.07l0.091,0.044l0.073,0.013l0.078-0.005l0.159,0.026l0.19,0.057l0.016,0.023l0.039,0.01l0.036-0.01L707.2,282l0.036,0.029h0.026l0.008-0.029l-0.042-0.06l-0.258-0.115l-0.044-0.005l-0.034,0.008l-0.156-0.031l-0.057-0.031l-0.5-0.13l-0.096-0.044l-0.099-0.018l-0.042-0.036l-0.089-0.008L705.67,281.591L705.67,281.591z M702.58,281.751l0.019,0.012l0.057-0.05l0.069,0.002l0.023-0.017l-0.01-0.028l-0.063-0.012l-0.061,0.031L702.58,281.751L702.58,281.751z M703.772,281.735l0.028-0.003l0.002-0.033l0.036-0.038l-0.009-0.016l-0.049,0.003l-0.033,0.031l-0.003,0.036L703.772,281.735L703.772,281.735z M703.835,281.713l-0.009,0.047l0.014,0.071l0.038,0.021l0.052-0.002l0.049-0.031l0.049,0.005l0.036,0.04l0.082-0.009l0.089-0.064l0.023-0.09l-0.028-0.03l-0.24-0.03l-0.099,0.009L703.835,281.713L703.835,281.713z M703.122,280.705v0.023l0.039,0.026l0.083,0.003l0.117,0.047l-0.003,0.031l-0.115,0.034l-0.031,0.036l-0.052,0.031l-0.003,0.047l0.055,0.039l0.031-0.005l0.018-0.026l0.162,0.008l0.143,0.06l0.284,0.031l0.078-0.016l0.021,0.01l-0.005,0.018l0.031,0.016l0.125-0.013l0.135-0.068l0.073-0.013l0.036-0.034l0.091-0.008l0.195,0.018l0.201,0.055l0.156,0.008l0.065-0.021h0.143l0.026-0.016l-0.008-0.023l-0.086-0.021l-0.052-0.034l-0.031-0.076l-0.125-0.055l-0.271-0.06l-0.138-0.008l-0.062,0.016h-0.18l-0.248,0.068h-0.117l-0.136-0.039l-0.25-0.047l-0.076-0.042l-0.102-0.023l-0.12,0.003L703.122,280.705L703.122,280.705z M699.773,280.543l0.003,0.021l0.047,0.023l0.062-0.013l0.029-0.031l-0.008-0.023l-0.057-0.005L699.773,280.543L699.773,280.543z M700.784,280.775l-0.013,0.065l0.026,0.013l0.065-0.049l-0.01-0.076l-0.057-0.036l-0.023,0.016L700.784,280.775L700.784,280.775z M700.974,280.408l0.005,0.031l0.096,0.018l0.047,0.039l-0.003,0.042l-0.083,0.065l0.01,0.026l0.117,0.005l0.203-0.047l0.167-0.008l0.078-0.044l0.026-0.047l0.073-0.06l0.021-0.057l-0.047-0.039l-0.099-0.005l-0.06,0.042l-0.023-0.008l-0.008-0.036l-0.076-0.023l-0.203,0.01l-0.148,0.034L700.974,280.408L700.974,280.408z M698.591,277.472l0.015-0.002l-0.011-0.024l-0.02-0.007l-0.003,0.017L698.591,277.472L698.591,277.472z M697.948,276.718l0.014-0.007l-0.019-0.019h-0.021l0.003,0.017L697.948,276.718L697.948,276.718z M708.908,282.546l0.005-0.013l-0.007-0.015l-0.017-0.009l-0.005,0.013l0.008,0.015L708.908,282.546L708.908,282.546z M699.875,277.375l-0.001-0.009l-0.02-0.021l-0.011,0.003l0.002,0.009l0.017,0.016L699.875,277.375L699.875,277.375z M698.268,276.616l0.023,0.01l0.007-0.013l-0.012-0.02l-0.018,0.005L698.268,276.616L698.268,276.616z M697.86,276.784l-0.012,0.009l0.002,0.024l0.016,0.006l0.013-0.013l-0.002-0.02L697.86,276.784L697.86,276.784z M697.86,276.784l-0.012,0.009l0.002,0.024l0.016,0.006l0.013-0.013l-0.002-0.02L697.86,276.784L697.86,276.784z M702.32,279.963l-0.006,0.012l0,0.011l0.014-0.004l0.007-0.009l-0.001-0.011L702.32,279.963L702.32,279.963z M702.32,279.963l-0.006,0.012l0,0.011l0.014-0.004l0.007-0.009l-0.001-0.011L702.32,279.963L702.32,279.963z M699.878,277.684v0.014l0.014,0.008l0.012-0.008l-0.007-0.014H699.878L699.878,277.684z M700.379,277.754l-0.003,0.019l0.011,0.006l0.014-0.012l-0.007-0.012H700.379L700.379,277.754z M701.486,278.919l0.007,0.018l0.011-0.001l0.003-0.018l-0.012-0.008L701.486,278.919L701.486,278.919z M699.519,277.547l0.007,0.008l0.011-0.003l-0.001-0.014l-0.014-0.003L699.519,277.547L699.519,277.547z M697.854,276.08l0.007,0.008l0.011-0.003l-0.001-0.014l-0.014-0.003L697.854,276.08L697.854,276.08z M696.531,275.389l0.007,0.008l0.011-0.003l-0.001-0.014l-0.014-0.003L696.531,275.389L696.531,275.389z M707.914,281.951l0.014,0.006l0.008-0.006l-0.003-0.014h-0.014L707.914,281.951L707.914,281.951z M701.929,279.903l0.014,0.006l0.008-0.006l-0.003-0.014h-0.014L701.929,279.903L701.929,279.903z M702.283,279.945l-0.005,0.012l0.01,0.009l0.016-0.01l-0.003-0.012L702.283,279.945L702.283,279.945z M698.683,277.414l-0.011,0.007l0.004,0.013l0.019,0l0.004-0.012L698.683,277.414L698.683,277.414z M698.054,276.567l0.023,0.006l0.009-0.009l-0.019-0.023l-0.025-0.002l-0.008,0.011L698.054,276.567L698.054,276.567z M698.054,276.567l0.023,0.006l0.009-0.009l-0.019-0.023l-0.025-0.002l-0.008,0.011L698.054,276.567L698.054,276.567z M698.741,277.45l0.022,0.03l0.012,0.001l0.005-0.011l-0.03-0.043l-0.015,0.003L698.741,277.45L698.741,277.45z M698.976,276.975l0.025,0.022l0.011-0.007l-0.013-0.033l-0.021-0.01l-0.015,0.006L698.976,276.975L698.976,276.975z M698.976,276.975l0.025,0.022l0.011-0.007l-0.013-0.033l-0.021-0.01l-0.015,0.006L698.976,276.975L698.976,276.975z M698.688,276.821l0.028,0.017l0.01-0.009l-0.018-0.03l-0.023-0.007l-0.013,0.009L698.688,276.821L698.688,276.821z M698.688,276.821l0.028,0.017l0.01-0.009l-0.018-0.03l-0.023-0.007l-0.013,0.009L698.688,276.821L698.688,276.821z M701.653,278.55l0.01-0.011l-0.015-0.008l-0.024,0.006l0.006,0.013L701.653,278.55L701.653,278.55z M697.407,276.249l0.015,0.001l-0.004-0.017l-0.02-0.014l-0.006,0.013L697.407,276.249L697.407,276.249z M697.407,276.249l0.015,0.001l-0.004-0.017l-0.02-0.014l-0.006,0.013L697.407,276.249L697.407,276.249z M698.632,276.718l-0.005,0.031l0.021,0.013l0.034-0.013v-0.023l-0.023-0.013L698.632,276.718L698.632,276.718z M698.822,277.449l0.018,0.008l0.017-0.017l0.003-0.022l-0.018-0.015l-0.021,0.011L698.822,277.449L698.822,277.449z M703.339,281.092l0.02,0.002l0.014-0.015l-0.013-0.008l-0.017,0l-0.011,0.011L703.339,281.092L703.339,281.092z M703.339,281.092l0.02,0.002l0.014-0.015l-0.013-0.008l-0.017,0l-0.011,0.011L703.339,281.092L703.339,281.092z M697.997,276.662l0.011,0.016l0.021,0.001l-0.003-0.015l-0.011-0.013L698,276.65L697.997,276.662L697.997,276.662z M697.997,276.662l0.011,0.016l0.021,0.001l-0.003-0.015l-0.011-0.013L698,276.65L697.997,276.662L697.997,276.662z M703.475,281.721l-0.063,0.028l-0.005,0.018l0.02,0.01l0.046-0.017l0.015-0.028L703.475,281.721L703.475,281.721z M697.992,277.048l-0.005,0.014l0.01,0.007l0.022,0l0.002-0.015l-0.016-0.009L697.992,277.048L697.992,277.048z M697.992,277.048l-0.005,0.014l0.01,0.007l0.022,0l0.002-0.015l-0.016-0.009L697.992,277.048L697.992,277.048z M701.601,280.581l0.007,0.013l0.017-0.001l0.007-0.013l-0.008-0.012l-0.013,0.002L701.601,280.581L701.601,280.581z M700.883,278.548l-0.02,0.007l-0.002,0.011l0.023,0.009l0.017-0.008l-0.005-0.011L700.883,278.548L700.883,278.548z M700.883,278.548l-0.02,0.007l-0.002,0.011l0.023,0.009l0.017-0.008l-0.005-0.011L700.883,278.548L700.883,278.548z M698.817,277.587l0.021,0.003l0.007-0.009l-0.016-0.019l-0.019-0.002l-0.002,0.012L698.817,277.587L698.817,277.587z M701.691,280.553l0.002-0.024l-0.01-0.005l-0.015,0.01l-0.001,0.021l0.01,0.005L701.691,280.553L701.691,280.553z M704.385,281.684l0.022,0l0.004-0.011l-0.01-0.013l-0.019-0.002l-0.006,0.013L704.385,281.684L704.385,281.684z M703.267,281.051l0.022,0l0.004-0.011l-0.01-0.013l-0.019-0.002l-0.006,0.013L703.267,281.051L703.267,281.051z M700.454,277.684l0.014-0.002l0.004-0.016l-0.012-0.011l-0.016,0.004l-0.001,0.013L700.454,277.684L700.454,277.684z M698.527,277.393l0.011-0.023l-0.001-0.017l-0.013,0.008l-0.011,0.024l0.005,0.014L698.527,277.393L698.527,277.393z M703.703,281.722l0.015-0.055l-0.003-0.022l-0.02-0.007l-0.022,0.033l-0.003,0.038l0.016,0.019L703.703,281.722L703.703,281.722z M703.068,280.744l0.016-0.013l-0.004-0.018l-0.023-0.002l-0.021,0.02l0.007,0.017L703.068,280.744L703.068,280.744z M697.876,276.739l0.007,0.019l0.018,0.002l0.01-0.021l-0.011-0.027l-0.019,0.001L697.876,276.739L697.876,276.739z M703.714,281.781l0.021,0.01l0.013-0.002l-0.007-0.015l-0.022-0.01l-0.01,0.006L703.714,281.781L703.714,281.781z M703.714,281.781l0.021,0.01l0.013-0.002l-0.007-0.015l-0.022-0.01l-0.01,0.006L703.714,281.781L703.714,281.781z M697.85,275.894l0.015-0.01l0.004-0.019l-0.011-0.011l-0.014,0.011l-0.003,0.015L697.85,275.894L697.85,275.894z M698.499,277.359l0.006-0.022l-0.01-0.008l-0.01,0.012l0.001,0.017L698.499,277.359L698.499,277.359z M697.29,275.872l0.006-0.022l-0.01-0.008l-0.01,0.012l0.001,0.017L697.29,275.872L697.29,275.872z M699.142,276.86l-0.002,0.014l0.014,0.002l0.01-0.009l-0.005-0.013L699.142,276.86L699.142,276.86z M700.091,277.71l0.007-0.012l-0.012-0.007l-0.012,0.005v0.014H700.091L700.091,277.71z M699.812,277.882l0.014-0.002l-0.003-0.014l-0.012-0.006l-0.011,0.009L699.812,277.882L699.812,277.882z M699.812,277.882l0.014-0.002l-0.003-0.014l-0.012-0.006l-0.011,0.009L699.812,277.882L699.812,277.882z M698.525,276.365l0.007,0.007l0.012-0.004l-0.006-0.014l-0.011-0.002L698.525,276.365L698.525,276.365z M698.087,276.489l0.01,0.001l0.007-0.011l-0.014-0.007l-0.01,0.006L698.087,276.489L698.087,276.489z M702.111,279.995h0.012l0.007-0.014l-0.008-0.008l-0.014-0.003l-0.004,0.012L702.111,279.995L702.111,279.995z M700.081,277.487h0.012l0.007-0.014l-0.008-0.008l-0.014-0.003l-0.004,0.012L700.081,277.487L700.081,277.487z M700.04,277.66l0.001-0.012l-0.012-0.003l-0.011,0.008l0.008,0.01L700.04,277.66L700.04,277.66z M698.125,276.544l-0.012,0.004v0.015l0.012,0.003l0.004-0.011L698.125,276.544L698.125,276.544z M698.401,277.077l0.014,0.005l0.009-0.011l-0.002-0.017l-0.015-0.002l-0.008,0.012L698.401,277.077L698.401,277.077z M698.401,277.077l0.014,0.005l0.009-0.011l-0.002-0.017l-0.015-0.002l-0.008,0.012L698.401,277.077L698.401,277.077z M698.682,277.465v0.014l0.012,0.007l0.011-0.01l0.001-0.014l-0.007-0.007L698.682,277.465L698.682,277.465z M700.407,277.846l-0.012,0.007l0,0.014l0.014,0.005l0.013-0.006l0.003-0.009L700.407,277.846L700.407,277.846z M700.407,277.846l-0.012,0.007l0,0.014l0.014,0.005l0.013-0.006l0.003-0.009L700.407,277.846L700.407,277.846z M698.308,276.784v0.014l0.012,0.007l0.011-0.01l0.001-0.014l-0.007-0.007L698.308,276.784L698.308,276.784z M704.354,281.666l0.011-0.011l-0.004-0.015h-0.012l-0.01,0.012l0.003,0.017L704.354,281.666L704.354,281.666z M701.236,278.816l0.015,0.004l0.011-0.011l-0.006-0.011l-0.016-0.002l-0.013,0.011L701.236,278.816L701.236,278.816z M701.236,278.816l0.015,0.004l0.011-0.011l-0.006-0.011l-0.016-0.002l-0.013,0.011L701.236,278.816L701.236,278.816z M699.797,277.686l0.014,0.007l0.013-0.009l-0.004-0.012l-0.015-0.005l-0.015,0.008L699.797,277.686L699.797,277.686z M699.797,277.686l0.014,0.007l0.013-0.009l-0.004-0.012l-0.015-0.005l-0.015,0.008L699.797,277.686L699.797,277.686z M700.39,278.136l0.014,0.007l0.013-0.009l-0.004-0.012l-0.015-0.005l-0.015,0.008L700.39,278.136L700.39,278.136z M700.39,278.136l0.014,0.007l0.013-0.009l-0.004-0.012l-0.015-0.005l-0.015,0.008L700.39,278.136L700.39,278.136z M698.082,276.831l0.011,0.011l0.015-0.004v-0.012l-0.012-0.01l-0.017,0.003L698.082,276.831L698.082,276.831z M698.082,276.831l0.011,0.011l0.015-0.004v-0.012l-0.012-0.01l-0.017,0.003L698.082,276.831L698.082,276.831z M698.766,276.874l0.013,0.009l0.014-0.007l-0.002-0.012l-0.014-0.007l-0.016,0.006L698.766,276.874L698.766,276.874z M698.766,276.874l0.013,0.009l0.014-0.007l-0.002-0.012l-0.014-0.007l-0.016,0.006L698.766,276.874L698.766,276.874z M698.066,277.101l0.021,0.008l0.013-0.005l-0.006-0.01l-0.016-0.006l-0.018,0.002L698.066,277.101L698.066,277.101z M698.358,276.644l-0.019-0.011l-0.014,0.003l0.004,0.011l0.015,0.008l0.018,0.001L698.358,276.644L698.358,276.644z M700.329,277.696v0.016l0.011,0.017l0.009-0.008l-0.002-0.021l-0.01-0.012L700.329,277.696L700.329,277.696z M701.441,278.875l-0.011-0.015l-0.017,0.001l-0.004,0.012l0.017,0.017l0.016,0.003L701.441,278.875L701.441,278.875z M708.61,282.295l0.017,0.022l0.02,0.003l0.007-0.015l-0.02-0.02l-0.017-0.005L708.61,282.295L708.61,282.295z M699.98,277.624l-0.006,0.027l0.01,0.017l0.016-0.005l0.002-0.028l-0.007-0.016L699.98,277.624L699.98,277.624z M699.98,277.624l-0.006,0.027l0.01,0.017l0.016-0.005l0.002-0.028l-0.007-0.016L699.98,277.624L699.98,277.624z M697.567,276.356l0.017,0.022l0.02,0.003l0.007-0.015l-0.02-0.02l-0.017-0.005L697.567,276.356L697.567,276.356z M698.587,276.726l-0.012-0.019l-0.025-0.011l-0.006,0.01l0.014,0.024l0.025,0.011L698.587,276.726L698.587,276.726z M699.179,276.92l0.012-0.009l0.003-0.013l-0.012-0.009l-0.011,0.003l-0.009,0.014l0.004,0.011L699.179,276.92L699.179,276.92z M699.262,277.456l0.011,0.007l0.011-0.003l0.005-0.01l-0.006-0.012l-0.011-0.004l-0.014,0.008L699.262,277.456L699.262,277.456z M699.262,277.456l0.011,0.007l0.011-0.003l0.005-0.01l-0.006-0.012l-0.011-0.004l-0.014,0.008L699.262,277.456L699.262,277.456z M698.603,277.426l0.01,0.009l0.017,0.004l0.013-0.012l-0.01-0.018l-0.019-0.003l-0.01,0.008L698.603,277.426L698.603,277.426z M698.603,277.426l0.01,0.009l0.017,0.004l0.013-0.012l-0.01-0.018l-0.019-0.003l-0.01,0.008L698.603,277.426L698.603,277.426z M707.362,281.719l0.01-0.017l-0.004-0.014l-0.016-0.006l-0.013,0.006l-0.006,0.021l0.009,0.013L707.362,281.719L707.362,281.719z M697.9,276.855l0.006,0.011l0.015,0.012l0.016,0.004l0.006-0.007l-0.009-0.018l-0.016-0.012l-0.016-0.001L697.9,276.855L697.9,276.855z M697.9,276.855l0.006,0.011l0.015,0.012l0.016,0.004l0.006-0.007l-0.009-0.018l-0.016-0.012l-0.016-0.001L697.9,276.855L697.9,276.855z M704.385,281.712l-0.006-0.011h-0.02l-0.01,0.007l0.011,0.016l0.015,0L704.385,281.712L704.385,281.712z M704.445,281.656l0.019-0.003l0.003-0.014l-0.016-0.01h-0.029l-0.007,0.014L704.445,281.656L704.445,281.656z M708.173,282.063l-0.021,0.023l0.021,0.031l0.076,0.003l0.008-0.029l-0.029-0.026L708.173,282.063L708.173,282.063z M711.194,267.464l0.047,0.073l0.004,0.08l0.035,0.049l0.066,0.038l0.01,0.063l-0.031,0.138v0.077l0.038,0.049l0.076,0.031l0.053,0.087l0.048,0.25l0.084,0.094l0.114,0.055v0.077l-0.1,0.132l-0.091,0.052l-0.014,0.052l0.011,0.077l-0.052,0.086l0.031,0.07l0.132,0.094l0.087,0.014l0.118-0.032l0.049-0.066h0.059l0.038,0.087l0.049,0.025l0.083,0.003l0.104,0.056l0.011,0.073l-0.063,0.062l-0.135,0.011l-0.122-0.042l-0.059,0.007l-0.031,0.062l-0.004,0.153l0.049,0.059l0.08,0.049l0.02,0.056l-0.027,0.052l-0.139,0.01l-0.049,0.042v0.055l0.167,0.143l0.121,0.024h0.101l0.07,0.035l0.024,0.056l-0.003,0.069l0.038,0.059l0.167,0.083l0.173,0.06l0.233,0.104l0.254,0.038l0.274-0.007l0.056,0.021l0.014,0.066l0.062,0.069l-0.007,0.028l-0.048,0.018l-0.004,0.024l0.021,0.035l-0.003,0.027l-0.077,0.018l-0.111-0.024l-0.122,0.003l-0.069-0.052l-0.038-0.097l-0.066-0.018l-0.059,0.021l-0.004,0.056l0.031,0.069l-0.024,0.021l-0.184-0.028l-0.167-0.111l-0.059-0.003l-0.028,0.034l0.014,0.039l0.066,0.024l0.007,0.031l-0.028,0.052l-0.135,0.132l-0.052,0.011l-0.132-0.045l-0.042,0.013l-0.031,0.053l-0.004,0.062l0.063,0.063l0.031,0.093l-0.017,0.06l-0.004,0.142l0.014,0.09l-0.021,0.073l-0.069,0.059l-0.08,0.025l0.003,0.024l0.07,0.021h0.135l0.094-0.042l0.042,0.028l0.003,0.108l-0.052,0.048l-0.174,0.066l-0.027,0.08l-0.032,0.028l-0.041-0.003l-0.098-0.07l-0.073-0.007l-0.066,0.025l-0.027,0.052l0.01,0.059l0.049,0.054l0.041,0.108l-0.028-0.001l-0.022,0.006l-0.098,0.021l-0.422-0.018l-0.076-0.028l-0.146-0.111l-0.135-0.083l-0.007-0.042l0.02-0.024l-0.01-0.035l-0.042-0.025l-0.028-0.052l0.025-0.024l0.094,0.042h0.069l0.014-0.032l-0.052-0.059l-0.014-0.062l0.031-0.08l-0.017-0.035l-0.077-0.024h-0.059l-0.031,0.028l-0.035-0.004l-0.02-0.035l0.031-0.045l-0.014-0.038l-0.073-0.073l-0.09-0.024l-0.073-0.084l0.01-0.045l0.042-0.028l-0.004-0.045l-0.031-0.035l-0.038,0.004l-0.035,0.045l-0.003,0.049l0.024,0.041l-0.021,0.032l-0.16-0.028l0.004-0.035l0.08-0.055l0.003-0.056l-0.035-0.004l-0.045,0.06l-0.059-0.007l-0.063-0.053l-0.027,0.011l0.003,0.035l0.038,0.034l-0.014,0.046l-0.038-0.014l-0.021-0.059l-0.093-0.046l-0.035,0.018l0.003,0.031l0.066,0.028v0.028l-0.043,0.043l-0.008,0.073l-0.023,0.003l-0.026-0.057l-0.132-0.017l-0.146-0.09l-0.035-0.091l-0.059-0.042h-0.125l-0.178,0.039l-0.073-0.007l-0.027-0.038l-0.052-0.021l-0.042,0.007l-0.024-0.021l-0.004-0.059l-0.062-0.032l-0.084,0.011l-0.097,0.042l-0.018,0.055l0.014,0.045l0.032,0.021l-0.018,0.056l-0.101,0.041l-0.079,0.004l-0.059-0.024l-0.063-0.007l-0.035,0.017l-0.042-0.003l-0.062-0.066l-0.083-0.032v-0.031l0.034-0.021v-0.045l-0.045-0.073l-0.055-0.01l-0.046,0.024l-0.01,0.045h-0.035l-0.042-0.09l-0.045-0.028l-0.045,0.007l-0.049,0.045l-0.024,0.094l-0.049,0.035l-0.093,0.02l-0.021,0.035l0.014,0.066l-0.021,0.042l-0.087,0.045l-0.038,0.049l-0.115,0.055l-0.066-0.007l-0.16-0.076l-0.076-0.08l-0.101-0.028l-0.156-0.118l-0.077-0.024l-0.059-0.056l-0.066-0.01l-0.076,0.021l-0.049,0.059l-0.066,0.038h-0.052l-0.035-0.028h-0.038l-0.028,0.017l-0.035-0.006l-0.007-0.063l-0.034-0.021l-0.028,0.021v0.049l-0.035,0.024l-0.087-0.014l-0.083,0.007l-0.004-0.028l0.046-0.041l-0.004-0.049l-0.035-0.004l-0.034,0.042h-0.063l-0.017-0.038l0.003-0.104l-0.038-0.004l-0.066,0.09l-0.07,0.025l-0.201-0.025l-0.066-0.041l-0.025-0.066l-0.062-0.052l-0.08-0.014l-0.042-0.038h-0.031l-0.028,0.041l-0.021,0.115l-0.066,0.028l-0.184-0.007l-0.094-0.028l-0.351-0.174l-0.09-0.083l-0.013-0.058h-0.029l-0.036,0.033l-0.044-0.002l0.002-0.034l0.037-0.031l-0.008-0.032l-0.037-0.01l-0.018,0.026l-0.002,0.05l-0.042,0.002l-0.029-0.034l-0.013-0.078l-0.042-0.016l-0.02,0.019l0.036,0.052l-0.013,0.031l-0.086-0.005l-0.039-0.031l0.008-0.05l0.044-0.026l-0.003-0.039l-0.046-0.06h-0.055l-0.029,0.07l-0.039,0.029l-0.052,0.003l-0.034,0.039l-0.002,0.065l-0.029,0.044l-0.057,0.021l-0.058-0.021l-0.023,0.016l0.026,0.068l-0.045,0.057l-0.117,0.003l-0.219-0.081h-0.088l-0.058,0.036l-0.117-0.01l-0.175-0.107l-0.065-0.031l-0.041,0.002l-0.047,0.026l-0.102,0.006l-0.057-0.019h-0.065l-0.097,0.066l-0.031,0.096l-0.031,0.029l-0.008,0.036l0.021,0.039l-0.011,0.037l-0.055,0.093l-0.093,0.058l-0.089,0.026l-0.063,0.044l-0.002,0.037l0.01,0.031l-0.041,0.096l-0.008,0.073l-0.026,0.045l-0.037,0.018l-0.039,0.073l0.003,0.088l-0.032,0.04l-0.122,0.013l-0.081,0.005l-0.055-0.037l-0.023-0.041l-0.029-0.008l-0.036,0.015l-0.06,0.003l-0.031-0.018l-0.006-0.031l-0.067-0.034l-0.045,0.002l-0.039-0.021l-0.062-0.114v-0.045l-0.118-0.083l-0.099-0.018l-0.083-0.05l-0.018-0.034l-0.005-0.101l-0.105-0.136l-0.008-0.044l-0.033-0.034l-0.097-0.005l-0.005-0.029l0.034-0.047l-0.034-0.083l-0.115-0.06h-0.044l-0.104,0.068l-0.055,0.008l-0.029-0.014l0.013-0.052l-0.036-0.015l-0.086,0.008l-0.018,0.039l-0.105,0.005l-0.052-0.024l-0.041,0.008l-0.016,0.058l-0.031,0.005l-0.026-0.011l-0.045,0.011l-0.01,0.034l-0.081,0.067l-0.01,0.047l-0.024,0.024l-0.008,0.044l0.05,0.146l0.029,0.036v0.034l-0.032,0.039l-0.028,0.076l-0.006,0.052l-0.096,0.06v0.029l0.029,0.028l0.06,0.191l0.039,0.015l0.018,0.055l-0.018,0.042l0.015,0.049l-0.023,0.016h-0.042l-0.055,0.023l-0.044,0.125l0.076,0.23v0.078l0.125,0.115l-0.123,0.08l-0.112,0.013l0.05,0.076l-0.008,0.044l0.107,0.125l0.055,0.102l0.075,0.037l0.026,0.028l0.013,0.039l0.055,0.047l0.031-0.008l0.034-0.067l0.037-0.011l0.049,0.026l0.042-0.01l0.008-0.055l0.026-0.021l0.049,0.003l0.013,0.055l0.086,0.106l0.076,0.008l0.023,0.024l-0.002,0.041l0.057,0.107l0.143,0.078l0.042,0.003l0.042,0.024l0.036,0.091l0.037,0.031l0.005,0.063l-0.031,0.018l-0.011,0.034l0.008,0.023l-0.029,0.018l-0.049-0.005l-0.029,0.026l0.005,0.099l0.131,0.112l0.18,0.039l0.065,0.058l0.005,0.057l0.047,0.065l0.01,0.099l-0.015,0.029l0.002,0.029l0.021,0.013l0.008,0.028l-0.016,0.032l0.016,0.073l0.055,0.018l0.049,0.044l-0.005,0.039l-0.055,0.021l-0.083,0.003l-0.011,0.034l0.024,0.046l0.041,0.008l0.032-0.018l0.06,0.021l0.013,0.031l0.112,0.039l0.049,0.042l-0.002,0.031l-0.055,0.037l-0.044,0.109l-0.003,0.084l0.021,0.135l0.052,0.055l0.037,0.073l-0.006,0.044l-0.026,0.036l-0.098,0.01l-0.042,0.023l0.01,0.01l0.043-0.018l0.091-0.007l0.084,0.047l0.099,0.121l0.11,0.07l0.063,0.078l0.003,0.083l0.043,0.054l0.051,0.002l0.094,0.052l0.017,0.061l0.036,0.033l0.076,0.007l0.122-0.01l0.05,0.043l0.001,0.029l-0.021,0.04l0.003,0.107l0.044,0.023l0.125-0.005l0.078,0.023l0.054,0.097l0.077,0.092l0.028,0.097l0.033,0.031l0.118,0.042l0.047,0.046l0.014,0.041l0.08,0.101l0.079,0.065l0.235,0.146l0.038,0.097l-0.005,0.115l0.028,0.031l-0.001,0.031l0.081,0.091l0.049,0.022l0.122,0.013l0.062,0.034l0.053,0.11l0.146,0.09l0.034,0.039l0.027,0.067l0.035,0.032l0.066,0.036l0.071,0.085l0.017,0.051l0.141,0.119l0.086,0.136l0.101,0.09l0.209,0.097l0.045,0.049l0.125,0.073l0.09,0.087l0.101,0.014l0.059-0.018l0.125,0.004l0.167,0.083l0.059,0.08l-0.003,0.104l-0.049,0.091l-0.08,0.059l0.007,0.027l0.035,0.032l0.021,0.087l0.166,0.34l0.056,0.038l0.014,0.077l0.038,0.062l0.223,0.046l0.09,0.083l0.021,0.094l-0.018,0.066l0.007,0.035l0.042,0.006l0.059,0.018l0.101,0.076l0.267,0.125l0.07,0.049l0.247,0.139l0.222,0.438l0.042,0.062l-0.087,0.046l-0.094,0.007l-0.07,0.024l-0.048,0.042l-0.08,0.027l-0.116,0.011l-0.044-0.008l-0.083-0.003l-0.115-0.047l-0.125-0.13l-0.07-0.188l-0.037-0.018l-0.076,0.008l-0.028-0.021l0.026-0.06l-0.005-0.028h-0.021l-0.031,0.049h-0.027l-0.033-0.044l-0.092-0.073l-0.023-0.047l-0.07-0.052l-0.016-0.06l-0.11-0.068l-0.088-0.021l-0.037-0.023l-0.023-0.045l-0.193-0.099l-0.185-0.049l-0.047-0.034l-0.005-0.031l-0.039-0.029l-0.055-0.01l-0.081-0.06l-0.01-0.045l-0.039-0.033l-0.047-0.016l-0.091-0.083l-0.013-0.05l-0.034-0.042l-0.06-0.031l-0.091-0.089l-0.032-0.059l-0.114-0.11l-0.066-0.083l-0.2-0.157l-0.021-0.039l-0.034-0.008l-0.042,0.011l-0.351-0.026l-0.165-0.037l-0.078-0.047l-0.044-0.062l-0.057-0.018l-0.04,0.018l-0.099-0.003l-0.054-0.044l-0.097-0.047l-0.067-0.01l-0.136-0.097l-0.039-0.068l-0.055-0.018l-0.088,0.011l-0.313-0.021l-0.078-0.013l-0.003-0.021l0.057-0.024l0.149-0.034l0.078-0.028v-0.021l-0.104-0.029l-0.313-0.044l-0.122,0.034l-0.084,0.073l-0.099,0.026l-0.091-0.003l-0.07,0.016l-0.037,0.034l-0.094,0.01l-0.18-0.034h-0.075l-0.013,0.021l0.19,0.052l0.016,0.029l-0.042,0.036l-0.115,0.019l-0.07,0.039l-0.081,0.002l-0.052-0.036l-0.049-0.01l-0.045,0.02l-0.057-0.01l-0.026-0.039l-0.078-0.018l-0.039,0.02l-0.032-0.013l0.003-0.023l-0.026-0.01l-0.042,0.015l-0.036-0.008l-0.047-0.039l0.008-0.036l0.083-0.003l0.021-0.034l-0.018-0.052l-0.021-0.01l-0.037,0.034l-0.028-0.006l-0.006-0.041l-0.093-0.039l-0.042-0.11l0.013-0.06l-0.023-0.172l0.018-0.036l0.161,0.008l0.002-0.02l-0.076-0.021l-0.084-0.007l-0.038-0.018l0.01-0.024l0.066,0.004l0.056,0.02l0.028-0.007l-0.038-0.069l-0.139-0.129l-0.098-0.027l-0.069-0.077l0.007-0.031l0.069-0.017l0.045,0.02l0.025-0.007l-0.025-0.059l-0.073-0.059l-0.024,0.004l0.018,0.055l-0.063,0.035l-0.066-0.003l-0.122-0.077l-0.097-0.038l-0.198-0.021l-0.129-0.066l-0.062-0.087l-0.063-0.021l-0.021,0.025l0.073,0.107l-0.01,0.025l-0.052-0.004l-0.129-0.066l-0.048-0.083l-0.139-0.129l0.007-0.028h0.034l0.084,0.028l0.024,0.066l0.07,0.052l0.007-0.024l-0.039-0.042l0.007-0.024l0.108,0.01l0.083,0.039l0.032-0.007l-0.035-0.045l-0.174-0.094l-0.118-0.025l-0.181-0.135l-0.027-0.049l-0.101-0.083l-0.136-0.042l-0.069-0.055l-0.035-0.077l-0.063-0.066l-0.045-0.014l-0.069-0.059l-0.038-0.076l-0.185-0.181l-0.097-0.028l-0.076-0.083l-0.025-0.08l-0.087-0.087l-0.083-0.042l-0.094-0.118l-0.003-0.069l-0.111-0.122l-0.087-0.049l-0.018-0.048l0.049-0.056v-0.087l-0.087-0.055l-0.076-0.07v-0.052l0.066-0.049l0.048,0.004l0.101,0.128l0.059,0.011l0.056-0.021l0.014-0.052l-0.035-0.063v-0.045l0.035-0.017l0.038,0.007l0.101,0.09l0.128,0.09h0.042l0.014-0.048l-0.049-0.077l0.014-0.027l0.045-0.011l0.004-0.031l-0.115-0.09l-0.024-0.06l0.024-0.02l0.212,0.107l0.021,0.063l0.257,0.142l0.076,0.007l0.046-0.017l0.069,0.003l0.094,0.035l0.181,0.031l0.017-0.027l-0.042-0.066l-0.069-0.021h-0.084l-0.118-0.052l-0.111-0.119l-0.087-0.045l-0.226-0.09l-0.253-0.146l-0.212-0.24l-0.285-0.236l-0.098-0.17l-0.253-0.212l-0.111-0.049l-0.077-0.066l-0.052-0.104l-0.038-0.111l-0.108-0.119l-0.002-0.041l-0.122-0.162v-0.075l0.01-0.071v-0.049l-0.028-0.065l-0.029-0.188l0.016-0.224l0.034-0.06l0.02-0.107l0.055-0.159l0.021-0.156l-0.026-0.079l-0.05-0.052l-0.062-0.127l-0.013-0.092l-0.086-0.2l-0.039-0.058l-0.024-0.08l-0.041-0.032l-0.063-0.007l-0.136-0.066l-0.083-0.01l-0.109-0.078l-0.034-0.058l-0.253-0.203l-0.05-0.013l-0.052-0.042l-0.021-0.059l-0.049-0.045l-0.064-0.029l-0.058-0.056l-0.029-0.069l0.018-0.028l0.029-0.005l0.01-0.021l-0.044-0.05l-0.068-0.034l-0.013,0.019l0.055,0.073l-0.016,0.028h-0.052l-0.081-0.039l-0.143-0.112l-0.18-0.086l-0.349-0.096l-0.042,0.002l-0.062,0.06l-0.037,0.082l-0.04,0.033l-0.028,0.062l-0.007,0.044l-0.047,0.144l-0.012,0.071l-0.073,0.183l0.007,0.054l-0.022,0.102l-0.056,0.146l-0.057,0.087h-0.021l-0.017-0.03l-0.047-0.026l-0.007,0.014l0.04,0.037l0.017,0.048l-0.035,0.079l-0.078,0.074l-0.026,0.005l-0.01-0.013l-0.02,0.008l0.028,0.089l0.007,0.057l-0.012,0.005l-0.017-0.01l-0.014,0.007l0.066,0.139l0.015,0.095l-0.015,0.068l-0.071,0.084l-0.03-0.006l-0.014-0.022l-0.021-0.005l-0.015,0.013l-0.025-0.005l-0.022-0.024l-0.028-0.004l-0.089,0.058l-0.036,0.043l-0.018-0.003l0.004-0.061l0.029-0.037l0.058-0.01l0.003-0.017l-0.059-0.07l-0.008-0.04l-0.018-0.012h-0.035l-0.02-0.028l0.001-0.034l-0.026-0.054l-0.024-0.013l-0.011,0.013l0.014,0.055l-0.02,0.042l0.015,0.029l0.054,0.018l0.043,0.026l0.004,0.045l-0.037,0.085l-0.041,0.059l-0.021,0.002l-0.007,0.014l0.017,0.057l-0.038,0.059l-0.035,0.007l-0.008,0.018l0.022,0.015l-0.012,0.028l-0.076,0.057l-0.044,0.002l-0.026-0.024l-0.024-0.005l-0.002,0.015l0.045,0.04l0.03,0.012l-0.004,0.016l-0.026,0.012l-0.005,0.028l0.021,0.042l-0.007,0.022l-0.033,0.016l-0.03,0.047l0.006,0.031l0.033,0.047l0.024,0.083l-0.016,0.023h-0.12l-0.079-0.017l-0.049-0.044l-0.042-0.003l-0.014,0.015l0.03,0.059l-0.009,0.079l0.026,0.069l-0.015,0.014l-0.047-0.01l-0.014-0.023l0.012-0.073l-0.007-0.057l-0.021-0.019l-0.122-0.016l-0.067-0.063l-0.002-0.029l-0.024-0.019l-0.023,0.001l-0.012-0.02l0.014-0.047l-0.021-0.028l-0.063-0.023h-0.04l-0.031-0.038l0.007-0.021l0.03-0.001l0.041,0.034l0.054,0.002l0.061-0.043l0.004-0.033l-0.025-0.004l-0.062,0.031l-0.04-0.014l-0.019-0.034l0.007-0.068l-0.014-0.104l-0.073-0.128l-0.069-0.097l-0.007-0.046l-0.014-0.015l-0.08,0.007l-0.024-0.013l-0.011-0.029l-0.064-0.079l-0.004-0.038l-0.023-0.018l-0.049-0.003l-0.014-0.014l0.003-0.037l-0.023-0.04l-0.007-0.032l-0.079-0.057l-0.06-0.011l-0.032,0.011l-0.025-0.007l0.002-0.029l0.025-0.026l0.018-0.064l-0.013-0.037l-0.065-0.018l-0.048-0.036l0.001-0.032l0.022-0.011l0.022,0.002l0.011-0.008l0.003-0.029l0.02-0.01l0.036,0.004l0.173,0.002l0.052-0.018l0.057-0.004l0.042,0.007l0.007-0.01l-0.054-0.015l-0.061,0.001l-0.047,0.015l-0.173-0.004l-0.035-0.01l-0.029-0.002l-0.022,0.027l-0.028,0.003l-0.024-0.022l-0.001-0.05l0.017-0.022l0.002-0.026l-0.026-0.052l-0.023-0.03l0.001-0.017l0.029-0.005l0.001-0.015l-0.06-0.047v-0.029l0.037-0.01l0.001-0.017l-0.02-0.019l-0.003-0.02l0.018-0.027l0.016-0.09l-0.027-0.069l-0.045-0.021l-0.007-0.031l0.036-0.052l0.042,0.004l0.017-0.011l-0.016-0.02l-0.051-0.011l-0.037-0.04l0.004-0.023l0.075-0.028l0.026-0.037l0.003-0.035l-0.017-0.007l-0.058,0.039l-0.069-0.006l-0.013-0.033l-0.044-0.018l-0.025-0.029l-0.018-0.287l-0.072-0.106l-0.028-0.241l-0.063-0.071l0.009-0.055l0.068-0.029l0.104,0.036l0.126,0.079l0.029,0.022l0.015-0.004l-0.001-0.022l0.066,0.054l0.061,0.02l0.054,0.004l0.081,0.038l0.037,0.039l0.039,0.001l0.059-0.053l0.038-0.001l0.03,0.01l0.036-0.007l0.035-0.028l0.081-0.003l0.049-0.026l0.084,0.007l0.053,0.032l0.012,0.032l-0.004,0.027l0.046,0.046l0.129,0.025l0.075,0.029l0.042-0.01l0.065-0.091l0.043-0.025l0.106-0.017l0.056,0.003l0.038,0.028l0.027-0.003l0.031-0.03l0.012-0.052l0.028-0.031l0.001-0.038l-0.054-0.05l-0.045-0.016l-0.015-0.039l0.03-0.04l0.025-0.002l0.058,0.024l0.022-0.008l-0.007-0.027l0.022-0.018l0.031,0.002l0.104,0.086l0.05,0.018l0.062,0.047l0.071,0.018l0.085,0.004l0.079,0.029l0.035-0.002l0.041-0.022l0.085,0.007l0.095,0.042l0.023-0.003l0.005-0.036l-0.008-0.024l0.061-0.072l0.045-0.022l0.038,0.004l0.059,0.081l0.029,0.007l0.039-0.028l0.036,0.008l0.026,0.025l0.043,0.013l0.024-0.01l0.019,0.01l0.014,0.037l0.021,0.004l0.065-0.048l0.058-0.007l0.123-0.043l0.024-0.047l0.046-0.029l0.058,0.004l0.098-0.051l0.06-0.057l0.062-0.018l0.036-0.039l0.011-0.047l-0.018-0.055l0.01-0.056l0.026-0.036l0.003-0.044l-0.022-0.028l0.004-0.027l0.03-0.006l0.025,0.011l0.062-0.026l0.126-0.183l0.006-0.091l0.014-0.01l0.027,0.014l0.006,0.026l0.022,0.006l0.036-0.022l0.039,0.011l0.011,0.032l-0.024,0.059l-0.006,0.053l-0.014,0.022l0.008,0.026l0.05,0.035l0.044,0.011l0.017,0.014v0.025l0.022,0.016l0.019,0.002l0.063,0.051l0.063,0.011l0.063,0.048l0.031,0.072l-0.015,0.029l-0.026,0.021l-0.007,0.087l0.015,0.025l0.024,0.01l0.016-0.007v-0.022l0.053-0.013l0.073,0.027l0.103,0.088l0.116,0.038l0.035,0.041l0.012,0.07l0.028,0.026l0.001,0.037l0.027,0.017l0.162-0.026l0.036-0.03l0.062-0.019l0.039,0.004l0.033-0.029l0.022-0.108l-0.01-0.052l0.024-0.056h0.047l0.192,0.143l0.11,0.014l0.041,0.033l0.064,0.004l0.022-0.024l0.043,0.002l0.086,0.044l0.012,0.056l0.036,0.027l0.036,0.006l0.072,0.068l0.04,0.011l0.027,0.026l0.025,0.048l0.061,0.034l0.065,0.004l0.023-0.028l0.002-0.029l0.016-0.004l0.035,0.035l0.077-0.002l0.022-0.047l0.084-0.09l0.083-0.032l0.063,0.004l0.136,0.047l0.066-0.018l0.061-0.095l0.078-0.033v-0.022l-0.035-0.032l-0.015-0.003l-0.015,0.011l-0.018-0.003l-0.093-0.061l-0.069-0.073l-0.004-0.026l-0.014-0.016l-0.025-0.007l-0.014-0.016l-0.005-0.19l-0.014-0.034l-0.06-0.07l0.004-0.023l0.035-0.025l0.046-0.004l0.009-0.014l-0.012-0.029l0.008-0.036l0.046-0.017l0.108-0.004l0.019-0.019l-0.016-0.024l0.016-0.012l0.05-0.003l0.026,0.01l0.019,0.026l0.054,0.006l0.045-0.042l-0.006-0.021l-0.03-0.009l-0.012-0.015l-0.005-0.051l-0.08-0.078l-0.021,0.005l-0.009,0.03l-0.029,0.028l-0.021-0.004l-0.002-0.038l0.016-0.023l0.029-0.01l0.011-0.033l-0.028-0.082l-0.028-0.012l-0.05,0.023l-0.049,0.083l0.012,0.073h-0.019l-0.036-0.054l0.005-0.035l-0.016-0.012l-0.024,0.012l-0.007,0.025l-0.028-0.007l-0.003-0.047l-0.023-0.033l-0.031-0.005l-0.021-0.023l-0.024-0.009l-0.013-0.019l0.018-0.036l0.029-0.028l0.026-0.036l0.056-0.03l0.021-0.023l0.11-0.043l0.116-0.064h0.029l0.051-0.022l0.031-0.032l0.056-0.029l0.063-0.01l0.041,0.01l0.108-0.001l0.031-0.01l0.005-0.017l-0.033-0.072l0.006-0.016l0.027-0.002l0.017-0.021l0.004-0.02l0.029-0.018l0.028,0.001l0.023,0.007l0.003,0.013l-0.011,0.013l0.006,0.016h0.033l0.062-0.016l0.025-0.029l0.008-0.076l0.017-0.005l0.029,0.013l0.008,0.021l0.021,0.018l0.017-0.001l0.002-0.032l0.024-0.036l0.021-0.001l0.026,0.018l0.042,0.007l0.139,0.078l0.031,0.034l0.023-0.002l0.054-0.069l0.032-0.017l0.065-0.004l0.018-0.02l0.02-0.006l0.023,0.01l0.011-0.013l-0.018-0.03l-0.068-0.046l-0.016-0.029l0.014-0.046l0.023-0.004l0.004-0.015l-0.029-0.017l-0.012-0.059l0.008-0.025l0.06-0.038l0.029-0.038l0.012-0.056l-0.005-0.185l-0.015-0.058l0.005-0.053l0.021-0.022l0.01-0.031l-0.014-0.023l0.001-0.017l0.017-0.011l0.015-0.039l-0.003-0.031l0.022-0.023l0.025,0.002l0.013-0.013l-0.013-0.034l-0.061-0.045l-0.03,0.002l-0.05-0.02l-0.01-0.018l-0.061-0.029l-0.034,0.007l-0.021-0.011l-0.003-0.039l-0.045-0.019l-0.042,0.011l-0.032-0.012l-0.01-0.028l0.012-0.022l-0.013-0.015l-0.032-0.011l-0.023-0.045l0.015-0.061l-0.004-0.056l-0.033-0.025l-0.003-0.023l0.027-0.02l0.009-0.052l0.016-0.024l0.072-0.043l0.018-0.038l0.039-0.033l0.003-0.047l-0.024-0.018l-0.001-0.024l0.019-0.02l0.071-0.042l0.046-0.004l0.086,0.01l0.06-0.002l0.024,0.007l0.007,0.021l0.019,0.003l0.022-0.016h0.032l0.02,0.014l0.002,0.038l0.014,0.009l0.033-0.007l0.077-0.047l0.019-0.031l-0.006-0.03l0.006-0.019l0.024-0.011l0.002-0.032l-0.027-0.052l0.004-0.018l0.129-0.01l0.037-0.015l0.087-0.016l0.033-0.047l0.071-0.018l0.032-0.025l0.04-0.005l0.032,0.01l0.119-0.031l0.055-0.028l0.031-0.049l0.062-0.007l0.046,0.015l0.043-0.015l0.037-0.096l0.032-0.023l0.05,0.001l0.084-0.028l0.017-0.022l-0.021-0.079l-0.068-0.084l0.007-0.04l0.028-0.013l0.079,0.015l0.048-0.001l0.101-0.04l0.04-0.026h0.053l0.091,0.08l0.072,0.032l0.095-0.006l0.023-0.019l0.032,0.004l0.008,0.022l0.021,0.007l0.023-0.006l0.057,0.014l0.114-0.004l0.029-0.026l0.003-0.078l-0.07-0.065l-0.033-0.008l-0.014-0.021l0.003-0.028l-0.058-0.214l-0.028-0.044l-0.028-0.014l-0.007-0.033l0.017-0.047l0.07-0.026l0.014-0.042l0.038-0.01l0.061,0.019l0.036-0.009l0.021-0.022l0.01-0.026l0.033-0.021l0.04-0.007l0.023-0.016l0.012-0.029l0.068-0.037l0.005-0.022l0.021-0.014l0.038,0.01l0.005,0.019l-0.022,0.012l0.002,0.018l0.079,0.035l0.023,0.027l0.028,0.007l0.054-0.01l0.047,0.026l0.003,0.033l0.033,0.01l0.064-0.005l0.068,0.04l0.014,0.038l0.026,0.019h0.03l0.038,0.028l0.012,0.047l0.028,0.009l0.029-0.009l0.098,0.014l0.027,0.023l0.046,0.005l0.066-0.007l0.001-0.014l0.028,0.001l0.044,0.038l0.067,0.018l0.052,0.002l0.042,0.039l-0.007,0.028l0.005,0.008l0.028-0.008l0.026,0.012l0.07,0.135l0.081,0.12l0.018,0.002l0.017-0.031l0.029-0.01l0.019,0.016l0.002,0.038l0.022,0.015l0.033,0.003l0.037,0.018l0.049,0.005l0.045-0.023l0.039,0.013l0.036,0.041l0.052,0.016l0.026-0.013l0.024,0.01l0.008,0.029l0.047,0.055l0.047,0.018l0.033,0.063l-0.007,0.049l0.013,0.089l0.039,0.049v0.06l0.091,0.097l0.073,0.034l0.075,0.067l0.055-0.005l0.024,0.018l-0.003,0.052l0.052,0.024l0.063,0.005l0.156,0.086l0.047,0.005l0.023,0.016l0.013,0.034l0.037,0.021l0.047-0.006l0.131,0.065l0.014,0.038l0.035,0.01l0.038-0.02l0.045,0.02l0.014,0.039l0.069,0.052l0.011,0.066l-0.017,0.041v0.073l0.031,0.014l0.103-0.017l0.039,0.049l-0.013,0.06l-0.07,0.026l0.005,0.024l0.065-0.016l0.045,0.019l0.02,0.049l0.024,0.018l0.081,0.008l0.007,0.037l-0.036,0.033l0.021,0.042l0.096,0.011l0.011,0.031l-0.118,0.049l0.008,0.021l0.078,0.039l0.063-0.002l0.013,0.018l-0.036,0.049l0.028,0.027l0.047-0.021l0.018,0.018l-0.031,0.065l0.018,0.013l0.058-0.039l0.01-0.039l-0.018-0.047l0.015-0.013l0.032,0.034l0.013,0.052l0.039,0.003l0.031-0.066l0.029,0.006v0.073l-0.031,0.039l0.018,0.021l0.052-0.013l0.021,0.018l-0.05,0.021l-0.107-0.013l-0.02,0.026l0.02,0.044l0.045,0.01l0.075-0.026l0.029,0.016l-0.005,0.052l0.031,0.011l0.034-0.037l0.031,0.008l0.013,0.031l0.057,0.011l0.014-0.032l-0.029-0.036l0.01-0.031l0.052-0.003l0.146,0.036l0.112,0.008l0.05,0.024l0.057,0.005l0.05-0.021l0.068,0.016l0.083,0.073l0.068,0.036l0.075,0.102l0.047,0.109l0.008,0.081l0.044,0.052l0.052,0.013l0.045-0.018l0.047,0.005l0.041,0.026l0.105,0.021l0.052,0.06l0.041,0.003l0.029-0.019l0.05,0.006l0.054,0.044l0.037,0.008l0.036-0.019l0.039,0.019l0.003,0.049l0.073,0.065l0.018,0.047l0.039,0.005l0.032-0.044l0.088-0.055l0.042-0.002l0.039,0.021h0.029l0.073-0.026l0.109,0.005l0.044-0.016l0.037,0.005l0.088,0.068l0.12,0.029l0.081,0.034l0.073-0.006l0.089-0.096l0.08-0.003l0.063,0.045h0.042l0.044-0.034h0.055l0.107,0.034l0.054,0.07l0.11,0.026l0.073-0.013l0.135,0.024l0.019,0.031l0.026-0.003l0.062-0.083l0.052-0.008l0.073,0.031l0.013,0.06l0.039,0.034l0.125,0.018l0.037-0.028l-0.013-0.073l0.044-0.032l0.071-0.002l0.02-0.024l0.021-0.093l0.042-0.006l0.047,0.034l0.065-0.028l0.081-0.006l0.065-0.049l0.013-0.039l0.112-0.104l0.047-0.011l0.018-0.029l-0.01-0.052l0.029-0.083l0.026-0.005l0.026,0.023l0.036-0.005l0.003-0.029l-0.032-0.047l0.013-0.033l0.045-0.008l0.013-0.029l-0.026-0.057l0.021-0.016l0.049,0.01l0.076-0.01l0.054,0.013l0.026,0.034l0.053,0.021h0.049l0.115,0.065l0.047,0.042l0.054,0.002l0.032-0.021l0.008-0.062l-0.021-0.037l0.027-0.025L711.194,267.464z M706.879,281.14l0.107-0.131l0.059-0.031l0.155,0.036l0.101,0.039l0.087,0.071l0.028,0.002l0.06-0.108l0.124,0.057l0.057,0.063l0.002,0.031l-0.014,0.026v0.04l0.036,0.071l0.049,0.058l0.076,0.026v0.014l-0.031,0.033l-0.005,0.034l0.023,0.018l0.073,0.001l0.139,0.047l0.086,0.082l0.058,0.01l0.026,0.018l0.002,0.034l0.057,0.063l0.111,0.019l0.123,0.103l0.082,0.036l0.031,0.051l-0.012,0.06l0.028,0.023l0.103,0.017l0.031,0.028l0.024,0.068l0.026,0.014l0.058-0.018l0.055,0.028l0.101,0.124l0.05,0.043l0.032,0.009l0.013,0.034l0.025,0.011l0.081-0.024l0.016-0.021l0.023-0.004l0.12,0.004l0.067-0.021h0.063l0.054,0.012l0.06,0.09l0.051,0.044l0.151,0.099l0.002,0.032l-0.002,0.154l0.031,0.031v0.034l-0.036,0.075l0.01,0.034l0.102,0.047l0.057,0.06l0.029,0.058l0.132,0.099l-0.011,0.008l-0.02-0.005l-0.012,0.012l-0.002,0.037l0.014,0.026l0.029,0.012l0.018,0.019l-0.014,0.009l-0.035-0.016l-0.203-0.201l-0.086-0.034l-0.045,0.018l-0.031-0.021l-0.005-0.021l0.026,0.003l0.005-0.018l-0.164-0.107l-0.242-0.133l-0.068-0.018l-0.076-0.045l-0.021-0.041l-0.044-0.037l-0.073-0.029l-0.07-0.083l0.002-0.063l0.026-0.026l-0.002-0.067l-0.055-0.047l-0.044-0.008l-0.055,0.031l-0.039-0.002l-0.05-0.047l-0.172-0.068l-0.08-0.003l-0.11-0.034l-0.008-0.026l0.024-0.026l0.034-0.002l0.013-0.019l-0.141-0.091l-0.05-0.005l-0.132-0.057l-0.253-0.171l-0.085-0.027l-0.101-0.091l0.004-0.028l0.025-0.014l0.02-0.034l-0.003-0.013l-0.021,0.006l-0.025,0.03l-0.032,0.002l-0.054-0.04l-0.016-0.049l-0.028-0.012l-0.023,0.009l-0.064-0.009l-0.036-0.021l-0.031,0.003v0.027l-0.041,0.039l-0.028-0.007l-0.025-0.036l-0.099-0.062l-0.137-0.069l-0.02-0.022l-0.011,0.006l0.013,0.028l0.146,0.093l0.068,0.075l0.025,0.043l0.001,0.03l-0.018,0.039h-0.019l-0.028-0.022v-0.018l0.018-0.024l-0.001-0.04l-0.026-0.029l-0.016-0.003l-0.022,0.01l-0.066-0.011l-0.125-0.047l-0.021-0.02l-0.027-0.011l-0.086-0.012l-0.241-0.087l-0.259-0.06l-0.064-0.033l-0.16-0.047l-0.05-0.028l-0.006-0.023l0.016-0.02l0.025-0.005l0.019-0.027l-0.011-0.016l-0.079-0.036l-0.087-0.057l-0.02-0.001l-0.029,0.016l-0.106-0.003l-0.068-0.037l-0.029-0.033l-0.046-0.027l-0.242-0.085l-0.065-0.035l-0.06-0.058l-0.063-0.024h-0.042l-0.022,0.018l-0.049,0.011l-0.145-0.009l-0.151-0.034l-0.068-0.002l-0.077-0.025l-0.097-0.061l-0.054-0.008l-0.004-0.016l0.022-0.05l0.026-0.03l-0.004-0.01l-0.025,0.003l-0.025-0.017l-0.011-0.04l-0.03-0.013l0.005-0.013h0.038l0.059,0.017l0.13,0.084l0.046,0.018h0.064l0.078-0.015l0.21,0.003l0.076,0.022l0.065,0.009l0.087,0.006l0.172,0.046l0.095,0.015l0.391,0.179l0.031,0.002l0.05,0.02l0.047,0.044l0.005,0.051l0.027,0.033l0.101,0.048l0.027,0.019l0.105,0.012l0.023-0.011l0.005-0.037l0.018-0.004l0.03,0.021l0.215,0.085l0.036,0.002l0.049,0.023l0.052,0.053l0.051,0.019l0.029-0.009l0.094,0.045l0.078,0.083l0.067,0.042l0.053,0.01l0.004-0.012l-0.066-0.038l-0.117-0.101l-0.116-0.056l-0.043-0.036L706.879,281.14z"/>
</svg>
