<svg xmlns="http://www.w3.org/2000/svg" viewBox="701.206 254.877 25.019 13.250">
  <path d="M701.206,262.939l0.036,0.032l0.069,0.028l0.072,-0.008l0.102,-0.045l0.103,-0.016l0.04,-0.022l0.048,-0.005l0.093,0.019h0.071l0.027,0.011l0.038,0.041l0.141,0.069l0.015,0.058l-0.026,0.082l-0.026,0.033l-0.056,0.024l-0.024,0.033l0.011,0.042l0.036,0.01l0.005,0.03l-0.016,0.048l0.011,0.033l0.09,0.084l0.018,0.064l0.024,0.007l0.031,-0.016l0.033,0.018l-0.021,0.041l0.019,0.033l0.054,0.016l0.108,-0.002l0.013,0.023l-0.018,0.118l-0.023,0.017l-0.067,-0.014l-0.031,0.018l-0.003,0.071l0.119,0.104l0.077,0.023l0.145,0.144l0.018,0.05l0.031,0.014l0.034,-0.005l0.033,0.021l0.021,0.088l0.031,0.016l0.013,0.036l-0.008,0.08l0.023,0.035l0.13,0.052l0.025,0.036l0.071,0.027l0.028,0.002l0.044,0.037l0.067,0.019l0.052,0.002l0.042,0.039l-0.007,0.028l0.005,0.009l0.028,-0.009l0.026,0.013l0.07,0.135l0.081,0.122l0.018,0.001l0.017,-0.031l0.029,-0.009l0.02,0.015l0.001,0.039l0.022,0.015l0.034,0.002l0.036,0.019l0.05,0.005l0.044,-0.024l0.039,0.013l0.037,0.043l0.052,0.015l0.026,-0.013l0.023,0.011l0.008,0.029l0.047,0.055l0.047,0.018l0.034,0.063l-0.008,0.05l0.013,0.089l0.039,0.05v0.061l0.092,0.097l0.073,0.034l0.075,0.068l0.055,-0.005l0.023,0.018l-0.002,0.053l0.052,0.024l0.063,0.005l0.156,0.086l0.047,0.006l0.024,0.016l0.013,0.034l0.036,0.021l0.047,-0.006l0.131,0.065l0.014,0.039l0.035,0.01l0.038,-0.021l0.045,0.021l0.014,0.039l0.07,0.052l0.01,0.067l-0.017,0.042v0.073l0.031,0.014l0.104,-0.017l0.039,0.05l-0.013,0.06l-0.071,0.026l0.006,0.024l0.065,-0.016l0.044,0.019l0.021,0.05l0.023,0.018l0.081,0.008l0.008,0.037l-0.036,0.034l0.02,0.042l0.097,0.01l0.01,0.032l-0.117,0.05l0.008,0.021l0.078,0.039l0.063,-0.002l0.013,0.018l-0.037,0.05l0.029,0.026l0.047,-0.021l0.018,0.018l-0.031,0.066l0.018,0.013l0.057,-0.039l0.011,-0.04l-0.018,-0.047l0.015,-0.013l0.032,0.034l0.013,0.053l0.039,0.002l0.031,-0.065l0.029,0.005v0.074l-0.032,0.039l0.019,0.021l0.052,-0.013l0.021,0.018l-0.05,0.021l-0.107,-0.013l-0.021,0.026l0.021,0.045l0.045,0.01l0.075,-0.026l0.029,0.016l-0.005,0.053l0.031,0.01l0.034,-0.037l0.031,0.008l0.013,0.032l0.058,0.01l0.013,-0.031l-0.029,-0.037l0.01,-0.032l0.053,-0.002l0.146,0.036l0.112,0.008l0.049,0.024l0.058,0.005l0.049,-0.021l0.068,0.016l0.083,0.074l0.068,0.036l0.076,0.103l0.047,0.11l0.008,0.081l0.044,0.053l0.052,0.013l0.045,-0.018l0.046,0.005l0.042,0.026l0.104,0.021l0.053,0.061l0.041,0.002l0.029,-0.018l0.05,0.005l0.054,0.045l0.037,0.008l0.036,-0.019l0.04,0.019l0.002,0.05l0.073,0.065l0.018,0.048l0.04,0.005l0.031,-0.045l0.089,-0.055l0.041,-0.003l0.039,0.021h0.029l0.073,-0.026l0.11,0.005l0.044,-0.015l0.036,0.005l0.089,0.068l0.12,0.029l0.081,0.034l0.073,-0.005l0.089,-0.097l0.081,-0.003l0.062,0.045h0.042l0.044,-0.034h0.055l0.107,0.034l0.055,0.071l0.109,0.026l0.073,-0.013l0.136,0.023l0.018,0.032l0.026,-0.003l0.063,-0.084l0.052,-0.008l0.073,0.032l0.013,0.06l0.039,0.035l0.125,0.018l0.037,-0.029l-0.013,-0.074l0.044,-0.031l0.071,-0.003l0.02,-0.023l0.021,-0.095l0.042,-0.005l0.047,0.034l0.065,-0.029l0.081,-0.005l0.065,-0.05l0.013,-0.039l0.112,-0.105l0.047,-0.011l0.019,-0.029l-0.011,-0.052l0.029,-0.084l0.026,-0.006l0.026,0.024l0.037,-0.005l0.002,-0.029l-0.031,-0.047l0.013,-0.035l0.044,-0.008l0.013,-0.028l-0.026,-0.058l0.021,-0.016l0.05,0.011l0.075,-0.011l0.055,0.013l0.026,0.034l0.052,0.021h0.05l0.115,0.066l0.046,0.042l0.055,0.003l0.032,-0.021l0.007,-0.063l-0.021,-0.037l0.028,-0.025l0.025,-0.016l0.031,0.028l0.122,-0.017l0.007,-0.031l0.02,-0.007l0.023,0.012l0.057,-0.023l0.039,-0.046l0.052,-0.005l0.146,0.026l0.108,-0.006l0.057,0.024l0.024,-0.013l-0.029,-0.08l0.029,-0.063l0.065,-0.023l0.123,-0.01l0.063,0.013l0.019,-0.015l-0.05,-0.125l0.008,-0.033l0.118,-0.149l0.039,-0.013l0.068,0.009l0.029,0.027l0.04,0.1v0.04l0.016,0.018l0.191,0.01l-0.017,-0.028h0.123l0.023,0.019l0.173,-0.003l0.04,0.031l0.023,-0.013l-0.076,-0.099l0.304,-0.164l0.059,0.071l0.134,-0.045l0.047,-0.061l0.135,-0.097l-0.001,-0.061l0.057,-0.042l0.104,-0.023l0.065,-0.048l-0.07,-0.056l-0.014,-0.04l0.044,-0.036l0.043,0.015l0.122,-0.084l0.007,-0.038l0.021,-0.016l0.175,0.054l0.059,-0.006l0.077,-0.076l0.039,-0.006l0.047,0.042l0.026,-0.002l0.031,-0.028l0.052,-0.003l0.059,0.063l0.069,0.019l0.07,0.083l0.132,0.036l0.08,0.039l0.136,-0.079l0.083,-0.016l0.146,-0.046l0.063,-0.056l0.281,-0.007l0.056,0.02l0.017,0.099l0.042,0.026l0.077,-0.016l0.125,-0.129l0.042,0.017v0.039l0.087,0.069l0.059,0.017l0.128,-0.066l0.091,0.069l0.021,0.04l0.076,0.042l0.038,-0.016l0.025,0.003l-0.014,0.033l0.031,0.017l0.035,-0.037l0.104,-0.124l0.056,-0.03l0.013,0.034l0.164,-0.089l0.038,0.058l0.125,0.007l0.146,0.055l0.08,-0.004l0.108,-0.109l0.007,-0.069l0.038,-0.024l0.157,0.045l0.139,0.113l0.094,0.034l0.083,0.079l0.046,-0.007l0.027,-0.069l0.063,-0.02h0.076l0.129,-0.182l0.017,-0.072h0.115l-0.038,-0.202l0.094,-0.117l0.066,0.011l0.296,-0.058l0.066,0.065l0.087,0.027l0.031,-0.014l0.024,-0.037h0.059l0.032,0.058l0.139,0.017l0.087,-0.021l0.045,0.014l0.024,0.048l0.08,0.034l0.045,-0.013l0.101,-0.069l0.08,-0.181l0.084,-0.014l0.027,0.027h0.08l0.032,-0.037l-0.021,-0.059l0.021,-0.075l0.041,-0.024l0.028,-0.045v-0.102l0.032,-0.127l0.08,-0.048l0.194,0.037l0.049,-0.017v-0.048l0.08,-0.147l-0.063,-0.113l-0.1,-0.028l-0.035,-0.096l0.048,-0.171l0.056,-0.034l0.101,-0.137l-0.004,-0.041l-0.041,-0.007l-0.014,-0.035l0.035,-0.082l0.066,-0.089l0.146,-0.017l0.125,0.051l0.035,-0.013l0.01,-0.059l0.045,-0.041l0.094,-0.044v-0.041l-0.049,-0.011l-0.045,-0.085l0.032,-0.038l0.066,0.024l0.059,-0.021l0.059,0.035l0.062,-0.021l0.08,-0.123l-0.003,-0.096l-0.136,-0.103l0.018,-0.065l0.062,-0.031l0.046,-0.137l-0.007,-0.103l0.059,-0.058l0.212,-0.062l0.038,-0.027l-0.003,-0.048l0.031,-0.038l-0.004,-0.082l-0.031,-0.011l-0.021,-0.072l0.045,-0.048l0.112,-0.017l0.073,-0.089h0.055l0.028,-0.055l-0.041,-0.024l0.017,-0.099l0.035,-0.034l-0.007,-0.072l-0.07,-0.035l-0.042,-0.048l0.007,-0.041l0.136,-0.044l0.083,-0.089l0.004,-0.062l0.035,-0.069l0.208,-0.041l0.046,-0.048l0.08,-0.233l0.156,-0.092l0.004,-0.124l-0.035,-0.031l-0.007,-0.044l0.076,-0.123l0.07,-0.042l0.014,-0.037l-0.028,-0.041l0.056,-0.161l0.149,-0.24l0.087,-0.059l0.087,-0.003l0.045,0.027h0.063l0.076,-0.171l-0.021,-0.154l-0.041,-0.038l-0.046,-0.106l0.042,-0.165l0.098,-0.123l0.059,0.044l0.034,-0.041l-0.038,-0.048l0.07,-0.058l0.066,-0.003l0.097,-0.103l0.007,-0.048l0.035,-0.028l0.094,0.035l0.059,-0.004l0.049,-0.075l0.041,-0.192l0.042,-0.021l0.038,-0.037l0.011,-0.093l0.031,-0.044l0.056,-0.004l0.045,-0.027l0.01,-0.12l0.039,-0.035l0.062,-0.003l0.094,-0.075v-0.065l0.035,-0.024l0.115,0.085l0.212,0.024l0.052,-0.024l0.087,-0.25l0.115,-0.031l0.212,0.11l0.059,0.055h0.215l0.192,-0.048l0.097,-0.065l0.049,-0.117l0.076,-0.065l0.077,0.007l0.087,-0.031l0.024,-0.045l-0.049,-0.154l0.011,-0.034l0.135,-0.004l0.073,-0.044l0.115,-0.034l0.094,-0.141l0.063,-0.082l-0.031,-0.054l-0.146,-0.08l-0.011,-0.064l0.132,-0.184l0.018,-0.079l-0.025,-0.026l-0.027,0.008l-0.025,-0.026l-0.003,-0.061l-0.101,-0.097l0.003,-0.058l-0.024,-0.05l-0.042,-0.004l-0.031,0.04l-0.028,-0.014l0.011,-0.029l-0.018,-0.029l-0.08,-0.011l-0.031,0.025l0.025,0.036l-0.032,0.008l-0.055,-0.044l-0.101,0.004l-0.156,0.101l-0.073,0.014l-0.146,-0.039l-0.077,-0.004l-0.035,-0.04l0.004,-0.158l-0.021,-0.065l-0.052,-0.021l-0.045,-0.101l0.024,-0.036l-0.007,-0.036l-0.125,-0.062l-0.063,-0.068l-0.006,-0.061l-0.053,-0.051l-0.059,-0.021l-0.038,0.029l-0.101,0.007l-0.062,-0.033l-0.108,0.011l-0.038,0.058l-0.042,-0.004l-0.031,-0.039l-0.014,-0.069l-0.035,-0.05l-0.048,-0.029l-0.025,-0.036l0.014,-0.079l-0.017,-0.043l-0.042,-0.018l-0.035,-0.08l0.018,-0.068l-0.039,-0.058l-0.17,-0.043l-0.052,-0.126l0.045,-0.068l-0.017,-0.04l-0.094,-0.014l-0.049,-0.051l-0.069,-0.003l-0.056,0.043l-0.087,0.025l-0.027,0.062l-0.014,0.035l-0.073,0.024l-0.014,0.056l-0.104,0.02l-0.07,-0.027l-0.097,0.003l-0.07,-0.045l-0.062,0.003l-0.08,0.046h-0.156l-0.087,0.055l-0.226,0.038l-0.045,-0.017l-0.063,0.014l-0.024,0.115l-0.035,0.01l-0.031,-0.024l-0.077,-0.011l-0.104,0.004l-0.142,-0.038l-0.056,-0.042l-0.007,-0.056l-0.09,-0.094l-0.049,-0.003l-0.035,-0.031l0.021,-0.07l-0.073,-0.139l-0.066,-0.038l-0.035,-0.097l0.014,-0.046l-0.048,-0.145l-0.059,-0.014l-0.063,0.027l-0.129,-0.02l-0.069,-0.059l-0.024,-0.108l-0.185,-0.129l-0.093,-0.048h-0.056l-0.021,0.086l-0.042,0.032l-0.281,-0.007l-0.059,0.038l-0.024,0.097l-0.056,0.039l-0.104,-0.014l-0.077,-0.046l-0.055,-0.006l-0.139,0.062l-0.105,0.01l-0.076,0.046l-0.017,0.062l-0.046,0.025h-0.069l-0.056,-0.039l-0.01,-0.055l-0.122,-0.056l-0.156,-0.028l-0.142,0.052l-0.073,-0.01l-0.018,-0.042l-0.059,-0.038l-0.024,-0.062l-0.059,-0.032l-0.111,0.038l-0.077,-0.017l-0.059,-0.059l-0.003,-0.045l-0.053,-0.024l-0.159,0.041l-0.23,0.018l-0.17,0.045l-0.042,-0.014l-0.069,0.017l-0.07,0.049l-0.17,0.049l-0.118,-0.021l-0.038,0.014l-0.011,0.045l-0.048,0.007l-0.032,-0.038h-0.031l-0.028,0.034l0.025,0.129l-0.073,0.125l-0.07,0.062l0.01,0.032l-0.02,0.031l-0.066,0.014l-0.105,0.111l-0.031,0.056l0.028,0.045l-0.021,0.052l-0.035,0.021l-0.014,0.035l0.032,0.041l-0.021,0.052l-0.08,0.039l-0.045,0.076l0.003,0.059l-0.132,0.132l-0.028,0.073l-0.073,0.063l-0.076,0.01l-0.077,-0.049l-0.072,-0.024l-0.06,0.021l-0.024,0.059l-0.146,0.066l-0.153,-0.031l-0.038,0.021l0.014,0.052l-0.028,0.08l-0.219,0.146l0.007,0.045l-0.08,0.048l-0.087,-0.02l-0.232,0.08l-0.094,0.118l-0.115,0.045l-0.024,-0.028l0.038,-0.052v-0.045l-0.122,-0.098l-0.083,-0.003l-0.028,0.049h-0.042l-0.024,-0.028l-0.066,0.014l-0.014,0.048l-0.045,-0.007l-0.024,-0.055l0.041,-0.059l-0.003,-0.049l-0.136,-0.097l-0.083,-0.014l-0.076,0.056l-0.091,-0.011l-0.062,-0.059l-0.018,-0.087l-0.027,-0.024l-0.042,0.021l-0.031,-0.007l-0.039,-0.042h-0.055l-0.073,0.083l-0.16,0.098h-0.066l-0.031,0.024v0.056l-0.021,0.031l-0.035,0.01l-0.024,0.046l0.014,0.045l-0.018,0.062l-0.031,0.045l-0.045,0.164l-0.063,0.073h-0.045l-0.021,-0.038l-0.052,-0.011l-0.057,0.057l-0.094,0.016l-0.063,-0.021l-0.291,0.011l-0.136,0.067l-0.052,0.073l-0.063,0.006l-0.062,-0.032l-0.198,-0.005l-0.099,-0.036h-0.162l-0.078,0.047l-0.073,0.005l-0.094,-0.063l-0.068,0.005l-0.067,0.068l-0.235,0.016l-0.162,0.036l-0.125,-0.015l-0.073,0.052l-0.052,0.219l-0.062,0.036l-0.11,0.005l-0.031,0.052l0.063,0.073l0.005,0.11l-0.047,0.057l-0.005,0.151l0.041,0.084l0.157,0.099l0.041,0.068l0.063,0.015l0.047,0.026l-0.037,0.052l-0.213,-0.036l-0.136,0.026l-0.068,0.042l-0.01,0.073l-0.083,0.078l-0.198,0.078l-0.183,0.01l-0.068,-0.026l-0.13,-0.005l-0.068,0.042l-0.099,-0.005l-0.036,-0.037l-0.08,-0.003l-0.087,0.045l-0.125,0.014l-0.306,0.09l-0.125,0.004l-0.122,-0.046l-0.285,0.004l-0.285,-0.063l-0.229,-0.003l-0.097,0.028l-0.056,-0.004l-0.052,-0.024l-0.059,0.003l-0.111,0.049l-0.268,-0.003l-0.09,0.024l-0.167,-0.007l-0.142,-0.042l-0.143,-0.028l-0.052,-0.02l-0.052,-0.07l-0.195,-0.122l-0.083,-0.083l-0.087,-0.01l-0.038,0.027l-0.049,-0.003l-0.059,-0.076l-0.024,-0.091l-0.084,-0.069l-0.097,-0.014l-0.174,-0.104l-0.055,-0.139l-0.219,-0.185l-0.115,-0.128l-0.09,-0.038l-0.177,-0.007l-0.084,-0.046l-0.007,-0.048l-0.034,-0.021l-0.063,0.017h-0.115l-0.239,-0.012l-0.233,0.168l0.01,0.023l0.055,0.038l-0.085,0.122l0.07,0.04l-0.055,0.101l0.028,0.029l-0.061,0.106h-0.055l-0.111,0.046l-0.091,0.005l-0.005,0.037l0.126,0.104l0.005,0.05l0.063,0.054l0.008,0.039l-0.063,0.056l-0.005,0.038l0.068,0.151l-0.003,0.133l0.088,0.093l-0.128,0.013l-0.498,0.088h-0.147l-0.027,-0.019l-0.005,-0.132l-0.02,-0.003l-0.031,0.037l-0.057,0.032l-0.036,0.104l-0.289,0.005l-0.101,-0.194l-0.003,-0.056l-0.221,-0.042l-0.071,-0.03l-0.035,-0.04l-0.103,-0.005l-0.191,0.051l-0.038,0.061l0.04,0.064l-0.033,0.05l-0.088,0.013l-0.116,0.078l-0.035,0.047l-0.035,-0.002l-0.038,-0.056l-0.025,0.005l-0.02,0.096l-0.048,0.024l-0.007,0.026l0.062,0.038l0.089,0.013l0.06,0.027l0.02,0.031l0.053,0.011l0.033,-0.027l0.04,0.003l0.189,0.12l0.075,0.002l0.086,-0.042l0.068,-0.003l0.055,0.035l0.066,0.17l-0.008,0.053l-0.027,0.037l0.027,0.027h0.043l0.033,0.019l0.017,0.039l0.043,0.016l0.005,0.04l-0.035,0.072l-0.048,0.053l-0.055,0.016l-0.023,-0.01l-0.03,0.005l-0.01,0.042l0.043,0.133l-0.033,0.083l-0.083,0.042l-0.051,0.056l-0.125,0.053l-0.056,0.072l-0.055,0.005l-0.048,-0.024h-0.065l-0.051,0.03l-0.028,0.056h-0.027l-0.03,-0.067l-0.101,-0.032l-0.04,0.024l0.005,0.064l0.03,0.048l-0.02,0.122l-0.046,0.019l-0.002,0.04l0.09,0.061l0.063,0.22l-0.026,0.068l-0.053,0.039l-0.036,-0.007l-0.073,0.008l-0.005,0.015l0.035,0.014l-0.009,0.142l-0.018,0.033l-0.044,0.006l-0.016,0.019l0.016,0.073l0.041,0.026l0.057,-0.007l0.03,0.02l0.01,0.09l-0.035,0.059l0.015,0.039l0.042,0.003l0.091,-0.033l0.076,0.011l0.043,0.051l-0.008,0.036l-0.077,0.026l-0.02,0.025l0.006,0.029l-0.021,0.016l-0.031,0.001l-0.068,0.055v0.054l0.045,0.063l0.136,0.052l-0.002,0.044l-0.028,0.023l-0.116,0.011l-0.129,0.046l-0.007,0.037l0.022,0.027h0.032l0.021,-0.023l0.031,-0.004l0.04,0.027l0.038,0.06l0.066,0.037v0.02l-0.079,0.03h-0.04l-0.057,-0.027l-0.049,0.002l-0.022,0.035l-0.067,-0.012l-0.017,-0.025l-0.043,-0.018l-0.093,0.022l-0.028,-0.006l-0.025,-0.024l-0.051,-0.004l-0.017,0.039l-0.025,0.004l-0.038,-0.024l-0.036,-0.003l-0.031,0.014l-0.027,-0.009l-0.014,-0.049l-0.028,0.005l-0.039,0.124l-0.002,0.094l-0.026,0.019l-0.042,-0.005l-0.064,0.052l-0.015,0.04l-0.049,0.027l-0.047,-0.02l-0.034,0.02l-0.047,0.131l-0.033,0.03l-0.035,0.005l-0.046,0.038l-0.023,0.046l-0.061,0.064l-0.055,0.027z"/>
</svg>
