<svg xmlns="http://www.w3.org/2000/svg" viewBox="1031.137 469.892 41.414 13.326">
  <path d="M1035.512146,472.188731l-0.053149,0.001661l-0.052201,-0.013708l0.000713,-0.016188l0.033218,-0.006644l0.051488,0.001661l0.026574,0.014948l-0.006644,0.01827Z M1034.989437,472.666515l0.064221,-0.004429l0.013287,-0.026574l-0.026574,-0.039862h-0.070865l-0.011073,0.031003l0.031003,0.039862Z M1033.866672,472.732951l0.011073,0.059792l0.031003,0.008858l0.031003,-0.033218l-0.017716,-0.09301l-0.02436,-0.017716l-0.062007,0.017716l-0.008858,0.028789l0.039862,0.028789Z M1065.990873,477.170671l0.03118,-0.010393v-0.036377l-0.027716,-0.029448l-0.048502,-0.005197l-0.029448,0.03118l0.012126,0.034644l0.06236,0.01559Z M1072.538831,476.365327l0.011554,-0.026654l-0.048297,-0.017136l-0.042188,0.018441l-0.002882,0.032946l0.036995,0.019836l0.044819,-0.027432Z M1070.404684,476.829556l0.049368,0.023385l0.044172,-0.002598l0.002598,-0.023385l-0.041573,-0.03118l-0.04677,0.002598l-0.007795,0.03118Z M1037.880956,473.169709l-0.056443,-0.005878l-0.063972,0.01128l0.011286,0.019117l0.03808,0.006478l0.076766,-0.013536l-0.005717,-0.017461Z M1066.604148,477.171988l-0.012126,0.019054l0.036377,0.013858l0.060628,-0.010393l0.006929,-0.013858l-0.032912,-0.012126l-0.058896,0.003464Z M1051.558179,472.296728l0.009729,0.035222l0.01736,-0.001302l0.005324,-0.039636l-0.011636,-0.026091l-0.015654,0.001001l-0.005122,0.030805Z M1036.280432,472.110669l0.027065,0.001625l-0.002938,-0.015698l-0.041602,-0.018018l-0.005429,0.012867l0.022904,0.019224Z M1071.077392,476.493897l0.027607,-0.004141l0.016564,-0.024847l-0.015184,-0.024847l-0.020705,0.004141l-0.016564,0.03727l0.008282,0.012423Z M1050.033523,472.175748l0.02533,-0.006932l0.004519,-0.015721l-0.022492,-0.014537l-0.028396,0.012309l-0.000634,0.019704l0.021673,0.005177Z M1036.513767,471.005626l0.0036,-0.015069l-0.026845,0.002349l-0.013361,0.015924l0.015497,0.008481l0.02111,-0.011683Z M1066.42349,477.215844l0.019325,-0.006902l-0.009663,-0.013804h-0.028988l-0.006902,0.015184l0.026227,0.005521Z M1036.501641,470.886928h0.013858l0.011443,-0.011673l0.002414,-0.019507l-0.01349,0.000124l-0.011076,0.012461l-0.003149,0.018595Z M1036.425929,472.124513l-0.006385,-0.006744l-0.028388,-0.002966l-0.006607,0.009294l0.007076,0.00561l0.023184,0.001071l0.011121,-0.006266Z M1050.034673,471.896369l0.004154,-0.008307l-0.006923,-0.02769l-0.010993,-0.00303l-0.002852,0.008568l0.006923,0.022152l0.009692,0.008307Z M1036.513422,471.313833l0.001848,-0.023677l-0.012008,-0.002869l-0.007475,0.015351l0.006308,0.016105l0.011328,-0.00491Z M1070.691664,476.984586v0.013804l0.013804,0.008282l0.012423,-0.008282l-0.006902,-0.013804h-0.019325Z M1036.512247,471.463266l-0.007272,-0.018116l-0.012324,0.00074l-0.005743,0.017661l0.012189,0.007308l0.01315,-0.007592Z M1036.613153,470.982379l0.005422,-0.009318l-0.006371,-0.009433l-0.012499,0.006018l0.002127,0.013915l0.011321,-0.001183Z M1036.57542,470.833128l-0.006958,0.008235l0.004636,0.010396l0.013354,-0.003756l0.000322,-0.014073l-0.011355,-0.000801Z M1036.617472,471.636423l0.003722,-0.010118l-0.007912,-0.008183l-0.011264,0.008097l0.004511,0.013335l0.010944,-0.003131Z M1036.801067,472.652108l0.009994,0.006984l0.011021,-0.012004l-0.007986,-0.009517l-0.012896,0.001811l-0.000134,0.012726Z M1036.629083,472.607119l0.014123,-0.004643l0.002795,-0.009553l-0.010988,-0.0088l-0.010574,0.008873l0.004643,0.014123Z M1036.189465,470.68483l0.013804,0.005521l0.008282,-0.005521l-0.002761,-0.013804h-0.013804l-0.005521,0.013804Z M1036.27598,470.708153l0.013804,0.005521l0.008282,-0.005521l-0.002761,-0.013804h-0.013804l-0.005521,0.013804Z M1036.435727,471.044653l-0.005197,0.012126l0.010393,0.008661l0.01559,-0.010393l-0.003464,-0.012126l-0.017322,0.001732Z M1069.41128,476.519367l-0.008273,-0.064984l-0.011081,-0.003094l-0.004225,0.011608l0.007673,0.056314l0.010401,0.007542l0.005505,-0.007386Z M1036.752754,472.348208l0.025055,-0.025623l-0.010488,-0.009884l-0.036553,0.01951l-0.01241,0.019916l0.007407,0.010069l0.02699,-0.013989Z M1070.692096,476.938016l0.017307,-0.02842l-0.00903,-0.009617l-0.030185,0.01836l-0.006505,0.022645l0.008588,0.013465l0.019826,-0.016433Z M1071.19705,476.484317l0.06584,0.018834l0.015496,-0.010232l-0.009179,-0.020642l-0.045865,-0.016891l-0.029717,0.01161l0.003425,0.01732Z M1070.770733,476.441054l0.018709,0.007451l0.018689,-0.029043l0.000592,-0.052123l-0.016917,-0.003082l-0.020704,0.020966l-0.000369,0.055831Z M1065.957362,476.547135l0.003854,0.020718l0.010509,0.003549l0.012573,-0.021167l-0.004889,-0.018498l-0.011987,0.002519l-0.01006,0.012878Z M1037.187135,473.192931l0.021553,-0.000069l0.004412,-0.011471l-0.009706,-0.013235l-0.019412,-0.001765l-0.005508,0.012682l0.008661,0.013858Z M1066.697436,476.947628l-0.000069,-0.021553l-0.011471,-0.004412l-0.013235,0.009706l-0.001765,0.019412l0.012682,0.005508l0.013858,-0.008661Z M1067.039074,477.055911l0.01542,-0.037102l-0.00634,-0.023663l-0.023261,0.012573l-0.020849,0.049969l0.005938,0.01743l0.029091,-0.019208Z M1065.769173,476.478815l0.004745,-0.027544l-0.011769,-0.009983l-0.019091,0.019262l0.001787,0.021752l0.01485,0.010168l0.009478,-0.013655Z M1050.832283,471.880771l0.010353,0.017931l0.018486,-0.00111l0.006063,-0.022627l-0.015689,-0.024414l-0.018301,0.004191l-0.000911,0.026029Z M1037.08783,472.793692l0.012461,-0.005538l0.004154,-0.012461l-0.008307,-0.009692l-0.01523,0.006923l-0.002769,0.011076l0.009692,0.009692Z M1037.041465,472.774781l-0.00628,-0.021953l-0.012547,-0.002348l-0.002163,0.015637l0.009506,0.013696l0.011483,-0.005031Z M1070.69678,477.052714v0.018243l0.018243,0.002606l0.007818,-0.018243l-0.010425,-0.010425l-0.015637,0.007818Z M1036.659854,471.320903l0.013899,-0.010425l-0.005212,-0.012162l-0.019112,0.005212l-0.003475,0.013899l0.013899,0.003475Z M1036.427909,471.219264l0.013899,-0.010425l-0.005212,-0.012162l-0.019112,0.005212l-0.003475,0.013899l0.013899,0.003475Z M1035.910918,470.92925l0.009692,0.001385l0.006923,-0.011076l-0.013845,-0.006923l-0.009692,0.005538l0.006923,0.011076Z M1036.483991,471.191705l-0.011669,0.001941l0.00005,0.011162l0.01204,0.00424l0.008208,-0.007936l-0.008628,-0.009407Z M1037.605472,472.713065l0.004154,-0.011076l-0.009692,-0.005538l-0.009692,0.008307l0.002769,0.011076l0.012461,-0.002769Z M1070.970234,477.107687h0.012461l0.006923,-0.013845l-0.008307,-0.008307l-0.013845,-0.002769l-0.004154,0.012461l0.006923,0.012461Z M1037.10664,471.724926l-0.012461,-0.001385l-0.002769,0.012461l0.008307,0.011076l0.009692,-0.008307l-0.002769,-0.013845Z M1036.4161,470.926807l0.001385,-0.012461l-0.012461,-0.002769l-0.011076,0.008307l0.008307,0.009692l0.013845,-0.002769Z M1036.473435,471.758162l0.001385,-0.012461l-0.012461,-0.002769l-0.011076,0.008307l0.008307,0.009692l0.013845,-0.002769Z M1036.744472,471.924955l0.001385,-0.012461l-0.012461,-0.002769l-0.011076,0.008307l0.008307,0.009692l0.013845,-0.002769Z M1036.444604,471.124792l-0.012461,0.004154v0.01523l0.012461,0.002769l0.004154,-0.011076l-0.004154,-0.011076Z M1070.099434,476.750104l0.013845,-0.011076l-0.001385,-0.01523l-0.017999,-0.005538l-0.012461,0.012461l0.001385,0.013845l0.016614,0.005538Z M1070.476128,476.589692v0.013845l0.012461,0.008307l0.016614,-0.008307l-0.004154,-0.017999l-0.019383,-0.005538l-0.005538,0.009692Z M1036.168009,469.913403l0.010606,0.008899l0.013312,-0.005096l-0.000305,-0.014714l-0.009716,-0.00996l-0.009753,0.000853l-0.004145,0.020017Z M1071.0503,477.14613l0.01301,0.004735l0.010767,-0.009341l-0.005319,-0.013723l-0.012537,-0.006036l-0.008873,0.004137l0.002951,0.020228Z M1036.41123,472.705625l-0.001365,-0.015604l-0.014336,-0.006608l-0.008009,0.009545l0.003316,0.015434l0.014507,0.008558l0.005888,-0.011325Z M1036.703751,471.900278l0.011076,-0.011076l-0.004154,-0.01523h-0.012461l-0.009692,0.012461l0.002769,0.016614l0.012461,-0.002769Z M1066.547052,476.851806l-0.010394,0.02518l0.007089,0.018921l0.016267,-0.001721l0.007295,-0.027226l-0.003989,-0.016875l-0.016267,0.001721Z M1064.779978,476.584011l0.034102,-0.012009l0.023004,-0.032001l-0.001679,-0.059836l-0.027169,-0.015686l-0.021953,0.014495l-0.033859,0.066488l0.027554,0.038549Z M1037.24923,473.211199l0.019864,-0.01872l0.009244,-0.036926l-0.01907,-0.014029l-0.027357,0.026469l-0.008894,0.031091l0.026212,0.012115Z M1070.199649,476.738413l-0.047235,0.019279l-0.005853,0.035516l0.034852,0.026961l0.025125,-0.011231l0.011042,-0.049924l-0.017931,-0.0206Z M1050.240113,471.954587l0.017374,-0.041698l-0.010425,-0.069497h-0.027799l-0.031274,0.020849l-0.00695,0.034748l0.027799,0.062547l0.031274,-0.00695Z M1058.892462,472.263848l0.118145,0.055597l0.333585,-0.020849l0.125094,-0.118145l0.00695,-0.257138l-0.152893,-0.111195h-0.132044l-0.152893,0.090346l-0.138994,0.20849l-0.00695,0.152893Z M1061.446469,482.048994l-0.013899,0.069497l0.062547,0.059072l0.093821,0.020849l0.309261,-0.031274l0.059072,-0.041698l0.003475,-0.076446l-0.034748,-0.034748l-0.111195,-0.024324h-0.170267l-0.059072,-0.017374l-0.052123,0.010425l-0.045173,0.045173l-0.041698,0.020849Z M1070.623519,477.142522v0.055597l0.128569,0.079921l0.187641,0.066022l0.170267,-0.013899l0.069497,-0.055597l0.020849,-0.166792l-0.020849,-0.093821l-0.027799,0.003475l-0.055597,0.090346l0.024324,0.045173l-0.013899,0.045173h-0.069497l-0.104245,-0.055597h-0.072972l-0.055597,-0.034748l-0.013899,-0.066022l-0.034748,-0.010425l-0.027799,0.069497l-0.072972,0.003475l-0.031274,0.038223Z M1070.338582,476.815887l0.00695,-0.027799l-0.038223,-0.041698l-0.034748,-0.003475l-0.013899,0.027799l0.031274,0.048648l0.048648,-0.003475Z M1069.845155,476.708167l0.048648,-0.020849l0.00695,-0.052123l-0.034748,-0.041698l0.00695,-0.055597l-0.024324,-0.010425l-0.093821,0.069497l-0.00695,0.045173l0.034748,0.041698l0.062547,0.024324Z M1069.497671,476.590022l0.072972,0.017374l0.027799,-0.013899l-0.010425,-0.079921l-0.027799,-0.013899l-0.093821,0.013899l-0.024324,0.020849l0.013899,0.034748l0.041698,0.020849Z M1069.977199,476.485777l0.066022,0.059072l0.097295,0.041698l0.083396,-0.013899l0.086871,0.031274l0.062547,0.013899l0.00695,-0.031274l-0.10077,-0.097295l-0.229339,-0.104245l-0.055597,0.003475l-0.024324,0.055597l0.00695,0.041698Z M1069.647089,476.332884l0.041698,0.052123l0.041698,0.013899l0.066022,-0.003475l0.069497,0.055597l0.041698,-0.003475l0.00695,-0.048648l0.045173,-0.027799l0.010425,-0.045173l-0.055597,-0.097295l-0.225865,-0.132044l-0.284937,-0.10077l-0.260613,-0.038223l-0.337059,-0.024324l-0.093821,0.027799l-0.003475,0.027799l0.062547,0.027799l0.010425,0.041698l-0.041698,0.066022l-0.097295,0.045173l-0.038223,0.083396l-0.003475,0.059072l0.038223,0.045173l0.118145,0.024324l0.083396,-0.017374l0.027799,0.010425l-0.041698,0.041698l-0.027799,0.079921l0.055597,0.069497l0.062547,0.031274l0.034748,-0.010425l0.031274,-0.066022l-0.017374,-0.083396l0.024324,-0.017374l0.038223,0.013899l0.017374,0.066022l0.062547,0.069497l0.159843,0.003475l0.059072,-0.020849v-0.038223l-0.020849,-0.069497l-0.055597,-0.048648l-0.083396,-0.017374l-0.055597,-0.055597l0.013899,-0.034748h0.062547l0.031274,-0.038223l0.048648,-0.017374l0.045173,0.010425l0.031274,0.031274l-0.00695,0.045173l0.027799,0.024324l0.055597,-0.00695l0.034748,-0.062547l0.062547,-0.00695l0.128569,0.066022Z M1066.109703,477.128622l0.11467,0.003475l0.052123,0.045173l0.086871,0.003475l0.059072,-0.034748v-0.031274l-0.156368,-0.041698l-0.156368,0.010425l-0.024324,0.020849l0.024324,0.024324Z M1065.63365,477.173795l-0.031274,-0.086871l-0.045173,-0.062547l-0.017374,-0.083396l-0.093821,-0.111195l-0.111195,-0.038223l-0.086871,0.017374l-0.079921,0.104245l0.010425,0.10077l0.10772,0.142468l0.149418,0.072972l0.135519,0.027799l0.066022,-0.024324l-0.003475,-0.059072Z M1063.927504,476.892333l0.128569,0.069497l0.20849,0.038223l0.125094,-0.017374l0.010425,-0.027799l-0.055597,-0.086871l-0.10772,-0.024324l-0.076446,0.013899l-0.076446,-0.010425l-0.076446,-0.031274l-0.052123,-0.003475l-0.034748,0.024324l0.00695,0.055597Z M1063.924029,477.396185l0.013899,0.034748l0.024324,0.00695l0.011185,-0.017754l-0.008307,-0.020768l-0.030459,-0.013845l-0.010642,0.010669Z M1063.912519,477.357826l0.017999,-0.011076l-0.01523,-0.045689l-0.049842,-0.053996l-0.047073,-0.001385l-0.096915,0.048458l-0.012461,0.034613l0.023537,0.035997l0.077532,0.001385l0.034613,-0.026306l0.040151,0.001385l0.02769,0.016614Z M1063.254879,477.377209l0.009692,0.019383l0.107991,0.056765l0.047073,-0.006923l0.035997,-0.038766l-0.009692,-0.023537l-0.107991,-0.031844l-0.060918,0.001385l-0.022152,0.023537Z M1061.206705,477.72977l0.020849,0.022586h0.022586l0.017374,-0.010425l-0.008687,-0.012162l-0.024324,-0.012162l-0.017374,0.001737l-0.010425,0.010425Z M1050.876009,472.236049l-0.010425,0.034748l0.045173,0.052123l0.00695,0.066022l0.031274,0.010425l0.055597,-0.048648l0.059072,-0.024324l0.017374,-0.031274l-0.003475,-0.041698l0.055597,-0.079921l-0.017374,-0.045173l-0.031274,-0.048648l0.031274,-0.072972l-0.024324,-0.010425l-0.059072,0.069497l-0.048648,0.072972l0.010425,0.024324l0.048648,-0.00695l0.00695,0.024324l-0.048648,0.031274l-0.041698,0.020849l-0.083396,0.003475Z M1031.361313,475.300857l0.003475,0.034748l0.031274,0.048648l0.031274,-0.003475l0.059072,-0.093821l0.052123,-0.041698l0.066022,0.00695l0.041698,-0.041698l0.052123,-0.10077l0.00695,-0.048648l-0.041698,-0.069497l0.00695,-0.090346l0.052123,-0.052123l-0.003475,-0.031274l-0.034748,-0.010425l-0.079921,0.024324h-0.045173l-0.034748,0.017374l-0.00695,0.031274l-0.034748,0.010425l-0.052123,-0.010425l-0.10077,0.041698l-0.045173,0.062547l-0.097295,0.059072l-0.048648,0.066022l0.00695,0.027799l0.041698,0.031274l0.024324,-0.013899l0.031274,-0.066022l0.10772,-0.079921l0.031274,0.003475l0.010425,0.038223l0.003475,0.048648l0.052123,0.069497l-0.003475,0.059072l-0.020849,0.038223l-0.062547,0.034748Z M1031.698372,475.644866l0.020849,-0.038223v-0.027799l-0.041698,-0.024324l-0.027799,0.010425l-0.00695,0.048648l0.020849,0.045173l0.034748,-0.013899Z M1032.744299,476.649095l0.083396,-0.00695l0.010425,-0.027799l-0.034748,-0.045173l-0.048648,-0.00695l-0.069497,0.020849l-0.013899,0.034748l0.072972,0.031274Z M1033.675555,476.475353l0.086871,-0.048648v-0.027799l-0.041698,-0.003475l-0.111195,0.045173l-0.027799,0.027799l0.013899,0.024324l0.079921,-0.017374Z M1059.35896,477.208544l0.036486,0.005212l0.138125,-0.002606l0.096427,-0.03388h0.104245l0.054729,0.013031l0.106851,0.015637l0.054729,-0.005212l0.052123,0.015637l0.057335,0.041698l0.086002,0.015637l0.151155,0.049516l0.203278,0.03388l0.20849,0.036486l0.065153,0.031274l0.054729,0.010425l0.1277,-0.015637l0.03388,-0.015637v-0.03388l0.023455,-0.010425l0.036486,0.005212l0.031274,0.054729l0.036486,0.007818l0.070365,-0.026061l0.099033,0.002606l0.057335,0.013031l0.08079,0.002606l0.054729,-0.028667l0.224996,-0.003475l0.238026,0.020849l0.27625,0.00695l0.088608,0.024324l0.017374,0.033011l-0.013899,0.039961l0.013899,0.012162l0.125094,-0.055597l0.062547,-0.066022l0.041698,-0.156368l0.069497,-0.132044l0.083396,-0.055597l0.125094,-0.010425l0.055597,-0.010425l0.062547,-0.045173l0.10077,-0.00695l0.271037,0.045173l0.166792,0.045173l0.104245,0.010425l0.145943,-0.017374l0.020849,-0.031274l-0.024324,-0.066022l-0.048648,-0.055597l0.010425,-0.038223l0.093821,-0.104245l0.041698,-0.020849l0.097295,0.020849l0.020849,-0.027799l-0.052123,-0.045173l-0.003475,-0.031274l0.034748,-0.003475l0.062547,0.062547l0.038223,-0.00695l0.062547,-0.079921l0.083396,-0.038223l0.125094,0.003475l0.086871,-0.010425l0.069497,-0.055597l0.072972,-0.034748h0.055597l0.024324,-0.020849l-0.00695,-0.052123l-0.090346,-0.121619l-0.211965,-0.086871l-0.097295,-0.062547l-0.246714,-0.083396l-0.21544,-0.00695l-0.187641,0.041698l-0.225865,0.027799l-0.274512,-0.010425l-0.135519,0.020849l-0.267563,0.00695l-0.11467,0.027799l-0.246714,0.003475l-0.205016,-0.027799l-0.413506,-0.00695l-0.135519,0.024324l-0.649795,0.00695l-0.205016,-0.038223l-0.253663,-0.003475l-0.218915,0.031274h-0.271037l-0.041698,0.017374v0.034748l-0.027799,0.024324l-0.062547,-0.010425l-0.020849,0.024324l0.010425,0.045173l-0.031274,0.090346l-0.079921,0.086871l-0.034748,0.062547l-0.20849,0.187641l-0.062547,-0.003475l-0.031274,-0.024324l-0.069497,-0.010425l-0.024324,0.020849l-0.010425,0.10077l0.045173,0.10077l0.059072,0.034748l0.010425,0.038223l-0.041698,0.121619v0.059072l0.042567,0.031274Z M1059.265139,477.29194l-0.005212,0.020849l0.015637,0.026061l0.023455,0.013031l0.013031,-0.018243l-0.026061,-0.039092l-0.020849,-0.002606Z M1059.274695,481.972548l0.020849,0.038223l0.04691,0.010425l0.036486,-0.020849l0.001737,-0.055597l-0.019112,-0.022586l-0.038223,0.001737l-0.034748,0.017374l-0.013899,0.031274Z M1040.381452,478.72018l0.048458,0.02769l0.035997,0.041535l0.132913,0.096915l0.077532,0.077532l0.034613,0.094146l0.041535,0.022152l0.121185,-0.000407l0.307523,0.083396l0.083396,0.04691l0.015637,0.099033l0.062547,0.036486l0.135519,0.005212l0.109457,-0.026061l0.463891,0.083396l0.213703,0.083396l0.317948,0.067759l0.604622,0.093821l0.302311,0.005212l0.078184,-0.020849l0.119882,-0.041698l0.078184,-0.078184l0.020849,-0.099033l-0.026061,-0.04691v-0.093821l0.041698,-0.067759l0.151155,-0.052123l0.234552,-0.010425l0.109457,0.04691l0.020849,0.078184l0.038223,0.034748l0.027799,-0.003475l0.012162,-0.041698l-0.031274,-0.057335l0.015637,-0.052123l0.078184,-0.031274l0.172005,0.015637l0.182429,0.067759l0.036486,0.062547l-0.020849,0.067759l0.04691,0.026061h0.224127l0.495165,0.130306l0.182429,0.015637l0.020849,-0.041698l-0.036486,-0.036486h-0.041698l-0.052123,-0.041698l0.010425,-0.088608l0.072972,-0.088608l0.145943,-0.052123l0.427405,0.010425l0.557712,0.062547l0.156368,0.04691l0.005212,0.041698l-0.031274,0.036486l0.015637,0.04691l0.11467,0.052123l0.067759,0.010425l0.151155,-0.041698l0.422193,0.067759l0.140731,0.015637l0.396132,0.099033l0.568136,0.140731l0.552499,0.203278l0.474316,0.203278l0.166792,0.109457l0.239764,0.083396l0.20849,0.052123l0.072972,0.036486l0.015637,0.072972l0.088608,0.067759l0.213703,0.088608l0.432617,0.16158l0.234552,0.04691l0.286674,0.130306l0.04691,0.04691l0.052123,0.015637l0.099033,-0.036486l0.166792,0.010425l0.281462,0.036486l0.177217,0.041698l0.239764,0.083396l0.086002,0.054729l0.148549,0.005212l0.130306,-0.020849l0.018243,-0.039092l-0.005212,-0.036486l0.020849,-0.023455l0.057335,0.010425l0.018243,0.03388l-0.005212,0.04691l0.023455,0.03388h0.04691l0.059941,0.039092l-0.002606,0.023455l0.013031,0.026061l0.091215,0.007818l0.112064,-0.015637l0.059941,-0.03388l0.044304,0.005212l0.028667,-0.007818l0.013031,-0.03388l0.067759,-0.015637l0.057335,-0.005212l0.044304,0.026061l0.010425,0.044304h0.036486l0.018243,-0.028667l0.039092,-0.023455l0.036486,0.013031v0.036486l0.036486,0.005212l0.049516,-0.03388l0.112064,-0.010425l0.028667,0.020849l0.002606,0.028667l0.086002,0.020849l0.059941,-0.015637l0.013031,-0.039092l0.031274,-0.010425l0.057335,0.020849l0.03388,0.044304l-0.03388,0.08079l0.03388,0.049516l0.049516,0.026061l0.03388,-0.026061l0.054729,0.002606l0.083396,0.065153l0.065153,0.005212l0.020849,-0.023455l-0.013031,-0.020849l0.015637,-0.039092l0.044304,-0.023455l0.049516,0.007818l0.036486,0.039092l-0.013031,0.026061l0.015637,0.028667l0.052123,-0.005212l0.062547,-0.026061h0.067759l0.026061,0.013031l0.002606,0.041698l-0.018243,0.036486l0.013031,0.015637l0.036486,-0.010425l0.03388,0.013031l0.007818,0.028667l0.023455,0.010425l0.031274,-0.020849l0.026061,0.002606l0.013031,0.039092l0.039092,0.020849l0.062547,0.005212l0.023455,-0.023455l0.041698,0.005212l0.018243,-0.020849l-0.026061,-0.04691l-0.070365,-0.036486l-0.026061,-0.04691l0.015637,-0.028667l0.067759,-0.015637l0.007818,-0.028667l-0.026061,-0.028667v-0.031274l0.031274,-0.049516l0.026061,-0.005212l0.075578,0.072972l0.007818,0.03388l-0.020849,0.041698l0.010425,0.052123l0.031274,0.018243l0.054729,-0.028667l0.028667,-0.039092l-0.023455,-0.119882l0.013031,-0.086002l0.03388,-0.041698h0.049516l0.057335,0.054729l0.091215,0.041698l0.023455,-0.015637l-0.013031,-0.044304l0.018243,-0.015637l0.063416,0.020849l0.052123,0.086871l0.121619,0.041698l0.111195,0.010425l0.017374,-0.027799l-0.013899,-0.045173l0.024324,-0.024324l0.083396,0.003475l0.128569,0.076446l0.069497,0.010425l0.066022,0.059072l0.104245,0.00695l0.052123,-0.013899l0.173742,0.00695l0.076446,0.027799h0.052123l0.027799,-0.017374l0.170267,0.031274l0.020849,0.034748l0.034748,0.020849l0.149418,-0.003475l0.038223,-0.041698h0.034748l0.041698,0.017374h0.055597l0.027799,-0.020849l0.034748,0.003475l0.020849,0.034748l0.097295,0.058204l0.002606,0.044304l0.026061,0.020849l0.062547,0.002606l0.11467,0.028667l0.054729,0.044304l0.041698,0.002606l0.039092,-0.005212l0.096427,0.002606l0.036486,0.020849h0.039092l0.041698,-0.013031l0.148549,0.023455l0.057335,0.013031l0.023455,0.020849l0.039092,0.015637h0.041698l0.049516,0.023455l0.002606,0.023455l0.026061,0.005212l0.028667,-0.005212l0.036486,0.007818l0.051254,0.051254l0.059072,0.003475l0.057335,-0.048648l0.076446,-0.029536l0.072972,-0.026061l0.109457,-0.013899l0.050385,-0.030405l0.010425,-0.057335l0.023455,-0.018243l0.031274,0.010425l0.018243,0.039092l0.041698,0.007818l0.049516,-0.023455l0.018243,-0.065153l0.03388,-0.023455l0.041698,0.002606l0.036486,0.057335l-0.013031,0.041698l0.018243,0.013031l0.041698,-0.015637l0.023455,0.002606l0.020849,0.031274l0.054729,-0.007818l0.028667,-0.020849l-0.010425,-0.041698l0.020849,-0.023455h0.023455l0.026061,0.044304l0.026061,0.005212l0.052123,-0.039092l0.083396,-0.119882l0.083396,-0.091215l0.086002,-0.052123l0.19546,-0.062547l0.125094,-0.03388l0.122488,0.013031l0.075578,-0.013031l0.062547,-0.018243l0.271037,-0.002606l0.177217,0.044304l0.174611,0.093821l0.125094,0.119882l0.070365,0.138125l0.03388,0.020849h0.036486l0.031274,-0.031274l0.067759,-0.031274l0.104245,-0.002606l0.054729,0.015637l0.03388,0.026061l-0.002606,0.057335l0.026061,0.028667l0.049516,0.005212l0.078184,0.057335l0.075578,0.010425l0.065153,-0.023455h0.049516l0.036486,0.020849l0.005212,0.03388l0.023455,0.007818l0.049516,-0.018243l0.067759,0.023455l0.070365,0.04691l0.015637,0.039092l-0.010425,0.03388l0.028667,0.062547l0.070365,0.015637l0.041698,-0.020849l0.036486,0.010425l0.005212,0.023455l0.023455,0.002606l0.028667,-0.039092l0.026061,-0.023455l0.03388,0.010425l0.007818,0.041698l-0.026061,0.04691l-0.013031,0.041698l0.018243,0.007818l0.031274,-0.020849l0.065153,0.007818l0.054729,-0.013031l0.106851,-0.093821h0.044304l0.039092,0.036486l-0.005212,0.039092l0.026061,0.091215l-0.013031,0.03388v0.036486l0.020849,0.002606l0.031274,-0.075578l0.031274,-0.023455l0.026061,0.010425l0.002606,0.065153l0.075578,0.031274l0.059941,-0.002606l0.04691,0.020849l0.067759,0.054729l0.044304,0.002606l0.062547,-0.057335l0.044304,-0.005212l0.049516,0.023455l0.020849,0.049516l-0.020849,0.044304l-0.036486,0.010425l-0.010425,0.031274l0.031274,0.028667l0.044304,0.007818l0.08079,-0.026061l0.023455,-0.04691l0.026061,-0.010425l0.065153,0.005212l0.023455,0.031274l0.010425,0.088608l0.03388,0.03388h0.039092l0.028667,-0.026061l0.04691,-0.005212l0.03388,0.005212l0.023455,-0.005212l0.007818,-0.026061l0.031274,-0.007818l0.187641,0.03388l0.145943,0.065153l0.086002,0.007818l0.04691,-0.018243l0.015637,-0.054729l0.007818,-0.070365l0.023455,-0.020849h0.062547l0.04691,0.023455l0.185035,0.049516l0.135519,0.101639l0.062547,0.08079l0.023455,0.140731l-0.044304,0.059941l-0.070365,0.039092l0.002606,0.03388l0.086002,0.028667l0.234552,0.002606l0.153762,0.039092l0.156368,0.062547l0.11467,0.005212l0.101639,-0.028667l0.062547,-0.049516l0.052123,-0.132913v-0.04691l-0.028667,-0.065153l-0.109457,-0.135519l-0.036486,-0.007818l-0.018243,0.013031h-0.04691l-0.078184,-0.03388l-0.062547,-0.059941l-0.049516,-0.020849l-0.031274,-0.028667h-0.039092l-0.031274,0.062547l-0.031274,0.007818l-0.028667,-0.015637l-0.028667,-0.059941l-0.057335,-0.062547l-0.010425,-0.057335l-0.031274,-0.057335l-0.005212,-0.078184l-0.020849,-0.04691v-0.023455l0.015637,-0.020849l-0.002606,-0.057335l-0.028667,-0.041698l-0.005212,-0.039092l0.013031,-0.031274l-0.007818,-0.065153l-0.020849,-0.049516l-0.03388,-0.010425l-0.013031,0.018243l0.015637,0.049516l0.002606,0.143337l-0.013031,0.062547l-0.039092,0.057335h-0.03388l-0.026061,-0.031274l-0.002606,-0.03388l0.04691,-0.104245l0.002606,-0.036486l-0.031274,-0.036486l-0.039092,-0.08079l-0.020849,-0.065153v-0.083396l0.04691,-0.250188l0.031274,-0.096427l0.005212,-0.093821l0.03388,-0.119882l0.049516,-0.08079l0.002606,-0.070365l-0.013031,-0.054729l-0.002606,-0.036486l0.04691,-0.109457l0.018243,-0.065153v-0.08079l0.010425,-0.041698l0.059941,-0.11467l0.049516,-0.153762l-0.002606,-0.04691l-0.020849,-0.036486l0.002606,-0.041698l0.007818,-0.028667l-0.002606,-0.059941l-0.023455,-0.057335l-0.005212,-0.135519l0.020849,-0.059941l0.057335,-0.065153l0.054729,-0.020849l0.023455,-0.031274l-0.013031,-0.054729l-0.005212,-0.086002l0.018243,-0.036486l-0.005212,-0.062547l-0.086002,-0.11467l-0.106851,-0.065153l-0.078184,-0.023455l-0.057335,-0.044304l-0.059941,-0.010425l-0.122488,0.015637l-0.115077,-0.039255l-0.071994,-0.067841l-0.060918,-0.02769l-0.069225,-0.069225l-0.030459,-0.002769l-0.053996,0.047073l-0.033228,0.002769l-0.029075,-0.013845l-0.04292,-0.001385l-0.040151,0.01523l-0.152296,-0.001385l-0.119068,-0.053996l-0.051227,-0.058149l-0.094146,-0.213214l-0.083885,-0.076636h-0.04691l-0.148549,0.132913l-0.065153,0.03388l-0.075578,0.086002l-0.04691,0.005212l-0.020849,0.018243v0.031274l-0.031274,0.031274l-0.070365,-0.005212l-0.067759,-0.044304l-0.067759,-0.015637l-0.140731,0.005212l-0.070365,0.054729l-0.075578,0.088608l-0.065153,0.039092l-0.106851,-0.002606l-0.11467,-0.057335l-0.039092,-0.002606l-0.101639,0.057335l-0.059941,-0.002606l-0.059941,-0.03388l-0.130306,0.002606l-0.088608,-0.044304l-0.062547,-0.002606l-0.052123,0.018243h-0.065153l-0.101639,-0.039092l-0.083396,-0.010425l-0.039092,0.015637l-0.026061,0.039092l-0.101639,0.067759l-0.106851,0.013031l-0.054729,0.026061h-0.03388l-0.018243,-0.010425h-0.026061l-0.112064,0.119882l-0.093821,0.013031l-0.041698,-0.020849l-0.057335,-0.002606l-0.065153,0.028667l-0.049516,-0.031274l-0.018243,-0.078184l-0.031274,-0.020849l-0.036486,0.005212l-0.052123,-0.023455l-0.010425,-0.026061l-0.018243,-0.007818l-0.041698,0.04691l-0.057335,0.020849l-0.041698,-0.007818l-0.015637,-0.049516h-0.020849l-0.010425,0.031274l-0.03388,0.013031l-0.039092,-0.007818l-0.010425,-0.031274l-0.03388,-0.018243l-0.062547,-0.002606l-0.03388,-0.015637l-0.020849,-0.052123l-0.028667,-0.020849l-0.041698,-0.010425l-0.067759,-0.099033l-0.11467,-0.091215l-0.065153,-0.005212l-0.059941,0.028667h-0.057335l-0.067759,-0.036486l-0.075578,-0.096427h-0.020849l-0.013031,0.031274l-0.036486,0.013031l-0.078184,-0.013031l-0.070365,-0.054729l-0.072972,-0.106851l-0.020849,-0.070365l0.020849,-0.070365l-0.005212,-0.067759l-0.03388,-0.031274l-0.093821,-0.036486l-0.067759,-0.101639l0.002606,-0.026061h0.049516l0.028667,0.018243l0.018243,-0.010425l-0.020849,-0.130306l-0.007818,-0.164186l0.020849,-0.200672l-0.007818,-0.08079l0.015637,-0.065153l0.005212,-0.106851l-0.04691,-0.059941l-0.059941,-0.015637l-0.04691,-0.041698l-0.070365,-0.125094l-0.075578,-0.049516l-0.112064,-0.002606l-0.057335,0.023455l-0.023455,0.04691l-0.026061,0.026061l-0.057335,0.010425l-0.057335,-0.010425l-0.03388,-0.049516l-0.002606,-0.044304l0.03388,-0.070365v-0.049516l-0.070365,-0.083396l-0.067759,-0.015637l-0.041698,-0.04691l-0.002606,-0.049516l0.013031,-0.03388l0.031274,-0.031274l0.005212,-0.044304l-0.010425,-0.044304l0.015637,-0.041698l0.04691,-0.020849l0.005212,-0.04691l-0.023455,-0.031274l-0.002606,-0.020849l0.018243,-0.018243v-0.026061l-0.11467,-0.088608l-0.078184,-0.135519l-0.010425,-0.130306l0.018243,-0.015637l0.023455,0.020849h0.028667l0.018243,-0.039092l-0.026061,-0.049516l-0.015637,-0.078184h-0.020849l-0.020849,0.03388l-0.03388,0.002606l-0.026061,-0.031274l-0.018243,-0.08079l-0.026061,-0.026061l-0.083396,-0.007818l-0.078184,0.065153l-0.002606,0.026061l0.054729,0.013031l0.005212,0.023455l-0.041698,0.059941l-0.059941,0.026061l-0.109457,-0.015637l-0.088608,-0.052123l-0.039092,-0.057335l-0.1277,-0.023455l-0.04691,0.023455l-0.093821,-0.002606l-0.049516,-0.027799h-0.288412l-0.076446,0.034748h-0.072972l-0.045173,-0.017374l-0.052123,0.003475l-0.038223,0.045173l-0.145943,0.041698l-0.159843,0.00695l-0.066022,-0.017374h-0.079921l-0.135519,-0.048648l-0.135519,-0.170267l-0.013899,-0.052123l-0.076446,-0.090346l-0.020849,-0.083396l-0.062547,-0.045173l-0.059072,0.003475l-0.079921,0.052123l-0.267563,0.083396l-0.121619,-0.003475l-0.166792,-0.083396l-0.059072,-0.017374l-0.159843,-0.020849l-0.062547,-0.031274l-0.382232,-0.309261l-0.111195,-0.121619l-0.166792,-0.055597l-0.152893,0.003475l-0.079921,0.059072l-0.020849,0.076446l-0.038223,0.034748l-0.257138,0.10077l-0.138994,0.003475l-0.194591,-0.038223l-0.271037,-0.038223l-0.104245,-0.055597l-0.132044,-0.031274l-0.086871,-0.059072l-0.121619,-0.191116l-0.135519,-0.277987l-0.041698,-0.163317l-0.003475,-0.093821l0.013899,-0.048648l-0.013899,-0.024324l-0.250188,-0.055597l-0.156368,-0.013899l-0.059072,-0.020849l-0.062547,0.003475l-0.059072,0.020849l-0.121619,-0.003475l-0.079921,0.010425l-0.062547,0.052123l-0.045173,0.010425l-0.041698,-0.010425l-0.076446,0.017374l-0.076446,0.045173h-0.052123l-0.066022,0.031274l-0.034748,0.048648l-0.010425,0.052123l-0.076446,0.062547l-0.041698,0.003475l-0.020849,0.031274l0.00695,0.038223l0.031274,0.031274l-0.010425,0.034748l-0.055597,0.017374l-0.041698,0.048648l-0.003475,0.055597l0.027799,0.041698l0.003475,0.038223l-0.045173,0.111195l-0.027799,0.020849l-0.013899,0.048648l0.027799,0.027799l0.00695,0.059072l-0.076446,0.138994l-0.11467,0.11467l-0.076446,0.020849l-0.045173,-0.020849h-0.031274l-0.017374,0.027799l0.027799,0.031274l-0.010425,0.024324h-0.045173l-0.00695,0.027799l0.031274,0.059072l0.052123,0.00695l0.010425,0.027799l-0.041698,0.086871l-0.083396,0.090346l-0.052123,0.093821l-0.017374,0.097295l-0.072972,0.128569l-0.055597,0.072972l-0.034748,0.017374l-0.034212,-0.006926l-0.045709,0.006926l-0.024324,0.024324l-0.10077,0.013899l-0.118145,0.003475l-0.072972,0.020849l-0.055597,-0.003475l-0.090346,-0.027799l-0.152893,-0.10077l-0.076446,-0.017374l-0.052123,-0.038223l-0.031274,-0.066022l-0.086871,-0.093821l-0.10772,-0.045173l-0.055597,0.003475l-0.038223,0.048648l-0.121619,0.076446l-0.218915,0.072972l-0.079921,0.003475l-0.184166,0.069497h-0.093821l-0.135519,-0.034748h-0.055597l-0.083396,0.024324l-0.083396,-0.010425l-0.180692,-0.038223l-0.083396,-0.041698l-0.086871,-0.027799l-0.066022,-0.00695l-0.072972,-0.017374l-0.184166,-0.079921l-0.225865,-0.059072l-0.173742,-0.013899l-0.097295,-0.038223l-0.079921,-0.083396l-0.052123,-0.079921l-0.038223,-0.010425l-0.149418,0.125094l-0.194591,0.11467l-0.163317,0.055597l-0.149418,0.003475l-0.076446,0.020849l-0.198066,-0.003475l-0.284937,-0.031274l-0.076446,-0.041698l-0.041698,-0.010425l-0.10772,0.013899l-0.079921,-0.017374l-0.121619,-0.10772l-0.024324,-0.086871l0.003475,-0.072972l-0.013899,-0.059072l-0.024324,0.003475l-0.013899,0.062547l-0.038223,0.034748l-0.111195,0.020849l-0.145943,0.055597l-0.066022,0.059072l-0.104245,0.020849l-0.205016,-0.059072l-0.038223,-0.017374l-0.010425,-0.038223l-0.027799,-0.045173l-0.079921,-0.072972l0.00695,-0.038223l0.031274,-0.027799v-0.038223l-0.024324,-0.017374l-0.031274,0.010425l-0.024324,0.045173l-0.048648,0.017374l-0.020849,0.031274l0.00695,0.072972l-0.013899,0.038223l-0.149418,0.090346l-0.059072,0.00695l-0.038223,-0.027799l-0.041698,-0.003475l-0.038223,0.010425l-0.069497,-0.013899l-0.062547,-0.059072l-0.017374,-0.072972l-0.038223,-0.034748l-0.052123,-0.00695l-0.083396,0.038223l-0.079921,-0.013899l-0.038223,-0.024324l-0.00695,-0.048648l-0.125094,-0.20849l-0.013899,-0.145943l-0.052123,-0.198066l0.003475,-0.264088l-0.031274,-0.072972v-0.066022l-0.017374,-0.034748l-0.138994,-0.059072l-0.246714,-0.20849l-0.166792,-0.211965l-0.048648,-0.097295l0.010425,-0.111195l-0.01998,-0.10772l-0.065153,-0.044304h-0.026061l-0.020849,0.044304l-0.023455,0.005212l-0.04691,-0.04691l-0.11467,-0.026061h-0.205884l-0.03388,-0.013031l-0.03388,-0.044304l-0.057335,-0.023455l-0.036486,0.010425l-0.002606,0.031274l0.054729,0.044304l0.028667,0.057335l-0.010425,0.04691l-0.049516,0.023455l-0.065153,0.049516l-0.026061,0.041698l-0.109457,0.052123l-0.023455,0.028667l-0.03388,0.007818l-0.153762,-0.039092l-0.239764,-0.08079l-0.205884,-0.138125l-0.08079,-0.03388l-0.130306,-0.028667l-0.059941,-0.067759l0.005212,-0.070365l0.020849,-0.015637l0.013031,-0.026061l-0.010425,-0.04691l-0.026061,-0.013031l-0.041698,0.026061l-0.031274,0.062547l-0.044304,0.015637l-0.026061,-0.010425l-0.018243,-0.057335l-0.031274,-0.018243l-0.078184,-0.002606l-0.049516,0.036486l-0.138125,0.054729l-0.054729,0.044304l-0.104245,0.036486l-0.054729,0.002606l-0.044304,-0.031274l-0.018243,0.005212v0.031274l-0.044304,0.03388l-0.072972,-0.013031l-0.132913,-0.174611l-0.054729,-0.028667l-0.088608,0.005212l-0.169398,-0.031274l-0.192854,-0.075578l-0.166792,-0.19546l-0.083396,-0.145943l-0.156368,-0.255401l-0.166792,-0.11467l-0.135519,-0.031274l-0.125094,0.010425l-0.192854,0.083396l-0.130306,0.020849l-0.119882,-0.031274l-0.133781,-0.118145l-0.072972,-0.052123l-0.229339,-0.066022l-0.066022,0.017374l-0.055597,0.055597l0.003475,0.024324l0.048648,0.013899l0.034748,0.062547v0.076446l-0.027799,0.059072l-0.041698,0.041698l-0.003475,0.045173l0.052123,0.031274v0.038223l-0.034748,0.027799l-0.055597,-0.003475l-0.003475,0.024324l0.055597,0.034748v0.055597l-0.069497,0.038223l-0.11467,0.027799l-0.138994,0.013899h-0.10772l-0.069497,0.024324l-0.052123,0.041698l-0.083396,0.00695l-0.069497,-0.017374l-0.010425,-0.048648l-0.034748,-0.017374l-0.055597,0.038223l-0.076446,-0.010425l-0.097295,-0.013899l-0.048648,-0.038223l-0.038223,-0.090346l-0.00695,-0.11467l-0.072972,-0.066022l-0.055597,-0.00695l-0.031274,0.017374l-0.027799,-0.003475l-0.024324,-0.034748l-0.045173,-0.003475l-0.10077,0.048648l-0.097295,0.027799h-0.066022l-0.121619,-0.048648l-0.031274,0.00695l-0.041698,0.048648l-0.086871,0.045173h-0.079921l-0.170267,-0.045173l-0.097295,-0.076446l-0.038223,-0.10772l-0.093821,-0.062547l-0.045173,0.003475l-0.048648,0.041698l-0.052123,0.00695l-0.066022,-0.031274l-0.121619,-0.031274h-0.072972l-0.038223,0.027799l-0.013899,0.086871l-0.090346,0.066022l-0.111195,0.041698l-0.121619,0.003475l-0.138994,-0.059072l-0.045173,-0.066022v-0.097295l0.017374,-0.10772l-0.020849,-0.069497l-0.093821,-0.10772l-0.118145,-0.027799l-0.083396,0.024324l-0.066022,0.048648l-0.020849,0.055597l-0.031274,0.013899l-0.010425,0.038223l0.013899,0.038223l0.003475,0.093821l-0.024324,0.076446l-0.121619,0.10772l-0.125094,0.072972l-0.024324,0.031274v0.034748l-0.020849,0.027799l-0.069497,0.027799l-0.048648,0.055597l-0.017374,0.097295l-0.062547,0.10772l-0.104245,0.257138l-0.034748,0.163317v0.152893l0.017374,0.034748l0.034748,0.010425v0.034748l-0.045173,0.111195l-0.00695,0.132044l0.013899,0.079921l-0.010425,0.135519l-0.048648,0.138994l-0.138994,0.149418l-0.166792,0.048648l-0.086871,0.00695l-0.090346,-0.059072l-0.013899,-0.048648l0.024324,-0.066022l-0.038223,-0.024324l-0.062547,0.013899l-0.062547,0.079921l-0.066022,0.125094l-0.027799,0.104245l0.003475,0.066022l0.027799,0.031274v0.052123l-0.024324,0.076446l-0.055597,0.093821l-0.090346,0.045173l-0.020849,0.024324l-0.010425,0.052123l-0.045173,0.072972l-0.118145,0.10077l-0.055597,0.013899l-0.010425,0.024324l0.017374,0.062547l-0.031274,0.118145l-0.062547,0.072972l-0.027799,0.045173l-0.00695,0.034748l-0.052123,0.013899l-0.069497,-0.020849l-0.038223,-0.079921l0.027799,-0.079921l-0.020849,-0.034748l-0.059072,-0.020849l-0.045173,-0.055597l-0.041698,-0.017374l-0.010425,-0.048648l0.010425,-0.052123l-0.013899,-0.11467l-0.045173,-0.041698l-0.017374,-0.093821l-0.027799,-0.003475l-0.034748,0.024324l-0.118145,0.038223l-0.00695,0.027799l0.017374,0.027799l-0.00695,0.072972l-0.041698,0.045173l-0.069497,0.027799l-0.079921,0.079921l-0.038223,0.059072l-0.045173,0.013899l-0.072972,-0.017374l-0.069497,-0.045173l-0.024324,0.010425l0.020849,0.072972l0.066022,0.048648l0.027799,0.055597l0.017374,0.135519l0.031274,0.041698l0.059072,0.003475l0.069497,-0.057335l0.033011,-0.06081l0.039961,-0.017374l0.194591,0.010425l0.147681,0.05386l0.050385,0.055597l0.008687,0.050385l0.015637,0.005212l0.015637,-0.024324l0.001737,-0.019112l0.029536,-0.013899l0.055597,0.001737l0.055597,0.033011l0.052123,0.05386l0.05386,0.013899l0.059072,-0.010425l0.083396,0.015637l0.033011,0.019112l0.039961,-0.005212l0.043435,-0.034748l0.062547,-0.019112l0.140731,-0.036486l0.166792,-0.008687l0.05386,-0.019112h0.182429l0.15463,0.034748l0.090346,-0.003475l0.081659,-0.024324l0.26235,0.003475l0.038223,0.015637l0.020849,-0.005212l0.022586,-0.048648l0.036486,-0.038223l0.11467,-0.026061l0.163317,0.003475l0.159843,0.022586l0.099033,0.04691l0.15463,0.170267l0.203278,0.102508l0.079921,0.022586l0.083396,0.005212l0.166792,0.078184l0.003475,0.019112l-0.017374,0.031274v0.027799l0.024324,0.026061l0.04691,-0.001737l0.023455,0.015637l0.005212,0.023455l0.023455,0.010425l0.049516,-0.005212l0.054729,0.020849l0.026061,0.044304l0.031274,0.007818l0.04691,-0.018243l0.041698,-0.002606l0.091215,0.020849l0.072972,-0.005212l0.072972,-0.044304l0.036486,-0.007818l0.020849,-0.018243l0.018243,-0.036486l0.075578,-0.023455h0.062547l0.153762,0.028667l0.08079,0.03388l0.062547,0.039092l0.018243,0.026061l-0.013031,0.078184l0.002606,0.052123l0.015637,0.041698l-0.005212,0.049516l-0.062547,0.093821l-0.057335,0.054729l-0.101639,0.03388l-0.039092,0.03388l-0.041698,0.072972l-0.031274,0.031274l-0.015637,0.04691l0.013031,0.036486l0.031274,0.039092l0.002606,0.028667l-0.039092,0.028667l-0.032142,0.006081l-0.027799,-0.013899l-0.022586,0.005212l-0.033011,0.020849l-0.083396,-0.013899l-0.019112,0.022586l0.010425,0.041698l-0.008687,0.020849l-0.036486,0.009556l-0.007818,0.020849l0.01998,0.032142l-0.010425,0.036486l-0.038223,0.008687l-0.003475,0.033011l0.034748,0.050385v0.038223l-0.034748,0.022586l-0.008687,0.038223l0.004344,0.086871l0.013031,0.028667l0.083396,0.062547l0.028667,0.052123l-0.020849,0.067759l0.005212,0.020849l0.031274,-0.005212l0.044304,-0.031274l0.075578,-0.005212l0.135519,0.04691h0.026061l0.036486,0.020849l0.011293,0.03388l0.079921,0.071234l0.112932,0.039961l0.085134,0.008687l0.062547,-0.017374l0.180692,0.013899l0.559449,0.062547l0.071234,0.003475l0.072972,-0.010425l0.271037,0.008687l0.420456,0.045173l0.238026,0.008687l0.312736,0.064285l0.448254,0.099033l0.152893,0.015637l0.217177,-0.012162l0.178954,0.031274l0.138994,0.041698l0.026061,0.050385l0.033011,0.017374l0.055597,0.003475l0.103675,0.050114l0.035997,0.009692l0.051227,0.012461l0.171679,0.065072Z "/>
</svg>
