<svg xmlns="http://www.w3.org/2000/svg" viewBox="1044.077 434.281 38.588 31.801">
  <path d="M1045.916049,442.931695l0.043091,0.027451l0.001959,0.027451l-0.037215,0.023529l-0.031339,-0.017647l-0.001959,-0.05098l0.025463,-0.009804Z M1044.727865,447.882403l0.004952,-0.030084l-0.016032,-0.048951l-0.017585,-0.028942l-0.015439,0.004867l0.004967,0.053741l0.019718,0.049375l0.01942,-0.000006Z M1044.806284,447.835127l0.007299,-0.020277l-0.00926,-0.008069l-0.01574,0.004594l-0.008289,0.017637l0.010023,0.009514l0.015967,-0.003399Z M1044.759118,447.527764l0.023504,-0.016993l0.009141,-0.036601l-0.010446,-0.014379l-0.031339,0.005229l-0.016975,0.026144l0.009141,0.028758l0.016975,0.007843Z M1044.568472,447.86894l0.010446,-0.023529l-0.006529,-0.03268l-0.041785,-0.027451l-0.027422,-0.07451l0.002612,-0.056209l-0.006529,-0.036601l-0.02481,-0.003922l-0.026116,0.027451l0.007835,0.088889l0.035256,0.027451l0.010446,0.03268l-0.009141,0.030065l0.030033,0.052287l0.045703,-0.003922Z M1045.050309,448.787892l0.007835,-0.028758l-0.023504,-0.060131l-0.031339,-0.010457l-0.033951,0.023529l-0.002612,0.036601l0.057455,0.04183l0.026116,-0.002614Z M1044.128665,450.12658l-0.013847,-0.034301l-0.025645,-0.012491l-0.012477,0.025672l0.009989,0.03362l0.021787,0.01181l0.020193,-0.02431Z M1046.160233,451.258476l0.002612,-0.016993l-0.067901,-0.077124l-0.070513,-0.062745l-0.007835,-0.047059l-0.039174,-0.007843l-0.044397,0.070588l0.020893,0.057516l0.169753,0.08366h0.036562Z M1046.246415,451.292463l0.010446,-0.261437l-0.020893,-0.026144l-0.039827,-0.163398l-0.022851,-0.016993l-0.086182,0.08366l-0.028727,0.086274l0.031339,0.122876l0.096629,0.1183l0.033951,0.059477l0.026116,-0.002614Z M1046.203977,451.308149l-0.025463,-0.028758l-0.04962,-0.002614l-0.135802,-0.054902l-0.062678,0.002614l-0.020893,0.036601l0.031339,0.033987l0.11491,0.002614l0.065942,0.024183l0.070513,0.007843l0.011752,-0.021569Z M1047.042948,455.245396l0.005223,-0.026144l0.062678,-0.018301l0.062678,-0.070588l0.04962,-0.156862l0.010446,-0.143791l0.033951,-0.120261l0.026116,-0.227451l-0.018281,-0.049673l0.005223,-0.036601l0.028727,-0.033987l-0.007835,-0.039216l0.020893,-0.020915l0.041785,-0.007843l0.028727,-0.028758l0.018281,-0.054902l0.033951,-0.005229l0.14886,0.091503l0.122744,-0.005229l0.104463,-0.060131l0.073124,0.015686l0.041785,-0.005229l0.028727,0.015686l0.018281,0.065359l0.101852,0.04183l0.078348,-0.013072l0.057455,-0.078431l0.052232,-0.005229l0.070513,0.039216l0.041785,-0.002614l0.028727,0.033987l-0.002612,0.104575l0.062678,0.130719l-0.002612,0.044444l-0.020893,0.031372v0.070588l0.052232,0.073202l-0.005223,0.039216l-0.344729,0.183006l-0.010446,0.036601l0.018281,0.031372l-0.018281,0.015686l-0.09924,0.010457l-0.308167,0.130719l-0.146249,0.088889l-0.091405,0.094117l-0.075736,0.013072l-0.146249,-0.026144l-0.167141,-0.08366l-0.06529,-0.081046Z M1049.730986,460.352984l0.005191,0.018188l0.025956,0.005197l0.025956,-0.01559v-0.018188l-0.031147,-0.005197l-0.025956,0.01559Z M1047.010817,456.155319l0.019034,0.001732l0.012113,-0.022519l-0.005191,-0.022519l-0.015573,-0.006929l-0.012113,0.017322l0.00173,0.032912Z M1044.862801,456.381605l0.019304,-0.006902l-0.009652,-0.013804h-0.028957l-0.006894,0.015184l0.026199,0.005521Z M1046.34181,455.202803l0.01825,0.008304l0.016591,-0.016609l0.003318,-0.021592l-0.01825,-0.014948l-0.020885,0.011485l0.000976,0.03336Z M1049.533055,459.42927l0.035481,-0.02188l-0.009426,-0.026289l-0.036486,0.007631l-0.015633,0.028902l0.026063,0.011636Z M1044.602424,456.430786l0.023636,0.006539l0.006921,-0.008661l-0.007641,-0.016407l-0.020272,-0.004412l-0.007051,0.008824l0.004407,0.014118Z M1044.76156,456.376686l0.012447,-0.005538l0.004149,-0.012461l-0.008298,-0.009692l-0.015213,0.006923l-0.002766,0.011076l0.009681,0.009692Z M1044.757925,456.476911l0.019921,-0.026127l-0.002003,-0.017423l-0.034639,-0.002188l-0.021762,0.025457l-0.003187,0.025965l0.021417,0.00989l0.020253,-0.015573Z M1045.77248,456.151569l0.043124,-0.027188l-0.000403,-0.035993l-0.038963,-0.020499l-0.022768,0.015424l-0.002202,0.051083l0.021213,0.017173Z M1046.442284,455.200951l0.088794,-0.044444l0.06529,-0.120261l-0.039174,-0.057516h-0.044397l-0.086182,0.062745l-0.028727,0.088889l0.007835,0.052287l0.036562,0.018301Z M1046.037488,455.462389l0.039174,-0.033987l0.020893,-0.060131l-0.01567,-0.005229l-0.044397,0.033987l-0.026116,0.057516l0.026116,0.007843Z M1046.118447,455.512062l0.028727,-0.020915l0.047009,-0.08366l-0.013058,-0.039216l-0.033951,-0.013072l-0.023504,0.015686l-0.020893,0.133333l0.01567,0.007843Z M1046.202018,455.344742l0.054843,0.033987l0.028727,-0.020915l-0.010446,-0.047059l-0.078348,-0.044444l-0.020893,0.018301l0.026116,0.060131Z M1044.512323,456.989183h0.104463l0.203704,-0.028758l0.013058,-0.018301l-0.036562,-0.033987l-0.297721,-0.005229l-0.062678,0.026144l-0.007835,0.028758l0.083571,0.031372Z M1044.846606,456.484609l0.052232,0.005229l0.047009,-0.013072l0.031339,0.015686l0.018281,0.117647l-0.033951,0.081046l0.018281,0.067974l0.078348,0.028758l0.086182,0.005229l0.073124,-0.044444l0.14886,-0.039216l0.091405,-0.065359l0.075736,-0.104575l-0.005223,-0.062745l-0.094017,-0.065359l-0.018281,-0.060131l-0.057455,-0.036601h-0.070513l-0.070513,-0.04183l-0.01567,0.013072l0.010446,0.028758l-0.080959,0.062745l-0.088794,0.007843l-0.044397,-0.039216h-0.023504l-0.036562,0.044444l-0.078348,0.026144l-0.028727,0.039216l0.01567,0.028758Z M1049.58663,460.814012l0.078348,0.005229l0.11491,-0.047059l0.005223,-0.054902l-0.01567,-0.026144l-0.005223,-0.047059l0.020893,-0.065359l-0.028727,-0.078431l-0.060066,-0.002614l-0.083571,0.086274l-0.039174,0.096732l-0.052232,0.052287v0.044444l0.06529,0.036601Z M1049.884351,461.342115l0.028727,0.031372l0.062678,0.020915l0.075736,-0.036601l0.01567,-0.086274l-0.096629,-0.101961l-0.052232,0.010457l-0.028727,0.067974l-0.067901,0.04183l0.005223,0.04183l0.057455,0.010457Z M1072.35362,465.525871l0.020523,0.024023l-0.011679,0.013933l-0.029894,-0.004759l-0.016546,-0.020683l0.007702,-0.017273l0.029894,0.004759Z M1071.750165,465.777349l0.007862,-0.033739l-0.005653,-0.033693l-0.012379,0.008137l-0.011152,0.043287l0.005074,0.026265l0.016249,-0.010258Z M1072.321094,465.756155l-0.008296,0.01827l0.016591,0.016609l0.021569,0.003322l0.014932,-0.01827l-0.011472,-0.020907l-0.033324,0.000977Z M1072.221983,465.642141l0.031147,-0.027716l-0.013843,-0.024251l-0.034607,0.013858l-0.010382,0.03118l0.027686,0.006929Z M1072.597784,462.039211l0.007051,0.013235l0.016747,-0.000882l0.006724,-0.012982l-0.008273,-0.012423l-0.013434,0.001582l-0.008814,0.011471Z M1055.17542,462.003552l0.026116,0.033987l0.018281,-0.002614l0.010446,-0.028758l-0.031339,-0.028758l-0.018281,0.002614l-0.005223,0.023529Z M1061.818636,462.815969l0.019587,0.019608l0.066595,-0.035294l0.052885,-0.080392l-0.007835,-0.05098l-0.023504,-0.015686l-0.054843,0.027451l-0.048967,0.068627l-0.003917,0.066667Z M1066.053319,463.282634l0.003917,-0.029412l-0.017628,-0.054902l-0.009793,0.003922l-0.003917,0.056863l0.013711,0.039216l0.013711,-0.015686Z M1072.752032,464.849298l0.033298,-0.064706l-0.011752,-0.035294l-0.021546,0.001961l-0.037215,0.068627l0.003917,0.031372l0.033298,-0.001961Z M1072.855842,463.996359l0.021546,-0.031372l-0.005876,-0.031372l-0.039174,-0.015686l-0.011752,0.017647l0.013711,0.060784h0.021546Z M1071.702175,463.394399l0.025463,-0.07451l-0.007835,-0.043137l-0.025463,-0.003922l-0.041132,0.041176l-0.001959,0.041176l0.023504,0.045098l0.027422,-0.005882Z M1071.823614,463.123811l0.017628,-0.013725l0.011752,-0.068627l-0.009793,-0.047059l-0.019587,0.001961l-0.01567,0.027451l-0.003917,0.084314l0.019587,0.015686Z M1072.938107,464.108123h0.050926l0.082265,-0.094117l0.047009,-0.35294l0.0901,-0.454901l-0.003917,-0.117647l-0.0901,-0.047059l-0.01567,0.027451v0.062745l-0.07443,0.109804l-0.129273,0.094117l-0.035256,0.07451l-0.043091,0.172549l-0.070513,0.168627l0.01567,0.031372l0.082265,0.027451l0.066595,0.129412v0.101961l0.027422,0.066667Z M1071.762894,465.621845l0.01567,0.015686l0.062678,-0.047059l0.066595,0.031372l0.003917,0.070588l0.027422,-0.003922l0.054843,-0.121568l0.047009,-0.031372l0.082265,0.011765l0.058761,-0.043137l0.043091,-0.07451l0.125356,-0.070588l0.01567,-0.090196l0.047009,-0.054902h0.070513l0.050926,-0.027451l0.047009,-0.082353l0.054843,-0.015686l0.070513,0.023529l0.035256,-0.023529l-0.011752,-0.145098l-0.125356,-0.2l0.01567,-0.066667l0.0901,-0.05098l0.062678,-0.062745l0.047009,-0.12549l-0.011752,-0.031372l-0.066595,-0.007843l-0.039174,-0.07451l-0.003917,-0.239215l-0.027422,-0.066667v-0.062745l0.031339,-0.062745l-0.027422,-0.082353l-0.054843,-0.027451l-0.007835,-0.105882l0.054843,-0.086274h0.058761l0.027422,-0.023529v-0.105882l-0.035256,-0.113725l-0.188034,-0.192156l-0.011752,-0.113725l0.082265,-0.262745l0.019587,-0.219607l-0.035256,-0.054902l-0.047009,-0.003922l-0.246795,0.2l-0.235043,0.113725l-0.070513,0.105882l0.007835,0.062745l-0.156695,0.364705l-0.082265,0.098039l-0.023504,0.082353l0.019587,0.17647l-0.019587,0.137255l-0.082265,0.086274l-0.047009,0.149019l0.043091,0.278431l0.117521,0.145098l0.109687,0.235294v0.094117l-0.050926,0.054902l-0.003917,0.172549l0.043091,0.039216l0.011752,0.047059l-0.109687,0.270588l-0.031339,0.105882l0.027422,0.054902l0.003917,0.047059Z M1074.275891,454.82971v-0.015686l-0.007835,-0.031372l-0.019587,-0.011765l-0.021546,0.007843l-0.001959,0.02549l0.031339,0.033333l0.019587,-0.007843Z M1079.060779,447.341777l0.016596,0.001385l0.012447,0.01523l-0.009356,0.014741h-0.018223l-0.013912,-0.020279l0.012447,-0.011076Z M1076.836381,452.728728l-0.153598,0.101639l-0.132771,0.010425l-0.091117,-0.044304l-0.057274,0.005212l-0.041654,0.015637l0.02343,0.057335l0.119754,0.101639l0.114547,0.062547l0.104134,0.164186l-0.026033,0.070365l0.00781,0.039092l0.161408,0.16158l0.208268,0.132913l0.143184,0.049516l0.096324,-0.007818l0.033844,-0.067759l0.044257,-0.023455l0.114547,-0.005212l0.057274,-0.067759l-0.013017,-0.093821l-0.065084,-0.028667l-0.177028,-0.013031l-0.075497,0.015637l-0.065084,-0.010425l-0.179631,-0.132913l-0.06248,-0.091215l-0.044257,-0.007818v-0.013031l0.059877,-0.005212l0.140581,0.101639l0.114547,0.002606l0.044257,-0.015637l0.005207,-0.054729l-0.041654,-0.049516l0.013017,-0.023455l0.135374,0.002606l0.033844,-0.036486v-0.054729l-0.049464,-0.041698l-0.132771,-0.018243l-0.052067,-0.018243l-0.018223,-0.052123l0.020827,-0.013031l0.04686,0.039092l0.148391,-0.015637l0.098927,-0.117276l0.010413,-0.158974l-0.072894,-0.070365l0.005207,-0.031274l0.072894,-0.03388l0.132771,-0.109457l0.00781,-0.109457l-0.044257,-0.057335l-0.080704,-0.002606l-0.229095,0.174611l-0.088514,0.039092l-0.096324,0.101639l-0.179631,0.096427l-0.044257,0.065153l-0.005207,0.086002Z M1079.02059,447.294948l0.00781,-0.044304l-0.00781,-0.041698l-0.03124,-0.023455l-0.020827,0.005212l-0.005207,0.031274l0.033844,0.072972h0.02343Z M1079.017905,447.996648l0.023511,0.008307l0.030427,-0.02769l-0.002766,-0.049842l-0.027661,-0.02769h-0.026278l-0.017979,0.023537l-0.006915,0.038766l0.027661,0.034613Z M1076.945721,452.496782l0.072894,-0.03388l0.096324,-0.091215l0.140581,-0.16158l0.026033,-0.153762l-0.052067,-0.101639l-0.075497,-0.002606l-0.049464,0.054729l-0.028637,0.106851l-0.07029,0.1277l-0.028637,0.138125l-0.04686,0.109457l0.01562,0.007818Z M1077.140973,453.262984h0.057274l0.010413,-0.015637l-0.01562,-0.015637l-0.036447,0.002606l-0.02343,0.015637l0.00781,0.013031Z M1076.73485,453.742512l0.05467,0.148549l0.080704,0.04691l0.04686,0.002606l0.01562,-0.026061l-0.065084,-0.132913l-0.010413,-0.039092l0.044257,-0.062547l-0.018223,-0.08079l-0.03124,-0.028667h-0.044257l-0.02343,-0.013031l-0.033844,-0.140731l-0.07029,-0.070365l-0.01562,-0.088608l0.02343,-0.049516l-0.106737,-0.153762l-0.093721,-0.04691l-0.065084,-0.049516l-0.020827,0.010425l0.020827,0.122488l0.052067,0.083396l0.02343,0.198066l0.06248,0.140731l0.098927,0.153762l0.075497,0.075578Z M1076.797331,453.518385l0.020827,0.026061l0.04686,0.002606l0.065084,0.075578l0.091117,0.099033l0.065084,0.031274l0.013017,-0.018243l-0.132771,-0.16158l-0.114547,-0.075578l-0.04686,-0.04691l-0.018223,0.007818l0.010413,0.059941Z M1076.667163,453.958821l0.059877,-0.041698l0.005207,-0.044304l-0.03905,-0.065153l-0.028637,-0.005212l-0.026033,0.026061l0.005207,0.039092l-0.010413,0.062547l0.033844,0.028667Z M1076.607286,453.948396l-0.010413,-0.039092l0.018223,-0.086002l0.036447,-0.044304v-0.065153l-0.101531,-0.153762l-0.028637,0.002606l-0.010413,0.062547l0.03905,0.059941l-0.005207,0.078184l-0.083307,0.049516l-0.013017,0.052123l0.0781,0.143337l0.041654,0.010425l0.03905,-0.070365Z M1076.247156,453.913648l0.039918,0.019112l0.045125,-0.020849l0.055538,-0.093821l-0.001736,-0.069497l-0.017356,-0.069497v-0.043435l-0.034711,-0.019112l-0.029505,0.020849l-0.045125,0.069497l-0.022562,0.099033l0.010413,0.10772Z M1076.413771,453.720794l0.027769,0.026061l0.0781,-0.005212l0.005207,-0.033011l-0.053803,-0.083396l0.001736,-0.050385l0.039918,-0.04691l-0.001736,-0.031274l-0.041654,-0.095558l-0.022562,-0.203278l-0.019091,-0.020849l-0.012149,0.00695l-0.039918,0.15463l-0.019091,0.172005l-0.003471,0.072972l0.036447,0.04691l0.024298,0.090346Z M1080.83252,445.499325l0.052067,0.008687l0.03124,-0.024324l-0.005207,-0.027799l-0.074629,-0.06081l-0.039918,-0.121619l-0.055538,-0.055597l-0.039918,-0.001737l-0.010413,0.079921l0.048596,0.138994l0.093721,0.064285Z M1079.801594,441.939352l0.027769,-0.013899l-0.010413,-0.048648l-0.065951,-0.072972l-0.034711,0.00695l-0.003471,0.027799l0.048596,0.086871l0.038182,0.013899Z M1080.211188,442.759414l0.024298,-0.00695l0.017356,-0.027799l-0.027769,-0.024324l-0.03124,0.00695l-0.003471,0.024324l0.020827,0.027799Z M1081.082442,442.769839l-0.052067,-0.069497l-0.024298,-0.062547l-0.034711,-0.020849l-0.052067,-0.003475l-0.041654,0.027799l0.003471,0.055597l0.03124,0.034748l0.086778,0.013899l0.076365,0.041698l0.006942,-0.017374Z M1081.367074,442.547449l-0.111076,-0.086871l-0.083307,-0.076446l-0.069423,-0.205016l0.018223,-0.057335l0.016488,-0.001737l0.052067,0.090346l0.11368,0.078184l0.077233,0.019112l0.008678,-0.011293l-0.101531,-0.054729l-0.073762,-0.062547l-0.055538,-0.093821l-0.026901,-0.015637l-0.03905,0.005212l-0.03124,0.093821l0.006942,0.138994l0.041654,0.086871l0.079836,0.10077l0.194383,0.111195l0.020827,-0.010425l-0.038182,-0.048648Z M1077.812636,440.266217l0.080704,-0.03388l0.109341,-0.005212l-0.01562,-0.03388l-0.0781,-0.036486l-0.052067,-0.059941h-0.065084l-0.101531,0.086002l-0.002603,0.044304l0.02343,0.036486l0.101531,0.002606Z M1077.096878,439.686842l0.069151,0.033228l0.096812,-0.009692l0.091605,-0.06442v-0.062547l-0.049464,-0.072972l-0.07029,-0.002606l-0.106737,0.052123l-0.059877,0.088608l-0.054182,0.016125l0.001383,0.011076l0.081599,0.011076Z M1077.643419,439.885722h0.195251l0.067687,-0.026061l-0.002603,-0.041698l-0.04686,-0.026061l-0.166614,0.010425l-0.190044,0.044304l-0.001736,0.018243l0.14492,0.020849Z M1077.031632,439.296737l0.071158,-0.036486l-0.003471,-0.034748l-0.032976,-0.00695l-0.088514,0.033011l-0.027769,0.04691l0.020827,0.015637l0.060745,-0.017374Z M1077.104526,439.192492l0.020827,0.012162l0.024298,-0.026061l-0.001736,-0.024324l-0.020827,-0.001737l-0.020827,0.019112l-0.001736,0.020849Z M1077.215602,439.13342l0.029505,-0.008687v-0.017374l-0.020827,-0.012162l-0.024298,0.00695l-0.003471,0.019112l0.019091,0.012162Z M1077.153121,439.246352l0.039918,0.003475l0.107605,-0.001737l0.0781,-0.034748l-0.008678,-0.029536l-0.12149,-0.015637l-0.069423,0.010425l-0.034711,0.033011l0.008678,0.034748Z M1077.371803,439.312374l0.053803,0.001737l0.12149,-0.033011l0.008678,-0.043435l-0.052067,-0.012162l-0.085043,0.001737l-0.067687,0.022586l-0.008678,0.034748l0.029505,0.027799Z M1077.491557,439.209866l0.03124,-0.019112l-0.008678,-0.020849l-0.059009,-0.005212l-0.04686,0.022586v0.019112l0.083307,0.003475Z M1077.370067,439.162956l0.045125,-0.003475l0.038182,-0.027799l-0.005207,-0.026061l-0.03124,-0.005212l-0.050331,0.020849l-0.008678,0.022586l0.012149,0.019112Z M1077.526268,439.129945l0.045125,-0.008687l0.003471,-0.04691l-0.036447,-0.024324l-0.0781,0.010425l-0.008678,0.019112l0.027769,0.033011l0.04686,0.017374Z M1077.59222,439.251564l0.022562,0.019112h0.027769l0.008678,-0.015637l-0.01562,-0.033011l-0.029505,-0.013899l-0.019091,0.008687l0.005207,0.034748Z M1077.26333,435.413605l0.036447,0.005212l0.0781,-0.03388l0.052067,-0.096427l-0.020827,-0.020849l-0.093721,0.018243l-0.065084,0.093821l0.013017,0.03388Z M1077.892472,436.320538l0.083307,0.072972l0.006942,0.097295l0.059009,0.052123l0.118018,0.045173l0.086778,0.003475l0.055538,0.031274l0.041654,-0.017374l-0.024298,-0.083396l-0.225624,-0.156368l-0.069423,-0.079921l-0.097192,-0.010425l-0.034711,0.045173Z M1077.455978,435.661187l0.057274,0.138125l0.182234,0.122488l0.088514,0.015637l0.145787,-0.065153l0.03905,-0.138125l0.05467,-0.130306l-0.002603,-0.062547l-0.231698,-0.239764l-0.106737,-0.062547l-0.093721,0.03388l-0.135374,0.187641l0.002603,0.200672Z M1078.225701,436.70277l0.052067,-0.010425l-0.003471,-0.045173l-0.052067,-0.024324l-0.06248,0.00695l-0.003471,0.038223l0.069423,0.034748Z M1078.062558,436.737518l0.111076,0.024324l0.059009,0.038223h0.038182v-0.048648l-0.072894,-0.024324l-0.163143,-0.013899l0.027769,0.024324Z M1078.142394,437.67225l0.253393,0.156368l0.065951,-0.003475l0.013885,-0.072972l-0.131903,-0.312736l-0.083307,-0.086871l-0.076365,-0.00695l-0.104134,0.041698l-0.048596,0.086871l0.034711,0.128569l0.076365,0.069497Z M1076.215916,437.700049l0.263806,0.013899l0.437362,0.10077l0.076365,0.066022l0.052067,-0.003475l0.017356,-0.062547l0.045125,-0.045173l0.041654,-0.048648l-0.034711,-0.045173h-0.072894l-0.15273,-0.041698l-0.048596,-0.083396l-0.065951,-0.017374l-0.107605,-0.086871l-0.138845,-0.038223l-0.090249,0.017374l-0.114547,-0.020849l-0.038182,-0.062547l-0.086778,-0.024324l-0.083307,0.024324l-0.104134,0.132044l-0.003471,0.066022l0.079836,0.118145l0.128432,0.041698Z M1076.969152,438.231699h0.104134l0.041654,-0.034748l-0.003471,-0.11467l-0.034711,-0.072972l-0.114547,-0.013899l-0.045125,0.034748l0.010413,0.090346l-0.006942,0.069497l0.048596,0.041698Z M1076.736586,438.551384l0.090249,0.020849l0.048596,-0.062547l0.06248,-0.013899l0.111076,0.017374l0.12149,-0.020849l0.034711,-0.059072l-0.083307,-0.10077l-0.166614,-0.066022l-0.06248,-0.010425l-0.086778,0.066022l-0.093721,0.017374l-0.020827,0.034748l-0.010413,0.11467l0.055538,0.062547Z M1077.632138,438.64173l0.038182,-0.017374l0.017356,-0.309261l0.038182,-0.10772l0.010413,-0.163317l-0.052067,-0.093821l-0.208268,-0.10077l-0.204797,0.020849l-0.104134,0.135519v0.121619l0.059009,0.156368l0.166614,0.125094l0.145787,0.173742l0.093721,0.059072Z M1077.146179,437.317816l0.072894,0.031274l0.06248,-0.00695v-0.038223l-0.052067,-0.059072h-0.059009l-0.038182,0.045173l0.013885,0.027799Z M1077.219073,437.439436l0.166614,0.010425l0.093721,0.055597l0.12149,0.017374l0.086778,-0.031274l0.006942,-0.038223l-0.135374,-0.076446l-0.225624,-0.031274l-0.048596,0.027799l-0.059009,0.003475l-0.065951,-0.020849l-0.024298,0.010425l0.083307,0.072972Z M1077.018615,437.641845l0.117151,0.007818l0.101531,0.04691l0.010413,0.041698l0.06248,0.018243l0.137977,0.013031l0.072894,-0.03388l-0.005207,-0.062547l-0.06248,-0.04691l-0.247318,-0.08079l-0.122357,-0.059941l-0.229095,-0.023455l-0.05467,0.005212l0.005207,0.031274l0.059877,0.026061l0.049464,0.075578l0.104134,0.041698Z M1076.948325,437.331716l0.065084,0.075578l0.052067,0.002606l0.020827,-0.013031l-0.04686,-0.054729l-0.065084,-0.023455l-0.026033,0.013031Z M1076.667163,437.402081l0.049464,0.018243l0.07029,0.005212l0.010413,-0.028667l-0.026033,-0.028667l-0.101531,-0.002606l-0.013017,0.015637l0.010413,0.020849Z M1076.422448,437.357777l0.150994,-0.03388l0.197854,0.007818l0.052067,0.067759l0.075497,0.028667l0.05467,-0.026061l-0.002603,-0.044304l-0.192648,-0.106851l-0.088514,-0.007818l-0.067687,0.026061l-0.229095,0.018243l-0.033844,0.018243l0.018223,0.039092l0.065084,0.013031Z M1076.495342,437.245713l0.104134,-0.013031l0.026033,-0.023455l-0.03905,-0.015637l-0.0781,0.007818l-0.03124,0.026061l0.018223,0.018243Z  M1070.331426,435.35129l0.001,-0.018l0.021,-0.018l0.001,-0.012l-0.013,-0.025l0.006,-0.069l0.027,-0.025l0.003,-0.037l0.046,-0.069l0.058,-0.002l0.027,0.015l0.021,-0.002l-0.004,-0.047l0.012,-0.025l0.074,-0.02l0.043,-0.098l0.055,-0.017l0.06,0.01l0.016,0.08l0.016,0.003l0.013,-0.015l0.045,-0.003l0.029,-0.034l-0.01,-0.088l0.009,-0.021l0.062,-0.017l0.027,-0.042l0.033,-0.002l0.036,-0.033l0.01,-0.028l-0.035,-0.083l-0.001,-0.088l0.035,-0.032l0.001,-0.03l-0.014,-0.017l0.002,-0.036l0.034,-0.061l0.051,-0.002l0.024,-0.014l0.036,0.007l0.015,0.061l0.045,0.071l0.034,0.013l0.084,-0.021l0.009,0.022l0.024,0.004l0.019,-0.02l0.028,0.002l0.023,0.018l0.065,0.018l0.019,0.041l0.079,0.018l0.028,0.042l-0.013,0.072l0.018,0.029l0.052,0.01l0.055,0.046l0.054,-0.002l0.026,-0.096l0.098,-0.105l0.022,-0.005l0.035,0.013l0.026,0.001l0.028,-0.028h0.054l0.014,0.017h0.018l0.002,-0.093l-0.027,-0.043l0.014,-0.067l0.02,-0.007l0.026,0.033l0.065,0.004l0.024,0.024l0.018,0.001l0.02,-0.026l0.047,-0.006l0.032,0.016l0.068,0.007l0.037,0.049l0.068,0.006l0.04,-0.033l0.022,-0.005l0.045,0.01l0.031,-0.012l0.038,-0.047l0.038,-0.004l0.025,-0.018l0.043,0.001l0.066,0.05l0.01,0.039l0.033,0.021l0.045,-0.006l0.026,0.008l0.008,0.045l0.042,0.056l0.035,0.003l0.034,0.028l0.015,0.128l0.028,0.001l0.014,-0.018l0.022,-0.004l0.025,0.004l0.063,-0.032l0.029,-0.107l0.028,-0.005l0.04,0.03l0.031,-0.005l0.006,-0.033l0.055,-0.058l0.022,-0.091l0.024,-0.008l0.022,-0.03l0.046,-0.016l0.01,-0.065l0.016,-0.001l0.067,0.12l0.039,0.007l0.029,-0.021l0.037,0.015l0.016,0.066l-0.014,0.041l0.013,0.023l0.042,0.013l0.052,-0.007l0.019,0.009h0.019l0.018,-0.047l0.034,-0.011l0.034,0.04l0.06,0.004l0.033,0.026l0.014,-0.001v-0.028l0.095,-0.043l0.032,-0.048l0.002,-0.059l0.037,-0.035l0.112,0.116l0.007,0.047l0.02,0.028l0.029,0.001l0.034,-0.039l0.038,0.002l0.016,0.046l0.091,0.037l0.011,-0.034l0.015,-0.009l0.035,0.009h0.023l0.031,-0.041l0.038,-0.002l0.053,-0.074l0.046,-0.002l0.089,0.04l0.031,-0.009l0.037,0.018l0.004,0.024l0.047,0.034l0.018,-0.012l0.05,0.005l0.054,-0.022l0.024,0.011l-0.008,0.069l0.017,0.017l0.035,0.001l0.026,-0.027l0.006,-0.046l0.049,-0.024l0.123,0.041l0.124,0.004l0.071,-0.033l0.039,0.002l0.017,-0.008l0.009,-0.026l0.03,-0.002l0.033,0.015l0.03,0.038h0.065l0.023,0.01l0.023,-0.001l0.088,-0.126l0.072,-0.014l0.02,0.006l0.002,0.023l0.057,0.034l0.018,0.032l0.055,0.047l0.014,0.072l0.034,0.008l0.044,0.022l0.006,0.024l0.01,0.008l0.031,-0.016l0.072,0.05l0.094,0.009l0.019,0.012l0.001,0.037l0.065,0.066l0.054,0.006l0.024,0.024l0.008,0.036l0.037,0.016l0.029,0.005l0.001,0.021l-0.026,0.023l0.01,0.02l0.039,0.028l0.004,0.037l0.016,0.02l0.029,0.006l0.038,0.049l0.04,0.011l0.018,0.018l0.021,0.004l0.032,-0.018l0.026,0.019l0.048,-0.002l0.046,0.026l0.023,0.002l0.025,-0.039l0.02,-0.002l0.014,0.014l0.021,0.001l0.057,-0.04l0.072,0.004l0.037,0.035l-0.013,0.049l-0.035,0.018l-0.084,0.016l-0.072,0.07l-0.048,0.09l-0.068,0.006l-0.154,-0.052l-0.203,-0.102l-0.107,-0.013l-0.094,-0.06l-0.002,0.027l0.07,0.062l0.12,0.037l0.039,0.07l-0.021,0.026l-0.107,0.023l-0.096,-0.023l-0.037,0.01l-0.046,0.045l0.059,-0.016l0.05,0.003l0.049,0.015l0.078,-0.005l0.086,-0.018l0.164,0.036l0.021,0.037l-0.018,0.081l-0.099,0.125l-0.039,0.01l-0.117,-0.068l-0.089,-0.005l-0.049,0.052l0.021,0.083l-0.045,0.196l-0.046,0.021l-0.12,-0.016l-0.11,-0.088l-0.091,0.01l-0.125,0.123h0.026l0.125,-0.089l0.05,0.005l0.107,0.084l0.13,0.023l0.067,-0.015l0.042,-0.063l0.005,-0.091l0.029,-0.097l-0.016,-0.078l0.05,-0.016l0.065,0.019l0.091,0.057l0.062,-0.01l0.146,-0.152l0.073,-0.002l0.143,0.099l0.039,0.117l0.12,0.138l0.052,0.094l0.172,0.078l0.125,-0.005l0.029,0.024l-0.001,0.058l-0.028,0.014l-0.031,-0.018l-0.101,-0.003l-0.111,0.024l-0.073,-0.01l-0.101,-0.111l-0.006,0.038l0.045,0.08l0.107,0.052l0.101,-0.004l0.069,-0.024l0.08,0.007l0.115,0.073l0.08,0.066l0.013,0.045v0.059l0.046,0.045l0.1,0.046l0.025,0.069l-0.025,0.017l-0.218,-0.027l-0.174,-0.063l-0.049,0.052h-0.041l-0.052,-0.014l-0.007,0.028l0.08,0.035l0.052,-0.025l0.02,-0.024h0.042l0.094,0.056l0.458,0.156l0.017,0.038l-0.02,0.028l-0.098,0.038l-0.104,-0.003l-0.09,-0.066l-0.007,0.031l0.017,0.073l0.028,0.014l0.024,-0.014h0.025l-0.021,0.111l-0.07,0.045l-0.118,0.018l-0.194,0.069l-0.114,-0.003l-0.174,-0.049l-0.236,-0.163l-0.08,-0.132l-0.055,-0.045l-0.042,-0.004l-0.146,0.08l-0.08,-0.017l-0.054,-0.071l0.002,0.043l0.035,0.063l0.108,0.024l0.065,-0.045l0.066,-0.024h0.038l0.024,0.035l-0.003,0.051l-0.085,0.025h-0.131l0.013,0.018l0.133,0.015l0.102,-0.009l0.048,0.014l0.038,0.048l-0.017,0.108l-0.055,0.07h-0.056l-0.177,-0.046l-0.135,-0.083l-0.104,-0.007l-0.275,0.073l-0.114,0.007l-0.104,-0.01l-0.219,-0.087h-0.083l-0.118,0.028l-0.091,0.006l-0.086,-0.006l-0.07,0.024l-0.149,0.115l-0.059,0.006l-0.101,-0.017l-0.034,-0.062l0.034,-0.094l-0.007,-0.136l-0.031,-0.066l-0.09,-0.01l-0.122,0.104l-0.034,0.195l-0.066,0.041l-0.084,0.004l-0.083,-0.08l-0.069,0.003l-0.046,0.101l-0.027,0.097h-0.045l-0.049,-0.038l0.014,0.049l0.045,0.031l0.062,-0.007l0.028,-0.052l0.025,-0.09l0.031,-0.035h0.031l0.056,0.066l0.076,0.017l0.139,-0.055l0.028,-0.094l0.031,-0.115l0.055,-0.073l0.025,-0.003l0.038,0.055l-0.028,0.198l0.049,0.084l0.059,0.028h0.17l0.142,-0.08l0.16,-0.011l0.097,-0.045l0.167,-0.003l0.173,0.066v0.034l-0.08,0.105l-0.031,0.09v0.056l0.073,0.114l0.156,0.094l0.194,0.028l0.087,0.035l0.129,0.027l0.145,0.087l0.094,0.014l0.045,0.049l0.002,0.135l-0.042,0.105l-0.099,0.059l-0.065,0.017l-0.021,0.042l-0.007,0.16l0.041,0.038v0.049l-0.052,0.083l-0.111,0.007l-0.059,0.042l-0.059,-0.025l-0.028,-0.08l-0.052,-0.017l-0.059,0.003l-0.104,-0.038l-0.097,0.004l-0.003,0.027l0.104,0.028l0.076,0.028l0.087,-0.003l0.01,0.027l-0.007,0.042l0.084,0.115l0.048,0.01l0.042,-0.017l0.132,0.01l0.059,0.052l0.052,0.007l0.045,-0.034l0.076,0.006l0.082,0.09l0.018,0.044l-0.015,0.058l0.013,0.033l0.07,0.037l0.002,0.047l-0.106,0.036l-0.047,0.084l0.015,0.034l0.063,-0.003l0.159,-0.044l0.166,0.005l0.039,0.047l0.079,0.01l0.091,-0.034l0.067,0.008l0.021,0.073l-0.028,0.058l-0.055,0.026l-0.081,0.086l-0.047,-0.006l-0.067,-0.091h-0.118l-0.091,0.05l-0.06,0.091l-0.104,0.036l0.003,0.032l0.107,0.023l0.101,0.044l0.086,-0.005l0.159,-0.039l0.031,-0.049l0.096,-0.055l0.131,-0.003l0.088,-0.026l0.031,0.024l-0.026,0.036l0.013,0.029l0.076,0.026l0.005,0.039l-0.297,0.049l-0.25,0.071l-0.015,0.021l0.38,0.054l0.25,0.008l0.031,0.032l-0.042,0.057l-0.114,0.008l-0.13,0.143l-0.104,0.01l-0.089,-0.062l-0.023,0.002l0.058,0.098l0.086,0.062l0.157,0.021l0.253,0.084l0.049,0.045l0.139,0.061l0.036,0.119l-0.031,0.146l0.041,0.188l0.354,0.292l0.235,0.328l0.125,0.037l0.041,0.031l0.047,0.146l0.005,0.104l0.052,0.026l0.037,-0.041l0.068,0.005l0.125,0.245l0.005,0.13l-0.281,0.271h-0.115l-0.193,0.052l-0.031,0.073l0.11,0.104l-0.006,0.084l-0.234,0.078l-0.031,0.052l0.047,0.047l0.02,0.052l-0.01,0.016l-0.12,0.036l-0.099,-0.021l-0.213,0.042l-0.026,0.042l0.219,0.005l0.135,0.172l0.026,0.188l-0.063,0.073l-0.005,0.041l0.094,0.053l0.073,0.184l0.184,0.104l0.128,0.007l0.17,0.01l0.063,0.035l0.031,0.101l-0.031,0.048l-0.007,0.032l0.094,0.09l0.18,0.24l0.118,0.045l0.142,0.076l0.181,0.174l0.361,0.15l0.187,0.066l0.098,0.08l0.003,0.099l0.071,0.107l0.026,0.094l0.111,0.061l0.169,0.05l0.019,0.025l0.031,-0.002l0.073,-0.024l0.083,0.02l0.392,0.331l0.094,0.027l0.233,0.219l0.014,0.089l-0.032,0.062l-0.052,0.011v0.029l0.087,0.011l0.049,0.038l0.014,0.066l0.135,0.07l0.045,0.073l0.009,0.13l0.057,0.015l0.078,-0.067l0.198,0.005l0.167,0.062l0.067,0.084l-0.021,0.161l-0.145,0.204l-0.125,0.088l-0.042,0.073l-0.073,0.037l-0.062,0.005l-0.11,0.109l-0.031,0.079l-0.13,0.07l-0.17,-0.03l-0.212,-0.132l-0.108,-0.021l-0.131,0.055l-0.115,0.105l-0.194,-0.004l-0.327,-0.101l-0.104,0.007l-0.125,0.094l-0.08,0.017l-0.079,-0.02l-0.028,-0.084l-0.097,-0.055l-0.4,-0.059l-0.541,-0.146l-0.031,-0.049l0.014,-0.063l-0.018,-0.034l-0.135,-0.049l-0.063,-0.08l-0.003,-0.146l-0.066,-0.163l-0.132,-0.108l-0.153,-0.09l-0.027,0.007l0.01,0.087l0.087,0.09l0.107,0.052l0.087,0.101l0.019,0.134l-0.029,0.085l0.021,0.121l0.076,0.157l0.042,0.024l0.076,0.191l-0.014,0.073l0.004,0.056l0.017,0.041l-0.011,0.046l-0.076,0.02l-0.114,-0.013l-0.059,-0.046l-0.053,-0.031l-0.072,-0.028l-0.028,-0.031l-0.007,-0.052l-0.056,-0.028l-0.076,0.011l-0.028,0.034v0.045l-0.024,0.007l-0.042,-0.017l-0.08,0.01l-0.239,0.133l-0.083,0.076l-0.052,0.108l-0.073,0.08l-0.021,0.083l0.024,0.174l-0.028,0.038l-0.079,0.014l-0.066,0.069l-0.125,0.317l-0.108,0.107l-0.014,0.084l0.021,0.1l-0.017,0.066l-0.063,0.032l-0.048,0.007l-0.014,-0.028h-0.025l-0.01,0.031l0.021,0.042l-0.011,0.055l-0.055,0.188l-0.052,0.031l-0.028,0.07l0.014,0.038l-0.042,0.167l0.035,0.059l-0.014,0.049l-0.056,0.014l-0.01,0.024l0.028,0.021l-0.021,0.031l-0.042,0.01l-0.045,0.073v0.039l0.104,0.083v0.028l-0.104,0.041l-0.022,0.035l-0.014,0.184l0.022,0.014l0.077,-0.028l0.034,0.018l-0.003,0.024l-0.035,0.007l-0.048,0.031v0.035l0.027,0.007l0.028,-0.017h0.031l0.021,0.038l-0.038,0.052l0.004,0.045l0.034,0.066l-0.017,0.08l-0.125,0.111l-0.021,0.053l-0.01,0.097l-0.108,0.288l-0.073,0.091l-0.014,0.149l0.097,0.174l0.025,0.066v0.101l0.028,0.003l0.062,-0.063l0.049,0.018l0.003,0.083l-0.128,0.264l-0.021,0.143l-0.139,0.253l-0.01,0.07l-0.143,0.094l-0.104,0.003l-0.083,-0.038l-0.129,0.021l-0.197,-0.011l-0.195,-0.093l-0.087,-0.081l0.008,0.037l0.09,0.11l0.166,0.069l0.122,0.007l0.114,0.094l0.042,0.233l-0.052,0.194l-0.024,0.244l-0.053,0.038l-0.072,-0.004l-0.011,0.028l0.021,0.049l-0.017,0.274l0.017,0.049l-0.045,0.038h-0.111l-0.143,0.108l-0.059,0.114l-0.125,0.133l-0.081,0.176l-0.17,0.203l-0.079,0.044l-0.055,0.088l-0.007,0.088l-0.04,0.079l-0.068,0.041l-0.169,0.139l-0.164,0.086l-0.188,0.032l-0.124,0.003l-0.013,-0.021l0.023,-0.053l0.006,-0.147l-0.018,-0.041l-0.023,-0.008l-0.031,0.025l-0.041,-0.005l-0.016,-0.034l0.014,-0.045l-0.012,-0.131l-0.049,-0.087l-0.12,-0.094l-0.023,-0.041l0.031,-0.108l0.004,-0.078l0.057,-0.067l0.004,-0.057l-0.016,-0.008l-0.035,0.028l-0.041,0.065l-0.012,0.111l-0.047,0.104l-0.043,0.022l-0.014,0.049l0.03,0.069l0.141,0.111l0.054,0.075l0.002,0.045l-0.064,0.049l-0.084,0.016v0.023l0.08,0.008l0.11,0.069l0.013,0.055l-0.057,0.141l-0.003,0.125l0.013,0.067l-0.017,0.076l-0.038,0.036l-0.111,0.013l-0.363,0.108l-0.213,0.13l-0.077,0.097l-0.013,0.112l0.07,0.136l0.026,0.155l-0.013,0.039l-0.054,0.036l-0.032,0.045l-0.167,0.081l-0.138,0.008l-0.11,0.049l-0.068,0.061l-0.086,0.044l-0.105,0.005l-0.101,0.042l-0.029,0.047l-0.052,0.045l-0.05,0.007l-0.026,0.029l-0.029,0.073l-0.073,0.079l-0.094,0.008l-0.065,-0.013l-0.092,0.01l-0.039,0.039l0.003,0.026l0.039,-0.031l0.063,-0.013l0.054,0.034l0.136,0.055l0.089,-0.003l0.219,-0.112l0.139,-0.045l0.217,0.003l0.06,0.034l0.002,0.165l-0.078,0.12l-0.003,0.047l0.045,0.037l0.041,0.088l0.024,0.134l-0.013,0.089l0.018,0.319l-0.021,0.062l-0.083,0.055l-0.097,0.008l-0.123,0.058l-0.122,0.115l-0.076,0.026l-0.005,0.021h0.068l0.112,-0.068l0.068,0.002l0.12,0.053h0.11l0.125,-0.032l0.06,-0.039l0.039,-0.003l0.055,0.118l-0.021,0.06l0.011,0.021l0.112,0.016l0.013,0.031l-0.05,0.087l0.006,0.026l0.052,-0.011l0.078,-0.076l0.013,-0.065h0.026l0.037,0.11l-0.065,0.353l-0.003,0.128l-0.094,0.355l-0.021,0.136l-0.078,0.136l-0.011,0.079l0.021,0.096l-0.063,0.055l-0.083,0.029l-0.039,-0.026l-0.008,-0.149l-0.102,-0.068l-0.094,0.008l-0.068,0.078l-0.044,0.008l-0.029,-0.018l-0.12,0.002l-0.047,0.034l-0.042,0.003l-0.026,-0.018l-0.086,-0.013l-0.013,0.021l0.06,0.02l0.044,0.082l-0.012,0.103l0.024,0.002l0.056,-0.09l0.068,-0.013l0.11,0.073l0.065,0.006l0.016,0.026l-0.128,0.18l-0.063,0.262l0.003,0.269l0.047,0.089v0.052l-0.047,0.154l0.018,0.068l-0.011,0.039l-0.101,0.058l-0.076,0.165l-0.12,0.154l-0.076,0.057l-0.133,0.003l-0.05,-0.023l-0.034,-0.183l-0.026,-0.016l-0.042,0.023l-0.122,-0.055l-0.024,-0.052l0.029,-0.107l-0.013,-0.152l-0.06,-0.117l-0.081,-0.026l-0.016,0.018l0.044,0.042l0.042,0.089l-0.021,0.143l-0.081,0.092l-0.007,0.094l0.049,0.047l0.003,0.047l-0.099,0.079l-0.003,0.031l0.086,-0.005l0.081,-0.047l0.105,0.036l0.057,0.047v0.126l0.052,0.104l0.178,0.102l0.125,0.089l-0.005,0.029l-0.157,-0.011l-0.104,0.019l-0.068,0.097l-0.042,0.007l-0.12,-0.06l-0.136,-0.005l-0.076,0.06l-0.002,0.042l0.057,-0.05l0.126,-0.01l0.125,0.065l0.065,0.225l-0.028,0.078l-0.144,0.079l-0.118,0.021l-0.073,0.036l-0.107,0.168l-0.073,0.243l-0.055,0.026l-0.047,0.084l-0.005,0.094l0.031,0.104l-0.01,0.042l-0.042,0.026l-0.031,0.068l-0.003,0.157l-0.052,0.136l-0.063,0.052l-0.222,0.019l-0.253,0.057l-0.131,0.092l-0.031,0.062l-0.039,0.048l-0.157,0.078l-0.091,0.089l-0.055,0.021l-0.136,0.021l-0.191,0.091l-0.062,0.011l-0.348,0.143l-0.094,0.024l-0.295,0.152l-0.446,0.162l-0.387,0.175l-0.488,0.185l-0.368,0.207l-0.235,0.102l-0.33,0.167l-0.101,0.073l-0.191,0.097l-0.17,0.029l-0.138,-0.024l-0.016,-0.026l0.018,-0.047l0.003,-0.313l0.024,-0.066l0.007,-0.131l-0.101,-0.423v-0.12l-0.027,-0.1l0.006,-0.274l0.041,-0.11l0.016,-0.183l-0.016,-0.141l-0.142,-0.263l-0.117,-0.092l-0.077,-0.022l-0.047,-0.039v-0.041l0.026,-0.049l0.002,-0.094l-0.01,-0.035l0.002,-0.044l0.021,-0.051l0.002,-0.098l-0.025,-0.072l0.008,-0.086l0.088,-0.132l0.074,-0.065l0.024,-0.107l-0.024,-0.173l-0.037,-0.057l0.01,-0.055l0.066,-0.084l-0.017,-0.053l-0.008,0.043l-0.069,0.079l-0.019,0.066l0.027,0.045l0.028,0.173l-0.022,0.104l-0.053,0.041l-0.131,0.143l-0.027,0.128l0.023,0.082l0.004,0.08l-0.045,0.138l-0.031,0.047l-0.069,0.015l-0.084,-0.019l-0.318,-0.163l-0.062,-0.01l-0.198,-0.123l-0.114,-0.098l-0.004,-0.038l0.032,-0.035l0.01,-0.067l0.029,-0.033l0.063,-0.029l0.06,-0.108l0.012,-0.09l0.082,-0.108l0.087,-0.077l0.013,-0.047l0.03,-0.062l-0.061,-0.281l-0.002,-0.096l0.049,-0.133l0.104,-0.143l0.002,-0.036l-0.126,0.155l-0.07,0.145l-0.008,0.085l0.063,0.309l-0.008,0.049l-0.077,0.061l-0.107,0.159l-0.008,0.069l-0.051,0.106l-0.049,0.019l-0.063,0.051l-0.045,0.077l-0.205,0.078h-0.087l-0.221,-0.088l-0.117,-0.126l0.002,-0.039l0.113,-0.104l0.031,-0.078v-0.161l0.038,-0.075l0.004,-0.084l0.017,-0.067l0.157,-0.196l-0.012,-0.006l-0.086,0.067l-0.11,0.155l-0.011,0.137l-0.036,0.061v0.179l-0.015,0.045l-0.061,0.017l-0.069,0.049l-0.039,0.112l-0.072,0.069l-0.161,0.006l-0.145,0.049l-0.392,0.258l-0.246,0.087l-0.408,0.018l-0.137,-0.014l-0.174,-0.058l-0.011,-0.029l0.093,-0.151l0.01,-0.053l0.068,-0.205l0.01,-0.208l-0.041,-0.222l-0.051,-0.125l-0.008,-0.051l-0.019,-0.022l-0.024,0.002l-0.111,-0.018l-0.208,0.022l-0.172,0.063l-0.067,0.086l-0.008,0.074l-0.037,0.051l-0.12,0.032l-0.062,0.033l-0.028,0.035l-0.054,0.022l-0.093,-0.018l-0.074,-0.074l-0.061,-0.104l-0.186,-0.202l-0.106,-0.078l-0.068,-0.087l-0.008,-0.055l-0.031,-0.051l-0.057,-0.039l-0.351,-0.165l-0.062,-0.074l-0.008,-0.065l-0.094,-0.235l-0.115,-0.193l-0.094,-0.204l-0.125,-0.149l-0.108,-0.102l-0.01,0.021l0.034,0.073l0.073,0.06l0.084,0.104l0.023,0.076l0.199,0.319l0.026,0.173l-0.026,0.07l-0.016,0.076l-0.042,0.063l-0.086,0.052l-0.157,0.199l0.006,0.07l0.078,0.079l0.078,0.037l0.068,0.005l0.011,0.018l-0.215,0.22l-0.316,0.201l-0.397,0.196l-0.305,0.16l-0.136,0.122l-0.081,0.021l-0.183,0.084l-0.023,0.026h-0.065l-0.178,-0.084l-0.05,-0.01l-0.039,-0.026l-0.115,-0.144l-0.128,-0.089l-0.279,-0.107l-0.131,-0.016l-0.172,0.013l-0.243,0.1l-0.279,0.175l-0.275,0.201l-0.227,0.188l-0.201,0.194l-0.11,0.052l-0.115,0.005l-0.146,-0.028l-0.146,-0.079l-0.016,-0.039l0.042,-0.105l0.055,-0.062l0.039,-0.1l0.044,-0.214l-0.007,-0.377l-0.063,-0.269v-0.104l0.026,-0.105l0.008,-0.11l0.065,-0.219l0.005,-0.136l-0.104,-0.212l-0.071,-0.06l-0.07,-0.107l-0.068,-0.181l-0.065,-0.049l-0.005,-0.045l0.047,-0.068l-0.011,-0.055l-0.099,-0.072l-0.029,-0.059l0.008,-0.042l0.101,-0.144l0.221,-0.131l0.08,-0.122l0.002,-0.048l-0.024,-0.09l0.009,-0.054l0.069,-0.12l0.003,-0.073l-0.009,-0.042l0.031,-0.033l-0.009,-0.012l-0.054,0.007l-0.027,0.022v0.028l0.02,0.027l-0.012,0.088l-0.067,0.098l0.003,0.133l0.014,0.046l-0.005,0.047l-0.051,0.077l-0.214,0.12l-0.127,0.19l-0.006,0.069l0.034,0.064l0.044,0.054l-0.005,0.051l-0.112,0.09l-0.037,0.048l-0.003,0.068l0.047,0.047l0.04,0.005l0.015,0.021l-0.039,0.079l-0.065,0.002l-0.136,0.053l-0.12,0.104l-0.06,0.016l-0.079,0.044l-0.049,0.055l-0.024,-0.002l-0.041,-0.094l-0.165,-0.176l-0.125,-0.088h-0.084l-0.01,-0.024l0.031,-0.042l0.013,-0.081l-0.018,-0.002l-0.149,0.141l-0.058,0.005l-0.057,-0.024l-0.131,0.011l-0.326,0.159l-0.34,0.204l-0.587,0.196l-0.144,-0.015l-0.164,-0.071l-0.154,-0.133l-0.183,-0.1l-0.147,-0.021l-0.159,0.034l-0.044,0.05l-0.207,0.115l-0.101,0.026l-0.05,-0.026l-0.023,-0.07l-0.032,-0.081l0.016,-0.019l0.052,0.016l0.018,-0.011l-0.023,-0.039v-0.047l0.013,-0.073l-0.058,-0.193l-0.083,-0.121l-0.119,-0.065h-0.102l-0.135,0.049l-0.286,0.149l-0.206,0.139l-0.221,0.21l-0.041,0.004l-0.08,-0.059l-0.053,-0.01l-0.037,-0.037l-0.02,-0.116l-0.09,-0.141v-0.031l0.092,-0.12l0.035,-0.135l0.002,-0.135l-0.027,-0.053l-0.118,-0.073l-0.006,-0.031l0.028,-0.038v-0.111l-0.03,-0.047l-0.025,-0.12l-0.135,-0.065l-0.051,0.012l-0.032,-0.008l-0.015,-0.037l0.01,-0.039l0.103,-0.069l0.04,-0.096l0.027,-0.145l0.025,-0.002l0.073,0.053l0.051,0.055l0.086,0.006l0.055,-0.039l0.023,-0.089l0.022,-0.013l0.039,0.009l-0.044,-0.059l-0.026,0.011l-0.073,0.139l-0.063,0.001l-0.041,-0.043l-0.107,-0.066l-0.053,-0.063l-0.008,-0.131l-0.022,-0.061l-0.072,-0.053l-0.026,-0.055l0.002,-0.098l-0.035,-0.267l-0.082,-0.194l-0.112,-0.104l-0.027,-0.002l-0.016,0.022l-0.07,0.012l-0.012,-0.016l0.027,-0.037l0.041,-0.01l0.026,-0.024l0.016,-0.086l-0.02,-0.041l0.006,-0.047l0.068,-0.086l0.018,-0.122l0.027,-0.1l-0.013,-0.275l-0.073,-0.215l-0.123,-0.147l-0.198,-0.077l-0.135,-0.104l-0.161,-0.07l-0.053,-0.039l-0.023,-0.067l0.016,-0.012l0.06,0.026l0.022,-0.006l-0.016,-0.043l-0.043,-0.034l-0.025,-0.047l0.009,-0.078l0.02,-0.024l0.074,0.006l0.038,-0.033l0.054,-0.014l0.087,-0.074l0.041,-0.079l0.084,-0.08l0.067,-0.153l0.019,-0.324l-0.014,-0.114l0.012,-0.125l0.071,-0.108l0.013,-0.072l-0.013,-0.061l0.004,-0.039l0.047,-0.044l0.007,-0.088l-0.058,-0.192l-0.1,-0.151l-0.145,-0.09l-0.098,0.014l-0.02,-0.016l0.004,-0.028l-0.015,-0.023l-0.049,-0.012l-0.01,-0.025l0.016,-0.038l-0.012,-0.041l-0.059,-0.049l-0.035,0.006l-0.03,-0.018l-0.011,-0.052l0.043,-0.048l0.07,-0.192l-0.019,-0.043l-0.279,-0.114l-0.109,0.004l-0.047,-0.027l-0.071,-0.141l-0.066,-0.008l-0.043,-0.043v-0.102l-0.055,-0.059l-0.047,0.004l-0.036,-0.031l-0.007,-0.204l0.007,-0.04l0.04,-0.011l0.047,-0.04l-0.079,-0.003l-0.048,0.03l-0.012,0.049l0.009,0.128l-0.023,0.067l-0.063,0.027l-0.035,0.071l-0.051,0.008l-0.094,-0.035l-0.016,-0.051l-0.043,-0.024l-0.043,0.004l-0.043,-0.027l-0.043,-0.181l-0.042,-0.06l-0.068,-0.008l-0.066,-0.053l-0.345,-0.075l-0.059,-0.035h-0.062l-0.028,0.051l0.035,0.094l-0.058,0.118l-0.055,0.023l-0.114,-0.039l-0.129,-0.012l-0.208,-0.141l-0.133,-0.22l-0.02,-0.168l0.04,-0.42l0.047,-0.012l0.141,0.145l0.243,0.059l0.07,-0.023l0.082,0.004l0.184,0.145l0.083,0.019l0.156,-0.043l0.126,0.02l0.062,0.039l-0.039,-0.086l-0.149,-0.032l-0.199,0.024l-0.059,-0.051l0.016,-0.055l-0.145,-0.098l-0.161,-0.02l-0.067,-0.062v-0.118l0.055,-0.035l0.086,0.035l0.036,-0.008l-0.079,-0.11l-0.082,-0.023l-0.211,0.07l-0.173,-0.004l-0.086,-0.043l-0.012,-0.078l-0.059,-0.047l-0.054,-0.004l-0.075,0.051l-0.102,-0.012l-0.086,-0.118l-0.047,-0.141l0.008,-0.204l-0.034,-0.187l-0.029,-0.054v-0.121l0.026,-0.01l0.092,0.057l0.115,0.019l-0.029,-0.034l-0.141,-0.071l-0.018,-0.097l-0.073,-0.128l0.007,-0.036l0.042,-0.011l0.037,-0.031l-0.11,0.018l-0.026,0.047l0.039,0.102l-0.021,0.008l-0.115,-0.136l-0.013,-0.091l0.039,-0.068l0.16,-0.087l0.094,-0.005l0.086,0.026l0.12,0.005l0.107,0.071l0.042,0.058l0.044,0.018l-0.062,-0.092l-0.055,-0.031l-0.063,-0.063l0.005,-0.128l0.006,-0.165l-0.042,-0.201l-0.073,-0.078l-0.008,-0.058l0.03,-0.077l0.019,-0.153l0.045,-0.06l0.061,0.004l0.161,0.116l0.213,0.064l0.072,-0.002l-0.236,-0.093l-0.069,-0.024l-0.219,-0.158l-0.077,-0.141l-0.075,-0.084l-0.013,-0.132l-0.043,-0.143l-0.073,-0.096l-0.139,-0.135l-0.227,-0.108l-0.129,-0.039l-0.079,0.006l-0.123,-0.047l-0.006,-0.046l0.049,-0.062l0.051,-0.092l0.002,-0.204l-0.043,-0.102l-0.084,-0.104l-0.004,-0.139l0.062,-0.136l0.004,-0.198l-0.039,-0.174l-0.072,-0.122l-0.077,-0.063l-0.014,-0.055l0.034,-0.074l-0.024,-0.112l-0.062,-0.035l-0.036,-0.065l0.006,-0.047l0.135,-0.112l0.019,-0.053l0.034,-0.018l0.081,0.003l0.13,-0.141l0.084,-0.189l0.01,-0.183l-0.039,-0.138l-0.115,-0.196v-0.047l-0.016,-0.034l-0.057,-0.029l-0.058,-0.16l0.024,-0.034l0.102,0.032l0.073,0.002l0.123,-0.099h0.219l0.12,-0.013l0.097,-0.081l0.117,-0.052l0.05,-0.042l0.05,-0.105l0.049,-0.086l0.146,-0.18l0.066,-0.131l0.055,-0.029l-0.016,-0.013l-0.065,0.031l-0.225,0.306l-0.089,0.181l-0.034,0.034l-0.128,0.039l-0.132,0.095l-0.036,0.003l-0.114,-0.026l-0.155,0.009l-0.054,0.055h-0.018l-0.009,-0.041l0.004,-0.036l0.076,-0.117l0.017,-0.074l0.019,-0.029l0.046,-0.03l0.11,-0.137l0.065,-0.154l0.006,-0.136l-0.041,-0.148l0.009,-0.162l0.035,-0.106l0.131,-0.143l0.169,-0.13l0.258,-0.126l0.135,-0.111l0.122,-0.135l0.052,-0.117l0.01,-0.092l0.077,-0.189l0.093,-0.088l0.042,-0.07l0.007,-0.156l-0.05,-0.128l0.004,-0.056l0.052,-0.049l0.264,-0.01l0.088,-0.021l0.067,-0.08l0.129,-0.046l0.138,-0.008l0.098,0.01l0.085,-0.004l0.028,-0.018l0.072,-0.156l0.104,-0.153l0.013,-0.001l-0.041,0.097v0.062l0.026,0.016l-0.005,0.029l-0.037,0.044l-0.016,0.097l-0.062,0.023l-0.071,-0.007l-0.094,0.023l-0.016,0.047l0.027,0.068l-0.029,0.047l-0.055,0.011l-0.005,0.041l0.028,0.045l0.019,0.165l0.036,0.047l0.053,0.013l0.028,0.078l-0.01,0.06l0.018,0.04l0.188,-0.034l0.039,0.018l0.06,0.002l0.074,0.045l0.002,0.057l-0.055,0.129l-0.008,0.128l-0.023,0.028l-0.005,0.068l0.026,0.063l0.005,0.034l-0.031,0.047l0.018,0.068l0.071,0.018l0.023,0.027l0.012,0.055l0.021,0.014l0.032,-0.004l0.025,0.027l0.03,0.065l0.097,0.084l0.051,0.004l0.03,0.032l0.023,0.088l0.02,0.004l0.017,-0.018l0.03,0.006l0.033,0.071l-0.016,0.029l0.016,0.051l0.035,0.004l0.049,-0.029l0.028,-0.042l0.021,0.006l-0.007,0.055l-0.022,0.039v0.032l0.018,0.025l-0.008,0.055l0.019,0.022l0.041,-0.008l0.142,0.018l0.045,0.009l0.092,-0.031l0.033,0.008l0.059,0.057l0.041,0.013l0.039,0.061l-0.041,0.081l0.002,0.031l0.035,0.047l0.027,0.151l0.038,0.027l0.076,0.004l0.155,0.094l0.029,-0.001l0.026,0.017l0.006,0.132l-0.026,0.033l0.014,0.027l0.064,-0.008l0.036,0.014l0.041,0.049l0.104,0.008l0.103,-0.012l0.089,0.053l0.049,0.008l0.08,0.118l-0.002,0.035l-0.026,0.027l0.012,0.065l0.047,0.01l0.03,-0.026l0.031,0.004l0.031,0.046l0.006,0.088l0.047,0.029l0.006,0.037l-0.014,0.024l0.018,0.023l0.057,0.006l0.017,0.028l-0.025,0.041l0.008,0.065l-0.018,0.062l0.02,0.014l0.074,-0.01l0.024,-0.025l0.027,0.002l0.022,0.033h0.017l0.041,-0.061l0.02,0.004l0.014,0.069l0.056,0.018l0.053,-0.028l0.071,-0.002l0.035,0.037l0.016,0.077l-0.01,0.037l0.014,0.016l0.103,0.014l0.01,0.025l-0.019,0.039l0.043,0.067l0.037,0.004l0.033,0.023l0.016,0.034l0.037,0.008l0.014,0.035l0.045,0.021l0.186,0.024l0.039,0.031h0.043l0.024,0.02l0.025,-0.002l0.026,-0.016l0.045,-0.01l0.004,-0.027l0.027,-0.006l0.043,0.02l0.049,-0.034l0.018,-0.068l0.029,-0.012l0.03,0.016l0.013,0.049l0.077,0.006l0.019,0.025l0.051,-0.004l0.02,-0.059l0.057,-0.066h0.076l0.067,0.033l0.037,-0.039l-0.012,-0.059l0.025,-0.026h0.038l0.017,0.065l0.03,-0.002l0.047,0.045l0.033,-0.019l0.006,-0.053l-0.033,-0.067l0.015,-0.035l0.061,-0.018l0.078,-0.006l0.036,0.02l0.017,-0.002l0.01,-0.049l0.094,-0.079l0.018,-0.084l0.047,-0.08l0.053,-0.004l0.043,0.019l0.229,-0.011l0.051,-0.024l0.109,-0.006l0.104,-0.051l0.067,-0.006l0.027,0.022l0.041,-0.004l0.047,-0.02h0.139l0.059,-0.035l0.106,-0.008l0.116,-0.078l0.039,0.006l0.043,0.033l0.01,0.051l0.017,0.004l0.032,-0.031l0.043,0.006l0.062,0.045l0.134,0.047l0.084,0.009l0.135,0.097l0.086,0.019l0.122,-0.016l0.072,-0.08l0.086,-0.01l0.073,0.057l0.031,0.081l0.012,0.135l0.033,0.037l0.052,-0.003l0.031,-0.077l0.048,-0.021l0.063,-0.003l0.069,-0.087l0.143,-0.055l0.038,-0.056l0.069,-0.01l0.125,0.062l0.042,0.052l0.125,0.007l0.059,-0.042l0.038,0.014l0.014,0.063l0.042,0.017l0.038,-0.024l0.045,0.007l0.024,0.049l0.045,-0.007l0.122,-0.073l0.052,-0.098l0.007,-0.104l0.045,-0.052l0.069,-0.021l0.094,-0.087l0.011,-0.062l0.069,-0.025h0.118l0.028,-0.031h0.038l0.055,0.028l0.115,-0.021l0.264,0.01l0.062,-0.024l0.021,-0.08l-0.035,-0.045l0.004,-0.035l0.059,-0.031l0.035,-0.08l-0.025,-0.076l0.018,-0.035l0.038,-0.014l0.014,-0.045l-0.011,-0.087l0.039,-0.08l0.083,-0.038l0.059,-0.101l0.021,-0.104l0.027,-0.052l-0.01,-0.045l-0.101,-0.032l-0.01,-0.035l0.021,-0.031v-0.073l0.069,-0.055l0.142,-0.007l0.105,-0.07l0.093,-0.094l0.045,-0.017l0.101,0.003l0.236,-0.076l0.063,0.004l0.024,-0.035l-0.007,-0.038l0.031,-0.042l0.066,-0.014l0.077,-0.063l0.118,-0.003l0.107,0.024h0.198l0.108,0.032l0.062,-0.025l0.045,0.011l0.049,0.048h0.073l0.104,-0.045l0.059,0.004l0.028,0.031l0.045,0.003l0.034,-0.017l0.105,0.021l0.024,0.041l0.059,0.021l0.09,-0.01l0.097,-0.083l0.042,-0.073l0.08,-0.014l0.062,0.02l0.042,0.042l0.177,0.021l0.049,-0.042l0.038,-0.003l0.041,0.031l0.112,0.021l0.076,0.035l0.031,0.062l-0.021,0.039l-0.048,0.013l-0.032,0.056l0.018,0.031l-0.014,0.025l-0.042,-0.007l-0.017,0.024l0.024,0.035l-0.041,0.052l-0.15,0.052l-0.027,0.063l-0.007,0.076l0.024,0.028h0.135l0.097,-0.059l0.087,-0.011l0.084,-0.031l0.02,-0.038l0.046,-0.007l0.069,0.083l0.069,0.125l0.08,0.011l0.07,0.028l0.114,-0.014l0.028,-0.035l0.062,-0.004l0.039,0.035l0.118,0.011l0.076,0.027l0.101,0.011l0.114,0.059l0.035,0.042l-0.004,0.059l0.035,0.027h0.066l0.066,0.056l0.035,0.063h0.104l0.052,-0.063l0.069,-0.003l0.084,-0.042l0.121,-0.017l0.07,0.017l0.09,0.052l0.055,0.101v0.048l0.032,0.028l0.069,0.004l0.017,0.041l-0.031,0.042l0.021,0.042h0.125l0.045,-0.052l0.063,-0.032l0.062,-0.083l0.163,-0.038l0.198,-0.101l0.097,-0.111v-0.087l-0.055,-0.031l0.021,-0.035l0.107,-0.045l0.08,-0.011l0.142,-0.08l0.066,-0.003l0.042,-0.031l0.045,-0.08l0.083,-0.028l0.091,0.014l0.166,-0.028l0.042,-0.028l0.146,-0.014l0.045,0.028l0.052,-0.007l0.017,-0.031l0.063,0.007l0.055,0.045l0.007,0.042l0.031,0.021l0.042,-0.004l0.104,0.063v0.038l0.038,0.003l0.039,-0.038l0.034,-0.094l0.059,-0.034l0.08,0.01l0.087,-0.024l0.041,-0.056l0.094,-0.045l0.153,-0.028l0.035,-0.035l0.003,-0.041l0.052,-0.035l0.066,0.024l0.215,0.15l0.091,0.01l0.059,0.045l0.034,0.066l0.091,0.028l0.125,-0.035l0.041,-0.135l0.045,-0.028l0.032,-0.09l-0.049,-0.073l0.024,-0.039l-0.01,-0.059l0.01,-0.034l0.042,-0.011l0.059,-0.045l0.066,-0.003l0.094,-0.07l0.038,-0.073l0.059,-0.024l0.024,-0.125l-0.003,-0.115l0.031,-0.049v-0.048l-0.031,-0.049l0.003,-0.156l-0.052,-0.07l-0.003,-0.045l0.045,-0.021l0.059,-0.059l-0.007,-0.08l0.038,-0.031l0.062,-0.007l0.091,0.066l0.079,0.007l0.004,-0.038l0.059,-0.049l0.014,-0.056l0.038,-0.031l0.083,0.007l0.08,-0.042l0.038,-0.076l-0.09,-0.056l-0.01,-0.1l0.062,-0.066l0.021,-0.084l0.049,-0.052l-0.007,-0.069l-0.094,-0.018l-0.104,0.063h-0.087l-0.045,-0.063v-0.052l0.048,-0.003l0.014,-0.042l-0.052,-0.038l0.004,-0.035l0.041,-0.014l0.022,-0.063v-0.063l-0.078,-0.049l-0.128,-0.003l-0.07,0.026l-0.041,-0.016l0.013,-0.148l0.023,-0.055l0.104,-0.005l0.05,-0.021l0.015,-0.069l0.038,-0.055v-0.066l0.052,-0.025l0.042,0.039l0.08,-0.004l0.09,-0.045l0.141,0.032l0.044,-0.015l0.06,-0.081l0.064,0.005l0.038,-0.024l0.011,-0.035l-0.063,-0.049l-0.01,-0.118l0.041,-0.08l0.049,-0.014l0.066,0.049l0.052,-0.031l0.059,-0.011l0.031,-0.024l0.035,-0.066l0.069,-0.059l0.125,0.007l0.028,-0.025l0.004,-0.059l0.041,-0.059l0.007,-0.041l0.018,-0.025h0.048l0.045,-0.069l0.146,-0.018l0.066,0.039l0.031,-0.004l0.014,-0.031l0.132,-0.087l-0.003,-0.056l0.027,-0.069l-0.027,-0.014l-0.045,0.021l-0.053,-0.031l-0.007,-0.073l-0.107,-0.139l-0.07,-0.042l-0.104,0.038l-0.038,0.052l-0.069,0.011l-0.087,-0.101l0.01,-0.042l0.049,-0.017l0.038,-0.09l-0.024,-0.136l-0.045,-0.031l0.003,-0.07l0.146,-0.101l0.021,-0.045l-0.014,-0.024l0.003,-0.052l0.035,-0.028l0.004,-0.042l-0.042,-0.041l-0.076,0.003l-0.094,-0.055l0.021,-0.035l0.076,-0.025l0.111,-0.135l0.004,-0.115l0.045,-0.083l0.086,-0.028l0.08,-0.073l0.139,-0.052l0.028,-0.108l0.087,-0.097l0.01,-0.073l0.038,-0.017l0.032,0.013l0.031,0.08l0.052,0.035l0.021,0.129l0.062,0.01l0.063,-0.028l0.145,0.014l0.08,-0.118l0.052,-0.024l0.028,-0.053l0.082,-0.003l0.029,0.021l0.055,0.004l0.032,-0.05l0.032,-0.014l0.043,-0.08l-0.017,-0.115l0.015,-0.077l0.043,-0.033l0.027,-0.085l0.057,-0.001l0.044,-0.027l0.011,-0.041l-0.017,-0.046l-0.105,-0.037l-0.044,-0.031l-0.012,-0.099l0.011,-0.027l0.049,-0.009v-0.031l-0.031,-0.028l0.018,-0.13l0.03,-0.025l0.002,-0.019l-0.029,-0.025l0.004,-0.075l0.063,-0.032l0.002,-0.016l-0.012,-0.036l0.003,-0.106l0.039,-0.041l0.004,-0.053l0.072,-0.097l0.006,-0.058l0.023,-0.045h0.031l0.009,0.02l0.016,0.002l0.015,-0.019h0.021l0.042,0.129l0.022,0.013l0.051,-0.03l0.008,-0.034l0.042,-0.038l0.002,-0.02l-0.06,-0.051l-0.043,-0.116l-0.057,-0.087v-0.155l-0.034,-0.093l-0.035,0.008l-0.017,-0.011v-0.024l-0.032,-0.038l-0.009,-0.113l0.012,-0.022v-0.023l-0.03,-0.042l0.004,-0.121l0.032,-0.043l0.006,-0.039l-0.029,-0.059l0.007,-0.025l0.002,-0.081l0.031,-0.031l0.011,-0.04l-0.009,-0.042l0.09,-0.153l0.019,-0.164l-0.005,-0.038l-0.045,-0.005l-0.023,-0.014l-0.006,-0.035l-0.016,-0.007l-0.025,0.017h-0.018l-0.016,-0.054l-0.06,-0.061l0.004,-0.011l0.026,-0.001l0.032,-0.064l0.039,-0.021l0.076,0.017l0.045,-0.001l0.028,-0.022l0.013,-0.033l0.032,-0.027l0.004,-0.038l0.03,-0.047l0.013,-0.172l0.03,-0.039l0.012,-0.068l0.051,-0.094l0.002,-0.131z M1077.752562,435.174848l0.151,0.16l0.247,0.17l0.081,0.036l0.172,0.131l0.067,0.007l0.102,-0.041l0.078,-0.005l0.031,-0.063l-0.005,-0.102l0.01,-0.138l-0.067,-0.127l-0.058,-0.028z"/>
</svg>
