<svg xmlns="http://www.w3.org/2000/svg" viewBox="1101.703 440.768 39.899 40.827">
  <path d="M1119.361,455.775l0.031-0.028l0-0.032l-0.032-0.011l-0.032,0.024l-0.007,0.029l0.011,0.024L1119.361,455.775L1119.361,455.775z M1118.689,456.226l-0.002-0.042l-0.024-0.021l-0.029,0.017l-0.002,0.04l0.017,0.024l0.026,0.007L1118.689,456.226L1118.689,456.226z M1122.047,450.527l-0.022-0.039l-0.035-0.001l-0.016,0.021l0.014,0.029l0.041,0.016L1122.047,450.527L1122.047,450.527z M1118.295,456.166l0.011,0.03l0.024,0.001l0.023-0.028l-0.012-0.02l-0.027,0L1118.295,456.166L1118.295,456.166z M1118.579,456.22h0.021l0.008-0.017l-0.016-0.017l-0.029,0.001l-0.005,0.018L1118.579,456.22L1118.579,456.22z M1118.406,456.125l0.019-0.005l0.008-0.019l-0.015-0.003l-0.016,0.006l-0.007,0.014L1118.406,456.125L1118.406,456.125z M1117.161,456.81l0.124-0.018l0.062-0.111l-0.031-0.097l-0.071-0.013l-0.115,0.031l-0.058,0.093l0.004,0.058L1117.161,456.81L1117.161,456.81z M1119.573,449.938l0.04,0.013l0.02-0.004l-0.02-0.033l-0.069-0.029l-0.011,0.015L1119.573,449.938L1119.573,449.938z M1121.21,450.956l0.051,0.047l0.029,0.002l0.009-0.035l-0.036-0.049l-0.035-0.011l-0.016,0.009L1121.21,450.956L1121.21,450.956z M1121.861,450.743l0.084,0.093l0.053-0.002l0.011-0.062l0.033,0.004l0.047,0.06l0.029,0.002l0.002-0.051l-0.153-0.155l-0.073-0.033l-0.04,0.02L1121.861,450.743L1121.861,450.743z M1120.758,450.482l0.073,0.011l0.126,0.049l0.131,0.122l0.024,0.179l0.04,0.033l0.082-0.004l0.133,0.055l0.053,0.058l0.002,0.1l0.02,0.027l0.053,0.004l0.093,0.086l0.002,0.06l0.047,0.097l0.064,0.029l0.093-0.049l0.022-0.066l-0.073-0.168l-0.102-0.104l-0.179-0.082l-0.157-0.124l-0.075-0.104l-0.104-0.082l-0.21-0.126l-0.146-0.06l-0.038,0.004l-0.011,0.022L1120.758,450.482L1120.758,450.482z M1104.727,456.753l0.031,0.005v0.018l-0.026,0.016l-0.026-0.005l-0.005-0.018L1104.727,456.753L1104.727,456.753z M1102.446,456.886l0.019-0.007l0.011,0.027l-0.009,0.03l-0.019-0.011L1102.446,456.886L1102.446,456.886z M1102.979,456.634l0.011-0.012l0.014,0l-0.002,0.02l-0.011,0.012h-0.014L1102.979,456.634L1102.979,456.634z M1102.365,457.033l-0.012,0.001l-0.011-0.021l0.001-0.041l0.014-0.004l0.01,0.035L1102.365,457.033L1102.365,457.033z M1107.454,457.083l0.023,0.013v0.023l-0.034,0.013l-0.021-0.013l0.005-0.031L1107.454,457.083L1107.454,457.083z M1106.303,457.557l0.017,0.012l-0.008,0.024l-0.033,0.007l-0.015-0.017l0.007-0.022L1106.303,457.557L1106.303,457.557z M1104.852,456.758l0.012-0.014l0.054-0.007l0.022,0.014l-0.017,0.017l-0.04,0.005L1104.852,456.758L1104.852,456.758z M1106.43,457.161l0.001-0.018l0.018-0.012l0.026,0.007l-0.003,0.015l-0.026,0.01L1106.43,457.161L1106.43,457.161z M1104.461,456.754l-0.001-0.017l0.026-0.003l0.028,0.012l-0.006,0.011l-0.021,0.001L1104.461,456.754L1104.461,456.754z M1102.403,456.923l0.015,0.004l0.008,0.034l-0.012,0.034l-0.013-0.009l-0.005-0.037L1102.403,456.923L1102.403,456.923z M1102.462,457.115l0.013,0.009l-0.004,0.034l-0.023,0.027l-0.01-0.013l0.008-0.036L1102.462,457.115L1102.462,457.115z M1102.96,456.496l-0.023-0.015l-0.01-0.026l0.008-0.009l0.023,0.015l0.008,0.021L1102.96,456.496L1102.96,456.496z M1101.758,457.21l-0.055-0.086l0.003-0.086l0.036-0.031h0.06l0.026,0.06l0.003,0.091l-0.042,0.052H1101.758L1101.758,457.21z M1102.3,457.19l-0.078-0.065l-0.005-0.031l0.021-0.013l0.05,0.023l0.039,0.06l-0.003,0.026H1102.3L1102.3,457.19z M1102.563,458.206l0.013-0.07l0.049-0.013l0.039,0.018l0.005,0.049l-0.047,0.068l-0.05-0.023L1102.563,458.206L1102.563,458.206z M1102.532,458.151l-0.034-0.01l-0.039-0.052l-0.117-0.057l-0.034-0.057l0.023-0.076l0.068-0.031l0.109,0.018l0.049,0.063l-0.036,0.102l0.026,0.073L1102.532,458.151L1102.532,458.151z M1109.946,457.369l-0.008-0.018l0.109-0.039h0.138l0.089-0.047l0.076,0.005l0.065,0.057l-0.01,0.049l-0.109,0.026l-0.112-0.029l-0.076-0.003l-0.036,0.023l-0.052-0.003l-0.039-0.021L1109.946,457.369L1109.946,457.369z M1108.766,459.758l-0.219-0.146l-0.094-0.212l0.01-0.153l-0.066-0.146l-0.24-0.306l-0.01-0.087l0.031-0.073l-0.014-0.122l-0.087-0.153l0.007-0.177l0.149-0.24l0.049-0.024l0.108,0.01l0.17,0.125l0.017,0.118l-0.118,0.285l0.014,0.205l0.08,0.202l0.195,0.375l0.014,0.111l0.122,0.219l-0.01,0.104l-0.059,0.069L1108.766,459.758L1108.766,459.758z M1106.793,457.183l-0.004-0.024l0.049-0.038l0.056-0.01l0.045,0.042l-0.017,0.028l-0.038-0.014L1106.793,457.183L1106.793,457.183z M1109.847,457.319l0.024,0.014l-0.087,0.104l-0.167,0.052l-0.073,0.059h-0.066l-0.059-0.024l-0.097,0.003l-0.101,0.052l-0.118,0.007l-0.122-0.028l-0.142,0.014l-0.306,0.129l-0.097,0.007l-0.108,0.063l-0.083-0.01l-0.146-0.111l-0.142-0.01l-0.111,0.069l-0.163,0.035l-0.619,0.003l-0.195,0.066l-0.087-0.01l-0.045-0.021h-0.066l-0.195,0.042l-0.024-0.028l0.059-0.066l-0.007-0.122l-0.139-0.104l-0.111-0.003l-0.035,0.073l-0.049,0.003l-0.052-0.052l-0.004-0.146l0.073-0.073l0.083-0.007l0.007-0.021l-0.049-0.038l0.017-0.045l0.087-0.014l0.077,0.021l0.042,0.08l0.052-0.003l0.066-0.042l0.038-0.059h0.049l0.024,0.042l-0.003,0.066l0.083,0.028l0.069-0.024l0.035-0.063h0.028l0.038,0.059l0.059-0.003l0.135,0.045l0.059-0.01l0.031,0.007l0.024,0.038l0.087,0.007l0.229-0.024l0.115-0.056l0.174-0.003l0.069,0.021l0.031-0.003l0.035-0.024l0.101-0.003l0.038,0.014l0.038-0.007l0.045-0.038l0.452,0.007l0.42,0.059l0.247-0.017l0.111,0.024l0.212,0.014l0.056,0.028h0.069L1109.847,457.319L1109.847,457.319z M1103.772,457.836l-0.013,0.052l-0.049,0.026h-0.057l-0.253,0.083l-0.159,0.023l-0.091,0.036l-0.109,0.003l-0.018-0.013l-0.005-0.029l-0.021,0.005l-0.021,0.05l-0.021,0.016l-0.049-0.01l-0.083,0.018h-0.159l-0.034-0.034l0.013-0.078l-0.016-0.091l-0.065-0.117l-0.06-0.036l-0.073-0.112l-0.005-0.047l0.018-0.063l0.029-0.315l0.052-0.083l0.016-0.128l0.024-0.065l-0.01-0.008l-0.029,0.018l-0.013-0.013l0.055-0.112l0.107-0.063l0.047,0.005l0.208-0.003l0.115-0.026l0.029-0.029l-0.008-0.034l0.023-0.018l0.031,0.003l0.023,0.016l-0.029,0.029l-0.003,0.039l0.036,0.008l0.07-0.07l0.042,0.003l0.021,0.013h0.096l0.044-0.026l0.208,0.013l0.138,0.052l0.081,0.003l0.099,0.05l0.065,0.013l0.044-0.01l0.031,0.003l0.023,0.031l0.044,0.01l0.047-0.013l0.099,0.029l0.083-0.003l0.057,0.018l0.047,0.057l0.042,0.005l0.065-0.026l0.146-0.003l0.057,0.049l0.123,0.042l0.039-0.008l0.021,0.023l-0.023,0.052l0.008,0.055l0.096,0.039l0.044-0.01l0.005-0.052l0.021-0.005l0.016,0.052l0.031,0.009l0.026-0.02l0.057-0.003l0.01-0.021l-0.034-0.021l0.003-0.021l0.044-0.003l0.013-0.021l-0.023-0.026l0.026-0.141l0.057-0.016l0.052,0.018l0.01,0.07l0.029,0.008l0.039-0.05h0.055l0.094,0.089l0.01,0.039l-0.057,0.128l-0.003,0.05l0.039,0.039l0.057-0.01l0.05-0.102l-0.01-0.049l0.01-0.034l0.049-0.047l0.06-0.016l0.123,0.031l0.034,0.052l-0.016,0.076l-0.055,0.044l-0.013,0.036l0.018,0.01l0.044-0.034l0.07-0.005l0.036,0.026l0.01,0.042l-0.031,0.073l-0.005,0.125l0.034,0.081l-0.008,0.044l-0.031,0.031l-0.128-0.031h-0.086l-0.078-0.029l-0.196,0.023l-0.065-0.029h-0.12l-0.073,0.068l-0.052,0.008l-0.112-0.036l-0.123-0.003l-0.065,0.034l-0.016,0.052l0.026,0.083l-0.026,0.026h-0.123l-0.07-0.036l-0.232-0.013l-0.057-0.034l-0.039-0.06l-0.063-0.016l-0.12,0.013l-0.185,0.057l-0.062,0.06l-0.177,0.057L1103.772,457.836L1103.772,457.836z M1109.036,446.909l0.056-0.003l0.042,0.031l-0.007,0.08l-0.049-0.014l-0.056-0.059L1109.036,446.909L1109.036,446.909L1109.036,446.909z M1109.894,445.577l0.06-0.024l0.056-0.003l0.084,0.066l-0.004,0.038l-0.046,0.035l-0.01,0.09l-0.031,0.007l-0.067-0.097l-0.056-0.024v-0.049L1109.894,445.577L1109.894,445.577L1109.894,445.577z M1113.707,455.515l-0.046-0.027l0.024-0.019l0.061-0.017l0.064,0.018l-0.016,0.03L1113.707,455.515L1113.707,455.515z M1112.755,450.105l-0.044-0.009l-0.019-0.026l0.013-0.023l0.035-0.005l0.029,0.034L1112.755,450.105L1112.755,450.105z M1113.71,448.462l0.03-0.033l0.032-0.003l0.014,0.023l-0.013,0.032l-0.045,0.008L1113.71,448.462L1113.71,448.462z M1116.91,447.611l-0.008-0.024l0.027-0.013l0.038,0.032l0.008,0.039l-0.015,0.013L1116.91,447.611L1116.91,447.611z M1117.508,454.89l-0.074-0.027l-0.03-0.025l0-0.022l0.062,0.022l0.046,0.033L1117.508,454.89L1117.508,454.89z M1116.066,444.016l-0.06-0.05l-0.02-0.033l0.008-0.021l0.05,0.042l0.032,0.047L1116.066,444.016L1116.066,444.016z M1116.184,456.293l0.031,0.005v0.018l-0.026,0.016l-0.026-0.005l-0.005-0.018L1116.184,456.293L1116.184,456.293z M1114.978,452.148l0.019-0.015l0.02,0.017l0.012,0.035l-0.015,0.013l-0.02-0.007L1114.978,452.148L1114.978,452.148z M1112.818,450.034l-0.011-0.011l0.013-0.026l0.034-0.021l0.012,0.012l-0.021,0.03L1112.818,450.034L1112.818,450.034z M1116.138,444.098l0.002-0.016l0.028-0.007l0.038,0.012l-0.002,0.017l-0.037,0.003L1116.138,444.098L1116.138,444.098z M1118.364,448.485l0.002,0.014l-0.045,0.005l-0.01-0.012l0.024-0.012L1118.364,448.485L1118.364,448.485z M1117.238,454.725l0.016-0.012l0.028,0.014l0.003,0.027l-0.015,0.007l-0.022-0.015L1117.238,454.725L1117.238,454.725z M1115.898,456.124l0.016-0.012l0.028,0.014l0.003,0.027l-0.015,0.007l-0.022-0.015L1115.898,456.124L1115.898,456.124z M1117.2,447.483l0.019-0.006l0.021,0.022l-0.006,0.026l-0.016,0.001l-0.015-0.021L1117.2,447.483L1117.2,447.483z M1114.269,444.375l-0.003-0.02l0.026-0.017l0.025,0.01l-0.002,0.016l-0.024,0.011L1114.269,444.375L1114.269,444.375z M1117.94,452.871l-0.026-0.009l-0.032-0.031l-0.001-0.015l0.032,0.012l0.026,0.024L1117.94,452.871L1117.94,452.871z M1117.136,447.741l-0.021-0.017l-0.019-0.04l0.004-0.014l0.026,0.022l0.016,0.031L1117.136,447.741L1117.136,447.741z M1113.484,453.003l-0.006-0.02l0.016-0.007l0.021,0.01l0.01,0.024l-0.014,0.013L1113.484,453.003L1113.484,453.003z M1113.765,451.801l0.012-0.017l0.016,0.007l0.005,0.022l-0.012,0.022l-0.019-0.002L1113.765,451.801L1113.765,451.801z M1117.802,452.766l0.014,0.009l0.002,0.013l-0.02,0.001l-0.014-0.009l-0.002-0.014L1117.802,452.766L1117.802,452.766z M1116.435,453.737l0.011-0.012l0.014,0l-0.002,0.019l-0.012,0.012h-0.014L1116.435,453.737L1116.435,453.737z M1113.009,450.736l-0.008-0.015l0.005-0.013l0.018,0.009l0.007,0.015l-0.005,0.013L1113.009,450.736L1113.009,450.736z M1117.094,447.613l0.011-0.012l0.014,0l-0.002,0.019l-0.012,0.012h-0.014L1117.094,447.613L1117.094,447.613z M1113.853,450.882l0.015,0.011l-0.007,0.022l-0.015,0.003l-0.007-0.024L1113.853,450.882L1113.853,450.882z M1113.258,452.472l-0.002,0.02l-0.015,0.011l-0.015-0.009l0.002-0.024l0.013-0.007L1113.258,452.472L1113.258,452.472z M1113.076,450.054l0.014,0.014l-0.001,0.019l-0.017,0.006l-0.017-0.017l0.004-0.014L1113.076,450.054L1113.076,450.054z M1114.338,444.403l0.014,0.014l-0.001,0.019l-0.017,0.006l-0.017-0.017l0.004-0.014L1114.338,444.403L1114.338,444.403z M1113.272,452.367h0.014l0.003,0.014l-0.008,0.006l-0.014-0.006L1113.272,452.367L1113.272,452.367z M1117.96,448.26l-0.004-0.016l0.014-0.019l0.035-0.007l0.005,0.012l-0.026,0.021L1117.96,448.26L1117.96,448.26z M1116.29,456.387l0.02-0.005l0.013,0.022l-0.016,0.03l-0.022,0.001l-0.012-0.02L1116.29,456.387L1116.29,456.387z M1113.637,447.854l0.019-0.008l0.017,0.019l-0.011,0.032l-0.022,0.005l-0.016-0.017L1113.637,447.854L1113.637,447.854z M1113.135,450.48l-0.005,0.023l-0.023,0.004l-0.015-0.016l-0.002-0.023l0.018-0.009L1113.135,450.48L1113.135,450.48z M1116.247,456.29l0.008-0.016l0.026,0.003l0.008,0.018l-0.026,0.005L1116.247,456.29L1116.247,456.29z M1113.324,451.874l0.01-0.031l0.035-0.014l0.014,0.024l-0.031,0.028L1113.324,451.874L1113.324,451.874z M1113.739,452.839l-0.015-0.004l-0.009-0.015l0-0.015l0.021,0.005l0.008,0.018L1113.739,452.839L1113.739,452.839z M1116.057,445.773l0.029-0.008l0.013,0.011l-0.027,0.045l-0.031,0.016l-0.013-0.016L1116.057,445.773L1116.057,445.773z M1116.236,444.158l0.007-0.028l0.016-0.006l0.026,0.045l-0.002,0.034l-0.02,0.003L1116.236,444.158L1116.236,444.158z M1113.873,451.891l0.014,0.012l-0.004,0.014l-0.021-0.004l-0.009-0.009l0.007-0.013L1113.873,451.891L1113.873,451.891z M1113.176,450.695l0.007-0.009l0.02,0.004l0.008,0.016l-0.007,0.009l-0.024-0.007L1113.176,450.695L1113.176,450.695z M1117.492,454.76l0.012,0.027l-0.007,0.02l-0.03-0.003l-0.016-0.031l0.013-0.017L1117.492,454.76L1117.492,454.76z M1113.412,451.434l0.029,0.008l0.01,0.018l-0.021,0.021l-0.034-0.008l-0.005-0.021L1113.412,451.434L1113.412,451.434z M1113.21,452.632l-0.018,0.006l-0.05-0.021l-0.013-0.023l0.024-0.006l0.037,0.015L1113.21,452.632L1113.21,452.632z M1115.088,442.38l0.014-0.014l0.024,0.007l0.021,0.025l-0.004,0.019l-0.022-0.002L1115.088,442.38L1115.088,442.38z M1113.898,450.902l0.017-0.005l0.018,0.013l0.003,0.027l-0.015,0.003l-0.018-0.021L1113.898,450.902L1113.898,450.902z M1113.439,452.988l-0.018,0.002l-0.016-0.015l0.002-0.027l0.016,0l0.014,0.024L1113.439,452.988L1113.439,452.988z M1116.709,442.808l0.017-0.005l0.018,0.013l0.003,0.027l-0.015,0.003l-0.018-0.021L1116.709,442.808L1116.709,442.808z M1113.439,453.014l0.012-0.012l0.019,0.018l0.008,0.029l-0.012,0.003l-0.015-0.015L1113.439,453.014L1113.439,453.014z M1113.439,453.014l0.012-0.012l0.019,0.018l0.008,0.029l-0.012,0.003l-0.015-0.015L1113.439,453.014L1113.439,453.014z M1116.068,456.276l0.005-0.018l0.029-0.001l0.017,0.017l-0.008,0.017h-0.021L1116.068,456.276L1116.068,456.276z M1113.842,450.568l0.019,0.002l0.006,0.028l-0.014,0.019l-0.018-0.005l-0.004-0.02L1113.842,450.568L1113.842,450.568z M1117.564,454.887l-0.017-0.01l0.008-0.019l0.047-0.028l0.014,0.01l-0.01,0.025L1117.564,454.887L1117.564,454.887z M1118.11,453.034l-0.014-0.01l-0.003-0.015l0.013-0.002l0.014,0.018L1118.11,453.034L1118.11,453.034z M1116.503,453.594l0.007-0.011l0.022-0.007l0.013,0.007l0.003,0.01l-0.022,0.006L1116.503,453.594L1116.503,453.594z M1113.325,452.563l0.01,0.01l-0.008,0.018l-0.018-0.003v-0.018L1113.325,452.563L1113.325,452.563z M1117.329,454.134v-0.014l0.012-0.005l0.012,0.007l-0.007,0.012H1117.329L1117.329,454.134z M1117.976,452.973l0.013-0.006l0.016,0.011l-0.006,0.012l-0.017-0.004L1117.976,452.973L1117.976,452.973z M1114.896,452.283l0.004-0.012l0.014,0.003l0.008,0.008l-0.007,0.014h-0.013L1114.896,452.283L1114.896,452.283z M1118.054,453.187l-0.008-0.01l0.011-0.008l0.013,0.003l-0.001,0.012L1118.054,453.187L1118.054,453.187z M1116.768,442.389l0.012-0.003l0.013,0.016l0.004,0.016l-0.003,0.02l-0.015-0.004l-0.013-0.025L1116.768,442.389L1116.768,442.389z M1116.831,442.675l-0.001-0.014l0.013-0.012l0.018,0.006l0.001,0.015l-0.014,0.011L1116.831,442.675L1116.831,442.675z M1116.194,444.355l0.02,0.006l0.004,0.018l-0.017,0.008l-0.013-0.008v-0.014L1116.194,444.355L1116.194,444.355z M1115.457,455.892l-0.003-0.017l0.01-0.012h0.012l0.004,0.015l-0.011,0.011L1115.457,455.892L1115.457,455.892z M1116.573,453.558l0.009-0.014l0.016-0.003l0.01,0.008l-0.007,0.014l-0.016,0.001L1116.573,453.558L1116.573,453.558z M1114.767,453.112l-0.015-0.009l-0.003-0.015l0.008-0.01l0.014,0.007l0.001,0.016L1114.767,453.112L1114.767,453.112z M1113.258,452.523l0.014,0.008l0.009,0.019l-0.006,0.01l-0.016-0.012l-0.006-0.015L1113.258,452.523L1113.258,452.523z M1119.252,448.882l-0.024-0.026v-0.029l0.016-0.018l0.021,0.018l0.003,0.036L1119.252,448.882L1119.252,448.882z M1112.488,451.668l0.005-0.024l0.022-0.009l0.01,0.018l-0.009,0.039l-0.018-0.001L1112.488,451.668L1112.488,451.668z M1116.304,453.719l0.025-0.013l0.055,0.019l0.029,0.038l-0.015,0.023l-0.044-0.008l-0.048-0.031L1116.304,453.719L1116.304,453.719z M1118.375,448.234l0.017,0.005l0.02,0.02l-0.007,0.015l-0.02-0.003l-0.017-0.022L1118.375,448.234L1118.375,448.234z M1113.729,456.153l0.004,0.075l-0.012,0.024h-0.031l-0.031-0.051l0.004-0.039l0.024-0.027L1113.729,456.153L1113.729,456.153z M1117.258,454.49l0.008-0.023l0.032-0.016l0.028,0.008l-0.008,0.027l-0.032,0.02L1117.258,454.49L1117.258,454.49z M1115.2,442.748l-0.009,0.014l-0.039-0.022l-0.012-0.034l0.017-0.021l0.033,0.027L1115.2,442.748L1115.2,442.748z M1118.378,448.452h0.058l0.042,0.016l0.003,0.026l-0.055,0.005l-0.047-0.021V448.452L1118.378,448.452z M1113.485,447.301l-0.034-0.003l-0.024-0.029l-0.003-0.037l0.018-0.01l0.05,0.016l0.005,0.023L1113.485,447.301L1113.485,447.301z M1115.087,442.546l-0.105-0.078l0.003-0.026l0.068-0.003l0.076,0.042l0.037,0.07l-0.021,0.013L1115.087,442.546L1115.087,442.546z M1115.197,442.34l-0.034-0.034l-0.008-0.073l-0.037-0.026l-0.01-0.07l0.06-0.065h0.018l-0.003,0.036l0.021,0.018l0.116,0.018l0.034,0.049l-0.013,0.083l-0.084,0.055L1115.197,442.34L1115.197,442.34z M1117.564,452.803l0.018-0.036l-0.013-0.039l0.008-0.023l0.055-0.005l0.024,0.026l-0.018,0.065l-0.052,0.031L1117.564,452.803L1117.564,452.803z M1118.229,453.025l0.003-0.039l-0.026-0.018l-0.034-0.008l-0.003-0.026l0.055-0.013l0.039,0.031l0.005,0.042l-0.016,0.031H1118.229L1118.229,453.025z M1117.262,452.723l0.068-0.005l0.024,0.01l-0.021,0.026l-0.047,0.01l-0.031-0.013L1117.262,452.723L1117.262,452.723z M1116.54,442.034l-0.039-0.087v-0.108l0.042-0.059l0.021-0.108l0.038-0.042l0.049,0.003l0.042,0.156l-0.025,0.177l0.025,0.038l-0.003,0.038l-0.06,0.031L1116.54,442.034L1116.54,442.034z M1116.773,442.119l-0.009-0.026l0.043-0.065l0.108-0.073l0.041-0.068l0.078-0.065l0.059-0.121l0.042-0.187l0.07-0.104l0.056-0.028l0.046-0.042l0.017-0.052l0.039-0.031l0.073-0.014l0.119-0.076l0.067-0.128l0.067-0.042l0.028-0.056l0.06-0.003l0.102,0.056l0.091,0.003l0.06-0.08l0.014-0.062l0.063-0.087l0.067,0.01l0.098,0.177l0.01,0.055l0.025,0.031l0.056,0.017l0.028,0.045v0.059l0.109,0.108h0.042l0.046,0.038l0.01,0.114l-0.014,0.166l-0.028,0.062l-0.056,0.045l-0.077,0.132l-0.007,0.101l0.039,0.062l-0.004,0.059l-0.081,0.132l-0.028,0.104l0.014,0.038l-0.007,0.038l-0.088,0.09l-0.091,0.18l-0.003,0.104l-0.039,0.031l-0.063,0.003l-0.091,0.083l-0.032,0.059l-0.073,0.024l-0.133,0.017l-0.052-0.017l-0.165,0.003l-0.105,0.042l-0.164,0.033l-0.094-0.008l-0.049,0.046l-0.006,0.054l-0.098,0.109l-0.006-0.017l0.065-0.109l0.039-0.146l-0.021-0.083l-0.035-0.028h-0.039l-0.049-0.042l-0.028-0.111l0.003-0.246l-0.021-0.042v-0.059l0.022-0.066l-0.013-0.042l-0.05-0.039l-0.037-0.065L1116.773,442.119L1116.773,442.119z M1119.199,448.753l-0.112-0.073l-0.063-0.121v-0.045l0.025-0.017l0.046,0.01l0.119,0.187l0.01,0.052L1119.199,448.753L1119.199,448.753z M1117.209,447.697l0.016-0.06l0.045-0.031l0.042,0.003l0.008,0.021l-0.021,0.065l-0.05,0.018L1117.209,447.697L1117.209,447.697z M1114.127,444.379l0.056-0.062l0.017-0.083l0.035-0.017l0.028,0.007l0.014,0.059l-0.035,0.042l-0.077,0.049L1114.127,444.379L1114.127,444.379z M1116.201,444.785l-0.021-0.038l0.01-0.031l0.025,0.003l0.039,0.038l-0.004,0.028l-0.021,0.01L1116.201,444.785L1116.201,444.785z M1120.272,447.871l-0.013,0.021l-0.021,0.008l-0.018-0.01v-0.026l0.034-0.008L1120.272,447.871L1120.272,447.871z M1113.416,447.74l-0.053-0.132l0.031-0.153l0.091-0.087l0.074,0.014l0.14,0.087l0.028,0.076l-0.017,0.125l-0.049,0.076l-0.14,0.028L1113.416,447.74L1113.416,447.74z M1113.689,447.976l0.031-0.104l-0.007-0.049l0.038-0.038l0.091-0.003l0.112,0.049l0.025,0.09l-0.003,0.163l-0.046,0.115l-0.074,0.055l-0.112,0.003l-0.088-0.052l-0.017-0.108l0.014-0.083L1113.689,447.976L1113.689,447.976z M1113.703,448.913l0.007-0.069l0.06-0.038l0.091,0.017l0.038,0.062l-0.021,0.059l-0.077,0.028l-0.063-0.014L1113.703,448.913L1113.703,448.913z M1113.574,449.419l0.003-0.08l0.102-0.111l0.151-0.038l0.046,0.024l0.046,0.083v0.108l-0.074,0.108l-0.116,0.042l-0.084-0.038L1113.574,449.419L1113.574,449.419z M1116.842,453.381l-0.021,0.057l-0.037,0.005l-0.187-0.086l-0.147-0.036l-0.097-0.044l-0.076-0.018l-0.073-0.057l-0.045-0.018l-0.142-0.127l-0.026-0.052l0.008-0.078l-0.01-0.052l-0.037-0.039l-0.026-0.034l0.003-0.031l-0.016-0.026l-0.042-0.031l-0.031-0.065l0.003-0.055l-0.047-0.127l-0.045-0.06l-0.047-0.026l-0.037-0.049l-0.01-0.086l-0.021-0.068l-0.047-0.047l-0.013-0.042l0.005-0.034l-0.01-0.031l-0.139-0.125l-0.116-0.057l-0.039-0.008l-0.024,0.005l-0.029-0.008l-0.013-0.023l-0.047-0.016h-0.042l-0.031-0.021l-0.018-0.031l-0.024-0.018l-0.031-0.008l-0.084-0.075l-0.063-0.031l-0.018-0.042l0.013-0.047l-0.01-0.026l-0.042-0.021l-0.047-0.068l-0.003-0.049l0.016-0.029l0.008-0.081l0.066-0.14l0.005-0.094l0.026-0.065l0.008-0.185l-0.005-0.083l0.01-0.161l0.058-0.073l0.016-0.055l0.003-0.086l-0.031-0.091l-0.026-0.016l-0.024,0.013l-0.026-0.01v-0.026l0.026-0.029l0.005-0.034l-0.029-0.034v-0.031l0.01-0.029l-0.003-0.13l0.034-0.073l0.013-0.088l0.016-0.026l0.011-0.042l-0.011-0.034l0.011-0.031l0.045-0.034l0.032-0.138l-0.026-0.068l-0.05-0.07l-0.039-0.008l-0.045,0.026l-0.076-0.008l-0.034,0.021l-0.021-0.003l-0.021-0.039l-0.024-0.021l-0.034,0.003l-0.039-0.021l-0.024-0.055l0.003-0.047l-0.013-0.023l-0.063-0.016l-0.06-0.047l-0.055-0.13v-0.075l-0.01-0.114l-0.026-0.075l-0.068-0.047l-0.039-0.068v-0.044l0.024-0.031l0.008-0.044l-0.024-0.068v-0.062l0.024-0.044l0.013-0.083l0.018-0.042l0.01-0.125l-0.01-0.083l0.018-0.047l0.092-0.083l0.055-0.005l0.034-0.023l0.003-0.036l0.016-0.026l0.076-0.081l0.045-0.055l0.005-0.101l-0.026-0.047l-0.092-0.034l-0.102,0.005l-0.121-0.034l-0.024,0.023l-0.018-0.01l-0.008-0.039l-0.113-0.031l-0.039-0.034l0.005-0.125l0.052-0.091l0.003-0.075l-0.06-0.068l-0.05-0.01l-0.008-0.034l0.01-0.034l0.058-0.021l0.016-0.086l-0.039-0.052l-0.06-0.023l-0.11,0.049l-0.055-0.008l-0.018,0.016l0.008,0.031l-0.026,0.023l-0.06-0.018l-0.008-0.021l0.021-0.016v-0.026l-0.034-0.026l0.008-0.073l0.045-0.042l0.05-0.078l0.021-0.109l-0.05-0.117l-0.058-0.062v-0.031l0.024-0.047l-0.008-0.052l0.013-0.034l0.037-0.047l0.068-0.151l0.105-0.114l0.071-0.143l0.003-0.104l0.034-0.057l0.073-0.081l0.039-0.073l0.031-0.104l0.005-0.125l-0.029-0.091l0.01-0.055l-0.01-0.026h-0.024l-0.021-0.018l0.01-0.031l0.045-0.065l0.063-0.008l0.016-0.042v-0.114l-0.013-0.065l0.018-0.021l0.037-0.003l0.063-0.052l0.005-0.104l-0.071-0.07l0.008-0.034l0.031-0.008l0.008-0.023l-0.005-0.081l0.034-0.055l0.058-0.021l0.058-0.055l0.108-0.135l0.016-0.075l0.026-0.031l0.052-0.14l0.079-0.114l0.008-0.052l0.05-0.049l0.171-0.088l0.1-0.114l0.079-0.164l0.181-0.195l0.097-0.057l0.1-0.117l0.076-0.052l0.034-0.026l0.003-0.049l0.037-0.036l0.047-0.018l0.026-0.031l0.003-0.057l0.029-0.008l0.037,0.036l0.021,0.073l0.032,0.01l0.163-0.056l0.093,0.002l0.028,0.017l0.002,0.059l-0.019,0.059l-0.102,0.111l-0.023,0.068l-0.214,0.206l-0.03,0.05l-0.04,0.056l-0.009,0.062l0.009,0.076l-0.016,0.028l-0.054,0.031l-0.088,0.082l-0.061,0.017l-0.137,0.09l-0.025,0.043l-0.007,0.135l0.014,0.029l-0.005,0.045l-0.026,0.045l-0.01,0.054l0.047,0.08l0.033,0.014l0.025-0.007l0.035,0.01l0.03,0.028l0.04,0.005l0.079-0.04l0.068,0.01l0.058,0.049l0.019,0.078l0.028,0.012h0.049l0.033,0.016l0.089,0.109l0.042,0.123l-0.009,0.056l-0.049,0.023l-0.042,0.047l-0.005,0.042l0.021,0.121l-0.012,0.009l-0.017-0.003l-0.009,0.012l0.002,0.054l0.049,0.038l0.1,0.014l0.017,0.01l0.005,0.033l-0.04,0.109l0.005,0.019l0.021,0.016l-0.007,0.068l-0.035,0.104l-0.005,0.04l0.014,0.026l-0.002,0.045l-0.04,0.118l-0.004,0.045l0.033,0.047l-0.002,0.029l-0.03,0.029l-0.038,0.01l-0.023,0.002l-0.017,0.023l-0.005,0.087l0.016,0.102l0.047,0.04v0.033l-0.037,0.024h-0.056l-0.021,0.021l-0.005,0.061l-0.031,0.071l-0.044,0.016l-0.012,0.017l-0.009,0.035l-0.042,0.035l-0.037,0.01l-0.037,0.057l-0.007,0.076l-0.014,0.045l-0.028,0.029l-0.009,0.085l-0.021,0.028l-0.054,0.005l-0.067-0.019h-0.04l-0.039,0.014l-0.049,0.002l-0.025,0.017l-0.058,0.092l-0.003,0.028l-0.016,0.012l-0.037,0.002l-0.017,0.01l-0.014,0.029l-0.07,0.052l-0.012,0.036l-0.053,0.031l-0.046,0.003l-0.088,0.075l-0.086,0.024l-0.089,0.021l-0.046,0.026l-0.017,0.033l0.003,0.031l-0.007,0.024l-0.065,0.062l-0.012,0.052l0.014,0.066l0.007,0.05l-0.004,0.042l0.007,0.036l0.021,0.01l0.021-0.012l0.019,0.005l0.01,0.021l-0.005,0.045l0.016,0.026l0.028,0.033l-0.007,0.016l-0.018,0.007v0.014l0.039,0.007l0.019-0.014v-0.017l0.017-0.005l0.063,0.016l0.049,0.085l0.04,0.024l0.037,0.01l0.033,0.045l0.002,0.047l0.073,0.052l0.068,0.002l0.047,0.014l0.028,0.026h0.046l0.138-0.036l0.098-0.076l0.037-0.003l0.012-0.017v-0.054l0.032-0.036l0.061-0.009l0.065-0.069l0.019-0.055l-0.021-0.229l0.009-0.057l0.033-0.036v-0.029l-0.01-0.021l0.002-0.038l0.056-0.054l0.068-0.118l0.031-0.128l0.023-0.031l0.089-0.024l0.056-0.052l0.026-0.012l0.077,0.003l0.059-0.017l0.021-0.026l0.059-0.003l0.053,0.012h0.058l0.025-0.017h0.037l0.025,0.017h0.061l0.049-0.021l0.054-0.108l0.04-0.029l0.026-0.094l-0.004-0.057l-0.068-0.123l-0.053-0.035l-0.107-0.021l-0.079,0.005l-0.042,0.038l-0.028,0.002l-0.031-0.016l-0.014-0.059l0.014-0.062l0.031-0.031l0.068-0.007l0.065-0.059l0.065-0.151l0.054-0.073l0.119-0.101l0.063-0.005l0.026-0.017l0.035-0.05l0.06-0.031l0.038,0.002l0.108-0.05l0.071-0.01l0.097-0.075l0.06-0.026l0.034-0.042l0.016-0.055l0.039-0.047l0.052-0.021l0.066-0.052l0.145-0.068l0.068-0.013l0.032-0.026h0.071l0.05,0.057l0.042,0.003l0.066-0.018l0.037-0.031l-0.003-0.031l0.021-0.036l0.066-0.01l0.129-0.005l0.081-0.034l0.089-0.003l0.074-0.023l0.045,0.003l0.042,0.018l0.11,0.021l0.029,0.031v0.073l0.024,0.039l-0.018,0.023l-0.06-0.021l-0.029,0.016l-0.008,0.078l-0.016,0.018l-0.029-0.003l-0.018,0.029l0.016,0.14l0.073,0.135l0.089,0.075l0.089,0.023l0.008,0.031l-0.037,0.052l-0.008,0.062l0.018,0.062l-0.013,0.068l-0.042,0.065l-0.068,0.036l-0.021,0.044l0.01,0.065l0.026,0.036l-0.005,0.026l-0.058,0.06l-0.039,0.091l-0.01,0.086l0.024,0.122l-0.008,0.159l-0.018,0.062l0.013,0.065l0.024,0.036l-0.021,0.016l-0.071-0.018l-0.074,0.031l-0.045,0.047l-0.045,0.013l-0.039-0.01l-0.06,0.023l-0.081,0.096l-0.087,0.042l-0.045,0.042l-0.024,0.049l-0.06,0.026l-0.068,0.005l-0.163,0.073l-0.039,0.049l-0.047,0.018l-0.087,0.003l-0.081,0.042l-0.029,0.031l-0.029,0.008l-0.045-0.008l-0.139,0.01l-0.097,0.068l-0.076,0.096l-0.005,0.044l0.058,0.031l0.047,0.052l0.008,0.031l-0.031,0.018l-0.079-0.01l-0.06-0.057l-0.055-0.026l-0.018,0.013l0.003,0.039l-0.024,0.034l-0.121,0.031l-0.031,0.039l-0.008,0.052l0.05,0.049l0.013,0.049l0.081,0.088l0.039,0.01l0.018-0.031h0.021l0.123,0.127l0.053,0.078l0.016,0.088l0.042,0.031l0.066-0.013l0.071,0.003l0.018,0.01l0.021,0.034l0.055,0.016l0.05-0.008l0.205,0.06l0.073,0.078l0.108,0.039l0.082,0.01l0.079,0.034l0.108,0.073l0.121,0.034h0.145l0.055,0.021l0.06,0.003l0.045,0.023l0.01,0.086l-0.052,0.088l-0.003,0.039l0.042,0.078l0.005,0.07l-0.016,0.039l0.003,0.047l0.021,0.042l-0.005,0.034l-0.037,0.039l-0.026,0.096l0.003,0.068l0.058,0.047l0.063,0.01l0.037-0.01l0.055,0.016l0.058,0.029l0.058,0.01l0.063-0.008l0.092,0.029l0.066,0.044l0.139,0.073l0.042,0.078l0.01,0.073l0.045,0.065l0.068,0.042l-0.024,0.01l-0.06-0.016l-0.084-0.083l-0.029-0.078l-0.026-0.01l-0.06-0.003l-0.11-0.055l-0.05-0.016l-0.116,0.005l-0.073-0.021l-0.071-0.042l-0.063-0.013l-0.055,0.01l-0.121-0.026l-0.05-0.029l-0.06-0.021l-0.168-0.01l-0.063-0.023l-0.084-0.055l-0.05-0.01l-0.063-0.047l-0.021-0.06l-0.066-0.062l-0.089-0.042l-0.063-0.005l-0.058,0.021l-0.081-0.003l-0.05-0.031l-0.105-0.005l-0.121,0.031h-0.163l-0.147-0.052h-0.05l-0.2-0.096l-0.018-0.052l-0.092-0.036l-0.052,0.003l-0.045,0.018l-0.168-0.031l-0.053-0.034l-0.095-0.016l-0.066,0.018l-0.134-0.005l-0.031-0.021h-0.029l-0.037,0.031l-0.108,0.034l-0.089,0.088l-0.008,0.042l0.029,0.099l-0.008,0.039l-0.024,0.034l0.016,0.036l-0.016,0.026l-0.047,0.005l-0.031,0.055l0.01,0.036l-0.005,0.029l-0.021,0.029l0.005,0.083l0.047,0.047l0.089,0.029l0.008,0.023l-0.003,0.091l0.034,0.099v0.042l-0.018,0.034l0.005,0.13l0.016,0.19l-0.021,0.029l-0.071,0.031l-0.052,0.07l0.009,0.062l0.025,0.035l-0.004,0.049l-0.021,0.042l0.014,0.132l0.06,0.101l0.017,0.101l0.137,0.212l0.014,0.087l0.049,0.087l0.025,0.111l0.017,0.191l0.063,0.166l0.052,0.069l0.095,0.217l0.029,0.13l0.029,0.052l0.045,0.029l0.026,0.036v0.034l0.013,0.026l0.024,0.016l0.018,0.031l0.01,0.068l0.095,0.174l0.081,0.073l0.152,0.258l0.047,0.039l0.016,0.026l-0.003,0.055l0.034,0.078l0.042,0.036l0.016,0.036l0.013,0.049l0.066,0.075l0.1,0.06l0.145,0.125l0.034,0.068l0.06,0.057l0.079,0.044l0.11,0.125l0.055,0.036l0.071,0.062l0.092,0.029l0.076,0.083l-0.005,0.034l-0.021,0.003l-0.01-0.023l-0.042-0.023l-0.045-0.005l-0.152-0.086l-0.066-0.003l-0.047,0.023l-0.045-0.003l-0.087-0.075l-0.026,0.003l0.003,0.031l-0.029,0.029l-0.076-0.008l-0.179-0.094l-0.037-0.06l0.016-0.026h0.045l0.021-0.023l0.034,0.003l0.034,0.031l0.052,0.018l0.024-0.008l-0.008-0.023l-0.024-0.01l-0.031-0.031l-0.008-0.034l-0.1-0.099l0.008-0.034l0.037-0.01v-0.026l-0.029-0.016l-0.045,0.029l-0.008-0.018l0.016-0.026l-0.018-0.023L1116.842,453.381L1116.842,453.381z M1115.609,449.325l-0.003-0.049l0.013-0.021l0.018,0.008l0.003,0.034l-0.01,0.026L1115.609,449.325L1115.609,449.325z M1117.196,452.627l0.068-0.013l0.087-0.062h0.053l0.126,0.088l-0.01,0.016l-0.113-0.049l-0.052,0.003l-0.1,0.055l-0.063-0.01L1117.196,452.627L1117.196,452.627z M1116.889,454.549l-0.024-0.029l-0.003-0.049l0.01-0.021l0.063,0.003l0.016,0.018l-0.013,0.018h-0.032l-0.01,0.023l0.008,0.034L1116.889,454.549L1116.889,454.549z M1117.362,454.677l-0.026-0.021h-0.034l-0.005-0.023l0.045-0.047l0.06-0.021l0.152,0.055l0.074,0.057l0.013,0.042l0.026,0.021l0.037,0.008l0.016,0.018l-0.06-0.003l-0.037-0.023l-0.013-0.042l-0.045-0.023l-0.082,0.005l-0.076,0.06l-0.039-0.016L1117.362,454.677L1117.362,454.677z M1117.409,454.453l-0.081-0.026l-0.06-0.049l-0.01-0.075l0.018-0.086l-0.029-0.023l-0.055-0.003l-0.042-0.036l0.016-0.07l0.037-0.013l0.071,0.023l0.008,0.029l-0.01,0.031l0.01,0.021l0.024,0.003l0.063,0.049l0.018,0.042l0.042,0.013l0.068-0.018l0.052,0.013l0.037,0.062l-0.008,0.049l-0.063,0.049L1117.409,454.453L1117.409,454.453z M1114.364,457.503l0.007-0.076l0.062-0.066l0.122-0.017l0.076,0.017l0.007,0.038l-0.052,0.052l-0.066,0.007l-0.045-0.014l-0.035,0.017l-0.038,0.045L1114.364,457.503L1114.364,457.503z M1113.819,455.109l-0.038-0.056l-0.014-0.08l0.01-0.056l-0.031-0.059l0.014-0.035l0.049-0.003l0.056,0.052l0.035,0.122l0.01,0.066l-0.021,0.038L1113.819,455.109L1113.819,455.109z M1113.996,455.234l0.003-0.073l0.052-0.066l0.076-0.021l0.028-0.042l0.004-0.069l0.059-0.024l0.09,0.014l0.049,0.063l0.108,0.045l0.069,0.003l0.129,0.056l0.083-0.003l0.083,0.042l0.007,0.104l-0.049,0.08l-0.129,0.003l-0.08-0.024l-0.056-0.049l-0.191-0.056l-0.104,0.014l-0.108,0.076l-0.066-0.021L1113.996,455.234L1113.996,455.234z M1113.346,455.891l-0.042-0.049l0.014-0.049l0.083-0.035l0.028-0.036l0.023-0.066l0.016,0.005l0.012,0.05l0.026,0.002l0.004-0.038l0.024-0.031h0.028l0.003,0.045l0.035,0.003l0.049-0.028l0.024,0.01l-0.009,0.036l0.009,0.028l0.036,0.005l0.014,0.057l-0.064,0.071l-0.083,0.003l-0.049,0.042l-0.031,0.059h-0.038l-0.038-0.063L1113.346,455.891L1113.346,455.891z M1114.01,456.899l-0.118-0.056l-0.111-0.09l-0.049-0.125v-0.076l0.052-0.125l0.007-0.073l-0.028-0.069l0.014-0.066l0.056-0.038l0.01-0.031l-0.031-0.035l0.007-0.059l0.038-0.028l0.028-0.056l-0.007-0.059l-0.049-0.024l-0.024-0.035l0.049-0.035l0.031,0.007l-0.004,0.035l0.049,0.059h0.066l0.122,0.045l0.028-0.01l0.01-0.073l0.038-0.056l0.115-0.059l0.104-0.118l0.142-0.045l0.069-0.059l0.112-0.014l0.056,0.021l0.038,0.052l0.017-0.007l-0.007-0.028l0.035-0.014l0.069,0.007l0.059,0.042l0.069,0.014l0.087,0.069l0.045,0.118l0.024,0.035l0.073,0.017l0.111,0.066l0.076,0.003l0.045-0.028l0.031-0.003l0.049,0.017l0.142,0.083l0.108,0.139l0.077,0.052l0.087,0.09l0.052,0.035l0.083,0.069l0.042,0.007l0.028,0.024v0.028l0.059,0.021l0.049-0.017l0.031-0.056l0.035,0.003l0.142,0.153l0.049,0.101l-0.014,0.16l-0.042,0.049l-0.066,0.003l-0.104,0.052l-0.028,0.056l-0.056,0.024l-0.045-0.024l-0.125,0.003l-0.059,0.024l-0.049-0.003l-0.069-0.069l-0.115-0.056l-0.264-0.028l-0.087,0.035l-0.17,0.021l-0.125-0.01l-0.129-0.038l-0.146,0.003l-0.132,0.059l-0.076,0.094l-0.073,0.003l-0.042-0.031l-0.062,0.007l-0.059,0.045l-0.142,0.003l-0.153-0.042L1114.01,456.899L1114.01,456.899z M1113.034,450.671l-0.053-0.017l-0.059,0.003l-0.025-0.017l0.031-0.021l0.07,0.003l0.042,0.031L1113.034,450.671L1113.034,450.671z M1112.415,451.648l-0.026-0.021l-0.013-0.068l0.029-0.047l0.102-0.073h0.032l0.055,0.049l0.024-0.016l0.003-0.044l0.024-0.049l0.063-0.052l0.037-0.068l0.037-0.021l0.047,0.01l0.005,0.031l-0.021,0.042l-0.034,0.01l-0.016,0.031l0.003,0.06l-0.066,0.088l-0.11,0.044l-0.11,0.049l-0.034,0.039L1112.415,451.648L1112.415,451.648z M1113.09,451.006l0.052-0.055l0.005-0.042l0.039-0.039l0.092-0.005l0.034,0.023l-0.034,0.122l-0.029,0.039l-0.06,0.005l-0.034,0.029l-0.05,0.005l-0.071-0.049l0.003-0.021L1113.09,451.006L1113.09,451.006z M1115.007,452.043l0.021-0.043v-0.028l0.02-0.041l-0.013-0.053l0.001-0.03l0.015-0.026l0.017-0.001l0.014,0.046l0.029,0.035l0.003,0.057l-0.017,0.021l-0.043,0.025l-0.04,0.046L1115.007,452.043L1115.007,452.043z M1113.792,450.961l-0.012-0.078l0.019-0.12l0.03-0.104l0.019-0.003l0.032,0.064l-0.007,0.042l-0.021,0.023l0.002,0.021l0.051,0.024l0.005,0.029l-0.014,0.003l-0.053-0.024l-0.017,0.019l-0.005,0.059l-0.012,0.045H1113.792L1113.792,450.961z M1113.99,450.727l-0.023-0.017l-0.005-0.05l-0.035-0.035l-0.005-0.062l-0.039-0.082l-0.025-0.002l-0.028,0.057l-0.023,0.003l-0.012-0.036l0.037-0.118l-0.014-0.135l0.002-0.04l0.037-0.049l0.005-0.042l-0.004-0.035l0.014-0.01l0.033,0.021h0.028l0.025-0.01l0.014,0.007l-0.019,0.035l-0.023,0.023l-0.004,0.059l0.039,0.101l0.033,0.012l0.012,0.047l-0.018,0.028v0.036l0.026,0.019l-0.003,0.028l-0.026,0.026l-0.003,0.064l0.025,0.035l0.007,0.036l-0.014,0.087H1113.99L1113.99,450.727z M1114.322,451.723l-0.008-0.011l0.007-0.012l0.057-0.004l0.015,0.014l-0.008,0.014l-0.036,0.006L1114.322,451.723L1114.322,451.723z M1113.337,452.52l-0.026-0.034l-0.005-0.047l0.016-0.029l0.039,0.003l0.013,0.029l0.008,0.055l-0.005,0.026L1113.337,452.52L1113.337,452.52z M1113.471,452.949l-0.024-0.036l0.008-0.021h0.026l0.021,0.023v0.031L1113.471,452.949L1113.471,452.949z M1113.529,452.874l0.026-0.008l0.063,0.016l0.037-0.003l0.024-0.023l0.042-0.001l0.029,0.006l0.079,0.086l0.024,0.042l-0.013,0.026l-0.05,0.013l-0.058-0.005l-0.034,0.026l-0.05,0.005l-0.055-0.016l-0.045-0.052l-0.018-0.065V452.874L1113.529,452.874z M1113.482,452.845l0.013-0.023l0.037-0.003l0.011,0.021l-0.029,0.013L1113.482,452.845L1113.482,452.845z M1113.109,452.507l-0.139,0.013l-0.066,0.023l-0.087-0.018l-0.047-0.052l-0.052-0.091l0.005-0.031l0.089-0.013l0.037-0.021l-0.005-0.026l-0.066-0.044l-0.034-0.06l-0.058-0.026v-0.031l0.045-0.016l0.005-0.026l-0.024-0.029l0.008-0.06l0.058-0.057l0.018-0.081l-0.021-0.029l0.005-0.036l0.018-0.021l-0.003-0.042l-0.021-0.016l-0.047-0.01l-0.003-0.036l0.047-0.075l0.068-0.042l0.055-0.008l0.021,0.01h0.042l0.05-0.016l0.126-0.003l0.021-0.031h0.037l0.06,0.055l0.026,0.049l0.071,0.008l0.047-0.031l0.026,0.013l-0.018,0.047l-0.06,0.026l-0.074-0.008l-0.018,0.016v0.034l-0.021,0.055l-0.008,0.047l0.013,0.023l0.031-0.005l0.018,0.023l-0.003,0.034l0.063,0.065l-0.005,0.042l0.013,0.029l-0.008,0.021l-0.045,0.016l-0.029,0.044l0.008,0.075l0.018,0.029l0.005,0.068l-0.032,0.021l-0.029,0.052l0.003,0.031l0.016,0.023l-0.021,0.01l-0.05-0.01l-0.05,0.018l-0.01,0.023v0.039L1113.109,452.507L1113.109,452.507z M1112.972,453.464l-0.058-0.06l-0.016-0.122l0.039-0.096l0.097-0.075l0.021-0.034v-0.06l0.031-0.047l-0.016-0.026l-0.039-0.016l-0.011-0.039l0.042-0.023l0.031-0.034l0.097-0.016l0.042,0.016l0.06,0.052l-0.01,0.026h-0.079l-0.018,0.023l0.034,0.086l0.074,0.039l0.06,0.013l0.029,0.047l-0.003,0.057l-0.021,0.029l0.008,0.099l0.053,0.083l0.05,0.018l0.058,0.088l-0.016,0.034l-0.068,0.031l-0.066-0.003l-0.087-0.07l-0.073-0.036l-0.06-0.003l-0.032,0.029l-0.06,0.016L1112.972,453.464L1112.972,453.464z M1115.247,453.795l-0.084,0.018l-0.103,0.013l-0.052-0.005l0.016-0.021l0.058-0.003l0.021-0.016l-0.097-0.021l-0.066,0.005l-0.097-0.044l-0.01-0.055l-0.024-0.023l-0.037-0.008l-0.045-0.075l0.003-0.034l0.026-0.036l0.003-0.034l-0.053-0.091l-0.058-0.016l-0.026,0.008l-0.024,0.036l-0.071,0.044l-0.124,0.013l-0.158,0.088l-0.097,0.031l-0.071,0.065l-0.05-0.003l-0.018-0.031l0.003-0.057l-0.008-0.042l-0.039-0.039l-0.037-0.099l0.003-0.073l0.055-0.148l0.076-0.109l0.003-0.083l-0.013-0.021l-0.042-0.008l-0.05,0.005l-0.06-0.034l-0.013-0.031l-0.039-0.021l-0.026,0.021l-0.042-0.026l-0.026-0.055l-0.037-0.039l-0.021,0.003l-0.005,0.023l-0.021,0.003l-0.037-0.016l-0.016-0.031v-0.047l-0.097-0.117l-0.087-0.052l-0.013-0.039l0.013-0.021l-0.008-0.031l-0.047-0.057l-0.005-0.065l0.01-0.075l0.026-0.01l0.045,0.005l0.037-0.018v-0.044l0.021-0.029l0.026-0.003l0.01-0.023l-0.026-0.031l0.003-0.026l0.031-0.018l0.008-0.031l-0.081-0.135l-0.005-0.042l0.018-0.003l0.029,0.021l0.066-0.018l0.042-0.049h0.031l0.053,0.049l0.029,0.052l0.039,0.016l0.034,0.042l0.008,0.031l-0.016,0.026l0.016,0.052l0.052,0.068l0.066,0.044l0.045-0.01l0.068-0.086l0.016-0.036l-0.024-0.049l0.024-0.099l0.058-0.021l0.053-0.044l0.013-0.055l0.026-0.034l0.034,0.003l0.037,0.042l0.084,0.008l0.047,0.023l0.021,0.044l-0.01,0.039l0.047,0.065l-0.008,0.029l0.016,0.018l0.042,0.003l0.042,0.039l-0.008,0.049l0.024,0.039l0.074,0.01l0.058,0.049l0.005,0.036l0.042,0.029l0.052,0.01l0.034,0.042l-0.008,0.047l-0.031,0.044l-0.018,0.06l-0.11,0.109l-0.05,0.101l-0.042,0.031l-0.045,0.016l-0.037,0.042l-0.003,0.114l0.013,0.055l0.05,0.018l0.071-0.016l0.042,0.013l0.029,0.075l-0.01,0.073l0.026,0.086l0.05,0.047l0.068,0.013l0.092-0.052l0.116-0.029l0.045,0.016l0.034-0.005l0.058-0.039h0.089l0.068,0.062l0.045,0.008l0.042,0.031l0.005,0.029l0.021,0.005l0.029-0.021l0.032,0.01l0.031,0.057l-0.01,0.052l0.016,0.029l0.039,0.023l0.052,0.078l-0.013,0.018l-0.05-0.016l-0.01,0.018l0.034,0.047l-0.008,0.018l-0.037-0.003l-0.021,0.034l0.008,0.029l-0.026,0.026l-0.039,0.003l-0.045,0.026l-0.021,0.047l-0.05,0.031l-0.058,0.008L1115.247,453.795L1115.247,453.795z M1141.174,472.464l-0.031-0.01v-0.034l0.031-0.026h0.024l0.005,0.031L1141.174,472.464L1141.174,472.464z M1141.095,472.221l-0.003-0.031l0.047-0.034h0.097l0.003,0.026l-0.073,0.034L1141.095,472.221L1141.095,472.221z M1141.158,471.894l0.039-0.016l0.039,0.026l-0.005,0.034l-0.055,0.026l-0.034-0.005L1141.158,471.894L1141.158,471.894z M1140.689,470.67l-0.034-0.031l-0.01-0.024l0.018-0.013l0.039,0.008l0.029,0.044l-0.01,0.021L1140.689,470.67L1140.689,470.67z M1140.466,470.662l-0.024-0.044l0.01-0.037l0.045,0.003l0.039,0.024l-0.003,0.034l-0.034,0.029L1140.466,470.662L1140.466,470.662z M1140.117,470.607l0.003-0.06l0.031-0.047l0.102-0.047l0.052-0.068l0.066-0.021l0.079,0.05l0.013,0.092l-0.031,0.06l-0.063,0.05l-0.079,0.016l-0.05,0.039l-0.055,0.003L1140.117,470.607L1140.117,470.607z M1140.123,470.432l0.005-0.029l0.05-0.029l0.039,0.008l-0.003,0.024l-0.045,0.018l-0.029,0.016L1140.123,470.432L1140.123,470.432z M1139.174,471.183l0.005-0.078l-0.026-0.089l0.021-0.047l0.052-0.005l0.034,0.034l0.031,0.089l-0.013,0.05l-0.089,0.065L1139.174,471.183L1139.174,471.183z M1139.197,471.551l-0.052-0.034l-0.005-0.031l0.042-0.029l0.087-0.031l0.042-0.071l0.013-0.065l0.06-0.05l0.105,0.018l0.034,0.044l-0.016,0.055l-0.081,0.071l-0.079,0.026l-0.058,0.047l-0.005,0.029l-0.037,0.029L1139.197,471.551L1139.197,471.551z M1138.922,472.119l0.016-0.12l0.037-0.037h0.092l0.079,0.052l0.01,0.092l-0.024,0.058l0.005,0.047l-0.029,0.031l-0.071,0.003l-0.063,0.018l-0.045-0.024L1138.922,472.119L1138.922,472.119z M1140.079,475.494l0.007-0.066l-0.007-0.042l0.018-0.042h0.045l0.042,0.077l-0.021,0.052l-0.046,0.035L1140.079,475.494L1140.079,475.494z M1139.995,475.644l0.063-0.084l0.042-0.003l0.112,0.052l0.052,0.073v0.038l-0.066,0.059l-0.045,0.003l-0.021-0.024l0.024-0.049l-0.031-0.021l-0.087,0.014l-0.042-0.01V475.644L1139.995,475.644z M1140.394,476.167l0.024-0.021h0.084l0.066-0.042l0.028-0.042l0.073-0.049l0.073,0.007l0.021,0.035l-0.024,0.021l-0.046-0.003l-0.105,0.063l-0.08,0.08l-0.052-0.01L1140.394,476.167L1140.394,476.167z M1140.785,476.08l0.014-0.021l0.049,0.031l0.077,0.014l0.059-0.003l0.014,0.021l-0.087,0.021l-0.084-0.021L1140.785,476.08L1140.785,476.08z M1140.18,476.285l0.024-0.038l0.035-0.01l0.01,0.024l-0.021,0.031l-0.031,0.01L1140.18,476.285L1140.18,476.285z M1140.013,476.864l0.056-0.038l0.094,0.004l0.038,0.035l-0.021,0.056l-0.052,0.017l-0.105-0.01l-0.024-0.021L1140.013,476.864L1140.013,476.864z M1140.044,475.319l-0.101,0.066l-0.049-0.003l-0.046-0.07l-0.031,0.003l-0.007,0.024l0.052,0.07l0.01,0.049l-0.014,0.038l-0.161,0.084l-0.01,0.035l0.038,0.042v0.031l-0.077,0.028l-0.066,0.084l-0.01,0.063l0.045,0.024l0.01,0.031l-0.094,0.087l-0.105,0.08l-0.28,0.08l-0.154,0.115l-0.01,0.07l-0.035,0.007l-0.087-0.08l-0.038-0.129l-0.126-0.119l-0.115-0.021l-0.094-0.077l-0.056-0.174l0.01-0.08l0.087-0.188l0.035-0.272l0.028-0.523l0.049-0.143l0.028-0.007l0.035,0.042l0.018,0.052l0.073,0.031l0.091-0.028l0.101,0.042l0.007,0.063l0.028,0.052h0.035l0.007-0.101l-0.119-0.126l-0.056-0.024l-0.073,0.028l-0.084-0.007l-0.059-0.087l-0.017-0.14l0.028-0.119l0.035-0.178l-0.017-0.171l-0.119-0.262l-0.024-0.146l0.028-0.021l0.14,0.056l0.017,0.052l0.115,0.101l0.189,0.07l0.161,0.133l0.07,0.094l0.056,0.014l0.024,0.049l-0.035,0.031v0.066l0.049,0.129l0.147,0.112l0.087,0.007l0.028-0.024l-0.052-0.115l0.052-0.153l0.143-0.126l0.091-0.035l0.059,0.017l0.056,0.073l0.084,0.007l0.049,0.035l0.031,0.091l0.07,0.08l0.105,0.042l0.126,0.08l0.031,0.15l-0.042,0.105l0.031,0.031l0.08-0.059l0.035-0.003l0.035,0.035l-0.066,0.115l-0.059,0.045l-0.119,0.133l-0.066,0.01l-0.08-0.035l-0.14-0.024l-0.049,0.017l-0.028,0.052l0.014,0.087l0.038,0.049l0.098-0.007l0.031,0.024l-0.014,0.066l-0.056,0.024l-0.031,0.091L1140.044,475.319L1140.044,475.319z M1139.506,474.043l-0.017-0.042l-0.087-0.084l-0.042,0.007l-0.066-0.021l-0.042-0.087l-0.129-0.108l-0.021-0.059l-0.087-0.045h-0.108l-0.046-0.042l0.004-0.066l0.098-0.091v-0.045l-0.035-0.017l-0.105,0.028l-0.035,0.031l-0.042-0.003l-0.073-0.087l-0.014-0.08l0.028-0.087l0.017-0.16l0.073-0.08l0.035,0.01v0.059l0.042,0.031l0.073-0.003l0.063-0.063l0.066,0.004l0.035,0.042l0.014,0.108l0.063,0.035l0.08-0.038l0.01,0.024l-0.105,0.098l-0.066,0.094l0.021,0.07l0.112,0.045l0.143,0.115l0.056,0.129l0.049,0.042l0.077,0.007l0.098,0.052l0.105,0.126l-0.004,0.042l-0.15,0.108l-0.07,0.08l-0.028-0.007L1139.506,474.043L1139.506,474.043z M1139.457,474.238v-0.042l0.025-0.024l0.028,0.01v0.038l-0.017,0.024L1139.457,474.238L1139.457,474.238z M1139.52,474.304l0.003-0.031l0.025-0.007l0.024,0.021l-0.007,0.038h-0.028L1139.52,474.304L1139.52,474.304z M1141.41,473.691l-0.003-0.047l0.034-0.073h0.029l0.016,0.034l-0.026,0.065l-0.026,0.026L1141.41,473.691L1141.41,473.691z M1140.582,475.661l0.004-0.059l-0.021-0.077l0.021-0.038l0.077-0.031l0.073-0.146l0.028-0.188l0.035-0.077l0.077-0.017l0.052,0.01l0.028,0.042l0.07,0.031l0.07-0.014l0.052,0.024l0.038,0.084l-0.028,0.035l-0.087-0.021l-0.052,0.024l-0.038,0.066l0.003,0.084l-0.028,0.08l-0.063,0.08l-0.119,0.171l-0.052,0.045l-0.073-0.028L1140.582,475.661L1140.582,475.661z M1140.841,474.957l-0.063,0.007l-0.056-0.042l-0.017-0.136l-0.038-0.056l-0.042-0.021l0.014-0.063l0.08-0.091l0.066-0.021l0.087,0.017l0.119,0.105l0.021,0.112l0.052,0.031l-0.004,0.056l-0.098,0.115l-0.049,0.017L1140.841,474.957L1140.841,474.957z M1141.121,474.873v-0.059l0.031-0.038l0.056-0.014l0.063-0.084l0.07-0.01l0.035,0.028l-0.003,0.059l-0.084,0.15l-0.021,0.042l-0.031,0.007l-0.025-0.042L1141.121,474.873L1141.121,474.873z M1141.012,474.468l-0.042,0.003l-0.031-0.073l0.014-0.122l0.056-0.063l0.035-0.007l0.007,0.098l-0.031,0.101L1141.012,474.468L1141.012,474.468z M1141.152,474.179v-0.077l0.07-0.08l0.052-0.038l0.038,0.007v0.052l-0.08,0.136l-0.045,0.017L1141.152,474.179L1141.152,474.179z M1141.114,474.412l-0.028-0.056l-0.004-0.084l0.024-0.038l0.031,0.01l0.021,0.098l-0.017,0.056L1141.114,474.412L1141.114,474.412z M1141.208,474.538l0.021-0.063l-0.01-0.084l-0.025-0.049l0.025-0.094l0.115-0.133l0.035-0.077l0.01-0.091l0.038-0.035l0.119,0.01l0.066,0.091l-0.017,0.15l-0.105,0.157l-0.063,0.174v0.077l-0.024,0.049l-0.046,0.003l-0.119-0.042L1141.208,474.538L1141.208,474.538z M1139.761,473.869v-0.021h0.029l0.05,0.021l0.003,0.024l-0.039,0.013L1139.761,473.869L1139.761,473.869z M1140.563,474.248l-0.042-0.003l-0.034-0.042l-0.081-0.031l-0.073,0.01l-0.068-0.029l-0.092-0.086l-0.031-0.071l-0.066-0.039l-0.05,0.005l-0.037-0.018l-0.042-0.076l-0.066-0.037l-0.131-0.013l-0.034-0.026l-0.021-0.042l-0.092-0.068l-0.084-0.013l-0.058-0.042l-0.055-0.112l-0.084-0.084l-0.092-0.071l-0.018-0.063l0.024-0.118l0.06-0.034l0.003-0.037l-0.026-0.052l0.01-0.031l0.094-0.039l0.003-0.029l-0.024-0.018l0.008-0.042l0.052-0.06l0.042-0.141l-0.01-0.039l-0.113-0.058l-0.016-0.052l0.021-0.044l0.118-0.055l0.024-0.05l-0.008-0.052l0.045-0.044l0.071-0.005l0.016-0.034l-0.026-0.029l0.01-0.052l0.076-0.063l0.003-0.029l-0.058-0.052h-0.039l-0.079,0.065l-0.029,0.003l-0.016-0.026l0.013-0.05l-0.031-0.029l-0.068-0.021l-0.121-0.013l-0.052,0.005l-0.092-0.047l-0.068-0.089l0.008-0.073l0.066-0.112l0.05-0.005l0.087,0.05l0.047,0.003l0.029,0.018l0.013,0.034l0.068,0.037l0.042,0.052l0.055,0.024l0.079-0.031l0.005-0.039l-0.034-0.058l0.026-0.055l0.094-0.047l0.087-0.081l0.079-0.146l0.016-0.081l0.047-0.086l0.005-0.065l0.021-0.003l0.029,0.068l0.05,0.008l0.055-0.05l0.008-0.044l0.024-0.016l0.052-0.003l0.013-0.047l-0.016-0.037l-0.092-0.024l-0.003-0.042l0.042-0.068l0.013-0.073l-0.026-0.052l0.01-0.042l0.055-0.018l0.115,0.042l0.06-0.003l0.06-0.047l0.066,0.018l0.1,0.003l0.073,0.029l0.039,0.092v0.112l0.024,0.016l0.024-0.021l0.031,0.01l0.034,0.055l0.076,0.034l0.008,0.065l-0.01,0.044l-0.026-0.003l-0.037-0.026l-0.018,0.016l0.035,0.078l-0.015,0.024l-0.078,0.016l-0.021,0.029l0.021,0.024l0.087,0.018l0.152,0.068l0.026,0.044l0.045,0.013l0.052,0.068l0.016,0.073l-0.026,0.018l-0.06,0.01l-0.042,0.05l0.01,0.063l-0.005,0.06l-0.05,0.081v0.024l0.034-0.003l0.024-0.024l0.021,0.01l0.018,0.136l0.037,0.076l-0.013,0.021l-0.06,0.01l-0.087,0.044l-0.034,0.042l0.01,0.024l0.1,0.005l0.121,0.047l0.018,0.026l-0.003,0.112l-0.047,0.052l-0.063,0.016l-0.037-0.031l-0.005-0.029l-0.031-0.005l-0.031,0.031l0.01,0.084l0.047,0.044l0.05,0.013l0.008,0.018l-0.021,0.029l0.008,0.084l-0.021,0.026l-0.094-0.024l-0.118-0.084l-0.068-0.078l-0.081,0.003l-0.115,0.05l-0.068-0.029l-0.066-0.003l-0.01,0.018l0.06,0.013l0.042,0.037l0.06-0.003l0.086-0.039l0.066,0.003l0.031,0.031v0.068l0.068,0.078l0.115,0.052l0.139,0.146l0.039,0.078l0.079,0.076l0.01,0.065l-0.047,0.099l-0.094,0.094l-0.047,0.024l0.008,0.018l0.115-0.024l0.024,0.029l-0.003,0.05l-0.021,0.034l-0.01,0.105l-0.076,0.173l-0.029,0.115l-0.052,0.06l-0.113,0.11l-0.089,0.021l-0.071,0.034L1140.563,474.248L1140.563,474.248z M1140.684,470.816l0.034,0.034l0.026,0.055l-0.024,0.018l-0.045-0.029v-0.037l-0.013-0.034L1140.684,470.816L1140.684,470.816z M1140.845,471.272l-0.011-0.04l0.013-0.015l0.021,0.003l0.007,0.022l-0.008,0.033L1140.845,471.272L1140.845,471.272z M1140.38,475.185l0.008-0.035l0.027-0.012l0.031,0.03l-0.001,0.044l-0.036,0.02L1140.38,475.185L1140.38,475.185z M1141.116,472.499l0.03-0.011l0.009,0.016l-0.015,0.027l-0.025,0.009l-0.014-0.013L1141.116,472.499L1141.116,472.499z M1140.106,471.078l0.011,0.03l-0.016,0.009l-0.027-0.015l-0.009-0.025l0.013-0.014L1140.106,471.078L1140.106,471.078z M1141.049,474.725l-0.014-0.01l0.024-0.021l0.024-0.002l-0.002,0.019L1141.049,474.725L1141.049,474.725z M1141.158,473.253l-0.01-0.013l0.002-0.013l0.019,0.006l0.01,0.013l-0.002,0.014L1141.158,473.253L1141.158,473.253z M1140.409,470.641l0.012,0.019l-0.017,0.012l-0.019-0.005l0.006-0.024L1140.409,470.641L1140.409,470.641z M1140.601,470.713l0.014-0.013l0.02,0.011l0,0.015l-0.025,0.003L1140.601,470.713L1140.601,470.713z M1141.099,472.092l0.014,0.014l-0.001,0.019l-0.017,0.006l-0.017-0.017l0.004-0.014L1141.099,472.092L1141.099,472.092z M1140.03,471.107l-0.002,0.02l-0.015,0.011l-0.015-0.009l0.002-0.025l0.013-0.007L1140.03,471.107L1140.03,471.107z M1140.488,470.531l0.004,0.01l-0.003,0.01l-0.012,0.009l-0.003-0.01l0.001-0.014L1140.488,470.531L1140.488,470.531z M1139.876,475.546l0.007,0.012l-0.014,0.012l-0.011-0.006l0.003-0.019H1139.876L1139.876,475.546z M1141.146,471.998l0.011,0.007v0.012l-0.016,0.002l-0.003-0.012L1141.146,471.998L1141.146,471.998z M1138.883,472.566l0.001,0.014l-0.02,0.015l-0.03-0.005l0.001-0.012l0.021-0.01L1138.883,472.566L1138.883,472.566z M1141.438,472.911l0.014,0.007v0.03l-0.01,0.016l-0.014-0.003l-0.004-0.019L1141.438,472.911L1141.438,472.911z M1139.343,472.271l0.012-0.017l0.024,0.008l0.007,0.033l-0.017,0.015l-0.022-0.007L1139.343,472.271L1139.343,472.271z M1141.432,472.724l-0.012,0.02l-0.023-0.004l-0.008-0.02l0.006-0.023l0.02-0.002L1141.432,472.724L1141.432,472.724z M1139.488,471.735l0.011,0.021l-0.015,0.018l-0.022-0.003l-0.017-0.017l0.008-0.018L1139.488,471.735L1139.488,471.735z M1140.441,470.703l0.014-0.002l0.008,0.012l-0.007,0.013l-0.017,0.001l-0.007-0.013L1140.441,470.703L1140.441,470.703z M1140.541,470.661l0.012-0.003l0.005,0.019l-0.013,0.021l-0.01-0.004l-0.004-0.021L1140.541,470.661L1140.541,470.661z M1141.066,474.448l0.014,0.001l0.005,0.019l-0.009,0.014l-0.012,0l-0.007-0.02L1141.066,474.448L1141.066,474.448z M1141.036,474.411l0.001-0.013l0.016-0.004l0.012,0.011l-0.004,0.016l-0.014,0.002L1141.036,474.411L1141.036,474.411z M1141.158,472.049l0.017,0.024l-0.004,0.021l-0.03,0.003l-0.021-0.028l0.01-0.019L1141.158,472.049L1141.158,472.049z M1141.066,471.719l-0.015-0.01l-0.002-0.022l0.019-0.019l0.012,0.01l-0.005,0.028L1141.066,471.719L1141.066,471.719z M1140.734,470.61l0.017-0.005l0.018,0.013l0.003,0.027l-0.015,0.003l-0.018-0.021L1140.734,470.61L1140.734,470.61z M1140.82,470.568l0.003-0.011l0.015-0.007l0.008,0.01l-0.004,0.013l-0.012,0.006L1140.82,470.568L1140.82,470.568z M1139.955,470.539l0.013,0l0.017,0.015l0,0.014l-0.007,0.008l-0.016-0.016L1139.955,470.539L1139.955,470.539z M1139.955,470.539l0.013,0l0.017,0.015l0,0.014l-0.007,0.008l-0.016-0.016L1139.955,470.539L1139.955,470.539z M1139.912,475.428l0.01,0.01l-0.008,0.018l-0.018-0.003v-0.018L1139.912,475.428L1139.912,475.428z M1141.18,471.847l-0.008-0.01l0.011-0.008l0.012,0.003l-0.001,0.013L1141.18,471.847L1141.18,471.847z M1139.962,470.854l-0.014-0.028l0.037-0.051l0.036-0.013l0.009,0.034l-0.033,0.042L1139.962,470.854L1139.962,470.854z M1141.476,473.467l-0.009-0.023l0.014-0.032l0.026-0.012l0.012,0.026l-0.012,0.035L1141.476,473.467L1141.476,473.467z M1139.968,475.485l0.003-0.034l0.029-0.024l0.037-0.003l0.01,0.018l-0.016,0.05l-0.024,0.005L1139.968,475.485L1139.968,475.485z M1140.719,476.631l0.021-0.01l0.018,0.019l0.005,0.033l-0.024,0.025l-0.015-0.01l-0.007-0.032L1140.719,476.631L1140.719,476.631z M1140.15,476.407l-0.065,0.029l-0.031-0.021l-0.003-0.041l0.025-0.022l0.064,0.01l0.021,0.021L1140.15,476.407L1140.15,476.407z M1131.978,471.591l-0.035-0.017l-0.042-0.146l-0.052-0.031l-0.031-0.042l0.024-0.028l0.062,0.014l0.024,0.031l0.045,0.014l0.056,0.063v0.077L1131.978,471.591L1131.978,471.591z M1131.568,472.016l-0.031-0.01l-0.028-0.056v-0.073l0.042-0.045h0.035l0.021,0.063v0.087L1131.568,472.016L1131.568,472.016z M1132.124,471.333l-0.069-0.028l-0.017-0.07l-0.042-0.052v-0.035l0.031-0.028l0.08,0.021l0.031,0.031l0.004,0.042l0.024,0.01l0.038-0.017l0.024,0.024l-0.028,0.063L1132.124,471.333L1132.124,471.333z M1130.922,469.763l0.024-0.028l0.024,0.007v0.101l-0.028,0.021l-0.028-0.042L1130.922,469.763L1130.922,469.763z M1130.79,470.593l-0.038-0.014l0.004-0.077l0.024-0.129l0.101-0.077l0.049,0.007l0.024,0.084l-0.031,0.115L1130.79,470.593L1130.79,470.593z M1132.489,472.916l0.063-0.004l0.031-0.049l0.031,0.007l-0.014,0.073l-0.059,0.059l-0.045,0.007l-0.035-0.017l-0.003-0.056L1132.489,472.916L1132.489,472.916z M1132.805,472.578l-0.028-0.087l0.014-0.049l0.031-0.007l0.031,0.038v0.073l-0.024,0.035L1132.805,472.578L1132.805,472.578z M1132.868,472.386l-0.052-0.049l-0.01-0.052l0.042-0.01l0.063,0.038l0.028,0.042l-0.024,0.035L1132.868,472.386L1132.868,472.386z M1133.512,471.35l0.004-0.038l0.021-0.028l0.028-0.007l0.014,0.049l-0.038,0.035L1133.512,471.35L1133.512,471.35z M1133.41,471.179l0.031-0.024l0.083-0.031h0.087l0.031,0.031l-0.024,0.045l-0.153,0.017l-0.038-0.01L1133.41,471.179L1133.41,471.179z M1133.367,471.378l-0.004-0.035l0.017-0.024l0.024,0.014l-0.003,0.024l-0.014,0.017L1133.367,471.378L1133.367,471.378z M1133.578,472.702l-0.036-0.039l0.018-0.052l0.016-0.076l-0.026-0.034h-0.036l-0.018,0.037v0.089l-0.031,0.044h-0.026l-0.013-0.026l0.013-0.042l-0.005-0.05l-0.047-0.021l-0.039,0.008l-0.021-0.018l0.01-0.123l0.023-0.076l0.047-0.037l0.01-0.068l-0.013-0.063l-0.042-0.042l-0.013-0.047l0.016-0.102l0.021-0.016l0.029,0.018l-0.003,0.081l0.023,0.05l0.021,0.128l0.023,0.044l0.021-0.01l-0.018-0.165l-0.049-0.162l-0.099-0.107l-0.052-0.01l-0.008-0.018l0.013-0.063l-0.013-0.05l-0.036-0.029l-0.018-0.039l0.005-0.058l-0.018-0.06l-0.07-0.102l0.021-0.005l0.042,0.052l0.073,0.013l0.07,0.037l0.034-0.008l0.01-0.05l0.044-0.044l0.052-0.021l0.021,0.013l-0.013,0.102l0.01,0.071l-0.021,0.021l-0.013-0.018l0.01-0.031l-0.018-0.008l-0.026,0.044l0.016,0.05h0.057l0.05-0.037l0.031-0.005l0.023,0.021l-0.01,0.068l0.026,0.146l0.047,0.084l0.021-0.003l0.008-0.052l0.026-0.003l0.021,0.037l-0.023,0.133l0.018,0.042l0.047,0.003l0.057,0.047l0.029,0.112l-0.01,0.118l-0.044,0.081l-0.047,0.196l-0.044,0.063l-0.073,0.039L1133.578,472.702L1133.578,472.702z M1133.571,471.541l-0.042-0.034v-0.029l0.021-0.008l0.018,0.013l0.013,0.042L1133.571,471.541L1133.571,471.541z M1133.73,471.724l-0.026-0.086l-0.023-0.018h-0.029l-0.023-0.039l-0.013-0.078l0.008-0.102l0.055-0.118l0.104-0.152l0.021-0.003l0.018,0.044l-0.013,0.084l0.013,0.01l0.042-0.076l0.016,0.005l-0.01,0.086l-0.034,0.144l0.005,0.086l0.036,0.099l-0.003,0.094l-0.026,0.044l-0.023-0.01l-0.003-0.052l0.013-0.055l-0.023-0.018l-0.018,0.013l-0.01,0.06l-0.034,0.039L1133.73,471.724L1133.73,471.724z M1133.987,472.878l0.024-0.084l0.059-0.094l0.017-0.098l0.056-0.073l0.003-0.038l-0.045-0.042l-0.003-0.077l0.049-0.094l0.063-0.035l0.028-0.045l-0.003-0.042l0.024-0.07l0.049-0.024l0.021-0.024l-0.007-0.059l0.028-0.066l0.014-0.188l0.056-0.101l0.038-0.028l0.083,0.007l0.035-0.028l0.014-0.063l0.035-0.07v-0.073l0.056-0.174l0.031-0.045l0.052-0.153l0.01-0.133l0.063-0.153v-0.063l0.014-0.042l0.045-0.052l0.035-0.16l0.073-0.171l0.031-0.007l0.017,0.031h0.024l0.031-0.052h0.035l0.09,0.073l0.049,0.091l-0.01,0.063l-0.063,0.07l-0.056,0.15l-0.052,0.303l-0.094,0.342l-0.062,0.119l-0.08,0.087l-0.09,0.042l-0.129,0.129l-0.129,0.188l-0.076,0.077l-0.049,0.115l-0.021,0.178l0.028,0.052l0.01,0.08l-0.031,0.066l-0.062,0.038l-0.049,0.07l-0.028,0.077l-0.076,0.098l-0.059,0.017l-0.028,0.042l-0.042,0.101l-0.042,0.042L1133.987,472.878L1133.987,472.878z M1122.302,467.497l0.023-0.009l0.014,0.026l-0.03,0.04l-0.038,0.01l-0.014-0.014L1122.302,467.497L1122.302,467.497z M1132.944,471.792l0.037,0.017l0.004,0.021l-0.025,0.015l-0.025-0.017l-0.004-0.028L1132.944,471.792L1132.944,471.792z M1133.144,472.13l0.017-0.01l0.016,0.025l-0.003,0.031l-0.02-0.008L1133.144,472.13L1133.144,472.13z M1133.511,470.793l0.019-0.006l0.021,0.023l-0.006,0.026l-0.016,0.001l-0.015-0.022L1133.511,470.793L1133.511,470.793z M1130.886,469.624l-0.015-0.015l0.01-0.014l0.023-0.001l0.02,0.016l-0.005,0.019L1130.886,469.624L1130.886,469.624z M1132.569,472.524l0.012-0.017l0.016,0.007l0.005,0.023l-0.012,0.023l-0.019-0.002L1132.569,472.524L1132.569,472.524z M1132.951,471.27l-0.014-0.009l-0.002-0.013l0.02-0.001l0.013,0.009l0.002,0.014L1132.951,471.27L1132.951,471.27z M1133.202,472.06l0.014,0.014l-0.001,0.019l-0.017,0.006l-0.017-0.017l0.004-0.014L1133.202,472.06L1133.202,472.06z M1133.465,471.316l0.008-0.015l0.017-0.004l0.005,0.011l-0.019,0.014L1133.465,471.316L1133.465,471.316z M1130.067,467.481l0.009-0.006l0.011,0.002l0.011,0.01l-0.01,0.005l-0.014,0.001L1130.067,467.481L1130.067,467.481z M1132.866,471.151h0.014l0.003,0.014l-0.008,0.006l-0.014-0.006L1132.866,471.151L1132.866,471.151z M1129.222,466.739h0.014l0.003,0.014l-0.008,0.006l-0.014-0.006L1129.222,466.739L1129.222,466.739z M1131.728,471.794l0.003-0.012l0.05-0.027h0.012l0.001,0.012l-0.058,0.03L1131.728,471.794L1131.728,471.794z M1133.169,471.757l0,0.024l-0.022,0.008l-0.017-0.014l-0.006-0.023l0.016-0.012L1133.169,471.757L1133.169,471.757z M1133.702,471.789l-0.005,0.023l-0.023,0.004l-0.014-0.016l-0.002-0.023l0.018-0.009L1133.702,471.789L1133.702,471.789z M1132.942,471.877l0.003,0.018l-0.012,0.008l-0.014-0.017l-0.001-0.012l0.014-0.006L1132.942,471.877L1132.942,471.877z M1131.76,471.472l0.007-0.009l0.02,0.004l0.008,0.016l-0.007,0.009l-0.024-0.007L1131.76,471.472L1131.76,471.472z M1130.605,471.328l-0.009-0.007l0.005-0.02l0.016-0.008l0.009,0.007l-0.007,0.024L1130.605,471.328L1130.605,471.328z M1133.651,471.65l0.012-0.006l0.014,0.014l-0.001,0.016l-0.011,0.006l-0.016-0.014L1133.651,471.65L1133.651,471.65z M1133.46,470.808l0.029,0.008l0.01,0.018l-0.021,0.021l-0.034-0.008l-0.005-0.021L1133.46,470.808L1133.46,470.808z M1133.288,471.964l-0.013-0.013l0.002-0.022l0.022-0.016l0.01,0.012l-0.009,0.026L1133.288,471.964L1133.288,471.964z M1130.633,471.619l0.016,0.007l0.006,0.021l-0.016,0.022l-0.013-0.008l0-0.028L1130.633,471.619L1130.633,471.619z M1133.572,471.039l-0.013-0.014l0.013-0.026l0.023-0.006l0.01,0.016l-0.01,0.018L1133.572,471.039L1133.572,471.039z M1133.052,472.275l-0.02,0.009l-0.069-0.042l-0.008-0.028l0.017-0.017l0.033,0.01l0.044,0.04L1133.052,472.275L1133.052,472.275z M1133.031,471.493l-0.012-0.01l-0.003-0.018l0.015-0.004l0.015,0.013l0.001,0.018L1133.031,471.493L1133.031,471.493z M1131.84,471.533l-0.004,0.011l-0.012-0.003v-0.015l0.012-0.004L1131.84,471.533L1131.84,471.533z M1133.041,471.288l-0.004-0.014l0.01-0.012l0.012,0.003l0.006,0.014l-0.01,0.014L1133.041,471.288L1133.041,471.288z M1133.2,471.834l0.019,0.006l0.004,0.018l-0.017,0.008l-0.012-0.008v-0.014L1133.2,471.834L1133.2,471.834z M1130.869,471.386l-0.013-0.033l0.01-0.027l0.021-0.012l0.013,0.024l-0.01,0.035L1130.869,471.386L1130.869,471.386z M1130.869,471.386l-0.013-0.033l0.01-0.027l0.021-0.012l0.013,0.024l-0.01,0.035L1130.869,471.386L1130.869,471.386z M1132.039,471.41l0.023-0.019l0.038,0.018l0.021,0.033l-0.011,0.026l-0.043-0.017L1132.039,471.41L1132.039,471.41z M1131.871,471.808l-0.014-0.007l-0.002-0.035l0.018-0.031l0.012,0.011l-0.002,0.037L1131.871,471.808L1131.871,471.808z M1129.729,467.653l0.017,0.005l0.02,0.02l-0.007,0.015l-0.02-0.003l-0.017-0.022L1129.729,467.653L1129.729,467.653z M1133.045,472.293l0.047,0.008l0.027,0.035l-0.016,0.043l-0.039,0.008l-0.035-0.047L1133.045,472.293L1133.045,472.293z M1133.645,470.968l0.034-0.021l0.02,0.009l-0.011,0.038l-0.031,0.028l-0.027-0.007L1133.645,470.968L1133.645,470.968z M1123.59,467.657l0.025-0.031l0.022,0.002l0.002,0.039l-0.02,0.037l-0.028,0.003L1123.59,467.657L1123.59,467.657z M1122.628,467.385l0.043,0.028l0.002,0.028l-0.037,0.024l-0.031-0.018l-0.002-0.051L1122.628,467.385L1122.628,467.385z M1123.052,467.459l-0.057-0.016l-0.018-0.031l0.021-0.06l0.029-0.01l0.042,0.034l0.008,0.058L1123.052,467.459L1123.052,467.459z M1123.109,467.43l-0.018-0.026v-0.042l-0.021-0.021l0.01-0.021l0.052,0.034l0.008,0.058L1123.109,467.43L1123.109,467.43z M1122.968,467.567l-0.021-0.026l0.034-0.047l0.073-0.003l0.089,0.013l0.076-0.037l0.021-0.097l0.031-0.005l0.034,0.086l-0.01,0.094l-0.062,0.039l-0.073-0.003l-0.042-0.034l-0.089-0.003L1122.968,467.567L1122.968,467.567z M1133.812,471.849l0.017,0.021l0.014,0.08l-0.007,0.066l-0.028-0.01l-0.003-0.084l-0.01-0.052L1133.812,471.849L1133.812,471.849z M1129.793,468.298l-0.007-0.15l-0.017-0.07l0.007-0.024h0.035l0.09,0.091l0.004,0.066l-0.042,0.084l-0.017,0.056l-0.031,0.004L1129.793,468.298L1129.793,468.298z M1129.595,467.447l-0.076-0.038l-0.031-0.042l-0.017-0.091l-0.104-0.213l-0.014-0.045l0.024-0.01l0.059,0.045l0.111,0.206l0.056,0.045l0.014,0.049v0.063L1129.595,467.447L1129.595,467.447z M1129.271,466.952l-0.035-0.07l0.007-0.028l0.042,0.021l0.038,0.063l-0.014,0.031L1129.271,466.952L1129.271,466.952z M1127.975,465.626l-0.066-0.052l-0.028-0.101l-0.052-0.091l0.017-0.042l0.049-0.007l0.073,0.042l0.021,0.056l-0.014,0.07l0.017,0.105L1127.975,465.626L1127.975,465.626z M1128.635,465.679l-0.059-0.091l-0.059-0.15l-0.07-0.115l0.014-0.045l0.108-0.07l0.056,0.014l0.024,0.077l0.052,0.101v0.091l0.038,0.126l-0.014,0.059l-0.031,0.021L1128.635,465.679L1128.635,465.679z M1128.118,465.689h0.052l0.094,0.052l0.035,0.056l0.049,0.042l0.052,0.01l0.097,0.059l0.08,0.112l-0.007,0.045l-0.038,0.01l-0.066-0.031l-0.021-0.059l-0.129-0.08l-0.083-0.004l-0.062-0.031l-0.073-0.14L1128.118,465.689L1128.118,465.689z M1126.79,464.957l0.049-0.021l0.059,0.017l0.007,0.035l-0.038,0.035l-0.09,0.01l-0.021-0.024L1126.79,464.957L1126.79,464.957z M1126.231,462.875l-0.003-0.059l0.035-0.024h0.052l0.049,0.038l0.007,0.049l-0.031,0.038l-0.059-0.004L1126.231,462.875L1126.231,462.875z M1139.368,474.133l-0.004-0.07l0.026-0.016l0.021,0.01l0.024,0.106l-0.009,0.033l-0.028,0.005L1139.368,474.133L1139.368,474.133z M1139.445,474.069l-0.035-0.045l-0.005-0.035l0.012-0.012l0.028,0.016l0.021,0.04l-0.004,0.028L1139.445,474.069L1139.445,474.069z M1119.913,460.851l0.012,0.008l-0.003,0.018l-0.011,0.001l-0.007-0.018L1119.913,460.851L1119.913,460.851z M1119.68,460.756h0.014l0.003,0.014l-0.008,0.006l-0.014-0.006L1119.68,460.756L1119.68,460.756z M1119.596,460.695l0.01-0.031l0.035-0.014l0.014,0.024l-0.031,0.028L1119.596,460.695L1119.596,460.695z M1119.758,460.741l0.005-0.013l0.019,0.002l0.01,0.013l-0.004,0.012l-0.022,0L1119.758,460.741L1119.758,460.741z M1116.496,462.86l-0.016-0.004l0.006-0.026l0.021-0.022l0.009,0.009l-0.006,0.02L1116.496,462.86L1116.496,462.86z M1116.572,462.546l-0.015-0.011l0.009-0.028l0.021-0.01l0.013,0.014l-0.007,0.02L1116.572,462.546L1116.572,462.546z M1116.171,461.665l0.019-0.003l0.006,0.02l-0.018,0.052l-0.018,0.001l-0.009-0.026L1116.171,461.665L1116.171,461.665z M1126.706,464.974l0.003-0.011l0.015-0.007l0.008,0.01l-0.004,0.013l-0.012,0.006L1126.706,464.974L1126.706,464.974z M1118.242,464.038l0.016,0.002l0.014,0.032l-0.006,0.035l-0.015-0.007l-0.011-0.035L1118.242,464.038L1118.242,464.038z M1117.509,464.046l-0.003-0.037l0.031-0.044l0.01-0.05l-0.021-0.029l0.008-0.058l0.029-0.037l-0.003-0.063l-0.018-0.037l0.029-0.063l0.133-0.042l0.18,0.018l0.18,0.102l0.073,0.131l-0.01,0.058l-0.117,0.073l-0.154,0.021l-0.091-0.01l-0.078,0.01l-0.102,0.047L1117.509,464.046L1117.509,464.046z M1118.825,464.248l-0.021-0.084l0.016-0.073l0.036-0.024h0.06l0.07,0.029l0.018,0.089l-0.01,0.058l-0.086,0.029L1118.825,464.248L1118.825,464.248z M1118.361,463.971l-0.042-0.042l-0.044-0.013l-0.005-0.021l0.044-0.018v-0.018l-0.042-0.016l-0.026-0.026l-0.003-0.037l-0.047-0.05l-0.078-0.024l-0.052-0.06v-0.047l0.036-0.065l0.06-0.01l0.086,0.024l0.078,0.05l0.029,0.042l0.036,0.021h0.044l0.07,0.031l0.042-0.003l0.013-0.018l-0.005-0.092l0.031-0.058l0.057,0.005l0.044,0.052l0.018,0.081l0.021,0.071l0.01,0.201l-0.036,0.058h-0.026l-0.018-0.047l-0.089-0.084l-0.086-0.037l-0.049,0.005l-0.01,0.018l0.036,0.042v0.063l-0.036,0.065h-0.042L1118.361,463.971L1118.361,463.971z M1116.738,462.466l-0.049,0.052l-0.045,0.003l-0.014-0.024l0.007-0.035l-0.028-0.063l0.024-0.16l0.024-0.028l0.042,0.007l0.042-0.049l0.003-0.115l-0.017-0.108l-0.059-0.035l-0.073,0.01l-0.073,0.059l-0.045,0.087l-0.073,0.073l-0.059,0.021l-0.028,0.056l-0.007,0.073l-0.049,0.164v0.059l-0.038,0.174l0.014,0.052v0.07l-0.049,0.153l-0.115,0.122h-0.087l-0.042,0.031l-0.045,0.087l-0.003,0.066l-0.017,0.066l-0.066,0.08l-0.021,0.129l0.049,0.073v0.038l-0.056,0.031l-0.024,0.073l-0.038,0.028l-0.028-0.014l-0.004-0.077l-0.073-0.146l0.021-0.143l0.101-0.244l0.038-0.084v-0.094l-0.083-0.213l-0.104-0.08l-0.059-0.167l-0.007-0.112l-0.021-0.063l-0.083-0.063v-0.028l0.118-0.021h0.104l0.139-0.084l0.017-0.056l0.045-0.045l0.069-0.021l0.028-0.07l0.045-0.028l0.202,0.01l0.09,0.01l0.135-0.042l0.017-0.042l-0.021-0.08l0.003-0.087l0.035-0.031l0.007-0.042l-0.031-0.063h-0.031l-0.021,0.038l-0.083-0.003l-0.01-0.038l0.042-0.045l0.097-0.024l0.077-0.052l0.017-0.056l-0.024-0.052l0.01-0.045l0.094-0.066l0.01-0.049l0.035-0.021l0.076,0.007l0.16-0.049h0.077l0.062,0.031l0.299,0.007l0.073,0.021h0.101l0.111-0.07l0.17-0.01l0.076-0.049h0.104l0.108,0.056l0.254,0.007l0.097-0.035l0.097,0.007l0.087,0.035l0.083,0.014l0.073-0.017l0.083,0.007l0.135,0.042h0.153l0.143-0.042l0.188-0.017l0.254-0.094l0.09-0.087l0.083-0.017l0.066,0.031l0.038,0.112l-0.01,0.174l-0.024,0.065l0.008,0.034l0.042,0.024l0.018,0.047l-0.003,0.037l0.023,0.037l0.081,0.029l0.052,0.042h0.021l0.057-0.055l0.049-0.003l0.057,0.031h0.05l0.008-0.021l-0.042-0.052l0.013-0.026l0.036-0.005l0.039,0.042l0.018,0.039l0.026,0.003l0.005-0.024l-0.016-0.029l0.021-0.044l0.096-0.06l0.143-0.052l0.099-0.081l0.128-0.052l0.076-0.105l0.021-0.078l-0.013-0.044l0.029-0.034l0.052-0.013l0.104,0.003l0.057-0.018l0.175,0.005l0.057,0.026l0.068-0.005l0.031-0.029l-0.005-0.021l0.021-0.01l0.05,0.026l0.021,0.026l0.008,0.034l0.055,0.037l0.109,0.013l0.063-0.026l0.049,0.005l0.029,0.05l0.05,0.021h0.094l0.159,0.039l0.167,0.094l0.081,0.005l0.039,0.031l0.026,0.099l0.042,0.05l0.06,0.005l0.115-0.055l0.076,0.003l0.096,0.073l0.021,0.078l0.096,0.068l0.193,0.081l0.076,0.008l0.068,0.039l0.029,0.039l0.136,0.01l0.106-0.03l0.132-0.003l0.056-0.024l0.083,0.014l0.031,0.031l0.094,0.014l0.101-0.024l0.146-0.077l0.188-0.021l0.132,0.028l0.139,0.07l0.156,0.129l0.038,0.091l0.104,0.052l0.045,0.052l0.014,0.056l0.031,0.014h0.135l0.149,0.087l0.087,0.108l0.059,0.146l0.004,0.087l0.052,0.115l0.014,0.143l-0.024,0.108l0.003,0.091l0.038,0.063l0.028,0.115l0.049,0.042l0.066,0.028l0.101-0.014l0.327,0.01l0.056,0.031l0.045,0.115l0.056,0.045l0.01,0.033l-0.017,0.023l-0.059,0.003l-0.031,0.038l-0.01,0.042l0.049,0.042l0.024,0.073l0.076,0.087l0.073,0.042l0.028,0.052l0.01,0.174l-0.066,0.073l-0.062,0.017l-0.052,0.08l-0.024,0.126l0.014,0.188l0.017,0.063l-0.004,0.101l-0.038,0.094l0.007,0.073l0.052,0.056l0.03,0.021l0.005,0.031l-0.035,0.028l-0.049,0.003l-0.06-0.021l-0.109-0.073l-0.021-0.044l-0.026-0.01l-0.036,0.013l-0.036-0.01l-0.024-0.031l-0.045-0.01l-0.049,0.01l-0.062-0.021l-0.021-0.035l-0.042-0.017h-0.094l-0.132-0.066l-0.028-0.073l-0.115-0.098l-0.024-0.052l-0.073-0.049l-0.236-0.031l-0.042-0.024l-0.132-0.174l-0.081-0.052l-0.073-0.052l-0.107-0.031l-0.068,0.008l-0.086-0.029l-0.036-0.034l-0.307-0.144l-0.142-0.029l-0.094-0.045l-0.094-0.01l-0.059-0.036l-0.076-0.086l-0.132-0.056l-0.17-0.031l-0.149-0.122l-0.066-0.115l0.007-0.094l-0.01-0.101l-0.073-0.077l-0.129-0.049l-0.132,0.003l-0.278-0.052l-0.083,0.01l-0.125-0.004l-0.059-0.035l-0.056-0.007l-0.181,0.024l-0.285-0.021l-0.195-0.056h-0.069l-0.059,0.066l0.003,0.042l0.149,0.181l0.073,0.136l-0.003,0.136l-0.056,0.066l-0.066,0.007l-0.156-0.045l-0.101-0.07l-0.198-0.077l-0.149-0.024l-0.118,0.021l-0.208-0.021l-0.243-0.063l-0.052,0.01l-0.066-0.031l-0.021-0.056l-0.111-0.042l-0.049,0.004l-0.042-0.014l-0.035-0.049l-0.073-0.017l-0.202,0.014l-0.181,0.042h-0.108l-0.108-0.024l-0.028-0.038l0.021-0.084l0.115-0.101l0.035-0.056l0.007-0.119l-0.028-0.073l-0.156-0.077l-0.142-0.003l-0.087,0.035l-0.052,0.084l-0.052,0.045l-0.073,0.004l-0.115,0.059l-0.031,0.052l-0.174,0.129l-0.17,0.178l-0.021,0.052l0.007,0.052l0.083,0.059l0.007,0.038l-0.073,0.066l-0.191,0.003l-0.066-0.021h-0.063l-0.045,0.035l-0.226,0.077l-0.108-0.007l-0.09,0.017l-0.122-0.045l-0.094-0.073l-0.063-0.133l-0.083-0.122l-0.125-0.105l-0.052-0.157l-0.066-0.094l-0.049-0.136l-0.08-0.077l-0.062-0.003l-0.045,0.024l-0.104-0.014L1116.738,462.466L1116.738,462.466z M1114.36,462.613l-0.015,0.01l-0.021-0.006l-0.012-0.025l0.013-0.008l0.024,0.014L1114.36,462.613L1114.36,462.613z M1108.568,462.508l0.019-0.003l0.006,0.02l-0.018,0.052l-0.018,0.001l-0.009-0.026L1108.568,462.508L1108.568,462.508z M1112.834,464.789l0.083-0.052h0.099l0.125,0.068l0.036,0.089l-0.057,0.147l-0.042,0.021l-0.068-0.042l-0.146-0.042l-0.057-0.089L1112.834,464.789L1112.834,464.789z M1115.674,464.346l0.038-0.108l0.149-0.115l0.16-0.192l0.101-0.052l0.222-0.021l0.257,0.01l0.059-0.031l0.118-0.181l0.174-0.126l0.129-0.021l0.188,0.059l0.035,0.063l-0.007,0.063l-0.069,0.059l-0.024,0.049l0.01,0.049l0.108,0.077l0.003,0.056l-0.014,0.052l-0.052,0.007l-0.177-0.038l-0.045-0.024l-0.056,0.007l-0.017,0.035l0.038,0.056l0.101,0.087l0.021,0.098l-0.017,0.024l-0.052,0.007l-0.059,0.045v0.07l-0.129,0.066l-0.132,0.01l-0.052-0.014l-0.09,0.01l-0.031,0.07l-0.045,0.024l-0.15,0.063l-0.028-0.014l0.031-0.056l0.094-0.063l0.045-0.105l0.087-0.101l0.076-0.042l0.052-0.087l0.004-0.028l0.038-0.028l0.073-0.007l0.045-0.042l-0.017-0.024h-0.083l-0.045,0.031l-0.007,0.024l-0.049,0.042l-0.094,0.021l-0.184,0.105l-0.024,0.08l-0.052,0.035l-0.08-0.004l-0.09,0.035l-0.066,0.063l-0.028,0.087l-0.059,0.024l-0.097,0.003l-0.062-0.024l-0.049,0.014l-0.035-0.024l-0.014-0.08l-0.063-0.08L1115.674,464.346L1115.674,464.346z M1114.149,462.913l-0.038-0.063l-0.003-0.056l0.125-0.073l0.031-0.049l0.104-0.021l0.062,0.021l0.125,0.133l0.049,0.014l0.035,0.059v0.052l0.045,0.038l0.045,0.017v0.049l-0.066,0.024l-0.111-0.028l-0.056-0.049l-0.122-0.045l-0.129,0.01L1114.149,462.913L1114.149,462.913z M1112.802,463.047l0.005-0.058l0.042-0.037l0.062-0.005l0.057,0.037l0.156,0.031l0.125,0.073l0.021,0.068l-0.036,0.068l-0.031,0.105l-0.01,0.445l0.021,0.131l-0.047,0.173l-0.083,0.105l-0.12,0.016l-0.177-0.058l-0.073,0.021l-0.042,0.042l-0.068,0.026l-0.125,0.016l-0.172,0.115l-0.089,0.094l-0.333,0.167l-0.182,0.016l-0.214,0.094l-0.089,0.084l-0.099,0.047l-0.094-0.005l-0.073,0.037l-0.057-0.01l-0.031-0.047l-0.125-0.078l-0.281-0.11l-0.109,0.005l-0.073-0.021l-0.047-0.052l-0.38-0.23l-0.162-0.063l-0.135-0.084l-0.135-0.063l-0.109-0.11l-0.109-0.037h-0.115l-0.078-0.099l-0.016-0.162l-0.057-0.105l-0.115-0.084l-0.167-0.078l-0.109-0.173l-0.016-0.094l-0.026-0.068l-0.068-0.052l-0.021-0.126l0.021-0.063l-0.016-0.063l-0.036-0.037l-0.01-0.047l0.042-0.047l0.031-0.136l0.005-0.194l0.089-0.141l0.115-0.047l0.063-0.073l0.068,0.01l0.047,0.115l0.198,0.115l0.177,0.016l0.026-0.037l-0.026-0.094l0.026-0.047l0.099-0.026l0.115-0.11l0.083-0.021l0.115,0.016l0.297-0.058l0.396-0.052l0.573-0.026l0.151-0.031l0.287,0.021l0.313,0.157l0.094,0.099l0.083,0.037h0.156l0.172,0.058l0.354,0.283l0.026,0.152l-0.021,0.037l-0.078-0.016l-0.057-0.037h-0.109l-0.031,0.052l0.021,0.146l0.036,0.037l0.052-0.01l0.026,0.031l-0.021,0.068l0.047,0.068l0.151,0.037L1112.802,463.047L1112.802,463.047z M1115.226,462.299l-0.047-0.031l0.021-0.037l0.125-0.005l0.042,0.031l-0.063,0.047L1115.226,462.299L1115.226,462.299z M1114.668,462.487l0.156-0.131l0.188-0.099h0.089l0.12,0.094l0.036,0.131l-0.026,0.115l-0.036,0.026l-0.109-0.01l-0.146,0.026l-0.151-0.037l-0.115-0.068L1114.668,462.487L1114.668,462.487z M1115.393,461.802l0.005-0.047l0.094-0.058l0.026-0.162l0.104-0.131l0.115-0.042l0.203,0.005l0.057,0.052l-0.005,0.063l-0.083,0.084l-0.047,0.105l-0.13,0.126l-0.099,0.037l-0.167-0.016L1115.393,461.802L1115.393,461.802z M1116.345,461.765l0.024-0.007l0.014,0.024l-0.024,0.045l-0.017-0.003L1116.345,461.765L1116.345,461.765z M1118.123,477.97l0.009-0.043l0.026-0.019l0.023,0.013l0.005,0.035l-0.034,0.029L1118.123,477.97L1118.123,477.97z M1118.137,477.724l0.031-0.028l0.03,0.014l0.003,0.046l-0.033,0.04l-0.021-0.02L1118.137,477.724L1118.137,477.724z M1113.459,478.543l-0.042-0.006l-0.009-0.032l0.033-0.032l0.051,0l-0.002,0.029L1113.459,478.543L1113.459,478.543z M1117.953,481.54l-0.002,0.021l-0.017,0.002l-0.016-0.017l-0.001-0.026l0.017-0.008L1117.953,481.54L1117.953,481.54z M1114.424,478.597l0.007,0.014l-0.012,0.008l-0.014-0.008v-0.014H1114.424L1114.424,478.597z M1114.381,478.507h0.014l0.003,0.014l-0.008,0.006l-0.014-0.006L1114.381,478.507L1114.381,478.507z M1117.566,481.005l0.007-0.014l0.023-0.006l0.031,0.017l-0.004,0.013l-0.033-0.001L1117.566,481.005L1117.566,481.005z M1113.931,478.876l0.005-0.013l0.019,0.002l0.01,0.013l-0.004,0.012l-0.021,0L1113.931,478.876L1113.931,478.876z M1117.546,477.373l0.015-0.002l0.021,0.015l0.005,0.015l-0.017-0.001l-0.021-0.015L1117.546,477.373L1117.546,477.373z M1114.355,478.594l-0.011-0.006l0-0.021l0.007-0.015l0.015-0.014l0.009,0.012l-0.006,0.028L1114.355,478.594L1114.355,478.594z M1118.609,480.939l0.014-0.028l0.063,0.01l0.045,0.05l0,0.034l-0.031,0.005l-0.054-0.024L1118.609,480.939L1118.609,480.939z M1123.575,474.039l-0.036,0.01l-0.039-0.016l-0.022-0.031l0.009-0.016l0.047-0.003l0.047,0.033L1123.575,474.039L1123.575,474.039z M1114.608,478.912l-0.028-0.021v-0.07l-0.052-0.126l0.01-0.035l0.024-0.003l0.094,0.157v0.056L1114.608,478.912L1114.608,478.912z M1113.805,478.992l-0.104,0.017l-0.104-0.049l-0.024-0.08l0.056-0.08l0.09-0.017l0.007-0.031l-0.024-0.063l-0.007-0.171l0.056-0.084l0.062-0.003l0.174,0.063l0.042,0.045l0.056,0.01l0.042-0.035l0.031,0.007l0.01,0.101l-0.028,0.129l-0.104,0.066l-0.101,0.003l-0.056,0.042l-0.017,0.08L1113.805,478.992L1113.805,478.992z M1112.907,480.637l0.013-0.058l-0.039-0.107l0.018-0.052l0.073-0.052l0.081-0.005l0.076,0.024l0.036,0.084l0.013,0.128l0.047,0.058l-0.008,0.031l-0.057,0.021l-0.172-0.003l-0.068-0.026L1112.907,480.637L1112.907,480.637z M1123.097,476.076l0.003-0.031l0.045-0.024l0.087,0.021l0.038,0.049l-0.014,0.031l-0.038,0.021l-0.069-0.021L1123.097,476.076L1123.097,476.076z M1121.564,475.633l0.014-0.059l0.059-0.049l0.07-0.003l0.042,0.014l0.004,0.056l-0.049,0.073l-0.083,0.024l-0.038-0.01L1121.564,475.633L1121.564,475.633z M1120.265,476.543l-0.031-0.035l-0.003-0.038l0.056-0.049l0.045-0.007l0.031,0.021l-0.003,0.059l-0.038,0.038L1120.265,476.543L1120.265,476.543z M1118.475,477.401l-0.069-0.007l-0.122-0.056l-0.07-0.101l-0.08-0.042l-0.066-0.01l-0.052-0.052l0.007-0.07l0.038-0.073l0.097-0.045l0.069-0.087l0.087-0.031l0.097,0.021l0.066,0.091l0.038,0.01l0.052-0.01l0.097,0.045v0.045l-0.052,0.077l-0.056,0.014l-0.014,0.035l0.028,0.042v0.056l-0.052,0.052l-0.014,0.066L1118.475,477.401L1118.475,477.401z M1114.677,481.036l0.052-0.066l0.142-0.066H1115l0.149,0.101l0.01,0.052l-0.073,0.056l-0.108,0.01l-0.181,0.066l-0.083-0.01l-0.049-0.045l-0.063-0.01l-0.01-0.031L1114.677,481.036L1114.677,481.036z M1116.418,481.141l-0.021-0.045l0.024-0.017l0.111,0.038l0.118-0.01l0.101-0.038l0.076,0.003l0.08,0.056l0.017,0.143l-0.014,0.056l-0.077,0.028l-0.233-0.007l-0.215-0.059l-0.014-0.059L1116.418,481.141L1116.418,481.141z M1115.212,480.753l0.017-0.049l0.125-0.01l0.191,0.052l0.139,0.007l0.108,0.042l0.056,0.049l0.062,0.014l0.083-0.024l0.153,0.014l0.038,0.017l0.08-0.004l0.087-0.038l0.108,0.014l0.069,0.045l-0.007,0.042l-0.104,0.073l-0.042,0.007l-0.035,0.042v0.038l-0.021,0.045l-0.049,0.024l-0.024,0.066v0.045l-0.038,0.017l-0.087-0.004l-0.097-0.042l-0.063,0.003l-0.049-0.024l-0.031-0.073l-0.083-0.028l-0.177-0.004l-0.219-0.049l-0.094-0.059l-0.031-0.056l-0.007-0.094l-0.024-0.059L1115.212,480.753L1115.212,480.753z M1118.943,481.024l-0.004-0.042l-0.019-0.026l0.002-0.028l0.019-0.009l0.019,0.012l0.038,0.075l-0.009,0.033l-0.017,0.004L1118.943,481.024L1118.943,481.024z M1119.137,481.067l0.002-0.021l0.134-0.051l0.113-0.004l0.052,0.017h0.129l0.036-0.009l0.045,0.003l0.106,0.072l0.122,0.042l0.01,0.035l-0.009,0.063l-0.059,0.058l-0.054-0.01l-0.097-0.063l-0.069-0.058h-0.04l-0.014,0.023l-0.007,0.051l-0.049,0.01l-0.177-0.037l-0.106-0.085L1119.137,481.067L1119.137,481.067z M1122.318,478.72l-0.097-0.066l-0.003-0.056l0.01-0.038h0.035l0.059,0.056l0.059,0.024l0.045-0.007l0.021,0.028l-0.021,0.038l-0.066,0.024L1122.318,478.72L1122.318,478.72z M1123.472,479.341l-0.052-0.063l0.01-0.052l0.024-0.031l0.038,0.003l0.059,0.084l0.01,0.059l-0.035,0.021L1123.472,479.341L1123.472,479.341z M1123.583,479.449v-0.024l0.062-0.035l0.09,0.003l0.059,0.042l0.01,0.038l-0.028,0.045l-0.042-0.007l-0.024-0.059l-0.056-0.007l-0.038,0.014L1123.583,479.449L1123.583,479.449z M1122.777,481.043l0.049-0.024l0.049-0.063l0.017-0.084l0.104-0.098l0.087-0.038l0.042-0.066l0.042-0.021l0.031,0.007l-0.01,0.084l-0.045,0.066l-0.08,0.031l-0.066,0.063l-0.066,0.139l-0.087,0.056l-0.056-0.003l-0.017-0.021L1122.777,481.043L1122.777,481.043z M1121.783,480.119l-0.056-0.007l-0.045-0.08l0.01-0.157l0.017-0.038l-0.01-0.045l-0.042-0.031l0.003-0.024l0.042-0.007l0.038,0.028l0.073,0.091l0.014,0.056l0.045,0.045l-0.007,0.084L1121.783,480.119L1121.783,480.119z M1121.953,479.84l0.007-0.15l0.073-0.101l0.129-0.059l0.135-0.01l0.163,0.028l0.09,0.042l0.069,0.017l0.146,0.007l0.059,0.031l0.09,0.073l0.003,0.031l-0.028,0.045l0.017,0.101l0.066,0.049l0.014,0.042l-0.049,0.108l-0.087,0.049l-0.09,0.15l-0.031,0.119l-0.045,0.077l-0.129,0.017l-0.184-0.049l-0.142-0.126l-0.052-0.112l-0.181-0.223l-0.063-0.042l-0.007-0.052L1121.953,479.84L1121.953,479.84z M1126.533,478.417l-0.041-0.017l-0.014-0.029l0.017-0.021l0.035,0.001l0.022,0.039L1126.533,478.417L1126.533,478.417z M1127.643,478.552l0.013-0.034l0.043-0.005l0.034,0.035l0.002,0.041l-0.023,0.028l-0.031-0.012L1127.643,478.552L1127.643,478.552z M1129.067,475.95l0.014-0.045l0.044-0.029l0.021,0.01l-0.013,0.043l-0.039,0.039L1129.067,475.95L1129.067,475.95z M1126.085,481.241l0.02-0.005l0.008,0.015l-0.01,0.021l-0.024,0.01l-0.013-0.014L1126.085,481.241L1126.085,481.241z M1127.185,479.373l0.011-0.013l0.013,0l-0.002,0.02l-0.011,0.012h-0.014L1127.185,479.373L1127.185,479.373z M1129.243,476.764l0.012-0.02l0.008-0.003l0.005,0.01l-0.017,0.023l-0.009,0.002L1129.243,476.764L1129.243,476.764z M1127.175,478.471l0.015,0.011l-0.007,0.022l-0.015,0.003l-0.007-0.024L1127.175,478.471L1127.175,478.471z M1127.496,480.601l0.014,0.014l-0.001,0.019l-0.017,0.006l-0.017-0.017l0.003-0.014L1127.496,480.601L1127.496,480.601z M1128.957,477.024l0.007,0.014l-0.012,0.008l-0.014-0.008v-0.014H1128.957L1128.957,477.024z M1126.979,478.958l0.012,0.008l-0.003,0.018l-0.011,0.001l-0.006-0.018L1126.979,478.958L1126.979,478.958z M1128.658,477.439h0.014l0.003,0.014l-0.008,0.006l-0.014-0.006L1128.658,477.439L1128.658,477.439z M1128.653,477.507l0.015,0.004l0.009,0.015v0.016l-0.021-0.005l-0.008-0.018L1128.653,477.507L1128.653,477.507z M1127.758,478.52l0.011-0.002l0.013,0.016l-0.005,0.018l-0.011,0.002l-0.014-0.02L1127.758,478.52L1127.758,478.52z M1124.593,471.147l0.029,0.008l0.01,0.018l-0.021,0.021l-0.034-0.008l-0.005-0.021L1124.593,471.147L1124.593,471.147z M1126.985,479.354l0.019-0.003l0.006,0.02l-0.018,0.052l-0.017,0.001l-0.009-0.026L1126.985,479.354L1126.985,479.354z M1127.886,480.575l-0.005-0.022l0.053-0.061l0.029-0.003l0.014,0.02l-0.016,0.031l-0.047,0.036L1127.886,480.575L1127.886,480.575z M1128.796,479.736l-0.015-0.005l-0.009-0.016l0.013-0.009l0.018,0.008l0.007,0.017L1128.796,479.736L1128.796,479.736z M1126.858,481.272l0.01-0.014l0.016-0.003l0.002,0.013l-0.019,0.013L1126.858,481.272L1126.858,481.272z M1130.828,476.851l0.014-0.002l0.007,0.011l-0.005,0.013l-0.013-0.005L1130.828,476.851L1130.828,476.851z M1128.594,477.624l0.014,0.006l0.003,0.015l-0.01,0.007l-0.015-0.004l-0.004-0.016L1128.594,477.624L1128.594,477.624z M1127.829,478.079l0.008-0.013h0.015l0.005,0.011l-0.007,0.014l-0.017,0.001L1127.829,478.079L1127.829,478.079z M1129.312,476.489l0.019,0.006l0.004,0.018l-0.017,0.008l-0.012-0.008v-0.014L1129.312,476.489L1129.312,476.489z M1129.353,475.289l0.019,0.006l0.004,0.018l-0.017,0.008l-0.012-0.008v-0.014L1129.353,475.289L1129.353,475.289z M1128.838,479.743l-0.003-0.017l0.01-0.013h0.012l0.004,0.015l-0.011,0.011L1128.838,479.743L1128.838,479.743z M1129.592,476.869l0.005,0.015l-0.005,0.021l-0.011,0.004l-0.004-0.019l0.005-0.015L1129.592,476.869L1129.592,476.869z M1128.189,480.469l0.03-0.026l0.021,0.006l-0.005,0.039l-0.026,0.033l-0.028-0.002L1128.189,480.469L1128.189,480.469z M1128.773,476.891l-0.008-0.039l0.016-0.016l0.031,0.024l0.016,0.039l-0.016,0.024L1128.773,476.891L1128.773,476.891z M1128.352,478.092l-0.013-0.044l0.021-0.027l0.025,0.001l0.008,0.05l-0.018,0.032L1128.352,478.092L1128.352,478.092z M1127.461,480.377l0.021-0.028l0.031,0.003l0.017,0.038l0.01,0.073l-0.031,0.004l-0.049-0.042V480.377L1127.461,480.377z M1127.419,479.445l0.017-0.073l0.045-0.066l0.031-0.007l0.017,0.028l-0.035,0.091l-0.045,0.031L1127.419,479.445L1127.419,479.445z M1127.065,479.341l-0.038-0.052v-0.126l0.049-0.052l0.118-0.007l0.139-0.063l0.073-0.056l0.149-0.031l0.062,0.003l0.003,0.038l-0.028,0.105l-0.104,0.101l-0.083,0.017l-0.031-0.021v-0.052l-0.035-0.003l-0.056,0.042l-0.003,0.042l0.038,0.031l-0.021,0.035l-0.083,0.014l-0.073,0.035H1127.065L1127.065,479.341z M1127.885,478.186l0.014-0.021l0.021-0.007l0.014,0.007l-0.007,0.017l-0.028,0.014L1127.885,478.186L1127.885,478.186z M1128.903,476.203l0.013-0.073l0.065-0.037l0.065,0.026l0.008,0.037l-0.06,0.084l-0.073,0.058l-0.044-0.016l0.005-0.042L1128.903,476.203L1128.903,476.203z M1129.096,475.781l-0.016-0.071l0.008-0.06l0.042-0.021l0.044-0.076l0.057-0.034l0.026-0.034l-0.008-0.047l0.018-0.05l0.065-0.031l0.068,0.026l0.068,0.008l0.016,0.029l-0.018,0.063l-0.05,0.029l-0.031,0.047l-0.026,0.008l-0.044-0.034l-0.029,0.005l-0.036,0.047l-0.013,0.071l0.031,0.026h0.05l0.023,0.026l-0.016,0.047l-0.062,0.044l-0.044,0.003l-0.076,0.047l-0.026-0.005L1129.096,475.781L1129.096,475.781z M1128.901,477.288l0.008-0.028l0.001-0.027l0.026-0.029l0.034,0.003l0.018,0.034l-0.016,0.054l0.009,0.047l-0.024,0.026l-0.062-0.004l-0.031-0.026l0.001-0.027L1128.901,477.288L1128.901,477.288z M1128.768,477.054l0.007-0.066l0.031-0.044h0.023l0.017,0.033l-0.009,0.063l-0.024,0.047h-0.028L1128.768,477.054L1128.768,477.054z M1128.533,477.464l0.005-0.021l0.038-0.024l0.016-0.024l-0.004-0.035l0.017-0.012l0.031,0.028l0.009,0.033l-0.026,0.042l-0.047,0.028h-0.023L1128.533,477.464L1128.533,477.464z M1127.941,477.903l0.031-0.034l0.062-0.016l0.031-0.034v-0.063l0.016-0.029l0.042-0.005l0.023,0.042l0.042,0.034l0.055,0.005l0.026,0.029l-0.008,0.026l-0.102,0.021l-0.021,0.05l0.018,0.042l-0.01,0.018l-0.096-0.01l-0.094-0.037L1127.941,477.903L1127.941,477.903z M1127.772,478.183l-0.034,0.008l-0.062,0.073l-0.018,0.042l-0.049,0.042l-0.06,0.01l-0.133,0.12l-0.013,0.042l-0.031,0.008l-0.057-0.034l0.008-0.029l0.042-0.003l0.026-0.024l-0.003-0.039l-0.018-0.013l-0.091,0.055l-0.07,0.01l-0.065-0.018l-0.047,0.003l-0.036-0.026l0.008-0.157l0.057-0.068l0.156-0.029l0.188-0.01l0.096-0.013l0.13-0.039l0.07,0.008l0.029,0.042L1127.772,478.183L1127.772,478.183z M1126.586,478.536v-0.068l0.016-0.018l0.07,0.013l0.198,0.065l0.104,0.013l0.042-0.016l0.018-0.034l0.049-0.01l0.029,0.005l0.023,0.058l-0.005,0.047l-0.023,0.018l-0.036-0.016h-0.042l-0.005,0.018l0.047,0.026l0.018,0.026l-0.018,0.008l-0.057-0.01l-0.031-0.037h-0.021l-0.021,0.055l-0.07,0.042l-0.107,0.003l-0.086-0.031l-0.076-0.005l-0.034-0.055L1126.586,478.536L1126.586,478.536z M1129.859,477.224l-0.024-0.049l-0.003-0.077l0.076-0.073l0.122-0.014l0.135,0.014l0.212-0.021l0.146-0.028l0.08,0.031l0.052,0.052l0.049,0.122l0.062,0.056l0.024,0.056l-0.003,0.052l0.021,0.059l-0.031,0.087l-0.066,0.042l-0.056-0.007l-0.049-0.063l-0.077-0.031l-0.031-0.059l0.004-0.087l-0.035-0.035l-0.097-0.042l-0.17-0.017l-0.028,0.028l-0.049,0.007l-0.062-0.024l-0.038,0.007l-0.024,0.035h-0.042l-0.028-0.017L1129.859,477.224L1129.859,477.224z M1130.526,476.805l0.031-0.049l0.083-0.038l0.042-0.031l0.031-0.07l0.087-0.059l0.073-0.014l0.014,0.028l-0.076,0.045l-0.056,0.07l-0.017,0.077l-0.031,0.052l-0.115,0.066h-0.045l-0.028-0.021L1130.526,476.805L1130.526,476.805z M1126.287,481.545l0.042-0.052l0.066-0.045l0.135-0.192l0.125-0.098l0.09-0.035h0.066l0.069-0.031l0.028-0.049l-0.052-0.087l-0.014-0.091l0.038-0.066l0.052-0.01l0.129,0.049l0.063,0.014l0.049-0.024l0.004-0.028l-0.045-0.017l-0.014-0.035l0.021-0.059l0.08-0.077l0.052-0.004l0.063,0.024l0.142,0.112l0.003,0.052l-0.035,0.045l-0.007,0.038l0.035,0.007l0.066-0.038l0.031-0.052l0.059-0.042l0.087-0.021l0.056,0.017l0.017,0.038l-0.076,0.112l-0.16,0.105l-0.174,0.066l-0.052-0.003l-0.063,0.024l-0.066,0.066l-0.094,0.038l-0.122-0.028l-0.118,0.007l-0.108,0.059l-0.014,0.045l0.035,0.052l-0.003,0.049l-0.066,0.059l-0.059,0.01l-0.129,0.066l-0.042,0.059l-0.062,0.021l-0.118-0.01L1126.287,481.545L1126.287,481.545z M1129.146,477.398l-0.051-0.091l-0.007-0.063l0.014-0.058l0.039-0.071l0.039-0.003l0.036,0.037l0.063-0.021l0.021-0.055l0.112-0.034l0.104,0.005l0.036-0.021l0.036,0.016l0.023,0.065l-0.018,0.065l-0.042,0.037l0.003,0.029l0.057,0.008l0.057-0.013l0.016-0.029l-0.005-0.034l0.036-0.031l0.026,0.003l0.052,0.055l0.021,0.037l-0.005,0.039l0.023,0.021l0.06,0.031l0.031,0.06l-0.021,0.031l-0.055,0.003l-0.049,0.034l-0.086,0.003l-0.044-0.018l-0.07,0.008l-0.06,0.068l-0.013,0.073l0.01,0.11l0.057,0.099l0.003,0.039l-0.016,0.029l0.003,0.05l0.036,0.039l0.057,0.026l0.01,0.037l-0.026,0.026l-0.076,0.01l-0.013,0.026l0.039,0.037l0.01,0.055l0.023,0.016l0.039,0.003l0.047-0.047l0.055-0.008l0.01,0.024l-0.034,0.047l-0.063,0.029l-0.031,0.058l-0.031,0.11l0.003,0.078l-0.068,0.233l-0.068,0.123l-0.008,0.044l0.008,0.044l-0.036,0.071l-0.036,0.01l-0.036-0.003l-0.047,0.029l-0.07,0.12l-0.018,0.073l-0.062,0.055l-0.094,0.031l-0.125-0.005l-0.039,0.037l0.016,0.058l-0.01,0.084l-0.021,0.018l-0.052-0.005l-0.018,0.021l0.021,0.058l-0.01,0.034l-0.078,0.016l-0.063,0.05l-0.013,0.034l-0.036,0.021l-0.068,0.01l-0.083,0.094l-0.008,0.068l0.052,0.026v0.024l-0.052,0.029l-0.068,0.01l-0.047,0.055l0.008,0.021l0.057,0.003l0.003,0.024l-0.016,0.039l-0.036,0.013l-0.005,0.026l0.023,0.052l-0.029,0.058l-0.042,0.039l-0.099,0.102l-0.021-0.013l-0.01-0.105l0.031-0.065l0.044-0.06l-0.018-0.078l-0.042-0.06l-0.023-0.003l-0.039,0.05l-0.018,0.078l-0.125,0.157l-0.044,0.01l-0.081-0.008l-0.055-0.029h-0.125l-0.047,0.016l-0.115-0.008l-0.021-0.034l0.005-0.11l0.05-0.12l0.003-0.102l-0.138-0.076l-0.005-0.058l0.023-0.078l0.06-0.047l0.036-0.003l0.047,0.021l0.044-0.003l0.026-0.047l-0.003-0.058l-0.044-0.031l-0.063-0.01l-0.008-0.037l0.017-0.036l0.043-0.023l0.028-0.045l0.03-0.021l-0.009-0.021l-0.038-0.004l-0.026,0.024h-0.024l-0.005-0.028l0.017-0.033l-0.019-0.024l-0.033-0.005l-0.019-0.024l0.016-0.082l0.05-0.052h0.036l0.08,0.052l0.068,0.087l0.069,0.016l0.099-0.004l0.024-0.016l0.03,0.007l0.035,0.033l0.031-0.003l0.004-0.024l-0.054-0.051l-0.085-0.031l-0.076,0.005l-0.033-0.016l-0.023-0.065l-0.049-0.026l-0.012-0.028l0.036-0.066l0.059-0.211l0.064-0.126l0.057-0.061l0.031-0.105l-0.002-0.082l0.049-0.073l0.115-0.101l0.07-0.035l0.038,0.002l0.024-0.012l0.026-0.038l0.023-0.005l0.028,0.023l0.007,0.047l0.021,0.009l0.042-0.021l0.019-0.037l-0.009-0.042l0.03-0.052l0.062-0.007l0.016-0.026l-0.009-0.059l0.036-0.087l0.063-0.063l0.062-0.009l0.035,0.009l0.021,0.021l0.045,0.002l0.007-0.014l-0.033-0.077l0.002-0.072l0.061-0.099l0.033-0.019l0.028-0.058l-0.014-0.021l-0.042-0.014l0.012-0.024l0.024-0.007l0.026,0.017l0.056-0.016l0.019-0.021l0.028-0.002l0.019,0.021h0.069l0.026-0.028L1129.146,477.398L1129.146,477.398z M1107.653,480.144l0.016-0.004l0.007,0.025l-0.007,0.029l-0.012-0.004l-0.005-0.02L1107.653,480.144L1107.653,480.144z M1108.263,479.03l0.008-0.024l0.031-0.016l0.027,0.008l-0.008,0.028l-0.031,0.02L1108.263,479.03L1108.263,479.03z M1107.594,480.16h0.021l0.033,0.05l0.053,0.032l0.018,0.056l-0.004,0.04l-0.028,0.031l-0.044,0.097l-0.018,0.006l-0.011-0.015l-0.01-0.115l-0.018-0.06L1107.594,480.16L1107.594,480.16z M1107.83,480.213l0.099-0.115l0.005-0.183l-0.036-0.141l0.021-0.084l0.193-0.115l0.01-0.073l-0.026-0.042l0.016-0.073l0.156-0.073l0.068-0.141l0.005-0.084l0.052-0.073l0.073-0.031l0.089,0.01l0.135,0.12l0.141,0.047h0.12l0.24,0.073l0.151-0.016l0.099-0.094l0.099-0.037l0.182,0.026l0.141-0.026l0.13-0.084l0.057-0.105l0.089-0.042h0.12l0.073-0.042l0.016-0.068l0.052-0.037l0.094,0.005l0.135-0.063l0.146,0.005l0.078-0.005l0.042-0.047h0.073l0.036,0.031l-0.026,0.11l0.036,0.047l0.094,0.016l0.167,0.12l0.016,0.058l0.036,0.021l0.109-0.031l0.161,0.005l0.073,0.031l0.073,0.183l0.005,0.094l-0.083,0.031l-0.25-0.021l-0.214,0.042l-0.203,0.078l-0.099,0.078l-0.208,0.089l-0.151,0.199l-0.073,0.267l-0.089,0.099l-0.052,0.005l-0.146-0.152l-0.057-0.01l-0.036,0.026l-0.099-0.01l-0.151-0.047l-0.198-0.005l-0.198,0.037l-0.151-0.005l-0.115-0.11l-0.208-0.042l-0.229,0.042l-0.203,0.078l-0.151,0.026l-0.37,0.199l-0.156,0.131l-0.042-0.021L1107.83,480.213L1107.83,480.213z M1115.183,470.411l0.007,0.018l0.019,0.01l0.004-0.011l-0.01-0.018l-0.011-0.004L1115.183,470.411z M1115.245,470.623l0.01,0.024l0.021,0.012l0.014-0.01l-0.009-0.023l-0.028-0.014L1115.245,470.623z M1114.331,470.968l0.036-0.002l0.009-0.012l-0.016-0.009l-0.028,0.002l-0.014,0.009L1114.331,470.968z M1114.378,471.047l0.002,0.014l0.012,0.009l0.007-0.007l-0.001-0.012l-0.007-0.009L1114.378,471.047z M1115.315,470.305h0.014l0.014-0.012l-0.003-0.012l-0.016,0.002l-0.014,0.014L1115.315,470.305z"/>
</svg>
