<svg xmlns="http://www.w3.org/2000/svg" viewBox="1032.125 432.778 14.085 9.065">
  <path d="M1041.475,436.094l0.013-0.034l0.043-0.005l0.034,0.035l0.002,0.04l-0.023,0.028l-0.031-0.012L1041.475,436.094L1041.475,436.094z M1035.057,440.352l0.038,0.039l0.042,0.013l0.01-0.021l-0.028-0.044l-0.045-0.014L1035.057,440.352L1035.057,440.352z M1042.588,434.842l0.026-0.016l0.027-0.044l0.011-0.032l-0.014-0.009l-0.038,0.038l-0.025,0.047L1042.588,434.842L1042.588,434.842z M1035.794,438.845l0.017-0.002l0.008-0.035l-0.006-0.044l-0.015-0.007l-0.011,0.038L1035.794,438.845L1035.794,438.845z M1046.091,441.155l0.014,0.013l0.025-0.009l0.015-0.026l-0.009-0.016l-0.03,0.011L1046.091,441.155L1046.091,441.155z M1034.587,441.255l0.017,0.008l0.021-0.017l0.005-0.03l-0.014-0.012l-0.024,0.021L1034.587,441.255L1034.587,441.255z M1044.558,439.792l0.003,0.036l0.017,0.002l0.012-0.038l-0.007-0.028l-0.016-0.002L1044.558,439.792L1044.558,439.792z M1036.14,438.056l0.011-0.025l-0.016-0.003l-0.031,0.033l0.01,0.01L1036.14,438.056L1036.14,438.056z M1033.237,439.023l0.013,0.025l0.029,0.007l0.018-0.023l-0.011-0.018l-0.041-0.003L1033.237,439.023L1033.237,439.023z M1035.417,440.498l0.011-0.024l-0.009-0.014l-0.026,0.008l-0.009,0.03l0.015,0.013L1035.417,440.498L1035.417,440.498z M1036.278,438.732l0.019,0.002l0.012-0.023l-0.005-0.022l-0.016-0.007l-0.012,0.017L1036.278,438.732L1036.278,438.732z M1035.962,438.334l0.011-0.009l0.001-0.016l-0.011-0.017l-0.01,0.009l0,0.017L1035.962,438.334L1035.962,438.334z M1042.018,437.211h0.014l0.011-0.012l0.002-0.02l-0.013,0l-0.011,0.012L1042.018,437.211L1042.018,437.211z M1045.129,440.53l-0.003,0.014l0.017,0.017l0.017-0.006l0.001-0.019l-0.014-0.014L1045.129,440.53L1045.129,440.53z M1035.536,438.579l-0.005,0.031l0.021,0.013l0.034-0.013v-0.023l-0.023-0.013L1035.536,438.579L1035.536,438.579z M1035.12,439.598l-0.024,0.021l0.008,0.023l0.034,0.012l0.015-0.018l-0.01-0.025L1035.12,439.598L1035.12,439.598z M1035.895,438.349l0.018,0.014l0.021-0.008l0.005-0.033l-0.02-0.016l-0.017,0.012L1035.895,438.349L1035.895,438.349z M1035.061,439.601l0.013-0.023l-0.017-0.024l-0.034,0.016l-0.003,0.028l0.022,0.018L1035.061,439.601L1035.061,439.601z M1034.951,439.513l0.02,0.004l0.013-0.032l-0.009-0.051l-0.017,0l-0.017,0.024L1034.951,439.513L1034.951,439.513z M1036.114,438.966l-0.011,0.01l0.006,0.011l0.019,0.011l0.009-0.012l-0.009-0.016L1036.114,438.966L1036.114,438.966z M1034.988,437.974l0.014,0.016l0.011-0.002l0-0.025l-0.014-0.014l-0.009,0.008L1034.988,437.974L1034.988,437.974z M1040.848,433.822l0.024,0.007l0.007-0.009l-0.008-0.016l-0.02-0.004l-0.007,0.009L1040.848,433.822L1040.848,433.822z M1034.497,440.243l0.022,0l0.004-0.011l-0.01-0.013l-0.019-0.002l-0.005,0.013L1034.497,440.243L1034.497,440.243z M1034.623,438.214l0.014-0.002l0.004-0.016l-0.012-0.011l-0.016,0.004l-0.001,0.013L1034.623,438.214L1034.623,438.214z M1033.241,439.749l0.005,0.021l0.034,0.008l0.021-0.021l-0.01-0.018l-0.029-0.008L1033.241,439.749L1033.241,439.749z M1034.263,439.344l0.016-0.037l-0.006-0.024l-0.023,0.012l-0.022,0.05l0.006,0.018L1034.263,439.344L1034.263,439.344z M1035.371,439.447l0.006-0.021l-0.018-0.007l-0.028,0.016l-0.011,0.022l0.011,0.016L1035.371,439.447L1035.371,439.447z M1046.181,440.946l0,0.028l0.013,0.008l0.016-0.022l-0.005-0.021l-0.016-0.007L1046.181,440.946L1046.181,440.946z M1034.012,441.83l0.009-0.026l-0.01-0.012l-0.022,0.016l-0.002,0.022l0.013,0.013L1034.012,441.83L1034.012,441.83z M1042.182,437.305l0.027,0.006l0.01-0.011l-0.019-0.02l-0.022,0.001l-0.011,0.014L1042.182,437.305L1042.182,437.305z M1035.274,439.296l0.006-0.022l-0.01-0.008l-0.01,0.012l0.001,0.017L1035.274,439.296L1035.274,439.296z M1036.197,438.588v0.018l0.018,0.003l0.008-0.018l-0.01-0.01L1036.197,438.588L1036.197,438.588z M1042.16,436.895l0.028-0.004l0.008-0.012l-0.018-0.01l-0.017-0.001l-0.019,0.007l-0.001,0.012L1042.16,436.895L1042.16,436.895z M1035.945,438.891l0.014-0.011l-0.001-0.015l-0.018-0.006l-0.012,0.012l0.001,0.014L1035.945,438.891L1035.945,438.891z M1046.062,441.434l-0.009,0.011l0.005,0.013l0.015,0l0.01-0.01l-0.001-0.01L1046.062,441.434L1046.062,441.434z M1035.935,439.032l0.011-0.019l-0.003-0.014l-0.011,0.004l-0.008,0.015l-0.001,0.018L1035.935,439.032L1035.935,439.032z M1035.532,438.739l0.036-0.021l0.009-0.026l-0.01-0.018l-0.024,0.011l-0.024,0.041L1035.532,438.739L1035.532,438.739z M1035.55,438.821l0.015,0.01l0.027-0.03l0.001-0.021l-0.023-0.003l-0.016,0.018L1035.55,438.821L1035.55,438.821z M1032.903,439.122l0.063,0.057l0.031,0.002l-0.019-0.043l-0.054-0.052l-0.033,0.001L1032.903,439.122L1032.903,439.122z M1042.293,436.592l0.005,0.037l0.013,0.009l0.012-0.034l-0.008-0.034l-0.015-0.004L1042.293,436.592L1042.293,436.592z M1041.908,432.813l0.018-0.004l0.01-0.017l-0.007-0.014l-0.017,0.006l-0.008,0.013L1041.908,432.813L1041.908,432.813z M1041.727,433.23l0.033-0.027l0.137-0.3l-0.004-0.047l-0.027-0.004l-0.022,0.045l-0.041,0.043l-0.049,0.114l-0.061,0.063l-0.067,0.012l-0.027,0.033l0.016,0.035L1041.727,433.23L1041.727,433.23z M1041.327,435.294l0.034-0.042l0.024-0.097l-0.016-0.016l-0.034,0.018l-0.039,0.078l-0.003,0.063L1041.327,435.294L1041.327,435.294z M1041.892,436.436l0.039,0.044v0.042l0.016,0.037l0.055,0.029l0.024-0.005l-0.034-0.076v-0.047l-0.037-0.05l-0.086-0.008l-0.01,0.016L1041.892,436.436L1041.892,436.436z M1042.031,437.333l0.031,0.018l0.018-0.018l-0.021-0.065l-0.024,0.003l-0.021,0.034L1042.031,437.333L1042.031,437.333z M1042.151,437.077l0.057-0.01l0.01-0.039l-0.058-0.073l-0.068-0.005l-0.031,0.031l0.023,0.078L1042.151,437.077L1042.151,437.077z M1042.167,437.252l0.031-0.018l0.021-0.005l0.042,0.016l0.026-0.01l0.005-0.034l0.057-0.034l0.003-0.055l-0.063-0.034l-0.052,0.016l-0.084,0.094l-0.016,0.042L1042.167,437.252L1042.167,437.252z M1042.313,436.93l0.102,0.065l0.034,0.078l0.039,0.024l0.042-0.037l0.047-0.003l0.037-0.05l0.146-0.042l0.144-0.003l0.094,0.013l0.031-0.024v-0.173l0.024-0.076l0.102-0.102l0.125-0.071l0.089-0.112l0.008-0.128l0.021-0.068l-0.021-0.034l-0.071,0.01l-0.037-0.058l-0.026-0.008l-0.024,0.037l-0.026-0.01l0.013-0.071l0.057-0.008l0.05,0.024l0.034-0.005l0.013-0.06l-0.029-0.042l0.003-0.052l0.036-0.05l-0.003-0.06l-0.081-0.076l-0.063-0.013l-0.042-0.037l0.01-0.039l-0.021-0.029l-0.102-0.055l-0.065-0.076l0.003-0.086l-0.016-0.021l-0.086-0.008l-0.104-0.11l-0.055-0.256l0.01-0.123l-0.039-0.013l-0.044,0.008l-0.055,0.11l-0.128,0.165l-0.186,0.128l-0.06,0.013l-0.034,0.034l-0.031,0.094l-0.081,0.057l-0.063-0.005l-0.034,0.013l-0.042,0.076l-0.063,0.05l-0.078,0.024l-0.055,0.031l0.008,0.029l0.068,0.026l0.026,0.052l-0.018,0.052l0.01,0.086l0.078,0.099l0.052,0.029l0.013,0.034l-0.026,0.037l0.003,0.029l0.259,0.193l0.081,0.013l0.092,0.055l0.125,0.01l0.139,0.029l0.052,0.055l0.076,0.034l0.089,0.136l0.031,0.078l-0.016,0.008l-0.047-0.058l-0.042-0.013l-0.154-0.162l-0.065-0.013l-0.065,0.044l-0.086,0.01l-0.031,0.024l0.013,0.028l-0.018,0.016l-0.037-0.005l-0.047,0.044l0.003,0.047l-0.044,0.089l-0.042,0.044v0.037L1042.313,436.93L1042.313,436.93z M1033.139,439.104l0.047-0.035l-0.008-0.039l-0.043-0.016l-0.035,0.027l-0.008,0.047L1033.139,439.104L1033.139,439.104z M1033.343,439.159l0.043,0.004l0.059-0.043l-0.027-0.039h-0.082l-0.02,0.027L1033.343,439.159L1033.343,439.159z M1034.904,439.74l0.059,0.004l0.027-0.016l-0.012-0.031l-0.059-0.031l-0.063,0.012l-0.004,0.031L1034.904,439.74L1034.904,439.74z M1034.767,438.979l0.023-0.027l0.004-0.039l-0.031-0.051h-0.031l-0.012,0.024l0.004,0.075L1034.767,438.979L1034.767,438.979z M1034.908,439.014l0.012-0.047l-0.047-0.059l-0.031,0.004l-0.008,0.027l0.043,0.071L1034.908,439.014L1034.908,439.014z M1034.273,439.163l0.004-0.063l-0.012-0.043l-0.023,0.004l-0.012,0.043l0.012,0.063L1034.273,439.163L1034.273,439.163z M1033.335,440.03l0.102,0.09l0.074-0.016l0.035-0.031l0.02-0.055l-0.035-0.039l-0.059-0.008l-0.043-0.043l0.031-0.024l0.063,0.024l0.067-0.02v-0.063l0.043-0.027l0.11,0.063l0.047-0.012l-0.012-0.055l0.02-0.055l-0.043-0.106l0.012-0.09l0.023-0.008l0.035,0.043l0.039,0.004l0.008-0.098l-0.031-0.043l-0.149,0.008l-0.055,0.043l-0.114,0.027l-0.067-0.012l-0.024-0.071l0.027-0.031l0.012-0.063l-0.024-0.106l-0.027,0.012l-0.004,0.047l-0.027,0.008l-0.027-0.074l-0.047-0.027l-0.016,0.024l0.027,0.071l-0.024,0.055l-0.055,0.024l-0.012,0.031l0.129,0.09l0.012,0.071l-0.035,0.074l-0.039,0.255L1033.335,440.03L1033.335,440.03z M1034.355,439.375l0.039-0.047l0.004-0.145l-0.027-0.055l-0.031,0.012l-0.02,0.165L1034.355,439.375L1034.355,439.375z M1035.469,440.896l0.031-0.02l0.008-0.027l-0.027-0.008l-0.031,0.016l-0.008,0.024L1035.469,440.896L1035.469,440.896z M1035.308,440.418l0.055-0.027l0.004-0.078l-0.137-0.169l-0.051,0.004l-0.012,0.027l0.075,0.094l-0.008,0.039l-0.035,0.012l0.016,0.043L1035.308,440.418L1035.308,440.418z M1041.019,439.537l0.099-0.016l0.052-0.047l-0.047-0.084l-0.078-0.026l-0.094,0.052l0.016,0.094L1041.019,439.537L1041.019,439.537z M1043.994,440.712l0.047-0.082l-0.004-0.071l-0.024-0.004l-0.031,0.047l-0.02,0.106L1043.994,440.712L1043.994,440.712z M1045.186,440.461l0.074-0.031l0.067-0.071l-0.008-0.039l-0.031-0.004l-0.102,0.086l-0.024,0.043L1045.186,440.461L1045.186,440.461z M1045.425,441.371l0.016-0.055l-0.012-0.031l-0.055-0.004l-0.016,0.027l0.024,0.063H1045.425L1045.425,441.371z M1045.567,441.355l0.016-0.024l-0.016-0.039l-0.031-0.024l-0.016,0.016l0.008,0.039L1045.567,441.355L1045.567,441.355z M1045.571,441.21l0.059-0.016l0.031,0.031l-0.027,0.051l-0.004,0.063l0.067,0.016l0.106-0.051l0.106,0.016l0.106-0.043l0.012-0.063l-0.031-0.016l-0.153,0.008l-0.125-0.047l-0.059-0.071l-0.118-0.024l-0.055,0.047l0.02,0.078L1045.571,441.21L1045.571,441.21z M1044.998,440.002l0.071-0.09l0.055-0.043l0.031-0.082l-0.012-0.051l0.027-0.071l0.008-0.22l-0.043-0.031h-0.078l-0.059,0.035l-0.024,0.153l-0.035,0.094l-0.165,0.129v0.082l0.122,0.102L1044.998,440.002L1044.998,440.002z M1045.049,439.375l0.039-0.008l0.016-0.055l-0.024-0.043l-0.043-0.027l-0.043,0.012l-0.008,0.035l0.047,0.043L1045.049,439.375L1045.049,439.375z M1035.955,438.395l0.008,0.042l0.026-0.005l0.013-0.034l-0.016-0.042l-0.016,0.005L1035.955,438.395L1035.955,438.395z M1036.125,438.585l0.005-0.058l-0.026-0.039h-0.018l-0.016,0.034l0.005,0.042l0.026,0.026L1036.125,438.585L1036.125,438.585z M1036.078,438.818l0.021-0.047l-0.005-0.055l-0.026,0.003l-0.016,0.042v0.057H1036.078L1036.078,438.818z M1036.054,438.044l0.031-0.018l0.018-0.047l-0.021-0.013l-0.031,0.013l-0.01,0.044L1036.054,438.044L1036.054,438.044z M1036.242,438.729l0.008-0.026l-0.01-0.037l-0.024-0.003l-0.01,0.037l0.008,0.031L1036.242,438.729L1036.242,438.729z M1035.947,439.378l0.024-0.005l0.016-0.05l-0.01-0.018l-0.037,0.003l-0.029,0.024l-0.003,0.034L1035.947,439.378L1035.947,439.378z M1035.714,439.257l0.029-0.013l0.013-0.065v-0.06l-0.016-0.003l-0.031,0.039l-0.01,0.071L1035.714,439.257L1035.714,439.257z M1035.544,439.032l0.024-0.024l0.024,0.01l-0.005,0.091l0.018,0.003l0.047-0.115l0.047-0.016l0.013-0.05l-0.047-0.055h-0.018l-0.031,0.039l-0.017-0.005l0.014-0.063l-0.018-0.008l-0.047,0.052l-0.039,0.094l0.013,0.042L1035.544,439.032L1035.544,439.032z M1035.873,438.938l0.026-0.004l0.012-0.025l-0.016-0.039l-0.022-0.006l-0.022,0.027v0.035L1035.873,438.938L1035.873,438.938z M1035.98,438.957h0.037l0.037-0.012l0.004-0.022l-0.033-0.035l-0.051,0.002l-0.031,0.027l0.004,0.027L1035.98,438.957L1035.98,438.957z M1035.541,438.534l0.033-0.018l0.016-0.047l-0.012-0.057l-0.018,0.004l-0.033,0.11L1035.541,438.534L1035.541,438.534z M1035.569,438.312l0.014-0.018l0.002-0.027l-0.012-0.002l-0.018,0.022l-0.002,0.027L1035.569,438.312L1035.569,438.312z M1035.224,438.32l0.033,0.002l0.051-0.106v-0.055l-0.053-0.051l0.006-0.055l0.037-0.067l-0.016-0.016l-0.059,0.02l-0.031,0.037l-0.002,0.033l0.012,0.037l-0.018,0.049l-0.086,0.037l-0.018,0.045l0.047,0.086l0.035,0.006l0.014-0.035l0.002-0.047h0.016l0.014,0.057L1035.224,438.32L1035.224,438.32z M1035.455,437.991l0.031,0.01l0.016-0.008l-0.01-0.033l-0.031-0.012l-0.026,0.006l-0.002,0.024L1035.455,437.991L1035.455,437.991z M1035.649,438.185l0.033-0.033l0.026-0.122l0.006-0.122l-0.014-0.004l-0.023,0.033l-0.022,0.153l-0.022,0.039l-0.01,0.047L1035.649,438.185L1035.649,438.185z M1035.467,438.593l0.018-0.016l-0.002-0.043l-0.057-0.053l-0.01-0.118l0.016-0.012l0.033,0.027l0.018,0.108l0.022,0.01l0.02-0.024l0.006-0.08l-0.018-0.082l0.016-0.041l-0.004-0.041l-0.012-0.045l0.018-0.059l0.045-0.027v-0.033l-0.037-0.039l-0.076-0.004l-0.026,0.027l0.008,0.094l-0.024,0.016l-0.045-0.006l-0.037,0.039l-0.016,0.112l0.022,0.055l-0.002,0.037l-0.045,0.065l0.008,0.037l0.088,0.075L1035.467,438.593L1035.467,438.593z M1035.196,438.906l0.029,0.1l0.086,0.061l0.041-0.016l0.006-0.031l0.018-0.012l0.027,0.024l-0.008,0.053l0.01,0.016l0.029-0.008l0.02,0.012l-0.004,0.035l0.024,0.004l0.029-0.057l-0.006-0.043l-0.037-0.018l-0.01-0.037l0.047-0.092l0.012-0.082l-0.035-0.098l-0.047-0.025l-0.031-0.061l-0.104-0.059l-0.02,0.002l-0.01,0.022l-0.029,0.012l-0.055-0.008l-0.012,0.022l0.041,0.112l0.008,0.114L1035.196,438.906L1035.196,438.906z M1032.138,440.38l-0.013,0.023l0.018,0.021l0.024-0.005l0.01-0.018l-0.021-0.021H1032.138z"/>
</svg>
