<svg xmlns="http://www.w3.org/2000/svg" viewBox="1075.362 429.931 37.699 48.847">
  <path d="M1089.601,445.574v-0.031l0.012-0.017h0.026l0.007,0.03l-0.021,0.019H1089.601L1089.601,445.574z M1088.842,446.846l-0.01-0.056l-0.028-0.056l-0.184-0.097l-0.069,0.017l-0.007,0.031l0.073,0.003l0.191,0.153L1088.842,446.846L1088.842,446.846z M1089.016,446.95l0.038-0.038l-0.024-0.028l-0.045-0.003l-0.035,0.031l0.01,0.031L1089.016,446.95L1089.016,446.95z M1088.849,446.638l0.007-0.028l-0.028-0.031l-0.031,0.003l-0.01,0.028l0.035,0.028H1088.849L1088.849,446.638z M1087.236,447.006l0.031-0.042l-0.003-0.042l-0.028,0.007l-0.045,0.059l0.003,0.031L1087.236,447.006L1087.236,447.006z M1087.751,446.87h0.028l0.028-0.059l0.021-0.139l-0.024-0.059l-0.042-0.014l-0.031,0.031l-0.024,0.104l0.003,0.101L1087.751,446.87L1087.751,446.87z M1092.416,451.379l0.063-0.086l-0.016-0.159l-0.078-0.055l-0.122,0.008l-0.117,0.109l-0.008,0.102l0.076,0.086l0.094,0.026L1092.416,451.379L1092.416,451.379z M1093.432,452.218l-0.146-0.097l-0.042-0.083l0.031-0.038l0.049-0.028l-0.014-0.017l-0.094,0.024l-0.004-0.024l0.156-0.073l0.066,0.007l0.069,0.073l0.083-0.014l-0.017-0.042l-0.059-0.042l-0.003-0.028l0.09-0.003l0.163,0.094l0.038,0.066l0.035-0.003l0.028-0.056l0.056-0.035l0.073,0.021l0.035-0.035l0.014-0.104l0.052-0.056l0.01-0.076l0.028-0.01l0.038,0.153l0.07,0.094l0.059,0.031l0.035,0.087l0.004,0.104l-0.052,0.069l-0.042,0.01l-0.08-0.063l-0.035-0.003l-0.021,0.031l0.026,0.033l0.009,0.037l-0.017,0.021l-0.049-0.024l-0.042-0.076l-0.045-0.003l-0.024,0.038l-0.066,0.007l-0.076-0.014l-0.146,0.01l-0.149,0.042L1093.432,452.218L1093.432,452.218z M1092.588,452.708h0.047l0.039-0.026l-0.003-0.031l0.065-0.099l0.026-0.073l0.047-0.008l0.018,0.029l0.036,0.003l0.042-0.031l0.057,0.005l0.159,0.086l0.094-0.003l0.026-0.018l-0.003-0.039l-0.023-0.013l-0.029,0.005l-0.029-0.021l0.013-0.018l0.055-0.005l0.083,0.089l-0.003,0.057l0.029,0.018l0.081-0.026l0.042-0.05l-0.016-0.042l0.008-0.164l-0.039-0.096l-0.141-0.081l-0.078,0.003l-0.12,0.104l-0.091,0.016l-0.047-0.081l-0.044-0.013l-0.034,0.042l0.026,0.076l-0.018,0.013l-0.055-0.026l-0.047,0.018l-0.003,0.039l-0.036,0.021l-0.065,0.01l-0.029,0.034v0.049l-0.055,0.099l-0.073,0.047l-0.016,0.047l0.013,0.086l0.039,0.005L1092.588,452.708L1092.588,452.708z M1093.786,451.66l0.005,0.018l0.026,0.005l0.026-0.016v-0.018l-0.031-0.005L1093.786,451.66L1093.786,451.66z M1093.065,452.195l-0.004-0.02l-0.018-0.007l-0.024,0.028l-0.005,0.025l0.023,0.009L1093.065,452.195L1093.065,452.195z M1092.379,452.818l0.015,0.003l0.017-0.017l-0.005-0.017l-0.019-0.001l-0.014,0.014L1092.379,452.818L1092.379,452.818z M1092.883,453.356l-0.02,0.024l0.011,0.022l0.036,0.006l0.012-0.02l-0.014-0.023L1092.883,453.356L1092.883,453.356z M1093.111,452.116l0.013-0.023l-0.017-0.024l-0.034,0.016l-0.003,0.028l0.022,0.018L1093.111,452.116L1093.111,452.116z M1093.263,452.583l0.017-0.006l0.011-0.013l-0.005-0.021l-0.021,0.003l-0.01,0.023L1093.263,452.583L1093.263,452.583z M1093.001,452.167l0.014-0.011l-0.001-0.015l-0.018-0.006l-0.012,0.012l0.001,0.014L1093.001,452.167L1093.001,452.167z M1094.185,451.563l0.002,0.051l0.031,0.018l0.037-0.024l-0.002-0.027l-0.043-0.027L1094.185,451.563L1094.185,451.563z M1093.935,451.65l0.12-0.042l0.057-0.052l-0.021-0.021l-0.143,0.034l-0.063,0.052l0.003,0.021L1093.935,451.65L1093.935,451.65z M1095.804,452.549l0.083-0.003l0.078-0.057l0.083-0.01l0.005-0.047l-0.047-0.034l-0.096,0.008l-0.076,0.042l-0.12,0.023v0.034L1095.804,452.549L1095.804,452.549z M1094.352,451.58l0.042-0.01l0.023,0.016l-0.003,0.039l0.042,0.036l0.122,0.044h0.102l0.01-0.044l-0.07-0.081l-0.094-0.026l-0.036,0.013l-0.01-0.013l0.062-0.115l-0.005-0.026l-0.047,0.003l-0.159,0.109l-0.005,0.039L1094.352,451.58L1094.352,451.58z M1094.745,451.606l0.062,0.013l0.036-0.023l0.06,0.029l0.01,0.031l0.063,0.052l0.052-0.016l0.023,0.008l-0.01,0.039l0.06,0.175l0.073,0.076h0.021l-0.003-0.057l-0.039-0.063l0.01-0.099l0.016-0.055l-0.021-0.076l-0.068-0.05l-0.167-0.07l-0.047,0.016l-0.039-0.018l-0.013-0.039l-0.026-0.013l-0.044,0.013l-0.099-0.068l-0.034,0.016l0.013,0.081L1094.745,451.606L1094.745,451.606z M1099.94,457.841l0.01-0.069l-0.031-0.122l-0.024-0.01l-0.014,0.031l0.014,0.129l0.024,0.045L1099.94,457.841L1099.94,457.841z M1101.296,457.635l0.024-0.021l-0.045-0.205l-0.066-0.063l-0.035,0.01l-0.007,0.045l0.097,0.222L1101.296,457.635L1101.296,457.635z M1100.341,457.578l0.013-0.04l-0.016-0.028l-0.034,0.006l-0.015,0.037l0.008,0.029l0.022,0.015L1100.341,457.578L1100.341,457.578z M1100.947,458.405l-0.01-0.036l-0.042-0.013l-0.003,0.029l0.031,0.034L1100.947,458.405L1100.947,458.405z M1098.849,457.579l0.021,0.003l0.012-0.015l-0.018-0.032l-0.022-0.013l-0.016,0.018L1098.849,457.579L1098.849,457.579z M1099.851,458.478l-0.008,0.018l0.017,0.017l0.022,0.003l0.015-0.018l-0.011-0.021L1099.851,458.478L1099.851,458.478z M1099.537,458.407l0.026-0.005l0.008-0.029l-0.034-0.016l-0.023,0.016v0.029L1099.537,458.407L1099.537,458.407z M1099.107,458.472l0.005,0.021l0.034,0.008l0.021-0.021l-0.01-0.018l-0.029-0.008L1099.107,458.472L1099.107,458.472z M1100.673,458.402l0.026-0.01l0.003-0.015l-0.026-0.007l-0.018,0.012l-0.001,0.018L1100.673,458.402L1100.673,458.402z M1098.46,457.315l0.007-0.019l-0.013-0.013l-0.021,0.01l-0.009,0.028l0.015,0.011L1098.46,457.315L1098.46,457.315z M1100.009,458.671l0.005-0.037l-0.016-0.024l-0.024,0.016l-0.008,0.034l0.013,0.021L1100.009,458.671L1100.009,458.671z M1099.469,457.74l0.031-0.02l0.008-0.027l-0.027-0.008l-0.031,0.016l-0.008,0.024L1099.469,457.74L1099.469,457.74z M1099.458,457.146l0.033-0.047l-0.003-0.047l-0.016-0.009l-0.031,0.022l-0.016,0.039l0.01,0.036L1099.458,457.146L1099.458,457.146z M1098.029,458.854l0.036-0.037l0.014-0.053l-0.026-0.006l-0.029,0.034l-0.02,0.054L1098.029,458.854L1098.029,458.854z M1099.239,457.829l0.031,0.01l0.016-0.008l-0.01-0.033l-0.031-0.012l-0.026,0.006l-0.002,0.024L1099.239,457.829L1099.239,457.829z M1099.2,456.331l0.012,0.016l0.031-0.016l0.027-0.045l-0.013-0.011l-0.028,0.008L1099.2,456.331L1099.2,456.331z M1099.139,456.827l0.017,0.022l0.02,0.003l0.007-0.015l-0.02-0.02l-0.017-0.005L1099.139,456.827L1099.139,456.827z M1096.681,456.235l0.024-0.028v-0.028l-0.031-0.01l-0.024,0.017l0.007,0.038L1096.681,456.235L1096.681,456.235z M1098.557,454.96l0.049-0.049l-0.01-0.049l-0.031-0.003l-0.038,0.035l-0.004,0.066H1098.557L1098.557,454.96z M1098.63,455.339l0.066-0.247v-0.101l-0.042-0.031l-0.118,0.059l-0.028,0.09l0.087,0.236L1098.63,455.339L1098.63,455.339z M1099.593,456.148l0.01-0.059l-0.028-0.021l-0.024,0.014l-0.01,0.035l0.024,0.045L1099.593,456.148L1099.593,456.148z M1099.28,457.997l0.031-0.035v-0.035l-0.028,0.003l-0.021,0.024l-0.007,0.045L1099.28,457.997L1099.28,457.997z M1100.086,457.618l0.017-0.049l-0.021-0.069l-0.028-0.017l-0.007,0.024l0.024,0.059l-0.004,0.063L1100.086,457.618L1100.086,457.618z M1100.031,457.715l-0.014-0.097l-0.035-0.042l-0.024,0.007l0.007,0.038l0.049,0.097L1100.031,457.715L1100.031,457.715z M1100.177,457.83l0.049-0.007l0.01-0.094l-0.024-0.083h-0.028l-0.069,0.073l-0.01,0.056L1100.177,457.83L1100.177,457.83z M1100.343,458.205l0.042-0.028l0.024-0.083l-0.042-0.059h-0.038l-0.024,0.076l0.01,0.08L1100.343,458.205L1100.343,458.205z M1100.729,458.268l0.028,0.038l0.056,0.007l0.014-0.024l-0.059-0.167l-0.062-0.066l-0.031,0.01l-0.031,0.142l0.017,0.042L1100.729,458.268L1100.729,458.268z M1100.535,458.08l0.031-0.007l0.062-0.056l0.031,0.003l0.031-0.014l-0.004-0.09l-0.129-0.215l-0.132-0.132l-0.028,0.007l-0.028,0.083v0.122l0.049,0.184L1100.535,458.08L1100.535,458.08z M1097.692,457.722l0.042,0.007l0.052-0.028l0.104-0.149l0.09-0.045l0.066-0.139l-0.056-0.153l-0.146-0.073l-0.045,0.01l-0.094,0.24l0.007,0.163l-0.035,0.101L1097.692,457.722L1097.692,457.722z M1098.596,457.239l0.087-0.059l0.021-0.094l0.045-0.042l0.087-0.014l0.083-0.094l0.004-0.108l-0.035-0.031l-0.069,0.014l-0.24,0.219l-0.077,0.17l0.017,0.045L1098.596,457.239L1098.596,457.239z M1099.367,456.958l0.045-0.021l0.038-0.003l0.031,0.038l0.129,0.01l0.108-0.042l0.049-0.059l-0.01-0.08l0.038-0.149l-0.017-0.08l-0.076-0.045l-0.052,0.031l-0.052-0.01l-0.042-0.115l0.017-0.09l-0.056-0.208l-0.049-0.042l-0.028,0.014l0.024,0.08l-0.024,0.017l-0.035-0.028h-0.045l-0.08,0.156l0.01,0.101l0.042,0.045l0.007,0.042l-0.042,0.038l-0.035,0.097l0.007,0.184l0.049,0.104L1099.367,456.958L1099.367,456.958z M1096.815,456.133l0.115,0.198l0.005,0.125l0.078,0.089l0.109,0.005l0.078-0.063l0.036-0.073l0.036-0.047l0.073-0.016l0.214-0.229l0.042-0.172l0.057-0.136l0.255-0.344l0.12-0.057l0.057,0.016l-0.026,0.063l0.016,0.344l0.078,0.344l-0.016,0.083l-0.156,0.13l-0.089,0.021l-0.047,0.099l0.036,0.063h0.115l0.047,0.026l0.005,0.047l0.062,0.01l0.182-0.109h0.052l0.016,0.136l0.057,0.01l0.036-0.104l-0.047-0.094l-0.016-0.266l0.062-0.281l0.099-0.083l0.078-0.005l0.146,0.188l0.005,0.115l0.036,0.026l0.052-0.026l0.104,0.052l0.167-0.005l0.083-0.057l0.005-0.078l0.036-0.042l0.062,0.005l0.052-0.036l0.115-0.245l-0.026-0.089l0.016-0.047l0.057-0.073l0.016-0.151l-0.052-0.068l-0.094-0.039l-0.128,0.005l-0.12-0.109l-0.052,0.003l0.003,0.081l-0.083,0.003l-0.036-0.06l0.026-0.055l-0.016-0.021l-0.062,0.027l-0.057-0.037l-0.078,0.031l-0.115,0.182l-0.172,0.162l-0.021,0.13l-0.083,0.109l-0.083-0.021l-0.125-0.25l0.052-0.193l0.12-0.083l-0.005-0.068l-0.063-0.057l-0.073-0.141l-0.104-0.068l-0.062,0.031l0.01,0.083l-0.036,0.068l-0.042,0.01l-0.089-0.099l-0.078-0.016l-0.224,0.021l-0.208,0.12l-0.073-0.005l-0.031-0.068l-0.094-0.026l-0.094,0.026l-0.13,0.24l-0.188,0.162l-0.089,0.245l-0.036,0.339l0.042,0.089L1096.815,456.133L1096.815,456.133z M1091.509,457.488l0.049-0.052v-0.039l-0.047-0.005l-0.057,0.016l-0.018,0.057l0.034,0.036L1091.509,457.488L1091.509,457.488z M1091.696,457.788l0.008-0.055l-0.013-0.029l-0.021,0.008l-0.008,0.05l0.016,0.026H1091.696L1091.696,457.788z M1091.42,457.699l0.034-0.034l-0.008-0.021l-0.029,0.003l-0.018,0.023v0.026L1091.42,457.699L1091.42,457.699z M1096.163,446.923l0.003-0.039l-0.023-0.016l-0.029,0.008l-0.005,0.023l0.029,0.031L1096.163,446.923L1096.163,446.923z M1096.653,447.355l0.034-0.018l-0.008-0.049l-0.065-0.044l-0.068-0.023l-0.036,0.016l0.003,0.026l0.096,0.081L1096.653,447.355L1096.653,447.355z M1097,447.423l0.023-0.016l-0.01-0.076l-0.044-0.06l-0.016,0.008l0.005,0.042l-0.01,0.047l0.013,0.039L1097,447.423L1097,447.423z M1096.916,447.267l-0.01-0.016l-0.023-0.003l-0.018,0.01v0.018l0.042,0.005L1096.916,447.267L1096.916,447.267z M1092.031,448.811l0.007,0.013l0.025,0.002l0.009-0.015l-0.011-0.015l-0.02-0.002L1092.031,448.811L1092.031,448.811z M1094.916,448.94l0.011-0.019l-0.008-0.01l-0.016,0.002l-0.011,0.016l0.008,0.011L1094.916,448.94L1094.916,448.94z M1092.264,448.809l0.028,0.005l0.01-0.012l-0.019-0.019l-0.022,0.002l-0.01,0.015L1092.264,448.809L1092.264,448.809z M1095.36,448.753l-0.027,0.008l-0.004,0.015l0.026,0.009l0.019-0.011l0.003-0.018L1095.36,448.753L1095.36,448.753z M1094.108,448.852l0.016,0.001l0.009-0.013l-0.008-0.01l-0.016,0.001l-0.011,0.013L1094.108,448.852L1094.108,448.852z M1092.582,448.816l0.036,0.009l0.026-0.026l-0.002-0.042l-0.054-0.04h-0.019l-0.016,0.024l-0.002,0.036L1092.582,448.816L1092.582,448.816z M1104.461,447.039l0.017,0.022l0.03,0.002l0.014-0.026l-0.014-0.016l-0.041,0.004L1104.461,447.039L1104.461,447.039z M1103.64,447.619l0.01-0.025l-0.014-0.01l-0.047,0.028l-0.008,0.019l0.017,0.01L1103.64,447.619L1103.64,447.619z M1104.019,443.953l0.015,0.042l0.034,0.007l0.02-0.017l-0.009-0.031l-0.037-0.023L1104.019,443.953L1104.019,443.953z M1105.15,443.782l0.009-0.001l0.021-0.02l-0.003-0.011l-0.009,0.002l-0.016,0.017L1105.15,443.782L1105.15,443.782z M1106.582,439.627l-0.001,0.014l0.003,0.01l0.012-0.009l0.003-0.01l-0.004-0.01L1106.582,439.627L1106.582,439.627z M1105.047,444.032l-0.009-0.065l-0.011-0.017l-0.008,0.031l0.011,0.066l0.013,0.003L1105.047,444.032L1105.047,444.032z M1106.464,438.892l0.021,0l0.004-0.011l-0.01-0.013l-0.019-0.002l-0.005,0.013L1106.464,438.892L1106.464,438.892z M1105.983,434.754l0.005,0.021l0.034,0.008l0.021-0.021l-0.01-0.019l-0.029-0.008L1105.983,434.754L1105.983,434.754z M1104.908,444.264l-0.015,0.015l0.01,0.033l0.028,0.008l0.01-0.018l-0.008-0.029L1104.908,444.264L1104.908,444.264z M1106.497,440.619l0.026-0.01l0.003-0.015l-0.026-0.007l-0.018,0.012l-0.001,0.018L1106.497,440.619L1106.497,440.619z M1106.252,436.009l0.014-0.011l-0.001-0.016l-0.018-0.006l-0.012,0.013l0.001,0.014L1106.252,436.009L1106.252,436.009z M1106.524,438.553l0.047-0.035l-0.008-0.039l-0.043-0.016l-0.035,0.027l-0.008,0.047L1106.524,438.553L1106.524,438.553z M1105.963,441.822l-0.018-0.028l-0.017-0.004l-0.014,0.032l0.016,0.029l0.023,0.012l0.017-0.017L1105.963,441.822L1105.963,441.822z M1105.469,440.446l0.007-0.051l-0.028-0.023l-0.041,0.017l-0.003,0.027l0.038,0.035L1105.469,440.446L1105.469,440.446z M1104.101,444.561l0.01-0.042l-0.021-0.036l-0.029,0.008l-0.005,0.031l0.018,0.042L1104.101,444.561L1104.101,444.561z M1105.535,445.38l0.133,0.01l0.076-0.031l0.044-0.068l-0.003-0.063l0.06-0.141v-0.091l0.044-0.128l-0.005-0.013l-0.026,0.016l-0.099,0.216l-0.062,0.138l-0.031,0.031l-0.104,0.008l-0.073,0.029l-0.05,0.078l0.036,0.039L1105.535,445.38L1105.535,445.38z M1103.989,444.277l0.013-0.068l-0.052-0.12l-0.07-0.016l-0.034,0.023l-0.026,0.094l0.031,0.081l0.096,0.034L1103.989,444.277L1103.989,444.277z M1103.718,444.587l0.055-0.026l0.018-0.057l-0.024-0.039l-0.076,0.003l-0.049,0.029l-0.016,0.052l0.029,0.042L1103.718,444.587L1103.718,444.587z M1104.023,444.634l-0.018-0.06l-0.052-0.047l-0.078,0.003l-0.039,0.031l0.018,0.023h0.05l0.057,0.023l0.023,0.06l0.026-0.003L1104.023,444.634L1104.023,444.634z M1105.059,443.825l0.047-0.03l0.04-0.052l0.005-0.061l0.03-0.076l-0.017-0.003l-0.089,0.08l-0.052,0.085l-0.028,0.101l0.016,0.003L1105.059,443.825L1105.059,443.825z M1105.285,443.941l0.016,0.042l-0.005,0.028l0.019,0.08l0.059,0.05l0.012-0.007l-0.016-0.033l0.007-0.056l0.023-0.031l0.085-0.007l0.023-0.031l-0.005-0.071l-0.019-0.017l-0.047-0.005l-0.028-0.017l-0.016-0.047l-0.075-0.087l-0.024,0.002l-0.017,0.045l0.01,0.023v0.019l-0.043,0.026l-0.005,0.049L1105.285,443.941L1105.285,443.941z M1106.533,440.775l0.029-0.021l0.003-0.06l-0.031-0.047h-0.047l-0.013,0.018l0.026,0.034l-0.003,0.023l-0.029,0.031l0.003,0.018L1106.533,440.775L1106.533,440.775z M1106.405,440.728l-0.01-0.036l-0.042-0.005l-0.057-0.042l-0.013-0.063l0.049-0.13l0.07-0.034l0.096-0.099l-0.003-0.078l-0.073-0.086l-0.083-0.021l-0.102,0.008l-0.052,0.068v0.081l-0.036,0.096v0.099l0.034,0.078v0.091l0.052,0.086l0.086,0.042l0.065-0.008L1106.405,440.728L1106.405,440.728z M1106.212,442.073l0.031-0.052l-0.009-0.061l-0.031-0.017l-0.049,0.009l-0.054,0.045l-0.002,0.033l0.062,0.054L1106.212,442.073L1106.212,442.073z M1106.369,441.976h0.066l0.075-0.083l0.024-0.064l-0.019-0.049l-0.056-0.012l-0.035-0.033l-0.033-0.002l-0.04,0.04l-0.05-0.003l-0.035-0.042l-0.023,0.002l-0.031,0.03l-0.009,0.057l0.01,0.061l0.063,0.057L1106.369,441.976L1106.369,441.976z M1106.077,442.849l0.023,0.013l0.112-0.044l0.05-0.039h0.049l0.024-0.021l0.01-0.07l-0.018-0.005l-0.036,0.039l-0.068-0.008l-0.057-0.034l-0.031,0.01l-0.013,0.073l-0.029,0.034L1106.077,442.849L1106.077,442.849z M1107.091,438.136l0.034-0.029l-0.005-0.035l-0.023-0.013l-0.026,0.019l-0.009,0.043L1107.091,438.136L1107.091,438.136z M1112.994,433.192l-0.022-0.04l-0.035-0.001l-0.016,0.021l0.014,0.03l0.041,0.017L1112.994,433.192L1112.994,433.192z M1112.694,433.009l-0.031,0.011v0.037l0.028,0.03l0.048,0.005l0.029-0.032l-0.012-0.036L1112.694,433.009L1112.694,433.009z M1106.565,433.353l0.016,0.001l0.014-0.034l0.001-0.045l-0.014-0.01l-0.018,0.037V433.353L1106.565,433.353z M1107.104,436.46l-0.002,0.019l0.022,0.015l0.03-0.005l0.007-0.017l-0.027-0.017L1107.104,436.46L1107.104,436.46z M1112.654,432.796l0.016,0.013l0.018-0.007l0-0.038l-0.013-0.023l-0.023,0.008L1112.654,432.796L1112.654,432.796z M1106.781,433.022l-0.004-0.021l-0.018-0.007l-0.024,0.029l-0.005,0.026l0.023,0.009L1106.781,433.022L1106.781,433.022z M1107.171,437.397l0.018,0.014l0.021-0.008l0.005-0.033l-0.02-0.016l-0.017,0.012L1107.171,437.397L1107.171,437.397z M1107.519,437.63l0.005,0.014l0.012-0.001l0.016-0.014l-0.008-0.012l-0.018,0.003L1107.519,437.63L1107.519,437.63z M1107.249,437.434l0.024,0.007l0.007-0.009l-0.008-0.016l-0.02-0.004l-0.007,0.009L1107.249,437.434L1107.249,437.434z M1113.021,433.407l0.022,0l0.004-0.012l-0.01-0.014l-0.019-0.002l-0.005,0.013L1113.021,433.407L1113.021,433.407z M1106.931,438.172l0.024-0.01l0.01-0.014l-0.015-0.003l-0.023,0.011l-0.005,0.014L1106.931,438.172L1106.931,438.172z M1113.028,433.458l0.013,0.016l0.018-0.004l0.002-0.024l-0.02-0.022l-0.017,0.007L1113.028,433.458L1113.028,433.458z M1107.544,434.204h0.021l0.008-0.017l-0.017-0.017l-0.029,0.001l-0.005,0.018L1107.544,434.204L1107.544,434.204z M1112.961,433.526l0.037-0.022l-0.014-0.023l-0.036-0.001l-0.034,0.03l0.01,0.013L1112.961,433.526L1112.961,433.526z M1107.425,437.718l0.024-0.005l0.016-0.05l-0.01-0.018l-0.037,0.003l-0.029,0.024l-0.003,0.034L1107.425,437.718L1107.425,437.718z M1112.855,433.031l0.034,0.019l0.081-0.032l0.005-0.094l-0.029-0.04h-0.047l-0.034,0.051L1112.855,433.031L1112.855,433.031z M1106.704,439.191l0.01-0.068l-0.022-0.05l-0.05-0.028l-0.003,0.014l0.019,0.024l-0.001,0.03l0.03,0.083L1106.704,439.191L1106.704,439.191z M1106.786,438.819l0.021-0.031l-0.003-0.065l-0.043-0.021l-0.014,0.01l0.01,0.028l-0.003,0.021h-0.024l-0.014-0.037l-0.017-0.007l-0.026,0.04l0.011,0.046l0.031,0.029L1106.786,438.819L1106.786,438.819z M1106.884,437.948l0.023,0.001l0.01-0.01l0.015-0.003l0.015,0.015l0.011-0.01l-0.012-0.035l-0.029-0.029h-0.018l-0.025,0.043L1106.884,437.948L1106.884,437.948z M1107.055,436.5l0.004-0.043l-0.019-0.005l-0.045,0.016l-0.005,0.03l0.005,0.035l0.026,0.003L1107.055,436.5L1107.055,436.5z M1106.932,436.621l0.05-0.024l0.007-0.014l-0.033-0.038l-0.042,0.009l-0.035,0.054l0.016,0.012L1106.932,436.621L1106.932,436.621z M1111.546,436.679l0.066-0.021l0.045-0.075l-0.059-0.153l-0.097-0.136l-0.153-0.086l-0.045,0.018l-0.021,0.054l0.024,0.182l0.122,0.168L1111.546,436.679L1111.546,436.679z M1111.074,436.375l0.035-0.004l0.007-0.075l-0.045-0.111l0.017-0.046l0.087-0.061l0.021-0.075l-0.042-0.075l-0.202-0.157l-0.045-0.078v-0.082l-0.038-0.075l-0.052-0.046l-0.028,0.004l-0.01,0.068l0.028,0.125l0.076,0.082v0.078l0.049,0.043l0.042,0.007l0.028,0.071l-0.028,0.121l0.014,0.071l0.028,0.043l0.024,0.114L1111.074,436.375L1111.074,436.375z M1111.234,435.69l0.129-0.021l0.101-0.125l0.038-0.004l0.007-0.025l-0.021-0.054l0.021-0.186l-0.024-0.078l-0.004-0.114l0.097-0.143l0.122-0.054l0.042-0.089l-0.024-0.061l0.014-0.046l0.132-0.078l0.024-0.132l-0.024-0.075l0.003-0.096l0.059-0.082l0.007-0.118l-0.038-0.05v-0.061l-0.028-0.032l-0.062-0.004l-0.076-0.15l-0.063-0.014l-0.038,0.029l-0.042-0.004l-0.035-0.054h-0.097l-0.052,0.054l-0.007,0.114l0.031,0.111l-0.003,0.054l-0.08,0.064l-0.045,0.107l0.017,0.089l-0.052,0.103l-0.094,0.05l-0.014,0.064l0.045,0.071l0.202,0.046l0.052,0.05l-0.01,0.082l-0.094,0.082l-0.042,0.082l-0.017,0.114l-0.101,0.153l-0.153,0.114l-0.045,0.132l0.003,0.118l0.056,0.046L1111.234,435.69L1111.234,435.69z M1107.046,438.017l0.052-0.007l0.033-0.03l0.089-0.024l0.073-0.103l0.017-0.09l-0.021-0.108l0.012-0.081l-0.054-0.072l-0.101-0.038l-0.104-0.139l-0.136-0.063l0.01-0.056l0.078-0.082l-0.007-0.033l-0.054-0.017l-0.01-0.019l0.01-0.022l-0.057-0.109l-0.145-0.184l-0.149-0.073l-0.167,0.007l-0.108,0.063l-0.028,0.132l0.083,0.153l0.115,0.111l0.118,0.014l0.031,0.038l-0.01,0.038l0.024,0.056l0.035,0.014l0.01,0.028l-0.052,0.125l-0.014,0.184l0.069,0.136l0.038,0.01l0.021,0.024l0.004,0.031l0.031,0.035h0.052l0.024-0.063h0.028l0.021,0.045l0.073,0.056l0.028,0.083L1107.046,438.017L1107.046,438.017z M1082.219,460.429l0.01-0.042l-0.007-0.094l-0.031-0.007l-0.035,0.042l0.003,0.073l0.024,0.031L1082.219,460.429L1082.219,460.429z M1083.966,463.521l0.004,0.044l0.015,0.007l0.01-0.011l-0.004-0.033l-0.015-0.015L1083.966,463.521L1083.966,463.521z M1095.123,461.857l-0.001,0.04l0.037,0.023l0.041-0.012l0.003-0.03l-0.026-0.025L1095.123,461.857L1095.123,461.857z M1095.278,462.934l-0.014-0.016l-0.019,0.003l-0.007,0.036l0.009,0.024l0.024-0.003L1095.278,462.934L1095.278,462.934z M1095.188,462.85l0.028-0.021l0.017-0.029l-0.015-0.002l-0.036,0.026l-0.013,0.023L1095.188,462.85L1095.188,462.85z M1097.614,463.784l0.002,0.014l0.013,0.009l0.02-0.001l-0.002-0.013l-0.014-0.009L1097.614,463.784L1097.614,463.784z M1095.178,461.962l0.007,0.013l0.017-0.001l0.007-0.013l-0.008-0.012l-0.013,0.002L1095.178,461.962L1095.178,461.962z M1095.208,463.057l0.017,0.014l0.011-0.006l0.001-0.016l-0.014-0.014l-0.012,0.006L1095.208,463.057L1095.208,463.057z M1097.547,463.616l-0.01-0.021l-0.013,0l0.001,0.016l0.012,0.012L1097.547,463.616L1097.547,463.616z M1095.739,462.082l0.017-0.001l0.007-0.014l-0.005-0.011h-0.015l-0.008,0.012L1095.739,462.082L1095.739,462.082z M1095.556,463.545v0.014l0.012,0.008l0.017-0.008l-0.004-0.018l-0.019-0.006L1095.556,463.545L1095.556,463.545z M1095.697,462.11v0.014l0.012,0.008l0.017-0.008l-0.004-0.018l-0.019-0.006L1095.697,462.11L1095.697,462.11z M1095.384,463.628l0.05-0.008l0.008-0.023l-0.026-0.036l0.018-0.016l0.047,0.01l0.029-0.026l-0.021-0.06l-0.125-0.12l-0.052-0.104l-0.031-0.003l-0.029,0.096l0.023,0.122l0.057,0.13L1095.384,463.628L1095.384,463.628z M1095.374,462.825l0.017-0.005l0.021-0.017l-0.012-0.019l-0.016,0.003l-0.023,0.031L1095.374,462.825L1095.374,462.825z M1094.949,461.748l0.042,0.052l0.05,0.019l0.064-0.014v-0.021l-0.068-0.016l-0.068-0.035L1094.949,461.748L1094.949,461.748z M1095.56,462.019l0.005-0.017l-0.031-0.031l-0.031-0.002l-0.007,0.016l0.017,0.031l0.024,0.009L1095.56,462.019L1095.56,462.019z M1095.616,462.075h0.056l0.028-0.009l0.002-0.047l-0.014-0.028l-0.075-0.021l-0.024,0.012l-0.002,0.042l-0.009,0.023L1095.616,462.075L1095.616,462.075z M1095.289,461.97h0.043l0.016-0.021v-0.026l-0.077-0.085l-0.017,0.002l-0.019,0.033l0.035,0.083L1095.289,461.97L1095.289,461.97z M1077.667,469.984l0.081-0.07v-0.057l-0.062-0.057l-0.034,0.003l-0.008,0.052l0.018,0.052l-0.023,0.078H1077.667L1077.667,469.984z M1078.535,470.229l0.031-0.099l-0.018-0.099l-0.026-0.013l-0.018,0.031l0.013,0.083l-0.008,0.109L1078.535,470.229L1078.535,470.229z M1078.694,470.659h0.044l0.031-0.031l-0.013-0.065l-0.068-0.104h-0.036l-0.013,0.036l0.029,0.117L1078.694,470.659L1078.694,470.659z M1096.45,467.54l0.039-0.013l0.008-0.063l-0.008-0.063l-0.078-0.029l-0.089,0.031l-0.013,0.044l0.047,0.065L1096.45,467.54L1096.45,467.54z M1094.881,468.092l0.029-0.029l0.013-0.055l-0.016-0.018l-0.029,0.005l-0.031,0.039l0.003,0.052L1094.881,468.092L1094.881,468.092z M1094.959,467.868l0.06-0.083v-0.023l-0.026,0.005l-0.062,0.07v0.031H1094.959L1094.959,467.868z M1095.05,467.871l0.029-0.026l0.005-0.034l-0.021-0.01l-0.034,0.013l-0.008,0.049L1095.05,467.871L1095.05,467.871z M1094.985,468.116l0.065-0.042l0.07-0.068l0.039-0.073l-0.016-0.018h-0.023l-0.076,0.068l-0.078,0.122L1094.985,468.116L1094.985,468.116z M1097.795,464.081l0.089,0.016l0.031-0.068l0.062-0.021l0.141,0.036l0.042-0.052l-0.104-0.162l-0.063-0.021l-0.13,0.016l-0.193,0.078l-0.021,0.057L1097.795,464.081L1097.795,464.081z M1094.829,463.904l0.068-0.021l0.083,0.01l0.068-0.01l0.026-0.042l-0.057-0.042l-0.005-0.063l-0.073-0.036l-0.068,0.021l-0.026,0.068l-0.047,0.052v0.052L1094.829,463.904L1094.829,463.904z M1097.263,465.911l0.12,0.146l0.031,0.099l0.078,0.068l0.261,0.141l0.177,0.036l0.099-0.042l0.021-0.099l0.057-0.068l0.115-0.078l0.146-0.182l0.057-0.151l-0.021-0.141l-0.151-0.136l-0.177-0.031l-0.161,0.042l-0.156-0.01l-0.094-0.083l-0.125-0.047l-0.068,0.036l-0.021,0.104l-0.089,0.099l-0.104,0.042l-0.036,0.073L1097.263,465.911L1097.263,465.911z M1091.538,465.954l-0.045,0.066l0.024,0.021l0.045-0.014l0.056,0.007l0.052,0.024l0.024-0.024l-0.031-0.076l0.021-0.024l0.073-0.021l0.021-0.063l-0.024-0.028l-0.101,0.038l-0.042-0.024l0.003-0.049l-0.014-0.031l-0.031,0.01v0.045l-0.038,0.031l-0.056-0.003l-0.01,0.038l0.059,0.045L1091.538,465.954L1091.538,465.954z M1091.816,466.264l0.01-0.045l0.035-0.014l0.004-0.024l-0.045-0.007l-0.031,0.031v0.056L1091.816,466.264L1091.816,466.264z M1076.263,478.556l0.036-0.036l0.099,0.005l0.047-0.021l0.036,0.016l-0.052,0.052l-0.104,0.01L1076.263,478.556L1076.263,478.556z M1097.792,463.668l0.021-0.023l-0.004-0.022l-0.034,0.002l-0.068,0.055l0.003,0.021l0.018,0.005L1097.792,463.668L1097.792,463.668z M1088.109,471.917l0.028,0.031l0.032,0l0.011-0.032l-0.024-0.032l-0.029-0.007l-0.024,0.011L1088.109,471.917L1088.109,471.917z M1079.452,469.582l0.002,0.042l0.024,0.021l0.029-0.017l0.002-0.04l-0.017-0.024l-0.026-0.007L1079.452,469.582L1079.452,469.582z M1094.987,468.907l0.034-0.029l-0.005-0.035l-0.023-0.013l-0.026,0.019l-0.009,0.043L1094.987,468.907L1094.987,468.907z M1087.995,471.55l0.002-0.029l-0.051,0l-0.033,0.032l0.009,0.032l0.042,0.006L1087.995,471.55L1087.995,471.55z M1096.438,469.924l0.01,0.02l0.03-0.025l0.021-0.058l-0.009-0.013l-0.027,0.022L1096.438,469.924L1096.438,469.924z M1087.933,469.37l0.008-0.017l-0.017-0.021l-0.03-0.005l-0.012,0.014l0.021,0.024L1087.933,469.37L1087.933,469.37z M1096.069,470.758l0.018,0.005l0.017-0.02l0-0.03l-0.016-0.009l-0.02,0.024L1096.069,470.758L1096.069,470.758z M1094.217,468.49l0.005,0.018l0.026,0.005l0.026-0.016v-0.018l-0.031-0.005L1094.217,468.49L1094.217,468.49z M1075.918,478.434l0.01-0.018l-0.01-0.017l-0.036,0.006l-0.02,0.016l0.012,0.022L1075.918,478.434L1075.918,478.434z M1082.015,475.024l0.021,0.003l0.012-0.015l-0.018-0.032l-0.022-0.013l-0.016,0.018L1082.015,475.024L1082.015,475.024z M1075.428,469.53l0.021-0.001l0.01-0.017l-0.023-0.029l-0.024-0.009l-0.013,0.021L1075.428,469.53L1075.428,469.53z M1082.121,475.066l0.033,0.015l0.01-0.014l-0.027-0.03l-0.027-0.008l-0.009,0.013L1082.121,475.066L1082.121,475.066z M1090.434,476.793l-0.015-0.011l-0.011,0.022l0.005,0.032l0.016-0.006L1090.434,476.793L1090.434,476.793z M1093.957,468.743l0.002-0.019l-0.024,0.002l-0.024,0.021l0.014,0.01L1093.957,468.743L1093.957,468.743z M1090.52,476.845l-0.003-0.027l-0.015,0.006l-0.01,0.044l0.014,0.003L1090.52,476.845L1090.52,476.845z M1094.084,470.96l0.006-0.027l-0.018-0.024l-0.029,0.006l-0.003,0.021l0.029,0.028L1094.084,470.96L1094.084,470.96z M1094.994,467.577l-0.007-0.021l-0.026,0.017l-0.009,0.028l0.019,0.007L1094.994,467.577L1094.994,467.577z M1096.407,467.655l0.029,0.019l0.034,0.006l-0.003-0.014l-0.037-0.025l-0.026-0.004L1096.407,467.655L1096.407,467.655z M1082.848,468.132h0.014l0.011-0.012l0.002-0.02l-0.013,0l-0.011,0.012L1082.848,468.132L1082.848,468.132z M1080.469,477.26l0.009-0.011l-0.002-0.016l-0.013-0.014l-0.009,0.01l0.002,0.017L1080.469,477.26L1080.469,477.26z M1082.471,475.515l0.009-0.011l-0.002-0.016l-0.013-0.014l-0.009,0.01l0.002,0.016L1082.471,475.515L1082.471,475.515z M1082.869,468.22l0.008-0.005l0.008-0.027l-0.008-0.008l-0.007,0.006l-0.005,0.023L1082.869,468.22L1082.869,468.22z M1095.19,467.84l0.009,0.001l0.024-0.016l-0.001-0.011l-0.009,0l-0.018,0.014L1095.19,467.84L1095.19,467.84z M1079.95,475.444l0.009-0.004l0.012-0.026l-0.006-0.009l-0.008,0.005l-0.009,0.021L1079.95,475.444L1079.95,475.444z M1097.886,468.307l-0.003,0.014l0.017,0.017l0.017-0.006l0.001-0.019l-0.014-0.014L1097.886,468.307L1097.886,468.307z M1084.112,468.857l-0.001,0.014l0.003,0.01l0.012-0.009l0.003-0.01l-0.004-0.01L1084.112,468.857L1084.112,468.857z M1083.145,467.859l-0.001,0.014l0.003,0.01l0.012-0.009l0.003-0.01l-0.004-0.01L1083.145,467.859L1083.145,467.859z M1094.579,468.889l-0.001,0.014l0.003,0.01l0.012-0.009l0.003-0.01l-0.004-0.01L1094.579,468.889L1094.579,468.889z M1089.969,475.474l0.014,0.001l0.01-0.003l-0.009-0.012l-0.01-0.003l-0.01,0.004L1089.969,475.474L1089.969,475.474z M1083.249,475.806l-0.001,0.014l0.003,0.01l0.012-0.009l0.003-0.01l-0.004-0.01L1083.249,475.806L1083.249,475.806z M1082.54,468.095v0.014l0.014,0.008l0.012-0.008l-0.007-0.014H1082.54L1082.54,468.095z M1090.038,474.852l0.007,0.018l0.011-0.001l0.003-0.018l-0.012-0.008L1090.038,474.852L1090.038,474.852z M1083.443,469.061l-0.007-0.008l-0.011,0.003l0.001,0.014l0.014,0.003L1083.443,469.061L1083.443,469.061z M1083.719,469.034l-0.002-0.011l-0.011-0.003l-0.006,0.013l0.011,0.009L1083.719,469.034L1083.719,469.034z M1087.807,469.31l0.007,0.008l0.011-0.003l-0.001-0.014l-0.014-0.003L1087.807,469.31L1087.807,469.31z M1095.036,467.757l0.007,0.008l0.011-0.003l-0.001-0.014l-0.014-0.003L1095.036,467.757L1095.036,467.757z M1090.723,475.013l0.007,0.008l0.011-0.003l-0.001-0.014l-0.014-0.003L1090.723,475.013L1090.723,475.013z M1087.894,469.507l0.003,0.012l0.016-0.002v-0.012l-0.011-0.007L1087.894,469.507L1087.894,469.507z M1083.635,468.709l-0.009-0.012l-0.01,0.001l-0.005,0.013l0.012,0.007L1083.635,468.709L1083.635,468.709z M1084.158,468.784l-0.012,0.009l0.001,0.01l0.013,0.005l0.007-0.012L1084.158,468.784L1084.158,468.784z M1083.949,468.114l0.012-0.009l-0.001-0.01l-0.013-0.005l-0.007,0.012L1083.949,468.114L1083.949,468.114z M1084.221,468.364l0.014,0.006l0.008-0.006l-0.003-0.014h-0.014L1084.221,468.364L1084.221,468.364z M1090.684,474.917l0.014,0.006l0.008-0.006l-0.003-0.014h-0.014L1090.684,474.917L1090.684,474.917z M1090.543,474.695l0.014,0.006l0.008-0.006l-0.003-0.014h-0.014L1090.543,474.695L1090.543,474.695z M1079.804,476.905l0.014,0.006l0.008-0.006l-0.003-0.014h-0.014L1079.804,476.905L1079.804,476.905z M1080.127,475.237l0.014,0.006l0.008-0.006l-0.003-0.014h-0.014L1080.127,475.237L1080.127,475.237z M1075.427,469.274l0.014,0.006l0.008-0.006l-0.003-0.014h-0.014L1075.427,469.274L1075.427,469.274z M1075.481,469.33l0.014,0.006l0.008-0.006l-0.003-0.014h-0.014L1075.481,469.33L1075.481,469.33z M1084.373,467.989l-0.005,0.012l0.01,0.009l0.016-0.01l-0.004-0.012L1084.373,467.989L1084.373,467.989z M1083.89,468.942l-0.007,0.01l0.012,0.007l0.014-0.004l0.004-0.011L1083.89,468.942L1083.89,468.942z M1095.048,467.625l0.004,0.011l0.012-0.007l0.004-0.014l-0.007-0.009L1095.048,467.625L1095.048,467.625z M1090.135,474.982l0.002,0.012l0.014-0.004l0.006-0.013l-0.005-0.011L1090.135,474.982L1090.135,474.982z M1094.313,468.451l-0.007,0.01l0.012,0.007l0.014-0.004l0.004-0.011L1094.313,468.451L1094.313,468.451z M1080.6,471.035l0.014,0.019l0.012-0.001v-0.03l-0.018-0.017l-0.013,0.004L1080.6,471.035L1080.6,471.035z M1088.278,476.543l0.022,0.03l0.012,0.001l0.005-0.011l-0.03-0.043l-0.015,0.003L1088.278,476.543L1088.278,476.543z M1092.919,470.151l0.002-0.037l-0.008-0.009l-0.011,0.005l-0.005,0.053l0.013,0.007L1092.919,470.151L1092.919,470.151z M1084.866,466.761l0.009-0.036l-0.007-0.01l-0.012,0.003l-0.014,0.051l0.011,0.01L1084.866,466.761L1084.866,466.761z M1078.45,478.231l0.021,0.029l0.012-0.009l-0.013-0.039l-0.017-0.016l-0.011,0.006L1078.45,478.231L1078.45,478.231z M1103.445,473.317l0.006-0.033l-0.012-0.006l-0.022,0.028l0.002,0.023l0.013,0.01L1103.445,473.317L1103.445,473.317z M1094.789,469.222l-0.001-0.015l-0.016,0.007l-0.011,0.022l0.014,0.004L1094.789,469.222L1094.789,469.222z M1089.886,474.771l-0.004-0.014l-0.015,0.009l-0.007,0.023l0.014,0.001L1089.886,474.771L1089.886,474.771z M1083.008,475.982l-0.005,0.031l0.021,0.013l0.034-0.013v-0.023l-0.023-0.013L1083.008,475.982L1083.008,475.982z M1078.47,469.797l0.016,0.027l0.024-0.003l0.018-0.032l-0.015-0.018l-0.026,0.005L1078.47,469.797L1078.47,469.797z M1079.309,477.681l-0.007,0.022l0.015,0.017l0.033-0.007l0.008-0.024l-0.017-0.012L1079.309,477.681L1079.309,477.681z M1096.32,467.547l-0.019,0.005l-0.002,0.023l0.011,0.019l0.024,0l0.009-0.022L1096.32,467.547L1096.32,467.547z M1092.824,477.394l-0.02,0.037l0.021,0.018l0.028-0.025l-0.001-0.033L1092.824,477.394L1092.824,477.394z M1082.278,476.164l0.019-0.005l0.008-0.019l-0.015-0.003l-0.016,0.006l-0.007,0.014L1082.278,476.164L1082.278,476.164z M1083.471,470.78l0.019-0.005l0.008-0.019l-0.015-0.003l-0.016,0.006l-0.007,0.014L1083.471,470.78L1083.471,470.78z M1094.013,470.292l0.019-0.066l-0.01-0.016L1094,470.22l-0.017,0.046l0.012,0.03L1094.013,470.292L1094.013,470.292z M1094.98,467.993l0.006,0.014l0.012-0.001l0.017-0.014l-0.008-0.012l-0.018,0.003L1094.98,467.993L1094.98,467.993z M1082.476,468.054l0.021,0.003l0.007-0.009l-0.016-0.019l-0.019-0.002l-0.002,0.012L1082.476,468.054L1082.476,468.054z M1089.925,475.663l0.004,0.021l0.01,0.004l0.013-0.021l-0.005-0.018l-0.012,0.003L1089.925,475.663L1089.925,475.663z M1075.473,469.249l0.016-0.014l-0.002-0.011l-0.025,0l-0.014,0.013l0.008,0.009L1075.473,469.249L1075.473,469.249z M1081.257,470.965l0.004,0.021l0.01,0.004l0.013-0.021l-0.005-0.018l-0.012,0.003L1081.257,470.965L1081.257,470.965z M1087.781,469.606l0.017,0.014l0.011-0.006l0.001-0.016l-0.014-0.014l-0.012,0.006L1087.781,469.606L1087.781,469.606z M1102.274,470.247l0.022,0l0.004-0.011l-0.01-0.013l-0.019-0.002l-0.005,0.013L1102.274,470.247L1102.274,470.247z M1094.742,468.683l0.022,0l0.004-0.011l-0.01-0.013l-0.019-0.002l-0.006,0.013L1094.742,468.683L1094.742,468.683z M1084.064,468.633l0.014-0.002l0.004-0.016l-0.012-0.011l-0.016,0.004l-0.001,0.013L1084.064,468.633L1084.064,468.633z M1076.861,478.74l0.025,0.032l0.024,0.006l0.001-0.026l-0.033-0.043l-0.018-0.004L1076.861,478.74L1076.861,478.74z M1087.952,474.64l0.002-0.04l-0.014-0.02l-0.018,0.02l-0.003,0.054l0.012,0.014L1087.952,474.64L1087.952,474.64z M1091.384,465.775l0.024,0.052l0.016,0.014l0.02-0.007l-0.005-0.039l-0.022-0.031l-0.024-0.004L1091.384,465.775L1091.384,465.775z M1090.005,474.71l-0.006,0.021l0.018,0.007l0.028-0.016l0.011-0.022l-0.011-0.016L1090.005,474.71L1090.005,474.71z M1078.004,477.951l0.005-0.028l-0.012-0.01l-0.019,0.019l0.002,0.022l0.015,0.01L1078.004,477.951L1078.004,477.951z M1094.073,478.152l0.018,0.021l0.015-0.003l-0.003-0.027l-0.018-0.013l-0.017,0.005L1094.073,478.152L1094.073,478.152z M1091.85,465.896l-0.01-0.026l-0.015-0.003l-0.007,0.026l0.012,0.018l0.018,0.001L1091.85,465.896L1091.85,465.896z M1084.399,468.069l0.014-0.024l-0.008-0.013l-0.025,0.012l-0.006,0.021l0.01,0.015L1084.399,468.069L1084.399,468.069z M1080.344,477.303l0.015-0.014l-0.003-0.012l-0.029,0.008l-0.018,0.019l0.012,0.012L1080.344,477.303L1080.344,477.303z M1079.569,476.887l0.009-0.019l-0.007-0.01l-0.025,0.018l-0.011,0.024l0.015,0.007L1079.569,476.887L1079.569,476.887z M1097.942,468.184l0.01,0.018l0.018-0.001l0.006-0.023l-0.016-0.024l-0.018,0.004L1097.942,468.184L1097.942,468.184z M1091.837,466.068l0.013,0.024l0.017-0.004l0.009-0.054l-0.01-0.019l-0.018,0.007L1091.837,466.068L1091.837,466.068z M1082.662,475.894l0.004-0.013l-0.007-0.011l-0.013,0l-0.005,0.016l0.007,0.009L1082.662,475.894L1082.662,475.894z M1084.111,468.976l0.015-0.01l0.004-0.019l-0.011-0.011l-0.014,0.011l-0.003,0.015L1084.111,468.976L1084.111,468.976z M1083.105,467.995l-0.022-0.006l-0.008,0.01l0.012,0.01l0.017-0.001L1083.105,467.995L1083.105,467.995z M1090.27,474.992l0.006-0.022l-0.01-0.008l-0.01,0.012l0.001,0.017L1090.27,474.992L1090.27,474.992z M1082.532,475.692l0.013,0.019l0.008-0.006l0.002-0.014l-0.014-0.018l-0.013-0.003L1082.532,475.692L1082.532,475.692z M1083.873,469.335l0.007-0.012l-0.012-0.007l-0.012,0.005v0.014H1083.873L1083.873,469.335z M1079.969,477.108l0.007-0.012l-0.012-0.007l-0.012,0.005v0.014H1079.969L1079.969,477.108z M1078.148,478.184l0.016,0.003l0.01-0.012l-0.01-0.012l-0.016,0.005V478.184L1078.148,478.184z M1083.833,468.884l-0.004-0.009l-0.013,0l0.001,0.015l0.01,0.006L1083.833,468.884L1083.833,468.884z M1084.126,468.566l-0.006,0.008l0.006,0.012l0.013-0.009l0-0.011L1084.126,468.566L1084.126,468.566z M1084.36,468.297l0.006-0.008l-0.006-0.012l-0.013,0.009v0.011L1084.36,468.297L1084.36,468.297z M1083.911,468.587l0.006-0.008l-0.006-0.012l-0.013,0.009l0,0.011L1083.911,468.587L1083.911,468.587z M1083.998,468.086l0.006-0.008l-0.006-0.012l-0.013,0.009v0.011L1083.998,468.086L1083.998,468.086z M1084.188,468.95l0.01,0.001l0.007-0.011l-0.014-0.007l-0.01,0.006L1084.188,468.95L1084.188,468.95z M1087.871,469.566l0.01,0.001l0.007-0.011l-0.014-0.007l-0.01,0.006L1087.871,469.566L1087.871,469.566z M1095.494,468.089l0.001-0.01l-0.011-0.007l-0.007,0.014l0.005,0.01L1095.494,468.089L1095.494,468.089z M1090.338,474.965l0.01,0.001l0.007-0.011l-0.014-0.007l-0.01,0.006L1090.338,474.965L1090.338,474.965z M1083.2,476.077l0.006-0.008l-0.006-0.012l-0.013,0.009v0.011L1083.2,476.077L1083.2,476.077z M1078.209,478.046l0.01,0.001l0.007-0.011l-0.014-0.007l-0.01,0.006L1078.209,478.046L1078.209,478.046z M1083.853,469.041l0.011,0.004l0.005-0.01l-0.008-0.01l-0.011,0.003L1083.853,469.041L1083.853,469.041z M1083.873,468.415l-0.008-0.009l-0.01,0.006l0.002,0.013l0.011,0.003L1083.873,468.415L1083.873,468.415z M1084.259,468.323l0.004-0.011l-0.01-0.006l-0.01,0.008l0.003,0.011L1084.259,468.323L1084.259,468.323z M1083.839,469.454l0.004-0.011l-0.01-0.006l-0.01,0.008l0.003,0.011L1083.839,469.454L1083.839,469.454z M1095.266,467.897l-0.011-0.004l-0.006,0.01l0.008,0.01l0.011-0.003L1095.266,467.897L1095.266,467.897z M1090.422,474.978l0.004-0.011l-0.01-0.006l-0.01,0.008l0.003,0.011L1090.422,474.978L1090.422,474.978z M1079.701,477.148l0.004-0.011l-0.01-0.006l-0.01,0.008l0.003,0.011L1079.701,477.148L1079.701,477.148z M1083.504,468.442l-0.007,0.01l0.009,0.009l0.014-0.002l-0.002-0.013L1083.504,468.442L1083.504,468.442z M1083.647,468.105l-0.007,0.01l0.009,0.009l0.014-0.002l-0.002-0.013L1083.647,468.105L1083.647,468.105z M1083.766,468.132l-0.007,0.01l0.009,0.009l0.014-0.002l-0.002-0.013L1083.766,468.132L1083.766,468.132z M1083.969,468.775l0.01,0.007l0.009-0.009l-0.002-0.014l-0.013,0.002L1083.969,468.775L1083.969,468.775z M1084.204,468.479l-0.012-0.001l-0.003,0.012l0.008,0.011l0.01-0.008L1084.204,468.479L1084.204,468.479z M1087.942,469.41l0.001-0.012l-0.012-0.003l-0.011,0.008l0.008,0.01L1087.942,469.41L1087.942,469.41z M1095.261,468.1l0.001-0.012l-0.012-0.003l-0.011,0.008l0.008,0.01L1095.261,468.1L1095.261,468.1z M1095.213,468.037l0.001-0.012l-0.012-0.003l-0.011,0.008l0.008,0.01L1095.213,468.037L1095.213,468.037z M1090.545,474.565l0.001-0.012l-0.012-0.003l-0.011,0.008l0.008,0.01L1090.545,474.565L1090.545,474.565z M1081.918,476.456l-0.011,0.005l0.004,0.012l0.013,0.005l0.004-0.012L1081.918,476.456L1081.918,476.456z M1082.599,476.036l0.001-0.012l-0.012-0.003l-0.011,0.008l0.008,0.01L1082.599,476.036L1082.599,476.036z M1083.901,468.754l0.003-0.013l-0.013-0.008l-0.009,0.009l0.008,0.009L1083.901,468.754L1083.901,468.754z M1083.851,468.052l-0.003,0.013l0.013,0.008l0.009-0.009l-0.008-0.009L1083.851,468.052L1083.851,468.052z M1094.869,467.58l0.004,0.012h0.015l0.003-0.012l-0.011-0.004L1094.869,467.58L1094.869,467.58z M1095.344,467.925l-0.012,0.004v0.015l0.012,0.003l0.004-0.011L1095.344,467.925L1095.344,467.925z M1090.416,474.359l-0.012,0.004v0.015l0.012,0.003l0.004-0.011L1090.416,474.359L1090.416,474.359z M1082.721,476.205l-0.012,0.004v0.015l0.012,0.003l0.004-0.011L1082.721,476.205L1082.721,476.205z M1075.374,469.315l-0.012,0.004v0.015l0.012,0.003l0.004-0.011L1075.374,469.315L1075.374,469.315z M1084.323,468.06l0.022-0.017l0.001-0.015l-0.02,0.001l-0.015,0.007l-0.013,0.016l0.005,0.011L1084.323,468.06L1084.323,468.06z M1077.415,478.081l0.014-0.011l-0.001-0.015l-0.018-0.006l-0.012,0.012l0.001,0.014L1077.415,478.081L1077.415,478.081z M1096.695,469.064l0.014-0.011l-0.001-0.015l-0.018-0.006l-0.012,0.012l0.001,0.014L1096.695,469.064L1096.695,469.064z M1079.071,476.716l0.017-0.001l0.007-0.014l-0.005-0.011h-0.015l-0.008,0.012L1079.071,476.716L1079.071,476.716z M1082.5,476.054l0.017-0.001l0.007-0.014l-0.006-0.011h-0.015l-0.008,0.012L1082.5,476.054L1082.5,476.054z M1078.619,469.351l0.017-0.001l0.007-0.014l-0.005-0.011h-0.015l-0.008,0.012L1078.619,469.351L1078.619,469.351z M1082.929,469.063l-0.014,0.002l-0.006,0.014l0.011,0.015l0.017-0.007l0.002-0.02L1082.929,469.063L1082.929,469.063z M1082.975,469.263v0.014l0.012,0.008l0.017-0.008l-0.004-0.018l-0.019-0.006L1082.975,469.263L1082.975,469.263z M1078.904,476.795v0.014l0.012,0.008l0.017-0.008l-0.004-0.018l-0.019-0.006L1078.904,476.795L1078.904,476.795z M1082.089,476.304v0.014l0.013,0.008l0.017-0.008l-0.004-0.018l-0.019-0.006L1082.089,476.304L1082.089,476.304z M1094.577,476.191v0.014l0.013,0.008l0.017-0.008l-0.004-0.018l-0.019-0.006L1094.577,476.191L1094.577,476.191z M1095.059,468.155v0.014l0.012,0.008l0.017-0.008l-0.004-0.018l-0.019-0.006L1095.059,468.155L1095.059,468.155z M1084.245,468.235l0.014-0.006v-0.014l-0.012-0.011l-0.012,0.008l0.001,0.014L1084.245,468.235L1084.245,468.235z M1082.714,475.972l0.014-0.006v-0.014l-0.012-0.011l-0.012,0.008l0.001,0.014L1082.714,475.972L1082.714,475.972z M1082.208,475.102v0.014l0.012,0.007l0.011-0.01l0.001-0.014l-0.007-0.007L1082.208,475.102L1082.208,475.102z M1083.631,469.715l0.011-0.011l-0.004-0.015h-0.012l-0.01,0.012l0.003,0.017L1083.631,469.715L1083.631,469.715z M1081.356,476.833l-0.001-0.016l-0.014-0.007l-0.008,0.01l0.003,0.015l0.015,0.009L1081.356,476.833L1081.356,476.833z M1094.487,468.534l-0.014,0.008l-0.009,0.018l0.011,0.004l0.018-0.012l0.006-0.015L1094.487,468.534L1094.487,468.534z M1094.887,467.898l0.004-0.018l-0.012-0.012l-0.011,0.005l-0.002,0.024l0.008,0.014L1094.887,467.898L1094.887,467.898z M1083.502,470.835l0.013,0.012l0.032-0.024l0.004-0.021l-0.022-0.007l-0.019,0.015L1083.502,470.835L1083.502,470.835z M1099.794,470.596l0.005,0.017l0.04-0.005l0.014-0.016l-0.016-0.017l-0.024,0.003L1099.794,470.596L1099.794,470.596z M1095.623,471.354l0.005,0.017l0.04-0.005l0.014-0.016l-0.016-0.017l-0.024,0.003L1095.623,471.354L1095.623,471.354z M1097.606,468.289l0.016-0.008l-0.012-0.038l-0.018-0.011l-0.014,0.018l0.008,0.023L1097.606,468.289L1097.606,468.289z M1083.296,475.919l-0.045,0.028l-0.003,0.035h0.038l0.052-0.035l-0.003-0.031L1083.296,475.919L1083.296,475.919z M1102.406,470.4l0.042,0.033l0.034-0.009l-0.013-0.036l-0.051-0.037l-0.028,0.014L1102.406,470.4L1102.406,470.4z M1097.881,468.239l0.017,0.033l0.016,0.004l0-0.036l-0.019-0.029l-0.016,0.001L1097.881,468.239L1097.881,468.239z M1077.195,477.846l-0.001,0.027l0.013,0.015l0.015-0.007l-0.002-0.028l-0.01-0.014L1077.195,477.846L1077.195,477.846z M1082.368,475.246l-0.001,0.027l0.013,0.015l0.015-0.007l-0.002-0.028l-0.01-0.014L1082.368,475.246L1082.368,475.246z M1091.285,465.774l0.015-0.023l-0.004-0.02l-0.016-0.001l-0.012,0.026l0.001,0.017L1091.285,465.774L1091.285,465.774z M1096.642,465.348l0.035,0.011l0.026-0.012l-0.012-0.026l-0.032-0.014l-0.023,0.009L1096.642,465.348L1096.642,465.348z M1080.502,470.651l0.008,0.042l0.026-0.005l0.013-0.034l-0.016-0.042l-0.016,0.005L1080.502,470.651L1080.502,470.651z M1077.031,478.412l0.006-0.036l-0.024-0.044l-0.023,0.008l-0.01,0.032l0.027,0.037L1077.031,478.412L1077.031,478.412z M1094.962,467.752l0.015-0.029l-0.005-0.017l-0.035,0.004l-0.017,0.029l0.001,0.026l0.023,0.006L1094.962,467.752L1094.962,467.752z M1096.537,465.481l0.034,0.038l0.035-0.007l0.013-0.042l-0.019-0.02l-0.051,0.007L1096.537,465.481L1096.537,465.481z M1076.82,478.573l0.027-0.012l0.031-0.057l-0.012-0.031l-0.04-0.011l-0.03,0.022l0.005,0.071L1076.82,478.573L1076.82,478.573z M1092.74,477.644l0.035,0.017l0.149-0.024l0.021-0.042l-0.021-0.049l-0.08-0.01l-0.066,0.049L1092.74,477.644L1092.74,477.644z M1092.883,478.141l0.087,0.003l0.149-0.104l0.062-0.136l-0.049-0.097l-0.08-0.028l-0.167,0.056l-0.066,0.146v0.125L1092.883,478.141L1092.883,478.141z M1092.8,478.405l0.198-0.031l0.028-0.031l-0.021-0.024l-0.188,0.035l-0.035,0.031L1092.8,478.405L1092.8,478.405z M1090.301,477.974l0.076,0.049l0.076,0.003l0.215-0.083l0.004-0.052l-0.052-0.076l-0.202-0.108l-0.052,0.003l-0.028,0.101l0.035,0.066l-0.021,0.049l-0.045,0.014L1090.301,477.974L1090.301,477.974z M1090.225,477.772l0.056-0.07l-0.01-0.035l-0.063-0.01l-0.118-0.035l-0.236-0.014l-0.097,0.017l-0.195-0.049l-0.087-0.042l-0.142,0.003l-0.01,0.038l0.056,0.076l0.24,0.059l0.233,0.024l0.215,0.052L1090.225,477.772L1090.225,477.772z M1089.311,476.052l0.052-0.111l-0.01-0.135l-0.052-0.059l-0.038,0.007l-0.017,0.038v0.066l0.042,0.076v0.111L1089.311,476.052L1089.311,476.052z M1088.352,476.831l0.031-0.003l0.028-0.031l-0.014-0.024l-0.045,0.01l-0.017,0.028L1088.352,476.831L1088.352,476.831z M1088.418,476.897h0.07l0.052,0.035h0.049l0.017-0.038l-0.014-0.031l-0.139-0.014l-0.042,0.017L1088.418,476.897L1088.418,476.897z M1088.619,476.855l0.045,0.104l0.059,0.087l0.104,0.052l0.028-0.01l-0.042-0.056l0.014-0.021l0.108,0.038l0.24,0.01l0.056-0.049l0.042-0.198l-0.028-0.014l-0.066,0.042l-0.101-0.01l-0.233-0.122l-0.08-0.094l-0.073-0.035l-0.035,0.021l0.017,0.122l-0.052,0.076L1088.619,476.855L1088.619,476.855z M1096.257,473.578l0.076,0.05l0.073,0.013l0.044-0.005v-0.026l-0.078-0.018l-0.057-0.068l-0.052-0.003l-0.023,0.018L1096.257,473.578L1096.257,473.578z M1100.872,472.181l0.056,0.024l0.056-0.021l0.003-0.035l-0.056-0.038l-0.08-0.003l-0.031,0.028L1100.872,472.181L1100.872,472.181z M1101.101,472.685l0.087,0.066l0.108,0.003l0.045,0.038l0.017,0.049l-0.031,0.052v0.059l0.045,0.028l0.08-0.038l0.031-0.066l-0.038-0.17l-0.104-0.205l-0.181-0.087l-0.049,0.021l-0.042,0.139L1101.101,472.685L1101.101,472.685z M1100.858,472.053l0.024-0.014l-0.038-0.056l-0.045-0.017l-0.021,0.021l0.007,0.038L1100.858,472.053L1100.858,472.053z M1101.038,472.039l0.16-0.045l0.01-0.042l-0.076-0.024l-0.052-0.059l-0.156-0.059l-0.108,0.021l-0.017,0.045l0.056,0.083l0.076,0.059L1101.038,472.039L1101.038,472.039z M1099.714,470.732l0.097,0.024l0.042-0.031v-0.035l-0.101-0.042l-0.087,0.01l-0.017,0.028L1099.714,470.732L1099.714,470.732z M1100.104,471.017l0.108,0.063l0.101,0.097l0.028,0.118l0.073,0.052l0.062,0.014l0.035-0.014l-0.035-0.104l-0.028-0.08l-0.181-0.17l-0.177-0.094l-0.028,0.021L1100.104,471.017L1100.104,471.017z M1100.305,470.906l0.052,0.003l0.028-0.021l-0.031-0.045h-0.052l-0.024,0.042L1100.305,470.906L1100.305,470.906z M1100.674,471.347l0.062-0.028l0.003-0.038l-0.111-0.035l-0.069,0.017l-0.01,0.056L1100.674,471.347L1100.674,471.347z M1100.587,471.236l0.049-0.021l0.066-0.01l0.007-0.056l-0.042-0.017l-0.094,0.049l-0.017,0.031L1100.587,471.236L1100.587,471.236z M1099.419,470.555l0.035-0.014l-0.097-0.111l-0.031-0.073l-0.094-0.028l-0.031,0.028l0.024,0.09l0.077,0.056L1099.419,470.555L1099.419,470.555z M1083.559,470.982v0.057l0.069,0.078l0.071,0.004l0.097-0.057l0.012-0.084l-0.046-0.122l-0.08-0.028l-0.043,0.022v0.03l0.032,0.037l-0.012,0.084l-0.04,0.014l-0.035-0.037L1083.559,470.982L1083.559,470.982z M1087.949,475.501l0.021-0.06l0.008-0.099l-0.021-0.039l-0.018,0.005l-0.005,0.073l0.003,0.125L1087.949,475.501L1087.949,475.501z M1087.933,475.21l0.031,0.029l0.021-0.013l0.005-0.133l-0.023-0.078h-0.031l-0.013,0.06L1087.933,475.21L1087.933,475.21z M1087.899,473.51v-0.115l0.026-0.042l0.029-0.086l-0.021-0.016l-0.047,0.026l-0.07,0.177l-0.01,0.107l0.055,0.06h0.044l0.021-0.05L1087.899,473.51L1087.899,473.51z M1087.99,473.583l0.018,0.065l-0.008,0.141l0.018,0.055l0.083,0.021l0.029,0.036l-0.005,0.083l-0.029,0.065l-0.008,0.083l0.021,0.047l-0.008,0.07l-0.047,0.049l-0.005,0.078l0.052,0.07l0.034,0.232l0.026,0.008l0.063-0.167l0.005-0.049l-0.031-0.081l0.003-0.065l0.089-0.195l0.047-0.068l0.01-0.149v-0.143l-0.039-0.063l0.005-0.167l0.06-0.151l0.031-0.138l0.005-0.107l0.034-0.12l-0.029-0.279l-0.073-0.169l-0.013-0.089l0.013-0.078l-0.026-0.13l-0.023-0.039l-0.065-0.036l-0.029-0.07l0.021-0.036l0.003-0.049l-0.052-0.052l-0.034,0.003l-0.065,0.068l-0.021,0.138l-0.031,0.091l-0.021,0.344l0.018,0.12l0.013,0.313l0.044,0.109l-0.003,0.055l-0.034,0.044l-0.023,0.133l-0.062,0.07v0.065L1087.99,473.583L1087.99,473.583z M1099.593,470.548l0.132,0.028l0.108-0.059l0.035-0.215l-0.062-0.136l-0.181-0.108l-0.198,0.007l-0.042,0.056l0.056,0.275L1099.593,470.548L1099.593,470.548z M1093.786,471.09l0.076-0.01l0.108-0.073l0.003-0.035h-0.045l-0.115,0.045l-0.062,0.063L1093.786,471.09L1093.786,471.09z M1093.102,469.697l0.035,0.007l0.035-0.049l-0.014-0.049l-0.024,0.003l-0.024,0.038L1093.102,469.697L1093.102,469.697z M1093.265,469.627l0.052,0.059l-0.01,0.042l-0.052,0.01l-0.049-0.035h-0.035l-0.073,0.09l0.024,0.066l-0.007,0.038l-0.042,0.007l-0.021,0.031l0.017,0.066l-0.031,0.08l-0.038,0.028v0.059l0.076,0.069l0.024,0.076l0.115,0.122l0.024,0.076l0.111,0.115l0.097,0.028l0.066,0.094l0.038,0.094l-0.004,0.108l0.024,0.017l0.056-0.056l0.132-0.021l0.049,0.021l0.077-0.007l0.049-0.059l-0.01-0.07v-0.261l-0.031-0.087l0.007-0.059l0.035-0.045l0.014-0.17l-0.045-0.076l0.007-0.035l0.045-0.007l0.038-0.052l-0.021-0.118l-0.083-0.136l-0.045-0.017l-0.062,0.038l-0.056-0.021l-0.042-0.122l-0.004-0.122l-0.042-0.101l-0.077-0.01l-0.052,0.066l0.017,0.083l-0.024,0.024l-0.132-0.09l0.003-0.073l-0.049-0.028l-0.07,0.052l-0.076,0.129l0.007,0.052L1093.265,469.627L1093.265,469.627z M1095.673,471.146l0.014-0.115l-0.014-0.024l-0.094,0.024l-0.059,0.063v0.087l0.049,0.052l0.056-0.014L1095.673,471.146L1095.673,471.146z M1095.458,471.716l0.135,0.035l0.177-0.031l0.066-0.115l-0.028-0.104l-0.09-0.035l-0.059,0.003l-0.035,0.028l-0.031,0.09l-0.062,0.07l-0.062,0.028L1095.458,471.716L1095.458,471.716z M1096.302,470.201l0.007,0.028l0.052-0.052l0.035-0.104l-0.024-0.007l-0.049,0.066L1096.302,470.201L1096.302,470.201z M1094.787,470.607l0.122,0.024l0.142-0.014l0.09-0.049l0.024-0.073l-0.024-0.08l0.014-0.069l0.059-0.031h0.094l0.049,0.014l-0.146,0.028l-0.031,0.042l0.045,0.097l0.01,0.083l0.049,0.052l0.153,0.017l0.08-0.052l0.08-0.167l-0.007-0.059l-0.059-0.09l0.024-0.035l0.083-0.021l0.059-0.035l0.045-0.073l0.024,0.007l-0.059,0.111l-0.007,0.083l0.042,0.031l0.021,0.056l-0.087,0.236l0.003,0.101l0.049,0.042l0.069-0.007l0.052-0.076l0.049,0.003l0.049,0.042l0.031-0.01l0.004-0.087l-0.031-0.069l0.014-0.087l0.059-0.035l0.031,0.007l0.01,0.045l0.024,0.003l0.049-0.063l0.017-0.208l-0.024-0.122l-0.087-0.045l-0.104,0.014l-0.038-0.024l0.047-0.052l0.104-0.052l0.036-0.063l-0.026-0.036l-0.083,0.026l-0.047-0.052l0.01-0.109l0.099-0.146l0.01-0.109l0.073-0.104l0.109-0.057l0.156-0.167l0.031-0.109l0.042-0.031l0.068,0.016l0.047-0.026l0.026-0.193l-0.047-0.078l-0.062-0.026l-0.042-0.151l0.047-0.141l0.005-0.182l-0.047-0.073l-0.021-0.141l0.026-0.052l0.021-0.099l-0.016-0.063l-0.151-0.089l-0.083,0.005l-0.057,0.047l-0.104,0.052l-0.089-0.016l-0.042,0.021l-0.01,0.068l-0.266,0.208l-0.229,0.104l-0.182,0.021l-0.094-0.026l-0.047,0.021l-0.005,0.063l-0.167,0.208l-0.01,0.078l0.078,0.125l0.005,0.078l0.073,0.156l0.073,0.068l0.01,0.167l-0.042,0.078l0.005,0.078l0.063,0.104l-0.021,0.057l-0.078,0.01l-0.135,0.063l-0.057,0.12l-0.021,0.255l0.036,0.073v0.068l-0.146,0.188l-0.052,0.141l0.024,0.153L1094.787,470.607L1094.787,470.607z M1096.149,471.74l0.09-0.028l0.097-0.177l0.059-0.066l0.028,0.01l-0.014,0.129l0.014,0.09l0.038,0.003l0.031-0.111l0.042-0.052l0.038,0.014l-0.01,0.052l0.007,0.111l0.035,0.035l0.097-0.003l0.049-0.031l0.049-0.132l0.174-0.233l0.063-0.052l0.042-0.045l0.014-0.125l-0.01-0.056l-0.066-0.042l-0.031,0.003l-0.01,0.042l-0.045,0.024l-0.035-0.028l0.003-0.101l0.094-0.122l0.087-0.063l0.052-0.003l0.083-0.028l0.139-0.129l0.063-0.003l0.052,0.028l0.014,0.08l0.045,0.056l0.059,0.003l0.104-0.07l0.184-0.063l0.101-0.056l0.069-0.094l0.062-0.035l0.153-0.177l0.024-0.094l-0.028-0.069l-0.132-0.073l-0.052,0.014l-0.066-0.017l-0.059-0.118l-0.125-0.122l-0.056-0.014l-0.038,0.049l-0.031,0.017l-0.007-0.031l0.024-0.035l-0.004-0.066l-0.101-0.073l-0.108,0.021l-0.101,0.101l-0.052,0.104l-0.073,0.052l-0.056-0.021l-0.031-0.087l0.01-0.052l0.125-0.122l0.038-0.076l-0.007-0.111l0.031-0.097l-0.021-0.129l-0.024-0.01l-0.028,0.007l-0.028-0.014l0.004-0.052l0.066-0.184l0.116-0.092l0.031-0.151l-0.033-0.226l0.021-0.059l0.104-0.042l0.01-0.066l-0.052-0.09l0.024-0.059h0.042l0.038,0.076l0.028-0.003l0.007-0.042l0.031-0.014l0.045,0.01l-0.003,0.118l-0.021,0.056h-0.042l-0.062,0.056l-0.01,0.052l0.052,0.049l0.094,0.028l0.08-0.003l0.042-0.035l0.01-0.118l-0.031-0.073l-0.024-0.09v-0.149l0.021-0.083l0.028-0.003l0.08,0.073l0.028,0.059l-0.042,0.052l0.014,0.031l0.045-0.003l0.066,0.031l0.021,0.049l-0.017,0.156l0.038,0.101l0.097,0.049l0.024-0.01l0.007-0.122l-0.028-0.076l-0.007-0.198l0.028-0.101l0.004-0.129l-0.042-0.125l-0.024,0.014l-0.01,0.063l-0.024,0.003l-0.01-0.118l0.024-0.07l0.049-0.028l0.014-0.035l-0.08-0.177l-0.146-0.195v-0.059l-0.021-0.042l-0.101-0.038l-0.024-0.045l-0.028-0.017l-0.059,0.01l-0.031-0.028l0.003-0.038l-0.042-0.042l-0.049-0.014l-0.003-0.035l0.118-0.069l0.007-0.063l-0.042-0.045l-0.101-0.003l-0.316,0.184l-0.073,0.073l-0.108,0.059l-0.111,0.16l-0.052,0.108l-0.007,0.07l-0.014,0.049l-0.045,0.052l-0.017,0.094l0.007,0.073l-0.024,0.115l-0.035,0.049l-0.017,0.063l0.059,0.142l-0.003,0.083l0.052,0.174l-0.056,0.153l-0.08,0.031l-0.038,0.073l0.007,0.07l0.066,0.073l-0.007,0.097l-0.031,0.045l-0.024,0.07l0.01,0.066l-0.031,0.063l-0.156,0.101l-0.087,0.111l0.024,0.024l0.156-0.097l0.045,0.007l0.003,0.063l-0.049,0.094l-0.108,0.097l-0.003,0.059l0.024,0.007l0.062-0.076h0.028l-0.007,0.059l-0.083,0.056l-0.09,0.129l-0.004,0.073l0.045,0.017l0.017,0.038l-0.028,0.059v0.063l0.035,0.003l0.094-0.132l0.038-0.007l0.052,0.073l-0.003,0.066l-0.122,0.104h-0.07l-0.024-0.038l-0.035-0.007l-0.052,0.021l-0.052,0.129l-0.08,0.129l-0.083,0.017l-0.052,0.056l-0.007,0.09l-0.108,0.122l-0.003,0.056l0.083,0.028l0.014,0.104l-0.063,0.063l-0.073-0.01l-0.059,0.014l-0.118,0.097l-0.01,0.094l0.038,0.08l0.021,0.125l0.108,0.202l0.021,0.135l0.08,0.149L1096.149,471.74L1096.149,471.74z M1087.452,469.078l0.003-0.059l-0.02-0.033l0.005-0.031l0.026-0.018l0.005-0.018l-0.039-0.039l0.003-0.021l0.039-0.023l0.016-0.052l-0.026-0.06l0.008-0.055l0.083-0.091l0.047-0.016l0.115,0.005l0.024-0.023l-0.003-0.109l0.029-0.044v-0.102l0.05-0.107l0.003-0.078l0.042-0.089l0.149-0.125l-0.008-0.036l-0.078-0.099l-0.094-0.065l-0.076-0.203l-0.021-0.12l0.005-0.036l0.073-0.099l-0.003-0.044l-0.06-0.026l-0.024-0.052l-0.089-0.094l0.005-0.076l0.047-0.099l0.076-0.078l0.029-0.063l-0.005-0.081l-0.07-0.049l-0.021-0.031l-0.003-0.122l0.018-0.089v-0.091l0.036-0.125l-0.024-0.117l-0.099-0.078l-0.036-0.089l0.039-0.109l0.031-0.029l0.008-0.029l-0.013-0.021v-0.047l0.021-0.036l-0.005-0.042l-0.05-0.044l-0.005-0.056l0.028-0.021l0.007-0.045l-0.049-0.094l-0.017-0.069l0.024-0.118l0.066-0.174l0.045-0.031l0.097-0.184l0.125-0.142l0.035-0.101l-0.007-0.108l-0.094-0.097l-0.01-0.083l0.024-0.094v-0.184l-0.069-0.151l-0.057-0.051l-0.011-0.058l0.028-0.05l0.007-0.137l0.034-0.086l-0.013-0.253l0.018-0.193l-0.013-0.055l0.013-0.031l0.062-0.052l-0.005-0.029l-0.078-0.01l-0.057-0.096l0.01-0.083l-0.029-0.036l-0.081-0.01l-0.086-0.05l-0.25-0.083l-0.039-0.055l0.026-0.117l0.005-0.128l-0.055-0.112l-0.047-0.013l-0.031-0.029l-0.008-0.109l-0.052-0.076l-0.07-0.036l-0.008-0.049l0.06-0.039l0.104-0.008l0.096-0.05l0.076-0.076l0.167-0.096l0.094-0.096l0.297-0.143l0.089-0.029l0.052-0.036l0.078-0.117l0.076-0.06l0.089-0.042l0.154-0.19l-0.005-0.044l0.036-0.036l0.073-0.018l0.094,0.013l0.063-0.016l0.083-0.083l0.096-0.05l0.18-0.023l0.031-0.018l0.018-0.029l0.05-0.013l0.06,0.018l0.055-0.003l0.039-0.018l0.052,0.01l0.057,0.089l0.07,0.016l0.055-0.023l0.05-0.008l0.055,0.013l0.034,0.057l0.042,0.01l0.057-0.023l0.151,0.039l0.091,0.036l0.05-0.013l0.029-0.057l0.036-0.003l0.026,0.039l-0.008,0.06l0.05,0.042h0.057l0.073,0.036l0.021,0.063l-0.044,0.047l-0.036,0.003l-0.036,0.044l0.01,0.047l-0.031,0.036l-0.076,0.013l-0.057,0.068l0.01,0.042l-0.023,0.016l-0.026-0.01l-0.021,0.013l-0.005,0.029l-0.039,0.005l-0.029-0.026l-0.018,0.01l0.005,0.044l0.029,0.016l0.013,0.078l0.039,0.076l0.031,0.01l0.01-0.016l-0.031-0.029l-0.031-0.065l0.013-0.018h0.06l0.031,0.031l0.034-0.016l0.013-0.055l-0.01-0.042l0.018-0.016l0.036,0.044l-0.008,0.128l0.047,0.065l0.029-0.018l-0.005-0.036l0.018-0.013l0.031,0.026l-0.005,0.05l-0.018,0.042l0.05,0.122l0.008,0.078l-0.016,0.086l-0.023,0.005l-0.029-0.026l-0.021,0.008l0.021,0.096l0.034,0.044l0.036,0.005l-0.003,0.026l-0.026,0.018l-0.024,0.057l-0.026,0.016l-0.026-0.016l-0.052,0.013l-0.01,0.063l0.05,0.055l0.003,0.099l-0.039,0.042v0.036l0.052,0.076l-0.005,0.076l-0.021,0.042l0.005,0.078l0.052,0.07l-0.016,0.018l-0.055-0.016l-0.068,0.023l-0.039,0.057l-0.005,0.06l-0.06,0.049l-0.102,0.034l-0.083,0.133l0.003,0.12l-0.023,0.023l-0.05,0.013l-0.091,0.094l-0.073,0.107l-0.008,0.044l-0.021,0.036l-0.062,0.029l-0.029,0.065l0.042,0.193l0.031,0.044l0.018,0.083l0.219,0.302l0.165,0.13l0.087,0.094l0.104,0.066l0.083,0.021l0.101,0.076l0.056,0.104l0.139,0.118l0.07,0.087l0.028,0.073l0.077,0.024l0.111-0.021l0.09,0.021l0.052,0.052l0.003,0.042l-0.035,0.031l0.004,0.038l0.024,0.038l-0.01,0.059l-0.031,0.028l0.024,0.028l0.08-0.014l0.024-0.052l-0.007-0.038l0.031-0.01l0.059,0.031l0.059,0.135l0.017,0.087l0.132,0.16l0.08,0.028l0.104-0.014l0.087,0.028l0.049,0.049l0.031,0.003l0.014-0.028l0.167,0.017l0.212,0.08l0.184,0.101l0.007,0.042l-0.014,0.038l0.004,0.104l0.024,0.069l-0.021,0.136l-0.062,0.056l-0.038,0.097v0.069l-0.042,0.097l-0.056,0.021l-0.035-0.024l0.004-0.035l-0.035-0.017l-0.035,0.035v0.094l0.01,0.069l-0.021,0.097l-0.031,0.038l-0.004,0.066l0.038,0.188l-0.031,0.136l-0.08,0.195l-0.007,0.063l-0.069,0.163l-0.024,0.195l0.028,0.302l0.115,0.132l0.028,0.09l0.108,0.097l0.066,0.017l0.097,0.052h0.122l0.042,0.021l0.01,0.059l0.024,0.014l0.052-0.014l0.045,0.035l0.049,0.09l0.097,0.038l0.097-0.042l0.278-0.028l0.108,0.035l0.097,0.087l0.198,0.07l0.083-0.01l0.184,0.045l0.122-0.024l0.09-0.063l0.031-0.059l0.17-0.132l0.014-0.049l-0.045-0.056l-0.063-0.021l-0.097-0.083l-0.045-0.16l-0.003-0.222l0.129-0.32l0.104-0.125l0.111-0.042l0.069,0.017l0.076-0.031l0.149-0.153l0.07-0.014l0.129,0.031l0.125-0.014l0.059-0.042l0.24-0.042l0.16-0.097l0.063-0.007l0.045,0.038h0.028l0.021-0.021l0.038,0.007l0.042,0.035l0.101-0.003l0.181-0.129l0.049-0.063l0.076-0.007l0.094,0.049l0.094,0.108l0.073,0.038l0.024,0.038l-0.014,0.049l0.003,0.083l0.038,0.038l0.049-0.003l0.017-0.024l-0.052-0.049l0.014-0.042l0.045-0.017l0.038,0.014l0.004,0.056l0.035,0.031l0.09,0.031l0.045-0.003l0.045-0.111l-0.01-0.149l-0.024-0.024l-0.035,0.01l-0.118-0.066l-0.066-0.066v-0.059l-0.049-0.049l-0.066-0.024l-0.007-0.069l0.045-0.045l0.066,0.01l0.08,0.063l0.205,0.215l0.136,0.069l0.076,0.076l0.038-0.007l0.017-0.059l0.045-0.035h0.066l0.073-0.059l0.028-0.069l-0.017-0.076l0.007-0.101l0.031-0.035l-0.007-0.024l-0.063-0.017l-0.01-0.104l0.031-0.101l0.052-0.059l0.007-0.066l-0.021-0.042l0.004-0.069l-0.031-0.108l-0.045-0.236l-0.083-0.115l-0.083-0.052l-0.062,0.01l-0.07-0.017l-0.115,0.003l-0.024,0.035l0.073,0.087l0.09,0.042l0.094,0.08l0.004,0.073l-0.028,0.007l-0.024-0.028l-0.031,0.003l-0.031,0.042l-0.115,0.003l-0.056-0.014l-0.021-0.045l-0.101-0.024l-0.073,0.003l-0.014,0.031l0.028,0.059l-0.017,0.024l-0.076-0.014l-0.059-0.069l-0.014-0.149l-0.031-0.07l0.01-0.087l0.031-0.031l0.007-0.045l-0.024-0.094l-0.062-0.035h-0.083l-0.059-0.045l-0.003-0.07l0.056-0.042l0.028-0.056l0.129-0.083l0.017-0.063l-0.024-0.038l-0.163-0.01l-0.181,0.031l-0.129-0.007l-0.069-0.056l-0.042-0.125l-0.191-0.247l-0.028-0.108l-0.038-0.024l-0.108,0.014l-0.035-0.014v-0.045l-0.028-0.049l-0.024,0.014l0.007,0.045l-0.042,0.035l-0.052,0.007l-0.125-0.066l-0.049-0.101l-0.101-0.076l-0.052-0.017l-0.205-0.163l-0.066-0.118l0.007-0.094l0.049-0.042l0.132-0.021l0.073,0.007l0.065-0.046l0.008-0.138l0.018-0.055l0.065-0.065l-0.008-0.029l-0.042-0.026l-0.018-0.047l-0.094-0.091l-0.05-0.021l-0.031-0.063l0.01-0.031h0.034l0.042,0.026l0.021-0.01l0.003-0.044l0.036-0.047l0.047-0.003l0.013,0.034l0.055,0.023l0.036-0.023l0.026,0.003l0.013,0.055l-0.039,0.107l0.023,0.018l0.031-0.031l0.055-0.023l0.034,0.018l-0.005,0.044l0.029,0.068l-0.021,0.039l0.021,0.021l0.05-0.029l0.044-0.154l-0.018-0.07l-0.07-0.044l-0.052,0.005l-0.034-0.016l-0.01-0.044l-0.057-0.018l-0.042,0.016l-0.07-0.042l-0.013-0.12l-0.023-0.031l0.008-0.031l0.073-0.076l0.047-0.076l0.01-0.081l0.05-0.039l0.107-0.026l0.031,0.008l-0.034,0.052l-0.003,0.029l0.065,0.013l0.052-0.003l0.013-0.036l0.023-0.01l0.039,0.031l0.036,0.076h0.036l0.008-0.023l-0.026-0.078l0.016-0.047l-0.026-0.086l0.008-0.049l0.047-0.023h0.109l0.052-0.018l0.008-0.036l-0.073-0.073l-0.023-0.008l-0.021,0.034l-0.029-0.005l-0.003-0.057l-0.057-0.063l-0.05-0.003l-0.073,0.052l-0.073,0.005l-0.068-0.063l-0.049-0.104l-0.135-0.128l-0.12-0.044l-0.099-0.094v-0.052l0.06-0.047l0.044-0.005l0.036-0.026l0.01-0.05l0.039-0.044l0.068-0.151l-0.008-0.057l-0.107-0.076l-0.102-0.018l-0.036-0.026l-0.042,0.005l-0.068,0.055l-0.055-0.016l-0.073-0.089l0.026-0.081l-0.026-0.089l-0.12-0.096l-0.081-0.047l-0.156,0.003l-0.049-0.023l-0.057-0.102l-0.057-0.06l-0.117-0.055l-0.036-0.117l0.024-0.102l0.073-0.01l0.003-0.049l-0.101-0.087l-0.052-0.101l-0.007-0.087l-0.08-0.226l-0.337-0.431l-0.035-0.104l-0.097-0.111l-0.059-0.174l-0.052-0.045l-0.083-0.024l-0.219-0.222l-0.028-0.076l-0.174-0.066l-0.059,0.017l-0.132,0.003l-0.194-0.031l-0.083-0.044l-0.047-0.104l0.005-0.109l-0.049-0.211l-0.026-0.013l-0.036,0.018l-0.06-0.044l-0.018-0.055l-0.089-0.083l-0.057-0.021l-0.112-0.172l-0.018-0.117l-0.018-0.042l-0.068-0.008l-0.057,0.049v0.177l-0.023,0.055l-0.055,0.023l-0.026,0.06h-0.031l-0.013-0.076l0.029-0.094l-0.005-0.036l-0.109-0.047v-0.036l0.039-0.023l0.016-0.05l0.039-0.031l0.005-0.021l-0.034-0.016l0.003-0.034l0.057-0.057l-0.01-0.031l-0.167,0.003l-0.031-0.018v-0.068l0.039-0.115l0.06-0.068l0.091-0.008l0.076,0.047l0.029,0.039l0.146,0.031l0.104-0.013l0.068,0.031l0.016,0.065l-0.029,0.055l0.008,0.055l0.109,0.068l0.135,0.06l0.099,0.138l0.008,0.05l0.018,0.021l0.193-0.013l0.086,0.023l0.182-0.049l0.135-0.107l0.167-0.227l0.065-0.206l0.086-0.128l0.016-0.081l0.07-0.089l0.094-0.055l0.078,0.029l0.047-0.021l-0.003-0.021l-0.062-0.008l-0.021-0.057l0.026-0.018l0.073,0.023l0.018,0.036l0.036,0.008l0.091-0.065l0.099-0.005l0.083-0.063l0.055-0.018l0.107-0.122l0.06-0.034l0.159,0.008l0.034,0.026l0.023-0.005l0.021-0.021l0.167-0.042l0.076-0.003l0.05,0.029l0.034,0.008l0.052-0.029l0.083-0.018l0.083-0.086l0.154-0.115l0.151-0.083l0.047,0.005l0.083-0.026l0.169-0.156l0.031-0.096l0.073-0.083l0.086-0.039l0.109-0.099l0.008-0.065l0.034-0.055l0.227-0.162l0.029-0.076l-0.016-0.052l0.005-0.039l0.245-0.117l0.018-0.057l-0.031-0.05l0.005-0.021l0.021-0.005l0.016-0.029l-0.01-0.042l0.013-0.029l0.068-0.016l0.029-0.029l-0.003-0.055l0.026-0.023l0.068-0.01l0.065,0.008l0.034-0.018l0.005-0.076l0.049-0.102l0.156-0.151l0.094-0.13l0.008-0.042l-0.034-0.047l-0.005-0.042l0.029-0.086l0.05-0.039l0.211-0.049l0.065,0.016l0.05-0.003l0.034-0.031l0.287-0.076l0.083,0.008l0.044,0.029l0.062,0.013l0.018-0.018l-0.031-0.026l-0.016-0.036l0.021-0.042l0.021,0.008l-0.003,0.031l0.029,0.031l0.039-0.003l0.023-0.034l-0.013-0.052l0.018-0.039l0.094-0.052l0.016-0.042l0.018-0.01l0.091,0.05l0.086,0.122l0.005,0.049L1098,453.97l0.003,0.057l0.018,0.036l0.005,0.029l-0.013,0.034l0.016,0.023l0.052-0.005l0.068,0.023l0.104,0.109l0.086,0.039l0.062,0.044l0.039,0.086l0.115,0.052l0.125,0.008l0.136-0.076l0.076-0.102l0.005-0.073l0.013-0.055l0.042-0.036l0.005-0.026l-0.039-0.073l0.026-0.143l0.068-0.13l0.094-0.049l0.023-0.055l-0.036-0.052l0.026-0.104l0.047-0.031l0.013-0.05l-0.034-0.06l-0.047-0.003l-0.009-0.022l0.042-0.094l-0.031-0.016l-0.033,0.012l-0.026-0.005l-0.127-0.137l0.002-0.047l0.078-0.038l-0.007-0.019l-0.078-0.021l-0.089-0.049l-0.142-0.054l-0.17-0.104l-0.068-0.021l-0.089,0.005l-0.106-0.036l-0.047,0.002l-0.047,0.045l-0.033,0.002l-0.04-0.028l-0.139-0.016l-0.127-0.002l-0.094-0.03l-0.042,0.021l-0.01,0.035l-0.033,0.049l-0.076,0.016l-0.075,0.082l-0.04,0.01l-0.019-0.017l-0.057,0.016l-0.047,0.064l-0.019-0.003l-0.01-0.038l-0.047-0.023l-0.104,0.01l-0.052,0.033h-0.056l-0.031-0.043l-0.036-0.005l-0.049,0.064l-0.043,0.005l-0.036-0.033l-0.063,0.01l-0.017,0.059l-0.066,0.056l-0.049,0.01l-0.073-0.024l-0.076,0.017l-0.004,0.035l0.056,0.017l0.115,0.083l0.226,0.035l0.094-0.003l0.066,0.024l0.038,0.052l0.073,0.028l0.156-0.003l0.007,0.024l-0.118,0.063l-0.188,0.035l-0.09-0.01l-0.122,0.035l-0.059-0.021l-0.066,0.014l-0.181,0.111h-0.167l-0.108-0.042l-0.083-0.104l-0.108-0.014l-0.097,0.059l-0.188,0.003l-0.181-0.073l-0.132,0.003l-0.129,0.073l-0.205,0.007l-0.066-0.024l-0.042,0.003l-0.069,0.045l-0.208-0.007l-0.108-0.028l-0.094,0.031l-0.014,0.052l-0.035,0.031l-0.07,0.003l-0.028,0.049l0.024,0.056l-0.01,0.038l-0.035,0.01l-0.031,0.056l0.014,0.135l-0.087,0.139l-0.087,0.042l-0.208-0.028l-0.059-0.031l-0.083-0.007l-0.052,0.031l-0.017,0.063l-0.146,0.108l-0.122,0.007l-0.069-0.038l-0.271-0.08l-0.101,0.003l-0.073,0.024l-0.111-0.01l-0.285-0.156l-0.064-0.064v-0.076l0.035-0.101l-0.01-0.172l-0.062-0.033h-0.076l-0.104,0.078l-0.021,0.099l-0.078,0.052l-0.12,0.016l-0.151,0.042l-0.094,0.094l-0.083,0.224l-0.188,0.13l-0.083,0.125l-0.162,0.089l-0.229,0.37l-0.078,0.047l-0.13,0.162l-0.068,0.156l-0.021,0.136l-0.198,0.365l-0.135,0.146h-0.203l-0.182-0.125l-0.109-0.005l-0.073,0.042h-0.323l-0.073-0.057l0.01-0.109l-0.042-0.047h-0.104l-0.328,0.115l-0.089,0.094l-0.078-0.01l-0.078-0.115l-0.01-0.052l0.026-0.068l-0.021-0.109l-0.281-0.224l-0.021-0.13l0.073-0.13l-0.01-0.271l-0.146-0.136l-0.125-0.245l-0.089-0.047l-0.104-0.01l-0.089-0.099l-0.036-0.12l-0.094-0.036l-0.115,0.021l-0.172,0.122l-0.073-0.008l-0.115-0.177l-0.193-0.208l-0.073-0.026l-0.062-0.057l-0.026-0.083l-0.115-0.13l-0.094-0.063l-0.161-0.25l-0.083-0.235l-0.026-0.255v-0.255l0.068-0.104v-0.141l-0.109-0.146l-0.042-0.245l-0.083-0.13l0.021-0.263l-0.023-0.065l0.018-0.055l0.078-0.099l0.036-0.102l-0.047-0.115l0.036-0.107l0.141-0.044l0.083-0.094l0.007-0.191l0.031-0.122l-0.017-0.136l0.035-0.069l0.059-0.059l0.017-0.066l-0.031-0.076l0.017-0.069l0.09-0.146l0.177-0.156l0.17-0.33l0.07-0.045l0.069-0.069l0.049-0.087l0.24-0.177l0.163-0.052l0.073,0.028l0.07-0.024l0.031-0.059l0.191-0.083l0.275-0.007l0.108-0.028l0.261,0.022l0.107,0.06l0.096,0.096l0.135,0.042l0.102-0.034l0.034,0.013l0.026,0.068l0.044,0.023l0.07-0.008l0.057,0.018l0.096,0.133l0.143,0.029l0.292-0.138l0.078,0.003l0.161,0.122l0.164-0.01l0.154-0.06l0.029-0.083l0.07-0.06l0.143-0.008l0.078-0.042l0.082-0.075l0.115-0.017l0.215,0.109l0.129-0.003l0.07-0.064l0.115-0.002l0.039,0.042l0.05,0.014l0.066-0.036l0.137-0.043l0.023-0.07l-0.036-0.091l0.016-0.036l0.034-0.01l0.086,0.039l0.133,0.008l0.06-0.031l0.128,0.01l0.081,0.06l0.065,0.008l0.044-0.016l0.044,0.016l0.096,0.096l0.081,0.154l0.135,0.117l0.047,0.013l0.107-0.036l0.055-0.06l0.036-0.003l0.065,0.016l0.135-0.005l0.065-0.031l0.399-0.104l0.151-0.018l0.089-0.042h0.06l0.081,0.036l-0.003,0.031l0.021,0.018l0.07-0.003l0.026-0.034l0.042-0.003l0.031,0.018h0.039l0.042-0.031l0.117-0.005l0.06,0.031h0.091l0.073-0.055l0.055-0.013l0.013-0.029l0.021-0.003l0.018,0.034h0.031l0.008-0.039l0.026-0.008l0.029,0.013l0.042-0.008l0.021-0.047l0.07,0.008l0.057,0.042l0.081,0.003l0.05-0.016l0.083,0.003l0.057,0.023h0.099l0.047,0.039l0.062,0.003l0.031-0.023l-0.008-0.057l0.026-0.008l0.026,0.023l-0.008,0.026l0.01,0.034l0.052,0.005l0.018-0.021h0.034l0.031,0.039l0.047,0.023l0.047-0.008l0.031,0.013l0.023,0.042h0.026l0.021-0.047v-0.073l-0.021-0.029l0.016-0.029l0.078,0.005l0.042,0.047l0.008,0.094l0.023,0.008l0.031-0.021l0.248-0.018l0.068-0.047l0.276,0.008l0.057,0.016h0.047l0.039-0.013h0.06l0.031,0.016l0.057,0.003l0.044-0.016l0.057-0.005l0.05,0.029h0.039l0.031-0.018l0.151-0.013l0.047-0.042l0.026,0.003l0.198,0.156l0.094,0.172l0.096,0.07l0.07,0.016l0.125,0.102l0.01,0.05l0.031,0.026l0.05,0.01l0.096,0.078l0.128,0.029l0.229,0.013l0.227-0.023l0.102-0.065l0.029,0.005l0.052,0.07l0.089,0.026l0.117-0.044l0.12,0.003l0.156,0.039l0.047,0.052l0.031-0.003l0.031-0.034h0.201l0.078-0.052l0.083-0.01l0.104,0.034l0.125-0.018l0.034-0.055l0.047-0.013l0.073,0.021l0.107-0.01l0.062-0.052l0.24-0.052l0.091,0.003l0.023-0.013l0.018-0.042l0.099-0.005l0.112,0.023l0.102-0.018l0.05-0.036l0.232-0.044l0.216-0.008l0.047,0.023l0.078-0.003l0.083-0.034l0.089-0.01l0.01-0.023l-0.044-0.063l0.01-0.029h0.034l0.094,0.042v0.026l0.021,0.008l0.031-0.047l0.01-0.055l0.036-0.01l0.128,0.005l0.117-0.044l0.076,0.003l0.062,0.026l0.055-0.013l0.042-0.078l0.076-0.036l0.052,0.021l0.031-0.01l-0.013-0.12l-0.057-0.063l0.01-0.076l0.049-0.039l0.052-0.005l0.029-0.034v-0.036l0.055-0.042l0.052-0.005l0.026,0.036l0.018-0.003l0.016-0.102l-0.034-0.049l-0.05-0.026l0.003-0.073l0.175-0.195l0.083-0.008l0.031-0.049l-0.026-0.083l0.036-0.149l0.143-0.177l0.083-0.029l0.057-0.073l0.016-0.096l0.036-0.034l0.089,0.003l0.146-0.128l0.029-0.089l0.057-0.039l0.25-0.055l0.057-0.057l0.021-0.089l0.323-0.268l0.151-0.235l0.156-0.573l-0.016-0.068l0.057-0.172l0.141-0.125l0.031-0.047l0.01-0.063l0.061-0.05h0.153l0.139-0.066l0.056-0.059l0.014-0.142l-0.069-0.104l-0.188-0.097l-0.08-0.104l-0.007-0.104l0.083-0.192l-0.024-0.044l-0.076,0.007l-0.07,0.049l-0.104,0.007l-0.208-0.021l-0.08-0.024l-0.024-0.056l0.021-0.122l-0.049-0.08l-0.077-0.014l-0.073,0.066l0.007,0.136l-0.028,0.056l-0.066-0.024l-0.038,0.028l-0.017,0.066l-0.195,0.174l-0.01,0.052l-0.035,0.021l-0.122,0.021l-0.066,0.059l-0.014,0.07l0.129,0.135l0.003,0.073l-0.052,0.115l-0.076,0.042l-0.094-0.01l-0.115,0.035l-0.188,0.17l-0.122,0.024l-0.104-0.014l-0.056-0.045l-0.052,0.014l-0.038,0.052l-0.076,0.014l-0.184,0.153l-0.069,0.149l0.014,0.063l0.094,0.094l0.059,0.007l0.035-0.014l0.08,0.021l0.08,0.07l0.004,0.056l-0.139,0.177l-0.052,0.003l-0.069-0.101l-0.052-0.003l-0.035,0.024l-0.007,0.045l-0.042,0.035l-0.274,0.003l-0.056-0.024l-0.038,0.003l-0.024,0.035l-0.188,0.069l-0.017,0.056l0.028,0.045l-0.035,0.122l-0.104,0.16l-0.035,0.149l-0.07,0.069l-0.153,0.035l-0.156,0.014l-0.059,0.038l-0.028,0.069l-0.08,0.083l-0.143,0.056l-0.118-0.003l-0.073,0.007l-0.365,0.212l-0.101,0.024l-0.007,0.028l0.073,0.028l-0.003,0.028h-0.076l-0.045-0.031l-0.073-0.014l-0.097,0.031l-0.261-0.009l-0.038,0.031l-0.078,0.003l-0.033-0.023l-0.023-0.002l-0.026,0.023l-0.033-0.009l-0.033-0.082l-0.08-0.042l-0.031,0.003v0.028l-0.028,0.007l-0.097-0.076l-0.077-0.01l-0.174-0.073h-0.083l-0.049,0.042l-0.062,0.017l-0.313-0.021l-0.076-0.042l-0.059-0.007l-0.045,0.031h-0.042l-0.038-0.045l-0.09-0.014l-0.039,0.031l-0.031,0.003l-0.034-0.042l-0.068-0.008l-0.057,0.026l-0.174-0.024l-0.027-0.03l0.01-0.056l-0.038-0.059l-0.045,0.003l-0.024,0.031l-0.115,0.01l-0.063-0.035l-0.045,0.003l-0.01,0.031l0.083,0.08l-0.007,0.031l-0.069,0.031l-0.066-0.014l-0.062-0.049l-0.146-0.01l-0.038,0.031h-0.038l-0.254-0.097l-0.035-0.069l-0.062-0.024l-0.142,0.007l-0.028,0.045l0.035,0.049l0.08,0.014l0.01,0.024l-0.087,0.069l-0.122,0.202l-0.202,0.129l-0.024,0.066h-0.031l-0.038-0.073l-0.052-0.028l-0.059,0.01l-0.038-0.017l-0.003-0.076l-0.052-0.059l-0.038-0.01l-0.004,0.031h-0.035l-0.042-0.035l-0.056-0.007l-0.042,0.028l-0.038-0.01l0.014-0.059l-0.035-0.024l-0.052,0.003l-0.038-0.021l-0.089-0.167l-0.13-0.047l-0.062,0.021l-0.099-0.01l-0.344-0.136l-0.099-0.138l-0.034-0.01l-0.026,0.031l0.003,0.068l-0.031,0.034l-0.063,0.01l-0.036-0.052l-0.073-0.016l-0.057,0.031l-0.042-0.005l-0.078-0.12l-0.042-0.005l-0.042,0.083l-0.063,0.036l-0.167-0.01l-0.078,0.031l-0.047-0.016l-0.005-0.068l-0.141-0.073l-0.193-0.016l-0.094-0.094l-0.078-0.01l-0.334,0.156l-0.078,0.005l-0.068-0.063l-0.083-0.188l-0.042-0.021l-0.135,0.063l-0.203-0.01l-0.266,0.068l-0.115-0.031l-0.089,0.005l-0.24,0.089l-0.198-0.008l-0.24-0.12l-0.248-0.24l-0.036-0.107l0.029-0.112l-0.039-0.063l0.01-0.026l0.109-0.036l0.042-0.052l-0.008-0.149l-0.062-0.029l-0.057,0.016l-0.096,0.141l-0.18,0.057l-0.177,0.003l-0.18,0.07l-0.083,0.003l-0.255-0.141l-0.159-0.12l-0.12-0.047l-0.073,0.003l-0.029,0.042l-0.044-0.003l-0.086-0.063l-0.235-0.096l-0.115,0.003l-0.123,0.12l-0.042-0.005l0.013-0.055l0.052-0.031l-0.021-0.049l-0.029,0.003l-0.073,0.102l-0.055,0.034l-0.109,0.003l-0.039-0.039l-0.052-0.008l-0.023,0.021v0.065l0.042,0.057l-0.01,0.023l-0.023,0.016v0.042l0.026,0.034l0.01,0.029l-0.029,0.083l0.01,0.063l0.052,0.034l-0.005,0.109l-0.073,0.042l-0.052-0.003l-0.016,0.021l-0.005,0.096l-0.021,0.063l0.003,0.034l0.057,0.042v0.06l0.039,0.078l0.005,0.068l-0.036,0.036l-0.047,0.008l-0.12,0.057l-0.036,0.076l-0.068,0.052h-0.052l-0.052-0.034l-0.044,0.016l-0.026,0.065l-0.057,0.068l-0.094,0.008l-0.026,0.042v0.057l-0.05,0.091l-0.068,0.044l0.003,0.036l0.026,0.031l-0.008,0.039l-0.034,0.029v0.039l0.031,0.055l-0.013,0.055l-0.06,0.068l-0.008,0.052l0.031,0.044l-0.01,0.036l-0.036,0.005l-0.104-0.034l-0.005-0.021l0.01-0.036l-0.005-0.031l-0.06-0.031l-0.135,0.005l-0.076,0.039h-0.05l-0.096-0.031l-0.115-0.008l-0.062-0.029l-0.031-0.036l-0.021-0.112v-0.089l-0.018-0.042l-0.031,0.016l0.003,0.065l-0.031,0.021l-0.07-0.036l-0.003-0.076l0.018-0.042l0.01-0.052l-0.01-0.055v-0.089l0.031-0.065l0.003-0.094l-0.024-0.026l-0.188-0.003l-0.062,0.034l-0.034,0.063l-0.021,0.01l-0.036-0.008l-0.018,0.016l0.01,0.052l-0.005,0.044l-0.039,0.049l-0.005,0.141l0.026,0.081l0.003,0.146l-0.039,0.081l-0.216,0.149l-0.18,0.068l-0.06,0.003l-0.065-0.026l-0.086,0.016l-0.034,0.029l-0.031,0.065l-0.044,0.01l-0.021,0.026l-0.005,0.06l-0.052,0.073v0.112l0.062,0.159l0.008,0.177l0.031,0.081l-0.005,0.047l-0.167,0.115l-0.151,0.034l-0.117-0.021l-0.109,0.016l-0.065,0.068l-0.023,0.081l0.026,0.063l0.008,0.099l-0.044,0.029l-0.094,0.149l-0.003,0.049l0.094,0.136l0.057,0.031l0.068,0.185l-0.018,0.089l-0.036,0.008l-0.057-0.021l-0.091,0.003l-0.047-0.008l-0.029-0.044l-0.068-0.034l-0.089,0.016l-0.063,0.081l0.003,0.063l0.112,0.125l0.073,0.044l0.169,0.164l0.039,0.089v0.036l-0.023,0.039v0.063l0.042,0.068l-0.008,0.188l-0.13,0.214l-0.008,0.063l-0.013,0.055l-0.036,0.003l-0.031-0.031h-0.107l-0.034,0.023l-0.042-0.003l-0.01-0.073l-0.026-0.052l-0.057-0.01l-0.029-0.055l0.008-0.052l-0.013-0.065l-0.073-0.081l-0.195-0.078l-0.029,0.021l0.029,0.042l-0.016,0.042l-0.047,0.005l-0.135-0.026l-0.026,0.013v0.057l0.125,0.128l0.044,0.13l0.196,0.167l0.122,0.013l0.156-0.068l0.091,0.013l0.01,0.036l-0.023,0.044v0.047l0.042,0.044l0.003,0.078l-0.146,0.339l-0.047,0.177l-0.063,0.073l0.005,0.042l0.042,0.042l0.005,0.083l-0.016,0.078l0.026,0.334l0.062,0.109l0.031,0.198l0.068,0.109l0.063,0.198l0.115,0.115l0.01,0.047l-0.016,0.078l0.036,0.156l0.068,0.052l0.005,0.198l-0.052,0.104l-0.036,0.01l-0.068-0.021l-0.071-0.139l-0.045-0.156l-0.061-0.106l-0.099-0.318l-0.109-0.156l-0.036,0.005l-0.016,0.083l-0.052,0.073l-0.172,0.089l-0.005,0.036l0.068,0.021l0.016,0.073l-0.036,0.089l-0.135,0.073l-0.063,0.068l-0.005,0.057l-0.068,0.068l-0.151,0.052l-0.099,0.141l-0.068,0.261l-0.083,0.078l-0.042,0.109l-0.042,0.162l-0.083,0.167l-0.161,0.089l-0.115,0.13l-0.125,0.052l-0.109,0.229l-0.016,0.141l0.099,0.198v0.089l-0.12,0.094l-0.038,0.179l0.073,0.254l0.021,0.149l0.052,0.097l-0.024,0.104l-0.056,0.045l-0.01,0.035l0.017,0.049l-0.021,0.045l-0.049,0.028l-0.014,0.125l0.059,0.111l0.077,0.309l0.049,0.056l0.059,0.031l0.045,0.139l-0.042,0.069l-0.049,0.125l-0.007,0.104l-0.062,0.063l-0.125-0.003l-0.24,0.139l-0.042,0.087l-0.024,0.191l-0.052,0.125l-0.021,0.184l-0.028,0.031l-0.062,0.028l-0.056,0.146l0.024,0.097l-0.024,0.073l-0.059,0.083l-0.024,0.219l0.052,0.215l-0.003,0.226l0.021,0.063l-0.017,0.038l-0.257,0.076l-0.111,0.063l-0.021,0.063v0.174l-0.028,0.042l-0.059,0.021l-0.038,0.042l-0.017,0.056l-0.115,0.073l-0.09,0.017l-0.188,0.118l-0.083-0.007l-0.09-0.073l-0.056-0.101l-0.038,0.003l-0.122,0.188l-0.021,0.097l0.021,0.125l-0.024,0.045l-0.059,0.045l-0.003,0.142l0.031,0.073l-0.007,0.153l0.038,0.021l0.142-0.042l0.135,0.017l0.108,0.09l0.01,0.125l-0.104,0.215l-0.021,0.09l0.024,0.135l-0.038,0.108l-0.059,0.09l-0.045,0.003l-0.08-0.035l-0.073,0.031l-0.01,0.08l0.069,0.132l0.129,0.111l0.028,0.136l-0.01,0.101l0.038,0.181l0.045,0.052l-0.021,0.052l-0.035,0.031l0.004,0.059l0.038,0.024v0.031l-0.024,0.038l0.007,0.108l0.094,0.132l0.014,0.104l0.01,0.108l0.184,0.313l0.087,0.01l0.031-0.038l0.076-0.01l0.063,0.038l0.038-0.017l0.014-0.101l0.09-0.07l0.163-0.021l0.101,0.031l0.062-0.017l0.07-0.076l0.111-0.021l0.129,0.035l0.108-0.042l0.042-0.056l0.052-0.028h0.045l0.024-0.024l0.024-0.069l0.076-0.028l0.149,0.028l0.069,0.073l0.042,0.017l0.045-0.014l0.236,0.083l0.215,0.208l0.054,0.151l-0.021,0.047l-0.073,0.021l-0.115,0.156l-0.047,0.141l0.016,0.13l0.096,0.122l0.087,0.184l0.08,0.299l0.059,0.108l0.111,0.125l0.017,0.076l0.028,0.257l0.042-0.01l0.021-0.063v-0.049l-0.035-0.035v-0.056l0.059-0.021l0.069,0.007l0.021,0.038l-0.028,0.07l-0.007,0.076l0.01,0.083l-0.021,0.083l-0.049,0.066l-0.004,0.07l0.038,0.031v0.059l-0.017,0.042l0.007,0.038l0.073,0.045l-0.004,0.052l-0.049,0.087l-0.01,0.066l0.017,0.049l-0.021,0.035l-0.052,0.003l-0.014,0.035l0.045,0.045l0.042,0.101l0.045,0.042l-0.004,0.104l-0.042,0.035v0.038l0.028,0.017v0.042l-0.076,0.073l-0.042,0.122l0.003,0.195l-0.017,0.118l-0.042,0.059l-0.003,0.063l0.045,0.101l-0.017,0.09l-0.132,0.17l-0.024,0.087l-0.087,0.083l-0.024,0.08l0.01,0.045l-0.01,0.035l-0.08,0.052l-0.024,0.059l0.017,0.076l0.003,0.104l0.031,0.083v0.108l0.045,0.104l0.031,0.129l-0.017,0.101l-0.066,0.076l-0.07,0.111l-0.024,0.122l0.017,0.069l-0.031,0.108l-0.108,0.108l-0.115,0.052l-0.08,0.149l-0.028,0.177l0.007,0.104l-0.052,0.278l-0.052,0.049l-0.004,0.042l0.031,0.073l-0.01,0.174l0.052,0.132l0.202,0.257l0.024,0.118l-0.042,0.073l0.017,0.108l0.111,0.101l0.108-0.003l0.017-0.038l-0.035-0.028l-0.066-0.017l-0.003-0.045l0.083-0.049l0.132,0.042l0.097,0.104v0.125l0.056,0.069l0.063-0.003l0.038-0.108l0.083-0.01l0.142,0.045l0.024,0.066l-0.028,0.042l-0.045,0.007v0.035l0.139,0.097l0.181,0.028l0.257-0.01l0.129-0.111l0.08-0.014l0.017-0.045l-0.035-0.052l0.021-0.052l0.205-0.174l0.062-0.115l0.056-0.021l0.233,0.059l0.306,0.111l0.215-0.014l0.073-0.063l0.129-0.028l0.115-0.076l0.17-0.017l0.069-0.024l0.045-0.056l0.083-0.01l0.118,0.045l0.083,0.163l0.132,0.122l0.108,0.028l0.052,0.038l0.028-0.01l-0.017-0.083l0.021-0.042l-0.017-0.031l-0.049-0.031l-0.014-0.08v-0.215l0.035-0.035l-0.017-0.035l-0.076-0.021l-0.017-0.031l0.017-0.056l-0.09-0.208l0.01-0.111l-0.038-0.056l-0.101-0.038l-0.125-0.135l-0.045-0.094l-0.01-0.101l-0.056-0.118l-0.052-0.045l-0.08-0.167l0.01-0.063l0.045-0.08l0.028-0.174l0.031-0.031l-0.004-0.042l-0.031-0.038l0.01-0.08l0.031-0.035l0.003-0.042L1087.452,469.078L1087.452,469.078L1087.452,469.078z M1110.825,429.931l-0.027,0.019l-0.002,0.018l0.013,0.007l0.015-0.012l0.01-0.025L1110.825,429.931z"/>
</svg>
