<svg xmlns="http://www.w3.org/2000/svg" viewBox="602.143 220.698 19.057 20.401">
  <path d="M620.44,225.633l0.028-0.029l0.044-0.016l0.021,0.013l-0.05,0.052l-0.059,0.007l-0.013-0.019L620.44,225.633z M620.411,225.617l0.019-0.001l0.015-0.033l0.035-0.022l-0.006-0.021l-0.03,0.001l-0.021,0.033L620.411,225.617z M620.504,225.922l0.008-0.01h0.012l0.018-0.011l-0.006-0.017l-0.028-0.001l-0.015,0.008l-0.001,0.029L620.504,225.922z M620.379,226.312l0.019-0.007l-0.01-0.014h-0.029l-0.007,0.015L620.379,226.312z M620.592,225.499l0.008-0.005l0.008-0.027l-0.008-0.008l-0.007,0.006l-0.005,0.023L620.592,225.499z M620.781,226.692l0.007,0.024l0.028,0.003l0.003-0.024l-0.014-0.014L620.781,226.692z M620.43,225.682v0.014l0.014,0.008l0.012-0.008l-0.007-0.014H620.43z M620.481,225.793l0.007,0.018l0.011-0.001l0.003-0.018l-0.012-0.008L620.481,225.793z M620.518,225.869l0.014,0.006l0.008-0.006l-0.003-0.014h-0.014L620.518,225.869z M620.486,225.716l-0.005,0.012l0.01,0.009l0.016-0.01l-0.003-0.012L620.486,225.716z M620.678,225.518l0.012-0.009l-0.014-0.01l-0.024,0.002l0.003,0.014L620.678,225.518z M620.438,225.772l0.005,0.014l0.012-0.001l0.017-0.014l-0.008-0.012l-0.018,0.003L620.438,225.772z M620.523,225.951l0.012-0.006l0.004-0.012l-0.008-0.01l-0.015,0.007l-0.003,0.011L620.523,225.951z M620.858,224.625l0.016,0.003l0.01-0.012l-0.01-0.012l-0.016,0.005V224.625z M620.902,224.615l0.016,0.003l0.01-0.012l-0.01-0.012l-0.016,0.005V224.615z M620.355,225.625l0.004-0.011l-0.01-0.006l-0.01,0.008l0.003,0.011L620.355,225.625z M620.823,224.727l0.025,0.021l0.037,0.003l0.007-0.028l-0.021-0.026l-0.053-0.011l-0.022,0.014l-0.001,0.025L620.823,224.727z M618.084,221.449l0.035,0.019l0.102-0.001l0.096-0.018l0.091,0.015l0.015,0.028l-0.026,0.053l0.004,0.062l0.021,0.03l0.021-0.003l0.032-0.078l0.007-0.062l0.03-0.051l-0.025-0.036l-0.069-0.022l-0.089,0.003l-0.068-0.029l-0.058,0.007l-0.108,0.054L618.084,221.449z M620.44,225.633l0.028-0.029l0.044-0.016l0.021,0.013l-0.05,0.052l-0.059,0.007l-0.013-0.019L620.44,225.633z M620.411,225.617l0.019-0.001l0.015-0.033l0.035-0.022l-0.006-0.021l-0.03,0.001l-0.021,0.033L620.411,225.617z M620.504,225.922l0.008-0.01h0.012l0.018-0.011l-0.006-0.017l-0.028-0.001l-0.015,0.008l-0.001,0.029L620.504,225.922z M620.379,226.312l0.019-0.007l-0.01-0.014h-0.029l-0.007,0.015L620.379,226.312z M620.592,225.499l0.008-0.005l0.008-0.027l-0.008-0.008l-0.007,0.006l-0.005,0.023L620.592,225.499z M620.781,226.692l0.007,0.024l0.028,0.003l0.003-0.024l-0.014-0.014L620.781,226.692z M620.43,225.682v0.014l0.014,0.008l0.012-0.008l-0.007-0.014H620.43z M620.481,225.793l0.007,0.018l0.011-0.001l0.003-0.018l-0.012-0.008L620.481,225.793z M620.518,225.869l0.014,0.006l0.008-0.006l-0.003-0.014h-0.014L620.518,225.869z M620.486,225.716l-0.005,0.012l0.01,0.009l0.016-0.01l-0.003-0.012L620.486,225.716z M620.678,225.518l0.012-0.009l-0.014-0.01l-0.024,0.002l0.003,0.014L620.678,225.518z M620.438,225.772l0.005,0.014l0.012-0.001l0.017-0.014l-0.008-0.012l-0.018,0.003L620.438,225.772z M620.523,225.951l0.012-0.006l0.004-0.012l-0.008-0.01l-0.015,0.007l-0.003,0.011L620.523,225.951z M620.858,224.625l0.016,0.003l0.01-0.012l-0.01-0.012l-0.016,0.005V224.625z M620.902,224.615l0.016,0.003l0.01-0.012l-0.01-0.012l-0.016,0.005V224.615z M620.355,225.625l0.004-0.011l-0.01-0.006l-0.01,0.008l0.003,0.011L620.355,225.625z M620.823,224.727l0.025,0.021l0.037,0.003l0.007-0.028l-0.021-0.026l-0.053-0.011l-0.022,0.014l-0.001,0.025L620.823,224.727z M618.084,221.449l0.035,0.019l0.102-0.001l0.096-0.018l0.091,0.015l0.015,0.028l-0.026,0.053l0.004,0.062l0.021,0.03l0.021-0.003l0.032-0.078l0.007-0.062l0.03-0.051l-0.025-0.036l-0.069-0.022l-0.089,0.003l-0.068-0.029l-0.058,0.007l-0.108,0.054L618.084,221.449z M614.513,222.651l-0.07,0.026l-0.023,0.057l-0.045,0.009l-0.019-0.023l-0.037,0.004l-0.031,0.038l-0.038,0.002l-0.068-0.018l-0.172,0.129l-0.055,0.11l0.04,0.033l-0.003,0.039l-0.034,0.042l-0.003,0.144l0.045,0.054l-0.042,0.013h-0.078l-0.086,0.052l0.01,0.139l-0.015,0.057l0.028,0.073l-0.007,0.068l-0.1,0.179l-0.07,0.068l-0.182,0.115l-0.026,0.086l-0.006,0.135l0.047,0.05l-0.044,0.036l-0.089-0.013l-0.023-0.034l-0.031,0.003l-0.019,0.031h-0.093l-0.048-0.029l-0.063,0.01l-0.166,0.111l-0.07,0.002l-0.083,0.047l-0.029,0.052l-0.042,0.008l-0.081-0.026l-0.015-0.037l-0.055-0.018l-0.036,0.005l-0.037-0.013l-0.013-0.06l-0.073-0.015l-0.076,0.052l-0.059,0.104l-0.037,0.024l-0.115,0.002l-0.007,0.032l0.065,0.031l0.002,0.036l-0.049,0.034l0.005,0.042l0.065,0.057l0.073,0.005l0.068,0.04l0.013,0.083l0.078,0.01l0.063-0.054l0.028,0.002l0.136,0.099l0.112,0.005l0.091-0.041l0.013-0.034l0.037,0.008l0.028,0.094l-0.023,0.028l-0.175,0.058l-0.06,0.059l-0.101,0.032l-0.029,0.023l-0.018,0.044l-0.091,0.076l-0.008,0.034l0.034,0.01l-0.011,0.029l-0.086,0.029l-0.234-0.013l-0.089,0.021l-0.068-0.011l-0.065-0.052l-0.125,0.005l-0.136,0.196l0.011,0.028l-0.008,0.068l-0.182,0.005l-0.105,0.091l-0.179,0.003l-0.011,0.034l0.097,0.063l-0.021,0.036h-0.042l-0.005,0.023l0.237,0.175l0.094,0.091l0.049,0.094l0.102,0.06l0.086-0.008l0.036,0.026l0.021,0.052l0.107,0.12l0.013,0.063l0.055,0.029l0.104,0.013l0.024,0.028h0.034l0.013-0.021l0.044,0.003l0.034,0.034l0.073,0.008v0.028l-0.034,0.016l-0.008,0.099l0.036,0.042l-0.005,0.151l0.026,0.055l0.138,0.078l0.04,0.002l0.033-0.028l0.167-0.006l0.065,0.027l0.094-0.003l0.042-0.026l0.044,0.029l0.018,0.104l0.027,0.002l0.023-0.033l0.036,0.002l0.097,0.091l0.018,0.086l0.078,0.06l0.092,0.008l0.083,0.078l0.057-0.005l0.037-0.049l0.041,0.005l0.107,0.06l0.063-0.013l0.031-0.081l0.078-0.065l0.118-0.018l0.002,0.039l-0.049,0.036l0.026,0.024l0.14-0.019l0.016,0.019l-0.068,0.049l0.008,0.031l0.084-0.036l0.052,0.008l0.031,0.054l0.042-0.002l0.018-0.026l0.018,0.002l0.039,0.039l0.029-0.023l-0.042-0.042l-0.013-0.044l-0.06-0.044l0.008-0.034l0.039-0.016l0.055-0.07l0.075-0.016l0.034,0.021l-0.031,0.086l-0.044,0.008l0.002,0.026l0.047,0.029l-0.018,0.028l-0.047-0.005l-0.002,0.036l0.044,0.032l0.062-0.018l0.094-0.232l-0.017-0.109l0.054-0.019l0.019-0.024l-0.047-0.016l0.012-0.03l0.047-0.007l0.054-0.034h0.042l0.046-0.032l0.084,0.014l0.085-0.026l-0.004-0.085l-0.041-0.016l0.005-0.022l0.049-0.021v-0.036l-0.058-0.073l-0.055,0.005l-0.016-0.026l0.017-0.045l-0.086-0.053h-0.037l-0.012-0.029l0.042-0.054l0.06,0.009l0.026-0.025l-0.029-0.114l0.023-0.019l0.093,0.02l0.185-0.099l0.005-0.033l-0.032-0.031l0.072-0.04l0.066-0.076l0.071-0.134l0.08-0.026l0.115,0.045l0.001,0.03l0.023,0.007l0.045-0.016l0.198,0.127l0.073,0.097l0.002,0.07l0.029,0.027l0.068-0.003l0.061,0.099l0.05,0.177l-0.034,0.052l-0.028,0.007l-0.014-0.026l-0.018,0.012l0.009,0.047l0.092,0.049l0.04-0.007l0.038,0.033v0.078l0.053,0.111l0.033-0.001l0.026,0.022l-0.002,0.042l0.087,0.069l0.062,0.007l0.047,0.068l0.084-0.002l0.053-0.073l0.086,0.006l0.116,0.081l0.076,0.132l0.007,0.052l-0.036,0.025l0.002,0.055l-0.032,0.03l-0.029,0.003l-0.016,0.021l0.054,0.122l-0.021,0.021l-0.029-0.013l-0.011,0.018l0.019,0.031l-0.003,0.052l-0.033,0.019l0.017,0.051l0.058,0.026l0.045,0.073l0.054,0.022l0.085-0.029l0.012-0.042l0.033-0.016l0.09,0.039l0.063-0.014l0.031-0.037l0.03-0.001l0.066,0.013l0.12-0.053v-0.023l-0.016-0.019l0.017-0.014l0.071,0.021l0.034,0.043l-0.004,0.025l0.017,0.014l0.12-0.028l0.065,0.015l0.022-0.003l0.026-0.042l0.045-0.01l0.016-0.033l-0.021-0.167l0.023-0.024h0.066l0.04,0.047l-0.002,0.048l0.052,0.014l0.064-0.089l0.058-0.015l0.09,0.064l0.033,0.004l0.029,0.014l0.151-0.002l0.044,0.022l0.049,0.105l0.152,0.061l0.078-0.014l0.083,0.014l0.058,0.05l-0.016,0.019l-0.049,0.006l-0.016,0.033l0.084,0.07l0.1,0.009l0.139-0.078l0.033-0.057l0.071-0.042l0.089-0.028l0.049-0.068l0.167-0.109l0.06-0.111l-0.005-0.066l0.056-0.139l-0.007-0.138l-0.038-0.074l0.015-0.07l0.176-0.116l0.014-0.028l0.026-0.01l0.055,0.012l0.146-0.019l0.141-0.037l0.142,0.012l0.047,0.026l0.054,0.089l0.04,0.005l0.049-0.092l-0.007-0.049l0.028-0.012l0.073,0.044l0.026-0.007l0.027-0.058l0.105-0.081l0.045-0.068l0.005-0.038l0.045-0.066h0.063l0.003-0.026l-0.052-0.051l-0.021-0.04l-0.019-0.194l-0.022-0.009l-0.032,0.012l-0.029-0.021l0.008-0.038l-0.027-0.021l-0.082,0.037l-0.066,0.01l-0.094,0.037l-0.033,0.024l-0.061-0.003l-0.029-0.011l-0.028,0.016l0.016-0.044l0.119-0.109l0.023-0.082l-0.005-0.092l0.035-0.043l-0.007-0.059l0.012-0.056l-0.018-0.036l-0.048-0.016l-0.009-0.037l0.016-0.038l-0.028-0.061l-0.052-0.007l-0.026-0.031l0.019-0.054l0.068-0.015v-0.021l-0.089-0.019l-0.061-0.056l-0.076-0.024l0.005-0.019l0.052-0.023l0.014-0.061l0.002-0.068l0.026-0.048l0.035-0.005l0.085,0.073l0.142,0.055l0.104,0.087l0.021,0.038l0.037,0.007l0.022-0.008l0.058,0.071l0.054,0.193l-0.013,0.106l0.018,0.036l-0.018,0.087l-0.093,0.054l-0.04,0.087l0.015,0.083l0.098,0.063l0.038,0.092l0.028,0.038l0.026,0.075l0.034,0.01l0.03,0.037l0.022-0.011l0.007-0.052l0.03-0.09l-0.004-0.044l0.034-0.052l0.064-0.01l0.014-0.037l-0.018-0.128l-0.036-0.061l0.01-0.037l0.104-0.085l0.014-0.049l0.006-0.128l-0.023-0.038l-0.056-0.035l-0.038-0.078l-0.007-0.068l-0.029-0.069l0.019-0.099l-0.023-0.06l-0.137-0.14l-0.042-0.11l-0.003-0.092l-0.035-0.073l-0.12-0.104l-0.014-0.043l-0.034-0.011l-0.028,0.014l-0.065,0.004l-0.026-0.014l-0.053,0.005l-0.032,0.043l-0.149,0.002l-0.056,0.012l-0.094-0.01l-0.052-0.033l-0.041-0.004l-0.228,0.098l-0.148,0.095l-0.042,0.008l-0.051,0.032l-0.037,0.048l-0.032,0.006l-0.064,0.047l0.01-0.025l0.088-0.08l0.005-0.02l-0.017-0.011l-0.046,0.011l-0.031-0.011l-0.01-0.04l0.054-0.133l0.17-0.15l0.271-0.128l0.061,0.01l0.177-0.113l0.022-0.054l0.051-0.058l0.015-0.175l-0.033-0.1l-0.108-0.161l-0.114-0.052l-0.019,0.005l-0.009,0.017h-0.031l-0.016-0.013l-0.034,0.016l-0.003,0.043l0.13,0.102l0.069,0.08l0.047,0.118l-0.015,0.037l-0.019-0.008l-0.063-0.126l0.002-0.028l-0.047-0.03l-0.072-0.006l-0.086-0.036l-0.043-0.079l0.008-0.012l0.033-0.007l0.018-0.037l-0.073-0.111l-0.069-0.054l-0.017-0.086l-0.027-0.019l-0.054-0.002l-0.052-0.034l-0.077-0.178l-0.086-0.124l-0.066-0.038h-0.056l-0.018-0.029l-0.036-0.019l-0.039,0.008l-0.033-0.018l0.004-0.05l0.047-0.073l0.017-0.12l0.033-0.075l-0.005-0.04l-0.075-0.043l-0.071-0.002l-0.145,0.031l-0.017-0.013l-0.025-0.056l0.003-0.07l0.064-0.102l0.007-0.035l-0.003-0.113l0.026-0.058v-0.11l-0.027-0.045l-0.053-0.035l-0.043-0.097l-0.028-0.022l-0.045-0.01l-0.137-0.061l-0.074-0.073l-0.072,0.001l-0.079,0.067l-0.09,0.01l-0.091,0.024l-0.057-0.009l-0.177-0.108l-0.066-0.011l-0.063-0.034l-0.109-0.009l-0.032-0.032l-0.036,0.001l-0.064,0.047l-0.059,0.014l-0.057-0.021l-0.066-0.005l-0.054-0.018l-0.05-0.055l-0.071,0.002l-0.16,0.112l-0.014,0.039l-0.223,0.078l-0.205,0.007l-0.037,0.03l-0.2,0.057l-0.043,0.086l-0.189,0.03h-0.237l-0.18-0.021l-0.108-0.037l-0.122-0.087l-0.03,0.022l0.011,0.086l-0.026,0.143l-0.105,0.19l-0.075,0.047l-0.029,0.068l0.026,0.055l-0.015,0.055l-0.139,0.112l-0.143,0.028l-0.138-0.005l-0.047-0.073l-0.104-0.021l-0.123,0.026l-0.047-0.015l-0.036,0.023l-0.021,0.047l-0.081,0.031l-0.088,0.094l-0.019,0.078l-0.057,0.029l-0.039-0.008l0.008-0.034l0.057-0.028l0.029-0.063l0.081-0.096l0.052-0.016l0.023-0.065l-0.026-0.034L614.513,222.651z"/>
  <path fill="#bbb" d="M614.533,220.738l0.003-0.024l0.026-0.016l0.087,0.01l0.003,0.017l-0.063,0.019L614.533,220.738z M610.088,223.256l0.031,0.021l0.042-0.003l0.016-0.039l-0.023-0.023l-0.039,0.013L610.088,223.256z M610.403,222.575h0.047l0.021-0.018l-0.021-0.044l-0.039-0.008l-0.047,0.018l-0.005,0.034L610.403,222.575z M613.779,222.729l-0.056-0.094l-0.101-0.063l-0.08,0.007l-0.045,0.056l0.024,0.063l0.087,0.056l0.146-0.01L613.779,222.729z M610.86,221.624l0.073,0.01l0.042,0.035l0.083,0.01l0.003-0.028l-0.073-0.063l-0.115-0.031l-0.038,0.01l-0.007,0.035L610.86,221.624z M609.82,223.17l0.143-0.016l0.021-0.036l-0.031-0.042l-0.003-0.047l-0.023-0.044l-0.109-0.065l-0.052-0.005l-0.042,0.029l0.013,0.044l-0.044,0.096l0.01,0.065L609.82,223.17z M610.255,222.925l0.01-0.042l-0.029-0.104l-0.034-0.039l-0.018,0.005l0.018,0.086l-0.013,0.039l0.031,0.057L610.255,222.925z M610.14,223.164l-0.023-0.036l-0.042-0.01l-0.016,0.018l0.008,0.026l0.034,0.018L610.14,223.164z M610.083,222.758l0.034,0.008l0.039-0.018l0.008-0.034l-0.029-0.026h-0.044l-0.018,0.034L610.083,222.758z M611.11,222.083l0.018,0.036l0.039,0.003l0.023-0.013l-0.005-0.039l-0.047-0.01l-0.016-0.029l-0.034,0.008l-0.013,0.023L611.11,222.083z M610.095,223.103l0.02-0.01l-0.025-0.03l-0.058-0.021l-0.013,0.009l0.022,0.027L610.095,223.103z M610.57,222.403l0.004-0.016l-0.03-0.019l-0.043-0.009l-0.012,0.012l0.032,0.024L610.57,222.403z M610.508,222.455l0.005,0.018l0.026,0.005l0.026-0.016v-0.018l-0.031-0.005L610.508,222.455z M609.799,223.693l0.007,0.012l0.016,0.004l0.018-0.008l-0.007-0.012l-0.016-0.003L609.799,223.693z M609.948,223.222l-0.006,0.024l0.019,0.005l0.016-0.012l-0.012-0.019L609.948,223.222z M611.169,221.921l0.007,0.024l0.015-0.003l0.007-0.022l-0.015-0.011L611.169,221.921z M609.704,223.987v0.014l0.014,0.008l0.012-0.008l-0.007-0.014H609.704z M610.225,223.293l0.021-0.01l0.001-0.012l-0.03-0.005l-0.02,0.015l0.001,0.014L610.225,223.293z M608.707,224.754l-0.005,0.031l0.021,0.013l0.034-0.013v-0.023l-0.023-0.013L608.707,224.754z M610.362,222.681l0.021,0.003l0.007-0.009l-0.016-0.019l-0.019-0.002l-0.002,0.012L610.362,222.681z M610.096,223.791l-0.021,0.006l0.003,0.02l0.029,0.016l0.025-0.002l0.008-0.017L610.096,223.791z M610.523,222.608l-0.004,0.018l0.015,0.007l0.023-0.006v-0.015l-0.017-0.01L610.523,222.608z M611.164,222.003l0.01,0.018l0.018-0.001l0.006-0.023l-0.016-0.024l-0.018,0.004L611.164,222.003z M610.428,222.479l0.012-0.006l0.004-0.012l-0.008-0.01l-0.015,0.007l-0.003,0.011L610.428,222.479z M609.767,225.129l0.01,0.001l0.007-0.011l-0.014-0.007l-0.01,0.006L609.767,225.129z M612.522,221.999l0.003,0.021h0.034l0.021-0.021l-0.003-0.021l-0.023,0.003L612.522,221.999z M609.559,226.73l0.029,0.005l0.039-0.029l0.003-0.063l-0.039-0.013l-0.013,0.023v0.042L609.559,226.73z M609.319,226l0.036-0.003l0.029-0.021l-0.018-0.013l-0.049,0.005l-0.018,0.021L609.319,226z M604.438,229.323l0.156-0.063v-0.052l-0.06-0.023l-0.042-0.06h-0.036l-0.073,0.063l-0.107,0.021l-0.062,0.065l0.01,0.047L604.438,229.323z M604.056,229.793l0.038-0.063l-0.024-0.031l-0.125,0.024l-0.056,0.059l0.021,0.045L604.056,229.793z M607.526,227.173l0.023-0.005l-0.008-0.029l-0.094-0.052l-0.065-0.01l0.013,0.018l0.078,0.034L607.526,227.173z M604.534,228.872l0.057-0.008l0.047-0.102l-0.016-0.099l0.063-0.146v-0.094l-0.052-0.01l-0.023,0.018l-0.044-0.023l0.008-0.107l0.07-0.031l0.013-0.042l-0.107-0.128l-0.042-0.023l-0.039,0.008l-0.039,0.06l-0.109,0.008l-0.076-0.05h-0.099l-0.109,0.068l-0.018,0.039l-0.102,0.016l-0.073-0.039l-0.133-0.034l-0.01,0.013l0.003,0.068l-0.102,0.081l-0.081,0.005l-0.044,0.026l0.063,0.005l0.122,0.063l0.057,0.018l0.021-0.016l-0.016-0.029l0.026-0.01l0.099,0.023l0.072-0.011l0.027,0.009l0.021,0.034l0.109-0.029l0.044-0.036l0.063,0.013l0.052,0.044l-0.044,0.216l0.042,0.023l0.094-0.008l0.076,0.05l0.021,0.07L604.534,228.872z M604.697,228.291l0.049,0.013l0.063-0.01l0.016-0.076l-0.023-0.016l-0.096,0.026l-0.021,0.031L604.697,228.291z M604.882,228.328l-0.013,0.036l0.018,0.018l0.042-0.01l0.018-0.05l-0.01-0.06l-0.039-0.013l-0.026,0.01l-0.01,0.034L604.882,228.328z M603.653,227.589l0.035-0.017l0.034-0.005l0.008-0.036l-0.044-0.034l-0.044,0.016l-0.005,0.063L603.653,227.589z M603.789,227.863l0.062-0.023h0.034l0.023-0.021l-0.031-0.016l-0.029,0.013l-0.05-0.005l-0.042,0.018l-0.016,0.029L603.789,227.863z M604.537,228.921l0.023,0.031l0.031,0.008l0.018-0.034l-0.031-0.029l-0.031-0.003L604.537,228.921z M606.093,233.126l0.083,0.003l0.073-0.059l-0.014-0.049l-0.129-0.017l-0.045,0.035l-0.024,0.049L606.093,233.126z M605.843,233.032l0.098-0.017l0.063-0.069l0.012-0.07l-0.038-0.042l-0.066-0.007l-0.087,0.076l-0.035,0.09L605.843,233.032z M605.221,232.702l0.309,0.122l0.129,0.08l0.083-0.007l0.031-0.066l-0.021-0.038l-0.087,0.007l-0.026-0.016v-0.026l0.036-0.062l-0.021-0.028l-0.076,0.003l-0.052-0.035l-0.059-0.007l-0.038,0.028l-0.086-0.002l-0.042-0.018l-0.042-0.05l-0.125-0.021l-0.076,0.022l-0.022,0.026l0.014,0.052L605.221,232.702z M603.309,230.294l0.049-0.024l0.066-0.003l0.01-0.031l-0.063-0.035l-0.042,0.01l-0.049,0.066L603.309,230.294z M603.594,230.245l0.111,0.003l0.031-0.045l-0.007-0.073l-0.056-0.021l-0.066,0.028l-0.129,0.007l-0.029,0.029l0.03,0.035L603.594,230.245z M603.768,230.676l0.052,0.003l0.035-0.028l-0.024-0.038h-0.052l-0.028,0.024L603.768,230.676z M605.467,231.851l0.042,0.049h0.056l0.129-0.023l0.051-0.036l-0.005-0.021l-0.026-0.021l-0.142-0.021l-0.087,0.024L605.467,231.851z M605.342,232.198l0.073-0.014l0.017-0.035l-0.025-0.067l-0.037,0.008l-0.018,0.021l0.003,0.038l-0.053,0.017l-0.01,0.021L605.342,232.198z M605.686,231.759l0.052,0.018l0.029-0.016l-0.009-0.027l-0.038-0.012l-0.031,0.01L605.686,231.759z M604.885,231.793l0.019,0.02l0.031,0.011l0.039,0.043l0.017-0.001l0.001-0.026l-0.019-0.047l-0.036-0.029l-0.023-0.002l-0.025,0.009L604.885,231.793z M604.795,231.327v-0.055l-0.038-0.042l-0.017,0.01l-0.003,0.055l0.03,0.043L604.795,231.327z M604.769,231.434l0.036-0.018v-0.021l-0.039-0.023l-0.021,0.005l-0.005,0.047L604.769,231.434z M605.472,231.96l0.023-0.023l-0.008-0.021l-0.049-0.008l-0.018,0.016l0.023,0.036H605.472z M607.795,232.541h0.057l0.026-0.023l-0.021-0.021l-0.07,0.003l-0.016,0.021L607.795,232.541z M608.008,232.27l0.052-0.023l0.005-0.029l-0.068-0.018l-0.081,0.021l-0.008,0.023L608.008,232.27z M608.053,232.385l0.036,0.003l0.031-0.016l0.065,0.005l0.021-0.01l-0.031-0.023l-0.076,0.005L608.053,232.385z M603.57,227.669l0.054-0.028l0.021-0.03l-0.021-0.023l-0.024,0.012l-0.031,0.05L603.57,227.669z M603.636,227.493l0.031-0.01l0.012-0.019l-0.024-0.003l-0.017,0.009l-0.017,0.021L603.636,227.493z M605.047,228.442l0.007,0.024l0.019-0.003v-0.033l-0.017-0.016l-0.019,0.002l-0.009,0.014L605.047,228.442z M604.488,227.311l0.036-0.003l0.002-0.017l-0.038-0.012l-0.028,0.007l-0.002,0.016L604.488,227.311z M605.627,229.063l0.009,0.003l0.026-0.012l0.001-0.011l-0.009-0.001l-0.021,0.011L605.627,229.063z M605.677,228.797v0.014l0.014,0.008l0.012-0.008l-0.007-0.014H605.677z M605.679,229.131l-0.003,0.019l0.011,0.006l0.014-0.012l-0.007-0.012H605.679z M605.792,228.837l-0.005,0.012l0.01,0.009l0.016-0.01l-0.003-0.012L605.792,228.837z M605.739,229.115l0.026-0.01l0.003-0.015l-0.026-0.007l-0.018,0.012l-0.001,0.018L605.739,229.115z M605.77,229.036l0.01-0.018l-0.01-0.015l-0.023,0.006l-0.013,0.026l0.013,0.014L605.77,229.036z M605.837,228.956l0.014,0.011l0.02-0.003l0.007-0.014l-0.015-0.009l-0.015,0.003L605.837,228.956z M605.437,228.816l0.007-0.012l-0.012-0.007l-0.012,0.005v0.014H605.437z M604.303,229.706l0.014-0.007l-0.019-0.019h-0.021l0.003,0.017L604.303,229.706z M605.328,232.067l0.019,0.001l0.014-0.023l-0.006-0.03l-0.017-0.006l-0.016,0.028L605.328,232.067z M603.849,230.81l0.036-0.003l0.002-0.017l-0.038-0.012l-0.028,0.007l-0.002,0.016L603.849,230.81z M603.872,230.143l0.032,0.014l0.034,0l-0.006-0.014l-0.041-0.019l-0.027,0L603.872,230.143z M604.833,231.818l0.004-0.015l-0.027,0.002l-0.013,0.016l0.016,0.008L604.833,231.818z M605.804,231.939l0.009-0.011l-0.002-0.016l-0.013-0.014l-0.009,0.01l0.002,0.016L605.804,231.939z M605.293,232.119l0.009,0.011l0.016,0.001l0.017-0.011l-0.009-0.01l-0.017,0L605.293,232.119z M604.754,231.553l-0.003,0.019l0.011,0.006l0.014-0.012l-0.007-0.012H604.754z M604.727,230.077l0.014,0.006l0.008-0.006l-0.003-0.014h-0.014L604.727,230.077z M603.774,230.219l0.033,0.007l0.006-0.012l-0.028-0.022l-0.023,0.002l-0.01,0.013L603.774,230.219z M604.653,231.458l0.003,0.019l0.014,0.003l0.01-0.016v-0.029l-0.014-0.007L604.653,231.458z M605.367,231.929l0.026-0.005l-0.008-0.018l-0.026-0.003l-0.008,0.016L605.367,231.929z M603.477,230.577l0.031-0.028l-0.014-0.024l-0.035,0.014l-0.01,0.031L603.477,230.577z M604.264,230.395l0.021-0.002l-0.005-0.015l-0.023-0.012l-0.011,0.008L604.264,230.395z M603.609,230.684l0.015-0.007l-0.012-0.01l-0.026-0.002l-0.012,0.009L603.609,230.684z M604.69,231.801l0.024,0.014l0.013-0.008l-0.012-0.025l-0.021-0.006l-0.015,0.01L604.69,231.801z M603.807,231.113l0.026-0.01l0.003-0.015l-0.026-0.007l-0.018,0.012l-0.001,0.018L603.807,231.113z M603.567,230.531l0.008,0.016l0.016-0.004l0.014-0.019l-0.01-0.012l-0.019,0.003L603.567,230.531z M605.162,231.943l-0.013,0.013l0.01,0.014l0.023,0.007l0.008-0.013l-0.01-0.017L605.162,231.943z M604.498,231.678l-0.004,0.018l0.015,0.007l0.023-0.006v-0.015l-0.017-0.01L604.498,231.678z M603.832,230.728l-0.004,0.018l0.015,0.007l0.023-0.006v-0.015l-0.017-0.01L603.832,230.728z M604.412,230.158l0.014,0.015l0.012-0.003l-0.008-0.029l-0.019-0.018l-0.012,0.012L604.412,230.158z M605.066,231.846l-0.005,0.027l0.016,0.008l0.042-0.035l0.005-0.021l-0.018-0.007L605.066,231.846z M605.656,231.568l0.012-0.006l0.004-0.012l-0.008-0.01l-0.015,0.007l-0.003,0.011L605.656,231.568z M605.57,231.715v0.018l0.018,0.003l0.008-0.018l-0.01-0.01L605.57,231.715z M604.917,232.597l0.007,0.024l0.015-0.003l0.007-0.022l-0.015-0.011L604.917,232.597z M604.991,232.632l0.026-0.021l-0.005-0.012l-0.035,0.007l-0.014,0.019l0.003,0.016L604.991,232.632z M619.035,230.884h0.047l0.042-0.039l0.008-0.026l-0.05-0.023l-0.073,0.023l-0.008,0.044L619.035,230.884z M618.886,231.298l0.026-0.005l-0.005-0.023l-0.029-0.01l-0.016,0.018L618.886,231.298z M618.485,231.522l0.013,0.026l0.042-0.013l0.06-0.065l0.086-0.057l-0.008-0.018l-0.117,0.055L618.485,231.522z M616.968,237.685l0.018-0.013l-0.013-0.018l-0.023,0.003l-0.005,0.021L616.968,237.685z M616.806,237.793l0.03,0.002l0.045-0.023l0.014-0.021l-0.036-0.001l-0.037,0.015L616.806,237.793z M605.72,232.116l-0.003-0.065l-0.034-0.065l0.008-0.042l-0.029-0.034l-0.091,0.016l-0.016,0.034l-0.102,0.039l-0.023,0.031l0.029,0.102l0.062,0.06l0.136,0.003L605.72,232.116z M606.108,234.303l0.003,0.026l0.042,0.003l0.042-0.023v-0.021h-0.05L606.108,234.303z M606.215,235.494l0.063,0.029l0.021-0.013l-0.026-0.029l-0.042-0.013l-0.023,0.008L606.215,235.494z M606.176,235.335l0.026-0.013v-0.029l-0.029-0.013l-0.023,0.016l0.003,0.034L606.176,235.335z M607.63,235.27l0.052,0.023l0.021-0.01l-0.013-0.031l-0.042-0.003L607.63,235.27z M607.894,234.837l0.085-0.016l0.031-0.031l0.002-0.017h-0.049l-0.071,0.04l-0.016,0.019L607.894,234.837z M607.877,234.994l0.045-0.036l0.003-0.019l-0.014-0.007l-0.043,0.036l-0.005,0.023L607.877,234.994z M607.894,235.051l0.045-0.042l0.01-0.03l-0.012-0.01l-0.033,0.023l-0.03,0.052L607.894,235.051z M607.995,235.009l0.023-0.002l0.012-0.017l-0.007-0.016l-0.03,0.002l-0.01,0.023L607.995,235.009z M608.018,234.856l0.021-0.017l0.049-0.012l0.031-0.026l-0.01-0.017l-0.066,0.014L608,234.855L608.018,234.856z M608.197,234.862l0.012-0.021l-0.003-0.016l-0.04,0.007l-0.009,0.014l0.012,0.019L608.197,234.862z M604.838,236.902l0.039,0.003l0.023-0.034l-0.029-0.042l-0.036-0.003l-0.013,0.042L604.838,236.902z M602.251,237.682l0.026,0.01l0.027-0.013l-0.001-0.029l-0.02-0.007l-0.033,0.024L602.251,237.682z M603.603,239.568l-0.014,0.021l0.015,0.023l0.021-0.013l0.002-0.02L603.603,239.568z M602.171,238.102l0.026,0.004l-0.001-0.02l-0.024-0.011l-0.013,0.012L602.171,238.102z M602.176,238.026l0.01-0.014l-0.015-0.003l-0.023,0.011l-0.005,0.014L602.176,238.026z M603.468,239.646l0.031-0.014l0.028-0.037l-0.001-0.015l-0.047,0.008l-0.027,0.027l0,0.025L603.468,239.646z M603.28,238.585l-0.015,0.011l0.007,0.015l0.021,0.011l0.01-0.012l-0.006-0.018L603.28,238.585z M606.148,241.083l0.049,0.016l0.087-0.028l0.101-0.082l-0.005-0.03l-0.064-0.005l-0.142,0.085L606.148,241.083z M605.971,240.776l0.085-0.023l0.052-0.047l-0.014-0.005l-0.135,0.054l-0.012,0.021H605.971z M606.206,240.71l0.016,0.002l0.019-0.009l0.002-0.023h-0.016l-0.019,0.014L606.206,240.71z M606.343,240.666l0.035-0.01l0.009-0.014l-0.019-0.005l-0.031,0.005l-0.016,0.012L606.343,240.666z M606.456,240.772l0.028,0.009l0.023-0.007l0.017-0.031l0.003-0.016l-0.059-0.002l-0.047,0.033l-0.002,0.019L606.456,240.772z M606.571,240.819l-0.033,0.009l-0.014,0.019l-0.002,0.033l-0.029,0.021l-0.009,0.036l0.019,0.014l0.094-0.052l0.031-0.042l-0.007-0.069l-0.021-0.002L606.571,240.819z M606.635,240.76l0.016,0.017l0.045-0.009l0.054-0.042l0.023-0.049l0.009-0.038l-0.012-0.005l-0.019,0.026l-0.064,0.052v0.024l-0.021,0.014l-0.019-0.005L606.635,240.76z M604.734,240.168l0.073-0.007l0.023,0.023l0.023,0.003l0.109-0.045l0.089-0.005l0.043-0.038l0.061-0.024l0.045-0.047l-0.005-0.012l-0.068,0.021l-0.049,0.038l-0.028-0.002l-0.019-0.031l-0.09-0.007l-0.162,0.021l-0.063,0.059l-0.009,0.038L604.734,240.168z M603.546,240.31l0.014,0.016l0.071-0.03l0.122-0.028l0.073-0.049l-0.019-0.024l-0.109,0.01l-0.08,0.038L603.546,240.31z M602.295,237.93l0.01,0.012l0.085-0.059l0.13-0.054l0.014-0.024l-0.024-0.016l-0.043,0.007l-0.031,0.033l-0.101,0.033L602.295,237.93z M606.273,239.846l0.049-0.063l-0.003-0.038l-0.038,0.007l-0.097,0.063v0.038L606.273,239.846z M602.994,238.843l0.13-0.016l0.063-0.044l0.128-0.042l0.039-0.063l-0.026-0.029h-0.115l-0.063-0.023l-0.034,0.008l-0.021,0.039l-0.089,0.039l-0.071,0.006l-0.042,0.026l-0.051,0.09l-0.003,0.042h0.034l0.05-0.034H602.994z M614.533,220.738l0.003-0.024l0.026-0.016l0.087,0.01l0.003,0.017l-0.063,0.019L614.533,220.738z M610.088,223.256l0.031,0.021l0.042-0.003l0.016-0.039l-0.023-0.023l-0.039,0.013L610.088,223.256z M610.403,222.575h0.047l0.021-0.018l-0.021-0.044l-0.039-0.008l-0.047,0.018l-0.005,0.034L610.403,222.575z M613.779,222.729l-0.056-0.094l-0.101-0.063l-0.08,0.007l-0.045,0.056l0.024,0.063l0.087,0.056l0.146-0.01L613.779,222.729z M610.86,221.624l0.073,0.01l0.042,0.035l0.083,0.01l0.003-0.028l-0.073-0.063l-0.115-0.031l-0.038,0.01l-0.007,0.035L610.86,221.624z M609.82,223.17l0.143-0.016l0.021-0.036l-0.031-0.042l-0.003-0.047l-0.023-0.044l-0.109-0.065l-0.052-0.005l-0.042,0.029l0.013,0.044l-0.044,0.096l0.01,0.065L609.82,223.17z M610.255,222.925l0.01-0.042l-0.029-0.104l-0.034-0.039l-0.018,0.005l0.018,0.086l-0.013,0.039l0.031,0.057L610.255,222.925z M610.14,223.164l-0.023-0.036l-0.042-0.01l-0.016,0.018l0.008,0.026l0.034,0.018L610.14,223.164z M610.083,222.758l0.034,0.008l0.039-0.018l0.008-0.034l-0.029-0.026h-0.044l-0.018,0.034L610.083,222.758z M611.11,222.083l0.018,0.036l0.039,0.003l0.023-0.013l-0.005-0.039l-0.047-0.01l-0.016-0.029l-0.034,0.008l-0.013,0.023L611.11,222.083z M610.095,223.103l0.02-0.01l-0.025-0.03l-0.058-0.021l-0.013,0.009l0.022,0.027L610.095,223.103z M610.57,222.403l0.004-0.016l-0.03-0.019l-0.043-0.009l-0.012,0.012l0.032,0.024L610.57,222.403z M610.508,222.455l0.005,0.018l0.026,0.005l0.026-0.016v-0.018l-0.031-0.005L610.508,222.455z M609.799,223.693l0.007,0.012l0.016,0.004l0.018-0.008l-0.007-0.012l-0.016-0.003L609.799,223.693z M609.948,223.222l-0.006,0.024l0.019,0.005l0.016-0.012l-0.012-0.019L609.948,223.222z M611.169,221.921l0.007,0.024l0.015-0.003l0.007-0.022l-0.015-0.011L611.169,221.921z M609.704,223.987v0.014l0.014,0.008l0.012-0.008l-0.007-0.014H609.704z M610.225,223.293l0.021-0.01l0.001-0.012l-0.03-0.005l-0.02,0.015l0.001,0.014L610.225,223.293z M608.707,224.754l-0.005,0.031l0.021,0.013l0.034-0.013v-0.023l-0.023-0.013L608.707,224.754z M610.362,222.681l0.021,0.003l0.007-0.009l-0.016-0.019l-0.019-0.002l-0.002,0.012L610.362,222.681z M610.096,223.791l-0.021,0.006l0.003,0.02l0.029,0.016l0.025-0.002l0.008-0.017L610.096,223.791z M610.523,222.608l-0.004,0.018l0.015,0.007l0.023-0.006v-0.015l-0.017-0.01L610.523,222.608z M611.164,222.003l0.01,0.018l0.018-0.001l0.006-0.023l-0.016-0.024l-0.018,0.004L611.164,222.003z M610.428,222.479l0.012-0.006l0.004-0.012l-0.008-0.01l-0.015,0.007l-0.003,0.011L610.428,222.479z M609.767,225.129l0.01,0.001l0.007-0.011l-0.014-0.007l-0.01,0.006L609.767,225.129z M612.522,221.999l0.003,0.021h0.034l0.021-0.021l-0.003-0.021l-0.023,0.003L612.522,221.999z M609.559,226.73l0.029,0.005l0.039-0.029l0.003-0.063l-0.039-0.013l-0.013,0.023v0.042L609.559,226.73z M609.319,226l0.036-0.003l0.029-0.021l-0.018-0.013l-0.049,0.005l-0.018,0.021L609.319,226z M604.438,229.323l0.156-0.063v-0.052l-0.06-0.023l-0.042-0.06h-0.036l-0.073,0.063l-0.107,0.021l-0.062,0.065l0.01,0.047L604.438,229.323z M604.056,229.793l0.038-0.063l-0.024-0.031l-0.125,0.024l-0.056,0.059l0.021,0.045L604.056,229.793z M607.526,227.173l0.023-0.005l-0.008-0.029l-0.094-0.052l-0.065-0.01l0.013,0.018l0.078,0.034L607.526,227.173z M604.534,228.872l0.057-0.008l0.047-0.102l-0.016-0.099l0.063-0.146v-0.094l-0.052-0.01l-0.023,0.018l-0.044-0.023l0.008-0.107l0.07-0.031l0.013-0.042l-0.107-0.128l-0.042-0.023l-0.039,0.008l-0.039,0.06l-0.109,0.008l-0.076-0.05h-0.099l-0.109,0.068l-0.018,0.039l-0.102,0.016l-0.073-0.039l-0.133-0.034l-0.01,0.013l0.003,0.068l-0.102,0.081l-0.081,0.005l-0.044,0.026l0.063,0.005l0.122,0.063l0.057,0.018l0.021-0.016l-0.016-0.029l0.026-0.01l0.099,0.023l0.072-0.011l0.027,0.009l0.021,0.034l0.109-0.029l0.044-0.036l0.063,0.013l0.052,0.044l-0.044,0.216l0.042,0.023l0.094-0.008l0.076,0.05l0.021,0.07L604.534,228.872z M604.697,228.291l0.049,0.013l0.063-0.01l0.016-0.076l-0.023-0.016l-0.096,0.026l-0.021,0.031L604.697,228.291z M604.882,228.328l-0.013,0.036l0.018,0.018l0.042-0.01l0.018-0.05l-0.01-0.06l-0.039-0.013l-0.026,0.01l-0.01,0.034L604.882,228.328z M603.653,227.589l0.035-0.017l0.034-0.005l0.008-0.036l-0.044-0.034l-0.044,0.016l-0.005,0.063L603.653,227.589z M603.789,227.863l0.062-0.023h0.034l0.023-0.021l-0.031-0.016l-0.029,0.013l-0.05-0.005l-0.042,0.018l-0.016,0.029L603.789,227.863z M604.537,228.921l0.023,0.031l0.031,0.008l0.018-0.034l-0.031-0.029l-0.031-0.003L604.537,228.921z M606.093,233.126l0.083,0.003l0.073-0.059l-0.014-0.049l-0.129-0.017l-0.045,0.035l-0.024,0.049L606.093,233.126z M605.843,233.032l0.098-0.017l0.063-0.069l0.012-0.07l-0.038-0.042l-0.066-0.007l-0.087,0.076l-0.035,0.09L605.843,233.032z M605.221,232.702l0.309,0.122l0.129,0.08l0.083-0.007l0.031-0.066l-0.021-0.038l-0.087,0.007l-0.026-0.016v-0.026l0.036-0.062l-0.021-0.028l-0.076,0.003l-0.052-0.035l-0.059-0.007l-0.038,0.028l-0.086-0.002l-0.042-0.018l-0.042-0.05l-0.125-0.021l-0.076,0.022l-0.022,0.026l0.014,0.052L605.221,232.702z M603.309,230.294l0.049-0.024l0.066-0.003l0.01-0.031l-0.063-0.035l-0.042,0.01l-0.049,0.066L603.309,230.294z M603.594,230.245l0.111,0.003l0.031-0.045l-0.007-0.073l-0.056-0.021l-0.066,0.028l-0.129,0.007l-0.029,0.029l0.03,0.035L603.594,230.245z M603.768,230.676l0.052,0.003l0.035-0.028l-0.024-0.038h-0.052l-0.028,0.024L603.768,230.676z M605.467,231.851l0.042,0.049h0.056l0.129-0.023l0.051-0.036l-0.005-0.021l-0.026-0.021l-0.142-0.021l-0.087,0.024L605.467,231.851z M605.342,232.198l0.073-0.014l0.017-0.035l-0.025-0.067l-0.037,0.008l-0.018,0.021l0.003,0.038l-0.053,0.017l-0.01,0.021L605.342,232.198z M605.686,231.759l0.052,0.018l0.029-0.016l-0.009-0.027l-0.038-0.012l-0.031,0.01L605.686,231.759z M604.885,231.793l0.019,0.02l0.031,0.011l0.039,0.043l0.017-0.001l0.001-0.026l-0.019-0.047l-0.036-0.029l-0.023-0.002l-0.025,0.009L604.885,231.793z M604.795,231.327v-0.055l-0.038-0.042l-0.017,0.01l-0.003,0.055l0.03,0.043L604.795,231.327z M604.769,231.434l0.036-0.018v-0.021l-0.039-0.023l-0.021,0.005l-0.005,0.047L604.769,231.434z M605.472,231.96l0.023-0.023l-0.008-0.021l-0.049-0.008l-0.018,0.016l0.023,0.036H605.472z M607.795,232.541h0.057l0.026-0.023l-0.021-0.021l-0.07,0.003l-0.016,0.021L607.795,232.541z M608.008,232.27l0.052-0.023l0.005-0.029l-0.068-0.018l-0.081,0.021l-0.008,0.023L608.008,232.27z M608.053,232.385l0.036,0.003l0.031-0.016l0.065,0.005l0.021-0.01l-0.031-0.023l-0.076,0.005L608.053,232.385z M603.57,227.669l0.054-0.028l0.021-0.03l-0.021-0.023l-0.024,0.012l-0.031,0.05L603.57,227.669z M603.636,227.493l0.031-0.01l0.012-0.019l-0.024-0.003l-0.017,0.009l-0.017,0.021L603.636,227.493z M605.047,228.442l0.007,0.024l0.019-0.003v-0.033l-0.017-0.016l-0.019,0.002l-0.009,0.014L605.047,228.442z M604.488,227.311l0.036-0.003l0.002-0.017l-0.038-0.012l-0.028,0.007l-0.002,0.016L604.488,227.311z M605.627,229.063l0.009,0.003l0.026-0.012l0.001-0.011l-0.009-0.001l-0.021,0.011L605.627,229.063z M605.677,228.797v0.014l0.014,0.008l0.012-0.008l-0.007-0.014H605.677z M605.679,229.131l-0.003,0.019l0.011,0.006l0.014-0.012l-0.007-0.012H605.679z M605.792,228.837l-0.005,0.012l0.01,0.009l0.016-0.01l-0.003-0.012L605.792,228.837z M605.739,229.115l0.026-0.01l0.003-0.015l-0.026-0.007l-0.018,0.012l-0.001,0.018L605.739,229.115z M605.77,229.036l0.01-0.018l-0.01-0.015l-0.023,0.006l-0.013,0.026l0.013,0.014L605.77,229.036z M605.837,228.956l0.014,0.011l0.02-0.003l0.007-0.014l-0.015-0.009l-0.015,0.003L605.837,228.956z M605.437,228.816l0.007-0.012l-0.012-0.007l-0.012,0.005v0.014H605.437z M604.303,229.706l0.014-0.007l-0.019-0.019h-0.021l0.003,0.017L604.303,229.706z M605.328,232.067l0.019,0.001l0.014-0.023l-0.006-0.03l-0.017-0.006l-0.016,0.028L605.328,232.067z M603.849,230.81l0.036-0.003l0.002-0.017l-0.038-0.012l-0.028,0.007l-0.002,0.016L603.849,230.81z M603.872,230.143l0.032,0.014l0.034,0l-0.006-0.014l-0.041-0.019l-0.027,0L603.872,230.143z M604.833,231.818l0.004-0.015l-0.027,0.002l-0.013,0.016l0.016,0.008L604.833,231.818z M605.804,231.939l0.009-0.011l-0.002-0.016l-0.013-0.014l-0.009,0.01l0.002,0.016L605.804,231.939z M605.293,232.119l0.009,0.011l0.016,0.001l0.017-0.011l-0.009-0.01l-0.017,0L605.293,232.119z M604.754,231.553l-0.003,0.019l0.011,0.006l0.014-0.012l-0.007-0.012H604.754z M604.727,230.077l0.014,0.006l0.008-0.006l-0.003-0.014h-0.014L604.727,230.077z M603.774,230.219l0.033,0.007l0.006-0.012l-0.028-0.022l-0.023,0.002l-0.01,0.013L603.774,230.219z M604.653,231.458l0.003,0.019l0.014,0.003l0.01-0.016v-0.029l-0.014-0.007L604.653,231.458z M605.367,231.929l0.026-0.005l-0.008-0.018l-0.026-0.003l-0.008,0.016L605.367,231.929z M603.477,230.577l0.031-0.028l-0.014-0.024l-0.035,0.014l-0.01,0.031L603.477,230.577z M604.264,230.395l0.021-0.002l-0.005-0.015l-0.023-0.012l-0.011,0.008L604.264,230.395z M603.609,230.684l0.015-0.007l-0.012-0.01l-0.026-0.002l-0.012,0.009L603.609,230.684z M604.69,231.801l0.024,0.014l0.013-0.008l-0.012-0.025l-0.021-0.006l-0.015,0.01L604.69,231.801z M603.807,231.113l0.026-0.01l0.003-0.015l-0.026-0.007l-0.018,0.012l-0.001,0.018L603.807,231.113z M603.567,230.531l0.008,0.016l0.016-0.004l0.014-0.019l-0.01-0.012l-0.019,0.003L603.567,230.531z M605.162,231.943l-0.013,0.013l0.01,0.014l0.023,0.007l0.008-0.013l-0.01-0.017L605.162,231.943z M604.498,231.678l-0.004,0.018l0.015,0.007l0.023-0.006v-0.015l-0.017-0.01L604.498,231.678z M603.832,230.728l-0.004,0.018l0.015,0.007l0.023-0.006v-0.015l-0.017-0.01L603.832,230.728z M604.412,230.158l0.014,0.015l0.012-0.003l-0.008-0.029l-0.019-0.018l-0.012,0.012L604.412,230.158z M605.066,231.846l-0.005,0.027l0.016,0.008l0.042-0.035l0.005-0.021l-0.018-0.007L605.066,231.846z M605.656,231.568l0.012-0.006l0.004-0.012l-0.008-0.01l-0.015,0.007l-0.003,0.011L605.656,231.568z M605.57,231.715v0.018l0.018,0.003l0.008-0.018l-0.01-0.01L605.57,231.715z M604.917,232.597l0.007,0.024l0.015-0.003l0.007-0.022l-0.015-0.011L604.917,232.597z M604.991,232.632l0.026-0.021l-0.005-0.012l-0.035,0.007l-0.014,0.019l0.003,0.016L604.991,232.632z M619.035,230.884h0.047l0.042-0.039l0.008-0.026l-0.05-0.023l-0.073,0.023l-0.008,0.044L619.035,230.884z M618.886,231.298l0.026-0.005l-0.005-0.023l-0.029-0.01l-0.016,0.018L618.886,231.298z M618.485,231.522l0.013,0.026l0.042-0.013l0.06-0.065l0.086-0.057l-0.008-0.018l-0.117,0.055L618.485,231.522z M616.968,237.685l0.018-0.013l-0.013-0.018l-0.023,0.003l-0.005,0.021L616.968,237.685z M616.806,237.793l0.03,0.002l0.045-0.023l0.014-0.021l-0.036-0.001l-0.037,0.015L616.806,237.793z M605.72,232.116l-0.003-0.065l-0.034-0.065l0.008-0.042l-0.029-0.034l-0.091,0.016l-0.016,0.034l-0.102,0.039l-0.023,0.031l0.029,0.102l0.062,0.06l0.136,0.003L605.72,232.116z M606.108,234.303l0.003,0.026l0.042,0.003l0.042-0.023v-0.021h-0.05L606.108,234.303z M606.215,235.494l0.063,0.029l0.021-0.013l-0.026-0.029l-0.042-0.013l-0.023,0.008L606.215,235.494z M606.176,235.335l0.026-0.013v-0.029l-0.029-0.013l-0.023,0.016l0.003,0.034L606.176,235.335z M607.63,235.27l0.052,0.023l0.021-0.01l-0.013-0.031l-0.042-0.003L607.63,235.27z M607.894,234.837l0.085-0.016l0.031-0.031l0.002-0.017h-0.049l-0.071,0.04l-0.016,0.019L607.894,234.837z M607.877,234.994l0.045-0.036l0.003-0.019l-0.014-0.007l-0.043,0.036l-0.005,0.023L607.877,234.994z M607.894,235.051l0.045-0.042l0.01-0.03l-0.012-0.01l-0.033,0.023l-0.03,0.052L607.894,235.051z M607.995,235.009l0.023-0.002l0.012-0.017l-0.007-0.016l-0.03,0.002l-0.01,0.023L607.995,235.009z M608.018,234.856l0.021-0.017l0.049-0.012l0.031-0.026l-0.01-0.017l-0.066,0.014L608,234.855L608.018,234.856z M608.197,234.862l0.012-0.021l-0.003-0.016l-0.04,0.007l-0.009,0.014l0.012,0.019L608.197,234.862z M604.838,236.902l0.039,0.003l0.023-0.034l-0.029-0.042l-0.036-0.003l-0.013,0.042L604.838,236.902z M602.251,237.682l0.026,0.01l0.027-0.013l-0.001-0.029l-0.02-0.007l-0.033,0.024L602.251,237.682z M603.603,239.568l-0.014,0.021l0.015,0.023l0.021-0.013l0.002-0.02L603.603,239.568z M602.171,238.102l0.026,0.004l-0.001-0.02l-0.024-0.011l-0.013,0.012L602.171,238.102z M602.176,238.026l0.01-0.014l-0.015-0.003l-0.023,0.011l-0.005,0.014L602.176,238.026z M603.468,239.646l0.031-0.014l0.028-0.037l-0.001-0.015l-0.047,0.008l-0.027,0.027l0,0.025L603.468,239.646z M603.28,238.585l-0.015,0.011l0.007,0.015l0.021,0.011l0.01-0.012l-0.006-0.018L603.28,238.585z M606.148,241.083l0.049,0.016l0.087-0.028l0.101-0.082l-0.005-0.03l-0.064-0.005l-0.142,0.085L606.148,241.083z M605.971,240.776l0.085-0.023l0.052-0.047l-0.014-0.005l-0.135,0.054l-0.012,0.021H605.971z M606.206,240.71l0.016,0.002l0.019-0.009l0.002-0.023h-0.016l-0.019,0.014L606.206,240.71z M606.343,240.666l0.035-0.01l0.009-0.014l-0.019-0.005l-0.031,0.005l-0.016,0.012L606.343,240.666z M606.456,240.772l0.028,0.009l0.023-0.007l0.017-0.031l0.003-0.016l-0.059-0.002l-0.047,0.033l-0.002,0.019L606.456,240.772z M606.571,240.819l-0.033,0.009l-0.014,0.019l-0.002,0.033l-0.029,0.021l-0.009,0.036l0.019,0.014l0.094-0.052l0.031-0.042l-0.007-0.069l-0.021-0.002L606.571,240.819z M606.635,240.76l0.016,0.017l0.045-0.009l0.054-0.042l0.023-0.049l0.009-0.038l-0.012-0.005l-0.019,0.026l-0.064,0.052v0.024l-0.021,0.014l-0.019-0.005L606.635,240.76z M604.734,240.168l0.073-0.007l0.023,0.023l0.023,0.003l0.109-0.045l0.089-0.005l0.043-0.038l0.061-0.024l0.045-0.047l-0.005-0.012l-0.068,0.021l-0.049,0.038l-0.028-0.002l-0.019-0.031l-0.09-0.007l-0.162,0.021l-0.063,0.059l-0.009,0.038L604.734,240.168z M603.546,240.31l0.014,0.016l0.071-0.03l0.122-0.028l0.073-0.049l-0.019-0.024l-0.109,0.01l-0.08,0.038L603.546,240.31z M602.295,237.93l0.01,0.012l0.085-0.059l0.13-0.054l0.014-0.024l-0.024-0.016l-0.043,0.007l-0.031,0.033l-0.101,0.033L602.295,237.93z M606.273,239.846l0.049-0.063l-0.003-0.038l-0.038,0.007l-0.097,0.063v0.038L606.273,239.846z M602.994,238.843l0.13-0.016l0.063-0.044l0.128-0.042l0.039-0.063l-0.026-0.029h-0.115l-0.063-0.023l-0.034,0.008l-0.021,0.039l-0.089,0.039l-0.071,0.006l-0.042,0.026l-0.051,0.09l-0.003,0.042h0.034l0.05-0.034H602.994z M614.513,222.651l-0.07,0.026l-0.023,0.057l-0.045,0.009l-0.019-0.023l-0.037,0.004l-0.031,0.038l-0.038,0.002l-0.068-0.018l-0.172,0.129l-0.055,0.11l0.04,0.033l-0.003,0.039l-0.034,0.042l-0.003,0.144l0.045,0.054l-0.042,0.013h-0.078l-0.086,0.052l0.01,0.139l-0.015,0.057l0.028,0.073l-0.007,0.068l-0.1,0.179l-0.07,0.068l-0.182,0.115l-0.026,0.086l-0.006,0.135l0.047,0.05l-0.044,0.036l-0.089-0.013l-0.023-0.034l-0.031,0.003l-0.019,0.031h-0.093l-0.048-0.029l-0.063,0.01l-0.166,0.111l-0.07,0.002l-0.083,0.047l-0.029,0.052l-0.042,0.008l-0.081-0.026l-0.015-0.037l-0.055-0.018l-0.036,0.005l-0.037-0.013l-0.013-0.06l-0.073-0.015l-0.076,0.052l-0.059,0.104l-0.037,0.024l-0.115,0.002l-0.007,0.032l0.065,0.031l0.002,0.036l-0.049,0.034l0.005,0.042l0.065,0.057l0.073,0.005l0.068,0.04l0.013,0.083l0.078,0.01l0.063-0.054l0.028,0.002l0.136,0.099l0.112,0.005l0.091-0.041l0.013-0.034l0.037,0.008l0.028,0.094l-0.023,0.028l-0.175,0.058l-0.06,0.059l-0.101,0.032l-0.029,0.023l-0.018,0.044l-0.091,0.076l-0.008,0.034l0.034,0.01l-0.011,0.029l-0.086,0.029l-0.234-0.013l-0.089,0.021l-0.068-0.011l-0.065-0.052l-0.125,0.005l-0.136,0.196l0.011,0.028l-0.008,0.068l-0.182,0.005l-0.105,0.091l-0.179,0.003l-0.011,0.034l0.097,0.063l-0.021,0.036h-0.042l-0.005,0.023l0.237,0.175l0.094,0.091l0.049,0.094l0.102,0.06l0.086-0.008l0.036,0.026l0.021,0.052l0.107,0.12l0.013,0.063l0.055,0.029l0.104,0.013l0.024,0.028h0.034l0.013-0.021l0.044,0.003l0.034,0.034l0.073,0.008v0.028l-0.034,0.016l-0.008,0.099l0.036,0.042l-0.005,0.151l0.026,0.055l0.138,0.078l0.04,0.002l0.033-0.028l0.167-0.006l0.065,0.027l0.094-0.003l0.042-0.026l0.044,0.029l0.018,0.104l0.027,0.002l0.023-0.033l0.036,0.002l0.097,0.091l0.018,0.086l0.078,0.06l0.092,0.008l0.083,0.078l0.057-0.005l0.037-0.049l0.041,0.005l0.107,0.06l0.063-0.013l0.031-0.081l0.078-0.065l0.118-0.018l0.002,0.039l-0.049,0.036l0.026,0.024l0.14-0.019l0.016,0.019l-0.068,0.049l0.008,0.031l0.084-0.036l0.052,0.008l0.031,0.054l0.042-0.002l0.018-0.026l0.018,0.002l0.039,0.039l0.029-0.023l-0.042-0.042l-0.013-0.044l-0.06-0.044l0.008-0.034l0.039-0.016l0.055-0.07l0.075-0.016l0.034,0.021l-0.031,0.086l-0.044,0.008l0.002,0.026l0.047,0.029l-0.018,0.028l-0.047-0.005l-0.002,0.036l0.044,0.032l0.062-0.018l0.094-0.232l-0.017-0.109l0.054-0.019l0.019-0.024l-0.047-0.016l0.012-0.03l0.047-0.007l0.054-0.034h0.042l0.046-0.032l0.084,0.014l0.085-0.026l-0.004-0.085l-0.041-0.016l0.005-0.022l0.049-0.021v-0.036l-0.058-0.073l-0.055,0.005l-0.016-0.026l0.017-0.045l-0.086-0.053h-0.037l-0.012-0.029l0.042-0.054l0.06,0.009l0.026-0.025l-0.029-0.114l0.023-0.019l0.093,0.02l0.185-0.099l0.005-0.033l-0.032-0.031l0.072-0.04l0.066-0.076l0.071-0.134l0.08-0.026l0.115,0.045l0.001,0.03l0.023,0.007l0.045-0.016l0.198,0.127l0.073,0.097l0.002,0.07l0.029,0.027l0.068-0.003l0.061,0.099l0.05,0.177l-0.034,0.052l-0.028,0.007l-0.014-0.026l-0.018,0.012l0.009,0.047l0.092,0.049l0.04-0.007l0.038,0.033v0.078l0.053,0.111l0.033-0.001l0.026,0.022l-0.002,0.042l0.087,0.069l0.062,0.007l0.047,0.068l0.084-0.002l0.053-0.073l0.086,0.006l0.116,0.081l0.076,0.132l0.007,0.052l-0.036,0.025l0.002,0.055l-0.032,0.03l-0.029,0.003l-0.016,0.021l0.054,0.122l-0.021,0.021l-0.029-0.013l-0.011,0.018l0.019,0.031l-0.003,0.052l-0.033,0.019l0.017,0.051l0.058,0.026l0.045,0.073l0.054,0.022l0.085-0.029l0.012-0.042l0.033-0.016l0.09,0.039l0.063-0.014l0.031-0.037l0.03-0.001l0.066,0.013l0.12-0.053v-0.023l-0.016-0.019l0.017-0.014l0.071,0.021l0.034,0.043l-0.004,0.025l0.017,0.014l0.12-0.028l0.065,0.015l0.022-0.003l0.026-0.042l0.045-0.01l0.016-0.033l-0.021-0.167l0.023-0.024h0.066l0.04,0.047l-0.002,0.048l0.052,0.014l0.064-0.089l0.058-0.015l0.09,0.064l0.031,0.074l0.055,0.047l0.091,0.049l0.214,0.185l0.039,0.011l0.042-0.026l0.031,0.021l-0.003,0.057l0.1,0.096l-0.018,0.046l-0.156,0.086l-0.223-0.003l-0.239-0.076l-0.167-0.101l-0.15-0.018l-0.128,0.018l0.017,0.031l0.136,0.017l0.003,0.042l-0.09,0.205l0.007,0.205l0.069,0.146l0.118,0.049l0.126,0.007l0.152,0.069l0.007,0.045l-0.055,0.125l0.01,0.126l0.118,0.038v0.031l-0.045,0.056l-0.042,0.18l0.042,0.334l0.098,0.229l0.069,0.021l0.024,0.031v0.042l0.146,0.16l0.143,0.031l0.094,0.143l0.006,0.166l-0.09,0.077l-0.007,0.049l0.028,0.024l-0.007,0.045l-0.056,0.042l-0.045,0.101l0.028,0.159l0.073,0.132l0.216,0.063l0.006,0.052l-0.038,0.07l-0.104,0.01l-0.087-0.066v-0.052l-0.038-0.035l-0.139,0.024l-0.118,0.126h-0.098l-0.003,0.024l0.062,0.028l-0.003,0.069l-0.042,0.035l0.014,0.076l0.177,0.091l0.105,0.007l0.104,0.114l-0.049,0.07l0.004,0.16l0.052,0.139l0.076,0.083l0.011,0.073l-0.018,0.045l0.122,0.219l0.024,0.288l-0.041,0.209l0.014,0.156l0.079,0.091h0.06l0.024,0.052l-0.077,0.194l-0.142,0.223l-0.014,0.059l0.024,0.045l-0.017,0.035l-0.16,0.08l-0.125,0.205l-0.003,0.257l-0.07,0.149l-0.104,0.091l-0.132,0.246l-0.014,0.118l0.097,0.272l-0.007,0.152l-0.451,0.542l-0.108,0.126l-0.035,0.128l0.021,0.174l-0.042,0.017l-0.069-0.045l-0.184-0.007l-0.049,0.087l0.024,0.118l0.101,0.07l0.014,0.041l0.028,0.004l0.034-0.077l0.032,0.007l0.003,0.157l0.077,0.104l0.107-0.01l0.059,0.083l-0.099,0.141v0.08l-0.048,0.062l-0.118-0.003l-0.105-0.049l-0.264-0.021l-0.345,0.104l-0.063-0.02l-0.083-0.089l-0.23-0.099h-0.177l-0.208,0.044l-0.053-0.057l0.047-0.06l0.132-0.101l-0.014-0.058l-0.021,0.037l-0.206,0.114l0.008,0.094l-0.024,0.095l-0.041,0.086l-0.153,0.067l-0.122,0.152l-0.056,0.028l-0.024-0.028l0.115-0.173l-0.026-0.188l-0.165-0.202l-0.086-0.043l-0.01-0.044l0.04-0.041l-0.037-0.05l-0.089-0.006l-0.1,0.056l0.053-0.001l0.062-0.023l0.031,0.017l-0.017,0.038l0.017,0.07l0.087,0.078l0.008,0.237l-0.112,0.216l-0.131,0.045l-0.093-0.024l-0.068,0.005l-0.102,0.042l-0.018-0.023l0.018-0.06l-0.083-0.055l-0.102,0.005l-0.07,0.091l-0.183,0.012l-0.229-0.039l-0.307,0.01l-0.097,0.037l-0.161,0.007l-0.193,0.107l-0.133,0.011l-0.065,0.062l-0.026,0.055l-0.053-0.011l-0.02-0.062l-0.068-0.013l-0.138,0.068l-0.019,0.062l0.035,0.021l0.061-0.005l0.129,0.045l0.114-0.001l0.003,0.034l-0.112,0.07l-0.024,0.144l-0.057,0.07l-0.237,0.063h-0.117l-0.045,0.031l-0.062,0.083l0.028,0.026l-0.02,0.032l-0.097,0.007l-0.096-0.049l-0.073,0.01l-0.034,0.034h-0.076l-0.036-0.026v-0.044l0.018-0.031l-0.026-0.063l-0.076-0.031l-0.018,0.021l0.039,0.06l0.008,0.08l-0.047,0.068l-0.115,0.104l-0.122,0.016l-0.005,0.029l0.206,0.08l-0.006,0.037l-0.101,0.005l-0.12,0.037l-0.143,0.01l-0.141,0.065l-0.031,0.089l0.044,0.042l-0.018,0.031l-0.214,0.062l-0.177,0.008l-0.125,0.052l-0.053,0.05l-0.039,0.002l-0.054-0.041l-0.219,0.005l-0.029-0.034l-0.013-0.091l0.112-0.112l0.12-0.032l0.042-0.033l-0.037-0.019l-0.234,0.008l-0.099,0.042l-0.105,0.023l-0.039-0.034l-0.01-0.132l0.042-0.058l-0.011-0.018l-0.068,0.023l-0.127-0.015l-0.086-0.052l-0.021,0.013l0.036,0.041l0.003,0.039l0.049,0.021l0.084-0.005l0.065,0.037l0.008,0.117l-0.024,0.052l0.034,0.023l0.063-0.013l0.041,0.016l0.019,0.107l0.028,0.018l0.034-0.015l0.026,0.028l-0.013,0.065l-0.096,0.071l0.002,0.028l0.029,0.039l-0.021,0.079l-0.052,0.06l-0.047,0.002l-0.026,0.031l-0.008,0.044l-0.031,0.016l-0.142,0.013l-0.134,0.054l-0.057,0.059l-0.028-0.007l0.005-0.057l-0.024-0.002l-0.033,0.047l-0.002,0.037l-0.059,0.047l-0.059-0.019l-0.016-0.065l-0.052-0.064l-0.037,0.009l-0.013,0.029l-0.035,0.002l-0.096-0.024l-0.048,0.04l0.055-0.021l0.075,0.034l0.047-0.003l0.028-0.014l0.026,0.019l-0.087,0.164l-0.054,0.055l-0.002,0.035l0.045,0.038v0.033l-0.014,0.023l0.002,0.021l0.026,0.02l-0.008,0.016l-0.042-0.01l-0.023-0.056l-0.036-0.016l-0.007-0.02l0.009-0.028l-0.02-0.026l-0.071-0.019l-0.151,0.034l-0.118-0.008l-0.052-0.044l-0.101,0.002l-0.028,0.026l-0.035-0.002l-0.045-0.024l-0.088,0.007l-0.006,0.012l0.077,0.026l0.071,0.009l0.103-0.004l0.005,0.023l-0.037,0.049l-0.001,0.027l0.024,0.03l-0.016,0.038l-0.027,0.021l-0.006,0.05l0.007,0.03l-0.029,0.049h-0.037l-0.047-0.021h-0.048l-0.03,0.017l-0.014-0.017l0.011-0.042l-0.019-0.016l-0.075,0.006l-0.11-0.037l-0.126-0.003l-0.046-0.02h-0.071l-0.057-0.02l-0.014,0.008l0.047,0.03l0.038,0.003l0.009,0.025l-0.023,0.059l-0.054,0.028l-0.019,0.031l0.002,0.048l-0.054,0.056l-0.043-0.002l-0.054-0.024l-0.021,0.01l-0.012,0.054l-0.026,0.016l-0.016-0.021l-0.005-0.073l-0.143-0.071l-0.067,0.012l-0.084,0.05l-0.094,0.007l-0.05,0.019l-0.087-0.013l-0.078-0.073l-0.052-0.006l-0.012,0.016l0.047,0.023l0.05,0.079l-0.012,0.03l-0.082,0.047l-0.114,0.04l-0.02-0.017l0.025-0.044l-0.007-0.035l-0.014,0.009l-0.049,0.073l0.004,0.038l-0.021,0.019l-0.056,0.013l-0.029,0.05l0.003,0.036l-0.059,0.033l-0.028-0.015l0.009-0.03l-0.024-0.01l-0.092,0.035l-0.021-0.009l0.019-0.047l-0.026-0.012l-0.066,0.014l-0.033,0.04l-0.151,0.09l-0.148-0.005l-0.01-0.031l0.05-0.054h0.047l0.022-0.026l-0.007-0.059l0.105-0.12l-0.014-0.011l-0.052,0.011l-0.059,0.003l-0.04,0.023l-0.006,0.038l-0.031,0.035l-0.104,0.055l-0.023-0.017l0.006-0.042l-0.018-0.002l-0.028,0.021l-0.014-0.014l0.02-0.033l0.069-0.041l0.04-0.08l-0.016-0.014l-0.036,0.017l-0.035-0.01l0.005-0.033l-0.019-0.004l-0.024,0.021l-0.021-0.005l-0.017-0.026l-0.039-0.016l-0.006,0.014l0.045,0.064l-0.023,0.044l-0.061,0.028l-0.13,0.017l-0.101,0.028l-0.015-0.014l-0.009-0.04l-0.035,0.002l-0.026,0.074l-0.083,0.032l-0.087-0.002l-0.011,0.016l0.021,0.019l-0.012,0.015l-0.071,0.011l-0.07-0.04l-0.024-0.052l-0.047-0.016l-0.024,0.01l-0.011,0.032l-0.119,0.029l-0.039,0.056l-0.001,0.033l-0.03,0.028l-0.083,0.021l-0.028,0.033l0.052-0.025l0.071-0.01v0.014l-0.073,0.028l-0.125,0.064l-0.021-0.012l0.011-0.052l-0.032-0.021l-0.033,0.024l-0.043,0.063l-0.061-0.004l-0.026-0.049l0.03-0.066l-0.018-0.02l-0.064-0.011l0.005-0.024l0.191-0.091l0.08-0.074l0.108-0.042l0.127-0.01l0.107-0.072l0.079-0.097l0.083-0.04l0.037-0.04l0.092-0.038l0.038-0.049l0.047-0.021l0.036,0.004l0.051-0.016l0.007-0.022l-0.042-0.014l-0.038,0.019l-0.07-0.002l-0.092,0.028l-0.017,0.023l-0.054,0.015l-0.03-0.012l-0.026,0.005l-0.014,0.04l-0.05,0.031l-0.052-0.001l-0.084,0.029l-0.031,0.025l-0.116,0.034l-0.103,0.035l-0.05,0.03l-0.077,0.012l-0.059,0.031l-0.133,0.014l0.012-0.033l0.177-0.094l0.097-0.094l0.362-0.177l0.274-0.083l0.323-0.122l0.118-0.076l0.063-0.004l0.021-0.048l0.003-0.133l-0.052-0.02l-0.08,0.034l-0.132-0.073l-0.028-0.076h-0.045l-0.031,0.056l-0.003,0.097l-0.223,0.142l-0.188,0.063l-0.163-0.021l-0.049-0.052l-0.027,0.007l0.003,0.066l-0.125,0.059l-0.111,0.007l-0.136,0.031l-0.219-0.007l-0.086,0.028l-0.059,0.087l-0.007,0.059l-0.059,0.024l-0.084-0.003l-0.142,0.076l-0.112,0.028l-0.083-0.042l-0.257,0.025l-0.09,0.062l-0.007-0.024l0.048-0.052v-0.038l-0.038-0.032l0.013-0.028l0.088,0.028l0.153-0.052l0.064,0.001l0.026-0.039l-0.007-0.08l-0.118-0.063l0.003-0.045l0.087-0.024l0.084,0.014l0.17-0.018l0.104-0.055l0.084-0.118l-0.032-0.014l-0.073,0.014l-0.076-0.014l-0.007-0.028l0.076-0.056l0.202-0.052l0.149-0.093l0.025,0.02l-0.032,0.066l0.039,0.011l0.087-0.07v-0.083l0.038-0.011l0.052,0.039l0.121,0.024l0.025-0.021l-0.052-0.052l-0.066-0.003l-0.004-0.046l0.135-0.047l0.068-0.084l0.174-0.112l0.266-0.039l0.13-0.083l0.162-0.052l0.034-0.037l-0.024-0.008l-0.078,0.039l-0.112,0.024l-0.143,0.005l-0.164,0.06l-0.17,0.044l-0.117,0.055l-0.076,0.081l-0.026-0.005l-0.005-0.029l-0.047-0.003l-0.088,0.086l-0.058,0.026l-0.026,0.039l-0.026-0.013l0.037-0.062l-0.037-0.013l-0.073-0.003l-0.023-0.036v-0.063l-0.024,0.005l-0.015,0.066l0.026,0.052l-0.026,0.031l-0.089,0.01l-0.162,0.066l-0.104,0.083l-0.122,0.003l-0.097,0.065l-0.107,0.021l-0.122,0.067l-0.026-0.018l0.055-0.065l-0.027-0.021l-0.086,0.005l-0.14-0.057l-0.102-0.021l0.005-0.026l0.128-0.039l0.023-0.123l-0.031-0.083l-0.099-0.06l-0.12,0.013l-0.094,0.076l-0.005,0.083l-0.057,0.042l-0.198,0.078l-0.031-0.039l0.049-0.133l0.005-0.096l-0.039-0.029l-0.114,0.016l-0.05-0.024l-0.01-0.122l0.028-0.053l0.112-0.015h0.076l0.169-0.078l0.021-0.045l0.073-0.007l0.008-0.034l-0.057-0.034l0.007-0.031l0.146-0.076l0.068-0.013l0.091-0.052l-0.026-0.013l-0.073,0.023l-0.039,0.026l-0.143,0.052l-0.081-0.026l-0.117-0.008l0.008-0.033l0.104-0.047l0.052,0.008l0.039-0.027l0.013-0.08l0.071-0.037l0.075,0.018l0.039-0.013l0.042-0.065l0.247-0.107l0.123-0.002l0.148-0.047l0.146-0.008l0.123-0.055l0.023-0.057v-0.081l0.021-0.002l0.016,0.057l-0.011,0.06l0.024,0.002l0.18-0.195l0.057-0.102l-0.005-0.054l0.021-0.006l0.034,0.081l0.083-0.002l0.211-0.076l0.052,0.01l0.011-0.026l-0.032-0.033l0.006-0.029l0.033-0.029l-0.02-0.042l-0.118,0.027l-0.13-0.013l-0.248,0.044l-0.122,0.013l-0.018,0.023l0.052,0.042l0.031,0.068l0.031,0.031l-0.015,0.024l-0.094-0.042l-0.065-0.104l-0.068-0.021l-0.203,0.036l-0.105,0.052l-0.099,0.008l-0.062,0.039h-0.06l-0.016-0.023h-0.047l-0.07,0.034l-0.065-0.006l-0.042-0.049h-0.036l-0.034,0.021h-0.073l-0.084-0.078l-0.057-0.011l-0.065,0.024l0.016,0.018l0.117,0.029l-0.003,0.023l-0.091,0.023l-0.107-0.01l-0.047-0.044l-0.101-0.037l-0.032,0.037l0.013,0.031l0.076,0.039l-0.018,0.021l-0.136,0.003l-0.182,0.039l-0.065-0.029l-0.047-0.143l0.013-0.141l0.065-0.047l-0.016-0.023l-0.052-0.003l-0.002-0.034l0.07-0.052l0.135-0.068l0.019,0.018l-0.019,0.097l0.04,0.029l0.112-0.006l0.015-0.023l-0.041-0.042l0.013-0.044l0.062-0.057l-0.005-0.024l-0.05,0.003l-0.015-0.032l0.065-0.06l0.109-0.005l0.094-0.034l0.058-0.07l0.078-0.018l0.017-0.033l0.104-0.032l0.06,0.011l0.029-0.016l0.013-0.028l0.094-0.037l0.073,0.005l0.021,0.045l-0.024,0.044l0.008,0.034l0.034,0.013l0.002,0.034l-0.101,0.088l0.008,0.024l0.135-0.058l0.159-0.018l0.172-0.112l0.042-0.073l-0.016-0.081l-0.049-0.02l0.01-0.021l0.083,0.01l0.06-0.021l0.024,0.024l-0.044,0.047l-0.029,0.122l0.075,0.089l0.167,0.099l0.136,0.008l0.062,0.015l0.131-0.018l0.073-0.047l0.049-0.073l0.047-0.013l0.008,0.018l-0.042,0.039l0.005,0.021h0.102l0.112-0.039l0.099-0.023l0.003-0.029l-0.102-0.047l-0.065,0.008l-0.211-0.037l-0.089,0.026l-0.008-0.02l0.071-0.052l0.068-0.029l-0.003-0.024l-0.086-0.007l-0.005-0.026l0.041-0.047l0.042-0.076l0.027-0.206l-0.021-0.06l-0.307-0.057l-0.072-0.056l0.008-0.062l0.089-0.042l0.229-0.005l0.162-0.045l0.174-0.062l0.103-0.081l0.151-0.057l0.044-0.081l-0.01-0.099l0.036-0.05l0.008-0.044l-0.013-0.042l0.039-0.083l0.151-0.078l0.123-0.003l0.133,0.06l0.062,0.003l0.055-0.024l0.084,0.011l0.049,0.039l0.047,0.003l0.062-0.092l0.084-0.018l0.104,0.016l0.138-0.047l0.032,0.01l-0.019,0.052l0.021,0.026l0.269-0.014l0.32-0.132l0.247-0.066l0.097,0.013l0.11-0.051l0.039-0.07l0.028-0.003l0.05,0.06l0.133,0.021l0.049-0.021l0.024-0.088l0.13-0.084l0.063,0.016l0.112-0.021l0.08-0.039l0.175-0.021l0.133,0.042l0.232-0.042l0.09,0.026l0.03,0.038l-0.003-0.049l-0.023-0.025l-0.094-0.021l-0.219-0.011l-0.117-0.047l-0.222-0.031l-0.143,0.057l-0.094-0.007l-0.042-0.055l0.016-0.115l0.039-0.088l-0.042-0.071l-0.06-0.01l-0.002-0.021l0.042-0.01l0.067-0.047l0.011-0.042l-0.021-0.008l-0.089,0.065l-0.096,0.003l-0.076,0.023l-0.052,0.068l-0.008,0.089l-0.023,0.039l-0.052,0.023l-0.026,0.039l0.007,0.055l-0.067,0.146l-0.092,0.06l-0.179,0.167l-0.071,0.013l-0.258,0.005l-0.047,0.026l-0.013,0.06l-0.112,0.076l-0.133-0.006l-0.036-0.041l0.026-0.055l0.206-0.128l-0.003-0.026l-0.073,0.008l-0.161,0.063l-0.05,0.044l-0.177,0.06l-0.096-0.003l-0.081-0.039l-0.141-0.034l-0.198-0.112l-0.01-0.083l-0.024-0.034l-0.128-0.005l-0.007,0.028l0.073,0.032l0.057,0.054l-0.008,0.032l-0.102,0.039l-0.07,0.054l-0.344,0.027l-0.039,0.044l0.008,0.096l-0.032,0.026l-0.091-0.031l-0.034,0.01l-0.005,0.029l-0.219,0.068l-0.101-0.029l-0.089,0.005l-0.094,0.066l-0.185,0.007l-0.018-0.031l0.117-0.088l0.058,0.002l0.041-0.018l0.018-0.037l0.225-0.078l0.039-0.07l0.281-0.167l0.203-0.146l0.073-0.104l0.081-0.071l-0.008-0.057l0.013-0.036l0.047-0.006l0.058-0.067l0.174-0.008l0.05,0.052l0.028-0.003l0.006-0.031l0.088,0.003l0.037-0.071l-0.032-0.039l0.011-0.018l0.042-0.018l0.015-0.037l-0.041-0.109l0.01-0.031l0.089-0.008l0.036-0.047v-0.042l0.021-0.021l0.049,0.006l0.016-0.047l-0.049-0.029l0.002-0.031l0.042-0.019l0.008-0.044l-0.024-0.029l0.05-0.078l0.143-0.067l0.12-0.107l0.016-0.086l-0.047-0.019l-0.11,0.039l-0.143-0.007l-0.117,0.018l-0.034-0.013l0.018-0.065l0.063-0.032l0.067-0.067l0.019-0.084l0.096-0.12l0.005-0.075l0.06-0.086l0.052-0.042l0.021-0.047v-0.034l0.029-0.065l0.151-0.07l0.091-0.136l-0.01-0.086l0.036-0.07l0.089-0.044l0.112,0.031l0.211,0.115l0.068,0.023l0.065-0.01l0.083-0.073l0.084,0.013l0.06,0.044l-0.003-0.044l-0.05-0.05l-0.114-0.002l-0.032-0.019l0.058-0.047h0.055l0.059,0.019l0.092,0.002l0.156,0.058l0.065-0.021v-0.029l-0.156-0.036l-0.018-0.024l0.07-0.023l0.086,0.005l0.078-0.029l0.039,0.003l0.005,0.023l-0.039,0.011l-0.015,0.026l0.107,0.044l0.044,0.047l0.029,0.01l-0.021-0.106l-0.037-0.047l0.003-0.058l0.057-0.094l0.094-0.054l0.034-0.052l-0.026-0.003l-0.073,0.047l-0.133,0.018l-0.104-0.055l-0.003-0.086l0.055-0.093l0.12-0.024l0.015-0.042l-0.026-0.023l-0.07,0.008l-0.042,0.031l-0.049,0.005l-0.037-0.021l-0.07,0.006l-0.086-0.016l-0.044,0.005l-0.06,0.052l-0.313,0.068l-0.232-0.002l-0.339,0.039l-0.167-0.003l-0.117,0.026l-0.219,0.005l-0.187,0.045l-0.102-0.008l-0.078-0.06l-0.039-0.091l-0.003-0.068l0.06-0.063l-0.013-0.018l-0.078,0.026l-0.039,0.05l0.01,0.099l-0.055,0.065l-0.075,0.015l-0.068-0.065l0.029-0.096l0.062-0.039l0.018-0.042l-0.031-0.135l-0.029-0.019l-0.015-0.039l0.023-0.034l0.068-0.01l0.094-0.034l-0.003-0.047l-0.088-0.099l0.005-0.039l0.047-0.013l0.039-0.031l-0.021-0.018l-0.096,0.015l-0.029,0.024l0.023,0.06l-0.005,0.088l0.039,0.037l-0.018,0.026l-0.146,0.021l-0.091-0.037l-0.005-0.026l0.06-0.01l0.041-0.048l0.014-0.122l-0.024-0.059l-0.052,0.017l-0.014,0.042l-0.035,0.042l-0.118,0.076l-0.073,0.132l-0.016,0.06l-0.039,0.05h-0.07l-0.057,0.023l-0.008,0.032l-0.029,0.007l-0.227-0.117l-0.067-0.008l-0.068,0.029l-0.084-0.039l-0.01-0.039l0.06-0.118l-0.016-0.049l0.019-0.047l0.075-0.003l0.159-0.044l0.083-0.049l0.021-0.076l-0.021-0.008l-0.046,0.016l-0.011-0.031l0.024-0.034l-0.013-0.008l-0.047,0.013l-0.076,0.091l-0.075,0.034l-0.042-0.016l-0.013-0.08l-0.05-0.06l-0.073,0.01l-0.021,0.06l0.019,0.076l-0.016,0.044l-0.112,0.031l-0.013,0.037l-0.029,0.002l-0.054-0.044l-0.146-0.021l-0.073-0.042v-0.067l-0.032-0.039l-0.088-0.037l-0.131,0.037l-0.062,0.054h-0.034v-0.034l-0.06-0.036l-0.099,0.008l-0.013-0.024l0.099-0.099l0.042-0.068l0.07-0.01l0.128,0.065l0.068-0.005l0.01-0.05l0.042-0.036l-0.003-0.029l-0.091-0.021l-0.063-0.052l0.016-0.036l0.07,0.002l0.136,0.073l0.052,0.006l-0.086-0.076l-0.188-0.057l-0.138-0.089l-0.039-0.12l-0.044-0.041l-0.097,0.005l-0.052-0.021l0.013-0.047l0.123-0.034l0.104,0.031l0.112,0.008l0.003-0.023l-0.099-0.06l0.005-0.026l0.274,0.023l0.112,0.037l0.033,0.078l0.063,0.016l0.065-0.019l0.026-0.018l-0.021-0.021l-0.073,0.008l-0.002-0.031l0.07-0.026l-0.005-0.024l-0.136-0.023l-0.075-0.052l-0.055-0.086l0.016-0.032l0.088,0.013l0.086-0.005l0.123,0.042l0.19-0.003l0.055-0.067l0.167-0.019l0.187,0.091l0.125,0.024l0.24-0.018l0.076-0.045l0.028-0.023l0.003-0.018l-0.102,0.052l-0.239,0.018l-0.097-0.021l-0.289-0.138l-0.05-0.078l-0.073-0.018l-0.036-0.047l0.008-0.099l-0.026-0.05l0.005-0.107l0.065-0.093l0.003-0.073l-0.032-0.068l0.024-0.042l0.237-0.021l0.115-0.054l0.114-0.013l0.05,0.031l0.219-0.018l0.044-0.037l0.098-0.01l0.026,0.026l0.047,0.005l0.018-0.023l0.059,0.002l0.027,0.024l0.108-0.014l0.066-0.069l0.058-0.01l0.013-0.018l-0.062-0.029l-0.03,0.014l-0.064-0.002l-0.099-0.052l0.003-0.112l0.018-0.046l0.069-0.033l0.072,0.013l0.02-0.006l-0.029-0.032l-0.016-0.085l0.026-0.033l-0.007-0.038l-0.064-0.028l-0.05,0.017l-0.155-0.015l-0.029-0.021l-0.113-0.012l-0.204,0.005l-0.007,0.031l-0.022,0.002l-0.096-0.054l-0.031,0.002l-0.115,0.127l-0.177,0.066l-0.146,0.003l-0.104-0.024l-0.026-0.023l0.048-0.092l-0.01-0.092l0.007-0.031l0.042-0.021l0.019-0.049l-0.025-0.024l0.006-0.042l0.024-0.048l0.136-0.039l0.119,0.004l0.025,0.028l0.047,0.022l0.041-0.005l0.023,0.014v0.068l-0.028,0.04l0.014,0.045l0.021,0.009l0.017-0.047l0.007-0.118l-0.033-0.12h-0.021l-0.027,0.015l-0.061-0.003l-0.028,0.021l-0.023-0.002l-0.015-0.026l0.017-0.056l-0.002-0.043l0.011-0.023l0.041,0.007l0.009-0.014l-0.048-0.038l-0.061-0.012l-0.08-0.03l-0.091-0.114l0.007-0.066l0.049-0.07v-0.045l0.016-0.007l0.054,0.052l0.02-0.002l0.014-0.045l-0.028-0.036l0.023-0.051l0.063-0.026l0.01-0.024l-0.045-0.035l0.007-0.024l0.097-0.014l-0.002-0.019l-0.114-0.023l-0.025,0.013v0.029l-0.043,0.052l-0.066,0.004l-0.017,0.019l0.024,0.081l-0.023,0.037l-0.071,0.012l-0.028,0.024l-0.035,0.006l-0.046-0.014l-0.049,0.005l-0.017-0.014l0.01-0.038l-0.038-0.106l-0.054-0.037l0.007-0.019l0.128-0.019l0.049-0.019l0.023-0.031l0.038-0.014l0.047,0.015l0.022-0.006l-0.043-0.053l-0.031-0.013l-0.032,0.029l-0.031-0.009l-0.062-0.107l0.022-0.021l0.052,0.021l0.028-0.007l-0.002-0.019l-0.036-0.014l-0.037-0.061l-0.003-0.03l0.05-0.026l0.016-0.052l-0.007-0.026l-0.108-0.035l-0.109-0.088l-0.033-0.002l-0.028,0.028l0.023,0.054l-0.007,0.047l-0.039,0.034l-0.04-0.015h-0.048l-0.012,0.014l0.027,0.069l-0.022,0.03h-0.085l-0.072,0.038l-0.001,0.029l0.092,0.033l0.002,0.021l-0.04,0.018l-0.016,0.026l0.028,0.043l-0.007,0.019l-0.052-0.005l-0.018,0.024l0.012,0.035l0.049,0.007l0.033,0.023l0.009,0.06l-0.042,0.042l-0.062,0.005l-0.075-0.033h-0.035l-0.045-0.04v-0.036l0.024-0.018l0.006-0.031l-0.013-0.066l0.033-0.068l0.035-0.026l0.071-0.144l0.006-0.045l-0.025-0.075l0.037-0.045l0.066-0.017l0.031-0.073l-0.024-0.023l-0.044-0.003l-0.106-0.049l-0.008-0.02l0.05,0.003l0.062,0.034l0.014-0.021l-0.032-0.063l0.018-0.099l0.092-0.057l0.075-0.008l0.081-0.065l0.003-0.039l0.023-0.011l0.047,0.026l0.12,0.159l0.156,0.029l0.065-0.018l0.029,0.008l-0.039,0.122l-0.078,0.078l-0.164,0.021l-0.021,0.021l0.075,0.034l0.125,0.008l0.136-0.029l0.01-0.036l-0.026-0.016l0.013-0.042l-0.002-0.052l0.055-0.135l0.112-0.05l0.07-0.003l0.042,0.06l0.14,0.071l0.071,0.015l-0.052-0.047l-0.131-0.057l-0.047-0.062l0.016-0.024l0.05,0.003l0.02-0.013l-0.054-0.016l-0.079,0.008l-0.059-0.039l-0.058-0.011l-0.026-0.052l0.016-0.055l0.078-0.028l0.104-0.068l0.177,0.026l0.154,0.07l0.217,0.04l0.117-0.055h0.044l0.026,0.021l0.164,0.002l0.084,0.021l0.039,0.034l0.062,0.003l0.047-0.032h0.078l0.06,0.032l0.245,0.018l0.053,0.055h0.031l0.078-0.136l0.042-0.018l0.112,0.065l0.185,0.036l0.049,0.076l-0.015,0.089l0.028,0.015l0.097-0.057l0.023,0.021l-0.01,0.148l0.049,0.032l0.024,0.044l-0.084,0.086l0.008,0.055l0.133,0.021l0.102,0.096l0.036,0.109l-0.015,0.068l0.015,0.058l0.05-0.206l-0.011-0.141l0.112-0.057l0.157-0.256l0.023-0.123l0.094-0.028l0.16,0.031l0.101-0.017l0.086-0.004l0.105,0.053l0.035,0.052l0.246,0.1l0.108-0.024l0.083-0.073l0.087-0.003l0.07,0.052h0.083l0.122-0.045l0.107,0.034l0.039,0.087l0.132,0.098l0.062,0.086l0.062,0.014l0.195-0.031l-0.024-0.021l-0.17-0.042l-0.025-0.052l-0.104-0.08l-0.069,0.014l-0.014-0.027l0.066-0.112l0.055-0.01l0.049,0.024l0.212-0.003l0.104-0.025l0.014-0.038l-0.142-0.059l-0.146-0.014l-0.021-0.041l0.028-0.101l0.028-0.004l0.041,0.063l0.101,0.035l0.052-0.021l-0.003-0.038l-0.176-0.084l-0.106-0.005l-0.052,0.024l-0.144,0.025l-0.023,0.02l0.021,0.028l-0.009,0.019l-0.045-0.01l-0.01-0.023l0.022-0.04l-0.02-0.04l-0.054-0.022l-0.016-0.051l0.012-0.036l0.094-0.035l0.07,0.005l0.022-0.01l0.007-0.038l0.023-0.016l0.067-0.017l0.077-0.045l0.002-0.051l0.024-0.022l0.064-0.002l0.065-0.037l0.015-0.041l0.042-0.011l0.017,0.009l-0.014,0.029l-0.102,0.065l-0.061,0.014l-0.009,0.017l0.052,0.01l0.164-0.099l0.007-0.043l0.052-0.049l0.043-0.022l0.011-0.038l-0.016-0.063l0.038-0.076l0.052-0.006l0.026,0.028l-0.017,0.023l0.009,0.021l0.043,0.02l0.078-0.008l0.079-0.042l0.09-0.009l0.151-0.033l0.12-0.034l0.099-0.063l0.005-0.04l0.025-0.019l0.041,0.016l0.11-0.014l0.038,0.01l0.024-0.005l-0.019-0.028h-0.095l-0.075-0.016l-0.045-0.053l0.005-0.046l0.17-0.09l0.014-0.026l-0.029-0.087l0.005-0.028l0.062-0.008l0.141-0.112l-0.003-0.092l0.01-0.048h0.031l0.033,0.095l0.035,0.004l0.028-0.037l0.05-0.027l-0.002-0.027l-0.043-0.013l-0.009-0.047l0.026-0.04l-0.007-0.028l-0.024-0.007l-0.033,0.042l-0.066,0.02l-0.059-0.022l-0.132,0.052l-0.21,0.122l-0.085,0.027l-0.02-0.007l-0.008-0.041l0.088-0.134l-0.024-0.04l-0.031-0.005l-0.038,0.028l-0.129,0.038l-0.042,0.031l-0.026,0.059l-0.076,0.054l-0.038,0.04l-0.044,0.038l-0.125,0.023l-0.033,0.024v0.033l-0.033,0.03l-0.04,0.001l-0.012-0.013l0.052-0.053l-0.002-0.029l0.009-0.016l0.036-0.005l0.139-0.049l0.07-0.071l-0.028-0.085l-0.021-0.016l-0.064,0.011l-0.04,0.055l-0.047,0.026l-0.014-0.01l0.016-0.035l0.003-0.036l0.032-0.077l-0.016-0.005l-0.05,0.075l-0.013,0.054l-0.066,0.092l-0.055,0.002l-0.019-0.03l-0.004-0.094l-0.015-0.019h-0.04l-0.143,0.066l-0.078,0.005l-0.059,0.023l-0.028,0.024l-0.015-0.003l0.005-0.028l-0.026-0.015l-0.029,0.004l-0.071-0.018l-0.048-0.044l-0.006-0.022l0.009-0.01l-0.004-0.015l-0.028-0.027l-0.01,0.01l0.021,0.053l0.003,0.027l-0.009,0.013l-0.054,0.014l-0.044-0.007l-0.052,0.011l-0.017-0.01l-0.006-0.036l0.007-0.026l-0.047-0.042l-0.045-0.007l-0.061-0.029l-0.148-0.037l-0.097-0.049l-0.006-0.016l0.031-0.039l0.001-0.065l-0.026-0.004l-0.031-0.025l-0.01-0.04l0.024-0.028l0.03-0.001l0.013,0.016l0.037-0.001l0.049-0.032l0.034-0.005l0.016,0.018h0.024l0.014-0.013l0.029-0.011l-0.026-0.003l-0.026,0.006l-0.02-0.031l-0.005-0.048l0.032-0.05l0.059-0.04l0.057-0.007l0.019-0.018l0.009-0.029l0.052-0.039h0.031l0.034-0.016l0.007-0.021l0.021-0.01l0.078-0.004l0.178-0.04l0.112,0.019l0.097,0.051l0.046,0.005l0.021-0.014l0.029,0.008l0.009,0.019h0.046l0.083,0.029l0.06,0.007l0.037-0.011l-0.012-0.008l-0.057-0.006l-0.015-0.026l-0.029-0.028l-0.083-0.019l-0.039,0.014l-0.036-0.007l-0.018-0.021l-0.064-0.025l-0.022-0.03l0.012-0.014l0.067,0.001l0.036,0.018l0.061-0.015l0.037,0.008l0.028-0.018l0.048,0.002l0.052,0.048l0.012,0.04l0.062,0.043l0.032,0.007l0.053-0.036l0.007-0.019l-0.029-0.008l-0.039,0.009l-0.054-0.047l-0.006-0.032l-0.076-0.061l-0.045-0.005l-0.043,0.022l-0.02-0.011l-0.001-0.036l-0.049-0.025l-0.038,0.003l-0.025-0.02l0.016-0.037l-0.012-0.011l-0.049,0.007l-0.08-0.011l-0.008-0.014l0.033-0.029l0.076-0.013l0.083,0.028l0.018-0.011l-0.004-0.025l0.039-0.05l0.072-0.005l0.055,0.039l0.04,0.001l0.07-0.035l0.012-0.016l0.029-0.006l0.024,0.015l0.022-0.002l0.022-0.022l0.021,0.005v0.031l0.061,0.027l0.027-0.012l0.022,0.008l-0.001,0.024l0.062,0.004l0.05,0.002l0.011-0.012l0.074-0.021l0.117-0.076l0.041-0.011l0.029-0.028l0.013-0.044l-0.037,0.046l-0.058,0.023l-0.111,0.072l-0.09,0.014l-0.044-0.021l-0.007-0.029l-0.055-0.014l-0.03,0.014l-0.026-0.005l-0.015-0.022l0.001-0.113l0.016-0.005l0.019,0.01l0.044-0.003l0.031-0.021l0.043-0.001l0.061,0.032l0.02-0.003l0.011-0.028l0.035-0.019l-0.004-0.011l-0.069-0.006l-0.032-0.019l-0.004-0.058l-0.02-0.006l-0.043,0.018l-0.033,0.003l-0.039-0.014l-0.009,0.007l0.012,0.026l-0.007,0.065l-0.03,0.009l-0.034-0.036l-0.042-0.034l-0.144-0.05l-0.036-0.048l-0.002-0.026l0.038-0.039l0.001-0.022l-0.042-0.021l0.009-0.03l0.038-0.021l0.027,0.007l0.003,0.018l-0.014,0.016l0.003,0.009l0.098-0.01l0.083-0.026l0.047,0.005l0.048-0.034v-0.013l-0.059,0.001l-0.092-0.041l-0.127-0.116l0.01-0.02l-0.004-0.034l-0.043-0.047l0.011-0.034l0.093-0.012l0.041,0.016l0.018-0.001l0.001-0.051l0.028-0.039l0.003-0.022l-0.021-0.044l0.026-0.028l0.043,0.022h0.047l0.072-0.022l0.028-0.026l0.002-0.031l-0.018-0.05l0.012-0.022l0.072-0.012l0.022,0.011l-0.011,0.05l-0.048,0.045l-0.002,0.05l0.015,0.047l0.035,0.024l0.014-0.01l-0.015-0.086l0.009-0.014l0.035,0.014l0.068,0.006l0.037-0.01l-0.079-0.008l-0.034-0.01l-0.018-0.03l0.016-0.054l0.002-0.032l-0.042-0.103l0.015-0.012l0.059,0.023h0.024l0.005-0.009l-0.067-0.051v-0.082l0.069-0.071l0.017-0.097l-0.011-0.023l0.001-0.022l0.036-0.021l0.129,0.029l0.141,0.015l0.112-0.001l0.039,0.012l0.036-0.003l0.026-0.024l-0.002-0.042l0.015-0.019l0.033-0.005l0.029,0.01l0.002,0.029l-0.039,0.021l-0.047,0.058l0.007,0.026l-0.025,0.039l0.019,0.02l0.032-0.003l0.035-0.029l0.007-0.054l0.041-0.013l0.014-0.07l0.018-0.028h0.095l0.084-0.015l0.052-0.039l0.069-0.007l0.042-0.039v-0.089l0.017-0.061l0.063-0.024l0.04-0.035l0.048-0.007l0.056,0.047l0.061,0.002l0.026,0.036l-0.016,0.045l-0.12,0.061l0.016,0.009l0.052-0.011l0.032,0.021l0.067,0.011l0.108-0.051l0.023,0.02v0.046l0.015,0.023l0.051-0.017l0.008,0.013l-0.046,0.039l-0.047,0.028l0.003,0.013l0.043-0.013l0.03-0.024l0.068-0.003l0.014,0.027l-0.033,0.045l-0.093,0.038l-0.022,0.033l0.016,0.019l0.043-0.019l0.029,0.002l0.044,0.045l0.017-0.005l-0.007-0.044l0.047-0.05v-0.045l0.049-0.018l0.029-0.074l-0.022-0.07l-0.028-0.023l-0.033,0.02l-0.054-0.02l-0.042-0.064l0.032-0.121l0.078-0.018l0.052,0.018l0.047-0.018l0.023-0.066l0.026-0.038l0.033-0.001l0.042-0.023l0.011,0.017l-0.033,0.056l-0.006,0.057l-0.079,0.122l-0.007,0.062l0.046,0.085l0.027,0.002l0.014-0.023l0.068-0.008l0.193,0.083l0.082,0.09l0.01,0.073l-0.043,0.145l0.027,0.043l0.025-0.005l0.024-0.103l0.056-0.097l0.005-0.08l-0.051-0.09l-0.038-0.021l-0.057-0.066l-0.016-0.042l0.018-0.01l0.022,0.015l0.016-0.008l-0.031-0.066l0.003-0.072l-0.026-0.017l-0.038,0.049l0.008,0.062l-0.007,0.056l0.038,0.057l0.007,0.063l-0.022,0.008l-0.061-0.036l-0.033-0.044v-0.038l-0.026-0.014l-0.034,0.036l-0.051-0.008l-0.024-0.054l-0.044-0.01l-0.019-0.03l0.004-0.04l0.125-0.114l0.031-0.065l0.071-0.013l0.03,0.027l0.08,0.002l0.031-0.026l0.005-0.036l0.021-0.019l0.042-0.01l0.065-0.055h0.086l0.073,0.159l0.023,0.146l-0.054,0.086l0.013,0.044l0.049,0.037l0.068,0.008l0.055,0.044l0.002,0.057l0.201,0.191l-0.003,0.052l-0.028,0.026l-0.008,0.036l0.023,0.042l-0.026,0.031l-0.208,0.073l-0.034,0.047l-0.013,0.052l-0.042,0.031l-0.065,0.008l-0.073,0.076l0.052-0.008l0.05-0.023l0.039,0.01l0.125-0.042l0.057,0.047l-0.013,0.058l-0.117,0.109l-0.125,0.063l-0.071,0.073l-0.028,0.062l-0.06,0.068l-0.058,0.021h0.06l0.128-0.065l0.042,0.013l0.031-0.019l0.078-0.122l0.198-0.149l0.065,0.003l0.026-0.016v-0.067l0.04-0.021l0.198-0.021l0.031-0.039l-0.034-0.055l-0.008-0.055l-0.036-0.054l-0.052-0.019l-0.011-0.054l0.081-0.128l-0.021-0.073l-0.164-0.209l-0.102-0.088l-0.052-0.008l-0.01-0.029l0.036-0.028l0.003-0.06l0.023-0.063l0.045-0.036l0.007-0.042l-0.02-0.016l-0.003-0.026l0.044-0.021l0.016-0.06l-0.044-0.086l0.015-0.033l0.078-0.008l0.081,0.034l0.042-0.011v-0.047l0.034-0.007l0.075,0.046l0.159-0.031l0.052-0.029l0.016-0.083l0.044-0.026l0.092,0.029l0.112,0.091l-0.011,0.034h-0.109l-0.021,0.018l0.193,0.047l0.122-0.008l0.016-0.023l-0.232-0.144l-0.104-0.109l-0.011-0.11l-0.041-0.044l-0.06-0.01l-0.047-0.05l0.008-0.057l0.073-0.011l0.148,0.073l0.146,0.013l0.099,0.042l0.063,0.005l0.104,0.045l0.055,0.002l0.127,0.081l-0.021,0.044l0.003,0.037l0.052,0.039l0.016,0.07l0.06,0.029l0.065,0.003l0.206,0.104l0.07-0.008l0.115,0.047l0.028,0.047l0.037,0.01l0.146,0.005l0.115,0.079l0.005,0.065l-0.068,0.06l-0.229,0.109l-0.141,0.034l-0.258,0.154l-0.133,0.031l-0.146,0.125l-0.075,0.13l-0.133,0.131l-0.037,0.065L614.513,222.651z"/>
</svg>
