<svg xmlns="http://www.w3.org/2000/svg" viewBox="602.067 220.730 19.214 20.290">
  <path d="M614.56,220.77l0.003-0.024l0.026-0.016l0.088,0.01l0.004,0.017l-0.063,0.019L614.56,220.77z M610.079,223.274l0.031,0.021l0.042-0.003l0.016-0.039l-0.024-0.023l-0.039,0.013L610.079,223.274z M610.397,222.598h0.047l0.021-0.018l-0.021-0.044l-0.039-0.008l-0.047,0.018l-0.005,0.034L610.397,222.598z M613.8,222.751l-0.056-0.093l-0.102-0.062l-0.081,0.007l-0.046,0.055l0.025,0.062l0.088,0.055l0.147-0.01L613.8,222.751z M610.857,221.652l0.074,0.01l0.042,0.035l0.084,0.01l0.004-0.028l-0.074-0.062l-0.116-0.031l-0.039,0.01l-0.007,0.035L610.857,221.652z M609.808,223.189l0.144-0.016l0.021-0.036l-0.032-0.041l-0.003-0.047l-0.024-0.044l-0.11-0.065l-0.053-0.005l-0.042,0.029l0.013,0.044l-0.045,0.096l0.01,0.065L609.808,223.189z M610.247,222.945l0.01-0.041l-0.029-0.104l-0.034-0.039l-0.018,0.005l0.018,0.086l-0.013,0.039l0.031,0.057L610.247,222.945z M610.131,223.183l-0.024-0.036l-0.042-0.01l-0.016,0.018l0.008,0.026l0.034,0.018L610.131,223.183z M610.073,222.779l0.034,0.008l0.039-0.018l0.008-0.034l-0.029-0.026h-0.045l-0.018,0.034L610.073,222.779z M611.109,222.108l0.018,0.036l0.039,0.003l0.024-0.013l-0.005-0.039l-0.047-0.01l-0.016-0.029l-0.034,0.008l-0.013,0.023L611.109,222.108z M610.086,223.123l0.02-0.01l-0.025-0.03l-0.058-0.021l-0.013,0.008l0.023,0.027L610.086,223.123z M610.564,222.426l0.004-0.016l-0.03-0.019l-0.044-0.009l-0.012,0.012l0.032,0.024L610.564,222.426z M610.502,222.478l0.005,0.018l0.026,0.005l0.026-0.016v-0.018l-0.031-0.005L610.502,222.478z M609.787,223.709l0.007,0.012l0.016,0.004l0.018-0.008l-0.007-0.012l-0.016-0.003L609.787,223.709z M609.937,223.241l-0.006,0.024l0.019,0.005l0.017-0.012l-0.012-0.019L609.937,223.241z M611.168,221.946l0.007,0.024l0.015-0.003l0.007-0.022l-0.015-0.011L611.168,221.946z M609.691,224.001v0.014l0.014,0.008l0.013-0.008l-0.007-0.014H609.691z M610.217,223.311l0.021-0.01l0.001-0.012l-0.03-0.005l-0.02,0.015l0.001,0.014L610.217,223.311z M608.687,224.765l-0.005,0.031l0.021,0.013l0.034-0.013v-0.023l-0.024-0.013L608.687,224.765z M610.355,222.703l0.021,0.003l0.007-0.009l-0.016-0.019l-0.019-0.002l-0.002,0.012L610.355,222.703z M610.086,223.806l-0.021,0.006l0.003,0.019l0.029,0.016l0.025-0.002l0.008-0.017L610.086,223.806z M610.517,222.63l-0.004,0.018l0.015,0.007l0.024-0.005v-0.015l-0.017-0.01L610.517,222.63z M611.164,222.029l0.01,0.018l0.019-0.001l0.006-0.023l-0.016-0.024l-0.018,0.004L611.164,222.029z M610.421,222.501l0.013-0.006l0.004-0.012l-0.008-0.01l-0.015,0.007l-0.003,0.011L610.421,222.501z M609.755,225.137l0.01,0.001l0.007-0.011l-0.014-0.007l-0.01,0.006L609.755,225.137z M612.533,222.025l0.003,0.021h0.034l0.021-0.021l-0.003-0.021l-0.024,0.003L612.533,222.025z M609.545,226.729l0.029,0.005l0.039-0.029l0.003-0.062l-0.039-0.013l-0.013,0.023v0.041L609.545,226.729z M609.304,226.003l0.037-0.003l0.029-0.021l-0.018-0.013l-0.05,0.005l-0.018,0.021L609.304,226.003z M604.382,229.278l0.158-0.062v-0.052l-0.06-0.023l-0.042-0.06h-0.037l-0.074,0.062l-0.108,0.021l-0.063,0.065l0.01,0.047L604.382,229.278z M603.998,229.748l0.039-0.062l-0.025-0.031l-0.126,0.024l-0.056,0.059l0.021,0.045L603.998,229.748z M607.496,227.17l0.024-0.005l-0.008-0.029l-0.095-0.052l-0.066-0.01l0.013,0.018l0.079,0.034L607.496,227.17z M604.479,228.828l0.058-0.008l0.047-0.101l-0.016-0.099l0.063-0.146v-0.094l-0.053-0.01l-0.024,0.018l-0.045-0.023l0.008-0.107l0.071-0.031l0.013-0.042l-0.108-0.127l-0.042-0.023l-0.039,0.008l-0.039,0.06l-0.11,0.008l-0.076-0.049h-0.1l-0.11,0.068l-0.018,0.039l-0.102,0.016l-0.074-0.039l-0.134-0.034l-0.01,0.013l0.003,0.068l-0.102,0.081l-0.081,0.005l-0.045,0.026l0.063,0.005l0.123,0.062l0.058,0.018l0.021-0.016l-0.016-0.029l0.026-0.01l0.1,0.023l0.073-0.011l0.027,0.009l0.021,0.034l0.11-0.029l0.045-0.036l0.063,0.013l0.053,0.044l-0.045,0.216l0.042,0.023l0.095-0.008l0.076,0.049l0.021,0.07L604.479,228.828z M604.643,228.249l0.05,0.013l0.063-0.01l0.016-0.075l-0.024-0.016l-0.097,0.026l-0.021,0.031L604.643,228.249z M604.83,228.285l-0.013,0.036l0.018,0.018l0.042-0.01l0.018-0.049l-0.01-0.06l-0.039-0.013l-0.026,0.01l-0.01,0.034L604.83,228.285z M603.591,227.547l0.035-0.017l0.034-0.005l0.008-0.036l-0.045-0.034l-0.045,0.016l-0.005,0.062L603.591,227.547z M603.728,227.821l0.063-0.023h0.034l0.024-0.021l-0.032-0.016l-0.029,0.013l-0.05-0.005l-0.042,0.018l-0.016,0.029L603.728,227.821z M604.482,228.878l0.024,0.031l0.032,0.008l0.018-0.034l-0.031-0.029l-0.032-0.003L604.482,228.878z M606.051,233.022l0.084,0.004l0.074-0.06l-0.014-0.049l-0.13-0.018l-0.046,0.035l-0.024,0.049L606.051,233.022z M605.798,232.928l0.099-0.017l0.064-0.07l0.013-0.071l-0.039-0.042l-0.067-0.007l-0.088,0.077l-0.035,0.091L605.798,232.928z M605.172,232.594l0.312,0.123l0.13,0.081l0.084-0.007l0.031-0.067l-0.021-0.039l-0.088,0.007l-0.026-0.016v-0.026l0.037-0.063l-0.021-0.028l-0.077,0.004l-0.053-0.035l-0.06-0.007l-0.039,0.028l-0.087-0.002l-0.042-0.018l-0.043-0.05l-0.126-0.021l-0.076,0.023l-0.022,0.026l0.014,0.053L605.172,232.594z M603.245,230.247l0.049-0.024l0.067-0.003l0.01-0.031l-0.063-0.035l-0.042,0.01l-0.049,0.066L603.245,230.247z M603.532,230.199l0.112,0.003l0.032-0.045l-0.007-0.073l-0.056-0.021l-0.067,0.028l-0.13,0.007l-0.029,0.029l0.03,0.035L603.532,230.199z M603.707,230.629l0.053,0.003l0.035-0.028l-0.024-0.038h-0.053l-0.028,0.024L603.707,230.629z M605.42,231.765l0.042,0.049h0.056l0.13-0.023l0.052-0.036l-0.005-0.021l-0.027-0.021l-0.144-0.021l-0.088,0.024L605.42,231.765z M605.294,232.114l0.074-0.014l0.018-0.035l-0.025-0.067l-0.037,0.008l-0.018,0.021l0.003,0.038l-0.053,0.017l-0.01,0.021L605.294,232.114z M605.641,231.673l0.053,0.018l0.029-0.016l-0.009-0.027l-0.039-0.012l-0.032,0.01L605.641,231.673z M604.833,231.707l0.019,0.02l0.031,0.011l0.039,0.043l0.018-0.001l0.001-0.026l-0.019-0.047l-0.037-0.029l-0.023-0.002l-0.025,0.009L604.833,231.707z M604.742,231.239v-0.055l-0.038-0.042l-0.017,0.01l-0.003,0.055l0.03,0.044L604.742,231.239z M604.716,231.346l0.037-0.018v-0.021l-0.039-0.024l-0.021,0.005l-0.005,0.047L604.716,231.346z M605.425,231.875l0.024-0.024l-0.008-0.021l-0.05-0.008l-0.018,0.016l0.024,0.037H605.425z M607.766,232.432h0.058l0.026-0.024l-0.021-0.021l-0.071,0.003l-0.016,0.021L607.766,232.432z M607.982,232.158l0.053-0.024l0.005-0.029l-0.068-0.018l-0.081,0.021l-0.008,0.024L607.982,232.158z M608.027,232.274l0.037,0.003l0.032-0.016l0.066,0.005l0.021-0.011l-0.031-0.024l-0.076,0.005L608.027,232.274z M603.507,227.627l0.054-0.028l0.021-0.029l-0.021-0.023l-0.024,0.012l-0.032,0.05L603.507,227.627z M603.574,227.452l0.032-0.01l0.012-0.019l-0.025-0.003l-0.018,0.009l-0.018,0.021L603.574,227.452z M604.996,228.399l0.007,0.024l0.019-0.003v-0.033l-0.018-0.016l-0.019,0.002l-0.009,0.014L604.996,228.399z M604.433,227.27l0.037-0.003l0.002-0.017l-0.038-0.012l-0.028,0.007l-0.002,0.016L604.433,227.27z M605.581,229.019l0.009,0.003l0.026-0.012l0.001-0.011l-0.009-0.001l-0.021,0.011L605.581,229.019z M605.631,228.754v0.014l0.014,0.008l0.013-0.008l-0.007-0.014H605.631z M605.633,229.087l-0.003,0.019l0.011,0.006l0.014-0.012l-0.007-0.012H605.633z M605.747,228.793l-0.005,0.012l0.01,0.009l0.016-0.01l-0.003-0.012L605.747,228.793z M605.694,229.07l0.026-0.01l0.003-0.015l-0.026-0.007l-0.018,0.012l-0.001,0.018L605.694,229.07z M605.725,228.992l0.01-0.018l-0.01-0.015l-0.023,0.006l-0.013,0.026l0.013,0.014L605.725,228.992z M605.793,228.913l0.014,0.011l0.02-0.003l0.007-0.014l-0.015-0.009l-0.015,0.003L605.793,228.913z M605.39,228.772l0.007-0.012l-0.012-0.007l-0.012,0.005v0.014H605.39z M604.246,229.66l0.014-0.007l-0.019-0.019h-0.021l0.003,0.017L604.246,229.66z M605.28,231.982l0.019,0.001l0.014-0.023l-0.006-0.03l-0.017-0.006l-0.016,0.028L605.28,231.982z M603.788,230.763l0.037-0.003l0.002-0.017l-0.038-0.012l-0.028,0.007l-0.002,0.016L603.788,230.763z M603.811,230.097l0.032,0.014l0.034,0l-0.006-0.014l-0.041-0.018l-0.027,0L603.811,230.097z M604.78,231.732l0.004-0.015l-0.027,0.002l-0.013,0.016l0.016,0.009L604.78,231.732z M605.759,231.854l0.009-0.011l-0.002-0.016l-0.013-0.014l-0.009,0.01l0.002,0.017L605.759,231.854z M605.245,232.035l0.009,0.011l0.016,0.001l0.017-0.011l-0.009-0.01l-0.017,0L605.245,232.035z M604.701,231.466l-0.003,0.019l0.011,0.006l0.014-0.012l-0.007-0.012H604.701z M604.673,230.031l0.014,0.006l0.008-0.006l-0.003-0.014h-0.014L604.673,230.031z M603.713,230.173l0.033,0.007l0.006-0.012l-0.028-0.022l-0.024,0.002l-0.01,0.013L603.713,230.173z M604.599,231.371l0.003,0.019l0.014,0.003l0.01-0.016v-0.03l-0.014-0.007L604.599,231.371z M605.319,231.844l0.026-0.005l-0.008-0.018l-0.026-0.003l-0.008,0.016L605.319,231.844z M603.414,230.53l0.031-0.028l-0.014-0.024l-0.035,0.014l-0.01,0.031L603.414,230.53z M604.207,230.348l0.021-0.002l-0.005-0.015l-0.023-0.012l-0.011,0.008L604.207,230.348z M603.547,230.637l0.015-0.007l-0.012-0.01l-0.026-0.002l-0.012,0.009L603.547,230.637z M604.636,231.715l0.024,0.014l0.013-0.008l-0.012-0.025l-0.021-0.006l-0.015,0.011L604.636,231.715z M603.746,231.065l0.026-0.01l0.003-0.015l-0.026-0.007l-0.018,0.012l-0.001,0.018L603.746,231.065z M603.505,230.484l0.008,0.016l0.016-0.004l0.015-0.019l-0.01-0.012l-0.019,0.003L603.505,230.484z M605.112,231.858l-0.013,0.014l0.01,0.014l0.023,0.007l0.008-0.013l-0.01-0.017L605.112,231.858z M604.443,231.592l-0.004,0.018l0.015,0.007l0.024-0.006v-0.015l-0.017-0.01L604.443,231.592z M603.771,230.681l-0.004,0.018l0.015,0.007l0.024-0.006v-0.015l-0.017-0.01L603.771,230.681z M604.356,230.112l0.014,0.015l0.012-0.003l-0.008-0.029l-0.019-0.018l-0.012,0.012L604.356,230.112z M605.016,231.76l-0.005,0.027l0.016,0.008l0.042-0.036l0.005-0.021l-0.018-0.007L605.016,231.76z M605.61,231.481l0.013-0.006l0.004-0.013l-0.008-0.01l-0.015,0.007l-0.003,0.011L605.61,231.481z M605.524,231.628v0.018l0.018,0.003l0.008-0.018l-0.011-0.01L605.524,231.628z M604.865,232.489l0.007,0.024l0.015-0.003l0.007-0.022l-0.015-0.011L604.865,232.489z M604.94,232.524l0.026-0.021l-0.005-0.012l-0.035,0.007l-0.014,0.019l0.003,0.016L604.94,232.524z M619.099,230.813h0.047l0.042-0.039l0.008-0.026l-0.05-0.023l-0.074,0.023l-0.008,0.044L619.099,230.813z M618.949,231.187l0.026-0.005l-0.005-0.024l-0.029-0.01l-0.016,0.018L618.949,231.187z M618.544,231.412l0.013,0.026l0.042-0.013l0.06-0.065l0.087-0.058l-0.008-0.018l-0.118,0.055L618.544,231.412z M617.015,237.528l0.018-0.013l-0.013-0.019l-0.024,0.003l-0.005,0.021L617.015,237.528z M616.851,237.639l0.03,0.002l0.046-0.023l0.014-0.021l-0.036-0.001l-0.038,0.015L616.851,237.639z M605.675,232.032l-0.003-0.065l-0.034-0.065l0.008-0.042l-0.029-0.034l-0.092,0.016l-0.016,0.034l-0.102,0.039l-0.024,0.031l0.029,0.102l0.063,0.06l0.137,0.003L605.675,232.032z M606.066,234.184l0.003,0.027l0.042,0.003l0.042-0.024v-0.021h-0.05L606.066,234.184z M606.174,235.396l0.063,0.029l0.021-0.013l-0.026-0.029l-0.042-0.013l-0.024,0.008L606.174,235.396z M606.135,235.234l0.026-0.013v-0.029l-0.029-0.013l-0.024,0.016l0.003,0.034L606.135,235.234z M607.601,235.168l0.053,0.024l0.021-0.011l-0.013-0.032l-0.042-0.003L607.601,235.168z M607.867,234.728l0.086-0.016l0.032-0.032l0.002-0.018h-0.049l-0.072,0.041l-0.016,0.019L607.867,234.728z M607.85,234.887l0.046-0.037l0.004-0.019l-0.014-0.007l-0.044,0.037l-0.005,0.023L607.85,234.887z M607.867,234.945l0.046-0.042l0.01-0.03l-0.012-0.011l-0.033,0.023l-0.03,0.053L607.867,234.945z M607.969,234.903l0.023-0.002l0.012-0.018l-0.007-0.016l-0.03,0.002l-0.01,0.023L607.969,234.903z M607.992,234.747l0.021-0.018l0.049-0.012l0.031-0.027l-0.01-0.018l-0.067,0.014l-0.042,0.058L607.992,234.747z M608.172,234.752l0.012-0.021l-0.004-0.016l-0.04,0.007l-0.009,0.014l0.012,0.019L608.172,234.752z M604.786,236.82l0.039,0.003l0.024-0.035l-0.029-0.043l-0.037-0.003l-0.013,0.043L604.786,236.82z M602.178,237.621l0.026,0.01l0.027-0.013l-0.001-0.029l-0.02-0.007l-0.033,0.024L602.178,237.621z M603.54,239.497l-0.014,0.021l0.015,0.023l0.021-0.013l0.002-0.019L603.54,239.497z M602.097,238.039l0.026,0.004l-0.001-0.02l-0.024-0.011l-0.013,0.012L602.097,238.039z M602.102,237.964l0.01-0.014l-0.015-0.003l-0.024,0.011l-0.006,0.014L602.102,237.964z M603.405,239.575l0.031-0.014l0.028-0.037l-0.001-0.015l-0.048,0.008l-0.027,0.027l0,0.024L603.405,239.575z M603.215,238.519l-0.015,0.011l0.007,0.015l0.022,0.011l0.01-0.012l-0.007-0.018L603.215,238.519z M606.107,241.004l0.049,0.016l0.088-0.028l0.102-0.081l-0.005-0.029l-0.065-0.005l-0.144,0.085L606.107,241.004z M605.928,240.698l0.086-0.022l0.053-0.047l-0.014-0.005l-0.137,0.054l-0.012,0.021H605.928z M606.165,240.633l0.016,0.002l0.019-0.009l0.002-0.022h-0.016l-0.019,0.014L606.165,240.633z M606.303,240.589l0.035-0.01l0.009-0.014l-0.019-0.005l-0.031,0.005l-0.016,0.012L606.303,240.589z M606.417,240.695l0.028,0.009l0.023-0.007l0.018-0.031l0.004-0.016l-0.06-0.002l-0.047,0.033l-0.002,0.019L606.417,240.695z M606.532,240.741l-0.033,0.009l-0.014,0.019l-0.002,0.033l-0.03,0.021l-0.009,0.036l0.019,0.014l0.095-0.052l0.031-0.041l-0.007-0.069l-0.021-0.002L606.532,240.741z M606.597,240.683l0.016,0.017l0.046-0.009l0.054-0.041l0.023-0.048l0.009-0.038l-0.012-0.005l-0.019,0.026l-0.065,0.052v0.024l-0.021,0.014l-0.019-0.005L606.597,240.683z M604.681,240.094l0.074-0.007l0.023,0.022l0.023,0.003l0.11-0.045l0.089-0.005l0.044-0.038l0.061-0.024l0.046-0.047l-0.005-0.012l-0.068,0.021L605.028,240L605,239.998l-0.019-0.031l-0.091-0.007l-0.163,0.021l-0.063,0.059l-0.009,0.038L604.681,240.094z M603.483,240.235l0.014,0.016l0.072-0.029l0.123-0.028l0.074-0.048l-0.019-0.024l-0.11,0.01l-0.081,0.038L603.483,240.235z M602.222,237.868l0.01,0.012l0.086-0.059l0.131-0.054l0.014-0.024l-0.025-0.016l-0.044,0.007l-0.032,0.033l-0.102,0.033L602.222,237.868z M606.233,239.774l0.049-0.062l-0.003-0.038l-0.039,0.007l-0.098,0.062v0.038L606.233,239.774z M602.927,238.776l0.131-0.016l0.063-0.044l0.129-0.041l0.039-0.062l-0.026-0.029h-0.116l-0.063-0.023l-0.034,0.008l-0.021,0.039l-0.089,0.039l-0.072,0.006l-0.042,0.026l-0.051,0.089l-0.003,0.041h0.034l0.05-0.034H602.927z M620.516,225.638l0.028-0.029l0.045-0.016l0.021,0.013l-0.05,0.052l-0.059,0.007l-0.013-0.019L620.516,225.638z M620.487,225.623l0.02-0.001l0.015-0.033l0.035-0.022l-0.006-0.021l-0.031,0.001l-0.021,0.033L620.487,225.623z M620.58,225.926l0.008-0.01h0.013l0.018-0.011l-0.006-0.017l-0.028-0.001l-0.015,0.008l-0.001,0.029L620.58,225.926z M620.454,226.314l0.019-0.007l-0.01-0.014h-0.029l-0.007,0.015L620.454,226.314z M620.669,225.506l0.008-0.005l0.008-0.027l-0.008-0.008l-0.007,0.006l-0.005,0.023L620.669,225.506z M620.859,226.692l0.007,0.024l0.028,0.003l0.003-0.024l-0.014-0.014L620.859,226.692z M620.505,225.687v0.014l0.014,0.008l0.013-0.008l-0.007-0.014H620.505z M620.557,225.798l0.007,0.018l0.011-0.001l0.003-0.018l-0.013-0.008L620.557,225.798z M620.594,225.874l0.014,0.005l0.008-0.005l-0.003-0.014H620.6L620.594,225.874z M620.561,225.721l-0.005,0.012l0.01,0.009l0.016-0.01l-0.004-0.012L620.561,225.721z M620.756,225.524l0.012-0.009l-0.014-0.01l-0.024,0.002l0.004,0.014L620.756,225.524z M620.514,225.777l0.006,0.014l0.013-0.001l0.017-0.014l-0.008-0.012l-0.018,0.003L620.514,225.777z M620.599,225.954l0.013-0.006l0.004-0.012l-0.008-0.01l-0.015,0.007l-0.003,0.011L620.599,225.954z M620.937,224.636l0.016,0.003l0.01-0.012l-0.01-0.012l-0.016,0.005V224.636z M620.982,224.626l0.016,0.003l0.01-0.012l-0.01-0.012l-0.016,0.005V224.626z M620.43,225.631l0.004-0.011l-0.01-0.006l-0.01,0.008l0.003,0.011L620.43,225.631z M620.901,224.738l0.025,0.021l0.038,0.003l0.007-0.028l-0.021-0.026l-0.053-0.011l-0.022,0.014l-0.001,0.025L620.901,224.738z M618.14,221.477l0.035,0.019l0.103-0.001l0.096-0.018l0.092,0.015l0.015,0.028l-0.026,0.052l0.004,0.062l0.021,0.03l0.021-0.003l0.032-0.077l0.007-0.062l0.031-0.051l-0.025-0.036l-0.07-0.022l-0.089,0.003l-0.068-0.029l-0.059,0.007l-0.109,0.054L618.14,221.477z M614.54,222.673l0.037-0.065l0.134-0.13l0.076-0.129l0.147-0.125l0.134-0.031l0.26-0.153l0.142-0.033l0.231-0.109l0.069-0.06l-0.005-0.065l-0.116-0.077l-0.147-0.006l-0.037-0.01l-0.029-0.047l-0.116-0.046l-0.07,0.008l-0.208-0.104l-0.066-0.003l-0.06-0.028l-0.016-0.07l-0.052-0.039l-0.003-0.036l0.021-0.044l-0.129-0.081l-0.055-0.002l-0.105-0.044l-0.063-0.006l-0.1-0.041l-0.147-0.013l-0.15-0.073l-0.073,0.011l-0.008,0.057l0.047,0.049l0.06,0.01l0.042,0.044l0.011,0.109l0.105,0.109l0.234,0.143l-0.016,0.023l-0.123,0.008l-0.195-0.047l0.021-0.018h0.111l0.01-0.034l-0.113-0.09l-0.092-0.029l-0.045,0.026l-0.015,0.083l-0.053,0.028l-0.16,0.032l-0.076-0.047l-0.034,0.008v0.046l-0.043,0.011l-0.081-0.034l-0.079,0.008l-0.016,0.033l0.045,0.086l-0.016,0.06l-0.044,0.02l0.002,0.026l0.021,0.016l-0.008,0.041l-0.044,0.037l-0.024,0.062l-0.002,0.059l-0.037,0.029l0.01,0.028l0.053,0.008l0.102,0.088l0.166,0.208l0.021,0.072l-0.082,0.127l0.011,0.055l0.052,0.018l0.037,0.054l0.008,0.055l0.034,0.054l-0.031,0.039l-0.2,0.021l-0.039,0.02v0.068l-0.027,0.015l-0.065-0.002l-0.2,0.148l-0.079,0.121l-0.031,0.019l-0.042-0.013l-0.129,0.064h-0.061l0.058-0.02l0.061-0.068l0.029-0.062l0.07-0.073l0.127-0.062l0.118-0.109l0.013-0.057l-0.058-0.046l-0.126,0.041l-0.039-0.01l-0.05,0.023l-0.053,0.008l0.074-0.075l0.065-0.008l0.042-0.031l0.014-0.052l0.034-0.047l0.21-0.072l0.026-0.031l-0.023-0.042l0.007-0.036l0.029-0.026l0.003-0.052l-0.202-0.189l-0.003-0.057l-0.055-0.044l-0.068-0.008l-0.05-0.036l-0.014-0.044l0.056-0.086l-0.024-0.145l-0.074-0.158h-0.086l-0.066,0.054l-0.042,0.011l-0.021,0.018l-0.005,0.036l-0.032,0.026l-0.08-0.002l-0.03-0.027l-0.072,0.014l-0.032,0.064l-0.126,0.114l-0.003,0.039l0.019,0.03l0.044,0.01l0.024,0.054l0.052,0.008l0.034-0.036l0.026,0.014v0.037l0.034,0.044l0.061,0.036l0.023-0.008l-0.007-0.062l-0.039-0.058l0.007-0.055l-0.008-0.062l0.038-0.048l0.026,0.017l-0.003,0.071l0.031,0.065l-0.015,0.009l-0.023-0.016l-0.018,0.011l0.016,0.041l0.058,0.066l0.039,0.021l0.05,0.089l-0.005,0.08l-0.056,0.097l-0.025,0.102l-0.024,0.005l-0.028-0.043l0.044-0.144l-0.011-0.072l-0.082-0.09l-0.195-0.083l-0.068,0.009l-0.014,0.022l-0.028-0.002l-0.045-0.084l0.007-0.063l0.078-0.121l0.007-0.057l0.034-0.055l-0.012-0.017l-0.042,0.023l-0.034,0.001l-0.026,0.038l-0.023,0.066l-0.047,0.017l-0.053-0.017l-0.079,0.017l-0.031,0.121l0.042,0.064l0.054,0.019l0.033-0.019l0.028,0.022l0.023,0.069l-0.03,0.075l-0.049,0.017v0.045l-0.047,0.05l0.007,0.043l-0.017,0.005l-0.044-0.044l-0.03-0.002l-0.044,0.019l-0.015-0.019l0.022-0.033l0.093-0.038l0.033-0.045l-0.014-0.026l-0.068,0.003l-0.03,0.023l-0.044,0.014l-0.002-0.014l0.047-0.027l0.047-0.039l-0.009-0.013l-0.051,0.017l-0.016-0.023l0.001-0.046l-0.024-0.019l-0.108,0.05l-0.068-0.011l-0.032-0.02l-0.053,0.01l-0.015-0.009l0.121-0.06l0.015-0.045l-0.026-0.036l-0.061-0.002l-0.056-0.047l-0.049,0.007l-0.041,0.035l-0.063,0.024l-0.017,0.061v0.088l-0.042,0.039l-0.07,0.007l-0.053,0.038l-0.084,0.016h-0.096l-0.018,0.027l-0.014,0.07l-0.042,0.013l-0.007,0.053l-0.035,0.029l-0.032,0.003l-0.02-0.019l0.026-0.039l-0.007-0.026l0.047-0.058l0.039-0.02l-0.001-0.029l-0.03-0.01l-0.033,0.004l-0.015,0.019l0.002,0.042l-0.026,0.025l-0.036,0.002l-0.039-0.012l-0.114,0.001l-0.142-0.015l-0.13-0.029l-0.036,0.021l-0.001,0.022l0.011,0.023l-0.017,0.097l-0.07,0.07v0.081l0.067,0.051l-0.004,0.01h-0.025l-0.059-0.024l-0.015,0.013l0.042,0.102l-0.002,0.031l-0.016,0.054l0.018,0.03l0.035,0.01l0.079,0.008l-0.037,0.01l-0.069-0.006l-0.035-0.013l-0.01,0.013l0.016,0.086l-0.014,0.009l-0.035-0.023l-0.015-0.047l0.001-0.049l0.049-0.046l0.011-0.049l-0.022-0.011l-0.073,0.012l-0.012,0.022l0.018,0.05l-0.002,0.03l-0.028,0.026l-0.072,0.022h-0.048l-0.043-0.022l-0.026,0.028l0.02,0.044l-0.002,0.022l-0.028,0.038l-0.002,0.051l-0.018,0.001l-0.042-0.016l-0.093,0.012l-0.011,0.033l0.043,0.047l0.004,0.035l-0.01,0.019l0.129,0.116l0.092,0.041l0.06-0.001v0.012l-0.049,0.034l-0.047-0.005l-0.084,0.026l-0.099,0.01l-0.003-0.009l0.014-0.016l-0.003-0.018l-0.026-0.007l-0.039,0.021l-0.009,0.03l0.042,0.021l-0.001,0.022l-0.038,0.038l0.001,0.026l0.037,0.049l0.145,0.049l0.043,0.033l0.034,0.036l0.03-0.008l0.007-0.065l-0.012-0.026l0.009-0.007l0.04,0.014l0.033-0.003l0.043-0.018l0.02,0.006l0.004,0.057l0.032,0.02l0.07,0.005l0.004,0.011l-0.035,0.02l-0.011,0.027l-0.021,0.003l-0.061-0.032l-0.044,0.002l-0.03,0.02l-0.045,0.003l-0.019-0.01l-0.016,0.006l-0.001,0.111l0.015,0.022l0.027,0.006l0.029-0.014l0.056,0.014l0.007,0.029l0.044,0.02l0.091-0.013l0.112-0.072l0.058-0.023l0.038-0.046l-0.014,0.044l-0.029,0.028l-0.041,0.011l-0.118,0.076l-0.074,0.02l-0.011,0.013l-0.051-0.003l-0.062-0.004l0.001-0.024l-0.022-0.008l-0.028,0.012l-0.062-0.027v-0.03l-0.021-0.006l-0.022,0.022l-0.022,0.003l-0.024-0.015l-0.029,0.005l-0.013,0.017l-0.07,0.034l-0.04-0.001l-0.056-0.039l-0.073,0.006l-0.039,0.049l0.004,0.025l-0.018,0.011l-0.083-0.027l-0.077,0.012l-0.034,0.029l0.009,0.014l0.081,0.011l0.048-0.007l0.013,0.011l-0.017,0.037l0.025,0.019l0.04-0.002l0.048,0.024l0.002,0.036l0.019,0.011l0.044-0.022l0.046,0.006l0.076,0.06l0.006,0.032l0.054,0.047l0.039-0.01l0.03,0.008l-0.007,0.02l-0.053,0.035l-0.032-0.007l-0.063-0.042l-0.013-0.04l-0.051-0.048l-0.049-0.002l-0.028,0.018l-0.038-0.008l-0.061,0.015l-0.036-0.018l-0.067-0.001l-0.013,0.014l0.022,0.03l0.064,0.025l0.019,0.02l0.036,0.007l0.039-0.014l0.084,0.02l0.029,0.027l0.015,0.026l0.058,0.006l0.012,0.008l-0.037,0.011l-0.06-0.007l-0.084-0.029h-0.046l-0.01-0.019l-0.029-0.008l-0.021,0.014l-0.046-0.005l-0.098-0.05l-0.113-0.02l-0.18,0.04l-0.078,0.004l-0.021,0.01l-0.007,0.021l-0.035,0.016h-0.031l-0.053,0.039l-0.008,0.029l-0.02,0.018l-0.057,0.006l-0.06,0.04l-0.032,0.05l0.005,0.048l0.02,0.03l0.026-0.005l0.027,0.003l-0.029,0.011l-0.014,0.012h-0.025l-0.016-0.018l-0.035,0.006l-0.049,0.031l-0.037,0.002l-0.013-0.017l-0.031,0.002l-0.023,0.027l0.01,0.04l0.03,0.025l0.027,0.004l-0.002,0.065l-0.03,0.038l0.005,0.017l0.098,0.048l0.149,0.037l0.062,0.029l0.046,0.007l0.047,0.041l-0.007,0.026l0.006,0.036l0.017,0.01l0.053-0.011l0.044,0.007l0.055-0.014l0.008-0.012l-0.003-0.028l-0.021-0.052l0.01-0.01l0.028,0.026l0.004,0.015l-0.008,0.01l0.005,0.022l0.049,0.044l0.072,0.018l0.029-0.004l0.026,0.015l-0.005,0.028l0.015,0.002l0.028-0.023l0.06-0.024l0.078-0.004l0.144-0.066h0.04l0.016,0.019l0.004,0.094l0.019,0.029l0.056-0.002l0.067-0.091l0.012-0.054l0.051-0.074l0.015,0.005l-0.031,0.076l-0.004,0.036l-0.015,0.035l0.014,0.01l0.047-0.026l0.04-0.055l0.065-0.01l0.021,0.015l0.028,0.085l-0.07,0.071l-0.14,0.048l-0.037,0.005l-0.009,0.016l0.002,0.029l-0.053,0.052l0.013,0.014l0.04-0.002l0.033-0.029v-0.033l0.034-0.024l0.126-0.023l0.044-0.038l0.038-0.039l0.077-0.054l0.026-0.059l0.042-0.031l0.13-0.038l0.039-0.028l0.031,0.006l0.025,0.039l-0.09,0.133l0.009,0.042l0.019,0.007l0.086-0.028l0.212-0.121l0.133-0.052l0.06,0.023l0.066-0.021l0.034-0.041l0.024,0.007l0.007,0.027l-0.026,0.04l0.009,0.047l0.043,0.013l0.002,0.026l-0.051,0.028l-0.028,0.036l-0.035-0.003l-0.033-0.095h-0.031l-0.011,0.048l0.004,0.092l-0.142,0.11l-0.063,0.009l-0.006,0.028l0.03,0.086l-0.014,0.026l-0.172,0.09l-0.005,0.045l0.046,0.053l0.075,0.016h0.096l0.02,0.027l-0.025,0.006l-0.038-0.011l-0.111,0.014l-0.042-0.015l-0.024,0.019l-0.006,0.039l-0.099,0.063l-0.121,0.034l-0.153,0.033l-0.091,0.009l-0.079,0.041l-0.078,0.009l-0.044-0.021l-0.009-0.021l0.018-0.022l-0.027-0.028l-0.052,0.005l-0.039,0.076l0.016,0.062l-0.011,0.039l-0.043,0.022l-0.053,0.048l-0.007,0.044l-0.165,0.098l-0.052-0.01l0.009-0.018l0.061-0.013l0.103-0.064l0.014-0.03l-0.017-0.008l-0.042,0.01l-0.016,0.041l-0.065,0.037l-0.065,0.001l-0.024,0.023l-0.002,0.05l-0.077,0.045l-0.068,0.017l-0.023,0.016l-0.007,0.038l-0.023,0.01l-0.07-0.005l-0.094,0.035l-0.013,0.036l0.016,0.05l0.054,0.022l0.021,0.04l-0.022,0.04l0.01,0.022l0.046,0.011l0.008-0.019l-0.021-0.028l0.023-0.021l0.146-0.024l0.052-0.024l0.107,0.005l0.177,0.083l0.003,0.038l-0.052,0.021l-0.102-0.035l-0.042-0.062l-0.028,0.004l-0.028,0.1l0.021,0.041l0.147,0.014l0.144,0.059l-0.014,0.038l-0.105,0.024l-0.214,0.003l-0.049-0.024l-0.056,0.011l-0.067,0.11l0.014,0.028l0.07-0.014l0.106,0.08l0.024,0.051l0.172,0.042l0.024,0.021l-0.196,0.03l-0.063-0.013l-0.063-0.087l-0.133-0.096l-0.039-0.087l-0.108-0.034l-0.123,0.045h-0.084l-0.07-0.052l-0.088,0.003l-0.084,0.073l-0.108,0.024l-0.249-0.1l-0.035-0.052l-0.105-0.052l-0.088,0.004l-0.101,0.017l-0.161-0.031l-0.095,0.027l-0.024,0.123l-0.157,0.254l-0.113,0.057l0.01,0.14l-0.05,0.205l-0.016-0.057l0.016-0.068l-0.037-0.108l-0.102-0.096l-0.134-0.021l-0.008-0.054l0.084-0.086l-0.023-0.044l-0.05-0.031l0.01-0.148l-0.024-0.021l-0.097,0.057l-0.029-0.015l0.016-0.088l-0.05-0.075l-0.186-0.037l-0.113-0.065l-0.042,0.019l-0.079,0.134h-0.032l-0.052-0.054l-0.247-0.018l-0.061-0.031h-0.078l-0.048,0.031l-0.063-0.003l-0.039-0.033l-0.084-0.021l-0.166-0.003l-0.026-0.021h-0.045l-0.118,0.055l-0.2-0.026l-0.173-0.123l-0.179-0.026l-0.105,0.068l-0.079,0.028l-0.016,0.055l0.027,0.052l0.058,0.01l0.06,0.039l0.079-0.008l0.055,0.016l-0.021,0.013l-0.05-0.003l-0.016,0.024l0.048,0.062l0.131,0.058l0.053,0.046l-0.071-0.015l-0.142-0.07l-0.042-0.06l-0.071,0.002l-0.113,0.05l-0.055,0.135l0.002,0.052l-0.013,0.042l0.026,0.015l-0.01,0.037l-0.137,0.028l-0.126-0.008l-0.076-0.033l0.021-0.021l0.165-0.021l0.079-0.078l0.04-0.122l-0.029-0.008l-0.066,0.018l-0.158-0.028l-0.12-0.159l-0.048-0.026l-0.023,0.01l-0.003,0.039l-0.082,0.065l-0.076,0.008l-0.092,0.057l-0.018,0.099l0.031,0.063l-0.013,0.02l-0.063-0.033l-0.05-0.003l0.008,0.02l0.107,0.049l0.044,0.003l0.024,0.023l-0.031,0.072l-0.067,0.018l-0.036,0.045l0.024,0.074l-0.005,0.045l-0.072,0.144l-0.035,0.026l-0.033,0.068l0.012,0.066l-0.005,0.031l-0.025,0.017v0.037l0.046,0.04h0.035l0.075,0.033l0.063-0.005l0.042-0.042l-0.009-0.061l-0.033-0.022l-0.049-0.007l-0.012-0.035l0.017-0.024l0.053,0.005l0.007-0.019l-0.028-0.043l0.016-0.026l0.04-0.018l-0.002-0.021l-0.093-0.033l0.002-0.029l0.072-0.038h0.086l0.022-0.03l-0.028-0.069l0.013-0.014h0.049l0.04,0.016l0.039-0.035l0.007-0.047l-0.023-0.054l0.028-0.027l0.033,0.001l0.11,0.089l0.109,0.035l0.007,0.026l-0.016,0.052l-0.05,0.026l0.003,0.029l0.037,0.061l0.037,0.014l0.001,0.019l-0.028,0.007l-0.052-0.021l-0.023,0.021l0.063,0.107l0.032,0.009l0.031-0.03l0.032,0.014l0.043,0.052l-0.022,0.007l-0.048-0.015l-0.038,0.013l-0.023,0.032l-0.049,0.019l-0.13,0.019l-0.007,0.019l0.055,0.036l0.038,0.106l-0.01,0.038l0.017,0.014l0.049-0.005l0.048,0.014l0.035-0.005l0.028-0.025l0.071-0.012l0.023-0.036l-0.024-0.082l0.017-0.019l0.067-0.003l0.044-0.052v-0.03l0.024-0.012l0.116,0.023l0.001,0.019l-0.098,0.014l-0.007,0.024l0.046,0.034l-0.011,0.025l-0.063,0.026l-0.022,0.05l0.028,0.036l-0.014,0.046l-0.021,0.001l-0.055-0.052l-0.015,0.007v0.045l-0.05,0.07l-0.007,0.066l0.092,0.114l0.08,0.03l0.061,0.012l0.049,0.038l-0.008,0.014l-0.042-0.007l-0.011,0.022l0.002,0.044l-0.018,0.055l0.016,0.026l0.023,0.002l0.028-0.021l0.061,0.004l0.028-0.016h0.021l0.034,0.12l-0.007,0.117l-0.018,0.047l-0.021-0.008l-0.014-0.045l0.028-0.04v-0.068l-0.023-0.014l-0.042,0.005l-0.047-0.022l-0.025-0.028l-0.12-0.003l-0.137,0.038l-0.025,0.048l-0.005,0.042l0.025,0.024l-0.02,0.049l-0.042,0.021l-0.007,0.031l0.011,0.092l-0.049,0.092l0.026,0.022l0.105,0.024l0.147-0.003l0.179-0.066l0.116-0.127l0.031-0.001l0.096,0.053l0.023-0.001l0.007-0.031l0.205-0.006l0.114,0.012l0.03,0.021l0.156,0.016l0.051-0.017l0.064,0.027l0.007,0.038l-0.026,0.033l0.016,0.085l0.03,0.032l-0.021,0.007l-0.072-0.014l-0.07,0.033l-0.018,0.046l-0.003,0.111l0.1,0.052l0.064,0.002l0.03-0.014l0.063,0.03l-0.014,0.017l-0.058,0.011l-0.066,0.069l-0.109,0.014l-0.028-0.025l-0.059-0.001l-0.018,0.022l-0.047-0.005l-0.026-0.026l-0.099,0.01l-0.045,0.037l-0.221,0.018l-0.05-0.031l-0.115,0.013l-0.116,0.055l-0.239,0.02l-0.024,0.042l0.032,0.068l-0.003,0.072l-0.065,0.094l-0.006,0.107l0.027,0.049l-0.008,0.099l0.036,0.047l0.074,0.018l0.05,0.078l0.292,0.138l0.097,0.021l0.242-0.018l0.102-0.053l-0.003,0.019l-0.029,0.023l-0.076,0.044l-0.241,0.019l-0.127-0.024l-0.189-0.091l-0.168,0.018l-0.055,0.068l-0.192,0.003l-0.123-0.042l-0.087,0.005l-0.089-0.013l-0.016,0.031l0.055,0.086l0.076,0.052l0.137,0.024l0.005,0.023l-0.071,0.026l0.003,0.031l0.073-0.008l0.021,0.021l-0.026,0.018l-0.066,0.019l-0.063-0.016l-0.034-0.078l-0.113-0.036l-0.276-0.024l-0.005,0.026l0.1,0.06l-0.003,0.023l-0.113-0.007l-0.105-0.032l-0.123,0.034l-0.013,0.047l0.052,0.021l0.097-0.005l0.045,0.041l0.039,0.12l0.14,0.088l0.189,0.058l0.087,0.075l-0.053-0.005l-0.137-0.073l-0.071-0.003l-0.015,0.037l0.063,0.052l0.092,0.021l0.002,0.028l-0.042,0.037l-0.01,0.049l-0.069,0.005l-0.128-0.065l-0.071,0.011l-0.042,0.067l-0.1,0.099l0.013,0.024l0.1-0.008l0.06,0.036v0.034h0.034l0.063-0.055l0.132-0.036l0.089,0.036l0.032,0.039v0.068l0.073,0.042l0.147-0.019l0.056,0.045l0.029-0.003l0.013-0.036l0.113-0.032l0.015-0.044l-0.018-0.076l0.021-0.06l0.074-0.011l0.05,0.06l0.013,0.081l0.042,0.016l0.076-0.034l0.076-0.092l0.047-0.013l0.013,0.008l-0.023,0.034l0.01,0.032l0.048-0.016l0.021,0.008l-0.021,0.076l-0.084,0.049l-0.161,0.045l-0.076,0.003l-0.018,0.047l0.015,0.049l-0.06,0.118l0.011,0.039l0.084,0.04l0.068-0.029l0.068,0.008l0.229,0.118l0.029-0.008l0.008-0.032l0.057-0.023h0.071l0.04-0.05l0.016-0.06l0.073-0.133l0.119-0.077l0.035-0.041l0.014-0.042l0.053-0.018l0.024,0.06l-0.014,0.122l-0.042,0.049l-0.06,0.009l0.005,0.026l0.092,0.037l0.147-0.021l0.019-0.026l-0.04-0.037l0.006-0.089l-0.024-0.06l0.029-0.024l0.097-0.015l0.021,0.018l-0.039,0.031l-0.048,0.014l-0.005,0.039l0.089,0.099l0.003,0.047l-0.095,0.034l-0.068,0.011l-0.024,0.034l0.016,0.039l0.029,0.019l0.032,0.136l-0.019,0.041l-0.063,0.04l-0.029,0.097l0.069,0.065l0.076-0.016l0.055-0.065l-0.011-0.1l0.04-0.049l0.079-0.026l0.013,0.018l-0.061,0.063l0.003,0.068l0.039,0.091l0.079,0.032l0.103,0.008l0.189-0.044l0.221-0.006l0.118-0.026l0.168,0.003l0.342-0.04l0.233,0.003l0.316-0.069l0.06-0.052l0.045-0.005l0.087,0.015l0.07-0.005l0.037,0.021l0.05-0.005l0.042-0.032l0.071-0.008l0.026,0.024l-0.015,0.042l-0.121,0.024l-0.055,0.095l0.002,0.086l0.105,0.056l0.134-0.019l0.074-0.047l0.026,0.002l-0.034,0.053l-0.095,0.055l-0.057,0.095l-0.003,0.058l0.037,0.047l0.021,0.108l-0.029-0.01l-0.045-0.048l-0.107-0.044l0.015-0.027l0.04-0.01l-0.006-0.024l-0.039-0.003l-0.079,0.029l-0.086-0.005l-0.071,0.024l0.018,0.023l0.158,0.037v0.029l-0.066,0.021l-0.158-0.058l-0.092-0.002l-0.06-0.019h-0.055l-0.058,0.048l0.031,0.018l0.116,0.003l0.05,0.05l0.003,0.044l-0.061-0.044l-0.084-0.013l-0.084,0.073l-0.066,0.011l-0.068-0.024l-0.213-0.116l-0.113-0.031l-0.089,0.044l-0.037,0.072l0.011,0.086l-0.092,0.1l-0.153,0.071l-0.029,0.066v0.035l-0.021,0.048l-0.052,0.042l-0.061,0.088l-0.005,0.076l-0.097,0.122l-0.019,0.085l-0.068,0.069l-0.063,0.032l-0.018,0.066l0.034,0.014l0.118-0.019l0.145,0.008l0.11-0.04l0.047,0.019l-0.015,0.087l-0.121,0.109l-0.145,0.069l-0.05,0.079l0.024,0.03l-0.008,0.045l-0.042,0.018l-0.003,0.032l0.05,0.029l-0.016,0.048l-0.049-0.005l-0.021,0.021v0.042l-0.037,0.048l-0.09,0.008l-0.01,0.032l0.042,0.111l-0.016,0.037l-0.042,0.019l-0.01,0.018l0.031,0.04l-0.037,0.072l-0.089-0.003l-0.005,0.032l-0.029,0.003l-0.05-0.053l-0.176,0.007l-0.058,0.069l-0.047,0.006l-0.013,0.037l0.008,0.058l-0.082,0.072l-0.073,0.106l-0.205,0.148l-0.292,0.142l-0.039,0.072l-0.226,0.079l-0.019,0.037l-0.042,0.019l-0.057-0.003l-0.119,0.09l0.019,0.032l0.186-0.008l0.095-0.066l0.089-0.005l0.103,0.029l0.22-0.069l0.006-0.029l0.034-0.011l0.092,0.032l0.031-0.026v-0.071l0.039-0.045l0.347-0.026l0.071-0.056l0.103-0.04l0.008-0.032l-0.058-0.055l-0.074-0.032l0.008-0.029l0.129,0.005l0.023,0.035l0.011,0.084l0.2,0.114l0.142,0.035l0.081,0.04l0.097,0.002l0.179-0.061l0.05-0.045l0.163-0.063l0.073-0.008l0.003,0.026l-0.208,0.13l-0.026,0.056l0.037,0.042l0.134,0.005l0.113-0.076l0.013-0.061l0.047-0.027l0.26-0.005l0.071-0.013l0.182-0.17l0.092-0.061l0.068-0.149l-0.008-0.055l0.026-0.04l0.053-0.024l0.024-0.04l0.007-0.09l0.053-0.069l0.076-0.024l0.097-0.002l0.09-0.067l0.021,0.008l-0.011,0.043l-0.068,0.047l-0.042,0.011l0.002,0.021l0.061,0.011l0.042,0.071l-0.039,0.091l-0.016,0.116l0.042,0.056l0.094,0.008l0.145-0.058l0.223,0.031l0.118,0.048l0.221,0.011l0.095,0.021l0.023,0.026l0.003,0.049l-0.03-0.038l-0.091-0.026l-0.234,0.042l-0.134-0.042l-0.176,0.021l-0.081,0.04l-0.113,0.021l-0.063-0.016l-0.132,0.085l-0.023,0.09l-0.05,0.021l-0.134-0.021l-0.05-0.061l-0.029,0.003l-0.039,0.071l-0.111,0.052l-0.098-0.014l-0.249,0.067l-0.322,0.135l-0.271,0.015l-0.021-0.027l0.018-0.053l-0.032-0.01l-0.139,0.047l-0.105-0.016l-0.084,0.019l-0.063,0.093l-0.047-0.003l-0.05-0.04l-0.084-0.01l-0.056,0.024l-0.063-0.003l-0.134-0.084l-0.123,0.002l-0.152,0.081l-0.04,0.085l0.013,0.043l-0.008,0.046l-0.036,0.051l0.01,0.102l-0.045,0.083l-0.152,0.059l-0.103,0.083l-0.176,0.064l-0.163,0.046l-0.231,0.005l-0.09,0.043l-0.008,0.064l0.072,0.057l0.31,0.059l0.021,0.062l-0.027,0.211l-0.042,0.078l-0.042,0.048l0.005,0.027l0.087,0.008l0.003,0.024l-0.069,0.03l-0.071,0.053l0.008,0.022l0.089-0.027l0.213,0.038l0.066-0.008l0.102,0.048l-0.002,0.029l-0.1,0.024l-0.113,0.041h-0.102l-0.006-0.022l0.042-0.04l-0.008-0.019l-0.047,0.014l-0.05,0.075l-0.073,0.048l-0.132,0.019l-0.063-0.017l-0.136-0.008l-0.169-0.101l-0.076-0.091l0.029-0.126l0.045-0.049l-0.024-0.024l-0.06,0.022l-0.084-0.011l-0.011,0.021l0.05,0.022l0.016,0.083l-0.042,0.075l-0.174,0.115l-0.16,0.019l-0.137,0.059l-0.007-0.024l0.102-0.091l-0.003-0.035l-0.034-0.014l-0.008-0.034l0.024-0.046l-0.021-0.046l-0.074-0.005l-0.094,0.038l-0.013,0.029l-0.029,0.016l-0.061-0.011l-0.105,0.033l-0.017,0.034l-0.079,0.018l-0.058,0.073l-0.094,0.034l-0.111,0.006l-0.065,0.061l0.015,0.033l0.05-0.003l0.005,0.024l-0.063,0.059l-0.013,0.046l0.042,0.042l-0.015,0.024l-0.113,0.006l-0.04-0.03l0.019-0.099l-0.019-0.019l-0.136,0.07l-0.071,0.054l0.002,0.035l0.053,0.002l0.016,0.024l-0.066,0.049l-0.013,0.144l0.047,0.143l0.066,0.028l0.184-0.039l0.136-0.002l0.019-0.021l-0.077-0.039l-0.013-0.031l0.032-0.036l0.102,0.036l0.048,0.044l0.107,0.011l0.092-0.024l0.003-0.023l-0.118-0.029l-0.016-0.018l0.066-0.023l0.057,0.01l0.084,0.078h0.074l0.034-0.021h0.037l0.042,0.05l0.066,0.005l0.071-0.034h0.047l0.016,0.023h0.06l0.063-0.038l0.1-0.008l0.105-0.052l0.205-0.036l0.068,0.02l0.066,0.104l0.095,0.041l0.015-0.023l-0.031-0.031l-0.032-0.067l-0.052-0.042l0.018-0.023l0.124-0.013l0.249-0.044l0.132,0.013l0.118-0.026l0.021,0.041l-0.034,0.029l-0.005,0.028l0.031,0.034l-0.01,0.026l-0.053-0.01l-0.213,0.075l-0.084,0.002l-0.034-0.08l-0.021,0.005l0.005,0.055l-0.058,0.101l-0.181,0.194l-0.024-0.002l0.011-0.06l-0.016-0.057l-0.021,0.002v0.081l-0.023,0.057l-0.124,0.054l-0.147,0.008l-0.15,0.047l-0.123,0.002l-0.25,0.107l-0.042,0.064l-0.039,0.013l-0.077-0.018l-0.071,0.036l-0.013,0.081l-0.039,0.026l-0.053-0.008l-0.105,0.047l-0.008,0.033l0.119,0.008l0.081,0.026l0.145-0.052l0.039-0.026l0.074-0.023l0.026,0.013l-0.092,0.052l-0.068,0.013l-0.148,0.075l-0.007,0.031l0.057,0.034l-0.008,0.033l-0.073,0.008l-0.021,0.044l-0.171,0.078h-0.076l-0.113,0.015l-0.029,0.052l0.011,0.122l0.049,0.023l0.116-0.015l0.039,0.028l-0.005,0.096l-0.05,0.133l0.032,0.038l0.199-0.077l0.058-0.042l0.006-0.083l0.094-0.075l0.121-0.013l0.1,0.06l0.031,0.083l-0.023,0.121l-0.129,0.039l-0.005,0.026l0.102,0.021l0.142,0.057l0.087-0.005l0.026,0.021l-0.055,0.064l0.026,0.019l0.124-0.068l0.107-0.021l0.098-0.064l0.123-0.003l0.105-0.083l0.163-0.065l0.089-0.01l0.027-0.031l-0.027-0.052l0.016-0.065l0.024-0.005v0.062l0.023,0.036l0.074,0.003l0.037,0.013l-0.037,0.062l0.026,0.013l0.027-0.039l0.057-0.026l0.09-0.085l0.047,0.002l0.005,0.029l0.027,0.005l0.076-0.08l0.118-0.055l0.171-0.044l0.165-0.059l0.145-0.005l0.113-0.024l0.079-0.039l0.023,0.008l-0.034,0.036l-0.163,0.052l-0.131,0.083l-0.268,0.039l-0.176,0.111l-0.069,0.083l-0.135,0.048l0.003,0.045l0.067,0.003l0.052,0.052l-0.024,0.021l-0.123-0.024l-0.052-0.038l-0.039,0.01v0.083l-0.087,0.069l-0.039-0.01l0.032-0.066l-0.025-0.021l-0.151,0.094l-0.203,0.051l-0.077,0.056l0.007,0.027l0.077,0.014l0.074-0.014l0.031,0.014l-0.084,0.118l-0.105,0.055l-0.172,0.017l-0.084-0.014l-0.087,0.025l-0.004,0.045l0.119,0.062l0.007,0.079l-0.026,0.039l-0.065-0.001l-0.154,0.052l-0.088-0.028l-0.013,0.028l0.038,0.031v0.038l-0.049,0.052l0.007,0.024l0.091-0.062l0.259-0.024l0.084,0.041l0.113-0.027l0.143-0.076l0.084,0.003l0.06-0.024l0.007-0.059l0.059-0.086l0.088-0.028l0.221,0.007l0.136-0.031l0.112-0.007l0.127-0.059l-0.004-0.065l0.028-0.007l0.049,0.052l0.165,0.02l0.189-0.062l0.224-0.142l0.004-0.096l0.031-0.056h0.046l0.028,0.076l0.133,0.073l0.08-0.035l0.053,0.021l-0.003,0.131l-0.022,0.049l-0.063,0.003l-0.119,0.076l-0.325,0.121l-0.277,0.083l-0.365,0.176l-0.098,0.094l-0.178,0.093l-0.013,0.033l0.135-0.014l0.06-0.031l0.077-0.012l0.051-0.029l0.103-0.035l0.117-0.035l0.032-0.024l0.084-0.029l0.053,0.002l0.05-0.032l0.014-0.039l0.027-0.005l0.029,0.012l0.055-0.016l0.017-0.022l0.093-0.028l0.07,0.002l0.039-0.019l0.042,0.014l-0.007,0.022l-0.051,0.016l-0.037-0.004l-0.047,0.021l-0.039,0.048l-0.093,0.038l-0.036,0.04l-0.084,0.04l-0.079,0.096l-0.109,0.071l-0.128,0.011l-0.108,0.041l-0.081,0.074l-0.193,0.09l-0.005,0.024l0.065,0.011l0.017,0.021l-0.029,0.065l0.026,0.049l0.061,0.003l0.044-0.062l0.033-0.024l0.032,0.02l-0.011,0.052l0.021,0.012l0.127-0.064l0.073-0.027v-0.014l-0.072,0.01l-0.052,0.024l0.028-0.032l0.084-0.021l0.03-0.028l0.001-0.033l0.039-0.055l0.121-0.029l0.01-0.031l0.025-0.011l0.047,0.016l0.025,0.052l0.07,0.039l0.072-0.01l0.012-0.015l-0.021-0.019l0.01-0.016l0.088,0.002l0.084-0.031l0.026-0.075l0.035-0.001l0.009,0.039l0.016,0.014l0.101-0.028l0.132-0.017l0.061-0.027l0.023-0.044l-0.046-0.064l0.007-0.013l0.039,0.015l0.017,0.026l0.021,0.005l0.025-0.02l0.019,0.003l-0.005,0.033l0.035,0.01l0.037-0.017l0.015,0.014l-0.04,0.079l-0.07,0.042l-0.019,0.033l0.014,0.013l0.028-0.02l0.017,0.001l-0.005,0.042l0.023,0.017l0.105-0.055l0.032-0.035l0.005-0.038l0.04-0.022l0.06-0.004l0.052-0.01l0.014,0.01l-0.105,0.12l0.007,0.058l-0.023,0.026h-0.047l-0.051,0.054l0.011,0.031l0.149,0.005l0.152-0.09l0.033-0.04l0.067-0.013l0.026,0.012l-0.019,0.046l0.021,0.009l0.093-0.035l0.024,0.011l-0.008,0.029l0.028,0.016l0.059-0.033l-0.003-0.036l0.029-0.05l0.056-0.013l0.021-0.019l-0.003-0.038l0.049-0.072l0.014-0.009l0.007,0.035l-0.024,0.043l0.019,0.017l0.115-0.04l0.083-0.046l0.012-0.03l-0.051-0.079l-0.047-0.022l0.012-0.016l0.053,0.005l0.078,0.073l0.088,0.014l0.051-0.019l0.094-0.007l0.085-0.05l0.068-0.013l0.144,0.071l0.005,0.073l0.016,0.021l0.026-0.016l0.012-0.054l0.021-0.01l0.054,0.024l0.044,0.002l0.055-0.055l-0.002-0.049l0.019-0.031l0.054-0.027l0.023-0.059l-0.009-0.024l-0.038-0.004l-0.047-0.029l0.013-0.009l0.058,0.021h0.072l0.046,0.019l0.128-0.001l0.11,0.038l0.075-0.005l0.019,0.016l-0.01,0.043l0.014,0.018l0.03-0.018h0.049l0.047,0.021h0.037l0.03-0.05l-0.007-0.03l0.005-0.052l0.028-0.022l0.016-0.039l-0.025-0.031l0.002-0.028l0.037-0.05l-0.005-0.024l-0.104,0.004l-0.072-0.009l-0.077-0.027l0.005-0.012l0.09-0.007l0.045,0.025l0.035,0.001l0.028-0.026l0.102-0.002l0.053,0.045l0.119,0.008l0.152-0.035l0.072,0.019l0.019,0.027l-0.009,0.029l0.007,0.021l0.037,0.016l0.023,0.058l0.042,0.01l0.009-0.016l-0.027-0.021l-0.001-0.022l0.014-0.023v-0.034l-0.046-0.039l0.002-0.036l0.054-0.057l0.088-0.169l-0.026-0.019l-0.028,0.014l-0.048,0.004l-0.075-0.036l-0.056,0.021l0.049-0.041l0.096,0.025l0.035-0.002l0.014-0.03l0.037-0.009l0.053,0.066l0.015,0.066l0.06,0.02l0.06-0.048l0.001-0.038l0.034-0.048l0.024,0.002l-0.005,0.059l0.028,0.007l0.058-0.061l0.135-0.055l0.143-0.015l0.032-0.016l0.008-0.045l0.026-0.032l0.047-0.003l0.053-0.061l0.021-0.081l-0.029-0.04l-0.003-0.03l0.097-0.072l0.014-0.067l-0.027-0.03l-0.034,0.016l-0.029-0.018l-0.018-0.111l-0.042-0.016l-0.063,0.014l-0.034-0.024l0.023-0.054l-0.008-0.121l-0.065-0.038l-0.084,0.006l-0.05-0.022l-0.003-0.04l-0.037-0.043l0.021-0.013l0.087,0.053l0.129,0.017l0.068-0.025l0.011,0.019l-0.042,0.059l0.01,0.137l0.039,0.035l0.106-0.024l0.099-0.043l0.237-0.008l0.037,0.019l-0.042,0.035l-0.121,0.032l-0.113,0.115l0.013,0.094l0.029,0.035l0.22-0.005l0.056,0.043l0.039-0.003l0.053-0.051l0.126-0.054l0.178-0.008l0.216-0.064l0.018-0.032l-0.044-0.043l0.031-0.092l0.142-0.067l0.145-0.011l0.12-0.037l0.103-0.005l0.005-0.038l-0.207-0.083l0.005-0.03l0.123-0.016l0.116-0.107l0.047-0.07l-0.008-0.083l-0.039-0.062l0.018-0.022l0.076,0.033l0.027,0.064l-0.019,0.032v0.046l0.037,0.027h0.076l0.035-0.035l0.073-0.011l0.097,0.051l0.098-0.008l0.021-0.032l-0.029-0.027l0.063-0.086l0.044-0.032h0.119l0.239-0.065l0.057-0.072l0.024-0.148l0.113-0.072l-0.002-0.035l-0.116,0.001l-0.13-0.047l-0.061,0.006l-0.035-0.022l0.018-0.064l0.14-0.07l0.068,0.013l0.021,0.065l0.052,0.01l0.027-0.056l0.065-0.064l0.134-0.011l0.195-0.11l0.163-0.008l0.097-0.038l0.31-0.011l0.231,0.041l0.184-0.012l0.071-0.094l0.103-0.005l0.084,0.056l-0.019,0.062l0.019,0.024l0.102-0.043l0.068-0.005l0.095,0.024l0.131-0.046l0.113-0.223l-0.007-0.244l-0.088-0.08l-0.018-0.072l0.018-0.039l-0.032-0.018l-0.062,0.024l-0.053,0.001l0.101-0.058l0.089,0.006l0.037,0.052l-0.04,0.042l0.011,0.045l0.086,0.045l0.166,0.208l0.026,0.193l-0.115,0.179l0.024,0.029l0.056-0.029l0.123-0.157l0.154-0.068l0.042-0.09l0.024-0.097l-0.008-0.097l0.208-0.118l0.02-0.038l0.015,0.06l-0.133,0.104l-0.047,0.062l0.052,0.059l0.211-0.046h0.178l0.231,0.102l0.085,0.091l0.063,0.022l0.348-0.108l0.266,0.022l0.106,0.05l0.119,0.004l0.049-0.065v-0.082l0.1-0.145l-0.06-0.086l-0.109,0.011l-0.077-0.108l-0.003-0.161l-0.032-0.007l-0.035,0.079l-0.028-0.004l-0.014-0.043l-0.101-0.071l-0.025-0.122l0.049-0.09l0.186,0.008l0.07,0.046l0.042-0.018l-0.021-0.179l0.035-0.132l0.109-0.129l0.136-0.063l0.319-0.371l0.007-0.154l-0.098-0.272l0.014-0.118l0.133-0.248l0.105-0.091l0.07-0.15l0.004-0.258l0.126-0.206l0.161-0.08l0.017-0.035l-0.024-0.045l0.014-0.06l0.144-0.223l0.077-0.195l-0.025-0.053h-0.059l-0.081-0.09l-0.014-0.157l0.042-0.209l-0.024-0.29l-0.123-0.22l0.017-0.045l-0.01-0.073l-0.077-0.084l-0.053-0.14l-0.003-0.16l0.049-0.07l-0.105-0.115l-0.105-0.007l-0.179-0.091l-0.014-0.076l0.042-0.035l0.004-0.07l-0.064-0.028l0.004-0.024h0.098l0.119-0.126l0.14-0.024l0.039,0.034v0.053l0.087,0.066l0.106-0.01l0.038-0.07l-0.007-0.052l-0.217-0.063l-0.074-0.133l-0.028-0.119l0.046-0.101l0.056-0.042l0.007-0.045l-0.028-0.024l0.007-0.049l0.091-0.076l-0.007-0.167l-0.095-0.142l-0.143-0.031l-0.147-0.16v-0.042l-0.025-0.031l-0.07-0.021l-0.098-0.229l-0.042-0.334l0.042-0.18l0.045-0.056v-0.031l-0.119-0.038l-0.01-0.125l0.056-0.125l-0.007-0.045l-0.154-0.07l-0.126-0.007l-0.12-0.048l-0.07-0.146l-0.007-0.146l0.091-0.204l-0.003-0.041l-0.137-0.017l-0.017-0.032l0.129-0.017l0.151,0.017l0.168,0.101l0.242,0.076l0.224,0.003l0.158-0.086l0.017-0.045l-0.1-0.096l0.003-0.057l-0.031-0.021l-0.042,0.026l-0.04-0.01l-0.215-0.184l-0.092-0.05l-0.056-0.046l-0.031-0.073l0.033,0.004l0.029,0.013l0.153-0.002l0.044,0.022l0.049,0.104l0.154,0.061l0.078-0.014l0.084,0.014l0.058,0.05l-0.015,0.019l-0.05,0.005l-0.016,0.033l0.084,0.071l0.102,0.008l0.14-0.078l0.033-0.057l0.072-0.041l0.089-0.028l0.049-0.067l0.168-0.109l0.062-0.111l-0.006-0.065l0.056-0.139l-0.007-0.136l-0.038-0.074l0.016-0.069l0.176-0.116l0.015-0.028l0.026-0.01l0.056,0.012l0.147-0.019l0.142-0.036l0.144,0.012l0.047,0.026l0.054,0.088l0.04,0.005l0.049-0.092l-0.007-0.048l0.028-0.012l0.074,0.043l0.026-0.007l0.028-0.057l0.105-0.081l0.046-0.067l0.005-0.038l0.046-0.066h0.063l0.003-0.026l-0.052-0.05l-0.021-0.04l-0.02-0.193l-0.022-0.009l-0.032,0.012l-0.03-0.021l0.009-0.038l-0.028-0.02l-0.082,0.036l-0.067,0.01l-0.094,0.036l-0.034,0.025l-0.061-0.004l-0.03-0.01l-0.028,0.015l0.016-0.043l0.121-0.109l0.023-0.081l-0.006-0.091l0.035-0.044l-0.007-0.058l0.013-0.056l-0.018-0.036l-0.049-0.016l-0.009-0.036l0.016-0.038l-0.028-0.06l-0.052-0.007l-0.027-0.031l0.02-0.054l0.068-0.015v-0.021l-0.089-0.019l-0.062-0.055l-0.077-0.025l0.005-0.019l0.053-0.022l0.014-0.061l0.002-0.067l0.026-0.048l0.035-0.006l0.086,0.073l0.144,0.055l0.105,0.087l0.021,0.038l0.036,0.007l0.023-0.009l0.058,0.071l0.054,0.192l-0.012,0.105l0.018,0.036l-0.018,0.087l-0.095,0.053l-0.04,0.087l0.016,0.083l0.098,0.062l0.039,0.091l0.028,0.038l0.026,0.075l0.035,0.01l0.03,0.036l0.022-0.01l0.007-0.052l0.03-0.09l-0.003-0.043l0.033-0.052l0.065-0.01l0.014-0.036l-0.018-0.128l-0.036-0.061l0.01-0.036l0.105-0.085l0.014-0.048l0.005-0.128l-0.022-0.038l-0.056-0.035l-0.039-0.077l-0.007-0.068l-0.03-0.069l0.02-0.098l-0.023-0.059l-0.139-0.14l-0.042-0.109l-0.003-0.091l-0.035-0.073l-0.121-0.104l-0.014-0.043l-0.035-0.01l-0.028,0.014l-0.065,0.003l-0.026-0.014l-0.055,0.005l-0.031,0.044l-0.151,0.001l-0.056,0.012l-0.094-0.01l-0.053-0.033l-0.042-0.003l-0.229,0.097l-0.149,0.095l-0.043,0.008l-0.051,0.031l-0.038,0.048l-0.032,0.006l-0.064,0.047l0.009-0.025l0.09-0.08l0.004-0.02l-0.017-0.01l-0.046,0.01l-0.031-0.01l-0.011-0.04l0.055-0.133l0.171-0.149l0.273-0.127l0.062,0.01l0.178-0.112l0.023-0.054l0.051-0.058l0.015-0.174l-0.033-0.1l-0.109-0.159l-0.115-0.053l-0.019,0.006l-0.009,0.016h-0.032l-0.015-0.012l-0.035,0.015l-0.003,0.043l0.131,0.102l0.07,0.08l0.048,0.117l-0.016,0.037l-0.019-0.008l-0.063-0.126l0.001-0.027l-0.047-0.031l-0.073-0.005l-0.086-0.036l-0.044-0.078l0.009-0.013l0.033-0.007l0.018-0.037l-0.074-0.11l-0.069-0.054l-0.017-0.085l-0.028-0.019l-0.054-0.002l-0.052-0.034l-0.078-0.176l-0.087-0.124l-0.067-0.037h-0.056l-0.018-0.029l-0.036-0.02l-0.039,0.009l-0.034-0.018l0.005-0.05l0.047-0.073l0.017-0.12l0.033-0.074l-0.005-0.04l-0.076-0.043l-0.071-0.001l-0.146,0.03l-0.017-0.012l-0.025-0.056l0.002-0.069l0.065-0.102l0.007-0.035l-0.003-0.113l0.026-0.057v-0.109l-0.028-0.046l-0.053-0.034l-0.043-0.096l-0.028-0.022l-0.046-0.01l-0.138-0.061l-0.074-0.073l-0.073,0.002l-0.079,0.066l-0.091,0.009l-0.092,0.025l-0.057-0.009l-0.179-0.108l-0.067-0.011l-0.063-0.033l-0.11-0.009l-0.032-0.032l-0.036,0.001l-0.065,0.047l-0.06,0.014l-0.057-0.021l-0.067-0.005l-0.054-0.018l-0.051-0.055l-0.071,0.002l-0.162,0.112l-0.014,0.039l-0.224,0.077l-0.207,0.007l-0.038,0.03l-0.201,0.056l-0.043,0.086l-0.191,0.03h-0.239l-0.181-0.021l-0.109-0.037l-0.123-0.087l-0.03,0.022l0.011,0.086l-0.027,0.142l-0.105,0.189l-0.076,0.047l-0.029,0.068l0.026,0.054l-0.015,0.054l-0.14,0.112l-0.144,0.028l-0.139-0.005l-0.048-0.072l-0.105-0.021l-0.123,0.026l-0.048-0.016l-0.036,0.024l-0.021,0.046l-0.082,0.031l-0.089,0.094l-0.019,0.077l-0.057,0.029l-0.04-0.008l0.008-0.034l0.058-0.028l0.029-0.062l0.081-0.096l0.053-0.016l0.023-0.065l-0.026-0.033L614.54,222.673z"/>
</svg>
