<svg xmlns="http://www.w3.org/2000/svg" viewBox="623.555 226.060 1.937 1.905">
  <path d="M625.317,226.573l0.028,-0.004l0.017,0.007l0.003,0.014l0.066,0.015l0.043,0.019l0.018,0.029l-0.011,0.018l-0.041,0.007l-0.01,0.014l0.008,0.03l-0.01,0.024l-0.038,0.018l-0.02,0.024l-0.003,0.036l-0.021,0.025l-0.066,0.065l-0.004,0.056l-0.042,0.045l-0.07,0.042l-0.014,0.059l0.035,0.049l-0.018,0.066l-0.151,0.1h-0.082l-0.055,0.039l-0.005,0.044l0.024,0.034l-0.013,0.034l-0.106,0.06l-0.069,0.003l-0.042,0.026l-0.024,0.05l-0.053,0.052l-0.092,0.005l-0.1,0.047l-0.051,0.069l-0.004,0.031l0.012,0.007l0.012,-0.01l0.007,0.014l-0.052,0.079l-0.014,-0.007l0.013,-0.048l-0.009,-0.034l-0.026,-0.019l-0.051,0.012l-0.048,0.049l-0.039,0.009l-0.046,-0.023l-0.039,-0.061l-0.051,-0.019l-0.055,0.002l-0.04,0.019l-0.007,0.033l-0.021,0.016l-0.021,-0.002l-0.021,0.01l-0.004,0.023l-0.021,0.01l-0.025,-0.005l-0.019,0.009l-0.004,0.016l-0.027,0.003l-0.028,-0.025h-0.028s-0.008,-0.024s-0.008,-0.024l0.036,-0.048l0.035,-0.018l0.018,-0.036l0.027,-0.004v-0.017s-0.048,-0.021s-0.048,-0.021l-0.007,-0.024l0.045,-0.057l0.032,-0.012l0.025,0.003l0.013,-0.022l-0.003,-0.024l0.014,-0.021l0.02,-0.01l0.008,-0.046l0.022,-0.046l-0.003,-0.045l-0.039,-0.066l0.005,-0.038l0.076,-0.087l0.018,-0.063l-0.005,-0.049l0.016,-0.045l0.061,-0.059l0.007,0.004v0.014s0.009,0.004s0.009,0.004l0.113,-0.061l0.173,-0.16l0.077,-0.115l0.028,-0.097l0.046,-0.069l0.06,-0.063l0.042,-0.132l0.06,-0.073l0.283,-0.15l0.167,-0.032l0.152,-0.055l0.025,0.012l0.011,0.066l-0.015,0.083l-0.067,0.183l-0.003,0.118l0.032,0.067l0.063,0.025Z M623.647,227.884l0.016,0.017l-0.007,0.035l-0.032,0.026l-0.039,0.003l-0.03,-0.038l0.014,-0.033l0.042,-0.014l0.035,0.003Z M624.384,227.8h0.018s-0.001,0.012s-0.001,0.012l-0.013,0.01l-0.011,-0.01l0.007,-0.012Z "/>
</svg>
