<svg xmlns="http://www.w3.org/2000/svg" viewBox="985.179 416.224 4.539 9.307">
  <path d="M985.702,417.846l0.022,-0.031l-0.016,-0.04l-0.024,0.016l-0.007,0.045l0.025,0.01h0Z M986.373,419.248l0.024,0.023l0.032,-0.017l0.013,-0.038l-0.018,-0.045l-0.041,-0.011l-0.025,0.027l0.015,0.062h0Z M987.135,420.041l0.013,-0.034l-0.029,-0.071l-0.047,-0.01l-0.031,0.034l0.029,0.081h0.065Z M988.233,422.732l0.018,-0.007v-0.026s-0.013,-0.018s-0.013,-0.018h-0.017s-0.003,0.021s-0.003,0.021l0.016,0.029h0Z M988.874,423.865l0.017,-0.009v-0.04s-0.031,-0.039s-0.031,-0.039l-0.029,0.007l0.002,0.025l0.04,0.056h0Z M989.04,423.138l0.007,0.024l0.028,0.003l0.003,-0.024l-0.014,-0.014l-0.024,0.01h0Z M988.616,422.886h0.021l0.008,-0.017l-0.017,-0.017h-0.029s-0.006,0.019s-0.006,0.019l0.022,0.014h0Z M985.217,416.681l0.044,0.024l0.099,-0.003l0.084,0.029l0.081,-0.016l0.076,-0.133l-0.021,-0.191l-0.159,-0.167l-0.026,0.01l-0.01,0.097l-0.052,0.044l-0.078,-0.008l-0.037,-0.024l-0.029,0.024l-0.01,0.207l0.039,0.107h0Z M986.626,420.025l0.294,0.153l0.055,-0.043l-0.012,-0.059l-0.227,-0.133l-0.031,-0.098l0.055,-0.204l-0.043,-0.067l-0.122,0.016l-0.047,0.114l-0.024,0.133l0.102,0.188h0Z M988.53,419.29l0.014,-0.02l-0.007,-0.055l0.014,-0.051l0.037,-0.023l0.009,-0.033l-0.026,-0.095l0.014,-0.037l-0.004,-0.035l-0.056,-0.061l-0.01,-0.099l-0.017,-0.01l-0.014,0.038l-0.003,0.05l0.039,0.079l0.019,0.132l-0.023,0.037l-0.008,0.147l0.023,0.037h0Z M987.403,421.131l0.037,0.003l0.034,-0.086l0.055,-0.005l0.044,0.078l-0.047,0.141l0.058,0.063l0.141,-0.068l0.139,0.029l0.039,0.063l0.063,-0.018l-0.008,-0.17l-0.139,-0.125l-0.097,-0.016l-0.016,-0.055l0.034,-0.097l-0.065,-0.052l-0.183,0.018l-0.094,0.144l-0.016,0.094l0.021,0.06h0Z M988.443,420.728l-0.034,-0.193l-0.024,-0.055l-0.029,-0.005l-0.018,0.055l0.026,0.06l-0.008,0.073l0.06,0.081l0.026,-0.016h0Z M988.143,421.005l0.175,0.125l0.047,-0.008l0.016,-0.196l-0.058,-0.099l-0.076,-0.016l-0.118,0.084l-0.029,0.05l0.042,0.06h0Z M988.03,420.875l0.05,-0.01l0.042,-0.099l0.12,-0.058l0.01,-0.118l-0.092,-0.112l-0.073,-0.152l0.026,-0.065l0.133,-0.11l-0.026,-0.097l-0.12,-0.018l-0.047,0.037l-0.013,0.089l-0.123,0.084l-0.016,0.097l0.044,0.039l-0.01,0.084l0.044,0.065l0.076,-0.005l0.008,0.024l-0.055,0.078l0.016,0.05l0.068,-0.01l0.047,-0.078l0.031,0.013l-0.018,0.094l-0.131,0.05l-0.018,0.073l0.026,0.058h0Z M988.597,423.696l0.051,-0.006l0.092,-0.135l0.178,-0.12l0.09,-0.159l0.004,-0.071l-0.127,-0.096l0.002,-0.108l-0.031,-0.025l-0.025,0.022l0.004,0.108l0.039,0.051l-0.027,0.02l-0.098,0.004l-0.176,0.073l-0.031,0.196l0.022,0.176l0.035,0.071h0Z M988.654,424.139l-0.006,0.122l0.035,0.214l-0.014,0.102l0.02,0.018l0.055,-0.037l0.049,0.014l0.059,0.082l0.049,0.035l0.057,0.069l0.035,0.084l-0.01,0.069l0.1,0.112l0.055,0.216l0.075,0.061l0.01,0.035l-0.02,0.096l0.025,0.08l0.063,0.02l0.047,-0.045l0.025,-0.169l0.055,-0.008l0.073,0.075l0.063,-0.031l0.029,-0.108l-0.059,-0.092l0.031,-0.173l0.061,-0.153l0.078,-0.029l0.006,-0.027l-0.09,-0.12l0.016,-0.055l0.086,0.037l0.006,-0.025l-0.094,-0.078l-0.025,-0.155l-0.084,-0.053l-0.02,-0.08l0.01,-0.224l-0.037,-0.169l-0.137,-0.112h-0.059l-0.071,0.09l-0.159,0.024l-0.092,0.065l-0.163,0.002l-0.067,0.049l-0.012,0.086l-0.055,0.088h0Z "/>
</svg>
