<svg xmlns="http://www.w3.org/2000/svg" viewBox="983.358 399.579 7.683 11.903">
  <path d="M990.946,400.43l0.065,-0.011l0.03,0.041l-0.019,0.059l-0.067,0.032l-0.02,-0.029l-0.007,-0.06l0.018,-0.032Z M989.464,404.775v0.033l0.035,0.011 l0.037,-0.017l0.02,-0.045l-0.021,-0.038h-0.037l-0.034,0.055 Z M986.312,399.882l0.007,0.017h0.011l0.003,-0.019 l-0.012,-0.008l-0.008,0.01Z M986.482,400.966v0.014l0.014,0.008l0.012,-0.008l-0.007,-0.014h-0.019Z M985.878,399.929l0.014,0.009l0.028,-0.023l0.022,-0.038l-0.008,-0.015l-0.033,0.023l-0.023,0.043Z M985.656,400.492l0.002,0.029l0.051,-0.007l0.029,-0.035l-0.012,-0.03h-0.042l-0.027,0.043 Z M986.376,400.899l-0.003,0.033l0.017,0.011l0.024,-0.043l-0.01,-0.043l-0.019,0.013l-0.008,0.03Z M986.054,402.105l0.032,0.005l0.017,-0.032l-0.011,-0.038l-0.041,-0.026l-0.04,0.014l-0.005,0.036l0.048,0.042Z M985.11,403.872l0.026,-0.005l0.008,-0.028l-0.034,-0.015l-0.023,0.015v0.028l0.023,0.005Z M985.232,401.796l0.008,-0.043l-0.026,-0.023l-0.026,0.005l-0.008,0.031l0.021,0.038l0.031,-0.008Z M985.246,402.706l0.016,0.003l0.018,-0.031l0.007,-0.043l-0.013,-0.011l-0.022,0.033l-0.006,0.049Z M984.69,407.692l0.018,-0.016l-0.009,-0.037l-0.024,-0.035l-0.023,0.009l-0.005,0.035l0.043,0.045Z M986.114,405.49l0.011,0.031l0.02,0.003l0.003,-0.05l-0.027,-0.035l-0.012,0.02l0.005,0.031Z M985.431,406.051l0.018,-0.027l-0.022,-0.029l-0.04,-0.006l-0.041,0.026l-0.004,0.043l0.031,0.02l0.059,-0.026Z M986.614,406.674h0.021l0.008,-0.017l-0.017,-0.017h-0.029l-0.006,0.019 l0.022,0.014Z M986.717,405.295l0.005,0.021l0.034,0.008l0.021,-0.021l-0.01,-0.018l-0.029,-0.008l-0.021,0.018Z M986.061,405.019l-0.011,0.038l-0.009,0.037l0.009,0.012l0.035,-0.033l0.007,-0.038l-0.014,-0.02l-0.017,0.004Z M986.455,399.767l0.027,-0.007l0.07,-0.091l-0.01,-0.023l-0.043,0.033l-0.044,0.088Z M986.017,404.536l-0.011,-0.016l-0.018,0.017l-0.006,0.031h0.017l0.017,-0.032 Z M984.843,409.903l0.034,0.012l0.009,-0.015l-0.03,-0.027l-0.028,-0.005l-0.008,0.013l0.022,0.022Z M983.366,409.749l0.028,-0.004l0.017,-0.025l-0.015,-0.025l-0.021,0.004l-0.017,0.037l0.008,0.012Z M985.02,409.678l0.007,0.024l0.028,0.003l0.003,-0.024l-0.014,-0.014l-0.024,0.01Z M986.368,399.689l-0.039,-0.021l-0.051,0.018l-0.042,-0.015v-0.046l0.105,-0.046 l0.055,0.012l0.03,0.077l0.003,0.057l-0.033,0.01l-0.027,-0.045Z M985.074,402.857l0.029,-0.006l0.039,-0.075l-0.02,-0.046l0.018,-0.023l0.069,-0.029l0.059,-0.124l0.01,-0.376l-0.082,-0.052l-0.057,0.008l-0.055,0.108l-0.004,0.052l0.033,0.041l-0.004,0.073l-0.073,0.185l-0.006,0.112l0.043,0.152Z M985.19,402.82l-0.006,0.058l0.059,0.14l-0.006,0.109l0.027,0.025l0.017,-0.044l0.003,-0.095l-0.031,-0.071l-0.004,-0.149l-0.008,-0.042l-0.024,0.006l-0.027,0.064Z M985.537,402.495l0.026,-0.013l-0.026,-0.043l-0.044,-0.013l-0.023,0.023l0.016,0.038l0.052,0.008Z M985.339,404.884h0.017l0.014,-0.032 v-0.044l-0.012,-0.01 l-0.018,0.036v0.05Z M985.259,408.47l0.019,0.002l0.012,-0.023l-0.005,-0.023l-0.016,-0.007l-0.012,0.017l0.002,0.033Z M984.898,407.624l0.008,-0.044l-0.026,-0.023l-0.026,0.005l-0.008,0.031l0.021,0.039l0.031,-0.008Z M985.184,408.634l-0.02,0.051l0.008,0.02l0.051,-0.039l0.006,-0.069l-0.016,-0.029l-0.033,0.012l0.004,0.055Z M983.398,407.49l-0.025,0.08l0.02,0.084l0.18,0.041l0.059,-0.041l-0.024,-0.198l-0.094,-0.061l-0.112,0.014l-0.025,0.033l0.022,0.047Z M984.598,407.54l0.069,-0.01l0.039,-0.053l-0.022,-0.057l-0.037,-0.01l-0.01,-0.031l-0.045,-0.012l-0.018,0.024v0.116l0.024,0.033Z M984.784,407.622h0.022l0.016,-0.082l-0.02,-0.057l-0.022,0.008l-0.012,0.094l0.016,0.037Z M986.445,406.536l0.071,0.018l0.059,-0.057v-0.055l-0.067,-0.014l-0.08,0.02l-0.059,-0.01l-0.014,0.043l0.09,0.055Z M984.816,406.122l0.037,-0.039l-0.008,-0.078l-0.037,-0.041l-0.016,0.012l0.02,0.043l0.004,0.104Z M985.284,404.81l-0.005,-0.055l-0.047,-0.018l-0.021,0.029l0.018,0.196l0.032,-0.009l0.023,-0.143Z M985.834,404.42l0.052,-0.032l0.017,-0.031l-0.058,-0.047l-0.062,0.009l-0.025,0.045l0.038,0.054l0.037,0.002Z M986.005,404.47l0.042,0.01l0.063,-0.076l0.058,-0.149l-0.034,-0.005l-0.073,0.044l-0.024,0.073l-0.01,0.068l-0.021,0.034Z M985.895,405.03l0.026,-0.044l0.05,0.01l0.011,-0.021l-0.011,-0.042l-0.044,-0.026l-0.068,0.031l-0.016,0.037l0.021,0.06l0.031,-0.005Z M986.016,404.945l0.027,-0.008l0.059,-0.118l-0.02,-0.08l-0.022,0.002l-0.018,0.057l-0.039,-0.008l-0.022,-0.033l-0.037,0.018l0.008,0.047l0.059,0.043l0.012,0.039l-0.008,0.041Z M986.559,405.002l0.073,0.018l0.033,0.041l0.025,-0.004l0.02,-0.165l-0.022,-0.006l-0.014,0.051l-0.024,0.01l-0.02,-0.018l-0.014,-0.048l-0.033,0.008l-0.037,0.08l0.014,0.033Z M986.188,405.416l0.084,0.014l0.031,-0.018l-0.01,-0.063l-0.041,-0.049l-0.082,0.002l-0.018,0.051l0.035,0.063Z M986.217,405.612l0.012,0.041l0.055,0.033l0.027,-0.022l0.004,-0.141l-0.024,-0.061h-0.063l-0.051,0.035l-0.004,0.092l0.043,0.022Z M986.394,405.6l0.041,0.051l0.051,0.018l0.022,-0.027l-0.022,-0.096l-0.055,-0.041l-0.002,-0.167l-0.012,-0.071l-0.024,-0.01l-0.055,0.055l-0.012,0.139l0.025,0.122l0.041,0.027Z M986.604,405.551l0.043,-0.049l-0.006,-0.075l0.008,-0.067l-0.016,-0.073l0.016,-0.096l-0.061,-0.118l-0.043,0.004l-0.069,0.186l0.004,0.11l0.086,0.169l0.037,0.008Z M986.176,405.949l0.012,0.073l0.022,0.031l0.061,0.016l0.075,0.084l0.084,0.149l0.055,0.002l0.031,-0.039l-0.055,-0.163l-0.047,-0.041l-0.063,-0.225l-0.025,-0.075l-0.082,-0.049l-0.067,0.016l-0.045,0.088l-0.071,0.045l-0.004,0.053l0.12,0.035Z M984.831,408.347l0.149,-0.012l0.171,-0.075l0.01,-0.065l-0.075,-0.047l-0.055,-0.01l0.002,-0.033l0.082,-0.059l0.014,-0.127l-0.049,-0.12l-0.08,-0.035l-0.002,-0.039l-0.037,-0.01l-0.063,0.086l-0.016,0.124l0.045,0.078l-0.002,0.114l-0.053,0.025l-0.076,0.002l-0.012,0.033l0.014,0.043l-0.027,0.035l0.004,0.043l0.057,0.047Z M986.172,402.291l0.062,0.044l0.028,-0.052l-0.039,-0.108l-0.047,-0.022l-0.026,0.048l0.022,0.09Z M984.057,411.417l0.076,-0.076l0.094,0.01l0.118,0.097l0.089,0.034l0.115,-0.031l0.052,-0.11l0.081,-0.105l-0.01,-0.047l-0.084,-0.021l-0.008,-0.092l0.055,-0.102l0.073,-0.024l0.029,-0.024l-0.031,-0.042l0.026,-0.037h0.058l0.016,-0.076l-0.058,-0.157l0.013,-0.11l-0.016,-0.084l-0.06,-0.047l-0.039,-0.22l-0.131,-0.131l-0.105,0.01l-0.133,0.11v0.078l-0.11,0.065l-0.039,0.125l-0.081,0.037l-0.039,-0.037h-0.034l-0.034,0.06l0.031,0.055l0.008,0.335l0.068,0.037l0.078,0.162l-0.034,0.131l-0.105,0.157l0.008,0.05l0.063,0.016Z M985.192,404.36l0.044,0.298l0.06,0.06l0.139,-0.008l0.053,0.039l-0.014,0.079l-0.021,0.037h-0.008l0.01,-0.071 l-0.029,-0.012l-0.043,0.077l-0.013,0.093l0.077,0.047l0.014,0.142l-0.047,0.072l-0.102,-0.024l-0.086,0.035l-0.012,-0.021l0.025,-0.146l-0.027,-0.068l-0.046,-0.007l-0.111,0.094l-0.076,0.148l-0.039,0.227l-0.039,0.082l-0.006,0.088l0.018,0.075l-0.037,0.188l-0.01,0.237l0.008,0.227l-0.014,0.01l-0.025,-0.096l-0.073,-0.049l-0.022,-0.09l-0.043,-0.031l-0.029,0.01l-0.088,0.114l-0.071,0.227l0.018,0.073l0.039,-0.004l0.067,-0.057l0.012,0.02l0.006,0.149l0.02,0.122l-0.016,0.063l0.008,0.151l0.025,0.063l0.02,-0.006l0.024,-0.059l0.063,-0.004l0.035,0.073l-0.018,0.078v0.045l0.059,0.106l0.065,0.012l0.018,-0.061l0.018,-0.004l0.024,0.076l-0.02,0.055l-0.057,-0.006l-0.031,-0.024l-0.029,0.01l-0.006,0.108l-0.027,0.027l0.008,0.049l0.043,0.01l0.024,-0.043l0.051,-0.002l0.047,0.039l0.014,0.08l-0.022,0.035l0.008,0.055l0.069,0.067h0.051l0.041,-0.014l0.092,0.049l0.02,-0.014l0.069,-0.216l0.022,-0.159l0.039,-0.122l0.014,-0.133l-0.057,-0.043l-0.069,-0.027l-0.024,0.02l0.006,0.084l-0.035,0.043l-0.065,0.067l-0.041,-0.004l-0.027,-0.047l0.039,-0.071l0.078,-0.063l0.008,-0.076l0.055,-0.018l0.061,0.024l0.041,-0.033l0.12,-0.537l0.027,-0.286l-0.047,-0.059l-0.073,0.004l-0.082,0.11l-0.012,0.194l-0.022,-0.069v-0.202l-0.022,-0.084l0.033,-0.157l0.029,-0.027l0.057,-0.002v-0.029l-0.061,-0.055l0.012,-0.051l0.057,-0.002l0.029,0.039l0.051,-0.006l0.004,-0.057l-0.08,-0.076l-0.029,-0.041l0.027,-0.01l0.065,0.018l0.067,-0.045l0.022,-0.086l0.047,-0.022l0.022,-0.106l0.073,-0.09l0.057,-0.008l0.014,-0.057l-0.018,-0.069l0.014,-0.02l0.073,0.004l0.002,-0.055l-0.041,-0.11l0.024,-0.024l0.061,-0.022l-0.008,-0.106l-0.067,-0.069l-0.096,0.006l-0.002,-0.029l0.08,-0.027l0.08,-0.004l0.029,-0.102l-0.031,-0.051l-0.084,-0.027l-0.08,-0.135l0.016,-0.067l0.088,-0.033l0.078,0.027l0.065,-0.025l0.035,0.053l0.025,-0.024l0.018,-0.104l0.125,-0.073l-0.006,-0.027l-0.069,0.002l0.002,-0.043l0.039,-0.043l0.039,0.014l0.043,-0.02l0.031,-0.163l-0.016,-0.078l-0.059,-0.102l0.002,-0.243l0.02,-0.183l0.037,-0.033l0.002,-0.039l-0.067,-0.151l-0.078,-0.044l0.004,-0.031l0.045,-0.064v-0.085l-0.088,-0.226l-0.055,-0.041l0.022,-0.052l-0.033,-0.019l-0.067,0.058l-0.055,-0.008l-0.014,-0.093l0.047,-0.214l0.041,-0.031l0.039,0.023l0.004,0.114l0.039,-0.002l0.069,-0.062l-0.006,-0.066l-0.098,-0.048l-0.012,-0.129l0.055,-0.089l0.055,-0.033l0.025,0.017l-0.006,0.077l0.061,0.081l0.055,0.002l0.149,-0.079l0.094,-0.16v-0.253l0.008,-0.212l0.082,-0.122l0.02,-0.11l-0.024,-0.01l-0.039,0.021l-0.029,-0.042l-0.082,-0.05l-0.053,-0.098l-0.137,-0.029l-0.052,-0.048l0.012,-0.068l0.037,-0.006l0.047,0.075l0.033,-0.006l0.055,-0.06l0.176,0.073l0.057,0.095l0.035,-0.004l0.031,-0.11l-0.1,-0.191l-0.01,-0.062l-0.065,-0.042l-0.025,-0.141l0.039,-0.135v-0.151l-0.039,-0.151l-0.026,-0.005l-0.031,0.085l-0.034,-0.003l-0.044,-0.059l-0.018,0.021l0.003,0.093l-0.047,0.021l-0.084,-0.054l-0.089,0.023l-0.044,0.062l0.018,0.069l-0.086,0.093l-0.097,0.023v0.082l0.031,0.075l-0.052,0.09h-0.073l-0.021,0.028l0.058,0.069l-0.029,0.031l-0.055,0.018l-0.031,0.203l0.031,0.031l0.003,0.054l-0.044,0.036l0.047,0.082l0.044,0.023v0.039l-0.073,0.026l0.008,0.08l-0.047,0.09l0.003,0.139l0.084,0.057l-0.018,0.031l-0.081,0.023l-0.06,0.16v0.257l0.063,0.049l-0.018,0.044l-0.06,0.015l-0.003,0.1l0.034,0.082l-0.021,0.075l0.037,0.064l-0.052,0.067l-0.01,0.069l-0.084,-0.013l-0.034,0.018l-0.125,0.154l-0.003,0.142l0.073,0.208l-0.013,0.1l-0.029,0.036l0.029,0.087l-0.039,0.121l-0.129,0.093v0.041l0.054,0.072 l-0.034,0.25l0.016,0.124l-0.024,0.311Z M985.295,405.141l0.035,0.023l0.076,0.004l0.025,-0.036l-0.02,-0.126l-0.04,-0.014l-0.011,0.03l-0.026,0.002l-0.036,-0.036l-0.026,0.029l0.023,0.124Z "/>
</svg>
