<svg xmlns="http://www.w3.org/2000/svg" viewBox="907.938 404.289 6.755 15.616">
  <path d="M914.493,413.024l-0.039,0.123l-0.03,0.016l0.005,0.052l0.035,0.016l0.033,-0.014v-0.092l0.012,-0.096l-0.017,-0.004Z M914.521,412.968l0.028,-0.025l0.011,-0.039l-0.032,-0.057l-0.014,0.006l0.011,0.032l0.006,0.04l-0.022,0.03l0.012,0.012Z M910.707,411.404l0.055,-0.052l0.094,-0.052l-0.018,-0.06l-0.051,-0.008l-0.032,0.042l-0.031,0.07l-0.034,0.039l0.018,0.021Z M910.402,410.515l0.016,-0.03l-0.022,-0.019l-0.028,0.014l0.01,0.036l0.024,-0.002Z M912.133,407.796l0.008,0.068l0.034,-0.005l0.013,-0.047l-0.023,-0.04l-0.04,-0.026l-0.02,0.014l0.029,0.036Z M911.083,409.227l0.059,-0.038l0.012,-0.073l-0.047,-0.002l-0.05,0.063l0.026,0.05Z M911.218,408.967l0.021,0.019l0.068,-0.148l0.026,-0.108l0.028,-0.071l-0.021,-0.012l-0.043,0.069l-0.019,0.076l-0.038,0.08l-0.021,0.094Z M914.693,410.284l-0.035,-0.032l-0.089,0.024l-0.037,0.033l0.041,0.033l0.119,-0.004v-0.054Z M912.182,419.898l0.066,0.007l0.063,-0.019l0.054,-0.083l0.014,-0.064l0.033,-0.1l-0.016,-0.004l-0.073,0.143l-0.059,0.067l-0.074,0.007l-0.036,-0.016l-0.016,0.024l0.043,0.038Z M909.604,412.968l0.008,-0.05l0.026,-0.003l0.018,0.055l-0.031,0.021l-0.021,-0.023Z M909.471,413.236l0.034,0.003l-0.018,0.06l-0.034,0.016l-0.018,-0.031l0.036,-0.047Z M909.015,410.317l0.042,0.008l-0.005,0.036l-0.036,0.01l-0.013,-0.016l0.013,-0.039Z M909.072,410.272l0.021,-0.058l0.003,-0.056l0.039,-0.064l0.034,0.003v0.06l-0.07,0.109l-0.027,0.006Z M909.44,409.877l0.01,-0.036l0.023,-0.016l0.018,0.031l0.01,0.036l-0.034,0.013l-0.029,-0.029Z M909.561,409.86l0.018,-0.034l0.059,-0.027l0.006,0.022l-0.023,0.034l-0.049,0.026l-0.011,-0.021Z M911.023,406.974l0.03,-0.004l0.021,0.054l-0.005,0.039l-0.049,0.042l-0.027,-0.011l0.033,-0.075l-0.004,-0.044Z M909.018,407.417l0.003,-0.03l0.015,-0.015l0.029,0.01l0.006,0.039l-0.026,0.012l-0.026,-0.017Z M908.694,409.068l0.023,-0.032l0.028,0.008l0.003,0.036l-0.042,0.008l-0.012,-0.021Z M907.938,404.305l0.014,-0.016l0.021,0.005v0.024l-0.021,0.002l-0.014,-0.016Z M908.028,404.481l0.009,-0.026l0.017,0.002v0.035l-0.023,0.009l-0.003,-0.019Z M908.018,404.58l0.003,-0.026h0.017l0.007,0.031l-0.016,0.012l-0.012,-0.017Z "/>
</svg>
