<svg xmlns="http://www.w3.org/2000/svg" viewBox="550.572 158.006 40.711 19.357">
  <path d="M590.526,168.175l0.012-0.017l0.016,0.007l0.005,0.023l-0.012,0.023l-0.019-0.002L590.526,168.175L590.526,168.175z M590.765,168.16l0.005,0.018l0.026,0.005l0.026-0.016v-0.018l-0.031-0.005L590.765,168.16L590.765,168.16z M591.164,167.735l0.019,0.002l0.012-0.023l-0.005-0.023l-0.016-0.007l-0.012,0.017L591.164,167.735L591.164,167.735z M588.252,162.833v0.014l0.014,0.008l0.012-0.008l-0.007-0.014H588.252L588.252,162.833z M580.517,158.366l0.019-0.007l-0.01-0.014h-0.029l-0.007,0.015L580.517,158.366L580.517,158.366z M575.075,160.525l0.029,0.038h0.042l0.073-0.007l0.026-0.024l0.014-0.035l-0.003-0.028l-0.071-0.007l-0.062,0.012L575.075,160.525L575.075,160.525z M576.961,160.81l-0.006,0.024l0.019,0.005l0.016-0.012l-0.012-0.019L576.961,160.81L576.961,160.81z M577.895,159.681v0.014l0.014,0.008l0.012-0.008l-0.007-0.014H577.895L577.895,159.681z M574.683,158.254l0.035-0.009l0.019-0.062l-0.023-0.054l-0.118-0.123h-0.028l-0.002,0.019l0.028,0.035l-0.01,0.024l-0.036,0.01v0.029l0.021,0.054l0.017,0.014l0.026,0.003l0.048,0.024L574.683,158.254L574.683,158.254z M588.144,169.421l-0.038-0.038l-0.076-0.007l-0.076-0.083l-0.017-0.132l-0.097-0.087l-0.132-0.038l-0.045-0.042l0.007-0.042l0.052-0.007l0.01-0.038l-0.055-0.048l-0.08-0.031l0.028-0.021l0.118,0.021l0.042,0.028l0.003,0.062l0.034,0.029l0.044-0.005l0.039,0.021l0.036,0.083l0.023,0.01l0.026-0.021l0.036,0.016l0.008,0.091l0.034,0.018l0.029-0.005l0.047,0.039l0.023,0.101l0.044,0.026h0.047l0.231,0.091l0.117,0.003l0.034-0.023l0.125,0.003l0.055-0.034l0.2-0.018l0.018-0.018h0.031l0.016,0.018l0.044-0.003l0.172-0.094l0.14-0.044l0.036-0.049l-0.016-0.047l-0.081-0.036l-0.018-0.052l-0.06-0.068l-0.047-0.023l-0.104-0.042l-0.016-0.047l0.029-0.036h0.06l0.127,0.029l0.133-0.031l0.185,0.008l0.192-0.034l0.034-0.026l0.078,0.018l0.057-0.013l0.018-0.036l-0.031-0.023l-0.073,0.003l-0.057-0.016l-0.109-0.062l-0.182-0.055l-0.018-0.023l0.016-0.018l0.166,0.013l0.171,0.044l0.052,0.031l0.073-0.005l0.159-0.099l0.094-0.096l0.01-0.068l-0.052-0.047l-0.187-0.062l-0.088-0.057l-0.073-0.021l-0.255-0.023l-0.309-0.06l-0.104-0.055l0.018-0.021l0.112,0.01l0.161,0.052l0.268,0.005l0.073-0.023l0.068,0.008l0.081,0.039l0.187,0.031l0.288-0.008l0.075-0.023l0.003-0.122l0.018-0.036l-0.023-0.016l-0.055,0.039l-0.226-0.021l-0.148-0.075l-0.036-0.049l-0.223-0.096l-0.039-0.075l-0.127-0.107l-0.135-0.013l-0.065,0.023l-0.047-0.005l-0.068-0.039l-0.195-0.036l-0.294,0.026l-0.195-0.003l-0.182-0.036l-0.008-0.036l0.044-0.016l0.125,0.003l0.169,0.029l0.148-0.016l0.112-0.049l0.172-0.031l0.114,0.005l0.031-0.018l-0.018-0.029l-0.07-0.034l-0.068-0.094l0.021-0.016l0.101,0.052l0.047,0.047l0.184,0.057l0.083,0.008l0.198,0.086l0.151,0.107l0.078,0.13l0.081,0.029l0.434,0.01l0.208-0.078l0.021-0.047l-0.016-0.07l-0.057-0.034v-0.042l0.042-0.036l0.208-0.039l0.161-0.127l0.042-0.07l-0.01-0.047l-0.065-0.031l-0.057,0.003l-0.042-0.039l0.01-0.039l0.049-0.052l0.01-0.133l-0.018-0.031l0.008-0.049l0.039-0.042v-0.081l-0.023-0.013l-0.049,0.026l-0.049,0.081l-0.073,0.036l-0.036,0.049l-0.057,0.127l-0.083,0.099l-0.068,0.055h-0.029v-0.026l0.068-0.104l-0.023-0.016l-0.135,0.029l-0.112,0.008v-0.021l0.135-0.052l0.047-0.044l-0.003-0.034l-0.133-0.016l-0.153,0.008l-0.034-0.021l0.003-0.029l0.073-0.023l0.169,0.005l0.088-0.049l0.073-0.104l0.016-0.091l-0.029-0.039l-0.075-0.023l-0.33,0.047l-0.221,0.005l-0.146-0.049l-0.164-0.018l-0.14,0.029l-0.32,0.039l-0.029-0.008l0.016-0.018l0.307-0.036l0.078-0.031l0.135-0.016l0.231,0.023l0.13,0.003l0.374-0.057l0.12-0.055l0.109-0.133l0.031-0.073l0.091-0.07l0.005-0.042l-0.27-0.107l-0.161-0.042l-0.06,0.003l-0.075,0.057l-0.13,0.013l-0.177-0.052l-0.127-0.005l-0.148,0.034l-0.044,0.034l-0.19,0.018l-0.133,0.042l-0.047,0.049h-0.034l-0.018-0.031l0.029-0.036l0.135-0.049l0.14-0.026l0.205-0.104l0.086-0.018l0.172,0.008l0.099,0.013l0.065-0.026l0.13-0.104l0.003-0.034l-0.031-0.023l-0.325-0.065l-0.122-0.052l-0.008-0.031l0.06-0.013l0.179,0.023l0.081-0.008l0.198,0.013l0.122-0.06l0.099-0.088l0.008-0.034l-0.073-0.068l-0.005-0.042l0.107-0.039l0.036-0.052l-0.013-0.075l-0.049-0.075l-0.036-0.029l0.01-0.044l0.117-0.026l0.029-0.029v-0.13l0.01-0.049l0.042-0.047l-0.016-0.036l-0.065-0.013l-0.062-0.039l-0.021-0.068l-0.034-0.013l-0.052,0.044l-0.036-0.005v-0.052l0.031-0.073l-0.029-0.031l-0.187-0.003l-0.096,0.062l-0.042,0.081l-0.013,0.044l-0.075,0.008l-0.075-0.047l-0.01-0.114l0.018-0.091l-0.044-0.039l-0.203-0.021l-0.023-0.018l0.013-0.026l0.122-0.036l0.01-0.029l-0.047-0.06l-0.013-0.047l-0.104-0.049l-0.156,0.003l-0.122,0.081l-0.101-0.003l-0.26-0.044l-0.286-0.096l-0.301-0.148l-0.296-0.171l-0.231-0.153l-0.075-0.104l0.008-0.06l0.073-0.06l0.057-0.091l0.003-0.042l0.065-0.081l-0.003-0.057l-0.029-0.021l-0.13,0.005l-0.107,0.023l-0.042-0.008l-0.138,0.034l-0.218,0.096l-0.138,0.039l-0.252,0.005h-0.083l-0.034,0.029l-0.091-0.003l-0.042-0.013l-0.078,0.023l-0.026,0.039l-0.114,0.052l-0.091,0.003l-0.07,0.034l-0.047,0.047l-0.078,0.01l-0.099-0.039l-0.029-0.049l0.06-0.065l0.114-0.12l0.068-0.029l0.081-0.099l0.005-0.029l-0.036-0.005l-0.081,0.034l-0.187,0.148l-0.117,0.057l-0.049-0.023l0.016-0.034l0.073-0.01l0.047-0.047l0.065-0.005l0.029-0.018l-0.01-0.062l0.016-0.021l0.023,0.018l0.023-0.005l-0.023-0.086l0.026-0.062l0.062-0.062l0.016-0.078l0.031-0.026l0.218-0.034l0.01-0.018l-0.026-0.031l0.008-0.062l0.049-0.042l0.177-0.07l0.042-0.052l0.013-0.052l0.029-0.039l0.057-0.031l0.068-0.164l0.029-0.151l-0.026-0.19l-0.036-0.039l-0.073-0.023l-0.039-0.047l-0.081-0.197l-0.078-0.068l-0.138-0.044l-0.081,0.005l-0.075,0.06l-0.088,0.023l-0.049,0.042l-0.023,0.065l-0.065,0.065l-0.091,0.018l-0.094-0.01l-0.052-0.081l-0.005-0.049l-0.031-0.013l-0.138,0.021l-0.166,0.003l-0.029-0.013l-0.021-0.039l-0.086-0.023l-0.078,0.008l-0.117,0.036l-0.036-0.013l-0.003-0.031l0.086-0.078l0.023-0.075l-0.016-0.044l0.003-0.042l0.031-0.039l-0.008-0.021l-0.042-0.01l-0.239,0.049l-0.047-0.01l-0.029-0.042l-0.036-0.021l-0.052-0.01l-0.013-0.034l0.031-0.052l0.06-0.018l0.021-0.029v-0.029l0.026-0.013l0.208-0.013l0.208-0.086l0.07-0.068l0.125-0.073l0.138-0.07l0.036-0.055l0.008-0.057l0.031-0.083l-0.003-0.044l-0.203-0.205l-0.052-0.018l-0.088-0.013l-0.023-0.023l0.026-0.026l0.081-0.005l0.052-0.036l0.044-0.057l0.224-0.075l0.117-0.026h0.07l0.104-0.047l0.127-0.112l0.068-0.023l0.073-0.008l0.127-0.052l0.07-0.013l0.091-0.047l0.213-0.034l0.047-0.029l0.159-0.031l0.125-0.091l-0.005-0.023l-0.088-0.003l-0.068,0.023h-0.081l-0.047-0.01l-0.075,0.013l-0.172,0.083l-0.112,0.016l-0.164-0.007l-0.093-0.026l-0.075-0.06l-0.052-0.01l-0.039-0.031l-0.026-0.029l-0.07-0.013l-0.052,0.008l-0.086,0.055l-0.099,0.036H586l-0.086,0.036l-0.052,0.068l-0.047,0.021l-0.086,0.005l-0.029,0.029l-0.034,0.143l-0.034,0.036l-0.049,0.016l-0.018,0.026l-0.01,0.055l-0.083,0.055l-0.078,0.021l-0.044-0.008l-0.013,0.021l0.016,0.062l-0.047,0.042l-0.133,0.042l-0.096-0.003l-0.138,0.029l-0.068,0.039l-0.156,0.008l-0.138-0.042h-0.083l-0.034,0.026v0.042l-0.031,0.049l-0.01,0.068l0.031,0.07l0.008,0.044l-0.005,0.055l0.018,0.049l0.029,0.026l-0.003,0.039l-0.055,0.088l-0.044,0.036l-0.125,0.029l-0.107-0.003l-0.044-0.026l-0.052-0.114l-0.06-0.042l-0.07,0.008l-0.049-0.008l-0.081-0.06l-0.023-0.081l-0.042-0.023l-0.044,0.008l-0.099-0.026l-0.018-0.06l-0.021-0.021h-0.039l-0.086,0.062h-0.065l-0.029-0.018l-0.049-0.008l-0.036,0.021l-0.099-0.016l-0.039-0.034l0.01-0.073l0.07-0.109l-0.013-0.034l-0.042-0.008l-0.096,0.039l-0.036-0.01l-0.07-0.06l-0.125-0.034l-0.008-0.031l0.042-0.013h0.083l0.075-0.075l0.052-0.018l0.135-0.161l0.026-0.094l-0.008-0.065l-0.044-0.083l0.01-0.078l-0.047-0.127l-0.057-0.018l-0.177,0.005l-0.135-0.042l-0.049,0.005l-0.042,0.021l-0.049-0.008l-0.021-0.031l0.018-0.029l0.06-0.026v-0.023l-0.052-0.018l-0.049,0.005l-0.036,0.031h-0.062l-0.026-0.042l-0.044-0.005l-0.042,0.036l-0.083,0.008l-0.023-0.018l0.005-0.034l0.057-0.026l-0.003-0.029l-0.057-0.026l-0.01-0.052l-0.029-0.033l0.005-0.019l0.023-0.003l0.026,0.019l0.026-0.016l-0.007-0.036l-0.042-0.028l0.005-0.043l0.097-0.026l0.003-0.028l-0.047-0.019l-0.019-0.038l0.021-0.035l-0.017-0.024l-0.052-0.019l-0.042,0.012l-0.024,0.016l-0.024-0.014l0.016-0.036l0.031-0.024l-0.003-0.023l-0.024-0.009l-0.029,0.016l-0.021-0.009l0.003-0.024l-0.026-0.01l-0.05,0.01l-0.035-0.005l-0.019-0.064l-0.055-0.059l-0.035-0.002l-0.009,0.026l0.002,0.045l-0.052,0.014l-0.043-0.023l-0.029,0.009l0.01,0.04l-0.021,0.014l-0.045-0.024l-0.031-0.038l-0.068-0.038l-0.116,0.005l-0.043-0.016l-0.08,0.016l-0.036,0.014l-0.028-0.012v-0.026l-0.019-0.005l-0.033,0.029l-0.012,0.05l0.002,0.057l-0.035,0.059l-0.047,0.019l-0.05-0.009l-0.01-0.026l0.019-0.014l-0.007-0.023l-0.035-0.003l-0.021,0.021l0.007,0.024l0.023,0.017l-0.007,0.023l-0.024,0.005l-0.007,0.045l-0.076,0.033l-0.116,0.017l-0.078-0.016l-0.017-0.059l-0.076-0.064l-0.074-0.016l-0.054,0.005l-0.026,0.031l-0.033,0.005l-0.014,0.014l-0.005,0.019h-0.04l-0.021-0.021l0.002-0.026l0.024-0.017l-0.002-0.023l-0.038-0.036l-0.04-0.002l-0.121,0.021l-0.01,0.019l0.021,0.026l-0.005,0.012l-0.028-0.005l-0.031-0.028l-0.035,0.002l-0.045,0.023l-0.035,0.002l-0.054-0.014l-0.031,0.003l-0.01,0.029l-0.003,0.035l-0.043,0.043l-0.01,0.033l-0.019,0.01l-0.007,0.026l0.024,0.035l0.045,0.023l0.042,0.04l0.01,0.029l-0.012,0.026l0.014,0.047l0.043,0.028l0.026,0.045l0.007,0.038l0.064,0.076l-0.002,0.021l-0.031,0.01l-0.033-0.007l-0.019,0.01l-0.007,0.017l0.021,0.042l0.035,0.026l0.014,0.071l-0.029,0.035l0.003,0.021l0.026,0.026l-0.002,0.029l-0.019,0.059l0.028,0.064l0.055,0.031l0.04,0.068l0.016,0.074v0.043l0.026,0.062l0.055,0.028l0.052,0.055l-0.003,0.035l0.016,0.024l0.055,0.036l0.005,0.052l-0.038,0.055l-0.002,0.057l0.012,0.043l-0.029,0.062l-0.075,0.071l-0.111,0.116l-0.146,0.097l-0.265,0.109l-0.343,0.097l-0.255,0.114l-0.253,0.068l-0.253,0.023l-0.184-0.019l-0.021-0.023l0.014-0.04l-0.01-0.043l-0.106-0.076l-0.005-0.029l0.014-0.024l-0.036-0.092l0.003-0.033l-0.047-0.066l-0.073-0.023l-0.038-0.028l-0.007-0.019l-0.033-0.007l-0.09,0.017h-0.133l-0.043,0.016l-0.066-0.002l-0.04-0.012l-0.017-0.024h-0.019l-0.003,0.019l0.023,0.061l-0.024,0.043l-0.04,0.009l-0.092-0.01l-0.033-0.033l-0.028-0.002l-0.083,0.017l-0.047,0.038l-0.017,0.055l-0.023,0.014l-0.069,0.023l-0.029,0.043l-0.002,0.054l0.023,0.026l0.029,0.009l0.012,0.023l-0.01,0.159l-0.038,0.049l-0.114,0.094l-0.111,0.021l-0.038-0.016l-0.033,0.002l-0.012,0.023l0.014,0.026l0.033,0.012l0.003,0.024l-0.019,0.016l-0.055,0.01l-0.002,0.016l0.04,0.026l-0.003,0.021l-0.05,0.106l-0.005,0.042l0.023,0.014l0.024-0.014l0.021,0.01v0.031l-0.029,0.029l-0.085,0.042l-0.024,0.057l0.024,0.035l-0.003,0.024l-0.05,0.033l-0.1,0.05l-0.187,0.045l-0.249,0.012l-0.275-0.014l-0.123-0.038l-0.066-0.052l-0.035-0.12l0.002-0.066l-0.016-0.024l-0.052-0.021l-0.064-0.097l-0.213-0.17l-0.156-0.08l-0.021-0.055l-0.061-0.031l-0.095,0.009l-0.049-0.01l-0.076-0.066l-0.028-0.049l0.005-0.023l0.021-0.009l-0.005-0.024l-0.073-0.016l-0.049-0.05l-0.209-0.066l-0.111,0.009l-0.052,0.043l-0.126,0.042l-0.057-0.012l-0.021-0.033l0.026-0.031l-0.002-0.021l-0.061-0.047l-0.081-0.003l-0.036,0.033v0.033l-0.016,0.024l-0.043-0.005l-0.023-0.029l-0.01-0.059l-0.029-0.023l-0.128,0.003l-0.262-0.035l-0.048,0.016l-0.13,0.097l-0.019,0.031l-0.028,0.213l0.069,0.163l0.018,0.175l0.073,0.216l-0.003,0.055l0.078,0.158l0.078,0.096l0.208,0.158l-0.005,0.034l-0.075,0.047l-0.005,0.07l0.049,0.083l0.086,0.055l0.049-0.013l0.057,0.021l0.016-0.018l-0.034-0.049l0.018-0.016l0.052,0.034l0.013,0.065l0.078,0.109l0.055,0.039l0.078,0.294l-0.004,0.147l-0.092,0.273l0.036,0.252l0.094,0.179l0.031,0.161l-0.034,0.029l-0.052-0.039l-0.034-0.073l0.018-0.052l-0.042-0.06l-0.081-0.026l-0.086-0.133l-0.081-0.052l-0.02-0.144l0.025-0.079l-0.01-0.099l-0.094-0.055l-0.026-0.062v-0.229l-0.036-0.091l-0.088-0.078l-0.1-0.003l-0.048-0.044l-0.049-0.157l-0.115-0.149l-0.052-0.109l-0.049-0.026l-0.218-0.031l-0.091,0.018l-0.088-0.042l-0.023-0.049l-0.047-0.016l-0.081,0.018l-0.094-0.023l-0.065-0.125l0.036-0.166l0.031-0.039l-0.005-0.047l-0.031-0.018l-0.013-0.068l0.01-0.044l-0.031-0.112l-0.062-0.125l-0.07-0.044h-0.062l-0.179,0.091l-0.107,0.021l-0.031-0.023l0.023-0.049l0.109-0.062l0.068-0.07l0.01-0.07l-0.101-0.135l-0.138-0.114l-0.094-0.016l-0.146,0.036l-0.091,0.096l-0.023,0.06l-0.044,0.013l-0.034-0.023l0.023-0.125l0.101-0.117l-0.01-0.057l-0.073-0.062l-0.169-0.044l-0.086,0.01l-0.039-0.01l-0.003,0.018l0.042,0.023l0.008,0.06l-0.068,0.138l-0.101,0.101l-0.075,0.036l-0.003-0.031l0.039-0.094l0.01-0.094l-0.06-0.073l-0.13-0.021l-0.088,0.026l-0.109,0.086l-0.184,0.073l-0.055,0.06l-0.055,0.187v0.062l-0.036,0.081l-0.078,0.042h-0.081l-0.018,0.026l0.026,0.06l-0.029,0.031l-0.065,0.013l-0.104-0.073l-0.086-0.023l-0.12,0.034l-0.249,0.01l-0.109,0.026l-0.039-0.01l-0.003-0.023l-0.021-0.005l-0.07,0.068l-0.099,0.057l-0.101,0.036l-0.039,0.049l0.01,0.078l0.114,0.171l-0.043,0.138l-0.178,0.054l-0.111,0.005l-0.047,0.036l0.002,0.047l0.029,0.052l0.087,0.033l0.076,0.068l0.135,0.236l0.059,0.024l0.016,0.045l0.003,0.078l0.126,0.204l0.002,0.055l-0.088,0.081l-0.002,0.028l0.052,0.094l-0.009,0.073l-0.062,0.045l-0.017,0.035l-0.002,0.088l-0.055,0.042l-0.177,0.071h-0.064l-0.097-0.069l-0.042-0.064l-0.062-0.059l-0.038-0.005l-0.038,0.042l-0.01,0.078l-0.031,0.028l-0.094,0.014l-0.116-0.003l-0.058-0.025l-0.007-0.065l-0.021-0.031l-0.057-0.005l-0.012-0.043l0.021-0.114l-0.005-0.092l-0.019-0.024l-0.033-0.023l-0.048-0.182l-0.057-0.121l-0.104-0.076l-0.002-0.038l-0.024-0.016l-0.049,0.009l-0.218-0.085l-0.049-0.036l-0.035-0.002l-0.036,0.033h-0.057l-0.029-0.033l0.005-0.099l-0.057-0.09l-0.078-0.057l-0.05-0.003l-0.016-0.023v-0.04l-0.028-0.035l-0.024-0.016l0.003-0.023l0.024-0.007l0.026,0.009l0.014-0.01l-0.012-0.038l-0.035-0.021l-0.073-0.128l-0.05-0.035l-0.108-0.095l-0.091-0.158l0.01-0.049l-0.035-0.045l-0.045-0.024l-0.028-0.076l0.028-0.024l-0.014-0.028l-0.104-0.028l-0.114-0.097v-0.031l0.031-0.021l-0.003-0.035l-0.038-0.017l-0.028,0.014l-0.007,0.028l-0.073,0.003l-0.055-0.049l-0.076-0.021l-0.066,0.014l-0.118,0.097l-0.103,0.037l-0.14-0.003l-0.06-0.018l-0.044,0.008l-0.065,0.083l-0.07,0.029l-0.096-0.026l-0.112,0.008l-0.044,0.016l-0.005,0.042l0.062,0.086l-0.008,0.07l-0.052,0.114l-0.005,0.057l-0.044,0.036l0.008,0.036l0.047,0.01l0.023,0.023l0.003,0.049l0.031,0.044l0.042,0.026l0.021,0.075l-0.013,0.114l0.031,0.094l0.034,0.031l0.01,0.029l-0.005,0.042l0.068,0.122l0.018,0.094l0.049,0.068l0.057,0.039l0.034,0.078l-0.005,0.036l-0.029,0.021l0.008,0.026l0.036,0.042l-0.01,0.034l-0.047,0.026l-0.005,0.042l0.026,0.01l0.034,0.008l0.01,0.021v0.044l0.044,0.125l0.044,0.031l0.013,0.039l-0.018,0.055l0.013,0.052l0.026,0.036l0.021,0.107l-0.008,0.094l-0.047,0.112l-0.052,0.055l-0.029,0.083l0.031,0.083l-0.01,0.042l-0.031,0.031l-0.055,0.166l-0.042,0.057l-0.164,0.068l-0.26,0.065l-0.286,0.034h-0.239l-0.143-0.034l-0.023-0.042l0.029-0.083l0.003-0.112l-0.031-0.07l0.013-0.083l0.031-0.042l-0.005-0.029l-0.055-0.005l-0.039,0.008l-0.023-0.016l-0.005-0.044l-0.029-0.021h-0.039l-0.039,0.047l-0.039,0.018l-0.026-0.023l-0.031,0.003l-0.185,0.117l-0.036,0.057l-0.101,0.099l-0.262,0.156l-0.068,0.01l-0.057,0.055l-0.013,0.039l-0.109,0.083l-0.021,0.044l0.013,0.055l-0.039,0.078l-0.005,0.06l-0.096,0.174l-0.044,0.148l-0.008,0.094l0.031,0.057l0.023,0.164l0.042,0.088l0.039,0.031l0.013,0.052l0.01,0.073l0.135,0.218l-0.003,0.036l-0.06,0.031l-0.062,0.005l-0.062-0.039l-0.114-0.164l-0.146-0.26l-0.008-0.083l-0.029-0.044l-0.06-0.065l-0.044-0.008l-0.078,0.039l-0.013,0.034l0.044,0.073l0.005,0.091l-0.018,0.049l0.01,0.164l0.055,0.203l0.013,0.14l-0.047,0.109l-0.047,0.036l-0.003,0.057l0.029,0.029l-0.018,0.023l-0.042,0.018l-0.026,0.062l0.029,0.07l0.042,0.034l0.081,0.203l0.031,0.171l0.008,0.127l-0.016,0.073l-0.029-0.003l-0.049-0.044l-0.016-0.161l-0.008-0.148l-0.117-0.122l-0.06-0.164l-0.065-0.073l-0.016-0.06l-0.036-0.021l0.008-0.021l0.023-0.008l-0.005-0.023l-0.075-0.021l-0.034-0.055l0.023-0.075l0.044-0.062v-0.171l-0.026-0.042l-0.016-0.099l0.021-0.057l-0.01-0.065l-0.078-0.044l-0.005-0.029l0.042-0.068l-0.008-0.039l-0.034-0.013l-0.026,0.023l-0.034-0.01l-0.01-0.039l-0.088-0.073l-0.07-0.034l-0.018-0.026l-0.026-0.114l-0.039-0.016l-0.156,0.042l-0.159,0.099l-0.127,0.026l-0.179,0.081l-0.047,0.003l-0.01-0.026l0.081-0.047l0.247-0.133l0.01-0.044l0.068-0.055l0.109-0.075l0.101-0.109l0.057-0.135l0.003-0.101l-0.026-0.042l0.008-0.127l-0.029-0.042l-0.208-0.016l-0.086,0.031l-0.114,0.096l-0.081,0.078l-0.083,0.047h-0.068l-0.021-0.031l0.06-0.078l0.133-0.122l0.114-0.06l0.018-0.065l-0.005-0.062l-0.065-0.047l-0.195-0.042l-0.049-0.034l-0.057,0.005l-0.049,0.036l-0.153,0.01l-0.236-0.036l-0.075,0.008l-0.034-0.016v-0.039l-0.075-0.065l0.003-0.055l-0.029-0.07l-0.086-0.044l-0.003-0.036l0.055-0.039l0.055-0.005l0.01-0.042l-0.078-0.125l-0.005-0.047l-0.073-0.075l-0.107-0.026l-0.042-0.036l-0.094-0.026l-0.039,0.003l-0.01-0.018l0.042-0.016l0.109-0.003l0.06,0.023h0.068l0.101,0.034l0.049,0.044l0.075,0.164l0.031,0.026l0.047,0.016l0.042,0.036l0.018,0.036l0.052,0.073l0.055,0.018l0.036-0.013l0.029,0.005l0.016,0.023l0.148,0.016l0.135-0.003l0.052,0.021l0.094-0.008l0.042-0.029l0.013-0.044l0.023-0.018l0.044-0.008l0.075-0.078l0.008-0.031l0.026-0.018l0.062-0.01l0.075-0.044l0.021-0.044l-0.013-0.026l-0.062-0.003l-0.078-0.034l-0.06-0.013l-0.036-0.073l-0.026-0.005l-0.068,0.034l-0.078,0.003l-0.06-0.039l0.008-0.029l0.083-0.039l0.182-0.018h0.068l0.156-0.104l0.068-0.099l0.039-0.078l0.049-0.026l0.005-0.031l-0.01-0.042l0.013-0.049l0.042-0.042l-0.016-0.031l-0.107-0.039l-0.057-0.01l0.005-0.026l0.122-0.044l0.044-0.065v-0.091l-0.029-0.044l-0.008-0.065l-0.062-0.075l-0.091-0.026l-0.166,0.034l-0.057,0.018h-0.143l-0.068,0.016l-0.023-0.016l0.029-0.039l0.122-0.026l0.125-0.036l0.031-0.036l-0.013-0.034l-0.107-0.026l-0.127,0.016l-0.127,0.055l-0.057,0.003l-0.06-0.01l-0.068,0.008l-0.101,0.047l-0.042,0.003l-0.039-0.008l-0.023,0.008l-0.021,0.021l-0.047-0.005l-0.005-0.029l0.021-0.021l-0.016-0.021l-0.042-0.005v-0.029l0.042-0.013l0.14-0.013l0.164-0.055l0.101,0.008l0.065-0.016l0.146-0.055l0.161-0.026l0.195,0.005l0.039,0.01l0.039-0.023l-0.018-0.065l-0.06-0.047l-0.065-0.016l-0.096-0.057l-0.047-0.057l-0.062-0.008l-0.086,0.039l-0.109,0.016l-0.052,0.034l-0.099,0.013l-0.062-0.013l-0.031-0.047l-0.081-0.036l-0.008-0.034l0.023-0.008l-0.01-0.031l-0.073-0.039l-0.005-0.023l0.042-0.013l0.146,0.052l0.049-0.01l0.008-0.034l-0.133-0.158l-0.013-0.062l-0.065-0.016l-0.107,0.039l-0.042,0.003l-0.042-0.018l-0.047,0.01l-0.016,0.057l0.016,0.052l0.068,0.06v0.073l-0.036,0.096l-0.104,0.055l-0.091,0.034l-0.018-0.018l0.018-0.034l0.099-0.065l0.034-0.062l-0.01-0.057l-0.075-0.075l-0.055-0.008l-0.034,0.031l-0.029,0.049l-0.039,0.018l-0.065-0.013l-0.06-0.07v-0.039l0.016-0.029l-0.029-0.047l-0.039-0.026l0.003-0.039l0.081-0.068l-0.013-0.034l-0.047-0.034l-0.081-0.013l-0.023-0.021l0.008-0.023l0.065-0.023l0.021-0.021l0.005-0.036l0.065-0.075l0.003-0.029l-0.06-0.029l-0.078-0.008l-0.029-0.036l0.01-0.044l0.078-0.044l-0.01-0.021l-0.075,0.01l-0.177-0.005l-0.065-0.034l-0.185-0.042l-0.094-0.068l-0.016-0.034l-0.07-0.018l-0.083,0.013l-0.122,0.068l-0.052,0.018l-0.023-0.016l0.042-0.034l0.148-0.075l0.06-0.029l0.052-0.096l-0.016-0.034h-0.065l-0.057-0.031l-0.005-0.12l-0.042-0.013l-0.07,0.013l-0.052,0.052l-0.114,0.008l-0.083,0.026l-0.078-0.008l-0.034-0.062l0.003-0.055l0.039-0.062v-0.042l-0.031-0.008l-0.034,0.023l-0.021,0.06l-0.034,0.026l-0.041,0.096l-0.037,0.008l-0.041,0.041l-0.022-0.004l0.001-0.032l0.037-0.048l0.001-0.068l-0.039-0.03l-0.043,0.008l-0.099,0.077l-0.037,0.004l-0.046,0.033l-0.037-0.003l-0.047-0.033l-0.008-0.032l0.04-0.046l0.008-0.035l0.07-0.072l-0.006-0.032l-0.094-0.032l-0.019-0.033l0.015-0.036l0.066-0.035l0.069-0.08l0.012-0.03l-0.014-0.004l-0.069,0.028l-0.086,0.003l-0.046-0.026l-0.012-0.036l0.021-0.03l0.037-0.022l-0.001-0.015l-0.093-0.028l-0.037-0.001l-0.018-0.018l-0.001-0.026l0.022-0.015l-0.007-0.021l-0.052-0.028l-0.041-0.004l-0.028,0.003l-0.026-0.01l-0.011-0.025l-0.043-0.021l-0.043,0.003l-0.023-0.007l-0.057-0.036l-0.012-0.043l-0.087-0.088l-0.007-0.091l-0.022-0.075l-0.032-0.032l-0.007-0.029l0.017-0.01l-0.007-0.017l-0.033-0.006l-0.026-0.019l-0.08-0.025l-0.102-0.018l-0.018,0.011l0.01,0.03l0.105,0.086l0.011,0.04l-0.011,0.046l-0.052,0.028l-0.075,0.015l-0.04-0.01l-0.015-0.025l-0.043-0.014l-0.05,0.012l-0.017-0.008l-0.003-0.037l0.003-0.035l-0.025-0.029l-0.057-0.014l-0.039-0.039l-0.076-0.052l-0.051-0.012l-0.057,0.004l-0.058,0.019l-0.003,0.026l0.046,0.065l-0.004,0.026l-0.023,0.03l-0.052,0.008l-0.055,0.052l-0.003,0.033l-0.04,0.022l-0.021,0.029l-0.051,0.018l-0.109-0.006l-0.061-0.028l-0.029-0.041l-0.001-0.057l-0.048-0.03l-0.075-0.003l-0.046-0.003l-0.063-0.03l-0.035,0.007l-0.026-0.006l-0.083-0.062l-0.044-0.039l-0.101-0.034h-0.153l-0.078-0.016l-0.047,0.003l-0.034,0.021l0.005,0.029l0.094,0.039l0.003,0.042l-0.052,0.055l-0.062,0.029l-0.104,0.005l-0.135-0.018l-0.052,0.034l-0.036,0.068l-0.039,0.005l-0.062-0.055l-0.081-0.049h-0.07l-0.068,0.026l-0.01,0.026l0.081,0.055l0.148,0.161l0.081,0.039l0.049-0.008l0.021-0.013l0.034,0.01l0.026,0.039l-0.003,0.073l-0.031,0.073l-0.049,0.031l-0.07,0.01l-0.023,0.016l-0.008,0.029l-0.078,0.023l-0.052-0.01l-0.026-0.029l-0.039-0.013l-0.042,0.003l-0.146-0.044l-0.06-0.023l-0.036,0.013l-0.008,0.055l0.039,0.055l0.125,0.091l0.164,0.057l0.104,0.026l0.127,0.062l0.055,0.042l0.057,0.003l0.075-0.01l0.099,0.008l0.057-0.013l0.062-0.039l0.148-0.034l0.062-0.049l0.008-0.031l-0.01-0.029l0.047-0.075l0.101-0.036l0.112-0.023l0.049-0.029l0.018-0.049l0.031-0.023l0.018,0.005l-0.016,0.055l-0.047,0.068l-0.049,0.026h-0.044l-0.018,0.021l-0.042,0.107l-0.01,0.039l0.018,0.026l0.12-0.003l0.192-0.049l0.109-0.075l0.021-0.036l0.047-0.031l0.021-0.034l0.003-0.047l0.042-0.031l0.122-0.008l0.036-0.021l0.122-0.013l0.018,0.029l-0.016,0.036l-0.161,0.023l-0.031,0.023l-0.029,0.008l-0.008,0.023v0.075l-0.031,0.06l-0.062,0.055l-0.039,0.057l0.003,0.044l0.096,0.044l0.114,0.018l0.117,0.005l0.073,0.016l0.06-0.01l0.075-0.049l0.12-0.06l0.049-0.073l0.039-0.021l0.005-0.036l-0.031-0.031l0.008-0.021l0.036,0.005l0.018,0.023l0.023,0.003l0.023-0.008l0.021,0.01l-0.003,0.023l-0.029,0.01l-0.003,0.042l0.021,0.023l0.055-0.008l0.021,0.016l-0.016,0.016l-0.086,0.023l-0.07,0.078l-0.055,0.031l-0.107,0.023l-0.042,0.039l-0.031,0.044l0.013,0.021l0.294,0.013l0.125-0.018l0.12-0.042l0.055-0.005l0.052,0.016l0.068-0.005l0.039,0.01l-0.016,0.018l-0.091,0.034l-0.086,0.005l-0.06,0.031l-0.125,0.029l-0.127,0.013l-0.06-0.003l-0.023,0.016l0.008,0.034l-0.008,0.018l-0.062-0.021l-0.065-0.039l-0.026,0.01l-0.003,0.065l0.016,0.029l0.031,0.013l0.003,0.026l-0.026,0.023l-0.042,0.003l-0.075-0.044l-0.034-0.073l-0.057-0.031l-0.026,0.005l-0.023,0.023h-0.125l-0.081-0.016l-0.223-0.109l-0.088-0.01l-0.073,0.01l-0.096-0.008l-0.127,0.021l-0.112,0.039l-0.005,0.026l0.021,0.018l-0.01,0.023l-0.047,0.008l-0.052-0.013l-0.088,0.01l-0.073,0.031l-0.062,0.003l-0.049,0.029l-0.008,0.065l0.075,0.14l0.052,0.034l0.107,0.109l0.146,0.101l0.07,0.018l0.078,0.044l0.081,0.016h0.057l0.083,0.031l0.021,0.031l0.044,0.013l0.049-0.003l0.114,0.021l0.065,0.044l0.179,0.062l0.047-0.003l0.185,0.049l0.047,0.039l0.016,0.049l0.055,0.026l0.169,0.062l0.112,0.016l0.088-0.01l0.109-0.065l0.094-0.021l0.029-0.023l0.023,0.008l-0.005,0.031l-0.06,0.049l-0.159,0.065l-0.07,0.044l-0.008,0.052l0.029,0.044l-0.018,0.044l-0.023,0.029l-0.034-0.003l-0.021,0.026l0.016,0.055l0.034,0.016h0.039l0.138,0.091l0.109,0.14l0.043,0.166l0.002,0.055l0.019,0.049l-0.014,0.031l0.031,0.055l0.036,0.007l0.081,0.062l0.003,0.023l-0.018,0.029l-0.028-0.003l-0.014-0.028h-0.035l-0.045,0.035l-0.017,0.042l0.014,0.055l-0.021,0.048l-0.094,0.1l-0.028,0.052l-0.014,0.087l-0.059,0.052l-0.076,0.017l-0.052,0.049l-0.031,0.059l-0.066,0.038l-0.062,0.055l-0.107,0.059l-0.114,0.031l-0.028-0.007l0.024-0.024l0.08-0.031l0.118-0.094l0.121-0.083l0.087-0.107l0.024-0.097l0.042-0.048l0.08-0.083l0.003-0.038l-0.01-0.031l0.052-0.097l-0.006-0.061l-0.021-0.034l0.003-0.055l-0.023-0.013l-0.029,0.013l-0.01,0.039l0.023,0.062l0.023,0.018l0.003,0.034l-0.018,0.039l-0.052,0.034l-0.023-0.023l0.003-0.06l-0.021-0.096l0.018-0.049l0.027-0.033l-0.01-0.052l-0.066-0.059l-0.031-0.002l-0.014,0.016l0.009,0.029l0.035,0.029l-0.012,0.026l-0.023,0.003l-0.012-0.033l-0.017-0.005l-0.028,0.007l-0.035-0.033v-0.038l0.014-0.023l-0.002-0.031l-0.054-0.064l-0.003-0.047l-0.028-0.016l-0.028,0.005l-0.01,0.029l0.016,0.04l-0.007,0.024l-0.024,0.019l-0.01,0.061l0.014,0.04l-0.038,0.078l-0.078,0.038l-0.014,0.026l0.021,0.026l0.005,0.028l-0.054,0.095l-0.035,0.017l-0.016,0.026l0.002,0.055l-0.019,0.035l-0.064,0.038l-0.012,0.035l0.007,0.1l-0.019,0.038l-0.062,0.092l-0.033,0.021l-0.047-0.002l-0.014-0.016l0.023-0.033l0.04-0.031l0.026-0.064l-0.028-0.033l0.002-0.042l0.031-0.076l0.054-0.055l0.031-0.016l0.01-0.023l-0.002-0.036l0.068-0.111v-0.024l-0.014-0.017l0.003-0.033l0.036-0.029l0.007-0.028l-0.017-0.021v-0.028l0.023-0.028l-0.002-0.029l-0.019-0.016l-0.003-0.028l0.038-0.052l0.01-0.047l-0.016-0.017l-0.024-0.002l-0.017,0.016l-0.026-0.01l-0.019-0.05l0.026-0.029l-0.002-0.017l-0.017-0.003l-0.017,0.009l-0.024-0.01l-0.01-0.068l-0.026-0.055l-0.031-0.01l-0.045,0.007l-0.081-0.035l-0.029-0.036l-0.002-0.042l-0.04-0.064l-0.061-0.036h-0.052l-0.024,0.014l-0.007,0.021h-0.035l-0.04-0.031l-0.023-0.043l-0.042-0.017l-0.035,0.007l-0.023,0.064l-0.007,0.092l-0.026,0.038l-0.003,0.085l-0.019,0.024l0.002,0.028l0.036,0.042l0.005,0.074l-0.033,0.064l-0.005,0.055l0.026,0.049l-0.01,0.055l-0.057,0.116l-0.071,0.059l-0.033,0.047l-0.026,0.081l-0.023,0.024l-0.042-0.003l-0.014-0.043l0.017-0.095l0.076-0.087l0.033-0.076l0.003-0.182l0.028-0.088l-0.002-0.04l-0.04-0.04l-0.049-0.002l-0.062,0.054l-0.043,0.097l-0.019,0.08l-0.109,0.09l-0.104,0.05l-0.043,0.062l-0.075,0.048l-0.042,0.062l-0.035,0.021l-0.026-0.007l0.009-0.043L556.32,162l0.061-0.033l0.026-0.026l0.01-0.036l0.033-0.033l0.111-0.054l0.047-0.055l0.029-0.062l0.003-0.04l0.023-0.038l0.031-0.023l0.036-0.062l0.019-0.102l-0.009-0.036l-0.024-0.031l0.002-0.023l0.016-0.012l-0.01-0.023l-0.021-0.002l-0.031,0.005l-0.021-0.005l-0.014,0.012l0.019,0.042l0.019,0.026l-0.002,0.021l-0.035,0.021l-0.042,0.087l-0.038,0.05l-0.045,0.024l-0.012,0.029l0.028,0.054l0.026,0.028l-0.003,0.024l-0.023,0.012l-0.031-0.016l-0.019-0.04l-0.033-0.036l-0.005-0.074l0.021-0.052l0.054-0.026l0.01-0.042l-0.014-0.059l-0.043-0.073l-0.014-0.059l-0.028-0.005l-0.035,0.064l-0.033,0.123l-0.042,0.052l-0.121,0.092l-0.074,0.062l-0.01,0.035l-0.024,0.023l-0.04,0.007l-0.069,0.045l-0.042,0.01l-0.016-0.017l0.01-0.029l0.062-0.043l0.055-0.078l0.054-0.069l0.126-0.08l0.043-0.055l0.017-0.118l-0.016-0.074l0.002-0.123l-0.023-0.054l-0.069-0.061l-0.073-0.04l-0.055-0.002L556,160.965l-0.111,0.116l-0.12,0.085l-0.085,0.038l-0.047-0.003l-0.035-0.026l0.002-0.024l0.073-0.036l0.068-0.01l0.028,0.023l0.021-0.014l0.005-0.026l-0.023-0.021l0.009-0.043l0.054-0.094l-0.012-0.05l-0.023-0.017l-0.016-0.026l-0.002-0.042l-0.069-0.076l-0.078-0.054l-0.142-0.059l-0.045-0.003l-0.043,0.016l-0.05-0.01l-0.036-0.04l-0.023-0.073l-0.068-0.047l-0.14-0.042l-0.085-0.01l-0.076-0.026l-0.059-0.005h-0.073l-0.111-0.019l-0.035-0.016l-0.149-0.01l-0.048,0.021l-0.005,0.035l0.014,0.033l-0.01,0.017l-0.043,0.012l-0.075-0.012l-0.087,0.005l-0.078,0.059l-0.076,0.073l-0.09,0.036l-0.014,0.026l0.024,0.026l0.05,0.014l0.114-0.01l0.114,0.026l0.014,0.014l0.071,0.012l0.052,0.003l0.102,0.043l0.059,0.099l0.085,0.064l0.061,0.012l0.128,0.069l0.019,0.029l-0.017,0.012l-0.038-0.009l-0.092-0.061l-0.097-0.028l-0.059-0.04l-0.083-0.085l-0.092-0.042l-0.094-0.035l-0.09-0.019l-0.048,0.007l-0.061,0.05l-0.04,0.014l-0.159,0.014l-0.083-0.005l-0.048,0.016l-0.017,0.017l0.005,0.023l0.064,0.074l0.061,0.023l0.042,0.038l0.094,0.043l0.165,0.116l0.104,0.047l0.023,0.047l0.021,0.005l0.028-0.017l0.054,0.005l0.097,0.059l0.05,0.012l0.031,0.036l0.04,0.01l0.069,0.057l0.028,0.066l-0.007,0.048l0.01,0.017l0.028,0.005l0.012,0.019l-0.003,0.04l-0.021,0.014l-0.047-0.016l-0.021-0.036l-0.012-0.071l-0.04-0.05l-0.009-0.047l-0.012-0.007l-0.017,0.031l-0.055,0.009l-0.149-0.055l-0.149-0.033l-0.066-0.002l-0.211-0.085l-0.066-0.019l-0.076-0.045l-0.081-0.029l-0.05-0.002l-0.042,0.016l-0.054-0.003l-0.121-0.057l-0.066-0.014l-0.064,0.019l-0.073,0.076l-0.029,0.076l-0.021,0.029l-0.026,0.012l0.002,0.031l0.05,0.074v0.033l-0.021,0.021l0.002,0.023l0.062,0.021l0.107,0.1l0.019,0.036l0.074,0.057l0.054,0.024l0.085,0.048l0.029,0.042l0.184,0.121l0.052,0.01l0.085,0.036l0.021,0.023l0.007,0.036l0.111,0.074l0.074,0.012l0.076,0.036l0.081,0.005l0.05-0.021l0.038,0.003l0.055,0.035l0.049,0.019l0.028,0.023l0.025,0.057l-0.006,0.023l0.009,0.007l0.028-0.007l0.1,0.036l0.094,0.007l0.121-0.007l0.064,0.014l0.137,0.068l0.059,0.003l0.05,0.019l0.012,0.019l0.04,0.01l0.042-0.005l0.144,0.028l0.04,0.017l-0.005,0.014l-0.064,0.002l-0.128-0.003l-0.147-0.043l-0.055-0.026l-0.071-0.007l-0.042-0.023l-0.038-0.005l-0.023-0.014h-0.028l-0.036,0.021l-0.114-0.002l-0.061-0.028l-0.042-0.003l-0.04,0.002l-0.066-0.007l-0.078-0.04l-0.05-0.057l-0.017-0.04l-0.029-0.005l-0.029,0.003l-0.071-0.005l-0.074,0.023l-0.062,0.031l-0.066,0.007l-0.066-0.017l-0.035-0.031l-0.033-0.007h-0.04l-0.028-0.017l-0.016-0.045l0.007-0.019l-0.023-0.019l-0.049-0.003l-0.099-0.042l-0.194-0.047l-0.087-0.031l-0.045-0.002l-0.092-0.026l-0.075,0.002l-0.095,0.035l-0.04,0.043l-0.026,0.074l-0.019,0.036l-0.023,0.016l-0.003,0.026l0.024,0.023l0.024,0.083l0.033,0.031l0.016,0.033v0.033l0.052,0.107l0.05,0.049l0.156,0.107l0.118,0.107l0.118,0.073l0.066,0.014l0.052,0.002l0.151,0.038l0.113,0.042l0.175,0.031l0.114,0.029l0.029-0.005l0.021-0.026l0.038-0.005l0.071,0.01l0.114,0.007l0.057-0.009l0.135,0.014l0.12-0.01l0.059-0.028l0.116-0.012l0.066,0.005l0.04,0.01l0.05-0.005l0.168-0.099l0.062-0.014l0.043-0.019l0.04,0.003l0.066,0.038l0.01,0.019l-0.017,0.023l-0.081,0.024l-0.066,0.01l-0.074,0.047l-0.003,0.028l0.043,0.026l0.055,0.01l0.009,0.035l-0.01,0.026l-0.052,0.009l-0.132-0.029l-0.13,0.003l-0.109-0.003l-0.035,0.005l-0.076,0.045l-0.062,0.021l-0.111-0.003l-0.04,0.016l-0.236-0.005l-0.076,0.024l-0.107,0.012l-0.016,0.021l0.035,0.029l0.024,0.052l0.106,0.069l0.012,0.019l-0.003,0.024l0.026,0.016l0.038-0.003l0.045,0.014l0.012,0.024l0.241,0.043l0.066-0.003l0.047-0.021l0.128-0.016l0.038,0.014l0.031-0.002l0.033-0.019h0.066l0.031-0.01l0.031,0.009l-0.005,0.014l-0.036,0.016l-0.059,0.012l-0.054,0.029l-0.049,0.009l-0.071-0.009l-0.038,0.012l-0.031,0.031l-0.068,0.019l-0.12,0.002l-0.029,0.012l-0.007,0.019l0.094,0.102l0.045,0.016l0.002,0.023l-0.05,0.038l-0.074,0.005l-0.054-0.023l-0.069-0.068l-0.085-0.052h-0.033l-0.003,0.026l0.026,0.033l0.003,0.05l-0.016,0.014l-0.024-0.009l-0.049-0.049l-0.042-0.005l-0.052,0.059l-0.04,0.066l-0.009,0.035l-0.029,0.023l-0.08-0.012l-0.014-0.023l0.016-0.028l-0.005-0.031l-0.019-0.021l0.003-0.035l0.078-0.064l0.01-0.045l-0.031-0.069l-0.036-0.033l-0.033-0.092l-0.031-0.021l-0.047,0.002l-0.042,0.036l-0.026-0.002l0.005-0.028l0.035-0.021l0.007-0.024l-0.01-0.047l-0.069-0.036l-0.099-0.024l-0.066-0.029l-0.073-0.007l-0.101-0.043l-0.029-0.024l-0.04-0.007l-0.057,0.002l-0.147-0.08l-0.116-0.016l-0.172-0.125l-0.069-0.017l-0.057,0.005l-0.055-0.007l-0.13-0.092l-0.019-0.029l-0.054-0.026l-0.061-0.002l-0.085-0.026l-0.031-0.031l-0.075-0.021h-0.043l-0.062-0.014l-0.042-0.026h-0.076l-0.04,0.021l-0.061,0.107l0.002,0.066l0.036,0.054l0.012,0.121l0.031,0.038l0.035,0.092l0.031,0.023l0.057,0.121l0.081,0.085l0.137,0.088l0.092,0.019l0.09,0.014l0.109,0.057l0.05,0.012l0.191,0.132l0.031,0.071l0.016,0.002l0.016-0.021l0.069,0.003l0.069,0.036l0.026,0.047l0.04,0.038l0.026,0.014l-0.002,0.026l-0.026,0.007l-0.042-0.016l-0.066-0.055l-0.002-0.023l-0.038-0.014l-0.104-0.01l-0.033-0.023l-0.024-0.012l-0.045-0.005l-0.073-0.026l-0.09-0.052l-0.009-0.021l-0.031-0.014l-0.322-0.017l-0.073-0.01l-0.069-0.024h-0.04l-0.021,0.012l-0.003,0.019l0.069,0.088l0.075,0.059l0.081,0.097l0.045,0.038l0.002,0.031l0.021,0.012l0.049-0.007l0.061,0.035l0.029,0.04l0.069,0.035l0.194,0.142l0.026,0.054l0.059,0.033l0.1,0.009l0.052,0.024l0.052-0.005l0.028-0.016h0.062l0.016,0.021l-0.019,0.009l-0.068,0.007l-0.087,0.042l-0.024,0.036l-0.068,0.003l-0.13-0.04l-0.085-0.054l-0.017-0.035l-0.074-0.049l-0.017-0.028l0.01-0.017l0.023-0.002l0.003-0.017l-0.023-0.017l-0.064-0.005l-0.184-0.003l-0.088-0.024l-0.092-0.043l-0.057-0.05l-0.073-0.024l-0.081-0.009l-0.023-0.019l-0.007-0.043l-0.087-0.073l-0.114-0.05l-0.078-0.014l-0.109-0.059l-0.09-0.016l-0.111-0.033l-0.08-0.038l-0.04-0.002l-0.031,0.01l-0.012,0.019l0.029,0.049l-0.01,0.052l-0.036,0.036l-0.092,0.036l-0.033,0.049l-0.007,0.1l0.007,0.062l0.028,0.029l-0.002,0.045l-0.031,0.042l-0.073,0.045l-0.069,0.012l-0.152,0.017l-0.055,0.033v0.028l0.007,0.017l-0.01,0.023l-0.04,0.012l-0.062,0.055l-0.132,0.047l-0.016,0.017l0.007,0.026l0.126,0.066l0.109,0.009l0.125-0.021l0.081-0.031l0.156-0.01l0.095,0.012l0.024-0.002l0.033-0.012l0.107-0.003l0.106,0.01l0.033-0.009l0.017-0.024l0.04-0.012l0.142,0.012l0.13,0.024l0.253,0.083l0.329,0.148l0.171,0.109l0.034,0.039l0.003,0.034l-0.031,0.031l0.005,0.036l0.042,0.023l0.114,0.016l0.166,0.039l0.133-0.008l0.208-0.042l0.242-0.008l0.062-0.042l0.055-0.055l0.01-0.062l0.031-0.042l0.088-0.021l0.023-0.031l0.013-0.036l0.068-0.029l0.143,0.01l0.036-0.005l0.026-0.029l0.068-0.016l0.057,0.008l0.068-0.016l0.083-0.034l0.112-0.008l0.049-0.021l0.026-0.034l0.047-0.018h0.161l0.029-0.01l-0.013-0.018l-0.101-0.034l-0.057-0.003l-0.005-0.029l0.06-0.052l0.049,0.003l0.068,0.049l0.005,0.039l0.044,0.06l0.083,0.026h0.166l0.107,0.008l0.088,0.029l0.081-0.013l0.138-0.107l0.031-0.068l-0.073-0.091l-0.01-0.107l0.039-0.065l0.081-0.107l0.052-0.023l0.044-0.039l0.026,0.005l0.003,0.029l-0.031,0.029l-0.016,0.068l0.026,0.081l0.044,0.016l0.174,0.003l0.057,0.018l0.031,0.036l0.075,0.008l0.14-0.023l0.078-0.083l0.055-0.104l0.013-0.13l0.031-0.091l0.029-0.031l0.023,0.01l0.008,0.052l0.065,0.088l0.018,0.083l-0.008,0.034l0.018,0.036l0.052-0.008l0.172-0.156l0.013-0.052l-0.021-0.119l0.003-0.049h0.029l0.031,0.042l0.016,0.057l0.047,0.01l0.068-0.003l0.086,0.042l0.005,0.034l-0.234,0.192l-0.021,0.055l-0.052,0.062l-0.039,0.023l-0.003,0.039l0.057,0.031l0.122,0.005l0.042-0.016l0.081,0.021l0.112,0.065l-0.008,0.031l-0.073,0.026l0.005,0.036l0.044-0.005l0.062-0.023l0.081,0.023l0.034,0.036l0.029-0.018l-0.029-0.088l-0.052-0.112l-0.005-0.081l-0.026-0.052l-0.023-0.166l-0.068-0.148l-0.026-0.109l0.005-0.034l0.039-0.003l0.088,0.034l0.034,0.057l0.049,0.005l0.073-0.031l0.07-0.086l0.031,0.005l0.008,0.052l-0.057,0.083L557.322,164l-0.029,0.049l-0.003,0.036l0.039,0.148l0.057,0.057l0.075,0.153l0.083,0.026l0.062-0.016l0.018-0.055l-0.028-0.095l0.005-0.06l0.065-0.099l-0.01-0.12l-0.034-0.078l-0.01-0.062l0.021-0.031l0.026,0.008l0.01,0.062l0.042,0.055l0.036,0.13l0.003,0.096l-0.021,0.091l0.039,0.078l0.062,0.026l0.062-0.042l0.055-0.081l0.005-0.135l-0.036-0.148v-0.086l-0.039-0.062l0.01-0.088l0.021-0.026l0.034,0.018l0.026,0.101l0.06,0.057l0.005,0.034l-0.018,0.031l0.008,0.039l0.047,0.031l0.083,0.187l0.005,0.07l-0.031,0.083l0.013,0.14l0.039,0.036l0.081-0.003l0.163-0.085l0.017-0.045l-0.038-0.049l-0.003-0.059l-0.035-0.045l0.017-0.024l0.045,0.01l0.069,0.062l0.007,0.083l0.049,0.014l0.083-0.104l0.076-0.052l0.076-0.028l0.035-0.08l0.038-0.007l0.017,0.042l-0.01,0.062l-0.038,0.059l-0.159,0.059l-0.014,0.038l0.066,0.035h0.149l0.197-0.045l0.118-0.073l0.177-0.267l0.08-0.021l0.083-0.066l0.042-0.003l0.01,0.024l-0.059,0.059l-0.09,0.042l-0.066,0.087l0.014,0.055l-0.09,0.128l-0.073,0.031l-0.052,0.066l-0.125,0.042l-0.229,0.024l-0.184,0.017l-0.104,0.076l-0.031,0.059l0.024,0.066l0.128,0.031l0.097,0.003l0.045,0.031l0.045,0.062l0.055,0.01l0.024,0.055l0.135,0.062l0.118,0.003l0.08-0.035l0.059-0.055l0.08-0.173l0.066-0.021l0.024-0.028l-0.014-0.035l0.024-0.035l0.042-0.017l0.007-0.104l-0.045-0.059l0.01-0.035l0.052-0.003l0.083,0.042l0.017,0.045l-0.003,0.042l0.021,0.038l0.045,0.031l0.024,0.049l-0.017,0.038l0.007,0.045l0.042,0.01l0.059-0.024l0.017-0.069l-0.024-0.066l0.014-0.049h0.076l0.08,0.042l0.083,0.118l0.08,0.073l0.055,0.01l0.014,0.038l-0.107,0.069l-0.01,0.033l0.028,0.012l0.055-0.035l0.094,0.003l0.076-0.035l0.159,0.024l0.097,0.042l0.149,0.028l0.149-0.073l0.121-0.035l0.045,0.014l-0.003,0.035l-0.094,0.042l-0.114,0.08l-0.125,0.045l-0.191,0.031l-0.142,0.014l-0.114-0.045l-0.031,0.014l-0.01,0.055l-0.045,0.021l-0.049,0.014l-0.003,0.038l0.024,0.035l-0.017,0.007l-0.045-0.031l-0.049,0.01l-0.024,0.052l-0.031,0.024l-0.118,0.003l-0.291,0.163l-0.104,0.035l-0.166,0.139l-0.194,0.055l-0.107-0.003l-0.204,0.083l-0.121,0.021l-0.059,0.031l-0.01,0.042l0.007,0.038l-0.042,0.028l-0.09,0.003l-0.094,0.052l-0.01,0.035l0.024,0.021l-0.017,0.024l-0.066,0.035l-0.097,0.017l-0.076,0.038l-0.111,0.156l0.007,0.049l0.097,0.045l0.111,0.028l-0.003,0.024l-0.076,0.01l-0.069,0.055l-0.087,0.028l-0.062-0.014l-0.019-0.032l-0.021-0.007l-0.036,0.007l-0.01,0.052l0.042,0.042l0.073,0.024l0.107-0.017l0.094,0.01l0.052,0.057h0.026l0.06-0.05l0.087-0.021l0.014-0.045l0.045-0.007l0.048,0.024l0.007,0.059l0.121,0.052l0.312,0.125l0.159,0.021l0.163-0.007l0.18,0.035l0.128,0.059l0.281-0.014l0.274-0.114l0.208-0.149l0.107-0.028l0.028-0.059l0.045-0.003l0.031-0.028l-0.017-0.062l0.045-0.062l0.007-0.049l0.073-0.031l0.159,0.007l0.1,0.055l0.017,0.048l-0.01,0.045l0.014,0.038l0.035,0.031v0.062l-0.042,0.052l-0.059,0.045l-0.021,0.073l-0.1,0.1l-0.021,0.097l-0.042,0.052l-0.114,0.052l-0.055,0.052l0.01,0.031l0.163,0.028l0.024,0.031l-0.028,0.028v0.028l0.031,0.017l-0.003,0.038l-0.035,0.017l-0.003,0.052l-0.055,0.014l-0.083-0.024l-0.132,0.014l-0.09-0.014l-0.132,0.024l-0.107-0.024l-0.128,0.01l-0.132-0.028l-0.104-0.038l-0.118-0.003l-0.049,0.014l-0.035-0.007l-0.01-0.028l-0.052,0.007l-0.035,0.028l0.01,0.024l0.035,0.007l-0.003,0.028h-0.052l-0.073-0.042l-0.111-0.007l-0.066,0.021l-0.08-0.035l0.01-0.035l-0.031-0.021l-0.048,0.01l-0.09-0.017l-0.059,0.003l-0.062-0.024l-0.042-0.048l-0.066-0.028l-0.076,0.014l-0.045,0.028l-0.121,0.01l-0.042,0.028l-0.062,0.003l-0.052,0.024h-0.149l-0.059-0.024l-0.125-0.007l-0.094,0.021l-0.052,0.062l-0.09,0.031l-0.073,0.066l-0.028,0.066l0.018,0.052l0.104,0.083l0.034,0.07l-0.008,0.018l-0.039-0.003l-0.078-0.055l-0.026-0.06l-0.062-0.034h-0.057l-0.065-0.031l-0.057-0.075l0.003-0.042l0.047-0.023l-0.016-0.023l-0.039-0.003l-0.034,0.021v0.021l-0.029,0.008l-0.034-0.016l-0.088,0.034l-0.034-0.005l0.018-0.031l0.081-0.026l0.073-0.036l0.018-0.031l0.073-0.018v-0.026l-0.044-0.005l-0.042,0.016l-0.023-0.013l0.016-0.021l0.047-0.016l-0.003-0.026l-0.031-0.047l-0.034-0.003l-0.044,0.01l-0.013-0.023l0.01-0.039l-0.036-0.029l-0.07-0.005l-0.044,0.023v0.044l0.016,0.029l-0.039,0.039l-0.057,0.008l-0.036,0.047l-0.075,0.044h-0.049l-0.06,0.026l-0.018,0.034l-0.034,0.005l-0.031-0.018l-0.034,0.003l-0.008,0.021l0.034,0.021l0.101,0.013l0.07-0.008l0.065,0.013l0.034-0.005l0.036-0.023l0.023,0.008l0.013,0.047l-0.034,0.023L557,167.485h-0.052l-0.057,0.018l-0.039,0.042l-0.06,0.005l-0.044-0.003l-0.044,0.005l-0.042,0.026l-0.062,0.005l-0.031,0.021l0.01,0.036l-0.023,0.016l-0.029-0.021l-0.049,0.003l-0.008-0.026l0.021-0.016l-0.026-0.031l-0.073-0.039h-0.114l-0.081,0.013l-0.088,0.065l-0.026,0.086l-0.042,0.049l-0.003,0.031l0.029,0.008l0.057-0.008l0.057,0.029l0.039,0.005l0.049,0.047l-0.003,0.026l-0.039,0.003l-0.039-0.018l-0.023-0.034l-0.099-0.013h-0.062l-0.065-0.026l-0.036,0.005l-0.034,0.049l0.01,0.065l0.034,0.055l0.01,0.088l-0.018,0.036l-0.039,0.005l-0.036-0.034l-0.036-0.005l-0.013-0.031l0.008-0.075l-0.062-0.034l-0.034,0.005l-0.034-0.016l0.003-0.031l0.094-0.094l0.036-0.096l0.062-0.081l0.062-0.036l0.013-0.023l-0.044-0.008l-0.153,0.01l-0.088-0.018l-0.055-0.023l-0.075,0.005l-0.075,0.044l-0.036,0.052l0.003,0.055l0.031,0.081l0.003,0.042l0.047,0.079l0.008,0.046l-0.018,0.086l-0.036,0.031l-0.086,0.005l-0.049-0.021l-0.039-0.003l-0.065,0.026l-0.062-0.016l-0.005-0.029l0.036-0.042l0.008-0.052l-0.047-0.044l-0.057,0.008l-0.018,0.044l-0.003,0.039l0.021,0.023l-0.018,0.018l-0.052-0.018l-0.023-0.036l0.021-0.039l0.034-0.01l0.01-0.036l-0.018-0.055l-0.075-0.044l-0.031,0.005l-0.039,0.026l-0.055,0.003l-0.034,0.018l-0.003,0.029l-0.047,0.039l-0.088,0.021l-0.094-0.003l-0.068-0.023l-0.047,0.008l-0.06,0.057l-0.083,0.127l-0.075,0.031l-0.104-0.008l-0.078,0.005l-0.029,0.026l-0.005,0.047l-0.055,0.052l-0.075,0.016l-0.075-0.013l-0.023-0.029l-0.044-0.003l-0.044,0.01l-0.171-0.039l-0.138-0.013l-0.081-0.044l-0.055-0.073l-0.073-0.018l-0.198,0.047l-0.031,0.026l-0.036,0.003l-0.031-0.018l-0.044,0.003l-0.052,0.049l-0.013,0.029l-0.138,0.078l-0.018,0.039l-0.023,0.016l-0.047-0.013l-0.083,0.018l-0.034-0.013l-0.013-0.026l-0.031,0.003l-0.018,0.029l0.042,0.101l-0.003,0.057l0.018,0.036l0.044,0.034l0.049,0.107l0.07,0.055l0.052,0.016l0.062,0.091l0.016,0.062l0.034,0.036l0.039,0.025l0.055,0.094l0.01,0.062l0.021,0.018l0.042-0.005l0.127,0.026l0.166,0.062l0.023,0.034l0.07,0.01l0.078-0.047l0.091-0.013h0.06l0.06-0.018l0.099-0.013l0.081,0.013l0.109,0.008l0.021-0.029l-0.021-0.042l0.008-0.036l0.078-0.057v-0.023l-0.031-0.026v-0.044l0.026-0.047l0.049-0.013l0.039-0.042l0.078-0.029l0.146-0.008l0.158,0.01l0.156,0.065l0.078,0.005l0.125-0.034l0.039-0.052l-0.003-0.047l0.031-0.055l0.06-0.023l0.304,0.008l0.161,0.029l0.242,0.055l0.138,0.026l0.055,0.026l0.153,0.008l0.07-0.008l0.055,0.01l0.031,0.026l0.047,0.003l0.083-0.042l0.068-0.01l0.068,0.008l0.073,0.042l0.065,0.005l0.055,0.016l0.06-0.003l0.081-0.036l0.099-0.003l0.086,0.031l0.143,0.013l0.073,0.016l0.133,0.06l0.07,0.044l0.021-0.008l-0.013-0.034l-0.047-0.016l-0.122-0.055l-0.029-0.034v-0.026l0.029-0.01l0.049,0.013l0.073-0.018l0.047-0.026l0.049-0.007l0.115,0.051l0.01,0.029l-0.029,0.039l0.005,0.021l0.047,0.008l0.039-0.026l0.047,0.003l0.016,0.023l-0.021,0.026l-0.042,0.018l-0.062-0.003l-0.081-0.018l-0.029,0.013l0.021,0.021h0.062l0.049,0.031h0.06l0.073-0.039h0.068l0.065,0.023l0.057-0.005l0.034-0.023l-0.021-0.016l-0.039,0.018l-0.047-0.003l-0.017-0.013l0.014-0.026l0.173-0.114l0.066-0.019l0.027,0.016l0.008,0.029l0.039,0.01l0.075-0.034l0.055-0.042l0.029,0.008l0.018,0.048l0.091,0.002l0.036-0.052l0.026,0.003l0.021,0.042l-0.031,0.044l-0.075,0.047h-0.057l-0.023,0.029l0.034,0.01l0.075-0.013l0.057-0.039l0.021,0.013l-0.034,0.065l-0.065,0.044l-0.042,0.01l0.003,0.031l0.068,0.021l0.047-0.049l0.047-0.016l0.052,0.018l0.049,0.003l0.094-0.018l0.109,0.055l0.021,0.055l-0.083,0.042l-0.021,0.036l0.029,0.026l-0.008,0.036l-0.029,0.018l-0.016,0.044l-0.044,0.003l-0.034-0.026l-0.039,0.008l-0.003,0.039l0.013,0.055l-0.044,0.065l-0.073,0.016l-0.016,0.031l-0.023,0.081l0.029,0.008l0.057-0.044l0.039-0.055l0.14-0.065l0.021,0.016l-0.013,0.034l0.003,0.083l-0.042,0.109l-0.065,0.052l-0.049,0.003l-0.081-0.047l-0.107-0.029l-0.018-0.034l0.029-0.026l-0.008-0.021l-0.047,0.008l-0.018,0.031l0.021,0.049l0.117,0.039l0.096,0.052l0.013,0.031l-0.008,0.029l0.086,0.065h0.055l0.018,0.023l-0.036,0.068l-0.018,0.099l0.026,0.021l0.035,0.005l0.007,0.021l-0.031,0.042l0.013,0.062l0.07,0.023l0.114-0.023l0.042-0.042l0.028-0.016l0.056-0.006l0.055-0.049l0.026,0.004l-0.007,0.034l-0.04,0.039l0.01,0.029l0.044,0.008l0.003,0.021l-0.047,0.042l-0.067,0.015l-0.028-0.014l-0.007,0.009l0.019,0.024l0.071-0.007l0.076-0.019l0.021-0.021l0.035,0.013v0.029l-0.039,0.026l0.003,0.029l0.057,0.013l-0.003,0.031l-0.049,0.018l-0.021,0.07l-0.007,0.066l-0.035,0.028l-0.007,0.043l0.012,0.033l0.038,0.031h0.021l0.016-0.038l-0.023-0.05l0.014-0.049l0.026,0.002l0.007,0.033l0.021,0.008l0.034-0.01l0.018,0.021l-0.013,0.055l0.044,0.06l0.052,0.026l0.073-0.01l0.018,0.016l-0.023,0.031l-0.034,0.005l0.01,0.021l0.044-0.003l0.057-0.06l0.146-0.003l0.044-0.029l0.031-0.112l-0.013-0.042l0.018-0.034l0.065-0.008l0.018-0.039l-0.005-0.094l0.008-0.083l0.102-0.134l0.021-0.003l0.016,0.043l-0.027,0.081l-0.049,0.039l-0.008,0.052l0.026,0.055l0.031,0.008l0.086-0.044h0.049l0.039-0.018l0.023-0.068l0.049-0.034l0.071-0.003l0.045-0.043l0.031,0.003l0.002,0.052l0.038-0.003l0.055-0.095l0.031-0.003l0.021,0.042l0.031-0.007l0.017-0.057l0.118-0.064l0.13-0.026l0.085,0.009l0.007,0.031l-0.135,0.151l-0.055,0.026l0.005,0.019l0.069-0.003l0.061,0.012l0.002,0.036l-0.038,0.021l-0.104,0.003l-0.137,0.038l-0.076-0.003l-0.031-0.014l-0.035,0.023l-0.036,0.054l-0.109,0.024l-0.028,0.023l-0.021-0.017l0.01-0.028l-0.028-0.005l-0.012,0.021l0.014,0.043l-0.057,0.042l-0.052,0.087l-0.019,0.123l-0.021,0.017l-0.005,0.094l-0.04,0.021l-0.007-0.028l0.017-0.059l-0.019-0.014l-0.026,0.024l-0.014,0.107l0.003,0.045l-0.038,0.055l-0.017,0.057l-0.031,0.009l0.002,0.026l0.183,0.117l0.039-0.003l-0.021-0.039l0.047-0.047l0.192-0.021l0.081,0.031v0.031l0.034,0.003l0.055-0.039l0.042,0.023l-0.008,0.026l-0.034,0.005l-0.021,0.018l0.023,0.016l-0.018,0.023l-0.114,0.01l-0.042-0.018l-0.14,0.023l-0.052-0.01h-0.042l-0.026,0.062l-0.039,0.018l-0.003,0.052l-0.086,0.049l-0.005-0.026l0.033-0.022l-0.007-0.019l-0.047,0.021l-0.034,0.062l-0.057,0.034l-0.099,0.052l-0.044,0.052l0.029,0.018l0.073-0.026l0.086,0.026l0.039,0.06l0.182,0.021l0.068-0.026l0.208-0.013l0.416-0.205l0.091-0.117l0.049-0.018h0.044l0.047-0.031l0.026-0.055l0.143-0.073l0.169-0.057l0.192-0.01l0.083,0.039l0.143,0.029l0.265-0.034l0.083,0.018l0.036,0.047l-0.013,0.031l-0.107,0.023l-0.023,0.023l0.042,0.018l0.081-0.013l0.044-0.044l0.026-0.034l0.073-0.026l0.12,0.013l0.01,0.026l-0.036,0.013l-0.088,0.008l-0.094,0.052l-0.003,0.023l0.021,0.018l-0.005,0.021l-0.096,0.021l-0.096-0.003l-0.088-0.023l-0.023-0.026h-0.034l-0.039,0.01l-0.075,0.005l-0.096-0.016l-0.018-0.031l0.029-0.021l-0.01-0.023h-0.075l-0.062,0.036l-0.086,0.021l-0.068,0.036l-0.122,0.026l-0.008,0.026l0.042,0.042l0.122-0.005l0.036,0.021l-0.005,0.021l-0.06,0.023h-0.104l-0.055-0.018l-0.044,0.003l-0.112-0.021l-0.026,0.008l-0.018,0.031l-0.094,0.052l-0.148,0.135l-0.117,0.065l-0.165,0.2l-0.017,0.069l-0.069,0.052l0.003,0.042l0.083,0.003l0.087-0.052l0.073-0.007l0.066,0.028l0.014,0.059l-0.042,0.073l0.014,0.028l0.097-0.01l0.146,0.024l0.142-0.017l0.024,0.021l-0.135,0.038l-0.076-0.007l-0.007,0.035l0.021,0.031l-0.031,0.052l0.038,0.017l0.055-0.024l0.125-0.01l-0.007,0.028l-0.128,0.052l-0.069,0.045l-0.166,0.014l-0.038,0.055l0.002,0.043l-0.026,0.008l-0.059-0.079l-0.108-0.026l-0.103,0.036l-0.094-0.007l-0.031-0.052l-0.042-0.003l-0.049,0.038h-0.069l-0.073-0.049l-0.052-0.007l-0.07,0.053l0.017,0.021l0.04-0.017l0.027,0.002l0.163,0.087l0.038,0.066l0.075,0.025l0.104,0.015l-0.007,0.012l-0.101-0.001l-0.029,0.008l-0.004,0.022l0.066,0.025l0.065,0.015l-0.001,0.011l-0.054-0.004l-0.012,0.012l0.001,0.025l-0.014,0.019l-0.059,0.003l-0.026-0.026l-0.022-0.004l-0.059,0.017l-0.043-0.008l-0.042-0.021l0.021-0.024l0.107,0.003l0.011-0.023l-0.004-0.029l-0.093-0.037l-0.118,0.038l-0.052,0.066l0.049,0.066l0.187,0.09l-0.014,0.038l-0.121,0.08l-0.142,0.045l-0.177-0.003l-0.132,0.055l-0.094,0.09l-0.118,0.031l-0.107-0.007l-0.09-0.073h-0.1l-0.191,0.114l-0.097-0.007l-0.118,0.048l-0.059,0.149l-0.066,0.024l-0.18-0.003L558,173.489l-0.09-0.107l-0.038-0.152l-0.263-0.253l-0.18-0.062l-0.08,0.031l-0.045,0.152l0.031,0.197l-0.031,0.069l-0.1,0.069l-0.024,0.111l0.09,0.107l0.152,0.038l0.139-0.007l0.028,0.028l-0.028,0.021l-0.125,0.01l-0.066,0.045l-0.039,0.149l-0.054,0.052l-0.059,0.003l-0.014,0.048l0.021,0.069l0.121,0.059l0.003,0.045l-0.028,0.097l-0.087,0.062l0.003,0.055l0.08,0.045l0.031,0.052l0.059-0.007l0.194-0.104l0.121,0.007l0.139,0.049l0.152-0.021l0.048-0.066l0.062-0.021l0.107,0.01l0.09-0.038l0.066,0.003l0.024,0.042h0.066l0.014-0.083l0.166-0.08l0.104,0.017l0.055,0.035l0.083,0.021l0.062-0.01l0.069,0.021l0.049,0.038l0.232,0.021l0.114-0.031l0.135,0.003l0.094,0.035l0.111,0.003l0.135-0.038l0.343-0.007l0.353-0.083l0.062-0.062l0.152-0.017l0.121,0.042l0.08,0.114l0.156,0.076h0.201l0.135-0.049l0.326-0.042l0.083-0.035l0.087-0.003l0.194,0.024l0.1-0.031l0.038-0.024l-0.017-0.038l-0.066-0.031l0.021-0.052l0.118-0.042l0.236-0.007l0.253,0.024l0.346,0.173l0.277,0.097l0.284,0.049l0.644,0.284l0.672,0.367l0.637,0.409l0.568,0.409l0.416,0.173l0.443,0.007l0.561-0.035l0.527,0.062l0.734,0.194l0.492,0.173l0.187,0.028l0.52,0.18l0.367,0.125l0.18-0.028l0.159,0.014l0.139-0.062l0.367,0.014l0.499,0.09l0.423-0.014l0.596-0.159l0.79-0.125l0.319-0.042l0.741-0.305l0.284-0.201l0.298-0.471l0.27-0.319l0.416-0.222l0.52-0.132l0.651-0.146l0.513-0.042l1.081-0.014l0.748-0.062l0.159-0.09l0.409-0.423l0.7-0.547l1.337-0.873l0.416-0.152l0.412-0.058l0.125-0.063l0.087-0.129l0.409-0.111l0.54-0.083l0.845,0.028l0.312-0.055l0.527,0.021l0.038-0.059l0.005-0.073l0.094-0.104l0.109-0.026v-0.078l-0.036-0.083l0.068-0.109l0.208-0.14l0.379-0.156l0.483-0.109l0.244-0.016l0.036-0.062v-0.073l0.057-0.047l0.052-0.021l0.01-0.047l-0.036-0.052l0.078-0.203l0.062-0.042l0.01-0.047l-0.039-0.034l0.003-0.073l0.042-0.065l0.171-0.12l0.047-0.101l0.226-0.143l-0.013-0.026l-0.06,0.021l-0.19,0.135l-0.062,0.109l-0.12,0.073l-0.151,0.026l-0.12-0.016l-0.094,0.026l-0.068-0.036l0.031-0.088l-0.01-0.099l0.042-0.083l0.203-0.031l0.094,0.031l0.213-0.01l0.078-0.062v-0.12l-0.114-0.073l-0.171-0.042l-0.021-0.062l0.104-0.042l0.286,0.021l0.213,0.047l0.135,0.068h0.14l0.052-0.042l-0.104-0.114l-0.281-0.073L588.144,169.421L588.144,169.421z M573.105,161.382l-0.002-0.024l0.026-0.002l0.094,0.095l0.04,0.054l0.061,0.036l0.036,0.068v0.035l-0.04,0.029l-0.062,0.007l-0.028-0.021l-0.014-0.024l-0.036-0.009l-0.026-0.028l0.002-0.04l0.026-0.035l-0.028-0.069L573.105,161.382L573.105,161.382z M569.004,161.475l0.016-0.042l-0.008-0.029l-0.055-0.031l-0.018-0.031l-0.023,0.013l0.008,0.044l0.039,0.039l0.01,0.065l0.031,0.044l0.016-0.003L569.004,161.475L569.004,161.475z M568.406,161.886l0.019,0.002l0.012-0.023l-0.005-0.023l-0.016-0.007l-0.012,0.017L568.406,161.886L568.406,161.886z M562.095,163.503l0.017,0.011l0.044-0.025l0.028-0.03l-0.012-0.01h-0.032l-0.034,0.033L562.095,163.503L562.095,163.503z M562.283,163.96h0.014l0.014-0.031l-0.012-0.007l-0.016,0.012V163.96L562.283,163.96z M561.188,160.75l-0.001,0.014l0.006,0.012l0.01-0.011v-0.017L561.188,160.75L561.188,160.75z M561.796,161.4l-0.006,0.024l0.019,0.005l0.016-0.012l-0.012-0.019L561.796,161.4L561.796,161.4z M558.243,161.748l0.028-0.004l0.017-0.025l-0.015-0.025l-0.021,0.004l-0.017,0.037L558.243,161.748L558.243,161.748z M557.501,160.961l0.008-0.044l-0.026-0.023l-0.026,0.005l-0.008,0.031l0.021,0.039L557.501,160.961L557.501,160.961z M557.38,161.228l0.007,0.024l0.028,0.003l0.003-0.024l-0.014-0.014L557.38,161.228L557.38,161.228z M556.845,161.251l0.019-0.001l0.017-0.036l-0.011-0.048l-0.029-0.006l-0.008,0.023L556.845,161.251L556.845,161.251z M557.796,161.989l-0.001,0.014l0.005,0.012l0.01-0.011v-0.017L557.796,161.989L557.796,161.989z M558.596,165.81l0.014,0.019l0.036-0.017l0.035-0.042l-0.019-0.01l-0.047,0.024L558.596,165.81L558.596,165.81z M558.057,166.693h0.054l0.043-0.014l0.009-0.023l-0.035-0.014h-0.052l-0.038,0.016l-0.002,0.028L558.057,166.693L558.057,166.693z M557.396,166.714l0.014,0.019h0.035l0.071-0.05l0.002-0.026l-0.036-0.014l-0.026,0.014l-0.007,0.024l-0.021,0.014l-0.023-0.007l-0.014,0.01L557.396,166.714L557.396,166.714z M557.474,166.599l0.012,0.024l0.038,0.007l0.054-0.021l-0.012-0.019h-0.026l-0.002-0.019l0.05-0.028l0.01-0.023l0.031-0.007l0.033,0.005l0.05-0.017l-0.003-0.017l-0.035-0.009l-0.071,0.014l-0.069,0.043L557.474,166.599L557.474,166.599z M557.723,166.457l0.01,0.017l0.036,0.002l0.035-0.021l0.05-0.01l0.043-0.023l-0.005-0.023h-0.042l-0.094,0.033L557.723,166.457L557.723,166.457z M557.998,166.499l0.005,0.021l0.028,0.021l0.049-0.009l0.042-0.026l0.002-0.023l-0.031-0.019h-0.05L557.998,166.499L557.998,166.499z M557.957,166.461l0.033-0.017l0.054-0.012l0.021-0.021l-0.017-0.019l-0.057,0.017l-0.049,0.024l-0.055,0.01l-0.007,0.021L557.957,166.461L557.957,166.461z M557.671,166.844l0.002,0.036l0.038,0.026l0.036-0.002l0.023-0.028l-0.024-0.043l-0.038-0.01L557.671,166.844L557.671,166.844z M557.898,166.757l0.026-0.014l0.024,0.003l-0.009,0.019l0.021,0.016h0.066l0.031-0.005v-0.024l-0.066-0.031l-0.064-0.009l-0.036,0.017l-0.007,0.026L557.898,166.757L557.898,166.757z M557.787,166.818l0.028,0.005v0.024l0.029,0.003l0.023-0.023l0.045-0.005l0.005-0.017l-0.036-0.014l-0.014,0.01l-0.029,0.007l-0.023-0.024l-0.021,0.002l-0.017,0.017L557.787,166.818L557.787,166.818z M558.355,166.766l0.029-0.005l0.026-0.026l0.003-0.019l-0.055,0.002l-0.043,0.019v0.016L558.355,166.766L558.355,166.766z M556.518,165.356l0.043-0.008l0.037,0.008l0.029-0.014l0.014-0.023l-0.019-0.015l-0.046,0.004l-0.069,0.033l-0.003,0.011L556.518,165.356L556.518,165.356z M558.08,167.074l0.064-0.024l0.014-0.021l-0.023-0.021l-0.05,0.002l-0.059,0.042l0.005,0.021L558.08,167.074L558.08,167.074z M558.087,167.124l0.036,0.003l0.057-0.012l0.107,0.012l0.054-0.005l0.009-0.031l-0.024-0.016l-0.045,0.007l-0.005-0.019l0.017-0.019l-0.009-0.016l-0.043,0.007l-0.05,0.038l-0.068,0.002l-0.052,0.012l-0.047,0.003v0.019L558.087,167.124L558.087,167.124z M558.212,167.166l0.061,0.005l0.026-0.014l-0.005-0.017l-0.099-0.012l-0.028,0.003l-0.007,0.016L558.212,167.166L558.212,167.166z M558.042,167.225l0.064-0.016l0.019-0.029l-0.023-0.016l-0.035,0.002l-0.064,0.036v0.023H558.042L558.042,167.225z M556.024,164.777l-0.007,0.01l0.012,0.007l0.014-0.004l0.004-0.011L556.024,164.777L556.024,164.777z M556.94,164.588l-0.005,0.012l0.01,0.009l0.016-0.01l-0.003-0.012L556.94,164.588L556.94,164.588z M557.67,165.108l0.014,0.006l0.008-0.006l-0.003-0.014h-0.014L557.67,165.108L557.67,165.108z M558.15,166.778l0.014,0.006l0.008-0.006l-0.003-0.014h-0.014L558.15,166.778L558.15,166.778z M559.093,165.4l0.003,0.012l0.016-0.002v-0.012l-0.011-0.007L559.093,165.4L559.093,165.4z M557.033,165.033l0.007,0.008l0.011-0.003l-0.001-0.014l-0.014-0.003L557.033,165.033L557.033,165.033z M558.136,166.733l0.007,0.008l0.011-0.003l-0.001-0.014l-0.014-0.003L558.136,166.733L558.136,166.733z M556.579,167.567l0.007,0.008l0.011-0.003l-0.001-0.014l-0.014-0.003L556.579,167.567L556.579,167.567z M558.124,165.306l0.007,0.018l0.011-0.001l0.003-0.018l-0.012-0.008L558.124,165.306L558.124,165.306z M556.585,167.16l-0.003,0.019l0.011,0.006l0.014-0.012l-0.007-0.012H556.585L556.585,167.16z M558.334,166.684v0.014l0.014,0.008l0.012-0.008l-0.007-0.014H558.334L558.334,166.684z M558.956,165.349l-0.001,0.014l0.005,0.012l0.01-0.011v-0.017L558.956,165.349L558.956,165.349z M557.969,166.833l0.019-0.014l-0.005-0.011l-0.017,0.004l-0.008,0.015L557.969,166.833L557.969,166.833z M558.205,167.232l0.007,0.024l0.028,0.003l0.003-0.024l-0.014-0.014L558.205,167.232L558.205,167.232z M555.104,167.653l0.007,0.024l0.028,0.003l0.003-0.024l-0.014-0.014L555.104,167.653L555.104,167.653z M558.55,167.166l0.007,0.024l0.015-0.003l0.007-0.022l-0.015-0.011L558.55,167.166L558.55,167.166z M556.082,165.114l-0.006,0.024l0.019,0.005l0.016-0.012l-0.012-0.019L556.082,165.114L556.082,165.114z M557.82,166.579l-0.006,0.024l0.019,0.005l0.016-0.012l-0.012-0.019L557.82,166.579L557.82,166.579z M556.674,167.511l-0.006,0.024l0.019,0.005l0.016-0.012l-0.012-0.019L556.674,167.511L556.674,167.511z M557.537,167.273l0.019-0.007l-0.01-0.014h-0.029l-0.007,0.015L557.537,167.273L557.537,167.273z M556.355,165.653l0.019-0.007l-0.01-0.014h-0.029l-0.007,0.015L556.355,165.653L556.355,165.653z M555.755,164.445l0.019-0.007l-0.01-0.014h-0.029l-0.007,0.015L555.755,164.445L555.755,164.445z M558.624,167.176l0.014-0.007l-0.019-0.019h-0.021l0.003,0.017L558.624,167.176L558.624,167.176z M557.002,165.305l0.019,0.002l0.012-0.023l-0.005-0.023l-0.016-0.007l-0.012,0.017L557.002,165.305L557.002,165.305z M557.203,165.077l0.028-0.021l0.017-0.029l-0.015-0.002l-0.036,0.026l-0.013,0.023L557.203,165.077L557.203,165.077z M556.185,165.001l0.021-0.007l-0.017-0.026l-0.028-0.009l-0.007,0.019L556.185,165.001L556.185,165.001z M556.767,167.523l0.028-0.004l0.017-0.025l-0.015-0.025l-0.021,0.004l-0.017,0.037L556.767,167.523L556.767,167.523z M557.529,164.883l0.002-0.019l-0.024,0.002l-0.024,0.021l0.014,0.01L557.529,164.883L557.529,164.883z M556.997,166.942l0.002-0.019l-0.024,0.002l-0.024,0.021l0.014,0.01L556.997,166.942L556.997,166.942z M559.062,165.364l0.036-0.003l0.002-0.017l-0.038-0.012l-0.028,0.007l-0.002,0.016L559.062,165.364L559.062,165.364z M557.63,166.972l0.036-0.003l0.002-0.017l-0.038-0.012l-0.028,0.007l-0.002,0.016L557.63,166.972L557.63,166.972z M557.125,165.142l0.005,0.018l0.026,0.005l0.026-0.016v-0.018l-0.031-0.005L557.125,165.142L557.125,165.142z M558.222,166.875l0.034-0.006l0.012-0.015l-0.01-0.015l-0.028-0.007l-0.028,0.014l-0.001,0.018L558.222,166.875L558.222,166.875z M558.158,166.993l0.021-0.01l0.001-0.012l-0.03-0.005l-0.02,0.015l0.001,0.014L558.158,166.993L558.158,166.993z M558.145,166.94l0.058-0.03l0.012-0.017l-0.032,0.003l-0.058,0.033l0.001,0.014L558.145,166.94L558.145,166.94z M558.263,166.954l0.034-0.01l-0.004-0.014l-0.041-0.001l-0.021,0.011l0.001,0.012L558.263,166.954L558.263,166.954z M556.827,165.953l0.036-0.016l-0.007-0.014l-0.042,0.007l-0.062,0.028l0.01,0.009L556.827,165.953L556.827,165.953z M557.694,167.327l0.026-0.021l-0.005-0.012l-0.035,0.007l-0.014,0.019l0.003,0.016L557.694,167.327L557.694,167.327z M557.532,167.199l0.012-0.009l-0.014-0.01l-0.024,0.002l0.003,0.014L557.532,167.199L557.532,167.199z M557.605,166.581l0.012-0.009l-0.014-0.01l-0.024,0.002l0.003,0.014L557.605,166.581L557.605,166.581z M557.612,167.247l0.019-0.003l0.003-0.014l-0.016-0.01h-0.029l-0.007,0.014L557.612,167.247L557.612,167.247z M565.474,177.245l0.003,0.012l0.016-0.002v-0.012l-0.011-0.007L565.474,177.245L565.474,177.245z M565.968,176.809l0.019-0.007l-0.01-0.014h-0.029l-0.007,0.015L565.968,176.809L565.968,176.809z M566.13,176.832l-0.006,0.024l0.019,0.005l0.016-0.012l-0.012-0.019L566.13,176.832L566.13,176.832z M565.955,176.834l0.007,0.024l0.015-0.003l0.007-0.022l-0.015-0.011L565.955,176.834L565.955,176.834z M565.963,177.023h0.014l0.014-0.031l-0.012-0.007l-0.016,0.012V177.023L565.963,177.023z M565.815,177.12l0.007,0.024l0.028,0.003l0.003-0.024l-0.014-0.014L565.815,177.12L565.815,177.12z M565.847,177.162l-0.003,0.019l0.011,0.006l0.014-0.012l-0.007-0.012H565.847L565.847,177.162z M565.073,177.363h0.039l0.031-0.029l-0.013-0.047l-0.039-0.005l-0.047,0.021l-0.008,0.031L565.073,177.363L565.073,177.363z M566.414,176.483l-0.044-0.008l-0.104,0.039l-0.078,0.003l-0.021,0.031l0.029,0.047l0.01,0.075l0.021,0.034l0.055,0.016l-0.005,0.031l-0.042,0.021l0.005,0.026l0.042-0.003l0.055-0.07l0.008-0.047l0.094-0.029l0.049-0.055l-0.005-0.034l-0.047-0.039l-0.096,0.016l-0.003-0.01l0.07-0.016l0.016-0.013L566.414,176.483L566.414,176.483z M566.435,176.443l0.007,0.008l0.011-0.003l-0.001-0.014l-0.014-0.003L566.435,176.443L566.435,176.443z M566.601,176.493l-0.005,0.031l0.021,0.013l0.034-0.013v-0.023l-0.023-0.013L566.601,176.493L566.601,176.493z M566.668,176.436l0.026-0.005l0.008-0.029l-0.034-0.016l-0.023,0.016v0.029L566.668,176.436L566.668,176.436z M566.093,176.528v0.014l0.014,0.008l0.012-0.008l-0.007-0.014H566.093L566.093,176.528z M566.096,176.559l-0.003,0.019l0.011,0.006l0.014-0.012l-0.007-0.012H566.096L566.096,176.559z M566.079,176.591l0.007,0.018l0.011-0.001l0.003-0.018l-0.012-0.008L566.079,176.591L566.079,176.591z M566.045,176.581l0.007,0.008l0.011-0.003l-0.001-0.014l-0.014-0.003L566.045,176.581L566.045,176.581z M558.426,164.785l0.026-0.005l-0.008-0.018l-0.026-0.003l-0.008,0.016L558.426,164.785L558.426,164.785z M557.088,165.024l0.026-0.005l-0.008-0.018l-0.026-0.003l-0.008,0.016L557.088,165.024L557.088,165.024z M558.237,166.786l0.026-0.005l-0.008-0.018l-0.026-0.003l-0.008,0.016L558.237,166.786L558.237,166.786z M556.704,167.451l0.026-0.005l-0.008-0.018l-0.026-0.003l-0.008,0.016L556.704,167.451L556.704,167.451z M559.57,164.831l0.031-0.028l-0.014-0.024l-0.035,0.014l-0.01,0.031L559.57,164.831L559.57,164.831z M557.806,165.704l0.031-0.028l-0.014-0.024l-0.035,0.014l-0.01,0.031L557.806,165.704L557.806,165.704z M556.708,165.998l0.01-0.007l-0.009-0.012l-0.021,0.003l0.002,0.014L556.708,165.998L556.708,165.998z M558.496,167.052l0.01-0.007l-0.009-0.012l-0.021,0.003l0.002,0.014L558.496,167.052L558.496,167.052z M556.2,167.017l0.01-0.007l-0.009-0.012l-0.021,0.003l0.002,0.014L556.2,167.017L556.2,167.017z M556.535,167.498l0.01-0.007l-0.009-0.012l-0.021,0.003l0.002,0.014L556.535,167.498L556.535,167.498z M559.518,164.855l0.01-0.007l-0.009-0.012l-0.021,0.003l0.002,0.014L559.518,164.855L559.518,164.855z M558.208,165.315l0.008-0.019l-0.015-0.003l-0.022,0.014l0.001,0.014L558.208,165.315L558.208,165.315z M557.447,165.021l0.008-0.019l-0.015-0.003l-0.022,0.014l0.001,0.014L557.447,165.021L557.447,165.021z M557.74,166.734l0.008-0.019l-0.015-0.003l-0.022,0.014l0.001,0.014L557.74,166.734L557.74,166.734z M556.584,167.472l0.008-0.019l-0.015-0.003l-0.022,0.014l0.001,0.014L556.584,167.472L556.584,167.472z M557.547,164.948l0.058-0.03l0.012-0.017l-0.032,0.003l-0.058,0.033l0.001,0.014L557.547,164.948L557.547,164.948z M556.873,165.374l0.021,0.012l0.033-0.019l0.026-0.033l-0.015-0.019l-0.034,0.006L556.873,165.374L556.873,165.374z M555.967,164.38l0.006,0.014l0.012-0.001l0.017-0.014l-0.008-0.012l-0.018,0.003L555.967,164.38L555.967,164.38z M559.978,164.988l0.005,0.014l0.012-0.001l0.017-0.014l-0.008-0.012l-0.018,0.003L559.978,164.988L559.978,164.988z M558.314,166.034l0.006,0.014l0.012-0.001l0.017-0.014l-0.008-0.012l-0.018,0.003L558.314,166.034L558.314,166.034z M558.43,166.688l0.006,0.014l0.012-0.001l0.017-0.014l-0.008-0.012l-0.018,0.003L558.43,166.688L558.43,166.688z M556.884,167.28l0.005,0.014l0.012-0.001l0.017-0.014l-0.008-0.012l-0.018,0.003L556.884,167.28L556.884,167.28z M556.791,167.175v0.016l0.014,0.005l0.014-0.007l0.002-0.017l-0.014-0.003L556.791,167.175L556.791,167.175z M557.685,166.787v0.016l0.014,0.005l0.014-0.007l0.002-0.017l-0.014-0.003L557.685,166.787L557.685,166.787z M558.996,165.431v0.016l0.014,0.005l0.014-0.007l0.002-0.017l-0.014-0.003L558.996,165.431L558.996,165.431z M557.622,164.846v0.016l0.014,0.005l0.014-0.007l0.002-0.017l-0.014-0.003L557.622,164.846L557.622,164.846z M557.563,165.181v0.01h0.012l0.022-0.011l0.003-0.01l-0.019,0.001L557.563,165.181L557.563,165.181z M557.802,167.205v0.01h0.012l0.022-0.011l0.003-0.01l-0.019,0.001L557.802,167.205L557.802,167.205z M556.982,167.224v0.01h0.012l0.022-0.011l0.003-0.01L557,167.214L556.982,167.224L556.982,167.224z M558.638,167.069l-0.002,0.012l0.014,0.003l0.012-0.007l-0.008-0.008H558.638L558.638,167.069z M557.928,167.094l-0.002,0.012l0.014,0.003l0.012-0.007l-0.008-0.008H557.928L557.928,167.094z M557.674,166.93l-0.002,0.012l0.014,0.003l0.012-0.007l-0.008-0.008H557.674L557.674,166.93z M558.363,166.016l-0.002,0.012l0.014,0.003l0.012-0.007l-0.008-0.008H558.363L558.363,166.016z M558.502,164.593l-0.002,0.012l0.014,0.003l0.012-0.007l-0.008-0.008H558.502L558.502,164.593z M559.138,165.38l0.021,0.003l0.007-0.009l-0.016-0.019l-0.019-0.002l-0.002,0.012L559.138,165.38L559.138,165.38z M557.349,166.799l0.021,0.003l0.007-0.009l-0.016-0.019l-0.019-0.002l-0.002,0.012L557.349,166.799L557.349,166.799z M558.575,167.117l0.021,0.003l0.007-0.009l-0.016-0.019l-0.019-0.002l-0.002,0.012L558.575,167.117L558.575,167.117z M556.166,167.474l0.005,0.021l0.034,0.008l0.021-0.021l-0.01-0.018l-0.029-0.008L556.166,167.474L556.166,167.474z M557.908,167.198l0.004-0.012l-0.03-0.003l-0.023,0.011l0.009,0.012L557.908,167.198z M557.63,165.195l0.01-0.014l-0.015-0.003l-0.023,0.011l-0.006,0.014L557.63,165.195L557.63,165.195z M558.998,165.406l0.01-0.014l-0.015-0.003l-0.023,0.011l-0.006,0.014L558.998,165.406L558.998,165.406z M558.273,167.012l0.019,0.002l0.012-0.023l-0.005-0.023l-0.016-0.007l-0.012,0.017L558.273,167.012L558.273,167.012z M557.302,166.851l0.04-0.005l0.017-0.017l-0.023-0.014l-0.054,0.007l-0.012,0.014L557.302,166.851L557.302,166.851z M557.169,166.773h0.04l0.038-0.002l0.009-0.012l-0.042-0.024l-0.038,0.003l-0.016,0.019L557.169,166.773L557.169,166.773z M556.963,166.726l0.016-0.016l-0.012-0.016h-0.033l-0.021,0.014l0.002,0.019L556.963,166.726L556.963,166.726z M557.57,166.753l0.026-0.01l0.003-0.015l-0.026-0.007l-0.018,0.012l-0.001,0.018L557.57,166.753L557.57,166.753z M558.296,166.92l0.026-0.01l0.003-0.015l-0.026-0.007l-0.018,0.012l-0.001,0.018L558.296,166.92L558.296,166.92z M557.737,166.757l-0.004,0.018l0.015,0.007l0.023-0.006v-0.015l-0.017-0.01L557.737,166.757L557.737,166.757z M558.312,167l-0.004,0.018l0.015,0.007l0.023-0.006v-0.015l-0.017-0.01L558.312,167L558.312,167z M557.743,166.941l0.021-0.001l0.005-0.011l-0.028-0.012l-0.026,0.003l0.001,0.017L557.743,166.941L557.743,166.941z M558.338,166.97l0.021-0.001l0.006-0.011l-0.028-0.012l-0.026,0.003l0.001,0.017L558.338,166.97L558.338,166.97z M556.941,167.248l0.021-0.001l0.005-0.011l-0.028-0.012l-0.026,0.003l0.001,0.017L556.941,167.248L556.941,167.248z M556.454,167.474l0.021-0.001l0.005-0.011l-0.028-0.012l-0.026,0.003l0.001,0.017L556.454,167.474L556.454,167.474z M557.991,166.709h0.021l0.008-0.017l-0.017-0.017l-0.029,0.001l-0.006,0.018L557.991,166.709L557.991,166.709z M558.165,166.886l0.019-0.007l-0.01-0.014h-0.029l-0.007,0.015L558.165,166.886L558.165,166.886z M558.243,166.883l-0.003,0.019l0.011,0.006l0.014-0.012l-0.007-0.012H558.243L558.243,166.883z M558.049,167.15l0.002-0.019l-0.024,0.002l-0.024,0.021l0.014,0.01L558.049,167.15L558.049,167.15z M558.187,167.289l0.014-0.007l-0.019-0.019h-0.021l0.003,0.017L558.187,167.289L558.187,167.289z M558.232,166.711v0.014l0.014,0.008l0.012-0.008l-0.007-0.014H558.232L558.232,166.711z M558.362,166.914l-0.006,0.024l0.019,0.005l0.016-0.012l-0.012-0.019L558.362,166.914L558.362,166.914z M558.222,169l0.154,0.139l0.088,0.045h0.057l0.017-0.017l-0.016-0.019l-0.08-0.009l-0.036-0.019l-0.04-0.05l-0.128-0.104l-0.023,0.005L558.222,169L558.222,169z M558.636,170.204l0.016,0.024l0.031,0.017l0.028-0.014l-0.005-0.026l-0.064-0.035l-0.033-0.005l-0.01,0.017L558.636,170.204L558.636,170.204z M558.584,170.343l-0.005,0.028l0.012,0.021l-0.012,0.038l0.016,0.005l0.047-0.038l0.059-0.003l0.029-0.043l-0.009-0.029l-0.054-0.017l-0.042,0.009L558.584,170.343L558.584,170.343z M559.14,170.691l0.052,0.01l0.031,0.029l0.026,0.016l0.052-0.012l-0.003-0.019l-0.05-0.003l-0.042-0.033l-0.005-0.04l-0.023-0.023l-0.023,0.009l-0.002,0.028l-0.028,0.009l-0.002,0.016L559.14,170.691L559.14,170.691z M559.007,170.377l0.026-0.017l0.029,0.003l0.003,0.024l0.019-0.002l0.01-0.04l-0.021-0.026l-0.031-0.003l-0.05,0.035l-0.003,0.023L559.007,170.377L559.007,170.377z M558.917,170.454l0.023-0.005l0.019-0.016l-0.009-0.014l-0.016,0.007l-0.012-0.007l0.007-0.036l-0.009-0.009l-0.017,0.035v0.036L558.917,170.454L558.917,170.454z M559.14,170.594l0.019,0.002l0.012-0.023l-0.005-0.023l-0.016-0.007l-0.012,0.017L559.14,170.594L559.14,170.594z M558.939,170.334v0.014l0.014,0.008l0.012-0.008l-0.007-0.014H558.939L558.939,170.334z M558.531,170.134v0.016l0.014,0.005l0.014-0.007l0.002-0.017l-0.014-0.003L558.531,170.134L558.531,170.134z M558.873,170.488l0.021-0.01l0.001-0.012l-0.03-0.005l-0.02,0.015l0.001,0.014L558.873,170.488L558.873,170.488z M558.863,170.29l0.026-0.01l0.003-0.015l-0.026-0.007l-0.018,0.012l-0.001,0.018L558.863,170.29L558.863,170.29z M557.968,168.869l0.035-0.01l-0.004-0.014l-0.041-0.001l-0.021,0.011l0.001,0.012L557.968,168.869L557.968,168.869z M558.046,168.844l-0.006,0.024l0.019,0.005l0.016-0.012l-0.012-0.019L558.046,168.844L558.046,168.844z M558.132,168.894l0.007,0.024l0.028,0.003l0.003-0.024l-0.014-0.014L558.132,168.894L558.132,168.894z M560.16,171.198l0.019-0.014l-0.005-0.011l-0.017,0.004l-0.008,0.015L560.16,171.198L560.16,171.198z M561.601,171.216v0.014l0.014,0.008l0.012-0.008l-0.007-0.014H561.601L561.601,171.216z M560.453,172.458l0.065,0.034l0.044-0.003l-0.008-0.031l-0.07-0.042l-0.016-0.036l-0.052-0.008l0.003,0.026l0.029,0.018L560.453,172.458L560.453,172.458z M560.068,172.41l0.021,0.003l0.007-0.009l-0.016-0.019l-0.019-0.002l-0.002,0.012L560.068,172.41L560.068,172.41z M560.714,172.358l0.028-0.004l0.017-0.025l-0.015-0.025l-0.021,0.004l-0.017,0.037L560.714,172.358L560.714,172.358z M560.245,172.419l0.026,0.021l0.018-0.008l-0.023-0.044l-0.042-0.016v0.023L560.245,172.419L560.245,172.419z M560.606,172.437l0.078,0.026l0.062-0.005l0.008-0.031l-0.083-0.042l-0.068,0.005l-0.018,0.023L560.606,172.437L560.606,172.437z M588.796,170l0.031-0.01v-0.036l-0.028-0.029l-0.049-0.005l-0.029,0.031l0.012,0.035L588.796,170L588.796,170z M588.203,169.849l0.01-0.014l-0.015-0.003l-0.023,0.011l-0.006,0.014L588.203,169.849L588.203,169.849z M587.332,170.114l0.04-0.005l0.017-0.017l-0.023-0.014l-0.054,0.007l-0.012,0.014L587.332,170.114L587.332,170.114z M588.161,169.765v0.01h0.012l0.022-0.011l0.003-0.01l-0.019,0.001L588.161,169.765L588.161,169.765z M588.306,169.796v0.014l0.014,0.008l0.012-0.008l-0.007-0.014H588.306L588.306,169.796z M588.282,169.767l-0.003,0.019l0.011,0.006l0.014-0.012l-0.007-0.012H588.282L588.282,169.767z M587.471,170.148l-0.01-0.036l-0.042-0.013l-0.003,0.029l0.031,0.034L587.471,170.148L587.471,170.148z M556.376,165.06L556.376,165.06l0.01-0.014l-0.015-0.003l-0.023,0.011l-0.006,0.014L556.376,165.06 M555.75,165.242l0.002-0.019l-0.024,0.002l-0.024,0.021l0.014,0.01L555.75,165.242z"/>
</svg>
