<svg xmlns="http://www.w3.org/2000/svg" viewBox="671.598 288.158 6.312 10.663">
  <path d="M671.923246,289.465282l-0.017322,-0.062721l0.027716,-0.055752l0.051967,-0.020907l0.090076,-0.108019l0.069289,-0.013938l0.014374,-0.016523l0.001232,-0.025211l-0.029464,-0.041895l0.017322,-0.052267l0.103933,-0.048783l0.072914,0.014099l0.060131,0.05522l0.015686,0.068367l-0.027475,0.085322l-0.076218,0.041814l-0.10415,-0.020641l-0.047059,0.007889l-0.091303,0.071989l-0.030266,0.058172v0.042072l0.060131,0.057849l-0.002614,0.036813l-0.044573,0.055978l-0.065231,0.00976l-0.05256,-0.016729l-0.027716,-0.066205l0.03118,-0.055752Z M671.885137,289.625568l0.017322,0.048783l0.038109,-0.003484l0.006929,-0.034845l-0.03118,-0.024391l-0.03118,0.013938Z M672.243708,294.010801l0.04677,-0.026134l-0.01559,-0.052267l-0.057163,0.005227l-0.025983,0.057494l0.051967,0.01568Z M672.035841,297.789731l0.083147,0.062721l0.086034,-0.000399l0.041176,-0.03747l0.018297,-0.071892l0.007194,-0.216038l-0.017587,-0.045298l-0.06236,-0.020907l-0.071033,0.001125l-0.168014,0.072049l-0.026104,0.040362l-0.003922,0.039443l0.021068,0.022839l0.06612,0.033251l0.016733,0.026739l0.009251,0.093476Z M672.435984,297.983121v0.099308l0.150703,0.282244l0.07795,0.057494l0.068249,-0.016151l0.021153,-0.033321l0.030121,-0.206638l0.041573,-0.114988l-0.016793,-0.118158l-0.021891,-0.045611l-0.08007,-0.060884l-0.052936,-0.015777h-0.103734l-0.051967,-0.036587l-0.042343,-0.0068l-0.029412,0.017749l-0.039216,0.096634v0.039443l0.048611,0.062043Z M676.816777,297.925627l0.03118,-0.010453v-0.03136l-0.03118,-0.01568l-0.025983,0.026134l0.025983,0.03136Z M677.112987,297.67997l0.005197,-0.041814l-0.03118,-0.020907l-0.020787,0.03136l0.010393,0.036587l0.036377,-0.005227Z M677.38841,289.996666l0.013858,0.03136l0.053699,-0.01568l0.076218,-0.066205l0.06236,-0.027876v-0.038329l-0.057163,0.005227l-0.148971,0.111504Z M677.546043,290.148242h0.048502l0.017322,-0.038329l-0.027716,-0.038329l-0.086611,0.010453l-0.010393,0.038329l0.058896,0.027876Z M676.104833,288.5175l0.051967,-0.017422l0.017322,-0.055752l-0.055431,-0.038329l-0.048502,0.027876l0.003464,0.062721l0.03118,0.020907Z M675.408479,288.496593l0.013858,-0.045298l-0.051967,-0.020907l-0.027716,0.027876l-0.003464,0.045298l0.069289,-0.006969Z M676.122155,288.311915l0.045038,-0.017422l-0.017322,-0.038329l-0.045038,-0.003484l-0.03118,0.027876l0.048502,0.03136Z M676.118691,288.221318h0.038109l0.003464,-0.034845l-0.065824,-0.027876l-0.020787,0.027876l0.045038,0.034845Z M676.229553,288.235256l0.041573,-0.034845l-0.020787,-0.034845l-0.051967,0.024391l-0.010393,0.041814l0.041573,0.003484Z M676.981338,289.266666l0.038109,-0.027876l0.003464,-0.027876h-0.045038l-0.03118,0.038329l0.034644,0.017422Z M677.085271,289.224852l0.041573,-0.017422l-0.003464,-0.045298h-0.038109l-0.020787,0.034845l0.020787,0.027876Z M676.773471,288.817166l0.041573,-0.003484l0.003464,-0.027876l-0.045038,-0.013938l-0.027716,0.024391l0.027716,0.020907Z M676.267662,288.594159l0.103933,0.003484l0.086611,-0.03136l0.027716,-0.055752l-0.027716,-0.038329l-0.024251,-0.128926l-0.055431,-0.006969l-0.027716,0.076659l-0.117791,0.076659l-0.010393,0.083628l0.045038,0.020907Z M676.548282,288.68824l0.079682,-0.094081l0.013858,-0.097566l-0.051967,-0.038329l-0.06236,0.048783l-0.03118,0.06969l0.017322,0.038329l-0.017322,0.027876l-0.038109,0.020907l-0.006929,0.048783l0.03118,0.013938l0.03118,-0.024391l0.048502,0.03136l-0.003464,0.034845l0.017322,0.010453l0.048502,-0.052267l-0.017322,-0.024391l-0.038109,0.003484l-0.020787,-0.017422Z M676.395846,288.698693l0.020787,-0.03136l-0.013858,-0.052267l-0.055431,0.027876l-0.003464,0.048783l0.051967,0.006969Z M675.519342,288.423419l-0.065824,0.059236l0.006929,0.052267l-0.041479,0.088654l-0.00088,0.044289l0.03543,0.069157l-0.027716,0.083628l-0.107398,0.027876l-0.034644,0.013938l-0.051967,0.076659l-0.152436,0.020907l-0.083147,-0.034845l-0.117791,0.034845l-0.090076,0.160287l-0.207867,0.223007l-0.117791,0.027876l-0.103933,0.097566l-0.006929,0.111504l-0.221725,0.236945l-0.173222,0.076659l-0.214796,0.006969l-0.242511,0.125442l-0.090076,0.132411l-0.304871,0.13938l-0.256465,0.028348l-0.069193,-0.01441l-0.093552,-0.072364l-0.065812,-0.011264l-0.145507,0.020907l-0.256369,-0.062721l-0.087213,-0.051445l-0.134512,-0.164594l-0.038037,-0.07995l-0.000072,-0.050719l0.03118,-0.052267l-0.0077,-0.038722l-0.014258,-0.010803l-0.040403,0.002484l-0.043257,-0.015632l-0.034693,-0.052316l-0.041573,0.01568l-0.03118,0.135895l0.025983,0.062721l0.10107,0.090452l0.013532,0.043018l-0.017598,0.103475l-0.112595,0.243914l-0.072753,0.036587l-0.025983,0.052267l0.03118,0.052267l-0.020787,0.073174l-0.083147,0.083628l-0.01381,0.057131l0.019608,0.059164l0.113725,0.077094l0.07795,0.03136l0.041573,0.057494l0.002045,0.066762l-0.054012,0.07436l-0.119523,0.067948l-0.051967,0.073174l-0.001949,0.088225l0.055648,0.119102l0.03118,-0.006969l0.019054,-0.080143l0.043137,-0.075376l0.066667,-0.031554l0.046096,0.002396l0.020787,0.057494l-0.057163,0.083628l0.03118,0.047041h0.10913l0.098737,-0.094081l0.119523,-0.005227l0.072753,0.073174l-0.005197,0.088855l0.088343,0.214296l0.114327,0.052267l0.083147,0.219523l0.020787,0.188163l-0.074486,0.196874l0.051967,0.080143l0.090076,0.003484l0.051967,0.020907l0.03118,0.041814l0.069289,0.020907l0.076218,0.125442l0.017322,0.062721l-0.038109,0.125442l-0.03118,0.121957v0.10105l-0.03118,0.076659l0.020787,0.167256l0.097004,0.111504l0.010393,0.132411l-0.121256,0.132411l-0.135113,0.041814l-0.055431,-0.027876l-0.055431,0.003484l-0.06236,0.052267l0.017322,0.03136l0.069289,-0.010453l0.045038,0.034845l0.003464,0.104535l-0.055431,0.06969l-0.006929,0.052267l0.027716,0.055752l-0.020787,0.212554l0.024251,0.052267h0.048502l0.065824,0.080143l0.005197,0.078401l0.019054,0.008711l0.020787,-0.087112l0.086611,-0.097566l0.121256,-0.010453l0.110862,0.048783l0.069289,0.135895l0.010393,0.177709l-0.069289,0.219523l-0.079682,0.156802l-0.010393,0.066205l0.079682,0.059236l0.058896,-0.006969l0.048502,0.020907l-0.027716,0.038329h-0.103933l-0.097004,-0.073174l-0.138578,-0.247399l-0.045038,-0.003484l-0.020787,0.066205l0.034644,0.184678l-0.013858,0.097566l-0.003464,0.048783l0.034644,0.059236l-0.024251,0.041814l0.003464,0.118473l0.055431,0.059236l0.010393,0.076659l-0.065824,0.212554l-0.166293,0.243914l-0.086611,0.062721l0.006929,0.094081l0.072946,0.040604l0.023529,0.043387l-0.013328,0.086749l-0.100469,0.104535l-0.006929,0.087112l0.06236,0.13938l0.083147,0.038329l0.065415,0.088201l0.011765,0.094662l-0.063322,0.081958l-0.197473,0.153318l-0.010393,0.080143l0.038109,0.059236l0.058896,-0.003484l0.03118,0.034845v0.076659l0.03118,0.094081l0.017322,0.012196l-0.006929,-0.071432l0.020787,-0.024391l0.076218,0.073174l-0.013858,0.108019l0.022206,0.050106l0.024837,0.007889l0.039568,-0.019665l0.045038,0.020907l0.052648,0.09342l0.002614,0.040757l-0.031012,0.074892l0.006175,0.027658l0.020518,0.010728l0.028738,-0.010511l0.144208,0.013587l0.082353,0.019721l0.071382,0.064257l0.017322,0.083628l-0.03118,0.094081l0.001299,0.045964l0.054132,0.103869l0.030182,0.020375l0.021385,0.001756l0.029595,-0.015561l0.033165,0.010853l0.037423,0.058172l0.00415,0.03591l-0.051967,0.104535l-0.010393,0.06969l0.041573,0.024391l0.061735,-0.023508l0.022576,0.008917l0.008796,0.020665l-0.016889,0.025287l0.034644,0.066205l0.038975,-0.009582l-0.003685,-0.052375l-0.017102,-0.026026l0.012992,-0.028747h0.049368l0.005197,-0.02352l-0.026849,-0.033974l0.017322,-0.027876l0.041573,0.024391l0.126452,-0.056623l0.025983,-0.039201l-0.005197,-0.039201l0.011332,-0.007526l0.013072,0.00263l0.018301,0.035498l0.030065,0.02498l0.122972,0.05505l0.016897,0.019891l0.005229,0.022351l0.064052,0.034184l0.030065,-0.006574l0.031372,0.003944l0.053322,0.02377l0.020787,0.045298l0.020009,0.012446l0.066602,0.004977l0.024901,-0.008921l0.051317,-0.046831l0.101624,-0.054405l0.03268,-0.028925l0.028526,-0.049081l0.356838,-0.285728l0.041573,-0.059236l0.003464,-0.10105l0.073619,-0.083628l-0.002598,-0.052267l-0.044172,-0.044427l-0.071887,-0.105406l-0.010393,-0.128926l0.020787,-0.10105l0.110862,-0.149833l0.103837,-0.089036l0.04167,-0.018983l0.105389,-0.012571l0.035294,0.013805l0.039468,0.051033l0.086611,0.048783l0.036665,-0.00121l0.007843,-0.025638l-0.030651,-0.028904l0.003464,-0.034845l0.097004,-0.080143l0.118417,-0.027682l0.046407,0.003999l0.053436,0.037622l0.041333,0.013599l0.135354,0.003823l0.090076,0.034845l0.252905,0.181194l0.024251,0.06969l0.171923,0.07332l0.070633,0.000166l0.100424,-0.028188l0.04855,0.012244l0.034596,0.026085l-0.006929,0.045298l0.03118,0.066205l0.017623,0.01032l0.010922,-0.011887l0.002635,-0.043732l0.038109,-0.073174l0.086611,-0.020907l0.038109,-0.045298l0.024251,-0.104535l0.027716,-0.020907l-0.006929,-0.055752l-0.045038,-0.038329l-0.013641,-0.043012l0.044821,-0.207872l0.090473,-0.156971l0.043137,-0.023666l0.072549,-0.005916l0.007843,-0.019721l-0.017548,-0.019965l-0.064805,-0.035097l-0.034644,-0.062721l0.010393,-0.174225l0.09354,-0.247399l0.050319,-0.038426l0.011765,-0.041415l-0.006652,-0.181496l-0.045038,-0.062721l-0.001251,-0.033853l0.035896,-0.129918l0.038109,-0.038329l0.041573,-0.188163l-0.034644,-0.135895l-0.006929,-0.13938l0.041573,-0.059236l0.010393,-0.121957l0.041573,-0.066205l0.010393,-0.13938l-0.034644,-0.125442l0.058896,-0.278759l0.038109,-0.052267l0.003464,-0.045298l-0.034644,-0.045298l-0.013858,-0.111504l0.03118,-0.087112l0.080119,-0.047753l0.012394,-0.019549l-0.00417,-0.01981l-0.04677,-0.010453l-0.048502,-0.041814l0.003464,-0.167256l0.058896,-0.195132l0.103933,-0.195132l0.003737,-0.035668l-0.017915,-0.0287l-0.152115,-0.092435l-0.100469,-0.121957l-0.06236,-0.142864l-0.051967,-0.076659l-0.020787,-0.212554l0.027716,-0.156802l0.159365,-0.24043l0.183616,-0.191647l0.117791,-0.052267l0.06236,-0.083628v-0.083628l0.03118,-0.055752l0.045038,-0.045298l0.103933,-0.226492l0.020787,-0.118473l-0.03118,-0.052267h-0.045038l-0.038109,-0.052267v-0.045298l-0.041573,-0.094081l-0.045038,-0.017422l-0.069289,-0.059236l-0.045038,-0.184678l0.038109,-0.135895l-0.041573,-0.104535l-0.069289,-0.034845l-0.034644,-0.062721v-0.076659l0.017322,-0.055752l-0.013858,-0.038329l-0.051967,-0.017422l-0.100469,-0.097566l-0.005197,-0.09321l0.054565,-0.03136l0.018188,-0.02352l-0.028582,-0.049654l0.033778,-0.039201h0.09354l0.005197,-0.036587l-0.087205,-0.059962l-0.053105,-0.015825l-0.054565,0.013067l-0.03118,-0.013067l0.005197,-0.054881l-0.033778,-0.03136h-0.04677l-0.057163,-0.039201l0.002598,-0.049654l0.070155,-0.060107l-0.005197,-0.036587l-0.0707,-0.004259l-0.047059,0.023666l-0.048534,0.058994l-0.067557,-0.00784l-0.036377,-0.057494l-0.070155,-0.013067l-0.044172,0.02352h-0.06236l-0.018188,-0.03136l0.051967,-0.03136l0.130671,0.008647l0.04183,-0.026295l0.048358,-0.131314l-0.023385,-0.049654l0.059762,-0.096695l0.051213,-0.016842l0.027698,0.014154l0.025023,0.023595l0.098913,0.014841l0.033602,-0.017455l-0.021398,-0.038739l-0.02789,-0.012173l-0.07803,-0.001355l-0.075352,-0.060107l-0.06236,-0.002613l-0.103933,0.065334l-0.036377,-0.010453l0.026641,-0.064431l-0.000658,-0.02965l-0.04677,-0.020907l-0.054565,0.01568l-0.028582,0.075788l-0.054565,0.020907l-0.018188,-0.028747l0.046465,-0.054106l0.013763,-0.0395l0.002132,-0.081489l0.036393,-0.099889l0.028759,-0.020326h0.049175l0.038975,-0.028747l0.019038,-0.116585l-0.013072,-0.028925l-0.037147,-0.006066l-0.036377,0.03136l-0.01798,-0.006888l-0.010602,-0.021859l0.015831,-0.041249l-0.004766,-0.030606l-0.05004,-0.090173l-0.03118,0.005227l-0.01559,0.039201l-0.028582,0.01568l-0.10913,-0.018294l-0.032607,0.007969l-0.013072,0.026295l0.004972,0.05459l-0.010201,0.045331l-0.052159,0.059204l-0.034712,0.004364l-0.025547,-0.021496l0.011757,-0.122248l-0.069273,-0.130184l-0.062745,-0.057849l-0.145138,-0.097695l-0.083147,-0.020907l-0.103933,0.06969l-0.058896,-0.010453l-0.013858,-0.024391l0.017322,-0.03136l-0.010393,-0.038329l-0.034644,-0.010453l-0.017322,0.062721l0.013858,0.041814l-0.017322,0.010453l-0.027716,-0.013938l-0.017322,-0.03136l0.027716,-0.034845l0.017322,-0.076659l-0.017322,-0.052267l-0.093909,-0.028634l-0.044669,-0.027118l-0.03118,-0.045298h-0.048502l-0.034644,0.045298l-0.090076,-0.006969Z "/>
</svg>
