<svg xmlns="http://www.w3.org/2000/svg" viewBox="685.562 299.043 13.853 9.237">
  <path d="M697.713,299.173l0.016-0.073l0.083-0.057l0.099,0.016l-0.005,0.057l-0.057,0.078l-0.078,0.016L697.713,299.173z M690.179,299.574l0.107-0.045l0.01-0.048l-0.045-0.031l-0.066,0.003l-0.059,0.059l0.007,0.049L690.179,299.574z M694.584,300.27l0.052-0.016l0.021-0.083l-0.068-0.021l-0.047,0.026v0.078L694.584,300.27z M695.312,300.119l0.068,0.036l0.12,0.016l0.005-0.036l-0.052-0.021l-0.021-0.073l-0.073-0.031l-0.057,0.01l-0.01,0.062L695.312,300.119z M697.209,299.839l0.047,0.021l0.047-0.042v-0.052l-0.052-0.01l-0.036,0.031L697.209,299.839z M696.356,300.187l0.088,0.047h0.073l0.016-0.083l0.005-0.094l-0.042-0.026l-0.047,0.016l-0.088-0.016l-0.078,0.016l-0.031,0.062l0.021,0.057L696.356,300.187z M696.84,300.909l0.114,0.057l0.057-0.031l-0.005-0.068l-0.052-0.068l-0.13-0.047l-0.047,0.057L696.84,300.909z M696.694,300.561l0.114,0.073h0.062l-0.021-0.083v-0.052h0.062l0.021-0.036l-0.052-0.026l-0.01-0.099l-0.036-0.042l-0.114,0.01l-0.078,0.047l-0.01,0.146L696.694,300.561z M697.416,299.714h0.031l0.021-0.036l-0.042-0.021l-0.036,0.021L697.416,299.714z M696.866,300.738l0.036-0.01l-0.016-0.031l-0.036-0.005l-0.016,0.036L696.866,300.738z M685.686,307.795l0.146,0.132h0.132l0.097-0.097l-0.028-0.159l-0.118-0.097l-0.111-0.014l-0.152-0.069l-0.09,0.048v0.104L685.686,307.795z M686.005,302.737l0.09,0.035l0.069-0.021l-0.009-0.06l-0.081-0.099l-0.083-0.007l-0.021,0.055L686.005,302.737z M686.864,302.889l0.076,0.028l0.097-0.021l0.111,0.055l0.069-0.028l-0.028-0.069l-0.139-0.035l-0.062-0.055h-0.097l-0.055,0.069L686.864,302.889z M687.051,302.605l0.076,0.014l0.035-0.055l-0.022-0.069l-0.054-0.021l-0.055,0.042L687.051,302.605z M687.494,303.215l0.042-0.048l-0.021-0.18l-0.062-0.014l-0.028,0.048l0.042,0.076L687.494,303.215z M687.501,303.478l0.076,0.159v0.159l0.194,0.201l0.18,0.028l0.132,0.062l0.048,0.104l0.166,0.208l0.118,0.028l0.291-0.083l0.339-0.014l0.291,0.042l0.159,0.125l0.104,0.18l0.076,0.035l0.111-0.021l0.305,0.014l0.187,0.09l0.173,0.18l0.132,0.173l0.437,0.243l0.132,0.132l0.166,0.062l0.139-0.007l0.173,0.035l0.277,0.201l0.118,0.18l0.173,0.076l0.111,0.076l0.09,0.042h0.173l0.111,0.042l0.069,0.104l0.111,0.062l0.201,0.028l0.111-0.069l0.305-0.007l0.457,0.076l0.381,0.187l0.312,0.284l0.284,0.416l0.076,0.27l0.173,0.152l0.215,0.014l0.229,0.062l0.187,0.132l0.118,0.076l0.238,0.035l0.086-0.004l0.11-0.071l0.082-0.024l0.181,0.014l0.08,0.032l0.11,0.094l0.118,0.035l0.097-0.042l0.104,0.007l0.044,0.033l0.06,0.106l0.104,0.048l0.159-0.055l0.042-0.09l0-0.079l-0.139-0.267l-0.022-0.105l0.036-0.158l0.146-0.305l0.242-0.249l0.118-0.035l0.09-0.069l0.028-0.083l0.09-0.014l0.069,0.035l0.076-0.021l-0.001-0.04l-0.041-0.07l-0.062-0.035l-0.049,0.028l-0.069-0.014l0.007-0.083l0.069-0.042l0.035-0.111l-0.076-0.076l-0.09,0.014l-0.159-0.097v-0.059l-0.066-0.128l-0.066-0.062l-0.009-0.07l0.03-0.048l0.178-0.054l0.03-0.043l-0.014-0.09l-0.063-0.094l-0.061-0.024l-0.088,0.008l-0.072-0.015l-0.083-0.069l-0.125-0.021l-0.042-0.056l-0.035-0.145l0.001-0.485l0.062-0.152l0.166-0.187l0.076-0.118l0.028-0.201l0.069-0.097l0.062-0.208v-0.132l-0.028-0.062l0.013-0.06l0.215-0.245l0.021-0.076l0.367-0.513l0.223-0.217l0.158-0.199l0.125-0.249l0.172-0.261l0.042-0.091l0.008-0.112l0.076-0.146l0.187-0.042l0.033-0.038l-0.008-0.031l-0.199-0.028l-0.152-0.076l-0.096,0.006l-0.082,0.035l-0.197,0.174l-0.45,0.166l-0.181,0.009l-0.061-0.016l-0.042-0.076l0.014-0.104l-0.013-0.062l-0.036-0.021l-0.035,0.048l0.007,0.201l-0.166,0.222l-0.319,0.187l-0.103,0.006l-0.043-0.02l-0.049-0.083l-0.055-0.035l-0.118,0.014l-0.132-0.021l-0.132-0.146l-0.097-0.014l-0.076,0.055l-0.263,0.076l-0.229-0.014l-0.104,0.042l-0.218,0.261l-0.093,0.064l-0.375,0.119l-0.27,0.076l-0.125-0.028h-0.09l-0.083,0.062l-0.312,0.062l-0.561-0.049l-0.104,0.021l-0.215-0.021l-0.118-0.055l-0.305,0.014l-0.298,0.146l-0.301,0.103l-0.08,0l-0.395-0.083l-0.277-0.132l-0.201-0.166v-0.164l-0.02-0.043l-0.091-0.035l-0.069,0.062l-0.256,0.021l-0.173-0.097l-0.007-0.139l-0.035-0.132l-0.125-0.069l-0.014-0.069l-0.09-0.042l-0.069,0.021l-0.208,0.159l-0.133,0.056l-0.068-0.008l-0.076-0.062l-0.139-0.028l-0.146,0.09l-0.09,0.159l0.062,0.159l-0.035,0.083l-0.471,0.222l-0.222-0.014l-0.132-0.104l-0.194-0.229l-0.007-0.118l-0.064-0.149l-0.036-0.042l-0.135-0.021l-0.052,0.047l0.015,0.044l0.052,0.049l0.01,0.083l-0.123,0.12l-0.083-0.048l-0.069,0.021l-0.007,0.076l-0.166,0.104l-0.097-0.014l-0.09,0.021l-0.222,0.312l-0.028,0.146l-0.097,0.159l-0.014,0.097l0.045,0.12l-0.017,0.187l-0.028,0.033l-0.078,0.02l-0.033,0.022l-0.016,0.065l0.012,0.039L687.501,303.478z M697.905,306.191l0.017-0.003l0.001-0.022l-0.026-0.04h-0.035l-0.014,0.035L697.905,306.191z"/>
</svg>
