<svg xmlns="http://www.w3.org/2000/svg" viewBox="671.597 288.158 6.310 10.664">
  <path d="M671.923,289.465l-0.017-0.063l0.028-0.056l0.052-0.021l0.09-0.108l0.069-0.014l0.014-0.017l0.001-0.025l-0.029-0.042l0.017-0.052l0.104-0.049l0.073,0.014l0.06,0.055l0.016,0.068l-0.028,0.085l-0.076,0.042l-0.104-0.021l-0.047,0.008l-0.091,0.072l-0.03,0.058v0.042l0.06,0.058l-0.003,0.037l-0.045,0.056l-0.065,0.01l-0.053-0.017l-0.028-0.066L671.923,289.465z M671.885,289.626l0.017,0.049l0.038-0.003l0.007-0.035l-0.031-0.024L671.885,289.626z M672.244,294.011l0.047-0.026l-0.016-0.052l-0.057,0.005l-0.026,0.057L672.244,294.011z M672.036,297.79l0.083,0.063l0.086,0l0.041-0.037l0.018-0.072l0.007-0.216l-0.018-0.045l-0.062-0.021l-0.071,0.001l-0.168,0.072l-0.026,0.04l-0.004,0.039l0.021,0.023l0.066,0.033l0.017,0.027L672.036,297.79z M672.436,297.983v0.099l0.151,0.282l0.078,0.057l0.068-0.016l0.021-0.033l0.03-0.207l0.042-0.115l-0.017-0.118l-0.022-0.046l-0.08-0.061l-0.053-0.016h-0.104l-0.052-0.037l-0.042-0.007l-0.029,0.018l-0.039,0.097v0.039L672.436,297.983z M676.817,297.926l0.031-0.01v-0.031l-0.031-0.016l-0.026,0.026L676.817,297.926z M677.113,297.68l0.005-0.042l-0.031-0.021l-0.021,0.031l0.01,0.037L677.113,297.68z M677.388,289.997l0.014,0.031l0.054-0.016l0.076-0.066l0.062-0.028v-0.038l-0.057,0.005L677.388,289.997z M677.546,290.148h0.049l0.017-0.038l-0.028-0.038l-0.087,0.01l-0.01,0.038L677.546,290.148z M676.105,288.517l0.052-0.017l0.017-0.056l-0.055-0.038l-0.049,0.028l0.003,0.063L676.105,288.517z M675.409,288.497l0.014-0.045l-0.052-0.021l-0.028,0.028l-0.003,0.045L675.409,288.497z M676.122,288.312l0.045-0.017l-0.017-0.038l-0.045-0.003l-0.031,0.028L676.122,288.312z M676.119,288.221h0.038l0.003-0.035l-0.066-0.028l-0.021,0.028L676.119,288.221z M676.23,288.235l0.042-0.035l-0.021-0.035l-0.052,0.024l-0.01,0.042L676.23,288.235z M676.981,289.267l0.038-0.028l0.003-0.028h-0.045l-0.031,0.038L676.981,289.267z M677.085,289.225l0.042-0.017l-0.003-0.045h-0.038l-0.021,0.035L677.085,289.225z M676.773,288.817l0.042-0.003l0.003-0.028l-0.045-0.014l-0.028,0.024L676.773,288.817z M676.268,288.594l0.104,0.004l0.087-0.031l0.028-0.056l-0.028-0.038l-0.024-0.129l-0.055-0.007l-0.028,0.077l-0.118,0.077l-0.01,0.084L676.268,288.594z M676.548,288.688l0.08-0.094l0.014-0.098l-0.052-0.038l-0.062,0.049l-0.031,0.07l0.017,0.038l-0.017,0.028l-0.038,0.021l-0.007,0.049l0.031,0.014l0.031-0.024l0.049,0.031l-0.003,0.035l0.017,0.01l0.049-0.052l-0.017-0.024l-0.038,0.003L676.548,288.688z M676.396,288.699l0.021-0.031l-0.014-0.052l-0.055,0.028l-0.003,0.049L676.396,288.699z M675.519,288.423l-0.066,0.059l0.007,0.052l-0.042,0.089l-0.001,0.044l0.035,0.069l-0.028,0.084l-0.107,0.028l-0.035,0.014l-0.052,0.077l-0.152,0.021l-0.083-0.035l-0.118,0.035l-0.09,0.16l-0.208,0.223l-0.118,0.028l-0.104,0.098l-0.007,0.111l-0.222,0.237l-0.173,0.077l-0.215,0.007l-0.242,0.125l-0.09,0.132l-0.305,0.139l-0.256,0.028l-0.069-0.014l-0.094-0.072l-0.066-0.011l-0.146,0.021l-0.256-0.063l-0.087-0.051l-0.135-0.165l-0.038-0.08l0-0.051l0.031-0.052l-0.008-0.039l-0.014-0.011l-0.04,0.003l-0.043-0.016l-0.035-0.052l-0.042,0.016l-0.031,0.136l0.026,0.063l0.101,0.09l0.013,0.043l-0.018,0.103l-0.113,0.244l-0.073,0.037l-0.026,0.052l0.031,0.052l-0.021,0.073l-0.083,0.084l-0.014,0.057l0.02,0.059l0.114,0.077l0.078,0.031l0.042,0.057l0.002,0.067l-0.054,0.074l-0.12,0.068l-0.052,0.073l-0.002,0.088l0.056,0.119l0.031-0.007l0.019-0.08l0.043-0.075l0.067-0.032l0.046,0.002l0.021,0.057l-0.057,0.084l0.031,0.047h0.109l0.099-0.094l0.12-0.005l0.073,0.073l-0.005,0.089l0.088,0.214l0.114,0.052l0.083,0.22l0.021,0.188l-0.074,0.197l0.052,0.08l0.09,0.003l0.052,0.021l0.031,0.042l0.069,0.021l0.076,0.125l0.017,0.063l-0.038,0.125l-0.031,0.122v0.101l-0.031,0.077l0.021,0.167l0.097,0.112l0.01,0.132l-0.121,0.132l-0.135,0.042l-0.055-0.028l-0.055,0.003l-0.062,0.052l0.017,0.031l0.069-0.01l0.045,0.035l0.003,0.105l-0.055,0.07l-0.007,0.052l0.028,0.056l-0.021,0.213l0.024,0.052h0.048l0.066,0.08l0.005,0.078l0.019,0.009l0.021-0.087l0.087-0.098l0.121-0.01l0.111,0.049l0.069,0.136l0.01,0.178l-0.069,0.22l-0.08,0.157l-0.01,0.066l0.08,0.059l0.059-0.007l0.048,0.021l-0.028,0.038h-0.104l-0.097-0.073l-0.139-0.247l-0.045-0.003l-0.021,0.066l0.035,0.185l-0.014,0.098l-0.003,0.049l0.035,0.059l-0.024,0.042l0.003,0.118l0.055,0.059l0.01,0.077l-0.066,0.213l-0.166,0.244l-0.087,0.063l0.007,0.094l0.073,0.041l0.024,0.043l-0.013,0.087l-0.1,0.105l-0.007,0.087l0.062,0.139l0.083,0.038l0.065,0.088l0.012,0.095l-0.063,0.082l-0.198,0.153l-0.01,0.08l0.038,0.059l0.059-0.003l0.031,0.035v0.077l0.031,0.094l0.017,0.012l-0.007-0.071l0.021-0.024l0.076,0.073l-0.014,0.108l0.022,0.05l0.025,0.008l0.04-0.02l0.045,0.021l0.053,0.093l0.003,0.041l-0.031,0.075l0.006,0.028l0.021,0.011l0.029-0.011l0.144,0.014l0.082,0.02l0.071,0.064l0.017,0.084l-0.031,0.094l0.001,0.046l0.054,0.104l0.03,0.02l0.021,0.002l0.03-0.016l0.033,0.011l0.037,0.058l0.004,0.036l-0.052,0.105l-0.01,0.07l0.042,0.024l0.062-0.023l0.023,0.009l0.009,0.021l-0.017,0.025l0.035,0.066l0.039-0.01l-0.004-0.052l-0.017-0.026l0.013-0.029h0.049l0.005-0.024l-0.027-0.034l0.017-0.028l0.042,0.024l0.126-0.057l0.026-0.039l-0.005-0.039l0.011-0.008l0.013,0.003l0.018,0.035l0.03,0.025l0.123,0.055l0.017,0.02l0.005,0.022l0.064,0.034l0.03-0.007l0.031,0.004l0.053,0.024l0.021,0.045l0.02,0.012l0.067,0.005l0.025-0.009l0.051-0.047l0.102-0.054l0.033-0.029l0.029-0.049l0.357-0.286l0.042-0.059l0.003-0.101l0.074-0.084l-0.003-0.052l-0.044-0.044l-0.072-0.105l-0.01-0.129l0.021-0.101l0.111-0.15l0.104-0.089l0.042-0.019l0.105-0.013l0.035,0.014l0.039,0.051l0.087,0.049l0.037-0.001l0.008-0.026l-0.031-0.029l0.003-0.035l0.097-0.08l0.118-0.028l0.046,0.004l0.053,0.038l0.041,0.014l0.135,0.004l0.09,0.035l0.253,0.181l0.024,0.07l0.172,0.073l0.071,0l0.1-0.028l0.049,0.012l0.035,0.026l-0.007,0.045l0.031,0.066l0.018,0.01l0.011-0.012l0.003-0.044l0.038-0.073l0.087-0.021l0.038-0.045l0.024-0.105l0.028-0.021l-0.007-0.056l-0.045-0.038l-0.014-0.043l0.045-0.208l0.09-0.157l0.043-0.024l0.073-0.006l0.008-0.02l-0.018-0.02l-0.065-0.035l-0.035-0.063l0.01-0.174l0.094-0.247l0.05-0.038l0.012-0.041l-0.007-0.182l-0.045-0.063l-0.001-0.034l0.036-0.13l0.038-0.038l0.042-0.188l-0.035-0.136l-0.007-0.139l0.042-0.059l0.01-0.122l0.042-0.066l0.01-0.139l-0.035-0.125l0.059-0.279l0.038-0.052l0.003-0.045l-0.035-0.045l-0.014-0.112l0.031-0.087l0.08-0.048l0.012-0.02l-0.004-0.02l-0.047-0.01l-0.048-0.042l0.003-0.167l0.059-0.195l0.104-0.195l0.004-0.036l-0.018-0.029l-0.152-0.092l-0.1-0.122l-0.062-0.143l-0.052-0.077l-0.021-0.213l0.028-0.157l0.159-0.24l0.184-0.192l0.118-0.052l0.062-0.084v-0.084l0.031-0.056l0.045-0.045l0.104-0.227l0.021-0.118l-0.031-0.052h-0.045l-0.038-0.052v-0.045l-0.042-0.094l-0.045-0.017l-0.069-0.059l-0.045-0.185l0.038-0.136l-0.042-0.105l-0.069-0.035l-0.035-0.063v-0.077l0.017-0.056l-0.014-0.038l-0.052-0.017l-0.101-0.098l-0.005-0.093l0.055-0.031l0.018-0.024l-0.029-0.05l0.034-0.039h0.094l0.005-0.037l-0.087-0.06l-0.053-0.016l-0.055,0.013l-0.031-0.013l0.005-0.055l-0.034-0.031h-0.047l-0.057-0.039l0.003-0.05l0.07-0.06l-0.005-0.037l-0.071-0.004l-0.047,0.024l-0.049,0.059l-0.068-0.008l-0.036-0.057l-0.07-0.013l-0.044,0.024h-0.062l-0.018-0.031l0.052-0.031l0.131,0.009l0.042-0.026l0.048-0.131l-0.023-0.05l0.06-0.097l0.051-0.017l0.028,0.014l0.025,0.024l0.099,0.015l0.034-0.017l-0.021-0.039l-0.028-0.012l-0.078-0.001l-0.075-0.06l-0.062-0.003l-0.104,0.065l-0.036-0.01l0.027-0.064l-0.001-0.03l-0.047-0.021l-0.055,0.016l-0.029,0.076l-0.055,0.021l-0.018-0.029l0.046-0.054l0.014-0.039l0.002-0.081l0.036-0.1l0.029-0.02h0.049l0.039-0.029l0.019-0.117l-0.013-0.029l-0.037-0.006l-0.036,0.031l-0.018-0.007l-0.011-0.022l0.016-0.041l-0.005-0.031l-0.05-0.09l-0.031,0.005l-0.016,0.039l-0.029,0.016l-0.109-0.018l-0.033,0.008l-0.013,0.026l0.005,0.055l-0.01,0.045l-0.052,0.059l-0.035,0.004l-0.026-0.021l0.012-0.122l-0.069-0.13l-0.063-0.058l-0.145-0.098l-0.083-0.021l-0.104,0.07l-0.059-0.01l-0.014-0.024l0.017-0.031l-0.01-0.038l-0.035-0.01l-0.017,0.063l0.014,0.042l-0.017,0.01l-0.028-0.014l-0.017-0.031l0.028-0.035l0.017-0.077l-0.017-0.052l-0.094-0.029l-0.045-0.027l-0.031-0.045h-0.049l-0.035,0.045L675.519,288.423z"/>
</svg>
