<svg xmlns="http://www.w3.org/2000/svg" viewBox="665.976 261.894 44.153 40.994">
  <path fill-rule="evenodd" d="M678.107909,278.697351v-0.026652l0.025769,-0.030206l0.044666,0.001777l0.013743,0.019545l-0.012025,0.026652l-0.036076,0.017768l-0.036076,-0.008884Z M677.805553,280.580778l0.096204,-0.071073l0.032641,-0.063965l-0.001718,-0.071073l-0.051538,-0.07818l-0.029205,-0.003554l-0.04982,0.040867l-0.04123,0.126154l0.017179,0.11194l0.027487,0.008884Z M678.699735,282.46154l-0.002577,0.026652l0.066999,0.031983l0.085037,0.010661l0.04123,-0.015991l-0.002577,-0.050639l-0.051538,-0.101279h-0.018038l-0.002577,0.034648l-0.038653,0.047974l-0.077307,0.015991Z M678.903309,281.560693l-0.005154,0.101279l0.110806,0.130596l0.087614,0.021322l0.139152,-0.015991l0.118537,0.029317l0.043807,-0.010661l0.012884,-0.05597l0.056692,-0.013326l0.061845,0.029317l0.046384,-0.007996l0.036076,-0.0613l0.056692,-0.00533l0.04123,0.053305h0.020615v-0.042644l0.043807,-0.039978l0.054115,0.010661l0.036076,0.101279l0.07473,0.093283l0.051538,0.029317l0.108229,0.002665l0.038653,-0.039978l-0.012884,-0.085287l-0.121114,-0.082622l0.002577,-0.037313l0.090191,-0.039978l0.038653,-0.058635l0.018038,-0.261192l-0.030923,-0.079957l-0.059268,-0.031983l-0.038653,0.010661l-0.087614,0.127931l-0.030923,0.101279l-0.056692,0.0613l-0.133998,-0.002665l-0.097922,-0.077292l-0.092768,-0.047974l-0.015461,0.013326l0.023192,0.039978l-0.018038,0.069296l-0.079884,0.0613l-0.07473,-0.00533l-0.069576,-0.071961l-0.105653,-0.018657l-0.203574,0.034648l-0.077307,0.071961Z M679.636864,283.567609l-0.010308,0.063965l0.024051,0.071073l0.048102,0.007107l0.054974,-0.03909l0.003436,-0.071073l-0.051538,-0.049751l-0.068717,0.017768Z M681.787709,283.457446l-0.037794,0.021322l0.006872,0.035536l0.037794,0.017768l0.037794,0.085287l0.092768,0.071073l0.04123,-0.014215v-0.095948l-0.089332,-0.188343l-0.051538,-0.035536l-0.027487,0.017768l-0.010308,0.085287Z M682.583109,283.975389l0.005154,0.05597l0.025769,0.029317h0.023192l0.005154,-0.031983l-0.010308,-0.05597l-0.020615,-0.007996l-0.028346,0.010661Z M693.330308,290.686543l0.020849,0.020849l0.026061,-0.013031l0.031274,-0.072972l-0.018243,-0.020849l-0.04691,0.013031l-0.013031,0.072972Z M694.054812,291.588263l0.036486,0.028667l0.067759,0.002606l0.112064,-0.03388l0.031274,-0.03388l-0.026061,-0.015637l-0.062547,0.013031l-0.044304,-0.018243l-0.078184,-0.005212l-0.03388,0.020849l-0.002606,0.041698Z M692.762172,290.868972l0.072972,0.041698l0.216309,-0.002606l0.039092,-0.023455l0.052123,-0.010425l0.028667,-0.067759l-0.007818,-0.072972l-0.072972,-0.041698l-0.153762,-0.023455l-0.054729,-0.026061h-0.072972l-0.049516,0.023455l-0.028667,0.093821l0.031274,0.109457Z M691.118573,290.5267l0.062547,-0.013031l0.044304,-0.039092l-0.013031,-0.039092l-0.031274,0.002606l-0.020849,0.044304l-0.049516,0.018243l0.007818,0.026061Z M691.259304,290.521488l0.03388,0.007818l0.020849,-0.018243l-0.007818,-0.023455l-0.028667,-0.005212l-0.023455,0.018243l0.005212,0.020849Z M689.005002,289.906441l0.018243,0.007818l0.03388,-0.020849l0.023455,-0.04691l-0.007818,-0.054729l-0.018243,-0.007818l-0.036486,0.028667v0.044304l-0.013031,0.049516Z M689.771204,289.734437l0.036486,-0.002606l0.026061,-0.015637v-0.023455l-0.036486,-0.015637l-0.026061,0.010425l-0.018243,0.028667l0.018243,0.018243Z M689.369861,290.023717l0.03388,0.070365l0.036486,0.005212l0.023455,-0.044304l-0.007818,-0.086002l0.041698,-0.062547l0.091215,-0.036486l-0.005212,-0.020849h-0.078184l-0.101639,0.065153l-0.03388,0.057335v0.052123Z M690.27245,268.271098l0.043435,-0.022916l0.10077,-0.017628l0.119882,-0.005288l0.019112,-0.017628l-0.012162,-0.012339l-0.158105,0.005288l-0.116407,0.03173l-0.019112,0.026441l0.022586,0.012339Z M691.002166,268.339846l0.031274,-0.001763l0.005212,-0.015865l-0.017374,-0.012339h-0.020849l-0.012162,0.014102l0.013899,0.015865Z M691.043864,268.262284l0.024324,0.001763l0.013899,-0.008814l0.005212,-0.017628l-0.015637,-0.010577l-0.024324,0.003526l-0.013899,0.017628l0.010425,0.014102Z M690.698118,268.186486l0.059072,-0.005288l0.005212,-0.021153l-0.031274,-0.022916l-0.038223,0.007051l-0.008687,0.01939l0.013899,0.022916Z M690.69638,268.230555l0.076446,0.017628l0.010425,-0.012339l-0.055597,-0.028204l-0.04691,-0.007051l-0.005212,0.014102l0.020849,0.015865Z M690.635571,268.251708l0.050385,0.014102l0.015637,-0.008814l-0.039961,-0.024679l-0.026061,-0.005288l-0.015637,0.007051l0.015637,0.017628Z M687.166813,271.174361l0.020849,-0.021153l0.044304,0.013221l0.041698,0.058171l-0.007818,0.042306l-0.026061,0.005288l-0.044304,-0.03173l-0.028667,-0.066103Z M687.213723,271.362094l0.002606,0.060815l0.018243,-0.002644l0.018243,-0.060815l0.026061,-0.005288l0.057335,0.050239l0.013031,-0.013221l-0.062547,-0.071392l-0.036486,-0.013221l-0.020849,0.010577l-0.015637,0.04495Z M687.703675,271.719053h0.031274l0.026061,-0.015865l-0.002606,-0.023797l-0.03388,-0.013221l-0.026061,0.005288l-0.010425,0.026441l0.015637,0.021153Z M686.729148,270.254351l0.005197,0.018454l0.025983,0.005272l0.025983,-0.015817v-0.018454l-0.03118,-0.005272l-0.025983,0.015817Z M687.812549,271.612057l0.029012,0.019211l0.033596,0.006296l-0.003408,-0.014639l-0.036858,-0.025665l-0.026418,-0.004271l0.004075,0.019068Z M687.600391,269.320658l-0.020787,-0.026362l-0.012126,0.005272l0.006929,0.03515l0.019054,0.01406l0.01559,-0.003515l-0.008661,-0.024605Z M687.919531,269.218588l0.014328,0.014257l0.021288,-0.010071l0.010506,-0.019433l-0.012056,-0.020591l-0.023574,0.003694l-0.010492,0.032144Z M687.397204,269.216362l0.013922,0.020513l0.010875,-0.002213l0.004687,-0.01774l-0.01271,-0.016664l-0.011079,0.002254l-0.005695,0.01385Z M687.429889,269.27597l0.001948,0.024828l0.010509,0.003601l0.012802,-0.012986l-0.002795,-0.020879l-0.010706,-0.003668l-0.011757,0.009105Z M687.429889,269.27597l0.001948,0.024828l0.010509,0.003601l0.012802,-0.012986l-0.002795,-0.020879l-0.010706,-0.003668l-0.011757,0.009105Z M687.51195,269.283688l0.027544,0.004815l0.009983,-0.011941l-0.019262,-0.019369l-0.021752,0.001813l-0.010168,0.015067l0.013655,0.009616Z M687.641997,269.331091h0.020705l0.008282,-0.016806l-0.016564,-0.016806l-0.028988,0.0014l-0.005521,0.018206l0.022086,0.014005Z M687.493447,269.243834l0.013899,-0.010577l-0.005212,-0.012339l-0.019112,0.005288l-0.003475,0.014102l0.013899,0.003526Z M687.389246,269.397019l-0.006923,0.012165l0.00733,0.012404l0.014438,-0.002897l0.008122,-0.011463l-0.002534,-0.009594l-0.020433,-0.000615Z M687.249676,269.42317l0.015604,-0.001385l0.006608,-0.014545l-0.009545,-0.008126l-0.015434,0.003364l-0.008558,0.014719l0.011325,0.005974Z M687.9543,271.672329l-0.013201,-0.012622l-0.032001,0.024851l-0.004219,0.02079l0.022229,0.007334l0.019328,-0.015392l0.007864,-0.024961Z M687.754803,269.271885l0.022146,0.003108l0.024754,-0.012203l-0.004184,-0.011332l-0.027502,-0.004564l-0.024754,0.012203l0.009541,0.012788Z M687.295912,269.459593l0.0125,-0.004227l0.005208,-0.010569l-0.004167,-0.010569l-0.013542,-0.003171l-0.010417,0.006341l-0.003125,0.015853l0.013542,0.006341Z M687.817849,271.776918h0.019608l0.010457,-0.01061l-0.002614,-0.017241l-0.011765,-0.007958l-0.020915,0.005305l-0.006536,0.014589l0.011765,0.015915Z M686.711609,270.185147l0.036486,-0.015865l0.028667,-0.103121l-0.015637,-0.060815l-0.031274,0.002644l-0.026061,0.047594l-0.015637,0.113698l0.023455,0.015865Z M687.152044,269.558487l0.057335,-0.005288l0.075578,0.010577l0.010425,-0.026441l-0.049516,-0.04495l-0.099033,-0.013221l-0.04691,0.026441l0.002606,0.042306l0.049516,0.010577Z M687.399627,269.476518l0.054729,-0.010577l0.054729,-0.047594l0.018243,-0.047594h-0.023455l-0.013031,0.026441l-0.04691,0.037018l-0.04691,0.005288l-0.020849,0.015865l0.023455,0.021153Z M687.297988,269.619302l-0.151155,0.282923l-0.04691,0.04495l-0.005212,0.026441l0.044304,0.005288l0.026061,-0.015865l0.007818,-0.058171l0.059941,-0.10841l0.104245,-0.163936l0.070365,-0.068748l-0.020849,-0.021153l-0.03388,0.007932l-0.054729,0.068748Z M687.066042,270.177215l-0.015637,0.081968l-0.013031,0.148072l-0.026061,0.010577v0.037018l0.026061,0.005288l0.020849,-0.013221l0.020849,-0.193022l0.018243,-0.079324l0.052123,-0.137495l-0.005212,-0.023797l-0.020849,0.002644l-0.057335,0.161292Z M687.944308,271.758409l-0.028667,0.013221l-0.044304,0.042306v0.026441l0.023455,-0.002644l0.072972,-0.055527l0.020849,-0.023797l0.002606,-0.029086l-0.026061,-0.013221l-0.018243,0.013221l-0.002606,0.029086Z M687.360535,271.315381l0.010425,0.026441l0.039961,0.035255l0.005212,-0.014102l-0.036486,-0.044069l-0.019112,-0.003526Z M687.499528,271.449351l0.097295,0.059934l0.00695,-0.008814l-0.092083,-0.08285l-0.06081,-0.029967l-0.012162,0.007051l0.06081,0.054645Z M687.671533,271.560405l0.072972,0.028204l0.012162,-0.008814l-0.064285,-0.042306l-0.069497,-0.026441l-0.005212,0.010577l0.05386,0.038781Z M698.860515,284.499592l-0.00695,0.057335l-0.020849,0.024324l-0.026061,0.003475l-0.008687,-0.033011l0.036486,-0.054729l0.026061,0.002606Z M698.907425,284.512622l0.044304,-0.03388l-0.007818,-0.018243h-0.020849l-0.031274,0.023455l-0.005212,0.018243l0.020849,0.010425Z M698.946517,284.442257l0.031274,-0.007818l0.015637,-0.023455l-0.018243,-0.010425l-0.036486,0.007818l-0.015637,0.028667l0.023455,0.005212Z M699.777872,284.046125l-0.026061,0.010425l-0.007818,0.020849l0.018243,0.015637l0.020849,-0.013031l0.010425,-0.020849l-0.015637,-0.013031Z M705.006012,292.013449l0.051878,0.005577l0.020849,-0.013123v-0.020997l-0.031274,-0.010499l-0.039092,0.005249l-0.018243,0.018372l0.015881,0.01542Z M708.028878,293.725035l-0.013031,-0.018372h-0.026061l-0.010425,0.020997l0.013031,0.018372l0.023455,-0.002625l0.013031,-0.018372Z M705.311988,291.889353l0.016614,0.006972l0.013845,-0.001394l0.002769,-0.013943l-0.016614,-0.00976l-0.017999,0.002789l0.001385,0.015338Z  M674.641052,267.022328l-0.031,0.088l0.034,0.013l0.03,-0.01l0.018,-0.039l-0.013,-0.052h-0.038z M667.508779,267.283502l0.097,0.118l0.016,0.069l0.084,0.083l0.031,0.092l0.056,0.042l0.059,-0.005l0.074,-0.08l0.036,-0.003l0.041,0.054l0.079,0.031l0.041,-0.015l0.003,-0.057l0.074,-0.065l0.094,-0.01l0.041,0.018l0.039,-0.01l0.041,-0.059l0.012,-0.067l0.057,-0.018l0.061,0.041l0.043,0.002l0.049,-0.015l0.061,0.018l0.029,0.033l0.043,0.016l0.044,-0.008l0.162,-0.098l0.082,-0.015l0.031,-0.031l0.01,-0.07l0.074,-0.054l0.105,-0.034l0.043,0.029l0.031,-0.011l-0.015,-0.1l0.041,-0.057l0.092,-0.018l0.03,0.034l0.092,0.028l0.123,-0.008l0.087,-0.028l0.051,0.01l0.067,0.07l0.064,0.023l0.03,0.036l0.005,0.067l0.039,0.028h0.054l0.063,-0.061l0.054,0.002l0.077,0.065l0.061,0.007l0.069,-0.023l0.133,0.039l0.054,-0.023l0.008,-0.042l-0.021,-0.051l0.023,-0.119l0.085,-0.1l0.076,-0.029h0.21l0.072,-0.028l0.075,-0.143l0.041,-0.027l0.01,-0.035l-0.027,-0.161l0.02,-0.062l0.072,-0.034l0.184,-0.028l0.051,-0.041l0.003,-0.055l0.052,-0.035h0.047l0.034,-0.041l-0.013,-0.058l0.02,-0.052l0.024,-0.024l0.004,-0.048l-0.069,-0.169l-0.105,-0.11l-0.089,-0.027l-0.014,-0.048l0.12,-0.141l0.082,-0.041l0.057,0.017l0.127,-0.007l0.082,-0.048l0.047,-0.107l0.051,-0.038l0.048,-0.006l0.034,-0.045l0.014,-0.059l0.041,-0.027l0.106,-0.01l0.04,-0.052l-0.017,-0.079l-0.058,-0.028l0.004,-0.048l0.051,-0.038l0.061,-0.006l0.164,-0.121l0.099,-0.01l0.123,-0.048l0.061,0.014l0.055,0.051l-0.014,0.11l0.031,0.083l0.003,0.072l-0.017,0.041l-0.003,0.093l0.003,0.12l-0.034,0.083l-0.055,0.02l-0.027,0.09l0.021,0.072l0.051,0.041v0.055l-0.021,0.031l0.007,0.028l0.099,0.072l0.15,0.045l0.075,0.051l0.026,0.079l0.09,0.079l0.034,0.073l0.068,0.048l0.024,0.079l0.051,0.051l0.14,0.031l0.201,0.09l0.12,-0.052l0.058,0.017l0.051,0.045l0.075,0.014l0.054,-0.014l0.14,0.072l0.027,0.086l-0.098,0.144l-0.082,0.038l-0.058,0.131l0.027,0.021l0.106,0.006l0.201,0.145l0.034,-0.004l0.041,0.024l-0.003,0.11l0.098,0.124l0.031,0.169l-0.061,0.092l0.003,0.062l0.027,0.007l0.072,-0.048l0.085,0.017h0.072l0.037,0.028l0.004,0.041l0.085,0.024l0.062,-0.065l0.04,-0.162l0.035,-0.041l0.068,-0.031l0.037,-0.086l-0.126,-0.11l-0.078,-0.021l-0.052,-0.072l-0.008,-0.077l-0.061,-0.031l0.01,-0.059l0.089,-0.049l0.013,-0.096l-0.064,-0.08l0.031,-0.098l0.125,-0.062l0.059,0.006l0.033,-0.029l0.034,-0.09l-0.047,-0.113l0.023,-0.047l0.113,-0.039l0.067,-0.074l0.115,-0.091l0.069,-0.018l0.051,-0.043l0.007,-0.088l0.082,-0.114l0.085,-0.038l0.023,-0.034l0.036,-0.142l0.092,-0.131l0.064,-0.165l-0.018,-0.103l-0.049,-0.026l-0.015,-0.049l0.028,-0.057l-0.028,-0.149l-0.095,-0.062l-0.02,-0.054l0.025,-0.039l0.056,-0.015l0.029,-0.057v-0.096l0.048,-0.064l0.123,-0.034l0.113,0.003l0.03,-0.01l0.031,0.018l0.005,0.067l0.061,0.062l0.077,0.036l0.049,-0.016l0.023,-0.087l0.105,-0.073l0.025,0.013l-0.013,0.083l-0.033,0.002l0.003,0.021l0.041,0.013l0.002,0.036l-0.02,0.134v0.116l0.03,0.121l-0.015,0.039l0.01,0.039l0.113,0.051l0.064,0.078l0.013,0.072l0.102,0.111l0.23,0.064l0.049,0.029l0.074,0.002l0.092,-0.067l0.054,0.005l0.041,0.031l0.066,0.003l0.049,-0.065l0.005,-0.16l0.043,-0.049l0.044,0.003l0.066,0.059l0.049,0.005l0.041,-0.036l0.13,-0.038l0.026,-0.036l0.076,-0.021l0.052,0.005l0.058,-0.018l0.041,-0.054h0.051l0.044,0.057l0.031,-0.003l0.028,-0.033l0.056,-0.006l0.113,0.091l0.051,0.01l0.015,0.028l-0.051,0.065l-0.005,0.044l0.048,0.059l0.008,0.051l-0.023,0.029l0.018,0.046l0.128,0.042l0.097,0.064l-0.003,0.08l-0.04,0.049l0.015,0.039l0.072,0.025l0.066,-0.028l0.087,0.003l0.046,0.012l0.064,-0.023l0.031,-0.062l0.081,-0.051l-0.002,-0.06l-0.128,-0.185l-0.082,-0.047l-0.046,-0.092l0.026,-0.088l0.048,-0.013l0.023,-0.031l-0.002,-0.069l0.043,-0.042l0.057,0.003l0.023,-0.023l-0.029,-0.122l-0.084,-0.061l-0.054,0.005l-0.076,0.038l-0.046,-0.005l-0.034,-0.02h-0.033l-0.026,-0.016l-0.01,-0.044l-0.038,-0.013l-0.021,-0.031l0.049,-0.067l-0.008,-0.046l-0.023,-0.046l-0.002,-0.129l0.023,-0.031l0.005,-0.052l-0.028,-0.033l0.015,-0.031l0.059,-0.018l0.077,-0.122l0.041,-0.012l0.017,-0.037l-0.015,-0.054l0.01,-0.059l0.026,-0.015l0.082,0.012l0.199,-0.064l0.08,0.008l0.048,-0.005l0.056,-0.06l0.031,0.008l0.01,0.046l0.039,0.037l0.002,0.041l-0.046,0.054l0.005,0.082l0.036,0.021l0.049,-0.021l0.071,0.039l0.039,0.075l0.056,0.018l0.028,-0.018l0.033,0.01l0.011,0.026l0.03,0.003l0.051,-0.042l0.093,0.005l0.04,0.031l0.041,0.006l0.039,-0.026l0.046,0.005l0.074,0.072l0.038,-0.005l0.062,-0.059l0.046,-0.158l0.013,-0.139l-0.031,-0.046l-0.09,-0.105l-0.049,-0.008l-0.084,0.021l-0.041,-0.021l-0.046,-0.093l0.002,-0.059l-0.033,-0.047l0.005,-0.028l0.049,-0.018l0.071,-0.111l-0.035,-0.069l0.007,-0.042l0.105,-0.062l0.021,-0.074l-0.052,-0.075l0.011,-0.054l0.066,-0.039l0.053,-0.161l0.04,-0.006l0.059,0.035l0.118,0.018l0.073,-0.018l0.025,0.014l-0.014,0.028l0.028,0.014l0.111,-0.038l0.073,-0.06l0.198,-0.062l0.09,0.007l0.052,0.042l-0.003,0.048l0.076,0.049l0.129,0.028l0.041,0.045l-0.041,0.087l-0.063,0.028l-0.01,0.048l0.066,0.028l0.087,-0.017l0.034,-0.032l0.042,0.004l0.066,0.083l0.066,0.011l0.031,-0.025l0.077,0.018l0.052,0.048l0.049,0.011l0.076,-0.032l0.087,0.011l0.076,-0.024l0.174,0.02l0.056,-0.017l0.041,0.01l0.039,-0.017l0.059,-0.135l0.114,-0.08l0.014,-0.042l-0.034,-0.066l0.013,-0.08l0.077,-0.139l0.014,-0.125l0.062,-0.07l0.091,-0.003l0.083,-0.052l0.007,-0.101l0.063,-0.035l0.08,0.011l0.177,-0.028l0.121,-0.052l0.164,-0.035l0.135,0.014l0.084,0.073l0.086,0.028l0.119,-0.025l0.069,-0.107l0.056,-0.028l0.031,-0.038l0.066,-0.004l0.125,0.08l0.08,0.014l0.09,-0.017l0.105,-0.087h0.073l0.069,0.048l0.108,0.035h0.097l0.09,0.035l0.039,0.066l0.073,0.01l0.052,-0.014l0.048,-0.062l0.073,-0.021l0.136,-0.007l0.177,-0.108l0.063,-0.013l0.146,-0.087l0.059,0.003l0.059,-0.021l0.048,-0.038l0.091,-0.01l0.069,0.017l0.042,-0.017l0.017,-0.042l0.052,-0.017l0.066,0.017l0.039,-0.017l0.038,-0.06l0.049,-0.013l0.079,0.02l0.108,-0.027l0.115,-0.056h0.069l0.122,0.059l0.003,0.049l-0.048,0.034l-0.025,0.039l-0.006,0.059l-0.039,0.066l-0.069,0.007l-0.045,0.028h-0.039l-0.041,-0.021l-0.039,0.003l-0.066,0.059l-0.006,0.052l0.041,0.042l0.021,0.066l-0.01,0.063l0.014,0.038l0.055,0.028l0.049,0.052l-0.014,0.041l-0.049,0.063l0.004,0.035l0.045,0.014h0.09l0.052,0.045v0.052l0.042,0.049h0.042l0.045,-0.056l0.059,-0.007l0.063,0.024l0.076,0.087v0.052l0.017,0.046l0.049,0.02l-0.01,0.039l-0.063,0.059l-0.007,0.048l0.028,0.035l-0.035,0.059l0.021,0.038l0.083,-0.007l0.115,0.028l0.063,0.042l0.097,0.254l0.198,0.125l0.108,0.003l0.027,0.011l0.025,0.031l0.045,0.014l0.042,-0.014l0.073,0.017l0.097,0.08l0.08,0.021l0.188,-0.024l0.059,0.01l0.027,0.028l0.049,0.007l0.07,-0.035l0.118,0.028l0.076,0.062l0.049,0.004l0.055,-0.045l0.115,0.014l0.066,0.055l0.063,0.025l0.041,-0.018l0.028,0.028l-0.007,0.049l0.031,0.041l0.084,-0.01h0.24l0.111,0.028l0.222,0.014l0.063,0.027h0.1l0.087,-0.027l0.247,0.038l0.139,0.08l0.087,0.021l0.073,0.066l0.066,0.007l0.139,-0.028l0.08,0.01l0.024,0.035l0.038,-0.003l0.063,-0.077l0.094,-0.007l0.021,-0.035h0.069l0.07,0.032l0.024,0.052h0.212l0.094,-0.028l0.038,0.014l0.021,0.059l0.055,0.017l0.052,-0.031l0.06,0.014l0.031,0.045l0.042,0.011l0.059,-0.025l0.125,0.018l0.163,0.083l0.059,0.01l0.094,-0.01l0.014,0.074l-0.035,0.034l-0.003,0.084l-0.032,0.04l-0.01,0.044l0.007,0.051l-0.021,0.043l-0.111,0.007l-0.066,-0.023l-0.167,0.023l-0.073,0.064l-0.021,0.105l-0.194,0.09l-0.049,0.041l-0.139,0.054l-0.104,-0.004l-0.021,0.031l0.038,0.111l-0.031,0.037l-0.049,-0.004l-0.045,0.031v0.047l-0.049,0.037l-0.08,0.01l0.007,0.037l0.042,0.03l0.007,0.091l0.038,0.081l0.056,0.034l-0.011,0.054l-0.02,0.044l0.034,0.037l0.077,-0.017l0.045,-0.054l0.104,-0.01l0.136,0.044l0.052,-0.007l0.111,0.054l0.021,0.074l0.059,0.01l0.066,-0.024l0.115,0.004l0.121,0.043l0.011,0.054l-0.042,0.044l-0.031,0.081l-0.198,0.165l-0.08,0.081l-0.108,0.033l-0.049,0.064l-0.1,0.021l-0.014,0.037l0.024,0.04l-0.028,0.108l-0.073,0.04l0.004,0.041l0.073,0.084l0.125,0.074l0.121,-0.02l0.039,-0.061l0.069,-0.013l0.049,0.03l0.041,-0.003l0.053,-0.027l0.031,0.03l-0.031,0.162l0.007,0.05l-0.101,0.162l-0.045,0.023l-0.032,0.054l-0.007,0.061l-0.041,0.077l0.014,0.054l0.055,0.037l0.031,0.098l0.084,0.044l0.128,0.01l0.122,0.043l0.215,0.135l0.153,0.047l0.146,0.152l0.025,0.108l0.1,0.128l0.191,0.111v0.03l-0.159,0.101l-0.07,0.094l-0.149,0.017l-0.125,-0.013l-0.122,-0.058l-0.083,0.017l-0.007,-0.051l0.015,-0.03l0.072,-0.011l0.121,0.034l0.059,-0.009l-0.002,-0.025l-0.088,-0.102l-0.063,-0.023l-0.005,-0.039l0.033,-0.023l0.002,-0.063l-0.07,-0.108l-0.234,-0.225l-0.172,-0.131l-0.071,-0.028l-0.124,-0.019l-0.085,-0.041l-0.035,-0.042l-0.031,0.005l-0.049,0.092l-0.019,0.084l0.012,0.044l0.108,0.062l-0.002,0.021l-0.073,0.009l-0.142,0.076l-0.076,0.012l-0.046,0.025l-0.071,0.07l-0.075,0.034l-0.154,0.005l-0.026,-0.016l0.008,-0.017l0.098,-0.002l0.068,-0.055l0.048,-0.003l0.011,-0.028l-0.026,-0.055l-0.077,-0.041l-0.337,-0.105l-0.198,-0.011l-0.127,-0.04l-0.047,-0.055l-0.087,-0.011l-0.059,0.034l-0.101,0.035l-0.071,-0.012l-0.048,0.019l-0.004,0.067l-0.049,0.044l-0.059,0.013l-0.05,0.079v0.058l0.026,0.079l0.05,0.006l0.152,-0.064l0.022,-0.03l0.023,0.004l0.002,0.035l-0.115,0.106l-0.033,0.049l-0.024,0.078l-0.044,0.031l-0.132,0.027l-0.134,0.002l-0.127,0.028l-0.005,-0.021l0.03,-0.023l-0.011,-0.03l-0.048,-0.035l-0.019,0.008l-0.009,0.062l-0.028,0.044l-0.177,0.046l-0.073,0.037l-0.083,0.067l-0.327,0.159l-0.118,0.088l-0.139,0.067l-0.174,0.056l-0.257,0.113l-0.233,0.109l-0.254,0.095l-0.076,0.043l-0.045,0.042l-0.042,-0.004l-0.021,-0.038l0.021,-0.085l0.087,-0.074l0.08,-0.028l0.069,0.01l0.24,-0.063l0.049,-0.046l0.021,-0.056l0.09,-0.039h0.087l0.035,-0.046l-0.021,-0.035l-0.073,-0.007l-0.094,0.032l-0.07,0.052h-0.045l-0.076,-0.123l-0.101,-0.095h-0.066l-0.024,0.025l0.014,0.031l-0.018,0.025l-0.059,0.007l-0.073,0.074l-0.007,0.06l-0.048,0.003l-0.066,-0.052l-0.046,0.007l-0.01,0.042l-0.052,0.035l-0.063,0.004l-0.041,0.035l-0.004,0.039l-0.045,0.031l-0.097,0.018l-0.101,0.039l-0.063,0.137l-0.038,0.145l-0.01,0.187l-0.035,0.06l-0.09,0.053l-0.046,-0.011l-0.02,-0.102l-0.049,-0.053l-0.024,0.025l0.007,0.063l0.048,0.102l-0.01,0.071l-0.118,0.077l-0.039,0.06l-0.048,0.004l-0.011,0.028l0.032,0.032l0.038,0.091l0.052,0.046l0.056,-0.003l0.073,-0.071l0.034,0.014l0.021,0.085l-0.007,0.042l-0.031,0.025l0.003,0.035l0.046,0.028l0.055,0.166l0.063,0.035l0.045,-0.017v-0.064l-0.038,-0.046l0.031,-0.042l0.083,-0.035l0.042,0.01l0.028,0.106l0.073,0.113v0.063l0.003,0.187l0.042,0.11l-0.024,0.01l-0.059,-0.091l-0.021,-0.082l-0.032,-0.003l-0.034,0.053l-0.073,0.035l-0.032,0.081l0.056,0.074l0.16,0.035l0.017,0.043l-0.031,0.007l-0.063,-0.021l-0.076,0.01l0.014,0.043l0.146,0.038l0.014,0.043l-0.077,0.112l-0.007,0.085l0.028,0.123l0.042,-0.007l0.066,-0.102l0.066,-0.021l0.059,0.011l0.035,-0.025l0.003,-0.049l0.059,-0.018l0.073,0.039l0.066,0.109l-0.031,0.07l0.038,0.039l0.15,0.004l0.031,0.042l-0.014,0.24l-0.056,0.053l-0.01,0.06l0.028,0.063l-0.052,0.088l-0.063,-0.003l-0.059,-0.036l-0.003,-0.052l0.017,-0.036v-0.091l-0.052,-0.032l-0.063,0.032l-0.021,0.109l0.021,0.197l0.038,0.06l-0.017,0.064l-0.059,0.053l-0.139,0.017l-0.028,-0.021l0.028,-0.018l0.087,-0.003l0.017,-0.039l-0.125,-0.099l-0.153,-0.084l-0.097,0.007l-0.056,0.042l-0.007,0.039l0.028,0.021v0.053l-0.066,0.127l-0.045,0.18l-0.007,0.197l0.028,0.169l0.045,0.11l0.014,0.264l-0.021,0.18l0.014,0.219l0.101,0.306l0.076,0.346l0.087,0.303l0.139,0.282l0.167,0.176l0.139,0.117l0.132,0.144l0.156,0.166l0.052,0.01h0.042l0.042,0.025l0.108,0.155l0.253,0.215l0.139,0.081l0.243,0.032l0.115,0.046l0.285,0.162l0.087,0.014l0.313,0.265l0.118,0.06l0.247,0.218l0.368,0.286l0.257,0.183l0.358,0.208l0.316,0.145l0.104,0.01l0.059,-0.039l0.063,-0.014l0.111,0.053l0.09,0.092l0.021,0.084l0.046,0.032l0.163,0.102l-0.018,0.067l0.028,0.17l0.19,0.364l0.153,0.387l0.107,0.163l0.245,0.613l0.078,0.122l0.045,0.128l0.005,0.097l0.068,0.276l0.088,0.289l0.099,0.193l0.029,0.128l0.039,0.179l0.099,0.277l0.133,0.276l0.177,0.274l0.271,0.357l0.245,0.278l0.321,0.271l0.279,0.196l0.153,0.081l0.094,0.086l0.011,0.047l0.041,0.054l0.011,0.042l0.266,0.227l0.02,0.057l0.071,0.073l0.25,0.159l0.258,0.107l0.146,0.057l0.034,-0.002l0.026,0.021l0.026,0.177l-0.01,0.075l0.018,0.073l0.13,0.094l0.11,0.044l0.297,0.159l0.193,0.071l0.182,0.034l0.096,0.047l0.204,0.156l0.083,0.083l0.104,0.045l0.224,0.057l0.222,0.018l0.326,0.003l0.101,0.013l0.086,0.052l0.092,0.018l0.359,-0.023l0.389,-0.065l0.104,-0.037l0.112,0.005l0.115,0.045l0.151,0.015l0.505,-0.044l0.464,-0.078l0.06,-0.026l0.172,-0.011l0.138,0.032l0.12,0.065l0.044,0.054l0.045,0.019l0.031,-0.008l0.042,0.015l0.047,0.076l0.06,0.039l0.013,0.047l-0.013,0.039l0.01,0.078l0.036,0.037l0.011,0.099l0.015,0.044l-0.044,0.157l-0.039,0.023l-0.026,0.023l-0.005,0.042l-0.076,0.06l-0.068,0.013l-0.106,0.06l-0.079,0.076l-0.033,0.057l-0.11,0.091l-0.193,0.076l-0.034,0.026l-0.185,0.088l-0.062,0.05l-0.042,0.063l-0.023,0.132l0.034,0.193l0.078,0.185l0.14,0.123l0.193,0.118l0.313,0.147l0.083,0.024l0.097,0.049l0.06,0.042l0.104,0.05l0.052,0.011l0.073,0.034l0.065,0.063l0.063,0.039l0.047,0.005l0.013,-0.023h0.018l0.003,0.023l0.109,0.045l0.099,0.026l0.242,0.121l0.042,0.005l0.058,0.029l0.031,0.04l0.099,0.049l0.052,0.014l0.12,0.049l0.055,0.006l0.044,0.018l0.018,0.034l0.175,0.097l0.167,0.058l0.078,0.016l0.07,0.023l0.05,0.032l0.159,0.06l0.145,0.034l0.05,0.019l0.065,0.044l0.099,0.037l0.042,-0.013l0.023,0.003l0.019,0.026l0.033,0.005l0.013,-0.021l0.032,0.005l0.028,0.045l0.159,0.055l0.136,0.066l0.193,0.057l0.109,0.019l0.224,0.097l0.081,0.063l0.076,0.039l0.07,0.021l0.094,0.058l0.109,0.097l0.347,0.207l0.104,0.098l0.024,0.068l0.039,0.044l0.107,0.053l0.07,0.05l0.031,0.047l0.076,0.058l0.12,0.06l0.034,0.029l0.007,0.029l0.115,0.071l0.209,0.086l0.37,0.113l0.239,0.108l0.076,0.065l0.107,0.066l0.057,0.005l0.029,0.019l0.023,0.029l0.089,0.055l0.25,0.055l0.125,0.01l0.037,-0.002l0.026,0.01l0.052,0.076v0.037l-0.018,0.029l0.013,0.018l0.07,-0.015l0.133,0.013l0.021,0.026l-0.003,0.045l0.037,0.068l0.062,0.065v0.058l-0.021,0.053l0.003,0.047l0.063,0.068l0.044,0.024l0.036,0.036l0.011,0.037l0.164,0.139l0.078,0.048l0.06,0.002l0.037,0.019l0.026,0.034l0.028,0.015l0.042,0.003l0.081,0.045l0.018,0.039l0.057,0.055l0.045,0.019l0.143,0.141l0.036,0.011l0.034,0.034l0.011,0.037l0.096,0.11l0.052,0.021l0.167,0.178l0.099,0.063l0.097,0.124l0.02,0.078l0.045,0.1l0.002,0.05l-0.015,0.034l0.002,0.037l0.128,0.207l0.06,0.026l0.018,0.045l-0.015,0.039v0.04l0.033,0.034l-0.002,0.034l-0.112,0.089l-0.018,0.037l-0.011,0.095l-0.039,0.055l-0.083,0.036l-0.045,0.045l-0.008,0.053l-0.015,0.028l-0.034,0.027l-0.039,0.089l-0.06,0.22l-0.003,0.058l0.021,0.113l-0.008,0.094l-0.028,0.084v0.05l0.012,0.074l-0.052,0.084l-0.084,0.024l-0.073,-0.017l-0.059,-0.053l-0.173,-0.105l-0.084,-0.017l-0.115,-0.004l-0.173,-0.059l-0.4,-0.301l-0.094,-0.06l-0.184,-0.262l0.007,-0.025h0.042l0.041,-0.035v-0.105l-0.045,-0.091l-0.052,-0.024l-0.045,0.007l-0.014,-0.028l0.073,-0.049l0.045,-0.088l-0.003,-0.101l-0.101,-0.14l-0.167,-0.119l-0.059,-0.099l-0.005,-0.11l-0.076,-0.123l-0.125,-0.105l-0.086,-0.029l-0.511,-0.074l-0.226,-0.005l-0.467,0.047l-0.047,-0.016l-0.031,-0.039l-0.039,-0.024l-0.076,-0.005l-0.052,-0.021l-0.028,-0.044l-0.055,-0.021l-0.091,0.005l-0.071,-0.026l-0.039,-0.045l-0.143,-0.066h-0.065l-0.06,-0.031l-0.016,-0.032l-0.036,-0.015l-0.045,-0.008l-0.179,-0.113l-0.073,-0.008l-0.019,-0.026l0.013,-0.032l0.084,-0.026l0.054,-0.047l0.008,-0.092l-0.034,-0.039l0.019,-0.027l0.083,-0.01l0.081,0.018l0.088,-0.018l0.037,-0.047l-0.026,-0.05l-0.073,-0.008l-0.07,0.058l-0.024,-0.003l-0.023,-0.053l-0.055,-0.002l-0.055,0.052l-0.083,0.029l-0.102,-0.01l-0.06,-0.082l-0.044,0.013l-0.029,-0.013l-0.005,-0.048l-0.111,-0.038l-0.174,0.01l-0.24,0.095l-0.219,0.136l-0.215,0.214l-0.351,0.493l-0.149,0.256l-0.046,0.157l-0.17,0.269l-0.205,0.172l-0.118,0.154l-0.024,0.178l0.052,0.242l0.034,0.07l0.004,0.066l-0.101,0.144l-0.194,0.17l-0.167,0.219l-0.056,0.184l0.035,0.143l0.115,0.097l0.014,0.063l-0.025,0.09l0.021,0.09l0.153,0.112l0.224,0.068l0.373,0.011l0.052,-0.026l0.07,0.01l0.17,0.12l0.083,0.128l0.159,0.119l0.36,0.199l0.117,0.02l0.091,0.055l0.06,0.123l0.128,0.104l0.169,0.081l0.094,0.023l0.018,0.024l-0.062,0.083l-0.086,0.242l-0.034,0.243l0.047,0.114l0.086,0.112l0.008,0.05l-0.102,0.224l-0.024,0.138l0.027,0.058l0.039,0.026l0.026,0.036l-0.006,0.042l0.047,0.068l0.094,0.073l0.091,0.023l0.04,0.016l-0.006,0.018l-0.06,0.01l-0.067,0.091l-0.032,0.113l0.024,0.078l-0.021,0.041l-0.05,0.016l-0.148,0.123h-0.057l-0.034,-0.029l-0.141,-0.024l-0.081,0.037l-0.052,-0.018l-0.029,-0.06l-0.06,-0.032l-0.096,-0.005l-0.261,0.042l-0.302,0.102l-0.328,0.156l-0.224,0.159l-0.097,0.031l-0.07,0.055l-0.136,0.201l-0.015,0.057l-0.112,0.138l-0.006,0.063l0.037,0.047l0.049,0.01l0.016,0.023l-0.031,0.112l0.015,0.157l0.037,0.104l0.018,0.323l0.034,0.157v0.206l-0.052,0.099l-0.211,0.224l-0.133,0.107l-0.136,0.07l-0.182,0.052l-0.224,0.083l-0.144,0.146l-0.06,0.099l-0.294,0.339l-0.096,0.086l-0.034,0.058l-0.034,0.268l-0.029,0.052l-0.003,0.034l0.016,0.026l-0.104,0.242l-0.19,0.232l-0.071,0.026l-0.125,0.006l-0.06,0.018l-0.151,-0.005l-0.164,-0.037l-0.107,0.003l-0.214,0.041l-0.265,-0.005l-0.047,-0.023l-0.232,-0.102l-0.076,-0.055l-0.109,-0.203l0.002,-0.068l0.05,-0.062l-0.008,-0.123l-0.06,-0.052v-0.112l0.065,-0.125l0.005,-0.096l-0.073,-0.141l0.003,-0.11l0.034,-0.054l0.161,-0.081l0.172,-0.026l0.183,-0.076l0.115,-0.114l0.044,-0.073l0.026,-0.123l0.047,-0.099l0.06,-0.073l0.057,-0.18l0.031,-0.052l0.073,-0.031l0.013,-0.039l-0.01,-0.039l0.055,-0.206l0.039,-0.071l0.013,-0.096l-0.024,-0.023l-0.034,-0.008l-0.052,-0.042l-0.021,-0.052l-0.059,-0.06l-0.076,-0.044l-0.104,-0.102l-0.003,-0.06l0.065,-0.091l0.102,-0.065l0.096,-0.026l0.18,-0.06l0.12,-0.104l0.138,-0.032l0.123,0.003l0.114,0.044l0.099,0.008l0.081,-0.023l0.209,-0.152l0.083,-0.182l0.039,-0.172l0.011,-0.263l-0.021,-0.094l-0.042,-0.034l-0.031,-0.005l-0.112,-0.065l-0.042,-0.011l-0.023,-0.018l-0.011,-0.055l-0.07,-0.125l-0.091,-0.112l-0.045,-0.107l-0.031,-0.164l-0.052,-0.143l-0.029,-0.123l-0.013,-0.346l-0.026,-0.282l-0.049,-0.216l-0.102,-0.279l-0.057,-0.115l-0.073,-0.104l-0.045,-0.031l-0.054,-0.084l-0.04,-0.083l-0.114,-0.109l-0.078,-0.027l-0.042,-0.041l-0.078,-0.248l-0.045,-0.065l-0.049,-0.19l-0.052,-0.065l-0.131,-0.532l-0.039,-0.055l-0.005,-0.065l0.052,-0.065l0.003,-0.05l-0.034,-0.106l-0.086,-0.136l-0.039,-0.026l-0.039,-0.055l-0.021,-0.091l-0.102,-0.122l-0.041,-0.019l-0.063,-0.07l-0.016,-0.07l-0.046,-0.037l-0.04,-0.01l-0.075,-0.055l-0.013,-0.052l-0.021,-0.018l-0.146,-0.029l-0.198,0.023l-0.063,0.026l-0.033,0.037l-0.029,0.06l-0.031,0.021h-0.032l-0.041,0.023l-0.118,0.133l-0.067,0.034l-0.172,0.003l-0.11,-0.055l-0.081,-0.097l-0.049,-0.005l-0.034,0.026l-0.055,0.011l-0.026,-0.016l0.011,-0.026l0.031,-0.005l0.016,-0.026l-0.014,-0.052l-0.057,-0.125l-0.049,-0.042l-0.047,-0.011l-0.05,-0.041l-0.047,-0.068l-0.054,-0.031l-0.055,-0.006l-0.047,-0.028l-0.06,-0.097l-0.091,-0.078l-0.084,-0.026l-0.135,0.031l-0.099,-0.005l-0.071,-0.034l-0.046,-0.086l-0.084,-0.073l-0.138,-0.052l-0.094,-0.026l-0.083,-0.068v-0.044l0.122,-0.086l0.024,-0.062l-0.032,-0.076l0.008,-0.086l0.034,-0.047l0.06,-0.023l0.037,-0.032l0.075,-0.044l0.016,-0.099l-0.063,-0.18l-0.164,-0.279l-0.091,-0.213l-0.146,-0.238l-0.138,-0.172l-0.17,-0.159l-0.091,-0.046l-0.068,-0.011l-0.08,0.021l-0.042,0.034l-0.094,0.117l-0.055,0.008l-0.127,-0.042l-0.071,0.005l-0.08,0.042l-0.084,0.065l-0.06,0.021l-0.078,0.008l-0.031,0.01l-0.052,-0.01l-0.073,-0.039h-0.084l-0.226,0.068l-0.071,0.06l-0.182,0.054l-0.068,0.042l-0.029,-0.003l-0.01,-0.041l0.052,-0.125l0.086,-0.084l0.133,-0.031l0.042,-0.052v-0.042l0.015,-0.031l0.042,-0.016l0.07,-0.091l0.092,-0.034l0.039,-0.026l0.01,-0.057l-0.091,-0.159l-0.078,-0.029l-0.05,0.011l-0.073,-0.024l-0.083,-0.065l-0.263,-0.253l-0.118,-0.057h-0.057l-0.029,0.039l-0.049,0.018l-0.039,-0.002l-0.045,0.02l-0.075,0.133l-0.05,0.008l-0.057,-0.034l-0.021,-0.044l-0.047,-0.026l-0.104,-0.005l-0.029,-0.013l-0.008,-0.032l-0.041,-0.015l-0.091,0.028l-0.008,0.037l0.031,0.049l-0.003,0.063l-0.052,0.018l-0.075,-0.01l-0.029,-0.037l0.008,-0.075l0.013,-0.12l-0.013,-0.136l-0.078,-0.208l-0.097,-0.17l-0.094,-0.093l-0.101,-0.136l-0.065,-0.049l-0.029,-0.05l-0.026,-0.133l-0.086,-0.177l-0.188,-0.263l-0.13,-0.157l-0.183,-0.159l-0.151,-0.088l-0.073,-0.006l-0.026,0.016l-0.06,-0.01l-0.083,-0.037h-0.099l-0.128,0.047l-0.054,0.057l-0.008,0.079l-0.037,0.028l-0.081,-0.01l-0.044,-0.034l-0.039,-0.016l-0.034,0.006l-0.031,-0.016l-0.037,-0.037l-0.047,-0.015l-0.046,-0.003l-0.037,-0.021l-0.073,-0.07l-0.19,-0.091l-0.201,-0.063l-0.159,-0.023l-0.06,0.013l-0.026,0.028l-0.047,0.024l-0.166,0.003l-0.131,0.033l-0.135,0.081l-0.131,0.104l-0.031,0.042l-0.062,0.013l-0.089,-0.023l-0.047,-0.055l-0.049,-0.156l-0.089,-0.165l-0.097,-0.127l-0.119,-0.12l-0.139,-0.102l-0.161,-0.086l-0.104,-0.031l-0.201,-0.005l-0.044,0.026l-0.039,-0.003l-0.115,-0.101l-0.115,-0.068l-0.12,-0.031l-0.093,0.015l-0.053,0.029l-0.039,-0.016l-0.06,-0.135l-0.114,-0.17l-0.128,-0.169l-0.271,-0.292l-0.24,-0.224l-0.156,-0.128l-0.329,-0.167l-0.099,-0.026l-0.026,-0.021l-0.034,-0.13l0.003,-0.047l-0.073,-0.232l-0.112,-0.226l-0.086,-0.102l-0.115,-0.091l-0.06,-0.021l-0.086,-0.057l-0.049,-0.014l-0.057,-0.039l-0.071,-0.099l-0.109,-0.06l-0.058,-0.013l-0.052,-0.036l-0.026,-0.042l-0.107,-0.073l-0.096,-0.036l-0.089,-0.005l-0.117,0.031l-0.073,-0.003l-0.055,-0.055l-0.007,-0.049l-0.068,-0.128l-0.071,-0.062l-0.067,-0.112l-0.045,-0.034l-0.052,-0.128l0.008,-0.049l-0.016,-0.037l-0.036,-0.029l-0.016,-0.033l-0.002,-0.053l-0.091,-0.151l-0.163,-0.181l-0.232,-0.175l-0.176,-0.112l-0.206,-0.096l-0.221,-0.083l-0.248,-0.061l-0.234,-0.04l-0.054,-0.035l-0.093,-0.003l-0.085,0.04l-0.028,0.051l0.005,0.048l-0.016,0.024l-0.036,0.008l-0.041,0.056l-0.077,0.024l-0.057,-0.011l-0.008,-0.026l-0.09,-0.067l-0.077,-0.027l-0.039,-0.085v-0.08l0.044,-0.08l0.039,-0.002l0.036,0.032l0.116,0.01l0.054,-0.032l0.054,-0.112l0.023,-0.109l0.003,-0.131l-0.03,-0.081l-0.061,-0.077l-0.062,-0.021l-0.045,0.011l-0.014,0.021l-0.029,-0.002l-0.064,-0.124l0.002,-0.054l-0.019,-0.042l-0.053,-0.03l-0.002,-0.022l0.009,-0.017l-0.005,-0.024l-0.036,-0.032l-0.205,-0.099l-0.056,-0.06l-0.021,-0.073l-0.081,-0.157l-0.07,-0.062l-0.151,-0.083l-0.141,-0.045l-0.103,-0.037l-0.184,-0.029l-0.047,0.008l-0.032,-0.009l-0.038,-0.036l-0.119,-0.062l-0.018,-0.028l0.013,-0.015h0.031l0.033,-0.016l0.048,-0.085l0.015,-0.062l-0.017,-0.085l0.014,-0.061l0.041,-0.055l-0.001,-0.034l-0.054,-0.069l-0.105,-0.076l-0.146,-0.071l-0.104,-0.027l-0.28,-0.016l-0.143,0.025l-0.051,0.044l-0.013,0.059l-0.032,0.005l-0.089,-0.025l-0.043,0.004l-0.019,-0.016l0.003,-0.052l-0.031,-0.064l-0.002,-0.026l0.009,-0.02l-0.002,-0.059l-0.012,-0.035l0.021,-0.02l0.058,0.006l0.03,-0.029l0.003,-0.026l-0.012,-0.027l0.007,-0.025l0.024,-0.019l0.039,-0.139l0.031,-0.219l0.004,-0.277l-0.033,-0.28l-0.026,-0.12l-0.041,-0.12l-0.06,-0.082l-0.069,-0.05l-0.079,-0.099l-0.012,-0.075l-0.05,-0.083l-0.013,-0.073l-0.06,-0.089l-0.033,-0.013l-0.045,-0.064l-0.012,-0.056l-0.081,-0.1l-0.058,-0.043l-0.089,-0.035l-0.026,-0.037l0.003,-0.025l-0.005,-0.023l-0.031,-0.039l-0.017,-0.088l-0.022,-0.053l-0.028,-0.034l-0.012,-0.039l0.007,-0.117l-0.014,-0.087l-0.02,-0.039l-0.014,-0.084l0.003,-0.076l-0.005,-0.048l-0.062,-0.146l0.013,-0.041l0.02,-0.014l0.012,-0.035l-0.005,-0.128l-0.026,-0.18l-0.075,-0.312l-0.047,-0.093l-0.015,-0.048l0.007,-0.032l-0.033,-0.09l-0.091,-0.146l-0.18,-0.21l-0.138,-0.133l-0.175,-0.14l-0.198,-0.095l-0.074,-0.021l-0.046,0.011l-0.012,0.032l-0.031,0.01l-0.055,-0.014l-0.065,-0.055l-0.043,-0.012l-0.064,-0.052l-0.024,-0.041l-0.048,-0.026l-0.043,-0.004l-0.053,-0.027l-0.038,-0.058l-0.067,-0.027l-0.044,0.023l-0.018,0.062l0.03,0.059l0.039,0.025l0.014,0.039l-0.009,0.03l-0.056,0.009l-0.189,-0.094l-0.162,-0.119l-0.051,-0.077l-0.157,-0.099l-0.087,-0.02l-0.066,0.024l-0.056,-0.02l-0.054,-0.078l-0.003,-0.041l-0.015,-0.02l-0.04,-0.007l-0.072,-0.048l-0.012,-0.03l-0.086,-0.069l-0.077,-0.016l-0.1,-0.069l-0.012,-0.036l-0.046,-0.028l-0.062,0.008l-0.091,-0.028l-0.059,-0.06l-0.039,-0.013l-0.035,0.014l-0.025,-0.019l-0.043,-0.089l-0.155,-0.117l-0.206,-0.11l-0.175,-0.061l-0.057,0.004l-0.062,0.087l-0.017,0.082l-0.038,0.003l-0.163,-0.071l-0.012,-0.037l0.014,-0.05l-0.014,-0.059l-0.053,-0.044l-0.118,-0.04l-0.178,-0.045l-0.242,-0.043h-0.067l-0.119,-0.019l-0.131,-0.045l-0.271,-0.043l-0.012,-0.018l0.038,-0.019l-0.01,-0.016l-0.119,-0.008l-0.029,0.02l-0.045,0.004l-0.101,-0.025l-0.082,0.014l-0.106,0.043l-0.054,0.056l-0.083,0.045l-0.061,0.003l-0.06,0.029l-0.043,0.046l-0.086,0.058l-0.085,0.008l-0.036,0.019l-0.018,0.045l-0.108,0.064l-0.1,0.019l-0.047,0.04l-0.01,0.04l-0.046,0.045l-0.078,0.024l-0.056,0.067v0.05l0.036,0.035l-0.003,0.04l-0.033,0.069l-0.042,0.014l-0.046,0.048l-0.013,0.074l0.018,0.04l-0.002,0.035l-0.075,0.048l-0.07,0.002l-0.129,0.056l-0.064,0.038l-0.111,0.026l-0.087,0.054l-0.134,0.157l-0.052,0.12l0.005,0.138l-0.039,0.062l-0.126,0.101l-0.075,0.101l-0.018,0.083l0.044,0.085l-0.01,0.027l-0.083,0.019l-0.036,0.029l-0.015,0.05l-0.049,0.035l-0.067,0.021l-0.067,0.051l-0.021,0.056l-0.049,0.032h-0.09l-0.054,0.021l-0.023,0.035l-0.041,0.032l-0.093,0.013l-0.157,0.062l-0.065,0.048l-0.095,0.029h-0.067l-0.129,0.037l-0.041,0.038l-0.044,0.01l-0.075,-0.016l-0.113,0.022l-0.083,0.063l-0.069,0.016l-0.052,-0.008l-0.072,0.016l-0.075,0.088l-0.062,0.011l-0.164,-0.062l-0.115,-0.019l-0.073,0.017l-0.022,0.032l-0.055,0.009l-0.092,-0.022l-0.001,-0.052l-0.033,-0.066l-0.039,-0.168l-0.039,-0.037l-0.01,-0.063l0.014,-0.038l0.094,-0.065l0.126,-0.037l0.023,-0.031l-0.014,-0.068l0.03,-0.035l0.022,-0.062l-0.019,-0.031l0.019,-0.023l0.037,-0.009l0.028,-0.024l0.045,-0.009l0.034,0.014l0.108,-0.08l0.051,-0.021l0.052,-0.088l-0.028,-0.098v-0.049l0.021,-0.014l0.038,0.002l0.026,-0.03l0.05,-0.007l0.018,-0.019l0.008,-0.053l0.032,-0.026l0.015,-0.098l-0.08,-0.066l-0.05,-0.077l-0.036,-0.02l-0.021,-0.057l0.034,-0.065l-0.017,-0.035v-0.028l0.031,-0.021l0.014,-0.037l-0.024,-0.022h-0.118l-0.044,0.021l-0.036,0.092l-0.042,0.021l-0.054,-0.022l-0.043,0.007l-0.077,-0.004l-0.04,0.03l-0.066,-0.005l-0.036,0.036l-0.04,0.004l-0.047,-0.019l-0.029,0.007l-0.042,0.038l-0.084,0.03l-0.097,-0.019l-0.017,0.015l-0.004,0.063l-0.027,0.007l-0.039,-0.031l-0.074,-0.023l-0.08,0.033l-0.047,-0.003l-0.045,-0.091l0.003,-0.035l-0.024,-0.009l-0.078,0.019l-0.033,-0.012l-0.073,0.002l-0.018,0.021l-0.028,-0.004l-0.024,-0.033l-0.08,-0.04l-0.022,-0.068l-0.033,-0.011l-0.028,0.025l-0.035,-0.002l-0.073,-0.074l-0.03,-0.066l-0.017,-0.007l-0.031,0.009l-0.042,-0.03l-0.026,-0.007l-0.043,0.028l-0.035,-0.004l-0.101,-0.075l-0.05,-0.007l-0.026,-0.016l-0.016,-0.028l-0.036,-0.014l-0.035,0.002l-0.031,0.019l-0.087,0.002l-0.077,-0.033l-0.054,-0.058l-0.008,-0.142l-0.054,-0.036l-0.049,-0.007l-0.048,-0.049l-0.006,-0.06l-0.087,-0.091l-0.036,-0.017l-0.021,-0.067l-0.054,-0.042l-0.052,-0.01l-0.003,-0.032l0.024,-0.021l0.003,-0.171l-0.01,-0.044l0.08,-0.033l0.04,0.014l0.029,-0.02l0.035,0.007l0.014,-0.014l-0.036,-0.045l-0.089,-0.047l-0.024,-0.077l-0.103,-0.062l-0.015,-0.045l-0.054,-0.053l-0.028,-0.129l0.061,-0.047l0.034,-0.063l0.042,-0.002l0.087,-0.025l0.007,-0.04l0.064,-0.04l0.019,-0.115l0.042,-0.046l0.01,-0.033l0.054,-0.004l0.002,-0.028l-0.031,-0.021l-0.03,-0.056v-0.061l0.026,-0.033l0.002,-0.046l0.024,-0.022l0.039,-0.009l0.071,-0.044l0.054,0.007l0.083,-0.012l0.104,0.047l0.056,-0.002l0.007,-0.022l-0.037,-0.098v-0.03l-0.026,-0.018l-0.06,-0.008l-0.044,-0.056l-0.035,-0.095l0.012,-0.058l-0.038,-0.082l-0.059,-0.021l0.005,-0.028l0.039,-0.03l0.048,-0.082l-0.005,-0.024l-0.05,-0.018l-0.011,-0.059l-0.088,-0.03l-0.035,0.005l-0.104,-0.061l-0.056,-0.011l-0.064,0.069l-0.174,-0.025l-0.132,-0.077l-0.101,-0.059v-0.037l-0.015,-0.012h-0.04l-0.059,-0.053l-0.051,-0.003l-0.026,-0.03v-0.065l0.035,-0.04l-0.009,-0.021l-0.04,-0.009l0.047,-0.056l0.017,-0.056l-0.01,-0.04l-0.083,-0.077v-0.026l0.034,-0.025l-0.015,-0.056l-0.071,-0.028l-0.176,0.006l-0.043,-0.058l0.007,-0.06l-0.033,-0.042l0.015,-0.043l-0.012,-0.025l-0.04,0.005l-0.023,-0.028v-0.045l-0.052,-0.086l0.016,-0.035l0.066,-0.007l0.076,-0.038l0.035,-0.067l0.101,-0.023l0.096,0.028l0.034,-0.007l0.072,-0.085l0.031,-0.004l0.153,0.046l0.116,0.082l0.035,0.01l0.066,-0.026l0.083,-0.005l0.018,-0.028l-0.049,-0.067l0.026,-0.05l0.071,0.005l0.118,-0.028l0.035,-0.039l0.009,-0.047l0.04,-0.019l-0.016,-0.042l0.016,-0.018l0.088,-0.019l0.047,-0.028l0.065,0.009l0.041,-0.012l0.04,-0.03l0.037,0.002l0.055,0.063l0.033,-0.004l0.108,-0.112l0.002,-0.035l0.026,-0.017l0.052,0.008l0.037,-0.045l-0.009,-0.126l-0.04,-0.046l-0.012,-0.07l-0.035,-0.057l0.012,-0.027l0.054,0.004l0.026,-0.023l-0.002,-0.077l0.025,-0.016h0.048l0.03,-0.036l-0.009,-0.055l0.016,-0.049l0.054,-0.024l0.026,-0.07l-0.011,-0.028l-0.09,-0.035l-0.028,-0.032l-0.071,-0.003l-0.064,-0.037v-0.037l-0.051,-0.047l-0.01,-0.037l0.019,-0.021l0.003,-0.017l-0.118,-0.028l-0.036,0.021l-0.049,-0.007l-0.007,-0.047l0.035,-0.019l0.003,-0.027l-0.02,-0.021l-0.115,0.002l-0.084,-0.033l-0.003,-0.023l0.023,-0.026l-0.002,-0.026l-0.042,-0.039l-0.005,-0.031l0.019,-0.03l-0.026,-0.084l0.023,-0.035l-0.007,-0.046l-0.049,-0.022l-0.005,-0.037l0.028,-0.086l-0.007,-0.03l0.005,-0.033l0.061,-0.054l-0.006,-0.028l-0.08,-0.018l-0.055,-0.043l-0.115,0.035l-0.054,-0.025l-0.045,-0.052l0.009,-0.06l-0.026,-0.019l-0.094,0.009l-0.092,-0.042l-0.035,-0.056l-0.043,-0.004l-0.072,-0.091l-0.012,-0.033l0.03,-0.03v-0.035l-0.035,-0.023l-0.01,-0.192l0.031,-0.026l0.01,-0.062l-0.031,-0.038l0.047,-0.084l0.071,-0.032l0.044,0.004l0.061,0.072l0.017,-0.004l-0.007,-0.047l0.024,-0.054l0.033,-0.002l0.033,0.026l0.08,0.002l0.099,-0.023l0.032,-0.051l0.085,-0.038l0.071,-0.009l0.045,-0.072l-0.007,-0.036l0.002,-0.042l0.094,-0.086l0.052,-0.01z M687.522468,285.513946l0.018,-0.025l0.021,-0.004l0.01,0.011l0.003,0.018l-0.017,0.01l-0.026,-0.002l-0.009,-0.008z M687.691378,276.182687l0.036,-0.013l0.014,-0.018l0.027,-0.004l0.013,0.012l-0.004,0.024l-0.015,0.011l0.003,0.041l-0.011,0.014l-0.003,0.049l0.022,0.038l0.001,0.035l-0.034,0.054l-0.003,0.022l-0.012,0.016l-0.016,0.004l-0.011,0.015l0.002,0.04l-0.02,0.033l-0.001,0.024l-0.01,0.006l-0.051,-0.003l-0.043,0.01l-0.033,-0.004l-0.015,-0.017l-0.006,-0.021l-0.025,-0.004l-0.014,0.011l-0.015,0.003l-0.012,-0.007h-0.014l-0.014,0.012h-0.036l-0.013,-0.011l0.012,-0.023l0.001,-0.018l-0.014,-0.038l0.004,-0.026l0.02,-0.012v-0.024l-0.018,-0.028l-0.024,-0.007l-0.005,-0.019l0.004,-0.041l0.009,-0.004l0.016,0.012l0.022,-0.004l0.011,-0.014l0.018,-0.004l0.033,0.004l0.024,-0.008l0.029,-0.034l0.095,-0.063l0.049,-0.006l0.027,-0.015z"/>
</svg>
