<svg xmlns="http://www.w3.org/2000/svg" viewBox="665.761 261.894 44.368 40.994">
  <path fill-rule="evenodd" d="M677.984,278.742v-0.026l0.026-0.03l0.045,0.002l0.014,0.019l-0.012,0.026l-0.036,0.017L677.984,278.742L677.984,278.742z M677.678,280.583l0.097-0.069l0.033-0.063l-0.002-0.07l-0.052-0.076l-0.03-0.003l-0.05,0.04l-0.042,0.123l0.017,0.109L677.678,280.583L677.678,280.583z M678.582,282.423l-0.003,0.026l0.068,0.031l0.086,0.01l0.042-0.016l-0.003-0.05l-0.052-0.099h-0.018l-0.003,0.034l-0.039,0.047L678.582,282.423L678.582,282.423z M678.788,281.542l-0.005,0.099l0.112,0.128l0.089,0.021l0.141-0.016l0.12,0.029l0.044-0.01l0.013-0.055l0.057-0.013l0.063,0.029l0.047-0.008l0.036-0.06l0.057-0.005l0.042,0.052h0.021v-0.042l0.044-0.039l0.055,0.01l0.036,0.099l0.076,0.091l0.052,0.029l0.109,0.003l0.039-0.039l-0.013-0.083l-0.122-0.081l0.003-0.036l0.091-0.039l0.039-0.057l0.018-0.255l-0.031-0.078l-0.06-0.031l-0.039,0.01l-0.089,0.125l-0.031,0.099l-0.057,0.06l-0.136-0.003l-0.099-0.076l-0.094-0.047l-0.016,0.013l0.023,0.039l-0.018,0.068l-0.081,0.06l-0.076-0.005l-0.07-0.07l-0.107-0.018l-0.206,0.034L678.788,281.542L678.788,281.542z M679.53,283.504l-0.01,0.063l0.024,0.07l0.049,0.007l0.056-0.038l0.003-0.07l-0.052-0.049L679.53,283.504L679.53,283.504z M681.705,283.396l-0.038,0.021l0.007,0.035l0.038,0.017l0.038,0.083l0.094,0.069l0.042-0.014v-0.094l-0.09-0.184l-0.052-0.035l-0.028,0.017L681.705,283.396L681.705,283.396z M682.51,283.903l0.005,0.055l0.026,0.029h0.023l0.005-0.031l-0.01-0.055l-0.021-0.008L682.51,283.903L682.51,283.903z M693.33,290.687l0.021,0.021l0.026-0.013l0.031-0.073l-0.018-0.021l-0.047,0.013L693.33,290.687L693.33,290.687z M694.055,291.588l0.036,0.029l0.068,0.003l0.112-0.034l0.031-0.034l-0.026-0.016l-0.062,0.013l-0.044-0.018l-0.078-0.005l-0.034,0.021L694.055,291.588L694.055,291.588z M692.762,290.869l0.073,0.042l0.216-0.003l0.039-0.023l0.052-0.01l0.029-0.068l-0.008-0.073l-0.073-0.042l-0.154-0.023l-0.055-0.026h-0.073l-0.049,0.023l-0.029,0.094L692.762,290.869L692.762,290.869z M691.119,290.527l0.062-0.013l0.044-0.039l-0.013-0.039l-0.031,0.003l-0.021,0.044l-0.049,0.018L691.119,290.527L691.119,290.527z M691.259,290.521l0.034,0.008l0.021-0.018l-0.008-0.023l-0.029-0.005l-0.023,0.018L691.259,290.521L691.259,290.521z M689.005,289.906l0.018,0.008l0.034-0.021l0.023-0.047l-0.008-0.055l-0.018-0.008l-0.036,0.029v0.044L689.005,289.906L689.005,289.906z M689.771,289.734l0.036-0.003l0.026-0.016v-0.023l-0.036-0.016l-0.026,0.01l-0.018,0.029L689.771,289.734L689.771,289.734z M689.37,290.024l0.034,0.07l0.036,0.005l0.023-0.044l-0.008-0.086l0.042-0.063l0.091-0.036l-0.005-0.021h-0.078l-0.102,0.065l-0.034,0.057V290.024L689.37,290.024z M690.272,268.43l0.043-0.023l0.101-0.017l0.12-0.005l0.019-0.017l-0.012-0.012l-0.158,0.005l-0.116,0.031l-0.019,0.026L690.272,268.43L690.272,268.43z M691.002,268.498l0.031-0.002l0.005-0.016l-0.017-0.012H691l-0.012,0.014L691.002,268.498L691.002,268.498z M691.044,268.422l0.024,0.002l0.014-0.009l0.005-0.017l-0.016-0.01l-0.024,0.003l-0.014,0.017L691.044,268.422L691.044,268.422z M690.698,268.347l0.059-0.005l0.005-0.021l-0.031-0.023l-0.038,0.007l-0.009,0.019L690.698,268.347L690.698,268.347z M690.696,268.39l0.076,0.017l0.01-0.012l-0.056-0.028l-0.047-0.007l-0.005,0.014L690.696,268.39L690.696,268.39z M690.636,268.411l0.05,0.014l0.016-0.009l-0.04-0.024l-0.026-0.005l-0.016,0.007L690.636,268.411L690.636,268.411z M687.167,271.292l0.021-0.021l0.044,0.013l0.042,0.057l-0.008,0.042l-0.026,0.005l-0.044-0.031L687.167,271.292L687.167,271.292z M687.214,271.477l0.003,0.06l0.018-0.003l0.018-0.06l0.026-0.005l0.057,0.05l0.013-0.013l-0.063-0.07l-0.036-0.013l-0.021,0.01L687.214,271.477L687.214,271.477z M687.704,271.829h0.031l0.026-0.016l-0.003-0.023l-0.034-0.013l-0.026,0.005l-0.01,0.026L687.704,271.829L687.704,271.829z M686.729,270.385l0.005,0.018l0.026,0.005l0.026-0.016v-0.018l-0.031-0.005L686.729,270.385L686.729,270.385z M687.813,271.723l0.029,0.019l0.034,0.006l-0.003-0.014l-0.037-0.025l-0.026-0.004L687.813,271.723L687.813,271.723z M687.6,269.465l-0.021-0.026l-0.012,0.005l0.007,0.035l0.019,0.014l0.016-0.003L687.6,269.465L687.6,269.465z M687.92,269.364l0.014,0.014l0.021-0.01l0.01-0.019l-0.012-0.02l-0.024,0.004L687.92,269.364L687.92,269.364z M687.397,269.362l0.014,0.02l0.011-0.002l0.005-0.017l-0.013-0.016l-0.011,0.002L687.397,269.362L687.397,269.362z M687.43,269.421l0.002,0.024l0.01,0.004l0.013-0.013l-0.003-0.021l-0.011-0.004L687.43,269.421L687.43,269.421z M687.43,269.421l0.002,0.024l0.01,0.004l0.013-0.013l-0.003-0.021l-0.011-0.004L687.43,269.421L687.43,269.421z M687.512,269.428l0.028,0.005l0.01-0.012l-0.019-0.019l-0.022,0.002l-0.01,0.015L687.512,269.428L687.512,269.428z M687.642,269.475h0.021l0.008-0.017l-0.017-0.017l-0.029,0.001l-0.005,0.018L687.642,269.475L687.642,269.475z M687.493,269.389l0.014-0.01l-0.005-0.012l-0.019,0.005l-0.003,0.014L687.493,269.389L687.493,269.389z M687.389,269.54l-0.007,0.012l0.007,0.012l0.014-0.003l0.008-0.011l-0.003-0.009L687.389,269.54L687.389,269.54z M687.25,269.566l0.016-0.001l0.007-0.014l-0.01-0.008l-0.015,0.003l-0.009,0.014L687.25,269.566L687.25,269.566z M687.954,271.783l-0.013-0.012l-0.032,0.024l-0.004,0.021l0.022,0.007l0.019-0.015L687.954,271.783L687.954,271.783z M687.755,269.417l0.022,0.003l0.025-0.012l-0.004-0.011l-0.028-0.004l-0.025,0.012L687.755,269.417L687.755,269.417z M687.296,269.602l0.013-0.004l0.005-0.01l-0.004-0.01l-0.014-0.003l-0.01,0.006l-0.003,0.016L687.296,269.602L687.296,269.602z M687.818,271.886h0.02l0.01-0.01l-0.003-0.017l-0.012-0.008l-0.021,0.005l-0.007,0.014L687.818,271.886L687.818,271.886z M686.712,270.317l0.036-0.016l0.029-0.102l-0.016-0.06l-0.031,0.003l-0.026,0.047l-0.016,0.112L686.712,270.317L686.712,270.317z M687.152,269.699l0.057-0.005l0.076,0.01l0.01-0.026l-0.05-0.044l-0.099-0.013l-0.047,0.026l0.003,0.042L687.152,269.699L687.152,269.699z M687.4,269.618l0.055-0.01l0.055-0.047l0.018-0.047h-0.023l-0.013,0.026l-0.047,0.036l-0.047,0.005l-0.021,0.016L687.4,269.618L687.4,269.618z M687.298,269.759l-0.151,0.279l-0.047,0.044l-0.005,0.026l0.044,0.005l0.026-0.016l0.008-0.057l0.06-0.107l0.104-0.162l0.07-0.068l-0.021-0.021l-0.034,0.008L687.298,269.759L687.298,269.759z M687.066,270.309l-0.016,0.081l-0.013,0.146l-0.026,0.01v0.036l0.026,0.005l0.021-0.013l0.021-0.19l0.018-0.078l0.052-0.136l-0.005-0.023l-0.021,0.003L687.066,270.309L687.066,270.309z M687.944,271.867l-0.029,0.013l-0.044,0.042v0.026l0.023-0.003l0.073-0.055l0.021-0.023l0.003-0.029l-0.026-0.013l-0.018,0.013L687.944,271.867L687.944,271.867z M687.361,271.431l0.01,0.026l0.04,0.035l0.005-0.014l-0.036-0.043L687.361,271.431L687.361,271.431z M687.5,271.563l0.097,0.059l0.007-0.009l-0.092-0.082l-0.061-0.03l-0.012,0.007L687.5,271.563L687.5,271.563z M687.672,271.672l0.073,0.028l0.012-0.009l-0.064-0.042l-0.07-0.026l-0.005,0.01L687.672,271.672L687.672,271.672z M698.861,284.5l-0.007,0.057l-0.021,0.024l-0.026,0.003l-0.009-0.033l0.036-0.055L698.861,284.5L698.861,284.5z M698.907,284.513l0.044-0.034l-0.008-0.018h-0.021l-0.031,0.023l-0.005,0.018L698.907,284.513L698.907,284.513z M698.947,284.442l0.031-0.008l0.016-0.023l-0.018-0.01l-0.036,0.008l-0.016,0.029L698.947,284.442L698.947,284.442z M699.778,284.046l-0.026,0.01l-0.008,0.021l0.018,0.016l0.021-0.013l0.01-0.021L699.778,284.046L699.778,284.046z M705.006,292.034l0.052,0.006l0.021-0.013v-0.021l-0.031-0.01L705.008,292l-0.018,0.018L705.006,292.034L705.006,292.034z M708.029,293.733l-0.013-0.018h-0.026l-0.01,0.021l0.013,0.018l0.023-0.003L708.029,293.733L708.029,293.733z M705.312,291.91l0.017,0.007l0.014-0.001l0.003-0.014l-0.017-0.01l-0.018,0.003L705.312,291.91L705.312,291.91z M674.535,267.125l-0.031,0.088l0.034,0.013l0.031-0.01l0.018-0.039l-0.013-0.052L674.535,267.125z M667.293,267.502l-0.052,0.011l-0.094,0.085l-0.001,0.042l0.007,0.036l-0.046,0.071l-0.071,0.009l-0.085,0.038l-0.031,0.051l-0.099,0.022l-0.08-0.001l-0.033-0.027l-0.033,0.002l-0.024,0.054l0.006,0.047l-0.017,0.003l-0.061-0.071l-0.043-0.003l-0.071,0.031l-0.047,0.083l0.031,0.039l-0.01,0.06l-0.032,0.027l0.011,0.191l0.034,0.022v0.035l-0.029,0.029l0.012,0.034l0.071,0.09l0.044,0.003l0.034,0.056l0.093,0.042l0.093-0.009l0.026,0.019l-0.008,0.059l0.045,0.052l0.054,0.025l0.114-0.035l0.056,0.043l0.08,0.018l0.005,0.027l-0.061,0.054l-0.005,0.033l0.007,0.03l-0.028,0.085l0.006,0.036l0.048,0.023l0.007,0.045l-0.022,0.035l0.026,0.083l-0.02,0.03l0.006,0.031l0.041,0.038l0.002,0.026l-0.022,0.027l0.003,0.022l0.083,0.033l0.115-0.002l0.021,0.021l-0.004,0.026l-0.034,0.019l0.007,0.047l0.048,0.007l0.037-0.021l0.118,0.028l-0.004,0.018l-0.019,0.02l0.011,0.037l0.05,0.047v0.036l0.064,0.037l0.072,0.003l0.027,0.032l0.091,0.034l0.01,0.028l-0.026,0.07l-0.054,0.024l-0.015,0.049l0.008,0.053l-0.029,0.037h-0.049l-0.024,0.016l0.002,0.076l-0.026,0.023l-0.054-0.004l-0.012,0.026l0.034,0.058l0.012,0.069l0.04,0.045l0.009,0.125l-0.036,0.045l-0.053-0.008l-0.026,0.017l-0.001,0.035l-0.108,0.111l-0.033,0.004l-0.056-0.063l-0.036-0.002l-0.04,0.03l-0.042,0.012l-0.064-0.009l-0.047,0.028l-0.089,0.019l-0.015,0.018l0.015,0.041l-0.04,0.019l-0.008,0.047l-0.035,0.038l-0.118,0.028l-0.071-0.005l-0.026,0.05l0.048,0.066l-0.017,0.028l-0.084,0.006l-0.066,0.026l-0.034-0.011l-0.117-0.082l-0.153-0.045l-0.031,0.004l-0.071,0.085l-0.035,0.007l-0.095-0.028l-0.101,0.023l-0.035,0.066l-0.076,0.038l-0.066,0.007l-0.016,0.035l0.052,0.085v0.045l0.023,0.028l0.04-0.006l0.012,0.025l-0.016,0.043l0.033,0.042l-0.007,0.059l0.044,0.057l0.175-0.005l0.071,0.028l0.016,0.056l-0.035,0.024v0.026l0.084,0.076l0.01,0.04l-0.017,0.056l-0.047,0.056l0.04,0.008l0.008,0.021l-0.034,0.04v0.064l0.026,0.03l0.05,0.003l0.059,0.052h0.04l0.016,0.013v0.036l0.101,0.059l0.132,0.077l0.173,0.024l0.065-0.068l0.055,0.011l0.104,0.06l0.035-0.005l0.089,0.03l0.01,0.059l0.051,0.017l0.005,0.024l-0.049,0.082l-0.038,0.03l-0.005,0.028l0.059,0.02l0.038,0.082l-0.012,0.057l0.035,0.094l0.043,0.056l0.061,0.008l0.026,0.018v0.029l0.036,0.098l-0.007,0.022l-0.055,0.002l-0.104-0.047l-0.084,0.012l-0.054-0.007l-0.071,0.044l-0.038,0.008l-0.024,0.023l-0.002,0.045l-0.026,0.033v0.061l0.029,0.056l0.032,0.02l-0.002,0.028l-0.054,0.004l-0.01,0.033l-0.042,0.045l-0.019,0.115l-0.064,0.039l-0.007,0.04l-0.087,0.025l-0.042,0.002l-0.035,0.062l-0.061,0.047l0.028,0.129l0.054,0.052l0.016,0.045l0.102,0.061l0.025,0.076l0.088,0.047l0.037,0.045l-0.014,0.014l-0.035-0.007l-0.03,0.019l-0.039-0.014l-0.08,0.033l0.01,0.044l-0.003,0.17l-0.025,0.021l0.004,0.031l0.052,0.011l0.054,0.041l0.021,0.066l0.036,0.018l0.087,0.09l0.005,0.059l0.049,0.049l0.048,0.007l0.054,0.036l0.009,0.141l0.054,0.057l0.076,0.033l0.087-0.001l0.031-0.02l0.035-0.001l0.037,0.014l0.015,0.027l0.026,0.016l0.051,0.007l0.1,0.075l0.035,0.003l0.044-0.028l0.026,0.007l0.041,0.03l0.032-0.009l0.017,0.007l0.03,0.066l0.073,0.073l0.034,0.002l0.028-0.024l0.033,0.01l0.023,0.068l0.08,0.04l0.024,0.033l0.028,0.003l0.017-0.021l0.073-0.001l0.033,0.012l0.078-0.019l0.025,0.008l-0.004,0.035l0.045,0.09l0.047,0.004l0.08-0.033l0.075,0.022l0.038,0.032l0.028-0.007l0.003-0.063l0.018-0.015l0.097,0.019l0.083-0.03l0.042-0.038l0.03-0.007l0.047,0.019l0.04-0.003l0.036-0.037l0.066,0.005l0.04-0.029l0.076,0.003l0.044-0.007l0.054,0.023l0.041-0.021l0.037-0.092l0.043-0.021h0.118l0.025,0.023l-0.014,0.036l-0.031,0.021v0.028l0.017,0.035l-0.035,0.064l0.021,0.057l0.037,0.019l0.05,0.077l0.08,0.066l-0.016,0.097l-0.031,0.026l-0.009,0.052l-0.017,0.019l-0.05,0.007l-0.027,0.03l-0.038-0.002l-0.021,0.014v0.049l0.028,0.097l-0.052,0.087l-0.05,0.021l-0.108,0.08l-0.035-0.014l-0.045,0.008l-0.028,0.025l-0.036,0.008l-0.019,0.023l0.019,0.031l-0.023,0.061l-0.029,0.035l0.014,0.068l-0.023,0.031l-0.127,0.036l-0.094,0.065l-0.014,0.038l0.011,0.062l0.038,0.037l0.04,0.167l0.043,0.064l0.001,0.03l0.054-0.001l0.037,0.006l0.039-0.009l0.022-0.032l0.049-0.015l0.109,0.008l0.198,0.04l0.062-0.01l0.077-0.086l0.073-0.015l0.052,0.008l0.07-0.016l0.083-0.063l0.115-0.02l0.076,0.015l0.044-0.01l0.042-0.037l0.13-0.036h0.068l0.096-0.029l0.065-0.047l0.159-0.06l0.094-0.013l0.042-0.031l0.023-0.034l0.055-0.021h0.091l0.05-0.031l0.021-0.055l0.067-0.049l0.068-0.021l0.05-0.034l0.015-0.05l0.037-0.028l0.083-0.018l0.011-0.027l-0.045-0.083l0.019-0.081l0.075-0.099l0.128-0.099l0.039-0.06l-0.005-0.135l0.052-0.118l0.135-0.153l0.089-0.052l0.112-0.026l0.065-0.037l0.131-0.055l0.07-0.002l0.075-0.047l0.003-0.034l-0.018-0.039l0.013-0.073l0.047-0.047l0.041-0.013l0.034-0.068l0.003-0.039l-0.037-0.034v-0.049l0.058-0.065l0.078-0.024l0.047-0.044l0.01-0.039l0.047-0.039l0.102-0.019l0.109-0.062l0.019-0.045l0.036-0.018l0.086-0.008l0.086-0.057l0.044-0.044l0.06-0.029l0.063-0.002l0.083-0.045l0.055-0.055l0.107-0.041l0.083-0.014l0.103,0.024l0.045-0.003l0.029-0.02l0.12,0.008l0.011,0.015l-0.039,0.018l0.013,0.019l0.273,0.041l0.133,0.045l0.12,0.018h0.068l0.245,0.042l0.18,0.044l0.119,0.039l0.054,0.043l0.013,0.058l-0.013,0.048l0.012,0.037l0.165,0.069l0.038-0.003l0.017-0.08l0.063-0.085l0.057-0.004l0.177,0.059l0.209,0.108l0.156,0.115l0.044,0.087l0.026,0.019l0.035-0.014l0.04,0.012l0.059,0.059l0.092,0.028l0.062-0.009l0.047,0.028l0.012,0.035l0.101,0.068l0.078,0.015l0.087,0.068l0.012,0.03l0.073,0.046l0.04,0.007l0.016,0.02l0.003,0.039l0.054,0.077l0.058,0.019l0.066-0.023l0.088,0.02l0.158,0.097l0.052,0.075l0.164,0.116l0.191,0.092l0.057-0.009l0.009-0.029l-0.014-0.038l-0.04-0.025l-0.03-0.057l0.018-0.061l0.045-0.022l0.068,0.026l0.038,0.057l0.054,0.026l0.043,0.003l0.049,0.027l0.024,0.04l0.065,0.05l0.043,0.012l0.066,0.054l0.056,0.014l0.031-0.011l0.012-0.031l0.047-0.01l0.075,0.021l0.199,0.092l0.178,0.137l0.139,0.13l0.182,0.205l0.092,0.143l0.033,0.088l-0.007,0.032l0.016,0.046l0.047,0.091l0.076,0.306l0.026,0.175l0.006,0.125l-0.013,0.035l-0.021,0.014l-0.012,0.04l0.063,0.142l0.005,0.047l-0.003,0.075l0.013,0.082l0.021,0.038l0.014,0.085l-0.007,0.115l0.012,0.038l0.028,0.033l0.023,0.052l0.017,0.085l0.032,0.038l0.005,0.023l-0.004,0.024l0.026,0.037l0.091,0.034l0.059,0.042l0.081,0.097l0.013,0.056l0.045,0.063l0.033,0.012l0.061,0.087l0.013,0.071l0.051,0.081l0.012,0.073l0.08,0.098l0.069,0.048l0.061,0.08l0.042,0.118l0.026,0.117l0.033,0.274l-0.003,0.271l-0.032,0.214l-0.04,0.136l-0.024,0.019l-0.007,0.024l0.012,0.026l-0.003,0.026l-0.03,0.028l-0.059-0.005l-0.021,0.019l0.012,0.035l0.002,0.057l-0.009,0.019l0.002,0.026l0.031,0.063l-0.003,0.05l0.019,0.016l0.043-0.004l0.091,0.025l0.033-0.006l0.012-0.057l0.052-0.043l0.144-0.025l0.284,0.016l0.106,0.026l0.147,0.069l0.106,0.075l0.054,0.068l0.002,0.033l-0.042,0.054l-0.014,0.059l0.018,0.083l-0.016,0.061l-0.049,0.083l-0.033,0.016h-0.031l-0.014,0.014l0.019,0.028l0.12,0.061l0.038,0.034l0.033,0.009l0.047-0.007l0.186,0.028l0.104,0.036l0.143,0.044l0.153,0.081l0.071,0.061l0.082,0.153l0.021,0.071l0.057,0.06l0.207,0.097l0.036,0.031l0.005,0.023l-0.008,0.017l0.001,0.021l0.054,0.029l0.019,0.042l-0.001,0.052l0.064,0.122l0.029,0.002l0.014-0.021l0.045-0.011l0.063,0.021l0.063,0.075l0.029,0.08l-0.002,0.127l-0.024,0.107l-0.055,0.11l-0.054,0.031l-0.118-0.01l-0.036-0.032l-0.039,0.003l-0.045,0.078v0.078l0.04,0.084l0.078,0.026l0.091,0.065l0.008,0.026l0.057,0.01l0.078-0.023l0.042-0.055l0.036-0.008l0.016-0.023l-0.005-0.047l0.029-0.049l0.086-0.04l0.093,0.003l0.055,0.034l0.237,0.039l0.25,0.06l0.225,0.081l0.208,0.094l0.177,0.109l0.235,0.172l0.213,0.25l0.092,0.151l0.002,0.053l0.016,0.033l0.036,0.029l0.016,0.037l-0.008,0.049l0.052,0.128l0.045,0.034l0.067,0.112l0.071,0.062l0.068,0.128l0.007,0.049l0.055,0.055l0.073,0.003l0.117-0.031l0.089,0.005l0.096,0.036l0.107,0.073l0.026,0.042l0.052,0.036l0.058,0.013l0.109,0.06l0.071,0.099l0.057,0.039l0.049,0.014l0.086,0.057l0.06,0.021l0.115,0.091l0.086,0.102l0.112,0.226l0.073,0.232l-0.002,0.047l0.033,0.13l0.026,0.021l0.099,0.026l0.329,0.167l0.156,0.128l0.24,0.224l0.271,0.292l0.128,0.169l0.114,0.17l0.06,0.135l0.039,0.016l0.053-0.029l0.093-0.015l0.12,0.031l0.115,0.068l0.115,0.101l0.039,0.003l0.044-0.026l0.201,0.005l0.104,0.031l0.161,0.086l0.139,0.102l0.119,0.12l0.097,0.127l0.089,0.165l0.049,0.156l0.047,0.055l0.089,0.023l0.062-0.013l0.031-0.042l0.131-0.104l0.135-0.081l0.131-0.033l0.166-0.003l0.047-0.024l0.026-0.028l0.06-0.013l0.159,0.023l0.201,0.063l0.19,0.091l0.073,0.07l0.037,0.021l0.046,0.003l0.047,0.015l0.037,0.037l0.031,0.016l0.034-0.006l0.039,0.016l0.044,0.034l0.081,0.01l0.037-0.028l0.008-0.079l0.054-0.057l0.128-0.047h0.099l0.083,0.037l0.06,0.01l0.026-0.016l0.073,0.006l0.151,0.088l0.183,0.159l0.13,0.157l0.188,0.263l0.086,0.177l0.026,0.133l0.029,0.05l0.065,0.049l0.101,0.136l0.094,0.093l0.097,0.17l0.078,0.208l0.013,0.136l-0.013,0.12l-0.008,0.075l0.029,0.037l0.075,0.01l0.052-0.018l0.003-0.063l-0.031-0.049l0.008-0.037l0.091-0.028l0.041,0.015l0.008,0.032l0.029,0.013l0.104,0.005l0.047,0.026l0.021,0.044l0.057,0.034l0.05-0.008l0.075-0.133l0.045-0.021l0.039,0.003l0.049-0.018l0.029-0.039h0.057l0.118,0.057l0.263,0.253l0.083,0.065l0.073,0.024l0.05-0.011l0.078,0.029l0.091,0.159l-0.01,0.057l-0.039,0.026l-0.092,0.034l-0.07,0.091l-0.042,0.016l-0.015,0.031v0.042l-0.042,0.052l-0.133,0.031l-0.086,0.084l-0.052,0.125l0.01,0.041l0.029,0.003l0.068-0.042l0.182-0.054l0.071-0.06l0.226-0.068h0.084l0.073,0.039l0.052,0.01l0.031-0.01l0.078-0.008l0.06-0.021l0.084-0.065l0.08-0.042l0.071-0.005l0.127,0.042l0.055-0.008l0.094-0.117l0.042-0.034l0.08-0.021l0.068,0.011l0.091,0.046l0.17,0.159l0.138,0.172l0.146,0.238l0.091,0.213l0.164,0.279l0.063,0.18l-0.016,0.099l-0.075,0.044l-0.037,0.032l-0.06,0.023l-0.034,0.047l-0.007,0.086l0.031,0.076l-0.024,0.062l-0.122,0.086v0.044l0.083,0.068l0.094,0.026l0.138,0.052l0.084,0.073l0.046,0.086l0.071,0.034l0.099,0.005l0.135-0.031l0.084,0.026l0.091,0.078l0.06,0.097l0.047,0.028l0.055,0.006l0.054,0.031l0.047,0.068l0.05,0.041l0.047,0.011l0.049,0.042l0.057,0.125l0.014,0.052l-0.016,0.026l-0.031,0.005l-0.011,0.026l0.026,0.016l0.055-0.011l0.034-0.026l0.049,0.005l0.081,0.097l0.11,0.055l0.172-0.003l0.067-0.034l0.118-0.133l0.041-0.023h0.032l0.031-0.021l0.029-0.06l0.033-0.037l0.063-0.026l0.198-0.023l0.146,0.029l0.021,0.018l0.013,0.052l0.075,0.055l0.04,0.01l0.046,0.037l0.016,0.07l0.063,0.07l0.041,0.019l0.102,0.122l0.021,0.091l0.039,0.055l0.039,0.026l0.086,0.136l0.034,0.106l-0.003,0.05l-0.052,0.065l0.005,0.065l0.039,0.055l0.107,0.532l0.052,0.065l0.05,0.19l0.044,0.065l0.078,0.248l0.042,0.041l0.078,0.027l0.115,0.109l0.039,0.083l0.055,0.084l0.044,0.031l0.073,0.104l0.057,0.115l0.102,0.279l0.05,0.216l0.026,0.282l0.013,0.346l0.028,0.123l0.052,0.143l0.032,0.164l0.044,0.107l0.091,0.112l0.071,0.125l0.01,0.055l0.023,0.018l0.042,0.011l0.112,0.065l0.032,0.005l0.041,0.034l0.021,0.094l-0.01,0.263l-0.039,0.172l-0.084,0.182l-0.208,0.152l-0.081,0.023l-0.099-0.008l-0.115-0.044l-0.122-0.003l-0.138,0.032l-0.12,0.104l-0.18,0.06l-0.097,0.026l-0.101,0.065l-0.065,0.091l0.002,0.06l0.105,0.102l0.075,0.044l0.06,0.06l0.021,0.052l0.052,0.042l0.034,0.008l0.023,0.023l-0.013,0.097l-0.039,0.07l-0.054,0.206l0.01,0.039l-0.013,0.039l-0.073,0.031l-0.031,0.052l-0.058,0.18l-0.06,0.073l-0.047,0.099l-0.026,0.123l-0.044,0.073l-0.112,0.086l-0.182,0.075l-0.172,0.026l-0.162,0.081l-0.034,0.055l-0.002,0.109l0.07,0.17l-0.005,0.096l-0.065,0.125v0.112l0.059,0.052l0.008,0.123l-0.049,0.062l-0.003,0.068l0.11,0.203l0.075,0.055l0.232,0.102l0.047,0.023l0.266,0.005l0.214-0.041l0.106-0.003l0.165,0.037l0.151,0.005l0.06-0.018l0.125-0.006l0.07-0.026l0.19-0.232l0.105-0.242l-0.016-0.026l0.003-0.034l0.028-0.052l0.034-0.268l0.034-0.058l0.096-0.086l0.295-0.339l0.06-0.099l0.143-0.146l0.224-0.083l0.183-0.052l0.135-0.07l0.133-0.107l0.211-0.224l0.052-0.1v-0.205l-0.033-0.157l-0.019-0.323l-0.036-0.104l-0.016-0.157l0.032-0.112l-0.016-0.023l-0.05-0.01l-0.036-0.047l0.005-0.063l0.112-0.138l0.016-0.057l0.135-0.201l0.071-0.055l0.096-0.031l0.248-0.159l0.328-0.156l0.302-0.102l0.261-0.042l0.096,0.005l0.06,0.032l0.029,0.06l0.052,0.018l0.081-0.037l0.141,0.024l0.033,0.029h0.058l0.148-0.123l0.05-0.016l0.021-0.041l-0.024-0.078l0.032-0.112l0.067-0.092l0.06-0.01l0.005-0.018l-0.039-0.016l-0.091-0.023l-0.094-0.073l-0.047-0.068l0.006-0.042l-0.026-0.036l-0.039-0.026l-0.027-0.058l0.024-0.138l0.102-0.224l-0.008-0.05l-0.086-0.112l-0.047-0.114l0.034-0.243l0.086-0.242l0.062-0.083l-0.018-0.024l-0.094-0.023l-0.169-0.081l-0.128-0.104l-0.06-0.123l-0.091-0.055l-0.117-0.02l-0.36-0.199l-0.159-0.119l-0.083-0.128l-0.17-0.12l-0.07-0.01l-0.052,0.026l-0.373-0.011l-0.224-0.068l-0.153-0.112l-0.021-0.09l0.025-0.09l-0.014-0.063l-0.115-0.097l-0.035-0.143l0.056-0.184l0.361-0.385l0.101-0.143l-0.003-0.066l-0.035-0.069l-0.052-0.24l0.024-0.177l0.118-0.153l0.205-0.171l0.17-0.267l0.046-0.156l0.149-0.254l0.351-0.49l0.215-0.212l0.219-0.136l0.24-0.093l0.174-0.011l0.111,0.038l0.005,0.048l0.029,0.013l0.044-0.013l0.06,0.081l0.102,0.01l0.083-0.028l0.055-0.052l0.055,0.002l0.023,0.052l0.023,0.003l0.071-0.057l0.073,0.007l0.026,0.05l-0.037,0.047l-0.088,0.018l-0.081-0.018l-0.083,0.01l-0.019,0.026l0.034,0.039l-0.008,0.092l-0.054,0.047l-0.084,0.026l-0.013,0.031l0.019,0.026l0.072,0.008l0.18,0.112l0.045,0.008l0.036,0.015l0.016,0.032l0.06,0.031h0.065l0.143,0.065l0.039,0.044l0.071,0.026l0.091-0.005l0.055,0.021l0.028,0.044l0.052,0.021l0.076,0.005l0.039,0.024l0.031,0.039l0.047,0.016l0.467-0.047l0.226,0.005l0.511,0.073l0.086,0.028l0.125,0.105l0.076,0.122l0.005,0.11l0.059,0.098l0.167,0.118l0.101,0.139l0.003,0.101l-0.045,0.087l-0.073,0.048l0.014,0.028l0.045-0.007l0.052,0.024l0.045,0.091v0.104l-0.041,0.035h-0.042l-0.007,0.024l0.184,0.261l0.094,0.059l0.4,0.299l0.173,0.059l0.115,0.003l0.084,0.018l0.173,0.104l0.059,0.052l0.073,0.017l0.084-0.024l0.052-0.083l-0.012-0.073v-0.05l0.028-0.083l0.008-0.094l-0.021-0.112l0.003-0.058l0.06-0.218l0.039-0.089l0.034-0.026l0.015-0.029l0.008-0.052l0.045-0.044l0.083-0.037l0.039-0.054l0.011-0.094l0.018-0.037l0.112-0.088l0.002-0.034l-0.033-0.034v-0.039l0.015-0.039l-0.018-0.045l-0.06-0.026l-0.128-0.206l-0.002-0.036l0.015-0.034l-0.002-0.049l-0.045-0.099l-0.02-0.079l-0.097-0.122l-0.099-0.063l-0.167-0.177l-0.052-0.021l-0.096-0.109l-0.011-0.037l-0.034-0.034l-0.036-0.01l-0.143-0.141l-0.045-0.018l-0.057-0.055l-0.018-0.039l-0.081-0.044l-0.042-0.003l-0.028-0.015l-0.026-0.034l-0.037-0.018l-0.06-0.003l-0.078-0.047l-0.164-0.138l-0.011-0.037l-0.036-0.036l-0.044-0.024l-0.063-0.067l-0.003-0.047l0.021-0.052v-0.058l-0.062-0.065l-0.037-0.068l0.003-0.044l-0.021-0.026l-0.133-0.013l-0.07,0.016l-0.013-0.019l0.018-0.028v-0.037l-0.052-0.075l-0.026-0.011l-0.037,0.003l-0.125-0.011l-0.25-0.054l-0.089-0.055l-0.023-0.029l-0.029-0.018l-0.057-0.005l-0.107-0.065l-0.076-0.065l-0.239-0.107l-0.37-0.112l-0.209-0.086l-0.115-0.071l-0.007-0.028l-0.034-0.029l-0.12-0.06l-0.076-0.057l-0.031-0.047l-0.07-0.05l-0.107-0.052l-0.039-0.044l-0.024-0.068l-0.104-0.096l-0.347-0.206l-0.109-0.097l-0.094-0.057l-0.07-0.021l-0.076-0.039l-0.081-0.063l-0.224-0.096l-0.109-0.018l-0.193-0.058l-0.136-0.065l-0.159-0.054l-0.028-0.045l-0.031-0.005l-0.014,0.021l-0.033-0.005l-0.019-0.026l-0.023-0.003l-0.042,0.013l-0.099-0.036l-0.065-0.045l-0.049-0.018l-0.146-0.034l-0.159-0.06l-0.05-0.031l-0.07-0.024l-0.078-0.015l-0.167-0.057l-0.175-0.097l-0.018-0.034l-0.044-0.018l-0.055-0.005l-0.12-0.05l-0.052-0.013l-0.099-0.049l-0.031-0.039l-0.058-0.029l-0.042-0.005l-0.242-0.12l-0.099-0.026l-0.109-0.045l-0.003-0.023h-0.018l-0.013,0.023l-0.047-0.005l-0.063-0.039l-0.065-0.062l-0.073-0.034l-0.052-0.011l-0.104-0.049l-0.06-0.042l-0.097-0.049l-0.083-0.024l-0.313-0.146l-0.193-0.117l-0.14-0.175l-0.078-0.185l-0.034-0.193l0.023-0.133l0.042-0.062l0.062-0.05l0.185-0.088l0.034-0.026l0.193-0.076l0.11-0.091l0.033-0.057l0.079-0.076l0.106-0.06l0.068-0.013l0.076-0.06l0.005-0.042l0.026-0.023l0.039-0.023l0.044-0.157l-0.015-0.044l-0.011-0.099l-0.036-0.037l-0.01-0.078l0.013-0.039l-0.013-0.047l-0.06-0.039l-0.047-0.076l-0.042-0.015l-0.031,0.008l-0.045-0.019l-0.044-0.054l-0.12-0.065l-0.138-0.032l-0.172,0.011l-0.06,0.026l-0.464,0.078l-0.505,0.044l-0.151-0.015l-0.115-0.045l-0.112-0.005l-0.104,0.037l-0.389,0.065l-0.359,0.023l-0.092-0.018l-0.086-0.052l-0.101-0.013l-0.326-0.003l-0.222-0.018l-0.224-0.057l-0.104-0.045l-0.083-0.083l-0.204-0.156l-0.096-0.047l-0.182-0.034l-0.193-0.071l-0.297-0.159l-0.11-0.044l-0.13-0.094l-0.018-0.073l0.01-0.075l-0.026-0.177l-0.026-0.021l-0.034,0.002l-0.146-0.057l-0.258-0.107l-0.25-0.159l-0.071-0.073l-0.02-0.057l-0.266-0.227l-0.011-0.042l-0.041-0.054l-0.011-0.047l-0.094-0.086l-0.153-0.081l-0.279-0.195l-0.321-0.272l-0.245-0.278l-0.271-0.357l-0.177-0.274l-0.133-0.276l-0.099-0.277l-0.039-0.179l-0.029-0.128l-0.099-0.193l-0.088-0.289l-0.068-0.276l-0.005-0.097l-0.045-0.128l-0.078-0.122l-0.245-0.613l-0.107-0.161l-0.153-0.381l-0.19-0.359l-0.028-0.167l0.018-0.066l-0.028-0.049l-0.136-0.052l-0.045-0.031l-0.02-0.084l-0.091-0.09l-0.111-0.052l-0.063,0.014l-0.059,0.038l-0.104-0.01l-0.316-0.143l-0.358-0.205l-0.257-0.18l-0.368-0.282l-0.247-0.215l-0.118-0.059l-0.313-0.261l-0.087-0.014l-0.285-0.16l-0.115-0.045l-0.243-0.031l-0.139-0.08l-0.253-0.212l-0.108-0.153l-0.042-0.024h-0.042l-0.052-0.011l-0.156-0.163l-0.132-0.143l-0.139-0.114l-0.167-0.174l-0.139-0.278l-0.087-0.299l-0.076-0.34l-0.101-0.303l-0.014-0.215l0.021-0.177l-0.014-0.261l-0.045-0.108l-0.028-0.166l0.007-0.195l0.045-0.177l0.066-0.125v-0.052l-0.028-0.021l0.007-0.039l0.056-0.041l0.097-0.007l0.153,0.083l0.125,0.098l-0.017,0.038l-0.087,0.003l-0.028,0.018l0.028,0.02l0.139-0.017l0.059-0.052l0.017-0.063l-0.038-0.059l-0.021-0.194l0.021-0.108l0.063-0.031l0.052,0.031v0.09l-0.017,0.035l0.003,0.052l0.059,0.035l0.063,0.003l0.052-0.086l-0.028-0.063l0.01-0.059l0.056-0.052l0.014-0.236l-0.031-0.042l-0.15-0.004l-0.038-0.038l0.031-0.069l-0.066-0.108l-0.073-0.038l-0.059,0.017l-0.003,0.049l-0.035,0.024l-0.059-0.01l-0.066,0.02l-0.066,0.101l-0.042,0.007l-0.028-0.121l0.007-0.084l0.077-0.111l-0.014-0.042l-0.146-0.038l-0.014-0.042l0.076-0.01l0.063,0.021l0.031-0.007l-0.017-0.042l-0.16-0.035l-0.056-0.073l0.032-0.079l0.073-0.035l0.034-0.052l0.032,0.003l0.021,0.08l0.059,0.09l0.024-0.01l-0.042-0.108l-0.003-0.184v-0.062l-0.073-0.112l-0.028-0.104l-0.042-0.01l-0.083,0.034l-0.031,0.042l0.038,0.045v0.063l-0.045,0.017l-0.063-0.035l-0.055-0.163l-0.046-0.028l-0.003-0.034l0.031-0.025l0.007-0.041l-0.021-0.084l-0.034-0.014l-0.073,0.07l-0.056,0.003l-0.052-0.045l-0.038-0.09l-0.032-0.032l0.011-0.027l0.048-0.004l0.039-0.059l0.118-0.076l0.01-0.07l-0.048-0.101l-0.007-0.062l0.024-0.024l0.049,0.052l0.02,0.1l0.046,0.011l0.09-0.052l0.035-0.059l0.01-0.185l0.038-0.142l0.063-0.136l0.101-0.038l0.097-0.017l0.045-0.031l0.004-0.039l0.041-0.034l0.063-0.004l0.052-0.035l0.01-0.041l0.046-0.007l0.066,0.052l0.048-0.004l0.007-0.059l0.073-0.073l0.059-0.007l0.018-0.024l-0.014-0.031l0.024-0.024h0.066l0.101,0.093l0.076,0.122h0.045l0.07-0.052l0.094-0.031l0.073,0.007l0.021,0.034l-0.035,0.045h-0.087l-0.09,0.039l-0.021,0.055l-0.049,0.045l-0.24,0.063l-0.069-0.01l-0.08,0.027l-0.087,0.073l-0.021,0.084l0.021,0.038l0.042,0.003l0.045-0.041l0.076-0.042l0.254-0.094l0.233-0.108l0.257-0.111l0.174-0.055l0.139-0.066l0.118-0.087l0.327-0.157l0.083-0.066l0.073-0.036l0.177-0.045l0.028-0.044l0.009-0.061l0.019-0.008l0.048,0.035l0.011,0.029l-0.03,0.023l0.005,0.021l0.127-0.028l0.134-0.002l0.132-0.026l0.044-0.031l0.024-0.077l0.033-0.048l0.115-0.105l-0.002-0.034l-0.023-0.004l-0.022,0.03l-0.152,0.062l-0.05-0.005l-0.026-0.078v-0.058l0.05-0.078l0.059-0.012l0.049-0.043l0.004-0.066l0.048-0.019l0.071,0.012l0.101-0.035l0.059-0.033l0.087,0.01l0.047,0.054l0.127,0.04l0.198,0.011l0.337,0.104l0.077,0.04l0.026,0.054l-0.011,0.027l-0.048,0.004l-0.068,0.054l-0.098,0.002l-0.008,0.017l0.026,0.016l0.154-0.006l0.075-0.033l0.071-0.069l0.046-0.024l0.076-0.013l0.142-0.074l0.073-0.009l0.002-0.021l-0.108-0.061l-0.012-0.043l0.019-0.084l0.049-0.09l0.031-0.005l0.035,0.042l0.085,0.04l0.124,0.019l0.071,0.027l0.172,0.129l0.234,0.222l0.07,0.106l-0.002,0.063l-0.033,0.023l0.005,0.038l0.063,0.022l0.089,0.101l0.001,0.024l-0.059,0.009l-0.121-0.033l-0.072,0.011l-0.015,0.029l0.007,0.033l0.083-0.017l0.122,0.059l0.125,0.014l0.149-0.018l0.07-0.097l0.159-0.104v-0.031l-0.191-0.115l-0.1-0.132l-0.025-0.111l-0.146-0.157l-0.153-0.048l-0.215-0.139l-0.122-0.046l-0.128-0.01l-0.084-0.045l-0.031-0.101l-0.055-0.038l-0.014-0.056l0.041-0.08l0.007-0.062l0.032-0.056l0.045-0.024l0.101-0.167l-0.007-0.052l0.031-0.167l-0.031-0.031l-0.053,0.028l-0.041,0.003l-0.049-0.031l-0.069,0.014l-0.039,0.062l-0.121,0.021l-0.125-0.076l-0.073-0.087l-0.004-0.042l0.073-0.042l0.028-0.111l-0.024-0.041l0.014-0.039l0.1-0.021l0.049-0.066l0.108-0.034l0.08-0.084l0.198-0.17l0.031-0.083l0.042-0.046l-0.011-0.055l-0.121-0.045l-0.115-0.004l-0.066,0.025l-0.059-0.011l-0.021-0.076l-0.111-0.056l-0.052,0.007l-0.136-0.045l-0.104,0.01l-0.045,0.056l-0.077,0.017l-0.034-0.038l0.02-0.045l0.011-0.056l-0.056-0.034l-0.038-0.084l-0.007-0.094l-0.042-0.031l-0.007-0.038l0.08-0.011l0.049-0.038v-0.048l0.045-0.032l0.049,0.004l0.031-0.039l-0.038-0.114l0.021-0.031l0.104,0.003l0.139-0.056l0.049-0.041l0.194-0.094l0.021-0.108l0.073-0.066l0.167-0.024l0.066,0.024l0.111-0.007l0.021-0.045l-0.007-0.052l0.01-0.045l0.032-0.042l0.003-0.087l0.035-0.035l-0.014-0.076l-0.094,0.01l-0.059-0.01l-0.163-0.083l-0.125-0.018l-0.059,0.025l-0.042-0.011l-0.031-0.045l-0.059-0.014l-0.053,0.031l-0.055-0.017l-0.021-0.059l-0.038-0.014l-0.094,0.028h-0.212l-0.024-0.052l-0.07-0.032h-0.069l-0.021,0.035l-0.094,0.007l-0.063,0.077l-0.038,0.003l-0.024-0.035l-0.08-0.01l-0.139,0.028l-0.066-0.007l-0.073-0.066l-0.087-0.021l-0.139-0.08l-0.247-0.038l-0.087,0.027h-0.1l-0.063-0.027l-0.222-0.014l-0.111-0.028h-0.24l-0.084,0.01l-0.031-0.041l0.007-0.049l-0.028-0.028l-0.041,0.018l-0.063-0.025l-0.066-0.055l-0.115-0.014l-0.055,0.045l-0.049-0.004l-0.076-0.062l-0.119-0.028l-0.069,0.035l-0.049-0.007l-0.027-0.028l-0.06-0.01l-0.187,0.024l-0.08-0.021l-0.097-0.08l-0.073-0.017l-0.042,0.014l-0.045-0.014l-0.025-0.031l-0.027-0.011l-0.108-0.003l-0.198-0.125l-0.097-0.254l-0.063-0.042l-0.115-0.028l-0.083,0.007l-0.021-0.038l0.035-0.059l-0.028-0.035l0.007-0.048l0.063-0.059l0.01-0.039l-0.049-0.02l-0.017-0.046v-0.052l-0.076-0.087l-0.063-0.024l-0.059,0.007l-0.045,0.056h-0.042l-0.042-0.049v-0.052l-0.052-0.045h-0.09l-0.045-0.014l-0.004-0.035l0.049-0.063l0.014-0.041l-0.049-0.052l-0.055-0.028l-0.014-0.038l0.01-0.063l-0.021-0.066l-0.041-0.042l0.006-0.052l0.067-0.059l0.038-0.003l0.041,0.021h0.039l0.045-0.028l0.069-0.007l0.039-0.066l0.006-0.059l0.025-0.039l0.048-0.034l-0.003-0.049l-0.122-0.059h-0.069l-0.115,0.056l-0.108,0.027l-0.079-0.02l-0.049,0.013l-0.038,0.06l-0.039,0.017l-0.066-0.017l-0.052,0.017l-0.017,0.042l-0.042,0.017l-0.069-0.017l-0.091,0.01l-0.048,0.038l-0.059,0.021l-0.059-0.003l-0.146,0.087l-0.063,0.013l-0.177,0.108l-0.136,0.007l-0.073,0.021l-0.048,0.062l-0.052,0.014l-0.073-0.01l-0.039-0.066l-0.09-0.035h-0.097l-0.108-0.035l-0.069-0.048h-0.073l-0.105,0.087l-0.09,0.017l-0.08-0.014l-0.125-0.08l-0.066,0.004l-0.031,0.038l-0.056,0.028l-0.069,0.107l-0.119,0.025l-0.086-0.028l-0.084-0.073l-0.135-0.014l-0.164,0.035l-0.121,0.052l-0.177,0.028l-0.08-0.011l-0.063,0.035l-0.007,0.101l-0.083,0.052l-0.091,0.003l-0.062,0.07l-0.014,0.125l-0.077,0.139l-0.013,0.08l0.034,0.066l-0.014,0.042l-0.114,0.08l-0.059,0.135l-0.039,0.017l-0.041-0.01l-0.056,0.017l-0.174-0.02l-0.076,0.024l-0.087-0.011l-0.076,0.032l-0.049-0.011l-0.052-0.048l-0.077-0.018l-0.031,0.025l-0.066-0.011l-0.066-0.083l-0.042-0.004l-0.034,0.032l-0.087,0.017l-0.066-0.028l0.01-0.048l0.063-0.028l0.041-0.087l-0.041-0.045l-0.129-0.028l-0.076-0.049l0.003-0.048l-0.052-0.042l-0.09-0.007l-0.198,0.063l-0.073,0.059l-0.112,0.038l-0.027-0.014l0.014-0.028l-0.025-0.014l-0.073,0.018l-0.118-0.018l-0.059-0.035l-0.04,0.006l-0.008,0.067l-0.067,0.175l-0.068,0.039l-0.011,0.055l0.052,0.075l-0.02,0.076l-0.107,0.063l-0.008,0.041l0.037,0.071l-0.073,0.112l-0.05,0.018l-0.005,0.029l0.034,0.047l-0.003,0.059l0.047,0.094l0.042,0.021l0.086-0.021l0.049,0.008l0.112,0.086l0.031,0.047l-0.013,0.141l-0.046,0.159l-0.063,0.06l-0.039,0.005l-0.076-0.073l-0.047-0.005l-0.039,0.026l-0.041-0.005l-0.042-0.032l-0.094-0.005l-0.052,0.042l-0.031-0.003l-0.011-0.026l-0.034-0.01l-0.028,0.018l-0.058-0.018l-0.039-0.076l-0.073-0.039l-0.049,0.021l-0.037-0.021l-0.005-0.083l0.047-0.055l-0.003-0.042l-0.039-0.036l-0.01-0.047l-0.031-0.008l-0.058,0.06l-0.049,0.005l-0.081-0.008l-0.203,0.065l-0.084-0.013l-0.026,0.016l-0.01,0.06l0.016,0.055l-0.019,0.036l-0.041,0.013l-0.079,0.123l-0.06,0.018l-0.015,0.031l0.028,0.034l-0.005,0.052l-0.023,0.031l0.002,0.131l0.024,0.047l0.008,0.047l-0.05,0.067l0.021,0.032l0.039,0.013l0.011,0.044l0.026,0.016h0.033l0.034,0.02l0.047,0.006l0.078-0.039l0.055-0.006l0.086,0.063l0.029,0.122l-0.024,0.024l-0.057-0.003l-0.044,0.042l0.002,0.07l-0.023,0.032l-0.05,0.013l-0.026,0.088l0.047,0.094l0.084,0.047l0.13,0.188l0.003,0.06l-0.084,0.052l-0.031,0.062l-0.065,0.024l-0.047-0.013l-0.089-0.003l-0.068,0.029l-0.073-0.026l-0.015-0.039l0.042-0.05l0.002-0.081l-0.099-0.065l-0.13-0.042l-0.018-0.047l0.023-0.028l-0.008-0.052l-0.049-0.06l0.005-0.045l0.052-0.065l-0.016-0.028l-0.052-0.011l-0.114-0.091l-0.058,0.005l-0.028,0.034l-0.032,0.003l-0.044-0.058h-0.052l-0.042,0.055l-0.06,0.018l-0.052-0.005l-0.078,0.021l-0.026,0.036l-0.133,0.04l-0.042,0.036l-0.049-0.005l-0.068-0.06l-0.044-0.003l-0.045,0.05l-0.005,0.161l-0.049,0.066l-0.068-0.003l-0.042-0.031l-0.055-0.006l-0.093,0.068l-0.076-0.002l-0.049-0.029l-0.235-0.065l-0.104-0.112l-0.013-0.073l-0.065-0.078l-0.115-0.053l-0.011-0.039l0.016-0.039l-0.031-0.122v-0.118l0.021-0.135l-0.003-0.037l-0.042-0.013l-0.002-0.02l0.034-0.003l0.013-0.083l-0.026-0.013l-0.107,0.073l-0.024,0.088l-0.049,0.016l-0.078-0.037l-0.063-0.062l-0.005-0.068l-0.031-0.018l-0.032,0.01l-0.114-0.002l-0.125,0.033l-0.05,0.066v0.096l-0.029,0.057l-0.057,0.016l-0.026,0.039l0.021,0.055l0.096,0.062l0.029,0.152l-0.029,0.057l0.016,0.049l0.049,0.026l0.019,0.105l-0.066,0.166l-0.093,0.133l-0.037,0.144l-0.023,0.034l-0.086,0.039l-0.084,0.114l-0.007,0.089l-0.053,0.044l-0.07,0.018l-0.117,0.092l-0.068,0.075l-0.115,0.039l-0.023,0.047l0.047,0.115l-0.034,0.091l-0.034,0.029l-0.06-0.005l-0.128,0.062l-0.031,0.099l0.065,0.081l-0.013,0.096l-0.091,0.05l-0.01,0.06l0.062,0.031l0.009,0.078l0.052,0.073l0.08,0.021l0.128,0.111l-0.038,0.087l-0.069,0.032l-0.035,0.041l-0.042,0.164l-0.062,0.066l-0.087-0.025l-0.004-0.041l-0.038-0.028h-0.073l-0.087-0.018l-0.073,0.049l-0.027-0.007l-0.004-0.062l0.063-0.094l-0.032-0.171l-0.1-0.125l0.003-0.111l-0.042-0.024l-0.034,0.003l-0.205-0.146l-0.108-0.007l-0.028-0.02l0.059-0.133l0.084-0.038l0.1-0.146l-0.028-0.087l-0.142-0.073l-0.056,0.014l-0.076-0.014l-0.052-0.045l-0.059-0.017l-0.122,0.052l-0.205-0.09l-0.142-0.032l-0.052-0.052l-0.025-0.08l-0.069-0.048l-0.035-0.073l-0.091-0.081l-0.027-0.079l-0.077-0.052l-0.152-0.045l-0.101-0.073l-0.007-0.028l0.021-0.031v-0.056l-0.053-0.042l-0.02-0.073l0.027-0.09l0.056-0.021l0.035-0.083l-0.004-0.122l0.004-0.094l0.017-0.041l-0.003-0.073l-0.032-0.084l0.014-0.111l-0.055-0.052l-0.063-0.014l-0.125,0.049l-0.101,0.01l-0.167,0.122l-0.062,0.007l-0.052,0.038l-0.004,0.049l0.059,0.027l0.018,0.08l-0.042,0.052l-0.108,0.011l-0.041,0.028l-0.014,0.059l-0.035,0.045l-0.049,0.007l-0.052,0.038l-0.048,0.108l-0.084,0.048l-0.128,0.007l-0.059-0.017l-0.084,0.042l-0.121,0.142l0.013,0.049l0.091,0.028l0.108,0.111l0.069,0.17l-0.003,0.049l-0.025,0.024l-0.021,0.052l0.014,0.059l-0.034,0.042h-0.049l-0.052,0.035l-0.004,0.055l-0.052,0.042l-0.187,0.028l-0.073,0.034l-0.021,0.063l0.028,0.163l-0.011,0.035l-0.042,0.028l-0.076,0.144l-0.073,0.029h-0.214l-0.078,0.028l-0.086,0.102l-0.023,0.12l0.02,0.052l-0.007,0.042l-0.055,0.023l-0.136-0.039l-0.07,0.024l-0.063-0.008l-0.078-0.065l-0.054-0.003l-0.066,0.063h-0.054l-0.039-0.029l-0.006-0.068l-0.031-0.036l-0.065-0.024l-0.068-0.07l-0.052-0.011l-0.088,0.029l-0.126,0.008l-0.093-0.029l-0.032-0.034l-0.093,0.019l-0.042,0.057l0.015,0.102l-0.031,0.01l-0.044-0.029l-0.107,0.034l-0.076,0.055l-0.01,0.07l-0.031,0.032l-0.084,0.015l-0.182,0.125l-0.044,0.008l-0.045-0.016l-0.028-0.033l-0.063-0.019l-0.049,0.016l-0.045-0.003l-0.062-0.041l-0.058,0.018l-0.013,0.068l-0.041,0.06l-0.039,0.01l-0.042-0.018l-0.097,0.01l-0.075,0.065l-0.003,0.058l-0.041,0.015l-0.081-0.031l-0.042-0.055l-0.036,0.003l-0.076,0.081l-0.06,0.005l-0.057-0.042l-0.032-0.094l-0.086-0.083l-0.015-0.07l-0.057-0.032L667.293,267.502z M687.691,276.228l0.036-0.012l0.014-0.018l0.027-0.005l0.013,0.013l-0.004,0.023l-0.015,0.012l0.003,0.04l-0.011,0.014l-0.003,0.048l0.022,0.037l0.001,0.035l-0.034,0.053l-0.003,0.022l-0.012,0.015l-0.016,0.004l-0.011,0.015l0.002,0.039l-0.02,0.033l-0.001,0.024l-0.01,0.005l-0.051-0.002l-0.043,0.009l-0.033-0.004l-0.015-0.016l-0.006-0.021l-0.025-0.004l-0.014,0.011l-0.015,0.002l-0.012-0.006h-0.014l-0.014,0.012h-0.036l-0.013-0.011l0.012-0.022l0.001-0.018l-0.014-0.038l0.004-0.026l0.02-0.011v-0.023l-0.018-0.028l-0.024-0.007l-0.005-0.02l0.004-0.04l0.009-0.004l0.016,0.013l0.022-0.004l0.011-0.014l0.018-0.004l0.033,0.004l0.024-0.009l0.029-0.033l0.095-0.062L687.664,276.243z M687.522,285.514l0.018-0.025l0.021-0.004l0.01,0.011l0.003,0.018l-0.017,0.01L687.531,285.522z"/>
</svg>
