<svg xmlns="http://www.w3.org/2000/svg" viewBox="665.976 261.894 44.153 46.445">
  <path fill-rule="evenodd" d="M671.923246,289.465282l-0.017322,-0.062721l0.027716,-0.055752l0.051967,-0.020907l0.090076,-0.108019l0.069289,-0.013938l0.014374,-0.016523l0.001232,-0.025211l-0.029464,-0.041895l0.017322,-0.052267l0.103933,-0.048783l0.072914,0.014099l0.060131,0.05522l0.015686,0.068367l-0.027475,0.085322l-0.076218,0.041814l-0.10415,-0.020641l-0.047059,0.007889l-0.091303,0.071989l-0.030266,0.058172v0.042072l0.060131,0.057849l-0.002614,0.036813l-0.044573,0.055978l-0.065231,0.00976l-0.05256,-0.016729l-0.027716,-0.066205l0.03118,-0.055752Z M671.885137,289.625568l0.017322,0.048783l0.038109,-0.003484l0.006929,-0.034845l-0.03118,-0.024391l-0.03118,0.013938Z M672.243708,294.010801l0.04677,-0.026134l-0.01559,-0.052267l-0.057163,0.005227l-0.025983,0.057494l0.051967,0.01568Z M672.035841,297.789731l0.083147,0.062721l0.086034,-0.000399l0.041176,-0.03747l0.018297,-0.071892l0.007194,-0.216038l-0.017587,-0.045298l-0.06236,-0.020907l-0.071033,0.001125l-0.168014,0.072049l-0.026104,0.040362l-0.003922,0.039443l0.021068,0.022839l0.06612,0.033251l0.016733,0.026739l0.009251,0.093476Z M672.435984,297.983121v0.099308l0.150703,0.282244l0.07795,0.057494l0.068249,-0.016151l0.021153,-0.033321l0.030121,-0.206638l0.041573,-0.114988l-0.016793,-0.118158l-0.021891,-0.045611l-0.08007,-0.060884l-0.052936,-0.015777h-0.103734l-0.051967,-0.036587l-0.042343,-0.0068l-0.029412,0.017749l-0.039216,0.096634v0.039443l0.048611,0.062043Z M676.816777,297.925627l0.03118,-0.010453v-0.03136l-0.03118,-0.01568l-0.025983,0.026134l0.025983,0.03136Z M677.112987,297.67997l0.005197,-0.041814l-0.03118,-0.020907l-0.020787,0.03136l0.010393,0.036587l0.036377,-0.005227Z M677.38841,289.996666l0.013858,0.03136l0.053699,-0.01568l0.076218,-0.066205l0.06236,-0.027876v-0.038329l-0.057163,0.005227l-0.148971,0.111504Z M677.546043,290.148242h0.048502l0.017322,-0.038329l-0.027716,-0.038329l-0.086611,0.010453l-0.010393,0.038329l0.058896,0.027876Z M676.104833,288.5175l0.051967,-0.017422l0.017322,-0.055752l-0.055431,-0.038329l-0.048502,0.027876l0.003464,0.062721l0.03118,0.020907Z M675.408479,288.496593l0.013858,-0.045298l-0.051967,-0.020907l-0.027716,0.027876l-0.003464,0.045298l0.069289,-0.006969Z M676.122155,288.311915l0.045038,-0.017422l-0.017322,-0.038329l-0.045038,-0.003484l-0.03118,0.027876l0.048502,0.03136Z M676.118691,288.221318h0.038109l0.003464,-0.034845l-0.065824,-0.027876l-0.020787,0.027876l0.045038,0.034845Z M676.229553,288.235256l0.041573,-0.034845l-0.020787,-0.034845l-0.051967,0.024391l-0.010393,0.041814l0.041573,0.003484Z M676.981338,289.266666l0.038109,-0.027876l0.003464,-0.027876h-0.045038l-0.03118,0.038329l0.034644,0.017422Z M677.085271,289.224852l0.041573,-0.017422l-0.003464,-0.045298h-0.038109l-0.020787,0.034845l0.020787,0.027876Z M676.773471,288.817166l0.041573,-0.003484l0.003464,-0.027876l-0.045038,-0.013938l-0.027716,0.024391l0.027716,0.020907Z M676.267662,288.594159l0.103933,0.003484l0.086611,-0.03136l0.027716,-0.055752l-0.027716,-0.038329l-0.024251,-0.128926l-0.055431,-0.006969l-0.027716,0.076659l-0.117791,0.076659l-0.010393,0.083628l0.045038,0.020907Z M676.548282,288.68824l0.079682,-0.094081l0.013858,-0.097566l-0.051967,-0.038329l-0.06236,0.048783l-0.03118,0.06969l0.017322,0.038329l-0.017322,0.027876l-0.038109,0.020907l-0.006929,0.048783l0.03118,0.013938l0.03118,-0.024391l0.048502,0.03136l-0.003464,0.034845l0.017322,0.010453l0.048502,-0.052267l-0.017322,-0.024391l-0.038109,0.003484l-0.020787,-0.017422Z M676.395846,288.698693l0.020787,-0.03136l-0.013858,-0.052267l-0.055431,0.027876l-0.003464,0.048783l0.051967,0.006969Z M675.519342,288.423419l-0.065824,0.059236l0.006929,0.052267l-0.041479,0.088654l-0.00088,0.044289l0.03543,0.069157l-0.027716,0.083628l-0.107398,0.027876l-0.034644,0.013938l-0.051967,0.076659l-0.152436,0.020907l-0.083147,-0.034845l-0.117791,0.034845l-0.090076,0.160287l-0.207867,0.223007l-0.117791,0.027876l-0.103933,0.097566l-0.006929,0.111504l-0.221725,0.236945l-0.173222,0.076659l-0.214796,0.006969l-0.242511,0.125442l-0.090076,0.132411l-0.304871,0.13938l-0.256465,0.028348l-0.069193,-0.01441l-0.093552,-0.072364l-0.065812,-0.011264l-0.145507,0.020907l-0.256369,-0.062721l-0.087213,-0.051445l-0.134512,-0.164594l-0.038037,-0.07995l-0.000072,-0.050719l0.03118,-0.052267l-0.0077,-0.038722l-0.014258,-0.010803l-0.040403,0.002484l-0.043257,-0.015632l-0.034693,-0.052316l-0.041573,0.01568l-0.03118,0.135895l0.025983,0.062721l0.10107,0.090452l0.013532,0.043018l-0.017598,0.103475l-0.112595,0.243914l-0.072753,0.036587l-0.025983,0.052267l0.03118,0.052267l-0.020787,0.073174l-0.083147,0.083628l-0.01381,0.057131l0.019608,0.059164l0.113725,0.077094l0.07795,0.03136l0.041573,0.057494l0.002045,0.066762l-0.054012,0.07436l-0.119523,0.067948l-0.051967,0.073174l-0.001949,0.088225l0.055648,0.119102l0.03118,-0.006969l0.019054,-0.080143l0.043137,-0.075376l0.066667,-0.031554l0.046096,0.002396l0.020787,0.057494l-0.057163,0.083628l0.03118,0.047041h0.10913l0.098737,-0.094081l0.119523,-0.005227l0.072753,0.073174l-0.005197,0.088855l0.088343,0.214296l0.114327,0.052267l0.083147,0.219523l0.020787,0.188163l-0.074486,0.196874l0.051967,0.080143l0.090076,0.003484l0.051967,0.020907l0.03118,0.041814l0.069289,0.020907l0.076218,0.125442l0.017322,0.062721l-0.038109,0.125442l-0.03118,0.121957v0.10105l-0.03118,0.076659l0.020787,0.167256l0.097004,0.111504l0.010393,0.132411l-0.121256,0.132411l-0.135113,0.041814l-0.055431,-0.027876l-0.055431,0.003484l-0.06236,0.052267l0.017322,0.03136l0.069289,-0.010453l0.045038,0.034845l0.003464,0.104535l-0.055431,0.06969l-0.006929,0.052267l0.027716,0.055752l-0.020787,0.212554l0.024251,0.052267h0.048502l0.065824,0.080143l0.005197,0.078401l0.019054,0.008711l0.020787,-0.087112l0.086611,-0.097566l0.121256,-0.010453l0.110862,0.048783l0.069289,0.135895l0.010393,0.177709l-0.069289,0.219523l-0.079682,0.156802l-0.010393,0.066205l0.079682,0.059236l0.058896,-0.006969l0.048502,0.020907l-0.027716,0.038329h-0.103933l-0.097004,-0.073174l-0.138578,-0.247399l-0.045038,-0.003484l-0.020787,0.066205l0.034644,0.184678l-0.013858,0.097566l-0.003464,0.048783l0.034644,0.059236l-0.024251,0.041814l0.003464,0.118473l0.055431,0.059236l0.010393,0.076659l-0.065824,0.212554l-0.166293,0.243914l-0.086611,0.062721l0.006929,0.094081l0.072946,0.040604l0.023529,0.043387l-0.013328,0.086749l-0.100469,0.104535l-0.006929,0.087112l0.06236,0.13938l0.083147,0.038329l0.065415,0.088201l0.011765,0.094662l-0.063322,0.081958l-0.197473,0.153318l-0.010393,0.080143l0.038109,0.059236l0.058896,-0.003484l0.03118,0.034845v0.076659l0.03118,0.094081l0.017322,0.012196l-0.006929,-0.071432l0.020787,-0.024391l0.076218,0.073174l-0.013858,0.108019l0.022206,0.050106l0.024837,0.007889l0.039568,-0.019665l0.045038,0.020907l0.052648,0.09342l0.002614,0.040757l-0.031012,0.074892l0.006175,0.027658l0.020518,0.010728l0.028738,-0.010511l0.144208,0.013587l0.082353,0.019721l0.071382,0.064257l0.017322,0.083628l-0.03118,0.094081l0.001299,0.045964l0.054132,0.103869l0.030182,0.020375l0.021385,0.001756l0.029595,-0.015561l0.033165,0.010853l0.037423,0.058172l0.00415,0.03591l-0.051967,0.104535l-0.010393,0.06969l0.041573,0.024391l0.061735,-0.023508l0.022576,0.008917l0.008796,0.020665l-0.016889,0.025287l0.034644,0.066205l0.038975,-0.009582l-0.003685,-0.052375l-0.017102,-0.026026l0.012992,-0.028747h0.049368l0.005197,-0.02352l-0.026849,-0.033974l0.017322,-0.027876l0.041573,0.024391l0.126452,-0.056623l0.025983,-0.039201l-0.005197,-0.039201l0.011332,-0.007526l0.013072,0.00263l0.018301,0.035498l0.030065,0.02498l0.122972,0.05505l0.016897,0.019891l0.005229,0.022351l0.064052,0.034184l0.030065,-0.006574l0.031372,0.003944l0.053322,0.02377l0.020787,0.045298l0.020009,0.012446l0.066602,0.004977l0.024901,-0.008921l0.051317,-0.046831l0.101624,-0.054405l0.03268,-0.028925l0.028526,-0.049081l0.356838,-0.285728l0.041573,-0.059236l0.003464,-0.10105l0.073619,-0.083628l-0.002598,-0.052267l-0.044172,-0.044427l-0.071887,-0.105406l-0.010393,-0.128926l0.020787,-0.10105l0.110862,-0.149833l0.103837,-0.089036l0.04167,-0.018983l0.105389,-0.012571l0.035294,0.013805l0.039468,0.051033l0.086611,0.048783l0.036665,-0.00121l0.007843,-0.025638l-0.030651,-0.028904l0.003464,-0.034845l0.097004,-0.080143l0.118417,-0.027682l0.046407,0.003999l0.053436,0.037622l0.041333,0.013599l0.135354,0.003823l0.090076,0.034845l0.252905,0.181194l0.024251,0.06969l0.171923,0.07332l0.070633,0.000166l0.100424,-0.028188l0.04855,0.012244l0.034596,0.026085l-0.006929,0.045298l0.03118,0.066205l0.017623,0.01032l0.010922,-0.011887l0.002635,-0.043732l0.038109,-0.073174l0.086611,-0.020907l0.038109,-0.045298l0.024251,-0.104535l0.027716,-0.020907l-0.006929,-0.055752l-0.045038,-0.038329l-0.013641,-0.043012l0.044821,-0.207872l0.090473,-0.156971l0.043137,-0.023666l0.072549,-0.005916l0.007843,-0.019721l-0.017548,-0.019965l-0.064805,-0.035097l-0.034644,-0.062721l0.010393,-0.174225l0.09354,-0.247399l0.050319,-0.038426l0.011765,-0.041415l-0.006652,-0.181496l-0.045038,-0.062721l-0.001251,-0.033853l0.035896,-0.129918l0.038109,-0.038329l0.041573,-0.188163l-0.034644,-0.135895l-0.006929,-0.13938l0.041573,-0.059236l0.010393,-0.121957l0.041573,-0.066205l0.010393,-0.13938l-0.034644,-0.125442l0.058896,-0.278759l0.038109,-0.052267l0.003464,-0.045298l-0.034644,-0.045298l-0.013858,-0.111504l0.03118,-0.087112l0.080119,-0.047753l0.012394,-0.019549l-0.00417,-0.01981l-0.04677,-0.010453l-0.048502,-0.041814l0.003464,-0.167256l0.058896,-0.195132l0.103933,-0.195132l0.003737,-0.035668l-0.017915,-0.0287l-0.152115,-0.092435l-0.100469,-0.121957l-0.06236,-0.142864l-0.051967,-0.076659l-0.020787,-0.212554l0.027716,-0.156802l0.159365,-0.24043l0.183616,-0.191647l0.117791,-0.052267l0.06236,-0.083628v-0.083628l0.03118,-0.055752l0.045038,-0.045298l0.103933,-0.226492l0.020787,-0.118473l-0.03118,-0.052267h-0.045038l-0.038109,-0.052267v-0.045298l-0.041573,-0.094081l-0.045038,-0.017422l-0.069289,-0.059236l-0.045038,-0.184678l0.038109,-0.135895l-0.041573,-0.104535l-0.069289,-0.034845l-0.034644,-0.062721v-0.076659l0.017322,-0.055752l-0.013858,-0.038329l-0.051967,-0.017422l-0.100469,-0.097566l-0.005197,-0.09321l0.054565,-0.03136l0.018188,-0.02352l-0.028582,-0.049654l0.033778,-0.039201h0.09354l0.005197,-0.036587l-0.087205,-0.059962l-0.053105,-0.015825l-0.054565,0.013067l-0.03118,-0.013067l0.005197,-0.054881l-0.033778,-0.03136h-0.04677l-0.057163,-0.039201l0.002598,-0.049654l0.070155,-0.060107l-0.005197,-0.036587l-0.0707,-0.004259l-0.047059,0.023666l-0.048534,0.058994l-0.067557,-0.00784l-0.036377,-0.057494l-0.070155,-0.013067l-0.044172,0.02352h-0.06236l-0.018188,-0.03136l0.051967,-0.03136l0.130671,0.008647l0.04183,-0.026295l0.048358,-0.131314l-0.023385,-0.049654l0.059762,-0.096695l0.051213,-0.016842l0.027698,0.014154l0.025023,0.023595l0.098913,0.014841l0.033602,-0.017455l-0.021398,-0.038739l-0.02789,-0.012173l-0.07803,-0.001355l-0.075352,-0.060107l-0.06236,-0.002613l-0.103933,0.065334l-0.036377,-0.010453l0.026641,-0.064431l-0.000658,-0.02965l-0.04677,-0.020907l-0.054565,0.01568l-0.028582,0.075788l-0.054565,0.020907l-0.018188,-0.028747l0.046465,-0.054106l0.013763,-0.0395l0.002132,-0.081489l0.036393,-0.099889l0.028759,-0.020326h0.049175l0.038975,-0.028747l0.019038,-0.116585l-0.013072,-0.028925l-0.037147,-0.006066l-0.036377,0.03136l-0.01798,-0.006888l-0.010602,-0.021859l0.015831,-0.041249l-0.004766,-0.030606l-0.05004,-0.090173l-0.03118,0.005227l-0.01559,0.039201l-0.028582,0.01568l-0.10913,-0.018294l-0.032607,0.007969l-0.013072,0.026295l0.004972,0.05459l-0.010201,0.045331l-0.052159,0.059204l-0.034712,0.004364l-0.025547,-0.021496l0.011757,-0.122248l-0.069273,-0.130184l-0.062745,-0.057849l-0.145138,-0.097695l-0.083147,-0.020907l-0.103933,0.06969l-0.058896,-0.010453l-0.013858,-0.024391l0.017322,-0.03136l-0.010393,-0.038329l-0.034644,-0.010453l-0.017322,0.062721l0.013858,0.041814l-0.017322,0.010453l-0.027716,-0.013938l-0.017322,-0.03136l0.027716,-0.034845l0.017322,-0.076659l-0.017322,-0.052267l-0.093909,-0.028634l-0.044669,-0.027118l-0.03118,-0.045298h-0.048502l-0.034644,0.045298l-0.090076,-0.006969Z  M697.773346,299.200082l0.015536,-0.073198l0.082856,-0.057512l0.098392,0.015685l-0.005179,0.057512l-0.056964,0.078426l-0.077678,0.015685l-0.056964,-0.036599Z M690.266209,299.602668l0.107023,-0.045313l0.010357,-0.048798l-0.044881,-0.03137l-0.065595,0.003486l-0.05869,0.059255l0.006905,0.048798l0.044881,0.013942Z M694.655874,300.303273l0.051785,-0.015685l0.020714,-0.083654l-0.067321,-0.020914l-0.046607,0.026142v0.078426l0.041428,0.015685Z M695.380867,300.151649l0.067321,0.036599l0.119106,0.015685l0.005179,-0.036599l-0.051785,-0.020914l-0.020714,-0.073198l-0.072499,-0.03137l-0.056964,0.010457l-0.010357,0.062741l0.020714,0.036599Z M697.271029,299.869316l0.046607,0.020914l0.046607,-0.041827v-0.052284l-0.051785,-0.010457l-0.03625,0.03137l-0.005179,0.052284Z M696.421751,300.219618l0.088035,0.047056h0.072499l0.015536,-0.083654l0.005179,-0.094111l-0.041428,-0.026142l-0.046607,0.015685l-0.088035,-0.015685l-0.077678,0.015685l-0.031071,0.062741l0.020714,0.057512l0.082856,0.020914Z M696.903354,300.946365l0.113928,0.057512l0.056964,-0.03137l-0.005179,-0.067969l-0.051785,-0.067969l-0.129463,-0.047056l-0.046607,0.057512l0.062142,0.099339Z M696.758355,300.596063l0.113928,0.073198h0.062142l-0.020714,-0.083654v-0.052284h0.062142l0.020714,-0.036599l-0.051785,-0.026142l-0.010357,-0.099339l-0.03625,-0.041827l-0.113928,0.010457l-0.077678,0.047056l-0.010357,0.146395l0.062142,0.062741Z M697.47817,299.743835h0.031071l0.020714,-0.036599l-0.041428,-0.020914l-0.03625,0.020914l0.025893,0.036599Z M696.929247,300.773828l0.03625,-0.010457l-0.015536,-0.03137l-0.03625,-0.005228l-0.015536,0.036599l0.031071,0.010457Z M685.787361,307.852316l0.144999,0.132453h0.131189l0.096666,-0.097597l-0.027619,-0.160337l-0.11738,-0.097597l-0.110475,-0.013942l-0.151903,-0.069712l-0.089761,0.048798v0.104568l0.124285,0.153366Z M686.104977,302.763346l0.089761,0.034856l0.069047,-0.020914l-0.008943,-0.060417l-0.080819,-0.09992l-0.082856,-0.006971l-0.020714,0.05577l0.034524,0.097597Z M686.96116,302.916713l0.075952,0.027885l0.096666,-0.020914l0.110475,0.05577l0.069047,-0.027885l-0.027619,-0.069712l-0.138094,-0.034856l-0.062142,-0.05577h-0.096666l-0.055238,0.069712l0.027619,0.05577Z M687.147587,302.630894l0.075952,0.013942l0.034524,-0.05577l-0.022344,-0.06947l-0.053607,-0.021156l-0.055238,0.041827l0.020714,0.090625Z M687.589488,303.244359l0.041428,-0.048798l-0.020714,-0.181251l-0.062142,-0.013942l-0.027619,0.048798l0.041428,0.076683l0.027619,0.11851Z M687.596392,303.509264l0.075952,0.160337v0.160337l0.193332,0.202165l0.179522,0.027885l0.131189,0.062741l0.048333,0.104568l0.165713,0.209136l0.11738,0.027885l0.289997,-0.083654l0.33833,-0.013942l0.289997,0.041827l0.158808,0.125481l0.103571,0.181251l0.075952,0.034856l0.110475,-0.020914l0.303807,0.013942l0.186427,0.090625l0.172618,0.181251l0.131189,0.17428l0.434996,0.243992l0.131189,0.132453l0.165713,0.062741l0.138094,-0.006971l0.172618,0.034856l0.276188,0.202165l0.11738,0.181251l0.172618,0.076683l0.110475,0.076683l0.089761,0.041827h0.172618l0.110475,0.041827l0.069047,0.104568l0.110475,0.062741l0.200236,0.027885l0.110475,-0.069712l0.303807,-0.006971l0.45571,0.076683l0.379759,0.188222l0.310712,0.285819l0.283093,0.418271l0.075952,0.271876l0.172618,0.153366l0.214046,0.013942l0.227855,0.062741l0.186427,0.132453l0.11738,0.076683l0.237301,0.034977l0.085973,-0.003946l0.10942,-0.071019l0.082065,-0.023673l0.180146,0.013942l0.07929,0.032339l0.109606,0.094063l0.11738,0.034856l0.096666,-0.041827l0.103571,0.006971l0.044113,0.033258l0.059457,0.106165l0.103571,0.048798l0.158808,-0.05577l0.041428,-0.090625l0.000168,-0.079588l-0.138262,-0.268972l-0.021961,-0.105851l0.03577,-0.159055l0.144999,-0.306732l0.241665,-0.250963l0.11738,-0.034856l0.089761,-0.069712l0.027619,-0.083654l0.089761,-0.013942l0.069047,0.034856l0.075952,-0.020914l-0.000959,-0.040633l-0.040469,-0.070906l-0.062142,-0.034856l-0.048333,0.027885l-0.069047,-0.013942l0.006905,-0.083654l0.069047,-0.041827l0.034524,-0.111539l-0.075952,-0.076683l-0.089761,0.013942l-0.158808,-0.097597v-0.059255l-0.065595,-0.128967l-0.065595,-0.062741l-0.00923,-0.070002l0.029944,-0.048508l0.177173,-0.054075l0.029968,-0.043522l-0.013809,-0.090625l-0.063053,-0.094692l-0.061231,-0.023818l-0.087268,0.008036l-0.07154,-0.015007l-0.082856,-0.069712l-0.124285,-0.020914l-0.041764,-0.056133l-0.035171,-0.145984l0.000983,-0.488032l0.062142,-0.153366l0.165713,-0.188222l0.075952,-0.11851l0.027619,-0.202165l0.069047,-0.097597l0.062142,-0.209136v-0.132453l-0.027619,-0.062741l0.013426,-0.060127l0.214429,-0.246606l0.020714,-0.076683l0.365949,-0.515868l0.222165,-0.218237l0.157593,-0.200034l0.124285,-0.250963l0.171454,-0.262642l0.041665,-0.091242l0.007832,-0.113185l0.104524,-0.112944l0.157855,-0.075278l0.033044,-0.038128l-0.007559,-0.031341l-0.198103,-0.028127l-0.151903,-0.076683l-0.095491,0.006172l-0.081332,0.0353l-0.196031,0.174634l-0.448806,0.167309l-0.180457,0.009416l-0.061207,-0.016387l-0.041428,-0.076683l0.013809,-0.104568l-0.012778,-0.062765l-0.035554,-0.020889l-0.034524,0.048798l0.006905,0.202165l-0.165713,0.223078l-0.317616,0.188222l-0.102204,0.005688l-0.042795,-0.019631l-0.048333,-0.083654l-0.055238,-0.034856l-0.11738,0.013942l-0.131189,-0.020914l-0.131189,-0.146395l-0.096666,-0.013942l-0.075952,0.05577l-0.262379,0.076683l-0.227855,-0.013942l-0.103571,0.041827l-0.217414,0.26219l-0.092267,0.064415l-0.373885,0.119551l-0.269283,0.076683l-0.124285,-0.027885h-0.089761l-0.082856,0.062741l-0.310712,0.062741l-0.559281,-0.048798l-0.103571,0.020914l-0.214046,-0.020914l-0.11738,-0.05577l-0.303807,0.013942l-0.296902,0.146395l-0.300067,0.104132l-0.079692,0.000436l-0.393568,-0.083654l-0.276188,-0.132453l-0.200236,-0.167309v-0.165437l-0.019467,-0.043408l-0.091008,-0.035146l-0.069047,0.062741l-0.255474,0.020914l-0.172618,-0.097597l-0.006905,-0.139424l-0.034524,-0.132453l-0.124285,-0.069712l-0.013809,-0.069712l-0.089761,-0.041827l-0.068735,0.020865l-0.207453,0.160386l-0.132532,0.056617l-0.067704,-0.007818l-0.075952,-0.062741l-0.138094,-0.027885l-0.144999,0.090625l-0.089761,0.160337l0.062142,0.160337l-0.034524,0.083654l-0.46952,0.223078l-0.22095,-0.013942l-0.131189,-0.104568l-0.193332,-0.230049l-0.006905,-0.11851l-0.063868,-0.149881l-0.03625,-0.041827l-0.134642,-0.020914l-0.051785,0.047056l0.015344,0.044611l0.051977,0.0495l0.010357,0.083654l-0.122558,0.120253l-0.082856,-0.048798l-0.069047,0.020914l-0.006905,0.076683l-0.165713,0.104568l-0.096666,-0.013942l-0.089761,0.020914l-0.22095,0.313704l-0.027619,0.146395l-0.096666,0.160337l-0.013809,0.097597l0.044881,0.120253l-0.017382,0.188077l-0.027499,0.033258l-0.078014,0.020006l-0.032462,0.021821l-0.016387,0.06498l0.011724,0.039455l0.046091,0.021047Z M697.963802,306.238485l0.017262,-0.003486l0.001295,-0.022414l-0.025461,-0.040326h-0.034524l-0.013809,0.034856l0.055238,0.03137Z  M678.107909,278.697351v-0.026652l0.025769,-0.030206l0.044666,0.001777l0.013743,0.019545l-0.012025,0.026652l-0.036076,0.017768l-0.036076,-0.008884Z M677.805553,280.580778l0.096204,-0.071073l0.032641,-0.063965l-0.001718,-0.071073l-0.051538,-0.07818l-0.029205,-0.003554l-0.04982,0.040867l-0.04123,0.126154l0.017179,0.11194l0.027487,0.008884Z M678.699735,282.46154l-0.002577,0.026652l0.066999,0.031983l0.085037,0.010661l0.04123,-0.015991l-0.002577,-0.050639l-0.051538,-0.101279h-0.018038l-0.002577,0.034648l-0.038653,0.047974l-0.077307,0.015991Z M678.903309,281.560693l-0.005154,0.101279l0.110806,0.130596l0.087614,0.021322l0.139152,-0.015991l0.118537,0.029317l0.043807,-0.010661l0.012884,-0.05597l0.056692,-0.013326l0.061845,0.029317l0.046384,-0.007996l0.036076,-0.0613l0.056692,-0.00533l0.04123,0.053305h0.020615v-0.042644l0.043807,-0.039978l0.054115,0.010661l0.036076,0.101279l0.07473,0.093283l0.051538,0.029317l0.108229,0.002665l0.038653,-0.039978l-0.012884,-0.085287l-0.121114,-0.082622l0.002577,-0.037313l0.090191,-0.039978l0.038653,-0.058635l0.018038,-0.261192l-0.030923,-0.079957l-0.059268,-0.031983l-0.038653,0.010661l-0.087614,0.127931l-0.030923,0.101279l-0.056692,0.0613l-0.133998,-0.002665l-0.097922,-0.077292l-0.092768,-0.047974l-0.015461,0.013326l0.023192,0.039978l-0.018038,0.069296l-0.079884,0.0613l-0.07473,-0.00533l-0.069576,-0.071961l-0.105653,-0.018657l-0.203574,0.034648l-0.077307,0.071961Z M679.636864,283.567609l-0.010308,0.063965l0.024051,0.071073l0.048102,0.007107l0.054974,-0.03909l0.003436,-0.071073l-0.051538,-0.049751l-0.068717,0.017768Z M681.787709,283.457446l-0.037794,0.021322l0.006872,0.035536l0.037794,0.017768l0.037794,0.085287l0.092768,0.071073l0.04123,-0.014215v-0.095948l-0.089332,-0.188343l-0.051538,-0.035536l-0.027487,0.017768l-0.010308,0.085287Z M682.583109,283.975389l0.005154,0.05597l0.025769,0.029317h0.023192l0.005154,-0.031983l-0.010308,-0.05597l-0.020615,-0.007996l-0.028346,0.010661Z M693.330308,290.686543l0.020849,0.020849l0.026061,-0.013031l0.031274,-0.072972l-0.018243,-0.020849l-0.04691,0.013031l-0.013031,0.072972Z M694.054812,291.588263l0.036486,0.028667l0.067759,0.002606l0.112064,-0.03388l0.031274,-0.03388l-0.026061,-0.015637l-0.062547,0.013031l-0.044304,-0.018243l-0.078184,-0.005212l-0.03388,0.020849l-0.002606,0.041698Z M692.762172,290.868972l0.072972,0.041698l0.216309,-0.002606l0.039092,-0.023455l0.052123,-0.010425l0.028667,-0.067759l-0.007818,-0.072972l-0.072972,-0.041698l-0.153762,-0.023455l-0.054729,-0.026061h-0.072972l-0.049516,0.023455l-0.028667,0.093821l0.031274,0.109457Z M691.118573,290.5267l0.062547,-0.013031l0.044304,-0.039092l-0.013031,-0.039092l-0.031274,0.002606l-0.020849,0.044304l-0.049516,0.018243l0.007818,0.026061Z M691.259304,290.521488l0.03388,0.007818l0.020849,-0.018243l-0.007818,-0.023455l-0.028667,-0.005212l-0.023455,0.018243l0.005212,0.020849Z M689.005002,289.906441l0.018243,0.007818l0.03388,-0.020849l0.023455,-0.04691l-0.007818,-0.054729l-0.018243,-0.007818l-0.036486,0.028667v0.044304l-0.013031,0.049516Z M689.771204,289.734437l0.036486,-0.002606l0.026061,-0.015637v-0.023455l-0.036486,-0.015637l-0.026061,0.010425l-0.018243,0.028667l0.018243,0.018243Z M689.369861,290.023717l0.03388,0.070365l0.036486,0.005212l0.023455,-0.044304l-0.007818,-0.086002l0.041698,-0.062547l0.091215,-0.036486l-0.005212,-0.020849h-0.078184l-0.101639,0.065153l-0.03388,0.057335v0.052123Z M690.27245,268.271098l0.043435,-0.022916l0.10077,-0.017628l0.119882,-0.005288l0.019112,-0.017628l-0.012162,-0.012339l-0.158105,0.005288l-0.116407,0.03173l-0.019112,0.026441l0.022586,0.012339Z M691.002166,268.339846l0.031274,-0.001763l0.005212,-0.015865l-0.017374,-0.012339h-0.020849l-0.012162,0.014102l0.013899,0.015865Z M691.043864,268.262284l0.024324,0.001763l0.013899,-0.008814l0.005212,-0.017628l-0.015637,-0.010577l-0.024324,0.003526l-0.013899,0.017628l0.010425,0.014102Z M690.698118,268.186486l0.059072,-0.005288l0.005212,-0.021153l-0.031274,-0.022916l-0.038223,0.007051l-0.008687,0.01939l0.013899,0.022916Z M690.69638,268.230555l0.076446,0.017628l0.010425,-0.012339l-0.055597,-0.028204l-0.04691,-0.007051l-0.005212,0.014102l0.020849,0.015865Z M690.635571,268.251708l0.050385,0.014102l0.015637,-0.008814l-0.039961,-0.024679l-0.026061,-0.005288l-0.015637,0.007051l0.015637,0.017628Z M687.166813,271.174361l0.020849,-0.021153l0.044304,0.013221l0.041698,0.058171l-0.007818,0.042306l-0.026061,0.005288l-0.044304,-0.03173l-0.028667,-0.066103Z M687.213723,271.362094l0.002606,0.060815l0.018243,-0.002644l0.018243,-0.060815l0.026061,-0.005288l0.057335,0.050239l0.013031,-0.013221l-0.062547,-0.071392l-0.036486,-0.013221l-0.020849,0.010577l-0.015637,0.04495Z M687.703675,271.719053h0.031274l0.026061,-0.015865l-0.002606,-0.023797l-0.03388,-0.013221l-0.026061,0.005288l-0.010425,0.026441l0.015637,0.021153Z M686.729148,270.254351l0.005197,0.018454l0.025983,0.005272l0.025983,-0.015817v-0.018454l-0.03118,-0.005272l-0.025983,0.015817Z M687.812549,271.612057l0.029012,0.019211l0.033596,0.006296l-0.003408,-0.014639l-0.036858,-0.025665l-0.026418,-0.004271l0.004075,0.019068Z M687.600391,269.320658l-0.020787,-0.026362l-0.012126,0.005272l0.006929,0.03515l0.019054,0.01406l0.01559,-0.003515l-0.008661,-0.024605Z M687.919531,269.218588l0.014328,0.014257l0.021288,-0.010071l0.010506,-0.019433l-0.012056,-0.020591l-0.023574,0.003694l-0.010492,0.032144Z M687.397204,269.216362l0.013922,0.020513l0.010875,-0.002213l0.004687,-0.01774l-0.01271,-0.016664l-0.011079,0.002254l-0.005695,0.01385Z M687.429889,269.27597l0.001948,0.024828l0.010509,0.003601l0.012802,-0.012986l-0.002795,-0.020879l-0.010706,-0.003668l-0.011757,0.009105Z M687.429889,269.27597l0.001948,0.024828l0.010509,0.003601l0.012802,-0.012986l-0.002795,-0.020879l-0.010706,-0.003668l-0.011757,0.009105Z M687.51195,269.283688l0.027544,0.004815l0.009983,-0.011941l-0.019262,-0.019369l-0.021752,0.001813l-0.010168,0.015067l0.013655,0.009616Z M687.641997,269.331091h0.020705l0.008282,-0.016806l-0.016564,-0.016806l-0.028988,0.0014l-0.005521,0.018206l0.022086,0.014005Z M687.493447,269.243834l0.013899,-0.010577l-0.005212,-0.012339l-0.019112,0.005288l-0.003475,0.014102l0.013899,0.003526Z M687.389246,269.397019l-0.006923,0.012165l0.00733,0.012404l0.014438,-0.002897l0.008122,-0.011463l-0.002534,-0.009594l-0.020433,-0.000615Z M687.249676,269.42317l0.015604,-0.001385l0.006608,-0.014545l-0.009545,-0.008126l-0.015434,0.003364l-0.008558,0.014719l0.011325,0.005974Z M687.9543,271.672329l-0.013201,-0.012622l-0.032001,0.024851l-0.004219,0.02079l0.022229,0.007334l0.019328,-0.015392l0.007864,-0.024961Z M687.754803,269.271885l0.022146,0.003108l0.024754,-0.012203l-0.004184,-0.011332l-0.027502,-0.004564l-0.024754,0.012203l0.009541,0.012788Z M687.295912,269.459593l0.0125,-0.004227l0.005208,-0.010569l-0.004167,-0.010569l-0.013542,-0.003171l-0.010417,0.006341l-0.003125,0.015853l0.013542,0.006341Z M687.817849,271.776918h0.019608l0.010457,-0.01061l-0.002614,-0.017241l-0.011765,-0.007958l-0.020915,0.005305l-0.006536,0.014589l0.011765,0.015915Z M686.711609,270.185147l0.036486,-0.015865l0.028667,-0.103121l-0.015637,-0.060815l-0.031274,0.002644l-0.026061,0.047594l-0.015637,0.113698l0.023455,0.015865Z M687.152044,269.558487l0.057335,-0.005288l0.075578,0.010577l0.010425,-0.026441l-0.049516,-0.04495l-0.099033,-0.013221l-0.04691,0.026441l0.002606,0.042306l0.049516,0.010577Z M687.399627,269.476518l0.054729,-0.010577l0.054729,-0.047594l0.018243,-0.047594h-0.023455l-0.013031,0.026441l-0.04691,0.037018l-0.04691,0.005288l-0.020849,0.015865l0.023455,0.021153Z M687.297988,269.619302l-0.151155,0.282923l-0.04691,0.04495l-0.005212,0.026441l0.044304,0.005288l0.026061,-0.015865l0.007818,-0.058171l0.059941,-0.10841l0.104245,-0.163936l0.070365,-0.068748l-0.020849,-0.021153l-0.03388,0.007932l-0.054729,0.068748Z M687.066042,270.177215l-0.015637,0.081968l-0.013031,0.148072l-0.026061,0.010577v0.037018l0.026061,0.005288l0.020849,-0.013221l0.020849,-0.193022l0.018243,-0.079324l0.052123,-0.137495l-0.005212,-0.023797l-0.020849,0.002644l-0.057335,0.161292Z M687.944308,271.758409l-0.028667,0.013221l-0.044304,0.042306v0.026441l0.023455,-0.002644l0.072972,-0.055527l0.020849,-0.023797l0.002606,-0.029086l-0.026061,-0.013221l-0.018243,0.013221l-0.002606,0.029086Z M687.360535,271.315381l0.010425,0.026441l0.039961,0.035255l0.005212,-0.014102l-0.036486,-0.044069l-0.019112,-0.003526Z M687.499528,271.449351l0.097295,0.059934l0.00695,-0.008814l-0.092083,-0.08285l-0.06081,-0.029967l-0.012162,0.007051l0.06081,0.054645Z M687.671533,271.560405l0.072972,0.028204l0.012162,-0.008814l-0.064285,-0.042306l-0.069497,-0.026441l-0.005212,0.010577l0.05386,0.038781Z M698.860515,284.499592l-0.00695,0.057335l-0.020849,0.024324l-0.026061,0.003475l-0.008687,-0.033011l0.036486,-0.054729l0.026061,0.002606Z M698.907425,284.512622l0.044304,-0.03388l-0.007818,-0.018243h-0.020849l-0.031274,0.023455l-0.005212,0.018243l0.020849,0.010425Z M698.946517,284.442257l0.031274,-0.007818l0.015637,-0.023455l-0.018243,-0.010425l-0.036486,0.007818l-0.015637,0.028667l0.023455,0.005212Z M699.777872,284.046125l-0.026061,0.010425l-0.007818,0.020849l0.018243,0.015637l0.020849,-0.013031l0.010425,-0.020849l-0.015637,-0.013031Z M705.006012,292.013449l0.051878,0.005577l0.020849,-0.013123v-0.020997l-0.031274,-0.010499l-0.039092,0.005249l-0.018243,0.018372l0.015881,0.01542Z M708.028878,293.725035l-0.013031,-0.018372h-0.026061l-0.010425,0.020997l0.013031,0.018372l0.023455,-0.002625l0.013031,-0.018372Z M705.311988,291.889353l0.016614,0.006972l0.013845,-0.001394l0.002769,-0.013943l-0.016614,-0.00976l-0.017999,0.002789l0.001385,0.015338Z  M667.508779,267.283502l0.097,0.118l0.016,0.069l0.084,0.083l0.031,0.092l0.056,0.042l0.059,-0.005l0.074,-0.08l0.036,-0.003l0.041,0.054l0.079,0.031l0.041,-0.015l0.003,-0.057l0.074,-0.065l0.094,-0.01l0.041,0.018l0.039,-0.01l0.041,-0.059l0.012,-0.067l0.057,-0.018l0.061,0.041l0.043,0.002l0.049,-0.015l0.061,0.018l0.029,0.033l0.043,0.016l0.044,-0.008l0.162,-0.098l0.082,-0.015l0.031,-0.031l0.01,-0.07l0.074,-0.054l0.105,-0.034l0.043,0.029l0.031,-0.011l-0.015,-0.1l0.041,-0.057l0.092,-0.018l0.03,0.034l0.092,0.028l0.123,-0.008l0.087,-0.028l0.051,0.01l0.067,0.07l0.064,0.023l0.03,0.036l0.005,0.067l0.039,0.028h0.054l0.063,-0.061l0.054,0.002l0.077,0.065l0.061,0.007l0.069,-0.023l0.133,0.039l0.054,-0.023l0.008,-0.042l-0.021,-0.051l0.023,-0.119l0.085,-0.1l0.076,-0.029h0.21l0.072,-0.028l0.075,-0.143l0.041,-0.027l0.01,-0.035l-0.027,-0.161l0.02,-0.062l0.072,-0.034l0.184,-0.028l0.051,-0.041l0.003,-0.055l0.052,-0.035h0.047l0.034,-0.041l-0.013,-0.058l0.02,-0.052l0.024,-0.024l0.004,-0.048l-0.069,-0.169l-0.105,-0.11l-0.089,-0.027l-0.014,-0.048l0.12,-0.141l0.082,-0.041l0.057,0.017l0.127,-0.007l0.082,-0.048l0.047,-0.107l0.051,-0.038l0.048,-0.006l0.034,-0.045l0.014,-0.059l0.041,-0.027l0.106,-0.01l0.04,-0.052l-0.017,-0.079l-0.058,-0.028l0.004,-0.048l0.051,-0.038l0.061,-0.006l0.164,-0.121l0.099,-0.01l0.123,-0.048l0.061,0.014l0.055,0.051l-0.014,0.11l0.031,0.083l0.003,0.072l-0.017,0.041l-0.003,0.093l0.003,0.12l-0.034,0.083l-0.055,0.02l-0.027,0.09l0.021,0.072l0.051,0.041v0.055l-0.021,0.031l0.007,0.028l0.099,0.072l0.15,0.045l0.075,0.051l0.026,0.079l0.09,0.079l0.034,0.073l0.068,0.048l0.024,0.079l0.051,0.051l0.14,0.031l0.201,0.09l0.12,-0.052l0.058,0.017l0.051,0.045l0.075,0.014l0.054,-0.014l0.14,0.072l0.027,0.086l-0.098,0.144l-0.082,0.038l-0.058,0.131l0.027,0.021l0.106,0.006l0.201,0.145l0.034,-0.004l0.041,0.024l-0.003,0.11l0.098,0.124l0.031,0.169l-0.061,0.092l0.003,0.062l0.027,0.007l0.072,-0.048l0.085,0.017h0.072l0.037,0.028l0.004,0.041l0.085,0.024l0.062,-0.065l0.04,-0.162l0.035,-0.041l0.068,-0.031l0.037,-0.086l-0.126,-0.11l-0.078,-0.021l-0.052,-0.072l-0.008,-0.077l-0.061,-0.031l0.01,-0.059l0.089,-0.049l0.013,-0.096l-0.064,-0.08l0.031,-0.098l0.125,-0.062l0.059,0.006l0.033,-0.029l0.034,-0.09l-0.047,-0.113l0.023,-0.047l0.113,-0.039l0.067,-0.074l0.115,-0.091l0.069,-0.018l0.051,-0.043l0.007,-0.088l0.082,-0.114l0.085,-0.038l0.023,-0.034l0.036,-0.142l0.092,-0.131l0.064,-0.165l-0.018,-0.103l-0.049,-0.026l-0.015,-0.049l0.028,-0.057l-0.028,-0.149l-0.095,-0.062l-0.02,-0.054l0.025,-0.039l0.056,-0.015l0.029,-0.057v-0.096l0.048,-0.064l0.123,-0.034l0.113,0.003l0.03,-0.01l0.031,0.018l0.005,0.067l0.061,0.062l0.077,0.036l0.049,-0.016l0.023,-0.087l0.105,-0.073l0.025,0.013l-0.013,0.083l-0.033,0.002l0.003,0.021l0.041,0.013l0.002,0.036l-0.02,0.134v0.116l0.03,0.121l-0.015,0.039l0.01,0.039l0.113,0.051l0.064,0.078l0.013,0.072l0.102,0.111l0.23,0.064l0.049,0.029l0.074,0.002l0.092,-0.067l0.054,0.005l0.041,0.031l0.066,0.003l0.049,-0.065l0.005,-0.16l0.043,-0.049l0.044,0.003l0.066,0.059l0.049,0.005l0.041,-0.036l0.13,-0.038l0.026,-0.036l0.076,-0.021l0.052,0.005l0.058,-0.018l0.041,-0.054h0.051l0.044,0.057l0.031,-0.003l0.028,-0.033l0.056,-0.006l0.113,0.091l0.051,0.01l0.015,0.028l-0.051,0.065l-0.005,0.044l0.048,0.059l0.008,0.051l-0.023,0.029l0.018,0.046l0.128,0.042l0.097,0.064l-0.003,0.08l-0.04,0.049l0.015,0.039l0.072,0.025l0.066,-0.028l0.087,0.003l0.046,0.012l0.064,-0.023l0.031,-0.062l0.081,-0.051l-0.002,-0.06l-0.128,-0.185l-0.082,-0.047l-0.046,-0.092l0.026,-0.088l0.048,-0.013l0.023,-0.031l-0.002,-0.069l0.043,-0.042l0.057,0.003l0.023,-0.023l-0.029,-0.122l-0.084,-0.061l-0.054,0.005l-0.076,0.038l-0.046,-0.005l-0.034,-0.02h-0.033l-0.026,-0.016l-0.01,-0.044l-0.038,-0.013l-0.021,-0.031l0.049,-0.067l-0.008,-0.046l-0.023,-0.046l-0.002,-0.129l0.023,-0.031l0.005,-0.052l-0.028,-0.033l0.015,-0.031l0.059,-0.018l0.077,-0.122l0.041,-0.012l0.017,-0.037l-0.015,-0.054l0.01,-0.059l0.026,-0.015l0.082,0.012l0.199,-0.064l0.08,0.008l0.048,-0.005l0.056,-0.06l0.031,0.008l0.01,0.046l0.039,0.037l0.002,0.041l-0.046,0.054l0.005,0.082l0.036,0.021l0.049,-0.021l0.071,0.039l0.039,0.075l0.056,0.018l0.028,-0.018l0.033,0.01l0.011,0.026l0.03,0.003l0.051,-0.042l0.093,0.005l0.04,0.031l0.041,0.006l0.039,-0.026l0.046,0.005l0.074,0.072l0.038,-0.005l0.062,-0.059l0.046,-0.158l0.013,-0.139l-0.031,-0.046l-0.09,-0.105l-0.049,-0.008l-0.084,0.021l-0.041,-0.021l-0.046,-0.093l0.002,-0.059l-0.033,-0.047l0.005,-0.028l0.049,-0.018l0.071,-0.111l-0.035,-0.069l0.007,-0.042l0.105,-0.062l0.021,-0.074l-0.052,-0.075l0.011,-0.054l0.066,-0.039l0.053,-0.161l0.04,-0.006l0.059,0.035l0.118,0.018l0.073,-0.018l0.025,0.014l-0.014,0.028l0.028,0.014l0.111,-0.038l0.073,-0.06l0.198,-0.062l0.09,0.007l0.052,0.042l-0.003,0.048l0.076,0.049l0.129,0.028l0.041,0.045l-0.041,0.087l-0.063,0.028l-0.01,0.048l0.066,0.028l0.087,-0.017l0.034,-0.032l0.042,0.004l0.066,0.083l0.066,0.011l0.031,-0.025l0.077,0.018l0.052,0.048l0.049,0.011l0.076,-0.032l0.087,0.011l0.076,-0.024l0.174,0.02l0.056,-0.017l0.041,0.01l0.039,-0.017l0.059,-0.135l0.114,-0.08l0.014,-0.042l-0.034,-0.066l0.013,-0.08l0.077,-0.139l0.014,-0.125l0.062,-0.07l0.091,-0.003l0.083,-0.052l0.007,-0.101l0.063,-0.035l0.08,0.011l0.177,-0.028l0.121,-0.052l0.164,-0.035l0.135,0.014l0.084,0.073l0.086,0.028l0.119,-0.025l0.069,-0.107l0.056,-0.028l0.031,-0.038l0.066,-0.004l0.125,0.08l0.08,0.014l0.09,-0.017l0.105,-0.087h0.073l0.069,0.048l0.108,0.035h0.097l0.09,0.035l0.039,0.066l0.073,0.01l0.052,-0.014l0.048,-0.062l0.073,-0.021l0.136,-0.007l0.177,-0.108l0.063,-0.013l0.146,-0.087l0.059,0.003l0.059,-0.021l0.048,-0.038l0.091,-0.01l0.069,0.017l0.042,-0.017l0.017,-0.042l0.052,-0.017l0.066,0.017l0.039,-0.017l0.038,-0.06l0.049,-0.013l0.079,0.02l0.108,-0.027l0.115,-0.056h0.069l0.122,0.059l0.003,0.049l-0.048,0.034l-0.025,0.039l-0.006,0.059l-0.039,0.066l-0.069,0.007l-0.045,0.028h-0.039l-0.041,-0.021l-0.039,0.003l-0.066,0.059l-0.006,0.052l0.041,0.042l0.021,0.066l-0.01,0.063l0.014,0.038l0.055,0.028l0.049,0.052l-0.014,0.041l-0.049,0.063l0.004,0.035l0.045,0.014h0.09l0.052,0.045v0.052l0.042,0.049h0.042l0.045,-0.056l0.059,-0.007l0.063,0.024l0.076,0.087v0.052l0.017,0.046l0.049,0.02l-0.01,0.039l-0.063,0.059l-0.007,0.048l0.028,0.035l-0.035,0.059l0.021,0.038l0.083,-0.007l0.115,0.028l0.063,0.042l0.097,0.254l0.198,0.125l0.108,0.003l0.027,0.011l0.025,0.031l0.045,0.014l0.042,-0.014l0.073,0.017l0.097,0.08l0.08,0.021l0.188,-0.024l0.059,0.01l0.027,0.028l0.049,0.007l0.07,-0.035l0.118,0.028l0.076,0.062l0.049,0.004l0.055,-0.045l0.115,0.014l0.066,0.055l0.063,0.025l0.041,-0.018l0.028,0.028l-0.007,0.049l0.031,0.041l0.084,-0.01h0.24l0.111,0.028l0.222,0.014l0.063,0.027h0.1l0.087,-0.027l0.247,0.038l0.139,0.08l0.087,0.021l0.073,0.066l0.066,0.007l0.139,-0.028l0.08,0.01l0.024,0.035l0.038,-0.003l0.063,-0.077l0.094,-0.007l0.021,-0.035h0.069l0.07,0.032l0.024,0.052h0.212l0.094,-0.028l0.038,0.014l0.021,0.059l0.055,0.017l0.052,-0.031l0.06,0.014l0.031,0.045l0.042,0.011l0.059,-0.025l0.125,0.018l0.163,0.083l0.059,0.01l0.094,-0.01l0.014,0.074l-0.035,0.034l-0.003,0.084l-0.032,0.04l-0.01,0.044l0.007,0.051l-0.021,0.043l-0.111,0.007l-0.066,-0.023l-0.167,0.023l-0.073,0.064l-0.021,0.105l-0.194,0.09l-0.049,0.041l-0.139,0.054l-0.104,-0.004l-0.021,0.031l0.038,0.111l-0.031,0.037l-0.049,-0.004l-0.045,0.031v0.047l-0.049,0.037l-0.08,0.01l0.007,0.037l0.042,0.03l0.007,0.091l0.038,0.081l0.056,0.034l-0.011,0.054l-0.02,0.044l0.034,0.037l0.077,-0.017l0.045,-0.054l0.104,-0.01l0.136,0.044l0.052,-0.007l0.111,0.054l0.021,0.074l0.059,0.01l0.066,-0.024l0.115,0.004l0.121,0.043l0.011,0.054l-0.042,0.044l-0.031,0.081l-0.198,0.165l-0.08,0.081l-0.108,0.033l-0.049,0.064l-0.1,0.021l-0.014,0.037l0.024,0.04l-0.028,0.108l-0.073,0.04l0.004,0.041l0.073,0.084l0.125,0.074l0.121,-0.02l0.039,-0.061l0.069,-0.013l0.049,0.03l0.041,-0.003l0.053,-0.027l0.031,0.03l-0.031,0.162l0.007,0.05l-0.101,0.162l-0.045,0.023l-0.032,0.054l-0.007,0.061l-0.041,0.077l0.014,0.054l0.055,0.037l0.031,0.098l0.084,0.044l0.128,0.01l0.122,0.043l0.215,0.135l0.153,0.047l0.146,0.152l0.025,0.108l0.1,0.128l0.191,0.111v0.03l-0.159,0.101l-0.07,0.094l-0.149,0.017l-0.125,-0.013l-0.122,-0.058l-0.083,0.017l-0.007,-0.051l0.015,-0.03l0.072,-0.011l0.121,0.034l0.059,-0.009l-0.002,-0.025l-0.088,-0.102l-0.063,-0.023l-0.005,-0.039l0.033,-0.023l0.002,-0.063l-0.07,-0.108l-0.234,-0.225l-0.172,-0.131l-0.071,-0.028l-0.124,-0.019l-0.085,-0.041l-0.035,-0.042l-0.031,0.005l-0.049,0.092l-0.019,0.084l0.012,0.044l0.108,0.062l-0.002,0.021l-0.073,0.009l-0.142,0.076l-0.076,0.012l-0.046,0.025l-0.071,0.07l-0.075,0.034l-0.154,0.005l-0.026,-0.016l0.008,-0.017l0.098,-0.002l0.068,-0.055l0.048,-0.003l0.011,-0.028l-0.026,-0.055l-0.077,-0.041l-0.337,-0.105l-0.198,-0.011l-0.127,-0.04l-0.047,-0.055l-0.087,-0.011l-0.059,0.034l-0.101,0.035l-0.071,-0.012l-0.048,0.019l-0.004,0.067l-0.049,0.044l-0.059,0.013l-0.05,0.079v0.058l0.026,0.079l0.05,0.006l0.152,-0.064l0.022,-0.03l0.023,0.004l0.002,0.035l-0.115,0.106l-0.033,0.049l-0.024,0.078l-0.044,0.031l-0.132,0.027l-0.134,0.002l-0.127,0.028l-0.005,-0.021l0.03,-0.023l-0.011,-0.03l-0.048,-0.035l-0.019,0.008l-0.009,0.062l-0.028,0.044l-0.177,0.046l-0.073,0.037l-0.083,0.067l-0.327,0.159l-0.118,0.088l-0.139,0.067l-0.174,0.056l-0.257,0.113l-0.233,0.109l-0.254,0.095l-0.076,0.043l-0.045,0.042l-0.042,-0.004l-0.021,-0.038l0.021,-0.085l0.087,-0.074l0.08,-0.028l0.069,0.01l0.24,-0.063l0.049,-0.046l0.021,-0.056l0.09,-0.039h0.087l0.035,-0.046l-0.021,-0.035l-0.073,-0.007l-0.094,0.032l-0.07,0.052h-0.045l-0.076,-0.123l-0.101,-0.095h-0.066l-0.024,0.025l0.014,0.031l-0.018,0.025l-0.059,0.007l-0.073,0.074l-0.007,0.06l-0.048,0.003l-0.066,-0.052l-0.046,0.007l-0.01,0.042l-0.052,0.035l-0.063,0.004l-0.041,0.035l-0.004,0.039l-0.045,0.031l-0.097,0.018l-0.101,0.039l-0.063,0.137l-0.038,0.145l-0.01,0.187l-0.035,0.06l-0.09,0.053l-0.046,-0.011l-0.02,-0.102l-0.049,-0.053l-0.024,0.025l0.007,0.063l0.048,0.102l-0.01,0.071l-0.118,0.077l-0.039,0.06l-0.048,0.004l-0.011,0.028l0.032,0.032l0.038,0.091l0.052,0.046l0.056,-0.003l0.073,-0.071l0.034,0.014l0.021,0.085l-0.007,0.042l-0.031,0.025l0.003,0.035l0.046,0.028l0.055,0.166l0.063,0.035l0.045,-0.017v-0.064l-0.038,-0.046l0.031,-0.042l0.083,-0.035l0.042,0.01l0.028,0.106l0.073,0.113v0.063l0.003,0.187l0.042,0.11l-0.024,0.01l-0.059,-0.091l-0.021,-0.082l-0.032,-0.003l-0.034,0.053l-0.073,0.035l-0.032,0.081l0.056,0.074l0.16,0.035l0.017,0.043l-0.031,0.007l-0.063,-0.021l-0.076,0.01l0.014,0.043l0.146,0.038l0.014,0.043l-0.077,0.112l-0.007,0.085l0.028,0.123l0.042,-0.007l0.066,-0.102l0.066,-0.021l0.059,0.011l0.035,-0.025l0.003,-0.049l0.059,-0.018l0.073,0.039l0.066,0.109l-0.031,0.07l0.038,0.039l0.15,0.004l0.031,0.042l-0.014,0.24l-0.056,0.053l-0.01,0.06l0.028,0.063l-0.052,0.088l-0.063,-0.003l-0.059,-0.036l-0.003,-0.052l0.017,-0.036v-0.091l-0.052,-0.032l-0.063,0.032l-0.021,0.109l0.021,0.197l0.038,0.06l-0.017,0.064l-0.059,0.053l-0.139,0.017l-0.028,-0.021l0.028,-0.018l0.087,-0.003l0.017,-0.039l-0.125,-0.099l-0.153,-0.084l-0.097,0.007l-0.056,0.042l-0.007,0.039l0.028,0.021v0.053l-0.066,0.127l-0.045,0.18l-0.007,0.197l0.028,0.169l0.045,0.11l0.014,0.264l-0.021,0.18l0.014,0.219l0.101,0.306l0.076,0.346l0.087,0.303l0.139,0.282l0.167,0.176l0.139,0.117l0.132,0.144l0.156,0.166l0.052,0.01h0.042l0.042,0.025l0.108,0.155l0.253,0.215l0.139,0.081l0.243,0.032l0.115,0.046l0.285,0.162l0.087,0.014l0.313,0.265l0.118,0.06l0.247,0.218l0.368,0.286l0.257,0.183l0.358,0.208l0.316,0.145l0.104,0.01l0.059,-0.039l0.063,-0.014l0.111,0.053l0.09,0.092l0.021,0.084l0.046,0.032l0.163,0.102l-0.018,0.067l0.028,0.17l0.19,0.364l0.153,0.387l0.107,0.163l0.245,0.613l0.078,0.122l0.045,0.128l0.005,0.097l0.068,0.276l0.088,0.289l0.099,0.193l0.029,0.128l0.039,0.179l0.099,0.277l0.133,0.276l0.177,0.274l0.271,0.357l0.245,0.278l0.321,0.271l0.279,0.196l0.153,0.081l0.094,0.086l0.011,0.047l0.041,0.054l0.011,0.042l0.266,0.227l0.02,0.057l0.071,0.073l0.25,0.159l0.258,0.107l0.146,0.057l0.034,-0.002l0.026,0.021l0.026,0.177l-0.01,0.075l0.018,0.073l0.13,0.094l0.11,0.044l0.297,0.159l0.193,0.071l0.182,0.034l0.096,0.047l0.204,0.156l0.083,0.083l0.104,0.045l0.224,0.057l0.222,0.018l0.326,0.003l0.101,0.013l0.086,0.052l0.092,0.018l0.359,-0.023l0.389,-0.065l0.104,-0.037l0.112,0.005l0.115,0.045l0.151,0.015l0.505,-0.044l0.464,-0.078l0.06,-0.026l0.172,-0.011l0.138,0.032l0.12,0.065l0.044,0.054l0.045,0.019l0.031,-0.008l0.042,0.015l0.047,0.076l0.06,0.039l0.013,0.047l-0.013,0.039l0.01,0.078l0.036,0.037l0.011,0.099l0.015,0.044l-0.044,0.157l-0.039,0.023l-0.026,0.023l-0.005,0.042l-0.076,0.06l-0.068,0.013l-0.106,0.06l-0.079,0.076l-0.033,0.057l-0.11,0.091l-0.193,0.076l-0.034,0.026l-0.185,0.088l-0.062,0.05l-0.042,0.063l-0.023,0.132l0.034,0.193l0.078,0.185l0.14,0.123l0.193,0.118l0.313,0.147l0.083,0.024l0.097,0.049l0.06,0.042l0.104,0.05l0.052,0.011l0.073,0.034l0.065,0.063l0.063,0.039l0.047,0.005l0.013,-0.023h0.018l0.003,0.023l0.109,0.045l0.099,0.026l0.242,0.121l0.042,0.005l0.058,0.029l0.031,0.04l0.099,0.049l0.052,0.014l0.12,0.049l0.055,0.006l0.044,0.018l0.018,0.034l0.175,0.097l0.167,0.058l0.078,0.016l0.07,0.023l0.05,0.032l0.159,0.06l0.145,0.034l0.05,0.019l0.065,0.044l0.099,0.037l0.042,-0.013l0.023,0.003l0.019,0.026l0.033,0.005l0.013,-0.021l0.032,0.005l0.028,0.045l0.159,0.055l0.136,0.066l0.193,0.057l0.109,0.019l0.224,0.097l0.081,0.063l0.076,0.039l0.07,0.021l0.094,0.058l0.109,0.097l0.347,0.207l0.104,0.098l0.024,0.068l0.039,0.044l0.107,0.053l0.07,0.05l0.031,0.047l0.076,0.058l0.12,0.06l0.034,0.029l0.007,0.029l0.115,0.071l0.209,0.086l0.37,0.113l0.239,0.108l0.076,0.065l0.107,0.066l0.057,0.005l0.029,0.019l0.023,0.029l0.089,0.055l0.25,0.055l0.125,0.01l0.037,-0.002l0.026,0.01l0.052,0.076v0.037l-0.018,0.029l0.013,0.018l0.07,-0.015l0.133,0.013l0.021,0.026l-0.003,0.045l0.037,0.068l0.062,0.065v0.058l-0.021,0.053l0.003,0.047l0.063,0.068l0.044,0.024l0.036,0.036l0.011,0.037l0.164,0.139l0.078,0.048l0.06,0.002l0.037,0.019l0.026,0.034l0.028,0.015l0.042,0.003l0.081,0.045l0.018,0.039l0.057,0.055l0.045,0.019l0.143,0.141l0.036,0.011l0.034,0.034l0.011,0.037l0.096,0.11l0.052,0.021l0.167,0.178l0.099,0.063l0.097,0.124l0.02,0.078l0.045,0.1l0.002,0.05l-0.015,0.034l0.002,0.037l0.128,0.207l0.06,0.026l0.018,0.045l-0.015,0.039v0.04l0.033,0.034l-0.002,0.034l-0.112,0.089l-0.018,0.037l-0.011,0.095l-0.039,0.055l-0.083,0.036l-0.045,0.045l-0.008,0.053l-0.015,0.028l-0.034,0.027l-0.039,0.089l-0.06,0.22l-0.003,0.058l0.021,0.113l-0.008,0.094l-0.028,0.084v0.05l0.012,0.074l-0.052,0.084l-0.084,0.024l-0.073,-0.017l-0.059,-0.053l-0.173,-0.105l-0.084,-0.017l-0.115,-0.004l-0.173,-0.059l-0.4,-0.301l-0.094,-0.06l-0.184,-0.262l0.007,-0.025h0.042l0.041,-0.035v-0.105l-0.045,-0.091l-0.052,-0.024l-0.045,0.007l-0.014,-0.028l0.073,-0.049l0.045,-0.088l-0.003,-0.101l-0.101,-0.14l-0.167,-0.119l-0.059,-0.099l-0.005,-0.11l-0.076,-0.123l-0.125,-0.105l-0.086,-0.029l-0.511,-0.074l-0.226,-0.005l-0.467,0.047l-0.047,-0.016l-0.031,-0.039l-0.039,-0.024l-0.076,-0.005l-0.052,-0.021l-0.028,-0.044l-0.055,-0.021l-0.091,0.005l-0.071,-0.026l-0.039,-0.045l-0.143,-0.066h-0.065l-0.06,-0.031l-0.016,-0.032l-0.036,-0.015l-0.045,-0.008l-0.179,-0.113l-0.073,-0.008l-0.019,-0.026l0.013,-0.032l0.084,-0.026l0.054,-0.047l0.008,-0.092l-0.034,-0.039l0.019,-0.027l0.083,-0.01l0.081,0.018l0.088,-0.018l0.037,-0.047l-0.026,-0.05l-0.073,-0.008l-0.07,0.058l-0.024,-0.003l-0.023,-0.053l-0.055,-0.002l-0.055,0.052l-0.083,0.029l-0.102,-0.01l-0.06,-0.082l-0.044,0.013l-0.029,-0.013l-0.005,-0.048l-0.111,-0.038l-0.174,0.01l-0.24,0.095l-0.219,0.136l-0.215,0.214l-0.351,0.493l-0.149,0.256l-0.046,0.157l-0.17,0.269l-0.205,0.172l-0.118,0.154l-0.024,0.178l0.052,0.242l0.034,0.07l0.004,0.066l-0.101,0.144l-0.194,0.17l-0.167,0.219l-0.056,0.184l0.035,0.143l0.115,0.097l0.014,0.063l-0.025,0.09l0.021,0.09l0.153,0.112l0.224,0.068l0.373,0.011l0.052,-0.026l0.07,0.01l0.17,0.12l0.083,0.128l0.159,0.119l0.36,0.199l0.117,0.02l0.091,0.055l0.06,0.123l0.128,0.104l0.169,0.081l0.094,0.023l0.018,0.024l-0.062,0.083l-0.086,0.242l-0.034,0.243l0.047,0.114l0.086,0.112l0.008,0.05l-0.102,0.224l-0.024,0.138l0.027,0.058l0.039,0.026l0.026,0.036l-0.006,0.042l0.047,0.068l0.094,0.073l0.091,0.023l0.04,0.016l-0.006,0.018l-0.06,0.01l-0.067,0.091l-0.032,0.113l0.024,0.078l-0.021,0.041l-0.05,0.016l-0.148,0.123h-0.057l-0.034,-0.029l-0.141,-0.024l-0.081,0.037l-0.052,-0.018l-0.029,-0.06l-0.06,-0.032l-0.096,-0.005l-0.261,0.042l-0.302,0.102l-0.328,0.156l-0.224,0.159l-0.097,0.031l-0.07,0.055l-0.136,0.201l-0.015,0.057l-0.112,0.138l-0.006,0.063l0.037,0.047l0.049,0.01l0.016,0.023l-0.031,0.112l0.015,0.157l0.037,0.104l0.018,0.323l0.034,0.157v0.206l-0.052,0.099l-0.211,0.224l-0.133,0.107l-0.136,0.07l-0.182,0.052l-0.224,0.083l-0.144,0.146l-0.06,0.099l-0.294,0.339l-0.096,0.086l-0.034,0.058l-0.034,0.268l-0.029,0.052l-0.003,0.034l0.016,0.026l-0.104,0.242l-0.19,0.232l-0.071,0.026l-0.125,0.006l-0.06,0.018l-0.151,-0.005l-0.164,-0.037l-0.107,0.003l-0.214,0.041l-0.265,-0.005l-0.047,-0.023l-0.232,-0.102l-0.076,-0.055l-0.109,-0.203l0.002,-0.068l0.05,-0.062l-0.008,-0.123l-0.06,-0.052v-0.112l0.065,-0.125l0.005,-0.096l-0.073,-0.141l0.003,-0.11l0.034,-0.054l0.161,-0.081l0.172,-0.026l0.183,-0.076l0.115,-0.114l0.044,-0.073l0.026,-0.123l0.047,-0.099l0.06,-0.073l0.057,-0.18l0.031,-0.052l0.073,-0.031l0.013,-0.039l-0.01,-0.039l0.055,-0.206l0.039,-0.071l0.013,-0.096l-0.024,-0.023l-0.034,-0.008l-0.052,-0.042l-0.021,-0.052l-0.059,-0.06l-0.076,-0.044l-0.104,-0.102l-0.003,-0.06l0.065,-0.091l0.102,-0.065l0.096,-0.026l0.18,-0.06l0.12,-0.104l0.138,-0.032l0.123,0.003l0.114,0.044l0.099,0.008l0.081,-0.023l0.209,-0.152l0.083,-0.182l0.039,-0.172l0.011,-0.263l-0.021,-0.094l-0.042,-0.034l-0.031,-0.005l-0.112,-0.065l-0.042,-0.011l-0.023,-0.018l-0.011,-0.055l-0.07,-0.125l-0.091,-0.112l-0.045,-0.107l-0.031,-0.164l-0.052,-0.143l-0.029,-0.123l-0.013,-0.346l-0.026,-0.282l-0.049,-0.216l-0.102,-0.279l-0.057,-0.115l-0.073,-0.104l-0.045,-0.031l-0.054,-0.084l-0.04,-0.083l-0.114,-0.109l-0.078,-0.027l-0.042,-0.041l-0.078,-0.248l-0.045,-0.065l-0.049,-0.19l-0.052,-0.065l-0.131,-0.532l-0.039,-0.055l-0.005,-0.065l0.052,-0.065l0.003,-0.05l-0.034,-0.106l-0.086,-0.136l-0.039,-0.026l-0.039,-0.055l-0.021,-0.091l-0.102,-0.122l-0.041,-0.019l-0.063,-0.07l-0.016,-0.07l-0.046,-0.037l-0.04,-0.01l-0.075,-0.055l-0.013,-0.052l-0.021,-0.018l-0.146,-0.029l-0.198,0.023l-0.063,0.026l-0.033,0.037l-0.029,0.06l-0.031,0.021h-0.032l-0.041,0.023l-0.118,0.133l-0.067,0.034l-0.172,0.003l-0.11,-0.055l-0.081,-0.097l-0.049,-0.005l-0.034,0.026l-0.055,0.011l-0.026,-0.016l0.011,-0.026l0.031,-0.005l0.016,-0.026l-0.014,-0.052l-0.057,-0.125l-0.049,-0.042l-0.047,-0.011l-0.05,-0.041l-0.047,-0.068l-0.054,-0.031l-0.055,-0.006l-0.047,-0.028l-0.06,-0.097l-0.091,-0.078l-0.084,-0.026l-0.135,0.031l-0.099,-0.005l-0.071,-0.034l-0.046,-0.086l-0.084,-0.073l-0.138,-0.052l-0.094,-0.026l-0.083,-0.068v-0.044l0.122,-0.086l0.024,-0.062l-0.032,-0.076l0.008,-0.086l0.034,-0.047l0.06,-0.023l0.037,-0.032l0.075,-0.044l0.016,-0.099l-0.063,-0.18l-0.164,-0.279l-0.091,-0.213l-0.146,-0.238l-0.138,-0.172l-0.17,-0.159l-0.091,-0.046l-0.068,-0.011l-0.08,0.021l-0.042,0.034l-0.094,0.117l-0.055,0.008l-0.127,-0.042l-0.071,0.005l-0.08,0.042l-0.084,0.065l-0.06,0.021l-0.078,0.008l-0.031,0.01l-0.052,-0.01l-0.073,-0.039h-0.084l-0.226,0.068l-0.071,0.06l-0.182,0.054l-0.068,0.042l-0.029,-0.003l-0.01,-0.041l0.052,-0.125l0.086,-0.084l0.133,-0.031l0.042,-0.052v-0.042l0.015,-0.031l0.042,-0.016l0.07,-0.091l0.092,-0.034l0.039,-0.026l0.01,-0.057l-0.091,-0.159l-0.078,-0.029l-0.05,0.011l-0.073,-0.024l-0.083,-0.065l-0.263,-0.253l-0.118,-0.057h-0.057l-0.029,0.039l-0.049,0.018l-0.039,-0.002l-0.045,0.02l-0.075,0.133l-0.05,0.008l-0.057,-0.034l-0.021,-0.044l-0.047,-0.026l-0.104,-0.005l-0.029,-0.013l-0.008,-0.032l-0.041,-0.015l-0.091,0.028l-0.008,0.037l0.031,0.049l-0.003,0.063l-0.052,0.018l-0.075,-0.01l-0.029,-0.037l0.008,-0.075l0.013,-0.12l-0.013,-0.136l-0.078,-0.208l-0.097,-0.17l-0.094,-0.093l-0.101,-0.136l-0.065,-0.049l-0.029,-0.05l-0.026,-0.133l-0.086,-0.177l-0.188,-0.263l-0.13,-0.157l-0.183,-0.159l-0.151,-0.088l-0.073,-0.006l-0.026,0.016l-0.06,-0.01l-0.083,-0.037h-0.099l-0.128,0.047l-0.054,0.057l-0.008,0.079l-0.037,0.028l-0.081,-0.01l-0.044,-0.034l-0.039,-0.016l-0.034,0.006l-0.031,-0.016l-0.037,-0.037l-0.047,-0.015l-0.046,-0.003l-0.037,-0.021l-0.073,-0.07l-0.19,-0.091l-0.201,-0.063l-0.159,-0.023l-0.06,0.013l-0.026,0.028l-0.047,0.024l-0.166,0.003l-0.131,0.033l-0.135,0.081l-0.131,0.104l-0.031,0.042l-0.062,0.013l-0.089,-0.023l-0.047,-0.055l-0.049,-0.156l-0.089,-0.165l-0.097,-0.127l-0.119,-0.12l-0.139,-0.102l-0.161,-0.086l-0.104,-0.031l-0.201,-0.005l-0.044,0.026l-0.039,-0.003l-0.115,-0.101l-0.115,-0.068l-0.12,-0.031l-0.093,0.015l-0.053,0.029l-0.039,-0.016l-0.06,-0.135l-0.114,-0.17l-0.128,-0.169l-0.271,-0.292l-0.24,-0.224l-0.156,-0.128l-0.329,-0.167l-0.099,-0.026l-0.026,-0.021l-0.034,-0.13l0.003,-0.047l-0.073,-0.232l-0.112,-0.226l-0.086,-0.102l-0.115,-0.091l-0.06,-0.021l-0.086,-0.057l-0.049,-0.014l-0.057,-0.039l-0.071,-0.099l-0.109,-0.06l-0.058,-0.013l-0.052,-0.036l-0.026,-0.042l-0.107,-0.073l-0.096,-0.036l-0.089,-0.005l-0.117,0.031l-0.073,-0.003l-0.055,-0.055l-0.007,-0.049l-0.068,-0.128l-0.071,-0.062l-0.067,-0.112l-0.045,-0.034l-0.052,-0.128l0.008,-0.049l-0.016,-0.037l-0.036,-0.029l-0.016,-0.033l-0.002,-0.053l-0.091,-0.151l-0.163,-0.181l-0.232,-0.175l-0.176,-0.112l-0.206,-0.096l-0.221,-0.083l-0.248,-0.061l-0.234,-0.04l-0.054,-0.035l-0.093,-0.003l-0.085,0.04l-0.028,0.051l0.005,0.048l-0.016,0.024l-0.036,0.008l-0.041,0.056l-0.077,0.024l-0.057,-0.011l-0.008,-0.026l-0.09,-0.067l-0.077,-0.027l-0.039,-0.085v-0.08l0.044,-0.08l0.039,-0.002l0.036,0.032l0.116,0.01l0.054,-0.032l0.054,-0.112l0.023,-0.109l0.003,-0.131l-0.03,-0.081l-0.061,-0.077l-0.062,-0.021l-0.045,0.011l-0.014,0.021l-0.029,-0.002l-0.064,-0.124l0.002,-0.054l-0.019,-0.042l-0.053,-0.03l-0.002,-0.022l0.009,-0.017l-0.005,-0.024l-0.036,-0.032l-0.205,-0.099l-0.056,-0.06l-0.021,-0.073l-0.081,-0.157l-0.07,-0.062l-0.151,-0.083l-0.141,-0.045l-0.103,-0.037l-0.184,-0.029l-0.047,0.008l-0.032,-0.009l-0.038,-0.036l-0.119,-0.062l-0.018,-0.028l0.013,-0.015h0.031l0.033,-0.016l0.048,-0.085l0.015,-0.062l-0.017,-0.085l0.014,-0.061l0.041,-0.055l-0.001,-0.034l-0.054,-0.069l-0.105,-0.076l-0.146,-0.071l-0.104,-0.027l-0.28,-0.016l-0.143,0.025l-0.051,0.044l-0.013,0.059l-0.032,0.005l-0.089,-0.025l-0.043,0.004l-0.019,-0.016l0.003,-0.052l-0.031,-0.064l-0.002,-0.026l0.009,-0.02l-0.002,-0.059l-0.012,-0.035l0.021,-0.02l0.058,0.006l0.03,-0.029l0.003,-0.026l-0.012,-0.027l0.007,-0.025l0.024,-0.019l0.039,-0.139l0.031,-0.219l0.004,-0.277l-0.033,-0.28l-0.026,-0.12l-0.041,-0.12l-0.06,-0.082l-0.069,-0.05l-0.079,-0.099l-0.012,-0.075l-0.05,-0.083l-0.013,-0.073l-0.06,-0.089l-0.033,-0.013l-0.045,-0.064l-0.012,-0.056l-0.081,-0.1l-0.058,-0.043l-0.089,-0.035l-0.026,-0.037l0.003,-0.025l-0.005,-0.023l-0.031,-0.039l-0.017,-0.088l-0.022,-0.053l-0.028,-0.034l-0.012,-0.039l0.007,-0.117l-0.014,-0.087l-0.02,-0.039l-0.014,-0.084l0.003,-0.076l-0.005,-0.048l-0.062,-0.146l0.013,-0.041l0.02,-0.014l0.012,-0.035l-0.005,-0.128l-0.026,-0.18l-0.075,-0.312l-0.047,-0.093l-0.015,-0.048l0.007,-0.032l-0.033,-0.09l-0.091,-0.146l-0.18,-0.21l-0.138,-0.133l-0.175,-0.14l-0.198,-0.095l-0.074,-0.021l-0.046,0.011l-0.012,0.032l-0.031,0.01l-0.055,-0.014l-0.065,-0.055l-0.043,-0.012l-0.064,-0.052l-0.024,-0.041l-0.048,-0.026l-0.043,-0.004l-0.053,-0.027l-0.038,-0.058l-0.067,-0.027l-0.044,0.023l-0.018,0.062l0.03,0.059l0.039,0.025l0.014,0.039l-0.009,0.03l-0.056,0.009l-0.189,-0.094l-0.162,-0.119l-0.051,-0.077l-0.157,-0.099l-0.087,-0.02l-0.066,0.024l-0.056,-0.02l-0.054,-0.078l-0.003,-0.041l-0.015,-0.02l-0.04,-0.007l-0.072,-0.048l-0.012,-0.03l-0.086,-0.069l-0.077,-0.016l-0.1,-0.069l-0.012,-0.036l-0.046,-0.028l-0.062,0.008l-0.091,-0.028l-0.059,-0.06l-0.039,-0.013l-0.035,0.014l-0.025,-0.019l-0.043,-0.089l-0.155,-0.117l-0.206,-0.11l-0.175,-0.061l-0.057,0.004l-0.062,0.087l-0.017,0.082l-0.038,0.003l-0.163,-0.071l-0.012,-0.037l0.014,-0.05l-0.014,-0.059l-0.053,-0.044l-0.118,-0.04l-0.178,-0.045l-0.242,-0.043h-0.067l-0.119,-0.019l-0.131,-0.045l-0.271,-0.043l-0.012,-0.018l0.038,-0.019l-0.01,-0.016l-0.119,-0.008l-0.029,0.02l-0.045,0.004l-0.101,-0.025l-0.082,0.014l-0.106,0.043l-0.054,0.056l-0.083,0.045l-0.061,0.003l-0.06,0.029l-0.043,0.046l-0.086,0.058l-0.085,0.008l-0.036,0.019l-0.018,0.045l-0.108,0.064l-0.1,0.019l-0.047,0.04l-0.01,0.04l-0.046,0.045l-0.078,0.024l-0.056,0.067v0.05l0.036,0.035l-0.003,0.04l-0.033,0.069l-0.042,0.014l-0.046,0.048l-0.013,0.074l0.018,0.04l-0.002,0.035l-0.075,0.048l-0.07,0.002l-0.129,0.056l-0.064,0.038l-0.111,0.026l-0.087,0.054l-0.134,0.157l-0.052,0.12l0.005,0.138l-0.039,0.062l-0.126,0.101l-0.075,0.101l-0.018,0.083l0.044,0.085l-0.01,0.027l-0.083,0.019l-0.036,0.029l-0.015,0.05l-0.049,0.035l-0.067,0.021l-0.067,0.051l-0.021,0.056l-0.049,0.032h-0.09l-0.054,0.021l-0.023,0.035l-0.041,0.032l-0.093,0.013l-0.157,0.062l-0.065,0.048l-0.095,0.029h-0.067l-0.129,0.037l-0.041,0.038l-0.044,0.01l-0.075,-0.016l-0.113,0.022l-0.083,0.063l-0.069,0.016l-0.052,-0.008l-0.072,0.016l-0.075,0.088l-0.062,0.011l-0.164,-0.062l-0.115,-0.019l-0.073,0.017l-0.022,0.032l-0.055,0.009l-0.092,-0.022l-0.001,-0.052l-0.033,-0.066l-0.039,-0.168l-0.039,-0.037l-0.01,-0.063l0.014,-0.038l0.094,-0.065l0.126,-0.037l0.023,-0.031l-0.014,-0.068l0.03,-0.035l0.022,-0.062l-0.019,-0.031l0.019,-0.023l0.037,-0.009l0.028,-0.024l0.045,-0.009l0.034,0.014l0.108,-0.08l0.051,-0.021l0.052,-0.088l-0.028,-0.098v-0.049l0.021,-0.014l0.038,0.002l0.026,-0.03l0.05,-0.007l0.018,-0.019l0.008,-0.053l0.032,-0.026l0.015,-0.098l-0.08,-0.066l-0.05,-0.077l-0.036,-0.02l-0.021,-0.057l0.034,-0.065l-0.017,-0.035v-0.028l0.031,-0.021l0.014,-0.037l-0.024,-0.022h-0.118l-0.044,0.021l-0.036,0.092l-0.042,0.021l-0.054,-0.022l-0.043,0.007l-0.077,-0.004l-0.04,0.03l-0.066,-0.005l-0.036,0.036l-0.04,0.004l-0.047,-0.019l-0.029,0.007l-0.042,0.038l-0.084,0.03l-0.097,-0.019l-0.017,0.015l-0.004,0.063l-0.027,0.007l-0.039,-0.031l-0.074,-0.023l-0.08,0.033l-0.047,-0.003l-0.045,-0.091l0.003,-0.035l-0.024,-0.009l-0.078,0.019l-0.033,-0.012l-0.073,0.002l-0.018,0.021l-0.028,-0.004l-0.024,-0.033l-0.08,-0.04l-0.022,-0.068l-0.033,-0.011l-0.028,0.025l-0.035,-0.002l-0.073,-0.074l-0.03,-0.066l-0.017,-0.007l-0.031,0.009l-0.042,-0.03l-0.026,-0.007l-0.043,0.028l-0.035,-0.004l-0.101,-0.075l-0.05,-0.007l-0.026,-0.016l-0.016,-0.028l-0.036,-0.014l-0.035,0.002l-0.031,0.019l-0.087,0.002l-0.077,-0.033l-0.054,-0.058l-0.008,-0.142l-0.054,-0.036l-0.049,-0.007l-0.048,-0.049l-0.006,-0.06l-0.087,-0.091l-0.036,-0.017l-0.021,-0.067l-0.054,-0.042l-0.052,-0.01l-0.003,-0.032l0.024,-0.021l0.003,-0.171l-0.01,-0.044l0.08,-0.033l0.04,0.014l0.029,-0.02l0.035,0.007l0.014,-0.014l-0.036,-0.045l-0.089,-0.047l-0.024,-0.077l-0.103,-0.062l-0.015,-0.045l-0.054,-0.053l-0.028,-0.129l0.061,-0.047l0.034,-0.063l0.042,-0.002l0.087,-0.025l0.007,-0.04l0.064,-0.04l0.019,-0.115l0.042,-0.046l0.01,-0.033l0.054,-0.004l0.002,-0.028l-0.031,-0.021l-0.03,-0.056v-0.061l0.026,-0.033l0.002,-0.046l0.024,-0.022l0.039,-0.009l0.071,-0.044l0.054,0.007l0.083,-0.012l0.104,0.047l0.056,-0.002l0.007,-0.022l-0.037,-0.098v-0.03l-0.026,-0.018l-0.06,-0.008l-0.044,-0.056l-0.035,-0.095l0.012,-0.058l-0.038,-0.082l-0.059,-0.021l0.005,-0.028l0.039,-0.03l0.048,-0.082l-0.005,-0.024l-0.05,-0.018l-0.011,-0.059l-0.088,-0.03l-0.035,0.005l-0.104,-0.061l-0.056,-0.011l-0.064,0.069l-0.174,-0.025l-0.132,-0.077l-0.101,-0.059v-0.037l-0.015,-0.012h-0.04l-0.059,-0.053l-0.051,-0.003l-0.026,-0.03v-0.065l0.035,-0.04l-0.009,-0.021l-0.04,-0.009l0.047,-0.056l0.017,-0.056l-0.01,-0.04l-0.083,-0.077v-0.026l0.034,-0.025l-0.015,-0.056l-0.071,-0.028l-0.176,0.006l-0.043,-0.058l0.007,-0.06l-0.033,-0.042l0.015,-0.043l-0.012,-0.025l-0.04,0.005l-0.023,-0.028v-0.045l-0.052,-0.086l0.016,-0.035l0.066,-0.007l0.076,-0.038l0.035,-0.067l0.101,-0.023l0.096,0.028l0.034,-0.007l0.072,-0.085l0.031,-0.004l0.153,0.046l0.116,0.082l0.035,0.01l0.066,-0.026l0.083,-0.005l0.018,-0.028l-0.049,-0.067l0.026,-0.05l0.071,0.005l0.118,-0.028l0.035,-0.039l0.009,-0.047l0.04,-0.019l-0.016,-0.042l0.016,-0.018l0.088,-0.019l0.047,-0.028l0.065,0.009l0.041,-0.012l0.04,-0.03l0.037,0.002l0.055,0.063l0.033,-0.004l0.108,-0.112l0.002,-0.035l0.026,-0.017l0.052,0.008l0.037,-0.045l-0.009,-0.126l-0.04,-0.046l-0.012,-0.07l-0.035,-0.057l0.012,-0.027l0.054,0.004l0.026,-0.023l-0.002,-0.077l0.025,-0.016h0.048l0.03,-0.036l-0.009,-0.055l0.016,-0.049l0.054,-0.024l0.026,-0.07l-0.011,-0.028l-0.09,-0.035l-0.028,-0.032l-0.071,-0.003l-0.064,-0.037v-0.037l-0.051,-0.047l-0.01,-0.037l0.019,-0.021l0.003,-0.017l-0.118,-0.028l-0.036,0.021l-0.049,-0.007l-0.007,-0.047l0.035,-0.019l0.003,-0.027l-0.02,-0.021l-0.115,0.002l-0.084,-0.033l-0.003,-0.023l0.023,-0.026l-0.002,-0.026l-0.042,-0.039l-0.005,-0.031l0.019,-0.03l-0.026,-0.084l0.023,-0.035l-0.007,-0.046l-0.049,-0.022l-0.005,-0.037l0.028,-0.086l-0.007,-0.03l0.005,-0.033l0.061,-0.054l-0.006,-0.028l-0.08,-0.018l-0.055,-0.043l-0.115,0.035l-0.054,-0.025l-0.045,-0.052l0.009,-0.06l-0.026,-0.019l-0.094,0.009l-0.092,-0.042l-0.035,-0.056l-0.043,-0.004l-0.072,-0.091l-0.012,-0.033l0.03,-0.03v-0.035l-0.035,-0.023l-0.01,-0.192l0.031,-0.026l0.01,-0.062l-0.031,-0.038l0.047,-0.084l0.071,-0.032l0.044,0.004l0.061,0.072l0.017,-0.004l-0.007,-0.047l0.024,-0.054l0.033,-0.002l0.033,0.026l0.08,0.002l0.099,-0.023l0.032,-0.051l0.085,-0.038l0.071,-0.009l0.045,-0.072l-0.007,-0.036l0.002,-0.042l0.094,-0.086l0.052,-0.01z M687.522468,285.513946l0.018,-0.025l0.021,-0.004l0.01,0.011l0.003,0.018l-0.017,0.01l-0.026,-0.002l-0.009,-0.008z M687.691378,276.182687l0.036,-0.013l0.014,-0.018l0.027,-0.004l0.013,0.012l-0.004,0.024l-0.015,0.011l0.003,0.041l-0.011,0.014l-0.003,0.049l0.022,0.038l0.001,0.035l-0.034,0.054l-0.003,0.022l-0.012,0.016l-0.016,0.004l-0.011,0.015l0.002,0.04l-0.02,0.033l-0.001,0.024l-0.01,0.006l-0.051,-0.003l-0.043,0.01l-0.033,-0.004l-0.015,-0.017l-0.006,-0.021l-0.025,-0.004l-0.014,0.011l-0.015,0.003l-0.012,-0.007h-0.014l-0.014,0.012h-0.036l-0.013,-0.011l0.012,-0.023l0.001,-0.018l-0.014,-0.038l0.004,-0.026l0.02,-0.012v-0.024l-0.018,-0.028l-0.024,-0.007l-0.005,-0.019l0.004,-0.041l0.009,-0.004l0.016,0.012l0.022,-0.004l0.011,-0.014l0.018,-0.004l0.033,0.004l0.024,-0.008l0.029,-0.034l0.095,-0.063l0.049,-0.006l0.027,-0.015z"/>
</svg>
