<svg xmlns="http://www.w3.org/2000/svg" viewBox="633.113 251.542 0.881 0.485">
  <path d="M633.122,251.946v-0.01l0.01,-0.004l0.01,0.007l-0.007,0.01l-0.012,-0.003Z M633.219,251.857l-0.017,0.039l-0.048,0.03v0.011l0.028,0.01 l0.015,0.017l0.039,0.007l0.044,-0.015l0.018,-0.024l0.022,-0.011l0.024,0.008l0.017,0.021v0.037l0.015,0.01 l0.014,-0.011l0.018,0.003l0.012,0.021h0.017l0.012,-0.021 v-0.021l-0.017,-0.019l-0.003,-0.051l0.022,-0.026l0.042,-0.01l0.058,0.003l0.043,0.018l0.026,0.022l-0.004,0.035l0.01,0.008l0.017,-0.012l0.01,0.006l-0.017,0.035v0.022l0.014,0.01l0.008,-0.008l0.004,-0.03l0.011,-0.01h0.022l0.025,0.011l0.05,0.055h0.021l0.011,-0.015 l0.037,-0.011h0.04l0.04,0.019h0.019l0.018,-0.014l-0.012,-0.026l-0.011,-0.062l0.004,-0.035l0.021,-0.028l0.03,-0.007l0.006,-0.011l-0.015,-0.018l-0.003,-0.018l-0.025,-0.026v-0.022l0.01,-0.017 l0.017,-0.006l0.003,-0.011l-0.01,-0.024l-0.01,-0.014l-0.062,-0.022l-0.011,-0.017l-0.028,-0.01l-0.024,0.014l-0.053,0.012l-0.028,-0.011l-0.008,-0.033l-0.037,-0.04l-0.032,-0.003l-0.021,0.018h-0.037l-0.022,-0.014 l-0.057,-0.004l-0.048,-0.029h-0.025l-0.043,0.021 l-0.019,0.026l-0.06,0.012h-0.036l-0.029,-0.024l-0.062,-0.032h-0.014l-0.008,0.015h-0.017l-0.035,-0.011 l-0.024,0.014l-0.008,0.029l0.01,0.037l0.033,0.024l0.036,0.048l0.021,0.048l0.012,0.057l-0.007,0.05Z M633.461,251.925l0.008,-0.007l-0.004,-0.008h-0.01l-0.003,0.011 l0.008,0.004Z M633.595,251.972l0.006,-0.017l-0.006,-0.008l-0.011,0.008v0.012l0.008,0.021 h0.007l-0.004,-0.017 Z "/>
</svg>
