<svg xmlns="http://www.w3.org/2000/svg" viewBox="350.858 381.101 8.118 3.210">
  <path d="M356.55,381.817l0.094,0.029l0.031,0.036l-0.013,0.06l0.083,0.138l0.135,-0.005l0.081,0.049l0.049,-0.018l0.086,0.003l0.052,0.034l0.06,0.094l0.081,0.034l0.133,-0.026l0.034,0.016l0.068,0.094l0.092,0.021l0.029,-0.024h0.021l0.031,0.038h0.038l0.049,-0.04l0.094,0.005l0.049,0.081l0.068,0.033l0.023,-0.012l-0.01,-0.019l0.012,-0.016l0.052,0.012l0.023,0.024l0.147,0.017l0.087,0.028l0.01,0.045l0.024,0.014l0.026,-0.016l0.036,0.04l-0.009,0.045l0.019,0.026l0.028,0.002l0.021,0.021l-0.007,0.057l0.088,0.099l0.04,0.09l0.042,0.045l0.003,0.125l0.088,0.125l0.038,0.019l0.016,0.016l-0.019,0.095l0.054,0.055l0.069,0.002l0.073,0.062l0.007,0.042l-0.04,0.031l-0.054,-0.019l-0.061,0.01l-0.038,0.045l-0.123,0.045l-0.042,-0.016l-0.09,0.061l-0.057,0.002l-0.017,-0.031l0.023,-0.042l-0.014,-0.017l-0.057,0.035l0.016,0.064l-0.052,0.028l-0.036,-0.024l-0.132,-0.049l-0.055,-0.005l-0.107,0.038l-0.043,-0.014l-0.175,0.026l-0.05,0.054l-0.071,0.019l-0.059,-0.028l-0.016,-0.035l-0.074,-0.029l-0.125,0.017l-0.062,-0.049l-0.04,-0.1l-0.085,-0.09l-0.08,-0.043l-0.045,0.005l-0.087,-0.038l-0.107,0.036l-0.088,-0.009l-0.05,0.052h-0.04l-0.062,-0.023l-0.113,-0.016l-0.042,0.028l-0.019,-0.023l0.055,-0.054l0.05,0.017l0.123,0.014l0.066,-0.026l0.116,0.014l0.049,-0.026l-0.038,-0.05l-0.05,-0.016l-0.092,0.017h-0.097l-0.057,-0.029l-0.092,-0.012l-0.123,0.092l-0.012,0.116l-0.028,0.031l-0.09,0.178l-0.062,0.068l-0.1,0.05l-0.055,-0.016l-0.014,-0.042h-0.029l-0.045,0.038l-0.035,-0.002l-0.033,-0.04l-0.054,-0.005l-0.04,0.028l-0.028,-0.003v-0.042l0.05,-0.043l-0.019,-0.071l-0.097,-0.076l-0.021,0.016l-0.023,0.002l-0.012,-0.029l-0.028,0.003l-0.007,0.035l-0.029,0.005l-0.016,-0.021l-0.088,0.026l-0.109,0.106l-0.047,0.121l0.01,0.057l0.064,0.017l0.01,0.021l-0.01,0.016l-0.087,-0.031l-0.033,0.024l-0.01,0.097l0.024,0.012l0.01,0.021l-0.042,0.017l-0.026,-0.017l0.01,-0.028l-0.016,-0.021l-0.031,-0.002l-0.055,0.042l-0.016,0.033l0.016,0.016l0.073,-0.002l0.036,0.033l0.042,0.002l0.068,-0.05l0.05,0.017l0.002,0.023l-0.023,0.016l0.009,0.026l0.064,0.038l-0.003,0.071l-0.083,0.071l-0.099,0.01l-0.146,-0.061l-0.099,-0.092l-0.035,0.005l-0.017,-0.012l0.005,-0.031l-0.069,-0.083l-0.049,-0.003l-0.026,-0.019l-0.01,-0.036l-0.187,-0.166l-0.102,-0.035l-0.08,-0.062l-0.08,-0.026l-0.171,0.014l-0.163,0.066l-0.057,-0.005l-0.12,-0.083l-0.064,-0.007l-0.104,0.024l-0.142,-0.017l-0.081,0.024l-0.142,-0.017l-0.159,0.038l-0.016,-0.021l0.005,-0.021l-0.09,-0.061l-0.055,-0.031l-0.064,-0.068l0.002,-0.043l-0.029,-0.036l-0.12,-0.064l-0.012,-0.149l0.026,-0.031l0.005,-0.066l-0.068,-0.073l-0.158,-0.045l-0.073,0.033l-0.1,-0.014l-0.042,-0.059l-0.014,-0.062l-0.107,-0.169l-0.039,-0.01l-0.116,-0.066l-0.006,-0.055l-0.026,-0.05l0.018,-0.03l-0.041,-0.123l-0.071,-0.062l-0.097,-0.021l-0.121,0.017l-0.125,-0.007l-0.042,-0.017l-0.111,0.014l-0.146,0.066l-0.094,-0.045l-0.021,-0.049l-0.076,-0.014l-0.049,0.01l-0.229,-0.076l-0.042,-0.121l0.035,-0.045h0.045l0.035,-0.069v-0.187l-0.028,-0.035l0.031,-0.059l0.052,-0.007l0.017,0.035l0.038,-0.003l0.017,-0.094l0.042,-0.031l0.069,0.019l0.021,-0.014l-0.011,-0.051l0.087,-0.062l0.029,-0.052l0.104,-0.078l0.153,0.012l0.024,0.057l0.035,-0.007l0.003,-0.055l0.066,-0.024l0.18,0.042l0.312,-0.038l0.225,0.055l0.031,-0.028l-0.003,-0.104l0.028,-0.094l0.125,-0.062l0.246,-0.028l0.364,0.059l0.097,0.038l0.184,0.01l0.163,0.042l0.191,-0.017l0.35,0.042l0.402,0.08l0.173,-0.035l0.506,0.118l0.059,0.066l0.194,0.059l0.222,-0.055l0.34,0.076l0.066,-0.049l0.166,0.017l0.024,0.038l-0.035,0.024l0.019,0.081l0.091,0.029l0.112,0.096Z M355.754,383.697l0.023,-0.023l-0.012,-0.045l-0.059,-0.045l-0.045,0.003l-0.016,0.012l0.007,0.021l0.028,0.002l0.042,0.038l0.003,0.021l0.029,0.016Z "/>
</svg>
