<svg xmlns="http://www.w3.org/2000/svg" viewBox="1163.746 345.094 5.066 13.997">
  <path d="M1165.891,359.073l0.005,-0.054l0.024,-0.019l0.033,0.004l0.017,0.022l-0.003,0.026l-0.018,0.028l-0.039,0.011l-0.019,-0.018Z M1165.282,357.005h0.023l0.026,-0.031l0.136,-0.063l0.034,-0.008l0.021,-0.031l-0.029,-0.099l-0.047,-0.042l-0.029,0.003l-0.018,0.023l-0.076,0.039l-0.044,0.034l0.008,0.021l0.021,0.008v0.05l-0.029,0.068l0.003,0.029Z M1165.244,354.328l0.021,0.012l0.036,-0.009l0.021,-0.031l-0.003,-0.043l-0.017,-0.035l-0.026,-0.005l-0.033,0.026l-0.007,0.043l0.009,0.042Z M1163.755,347.082l0.031,0.012l0.031,-0.01l0.016,-0.035l-0.016,-0.038l-0.026,-0.009l-0.038,0.016l-0.007,0.031l0.009,0.033Z M1168.282,345.095l0.003,0.011l0.017,0.014h0.012l-0.006,-0.018 l-0.015,-0.008h-0.011Z M1168.515,345.364l0.007,-0.018v-0.019h-0.01l-0.004,0.028 l0.007,0.01Z M1168.574,345.505l0.039,0.012l0.014,-0.004l-0.019,-0.042l-0.029,-0.017l-0.015,0.008v0.022l0.011,0.019 Z M1168.408,345.27l0.015,-0.006l0.017,0.008v0.022l0.025,0.012l0.017,-0.01v-0.042l-0.019,-0.019h-0.036l-0.01,-0.012 l-0.022,0.004l-0.004,0.025l0.018,0.017Z M1168.333,345.099l-0.01,0.014l0.01,0.01l0.012,-0.011v-0.008l-0.012,-0.004 Z M1168.682,346.033l0.019,0.007l0.008,0.019l0.012,0.006l0.007,-0.019l-0.012,-0.026l-0.026,-0.01l-0.014,0.011l0.006,0.012Z M1168.602,347.185l0.01,0.01l0.015,-0.007v-0.012h-0.017l-0.008,0.01 Z M1168.776,347.603l0.015,0.014h0.015l0.006,-0.014l-0.015,-0.01h-0.019l-0.001,0.01 Z M1168.545,347.853v-0.015l-0.006,-0.028 l-0.011,-0.006l-0.004,0.011l0.011,0.043l0.01,-0.006Z M1168.497,347.527l0.029,-0.015l-0.004,-0.018l-0.014,-0.007l-0.011,0.004v0.017l-0.006,0.012l0.006,0.007Z M1168.578,347.229l0.003,0.036l-0.015,0.019v0.043l0.008,0.012 v0.021l-0.019,0.006 l-0.003,0.014l0.018,0.01l0.015,-0.003l0.004,-0.012l0.014,-0.008l0.032,-0.04v-0.03l-0.014,-0.015 l-0.007,-0.019l0.01,-0.015l-0.003,-0.015l-0.036,-0.021l-0.012,0.004l0.006,0.015Z M1168.539,347.459l0.01,0.011h0.012l-0.003,-0.014 l-0.014,-0.008l-0.006,0.011Z M1168.591,347.41l0.007,0.022l-0.012,0.014l-0.003,0.036l0.006,0.012l0.039,-0.012l0.022,0.021l-0.014,0.017l0.007,0.014l0.064,0.008l0.06,-0.006v-0.017l-0.026,-0.006 l-0.01,-0.012l-0.021,-0.054l-0.017,-0.01l-0.037,0.008l-0.028,-0.014l-0.018,-0.037h-0.014l-0.004,0.015 Z M1168.613,347.612l0.011,-0.025h0.015l0.019,0.055 l-0.01,0.033l-0.018,0.008l-0.025,-0.008l-0.035,0.007l-0.01,0.011l0.039,0.018l0.007,0.022l-0.015,0.008l-0.015,0.042v0.024l0.029,0.01 l0.019,-0.01l0.036,0.014h0.033l0.026,0.022 l0.014,-0.006l-0.008,-0.022l-0.007,-0.046l0.014,-0.006l0.033,0.019l0.004,-0.01l-0.024,-0.03v-0.019l0.006,-0.033 l-0.006,-0.026l-0.021,-0.008l-0.007,-0.018l0.004,-0.014l-0.014,-0.03l-0.035,-0.033l-0.078,-0.012l-0.03,0.017l-0.007,0.03l0.017,0.026l0.022,0.003l0.014,-0.012Z M1168.376,349.675l0.018,0.006l0.019,-0.011l0.007,-0.033l-0.017,-0.022l-0.017,-0.003l-0.017,0.018v0.014l0.008,0.014 l-0.003,0.018Z M1168.487,349.893h0.012l0.011,-0.032l0.003,-0.036l-0.017,-0.018h-0.017l-0.004,0.015l0.011,0.024v0.047Z M1168.47,349.735l0.035,-0.007l0.011,-0.017l-0.012,-0.006l-0.029,0.004l-0.015,0.018l0.011,0.007Z M1168.674,349.851l0.039,-0.012l0.014,-0.022l-0.004,-0.012l-0.021,-0.003l-0.032,0.012l-0.011,0.029l0.015,0.008Z M1168.76,349.811l0.018,-0.015h0.024l0.003,-0.012 l-0.026,-0.021l-0.014,-0.003l-0.011,0.008l0.006,0.018l-0.008,0.018l0.01,0.007Z M1168.559,349.625h0.017l0.015,-0.011 v-0.069l-0.012,-0.025l-0.021,-0.015l-0.006,-0.024l0.01,-0.044l0.011,-0.003l0.017,0.006l0.022,-0.012l0.004,-0.014l-0.015,-0.004h-0.017l-0.008,0.012 h-0.026l-0.022,-0.014 l-0.011,-0.048l0.018,-0.03v-0.018l0.012,-0.022 l-0.012,-0.006l-0.019,0.014l-0.037,0.011l-0.018,-0.01v-0.021l0.025,-0.024l0.022,-0.011l0.018,0.003l0.006,-0.011l-0.043,-0.024h-0.037l-0.014,0.007 l0.003,0.026h-0.015l-0.019,-0.014l-0.021,-0.044h-0.014v0.032l0.019,0.032l0.008,0.042l0.054,0.053l-0.011,0.037l0.01,0.008l0.014,-0.006l0.003,0.012l-0.011,0.019l0.003,0.026l0.021,0.022l0.003,0.048h0.014l0.011,-0.019 h0.01v0.037l0.01,0.008 l0.017,-0.006l0.017,0.008l0.008,0.055l-0.008,0.028Z "/>
</svg>
