<svg xmlns="http://www.w3.org/2000/svg" viewBox="1163.746 345.094 5.065 13.997">
  <path d="M1165.891,359.073l0.005-0.054l0.024-0.019l0.033,0.004l0.017,0.022l-0.003,0.026l-0.018,0.028l-0.039,0.011L1165.891,359.073z M1165.282,357.005h0.023l0.026-0.031l0.135-0.063l0.034-0.008l0.021-0.031l-0.029-0.099l-0.047-0.042l-0.029,0.003l-0.018,0.023l-0.076,0.039l-0.044,0.034l0.008,0.021l0.021,0.008v0.05l-0.029,0.068L1165.282,357.005z M1165.244,354.328l0.021,0.012l0.036-0.009l0.021-0.031l-0.004-0.043l-0.017-0.035l-0.026-0.005l-0.033,0.026l-0.007,0.043L1165.244,354.328z M1163.755,347.082l0.031,0.012l0.031-0.01l0.016-0.035l-0.016-0.038l-0.026-0.009l-0.038,0.016l-0.007,0.031L1163.755,347.082z M1168.282,345.095l0.003,0.011l0.017,0.014l0.012,0.001l-0.005-0.019l-0.015-0.008L1168.282,345.095z M1168.515,345.364l0.007-0.018v-0.019l-0.01,0.001l-0.004,0.026L1168.515,345.364z M1168.574,345.505l0.039,0.012l0.014-0.004l-0.019-0.042l-0.029-0.017l-0.015,0.008l0.001,0.022L1168.574,345.505z M1168.408,345.27l0.015-0.006l0.017,0.008v0.022l0.025,0.012l0.017-0.01v-0.042l-0.019-0.019l-0.036-0.001l-0.01-0.011l-0.022,0.004l-0.004,0.025L1168.408,345.27z M1168.333,345.099l-0.01,0.014l0.01,0.01l0.012-0.011l0.001-0.008L1168.333,345.099z M1168.682,346.033l0.019,0.007l0.008,0.019l0.012,0.006l0.007-0.019l-0.012-0.026l-0.026-0.01l-0.014,0.011L1168.682,346.033z M1168.602,347.185l0.01,0.01l0.015-0.007v-0.012l-0.017-0.001L1168.602,347.185z M1168.776,347.603l0.015,0.014h0.015l0.005-0.014l-0.015-0.01l-0.019-0.001L1168.776,347.603z M1168.545,347.853l0.001-0.015l-0.007-0.028l-0.011-0.006l-0.004,0.011l0.011,0.043L1168.545,347.853z M1168.496,347.527l0.029-0.015l-0.004-0.018l-0.014-0.007l-0.011,0.004v0.017l-0.005,0.012L1168.496,347.527z M1168.578,347.229l0.003,0.036l-0.015,0.019l-0.001,0.043l0.01,0.012l-0.001,0.021l-0.018,0.006l-0.003,0.014l0.018,0.01l0.015-0.003l0.004-0.012l0.014-0.008l0.032-0.04l0.001-0.03l-0.015-0.015l-0.007-0.019l0.01-0.015l-0.003-0.015l-0.036-0.021l-0.012,0.004L1168.578,347.229z M1168.539,347.459l0.01,0.011l0.012-0.001l-0.003-0.012l-0.014-0.008L1168.539,347.459z M1168.591,347.41l0.007,0.022l-0.012,0.014l-0.003,0.036l0.005,0.012l0.039-0.012l0.022,0.021l-0.014,0.017l0.007,0.014l0.064,0.008l0.06-0.006l0.001-0.017l-0.028-0.006l-0.01-0.012l-0.021-0.054l-0.017-0.01l-0.037,0.008l-0.028-0.014l-0.018-0.037l-0.014,0.001L1168.591,347.41z M1168.613,347.612l0.011-0.025l0.015,0.001l0.019,0.054l-0.01,0.033l-0.018,0.008l-0.025-0.008l-0.035,0.007l-0.01,0.011l0.039,0.018l0.007,0.022l-0.015,0.008l-0.015,0.042l0.001,0.024l0.028,0.01l0.019-0.01l0.036,0.014h0.033l0.026,0.022l0.014-0.006l-0.008-0.022l-0.007-0.046l0.014-0.006l0.033,0.019l0.004-0.01l-0.024-0.03l-0.001-0.019l0.007-0.033l-0.006-0.026l-0.021-0.008l-0.007-0.018l0.004-0.014l-0.014-0.03l-0.035-0.033l-0.078-0.012l-0.03,0.017l-0.007,0.03l0.017,0.026l0.022,0.003L1168.613,347.612z M1168.376,349.675l0.018,0.006l0.019-0.011l0.007-0.033l-0.017-0.022l-0.017-0.003l-0.017,0.018l0.001,0.014l0.007,0.014L1168.376,349.675z M1168.487,349.893h0.012l0.011-0.032l0.003-0.036l-0.017-0.018h-0.017l-0.004,0.015l0.011,0.024V349.893z M1168.47,349.735l0.035-0.007l0.011-0.017l-0.012-0.006l-0.029,0.004l-0.015,0.018L1168.47,349.735z M1168.674,349.851l0.039-0.012l0.014-0.022l-0.004-0.012l-0.021-0.003l-0.032,0.012l-0.011,0.029L1168.674,349.851z M1168.76,349.811l0.018-0.015l0.024,0.001l0.003-0.014l-0.026-0.021l-0.014-0.003l-0.011,0.008l0.005,0.018l-0.008,0.018L1168.76,349.811z M1168.559,349.625l0.017,0.001l0.015-0.012v-0.069l-0.012-0.025l-0.021-0.015l-0.005-0.024l0.01-0.044l0.011-0.003l0.017,0.006l0.022-0.012l0.004-0.014l-0.015-0.004l-0.017,0.001l-0.008,0.011l-0.026,0.001l-0.022-0.015l-0.011-0.048l0.018-0.03l0.001-0.018l0.011-0.022l-0.012-0.006l-0.019,0.014l-0.037,0.011l-0.018-0.01v-0.021l0.025-0.024l0.022-0.011l0.018,0.003l0.006-0.011l-0.043-0.024l-0.037,0.001l-0.014,0.006l0.003,0.026h-0.015l-0.019-0.014l-0.021-0.044l-0.014,0.001v0.03l0.019,0.032l0.008,0.042l0.054,0.053l-0.011,0.037l0.01,0.008l0.014-0.006l0.003,0.012l-0.011,0.019l0.003,0.026l0.021,0.022l0.003,0.048l0.014,0.001l0.011-0.021h0.01l-0.001,0.037l0.011,0.008l0.017-0.006l0.017,0.008l0.008,0.055L1168.559,349.625z"/>
</svg>
