<svg xmlns="http://www.w3.org/2000/svg" viewBox="1097.261 332.550 31.137 27.171">
  <path d="M1127.59863,357.869906l0.045173,0.00695l0.008687,0.022586l-0.027799,0.019112l-0.017374,-0.005212l-0.017374,-0.029536l0.008687,-0.013899Z M1128.246377,352.264166l0.059072,0.024324l0.069497,-0.00695l0.024324,-0.066022l-0.027799,-0.038223l-0.118145,-0.013899l-0.045173,0.024324l0.038223,0.076446Z M1128.017037,352.736744h0.093821l0.052123,-0.045173l0.024324,-0.11467l-0.062547,-0.069497l-0.097295,-0.003475l-0.055597,0.041698l-0.024324,0.125094l0.069497,0.066022Z M1124.047034,334.098576l0.090346,0.052123l0.022586,0.066022l0.104245,0.031274l0.11467,-0.04691l0.026061,-0.052123l-0.11467,-0.109457l-0.135519,-0.020849l-0.130306,-0.04691l-0.052123,0.010425l0.074709,0.116407Z M1126.528069,332.986627l0.02693,0.039092l0.070365,-0.020849l0.020849,-0.031274l-0.018243,-0.112064l-0.03388,-0.015637l-0.04691,0.065153l-0.019112,0.075578Z M1119.720859,340.822389l0.031274,-0.017374l-0.027799,-0.052123l-0.045173,0.00695l-0.013899,0.034748l0.055597,0.027799Z M1120.919678,339.109294l0.045173,-0.00695l-0.00695,-0.031274l-0.041698,-0.003475l-0.027799,0.017374l0.031274,0.024324Z M1120.436676,339.418554l0.069497,0.048648h0.045173l-0.00695,-0.093821l-0.024324,-0.031274l-0.066022,0.003475l-0.034748,0.034748l0.017374,0.038223Z M1121.736266,337.250255l0.003475,-0.041698l-0.027799,-0.031274l-0.034748,0.003475l-0.013899,0.052123l0.034748,0.038223l0.038223,-0.020849Z M1122.010778,338.195411l0.013899,-0.062547l-0.052123,-0.066022h-0.066022l-0.017374,0.048648l0.048648,0.079921h0.072972Z M1122.313089,337.559515l0.041698,0.003475l0.020849,-0.048648l0.048648,-0.029536l0.044304,-0.052123l-0.002606,-0.075578l0.013031,-0.062547l-0.031274,-0.026061l-0.106851,0.013031l-0.062547,0.066022l-0.013899,0.055597l0.020849,0.10077l0.027799,0.055597Z M1121.74669,336.395444l0.034748,-0.024324l-0.034748,-0.072972l-0.045173,-0.010425l-0.024324,0.031274l0.017374,0.062547l0.052123,0.013899Z M1123.05323,336.041011l0.031274,0.072972l0.097295,0.045173l0.052123,-0.017374l0.011814,-0.035443l-0.011814,-0.041004l-0.066022,-0.048648l-0.048648,-0.10077l-0.027799,0.010425v0.048648l-0.038223,0.066022Z M1122.038577,336.454517l0.020849,-0.024324l-0.024324,-0.020849l-0.024324,0.00695l-0.000869,0.028667l0.028667,0.009556Z M1122.83084,336.580479l0.04691,0.026061l0.03388,0.065153l0.044304,0.020849l0.054729,-0.015637l0.049516,0.010425l0.059941,0.002606l0.013031,-0.03388l-0.072972,-0.070365l-0.010425,-0.065153l-0.039092,-0.070365l-0.104245,-0.03388l-0.059941,0.026061l-0.026061,0.070365l0.010425,0.067759Z M1126.656638,334.558123l0.036486,0.010425l0.031274,-0.015637l0.031274,-0.049516l0.153762,-0.067759l0.083396,0.023455l0.020849,-0.018243v-0.070365l0.039092,-0.026061l0.002606,-0.023455l-0.031274,-0.054729l0.007818,-0.031274l0.036486,-0.026061v-0.052123l-0.049516,-0.054729l-0.005212,-0.093821l0.049516,-0.088608l0.002606,-0.049516l0.052123,-0.062547l0.020849,-0.057335l0.028667,-0.023455l0.054729,-0.005212l0.04691,-0.075578l0.018243,-0.070365l0.049516,-0.039092l0.026061,-0.054729l0.005212,-0.132913l-0.03388,-0.044304l0.018243,-0.067759l0.041698,-0.03388l0.044304,-0.072972l-0.023455,-0.205884l0.013031,-0.088608l0.031274,-0.044304l-0.013031,-0.057335l-0.054729,-0.096427l-0.005212,-0.075578l-0.031274,-0.010425l-0.070365,0.041698l-0.03388,0.083396l-0.078184,0.086002l-0.015637,0.03388l0.015637,0.052123l-0.036486,0.08079l-0.028667,0.026061l-0.020849,0.059941l-0.049516,0.041698l-0.04691,0.096427l-0.044304,0.031274l-0.031274,0.11467l0.031274,0.093821l0.010425,0.169398l-0.013031,0.070365l-0.104245,0.19546l-0.093821,0.119882l-0.054729,0.041698l-0.028667,0.052123l-0.054729,0.010425l-0.023455,0.041698v0.091215l0.057335,0.109457l0.002606,0.072972l-0.026061,0.041698v0.057335l0.039092,0.091215Z M1124.818448,334.442585l0.048648,0.20849l0.059072,0.062547l0.076446,0.20849l0.083396,0.079921l0.194591,0.034748l0.232814,-0.017374l0.156368,-0.066022l0.024324,-0.062547l0.132044,-0.10772l0.055597,-0.097295l0.031274,-0.187641l-0.013899,-0.076446l-0.066022,-0.066022l-0.180692,-0.062547l-0.048648,-0.052123l-0.173742,-0.097295l-0.191116,-0.045173l-0.079921,0.017374l-0.017374,0.069497l-0.111195,0.118145l-0.055597,0.034748l-0.093821,0.010425l-0.052123,0.038223l-0.010425,0.055597Z M1100.308671,359.702927l0.093821,0.018243l0.086002,-0.005212l0.013031,-0.039092l-0.015637,-0.039092l-0.096427,-0.015637l-0.075578,0.015637l-0.020849,0.03388l0.015637,0.031274Z M1100.225274,358.521482v-0.031274l-0.023455,-0.026061l-0.028667,0.005212l-0.005212,0.020849l0.028667,0.039092l0.028667,-0.007818Z M1100.921111,359.055738l0.031274,-0.010425l-0.013031,-0.026061h-0.026061l-0.013031,0.023455l0.020849,0.013031Z M1100.123635,358.422449l0.002606,0.031274l0.031274,-0.010425l0.010425,-0.020849l-0.023455,-0.010425l-0.020849,0.010425Z M1100.944566,358.987979l0.020849,0.007818l0.044304,-0.031274l0.010425,-0.020849l-0.007818,-0.018243l-0.03388,0.013031l-0.03388,0.049516Z M1101.491853,358.664819l0.031274,0.005212l0.03388,-0.031274v-0.028667l-0.036486,-0.044304h-0.026061l-0.023455,0.036486l-0.002606,0.036486l0.023455,0.026061Z M1101.098328,358.59706l0.044304,0.023455l0.039092,-0.013031l-0.002606,-0.031274l-0.049516,-0.057335l-0.039092,-0.007818l-0.03388,0.020849l-0.026061,0.036486l0.002606,0.031274l0.065153,-0.002606Z M1101.173906,358.990585l0.049516,0.028667l0.044304,-0.010425l0.026061,-0.03388l0.002606,-0.059941l-0.023455,-0.010425l-0.036486,0.007818l-0.026061,-0.020849l-0.039092,0.002606l-0.023455,0.023455l0.026061,0.072972Z M1097.316834,358.185291l0.097295,-0.00695l0.066022,0.00695l0.079921,-0.00695l0.076446,-0.062547l-0.003475,-0.027799l-0.135519,-0.045173l-0.149418,0.024324l-0.079921,0.055597l-0.00695,0.045173l0.055597,0.017374Z M1099.387838,353.000831l0.045173,-0.020849l0.041698,0.003475l0.027799,-0.024324l-0.027799,-0.031274l-0.059072,-0.003475l-0.048648,0.031274l-0.010425,0.031274l0.031274,0.013899Z M1099.995935,352.3215l0.027799,-0.020849l-0.024324,-0.024324l-0.024324,0.003475l-0.013899,0.024324l0.034748,0.017374Z M1099.658876,353.011256l0.027799,0.031274h0.027799l-0.003475,-0.034748l-0.038223,-0.017374l-0.013899,0.020849Z M1103.76961,357.43212l0.075578,-0.026061l0.031274,-0.044304l-0.018243,-0.059941l-0.093821,-0.028667l-0.072972,0.020849l-0.028667,0.054729l0.015637,0.059941l0.091215,0.023455Z M1103.772216,357.012533l0.026061,-0.005212v-0.026061l-0.028667,-0.026061l-0.031274,0.002606l-0.007818,0.020849l0.041698,0.03388Z M1105.742806,356.220165l-0.007818,0.020849l0.039092,0.03388h0.03388l0.018243,-0.028667l-0.031274,-0.028667l-0.052123,0.002606Z M1105.810566,357.067157l0.026061,-0.013031l-0.013031,-0.03388l-0.036486,-0.015637l-0.023455,0.007818l0.002606,0.03388l0.044304,0.020849Z M1105.406616,356.644964l0.013031,0.067759l0.078184,0.013031l0.028667,-0.026061l0.039092,-0.002606l0.03388,0.023455l0.08079,-0.002606l0.020849,-0.04691l-0.018243,-0.08079l-0.044304,-0.04691l-0.1277,-0.052123l-0.039092,0.018243l-0.013031,0.086002l-0.020849,0.015637l-0.054729,-0.013031l-0.007818,0.020849l0.031274,0.026061Z M1106.039905,357.069763l0.104245,-0.013031l0.101639,-0.031274l0.130306,-0.013031l0.174611,0.007818l0.057335,0.020849l0.018243,-0.013031l-0.067759,-0.052123l-0.041698,-0.067759l-0.044304,-0.031274l-0.054729,-0.002606l-0.059941,-0.026061l-0.028667,-0.04691l-0.075578,-0.041698l-0.070365,0.002606l-0.054729,-0.036486v-0.054729l-0.013031,-0.028667l-0.036486,-0.018243l-0.044304,-0.04691l-0.052123,-0.130306l-0.03388,-0.023455l-0.041698,-0.059941l-0.036486,-0.013031l-0.007818,0.023455l0.099033,0.153762l-0.002606,0.039092l-0.031274,0.026061l-0.020849,0.028667l0.002606,0.067759l-0.026061,0.028667l-0.036486,0.002606l-0.026061,0.015637l0.005212,0.044304l0.054729,0.039092l0.03388,0.052123l-0.010425,0.044304l-0.031274,0.005212l-0.031274,-0.028667l-0.020849,0.007818v0.049516l0.04691,0.057335l0.122488,0.057335l0.049516,0.005212Z M1101.761153,358.595322l0.055597,0.020849l0.090346,-0.031274l0.020849,-0.048648l0.041698,-0.020849l0.045173,0.031274l0.072972,-0.010425l0.038223,-0.076446l0.024324,-0.211965l-0.034748,-0.048648l0.003475,-0.093821l0.041698,-0.062547l0.052123,-0.024324l0.024324,-0.031274v-0.041698l0.024324,-0.041698l0.052123,-0.031274l0.017374,-0.045173l-0.010425,-0.041698l0.031274,-0.045173l0.069497,-0.055597l0.031274,-0.059072l-0.017374,-0.090346l-0.090346,-0.010425l-0.027799,0.017374v0.052123l-0.041698,0.090346l-0.038223,0.010425l-0.010425,0.031274l0.017374,0.048648l-0.027799,0.121619l-0.031274,0.010425l-0.034748,-0.024324l-0.045173,0.00695l-0.072972,0.086871l-0.020849,0.121619l-0.038223,0.020849l-0.048648,-0.017374l-0.066022,0.010425l-0.031274,0.024324l-0.10077,-0.017374l-0.052123,-0.079921l-0.052123,-0.027799l-0.024324,0.00695l0.031274,0.059072l-0.010425,0.041698l-0.045173,0.013899l-0.069497,-0.00695l-0.052123,0.034748l-0.003475,0.059072l0.024324,0.034748l0.034748,0.003475l0.045173,-0.041698l0.079921,0.013899l0.079921,0.072972l-0.020849,0.076446l-0.083396,0.048648v0.059072l0.10772,0.045173l0.045173,0.062547Z M1100.246124,358.411156l0.020849,0.093821l-0.020849,0.10077l-0.034748,0.003475l-0.076446,-0.041698l-0.118145,0.024324l-0.079921,0.066022l-0.010425,0.038223l0.086871,0.083396l0.090346,0.017374l0.048648,-0.013899l0.010425,-0.048648l0.027799,-0.003475l0.069497,0.059072l0.118145,0.034748l0.187641,0.00695l0.086871,0.041698l0.059072,0.013899l0.038223,-0.020849l-0.010425,-0.062547l0.024324,-0.020849l0.041698,0.013899l0.034748,-0.024324l-0.010425,-0.069497l0.027799,-0.079921l0.097295,-0.125094l-0.017374,-0.052123l-0.142468,-0.059072l-0.031274,-0.052123l-0.166792,-0.031274l-0.076446,0.024324l-0.038223,-0.010425l-0.045173,-0.104245l-0.086871,-0.024324l-0.031274,0.031274l0.020849,0.045173l-0.069497,0.052123l-0.024324,0.093821Z M1117.498885,347.854797l0.099367,0.07344l0.099367,0.015737l0.036609,-0.041966l-0.01569,-0.104914l-0.067988,-0.047211l-0.073218,0.005246l-0.067988,0.047211l-0.01046,0.052457Z M1115.741657,348.017413l0.020919,0.03672l0.156895,-0.136388l0.109827,-0.104914l0.026149,-0.078685l0.073218,-0.078685l-0.020919,-0.03672l-0.120286,0.03672l-0.193504,0.246548l-0.020919,0.07344l-0.031379,0.041966Z M1115.788726,348.363629l0.062758,-0.010491l0.031379,-0.099668l-0.031379,-0.062948l-0.078448,-0.010491l-0.062758,0.052457l0.020919,0.099668l0.057528,0.031474Z M1111.236621,350.603167l0.130746,0.03672l0.052298,0.094423l0.094137,0.078685l0.041839,-0.005246l-0.00523,-0.11016l0.041839,-0.052457l-0.00523,-0.068194l-0.104597,-0.125897l-0.099367,-0.020983l-0.193504,0.068194l-0.01569,0.057703l0.062758,0.047211Z M1113.210411,349.6803l0.041839,-0.047211l-0.036609,-0.052457l-0.062758,0.005246l-0.047069,0.062948l0.01046,0.041966l0.094137,-0.010491Z M1112.928,350.535349l-0.00523,-0.052457l-0.041839,-0.031474l-0.041839,0.020983l0.00523,0.052457l0.047069,0.03672l0.036609,-0.026228Z M1115.161144,349.176713l0.172585,0.005246l0.094137,-0.041966l-0.00523,-0.052457l-0.099367,-0.047211h-0.167355l-0.057528,0.041966l0.01046,0.052457l0.052298,0.041966Z M1115.903782,350.608789l0.104597,-0.083931v-0.068194l-0.065373,-0.010491l-0.044454,0.068194l-0.078448,0.041966l0.00523,0.057703l0.078448,-0.005246Z M1116.000534,350.430435l0.023534,-0.002623l0.020919,-0.023606v-0.028851l-0.026149,-0.005246l-0.018304,0.01836v0.041966Z M1115.814875,350.983856l0.013075,-0.01836l0.007845,-0.03672l-0.020919,-0.015737l-0.023534,0.013114l0.002615,0.031474l0.020919,0.026228Z M1115.872403,350.703211l0.026149,-0.015737l-0.002615,-0.023606h-0.031379l-0.01569,0.023606l0.023534,0.015737Z M1115.629215,351.330073l0.026149,-0.010491l0.023534,-0.034097l-0.020919,-0.002623l-0.020919,0.007869l-0.036609,0.039343h0.028764Z M1116.092057,349.208187l0.041839,-0.031474l-0.020919,-0.041966l-0.036609,0.010491l-0.020919,0.041966l0.036609,0.020983Z M1116.08334,349.390038l0.069731,0.006994l0.012554,-0.028668l-0.016041,-0.048269l-0.047069,-0.038468l-0.062758,0.015737l-0.012203,0.0612l0.055785,0.031474Z M1114.929287,351.596729l0.069731,-0.010491l0.059272,-0.038468l0.027893,-0.059451l0.097624,-0.066446h0.066245l0.132489,-0.108411l0.024406,-0.059451l-0.031379,-0.062948l-0.066245,-0.013989l-0.069731,0.069943l-0.031379,-0.006994l-0.020919,-0.080434l0.006973,-0.066446l0.087164,-0.181851l0.041839,-0.031474l0.034866,-0.059451l-0.006973,-0.038468l0.024406,-0.045463l0.069731,-0.027977l0.041839,-0.038468l-0.017433,-0.041966l0.017433,-0.027977l0.041839,0.006994l0.097624,0.125897l0.097624,0.045463l0.027893,-0.010491l-0.006973,-0.052457l-0.048812,-0.080434l-0.069731,-0.034971l-0.052298,-0.069943l0.01046,-0.083931l-0.034866,-0.052457l-0.090651,-0.034971l-0.017433,-0.069943l0.052298,-0.104914l0.052298,-0.020983l0.125516,0.010491l0.108083,0.04896l0.045325,-0.017486l0.017433,-0.076937l0.059272,-0.034971l0.062758,0.006994l0.076704,-0.052457l0.006973,-0.080434l0.024406,-0.02448l0.135976,-0.031474l0.031379,-0.038468l-0.041839,-0.045463l0.003487,-0.031474h0.094137l0.045325,0.031474l0.059272,0.006994l0.129003,-0.062948l0.045325,-0.059451l-0.048812,-0.115405l0.024406,-0.010491l0.041839,0.010491l0.034866,-0.034971l-0.027893,-0.045463l0.020919,-0.02448l0.118543,0.013989l0.184788,-0.034971l0.156895,-0.17136l0.020919,-0.101417l0.055785,-0.108411l0.080191,-0.069943l0.024406,-0.052457l-0.027893,-0.055954l0.017433,-0.129394l-0.052298,-0.083931l-0.013946,-0.045463l-0.048812,-0.041966h-0.041839l-0.090651,-0.101417l-0.048812,-0.003497l-0.034866,0.04896l0.020919,0.052457l-0.003487,0.041966l-0.066245,0.094423l-0.017433,0.069943l-0.076704,0.062948l-0.024406,0.052457l-0.188274,0.202834l-0.104597,0.02448l-0.069731,0.094423l-0.01046,0.090925l-0.153409,0.090925l-0.129003,0.027977l-0.097624,-0.055954l-0.020919,-0.045463l0.013946,-0.062948l0.038352,-0.031474l0.01046,-0.034971l-0.181301,-0.069943l-0.080191,-0.003497l-0.108083,0.034971l-0.097624,-0.003497l-0.013946,0.055954l0.038352,0.055954v0.041966l-0.024406,0.045463l0.002702,0.07721l0.042623,0.108138l0.076704,0.020983l0.062758,-0.02448l0.177815,0.076937l0.003487,0.052457l-0.087164,0.094423l-0.247546,0.125897h-0.080191l-0.10111,0.055954l-0.041839,0.090925l-0.087164,0.062948l-0.024406,0.059451l-0.038352,0.020983l-0.038352,-0.02448l-0.041839,0.003497l-0.038352,0.055954l-0.066245,0.020983l-0.066245,-0.052457l-0.027893,0.020983v0.080434l0.083678,0.202834l0.01046,0.101417l0.076704,0.115405l-0.017433,0.062948l-0.146436,0.062948l-0.090651,0.059451l-0.045325,0.108411l-0.090651,0.045463l-0.038352,0.108411l0.003487,0.181851l0.069731,0.108411l-0.006973,0.132891l0.059272,0.034971l0.108083,-0.041966Z M1115.53595,349.432004l0.003487,-0.045463l-0.034866,-0.010491l-0.017433,0.034971l0.017433,0.034971l0.031379,-0.013989Z M1113.220871,351.313461l0.024406,-0.02448v-0.041966l-0.024406,-0.02448l-0.027893,0.017486v0.055954l0.027893,0.017486Z M1113.224358,351.11937h0.026149l0.013946,-0.038468l-0.013946,-0.019234l-0.024406,0.006994l-0.019176,0.027977l0.017433,0.022731Z M1113.399258,351.284828l0.031951,0.015327l0.009724,-0.058522l-0.029173,-0.105898l-0.045843,-0.033441l-0.034729,0.018114l-0.013892,0.047375l0.062513,0.044588l0.019448,0.072456Z M1113.961875,351.148276l0.018059,0.00836l0.047232,-0.058522l0.002778,-0.032048l-0.020838,-0.011147l-0.020838,0.027868l-0.026394,0.065489Z M1113.814622,350.946235l0.01667,0.022294h0.018059l0.005557,-0.030655l-0.023616,-0.013934l-0.01667,0.022294Z M1113.497889,351.159423l0.006946,-0.022294l-0.009724,-0.037622l-0.013892,-0.009754l-0.009724,0.019507l0.011113,0.045982l0.015281,0.00418Z M1113.396479,351.061886l0.08474,0.006967l0.06807,-0.040408l0.006946,-0.033441l-0.030562,-0.029261l-0.043065,-0.00418l-0.034729,0.033441l-0.058345,0.019507l-0.015281,0.034835l0.022227,0.012541Z M1113.704877,351.022871l0.008335,-0.030655l-0.002778,-0.027868l-0.020838,0.00836l-0.011113,0.033441l0.012503,0.030655l0.013892,-0.013934Z M1113.618748,351.376792l0.01667,-0.027868l0.037508,-0.020901l0.012503,-0.033441l-0.018059,-0.040408l0.002778,-0.029261l0.019448,-0.020901l0.020838,-0.096144l-0.018059,-0.040408h-0.031951l-0.026394,0.037622l-0.01667,0.087784l-0.019448,0.023688l0.001389,0.039015l0.018059,0.037622l-0.01667,0.059916l0.005557,0.027868l0.012503,-0.00418Z M1116.935703,344.602322l-0.015529,-0.041415l-0.028469,-0.020708l-0.018117,0.015531l0.010352,0.046592l0.04141,0.025885l0.010352,-0.025885Z M1123.213305,342.911139l0.093171,-0.010332l0.075917,-0.058548l0.17599,-0.241082l-0.010352,-0.058548l-0.055213,-0.013776l-0.189794,0.154981l-0.124229,0.027552l-0.055213,0.065437l0.020705,0.082657l0.069016,0.05166Z M1118.349897,346.502888l0.049174,-0.049181l0.064702,-0.103538l0.183755,-0.11648v-0.03365l-0.05435,-0.005177l-0.150109,0.077654l-0.196695,0.072477l-0.207048,0.015531l-0.036233,-0.025885h-0.033645l-0.038821,0.108715l0.020705,0.077654l0.100936,0.093184l0.09576,0.005177l0.201871,-0.11648Z M1120.345696,343.947792l0.04141,-0.072325l0.013803,-0.075769l-0.04486,-0.01722l-0.037959,0.03444l-0.024156,0.106765l0.020705,0.044772l0.031057,-0.020664Z M1120.545842,343.934015h0.069016l0.106975,0.05166l0.020705,-0.037884l-0.020705,-0.044772l-0.103524,-0.01722l-0.04486,-0.03444l-0.04486,-0.003444l-0.020705,0.041328l0.037959,0.044772Z M1120.438868,342.900807l0.065565,0.024108l0.048311,-0.01722l-0.031057,-0.05166l-0.184044,-0.033007l-0.012892,0.020478l0.096863,0.026305l0.017254,0.030996Z M1120.940958,343.744594l0.029332,0.006888l0.065565,-0.068881v-0.075769l-0.037959,-0.024969l-0.075055,0.012915l-0.12164,-0.018081l-0.13113,-0.059409l-0.010352,-0.068881l-0.034508,-0.03444l-0.075917,-0.01722l-0.020705,-0.055104l0.013803,-0.055104l-0.04141,-0.037884l-0.089721,0.03444l0.003451,0.061993l0.072467,0.099877l0.051762,0.024108l0.020705,0.055104l0.003451,0.148093l0.024156,0.013776l0.082819,-0.072325l0.034508,0.010332l0.037959,0.123985l0.037959,0.01722l0.027606,-0.013776l0.013803,-0.066298l0.048311,-0.023247l0.042272,-0.005166l0.031057,0.023247l-0.002588,0.064576Z M1119.565817,345.346636l0.103524,-0.034513l0.072467,-0.058672l0.096622,-0.179466l0.027606,-0.1346l-0.096622,-0.158759l-0.110425,-0.062123l-0.034508,-0.169112l0.037959,-0.069025l-0.027606,-0.044867l-0.189794,-0.010354l-0.100073,0.062123v0.32442l0.055213,0.096636v0.072477l-0.062114,0.086282l0.003451,0.069025l0.096622,0.069025l0.037959,0.127697l0.089721,0.013805Z M1120.352598,343.086784l0.04141,0.041328l0.231203,0.041328l0.069016,-0.030996h0.048311l0.055213,0.044772l-0.037959,0.037884l-0.003451,0.05166l0.04141,0.044772l0.034508,0.106765l0.096622,0.061993l0.138032,0.027552l0.051762,0.075769l0.037959,-0.006888v-0.058548l-0.082819,-0.113653l0.013803,-0.030996l0.148384,0.027552l0.027606,-0.01722l-0.013803,-0.068881l0.031057,-0.03444l0.110425,-0.020664l0.106975,-0.089545l-0.037959,-0.079213l-0.151835,-0.024108l-0.010352,-0.020664l0.093171,-0.013776l0.04486,-0.05166v-0.092989l0.034508,-0.013776l0.089721,0.013776l0.179441,-0.072325l-0.003451,-0.041328l0.017254,-0.037884l0.103524,-0.048216l0.158736,-0.254858l0.055213,-0.024108l0.082819,0.027552l0.13113,-0.027552l0.120778,-0.096433l0.010352,-0.161869l-0.082819,-0.082657l-0.04141,-0.141205l-0.055213,0.003444l-0.069016,0.086101l-0.020705,0.241082l-0.034508,0.055104h-0.051762l-0.003451,-0.168757l-0.034508,-0.030996l-0.224302,0.044772l-0.134581,0.079213l-0.037959,0.182534l-0.04141,0.003444l-0.034508,-0.041328l-0.110425,0.003444l-0.04486,0.072325l-0.051762,0.01722l-0.04486,-0.006888l-0.157874,0.087823h-0.103524l-0.124229,0.075769l-0.014666,0.049938l-0.057801,0.042189h-0.098348l-0.134581,0.059409l-0.026744,0.056826l0.018979,0.05166l0.09576,0.02583l0.12164,-0.018081l0.005176,0.019803l-0.049174,0.042189l-0.093171,0.023247l-0.269162,-0.002583l-0.131993,0.02583l-0.001725,0.049077l0.075917,0.024108Z "/>
</svg>
