<svg xmlns="http://www.w3.org/2000/svg" viewBox="898.197 279.458 40.611 17.997">
  <path d="M902.868,294.487l0.013,-0.07l0.06,-0.055h0.149l0.133,0.065l0.381,-0.005l0.031,0.021v0.084l-0.044,0.054l-0.238,0.144l-0.065,0.109l-0.081,0.05l-0.047,-0.013l0.034,-0.165l-0.031,-0.046h-0.057l-0.045,0.026l-0.109,-0.037v-0.039l0.023,-0.023l-0.018,-0.045l-0.089,-0.055z M904.728,292.842l0.005,-0.063l0.037,-0.042l0.031,0.006l0.003,0.052l-0.011,0.062l-0.036,0.013l-0.029,-0.028z M904.637,293.113l0.026,-0.031h0.133l0.117,0.086l0.071,0.24v0.088l0.031,0.065l0.013,0.092l0.049,0.065l-0.002,0.057l0.036,0.034l0.073,-0.047l0.136,-0.005l0.06,-0.039l0.026,0.018l-0.031,0.084l-0.065,0.049h-0.113l-0.007,0.029l0.075,0.047l-0.002,0.057l-0.089,0.039v0.026l0.245,0.016l0.024,0.039v0.042l0.034,0.029l-0.003,0.026l-0.026,0.015l-0.008,0.026l0.018,0.032l-0.018,0.018l-0.042,-0.026l-0.028,0.005l-0.013,0.034l-0.149,0.008l-0.037,0.016l-0.036,-0.008l-0.008,-0.068l-0.023,-0.034l-0.037,-0.005l-0.044,0.042l-0.013,0.052l0.013,0.041l-0.019,0.019l-0.036,-0.039l-0.102,-0.011l-0.026,-0.031l0.047,-0.068l0.039,-0.003l0.031,-0.026l0.003,-0.065l0.044,-0.052l0.087,-0.021l0.005,-0.039l-0.102,-0.081v-0.047l0.023,-0.021l0.027,0.006l0.007,0.026l0.032,-0.006l-0.003,-0.062l-0.055,-0.052l-0.177,-0.013l-0.055,-0.05l-0.06,-0.016l-0.047,-0.041l-0.023,-0.136l0.044,-0.091l0.003,-0.131l-0.034,-0.156l-0.039,-0.047z M907.305,294.034l0.018,0.028l0.065,0.011l0.024,0.028v0.05l0.031,0.016l0.076,-0.058l0.028,-0.062l0.037,-0.008l0.023,0.026l0.107,0.013l0.039,0.029h0.034l0.037,-0.115l-0.029,-0.039l-0.065,-0.013l-0.042,-0.024l-0.002,-0.034l-0.029,-0.021l-0.031,-0.002l-0.06,-0.06l-0.024,0.008l0.024,0.062l-0.026,0.073l-0.058,0.039l-0.081,0.003l-0.096,0.05z M904.419,283.933l0.09,0.036h0.109l0.047,-0.055l-0.004,-0.055l0.063,-0.066h0.133l0.039,0.039l0.098,0.031l0.098,-0.008l0.258,0.149l0.031,0.062l0.051,0.032l0.063,-0.02l0.058,0.028l0.051,0.074l0.016,0.051l-0.063,0.058v0.063l-0.094,0.114l-0.078,0.011l-0.086,-0.015l-0.102,0.019l-0.156,0.106l-0.031,0.066l-0.055,0.043l-0.074,0.008l-0.192,0.118l-0.059,0.105l-0.078,0.028l-0.16,-0.008l-0.216,-0.086l-0.058,0.011l-0.008,0.086l-0.043,0.047l-0.024,0.086l0.043,0.067l0.008,0.153l-0.062,0.101l-0.09,0.016l-0.141,-0.055l-0.055,0.008l-0.02,0.074l-0.047,0.016l-0.05,-0.027l-0.133,0.003l-0.106,0.059l-0.137,0.219l-0.066,0.016l-0.047,0.055l0.011,0.058l-0.035,0.039l-0.098,0.016l-0.144,0.074l-0.059,0.098l-0.016,0.165l-0.047,0.066l-0.105,0.016l-0.165,0.117l-0.074,0.02l-0.067,0.051l-0.058,0.109l-0.094,0.055l-0.133,0.027l-0.153,0.102l-0.086,-0.024l-0.09,0.012l-0.023,0.043l0.023,0.059l-0.023,0.051l-0.063,0.027l-0.039,0.055l0.012,0.066l-0.012,0.059l-0.035,0.031l0.008,0.047l0.105,0.024l0.051,0.047l0.098,0.015l0.106,-0.039l0.058,-0.07l0.067,0.004l0.058,0.051l0.098,0.047l0.047,0.004l0.047,0.031l0.004,0.051l0.035,0.027l0.043,-0.008l0.063,0.024l0.055,0.066l0.137,0.11l0.015,0.074l0.071,0.039l0.195,-0.039l0.09,-0.082l0.024,-0.07l0.09,-0.067h0.148l0.145,-0.055l0.141,0.008l0.031,0.031v0.055l0.129,0.192l0.083,0.082l0.015,0.266l-0.039,0.043l-0.008,0.055l0.032,0.047l-0.004,0.07l-0.028,0.059l0.008,0.133l0.051,0.027l0.094,-0.019l0.078,-0.078h0.086l0.075,0.058l0.031,0.071l0.18,0.125l0.019,0.058l0.09,0.044l0.11,-0.04l0.078,-0.062l0.102,0.004l0.125,0.051l0.145,0.137l0.066,-0.004l0.035,-0.122l0.044,-0.023l0.031,0.023l0.043,-0.011l0.012,-0.059l0.058,-0.012l0.184,0.031l0.118,0.063l0.023,0.137l0.043,0.059l0.07,-0.004l0.028,-0.118l0.043,-0.004l0.102,0.13l0.082,0.015l0.047,0.051l0.066,-0.008l0.141,-0.148l-0.008,-0.083l-0.047,-0.039l-0.008,-0.066l0.083,-0.063l0.004,-0.074l-0.055,-0.078l0.008,-0.118l-0.032,-0.047l0.02,-0.07l0.086,-0.063l0.059,0.008l0.035,0.039l0.231,0.012l0.129,-0.051l0.094,-0.184h0.031l0.012,0.039l0.039,-0.004l0.094,-0.183l-0.032,-0.047l0.008,-0.047l0.071,-0.028l0.004,-0.074l-0.047,-0.184l-0.055,-0.055l-0.106,0.032l-0.035,-0.02l0.031,-0.043l0.153,-0.016l0.07,-0.062l0.047,-0.094l0.094,-0.078l0.063,0.004l0.027,0.043l-0.043,0.035l-0.016,0.035l0.02,0.059l-0.031,0.113l0.015,0.043l-0.015,0.051l-0.067,0.027l-0.047,0.09l-0.004,0.063l0.063,0.07l0.059,-0.007l0.019,-0.047l-0.027,-0.059l0.023,-0.039l0.086,0.055l0.071,-0.008l0.051,-0.075l0.047,0.004l0.023,0.047l-0.02,0.051l0.079,0.118l0.07,0.019l0.027,0.051l-0.031,0.063l0.024,0.039l0.066,0.004l0.055,-0.036h0.047l0.031,0.055l-0.031,0.051l0.059,0.106l0.074,0.047v0.05l-0.071,0.079l-0.003,0.074l0.031,0.055l0.004,0.047l-0.078,0.07l-0.012,0.164l0.043,0.063l0.129,0.063l0.066,0.004l0.047,-0.043l0.133,0.003l0.071,0.067l0.105,0.023l0.055,0.051l0.063,0.008l0.062,-0.055l0.047,-0.082l0.184,-0.055l0.039,0.024l-0.007,0.066l-0.055,0.032l-0.012,0.043l0.117,0.07l0.13,0.231l-0.004,0.106l-0.09,0.101l-0.059,-0.011l-0.024,0.047l0.028,0.043l0.062,0.011l0.063,-0.043l0.219,-0.023l0.117,-0.102l0.137,-0.043l0.043,-0.063l0.043,-0.003l0.11,0.105l0.102,0.012l0.051,-0.035l0.125,0.047l0.129,0.137l-0.012,0.078l0.043,0.027l0.149,0.02l0.094,0.066l0.113,0.18v0.078l-0.051,0.051l0.004,0.047l0.082,0.036l0.145,0.003l0.161,0.075l0.242,0.015l0.164,-0.054l0.18,-0.004l0.149,0.07l0.094,0.11l0.129,0.054l0.063,-0.019l0.086,-0.102l0.16,-0.074l0.344,0.012l0.086,0.031l0.032,0.082l-0.035,0.074l0.023,0.032l0.063,-0.036l0.035,0.028l0.004,0.047l0.117,0.055l0.02,0.05l-0.039,0.036l-0.094,-0.016l-0.059,-0.051h-0.078l-0.039,0.055l0.054,0.09l-0.007,0.066l-0.047,-0.004l-0.059,-0.078l-0.027,-0.09l-0.09,-0.019l-0.024,0.054h-0.031l-0.028,-0.046l-0.148,-0.02l-0.122,0.02l-0.168,0.136l-0.125,0.063l-0.125,0.004l-0.055,0.039l0.008,0.09l-0.055,0.055h-0.141l-0.062,0.047l-0.008,0.074l-0.11,0.114l-0.023,0.09l0.031,0.097l-0.031,0.024l-0.051,-0.047l-0.07,-0.016l-0.028,0.043l-0.035,-0.004l-0.027,-0.054l-0.067,-0.004l-0.031,0.047l0.008,0.234l-0.055,0.071l-0.098,-0.004l-0.168,-0.094h-0.063l-0.168,-0.043l-0.063,-0.098h-0.039l-0.027,0.059l-0.059,-0.004l-0.086,-0.086l-0.055,-0.106l-0.07,-0.074h-0.078l-0.055,0.051l-0.09,-0.004l-0.008,0.031l0.082,0.078l0.149,0.082l0.012,0.083l-0.118,0.086l0.004,0.043l0.106,0.035l0.066,0.102v0.09l-0.054,0.051l-0.04,0.113l0.028,0.086l-0.028,0.035l-0.121,-0.019l-0.203,-0.188l-0.043,0.004l-0.047,0.036h-0.047l-0.034,-0.015l-0.016,-0.05l-0.068,-0.031l-0.013,-0.039l0.021,-0.05l-0.044,-0.034l-0.133,-0.005l-0.024,0.021l-0.036,-0.008l-0.013,-0.049l-0.034,0.002l-0.039,0.047l-0.076,0.042l-0.161,0.141l-0.003,0.034l0.036,0.013l0.003,0.031l-0.049,0.034l-0.003,0.036l-0.057,0.05l-0.068,0.018l-0.066,0.058l-0.028,0.052l-0.159,0.133l-0.107,0.047l-0.005,0.047l0.106,0.086l0.144,0.005l0.057,0.029l0.003,0.039l-0.065,0.047l-0.045,0.01l-0.041,-0.031l-0.05,-0.003l-0.034,0.05l-0.06,0.028l-0.068,-0.005l-0.018,0.021l0.052,0.031l-0.01,0.021l-0.068,0.011l-0.049,-0.021l-0.034,-0.05l-0.086,-0.023l-0.092,0.002l-0.12,0.029l-0.034,0.055l0.011,0.094l0.026,0.028l-0.018,0.032l-0.071,0.005l-0.042,0.023l-0.028,0.047l-0.058,0.032l-0.101,0.007l-0.063,0.06l-0.01,0.068l-0.021,0.011l-0.029,-0.045l-0.005,-0.07l-0.037,-0.029l-0.054,-0.002l-0.11,-0.081l0.021,-0.018l0.073,0.031l0.039,-0.031l-0.016,-0.066v-0.044l0.019,-0.037l-0.013,-0.046l-0.06,-0.042l-0.029,-0.055l-0.097,-0.01l-0.026,0.028h-0.028l-0.032,-0.018l-0.026,0.021l0.003,0.12l0.039,0.07l-0.023,0.05l-0.066,0.005l-0.047,-0.039l-0.06,-0.005l-0.028,0.015l-0.133,-0.039l-0.045,-0.002l-0.039,-0.029l-0.018,-0.102l0.029,-0.062l-0.05,-0.045l-0.104,0.016l-0.149,-0.039l-0.094,-0.05l-0.062,-0.068l-0.066,0.011l-0.075,-0.034l-0.11,0.003l-0.065,0.02l-0.047,-0.028l0.013,-0.065l-0.06,-0.032h-0.055l-0.023,0.039h-0.037l-0.067,-0.047l-0.131,-0.007l-0.133,0.031l-0.047,0.003l-0.034,-0.008l-0.049,0.005l-0.219,0.177l-0.123,0.021l-0.039,-0.018h-0.05l-0.057,0.036h-0.047l-0.047,-0.013l-0.034,0.013v0.071l0.058,0.042l0.031,0.054l0.003,0.103l-0.004,0.026l-0.27,0.101l-0.141,0.069l-0.058,0.061l-0.092,-0.002l-0.012,-0.075l-0.043,-0.008l-0.047,0.04l0.01,0.09l-0.033,0.109l-0.112,0.065l-0.336,0.037l-0.096,0.068l-0.028,0.12l-0.048,0.031l-0.008,0.082l0.019,0.041l-0.006,0.063l-0.045,0.041l-0.045,0.137l-0.191,0.119l-0.073,0.006l-0.045,-0.061l0.02,-0.062l0.084,-0.086l0.069,-0.01l0.029,-0.035l-0.006,-0.061l-0.051,-0.094l-0.041,-0.012l-0.043,0.026l-0.031,-0.014l-0.004,-0.059l-0.043,-0.015l-0.037,0.021l-0.174,-0.013l-0.083,0.011l-0.08,-0.035l-0.012,-0.045l-0.082,-0.043h-0.101l-0.051,-0.027l-0.041,-0.084l-0.145,-0.061l-0.041,-0.039l-0.057,-0.002l-0.066,0.021l-0.171,-0.017l-0.049,-0.03l-0.003,-0.115l-0.055,-0.004l-0.03,0.041h-0.035l-0.414,-0.244l-0.01,-0.041l-0.123,-0.053l-0.098,-0.002l-0.159,0.07l-0.452,0.116l-0.148,0.011l-0.133,0.051l-0.09,0.11l-0.258,0.154l-0.157,0.01l-0.084,0.033l-0.104,-0.009l-0.035,-0.055l-0.082,-0.014l-0.029,0.026l0.019,0.06l-0.014,0.033l-0.052,0.03l-0.016,0.043l0.018,0.047l-0.01,0.055l-0.037,0.064l0.007,0.176l0.03,0.11l0.088,0.09l0.008,0.064l-0.028,0.018l-0.096,-0.045l-0.078,0.043l-0.061,0.078l-0.043,-0.008l-0.007,-0.051l-0.036,-0.009l-0.027,0.029l-0.035,-0.014l0.012,-0.207l-0.088,-0.092l-0.061,-0.008l-0.031,0.026l-0.053,-0.008l-0.043,-0.096l-0.047,-0.022l-0.026,0.03l0.042,0.048l0.021,0.084l-0.026,0.093l-0.167,0.173l-0.005,0.083l0.083,0.089l-0.01,0.052h-0.063l-0.047,0.042l0.005,0.083l-0.099,0.099l-0.005,0.099l0.073,0.105l-0.005,0.073l0.198,0.234l-0.005,0.068l-0.057,0.047l0.01,0.151l0.068,0.058l0.021,0.062l-0.037,0.047l0.021,0.047l0.063,0.016l-0.016,0.115l-0.057,0.041v0.058l0.073,0.078l0.057,-0.005l0.083,-0.141h0.053l0.015,0.047l0.125,0.073h0.157l0.052,-0.037l0.151,-0.026l0.157,-0.088l0.026,-0.089l0.13,-0.016l0.089,0.037h0.078l0.073,-0.068h0.131l0.245,0.078l0.229,0.178l0.094,-0.021l0.079,-0.125l0.125,-0.016l0.177,0.057l0.005,0.068l0.058,0.037l0.104,-0.063l0.057,-0.083l0.173,-0.053l0.093,0.004l0.053,0.028l0.067,0.084l0.054,0.033l0.042,-0.002l0.072,-0.042l0.046,-0.052l0.045,0.008l0.013,0.029l0.08,0.033l0.008,0.024l-0.01,0.021l0.04,0.062l0.077,0.034l0.099,0.003l0.043,-0.029l0.05,-0.062l0.011,-0.042l0.027,-0.026l0.037,-0.003l0.04,-0.028l0.045,-0.097l0.046,0.003l0.021,0.034l0.083,0.039l0.05,0.002l0.038,-0.034l0.018,-0.07h0.038l0.059,0.057l0.034,-0.002l0.075,-0.078l0.112,-0.024l0.037,-0.042h0.04l0.062,0.05l0.024,0.044l0.061,0.018l0.04,0.029l0.067,0.005l0.051,-0.01l0.106,0.021l0.027,0.044l0.061,0.05l0.04,0.06l0.014,0.08l0.096,0.105l0.074,0.02l0.102,0.076l0.016,0.133l-0.054,0.052l-0.002,0.05l0.08,0.117l0.035,0.013l0.037,-0.008l0.1,0.044l0.109,-0.023l0.083,-0.076l0.048,0.003l0.043,0.057l0.045,0.021l0.045,-0.002l0.054,-0.094l0.005,-0.063l0.016,-0.021l0.038,0.006l0.125,0.091l0.056,0.008l0.067,-0.013l0.058,0.002l0.056,0.021l0.051,-0.008l0.035,-0.057v-0.055l0.026,-0.057l0.022,-0.183l0.043,-0.041l-0.003,-0.045l0.024,-0.023l0.083,0.002l0.093,0.032l0.12,0.005l0.104,-0.037h0.061l0.07,-0.026l0.053,-0.057l0.032,-0.003l0.064,0.092h0.048l0.04,-0.042l0.075,-0.047l0.04,-0.128l0.032,-0.028l0.096,-0.011l0.051,0.021l0.12,-0.013l0.021,-0.042l-0.002,-0.033l0.016,-0.027l0.192,-0.033l0.016,-0.029v-0.052l0.026,-0.003l0.067,0.05l0.155,0.07l0.067,0.094l-0.003,0.078l-0.091,0.151l-0.005,0.052l0.043,0.107l0.008,0.068l0.042,0.044l0.054,0.003l0.053,0.031h0.037l0.027,-0.031l0.048,-0.005l0.053,0.057l0.15,-0.01l0.053,-0.032h0.19l0.138,-0.031l0.024,0.029l-0.01,0.034l0.018,0.044l0.062,0.044v0.058l0.021,0.057l-0.011,0.057l-0.042,0.065l-0.043,0.011l-0.035,0.026l-0.01,0.042l-0.054,0.075v0.031l0.099,0.133l0.029,0.06l0.046,0.045h0.04l0.077,-0.05l0.083,-0.013l0.148,0.005l0.067,-0.044l0.016,-0.073l0.035,-0.021l0.032,0.008l0.027,-0.008l0.005,-0.049l0.035,-0.024l0.04,-0.005l0.08,-0.06l0.056,0.01l0.064,-0.018l0.04,-0.042l0.05,-0.005l0.081,0.058l-0.003,0.067l0.027,0.047l0.005,0.045l-0.013,0.031l0.008,0.055l0.082,0.099l0.059,0.023l0.085,-0.026l0.11,0.005l0.053,0.037l-0.003,0.057l0.032,0.031l0.048,-0.002l0.038,0.028l0.008,0.032l-0.019,0.026l0.024,0.104l0.056,0.065l0.048,0.003l0.022,-0.026l-0.008,-0.063l0.024,-0.044l0.09,-0.071l0.091,-0.192l0.003,-0.06l0.05,-0.086l0.056,-0.034l0.03,-0.045l0.05,-0.026l0.073,0.006l0.069,-0.008l0.043,-0.034l0.074,-0.003l0.206,-0.031l0.024,-0.026l-0.016,-0.047l0.026,-0.036l0.169,-0.029l0.082,0.021l0.054,0.094l0.042,0.005l0.086,-0.06l0.05,-0.102l0.046,-0.021l0.058,0.024l0.126,0.008l0.064,-0.021l0.045,0.005l0.088,0.06l0.214,0.068l0.018,0.049l0.035,0.008l0.083,-0.05h0.072l0.125,0.053h0.051l0.045,-0.06l0.11,-0.032l0.056,0.013l0.048,0.053l0.069,0.005l0.056,-0.026l0.102,-0.003l0.114,0.029l0.07,-0.011l0.04,-0.044l0.104,-0.029h0.075l0.165,0.081h0.12l0.059,-0.039l0.042,-0.003l0.03,0.019l0.061,-0.016l0.003,-0.047l0.061,-0.039h0.171l0.123,-0.029l0.05,-0.023l0.027,-0.07l-0.035,-0.076l0.024,-0.026l0.046,0.01l0.026,-0.005l0.032,-0.06l0.043,-0.018l0.112,0.008l0.059,-0.016l0.027,-0.036l0.232,-0.039l0.16,0.057l0.056,0.002l0.029,-0.036h0.048l0.032,0.029l0.047,-0.016l0.021,-0.029l0.078,-0.018l0.086,0.011l0.037,0.023l0.153,0.016l0.165,-0.003l0.057,-0.026h0.047l0.049,0.01l0.261,-0.06l0.021,-0.049l-0.021,-0.031l0.01,-0.058l0.06,-0.06v-0.034l-0.028,-0.023l0.005,-0.034l0.073,-0.034l0.042,-0.052v-0.062l0.018,-0.037l0.07,-0.016l0.026,-0.033l-0.002,-0.032l0.013,-0.034l-0.003,-0.031l-0.029,-0.028l-0.005,-0.131l-0.047,-0.104l0.003,-0.065l-0.044,-0.058v-0.044l-0.027,-0.065l-0.067,-0.034l-0.042,0.005l-0.034,-0.007l-0.013,-0.032l-0.042,-0.005l-0.041,0.021l-0.016,-0.018l0.011,-0.042l-0.021,-0.047l0.007,-0.094l0.032,-0.133l0.06,-0.078l0.091,-0.057l0.044,-0.005l0.055,-0.058l0.018,-0.088v-0.05l-0.039,-0.036l0.003,-0.037l0.086,-0.143l0.091,-0.078l0.065,-0.105l0.003,-0.033l-0.029,-0.037l-0.052,-0.008l-0.052,-0.021v-0.034l0.068,-0.02l0.075,-0.05h0.055l0.021,-0.013l0.005,-0.039l0.047,-0.042l0.01,-0.065l0.065,-0.052l0.047,-0.008l0.076,0.065l0.042,0.003l0.101,-0.034l0.037,-0.078l0.039,-0.011l0.044,0.011l0.065,-0.008l0.17,-0.068l0.054,-0.002l0.034,0.013l0.058,-0.003l0.031,-0.029l0.039,-0.002l0.057,0.112l0.045,0.003l0.033,-0.032l0.063,0.011l0.065,0.052l0.06,0.005l0.052,-0.021l0.034,-0.047l0.172,-0.133l0.091,-0.052l0.047,-0.039l0.034,-0.055l0.051,-0.033l0.05,-0.077l0.036,-0.024l0.061,-0.009l0.042,-0.029l0.047,-0.084l0.048,-0.052l0.014,-0.038l0.063,-0.054l0.042,-0.061l0.052,-0.005l0.028,0.012l0.026,0.002l0.024,-0.012l0.028,0.001l0.041,0.033l0.07,-0.001l0.021,-0.03l0.055,-0.028l0.002,-0.012l-0.017,-0.017l0.001,-0.028l0.077,-0.116l0.002,-0.037l-0.028,-0.04l0.009,-0.019h0.064l0.052,0.016l0.038,-0.002l0.019,-0.019l0.044,-0.004l0.04,0.016l0.052,-0.002l0.026,-0.017l0.042,0.002l0.114,0.043l0.049,0.049l0.05,0.022l0.037,-0.001l0.019,-0.03l0.064,-0.03l0.045,0.004l0.032,-0.026l-0.025,-0.042l-0.095,-0.045l-0.032,-0.035l-0.007,-0.035l-0.038,-0.041l-0.024,-0.005l-0.028,-0.025l-0.021,-0.045l-0.127,-0.092l-0.046,-0.097l0.005,-0.019l0.045,-0.004l0.026,-0.014l0.016,-0.048l0.008,-0.134l0.011,-0.033l0.05,-0.049l0.033,-0.002l0.061,0.025l0.068,0.012l0.047,0.033l0.1,0.049l0.007,0.031l0.026,0.031l0.094,0.035l0.019,0.028l0.084,0.041l0.045,0.002l0.068,-0.038l0.045,0.005l0.064,0.05l0.15,0.037l0.034,0.021l0.042,-0.004l0.014,-0.027l0.035,-0.018l0.034,-0.042l0.051,-0.007l0.041,0.014l0.07,0.006l0.08,0.036l0.151,0.002l0.024,-0.014l0.002,-0.03l0.019,-0.031l0.063,-0.021v-0.017l-0.011,-0.016l0.009,-0.017l0.083,-0.005l0.061,-0.039l0.004,-0.041l0.027,-0.049l0.068,-0.035l0.016,-0.022l-0.009,-0.018l0.021,-0.026l0.071,-0.01l0.051,-0.045l0.029,-0.004l0.018,0.009l0.02,-0.005l0.021,-0.021l0.052,-0.005l0.072,-0.044l0.045,-0.057l0.04,-0.017l0.038,-0.04l0.002,-0.047l0.026,-0.021l0.028,-0.002l0.033,-0.017l0.017,-0.045l0.097,-0.068l0.04,-0.005l0.025,-0.016l0.005,-0.024l0.066,-0.037l0.052,-0.003l0.066,-0.039h0.052l0.017,0.018l-0.019,0.028l0.014,0.026h0.03l0.022,0.024l-0.001,0.036l0.053,0.047l0.002,0.037l-0.031,0.064l0.009,0.224l0.052,0.066l0.033,0.106l0.064,0.037l0.061,-0.007l0.028,0.019l-0.006,0.022l0.013,0.027l0.041,0.001l0.077,0.051l-0.002,0.047l-0.037,0.019l-0.012,0.027l0.002,0.028l-0.031,0.054l-0.068,0.049l-0.042,0.109l-0.001,0.082l-0.026,0.057l0.003,0.049l0.061,0.04l0.024,0.088l0.033,0.037l0.014,0.054l-0.028,0.031l0.007,0.045l0.037,0.018l0.048,-0.019l0.023,-0.061l0.04,-0.014l0.033,0.022l0.113,-0.013l0.043,-0.032l0.061,-0.014l0.044,-0.055l0.045,-0.002l0.029,0.045l0.065,0.018l0.055,-0.011l0.143,0.045l0.022,0.045l0.024,0.002l0.032,-0.04l0.017,-0.045l-0.026,-0.029v-0.061l0.07,-0.047l0.013,-0.037l0.042,-0.029l0.005,-0.031l-0.017,-0.018l0.002,-0.022l0.05,-0.027l0.063,-0.001l0.036,0.014v0.022l0.07,0.071l0.034,0.013l0.059,-0.006l0.014,-0.019l-0.003,-0.026l0.009,-0.026l0.076,-0.05h0.035l0.043,0.028l0.141,0.007l0.08,0.033l0.072,-0.003l0.037,-0.051l0.061,-0.044l0.056,-0.014l0.061,-0.047l0.013,-0.034l0.025,-0.019l0.033,-0.006l0.055,-0.043l0.032,-0.042h0.027l0.037,0.037l-0.019,0.041l0.003,0.027l0.051,0.027h0.04l0.026,0.018l0.003,0.027l0.033,0.025l0.007,0.029l-0.029,0.063l0.007,0.033l0.024,0.016l0.022,0.064l0.025,0.015l0.014,-0.012l-0.007,-0.028l0.007,-0.029l0.043,-0.049l0.031,-0.076l0.03,-0.018l0.031,0.007l0.005,0.03l0.025,0.01l0.043,-0.003l0.035,-0.03l0.09,-0.008l0.045,-0.03l0.009,-0.043l0.044,-0.045l0.033,-0.004l0.022,-0.01l0.012,-0.032l0.025,-0.014l0.057,0.002l0.024,-0.019l-0.001,-0.038l0.024,-0.044l0.068,-0.045l0.017,-0.034v-0.073l0.014,-0.028v-0.051l-0.017,-0.026l0.003,-0.034l0.057,-0.101l0.016,-0.044l0.075,-0.078l0.067,-0.04l0.039,-0.073v-0.036l0.04,-0.044l0.074,-0.015l0.056,-0.023l0.009,-0.04l-0.016,-0.064l0.003,-0.054l0.033,-0.031v-0.026l-0.013,-0.025v-0.024l0.057,-0.049l0.002,-0.029l-0.016,-0.031l-0.063,-0.061l-0.003,-0.051l-0.031,-0.078l0.012,-0.064l0.068,-0.038l0.014,-0.039l0.019,-0.007l0.031,0.014l0.035,-0.001l0.052,-0.04l0.024,-0.091l0.021,-0.026l0.042,-0.007l0.001,-0.012l-0.024,-0.01l-0.002,-0.068l0.033,-0.03l0.004,-0.017l-0.016,-0.024l0.007,-0.03l0.045,-0.068l-0.001,-0.062l-0.025,-0.033v-0.038l0.019,-0.047l0.056,-0.049l0.003,-0.028l-0.013,-0.029l0.003,-0.045l0.083,-0.037l0.051,-0.002l0.028,-0.012l0.001,-0.021l0.072,-0.04h0.074l0.025,0.011l0.029,-0.004l0.016,-0.022l-0.018,-0.058l0.011,-0.041l0.078,-0.103l0.037,-0.002l0.036,0.03l0.05,0.004l0.061,-0.027l0.096,-0.06l0.054,-0.087l0.085,-0.051l0.045,-0.003l0.068,0.049l0.06,0.001l0.068,-0.015l0.131,0.014l0.062,0.04l0.004,0.022l-0.011,0.014l0.002,0.03l0.057,0.033l0.054,0.001l0.033,0.018l0.012,0.021l0.117,0.038l0.022,-0.018l0.002,-0.022l0.026,-0.018l0.047,0.002l0.069,-0.031h0.06l0.013,0.026l-0.012,0.016l0.011,0.024l0.057,-0.002l0.023,0.018l0.01,0.029l0.068,0.004l0.08,-0.027l0.028,-0.045l0.151,-0.088l0.067,0.003l0.016,0.03l0.028,0.007l0.057,-0.032l0.042,0.013l0.002,0.027l0.062,0.032l0.148,-0.002l0.01,0.024l-0.022,0.042l0.001,0.029l0.028,0.013h0.141l0.063,-0.021l0.088,-0.005l0.049,0.034l0.05,0.002l0.021,-0.028l0.038,-0.007l0.037,-0.021l0.028,0.002l0.026,0.012l0.033,0.002l0.046,-0.028h0.035l0.035,0.032l0.127,-0.007l0.036,-0.035l0.07,-0.03l0.01,-0.036l0.021,-0.011l0.075,0.047l0.048,0.009l0.037,-0.021l0.007,-0.036l0.052,-0.072l0.023,-0.005l0.027,0.011l0.032,-0.007l0.022,-0.032l0.004,-0.027l-0.052,-0.061l-0.025,-0.097l0.004,-0.108l0.033,-0.065l0.076,-0.071l0.146,-0.055l0.049,-0.047l0.134,-0.058l0.118,-0.007l0.054,0.025l0.036,-0.002l0.068,-0.035l0.092,-0.015l0.021,-0.025l0.052,-0.01l0.177,-0.094l0.108,-0.009l0.033,-0.017l0.017,-0.057v-0.153l0.023,-0.049l-0.004,-0.08l0.012,-0.048l0.03,-0.03l0.026,-0.092l-0.029,-0.076l0.005,-0.042l0.028,-0.044l0.104,-0.053l0.102,-0.006l0.045,-0.022l0.056,0.003l0.045,0.026l0.186,0.021l0.051,0.019l0.036,-0.002l0.033,-0.033h0.156l0.044,-0.029l0.003,-0.035l0.018,-0.026l0.222,-0.019l0.089,-0.049l0.055,-0.008l0.065,-0.04l0.041,-0.002l0.037,-0.028l0.019,-0.059l0.09,-0.09l0.047,-0.005l0.049,0.046l0.05,0.004l0.052,-0.03h0.035l0.045,0.021l0.037,-0.014l0.057,-0.113l0.13,-0.079l0.002,-0.027l-0.031,-0.02l0.002,-0.025l0.062,-0.083l0.059,-0.011l0.04,0.006l0.139,-0.023l0.04,-0.017h0.038l0.035,0.019l0.045,-0.011l0.025,-0.04l0.079,-0.041l0.03,-0.056l0.04,-0.024l0.045,0.009l0.031,-0.011l0.018,-0.043l0.087,-0.054l0.026,-0.047l0.113,-0.085l0.062,-0.012l0.063,-0.049l0.038,-0.002l0.021,0.021l0.05,0.002l0.035,-0.012l0.002,-0.04l0.029,-0.046l0.038,-0.001l0.063,-0.037l0.066,-0.003l0.038,-0.011l0.026,-0.029l0.054,-0.033l0.038,-0.059l0.037,-0.019l0.047,0.003l0.059,-0.005l0.029,-0.021h0.056l0.036,0.014l0.086,-0.004l0.057,-0.066l0.057,-0.019l0.018,-0.021v-0.024l0.015,-0.028l0.059,-0.022l0.073,-0.092l0.063,-0.039l0.038,-0.055l0.028,-0.005l0.029,0.012l0.046,0.052l0.029,0.002l0.052,-0.061l0.068,-0.047l0.068,-0.089l0.168,-0.036l0.04,-0.024l0.032,-0.004l0.062,0.031v0.016l-0.023,0.009v0.014l0.211,-0.006l0.097,-0.017l0.158,-0.07l0.042,-0.043l0.007,-0.049l0.068,-0.062l0.166,-0.024l0.056,0.008l0.043,-0.002l0.039,-0.019l0.116,0.002l0.049,0.019l0.038,-0.002l0.101,-0.126l-0.004,-0.046l0.014,-0.034l0.035,-0.021l0.014,-0.026l-0.004,-0.04l0.049,-0.063l0.062,-0.024l0.014,-0.028l-0.026,-0.052l0.002,-0.047l0.021,-0.059l0.135,-0.069l0.237,-0.035l0.219,0.003l0.055,-0.021l0.056,-0.003l0.076,0.014h0.077l0.18,0.052l0.08,0.003l0.07,-0.024l0.101,0.007l0.055,-0.021l0.049,-0.073l0.007,-0.048l-0.223,-0.139l-0.041,-0.08l0.003,-0.052l-0.021,-0.053l-0.031,-0.031l0.003,-0.09h0.091l0.003,-0.122l0.038,-0.074l-0.212,-0.281l0.072,-0.031l-0.002,-0.037l-0.111,-0.104l-0.07,-0.016l-0.018,-0.028l0.003,-0.032l-0.023,-0.036l-0.163,-0.016l-0.052,-0.028l-0.059,-0.068l-0.002,-0.034l-0.029,-0.024l-0.054,-0.013l-0.044,-0.083l-0.008,-0.135l-0.049,-0.027l-0.126,-0.02l-0.059,0.013h-0.098l-0.06,-0.021l-0.082,-0.011l-0.062,0.008l-0.186,-0.047l-0.054,0.003l-0.039,-0.013l-0.026,-0.039l-0.134,-0.034l-0.054,-0.031h-0.085l-0.072,0.028l-0.018,0.06l-0.039,0.016l-0.137,0.005l-0.082,-0.018l-0.206,0.002l-0.055,-0.028l-0.007,-0.042l-0.055,-0.062l-0.098,-0.042l-0.031,-0.031v-0.032l-0.023,-0.021l-0.038,-0.005l-0.034,-0.026l-0.005,-0.047l-0.036,-0.049l-0.111,-0.089l-0.029,-0.06l-0.113,-0.091l-0.077,-0.005l-0.049,-0.029l-0.044,-0.049l-0.047,-0.024l-0.062,-0.002l-0.059,-0.029l-0.142,-0.12l-0.108,-0.141l-0.054,-0.154l-0.008,-0.143l0.07,-0.169l0.033,-0.05l-0.178,0.037l-0.41,0.153h-0.026l-0.044,-0.07l-0.147,-0.003l-0.036,-0.013l-0.062,-0.005l-0.08,0.024l-0.031,-0.003l-0.092,-0.057l-0.127,-0.042l-0.041,0.005h-0.039l-0.067,-0.034l-0.09,-0.015l-0.049,0.023l-0.021,-0.002l-0.036,-0.047l-0.119,-0.021l-0.018,0.013l-0.028,-0.005l-0.023,-0.029l-0.065,0.003l-0.051,0.026l-0.093,0.002l-0.088,-0.057l-0.018,-0.06l-0.062,-0.044l-0.054,-0.008l-0.049,0.018l-0.039,-0.008l-0.054,-0.049l-0.067,-0.024l-0.072,-0.065l-0.096,-0.047l-0.018,-0.026l-0.054,-0.002l-0.036,0.023l-0.108,0.024l-0.047,0.036l-0.098,0.01l-0.069,-0.015l-0.052,-0.031l-0.031,0.01l-0.018,0.099l-0.039,0.029l-0.077,0.007l-0.108,-0.005l-0.209,-0.081l-0.075,-0.002l-0.021,0.023l-0.028,-0.002l-0.049,-0.034l-0.044,0.002l-0.077,0.079l-0.103,0.01l-0.075,-0.016l-0.054,0.011l-0.065,0.047l-0.124,-0.005l-0.059,-0.055l-0.103,-0.029l-0.039,0.008l-0.023,0.036l-0.07,0.032l-0.057,-0.008l-0.054,-0.044l-0.02,-0.071h-0.036l-0.042,0.031l-0.041,-0.005l-0.129,-0.07l-0.077,-0.003l-0.031,0.024l-0.075,-0.011l-0.054,-0.073l-0.083,-0.044l-0.059,0.003l-0.049,0.028l-0.209,-0.002l-0.072,-0.047h-0.08l-0.057,0.015l-0.214,-0.013l-0.08,-0.044l-0.018,-0.055h-0.103l-0.034,0.037l-0.129,0.015l-0.041,-0.044h-0.049l-0.046,0.042l-0.119,0.008l-0.219,0.109l-0.057,-0.002l-0.098,-0.055l-0.067,-0.008l-0.039,0.023l-0.067,-0.005l-0.113,0.011l-0.06,-0.026l-0.015,-0.045l-0.155,-0.094l-0.067,0.006l-0.028,-0.024l0.005,-0.073l-0.029,-0.031l-0.077,0.01l-0.173,-0.036l-0.067,0.026l-0.015,0.052l-0.062,0.047l-0.044,-0.005l-0.07,-0.065l-0.033,-0.068l-0.091,-0.016l-0.139,0.024l-0.023,0.036l-0.124,0.013l-0.082,-0.026l-0.06,-0.002l-0.054,-0.034l-0.044,0.01l-0.015,0.076l-0.073,0.062l-0.046,0.005l-0.062,-0.02l-0.085,0.013l-0.031,0.062l-0.008,0.063l-0.126,0.081h-0.077l-0.101,-0.024l-0.08,-0.003l-0.044,0.027l-0.039,-0.003l-0.051,-0.034h-0.052l-0.056,0.029l-0.104,-0.016l-0.1,-0.044l-0.067,0.013l-0.073,0.12l-0.056,0.026l-0.127,0.005l-0.067,0.039l-0.152,0.016l-0.044,0.034h-0.111l-0.103,-0.05l-0.02,-0.068l0.01,-0.039l-0.021,-0.052l-0.224,-0.049l-0.083,-0.006l-0.031,0.021l-0.033,-0.008l-0.023,-0.049l-0.086,-0.008l-0.278,0.037l-0.023,0.023l-0.183,0.013l-0.034,0.023l-0.039,-0.013l-0.028,-0.039l-0.059,-0.026h-0.106l-0.08,-0.036l-0.008,-0.05l-0.036,-0.026l-0.057,-0.005l-0.1,0.047l-0.165,0.008l-0.031,0.018l-0.075,0.003l-0.093,0.122l-0.023,0.091l-0.023,0.05v0.101l-0.039,0.102l-0.065,0.029l-0.139,0.125l-0.067,0.005l-0.111,-0.01l-0.162,-0.066l-0.127,-0.02l-0.093,-0.045l-0.167,-0.007l-0.109,-0.032l-0.056,-0.002l-0.034,0.028h-0.059l-0.098,-0.028l-0.534,-0.093l-0.167,0.037l-0.151,-0.042l-0.141,-0.093l-0.317,-0.152l-0.176,-0.02l-0.512,-0.262l-0.063,-0.063l-0.145,-0.039h-0.211l-0.078,0.039l-0.102,-0.027l-0.141,-0.168l-0.274,-0.2l-0.137,-0.195l-0.277,-0.129h-0.153l-0.203,-0.079l-0.083,-0.101l-0.301,-0.126l-0.051,-0.086l-0.317,-0.113l-0.039,0.035l0.075,0.2l-0.043,0.062l-0.184,-0.004l-0.313,0.055l-0.071,0.055l-0.058,-0.004l-0.086,-0.102l-0.157,-0.109l-0.051,0.054l-0.043,0.204l-0.074,0.09l-0.051,0.129l-0.07,0.012l-0.188,-0.02l-0.031,-0.031l-0.059,-0.004l-0.102,0.059l-0.094,0.015l-0.278,0.165l-0.532,0.195l-0.027,0.106l0.027,0.172l-0.047,0.09l-0.105,0.066l-0.035,0.137l0.062,0.219l-0.008,0.333l-0.043,0.102l-0.094,0.07l-0.093,0.215l-0.004,0.098l-0.036,0.074l-0.054,0.051l-0.008,0.141l0.035,0.051v0.066l-0.035,0.032l-0.008,0.058l0.067,0.2l0.086,0.106l0.035,0.094l0.058,0.054l0.063,0.02l0.063,0.082l-0.016,0.074l-0.102,0.043l-0.074,-0.004l-0.082,-0.046l-0.165,-0.028l-0.093,0.016l-0.118,-0.016l-0.066,-0.047l-0.079,-0.09l0.024,-0.184l-0.07,-0.051l-0.478,-0.07l-0.09,-0.047l-0.168,-0.012l-0.055,0.032l-0.078,-0.004l-0.094,-0.02l-0.082,-0.008l-0.086,0.039l-0.282,-0.019l-0.062,-0.027l-0.028,-0.051l-0.055,-0.02l-0.05,0.016l-0.11,-0.02l-0.145,-0.164l-0.078,-0.141l-0.102,-0.063l-0.09,-0.007l-0.172,-0.059l-0.058,-0.067l-0.192,-0.05l-0.231,0.007l-0.067,0.036h-0.066l-0.094,-0.106l-0.117,-0.031l-0.305,-0.165l-0.126,-0.015l-0.137,-0.063l-0.226,-0.016l-0.055,0.051l-0.059,0.004l-0.063,-0.031h-0.05l-0.059,0.074h-0.078l-0.149,-0.051l-0.051,-0.078l-0.086,-0.035l-0.199,-0.027l-0.13,-0.09l-0.254,-0.086l-0.062,-0.044l-0.169,-0.035l-0.156,0.035l-0.067,0.055l-0.219,0.043l-0.066,-0.035l-0.082,0.012l-0.086,0.117l-0.169,0.059l-0.125,-0.039l-0.078,-0.071l-0.071,-0.004l-0.086,0.051l-0.168,0.004l-0.121,-0.023l-0.121,-0.008l-0.055,0.027l-0.047,0.102l-0.11,0.027l-0.223,-0.05l-0.031,0.031l0.016,0.078l-0.055,0.145l-0.149,0.137l-0.098,0.027l-0.046,0.059l0.023,0.117l-0.02,0.149l-0.043,0.066l-0.039,0.004l-0.019,-0.054l-0.384,0.007l-0.16,0.063l-0.008,0.121l0.172,0.121l0.125,0.184l0.004,0.043l-0.078,0.024l-0.262,-0.078l-0.043,0.011l-0.055,0.118l-0.039,0.133l-0.063,0.058v0.047l0.051,0.036l-0.008,0.035l-0.07,0.043l-0.066,0.078l-0.059,0.024l-0.086,0.164l-0.016,0.125l0.078,0.074l0.004,0.059l0.055,0.012l0.063,-0.031l0.051,0.011l0.027,0.035z"/>
</svg>
