<svg xmlns="http://www.w3.org/2000/svg" viewBox="46.591 433.060 37.876 59.983">
  <path d="M50.329,436.267l0.221,0.18h0.276l0.135-0.163l-0.062-0.181l-0.279-0.235l-0.229-0.008l-0.167,0.177L50.329,436.267z M46.674,433.267l0.212-0.01l0.055-0.085l-0.021-0.104L46.7,433.06l-0.109,0.093L46.674,433.267L46.674,433.267z M57.004,443.566l0.09,0.077l0.115-0.021l0.089,0.052l0.036,0.104l0.245,0.136l0.28,0.002l0.185,0.124l0.077,0.103l0.142,0.045l0.114-0.055l0.052-0.177l-0.063-0.104l-0.401-0.281l-0.042-0.104l0.005-0.13l0.083-0.047l0.052-0.099l-0.016-0.078l-0.12-0.031l-0.224-0.115l-0.068-0.089l-0.136-0.021l-0.151,0.047l-0.05,0.088l0.066,0.068l0.068,0.016l0.068,0.068v0.13l-0.115,0.125l-0.156-0.021l-0.146,0.047L57.004,443.566L57.004,443.566z M66.765,465.458l0.218-0.016l0.031-0.168l-0.127-0.106l-0.168-0.021l-0.085,0.14L66.765,465.458L66.765,465.458z M63.245,471.41l0.194,0.023l0.148-0.14l-0.054-0.14h-0.288l-0.124,0.14L63.245,471.41L63.245,471.41z M76.585,487.747l0.01,0.095l0.102,0.024l0.036-0.065l-0.057-0.074L76.585,487.747z M84.329,487.649l0.138-0.261l-0.069-0.234l-0.124,0.041l-0.081,0.202l0.002,0.167L84.329,487.649z M78.329,492.892l0.124,0.151l0.138-0.041l-0.014-0.165l-0.165-0.055L78.329,492.892L78.329,492.892z"/>
</svg>
