<svg xmlns="http://www.w3.org/2000/svg" viewBox="1329.007 460.820 14.241 7.193">
  <path d="M1339.451629,460.973607l0.006902,-0.009663l-0.00138,-0.012423l-0.011043,-0.006902l-0.009663,-0.031748l0.008282,-0.016564v-0.069018l0.017945,-0.006902l0.042791,0.012423l0.03727,0.005521l0.069018,0.03727l0.027607,0.027607l0.053834,0.042791l0.060736,0.022086l0.019325,0.023466l0.006902,0.026227l0.026227,0.048313l0.00138,0.028988l0.008282,0.031748l0.033129,0.059356l0.00138,0.031748l-0.009663,0.011043l-0.016564,-0.00138l-0.020705,-0.016564l-0.022086,-0.011043l-0.020705,-0.019325l-0.024847,-0.033129l-0.056595,-0.035889l-0.070399,-0.023466h-0.059356l-0.033129,0.006902l-0.019325,-0.012423l-0.016564,-0.024847l-0.005521,-0.024847l0.002761,-0.019325l0.013804,0.002761v0.017945l0.024847,0.041411l0.013804,0.005521l0.012423,-0.005521h0.060736l0.0773,0.023466l0.062116,0.035889l0.034509,0.040031l0.012423,0.005521l0.031748,0.028988h0.009663l-0.005521,-0.011043l0.002761,-0.017945l-0.023466,-0.035889l-0.016564,-0.03727l-0.004141,-0.040031l-0.028988,-0.067638l-0.028988,-0.022086l-0.046932,-0.017945l-0.060736,-0.053834l-0.059356,-0.041411l-0.028988,-0.004141l-0.051074,-0.015184l-0.012423,0.011043l-0.00138,0.026227l0.017945,0.013804l-0.004141,0.012423h-0.015184l-0.004141,0.012423l0.009663,0.013804l-0.00138,0.031748l0.009663,0.024847l-0.011043,0.008282l-0.015184,-0.026227Z M1340.188501,463.903717l0.020787,0.033778l0.018188,-0.007795l0.002598,-0.023385l-0.01559,-0.018188l-0.020787,-0.002598l-0.005197,0.018188Z M1341.802067,462.238184l0.012992,0.03118l0.04677,-0.005197l0.012992,-0.020787l-0.020787,-0.049368l-0.005197,-0.06236l0.007795,-0.025983l-0.033778,-0.012992l-0.025983,0.025983l0.005197,0.049368v0.070155Z M1343.205167,464.425116l0.01559,0.020787l0.017322,-0.001732l0.010393,-0.012126l-0.006929,-0.019054l-0.027716,-0.010393l-0.010393,0.008661l0.001732,0.013858Z M1337.783309,467.278087l0.006929,0.013858l0.024251,-0.010393h0.039841l0.050234,0.025983h0.017322l0.005819,0.008851l-0.012748,0.017133l-0.001732,0.029448l-0.012126,0.01559l-0.022519,-0.003464l0.001732,0.017322l0.020787,0.001732l0.029448,-0.013858l0.005197,-0.041573l0.012126,-0.029448l-0.013858,-0.017322l-0.027716,-0.003464l-0.041573,-0.024251l-0.045038,-0.001732l-0.036377,0.01559Z M1337.837982,467.386784l-0.035619,0.019488l0.008661,0.012126l0.024251,-0.010393l0.030314,-0.011557v-0.015184l-0.027607,0.005521Z M1337.739976,467.302582l-0.139417,0.056595l-0.011043,0.023466l0.011043,0.033129l0.051074,0.042791l0.045552,0.022086l0.042791,0.00138l0.022086,-0.016564l0.03727,-0.042791l-0.009663,-0.009663l-0.049693,0.048313l-0.022086,-0.00138l-0.052454,-0.015184l-0.03727,-0.031748l-0.008282,-0.024847l0.008282,-0.017945l0.129754,-0.051074l0.019325,-0.023466l-0.005521,-0.013804l-0.031748,0.020705Z M1341.344762,467.182813l-0.015625,0.020813l-0.070068,0.002563l-0.041626,-0.015564l-0.028564,-0.033813l0.00769,-0.028564l0.067627,-0.044189l0.033813,0.010437l0.046753,0.088318Z M1341.300573,467.154249l-0.015625,-0.023376l-0.023315,-0.010437l-0.036377,0.018188l-0.002563,0.026001l0.023315,0.020813l0.046753,-0.007812l0.007812,-0.023376Z M1330.559938,463.955683l0.001732,0.019054l0.013858,0.013858l0.013858,-0.008661l0.001732,-0.019054l-0.013858,-0.012126l-0.017322,0.006929Z M1329.018828,467.907182l-0.002761,0.012423l0.012423,0.020705l0.030368,0.022086h0.041411l0.046175,0.022438l0.041573,0.029448l0.013858,-0.006929l-0.001732,-0.029448l-0.027716,-0.032912l-0.038109,-0.03118l-0.050234,-0.024251l-0.053699,-0.036377l-0.014318,0.001543l-0.008282,0.016564l0.008742,0.020002l0.017485,0.003464l0.011043,-0.008282l0.014778,0.003086l0.01421,0.014859l0.029096,0.011124l0.038109,0.019054l0.032912,0.03118l0.013073,0.025604l-0.004141,0.005521l-0.017593,-0.015536l-0.043306,-0.029448l-0.027716,-0.006929l-0.025983,0.003464l-0.019054,-0.006929l-0.010393,-0.020787l0.003248,-0.01356l-0.008282,-0.004141l-0.015184,0.004141Z "/>
</svg>
