<svg xmlns="http://www.w3.org/2000/svg" viewBox="1329.007 460.820 14.241 7.193">
  <path d="M1339.452,460.974l0.007,-0.01v-0.012l-0.012,-0.007 l-0.01,-0.032l0.008,-0.017v-0.069l0.018,-0.007l0.043,0.012l0.037,0.006l0.069,0.037l0.028,0.028l0.054,0.043l0.061,0.022l0.019,0.023l0.007,0.026l0.026,0.048v0.029l0.01,0.032 l0.033,0.059v0.032l-0.008,0.011 h-0.017l-0.021,-0.018 l-0.022,-0.011l-0.021,-0.019l-0.025,-0.033l-0.057,-0.036l-0.07,-0.023h-0.059l-0.033,0.007l-0.019,-0.012l-0.017,-0.025l-0.006,-0.025l0.003,-0.019l0.014,0.003v0.018l0.025,0.041l0.014,0.006l0.012,-0.006h0.061l0.077,0.023l0.062,0.036l0.035,0.04l0.012,0.006l0.032,0.029h0.01l-0.006,-0.011l0.003,-0.018l-0.023,-0.036l-0.017,-0.037l-0.004,-0.04l-0.029,-0.068l-0.029,-0.022l-0.047,-0.018l-0.061,-0.054l-0.059,-0.041l-0.029,-0.004l-0.051,-0.015l-0.012,0.011v0.026l0.017,0.014 l-0.004,0.012h-0.015l-0.004,0.012l0.01,0.014v0.032l0.008,0.025 l-0.011,0.008l-0.015,-0.026Z M1340.189,463.904l0.021,0.034l0.018,-0.008l0.003,-0.023l-0.016,-0.018l-0.021,-0.003l-0.005,0.018Z M1341.802,462.238l0.013,0.031l0.047,-0.005l0.013,-0.021l-0.021,-0.049l-0.005,-0.062l0.008,-0.026l-0.034,-0.013l-0.026,0.026l0.005,0.049v0.07Z M1343.205,464.425l0.016,0.021l0.017,-0.002l0.01,-0.012l-0.007,-0.019l-0.028,-0.01l-0.01,0.009l0.002,0.014Z M1337.783,467.278l0.007,0.014l0.024,-0.01h0.04l0.05,0.026h0.017l0.006,0.009l-0.013,0.017l-0.002,0.029l-0.012,0.016l-0.023,-0.003l0.002,0.017l0.021,0.002l0.029,-0.014l0.005,-0.042l0.012,-0.029l-0.014,-0.017l-0.028,-0.003l-0.042,-0.024l-0.045,-0.002l-0.036,0.016Z M1337.838,467.387l-0.036,0.019l0.009,0.012l0.024,-0.01l0.03,-0.012v-0.015l-0.028,0.006Z M1337.74,467.303l-0.139,0.057l-0.011,0.023l0.011,0.033l0.051,0.043l0.046,0.022h0.043l0.022,-0.015 l0.037,-0.043l-0.01,-0.01l-0.05,0.048h-0.022l-0.052,-0.017 l-0.037,-0.032l-0.008,-0.025l0.008,-0.018l0.13,-0.051l0.019,-0.023l-0.006,-0.014l-0.032,0.021Z M1341.345,467.183l-0.016,0.021l-0.07,0.003l-0.042,-0.016l-0.029,-0.034l0.008,-0.029l0.068,-0.044l0.034,0.01l0.047,0.088Z M1341.301,467.154l-0.016,-0.023l-0.023,-0.01l-0.036,0.018l-0.003,0.026l0.023,0.021l0.047,-0.008l0.008,-0.023Z M1330.56,463.956l0.002,0.019l0.014,0.014l0.014,-0.009l0.002,-0.019l-0.014,-0.012l-0.017,0.007Z M1329.019,467.907l-0.003,0.012l0.012,0.021l0.03,0.022h0.041l0.046,0.022l0.042,0.029l0.014,-0.007l-0.002,-0.029l-0.028,-0.033l-0.038,-0.031l-0.05,-0.024l-0.054,-0.036l-0.014,0.002l-0.008,0.017l0.009,0.02l0.017,0.003l0.011,-0.008l0.015,0.003l0.014,0.015l0.029,0.011l0.038,0.019l0.033,0.031l0.013,0.026l-0.004,0.006l-0.018,-0.016l-0.043,-0.029l-0.028,-0.007l-0.026,0.003l-0.019,-0.007l-0.01,-0.021l0.003,-0.014l-0.008,-0.004l-0.015,0.004Z "/>
</svg>
