<svg xmlns="http://www.w3.org/2000/svg" viewBox="408.378 385.382 0.937 0.789">
  <path d="M408.378,385.563l0.002,-0.062l0.015,-0.034l0.023,-0.017l0.014,-0.025l0.038,-0.022l0.033,-0.003l0.035,-0.016l0.041,-0.002l0.011,0.004l0.014,0.031l0.014,0.002l0.025,-0.002l0.056,0.023l0.023,0.033l0.094,0.062h0.017l0.01,0.012l0.002,0.014l0.049,0.047l0.074,0.097l0.021,0.052l0.024,0.033v0.019l0.009,0.012l0.016,0.005l0.009,0.026v0.03l0.049,0.046 l0.023,0.007l0.026,0.024l0.002,0.011l0.008,0.008l0.014,0.004l0.02,0.019l0.005,0.021h0.014l0.005,-0.016h0.012l0.036,0.023 l0.01,0.031l-0.007,0.017l-0.016,0.007l-0.003,0.012l0.012,0.012l-0.007,0.012l-0.017,-0.003l-0.005,-0.012l-0.021,0.01l-0.003,0.019h-0.009l-0.017,-0.017 l-0.016,0.005l-0.002,0.042l-0.016,0.007l-0.015,-0.01l0.003,-0.021l-0.005,-0.019l-0.016,-0.009v-0.016l0.019,-0.013 l0.005,-0.024l-0.007,-0.011v-0.01l0.01,-0.016 l-0.01,-0.036l-0.022,-0.026l-0.029,-0.019l-0.034,-0.008l-0.024,-0.024l-0.043,-0.003l-0.031,-0.026l-0.003,-0.019h-0.024l-0.016,0.01h-0.01l-0.006,-0.01 l-0.018,0.004l-0.004,0.012h-0.035l-0.017,-0.012 l-0.076,-0.005l-0.087,-0.046l-0.021,-0.04l-0.026,-0.019l-0.094,-0.044l-0.036,-0.037l-0.031,-0.023v-0.021l-0.028,-0.042l-0.033,-0.024Z M409.304,386.118h0.011v-0.006l-0.004,-0.004l-0.008,0.003v0.007Z "/>
</svg>
