<svg xmlns="http://www.w3.org/2000/svg" viewBox="409.227 386.188 0.344 0.436">
  <path d="M409.305781,386.20263l0.012423,-0.008282l0.016564,0.006902l0.041411,-0.013804l0.022086,0.005521l0.020705,-0.002761l0.020705,0.009663l0.019325,0.027607l0.015184,0.006902h0.020705l0.016564,0.009663l0.005521,0.015184l0.030368,0.034509l0.005521,0.023466l-0.00138,0.033129l0.009663,0.022086l-0.002761,0.03727l0.011043,0.017945l-0.012423,0.067638l-0.009663,0.008282l-0.009663,0.042791l-0.023466,0.028988h-0.03727l-0.027607,0.012423l-0.024847,0.002761l-0.031748,0.013804l-0.017945,0.013804l-0.040031,0.004141l-0.026227,-0.013804l-0.042791,-0.040031l-0.002761,-0.016564l-0.022086,-0.049693l-0.015184,-0.012423v-0.015184l0.009663,-0.006902l0.00138,-0.03727l0.008282,-0.016564l-0.006902,-0.041411l0.009663,-0.055215l0.027607,-0.041411l0.005521,-0.016564l-0.005521,-0.011043l0.009663,-0.011043l0.011043,-0.002761l0.011043,-0.019325l-0.00138,-0.012423Z "/>
</svg>
