<svg xmlns="http://www.w3.org/2000/svg" viewBox="408.378 385.382 1.193 1.242">
  <path d="M409.305781,386.20263l0.012423,-0.008282l0.016564,0.006902l0.041411,-0.013804l0.022086,0.005521l0.020705,-0.002761l0.020705,0.009663l0.019325,0.027607l0.015184,0.006902h0.020705l0.016564,0.009663l0.005521,0.015184l0.030368,0.034509l0.005521,0.023466l-0.00138,0.033129l0.009663,0.022086l-0.002761,0.03727l0.011043,0.017945l-0.012423,0.067638l-0.009663,0.008282l-0.009663,0.042791l-0.023466,0.028988h-0.03727l-0.027607,0.012423l-0.024847,0.002761l-0.031748,0.013804l-0.017945,0.013804l-0.040031,0.004141l-0.026227,-0.013804l-0.042791,-0.040031l-0.002761,-0.016564l-0.022086,-0.049693l-0.015184,-0.012423v-0.015184l0.009663,-0.006902l0.00138,-0.03727l0.008282,-0.016564l-0.006902,-0.041411l0.009663,-0.055215l0.027607,-0.041411l0.005521,-0.016564l-0.005521,-0.011043l0.009663,-0.011043l0.011043,-0.002761l0.011043,-0.019325l-0.00138,-0.012423Z  M408.377715,385.563277l0.001732,-0.06236l0.015292,-0.034022l0.023466,-0.016564l0.013804,-0.024847l0.037513,-0.021572l0.032912,-0.003464l0.034644,-0.01559l0.041249,-0.002165l0.011043,0.004141l0.013533,0.030936l0.013858,0.001732l0.025063,-0.002301l0.056351,0.023087l0.022519,0.032912l0.09354,0.06236h0.017322l0.010393,0.012126l0.001732,0.013858l0.048502,0.04677l0.074486,0.097004l0.020787,0.051967l0.024251,0.032912v0.019054l0.008661,0.012126l0.01559,0.005197l0.008661,0.025983l-0.00111,0.029827l0.049612,0.046391l0.022519,0.006929l0.025579,0.0243l0.001676,0.010723l0.008282,0.008282l0.014086,0.003837l0.019665,0.018682l0.005197,0.020787h0.013858l0.005197,-0.01559l0.012396,-0.000108l0.036106,0.022627l0.010393,0.03118l-0.006929,0.017322l-0.01559,0.006929l-0.003464,0.012126l0.012126,0.012126l-0.006929,0.012126l-0.017322,-0.003464l-0.005197,-0.012126l-0.020787,0.010393l-0.003464,0.019054l-0.009311,0.000081l-0.016673,-0.017403l-0.01559,0.005197l-0.001732,0.041573l-0.01559,0.006929l-0.015292,-0.010069l0.002761,-0.020705l-0.004791,-0.01946l-0.01559,-0.008661l0.001056,-0.01605l0.017999,-0.013398l0.005197,-0.024251l-0.006631,-0.010664l0.00138,-0.009663l0.008715,-0.01605l-0.010393,-0.036377l-0.021788,-0.026254l-0.028988,-0.019325l-0.034103,-0.00812l-0.024251,-0.024251l-0.043306,-0.003464l-0.03118,-0.025983l-0.003464,-0.019054h-0.024251l-0.01559,0.010393l-0.010204,0.001462l-0.005521,-0.011043l-0.017945,0.004141l-0.004141,0.012423l-0.034942,-0.000054l-0.017322,-0.012126l-0.076218,-0.005197l-0.086855,-0.04612l-0.020705,-0.040031l-0.026227,-0.019325l-0.093865,-0.044172l-0.035889,-0.03727l-0.030936,-0.022681v-0.020787l-0.027716,-0.041573l-0.032912,-0.024251Z M409.3044,386.118427h0.011043v-0.005521l-0.004141,-0.004141l-0.008282,0.002761l0.00138,0.006902Z "/>
</svg>
