<svg xmlns="http://www.w3.org/2000/svg" viewBox="408.378 385.382 1.193 1.242">
  <path d="M409.306,386.203l0.012-0.008l0.017,0.007l0.041-0.014l0.022,0.006l0.021-0.003l0.021,0.01l0.019,0.028l0.015,0.007h0.021l0.017,0.01l0.006,0.015l0.03,0.035l0.006,0.023l-0.001,0.033l0.01,0.022l-0.003,0.037l0.011,0.018l-0.012,0.068l-0.01,0.008l-0.01,0.043l-0.023,0.029h-0.037l-0.028,0.012l-0.025,0.003l-0.032,0.014l-0.018,0.014l-0.04,0.004l-0.026-0.014l-0.043-0.04l-0.003-0.017l-0.022-0.05l-0.015-0.012v-0.015l0.01-0.007l0.001-0.037l0.008-0.017l-0.007-0.041l0.01-0.055l0.028-0.041l0.006-0.017l-0.006-0.011l0.01-0.011l0.011-0.003l0.011-0.019L409.306,386.203z M408.378,385.563l0.002-0.062l0.015-0.034l0.023-0.017l0.014-0.025l0.038-0.022l0.033-0.003l0.035-0.016l0.041-0.002l0.011,0.004l0.014,0.031l0.014,0.002l0.025-0.002l0.056,0.023l0.023,0.033l0.094,0.062h0.017l0.01,0.012l0.002,0.014l0.048,0.047l0.074,0.097l0.021,0.052l0.024,0.033v0.019l0.009,0.012l0.016,0.005l0.009,0.026l-0.001,0.03l0.05,0.046l0.023,0.007l0.026,0.024l0.002,0.011l0.008,0.008l0.014,0.004l0.02,0.019l0.005,0.021h0.014l0.005-0.016l0.012,0l0.036,0.023l0.01,0.031l-0.007,0.017l-0.016,0.007l-0.003,0.012l0.012,0.012l-0.007,0.012l-0.017-0.003l-0.005-0.012l-0.021,0.01l-0.003,0.019l-0.009,0l-0.017-0.017l-0.016,0.005l-0.002,0.042l-0.016,0.007l-0.015-0.01l0.003-0.021l-0.005-0.019l-0.016-0.009l0.001-0.016l0.018-0.013l0.005-0.024l-0.007-0.011l0.001-0.01l0.009-0.016l-0.01-0.036l-0.022-0.026l-0.029-0.019l-0.034-0.008l-0.024-0.024l-0.043-0.003l-0.031-0.026l-0.003-0.019h-0.024l-0.016,0.01l-0.01,0.001l-0.006-0.011l-0.018,0.004l-0.004,0.012l-0.035,0l-0.017-0.012l-0.076-0.005l-0.087-0.046l-0.021-0.04l-0.026-0.019l-0.094-0.044l-0.036-0.037l-0.031-0.023v-0.021l-0.028-0.042L408.378,385.563z M409.304,386.118h0.011v-0.006l-0.004-0.004l-0.008,0.003L409.304,386.118z M409.306,386.203l0.012-0.008l0.017,0.007l0.041-0.014l0.022,0.006l0.021-0.003l0.021,0.01l0.019,0.028l0.015,0.007h0.021l0.017,0.01l0.006,0.015l0.03,0.035l0.006,0.023l-0.001,0.033l0.01,0.022l-0.003,0.037l0.011,0.018l-0.012,0.068l-0.01,0.008l-0.01,0.043l-0.023,0.029h-0.037l-0.028,0.012l-0.025,0.003l-0.032,0.014l-0.018,0.014l-0.04,0.004l-0.026-0.014l-0.043-0.04l-0.003-0.017l-0.022-0.05l-0.015-0.012v-0.015l0.01-0.007l0.001-0.037l0.008-0.017l-0.007-0.041l0.01-0.055l0.028-0.041l0.006-0.017l-0.006-0.011l0.01-0.011l0.011-0.003l0.011-0.019L409.306,386.203z M408.378,385.563l0.002-0.062l0.015-0.034l0.023-0.017l0.014-0.025l0.038-0.022l0.033-0.003l0.035-0.016l0.041-0.002l0.011,0.004l0.014,0.031l0.014,0.002l0.025-0.002l0.056,0.023l0.023,0.033l0.094,0.062h0.017l0.01,0.012l0.002,0.014l0.048,0.047l0.074,0.097l0.021,0.052l0.024,0.033v0.019l0.009,0.012l0.016,0.005l0.009,0.026l-0.001,0.03l0.05,0.046l0.023,0.007l0.026,0.024l0.002,0.011l0.008,0.008l0.014,0.004l0.02,0.019l0.005,0.021h0.014l0.005-0.016l0.012,0l0.036,0.023l0.01,0.031l-0.007,0.017l-0.016,0.007l-0.003,0.012l0.012,0.012l-0.007,0.012l-0.017-0.003l-0.005-0.012l-0.021,0.01l-0.003,0.019l-0.009,0l-0.017-0.017l-0.016,0.005l-0.002,0.042l-0.016,0.007l-0.015-0.01l0.003-0.021l-0.005-0.019l-0.016-0.009l0.001-0.016l0.018-0.013l0.005-0.024l-0.007-0.011l0.001-0.01l0.009-0.016l-0.01-0.036l-0.022-0.026l-0.029-0.019l-0.034-0.008l-0.024-0.024l-0.043-0.003l-0.031-0.026l-0.003-0.019h-0.024l-0.016,0.01l-0.01,0.001l-0.006-0.011l-0.018,0.004l-0.004,0.012l-0.035,0l-0.017-0.012l-0.076-0.005l-0.087-0.046l-0.021-0.04l-0.026-0.019l-0.094-0.044l-0.036-0.037l-0.031-0.023v-0.021l-0.028-0.042L408.378,385.563z M409.304,386.118h0.011v-0.006l-0.004-0.004l-0.008,0.003L409.304,386.118z"/>
</svg>
