<svg xmlns="http://www.w3.org/2000/svg" viewBox="1101.802 280.469 24.090 23.498">
  <path d="M1125.825,283.66l0.014,0.004l0.046,0.037l0.007,0.024l-0.017,0.011l-0.025-0.006l-0.026-0.028l-0.004-0.033L1125.825,283.66L1125.825,283.66z M1124.405,284.277l-0.025-0.022l-0.031,0.018l-0.012,0.039l0.02,0.045l0.042,0.01l0.024-0.028L1124.405,284.277L1124.405,284.277z M1124.414,284.186l0.011-0.012l0.013,0l-0.002,0.02l-0.011,0.012h-0.014L1124.414,284.186L1124.414,284.186z M1125.32,284.006l-0.004-0.015l0.009-0.015l0.013-0.008l0.006,0.02l-0.012,0.016L1125.32,284.006L1125.32,284.006z M1114.309,295.009l0.01,0.018l0.019-0.001l0.006-0.023l-0.016-0.024l-0.018,0.004L1114.309,295.009L1114.309,295.009z M1121.625,290.624l0.013-0.008l-0.004-0.012l-0.016-0.014l-0.011,0.01l0.006,0.017L1121.625,290.624L1121.625,290.624z M1121.543,290.578l0.015,0.004l0.017-0.006l0.001-0.011l-0.011-0.01l-0.019,0.002l-0.005,0.01L1121.543,290.578L1121.543,290.578z M1116.545,293.949l0.038,0.023l0.109-0.005l0.083-0.052l0.01-0.063l-0.023-0.009l-0.078,0.017l-0.017,0.019l-0.031,0.002l-0.033-0.021l-0.021,0.002l-0.036,0.04L1116.545,293.949L1116.545,293.949z M1102.479,293.696l-0.028-0.042l-0.002-0.056l-0.014-0.007l-0.03,0.047v0.057l0.042,0.021h0.024L1102.479,293.696L1102.479,293.696z M1102.1,294.662l0.021-0.073v-0.127l0.03-0.116l0.003-0.05l0.014-0.033l-0.002-0.03l-0.023-0.01l-0.049-0.003l-0.043,0.009l-0.049,0.031l-0.036,0.059l-0.024,0.068l0.03,0.078l0.002,0.049l-0.028,0.063l-0.109,0.082l-0.035,0.042l0.002,0.038l0.052,0.052l0.087,0.028l0.078-0.028l0.05-0.07l0.005-0.033L1102.1,294.662L1102.1,294.662z M1102.206,294.519h0.045l0.009-0.017l-0.036-0.063l-0.024-0.005l-0.023,0.019l-0.005,0.04L1102.206,294.519L1102.206,294.519z M1102.774,295.265l0.005,0.013l0.015,0.007l0.019-0.004l-0.005-0.013l-0.015-0.006L1102.774,295.265L1102.774,295.265z M1102.774,295.265l0.005,0.013l0.015,0.007l0.019-0.004l-0.005-0.013l-0.015-0.006L1102.774,295.265L1102.774,295.265z M1104.019,295.246l0.014,0.006l0.008-0.006l-0.003-0.014h-0.014L1104.019,295.246L1104.019,295.246z M1104.177,295.433l-0.008,0.018l0.017,0.017l0.022,0.003l0.015-0.018l-0.011-0.021L1104.177,295.433L1104.177,295.433z M1105.247,296.063l0.009-0.018l-0.01-0.019l-0.012,0.01l-0.006,0.016l0.006,0.014L1105.247,296.063L1105.247,296.063z M1104.08,295.983l0.007,0.013l0.017-0.001l0.007-0.013l-0.008-0.012l-0.013,0.002L1104.08,295.983L1104.08,295.983z M1103.778,296.445l0.038-0.012l0.014-0.02l-0.025-0.01l-0.052,0.016l-0.01,0.016L1103.778,296.445L1103.778,296.445z M1103.827,295.823l-0.005,0.028l0.012,0.01l0.019-0.019l-0.002-0.022l-0.015-0.01L1103.827,295.823L1103.827,295.823z M1103.287,295.252l0.014-0.01l-0.005-0.012l-0.019,0.005l-0.003,0.014L1103.287,295.252L1103.287,295.252z M1103.349,296.208l0.01,0.001l0.007-0.011l-0.014-0.007l-0.01,0.006L1103.349,296.208L1103.349,296.208z M1103.987,295.457l-0.008-0.009l-0.01,0.006l0.002,0.013l0.011,0.003L1103.987,295.457L1103.987,295.457z M1102.681,295.258l-0.012,0.007l0,0.014l0.014,0.005l0.013-0.006l0.003-0.009L1102.681,295.258L1102.681,295.258z M1102.681,295.258l-0.012,0.007l0,0.014l0.014,0.005l0.013-0.006l0.003-0.009L1102.681,295.258L1102.681,295.258z M1103.163,295.147l-0.004-0.015l-0.015-0.004l-0.006,0.011l0.006,0.015l0.016,0.006L1103.163,295.147L1103.163,295.147z M1105.606,295.988l-0.001-0.026l-0.024-0.021l-0.024,0l-0.007,0.012l0.015,0.022l0.026,0.015L1105.606,295.988L1105.606,295.988z M1103.921,295.56l0.002-0.015l-0.009-0.015l-0.011,0.001l-0.008,0.013l0.005,0.018l0.011,0.003L1103.921,295.56L1103.921,295.56z M1103.41,296.113l0.022-0.017l0.001-0.014l-0.009-0.007l-0.03,0.013l-0.009,0.019l0.004,0.012L1103.41,296.113L1103.41,296.113z M1103.902,295.484l0.012,0.005h0.019l0.015-0.007v-0.009l-0.019-0.008l-0.02,0.001l-0.013,0.009L1103.902,295.484L1103.902,295.484z M1105.278,296.464l0.013-0.018l0-0.013l-0.016,0.004l-0.014,0.02l0.004,0.011L1105.278,296.464L1105.278,296.464z M1102.271,294.188l0.017-0.003l0.023-0.015l0.001-0.015h-0.015l-0.028,0.022L1102.271,294.188L1102.271,294.188z M1103.05,295.131l0.054-0.017l0.026-0.019l0.004-0.022l-0.008-0.01l-0.035,0.007l-0.058,0.058L1103.05,295.131L1103.05,295.131z M1102.787,294.886l0.054-0.024l0.008-0.015l-0.003-0.015h-0.014l-0.012,0.014l-0.048,0.024l-0.005,0.014L1102.787,294.886L1102.787,294.886z M1103.065,294.918l0.019,0.007l0.017-0.018l-0.013-0.024l-0.028-0.017l-0.011,0.011L1103.065,294.918L1103.065,294.918z M1103.427,296.224l0.016-0.014l-0.017-0.04l-0.016-0.003l-0.021,0.021l0.005,0.024L1103.427,296.224L1103.427,296.224z M1103.65,295.989l-0.01,0.049l0.017,0.019l0.04-0.01l0.031-0.05l-0.003-0.038l0.014-0.042l-0.009-0.016l-0.052,0.009l-0.035,0.043L1103.65,295.989L1103.65,295.989z M1103.949,296.238l0.024,0.024l0.043,0.003l0.026-0.026l-0.009-0.023l-0.052-0.016l-0.028,0.014L1103.949,296.238L1103.949,296.238z M1103.313,296.344l0.038,0.016l0.047-0.01l0.01-0.021l-0.026-0.073l-0.024-0.003l-0.05,0.038l-0.012,0.031L1103.313,296.344L1103.313,296.344z M1103.327,295.909l0.012-0.009l0.028-0.031l0.045-0.002l0.023,0.017l0.033-0.005l0.033-0.026l0.021,0.003l0.002,0.026l0.045,0.017l0.054-0.002l0.076-0.078l0.009-0.028l-0.054-0.036l-0.052-0.01l-0.031,0.016l-0.115,0.002l-0.026,0.016l-0.017,0.035l-0.019,0.017l-0.04,0.005l-0.035,0.035l-0.009,0.036L1103.327,295.909L1103.327,295.909z M1104.206,295.828l0.042,0.003l0.031-0.021l0.009,0.009l-0.019,0.036v0.028l0.026,0.045l0.003,0.03l-0.023,0.033l-0.023,0.005l-0.012-0.009l-0.035,0.007l-0.043,0.08l0.014,0.012l0.03-0.012l0.04-0.03l0.077-0.007l0.045-0.035l0.009-0.036l0.017-0.012l0.056-0.012l0.054-0.068l0.026-0.005l0.03,0.005l0.03-0.012l0.014-0.023l-0.009-0.024l-0.052-0.007l-0.028-0.038l-0.012-0.036l0.019-0.019v-0.017l-0.023-0.033l0.016-0.021l0.043-0.007l0.009-0.024l-0.049-0.04l-0.019-0.005l-0.033,0.009l-0.04-0.016l-0.019,0.003l-0.03,0.028l0.003,0.016l0.026-0.002l0.01,0.012l-0.017,0.026l-0.033,0.01l-0.009,0.019l0.01,0.021l-0.007,0.03l-0.125,0.043l-0.038,0.045L1104.206,295.828L1104.206,295.828z M1104.002,300.387l0.057,0.013l0.193,0.01l0.096,0.034h0.091l0.029-0.042l-0.062-0.102l-0.159-0.122l-0.102-0.042l-0.026,0.018l0.016,0.029l-0.016,0.042l-0.107,0.047l-0.031,0.078L1104.002,300.387L1104.002,300.387z M1104.76,299.886l0.05,0.005l0.068-0.044l0.016-0.068l-0.081-0.096l-0.016,0.01l-0.01,0.07l0.031,0.044l-0.016,0.026l-0.034,0.026L1104.76,299.886L1104.76,299.886z M1105.378,303.495l0.004,0.063l0.024,0.003l0.031-0.049l0.115-0.09l-0.004-0.042l-0.038-0.01l-0.167,0.083l-0.007,0.028L1105.378,303.495L1105.378,303.495z M1103.686,303.415l0.087-0.007l0.035-0.038l-0.007-0.045l0.017-0.042l-0.031-0.035h-0.045l-0.09,0.087l-0.007,0.042L1103.686,303.415L1103.686,303.415z M1105.643,303.884v0.035l0.062,0.003l0.118-0.069l0.205-0.149l0.056-0.097l-0.028-0.01l-0.156,0.069l-0.021,0.042v0.045l-0.017,0.017l-0.024-0.024l-0.052-0.021l-0.028,0.021l-0.014,0.049l-0.045,0.059L1105.643,303.884L1105.643,303.884z M1103.457,302.796l0.024,0.09l0.052,0.045l0.104-0.003l0.056,0.021l0.052-0.014v-0.056l0.038-0.056l0.087-0.049l0.014-0.031l-0.046-0.048l-0.069-0.021h-0.097l-0.16,0.038l-0.052-0.021l-0.038,0.007l-0.007,0.038L1103.457,302.796L1103.457,302.796z M1103.853,303.613l0.035-0.024l0.035-0.01l0.028,0.014l0.031-0.003l0.01-0.028l-0.028-0.021l-0.097,0.024l-0.031,0.031L1103.853,303.613L1103.853,303.613z M1106.06,303.512l0.028,0.003l0.09-0.073l0.017-0.038l-0.021-0.021l-0.08,0.059L1106.06,303.512L1106.06,303.512z M1104.847,303.363v0.038l0.038,0.035l0.063-0.028l0.073-0.094l-0.017-0.031l-0.076-0.007l-0.01,0.024l0.021,0.031l-0.017,0.024l-0.038-0.01L1104.847,303.363L1104.847,303.363z M1106.343,303.313l-0.003,0.014l0.017,0.017l0.017-0.006l0.001-0.019l-0.014-0.014L1106.343,303.313L1106.343,303.313z M1107.657,303.417l-0.005,0.031l0.021,0.013l0.034-0.013v-0.023l-0.023-0.013L1107.657,303.417L1107.657,303.417z M1108.145,303.571l0.003,0.02l0.035,0.002l0.045-0.026l-0.006-0.016l-0.028-0.007L1108.145,303.571L1108.145,303.571z M1105.662,303.646l0.033,0.047l0.019,0.011l0.018-0.011l-0.011-0.038l-0.027-0.027l-0.025,0L1105.662,303.646L1105.662,303.646z M1107.605,303.324l0.017-0.001l0.007-0.014l-0.005-0.011h-0.015l-0.008,0.012L1107.605,303.324L1107.605,303.324z M1106.973,303.72l0.011-0.011l-0.004-0.015h-0.012l-0.01,0.012l0.003,0.017L1106.973,303.72L1106.973,303.72z M1104.566,302.279l-0.005,0.015l0.004,0.019l0.011-0.004l0.005-0.021l-0.005-0.015L1104.566,302.279L1104.566,302.279z M1104.695,302.966l0.016-0.008l-0.012-0.038l-0.018-0.011l-0.014,0.018l0.008,0.023L1104.695,302.966L1104.695,302.966z M1104.151,302.383l0.014,0.001l0.016-0.007l0.002-0.018l-0.019-0.007l-0.017,0.01l-0.002,0.012L1104.151,302.383L1104.151,302.383z M1106.214,303.294h0.02l0.01-0.01l-0.003-0.017l-0.012-0.008l-0.021,0.005l-0.006,0.014L1106.214,303.294L1106.214,303.294z M1107.343,298.338l0.107-0.005l0.008-0.018l-0.047-0.016l-0.065,0.013l-0.023,0.016L1107.343,298.338L1107.343,298.338z M1114.59,297.309l0.008-0.044l-0.026-0.023l-0.026,0.005l-0.008,0.031l0.021,0.039L1114.59,297.309L1114.59,297.309z M1116.269,298.264l0.024,0.007l0.007-0.009l-0.008-0.016l-0.02-0.004l-0.007,0.009L1116.269,298.264L1116.269,298.264z M1113.893,296.959l-0.006-0.036l-0.028-0.028l-0.059-0.009l-0.02,0.024l0.01,0.024l0.06,0.045L1113.893,296.959L1113.893,296.959z M1114.024,296.533l-0.047,0.019l-0.006,0.036l0.035,0.027l0.025-0.011l0.011-0.05L1114.024,296.533L1114.024,296.533z M1114.024,296.533l-0.047,0.019l-0.006,0.036l0.035,0.027l0.025-0.011l0.011-0.05L1114.024,296.533L1114.024,296.533z M1114.153,297.318l0.012,0.005h0.019l0.015-0.007v-0.009l-0.019-0.008l-0.02,0.001l-0.013,0.009L1114.153,297.318L1114.153,297.318z M1114.096,297.359l0.014,0.005l0.007-0.01l0-0.022l-0.015-0.002l-0.009,0.016L1114.096,297.359L1114.096,297.359z M1114.541,297.087l0.012,0.009l0.01-0.007l0.007-0.02l-0.013-0.007l-0.014,0.011L1114.541,297.087L1114.541,297.087z M1114.162,297.106l0.004-0.021l-0.01-0.006l-0.015,0.007l-0.005,0.019l0.011,0.008L1114.162,297.106L1114.162,297.106z M1111.095,303.262l0.003-0.042l-0.031-0.156l0.017-0.087l-0.007-0.049l-0.038-0.031l-0.003-0.097l0.045-0.031h0.118l0.358-0.195l0.163-0.202l0.059-0.184l0.101-0.087l0.205-0.1l0.024-0.039l-0.007-0.055l0.039-0.129l0.041-0.09l0.087-0.049l0.122-0.149l0.184-0.111l0.149-0.136l0.049-0.007l0.049,0.028l0.073-0.007l0.163-0.076l0.167-0.007l0.125,0.041h0.069l0.122-0.045l0.055,0.004l0.084-0.025l0.083,0.004l0.125,0.055l0.094,0.011l0.111,0.066l0.066-0.004l0.202-0.121l0.104-0.014l0.58-0.014l0.08-0.024l0.049,0.017l0.028,0.063l0.066,0.048l0.08,0.007l0.111-0.021l0.062-0.048l0.063-0.004l0.167,0.035l0.142,0.003l0.198,0.039l0.122-0.007l0.136-0.08l0.09-0.018l0.222-0.149l0.087-0.045l0.15-0.184l0.097-0.077l0.073-0.149l-0.004-0.091l0.028-0.149l0.007-0.181l-0.014-0.059l0.018-0.042l0.163-0.09l0.006-0.04l0.018-0.023l0.003-0.029l-0.029-0.029v-0.057l0.021-0.057l-0.005-0.042l-0.086-0.057l-0.037-0.047l-0.028-0.024l-0.05-0.013l-0.081-0.057v-0.068l-0.018-0.036l-0.044-0.006l-0.016,0.019l0.018,0.023l-0.002,0.024l-0.042,0.02l-0.099,0.006l-0.073-0.032l-0.102-0.083l-0.036-0.057l-0.021-0.026l-0.047-0.019l-0.044-0.044l-0.021-0.068l-0.044-0.049l-0.058-0.018l-0.166-0.139l-0.032-0.002l-0.018,0.023l-0.021,0.003l-0.182-0.07l-0.144-0.172l-0.002-0.055l-0.024-0.021l-0.057-0.008l-0.047-0.036l-0.013-0.045l-0.062-0.065l-0.055-0.005l-0.029-0.023l0.016-0.045l-0.016-0.021l-0.057,0.003l-0.029-0.018l-0.002-0.042l-0.133-0.167l-0.092-0.169l-0.153-0.235l-0.047-0.005l-0.034,0.044l-0.05,0.019l-0.086-0.003l-0.036,0.018l-0.087-0.001l-0.177-0.181l-0.045-0.021l-0.046,0.028l-0.125-0.007l-0.059,0.024l-0.073-0.007l-0.107-0.101l-0.035-0.121l-0.024-0.011l-0.014,0.032l0.017,0.114l-0.031,0.042l-0.084-0.007l-0.208-0.184l-0.07-0.115l-0.017-0.139l0.059-0.114l0.049-0.042l0.031-0.108l-0.031-0.066l0.003-0.038l0.031-0.01l0.046,0.079l0.038,0.007l0.035-0.041l0.055-0.014l0.059,0.01l0.035-0.024l-0.003-0.059l-0.101-0.087l-0.045-0.004l-0.039,0.049l-0.093,0.011l-0.06-0.039l0.004-0.038l0.097-0.045l0.115-0.011l0.059-0.052l0.069-0.014l0.091,0.014l0.055-0.014l0.049,0.021l0.049,0.139v0.052l-0.035,0.011l-0.021,0.035l0.007,0.066l-0.042,0.093l0.021,0.039l0.136,0.017l0.024-0.031l-0.031-0.129l0.003-0.09l-0.084-0.257l-0.063-0.25l-0.02-0.159l0.015-0.068l0.029-0.021l0.094-0.177l0.039-0.016l0.018-0.036l0.005-0.086l-0.028-0.102l-0.047-0.073l-0.052-0.018l-0.032,0.01l-0.06-0.005l-0.047-0.055l-0.007-0.094l0.013-0.138l0.054-0.122l0.068-0.073l0.06-0.013l0.018-0.026v-0.06l0.029-0.058l0.07-0.036l0.008-0.023l-0.015-0.071l0.02-0.01l0.024,0.041l0.031,0.008l0.037-0.028l0.088-0.042h0.042l0.07,0.065h0.034l0.047-0.049l0.063-0.1l0.099-0.041l0.114,0.005l0.099-0.016l0.037-0.041l-0.013-0.047l-0.055-0.065l0.011-0.019l0.044,0.019l0.055,0.049l0.033-0.002l0.026-0.027l0.047,0.003l0.024,0.024l0.029-0.003l0.039-0.042l0.033-0.002l0.027,0.018l0.018-0.011l0.01-0.086l0.024-0.039l0.005-0.034l-0.031-0.046l-0.013-0.058l0.028-0.075l0.068-0.06l0.034,0.002l0.023,0.021l0.026,0.003l0.05-0.029l0.128-0.146l0.036-0.075v-0.06l0.029-0.039h0.036l0.031,0.013l0.014,0.028l0.018,0.005l0.034-0.015h0.028l0.06,0.065l0.055,0.008l0.05-0.024l0.19,0.019l0.073,0.039l0.01,0.028l-0.023,0.029l0.002,0.018l0.037-0.005l0.034-0.06l0.041-0.021l0.097-0.002l0.036,0.015l0.045-0.013l0.026-0.023l0.005-0.099l0.016-0.052l0.044-0.019l0.078,0.011l0.052,0.057l0.013,0.07l0.05,0.045l0.081,0.013l0.02-0.018l-0.01-0.019l0.005-0.044l0.016-0.052l0.052-0.086l0.07-0.068l0.115-0.028l0.143-0.011l0.055-0.018l0.065-0.104l0.084-0.026l0.033-0.003l0.034,0.016l0.032-0.006l0.036-0.026l0.07-0.107l0.029-0.018l0.039-0.002l0.047-0.021l0.044-0.045l0.042-0.002l0.052,0.026h0.06l0.057-0.06l0.05-0.037l0.018-0.028l-0.008-0.068l0.016-0.034v-0.023l-0.034-0.029l-0.036-0.055l-0.099-0.073l-0.016-0.052l0.024-0.078l0.049-0.052l0.05-0.013l0.028,0.008l0.021,0.028l0.036-0.005l0.008-0.036l0.042-0.047l0.099-0.042l0.055-0.005l0.047,0.01l0.036-0.008l0.045-0.054l0.041-0.006l0.034,0.008l0.104-0.015l0.047-0.052l0.05-0.021l0.101-0.021l0.058-0.026l0.054-0.065l0.042-0.019l0.154-0.14l0.053-0.074l0.056-0.039l0.09-0.015l0.036-0.015l0.087-0.065l0.054-0.003l0.036,0.008l0.011,0.024h0.012l0.015-0.019l0.039-0.013l0.034-0.029l0.031-0.015l0.054-0.075l0.009-0.055l0.008-0.013l0.015-0.003l0.022-0.023l0.005-0.018l0.013-0.013l0.038-0.009l0.03-0.033l0.025-0.079l0.014-0.024l0.019-0.008l0.009-0.014l-0.014-0.036l0.003-0.043l0.022-0.061l0.012-0.025l0.042-0.016l0.016-0.031l0.002-0.028l0.007-0.02l0.029-0.029l0.001-0.023l-0.003-0.044l0.007-0.043l0.021-0.052l0.018-0.017l0.003-0.011l-0.009-0.022l0.014-0.031l0.053-0.048l0.05-0.018l0.105,0.001l0.015,0.011l0.011,0.031l0.058,0.076l0.031,0.023l0.014-0.004l0.008-0.029l0.051-0.117l0.042-0.074l0.058-0.059l0.078-0.049l0.056-0.015l0.04-0.015l0.029-0.029l0.061-0.045l0.099-0.036l0.05-0.007l0.085-0.031l0.1-0.005l0.026-0.009l0.043-0.047l0.035-0.021l0.046-0.004l0.002-0.014l-0.007-0.01v-0.021l0.027-0.04l0.048-0.041l0.026-0.002l0.013,0.009l0.055-0.003l0.034-0.019h0.056l0.02,0.019h0.016l0.016-0.013l0.051-0.002l0.021,0.008l0.042-0.001l0.02-0.013l0.018-0.001l0.01,0.009l0.024-0.001l0.046-0.029h0.038l0.001,0.011l-0.011,0.008v0.013l0.04,0.029l0.017-0.004l0.011-0.04l0.036-0.065l0.004-0.115l0.011-0.035l0.044-0.044l0.022-0.006l0.007-0.021l-0.018-0.034l-0.001-0.021l0.044-0.091l-0.004-0.016l-0.017-0.002l-0.019-0.016l-0.014-0.033l-0.045-0.046v-0.019l-0.023-0.041l-0.022-0.021l-0.001-0.022l0.033-0.021l0.002-0.015l-0.019-0.018l-0.002-0.035l-0.029-0.068l-0.002-0.058l0.007-0.026l0.002-0.076l-0.002-0.031l0.014-0.052l0.031-0.049v-0.05l-0.01-0.005l-0.02,0.009l-0.025-0.007l-0.005-0.012l0.022-0.028l0.002-0.025l-0.025-0.034l0.001-0.027l0.015-0.019l0.003-0.036l-0.011-0.015l0.003-0.014l0.009-0.015l0.007-0.086l-0.018-0.079l0.006-0.04l0.033-0.065l0.029-0.013l0.01-0.011l-0.009-0.021l0.003-0.058l-0.019-0.04l0.001-0.012l0.047-0.033l0.007-0.017l-0.011-0.017l0.002-0.015l0.041-0.032l0.004-0.025l-0.021-0.034l0.002-0.024l0.054-0.072l0.023-0.016l0.007-0.013l-0.015-0.005l0.001-0.013l0.074-0.047l0.005-0.024l-0.007-0.027l0.009-0.061l0.029-0.021l0.004-0.015l-0.01-0.024l0.006-0.027l0.016-0.018l0.002-0.017l-0.056-0.022l-0.023,0.003l-0.011,0.015l-0.038-0.002l-0.029-0.016l-0.009-0.026l-0.06-0.064l-0.016,0.003l-0.016,0.038l-0.004,0.075l-0.004,0.026l-0.04,0.03l-0.049,0.002l-0.013-0.009l0.027-0.009l0.045-0.038l0.011-0.082l0.023-0.057l-0.005-0.015l-0.038-0.01l-0.097-0.047l-0.101-0.107l-0.066-0.148l-0.006-0.04l0.021-0.075v-0.051l-0.022-0.057l-0.002-0.055l0.02-0.055l0.037-0.022l0.02-0.046l0.001-0.046l0.008-0.028l0.023-0.024l0.013-0.048v-0.052l0.017-0.079l0.061-0.108l0.036-0.033l0.069-0.025l0.051-0.056l0.011-0.066l0.01-0.028l0.035-0.025l0.007-0.054l-0.011-0.02l0.001-0.036l0.015-0.016l0.003-0.019l-0.014-0.051l0.01-0.007l0.012,0.019l0.015-0.001l0.031-0.042l0.109-0.052l0.049-0.003l0.034,0.021l0.024,0.04l0.032,0.015l0.011-0.008l-0.015-0.06l0.007-0.022l0.044-0.047l0.032-0.01l0.008-0.012l-0.003-0.018l0.02-0.053l0.03-0.029l0.003-0.032l-0.01-0.027l0.003-0.024l0.029-0.032l0.007-0.081l-0.025-0.056l0.004-0.029l0.032-0.025l0.021-0.023l0.009-0.056l0.02-0.025h0.05l0.088,0.045l0.007,0.018l0.02,0.008l0.029-0.013l0.009-0.026l-0.008-0.015v-0.011l0.022-0.018l0.011-0.028l0.014-0.087l0.022-0.025l0.025,0.003l0.017-0.004l-0.004-0.011l-0.043-0.018l-0.01-0.017l0.015-0.042l0.027-0.011l0.022,0.009l0.027-0.011l0.003-0.017l-0.021-0.03l-0.03-0.01l-0.015-0.018l0.005-0.022l0.022-0.01l0.021,0.007h0.035l0.004-0.013l-0.015-0.023l-0.003-0.032l0.007-0.035l0.036-0.024l0.023,0.002l0.02,0.031l0.015,0.032l-0.001,0.025l-0.01,0.019l0.01,0.008l0.026-0.018l0.005-0.034l-0.02-0.038v-0.018l0.012-0.019l0.021-0.002l0.014-0.015l-0.004-0.032l0.013-0.016l0.02-0.002l0.01-0.013l-0.014-0.017l0.001-0.062l0.011-0.009l0.038,0.038l0.009,0.036l0.018,0.007l0.027-0.023l0.001-0.018l-0.012-0.018v-0.023l0.009-0.022l0.002-0.025l-0.027-0.028l-0.003-0.011l0.032-0.033l0.057-0.028l0.09-0.007l0.04,0.01l0.01,0.021l0.019,0.014l0.029,0.001l0.045,0.043l0.041,0.008l0.01-0.012l-0.007-0.052l-0.03-0.031l-0.048-0.009l-0.013-0.019l0.004-0.014l0.077-0.023l0.029-0.021h0.027l0.011,0.016l-0.003,0.025l0.008,0.017h0.011l0.004-0.014l-0.001-0.04l0.015-0.013l0.009-0.022l-0.013-0.036v-0.019l0.051-0.076l0.002-0.046l-0.031-0.032l-0.008-0.032l0.018-0.03l0.043-0.001l0.047,0.005l0.019-0.012l0.016-0.042l0.055-0.055l0.055-0.035l0.052-0.041l0.036-0.064l0.031-0.024l0.032,0.003l0.035,0.028l0.004,0.093l-0.022,0.062l-0.001,0.046l0.012,0.007l0.062-0.034l0.003-0.016l-0.017-0.027l0.003-0.026l0.025-0.03l0.067-0.023l0.016-0.02l-0.004-0.032l0.012-0.015l0.027-0.006l0.008-0.011l-0.011-0.015l0.001-0.035l0.021-0.041l0.025-0.014l0.033,0.012l0.002,0.018l0.014,0.015l0.033-0.001l0.015-0.011l-0.03-0.096l-0.028-0.015l-0.014-0.04l0.004-0.032l0.064-0.044l0.01-0.033l-0.025-0.047l-0.01-0.039l0.01-0.008l0.127,0.059l0.028,0.014l0.025,0.037l0.011-0.007v-0.015l0.008-0.014l0.043-0.011l0.008-0.021l-0.008-0.016l0.004-0.032l0.022-0.018l0.082-0.003l0.057,0.01l0.023,0.014l0.022,0.037l0.018,0.013l0.042,0.004l0.156,0.018l0.042,0.018l0.018-0.018l-0.021-0.029l-0.033-0.013l-0.016-0.023l0.015-0.029l0.03-0.007l0.006-0.013l-0.021-0.018l0.001-0.009l0.025-0.009l0.026-0.033l0.002-0.026l-0.011-0.028l0.005-0.075l0.018-0.019l0.081,0.008l0.049,0.021l0.002,0.021l-0.027,0.022l-0.051,0.014l-0.04,0.038l0.001,0.014l0.048,0.009l0.008,0.009l-0.032,0.031l-0.01,0.03l-0.037,0.036l-0.013,0.035l0.014,0.015l0.035-0.005l0.053-0.034l0.023,0.007l0.001,0.025l-0.048,0.043l-0.058,0.013l-0.033,0.023v0.028l0.049,0.038l0.007,0.035l-0.023,0.044l-0.027,0.015l-0.013,0.023l0.011,0.029l0.017,0.006l0.044-0.021l0.007-0.023l0.021-0.021l0.038-0.001l0.015,0.013l0.016-0.001l0.031-0.028l0.098-0.021l0.005-0.021l-0.031-0.029l-0.013-0.028l0.004-0.052l0.017-0.018l-0.052-0.04l-0.017-0.104l0.026-0.059l0.05-0.036l0.009-0.033l-0.052-0.065l-0.023-0.036l-0.015-0.068l-0.037-0.04l-0.019,0.005l-0.049-0.029l-0.066-0.016l-0.062-0.003l-0.058-0.026l-0.024-0.058l0.017-0.067l0.059-0.049v-0.023l-0.027-0.026l-0.066-0.021l-0.025-0.031l-0.007-0.102l-0.019-0.044l-0.064-0.069l-0.017-0.089l-0.03-0.061v-0.04l0.016-0.064l-0.011-0.059l-0.041-0.026l-0.079,0.002l-0.041,0.033l-0.037,0.069v0.03l0.054,0.093l0.002,0.044l-0.037,0.038l-0.043,0.019l-0.054-0.01l-0.071-0.057l-0.011-0.075l0.023-0.054l0.043-0.03v-0.036l-0.062-0.04l-0.03,0.002l-0.05,0.048l-0.056,0.009l-0.026-0.031l-0.014-0.052l-0.093-0.096l-0.117-0.075l-0.042-0.052l-0.041-0.116l-0.056-0.04l-0.064-0.007l-0.03-0.021l-0.05-0.113l-0.004-0.066l0.02-0.066l-0.011-0.076l0.031-0.023l0.004-0.029l-0.052-0.08l0.003-0.061l0.049-0.155l0.05-0.059l0.016-0.078l-0.028-0.075l-0.057-0.014l-0.059,0.011l-0.066-0.005l-0.146-0.037l-0.045,0.002l-0.054,0.033h-0.03l-0.055-0.026l-0.053-0.007l-0.024-0.023l0.007-0.04l0.037-0.022l0.048,0.001l0.035-0.027l-0.009-0.016l-0.036-0.005l-0.023-0.026l0.005-0.042l0.096-0.068l0.002-0.033l-0.025-0.012l-0.022,0.007l-0.023-0.004l-0.033-0.031l-0.043-0.001l-0.054,0.016l-0.097,0.063h-0.15l-0.055-0.019h-0.033l-0.03,0.014l-0.061-0.005l-0.078-0.038l-0.021-0.065l0.012-0.05l-0.008-0.022l-0.035-0.002l-0.063,0.017l-0.074,0.007l-0.082,0.054l-0.007,0.042l0.023,0.024l0.09,0.002l0.01,0.015l-0.01,0.03h-0.031l-0.044-0.012h-0.09l-0.042,0.033l-0.019,0.047l0.012,0.059l0.061,0.095l-0.005,0.016h-0.021l-0.028-0.017l-0.038,0.001l-0.017,0.051l0.012,0.085l-0.028,0.114l-0.04,0.021l-0.036,0.052l-0.011,0.089l-0.024,0.047l-0.004,0.033l0.016,0.031l-0.007,0.075l-0.08,0.087l-0.015,0.071l-0.037,0.078l-0.042,0.056l0.006,0.08l0.06,0.085l0.087,0.026l0.002,0.028l-0.012,0.014l-0.021-0.002l-0.026-0.019l-0.023,0.003l-0.012,0.03l0.005,0.078l0.028,0.028l-0.005,0.019l-0.031-0.004l-0.03-0.041l-0.036-0.002l-0.032,0.026l0.002,0.026l0.045,0.017l0.002,0.027l-0.03,0.041l0.002,0.023l0.031,0.012l0.04,0.002l0.018,0.024l-0.007,0.023l-0.061,0.022l-0.04,0.068l-0.028,0.01l-0.014,0.04l0.004,0.103l0.021,0.056l-0.004,0.046l-0.015,0.03l-0.009,0.068l-0.017,0.034v0.021l0.026,0.033l0.007,0.077l-0.073,0.13l-0.065,0.057l-0.038,0.004l-0.049-0.009l-0.026-0.015l-0.027-0.002l-0.056,0.028l-0.033-0.006l-0.094-0.142l-0.036-0.004l-0.035,0.033l-0.031,0.007l-0.014,0.03l0.012,0.019l0.04-0.003l0.021,0.005l-0.006,0.031l-0.029,0.033l-0.005,0.056l-0.023,0.015l-0.033-0.008l-0.026,0.007l-0.038,0.06l-0.011,0.039l0.011,0.017h0.026l0.007,0.019l-0.028,0.019l-0.038,0.005l-0.011,0.025l0.011,0.022l-0.012,0.021l-0.037-0.015l-0.055-0.099l-0.03-0.027l-0.038-0.008l-0.037-0.037l-0.019-0.054l-0.05-0.031h-0.042l-0.038-0.024l-0.043-0.068l-0.034-0.002l-0.027,0.033l-0.032-0.001l-0.064-0.066l-0.035,0.001l-0.019,0.037v0.064l-0.036,0.012l-0.065-0.01l-0.015-0.024l0.031-0.047l0.002-0.035l-0.038-0.011l-0.042,0.007l-0.028,0.035l0.009,0.035l0.047,0.043l0.014,0.023l-0.018,0.014l-0.024-0.002l-0.007,0.016l0.014,0.029l-0.016,0.009l-0.04-0.037v-0.073h-0.021l-0.015,0.04l-0.019,0.009l-0.023-0.012l-0.015,0.009l0.006,0.047l-0.005,0.019l-0.019,0.007l-0.002,0.019l0.063,0.048v0.023l-0.021,0.002l-0.05-0.021l-0.019,0.007l-0.006,0.022l-0.019,0.006l-0.048-0.023l-0.026,0.009l-0.006,0.031l-0.022,0.016l-0.03-0.004l-0.012-0.019l-0.033,0.002l-0.02,0.014l-0.002,0.021l0.011,0.025l-0.004,0.021l-0.034,0.025l-0.001,0.019l0.029,0.033l0.057,0.025l0.023,0.027l-0.003,0.03l-0.034,0.035l-0.065,0.011l-0.064-0.024h-0.026l-0.028,0.014v0.02l0.042,0.034h0.039l0.023-0.019l0.036-0.002l-0.001,0.017l-0.025,0.039l-0.096,0.044l-0.005,0.015l0.015,0.013l0.057-0.004l0.015,0.012l-0.019,0.057l-0.046,0.018l-0.042-0.002l-0.026-0.008l-0.025,0.002l-0.019,0.029l-0.004,0.079l0.026,0.02l0.03-0.004l0.024-0.019h0.039l0.016,0.019l-0.011,0.02l-0.025,0.015l-0.001,0.036l0.021,0.03l0.026,0.002l0.015-0.02l0.024,0.009l0.009,0.041l-0.011,0.019h-0.026l-0.019-0.016l-0.018,0.001l-0.007,0.018l-0.014,0.002l-0.018-0.009l-0.033,0.011l-0.002,0.024l0.015,0.019l-0.008,0.018l-0.101,0.011l-0.01,0.02l0.018,0.055l-0.016,0.018l-0.063,0.004l-0.048,0.014l-0.01,0.017l0.011,0.015l-0.009,0.022l-0.032,0.018l-0.018,0.022l-0.028,0.003l-0.016-0.012h-0.016l-0.019,0.012l-0.025-0.006l-0.025-0.051l-0.021-0.016h-0.022l-0.008,0.025l0.016,0.041l-0.015,0.015l-0.046-0.001l-0.006,0.017l-0.018,0.008l-0.018-0.003l-0.016,0.015l-0.005,0.027l-0.021,0.013v0.013l0.028,0.004l0.004,0.013l-0.019,0.018l-0.007,0.024l-0.029,0.023h-0.034l-0.027,0.012l-0.01,0.025l-0.026,0.004l-0.052-0.005l-0.029,0.011h-0.019l-0.014-0.016l-0.021-0.001l-0.045,0.053l-0.013,0.061l0.015,0.026l0.024,0.007l0.008,0.022l-0.016,0.032l-0.006,0.037l-0.017,0.024v0.03l-0.008,0.013l-0.03,0.005l-0.033,0.036l-0.063,0.011l-0.045-0.011l-0.048-0.039l-0.023,0.002l-0.013,0.016l-0.062-0.011l-0.011-0.019l-0.019-0.006l-0.043,0.016l-0.022-0.006l-0.03-0.026l-0.024-0.006l-0.017-0.025l-0.032-0.008l-0.033,0.01l-0.056-0.002l-0.026,0.02h-0.027l-0.045-0.021l-0.029-0.043l-0.025-0.007l-0.039,0.008l-0.009,0.031l-0.031,0.01l-0.061,0.054l-0.019,0.033l-0.035,0.03l-0.045,0.006l-0.054-0.028l-0.029,0.007l-0.017-0.007l0.003-0.037l-0.053-0.04l-0.04,0.002l-0.058,0.023l-0.039,0.002l-0.032,0.027l-0.004,0.019l0.008,0.024l-0.013,0.027l-0.049,0.039l-0.034,0.004l-0.056-0.01l-0.015-0.015l-0.026-0.003l-0.054,0.018l-0.122,0.01l-0.027-0.005l-0.072-0.035l-0.011-0.019l-0.022-0.011l-0.05-0.003l-0.026-0.017l-0.04-0.008l-0.078,0.012l-0.069,0.002l-0.36-0.032l-0.727,0.008l-0.027,0.011l-0.196,0.105l0.006,0.018l0.066,0.06l0.093,0.068l0.065,0.066l0.014,0.046l-0.008,0.098l0.012,0.064l0.027,0.032v0.027l-0.014,0.048l-0.003,0.12l-0.022,0.046l0.008,0.088l0.028,0.039v0.019l-0.008,0.025l0.001,0.046l0.04,0.035l0.068,0.016l0.017,0.027l0.024,0.17l0.028,0.062l0.055,0.053l0.054,0.016l0.052,0.042l0.001,0.033l0.047,0.036l0.047,0.018l0.067,0.007l0.106,0.1l0.004,0.047l0.052,0.084l0.043,0.004l0.018,0.016l-0.017,0.03l0.017,0.053l0.031,0.021l0.006,0.09l-0.012,0.04l-0.05,0.043l-0.017,0.059l0.021,0.022l-0.01,0.024l-0.032,0.01l-0.025,0.029l-0.005,0.031l-0.076,0.074l-0.046,0.01l-0.035,0.034l0.003,0.024l0.021,0.018l-0.008,0.051l-0.018,0.025l-0.003,0.047l0.032,0.021l-0.007,0.027l-0.022,0.013l-0.039,0.003l-0.054,0.067l-0.004,0.065l-0.027,0.016l-0.052-0.004l-0.068,0.037l-0.018,0.073l-0.033,0.022l-0.101,0.007l-0.02,0.017l-0.005,0.035l-0.028,0.019l-0.03-0.007l-0.05-0.035v-0.022l0.05-0.036l-0.007-0.029l-0.039-0.007l-0.031,0.016l-0.002,0.04l-0.016,0.012l-0.026-0.019l-0.018-0.046l-0.036-0.008l-0.036,0.019h-0.044l-0.004-0.019l0.03-0.068l-0.01-0.029l-0.023-0.007l-0.042,0.032l-0.02-0.007l-0.003-0.046l-0.019-0.01l-0.03-0.001l-0.004-0.015l0.035-0.038l0.001-0.027l-0.018-0.009l-0.022,0.012l-0.039,0.101l-0.029,0.016l-0.015-0.015l-0.001-0.047l-0.04-0.022l-0.078-0.007l-0.01-0.018l0.01-0.024l-0.014-0.008l-0.019-0.003l-0.013-0.025h-0.014l-0.007,0.02l0.009,0.016l-0.014,0.021l-0.04,0.022l-0.017,0.036l-0.019,0.002l-0.025-0.02l-0.035-0.001l-0.023-0.015v-0.014l0.015-0.009l-0.001-0.013l-0.034-0.003l-0.026,0.01l-0.01,0.027l0.003,0.061l-0.008,0.024l0.004,0.019l0.021,0.017l-0.002,0.016l-0.019,0.02l-0.018-0.002l-0.029-0.018l-0.031-0.058l-0.042,0.007l-0.013,0.019l0.006,0.032l-0.012,0.014l-0.026-0.008l-0.026-0.056l-0.042-0.02l-0.025,0.011l-0.008,0.025l0.006,0.037l-0.013,0.013l-0.029-0.007l-0.014-0.038l0.003-0.04l-0.026-0.008l-0.13,0.003l-0.056,0.029l-0.044-0.002l-0.093-0.018l-0.032,0.006l-0.019,0.021l-0.024-0.002l-0.051-0.046l-0.019-0.001l-0.009,0.013l0.038,0.059l-0.007,0.014l-0.04,0.004l-0.061-0.032l-0.042-0.062l-0.03-0.011l-0.058,0.016l-0.053-0.004l-0.09-0.03l-0.057-0.096l0.007-0.075l-0.021-0.008l-0.04,0.024l-0.041,0.003l-0.051-0.027h-0.04l-0.034,0.019l-0.02-0.009l-0.001-0.028l-0.026-0.014l-0.023,0.011l-0.009,0.033l0.011,0.024l-0.012,0.021l-0.056,0.01l-0.04-0.012h-0.038l-0.033,0.016l-0.035-0.005l-0.031-0.068l-0.035-0.021l-0.095,0.005l-0.016,0.019l0.002,0.035l-0.02,0.017l-0.039-0.006l-0.178-0.087l-0.048,0.005l-0.03,0.019l-0.062-0.007l-0.021-0.023l0.01-0.022l0.078-0.018l0.026-0.034l-0.001-0.033l-0.026-0.019l-0.051,0.007l-0.043,0.043l-0.03,0.003l-0.038-0.022l0.002-0.026l0.014-0.03l-0.021-0.017l-0.052,0.012l-0.019-0.017l-0.013-0.03l-0.026-0.005l-0.043,0.023l-0.043-0.013l-0.02-0.038l-0.036-0.007l-0.051,0.042l-0.024-0.009l-0.002-0.026l-0.024-0.009l-0.073,0.007l-0.049-0.024l-0.008-0.04l0.019-0.01l0.029,0.012l0.018-0.005l0.007-0.032l0.028-0.031l0.038-0.003l0.017-0.023l0.011-0.043l0.033-0.021l0.071,0.002l0.019-0.021l-0.002-0.018l-0.042-0.012l-0.13,0.002l-0.036-0.016l-0.007-0.022l0.008-0.03l-0.001-0.035l-0.026-0.008l-0.039,0.01l-0.053-0.016l0.007-0.02l0.038-0.016l0.019-0.03l-0.007-0.022l-0.033-0.011l-0.04,0.011l-0.037-0.011l-0.02-0.038l-0.04-0.028l-0.063-0.02l-0.028-0.025v-0.022l0.032-0.032l0.01-0.033l0.024-0.005l0.03,0.016l0.029-0.004l0.039-0.038l-0.007-0.017l-0.075-0.004l-0.012-0.015l-0.007-0.047l-0.012-0.033l0.008-0.075l-0.015-0.01l-0.037,0.008l-0.073-0.003l-0.045-0.018l-0.002-0.024l0.013-0.031l-0.011-0.012l-0.069-0.014l-0.035-0.044l-0.038-0.007l-0.086,0.018l-0.026-0.006l-0.022-0.026v-0.026l0.052-0.019l0.017-0.024l0.002-0.038l-0.024-0.03h-0.045l-0.16,0.077l-0.082,0.081l-0.039,0.099l-0.013,0.084l-0.029,0.031l-0.039-0.005l-0.021-0.063l-0.036-0.039l-0.029,0.003l-0.036,0.094v0.067l0.018,0.058l-0.021,0.031l-0.049-0.003l-0.032-0.044l-0.005-0.065l-0.039-0.029l-0.062-0.026l-0.084-0.075l-0.078-0.016l-0.039,0.013l-0.018,0.036l0.01,0.042l0.07,0.031l0.092,0.016l0.005,0.026l-0.052,0.06l-0.078,0.063l-0.037,0.01l-0.013,0.023v0.037l-0.031,0.018l-0.037,0.003l-0.026,0.015l-0.013,0.024l-0.039,0.005l-0.037-0.018l-0.039-0.052l-0.031-0.005l-0.023,0.015l-0.008,0.052l0.016,0.045l-0.014,0.041l-0.039,0.021l-0.015,0.031l0.002,0.032l-0.031,0.018l-0.057-0.005l-0.018,0.028l0.018,0.079l0.073,0.13l-0.018,0.052l-0.053,0.036l-0.054,0.084l-0.032,0.12l0.016,0.036l-0.01,0.026l-0.037,0.026l-0.122,0.188l-0.003,0.031l0.013,0.06l-0.003,0.097l0.032,0.062l0.06,0.034l0.015,0.052l-0.039,0.058l-0.154,0.015l-0.02-0.013l0.01-0.021l0.091-0.021l0.021-0.039l-0.018-0.023h-0.063l-0.107,0.052l-0.083,0.023l-0.018,0.045l0.015,0.044l-0.02,0.018l-0.066,0.003l-0.026,0.034l-0.049,0.096l-0.091,0.084l-0.024,0.049l-0.018,0.102l-0.026,0.031l-0.086,0.042l-0.047,0.078l-0.021,0.086l-0.021,0.023l-0.036,0.011l-0.011,0.026l0.011,0.055l-0.047,0.054l-0.136,0.045l-0.031,0.031l-0.01,0.031l-0.042,0.031l-0.073,0.027l-0.047,0.041l-0.068,0.081l-0.075,0.018l-0.076-0.005l-0.039,0.016l-0.018,0.044l0.01,0.031l0.06,0.042l-0.002,0.044l-0.04,0.073l-0.026,0.003l-0.041-0.016l-0.019,0.016l0.027,0.104l-0.021,0.021l-0.084,0.003l-0.041,0.028l-0.003,0.037l0.042,0.062l-0.011,0.026l-0.06,0.019l-0.021,0.028l-0.01,0.055l-0.044,0.044l-0.005,0.042l-0.029,0.003l-0.052-0.032l-0.05,0.003l-0.088,0.078v0.026l0.031,0.003l0.044-0.026l0.045-0.003l0.049,0.034l0.005,0.026l-0.049,0.021l-0.06,0.008l-0.068-0.032l-0.026,0.011l-0.023,0.07l-0.047,0.026l-0.081-0.005l-0.044-0.026l-0.016-0.042l0.016-0.049l-0.008-0.026l-0.021,0.002l-0.039,0.055l-0.037-0.003l-0.031-0.028l-0.031,0.005l-0.039,0.073l-0.123,0.065l-0.052,0.044l-0.044-0.023l-0.013-0.06l-0.06-0.044l-0.047,0.002l-0.031,0.029l-0.016,0.055l-0.037,0.015l-0.083-0.013l-0.057,0.021l-0.102,0.128l-0.138,0.101l-0.034,0.05l0.013,0.036l0.136,0.04l0.039,0.023l0.007,0.047l-0.013,0.029l-0.041,0.007h-0.107l-0.133,0.019l-0.042-0.016l-0.044-0.052l-0.06,0.005l-0.065,0.065l-0.021,0.118l-0.034,0.044l-0.044,0.013l-0.076-0.013l-0.101,0.016l-0.063,0.075l-0.023,0.133l-0.039,0.008l-0.053-0.011l-0.049,0.016l-0.01,0.034l0.026,0.102l-0.014,0.039l-0.041,0.007l-0.058-0.026l-0.059-0.07h-0.053l-0.093,0.037l-0.045-0.008l-0.096-0.058l-0.052,0.006l-0.037,0.036l-0.021,0.11l-0.044,0.033l-0.216,0.032l-0.138,0.065l-0.162,0.109l-0.32,0.138l-0.071,0.058l-0.008,0.057l0.026,0.05l0.094,0.041l0.029,0.042l-0.003,0.057l-0.039,0.029h-0.065l-0.083-0.042h-0.058l-0.143,0.063l-0.055-0.008l-0.047-0.023l-0.007-0.066l-0.016-0.028h-0.029l-0.034,0.031l-0.107,0.195l-0.106,0.081l-0.125,0.078l-0.118,0.029l-0.086,0.068l-0.023,0.049l-0.021,0.128l-0.034,0.052l-0.198,0.107l-0.178,0.049l-0.081,0.052l-0.125,0.104l-0.168,0.097l-0.058,0.068l-0.014,0.061l-0.045,0.056l-0.01,0.041l-0.028,0.014l-0.073-0.003l-0.066,0.034l-0.08,0.115l-0.073,0.049l0.01,0.019l-0.015,0.048l-0.104,0.094l-0.026,0.063l0.006,0.068l0.039,0.069l0.014,0.094l-0.004,0.063l-0.026,0.046l-0.021,0.079l-0.002,0.067l-0.015,0.039l-0.143,0.113l-0.036,0.06l0.002,0.054l0.106,0.11l0.012,0.059l0.041,0.029l0.119,0.023l0.048,0.031l0.03,0.065l-0.013,0.105l0.057,0.039l0.057,0.013l0.047-0.042l0.055-0.008l0.102,0.06l0.091,0.013l0.068,0.037l0.041,0.057l-0.005,0.023l-0.029,0.008l-0.005,0.034l0.076,0.102l0.002,0.028l0.024,0.008l0.026-0.018l0.055,0.003l0.115,0.049l0.026,0.047l-0.01,0.034l0.01,0.018l0.026-0.02l0.019-0.024l0.036,0.011l0.026,0.046l-0.01,0.05l-0.042,0.039l-0.018,0.022l-0.021,0.063l-0.029,0.027l-0.018,0.055l0.008,0.039l0.031,0.008l0.021-0.008l0.018,0.021l-0.013,0.034l-0.055,0.021l0.003,0.026l0.047,0.013h0.047l0.007-0.029l-0.017-0.023l0.01-0.025l0.08-0.031l0.086-0.075l0.09-0.051l0.039-0.003l0.043,0.021l0.019-0.002l0.004-0.015l-0.04-0.062l0.017-0.038l0.083-0.027l0.005-0.037l-0.041-0.07l0.007-0.078l0.037-0.066l-0.021-0.073l0.021-0.015l0.047,0.036l0.055,0.008l0.062,0.076l0.029,0.013l0.052-0.013l0.065,0.026l0.052,0.055l0.047,0.015l0.05-0.013l0.031,0.018l0.034,0.11l-0.003,0.065l0.024,0.031l0.057,0.011l0.052,0.028l0.047-0.005l0.003-0.029l-0.024-0.033l0.013-0.063h0.034l0.055,0.07l0.01,0.039l-0.013,0.027l0.016,0.033l0.036,0.006l0.066-0.029l0.031-0.037l0.029,0.006l0.02,0.047l0.12,0.086v0.073l-0.029,0.054l0.027,0.028l0.066,0.017l0.053,0.053l0.066,0.163l0.003,0.038l0.024,0.011l0.039-0.035h0.055l0.073-0.049l0.004-0.059l-0.059-0.038l0.013-0.035l0.049-0.035l0.077,0.004l0.027-0.024l-0.017-0.046l0.035-0.024l0.083-0.031l0.025,0.024l-0.014,0.07l0.024,0.024l0.045,0.01l0.066,0.059l0.038,0.136l0.049,0.069l0.104-0.013l0.115-0.07l0.118-0.045l0.083-0.059l0.06-0.066l0.097-0.045l0.049-0.011l0.058-0.069l0.08-0.157l0.025-0.007l-0.018,0.07l-0.055,0.118l-0.07,0.083l-0.076,0.035l-0.118,0.139l-0.025,0.073l0.011,0.059l-0.028,0.073l-0.111,0.073l-0.07,0.09l-0.01,0.066l0.083,0.268l0.042,0.024l0.038-0.01l0.028-0.052l0.08-0.007l0.045,0.042l0.035-0.004l0.035-0.052h0.052l-0.007,0.024l-0.024,0.018l-0.025,0.048l-0.076,0.004l-0.056-0.025l-0.031,0.007l-0.011,0.112l0.035,0.135l0.07,0.028l0.062-0.011l0.025,0.025l-0.101,0.031l-0.049,0.056l-0.017,0.094l-0.08,0.114l-0.15,0.111l-0.142,0.202l-0.059,0.25l-0.091,0.191l-0.191,0.233l-0.045,0.09l-0.014,0.07l-0.062,0.115l-0.056,0.173l-0.062,0.143v0.083l0.02,0.038l-0.003,0.056l-0.028,0.059l-0.003,0.059l0.031,0.07l-0.007,0.045l-0.035,0.062l0.028,0.049l0.063,0.014l0.031,0.028l0.003,0.052l0.07,0.017l0.139-0.041l0.055-0.063l-0.003-0.087l0.031,0.017l0.014,0.087l-0.073,0.077l0.007,0.038l0.143,0.097l0.104,0.007l0.069-0.045l0.053-0.017l0.059,0.007l0.344-0.08l0.104,0.003l0.08,0.025l0.174,0.027l0.125,0.07l0.079,0.094l0.035,0.097l0.045,0.017l0.039-0.021l-0.011-0.041l-0.052-0.038l-0.01-0.063l0.031-0.118l-0.017-0.038l-0.07-0.035l-0.052-0.08l-0.017-0.181l-0.032-0.041h-0.062l-0.059-0.049l-0.028-0.108v-0.083l0.049-0.038l0.163-0.063l0.052-0.073l-0.01-0.09l0.024-0.056l0.101-0.059l0.031-0.031l0.014-0.059l0.121-0.108l0.094-0.021l0.108,0.038l0.07-0.021l0.059-0.097l0.034-0.097l0.042-0.045l0.097,0.024l0.07,0.066l0.087-0.007l0.111-0.052l0.028-0.056l0.066-0.003l0.087,0.021l-0.056,0.01l-0.059-0.007l-0.025,0.021v0.035l0.035,0.028h-0.038l-0.024-0.011l-0.039,0.007l-0.086,0.042l-0.073,0.01l-0.063-0.028l-0.042-0.048l-0.045-0.018l-0.031,0.014l-0.052,0.119l-0.066,0.118l-0.108,0.017l-0.198,0.014l-0.062,0.045l-0.028,0.07l-0.045,0.038l-0.077,0.059l-0.01,0.045l-0.004,0.08l-0.035,0.069l-0.045,0.039l-0.142,0.048l-0.035,0.035l-0.003,0.056l0.031,0.076l0.101,0.038l0.059,0.059l0.021,0.066v0.126l0.034,0.055l0.084,0.049l0.024,0.055l-0.024,0.087l0.007,0.07l0.048,0.059l-0.003,0.062l-0.021,0.039l0.014,0.031l0.08,0.066l0.01,0.042l-0.007,0.135l0.035,0.097l-0.014,0.077l-0.014-0.063l-0.041-0.104l-0.004-0.08l0.007-0.062l-0.021-0.035l-0.09-0.066l-0.07-0.014l-0.055-0.049l-0.066-0.128l-0.139-0.073l-0.258-0.035l-0.058-0.024l-0.06,0.01l-0.052,0.077l-0.066,0.007l-0.066-0.014l-0.094,0.014l-0.086,0.086l-0.084,0.042l-0.09,0.007l-0.059-0.017l-0.108,0.014l-0.042,0.034l-0.111,0.004l-0.066-0.059v-0.056l-0.028-0.014l-0.01,0.045l0.01,0.056l0.035,0.056l-0.007,0.066l-0.049,0.01l-0.045-0.035l-0.073-0.135l-0.055-0.011l-0.035,0.039l0.024,0.107l0.056,0.077l-0.004,0.08h-0.045l-0.076-0.028l-0.174,0.024l-0.063,0.063l-0.065,0.017l-0.07-0.031l-0.073,0.003l-0.014,0.028l0.028,0.021l0.056,0.003l0.024,0.032l-0.052,0.118l0.007,0.031l0.045,0.024l0.035,0.056l0.003,0.101l-0.069,0.125l-0.063,0.045l0.003,0.07l-0.01,0.027l-0.035-0.041l-0.007-0.046l-0.031,0.004l-0.132,0.156l-0.083,0.157l-0.108,0.087l-0.035,0.062l0.007,0.077l0.045,0.059l0.004,0.09l-0.028,0.115l0.035,0.09l0.09,0.101l0.094,0.031l0.059-0.007l0.059-0.049l0.108,0.004l0.038,0.035l-0.024,0.021l-0.077-0.014l-0.055,0.024l-0.063,0.069l-0.052-0.003l-0.024-0.042l-0.049-0.017l-0.056-0.007l-0.055-0.052l-0.004-0.038l-0.031-0.004l-0.16,0.177l-0.017,0.059l-0.028,0.039h-0.038l-0.052-0.039l-0.035,0.007l-0.066,0.098l-0.07,0.045l-0.107,0.031h-0.15l-0.038,0.017l-0.007,0.039l0.087,0.052l0.302,0.073h0.15l0.038-0.021l0.055-0.014h0.077l0.122-0.059l0.069,0.003l0.118,0.042l0.205,0.115l0.049,0.059l0.035,0.003l0.041-0.024l0.056-0.003l0.059,0.013l0.142-0.031l0.077-0.048l0.215-0.028l0.091,0.014l0.087,0.048h0.045l0.055-0.021l0.042,0.011l0.073,0.052l0.003,0.035l-0.041-0.014l-0.045,0.007l-0.059,0.073v0.059l0.031,0.048l-0.025,0.011l-0.055-0.024l-0.042-0.073l-0.055-0.049l-0.091-0.01l-0.104,0.027l-0.101,0.004l-0.034,0.052l-0.004,0.09l0.066,0.098l0.042,0.027l0.007,0.046l-0.042,0.041h-0.122l-0.055-0.035l0.01-0.031l-0.035-0.021l-0.09,0.007l-0.073,0.07l-0.121,0.021l-0.039,0.041l-0.034,0.098l0.017,0.031l0.035-0.004l0.052-0.045l0.031,0.014v0.066l0.073,0.063l0.101,0.003l0.048,0.028l0.035,0.056l0.136,0.052l0.18,0.014l0.136-0.035l0.094-0.07l0.028-0.059l-0.007-0.083l0.059-0.059l0.038,0.003l-0.011,0.028l-0.041,0.035l0.007,0.066l0.069,0.038l0.059-0.014l0.049,0.018l0.01,0.08l-0.024,0.076l-0.205,0.146l-0.049,0.076l0.025,0.011l0.048-0.035l0.084,0.014l0.041,0.045l0.039-0.007l-0.011-0.038l-0.062-0.042l0.024-0.024l0.104-0.024l0.018,0.034l-0.028,0.073l0.014,0.025l0.055-0.021l0.094-0.08l0.056-0.104l0.041-0.021l-0.017-0.028l-0.056-0.007l0.007-0.028l0.066-0.003l0.084,0.045h0.087l0.08,0.056l0.041-0.014l-0.003-0.073l-0.07-0.063l-0.139-0.024l-0.038-0.035l0.038-0.014l0.112,0.021l0.052-0.031l0.017-0.049l0.031-0.017l0.025,0.107l0.034,0.018l0.066-0.011l0.039,0.021l-0.028,0.025l-0.07,0.02l-0.01,0.032l0.038,0.083l0.09,0.066l0.014,0.035l-0.027,0.003l-0.08-0.038l-0.136,0.004l-0.128,0.076l-0.025,0.069l-0.038,0.011l-0.052-0.007l-0.042,0.031l0.007,0.031l0.063,0.053l0.083-0.007l-0.024,0.027l-0.066,0.007l-0.052-0.024l-0.035,0.014l-0.011,0.038l-0.055,0.056l-0.056,0.094l-0.003,0.059l0.059,0.038l0.014,0.076h0.048l0.011-0.045l-0.011-0.038l0.056-0.083l0.163-0.046l0.177,0.011l0.049-0.021l0.063-0.101l0.031-0.167l0.042-0.052l0.014,0.039l-0.007,0.062l0.048,0.049l0.084,0.007l0.007-0.07l0.038-0.021l0.059,0.028v0.031l-0.031,0.025l0.02,0.028l0.122,0.01l0.028-0.028l0.017-0.108l-0.031-0.045l0.007-0.045l0.08-0.031l-0.004-0.045l-0.052-0.063l0.011-0.031l0.052-0.025l0.017-0.125l-0.031-0.104l0.007-0.038l0.038-0.007l0.049,0.104l0.08,0.028l0.149-0.066l0.066-0.076l0.011-0.049l-0.032-0.004l-0.034,0.049l-0.06-0.003l-0.024-0.056l0.024-0.066l0.042-0.024l-0.017-0.032h-0.059l-0.039-0.031l0.007-0.052h-0.041l-0.084,0.076h-0.055l-0.139-0.093l-0.07-0.101l0.025-0.052l0.104-0.004l0.055,0.035h0.067l0.055-0.021l0.056,0.021l0.087,0.108h0.034l0.007-0.045l-0.028-0.028l0.021-0.025l0.112,0.007l0.079,0.046l0.004,0.041l0.028,0.018l0.052-0.007l0.041,0.038l-0.01,0.104l0.031,0.066l0.087,0.059l0.139,0.143l0.052,0.09l0.073,0.149l0.004,0.06l0.031,0.055l0.059,0.007l0.219-0.059l0.063-0.042l0.066,0.004l0.111,0.059l0.076,0.097l0.097,0.17l0.07,0.053l0.143,0.003l0.041-0.056l0.011-0.083l-0.032-0.066l-0.017-0.118l0.038-0.059l0.101-0.038l0.08-0.056h0.076l0.094,0.056l0.07-0.014l0.062-0.066l0.369-0.122l0.045-0.056l-0.007-0.034l-0.077-0.059l0.004-0.098l0.028-0.066l0.01,0.039l-0.01,0.104l0.083,0.055l0.021,0.052l-0.035,0.091l0.007,0.076l0.063,0.059l0.093,0.046l0.035,0.034l0.014,0.045l0.045,0.028l0.08,0.004l0.233,0.149l0.042,0.045h0.069l0.045-0.069l0.063-0.018l0.08,0.018l0.021-0.031l0.01-0.07l0.073-0.108l0.063-0.024L1111.095,303.262z M1102.164,294.205l0.011-0.024l0.028-0.013v-0.021l-0.034-0.015l-0.001-0.044l0.031-0.027l0.062-0.021l0.108-0.073l0.028,0.003l-0.007,0.035l0.024,0.024l-0.015,0.021l-0.002,0.028l-0.028,0.017l-0.078,0.032l-0.097,0.087l-0.018,0.003l-0.012-0.012L1102.164,294.205z"/>
</svg>
