<svg xmlns="http://www.w3.org/2000/svg" viewBox="1105.260 299.926 16.552 19.811">
  <path d="M1119.789,314.884l0.055-0.029l0.031,0.008l0.05,0.031l0.042,0.073l0.005,0.037l0.031,0.026l-0.005,0.026l-0.031,0.003l-0.073-0.06l-0.034-0.005l-0.076-0.07L1119.789,314.884L1119.789,314.884z M1109.531,304.527l0.01,0.01l0.01,0.004l0.001-0.015l-0.006-0.009l-0.01-0.003L1109.531,304.527L1109.531,304.527z M1107.485,304.238l0.023,0.013v0.023l-0.034,0.013l-0.021-0.013l0.005-0.031L1107.485,304.238L1107.485,304.238z M1109.388,303.749l0.017-0.012l0.02,0.016l-0.005,0.034l-0.021,0.008l-0.018-0.014L1109.388,303.749L1109.388,303.749z M1109.537,303.749l-0.016,0.018l-0.022-0.008l-0.004-0.021l0.01-0.021l0.02,0.002L1109.537,303.749L1109.537,303.749z M1110.418,304.361l0.008-0.024l0.031-0.016l0.027,0.008l-0.008,0.027l-0.031,0.02L1110.418,304.361L1110.418,304.361z M1108.429,304.271l0.003-0.016l0.01-0.006l0.014,0.003l0.004,0.01l-0.005,0.01l-0.012,0.004L1108.429,304.271L1108.429,304.271z M1108.998,303.941l0.002-0.016l0.028-0.007l0.038,0.012l-0.002,0.017l-0.036,0.003L1108.998,303.941L1108.998,303.941z M1109.402,304.04l-0.023,0.003l-0.008-0.004l0.005-0.01l0.029-0.002l0.007,0.006L1109.402,304.04L1109.402,304.04z M1107.356,303.988l0.035-0.024l0.08-0.003l0.024,0.024l-0.028,0.059l-0.059,0.028l-0.038-0.014L1107.356,303.988L1107.356,303.988z M1109.128,303.992l0.014-0.028l0.042-0.003l0.052-0.021l0.045,0.014l0.038,0.073l-0.01,0.024l-0.076-0.003L1109.128,303.992L1109.128,303.992z M1109.381,304.099l0.031-0.028h0.045l0.021,0.024l0.014,0.066l-0.028,0.01l-0.066-0.042L1109.381,304.099L1109.381,304.099z M1110.01,305.159l0.017-0.042l0.035-0.003l0.101,0.083l0.01,0.049l-0.028,0.038h-0.066l-0.031-0.035l-0.007-0.049L1110.01,305.159L1110.01,305.159z M1110.601,304.621v-0.038l0.035-0.042l0.035,0.003l0.007,0.052l-0.035,0.042L1110.601,304.621L1110.601,304.621z M1109.892,304.93l-0.024-0.059l0.028-0.035l0.066-0.01l0.087-0.066l0.115-0.035l0.135-0.007l0.066-0.038l0.017-0.063l0.042-0.021l0.076,0.007l0.076,0.052l0.045,0.014l0.066,0.063l-0.003,0.052l-0.073,0.042l-0.125,0.021l-0.108,0.066l-0.139,0.122l-0.073,0.024l-0.073-0.014l-0.07-0.07l-0.035,0.003l-0.038,0.017l-0.052-0.024L1109.892,304.93L1109.892,304.93z M1109.717,304.486l0.081,0.031l0.031,0.036l0.06,0.021l0.047-0.005l0.026,0.01l-0.003,0.023l-0.141-0.003l-0.042,0.016l-0.016-0.017v-0.045l-0.056-0.056L1109.717,304.486L1109.717,304.486z M1109.302,303.55l0.026-0.029l0.044,0.013l0.031-0.013l0.003-0.026l-0.026-0.029v-0.044l0.052-0.039l0.089-0.003l0.112,0.047l0.052,0.008l0.047-0.016l0.039,0.013l0.008,0.039l-0.062,0.073l-0.078,0.042l-0.175,0.005l-0.034,0.031l-0.052,0.005l-0.068-0.034L1109.302,303.55L1109.302,303.55z M1109.579,303.874l-0.003-0.036l0.031-0.047l0.008-0.07l0.034-0.039l0.089-0.026l0.018,0.016l-0.008,0.039l-0.018,0.042l-0.003,0.057l0.052,0.06l0.078,0.021l0.052,0.016l0.034,0.05l-0.005,0.055l-0.102,0.076l-0.044,0.003l-0.029-0.016l-0.005-0.068l-0.029-0.047l-0.057-0.031L1109.579,303.874L1109.579,303.874z M1110.332,304.301h-0.034l-0.031,0.031l-0.05,0.008l-0.138-0.01l-0.078-0.026l-0.062-0.065l-0.005-0.049l-0.026-0.026l0.008-0.023l0.089-0.008l0.034-0.021l0.013-0.057l-0.018-0.078l-0.078-0.094l-0.076-0.026l-0.026-0.042l0.003-0.258l-0.013-0.042l0.003-0.039l0.117-0.052l0.029-0.05l0.036-0.031h0.055l0.036-0.021h0.036l0.057,0.063l0.125,0.099l0.055,0.021l0.039,0.044l0.003,0.047l0.029,0.063l0.008,0.047l-0.031,0.055l-0.003,0.063l0.034,0.034l0.008,0.039l-0.026,0.049l0.005,0.044l0.031,0.036v0.029l-0.01,0.023l0.029,0.091l0.026,0.034l0.005,0.029l-0.055,0.018l-0.036,0.057l-0.063,0.018L1110.332,304.301L1110.332,304.301z M1110.035,304.593l0.018-0.029l0.062-0.031l0.031,0.01l0.016,0.034l0.042-0.003l0.039-0.023l0.044,0.01l0.016,0.049l-0.013,0.044l-0.031,0.005l-0.135-0.013l-0.029-0.026l0.003-0.023l-0.023-0.01l-0.029,0.016L1110.035,304.593L1110.035,304.593z M1118.885,315.043l0.021-0.042l0.102-0.018l0.039,0.016l0.039,0.057l0.005,0.083l-0.031,0.063l-0.005,0.055l-0.021,0.029h-0.031l-0.013-0.07l-0.031-0.044l-0.008-0.052l-0.026-0.034L1118.885,315.043L1118.885,315.043z M1119.153,315.002l0.007-0.01l0.061,0.002l0.007,0.014l-0.016,0.009l-0.05-0.005L1119.153,315.002L1119.153,315.002z M1119.385,314.96l0.01-0.068l0.052-0.091l0.018,0.005l-0.005,0.055l-0.036,0.086l-0.026,0.023L1119.385,314.96L1119.385,314.96z M1119.273,314.939l0.039-0.162l0.003-0.044l0.008-0.237l0.023-0.057l0.083-0.081h0.135l0.055-0.018l0.008,0.018l-0.018,0.042l-0.099,0.086l-0.023,0.057l0.013,0.055l-0.018,0.115l-0.062,0.076l-0.047,0.099l-0.039,0.023l-0.008,0.029l-0.031,0.016L1119.273,314.939L1119.273,314.939z M1119.107,314.989l0.026,0.008l-0.008,0.016l-0.034,0.003l-0.008-0.018L1119.107,314.989L1119.107,314.989z M1119.245,315.028l0.014-0.007l0.052,0.017l0.005,0.012l-0.028,0.002l-0.031-0.014L1119.245,315.028L1119.245,315.028z M1119.413,315.026l0.012-0.003l0.023,0.007l0.003,0.014h-0.024l-0.016-0.007L1119.413,315.026L1119.413,315.026z M1119.419,315.083l-0.017-0.005v-0.012l0.042-0.007l0.031,0.007v0.014L1119.419,315.083L1119.419,315.083z M1119.332,315.016l0.028,0.002l0.005,0.01l-0.012,0.012l-0.023-0.002l-0.01-0.014L1119.332,315.016L1119.332,315.016z M1119.318,314.974l0.026-0.017h0.016l0.002,0.014l-0.016,0.009l-0.024,0.003L1119.318,314.974L1119.318,314.974z M1118.215,315.346l0.024-0.01l0.018-0.026l0.003-0.036l0.065-0.068l0.031-0.005l0.018,0.023l-0.021,0.091l-0.036,0.044l-0.057,0.016l-0.044-0.01V315.346L1118.215,315.346z M1117.908,315.557h-0.023l-0.031-0.034l-0.003-0.031l0.016-0.021l-0.003-0.029l-0.01-0.029v-0.036l0.029-0.016l0.047,0.029l-0.003,0.031l-0.021,0.026v0.036l0.013,0.042L1117.908,315.557L1117.908,315.557z M1117.699,315.664l-0.021-0.031v-0.029l0.024-0.013l0.018,0.018v0.034L1117.699,315.664L1117.699,315.664z M1118.442,315.231l0.013-0.068l0.049-0.029l0.078,0.008l0.042,0.036v0.039l-0.062,0.055l-0.021,0.068l0.013,0.047l0.081,0.078l0.005,0.052l-0.016,0.029l-0.013,0.096l-0.047,0.07l-0.023,0.016v0.055l0.034,0.005l0.042-0.042l0.044-0.023l0.055-0.005l0.01,0.013l-0.029,0.036l0.003,0.034l-0.021,0.021l-0.026,0.005l-0.008,0.018l0.023,0.047l-0.01,0.026l-0.034-0.008l-0.021-0.016l-0.039,0.029l0.003,0.029l0.021,0.008l0.018-0.016l0.029,0.01l0.005,0.023l-0.005,0.023l0.016,0.035l0.023,0.022l0.013,0.055l-0.016,0.018l-0.055-0.016l-0.029-0.034l-0.013-0.034l-0.023,0.005l-0.013,0.042l-0.018,0.005l-0.01-0.029l-0.055-0.031l-0.021,0.005v0.052l0.016,0.052l-0.016,0.021l-0.036,0.023h-0.042l-0.018,0.021l0.007,0.073l0.016,0.026l0.036,0.003l0.026-0.008l0.055,0.031l-0.005,0.029l-0.029,0.005l-0.047-0.018h-0.021l-0.034,0.013l-0.064-0.001l-0.009,0.012l0.023,0.036l0.03,0.023l-0.004,0.019h-0.047l-0.036,0.026l-0.045,0.005l-0.023-0.021h-0.031l-0.026,0.016l-0.016-0.017l0.016-0.036l0.03-0.031l0.054-0.019l-0.01-0.019l-0.057-0.01l-0.036-0.031l0.008-0.055l0.05-0.051l0.002-0.017l-0.026-0.008l-0.034,0.005l-0.034,0.026h-0.044l-0.01-0.026l0.042-0.042l-0.023-0.005l-0.044,0.029l-0.021-0.013l0.008-0.029l0.118-0.03l0.03-0.038l0.014-0.064l0.021-0.016v-0.021l-0.018-0.016l-0.008-0.042l-0.024-0.018l-0.029,0.005l-0.018,0.029v0.026l-0.021,0.008l-0.073-0.008l-0.057,0.029l-0.008,0.055l-0.023,0.01l-0.036-0.018l-0.016-0.047l-0.029-0.029l-0.044-0.036l-0.036-0.091l0.016-0.078l0.062-0.073l0.052-0.031l0.029-0.039l0.055-0.008l0.057,0.026l0.031,0.034l0.05,0.016l0.042-0.026h0.042l0.057,0.034l0.036-0.003l0.01-0.023l-0.016-0.039l-0.099-0.094l0.003-0.034l0.036-0.042l0.003-0.029l0.026-0.008l0.039,0.013l0.083-0.003l0.037-0.023l0.02-0.068l0.042-0.036h0.034l0.005-0.021L1118.442,315.231L1118.442,315.231z M1116.587,315.917l-0.005-0.024l0.012-0.024l0.057-0.021l0.056-0.002l0.073,0.024l0.024,0.024l-0.012,0.016l-0.054,0.005l-0.024,0.012l-0.043,0.054l-0.028-0.007l-0.019-0.033L1116.587,315.917L1116.587,315.917z M1116.729,315.987l0.004-0.024l0.042-0.031l0.047-0.002l0.026,0.016l0.038,0.047l0.043,0.019l0.002,0.024l-0.059,0.036l-0.012,0.026l-0.04,0.002l-0.047-0.036l-0.031-0.003l-0.005-0.017l0.009-0.016v-0.024L1116.729,315.987L1116.729,315.987z M1116.451,315.989l-0.028-0.014l-0.003-0.014l0.016-0.012h0.035l0.023,0.021l-0.012,0.023L1116.451,315.989L1116.451,315.989z M1117.024,316.279l0.003-0.021l0.03-0.007l0.052,0.028l-0.003,0.016l-0.028,0.024l-0.026-0.003L1117.024,316.279L1117.024,316.279z M1116.812,316.71l0.01-0.014l0.057,0.003l0.05,0.033l0.037,0.011l0.002,0.023l-0.009,0.014l0.005,0.014l0.024-0.007l0.035-0.042l0.033-0.003l0.005,0.021l-0.031,0.049l-0.023,0.017l-0.04-0.002l-0.014-0.016l-0.017-0.002l-0.056,0.024l-0.022,0.023l-0.018-0.006l0.008-0.021l-0.027-0.044l-0.029-0.017l0.005-0.017l0.019-0.003l0.005-0.014L1116.812,316.71L1116.812,316.71z M1117.622,316.48l0.003-0.024l0.028-0.026l0.002-0.028l-0.005-0.019l0.016-0.023l0.016,0.002l0.016,0.024l-0.005,0.026l-0.016,0.014l-0.003,0.016l0.009,0.023l-0.014,0.023l-0.028,0.003L1117.622,316.48L1117.622,316.48z M1116.66,316.552l-0.061-0.047l-0.004-0.024l0.014-0.021l0.064,0.006l0.029,0.025l0.008,0.046l-0.024,0.018L1116.66,316.552L1116.66,316.552z M1116.815,316.621l0.014-0.021l0.071-0.01l0.01,0.014l-0.01,0.021l-0.04,0.01l-0.032-0.004L1116.815,316.621L1116.815,316.621z M1117.239,316.719l0.029-0.01l0.047,0.014l0.05,0.028l-0.014,0.011l-0.051-0.011l-0.03,0.008l-0.031-0.014V316.719L1117.239,316.719z M1117.912,316.048l0.023-0.038l0.03-0.01l0.019,0.023l-0.007,0.028l-0.038,0.028l-0.021-0.003L1117.912,316.048L1117.912,316.048z M1117.804,316.126l-0.003-0.028l0.01-0.012l0.019,0.003l0.002,0.031l-0.014,0.014L1117.804,316.126L1117.804,316.126z M1117.853,316.249l0.007-0.019l0.043,0.003l0.021,0.023l0.031,0.007l0.033-0.012l0.035,0.017l-0.004,0.019l-0.016,0.017l-0.035-0.003l-0.026-0.017l-0.068-0.014L1117.853,316.249L1117.853,316.249z M1117.784,316.258h-0.04l-0.038-0.028l-0.012-0.036l-0.024-0.049v-0.05l0.014-0.007l0.016,0.031l0.016,0.002l0.002-0.04l-0.031-0.045l0.012-0.014l0.031,0.007l0.038,0.05l0.012,0.054l0.021,0.026l0.036,0.009l0.009,0.024l-0.014,0.04L1117.784,316.258L1117.784,316.258z M1117.728,316.336l0.009-0.016l0.035-0.016l0.028,0.009l0.042,0.036l-0.005,0.014l-0.031,0.005l-0.047-0.012L1117.728,316.336L1117.728,316.336z M1114.827,315.763l0.01-0.034l0.055-0.023l0.096,0.009l0.016,0.021l-0.028,0.056l-0.052,0.016l-0.06-0.003L1114.827,315.763L1114.827,315.763z M1117.455,315.971l0.043-0.01l0.063,0.007l0.031,0.035v0.042l-0.036,0.078l-0.021,0.005l-0.003,0.016l0.026,0.03l-0.002,0.035l-0.033,0.03l-0.075,0.005l-0.031-0.03l-0.021-0.069l-0.038-0.03l-0.005-0.033l0.009-0.026l-0.007-0.028l-0.082-0.033l-0.038,0.017l-0.035-0.009l-0.003-0.017l0.012-0.036l0.036-0.023l0.064,0.01l0.043,0.038l0.061,0.014L1117.455,315.971L1117.455,315.971z M1117.261,316.02l0.017-0.007l0.038,0.012l0.012,0.017l-0.014,0.005l-0.036-0.01L1117.261,316.02L1117.261,316.02z M1114.88,315.624l0.009-0.061l0.021-0.023l0.059-0.049l0.023,0.005v0.031l0.03,0.023l0.075,0.005l0.07,0.063l0.003,0.092l-0.014,0.016l-0.04-0.003l-0.033-0.038l-0.009-0.03l-0.054-0.007l-0.047,0.005l-0.077-0.012L1114.88,315.624L1114.88,315.624z M1115.012,315.516l0.005-0.05l0.036-0.023l0.036,0.005l0.019,0.024l-0.005,0.056l-0.019,0.014l-0.052-0.007L1115.012,315.516L1115.012,315.516z M1115.833,315.907l-0.017-0.068l0.007-0.049l0.04-0.043l0.024-0.014l0.064-0.101l0.061-0.038l0.061,0.002l0.012,0.021l-0.021,0.049l-0.04,0.05l-0.012,0.08l0.019,0.026l0.012-0.01l-0.009-0.024l0.014-0.043l0.045-0.028l0.042,0.005l0.021,0.021l0.045,0.024l0.012,0.03l-0.003,0.038l-0.021,0.017l0.002,0.021l0.023,0.035l0.061,0.042l-0.003,0.017l-0.057-0.005l-0.056-0.023l-0.087-0.019l-0.038,0.017l-0.109,0.003l-0.049-0.01L1115.833,315.907L1115.833,315.907z M1115.448,315.549l0.047-0.042l0.057-0.017l0.042,0.005l0.064,0.026l0.038,0.064l-0.004,0.054l-0.031,0.073l-0.049,0.036l-0.021,0.043l0.016,0.076l0.056,0.073l0.061,0.019l0.028,0.028l0.004,0.04l0.049,0.035l0.012-0.009v-0.021l0.021-0.016l0.028-0.003l0.064-0.054l0.12-0.007l0.042,0.014l0.024,0.023l0.054,0.014l0.028,0.028l-0.005,0.05l-0.035,0.064l-0.002,0.033l0.017,0.045l-0.002,0.085l-0.033,0.04l-0.038,0.019v0.017l0.036,0.042l0.052,0.028l-0.009,0.012l-0.052,0.021l-0.021,0.002l-0.019-0.016h-0.016l-0.019,0.007l-0.012-0.009l0.01-0.042l-0.012-0.016l-0.024,0.002l-0.017,0.028l-0.021,0.002l-0.009-0.014l-0.021,0.003l-0.019,0.017l-0.082,0.005l-0.038-0.024l-0.05-0.085l-0.012-0.075l0.014-0.052l0.023-0.031l-0.014-0.007l-0.062,0.002l-0.076,0.042l-0.007,0.04l0.024,0.073l-0.017,0.045l-0.063,0.024l-0.089-0.012l-0.062-0.042l-0.002-0.045l-0.03-0.014l-0.009-0.035l0.017-0.043l0.03-0.017l-0.003-0.017l-0.052-0.047l-0.035-0.096l-0.057-0.082l-0.005-0.061l-0.017-0.024l0.004-0.03l0.03-0.031l0.052-0.106l-0.01-0.031l0.009-0.01l0.023,0.012l0.045-0.016l0.045,0.003l0.004-0.01l-0.023-0.023v-0.043L1115.448,315.549L1115.448,315.549z M1114.533,315.763l0.011-0.01l0.037,0.001l0.007,0.014l-0.011,0.008l-0.036-0.006L1114.533,315.763L1114.533,315.763z M1115.336,315.566l0.002-0.031l0.014-0.009l0.01,0.01l-0.004,0.031l-0.01,0.009L1115.336,315.566L1115.336,315.566z M1115.853,315.344l0.033,0.042l0.054,0.016l0.004,0.016l-0.03,0.016l-0.061-0.017l-0.026-0.036l0.01-0.031L1115.853,315.344L1115.853,315.344z M1116.241,315.652l0.017,0.003l0.017,0.038l-0.012,0.036l-0.016,0.003l-0.016-0.019l-0.004-0.05L1116.241,315.652L1116.241,315.652z M1117.983,314.995l0.04,0.003l0.017,0.017l0.005,0.028l-0.01,0.012l-0.028-0.009l-0.033-0.04L1117.983,314.995L1117.983,314.995z M1115,316.399l0.033,0.019l0.026,0.047l0.002,0.054l0.014,0.028l0.026,0.003l0.003,0.012l-0.024,0.005l-0.028,0.019l-0.021,0.036l-0.033,0.038l-0.064,0.036l-0.01,0.033l0.007,0.024l-0.002,0.023l-0.023,0.028l-0.002,0.021l0.03,0.024l0.052,0.016l0.016,0.033l0.047,0.036l0.043,0.003l0.038,0.007l0.038,0.021h0.036l0.031-0.019l0.005-0.023l-0.045-0.059l0.003-0.057l0.014-0.026l0.007-0.066l0.014-0.045l-0.005-0.016h-0.021l-0.014-0.01l-0.003-0.028l-0.031-0.026l-0.023-0.066l-0.03-0.014l-0.016-0.024l0.003-0.017l0.023-0.003l0.033,0.019h0.028l0.002-0.012l-0.036-0.059l-0.07-0.038l-0.042-0.002l-0.031,0.009L1115,316.399L1115,316.399z M1114.661,317.062l0.042,0.026h0.043l0.036-0.04l0.017-0.002l0.016,0.014h0.035l0.01-0.019l-0.031-0.019l-0.061-0.009l-0.024-0.023l-0.035-0.01l-0.038,0.009l-0.038,0.03l-0.003,0.033L1114.661,317.062L1114.661,317.062z M1113.909,317.396l-0.014,0.016l-0.009,0.023l0.014,0.009l0.019-0.016l0.004-0.03L1113.909,317.396L1113.909,317.396z M1114.017,317.377l0.108-0.014l0.017-0.014l-0.035-0.054l-0.03-0.009l-0.014,0.007l-0.031-0.002l-0.05-0.021l-0.005-0.017l0.026-0.005l0.007-0.014l-0.035-0.028l0.003-0.012l0.026,0.002l0.03-0.019v-0.024l-0.038-0.017l-0.054,0.002l-0.049,0.043l-0.009,0.042l0.005,0.026l0.038,0.012l0.019,0.016l-0.002,0.035l-0.023,0.026v0.033l0.024,0.031h0.03L1114.017,317.377L1114.017,317.377z M1113.944,317.46l0.019,0.049l-0.016,0.017l0.005,0.014h0.028l0.03,0.04l0.024,0.007l0.014-0.009l0.014,0.002l0.014,0.03l-0.007,0.042l0.014,0.016l0.056-0.009l0.04-0.036h0.024l0.017,0.01h0.019l0.024-0.066l-0.014-0.042l-0.073-0.038l-0.028-0.036l-0.017-0.005l-0.01,0.024l-0.036,0.005l-0.071-0.017l-0.04-0.038l-0.024,0.002L1113.944,317.46L1113.944,317.46z M1115.223,317.505l-0.01,0.056l-0.03,0.028l-0.004,0.042l0.014,0.043l0.03,0.014l0.023-0.009l0.019-0.042l0.005-0.082l0.023-0.023l-0.004-0.01l-0.03,0.002l-0.01-0.012l0.009-0.019l-0.01-0.009L1115.223,317.505L1115.223,317.505z M1115.23,317.429l0.014,0.002l0.007-0.017l0.014-0.005l0.028,0.01l0.026-0.009v-0.019l-0.016-0.017l-0.004-0.017l0.024-0.016l-0.005-0.012l-0.045,0.007l-0.038,0.035l-0.014,0.031L1115.23,317.429L1115.23,317.429z M1115.2,317.38l0.017-0.016l-0.003-0.03l-0.031-0.031l-0.038-0.009l0.002-0.012l0.014-0.016l-0.017-0.049l-0.04-0.045l-0.017-0.049l-0.047-0.019l-0.063,0.003l-0.064,0.052l-0.024,0.002l-0.023-0.003l-0.012,0.01l0.016,0.023l0.061,0.03l0.033,0.002l0.01,0.012l-0.002,0.023l0.03,0.043l0.042,0.019l0.062,0.01l0.014,0.012l0.004,0.019l0.016,0.016L1115.2,317.38L1115.2,317.38z M1114.971,316.506l0.035-0.002l0.002-0.019l-0.033-0.021l-0.004-0.03l-0.017-0.007l-0.021,0.024v0.031L1114.971,316.506L1114.971,316.506z M1114.894,317.043l0.023,0.009l0.031-0.012l0.017-0.026l-0.016-0.01l-0.036,0.005l-0.016,0.017L1114.894,317.043L1114.894,317.043z M1115.007,317.012l0.009-0.017l-0.019-0.024l-0.002-0.026l-0.016-0.01l-0.017,0.017l-0.005,0.031l0.024,0.024L1115.007,317.012L1115.007,317.012z M1114.983,317.081h0.03l0.007-0.014l-0.033-0.026l-0.016,0.002l-0.01,0.021L1114.983,317.081L1114.983,317.081z M1114.156,316.779v0.019l0.03,0.036h0.021l0.005-0.021l-0.026-0.018l-0.008-0.031l-0.014,0.003L1114.156,316.779L1114.156,316.779z M1114.21,316.876l0.019,0.023l0.033,0.002l0.024,0.026h0.036l0.036-0.03l0.009-0.026l-0.009-0.017l-0.047-0.005l-0.038,0.009l-0.038-0.009l-0.023,0.005L1114.21,316.876L1114.21,316.876z M1114.269,316.823l0.036-0.005l0.016-0.009l-0.005-0.014l-0.038-0.005l-0.024,0.01v0.016L1114.269,316.823L1114.269,316.823z M1114.345,316.796l0.035,0.009l0.009-0.014l-0.035-0.033l-0.031-0.009l-0.014,0.014L1114.345,316.796L1114.345,316.796z M1113.92,316.188l0.019-0.003l0.01-0.021l0.012-0.012l0.043-0.012l0.007-0.023l-0.007-0.023l-0.019,0.002l-0.017,0.024l-0.03,0.01l-0.021,0.032l-0.008,0.013L1113.92,316.188L1113.92,316.188z M1113.869,316.541l0.043,0.033l0.023,0.002l0.014-0.035l-0.012-0.012l-0.024,0.003l-0.021-0.021l-0.028-0.007l-0.005,0.012L1113.869,316.541L1113.869,316.541z M1113.11,318.463l0.034,0.031l0.068,0.003l0.029-0.031l0.01-0.094l-0.031-0.021l-0.052,0.01l-0.044,0.06L1113.11,318.463L1113.11,318.463z M1113.563,318.199v0.052l0.021,0.005l0.062-0.049l0.003-0.029l-0.029-0.01l-0.034,0.005L1113.563,318.199L1113.563,318.199z M1113.728,318.215h0.021l0.016-0.021l-0.013-0.036l-0.021-0.008l-0.021,0.013v0.034L1113.728,318.215L1113.728,318.215z M1113.222,317.809l0.036,0.005l0.026-0.013l-0.005-0.034l-0.029-0.021l-0.044-0.065l-0.018,0.003l-0.003,0.023l0.021,0.029l0.008,0.023l-0.013,0.021L1113.222,317.809L1113.222,317.809z M1112.154,318.108l0.042,0.005l0.076-0.026l0.039-0.039l0.008-0.031l-0.068-0.039h-0.096l-0.034,0.034l-0.005,0.042L1112.154,318.108L1112.154,318.108z M1112.399,317.538l0.016,0.089l0.026,0.018l0.039-0.018l0.016,0.01v0.06l0.018,0.005l0.026-0.063l0.005-0.034l-0.026-0.076l-0.07-0.042l-0.062-0.003l-0.01,0.026L1112.399,317.538L1112.399,317.538z M1112.706,317.298l0.047-0.003l0.016-0.026l-0.008-0.029l-0.073-0.003l-0.036,0.021l0.003,0.026L1112.706,317.298L1112.706,317.298z M1112.685,317.543l0.013,0.026l0.055,0.042l0.05,0.005l0.062-0.016l0.141,0.01l0.06-0.021l0.068-0.136l0.005-0.044l-0.039-0.06l-0.036-0.008l-0.031,0.013l-0.083-0.005l-0.109,0.06h-0.073l-0.036-0.029l-0.029,0.003l-0.057,0.076l0.003,0.06L1112.685,317.543L1112.685,317.543z M1112.294,317.931l0.047-0.003l0.039,0.023l0.008,0.029l0.021,0.008l0.031-0.013h0.021l-0.003,0.031l-0.042,0.029l-0.005,0.029l0.023,0.003l0.052-0.047l0.055-0.016l0.005-0.021l-0.036-0.013l0.01-0.018l0.055,0.005l0.039,0.018l0.026-0.003l-0.073-0.07l-0.039-0.008l-0.065,0.018l-0.031-0.008l-0.023-0.07l-0.042-0.023l-0.042,0.018l-0.018,0.03l-0.002,0.031l-0.016,0.007l-0.045-0.009l0.003,0.016L1112.294,317.931L1112.294,317.931z M1110.926,317.75h0.016l0.014-0.01v-0.014l-0.023-0.002l-0.014,0.014L1110.926,317.75L1110.926,317.75z M1110.938,317.872l0.003,0.085l0.021,0.043l0.09,0.056l0.082,0.092l0.03,0.007l0.036-0.009l0.038,0.005l0.038,0.021l0.017-0.007l0.002-0.028l0.017-0.002l0.026,0.028l0.089,0.021l0.007-0.01l-0.024-0.043l0.014-0.05l-0.016-0.024l-0.047-0.007l-0.036-0.03l-0.043-0.182l-0.076-0.078l-0.113-0.031l-0.097,0.017l-0.038,0.026L1110.938,317.872L1110.938,317.872z M1111.779,317.834l0.029,0.021l0.045,0.01l0.028,0.024l0.064,0.01l0.028-0.01l0.017-0.028l0.035-0.007l0.031,0.007l0.021-0.023l-0.01-0.047l0.004-0.035l0.019-0.042l-0.007-0.047l-0.019-0.002l-0.033,0.05l-0.009,0.033l-0.014,0.01l-0.064-0.024l-0.063-0.007l-0.043-0.012l-0.05-0.031l-0.009,0.014l0.016,0.026l-0.007,0.04l-0.014,0.036L1111.779,317.834L1111.779,317.834z M1111.4,317.801l0.052-0.005l0.012,0.009l-0.042,0.031l-0.012,0.04l0.023,0.021l0.026-0.005l0.05-0.08l0.033-0.019l0.066-0.003l0.026,0.005l0.03-0.003l0.028-0.021l0.073-0.007l0.007-0.03l-0.017-0.03l-0.062-0.014l-0.049-0.036v-0.014l0.031-0.005l0.009-0.019l-0.024-0.047l-0.023-0.007l-0.092,0.019l-0.087,0.035l-0.047,0.08l0.002,0.028l-0.005,0.016l-0.036,0.03l0.005,0.028L1111.4,317.801L1111.4,317.801z M1111.383,317.988v0.017l0.07,0.019l0.028,0.031l0.033-0.003l0.033-0.023l0.077-0.002l0.04,0.024l0.023,0.035l-0.004,0.024l0.012,0.012l0.08-0.054l0.024-0.005l0.024,0.017l0.019-0.003l0.005-0.028l-0.017-0.031l0.016-0.019h0.033l0.019-0.014l-0.005-0.03l-0.019-0.003l-0.026,0.019l-0.012-0.005l-0.016-0.024l-0.045-0.009l-0.043,0.01l-0.026-0.005l-0.04-0.033l-0.024,0.002l-0.028,0.035l0.002,0.026l-0.017,0.012h-0.045l-0.047-0.023l-0.03,0.002l-0.019,0.019L1111.383,317.988L1111.383,317.988z M1112.549,317.827h0.031l0.031-0.023l-0.005-0.033l-0.023-0.007l-0.035,0.024l-0.012,0.031L1112.549,317.827L1112.549,317.827z M1110.799,318.397l0.047,0.005l0.036-0.009l0.01-0.019l-0.016-0.021l-0.043-0.009l-0.047,0.021l-0.007,0.019L1110.799,318.397L1110.799,318.397z M1111.373,318.616l0.023,0.002l0.033-0.036l0.007-0.026l-0.019-0.05l-0.031-0.012l-0.023,0.016l-0.005,0.078L1111.373,318.616L1111.373,318.616z M1111.737,318.722h0.024l0.009-0.026h0.023l0.045,0.028l0.05,0.009l0.063-0.01l0.035-0.061l0.009-0.063l-0.023-0.01l-0.019,0.009l-0.014-0.005l0.003-0.066l-0.023-0.036l-0.059-0.014l-0.047,0.01l-0.066,0.092l-0.014,0.058l0.005,0.034l-0.014,0.03L1111.737,318.722L1111.737,318.722z M1113.428,319.169l0.052,0.036l0.021-0.005l-0.031-0.065l-0.034-0.029h-0.029l-0.005,0.026L1113.428,319.169L1113.428,319.169z M1113.368,319.14l-0.021-0.023l-0.031,0.005l-0.008,0.076l0.036,0.065l0.047,0.036l0.07,0.021l0.008-0.018l-0.055-0.034l-0.05-0.06L1113.368,319.14L1113.368,319.14z M1109.699,319.544l0.036,0.039l0.026,0.044l0.029,0.003l0.016-0.042l0.036-0.016l0.003-0.023l-0.031-0.018l-0.068,0.013l-0.042-0.016l-0.031-0.031h-0.036v0.016l0.021,0.016L1109.699,319.544L1109.699,319.544z M1110.499,318.846h0.07l0.089-0.052l0.055-0.057l0.06-0.018l0.065,0.008l0.029-0.005l-0.003-0.021l-0.036-0.005l-0.026-0.026l-0.062-0.005l-0.034,0.013l-0.042-0.008l-0.06-0.044l-0.055-0.003l-0.086,0.081l-0.013,0.091L1110.499,318.846L1110.499,318.846z M1110.937,318.83l0.042,0.018l0.021,0.042l0.029,0.008l0.026-0.01l0.018-0.07l0.026-0.039v-0.026l-0.044-0.023l-0.036-0.06l0.008-0.018l0.042-0.003l0.036-0.021v-0.021l-0.096-0.055h-0.031l-0.026,0.047l-0.005,0.031l0.023,0.023v0.023l-0.029,0.036l-0.016,0.089L1110.937,318.83L1110.937,318.83z M1111.95,319.463l0.026,0.01h0.044l0.021-0.016l-0.005-0.029l-0.044-0.023l-0.034,0.005l-0.013,0.026L1111.95,319.463L1111.95,319.463z M1110.707,318.642l0.047,0.005v-0.013l-0.018-0.01l-0.005-0.023l0.018-0.016l0.036,0.021l0.042,0.005l0.021-0.018l-0.029-0.042l0.013-0.018l0.044,0.003l0.013-0.018l-0.039-0.047l-0.042-0.023l-0.076-0.01l-0.06-0.023l-0.023,0.005l-0.013,0.063v0.102l0.034,0.042L1110.707,318.642L1110.707,318.642z M1110.764,318.908l0.003,0.034l0.021,0.021l0.031,0.003v-0.026l-0.031-0.031H1110.764L1110.764,318.908z M1110.413,318.629l0.044-0.021l0.034-0.029l0.01-0.026l-0.021-0.013l-0.029,0.013l-0.052,0.07L1110.413,318.629L1110.413,318.629z M1110.725,318.171l0.021,0.013l0.031-0.005l0.01-0.039l-0.018-0.005l-0.031,0.013L1110.725,318.171L1110.725,318.171z M1109.659,317.865l0.049-0.019l0.023-0.024l-0.007-0.033l-0.042-0.017l-0.04,0.019l-0.009,0.045L1109.659,317.865L1109.659,317.865z M1109.566,317.792l-0.016-0.024l0.007-0.017l0.031-0.005l0.04,0.016l0.042-0.017l0.062-0.057l0.012-0.047h0.016l0.024,0.026l0.005,0.043l0.021,0.014l0.016-0.024l0.005-0.033l0.089-0.101l0.007-0.043l-0.012-0.026l0.007-0.024l0.026-0.017l-0.002-0.017l-0.026-0.019l0.004-0.019l0.049-0.014l0.012-0.028l-0.017-0.017l0.005-0.012l0.021-0.005l0.002-0.017l-0.035-0.052l-0.087-0.076l-0.033-0.056l-0.019-0.003l-0.033,0.024l-0.038-0.01l-0.036-0.035l0.007-0.038l-0.057-0.054l-0.071-0.031l-0.082-0.017l-0.028,0.014l-0.012,0.03l0.007,0.043l0.05,0.068l0.003,0.028l-0.01,0.017l-0.036,0.003l-0.014,0.012l-0.035-0.005l-0.031,0.014l-0.026,0.036l0.002,0.023l-0.01,0.014l-0.031,0.007l-0.014,0.021l0.004,0.023l0.033,0.026l0.017,0.047l-0.007,0.05l0.016,0.04l-0.023-0.016l-0.01-0.031l0.002-0.05l-0.017-0.028l-0.042-0.012l-0.009-0.021l0.002-0.03h-0.016l-0.031,0.036l-0.028,0.085l-0.017,0.005l-0.052-0.017l-0.031,0.016l-0.009,0.024l-0.019,0.014l-0.061,0.014l-0.028,0.028l-0.005,0.03l-0.033,0.024l-0.016,0.031l-0.003,0.028l-0.016,0.031l0.002,0.056l0.045,0.04l0.019,0.035l0.005,0.036l0.03,0.016l0.03-0.005l0.019-0.019l0.023,0.007l0.005,0.019l-0.033,0.073l0.016,0.012l0.03-0.009l0.023-0.014l0.024,0.009l0.023,0.033l0.031,0.012l0.054-0.009l0.092-0.03l0.012-0.017l0.049-0.017h0.038l0.024-0.016l0.005-0.016l0.019-0.009l0.047-0.005L1109.566,317.792L1109.566,317.792z M1105.26,319.031l0.021,0.066l0.042,0.017l0.052,0.052l0.038,0.007l0.017-0.028l-0.062-0.09l-0.021-0.056l-0.049-0.031l-0.028,0.01L1105.26,319.031L1105.26,319.031z M1105.608,316.647l0.014-0.038l0.035-0.021l0.038-0.073v-0.049l-0.028-0.003l-0.038,0.063l-0.042,0.031l-0.014,0.049l0.01,0.045L1105.608,316.647L1105.608,316.647z M1106.365,316.786h0.052l0.024-0.056l0.042-0.021l0.052-0.087l-0.007-0.056l-0.063-0.035l-0.056,0.01l-0.07,0.09l-0.017,0.094L1106.365,316.786L1106.365,316.786z M1108.657,318.169l0.038,0.026l0.057,0.014l0.036,0.016l0.069,0.01l0.019-0.014l0.03-0.002l0.024,0.01l0.014-0.014l-0.023-0.054l0.002-0.04l-0.019-0.016l-0.106,0.017l-0.043-0.016l-0.052,0.003l-0.049,0.036L1108.657,318.169L1108.657,318.169z M1108.614,318.046l0.052,0.005l0.026-0.012h0.031l0.054,0.016l0.031-0.01l-0.007-0.031l-0.076-0.03l-0.097,0.003l-0.04,0.009l-0.01,0.03L1108.614,318.046L1108.614,318.046z M1108.7,318.409l0.005,0.019l0.049,0.014l0.056-0.012l0.026-0.036l0.009-0.026l-0.019-0.023l-0.03,0.003l-0.012,0.031l-0.052,0.01L1108.7,318.409L1108.7,318.409z M1108.728,317.424l0.009,0.028l-0.005,0.026l0.014,0.005l0.036-0.04l0.043-0.014l0.012-0.021l-0.014-0.043l-0.03-0.023l-0.024,0.003l-0.031,0.038l-0.028,0.005l-0.007,0.017L1108.728,317.424L1108.728,317.424z M1106.603,316.442l0.024-0.007l0.003-0.026l0.019-0.014h0.03l0.003-0.016l-0.04-0.014l-0.03-0.024l-0.019,0.005l0.005,0.033l-0.014,0.026L1106.603,316.442L1106.603,316.442z M1107.886,316.857l0.055,0.018l-0.008,0.018h-0.023l-0.021,0.018l0.021,0.018l0.122-0.008l0.039-0.036v-0.057l-0.018-0.036h-0.031l-0.057,0.039l-0.044,0.003l-0.039-0.013l-0.013,0.01L1107.886,316.857L1107.886,316.857z M1105.969,317.775l0.031,0.034l0.057,0.003l0.016-0.021l-0.026-0.026l-0.039-0.005l-0.026-0.029l-0.02,0.011L1105.969,317.775L1105.969,317.775z M1108.516,318.263l0.026,0.028l0.04,0.012l0.011-0.015l-0.034-0.047l-0.026-0.013l-0.023,0.013L1108.516,318.263L1108.516,318.263z M1108.341,316.419l0.024-0.021l0.003-0.054l-0.017-0.026l0.002-0.023l0.061-0.028l0.103-0.003l0.066-0.028l0.003-0.03l-0.028-0.019l-0.005-0.017l0.033-0.036l-0.002-0.045l-0.026-0.019l-0.064,0.009l-0.078,0.08l-0.08,0.031l-0.118-0.003l-0.043,0.071l0.007,0.099l0.05,0.057l0.056,0.016L1108.341,316.419L1108.341,316.419z M1108.271,316.569l0.03,0.036l0.118,0.042l0.014,0.024l0.03,0.003l0.033-0.019l0.026-0.045l0.092-0.059l0.004-0.038l-0.016-0.028l-0.061-0.049h-0.031l-0.024-0.016l-0.031-0.052l-0.026-0.003l-0.026,0.05l-0.042,0.026l-0.061,0.007l-0.023,0.021L1108.271,316.569L1108.271,316.569z M1108.501,316.828l0.016-0.012l-0.021-0.05l-0.03-0.028l-0.042,0.002l-0.021,0.019l0.023,0.036l0.036,0.005L1108.501,316.828L1108.501,316.828z M1108.612,316.847l0.002-0.028l-0.009-0.03l-0.03,0.002l-0.03,0.049l0.012,0.023l0.036,0.012L1108.612,316.847L1108.612,316.847z M1108.645,316.889l0.019,0.035l0.003,0.021l-0.017,0.014l-0.005,0.031l0.021,0.061l0.024,0.005l0.024-0.028h0.03l0.026,0.009l0.026-0.002l0.012-0.026l-0.007-0.083l-0.024-0.023l-0.05-0.007l-0.009-0.028l0.009-0.023v-0.04l-0.026-0.033l-0.047-0.003l-0.012,0.017l0.005,0.033L1108.645,316.889L1108.645,316.889z M1108.848,316.944l0.016,0.016l0.021,0.005l0.007,0.016l-0.038,0.061l-0.04,0.03l-0.056-0.014l-0.038,0.003l-0.017,0.017l0.009,0.01l0.035-0.003l0.047,0.009l0.009,0.019l-0.059,0.03l-0.033-0.002l-0.021,0.012l0.004,0.019l0.057,0.014h0.04l0.102-0.052l0.007-0.024l0.012-0.016l0.04-0.007l0.004-0.026l-0.012-0.031l0.002-0.019l0.047-0.047l0.002-0.019l-0.021-0.009l-0.014-0.019v-0.019l-0.014-0.017l-0.035-0.009l-0.031-0.043l-0.054-0.03l-0.045,0.007l-0.012,0.024l0.012,0.028l0.026,0.014l0.031,0.042L1108.848,316.944L1108.848,316.944z M1109.072,316.854l0.033-0.007l0.035-0.035l0.023-0.009l0.056,0.005l0.038-0.009l0.014-0.017l0.043-0.009l0.016-0.021l-0.012-0.01l-0.028,0.005l-0.021-0.019l-0.002-0.021l-0.031-0.04l-0.024-0.005l-0.019,0.01l-0.012-0.003l0.009-0.033l-0.012-0.024l-0.024-0.002l-0.043,0.049l-0.094,0.052l0.002,0.014l0.038,0.009l0.012,0.023l-0.016,0.043l0.01,0.028l-0.007,0.019L1109.072,316.854L1109.072,316.854z M1109.201,316.581l0.054,0.007l0.038-0.01l0.014-0.023l-0.019-0.043l-0.021-0.003l-0.023,0.031l-0.031,0.007l-0.019,0.014L1109.201,316.581L1109.201,316.581z M1109.19,316.498l0.03-0.007l0.028-0.064l-0.003-0.049l-0.031-0.05l-0.003-0.038l-0.035-0.017l-0.045,0.009l-0.057-0.024l-0.019-0.031l-0.04-0.007l-0.026,0.014l-0.033-0.003l-0.017-0.016l-0.026,0.002l-0.036,0.019l-0.009,0.023l0.017,0.026l-0.002,0.026l-0.024,0.031v0.03l0.028,0.049l-0.005,0.024l0.007,0.014l0.023-0.019l0.012-0.016l0.057-0.002l0.017,0.016l0.03-0.003l0.028-0.028l0.033-0.007l0.026,0.021l0.019,0.038v0.03l0.012,0.009l0.023-0.009L1109.19,316.498L1109.19,316.498z M1109.126,316.246l0.056-0.017l0.007-0.031l-0.009-0.04l0.007-0.009l0.028,0.023l0.014,0.002l0.003-0.019l-0.03-0.04l-0.033-0.01l-0.012-0.019l-0.009-0.024l-0.023,0.002l-0.019,0.038l-0.096,0.03l-0.109,0.002l-0.002,0.014l0.054,0.028l0.04,0.005l0.028-0.005l0.04,0.009l0.038,0.056L1109.126,316.246L1109.126,316.246z M1108.641,316.366l0.014,0.03l0.023,0.003l0.016-0.01l-0.007-0.043l-0.03-0.03l-0.017,0.005L1108.641,316.366L1108.641,316.366z M1108.596,315.848l0.052-0.005l0.049,0.012l0.043,0.04l0.017-0.002l0.016-0.028l0.09-0.04l0.069-0.068l0.003-0.026l-0.024-0.024v-0.017l0.017-0.024l-0.002-0.031l-0.043-0.042l-0.009-0.035l-0.023-0.014l-0.03,0.007l-0.035,0.064l-0.036,0.021l-0.075,0.007l-0.059,0.033l-0.054,0.094l-0.045,0.026l-0.002,0.033L1108.596,315.848L1108.596,315.848z M1109.753,316.247l0.019-0.012l0.014-0.069l-0.021-0.017l-0.023,0.003l-0.023,0.035l-0.002,0.049L1109.753,316.247L1109.753,316.247z M1109.769,316.112h0.017l0.017-0.023l-0.002-0.04l-0.017-0.01l-0.026,0.023l-0.007,0.042L1109.769,316.112L1109.769,316.112z M1109.823,315.989l0.009,0.028l0.042,0.009l0.03-0.003l0.043-0.059l-0.005-0.097l-0.045-0.026l-0.085-0.007l-0.04-0.021l-0.007-0.035l0.04-0.054l0.056-0.016l0.002-0.021l-0.031-0.036l-0.054-0.012l-0.012,0.012l-0.017-0.003l-0.045-0.042l-0.028-0.002l-0.036,0.026l0.002,0.023l0.04,0.028l0.01,0.049l-0.005,0.023h-0.024l-0.026-0.016l-0.012,0.016l-0.007,0.056l-0.033,0.024l-0.111,0.003l-0.038,0.03v0.024l0.021,0.012l0.033-0.002l0.042,0.024l0.033-0.002l0.023-0.035l0.066-0.01l0.127,0.009l0.057,0.023l0.014,0.031L1109.823,315.989L1109.823,315.989z M1108.777,316.044l0.047,0.016l0.03,0.042l0.021,0.009l0.005-0.012l-0.017-0.05l-0.052-0.036h-0.033l-0.012,0.014L1108.777,316.044L1108.777,316.044z M1108.928,316.088l0.031,0.014l0.038-0.007l0.016-0.028v-0.057l0.024-0.04l0.031-0.01l0.021,0.014l0.021-0.012l0.019-0.047l-0.014-0.026l-0.031-0.03l0.009-0.014l0.052-0.007l0.004-0.019l-0.042-0.04l-0.08-0.012l-0.026,0.014l-0.009,0.035l0.021,0.043l-0.009,0.021l-0.031,0.002l-0.049-0.03l-0.045,0.005l-0.056,0.042l-0.003,0.03l0.057,0.083l0.033,0.017l0.017,0.03V316.088L1108.928,316.088z M1109.183,314.913l-0.002,0.068l0.014,0.019l0.033,0.003l0.056,0.028l0.03-0.003l0.05,0.021l0.045-0.002l0.028,0.024l0.003,0.052l-0.014,0.038l0.01,0.033l0.054,0.016l0.042-0.003l0.047-0.047l0.005-0.04l-0.026-0.036l0.003-0.028l-0.03-0.043l-0.024-0.01l-0.04-0.049l-0.002-0.08l-0.019-0.014l-0.153-0.033l-0.097,0.019l-0.028,0.033L1109.183,314.913L1109.183,314.913z M1108.996,315.002l0.004-0.024l0.033-0.012l0.009-0.063l-0.014-0.021l-0.002-0.071l0.03-0.069l0.063-0.035l0.047-0.005l0.009-0.017l-0.021-0.016l-0.102,0.003l-0.043,0.019l-0.019,0.035l-0.13,0.106l-0.063,0.005l-0.019,0.023l-0.009,0.061l0.026,0.045l-0.012,0.024l-0.033-0.002l-0.005,0.014l0.043,0.019l0.019-0.007l0.016-0.026l0.038,0.009l0.012,0.03l0.075,0.043h0.035l0.026-0.031L1108.996,315.002L1108.996,315.002z M1109.131,315.125l0.049,0.009l0.059,0.038l0.057,0.016l0.021-0.009l0.004-0.036l-0.014-0.033l-0.097-0.056l-0.096-0.012l-0.04,0.021l-0.002,0.024L1109.131,315.125L1109.131,315.125z M1108.963,315.257l-0.002,0.019l0.052,0.007l0.043-0.009l0.026,0.017l0.009,0.066l-0.014,0.059l-0.031,0.052l0.01,0.012l0.047-0.021l0.016-0.038l0.031-0.017l0.059-0.005l0.028-0.03l0.007-0.076l-0.042-0.036l-0.012-0.043l-0.028-0.024l-0.085-0.019l-0.031,0.01l-0.026,0.038L1108.963,315.257L1108.963,315.257z M1109.86,316.552v0.021l0.026,0.021h0.021l0.021-0.029l0.039-0.029l-0.003-0.026l-0.029-0.005l-0.031,0.008L1109.86,316.552L1109.86,316.552z M1109.886,316.313h0.021l0.003-0.026l0.039-0.047l0.003-0.031l-0.023-0.021h-0.029l-0.021,0.052l-0.005,0.052L1109.886,316.313L1109.886,316.313z M1109.474,315.635l0.042-0.026l0.008-0.049l-0.023-0.023h-0.07l-0.029,0.047l0.005,0.039L1109.474,315.635L1109.474,315.635z M1109.542,315.377l0.036-0.029v-0.05l-0.031-0.047l-0.031,0.003l-0.021,0.083l0.01,0.039H1109.542L1109.542,315.377z M1109.56,315.466l0.036,0.005l0.05,0.065h0.034l0.005-0.029l-0.039-0.068l-0.047-0.036l-0.057,0.005l-0.008,0.034L1109.56,315.466L1109.56,315.466z M1108.651,313.834v0.029l0.021,0.029h0.029l0.026-0.021l0.003-0.031l-0.047-0.044l-0.042-0.005l-0.01,0.021L1108.651,313.834L1108.651,313.834z M1109.097,314.137l0.029,0.016l0.021-0.013l-0.005-0.05l-0.023-0.034l-0.031,0.005l-0.01,0.031L1109.097,314.137L1109.097,314.137z M1109.478,312.907h0.052l0.151-0.112l0.013-0.049l-0.034-0.023l-0.044,0.01l-0.135,0.096l-0.026,0.044L1109.478,312.907L1109.478,312.907z M1110.177,311.917l0.023,0.01l0.089-0.008l0.076-0.078l0.013-0.06l-0.026-0.005l-0.034,0.049l-0.06,0.029l-0.06-0.013l-0.023,0.023L1110.177,311.917L1110.177,311.917z M1110.151,311.982l0.003-0.021l-0.081-0.034l0.005-0.031l0.018-0.013l-0.021-0.034l-0.029-0.003l-0.036,0.026l-0.005,0.055l0.036,0.034l0.076,0.031L1110.151,311.982L1110.151,311.982z M1109.988,309.578l0.099,0.008l0.128,0.036l0.026-0.008l-0.016-0.029h-0.036l-0.047-0.023l-0.008-0.042l-0.018-0.018l-0.042,0.023l-0.039,0.003l-0.047-0.018l-0.023,0.013l-0.005,0.039L1109.988,309.578L1109.988,309.578z M1109.714,308.653l0.003,0.047l0.034,0.057l0.008,0.083l-0.018,0.068l0.021,0.068l0.005,0.117l0.021,0.05l-0.01,0.104l0.021,0.026l0.023-0.008l0.029,0.008l0.016,0.076l0.042,0.021l0.036-0.01l0.091,0.021l0.044,0.044l0.026-0.008l-0.003-0.039l0.031-0.042l-0.016-0.076l-0.031-0.021l-0.018-0.031l0.016-0.044l-0.047-0.156l-0.057-0.052l-0.042-0.078l0.01-0.065l-0.018-0.065l-0.034-0.023l-0.003-0.029l0.034-0.047l-0.008-0.068l-0.031-0.036l-0.07-0.005l-0.052,0.036l-0.016,0.052L1109.714,308.653L1109.714,308.653z M1109.042,308.221l-0.026,0.008l-0.005,0.029l0.023,0.026l0.042,0.003l0.016-0.018l-0.021-0.029L1109.042,308.221L1109.042,308.221z M1108.732,308.294l0.068-0.013l0.039,0.003l0.029-0.013l0.008-0.034l-0.003-0.031l-0.021,0.003l-0.029,0.034l-0.062,0.005l-0.039,0.031L1108.732,308.294L1108.732,308.294z M1110.806,306.143l0.01,0.042h0.021l0.021-0.036l-0.005-0.029l-0.026-0.005L1110.806,306.143L1110.806,306.143z M1110.465,305.82l0.016,0.034l0.026,0.021l0.013-0.018l-0.026-0.063l-0.034-0.023l-0.021,0.005l-0.003,0.018L1110.465,305.82L1110.465,305.82z M1110.139,305.875l0.026,0.003l0.026-0.016l0.026,0.003l0.013,0.029l0.026-0.003l0.07-0.091l0.031-0.018l0.016-0.023l-0.029-0.078l-0.055-0.029l-0.05-0.003l-0.047,0.042l-0.05,0.016l-0.018,0.034l-0.003,0.107L1110.139,305.875L1110.139,305.875z M1109.587,305.784l0.086,0.029l0.052,0.01l0.06-0.01l0.026-0.036l-0.016-0.021l-0.06,0.01l-0.091-0.031h-0.057l-0.016,0.018L1109.587,305.784L1109.587,305.784z M1110.105,306.696l0.034,0.005l0.047-0.021l0.008-0.026l-0.018-0.034l-0.068-0.005l-0.021,0.018l-0.005,0.042L1110.105,306.696L1110.105,306.696z M1108.891,305.719v0.055l-0.026,0.042l0.005,0.083l0.055,0.055l0.073,0.01l0.083-0.036l0.029-0.036l-0.005-0.029l-0.083-0.034l-0.07-0.047l-0.036-0.07L1108.891,305.719L1108.891,305.719z M1108.763,306.501l0.031,0.013l0.034-0.018l0.021-0.047l-0.005-0.023l-0.029-0.01l-0.047,0.016l-0.021,0.036L1108.763,306.501L1108.763,306.501z M1108.495,306.785l0.042,0.01l0.008-0.021l-0.034-0.026l-0.016-0.039l-0.018-0.01l-0.023,0.018v0.031L1108.495,306.785L1108.495,306.785z M1108.88,306.154l0.049,0.008l0.013-0.018l-0.008-0.034l-0.047-0.034l-0.031,0.008l-0.005,0.042L1108.88,306.154L1108.88,306.154z M1109.151,305.914l-0.021,0.018l0.018,0.034l0.044,0.021l0.003,0.023l0.026,0.003l0.01-0.031l-0.047-0.057L1109.151,305.914L1109.151,305.914z M1108.346,306.568h0.023l0.021-0.034l0.031-0.003l0.008-0.023l-0.047-0.031l-0.026,0.008l-0.018,0.047L1108.346,306.568L1108.346,306.568z M1109.453,306.136l-0.004-0.018l0.017-0.013l0.082,0.031l0.019,0.029l-0.017,0.014l-0.03-0.007L1109.453,306.136L1109.453,306.136z M1108.409,310.633l0.033,0.025l0.031-0.005l0.006-0.034l-0.029-0.027l-0.03-0.002l-0.022,0.015L1108.409,310.633L1108.409,310.633z M1110.517,312.075l0.026-0.013l-0.026-0.044l-0.044-0.013l-0.023,0.023l0.016,0.039L1110.517,312.075L1110.517,312.075z M1109.31,315.566l0.027,0.012l0.017-0.048l-0.018-0.042l-0.033-0.003l-0.02,0.037L1109.31,315.566L1109.31,315.566z M1109.31,315.566l0.027,0.012l0.017-0.048l-0.018-0.042l-0.033-0.003l-0.02,0.037L1109.31,315.566L1109.31,315.566z M1108.818,316.606l0.036-0.01l0.013-0.042l-0.029-0.003l-0.034,0.031L1108.818,316.606L1108.818,316.606z M1108.838,305.637l-0.013,0.014l0.008,0.025l0.026,0.015l0.016-0.009l-0.011-0.03L1108.838,305.637L1108.838,305.637z M1109.57,312.657l-0.008,0.017l0.016,0.021l0.03,0.005l0.012-0.014l-0.021-0.024L1109.57,312.657L1109.57,312.657z M1109.443,315.474l0.005,0.018l0.026,0.005l0.026-0.016v-0.018l-0.031-0.005L1109.443,315.474L1109.443,315.474z M1114.627,316.832l-0.008,0.017l0.017,0.021l0.03,0.005l0.012-0.014l-0.021-0.024L1114.627,316.832L1114.627,316.832z M1109.407,306.119l0.016-0.014l-0.003-0.019l-0.036-0.007l-0.024,0.009l0.004,0.024L1109.407,306.119L1109.407,306.119z M1109.528,309.866l-0.008-0.019l-0.019-0.003l-0.019,0.032l0,0.026l0.024,0.005L1109.528,309.866L1109.528,309.866z M1110.209,312.256l0.02,0.007l0.015-0.013l-0.012-0.035l-0.02-0.017l-0.019,0.015L1110.209,312.256L1110.209,312.256z M1110.209,312.256l0.02,0.007l0.015-0.013l-0.012-0.035l-0.02-0.017l-0.019,0.015L1110.209,312.256L1110.209,312.256z M1109.277,315.711l-0.008-0.019l-0.019-0.003l-0.019,0.032l0,0.026l0.024,0.005L1109.277,315.711L1109.277,315.711z M1113.847,317.058l0.01-0.018l-0.01-0.017l-0.036,0.006l-0.02,0.016l0.012,0.022L1113.847,317.058L1113.847,317.058z M1112.597,317.66l-0.008-0.026l-0.014,0.008l-0.003,0.045l0.014,0.001L1112.597,317.66L1112.597,317.66z M1109.306,314.684l-0.028-0.001l-0.021,0.022l0.011,0.027l0.021,0l0.023-0.034L1109.306,314.684L1109.306,314.684z M1108.615,306.323l-0.002,0.022l0.009,0.011l0.015-0.009l0-0.027l-0.012-0.011L1108.615,306.323L1108.615,306.323z M1108.793,316.305l0.009,0.02l0.013,0.005l0.009-0.015l-0.013-0.023l-0.016-0.003L1108.793,316.305L1108.793,316.305z M1108.793,316.305l0.009,0.02l0.013,0.005l0.009-0.015l-0.013-0.023l-0.016-0.003L1108.793,316.305L1108.793,316.305z M1108.74,317.737l0.02,0.009l0.014-0.004l-0.003-0.017l-0.025-0.009l-0.014,0.008L1108.74,317.737L1108.74,317.737z M1112.311,318.473l0.021-0.005l0.008-0.012l-0.013-0.011l-0.025,0.009l-0.006,0.015L1112.311,318.473L1112.311,318.473z M1118.737,316.004l-0.01,0.02l0.004,0.014l0.017-0.003l0.009-0.025l-0.008-0.014L1118.737,316.004L1118.737,316.004z M1117.447,316.322l0.02,0.009l0.014-0.004l-0.003-0.017l-0.025-0.009l-0.014,0.008L1117.447,316.322L1117.447,316.322z M1108.374,318.739l0.01,0.033l0.022,0.026l0.007-0.013l-0.012-0.043l-0.018-0.02L1108.374,318.739L1108.374,318.739z M1111.207,317.683l0.032,0.014l0.034,0l-0.006-0.014l-0.041-0.019l-0.027,0L1111.207,317.683L1111.207,317.683z M1114.888,316.892l0.034,0.008l0.034-0.006l-0.008-0.012l-0.043-0.011l-0.026,0.005L1114.888,316.892L1114.888,316.892z M1114.888,316.892l0.034,0.008l0.034-0.006l-0.008-0.012l-0.043-0.011l-0.026,0.005L1114.888,316.892L1114.888,316.892z M1117.071,316.841l0.017,0.001l0.011-0.014l-0.005-0.014l-0.014-0.004l-0.011,0.011L1117.071,316.841L1117.071,316.841z M1109.692,306.312l0.002-0.014l-0.01-0.013l-0.019-0.006l-0.002,0.013l0.01,0.013L1109.692,306.312L1109.692,306.312z M1109.254,309.922l0.007,0.012l0.016,0.004l0.018-0.008l-0.007-0.012l-0.016-0.003L1109.254,309.922L1109.254,309.922z M1110.623,311.969l0.013,0.005l0.015-0.007l0.009-0.017l-0.013-0.005l-0.015,0.008L1110.623,311.969L1110.623,311.969z M1109.14,318.276l-0.002,0.014l0.01,0.013l0.019,0.006l0.002-0.013l-0.01-0.013L1109.14,318.276L1109.14,318.276z M1109.009,317.991l0.007-0.012l-0.004-0.016l-0.016-0.012l-0.007,0.012l0.005,0.016L1109.009,317.991L1109.009,317.991z M1109.301,317.028h0.014l0.011-0.012l0.002-0.02l-0.014,0l-0.011,0.012L1109.301,317.028L1109.301,317.028z M1109.924,315.816l0.014,0.002l0.013-0.009l0.006-0.019l-0.013-0.002l-0.013,0.01L1109.924,315.816L1109.924,315.816z M1109.924,315.816l0.014,0.002l0.013-0.009l0.006-0.019l-0.013-0.002l-0.013,0.01L1109.924,315.816L1109.924,315.816z M1109.109,314.433l0.01,0.009l0.016-0.002l0.014-0.013l-0.01-0.009l-0.016,0.002L1109.109,314.433L1109.109,314.433z M1109.109,314.433l0.01,0.009l0.016-0.002l0.014-0.013l-0.01-0.009l-0.016,0.002L1109.109,314.433L1109.109,314.433z M1110.832,318.206h0.014l0.011-0.012l0.002-0.02l-0.014,0l-0.011,0.012L1110.832,318.206L1110.832,318.206z M1114.484,316.934h0.014l0.011-0.012l0.002-0.02l-0.013,0l-0.011,0.012L1114.484,316.934L1114.484,316.934z M1108.223,316.705l-0.007-0.006l-0.028,0.002l-0.005,0.01l0.008,0.004l0.023-0.003L1108.223,316.705L1108.223,316.705z M1117.515,316.321l0.008-0.004l0.013-0.026l-0.006-0.009l-0.008,0.005l-0.009,0.021L1117.515,316.321L1117.515,316.321z M1117.297,316.161l-0.006,0.024l0.015,0.005l0.017-0.016l-0.008-0.017L1117.297,316.161L1117.297,316.161z M1108.733,310.283l0.015,0.001l0.014-0.02l-0.008-0.015l-0.019,0.002l-0.011,0.016L1108.733,310.283L1108.733,310.283z M1108.399,310.159l0.015-0.002l0.01-0.022l-0.011-0.014l-0.018,0.005l-0.008,0.018L1108.399,310.159L1108.399,310.159z M1110.341,318l0.012-0.009l-0.002-0.024l-0.016-0.006l-0.013,0.013l0.002,0.02L1110.341,318L1110.341,318z M1109.848,309.812l-0.014,0.001l-0.01,0.005l0.011,0.01l0.011,0.002l0.009-0.006L1109.848,309.812L1109.848,309.812z M1108.185,317.054l-0.008,0.011l-0.002,0.011l0.015-0.002l0.008-0.007l0.001-0.01L1108.185,317.054L1108.185,317.054z M1114.013,316.626v0.014l0.014,0.008l0.012-0.008l-0.007-0.014H1114.013L1114.013,316.626z M1117.97,316.503l-0.003,0.019l0.011,0.006l0.014-0.012l-0.007-0.012H1117.97L1117.97,316.503z M1110.205,306.454l0.006,0.018l0.011-0.001l0.003-0.018l-0.012-0.008L1110.205,306.454L1110.205,306.454z M1108.497,318.027l0.006,0.018l0.011-0.001l0.003-0.018l-0.012-0.008L1108.497,318.027L1108.497,318.027z M1115.038,317.06l0.007,0.008l0.011-0.003l-0.001-0.014l-0.014-0.003L1115.038,317.06L1115.038,317.06z M1108.766,318.312l0.014,0.006l0.008-0.006l-0.003-0.014h-0.014L1108.766,318.312L1108.766,318.312z M1113.813,316.463l0.014,0.006l0.008-0.006l-0.003-0.014h-0.014L1113.813,316.463L1113.813,316.463z M1115.071,317.009l0.014,0.006l0.008-0.006l-0.003-0.014h-0.014L1115.071,317.009L1115.071,317.009z M1118.322,315.008l-0.01,0.011l0.002,0.01l0.014,0.002l0.005-0.013L1118.322,315.008L1118.322,315.008z M1108.908,316.755l-0.013-0.004l-0.007,0.011l0.012,0.014l0.012-0.005L1108.908,316.755L1108.908,316.755z M1109.588,310.062l-0.012-0.002l-0.001,0.014l0.01,0.01l0.012-0.001L1109.588,310.062L1109.588,310.062z M1109.326,315.596l-0.011-0.004l-0.003,0.014l0.008,0.012l0.012,0.001L1109.326,315.596L1109.326,315.596z M1113.97,316.559l0.002,0.012l0.014-0.004l0.006-0.013l-0.005-0.011L1113.97,316.559L1113.97,316.559z M1114.918,316.947l-0.007,0.01l0.012,0.007l0.014-0.004l0.004-0.011L1114.918,316.947L1114.918,316.947z M1105.948,317.65l0.014,0.019l0.012-0.001v-0.03l-0.018-0.017l-0.013,0.004L1105.948,317.65L1105.948,317.65z M1109.841,319.33l0.031,0.02l0.012-0.003l0.001-0.012l-0.043-0.031l-0.013,0.007L1109.841,319.33L1109.841,319.33z M1110.448,316.639l0.035,0.009l0.003-0.014l-0.035-0.022l-0.023-0.001l-0.005,0.011L1110.448,316.639L1110.448,316.639z M1114.57,316.957l0.029-0.021l-0.009-0.012l-0.039,0.013l-0.016,0.017l0.006,0.011L1114.57,316.957L1114.57,316.957z M1108.041,318.509l0.025,0.022l0.011-0.007l-0.013-0.033l-0.021-0.01l-0.015,0.006L1108.041,318.509L1108.041,318.509z M1110.258,318.314l0.012-0.009l-0.014-0.01l-0.024,0.002l0.003,0.014L1110.258,318.314L1110.258,318.314z M1116.171,316.53l0.012-0.009l-0.014-0.01l-0.024,0.002l0.004,0.014L1116.171,316.53L1116.171,316.53z M1109.965,306.387l-0.027,0.016l0.003,0.024l0.032,0.018l0.018-0.015l-0.005-0.026L1109.965,306.387L1109.965,306.387z M1109.965,306.387l-0.027,0.016l0.003,0.024l0.032,0.018l0.018-0.015l-0.005-0.026L1109.965,306.387L1109.965,306.387z M1112.424,317.763l-0.007,0.022l0.015,0.017l0.033-0.007l0.008-0.024l-0.017-0.012L1112.424,317.763L1112.424,317.763z M1109.077,314.903l-0.008,0.018l0.017,0.017l0.022,0.003l0.015-0.018l-0.011-0.021L1109.077,314.903L1109.077,314.903z M1113.411,317.559l-0.016,0.012l0.006,0.023l0.017,0.014l0.022-0.008l0.001-0.024L1113.411,317.559L1113.411,317.559z M1110.538,310.971l0.014,0.023l0.03-0.002l0.003-0.037l-0.023-0.017l-0.027,0.01L1110.538,310.971L1110.538,310.971z M1110.538,310.971l0.014,0.023l0.03-0.002l0.003-0.037l-0.023-0.017l-0.027,0.01L1110.538,310.971L1110.538,310.971z M1109.733,311.753l0.026-0.005l-0.008-0.018l-0.026-0.003l-0.008,0.016L1109.733,311.753L1109.733,311.753z M1109.529,315.507l0.007,0.01l0.012-0.009l-0.003-0.021l-0.014,0.002L1109.529,315.507L1109.529,315.507z M1112.606,317.5l0.009,0.009l0.01-0.011l-0.007-0.02l-0.013,0.004L1112.606,317.5L1112.606,317.5z M1116.894,316.666l0.012-0.003l-0.004-0.014l-0.021-0.004l-0.003,0.014L1116.894,316.666L1116.894,316.666z M1109.417,309.216l0.011,0.016l0.021,0.001l-0.003-0.015l-0.011-0.013l-0.015-0.002L1109.417,309.216L1109.417,309.216z M1108.441,316.035l0.014-0.014l-0.002-0.021l-0.015,0.005l-0.011,0.013l0.001,0.015L1108.441,316.035L1108.441,316.035z M1108.74,314.819l0.018,0.009l0.019-0.009l-0.01-0.012l-0.016-0.006l-0.014,0.006L1108.74,314.819L1108.74,314.819z M1109.042,316.464l0.014,0.014l0.021-0.002l-0.005-0.015l-0.013-0.011l-0.015,0.001L1109.042,316.464L1109.042,316.464z M1109.042,316.464l0.014,0.014l0.021-0.002l-0.005-0.015l-0.013-0.011l-0.015,0.001L1109.042,316.464L1109.042,316.464z M1109.681,318.048l0.014,0.014l0.021-0.002l-0.005-0.015l-0.013-0.011l-0.016,0.001L1109.681,318.048L1109.681,318.048z M1109.633,306.158l0.055,0.04l0.018-0.004l-0.002-0.023l-0.037-0.032l-0.032,0.001L1109.633,306.158L1109.633,306.158z M1110.873,311.764l-0.066,0.017l-0.008,0.017l0.018,0.013l0.048-0.008l0.02-0.025L1110.873,311.764L1110.873,311.764z M1108.326,318.388l0.003,0.02l0.035,0.002l0.045-0.026l-0.006-0.016l-0.029-0.007L1108.326,318.388L1108.326,318.388z M1108.73,310.107l-0.005,0.014l0.01,0.007l0.021,0l0.002-0.015l-0.016-0.009L1108.73,310.107L1108.73,310.107z M1108.751,316.259l0.005,0.014l0.012-0.001l0.016-0.014l-0.008-0.012l-0.018,0.003L1108.751,316.259L1108.751,316.259z M1113.759,317.405l-0.009,0.012l0.007,0.01l0.02,0.007l0.007-0.013l-0.011-0.014L1113.759,317.405L1113.759,317.405z M1118.425,315.025l-0.009,0.012l0.007,0.01l0.02,0.007l0.007-0.013l-0.011-0.014L1118.425,315.025L1118.425,315.025z M1109.937,317.69l0.007,0.013l0.017-0.001l0.007-0.013l-0.008-0.012l-0.013,0.002L1109.937,317.69L1109.937,317.69z M1111.432,318.442l0.007,0.013l0.017-0.001l0.007-0.013l-0.008-0.012l-0.013,0.002L1111.432,318.442L1111.432,318.442z M1109.553,306.256l0.014,0.016l0.011-0.002l0-0.025l-0.013-0.014l-0.009,0.008L1109.553,306.256L1109.553,306.256z M1109.553,306.256l0.014,0.016l0.011-0.002l0-0.025l-0.013-0.014l-0.009,0.008L1109.553,306.256L1109.553,306.256z M1108.503,306.619l0.021,0.003l0.007-0.009l-0.016-0.019l-0.019-0.002l-0.002,0.012L1108.503,306.619L1108.503,306.619z M1108.63,316.734l-0.013,0.016l0.004,0.01l0.024-0.004l0.011-0.016l-0.01-0.008L1108.63,316.734L1108.63,316.734z M1108.175,314.729l0.02-0.007l0.002-0.011l-0.023-0.009l-0.017,0.008l0.005,0.011L1108.175,314.729L1108.175,314.729z M1106.493,316.3l0.021,0.003l0.007-0.009l-0.016-0.019l-0.019-0.002l-0.002,0.012L1106.493,316.3L1106.493,316.3z M1112.748,318.155l0.02-0.007l0.002-0.011l-0.023-0.009l-0.017,0.008l0.005,0.011L1112.748,318.155L1112.748,318.155z M1117.751,315.565l0.014,0.016l0.011-0.002l0-0.025l-0.013-0.014l-0.009,0.008L1117.751,315.565L1117.751,315.565z M1117.532,316.397l0,0.021l0.01,0.005l0.016-0.019l-0.002-0.019l-0.012,0L1117.532,316.397L1117.532,316.397z M1109.043,314.455l-0.007,0.024l0.009,0.007l0.016-0.008l0.005-0.02l-0.009-0.007L1109.043,314.455L1109.043,314.455z M1109.043,314.455l-0.007,0.024l0.009,0.007l0.016-0.008l0.005-0.02l-0.009-0.007L1109.043,314.455L1109.043,314.455z M1108.45,317.835l-0.002,0.024l0.01,0.005l0.015-0.01l0.001-0.021l-0.01-0.005L1108.45,317.835L1108.45,317.835z M1108.45,317.835l-0.002,0.024l0.01,0.005l0.015-0.01l0.001-0.021l-0.01-0.005L1108.45,317.835L1108.45,317.835z M1114.344,316.332l0.024,0.007l0.007-0.009l-0.008-0.016l-0.02-0.004l-0.007,0.009L1114.344,316.332L1114.344,316.332z M1118.007,316.823l0.011-0.022l-0.007-0.008l-0.017,0.005l-0.008,0.019l0.007,0.008L1118.007,316.823L1118.007,316.823z M1115.727,316.408l0.024,0.007l0.007-0.009l-0.008-0.016l-0.02-0.004l-0.007,0.009L1115.727,316.408L1115.727,316.408z M1108.353,308.073l0.011-0.019l-0.008-0.01l-0.016,0.002l-0.011,0.016l0.008,0.011L1108.353,308.073L1108.353,308.073z M1109.008,316.846l0.022,0l0.004-0.011l-0.01-0.013l-0.019-0.002l-0.006,0.013L1109.008,316.846L1109.008,316.846z M1113.42,316.423l0.022,0l0.004-0.011l-0.01-0.013l-0.02-0.002l-0.005,0.013L1113.42,316.423L1113.42,316.423z M1118.099,316.585l0.021,0l0.005-0.011l-0.01-0.013l-0.019-0.002l-0.005,0.013L1118.099,316.585L1118.099,316.585z M1108.94,312.565l0.014-0.002l0.004-0.016l-0.012-0.011l-0.016,0.004l-0.001,0.013L1108.94,312.565L1108.94,312.565z M1109.172,316.031l0.006,0.013l0.016-0.002l0.006-0.015l-0.01-0.013l-0.013,0.004L1109.172,316.031L1109.172,316.031z M1110.686,318.828l-0.001,0.014l0.015,0.006l0.013-0.01l-0.002-0.016l-0.013-0.003L1110.686,318.828L1110.686,318.828z M1113.001,318.47l0.006,0.013l0.016-0.002l0.006-0.015l-0.01-0.013l-0.013,0.004L1113.001,318.47L1113.001,318.47z M1113.001,318.47l0.006,0.013l0.016-0.002l0.006-0.015l-0.01-0.013l-0.013,0.004L1113.001,318.47L1113.001,318.47z M1113.581,318.658l0.01,0.01l0.014-0.008l0-0.016l-0.014-0.009l-0.011,0.008L1113.581,318.658L1113.581,318.658z M1108.647,316.244l-0.013,0.017l0.016,0.031l0.029,0.003l0.007-0.02l-0.012-0.027L1108.647,316.244L1108.647,316.244z M1108.599,306.579l0.003-0.025l-0.007-0.015l-0.01,0.012l-0.002,0.026l0.009,0.012L1108.599,306.579L1108.599,306.579z M1108.949,318.269l0.018,0.019l0.016,0.004l-0.003-0.015l-0.018-0.018l-0.015,0L1108.949,318.269L1108.949,318.269z M1108.949,318.269l0.018,0.019l0.016,0.004l-0.003-0.015l-0.018-0.018l-0.015,0L1108.949,318.269L1108.949,318.269z M1108.251,318.353l0.032-0.024l0.006-0.024l-0.026-0.001l-0.043,0.033l-0.004,0.018L1108.251,318.353L1108.251,318.353z M1110.677,318.211l-0.057,0.005l-0.019,0.011l0,0.021l0.039,0.009l0.037-0.01l0.012-0.021L1110.677,318.211L1110.677,318.211z M1118.071,316.791l0.047-0.033l0.011-0.019l-0.011-0.018l-0.038,0.011l-0.027,0.027l0,0.025L1118.071,316.791L1118.071,316.791z M1109.954,311.777l0.016-0.016l-0.012-0.016h-0.033l-0.021,0.014l0.002,0.019L1109.954,311.777L1109.954,311.777z M1109.953,308.583l0.01,0.026l0.015,0.003l0.007-0.026l-0.012-0.018l-0.018-0.001L1109.953,308.583L1109.953,308.583z M1109.526,309.989l0.014-0.024l-0.008-0.013l-0.025,0.012l-0.006,0.021l0.01,0.015L1109.526,309.989L1109.526,309.989z M1108.95,314.274l0.026-0.01l0.003-0.015l-0.026-0.007l-0.018,0.012l-0.001,0.018L1108.95,314.274L1108.95,314.274z M1108.77,316.712l0-0.028l-0.013-0.008l-0.015,0.022l0.005,0.021l0.016,0.007L1108.77,316.712L1108.77,316.712z M1106.529,316.357l0.021,0.018l0.015-0.005l-0.007-0.026l-0.02-0.009l-0.016,0.008L1106.529,316.357L1106.529,316.357z M1105.953,317.58l0.021-0.018l-0.003-0.015l-0.027,0.002l-0.013,0.018l0.005,0.017L1105.953,317.58L1105.953,317.58z M1110.351,318.233l0.014-0.024l-0.008-0.013l-0.025,0.012l-0.006,0.021l0.01,0.015L1110.351,318.233L1110.351,318.233z M1117.768,315.449l0.005-0.027l-0.012-0.01l-0.019,0.019l0.001,0.022l0.015,0.01L1117.768,315.449L1117.768,315.449z M1117.604,317.174l0.018-0.021l-0.005-0.015l-0.026,0.007l-0.009,0.02l0.008,0.016L1117.604,317.174L1117.604,317.174z M1109.829,311.771l0.021-0.001l0.006-0.011l-0.028-0.012l-0.026,0.003l0.001,0.017L1109.829,311.771L1109.829,311.771z M1110.126,317.51l0.012,0.017l0.012-0.001l-0.003-0.03l-0.016-0.021l-0.014,0.009L1110.126,317.51L1110.126,317.51z M1109.192,315.496l0.012,0.017l0.012-0.001l-0.003-0.03l-0.016-0.021l-0.014,0.009L1109.192,315.496L1109.192,315.496z M1109.192,315.496l0.012,0.017l0.012-0.001l-0.003-0.03l-0.016-0.021l-0.014,0.009L1109.192,315.496L1109.192,315.496z M1109.24,318.333l-0.006,0.02l0.009,0.009l0.021-0.022l0.006-0.026l-0.016-0.004L1109.24,318.333L1109.24,318.333z M1109.24,318.333l-0.006,0.02l0.009,0.009l0.021-0.022l0.006-0.026l-0.016-0.004L1109.24,318.333L1109.24,318.333z M1109.913,311.942l0.01,0.018l0.019-0.001l0.006-0.023l-0.016-0.024l-0.018,0.004L1109.913,311.942L1109.913,311.942z M1108.464,316.951l0.004,0.027l0.017,0.002l0.027-0.048l-0.003-0.021l-0.019,0L1108.464,316.951L1108.464,316.951z M1113.297,318.261l0.022-0.006l0.008-0.01l-0.015-0.007l-0.024,0.007l-0.004,0.011L1113.297,318.261L1113.297,318.261z M1110.609,306.635l0.012-0.006l0.004-0.012l-0.008-0.01l-0.015,0.007l-0.003,0.011L1110.609,306.635L1110.609,306.635z M1110.593,312.055l0.006-0.012l-0.005-0.012l-0.013-0.002l-0.007,0.015l0.005,0.01L1110.593,312.055L1110.593,312.055z M1108.451,318.119l0.012-0.006l0.004-0.012l-0.008-0.01l-0.015,0.007l-0.003,0.011L1108.451,318.119L1108.451,318.119z M1108.261,316.131l0.003,0.013l0.011,0.006l0.011-0.007l-0.004-0.016l-0.01-0.005L1108.261,316.131L1108.261,316.131z M1109.273,316.877l0.012-0.006l0.004-0.012l-0.008-0.01l-0.015,0.007l-0.003,0.011L1109.273,316.877L1109.273,316.877z M1108.356,317.862l0.012-0.006l0.004-0.012l-0.008-0.01l-0.015,0.007l-0.003,0.011L1108.356,317.862L1108.356,317.862z M1110.365,318.699l0.006-0.012l-0.005-0.012l-0.013-0.002l-0.007,0.015l0.005,0.01L1110.365,318.699L1110.365,318.699z M1112.583,318.583l-0.012-0.006l-0.012,0.005l-0.002,0.013l0.015,0.007l0.01-0.005L1112.583,318.583L1112.583,318.583z M1113.361,317.557l0.012-0.006l0.004-0.012l-0.008-0.01l-0.015,0.007l-0.003,0.011L1113.361,317.557L1113.361,317.557z M1114.794,316.958l0.012,0.006l0.012-0.005l0.002-0.013l-0.015-0.007l-0.01,0.005L1114.794,316.958L1114.794,316.958z M1114.794,316.958l0.012,0.006l0.012-0.005l0.002-0.013l-0.015-0.007l-0.01,0.005L1114.794,316.958L1114.794,316.958z M1113.855,316.169l-0.023-0.002l-0.006,0.011l0.014,0.007l0.016-0.004L1113.855,316.169L1113.855,316.169z M1109.755,315.247l0.009,0.021l0.009-0.005l0.005-0.013l-0.011-0.02l-0.012-0.005L1109.755,315.247L1109.755,315.247z M1112.761,318.098l0.019,0.013l0.005-0.009l-0.003-0.014l-0.019-0.012l-0.013,0.002L1112.761,318.098L1112.761,318.098z M1111.746,317.655l0.018,0.013l0.005-0.009l-0.003-0.014l-0.019-0.012l-0.013,0.002L1111.746,317.655L1111.746,317.655z M1109.784,319.716v0.018l0.018,0.003l0.008-0.018l-0.01-0.01L1109.784,319.716L1109.784,319.716z M1110.484,310.978l0.007-0.012l-0.012-0.007l-0.012,0.005v0.014H1110.484L1110.484,310.978z M1110.269,312.197l0.014,0l0-0.014l-0.011-0.008l-0.012,0.007L1110.269,312.197L1110.269,312.197z M1109.911,317.713l0.007-0.012l-0.012-0.007l-0.012,0.005v0.014H1109.911L1109.911,317.713z M1113.846,317.007l0.007-0.012l-0.012-0.007l-0.012,0.005v0.014H1113.846L1113.846,317.007z M1109.004,316.884l0.016,0.003l0.01-0.012l-0.01-0.012l-0.016,0.005V316.884L1109.004,316.884z M1109.586,319.441l0.014-0.01l-0.005-0.012l-0.019,0.005l-0.003,0.014L1109.586,319.441L1109.586,319.441z M1109.392,315.903l0.01,0.001l0.007-0.011l-0.014-0.007l-0.01,0.006L1109.392,315.903L1109.392,315.903z M1108.991,317.377l0.004-0.011l-0.01-0.006l-0.01,0.008l0.003,0.011L1108.991,317.377L1108.991,317.377z M1109.32,315.238l0.004-0.011l-0.01-0.006l-0.01,0.008l0.003,0.011L1109.32,315.238L1109.32,315.238z M1108.317,315.026l0.004-0.011l-0.01-0.006l-0.01,0.008l0.003,0.011L1108.317,315.026L1108.317,315.026z M1108.573,306.241h0.012l0.007-0.014l-0.008-0.008l-0.014-0.003l-0.004,0.012L1108.573,306.241L1108.573,306.241z M1107.494,308.473l0.011-0.006l-0.001-0.015l-0.011-0.003l-0.013,0.005l0.003,0.013L1107.494,308.473L1107.494,308.473z M1108.639,317.758h0.012l0.007-0.014l-0.008-0.008l-0.014-0.003l-0.004,0.012L1108.639,317.758L1108.639,317.758z M1108.581,318.201h0.012l0.007-0.014l-0.008-0.008l-0.014-0.003l-0.004,0.012L1108.581,318.201L1108.581,318.201z M1108.394,318.133h0.012l0.007-0.014l-0.008-0.008l-0.014-0.003l-0.004,0.012L1108.394,318.133L1108.394,318.133z M1109.438,315.299h0.012l0.007-0.014l-0.008-0.008l-0.014-0.003l-0.004,0.012L1109.438,315.299L1109.438,315.299z M1116.141,316.582h0.012l0.007-0.014l-0.008-0.008l-0.014-0.003l-0.004,0.012L1116.141,316.582L1116.141,316.582z M1109.78,319.414l0.001-0.012l-0.012-0.003l-0.011,0.008l0.008,0.01L1109.78,319.414L1109.78,319.414z M1113.245,318.309l0.001-0.012l-0.012-0.003l-0.011,0.008l0.008,0.01L1113.245,318.309L1113.245,318.309z M1108.723,316.207l0.014-0.011l-0.001-0.015l-0.018-0.006l-0.012,0.012l0.001,0.014L1108.723,316.207L1108.723,316.207z M1113.948,318.388l0.014-0.011l-0.001-0.015l-0.018-0.006l-0.012,0.012l0.001,0.014L1113.948,318.388L1113.948,318.388z M1110.172,306.717l0.012,0.012l0.015-0.004l0.005-0.011l-0.01-0.012l-0.015,0.002L1110.172,306.717L1110.172,306.717z M1110.172,306.717l0.012,0.012l0.015-0.004l0.005-0.011l-0.01-0.012l-0.015,0.002L1110.172,306.717L1110.172,306.717z M1112.642,318.124l0.017-0.001l0.007-0.014l-0.006-0.011h-0.015l-0.008,0.012L1112.642,318.124L1112.642,318.124z M1118.593,316.169l0.017-0.001l0.007-0.014l-0.005-0.011h-0.015l-0.008,0.012L1118.593,316.169L1118.593,316.169z M1109.127,308.965v0.014l0.012,0.008l0.017-0.008l-0.004-0.018l-0.019-0.006L1109.127,308.965L1109.127,308.965z M1109.141,317.051v0.014l0.012,0.008l0.017-0.008l-0.004-0.018l-0.019-0.006L1109.141,317.051L1109.141,317.051z M1108.531,314.87l0.011-0.01l-0.005-0.013l-0.016-0.006l-0.009,0.012l0.006,0.013L1108.531,314.87L1108.531,314.87z M1117.78,314.961l0.014-0.006v-0.014l-0.012-0.011l-0.012,0.008l0.001,0.014L1117.78,314.961L1117.78,314.961z M1109.045,306.024v0.014l0.012,0.007l0.011-0.01l0.001-0.014l-0.007-0.007L1109.045,306.024L1109.045,306.024z M1107.423,308.405l-0.014-0.002l-0.009,0.011l0.008,0.013l0.013,0.004l0.008-0.006L1107.423,308.405L1107.423,308.405z M1113.448,318.053v0.014l0.012,0.007l0.011-0.01l0.001-0.014l-0.007-0.007L1113.448,318.053L1113.448,318.053z M1117.241,316.657l-0.013,0.005l-0.002,0.014l0.013,0.007l0.014-0.003l0.004-0.009L1117.241,316.657L1117.241,316.657z M1106.988,308.515l-0.009-0.013l-0.016,0.001l-0.002,0.012l0.01,0.012l0.017,0L1106.988,308.515L1106.988,308.515z M1109.894,309.495l-0.001-0.016l-0.014-0.007l-0.008,0.01l0.003,0.015l0.015,0.009L1109.894,309.495L1109.894,309.495z M1108.908,317.383l0.011-0.011l-0.004-0.015h-0.012l-0.01,0.012l0.003,0.017L1108.908,317.383L1108.908,317.383z M1108.63,317.831l-0.007-0.014l-0.016-0.001l-0.004,0.012l0.008,0.013l0.017,0.003L1108.63,317.831L1108.63,317.831z M1109.131,317.013l0.015,0.004l0.011-0.011l-0.006-0.011l-0.016-0.002l-0.013,0.011L1109.131,317.013L1109.131,317.013z M1109.131,317.013l0.015,0.004l0.011-0.011l-0.006-0.011l-0.016-0.002l-0.013,0.011L1109.131,317.013L1109.131,317.013z M1108.29,314.958l0.007-0.014l-0.009-0.013l-0.012,0.004l-0.005,0.015l0.008,0.015L1108.29,314.958L1108.29,314.958z M1108.893,318.361l0.015,0.004l0.011-0.011l-0.006-0.011l-0.016-0.002l-0.013,0.011L1108.893,318.361L1108.893,318.361z M1114.363,316.241l-0.013-0.009l-0.014,0.007l0.002,0.012l0.014,0.007l0.016-0.006L1114.363,316.241L1114.363,316.241z M1108.504,316.046l-0.004-0.022l-0.011-0.009l-0.006,0.01l0.003,0.017l0.01,0.015L1108.504,316.046L1108.504,316.046z M1111.534,307.106l0.003,0.016l0.013,0.015l0.008-0.009l-0.006-0.021l-0.012-0.01L1111.534,307.106L1111.534,307.106z M1110.137,318.412l-0.005,0.015l0.004,0.019l0.011-0.004l0.006-0.021l-0.006-0.015L1110.137,318.412L1110.137,318.412z M1109.9,319.435l-0.014-0.008l-0.02,0.001l0.002,0.012l0.019,0.009l0.016-0.003L1109.9,319.435L1109.9,319.435z M1109.9,319.435l-0.014-0.008l-0.02,0.001l0.002,0.012l0.019,0.009l0.016-0.003L1109.9,319.435L1109.9,319.435z M1114.87,316.461l0.005,0.015l0.016,0.012l0.006-0.01l-0.009-0.019l-0.014-0.008L1114.87,316.461L1114.87,316.461z M1117.173,316.829l-0.014-0.008l-0.02,0.001l0.002,0.012l0.019,0.009l0.016-0.003L1117.173,316.829L1117.173,316.829z M1118.019,316.454l0.008,0.014l0.017,0.009l0.004-0.011l-0.012-0.018l-0.015-0.006L1118.019,316.454L1118.019,316.454z M1109.886,315.674l0.016,0.01l0.016-0.007l-0.001-0.013l-0.021-0.01l-0.016,0.003L1109.886,315.674L1109.886,315.674z M1109.886,315.674l0.016,0.01l0.016-0.007l-0.001-0.013l-0.021-0.01l-0.016,0.003L1109.886,315.674L1109.886,315.674z M1117.719,315.976l-0.014-0.012l-0.017,0.004l-0.001,0.012l0.019,0.014h0.017L1117.719,315.976L1117.719,315.976z M1109.934,307.198l-0.01,0.015l0.03,0.027l0.021,0.001l0.003-0.023l-0.018-0.016L1109.934,307.198L1109.934,307.198z M1109.776,307.253l-0.012,0.013l0.024,0.032l0.021,0.004l0.007-0.022l-0.015-0.019L1109.776,307.253L1109.776,307.253z M1110.136,310.761l-0.015,0.011l0.019,0.036l0.019,0.008l0.011-0.021l-0.012-0.022L1110.136,310.761L1110.136,310.761z M1108.945,316.506l0.015,0.01l0.027-0.03l0.001-0.021l-0.023-0.003l-0.016,0.018L1108.945,316.506L1108.945,316.506z M1106.621,318.497l-0.01,0.015l0.03,0.027l0.021,0.001l0.003-0.023l-0.018-0.016L1106.621,318.497L1106.621,318.497z M1110.349,318.633l0.018,0.004l0.016-0.037l-0.007-0.02l-0.023,0.005l-0.009,0.023L1110.349,318.633L1110.349,318.633z M1108.488,306.03l-0.049,0.02l-0.01,0.034l0.038,0.007l0.057-0.025l0.002-0.031L1108.488,306.03L1108.488,306.03z M1108.859,310.177l0.03-0.034l-0.021-0.019l-0.038,0.009l-0.03,0.029l0.01,0.028L1108.859,310.177L1108.859,310.177z M1109.384,315.402l-0.022-0.04l-0.025,0.013l-0.005,0.039l0.018,0.038l0.03,0L1109.384,315.402L1109.384,315.402z M1108.637,314.912l0.034,0.03l0.019-0.021l-0.009-0.038l-0.029-0.03l-0.028,0.01L1108.637,314.912L1108.637,314.912z M1111.589,307.087l0.017,0.033l0.016,0.004l0-0.036l-0.019-0.029l-0.016,0.001L1111.589,307.087L1111.589,307.087z M1112.886,318.545l0.035-0.011l0.007-0.015l-0.035-0.006l-0.032,0.014l-0.002,0.016L1112.886,318.545L1112.886,318.545z M1108.635,310.197l0.017,0.022l0.02,0.003l0.007-0.015l-0.02-0.02l-0.017-0.005L1108.635,310.197L1108.635,310.197z M1108.975,312.646l0.027,0.006l0.017-0.01l-0.005-0.016l-0.028-0.002l-0.016,0.007L1108.975,312.646L1108.975,312.646z M1108.641,317.912l0.004,0.027l0.016,0.013l0.013-0.01l-0.007-0.027l-0.012-0.013L1108.641,317.912L1108.641,317.912z M1111.794,317.656l0.017,0.022l0.02,0.003l0.007-0.015l-0.02-0.02l-0.017-0.005L1111.794,317.656L1111.794,317.656z M1114.094,316.254l0.017,0.022l0.02,0.003l0.007-0.015l-0.02-0.02l-0.017-0.005L1114.094,316.254L1114.094,316.254z M1114.689,316.912l-0.015,0.023l0.004,0.02l0.016,0.001l0.012-0.026l-0.001-0.017L1114.689,316.912L1114.689,316.912z M1113.923,317.031l0.004,0.027l0.016,0.013l0.013-0.01l-0.007-0.027l-0.012-0.013L1113.923,317.031L1113.923,317.031z M1118.36,314.876l0.027,0.001l0.015-0.013l-0.007-0.015l-0.028,0.002l-0.015,0.01L1118.36,314.876L1118.36,314.876z M1116.646,317.044l-0.015,0.023l0.004,0.02l0.016,0.001l0.012-0.026l-0.001-0.017L1116.646,317.044L1116.646,317.044z M1106.271,316.639l0.031-0.02l0.008-0.027l-0.027-0.008l-0.031,0.016l-0.008,0.024L1106.271,316.639L1106.271,316.639z M1110.731,311.879l0.031-0.018l0.018-0.047l-0.021-0.013l-0.031,0.013l-0.01,0.044L1110.731,311.879L1110.731,311.879z M1109.344,316.826l0.022,0.003l0.025-0.012l-0.004-0.011l-0.028-0.005l-0.025,0.012L1109.344,316.826L1109.344,316.826z M1112.362,318.363l-0.005-0.022l-0.02-0.019l-0.009,0.008l0.005,0.027l0.02,0.019L1112.362,318.363L1112.362,318.363z M1113.916,316.478l0.014-0.018l0.002-0.027l-0.012-0.002l-0.018,0.022l-0.002,0.027L1113.916,316.478L1113.916,316.478z M1106.632,316.728l0.01-0.031l-0.008-0.016l-0.033,0.01l-0.012,0.031l0.006,0.025l0.024,0.002L1106.632,316.728L1106.632,316.728z M1112.662,316.879l-0.05,0.011l-0.012,0.034l0.03,0.033l0.027-0.007l0.02-0.047L1112.662,316.879L1112.662,316.879z M1109.851,309.634l-0.025,0.017l-0.021,0.061l0.017,0.028l0.041,0.004l0.026-0.026l-0.017-0.069L1109.851,309.634L1109.851,309.634z M1112.16,317.545l0.019-0.018l0-0.032l-0.015-0.019l-0.014,0.003l-0.007,0.025l0.005,0.03L1112.16,317.545L1112.16,317.545z M1109.786,309.464l0.026-0.019l0.018-0.022l-0.011-0.016l-0.022,0.002l-0.029,0.034l0,0.02L1109.786,309.464L1109.786,309.464z M1108.246,314.724l0.011,0.007l0.011-0.003l0.005-0.01l-0.006-0.012l-0.011-0.004l-0.014,0.008L1108.246,314.724L1108.246,314.724z M1108.246,314.724l0.011,0.007l0.011-0.003l0.005-0.01l-0.006-0.012l-0.011-0.004l-0.014,0.008L1108.246,314.724L1108.246,314.724z M1116.115,315.612l0.012-0.004l0.005-0.01l-0.004-0.01l-0.014-0.003l-0.01,0.006l-0.003,0.016L1116.115,315.612L1116.115,315.612z M1108.37,315.053l0.014-0.004l0.005-0.008l-0.003-0.016l-0.015-0.004l-0.01,0.011v0.014L1108.37,315.053L1108.37,315.053z M1109.659,316.182l0.009,0.011l0.01,0.002l0.014-0.008l-0.001-0.015l-0.014-0.006l-0.013,0.005L1109.659,316.182L1109.659,316.182z M1109.659,316.182l0.009,0.011l0.01,0.002l0.014-0.008l-0.001-0.015l-0.014-0.006l-0.013,0.005L1109.659,316.182L1109.659,316.182z M1108.396,317.956l0.012,0.008l0.01-0.001l0.01-0.012l-0.006-0.014l-0.015-0.001l-0.01,0.009L1108.396,317.956L1108.396,317.956z M1108.396,317.956l0.012,0.008l0.01-0.001l0.01-0.012l-0.006-0.014l-0.015-0.001l-0.01,0.009L1108.396,317.956L1108.396,317.956z M1111.3,317.747l0.008,0.011l0.016,0.007l0.015-0.01l-0.006-0.019l-0.019-0.006l-0.011,0.006L1111.3,317.747L1111.3,317.747z M1114.241,318.309l0.014,0.001l0.016-0.007l0.002-0.018l-0.019-0.007l-0.017,0.01l-0.002,0.012L1114.241,318.309L1114.241,318.309z M1109.428,308.584l-0.009-0.026l-0.013-0.006l-0.01,0.006l0.002,0.033l0.015,0.015l0.012,0.001L1109.428,308.584L1109.428,308.584z M1108.149,316.895l0.021,0.018l0.014-0.002l0.005-0.01l-0.018-0.028l-0.02-0.005l-0.011,0.006L1108.149,316.895L1108.149,316.895z M1108.149,316.895l0.021,0.018l0.014-0.002l0.005-0.01l-0.018-0.028l-0.02-0.005l-0.011,0.006L1108.149,316.895L1108.149,316.895z M1110.164,309.508l0.013,0.015l0.015,0.001l0.011-0.013l-0.001-0.014l-0.017-0.013l-0.015,0.004L1110.164,309.508L1110.164,309.508z M1117.423,316.373l0.01,0.017l0.014,0.004l0.013-0.011l0.001-0.014l-0.015-0.016l-0.016,0.002L1117.423,316.373L1117.423,316.373z M1117.898,316.393l0.012,0.005h0.019l0.015-0.007v-0.009l-0.019-0.008l-0.02,0.001l-0.013,0.009L1117.898,316.393L1117.898,316.393z M1111.095,303.262l0.003-0.042l-0.031-0.156l0.017-0.087l-0.007-0.049l-0.038-0.031l-0.003-0.097l0.045-0.031h0.118l0.358-0.195l0.163-0.202l0.059-0.184l0.101-0.087l0.205-0.1l0.024-0.039l-0.007-0.055l0.039-0.129l0.041-0.09l0.087-0.049l0.122-0.149l0.184-0.111l0.149-0.136l0.049-0.007l0.049,0.028l0.073-0.007l0.163-0.076l0.167-0.007l0.125,0.041h0.069l0.122-0.045l0.055,0.004l0.084-0.025l0.083,0.004l0.125,0.055l0.094,0.011l0.111,0.066l0.066-0.004l0.202-0.121l0.104-0.014l0.58-0.014l0.08-0.024l0.049,0.017l0.028,0.063l0.066,0.048l0.08,0.007l0.111-0.021l0.062-0.048l0.063-0.004l0.167,0.035l0.142,0.003l0.198,0.039l0.122-0.007l0.136-0.08l0.09-0.018l0.222-0.149l0.087-0.045l0.15-0.184l0.097-0.077l0.073-0.149l-0.004-0.091l0.028-0.149l0.007-0.181l-0.014-0.059l0.018-0.042l0.163-0.09l0.024,0.018l0.011,0.062l0.152,0.153l0.014,0.035l-0.003,0.076l0.049,0.167l0.156,0.198l0.003,0.042l-0.017,0.052l0.014,0.069l0.153,0.174l0.017,0.042l0.011,0.09l0.059,0.104l0.062,0.056l0.018,0.035l0.014,0.114l0.024,0.063l0.132,0.174l0.01,0.038l-0.003,0.042l0.042,0.093l0.006,0.098l0.042,0.097l0.084,0.115l0.073,0.062l0.038,0.056l0.021,0.069l0.073,0.091l0.08,0.066l0.041,0.01l0.018,0.017l-0.011,0.039l0.111,0.191l0.122,0.163l0.097,0.087l0.035,0.059l0.01,0.066l0.14,0.156l0.027,0.07l0.243,0.236l0.153,0.139l0.122,0.153l0.118,0.115l0.014,0.052l-0.035,0.097l0.025,0.073l0.132,0.125l0.087,0.056l0.02,0.076l-0.017,0.052v0.046l0.028,0.024l0.031,0.135l-0.021,0.046l0.018,0.024l0.041-0.007l0.125,0.094l0.056,0.083l0.024,0.104l0.056,0.087l0.122,0.073l0.031,0.052l0.007,0.066l0.041,0.084l0.011,0.059l0.042,0.049l0.08,0.048l0.09,0.098l0.01,0.059l0.073,0.097l0.007,0.059l-0.038,0.163l0.007,0.08l0.125,0.174l0.004,0.087l0.017,0.048l0.101,0.105l0.066,0.041v0.023l-0.037,0.039l-0.013,0.081l-0.013,0.026l0.003,0.06l0.023,0.034l-0.002,0.06l-0.024,0.039v0.039l0.031,0.073l0.011,0.083l-0.011,0.105l0.011,0.067l-0.013,0.034l0.028,0.13l0.084,0.128l0.062,0.175l0.04,0.06l0.005,0.041l-0.024,0.055l-0.002,0.026l0.018,0.042l-0.013,0.159l-0.024,0.065l-0.049,0.018l-0.06,0.058l-0.055,0.119l-0.018,0.073v0.089l-0.013,0.037l0.016,0.065l0.073,0.065l0.015,0.062v0.102l0.039,0.052l-0.005,0.042l-0.034,0.07l-0.008,0.05l-0.002,0.193l-0.031,0.083l-0.073,0.089l-0.087,0.182l-0.015,0.081l-0.003,0.19l-0.013,0.047l0.003,0.073l0.023,0.034l-0.002,0.096l-0.034,0.055l0.013,0.052l0.049,0.037l0.032,0.049l0.01,0.089l-0.008,0.049l0.026,0.06l0.068,0.047l0.05,0.011l0.005,0.041l-0.065,0.052l-0.013,0.063l-0.063,0.036l-0.055,0.013l-0.031,0.047l-0.003,0.076l0.032,0.015l0.039-0.023l0.06-0.003l0.044,0.026l-0.029,0.016h-0.036l-0.044,0.044l0.007,0.024l0.029-0.003l0.031-0.018l0.019,0.013l-0.006,0.037l0.052,0.033l0.071-0.002l0.049-0.068l0.053-0.029l0.039-0.005l0.039-0.036l0.021-0.055l0.07-0.07l0.057-0.079l0.013-0.033h0.042l0.047,0.036l0.06,0.115l-0.003,0.036l-0.018,0.029l-0.003,0.031l0.019,0.042l-0.055,0.107l-0.039,0.028l-0.011,0.089l-0.031,0.063l-0.075,0.078l-0.008,0.049l0.026,0.06l-0.003,0.078l-0.021,0.029l0.006,0.023l0.02,0.008l0.006,0.032l-0.073,0.172l-0.011,0.049l-0.047,0.104l0.003,0.06l-0.013,0.097l-0.024,0.021l-0.005,0.028l0.008,0.026l-0.008,0.037l-0.034,0.065l-0.013,0.104l-0.023,0.029l-0.005,0.034l-0.021,0.021l-0.032,0.026l-0.028,0.062l-0.008,0.058l0.031,0.059l0.037,0.029l-0.005,0.065l-0.019,0.045v0.192l-0.028,0.079l-0.039,0.026l-0.003,0.039l0.021,0.026l-0.013,0.034l-0.068,0.026l-0.026,0.021l-0.021-0.016l-0.003-0.076l-0.054-0.109l-0.11-0.107l-0.049-0.016l0.013,0.026l0.034,0.014l0.062,0.072l0.039,0.118l-0.013,0.065l-0.052,0.089l-0.047-0.006l-0.049-0.047v0.026l0.021,0.05l0.062,0.031l0.003,0.045l-0.021,0.052v0.054l-0.018,0.042l-0.034,0.026v0.044l0.028,0.04l0.011,0.041l-0.013,0.029l-0.078,0.005l-0.052,0.037l-0.058,0.091l-0.023,0.005l-0.042-0.021l-0.042,0.008l-0.047,0.05l-0.044,0.161l-0.042,0.026l-0.005,0.024l0.039,0.021l0.008,0.049l-0.039,0.076l-0.05,0.028l-0.007,0.021l0.007,0.05l-0.012,0.054l-0.05,0.021l-0.034,0.037l-0.016,0.044l-0.041,0.029l-0.073-0.003l-0.039,0.016h-0.047l-0.034,0.018l-0.039,0.052l0.013,0.057l-0.003,0.068l-0.023,0.021h-0.034l-0.029,0.023l-0.028-0.005l-0.053-0.036l-0.036-0.003l-0.01-0.031l0.013-0.034l-0.024-0.01l-0.044,0.023l-0.039,0.055l-0.045,0.028l-0.023,0.042l-0.016,0.115l-0.028,0.002l-0.021-0.096l-0.034-0.01l-0.016,0.018l0.005,0.083l0.024,0.047l-0.029,0.008l-0.023-0.029l-0.031,0.003l-0.016,0.034h-0.037l-0.041-0.065l-0.005-0.12l0.052-0.209l0.007-0.117l-0.01-0.029l0.013-0.036l0.11-0.11l0.013-0.049v-0.039l0.028-0.076l-0.002-0.055l-0.016,0.026l-0.013,0.042l-0.031,0.06l-0.06,0.024h-0.144l-0.054,0.036l-0.055,0.068l-0.016,0.052l-0.015,0.25l-0.024,0.065l-0.026,0.123l-0.026,0.013l-0.13-0.005l-0.047,0.018h-0.159l-0.008-0.042l0.024-0.029l-0.008-0.049h-0.026l-0.042,0.021v0.023h0.026l0.005,0.029l-0.023,0.096h-0.024l-0.02-0.047l-0.149-0.065l-0.021-0.036l-0.029-0.008l-0.033,0.016l-0.021-0.013l0.015-0.063l-0.018-0.107l-0.039-0.008l-0.026,0.021l-0.003,0.068l-0.018,0.01l-0.026-0.031l-0.042-0.016l-0.021-0.054l-0.033-0.011l-0.029,0.013l-0.013,0.047l-0.026-0.008l-0.107-0.182l-0.003-0.052l0.039-0.06l-0.018-0.013l-0.055,0.029l-0.028,0.06l0.023,0.091l0.073,0.099l-0.008,0.026l-0.036,0.01l-0.029-0.008l-0.018,0.016l0.034,0.021l0.044-0.008l0.021,0.021l0.024,0.089l0.065,0.054l-0.003,0.021l-0.044,0.013l0.002,0.021l0.081,0.003l0.011,0.026l-0.045,0.031l-0.099,0.031l-0.068,0.005l0.006-0.023l0.057-0.029l-0.01-0.018h-0.068l-0.026-0.021l0.008-0.031l0.039-0.021l-0.011-0.018l-0.08-0.016l-0.042-0.026l-0.018-0.052l-0.019,0.008l-0.031,0.044l-0.055,0.016l-0.143-0.008l-0.05-0.013l-0.02,0.01l0.013,0.029l0.049,0.031l-0.005,0.032l-0.042,0.026l-0.041,0.002l-0.042,0.029l-0.005,0.021l-0.039,0.013l-0.081,0.002l-0.086,0.055l-0.005,0.039l-0.024,0.037l0.024,0.018l0.036-0.023l0.01-0.058l0.097-0.034h0.112l0.008-0.026l-0.011-0.028l0.029-0.021l0.086-0.008l0.016,0.021l-0.008,0.052l-0.039,0.013l0.01,0.023l0.055,0.003l0.013,0.021l-0.005,0.026l0.015,0.023l0.034,0.016l-0.002,0.023l-0.076,0.081l-0.083,0.018l-0.097-0.015l-0.078,0.01l-0.013,0.026l0.037,0.003l0.049-0.011l0.047,0.021l-0.003,0.052l-0.034,0.053l-0.005,0.06l0.016,0.046l-0.011,0.053l-0.031,0.036v0.091l0.008,0.05l0.018-0.003l0.065-0.114l-0.01-0.032l0.016-0.021l0.031,0.024l0.042,0.083l-0.019,0.099l-0.073,0.091l-0.096,0.008l-0.05,0.021h-0.057l-0.06-0.036l-0.003-0.032l0.063-0.047h0.083v-0.02l-0.075-0.013l-0.031-0.042h-0.032l-0.028,0.034l-0.039-0.008l-0.021-0.018l-0.037-0.003l-0.047,0.008l-0.073-0.044l-0.023-0.052l0.021-0.032l0.086-0.013l0.065,0.029l0.021-0.026l-0.045-0.097l-0.054-0.075l-0.032,0.005l-0.049,0.07l-0.008,0.034l0.003,0.037l-0.078,0.06l-0.032-0.006l-0.047-0.07l0.008-0.034l-0.016-0.028l-0.106-0.013l-0.099,0.013l-0.008,0.031l0.005,0.128l-0.016,0.018h-0.028l-0.021-0.029l-0.123,0.003l-0.049,0.041l-0.034-0.002l-0.037-0.052l-0.036-0.021l-0.031-0.047l-0.081-0.024h-0.083l-0.06-0.039l-0.029-0.062l0.005-0.042l0.044-0.042v-0.041l-0.033-0.045l0.007-0.065l0.026-0.036l-0.005-0.031l-0.026-0.076l0.013-0.076l0.058-0.057l-0.024-0.003l-0.06,0.037l-0.029,0.068l-0.002,0.075l-0.031,0.016l-0.024-0.016l0.013-0.021l-0.062-0.013l-0.042,0.003l-0.018,0.023l0.047,0.013l0.049,0.05l0.047,0.073l-0.034,0.057l-0.058,0.013l-0.01,0.023h-0.033l-0.039-0.045l-0.027-0.004l-0.028,0.016l-0.024,0.026h-0.044l-0.023-0.042l0.023-0.026l0.003-0.028l-0.04-0.021l-0.031,0.01l-0.081,0.185l-0.044,0.026l-0.06,0.026l-0.159,0.003l-0.057,0.018l-0.068,0.005l-0.065-0.034l-0.042-0.101l-0.021,0.002l-0.02,0.045l-0.084,0.036l-0.083,0.071l-0.078,0.104l-0.154,0.107h-0.029l-0.122-0.141l-0.039-0.013l-0.019,0.018l0.073,0.091l-0.002,0.029l-0.047,0.055v0.036l0.054,0.047l0.076-0.044l0.031,0.01l0.092,0.091h0.041l0.063-0.062l0.047-0.013l0.091,0.003l0.034,0.018l0.075-0.024l0.045,0.006l0.021,0.039l-0.034,0.192l-0.029,0.032l-0.044,0.075l0.008,0.037l0.023,0.044l-0.016,0.057l-0.023,0.029l-0.047,0.008l-0.042,0.029l-0.062,0.018l-0.039-0.008l-0.071-0.076l-0.044-0.023l-0.029,0.01l-0.065,0.115l0.013,0.031l-0.018,0.011l-0.029-0.021l-0.028,0.008l-0.011,0.031l0.021,0.042l0.073,0.213v0.05l-0.023,0.005l-0.073-0.052l-0.12-0.029l-0.019,0.013l0.016,0.039l-0.021,0.008l-0.041-0.039l-0.014-0.039l-0.031-0.031v-0.198l0.031-0.073l0.097-0.117l-0.003-0.029l-0.052-0.016l-0.026-0.073l-0.06-0.088l-0.07-0.006l-0.026-0.031l0.047-0.091l-0.013-0.024l-0.029-0.007l-0.023-0.037l-0.006-0.081l-0.031-0.015l-0.05,0.008l-0.015,0.036v0.06l-0.034,0.031l-0.24,0.047l-0.049,0.024h-0.039l-0.045-0.034l-0.044,0.002l0.044,0.026l0.039,0.053l0.105,0.013l-0.013,0.026l-0.076,0.036l-0.026,0.06l0.005,0.039l0.037,0.021l-0.005,0.034l-0.058,0.036l-0.018,0.039l0.005,0.058l0.089,0.114l0.054,0.024l0.027,0.029l0.013,0.039l0.062,0.044l0.06,0.005l0.094,0.063l-0.011,0.021l-0.073-0.006l-0.018,0.016l0.039,0.021l0.074,0.006l0.023,0.028l0.026,0.094l-0.012,0.05l-0.07,0.066l-0.043-0.002l-0.035-0.035l-0.021,0.004l-0.016,0.019l-0.027-0.002l-0.037-0.022l-0.088-0.007l-0.155,0.007l-0.01,0.015l0.024,0.006l0.08-0.006l0.045,0.03l-0.007,0.026l-0.042,0.017l-0.064,0.004v0.015l0.036,0.011l0.044-0.007l0.054,0.009l0.05,0.024l0.012,0.042l-0.01,0.059l0.014,0.034l-0.014,0.011l-0.042-0.009l-0.024,0.009l-0.009,0.028l-0.017,0.003l-0.031-0.005l-0.028,0.019l0.001,0.031l0.02,0.026l-0.009,0.018l-0.037,0.005l-0.067-0.016l-0.065,0.019l-0.064,0.065l0.002,0.021l0.041,0.029l0.007,0.026l-0.017,0.023h-0.04l-0.031-0.03l-0.014-0.035l-0.038-0.01l-0.011-0.014l0.004-0.017l-0.021-0.019l-0.08-0.023l-0.002-0.028l0.026-0.04l-0.005-0.027l-0.071-0.046l-0.096-0.02l-0.04-0.047l-0.038-0.032l-0.007,0.012l0.019,0.04l-0.014,0.014l-0.027,0.002l-0.033-0.028h-0.033l-0.025,0.021l-0.085,0.009l-0.068-0.012l-0.057-0.032l-0.035-0.06l-0.001-0.059l0.079-0.087l0.039-0.019l0.022-0.047h0.016l0.01,0.014l0.033,0.001l0.023-0.029l0.005-0.082l0.042-0.089l0.036-0.02l0.019,0.003l0.013,0.045l-0.004,0.124l0.023,0.02l-0.005-0.026l0.008-0.059l0.021-0.012l0.043-0.002l0.037-0.036l-0.003-0.033l-0.032-0.038l0.004-0.051l0.057-0.142l0.099-0.075l0.023,0.005l0.034,0.07l0.002,0.045l-0.017,0.038l0.007,0.028l0.099,0.03l0.031-0.021l0.042-0.099l0.005-0.12l-0.014-0.089l-0.026-0.019l-0.043,0.002l-0.051,0.055h-0.029l-0.032-0.012l-0.026,0.002l-0.014,0.019l-0.029-0.002l-0.058-0.097l0.009-0.031l-0.014-0.009l-0.036,0.012l-0.064,0.082l-0.023,0.085l-0.068,0.09l-0.002,0.026l-0.04,0.014l-0.099-0.01l-0.069-0.028l-0.03,0.002l-0.038,0.038l-0.038,0.068l-0.075,0.04l-0.048,0.005l-0.018,0.016l-0.021,0.054l-0.1,0.069l-0.068,0.026l-0.07-0.009l-0.099-0.013l-0.04-0.014l0.018,0.026l0.031,0.01l0.075,0.014l0.05,0.042l-0.002,0.024l-0.052,0.085l-0.026,0.026l0.007,0.016l0.033,0.021l0.031,0.001l0.006,0.027l-0.019,0.017l-0.023,0.01l-0.05,0.164l-0.032,0.029l-0.014,0.042l0.046,0.054l-0.013,0.026l-0.029,0.003l-0.017,0.021l-0.023,0.002l-0.023-0.021l-0.033-0.007l-0.008,0.016l0.024,0.05l-0.009,0.033l-0.021,0.024l-0.034,0.002l-0.037-0.022l-0.075-0.009l-0.088-0.004l-0.004,0.013l0.039,0.067v0.042l-0.016,0.004l-0.03-0.039l-0.047-0.015l-0.057-0.049l-0.035-0.003l-0.046,0.01l-0.042-0.007l-0.028-0.03v-0.033l-0.017-0.003l-0.023,0.005l-0.028-0.014l0.002-0.019l0.026-0.031l-0.003-0.049l-0.021-0.057l-0.002-0.082l0.021-0.078l-0.001-0.114l-0.047-0.133l0.01-0.054l-0.02,0.002l-0.026,0.055l0.005,0.109l-0.016,0.209l-0.01,0.034l-0.003,0.039l0.013,0.044l-0.021,0.034l-0.052,0.008l-0.013,0.021l0.018,0.049l-0.023,0.021h-0.044l-0.021,0.016l0.002,0.044l0.024,0.016l-0.013,0.018l-0.071,0.008l-0.057,0.021l-0.052,0.039l-0.138,0.057l-0.065,0.065l-0.016,0.042l0.013,0.047l-0.01,0.075l-0.034,0.042l-0.026,0.068l0.002,0.052l-0.02,0.018l-0.063-0.018l-0.073-0.005l-0.094,0.075l-0.041,0.016l-0.032-0.016l-0.01-0.075l0.034-0.058l-0.019-0.099l-0.036-0.023l-0.07,0.021l-0.034,0.028l-0.026-0.013l0.013-0.047l-0.013-0.057l0.023-0.031h0.037l0.013-0.018l-0.003-0.029l0.023-0.026l0.04-0.024l0.015-0.041l-0.01-0.05l-0.039-0.005l-0.06,0.026l-0.047-0.013l-0.05-0.055l0.008-0.031l0.047-0.034l-0.005-0.021l-0.037-0.013l-0.005-0.054l0.013-0.094l0.037-0.068l0.041-0.021l0.013-0.021v-0.036l0.034-0.024l0.06-0.005l-0.023-0.016h-0.058l-0.039,0.037l-0.021,0.044l-0.046,0.037l-0.068,0.002l0.002-0.02l0.029-0.008l0.005-0.019l-0.065-0.049l-0.06-0.021l-0.039,0.018l-0.031,0.045l-0.058,0.01l-0.015-0.018l0.021-0.047l-0.011-0.037l-0.174-0.054l-0.065,0.01l-0.04-0.026l0.008-0.042l-0.021-0.023l-0.062-0.026l-0.037-0.081l0.039-0.044l-0.013-0.019l-0.044,0.003l-0.039-0.039l-0.024-0.128l0.027-0.112l0.036-0.065l0.008-0.081l0.042-0.101l0.036-0.008l0.089,0.055l0.07,0.099l0.031,0.075l-0.01,0.05l-0.024,0.018l0.006,0.049l0.052,0.066l0.049,0.13l0.073,0.068l0.089,0.039l0.081,0.049h0.07l0.055-0.028l-0.026-0.006l-0.065,0.008l-0.029-0.015l-0.024-0.047l-0.091-0.065l-0.049-0.014l-0.068-0.059l-0.023-0.073l0.02-0.058l0.05-0.047v-0.039l-0.021-0.039l0.016-0.026l0.104,0.005l0.167,0.047v0.034l-0.011,0.024l0.024,0.075l0.065,0.065l0.023,0.003l0.008-0.021l-0.028-0.042l0.01-0.026l0.029,0.019l0.036,0.039l0.057,0.013l0.102,0.013l0.018-0.016l-0.036-0.029l-0.047-0.02l-0.047-0.047l-0.018-0.053l-0.045-0.049l-0.078-0.034l-0.318-0.065l-0.065-0.031l-0.005-0.034l0.013-0.018l0.026-0.008l0.039-0.05l0.07-0.036l0.159-0.037l0.066,0.016l0.067,0.065l0.073,0.008l0.027-0.014l0.031-0.041l0.005-0.073l0.052-0.049l0.034-0.016l0.026-0.081l0.021-0.13l-0.024-0.068l-0.125-0.156l0.005-0.037h0.032l-0.026-0.021l-0.029,0.003l-0.016,0.05l0.008,0.026l0.12,0.146l0.01,0.07l-0.018,0.12l-0.036,0.062l-0.063,0.055l-0.005,0.063l-0.021,0.034h-0.029l-0.093-0.076l-0.084-0.016l-0.114,0.024l-0.055,0.028l-0.112,0.016l-0.039-0.016l-0.045-0.041l0.006-0.032l0.125-0.14l0.054-0.021l0.008-0.037l-0.057-0.117v-0.047l0.036-0.049v-0.037l-0.044-0.049l0.013-0.154l0.057-0.055l-0.01-0.047l-0.021-0.002l-0.044,0.065l-0.021-0.003l-0.013-0.073l-0.018-0.015l-0.021,0.018l0.002,0.057l-0.018,0.021l0.003,0.026l0.031,0.029v0.083l-0.034,0.065l-0.057,0.024l-0.065-0.013l-0.005-0.029l-0.034-0.016l-0.029,0.006l-0.018-0.019l0.028-0.031l-0.002-0.023l-0.063-0.06v-0.058l0.026-0.031l0.037,0.005l0.034,0.037h0.057l0.063-0.039l0.002-0.039l-0.049-0.024l0.008-0.026l0.132-0.078l0.029-0.037l-0.018-0.049l-0.042-0.01l-0.055,0.026l-0.028-0.019l0.01-0.036l-0.018-0.013l-0.039-0.003l-0.008-0.023l0.016-0.042l-0.039-0.044l-0.037-0.005l-0.042,0.065v0.039l0.021,0.026l-0.013,0.026l-0.039-0.005l-0.042-0.045l-0.044,0.008l-0.049-0.036l0.002-0.026l-0.023-0.032l-0.032-0.02l-0.002-0.042l0.021-0.021l0.005-0.026l-0.021-0.037l0.005-0.073l0.042-0.054l0.047,0.002l0.047,0.034l0.065,0.008l0.029,0.021l0.031-0.003l0.029-0.044l0.031-0.063l0.023-0.015l0.021,0.01l-0.008,0.081l-0.021,0.068l-0.02,0.023v0.076l0.041,0.015l0.016,0.029v0.026l0.065,0.039l0.029-0.005l0.021-0.042l0.02-0.005l-0.005,0.055l0.026,0.008l0.019-0.013l0.023,0.01l0.008,0.047l-0.029,0.052l0.011,0.044l0.023,0.024l0.057,0.002l0.006-0.02l-0.019-0.024l0.011-0.036l0.078-0.034l0.039-0.052l-0.005-0.029l-0.044-0.021v-0.026l0.054-0.026v-0.029l-0.039-0.018l-0.062,0.005l-0.039-0.023l-0.047-0.086l-0.079-0.063l-0.096-0.107l-0.003-0.041l0.05-0.065l0.013-0.045h-0.029l-0.049,0.042l-0.034,0.005l-0.128-0.039l-0.034-0.062l0.003-0.089l0.049-0.036l0.058-0.113l0.034-0.023l0.075-0.003l0.037-0.026l0.018-0.177l0.068-0.141l0.049-0.005l0.031,0.021l0.021-0.008l-0.015-0.031l-0.045-0.031l-0.01-0.084l0.037-0.086l0.057-0.028l0.018-0.032l0.008-0.054l0.151-0.258l0.037-0.032l0.028,0.016l0.024-0.013l0.015-0.037l0.055-0.02h0.078l0.099-0.037h0.084l0.067-0.044l0.021-0.05l0.058-0.028l0.073,0.013l0.044,0.036l0.026-0.008l0.005-0.036l-0.044-0.073l-0.063-0.026l-0.073,0.028l-0.216,0.006l-0.107,0.031h-0.094l-0.065-0.031l-0.031-0.045l-0.06-0.026l-0.024-0.05l0.007-0.099l0.076-0.057l0.057-0.011l0.092-0.081l0.015-0.039l0.086-0.073l0.102-0.034l0.021-0.031v-0.039l-0.024,0.008l-0.018,0.031h-0.057l-0.052-0.021l-0.003-0.041l0.029-0.053l0.07,0.011l0.01-0.021l-0.018-0.049l0.016-0.06l0.099-0.123l0.073-0.042l0.099-0.002l0.13,0.057l0.102,0.026l0.083,0.005l0.102,0.045l0.052,0.067l0.003-0.031l-0.042-0.06l-0.11-0.044l-0.093-0.01l-0.094-0.034l-0.157-0.073l-0.007-0.052l0.036-0.055l0.181-0.016l0.083-0.021l0.07-0.052l0.121-0.024l0.084-0.07l0.104-0.031l-0.066-0.007l-0.077,0.024l-0.059,0.046l-0.128,0.021l-0.098,0.052l-0.097,0.017l-0.233,0.054h-0.088l-0.019-0.031l0.022-0.056l-0.001-0.108l-0.056-0.071l-0.004-0.056l-0.034-0.02l-0.139,0.003l-0.059-0.056v-0.069l0.038-0.038l0.347-0.025l0.132-0.055l0.167-0.007l0.08,0.024l0.052-0.01l0.045-0.101l0.049-0.035l0.139-0.021l0.222-0.125l0.046-0.087l-0.007-0.104l0.053-0.127l0.027-0.014l0.052,0.006l0.073-0.014l0.055-0.059h0.045l0.063,0.034h0.059l-0.03-0.019l-0.027-0.007l-0.061-0.034l-0.066,0.001l-0.068,0.056l-0.047,0.002l-0.04-0.007l-0.043,0.008l-0.037,0.047l-0.043,0.125l-0.004,0.105l-0.031,0.059l-0.108,0.033l-0.053,0.026l-0.028,0.036l-0.03,0.014l-0.094,0.009l-0.08,0.036l-0.031,0.032l-0.033,0.062l-0.04,0.018l-0.062-0.014l-0.132-0.004l-0.035-0.019v-0.075l0.022-0.017l-0.003-0.024l-0.066-0.058l-0.042-0.012l-0.019-0.026l-0.003-0.05l-0.03-0.032l0.005-0.012l0.032-0.008v-0.021l-0.021-0.042l-0.03-0.009l-0.021,0.014l-0.017-0.008l-0.012-0.046l-0.063-0.081l-0.054-0.037l-0.024,0.002l-0.031,0.03l-0.016-0.002l-0.008-0.028l-0.056-0.038l-0.068-0.016l-0.052,0.007l-0.016,0.033l0.011,0.038l-0.016,0.009l-0.031-0.023l-0.003-0.069l0.015-0.031l0.085-0.021l0.084-0.087l0.001-0.021l-0.024-0.021l-0.005-0.024l0.014-0.017l-0.002-0.02l-0.023-0.038l0.002-0.083l0.026-0.094l0.028-0.023l-0.002-0.017l-0.061-0.099l-0.038-0.024l-0.048-0.089l0.008-0.035l0.122-0.057l0.049-0.026l-0.002-0.017l-0.038-0.018l-0.119-0.097l-0.046-0.014l-0.049-0.002l-0.016-0.014l-0.002-0.033l0.034-0.085l0.079-0.094l-0.014-0.008l-0.022,0.001l-0.036-0.038l-0.009-0.088l-0.026-0.061l-0.009-0.207l-0.049-0.057l-0.001-0.11l-0.033-0.09l0.005-0.03l0.061-0.038l0.003-0.028l-0.036-0.074l-0.018-0.155l0.005-0.075l-0.022-0.027l-0.019,0.005l-0.042,0.099v0.024l0.016,0.026l-0.005,0.094l-0.051,0.109l-0.054,0.009l-0.015-0.014l0.007-0.021l-0.018-0.01l-0.097-0.016l-0.056-0.031l-0.014-0.054v-0.128l-0.055-0.172l-0.014,0.001l-0.016,0.047v0.122l0.025,0.078l0.008,0.066l0.035,0.057l-0.012,0.014l-0.049,0.007l-0.057,0.047l-0.026,0.042l-0.037,0.007l-0.045,0.038l-0.022-0.003l-0.021-0.044l0.002-0.076l0.012-0.019l0.031-0.009l0.014-0.03l-0.007-0.059l-0.035-0.099l-0.036-0.022l-0.04-0.002l-0.018-0.019l-0.01-0.07l0.036-0.052l0.007-0.097l-0.015-0.004l-0.026,0.028l-0.033,0.012h-0.051l-0.014,0.014l-0.01,0.058l-0.017,0.026l-0.046,0.008l-0.038,0.021l-0.024,0.042l-0.033,0.012l-0.125-0.005l-0.018-0.023l-0.005-0.071l0.011-0.028l0.048-0.038l0.058,0.002l0.053,0.022l0.073-0.017l0.02-0.03l-0.018-0.02l-0.038,0.005l-0.007-0.012l0.017-0.025l-0.007-0.017l-0.04-0.016l-0.052-0.055l-0.064-0.016l-0.063,0.005l-0.012,0.016l0.021,0.056l-0.003,0.041l-0.072,0.07l-0.019,0.001l-0.015-0.033l0.005-0.033l0.036-0.046l0.002-0.037l-0.009-0.016l-0.029-0.008l-0.023-0.051l0.005-0.021l0.04-0.01l0.014-0.017l-0.003-0.023l0.012-0.016l0.024-0.01l0.026-0.063l-0.014-0.024l0.006-0.014l0.022-0.002l0.021-0.034v-0.038l-0.022-0.02v-0.019l0.033-0.017l0.029,0.007l0.018,0.062l-0.006,0.051l0.016,0.008l0.031-0.013l0.005-0.044l-0.024-0.017v-0.025l0.052-0.048l0.004-0.028l-0.016-0.05l-0.002-0.044l-0.022-0.043l0.005-0.014h0.026l0.033-0.04l0.083-0.045l0.082-0.014l0.019,0.009l0.004,0.026l-0.009,0.017l0.014,0.017l0.045-0.007l0.016-0.014l0.031-0.001l0.03,0.012l0.015-0.011l-0.009-0.031v-0.045l0.02-0.026l0.001-0.021l-0.017-0.04l-0.005-0.057l-0.016-0.047l0.011-0.023l0.05-0.007l0.036-0.029l0.02,0.01l-0.016,0.045l0.005,0.027l-0.009,0.036l-0.014,0.017l0.002,0.019l0.016,0.027l-0.002,0.033l-0.017,0.015l0.001,0.026l0.051,0.073v0.052l-0.063,0.101l-0.005,0.037l-0.017,0.029l0.007,0.024l0.055,0.02l-0.003,0.017l-0.052,0.042l-0.03,0.007l-0.012,0.024l0.003,0.066l0.02,0.005l0.036-0.045l0.038-0.026l0.038-0.004l0.023,0.013l0.014-0.011l-0.01-0.068l-0.042-0.031l-0.002-0.017l0.023-0.011l0.01-0.048l0.026-0.019l0.038,0.005l0.004,0.024l-0.012,0.026l0.008,0.031l0.053,0.04l0.012-0.012l-0.012-0.038l0.007-0.029l0.074-0.056l-0.007-0.014l-0.029-0.007l-0.016-0.021l0.016-0.024l0.085-0.005l0.014-0.014v-0.038l0.026-0.025l0.021,0.004l0.01,0.017l0.044-0.003l0.015-0.014l-0.002-0.025l-0.029-0.012l-0.033-0.002l-0.019-0.026l0.014-0.031l0.04-0.028l-0.007-0.027l-0.025-0.006l-0.057,0.018l-0.021,0.017l-0.017-0.014l-0.007-0.043l-0.037-0.025l-0.043,0.002l-0.042-0.022l-0.014-0.037l-0.036-0.005v-0.019l0.043-0.012l0.049-0.004l0.042,0.016l0.026-0.014l-0.004-0.031l-0.033-0.014l-0.073-0.002l-0.067-0.021l-0.021-0.033l0.01-0.035l0.092-0.038l0.174-0.022l0.116,0.005l0.08,0.047l0.063,0.095l0.052,0.146l-0.007,0.092l-0.05,0.106l0.01,0.073l0.016,0.002l0.005-0.064l0.045-0.115l0.007-0.092l-0.019-0.087l0.015-0.019l0.066,0.003l0.044,0.032l0.094,0.139l-0.002-0.037l-0.073-0.116l-0.047-0.04l-0.069-0.014l-0.053-0.057l-0.066-0.098l0.002-0.048l0.08-0.134l0.044-0.024l0.066,0.015l0.038,0.054l0.064,0.042l0.045,0.001l0.283,0.133l0.046,0.01l0.198,0.01l0.198,0.059l0.12,0.047l0.005,0.019l-0.005,0.028l0.04,0.078l0.003,0.042l0.019,0.03l0.026,0.007l0.03,0.047l0.003,0.052l0.058,0.081l-0.002,0.158l-0.011,0.014l0.002,0.045l0.098,0.139l-0.002,0.035l-0.025,0.026l0.027-0.007l0.019-0.022l0.001-0.04l-0.069-0.113l0.003-0.018l0.037-0.003l0.002-0.014l-0.018-0.017l0.005-0.049l0.046-0.109l0.06-0.035l0.103-0.017l0.109-0.044l0.065-0.052l0.1-0.023l0.032-0.038l-0.011-0.144l-0.028-0.064l0.002-0.032l0.019-0.015l0.042,0.008l0.083,0.046l0.051,0.001l0.029-0.026l0.018-0.045l-0.018,0.004l-0.019,0.033l-0.026,0.013l-0.038-0.006l-0.066-0.04l-0.054-0.009l-0.04,0.026l-0.014,0.035l0.026,0.085l0.007,0.076l-0.017,0.035l-0.087,0.026h-0.033l-0.049,0.014l-0.061,0.035l-0.027-0.011l-0.032-0.048l-0.045-0.019l-0.047,0.005l-0.026-0.016l-0.01-0.04l-0.018-0.014l-0.031-0.001l-0.092-0.138l-0.007-0.034l-0.026-0.011l-0.031,0.004l-0.063-0.014l-0.04-0.035v-0.021l0.04-0.019l0.03-0.002l0.036,0.014l0.134-0.007l0.049-0.033l0.097-0.177l-0.03,0.021l-0.092,0.147l-0.04,0.014l-0.107,0.006l-0.04-0.007l-0.021-0.033l-0.045-0.018l-0.099-0.001l-0.021-0.018l0.002-0.054l0.015-0.024v-0.021l-0.083-0.068l-0.037-0.17l0.021-0.06l0.073-0.052l-0.029-0.005l-0.052,0.023l-0.08,0.068l-0.053,0.008l-0.033-0.016l-0.019-0.068l0.016-0.039l0.036-0.023v-0.021l-0.052-0.005l-0.06,0.013l-0.015-0.018l-0.003-0.071l0.042-0.057l-0.018-0.013l-0.042,0.008l-0.034-0.029l-0.005-0.07l-0.058-0.068l-0.078-0.011l-0.01,0.019l0.039,0.045l-0.008,0.015l-0.073-0.024l-0.039,0.008l-0.039,0.102l-0.026-0.006l-0.055-0.054v-0.089l0.047-0.042l0.018-0.041l-0.041-0.112l0.005-0.021l0.031-0.011l0.044-0.044l0.034-0.005l0.097,0.073l0.049,0.021l0.032-0.008v-0.026l0.028-0.003l0.024,0.039l-0.019,0.065l0.006,0.055l0.039,0.063l0.005,0.091l0.018-0.016v-0.099l-0.031-0.044l-0.003-0.063l0.021-0.031l-0.005-0.034l-0.016-0.028l0.024-0.034l0.065-0.003l0.034,0.029l-0.018,0.049l0.02,0.011l0.039-0.045l0.079,0.016l0.041-0.013l0.032-0.039l0.138-0.008l-0.013-0.021l-0.141-0.036l-0.086-0.063l-0.083-0.026l-0.02-0.032l0.042-0.076l0.129-0.132h-0.03l-0.196,0.135l-0.129,0.004l-0.038-0.018l-0.115-0.003v-0.035l0.174-0.004l0.052,0.018l0.025-0.021l-0.146-0.108l-0.007-0.08l-0.025-0.076l0.007-0.066l-0.034-0.038l0.003-0.125l0.031-0.053l0.105-0.024l0.02-0.052h-0.027l-0.021,0.024l-0.059,0.004l-0.025-0.031l-0.017-0.23l-0.042-0.035l-0.118-0.173l-0.021-0.066l-0.031-0.042l-0.024-0.08l0.021-0.031l0.003-0.031l-0.038-0.025l-0.007-0.028l0.017-0.038l0.004-0.052l-0.035-0.056l-0.004-0.045l0.021-0.066v-0.055l-0.031-0.049l0.021-0.028h0.055l0.07,0.014l0.045,0.042l0.104,0.003l0.073-0.021l0.056-0.062l0.056,0.01l0.007,0.039l0.048,0.048l0.018,0.094l-0.025,0.076l-0.007,0.098l0.018,0.062l0.139,0.108l0.288,0.156l0.083,0.073l0.372,0.251l0.08,0.027l0.063,0.049l0.118,0.056l0.069-0.018l0.108-0.087l0.042-0.003l0.118,0.049l0.094-0.004l0.087-0.073l0.048-0.083l0.045-0.039l0.091-0.02l0.059-0.039h0.055l0.063,0.066l0.052,0.08l0.172,0.086l-0.026-0.036l-0.112-0.065l-0.047-0.086l-0.094-0.084l-0.067-0.005l-0.073,0.047l-0.079,0.01l-0.067,0.058l-0.04,0.078l-0.075,0.07l-0.073,0.011l-0.107-0.05l-0.052-0.008l-0.042,0.019l-0.104,0.083l-0.052,0.005l-0.052-0.018l-0.107-0.083l-0.073-0.019l-0.362-0.242l-0.039-0.052l-0.058-0.039l-0.247-0.131l-0.146-0.101l-0.021-0.073l0.024-0.132l0.004-0.146l-0.035-0.077l-0.003-0.1l0.024-0.122l0.049-0.024l0.128-0.042l0.094-0.014l0.017-0.066l-0.059-0.087l0.004-0.052l0.038-0.038l0.062-0.031h-0.076l-0.056,0.052l-0.003,0.066l0.055,0.1l-0.006,0.028l-0.098,0.004l-0.114,0.038L1111.095,303.262z"/>
</svg>
