<svg xmlns="http://www.w3.org/2000/svg" viewBox="1105.366 299.926 16.553 19.878">
  <path d="M1119.896,314.935l0.055,-0.029l0.031,0.008l0.05,0.031l0.042,0.073l0.005,0.037l0.031,0.026l-0.005,0.026l-0.031,0.003l-0.073,-0.06l-0.034,-0.005l-0.076,-0.071l0.005,-0.039Z M1109.638,304.543l0.01,0.01l0.01,0.004v-0.015l-0.005,-0.009 l-0.01,-0.003l-0.005,0.013Z M1107.592,304.253l0.023,0.013v0.023l-0.034,0.013l-0.021,-0.013l0.005,-0.031l0.026,-0.005Z M1109.495,303.762l0.017,-0.012l0.02,0.016l-0.005,0.034l-0.021,0.008l-0.018,-0.014l0.007,-0.032Z M1109.644,303.762l-0.016,0.018l-0.022,-0.008l-0.004,-0.021l0.01,-0.021l0.02,0.002l0.012,0.031Z M1110.525,304.376l0.008,-0.024l0.031,-0.016l0.027,0.008l-0.008,0.028l-0.031,0.02l-0.027,-0.016Z M1108.536,304.286l0.003,-0.016l0.01,-0.006l0.014,0.003l0.004,0.01l-0.005,0.01l-0.012,0.004l-0.014,-0.006Z M1109.104,303.955l0.002,-0.016l0.028,-0.007l0.038,0.012l-0.002,0.017l-0.036,0.003l-0.029,-0.01Z M1109.509,304.054l-0.023,0.003l-0.008,-0.004l0.005,-0.01l0.028,-0.002l0.007,0.006l-0.01,0.008Z M1107.462,304.002l0.035,-0.024l0.08,-0.003l0.024,0.024l-0.028,0.059l-0.059,0.028l-0.038,-0.014l-0.014,-0.07Z M1109.235,304.005l0.014,-0.028l0.042,-0.003l0.052,-0.021l0.045,0.014l0.038,0.073l-0.01,0.024l-0.076,-0.003l-0.104,-0.056Z M1109.488,304.114l0.031,-0.028h0.045l0.021,0.024l0.014,0.066l-0.028,0.01l-0.066,-0.042l-0.017,-0.031Z M1110.117,305.177l0.017,-0.042l0.035,-0.003l0.101,0.084l0.01,0.049l-0.028,0.038h-0.066l-0.031,-0.035l-0.007,-0.049l-0.031,-0.042Z M1110.708,304.637v-0.038l0.035,-0.042l0.035,0.003l0.007,0.052l-0.035,0.042l-0.042,-0.017Z M1109.999,304.947l-0.024,-0.059l0.028,-0.035l0.066,-0.01l0.087,-0.066l0.115,-0.035l0.136,-0.007l0.066,-0.038l0.017,-0.063l0.042,-0.021l0.076,0.007l0.076,0.052l0.045,0.014l0.066,0.063l-0.003,0.052l-0.073,0.042l-0.125,0.021l-0.108,0.066l-0.139,0.122l-0.073,0.024l-0.073,-0.014l-0.069,-0.07l-0.035,0.003l-0.038,0.017l-0.052,-0.024l-0.007,-0.042Z M1109.824,304.501l0.081,0.031l0.031,0.037l0.06,0.021l0.047,-0.005l0.026,0.01l-0.003,0.024l-0.141,-0.003l-0.042,0.016l-0.017,-0.017v-0.045l-0.056,-0.056l0.012,-0.013Z M1109.409,303.563l0.026,-0.029l0.044,0.013l0.031,-0.013l0.003,-0.026l-0.026,-0.029v-0.044l0.052,-0.039l0.089,-0.003l0.112,0.047l0.052,0.008l0.047,-0.016l0.039,0.013l0.008,0.039l-0.063,0.073l-0.078,0.042l-0.175,0.005l-0.034,0.031l-0.052,0.005l-0.068,-0.034l-0.008,-0.044Z M1109.686,303.887l-0.003,-0.037l0.031,-0.047l0.008,-0.071l0.034,-0.039l0.089,-0.026l0.018,0.016l-0.008,0.039l-0.018,0.042l-0.003,0.058l0.052,0.06l0.078,0.021l0.052,0.016l0.034,0.05l-0.005,0.055l-0.102,0.076l-0.044,0.003l-0.029,-0.016l-0.005,-0.068l-0.029,-0.047l-0.057,-0.031l-0.094,-0.052Z M1110.439,304.316h-0.034l-0.031,0.031l-0.05,0.008l-0.138,-0.01l-0.078,-0.026l-0.063,-0.065l-0.005,-0.05l-0.026,-0.026l0.008,-0.024l0.089,-0.008l0.034,-0.021l0.013,-0.058l-0.018,-0.078l-0.078,-0.094l-0.076,-0.026l-0.026,-0.042l0.003,-0.259l-0.013,-0.042l0.003,-0.039l0.117,-0.052l0.029,-0.05l0.036,-0.031h0.055l0.036,-0.021h0.036l0.057,0.063l0.125,0.099l0.055,0.021l0.039,0.044l0.003,0.047l0.029,0.063l0.008,0.047l-0.031,0.055l-0.003,0.063l0.034,0.034l0.008,0.039l-0.026,0.05l0.005,0.044l0.031,0.037v0.029l-0.01,0.024l0.029,0.092l0.026,0.034l0.005,0.029l-0.055,0.018l-0.036,0.058l-0.063,0.018l-0.052,-0.024Z M1110.142,304.609l0.018,-0.029l0.063,-0.031l0.031,0.01l0.016,0.034l0.042,-0.003l0.039,-0.024l0.044,0.01l0.016,0.05l-0.013,0.044l-0.031,0.005l-0.136,-0.013l-0.029,-0.026l0.003,-0.024l-0.023,-0.01l-0.029,0.016l-0.01,-0.01Z M1118.992,315.095l0.021,-0.042l0.102,-0.018l0.039,0.016l0.039,0.058l0.005,0.084l-0.031,0.063l-0.005,0.055l-0.021,0.029h-0.031l-0.013,-0.071l-0.031,-0.044l-0.008,-0.052l-0.026,-0.034l-0.039,-0.042Z M1119.26,315.053l0.007,-0.01l0.061,0.002l0.007,0.014l-0.016,0.009l-0.05,-0.005l-0.009,-0.009Z M1119.492,315.011l0.01,-0.068l0.052,-0.092l0.018,0.005l-0.005,0.055l-0.036,0.086l-0.026,0.024l-0.013,-0.01Z M1119.38,314.99l0.039,-0.162l0.003,-0.044l0.008,-0.238l0.023,-0.058l0.083,-0.081h0.136l0.055,-0.018l0.008,0.018l-0.018,0.042l-0.099,0.086l-0.023,0.058l0.013,0.055l-0.018,0.115l-0.063,0.076l-0.047,0.099l-0.039,0.024l-0.008,0.029l-0.031,0.016l-0.021,-0.016Z M1119.214,315.04l0.026,0.008l-0.008,0.016l-0.034,0.003l-0.008,-0.018l0.023,-0.008Z M1119.352,315.079l0.014,-0.007l0.052,0.017l0.005,0.012l-0.028,0.002l-0.031,-0.014l-0.012,-0.01Z M1119.52,315.077l0.012,-0.003l0.023,0.007l0.003,0.014h-0.024l-0.016,-0.007l0.002,-0.01Z M1119.525,315.135l-0.017,-0.005v-0.012l0.042,-0.007l0.031,0.007v0.014l-0.056,0.003Z M1119.439,315.067l0.028,0.002l0.005,0.01l-0.012,0.012l-0.023,-0.002l-0.01,-0.014l0.012,-0.009Z M1119.425,315.025l0.026,-0.017h0.016l0.002,0.014l-0.016,0.009l-0.024,0.003l-0.003,-0.009Z M1118.322,315.398l0.023,-0.01l0.018,-0.026l0.003,-0.037l0.065,-0.068l0.031,-0.005l0.018,0.024l-0.021,0.092l-0.036,0.044l-0.057,0.016l-0.044,-0.01v-0.018Z M1118.015,315.61h-0.023l-0.031,-0.034l-0.003,-0.031l0.016,-0.021l-0.003,-0.029l-0.01,-0.029v-0.037l0.029,-0.016l0.047,0.029l-0.003,0.031l-0.021,0.026v0.037l0.013,0.042l-0.01,0.031Z M1117.806,315.717l-0.021,-0.031v-0.029l0.023,-0.013l0.018,0.018v0.034l-0.021,0.021Z M1118.549,315.283l0.013,-0.068l0.05,-0.029l0.078,0.008l0.042,0.037v0.039l-0.063,0.055l-0.021,0.068l0.013,0.047l0.081,0.078l0.005,0.052l-0.016,0.029l-0.013,0.097l-0.047,0.071l-0.023,0.016v0.055l0.034,0.005l0.042,-0.042l0.044,-0.024l0.055,-0.005l0.01,0.013l-0.029,0.037l0.003,0.034l-0.021,0.021l-0.026,0.005l-0.008,0.018l0.023,0.047l-0.01,0.026l-0.034,-0.008l-0.021,-0.016l-0.039,0.029l0.003,0.029l0.021,0.008l0.018,-0.016l0.029,0.01l0.005,0.024l-0.005,0.024l0.016,0.035l0.023,0.022l0.013,0.055l-0.016,0.018l-0.055,-0.016l-0.029,-0.034l-0.013,-0.034l-0.023,0.005l-0.013,0.042l-0.018,0.005l-0.01,-0.029l-0.055,-0.031l-0.021,0.005v0.052l0.016,0.052l-0.016,0.021l-0.036,0.024h-0.042l-0.018,0.021l0.007,0.073l0.017,0.026l0.036,0.003l0.026,-0.008l0.055,0.031l-0.005,0.029l-0.029,0.005l-0.047,-0.018h-0.021l-0.034,0.013h-0.064l-0.009,0.011 l0.023,0.037l0.03,0.023l-0.003,0.019h-0.047l-0.036,0.026l-0.045,0.005l-0.023,-0.021h-0.031l-0.026,0.016l-0.016,-0.017l0.016,-0.037l0.03,-0.031l0.054,-0.019l-0.01,-0.019l-0.057,-0.01l-0.036,-0.031l0.008,-0.055l0.05,-0.051l0.002,-0.017l-0.026,-0.008l-0.034,0.005l-0.034,0.026h-0.044l-0.01,-0.026l0.042,-0.042l-0.023,-0.005l-0.044,0.029l-0.021,-0.013l0.008,-0.029l0.118,-0.031l0.03,-0.038l0.014,-0.065l0.021,-0.016v-0.021l-0.018,-0.016l-0.008,-0.042l-0.023,-0.018l-0.029,0.005l-0.018,0.029v0.026l-0.021,0.008l-0.073,-0.008l-0.057,0.029l-0.008,0.055l-0.023,0.01l-0.036,-0.018l-0.016,-0.047l-0.029,-0.029l-0.044,-0.037l-0.036,-0.092l0.016,-0.078l0.063,-0.073l0.052,-0.031l0.029,-0.039l0.055,-0.008l0.057,0.026l0.031,0.034l0.05,0.016l0.042,-0.026h0.042l0.057,0.034l0.036,-0.003l0.01,-0.024l-0.016,-0.039l-0.099,-0.094l0.003,-0.034l0.036,-0.042l0.003,-0.029l0.026,-0.008l0.039,0.013l0.083,-0.003l0.037,-0.024l0.02,-0.068l0.042,-0.037h0.034l0.005,-0.021l-0.016,-0.037Z M1116.693,315.972l-0.005,-0.024l0.012,-0.024l0.057,-0.021l0.056,-0.002l0.073,0.024l0.024,0.024l-0.012,0.016l-0.054,0.005l-0.024,0.012l-0.043,0.054l-0.028,-0.007l-0.019,-0.033l-0.036,-0.024Z M1116.836,316.041l0.003,-0.024l0.042,-0.031l0.047,-0.002l0.026,0.016l0.038,0.047l0.043,0.019l0.002,0.024l-0.059,0.037l-0.012,0.026l-0.04,0.002l-0.047,-0.037l-0.031,-0.003l-0.005,-0.017l0.009,-0.016v-0.024l-0.016,-0.016Z M1116.558,316.043l-0.028,-0.014l-0.003,-0.014l0.016,-0.012h0.035l0.023,0.021l-0.012,0.023l-0.03,-0.003Z M1117.131,316.334l0.003,-0.021l0.03,-0.007l0.052,0.028l-0.003,0.016l-0.028,0.024l-0.026,-0.003l-0.028,-0.037Z M1116.919,316.767l0.01,-0.014l0.057,0.003l0.05,0.033l0.037,0.011l0.002,0.023l-0.009,0.014l0.005,0.014l0.024,-0.007l0.035,-0.042l0.033,-0.003l0.005,0.021l-0.031,0.049l-0.023,0.017l-0.04,-0.002l-0.014,-0.016l-0.017,-0.002l-0.056,0.024l-0.022,0.024l-0.018,-0.006l0.008,-0.021l-0.027,-0.044l-0.03,-0.017l0.005,-0.017l0.019,-0.003l0.005,-0.014l-0.009,-0.024Z M1117.729,316.536l0.003,-0.024l0.028,-0.026l0.002,-0.028l-0.005,-0.019l0.016,-0.023l0.016,0.002l0.016,0.024l-0.005,0.026l-0.016,0.014l-0.003,0.016l0.009,0.023l-0.014,0.023l-0.028,0.003l-0.017,-0.01Z M1116.767,316.608l-0.061,-0.047l-0.004,-0.024l0.014,-0.021l0.064,0.006l0.029,0.025l0.008,0.046l-0.024,0.018l-0.026,-0.003Z M1116.922,316.678l0.014,-0.021l0.071,-0.01l0.01,0.014l-0.01,0.021l-0.04,0.01l-0.032,-0.004l-0.012,-0.01Z M1117.345,316.776l0.029,-0.01l0.047,0.014l0.05,0.028l-0.014,0.011l-0.051,-0.011l-0.03,0.008l-0.03,-0.014v-0.026Z M1118.019,316.102l0.023,-0.038l0.03,-0.01l0.019,0.023l-0.007,0.028l-0.038,0.028l-0.021,-0.003l-0.005,-0.026Z M1117.911,316.181l-0.003,-0.028l0.01,-0.012l0.019,0.003l0.002,0.031l-0.014,0.014l-0.014,-0.009Z M1117.96,316.305l0.007,-0.019l0.043,0.003l0.021,0.023l0.031,0.007l0.033,-0.012l0.035,0.017l-0.003,0.019l-0.016,0.017l-0.035,-0.003l-0.026,-0.017l-0.068,-0.014l-0.023,-0.021Z M1117.89,316.313h-0.04l-0.038,-0.028l-0.012,-0.037l-0.024,-0.049v-0.051l0.014,-0.007l0.016,0.031l0.016,0.002l0.002,-0.04l-0.031,-0.045l0.012,-0.014l0.031,0.007l0.038,0.051l0.012,0.054l0.021,0.026l0.036,0.009l0.009,0.024l-0.014,0.04l-0.047,0.026Z M1117.835,316.392l0.009,-0.016l0.035,-0.016l0.028,0.009l0.042,0.037l-0.005,0.014l-0.031,0.005l-0.047,-0.012l-0.03,-0.021Z M1114.934,315.816l0.01,-0.034l0.055,-0.024l0.096,0.009l0.016,0.021l-0.028,0.057l-0.052,0.016l-0.06,-0.003l-0.036,-0.042Z M1117.562,316.026l0.043,-0.01l0.063,0.007l0.031,0.035v0.042l-0.036,0.078l-0.021,0.005l-0.003,0.016l0.026,0.03l-0.002,0.035l-0.033,0.03l-0.075,0.005l-0.031,-0.03l-0.021,-0.07l-0.038,-0.03l-0.005,-0.033l0.009,-0.026l-0.007,-0.028l-0.082,-0.033l-0.038,0.017l-0.035,-0.009l-0.003,-0.017l0.012,-0.037l0.036,-0.023l0.064,0.01l0.043,0.038l0.061,0.014l0.042,-0.017Z M1117.368,316.074l0.017,-0.007l0.038,0.012l0.012,0.017l-0.014,0.005l-0.036,-0.01l-0.017,-0.017Z M1114.987,315.677l0.009,-0.061l0.021,-0.023l0.059,-0.049l0.023,0.005v0.031l0.03,0.023l0.075,0.005l0.069,0.063l0.003,0.092l-0.014,0.016l-0.04,-0.003l-0.033,-0.038l-0.009,-0.03l-0.054,-0.007l-0.047,0.005l-0.076,-0.012l-0.016,-0.017Z M1115.119,315.569l0.005,-0.051l0.036,-0.023l0.036,0.005l0.019,0.024l-0.005,0.056l-0.019,0.014l-0.052,-0.007l-0.021,-0.019Z M1115.939,315.961l-0.017,-0.068l0.007,-0.049l0.04,-0.044l0.024,-0.014l0.064,-0.101l0.061,-0.038l0.061,0.002l0.012,0.021l-0.021,0.049l-0.04,0.051l-0.012,0.08l0.019,0.026l0.012,-0.01l-0.009,-0.024l0.014,-0.044l0.045,-0.028l0.042,0.005l0.021,0.021l0.045,0.024l0.012,0.03l-0.003,0.038l-0.021,0.017l0.002,0.021l0.023,0.035l0.061,0.042l-0.003,0.017l-0.057,-0.005l-0.056,-0.023l-0.087,-0.019l-0.038,0.017l-0.109,0.003l-0.049,-0.01l-0.042,-0.023Z M1115.555,315.602l0.047,-0.042l0.057,-0.017l0.042,0.005l0.064,0.026l0.038,0.065l-0.003,0.054l-0.031,0.073l-0.049,0.037l-0.021,0.044l0.016,0.077l0.056,0.073l0.061,0.019l0.028,0.028l0.003,0.04l0.049,0.035l0.012,-0.009v-0.021l0.021,-0.016l0.028,-0.003l0.064,-0.054l0.12,-0.007l0.042,0.014l0.024,0.023l0.054,0.014l0.028,0.028l-0.005,0.051l-0.035,0.065l-0.002,0.033l0.017,0.045l-0.002,0.085l-0.033,0.04l-0.038,0.019v0.017l0.036,0.042l0.052,0.028l-0.009,0.012l-0.052,0.021l-0.021,0.002l-0.019,-0.016h-0.016l-0.019,0.007l-0.012,-0.009l0.01,-0.042l-0.012,-0.016l-0.024,0.002l-0.017,0.028l-0.021,0.002l-0.009,-0.014l-0.021,0.003l-0.019,0.017l-0.082,0.005l-0.038,-0.024l-0.05,-0.085l-0.012,-0.075l0.014,-0.052l0.023,-0.031l-0.014,-0.007l-0.063,0.002l-0.076,0.042l-0.007,0.04l0.024,0.073l-0.017,0.045l-0.063,0.024l-0.089,-0.012l-0.063,-0.042l-0.002,-0.045l-0.03,-0.014l-0.009,-0.035l0.017,-0.044l0.03,-0.017l-0.003,-0.017l-0.052,-0.047l-0.035,-0.096l-0.057,-0.082l-0.005,-0.061l-0.017,-0.024l0.003,-0.03l0.03,-0.031l0.052,-0.106l-0.01,-0.031l0.009,-0.01l0.023,0.012l0.045,-0.016l0.045,0.003l0.003,-0.01l-0.023,-0.023v-0.044l0.019,-0.042Z M1114.64,315.816l0.011,-0.01h0.037l0.007,0.015 l-0.011,0.008l-0.036,-0.006l-0.008,-0.008Z M1115.442,315.619l0.002,-0.031l0.014,-0.009l0.01,0.01l-0.003,0.031l-0.01,0.009l-0.012,-0.01Z M1115.96,315.396l0.033,0.042l0.054,0.016l0.003,0.016l-0.03,0.016l-0.061,-0.017l-0.026,-0.037l0.01,-0.031l0.016,-0.003Z M1116.348,315.705l0.017,0.003l0.017,0.038l-0.012,0.037l-0.016,0.003l-0.016,-0.019l-0.003,-0.051l0.012,-0.012Z M1118.09,315.046l0.04,0.003l0.017,0.017l0.005,0.028l-0.01,0.012l-0.028,-0.009l-0.033,-0.04l0.009,-0.012Z M1115.107,316.455l0.033,0.019l0.026,0.047l0.002,0.054l0.014,0.028l0.026,0.003l0.003,0.012l-0.024,0.005l-0.028,0.019l-0.021,0.037l-0.033,0.038l-0.064,0.037l-0.01,0.033l0.007,0.024l-0.002,0.023l-0.023,0.028l-0.002,0.021l0.03,0.024l0.052,0.016l0.016,0.033l0.047,0.037l0.043,0.003l0.038,0.007l0.038,0.021h0.036l0.031,-0.019l0.005,-0.023l-0.045,-0.059l0.003,-0.058l0.014,-0.026l0.007,-0.066l0.014,-0.045l-0.005,-0.016h-0.021l-0.014,-0.01l-0.003,-0.028l-0.031,-0.026l-0.023,-0.066l-0.03,-0.014l-0.016,-0.024l0.003,-0.017l0.023,-0.003l0.033,0.019h0.028l0.002,-0.012l-0.036,-0.059l-0.069,-0.038l-0.042,-0.002l-0.031,0.009l-0.002,0.016Z M1114.768,317.12l0.042,0.026h0.043l0.036,-0.04l0.017,-0.002l0.016,0.014h0.035l0.01,-0.019l-0.031,-0.019l-0.061,-0.009l-0.024,-0.023l-0.035,-0.01l-0.038,0.009l-0.038,0.03l-0.003,0.033l0.031,0.01Z M1114.016,317.455l-0.014,0.016l-0.009,0.023l0.014,0.009l0.019,-0.016l0.003,-0.03l-0.014,-0.002Z M1114.124,317.436l0.108,-0.014l0.017,-0.014l-0.035,-0.054l-0.03,-0.009l-0.014,0.007l-0.031,-0.002l-0.05,-0.021l-0.005,-0.017l0.026,-0.005l0.007,-0.014l-0.035,-0.028l0.003,-0.012l0.026,0.002l0.03,-0.019v-0.024l-0.038,-0.017l-0.054,0.002l-0.049,0.044l-0.009,0.042l0.005,0.026l0.038,0.012l0.019,0.016l-0.002,0.035l-0.023,0.026v0.033l0.024,0.031h0.03l0.04,-0.024Z M1114.051,317.52l0.019,0.049l-0.016,0.017l0.005,0.014h0.028l0.03,0.04l0.024,0.007l0.014,-0.009l0.014,0.002l0.014,0.03l-0.007,0.042l0.014,0.016l0.056,-0.009l0.04,-0.037h0.024l0.017,0.01h0.019l0.024,-0.066l-0.014,-0.042l-0.073,-0.038l-0.028,-0.037l-0.017,-0.005l-0.01,0.024l-0.036,0.005l-0.071,-0.017l-0.04,-0.038l-0.024,0.002l-0.005,0.04Z M1115.33,317.565l-0.01,0.056l-0.03,0.028l-0.003,0.042l0.014,0.044l0.03,0.014l0.023,-0.009l0.019,-0.042l0.005,-0.082l0.023,-0.023l-0.003,-0.01l-0.03,0.002l-0.01,-0.012l0.009,-0.019l-0.01,-0.009l-0.024,0.021Z M1115.336,317.488l0.014,0.002l0.007,-0.017l0.014,-0.005l0.028,0.01l0.026,-0.009v-0.019l-0.016,-0.017l-0.003,-0.017l0.024,-0.016l-0.005,-0.012l-0.045,0.007l-0.038,0.035l-0.014,0.031l0.009,0.028Z M1115.307,317.439l0.017,-0.016l-0.003,-0.03l-0.031,-0.031l-0.038,-0.009l0.002,-0.012l0.014,-0.016l-0.017,-0.049l-0.04,-0.045l-0.017,-0.049l-0.047,-0.019l-0.063,0.003l-0.064,0.052l-0.024,0.002l-0.023,-0.003l-0.012,0.01l0.016,0.023l0.061,0.03l0.033,0.002l0.01,0.012l-0.002,0.023l0.03,0.044l0.042,0.019l0.063,0.01l0.014,0.012l0.003,0.019l0.016,0.016l0.063,0.002Z M1115.078,316.563l0.035,-0.002l0.002,-0.019l-0.033,-0.021l-0.003,-0.03l-0.017,-0.007l-0.021,0.024v0.031l0.038,0.023Z M1115.001,317.101l0.023,0.009l0.031,-0.012l0.017,-0.026l-0.016,-0.01l-0.036,0.005l-0.016,0.017l-0.003,0.017Z M1115.114,317.07l0.009,-0.017l-0.019,-0.024l-0.002,-0.026l-0.016,-0.01l-0.017,0.017l-0.005,0.031l0.024,0.024l0.026,0.005Z M1115.09,317.14h0.03l0.007,-0.014l-0.033,-0.026l-0.016,0.002l-0.01,0.021l0.023,0.017Z M1114.263,316.836v0.019l0.03,0.036h0.021l0.005,-0.021l-0.026,-0.018l-0.008,-0.031l-0.014,0.003l-0.009,0.012Z M1114.317,316.934l0.019,0.023l0.033,0.002l0.024,0.026h0.036l0.036,-0.03l0.009,-0.026l-0.009,-0.017l-0.047,-0.005l-0.038,0.009l-0.038,-0.009l-0.023,0.005l-0.003,0.023Z M1114.376,316.88l0.036,-0.005l0.016,-0.009l-0.005,-0.014l-0.038,-0.005l-0.024,0.01v0.016l0.016,0.007Z M1114.452,316.854l0.035,0.009l0.009,-0.014l-0.035,-0.033l-0.031,-0.009l-0.014,0.014l0.036,0.033Z M1114.026,316.244l0.019,-0.003l0.01,-0.021l0.012,-0.012l0.043,-0.012l0.007,-0.023l-0.007,-0.023l-0.019,0.002l-0.017,0.024l-0.03,0.01l-0.021,0.032l-0.008,0.013l0.01,0.012Z M1113.976,316.597l0.043,0.033l0.023,0.002l0.014,-0.035l-0.012,-0.012l-0.024,0.003l-0.021,-0.021l-0.028,-0.007l-0.005,0.012l0.01,0.024Z M1113.217,318.526l0.034,0.031l0.068,0.003l0.029,-0.031l0.01,-0.094l-0.031,-0.021l-0.052,0.01l-0.044,0.06l-0.013,0.042Z M1113.67,318.261v0.052l0.021,0.005l0.063,-0.05l0.003,-0.029l-0.029,-0.01l-0.034,0.005l-0.023,0.026Z M1113.834,318.277h0.021l0.016,-0.021l-0.013,-0.037l-0.021,-0.008l-0.021,0.013v0.034l0.018,0.018Z M1113.329,317.869l0.036,0.005l0.026,-0.013l-0.005,-0.034l-0.029,-0.021l-0.044,-0.065l-0.018,0.003l-0.003,0.024l0.021,0.029l0.008,0.024l-0.013,0.021l0.021,0.029Z M1112.26,318.17l0.042,0.005l0.076,-0.026l0.039,-0.039l0.008,-0.031l-0.068,-0.039h-0.096l-0.034,0.034l-0.005,0.042l0.039,0.055Z M1112.505,317.597l0.016,0.089l0.026,0.018l0.039,-0.018l0.016,0.01v0.06l0.018,0.005l0.026,-0.063l0.005,-0.034l-0.026,-0.076l-0.07,-0.042l-0.063,-0.003l-0.01,0.026l0.023,0.026Z M1112.813,317.357l0.047,-0.003l0.016,-0.026l-0.008,-0.029l-0.073,-0.003l-0.036,0.021l0.003,0.026l0.052,0.013Z M1112.792,317.602l0.013,0.026l0.055,0.042l0.05,0.005l0.063,-0.016l0.141,0.01l0.06,-0.021l0.068,-0.136l0.005,-0.044l-0.039,-0.06l-0.036,-0.008l-0.031,0.013l-0.083,-0.005l-0.109,0.06h-0.073l-0.036,-0.029l-0.029,0.003l-0.057,0.076l0.003,0.06l0.039,0.024Z M1112.401,317.992l0.047,-0.003l0.039,0.024l0.008,0.029l0.021,0.008l0.031,-0.013h0.021l-0.003,0.031l-0.042,0.029l-0.005,0.029l0.023,0.003l0.052,-0.047l0.055,-0.016l0.005,-0.021l-0.036,-0.013l0.01,-0.018l0.055,0.005l0.039,0.018l0.026,-0.003l-0.073,-0.071l-0.039,-0.008l-0.065,0.018l-0.031,-0.008l-0.023,-0.071l-0.042,-0.024l-0.042,0.018l-0.018,0.031l-0.002,0.031l-0.016,0.007l-0.045,-0.009l0.003,0.016l0.046,0.026Z M1111.033,317.811h0.016l0.014,-0.01v-0.014l-0.023,-0.002l-0.014,0.014l0.007,0.012Z M1111.045,317.933l0.003,0.085l0.021,0.044l0.09,0.056l0.082,0.092l0.03,0.007l0.036,-0.009l0.038,0.005l0.038,0.021l0.017,-0.007l0.002,-0.028l0.017,-0.002l0.026,0.028l0.089,0.021l0.007,-0.01l-0.024,-0.044l0.014,-0.051l-0.016,-0.024l-0.047,-0.007l-0.036,-0.03l-0.043,-0.183l-0.076,-0.078l-0.113,-0.031l-0.097,0.017l-0.038,0.026l-0.019,0.101Z M1111.886,317.894l0.03,0.021l0.045,0.01l0.028,0.024l0.064,0.01l0.028,-0.01l0.017,-0.028l0.035,-0.007l0.031,0.007l0.021,-0.023l-0.01,-0.047l0.003,-0.035l0.019,-0.042l-0.007,-0.047l-0.019,-0.002l-0.033,0.051l-0.009,0.033l-0.014,0.01l-0.064,-0.024l-0.063,-0.007l-0.043,-0.012l-0.05,-0.031l-0.009,0.014l0.016,0.026l-0.007,0.04l-0.014,0.037l0.005,0.031Z M1111.507,317.861l0.052,-0.005l0.012,0.009l-0.042,0.031l-0.012,0.04l0.023,0.021l0.026,-0.005l0.05,-0.08l0.033,-0.019l0.066,-0.003l0.026,0.005l0.03,-0.003l0.028,-0.021l0.073,-0.007l0.007,-0.03l-0.017,-0.03l-0.063,-0.014l-0.049,-0.037v-0.014l0.031,-0.005l0.009,-0.019l-0.024,-0.047l-0.023,-0.007l-0.092,0.019l-0.087,0.035l-0.047,0.08l0.002,0.028l-0.005,0.016l-0.036,0.03l0.005,0.028l0.024,0.005Z M1111.49,318.05v0.017l0.069,0.019l0.028,0.031l0.033,-0.003l0.033,-0.023l0.076,-0.002l0.04,0.024l0.023,0.035l-0.003,0.024l0.012,0.012l0.08,-0.054l0.024,-0.005l0.024,0.017l0.019,-0.003l0.005,-0.028l-0.017,-0.031l0.016,-0.019h0.033l0.019,-0.014l-0.005,-0.03l-0.019,-0.003l-0.026,0.019l-0.012,-0.005l-0.016,-0.024l-0.045,-0.009l-0.043,0.01l-0.026,-0.005l-0.04,-0.033l-0.024,0.002l-0.028,0.035l0.002,0.026l-0.017,0.012h-0.045l-0.047,-0.023l-0.03,0.002l-0.019,0.019l-0.073,0.009Z M1112.656,317.888h0.031l0.031,-0.023l-0.005,-0.033l-0.023,-0.007l-0.035,0.024l-0.012,0.031l0.012,0.007Z M1110.906,318.459l0.047,0.005l0.036,-0.009l0.01,-0.019l-0.016,-0.021l-0.043,-0.009l-0.047,0.021l-0.007,0.019l0.019,0.012Z M1111.479,318.679l0.023,0.002l0.033,-0.037l0.007,-0.026l-0.019,-0.051l-0.031,-0.012l-0.023,0.016l-0.005,0.078l0.016,0.03Z M1111.844,318.785h0.024l0.009,-0.026h0.023l0.045,0.028l0.05,0.009l0.063,-0.01l0.035,-0.061l0.009,-0.063l-0.023,-0.01l-0.019,0.009l-0.014,-0.005l0.003,-0.066l-0.023,-0.037l-0.059,-0.014l-0.047,0.01l-0.066,0.092l-0.014,0.059l0.005,0.034l-0.014,0.03l0.012,0.023Z M1113.535,319.234l0.052,0.037l0.021,-0.005l-0.031,-0.065l-0.034,-0.029h-0.029l-0.005,0.026l0.026,0.037Z M1113.475,319.205l-0.021,-0.024l-0.031,0.005l-0.008,0.076l0.036,0.065l0.047,0.037l0.07,0.021l0.008,-0.018l-0.055,-0.034l-0.05,-0.06l0.003,-0.068Z M1109.805,319.611l0.036,0.039l0.026,0.044l0.029,0.003l0.016,-0.042l0.036,-0.016l0.003,-0.024l-0.031,-0.018l-0.068,0.013l-0.042,-0.016l-0.031,-0.031h-0.036v0.016l0.021,0.016l0.042,0.016Z M1110.605,318.91h0.07l0.089,-0.052l0.055,-0.058l0.06,-0.018l0.065,0.008l0.029,-0.005l-0.003,-0.021l-0.036,-0.005l-0.026,-0.026l-0.063,-0.005l-0.034,0.013l-0.042,-0.008l-0.06,-0.044l-0.055,-0.003l-0.086,0.081l-0.013,0.092l0.05,0.052Z M1111.043,318.894l0.042,0.018l0.021,0.042l0.029,0.008l0.026,-0.01l0.018,-0.071l0.026,-0.039v-0.026l-0.044,-0.024l-0.036,-0.06l0.008,-0.018l0.042,-0.003l0.036,-0.021v-0.021l-0.096,-0.055h-0.031l-0.026,0.047l-0.005,0.031l0.023,0.024v0.024l-0.029,0.037l-0.016,0.089l0.013,0.029Z M1112.057,319.53l0.026,0.01h0.044l0.021,-0.016l-0.005,-0.029l-0.044,-0.024l-0.034,0.005l-0.013,0.026l0.005,0.026Z M1110.814,318.706l0.047,0.005v-0.013l-0.018,-0.01l-0.005,-0.024l0.018,-0.016l0.036,0.021l0.042,0.005l0.021,-0.018l-0.029,-0.042l0.013,-0.018l0.044,0.003l0.013,-0.018l-0.039,-0.047l-0.042,-0.024l-0.076,-0.01l-0.06,-0.024l-0.023,0.005l-0.013,0.063v0.102l0.034,0.042l0.036,0.018Z M1110.871,318.973l0.003,0.034l0.021,0.021l0.031,0.003v-0.026l-0.031,-0.031h-0.023Z M1110.519,318.693l0.044,-0.021l0.034,-0.029l0.01,-0.026l-0.021,-0.013l-0.029,0.013l-0.052,0.071l0.013,0.005Z M1110.832,318.233l0.021,0.013l0.031,-0.005l0.01,-0.039l-0.018,-0.005l-0.031,0.013l-0.013,0.024Z M1109.766,317.926l0.049,-0.019l0.023,-0.024l-0.007,-0.033l-0.042,-0.017l-0.04,0.019l-0.009,0.045l0.026,0.03Z M1109.672,317.853l-0.016,-0.024l0.007,-0.017l0.031,-0.005l0.04,0.016l0.042,-0.017l0.063,-0.058l0.012,-0.047h0.016l0.024,0.026l0.005,0.044l0.021,0.014l0.016,-0.024l0.005,-0.033l0.089,-0.101l0.007,-0.044l-0.012,-0.026l0.007,-0.024l0.026,-0.017l-0.002,-0.017l-0.026,-0.019l0.003,-0.019l0.049,-0.014l0.012,-0.028l-0.017,-0.017l0.005,-0.012l0.021,-0.005l0.002,-0.017l-0.035,-0.052l-0.087,-0.077l-0.033,-0.056l-0.019,-0.003l-0.033,0.024l-0.038,-0.01l-0.036,-0.035l0.007,-0.038l-0.057,-0.054l-0.071,-0.031l-0.082,-0.017l-0.028,0.014l-0.012,0.03l0.007,0.044l0.05,0.068l0.003,0.028l-0.01,0.017l-0.036,0.003l-0.014,0.012l-0.035,-0.005l-0.031,0.014l-0.026,0.037l0.002,0.023l-0.01,0.014l-0.031,0.007l-0.014,0.021l0.003,0.023l0.033,0.026l0.017,0.047l-0.007,0.051l0.016,0.04l-0.023,-0.016l-0.01,-0.031l0.002,-0.051l-0.017,-0.028l-0.042,-0.012l-0.009,-0.021l0.002,-0.03h-0.016l-0.031,0.037l-0.028,0.085l-0.017,0.005l-0.052,-0.017l-0.031,0.016l-0.009,0.024l-0.019,0.014l-0.061,0.014l-0.028,0.028l-0.005,0.03l-0.033,0.024l-0.016,0.031l-0.003,0.028l-0.016,0.031l0.002,0.056l0.045,0.04l0.019,0.035l0.005,0.037l0.03,0.016l0.03,-0.005l0.019,-0.019l0.023,0.007l0.005,0.019l-0.033,0.073l0.016,0.012l0.03,-0.009l0.023,-0.014l0.024,0.009l0.023,0.033l0.031,0.012l0.054,-0.009l0.092,-0.03l0.012,-0.017l0.049,-0.017h0.038l0.024,-0.016l0.005,-0.016l0.019,-0.009l0.047,-0.005l0.01,-0.017Z M1105.367,319.096l0.021,0.066l0.042,0.017l0.052,0.052l0.038,0.007l0.017,-0.028l-0.063,-0.091l-0.021,-0.056l-0.049,-0.031l-0.028,0.01l-0.01,0.052Z M1105.715,316.704l0.014,-0.038l0.035,-0.021l0.038,-0.073v-0.049l-0.028,-0.003l-0.038,0.063l-0.042,0.031l-0.014,0.049l0.01,0.045l0.024,-0.003Z M1106.472,316.843h0.052l0.024,-0.056l0.042,-0.021l0.052,-0.087l-0.007,-0.056l-0.063,-0.035l-0.056,0.01l-0.069,0.091l-0.017,0.094l0.042,0.059Z M1108.764,318.231l0.038,0.026l0.057,0.014l0.036,0.016l0.069,0.01l0.019,-0.014l0.03,-0.002l0.024,0.01l0.014,-0.014l-0.023,-0.054l0.002,-0.04l-0.019,-0.016l-0.106,0.017l-0.043,-0.016l-0.052,0.003l-0.049,0.037l0.002,0.021Z M1108.72,318.107l0.052,0.005l0.026,-0.012h0.031l0.054,0.016l0.031,-0.01l-0.007,-0.031l-0.076,-0.03l-0.097,0.003l-0.04,0.009l-0.01,0.03l0.036,0.021Z M1108.807,318.472l0.005,0.019l0.049,0.014l0.056,-0.012l0.026,-0.037l0.009,-0.026l-0.019,-0.023l-0.03,0.003l-0.012,0.031l-0.052,0.01l-0.031,0.019Z M1108.835,317.483l0.009,0.028l-0.005,0.026l0.014,0.005l0.036,-0.04l0.043,-0.014l0.012,-0.021l-0.014,-0.044l-0.03,-0.023l-0.024,0.003l-0.031,0.038l-0.028,0.005l-0.007,0.017l0.024,0.017Z M1106.71,316.498l0.024,-0.007l0.003,-0.026l0.019,-0.014h0.03l0.003,-0.016l-0.04,-0.014l-0.03,-0.024l-0.019,0.005l0.005,0.033l-0.014,0.026l0.017,0.037Z M1107.993,316.915l0.055,0.018l-0.008,0.018h-0.023l-0.021,0.018l0.021,0.018l0.122,-0.008l0.039,-0.037v-0.058l-0.018,-0.037h-0.031l-0.057,0.039l-0.044,0.003l-0.039,-0.013l-0.013,0.01l0.018,0.026Z M1106.076,317.835l0.031,0.034l0.057,0.003l0.016,-0.021l-0.026,-0.026l-0.039,-0.005l-0.026,-0.029l-0.02,0.011l0.007,0.033Z M1108.623,318.325l0.026,0.028l0.04,0.012l0.011,-0.015l-0.034,-0.047l-0.026,-0.013l-0.023,0.013l0.006,0.022Z M1108.448,316.475l0.024,-0.021l0.003,-0.054l-0.017,-0.026l0.002,-0.023l0.061,-0.028l0.103,-0.003l0.066,-0.028l0.003,-0.03l-0.028,-0.019l-0.005,-0.017l0.033,-0.037l-0.002,-0.045l-0.026,-0.019l-0.064,0.009l-0.078,0.08l-0.08,0.031l-0.118,-0.003l-0.043,0.071l0.007,0.099l0.05,0.058l0.056,0.016l0.054,-0.01Z M1108.378,316.625l0.03,0.037l0.118,0.042l0.014,0.024l0.03,0.003l0.033,-0.019l0.026,-0.045l0.092,-0.059l0.003,-0.038l-0.016,-0.028l-0.061,-0.049h-0.031l-0.024,-0.016l-0.031,-0.052l-0.026,-0.003l-0.026,0.051l-0.042,0.026l-0.061,0.007l-0.023,0.021l-0.005,0.099Z M1108.607,316.885l0.016,-0.012l-0.021,-0.051l-0.03,-0.028l-0.042,0.002l-0.021,0.019l0.023,0.037l0.036,0.005l0.038,0.028Z M1108.719,316.904l0.002,-0.028l-0.009,-0.03l-0.03,0.002l-0.03,0.049l0.012,0.023l0.036,0.012l0.017,-0.028Z M1108.752,316.946l0.019,0.035l0.003,0.021l-0.017,0.014l-0.005,0.031l0.021,0.061l0.024,0.005l0.024,-0.028h0.03l0.026,0.009l0.026,-0.002l0.012,-0.026l-0.007,-0.084l-0.024,-0.023l-0.05,-0.007l-0.009,-0.028l0.009,-0.023v-0.04l-0.026,-0.033l-0.047,-0.003l-0.012,0.017l0.005,0.033l-0.002,0.07Z M1108.955,317.002l0.016,0.016l0.021,0.005l0.007,0.016l-0.038,0.061l-0.04,0.03l-0.056,-0.014l-0.038,0.003l-0.017,0.017l0.009,0.01l0.035,-0.003l0.047,0.009l0.009,0.019l-0.059,0.03l-0.033,-0.002l-0.021,0.012l0.003,0.019l0.057,0.014h0.04l0.103,-0.052l0.007,-0.024l0.012,-0.016l0.04,-0.007l0.003,-0.026l-0.012,-0.031l0.002,-0.019l0.047,-0.047l0.002,-0.019l-0.021,-0.009l-0.014,-0.019v-0.019l-0.014,-0.017l-0.035,-0.009l-0.031,-0.044l-0.054,-0.03l-0.045,0.007l-0.012,0.024l0.012,0.028l0.026,0.014l0.031,0.042l0.012,0.031Z M1109.179,316.911l0.033,-0.007l0.035,-0.035l0.023,-0.009l0.056,0.005l0.038,-0.009l0.014,-0.017l0.043,-0.009l0.016,-0.021l-0.012,-0.01l-0.028,0.005l-0.021,-0.019l-0.002,-0.021l-0.031,-0.04l-0.024,-0.005l-0.019,0.01l-0.012,-0.003l0.009,-0.033l-0.012,-0.024l-0.024,-0.002l-0.043,0.049l-0.094,0.052l0.002,0.014l0.038,0.009l0.012,0.023l-0.016,0.044l0.01,0.028l-0.007,0.019l0.017,0.007Z M1109.308,316.638l0.054,0.007l0.038,-0.01l0.014,-0.023l-0.019,-0.044l-0.021,-0.003l-0.023,0.031l-0.031,0.007l-0.019,0.014l0.007,0.021Z M1109.297,316.554l0.03,-0.007l0.028,-0.065l-0.003,-0.049l-0.031,-0.051l-0.003,-0.038l-0.035,-0.017l-0.045,0.009l-0.057,-0.024l-0.019,-0.031l-0.04,-0.007l-0.026,0.014l-0.033,-0.003l-0.017,-0.016l-0.026,0.002l-0.036,0.019l-0.009,0.023l0.017,0.026l-0.002,0.026l-0.024,0.031v0.03l0.028,0.049l-0.005,0.024l0.007,0.014l0.023,-0.019l0.012,-0.016l0.057,-0.002l0.017,0.016l0.03,-0.003l0.028,-0.028l0.033,-0.007l0.026,0.021l0.019,0.038v0.03l0.012,0.009l0.023,-0.009l0.024,0.012Z M1109.233,316.301l0.056,-0.017l0.007,-0.031l-0.009,-0.04l0.007,-0.009l0.028,0.023l0.014,0.002l0.003,-0.019l-0.03,-0.04l-0.033,-0.01l-0.012,-0.019l-0.009,-0.024l-0.023,0.002l-0.019,0.038l-0.096,0.03l-0.109,0.002l-0.002,0.014l0.054,0.028l0.04,0.005l0.028,-0.005l0.04,0.009l0.038,0.056l0.026,0.009Z M1108.748,316.421l0.014,0.03l0.023,0.003l0.016,-0.01l-0.007,-0.044l-0.03,-0.03l-0.017,0.005l0.002,0.045Z M1108.703,315.902l0.052,-0.005l0.049,0.012l0.043,0.04l0.017,-0.002l0.016,-0.028l0.09,-0.04l0.069,-0.068l0.003,-0.026l-0.024,-0.024v-0.017l0.017,-0.024l-0.002,-0.031l-0.043,-0.042l-0.009,-0.035l-0.023,-0.014l-0.03,0.007l-0.035,0.065l-0.036,0.021l-0.075,0.007l-0.059,0.033l-0.054,0.094l-0.045,0.026l-0.002,0.033l0.078,0.019Z M1109.86,316.303l0.019,-0.012l0.014,-0.07l-0.021,-0.017l-0.023,0.003l-0.023,0.035l-0.002,0.049l0.035,0.012Z M1109.876,316.167h0.017l0.017,-0.023l-0.002,-0.04l-0.017,-0.01l-0.026,0.023l-0.007,0.042l0.017,0.009Z M1109.93,316.043l0.009,0.028l0.042,0.009l0.03,-0.003l0.043,-0.059l-0.005,-0.098l-0.045,-0.026l-0.085,-0.007l-0.04,-0.021l-0.007,-0.035l0.04,-0.054l0.056,-0.016l0.002,-0.021l-0.031,-0.037l-0.054,-0.012l-0.012,0.012l-0.017,-0.003l-0.045,-0.042l-0.028,-0.002l-0.036,0.026l0.002,0.023l0.04,0.028l0.01,0.049l-0.005,0.023h-0.024l-0.026,-0.016l-0.012,0.016l-0.007,0.056l-0.033,0.024l-0.111,0.003l-0.038,0.03v0.024l0.021,0.012l0.033,-0.002l0.042,0.024l0.033,-0.002l0.023,-0.035l0.066,-0.01l0.127,0.009l0.057,0.023l0.014,0.031l-0.024,0.051Z M1108.884,316.099l0.047,0.016l0.03,0.042l0.021,0.009l0.005,-0.012l-0.017,-0.051l-0.052,-0.037h-0.033l-0.012,0.014l0.012,0.019Z M1109.035,316.142l0.031,0.014l0.038,-0.007l0.016,-0.028v-0.058l0.024,-0.04l0.031,-0.01l0.021,0.014l0.021,-0.012l0.019,-0.047l-0.014,-0.026l-0.031,-0.03l0.009,-0.014l0.052,-0.007l0.003,-0.019l-0.042,-0.04l-0.08,-0.012l-0.026,0.014l-0.009,0.035l0.021,0.044l-0.009,0.021l-0.031,0.002l-0.049,-0.03l-0.045,0.005l-0.056,0.042l-0.003,0.03l0.057,0.084l0.033,0.017l0.017,0.03v0.03Z M1109.29,314.964l-0.002,0.068l0.014,0.019l0.033,0.003l0.056,0.028l0.03,-0.003l0.05,0.021l0.045,-0.002l0.028,0.024l0.003,0.052l-0.014,0.038l0.01,0.033l0.054,0.016l0.042,-0.003l0.047,-0.047l0.005,-0.04l-0.026,-0.037l0.003,-0.028l-0.03,-0.044l-0.024,-0.01l-0.04,-0.049l-0.002,-0.08l-0.019,-0.014l-0.153,-0.033l-0.097,0.019l-0.028,0.033l0.014,0.035Z M1109.103,315.053l0.003,-0.024l0.033,-0.012l0.009,-0.063l-0.014,-0.021l-0.002,-0.071l0.03,-0.07l0.063,-0.035l0.047,-0.005l0.009,-0.017l-0.021,-0.016l-0.103,0.003l-0.043,0.019l-0.019,0.035l-0.13,0.106l-0.063,0.005l-0.019,0.023l-0.009,0.061l0.026,0.045l-0.012,0.024l-0.033,-0.002l-0.005,0.014l0.043,0.019l0.019,-0.007l0.016,-0.026l0.038,0.009l0.012,0.03l0.075,0.044h0.035l0.026,-0.031l-0.01,-0.037Z M1109.238,315.177l0.049,0.009l0.059,0.038l0.057,0.016l0.021,-0.009l0.003,-0.037l-0.014,-0.033l-0.097,-0.056l-0.096,-0.012l-0.04,0.021l-0.002,0.024l0.059,0.038Z M1109.07,315.309l-0.002,0.019l0.052,0.007l0.043,-0.009l0.026,0.017l0.009,0.066l-0.014,0.059l-0.031,0.052l0.01,0.012l0.047,-0.021l0.016,-0.038l0.031,-0.017l0.059,-0.005l0.028,-0.03l0.007,-0.077l-0.042,-0.037l-0.012,-0.044l-0.028,-0.024l-0.085,-0.019l-0.031,0.01l-0.026,0.038l-0.057,0.038Z M1109.967,316.609v0.021l0.026,0.021h0.021l0.021,-0.029l0.039,-0.029l-0.003,-0.026l-0.029,-0.005l-0.031,0.008l-0.044,0.039Z M1109.993,316.368h0.021l0.003,-0.026l0.039,-0.047l0.003,-0.031l-0.023,-0.021h-0.029l-0.021,0.052l-0.005,0.052l0.013,0.021Z M1109.581,315.688l0.042,-0.026l0.008,-0.05l-0.023,-0.024h-0.07l-0.029,0.047l0.005,0.039l0.068,0.013Z M1109.649,315.429l0.036,-0.029v-0.05l-0.031,-0.047l-0.031,0.003l-0.021,0.084l0.01,0.039h0.036Z M1109.667,315.518l0.036,0.005l0.05,0.065h0.034l0.005,-0.029l-0.039,-0.068l-0.047,-0.037l-0.057,0.005l-0.008,0.034l0.026,0.024Z M1108.758,313.881v0.029l0.021,0.029h0.029l0.026,-0.021l0.003,-0.031l-0.047,-0.044l-0.042,-0.005l-0.01,0.021l0.021,0.024Z M1109.203,314.185l0.029,0.016l0.021,-0.013l-0.005,-0.05l-0.023,-0.034l-0.031,0.005l-0.01,0.031l0.021,0.044Z M1109.585,312.951h0.052l0.151,-0.112l0.013,-0.05l-0.034,-0.024l-0.044,0.01l-0.136,0.097l-0.026,0.044l0.023,0.034Z M1110.283,311.957l0.023,0.01l0.089,-0.008l0.076,-0.078l0.013,-0.06l-0.026,-0.005l-0.034,0.05l-0.06,0.029l-0.06,-0.013l-0.023,0.024l0.003,0.052Z M1110.257,312.023l0.003,-0.021l-0.081,-0.034l0.005,-0.031l0.018,-0.013l-0.021,-0.034l-0.029,-0.003l-0.036,0.026l-0.005,0.055l0.036,0.034l0.076,0.031l0.034,-0.01Z M1110.095,309.611l0.099,0.008l0.128,0.037l0.026,-0.008l-0.016,-0.029h-0.036l-0.047,-0.024l-0.008,-0.042l-0.018,-0.018l-0.042,0.024l-0.039,0.003l-0.047,-0.018l-0.023,0.013l-0.005,0.039l0.029,0.016Z M1109.821,308.683l0.003,0.047l0.034,0.058l0.008,0.084l-0.018,0.068l0.021,0.068l0.005,0.118l0.021,0.05l-0.01,0.105l0.021,0.026l0.023,-0.008l0.029,0.008l0.016,0.076l0.042,0.021l0.036,-0.01l0.091,0.021l0.044,0.044l0.026,-0.008l-0.003,-0.039l0.031,-0.042l-0.016,-0.076l-0.031,-0.021l-0.018,-0.031l0.016,-0.044l-0.047,-0.157l-0.057,-0.052l-0.042,-0.078l0.01,-0.065l-0.018,-0.065l-0.034,-0.024l-0.003,-0.029l0.034,-0.047l-0.008,-0.068l-0.031,-0.037l-0.07,-0.005l-0.052,0.037l-0.016,0.052l-0.036,0.026Z M1109.149,308.249l-0.026,0.008l-0.005,0.029l0.023,0.026l0.042,0.003l0.016,-0.018l-0.021,-0.029l-0.029,-0.018Z M1108.839,308.322l0.068,-0.013l0.039,0.003l0.029,-0.013l0.008,-0.034l-0.003,-0.031l-0.021,0.003l-0.029,0.034l-0.063,0.005l-0.039,0.031l0.01,0.016Z M1110.913,306.165l0.01,0.042h0.021l0.021,-0.037l-0.005,-0.029l-0.026,-0.005l-0.021,0.029Z M1110.572,305.84l0.016,0.034l0.026,0.021l0.013,-0.018l-0.026,-0.063l-0.034,-0.024l-0.021,0.005l-0.003,0.018l0.029,0.026Z M1110.246,305.895l0.026,0.003l0.026,-0.016l0.026,0.003l0.013,0.029l0.026,-0.003l0.07,-0.092l0.031,-0.018l0.016,-0.024l-0.029,-0.078l-0.055,-0.029l-0.05,-0.003l-0.047,0.042l-0.05,0.016l-0.018,0.034l-0.003,0.107l0.016,0.029Z M1109.693,305.804l0.086,0.029l0.052,0.01l0.06,-0.01l0.026,-0.037l-0.016,-0.021l-0.06,0.01l-0.091,-0.031h-0.057l-0.016,0.018l0.016,0.031Z M1110.212,306.719l0.034,0.005l0.047,-0.021l0.008,-0.026l-0.018,-0.034l-0.068,-0.005l-0.021,0.018l-0.005,0.042l0.023,0.021Z M1108.998,305.738v0.055l-0.026,0.042l0.005,0.084l0.055,0.055l0.073,0.01l0.083,-0.037l0.029,-0.037l-0.005,-0.029l-0.083,-0.034l-0.07,-0.047l-0.036,-0.071l-0.023,0.008Z M1108.87,306.523l0.031,0.013l0.034,-0.018l0.021,-0.047l-0.005,-0.024l-0.029,-0.01l-0.047,0.016l-0.021,0.037l0.016,0.034Z M1108.601,306.808l0.042,0.01l0.008,-0.021l-0.034,-0.026l-0.016,-0.039l-0.018,-0.01l-0.023,0.018v0.031l0.042,0.037Z M1108.987,306.175l0.05,0.008l0.013,-0.018l-0.008,-0.034l-0.047,-0.034l-0.031,0.008l-0.005,0.042l0.029,0.029Z M1109.258,305.934l-0.021,0.018l0.018,0.034l0.044,0.021l0.003,0.024l0.026,0.003l0.01,-0.031l-0.047,-0.058l-0.034,-0.01Z M1108.453,306.591h0.023l0.021,-0.034l0.031,-0.003l0.008,-0.024l-0.047,-0.031l-0.026,0.008l-0.018,0.047l0.008,0.037Z M1109.56,306.157l-0.004,-0.018l0.017,-0.013l0.082,0.031l0.019,0.029l-0.017,0.014l-0.03,-0.007l-0.066,-0.037Z M1108.516,310.67l0.033,0.025l0.032,-0.005l0.006,-0.034l-0.029,-0.027l-0.03,-0.002l-0.022,0.016l0.011,0.027Z M1110.624,312.116l0.026,-0.013l-0.026,-0.044l-0.044,-0.013l-0.023,0.023l0.016,0.039l0.052,0.008Z M1109.417,315.619l0.027,0.012l0.017,-0.048l-0.018,-0.042l-0.033,-0.003l-0.02,0.037l0.027,0.045Z M1109.417,315.619l0.027,0.012l0.017,-0.048l-0.018,-0.042l-0.033,-0.003l-0.02,0.037l0.027,0.045Z M1108.924,316.663l0.036,-0.01l0.013,-0.042l-0.029,-0.003l-0.034,0.031l0.013,0.023Z M1108.944,305.657l-0.013,0.014l0.008,0.025l0.026,0.015l0.016,-0.009l-0.011,-0.03l-0.026,-0.015Z M1109.676,312.701l-0.008,0.017l0.017,0.021l0.03,0.005l0.012,-0.014l-0.021,-0.024l-0.03,-0.005Z M1109.55,315.527l0.005,0.018l0.026,0.005l0.026,-0.016v-0.018l-0.031,-0.005l-0.026,0.016Z M1114.734,316.889l-0.008,0.017l0.017,0.021l0.03,0.005l0.012,-0.014l-0.021,-0.024l-0.03,-0.005Z M1109.514,306.14l0.016,-0.014l-0.003,-0.019l-0.036,-0.007l-0.024,0.009l0.003,0.024l0.045,0.007Z M1109.635,309.899l-0.008,-0.019l-0.019,-0.003l-0.019,0.032v0.026l0.024,0.005 l0.022,-0.04Z M1110.316,312.298l0.02,0.007l0.015,-0.013l-0.012,-0.035l-0.02,-0.017l-0.019,0.015l0.017,0.043Z M1110.316,312.298l0.02,0.007l0.015,-0.013l-0.012,-0.035l-0.02,-0.017l-0.019,0.015l0.017,0.043Z M1109.384,315.765l-0.008,-0.019l-0.019,-0.003l-0.019,0.032v0.026l0.024,0.005 l0.022,-0.04Z M1113.954,317.116l0.01,-0.018l-0.01,-0.017l-0.037,0.006l-0.02,0.016l0.012,0.022l0.045,-0.009Z M1112.704,317.721l-0.008,-0.026l-0.014,0.008l-0.003,0.045h0.014l0.01,-0.027 Z M1109.413,314.734h-0.028l-0.021,0.021 l0.011,0.027h0.021l0.023,-0.034 l-0.006,-0.014Z M1108.721,306.344l-0.002,0.022l0.009,0.011l0.015,-0.009v-0.027l-0.012,-0.011 l-0.009,0.013Z M1108.9,316.36l0.009,0.02l0.013,0.005l0.009,-0.015l-0.014,-0.023l-0.016,-0.003v0.016h-0.001Z M1108.9,316.36l0.009,0.02l0.013,0.005l0.009,-0.015l-0.014,-0.023l-0.016,-0.003v0.016h-0.001Z M1108.847,317.798l0.02,0.01l0.014,-0.004l-0.003,-0.017l-0.025,-0.009l-0.014,0.008l0.009,0.013Z M1112.418,318.536l0.021,-0.005l0.008,-0.012l-0.013,-0.011l-0.025,0.009l-0.006,0.015l0.015,0.004Z M1118.844,316.059l-0.009,0.02l0.004,0.014l0.017,-0.003l0.009,-0.025l-0.008,-0.014l-0.013,0.009Z M1117.554,316.378l0.02,0.01l0.014,-0.004l-0.003,-0.017l-0.025,-0.009l-0.014,0.008l0.009,0.013Z M1108.48,318.803l0.01,0.033l0.022,0.026l0.007,-0.013l-0.012,-0.043l-0.018,-0.02l-0.009,0.017Z M1111.314,317.743l0.032,0.014h0.034l-0.006,-0.013 l-0.041,-0.019h-0.027l0.007,0.018 Z M1114.995,316.95l0.034,0.008l0.034,-0.006l-0.008,-0.012l-0.043,-0.011l-0.026,0.005l0.01,0.016Z M1114.995,316.95l0.034,0.008l0.034,-0.006l-0.008,-0.012l-0.043,-0.011l-0.026,0.005l0.01,0.016Z M1117.178,316.899h0.017l0.011,-0.013 l-0.005,-0.014l-0.014,-0.004l-0.011,0.011l0.002,0.021Z M1109.799,306.334l0.002,-0.014l-0.01,-0.013l-0.019,-0.006l-0.002,0.013l0.01,0.013l0.018,0.006Z M1109.361,309.956l0.007,0.012l0.016,0.004l0.018,-0.008l-0.007,-0.012l-0.016,-0.003l-0.018,0.007Z M1110.73,312.01l0.013,0.005l0.015,-0.007l0.009,-0.018l-0.013,-0.005l-0.015,0.008l-0.009,0.016Z M1109.247,318.339l-0.002,0.014l0.01,0.013l0.019,0.006l0.002,-0.013l-0.01,-0.013l-0.018,-0.006Z M1109.116,318.053l0.007,-0.012l-0.004,-0.016l-0.016,-0.012l-0.007,0.012l0.005,0.016l0.015,0.012Z M1109.408,317.086h0.014l0.011,-0.012l0.002,-0.02h-0.013l-0.011,0.013 l-0.003,0.019Z M1110.031,315.87l0.014,0.002l0.013,-0.01l0.006,-0.019l-0.013,-0.002l-0.013,0.01l-0.006,0.018Z M1110.031,315.87l0.014,0.002l0.013,-0.01l0.006,-0.019l-0.013,-0.002l-0.013,0.01l-0.006,0.018Z M1109.216,314.483l0.011,0.009l0.016,-0.002l0.014,-0.013l-0.01,-0.009l-0.016,0.002l-0.014,0.012Z M1109.216,314.483l0.011,0.009l0.016,-0.002l0.014,-0.013l-0.01,-0.009l-0.016,0.002l-0.014,0.012Z M1110.939,318.268h0.014l0.011,-0.012l0.002,-0.02h-0.013l-0.011,0.013 l-0.003,0.019Z M1114.591,316.992h0.014l0.011,-0.012l0.002,-0.02h-0.013l-0.011,0.013 l-0.003,0.019Z M1108.33,316.762l-0.007,-0.006l-0.028,0.002l-0.005,0.01l0.008,0.004l0.023,-0.003l0.01,-0.008Z M1117.621,316.377l0.009,-0.004l0.012,-0.026l-0.006,-0.009l-0.008,0.005l-0.009,0.021l0.002,0.013Z M1117.403,316.216l-0.006,0.024l0.014,0.005l0.017,-0.016l-0.008,-0.017l-0.018,0.004Z M1108.84,310.318h0.015l0.014,-0.019 l-0.008,-0.015l-0.019,0.002l-0.011,0.016l0.009,0.017Z M1108.506,310.194l0.015,-0.002l0.01,-0.022l-0.011,-0.014l-0.018,0.005l-0.008,0.018l0.012,0.015Z M1110.447,318.061l0.012,-0.009l-0.002,-0.025l-0.016,-0.006l-0.013,0.013l0.002,0.02l0.018,0.007Z M1109.954,309.846h-0.014l-0.01,0.006 l0.011,0.01l0.011,0.002l0.009,-0.006l-0.007,-0.012Z M1108.291,317.112l-0.008,0.011l-0.002,0.011l0.015,-0.002l0.008,-0.007v-0.011l-0.012,-0.002 Z M1114.12,316.682v0.014l0.014,0.008l0.012,-0.008l-0.007,-0.014h-0.019Z M1118.077,316.559l-0.003,0.019l0.011,0.006l0.014,-0.012l-0.007,-0.012h-0.015Z M1110.311,306.476l0.007,0.018h0.011l0.003,-0.019 l-0.012,-0.008l-0.008,0.01Z M1108.604,318.088l0.007,0.018h0.011l0.003,-0.019 l-0.012,-0.008l-0.008,0.01Z M1115.145,317.118l0.007,0.008l0.011,-0.003v-0.014l-0.015,-0.003 l-0.003,0.011Z M1108.873,318.374l0.014,0.006l0.008,-0.006l-0.003,-0.014h-0.014l-0.006,0.014Z M1113.92,316.52l0.014,0.006l0.008,-0.006l-0.003,-0.014h-0.014l-0.006,0.014Z M1115.178,317.067l0.014,0.006l0.008,-0.006l-0.003,-0.014h-0.014l-0.006,0.014Z M1118.429,315.059l-0.01,0.011l0.002,0.01l0.014,0.002l0.005,-0.013l-0.011,-0.01Z M1109.015,316.812l-0.013,-0.004l-0.007,0.011l0.012,0.014l0.012,-0.005l-0.004,-0.017Z M1109.694,310.097l-0.012,-0.002v0.014l0.009,0.011 h0.012l-0.009,-0.023 Z M1109.433,315.649l-0.011,-0.004l-0.003,0.014l0.008,0.012h0.012l-0.005,-0.022 Z M1114.077,316.616l0.002,0.012l0.014,-0.004l0.007,-0.013l-0.005,-0.011l-0.017,0.016Z M1115.025,317.005l-0.007,0.01l0.012,0.007l0.014,-0.004l0.004,-0.011h-0.023Z M1106.055,317.71l0.014,0.019h0.012l0,-0.031 l-0.018,-0.017l-0.013,0.004l0.005,0.025Z M1109.948,319.396l0.031,0.021l0.012,-0.003v-0.012l-0.042,-0.031 l-0.013,0.007l0.012,0.018Z M1110.555,316.695l0.035,0.009l0.003,-0.014l-0.035,-0.022h-0.023l-0.005,0.011 l0.026,0.016Z M1114.676,317.014l0.029,-0.021l-0.009,-0.012l-0.039,0.013l-0.016,0.018l0.006,0.011l0.029,-0.009Z M1108.148,318.572l0.025,0.022l0.011,-0.007l-0.013,-0.033l-0.021,-0.01l-0.015,0.006l0.013,0.022Z M1110.365,318.376l0.012,-0.009l-0.014,-0.01l-0.024,0.002l0.003,0.014l0.023,0.003Z M1116.278,316.586l0.012,-0.009l-0.014,-0.01l-0.024,0.002l0.003,0.014l0.023,0.003Z M1110.072,306.409l-0.027,0.016l0.003,0.024l0.032,0.018l0.018,-0.015l-0.005,-0.026l-0.021,-0.017Z M1110.072,306.409l-0.027,0.016l0.003,0.024l0.032,0.018l0.018,-0.015l-0.005,-0.026l-0.021,-0.017Z M1112.531,317.823l-0.007,0.022l0.015,0.017l0.033,-0.007l0.008,-0.024l-0.017,-0.012l-0.033,0.005Z M1109.184,314.954l-0.008,0.018l0.017,0.017l0.022,0.003l0.015,-0.018l-0.011,-0.021h-0.033Z M1113.518,317.619l-0.016,0.012l0.006,0.023l0.017,0.014l0.022,-0.008v-0.024l-0.029,-0.016 Z M1110.645,311.009l0.014,0.023l0.03,-0.002l0.003,-0.037l-0.023,-0.017l-0.027,0.01l0.003,0.024Z M1110.645,311.009l0.014,0.023l0.03,-0.002l0.003,-0.037l-0.023,-0.017l-0.027,0.01l0.003,0.024Z M1109.84,311.793l0.026,-0.005l-0.008,-0.018l-0.026,-0.003l-0.008,0.016l0.016,0.01Z M1109.636,315.56l0.007,0.01l0.012,-0.009l-0.003,-0.021l-0.014,0.002l-0.002,0.017Z M1112.712,317.56l0.009,0.009l0.01,-0.011l-0.007,-0.02l-0.013,0.004v0.017h0.001Z M1117,316.723l0.012,-0.003l-0.004,-0.014l-0.021,-0.004l-0.003,0.014l0.016,0.008Z M1109.524,309.247l0.011,0.016h0.021l-0.003,-0.014 l-0.011,-0.013l-0.015,-0.002l-0.003,0.013Z M1108.548,316.089l0.014,-0.014l-0.002,-0.021l-0.015,0.005l-0.011,0.013v0.016l0.014,0 Z M1108.847,314.87l0.018,0.009l0.019,-0.01l-0.01,-0.012l-0.016,-0.006l-0.014,0.006l0.004,0.012Z M1109.148,316.52l0.014,0.014l0.021,-0.002l-0.005,-0.015l-0.013,-0.011h-0.015l0,0.014 Z M1109.148,316.52l0.014,0.014l0.021,-0.002l-0.005,-0.015l-0.013,-0.011h-0.015l0,0.014 Z M1109.788,318.11l0.014,0.014l0.021,-0.002l-0.005,-0.015l-0.013,-0.011h-0.015l0,0.014 Z M1109.74,306.179l0.055,0.04l0.018,-0.004l-0.002,-0.023l-0.037,-0.032h-0.032l-0.003,0.018 Z M1110.979,311.804l-0.066,0.017l-0.008,0.017l0.018,0.013l0.048,-0.008l0.02,-0.025l-0.012,-0.013Z M1108.433,318.451l0.003,0.02l0.034,0.002l0.045,-0.026l-0.006,-0.016l-0.029,-0.007l-0.049,0.028Z M1108.837,310.141l-0.005,0.014l0.01,0.007h0.022l0.002,-0.015 l-0.016,-0.009l-0.013,0.003Z M1108.857,316.315l0.006,0.014h0.012l0.017,-0.015 l-0.008,-0.012l-0.018,0.003l-0.008,0.011Z M1113.865,317.464l-0.009,0.012l0.007,0.01l0.02,0.007l0.007,-0.013l-0.011,-0.014l-0.014,-0.002Z M1118.532,315.076l-0.009,0.012l0.007,0.01l0.02,0.007l0.007,-0.013l-0.011,-0.014l-0.014,-0.002Z M1110.044,317.75l0.007,0.013h0.017l0.007,-0.014 l-0.008,-0.012l-0.013,0.002l-0.009,0.012Z M1111.538,318.505l0.007,0.013h0.017l0.007,-0.014 l-0.008,-0.012l-0.013,0.002l-0.009,0.012Z M1109.659,306.278l0.014,0.016l0.011,-0.002v-0.025l-0.013,-0.014 l-0.009,0.008l-0.002,0.016Z M1109.659,306.278l0.014,0.016l0.011,-0.002v-0.025l-0.013,-0.014 l-0.009,0.008l-0.002,0.016Z M1108.609,306.642l0.021,0.003l0.007,-0.009l-0.016,-0.019l-0.019,-0.002l-0.002,0.012l0.009,0.014Z M1108.737,316.792l-0.013,0.016l0.004,0.01l0.024,-0.004l0.011,-0.016l-0.01,-0.008h-0.016Z M1108.282,314.779l0.02,-0.007l0.002,-0.011l-0.023,-0.009l-0.017,0.008l0.005,0.011l0.014,0.008Z M1106.6,316.356l0.021,0.003l0.007,-0.009l-0.016,-0.019l-0.019,-0.002l-0.002,0.012l0.009,0.014Z M1112.855,318.217l0.02,-0.007l0.002,-0.011l-0.023,-0.009l-0.017,0.008l0.005,0.011l0.014,0.008Z M1117.858,315.618l0.014,0.016l0.011,-0.002v-0.025l-0.013,-0.014 l-0.009,0.008l-0.002,0.016Z M1117.638,316.453v0.021l0.01,0.005 l0.016,-0.019l-0.002,-0.019h-0.012l-0.012,0.011 Z M1109.15,314.504l-0.007,0.024l0.009,0.007l0.016,-0.008l0.004,-0.02l-0.009,-0.007l-0.014,0.004Z M1109.15,314.504l-0.007,0.024l0.009,0.007l0.016,-0.008l0.004,-0.02l-0.009,-0.007l-0.014,0.004Z M1108.556,317.896l-0.002,0.025l0.01,0.005l0.015,-0.01v-0.021l-0.009,-0.005 l-0.013,0.007Z M1108.556,317.896l-0.002,0.025l0.01,0.005l0.015,-0.01v-0.021l-0.009,-0.005 l-0.013,0.007Z M1114.45,316.388l0.024,0.007l0.007,-0.009l-0.008,-0.016l-0.02,-0.004l-0.007,0.009l0.004,0.014Z M1118.114,316.88l0.011,-0.022l-0.007,-0.008l-0.017,0.005l-0.008,0.019l0.007,0.009l0.015,-0.002Z M1115.833,316.464l0.024,0.007l0.007,-0.009l-0.008,-0.016l-0.02,-0.004l-0.007,0.009l0.004,0.014Z M1108.46,308.101l0.011,-0.019l-0.008,-0.01l-0.016,0.002l-0.011,0.016l0.008,0.011h0.016Z M1109.115,316.903h0.022l0.004,-0.012 l-0.01,-0.013l-0.019,-0.002l-0.006,0.013l0.009,0.014Z M1113.527,316.479h0.022l0.004,-0.012 l-0.01,-0.013l-0.019,-0.002l-0.006,0.013l0.009,0.014Z M1118.206,316.642h0.022l0.004,-0.012 l-0.01,-0.013l-0.019,-0.002l-0.006,0.013l0.009,0.014Z M1109.046,312.608l0.014,-0.002l0.004,-0.016l-0.012,-0.011l-0.016,0.004v0.013l0.011,0.011 Z M1109.279,316.086l0.006,0.013l0.016,-0.002l0.006,-0.015l-0.01,-0.013l-0.013,0.004l-0.006,0.014Z M1110.792,318.892v0.014l0.014,0.006 l0.013,-0.01l-0.002,-0.016l-0.013,-0.003l-0.012,0.009Z M1113.108,318.533l0.006,0.013l0.016,-0.002l0.006,-0.015l-0.01,-0.013l-0.013,0.004l-0.006,0.014Z M1113.108,318.533l0.006,0.013l0.016,-0.002l0.006,-0.015l-0.01,-0.013l-0.013,0.004l-0.006,0.014Z M1113.688,318.722l0.01,0.01l0.014,-0.008v-0.016l-0.013,-0.009 l-0.011,0.008v0.016Z M1108.754,316.3l-0.013,0.017l0.016,0.031l0.029,0.003l0.007,-0.02l-0.012,-0.027l-0.027,-0.004Z M1108.706,306.601l0.003,-0.026l-0.007,-0.015l-0.01,0.012l-0.002,0.026l0.009,0.012l0.007,-0.009Z M1109.056,318.332l0.018,0.019l0.016,0.004l-0.003,-0.015l-0.018,-0.018h-0.015l0.002,0.011 Z M1109.056,318.332l0.018,0.019l0.016,0.004l-0.003,-0.015l-0.018,-0.018h-0.015l0.002,0.011 Z M1108.358,318.415l0.032,-0.025l0.006,-0.024h-0.026l-0.043,0.032 l-0.004,0.018l0.035,-0.002Z M1110.783,318.274l-0.057,0.005l-0.019,0.011v0.021l0.039,0.009 l0.037,-0.01l0.012,-0.022l-0.011,-0.014Z M1118.178,316.848l0.047,-0.033l0.011,-0.019l-0.011,-0.018l-0.038,0.012l-0.027,0.027v0.025l0.017,0.006 Z M1110.061,311.817l0.016,-0.016l-0.012,-0.016h-0.033l-0.021,0.014l0.002,0.019l0.049,-0.002Z M1110.059,308.612l0.01,0.026l0.015,0.003l0.007,-0.026l-0.012,-0.018h-0.018l-0.001,0.015 Z M1109.632,310.023l0.014,-0.024l-0.008,-0.013l-0.025,0.012l-0.006,0.021l0.01,0.015l0.014,-0.01Z M1109.057,314.323l0.026,-0.01l0.003,-0.015l-0.026,-0.007l-0.018,0.012v0.018l0.015,0.001 Z M1108.877,316.769v-0.028l-0.013,-0.008 l-0.015,0.022l0.006,0.021l0.016,0.007l0.007,-0.015Z M1106.636,316.412l0.021,0.018l0.015,-0.005l-0.007,-0.026l-0.02,-0.009l-0.016,0.008l0.007,0.015Z M1106.06,317.64l0.021,-0.018l-0.003,-0.015l-0.027,0.002l-0.013,0.018l0.005,0.017l0.016,-0.004Z M1110.458,318.295l0.014,-0.024l-0.008,-0.013l-0.025,0.012l-0.006,0.021l0.01,0.015l0.014,-0.01Z M1117.875,315.502l0.005,-0.028l-0.012,-0.01l-0.019,0.019v0.022l0.016,0.01 l0.01,-0.014Z M1117.711,317.232l0.018,-0.022l-0.005,-0.015l-0.026,0.007l-0.009,0.02l0.008,0.016l0.015,-0.007Z M1109.936,311.812h0.021l0.006,-0.012 l-0.028,-0.012l-0.026,0.003v0.017l0.028,0.006 Z M1110.233,317.57l0.012,0.017h0.012l-0.003,-0.031 l-0.016,-0.021l-0.014,0.01l0.008,0.026Z M1109.299,315.549l0.012,0.017h0.012l-0.003,-0.031 l-0.016,-0.021l-0.014,0.01l0.008,0.026Z M1109.299,315.549l0.012,0.017h0.012l-0.003,-0.031 l-0.016,-0.021l-0.014,0.01l0.008,0.026Z M1109.346,318.395l-0.006,0.02l0.008,0.009l0.021,-0.022l0.006,-0.026l-0.016,-0.004l-0.014,0.023Z M1109.346,318.395l-0.006,0.02l0.008,0.009l0.021,-0.022l0.006,-0.026l-0.016,-0.004l-0.014,0.023Z M1110.02,311.983l0.01,0.018h0.018l0.006,-0.024 l-0.016,-0.024l-0.018,0.004v0.026Z M1108.571,317.009l0.004,0.027l0.017,0.002l0.027,-0.048l-0.002,-0.021h-0.019l-0.027,0.039 Z M1113.404,318.323l0.022,-0.006l0.008,-0.01l-0.015,-0.007l-0.024,0.007l-0.004,0.011l0.012,0.004Z M1110.716,306.658l0.012,-0.006l0.004,-0.013l-0.008,-0.01l-0.015,0.007l-0.003,0.011l0.01,0.01Z M1110.7,312.096l0.006,-0.012l-0.005,-0.012l-0.013,-0.002l-0.007,0.015l0.005,0.01h0.014Z M1108.558,318.181l0.012,-0.006l0.004,-0.013l-0.008,-0.01l-0.015,0.007l-0.003,0.011l0.01,0.01Z M1108.368,316.186l0.003,0.013l0.012,0.006l0.011,-0.007l-0.004,-0.016l-0.01,-0.005l-0.011,0.008Z M1109.38,316.935l0.012,-0.006l0.004,-0.013l-0.008,-0.01l-0.015,0.007l-0.003,0.011l0.01,0.01Z M1108.463,317.922l0.012,-0.006l0.004,-0.013l-0.008,-0.01l-0.015,0.007l-0.003,0.011l0.01,0.01Z M1110.472,318.762l0.006,-0.012l-0.005,-0.012l-0.013,-0.002l-0.007,0.015l0.005,0.01h0.014Z M1112.69,318.646l-0.012,-0.006l-0.012,0.005l-0.002,0.013l0.015,0.007l0.01,-0.005v-0.014h0.001Z M1113.468,317.616l0.012,-0.006l0.004,-0.013l-0.008,-0.01l-0.015,0.007l-0.003,0.011l0.01,0.01Z M1114.901,317.016l0.012,0.006l0.012,-0.005l0.002,-0.013l-0.015,-0.007l-0.01,0.005v0.014h-0.001Z M1114.901,317.016l0.012,0.006l0.012,-0.005l0.002,-0.013l-0.015,-0.007l-0.01,0.005v0.014h-0.001Z M1113.962,316.224l-0.023,-0.002l-0.006,0.011l0.014,0.007l0.016,-0.004v-0.013Z M1109.862,315.299l0.009,0.021l0.009,-0.005l0.005,-0.014l-0.011,-0.02l-0.012,-0.005v0.023Z M1112.868,318.159l0.018,0.013l0.005,-0.009l-0.003,-0.014l-0.019,-0.012l-0.013,0.002l0.011,0.02Z M1111.852,317.715l0.018,0.013l0.005,-0.009l-0.003,-0.014l-0.019,-0.012l-0.013,0.002l0.011,0.02Z M1109.891,319.783v0.018l0.018,0.003l0.008,-0.018l-0.01,-0.01l-0.016,0.008Z M1110.591,311.016l0.007,-0.012l-0.012,-0.007l-0.012,0.005v0.014h0.017Z M1110.376,312.239h0.014l0,-0.014 l-0.011,-0.008l-0.012,0.007l0.009,0.015Z M1110.018,317.773l0.007,-0.012l-0.012,-0.007l-0.012,0.005v0.014h0.017Z M1113.953,317.065l0.007,-0.012l-0.012,-0.007l-0.012,0.005v0.014h0.017Z M1109.111,316.941l0.016,0.003l0.01,-0.012l-0.01,-0.012l-0.016,0.005v0.016Z M1109.693,319.508l0.014,-0.01l-0.005,-0.012l-0.019,0.005l-0.003,0.014l0.014,0.003Z M1109.499,315.957h0.01l0.007,-0.01 l-0.014,-0.007l-0.01,0.006l0.007,0.011Z M1109.098,317.436l0.004,-0.011l-0.01,-0.006l-0.01,0.008l0.003,0.011l0.012,-0.003Z M1109.427,315.29l0.004,-0.011l-0.01,-0.006l-0.01,0.008l0.003,0.011l0.012,-0.003Z M1108.424,315.077l0.004,-0.011l-0.01,-0.006l-0.01,0.008l0.003,0.011l0.012,-0.003Z M1108.68,306.262h0.012l0.007,-0.014l-0.008,-0.008l-0.014,-0.003l-0.004,0.013l0.007,0.013Z M1107.6,308.502l0.011,-0.006v-0.016l-0.012,-0.003 l-0.013,0.005l0.003,0.013l0.012,0.007Z M1108.746,317.818h0.012l0.007,-0.014l-0.008,-0.008l-0.014,-0.003l-0.004,0.013l0.007,0.013Z M1108.688,318.263h0.012l0.007,-0.014l-0.008,-0.008l-0.014,-0.003l-0.004,0.013l0.007,0.013Z M1108.501,318.195h0.012l0.007,-0.014l-0.008,-0.008l-0.014,-0.003l-0.004,0.013l0.007,0.013Z M1109.545,315.352h0.012l0.007,-0.014l-0.008,-0.008l-0.014,-0.003l-0.004,0.013l0.007,0.013Z M1116.248,316.638h0.012l0.007,-0.014l-0.008,-0.008l-0.014,-0.003l-0.004,0.013l0.007,0.013Z M1109.887,319.48v-0.013l-0.011,-0.003 l-0.011,0.008l0.008,0.01l0.014,-0.003Z M1113.352,318.371v-0.013l-0.011,-0.003 l-0.011,0.008l0.008,0.01l0.014,-0.003Z M1108.83,316.262l0.014,-0.011v-0.015l-0.019,-0.006 l-0.012,0.013v0.014l0.018,0.006 Z M1114.055,318.451l0.014,-0.011v-0.015l-0.019,-0.006 l-0.012,0.013v0.014l0.018,0.006 Z M1110.279,306.74l0.012,0.012l0.015,-0.004l0.005,-0.011l-0.01,-0.012l-0.015,0.002l-0.007,0.013Z M1110.279,306.74l0.012,0.012l0.015,-0.004l0.005,-0.011l-0.01,-0.012l-0.015,0.002l-0.007,0.013Z M1112.749,318.186h0.017l0.007,-0.015 l-0.006,-0.011h-0.015l-0.008,0.013l0.006,0.014Z M1118.7,316.225h0.017l0.007,-0.015 l-0.006,-0.011h-0.015l-0.008,0.013l0.006,0.014Z M1109.234,308.995v0.014l0.012,0.008l0.017,-0.008l-0.004,-0.018l-0.019,-0.006l-0.006,0.01Z M1109.248,317.109v0.014l0.012,0.008l0.017,-0.008l-0.004,-0.018l-0.019,-0.006l-0.006,0.01Z M1108.638,314.921l0.011,-0.01l-0.005,-0.013l-0.015,-0.006l-0.009,0.012l0.006,0.013l0.012,0.005Z M1117.886,315.012l0.014,-0.006v-0.014l-0.012,-0.011l-0.012,0.008v0.014l0.011,0.008 Z M1109.151,306.045v0.014l0.012,0.007l0.011,-0.01v-0.014l-0.006,-0.007 l-0.018,0.01Z M1107.53,308.434l-0.014,-0.002l-0.009,0.011l0.008,0.013l0.013,0.004l0.008,-0.006l-0.006,-0.019Z M1113.555,318.115v0.014l0.012,0.007 l0.011,-0.01v-0.014l-0.006,-0.007 l-0.018,0.01Z M1117.348,316.713l-0.013,0.005l-0.002,0.014l0.013,0.007l0.013,-0.003l0.004,-0.009l-0.015,-0.014Z M1107.095,308.544l-0.009,-0.013h-0.016l-0.002,0.014 l0.011,0.012h0.017l0,-0.013 Z M1110.001,309.527v-0.016l-0.016,-0.007 l-0.008,0.01l0.003,0.015l0.015,0.009l0.006,-0.011Z M1109.015,317.442l0.011,-0.011l-0.004,-0.015h-0.012l-0.01,0.013l0.003,0.017l0.012,-0.003Z M1108.737,317.892l-0.007,-0.014h-0.016l-0.004,0.01 l0.008,0.013l0.017,0.003l0.002,-0.013Z M1109.238,317.071l0.015,0.004l0.011,-0.011l-0.006,-0.011l-0.016,-0.002l-0.013,0.011l0.009,0.009Z M1109.238,317.071l0.015,0.004l0.011,-0.011l-0.006,-0.011l-0.016,-0.002l-0.013,0.011l0.009,0.009Z M1108.396,315.009l0.007,-0.014l-0.009,-0.013l-0.012,0.004l-0.005,0.015l0.008,0.015l0.011,-0.007Z M1108.999,318.424l0.015,0.004l0.011,-0.011l-0.006,-0.011l-0.016,-0.002l-0.013,0.011l0.009,0.009Z M1114.47,316.297l-0.013,-0.009l-0.014,0.007l0.002,0.012l0.014,0.007l0.016,-0.006l-0.005,-0.012Z M1108.611,316.101l-0.004,-0.022l-0.011,-0.009l-0.006,0.01l0.003,0.017l0.011,0.015l0.007,-0.011Z M1111.641,307.13l0.003,0.016l0.013,0.015l0.008,-0.009l-0.006,-0.021l-0.012,-0.01l-0.006,0.01Z M1110.244,318.474l-0.006,0.015l0.004,0.019l0.011,-0.004l0.006,-0.021l-0.006,-0.015l-0.01,0.006Z M1110.007,319.502l-0.014,-0.008h-0.02l0.002,0.012 l0.019,0.009l0.016,-0.003l-0.004,-0.011Z M1110.007,319.502l-0.014,-0.008h-0.02l0.002,0.012 l0.019,0.009l0.016,-0.003l-0.004,-0.011Z M1114.977,316.517l0.006,0.015l0.016,0.012l0.006,-0.01l-0.009,-0.02l-0.014,-0.008l-0.004,0.011Z M1117.28,316.887l-0.014,-0.008h-0.02l0.002,0.012 l0.019,0.009l0.016,-0.003l-0.004,-0.011Z M1118.126,316.51l0.008,0.014l0.018,0.009l0.004,-0.011l-0.012,-0.018l-0.015,-0.006l-0.002,0.011Z M1109.992,315.727l0.016,0.01l0.016,-0.007v-0.013l-0.022,-0.01 l-0.016,0.003l0.007,0.017Z M1109.992,315.727l0.016,0.01l0.016,-0.007v-0.013l-0.022,-0.01 l-0.016,0.003l0.007,0.017Z M1117.826,316.03l-0.014,-0.013l-0.017,0.004v0.013l0.018,0.014 h0.017l-0.004,-0.018 Z M1110.041,307.223l-0.01,0.015l0.03,0.027h0.021l0.003,-0.023 l-0.018,-0.016l-0.026,-0.003Z M1109.883,307.278l-0.012,0.013l0.024,0.032l0.02,0.004l0.007,-0.022l-0.015,-0.019l-0.025,-0.008Z M1110.243,310.798l-0.015,0.011l0.019,0.036l0.019,0.008l0.011,-0.021l-0.012,-0.022l-0.023,-0.012Z M1109.052,316.563l0.015,0.01l0.027,-0.03v-0.021l-0.023,-0.003 l-0.016,0.018l-0.003,0.026Z M1106.728,318.56l-0.01,0.015l0.03,0.027h0.021l0.003,-0.023 l-0.018,-0.016l-0.026,-0.003Z M1110.455,318.696l0.018,0.004l0.015,-0.037l-0.007,-0.02l-0.023,0.005l-0.009,0.023l0.005,0.025Z M1108.595,306.051l-0.049,0.02l-0.009,0.034l0.038,0.007l0.057,-0.025l0.002,-0.032l-0.038,-0.003Z M1108.966,310.212l0.03,-0.034l-0.021,-0.019l-0.038,0.009l-0.03,0.03l0.01,0.028l0.048,-0.013Z M1109.49,315.455l-0.022,-0.04l-0.025,0.013l-0.004,0.039l0.018,0.038h0.03l0.004,-0.049 Z M1108.744,314.963l0.034,0.03l0.019,-0.021l-0.009,-0.038l-0.029,-0.03l-0.028,0.01l0.013,0.048Z M1111.696,307.111l0.017,0.033l0.016,0.004v-0.036l-0.019,-0.029 h-0.016l0.002,0.028 Z M1112.993,318.608l0.035,-0.011l0.007,-0.015l-0.035,-0.006l-0.032,0.014l-0.002,0.016l0.027,0.002Z M1108.742,310.232l0.017,0.022l0.02,0.003l0.007,-0.015l-0.02,-0.02l-0.017,-0.005l-0.007,0.015Z M1109.082,312.689l0.027,0.006l0.017,-0.01l-0.005,-0.016l-0.028,-0.002l-0.016,0.007l0.005,0.016Z M1108.748,317.973l0.004,0.027l0.016,0.013l0.013,-0.01l-0.007,-0.027l-0.012,-0.013l-0.013,0.01Z M1111.901,317.716l0.017,0.022l0.02,0.003l0.007,-0.015l-0.02,-0.02l-0.017,-0.005l-0.007,0.015Z M1114.2,316.31l0.017,0.022l0.02,0.003l0.007,-0.015l-0.02,-0.02l-0.017,-0.005l-0.007,0.015Z M1114.796,316.97l-0.015,0.023l0.004,0.02h0.016l0.012,-0.024 v-0.017l-0.017,-0.001 Z M1114.03,317.089l0.004,0.027l0.016,0.013l0.013,-0.01l-0.007,-0.027l-0.012,-0.013l-0.013,0.01Z M1118.467,314.926h0.027l0.015,-0.012 l-0.007,-0.015l-0.028,0.002l-0.014,0.01l0.007,0.015Z M1116.753,317.102l-0.015,0.023l0.004,0.02h0.016l0.012,-0.024 v-0.017l-0.017,-0.001 Z M1106.378,316.696l0.031,-0.02l0.008,-0.028l-0.027,-0.008l-0.031,0.016l-0.008,0.024l0.027,0.016Z M1110.838,311.919l0.031,-0.018l0.018,-0.047l-0.021,-0.013l-0.031,0.013l-0.01,0.045l0.013,0.021Z M1109.451,316.883l0.022,0.003l0.025,-0.012l-0.004,-0.011l-0.028,-0.005l-0.025,0.012l0.01,0.013Z M1112.468,318.426l-0.005,-0.022l-0.02,-0.019l-0.009,0.008l0.005,0.027l0.02,0.019l0.009,-0.013Z M1114.023,316.534l0.014,-0.018l0.002,-0.028l-0.012,-0.002l-0.018,0.022l-0.002,0.028l0.016,-0.002Z M1106.739,316.785l0.01,-0.031l-0.008,-0.016l-0.033,0.01l-0.012,0.031l0.006,0.026l0.024,0.002l0.014,-0.022Z M1112.769,316.937l-0.05,0.011l-0.012,0.034l0.03,0.033l0.027,-0.007l0.02,-0.047l-0.014,-0.023Z M1109.957,309.667l-0.024,0.017l-0.021,0.061l0.017,0.028l0.041,0.004l0.026,-0.026l-0.017,-0.069l-0.022,-0.015Z M1112.267,317.605l0.019,-0.018v-0.032l-0.015,-0.019 l-0.014,0.003l-0.007,0.025l0.005,0.03l0.012,0.01Z M1109.893,309.496l0.026,-0.019l0.018,-0.022l-0.011,-0.016l-0.022,0.002l-0.029,0.034v0.02l0.017,0 Z M1108.353,314.774l0.011,0.007l0.011,-0.003l0.005,-0.01l-0.006,-0.012l-0.011,-0.004l-0.014,0.008l0.004,0.014Z M1108.353,314.774l0.011,0.007l0.011,-0.003l0.005,-0.01l-0.006,-0.012l-0.011,-0.004l-0.014,0.008l0.004,0.014Z M1116.222,315.665l0.012,-0.004l0.005,-0.01l-0.004,-0.01l-0.014,-0.003l-0.01,0.006l-0.003,0.016l0.014,0.006Z M1108.477,315.104l0.014,-0.004l0.005,-0.008l-0.003,-0.016l-0.015,-0.004l-0.01,0.011v0.014l0.009,0.007Z M1109.766,316.237l0.009,0.011l0.01,0.002l0.014,-0.008v-0.015l-0.015,-0.006 l-0.013,0.005l-0.004,0.011Z M1109.766,316.237l0.009,0.011l0.01,0.002l0.014,-0.008v-0.015l-0.015,-0.006 l-0.013,0.005l-0.004,0.011Z M1108.503,318.017l0.012,0.008h0.01l0.01,-0.014 l-0.006,-0.014h-0.015l-0.01,0.008 v0.012Z M1108.503,318.017l0.012,0.008h0.01l0.01,-0.014 l-0.006,-0.014h-0.015l-0.01,0.008 v0.012Z M1111.406,317.807l0.008,0.011l0.016,0.007l0.015,-0.01l-0.006,-0.019l-0.019,-0.006l-0.011,0.006l-0.002,0.01Z M1114.348,318.372h0.014l0.016,-0.006 l0.002,-0.018l-0.019,-0.007l-0.017,0.01l-0.002,0.013l0.006,0.008Z M1109.535,308.613l-0.009,-0.026l-0.013,-0.006l-0.01,0.006l0.002,0.033l0.015,0.015h0.012l0.003,-0.021 Z M1108.256,316.952l0.021,0.019l0.014,-0.002l0.005,-0.01l-0.018,-0.028l-0.02,-0.005l-0.011,0.006l0.008,0.02Z M1108.256,316.952l0.021,0.019l0.014,-0.002l0.005,-0.01l-0.018,-0.028l-0.02,-0.005l-0.011,0.006l0.008,0.02Z M1110.271,309.541l0.013,0.015h0.015l0.011,-0.012 l-0.002,-0.014l-0.017,-0.013l-0.015,0.004l-0.004,0.019Z M1117.53,316.429l0.01,0.017l0.014,0.004l0.013,-0.011v-0.014l-0.014,-0.016 l-0.016,0.002l-0.008,0.018Z M1118.005,316.449l0.012,0.005h0.019l0.015,-0.007v-0.009l-0.019,-0.008h-0.02l-0.013,0.01 l0.006,0.01Z  M1111.201,303.262l0.004,-0.042l-0.031,-0.156l0.017,-0.087l-0.007,-0.049l-0.038,-0.031l-0.004,-0.097l0.046,-0.031h0.118l0.358,-0.195l0.163,-0.202l0.059,-0.184l0.101,-0.087l0.205,-0.1l0.024,-0.039l-0.007,-0.055l0.038,-0.129l0.042,-0.09l0.087,-0.049l0.122,-0.149l0.184,-0.111l0.149,-0.136l0.049,-0.007l0.048,0.028l0.073,-0.007l0.164,-0.076l0.166,-0.007l0.126,0.041h0.069l0.122,-0.045l0.055,0.004l0.084,-0.025l0.083,0.004l0.125,0.055l0.094,0.011l0.111,0.066l0.066,-0.004l0.202,-0.121l0.104,-0.014l0.58,-0.014l0.08,-0.024l0.049,0.017l0.028,0.063l0.066,0.048l0.08,0.007l0.111,-0.021l0.062,-0.048l0.063,-0.004l0.167,0.035l0.142,0.003l0.198,0.039l0.122,-0.007l0.135,-0.08l0.091,-0.018l0.222,-0.149l0.087,-0.045l0.149,-0.184l0.098,-0.077l0.073,-0.149l-0.004,-0.091l0.028,-0.149l0.007,-0.181l-0.014,-0.059l0.017,-0.042l0.164,-0.09l0.024,0.018l0.01,0.062l0.153,0.154l0.014,0.035l-0.003,0.076l0.048,0.168l0.157,0.198l0.003,0.042l-0.017,0.053l0.014,0.069l0.153,0.175l0.017,0.041l0.011,0.091l0.059,0.105l0.062,0.055l0.018,0.035l0.013,0.115l0.025,0.063l0.132,0.175l0.01,0.038l-0.003,0.042l0.041,0.094l0.007,0.097l0.042,0.098l0.083,0.115l0.073,0.063l0.039,0.056l0.021,0.069l0.072,0.091l0.08,0.066l0.042,0.011l0.017,0.017l-0.01,0.039l0.111,0.191l0.122,0.164l0.097,0.087l0.035,0.06l0.01,0.066l0.139,0.157l0.028,0.07l0.243,0.237l0.153,0.139l0.122,0.153l0.118,0.116l0.014,0.052l-0.035,0.097l0.024,0.074l0.133,0.125l0.086,0.056l0.021,0.077l-0.017,0.052v0.045l0.028,0.025l0.031,0.136l-0.021,0.045l0.017,0.024l0.042,-0.007l0.125,0.095l0.056,0.083l0.024,0.105l0.056,0.087l0.121,0.073l0.032,0.053l0.007,0.066l0.041,0.084l0.011,0.059l0.041,0.049l0.08,0.048l0.091,0.098l0.01,0.059l0.073,0.098l0.007,0.059l-0.038,0.164l0.007,0.08l0.125,0.175l0.003,0.087l0.018,0.049l0.101,0.104l0.066,0.041v0.024l-0.037,0.039l-0.013,0.081l-0.013,0.026l0.003,0.06l0.023,0.034l-0.003,0.06l-0.023,0.04v0.039l0.031,0.073l0.011,0.084l-0.011,0.104l0.011,0.068l-0.013,0.034l0.028,0.131l0.084,0.128l0.062,0.175l0.039,0.061l0.006,0.041l-0.024,0.055l-0.002,0.026l0.018,0.042l-0.013,0.16l-0.024,0.065l-0.049,0.018l-0.06,0.058l-0.055,0.12l-0.018,0.074v0.088l-0.013,0.037l0.015,0.065l0.073,0.066l0.016,0.063v0.102l0.039,0.052l-0.005,0.042l-0.034,0.07l-0.008,0.05l-0.002,0.193l-0.032,0.084l-0.073,0.089l-0.086,0.183l-0.015,0.081l-0.003,0.191l-0.013,0.047l0.003,0.073l0.023,0.034l-0.002,0.097l-0.034,0.055l0.013,0.052l0.049,0.037l0.031,0.05l0.011,0.089l-0.008,0.049l0.026,0.06l0.068,0.047l0.049,0.011l0.006,0.042l-0.066,0.052l-0.013,0.063l-0.062,0.036l-0.055,0.013l-0.031,0.048l-0.003,0.075l0.032,0.016l0.039,-0.023l0.06,-0.003l0.044,0.026l-0.029,0.016h-0.036l-0.045,0.044l0.008,0.024l0.029,-0.003l0.031,-0.018l0.018,0.013l-0.005,0.037l0.052,0.034l0.071,-0.003l0.049,-0.068l0.052,-0.029l0.039,-0.005l0.04,-0.037l0.02,-0.055l0.071,-0.07l0.057,-0.079l0.013,-0.034h0.042l0.047,0.037l0.06,0.115l-0.003,0.037l-0.018,0.028l-0.003,0.032l0.018,0.042l-0.054,0.107l-0.039,0.029l-0.011,0.088l-0.031,0.063l-0.076,0.079l-0.007,0.049l0.026,0.061l-0.003,0.078l-0.021,0.029l0.005,0.023l0.021,0.008l0.005,0.031l-0.073,0.173l-0.01,0.05l-0.047,0.104l0.003,0.061l-0.013,0.096l-0.024,0.021l-0.005,0.029l0.008,0.026l-0.008,0.037l-0.034,0.065l-0.013,0.105l-0.023,0.028l-0.006,0.034l-0.02,0.021l-0.032,0.027l-0.028,0.062l-0.008,0.058l0.031,0.06l0.037,0.029l-0.006,0.065l-0.018,0.045v0.193l-0.029,0.078l-0.039,0.027l-0.002,0.039l0.021,0.026l-0.013,0.034l-0.068,0.026l-0.026,0.021l-0.021,-0.016l-0.003,-0.075l-0.054,-0.11l-0.11,-0.107l-0.049,-0.016l0.013,0.026l0.034,0.013l0.062,0.073l0.039,0.118l-0.013,0.065l-0.052,0.089l-0.047,-0.005l-0.049,-0.047v0.026l0.02,0.05l0.063,0.031l0.003,0.045l-0.021,0.052v0.055l-0.018,0.042l-0.034,0.026v0.044l0.028,0.039l0.011,0.042l-0.013,0.029l-0.078,0.005l-0.053,0.037l-0.057,0.091l-0.023,0.006l-0.042,-0.021l-0.042,0.008l-0.047,0.049l-0.044,0.162l-0.042,0.027l-0.005,0.023l0.039,0.021l0.008,0.05l-0.039,0.076l-0.05,0.028l-0.007,0.021l0.007,0.05l-0.013,0.055l-0.049,0.021l-0.034,0.036l-0.016,0.045l-0.041,0.029l-0.073,-0.003l-0.039,0.016h-0.047l-0.034,0.018l-0.039,0.052l0.013,0.058l-0.003,0.068l-0.023,0.021h-0.034l-0.029,0.023l-0.029,-0.005l-0.052,-0.037l-0.036,-0.002l-0.011,-0.032l0.013,-0.034l-0.023,-0.01l-0.044,0.023l-0.039,0.055l-0.045,0.029l-0.023,0.042l-0.016,0.115l-0.028,0.003l-0.021,-0.097l-0.034,-0.011l-0.016,0.019l0.005,0.083l0.024,0.047l-0.029,0.008l-0.023,-0.028l-0.032,0.002l-0.015,0.034h-0.037l-0.041,-0.065l-0.006,-0.12l0.053,-0.21l0.007,-0.117l-0.01,-0.029l0.013,-0.037l0.109,-0.11l0.013,-0.049v-0.039l0.029,-0.076l-0.003,-0.055l-0.015,0.026l-0.013,0.042l-0.031,0.06l-0.06,0.023h-0.144l-0.054,0.037l-0.055,0.068l-0.016,0.052l-0.015,0.251l-0.024,0.066l-0.026,0.123l-0.026,0.013l-0.13,-0.005l-0.047,0.018h-0.159l-0.008,-0.042l0.023,-0.029l-0.007,-0.049h-0.026l-0.042,0.02v0.024h0.026l0.005,0.029l-0.023,0.097h-0.024l-0.021,-0.048l-0.148,-0.065l-0.021,-0.037l-0.029,-0.007l-0.034,0.015l-0.02,-0.013l0.015,-0.063l-0.018,-0.107l-0.039,-0.008l-0.026,0.021l-0.003,0.068l-0.018,0.011l-0.026,-0.032l-0.042,-0.015l-0.021,-0.055l-0.034,-0.011l-0.028,0.013l-0.013,0.047l-0.026,-0.007l-0.107,-0.183l-0.003,-0.053l0.039,-0.06l-0.018,-0.013l-0.055,0.029l-0.028,0.06l0.023,0.091l0.073,0.1l-0.008,0.026l-0.036,0.01l-0.029,-0.007l-0.018,0.015l0.034,0.021l0.044,-0.008l0.021,0.021l0.023,0.089l0.066,0.055l-0.003,0.021l-0.044,0.013l0.002,0.021l0.081,0.003l0.01,0.026l-0.044,0.031l-0.099,0.032l-0.068,0.005l0.006,-0.024l0.057,-0.028l-0.011,-0.019h-0.067l-0.026,-0.021l0.007,-0.031l0.04,-0.021l-0.011,-0.018l-0.081,-0.016l-0.041,-0.026l-0.019,-0.052l-0.018,0.007l-0.031,0.045l-0.055,0.016l-0.143,-0.008l-0.05,-0.013l-0.021,0.01l0.013,0.029l0.05,0.031l-0.005,0.032l-0.042,0.026l-0.042,0.002l-0.041,0.029l-0.006,0.021l-0.039,0.013l-0.08,0.003l-0.086,0.055l-0.006,0.039l-0.023,0.036l0.023,0.019l0.037,-0.024l0.01,-0.057l0.097,-0.034h0.112l0.008,-0.026l-0.011,-0.029l0.029,-0.021l0.086,-0.008l0.015,0.021l-0.007,0.052l-0.039,0.013l0.01,0.024l0.055,0.002l0.013,0.021l-0.005,0.027l0.015,0.023l0.034,0.016l-0.003,0.023l-0.075,0.081l-0.084,0.019l-0.096,-0.016l-0.078,0.01l-0.013,0.027l0.036,0.002l0.05,-0.01l0.047,0.021l-0.003,0.052l-0.034,0.052l-0.005,0.06l0.016,0.047l-0.011,0.053l-0.031,0.036v0.092l0.008,0.05l0.018,-0.003l0.065,-0.115l-0.01,-0.031l0.015,-0.021l0.032,0.023l0.041,0.084l-0.018,0.099l-0.073,0.092l-0.096,0.008l-0.05,0.021h-0.057l-0.06,-0.037l-0.003,-0.031l0.063,-0.048h0.083v-0.02l-0.075,-0.014l-0.032,-0.041h-0.031l-0.028,0.034l-0.04,-0.008l-0.02,-0.019l-0.037,-0.002l-0.047,0.008l-0.073,-0.045l-0.023,-0.052l0.021,-0.031l0.086,-0.014l0.065,0.029l0.021,-0.026l-0.045,-0.097l-0.054,-0.075l-0.032,0.005l-0.049,0.07l-0.008,0.034l0.003,0.037l-0.079,0.06l-0.031,-0.005l-0.047,-0.071l0.008,-0.034l-0.016,-0.028l-0.106,-0.014l-0.1,0.014l-0.007,0.031l0.005,0.128l-0.016,0.018h-0.028l-0.021,-0.028l-0.123,0.002l-0.049,0.042l-0.034,-0.003l-0.037,-0.052l-0.036,-0.021l-0.031,-0.047l-0.081,-0.023h-0.084l-0.06,-0.04l-0.028,-0.062l0.005,-0.042l0.044,-0.042v-0.042l-0.034,-0.044l0.008,-0.066l0.026,-0.036l-0.005,-0.032l-0.026,-0.076l0.013,-0.075l0.057,-0.058l-0.023,-0.003l-0.06,0.037l-0.029,0.068l-0.002,0.076l-0.032,0.016l-0.023,-0.016l0.013,-0.021l-0.062,-0.013l-0.042,0.002l-0.018,0.024l0.046,0.013l0.05,0.05l0.047,0.073l-0.034,0.058l-0.058,0.013l-0.011,0.022h-0.033l-0.038,-0.045l-0.028,-0.004l-0.027,0.016l-0.024,0.026h-0.044l-0.024,-0.042l0.024,-0.026l0.002,-0.028l-0.039,-0.021l-0.031,0.01l-0.081,0.186l-0.044,0.026l-0.06,0.026l-0.159,0.003l-0.057,0.018l-0.068,0.005l-0.065,-0.034l-0.042,-0.102l-0.021,0.003l-0.021,0.044l-0.083,0.037l-0.083,0.071l-0.079,0.104l-0.153,0.107h-0.029l-0.122,-0.141l-0.04,-0.013l-0.018,0.018l0.073,0.092l-0.002,0.029l-0.047,0.055v0.036l0.054,0.047l0.076,-0.044l0.031,0.01l0.091,0.092h0.042l0.063,-0.063l0.047,-0.013l0.091,0.003l0.034,0.018l0.075,-0.024l0.045,0.006l0.02,0.039l-0.033,0.193l-0.029,0.032l-0.044,0.075l0.007,0.037l0.024,0.045l-0.016,0.057l-0.023,0.029l-0.047,0.008l-0.042,0.028l-0.062,0.019l-0.04,-0.008l-0.07,-0.076l-0.044,-0.023l-0.029,0.01l-0.065,0.115l0.013,0.031l-0.018,0.011l-0.029,-0.021l-0.029,0.008l-0.01,0.031l0.021,0.042l0.073,0.214v0.05l-0.024,0.005l-0.073,-0.052l-0.119,-0.029l-0.019,0.013l0.016,0.04l-0.021,0.007l-0.042,-0.039l-0.013,-0.039l-0.031,-0.031v-0.199l0.031,-0.073l0.097,-0.118l-0.003,-0.029l-0.052,-0.015l-0.026,-0.074l-0.06,-0.089l-0.07,-0.005l-0.026,-0.031l0.047,-0.092l-0.014,-0.023l-0.028,-0.008l-0.024,-0.037l-0.005,-0.081l-0.031,-0.015l-0.05,0.007l-0.015,0.037v0.06l-0.034,0.032l-0.24,0.047l-0.049,0.023h-0.04l-0.044,-0.034l-0.044,0.003l0.044,0.026l0.039,0.052l0.105,0.013l-0.014,0.026l-0.075,0.037l-0.026,0.06l0.005,0.039l0.037,0.021l-0.006,0.034l-0.057,0.037l-0.018,0.039l0.005,0.058l0.089,0.115l0.054,0.023l0.026,0.029l0.013,0.039l0.063,0.045l0.06,0.005l0.094,0.063l-0.011,0.021l-0.073,-0.006l-0.018,0.016l0.039,0.021l0.074,0.006l0.023,0.028l0.026,0.094l-0.013,0.051l-0.069,0.066l-0.043,-0.002l-0.035,-0.035l-0.021,0.004l-0.016,0.019l-0.027,-0.002l-0.037,-0.022l-0.089,-0.007l-0.154,0.007l-0.011,0.015l0.025,0.006l0.08,-0.006l0.045,0.03l-0.007,0.026l-0.042,0.017l-0.064,0.004v0.016l0.036,0.01l0.044,-0.007l0.054,0.009l0.05,0.024l0.012,0.042l-0.01,0.059l0.014,0.035l-0.014,0.011l-0.042,-0.009l-0.024,0.009l-0.009,0.028l-0.017,0.003l-0.032,-0.005l-0.027,0.019l0.001,0.031l0.019,0.027l-0.008,0.017l-0.037,0.005l-0.067,-0.015l-0.065,0.019l-0.064,0.064l0.002,0.021l0.041,0.03l0.007,0.026l-0.017,0.023h-0.04l-0.031,-0.03l-0.014,-0.035l-0.038,-0.01l-0.011,-0.014l0.004,-0.018l-0.021,-0.019l-0.08,-0.023l-0.002,-0.027l0.026,-0.041l-0.005,-0.027l-0.071,-0.046l-0.096,-0.021l-0.04,-0.047l-0.038,-0.031l-0.007,0.012l0.019,0.04l-0.014,0.014l-0.028,0.002l-0.033,-0.028h-0.033l-0.024,0.021l-0.085,0.009l-0.068,-0.013l-0.057,-0.031l-0.035,-0.061l-0.002,-0.059l0.08,-0.087l0.039,-0.02l0.022,-0.047h0.016l0.01,0.014l0.033,0.002l0.023,-0.03l0.005,-0.082l0.042,-0.089l0.036,-0.02l0.019,0.003l0.012,0.045l-0.003,0.124l0.023,0.021l-0.006,-0.026l0.009,-0.059l0.021,-0.013l0.043,-0.001l0.037,-0.037l-0.004,-0.033l-0.031,-0.038l0.004,-0.051l0.057,-0.143l0.099,-0.075l0.023,0.005l0.034,0.07l0.002,0.045l-0.017,0.039l0.007,0.028l0.099,0.029l0.031,-0.021l0.042,-0.099l0.005,-0.12l-0.014,-0.089l-0.026,-0.019l-0.044,0.001l-0.05,0.056h-0.03l-0.031,-0.012l-0.026,0.002l-0.014,0.019l-0.029,-0.002l-0.058,-0.097l0.009,-0.032l-0.014,-0.009l-0.036,0.013l-0.065,0.082l-0.022,0.085l-0.068,0.091l-0.002,0.026l-0.04,0.014l-0.099,-0.011l-0.069,-0.028l-0.03,0.002l-0.038,0.038l-0.038,0.068l-0.075,0.041l-0.049,0.005l-0.017,0.016l-0.021,0.054l-0.101,0.069l-0.067,0.026l-0.07,-0.008l-0.099,-0.014l-0.04,-0.014l0.018,0.026l0.031,0.01l0.075,0.014l0.05,0.042l-0.002,0.025l-0.052,0.085l-0.026,0.026l0.007,0.016l0.033,0.021l0.031,0.002l0.006,0.026l-0.02,0.017l-0.022,0.011l-0.051,0.163l-0.031,0.03l-0.014,0.042l0.045,0.054l-0.012,0.026l-0.029,0.004l-0.018,0.021l-0.022,0.001l-0.023,-0.021l-0.033,-0.007l-0.009,0.016l0.025,0.051l-0.009,0.033l-0.021,0.024l-0.034,0.002l-0.037,-0.023l-0.075,-0.008l-0.088,-0.004l-0.004,0.012l0.038,0.068v0.042l-0.015,0.004l-0.03,-0.039l-0.047,-0.015l-0.057,-0.049l-0.035,-0.004l-0.047,0.011l-0.041,-0.007l-0.028,-0.03v-0.033l-0.017,-0.004l-0.023,0.006l-0.028,-0.014l0.002,-0.019l0.026,-0.032l-0.004,-0.049l-0.02,-0.057l-0.002,-0.082l0.021,-0.079l-0.001,-0.114l-0.047,-0.133l0.01,-0.055l-0.02,0.003l-0.027,0.055l0.006,0.109l-0.016,0.21l-0.01,0.034l-0.003,0.039l0.013,0.044l-0.021,0.034l-0.052,0.008l-0.013,0.021l0.018,0.05l-0.023,0.021h-0.044l-0.021,0.015l0.002,0.045l0.024,0.015l-0.013,0.019l-0.071,0.008l-0.057,0.02l-0.052,0.04l-0.138,0.057l-0.065,0.066l-0.016,0.041l0.013,0.048l-0.01,0.075l-0.034,0.042l-0.026,0.068l0.002,0.052l-0.021,0.019l-0.062,-0.019l-0.073,-0.005l-0.094,0.076l-0.042,0.016l-0.031,-0.016l-0.01,-0.076l0.034,-0.057l-0.019,-0.1l-0.036,-0.023l-0.071,0.021l-0.033,0.029l-0.027,-0.014l0.014,-0.047l-0.014,-0.057l0.024,-0.032h0.036l0.013,-0.018l-0.002,-0.029l0.023,-0.026l0.039,-0.023l0.016,-0.042l-0.01,-0.05l-0.039,-0.005l-0.06,0.026l-0.047,-0.013l-0.05,-0.055l0.008,-0.031l0.047,-0.034l-0.005,-0.021l-0.037,-0.013l-0.005,-0.055l0.013,-0.094l0.036,-0.068l0.042,-0.021l0.013,-0.021v-0.037l0.034,-0.023l0.06,-0.006l-0.023,-0.015h-0.058l-0.039,0.036l-0.021,0.045l-0.047,0.036l-0.067,0.003l0.002,-0.021l0.029,-0.008l0.005,-0.018l-0.065,-0.05l-0.06,-0.021l-0.039,0.019l-0.031,0.044l-0.058,0.011l-0.015,-0.019l0.021,-0.047l-0.011,-0.036l-0.175,-0.055l-0.065,0.01l-0.039,-0.026l0.008,-0.042l-0.021,-0.023l-0.062,-0.026l-0.037,-0.082l0.039,-0.044l-0.013,-0.018l-0.044,0.002l-0.039,-0.039l-0.024,-0.128l0.026,-0.112l0.037,-0.066l0.008,-0.081l0.041,-0.102l0.037,-0.008l0.089,0.055l0.07,0.1l0.031,0.075l-0.01,0.05l-0.024,0.018l0.006,0.05l0.052,0.065l0.049,0.131l0.073,0.068l0.089,0.039l0.081,0.05h0.07l0.055,-0.029l-0.026,-0.005l-0.066,0.008l-0.028,-0.016l-0.024,-0.047l-0.091,-0.065l-0.049,-0.013l-0.068,-0.06l-0.024,-0.074l0.021,-0.057l0.05,-0.047v-0.039l-0.021,-0.04l0.016,-0.026l0.104,0.005l0.167,0.047v0.034l-0.011,0.024l0.024,0.076l0.065,0.065l0.023,0.003l0.008,-0.021l-0.029,-0.042l0.011,-0.026l0.028,0.018l0.037,0.039l0.057,0.013l0.102,0.014l0.018,-0.016l-0.036,-0.029l-0.047,-0.021l-0.047,-0.047l-0.018,-0.052l-0.045,-0.05l-0.078,-0.034l-0.318,-0.065l-0.065,-0.032l-0.005,-0.034l0.013,-0.018l0.026,-0.008l0.039,-0.049l0.07,-0.037l0.159,-0.037l0.065,0.016l0.068,0.065l0.073,0.008l0.027,-0.014l0.031,-0.041l0.005,-0.073l0.052,-0.05l0.034,-0.015l0.026,-0.081l0.021,-0.131l-0.024,-0.068l-0.125,-0.157l0.005,-0.037h0.032l-0.026,-0.021l-0.029,0.003l-0.016,0.05l0.008,0.026l0.12,0.146l0.01,0.071l-0.018,0.12l-0.036,0.063l-0.063,0.055l-0.005,0.063l-0.021,0.034h-0.029l-0.093,-0.076l-0.084,-0.016l-0.115,0.024l-0.054,0.028l-0.112,0.016l-0.039,-0.016l-0.045,-0.041l0.005,-0.032l0.126,-0.141l0.054,-0.021l0.008,-0.036l-0.057,-0.118v-0.047l0.036,-0.05v-0.037l-0.044,-0.049l0.013,-0.154l0.057,-0.055l-0.01,-0.047l-0.021,-0.003l-0.044,0.065l-0.021,-0.002l-0.013,-0.074l-0.018,-0.015l-0.021,0.018l0.002,0.058l-0.018,0.021l0.003,0.026l0.031,0.028v0.084l-0.034,0.065l-0.057,0.024l-0.065,-0.013l-0.006,-0.029l-0.033,-0.016l-0.029,0.006l-0.018,-0.019l0.028,-0.031l-0.002,-0.023l-0.063,-0.061v-0.057l0.026,-0.032l0.037,0.006l0.034,0.036h0.057l0.062,-0.039l0.003,-0.039l-0.049,-0.024l0.007,-0.026l0.133,-0.078l0.029,-0.037l-0.018,-0.05l-0.042,-0.01l-0.055,0.026l-0.028,-0.018l0.01,-0.037l-0.018,-0.013l-0.039,-0.002l-0.008,-0.024l0.016,-0.042l-0.04,-0.044l-0.036,-0.006l-0.042,0.066v0.039l0.021,0.026l-0.013,0.026l-0.039,-0.005l-0.042,-0.044l-0.044,0.008l-0.05,-0.037l0.003,-0.026l-0.023,-0.032l-0.032,-0.021l-0.002,-0.041l0.021,-0.021l0.005,-0.026l-0.021,-0.037l0.005,-0.073l0.042,-0.055l0.047,0.002l0.047,0.034l0.065,0.008l0.028,0.021l0.032,-0.002l0.028,-0.045l0.032,-0.063l0.023,-0.015l0.021,0.01l-0.008,0.081l-0.021,0.068l-0.021,0.024v0.076l0.042,0.015l0.016,0.029v0.026l0.065,0.039l0.029,-0.005l0.021,-0.042l0.02,-0.005l-0.005,0.055l0.026,0.008l0.018,-0.013l0.024,0.01l0.008,0.047l-0.029,0.053l0.01,0.044l0.024,0.024l0.057,0.002l0.005,-0.021l-0.018,-0.023l0.011,-0.037l0.078,-0.034l0.039,-0.052l-0.005,-0.029l-0.045,-0.021v-0.026l0.055,-0.026v-0.029l-0.039,-0.018l-0.062,0.005l-0.04,-0.024l-0.046,-0.086l-0.079,-0.063l-0.096,-0.107l-0.003,-0.042l0.05,-0.065l0.013,-0.044h-0.029l-0.049,0.041l-0.034,0.006l-0.128,-0.04l-0.034,-0.062l0.003,-0.089l0.049,-0.037l0.058,-0.112l0.034,-0.024l0.075,-0.003l0.037,-0.026l0.018,-0.177l0.068,-0.142l0.049,-0.005l0.031,0.021l0.021,-0.008l-0.015,-0.031l-0.045,-0.032l-0.01,-0.083l0.036,-0.087l0.058,-0.028l0.018,-0.032l0.008,-0.055l0.151,-0.259l0.036,-0.031l0.029,0.016l0.024,-0.013l0.015,-0.037l0.055,-0.021h0.078l0.099,-0.036h0.083l0.068,-0.045l0.021,-0.05l0.057,-0.028l0.073,0.013l0.045,0.036l0.026,-0.007l0.005,-0.037l-0.044,-0.073l-0.063,-0.026l-0.073,0.028l-0.216,0.006l-0.107,0.031h-0.094l-0.065,-0.031l-0.031,-0.045l-0.06,-0.026l-0.025,-0.051l0.008,-0.099l0.076,-0.058l0.057,-0.01l0.091,-0.081l0.016,-0.039l0.086,-0.073l0.102,-0.034l0.021,-0.032v-0.039l-0.024,0.008l-0.018,0.031h-0.057l-0.053,-0.021l-0.002,-0.042l0.028,-0.052l0.071,0.011l0.01,-0.021l-0.018,-0.05l0.016,-0.06l0.099,-0.123l0.073,-0.042l0.099,-0.003l0.13,0.058l0.102,0.026l0.083,0.005l0.102,0.045l0.052,0.068l0.002,-0.032l-0.041,-0.06l-0.11,-0.044l-0.094,-0.011l-0.093,-0.034l-0.157,-0.073l-0.008,-0.052l0.037,-0.055l0.181,-0.016l0.083,-0.021l0.069,-0.052l0.122,-0.024l0.084,-0.07l0.104,-0.032l-0.066,-0.006l-0.077,0.024l-0.059,0.045l-0.128,0.021l-0.098,0.052l-0.097,0.018l-0.233,0.054h-0.088l-0.019,-0.031l0.022,-0.056l-0.002,-0.108l-0.055,-0.072l-0.004,-0.056l-0.034,-0.02l-0.139,0.003l-0.06,-0.056v-0.07l0.039,-0.038l0.347,-0.024l0.132,-0.056l0.167,-0.007l0.08,0.024l0.052,-0.01l0.045,-0.101l0.049,-0.035l0.139,-0.021l0.222,-0.126l0.045,-0.087l-0.007,-0.104l0.054,-0.128l0.026,-0.013l0.053,0.005l0.073,-0.014l0.055,-0.059h0.045l0.063,0.034h0.059l-0.03,-0.019l-0.027,-0.007l-0.061,-0.035l-0.066,0.002l-0.068,0.056l-0.047,0.002l-0.04,-0.007l-0.043,0.008l-0.037,0.047l-0.043,0.126l-0.004,0.105l-0.031,0.059l-0.108,0.033l-0.054,0.026l-0.027,0.037l-0.03,0.014l-0.094,0.008l-0.08,0.037l-0.031,0.031l-0.033,0.063l-0.04,0.018l-0.062,-0.014l-0.132,-0.004l-0.035,-0.019v-0.075l0.022,-0.017l-0.003,-0.025l-0.066,-0.057l-0.042,-0.013l-0.019,-0.026l-0.003,-0.05l-0.03,-0.032l0.005,-0.012l0.032,-0.009v-0.02l-0.021,-0.042l-0.03,-0.009l-0.021,0.014l-0.017,-0.009l-0.012,-0.045l-0.063,-0.082l-0.054,-0.037l-0.024,0.002l-0.031,0.03l-0.016,-0.002l-0.009,-0.028l-0.055,-0.038l-0.068,-0.016l-0.052,0.007l-0.016,0.033l0.011,0.038l-0.016,0.009l-0.031,-0.022l-0.004,-0.07l0.016,-0.032l0.085,-0.021l0.083,-0.087l0.002,-0.021l-0.024,-0.021l-0.005,-0.024l0.014,-0.017l-0.002,-0.02l-0.023,-0.038l0.002,-0.084l0.026,-0.094l0.028,-0.022l-0.002,-0.018l-0.061,-0.099l-0.038,-0.025l-0.049,-0.088l0.009,-0.035l0.122,-0.058l0.048,-0.026l-0.001,-0.017l-0.039,-0.018l-0.118,-0.098l-0.047,-0.013l-0.048,-0.002l-0.016,-0.014l-0.002,-0.033l0.033,-0.086l0.08,-0.094l-0.014,-0.009l-0.022,0.002l-0.037,-0.038l-0.008,-0.089l-0.026,-0.061l-0.009,-0.208l-0.049,-0.057l-0.001,-0.11l-0.033,-0.091l0.005,-0.029l0.061,-0.039l0.003,-0.027l-0.036,-0.075l-0.018,-0.156l0.005,-0.075l-0.022,-0.027l-0.019,0.005l-0.042,0.099v0.025l0.016,0.026l-0.006,0.094l-0.05,0.11l-0.054,0.008l-0.016,-0.014l0.007,-0.02l-0.017,-0.011l-0.097,-0.016l-0.056,-0.031l-0.014,-0.054v-0.129l-0.055,-0.173l-0.014,0.002l-0.016,0.047v0.122l0.024,0.079l0.009,0.066l0.035,0.057l-0.012,0.014l-0.049,0.007l-0.057,0.047l-0.026,0.042l-0.037,0.007l-0.045,0.039l-0.023,-0.004l-0.02,-0.043l0.001,-0.077l0.013,-0.019l0.031,-0.009l0.014,-0.03l-0.007,-0.059l-0.035,-0.099l-0.037,-0.023l-0.039,-0.002l-0.018,-0.019l-0.01,-0.07l0.036,-0.052l0.007,-0.098l-0.015,-0.003l-0.027,0.028l-0.033,0.012h-0.05l-0.014,0.014l-0.01,0.058l-0.018,0.026l-0.045,0.008l-0.038,0.021l-0.024,0.042l-0.033,0.012l-0.125,-0.005l-0.018,-0.023l-0.005,-0.071l0.01,-0.028l0.049,-0.038l0.057,0.001l0.054,0.023l0.073,-0.017l0.019,-0.03l-0.017,-0.021l-0.038,0.005l-0.007,-0.012l0.017,-0.024l-0.007,-0.018l-0.04,-0.015l-0.052,-0.056l-0.064,-0.016l-0.063,0.005l-0.012,0.016l0.021,0.056l-0.004,0.042l-0.071,0.069l-0.019,0.002l-0.015,-0.033l0.005,-0.033l0.036,-0.047l0.002,-0.037l-0.009,-0.015l-0.029,-0.009l-0.023,-0.051l0.005,-0.021l0.04,-0.01l0.014,-0.018l-0.003,-0.022l0.012,-0.016l0.024,-0.01l0.026,-0.063l-0.014,-0.024l0.006,-0.014l0.022,-0.002l0.021,-0.035v-0.038l-0.023,-0.02v-0.019l0.033,-0.017l0.03,0.007l0.017,0.063l-0.005,0.05l0.016,0.009l0.031,-0.014l0.005,-0.044l-0.024,-0.017v-0.025l0.052,-0.048l0.004,-0.028l-0.016,-0.051l-0.002,-0.043l-0.022,-0.044l0.005,-0.014h0.026l0.033,-0.04l0.083,-0.045l0.082,-0.014l0.019,0.008l0.004,0.027l-0.009,0.017l0.014,0.017l0.045,-0.007l0.016,-0.013l0.031,-0.002l0.029,0.012l0.016,-0.01l-0.009,-0.032v-0.045l0.019,-0.026l0.002,-0.021l-0.017,-0.04l-0.005,-0.058l-0.016,-0.047l0.01,-0.023l0.051,-0.007l0.036,-0.029l0.019,0.01l-0.015,0.046l0.005,0.026l-0.009,0.036l-0.014,0.018l0.002,0.019l0.016,0.026l-0.002,0.033l-0.017,0.016l0.001,0.026l0.051,0.073v0.053l-0.063,0.101l-0.005,0.036l-0.017,0.03l0.007,0.024l0.055,0.02l-0.003,0.017l-0.052,0.042l-0.03,0.007l-0.012,0.024l0.003,0.066l0.019,0.006l0.037,-0.046l0.038,-0.026l0.038,-0.003l0.023,0.012l0.014,-0.011l-0.011,-0.068l-0.041,-0.031l-0.002,-0.017l0.023,-0.011l0.01,-0.049l0.026,-0.019l0.038,0.005l0.004,0.025l-0.012,0.026l0.008,0.031l0.052,0.04l0.013,-0.012l-0.013,-0.038l0.007,-0.03l0.075,-0.056l-0.007,-0.014l-0.029,-0.006l-0.016,-0.021l0.016,-0.025l0.085,-0.005l0.014,-0.014v-0.038l0.026,-0.025l0.02,0.004l0.011,0.017l0.043,-0.003l0.016,-0.014l-0.002,-0.025l-0.029,-0.012l-0.033,-0.002l-0.019,-0.026l0.013,-0.031l0.04,-0.028l-0.006,-0.028l-0.025,-0.005l-0.057,0.017l-0.021,0.018l-0.017,-0.014l-0.007,-0.044l-0.037,-0.024l-0.043,0.002l-0.042,-0.023l-0.014,-0.037l-0.036,-0.005v-0.019l0.043,-0.012l0.049,-0.004l0.041,0.016l0.027,-0.014l-0.004,-0.031l-0.033,-0.014l-0.073,-0.002l-0.068,-0.021l-0.021,-0.033l0.011,-0.035l0.092,-0.038l0.174,-0.023l0.116,0.005l0.08,0.047l0.063,0.096l0.052,0.147l-0.007,0.092l-0.051,0.106l0.011,0.073l0.015,0.002l0.006,-0.064l0.045,-0.115l0.007,-0.093l-0.019,-0.087l0.015,-0.019l0.066,0.003l0.044,0.032l0.094,0.139l-0.002,-0.036l-0.073,-0.117l-0.047,-0.04l-0.07,-0.014l-0.052,-0.058l-0.066,-0.097l0.002,-0.049l0.08,-0.134l0.043,-0.025l0.066,0.016l0.039,0.054l0.064,0.042l0.045,0.002l0.283,0.132l0.045,0.01l0.199,0.011l0.198,0.059l0.119,0.047l0.006,0.019l-0.006,0.028l0.04,0.079l0.004,0.042l0.019,0.029l0.026,0.007l0.03,0.047l0.003,0.053l0.057,0.082l-0.001,0.158l-0.011,0.014l0.002,0.045l0.097,0.14l-0.001,0.035l-0.025,0.026l0.026,-0.007l0.019,-0.023l0.002,-0.04l-0.069,-0.113l0.003,-0.018l0.037,-0.003l0.001,-0.014l-0.017,-0.017l0.005,-0.049l0.045,-0.11l0.061,-0.035l0.103,-0.017l0.109,-0.044l0.064,-0.052l0.101,-0.023l0.031,-0.038l-0.01,-0.145l-0.028,-0.064l0.002,-0.032l0.019,-0.016l0.042,0.009l0.083,0.046l0.051,0.001l0.029,-0.026l0.017,-0.045l-0.017,0.003l-0.019,0.033l-0.026,0.014l-0.038,-0.007l-0.066,-0.04l-0.054,-0.008l-0.04,0.026l-0.014,0.035l0.026,0.085l0.007,0.077l-0.017,0.035l-0.087,0.026h-0.033l-0.049,0.014l-0.061,0.035l-0.028,-0.011l-0.031,-0.049l-0.045,-0.019l-0.047,0.005l-0.026,-0.015l-0.01,-0.04l-0.018,-0.014l-0.031,-0.002l-0.092,-0.138l-0.007,-0.035l-0.026,-0.01l-0.031,0.003l-0.063,-0.014l-0.04,-0.035v-0.02l0.04,-0.02l0.03,-0.001l0.036,0.014l0.134,-0.007l0.049,-0.034l0.097,-0.177l-0.03,0.021l-0.092,0.148l-0.04,0.014l-0.107,0.005l-0.04,-0.007l-0.021,-0.033l-0.045,-0.018l-0.1,-0.001l-0.02,-0.018l0.001,-0.054l0.016,-0.024v-0.021l-0.083,-0.068l-0.037,-0.171l0.021,-0.06l0.073,-0.052l-0.029,-0.006l-0.052,0.024l-0.081,0.068l-0.052,0.008l-0.034,-0.016l-0.018,-0.068l0.016,-0.039l0.036,-0.024v-0.021l-0.052,-0.005l-0.06,0.013l-0.015,-0.018l-0.003,-0.071l0.042,-0.057l-0.019,-0.013l-0.041,0.008l-0.034,-0.029l-0.005,-0.071l-0.058,-0.068l-0.078,-0.01l-0.01,0.018l0.039,0.046l-0.008,0.014l-0.073,-0.023l-0.039,0.007l-0.039,0.102l-0.026,-0.005l-0.055,-0.055v-0.089l0.047,-0.041l0.018,-0.042l-0.042,-0.113l0.006,-0.021l0.031,-0.01l0.044,-0.045l0.034,-0.005l0.097,0.073l0.049,0.021l0.031,-0.007v-0.027l0.029,-0.002l0.023,0.039l-0.018,0.065l0.005,0.055l0.04,0.063l0.005,0.092l0.018,-0.016v-0.1l-0.031,-0.044l-0.003,-0.063l0.021,-0.031l-0.005,-0.034l-0.016,-0.029l0.024,-0.034l0.065,-0.002l0.034,0.028l-0.019,0.05l0.021,0.01l0.039,-0.044l0.078,0.016l0.042,-0.013l0.031,-0.04l0.139,-0.007l-0.013,-0.021l-0.141,-0.037l-0.086,-0.063l-0.084,-0.026l-0.019,-0.032l0.042,-0.077l0.129,-0.132h-0.03l-0.196,0.136l-0.129,0.003l-0.038,-0.017l-0.115,-0.004v-0.035l0.174,-0.003l0.052,0.017l0.024,-0.021l-0.146,-0.108l-0.006,-0.08l-0.025,-0.077l0.007,-0.066l-0.035,-0.038l0.004,-0.126l0.031,-0.052l0.104,-0.024l0.021,-0.053h-0.028l-0.02,0.025l-0.059,0.003l-0.025,-0.031l-0.017,-0.23l-0.042,-0.035l-0.118,-0.175l-0.021,-0.066l-0.031,-0.042l-0.024,-0.08l0.02,-0.031l0.004,-0.032l-0.038,-0.024l-0.007,-0.028l0.017,-0.038l0.004,-0.053l-0.035,-0.055l-0.004,-0.046l0.021,-0.066v-0.056l-0.031,-0.049l0.021,-0.027h0.055l0.07,0.014l0.045,0.041l0.104,0.004l0.073,-0.021l0.056,-0.063l0.055,0.011l0.007,0.038l0.049,0.049l0.017,0.094l-0.024,0.077l-0.007,0.097l0.018,0.063l0.138,0.108l0.289,0.157l0.083,0.073l0.372,0.251l0.08,0.028l0.063,0.049l0.118,0.056l0.069,-0.018l0.108,-0.087l0.042,-0.003l0.118,0.048l0.094,-0.003l0.086,-0.073l0.049,-0.084l0.045,-0.038l0.091,-0.021l0.059,-0.039h0.055l0.063,0.067l0.052,0.08l0.172,0.086l-0.026,-0.036l-0.112,-0.066l-0.047,-0.086l-0.094,-0.084l-0.068,-0.005l-0.073,0.047l-0.078,0.011l-0.068,0.057l-0.039,0.079l-0.075,0.07l-0.073,0.011l-0.107,-0.05l-0.052,-0.008l-0.042,0.018l-0.104,0.084l-0.052,0.005l-0.052,-0.018l-0.107,-0.084l-0.073,-0.018l-0.362,-0.243l-0.04,-0.052l-0.057,-0.04l-0.247,-0.13l-0.146,-0.102l-0.021,-0.074l0.024,-0.132l0.004,-0.147l-0.035,-0.076l-0.004,-0.101l0.025,-0.122l0.048,-0.025l0.129,-0.042l0.094,-0.014l0.017,-0.066l-0.059,-0.087l0.003,-0.052l0.039,-0.039l0.062,-0.031h-0.076l-0.056,0.052l-0.003,0.066l0.055,0.102l-0.007,0.027l-0.097,0.004l-0.115,0.027z"/>
</svg>
