<svg xmlns="http://www.w3.org/2000/svg" viewBox="814.076 335.449 6.949 6.412">
  <path d="M820.449,338.097l0.042-0.045l0.115-0.003l0.153,0.073l0.163,0.184l-0.021,0.031l-0.115-0.021l-0.083-0.069l-0.087-0.038l-0.136-0.01l-0.038-0.042L820.449,338.097L820.449,338.097z M819.517,335.988v0.038l0.042,0.017l0.136-0.042l0.104-0.069l0.177-0.063l0.007-0.028l-0.135-0.031l-0.125,0.003l-0.132,0.063L819.517,335.988L819.517,335.988z M819.618,336.144l0.003,0.052l0.083,0.042l0.056,0.056l0.09,0.01l0.059-0.035l0.035-0.076l-0.016-0.033l-0.057-0.026l-0.066-0.097l-0.036-0.003l-0.071,0.069L819.618,336.144L819.618,336.144z M819.978,336.184l-0.009,0.071l0.038,0.052l0.042,0.007l0.049-0.052l0.007-0.059l0.035-0.017l0.028,0.028l-0.007,0.069l-0.073,0.069l-0.052,0.017l-0.063,0.003l-0.104,0.059l-0.083,0.003l-0.167-0.031l-0.038-0.021l-0.031-0.063l-0.024-0.003v0.052l0.146,0.396l0.146,0.094l0.063,0.101l0.007,0.104l0.035,0.052l0.052,0.038l0.052,0.125l0.038,0.146l0.087,0.136l0.076,0.024l0.101-0.021l0.299-0.275l0.17-0.261l0.038-0.156l-0.01-0.149l-0.045-0.049l-0.056-0.021l-0.066-0.059l-0.129-0.24l-0.177-0.191l-0.219-0.181l-0.122-0.031l-0.132,0.007l-0.035,0.021l-0.003,0.045l0.056,0.076l0.059,0.038L819.978,336.184L819.978,336.184z M814.076,339.525l3.363,0.407l0.131,0.146l0.057,0.146l0.282,0.37l0.031,0.307l-0.016,0.115v0.151l0.052,0.157l0.12,0.109l0.063,0.141l0.193,0.208l-0.016,0.079l2.689-0.046l-0.099-0.163l-0.057-0.151l0.016-0.078l0.005-0.089l-0.042-0.172l0.042-0.151l-0.021-0.037h-0.12l-0.172-0.099l-0.088-0.114l-0.016-0.172l0.021-0.141l-0.016-0.037l-0.099-0.02l-0.141-0.105l-0.14-0.203l-0.094-0.292l-0.042-0.302l-0.073-0.292l-0.052-0.089l-0.068-0.285l0.004-0.199l0.034-0.091l-0.019-0.015l-0.128,0.033l-0.066-0.009l-0.111-0.104l-0.018-0.056l-0.043-0.031l-0.084,0.023l-0.066,0.102l-0.093,0.04l-0.039-0.033l-0.04,0.01l-0.027,0.079l-0.127,0.064l-0.11,0.003l-0.059-0.038l0.007-0.135l0.037-0.049l0.033-0.009l-0.002-0.019l-0.047-0.005l-0.063,0.047l-0.255,0.021l-0.083,0.052l-0.063-0.021l0.016-0.089l0.067-0.067h0.068l0.047-0.037l0.104-0.151l0.193-0.219l0.433-0.261l0.25-0.041l0.255,0.052l0.256,0.151l0.073-0.01l0.026-0.131l-0.12-0.151l-0.188-0.401l-0.01-0.131l-0.063-0.088l-0.114-0.068l-0.167-0.453l0.01-0.131l-0.015-0.151l0.01-0.099l-0.021-0.073l-0.094-0.026l-0.125-0.094l-0.879-0.365h-1.251l-0.142,0.063l-0.101,0.09l-0.09,0.045l-0.278,0.087l-0.146,0.084l-0.111,0.121l-0.105,0.237l-0.111,0.34l-0.18,0.379l-0.084,0.122l-0.045,0.253l-0.083,0.146l-0.07,0.087l-0.17,0.299l-0.028,0.104l-0.132,0.264l-0.17,0.209l-0.125,0.128l-0.091,0.16l-0.229,0.264l-0.108,0.17l-0.163,0.164l-0.122,0.08l-0.142,0.18L814.076,339.525z"/>
</svg>
