<svg xmlns="http://www.w3.org/2000/svg" viewBox="771.617 316.571 5.619 6.820">
  <path d="M774.099,322.244l0.06,-0.01l0.084,-0.071l0.023,-0.047l-0.015,-0.049l0.031,-0.081l0.107,-0.099l0.143,-0.052l0.044,-0.07l0.159,-0.097l0.013,-0.073l-0.036,-0.101l0.023,-0.053l0.146,-0.059l0.078,0.031l0.053,-0.016l0.093,-0.112l-0.005,-0.12l-0.138,-0.101l-0.234,-0.06l-0.016,-0.107l0.044,-0.091l0.06,-0.021l0.026,-0.052l-0.018,-0.094l0.13,-0.196l0.112,-0.036l0.071,-0.077l0.048,-0.104l0.233,-0.076l0.087,0.014l0.184,-0.021l0.056,0.048l0.059,-0.01l0.049,-0.09l0.09,-0.014l0.128,0.031l0.056,0.056l0.205,0.041l0.056,-0.031l0.02,-0.049l-0.024,-0.062l-0.076,-0.07l-0.122,-0.031l-0.205,-0.111l0.004,-0.052l0.125,-0.098l0.125,-0.173l0.097,-0.073h0.063l0.017,-0.028l-0.004,-0.087l0.101,-0.083l0.219,0.021l0.101,-0.094v-0.105l0.115,-0.145l0.107,-0.06l0.101,-0.187l0.07,-0.035l0.014,-0.045l-0.105,-0.084l-0.014,-0.215l0.035,-0.083l-0.031,-0.049l-0.08,-0.031l-0.115,-0.209l0.059,-0.114l-0.014,-0.112l-0.159,-0.125l-0.136,-0.055l-0.069,-0.08l-0.007,-0.077l-0.063,-0.017l-0.274,0.021l-0.073,-0.025l0.003,-0.052l0.25,-0.156l0.007,-0.052l-0.028,-0.077l0.011,-0.066l0.045,-0.02l0.083,0.059l0.066,-0.007l0.039,-0.146l-0.049,-0.021l-0.09,0.042l-0.153,-0.042l-0.129,-0.097v-0.108l-0.083,-0.038l-0.059,0.024l-0.042,0.08l0.003,0.073l-0.041,0.066l-0.212,0.024l-0.111,-0.031l-0.077,-0.004l-0.076,0.021l-0.177,-0.024l-0.112,0.031l-0.173,0.004l-0.153,-0.077l-0.052,-0.003l-0.046,0.038l0.047,0.234v0.156l-0.057,0.12l-0.063,0.008l-0.06,0.039l-0.125,0.151l-0.195,0.06l-0.104,-0.024l-0.063,0.029l-0.013,0.052l0.052,0.105l-0.026,0.054l-0.135,0.089l-0.128,0.026l-0.034,0.052l0.003,0.083l-0.037,0.126l-0.062,0.023l-0.042,-0.013l-0.063,0.018l-0.065,0.146l-0.005,0.128l-0.021,0.115l-0.065,0.065l-0.021,0.187l0.068,0.12l0.016,0.117l-0.032,0.144l-0.075,0.128l0.005,0.057l0.049,0.021l0.019,0.039l-0.029,0.068l-0.094,0.02l-0.088,0.123l-0.037,0.164l-0.068,0.047l-0.237,-0.021l-0.081,0.021l-0.015,0.044l0.057,0.099l-0.023,0.284l-0.092,0.186l-0.003,0.098l-0.038,0.104l-0.07,0.073l-0.066,0.174l-0.014,0.121l-0.055,0.157l-0.045,0.041l-0.039,0.094l-0.007,0.08l-0.041,0.08l-0.129,0.149l-0.111,0.066l-0.129,0.306l-0.017,0.205l-0.042,0.101l-0.066,0.101l-0.045,0.052l-0.007,0.048l0.045,0.066l-0.014,0.133l-0.083,0.17l-0.069,0.055l-0.079,0.119l-0.095,0.043l-0.054,0.074l-0.005,0.042l0.171,0.01l0.026,0.018l0.046,-0.028h0.042l0.024,0.025l0.045,-0.004l0.024,-0.045l0.049,-0.003l0.07,0.027l0.062,-0.003l0.143,-0.052l0.062,0.007l0.042,0.028l-0.004,0.048l0.105,0.111l0.1,0.017l0.024,-0.029l0.169,-0.023l0.065,-0.091l0.062,-0.013l0.104,0.011l0.035,-0.028l0.014,-0.066l0.069,-0.028l0.06,-0.267l-0.014,-0.139l0.038,-0.153l0.066,-0.136l0.038,-0.01l0.031,0.094l0.115,0.083l0.042,-0.017l0.007,-0.094l0.045,-0.025l0.059,0.011l0.049,-0.017l0.031,-0.053l0.125,-0.055l0.031,-0.08l0.038,-0.007l0.039,0.031h0.027l0.039,-0.043l0.067,-0.003z"/>
</svg>
