<svg xmlns="http://www.w3.org/2000/svg" viewBox="936.280 413.982 8.774 14.643">
  <path d="M936.304476,415.6367l0.013858,0.01399l-0.003464,0.024483l-0.027716,-0.003498l-0.006929,-0.024483l0.024251,-0.010493Z M937.635987,415.46759l0.003167,0.011886l0.016158,-0.002131v-0.012542l-0.011043,-0.006968l-0.008282,0.009755Z M938.120496,415.37283l0.017945,-0.034838l-0.004141,-0.034838l-0.038704,-0.009208l-0.01513,0.023144l0.017945,0.027871l0.002761,0.025084l0.019325,0.002787Z M937.952091,416.01525l0.00839,0.04115l0.038109,0.006995l0.024251,-0.01399l0.03118,0.017488l0.01264,0.033363l0.019325,-0.009755l0.002761,-0.036232l-0.009663,-0.01951l-0.04585,-0.027324l-0.010393,-0.038473l-0.023818,-0.002487l-0.046932,0.048774Z M936.806821,415.258969l0.1559,0.073448l0.079682,-0.003498l0.03118,-0.045468l-0.017322,-0.118915l-0.041573,-0.031478h-0.06236l-0.051967,-0.017488l-0.06236,-0.073448h-0.051967l-0.020787,0.034975l0.010393,0.12591l0.03118,0.05596Z M937.535221,414.799922h0.023385l0.002598,-0.031478l-0.028582,-0.034101l-0.018188,0.013116l0.020787,0.052463Z M937.189642,414.904847l0.023385,0.020985l0.018188,-0.018362l-0.005197,-0.052463l0.005197,-0.057709l-0.028582,-0.010493l-0.025983,0.023608v0.04197l0.012992,0.052463Z M937.353337,414.534986l0.018188,0.010493l-0.002598,-0.049839l0.012992,-0.049839l-0.012992,-0.010493l-0.020787,0.04197l0.005197,0.057709Z M937.213027,414.700243l0.023385,-0.007869l0.007795,-0.036724l0.025983,-0.04197l-0.002598,-0.065578l-0.023385,-0.005246l-0.04677,0.057709l-0.01559,0.060332l0.03118,0.039347Z M937.298772,414.933701l0.064958,0.034101l0.153302,0.026231l0.03118,-0.020985l0.007795,-0.110171l-0.002598,-0.026231l-0.051967,-0.034101l-0.020787,-0.002623l-0.018188,0.028854l-0.049368,-0.018362l-0.028582,-0.036724h-0.023385l-0.012992,0.028854l-0.007795,0.055086l0.007795,0.039347l-0.020787,0.002623l-0.025983,-0.026231l-0.010393,0.020985l0.007795,0.039347Z M937.592384,414.472031l0.038975,0.002623l0.036377,-0.018362l0.007795,-0.023608l-0.018188,-0.026231v-0.034101l0.03118,-0.102302l-0.023385,-0.020985l-0.028582,0.015739l-0.051967,-0.002623l-0.038975,0.007869l-0.023385,0.044593l0.023385,0.049839v0.036724l-0.028582,0.023608l0.010393,0.023608l0.064958,0.023608Z M937.610573,414.73959l0.090942,0.062955l0.033778,-0.005246l0.018188,-0.036724l0.036377,-0.010493l0.088343,0.020985l0.049368,0.04197l0.041573,0.002623l0.029448,-0.046342l0.017322,-0.010493l0.005197,0.010493l-0.023385,0.062081l-0.041573,0.007869l-0.01559,0.018362l0.07795,0.020985l0.057163,-0.031478l0.025983,-0.086563l-0.025983,-0.062955l-0.038975,-0.007869l-0.06236,0.052463l-0.051967,-0.005246l-0.132515,-0.086563l-0.002598,-0.018362l0.03118,-0.007869l0.002598,-0.044593l-0.023385,-0.015739l-0.036377,0.018362l-0.059762,0.023608l-0.012992,-0.020985l0.005197,-0.028854l-0.025983,-0.039347l-0.028582,-0.013116l-0.049368,0.010493l-0.01559,-0.018362l-0.03118,-0.010493l-0.03118,0.002623l-0.033778,-0.010493l-0.007795,0.018362l0.025983,0.028854l-0.007795,0.036724l0.070155,0.099679l0.023385,0.070824l0.028582,0.007869Z M938.840451,414.917963h-0.027716l-0.034644,-0.026231l0.010393,-0.017488l-0.005197,-0.012241l-0.064092,-0.006995l-0.010393,-0.01399l0.01559,-0.012241v-0.019236l-0.019054,-0.022734l0.001732,-0.034975l-0.008661,-0.015739l-0.027716,-0.015739l-0.01559,-0.026231l0.019054,-0.017488l0.069289,0.001749l0.194009,0.087438l0.284085,0.166132l0.122988,0.080443l0.065824,0.062955l0.072753,0.099679l0.065824,0.047216l0.043306,0.003498l0.001732,-0.043719l-0.019054,-0.047216l0.010393,-0.017488l0.060628,0.020985l0.053699,0.047216l0.06236,-0.010493l0.017322,-0.010493l-0.04677,-0.04197l0.003464,-0.034975l0.022519,-0.001749l0.079682,0.061206l0.216528,0.08394l0.09354,0.048965l0.058896,0.050714l0.050234,0.022734l0.019054,-0.008744l0.001732,-0.031478l-0.160231,-0.11192l-0.257235,-0.228212l-0.200072,-0.149518l-0.244243,-0.199358l-0.148105,-0.16788l-0.049368,-0.08394l-0.145507,-0.212473l-0.06236,-0.131156l-0.023385,-0.018362l-0.064958,-0.005246l-0.054565,-0.026231l-0.033778,0.002623l-0.044172,0.023608l-0.083147,0.015739l-0.067557,-0.007869l-0.072753,0.018362l-0.083147,0.047216l-0.14031,-0.002623l-0.07795,-0.020985h-0.137712l-0.06236,0.023608l-0.080548,0.005246l-0.114327,0.047216l-0.023385,0.039347l-0.054565,0.036724l-0.049368,0.005246l-0.023385,0.020985l0.005197,0.052463l0.03118,0.020985l0.054565,0.09181l-0.010393,0.039347l0.049368,0.08394l0.038975,0.007869l0.038975,-0.047216h0.023385l-0.005197,0.028854l0.059762,0.036724l0.028582,-0.013116l0.023385,0.015739l0.018188,0.070824l0.04677,0.052463l0.090942,0.018362l0.033778,-0.005246l0.075352,0.031478l0.090942,0.078694l0.132515,0.049839l0.020787,-0.010493l-0.059762,-0.028854l-0.07795,-0.070824l-0.051967,-0.020985l-0.018188,-0.039347l0.010393,-0.020985l0.038975,0.034101l0.205268,0.099679l0.036377,0.049839l0.133381,0.092684l0.030979,0.004555l0.027917,-0.008052l-0.001732,-0.010493Z M938.684551,414.699368l-0.005197,0.012241l0.010393,0.008744l0.01559,-0.010493l-0.003464,-0.012241l-0.017322,0.001749Z M937.708687,414.314315l0.006902,0.008361l0.011043,-0.002787l-0.00138,-0.013935l-0.013804,-0.002787l-0.002761,0.011148Z M938.107721,414.715107l0.012126,-0.003498l-0.020787,-0.02798h-0.017322l0.008661,0.019236l0.017322,0.012241Z M937.392312,423.747416l-0.020787,0.049839l0.012992,0.094433l0.085745,0.243951l0.09354,0.417078l-0.002598,0.09181l-0.038975,0.031478l-0.01559,0.047216l-0.023385,0.023608h-0.067557l-0.033778,0.023608l0.005197,0.031478l0.075352,0.018362l0.038975,0.099679l0.038975,0.180996l-0.002598,0.062955l0.020787,0.102302l0.116925,0.348876l0.080548,0.152141l0.088343,0.21772l0.044172,0.180996l0.088343,0.194112l-0.01559,0.049839l0.028582,0.08394l-0.038975,0.04197l0.007795,0.073448l0.049368,0.055086l0.059762,0.157388l0.028582,0.141649l0.04677,0.057709l0.028582,0.062955l-0.012992,0.028854l0.005197,0.049839l0.036377,0.047216l-0.023385,0.089186v0.047216l0.057163,0.070824l0.051967,0.131156l-0.010393,0.026231l0.007795,0.034101l0.096138,0.089186l0.025983,0.052463l0.005197,0.044593l0.028582,0.052463l0.067557,0.060332l0.012992,0.044593l0.06236,0.031478l0.018188,0.039347l0.096138,0.060332l0.020787,0.044593l0.129917,0.102302l0.03118,0.002623l-0.002598,-0.031478l0.023385,-0.010493l0.025902,0.027461l0.00138,0.045987l0.024684,0.031478l0.031911,0.003361l0.053834,0.030658l0.181883,0.03156l0.213063,0.09181l0.168892,0.031478l0.025983,-0.010493l0.044172,-0.039347l0.044172,0.002623l0.025983,0.026231l-0.010393,0.034101l0.01559,0.044593l0.083147,0.023608l0.064958,-0.013116l0.09354,0.018362l0.049368,-0.015739l0.075352,-0.005246l0.096138,0.034101l0.025983,0.039347l0.028582,0.002623l0.023385,-0.023608l0.059762,-0.020985l0.03118,-0.039347l0.051967,-0.013116l0.03118,-0.026231l0.051967,-0.018362l0.153302,-0.005246l0.051967,-0.015739l0.036377,-0.049839l0.044172,0.015739l0.018188,-0.013116l-0.007795,-0.034101l0.044172,-0.055086l0.06236,-0.010493l0.10913,-0.052463l0.005197,-0.044593l0.023385,-0.034101l0.148105,-0.031478l0.051967,0.007869l0.028582,-0.010493l0.005197,-0.031478l0.03118,-0.023608l0.088343,-0.007869l0.101335,-0.04197l0.036377,-0.028854l0.041573,-0.015739l0.06236,0.002623l0.054565,-0.005246l0.049368,-0.036724l0.067557,-0.028854l0.262432,-0.026231l0.158498,-0.039347l0.088343,-0.070824l0.080548,-0.018362l0.038975,-0.039347l0.137712,-0.04197l0.04677,-0.013116l0.06236,-0.044593l0.096138,-0.010493l0.057163,-0.031478l0.122122,-0.018362l0.023385,-0.010493l0.051967,-0.089186l0.096138,-0.039347l0.041573,-0.031478l0.116925,-0.057709l0.049368,-0.070824l0.07795,-0.078694l0.14031,-0.055086l0.025983,-0.044593l0.023385,-0.023608l0.023385,-0.028854l0.002598,-0.034101l0.09354,-0.052463l0.137712,-0.04197l0.025983,-0.047216l0.101335,-0.055086l0.041573,-0.039347l0.054565,-0.023608l-0.002598,-0.018362l-0.023385,-0.002623l0.002598,-0.028854l0.033778,-0.028854l0.080548,-0.028854l0.044172,-0.036724l0.025983,-0.047216l0.135113,-0.104925l0.025983,-0.078694l0.12472,-0.233459l0.057163,-0.04197l0.020787,-0.052463l-0.005197,-0.04197l0.051967,-0.144272l-0.010393,-0.068201l0.023385,-0.052463l0.07795,-0.089186l0.012992,-0.036724l-0.002598,-0.044593l0.010393,-0.036724l0.059762,-0.076071l0.012992,-0.04197l-0.018188,-0.081317l0.018188,-0.09181l0.012992,-0.039347l0.044172,-0.039347l0.002598,-0.018362l-0.020787,-0.020985l0.005197,-0.049839l0.033778,-0.049839l0.007795,-0.09181l-0.002598,-0.068201l0.072753,-0.194112l0.005197,-0.039347v-0.068201l0.041573,-0.09181l-0.002598,-0.044593l-0.03118,-0.047216l-0.036377,-0.220343l-0.010393,-0.131156l0.018188,-0.060332l0.002598,-0.21772l0.007795,-0.21772l0.01559,-0.055086l-0.007795,-0.144272l-0.012992,-0.09181l-0.054565,-0.141649l-0.01559,-0.076071l-0.020787,-0.062955l-0.049368,-0.068201l-0.028582,-0.104925l-0.033778,-0.212473l-0.036377,-0.201981l-0.07795,-0.222966l-0.166293,-0.285921l-0.098737,-0.157388l-0.054565,-0.052463l-0.067557,-0.010493l-0.103933,-0.065578l-0.049368,-0.097056l-0.033778,-0.036724l-0.070155,-0.015739l-0.09354,-0.068201l-0.04677,-0.120664l-0.002598,-0.131156l0.037243,-0.008744l0.022519,-0.020985l-0.012126,-0.01399l-0.039841,-0.000874l-0.029448,-0.016613v-0.026231l-0.013858,-0.024483l-0.029448,-0.006995l-0.03118,-0.062081l-0.008661,-0.046342l0.010393,-0.017488l0.029448,-0.003498l0.023385,-0.019236l-0.007795,-0.026231l-0.03118,0.002623l-0.010393,0.018362l-0.049368,0.007869l-0.049368,-0.04197l-0.051967,-0.018362l-0.101335,-0.141649l-0.054565,-0.173127l0.010393,-0.060332l-0.007795,-0.023608l-0.036377,-0.028854l-0.04677,-0.107548l-0.012992,-0.094433l-0.038975,-0.118041l-0.033778,-0.044593l-0.044172,-0.207227l-0.051967,-0.196735l0.002598,-0.078694l-0.005197,-0.047216l-0.054565,-0.162634l-0.06236,-0.275429l-0.002598,-0.031478l-0.018188,-0.031478l-0.096138,-0.08394l-0.028582,-0.002623l-0.010393,0.034101l-0.036377,0.028854l-0.067557,0.007869l-0.012992,0.026231l0.025983,0.044593l-0.01559,0.055086l-0.051967,0.031478l-0.18708,0.002623l-0.085745,-0.055086l-0.01559,-0.060332l-0.01559,-0.036724l-0.06236,-0.026231l-0.075352,0.010493l-0.033778,0.049839l-0.03118,0.020985l-0.036377,-0.034101l0.010393,-0.036724l0.072753,-0.065578l0.01559,-0.04197l0.033778,-0.018362l0.083147,0.039347l0.01559,0.055086l0.059762,0.034101l0.036377,-0.031478l-0.04677,-0.078694l-0.020787,-0.081317l0.023385,-0.031478l0.098737,-0.005246l0.020787,0.028854l-0.03118,0.070824l0.028582,0.020985l0.051967,-0.023608l0.005197,-0.052463l-0.085745,-0.136403l-0.012992,-0.08394l0.01559,-0.039347v-0.115418l-0.09354,-0.089186l-0.080548,-0.180996l-0.101335,-0.120664l-0.049368,-0.028854l-0.1559,-0.215097l-0.020787,-0.078694l-0.051967,-0.047216l-0.04677,0.002623l-0.096138,-0.076071l-0.101335,-0.186242l-0.044172,-0.023608l-0.168892,-0.254444l-0.189678,-0.34363l-0.158498,-0.278052l-0.050234,-0.206353l-0.162829,-0.2798l-0.211331,-0.16788l-0.270227,-0.26581l-0.225189,-0.185368l-0.051967,-0.02798l-0.006496,0.02369l0.035889,0.050167l-0.015536,0.020575l-0.069289,-0.010493l-0.038109,0.020985l-0.110862,-0.02798l-0.006929,-0.048965l-0.03118,-0.01399l-0.038109,0.017488l-0.169758,-0.080443l-0.027716,-0.052463l-0.038109,-0.006995l-0.058896,0.038473l-0.048502,-0.006995l-0.020787,-0.038473h-0.03118l-0.017322,0.031478l-0.076218,0.017488l-0.027716,0.048965l-0.131649,0.04197l-0.03118,-0.024483l-0.024251,0.01399l-0.003464,0.045468l-0.097004,0.006995l-0.142042,-0.010493l-0.090942,-0.008744l-0.033778,-0.026231l0.010393,-0.020985h0.09354l0.01559,-0.028854l-0.050194,-0.025168l-0.031221,-0.022923l0.010393,-0.024483l0.081414,0.025357l0.01559,-0.011367l-0.163695,-0.096181l-0.051101,-0.008744l-0.027716,-0.01399l-0.024251,-0.04197l-0.058896,-0.010493l-0.045038,0.017488l-0.138578,-0.06995l-0.041573,-0.059458l-0.114327,-0.06995l-0.132515,-0.04197l-0.025983,0.010493l0.002598,0.028854l0.12472,0.058583l0.242511,0.188865l0.117791,0.146895l-0.010393,0.062955l-0.051967,0.020985l-0.069289,0.094433l-0.166293,0.094433l-0.148971,0.052463l-0.045038,0.038473v0.076945l0.038109,0.048965l-0.041573,0.045468v0.05596l0.048502,0.017488l0.065824,-0.003498l0.045038,0.01399l0.083147,0.073448l0.003464,0.045468l-0.034644,0.031478v0.04197l0.034644,0.045468v0.1399l-0.051967,0.094433l-0.03118,0.146895l-0.048502,0.048965l-0.03118,0.087438l-0.027716,0.199358l-0.041573,0.052463l-0.058896,0.118915l-0.045038,0.024483l-0.055431,0.006995l-0.086611,0.073448l-0.017322,0.062955l-0.06236,0.02798l-0.048502,0.034975l-0.024251,0.048965l-0.06236,0.006995l-0.038109,-0.024483l-0.013858,-0.073448l0.027716,-0.017488v-0.031478l-0.12472,-0.066453l-0.072753,-0.090935l0.017322,-0.024483l0.086611,0.038473l0.06236,0.048965l0.034644,0.006995l-0.010393,-0.024483l-0.045038,-0.034975l-0.090076,-0.118915l-0.159365,-0.104925l-0.226921,-0.071699l-0.278888,-0.015739l-0.050234,0.015739l-0.008661,0.019236l0.012126,0.054211l-0.038109,0.024483h-0.09354l-0.01559,0.01399l0.029448,0.006995l0.076218,-0.003498l0.045038,-0.015739l0.055431,-0.003498l0.17149,0.047216l0.232118,0.129408l0.147239,0.127659l0.103933,0.136403l0.129917,0.201107l0.022519,0.066453l-0.005197,0.06995l-0.038109,0.132905l-0.012126,0.059458l0.008661,0.061206l0.050234,0.045468l0.100469,0.211599l0.001732,0.038473l-0.020787,0.019236l-0.013858,0.029729l0.006929,0.103176l-0.008661,0.052463l-0.020787,0.019236l-0.001732,0.050714l0.010393,0.047216l-0.013858,0.061206l-0.041573,0.020985l-0.039841,0.064704l-0.006929,0.045468l0.003464,0.08394l-0.010393,0.040221l-0.045038,0.010493l-0.051967,0.02798l-0.041573,0.005246l-0.013858,-0.01399l-0.020787,0.003498l-0.005197,0.038473l-0.013858,0.272805l-0.013858,0.031478l-0.043306,0.033226l-0.029448,0.057709l0.006929,0.253569l-0.022519,0.022734l-0.020787,0.071699l0.012126,0.045468l-0.008661,0.068201l-0.032912,0.033226l-0.032912,0.068201l-0.022519,0.09793l-0.065824,0.022734v0.031478l0.074486,0.050714l0.025983,0.047216l0.008661,0.059458l-0.013858,0.017488l0.010393,0.05596l0.036377,0.038473l0.010393,0.06995l-0.050234,0.040221l-0.013858,0.062955l-0.057163,0.071699l-0.029448,-0.012241l-0.008661,0.010493l0.022519,0.02798l-0.001732,0.015739l-0.019054,0.003498l0.003464,0.026231l0.088343,0.078694l0.067557,0.103176l-0.008661,0.052463l-0.036377,0.012241l-0.012126,0.019236l0.010393,0.036724l-0.020787,0.015739l-0.117791,-0.006995l-0.12472,-0.038473l-0.048502,-0.089186l0.024251,-0.064704v-0.031478l-0.008661,-0.02798l0.005197,-0.02798l0.032912,-0.019236l-0.003464,-0.01399l-0.053699,-0.024483l-0.019054,-0.054211l0.012126,-0.059458v-0.047216l-0.019054,-0.026231l-0.001732,-0.052463l0.029448,-0.024483l0.025983,-0.066453l0.012126,-0.08394l-0.022519,-0.031478l-0.005197,-0.04197l0.058896,-0.064704l0.022519,0.008744l0.008661,0.017488l0.022519,-0.005246l-0.001732,-0.036724l-0.013858,-0.045468l0.041573,-0.061206l-0.019054,-0.017488l-0.029448,0.008744l-0.058896,0.075196l-0.046878,0.037817l-0.009663,-0.002787l0.019325,-0.026477l0.004141,-0.037626l0.017945,-0.015329l0.03865,-0.011148l0.022086,-0.027871l0.009663,-0.029264h-0.012423l-0.019325,0.02369l-0.012423,-0.005574l0.017945,-0.037626l-0.006902,-0.039019l0.024847,-0.041806l0.022086,-0.008361v-0.013935l-0.019325,-0.004181l0.009663,-0.037626l0.024847,-0.044593l0.030368,-0.094761l0.023466,-0.0432l0.00138,-0.020903l-0.022086,-0.01951l0.009663,-0.015329l-0.009663,-0.004181l-0.024847,0.012542l-0.005521,0.040413v0.06689l-0.042791,0.100335l-0.005521,0.039019l-0.027607,0.065496l-0.033129,0.050167l-0.022086,0.112877l-0.005521,0.036232l-0.027607,0.036232l-0.060736,0.034838l-0.028988,-0.005574l-0.03727,0.027871l-0.004141,0.02369l0.015184,0.082219l0.019325,0.044593l0.012423,0.096154l-0.004141,0.094761l-0.011043,0.012542v0.020903l0.022086,0.04738l0.00138,0.100335l-0.006902,0.022297l0.00138,0.030658l0.062116,0.18116l0.030368,0.121238l0.040031,0.108696l0.071779,0.280101l0.053834,0.193702l0.035889,0.146321l0.040031,0.220179l0.013804,0.147715l-0.00138,0.168618l-0.008282,0.045987l-0.03865,0.020903l-0.006902,0.016722l0.008282,0.075251l0.002761,0.112877l0.00138,0.085006l0.017945,0.083612l0.013804,0.107302l0.049693,0.209031l0.034509,0.126812l0.020705,0.15747l0.035889,0.170012l0.016564,0.135173l-0.005521,0.188128l-0.019894,0.030002l-0.041573,0.020985Z M938.37968,415.947978l0.020787,-0.006995l-0.017322,-0.026231l-0.027716,-0.008744l-0.006929,0.019236l0.03118,0.022734Z M937.229483,419.926391l-0.005197,0.012241l0.010393,0.008744l0.01559,-0.010493l-0.003464,-0.012241l-0.017322,0.001749Z M937.274575,419.746706v0.013935l0.013804,0.008361l0.012423,-0.008361l-0.006902,-0.013935h-0.019325Z M937.241338,420.000576l0.003167,0.011886l0.016158,-0.002131v-0.012542l-0.011043,-0.006968l-0.008282,0.009755Z M937.218468,420.096785l0.006541,0.017788l0.011404,-0.001066l0.002761,-0.018116l-0.012423,-0.008361l-0.008282,0.009755Z M937.172185,419.779195l0.004141,0.013935l0.020705,-0.001394l0.006902,-0.012542l-0.015184,-0.006968l-0.016564,0.006968Z M937.350252,420.20283l0.008282,-0.009755l-0.009663,-0.032051l-0.013804,-0.005574v0.01951l0.015184,0.027871Z M937.126633,420.147089l-0.00138,0.013935l0.005521,0.012542l0.009663,-0.011148v-0.016722l-0.013804,0.001394Z M937.263289,419.821001l-0.015184,-0.025084l-0.020705,-0.008361l-0.008282,0.016722l0.008282,0.02369l0.019325,0.009755l0.016564,-0.016722Z M937.303319,419.72206l0.017945,-0.006968l-0.00138,-0.025084l-0.017945,-0.011148l-0.013804,0.004181l0.00138,0.022297l0.013804,0.016722Z M937.34473,419.634267l0.009663,-0.011148l-0.012423,-0.030658l-0.002761,-0.030658l-0.016564,-0.012542l-0.009663,0.016722l0.013804,0.041806l0.017945,0.026477Z M937.190129,420.032819l0.019325,-0.013935l-0.005521,-0.011148l-0.016564,0.004181l-0.008282,0.015329l0.011043,0.005574Z M936.744461,416.857329l0.019325,-0.013935l-0.005521,-0.011148l-0.016564,0.004181l-0.008282,0.015329l0.011043,0.005574Z M936.599008,416.835033v0.013935l0.013804,0.008361l0.012423,-0.008361l-0.006902,-0.013935h-0.019325Z M936.678636,416.866073l0.013858,-0.006995l-0.019054,-0.019236h-0.020787l0.003464,0.017488l0.022519,0.008744Z M936.55615,416.823452l-0.007227,0.009837l0.012423,0.006968l0.013804,-0.004181l0.004141,-0.011148l-0.023141,-0.001476Z M937.349007,419.317825l-0.003464,-0.019236l-0.003464,-0.045468l-0.010393,-0.001749l-0.005197,0.045468l0.013858,0.031478l0.008661,-0.010493Z M937.333417,419.22689h0.013858l0.013858,-0.031478l-0.012126,-0.006995l-0.01559,0.012241v0.026231Z M937.325405,419.166038h0.015184l-0.008282,-0.012542l-0.033129,-0.026477l-0.034509,-0.075251l-0.009663,-0.06689l0.033129,-0.096154l-0.013804,-0.058529l-0.012423,-0.005574l-0.004141,0.013935l0.011043,0.044593l-0.004141,0.025084l-0.027607,0.048774l-0.00138,0.033445l0.019325,0.073857l0.034509,0.072464l0.035889,0.029264Z "/>
</svg>
