<svg xmlns="http://www.w3.org/2000/svg" viewBox="936.079 413.945 8.775 14.505">
  <path d="M936.103,415.584l0.014,0.014l-0.003,0.024l-0.028-0.003l-0.007-0.024L936.103,415.584z M937.434,415.417l0.003,0.012l0.016-0.002v-0.012l-0.011-0.007L937.434,415.417z M937.919,415.323l0.018-0.035l-0.004-0.034l-0.039-0.009l-0.015,0.023l0.018,0.028l0.003,0.025L937.919,415.323z M937.751,415.959l0.008,0.041l0.038,0.007l0.024-0.014l0.031,0.017l0.013,0.033l0.019-0.01l0.003-0.036l-0.01-0.019l-0.046-0.027l-0.01-0.038l-0.024-0.002L937.751,415.959z M936.605,415.21l0.156,0.073l0.08-0.003l0.031-0.045l-0.017-0.118l-0.042-0.031h-0.062l-0.052-0.017l-0.062-0.073h-0.052l-0.021,0.035l0.01,0.125L936.605,415.21z M937.334,414.755h0.023l0.003-0.031l-0.029-0.034l-0.018,0.013L937.334,414.755z M936.988,414.859l0.023,0.021l0.018-0.018l-0.005-0.052l0.005-0.057l-0.029-0.01l-0.026,0.023v0.042L936.988,414.859z M937.152,414.493l0.018,0.01l-0.003-0.049l0.013-0.049l-0.013-0.01l-0.021,0.042L937.152,414.493z M937.011,414.656l0.023-0.008l0.008-0.036l0.026-0.042l-0.003-0.065l-0.023-0.005l-0.047,0.057l-0.016,0.06L937.011,414.656z M937.097,414.888l0.065,0.034l0.153,0.026l0.031-0.021l0.008-0.109l-0.003-0.026l-0.052-0.034l-0.021-0.003l-0.018,0.029l-0.049-0.018l-0.029-0.036h-0.023l-0.013,0.029l-0.008,0.055l0.008,0.039l-0.021,0.003l-0.026-0.026l-0.01,0.021L937.097,414.888z M937.391,414.43l0.039,0.003l0.036-0.018l0.008-0.023l-0.018-0.026v-0.034l0.031-0.101l-0.023-0.021l-0.029,0.016l-0.052-0.003l-0.039,0.008l-0.023,0.044l0.023,0.049v0.036l-0.029,0.023l0.01,0.023L937.391,414.43z M937.409,414.695l0.091,0.062l0.034-0.005l0.018-0.036l0.036-0.01l0.088,0.021l0.049,0.042l0.042,0.003l0.029-0.046l0.017-0.01l0.005,0.01l-0.023,0.061l-0.042,0.008l-0.016,0.018l0.078,0.021l0.057-0.031l0.026-0.086l-0.026-0.062l-0.039-0.008l-0.062,0.052l-0.052-0.005l-0.133-0.086l-0.003-0.018l0.031-0.008l0.003-0.044l-0.023-0.016l-0.036,0.018l-0.06,0.023l-0.013-0.021l0.005-0.029l-0.026-0.039l-0.029-0.013l-0.049,0.01l-0.016-0.018l-0.031-0.01l-0.031,0.003l-0.034-0.01l-0.008,0.018l0.026,0.029l-0.008,0.036l0.07,0.099l0.023,0.07L937.409,414.695z M938.639,414.872h-0.028l-0.035-0.026l0.01-0.017l-0.005-0.012l-0.064-0.007l-0.01-0.014l0.016-0.012v-0.019l-0.019-0.023l0.002-0.035l-0.009-0.016l-0.028-0.016l-0.016-0.026l0.019-0.017l0.069,0.002l0.194,0.087l0.284,0.165l0.123,0.08l0.066,0.062l0.073,0.099l0.066,0.047l0.043,0.003l0.002-0.043l-0.019-0.047l0.01-0.017l0.061,0.021l0.054,0.047l0.062-0.01l0.017-0.01l-0.047-0.042l0.003-0.035l0.023-0.002l0.08,0.061l0.217,0.083l0.094,0.049l0.059,0.05l0.05,0.023l0.019-0.009l0.002-0.031l-0.16-0.111l-0.257-0.226l-0.2-0.148l-0.244-0.197l-0.148-0.166l-0.049-0.083l-0.146-0.21l-0.062-0.13l-0.023-0.018l-0.065-0.005l-0.055-0.026l-0.034,0.003l-0.044,0.023l-0.083,0.016l-0.068-0.008l-0.073,0.018l-0.083,0.047l-0.14-0.003l-0.078-0.021h-0.138l-0.062,0.023l-0.081,0.005l-0.114,0.047l-0.023,0.039l-0.055,0.036l-0.049,0.005l-0.023,0.021l0.005,0.052l0.031,0.021l0.055,0.091l-0.01,0.039l0.049,0.083l0.039,0.008l0.039-0.047h0.023l-0.005,0.029l0.06,0.036l0.029-0.013l0.023,0.016l0.018,0.07l0.047,0.052l0.091,0.018l0.034-0.005l0.075,0.031l0.091,0.078l0.133,0.049l0.021-0.01l-0.06-0.029l-0.078-0.07l-0.052-0.021l-0.018-0.039l0.01-0.021l0.039,0.034l0.205,0.099l0.036,0.049l0.133,0.092l0.031,0.005l0.028-0.008L938.639,414.872z M938.483,414.656l-0.005,0.012l0.01,0.009l0.016-0.01l-0.003-0.012L938.483,414.656z M937.507,414.274l0.007,0.008l0.011-0.003l-0.001-0.014l-0.014-0.003L937.507,414.274z M937.906,414.671l0.012-0.003l-0.021-0.028h-0.017l0.009,0.019L937.906,414.671z M937.191,423.618l-0.021,0.049l0.013,0.094l0.086,0.242l0.094,0.413l-0.003,0.091l-0.039,0.031l-0.016,0.047l-0.023,0.023h-0.068l-0.034,0.023l0.005,0.031l0.075,0.018l0.039,0.099l0.039,0.179l-0.003,0.062l0.021,0.101l0.117,0.346l0.081,0.151l0.088,0.216l0.044,0.179l0.088,0.192l-0.016,0.049l0.029,0.083l-0.039,0.042l0.008,0.073l0.049,0.055l0.06,0.156l0.029,0.14l0.047,0.057l0.029,0.062l-0.013,0.029l0.005,0.049l0.036,0.047l-0.023,0.088v0.047l0.057,0.07l0.052,0.13l-0.01,0.026l0.008,0.034l0.096,0.088l0.026,0.052l0.005,0.044l0.029,0.052l0.068,0.06l0.013,0.044l0.062,0.031l0.018,0.039l0.096,0.06l0.021,0.044l0.13,0.101l0.031,0.003l-0.003-0.031l0.023-0.01l0.026,0.027l0.001,0.046l0.025,0.031l0.032,0.003l0.054,0.03l0.182,0.031l0.213,0.091l0.169,0.031l0.026-0.01l0.044-0.039l0.044,0.003l0.026,0.026l-0.01,0.034l0.016,0.044l0.083,0.023l0.065-0.013l0.094,0.018l0.049-0.016l0.075-0.005l0.096,0.034l0.026,0.039l0.029,0.003l0.023-0.023l0.06-0.021l0.031-0.039l0.052-0.013l0.031-0.026l0.052-0.018l0.153-0.005l0.052-0.016l0.036-0.049l0.044,0.016l0.018-0.013l-0.008-0.034l0.044-0.055l0.062-0.01l0.109-0.052l0.005-0.044l0.023-0.034l0.148-0.031l0.052,0.008l0.029-0.01l0.005-0.031l0.031-0.023l0.088-0.008l0.101-0.042l0.036-0.029l0.042-0.016l0.062,0.003l0.055-0.005l0.049-0.036l0.068-0.029l0.262-0.026l0.159-0.039l0.088-0.07l0.081-0.018l0.039-0.039l0.138-0.042l0.047-0.013l0.062-0.044l0.096-0.01l0.057-0.031l0.122-0.018l0.023-0.01l0.052-0.088l0.096-0.039l0.042-0.031l0.117-0.057l0.049-0.07l0.078-0.078l0.14-0.055l0.026-0.044l0.023-0.023l0.023-0.029l0.003-0.034l0.094-0.052l0.138-0.042l0.026-0.047l0.101-0.055l0.042-0.039l0.055-0.023l-0.003-0.018l-0.023-0.003l0.003-0.029l0.034-0.029l0.081-0.029l0.044-0.036l0.026-0.047l0.135-0.104l0.026-0.078l0.125-0.231l0.057-0.042l0.021-0.052l-0.005-0.042l0.052-0.143l-0.01-0.068l0.023-0.052l0.078-0.088l0.013-0.036l-0.003-0.044l0.01-0.036l0.06-0.075l0.013-0.042l-0.018-0.081l0.018-0.091l0.013-0.039l0.044-0.039l0.003-0.018l-0.021-0.021l0.005-0.049l0.034-0.049l0.008-0.091l-0.003-0.068l0.073-0.192l0.005-0.039v-0.068l0.042-0.091l-0.003-0.044l-0.031-0.047l-0.036-0.218l-0.01-0.13l0.018-0.06l0.003-0.216l0.008-0.216l0.016-0.055l-0.008-0.143l-0.013-0.091l-0.055-0.14l-0.016-0.075l-0.021-0.062l-0.049-0.068l-0.029-0.104l-0.034-0.21l-0.036-0.2l-0.078-0.221l-0.166-0.283l-0.099-0.156l-0.055-0.052l-0.068-0.01l-0.104-0.065l-0.049-0.096l-0.034-0.036l-0.07-0.016l-0.094-0.068l-0.047-0.12l-0.003-0.13l0.037-0.009l0.023-0.021l-0.012-0.014l-0.04-0.001l-0.029-0.016v-0.026l-0.014-0.024l-0.029-0.007l-0.031-0.061l-0.009-0.046l0.01-0.017l0.029-0.003l0.023-0.019l-0.008-0.026l-0.031,0.003l-0.01,0.018l-0.049,0.008l-0.049-0.042l-0.052-0.018l-0.101-0.14l-0.055-0.172l0.01-0.06l-0.008-0.023l-0.036-0.029l-0.047-0.107l-0.013-0.094l-0.039-0.117l-0.034-0.044l-0.044-0.205l-0.052-0.195l0.003-0.078l-0.005-0.047l-0.055-0.161l-0.062-0.273l-0.003-0.031l-0.018-0.031l-0.096-0.083l-0.029-0.003l-0.01,0.034l-0.036,0.029l-0.068,0.008l-0.013,0.026l0.026,0.044l-0.016,0.055l-0.052,0.031l-0.187,0.003l-0.086-0.055l-0.016-0.06l-0.016-0.036l-0.062-0.026l-0.075,0.01l-0.034,0.049l-0.031,0.021l-0.036-0.034l0.01-0.036l0.073-0.065l0.016-0.042l0.034-0.018l0.083,0.039l0.016,0.055l0.06,0.034l0.036-0.031l-0.047-0.078l-0.021-0.081l0.023-0.031l0.099-0.005l0.021,0.029l-0.031,0.07l0.029,0.021l0.052-0.023l0.005-0.052l-0.086-0.135l-0.013-0.083l0.016-0.039v-0.114l-0.094-0.088l-0.081-0.179l-0.101-0.12l-0.049-0.029l-0.156-0.213l-0.021-0.078l-0.052-0.047l-0.047,0.003l-0.096-0.075l-0.101-0.184l-0.044-0.023l-0.169-0.252l-0.19-0.34l-0.159-0.275l-0.05-0.204l-0.163-0.277l-0.211-0.166l-0.27-0.263l-0.225-0.184l-0.052-0.028l-0.006,0.023l0.036,0.05l-0.016,0.02l-0.069-0.01l-0.038,0.021l-0.111-0.028l-0.007-0.048l-0.031-0.014l-0.038,0.017l-0.17-0.08l-0.028-0.052l-0.038-0.007l-0.059,0.038l-0.049-0.007l-0.021-0.038h-0.031l-0.017,0.031l-0.076,0.017l-0.028,0.048l-0.132,0.042l-0.031-0.024l-0.024,0.014l-0.003,0.045l-0.097,0.007l-0.142-0.01l-0.091-0.009l-0.034-0.026l0.01-0.021h0.094l0.016-0.029l-0.05-0.025l-0.031-0.023l0.01-0.024l0.081,0.025l0.016-0.011l-0.164-0.095l-0.051-0.009l-0.028-0.014l-0.024-0.042l-0.059-0.01l-0.045,0.017l-0.139-0.069l-0.042-0.059l-0.114-0.069l-0.133-0.042l-0.026,0.01l0.003,0.029l0.125,0.058l0.243,0.187l0.118,0.146l-0.01,0.062l-0.052,0.021l-0.069,0.094l-0.166,0.094l-0.149,0.052l-0.045,0.038v0.076l0.038,0.048l-0.042,0.045v0.055l0.049,0.017l0.066-0.003l0.045,0.014l0.083,0.073l0.003,0.045l-0.035,0.031v0.042l0.035,0.045v0.139l-0.052,0.094l-0.031,0.146l-0.048,0.049l-0.031,0.087l-0.028,0.197l-0.042,0.052l-0.059,0.118l-0.045,0.024l-0.055,0.007l-0.087,0.073l-0.017,0.062l-0.062,0.028l-0.049,0.035l-0.024,0.048l-0.062,0.007l-0.038-0.024l-0.014-0.073l0.028-0.017v-0.031l-0.125-0.066l-0.073-0.09l0.017-0.024l0.087,0.038l0.062,0.048l0.035,0.007l-0.01-0.024l-0.045-0.035l-0.09-0.118l-0.159-0.104l-0.227-0.071l-0.279-0.016l-0.05,0.016l-0.009,0.019l0.012,0.054l-0.038,0.024h-0.094l-0.016,0.014l0.029,0.007l0.076-0.003l0.045-0.016l0.055-0.003l0.172,0.047l0.232,0.128l0.147,0.126l0.104,0.135l0.13,0.199l0.023,0.066l-0.005,0.069l-0.038,0.132l-0.012,0.059l0.009,0.061l0.05,0.045l0.1,0.21l0.002,0.038l-0.021,0.019l-0.014,0.029l0.007,0.102l-0.009,0.052l-0.021,0.019l-0.002,0.05l0.01,0.047l-0.014,0.061l-0.042,0.021l-0.04,0.064l-0.007,0.045l0.003,0.083l-0.01,0.04l-0.045,0.01l-0.052,0.028l-0.042,0.005l-0.014-0.014l-0.021,0.003l-0.005,0.038l-0.014,0.27l-0.014,0.031l-0.043,0.033l-0.029,0.057l0.007,0.251l-0.023,0.023l-0.021,0.071l0.012,0.045l-0.009,0.068l-0.033,0.033l-0.033,0.068l-0.023,0.097l-0.066,0.023v0.031l0.074,0.05l0.026,0.047l0.009,0.059l-0.014,0.017l0.01,0.055l0.036,0.038l0.01,0.069l-0.05,0.04l-0.014,0.062l-0.057,0.071l-0.029-0.012l-0.009,0.01l0.023,0.028l-0.002,0.016l-0.019,0.003l0.003,0.026l0.088,0.078l0.068,0.102l-0.009,0.052l-0.036,0.012l-0.012,0.019l0.01,0.036l-0.021,0.016l-0.118-0.007l-0.125-0.038l-0.048-0.088l0.024-0.064v-0.031l-0.009-0.028l0.005-0.028l0.033-0.019l-0.003-0.014l-0.054-0.024l-0.019-0.054l0.012-0.059v-0.047l-0.019-0.026l-0.002-0.052l0.029-0.024l0.026-0.066l0.012-0.083l-0.023-0.031l-0.005-0.042l0.059-0.064l0.023,0.009l0.009,0.017l0.022-0.005l-0.002-0.036l-0.014-0.045l0.042-0.061l-0.019-0.017l-0.029,0.009l-0.059,0.074l-0.047,0.037l-0.01-0.003l0.019-0.026l0.004-0.037l0.018-0.015l0.039-0.011l0.022-0.028l0.01-0.029h-0.012l-0.019,0.023l-0.012-0.006l0.018-0.037l-0.007-0.039l0.025-0.041l0.022-0.008v-0.014l-0.019-0.004l0.01-0.037l0.025-0.044l0.03-0.094l0.023-0.043l0.001-0.021l-0.022-0.019l0.01-0.015l-0.01-0.004l-0.025,0.012l-0.006,0.04v0.066l-0.043,0.099l-0.005,0.039l-0.028,0.065l-0.033,0.05l-0.022,0.112l-0.006,0.036l-0.028,0.036l-0.061,0.034l-0.029-0.006l-0.037,0.028l-0.004,0.023l0.015,0.081l0.019,0.044l0.012,0.095l-0.004,0.094l-0.011,0.012v0.021l0.022,0.047l0.001,0.099l-0.007,0.022l0.001,0.03l0.062,0.179l0.03,0.12l0.04,0.108l0.072,0.277l0.054,0.192l0.036,0.145l0.04,0.218l0.014,0.146l-0.001,0.167l-0.008,0.046l-0.039,0.021l-0.007,0.017l0.008,0.075l0.003,0.112l0.001,0.084l0.018,0.083l0.014,0.106l0.05,0.207l0.034,0.126l0.021,0.156l0.036,0.168l0.017,0.134l-0.005,0.186l-0.02,0.03L937.191,423.618z M938.178,415.892l0.021-0.007l-0.017-0.026l-0.028-0.009l-0.007,0.019L938.178,415.892z M937.028,419.833l-0.005,0.012l0.01,0.009l0.016-0.01l-0.003-0.012L937.028,419.833z M937.073,419.655v0.014l0.014,0.008l0.012-0.008l-0.007-0.014H937.073z M937.04,419.907l0.003,0.012l0.016-0.002v-0.012l-0.011-0.007L937.04,419.907z M937.017,420.002l0.007,0.018l0.011-0.001l0.003-0.018l-0.012-0.008L937.017,420.002z M936.971,419.687l0.004,0.014l0.021-0.001l0.007-0.012l-0.015-0.007L936.971,419.687z M937.149,420.107l0.008-0.01l-0.01-0.032l-0.014-0.006v0.019L937.149,420.107z M936.925,420.052l-0.001,0.014l0.006,0.012l0.01-0.011v-0.017L936.925,420.052z M937.062,419.729l-0.015-0.025l-0.021-0.008l-0.008,0.017l0.008,0.023l0.019,0.01L937.062,419.729z M937.102,419.631l0.018-0.007l-0.001-0.025l-0.018-0.011l-0.014,0.004l0.001,0.022L937.102,419.631z M937.143,419.544l0.01-0.011l-0.012-0.03l-0.003-0.03l-0.017-0.012l-0.01,0.017l0.014,0.041L937.143,419.544z M936.989,419.939l0.019-0.014l-0.006-0.011l-0.017,0.004l-0.008,0.015L936.989,419.939z M936.543,416.793l0.019-0.014l-0.006-0.011l-0.017,0.004l-0.008,0.015L936.543,416.793z M936.397,416.771v0.014l0.014,0.008l0.012-0.008l-0.007-0.014H936.397z M936.477,416.802l0.014-0.007l-0.019-0.019h-0.021l0.003,0.017L936.477,416.802z M936.355,416.76l-0.007,0.01l0.012,0.007l0.014-0.004l0.004-0.011L936.355,416.76z M937.147,419.23l-0.003-0.019l-0.003-0.045l-0.01-0.002l-0.005,0.045l0.014,0.031L937.147,419.23z M937.132,419.14h0.014l0.014-0.031l-0.012-0.007l-0.016,0.012V419.14z M937.124,419.08h0.015l-0.008-0.012l-0.033-0.026l-0.035-0.075l-0.01-0.066l0.033-0.095l-0.014-0.058l-0.012-0.006l-0.004,0.014l0.011,0.044l-0.004,0.025l-0.028,0.048l-0.001,0.033l0.019,0.073l0.034,0.072L937.124,419.08z"/>
</svg>
