<svg xmlns="http://www.w3.org/2000/svg" viewBox="741.563 559.396 9.059 8.538">
  <path d="M745.645,567.934l-0.112-0.086l-0.294,0.015l-0.045-0.028l-0.054,0.01l-0.128-0.041l-0.073-0.087l0.005-0.056l-0.031-0.031l-0.054,0.003l-0.073,0.046l-0.211,0.008l-0.083,0.015l-0.079-0.008l-0.08-0.043l-0.055-0.008l-0.031-0.023l-0.005-0.038l-0.073-0.085l-0.068-0.038l-0.015-0.069l-0.047-0.031l-0.039-0.013l-0.06-0.056l-0.055-0.011l-0.063-0.047l0.002-0.035l-0.024-0.005l-0.029,0.003l-0.004-0.021l0.032-0.027l-0.006-0.048l-0.053-0.061l0.019-0.031l-0.015-0.013l-0.092,0.009l-0.031-0.042l0.012-0.048l-0.049-0.098l-0.067-0.048l-0.019-0.031l-0.061-0.002l-0.027,0.024l-0.031-0.018l0.004-0.042l-0.02-0.01l-0.027,0.006l-0.014-0.009v-0.035l-0.043-0.044v-0.116l-0.029-0.034l-0.051-0.002l-0.045,0.036l-0.074,0.004l-0.088,0.058l-0.047,0.004l-0.025-0.043l0.033-0.032l0.026-0.044l-0.002-0.023l-0.041-0.014v-0.019l0.019-0.025l-0.004-0.037l-0.027-0.023l-0.027,0.012l-0.02-0.015l-0.002-0.068l0.012-0.048l-0.008-0.134l0.02-0.04l-0.014-0.041l0.012-0.011l0.035,0.013l0.021-0.017l-0.004-0.046l0.073-0.085l0.001-0.031l-0.025-0.038l-0.039,0.01l-0.119,0.002l-0.066,0.021l-0.043-0.008l-0.116-0.371l-0.05-0.036l-0.047-0.018l-0.016-0.036l0.014-0.023l-0.006-0.017h-0.059l-0.064-0.062l-0.064,0.006l-0.004-0.014l0.027-0.021l-0.012-0.052l-0.46-1.066l-0.151-0.117l-0.058-0.084l-0.102-0.072l0.004-0.038l0.045-0.04v-0.029l-0.027-0.05l0.006-0.023l0.044-0.008l0.028,0.023l0.021,0.052l0.035,0.017l0.022-0.007l0.017-0.062l0.002-0.092l0.022,0.002l0.039,0.063l0.029-0.005l0.055-0.047l0.014-0.046l0.064-0.059l0.068-0.012l0.033-0.042l0.049-0.006l0.092,0.037h0.049l0.023-0.052l0.043-0.044h0.028l0.019,0.034h0.047l0.027-0.025l0.016-0.054l0.057-0.028l0.062,0.03l0.045-0.002l0.01-0.032l-0.016-0.054l0.021-0.069l0.075-0.052l0.029-0.002l0.053,0.027h0.039l0.015-0.023l-0.002-0.031l-0.025-0.036l0.006-0.06l0.056-0.021l0.036-0.038l0.044-0.104l0.016-0.002l0.037,0.013l0.055-0.03l-0.006-0.075l-0.053-0.05l-0.004-0.042l0.018-0.004l0.057,0.036l0.027-0.011l0.01-0.152l0.115-0.056l-0.002-0.025l-0.047-0.046l0.012-0.027l0.072-0.007l0.031,0.04l0.018-0.002l-0.004-0.042l0.033-0.035l0.059-0.009l0.043-0.07l0.062-0.025l0.016-0.042l-0.049-0.04l-0.039,0.015l-0.014-0.008l0.012-0.032l-0.025-0.037l0.029-0.03l0.041-0.004l0.066-0.069l0.053-0.02l0.037-0.04l0.018-0.063h0.033l0.031,0.015l0.053-0.031l0.009-0.044l-0.052-0.059l0.033-0.025l0.047,0.015l0.049-0.029l-0.01-0.038l0.015-0.018l0.041,0.004l0.02-0.05l-0.041-0.073l0.023-0.017l0.055,0.013l0.049-0.026l-0.004-0.052l-0.051-0.025h-0.054l-0.028-0.039l0.031-0.025l0.053,0.019l0.031-0.021l-0.004-0.04l0.01-0.017h0.041l0.004-0.023l-0.012-0.048l0.028-0.023l0.062,0.028l0.024-0.015l0.009-0.061l-0.037-0.029l0.006-0.014l0.045-0.005l0.02-0.052l-0.004-0.039l0.052-0.077h0.026l0.023,0.016l0.033-0.004v-0.048l0.026-0.037l-0.01-0.026l-0.031-0.035v-0.035l0.031,0.004l0.051,0.039l0.043,0.002l0.017,0.015l0.016,0.027l0.088,0.006l0.029-0.05h0.02l0.019,0.027l0.02-0.004l0.017-0.029h0.022l0.047,0.054l0.072-0.002l0.039-0.054l-0.002-0.054l-0.033-0.023l0.023-0.023h0.074l0.02-0.027l-0.002-0.044l0.068-0.058l0.031,0.006l0.069,0.054l0.021,0.046l0.067,0.015l0.037-0.019h0.043l0.025,0.021l0.039-0.002l0.016-0.021l-0.024-0.052l0.02-0.027l0.099-0.042l0.002-0.032l-0.027-0.041l0.01-0.042l0.033-0.012l0.049,0.006l0.045-0.044l0.052-0.138l0.047-0.039l0.004-0.055l0.02-0.012l0.033,0.004l0.07-0.065l0.037-0.012l0.033-0.048l0.045-0.021l0.014-0.044h0.015l0.02,0.059h0.053l0.089-0.052h0.034l0.099,0.029l0.043,0.041l0.045-0.004l0.051-0.069l0.027,0.001l0.037,0.027h0.03l0.031-0.036l0.025-0.002l0.022,0.031l0.019-0.006l0.049-0.065l-0.025-0.066l0.019-0.013l0.035-0.004l0.051-0.071l0.041-0.014l0.006-0.025l-0.024-0.026l0.006-0.023l0.037-0.008l0.047,0.023l0.045-0.023l0.076-0.01l0.053-0.048h0.103l0.036,0.037l0.021-0.002l0.041-0.05l0.027,0.002l0.02,0.015l0.096-0.008l0.031,0.02l0.092-0.012l0.111-0.106l0.039,0.002l0.043-0.038h0.037l0.111,0.079l0.012,0.042l0.057,0.046l0.002,0.029l-0.022,0.023v0.042l-0.018,0.014v0.027l0.041,0.026l0.002,0.077l0.063,0.033l0.012,0.023l0.05,0.002l0.032-0.013l0.031,0.003l0.084,0.064l0.049,0.004l0.05,0.04l0.006,0.044l-0.023,0.05l0.013,0.138l0.038,0.022l0.091-0.064l0.074-0.004l0.041,0.021l0.016,0.033l0.029,0.012l0.023-0.003l0.024-0.041l0.04-0.017l0.027,0.009l0.015,0.039l0.062,0.014l0.034,0.031l-0.001,0.019l-0.033,0.006l-0.001,0.019l0.049,0.027l-0.002,0.021l-0.046,0.005l-0.036,0.026l0.016,0.03l0.033,0.004l0.03,0.032v0.068l0.019,0.018l-0.003,0.015l-0.032,0.012l-0.002,0.027l0.023,0.02l0.048-0.001l0.004,0.019l-0.011,0.021l0.031,0.042l0.025,0.009l0.002,0.072l0.024,0.021l0.035-0.003l0.015-0.036l0.031-0.008l0.032-0.038l-0.005-0.032l0.022-0.018h0.024l0.023,0.033l0.007,0.045l0.034,0.038l0.004,0.023l0.096,0.004l0.032,0.021l0.001,0.058l0.013,0.011l0.052,0.001l0.038,0.04l0.028,0.009l0.068,0.062v0.014l-0.023,0.011l0.004,0.032l0.031,0.016l0.047-0.002l0.045,0.047v0.019l0.016,0.012l0.056,0.005l0.037,0.039l0.058,0.009l0.053,0.046l-0.002,0.023l-0.017,0.018v0.029l0.046,0.015l0.016,0.023l0.003,0.039l0.08,0.069l0.006,0.031h0.031l0.069-0.057l0.121,0.021l0.047,0.078l0.066,0.047l0.053,0.072l-0.004,0.035l-0.016,0.015l-0.006,0.03l-0.023,0.02l0.001,0.015l0.016,0.02l-0.001,0.033l-0.011,0.022l0.005,0.053l0.05,0.058l0.036,0.001l0.054-0.009l0.1,0.05l0.004,0.03l-0.017,0.024l0.004,0.016l0.034,0.015l0.024,0.047l-0.002,0.017l-0.021,0.018l0.002,0.019l0.075,0.03l0.002,0.044l-0.01,0.017l0.001,0.027l0.017,0.029v0.032l-0.014,0.013l0.001,0.018l0.052,0.041l0.011,0.053l-0.002,0.025l-0.04,0.025v0.064l0.026,0.024l-0.001,0.024l-0.041,0.045l-0.004,0.035l-0.061,0.005l-0.013,0.024l0.008,0.042l-0.012,0.02l-0.039,0.015l-0.022,0.041l-0.003,0.032l0.013,0.017l-0.001,0.015l-0.062,0.032l-0.034,0.001l-0.016,0.017l-0.027,0.045l-0.03-0.002l-0.03-0.017h-0.023l-0.016,0.023h-0.043l-0.025,0.025l0.009,0.025l-0.006,0.014l-0.04-0.002l-0.021-0.011l-0.042,0.016v0.025l0.047,0.061l-0.003,0.025l-0.039,0.007v0.018l0.065,0.058l-0.002,0.042l-0.022,0.024l0.001,0.017l0.064,0.044l-0.004,0.033l-0.034,0.033l-0.1,0.003l-0.007,0.02l0.031,0.076l-0.003,0.032l-0.033,0.019l-0.001,0.019l0.01,0.023l-0.01,0.048l-0.047,0.004l-0.029-0.015l-0.082,0.011l-0.017-0.014l-0.017,0.003l-0.014,0.026l-0.038,0.008l-0.037,0.047l-0.026,0.004l-0.03,0.037l-0.02,0.001l-0.015-0.007l-0.017-0.002l-0.025,0.038l-0.027-0.002l-0.012,0.013l-0.001,0.103l-0.047,0.033v0.052l0.009,0.022l0.001,0.021l-0.019,0.015l-0.024-0.005l-0.009,0.013l0.008,0.061l-0.021,0.03l-0.025,0.005l-0.001,0.014l0.016,0.02l-0.025,0.103v0.029l0.029,0.035l-0.002,0.051l-0.019,0.019l-0.031,0.004l-0.024,0.03l-0.03,0.012l0.001,0.018l0.128,0.048l0.025,0.024l0.001,0.019l-0.01,0.016v0.019l0.024,0.015l0.043-0.001l0.008,0.019l-0.01,0.072l0.03,0.032l-0.002,0.023l-0.05,0.033l-0.095,0.007l-0.039,0.034l-0.028,0.001l-0.012,0.022l-0.011,0.098l-0.076-0.05l-0.077,0.091l-0.041,0.024l-0.042,0.002l-0.03,0.022v0.03l-0.019,0.011l-0.035,0.003l-0.084,0.054l-0.017,0.058l-0.026,0.024l-0.066,0.001l-0.029,0.025l-0.021,0.002l-0.029-0.014l-0.019,0.005l-0.014,0.045l-0.046,0.016l-0.02,0.026l-0.032,0.002l-0.033,0.03l-0.075,0.013l-0.033,0.03l-0.047,0.002l-0.006,0.014l0.012,0.013l-0.012,0.026l-0.154,0.035l-0.065,0.004l-0.025,0.04l-0.052-0.002l-0.044-0.016l-0.049,0.003l-0.017,0.03l-0.122,0.028l-0.026,0.028l-0.066,0.007l-0.048,0.044l-0.042,0.002l-0.077-0.036l-0.051-0.001l-0.027,0.015l-0.043-0.001l-0.165-0.048h-0.09l-0.038,0.016l-0.014,0.03l-0.087,0.047l-0.012,0.021l-0.029,0.002l-0.031-0.009h-0.028l-0.036,0.023l-0.078,0.007l-0.135-0.047l-0.051,0.003l-0.021,0.052l-0.036,0.041l-0.059,0.003l-0.018,0.016l-0.057,0.148l-0.005,0.064l0.01,0.02l-0.016,0.019l-0.029-0.001l-0.015-0.015h-0.015l-0.017,0.029l-0.03,0.014l-0.017,0.04l-0.039,0.025l-0.06-0.002l-0.047-0.021l-0.027-0.001l-0.034,0.026l-0.06-0.003l-0.01,0.013l-0.007,0.031l-0.039,0.023l-0.053,0.061l-0.003,0.031l0.038,0.046l0.04,0.009l0.037,0.031l0.065,0.028v0.02l-0.013,0.021l0.001,0.035l0.06,0.053l-0.004,0.109l-0.035,0.08l-0.016,0.015l0.003,0.029l0.011,0.018l-0.009,0.013l-0.031-0.001l-0.022-0.028l-0.012,0.001l-0.035,0.067l-0.048,0.003l-0.03,0.025h-0.018l-0.02-0.012h-0.043l-0.075,0.078l-0.007,0.032l-0.03,0.026l0.003,0.022l0.091,0.087l-0.004,0.036l-0.023,0.024l-0.003,0.028l0.015,0.034l-0.002,0.014l-0.03,0.01l-0.041,0.051v0.023l0.019,0.03l-0.01,0.075l-0.081,0.081l-0.036,0.006l-0.025,0.021l-0.027,0.004l-0.015,0.021v0.023l0.026,0.045l0.004,0.081l0.018,0.035l-0.003,0.057L745.645,567.934z"/>
</svg>
