<svg xmlns="http://www.w3.org/2000/svg" viewBox="662.663 247.149 2.914 3.571">
  <path d="M664.134711,247.406731v0.022l-0.026,0.037l0.015,0.021l-0.012,0.03l0.014,0.012l-0.007,0.014l-0.024,0.001l-0.008,0.015l0.016,0.018l-0.003,0.013l-0.027,-0.004l-0.005,0.015l0.015,0.018l-0.002,0.019l-0.023,0.022l0.004,0.015l0.022,-0.002l0.003,0.019l-0.044,0.036l-0.002,0.03l0.035,0.011l0.036,0.064l-0.016,0.037l0.002,0.028l0.052,0.027l-0.008,0.029h-0.03l-0.002,0.017l0.059,0.032l-0.001,0.029l-0.03,0.008l0.004,0.027l0.088,0.033l0.026,0.025l-0.024,0.038l0.01,0.057l0.046,0.051l0.018,-0.011l-0.004,-0.045l0.002,-0.021l0.023,-0.002l0.016,0.005l0.011,0.069l0.06,0.021l0.03,0.032v0.09l0.028,0.022v0.054l0.024,0.051l0.078,0.07l0.054,0.031l0.028,-0.006l0.04,0.017l0.009,0.034l0.026,0.009l0.031,-0.015l0.024,0.008l-0.001,0.037l0.031,0.045l0.015,0.069l0.028,-0.007l0.037,-0.047l0.074,-0.01l0.143,0.15l0.174,0.038l0.066,-0.041h0.036l0.11,0.062l0.046,-0.021l0.032,0.01v0.028l-0.05,0.044l-0.013,0.035l0.024,0.023v0.092l-0.063,0.054l0.005,0.081l0.039,0.037l-0.009,0.016l-0.032,-0.007l-0.016,0.02l0.026,0.041l-0.036,0.018l-0.045,0.059l-0.091,0.048l-0.107,0.094l-0.005,0.033h0.029l0.023,0.016l-0.073,0.178l-0.086,0.097l-0.081,0.028l-0.013,0.036l0.024,0.038l-0.013,0.02h-0.039l-0.021,0.028l0.075,0.064l-0.007,0.048l-0.073,0.056l-0.016,0.039l0.05,0.124l0.004,0.173l-0.01,0.036l-0.028,-0.005l-0.026,-0.028l-0.084,-0.023l-0.109,-0.058l-0.078,-0.1l-0.146,-0.04l-0.092,0.022l-0.106,0.003l-0.032,-0.018l-0.067,0.036l0.005,0.041l-0.042,0.017l-0.042,-0.005l-0.031,0.013l-0.021,0.069l-0.068,0.028l-0.015,0.071l-0.029,0.005l-0.049,-0.051l-0.068,-0.005l-0.063,0.082l-0.041,-0.003l-0.026,-0.025l-0.084,-0.005l-0.048,0.012l-0.012,-0.004l0.013,-0.021l-0.002,-0.02l-0.042,-0.008l-0.018,-0.041l0.01,-0.041l-0.013,-0.051l-0.091,-0.043l-0.128,-0.008l-0.057,0.023l-0.094,-0.012l-0.115,-0.09l-0.01,-0.033l0.023,-0.038l-0.02,-0.036l-0.071,0.006l-0.01,-0.02l0.008,-0.019l0.088,-0.028l0.016,-0.035l0.091,-0.061l0.008,-0.049l-0.016,-0.03l-0.044,0.015l-0.023,-0.009l0.002,-0.037l0.07,-0.046l0.021,-0.028l0.021,-0.092l0.026,-0.035l0.037,0.005l0.026,-0.023l-0.008,-0.084l0.021,-0.031l-0.016,-0.025l-0.039,0.005l-0.096,-0.033l-0.016,-0.033l0.01,-0.064l0.06,-0.049l0.003,-0.04l-0.044,-0.059l-0.047,-0.008l-0.065,0.021l-0.047,-0.013v-0.059l0.018,-0.028l-0.005,-0.033l-0.039,-0.01l-0.099,-0.16l0.002,-0.036l-0.034,-0.02l-0.091,0.023l-0.031,-0.016l-0.018,-0.135l-0.029,-0.043l0.003,-0.036l0.062,-0.025l0.005,-0.026l-0.041,-0.01l-0.002,-0.018l0.038,-0.007v-0.036l-0.013,-0.023l0.013,-0.02l0.065,0.015l0.026,-0.015l-0.01,-0.054l-0.149,-0.056l-0.005,-0.025l0.026,-0.041l0.068,-0.036l0.008,-0.061l0.028,-0.038l-0.005,-0.064l0.018,-0.053l0.068,-0.023l0.029,0.012l0.031,-0.01l0.013,-0.036l0.094,-0.043l-0.005,-0.046l-0.06,-0.035l-0.008,-0.051l0.01,-0.033l0.086,-0.028l0.037,-0.039l0.005,-0.035l0.031,-0.033l0.006,-0.036l-0.039,-0.038v-0.043l0.03,-0.029l0.064,-0.017l0.016,-0.022l-0.004,-0.042l0.035,-0.055l0.002,-0.047l0.069,-0.063l0.098,-0.029l0.066,-0.003l0.01,-0.014l-0.014,-0.019l0.005,-0.061l0.028,-0.02l0.004,-0.015l-0.025,-0.029l0.004,-0.026l0.026,-0.037l0.118,-0.009l0.057,-0.028l0.032,0.005l0.017,0.085l0.125,0.047l0.045,-0.01l0.011,-0.053l0.015,-0.022l0.065,0.005l0.054,0.033l0.003,0.028l0.021,0.028l-0.004,0.022l-0.02,0.02l-0.009,0.034l0.031,0.005l0.024,0.027l0.032,0.004z"/>
</svg>
