<svg xmlns="http://www.w3.org/2000/svg" viewBox="578.013 311.438 59.690 61.011">
  <path d="M605.143,329.775l0.012,0.015l-0.033,0.037l-0.025,-0.002v-0.024l0.025,-0.024h0.021Z  M609.288,345.308v-4.214l0.052,-0.052l0.167,-0.042l0.1,-0.069l0.197,-0.082l0.182,-0.062l0.162,-0.089l0.088,-0.109l0.329,-0.329l0.146,-0.125l0.13,-0.041l0.057,-0.094l0.131,-0.068l0.068,0.016l0.145,-0.12l0.172,-0.146l0.407,-0.256l0.078,-0.015l0.037,-0.026l-0.006,-0.052l0.209,-0.199l0.146,-0.062h0.109l0.037,-0.021l-0.005,-0.036l0.166,-0.139l0.175,-0.083l0.05,-0.005l0.159,-0.081l0.07,-0.008l0.042,0.026l0.026,-0.007l0.002,-0.042l0.032,-0.029l0.015,-0.047l0.029,-0.013l0.008,-0.065l-0.026,-0.029l0.026,-0.049l0.075,-0.039l0.128,0.002l0.115,0.037l0.166,0.008l0.316,-0.071l0.021,0.021l0.036,-0.002l0.05,-0.034l0.096,-0.013l0.05,-0.021l0.273,-0.289l0.076,-0.06l0.234,-0.094l0.086,-0.034l0.026,-0.031l0.024,-0.011l0.07,0.005l0.115,-0.044l0.015,0.016l-0.018,0.028v0.024l0.047,0.005l0.055,0.052l0.039,-0.002l0.086,0.01l0.026,0.021h0.037l0.07,-0.037l0.078,0.003l0.037,0.016l0.065,0.007l0.034,0.019h0.033l0.081,-0.034l0.026,0.005l0.003,0.034l0.044,0.029l0.091,-0.013l0.042,0.013l0.011,0.031l0.041,0.031l0.157,0.005l0.096,0.037l0.044,-0.013l0.019,-0.037l0.031,-0.028l0.062,-0.006l0.032,-0.054l0.078,-0.076l0.086,-0.01l0.036,0.013l0.047,-0.011l0.016,-0.028l0.091,-0.008l0.05,-0.026l0.133,0.026l0.073,-0.016l0.031,0.011l-0.008,0.026l0.039,0.013l0.044,-0.029l0.039,-0.055l0.193,-0.112l0.039,0.008l0.209,0.005l0.073,-0.036h0.208l0.045,0.013l0.034,-0.003l0.015,-0.018h0.047l0.117,0.018l0.141,-0.044l0.037,-0.031h0.031l0.036,0.023l0.068,-0.01l0.076,0.01l0.112,0.037l0.159,0.026l0.096,-0.008l0.076,-0.034h0.127l0.04,-0.021l0.135,-0.016l0.055,-0.044l0.135,-0.005l0.042,0.021l0.047,-0.003l0.039,-0.052l0.096,-0.008l0.05,-0.023l0.078,-0.005l0.039,0.018l0.068,0.005l0.065,0.039l0.091,0.011l0.032,0.031l-0.006,0.047l-0.026,0.054l-0.052,0.034l-0.034,0.06l-0.015,0.081l0.034,0.029l0.119,-0.016l0.029,-0.044l0.044,-0.045l0.027,-0.005l0.075,0.073l0.011,0.034l0.091,0.052l0.117,0.045l0.076,-0.003l0.06,0.018l0.896,-1.147l0.037,-0.093l-0.027,-0.079l0.011,-0.078l0.052,-0.057l0.115,-0.203l1.287,-0.959l1.202,-0.577l1.008,-0.952l0.639,-0.223l0.619,-0.041l0.525,-0.129l0.743,-0.293l0.056,-0.107l0.031,-0.007l0.007,-0.018l-0.018,-0.008l-0.013,-0.022l0.012,-0.022l-0.01,-0.064l-0.056,-0.043l-0.025,0.003l-0.016,0.021l-0.018,-0.002l-0.025,-0.023l-0.001,-0.065l0.021,-0.02l0.016,-0.056v-0.11l-0.013,-0.041l0.008,-0.017l0.025,-0.005l0.034,-0.053l0.021,-0.006l0.039,0.011l0.021,-0.006l0.019,-0.068l0.029,-0.025l0.039,0.009l0.026,-0.019l0.002,-0.068l-0.014,-0.033l0.008,-0.019l0.028,0.003l0.016,-0.014l-0.014,-0.027l0.024,-0.021l0.047,0.021l0.017,-0.013l-0.001,-0.069l0.031,-0.078l0.028,-0.021l0.007,-0.054l-0.023,-0.017l-0.002,-0.033l0.023,-0.025l0.002,-0.047l-0.016,-0.057l-0.031,-0.033v-0.073l0.015,-0.019l-0.001,-0.031l-0.018,-0.002l-0.022,0.031l0.002,0.049l-0.016,0.005l-0.017,-0.014h-0.02l-0.008,0.031l-0.019,-0.001l-0.046,-0.061l-0.001,-0.066l-0.018,-0.004l-0.017,0.02l-0.028,-0.009l-0.002,-0.089l-0.027,-0.033l0.007,-0.076l-0.018,-0.004l-0.014,0.039l-0.034,0.027l-0.027,-0.015l-0.001,-0.065l0.019,-0.045l-0.016,-0.021l-0.003,-0.036h-0.014l-0.014,0.055v0.117l0.056,0.078l-0.013,0.01l-0.066,-0.041l-0.043,-0.005l-0.019,0.034l0.012,0.018l0.036,-0.002l0.042,0.012l-0.01,0.018l-0.093,-0.007l-0.018,-0.021l0.028,-0.136l-0.01,-0.055l0.013,-0.057l-0.052,-0.065l-0.073,-0.023l-0.032,0.026l0.032,0.049l-0.008,0.068h-0.018l-0.006,-0.065h-0.023l-0.023,0.026l-0.042,-0.008l-0.012,0.023l0.022,0.015l0.034,0.009l-0.023,0.078l-0.024,0.003l-0.023,-0.039h-0.058l-0.046,0.031l-0.014,0.073l-0.018,-0.003l0.003,-0.083l0.015,-0.047l-0.005,-0.068l0.068,-0.083l0.005,-0.039l-0.028,-0.026v-0.058l-0.034,-0.099l-0.042,0.003l-0.018,-0.031l0.034,-0.032l0.005,-0.039l0.083,-0.057l0.01,-0.064l-0.014,-0.005l-0.022,0.017l-0.023,-0.005l-0.013,-0.04h-0.032l-0.007,-0.02l0.065,-0.058l0.015,-0.041l-0.01,-0.058h0.031l0.008,-0.026l-0.026,-0.031l0.034,-0.039l0.031,-0.005l0.008,0.062l0.044,0.013l0.052,-0.015l0.008,-0.066l0.029,-0.015l0.034,0.002l0.049,-0.028l0.037,-0.052l0.023,0.013l-0.005,-1.025l3.13,-0.664v-0.071l-0.026,-0.041l-0.031,-0.008l-0.021,-0.029l-0.003,-0.041l0.024,-0.037v-0.044l-0.019,-0.021l-0.002,-0.063l-0.071,-0.096l-0.005,-0.039l-0.073,-0.071l0.011,-0.073l-0.019,-0.065l-0.06,-0.041v-0.047l-0.052,-0.06l-0.005,-0.052l-0.049,-0.047l0.026,-0.201l0.021,-0.026l-0.003,-0.068l0.039,-0.034l0.003,-0.047l0.036,-0.002l0.021,0.018l0.063,0.011l0.226,-0.006l0.342,0.024l0.047,-0.005l0.002,-0.021l0.219,-0.016l0.196,0.024l0.046,-0.045l0.086,-0.026l0.079,-0.073l0.26,-0.021l0.073,-0.034l0.545,0.029l0.122,-0.023l0.045,0.018l0.036,-0.013l0.055,0.005l0.107,0.047l0.13,0.018l0.13,0.008l0.12,-0.042l0.089,-0.047l0.104,-0.013l0.047,-0.01l0.013,-0.029l0.133,-0.013l0.049,0.024l0.037,0.044l0.104,0.005l0.065,0.029l0.026,-0.05l0.073,-0.005l0.094,0.071l0.039,0.01l0.026,-0.018l0.089,0.008l0.039,0.023l0.076,0.024l0.067,0.002l0.128,0.057h0.076l0.073,0.029l0.057,-0.013l0.05,0.005l0.023,0.024l0.102,0.002l0.203,0.073h0.26l0.05,-0.047l0.042,-0.002l0.044,0.036h0.136l0.14,0.034l0.115,0.013l0.021,-0.026l0.049,-0.005l0.024,0.029l0.062,0.01l0.245,-0.023l0.055,0.039h0.065l0.078,-0.026l0.045,0.005l0.031,-0.011l0.008,-0.033l0.044,-0.04l0.102,-0.028l0.005,-0.065l-0.06,-0.053l-0.008,-0.049l-0.049,-0.063l-0.136,-0.036l-0.128,0.06l-0.057,-0.008l-0.049,0.016l-0.042,-0.042l0.12,-0.083l0.034,-0.053l0.047,-0.015l-0.019,-0.19l0.019,-0.029l-0.003,-0.055l0.023,-0.062l0.003,-0.094l-0.044,-0.039l0.007,-0.047l0.053,-0.024l0.047,-0.036v-0.065l0.026,-0.021l0.033,-0.081l-0.013,-0.034l0.097,-0.073l0.039,0.005l0.026,-0.023l0.036,-0.003l0.1,0.013v-0.033l0.026,-0.04l0.169,-0.067l0.05,-0.06l0.044,-0.021l0.007,-0.04l0.194,-0.156l-1.025,-0.751l-0.413,-0.188l-0.605,-0.903l0.084,-0.014l0.038,-0.031l0.076,0.007l0.084,-0.143l-0.021,-0.028l-0.004,-0.052l0.049,-0.09l-0.042,-0.139l-0.059,-0.059l-0.094,-0.028l-0.069,-0.049l-0.018,-0.048l-0.132,-0.108l-0.02,-0.118l-0.101,-0.167l-0.073,-0.038l-0.051,-0.083l-0.062,-0.058l-0.042,-0.109l0.037,-0.078l-0.016,-0.329l0.052,-0.156l0.068,-0.058l0.036,-0.093l0.011,-0.136l0.094,-0.172l-0.026,-0.135l0.015,-0.178l-0.026,-0.069l-0.083,-0.024l-0.063,-0.202l-0.031,-0.035h-0.059l-0.059,0.025l-0.077,-0.007l-0.017,-0.046l-0.108,-0.055l0.032,-0.143l0.218,-0.159l-0.104,-0.407l0.191,-1.004l-0.226,-0.494l-0.003,-0.288l0.01,-0.066l-0.097,-0.163l-0.146,-0.119l-0.038,-0.083l0.354,-0.424l-0.222,-0.094l-0.139,-0.163l-0.024,-0.076l-0.084,-0.136l-0.083,-0.052l-0.063,-0.007l0.063,-0.052l0.08,-0.139l0.139,-0.143l0.017,-0.111l0.111,-0.094l-0.274,-0.146l-0.15,-0.093l-0.111,-0.025l-0.017,-0.139l-0.111,-0.073l-0.08,-0.021l-0.108,-0.083l-0.003,-0.219l-0.06,0.018l-0.066,-0.014l-0.121,0.034l-0.209,-0.139l-0.08,-0.128l-0.062,-0.045l-0.125,-0.046l-0.056,-0.076l-0.118,-0.094l0.014,-0.055l-0.004,-0.091l-0.375,-0.13l-0.38,-0.11h-0.052l-0.214,0.183l-0.25,0.068l-0.282,-0.021l-0.094,-0.037l-0.074,-0.012l-0.118,-0.059l-0.127,-0.05l-0.221,-0.172l-0.128,-0.12l-0.051,-0.03l-0.009,0.014l0.159,0.153l0.224,0.181l0.01,0.047l-0.033,0.024l-0.191,0.003l-0.228,-0.102l-0.095,-0.078l-0.021,-0.068l-0.07,-0.078l-0.005,-0.061l0.086,-0.052l0.002,-0.03l-0.047,-0.011l-0.061,-0.109l0.013,-0.054l0.021,-0.006l0.027,0.024l0.031,0.049l0.09,0.082l0.025,0.039l0.022,0.007l0.012,-0.007l-0.123,-0.129l-0.041,-0.058l-0.043,-0.042l0.029,-0.054l-0.013,-0.011l-0.016,0.011v0.024l-0.017,0.005l-0.017,-0.009v-0.014l-0.019,-0.015l-0.007,-0.036l0.018,-0.018l0.026,0.005l0.007,-0.009l-0.018,-0.01l-0.018,-0.003l-0.012,-0.011l0.003,-0.014l-0.014,-0.012l-0.013,-0.003l-0.015,-0.024l0.014,-0.015l-0.008,-0.012l-0.017,-0.002l-0.012,-0.014l-0.028,-0.033v-0.032l0.008,-0.027l-0.003,-0.036l-0.037,-0.039l0.006,-0.072l0.026,-0.031l-0.001,-0.13l0.032,-0.045l-0.007,-0.042l-0.07,-0.017l-0.073,0.045l-0.041,0.101l-0.018,0.09l-0.139,0.26l-0.128,0.178l-0.07,0.031h-0.052l-0.049,-0.042l-0.038,0.004l-0.052,0.104l-0.125,0.118l-0.07,0.021l-0.1,-0.003l-0.247,0.069l-0.115,0.083h-0.097l-0.229,-0.013l-0.091,-0.032l-0.069,-0.01l-0.101,0.01l-0.108,-0.028l-0.076,-0.045l-0.09,-0.021l-0.07,-0.003l-0.111,-0.056l-0.219,-0.139l-0.042,-0.069l-0.08,-0.024l-0.132,0.02l-0.08,0.087l-0.024,0.139l-0.035,0.059l-0.135,0.073l-0.125,0.014l-0.167,-0.031l-0.08,-0.063l-0.031,-0.073l0.024,-0.055l-0.045,-0.028l-0.077,0.01l-0.097,0.094l-0.104,0.011l-0.07,-0.011l-0.264,0.073l-0.087,0.059l-0.08,0.025l-0.086,-0.011l-0.136,0.021l-0.052,0.038l-0.063,0.007l-0.086,-0.014l-0.136,0.035l-0.198,0.118l-0.111,0.007l-0.07,-0.024l-0.087,-0.014l-0.052,0.01l-0.097,-0.01l-0.083,-0.045l-0.091,-0.025l-0.083,0.004l-0.226,-0.063l-0.066,0.004l-0.094,-0.021l-0.062,-0.063l-0.084,-0.01l-0.055,0.017l-0.275,-0.093l-0.285,-0.174l-0.076,-0.104l-0.084,-0.049l-0.069,-0.007l-0.143,-0.07l-0.055,-0.086l-0.146,-0.136l-0.063,-0.087l-0.059,-0.035h-0.055l-0.087,-0.031l-0.063,-0.062l-0.073,-0.174l-0.257,-0.25l-0.118,-0.038l-0.16,-0.094l-0.09,-0.205l-0.052,-0.244l0.031,-0.066l-0.017,-0.027l-0.053,-0.011l-0.059,0.025l-0.043,-0.011l-0.04,-0.068l-0.061,-0.285l-0.021,-0.298l0.035,-0.112l-0.003,-0.035l0.007,-0.022l0.011,-0.013l0.015,-0.001l0.013,0.007l0.015,-0.001l0.021,-0.035h0.026l0.02,0.01l0.026,-0.003l0.011,-0.011l0.014,-0.008h0.02l0.032,-0.023l0.006,-0.018l-0.021,-0.022l-0.017,-0.004l-0.03,0.015l-0.014,0.032l-0.033,0.015l-0.022,-0.001l-0.025,-0.022l0.003,-0.014l-0.013,-0.006l-0.029,0.024l-0.019,-0.001l-0.038,-0.05l-0.065,-0.042l-0.045,0.004l-0.017,0.017h-0.04l-0.017,-0.023h-0.025l-0.048,0.044l-0.07,0.008l-0.069,-0.029l-0.044,0.002l-0.061,0.029l-0.015,0.037l-0.04,0.036l-0.032,0.012l-0.151,0.141l-0.061,0.019l-0.079,0.057l-0.072,0.016l-0.034,-0.009h-0.073l-0.04,0.021l-0.058,-0.005l-0.073,-0.031h-0.052l-0.038,0.019l-0.047,0.01l-0.036,0.032l-0.061,0.013l-0.021,0.03l-0.014,0.061l-0.049,0.055l-0.064,0.032l-0.042,-0.002l-0.008,-0.023l0.012,-0.027l-0.047,-0.026l-0.043,0.008l-0.07,-0.012l-0.031,-0.016h-0.04l-0.037,0.013l-0.048,-0.002l-0.046,-0.018l-0.06,0.004l-0.077,0.043l-0.024,0.054l-0.031,0.183l-0.094,0.278l-0.03,0.163l-0.057,0.142l-0.054,0.285l-0.109,0.267l-0.06,0.068l-0.029,0.07l-0.01,0.06l-0.089,0.18l-0.023,0.102l-0.232,0.656l-0.066,0.047l-0.039,0.086l-0.06,0.198l-0.083,0.198l-0.055,0.232l-0.2,0.503l-0.165,0.381l-0.268,0.576l-0.274,0.531l-0.26,0.451l-0.347,0.516l-0.138,0.232l-0.091,0.227l-0.136,0.242l-0.24,0.318l-0.151,0.159l-0.375,0.368l-0.313,0.237l-0.122,0.039l-0.089,0.052l-0.114,0.086l-0.149,0.037l-0.063,0.036l-0.07,0.024l-0.078,0.013l-0.201,0.104l-0.075,0.091l-0.217,0.164l-0.088,0.016l-0.055,-0.008l-0.016,-0.029l-0.02,0.003l-0.149,0.138l-0.096,0.107l-0.264,0.154l-0.156,0.052l-0.047,-0.021l-0.039,-0.003l-0.023,0.029l-0.1,0.003l-0.031,-0.019l-0.039,0.003l-0.167,0.104l-0.06,0.068l-0.172,0.107l-0.148,0.075h-0.037l-0.034,-0.023h-0.023l-0.313,0.164l-0.099,0.05l-0.083,0.002l-0.068,0.024l-0.159,0.099l-0.43,0.177l-0.128,0.01l-0.057,0.019l-0.06,0.049l-0.091,0.031l-0.078,0.008l-0.115,0.042l-0.065,0.008l-0.065,0.041l-0.058,0.107l-0.057,0.063l-0.229,0.185l-0.17,0.078l-0.12,0.013l-0.057,-0.016l-0.01,-0.039l-0.029,-0.015l-0.031,0.002l-0.086,0.068l-0.065,0.097l-0.073,0.031l-0.159,0.174l-0.021,0.055l0.039,0.06l-0.029,0.11l-0.141,0.138l-0.14,0.179l-0.024,0.058l-0.052,0.065l-0.122,0.117l-0.032,0.055l-0.156,0.169l-0.177,0.157l-0.11,0.107l-0.151,0.164l-0.406,0.313l-0.149,0.138l-0.193,0.229l-0.318,0.263l-0.279,0.206l-0.002,0.034l0.042,0.044l0.01,0.058l0.047,0.067l0.029,0.006l0.041,0.046l0.011,0.053l-0.024,0.138l-0.06,0.133l-0.104,0.133l-0.003,0.073l0.029,0.044v0.049l0.034,0.037l0.081,0.042l0.015,0.062l-0.007,0.068l-0.047,0.128l0.002,0.044l0.034,0.049v0.097l-0.042,0.156l-0.08,0.097l-0.081,0.06l-0.039,0.093l-0.029,0.152l-0.039,0.07l-0.01,0.06l-0.034,0.068l-0.245,0.247l-0.164,0.18l-0.086,0.122l-0.146,0.139l-0.037,0.057l-0.182,0.188l-0.021,0.044l-0.18,0.234l-0.115,0.115l-0.023,0.047l-0.024,0.203l0.003,0.063l-0.049,0.117l-0.139,0.198l-0.105,0.11l-0.062,0.032l-0.014,0.029l0.012,0.018l0.021,0.005v0.069l-0.118,0.172l-0.118,0.108l-0.044,0.108l0.023,0.028l0.069,0.005l0.065,0.075l0.024,0.154l-0.002,0.16l-0.076,0.184l-0.006,0.051l0.007,0.02l-0.005,0.03l-0.017,0.026l0.002,0.04l0.024,0.03l-0.002,0.039l-0.049,0.126l-0.026,0.02l-0.001,0.046l0.012,0.024l-0.004,0.028l-0.019,0.045l0.002,0.045l0.021,0.024l0.038,0.009l0.026,0.035l-0.003,0.05l-0.018,0.033l-0.001,0.028l0.017,0.026l0.009,0.11l0.022,0.048l-0.003,0.066l-0.04,0.085l-0.004,0.08l0.019,0.052v0.152l0.033,0.052v0.055l-0.064,0.122v0.031l0.014,0.026l0.035,0.009l0.036,0.045l-0.01,0.047l-0.073,0.137l-0.016,0.066l-0.078,0.122v0.055l-0.023,0.032l-0.046,0.021l-0.049,0.066l-0.031,0.121l0.008,0.122l0.032,0.024l0.146,-0.007l0.078,0.012l0.109,0.059l0.087,0.075l0.057,0.092l0.016,0.059l0.036,0.028l0.065,0.011l0.069,0.041l0.075,0.146l0.061,0.198l0.066,0.07l0.007,0.029l0.024,0.014l0.068,0.002l0.055,0.031l0.014,0.075l-0.043,0.207l-0.057,0.345l-0.044,0.211l-0.005,0.111l-0.037,0.168l-0.012,0.079l-0.08,0.184l-0.08,0.104l-0.13,0.283l-0.017,0.056l-0.099,0.184l-0.019,0.069l-0.082,0.119l-0.019,0.074l-0.122,0.153l-0.033,0.068l-0.274,0.261l-0.191,0.149l-0.079,0.106l-0.008,0.047l-0.021,0.036l-0.078,0.082l-0.125,0.184l-0.047,0.094l-0.002,0.052l-0.012,0.028l-0.021,0.023l-0.014,0.043l-0.009,0.057l-0.099,0.155l-0.054,0.118l-0.092,0.097l-0.09,0.077l-0.073,0.111l-0.023,0.078l-0.02,0.037l-0.028,0.021l-0.025,0.033l-0.012,0.059l-0.027,0.045l-0.136,0.121l-0.149,0.066l-0.157,0.143l-0.062,0.083l-0.138,0.151l-0.052,0.086l-0.061,0.059l-0.053,0.074l-0.013,0.046l-0.168,0.173l-0.044,0.061l-0.119,0.11l-0.388,0.25l-0.446,0.256l-0.584,0.294l-0.269,0.126l-0.08,0.057l-0.066,0.031l-0.083,0.026l-0.055,0.05l-0.02,0.078l-0.123,0.143l-0.089,0.055l-0.078,0.096l-0.07,0.058l-0.103,0.047l-0.062,0.06l-0.073,0.099l-0.112,0.13l-0.185,0.128l-0.131,0.142l-0.041,0.101l-0.108,0.111l-0.028,0.063l-0.114,0.1l-0.066,0.077l-0.032,0.087l-0.069,0.08l-0.243,0.166l-0.31,0.126l-0.18,0.031l-0.73,0.299l-0.122,0.027l-0.49,0.226l-0.083,0.08l-0.58,0.16l-1.102,0.205l-0.153,0.038l-0.75,0.111h-0.15l-0.114,0.018l-0.066,0.031l-0.227,0.024l-0.097,0.029l-0.112,0.102l-0.034,0.068l-0.052,0.052l-0.104,0.32l-0.076,0.089l-0.067,0.138l-0.06,0.06l-0.185,0.083l-0.045,0.039l-0.109,0.047l-0.031,0.039l-0.028,0.099l-0.043,0.105l-0.041,0.054l-0.039,0.118l-0.003,0.07l-0.083,0.292l-0.102,0.224l-0.11,0.344l-0.159,0.305l-0.153,0.237l-0.073,0.159l-0.076,0.133l-0.039,0.193l-0.023,0.057v0.039l0.02,0.037l-0.01,0.06l-0.083,0.219l-0.079,0.14l-0.078,0.209l-0.013,0.112l-0.07,0.195l-0.172,0.368l-0.078,0.122l-0.17,0.183l-0.221,0.169l-0.081,0.034l-0.089,0.047l-0.08,0.068l-0.235,0.135l-0.065,0.018l-0.078,0.04l-0.042,0.044l-0.073,0.044l-0.068,0.016l-0.081,0.052l-0.135,0.128l-0.11,0.062l-0.216,0.099l-0.198,0.05l-0.271,0.018l-0.042,0.026l-0.054,0.12l-0.191,0.232l-0.237,0.187l-0.096,0.045l-0.196,0.028l-0.065,0.037l-0.211,0.274l-0.107,0.213l-0.002,0.05l0.031,0.039v0.31l-0.044,0.195l-0.118,0.298l-0.099,0.159l-0.013,0.065l-0.125,0.19l-0.109,0.109l-0.034,0.063l-0.063,0.182l-0.041,0.185l-0.06,0.168l-0.03,0.042l-0.002,0.033l0.014,0.028l-0.052,0.189l-0.13,0.278l-0.139,0.162l-0.085,0.161l-0.004,0.042l0.009,0.029l-0.002,0.039l-0.066,0.126l-0.012,0.04v0.042l-0.007,0.028l-0.043,0.073l-0.002,0.064l0.012,0.035v0.073l-0.069,0.16l0.003,0.095l0.016,0.056l-0.004,0.141l-0.015,0.043v0.035l0.022,0.036v0.037l-0.01,0.033l0.001,0.022l0.047,0.058l0.025,0.071l0.003,0.09l-0.017,0.092l-0.004,0.138l-0.027,0.067v0.079l0.013,0.043l-0.005,0.089l-0.069,0.158l-0.025,0.092l-0.064,0.123l-0.042,0.181l-0.003,0.109l0.012,0.035l-0.005,0.078l-0.044,0.06l-0.058,0.029l-0.057,0.044l-0.034,0.05l-0.049,0.028l-0.118,0.05l-0.031,0.052l-0.008,0.078l-0.044,0.133l-0.063,0.076l-0.14,0.073l-0.282,0.096l-0.146,0.091l-0.078,0.089l-0.146,0.133l-0.162,0.208l-0.046,0.086l-0.141,0.17l-0.331,0.242l-0.167,0.151l-0.151,0.19l-0.047,0.034l-0.031,0.039l-0.013,0.034l-0.071,0.078l-0.08,0.045l-0.04,0.052l-0.01,0.081l-0.036,0.073l-0.269,0.185l-0.32,0.161l-0.324,0.266l-0.135,0.169l-0.11,0.105l-0.08,0.156l-0.011,0.086l-0.042,0.078l-0.062,0.045l-0.026,0.049l0.002,0.05l-0.015,0.041l-0.12,0.125l-0.029,0.058l0.012,0.055l0.043,0.026l0.011,-0.012l-0.029,-0.031l0.008,-0.028h0.037l0.023,-0.019l0.019,-0.043l0.074,-0.065l0.03,-0.007l0.019,-0.014l0.005,-0.027l0.066,-0.098l0.045,-0.126l0.002,-0.072l0.026,-0.076l0.073,-0.134l0.078,-0.083l0.085,-0.118l0.06,-0.027l0.04,0.016l0.033,-0.014l0.022,-0.062l0.089,-0.098l0.017,0.006l-0.002,0.034l-0.024,0.04l0.007,0.03l0.017,-0.002l0.039,-0.076l0.017,-0.002l0.03,0.066l0.022,0.137l-0.029,0.12l-0.002,0.044l0.019,0.001l0.059,-0.038h0.036v0.016l-0.027,0.034l-0.04,0.016l-0.021,0.026l-0.03,0.094l-0.059,0.062l-0.036,0.009l-0.044,0.042l-0.067,0.134l-0.141,0.189l-0.018,0.047l-0.045,0.069l-0.057,0.025l-0.033,0.038l-0.017,0.052l-0.065,0.113l-0.005,0.042l-0.012,0.019l-0.037,0.007l-0.027,0.026l-0.025,0.061l-0.041,0.05l-0.089,0.033l-0.026,0.024l0.002,0.021l0.031,0.021l0.036,0.085l-0.001,0.042l-0.169,0.318l-0.181,0.179l-0.045,0.024l-0.012,0.03l0.011,0.067l-0.155,0.256l-0.059,0.069l-0.002,0.028l0.018,0.019l-0.006,0.04l-0.191,0.257l-0.062,0.04l-0.059,0.094l-0.018,0.066l0.012,0.012l0.047,-0.022l0.059,0.005l0.07,0.071l0.043,0.099l-0.001,0.129l-0.033,0.116l-0.127,0.165l-0.085,0.071l-0.216,0.089l-0.038,-0.002l-0.016,-0.021h-0.014l-0.015,0.053l-0.044,0.086l0.004,0.047l0.043,0.044l-0.002,0.045l-0.05,0.094l-0.057,0.069l-0.04,0.068l-0.037,0.108l-0.014,0.083l-0.001,0.071l0.01,0.04l-0.009,0.171l-0.042,0.088l-0.021,0.089l0.003,0.055l-0.04,0.101l-0.078,0.089l-0.138,0.078l-0.039,0.07l-0.01,0.055l-0.037,0.149l-0.031,0.213l-0.063,0.125l-0.054,0.053l-0.016,0.039v0.096l-0.029,0.057l-0.148,0.092l-0.219,0.083l-0.097,0.013l-0.046,-0.018l-0.042,-0.068l-0.084,-0.018l-0.065,0.026l-0.101,0.148l-0.136,0.084l-0.055,0.07l0.003,0.089l-0.026,0.055l-0.089,0.026l-0.044,0.06l-0.125,0.383l-0.057,0.093l-0.039,0.094l-0.003,0.063l-0.042,0.104l-0.044,0.063l-0.005,0.052l0.01,0.041l-0.008,0.079l-0.086,0.135l-0.091,0.071l-0.055,0.093l-0.026,0.105l0.005,0.075l0.05,0.05l-0.003,0.041l-0.086,0.099l-0.02,0.058v0.101l0.023,0.066v0.125l-0.034,0.067l-0.002,0.102l0.018,0.039l-0.003,0.091l-0.036,0.112l-0.011,0.146l-0.065,0.206l-0.018,0.209l-0.042,0.13l-0.008,0.235l-0.065,0.265l-0.01,0.165l0.015,0.039l-0.002,0.052l-0.065,0.258l-0.003,0.341l-0.073,0.167l-0.016,0.068l-0.023,0.039l0.003,0.034l0.048,0.083v0.078l-0.076,0.098l-0.005,0.041l0.02,0.04l0.051,0.016l0.059,0.092l0.033,0.089l0.021,0.013l-0.055,-0.209l0.008,-0.057l0.002,-0.071l-0.018,-0.128l0.049,-0.094l0.066,-0.261l-0.007,-0.187l0.16,-0.362l0.014,-0.156l0.205,-0.613h14.552l-0.097,-2.354l-0.194,-2.243l-0.263,-0.927l0.152,-0.402l0.014,-0.277l0.36,-0.318l1.575,-1.007l0.813,-0.167l0.828,-0.407l0.131,-0.01l0.302,-0.11l0.131,-0.021v-10.06h12.363v-5.264v-0.7v-0.736z"/>
</svg>
