<svg xmlns="http://www.w3.org/2000/svg" viewBox="740.160 255.295 13.139 14.099">
  <path d="M747.163,257.034l0.145,0.023l0.115,0.078l0.172,0.058l0.021,0.073l-0.047,0.026l-0.062-0.047l-0.047,0.021v0.104l-0.058,0.041l-0.109,0.016l-0.073,0.099l0.031,0.078l0.089,0.026l0.052-0.031l0.062-0.12l0.073-0.021l0.141,0.037l0.115-0.011l0.073,0.037l0.015,0.073l0.105,0.104l0.088,0.011l0.073-0.026l0.063,0.02l0.062,0.125l0.073,0.037l0.016,0.062l-0.052,0.058v0.062l0.052,0.042h0.099l0.25,0.042l0.276,0.073l0.084,0.109l-0.011,0.078l-0.088,0.136l-0.052,0.13l-0.016,0.167l-0.042,0.078l-0.005,0.084l0.12,0.198l0.005,0.12l-0.031,0.083l0.016,0.073l0.119,0.12l0.016,0.109l-0.031,0.115l0.047,0.099l0.208,0.094l0.11,0.094v0.093l-0.152,0.125l0.006,0.079l0.161,0.067l0.125,0.126l0.016,0.14l-0.13,0.032l-0.131-0.12l-0.078,0.036l0.042,0.193l0.24,0.255l0.088,0.105l0.032,0.114l0.109,0.12l0.156,0.063l0.157,0.151l0.015,0.094l0.079,0.047l0.083-0.006l0.078,0.053l0.094,0.182l-0.01,0.094l-0.047,0.005l-0.032,0.047l0.026,0.115l-0.067,0.02l-0.172-0.02l-0.042,0.073l0.193,0.203l0.125,0.01l0.12-0.104l0.104-0.021l0.115,0.063l0.01,0.104l-0.068,0.104l0.006,0.063l0.073,0.036l0.02,0.073l-0.047,0.073l-0.088-0.036l-0.141,0.047l-0.036,0.099l0.015,0.114l-0.031,0.157l0.063,0.057l0.172-0.036l0.146-0.11l0.062,0.01l0.016,0.063l0.104,0.047l0.026,0.109l0.068,0.026l0.219-0.062l0.114,0.042v0.073l-0.12,0.067l-0.057,0.125l0.052,0.063l0.089-0.031l0.177-0.011l0.228,0.077l0.031,0.128l-0.136,0.122l-0.003,0.062l0.181,0.053l0.08-0.053l0.1-0.006l0.129,0.072l-0.011,0.053l0.049,0.038l0.022,0.054l-0.003,0.026h0.052l0.021,0.041l-0.023,0.013l-0.003,0.024l0.063,0.021l-0.013,0.026l0.015,0.018h0.05l0.021,0.016l0.031,0.062l0.034,0.011l0.034-0.029l0.002-0.034l0.021-0.01l0.021,0.021l-0.031,0.062l0.026,0.003l0.026-0.037l0.031-0.002l0.016-0.039l0.023-0.003l0.026,0.057l-0.017,0.043l0.007,0.061l0.038,0.015l0.059-0.003l0.012,0.017l-0.01,0.014h-0.083l-0.009,0.016l0.071,0.055l0.07,0.03h0.107l0.004,0.014l-0.03,0.024l0.005,0.03l0.047,0.012l0.03-0.005l0.019-0.03l0.019,0.004l0.016,0.029l0.017,0.002l0.004-0.018l-0.026-0.031l0.006-0.016l0.021,0.006l0.035,0.045l0.021-0.012l0.075,0.057l-0.007,0.026l0.012,0.011l0.047-0.02l0.015-0.059l0.026,0.002l0.016,0.035l-0.002,0.038l-0.213,0.096v0.031l-0.03,0.043l-0.099-0.104l-0.042-0.007l-0.13,0.073l-0.099-0.028l-0.036,0.025l-0.178-0.079l-0.194,0.139l0.014,0.087l-0.311-0.154l0.062-0.045l-0.085-0.087l-0.026,0.001l-0.017-0.026v-0.021l-0.042-0.133l-0.037-0.004l-0.064-0.08l-0.038-0.008l-0.045,0.026l0.05,0.109l-0.035,0.016l0.009,0.026l-0.174,0.035l-0.033-0.065l-0.064,0.023l0.068,0.347l-0.269,0.032l-0.02-0.033l-0.071,0.007l-0.055-0.259l-0.199-0.03l-0.059-0.024l-0.036-0.058l0.005-0.048l0.052-0.049l-0.203-0.175l-0.222,0.236l0.045,0.101l-0.018,0.007l-0.166-0.372l-0.066,0.042l0.024,0.048l-0.017,0.052l-0.091,0.046l0.028,0.073l-0.038,0.017l0.066,0.135l-0.077,0.025l-0.034-0.032l-0.105,0.049v0.066l-0.1,0.07l-0.108-0.039l0.128-0.146l-0.055-0.066v-0.118l-0.031-0.038l0.121-0.097l-0.007-0.066l-0.045-0.011l-0.014-0.257l-0.267,0.059l0.003,0.136l-0.372,0.01l-0.007,0.038h-0.073l-0.041,0.066l-0.188,0.007l-0.007,0.032l0.024,0.024l0.136-0.007l0.007,0.08l-0.355,0.024l0.035,0.035l0.014,0.094l0.149,0.365l0.042,0.031l0.018,0.108l-0.049,0.017l-0.101,0.236l0.004,0.039l0.403,0.285l-0.431,0.465l0.198,0.202l-0.084,0.208l-0.755,0.157l0.01,0.052l-0.085,0.021l0.024,0.107l-0.043,0.039l0.109,0.437l-0.323,0.068l0.042,0.167l-0.302,0.068l-0.136-0.042l-0.047,0.026l0.057,0.104l-0.026,0.073l-0.088,0.021l-0.058-0.052l-0.104,0.021l-0.068,0.141l-0.083,0.104l0.026,0.073l0.104-0.016l0.099,0.396l-0.182,0.042l0.083,0.323l-0.349,0.063l-0.005-0.11l-0.433-0.161l-0.177,0.14l-0.146,0.224l-0.115-0.036l-0.078-0.125l-0.015-0.089l0.015-0.104l-0.01-0.12l-0.047-0.026l-0.094-0.005l-0.109-0.089v-0.062l0.073-0.068h0.114l0.085-0.082l0.03-0.076l-0.019-0.17l0.022-0.092l-0.012-0.093l-0.062-0.093l-0.007-0.077l-0.025-0.043l-0.077-0.044l-0.021-0.07l0.008-0.077l-0.047-0.079l0.019-0.085l0.044-0.04l-0.005-0.062l-0.042-0.047v-0.078l0.052-0.073l-0.021-0.151l-0.083-0.225l0.015-0.203l-0.026-0.062l0.021-0.079l0.068-0.067l0.089-0.344v-0.089l-0.094-0.099l-0.005-0.12l0.033-0.043l0.072-0.011l0.018-0.031l-0.038-0.049l0.02-0.076l0.094-0.007l0.059-0.038l0.08-0.118l-0.048-0.059v-0.098l0.097-0.16l0.059-0.034l0.021-0.035l-0.018-0.052l0.018-0.032l0.052-0.013l0.028-0.084l-0.052-0.045l-0.011-0.038l0.038-0.031l-0.017-0.063l-0.066-0.024l-0.024-0.073l-0.042-0.032l0.01-0.062l0.046-0.031l0.003-0.046l-0.042-0.031l0.004-0.049l0.045-0.024l0.007-0.042l-0.028-0.045l0.014-0.038l0.049-0.042l0.035-0.142l-0.046-0.038l-0.014-0.101l0.007-0.073l-0.024-0.059l-0.056-0.028l-0.038-0.049l-0.007-0.073l-0.097-0.18l-0.003-0.101l-0.049-0.076l-0.115-0.077l-0.073-0.111v-0.066l0.035-0.021l-0.003-0.056l-0.073-0.041v-0.032l0.052-0.017l-0.004-0.052l-0.087-0.035l0.004-0.038l0.069-0.049l-0.017-0.055l-0.066-0.018l-0.004-0.034l0.032-0.021l-0.007-0.052l-0.042-0.028v-0.045l0.035-0.035l-0.049-0.063l-0.135-0.059l0.003-0.045l0.035-0.017l-0.011-0.038l-0.076-0.004l-0.073,0.017l-0.129-0.076l-0.048-0.003l-0.042-0.028l-0.007-0.045l-0.17-0.08l-0.066-0.112l-0.111-0.066l-0.07-0.007l-0.007-0.038l0.056-0.014l0.007-0.034l-0.066-0.018l-0.07,0.011l-0.104-0.028l0.01-0.038l0.056-0.014l0.014-0.056l-0.035-0.052l-0.028-0.104l-0.076-0.157l-0.077-0.031l-0.006-0.059l0.02-0.052l-0.052-0.118l-0.073-0.035h-0.048l-0.046,0.031h-0.038l-0.035-0.069l-0.079-0.014l-0.028,0.021l-0.049-0.007l-0.014-0.052l-0.048-0.045l-0.063,0.003l-0.014-0.035l0.045-0.038l-0.021-0.108l-0.052-0.048l-0.055-0.007l-0.011-0.073l0.052-0.059l-0.027-0.08l-0.077-0.028v-0.07l0.052-0.052l-0.003-0.045l-0.087-0.097l-0.059-0.014l-0.031,0.035l-0.129-0.021l-0.083-0.073l-0.035-0.07l0.003-0.062l-0.045-0.077l-0.066-0.052l-0.028-0.066l0.025-0.038l-0.021-0.035l-0.08-0.003l-0.097-0.073l-0.028-0.066l-0.045-0.045l-0.063-0.018l-0.062-0.059l-0.014-0.066l-0.032-0.031l-0.038-0.014l-0.01-0.073l-0.063-0.049l-0.003-0.059l-0.077-0.076l0.028-0.042l0.083,0.018l0.025-0.025l-0.031-0.042l0.017-0.045l-0.028-0.066l-0.049-0.017l-0.048-0.108l-0.077-0.038l-0.007-0.042l0.032-0.021l-0.018-0.031l-0.066-0.014l0.011-0.041l0.08-0.004l0.007-0.031l-0.035-0.031l-0.052-0.007l-0.042,0.013l-0.035-0.027l0.004-0.042l0.028-0.028l-0.025-0.066l0.025-0.069l-0.021-0.073l-0.118-0.063l-0.094,0.028l-0.007-0.024l0.087-0.049l0.031-0.052l0.007-0.052l-0.09-0.025l-0.046-0.027l0.007-0.039l0.077-0.083l-0.014-0.035l-0.115,0.011l-0.028-0.032l0.018-0.041l-0.028-0.035l-0.063,0.031l-0.027-0.021l0.034-0.066l-0.02-0.034l-0.049-0.014l-0.042-0.084l-0.101-0.062l-0.027-0.063l-0.042-0.028l0.035-0.086v-0.094l-0.046-0.042l-0.052,0.004l-0.034,0.045l-0.084-0.032l-0.059,0.004l-0.049-0.028v-0.059l0.049-0.014l0.07,0.035l0.027-0.018l-0.034-0.055l-0.136-0.007l-0.038-0.028l0.056-0.083l-0.032-0.056l-0.066-0.01l-0.021,0.031l0.021,0.049l-0.041,0.017l-0.07-0.045l0.01-0.035l0.035-0.003v-0.035l-0.107-0.028l-0.06-0.052l-0.003-0.049l-0.049-0.014l-0.041,0.025l-0.035-0.011l-0.007-0.052l-0.049-0.038l-0.076-0.004l-0.045,0.032l-0.122-0.011l-0.014-0.041l-0.035-0.011l-0.027,0.038l-0.049-0.007l-0.028-0.052h-0.038l-0.031,0.052l-0.049,0.014l-0.031-0.02l0.021-0.049l-0.028-0.017l-0.032,0.017l-0.013,0.031l-0.064-0.021l-0.052-0.036l-0.005-0.039l0.096-0.086l0.021-0.047l0.112-0.097l0.058-0.018l-0.045-0.13l0.047-0.024l0.159,0.222l0.073-0.039l0.031,0.088l0.094,0.05h0.073l0.052-0.039l0.016-0.055l-0.016-0.039l0.003-0.112l-0.063-0.037l-0.054,0.037l-0.11-0.047l-0.203-0.245l0.052-0.031l0.112,0.057l0.047-0.039l0.031-0.047l0.282,0.024l0.083-0.026l0.057,0.039l0.047,0.067l-0.015,0.06l0.127,0.092l0.006-0.034l0.216,0.054l0.039-0.013l0.013-0.078l0.086-0.013l0.065,0.034l0.013-0.047l-0.013-0.073l-0.036-0.06l-0.078-0.031l-0.003-0.029l0.049-0.005l0.037,0.013l0.099-0.005l0.034-0.039l0.047,0.008l0.015,0.083l0.11,0.143l0.047,0.034h0.062l0.076-0.028l0.083-0.063l0.042,0.031h0.052l0.078,0.076l0.102-0.031l0.081,0.041l0.044-0.18l0.055-0.052l0.008-0.026l-0.008-0.026l0.013-0.042l0.028-0.013l0.032,0.013l0.021-0.01l-0.003-0.026l0.023-0.003l0.039,0.032h0.047l0.047,0.034v0.099l0.037,0.015l0.065-0.01l0.073,0.002l0.055,0.013l0.034-0.01l0.046-0.102l0.016-0.065l0.089-0.052h0.07l0.227-0.154l0.068-0.013l0.049,0.011l0.005,0.036l-0.049,0.065l0.01,0.039l0.099,0.055l0.117,0.039h0.126l0.039-0.034l0.12-0.041l0.125-0.003l0.14,0.083l0.097,0.107l0.073,0.011l0.091,0.039l0.042,0.068l-0.003,0.057l0.05,0.089l0.169,0.119l0.112,0.05l0.289,0.003l0.097,0.031l0.07,0.094l0.011,0.062l-0.047,0.159l0.018,0.081l0.081,0.021l0.107-0.065l0.018-0.068l0.039-0.016l0.122,0.034l0.011,0.042l-0.016,0.057l0.021,0.097l0.057,0.039h0.05l0.187-0.081l0.105-0.081l0.044-0.002l0.031,0.026l0.034-0.003l0.058-0.042l0.065,0.003l0.047,0.062l-0.006,0.118l-0.057,0.112l-0.162,0.091l-0.026,0.055l0.019,0.065l0.067,0.021l0.089-0.016l0.047-0.049l0.031-0.089l0.058-0.052l0.112-0.005l0.067,0.054l0.013,0.112l-0.062,0.05v0.049l0.049,0.063l0.008,0.057l0.071,0.084l0.122,0.062h0.037l0.007-0.021l-0.031-0.023l-0.003-0.023l0.016-0.029l-0.003-0.11l0.014-0.08L747.163,257.034z"/>
</svg>
