<svg xmlns="http://www.w3.org/2000/svg" viewBox="801.426 495.138 27.114 52.470">
  <path d="M820.5,500.325l-0.016,0.058l0.104,0.121l-0.031,0.089l-0.135,0.005l-0.166-0.021l-0.177-0.042l-0.078-0.079l-0.036-0.252l0.109-0.152l0.156-0.005l0.047-0.047l-0.068-0.142l0.062-0.095l0.177,0.037l0.01,0.131l-0.052,0.105l0.029,0.035l0.062-0.017l0.038,0.038l-0.016,0.075l0.042,0.047l0.021,0.079l-0.026,0.042L820.5,500.325z M820.515,500.86l0.088,0.053l0.078-0.037l0.005-0.131l-0.12-0.068l-0.083,0.063L820.515,500.86z M821.206,500.403l-0.078-0.084l0.016-0.1l-0.078-0.079l-0.083,0.042l0.068,0.142l0.135,0.116L821.206,500.403z M821.814,498.14l0.052-0.042v-0.068l-0.052-0.01l-0.047,0.084L821.814,498.14z M821.425,498.765l0.083,0.026l0.073-0.074v-0.137l0.062-0.063l0.021-0.074l-0.036-0.079l-0.057,0.016l-0.026,0.158l-0.094,0.105l-0.13-0.047l-0.026,0.047L821.425,498.765z M818.527,503.355l0.069,0.098l0.076-0.007l-0.049-0.105l-0.069-0.035L818.527,503.355z M818.651,502.976l0.048-0.021l-0.152-0.28l-0.055,0.007l-0.014,0.098l0.035,0.147L818.651,502.976z M817.751,504.944l0.146-0.021l0.042-0.091l-0.076-0.056l-0.014-0.077l-0.062-0.042l-0.062,0.049l-0.021,0.189L817.751,504.944z M818.395,502.598l0.069,0.007l0.021-0.07l-0.076-0.028l-0.048,0.042L818.395,502.598z M818.319,503.249l0.049-0.014l0.049-0.042l-0.055-0.042l-0.049,0.042L818.319,503.249z M819.969,500.046l0.062-0.01l0.021-0.053l-0.057-0.042l-0.052,0.058L819.969,500.046z M819.928,500.199v-0.074l-0.057-0.005l-0.036,0.037l0.031,0.058L819.928,500.199z M821.773,497.043l0.042-0.021l-0.005-0.047l-0.047-0.01l-0.016,0.052L821.773,497.043z M821.897,496.785l0.057,0.005l0.01-0.042l-0.047-0.026l-0.047,0.021L821.897,496.785z M823.056,496.266l0.042-0.047l-0.036-0.047l-0.047,0.021v0.074H823.056z M817.47,506.552l0.026,0.052l0.094-0.058l0.021-0.084h-0.057L817.47,506.552z M818.624,501.286l0.052-0.014l-0.031-0.056l-0.038-0.004l-0.017,0.049L818.624,501.286z M826.003,514.497l0.042-0.016l0.343-0.583l0.068-0.073l0.114-0.236l0.036-0.168l0.14-0.336l0.068-0.121l-0.052-0.042l-0.088,0.021l-0.068,0.121l-0.005,0.116l-0.057,0.131l-0.109,0.047l-0.036,0.152l-0.099,0.068l-0.114,0.2l-0.005,0.2l-0.094,0.168l-0.036,0.189l-0.073,0.11L826.003,514.497z M825.878,508.432l0.031-0.084l-0.036-0.037l-0.047,0.026l-0.01,0.084L825.878,508.432z M826.018,498.282l0.068,0.068l0.042-0.005l-0.026-0.084l-0.047-0.021L826.018,498.282z M825.894,498.208l0.031-0.021l-0.031-0.047h-0.042l0.005,0.058L825.894,498.208z M825.177,497.678l0.062-0.016l0.01-0.047l-0.031-0.063l-0.052,0.021l-0.021,0.074L825.177,497.678z M825.39,497.857l0.057,0.047l0.042-0.016l-0.036-0.068h-0.047L825.39,497.857z M825.109,497.295l0.073,0.026l0.016-0.063l-0.094-0.284l-0.057-0.021v0.1L825.109,497.295z M825.035,496.866l0.047,0.021l0.026-0.037l-0.052-0.053l-0.029,0.018L825.035,496.866z M813.053,510.086l0.042,0.07l0.039,0.103l-0.005,0.021l-0.063-0.11l-0.068-0.088l-0.05-0.119l-0.04-0.068l-0.04-0.158l-0.05-0.061l-0.05-0.087l0.052-0.192l-0.033-0.17l-0.132-0.074l-0.308,0.017l-0.128,0.06l-0.284,0.294l-0.01,0.049l0.038,0.039l0.094-0.042l0.047,0.032l-0.052,0.042l0.01,0.053l0.078,0.053l-0.036,0.037l-0.078-0.016l-0.078-0.053l-0.146,0.021l-0.094-0.084l-0.005-0.084l0.047-0.031l-0.01-0.079l-0.196-0.093h-0.104l-0.062,0.056l-0.333,0.077l-0.18-0.028l-0.256,0.021l-0.146,0.147l-0.042,0.07l0.09,0.154l-0.007,0.098l-0.104,0.301h-0.083l-0.076-0.147l-0.069-0.035l-0.111,0.063l-0.312,0.063l-0.26,0.014l-0.01,0.069l0.062,0.079h0.099l0.036,0.047l-0.088,0.126l-0.125,0.026l-0.068,0.063l-0.062,0.11h-0.099l-0.057-0.079l0.031-0.142l0.057-0.026v-0.105l-0.104-0.089l-0.009-0.107l0.007-0.14l-0.055-0.021l-0.139,0.049l-0.152,0.147l-0.132,0.021l-0.36,0.413l-0.367,0.252l-0.18,0.056l-0.18,0.224l-0.083,0.014l-0.104-0.056h-0.125l-0.014-0.049l0.132-0.035l-0.021-0.038l-0.249,0.003l-0.236-0.007l-0.672-0.07l-0.142,0.074l-0.01,0.315l-0.094,0.105l-0.01,0.137l0.249,0.578l-0.01,0.179l-0.104,0.021l-0.083,0.158l0.073,0.263l-0.073,0.2l-0.239,0.263l-0.468,0.809l-0.166,0.242l-0.135,0.094l-0.166,0.221l-0.073,0.357l-0.291,0.326l-0.114,0.315l-0.135,0.126l-0.062,0.315l0.114,0.525l-0.021,0.116l0.031,0.126l0.208,0.095l0.062,0.179v0.2l-0.083,0.158l0.021,0.756l0.104,0.242l0.042,0.63l-0.062,0.136v0.147l0.125,0.226l0.166,0.158l0.198,0.347l-0.026,0.058l0.208,0.378l0.057,0.2l0.094,0.189v0.236l-0.052,0.058l-0.036,0.221l0.052,0.499l-0.01,0.089l0.104,0.263l0.135,0.189l0.109,0.158l-0.016,0.052l0.12,0.221l0.177,0.142l0.114,0.142l0.094,0.268l-0.036,0.252l-0.068,0.231l-0.114,0.068l-0.083,0.137l0.031,0.058h0.078l0.026,0.052l-0.052,0.037l0.031,0.173l-0.021,0.084l-0.057,0.026l-0.01,0.194l0.083,0.194l0.161,0.047l0.042,0.052l-0.01,0.079l0.062,0.126v0.194l-0.109,0.105l-0.114,0.236l-0.218,0.242l-0.172,0.331l-0.073,0.074l-0.042,0.131l-0.099,0.089l-0.047,0.105l-0.01,0.184l-0.104,0.105l-0.348,0.294l-0.062,0.095l-0.026,0.2l-0.047,0.068l-0.021,0.158l-0.083,0.268l-0.104,0.147l-0.109,0.068l-0.016,0.042l-0.047,0.01l-0.036-0.037l-0.042,0.01v0.058l-0.036,0.084l-0.083,0.052l-0.109,0.21l-0.13,0.467l0.01,0.2l-0.135,0.536l-0.114,0.273l-0.187,0.189l-0.249,0.031l-0.405-0.01l-0.234,0.106l-0.087,0.098l-0.084,0.269l-0.094,0.115l-0.021,0.105l0.135,0.567l-0.005,0.131l0.042,0.121l0.088,0.068l-0.01,0.052l-0.13-0.021l-0.068-0.063v-0.073l-0.078-0.016l-0.042,0.121l-0.135,0.179l-0.104,0.047l-0.036,0.079l0.073,0.152l-0.016,0.079l-0.047,0.026l-0.016,0.121l0.021,0.158l-0.088,0.252l-0.052,0.079l-0.083,0.024l-0.031,0.053l-0.045-0.007l0.021-0.098l-0.021-0.084l-0.049,0.007l-0.01,0.074l0.024,0.133l-0.073,0.13l-0.021,0.179l-0.003,0.193l0.007,0.077l0.059,0.052L801.662,534l-0.069,0.045l0.007,0.053l0.055-0.007l0.045-0.042l0.048-0.007l0.049-0.06l-0.01-0.098l0.024-0.031l0.052,0.021l0.007,0.095l0.042,0.136l-0.014,0.137l-0.045,0.035l-0.059-0.007l-0.021-0.077l-0.076-0.042l-0.069,0.025l-0.014,0.087l-0.042,0.039l0.01,0.053l0.059,0.042l-0.003,0.067l-0.035,0.024v0.095l0.111,0.168l0.014,0.109l0.017,0.228l0.024,0.088l0.042,0.042l0.01,0.193l-0.017,0.081l0.028,0.137l0.17,0.445l0.01,0.119l0.042,0.115l0.01,0.147l0.069,0.186l0.242,0.266l0.045,0.14l0.146,0.189l0.121,0.045l0.274,0.21l0.055,0.136l-0.003,0.091l-0.021,0.039l0.003,0.122l0.042,0.081l0.01,0.116l-0.042,0.067l-0.003,0.119l0.035,0.07l-0.007,0.13l0.114,0.186l0.104,0.021l0.197,0.224l0.09,0.052l0.052,0.098l-0.021,0.189l-0.028,0.046l-0.031,0.003l-0.042-0.06l-0.028,0.021l0.049,0.123l0.094,0.07l-0.01,0.035l-0.125,0.084l-0.18,0.018l-0.104,0.105l-0.021,0.193l0.014,0.273l-0.014,0.046l-0.042-0.01l-0.014,0.031l0.094,0.172l0.042,0.042l-0.007,0.056l-0.052,0.035l0.007,0.063l0.052,0.042l0.042,0.161l-0.031,0.035l-0.042,0.007l-0.01,0.049l0.035,0.109v0.228l0.049,0.112l0.007,0.137l-0.031,0.098l-0.028,0.606l0.031,0.091l-0.003,0.235l0.042,0.095l0.007,0.098l0.222,0.284l0.187,0.133l0.187,0.154l0.038,0.098l0.066,0.06l0.087,0.053l0.163,0.235v0.154l0.024,0.039l-0.017,0.056l-0.08,0.06l-0.003,0.098l0.118,0.158l0.028,0.07l-0.007,0.073l0.042,0.067l0.197,0.165l0.007,0.105l-0.017,0.056l0.021,0.084l0.045,0.042l0.01,0.112l-0.031,0.063l0.042,0.102l0.059,0.021l0.052,0.095l0.156,0.151l0.062,0.003l0.104-0.039l0.149,0.046l0.492,0.427l0.094,0.154l0.021,0.112l-0.035,0.049l0.014,0.028l0.125-0.014l0.288,0.035l0.142,0.056l0.7,0.084l0.419,0.119l0.069,0.056l0.229,0.123l0.197,0.14l0.007,0.088l0.094,0.126l0.201,0.102l0.326,0.122l0.09,0.105l-0.003,0.098l0.08,0.098l0.142,0.021l0.319-0.098l0.419-0.018l0.343-0.003l0.208-0.042l0.35-0.158l0.187-0.137l0.135-0.144l0.613-0.406l0.599-0.301l0.776-0.305l0.478-0.123l0.208-0.007l0.18-0.035h0.128l0.19,0.063l0.163-0.01l0.042,0.031l-0.007,0.042l0.048,0.014l0.08-0.06l0.239-0.028l0.052-0.063l0.01-0.06l0.045-0.01l0.027,0.043l0.036-0.008l0.049-0.081l0.087-0.049l0.052,0.004l0.035-0.021l0.028-0.081l0.229-0.109l0.146-0.01l0.069,0.028l0.028-0.035l-0.003-0.081l0.066-0.049l0.052,0.026l0.028-0.04l-0.022-0.044l0.005-0.079l0.192-0.11l0.114,0.016l0.036,0.073l0.042-0.005l0.005-0.158l0.026-0.052l0.099-0.058v-0.063l-0.057-0.021l-0.01-0.1l0.031-0.094l0.156-0.231l0.094-0.026l0.026-0.058l-0.047-0.074l-0.005-0.115l0.125-0.242l0.062-0.194l0.125-0.236l0.104-0.341l0.016-0.205l0.146-0.441l0.094-0.168l0.099-0.263l0.005-0.121l0.073-0.168l0.156-0.284l0.078-0.068l0.026-0.11l0.301-0.698l0.005-0.074l0.062-0.084l0.047-0.452l0.036-0.095l0.021-0.2l0.047-0.074l0.016-0.094l-0.01-0.105l0.083-0.326l0.161-0.373l0.13-0.41l0.062-0.294l0.021-0.221l0.057-0.247l0.14-0.341l0.01-0.126l0.109-0.431l-0.01-0.089l0.01-0.115l0.052-0.11l0.026-0.41l0.146-0.761l0.172-0.462l0.042-0.2l0.213-0.488l0.042-0.163l0.255-0.593l0.359-0.908l0.374-1.082l0.109-0.383l0.104-0.504l0.104-0.263l0.223-0.641l0.062-0.352l0.094-0.315l0.062-0.452l0.099-0.273l0.114-0.42l0.244-0.725l0.229-0.52l0.146-0.273l0.068-0.126l0.068-0.231l0.114-0.194l0.057-0.18l0.08-0.151l-0.007-0.046l-0.042,0.004l-0.01-0.046l0.052-0.354l0.171-0.767l0.151-0.357l0.26-0.646l0.026-0.273l0.099-0.331l0.223-0.593l0.114-0.194l0.457-1.281l0.166-0.341l0.122-0.373l0.109-0.137l0.026-0.097l0.003-0.202l0.083-0.252l0.01-0.152l0.099-0.231l0.13-0.031l0.026-0.058l-0.13-0.152l0.016-0.131l0.052-0.194l0.021-0.194l0.27-0.782v-0.1l0.073-0.173l-0.005-0.1l-0.078-0.052l-0.026-0.194l-0.036-0.068l0.016-0.184l-0.047-0.052l-0.01-0.179l-0.073-0.126l0.016-0.1l-0.057-0.11l-0.094-0.068v-0.121l0.12-0.383l0.14-0.263l0.12-0.257l0.073-0.284l0.135-0.2l0.052-0.121l0.021-0.116l0.088-0.089l0.203-0.084l0.327-0.047l0.27-0.042l0.026-0.042l-0.135-0.005l-0.135-0.089l-0.135-0.205l-0.031-0.2l0.062-0.047l0.052,0.031l0.057-0.021l0.109-0.184l0.042-0.168l0.099-0.084l0.042-0.11l0.01-0.189l0.083-0.226l-0.036-0.063l-0.078,0.026l-0.042-0.079l0.01-0.116l-0.057-0.131l0.14-0.373l0.021-0.116l-0.094-0.147l-0.135-0.058l-0.146-0.005l-0.187-0.152l-0.036-0.158l-0.062-0.126l0.047-0.242l0.151-0.263l-0.01-0.063h-0.057l-0.036-0.089l-0.005-0.1l-0.172-0.478l-0.052-0.042l-0.005-0.079l0.042-0.074l-0.036-0.21l-0.094-0.032l-0.021-0.179l0.12-0.189l0.229-0.21l0.078-0.01l0.078,0.037l0.062-0.005l0.062-0.052l0.13-0.021l0.099,0.016l0.042-0.053l0.057-0.01l0.12,0.095l-0.047,0.042v0.063l0.047,0.053l0.005,0.068l-0.047,0.079l0.005,0.152l0.234,0.184l0.031,0.068l-0.026,0.089l0.016,0.284l0.172,0.152l0.036,0.079l-0.047,0.11l0.062,0.205l0.338,0.21l0.088,0.005l0.036,0.037v0.1l0.099,0.074l0.213-0.021l0.01-0.084l-0.052-0.021v-0.047l0.078-0.021l0.083-0.179l0.088-0.016l0.068-0.1l-0.031-0.047l0.042-0.063l0.114-0.037v-0.063l-0.062-0.016l-0.005-0.084l0.047-0.042l0.099-0.221l0.021-0.1l0.12-0.278l0.114-0.173l0.036-0.268l0.078-0.095l0.021-0.063l-0.036-0.063l0.109-0.373l-0.026-0.121l0.031-0.105l0.005-0.058l-0.052-0.031l-0.016-0.053l0.031-0.074l-0.031-0.079l-0.083-0.016l-0.031-0.068l-0.01-0.121l-0.208-0.21l-0.146-0.221l-0.073-0.257l-0.094-0.173l-0.088-0.105l-0.078-0.352l-0.088-0.105l-0.005-0.226l-0.047-0.242l-0.073-0.084l-0.01-0.378l-0.047-0.168l0.021-0.252l0.062-0.137l0.021-0.226l-0.068-0.131l-0.156-0.11l0.005-0.2l0.057-0.179l0.021-0.315l-0.057-0.058l-0.047-0.11l0.026-0.688l-0.052-0.263l-0.166-0.268l0.016-0.179l-0.031-0.089l-0.068-0.031l-0.042-0.189l-0.099-0.142l-0.073-0.331l0.078-0.147l-0.016-0.131l-0.052-0.021l-0.026,0.058h-0.073l-0.057-0.121l-0.036-0.221l-0.12-0.336l0.036-0.368l-0.031-0.179l-0.146-0.137l0.005-0.074l-0.042-0.068l-0.109-0.021l-0.042-0.063l0.062-0.105l-0.042-0.068l-0.13,0.01l-0.078-0.126v-0.173l-0.057-0.063l-0.073-0.005l-0.083-0.089l0.005-0.074l-0.057-0.047l-0.073,0.031l-0.016,0.121l-0.073,0.095l-0.068-0.011l0.036-0.116l-0.042-0.142l-0.14-0.236l-0.094-0.037l-0.078,0.042h-0.088l0.005-0.121l0.047-0.116l-0.026-0.2l-0.026-0.194l-0.099-0.1l-0.01-0.116l0.062-0.079l0.01-0.11l-0.094-0.126l-0.135-0.005l-0.078,0.089l-0.042-0.01l-0.005-0.084l-0.094-0.089l-0.01-0.119l-0.064-0.161l-0.069-0.088l-0.036-0.023l-0.05-0.005l-0.045,0.075l0.003,0.063l0.047,0.039l0.005,0.067l-0.031,0.052l-0.062,0.023l-0.092-0.025l-0.002-0.044l0.043-0.039v-0.033l-0.088-0.032l-0.045,0.016l-0.035,0.081l-0.024,0.028H823.9l-0.04,0.016l-0.021,0.056l-0.04,0.035l-0.069-0.019l-0.003-0.098l0.074-0.173l0.047,0.002l0.017,0.07l0.055,0.066l0.05,0.002l0.055-0.108l0.032-0.024v-0.04l-0.047-0.03l-0.085-0.016l-0.088,0.019l-0.016-0.028l0.031-0.053l0.047-0.035l0.007-0.035l-0.043-0.023l0.002-0.056l0.054-0.096l0.036,0.002l0.023,0.077l0.029,0.044l0.078,0.037l0.026,0.035h0.019l0.005-0.037l-0.01-0.077l0.048-0.025l0.064,0.03l0.099,0.144l0.028-0.005l-0.05-0.198l-0.036-0.049l0.023-0.109l0.04-0.009l0.009-0.037l-0.05-0.052l-0.028-0.107l-0.045-0.033l-0.073-0.208l-0.146-0.14l-0.107-0.007l-0.281,0.287l0.024,0.063l0.086,0.013l0.029,0.097l0.062,0.068l-0.005,0.047l-0.104-0.013l-0.099-0.143h-0.062l-0.062,0.066l-0.17,0.077l0.035,0.038l0.163-0.017l0.048,0.035l-0.021,0.063l0.048,0.031l0.059-0.052l0.059,0.066l-0.01,0.077l-0.069-0.004l-0.083,0.175l0.048,0.074l-0.021,0.119l-0.062,0.017l-0.059-0.046l-0.087,0.007l-0.035,0.035l0.021,0.126l-0.035,0.042l-0.069,0.004l-0.024-0.06l-0.052-0.021l-0.1,0.06v0.074l-0.042,0.031l-0.059-0.028l-0.073,0.035l-0.062,0.112l0.042,0.042l0.003,0.066l-0.045,0.032l-0.052,0.284l-0.087,0.074l-0.062,0.004l-0.031-0.102l-0.097-0.109l-0.021-0.074l-0.083-0.063h-0.163l-0.073-0.035l-0.076-0.007l-0.038,0.028l-0.045,0.123l0.066,0.066h0.049l0.007-0.074l0.042-0.003l0.017,0.073l-0.021,0.084l0.09,0.066l0.097,0.137v0.105l0.042,0.028l0.076-0.077l0.076-0.01l0.031,0.063l-0.069,0.074l-0.055,0.21l0.014,0.084l0.097,0.007l0.059,0.077l-0.031,0.067l0.024,0.221l0.038,0.063l0.059,0.025l0.066,0.165l-0.028,0.217l-0.132,0.284l-0.222,0.333l-0.094,0.263l-0.055,0.277l0.028,0.172l-0.01,0.105l-0.087,0.168l-0.007,0.084l0.024,0.07l-0.007,0.074l-0.073,0.102l-0.236,0.123l-0.353,0.042l-0.166-0.035l-0.128-0.077l-0.149-0.172l-0.049,0.014l0.021,0.189l0.159,0.207l0.014,0.154l-0.042,0.032l-0.087-0.063l-0.249,0.039l-0.1,0.07l-0.042,0.112l-0.035-0.021l0.003-0.07l-0.08-0.066l-0.1,0.049l-0.003,0.077l0.09,0.102l-0.003,0.067l-0.083,0.038l-0.031,0.116l-0.024,0.305l0.045,0.105l-0.021,0.105l-0.184,0.077l-0.146-0.007l-0.038-0.084l-0.055-0.06l-0.128-0.056l-0.007-0.284l-0.073-0.077v-0.189l-0.042-0.038l-0.076,0.01l-0.104-0.063l-0.069-0.189l-0.097-0.039l-0.125,0.01l-0.076-0.039h-0.055l-0.059,0.077l-0.014,0.2l-0.094,0.014l-0.073-0.031l-0.049,0.021l-0.024,0.081l-0.028,0.375l-0.08,0.175v0.105l0.045,0.081l0.069,0.312l0.073,0.07l0.069,0.007l0.062,0.032l0.09,0.102l0.142,0.028l0.003,0.053l-0.059,0.025v0.087l-0.062,0.021l-0.087-0.035l-0.111,0.007l-0.003,0.053l0.08,0.028l0.087,0.084l0.208,0.098l0.066,0.147l-0.017,0.2l-0.104,0.126l-0.042,0.112l0.045,0.116l-0.003,0.053l-0.062,0.031l-0.007,0.102l-0.014,0.095l-0.049-0.021l-0.031-0.095l0.076-0.42l0.069-0.105l-0.014-0.112l-0.104-0.028l-0.107-0.088l-0.159-0.053l-0.028,0.053l0.177,0.193l0.028,0.13l-0.052,0.245l-0.062,0.021l-0.042-0.026l-0.068-0.005l-0.047,0.042l-0.14-0.047l-0.078-0.1l-0.073-0.005l-0.109,0.126l0.016,0.131l-0.01,0.063l-0.192,0.158l-0.078,0.284l0.026,0.2l0.135,0.194l-0.078,0.11l0.031,0.173l0.047,0.037l0.047-0.037l0.057,0.021l-0.166,0.257l-0.094,0.031l-0.057,0.074l-0.005,0.079l-0.177,0.247l0.021,0.089l-0.203,0.31l-0.026,0.263l-0.057,0.173l-0.068,0.068l-0.083,0.01l-0.057,0.052l-0.14,0.247l-0.151,0.137h-0.042l0.005-0.068l-0.088-0.163l0.068-0.168l0.01-0.105l-0.052-0.074l0.01-0.079l0.286-0.347l0.14-0.242l-0.021-0.042l-0.047,0.032l-0.036-0.021l0.026-0.058l-0.062-0.068l0.01-0.1l0.036-0.073v-0.063l-0.088-0.068l0.005-0.079l-0.042-0.026l-0.166,0.116l-0.333,0.352l-0.151,0.221l0.021,0.11l0.125,0.042l0.068-0.021l-0.005-0.11l0.062-0.031l0.068,0.084v0.063l-0.073,0.084l-0.249,0.074l-0.13,0.179l-0.078,0.005l-0.057,0.058l0.021,0.079l-0.088,0.142l-0.223,0.168l-0.125,0.026l-0.223,0.299v0.137l0.062,0.063l0.021,0.089l0.042,0.037l0.052-0.032l0.052,0.021l-0.031,0.126l0.068,0.032l0.088-0.095l0.078-0.021l0.031,0.063l-0.099,0.163l-0.005,0.079l0.094,0.089l0.047,0.252l-0.068,0.037l-0.078-0.037l-0.171-0.016l-0.249,0.131l-0.135,0.026l-0.161-0.074v-0.105l0.13-0.121l0.114-0.021l0.156-0.158l-0.031-0.053l0.021-0.073l-0.021-0.063l-0.094-0.005l-0.182-0.095l-0.036-0.142l0.021-0.068l-0.01-0.105l-0.066-0.03l-0.277,0.119l-0.312,0.238l-0.139,0.126l-0.409,0.28l-0.083,0.105l-0.402,0.301h-0.104l-0.083,0.028l-0.055,0.14l-0.346,0.298l-0.111,0.228l-0.09,0.087l0.024,0.049l0.104,0.021l0.08,0.081l0.005,0.079l-0.057,0.088l-0.116,0.049l0.01,0.082l0.081,0.018l0.092-0.033l0.075,0.019l0.22,0.188l0.179,0.16l0.078,0.055l0.044,0.11l-0.029-0.018l-0.047-0.079l-0.114-0.076l-0.081-0.066l-0.018,0.034l0.023,0.079l0.125,0.15l0.182,0.149l0.143,0.061l-0.036,0.005l-0.139-0.04l-0.222-0.186l-0.081-0.021l-0.101,0.008l-0.107-0.029l-0.143-0.052l-0.075-0.008L813.053,510.086z M817.943,504.158l0.042-0.016l0.021-0.047l-0.042-0.01l-0.042,0.037L817.943,504.158z M801.8,533.121l0.024-0.014l0.042-0.13l0.038-0.067l-0.003-0.143l-0.049,0.01l-0.066,0.116l-0.007,0.06l0.021,0.056V533.121z M801.97,532.235l0.045-0.014l0.01-0.049l-0.031-0.024l-0.042,0.014l-0.007,0.053L801.97,532.235z M801.475,533.569l0.014-0.042l-0.024-0.025l-0.035,0.032v0.031L801.475,533.569z M801.464,533.355l0.028-0.031l-0.021-0.028l-0.035,0.014v0.039L801.464,533.355z M801.824,532.291l0.031-0.01l0.007-0.028l-0.031-0.014l-0.024,0.028L801.824,532.291z M801.461,533.663l0.017-0.035l-0.028-0.014l-0.024,0.017l0.007,0.035L801.461,533.663z M803.286,529.708l0.035-0.007l0.003-0.028l-0.038-0.014l-0.024,0.028L803.286,529.708z M803.474,529.424l0.024-0.021l-0.007-0.028h-0.031l-0.014,0.031L803.474,529.424z M803.526,529.106l0.031-0.021l-0.014-0.028l-0.035,0.004l-0.01,0.031L803.526,529.106z M803.581,528.776l0.003-0.028l-0.035-0.014l-0.021,0.028l0.024,0.021L803.581,528.776z M803.058,540.094l0.031-0.003v-0.035l-0.035-0.01l-0.017,0.025L803.058,540.094z M802.975,539.793l0.042,0.007l0.003-0.039l-0.042-0.01l-0.024,0.018L802.975,539.793z M805.285,546.087l0.031-0.01l0.007-0.031l-0.035-0.01l-0.028,0.028L805.285,546.087z M804.192,520.118l0.028-0.01l-0.002-0.026l-0.038-0.003l-0.012,0.023L804.192,520.118z M804.069,519.993l0.019-0.012l0.003-0.025h-0.021l-0.012,0.018L804.069,519.993z M804.191,519.468l0.019-0.021v-0.028h-0.024l-0.014,0.04L804.191,519.468z M811.468,509.225l0.042,0.016l0.052-0.058l-0.021-0.037l-0.047,0.021L811.468,509.225z M803.531,519.045l0.014-0.009l-0.003-0.014h-0.019l-0.01,0.014L803.531,519.045z M803.718,519.734l0.012,0.007l0.014-0.026l-0.003-0.018l-0.012,0.003L803.718,519.734z M803.933,519.976l0.017-0.007l-0.007-0.012l-0.019-0.002l-0.005,0.014L803.933,519.976z M804.017,520.02l0.016,0.003l0.01-0.014l-0.01-0.01l-0.014,0.007L804.017,520.02z M823.2,495.772l0.021-0.007l0.01-0.052h-0.021l-0.017,0.028L823.2,495.772z M824.321,495.791l0.002,0.023l0.031,0.002l0.016,0.016h0.023l-0.01-0.04l-0.026-0.016L824.321,495.791z M824.437,495.972l0.024-0.009l-0.009-0.018l-0.045-0.007l-0.014,0.017L824.437,495.972z M824.463,496.024l0.016-0.004v-0.016l-0.024-0.019l-0.01,0.007L824.463,496.024z M813.502,510.115l0.031-0.003l-0.062-0.081l-0.013-0.066l-0.06-0.045l-0.101-0.026l-0.01,0.024l0.099,0.118L813.502,510.115z M813.058,510.044l0.029-0.005l-0.026-0.079l-0.062-0.053l-0.018,0.021L813.058,510.044z M813.258,509.847l0.114,0.034l0.034-0.005l-0.078-0.066l-0.088-0.01l-0.021,0.016L813.258,509.847z M813.32,510.099l0.034-0.013l-0.081-0.113l-0.125-0.1l-0.031,0.003l0.088,0.118L813.32,510.099z M813.175,510.057l0.023-0.008l-0.021-0.055l-0.065-0.047l-0.008,0.026l0.029,0.045L813.175,510.057z"/>
</svg>
