<svg xmlns="http://www.w3.org/2000/svg" viewBox="1237.700 395.793 42.156 37.741">
  <path d="M1267.863,396.148l0.089,-0.091l0.117,-0.055l0.05,-0.063l-0.005,-0.13l0.026,-0.016l0.013,0.023l-0.003,0.128l-0.063,0.081l-0.125,0.06l-0.065,0.055l-0.034,0.008Z M1243.355,408.36l0.039,-0.021l0.036,-0.06l-0.005,-0.031l-0.034,0.05l-0.065,0.034l-0.005,0.026l0.034,0.003Z M1243.514,408.157l0.023,-0.063l-0.016,-0.021l-0.021,0.008l-0.008,0.083l0.021,-0.008Z M1243.551,408.042l0.023,-0.005l-0.003,-0.021l-0.018,-0.01l-0.016,0.018l0.013,0.018Z M1243.032,407.166l0.029,-0.01l-0.013,-0.039l-0.029,-0.003l-0.018,0.029l0.031,0.023Z M1243.327,407.336l0.044,0.01l-0.003,-0.026l-0.057,-0.031l-0.018,0.01l0.034,0.036Z M1237.7,413.938l0.009,0.014l0.014,-0.002l0.005,-0.016l-0.021,-0.009l-0.007,0.012Z M1237.91,414.021l0.03,0.016l0.019,-0.002l-0.014,-0.019l-0.023,-0.005l-0.012,0.01Z M1238.187,414.167h0.017l0.002,-0.014l-0.012,-0.007l-0.012,0.009l0.005,0.012Z M1238.273,414.211l0.083,0.023l0.04,-0.005l0.01,-0.017l-0.016,-0.009l-0.016,0.01l-0.026,0.002l-0.082,-0.023l-0.01,0.009l0.016,0.01Z M1272.152,405.197l0.019,0.012l0.012,-0.008l-0.015,-0.021l-0.018,-0.004l-0.007,0.01l0.008,0.011Z M1238.313,414.1l0.016,-0.005l0.002,-0.016h-0.019l-0.012,0.01l0.014,0.01Z M1272.265,404.997l0.024,-0.019l0.012,-0.025l-0.014,-0.003l-0.026,0.021l-0.007,0.025h0.011Z M1264.803,429.604l0.026,-0.021l-0.006,-0.018l-0.053,-0.01l-0.015,0.012l0.029,0.037h0.018Z M1264.806,429.725l0.025,0.026l0.053,0.003l0.022,-0.018l0.047,-0.145l-0.012,-0.014l-0.057,0.011l-0.003,0.015l0.029,0.003l0.007,0.014l-0.03,0.107l-0.037,0.004l-0.019,-0.024v-0.036l-0.011,-0.008 l-0.015,0.011l0.003,0.051Z M1266.986,433.506l0.047,0.028h0.061l0.087,-0.032 l0.104,-0.083l0.015,-0.058v-0.064l-0.006,-0.026 l-0.014,0.012v0.065l-0.011,0.051 l-0.089,0.075l-0.082,0.039l-0.048,-0.003l-0.048,-0.037l-0.018,0.008v0.025Z M1266.983,433.437v-0.021l-0.011,-0.006 l-0.007,0.01l0.007,0.021l0.011,-0.004Z M1266.917,433.407l0.011,-0.006l-0.012,-0.021h-0.015l-0.008,0.012 l0.025,0.014Z M1266.874,433.34l-0.011,-0.06l-0.012,-0.006l-0.012,0.015l0.007,0.024l0.015,0.021l0.014,0.006Z M1266.914,433.19l0.019,-0.021l-0.008,-0.012l-0.017,0.006l-0.003,0.018l0.008,0.01Z M1268.562,429.583l0.031,-0.014l0.007,-0.017l-0.017,-0.005l-0.033,0.021l-0.005,0.016h0.017Z M1270.261,428.968l0.024,0.031l0.068,0.04l0.033,-0.007l0.002,-0.026l0.014,-0.019l0.028,-0.141l0.035,-0.139l0.005,-0.068l0.016,-0.038l0.028,-0.036l0.009,-0.031l-0.021,-0.024l-0.012,0.012l0.009,0.023l-0.03,0.036l-0.019,0.045l-0.003,0.066l-0.038,0.141l-0.024,0.146l-0.03,0.024l-0.033,-0.009l-0.04,-0.033l-0.033,-0.017l-0.005,0.012l0.019,0.012Z M1270.536,428.491l0.082,-0.054l0.024,-0.04l0.038,-0.028l0.087,-0.021l0.033,-0.064l0.002,-0.05l0.014,-0.038l-0.003,-0.021l-0.045,-0.026l-0.096,-0.064l-0.026,-0.043l-0.035,-0.03l-0.036,-0.014l-0.007,0.014l0.047,0.033l0.033,0.05l0.099,0.066l0.038,0.043l-0.007,0.076l-0.023,0.047l-0.094,0.026l-0.042,0.031l-0.019,0.036l-0.061,0.05h-0.021l-0.009,0.012l0.026,0.007Z M1269.756,428.447l0.014,-0.01l-0.038,-0.031l-0.04,-0.002l0.007,0.026l0.057,0.017Z M1270.013,428.686v0.017l0.024,0.022l0.016,-0.003l-0.007,-0.017l-0.016,-0.014l-0.017,-0.004Z M1270.069,428.751l0.01,-0.015l-0.003,-0.014l-0.012,0.006l-0.003,0.015l0.008,0.008Z M1270.071,428.793v0.021l0.018,0.012 l0.006,-0.011l-0.01,-0.024h-0.014Z M1270.161,428.883l-0.008,-0.026l-0.011,-0.015l-0.01,0.008l0.006,0.024l0.018,0.022l0.006,-0.012Z M1270.428,428.02l0.011,-0.01l-0.004,-0.018l-0.012,0.003l-0.01,0.023l0.016,0.002Z M1270.389,427.989l0.012,-0.007l-0.026,-0.03h-0.015l0.006,0.022 l0.024,0.015Z M1270.327,427.922l0.012,-0.003l-0.036,-0.098l-0.01,-0.017l-0.024,-0.014l-0.004,0.012l0.015,0.017l0.033,0.089l0.012,0.014Z M1270.18,427.753l0.011,-0.006l-0.003,-0.06l-0.046,-0.089l-0.014,-0.003v0.018l0.043,0.073 v0.047l0.008,0.018 Z M1269.66,427.309h0.019v-0.011l-0.024,-0.007 l-0.011,0.007l0.015,0.011Z M1269.631,427.263l0.014,0.003v-0.022l-0.012,-0.008 l-0.006,0.012l0.004,0.015Z M1269.635,427.19h0.012l0.007,-0.014l-0.007,-0.026h-0.01l-0.008,0.021 l0.006,0.019Z M1270.14,427.534l0.006,-0.01l-0.007,-0.012l-0.01,0.007v0.012l0.011,0.003 Z M1269.956,427.237l0.006,0.025l0.014,0.057l0.024,0.035l0.006,-0.01l-0.011,-0.025l-0.007,-0.032l-0.015,-0.057l-0.018,-0.012l-0.004,0.01l0.007,0.01Z M1270.027,427.392l0.01,0.022l0.011,-0.003v-0.018l-0.014,-0.019 l-0.017,-0.007l-0.003,0.011l0.012,0.014Z M1270.104,427.494l0.014,-0.007l-0.003,-0.011h-0.011l-0.011,0.01l0.011,0.008Z M1270.135,427.568l0.007,-0.01l-0.004,-0.01l-0.012,0.004l-0.003,0.015h0.012Z M1270.082,427.472l0.011,-0.008l-0.008,-0.012l-0.011,0.006l-0.003,0.011l0.011,0.004Z M1278.252,427.827l0.016,0.076l0.036,0.036l0.111,0.04l0.115,0.096l0.047,0.002l0.042,-0.028l0.019,-0.002l-0.033,0.043l-0.057,0.014l-0.043,-0.016l-0.115,-0.094l-0.097,-0.036h-0.076l-0.016,-0.016l0.028,-0.061l0.012,-0.064l0.012,0.009Z M1278.728,427.997l0.068,-0.017l0.089,0.01l0.04,0.025l0.006,-0.008l-0.031,-0.032l-0.103,-0.014l-0.08,0.023l-0.003,0.012l0.013,0.002Z M1279,428.079l0.04,0.035l0.048,0.01l0.065,-0.025l0.078,0.003l0.105,0.03l0.097,0.053v-0.01l-0.082,-0.057l-0.114,-0.037h-0.09l-0.062,0.025 l-0.037,-0.01l-0.058,-0.051l-0.006,0.007l0.015,0.028Z M1279.501,428.225l0.012,-0.003l-0.035,-0.033l-0.019,-0.005l0.007,0.021l0.035,0.021Z M1279.636,428.326v0.017l0.031,0.014l0.005,-0.014l-0.021,-0.019l-0.016,0.002Z M1279.742,428.56l0.03,0.033l0.009,-0.012l-0.038,-0.082l-0.012,-0.012l-0.012,0.012l0.024,0.061Z M1279.826,428.649l0.01,0.026l0.017,0.017l0.003,-0.021l-0.021,-0.028l-0.01,0.005Z M1278.236,427.752l0.017,-0.007l-0.02,-0.178l-0.029,-0.086l0.013,-0.052l-0.02,-0.007l-0.024,0.042v0.049l0.028,0.066l0.035,0.174Z M1278.31,427.431l0.019,-0.007l-0.01,-0.014h-0.029l-0.007,0.015l0.026,0.006Z M1279.623,427.937h0.014l0.014,-0.031l-0.012,-0.007l-0.016,0.012v0.026Z M1279.632,428.15l0.007,0.024l0.015,-0.003l0.007,-0.022l-0.015,-0.011l-0.014,0.012Z M1278.54,427.378l0.019,-0.014l-0.006,-0.011l-0.017,0.004l-0.008,0.015l0.011,0.006Z M1279.615,427.987v0.014l0.004,0.012 l0.01,-0.011v-0.017h-0.014Z M1279.254,427.451v0.014l0.014,0.008l0.012,-0.008l-0.007,-0.014h-0.019Z M1279.628,428.09l0.007,0.018h0.011l0.003,-0.019 l-0.012,-0.008l-0.008,0.01Z M1278.981,427.327l0.007,0.018h0.011l0.003,-0.019 l-0.012,-0.008l-0.008,0.01Z M1278.896,427.29l0.007,0.008l0.011,-0.003v-0.014l-0.015,-0.003 l-0.003,0.011Z M1279.587,427.651l0.003,0.012l0.016,-0.002v-0.012l-0.011,-0.007l-0.008,0.01Z M1278.655,427.328l-0.007,0.01l0.012,0.007l0.014,-0.004l0.004,-0.011h-0.023Z M1278.42,427.406l0.006,0.014h0.012l0.017,-0.015 l-0.008,-0.012l-0.018,0.003l-0.008,0.011Z M1279.16,427.433l-0.009,0.003l0.004,0.012l0.018,0.017h0.01l-0.008,-0.018 l-0.015,-0.013Z M1278.83,427.352l0.01,-0.014l-0.015,-0.003l-0.023,0.011l-0.006,0.014l0.035,-0.008Z M1279.063,427.383l0.006,-0.014l-0.01,-0.008l-0.011,0.006l0.003,0.014l0.012,0.003Z M1279.596,427.692l0.012,-0.007v-0.012h-0.011l-0.007,0.01 l0.006,0.01Z M1279.353,427.449l0.01,-0.012l-0.011,-0.012l-0.012,0.007v0.015l0.014,0.003 Z M1278.5,427.407l0.017,-0.017l-0.015,-0.01l-0.022,0.011l-0.003,0.017h0.024Z M1275.645,423.961l0.012,0.056l0.047,0.059l0.115,0.054l0.219,0.071l0.151,0.064l0.148,0.05h0.059l0.068,-0.035l0.092,-0.019l0.063,-0.005l0.122,-0.036l0.136,-0.014l0.014,-0.019l-0.005,-0.033l-0.061,-0.071l-0.038,-0.012l0.01,-0.014l0.047,0.007l0.066,0.08l0.01,0.061l-0.026,0.028l-0.155,0.016l-0.108,0.038l-0.068,-0.002l-0.087,0.023l-0.082,0.043l-0.071,-0.002l-0.283,-0.116l-0.238,-0.082l-0.125,-0.057l-0.043,-0.063l-0.036,-0.03l-0.002,-0.035l0.033,-0.054l0.016,-0.002l0.002,0.05Z M1276.697,424.071l-0.036,-0.024l-0.109,-0.085l-0.014,0.007l0.016,0.024l0.097,0.075l0.038,0.012l0.009,-0.009Z M1275.793,423.739l0.014,-0.007l-0.019,-0.019h-0.021l0.003,0.017l0.023,0.009Z M1276.752,424.064l-0.007,0.01l0.012,0.007l0.014,-0.004l0.004,-0.011h-0.023Z M1276.29,423.954l0.012,-0.009l-0.014,-0.01l-0.024,0.002l0.003,0.014l0.023,0.003Z M1275.732,423.716l0.01,-0.014l-0.015,-0.003l-0.023,0.011l-0.006,0.014l0.035,-0.008Z M1277.537,424.216l-0.031,0.063l0.016,0.05l0.052,0.029l0.05,0.057l0.05,0.102l0.091,0.055l0.094,-0.013l0.06,-0.034l0.047,0.005l0.063,0.057l0.208,0.115h0.063l0.023,-0.036l-0.018,-0.13l0.021,-0.065l0.076,-0.055l0.026,-0.034l0.013,-0.044l0.039,-0.031l0.206,-0.034l0.042,-0.034l0.125,-0.01l0.073,-0.057l0.05,-0.083l-0.06,-0.052l-0.036,0.016l0.005,0.018l0.034,0.005l0.016,0.023l-0.034,0.055l-0.047,0.044l-0.094,0.005l-0.06,0.01l-0.044,0.031l-0.182,0.031l-0.05,0.034l-0.029,0.07l-0.094,0.06l-0.023,0.099l0.013,0.109l-0.01,0.023l-0.052,-0.003l-0.188,-0.109l-0.057,-0.055l-0.073,-0.005l-0.063,0.039l-0.076,0.003l-0.073,-0.05l-0.047,-0.094l-0.083,-0.089l-0.013,-0.044l0.008,-0.047h-0.023Z M1277.613,424.098l0.003,-0.05h-0.023l-0.013,0.036l0.01,0.023l0.023,-0.01Z M1277.866,423.697l0.008,-0.055l0.034,-0.039v-0.023l-0.055,0.021l-0.013,0.044l0.005,0.076l0.021,-0.023Z M1278.036,424.067l0.014,-0.007l-0.019,-0.019h-0.021l0.003,0.017l0.023,0.009Z M1277.864,423.497h0.014l0.014,-0.031l-0.012,-0.007l-0.016,0.012v0.026Z M1277.662,424.01l0.019,-0.014l-0.006,-0.011l-0.017,0.004l-0.008,0.015l0.011,0.006Z M1278.629,424.213l0.007,0.008l0.011,-0.003v-0.014l-0.015,-0.003 l-0.003,0.011Z M1278.58,424.208l0.003,0.012l0.016,-0.002v-0.012l-0.011,-0.007l-0.008,0.01Z M1278.552,424.204l-0.005,0.012l0.01,0.009l0.016,-0.01l-0.003,-0.012l-0.017,0.002Z M1278.106,424.237l0.012,-0.009l-0.014,-0.01l-0.024,0.002l0.003,0.014l0.023,0.003Z M1278.51,424.215l0.01,-0.007l-0.009,-0.012l-0.021,0.003l0.002,0.014l0.017,0.002Z M1278.048,424.149l0.021,0.003l0.007,-0.009l-0.016,-0.019l-0.019,-0.002l-0.002,0.012l0.009,0.014Z M1278.076,424.201l0.011,-0.004v-0.022l-0.012,-0.004l-0.007,0.012l0.008,0.018Z M1276.07,419.65l0.003,0.029l0.021,0.01l0.026,-0.039l-0.008,-0.029l-0.05,-0.008l-0.008,0.021l0.016,0.016Z M1276.135,420.283l0.021,0.013l0.01,-0.029l-0.031,-0.055l-0.023,0.008l0.003,0.036l0.021,0.026Z M1275.632,419.42l0.003,0.039l0.021,0.013l0.016,-0.018l-0.01,-0.029l-0.029,-0.005Z M1276.126,420.15l0.014,0.019l0.011,-0.006l-0.004,-0.017l-0.015,-0.008l-0.006,0.011Z M1276.052,419.99l0.007,0.018h0.011l0.003,-0.019 l-0.012,-0.008l-0.008,0.01Z M1275.538,419.963l0.014,0.006l0.008,-0.006l-0.003,-0.014h-0.014l-0.006,0.014Z M1275.727,420.058h-0.012l0.002,0.014 l0.012,0.009l0.011,-0.003l-0.013,-0.019Z M1276.094,420.101l0.021,0.003l0.007,-0.009l-0.016,-0.019l-0.019,-0.002l-0.002,0.012l0.009,0.014Z M1276.028,419.9l-0.005,0.012l0.01,0.009l0.016,-0.01l-0.003,-0.012l-0.017,0.002Z M1275.991,419.59l0.012,0.01l0.014,-0.01l-0.009,-0.014h-0.016l-0.002,0.014Z M1276.217,419.044l0.007,0.01l0.023,-0.012l0.002,-0.033l-0.014,-0.009l-0.01,0.012l-0.002,0.019l-0.005,0.012Z M1276.372,418.283l0.026,-0.016l0.005,-0.021l-0.005,-0.024l-0.03,0.002l-0.016,0.024v0.035h0.019Z M1275.737,417.666l0.028,0.012l0.014,0.021h0.016l-0.017,-0.042l-0.023,-0.016l-0.019,0.005l0.002,0.019Z M1274.924,417.581l0.026,-0.012l0.012,-0.031l0.023,-0.014l-0.007,-0.017l-0.03,-0.005l-0.028,0.017l-0.012,0.032l0.002,0.025l0.014,0.005Z M1275.12,417.517l0.019,-0.007l-0.01,-0.014h-0.029l-0.007,0.015l0.026,0.006Z M1275.103,418.095l0.011,-0.009l-0.009,-0.033l-0.014,0.002l-0.004,0.019l0.017,0.02Z M1275.59,418.629l0.008,-0.01l-0.01,-0.032l-0.014,-0.006v0.019l0.015,0.028Z M1275.501,417.591l0.007,0.008l0.011,-0.003v-0.014l-0.015,-0.003 l-0.003,0.011Z M1276.18,419.068l0.007,0.008l0.011,-0.003v-0.014l-0.015,-0.003 l-0.003,0.011Z M1276.162,418.756l-0.005,0.012l0.01,0.009l0.016,-0.01l-0.003,-0.012l-0.017,0.002Z M1275.852,417.768l0.023,0.013l0.006,-0.019l-0.018,-0.019l-0.016,0.007l0.005,0.018Z M1275.46,417.58l0.01,-0.007l-0.009,-0.012l-0.021,0.003l0.002,0.014l0.017,0.002Z M1276.166,418.027l0.014,-0.006v-0.012l-0.015,-0.017 l-0.012,0.008l0.003,0.018l0.011,0.008Z M1275.288,417.521h0.017l-0.008,-0.015 l-0.024,-0.011l-0.014,0.005l0.029,0.021Z M1275.509,418.496l0.011,0.018l0.014,0.003v-0.017l-0.014,-0.01 l-0.011,0.006Z M1275.059,412.41l0.031,-0.016l0.013,-0.06l-0.005,-0.042l-0.021,-0.01l-0.029,0.026l-0.01,0.089l0.021,0.013Z M1271.945,417.049l0.016,0.026l0.065,0.026l-0.01,-0.026l-0.044,-0.023l-0.026,-0.003Z M1272.096,417.111l0.034,-0.008l-0.021,-0.016h-0.034l-0.018,0.018l0.039,0.005Z M1272.682,415.428l0.008,0.043l-0.017,0.032l0.01,0.01l0.047,-0.05l-0.014,-0.061l-0.028,-0.016l-0.014,0.019l0.007,0.024Z M1272.402,415.085l0.01,-0.017l-0.028,-0.018l-0.022,0.004l-0.022,0.03l0.004,0.01h0.018l0.015,-0.012 l0.025,0.003Z M1271.377,415.178l0.01,-0.007l-0.007,-0.014l-0.023,-0.01l-0.024,0.009l0.002,0.016l0.042,0.007Z M1271.661,415.201l0.012,-0.012l-0.023,-0.014l-0.017,0.007l0.002,0.017l0.026,0.002Z M1272.535,415.731l0.016,-0.002l0.023,-0.021l0.005,-0.026l-0.016,0.003l-0.016,0.023l-0.024,0.012l0.012,0.01Z M1272.624,415.672l0.012,-0.014l-0.016,-0.009l-0.026,0.017l0.003,0.012l0.026,-0.007Z M1272.657,415.38l0.005,-0.012l-0.016,-0.019l-0.012,0.002l0.002,0.017l0.021,0.012Z M1272.548,415.218l-0.016,-0.014l-0.012,0.002l-0.002,0.014l0.028,0.012l0.002,-0.014Z M1272.67,415.569l-0.003,-0.02l-0.015,0.007l-0.005,0.029l0.014,0.009l0.01,-0.025Z M1271.463,416.422v0.014l0.014,0.008l0.012,-0.008l-0.007,-0.014h-0.019Z M1272.607,415.312v0.014l0.014,0.008l0.012,-0.008l-0.007,-0.014h-0.019Z M1272.077,415.673l-0.003,0.019l0.011,0.006l0.014,-0.012l-0.007,-0.012h-0.015Z M1271.694,415.203l0.007,0.008l0.011,-0.003v-0.014l-0.015,-0.003 l-0.003,0.011Z M1272.168,415.155l0.003,0.012l0.016,-0.002v-0.012l-0.011,-0.007l-0.008,0.01Z M1272.005,415.69l0.014,0.006l0.008,-0.006l-0.003,-0.014h-0.014l-0.006,0.014Z M1272.172,415.626l-0.005,0.012l0.01,0.009l0.016,-0.01l-0.003,-0.012l-0.017,0.002Z M1271.216,415.141l-0.005,0.012l0.01,0.009l0.016,-0.01l-0.003,-0.012l-0.017,0.002Z M1271.874,415.194l0.01,0.006l0.005,-0.013l-0.006,-0.013l-0.011,-0.003v0.023Z M1272.018,415.772l0.008,-0.019l-0.015,-0.003l-0.022,0.014v0.014l0.029,-0.006 Z M1272.382,415.689l0.015,-0.003l0.006,-0.011l-0.021,-0.003l-0.01,0.01l0.01,0.007Z M1272.509,415.185l-0.007,-0.012l-0.017,-0.003v0.011l0.014,0.012 l0.01,-0.008Z M1272.422,415.107l0.003,0.012h0.011l0.001,-0.019 l-0.014,-0.006v0.012Z M1272.598,415.304l0.01,-0.007l-0.003,-0.014h-0.018v0.012l0.011,0.008Z M1272.574,415.268l0.008,-0.011l-0.017,-0.008l-0.01,0.006l0.006,0.011l0.012,0.003Z M1270.894,408.839l0.029,0.005l0.016,-0.018l-0.036,-0.023h-0.021l-0.005,0.021l0.018,0.016Z M1271.16,408.8l0.05,-0.008l0.057,-0.018l0.003,-0.029l-0.034,-0.018l-0.031,0.01l-0.008,0.026l-0.06,0.029l0.023,0.008Z M1270.566,409.183l-0.006,-0.023h-0.012l-0.002,0.018 l0.011,0.013l0.009,-0.008Z M1270.424,409.297l0.007,0.008l0.011,-0.003v-0.014l-0.015,-0.003 l-0.003,0.011Z M1271.185,408.69l-0.007,0.01l0.012,0.007l0.014,-0.004l0.004,-0.011h-0.023Z M1271.322,412.321l0.022,0.022l0.012,-0.003l-0.003,-0.021l-0.015,-0.012h-0.019l0.003,0.014 Z M1271.771,412.612h0.011l0.018,-0.018 v-0.037l-0.014,-0.001 l-0.017,0.019l-0.004,0.022l0.006,0.015Z M1271.652,411.683l0.017,-0.017v-0.019l-0.024,-0.006l-0.014,0.014v0.022l0.021,0.006Z M1271.72,411.811l-0.01,0.023l0.013,0.007l0.019,-0.012l-0.005,-0.018h-0.019Z M1271.739,411.949v0.014l0.014,0.008l0.012,-0.008l-0.007,-0.014h-0.019Z M1271.734,412.237v0.014l0.014,0.008l0.012,-0.008l-0.007,-0.014h-0.019Z M1271.783,412.456l0.007,0.018h0.011l0.003,-0.019 l-0.012,-0.008l-0.008,0.01Z M1271.783,412.516l0.003,0.012l0.016,-0.002v-0.012l-0.011,-0.007l-0.008,0.01Z M1271.754,412.315l0.014,0.006l0.008,-0.006l-0.003,-0.014h-0.014l-0.006,0.014Z M1271.719,411.872l-0.005,0.012l0.01,0.009l0.016,-0.01l-0.003,-0.012l-0.017,0.002Z M1271.743,412.081l0.004,0.011l0.013,-0.007l0.004,-0.014l-0.007,-0.01l-0.014,0.018Z M1271.704,411.729l-0.014,-0.004v0.017l0.018,0.017 l0.008,-0.012l-0.012,-0.019Z M1271.748,411.924l0.01,-0.007l-0.009,-0.012l-0.021,0.003l0.002,0.014l0.017,0.002Z M1271.675,411.709l0.021,0.003l0.007,-0.009l-0.016,-0.019l-0.019,-0.002l-0.002,0.012l0.009,0.014Z M1271.757,412.046l0.011,-0.011l-0.007,-0.017l-0.014,0.003v0.014l0.01,0.011 Z M1271.753,412.006l0.012,-0.003l0.007,-0.012l-0.012,-0.008l-0.014,0.011l0.007,0.012Z M1271.782,412.429l0.012,0.006l0.007,-0.011l-0.011,-0.014l-0.012,0.003l0.004,0.017Z M1271.783,412.398l0.015,-0.01v-0.01l-0.019,0 l-0.006,0.014l0.01,0.006Z M1271.779,412.362l0.008,-0.01l-0.006,-0.014h-0.015l0.003,0.015 l0.01,0.008Z M1268.093,413.231l0.042,0.055l0.057,0.026l0.026,-0.016l-0.016,-0.034l-0.076,-0.042l-0.034,0.01Z M1268.189,413.773l0.018,-0.018l0.005,-0.031l-0.021,-0.013l-0.018,0.016l-0.003,0.029l0.018,0.018Z M1268.666,414.174l0.091,-0.005l0.031,-0.029l0.003,-0.018l-0.042,0.026l-0.099,0.003l-0.023,0.01l0.039,0.013Z M1269.216,414.099l0.029,0.008l0.068,-0.018l0.018,-0.016l-0.036,-0.013l-0.047,0.013l-0.031,-0.005l-0.018,0.016l0.018,0.016Z M1269.279,414.015l0.036,0.013l0.005,-0.018l-0.034,-0.034h-0.021l-0.003,0.018l0.016,0.021Z M1269.151,413.851l0.031,0.005l-0.005,-0.029l-0.018,-0.021h-0.018l-0.01,0.018l0.021,0.026Z M1269.002,414.065l0.019,-0.007l-0.01,-0.014h-0.029l-0.007,0.015l0.026,0.006Z M1268.971,413.72v0.014l0.014,0.008l0.012,-0.008l-0.007,-0.014h-0.019Z M1269.066,413.78l0.007,0.008l0.011,-0.003v-0.014l-0.015,-0.003 l-0.003,0.011Z M1269.215,413.958l0.014,0.006l0.008,-0.006l-0.003,-0.014h-0.014l-0.006,0.014Z M1269.104,413.786l-0.005,0.012l0.01,0.009l0.016,-0.01l-0.003,-0.012l-0.017,0.002Z M1268.364,413.889l0.012,0.002v-0.014l-0.009,-0.011 h-0.012l0.009,0.023 Z M1268.272,413.305l0.012,-0.009l-0.014,-0.01l-0.024,0.002l0.003,0.014l0.023,0.003Z M1268.948,414.065l0.01,-0.014l-0.015,-0.003l-0.023,0.011l-0.006,0.014l0.035,-0.008Z M1268.056,421.776l0.013,-0.021v-0.026h-0.021l-0.013,0.021l0.003,0.026h0.018Z M1267.196,423.473l-0.002,0.026l0.017,0.023l0.09,0.012l0.047,-0.005l0.076,0.005l0.042,0.016l0.026,-0.003l0.012,-0.045l-0.014,-0.005l-0.023,0.021l-0.111,-0.01l-0.059,0.009l-0.073,-0.012l-0.012,-0.026l-0.017,-0.003Z M1267.172,423.48l0.009,-0.003l-0.043,-0.035l-0.066,-0.002l-0.038,0.009l-0.021,-0.002l-0.017,-0.026l-0.09,-0.056l-0.014,0.005l0.021,0.024l0.071,0.038l0.021,0.028l0.028,0.007l0.04,-0.01l0.066,0.002l0.035,0.021Z M1266.474,422.92l0.012,-0.04l0.023,-0.017l-0.003,-0.014l-0.04,0.014l-0.014,0.049l0.045,0.207l0.042,0.038l-0.005,-0.021l-0.021,-0.03l-0.038,-0.186Z M1266.677,423.268l0.009,0.016l0.087,0.019l0.031,0.014l0.016,-0.003l-0.023,-0.023l-0.087,-0.017l-0.028,-0.016l-0.005,0.01Z M1267.771,422.932l0.035,-0.029l0.063,-0.031l0.024,-0.043l-0.007,-0.007l-0.021,0.031l-0.083,0.045l-0.021,0.031l0.01,0.003Z M1268.03,422.42l0.011,-0.055l-0.018,-0.026l-0.068,-0.021l-0.037,-0.01l-0.022,0.004l-0.01,0.024l0.014,0.01l0.021,-0.012l0.055,0.01l0.039,0.032l-0.003,0.037l-0.037,0.06v0.008l0.055,-0.06 Z M1267.008,422.824l0.018,-0.019l0.003,-0.019h-0.018l-0.011,0.008 v0.026l0.008,0.004 Z M1267.209,422.696l0.007,0.007l0.015,-0.018l0.033,-0.007l0.003,-0.015l-0.032,-0.008l-0.025,0.008v0.033Z M1267.907,422.585v0.039l0.01,0.012 l0.012,-0.017l0.004,-0.048l-0.01,-0.007l-0.017,0.021Z M1267.18,422.747l-0.002,-0.015l-0.024,0.011l-0.007,0.02l0.017,0.003l0.016,-0.018Z M1267.911,422.761l0.011,-0.009l-0.009,-0.033l-0.014,0.002l-0.004,0.019l0.017,0.02Z M1267.567,422.66l0.007,0.008l0.011,-0.003v-0.014l-0.015,-0.003 l-0.003,0.011Z M1266.945,422.803l0.003,0.012l0.016,-0.002v-0.012l-0.011,-0.007l-0.008,0.01Z M1267.77,422.435l0.014,0.006l0.008,-0.006l-0.003,-0.014h-0.014l-0.006,0.014Z M1267.676,422.536l-0.007,0.01l0.012,0.007l0.014,-0.004l0.004,-0.011h-0.023Z M1267.108,422.793l0.01,-0.014l-0.015,-0.003l-0.023,0.011l-0.006,0.014l0.035,-0.008Z M1267.96,422.529l0.006,-0.022l-0.01,-0.008l-0.01,0.012v0.017l0.014,0.001 Z M1265.219,421.647l0.024,0.054l0.069,0.049h0.069l0.047,-0.04 l-0.002,-0.012l-0.057,0.036l-0.049,-0.005l-0.061,-0.038l-0.035,-0.056l-0.007,0.012Z M1265.567,421.508l0.009,-0.021l-0.002,-0.035l-0.03,-0.042l-0.007,0.012l0.017,0.05l-0.002,0.038l0.014,-0.003Z M1264.323,420.066l0.014,0.043l0.028,0.031l0.017,-0.005l-0.002,-0.017l-0.028,-0.024l-0.014,-0.026l-0.016,-0.002Z M1265.092,420.224l0.024,0.021l0.005,0.03l0.014,-0.009l-0.007,-0.035l-0.019,-0.021l-0.03,-0.009l-0.016,0.01l0.028,0.012Z M1264.486,420.112v0.014l0.014,0.008l0.012,-0.008l-0.007,-0.014h-0.019Z M1265.211,421.554l0.007,0.018h0.011l0.003,-0.019 l-0.012,-0.008l-0.008,0.01Z M1262.113,419.625l-0.003,0.042l0.038,0.014l0.028,-0.021l-0.024,-0.035h-0.038Z M1265.046,420.545l0.007,0.008l0.011,-0.003v-0.014l-0.015,-0.003 l-0.003,0.011Z M1265.309,421.061l0.014,0.006l0.008,-0.006l-0.003,-0.014h-0.014l-0.006,0.014Z M1265.381,421.137l0.011,0.004l0.003,-0.014l-0.008,-0.012h-0.012l0.005,0.022 Z M1265.519,421.376l0.015,0.007v-0.015l-0.015,-0.021 l-0.015,-0.003l0.014,0.033Z M1265.435,421.266l0.01,0.016l0.016,0.003l-0.002,-0.014l-0.01,-0.009l-0.014,0.003Z M1260.038,415.913l-0.01,-0.035l-0.052,-0.014l-0.024,0.017l0.042,0.028l0.045,0.003Z M1260.072,415.918l0.076,0.036l0.047,0.012l0.01,-0.011l-0.017,-0.026h-0.05l-0.06,-0.021 l-0.006,0.01Z M1262.408,415.649l0.045,0.003l0.003,-0.024l-0.035,-0.028l-0.049,0.003l-0.014,0.028l0.049,0.017Z M1263.503,417.567l0.016,-0.023l0.008,-0.053l-0.026,-0.03l-0.012,0.013l0.01,0.035l-0.014,0.042l0.018,0.017Z M1263.389,417.914l-0.013,-0.078l0.031,-0.117l0.042,-0.091h-0.016l-0.05,0.081 l-0.029,0.133l0.013,0.052l0.021,0.021Z M1263.292,418.143l0.023,0.044l0.042,0.01l0.047,-0.029l0.008,-0.042l-0.029,-0.06l-0.018,0.018l0.013,0.047l-0.021,0.026l-0.034,-0.01l-0.026,-0.026l-0.005,0.021Z M1263.15,418.047l0.03,0.024l0.03,0.005l0.003,-0.014l-0.03,-0.01l-0.021,-0.01l-0.012,0.005Z M1262.976,417.899l0.014,-0.005l-0.012,-0.014l-0.033,-0.012l-0.024,-0.023l-0.019,-0.002l0.019,0.033l0.056,0.023Z M1261.912,416.734l0.036,-0.011l0.044,-0.035l0.028,-0.006l0.006,-0.012l-0.04,0.004l-0.05,0.037l-0.025,0.007l-0.029,-0.011h-0.014l0.01,0.015l0.035,0.011Z M1261.581,416.735l0.033,0.003l0.01,-0.01l-0.029,-0.004l-0.025,-0.022l-0.015,0.004l0.003,0.017l0.024,0.012Z M1261.842,416.72v-0.021h-0.017l-0.009,0.012l-0.026,0.01l0.007,0.01l0.045,-0.012Z M1262.486,416.85l0.014,-0.005l-0.03,-0.035l-0.016,0.003l0.005,0.021l0.026,0.016Z M1262.724,417.025l0.009,0.026l0.026,0.016l0.002,-0.012l-0.014,-0.035l-0.014,-0.009l-0.009,0.014Z M1263.332,417.088l-0.002,0.024l0.005,0.019l0.012,0.002l0.007,-0.03l-0.009,-0.03l-0.014,0.014Z M1260.439,416.111l0.014,-0.009l0.005,-0.016l-0.019,-0.002l-0.01,0.012l0.01,0.014Z M1260.832,415.87l0.014,0.007l0.035,-0.007l0.024,-0.021l-0.019,-0.009l-0.045,0.012l-0.009,0.017Z M1261.253,416.568l0.033,0.017h0.023l-0.01,-0.019l-0.028,-0.007l-0.017,0.009Z M1261.357,416.605l0.024,0.005l0.016,-0.005l-0.012,-0.012l-0.033,-0.002l0.005,0.014Z M1261.515,415.993h0.021l-0.002,-0.016l-0.012,-0.005l-0.012,0.009l0.005,0.012Z M1261.421,415.95l0.01,-0.012l-0.003,-0.014l-0.017,0.005l-0.005,0.014l0.016,0.007Z M1260.335,415.936l0.008,0.01l0.011,-0.004l0.007,-0.022h-0.012l-0.014,0.017Z M1262.529,416.885h0.014l-0.019,-0.028 l-0.012,-0.003v0.019l0.018,0.011 Z M1262.801,417.196l0.004,-0.021l-0.011,-0.01l-0.008,0.011l0.006,0.018h0.01Z M1261.444,416.646l0.004,-0.012l-0.02,-0.027h-0.015l0.007,0.018 l0.024,0.021Z M1262.135,416.69l0.013,0.004l0.013,-0.003l-0.009,-0.011l-0.016,-0.003v0.014Z M1262.217,415.813v0.014l0.014,0.008l0.012,-0.008l-0.007,-0.014h-0.019Z M1261.917,416.004l-0.003,0.019l0.011,0.006l0.014,-0.012l-0.007,-0.012h-0.015Z M1262.526,415.85l0.007,0.018h0.011l0.003,-0.019 l-0.012,-0.008l-0.008,0.01Z M1262.45,415.672l0.007,0.008l0.011,-0.003v-0.014l-0.015,-0.003 l-0.003,0.011Z M1262.477,415.743l0.012,0.013l0.008,-0.014l-0.007,-0.014l-0.012,0.003v0.012Z M1260.434,415.931l0.007,0.008l0.011,-0.003v-0.014l-0.015,-0.003 l-0.003,0.011Z M1262.46,415.703l0.003,0.012l0.016,-0.002v-0.012l-0.011,-0.007l-0.008,0.01Z M1262.5,415.788l0.004,0.016l0.011,0.004l0.004,-0.017l-0.01,-0.006l-0.009,0.003Z M1261.077,415.829l0.003,0.012l0.016,-0.002v-0.012l-0.011,-0.007l-0.008,0.01Z M1262.872,417.809l0.014,0.006l0.008,-0.006l-0.003,-0.014h-0.014l-0.006,0.014Z M1263.343,417.033l-0.005,0.012l0.01,0.009l0.016,-0.01l-0.003,-0.012l-0.017,0.002Z M1262.807,417.685l-0.012,-0.002v0.014l0.009,0.011 h0.012l-0.009,-0.023 Z M1261.532,416.692l0.014,-0.004l-0.009,-0.015l-0.023,-0.007v0.014l0.018,0.011 Z M1262.592,416.928h0.012l0.001,-0.013 l-0.018,-0.011l-0.008,0.012l0.012,0.012Z M1262.757,417.44l0.004,0.021l0.011,0.004l0.013,-0.021l-0.005,-0.018l-0.012,0.003l-0.01,0.013Z M1262.189,416.708l0.021,0.01l0.013,-0.002l-0.007,-0.015l-0.022,-0.01l-0.01,0.006l0.007,0.011Z M1262.869,417.77l-0.013,-0.018l-0.013,0.002l0.003,0.015l0.014,0.01l0.009,-0.009Z M1262.389,416.8l0.022,0.006v-0.012l-0.028,-0.015 l-0.012,0.006l0.017,0.015Z M1257.843,417.408l-0.01,0.018l0.044,0.008l0.078,-0.016l0.013,-0.023l-0.031,-0.034l-0.018,0.008l-0.008,0.029l-0.031,0.01h-0.036Z M1255.219,416.337l-0.005,-0.034l-0.023,-0.021l-0.018,0.01l0.005,0.031l0.031,0.036l0.01,-0.023Z M1256.052,417.401h0.029l0.021,-0.023l-0.018,-0.016l-0.036,0.005l-0.018,0.016l0.023,0.018Z M1255.617,416.59l0.023,0.021l0.021,0.003v-0.034l-0.029,-0.013l-0.016,0.008v0.016Z M1255.771,416.832l-0.01,-0.021l-0.012,0.004v0.017l0.015,0.011 l0.007,-0.01Z M1255.458,416.963v0.014l0.014,0.008l0.012,-0.008l-0.007,-0.014h-0.019Z M1257.745,417.403v0.014l0.014,0.008l0.012,-0.008l-0.007,-0.014h-0.019Z M1255.658,416.667l0.003,0.012l0.016,-0.002v-0.012l-0.011,-0.007l-0.008,0.01Z M1257.853,417.299l0.003,0.012l0.016,-0.002v-0.012l-0.011,-0.007l-0.008,0.01Z M1257.772,417.264l-0.005,0.012l0.01,0.009l0.016,-0.01l-0.003,-0.012l-0.017,0.002Z M1257.918,417.336l-0.016,-0.016l-0.013,-0.002l0.002,0.017l0.018,0.017l0.012,-0.002l-0.003,-0.013Z M1257.017,413.304h0.036l0.008,-0.034l-0.023,-0.013l-0.031,0.01l-0.016,0.018l0.026,0.018Z M1256.978,412.741l0.008,0.031l0.029,0.016l0.01,-0.021l-0.01,-0.055l-0.031,-0.023l-0.031,0.003v0.034l0.026,0.016Z M1256.662,412.733l0.021,-0.005l0.005,-0.026l-0.021,-0.029l-0.021,-0.003l0.005,0.042l0.01,0.021Z M1256.908,413.228l0.007,0.008l0.011,-0.003v-0.014l-0.015,-0.003 l-0.003,0.011Z M1257.06,413.223l-0.01,-0.021h-0.013l0,0.016 l0.012,0.012l0.01,-0.007Z M1256.942,412.991v-0.068l0.01,-0.036l-0.018,0.005l-0.016,0.026l0.003,0.089l0.013,0.013l0.008,-0.029Z M1255.28,407.271l0.039,0.047l0.023,-0.008l-0.003,-0.031l-0.031,-0.042l-0.07,-0.018l-0.003,0.023l0.044,0.029Z M1255.353,407.604l0.003,0.042l-0.013,0.031l0.005,0.018l0.031,-0.01l0.013,-0.055l-0.021,-0.036l-0.018,0.01Z M1254.736,407.02l0.065,-0.008l0.047,0.016l0.026,0.003l-0.005,-0.029l-0.063,-0.021l-0.081,0.018l-0.016,0.016l0.026,0.005Z M1254.522,407.758l0.047,0.013l0.026,-0.008l0.008,-0.018h-0.042l-0.023,-0.013l-0.023,0.01l0.008,0.016Z M1254.689,407.748l0.029,-0.01l0.003,-0.021l-0.05,0.008l-0.018,0.021l0.036,0.003Z M1254.811,407.721l0.018,-0.026l-0.021,-0.003l-0.044,0.016l0.003,0.016l0.044,-0.003Z M1254.348,406.963l-0.006,0.024l0.014,0.005l0.017,-0.016l-0.008,-0.017l-0.018,0.004Z M1254.356,407.658l0.007,0.008l0.011,-0.003v-0.014l-0.015,-0.003 l-0.003,0.011Z M1254.315,407.646l0.014,0.006l0.008,-0.006l-0.003,-0.014h-0.014l-0.006,0.014Z M1255.353,407.46l-0.009,-0.021l-0.01,0.007l0.007,0.031l0.012,0.005v-0.023Z M1262.408,408.524l0.034,-0.004l0.03,-0.017l-0.012,-0.009l-0.044,0.004l-0.023,0.014l0.015,0.012Z M1260.562,408.229h-0.014l-0.011,0.009 l0.013,0.008l0.016,-0.003l-0.004,-0.013Z M1260.105,407.772v0.014l0.014,0.008l0.012,-0.008l-0.007,-0.014h-0.019Z M1260.7,408.247l0.007,0.018h0.011l0.003,-0.019 l-0.012,-0.008l-0.008,0.01Z M1260.427,408.289l0.007,0.008l0.011,-0.003v-0.014l-0.015,-0.003 l-0.003,0.011Z M1260.157,407.806l0.007,0.008l0.011,-0.003v-0.014l-0.015,-0.003 l-0.003,0.011Z M1259.919,407.881l0.003,0.012l0.016,-0.002v-0.012l-0.011,-0.007l-0.008,0.01Z M1259.884,407.895l0.014,0.006l0.008,-0.006l-0.003,-0.014h-0.014l-0.006,0.014Z M1262.552,408.167l0.014,0.006l0.008,-0.006l-0.003,-0.014h-0.014l-0.006,0.014Z M1260.29,408.824l0.009,0.01l0.012,-0.006l-0.003,-0.018l-0.012,-0.002l-0.005,0.017Z M1260.5,408.247l-0.007,0.01l0.012,0.007l0.014,-0.004l0.004,-0.011h-0.023Z M1259.292,408.715h-0.012l0.002,0.014 l0.012,0.009l0.011,-0.003l-0.013,-0.019Z M1260.901,407.954l0.015,-0.033l-0.013,-0.006l-0.028,0.031l-0.005,0.023l0.01,0.007l0.021,-0.022Z M1260.717,408.188l0.009,0.012l0.01,-0.014l-0.002,-0.024l-0.014,0.003l-0.003,0.023Z M1260.362,407.945l0.01,-0.007l-0.009,-0.012l-0.021,0.003l0.002,0.014l0.017,0.002Z M1262.579,408.205l0.006,0.014h0.012l0.017,-0.015 l-0.008,-0.012l-0.018,0.003l-0.008,0.011Z M1259.612,408.859h0.017l-0.005,-0.013 l-0.021,-0.015l-0.015,0.002l0.024,0.026Z M1262.461,408.12l0.012,-0.006l0.004,-0.012l-0.008,-0.01l-0.015,0.007l-0.003,0.011l0.01,0.01Z M1259.493,407.89h0.018l0.013,-0.015 l-0.004,-0.015l-0.018,0.003l-0.01,0.012v0.016Z M1262.031,408.193l-0.006,-0.022l-0.011,0.006v0.032l0.012,0.007 l0.004,-0.022Z M1260.636,408.248h0.052l0.002,-0.012l-0.047,-0.003l-0.028,-0.007l0.003,0.014l0.017,0.009Z M1260.285,408.552l0.023,-0.063l-0.009,-0.012l-0.017,0.014l-0.01,0.031l0.002,0.04l0.012,-0.01Z M1259.531,408.839l0.01,-0.019l0.002,-0.021l-0.012,0.003l-0.009,0.021l-0.021,0.005l0.007,0.012l0.023,-0.002Z M1259.79,409.005l0.024,0.012l0.031,-0.003l0.026,-0.023l-0.014,-0.003l-0.023,0.012l-0.028,-0.002l-0.017,0.007Z M1260.101,409.073h0.033l0.033,-0.023l0.082,-0.007l0.035,0.009l0.021,-0.017l0.012,-0.049l-0.005,-0.024l-0.014,0.002l-0.01,0.043l-0.03,0.021l-0.083,0.005l-0.036,0.016l-0.026,0.002l-0.028,-0.005l-0.002,0.016l0.019,0.012Z M1258.471,409.198l0.057,-0.017l0.049,-0.009l0.007,-0.016h-0.045l-0.059,0.023h-0.031l-0.009,0.012l0.031,0.007Z M1258.223,409.169l0.033,0.003l0.033,-0.016l-0.012,-0.007l-0.024,0.003l-0.031,-0.009l-0.012,0.01l0.014,0.014Z M1258.784,409.203l0.026,-0.007l-0.023,-0.01h-0.033l-0.012,0.01l0.042,0.007Z M1258.927,409.18v0.014l0.014,0.008l0.012,-0.008l-0.007,-0.014h-0.019Z M1258.598,409.165l0.007,0.008l0.011,-0.003v-0.014l-0.015,-0.003 l-0.003,0.011Z M1258.933,409.155l0.003,0.012l0.016,-0.002v-0.012l-0.011,-0.007l-0.008,0.01Z M1258.048,409.098l0.014,0.006l0.008,-0.006l-0.003,-0.014h-0.014l-0.006,0.014Z M1258.93,409.111l0.007,0.011l0.013,-0.004v-0.019l-0.012,-0.004 l-0.008,0.015Z M1258.315,409.151l-0.007,0.01l0.012,0.007l0.014,-0.004l0.004,-0.011h-0.023Z M1258.856,409.204l0.014,-0.006v-0.012l-0.014,-0.001 l-0.006,0.01l0.006,0.01Z M1258.896,409.204l0.019,-0.003l-0.004,-0.012l-0.012,-0.003l-0.015,0.008l0.012,0.01Z "/>
</svg>
