<svg xmlns="http://www.w3.org/2000/svg" viewBox="578.134 346.744 45.392 48.820">
  <path d="M580.298002,372.96351l0.020768,0.01523l0.001086,0.02674l-0.017374,0.052123l-0.012162,-0.001737l-0.015854,-0.052204l0.002769,-0.034613l0.020768,-0.005538Z M580.335492,373.048915l-0.001737,0.048648l0.010425,0.013899l0.013899,-0.00695l0.003475,-0.031274l-0.008687,-0.026061l-0.017374,0.001737Z M580.385877,373.158373l0.041698,0.064285l0.038223,0.013899l0.017374,-0.008687v-0.142468l-0.020849,-0.036486l-0.036486,-0.00695l-0.035074,0.030921l-0.004886,0.085486Z M580.684713,375.997316l0.033011,-0.003475l0.010425,-0.020849l-0.00695,-0.015637h-0.031274l-0.019112,0.026061l0.013899,0.013899Z M580.226035,376.801742l0.031274,0.001737l0.017374,-0.013899l-0.001737,-0.020849l-0.019112,-0.00695l-0.029536,0.010425l-0.00695,0.015637l0.008687,0.013899Z M580.283369,376.685334l0.019112,0.005212l0.034748,-0.019112l0.031274,-0.158105l-0.012162,-0.041698l-0.019112,-0.005212l-0.043435,0.036486l-0.022586,0.145943l0.012162,0.036486Z M580.811545,376.62105h0.020849l0.015637,-0.019112l0.036486,-0.099033l-0.003475,-0.074709l-0.017374,-0.003475l-0.019112,0.029536v0.059072l-0.013899,0.039961l-0.031274,0.04691l0.012162,0.020849Z M580.669076,377.017182l0.008687,0.003475l0.026061,-0.036486l0.015637,-0.066022l0.020849,-0.038223l0.043435,-0.045173l0.057335,-0.116407l0.116407,-0.130306l0.029536,-0.048648l0.027799,-0.024324l0.034748,-0.024324v-0.020849l-0.024324,-0.008687l-0.027799,0.008687l-0.066022,0.050385l-0.031274,0.066022l-0.057335,0.057335l-0.055597,0.111195l-0.012162,0.045173l-0.026061,0.038223l-0.029536,0.012162l-0.039961,0.057335l-0.012162,0.038223l0.012162,0.039961l-0.010425,0.031274Z M580.530083,376.977221l0.017374,0.001737l0.031274,-0.034748l0.033011,-0.083396l0.033011,-0.041698l0.052123,-0.145943l0.062547,-0.10077l0.043435,-0.229339l-0.020849,-0.043435l0.001737,-0.022586l0.026061,-0.019112l0.024324,-0.052123l0.022586,-0.203278l-0.017374,-0.010425l-0.048648,0.015637l-0.026061,0.045173l-0.00695,0.034748l-0.039961,0.041698l-0.033011,0.001737l-0.026061,-0.012162l-0.029536,0.005212l-0.026061,0.038223l-0.020849,0.147681l-0.055597,0.201541l-0.055597,0.10772v0.038223l0.012162,0.027799l-0.001737,0.043435l-0.012162,0.022586l-0.001737,0.036486l0.024324,0.04691v0.05386l0.038223,0.088608Z  M580.166962,390.579478l0.015,-0.002l0.016,-0.029l0.018,-0.001l0.022,0.023l0.002,0.027l0.018,0.001l0.052,-0.076l0.045,-0.015l0.041,-0.06v-0.042l-0.031,-0.011l-0.006,-0.039l0.019,-0.034l-0.006,-0.185l0.068,-0.117l0.06,-0.016l0.057,0.013l0.06,-0.008l0.053,-0.062l0.031,-0.086l0.042,-0.05l0.002,-0.052l-0.042,-0.057l0.003,-0.078l0.042,-0.06l0.047,-0.011l0.034,-0.047l-0.006,-0.164l0.019,-0.042l0.044,-0.007l0.029,-0.029l0.007,-0.159l0.024,-0.06l0.06,-0.034l0.01,-0.12l0.044,-0.047l0.071,-0.015l0.062,0.002l0.06,0.034l0.112,-0.005l0.138,-0.125l0.102,-0.021l0.06,0.01l0.031,0.05l-0.002,0.073l0.101,0.06l0.053,0.096l0.044,0.011l0.044,-0.005l0.097,-0.086h0.073l0.07,0.057l0.07,-0.003l0.12,-0.099l0.115,-0.018l0.096,0.029l0.005,0.062l0.029,0.005l0.081,-0.059l0.086,0.002l0.096,0.044l0.185,0.019l0.105,0.07h0.031l0.029,-0.023l0.127,-0.013l0.078,-0.042l0.021,-0.042l-0.008,-0.055l0.032,-0.028l0.088,-0.008l0.099,0.052l0.089,0.005l0.128,-0.049l0.01,-0.034l-0.039,-0.052l0.016,-0.058l0.159,-0.104l0.075,0.003l0.065,0.057l0.021,0.104l0.094,0.039l0.068,-0.013l0.086,-0.062l0.107,-0.011l0.091,-0.054h0.065l0.052,0.018l0.078,0.003l0.052,0.052h0.06l0.157,-0.079l0.039,-0.044l0.036,-0.008l0.115,0.032l0.086,-0.003l0.081,-0.073l0.015,-0.062l-0.044,-0.047l-0.068,-0.011l-0.02,-0.049l0.023,-0.06l0.055,-0.058l0.06,-0.005l0.047,0.044l0.013,0.076l0.054,0.055l0.073,0.008l0.107,-0.055l0.018,-0.115l0.032,-0.06l0.044,-0.002l0.096,0.044l0.026,0.044l-0.026,0.058l0.026,0.052l0.047,0.013l0.052,-0.039l0.037,0.005l0.031,0.042l0.029,-0.011l0.031,-0.081l0.052,0.003l0.037,0.055l0.099,0.018l0.039,-0.008l0.013,-0.052l0.036,-0.003l0.068,0.076h0.029l0.042,-0.083h0.036l0.031,0.026l0.013,0.07l0.037,0.031l0.026,-0.008l0.026,-0.073l0.026,-0.01l0.05,0.021l0.195,-0.044l0.06,0.013v0.034l-0.039,0.015l-0.003,0.024l0.024,0.031l0.034,0.002l0.026,-0.028l0.047,-0.005l0.033,0.039h0.026l0.019,-0.019h0.078l0.039,0.024l0.031,-0.005l0.019,-0.081l0.026,-0.013l0.054,0.065l0.099,0.039l0.071,-0.029h0.096l0.052,-0.023l0.021,-0.055l0.057,-0.031l0.04,0.01v0.055l0.036,0.013l0.029,-0.018l0.125,-0.005l0.086,-0.011l0.036,0.026l0.008,0.144l-0.036,0.034v0.046l0.039,0.037l0.075,-0.005l0.052,-0.068h0.055l0.024,0.047l-0.029,0.094l0.062,0.12l0.019,-0.008l-0.011,-0.047l0.032,-0.05h0.099l0.08,0.037l0.006,0.031l-0.021,0.026l0.023,0.045l0.104,0.044l0.066,0.078l0.054,-0.005l0.021,0.013l-0.026,0.028l0.008,0.045l0.068,0.021l0.034,0.031l0.01,0.042l0.112,0.067l0.128,0.141l0.034,0.078l0.039,0.026l0.096,0.003l0.104,0.055l0.037,0.052l0.008,0.041l-0.032,0.014l-0.047,-0.019l-0.036,0.024l0.013,0.094l0.109,0.023l0.011,0.034l-0.073,0.07l-0.01,0.06l0.023,0.021l0.099,-0.031l0.068,0.018l0.015,0.073l0.04,0.06h0.039l0.028,-0.021l0.047,0.003l0.034,0.036v0.044l-0.031,0.04v0.065l0.068,0.086l0.028,0.067h0.029l0.078,-0.08l0.091,-0.05h0.094l0.083,-0.023l0.126,-0.123l0.039,0.003l0.021,0.049l-0.014,0.042l-0.046,0.037l-0.011,0.044l0.044,0.07l0.081,0.076l0.039,0.002l0.065,-0.041h0.084l0.232,-0.099l0.057,0.002l0.068,0.019l0.091,-0.006l0.081,-0.065l0.047,0.005l0.031,0.047l-0.026,0.029h-0.049l-0.068,0.042l-0.011,0.067l0.045,0.058l0.049,-0.003l0.073,-0.091l0.039,0.005l0.058,0.084l0.216,0.095l0.021,0.052l-0.011,0.08l0.042,0.087l0.007,0.104l0.069,0.118l0.119,0.056v0.042l-0.046,0.038v0.049l0.087,0.09l0.021,0.167l0.125,0.118l-0.024,0.024l-0.038,-0.014l-0.049,0.011v0.062l0.299,0.25l0.01,0.046l-0.031,0.059l-0.035,0.003l-0.048,-0.021l-0.042,0.014l-0.007,0.063l0.097,0.153l0.042,0.01l0.059,-0.049h0.077l0.337,0.178l0.01,0.093l-0.049,0.101l-0.017,0.063l0.028,0.041l0.135,0.053l0.146,-0.005l0.075,-0.058l0.114,-0.014l0.041,0.007l0.002,0.012l-0.021,0.011l0.019,0.062l-0.004,0.112l0.036,0.012l0.076,-0.011l0.022,0.017l-0.007,0.029l-0.08,0.064l0.004,0.2l0.04,0.052l0.081,0.041l0.108,0.002l0.113,0.066l0.042,0.044l0.039,0.077l-0.006,0.045l-0.048,0.075l-0.025,0.006l-0.053,-0.018l-0.037,-0.039l-0.046,-0.002l-0.028,0.024l-0.004,0.037l0.029,0.036l0.096,0.053l0.053,0.1h0.042l0.047,-0.05l0.052,-0.008l0.073,0.027l0.023,0.062l-0.026,0.091l0.005,0.045l0.031,0.026l0.1,0.034l0.125,0.112l0.083,0.039l0.034,0.041l0.018,-0.007l0.003,-0.04l0.021,-0.028l0.062,-0.011l0.214,0.097l0.078,0.088l0.12,0.099l0.214,0.058l0.086,0.068l0.044,0.059l0.056,0.255l-0.021,0.06l0.005,0.023l0.068,0.045l0.075,0.083l0.154,0.089l0.164,0.026l0.162,0.169l0.167,0.065l0.078,0.021l0.067,-0.013l0.115,0.008l0.076,-0.063h0.06l0.041,0.032l0.032,0.07l0.19,0.102h0.031l0.039,-0.05l-0.005,-0.101l0.026,-0.021l0.083,0.015l0.14,-0.007l0.136,-0.049l0.026,-0.055l-0.016,-0.034l0.019,-0.062l0.039,-0.024l0.041,0.011l0.073,-0.011l0.089,-0.094l0.096,-0.031l0.011,-0.047l0.06,-0.07h0.052l0.031,-0.021l0.003,-0.036l-0.063,-0.076v-0.057l0.042,-0.084l0.023,-0.138l0.024,-0.062v-0.047l-0.05,-0.047l-0.047,-0.008l-0.052,0.039l-0.031,-0.018l-0.003,-0.05l0.037,-0.041l-0.008,-0.058l-0.036,-0.013l-0.008,-0.039l0.12,-0.12l0.01,-0.039l-0.021,-0.036l-0.049,-0.019l-0.029,-0.065l0.013,-0.06l0.06,-0.052l0.036,-0.057l0.021,-0.115l-0.01,-0.075l0.015,-0.047l0.04,-0.065l-0.006,-0.042l0.013,-0.047l0.071,-0.065l0.018,-0.029l0.005,-0.062l0.039,-0.092l0.021,-0.138l-0.015,-0.031l0.013,-0.07l0.062,-0.079l0.057,-0.026l0.024,-0.031l-0.024,-0.141l0.019,-0.028l0.122,-0.006l0.037,0.011l-0.003,0.018l0.021,0.008l0.034,-0.01l0.036,0.02l0.089,-0.01l0.133,-0.078l0.047,-0.047l0.028,-0.065l0.099,-0.06l0.089,-0.003l0.06,-0.057l-0.016,-0.063l-0.047,-0.018v-0.018l0.188,0.005l0.039,-0.021h0.071l0.083,0.034l0.036,0.086l0.152,0.193l0.002,0.089l0.044,0.026l0.058,0.073l0.039,0.015l0.075,0.123l0.131,0.112l0.054,0.075l0.172,0.084l0.066,0.073l0.164,0.093l0.305,0.248l0.088,0.104l0.172,0.105l0.076,0.169l0.06,0.083l0.109,0.058l0.006,0.044l0.091,0.099l0.028,-0.055l0.047,-0.039l0.016,-0.198l0.026,-0.052l0.047,-0.036l0.076,-0.021l0.044,-0.118l-0.031,-0.078l0.023,-0.052l0.044,-0.023l0.029,-0.05l0.034,-0.023l0.049,0.007l0.026,-0.02l0.016,-0.058l0.073,-0.036l0.031,0.008l0.024,-0.003l0.062,-0.104l0.013,-0.039l-0.034,-0.211l0.027,-0.039l0.039,-0.006l0.036,0.021l0.06,0.005l0.13,0.05l0.052,0.01l0.175,-0.031l0.029,0.018l0.023,-0.002l0.037,-0.039l0.12,-0.045l0.07,-0.008l0.12,0.037h0.057l0.081,-0.026l0.031,0.008l0.016,0.034l0.044,0.01l0.044,-0.026l0.047,-0.003l0.066,0.016l0.083,-0.005l0.06,0.01l0.034,-0.002l0.018,-0.024l0.057,-0.002l0.092,0.033l0.039,0.032l0.13,0.018l0.107,0.026l0.057,0.047l0.042,0.01l0.034,-0.01l0.073,0.031l0.015,0.034l0.076,0.034l0.13,0.013l0.091,0.026h0.115l0.089,-0.031l0.104,-0.011l0.042,-0.036l0.159,-0.021l0.044,-0.037l0.258,0.027l0.182,0.002l0.063,-0.075l0.104,-0.019l0.06,0.026l0.076,0.006l0.093,-0.026l0.032,-0.042l1.063,-0.042l-0.172,-0.615l0.427,-0.365l0.084,0.032l-0.089,0.479v0.24h14.24l0.62,-3.091l-1.026,-0.615l-3.6,-32.987h6.465l-3.38,-2.198l-10.858,-7.05v5.264h-12.363v10.06l-0.131,0.021l-0.302,0.11l-0.131,0.01l-0.828,0.407l-0.813,0.167l-1.575,1.007l-0.36,0.318l-0.014,0.277l-0.152,0.402l0.263,0.927l0.194,2.243l0.097,2.354h-14.552l-0.205,0.613l-0.014,0.156l-0.16,0.362l0.007,0.187l-0.066,0.261l-0.049,0.094l0.018,0.128l-0.002,0.071l-0.008,0.057l0.055,0.209l0.026,0.019l0.011,-0.007l-0.002,-0.147l0.029,-0.065l0.006,-0.111l-0.024,-0.031l-0.047,-0.03l-0.016,-0.036l0.012,-0.055l0.065,-0.083l0.079,-0.026l0.011,-0.032l0.002,-0.089l0.013,-0.039l0.006,-0.119l0.017,-0.067l-0.016,-0.017h-0.029l-0.041,-0.042l0.004,-0.043l0.021,-0.008l0.05,0.022l0.008,0.028l0.023,0.007l0.036,-0.026l0.063,-0.099l0.008,-0.109l0.025,-0.044l0.033,-0.014l0.057,-0.11l0.012,-0.078l0.034,-0.041l-0.009,-0.016l-0.052,-0.003l-0.009,-0.015l0.023,-0.042l0.001,-0.109l0.039,-0.115l0.018,-0.076l0.033,-0.053l0.017,-0.001l0.016,0.016v0.032l-0.011,0.018l-0.001,0.022l0.016,0.036l0.002,0.041l-0.007,0.022l-0.003,0.141l-0.017,0.089l0.003,0.067l0.05,0.057l0.044,0.104v0.093l0.017,0.016l0.059,0.006l0.02,0.016l0.003,0.049l-0.012,0.029l0.006,0.068l0.127,0.168l0.04,0.084l0.033,0.132l0.047,0.048l0.016,-0.003l0.007,-0.033h0.024l0.03,0.054l0.048,0.149l0.004,0.118l0.035,0.061l0.046,0.028l0.058,0.101l0.012,0.059l0.085,0.099l0.133,0.073v0.026l-0.057,0.177l0.018,0.026l0.042,0.011l0.091,0.07l0.088,0.122l0.292,0.251l0.024,-0.006l0.023,-0.057l-0.026,-0.13l0.018,-0.102l-0.002,-0.109l-0.021,-0.099l0.021,-0.17l0.026,-0.002l0.062,0.031l0.055,0.002l0.018,0.024l-0.005,0.133l0.068,0.117l0.068,0.029l0.026,0.044l0.021,0.003l0.013,-0.026l0.023,0.01l0.01,0.125l0.06,0.128l0.071,0.086l0.052,0.122l0.077,0.291l0.014,0.098l0.202,0.326l0.062,0.056l0.063,0.121l0.048,0.025l0.053,-0.004l0.055,0.039l0.101,0.243l-0.014,0.09l-0.115,0.17l-0.09,0.07v0.049l0.035,0.079l-0.004,0.105l0.032,0.054l-0.016,0.023l-0.05,-0.005l-0.013,0.026l0.039,0.042l0.04,0.015l0.031,0.115l-0.031,0.104l-0.099,0.104l-0.118,0.081l-0.068,0.12l-0.002,0.065l0.036,0.018l0.029,-0.013l0.029,-0.083l0.065,-0.029l0.065,0.032l0.01,0.057l-0.039,0.099l0.013,0.018l0.045,-0.028l0.021,0.01l-0.003,0.047l-0.021,0.047l-0.003,0.065l0.021,0.029l-0.005,0.07l-0.104,0.128l-0.011,0.047l0.011,0.044l-0.011,0.068l-0.049,0.08l-0.037,0.019l-0.039,-0.011l-0.047,0.019l-0.07,0.088l-0.01,0.086l-0.019,0.039l-0.062,0.055l-0.136,0.268l-0.057,0.037l-0.029,0.049l-0.01,0.058l-0.133,0.221l-0.026,0.073l0.026,0.063l0.049,0.023l0.047,-0.002l0.073,-0.076l0.026,-0.055l-0.002,-0.094l0.039,-0.106l0.107,-0.149l0.049,-0.016l0.008,0.019l-0.047,0.049l-0.052,0.117l-0.042,0.05l-0.005,0.034h0.021l0.023,-0.042l0.06,-0.06l0.032,-0.065l0.148,-0.112l0.06,-0.008l0.044,-0.031l0.024,0.003l0.008,0.033l-0.016,0.05l-0.055,0.044l-0.041,0.073l-0.013,0.055l-0.128,0.169l-0.169,0.131l-0.17,0.091l-0.083,0.008l-0.102,-0.05l-0.128,-0.013l-0.044,0.026l-0.002,0.026l0.049,0.037l0.091,0.125l0.097,0.219l0.002,0.062l0.133,0.136l0.097,0.028l0.216,0.139l0.086,0.08l0.287,0.394l0.254,0.553l0.061,0.283l0.016,0.225l0.01,0.088l0.057,0.084l0.016,0.12l-0.005,0.14l0.047,0.146l0.146,0.261l0.109,0.333l0.037,0.256l0.026,0.464l0.031,0.114l0.01,0.297l0.026,0.11v0.203l0.021,0.16l-0.003,0.205l-0.032,0.115l0.011,0.038l0.035,0.017l-0.004,0.112l-0.038,0.128l-0.089,0.382l-0.062,0.433l-0.203,0.949l-0.146,0.453l-0.391,0.943l-0.261,0.605l-0.24,0.688l-0.193,0.443l-0.073,0.313l-0.01,0.281l-0.078,0.292l-0.115,0.308l-0.042,0.224l0.032,0.203l-0.001,0.426l0.006,0.147z"/>
</svg>
