<svg xmlns="http://www.w3.org/2000/svg" viewBox="410.712 387.629 0.355 0.573">
  <path d="M410.734,387.992l0.01,-0.039l-0.01,-0.028l0.007,-0.018l0.033,-0.04l0.026,-0.083l0.04,-0.069l-0.003,-0.012l0.006,-0.018v-0.048l0.025,-0.008l0.068,0.03l0.012,0.021v0.012l-0.014,0.007 v0.018l0.023,0.065l0.015,0.012l0.017,0.05l0.043,0.019l0.018,0.019l0.006,0.021l-0.003,0.05l0.006,0.087l-0.011,0.023l0.007,0.022l0.012,0.015v0.025l-0.054,0.066l-0.023,0.007h-0.043l-0.017,0.004 h-0.025l-0.029,-0.018 l-0.006,-0.012l-0.023,-0.018l-0.018,-0.003l-0.011,-0.014l-0.014,-0.023l-0.043,-0.066l-0.026,-0.019l-0.023,-0.007v-0.007l0.018,-0.011 l0.004,-0.012Z "/>
</svg>
