<svg xmlns="http://www.w3.org/2000/svg" viewBox="410.712 387.629 0.356 0.574">
  <path d="M410.734459,387.991583l0.009663,-0.03865l-0.009663,-0.027607l0.006902,-0.017945l0.033129,-0.040031l0.026227,-0.082822l0.040031,-0.069018l-0.002761,-0.012423l0.005521,-0.017945v-0.048313l0.024847,-0.008282l0.067638,0.030368l0.012423,0.020705l-0.00138,0.012423l-0.012423,0.006902v0.017945l0.023466,0.064877l0.015184,0.012423l0.016564,0.049693l0.042791,0.019325l0.017945,0.019325l0.005521,0.020705l-0.002761,0.049693l0.005521,0.086963l-0.011043,0.023466l0.006902,0.022086l0.012423,0.015184v0.024847l-0.053834,0.066258l-0.023466,0.006902l-0.042791,-0.00138l-0.016564,0.005521l-0.024847,-0.00138l-0.028988,-0.016564l-0.005521,-0.012423l-0.023466,-0.017945l-0.017945,-0.002761l-0.011043,-0.013804l-0.013804,-0.023466l-0.042791,-0.066258l-0.026227,-0.019325l-0.023466,-0.006902l-0.00138,-0.006902l0.019325,-0.011043l0.004141,-0.012423Z "/>
</svg>
