<svg xmlns="http://www.w3.org/2000/svg" viewBox="694.036 310.790 1.457 1.190">
  <path d="M694.317,310.813v0.017l0.007,0.007 l0.012,-0.014l0.023,0.007l0.015,0.025l0.03,0.018h0.015l0.012,-0.014 h0.012l0.006,0.017 l0.021,0.015l0.023,-0.007l0.021,0.006l0.004,0.029l0.031,0.018l0.054,0.052l-0.01,0.025l-0.051,0.017l-0.054,-0.003l-0.028,0.012l-0.021,0.021l-0.117,0.026l-0.035,-0.018l-0.068,-0.011h-0.037l-0.022,-0.007l-0.028,-0.041l-0.041,-0.007l-0.021,0.006l-0.028,-0.017l0.019,-0.032l-0.007,-0.05l0.01,-0.033l-0.028,-0.026l0.011,-0.028l0.148,-0.033l0.075,0.006l0.043,0.018Z M694.587,311.129l0.059,-0.013l0.011,-0.019l-0.034,-0.03l-0.039,-0.006l-0.025,0.007v0.028l0.017,0.012 l-0.004,0.017l0.015,0.005Z M694.546,311.255v0.021l0.025,0.004 l0.032,-0.004l0.003,0.035l0.011,0.012l0.007,0.023l-0.021,0.032l-0.023,0.015l0.004,0.017l0.051,0.019l0.003,0.018l-0.017,0.004l-0.004,0.01h0.018l0.003,0.023l-0.012,0.006l-0.008,-0.011l-0.021,0.003l-0.004,0.018l0.01,0.022l0.016,0.017v0.012l-0.039,-0.007 l-0.01,0.008l0.015,0.01l-0.004,0.026l0.015,0.017l0.012,0.029l-0.003,0.025l0.035,0.039h0.018l0.015,0.007 l-0.004,0.012l0.062,0.054l0.091,0.048l0.012,0.025l0.057,0.017l0.006,0.014l0.014,0.015l0.062,0.008l0.066,0.026l0.017,-0.007l0.021,0.003l0.014,0.014l0.033,0.012l0.076,0.004l0.037,0.019l0.035,0.011l0.057,-0.003l0.048,-0.021l0.01,-0.026l-0.017,-0.017h-0.041l-0.006,-0.015 l0.011,-0.003l0.006,-0.012l-0.007,-0.014l0.015,-0.006l0.025,0.015l0.012,-0.014l-0.008,-0.026h0.011l0.029,0.032 l0.012,0.05l0.014,-0.003l0.003,-0.047l-0.01,-0.028l0.014,-0.018l0.017,0.007l0.011,-0.006l-0.008,-0.015v-0.021l-0.018,-0.004 v-0.015l0.018,-0.008l0.023,-0.021l-0.013,-0.012l-0.033,0.007l-0.004,-0.007l0.019,-0.01l0.017,-0.015l-0.011,-0.025l-0.101,-0.08l-0.05,-0.019h-0.012v0.018l-0.022,0.01l-0.025,0.023l-0.026,0.01l-0.006,0.018l-0.011,0.004l-0.006,-0.018l0.032,-0.033l0.048,-0.032l-0.003,-0.017h-0.026l-0.041,0.03h-0.018l0.012,-0.017 l-0.015,-0.008v-0.021l0.019,-0.011 l0.038,0.012l0.011,-0.006l-0.014,-0.026l-0.019,-0.018l-0.022,-0.006l-0.011,0.014l-0.011,-0.004v-0.051l-0.054,-0.043l-0.028,0.006l-0.04,-0.007l-0.057,-0.054l-0.041,-0.012l-0.026,0.025l-0.011,-0.002l0.008,-0.047l-0.011,-0.006l-0.054,0.036l-0.065,0.029h-0.021l-0.003,-0.019 l0.043,-0.044l-0.006,-0.032l-0.059,-0.015l-0.056,0.019h-0.042l-0.003,-0.03 l0.074,-0.043l0.011,-0.026l-0.022,-0.039l-0.025,0.004l-0.005,0.02l-0.012,0.011l-0.066,0.013l-0.04,-0.008v0.008l0.017,0.014 l-0.01,0.012l-0.04,0.029Z M695.232,311.57l0.007,-0.01l-0.01,-0.008l-0.021,0.003l0.004,0.011l0.019,0.004Z M694.853,311.3l0.018,-0.011l-0.007,-0.008l-0.015,0.006l-0.007,0.012h0.011Z "/>
</svg>
