<svg xmlns="http://www.w3.org/2000/svg" viewBox="862.167 511.998 0.595 1.587">
  <path d="M862.52,512.871l0.003-0.008l0.006,0.001l0.004,0.006l-0.006,0.003L862.52,512.871z M862.499,512.936l0.007-0.004l0.001-0.007l-0.009-0.001l-0.003,0.006L862.499,512.936z M862.572,512.992l0.007-0.004l-0.002-0.007l-0.006-0.001l-0.004,0.007L862.572,512.992z M862.533,513.135l0.004-0.004l0.001-0.007l-0.008-0.002l-0.004,0.007L862.533,513.135z M862.619,513.19l0.007-0.006l-0.002-0.005h-0.007l-0.004,0.005L862.619,513.19z M862.603,513.224l0.007-0.006l-0.001-0.006l-0.008-0.001l-0.004,0.007L862.603,513.224z M862.441,512.022l0.014,0.002l0.007-0.006l-0.003-0.012l-0.011-0.008l-0.01,0.004l-0.002,0.011L862.441,512.022z M862.571,512.412l0.007,0.005l0.008-0.003l0.003-0.011h-0.01L862.571,512.412z M862.496,512.515l0.01-0.005l0.007-0.008l-0.015-0.009l-0.007,0.003l-0.001,0.015L862.496,512.515z M862.223,512.844l0.012-0.001l-0.005-0.009l-0.014-0.001l-0.004,0.007L862.223,512.844z M862.249,512.989l0.005-0.009l-0.007-0.008l-0.009,0.003l-0.001,0.009L862.249,512.989z M862.743,512.922l0.004-0.008l-0.009-0.006l-0.011,0.001l-0.001,0.01L862.743,512.922z M862.417,512.634l0.009-0.003l0.002-0.007l-0.014-0.001l-0.004,0.007L862.417,512.634z M862.479,512.539l0.009,0.003l0.008-0.004l-0.007-0.008l-0.01-0.003l-0.006,0.005L862.479,512.539z M862.5,512.581l0.01,0.004l0.005-0.007l-0.009-0.01l-0.008,0.004L862.5,512.581z M862.485,512.562l0.01-0.001l0.002-0.006l-0.007-0.004l-0.007,0.002L862.485,512.562z M862.754,512.776l0.006-0.001l0.002-0.005l-0.006-0.004l-0.005,0.005L862.754,512.776z M862.69,512.689l0.007-0.009l0.005-0.013l0.001-0.012l-0.006,0.002l-0.003,0.014l-0.009,0.013L862.69,512.689z M862.386,513.317l0.009,0.006l0.011-0.007l0.01,0.001l0.007-0.01l-0.004-0.011h-0.012l-0.018,0.014L862.386,513.317z M862.387,513.357l0.004,0.017l-0.004,0.011l0.003,0.018l-0.006,0.035l-0.016,0.029l0.002,0.006l0.012-0.018l0.012-0.012l0.011-0.055l-0.004-0.03l-0.014-0.013l-0.008,0.004L862.387,513.357z M862.167,513.577l0.001,0.008l0.011-0.003l0.01-0.007l-0.01-0.002L862.167,513.577z M862.216,513.57l0.01-0.003l0.001-0.007l-0.01-0.002l-0.017,0.006l0.001,0.007L862.216,513.57z M862.245,513.57l0.01-0.004l-0.005-0.005l-0.015,0.001l-0.002,0.006L862.245,513.57z M862.313,513.53l0.009-0.006l0.004-0.01l-0.008-0.001l-0.011,0.014L862.313,513.53z M862.344,513.508l0.009-0.008l-0.004-0.005l-0.007,0.003l-0.007,0.008L862.344,513.508z M862.352,513.489l0.009,0.001l0.008-0.01l-0.005-0.003l-0.008,0.005L862.352,513.489z M862.27,513.56l0.004-0.003l0.003-0.006l-0.01-0.001l-0.002,0.007L862.27,513.56z"/>
</svg>
