<svg xmlns="http://www.w3.org/2000/svg" viewBox="876.077 524.412 0.763 0.438">
  <path d="M876.494,524.797h0.012l0.046,0.028 l-0.014,0.004l-0.028,-0.012l-0.017,-0.019Z M876.577,524.838l0.022,0.012l0.01,-0.011l-0.025,-0.022l-0.011,0.007l0.004,0.014Z M876.308,524.833l0.023,-0.008v-0.018l-0.018,-0.004l-0.011,0.004l-0.004,0.019l0.01,0.007Z M876.091,524.646l0.004,-0.043l-0.01,-0.004l-0.008,0.025l0.004,0.026l0.01,-0.004Z M876.111,524.558l0.007,-0.019v-0.018l-0.011,0.006 l-0.003,0.029l0.007,0.003Z M876.236,524.764l0.007,-0.014h0.011l0,0.011 l-0.008,0.01l-0.01,-0.007Z M876.243,524.732l0.006,-0.017l0.015,-0.008h0.019l0.022,-0.025 l0.014,0.006l-0.008,0.026l-0.021,0.014l-0.004,0.028l0.021,0.029l0.075,0.035l0.014,-0.004l-0.017,-0.015l0.01,-0.014l0.032,-0.003l0.022,0.004l0.015,-0.01l-0.014,-0.039l0.004,-0.014l0.08,-0.014l0.026,0.003l0.068,-0.012l0.012,0.011h0.015l0.019,-0.025 l0.017,-0.003l0.021,0.014l0.018,-0.003l0.047,-0.048l0.022,-0.007l0.043,-0.035l0.004,-0.037l-0.017,-0.023l-0.003,-0.018l0.014,-0.033l-0.007,-0.019l-0.055,-0.026l-0.039,-0.006l-0.054,-0.032l-0.018,0.003l-0.012,0.014h-0.012l-0.003,-0.014 l-0.025,0.003l-0.036,0.017l-0.018,0.018l-0.051,0.019l-0.004,0.023l-0.015,0.006l-0.004,-0.018l-0.022,-0.007l-0.037,0.022l-0.004,0.026l-0.025,0.008l-0.008,0.019l-0.003,0.021l-0.012,0.008l-0.022,-0.01l-0.073,0.028l-0.019,-0.004l-0.032,0.015l-0.01,0.023l0.011,0.019v0.028l-0.018,0.007l-0.004,0.022l0.014,0.019l0.028,0.004Z "/>
</svg>
