<svg xmlns="http://www.w3.org/2000/svg" viewBox="853.871 524.918 1.836 2.772">
  <path d="M854.99,525.413l0.003-0.021l0.033-0.002l0.01,0.021l-0.016,0.01L854.99,525.413z M855.295,525.795l0.029,0.003l0.018,0.012l0.009-0.017l-0.029-0.026l-0.024-0.003l-0.023,0.016l0.003,0.029L855.295,525.795z M855.13,525.189l0.04-0.007l0.009-0.023l-0.021-0.038l-0.023-0.003l-0.019,0.021l-0.003,0.033L855.13,525.189z M855.199,525.203l0.017-0.002l-0.005-0.023l-0.012-0.005l-0.012,0.014L855.199,525.203z M855.683,524.94h0.017l0.005-0.019l-0.016-0.003l-0.014,0.01L855.683,524.94z M855.61,525.085h0.023l0.023-0.023v-0.038l-0.028-0.005l-0.023,0.01l-0.009,0.042L855.61,525.085z M855.682,526.727l0.023-0.012l-0.011-0.021l0.001-0.026l0.012-0.022l-0.015-0.011l-0.018,0.014l-0.006,0.068L855.682,526.727z M855.42,527.288l0.015-0.003l0.001-0.012l-0.014-0.008l-0.012,0.01L855.42,527.288z M853.978,527.488l0.007-0.012l-0.01-0.014l-0.012,0.007l0.002,0.014L853.978,527.488z M853.99,527.315l0.023-0.031l0.017-0.031l-0.023-0.007l-0.023,0.026v0.035L853.99,527.315z M854.062,527.544l0.029-0.005l0.026,0.013l0.016,0.026l0.138,0.062l0.065-0.01l0.044-0.026l0.055,0.018l0.029,0.029l0.049,0.018l0.044-0.01h0.029l0.026,0.021l0.083,0.01l0.073-0.029l0.109-0.021l0.073-0.047l0.143-0.034l0.13-0.057l0.013-0.031l0.091-0.078l0.068-0.036l0.016-0.047l-0.062-0.057l-0.039-0.083l0.01-0.081l0.023-0.008l0.023,0.029l0.065-0.016l0.042-0.078h0.039l0.029-0.013l0.018-0.042l0.026,0.003l0.013-0.021l-0.029-0.01l-0.01-0.021l0.008-0.023l0.026-0.018l0.01-0.049l-0.026-0.023l0.013-0.021l0.036,0.005l0.021-0.016l-0.008-0.039l0.023-0.107l-0.031-0.026l0.008-0.026l0.042-0.008l0.016-0.034l-0.104-0.13l-0.021-0.094l-0.034-0.034l-0.055,0.005l-0.018-0.042l0.049-0.101l-0.042-0.075l-0.112-0.034l-0.034-0.057l-0.047-0.039l-0.036-0.078l0.003-0.14l-0.013-0.039l-0.086-0.036l-0.036,0.005l-0.036-0.023l-0.018-0.034l-0.094-0.016l-0.086,0.06l-0.021,0.06l-0.026-0.005l-0.003-0.034l-0.052-0.013l-0.013,0.008l0.015,0.04v0.028l-0.026,0.023l-0.034,0.06l-0.052,0.029l-0.049,0.104l-0.013,0.065l0.034,0.049l-0.01,0.018l-0.044,0.008l-0.023,0.055l0.013,0.042l-0.013,0.021l-0.031,0.005l-0.039,0.044v0.057l-0.018,0.01l-0.029-0.023l-0.107,0.036l-0.073,0.055l-0.042,0.044v0.026l-0.013,0.039l-0.023,0.005l-0.039,0.086l-0.008,0.049l-0.055,0.094l-0.013,0.075l0.01,0.065l0.036,0.034v0.026l-0.036,0.029l-0.016,0.078l0.031,0.029v0.023l-0.034,0.021l-0.003,0.034l0.055,0.016l0.005,0.031l-0.029,0.016l0.003,0.057l-0.075,0.109l-0.034,0.021l-0.052-0.006l-0.011-0.012l0.009-0.026l-0.009-0.003l-0.041,0.073l-0.008,0.06l0.023,0.008l0.018-0.029l0.049-0.005l0.023,0.018l0.029,0.062L854.062,527.544z"/>
</svg>
