<svg xmlns="http://www.w3.org/2000/svg" viewBox="853.912 524.949 1.859 2.772">
  <path d="M855.041952,525.443899l0.003511,-0.020787l0.033357,-0.001732l0.010534,0.020787l-0.015801,0.010393l-0.031601,-0.008661Z M855.350943,525.825854l0.028968,0.002598l0.018434,0.012126l0.008778,-0.017322l-0.029846,-0.025983l-0.024579,-0.003464l-0.022823,0.016456l0.002633,0.028582l0.018434,-0.012992Z M855.184158,525.220442l0.04038,-0.006929l0.008778,-0.022519l-0.021068,-0.038109l-0.022823,-0.003464l-0.019312,0.020787l-0.003511,0.032912l0.017556,0.017322Z M855.254384,525.2343l0.017556,-0.001732l-0.005267,-0.022519l-0.012289,-0.005197l-0.012289,0.013858l0.012289,0.01559Z M855.744205,524.971002h0.017556l0.005267,-0.019054l-0.015801,-0.003464l-0.014045,0.010393l0.007023,0.012126Z M855.670468,525.116509h0.022823l0.022823,-0.022519v-0.038109l-0.02809,-0.005197l-0.022823,0.010393l-0.008778,0.041573l0.014045,0.013858Z M855.743766,526.757736l0.023783,-0.012423l-0.011192,-0.020705l0.001399,-0.026227l0.012591,-0.022086l-0.015389,-0.011043l-0.018187,0.013804l-0.005596,0.067638l0.012591,0.011043Z M855.477952,527.319545l0.015389,-0.002761l0.001399,-0.012423l-0.01399,-0.008282l-0.012591,0.009663l0.009793,0.013804Z M854.016664,527.519102l0.007023,-0.012126l-0.010534,-0.013858l-0.012289,0.006929l0.001756,0.013858l0.014045,0.005197Z M854.028954,527.34588l0.022823,-0.03118l0.017556,-0.03118l-0.022823,-0.006929l-0.022823,0.025983v0.034644l0.005267,0.008661Z M854.101812,527.5754l0.028968,-0.005197l0.026334,0.012992l0.015801,0.025983l0.139573,0.06236l0.065836,-0.010393l0.044769,-0.025983l0.055302,0.018188l0.028968,0.028582l0.050035,0.018188l0.044769,-0.010393h0.028968l0.026334,0.020787l0.08427,0.010393l0.073736,-0.028582l0.110605,-0.020787l0.073736,-0.04677l0.14484,-0.033778l0.131672,-0.057163l0.013167,-0.03118l0.092171,-0.07795l0.06847,-0.036377l0.015801,-0.04677l-0.063203,-0.057163l-0.039502,-0.083147l0.010534,-0.080548l0.023701,-0.007795l0.023701,0.028582l0.065836,-0.01559l0.042135,-0.07795h0.039502l0.028968,-0.012992l0.018434,-0.041573l0.026334,0.002598l0.008087,-0.013423l-0.023888,-0.017757l-0.010534,-0.020787l0.0079,-0.023385l0.026334,-0.018188l0.010534,-0.049368l-0.026334,-0.023385l0.013167,-0.020787l0.036868,0.005197l0.021068,-0.01559l-0.0079,-0.038975l0.023701,-0.106532l-0.031601,-0.025983l0.0079,-0.025983l0.042135,-0.007795l0.015801,-0.033778l-0.105338,-0.129917l-0.021068,-0.09354l-0.034235,-0.033778l-0.055302,0.005197l-0.018434,-0.041573l0.050035,-0.101335l-0.042135,-0.075352l-0.113238,-0.033778l-0.034235,-0.057163l-0.047402,-0.038975l-0.036868,-0.07795l0.002633,-0.14031l-0.013167,-0.038975l-0.086904,-0.036377l-0.036868,0.005197l-0.036868,-0.023385l-0.018434,-0.033778l-0.094804,-0.01559l-0.086904,0.059762l-0.021068,0.059762l-0.026334,-0.005197l-0.002633,-0.033778l-0.052669,-0.012992l-0.012756,0.008526l0.015389,0.040031v0.027607l-0.026334,0.022573l-0.034235,0.059762l-0.052669,0.028582l-0.050035,0.103933l-0.013167,0.064958l0.034235,0.049368l-0.010534,0.018188l-0.044769,0.007795l-0.023701,0.054565l0.013167,0.041573l-0.013167,0.020787l-0.031601,0.005197l-0.039502,0.044172v0.057163l-0.018434,0.010393l-0.028968,-0.023385l-0.107971,0.036377l-0.073736,0.054565l-0.042135,0.044172v0.025983l-0.013167,0.038975l-0.023701,0.005197l-0.039502,0.085745l-0.0079,0.049368l-0.055302,0.09354l-0.013167,0.075352l0.010534,0.064958l0.036868,0.033778v0.025983l-0.036868,0.028582l-0.015801,0.07795l0.031601,0.028582v0.023385l-0.034235,0.020787l-0.002633,0.033778l0.055302,0.01559l0.005267,0.03118l-0.028968,0.01559l0.002633,0.057163l-0.07637,0.10913l-0.034235,0.020787l-0.052998,-0.005684l-0.011192,-0.012423l0.008888,-0.026065l-0.008888,-0.002923l-0.041148,0.073078l-0.0079,0.059762l0.023701,0.007795l0.018434,-0.028582l0.050035,-0.005197l0.023701,0.018188l0.028968,0.06236l0.047402,0.03118Z "/>
</svg>
