<svg xmlns="http://www.w3.org/2000/svg" viewBox="910.636 424.044 3.969 28.756">
  <path d="M912.589,452.357l0.018-0.023l0.066,0.004l0.008,0.023l-0.047,0.06l0.006,0.109l-0.021,0.058l-0.018-0.012l0.016-0.066l-0.012-0.103l0.012-0.035L912.589,452.357z M912.488,452.755l0.027-0.027l0.006-0.035l-0.027-0.01l-0.004,0.037l-0.016,0.027L912.488,452.755z M912.333,452.796l0.06,0.004l0.029-0.027l-0.029-0.023l-0.08-0.023l-0.087-0.084l-0.053-0.096v-0.045l-0.035-0.072l-0.039-0.041l0.012-0.021l-0.01-0.031l-0.037,0.019l0.004,0.041l0.052,0.113l0.033,0.035l0.057,0.116l0.043,0.051l0.016,0.037L912.333,452.796z M913.359,451.293l0.025,0.047l0.043,0.006l0.016-0.017l-0.082-0.109l-0.021-0.014l-0.025,0.019l0.002,0.037L913.359,451.293z M911.759,448.432l0.004-0.037l-0.014-0.023l-0.025-0.004l-0.014,0.029l0.017,0.035H911.759z M911.798,448.598l0.002-0.043l-0.012-0.014l-0.019,0.014l-0.004,0.023l0.014,0.033L911.798,448.598z M911.753,448.528l0.014,0.01l0.016-0.01l-0.01-0.017l-0.015-0.001L911.753,448.528z M911.755,448.269l0.016-0.024l0.002-0.038l-0.019-0.009l-0.023,0.024l-0.005,0.045L911.755,448.269z M912.123,448.216l0.002-0.019l-0.005-0.007l-0.011,0.013l0.003,0.019L912.123,448.216z M911.756,448.312l-0.003-0.015l-0.01-0.001l-0.002,0.015L911.756,448.312z M911.748,448.354l-0.008-0.016h-0.01v0.019L911.748,448.354z M911.795,448.642l-0.002-0.014h-0.009l-0.006,0.011L911.795,448.642z M911.783,448.744l0.019-0.003l0.004-0.008l-0.008-0.006l-0.019,0.011L911.783,448.744z M911.795,448.769l0.018-0.008l-0.004-0.011l-0.014,0.001l-0.006,0.009L911.795,448.769z M911.821,448.787l0.013-0.011l-0.009-0.01l-0.019,0.006l-0.001,0.013L911.821,448.787z M911.874,449.014l0.001-0.014l-0.007-0.004l-0.007,0.012L911.874,449.014z M911.871,449.097l0.015-0.012l-0.014-0.007l-0.016,0.012L911.871,449.097z M912.882,449.287l0.004-0.009l-0.016-0.014l-0.017,0.002l0.007,0.012L912.882,449.287z M912.986,449.3l0.034-0.017l0.002-0.016l-0.043,0.009l-0.005,0.014L912.986,449.3z M913.052,449.294l0.02-0.006l-0.002-0.019l-0.027,0.002l-0.009,0.01L913.052,449.294z M913.1,449.207l0.007-0.009l-0.008-0.019l-0.01,0.003v0.021L913.1,449.207z M913.36,449.246l0.022-0.022l0.045-0.057l-0.007-0.012l-0.047,0.004l-0.027,0.046v0.032L913.36,449.246z M912.788,449.408l0.045-0.039l-0.008-0.017l-0.025-0.001l-0.04,0.024l-0.002,0.029L912.788,449.408z M913.381,448.976l0.004,0.011l0.015-0.001l0.004-0.015l-0.011-0.006L913.381,448.976z M912.367,447.756l0.009,0.007l0.015-0.005l-0.002-0.017l-0.019,0.002L912.367,447.756z M912.482,448.102l0.007-0.006l-0.01-0.011l-0.009,0.001l-0.002,0.017H912.482z M912.668,448.156l0.004-0.011l-0.009-0.011l-0.013,0.006v0.017H912.668z M912.478,448.239l0.003-0.006l-0.02-0.015l-0.005,0.009l0.006,0.013L912.478,448.239z M912.433,447.094l0.003,0.009l0.018,0.004l0.004-0.009l-0.005-0.013l-0.014-0.001L912.433,447.094z M912.5,447.156l0.013,0.017l0.013-0.004l-0.014-0.021l-0.01-0.001L912.5,447.156z M912.663,447.064l0.011,0.003l-0.001-0.014l-0.011-0.011l-0.004,0.01L912.663,447.064z M913.275,447.081l0.009,0.001l0.007-0.01l-0.003-0.015l-0.011-0.009l-0.007,0.009l0.005,0.011V447.081z M913.401,447.45l0.008-0.036l-0.003-0.023l-0.031-0.012l-0.013,0.002l0.019,0.026l0.002,0.04L913.401,447.45z M913.383,447.534l0.017-0.013l-0.011-0.011v-0.032l-0.021,0.001l-0.005,0.014L913.383,447.534z M912.486,449.506l0.019,0.019l0.028-0.007l-0.011-0.014l-0.024-0.006L912.486,449.506z M912.45,449.484l0.021,0.017l0.014-0.014l-0.015-0.014l-0.019-0.002L912.45,449.484z M912.338,449.444l0.024,0.02l0.026-0.025l-0.006-0.007l-0.018,0.011l-0.011-0.007l0.003-0.032l-0.013-0.005l-0.005,0.032L912.338,449.444z M912.41,449.452l0.002-0.013l-0.011,0.004l-0.002,0.014L912.41,449.452z M912.438,449.446l-0.007-0.006l-0.01,0.001l-0.001,0.019l0.014-0.002L912.438,449.446z M911.903,449.135l0.003-0.017l-0.008-0.014l-0.013,0.01l0.002,0.014L911.903,449.135z M912.282,449.425l0.016-0.007l-0.004-0.034l-0.043-0.024l-0.029-0.043l-0.031-0.012l-0.01,0.008l0.043,0.034l0.028,0.044l0.023,0.013L912.282,449.425z M912.153,449.295l0.019-0.009l-0.016-0.029l-0.021-0.003l-0.004,0.014l0.012,0.009L912.153,449.295z M912.111,449.252l0.013-0.007l-0.018-0.021l-0.007,0.007l0.003,0.013L912.111,449.252z M912.077,449.235l0.01-0.011l-0.024-0.014l-0.033-0.007l-0.025-0.032l-0.013-0.004l-0.002,0.017l0.033,0.043l0.027,0.001L912.077,449.235z M911.94,449.144l0.026,0.015l0.01-0.005l-0.024-0.023l-0.032-0.008l0.001,0.011L911.94,449.144z M913.57,449.038l0.031-0.012l0.021-0.029l-0.018-0.01l-0.027,0.01l-0.019,0.026L913.57,449.038z M913.663,448.983l0.039-0.025l-0.008-0.009l-0.045,0.021l-0.016,0.017l0.008,0.023L913.663,448.983z M913.803,448.846l0.014,0.014l0.016-0.035v-0.032l0.017-0.036l-0.008-0.005l-0.026,0.041L913.803,448.846z M913.885,448.7l0.007-0.001l0.008-0.038l-0.001-0.021l-0.014-0.003l-0.003,0.031L913.885,448.7z M913.886,448.595l0.003-0.022l-0.008-0.012l-0.009,0.016l-0.001,0.025L913.886,448.595z M913.626,448.346l0.013-0.008l-0.006-0.013l-0.021,0.001l-0.003,0.016L913.626,448.346z M913.856,448.518l0.021-0.001l-0.009-0.019l-0.014-0.001L913.856,448.518z M913.834,448.467l0.014-0.005l-0.001-0.019l-0.016-0.013l-0.008,0.012L913.834,448.467z M913.812,448.4l0.021,0.003l0.001-0.016l-0.027-0.041l-0.022-0.006v0.016L913.812,448.4z M913.755,448.235l0.008-0.009l-0.001-0.023l-0.013,0.001L913.755,448.235z M913.41,447.592l0.003-0.021l-0.009-0.013l-0.01,0.01l0.005,0.028L913.41,447.592z M913.416,447.68l0.003-0.025l-0.008-0.017l-0.009,0.01l0.001,0.039L913.416,447.68z M913.401,447.79l0.008-0.01l-0.006-0.017l-0.009-0.001l-0.001,0.022L913.401,447.79z M913.421,447.864l0.005,0.019l0.019-0.003v-0.022l-0.03-0.019l-0.008,0.01L913.421,447.864z M913.48,447.934l0.019-0.001v-0.014l-0.025-0.012l-0.01,0.01L913.48,447.934z M913.569,447.99l0.019,0.006l0.006-0.013l-0.03-0.016l-0.008,0.01L913.569,447.99z M913.671,448.066l0.012,0.004l-0.001-0.017l-0.012-0.016l-0.008,0.005L913.671,448.066z M913.709,448.116l0.009-0.014l-0.016-0.004l-0.012,0.013L913.709,448.116z M913.72,448.149l0.01-0.003l0.001-0.014l-0.013-0.012l-0.005,0.021L913.72,448.149z M911.098,438.269l0.016-0.015l-0.008-0.014l-0.014,0.01l-0.004,0.016L911.098,438.269z M911.764,438.195l0.012,0.016l0.008-0.009l-0.003-0.016L911.764,438.195z M911.904,438.415l0.016-0.003l-0.003-0.012l-0.019-0.001l-0.009,0.01L911.904,438.415z M911.721,438.751l0.016,0.008l0.012-0.013l-0.014-0.005L911.721,438.751z M911.492,438.949l0.026,0.009l0.019-0.004l-0.006-0.017l-0.023,0.001L911.492,438.949z M911.369,438.974l0.016,0.013l0.016-0.004v-0.021l-0.016-0.004L911.369,438.974z M911.848,439.272l-0.001-0.012l-0.01-0.001l-0.004,0.014L911.848,439.272z M911.752,439.306l0.009-0.006l-0.008-0.01l-0.017,0.013L911.752,439.306z M911.741,439.437l0.018-0.005l0.008-0.009l-0.021-0.005l-0.012,0.012L911.741,439.437z M911.4,439.481l0.014-0.009l-0.008-0.012l-0.014-0.001l-0.005,0.014L911.4,439.481z M911.29,439.529l0.012-0.004l-0.001-0.017l-0.012-0.004l-0.004,0.018L911.29,439.529z M911.189,439.631l0.008-0.016l-0.003-0.013l-0.016-0.001l-0.003,0.027L911.189,439.631z M911.229,439.722l0.008-0.008l-0.008-0.01l-0.017,0.004l-0.004,0.012L911.229,439.722z M913.697,437.925l0.004,0.011l0.023,0.002l0.004-0.015l-0.018-0.01L913.697,437.925z M914.17,438.865l-0.001,0.029l0.01,0.01l0.013-0.031l-0.001-0.026l-0.018-0.011l-0.012,0.014L914.17,438.865z M913.205,439.566l0.016,0.019l0.012-0.008l-0.006-0.021l-0.012-0.002L913.205,439.566z M914.015,439.372l0.012,0.012l0.018-0.045l-0.01-0.006L914.015,439.372z M913.963,439.399l0.016,0.008l0.01-0.017l-0.023-0.023l-0.006,0.016L913.963,439.399z M913.949,439.501l0.009,0.011l0.023-0.024l-0.001-0.02l-0.021-0.01l-0.01,0.012L913.949,439.501z M913.942,439.633l0.002-0.03l-0.012-0.006v0.03L913.942,439.633z M913.945,439.59l0.011,0.003l-0.002-0.021l-0.008-0.008L913.945,439.59z M913.817,439.733v-0.009l-0.017,0.002l-0.003,0.011L913.817,439.733z M913.18,439.995l0.01,0.025l0.012-0.003v-0.013l-0.013-0.012L913.18,439.995z M913.38,440.066l-0.004-0.016l-0.008-0.001l0.003,0.022L913.38,440.066z M913.372,440.036l0.012,0.006l0.008-0.009l-0.006-0.025h-0.013V440.036z M913.385,439.991l0.014,0.012l0.008-0.017l-0.005-0.021h-0.012L913.385,439.991z M913.403,439.936l0.014,0.005l0.016-0.03l-0.009-0.01l-0.012,0.012L913.403,439.936z M913.445,439.876l0.014,0.001l0.013-0.021l-0.008-0.01l-0.014,0.013L913.445,439.876z M911.274,440.362l0.012-0.001l-0.026-0.016l-0.005,0.007L911.274,440.362z M911.369,440.444h0.036l0.013-0.017l-0.012-0.025l-0.019-0.004l-0.019,0.013L911.369,440.444z M911.532,440.402l0.029-0.026l-0.004-0.013l-0.035,0.022l-0.002,0.022L911.532,440.402z M911.738,440.281l0.018-0.021l-0.01-0.006l-0.013,0.016l-0.003,0.011H911.738z M911.807,440.22l-0.002-0.012l-0.009-0.004l-0.005,0.023L911.807,440.22z M911.821,440.191l0.012,0.006l0.024-0.023l0.011-0.043l-0.012-0.004l-0.012,0.035L911.821,440.191z M911.862,440.111l0.013,0.007l0.004-0.007l-0.01-0.011L911.862,440.111z M911.88,440.07l-0.002-0.01l-0.01-0.003v0.017L911.88,440.07z M911.876,440.012l-0.001-0.03l0.008,0.005l0.003,0.027l-0.006,0.013h-0.009L911.876,440.012z M912.164,440.787l0.014,0.012l0.017-0.001l0.006-0.016l-0.023-0.003L912.164,440.787z M912.34,440.831l0.009,0.016l0.01-0.004l0.001-0.017l-0.01-0.001L912.34,440.831z M912.712,440.984l0.013,0.008l0.009-0.003l0.005-0.01l-0.016-0.003L912.712,440.984z M912.927,441.006l-0.001-0.017l-0.008-0.009l-0.014,0.006l0.01,0.016L912.927,441.006z M913.054,441.213l0.026,0.03l0.027,0.101l0.001,0.102l0.009,0.004l0.008-0.062l-0.003-0.049l-0.035-0.105l-0.023-0.022L913.054,441.213z M911.444,441.695l0.021,0.008l0.01-0.034l-0.018-0.023l-0.014,0.001l0.005,0.025L911.444,441.695z M911.533,441.783l0.016,0.013l0.009-0.01v-0.019l-0.016-0.003L911.533,441.783z M911.516,441.867l0.006-0.016l-0.013-0.01l-0.013,0.005l0.001,0.016L911.516,441.867z M911.795,442.232l0.007,0.012l0.013-0.008l-0.016-0.012L911.795,442.232z M911.865,442.232l-0.009-0.011l-0.023,0.008l0.003,0.02L911.865,442.232z M912.042,442.227l0.009,0.009l0.011-0.011l0.005-0.023l-0.014,0.001L912.042,442.227z M911.994,442.238l0.007,0.018l0.019-0.023l-0.003-0.017l-0.014,0.005L911.994,442.238z M912.148,442.128l0.025,0.023l0.023-0.004l-0.008-0.014l-0.035-0.022L912.148,442.128z M912.225,442.124l0.005,0.014l0.012-0.002l0.001-0.021l-0.01-0.002L912.225,442.124z M912.295,442.1l0.009-0.022l-0.004-0.008l-0.019,0.019l0.001,0.017L912.295,442.1z M912.325,442.099l0.001-0.012l0.018-0.015l0.001-0.011l-0.017,0.001l-0.016,0.026l0.004,0.013L912.325,442.099z M912.565,441.926l0.011-0.007l-0.005-0.01l-0.014,0.003l-0.006,0.011L912.565,441.926z M912.723,441.814l0.005-0.008l-0.003-0.007l-0.012,0.004l-0.003,0.01L912.723,441.814z M912.885,441.708l0.004-0.01l-0.005-0.007l-0.014,0.006l-0.003,0.009C912.862,441.704,912.885,441.708,912.885,441.708z M912.955,441.657l0.018-0.013l-0.001-0.009l-0.016,0.003l-0.012,0.014L912.955,441.657z M913.009,441.603l0.011,0.009l0.019-0.017v-0.013l-0.008-0.005L913.009,441.603z M913.039,441.568l0.009,0.007l0.012-0.02l-0.003-0.01l-0.012,0.005L913.039,441.568z M913.076,441.538l0.009,0.009l0.009-0.011l-0.004-0.017L913.076,441.538z M913.106,441.516l0.009,0.005l0.013-0.01l-0.007-0.014l-0.012,0.006L913.106,441.516z M913.108,442.831l0.008-0.017l-0.012-0.006l-0.01,0.014L913.108,442.831z M912.717,443.234l0.01,0.008l0.002-0.035l-0.01-0.004L912.717,443.234z M912.71,443.446l0.013,0.008l0.01-0.005l-0.006-0.016l-0.01,0.001L912.71,443.446z M912.773,443.493v0.01l0.018,0.004l0.005-0.009l-0.017-0.01L912.773,443.493z M912.844,443.613l0.031,0.022l0.008-0.004l-0.009-0.021l-0.019-0.007L912.844,443.613z M912.991,443.665l0.017,0.009l0.008-0.01l-0.005-0.01L912.991,443.665z M913.045,443.666l-0.003-0.009h-0.014l-0.003,0.01L913.045,443.666z M913.081,443.667l0.005-0.009h-0.019l-0.001,0.01L913.081,443.667z M913.149,443.7l0.013-0.018l0.001-0.017l-0.026-0.001l-0.028,0.016l0.003,0.021H913.149z M913.203,443.68l-0.008-0.03l-0.014-0.013l-0.01,0.014l0.012,0.031L913.203,443.68z M913.201,443.639l0.014,0.012l0.028-0.018l-0.01-0.019h-0.022L913.201,443.639z M913.21,443.564l0.019,0.006l-0.009-0.021l-0.01-0.006V443.564z M913.228,443.535l0.005,0.009l0.019-0.01l-0.009-0.007L913.228,443.535z M913.278,443.573l0.01-0.008l-0.009-0.016l-0.018,0.001l-0.003,0.007L913.278,443.573z M913.452,443.559l0.032-0.03l-0.012-0.009l-0.049,0.021l0.003,0.014L913.452,443.559z M913.577,443.519l0.021,0.01l0.049-0.04l0.029-0.049l-0.009-0.019l-0.018,0.019l-0.026,0.043L913.577,443.519z M913.69,443.404l0.023,0.006l0.006-0.026l-0.001-0.026l-0.017-0.009L913.69,443.404z M913.712,443.329l0.016,0.017l0.017-0.001l0.007-0.04l0.036-0.097l0.035-0.052v-0.048l-0.027-0.032l-0.025,0.009l0.003,0.073l-0.006,0.052l-0.034,0.089l-0.019,0.008L913.712,443.329z M913.766,443.023l0.023-0.013l0.001-0.029l-0.018-0.026l-0.013,0.003l0.006,0.034V443.023z M913.778,442.915l-0.013-0.013l-0.01,0.001l0.005,0.018L913.778,442.915z M913.756,442.882l0.009-0.005l-0.003-0.016l-0.014,0.007L913.756,442.882z M913.752,442.843l0.009-0.003l0.003-0.039l-0.016-0.003l-0.005,0.016L913.752,442.843z M913.74,442.777l0.021,0.001l-0.009-0.03l0.01-0.014l-0.014-0.005l-0.013,0.014L913.74,442.777z M913.747,442.674l0.013-0.001l0.004-0.014l-0.01-0.016l-0.008,0.005L913.747,442.674z M913.765,442.597l0.018,0.009l0.014-0.036l-0.017-0.012l-0.012,0.008L913.765,442.597z M913.784,442.543l0.013-0.008l0.008-0.036l-0.012-0.006l-0.01,0.023L913.784,442.543z M913.827,442.473l0.022,0.001l0.027-0.027l0.069-0.028l0.005-0.026l-0.013-0.014l-0.022,0.023l-0.071,0.017l-0.019,0.026L913.827,442.473z M913.795,442.444l-0.009-0.01l-0.012,0.003l-0.003,0.013L913.795,442.444z M914.583,437.507l0.015,0.014l0.007-0.014l-0.012-0.026l-0.012-0.009L914.583,437.507z M913.831,437.46l-0.01-0.006l-0.014,0.008l-0.001,0.014l0.015,0L913.831,437.46z M913.778,437.376l0.009-0.012l-0.013-0.006l-0.017,0.006v0.012H913.778z M913.807,437.436l0.012-0.006l-0.014-0.01l-0.009,0.003v0.01L913.807,437.436z M913.338,436.657l-0.01-0.008l-0.022,0.001l-0.001,0.017h0.021L913.338,436.657z M913.61,436.981l0.014,0.006l0.009-0.009l-0.01-0.01L913.61,436.981z M913.114,436.01l0.016,0.008l0.009-0.013l-0.006-0.008L913.114,436.01z M913.172,435.495l0.005,0.01l0.031-0.001l0.007-0.02l-0.022,0L913.172,435.495z M913.444,436.118l0.01,0.005l0.013-0.034l-0.005-0.023l-0.009,0.003L913.444,436.118z M913.478,436.129l0.008-0.025l0.001-0.013l-0.013,0.008l-0.005,0.027L913.478,436.129z M913.457,436.041l0.008-0.001l0.01-0.013l-0.005-0.016l-0.009,0.005L913.457,436.041z M913.497,435.929h0.01l0.021-0.017l-0.006-0.013l-0.018,0.006L913.497,435.929z M913.443,435.847l0.016,0.006l0.009-0.009l-0.006-0.014l-0.01,0.005L913.443,435.847z M913.559,435.782l0.017,0.008l0.018-0.017l0.006-0.018l-0.017-0.001L913.559,435.782z M913.646,435.582l0.014,0.004l0.01-0.014l-0.012-0.013l-0.009,0.009L913.646,435.582z M910.74,436.232l0.006,0.005l0.025-0.001l0.012-0.013l-0.025-0.001L910.74,436.232z M911.464,436.304l0.001,0.009l0.022,0.008l0.008-0.006l-0.012-0.014L911.464,436.304z M911.602,436.251l0.009,0.009h0.018l0.008-0.008l-0.014-0.012L911.602,436.251z M911.626,436.371v0.01l0.014,0.008l0.019-0.001l0.001-0.014l-0.021-0.006L911.626,436.371z M911.573,436.768l0.016,0.007l0.016-0.01l-0.009-0.008l-0.014,0.003L911.573,436.768z M910.665,436.585l0.01,0.012v0.018l0.01,0.005l0.012-0.018l-0.006-0.025l-0.014-0.003L910.665,436.585z M910.723,436.887l0.008,0.016l0.012,0.001l0.005-0.009l-0.01-0.013L910.723,436.887z M910.707,437.068l0.01,0.014l0.009-0.001l0.001-0.012l-0.006-0.006L910.707,437.068z M910.716,437.172l0.016,0.006v-0.017l-0.013-0.01l-0.007,0.005L910.716,437.172z M910.941,437.357l-0.002,0.01l0.018,0.013l0.017-0.001l0.002-0.012L910.941,437.357z M911,437.385l0.002,0.01l0.024,0.008l0.016-0.003l0.003-0.01l-0.023-0.006L911,437.385z M911.589,436.951l0.01,0.004l0.006-0.019l-0.002-0.016l-0.011-0.002l-0.008,0.008L911.589,436.951z M911.445,437.271l0.012,0.002l0.043-0.049l0.011-0.031l-0.02,0.004l-0.011,0.026L911.445,437.271z M911.355,437.35l0.005,0.009l0.038-0.029v-0.012l-0.021,0.006L911.355,437.35z M911.291,437.398l0.013,0.007l0.032-0.023l-0.006-0.011l-0.019,0.013l-0.016-0.001L911.291,437.398z M911.152,437.449l0.036-0.007l-0.002-0.034l-0.02-0.009l-0.049,0.023l-0.001,0.018L911.152,437.449z M911.229,437.441l0.004-0.027l-0.014-0.004l-0.004,0.011l0.003,0.021L911.229,437.441z M910.792,435.853l0.02,0.005l0.004-0.012l-0.012-0.014l-0.009,0.004L910.792,435.853z M911.552,435.513l0.016,0.005l0.009-0.009l-0.007-0.014l-0.011-0.001L911.552,435.513z M910.711,435.341l0.004,0.014l0.03,0.001l0.012-0.011l-0.012-0.017l-0.016,0.001L910.711,435.341z M910.798,434.823l0.011,0.009l0.011-0.005l-0.003-0.014l-0.01-0.003L910.798,434.823z M910.898,434.85l0.01,0.005l0.014-0.006l-0.002-0.011l-0.012-0.001L910.898,434.85z M911.063,434.814l0.012,0.007l0.015-0.006l-0.001-0.01l-0.016-0.001L911.063,434.814z M911.237,434.733l0.012,0.015l0.012-0.004l-0.01-0.019h-0.01L911.237,434.733z M911.651,434.564l-0.002,0.013l0.026,0.004l0.028-0.004l-0.012-0.014L911.651,434.564z M911.709,434.554l0.009,0.016l0.022-0.008l-0.004-0.026h-0.014L911.709,434.554z M911.573,433.898l0.001,0.022l0.03,0.025l0.022-0.001l0.005-0.043l-0.021-0.018L911.573,433.898z M911.566,432.304l0.026-0.001l-0.022-0.017l-0.041-0.001l-0.005,0.01L911.566,432.304z M911.692,432.314l0.028,0.003l0.007-0.008l-0.057-0.017l-0.004,0.012L911.692,432.314z M911.788,432.348l0.001,0.031l0.013-0.001l0.012-0.033l0.023-0.012l-0.012-0.024l-0.039,0.003l-0.012,0.014L911.788,432.348z M913.908,433.245l0.017-0.014l-0.004-0.016l-0.013,0.008l-0.014,0.017L913.908,433.245z M913.239,435.178l0.018,0.013l0.013-0.006l-0.016-0.018l-0.01,0.001L913.239,435.178z M913.377,435.09l0.01,0.012l0.013-0.013l-0.004-0.012l-0.012-0.001L913.377,435.09z M913.494,435.094l0.011-0.004l-0.006-0.021l-0.017-0.003l-0.005,0.016L913.494,435.094z M913.528,435.088l0.007-0.013l-0.013-0.005l-0.007,0.013l0.001,0.011L913.528,435.088z M913.665,435.236h0.013l0.002-0.01l-0.018-0.009l-0.004,0.008L913.665,435.236z M913.657,434.918l0.042-0.01l-0.002-0.026l-0.035-0.017l-0.023,0.005l-0.019,0.02l0.002,0.022L913.657,434.918z M913.567,434.912l0.018-0.004l-0.004-0.023l-0.012-0.003l-0.011,0.013L913.567,434.912z M913.41,434.88l0.028-0.01l-0.001-0.022l-0.033-0.006l-0.042,0.01l-0.011,0.014L913.41,434.88z M913.472,434.889l0.004-0.008l-0.008-0.012l0.011-0.014l-0.008-0.007l-0.014,0.009l-0.002,0.028L913.472,434.889z M913.719,434.871l0.01,0.02l0.03-0.027l0.027-0.073l0.024-0.107l0.019-0.031l-0.018-0.017l-0.039,0.016l-0.035,0.077l-0.018,0.065V434.871z M913.568,434.76l0.01-0.012l-0.006-0.009l-0.016,0.009v0.01L913.568,434.76z M913.705,434.709l0.002-0.013l-0.005-0.009l-0.009,0.01l-0.003,0.012H913.705z M913.588,434.529l-0.006,0.011l0.009,0.01l0.013-0.006l-0.001-0.013L913.588,434.529z M913.814,434.497h0.013l0.004-0.016l-0.004-0.014l-0.007,0.004L913.814,434.497z M913.831,434.451l0.005,0.005l0.012-0.009v-0.012l-0.009,0.001L913.831,434.451z M913.881,434.412l0.022-0.009l0.001-0.015l-0.018-0.009l-0.018,0.009l-0.002,0.018L913.881,434.412z M913.973,434.329l0.015,0.003l0.017-0.026l-0.003-0.017l-0.012,0.002l-0.004,0.018L913.973,434.329z M914.01,434.273l0.01,0.006l0.012-0.012l0.001-0.013l-0.008-0.001L914.01,434.273z M914.053,434.248l0.014,0.005l0.003-0.012l-0.005-0.014l-0.011,0.003L914.053,434.248z M914.182,434.17l0.018-0.017l-0.008-0.012l-0.025,0.002l-0.021,0.01l0.001,0.014L914.182,434.17z M914.232,434.152l0.012-0.016l-0.008-0.009l-0.011,0.007l-0.003,0.013L914.232,434.152z M914.403,433.912l0.01,0.006l0.011-0.009l0.002-0.022l-0.011-0.002L914.403,433.912z M914.417,433.867l0.013,0.002l0.006-0.01v-0.019l-0.012-0.002l-0.007,0.012V433.867z M913.655,432.859l0.012,0.01l0.017-0.004l0.01-0.021l-0.023-0.002L913.655,432.859z M913.681,433.078l0.002-0.016h-0.012l-0.002,0.017L913.681,433.078z M913.48,433.02l0.006,0.016l0.012-0.002l-0.004-0.012l-0.009-0.011L913.48,433.02z M913.296,433.224l0.004,0.012l0.01-0.002l0.002-0.016L913.296,433.224z M913.266,433.513l0.006,0.007l0.004-0.005l-0.001-0.006L913.266,433.513z M913.345,433.403l0.013,0.004l0.002-0.005l-0.008-0.007L913.345,433.403z M913.134,434.17l0.007,0.006l0.011-0.005l-0.004-0.008L913.134,434.17z M913.2,433.943l0.011-0.004l-0.016-0.011l-0.009-0.002l0.001,0.014L913.2,433.943z M913.229,433.756l0.01-0.008l-0.007-0.007l-0.014,0.001l-0.003,0.012L913.229,433.756z M913.136,433.684l0.006-0.011l-0.007-0.007l-0.008,0.004l0.001,0.014H913.136z M913.127,433.648l0.007,0.004l0.016-0.005l-0.001-0.04l-0.016-0.018l-0.013,0.006l0.007,0.029V433.648z M913.14,433.563l0.007,0.003l0.01-0.012l-0.004-0.009l-0.009,0.001L913.14,433.563z M913.477,432.03l-0.002,0.019l0.023,0.012l0.041-0.004l0.035-0.039l-0.016-0.029l-0.029,0.01l-0.019,0.021L913.477,432.03z M913.531,429.896l0.012,0.004l0.038-0.01v-0.016l-0.019,0.001L913.531,429.896z M913.71,429.962l0.013,0.007l0.001-0.016l-0.021-0.019l-0.01,0.004L913.71,429.962z M913.907,430.192l0.023,0.008l0.01-0.006l-0.053-0.031l-0.009,0.005L913.907,430.192z M914.084,430.299l0.018-0.001l0.001-0.009l-0.027-0.013l-0.005,0.01L914.084,430.299z M914.169,430.334l0.013-0.003l-0.001-0.012l-0.022-0.004l-0.001,0.009L914.169,430.334z M913.338,430.108l0.013,0.004l0.016-0.016v-0.014h-0.014L913.338,430.108z M913.232,430.163l0.008,0.01l0.027-0.016l0.012-0.018l-0.016-0.001L913.232,430.163z M913.19,430.242l0.009,0.007l0.008-0.011l0.003-0.043l-0.01,0.002l-0.009,0.023L913.19,430.242z M913.166,430.286l0.02,0.009l0.014-0.011l-0.01-0.027l-0.013-0.003l-0.009,0.009L913.166,430.286z M913.167,430.354l0.01-0.003l-0.01-0.019l-0.011-0.005l-0.004,0.008L913.167,430.354z M913.129,430.382l0.009,0.002l0.013-0.009l-0.004-0.01l-0.01,0.004L913.129,430.382z M913.049,430.57l0.008,0.014l0.036-0.01l0.044-0.025l-0.013-0.004l-0.045,0.02l-0.019-0.003L913.049,430.57z M913.227,430.527l0.005,0.007l0.029-0.002l0.007-0.007l-0.014-0.006L913.227,430.527z M914.213,430.376l0.022,0.079l0.001,0.054h0.01l0.005-0.023l-0.002-0.039l-0.026-0.081l-0.008-0.019l-0.016-0.001l-0.006,0.011L914.213,430.376z M914.248,430.679l-0.008,0.013l0.011,0.008l0.014-0.02l-0.002-0.023l-0.01-0.005l-0.007,0.008L914.248,430.679z M914.254,430.589l-0.003,0.025l0.013,0.003l0.009-0.018v-0.029l-0.02-0.02l-0.008,0.002l-0.003,0.023L914.254,430.589z M914.141,430.893l0.016-0.007l-0.006-0.01l-0.01,0.002l-0.008,0.01L914.141,430.893z M914.068,430.903l0.006,0.007l0.022-0.01l0.009-0.013l-0.013-0.003l-0.016,0.007L914.068,430.903z M913.689,430.861l-0.004,0.011l0.005,0.011l0.016-0.001l0.007-0.013l-0.012-0.009L913.689,430.861z M913.629,430.796l0.018,0.002l0.001-0.01l-0.012-0.011l-0.026,0.002v0.01L913.629,430.796z M913.586,430.744l0.016-0.002v-0.01l-0.014-0.005l-0.009,0.008L913.586,430.744z M913.371,430.601l0.021,0.008l0.017-0.005l-0.005-0.017l-0.018-0.004l-0.032-0.032h-0.011v0.014L913.371,430.601z M913.431,430.607l0.005-0.015l-0.008-0.011l-0.014,0.004l0.006,0.021L913.431,430.607z M913.54,430.684l0.012,0.018l0.018-0.002l-0.002-0.01l-0.016-0.01L913.54,430.684z M911.218,431.799l0.013-0.008l-0.019-0.022l-0.014,0.001l-0.004,0.013L911.218,431.799z M911.347,431.647l0.004,0.008l0.017-0.001l0.012-0.009l-0.014-0.005L911.347,431.647z M911.474,431.448l0.017,0.001l0.004-0.013l-0.025-0.001l-0.006,0.007L911.474,431.448z M911.361,431.076l0.017,0.001l-0.008-0.014l-0.017-0.005l-0.009,0.01L911.361,431.076z M911.795,431.289l0.014-0.003l-0.01-0.019l-0.014-0.003l-0.004,0.012L911.795,431.289z M911.356,431.733l0.012-0.001l0.001-0.023l-0.012-0.003l-0.008,0.008L911.356,431.733z M911.437,431.86l0.006,0.011l0.018-0.003l0.003-0.018h-0.017L911.437,431.86z M911.506,431.845l0.011,0.007l0.013-0.008l-0.006-0.02l-0.014-0.001L911.506,431.845z M911.565,431.839l0.016,0.007l0.018-0.004l0.001-0.012l-0.012-0.009L911.565,431.839z M911.614,431.818l0.003,0.011l0.05-0.004l-0.01-0.008l-0.026,0.001l-0.01-0.006L911.614,431.818z M912.048,431.585l-0.014,0.005l0.008,0.012l0.023,0.009l0.009-0.01L912.048,431.585z M912.018,431.335l0.011-0.006l-0.01-0.01l-0.023-0.001l-0.002,0.008L912.018,431.335z M912.122,431.17l0.016,0.001l0.008-0.007l-0.011-0.01l-0.022-0.002l0.001,0.012L912.122,431.17z M912.24,431.071l0.011-0.005l-0.008-0.011l-0.019-0.007l-0.005,0.01L912.24,431.071z M912.405,430.985l0.017,0.009l0.009-0.013l-0.003-0.014l-0.009,0.001L912.405,430.985z M912.222,430.868l0.012,0.007l0.012-0.002l0.001-0.012l-0.013-0.007l-0.024,0.005l-0.003,0.009H912.222z M912.269,431.241l0.014-0.004l-0.011-0.016l-0.014-0.002l-0.007,0.008L912.269,431.241z M912.314,431.228l0.003-0.009l-0.017-0.008l-0.007,0.004l0.003,0.009L912.314,431.228z M911.979,430.036l0.003-0.009l-0.016-0.008l-0.007,0.004l0.003,0.009L911.979,430.036z M911.969,430.104l0.001-0.016l-0.015-0.002l-0.007,0.004l0.003,0.011L911.969,430.104z M911.817,430.092l-0.003-0.011l-0.013-0.002l-0.007,0.004l0.003,0.009L911.817,430.092z M911.622,430.682l0.004,0.01l0.016,0.004l0.013-0.009l-0.006-0.011h-0.012L911.622,430.682z M911.687,430.654l-0.003,0.009l0.007,0.007l0.018-0.003l0.002-0.011l-0.01-0.005L911.687,430.654z M912.07,430.824l0.016-0.001l-0.003-0.017l-0.014-0.005l-0.004,0.008L912.07,430.824z M912.027,430.842l0.011-0.006l-0.015-0.019h-0.009l0.002,0.013L912.027,430.842z M911.83,430.9l0.001,0.011l0.014,0.006l0.017-0.005l0.001-0.011l-0.016-0.007L911.83,430.9z M911.917,430.903l0.001,0.01l0.014,0.004l0.007-0.003l-0.001-0.012L911.917,430.903z M911.96,430.904l0.003,0.008l0.011,0.005l0.009-0.008l-0.011-0.013L911.96,430.904z M911.517,430.594l0.013-0.009l-0.004-0.018l-0.017-0.004l-0.006,0.01L911.517,430.594z M911.79,430.436l0.003-0.01l-0.012-0.006l-0.01,0.008l0.003,0.013L911.79,430.436z M911.159,430.019l0.013,0.004l0.021-0.014l-0.006-0.014l-0.012,0.003L911.159,430.019z M911.221,429.971l0.009,0.01l0.022-0.013l-0.003-0.016l-0.016,0.007L911.221,429.971z M911.379,430.092l0.014-0.008l-0.003-0.01l-0.026,0.001v0.013L911.379,430.092z M911.506,430.205l0.008-0.013l-0.013-0.006l-0.018,0.004l0.001,0.014L911.506,430.205z M911.483,430.291l0.01-0.013l-0.013-0.008l-0.012,0.007l-0.005,0.014H911.483z M911.584,430.259l0.013,0.009l0.012-0.01l-0.001-0.013l-0.012,0.003L911.584,430.259z M911.903,430.26l0.044,0.004l0.009-0.01l-0.014-0.009h-0.043l-0.008,0.009L911.903,430.26z M911.931,430.208l0.029,0.004l0.012-0.01l-0.008-0.016l-0.041,0.003l-0.005,0.01L911.931,430.208z M911.967,430.158l0.014-0.01l-0.014-0.012l-0.034-0.004l-0.004,0.014L911.967,430.158z M911.634,430.211l0.001,0.013l0.014,0.01l0.017-0.012l0.002-0.014l-0.016-0.007L911.634,430.211z M911.726,430.225l0.016,0.01l0.013-0.006l0.002-0.009l-0.02-0.005L911.726,430.225z M911.613,430.154l0.007,0.008h0.034l0.011-0.01l-0.019-0.009L911.613,430.154z M911.715,430.111l-0.002,0.009l0.018,0.008l0.009-0.009l-0.009-0.01L911.715,430.111z M911.425,430.124l0.013-0.001l0.003-0.013l-0.011-0.01l-0.01,0.004l-0.003,0.011L911.425,430.124z M911.573,430.091l0.01,0.008h0.015l0.006-0.009l-0.011-0.009l-0.013,0.002L911.573,430.091z M911.691,430.024l-0.003,0.01l0.012,0.006l0.012-0.007l-0.011-0.01L911.691,430.024z M911.734,430.014l-0.003,0.009l0.008,0.006l0.014-0.005v-0.009L911.734,430.014z M911.979,429.954l0.014-0.003l-0.001-0.012l-0.037-0.006l-0.006,0.01L911.979,429.954z M911.97,429.889l0.018,0.002l0.012-0.014l-0.01-0.01l-0.026,0.001l-0.006,0.011L911.97,429.889z M911.985,429.836l0.011-0.004l-0.006-0.015l-0.021-0.002l-0.006,0.013L911.985,429.836z M911.981,429.768l0.011-0.01v-0.019l-0.006-0.011l-0.019,0.008v0.02L911.981,429.768z M911.98,429.687l0.01-0.004l0.003-0.023l-0.009-0.009l-0.014,0.009l-0.002,0.013L911.98,429.687z M911.969,429.605l0.012-0.005v-0.027l-0.008-0.015l-0.013,0.009l-0.005,0.018L911.969,429.605z M911.276,429.631l0.01,0.004l0.005-0.01l-0.005-0.013h-0.008L911.276,429.631z M911.388,429.511l0.014-0.002l0.001-0.008l-0.023-0.008l-0.004,0.004L911.388,429.511z M911.64,429.672l0.011-0.006l-0.005-0.014h-0.011l-0.008,0.015L911.64,429.672z M911.767,429.531l0.013-0.001v-0.011l-0.016-0.009l-0.006,0.011L911.767,429.531z M911.918,429.454l0.015,0.001l0.008-0.013l-0.009-0.02l-0.013,0.003L911.918,429.454z M911.922,429.358l0.006-0.011l-0.009-0.007l-0.011,0.004l-0.003,0.014H911.922z M911.901,429.311l0.017-0.005l0.001-0.037l-0.013-0.004l-0.011,0.014L911.901,429.311z M911.272,429.235l0.013-0.008l-0.005-0.009l-0.02,0.001l-0.003,0.011L911.272,429.235z M911.537,429.196l0.007-0.008l-0.008-0.011l-0.013,0.004l0.001,0.012L911.537,429.196z M911.636,429.125l0.011-0.01l-0.005-0.012h-0.019l-0.004,0.013L911.636,429.125z M911.835,429.129l0.007-0.009l-0.003-0.009l-0.014,0.003l-0.003,0.01L911.835,429.129z M911.82,429.091l0.014-0.005l-0.009-0.025l0.005-0.028l-0.01-0.004l-0.014,0.022l0.004,0.025L911.82,429.091z M911.649,429.059l0.007-0.003l-0.008-0.019l-0.008,0.001l-0.002,0.01L911.649,429.059z M911.799,428.977l0.011-0.006l-0.003-0.024l-0.014-0.003l-0.005,0.017L911.799,428.977z M911.782,428.907l0.012-0.003v-0.014l-0.011-0.011l-0.011,0.005L911.782,428.907z M911.747,428.746l0.008-0.002l0.002-0.027l-0.012-0.017l-0.012,0.003l0.003,0.023L911.747,428.746z M911.541,428.268l0.011-0.006l-0.008-0.01h-0.013l-0.003,0.01L911.541,428.268z M911.59,428.319l0.021-0.003l0.01-0.013l-0.009-0.015l-0.025,0.001l-0.007,0.017L911.59,428.319z M910.636,426.685l0.019,0.001l0.019-0.031l-0.001-0.019l-0.017,0.001L910.636,426.685z M911.393,426.417h0.017l0.001-0.012l-0.018-0.008l-0.008,0.01L911.393,426.417z M911.415,426.56l0.025,0.009l0.029-0.005l0.01-0.023l-0.023-0.009l-0.029,0.008L911.415,426.56z M911.468,426.595l0.013,0.012l0.029-0.003l0.019-0.019l-0.014-0.016l-0.03,0.009L911.468,426.595z M911.964,426.52l0.014,0.009l0.013-0.012l-0.01-0.012l-0.013,0.003L911.964,426.52z M911.997,426.578l0.008,0.01l0.019-0.005l0.004-0.017l-0.017-0.001L911.997,426.578z M913.038,429.503l-0.001,0.013l0.007,0.01l0.012-0.003l0.003-0.019L913.038,429.503z M912.92,429.5l-0.003,0.01l0.011,0.012l0.016-0.007l-0.002-0.014L912.92,429.5z M913.236,429.445l0.016,0.004l0.023-0.019l-0.004-0.017l-0.019-0.006l-0.006,0.021L913.236,429.445z M913.325,429.353h0.012l0.011-0.015l-0.01-0.02l-0.01,0.002L913.325,429.353z M913.348,429.289l0.009,0.009l0.016-0.015l0.003-0.039l-0.015-0.007L913.348,429.289z M912.838,429.468l0.019-0.001l0.001-0.018l-0.02-0.02l-0.015,0.003L912.838,429.468z M912.778,429.385h0.016l-0.008-0.03l-0.014-0.002l-0.005,0.01L912.778,429.385z M912.578,429.137l0.002,0.011l0.012,0.001l0.01-0.019l-0.009-0.012L912.578,429.137z M912.711,429.126l0.007-0.011l-0.012-0.013l-0.013,0.001l-0.001,0.01L912.711,429.126z M912.771,429.099l0.002-0.014l-0.01-0.003l-0.015,0.018l0.008,0.011L912.771,429.099z M912.985,429.147l0.013-0.003l-0.001-0.013l-0.017-0.013l-0.008,0.008L912.985,429.147z M913.13,429.203l0.008-0.011l-0.015-0.035h-0.02v0.018L913.13,429.203z M913.28,429.042l0.014,0.024l0.025,0.01l0.015-0.011v-0.018l-0.036-0.021L913.28,429.042z M913.047,429.035l0.005,0.024l0.014,0.001l0.012-0.012l-0.021-0.021L913.047,429.035z M913.141,429.026l0.001-0.017l-0.012-0.008l-0.013,0.005l0.001,0.017L913.141,429.026z M913.137,428.974l0.011-0.007l-0.009-0.012l-0.018-0.001l-0.005,0.012L913.137,428.974z M913.073,428.942l0.004-0.008l-0.012-0.007l-0.008,0.005l-0.003,0.011L913.073,428.942z M912.966,428.877l0.009-0.008l-0.006-0.007l-0.011,0.001l-0.001,0.01L912.966,428.877z M913.004,428.876l0.001-0.01l-0.008-0.004l-0.009,0.004l0.001,0.01H913.004z M913.196,428.879l0.002-0.012l-0.012-0.013l-0.011,0.002l-0.004,0.009L913.196,428.879z M913.22,428.851l0.013-0.005l-0.004-0.013h-0.011l-0.003,0.011L913.22,428.851z M913.478,428.89v0.01l0.013-0.001l0.075-0.059l0.012-0.03l-0.003-0.035l-0.01,0.003l-0.009,0.029l-0.027,0.036L913.478,428.89z M913.436,428.765l0.009-0.004l-0.007-0.011l-0.01-0.001l-0.003,0.009L913.436,428.765z M912.889,428.928l0.011-0.009l-0.009-0.009l-0.013,0.003v0.009L912.889,428.928z M912.803,428.988h0.016l0.002-0.013l-0.016-0.006l-0.005,0.008L912.803,428.988z M912.607,428.946l0.006,0.007l0.019-0.005v-0.012l-0.012-0.001L912.607,428.946z M912.405,428.92l0.021,0.004l0.008-0.011l-0.012-0.017l-0.023-0.002l-0.005,0.007L912.405,428.92z M912.567,428.815l-0.009-0.012l-0.01,0.003l-0.002,0.012l0.007,0.008L912.567,428.815z M912.313,428.661l0.012-0.006l-0.001-0.01l-0.019-0.001l-0.003,0.007L912.313,428.661z M912.909,428.794l0.007,0.008l0.016-0.003v-0.012h-0.015L912.909,428.794z M913.039,428.744l0.006-0.011l-0.004-0.011l-0.019,0.002v0.013L913.039,428.744z M913.145,428.711l0.013-0.004l-0.003-0.012l-0.021-0.006l-0.003,0.014L913.145,428.711z M913.065,428.656l0.008-0.008l-0.009-0.008l-0.016,0.002l0.001,0.008L913.065,428.656z M913.191,428.622l0.007-0.007l-0.007-0.014l-0.011,0.001l-0.002,0.008L913.191,428.622z M913.281,428.626v-0.015l-0.016-0.003l-0.008,0.006l0.007,0.018L913.281,428.626z M912.945,428.519l0.01,0.004l0.014-0.025l-0.006-0.008l-0.011,0.001L912.945,428.519z M912.236,428.307l0.007-0.003l0.001-0.017l-0.009-0.003l-0.005,0.01L912.236,428.307z M912.205,428.165l0.006-0.014l-0.021-0.01l-0.012,0.009l0.005,0.012L912.205,428.165z M912.098,428.11l0.013-0.001l-0.048-0.026l-0.01,0.001l0.001,0.008L912.098,428.11z M911.984,427.982l0.009-0.007l-0.012-0.008l-0.014,0.003l0.003,0.011L911.984,427.982z M911.949,427.976l0.008-0.007l-0.005-0.011l-0.012-0.001l-0.005,0.009L911.949,427.976z M911.776,427.417l0.003-0.009l-0.011-0.004l-0.005,0.005l0.004,0.011L911.776,427.417z M911.904,427.446l0.009-0.009l-0.011-0.013l-0.02,0.004l-0.016,0.013l0.008,0.009L911.904,427.446z M912.02,427.397l-0.002-0.018l-0.016-0.004l-0.012,0.017l0.006,0.012L912.02,427.397z M911.811,427.112l0.009,0.009l0.009-0.012l-0.002-0.016l-0.012-0.008L911.811,427.112z M911.661,426.924l0.01,0.007l0.027-0.013l0.009-0.017l-0.017-0.012l-0.014,0.004L911.661,426.924z M911.929,426.82l0.005,0.018l0.025,0.008l0.018-0.017l-0.001-0.021l-0.031-0.004L911.929,426.82z M912.166,427.052l0.012,0.014l0.016-0.003l0.014-0.027l-0.005-0.018h-0.025L912.166,427.052z M912.328,427.099l0.001,0.019l0.017,0.007l0.013-0.017l-0.014-0.016L912.328,427.099z M912.495,427.114l-0.004,0.013l0.012,0.008l0.016-0.004l-0.004-0.017H912.495z M912.315,426.946l0.001,0.016l0.018,0.008l0.013-0.005l0.005-0.018l-0.005-0.014l-0.017,0.003L912.315,426.946z M912.535,426.864l0.01,0.019l0.017,0.003l0.017-0.014l-0.008-0.019l-0.029-0.005L912.535,426.864z M912.612,426.96l0.016,0.025l0.021-0.001v-0.032l-0.017-0.019h-0.014L912.612,426.96z M912.666,427.087l0.014,0.022l-0.003,0.019l0.017,0.008l0.018-0.017l-0.004-0.026l-0.027-0.027l-0.017,0.001L912.666,427.087z M912.759,427.281v0.025l0.013,0.008l0.019-0.014l-0.001-0.014l-0.01-0.01L912.759,427.281z M912.695,427.479l0.01-0.006l-0.022-0.013l-0.008,0.014L912.695,427.479z M912.723,427.576l0.004-0.016l-0.01-0.012l-0.017,0.008l0.003,0.017L912.723,427.576z M912.627,427.76l0.012-0.01l-0.008-0.017h-0.013l-0.004,0.019L912.627,427.76z M912.716,427.721l0.014,0.002l0.004-0.02l-0.015-0.012l-0.01,0.01L912.716,427.721z M912.549,428.212l0.011,0.004l0.027-0.022l-0.008-0.013l-0.024,0.011L912.549,428.212z M912.857,427.804l0.003-0.027l-0.013-0.009l-0.013,0.008l0.009,0.035L912.857,427.804z M912.831,427.936h0.018l0.002-0.041l-0.011-0.017l-0.016,0.001l-0.008,0.018L912.831,427.936z M912.82,428.026v0.014l0.016,0.009l0.014-0.005v-0.014l-0.011-0.008L912.82,428.026z M912.867,428.115l-0.003,0.011l0.021,0.009l0.009-0.01l-0.014-0.012L912.867,428.115z M912.884,428.174l0.007,0.015l0.026-0.008l0.002-0.016l-0.018-0.002L912.884,428.174z M912.931,428.381l0.01-0.008l-0.005-0.012l-0.016-0.001l-0.006,0.018L912.931,428.381z M912.995,428.26l0.005-0.014l-0.01-0.013l-0.012,0.003l-0.002,0.018L912.995,428.26z M913.075,428.295l0.01-0.013l-0.018-0.009l-0.012,0.012l0.002,0.013L913.075,428.295z M913.159,428.323l0.01-0.012l-0.013-0.011l-0.019,0.002l-0.001,0.013L913.159,428.323z M913.496,428.613v0.015l0.011,0.017l0.019-0.002l0.009-0.021l-0.008-0.022h-0.014L913.496,428.613z M913.466,428.535l0.005,0.029l0.009,0.008l0.01-0.008l-0.011-0.03L913.466,428.535z M913.4,428.465l-0.005,0.005l0.008,0.021l0.011-0.004l-0.002-0.014L913.4,428.465z M913.222,428.333l0.006-0.009l-0.009-0.008h-0.01l0.001,0.015L913.222,428.333z M913.239,428.314h0.013l-0.002-0.014l-0.011-0.005l-0.006,0.009L913.239,428.314z M913.298,428.327l0.039,0.072l0.036,0.026l0.009-0.019l-0.029-0.029l-0.046-0.072l-0.025-0.01l-0.004,0.011L913.298,428.327z M911.946,426.279l0.02,0.003l0.008-0.01l-0.006-0.014l-0.022-0.001l-0.005,0.012L911.946,426.279z M911.373,426.179l0.026,0.003l0.005-0.02l-0.024-0.006l-0.01,0.011l-0.035,0.004l0.011,0.017L911.373,426.179z M911.573,426.154l0.03-0.005l0.009-0.019l-0.033-0.008l-0.026,0.01l-0.004,0.012L911.573,426.154z M911.683,426.188l0.026-0.013l0.003-0.025l-0.03-0.011l-0.025,0.013v0.029L911.683,426.188z M911.947,426.09l0.019,0.001l0.014-0.036l-0.019-0.023l-0.019-0.01l-0.018,0.01l-0.002,0.028L911.947,426.09z M911.471,425.801l0.009-0.009l-0.018-0.011l-0.023,0.007l0.004,0.011L911.471,425.801z M911.406,425.705l0.043-0.022l-0.009-0.011l-0.042,0.017l-0.033-0.004l-0.009,0.014l0.011,0.009L911.406,425.705z M911.532,425.75l0.004-0.019l-0.014-0.01l-0.016,0.006l0.004,0.02L911.532,425.75z M911.74,425.721l0.013-0.001l0.005-0.013l-0.011-0.013l-0.016,0.005l-0.003,0.014L911.74,425.721z M911.548,425.516v0.01l0.01,0.014l0.011-0.003l0.004-0.019l-0.011-0.009L911.548,425.516z M911.496,425.411l0.013,0.009l0.013-0.009l0.003-0.017l-0.01-0.008l-0.013,0.007L911.496,425.411z M911.77,425.929l0.002,0.014l0.019,0.02l0.016-0.004l0.003-0.019l-0.016-0.02L911.77,425.929z M911.855,425.749l0.014-0.001l0.001-0.017l-0.011-0.015l-0.014,0.004l0.001,0.018L911.855,425.749z M912.024,425.894h0.016l0.006-0.024l-0.002-0.032l-0.03-0.027l-0.018,0.005l-0.002,0.028l0.009,0.042L912.024,425.894z M912.077,425.746l0.012-0.014l0.004-0.03l-0.019-0.028l-0.016-0.004l-0.012,0.014l0.001,0.042l0.01,0.02H912.077z M912.178,425.65l0.013,0.002l0.036-0.061v-0.049l-0.011-0.01l-0.027,0.016l-0.002,0.02l0.01,0.021l-0.003,0.031L912.178,425.65z M911.849,425.508l0.014-0.008l-0.01-0.023l-0.013-0.009l-0.008,0.01l0.008,0.024L911.849,425.508z M911.892,425.45l-0.001-0.021l-0.012-0.024l-0.012,0.001v0.025l0.013,0.019H911.892z M911.97,425.432l0.002-0.018l-0.009-0.026l-0.016-0.008l-0.011,0.014l-0.003,0.02l0.021,0.022L911.97,425.432z M912.345,425.463l0.016-0.012l0.052-0.066l0.033-0.072l0.001-0.028l-0.02,0.001l-0.029,0.032l-0.011,0.061l-0.041,0.065L912.345,425.463z M911.976,425.258l-0.004-0.015l-0.014-0.002l-0.007,0.009l0.009,0.014L911.976,425.258z M912.1,425.315l-0.009-0.015h-0.011l-0.003,0.009l0.013,0.012L912.1,425.315z M912.199,425.275l0.006,0.014l0.016,0.009l0.009-0.002l-0.02-0.047l-0.01-0.004L912.199,425.275z M911.681,425.012l0.013,0.009l0.018-0.017l-0.009-0.019l-0.016-0.001L911.681,425.012z M911.722,425.027l0.008,0.022l0.018,0.008l0.003-0.017l-0.019-0.023L911.722,425.027z M911.778,425.041l0.001,0.03l0.014,0.017l0.014-0.005l0.003-0.021l-0.022-0.026L911.778,425.041z M911.965,425.059l-0.007-0.024v-0.023l-0.014,0.005l-0.004,0.018l0.012,0.019L911.965,425.059z M912.161,425.062l0.01,0.019h0.017l0.008-0.018l-0.018-0.014L912.161,425.062z M912.319,425.068v0.029l0.023,0.013h0.023l-0.001-0.016l-0.029-0.026H912.319z M912.367,425.045v0.016l0.013,0.012l0.01-0.004l-0.003-0.019l-0.013-0.012L912.367,425.045z M912.32,425.002v0.021l0.013,0.003l0.004-0.009l-0.007-0.014H912.32z M912.168,424.872l0.014,0.026l0.016-0.005l-0.01-0.04l-0.025-0.014l-0.017,0.008l0.003,0.019L912.168,424.872z M912.241,424.847l-0.004-0.016l-0.017,0.004l0.005,0.017L912.241,424.847z M912.319,424.832l0.007,0.01h0.031l0.018-0.006l0.006-0.017l-0.016,0.003l-0.018,0.009L912.319,424.832z M912.553,424.64l-0.005,0.043h0.014l0.023-0.063l-0.002-0.036l-0.028-0.009l-0.023,0.01l0.002,0.033L912.553,424.64z M912.614,424.751l0.008,0.016l-0.001,0.101l-0.012,0.018l-0.027,0l-0.008,0.023l0.019,0.032l0.035-0.007l0.011-0.048l0.005-0.061l-0.01-0.096l-0.026-0.003l-0.022,0.015l0.005,0.014L912.614,424.751z M911.038,424.174l0.01,0.012l0.016-0.008l0.002-0.021h-0.016L911.038,424.174z M911.289,424.083v0.019l0.008,0.01l0.012-0.01l-0.006-0.017L911.289,424.083z M911.227,424.423l-0.004,0.01l0.016,0.012l0.017-0.002l-0.012-0.021L911.227,424.423z M911.363,424.53l0.019-0.01l-0.01-0.027l-0.033-0.008l0.002,0.019L911.363,424.53z M911.468,424.6l-0.006,0.019l0.016,0.023l0.023-0.008l-0.004-0.023l-0.014-0.016L911.468,424.6z M911.689,424.629l-0.008,0.014l0.005,0.013l0.009-0.001l0.006-0.012L911.689,424.629z M911.538,424.46l-0.006-0.014l-0.014,0.004l0.002,0.017L911.538,424.46z M911.516,424.411V424.4l-0.014-0.004l-0.004,0.016H911.516z M912.506,425.129l-0.021,0.012l0.017,0.027l0.034,0.004l0.04-0.037l-0.006-0.027l-0.029-0.012l-0.019,0.01l0.012,0.019l-0.014,0.014L912.506,425.129z M911.738,424.425l0.021,0.008l0.014-0.017l-0.02-0.039l-0.027-0.029l-0.005,0.012l0.013,0.029L911.738,424.425z M911.707,424.319l0.011-0.007l-0.015-0.019l-0.019-0.011l-0.003,0.01l0.01,0.007L911.707,424.319z M911.646,424.281l0.012-0.014l-0.016-0.016l-0.012,0.009l0.007,0.012L911.646,424.281z M911.587,424.254l0.005-0.01l-0.016-0.019l-0.008,0.009l0.004,0.014L911.587,424.254z M911.481,424.171l0.016-0.002l0.014-0.031l-0.023-0.031l-0.02-0.012l-0.016,0.008l0.027,0.031L911.481,424.171z M911.354,424.056l0.021,0.01l0.015-0.004l0.011-0.012l-0.021-0.006L911.354,424.056z M911.38,424.561l0.011,0.058l0.015,0.012l0.011-0.006v-0.022l-0.026-0.047L911.38,424.561z M912.57,427.178l0.007,0.017l0.017,0.007l0.01-0.014l-0.007-0.021l-0.017-0.002L912.57,427.178z M912.871,427.651l0.007-0.023l-0.016-0.047l-0.003-0.042h-0.012l-0.005,0.05l0.009,0.056L912.871,427.651z M912.874,427.508l0.03-0.045l-0.003-0.038l-0.017-0.019l-0.01,0.012l0.009,0.033l-0.023,0.05L912.874,427.508z M912.269,428.363l0.017-0.007l0.003-0.012h-0.019l-0.016,0.012L912.269,428.363z M912.523,427.831v0.019l0.012,0.009l0.01-0.012l-0.016-0.026L912.523,427.831z M912.673,427.328l0.021-0.012l-0.012-0.01l-0.014,0.003l-0.007,0.012L912.673,427.328z M912.994,429.34l0.003-0.021l-0.014-0.01l-0.014,0.009l0.003,0.024L912.994,429.34z M913.079,429.353h0.021l0.017-0.016l-0.01-0.014l-0.019,0.009L913.079,429.353z M912.688,429.265l0.016-0.003l0.002-0.014l-0.021-0.002l-0.012,0.01L912.688,429.265z M911.374,428.813l0.026-0.029l0.018-0.007l0.003-0.01l-0.024,0.001l-0.026,0.029L911.374,428.813z M911.468,428.686l0.042,0.024l0.001-0.008l-0.03-0.026l0.001-0.037l0.022-0.061l0.04-0.048l-0.001-0.012l-0.01,0.001l-0.048,0.061l-0.018,0.064L911.468,428.686z M912.336,430.895l0.01-0.012l-0.009-0.014l-0.017,0.009l-0.003,0.016L912.336,430.895z M912.268,431.133l0.01,0.012l0.021,0.002l0.003-0.014l-0.019-0.009L912.268,431.133z M912.087,431.513l0.017,0.017l0.023,0.01l0.012-0.01l-0.021-0.019l-0.017-0.005L912.087,431.513z M912.061,431.563l0.033,0.01l0.016-0.005l-0.005-0.016l-0.03-0.01l-0.019,0.007L912.061,431.563z M912.296,431.364l0.03,0.01l0.016-0.01l-0.014-0.021l-0.035-0.005l-0.007,0.014L912.296,431.364z M912.202,431.445l0.024,0.007l0.014-0.009l-0.012-0.017l-0.021,0.002L912.202,431.445z M912.226,431.398l0.016,0.023l0.017,0.003l0.009-0.016l-0.019-0.012L912.226,431.398z M911.255,431.829l0.016,0.014l0.014,0.002v-0.014l-0.016-0.01L911.255,431.829z M913.813,433.104l0.017,0.007l0.014,0.028l0.011,0.006l0.003-0.015l-0.021-0.035l-0.015-0.001L913.813,433.104z M913.925,433.267l0.017,0.015h0.015l-0.008-0.024l-0.017-0.006L913.925,433.267z M913.975,433.39h0.017l0.012-0.014l-0.012-0.006l-0.011,0.008L913.975,433.39z M913.938,433.327l0.008-0.014l-0.01-0.018l-0.012,0.01l0.004,0.018L913.938,433.327z M913.477,449.153l0.014-0.014l0.009-0.017l-0.016-0.002l-0.03,0.021l-0.002,0.017L913.477,449.153z M913.765,448.934l0.016-0.009l0.01-0.024l-0.007-0.012l-0.012,0.007l-0.012,0.024L913.765,448.934z M912.044,448.278l0.003-0.011l-0.007-0.01l-0.01,0.007l0.001,0.012L912.044,448.278z M912.343,448.502l0.007-0.004l-0.007-0.01h-0.012l0.001,0.01L912.343,448.502z M911.651,438.902l0.019-0.014l-0.005-0.011l-0.017,0.004l-0.008,0.015L911.651,438.902z M913.966,433.334l-0.001,0.014l0.006,0.012l0.01-0.011v-0.017L913.966,433.334z M913.779,434.602v0.014l0.014,0.008l0.012-0.008l-0.007-0.014H913.779z M911.541,441.677l-0.003,0.019l0.011,0.006l0.014-0.012l-0.007-0.012H911.541z M913.893,438.763l0.007,0.018l0.011-0.001l0.003-0.018l-0.012-0.008L913.893,438.763z M912.392,448.376l0.007,0.008l0.011-0.003l-0.001-0.014l-0.014-0.003L912.392,448.376z M913.039,448.202l0.003,0.012l0.016-0.002v-0.012l-0.011-0.007L913.039,448.202z M912.555,448.289l0.014,0.006l0.008-0.006l-0.003-0.014h-0.014L912.555,448.289z M912.909,447.958l-0.005,0.012l0.01,0.009l0.016-0.01l-0.003-0.012L912.909,447.958z M912.299,448.311l-0.007,0.01l0.012,0.007l0.014-0.004l0.004-0.011L912.299,448.311z M912.675,443.309l0.012-0.009l-0.014-0.01l-0.024,0.002l0.003,0.014L912.675,443.309z M913.463,448.345l0.01-0.007l-0.009-0.012l-0.021,0.003l0.002,0.014L913.463,448.345z M910.718,435.605l0.008-0.019l-0.015-0.003l-0.022,0.014l0.001,0.014L910.718,435.605z M911.636,440.326v0.01h0.012l0.022-0.011l0.003-0.01l-0.019,0.001L911.636,440.326z M913.513,434.861l0.019,0.026l-0.001,0.017l0.012,0.001l0.002-0.024l-0.019-0.033l-0.014-0.007l-0.007,0.01L913.513,434.861z"/>
</svg>
