<svg xmlns="http://www.w3.org/2000/svg" viewBox="1010.651 425.654 18.179 20.313">
  <path d="M1011.631,426.79l-0.068-0.032l-0.017-0.042l0.007-0.047l0.022-0.005l0.036,0.032l0.028,0.081L1011.631,426.79L1011.631,426.79z M1010.847,427.258l0.03-0.013l0.015-0.025l-0.008-0.012l-0.036,0.005l-0.022,0.035L1010.847,427.258L1010.847,427.258z M1010.931,427.543l0.015-0.015l0.002-0.022l-0.032-0.017l-0.01,0.01l0.01,0.035L1010.931,427.543L1010.931,427.543z M1011.583,427.197l0.075,0.007l0.03,0.033l0.013-0.003l0.003-0.035l0.022-0.028l-0.002-0.023l-0.017-0.008l-0.033,0.018l-0.08,0.002l-0.028,0.01l-0.005,0.015L1011.583,427.197L1011.583,427.197z M1011.385,427.514l0.075,0.002l0.02-0.045l-0.02-0.015l-0.005-0.02l0.013-0.018l-0.002-0.028l-0.055-0.033l-0.052,0.023l-0.023,0.078l0.013,0.045L1011.385,427.514L1011.385,427.514z M1011.038,427.65l0.01-0.038l-0.02-0.022l0.003-0.017l0.02-0.007l0.013-0.03l-0.027-0.038l-0.032-0.002l-0.047,0.07l0.015,0.063l0.033,0.022L1011.038,427.65L1011.038,427.65z M1011.339,427.63l0.025-0.071l-0.008-0.025l-0.022-0.012l-0.02-0.056l0.008-0.063l0.015-0.045l0.035-0.022l0.017-0.023l0.002-0.045l-0.013-0.005l-0.028,0.01l-0.033,0.038l-0.07,0.023l-0.04,0.085v0.028l-0.027,0.038l-0.045,0.017l-0.002,0.033l0.042,0.042l0.033,0.091l0.013,0.01l0.028-0.017l0.015,0.007l0.003,0.03l0.018,0.003L1011.339,427.63L1011.339,427.63z M1010.943,427.333l-0.012-0.002l-0.013,0.007l-0.003,0.012l0.012,0.007l0.015-0.01L1010.943,427.333L1010.943,427.333z M1011.476,427.303l0.013-0.008l-0.004-0.02l-0.015-0.005l-0.007,0.019L1011.476,427.303L1011.476,427.303z M1010.957,427.474l0.01-0.007l-0.008-0.018h-0.013l-0.003,0.012L1010.957,427.474L1010.957,427.474z M1011.04,427.343l0.03-0.037l0.033-0.017l0.052,0.007l0.055-0.028l0.04-0.093l0.055-0.022l0.083-0.002l0.035,0.015l0.007,0.032l0.019,0.042l0.024,0.003l0.011-0.006l-0.005-0.021l0.01-0.017l0.053-0.018l0.012-0.032l0.065-0.02l0.042-0.025l-0.002-0.058l-0.035-0.06l0.002-0.017l0.023-0.007l0.012-0.056l-0.01-0.033l-0.033-0.015l-0.028-0.061l-0.103-0.063l-0.033-0.035l-0.003-0.061l-0.032-0.045l-0.076-0.02l-0.022,0.018l0.002,0.018l0.06,0.015l0.018,0.032l-0.012,0.013l-0.066-0.013l-0.047,0.008l-0.045,0.071l-0.03,0.02l-0.086,0.008l-0.048-0.01l-0.042,0.01l-0.05,0.065l-0.007-0.002l0.012-0.048l-0.005-0.035l-0.027-0.02l-0.135-0.003l-0.051,0.025l-0.03,0.002l-0.045-0.033l-0.028,0.003l-0.008,0.048l0.013,0.051l0.003,0.118l0.033,0.06l0.028,0.008l0.028-0.01l0.14,0.015l0.042,0.033l0.013,0.075l-0.023,0.043v0.042l0.043,0.068l0.008,0.085l0.018,0.01L1011.04,427.343L1011.04,427.343z M1025.637,432.844l0.034-0.029l-0.005-0.035l-0.023-0.013l-0.026,0.019l-0.009,0.043L1025.637,432.844L1025.637,432.844z M1026.409,440.692l0.01-0.026l-0.013-0.027l-0.029,0.001l-0.007,0.02l0.024,0.033L1026.409,440.692L1026.409,440.692z M1024.102,431.242l-0.002,0.026l0.013,0.01l0.021-0.016l-0.002-0.031l-0.018-0.007L1024.102,431.242L1024.102,431.242z M1014.01,435.755l0.001-0.009l-0.016-0.024l-0.011,0.001l0,0.009l0.014,0.018L1014.01,435.755L1014.01,435.755z M1026.223,441.458l0.024,0.006l0.005-0.014l-0.016-0.017l-0.017,0.008L1026.223,441.458L1026.223,441.458z M1021.91,428.486v0.014l0.014,0.008l0.012-0.008l-0.007-0.014H1021.91L1021.91,428.486z M1023.341,429.861l0.011,0.009l0.015-0.005l0.002-0.015l-0.015-0.004L1023.341,429.861L1023.341,429.861z M1023.7,429.757l0.003,0.012l0.016-0.002v-0.012l-0.011-0.007L1023.7,429.757L1023.7,429.757z M1013.939,435.78l0.003,0.012l0.016-0.002v-0.012l-0.011-0.007L1013.939,435.78L1013.939,435.78z M1023.354,429.637l0.014,0.006l0.008-0.006l-0.003-0.014h-0.014L1023.354,429.637L1023.354,429.637z M1023.327,429.753l-0.005,0.031l0.021,0.013l0.034-0.013v-0.023l-0.023-0.013L1023.327,429.753L1023.327,429.753z M1020.612,442.803l-0.023,0.005l-0.007,0.021l0.022,0.025l0.025-0.005l0.002-0.021L1020.612,442.803L1020.612,442.803z M1018.86,441.686l-0.022,0.009l-0.003,0.022l0.026,0.021l0.024-0.009l-0.001-0.021L1018.86,441.686L1018.86,441.686z M1024.029,445.227l0.012,0.016l0.023-0.006l0.014-0.017l-0.008-0.022l-0.024,0L1024.029,445.227L1024.029,445.227z M1027.213,439.86l0.017-0.021l-0.012-0.027l-0.036,0.01l-0.008,0.027l0.018,0.022L1027.213,439.86L1027.213,439.86z M1023.332,429.208l0.012,0.004l0.004-0.014l-0.016-0.014l-0.01,0.01L1023.332,429.208L1023.332,429.208z M1025.6,432.664l-0.008-0.018l-0.021-0.005l0,0.015l0.009,0.015l0.015,0.004L1025.6,432.664L1025.6,432.664z M1025.035,445.967l0.015-0.003l0.001-0.012l-0.011-0.019l-0.014,0.006l0,0.018L1025.035,445.967L1025.035,445.967z M1021.859,428.57l0.007,0.013l0.017-0.001l0.007-0.013l-0.008-0.012l-0.013,0.002L1021.859,428.57L1021.859,428.57z M1026.661,441.466l0.024,0.007l0.007-0.009l-0.008-0.016l-0.02-0.004l-0.007,0.009L1026.661,441.466L1026.661,441.466z M1025.937,440.714l0.014,0.016l0.012-0.004l0.004-0.016l-0.011-0.016l-0.013,0.004L1025.937,440.714L1025.937,440.714z M1021.862,428.512l0.014-0.002l0.004-0.016l-0.012-0.011l-0.016,0.004l-0.001,0.013L1021.862,428.512L1021.862,428.512z M1026.638,441.419l0.014-0.002l0.004-0.016l-0.012-0.011l-0.016,0.004l-0.001,0.013L1026.638,441.419L1026.638,441.419z M1022.746,429.113l-0.024-0.014l-0.013,0.008l0.012,0.025l0.021,0.006l0.015-0.01L1022.746,429.113L1022.746,429.113z M1028.671,441.49l0.026-0.01l0.003-0.015l-0.026-0.007l-0.018,0.012l-0.001,0.018L1028.671,441.49L1028.671,441.49z M1025.985,440.782l0.017,0.012l0.011-0.005l-0.013-0.027l-0.022-0.015l-0.01,0.014L1025.985,440.782L1025.985,440.782z M1014.007,435.041l-0.007-0.019l-0.018-0.002l-0.01,0.021l0.011,0.027l0.019-0.001L1014.007,435.041L1014.007,435.041z M1027.196,442.553l0.012-0.006l0.004-0.012l-0.008-0.01l-0.015,0.007l-0.003,0.011L1027.196,442.553L1027.196,442.553z M1025.142,445.802l0.006-0.022l-0.01-0.008l-0.01,0.012l0.001,0.017L1025.142,445.802L1025.142,445.802z M1012.642,431.229l0.006-0.022l-0.01-0.008l-0.01,0.012l0.001,0.017L1012.642,431.229L1012.642,431.229z M1027.189,439.771l0.004-0.011l-0.01-0.006l-0.01,0.008l0.003,0.011L1027.189,439.771L1027.189,439.771z M1013.984,435.555l0.004-0.011l-0.01-0.006l-0.01,0.008l0.003,0.011L1013.984,435.555L1013.984,435.555z M1025.676,432.885l0.001-0.012l-0.012-0.003l-0.011,0.008l0.008,0.01L1025.676,432.885L1025.676,432.885z M1023.685,429.678l-0.012,0.004v0.015l0.012,0.003l0.004-0.011L1023.685,429.678L1023.685,429.678z M1014.005,435.674l0.014-0.011l-0.001-0.015l-0.018-0.006l-0.012,0.012l0.001,0.014L1014.005,435.674L1014.005,435.674z M1012.128,428.133l0.011-0.019l-0.003-0.014l-0.011,0.004l-0.008,0.015l-0.001,0.018L1012.128,428.133L1012.128,428.133z M1027.996,441.048l0.026,0.051l0.034,0.028l0.024-0.013l-0.006-0.047l-0.037-0.043l-0.028-0.001L1027.996,441.048L1027.996,441.048z M1013.171,430.416l0.016-0.007l0.004-0.013l-0.009-0.013l-0.018,0.004l-0.004,0.016L1013.171,430.416L1013.171,430.416z M1013.149,430.903l0.042-0.027l0.007-0.018l-0.018-0.031l-0.02,0.007l-0.02,0.055L1013.149,430.903L1013.149,430.903z M1013.005,431.093l0.015,0.002l0.06-0.091l0.068-0.219l0.023-0.133l0.014-0.04l0.079-0.084l-0.005-0.032l-0.07-0.023l-0.052-0.063l0.01-0.045l-0.025-0.028l-0.083-0.02l-0.028-0.037l-0.086-0.012l-0.063,0.05l-0.055,0.007l-0.032,0.025l-0.025-0.005l-0.02-0.033l-0.085-0.025l-0.015,0.013l0.022,0.045l-0.01,0.048l0.003,0.043l0.037,0.04l0.005,0.035l-0.017,0.126l0.002,0.048l0.023,0.038l0.02,0.133l-0.01,0.063l-0.037,0.025l-0.027,0.06l0.01,0.048l0.013-0.002l0.023-0.025l0.118-0.007l0.022-0.018h0.023l0.03,0.035h0.027l0.018-0.01l0.033,0.01L1013.005,431.093L1013.005,431.093z M1014.088,435.062l0.031-0.009l-0.004-0.12l-0.033-0.1l-0.044-0.027l-0.031-0.035l-0.027,0.004l-0.009,0.071l0.013,0.075l0.024,0.042l0.044,0.033L1014.088,435.062L1014.088,435.062z M1023.103,429.276l0.066,0.017l0.11-0.126l-0.01-0.03l-0.036-0.017l-0.043,0.033l-0.023-0.023l0.007-0.047l-0.033-0.047l-0.05,0.01l-0.02,0.126L1023.103,429.276L1023.103,429.276z M1022.057,428.748h0.033l0.027-0.05l-0.02-0.053l0.003-0.063l-0.037,0.003l-0.023,0.11L1022.057,428.748L1022.057,428.748z M1022.233,428.791l0.04-0.037l-0.023-0.09l-0.043-0.013l-0.053,0.08l0.007,0.056L1022.233,428.791L1022.233,428.791z M1027.138,442.494l0.002-0.02l-0.064-0.086l-0.049-0.011l-0.004,0.022l0.051,0.04l0.031,0.053L1027.138,442.494L1027.138,442.494z M1027.262,442.184l0.069-0.013l0.02-0.024l-0.018-0.066l-0.111-0.024l-0.051,0.029l0.005,0.044L1027.262,442.184L1027.262,442.184z M1026.803,441.652l0.013-0.013l-0.033-0.06l-0.053-0.049l-0.013,0.009l0.009,0.071l0.022,0.035L1026.803,441.652L1026.803,441.652z M1028.684,441.579l0.06,0.047l0.057,0.011l0.029-0.031v-0.047l-0.073-0.055l-0.047-0.004l-0.029,0.031L1028.684,441.579L1028.684,441.579z M1026.491,440.695l0.024,0.029l0.029-0.007l0.005-0.049l-0.018-0.024l-0.053-0.009l-0.022,0.004l0.002,0.038L1026.491,440.695L1026.491,440.695z M1027.379,440.567l0.08,0.016l0.055-0.024l0.075,0.002l0.035-0.04l0.027-0.133l-0.024-0.042l-0.049-0.024l-0.002-0.033l0.022-0.029l0.004-0.035l-0.051-0.089l-0.027-0.14l-0.044-0.089l-0.062-0.009l-0.035,0.024l-0.004,0.109l0.047,0.091l0.002,0.049l-0.115,0.071l-0.047,0.097l0.016,0.124L1027.379,440.567L1027.379,440.567z M1016.444,439.7l0.036-0.011l0.158-0.158l0.019-0.051l-0.024-0.012l-0.087,0.025l-0.045,0.041l-0.013,0.06l-0.049,0.063l-0.009,0.033L1016.444,439.7L1016.444,439.7z M1016.489,439.504l0.069-0.04l0.116-0.041l0.043-0.045l-0.004-0.034l-0.062-0.038l-0.056,0.009l-0.109,0.115l-0.028,0.047l0.008,0.022L1016.489,439.504L1016.489,439.504z M1016.6,439.872l0.032-0.024l0.012-0.087l-0.011-0.099l-0.019-0.016l-0.053,0.032l-0.02,0.061l0.01,0.099l0.017,0.032L1016.6,439.872L1016.6,439.872z M1016.707,439.808l0.061-0.099l0.035-0.101l0.018-0.023l0.069-0.031l0.032-0.04l0.017-0.175l-0.012-0.062l-0.055-0.019l-0.068,0.032l-0.024,0.09l-0.09,0.171l-0.024,0.076l-0.004,0.128l0.016,0.053L1016.707,439.808L1016.707,439.808z M1024.726,445.758l-0.02-0.04l-0.024,0.002l-0.02,0.058l0.013,0.018l0.044-0.01L1024.726,445.758L1024.726,445.758z M1020.278,427.561l0.003-0.015l-0.004-0.017l-0.01-0.004l-0.005,0.008l0.007,0.026L1020.278,427.561L1020.278,427.561z M1024.83,437.592l0.036,0.001l0.021-0.009l0.002-0.016l-0.02-0.004l-0.055,0.017l-0.049,0.026l0.001,0.008l0.033-0.007L1024.83,437.592z M1023.592,430.833l0.008-0.003l0.006-0.008l-0.001-0.006l-0.011,0.002l-0.007,0.011L1023.592,430.833z M1012.429,426.759l0.044-0.02l0.016-0.059l0.031-0.038l0.015-0.062l0.029-0.031l0.009-0.042l-0.024-0.122l0.002-0.124l0.02-0.035l-0.016-0.04l0.011-0.007l0.06,0.04l0.024-0.015v-0.085l-0.008-0.028l-0.031-0.025l-0.014-0.077l0.014-0.053l0.031-0.014l0.013-0.031l-0.009-0.077l-0.033-0.025v-0.028l0.033-0.02l0.024-0.058l0.062-0.029l0.049,0.016l0.016,0.064l0.037,0.022h0.042l0.042-0.068l0.02,0.002l0.014,0.037l0.028,0.003l0.029-0.031l0.051-0.007l0.013,0.022l-0.013,0.04l0.016,0.049l0.033,0.009l0.026,0.044l0.045,0.011l0.009,0.029l-0.018,0.017l-0.01,0.053l0.025,0.047l-0.01,0.031l-0.057,0.018l-0.002,0.025l0.039,0.014l0.018,0.066l0.017,0.012l0.04,0.005l0.058,0.044l0.021,0.088l0.029,0.017l0.038-0.003l0.081,0.016l0.07,0.052l0.035,0.002l0.048-0.027l0.066-0.003l0.037,0.021l0.04,0.004l0.045-0.022l0.02,0.012l-0.005,0.054l0.025,0.025l0.084,0.043l0.09,0.009l0.043-0.023l0.027,0.004l0.036,0.042l0.09,0.03l0.051,0.043l0.047,0.015l0.061-0.005l0.012,0.013l-0.007,0.025l0.024,0.022l0.051-0.023l0.065-0.014l0.02-0.04l0.036-0.023h0.038l0.022-0.015l0.013-0.035l0.053-0.074l0.029-0.012l0.021,0.013l-0.015,0.057l0.009,0.07l0.033,0.043l0.056,0.013l0.027-0.027l0.025,0.005l0.045,0.049l0.05,0.008l0.026,0.021l0.006,0.07l0.022,0.056l0.002,0.117l-0.011,0.035l0.004,0.038l0.042,0.042l0.026,0.074l0.045,0.035l-0.005,0.027l-0.025,0.01l-0.026,0.038v0.041l0.04,0.072l0.005,0.033l-0.005,0.033l0.028,0.047l0.023,0.001l0.028-0.024l0.009-0.078l0.016-0.002l0.057,0.041l0.018,0.045l0.027,0.013l0.049-0.033l0.039-0.005l0.056,0.012l0.022-0.012l0.001-0.053l0.06-0.041l0.015-0.037l0.025-0.007l0.042,0.017l0.031,0.052l0.075,0.033l0.013,0.025l0.057,0.01l0.068-0.034l0.093-0.005l0.06-0.019l0.068,0.019l0.005,0.024l-0.017,0.04l0.04,0.094l-0.005,0.02l0.005,0.023l0.026,0.015l0.002,0.027l-0.053,0.043l-0.058,0.013l-0.033-0.005l-0.04,0.027v0.033l-0.048,0.038l-0.005,0.029l0.096,0.036l0.061,0.038l0.004,0.029l0.018,0.006l0.042,0.007l0.029,0.03l-0.005,0.028l-0.031,0.015l-0.012,0.05l-0.041,0.055l-0.005,0.043l0.041,0.041l0.004,0.02l-0.025,0.03l-0.002,0.048l0.022,0.019l-0.002,0.018l-0.023,0.02l0.003,0.036l0.051,0.029l0.007,0.033l-0.043,0.065l-0.043,0.005l-0.01,0.019l0.001,0.037l-0.033,0.06l-0.003,0.043l-0.018,0.005l-0.024-0.027l-0.043-0.003l-0.03,0.027h-0.026l-0.043-0.024l-0.039,0.02v0.047l-0.047,0.062l-0.024,0.058l-0.004,0.071l0.018,0.032l-0.006,0.02l-0.033,0.029l-0.006,0.028l-0.054,0.028l-0.002,0.029l0.028,0.069l0.09,0.069l0.015,0.046l0.041,0.051l0.024,0.009l0.071-0.022l0.017,0.012l-0.001,0.044l0.011,0.006h0.023l0.044,0.029l0.004,0.031l0.043,0.035l0.007,0.041l0.085,0.086l0.048,0.189l0.035,0.005l0.011-0.026l0.033-0.009l0.041-0.032l0.004-0.035l0.018-0.018l0.095-0.004l0.06-0.047l0.029-0.056l-0.011-0.032l0.012-0.015h0.055l0.05-0.032l0.034-0.048l0.008-0.025l-0.01-0.024l0.005-0.04l-0.027-0.084l-0.001-0.036l0.025-0.034l0.005-0.058l0.025-0.05l0.045-0.033l0.046-0.005l0.044,0.006l0.023,0.034l0.018,0.001l0.034-0.032l0.023,0.002l0.023,0.018l0.037-0.009l0.017-0.057l0.036-0.027l0.044-0.002l0.016-0.013l0.016-0.054l0.037-0.029l0.003-0.054l0.014-0.007l0.047,0.011l0.069-0.011l0.033,0.015l0.07,0.01l0.035-0.028l0.018,0.001l0.023,0.021l0.032-0.001l0.011-0.037l0.011-0.01l0.029-0.003l0.061-0.066l0.015-0.003l0.022,0.014l0.012-0.009l0.003-0.028l0.049-0.041l0.096-0.011l0.052-0.035l0.03,0.004l0.006,0.044l0.028,0.021l0.048-0.005l0.022,0.015l-0.004,0.042l0.026,0.025l0.008,0.059l0.054,0.025l0.03-0.007l0.021-0.02l0.021,0.005l0.016,0.032l-0.017,0.032l-0.001,0.018l0.016,0.014l-0.002,0.018l-0.015,0.023l0.002,0.098l0.026,0.003l0.01,0.021l-0.005,0.025l0.02,0.046l0.03,0.02l0.024,0.001l0.009,0.011l0.009,0.086l0.034,0.009l0.056-0.038l0.003-0.09l0.011,0.001l0.005,0.022h0.009l0.014-0.012l0.016-0.001l0.016,0.012l0.015-0.006l0.026-0.045l0.041-0.002l0.073,0.053v0.052l0.03,0.032l0.096,0.065l0.02,0.03l0.031,0.006l0.016-0.021l-0.006-0.035l-0.03-0.032v-0.021l0.074-0.107l0.057-0.012l0.032,0.01l0.009-0.006l-0.015-0.023l0.011-0.018l0.041-0.001l0.021-0.024l-0.016-0.044l0.035-0.059l0.04-0.024l0.037,0.01l0.041-0.005l0.041-0.029l0.003-0.031l0.01-0.008l0.023-0.003l0.02-0.038l-0.014-0.032l-0.001-0.034l-0.021-0.034l0.002-0.023l-0.015-0.012l-0.033-0.01l0.001-0.032l0.027-0.042l-0.001-0.059l0.009-0.01l0.023,0.002l0.023-0.029l-0.008-0.052l0.015-0.025l-0.009-0.023l0.023-0.029l0.026-0.005l0.054-0.05l0.003-0.053l0.023-0.036l0.025-0.003l0.032-0.034l0.025-0.001l0.015-0.013l0.002-0.021l0.011-0.007l0.038,0.001l0.011-0.01l0.004-0.029l0.038-0.031l0.024-0.004l0.06-0.036l0.02-0.068l0.023-0.031l0.019-0.006l0.044-0.1l0.016-0.007l0.023-0.046l-0.017-0.031l-0.017-0.011l-0.006-0.033l-0.016-0.01l-0.002-0.017l0.012-0.022l-0.013-0.075l0.014-0.087l0.022,0.002l0.015-0.007l0.009-0.025l0.029-0.001l0.101,0.057l0.053,0.039l0.1,0.017l0.065-0.038l0.093-0.024l0.036,0.01l0.023,0.071l0.004,0.044l0.038,0.041l0.015-0.005l-0.005-0.025l-0.022-0.031l0.005-0.05l0.014-0.03l0.019,0.003l0.034,0.032l0.157,0.073l0.136,0.044l0.064,0.047l0.099,0.153l0.149,0.338l0.01,0.047l0.168,0.35l0.1,0.142l0.177,0.179l0.101,0.039l0.096,0.052l0.102,0.092l0.001,0.026l0.011,0.008l0.029-0.001l0.021,0.015l0.071,0.122l0.2,0.219l0.134,0.107l0.112,0.048l0.114,0.096l0.165,0.159l0.267,0.152l0.055,0.001l0.036-0.015l0.049,0.007l0.104,0.083l0.257,0.266l0.043,0.026l0.13,0.131l0.032,0.008l0.013,0.013l0.004,0.036l0.053,0.103l-0.006,0.038l-0.05,0.052l-0.049,0.005l-0.036,0.044l0.005,0.011l0.042-0.018l0.063-0.011l0.036-0.036l0.036-0.015l0.027,0.007l0.045,0.055l0.038,0.111l0.05,0.082l0.001,0.028l0.076,0.178l0.069,0.076l0.161,0.369l0.169,0.284l0.181,0.352l0.213,0.341l0.029,0.082l0.044,0.078l-0.013,0.019l-0.036,0.007l-0.013,0.031l0.007,0.082l0.073,0.148l0.009,0.113l0.017,0.038l-0.002,0.04l-0.042,0.033v0.055l0.135,0.335l-0.002,0.073l-0.086,0.075l-0.018,0.118l0.042,0.148l0.002,0.084l-0.013,0.042v0.036l0.08,0.161l0.057,0.049l0.007,0.082l-0.051,0.12l-0.022,0.075l-0.064,0.097l-0.031,0.018l-0.023,0.04l0.011,0.124l-0.017,0.026l-0.084,0.023l-0.025,0.033l-0.002,0.088l-0.024,0.054l-0.054,0.028l-0.013,0.04l0.038,0.177l0.002,0.071l0.089,0.177l0.066,0.08l0.005,0.031l-0.023,0.027h-0.031l-0.051-0.031l-0.053,0.015l-0.088,0.129l-0.014,0.079l-0.004,0.14l0.018,0.082l0.006,0.128l-0.022,0.022l-0.049-0.011l-0.042,0.011l-0.028,0.036l-0.04,0.168l0.017,0.12l0.085,0.192l0.203,0.282l0.149,0.163l0.06,0.045v0.02l-0.062,0.022l-0.142,0.08l-0.056-0.009l-0.017,0.015l0.055,0.029l0.098-0.02l0.093-0.042l0.053,0.004l0.013,0.036l-0.018,0.055l-0.06,0.064l-0.037,0.082l-0.06,0.213l-0.013,0.213l0.075,0.389l0.011,0.33l-0.015,0.171l-0.031,0.104l-0.025,0.374l0.031,0.213l0.073,0.203l0.122,0.171l0.126,0.164l0.248,0.226l0.127,0.091l0.026,0.055l0.056,0.018l0.035-0.016l0.051,0.02l0.166,0.097l0.057-0.003l0.034-0.022l0.021-0.035l0.019-0.003l0.021,0.019l-0.001,0.071l0.008,0.033l0.102,0.08l0.094,0.035l0.016,0.023l-0.005,0.042l0.02,0.067l-0.006,0.049l0.061,0.1l-0.001,0.016l-0.034,0.011l-0.024,0.038l-0.002,0.049l0.029,0.037l0.015,0.098l0.023,0.038l0.042,0.023l0.037,0.052l0.012,0.051l0.157,0.18l0.045,0.023l0.064,0.016l0.057,0.091l-0.008,0.057l0.017,0.067l0.069,0.073v0.029l-0.058,0.039l-0.006,0.124l0.084,0.127l0.108,0.11l0.04,0.076l0.049,0.163l0.171,0.224l0.077,0.142l0.062,0.071l0.009,0.058l0.034,0.081l-0.005,0.016l-0.047-0.005l-0.025,0.025l-0.01,0.078l0.045,0.117l0.058,0.059l0.054,0.007l0.038-0.01l0.011,0.009l-0.011,0.023v0.032l0.09,0.132l0.065,0.135l0.002,0.081l0.062,0.086l0.005,0.031l-0.007,0.027l0.016,0.055l0.104,0.125v0.02l-0.014,0.026l0.02,0.057l0.039,0.038l0.003,0.019l-0.016,0.02l0.003,0.041l0.015,0.019l0.002,0.019l-0.016,0.04l0.002,0.061l0.086,0.115l0.003,0.049l-0.043,0.049l0.003,0.05l0.083,0.121l0.01,0.048l-0.011,0.012l-0.034-0.01l-0.026,0.026l-0.004,0.1l0.017,0.055l0.002,0.06l-0.038,0.046l-0.037,0.002l-0.05-0.035l-0.026,0.002l-0.058,0.076l-0.065,0.038l-0.058,0.007l-0.11-0.035l-0.035-0.003l-0.02,0.013l-0.046-0.008l-0.009-0.027l-0.049-0.032l-0.059-0.008l-0.041-0.025l-0.002-0.03l0.073-0.046l0.022-0.06l0.021-0.007l0.022,0.014l0.023-0.005l0.004-0.015l-0.05-0.017l-0.045,0.018l-0.023-0.005l-0.065-0.083l-0.068-0.033l-0.025-0.021l0.005-0.02l-0.01-0.012l-0.033-0.002l-0.032-0.018l0.003-0.028l0.06-0.058l0.002-0.027l-0.013-0.017l0.001-0.028l0.04-0.031l0.115-0.007l0.05-0.043l0.044-0.015l0.067-0.057l0.053-0.006l0.007-0.013l-0.058-0.012l-0.03,0.01l-0.047,0.051l-0.041,0.009l-0.072,0.051h-0.033l-0.018-0.016l-0.043-0.002l-0.049,0.036l-0.04,0.073h-0.013l-0.028-0.097l-0.002-0.112l-0.026-0.071l-0.15-0.145l-0.028-0.054l-0.005-0.055l-0.022-0.017l-0.008,0.013l0.012,0.047l-0.027,0.055l0.025,0.096l0.135,0.126l0.026,0.067l-0.001,0.054l-0.027,0.117l0.018,0.053l-0.003,0.068l-0.056,0.082l-0.05,0.014l-0.022,0.017l-0.072,0.001l-0.045-0.017l-0.038-0.005l-0.051,0.007l-0.088-0.014l-0.078-0.065l-0.005-0.038l-0.013-0.02l-0.105-0.038l-0.118-0.027l-0.051,0.005l-0.108,0.101l-0.07,0.005l-0.091-0.035l-0.03-0.001l-0.142,0.083l-0.089,0.116l-0.015,0.065l-0.03,0.064l-0.075,0.076l-0.07,0.038l-0.014,0.034l-0.026,0.017l-0.039-0.007l-0.01-0.038l-0.035-0.011l-0.028,0.015v0.038l-0.016,0.002l-0.048-0.137l0.004-0.067l-0.013-0.071l-0.015-0.004l-0.017,0.083l0.006,0.073l0.034,0.099l-0.001,0.033l-0.075,0.044l-0.038,0.058v0.066l-0.018,0.055h-0.022l-0.108-0.117l-0.08-0.06l-0.04-0.053l-0.018-0.075l-0.055-0.109l-0.029-0.15l-0.102-0.211l-0.053-0.152l-0.126-0.129l-0.233-0.126l-0.223-0.082l-0.257-0.135l-0.151-0.137l-0.292-0.169l-0.166-0.055l-0.142-0.005l-0.153-0.101l-0.049-0.06v-0.029l0.029-0.02l0.005-0.055l-0.02-0.016l-0.036,0.011l-0.146-0.102l-0.199-0.075l-0.197-0.002l-0.069,0.04l-0.049-0.002l-0.068-0.042l-0.126-0.2l-0.109-0.139l-0.281-0.251l-0.014-0.104l-0.11-0.108l-0.133-0.075l-0.14-0.025l-0.084-0.057l-0.086-0.031l-0.102-0.007l-0.109-0.062l-0.086-0.024l-0.088-0.06l-0.171-0.036l-0.046,0.016l-0.058-0.013l-0.044-0.065l-0.096-0.066l-0.055-0.002l-0.055-0.027l-0.129-0.164l-0.06-0.015l-0.079-0.087l-0.022-0.082l-0.045-0.068l-0.166-0.102l-0.084-0.002l-0.071-0.056l-0.013-0.059l-0.124-0.078l-0.082-0.018l-0.186,0.02l-0.027-0.017v-0.036l-0.037-0.102l0.002-0.071l-0.122-0.141l-0.051-0.02l-0.033-0.049l0.009-0.151l-0.106-0.09l-0.076-0.009l-0.06,0.044l-0.108-0.02l-0.111-0.075l-0.246-0.073l-0.086-0.051l-0.272-0.091l-0.168-0.105l-0.101-0.229l-0.133-0.158l-0.099-0.005l-0.143-0.084l-0.093-0.01l-0.067-0.038l-0.01-0.103l-0.043-0.064l0.002-0.041l0.076-0.169l0.105-0.137l0.095-0.035l0.036-0.058l-0.002-0.157l-0.061-0.168l-0.088-0.058l-0.035-0.063l-0.009-0.327l-0.041-0.163l-0.122-0.174l-0.027-0.018l-0.067-0.079l-0.012-0.035l-0.015-0.007l-0.03,0.009l-0.066-0.018l-0.075-0.099l-0.02-0.081l-0.074-0.059l-0.031-0.054l-0.13-0.155l-0.109-0.207l-0.02-0.086l-0.095-0.202l-0.096-0.124l-0.172-0.142l-0.107-0.006l-0.053-0.042l-0.06-0.155l-0.101-0.116l-0.098-0.064l-0.08-0.017l-0.075-0.005l-0.057-0.055l-0.003-0.062l0.029-0.129l0.027-0.019l0.082,0.001l0.036-0.011h0.129l0.183-0.064l0.011,0.006l0.004,0.011l0.006-0.002l0.002-0.018l-0.02-0.015l-0.032,0.002l-0.117,0.04l-0.057,0.004l-0.106-0.001l-0.062,0.019h-0.055l-0.062-0.019l-0.062,0.009l-0.051,0.042l-0.091-0.018l-0.135-0.08l-0.051-0.141l-0.004-0.282l0.049-0.066l0.057-0.002l0.111,0.051l0.131-0.003l0.104-0.09l0.033-0.062l0.046-0.016l0.023,0.018l0.007,0.077l-0.007,0.102l0.027,0.067l0.032,0.027l0.048,0.005l0.021-0.01l0.019,0.003l0.014,0.019l0.032,0.007l0.057-0.008l0.032-0.031l0.002-0.011l-0.051,0.027l-0.039,0.004l-0.016-0.019l-0.049-0.019l-0.051,0.003l-0.023-0.004l-0.021-0.045l0.005-0.054l0.02-0.06l-0.004-0.076l-0.04-0.048l-0.049-0.018l-0.099,0.024l-0.069,0.097l-0.062,0.046l-0.03,0.004l-0.036-0.017v-0.089l0.02-0.047l-0.005-0.093l-0.049-0.111l-0.086-0.056l-0.027-0.031l-0.022-0.066l-0.088-0.075l-0.104-0.038l-0.036,0.013l-0.006,0.038l-0.047,0.007l-0.077-0.034l-0.06-0.093l0.009-0.079l-0.009-0.038l-0.042-0.04l-0.002-0.026l0.026-0.009l0.071,0.031l0.1-0.027l0.046-0.066l0.02-0.007l0.035,0.009l0.007-0.016l-0.026-0.055l0.002-0.046l0.033-0.069l-0.033-0.049l-0.011,0.014l0.009,0.039l-0.009,0.031l-0.034,0.034l-0.004,0.042l0.009,0.024l-0.018,0.031l-0.075,0.06l-0.095-0.009l-0.062-0.035l-0.027-0.127l-0.035-0.055l-0.047-0.027l-0.007-0.037l0.102-0.195l0.003-0.073l-0.025-0.089l0.018-0.02l0.046,0.014l0.031-0.027l0.038-0.1l0.009-0.201l0.044-0.093l0.053-0.031l0.051-0.073l0.007-0.038l-0.011-0.08l-0.018-0.004l-0.011,0.042l0.007,0.038l-0.029,0.035l-0.073,0.029l-0.078-0.009l-0.051-0.038l-0.013-0.064l0.013-0.122l0.069-0.099l0.08-0.027l0.026-0.044l0.062-0.038l-0.006-0.02l-0.025-0.004l-0.031,0.024l-0.044-0.006l-0.084,0.031l-0.038-0.009l-0.037-0.093l-0.031-0.155l0.009-0.056l0.017-0.031l0.029-0.006l0.033,0.013l0.033-0.024l0.014-0.056l0.042-0.018l-0.005-0.017l-0.044-0.014l-0.035,0.012l-0.007,0.033l-0.038,0.002l-0.039-0.016l-0.04,0.009l-0.031-0.022l-0.047-0.159l0.018-0.058l0.058-0.031l0.002-0.013l-0.045-0.005l-0.028-0.019l0.004-0.04l-0.033-0.014l-0.047,0.018l-0.015,0.042l-0.029,0.018l-0.091-0.005l-0.022-0.019l-0.029-0.111l0.04-0.051l0.04-0.002l0.004-0.016l-0.093-0.046l-0.042,0.004l-0.046,0.04l-0.027-0.002l-0.068-0.071l-0.02-0.098l0.004-0.09l-0.015-0.036l-0.043-0.004l-0.026-0.031l-0.024-0.115l-0.074-0.175l-0.037-0.031v-0.04l0.082-0.064l0.024-0.06l0.091-0.105l0.023-0.055l0.003-0.108l0.015-0.037l-0.001-0.065l-0.053-0.124l0.001-0.035l0.047-0.035l-0.002-0.015l-0.025-0.016l-0.051-0.107l-0.002-0.026l0.015-0.019l-0.003-0.029l-0.112-0.097l-0.006-0.035l0.008-0.046l-0.01-0.007l-0.02,0.015l-0.018-0.008l-0.002-0.043l0.007-0.057l0.036-0.075l0.017-0.137l-0.007-0.112l-0.053-0.161l-0.048-0.076l-0.028-0.01l-0.015-0.027l-0.002-0.061l0.014-0.087l-0.014-0.132l-0.018-0.032l0.003-0.023l0.029-0.022l0.036-0.001l0.105,0.041l0.021,0.028l0.073,0.063h0.037l0.002-0.01l-0.032-0.016l-0.108-0.13l-0.06-0.025l-0.033-0.046l-0.002-0.055l0.034-0.076l0.01-0.115l0.023-0.106l-0.009-0.15l-0.042-0.199v-0.164l-0.038-0.193l-0.071-0.241l-0.146-0.17l-0.033-0.087l-0.002-0.064l-0.06-0.177l-0.089-0.142l-0.088-0.082l-0.062-0.031l-0.1-0.135l-0.066-0.153l-0.062-0.219l-0.06-0.151L1012.429,426.759z"/>
</svg>
