<svg xmlns="http://www.w3.org/2000/svg" viewBox="684.680 514.046 50.316 46.858">
  <path d="M697.569,553.082l0.013,0.032l0.019,0.025l0.008,0.02l-0.001,0.015l-0.018,0.005l-0.009-0.023l-0.018-0.019l-0.006-0.018l0.003-0.037L697.569,553.082z M702.257,559.532l0.011-0.135l0.044-0.056l0.055-0.024l0.052-0.054l0.078-0.01l0.083-0.017l0.11-0.013l0.102-0.059l0.044-0.051l0.026-0.095l0.157-0.1l0.089-0.021l0.028,0.021l0.011,0.072l0.036,0.028l0.079-0.005l0.044-0.041l0.034-0.09l0.06-0.036l0.042-0.059l-0.006-0.072l-0.028-0.082l0.013-0.049l0.141-0.12v-0.026l-0.076-0.064l-0.031-0.077l-0.084-0.077l-0.016-0.072l0.027-0.098l0.067-0.012l0.079,0.064l0.06,0.007l0.036-0.03l0.006-0.1l-0.027-0.034l-0.054-0.026l-0.003-0.033l0.016-0.026l0.13,0.003l0.039-0.018v-0.041l-0.081-0.069l-0.02-0.044l0.018-0.031h0.057l0.055,0.034l0.016,0.028l0.028,0.002l0.053-0.038l0.002-0.036l-0.015-0.059l0.01-0.033l0.01-0.093l-0.033-0.064l0.007-0.038l0.066-0.075l0.114-0.005l0.034,0.021l0.05-0.003l0.07-0.064l0.032,0.002l0.044,0.052h0.039l0.079-0.085l0.101-0.018l0.097-0.056h0.023l0.152,0.146l0.036,0.085l0.105,0.041l0.065,0.005l0.036,0.031l0.008,0.125l-0.047,0.177l0.006,0.095l0.026,0.057l0.096,0.108l0.06,0.01l0.063-0.046l0.042-0.005l0.047,0.02h0.028l0.097-0.069l0.065,0.002l0.024,0.026l0.047,0.018l0.047,0.064l0.018,0.09l0.015,0.018l0.027,0.008l0.036,0.041v0.038l-0.023,0.057l0.018,0.048l0.091,0.124l0.026,0.069l-0.01,0.092l-0.052,0.111l-0.047,0.038h-0.102l-0.047,0.021l-0.024,0.062l-0.007,0.087l0.023,0.075l0.092,0.044l0.045,0.087l0.004,0.148l0.029,0.025h0.024l0.057-0.029l0.043,0.004l0.045,0.033v0.025l-0.026,0.067v0.033l0.022,0.019v0.033l-0.024,0.052v0.032l0.012,0.029l-0.006,0.037l-0.047,0.079l0.002,0.121l-0.012,0.04l0.038,0.035l0.029,0.002l0.127-0.081l0.049-0.002l0.045-0.031l0.045-0.001l0.149,0.025l0.023-0.002l0.063-0.058l0.096,0.013l0.051,0.048l0.014,0.079l0.019,0.025l-0.002,0.095l0.039,0.071l0.106,0.027l0.09-0.014l0.086-0.092h0.041l0.051,0.044l0.036,0.002l0.046-0.067l0.02-0.004l0.119,0.067l0.143-0.002l0.047,0.016l0.198,0.011l0.059,0.033h0.021l0.028-0.027l0.023,0.002l0.045,0.079l0.037,0.012l0.057-0.014l0.035,0.012l0.051,0.065l0.045,0.017l0.069,0.072l0.012,0.05l0.043,0.038l0.029,0.054l0.045,0.052l0.037,0.002l0.077-0.023l0.047,0.009l0.123,0.085l0.039,0.004l0.041-0.013l0.102,0.038l0.039,0.054l0.039-0.002l0.082-0.079l0.045-0.002l0.055,0.016l0.028,0.002l0.054-0.072h0.034l0.101,0.02l0.186-0.01l0.061,0.038l0.147,0.01l0.055,0.019h0.033l0.127-0.056l0.077,0.004l0.041,0.012l0.072-0.004l0.082-0.085l0.077-0.03l0.205-0.031l0.073-0.045h0.033l0.106,0.014l0.131-0.015l0.053-0.035h0.039l0.143,0.036l0.125,0.008l0.135,0.033l0.111,0.004l0.016,0.009h0.022l0.019-0.015l0.022,0.002l0.057,0.029l0.107,0.006l0.088,0.038l0.059,0.002l0.041,0.038l0.004,0.029l0.059,0.077l0.006,0.054l0.023,0.033l0.078,0.006l0.055,0.023l0.09,0.083l0.143,0.052l0.028,0.001l0.074-0.03h0.082l0.118-0.043l0.131-0.129l0.01-0.03l0.056-0.037l0.128,0.019l0.025-0.002l0.049-0.061l-0.014-0.056l-0.035-0.029l-0.067-0.008l-0.09-0.158l-0.009-0.067l0.025-0.104l0.092-0.158l0.064-0.052l0.047,0.002l0.147,0.025h0.049l0.088-0.033h0.033l0.029,0.014l0.028-0.002l0.09-0.064l0.06-0.011l0.079-0.049l0.088-0.105l0.034-0.173l0.018-0.052l0.005-0.086l0.063-0.061l0.063-0.023l0.05-0.162l0.052-0.055h0.065l0.071-0.045l0.063-0.023l0.052,0.005l0.104,0.068h0.026l0.016-0.036l0.081-0.021l0.105-0.108l0.049-0.015l0.079,0.005l0.06,0.052l0.058,0.005l0.054,0.021l0.042-0.002l0.053-0.039l0.041-0.074l0.008-0.047l0.026-0.036l0.055-0.011l0.053-0.052l0.044-0.008l0.068,0.018h0.031l0.194-0.07l0.099,0.005v-14.495v-10.688h3.764v-14.305h1.705l6.155-1.218h0.667l0.005,0.012h0.013l0.012-0.013l0.021,0.001l0.001,0.016l-0.012,0.013v0.018l0.038,0.027l-0.001,0.024l-0.026,0.031l0.025,0.02l0.037-0.004l0.02,0.027l-0.022,0.032l-0.002,0.082l0.041,0.041h0.03l0.041,0.063l0.002,0.041l0.063,0.069l0.037,0.007l0.014,0.024l-0.004,0.057l0.015,0.029l0.063,0.037l0.006,0.046l-0.033,0.072l0.008,0.018l0.029-0.014h0.02l0.023,0.033l0.014-0.005l-0.002-0.022l0.021-0.004l0.032,0.024l0.033,0.002l0.024,0.027l-0.012,0.029l0.023,0.03h0.028l0.037,0.027h0.096l0.014,0.016l0.004,0.033l0.019,0.039l0.049,0.016l0.022,0.035l-0.002,0.034l0.029,0.029v0.026l-0.017,0.031l0.012,0.031l0.021,0.012l0.006,0.03l0.035,0.025l0.022-0.002l0.012,0.012l-0.016,0.033l0.002,0.041l0.029,0.032v0.025l-0.033,0.016l-0.01,0.041l0.041,0.028l0.008,0.074l-0.031,0.065v0.031l0.027,0.045l0.034,0.012l-0.002,0.051l-0.014,0.029l0.01,0.026l0.082,0.055l0.033,0.004l0.032,0.015l0.037-0.002l0.09-0.076l0.053-0.016l0.059-0.088l0.026-0.02l0.007-0.051l0.022-0.009l0.055-0.002l0.023,0.013l0.038-0.002l0.031-0.029l0.035-0.01l0.047-0.074l0.043-0.008l0.048-0.057l0.041-0.012l0.037-0.037l0.002-0.045l0.025-0.037l0.008-0.055l0.039-0.032h0.055l0.059-0.051l0.012-0.043l0.047-0.029l0.024-0.061l0.062-0.057l0.11-0.025l0.061-0.049l0.002-0.051l-0.045-0.036v-0.025l0.041-0.059l0.041-0.012l0.053-0.041l0.079-0.014l0.05-0.064l0.049-0.024l0.04-0.057l0.064-0.035l0.067-0.016l0.029-0.045l-0.025-0.039l0.016-0.012l0.037,0.02h0.059l0.023,0.016l0.038-0.006l0.119-0.126l0.039-0.012l0.034-0.037l0.011-0.031l0.038-0.055l0.031-0.006l0.006-0.018l-0.018-0.021l0.006-0.014l0.041,0.012l0.024-0.024l0.02-0.043l0.06-0.016l0.098,0.038l0.032-0.008l0.015-0.022l0.069-0.019l0.049,0.017l0.014,0.049l0.027,0.026l0.014-0.002l0.004-0.035l0.025-0.036l0.004-0.043l0.051-0.035l0.045-0.006l0.069-0.09l0.006-0.024l0.014-0.015l0.025-0.006l0.039-0.043h0.061l0.022,0.035l0.019,0.002l0.018-0.03l0.021,0.002l0.014,0.022l0.018,0.002l0.017-0.016l0.026,0.004l0.053,0.059l0.018,0.002l0.013-0.025l0.018,0.001l0.006,0.048l-0.002,0.039l0.037,0.035v0.029l0.014,0.02h0.031l0.024,0.033l-0.012,0.065l0.027,0.033l0.024,0.004l0.012,0.014l-0.004,0.028l0.025,0.039l0.016-0.004l-0.006-0.026l0.014-0.004l0.021,0.02l0.012-0.004l0.002-0.027l0.022-0.004l0.033,0.053l0.049,0.011l0.02-0.013h0.023l0.026,0.017l0.027-0.008l0.028-0.049l0.047-0.023l0.062-0.11v-0.063l0.02-0.033l0.024-0.002l0.013-0.012l0.004-0.031l0.018-0.024l0.037-0.005l0.059-0.055l0.018-0.036l0.027-0.023l0.067-0.022l0.033-0.002l0.027-0.021l0.004-0.034l0.057-0.049l0.008-0.049l0.043-0.053l0.024-0.002l0.023,0.038l0.034-0.004l0.045-0.043l0.013-0.03l0.061-0.021l0.037,0.006l0.065-0.057l0.012-0.034l0.029-0.009l0.1,0.015l0.104-0.076l0.057-0.004l0.028-0.024l0.007-0.043l0.061-0.01l0.012,0.03l0.024-0.002l0.056-0.063l0.014-0.027l0.037-0.026l0.053,0.008l0.016,0.02l-0.022,0.025l-0.047,0.008l0.006,0.025l0.049,0.006l0.004,0.022l-0.021,0.021l0.007,0.024l0.051-0.002l0.026-0.035l0.039-0.004l0.018,0.025l-0.034,0.018v0.029l0.036,0.01l0.047-0.029l0.068-0.081l0.047-0.009l0.028,0.021l-0.004,0.049l-0.047,0.012v0.025l0.045,0.018l0.073-0.002l0.054-0.033l0.079-0.022l0.035-0.076l0.02-0.006l0.042,0.02l0.014-0.013l0.004-0.044l0.039-0.049l0.071-0.002l0.149,0.049l0.047,0.004l0.021-0.01l0.034,0.004l0.042,0.011l0.027-0.013l-0.107-0.069l-0.043-0.016l-0.097,0.006l-0.037-0.015l-0.077-0.083l-0.036-0.006l-0.002-0.021l0.017-0.032l0.001-0.035l-0.041-0.056l-0.027-0.003l-0.021,0.023l-0.012-0.002l0.003-0.046l-0.013-0.018l-0.038,0.001l-0.07,0.06l-0.028-0.005l-0.003-0.02l0.046-0.077l-0.002-0.053l-0.009-0.015l-0.027-0.002l-0.037-0.012l-0.006-0.047l-0.011-0.03l-0.053-0.035l-0.006-0.05l-0.012-0.015l-0.021,0.004l-0.016,0.054l-0.021,0.005l-0.013-0.01l-0.002-0.037l0.021-0.039l0.004-0.037l-0.019-0.037l-0.043-0.01l-0.019-0.012l-0.013,0.005v0.02l-0.029,0.024l-0.049-0.001l-0.035-0.031l-0.023-0.091l-0.027-0.034l-0.024-0.002l-0.059,0.045l-0.042,0.006l-0.02-0.009l-0.002-0.025l0.013-0.022v-0.016l-0.017-0.006l-0.094,0.027l-0.034-0.003l-0.094-0.099l-0.029-0.006l-0.035,0.014l-0.041-0.001l-0.061-0.028l-0.051,0.004l-0.083,0.051l-0.036-0.009l-0.037-0.092l-0.032-0.004l-0.035,0.027l-0.032-0.001l-0.125-0.068l-0.055-0.003l-0.035,0.013h-0.052l-0.058-0.019l-0.057-0.002l-0.051,0.008l-0.011,0.021l0.018,0.029l-0.005,0.011l-0.048,0.002l-0.022,0.01l-0.015,0.046l-0.029,0.02l-0.104,0.002l-0.048,0.017l-0.04-0.004l-0.022-0.021l-0.014-0.066l-0.02-0.023l-0.031-0.001l-0.047,0.025h-0.029l-0.208-0.131l-0.039-0.002l-0.216-0.04l-0.029,0.001l-0.18,0.077l-0.059,0.001l-0.078-0.021l-0.072-0.002l-0.034,0.021l-0.029-0.001l-0.04-0.049h-0.014l-3.075,0.618l-7.37,1.481l-0.016-0.029l-0.078-0.034l-0.042-0.001l-0.034,0.012l-0.031-0.02l0.007-0.043l-0.035-0.039l-0.033-0.005l-0.098,0.018l-0.032-0.007l-0.04-0.034l-0.155-0.044l-0.092-0.041l-0.094-0.1l-0.045-0.003l-0.04,0.022l-0.082,0.003l-0.041-0.02h-0.028l-0.019,0.017l-0.126,0.003l-0.05,0.048l-0.069,0.005l-0.054-0.02l-0.027-0.002l-0.025,0.033l-0.064,0.003l-0.02,0.013h-0.027l-0.024-0.013l-0.033,0.001l-0.043,0.04l-0.024,0.002l-0.045-0.019l-0.039,0.002l-0.147,0.066l-0.084,0.068l-0.029,0.002l-0.011-0.019l-0.018,0.002l-0.013,0.028l-0.065,0.004l-0.021,0.016v0.025l-0.027,0.019v0.016l0.031,0.018v0.021l-0.062,0.009l-0.046,0.028l-0.053,0.003l-0.077-0.013l-0.059-0.045l-0.032-0.003l-0.06-0.028l-0.022-0.003l-0.02,0.013l-0.017-0.002l-0.001-0.062l-0.026-0.004l-0.069,0.042h-0.02l-0.012-0.021h-0.018l-0.01,0.011l-0.044-0.003l-0.051-0.031l-0.001-0.019l-0.029-0.03l-0.096-0.035l-0.071-0.001l-0.027-0.015l-0.02,0.003l-0.005,0.022h-0.016l-0.033-0.023l-0.048,0.007l-0.017,0.033l-0.013-0.001l-0.007-0.025l-0.019-0.005l-0.06,0.025l-0.062-0.004l-0.014-0.019l-0.095-0.043l-0.04-0.056l-0.017-0.004l-0.008,0.008l-0.015-0.001l-0.024-0.015l-0.017,0.005l-0.032-0.011l-0.024-0.04l-0.014-0.064l-0.066-0.047l-0.094-0.001l-0.057-0.033l-0.042-0.005l-0.02-0.014l-0.031-0.002l-0.017,0.011l-0.03-0.004l-0.071-0.069l-0.083-0.055l-0.061,0.001l-0.041,0.041l-0.029,0.002l-0.056-0.032l-0.049,0.011l-0.048,0.076l-0.026,0.003l-0.036-0.03l-0.022,0.001l-0.015,0.014l-0.032,0.003l-0.14-0.035l-0.021,0.005l-0.036,0.05l-0.054,0.009l-0.104,0.057l-0.061-0.005l-0.035-0.044l-0.038-0.017l-0.059-0.002l-0.027-0.017l-0.021,0.002l-0.073,0.064h-0.038l-0.095-0.071l-0.029-0.003l-0.03,0.013l-0.05-0.002l-0.072-0.06l-0.09-0.039l-0.055,0.003l-0.039,0.04l-0.085,0.03h-0.101l-0.097-0.047l-0.069-0.004l-0.065,0.03l-0.107,0.123l-0.036,0.009l-0.041-0.02l-0.042-0.082l-0.039-0.035l-0.044-0.006l-0.006,0.015l0.018,0.014l-0.005,0.012l-0.033-0.004l-0.04-0.077l-0.066-0.05l-0.151,0.005l-0.028,0.047l-0.017,0.003l-0.013-0.013l-0.019,0.003l-0.012,0.018l-0.069-0.008l-0.028-0.02l-0.014,0.006l-0.003,0.025l-0.038,0.03l-0.1,0.002l-0.097-0.043l-0.026,0.001l-0.015,0.024l-0.021,0.001l-0.027-0.018h-0.086l-0.033-0.017h-0.055l-0.038,0.023l-0.038,0.003l-0.119-0.025l-0.072-0.052l-0.054,0.005l-0.018,0.022l-0.069,0.002l-0.035-0.01l0.004-0.022l0.031-0.006l0.008-0.019l-0.043-0.028l-0.031,0.01l-0.03,0.004l-0.01-0.023l-0.021-0.002l-0.014,0.023h-0.024l-0.052-0.059l-0.03-0.004l-0.016,0.01l-0.039-0.002l-0.041-0.027l-0.031,0.004l-0.006,0.027l-0.039,0.014l-0.114-0.031l-0.059-0.044h-0.023l-0.018,0.028l-0.024,0.002l-0.047-0.028l-0.049-0.002l-0.045,0.038l-0.002,0.043l-0.033,0.025h-0.292l-0.112-0.037l-0.047-0.002l-0.033,0.012l-0.077-0.01l-0.035-0.027l-0.028-0.002l-0.049,0.017l-0.113-0.01l-0.075-0.064l-0.025-0.004l-0.026,0.012l-0.025-0.004l-0.069-0.053l-0.006-0.043l-0.027-0.022l-0.114-0.006l-0.047-0.014l-0.049-0.098l-0.033-0.017l-0.069,0.012l-0.039-0.02l-0.016-0.051l-0.212-0.159l-0.166-0.153l-0.067-0.025l-0.016-0.03l0.018-0.027l-0.004-0.067l-0.041-0.012l-0.02-0.039l-0.029-0.012l-0.098-0.002l-0.024-0.015l-0.004-0.036l-0.059-0.053l-0.033-0.058l0.01-0.051l-0.012-0.022l-0.029-0.012l-0.028-0.019l-0.002-0.034l-0.019-0.021l-0.028-0.004l-0.019-0.016l-0.002-0.021l-0.028-0.014l-0.045-0.004l-0.018-0.012v-0.096l-0.011-0.029l-0.038-0.014l-0.017-0.02l-0.018-0.06l-0.13-0.132h-15.734l-0.01,0.057l-0.041,0.029l-0.051-0.001l-0.115,0.023l-0.064,0.054l-0.081,0.001l-0.027-0.021l-0.028-0.003l-0.031,0.05l-0.029,0.001l-0.15-0.04l-0.02-0.026l-0.018-0.002l-0.016,0.011l-0.021-0.001l-0.053-0.027l-0.028-0.001l-0.052,0.066l-0.038,0.001l-0.029-0.017l-0.029-0.003l-0.035,0.017l-0.033-0.004l-0.086-0.055l-0.005-0.027l0.012-0.021l0.001-0.022l-0.05-0.042l-0.004-0.035l-0.013-0.012l-0.026-0.004l-0.015-0.012l-0.002-0.031l-0.012-0.014l-0.035-0.006l-0.051-0.046l-0.063-0.019l-0.082-0.051l-0.042-0.007l-0.073-0.055l-0.039-0.011l-0.182-0.14l-0.084-0.022l-0.058-0.057l-0.033-0.017l-0.067-0.014l-0.089-0.067l-0.034-0.051l-0.022-0.018l-0.066-0.031l-0.261-0.195l-0.109-0.039l-0.03-0.029l-0.002-0.025l0.026-0.006l0.015-0.032l0.005-0.09l-0.082-0.088l-0.068-0.145l-0.043-0.04l-0.01-0.024l-0.024-0.013l-0.051-0.005l-0.091-0.039l-0.065-0.004l-0.033-0.009l-0.04-0.04l-0.084-0.031l-0.035-0.003l-0.043,0.028l-0.179,0.043l-0.034,0.022l-0.037,0.002l-0.022-0.019l-0.022,0.002l-0.027,0.024l-0.03-0.007l-0.007-0.038l-0.031-0.026l-0.03-0.003l-0.044,0.017l-0.033-0.001l-0.013-0.019l0.002-0.034l-0.04-0.015l-0.022,0.009h-0.02l-0.019-0.03l-0.025-0.005l-0.129,0.011l-0.111,0.047l-0.041,0.002l-0.072-0.023l-0.027-0.001l-0.04,0.029h-0.043l-0.019-0.013h-0.019l-0.036,0.018l-0.119,0.003l-0.035,0.027l-0.028,0.002l-0.017,0.019v0.045l-0.012,0.015l-0.045-0.005l-0.012,0.012l0.006,0.019l-0.01,0.012h-0.077l-0.034,0.009l-0.083,0.081l-0.045,0.008l-0.021,0.015l0.004,0.043l-0.012,0.021l-0.086,0.035l-0.036,0.036l-0.055,0.006l-0.04,0.056l-0.011,0.046l-0.019,0.019l-0.075,0.019l-0.085,0.073l-0.065,0.014l-0.042,0.043l-0.053,0.02l-0.01,0.029l-0.013,0.008l-0.027-0.012l-0.029,0.001l-0.033,0.024l-0.02,0.002l-0.019-0.015l-0.013,0.001l-0.022,0.036l-0.025,0.007l-0.051,0.055l-0.039,0.005l-0.025,0.026l-0.048,0.009l-0.024,0.027l-0.009,0.051l-0.035,0.023l-0.047-0.023l-0.026,0.002l-0.032,0.046l-0.022,0.006l-0.037-0.014l-0.018,0.005l-0.009,0.024l-0.016,0.002l-0.017-0.019l-0.017,0.001l-0.022,0.024l-0.107-0.002l-0.051-0.027l-0.016,0.006l-0.001,0.028l-0.012,0.01l-0.077,0.007l-0.005,0.022l-0.017,0.012l-0.026-0.007l-0.006-0.017l0.01-0.014v-0.021l-0.02-0.025l-0.003-0.021l0.015-0.032l-0.003-0.021l-0.035-0.051l-0.016-0.002l-0.009,0.012h-0.018l-0.015-0.018l-0.04-0.001l-0.02,0.01l0.001,0.026l-0.013,0.018l-0.036,0.003l-0.038,0.038l-0.017,0.001l-0.043-0.043l-0.029-0.002l-0.052,0.034l-0.055-0.002l-0.036,0.02l-0.04,0.001l-0.035,0.025l-0.023,0.001l-0.041-0.026l-0.029-0.002l-0.051,0.022l-0.045-0.009l-0.013-0.033l-0.021-0.022l-0.045-0.015l-0.032-0.019l-0.022-0.045l-0.02-0.015l-0.028-0.002l-0.02-0.021l-0.001-0.044l-0.063-0.068l-0.05-0.011l-0.049,0.02l-0.032-0.001l-0.041-0.02l-0.058-0.008l-0.056-0.052l-0.024-0.003l-0.053,0.044l-0.032,0.001l-0.048-0.013l-0.031,0.002l-0.05,0.041l-0.155,0.052h-0.063l-0.066,0.025l-0.034,0.033l-0.129,0.063l-0.063,0.079l-0.067,0.019l-0.017,0.032l-0.024,0.002l-0.019-0.02h-0.04l-0.045,0.09l-0.027,0.02l-0.051,0.006l-0.016,0.019h-0.015l-0.026,0.006l-0.063-0.041h-0.047l-0.012,0.021l0.022,0.087v0.086l-0.024,0.055l0.004,0.063l0.02,0.074l-0.004,0.051l-0.035,0.079l-0.016,0.251v0.294l-0.016,0.066v0.118l0.028,0.106l0.004,0.118l0.039,0.145l0.008,0.109l0.023,0.106l0.012,0.13l0.047,0.149l0.016,0.11l0.059,0.211v0.173l0.015,0.208l0.059,0.106l0.036,0.145l0.003,0.106l0.048,0.149l0.078,0.105l0.162,0.112l0.112,0.138l0.079,0.17l0.002,0.052l-0.015,0.027l0.002,0.039l0.134,0.222l0.031,0.086l0.008,0.188l0.039,0.082l0.016,0.07l0.05,0.097l0.128,0.131l0.808,0.685l0.13,0.128l0.021,0.057l0.092,0.105l0.107,0.162l0.008,0.049l0.232,0.262l0.061,0.123l0.002,0.086l0.026,0.078l0.003,0.074l0.039,0.057l0.288,0.28l0.065,0.099l0.094,0.16l0.021,0.128l0.173,0.332l0.115,0.138l0.039,0.123l0.01,0.087l-0.01,0.036l0.008,0.055l0.047,0.089l0.026,0.091l0.165,0.275l0.083,0.212l0.155,0.261l0.054,0.073l0.021,0.047l0.003,0.071l0.141,0.288l0.107,0.107l0.058,0.151l0.039,0.139l0.063,0.107l0.042,0.094l0.01,0.063l0.105,0.186l0.044,0.044l0.029,0.058l-0.003,0.075l0.021,0.082l0.032,0.039l0.015,0.042l0.003,0.075l0.131,0.152l0.104,0.058l0.099,0.096l0.053,0.092l0.138,0.17l0.04,0.083l0.005,0.094l0.042,0.1l0.076,0.099l0.018,0.045l0.021,0.115l0.035,0.117l0.004,0.13l-0.016,0.055l0.004,0.058l0.059,0.118l0.07,0.102l0.028,0.098l0.121,0.184l0.048,0.098l0.007,0.067l0.087,0.212l0.015,0.125l0.047,0.161l0.004,0.067l-0.019,0.047l0.011,0.047l0.044,0.067l0.015,0.066l0.083,0.149l0.129,0.149l0.02,0.059l0.039,0.055l0.102,0.098l0.18,0.279l0.032,0.05l0.019,0.165l0.071,0.149l0.302,0.345l0.098,0.09l0.031,0.059l0.004,0.067l0.118,0.169l0.051,0.039l0.039,0.059l0.008,0.043l0.102,0.129l0.07,0.063l0.063,0.094l0.024,0.086l0.074,0.075l0.075,0.11l0.007,0.066l0.04,0.079l0.035,0.168l0.157,0.247l0.121,0.114l0.084,0.131l0.013,0.097l-0.016,0.049l-0.073,0.063l0.003,0.021l0.314,0.274l0.089,0.095l0.02,0.06l0.032,0.039l0.042,0.016l0.13,0.149l0.097,0.156l0.102,0.102l0.421,0.521l0.003,0.039l-0.019,0.034l0.006,0.05l0.101,0.159l0.147,0.141l0.149,0.175l0.112,0.246l0.016,0.099l0.05,0.102l0.041,0.105l0.006,0.089l0.047,0.144l0.078,0.112l0.063,0.136l0.008,0.118l-0.016,0.036v0.04l0.063,0.107l0.018,0.091l-0.005,0.168l-0.026,0.031l0.005,0.036l0.029,0.076l-0.003,0.034l-0.01,0.026l0.005,0.053l0.042,0.099l0.018,0.178l-0.008,0.287l-0.013,0.074l-0.086,0.065l-0.092,0.115l-0.002,0.047l-0.047,0.071l-0.032,0.104h-0.015l0.013-0.094l0.026-0.097l-0.008-0.039h-0.039l-0.066,0.055l-0.023-0.01v-0.042l0.023-0.058l0.008-0.102l-0.013-0.044l0.016-0.092l0.021-0.049l-0.016-0.006l-0.029,0.029l-0.021,0.092l0.003,0.076l-0.016,0.049l-0.065,0.058l-0.018,0.061l-0.016,0.153l0.003,0.068l0.04,0.132l0.035,0.153l0.2,0.53l0.098,0.396l-0.015,0.227l-0.067,0.094l-0.019,0.094l0.007,0.192l-0.019,0.012l-0.028-0.078l-0.035-0.016l-0.008-0.031l0.02-0.032l-0.008-0.035l-0.024-0.043l0.016-0.094l0.028-0.039l-0.02-0.04h-0.035l-0.043,0.047l-0.004,0.118l0.015,0.114l0.185,0.439l0.09,0.274l-0.004,0.087l-0.035,0.141l-0.008,0.314l0.019,0.074l0.008,0.055l-0.019,0.043l0.003,0.055l0.024,0.051l0.008,0.067l-0.008,0.055l0.024,0.172l-0.016,0.043l-0.133,0.075l-0.071,0.121l-0.024,0.204l0.044,0.31l0.172,0.581l0.373,0.803l0.027,0.098l-0.012,0.193l-0.062,0.102l0.011,0.086l0.148,0.17l0.241,0.24l0.219,0.264l0.134,0.254l0.065,0.178l0.003,0.044l-0.021,0.034l-0.006,0.05l0.024,0.073v0.052l-0.021,0.032l0.005,0.052l0.037,0.081l0.107,0.173l0.11,0.214l0.055,0.154v0.042l-0.04,0.06l-0.068,0.1l-0.023,0.094l0.016,0.068l-0.003,0.06l-0.044,0.081l-0.04,0.191l-0.039,0.055l-0.005,0.052l0.044,0.093l-0.007,0.109l-0.028,0.059l0.004,0.071l0.133,0.157l0.006,0.031l-0.021,0.043l-0.004,0.085l0.082,0.107l0.08,0.167l-0.001,0.108l-0.079,0.108l-0.039,0.088l-0.02,0.096l-0.021,0.047l-0.002,0.114l0.041,0.092l-0.004,0.088l-0.031,0.02l-0.02-0.014l-0.018,0.008l-0.002,0.061l0.04,0.043l0.011,0.043l0.047,0.053l0.014,0.043l0.104,0.096l0.084,0.106l0.006,0.043l-0.021,0.071l-0.002,0.115l0.027,0.116l0.081,0.096l0.09,0.141l0.008,0.095l0.039,0.08l0.004,0.051l0.027,0.065l0.008,0.053l-0.018,0.031l0.004,0.104l-0.072,0.084l-0.043-0.004l-0.006-0.025l-0.026-0.01l-0.027,0.018l0.002,0.037l0.057,0.082l0.053,0.039l0.031,0.063l0.002,0.069l-0.049,0.053l-0.008,0.051l0.014,0.031v0.03l-0.016,0.031v0.1l0.016,0.037v0.018l-0.02,0.025l0.004,0.041l0.033,0.038l0.022,0.041l0.043,0.039l0.065,0.016l0.11,0.039l0.149,0.096l0.096,0.077l0.015,0.043l0.1,0.113l0.002,0.047l-0.031,0.006l-0.002,0.02l0.031,0.025l0.006,0.022l-0.011,0.018l0.005,0.031l0.059,0.053l0.014,0.039l-0.01,0.159l0.032,0.114l0.029,0.019l0.024-0.009l0.027-0.002l0.022,0.023l0.001,0.051l-0.011,0.043l-0.038,0.026l-0.005,0.057l-0.04,0.08l-0.009,0.073l0.013,0.078l-0.011,0.012l-0.014-0.016l-0.014-0.053l-0.022-0.025l-0.011-0.065l0.013-0.028l0.004-0.027l-0.023-0.033l-0.02-0.004l-0.023,0.041l-0.038,0.023l-0.027,0.002l-0.012-0.017l-0.031-0.016l-0.008,0.016l0.016,0.017l-0.008,0.016l-0.024,0.008l-0.011,0.027v0.114l0.017,0.049l0.014,0.12l0.025,0.019l0.03-0.004l0.019,0.02l0.004,0.067l-0.019,0.025l-0.002,0.034l0.021,0.019l0.016,0.037l-0.004,0.032l0.008,0.017l0.02,0.016l0.022,0.056l0.019,0.01l0.02-0.004l0.004,0.013l-0.021,0.03l0.015,0.052l0.02,0.01l0.019-0.005l0.008,0.009l-0.009,0.019v0.024l0.019,0.018l0.003,0.023l-0.026,0.038l0.008,0.067l0.031,0.016l0.03-0.005l0.033,0.013l0.026,0.037h0.02l0.019-0.018h0.04l0.043,0.014l0.035,0.046l0.01,0.059l0.027,0.057l0.002,0.069l-0.023,0.025l0.002,0.028l0.01,0.019v0.038l-0.022,0.052l0.012,0.146l0.023,0.051l0.057,0.055l0.005,0.061l-0.019,0.048l0.008,0.068l0.037,0.065l0.004,0.055l0.021,0.051v0.025l-0.029,0.028l-0.01,0.058l0.021,0.049l0.004,0.057l0.041,0.061l0.027,0.097l-0.002,0.095l0.016,0.076l0.081,0.129l0.008,0.049l0.037,0.054l0.029,0.013l0.02,0.021l0.007,0.028l0.074,0.076l0.031,0.063l0.004,0.055l0.014,0.034l0.066,0.061l0.107,0.099l0.056,0.099l0.025,0.026l0.027,0.073l0.022,0.036l0.041,0.057l0.007,0.028l-0.009,0.033l0.016,0.034l0.104,0.107l0.117,0.165l0.002,0.04l-0.021,0.043v0.066l0.031,0.043l0.003,0.028l-0.013,0.025l0.005,0.054l0.052,0.07l0.018,0.046l0.065,0.061l0.075,0.109l0.132,0.111l0.067,0.094l0.016,0.058l0.14,0.19l0.002,0.064l-0.028,0.03l0.005,0.076l0.093,0.109l0.062,0.091l0.219,0.195l0.178,0.192l0.334,0.292l0.391,0.321l0.296,0.292l0.378,0.382l0.196,0.218l0.05,0.064l0.243,0.24l0.171,0.135l0.261,0.166L702.257,559.532z"/>
</svg>
