<svg xmlns="http://www.w3.org/2000/svg" viewBox="1247.895 523.942 16.975 12.246">
  <path d="M1260.789,528.732l-0.045,-0.078l0.059,-0.136l0.181,-0.078l0.178,0.058l0.077,-0.037l0.007,-0.099l0.108,-0.044l0.192,0.051l0.129,0.143l0.098,0.024l-0.01,0.085l-0.084,0.044l-0.007,0.248l0.063,0.146l-0.003,0.054l-0.105,0.085l-0.01,0.041l0.045,0.034l0.084,-0.014l0.296,0.129l0.045,0.119l-0.021,0.129l0.098,0.066l0.089,0.015l0.105,0.082v0.061l-0.084,0.02l-0.11,0.102l0.031,0.245l-0.173,0.097l-0.146,-0.046l-0.099,-0.163l-0.11,-0.02l-0.037,-0.056l0.021,-0.056l-0.047,-0.051l-0.361,-0.01l-0.178,-0.102l-0.22,-0.291l0.026,-0.061l-0.042,-0.092l-0.105,-0.036l-0.058,-0.077l0.047,-0.036l0.094,0.015l0.068,0.041l0.136,-0.005l0.267,-0.291l0.026,-0.143l-0.073,-0.092l-0.188,-0.066l-0.188,0.005l-0.066,0.039Z M1263.694,530.065l0.063,0.02l0.021,-0.041l-0.084,-0.122l-0.063,-0.005l-0.026,0.041l0.089,0.107Z M1262.722,530.162l0.052,0.005l-0.005,-0.036l-0.073,-0.051l-0.037,0.026l0.063,0.056Z M1258.45,528.555l0.267,-0.107l0.225,-0.046l0.105,-0.046l0.157,-0.301l-0.021,-0.046l-0.073,0.026l-0.052,-0.031l-0.005,-0.128l0.031,-0.184l0.094,-0.148l0.078,-0.036l0.105,0.031l0.031,-0.066l-0.146,-0.117l-0.047,-0.112l-0.084,-0.036l-0.131,0.041l-0.016,0.071l0.068,0.01l0.078,0.092l0.005,0.122l-0.063,0.077l-0.058,0.163v0.173l-0.052,0.199l-0.199,0.209l-0.261,0.122l-0.099,-0.015l-0.021,0.031l0.084,0.051Z M1258.931,527.305l0.01,-0.051l-0.052,-0.02l-0.037,0.026l0.016,0.051l0.063,-0.005Z M1263.417,531.035l-0.016,-0.061l0.037,-0.036l-0.005,-0.041l-0.037,0.005l-0.031,0.046l0.031,0.112l0.021,-0.026Z M1263.72,531.208l0.047,0.128l-0.031,0.097l0.068,0.168l0.105,0.071l0.016,0.082l-0.052,0.087l-0.073,0.026l-0.005,0.056l0.125,-0.02l0.22,0.01l0.052,0.051l-0.016,0.077l0.115,0.087l0.214,0.005l0.073,-0.061l0.23,-0.056l0.01,-0.061l-0.037,-0.087l0.005,-0.199l0.042,-0.163l-0.005,-0.082l0.047,-0.117l-0.058,-0.036l-0.12,0.056h-0.099l-0.078,0.056l-0.157,-0.051l-0.146,-0.219l0.099,-0.163l-0.042,-0.026l-0.068,0.071l-0.178,0.051l-0.042,0.087l-0.084,-0.01l-0.078,-0.087l-0.105,-0.026l-0.068,0.051v0.087l0.073,0.061Z M1262.854,530.596l0.024,0.014l0.014,-0.014l-0.019,-0.034l-0.026,-0.003l-0.01,0.019l0.017,0.019Z M1262.784,530.816l0.023,-0.01l0.002,-0.022l-0.017,-0.007l-0.017,0.012l-0.002,0.019l0.012,0.009Z M1257.457,527.314l0.042,-0.017l-0.01,-0.024l-0.063,0.003l-0.007,0.031l0.038,0.007Z M1250.179,526.228l0.162,0.077l0.063,0.01l-0.089,-0.184l-0.12,-0.087l-0.052,-0.092l-0.042,-0.015l0.01,0.173l0.068,0.117Z M1248.036,524.177l0.021,-0.051l-0.11,-0.184l-0.052,0.01l0.037,0.143l0.058,0.092l0.047,-0.01Z M1248.402,524.82l-0.01,-0.092l-0.089,-0.061l-0.021,-0.168l-0.115,-0.194l-0.063,-0.061l-0.016,0.046l0.078,0.143l-0.042,0.092l0.068,0.23l0.089,0.092l0.12,-0.026Z M1248.266,525.034l0.042,0.02l0.042,-0.036l-0.005,-0.046l-0.037,0.01l-0.042,0.051Z M1248.768,525.943l0.047,0.071l0.042,0.005l-0.01,-0.077l0.026,-0.056l-0.037,-0.056l-0.078,-0.005l-0.058,0.031l0.005,0.077l0.063,0.01Z M1249.201,526.29l0.01,0.056l0.058,0.036l0.021,-0.036l-0.11,-0.133l-0.005,0.036l0.026,0.041Z M1250.58,526.735l0.021,-0.027l-0.024,-0.126l-0.035,-0.017l-0.017,0.044l0.056,0.126Z M1249.848,526.987l0.024,-0.048l-0.007,-0.037l-0.035,0.003l-0.021,0.071l0.038,0.01Z M1249.36,526.011l0.087,0.014l0.045,-0.044l-0.003,-0.078l-0.063,-0.061l-0.024,-0.109l-0.07,-0.007l-0.024,0.088l0.007,0.153l0.045,0.044Z M1257.509,533.706l0.038,0.04l-0.042,0.02l-0.108,-0.037l-0.037,0.077l0.041,0.036l0.07,-0.037l0.087,0.02l0.185,0.139l0.014,0.061l0.153,0.088l0.098,-0.003l0.087,-0.051l0.031,0.027l0.007,0.085l0.063,0.048l0.014,0.044l-0.042,0.058l0.024,0.02l0.087,-0.068l0.031,-0.082l-0.003,-0.048l0.049,-0.017l0.164,0.061l0.112,0.136l-0.028,0.014l-0.077,-0.007l-0.105,0.048l0.031,0.041l0.084,0.01l-0.01,0.065l-0.052,0.003l-0.07,-0.051l-0.042,0.037l0.059,0.061h0.108l0.031,0.031l-0.017,0.058l0.056,0.051l0.045,-0.02l-0.003,-0.071l0.024,-0.034l0.059,-0.017l0.038,-0.095l-0.01,-0.044l0.028,-0.027l0.164,0.014l0.073,0.014l0.014,0.037l-0.038,0.034l0.007,0.048l0.105,0.071l0.101,-0.003l0.031,-0.037l0.042,-0.014l0.101,0.078l0.052,0.078l0.153,0.105l0.063,-0.003l0.052,0.024l-0.063,0.065l0.031,0.068l0.157,0.027l0.049,-0.051l0.059,-0.007l0.059,0.037l0.056,-0.014l-0.073,-0.092l0.021,-0.136l0.045,-0.007l0.038,0.102l0.038,0.003l0.007,-0.071l0.056,-0.014l0.061,0.099l0.005,0.148l0.122,0.032l0.115,-0.133l0.171,-0.088l0.077,-0.238l-0.038,-0.167l-0.251,-0.32l0.017,-0.139l-0.042,-0.099l-0.303,-0.252l-0.31,-0.075l-0.052,-0.068l-0.091,-0.044l-0.181,0.017l-0.017,-0.037l0.112,-0.044l0.028,-0.031l-0.146,-0.126l-0.049,0.003l-0.007,0.044l-0.08,-0.01l-0.278,-0.231l-0.076,-0.128l-0.227,-0.199l-0.042,-0.13l-0.24,-0.207l-0.076,-0.01l-0.141,-0.077l0.037,-0.082l-0.031,-0.056l-0.141,-0.015l-0.387,-0.179l-0.319,-0.301l-0.078,-0.026l-0.073,0.046l-0.073,-0.015l0.005,-0.117l-0.063,-0.092l-0.105,-0.041l-0.193,-0.194l-0.063,0.015l0.037,0.143l0.11,0.189l-0.042,0.026l-0.131,-0.133v-0.107l-0.225,-0.337l-0.047,-0.005l0.037,0.082l-0.031,0.031l-0.047,-0.041l-0.058,0.005l-0.01,0.046l-0.068,-0.005l-0.01,-0.087l-0.173,-0.202l-0.118,-0.056l-0.089,0.01l-0.324,-0.122l-0.125,-0.171l-0.118,-0.092l-0.024,-0.048l0.18,0.089l0.031,-0.036l-0.272,-0.24l-0.152,-0.02l-0.333,-0.231l-0.056,-0.197l0.012,-0.128l0.058,-0.117l-0.073,-0.077l-0.256,-0.02l-0.251,-0.281l0.037,-0.199l-0.047,-0.087l-0.193,-0.097l-0.356,-0.036l-0.544,-0.255l-0.423,-0.276l-0.117,-0.211l-0.307,-0.33l-0.146,-0.031l-0.397,-0.26l-0.037,-0.122l-0.439,-0.327l-0.512,-0.204l-0.073,0.031l0.026,0.184l-0.044,0.036l-0.139,-0.02l-0.204,-0.138l-0.099,-0.046l-0.183,-0.235l-0.11,-0.066l-0.146,-0.225l-0.145,-0.114l-0.035,0.048l0.185,0.303l-0.038,0.116l0.07,0.153l-0.031,0.041l-0.066,-0.061l-0.066,-0.02l-0.098,0.041l-0.01,0.071l0.087,0.051l0.031,0.048l-0.017,0.051l0.031,0.027l0.073,-0.014l0.056,-0.082l-0.014,-0.071l0.049,-0.007l0.052,0.082l-0.028,0.071l0.038,0.017l0.112,-0.017l0.146,0.085l0.077,0.173l-0.035,0.116l-0.07,0.01l-0.08,-0.048l-0.049,0.024l0.038,0.095l0.101,0.058l0.084,0.248l0.211,0.235l0.162,0.087l0.141,0.168l0.016,0.112l0.11,0.102l-0.005,0.092l0.068,0.061l0.146,0.046v0.097l-0.141,0.036v0.046l0.12,0.041l0.225,0.276l0.418,0.265l0.246,0.051l0.058,0.061l-0.037,0.122l0.058,0.02l0.12,-0.026l0.026,0.061l-0.052,0.138l0.089,0.102l0.099,-0.036l0.042,0.046l-0.005,0.071l0.073,0.01l0.084,-0.107l0.11,0.005l0.052,0.087l-0.078,0.179l0.094,0.286l0.256,0.316l0.12,0.077l-0.018,0.173l0.065,0.028l0.091,-0.066l0.256,0.059l0.02,0.044l-0.022,0.033l-0.052,-0.01l-0.021,0.031l0.017,0.044l0.049,0.003l0.017,-0.044l0.038,-0.01l0.024,0.058l0.052,-0.003l0.097,-0.122h0.088l0.038,0.037 l-0.006,0.058l-0.05,0.024l-0.045,0.058l0.056,0.133l0.174,0.194l0.282,0.102l0.038,0.054l-0.01,0.082l0.242,0.17l0.397,0.117l0.094,-0.031l0.099,0.071l-0.021,0.097l0.329,0.204l0.238,0.069l0.112,-0.069l0.05,0.01l-0.006,0.111l0.078,0.032l0.063,-0.041l0.017,-0.099l0.063,-0.033l0.12,0.061l0.097,0.01l0.013,0.048l-0.05,0.028l-0.12,-0.015l-0.05,0.046l0.089,0.048l0.024,0.038l-0.039,0.087l0.052,0.051l0.037,-0.023l0.003,-0.038l0.058,-0.008l0.099,0.128l0.047,0.089l-0.024,0.026l-0.076,-0.026l-0.01,0.041l0.05,0.064l0.086,-0.013l0.068,-0.041l0.204,0.082l0.125,0.163l0.199,0.082l0.112,-0.041l-0.005,-0.082l0.071,-0.038l0.217,0.117l0.183,0.143l-0.003,0.048l-0.042,0.071l0.018,0.054l0.118,0.069l-0.018,0.033l-0.136,-0.038h-0.094v0.028l0.063,0.018h0.068l0.042,0.018v0.02l-0.031,0.018l0.003,0.028Z M1258.466,532.275l0.05,0.023l0.06,-0.005l-0.01,-0.051l-0.063,-0.008l-0.037,0.041Z M1259.841,535.09l-0.003,0.058l-0.038,0.034l0.031,0.078l0.108,0.027l0.08,-0.031l-0.01,-0.044l-0.091,-0.014l-0.003,-0.027l0.098,-0.02l0.063,-0.051l-0.021,-0.068l-0.066,-0.024l-0.136,0.014l-0.042,0.037l0.031,0.031Z M1253.17,530.999l0.052,0.013l0.026,-0.026l-0.013,-0.043l-0.06,-0.01l-0.024,0.028l0.018,0.038Z M1262.199,535.747l-0.021,0.069l0.016,0.156l0.105,0.107l0.183,0.02l0.068,-0.056l0.026,-0.061l-0.024,-0.043l0.034,-0.107h0.037l-0.008,0.059l0.057,0.079l0.028,0.007l0.017,-0.117l-0.115,-0.156l-0.256,-0.138l-0.094,0.003l-0.081,0.084l0.029,0.094Z M1262.584,536.11l0.063,-0.027l0.035,0.012l-0.058,0.049l-0.075,0.007l-0.012,0.022l0.11,0.015l0.038,-0.019l0.032,-0.068l-0.01,-0.048l-0.063,-0.052l-0.04,-0.004l-0.03,0.055l-0.037,0.048l0.049,0.009Z M1257.199,533.392l0.031,0.017l0.051,-0.032l0.015,-0.09l-0.038,-0.003l-0.01,0.048l-0.049,0.061Z M1256.709,533.321l0.021,0.041l0.068,0.02l0.005,-0.033l-0.039,-0.031l-0.055,0.003Z M1256.897,533.405l0.047,0.003l0.021,-0.038l-0.068,-0.051l-0.058,-0.005l-0.008,0.031l0.065,0.061Z M1257.018,533.53l0.05,0.023l0.12,-0.079l-0.034,-0.041l-0.118,-0.023l-0.034,0.026l0.016,0.094Z M1257.044,533.604l-0.01,0.043l0.071,0.107l0.031,0.005l-0.026,-0.066l0.024,-0.046l-0.008,-0.066l-0.05,-0.003l-0.031,0.026Z M1256.021,532.777l0.033,-0.003l0.016,-0.029l-0.019,-0.024h-0.037l-0.014,0.043l0.021,0.014Z M1257.276,533.793l-0.008,0.028l0.044,0.005l0.026,-0.048l-0.026,-0.008l-0.037,0.023Z "/>
</svg>
