<svg xmlns="http://www.w3.org/2000/svg" viewBox="1247.895 523.942 16.975 12.246">
  <path d="M1260.788856,528.732003l-0.045311,-0.078239l0.059253,-0.136067l0.181243,-0.078239l0.177758,0.057829l0.07668,-0.037418l0.006971,-0.098649l0.108049,-0.044222l0.1917,0.051025l0.128962,0.14287l0.097593,0.023812l-0.010456,0.085042l-0.083651,0.044222l-0.006971,0.248323l0.062738,0.146272l-0.003485,0.054427l-0.104563,0.085042l-0.010456,0.04082l0.045311,0.034017l0.083651,-0.013607l0.296263,0.129264l0.045311,0.119059l-0.020913,0.129264l0.097593,0.066333l0.088879,0.015308l0.104563,0.08164v0.06123l-0.083651,0.02041l-0.109792,0.10205l0.031369,0.244921l-0.17253,0.096948l-0.146389,-0.045923l-0.099335,-0.163281l-0.109792,-0.02041l-0.036597,-0.056128l0.020913,-0.056128l-0.047054,-0.051025l-0.360744,-0.010205l-0.177758,-0.10205l-0.219583,-0.290844l0.026141,-0.06123l-0.041825,-0.091845l-0.104563,-0.035718l-0.05751,-0.076538l0.047054,-0.035718l0.094107,0.015308l0.067966,0.04082l0.135932,-0.005103l0.266637,-0.290844l0.026141,-0.14287l-0.073194,-0.091845l-0.188214,-0.066333l-0.188214,0.005103l-0.066224,0.039119Z M1263.693977,530.065461l0.062738,0.02041l0.020913,-0.04082l-0.083651,-0.12246l-0.062738,-0.005103l-0.026141,0.04082l0.088879,0.107153Z M1262.721537,530.162409l0.052282,0.005103l-0.005228,-0.035718l-0.073194,-0.051025l-0.036597,0.025513l0.062738,0.056128Z M1258.45012,528.555116l0.266637,-0.107153l0.224811,-0.045923l0.104563,-0.045923l0.156845,-0.301049l-0.020913,-0.045923l-0.073194,0.025513l-0.052282,-0.030615l-0.005228,-0.127563l0.031369,-0.183691l0.094107,-0.147973l0.078423,-0.035718l0.104563,0.030615l0.031369,-0.066333l-0.146389,-0.117358l-0.047054,-0.112255l-0.083651,-0.035718l-0.130704,0.04082l-0.015685,0.071435l0.067966,0.010205l0.078423,0.091845l0.005228,0.12246l-0.062738,0.076538l-0.05751,0.163281v0.173486l-0.052282,0.198998l-0.198671,0.209203l-0.261409,0.12246l-0.099335,-0.015308l-0.020913,0.030615l0.083651,0.051025Z M1258.931112,527.304999l0.010456,-0.051025l-0.052282,-0.02041l-0.036597,0.025513l0.015685,0.051025l0.062738,-0.005103Z M1263.416884,531.03494l-0.015685,-0.06123l0.036597,-0.035718l-0.005228,-0.04082l-0.036597,0.005103l-0.031369,0.045923l0.031369,0.112255l0.020913,-0.025513Z M1263.720118,531.208425l0.047054,0.127563l-0.031369,0.096948l0.067966,0.168383l0.104563,0.071435l0.015685,0.08164l-0.052282,0.086743l-0.073194,0.025513l-0.005228,0.056128l0.125476,-0.02041l0.219583,0.010205l0.052282,0.051025l-0.015685,0.076538l0.11502,0.086743l0.214355,0.005103l0.073194,-0.06123l0.23004,-0.056128l0.010456,-0.06123l-0.036597,-0.086743l0.005228,-0.198998l0.041825,-0.163281l-0.005228,-0.08164l0.047054,-0.117358l-0.05751,-0.035718l-0.120248,0.056128h-0.099335l-0.078423,0.056128l-0.156845,-0.051025l-0.146389,-0.219408l0.099335,-0.163281l-0.041825,-0.025513l-0.067966,0.071435l-0.177758,0.051025l-0.041825,0.086743l-0.083651,-0.010205l-0.078423,-0.086743l-0.104563,-0.025513l-0.067966,0.051025v0.086743l0.073194,0.06123Z M1262.853984,530.596123l0.024398,0.013607l0.013942,-0.013607l-0.01917,-0.034017l-0.026141,-0.003402l-0.010456,0.018709l0.017427,0.018709Z M1262.784275,530.815531l0.022655,-0.010205l0.001743,-0.022111l-0.017427,-0.006803l-0.017427,0.011906l-0.001743,0.018709l0.012199,0.008504Z M1257.456767,527.313503l0.041825,-0.017008l-0.010456,-0.023812l-0.062738,0.003402l-0.006971,0.030615l0.03834,0.006803Z M1250.179151,526.228368l0.162073,0.076538l0.062738,0.010205l-0.088879,-0.183691l-0.120248,-0.086743l-0.052282,-0.091845l-0.041825,-0.015308l0.010456,0.173486l0.067966,0.117358Z M1248.035601,524.177156l0.020913,-0.051025l-0.109792,-0.183691l-0.052282,0.010205l0.036597,0.14287l0.05751,0.091845l0.047054,-0.010205Z M1248.401573,524.820073l-0.010456,-0.091845l-0.088879,-0.06123l-0.020913,-0.168383l-0.11502,-0.193896l-0.062738,-0.06123l-0.015685,0.045923l0.078423,0.14287l-0.041825,0.091845l0.067966,0.229613l0.088879,0.091845l0.120248,-0.025513Z M1248.26564,525.034379l0.041825,0.02041l0.041825,-0.035718l-0.005228,-0.045923l-0.036597,0.010205l-0.041825,0.051025Z M1248.767545,525.942627l0.047054,0.071435l0.041825,0.005103l-0.010456,-0.076538l0.026141,-0.056128l-0.036597,-0.056128l-0.078423,-0.005103l-0.05751,0.030615l0.005228,0.076538l0.062738,0.010205Z M1249.201483,526.289598l0.010456,0.056128l0.05751,0.035718l0.020913,-0.035718l-0.109792,-0.132665l-0.005228,0.035718l0.026141,0.04082Z M1250.579978,526.735218l0.020913,-0.027213l-0.024398,-0.125862l-0.034854,-0.017008l-0.017427,0.044222l0.055767,0.125862Z M1249.848034,526.986942l0.024398,-0.047623l-0.006971,-0.037418l-0.034854,0.003402l-0.020913,0.071435l0.03834,0.010205Z M1249.360071,526.010661l0.087136,0.013607l0.045311,-0.044222l-0.003485,-0.078239l-0.062738,-0.06123l-0.024398,-0.108854l-0.069709,-0.006803l-0.024398,0.088444l0.006971,0.153076l0.045311,0.044222Z M1257.509049,533.706108l0.03834,0.03997l-0.041825,0.02041l-0.108049,-0.037418l-0.037469,0.076538l0.040954,0.035718l0.069709,-0.037418l0.087136,0.02041l0.184729,0.139469l0.013942,0.06123l0.15336,0.088444l0.097593,-0.003402l0.087136,-0.051025l0.031369,0.027213l0.006971,0.085042l0.062738,0.047623l0.013942,0.044222l-0.041825,0.057829l0.024398,0.02041l0.087136,-0.068034l0.031369,-0.08164l-0.003485,-0.047623l0.048796,-0.017008l0.163816,0.06123l0.111534,0.136067l-0.027884,0.013607l-0.07668,-0.006803l-0.104563,0.047623l0.031369,0.04082l0.083651,0.010205l-0.010456,0.064632l-0.052282,0.003402l-0.069709,-0.051025l-0.041825,0.037418l0.059253,0.06123h0.108049l0.031369,0.030615l-0.017427,0.057829l0.055767,0.051025l0.045311,-0.02041l-0.003485,-0.071435l0.024398,-0.034017l0.059253,-0.017008l0.03834,-0.095247l-0.010456,-0.044222l0.027884,-0.027213l0.163816,0.013607l0.073194,0.013607l0.013942,0.037418l-0.03834,0.034017l0.006971,0.047623l0.104563,0.071435l0.101078,-0.003402l0.031369,-0.037418l0.041825,-0.013607l0.101078,0.078239l0.052282,0.078239l0.15336,0.105452l0.062738,-0.003402l0.052282,0.023812l-0.062738,0.064632l0.031369,0.068034l0.156845,0.027213l0.048796,-0.051025l0.059253,-0.006803l0.059253,0.037418l0.055767,-0.013607l-0.073194,-0.091845l0.020913,-0.136067l0.045311,-0.006803l0.03834,0.10205l0.03834,0.003402l0.006971,-0.071435l0.055767,-0.013607l0.060995,0.098649l0.005228,0.147973l0.121991,0.032316l0.11502,-0.132665l0.170787,-0.088444l0.07668,-0.238117l-0.03834,-0.166682l-0.250952,-0.319758l0.017427,-0.139469l-0.041825,-0.098649l-0.303234,-0.251724l-0.310205,-0.074837l-0.052282,-0.068034l-0.090622,-0.044222l-0.181243,0.017008l-0.017427,-0.037418l0.111534,-0.044222l0.027884,-0.030615l-0.146389,-0.125862l-0.048796,0.003402l-0.006971,0.044222l-0.080165,-0.010205l-0.277964,-0.231314l-0.075808,-0.127563l-0.227425,-0.198998l-0.041825,-0.130114l-0.240496,-0.206652l-0.075808,-0.010205l-0.141161,-0.076538l0.036597,-0.08164l-0.031369,-0.056128l-0.141161,-0.015308l-0.386885,-0.178588l-0.318919,-0.301049l-0.078423,-0.025513l-0.073194,0.045923l-0.073194,-0.015308l0.005228,-0.117358l-0.062738,-0.091845l-0.104563,-0.04082l-0.193442,-0.193896l-0.062738,0.015308l0.036597,0.14287l0.109792,0.188793l-0.041825,0.025513l-0.130704,-0.132665v-0.107153l-0.224811,-0.336766l-0.047054,-0.005103l0.036597,0.08164l-0.031369,0.030615l-0.047054,-0.04082l-0.05751,0.005103l-0.010456,0.045923l-0.067966,-0.005103l-0.010456,-0.086743l-0.17253,-0.201549l-0.117634,-0.056128l-0.088879,0.010205l-0.324147,-0.12246l-0.125476,-0.170934l-0.117634,-0.091845l-0.023527,-0.048474l0.180372,0.089294l0.031369,-0.035718l-0.271865,-0.239818l-0.151617,-0.02041l-0.33286,-0.231314l-0.055767,-0.197297l0.012199,-0.127563l0.05751,-0.117358l-0.073194,-0.076538l-0.25618,-0.02041l-0.250952,-0.280638l0.036597,-0.198998l-0.047054,-0.086743l-0.193442,-0.096948l-0.355516,-0.035718l-0.54373,-0.255126l-0.423482,-0.275536l-0.116763,-0.210904l-0.306719,-0.329963l-0.146389,-0.030615l-0.397341,-0.260228l-0.036597,-0.12246l-0.439166,-0.326561l-0.512361,-0.204101l-0.073194,0.030615l0.026141,0.183691l-0.044181,0.035521l-0.138805,-0.020214l-0.203899,-0.137768l-0.099335,-0.045923l-0.182986,-0.234716l-0.109792,-0.066333l-0.146389,-0.224511l-0.144646,-0.113956l-0.034854,0.047623l0.184729,0.302749l-0.03834,0.115657l0.069709,0.153076l-0.031369,0.04082l-0.066224,-0.06123l-0.066224,-0.02041l-0.097593,0.04082l-0.010456,0.071435l0.087136,0.051025l0.031369,0.047623l-0.017427,0.051025l0.031369,0.027213l0.073194,-0.013607l0.055767,-0.08164l-0.013942,-0.071435l0.048796,-0.006803l0.052282,0.08164l-0.027884,0.071435l0.03834,0.017008l0.111534,-0.017008l0.146389,0.085042l0.07668,0.173486l-0.034854,0.115657l-0.069709,0.010205l-0.080165,-0.047623l-0.048796,0.023812l0.03834,0.095247l0.101078,0.057829l0.083651,0.248323l0.21087,0.234716l0.162073,0.086743l0.141161,0.168383l0.015685,0.112255l0.109792,0.10205l-0.005228,0.091845l0.067966,0.06123l0.146389,0.045923v0.096948l-0.141161,0.035718v0.045923l0.120248,0.04082l0.224811,0.275536l0.418254,0.265331l0.245724,0.051025l0.05751,0.06123l-0.036597,0.12246l0.05751,0.02041l0.120248,-0.025513l0.026141,0.06123l-0.052282,0.137768l0.088879,0.10205l0.099335,-0.035718l0.041825,0.045923l-0.005228,0.071435l0.073194,0.010205l0.083651,-0.107153l0.109792,0.005103l0.052282,0.086743l-0.078423,0.178588l0.094107,0.285741l0.25618,0.316356l0.120248,0.076538l-0.018299,0.173486l0.065352,0.028064l0.091493,-0.066333l0.25618,0.058679l0.019751,0.043811l-0.022365,0.032727l-0.052282,-0.010205l-0.020913,0.030615l0.017427,0.044222l0.048796,0.003402l0.017427,-0.044222l0.03834,-0.010205l0.024398,0.057829l0.052282,-0.002551l0.096721,-0.12246l0.088008,-0.00085l0.03834,0.037418l-0.0061,0.057829l-0.049668,0.023812l-0.045311,0.057829l0.055767,0.132665l0.174272,0.193896l0.282321,0.10205l0.03834,0.054427l-0.010456,0.08164l0.242239,0.170084l0.397341,0.117358l0.094107,-0.030615l0.099335,0.071435l-0.020913,0.096948l0.329375,0.204101l0.237882,0.068884l0.112406,-0.068884l0.049668,0.010205l-0.0061,0.110555l0.078423,0.032316l0.062738,-0.04082l0.016556,-0.099499l0.062738,-0.033166l0.120248,0.06123l0.096721,0.010205l0.01307,0.048474l-0.049668,0.028064l-0.120248,-0.015308l-0.049668,0.045923l0.088879,0.048474l0.023527,0.038269l-0.039211,0.086743l0.052282,0.051025l0.036597,-0.022961l0.002614,-0.038269l0.05751,-0.007654l0.099335,0.127563l0.047054,0.089294l-0.023527,0.025513l-0.075808,-0.025513l-0.010456,0.04082l0.049668,0.063781l0.086265,-0.012756l0.067966,-0.04082l0.203899,0.08164l0.125476,0.163281l0.198671,0.08164l0.112406,-0.04082l-0.005228,-0.08164l0.07058,-0.038269l0.216969,0.117358l0.182986,0.14287l-0.002614,0.048474l-0.041825,0.071435l0.018299,0.053576l0.117634,0.068884l-0.018299,0.033166l-0.135932,-0.038269h-0.094107v0.028064l0.062738,0.017859h0.067966l0.041825,0.017859v0.02041l-0.031369,0.017859l0.002614,0.028064Z M1258.465805,532.274851l0.049668,0.022961l0.060124,-0.005103l-0.010456,-0.051025l-0.062738,-0.007654l-0.036597,0.04082Z M1259.840814,535.08974l-0.003485,0.057829l-0.03834,0.034017l0.031369,0.078239l0.108049,0.027213l0.080165,-0.030615l-0.010456,-0.044222l-0.090622,-0.013607l-0.003485,-0.027213l0.097593,-0.02041l0.062738,-0.051025l-0.020913,-0.068034l-0.066224,-0.023812l-0.135932,0.013607l-0.041825,0.037418l0.031369,0.030615Z M1253.169666,530.999222l0.052282,0.012756l0.026141,-0.025513l-0.01307,-0.043371l-0.060124,-0.010205l-0.023527,0.028064l0.018299,0.038269Z M1262.19872,535.747115l-0.020913,0.068884l0.015685,0.155627l0.104563,0.107153l0.182986,0.02041l0.067966,-0.056128l0.026141,-0.06123l-0.023527,-0.043371l0.033983,-0.107153h0.036597l-0.007842,0.058679l0.056639,0.079089l0.027884,0.006803l0.017427,-0.116507l-0.11502,-0.155627l-0.25618,-0.137768l-0.094107,0.002551l-0.081037,0.084192l0.028755,0.094397Z M1262.583862,536.110244l0.062738,-0.027213l0.034854,0.011906l-0.05751,0.049324l-0.074937,0.006803l-0.012199,0.022111l0.109792,0.015308l0.038078,-0.018828l0.031631,-0.067915l-0.010456,-0.047623l-0.062738,-0.051876l-0.040083,-0.004252l-0.030498,0.055277l-0.037469,0.048474l0.048796,0.008504Z M1257.198844,533.392303l0.031369,0.017008l0.05141,-0.032316l0.014813,-0.090144l-0.03834,-0.003402l-0.010456,0.047623l-0.048796,0.06123Z M1256.709139,533.320868l0.020913,0.04082l0.067966,0.02041l0.005228,-0.033166l-0.039211,-0.030615l-0.054896,0.002551Z M1256.897353,533.405059l0.047054,0.002551l0.020913,-0.038269l-0.067966,-0.051025l-0.05751,-0.005103l-0.007842,0.030615l0.065352,0.06123Z M1257.017601,533.530071l0.049668,0.022961l0.120248,-0.079089l-0.033983,-0.04082l-0.117634,-0.022961l-0.033983,0.025513l0.015685,0.094397Z M1257.043742,533.604057l-0.010456,0.043371l0.07058,0.107153l0.031446,0.004603l-0.026218,-0.065834l0.023527,-0.045923l-0.007842,-0.066333l-0.049668,-0.002551l-0.031369,0.025513Z M1256.020763,532.776599l0.033112,-0.003402l0.015685,-0.028914l-0.01917,-0.023812h-0.036597l-0.013942,0.042521l0.020913,0.013607Z M1257.276395,533.792851l-0.007842,0.028064l0.044439,0.005103l0.026141,-0.048474l-0.026141,-0.007654l-0.036597,0.022961Z "/>
</svg>
