<svg xmlns="http://www.w3.org/2000/svg" viewBox="642.014 361.745 58.768 45.253">
  <path d="M691.913,399.389l-0.588,-2.672l0.006,-0.198l0.073,-0.073l0.286,-0.12l0.094,0.006l0.115,-0.011l0.239,-0.161v-0.245l-0.072,-0.078l0.271,-0.235l0.067,0.016l0.172,-0.125l-0.073,-0.24v-0.323l0.282,-0.668l0.365,-0.385l0.813,-1.189l0.719,-1.011l4.207,-4.419l0.336,-7.244l0.626,-4.357l0.048,-0.132l0.883,-1.481l-0.412,-0.361l-0.097,-0.007l-0.083,-0.069l-0.032,-0.115l-0.18,-0.115l-0.164,-0.014l-0.107,-0.09l0.007,-0.09l-0.014,-0.101l-0.247,-0.33l-0.021,-0.097l-0.382,-0.275l-0.049,-0.191l0.035,-0.104l0.224,-0.14l0.049,-0.151l0.036,-0.057l0.005,-0.069l-0.089,-0.062l-1.161,-1.777l-0.313,-0.198l-0.021,-1.975l-0.749,-3.986l-3.004,1.39l-2.017,-1.73l-0.261,-0.193l-0.252,-0.136l-0.347,-0.132l-5.27,-1.124l-16.801,10.391l-6.169,5.443l-5.483,1.122l-0.219,0.01v8.209h-0.204v0.347l-0.031,0.104v0.188l-0.031,0.094v1.59l-0.297,0.172l-0.084,0.099l-0.099,0.354l-0.161,0.25l-0.146,0.313l0.031,0.167l-0.052,0.172l0.01,0.13l-0.026,0.099l-0.166,0.261l-0.105,0.448l-0.078,0.141l-0.109,0.094l-0.193,0.067l-0.24,0.011l-0.109,0.052l-0.24,0.266l-0.167,0.219l-0.208,0.135l-0.006,0.063l0.006,0.109v0.131l-0.079,0.119l-0.099,0.063l-1.715,-0.266l-0.026,0.334l-1.423,-0.037l-4.899,0.271l-1.148,1.05l-0.114,0.069l-0.247,0.038l-0.615,0.042l-0.104,0.056l-0.084,0.003l-0.302,-0.087l-0.111,-0.076l-0.202,-0.031l-0.448,0.121l-0.628,-0.122l0.06,0.29l-0.011,0.049l-0.023,0.031l-0.013,0.05l-0.029,0.047l-0.062,0.034l-0.037,0.065l-0.005,0.081l0.07,0.104l0.084,0.172l-0.265,0.854l0.808,1.826l0.091,0.062l0.026,0.083l0.058,0.099l0.14,0.141l0.006,0.083l0.218,0.225l0.021,0.062l0.178,0.13l0.026,0.073l0.047,0.037l0.062,0.01l0.016,0.047l-0.047,0.073l0.015,0.157l0.115,0.083l0.469,-0.031l0.12,0.078l-0.047,0.062l0.021,0.073l0.125,0.042l0.078,-0.005l0.193,0.021l0.229,0.13l0.105,0.016l0.083,0.172l-0.01,0.088l0.031,0.078l0.255,0.105l0.167,0.166l0.271,0.089l0.11,0.01l0.156,0.131l-0.063,0.047l-0.088,-0.016l-0.063,-0.115l-0.047,-0.005l-0.031,0.042l0.011,0.099l-0.053,0.062l-0.093,0.006l-0.099,-0.052l-0.073,0.01l-0.152,-0.073l-0.062,-0.057l-0.151,0.005l-0.047,-0.026h-0.063v1.011l3.258,1.887l0.214,-0.329h0.093l0.11,-0.166l0.141,0.041l0.166,-0.005l0.1,0.026l0.041,-0.026l0.052,0.031l-0.005,0.053l0.042,0.031l0.104,0.015l0.037,0.079l-0.027,0.073l0.172,0.093l0.089,0.162l0.021,0.219l0.151,0.203l-0.016,0.11l0.032,0.057l-0.052,0.047l-0.136,-0.026l-0.214,0.01l-0.146,0.094l-0.156,0.026l-0.052,0.042l0.005,0.047l-0.032,0.065l1.253,1.686l0.024,-0.021l-0.05,-0.112l0.047,-0.063l0.029,0.013l0.057,-0.023l0.005,-0.078l0.037,-0.024l0.036,0.013l0.039,-0.018l-0.031,-0.12l-0.055,-0.023l-0.018,-0.031l-0.002,-0.047l-0.06,-0.105l-0.032,-0.036l-0.057,-0.125v-0.128l-0.049,-0.07l-0.003,-0.045l0.026,-0.036l-0.005,-0.117l-0.034,-0.068l0.021,-0.057l0.154,-0.006l0.033,-0.034l0.037,-0.005l0.062,0.029l0.032,-0.011l0.015,-0.041l0.034,-0.011l0.045,0.016l0.052,-0.016l0.005,-0.052l0.062,-0.005l0.058,0.031l0.156,-0.015l0.089,-0.063l0.234,-0.01l0.042,0.073l0.052,-0.006l0.104,-0.276l0.052,-0.015l0.032,0.041h0.047l0.073,-0.114l0.104,-0.063h0.156l0.131,0.073l0.041,0.078l0.146,0.12l0.084,0.125l0.062,0.042l0.078,0.016l0.079,0.057l0.036,0.099l0.099,0.078l0.031,0.073l0.068,0.063l0.063,0.005l0.088,0.062l0.037,0.073l0.125,0.094l0.073,0.12l0.193,0.172l0.057,0.021l0.057,0.073l-0.041,0.068l0.088,0.213l0.047,0.021l0.063,0.136l0.088,0.052h0.172l0.344,0.068l0.183,0.182l0.005,0.107l0.065,0.047h0.06l0.026,0.047l-0.042,0.073l-0.002,0.067l0.101,0.045l0.053,0.041l0.062,0.042l0.261,-0.229l-0.037,-0.209l-0.161,-0.083l-0.026,-0.344l0.213,-0.198l-0.021,-0.203l-0.151,-0.329l0.047,-0.354l0.084,-0.178l-0.063,-0.5l0.01,-0.49l0.449,-0.391l0.615,-0.448l0.114,-0.167l0.058,-0.114l0.078,-0.089l0.047,-0.099l0.115,-0.12l0.062,-0.162l0.089,-0.14l0.052,-0.047l0.132,-0.632l0.021,-0.501l-0.021,-0.194v-0.514l0.333,0.007l0.869,-0.779l1.376,-0.326l0.125,-0.042l0.153,0.139l0.132,0.028l0.229,-0.007l0.188,-0.042l0.215,0.007l0.327,0.042l0.139,-0.021l0.146,-0.049l0.167,-0.188l0.076,-0.125l0.383,-0.139l0.291,-0.041l0.348,0.166l0.778,0.306l0.952,0.313l0.244,0.118l0.243,-0.097l0.208,-0.021l0.542,0.271l0.98,1.015l0.445,0.729l0.473,0.549l0.41,0.014l0.257,-0.083l0.368,-0.41l0.146,0.021l0.181,0.069l0.292,0.028l0.18,-0.056l0.772,-0.465l0.625,-0.396h0.118l0.174,0.034l0.264,0.021l0.257,0.049l0.145,-0.002l0.281,0.146l0.203,0.187l0.178,0.047l0.234,0.224l0.052,0.063l0.245,0.203l0.084,0.094l0.156,-0.052l0.141,-0.011l0.109,0.058l0.084,0.005l0.166,0.13l0.126,0.141l0.062,0.162l0.219,0.099l0.563,0.151l0.438,0.151l0.146,-0.005l0.13,0.021l0.485,-0.006l0.068,0.037l0.255,0.005l0.24,0.047l0.203,-0.052l0.552,0.052l0.459,0.01l0.516,-0.557l0.202,-0.289l0.167,-0.083l0.111,-0.167l0.34,-0.327l0.723,-0.333l0.493,-0.014l0.466,-0.056l0.702,-0.271l2.974,-0.09l0.494,0.139l0.326,0.181l0.73,0.16l0.23,0.118l0.236,0.208l0.117,0.115l0.464,0.141l0.05,-0.019l0.02,-0.06l0.042,-0.015l0.06,0.036l0.076,0.024l0.041,-0.021l0.107,0.015l0.003,0.113l0.036,0.002l0.037,-0.052l0.086,0.005l0.062,0.065h0.029l0.031,-0.036h0.071l0.044,0.042l0.049,0.002l0.045,-0.021l0.2,0.034l0.042,0.05l0.031,-0.003l0.045,-0.221l0.039,-0.092l0.107,-0.028l0.073,-0.039l0.002,-0.131l-0.026,-0.036l0.008,-0.034l0.076,-0.068l0.046,-0.135l0.045,-0.047l0.127,0.005l0.05,-0.073h0.031l0.06,0.076l0.044,0.002l0.045,-0.062l-0.008,-0.086l0.026,-0.016l0.073,0.031l0.023,-0.013l-0.002,-0.026l0.07,-0.028l-0.002,-0.06l0.091,-0.118l0.062,-0.002l0.037,-0.026l-0.005,-0.042l0.028,-0.034l0.094,-0.016l0.029,-0.023l-0.034,-0.047l0.008,-0.029l0.135,-0.033v-0.118l0.052,-0.078l0.071,-0.008l0.041,0.039l0.076,-0.002l0.05,-0.065l0.083,-0.032l0.182,-0.005l0.141,-0.107l0.044,-0.015l0.045,0.062l0.062,0.034l0.047,-0.06h0.034l0.029,0.037l0.031,-0.003l0.021,-0.052h0.039l0.031,0.081h0.037l0.026,-0.042l0.054,-0.008l0.037,0.068h0.034l0.031,-0.115l0.047,-0.023l0.052,-0.05l-0.021,-0.054l0.021,-0.034l0.07,0.01l0.021,-0.034l-0.021,-0.041l0.042,-0.128l0.089,-0.055l0.081,-0.143l0.06,0.002l0.026,-0.028l-0.011,-0.055l0.039,-0.024l0.065,0.037l1.012,0.006z"/>
</svg>
