<svg xmlns="http://www.w3.org/2000/svg" viewBox="1264.029 561.166 0.298 0.570">
  <path d="M1264.189,561.498v-0.017l0.015,-0.01 l0.011,0.004v0.014l-0.014,0.012 l-0.012,-0.004Z M1264.142,561.728l0.014,0.008l0.008,-0.008l-0.006,-0.019l0.011,-0.014l0.018,0.004l0.018,-0.011v-0.018l-0.014,-0.006l-0.021,0.007l-0.007,-0.004l0.003,-0.015h-0.019l-0.028,0.018 v0.028l0.019,0.01 l0.003,0.021Z M1264.033,561.229l0.018,-0.006l0.003,0.011l-0.012,0.035v0.023l0.004,0.015 l-0.008,0.019l0.003,0.021l0.012,0.033l-0.01,0.015l0.006,0.01l0.019,-0.004l0.026,0.014l0.006,0.023l0.012,0.004l0.03,-0.019l0.047,0.01l0.011,0.012l0.014,-0.006l0.006,-0.011l0.014,-0.008l0.017,0.006l0.03,-0.004l0.008,-0.014l-0.015,-0.019l0.01,-0.008l0.023,0.003l0.01,-0.012v-0.051l0.01,-0.012 l-0.008,-0.012h-0.012l-0.021,-0.015 l-0.047,-0.006l-0.023,-0.011l-0.017,-0.037l-0.025,-0.018l-0.023,-0.004l-0.018,-0.01h-0.021l-0.035,-0.008v-0.014l-0.015,-0.008 l-0.017,0.011l-0.006,0.035l-0.01,0.012l0.004,0.007Z "/>
</svg>
