<svg xmlns="http://www.w3.org/2000/svg" viewBox="651.348 398.727 44.441 36.000">
  <path d="M653.837025,426.745603l0.003475,-0.024324l0.078184,-0.022586l0.013899,0.010425l-0.010425,0.024324l-0.039961,0.022586h-0.027799l-0.017374,-0.010425Z M653.970806,426.735179l0.015637,-0.020849l-0.008687,-0.015637h-0.015637l-0.012162,0.017374v0.019112h0.020849Z M656.613856,426.664813l0.052123,0.00695l0.059072,-0.010425l0.062547,0.003475v-0.055597l-0.128569,-0.031274l-0.079921,0.013899l-0.017374,0.027799l0.052123,0.045173Z M656.895318,426.703036l0.10077,-0.020849l0.017374,-0.031274l-0.017374,-0.031274l-0.104245,0.027799l-0.020849,0.034748l0.024324,0.020849Z M669.214925,433.93852l-0.205016,-0.029536l-0.086002,0.015637l-0.052123,-0.030378l-0.01523,-0.056765l-0.037382,-0.006923l-0.046422,0.047155l-0.125094,0.028667l-0.023455,0.026061l0.005212,0.04691l-0.031274,0.08079l0.020849,0.023455l0.083396,-0.002606l0.130306,0.031274l0.148549,-0.005212l0.099033,-0.036486l0.158974,-0.020849l0.271037,-0.005212l0.015637,-0.020849l-0.013031,-0.03388l0.020849,-0.067759l-0.018243,-0.036486l-0.065153,0.005212l-0.018243,0.041698l-0.034748,0.009556l-0.022586,-0.024324l-0.033011,0.003475l-0.038223,0.019112l-0.088608,-0.001737Z M664.916549,434.180021l-0.020849,-0.026061l-0.076446,0.005212l-0.036486,0.075578l-0.122488,0.112064l-0.086002,0.143337l-0.031274,0.096427l0.031274,0.054729l0.072972,0.015637l0.145943,-0.026061l0.388313,-0.041698l0.007818,-0.031274l-0.057335,-0.052123l-0.088608,-0.122488l-0.078184,-0.03388l-0.036486,-0.062547l-0.012162,-0.106851Z M669.194076,433.893347l0.008687,0.013899l0.083396,0.012162l0.052123,-0.020849l0.052123,0.001737l0.010425,0.013899l0.024324,-0.001737l0.017374,-0.034748l-0.008687,-0.027799l-0.057335,-0.020849l-0.020849,0.033011l-0.059072,0.017374l-0.036486,-0.010425l-0.04691,0.00695l-0.019112,0.017374Z M669.284368,433.865168l0.024921,0.001385l0.013845,-0.006923v-0.012461l-0.040449,-0.005945l-0.010425,0.012162l0.012108,0.011782Z M672.102517,432.670204l0.012162,0.057335l0.04691,0.036486l0.033011,-0.005212v-0.038223l-0.034748,-0.059072l-0.038223,-0.008687l-0.019112,0.017374Z M672.130315,432.539897l0.038223,0.020849l0.020849,-0.005212l0.003475,-0.022586l-0.052123,-0.029536l-0.013899,0.00695l0.003475,0.029536Z M671.973947,432.625031l0.024324,0.020849l0.038223,0.001737l0.012162,-0.013899l-0.017374,-0.033011l-0.06081,-0.036486l-0.012162,0.00695l0.015637,0.05386Z M671.716809,432.348781l0.019112,0.048648l0.034748,0.052123l0.050385,0.022586l0.066022,0.076446l0.015637,0.055597l0.029536,0.020849l0.015637,-0.010425l-0.012162,-0.06081l-0.066022,-0.095558l-0.012162,-0.078184l-0.031274,-0.034748l-0.140731,-0.078184l-0.015637,0.008687l0.04691,0.072972Z M667.672965,432.999445l0.018243,-0.020849l0.002606,-0.023455l-0.020849,-0.010425l-0.020849,0.020849l-0.002606,0.031274l0.023455,0.002606Z M667.073556,433.58843l0.010425,0.023455l0.059941,0.005212l0.099033,0.072972l0.04691,0.099033l0.018243,-0.007818l-0.031274,-0.229339l-0.028667,-0.039092l-0.086002,-0.015637l-0.049516,0.026061l-0.039092,0.065153Z M667.341987,433.614491l0.049516,0.119882l-0.002606,0.101639l0.036486,0.205884l0.041698,0.052123l0.086002,0.007818l0.065153,-0.018243l0.010425,-0.028667l-0.059941,-0.086002v-0.059941l0.039092,-0.044304l-0.002606,-0.031274l-0.049516,-0.059941l-0.03388,-0.172005l-0.04691,-0.049516l-0.112064,-0.028667l-0.031274,0.028667l0.010425,0.062547Z M667.250773,433.041143l-0.002606,0.122488l0.015637,0.052123l0.039092,0.028667l0.075578,0.229339l0.028667,0.031274l0.093821,0.018243l0.057335,0.059941l0.020849,0.174611l0.057335,0.057335l0.005212,0.04691l-0.039092,0.044304v0.052123l0.04691,0.067759l0.075578,0.007818l0.041698,-0.023455l0.065153,-0.007818l0.088608,0.007818l0.039092,-0.03388l0.04691,-0.164186l-0.013031,-0.099033l-0.005212,-0.08079l0.023455,-0.088608l-0.1277,-0.229339l-0.174611,-0.093821l-0.04691,-0.075578l-0.010425,-0.083396l-0.036486,-0.020849l-0.070365,0.010425l-0.062547,0.028667l-0.049516,-0.013031l-0.08079,-0.135519l0.007818,-0.059941l-0.018243,-0.007818l-0.070365,0.04691l-0.072972,-0.002606l-0.013031,0.026061l0.065153,0.106851Z M668.144675,433.862074l-0.109457,0.119882l-0.158974,0.234552l-0.010425,0.059941l0.028667,0.03388l0.226733,0.018243l0.132913,-0.057335l0.28928,-0.08079l0.018243,-0.03388l-0.026061,-0.044304v-0.166792l0.015637,-0.059941l-0.036486,-0.018243l-0.036486,0.026061l-0.091215,0.005212l-0.072972,-0.044304l-0.075578,-0.106851h-0.03388l-0.059941,0.11467Z M666.170966,434.15396l0.00695,-0.033011l-0.012162,-0.020849l-0.013899,0.001737l-0.005212,0.019112l0.008687,0.034748l0.015637,-0.001737Z M667.584357,432.968171l0.028667,0.03388l0.018243,-0.010425l-0.010425,-0.062547l-0.031274,-0.03388l-0.023455,0.007818l0.018243,0.065153Z M664.562116,434.386774l0.019112,-0.010425l0.019112,-0.026061v-0.024324l-0.013899,-0.005212l-0.027799,0.029536l-0.010425,0.027799l0.013899,0.008687Z M663.973131,434.378087l0.022586,0.003475l0.050385,-0.031274l0.081659,0.003475l0.036486,-0.022586l0.005212,-0.062547l-0.022586,-0.088608l-0.038223,-0.005212l-0.062547,0.017374l-0.045173,0.052123l-0.04691,0.033011l-0.012162,0.039961l0.008687,0.038223l0.022586,0.022586Z M673.125857,432.732751l0.050385,-0.00695l0.017374,-0.008687l-0.001737,-0.015637l-0.055597,0.001737l-0.024324,0.017374l0.013899,0.012162Z  M691.913497,399.389118l0.855,1.213l0.811,1.151l0.453,2.034l-0.012,0.141l-0.066,0.101l0.004,0.059l0.031,0.035l-0.007,0.062l-0.035,0.038v0.046l0.143,0.17l0.083,0.007l0.076,-0.028h0.094l0.035,0.035l0.052,0.003l0.042,-0.035l0.076,-0.003l0.059,0.035l0.094,0.007l0.15,-0.028l0.128,0.031l0.156,0.115l0.073,0.014l0.007,0.048l-0.02,0.025l0.013,0.048l0.101,0.063l0.045,0.08l-0.034,0.038l0.034,0.056l0.129,0.017l0.059,0.087l-0.014,0.035l0.049,0.024l0.083,-0.038l0.07,0.003l0.059,0.108l-0.004,0.052l-0.076,0.073l-0.007,0.083l-0.049,0.06l0.014,0.069l0.042,0.01l-0.004,0.035l-0.093,0.028l-0.028,0.069l0.045,0.08v0.094l0.066,0.098l0.003,0.041l-0.069,0.091l-0.031,0.149l-0.063,0.052l-0.007,0.042l0.031,0.024l-0.003,0.045l-0.031,0.042l0.003,0.118l0.031,0.049l-0.01,0.069l-0.163,0.153l-0.066,0.021l0.003,0.045l0.177,0.056l0.105,0.139l0.059,0.031l0.024,0.17l-0.031,0.143l-0.066,0.104l-0.018,0.094l-0.073,0.059l-0.173,0.08l-0.094,0.014l-0.073,0.041l-0.125,0.146l-0.066,0.025l-0.063,-0.004l-0.052,0.025l-0.021,0.059l-0.302,0.232l-0.229,0.126l-0.091,0.017l-0.069,0.045l-0.052,0.118l-0.06,0.021l-0.031,0.038l-0.059,0.011l-0.055,-0.025l-0.115,-0.02l-0.084,-0.077l-0.041,-0.007l-0.028,0.021l-0.045,-0.007l-0.038,-0.035l-0.209,-0.069l-0.042,-0.028l-0.083,-0.021l-0.049,0.042l-0.007,0.111l-0.066,0.122v0.055l-0.062,0.098l-0.038,0.007l-0.021,0.034v0.039l-0.035,0.048l-0.049,0.014l-0.048,0.059v0.045l-0.056,0.077l-0.017,0.062l-0.094,0.094l-0.049,0.014l-0.073,0.122l0.004,0.055l-0.025,0.049l-0.114,0.014l-0.084,-0.007l-0.027,0.045v0.056l-0.035,0.041l-0.045,0.028l0.007,0.073l0.052,0.059l-0.038,0.212l-0.056,0.063l-0.073,0.01l-0.035,0.118l-0.076,0.014l-0.028,0.066l0.031,0.066l-0.024,0.101l-0.052,0.028l-0.028,0.08l0.007,0.038l-0.056,0.052l-0.104,0.014l-0.003,0.056l0.027,0.02v0.032l-0.031,0.034l-0.01,0.119l-0.049,0.006l-0.003,0.08l0.045,0.042l-0.004,0.066l-0.017,0.045l0.052,0.045l0.035,0.063l-0.021,0.042l-0.073,0.028l-0.097,-0.007l-0.018,0.038l0.042,0.045l-0.007,0.035l-0.059,0.017l-0.01,0.063l-0.028,0.038l0.017,0.191l0.07,0.101l-0.014,0.153l-0.08,0.156l-0.004,0.069l-0.066,0.112l-0.003,0.045l0.017,0.028l-0.01,0.045l-0.059,0.052l-0.052,0.017l-0.025,0.07l-0.055,0.048h-0.066l-0.018,0.035l0.042,0.077l-0.035,0.031l-0.087,-0.059l-0.031,0.014l-0.01,0.048l-0.146,0.028l-0.059,-0.021l-0.115,0.049l-0.056,0.129l0.021,0.076l-0.18,0.087l-0.014,0.139l0.128,0.073l-0.01,0.149l-0.157,0.125l0.018,0.178l0.08,0.055l0.125,0.049v0.055l-0.136,0.178l-0.028,0.107l0.014,0.052l-0.048,0.153l-0.045,0.035l-0.007,0.038l0.027,0.035l-0.048,0.306l-0.059,0.087l-0.105,0.031l-0.097,0.059l-0.156,0.049l-0.056,-0.004l-0.048,0.011l-0.025,0.034l-0.184,0.028l-0.146,0.122l-0.042,0.003l-0.027,0.021l-0.014,0.049l-0.136,0.142l-0.198,0.084l-0.042,0.066l-0.045,0.017l-0.003,0.035l0.052,0.042l0.059,0.01l0.052,-0.028l0.056,0.007l0.045,0.038l-0.004,0.039l-0.041,0.055l-0.011,0.091l0.032,0.055l-0.007,0.115l-0.053,0.107v0.06l-0.048,0.079l-0.014,0.122l0.038,0.063v0.083l-0.115,0.344l-0.159,0.174l-0.028,0.163l-0.028,0.031l0.004,0.053l0.041,0.013l-0.01,0.042l-0.042,0.007l-0.003,0.035l0.027,0.021l-0.007,0.034l-0.024,0.039l0.018,0.052l0.041,0.014v0.038l-0.028,0.042l-0.02,0.08l-0.049,0.024l-0.021,0.055l0.007,0.059l-0.024,0.028l-0.049,-0.003l-0.052,-0.035l-0.077,-0.003l-0.038,-0.011l-0.041,0.011l-0.035,0.139l0.014,0.076l-0.039,0.122l-0.09,0.073l-0.118,0.007l-0.028,0.034l-0.031,0.011l-0.035,-0.007l-0.035,0.01l-0.017,0.073l0.031,0.056l-0.031,0.031h-0.045l-0.16,-0.083l-0.028,-0.052l-0.142,-0.056l-0.07,0.007l-0.055,0.059l-0.105,0.017l-0.02,0.035l0.034,0.035v0.108l0.059,0.107l-0.052,0.118l-0.052,0.025l-0.069,-0.007l-0.025,0.031l-0.003,0.035l-0.122,0.042l-0.132,0.107l-0.003,0.063l-0.066,0.031l-0.045,-0.021l-0.032,-0.045l-0.104,-0.014l-0.049,0.028l-0.003,0.059l-0.035,0.08l-0.017,0.09l0.021,0.768l-0.056,0.056l-0.063,0.104l-0.062,0.042l-0.035,0.076l0.042,0.138l-0.003,0.201l0.045,0.094l-0.076,0.094l0.01,0.062l-0.052,0.047h-0.036l-0.037,0.06l-0.005,0.042l-0.336,0.393l-0.045,0.148l-0.153,0.25l-0.049,0.07l0.028,0.444l0.056,0.063l-0.035,0.063l-0.164,0.037l-0.063,0.059l-0.094,0.021l-0.052,0.069l0.007,0.073l0.042,0.066l-0.011,0.125l-0.055,0.042l-0.073,0.024l-0.059,0.108l0.01,0.09l-0.132,0.195l0.024,0.056l0.077,0.01l0.007,0.066l-0.059,0.077l0.007,0.257l0.08,0.16l-0.049,0.062l-0.09,-0.01l-0.049,0.014l-0.004,0.045l-0.041,0.01l-0.059,-0.042l-0.07,0.039l-0.014,0.083l-0.059,0.028l-0.094,-0.042l-0.08,0.028l-0.041,0.052l-0.188,0.143l-0.083,0.013l-0.042,0.049l-0.007,0.083l-0.066,0.16l-0.083,0.011l-0.084,0.163l0.028,0.07l0.083,0.052l0.011,0.1l-0.056,0.056l-0.014,0.066l0.049,0.094l-0.024,0.059l-0.091,0.045l-0.031,0.097l0.024,0.039l-0.01,0.052l-0.066,0.055l-0.097,0.181l-0.07,0.014l-0.111,-0.028l-0.125,0.028v0.059l0.042,0.097l-0.035,0.084l-0.236,0.034l-0.039,0.07l-0.111,-0.007l-0.128,-0.104l-0.08,0.003l-0.025,0.035l-0.062,0.003l-0.063,-0.045l-0.08,0.014l-0.031,0.08l-0.129,0.028l-0.062,-0.038l0.003,-0.049l-0.041,-0.014l-0.046,0.045l-0.076,-0.017l-0.021,-0.323l0.025,-0.223l-0.122,-0.156h-0.118l-0.153,0.087l-0.157,-0.007l-0.111,-0.076l-0.017,-0.195l-0.045,-0.021l-0.035,0.014l-0.056,-0.031l-0.031,-0.091l-0.135,-0.069l-0.066,-0.115l0.017,-0.104l0.087,-0.156l-0.007,-0.073l-0.219,-0.098l-0.049,0.021l-0.066,-0.031l-0.059,-0.087l-0.198,-0.125l-0.024,-0.083l-0.063,-0.018l-0.055,0.021l-0.098,-0.028l-0.069,-0.09l0.024,-0.115l-0.028,-0.146l-0.059,-0.045l-0.034,0.011l-0.046,0.236l0.004,0.253l-0.073,0.31l-0.063,0.069l-0.086,0.028l-0.035,0.049l-0.045,0.003l-0.053,-0.059l-0.917,0.104l-0.149,-0.184l0.007,-0.156l-0.039,-0.077l0.014,-0.052l-0.031,-0.055l-0.066,-0.014l-0.42,0.41l-0.049,0.014l-0.024,0.052l-0.059,0.038l-0.174,0.146l-0.202,0.205l-0.121,0.083l-0.157,-0.003l-0.073,-0.042l-0.076,0.007l-0.045,0.111l0.003,0.052l-0.031,0.181l0.031,0.031l-0.014,0.042l-0.031,0.024l-0.08,0.216l-0.09,0.358l-0.056,0.028l-0.104,-0.007l-0.024,-0.032l-0.053,-0.01l-0.038,0.021l-0.121,-0.049l-0.046,0.038l-0.024,0.174l-0.181,0.094l-0.08,0.007l-0.156,-0.031l-0.038,0.086l-0.017,0.171l-0.039,0.028l-0.031,0.218h-0.073l-0.149,-0.086l-0.091,-0.039l-0.031,0.021l-0.045,0.216l-0.077,0.097l-0.173,0.292l-0.185,0.055l-0.163,0.143l-0.045,0.115l-0.372,0.34l-0.017,0.049l-0.382,0.306l-0.108,0.038l-0.07,0.149l-0.142,0.07l-0.011,0.041l-0.059,0.052l0.018,0.063l0.076,-0.01l0.056,0.017l0.007,0.069l-0.048,0.053l-0.017,0.042l0.003,0.056l-0.073,0.125l-0.048,0.021l0.013,0.069l0.205,0.184l0.084,0.174l-0.007,0.108l-0.149,0.212l-0.039,0.097l-0.087,0.073l-0.024,0.163l0.052,0.084l-0.059,0.222l-0.069,0.146l-0.011,0.236l0.035,0.139l-0.143,0.268l-0.118,0.052l-0.034,0.059l-0.053,0.031l-0.017,0.063l0.007,0.063l-0.059,0.093l-0.056,0.011l-0.02,0.038l0.027,0.038l-0.007,0.035l-0.041,0.021l-0.063,0.101l-0.045,0.013l-0.014,0.032l0.021,0.055l-0.014,0.042l-0.118,0.017l-0.052,0.077l0.003,0.066l0.084,0.083l0.003,0.087l-0.095,0.068l-0.033,-0.004l-0.027,-0.029l-0.081,0.002l-0.063,0.038l-0.074,0.16l0.007,0.106l0.026,0.055v0.037l-0.079,0.069l-0.12,0.005l-0.052,-0.033l-0.001,-0.066l0.041,-0.038l0.006,-0.033l-0.032,-0.05h-0.022l-0.032,0.042l-0.073,0.038l-0.126,-0.028l-0.014,-0.059l0.029,-0.052l-0.014,-0.035l-0.041,-0.019l-0.051,0.007l-0.116,-0.061l-0.028,-0.063l0.01,-0.041l-0.015,-0.011l-0.035,-0.001l-0.043,-0.056l0.01,-0.038l-0.023,-0.04l-0.076,-0.035l-0.066,-0.08l0.01,-0.068l0.106,-0.109l0.033,-0.08l0.04,-0.04l-0.001,-0.042h-0.018l-0.005,0.035l-0.04,0.037l-0.055,0.083l-0.094,0.099l-0.04,0.002l-0.075,-0.098l-0.135,-0.109l-0.068,-0.045l-0.012,0.009l0.026,0.053l0.109,0.105l0.057,0.029l0.037,0.051l0.026,0.102l0.094,0.156l-0.014,0.011l-0.071,-0.037l-0.082,-0.102l-0.014,-0.073l-0.038,-0.044l-0.188,-0.107l-0.097,-0.124l-0.056,-0.147l-0.045,-0.058l-0.012,0.004l0.031,0.066l0.023,0.123l0.123,0.16l0.08,0.16l0.054,0.062l0.052,0.033l0.056,0.066l0.017,0.056l0.03,0.024l0.041,0.014l0.089,0.07l0.017,0.048l0.042,0.042l0.07,0.028l0.078,0.073l0.003,0.024l-0.014,0.018l-0.003,0.067l0.029,0.058l-0.003,0.147l-0.009,0.033l0.007,0.04l0.035,0.026l0.049,0.129l-0.009,0.047l-0.033,0.021l-0.035,0.003l-0.047,-0.005l-0.057,0.045v0.044l-0.059,0.104l-0.037,0.017l-0.094,-0.001l-0.149,-0.03l-0.212,-0.005l-0.552,0.007l-0.512,0.057l-0.597,0.102l-0.206,0.06l-0.096,0.041l-0.044,-0.01l-0.034,-0.078l-0.089,-0.063l-0.063,-0.005l-0.028,-0.031v-0.029l-0.016,-0.029l-0.044,-0.023l-0.003,-0.029l0.055,-0.055l0.008,-0.07l-0.052,-0.073l-0.019,0.011l0.032,0.06l-0.003,0.052l-0.055,0.06l0.003,0.06l0.049,0.091l-0.007,0.023l-0.076,-0.015l-0.128,0.086l-0.13,-0.016l-0.047,0.008l-0.052,-0.011l-0.023,-0.073l-0.079,-0.002l-0.041,0.041l-0.065,0.006l-0.066,-0.021l-0.135,0.002l-0.104,0.032l-0.045,-0.024l-0.112,-0.2l-0.13,-0.097l-0.188,-0.289l-0.166,-0.057l-0.016,-0.053l-0.011,-0.088l-0.002,-0.107l-0.042,-0.057l-0.112,-0.037l-0.036,0.034l0.026,0.083l0.021,0.024l-0.006,0.023l-0.044,0.006l-0.039,0.02l-0.044,-0.002l-0.068,-0.107l0.002,-0.083l-0.041,-0.014l-0.063,0.047l-0.094,0.006l-0.013,0.054l0.055,0.102l-0.01,0.122l0.023,0.071l0.042,0.052l0.023,0.141l-0.023,0.026l-0.084,-0.008l-0.078,-0.081l-0.057,-0.135l-0.123,-0.136l-0.054,-0.008l-0.011,0.021l0.052,0.024l0.097,0.119l0.057,0.139l0.047,0.067l-0.023,0.042l-0.063,0.081l0.021,0.047l0.075,0.013l0.079,0.07l0.08,0.232l0.027,0.026l0.02,0.125v0.047l0.016,0.037l0.063,0.031l0.002,0.047l-0.065,0.068l-0.049,0.007l-0.029,-0.033h-0.024l-0.023,0.031l-0.086,-0.003l-0.19,-0.065l-0.071,-0.003l-0.041,-0.026l-0.152,-0.458l-0.02,-0.112l0.013,-0.081l0.075,-0.094v-0.068l-0.107,-0.125l-0.062,-0.031l-0.034,-0.042l-0.01,-0.073l-0.063,-0.253l0.003,-0.057l-0.021,-0.039l0.01,-0.029l0.076,-0.028l0.002,-0.026l-0.031,-0.013l-0.036,0.007l-0.063,-0.013l-0.034,-0.041l-0.055,-0.011l-0.01,-0.057l-0.023,0.002l0.002,0.063l0.052,0.039l0.013,0.065l0.078,0.081l-0.002,0.06l0.062,0.255l0.011,0.081l0.047,0.055l0.075,0.039l0.073,0.104l0.003,0.06l-0.068,0.052l-0.044,0.076l0.015,0.148l0.126,0.381l0.005,0.068l0.049,0.086l0.084,0.062v0.026l-0.078,0.013l-0.081,-0.005l-0.099,0.013l-0.06,0.026h-0.146l-0.094,-0.031l-0.026,-0.052l0.008,-0.261l-0.05,-0.12l-0.008,-0.109l0.024,-0.094l0.086,-0.125l0.01,-0.068l-0.015,-0.143l-0.037,-0.021l-0.018,0.021l0.013,0.049v0.125l-0.083,0.133l-0.024,0.115l0.016,0.125l0.026,0.073l-0.003,0.057l-0.023,0.008l-0.045,-0.096l-0.023,-0.141l-0.036,-0.031l-0.003,-0.031l0.049,-0.053l0.008,-0.052l-0.081,-0.067l-0.036,-0.107l-0.021,0.002l0.034,0.115l0.063,0.07l-0.003,0.032l-0.057,0.054h-0.032l-0.099,-0.117l-0.049,-0.023l-0.018,0.02l0.052,0.034l0.075,0.102l0.073,0.034l0.034,0.044l0.026,0.123l-0.013,0.07l0.021,0.076l0.06,0.054l0.068,0.18l-0.019,0.039l-0.06,0.019l-0.059,-0.003l-0.05,0.021l-0.023,0.041l-0.053,0.011l-0.138,-0.112v-0.078l0.024,-0.063l-0.005,-0.32l-0.079,-0.097l-0.125,-0.057l-0.005,-0.052h-0.021l-0.002,0.065l0.119,0.07l0.079,0.099l0.002,0.274l-0.021,0.081l-0.041,0.015l-0.005,0.026l0.028,0.019l0.024,0.067l-0.013,0.032l-0.316,0.023l-0.122,0.029l-0.086,-0.003l-0.039,-0.044v-0.037l0.026,-0.031l-0.005,-0.042l-0.029,-0.049l-0.005,-0.06h-0.021l-0.008,0.047l0.029,0.065l0.005,0.034l-0.039,0.026h-0.063l-0.083,-0.117l-0.084,-0.032l-0.023,-0.039l-0.016,-0.156l0.019,-0.044l-0.013,-0.102l-0.029,-0.039l-0.024,0.002l0.011,0.058l0.018,0.055l0.003,0.028l-0.032,0.051h-0.078l-0.041,-0.051l-0.003,-0.068l-0.018,0.003l-0.011,0.063l0.026,0.057l-0.007,0.031l-0.097,0.099l-0.026,-0.002l-0.008,-0.222l-0.081,-0.138v-0.078l0.037,-0.089l-0.021,-0.002l-0.055,0.093l0.003,0.089l0.057,0.125l0.013,0.13l-0.021,0.04h-0.023l-0.034,-0.066l-0.057,-0.034h-0.034l-0.034,-0.031l-0.023,0.011l0.036,0.057l0.042,0.003l0.052,0.028l0.031,0.076l-0.005,0.047l-0.029,0.026l-0.044,0.177l0.005,0.083l0.026,0.06l-0.015,0.037l-0.303,0.021l-0.094,0.015l-0.086,-0.008l-0.02,-0.046v-0.139l0.044,-0.125l0.044,-0.031h0.089l0.062,-0.042l0.013,-0.065l-0.039,-0.125l0.013,-0.044l-0.02,-0.078l-0.013,0.005l0.01,0.068l-0.047,0.049l-0.057,0.021l-0.027,-0.01l-0.023,-0.038l0.004,-0.024l0.048,-0.028l0.004,-0.033l-0.016,-0.002l-0.012,0.025l-0.047,0.027l-0.009,0.04l0.026,0.049l-0.003,0.026l-0.05,0.023l-0.02,0.038l-0.029,-0.005l-0.04,-0.052l-0.01,-0.072l0.022,-0.081l-0.017,-0.004l-0.032,0.077v0.076l0.079,0.108l0.007,0.095l-0.02,0.013l-0.05,-0.044l-0.017,0.007l0.003,0.045l0.054,0.073l0.021,0.065l-0.004,0.085l-0.022,0.012l-0.256,-0.066l-0.04,-0.03l-0.008,-0.041l0.01,-0.091l0.023,-0.021l-0.002,-0.029l-0.033,-0.049l-0.005,-0.083l0.08,-0.162l0.019,-0.108l-0.021,-0.003l-0.042,0.109l-0.067,0.146l0.005,0.091l-0.021,0.003l-0.024,-0.036v-0.169h-0.018l-0.024,0.113l0.01,0.066l0.042,0.047l0.026,0.005l0.009,0.028l-0.019,0.11l-0.023,0.003l-0.33,-0.2l-0.111,-0.111l-0.108,-0.083l-0.09,-0.049l-0.216,-0.181l-0.326,-0.337l-0.341,-0.511l-0.059,-0.114l-0.268,-0.462l-0.003,-0.084l-0.08,-0.313l-0.104,-0.253l-0.139,-0.223l0.01,-0.038l0.118,-0.038l0.125,0.01l0.046,-0.01l0.059,-0.035l-0.004,-0.024l-0.114,-0.011l-0.115,0.014l-0.087,0.035l-0.038,-0.007l-0.066,-0.087l-0.007,-0.048l0.014,-0.101l-0.035,-0.236l-0.097,-0.285l0.041,-0.056l0.108,0.017h0.097l0.108,-0.031l0.084,0.004l0.086,0.055l0.153,-0.003l0.153,-0.066l0.035,-0.049l0.066,0.011l0.014,-0.028l-0.122,-0.056l-0.097,-0.115l-0.007,-0.191l0.038,-0.076l0.143,-0.007l0.066,0.017l0.083,-0.038l0.028,-0.08l0.045,-0.01l0.066,0.034l0.014,-0.024l-0.059,-0.066l-0.083,0.014l-0.049,0.08l-0.056,0.021l-0.069,-0.014l-0.16,0.031l-0.066,0.104l-0.052,0.271l-0.056,0.021l-0.142,-0.041l-0.028,0.02l0.035,0.049l-0.018,0.031l-0.295,-0.01l-0.379,-0.16l-0.222,-0.222l-0.077,-0.164l0.112,-0.177l0.073,-0.038h0.211l0.192,0.049l0.212,0.014l0.093,-0.084l-0.003,-0.094l0.049,-0.024l0.149,0.014l0.08,0.055l0.135,0.018l0.091,-0.014l-0.014,-0.028l-0.09,0.007l-0.115,-0.031l-0.118,-0.07l-0.153,-0.003l-0.063,0.055l-0.027,0.096l-0.067,0.033l-0.139,-0.021l-0.027,-0.045l-0.098,-0.021l-0.034,0.018l-0.198,-0.011l-0.094,0.031l-0.08,0.066l-0.07,-0.003l-0.177,-0.205l-0.142,-0.278l0.02,-0.216l0.091,-0.076l0.087,0.01l0.118,-0.107l0.181,-0.098l0.159,-0.059l0.042,-0.066l0.118,-0.066l0.243,-0.184l0.014,-0.045l0.066,-0.031l0.077,0.017l0.069,-0.003l0.101,-0.035l0.063,0.017l0.107,0.16l0.084,0.028l0.014,-0.024l-0.059,-0.035l-0.143,-0.174l-0.101,-0.017l-0.083,0.034l-0.056,0.004l-0.087,-0.011l-0.09,0.046l-0.024,0.052l-0.233,0.174l-0.115,0.055l-0.038,0.038l-0.587,0.303l-0.063,0.066l-0.027,0.08l-0.032,0.02l-0.076,-0.048l-0.226,-0.403l-0.323,-0.369l-0.476,-0.46l-0.631,-0.506l-0.407,-0.276l-0.39,-0.141l-1.606,-0.26l-0.474,-0.021l-0.712,0.06l-0.675,0.008l-0.026,0.047l-0.075,0.02l-0.029,-0.013l0.005,-0.088l-0.023,-0.058l-0.047,-0.041l0.016,-0.029l0.213,-0.008l0.063,0.024l0.138,0.008l0.023,-0.026h0.045l0.052,0.007l0.065,-0.021l0.089,-0.072l0.005,-0.05l0.028,-0.031l0.063,-0.011l0.089,0.024l0.169,-0.05l0.031,-0.036l0.047,-0.013l0.068,0.015l0.081,-0.023l0.068,-0.073l-0.006,-0.065l0.039,-0.06l0.107,-0.029l0.091,0.008l0.126,-0.021l0.065,-0.023l0.078,0.005l0.094,0.031l0.054,0.063l0.113,0.039l0.093,-0.003l0.06,0.011l0.034,0.054l0.099,0.06h0.084l0.028,-0.036l0.037,-0.003l0.047,0.034l0.02,0.089l-0.023,0.073h-0.068l-0.078,-0.034h-0.062l-0.027,0.013l-0.036,-0.003l-0.141,-0.057l-0.213,-0.003l-0.06,0.032l0.02,0.026l0.146,-0.008l0.191,0.052l0.067,0.078l0.139,0.042l0.179,0.117l0.052,0.003l0.066,-0.016l0.044,0.003l0.052,0.023l0.065,0.011l0.144,-0.032l0.023,-0.06l-0.034,-0.062l-0.188,-0.078l-0.023,-0.058l0.214,-0.138l0.021,-0.104l-0.047,-0.068l-0.162,-0.023l-0.143,0.062l-0.084,0.071h-0.062l-0.039,-0.034l-0.175,-0.021l-0.055,-0.047l-0.099,-0.01l-0.114,0.015l-0.081,-0.039l-0.055,-0.081l-0.302,-0.039l-0.318,0.008l-0.117,-0.013l-0.058,0.01l-0.156,0.175l-0.125,0.044l-0.055,-0.023l-0.102,0.015l-0.104,0.094l-0.133,0.016l-0.146,-0.039l-0.039,-0.068l0.042,-0.081l-0.003,-0.062l-0.041,-0.018l-0.123,0.072l-0.021,0.076l-0.041,0.013l-0.032,-0.018l-0.031,0.021l0.003,0.08l-0.068,0.227l-0.06,0.068l0.013,0.047l0.039,0.016l-0.01,0.023l-0.146,0.018l-0.042,0.045l0.008,0.031l0.12,0.026l0.073,-0.021l0.031,0.026l-0.018,0.026l-0.347,-0.026l-0.657,0.005l-0.787,0.021l-0.391,0.026l-0.13,0.037l-0.206,0.018l0.005,-0.25l-0.02,-0.063l0.01,-0.047l0.052,-0.026v-0.057l-0.062,-0.052l0.007,-0.063l0.077,-0.056l0.069,-0.132l-0.041,-0.118l-0.007,-0.139l0.048,-0.097l0.112,-0.097l0.013,-0.132l0.028,-0.063l-0.035,-0.069l-0.069,0.007l-0.104,-0.084l0.021,-0.153v-0.354l-0.098,-0.097l0.056,-0.23l0.104,-0.097l0.021,-0.104l-0.076,-0.139l0.104,-0.098l-0.056,-0.424l-0.035,-0.069l-0.013,-0.549l0.048,-0.056h0.111l0.035,-0.062l-0.021,-0.216l-0.208,-0.201v-0.153l-0.056,-0.063l0.049,-0.535l-0.014,-0.16l-0.153,-0.243l-0.014,-0.132l0.07,-0.167l0.041,-0.326l0.07,-0.118l0.007,-0.265l0.062,-0.104l0.007,-0.194l-0.09,-0.098l-0.111,-0.271l0.007,-0.139l0.062,-0.062l0.014,-0.091l-0.049,-0.083l0.007,-0.063l0.091,-0.027l0.09,-0.139l0.021,-0.202l-0.035,-0.222l-0.007,-0.181l-0.048,-0.083l0.007,-0.105l0.048,-0.055l0.007,-0.125l-0.09,-0.105l0.035,-0.125l0.083,-0.021l0.021,-0.055l-0.021,-0.063l0.028,-0.215l-0.049,-0.042l0.007,-0.055l0.056,-0.021l0.048,-0.209l-0.021,-0.278l0.042,-0.055l0.07,0.027l0.146,0.014l0.201,-0.007l0.306,-0.09h0.146l0.215,-0.076l0.028,-0.119l0.097,-0.222v-0.146l0.049,-0.09l0.083,-0.091v-0.291l-0.069,-0.209l-0.007,-0.125l0.083,-0.167l0.125,-0.083l0.209,-0.327l0.056,-0.181l0.09,-0.048h0.111l0.118,-0.063l0.049,-0.104l-0.09,-0.056l-0.049,-0.194l0.021,-0.104l0.111,-0.112l0.313,-0.132l0.118,-0.02l0.125,0.02l0.097,-0.007l0.084,-0.104l0.007,-0.083l0.034,-0.056l0.098,-0.062l0.041,-0.112v-0.229l0.063,-0.188l0.146,-0.111l0.055,-0.16l-0.014,-0.076l-0.097,-0.014l-0.187,-0.146l-0.073,-0.188l0.187,-0.448v-0.114l0.197,-0.141l0.381,0.193l0.047,-0.026l0.026,-0.094l0.01,-0.182l0.052,-0.204l0.084,-0.177l-0.037,-0.417l-0.083,-0.073h-0.063l-0.041,-0.052v-0.073l-0.058,-0.141l-0.073,-0.099l-0.005,-0.083l0.084,-0.313l-0.047,-0.318l-0.141,-0.109l0.01,-0.063l-0.02,-0.12l0.031,-0.156l-0.047,-0.057l-0.05,0.001l-0.591,-0.41l-0.153,-0.167l0.132,-0.598l0.07,-0.565l0.165,-0.378l0.062,0.042l0.261,-0.229l-0.037,-0.209l-0.161,-0.083l-0.026,-0.344l0.213,-0.198l-0.021,-0.203l-0.151,-0.329l0.047,-0.354l0.084,-0.178l-0.063,-0.5l0.01,-0.49l0.449,-0.391l0.615,-0.448l0.114,-0.167l0.058,-0.114l0.078,-0.089l0.047,-0.099l0.115,-0.12l0.062,-0.162l0.089,-0.14l0.052,-0.047l0.132,-0.632l0.021,-0.501l-0.021,-0.194v-0.514l0.333,0.007l0.869,-0.779l1.376,-0.326l0.125,-0.042l0.153,0.139l0.132,0.028l0.229,-0.007l0.188,-0.042l0.215,0.007l0.327,0.042l0.139,-0.021l0.146,-0.049l0.167,-0.188l0.076,-0.125l0.383,-0.139l0.291,-0.041l0.348,0.166l0.778,0.306l0.952,0.313l0.244,0.118l0.243,-0.097l0.208,-0.021l0.542,0.271l0.98,1.015l0.445,0.729l0.473,0.549l0.41,0.014l0.257,-0.083l0.368,-0.41l0.146,0.021l0.181,0.069l0.292,0.028l0.18,-0.056l0.772,-0.465l0.625,-0.396h0.118l0.174,0.034l0.264,0.021l0.257,0.049l0.145,-0.002l0.281,0.146l0.203,0.187l0.178,0.047l0.234,0.224l0.052,0.063l0.245,0.203l0.084,0.094l0.156,-0.052l0.141,-0.011l0.109,0.058l0.084,0.005l0.166,0.13l0.126,0.141l0.062,0.162l0.219,0.099l0.563,0.151l0.438,0.151l0.146,-0.005l0.13,0.021l0.485,-0.006l0.068,0.037l0.255,0.005l0.24,0.047l0.203,-0.052l0.552,0.052l0.459,0.01l0.516,-0.557l0.202,-0.289l0.167,-0.083l0.111,-0.167l0.34,-0.327l0.723,-0.333l0.493,-0.014l0.466,-0.056l0.702,-0.271l2.974,-0.09l0.494,0.139l0.326,0.181l0.73,0.16l0.23,0.118l0.236,0.208l0.117,0.115l0.464,0.141l0.05,-0.019l0.02,-0.06l0.042,-0.015l0.06,0.036l0.076,0.024l0.041,-0.021l0.107,0.015l0.003,0.113l0.036,0.002l0.037,-0.052l0.086,0.005l0.062,0.065h0.029l0.031,-0.036h0.071l0.044,0.042l0.049,0.002l0.045,-0.021l0.2,0.034l0.042,0.05l0.031,-0.003l0.045,-0.221l0.039,-0.092l0.107,-0.028l0.073,-0.039l0.002,-0.131l-0.026,-0.036l0.008,-0.034l0.076,-0.068l0.046,-0.135l0.045,-0.047l0.127,0.005l0.05,-0.073h0.031l0.06,0.076l0.044,0.002l0.045,-0.062l-0.008,-0.086l0.026,-0.016l0.073,0.031l0.023,-0.013l-0.002,-0.026l0.07,-0.028l-0.002,-0.06l0.091,-0.118l0.062,-0.002l0.037,-0.026l-0.005,-0.042l0.028,-0.034l0.094,-0.016l0.029,-0.023l-0.034,-0.047l0.008,-0.029l0.135,-0.033v-0.118l0.052,-0.078l0.071,-0.008l0.041,0.039l0.076,-0.002l0.05,-0.065l0.083,-0.032l0.182,-0.005l0.141,-0.107l0.044,-0.015l0.045,0.062l0.062,0.034l0.047,-0.06h0.034l0.029,0.037l0.031,-0.003l0.021,-0.052h0.039l0.031,0.081h0.037l0.026,-0.042l0.054,-0.008l0.037,0.068h0.034l0.031,-0.115l0.047,-0.023l0.052,-0.05l-0.021,-0.054l0.021,-0.034l0.07,0.01l0.021,-0.034l-0.021,-0.041l0.042,-0.128l0.089,-0.055l0.081,-0.143l0.06,0.002l0.026,-0.028l-0.011,-0.055l0.039,-0.024l0.065,0.037l1.012,0.006z"/>
</svg>
