<svg xmlns="http://www.w3.org/2000/svg" viewBox="653.837 230.448 14.353 13.878">
  <path d="M655.892,239.531l-0.002,0.014l0.026,0.007l0.032,-0.002l0.007,-0.012l-0.028,-0.009l-0.035,0.002Z M655.956,239.306l0.044,-0.005l0.067,0.049l-0.004,0.017h-0.075l-0.074,0.016l-0.014,-0.016l0.056,-0.061Z M656,239.511l0.021,-0.01l0.037,0.003l-0.002,0.014l-0.028,0.01l-0.028,-0.002v-0.016Z M656.197,239.454l0.025,0.007l0.005,0.038l0.049,0.089l-0.016,0.014l-0.028,-0.017l-0.067,-0.092l0.002,-0.024l0.03,-0.014Z M656.624,239.867l0.103,-0.012l0.009,-0.019l-0.021,-0.017l-0.084,0.009l-0.028,0.023l0.021,0.017Z M656.761,239.923l0.04,0.002l0.06,-0.01l-0.004,-0.014l-0.051,-0.014l-0.047,0.005l-0.014,0.019l0.016,0.012Z M656.826,239.964l0.063,0.005l0.011,-0.014l-0.018,-0.014h-0.046l-0.025,0.009l0.014,0.014Z M657.243,239.469l0.14,0.033l0.158,0.061l0.002,0.024l-0.123,0.016l-0.117,-0.033l-0.107,-0.078l0.004,-0.019l0.044,-0.003Z M655.042,240.09l0.034,-0.06l0.042,-0.021l0.042,0.003l0.003,0.029l-0.092,0.065l-0.029,-0.016Z M655.073,240.499l-0.005,-0.024l-0.026,-0.024l-0.014,0.009l0.012,0.026l0.018,0.017l0.016,-0.003Z M654.733,241.184l0.03,0.043l0.135,0.035l0.161,0.012l0.03,-0.023l-0.021,-0.028l-0.212,-0.075l-0.091,-0.003l-0.032,0.038Z M655.122,241.323l0.026,0.038h0.023l0.014,-0.021l-0.026,-0.026l-0.023,-0.005l-0.014,0.014Z M655.392,241.37l0.072,0.021l0.047,-0.002l0.007,-0.017l-0.03,-0.03l-0.053,-0.005l-0.051,0.012l0.007,0.021Z M656.437,241.286l0.049,0.023l0.068,0.009l0.014,-0.014l-0.035,-0.036l-0.081,-0.028l-0.032,0.012l0.016,0.035Z M657.17,240.92l0.028,-0.009l0.007,-0.016l-0.023,-0.014l-0.033,0.012l-0.002,0.017l0.023,0.009Z M656.747,239.228l0.046,0.007l0.011,0.012l-0.025,0.007l-0.046,-0.007v-0.01l0.014,-0.009Z M660.309,235.935l0.055,-0.013l0.06,0.018v0.021l-0.121,0.044l-0.029,-0.018l0.034,-0.052Z M660.387,236.339l0.103,-0.063l0.032,-0.036l0.171,-0.089l0.071,-0.013l0.742,-0.425l0.042,-0.057l0.047,-0.123l0.066,-0.039l0.108,-0.031l0.239,-0.177l0.224,-0.055l0.034,-0.023l0.05,0.003l0.039,0.05l0.41,0.094l0.118,-0.003l0.082,0.026l0.139,0.206l0.003,0.099l-0.095,0.211l-0.118,0.162l-0.208,0.12l-0.082,-0.005l-0.287,0.125l-0.108,0.096l-0.1,0.031l-0.066,-0.01l-0.047,0.018l-0.05,0.096l0.029,0.125l-0.082,0.201l-0.05,0.034l-0.053,0.003l-0.3,0.078l-0.089,-0.016l-0.029,-0.039l-0.276,-0.209l-0.155,-0.073l-0.213,-0.06l-0.126,-0.005l-0.079,0.023l-0.068,-0.031l-0.076,-0.19l0.008,-0.029Z M662.715,235.239l0.029,0.021l-0.016,0.031l-0.032,0.008l-0.021,-0.021l0.003,-0.034l0.037,-0.005Z M662.907,235.241l0.016,-0.018l0.029,0.013l0.013,0.026l-0.013,0.008l-0.032,-0.011l-0.013,-0.018Z M663.633,235.029l0.015,-0.004l0.014,0.008v0.012l-0.011,0.006 l-0.015,-0.008l-0.003,-0.014Z M658.712,233.333l0.058,-0.003l0.068,0.055l-0.003,0.031l-0.066,0.042l-0.053,0.008l-0.042,-0.029l-0.005,-0.065l0.042,-0.039Z M658.846,233.208l0.013,-0.162l0.145,-0.3l0.124,-0.12l0.229,-0.284h0.06l0.16,0.211l0.011,0.057l-0.026,0.06l0.005,0.149l-0.034,0.083l-0.184,0.201l-0.089,0.029l-0.142,0.133l-0.179,0.068l-0.05,-0.01l-0.042,-0.115Z M660.877,231.988l0.028,0.01l-0.002,0.017l-0.037,0.005l-0.025,-0.015l0.011,-0.021l0.025,0.003Z M660.357,231.81l0.028,-0.04l0.061,-0.014l0.074,0.016v0.026l-0.102,0.043l-0.04,-0.003l-0.021,-0.028Z M660.295,231.762l-0.109,0.019l-0.042,0.035l-0.261,0.097l-0.046,0.036l0.005,0.024l-0.019,0.033l-0.039,0.023l-0.028,0.056l-0.158,0.089l-0.084,-0.002l-0.037,0.01l-0.018,0.036l-0.063,0.01l-0.032,-0.026l0.012,-0.038l0.203,-0.12l0.338,-0.221l0.153,-0.082l0.161,-0.023l0.063,0.014l-0.002,0.028Z M660.537,231.32l0.147,-0.094l0.394,-0.063l0.694,-0.167l0.184,0.047v0.047l-0.063,-0.005l-0.153,0.026l-0.068,0.073l-0.116,0.036l-0.179,0.005l-0.116,0.021l-0.105,0.094l-0.605,0.182l-0.063,-0.047l0.047,-0.156Z M662.163,230.987l0.021,0.078l0.121,0.057l0.189,-0.021l0.058,-0.063l0.095,-0.01l0.137,0.031l0.205,-0.016l0.289,-0.083l0.223,-0.016l0.014,-0.031l-0.121,-0.026l-0.626,0.052l-0.189,-0.01l-0.142,-0.042l-0.174,0.016l-0.1,0.083Z M663.69,230.872l-0.004,0.038l0.039,0.017l0.112,-0.024l0.032,-0.028l-0.025,-0.028l-0.109,0.003l-0.046,0.021Z M663.795,230.966l-0.004,0.031l0.046,0.021l0.021,-0.028l-0.011,-0.031l-0.053,0.007Z M664.072,230.795l-0.007,0.08l0.042,0.083h0.042l0.067,-0.076l0.354,-0.035l0.13,-0.07l0.368,-0.115l-0.021,-0.028l-0.414,0.056l-0.386,0.017l-0.119,0.035l-0.056,0.052Z M665.169,230.625v0.024l0.025,0.021l0.018,-0.028l-0.014,-0.028l-0.028,0.01Z M665.337,230.57l0.06,0.063h0.053l0.039,-0.063l0.081,0.003l0.032,-0.031l-0.063,-0.07l-0.077,-0.024l-0.074,0.017l-0.053,0.059l0.004,0.045Z M665.776,230.514l-0.004,0.028l0.049,0.021l0.081,-0.003l0.021,-0.024l-0.021,-0.024l-0.126,0.003Z M661.274,235.255l0.063,0.016l0.068,0.075l-0.014,0.038l-0.039,0.003l-0.105,-0.068l-0.011,-0.05l0.037,-0.014Z M661.314,234.965l0.049,0.016l0.049,0.04l-0.002,0.035l-0.04,0.01l-0.075,-0.049l-0.007,-0.038l0.026,-0.014Z  M663.693,244.313l-0.003,-0.044l0.021,-0.026l-0.002,-0.032l-0.171,-0.104l0.002,-0.049l0.037,-0.006l0.034,0.027l0.037,-0.003l0.063,-0.05v-0.07l-0.031,-0.034l0.021,-0.049l0.105,-0.037l0.061,0.024l0.031,-0.011l0.04,-0.088l-0.003,-0.047l-0.034,-0.026l-0.003,-0.055l0.05,-0.094l-0.045,-0.031l-0.197,-0.065l-0.045,-0.107l0.045,-0.107l-0.023,-0.018h-0.135l-0.029,0.013l-0.031,-0.003l-0.063,-0.029l-0.055,0.008l-0.092,0.047l-0.043,-0.008v-0.036l0.029,-0.034l-0.026,-0.073l-0.071,-0.076v-0.065l-0.042,-0.039l0.008,-0.028l0.095,-0.029l0.05,-0.044l0.039,0.005l0.066,0.12l0.063,0.007l0.055,-0.049l0.021,-0.086l0.147,-0.133l0.092,-0.021l0.166,-0.135l0.047,-0.052l0.132,-0.053l0.11,-0.01l0.04,-0.029l-0.003,-0.026l-0.118,-0.065l0.147,-0.062l-0.055,-0.04l-0.176,0.071l-0.056,0.042l-0.081,-0.006l-0.032,-0.107l-0.01,-0.117l0.045,-0.036l-0.016,-0.06l0.042,-0.06l0.139,-0.125l0.169,-0.271l0.202,-0.133l-0.047,-0.146l0.042,-0.037l-0.016,-0.018l-0.042,-0.008l0.018,-0.182l0.021,-0.063l0.013,-0.127l-0.039,-0.066l-0.008,-0.104l-0.063,-0.091l-0.058,-0.042l-0.1,-0.143l-0.11,-0.115l-0.095,-0.054l-0.013,-0.04l0.092,-0.187v-0.034l-0.068,-0.018l-0.077,-0.008l-0.157,-0.057l-0.032,-0.073v-0.11l0.053,-0.005v-0.029l-0.163,-0.088l-0.148,-0.013l-0.005,-0.042l0.14,-0.083l-0.017,-0.128l-0.109,-0.097l-0.01,-0.066l0.063,-0.046l0.084,0.018l0.109,-0.021l0.154,-0.108h0.07l0.109,0.045l0.182,0.039l0.032,-0.014l-0.004,-0.08l-0.112,-0.118l-0.091,-0.025l0.01,-0.038l0.161,-0.031l0.102,0.066l0.025,0.069l0.101,0.038l0.169,0.004l0.052,-0.028l0.074,0.038l0.017,0.073l0.057,0.018l0.08,-0.011l0.081,0.028l0.045,0.045l0.095,0.021l0.035,-0.087l-0.073,-0.076l0.035,-0.028l0.175,0.024l0.081,0.046l0.108,-0.028l0.049,-0.049l0.218,-0.094l0.417,-0.125l0.084,0.028l0.046,0.059l0.063,-0.003l0.196,-0.143l0.049,-0.139l0.06,-0.031h0.049l0.024,-0.045l-0.056,-0.115l-0.192,-0.111l-0.046,-0.045l-0.126,-0.053l-0.081,-0.003l-0.038,-0.031l0.028,-0.115l0.143,-0.031l0.067,-0.073l0.028,-0.143l0.344,-0.007l0.066,-0.041l0.042,-0.139l0.113,-0.094l0.122,-0.024l0.081,-0.066l0.038,-0.119l0.071,-0.038l0.14,-0.007l0.084,-0.031l0.01,-0.042l-0.084,-0.069l-0.045,-0.139l0.067,-0.241l0.101,-0.135l0.011,-0.122l-0.057,-0.104l-0.066,-0.038l-0.112,-0.132l-0.067,-0.184l-0.035,-0.004l-0.084,0.118l-0.074,0.035l-0.277,-0.062l-0.052,-0.039l-0.298,-0.007l-0.109,-0.041l-0.172,-0.094l0.035,-0.174l-0.091,-0.157l0.126,0.023l0.042,-0.07l0.092,0.023l0.045,-0.01v-0.018l-0.163,-0.12l0.026,-0.133l-0.055,-0.039l0.003,-0.026l0.136,-0.094l0.132,-0.026l0.247,0.015l0.084,-0.021l0.132,0.024l0.034,0.036l0.137,0.019l0.071,-0.042l0.115,0.023l0.037,0.032l0.082,0.007l0.063,-0.046l0.063,-0.835l0.079,-0.14l-0.016,-0.047l0.347,-0.472l0.113,-0.303l0.019,-0.018l-0.021,-0.029l-0.05,-0.331l0.013,-0.177l-0.069,-0.039l-0.015,-0.084l0.042,-0.046v-0.073l0.05,-0.068l0.084,-0.024l-0.063,-0.041l0.029,-0.045v-0.099l-0.02,-0.088l-0.074,-0.032l-0.302,-0.066l-0.084,-0.073l0.004,-0.097l0.024,-0.077l-0.007,-0.024l-0.059,0.028l-0.151,-0.004l-0.267,-0.09l-0.161,-0.111l-0.077,-0.084l-0.039,-0.173l-0.035,-0.042l-0.014,-0.063l0.025,-0.087l-0.028,-0.086l-0.225,-0.077l-0.08,0.007l-0.105,-0.028l-0.309,0.028l-0.344,0.118l-0.203,0.038l-0.533,0.049l-0.2,0.059l-0.084,0.066l-0.063,-0.007l-0.077,-0.062l-0.123,-0.021l-0.168,0.017l-0.053,-0.028l-0.077,0.004l-0.084,0.052l-0.06,0.007l-0.158,-0.021l-0.396,0.042l-0.077,-0.014l-0.351,0.073l-0.245,0.129l-0.603,0.243l-0.245,0.135l-0.05,0.08l-0.087,0.08l-0.147,0.07l-0.179,0.149l-0.095,0.212l-0.049,0.237l-0.081,0.087l-0.014,0.055l0.028,0.052l-0.007,0.049l-0.042,0.031l0.018,0.077l0.115,0.16l-0.003,0.062l-0.025,0.042l0.011,0.087l0.035,0.056l-0.007,0.267l-0.042,0.059l-0.088,0.032l-0.045,0.069v0.063l0.189,0.128l0.088,0.007l0.07,-0.017l0.108,0.01l0.232,0.077l0.13,-0.014l0.056,-0.063l0.165,-0.031l0.059,0.024l0.011,0.035l0.042,0.01l0.084,-0.01l0.042,0.014l-0.011,0.035l-0.108,0.014l-0.07,0.045l-0.197,0.247l-0.035,0.111l-0.003,0.4l0.031,0.073l0.07,0.031l0.113,0.142l0.098,0.039l0.61,-0.011l0.449,-0.121l0.077,-0.07l0.059,-0.007l0.067,0.045l-0.007,0.045l-0.242,0.091l-0.123,0.021l-0.08,-0.021l-0.179,0.045l-0.06,0.066l0.014,0.097l0.12,0.212l0.01,0.101l-0.095,0.23l-0.136,0.173l-0.358,0.226l-0.2,0.091l-0.056,-0.004l-0.067,0.038l-0.035,0.07l-0.15,0.118l-0.123,0.257l-0.063,0.039h-0.067l-0.308,0.087l-0.099,-0.014l-0.056,-0.053l-0.108,-0.059l-0.127,-0.027l-0.049,-0.063l0.018,-0.049l-0.025,-0.02l-0.052,0.02l-0.176,-0.062l-0.242,0.021l-0.077,-0.021l-0.063,-0.066l-0.133,-0.063l-0.088,-0.01l-0.119,0.01l-0.049,-0.031l-0.004,-0.066l-0.042,-0.104l0.007,-0.087l0.042,-0.014l0.169,-0.132l0.003,-0.045l-0.091,-0.042l-0.028,-0.091l0.007,-0.031l0.077,0.007l0.011,-0.024l-0.032,-0.035l0.007,-0.042l0.056,-0.066l0.007,-0.059l-0.168,-0.274l-0.053,-0.139l-0.003,-0.171l0.081,-0.055l0.14,-0.004l0.098,0.07l0.112,0.034l0.088,-0.01l0.066,-0.059l0.155,-0.066l0.063,-0.056l0.017,-0.073l0.046,-0.052l0.098,-0.042l0.046,-0.055l-0.014,-0.143l-0.084,-0.09l-0.137,-0.021l-0.147,0.014l-0.088,0.059h-0.07l-0.116,-0.108l-0.042,-0.073l0.018,-0.368l-0.211,-0.365l-0.07,-0.073l-0.056,-0.007l-0.228,0.062l-0.032,0.066l-0.164,0.094l-0.144,0.018l-0.232,-0.132l-0.031,-0.101l0.014,-0.045l-0.021,-0.063l-0.098,-0.038l-0.13,0.028l-0.06,0.083l-0.028,0.289l-0.063,0.25l-0.094,0.271l-0.053,0.08l-0.053,0.201v0.136l-0.119,0.727l-0.052,0.215l-0.067,0.146l-0.049,0.042l-0.028,0.073l0.017,0.069l-0.021,0.118l-0.273,0.56l-0.354,0.598l-0.261,0.305l-0.394,0.344l-0.079,0.029l-0.037,0.047l-0.029,0.07l-0.231,0.221v0.029l0.094,0.034l0.187,0.122l0.116,0.06l0.189,0.128l0.15,0.06l0.105,0.01l0.124,-0.02l0.273,-0.024l0.111,0.008l0.113,-0.068l0.068,0.016l0.021,0.044l0.032,0.018l-0.013,0.021l-0.05,-0.021l-0.013,-0.041l-0.032,-0.008l-0.118,0.075l-0.119,-0.012l-0.269,0.023l-0.121,0.024l-0.124,-0.008l-0.156,-0.06l-0.119,-0.079l-0.128,-0.049l-0.219,-0.157l-0.11,-0.036l-0.05,0.044l0.008,0.065l-0.026,0.04l-0.035,-0.006l0.011,-0.034l-0.026,-0.096l0.01,-0.044l-0.121,-0.05l-0.15,-0.015l-0.081,0.033l-0.058,0.084l0.002,0.081l0.093,0.153l0.081,0.011l0.076,-0.034l0.053,0.008l0.024,0.039l-0.071,0.107l0.002,0.049l0.105,0.12l0.021,0.055l0.116,0.073l0.145,0.042l0.055,-0.006l0.047,0.026l0.066,0.06l0.04,0.016l0.047,0.003l0.092,0.046l0.042,0.05l-0.005,0.047l0.047,0.036l0.2,0.045l0.092,0.026l0.218,0.099l0.071,0.044l0.116,0.024l0.081,-0.003l0.098,0.021l0.094,0.041l0.085,0.003l0.168,-0.026l0.087,-0.042l0.115,-0.054l0.119,-0.026l0.065,-0.032l0.077,-0.005l0.06,0.026h0.076l0.037,0.037l-0.037,0.026l-0.357,0.039l-0.126,0.039l-0.071,0.049l-0.324,0.058l-0.137,-0.021l-0.076,-0.034l-0.089,-0.008l-0.034,0.013l-0.035,-0.008l-0.026,-0.028l-0.124,-0.016l-0.116,0.013l-0.239,-0.101l-0.091,-0.104l-0.249,-0.153l-0.249,-0.094l-0.333,-0.177l-0.017,-0.055l-0.06,-0.032l-0.172,0.018l-0.354,0.142l-0.019,0.059l0.019,0.11l-0.035,0.064l-0.109,0.08l-0.005,0.042l-0.353,0.016l-0.137,0.076l-0.055,0.075v0.078l0.089,0.102l0.121,0.013l0.184,-0.086l0.042,-0.06l0.058,0.008l0.045,0.057l0.097,0.039l0.04,-0.002l0.052,0.031l0.053,0.112l0.005,0.057l0.034,0.024l0.119,0.005l0.044,0.013l0.074,0.057l0.061,0.006l0.241,-0.068l0.056,0.003l0.11,-0.068l0.042,-0.06l-0.005,-0.037l-0.16,-0.093l-0.1,-0.014l-0.056,-0.026l-0.039,-0.075l-0.076,-0.065l-0.013,-0.05l-0.069,-0.031l-0.079,-0.003l-0.047,0.019l-0.071,-0.008l-0.061,-0.039l-0.089,-0.008l-0.058,0.01l-0.059,-0.008v-0.028l0.058,-0.03l0.058,0.016l0.018,-0.024l-0.021,-0.028l0.042,-0.078l0.058,-0.004l0.04,-0.024l0.003,-0.033l0.19,-0.052l0.119,0.014l0.102,0.055l0.042,0.083l0.01,0.143l0.063,0.102l0.087,0.045l0.153,0.008l0.142,0.052l0.034,0.039l0.063,0.028l0.058,-0.002l0.166,0.117l0.152,0.021l0.231,-0.044l0.082,-0.052l0.011,-0.063l0.031,-0.029l0.066,0.003l0.029,0.034l-0.029,0.081l-0.134,0.093l-0.205,0.079l-0.242,0.018l-0.192,-0.031l-0.174,-0.066l-0.076,0.003l-0.053,0.044l0.013,0.063l0.103,0.078l0.131,-0.013l0.027,0.013l-0.037,0.039l-0.184,0.011l-0.061,-0.034l-0.134,-0.011l-0.105,0.06l-0.139,0.026l-0.04,0.042l0.005,0.036l0.077,0.019l0.063,0.052l-0.003,0.029l0.027,0.02l0.055,0.008l0.058,0.042l0.042,0.068l0.071,0.028l0.155,-0.005l0.129,0.026l0.058,0.042l0.081,0.013l0.04,-0.021l0.076,0.031l0.008,0.039l-0.037,0.029l0.01,0.037l0.171,0.075l0.011,0.06l-0.037,0.044l-0.084,0.013l-0.047,-0.031l-0.048,0.013l-0.008,0.047l-0.055,0.005l-0.039,-0.026h-0.066l-0.103,0.063l-0.055,-0.003l-0.158,-0.088l-0.115,-0.131l-0.014,-0.07l-0.036,-0.055l-0.192,-0.101l-0.124,-0.032l-0.063,0.011l-0.05,-0.016l-0.042,-0.065l-0.047,-0.011l-0.027,0.027l-0.176,0.007l-0.068,-0.036l-0.053,-0.005l-0.06,0.031l-0.108,-0.005l-0.032,-0.021l-0.044,-0.005l-0.061,0.031l-0.026,0.049l-0.066,0.071l-0.053,0.005l-0.036,-0.034l-0.04,-0.073l-0.052,-0.07l-0.071,-0.042l-0.058,-0.078l0.016,-0.05l0.039,-0.002l0.032,0.065l0.126,0.076l0.047,0.046l-0.008,0.034l0.016,0.05l0.026,0.005l0.155,-0.115l0.05,-0.002l0.103,0.023h0.055l0.05,-0.026l0.058,-0.002l0.074,0.049l0.036,-0.008l0.029,-0.039l0.066,-0.036l0.003,-0.05l-0.074,-0.099l-0.097,-0.06l-0.134,-0.01l-0.15,0.044l-0.182,0.018l-0.042,-0.021l-0.092,-0.005l-0.242,0.039l-0.139,-0.026l-0.155,0.042l-0.405,0.253l0.005,0.062l0.163,0.11l0.105,0.075l0.077,0.133l0.17,0.081l0.164,0.008l0.12,-0.029l0.071,-0.062l0.053,0.01l0.005,0.05l0.134,0.106l0.027,0.045l0.044,0.023l0.048,-0.01l0.084,0.015l0.189,0.126l0.124,-0.006l0.016,-0.031l0.052,-0.021l0.05,0.011l0.042,-0.006l0.084,-0.182l0.003,-0.05l0.013,-0.031l0.137,-0.044l0.076,0.008l0.2,0.127l0.089,0.084l0.25,0.075l0.119,0.003l0.136,-0.023l0.087,0.026l0.032,0.046l0.01,0.061l0.336,-0.017l0.033,0.094l0.19,0.012l0.118,-0.049l0.018,-0.052l-0.127,-0.137l-0.042,-0.056l0.003,-0.04l0.036,-0.029l0.001,-0.037l-0.012,-0.04l-0.039,-0.007l-0.001,-0.019l0.216,-0.085l0.083,-0.007l0.042,-0.038l0.235,-0.022l0.042,0.038l-0.067,0.12l0.023,0.124l0.145,-0.039l0.195,0.021l0.078,0.024l0.09,-0.013l0.018,-0.022l-0.004,-0.051l0.011,-0.028l0.064,-0.019l0.035,-0.021l0.035,-0.062l0.129,-0.1l0.042,-0.06l0.092,-0.019l0.126,0.037l0.033,0.046l0.031,0.02l0.045,0.004l0.013,0.019l-0.027,0.053l0.022,0.034l-0.008,0.02h-0.035l-0.029,0.044l0.025,0.112l0.026,0.003l0.012,0.017l-0.026,0.008l-0.128,-0.058l-0.082,-0.013l-0.034,0.029l0.024,0.068l0.076,0.018l0.106,-0.021l0.095,0.003l0.055,0.013h0.037l0.024,-0.024l0.089,0.018l0.032,0.053l0.058,0.026l0.135,-0.131l0.139,-0.099l0.032,-0.054l-0.005,-0.066l0.082,-0.093h0.034l-0.005,0.039l0.05,0.034l0.095,0.002l0.097,0.193l-0.121,0.18l0.219,0.227l0.018,0.151l0.095,0.028l0.135,-0.041l0.161,0.07l-0.042,0.185l0.037,0.021l0.095,-0.011l0.108,0.021l0.166,-0.015l0.029,-0.055l0.264,0.057l0.084,-0.081l0.079,-0.026l0.077,-0.057l0.137,0.021l0.134,0.128l0.027,0.216l0.308,0.115l0.066,0.06l0.151,0.015l0.166,-0.015l0.095,0.044l0.013,0.104l0.042,0.008l0.077,-0.047l0.068,-0.01l0.08,0.088l-0.008,0.05l-0.135,0.107l0.013,0.036l0.045,0.005l0.032,0.019l-0.037,0.046l-0.074,-0.01l-0.032,0.036l0.022,0.11l-0.027,0.026l-0.084,0.018l-0.037,0.112l0.047,0.05l-0.026,0.12l-0.129,0.107l-0.045,0.075l0.031,0.018l0.045,-0.02l0.04,0.007l0.016,0.042l-0.093,0.11l-0.015,0.075l-0.04,0.018l-0.05,-0.013l-0.034,0.024v0.057l-0.053,0.06l-0.122,0.055l-0.026,0.122l0.053,0.11l0.124,0.067l0.034,0.154l-0.039,0.078l0.026,0.013l0.042,-0.018l0.048,-0.002l0.042,0.02l0.039,-0.007l0.012,-0.038l0.1,-0.074l0.049,0.01l0.009,0.04l0.076,0.062l0.075,0.009l0.057,-0.026l0.024,0.004l0.011,0.027l0.024,0.002l0.043,-0.04l0.044,-0.015l0.03,0.015l0.021,0.042l0.088,0.018l0.147,-0.048l0.051,0.004l0.035,0.033l0.125,-0.002z M653.86,241.347l0.021,0.029l-0.002,0.052l0.036,0.039v0.05l-0.075,0.067l-0.003,0.029l0.044,0.026l0.006,0.029l-0.019,0.013l0.037,0.099l0.094,0.096h0.041l0.039,0.026l0.011,0.04l0.065,0.015l0.289,-0.023l-0.039,-0.193l0.037,-0.008l0.034,0.008l0.106,-0.034l0.058,0.021l0.023,-0.024l-0.01,-0.028l0.026,-0.029l0.164,0.077l0.071,-0.003l0.158,0.068l0.202,0.034l0.155,0.068l-0.025,0.059l0.007,0.115l0.042,0.035l0.214,0.007l0.104,-0.054l0.022,0.029l-0.054,0.037l0.034,0.04l0.104,-0.032l0.005,-0.04l0.043,-0.017l0.04,0.024l0.115,-0.05l0.056,-0.052l0.081,-0.045l0.103,0.003l0.085,-0.01l0.389,-0.231l0.253,-0.269l-0.028,-0.051l-0.037,-0.076l-0.092,-0.023l-0.155,0.049l-0.142,0.032l-0.174,-0.018l-0.079,-0.055l-0.018,-0.071l-0.092,-0.057l-0.113,-0.003l-0.037,0.04l0.003,0.052l-0.024,0.07l-0.047,0.034l-0.1,0.013l-0.169,0.083l-0.06,0.039l-0.155,-0.01l-0.069,-0.042l-0.081,-0.007l-0.021,0.039l-0.045,-0.008l-0.016,-0.034l-0.079,-0.008l-0.086,-0.031l-0.056,-0.052l-0.078,-0.029l-0.082,-0.003l-0.226,-0.057l-0.066,-0.052l-0.11,-0.047h-0.119l-0.247,0.076l-0.074,0.005l-0.176,0.073l-0.037,0.036z"/>
</svg>
