<svg xmlns="http://www.w3.org/2000/svg" viewBox="1346.103 521.784 0.674 0.822">
  <path d="M1346.103,522.293l0.006-0.026l0.099-0.06l0.021-0.051l-0.003-0.036l-0.025-0.084l0.014-0.036l0.059-0.058l0.037-0.073l0.069-0.063l0.065-0.007l0.044-0.015l0.037,0.002l0.048,0.014l0.034,0.001l0.044,0.023l0.023,0.045l-0.004,0.051l0.011,0.047l0.027,0.045v0.024l-0.011,0.016l0.006,0.028l0.041,0.078l0.032,0.045l-0.001,0.041l-0.088,0.134l-0.03,0.018l-0.038,0.047l-0.052,0.044l-0.026,0.036l-0.016,0.038l-0.023,0.011h-0.035l-0.048,0.018l-0.031,0.016l-0.033-0.008l-0.041-0.047l-0.042-0.018l-0.044,0.005l-0.017-0.012l0-0.015l0.034-0.027l0.004-0.034l-0.018-0.041l-0.051-0.044l-0.058-0.047L1346.103,522.293z"/>
</svg>
