<svg xmlns="http://www.w3.org/2000/svg" viewBox="1256.504 655.528 1.621 2.171">
  <path d="M1256.78,656.077l0.045,0.007l0.059,-0.007l0.035,0.023l-0.049,0.037l-0.062,0.003l-0.045,-0.037l0.017,-0.027Z M1257.965,655.591l0.042,0.02h0.104l0.014,-0.04l-0.038,-0.04l-0.125,-0.003l-0.059,0.04l0.01,0.04l0.052,-0.017Z M1256.662,657.407l0.121,0.044v0.06l0.028,0.05l0.277,0.064l0.094,0.057l0.073,0.017l0.104,-0.027l0.069,-0.101l0.222,-0.057l0.045,-0.057l-0.187,-0.084l-0.187,-0.034l-0.083,-0.037l-0.055,0.013l-0.035,0.05l-0.243,0.017l-0.159,-0.074l-0.104,-0.034l-0.049,0.064l0.069,0.067Z M1256.68,657.203l0.055,0.064l0.17,0.064l0.103,-0.021l0.018,-0.049l-0.017,-0.11l-0.076,-0.121l0.003,-0.044l0.035,0.007l0.029,0.065l0.068,0.036l0.021,-0.047l-0.036,-0.081l-0.069,-0.044l0.003,-0.04l0.003,-0.063l0.032,-0.007l0.032,0.047l0.099,0.003l0.025,0.2l-0.021,0.057l-0.047,0.048l-0.008,0.037l0.037,0.017l0.076,-0.103l0.049,-0.002l0.194,0.181l0.243,0.06l0.114,-0.034l0.028,-0.134l-0.069,-0.047l-0.035,-0.251l-0.049,-0.07l-0.111,-0.09l-0.003,-0.05l0.097,-0.034l-0.003,-0.077l-0.111,-0.023l-0.021,-0.049l0.08,-0.012l0.021,-0.037l-0.066,-0.057l0.014,-0.034l0.104,0.022l0.016,-0.03l-0.033,-0.037l0.003,-0.055l-0.029,-0.054l-0.074,-0.047l-0.01,-0.037l0.01,-0.02l0.132,0.114l0.038,0.002l0.09,-0.096l-0.017,-0.027l-0.055,0.007l-0.038,-0.02l0.043,-0.09l0.171,0.007l0.035,-0.04l-0.019,-0.087l0.014,-0.094l-0.061,-0.027l-0.104,0.101l-0.166,0.037l-0.016,-0.015l0.083,-0.037l0.024,-0.032l0.049,-0.129l-0.036,-0.015l-0.062,0.05l-0.031,0.003l-0.035,-0.06l-0.191,-0.017l-0.059,0.074l-0.17,0.013l-0.031,0.034l0.111,0.077l0.042,0.104l-0.014,0.127l-0.073,0.117l-0.021,0.114l0.049,0.107l-0.042,0.104l-0.062,0.017l-0.1,0.124l-0.17,0.054l-0.166,0.141l-0.132,0.037l-0.035,0.104l-0.045,0.054l0.003,0.104l0.045,0.09l0.059,0.003l0.042,-0.04l0.031,0.01Z M1258.062,655.743l0.01,-0.027l-0.014,-0.015l-0.035,0.012l0.005,0.027l0.033,0.003Z M1257.83,655.678l0.033,-0.005l0.012,-0.037l-0.016,-0.013l-0.038,0.023l-0.007,0.022l0.016,0.01Z "/>
</svg>
