<svg xmlns="http://www.w3.org/2000/svg" viewBox="1320.301 623.658 3.409 3.048">
  <path d="M1320.50454,624.331259l-0.055374,-0.049246v-0.040406l0.048502,-0.034189l0.006871,-0.100281l0.048984,-0.026367l0.16587,-0.000785l0.034644,-0.055946l-0.047636,-0.108784l0.03118,-0.032635l0.041573,0.004662l0.007795,0.037298l0.085745,0.046622l0.193143,0.009324l0.235582,-0.074595l0.110862,-0.093244l-0.034644,-0.118109l0.06236,-0.037298l0.076218,0.04973l0.131649,0.012433l0.117791,0.055946l0.138578,0.018649l0.041573,0.062163l0.145507,0.034189l0.128185,0.009324l0.190545,-0.024865l0.041573,-0.037298l0.069289,0.006216l0.06236,0.04973l0.131649,-0.018649l0.048502,-0.055946l0.079682,-0.015541l0.069289,0.021757h0.100469l0.013858,0.034189l-0.117791,0.024865l-0.055431,0.065271l0.024251,0.062163l-0.020787,0.018649l-0.051967,-0.04973l-0.058896,-0.015541l-0.100469,0.034189l-0.145507,0.105676l-0.086611,0.094798l-0.098737,0.167839l-0.06236,0.125879l-0.04677,0.186488l-0.028582,-0.009324l0.023385,-0.137535l-0.020787,-0.156183l0.07795,-0.139866l0.12472,-0.054392l0.017322,-0.046622l-0.095272,-0.136758l-0.150703,-0.065271l-0.142042,-0.021757l-0.051967,0.012433l-0.065824,0.052838l-0.025983,-0.024865l0.008661,-0.043514l-0.09354,-0.04973l-0.076218,0.009324l-0.036377,0.135203l0.067557,0.102568l0.103933,0.027973l0.228653,0.018649l0.020787,0.032635l-0.114327,0.074595l-0.098737,0.032635l-0.067557,0.102568l0.051967,0.158514l0.12472,0.088582l0.025983,0.083919l-0.04677,0.055946l0.005197,0.060608l0.129917,0.065271l0.051967,-0.027973l0.01559,-0.174832l0.033778,0.002331l0.018188,0.172501l0.041573,0.186488l0.09354,0.10723l0.17149,0.04196l0.002598,0.055946l-0.106532,0.046622h-0.135113l-0.228653,0.065271l-0.119523,0.055946l-0.150703,0.097906l-0.025983,0.055946l-0.14031,0.069933l-0.150703,-0.023311l-0.10913,-0.097906l-0.010393,-0.102568l-0.036377,-0.060608l-0.010393,-0.121217l-0.07795,-0.097906l0.005197,-0.083919l0.119523,-0.051284l0.23385,-0.135203l0.057163,-0.093244l0.03118,0.004662l-0.005197,0.04196h0.051967l0.051967,-0.065271l-0.005197,-0.144528l-0.09354,-0.205136l-0.176687,-0.223785l-0.145507,-0.032635l-0.14031,0.023311l-0.09354,0.083919l-0.150703,0.009324l-0.135113,-0.046622l-0.036377,0.023311l0.029448,0.048176l-0.006929,0.024865l-0.116059,0.015541l-0.199263,-0.02224Z M1323.671101,626.076177l-0.002598,0.02098l0.020787,0.006993l0.020787,-0.013987l-0.018188,-0.018649l-0.020787,0.004662Z M1323.073484,626.684593l0.051967,0.02098l0.025983,-0.025642l-0.03118,-0.025642l-0.010393,-0.039629l-0.03118,0.004662l-0.018188,0.046622l0.012992,0.018649Z M1322.675939,626.318611l0.007795,-0.027973l-0.018188,-0.018649l-0.028582,0.009324l-0.002598,0.032635l-0.028582,0.018649l-0.002598,0.018649l0.072753,-0.032635Z M1322.790266,626.213712l0.067557,0.067602l-0.010393,0.044291l-0.064958,0.023311l-0.007795,0.032635l0.020787,0.016318l-0.018188,0.046622l0.028582,0.048953l-0.018188,0.046622l-0.028582,0.009324l0.010393,0.02098l0.04677,0.009324l0.007795,0.037298l-0.025983,0.027973l0.023385,0.034966l0.044172,0.006993l0.01559,-0.027973l0.111728,-0.079257l0.025983,-0.076926l-0.010393,-0.034966l0.041573,-0.072264l0.122122,-0.081588l-0.007795,-0.039629l-0.038975,-0.002331l-0.049368,-0.044291l-0.057163,-0.100237l-0.044172,-0.023311l-0.054565,-0.002331l-0.023385,0.04196l-0.044172,0.032635l-0.07795,0.004662l-0.041573,-0.013987l-0.012992,0.013987l0.070155,0.032635Z M1322.501851,626.400199l0.023385,-0.006993l-0.012992,-0.016318l-0.028582,0.002331l-0.010393,0.016318l0.028582,0.004662Z M1320.31925,624.493365l0.020787,-0.004662v-0.016318l-0.020787,-0.006993l-0.018188,0.016318l0.018188,0.011655Z "/>
</svg>
