<svg xmlns="http://www.w3.org/2000/svg" viewBox="1313.255 561.923 3.659 9.847">
  <path d="M1316.571,562.203l0.064-0.092l-0.004-0.035l-0.047-0.047l-0.06-0.01l-0.039-0.023l0.01-0.023l0.094-0.004l0.101,0.012l0.118,0.042l0.043,0.062l0.013,0.049l-0.018,0.021l-0.036-0.018l-0.049-0.003l-0.029,0.029l-0.01,0.047l-0.026,0.016l-0.057-0.005l-0.062,0.005L1316.571,562.203z M1314.713,566.626l0.021,0.043h0.052l0.036-0.038l-0.026-0.043h-0.057L1314.713,566.626z M1316.9,561.941l0.011-0.004l0.003-0.011l-0.011-0.003l-0.01,0.01L1316.9,561.941z M1314.218,568.078l0.01-0.003l-0.003-0.014l-0.011-0.013l-0.007,0.01l0.003,0.013L1314.218,568.078z M1313.269,571.77l0.003-0.013l-0.007-0.006l-0.01,0.006l0.003,0.011L1313.269,571.77z M1314.263,568.104l0.01-0.007l-0.004-0.023l-0.011-0.006l-0.011,0.009v0.017L1314.263,568.104z"/>
</svg>
