<svg xmlns="http://www.w3.org/2000/svg" viewBox="834.215 350.433 29.064 37.796">
  <path d="M847.618,385.06l0.026,0.026l-0.013,0.039l-0.031,0.036l-0.023,-0.016l0.01,-0.07l0.031,-0.016Z M848.452,385.028l0.003,0.039l0.107,0.047l0.073,-0.021l0.003,-0.05l-0.039,-0.047l-0.086,-0.008l-0.06,0.039Z M848.945,384.976l0.01,0.047l0.141,0.055l0.274,-0.031l0.039,-0.057l-0.104,-0.136l-0.07,-0.005l-0.193,0.062l-0.096,0.066Z M850.353,385.046l0.045,-0.014l-0.01,-0.031l-0.049,-0.014l-0.042,0.014v0.031l0.056,0.014Z M857.126,373.183l-0.028,0.028l0.003,0.028l0.031,0.007l0.021,-0.024l-0.003,-0.035l-0.024,-0.003Z M859.075,372.731l0.035,-0.007l0.017,-0.024l-0.014,-0.024l-0.028,0.003l-0.024,0.028l0.014,0.024Z M859.228,373.676l0.024,0.007l0.035,-0.024l0.003,-0.08h-0.028l-0.031,0.035l-0.003,0.063Z M859.054,373.843l-0.118,0.111l-0.083,0.122l-0.052,0.334l0.035,0.327l0.049,0.024l0.063,-0.01l0.045,-0.069l0.139,-0.059l0.045,-0.042l0.031,-0.097l0.052,-0.052l0.101,-0.052l0.069,-0.174l0.031,-0.16l0.097,-0.24l0.094,-0.129l0.142,-0.059l0.195,-0.101l0.069,-0.073l-0.01,-0.035l-0.045,-0.021l-0.028,-0.069v-0.083l-0.021,-0.049l-0.087,-0.059l-0.021,-0.132l0.019,-0.223l-0.05,-0.038l-0.063,0.007l-0.038,0.09l-0.021,0.195l-0.024,0.038l-0.101,0.066l-0.163,0.295l-0.003,0.188l-0.052,0.115l-0.101,0.059l-0.076,-0.021l-0.073,0.003l-0.045,0.073Z M859.443,373.117l0.045,-0.021l0.035,-0.056l-0.024,-0.01l-0.038,0.017l-0.028,0.052l0.01,0.017Z M850.985,350.454l0.031,-0.021l0.045,0.038l-0.017,0.056l-0.045,0.014l-0.028,-0.028l0.014,-0.059Z M850.711,350.516l0.052,0.01l0.028,-0.024l-0.014,-0.028l-0.052,-0.003l-0.028,0.021l0.014,0.024Z M850.37,350.624v-0.09l0.028,-0.042l-0.024,-0.014l-0.045,0.035l-0.007,0.097l0.021,0.028l0.028,-0.014Z  M834.215,379.241l11.154-3.858l2.461-7.67l-1.688-2.739l0.024-0.214l0.042-0.098l-0.014-0.403l-0.042-0.111l0.007-0.438l0.038-0.107l0.031-0.244l0.185-0.253l0.434-0.824l0.052,0.038l0.083-0.121l0.032-0.167l0.191-0.313l0.111-0.09l0.063-0.139l0.097-0.132l-0.011-0.365l-0.125-0.146l-0.017-0.361l-0.059-0.167l-0.108-0.181l0.031-0.059l0.303-0.135l0.09-0.084l0.469-0.191l0.171,0.014l0.111,0.108l0.121,0.041l0.233-0.125l0.242-0.052l0.187-0.021l-0.005-0.104l-0.057-0.104l-0.089-0.099l-0.047-0.104l0.042-0.063l-0.031-0.117l-0.045,0.008l0.011-0.04l-0.316,0.029l-0.132,0.06l-0.092-0.039l-0.112-0.091l-0.086-0.005l-0.005-0.053l0.023-0.057l0.045-0.003l0.07-0.065l0.039-0.099l0.115-0.081v-0.32h-0.026l-0.026-0.128l-0.128-0.174l-0.068-0.159l0.006-0.185l0.174-0.167l-0.081-0.086l0.162-0.138l-0.031-0.097l-0.003-0.094l0.013-0.185l-0.005-0.054l-0.039-0.042v-0.031l-0.026-0.013v-0.43l0.146-0.217h0.216l0.182-0.161l0.18,0.047l0.084,0.083l0.052,0.021l-0.013,0.081l0.065-0.005l-0.068,0.158v0.086l0.039,0.037l0.042,0.026l-0.308-0.086l-0.002,0.065l0.202,0.24l0.006,0.104l0.065,0.064l0.013,0.06l0.039,0.059l0.053,0.002l0.122,0.021l0.13-0.055l0.094-0.093l0.099-0.04l0.008-0.158l0.005-0.105l0.193-0.028l0.086-0.063l0.003-0.044l0.034-0.018l0.06,0.018l0.086-0.058l0.073-0.135l-0.097-0.154l0.089,0.003l0.107-0.029l0.04,0.163l0.103,0.285l0.135,0.204l0.05,0.153l0.034,0.159l0.258,0.519l0.182,0.253l0.2,0.273l0.25,0.223l0.257,0.312l0.195,0.362l0.32,0.431l0.368,0.312l0.389,0.341l0.271,0.146l0.556,0.208l0.382,0.105l0.32,0.132l0.417,0.16l0.264,0.034l0.209-0.027l0.062,0.02l0.056,0.084l0.201,0.118l0.355,0.049l0.389-0.035l0.396,0.09l0.355,0.236l0.069,0.084l0.285,0.042l0.299-0.028l0.153-0.139l0.055-0.007l0.063,0.041l0.188,0.021l0.104,0.063l0.041,0.153l0.195,0.111l0.229,0.056l0.167,0.125l0.063,0.146l0.014,0.159l0.09,0.119l0.354,0.229l0.084,0.16l-0.007,0.097l0.069,0.111l0.112,0.049l0.076,0.125l0.007,0.132l0.236,0.354l0.181,0.209l0.285,0.174l0.132,0.18l0.056,0.265l0.257,0.389l0.139,0.048l0.396,0.459l0.264,0.195l0.264,0.062l0.514,0.097l0.181,0.007l0.076,0.063l0.125,0.25l-0.027,0.688l-0.084,0.236l-0.285,0.306l-0.201,0.389l-0.097,0.264l0.006,0.098l-0.027,0.097l-0.125,0.07l-0.119,0.152v0.084l-0.076,0.139l-0.146,0.104l-0.104,0.181l-0.021,0.153l-0.132,0.305l-0.368,0.57v0.084l-0.077,0.097l-0.452,0.153l-0.639,0.5l-0.452,0.508l-0.333,0.437l-0.014,0.098l0.048,0.035l-0.007,0.069l-0.187,0.153l-0.084,0.222v0.174l0.028,0.118l-0.048,0.084l-0.139,0.055l-0.098,0.104l-0.166,0.098l-0.126,0.18l-0.18,0.417l-0.042,0.313l-0.083,0.146l-0.16,0.111l-0.097,0.084l-0.112,0.007l-0.16-0.091l-0.145-0.007l-0.16,0.028l-0.292-0.097l-0.014-0.111l0.208-0.417l0.077-0.07l-0.056-0.139l-0.201-0.09l-0.146,0.028l-0.313,0.208l-0.076,0.153l0.034,0.083l-0.069,0.119l-0.32,0.132l-0.09,0.146v0.104l0.083,0.09l-0.048,0.077l-0.362,0.208l-0.167,0.292l0.056,0.278l-0.076,0.514l-0.292,0.695l-0.16,0.216l-0.014,0.159l0.049,0.112l0.069,0.034l0.014,0.098l-0.077,0.34l0.014,0.167l0.167,0.215l0.028,0.223l-0.035,0.229v0.32l0.063,0.215l0.055,0.07l0.063,0.021l0.021,0.069l-0.021,0.125l0.028,0.174l0.083,0.195l0.084,0.076l-0.021,0.056l-0.313,0.055l-0.104,0.091l-0.202,0.034l-0.799-0.007l-0.584,0.056l-0.931,0.243l-0.626,0.243l-0.34,0.195l-0.452,0.528l-0.083,0.049l-0.063,0.146l-0.007,0.278l0.021,0.125l-0.014,0.139l-0.062,0.09l-0.035,0.202l0.007,0.097l-0.042,0.181l-0.111,0.16l-0.042,0.18l0.014,0.153l-0.035,0.091l-0.118,0.062l-0.299,0.229l-0.062,0.16l-0.181,0.132l-0.062,0.098l0.021,0.062l-0.035,0.049l-0.202-0.014l-0.208-0.077h-0.299l-0.118,0.049l-0.195,0.028l-0.118-0.035h-0.222l-0.202,0.111l-0.181,0.028l-0.535-0.028l-0.507,0.07l-0.48,0.16l-0.173,0.118l-0.056,0.18l-0.062,0.063l-0.028,0.104l0.007,0.07l-0.035,0.076l-0.264,0.139l-0.202,0.23l-0.083,0.243l0.028,0.201l0.167,0.139l0.055,0.16l-0.035,0.195l-0.139,0.18l-0.007,0.084l0.056,0.09l-0.042,0.132l-0.146,0.07l-0.055,0.076v0.084l-0.056,0.048l-0.111,0.014l-0.209,0.236l-0.027,0.105l-0.174,0.104l-0.111-0.007l-0.07,0.021l-0.062,0.076l-0.306,0.118l-0.132-0.007l-0.139,0.007l-0.07,0.056l-0.257-0.021l-0.153-0.076l-0.076-0.16l-0.257-0.056l-1.008,0.007l-0.917,0.111l-0.23,0.063l-0.083,0.076v0.049l0.049,0.049l-0.028,0.062l-0.313,0.084l-0.375,0.034l-0.243,0.084l-0.209,0.16l-0.125,0.166l-0.264,0.112l-0.334-0.021l-0.479,0.076l-0.765,0.202l-0.139,0.104l-0.104,0.035l-1.105-2.419l-0.257-0.048l0.148-0.194l-2.908-6.327L834.215,379.241z M849.907,354.873l0.073-0.031l0.031-0.055l-0.037-0.094l0.034-0.06l0.071-0.008l0.104,0.042l0.044,0.055l0.084,0.013l0.028,0.044l-0.021,0.099l-0.099,0.037l-0.078,0.073l-0.156,0.041l-0.12-0.026l-0.034-0.069l0.076-0.061L849.907,354.873z M849.383,351.766l0.047-0.007h0.036l0.024,0.015l0.036-0.005l0.029-0.026l0.021-0.034l0.049-0.005l0.037,0.055l-0.013,0.023l0.033,0.089l0.047,0.044v0.078l0.032,0.094l-0.037,0.07l-0.055,0.032l0.019,0.104l0.028,0.013l-0.002,0.102l-0.065,0.067l0.007,0.073l-0.044,0.029l-0.036,0.091l0.002,0.057l0.039,0.053l0.013,0.148l0.042,0.115l-0.031,0.18l-0.007,0.089l0.059,0.021l0.073,0.052l0.021,0.115l0.034,0.034h0.087l0.052,0.021h0.084l0.007-0.017l-0.032-0.021l0.006-0.031l0.031-0.018l0.005-0.073l0.031-0.121l0.007-0.08l-0.013-0.052l0.034-0.087l0.143-0.073l0.09-0.108l0.087-0.173l-0.031-0.049l0.017-0.024l0.038,0.003l0.014-0.024l-0.048-0.032l0.013-0.027l0.07-0.007l0.066-0.112l-0.017-0.041l-0.035-0.045l-0.004-0.07l0.056-0.014l0.101,0.035l0.031-0.024l-0.073-0.07l0.003-0.055l-0.031-0.021h-0.041l-0.018-0.035l0.042-0.059l0.042-0.014l0.013-0.108l-0.045-0.028l-0.083,0.007l-0.035-0.02l0.017-0.046l0.143-0.017l0.038-0.035l0.004-0.041l0.034-0.042l0.084-0.024l-0.004-0.032l-0.118-0.021l-0.059,0.035l-0.038-0.014l-0.035-0.066l-0.038-0.003l-0.042,0.048l-0.035-0.01l-0.003-0.07l0.031-0.055l-0.031-0.017l-0.059,0.034l-0.035,0.07l-0.031,0.003l-0.014-0.066l0.01-0.083l-0.031-0.045l0.021-0.039l0.052-0.007l0.042-0.045l-0.004-0.041l0.039-0.042l0.069-0.011l0.028,0.028l-0.014,0.028l-0.035,0.014l-0.014,0.038l0.014,0.025l-0.003,0.055l0.024,0.011l0.017-0.08l0.066-0.056l0.028,0.004v0.052l-0.014,0.059l0.032,0.066l0.062,0.024l0.15-0.003l0.014-0.039l-0.053-0.076l-0.034-0.004l-0.025,0.028l-0.034-0.017l-0.018-0.077l0.038-0.121l0.039-0.011l0.041,0.032l0.004,0.055l0.028,0.014l0.02-0.069l-0.02-0.063l0.017-0.052l-0.066-0.042l-0.031,0.011l-0.004,0.034l-0.048,0.011l-0.136-0.09l-0.024-0.084l0.021-0.052l0.118-0.087l0.184-0.035l0.073,0.021l0.055-0.017l-0.003-0.045l-0.052-0.025l0.01-0.083l-0.045-0.017l-0.035,0.027l0.004,0.063l-0.045,0.031l-0.202-0.069l-0.049-0.077l-0.114-0.028l-0.049,0.039v0.135l-0.035,0.038h-0.097l-0.003,0.042l0.08,0.122l0.086,0.052l-0.007,0.035h-0.076l-0.083-0.094l-0.049,0.017l-0.049,0.181l0.014,0.09l0.066,0.011l0.164-0.112l0.09-0.01l0.073,0.052l0.007,0.056l-0.035,0.024l-0.052-0.035l-0.111,0.011l-0.073,0.087l-0.077,0.01l-0.1-0.049l-0.046-0.076l-0.118-0.024l-0.041,0.017l-0.046-0.014l-0.024-0.125h-0.052l-0.054,0.028l-0.054,0.08l-0.021,0.198l-0.082,0.105l-0.071,0.058l-0.159,0.278l0.006,0.044L849.383,351.766z"/>
</svg>
