<svg xmlns="http://www.w3.org/2000/svg" viewBox="333.532 414.714 21.819 9.078">
  <path d="M336.343518,416.184625l-0.04902,-0.107843l0.023529,-0.04902l0.109804,0.005882l0.070588,0.082353l-0.007843,0.064706l-0.07451,0.015686l-0.013725,0.060784l-0.039216,0.013725l-0.019608,-0.086274Z M336.786629,416.579093l0.021677,-0.001387l0.019525,-0.046023l0.05098,-0.001961l0.062745,0.05098l0.088235,-0.021569l0.027875,-0.072124l-0.008267,-0.045523l-0.049068,-0.022237l-0.013677,-0.022861l0.029412,-0.021569l-0.007843,-0.080392l-0.088235,-0.068627l-0.054902,0.02549l0.009804,0.080392l-0.045098,0.043137l-0.009804,0.098039l-0.037255,0.07451l0.003896,0.031724Z M336.288616,415.692469l0.145098,0.064706l0.07451,-0.04902l-0.039216,-0.188235l-0.07451,-0.062745l-0.178431,0.023529l-0.021569,0.101961l0.094117,0.109804Z M337.246784,416.578088l0.075817,0.010457v-0.060131l-0.086274,-0.078431l-0.052287,0.002614v0.054902l0.062745,0.070588Z M336.707574,415.958154l0.029402,-0.016993l-0.045089,-0.048367l-0.060793,-0.016339l-0.030056,0.003921l0.02549,0.046405l0.081046,0.031372Z M336.810184,416.041488l0.007843,-0.096078l-0.072549,-0.101961l-0.078431,-0.013725l-0.05098,-0.037255l0.023529,-0.027451l0.182353,0.027451l0.204444,0.12293l0.024324,0.038223l-0.001317,0.044729l-0.092157,0.027451l-0.078431,0.088235h-0.043137l-0.02549,-0.072549Z M353.246299,417.361484v-0.023385l0.041573,0.01559l0.023385,0.044172l-0.018188,0.007795l-0.025983,-0.020787l-0.020787,-0.023385Z M349.152045,419.458569l-0.020787,-0.038975l0.007795,-0.03118l0.025983,-0.005197l0.025983,0.023385l-0.007795,0.044172l-0.03118,0.007795Z M346.403167,417.889682l-0.01559,-0.038975l0.023385,-0.023385l0.044172,0.012992l0.025983,0.044172l-0.025983,0.012992l-0.051967,-0.007795Z M340.30658,422.447321l0.034644,-0.010393l0.024251,0.017322l-0.010393,0.041573l-0.038109,0.020787l-0.034644,-0.020787l0.024251,-0.048502Z M340.612791,421.849973l-0.028758,-0.081046l0.031372,-0.033987l0.047059,0.010457l0.028758,0.070588l-0.013072,0.033987h-0.065359Z M340.742914,421.476985l0.016564,-0.03727l0.020705,-0.004141l0.015184,0.024847l-0.016564,0.024847l-0.027607,0.004141l-0.008282,-0.012423Z M335.882995,419.783184l0.033369,0.010386l0.005017,0.024059l-0.038215,0.018027l-0.038265,0.002594l-0.01303,-0.020329l0.051124,-0.034737Z M336.09646,420.374159l0.018301,-0.049673l0.04183,0.005229l0.010457,0.054902l-0.04183,0.096732h-0.086274l0.002614,-0.052287l0.054902,-0.054902Z M336.160327,419.731303l-0.012126,-0.034644l0.029448,-0.03118l0.048502,0.005197l0.027716,0.029448v0.036377l-0.03118,0.010393l-0.06236,-0.01559Z M338.326521,420.337557l0.010457,-0.04183l0.044444,0.005229l0.070588,0.128104l-0.010457,0.044444l-0.033987,-0.023529l-0.039216,-0.065359l-0.04183,-0.047059Z M338.047436,423.543433l0.031372,-0.058823h0.121568l-0.003922,0.086274l-0.066667,0.101961l-0.043137,-0.027451l-0.039216,-0.101961Z M348.045455,419.315337v-0.054902l0.052287,-0.002614l0.086274,0.078431v0.060131l-0.075817,-0.010457 l-0.062745,-0.070588Z M348.025848,419.840826l0.015686,-0.12549l0.060131,-0.04183l0.078431,0.047059l0.026144,0.101961l-0.060131,0.067974l-0.04183,0.122876l-0.088889,0.002614l-0.039216,-0.081046l0.049673,-0.094117Z M340.14351,422.698337l0.141176,-0.098039l0.141176,-0.015686l0.184313,-0.160784l0.196078,-0.015686l0.098039,0.043137l-0.007843,0.07451l-0.098039,0.05098l-0.094117,-0.039216h-0.094117l-0.109804,0.109804l-0.215686,0.109804l-0.133333,-0.003922l-0.007843,-0.054902Z M337.876848,422.866964l-0.039216,-0.196078l0.133333,-0.243137l0.223529,-0.152941l0.078431,-0.082353h0.082353l0.090196,0.215686l0.007843,0.12549l0.109804,0.058823l-0.003922,0.07451l-0.137255,0.086274l0.003922,0.184313l0.145098,0.168627l0.160784,0.003922l0.094117,0.043137l0.054902,0.133333l-0.062745,0.078431l-0.149019,-0.007843l-0.160784,-0.066667l-0.203921,-0.019608l-0.145098,-0.070588l-0.113725,-0.180392l-0.168627,-0.152941Z M346.286503,418.663965l0.01559,-0.012126l0.012126,0.006929l-0.013858,0.03118h-0.013858v-0.025983Z M348.360487,418.870894l0.039216,-0.010457l0.003922,0.013072l-0.031372,0.019608l-0.006536,0.037908l0.031372,0.023529l-0.003922,0.020915l-0.028758,0.001307l-0.026144,-0.031372l-0.001307,-0.027451l0.023529,-0.047059Z M348.349947,418.630486l0.016564,-0.03727l0.020705,-0.004141l0.015184,0.024847l-0.016564,0.024847l-0.027607,0.004141l-0.008282,-0.012423Z M348.321416,418.500832l-0.003464,-0.01559l0.013858,-0.019054l0.034644,-0.006929l0.005197,0.012126l-0.025983,0.020787l-0.024251,0.008661Z M348.292482,418.306742l0.013858,0.013858l-0.003464,0.024251l-0.027716,-0.003464l-0.006929,-0.024251l0.024251,-0.010393Z M349.046817,419.766461l0.028582,0.007795l0.010393,0.018188l-0.020787,0.020787l-0.033778,-0.007795l-0.005197,-0.020787l0.020787,-0.018188Z M346.537579,417.832434l0.010393,-0.03118l0.034644,-0.013858l0.013858,0.024251l-0.03118,0.027716l-0.027716,-0.006929Z M348.220826,418.471282l0.024597,-0.026518l0.029685,0.002641l0.012111,0.041106l-0.022316,0.037234l-0.0404,-0.00036l-0.003677,-0.054102Z M348.217724,419.001904l0.01069,-0.040593l0.032713,-0.004857l0.027744,0.036745l-0.005437,0.050958l-0.02861,-0.00504l-0.037101,-0.037213Z M348.378788,418.697038l0.003922,-0.031372l0.022222,-0.002614l0.018301,0.020915l-0.014379,0.019608l-0.030065,-0.006536Z M348.288592,418.894423l0.005229,-0.026144l0.027451,-0.007843l0.018301,0.014379l-0.030065,0.026144l-0.020915,-0.006536Z M346.23258,418.601445l-0.01559,-0.038975l0.023385,-0.023385l0.044172,0.012992l0.025983,0.044172l-0.025983,0.012992l-0.051967,-0.007795Z M336.480949,422.818478v-0.028582l0.023385,-0.01559l0.033778,0.01559l-0.007795,0.028582l-0.025983,0.005197l-0.023385,-0.005197Z M338.473904,422.121178l0.034644,-0.010393l0.024251,0.017322l-0.010393,0.041573l-0.038109,0.020787l-0.034644,-0.020787l0.024251,-0.048502Z M337.265002,420.904991l0.016564,-0.03727l0.020705,-0.004141l0.015184,0.024847l-0.016564,0.024847l-0.027607,0.004141l-0.008282,-0.012423Z M338.085308,420.480194l0.015184,0.011043l-0.006902,0.022086l-0.014886,0.003167l-0.0072,-0.023872l0.013804,-0.012423Z M336.906146,420.168112l0.012126,-0.017322l0.01559,0.006929l0.005197,0.022519l-0.012126,0.022519l-0.019054,-0.001732l-0.001732,-0.032912Z M336.394627,420.469567l0.007795,-0.01559l0.025983,0.002598l0.007795,0.018188l-0.025983,0.005197l-0.01559,-0.010393Z M337.176421,420.989796l-0.005197,-0.020787l0.017322,-0.010393l0.060628,0.006929l0.005197,0.025983l-0.013858,0.013858l-0.064092,-0.01559Z M337.345345,420.998601l0.01559,-0.012126l0.012126,0.006929l-0.013858,0.03118h-0.013858v-0.025983Z M338.257863,421.505423l0.030856,-0.016409l0.020628,0.01336l-0.014073,0.039841l-0.025076,0.02902l-0.023614,-0.005041l0.011279,-0.060771Z M338.146621,421.305021l0.039721,-0.013576l0.022158,0.024551l-0.015234,0.043449l-0.045443,0.02369l-0.011646,-0.026614l0.010443,-0.0515Z M338.741148,421.936407l0.04677,-0.002598l0.041573,0.03118l-0.002598,0.023385l-0.044172,0.002598l-0.049368,-0.023385l0.007795,-0.03118Z M348.542845,419.143115l0.029402,-0.016993l-0.045089,-0.048367l-0.060793,-0.016339l-0.030056,0.003921l0.02549,0.046405l0.081046,0.031372Z M348.629768,419.276122l0.018301,0.094117l-0.026144,0.060131v0.054902l0.044444,0.065359l-0.002614,0.044444l-0.033987,0.062745l0.005229,0.081046l0.096732,0.070588l0.088889,0.141176l0.020915,-0.026144l-0.052287,-0.146405l0.054902,-0.044444l0.130719,-0.007843l0.081046,-0.054902l0.026144,-0.120261l-0.031372,-0.099346l0.033987,-0.075817l-0.002614,-0.070588l-0.138562,-0.216993l-0.081046,-0.015686l-0.096732,0.031372l-0.099346,0.005229l-0.044444,0.052287l0.007843,0.115032Z M351.22388,419.127756l0.056863,0.023529l0.035294,-0.003922l0.003922,-0.07451l-0.043137,-0.045098l-0.05098,0.005882l-0.021569,0.062745l0.019608,0.031372Z M350.895266,419.548264l0.023059,0.004824l0.008644,-0.00903l-0.020369,-0.022018l-0.024973,-0.000495l-0.007289,0.011803l0.020929,0.014916Z M351.58012,419.247164l0.019325,-0.00138l0.016564,-0.035889l-0.011043,-0.048313l-0.028988,-0.005521l-0.008282,0.023466l0.012423,0.067638Z M349.210929,417.734833l-0.023215,0.056992l0.004116,0.035272l0.07453,0.00351l0.044859,-0.043385l-0.006164,-0.050947l-0.062863,-0.021222l-0.031264,0.019781Z M336.341374,420.077509l0.073958,0.073958l0.061458,0.01875l0.009265,-0.021596l-0.055099,-0.044029l0.004167,-0.039583l0.072917,-0.035417l-0.00625,-0.041667l-0.141666,-0.039583l-0.123958,0.029167l-0.019792,0.047917l0.125,0.052083Z M339.029793,416.76101l0.034303,0.021829l0.08108,0.009355v-0.021829l-0.049895,-0.034303l-0.071724,0.003118l0.006237,0.021829Z  M352.63075,423.734655l0.27,-0.904l0.094,-0.026l0.047,0.052l0.099,-0.005l0.161,-0.119l0.037,-0.083l-0.089,-0.16l-0.078,-0.191l-0.01,-0.242l0.078,-0.067l0.135,0.01l0.161,0.15l0.172,0.439l0.104,0.087l0.078,-0.036l0.078,-0.181l0.047,-0.025l0.068,0.036l0.047,-0.021l0.047,-0.273l0.026,-0.052l0.067,0.01l0.037,-0.036l0.076,-0.175l0.073,-0.038l0.021,-0.11l0.069,-0.059l0.115,0.024l0.02,-0.079l-0.093,-0.151l-0.004,-0.035l0.084,-0.058l0.01,-0.073l0.066,-0.106l0.152,-0.031l0.077,-0.049l0.311,0.018l0.067,-0.042v-0.037l-0.041,0.003l-0.04,-0.069l0.044,-0.041l0.007,-0.038l-0.166,-0.096l-0.067,-0.083l0.015,-0.22l-0.048,-0.193l-0.067,-0.065l-0.003,-0.069l-0.041,-0.11l-0.063,-0.028l-0.048,-0.117l0.015,-0.052l-0.041,-0.058l-0.048,-0.014l-0.034,0.035l-0.048,-0.007l-0.022,-0.055l-0.059,-0.045l-0.022,-0.103l0.026,-0.055l-0.008,-0.042l-0.059,-0.02l-0.004,-0.028l0.045,-0.12l-0.026,-0.056l-0.061,-0.025l-0.072,-0.15l-0.078,-0.079l-0.078,0.014l-0.056,-0.012l0.004,-0.074l-0.033,-0.028l0.004,-0.041l0.063,-0.045l-0.008,-0.124l0.03,-0.021l0.044,0.011l0.037,-0.028l-0.041,-0.053l0.023,-0.021l0.061,0.021l0.039,-0.031l-0.078,-0.17l0.055,-0.042l0.084,0.047l0.039,-0.026l-0.028,-0.041l0.041,-0.08l-0.104,-0.034l-0.095,0.035l-0.134,-0.011l-0.312,-0.174l-0.009,-0.047l0.026,-0.085l-0.011,-0.077l-0.041,-0.011l-0.032,0.029l-0.034,-0.029l-0.035,-0.098l-0.148,-0.153l-0.034,0.004l-0.006,0.053h-0.049l-0.021,-0.054l-0.136,-0.119l-0.049,-0.02l-0.063,-0.066l-0.018,-0.053l-0.131,-0.154l0.004,-0.035l0.026,-0.028v-0.035l-0.178,-0.18l-0.044,-0.101l-0.19,-0.17l-0.014,-0.046l-0.046,-0.04l-0.006,0.027l0.043,0.087l0.006,0.073l-0.032,-0.004l-0.135,-0.166l-0.153,-0.12l-0.02,-0.06l-0.288,-0.279l-0.116,-0.052l-0.177,-0.016l-0.102,-0.076l-0.157,-0.068l-0.196,-0.044l-0.269,-0.123l-0.058,-0.05l-0.128,-0.031l-0.259,-0.133l-0.363,-0.105l-0.141,-0.063l-0.063,-0.002l-0.087,0.057l-0.175,-0.031l-0.073,0.018l-0.183,-0.091l-0.246,0.015l-0.068,0.063l-0.138,0.003l-0.162,0.06l-0.071,-0.018l-0.154,-0.136h-0.139l-0.102,0.065l-0.159,-0.026l-0.058,-0.068l0.008,-0.183l0.115,-0.1l0.194,-0.002l0.073,-0.092l-0.034,-0.026l-0.11,0.024l-0.546,0.021l-0.128,0.049l-0.183,-0.008l-0.385,-0.117l-0.175,-0.003l-0.196,-0.078l-0.073,0.002l-0.071,0.04l-0.204,-0.008l0.008,-0.045l0.05,-0.036l-0.06,-0.084l-0.134,0.047l-0.049,0.055l-0.084,-0.018l-0.078,0.002l-0.131,0.123l-0.003,0.045l0.042,0.028l-0.021,0.074l-0.285,0.308l-0.185,0.092l-0.097,0.12l0.003,0.086l-0.032,0.003l-0.086,-0.079l-0.123,0.011l-0.139,0.245l-0.005,0.176l-0.031,-0.013l-0.021,-0.079l-0.063,-0.047l-0.016,-0.078l0.029,-0.05l-0.034,-0.063l-0.076,0.019l-0.159,0.222l-0.115,0.068l-0.188,0.24l-0.28,0.121l-0.39,0.081l-0.081,0.06l-0.444,0.055l-0.152,0.091l-0.157,0.026l-0.546,0.249l-0.18,0.151l-0.108,0.021l-0.115,0.084l-0.044,0.099l-0.256,0.23l-0.186,0.019l-0.212,0.078l-0.156,0.107l-0.168,0.008l-0.159,0.092l-0.4,0.052l-0.578,0.021l-0.131,-0.058l-0.151,0.021l-0.16,-0.026l-0.212,-0.013l-0.405,-0.374l-0.332,-0.45l-0.212,-0.141l-0.17,-0.029l-0.049,-0.141l0.034,-0.057l-0.123,-0.1l-0.058,-0.096l-0.13,-0.024l-0.021,0.042l0.07,0.055l0.073,0.018v0.042l-0.109,0.008l-0.11,-0.024l-0.008,0.053l0.251,0.175l0.031,0.11l0.17,0.151l0.102,0.011l0.066,0.089l-0.011,0.125l-0.063,0.06l-0.073,-0.008l-0.091,-0.07l-0.189,-0.016l-0.062,-0.052l-0.076,-0.039l-0.018,0.034l0.041,0.065l-0.081,0.076l-0.12,0.01l-0.076,-0.052h-0.123l-0.18,0.097l-0.131,-0.04l-0.078,-0.151l-0.18,-0.066l-0.131,0.016l-0.139,-0.07l0.026,-0.087l-0.007,-0.188l-0.095,-0.094l0.04,-0.16l0.094,-0.073l0.141,0.029l0.052,0.047l0.026,-0.06l-0.07,-0.167l-0.102,-0.024l-0.016,0.034l0.008,0.06l-0.126,0.034l-0.052,-0.057l-0.099,-0.006l-0.066,0.04l-0.128,-0.081l-0.052,-0.134l-0.107,-0.081l-0.013,-0.086l0.055,-0.005l0.076,0.055l0.062,-0.066l-0.138,-0.154l0.049,-0.123l0.079,-0.029l0.034,-0.172l-0.042,-0.018l-0.073,0.044l-0.144,-0.081l-0.319,-0.28l-0.17,-0.185l-0.07,-0.034l0.002,0.052l0.037,0.057l-0.05,0.013l-0.05,-0.07l-0.078,0.008l-0.003,0.172l-0.072,0.047l-0.084,0.004l-0.059,-0.036l-0.074,0.006l-0.037,-0.052l0.002,-0.06l-0.026,-0.032l-0.05,0.008l-0.058,-0.046l0.01,-0.079l-0.057,-0.035l-0.076,0.016l-0.059,-0.006l-0.039,-0.088l-0.05,-0.005l-0.042,0.037l-0.078,-0.076l-0.087,0.01l-0.094,0.152l0.045,0.089l-0.013,0.099l0.096,0.032l0.008,0.06l-0.337,0.094v1.482l0.065,0.005l0.087,-0.048l0.039,0.008l0.031,0.095l0.188,0.1l0.079,0.091l0.091,0.011l0.131,0.078l0.018,0.073l0.093,0.054l0.01,0.11l-0.118,0.037l-0.017,0.053l-0.085,0.068l-0.109,0.008l-0.049,0.051l-0.169,0.026l-0.076,0.103l0.052,0.042l-0.018,0.063l-0.158,0.107l-0.014,0.089l0.109,0.172l0.058,0.005l0.039,0.034l-0.013,0.061l0.123,0.157l0.029,0.245l-0.057,0.065l0.026,0.182l-0.135,0.226l-0.23,0.027l-0.194,0.226l-0.231,0.111l0.002,0.087l0.131,0.066l0.069,0.106l0.047,-0.051l0.106,0.038l0.072,0.113l-0.014,0.112l0.083,0.067l0.002,0.151l0.1,0.186l-0.037,0.125l0.009,0.071l-0.047,0.055l0.1,0.025l0.075,-0.102l0.025,-0.052l-0.084,-0.214l0.014,-0.22l-0.016,-0.19l0.114,-0.167l0.206,-0.072l0.219,-0.069l0.216,-0.014l0.612,0.216l0.045,0.012l0.039,-0.012l0.034,-0.06l-0.155,-0.035v-0.019l0.185,0.002l0.045,-0.048l0.049,-0.091l0.004,-0.067l0.026,-0.004l0.022,0.076l-0.048,0.054l-0.003,0.057l0.071,0.02l-0.025,0.062l0.059,0.008l0.066,-0.031l0.093,0.008v0.058l-0.123,0.086l-0.037,0.006l-0.03,-0.02l-0.041,-0.009l-0.008,0.023l0.103,0.108l0.048,0.017l0.057,-0.054l0.164,-0.017l0.033,-0.091l-0.007,-0.069l-0.094,-0.019l-0.011,-0.066l0.031,-0.08l0.102,0.003l0.124,-0.082l0.035,0.001l0.013,0.029l-0.11,0.05l-0.027,0.029l0.099,0.071l0.068,0.014l0.061,-0.041l0.073,-0.178l0.03,-0.006l0.041,0.033l0.084,0.007l-0.004,0.024h-0.051l-0.025,0.044l0.032,0.007l0.028,0.025l-0.041,0.033l-0.028,-0.015l-0.034,0.004l-0.034,0.086l0.015,0.026l0.052,-0.033l0.042,-0.002l-0.008,0.069l-0.045,0.021l-0.017,0.04l0.067,0.016l0.009,0.02l-0.096,0.054l0.017,0.055l0.061,0.027l0.075,-0.009l0.045,-0.025l0.045,0.026l-0.022,0.043l0.043,0.019l-0.002,0.038l-0.044,0.032l0.004,0.033l0.065,-0.021l0.004,-0.119l0.059,-0.048l-0.006,-0.042l0.014,-0.006l0.089,0.041l0.08,0.003l0.059,0.021l0.117,0.004l0.037,-0.02l0.041,0.004l0.04,0.039l0.069,-0.002l0.071,-0.071l0.087,-0.042l0.025,0.008l-0.069,0.042l-0.01,0.094l0.037,0.025l0.071,0.002l0.128,0.079l0.143,0.022l0.197,0.101l0.093,0.026l0.007,-0.047l-0.08,-0.066l0.019,-0.017l0.07,0.028l0.023,-0.024l-0.054,-0.11l0.005,-0.065l0.029,-0.011l0.16,0.273l0.103,0.18l0.006,0.046l-0.09,0.049l-0.002,0.024l0.04,0.011l0.046,0.105l0.045,0.009l0.043,0.05l-0.022,0.013l-0.002,0.029l0.071,0.06l0.06,0.14l0.015,0.006l0.015,-0.055l0.007,-0.108l0.018,-0.004l0.059,0.145l-0.003,0.034l-0.027,0.021l-0.004,0.077l-0.023,0.031l0.006,0.038l0.113,0.008v0.025l-0.031,0.041l0.007,0.041l0.133,0.033l-0.006,0.017l-0.046,0.005l-0.023,0.036l-0.006,0.161l0.033,0.039l0.002,0.031l-0.021,0.025l-0.002,0.028l0.093,0.085l0.045,-0.013l0.013,-0.056l0.04,-0.019l0.151,0.058l-0.041,0.076l-0.1,0.04l-0.001,0.027l0.086,0.036l0.204,0.019l0.063,0.077l0.176,0.01l0.174,0.071l0.088,0.013l0.01,-0.032l0.048,0.004l0.054,0.084l0.094,0.015l0.093,0.066l0.052,0.012l0.067,-0.059l0.015,-0.085l-0.032,-0.065l0.031,-0.065l0.01,-0.078l-0.06,-0.051l0.002,-0.06l0.089,-0.034l0.061,-0.086l-0.001,-0.136l-0.044,-0.056l0.003,-0.089l-0.046,-0.014l-0.09,-0.074l-0.01,-0.055l0.058,-0.035l-0.02,-0.03l0.028,-0.008l0.03,0.05l-0.067,0.045l0.068,0.059l0.067,-0.011l0.124,0.054l0.116,0.013l0.093,-0.047l0.043,-0.136l0.05,-0.053l0.028,0.002l-0.043,0.167l0.028,0.168l-0.096,0.119l0.003,0.075l0.21,0.09l0.001,0.032l-0.037,0.042l-0.008,0.053l0.071,0.066l-0.006,0.032l-0.076,0.004l-0.007,0.039l0.031,0.078l0.212,0.143l-0.01,0.032l-0.002,0.079l0.106,0.122l0.004,0.043l-0.067,0.107l0.003,0.076l0.103,0.054l0.089,0.125v0.044l-0.048,0.077l0.002,0.064l0.099,0.085l0.027,0.086l0.002,0.07l-0.048,0.015l-0.054,0.069l0.002,0.121l-0.043,0.026l-0.01,0.04l0.149,0.075l0.019,0.066l0.066,0.033l0.07,-0.018l0.138,0.029l0.082,-0.002l0.047,-0.039l0.031,-0.001l0.024,0.017l0.124,0.006l0.037,0.019l0.062,-0.001l0.268,-0.095l0.17,-0.003l0.044,-0.02l0.201,0.002l0.047,-0.04l0.046,-0.001l0.053,0.016l0.171,-0.003l0.05,-0.092l0.058,-0.018l0.045,-0.039l0.009,-0.064l0.026,-0.017l0.135,-0.03l0.022,-0.039l-0.093,-0.119l0.011,-0.03l0.043,-0.004l0.161,-0.184l0.088,-0.045l0.114,-0.004l0.227,0.043l0.144,0.002l0.067,-0.042l0.178,-0.009l0.084,-0.064l0.149,-0.018l0.086,-0.037l0.032,-0.075v-0.145l-0.098,-0.135l-0.033,-0.127l-0.073,-0.171l-0.087,-0.033l-0.028,-0.096l-0.127,-0.123l-0.056,-0.13l-0.094,-0.05l-0.041,0.042l-0.026,-0.004l0.008,-0.092l-0.198,-0.23l-0.231,-0.132l-0.12,-0.147l-0.056,-0.231l-0.091,-0.118l-0.094,-0.011l-0.099,-0.034l-0.153,-0.091l-0.102,-0.161l-0.03,-0.36l0.042,-0.174l0.034,-0.015l0.04,0.018l0.037,-0.013l0.091,-0.176l0.089,-0.074l0.003,-0.075l0.022,-0.015l0.051,0.06l0.16,-0.002l0.081,-0.024l0.244,0.017l0.163,-0.052l0.434,-0.267l0.187,-0.103l0.278,-0.171l0.111,-0.149l0.172,-0.108l0.055,-0.1l0.238,-0.068l0.136,-0.072l0.24,-0.2l0.016,-0.042l-0.031,-0.004l-0.151,0.137l-0.128,0.033l-0.172,-0.071l-0.101,-0.056l0.016,-0.021l0.112,0.02l0.073,-0.042l-0.007,-0.059l0.015,-0.027l0.045,0.039l0.078,-0.031l0.046,-0.109l0.008,-0.072l-0.063,-0.197l0.046,-0.156l0.176,-0.201l0.081,-0.004l0.067,-0.031l0.12,-0.004l0.066,-0.029l0.121,-0.005l0.071,-0.045l0.011,-0.075l-0.062,-0.092l-0.026,-0.104l-0.127,-0.132l-0.043,-0.057l0.06,0.016l0.151,0.135l0.021,0.082l0.04,0.086l0.077,0.004l0.107,-0.14l0.12,-0.107l0.258,-0.048l0.428,-0.021l0.441,0.036l0.121,0.032l0.074,0.009l0.082,-0.14l0.011,-0.102l0.023,0.004l0.012,0.118l-0.084,0.15l0.018,0.029l0.076,-0.012l0.141,0.065l0.4,0.155l0.151,0.096l0.061,0.194l0.107,0.137l0.063,0.006l0.1,-0.116l0.069,0.002l0.123,0.114l0.012,0.167l0.077,0.062l0.201,0.044l0.075,0.07l0.09,0.014l-0.019,0.088l0.033,0.055h0.094l0.073,0.074l0.225,0.116l0.022,0.122l0.062,0.106l-0.037,0.031l-0.039,-0.055l-0.059,-0.035l-0.023,0.037l0.149,0.218l-0.016,0.243l0.153,0.088l0.045,0.165l0.174,0.163l0.051,-0.004l0.002,-0.097l0.044,-0.064l0.009,-0.073l-0.076,-0.141l-0.004,-0.165l-0.043,-0.08l-0.012,-0.09l0.043,-0.024l0.057,0.088l0.008,0.238l0.045,0.094l0.141,-0.133l0.075,0.017l0.013,0.063l0.075,0.012l0.065,-0.2l0.047,-0.036l0.06,0.038l0.047,0.002l0.014,-0.053l-0.057,-0.042l-0.011,-0.078l0.051,-0.008l0.072,0.159l-0.043,0.065l0.043,0.082l-0.014,0.088l-0.102,0.006l-0.082,0.057l0.008,0.092l0.135,0.028l0.128,-0.106l-0.01,-0.118l0.096,-0.09l0.08,0.016l0.108,0.16l0.053,0.018l-0.01,-0.11l-0.082,-0.125l0.031,-0.077l-0.004,-0.045l-0.051,-0.017l-0.005,-0.059l0.039,-0.012l0.094,0.086l-0.063,0.1l0.092,0.118l0.075,0.182l0.047,0.212l0.119,0.153l0.016,0.135l0.104,0.079l0.155,0.008l0.241,0.094l0.179,0.17l0.029,0.11l-0.033,0.045l-0.02,-0.088l-0.151,-0.167l-0.229,-0.094l-0.057,0.002l0.039,0.051l0.12,0.055l0.055,0.045l-0.099,0.006l-0.119,-0.092l-0.143,-0.035l-0.116,-0.106l-0.035,-0.163l-0.096,-0.133l-0.098,-0.022l-0.096,-0.098l-0.016,-0.11l-0.065,-0.067l-0.041,0.012l-0.016,0.104l-0.084,0.151v0.135l-0.053,0.079l-0.116,0.031l-0.094,-0.043l-0.029,0.01l-0.012,0.063l-0.053,0.043l-0.07,-0.008l-0.024,0.025l0.051,0.112l0.157,0.124l0.014,0.084l-0.044,0.186l-0.188,0.167l-0.182,0.035l-0.171,-0.031l-0.011,-0.116l-0.038,-0.01l-0.084,0.098l-0.014,0.122l0.081,0.127l0.007,0.13l0.057,0.17l0.047,0.112l0.159,0.092l0.043,0.069l0.022,0.126l0.176,0.272l0.016,0.112l-0.055,0.074l0.006,0.063l0.167,0.098l0.031,0.061l0.102,0.045l0.041,0.051l-0.017,0.076l0.033,0.053l0.084,0.022l0.014,0.051l-0.043,0.118l0.031,0.027l0.069,0.016l0.08,0.094l0.037,0.11l0.161,0.109l0.02,0.061l0.043,0.024l0.049,-0.036l0.029,0.028l-0.027,0.071l0.031,0.029l0.053,0.004l0.036,0.027l-0.028,0.039v0.075l0.153,0.202l0.065,0.033l0.204,0.193l0.097,0.042z"/>
</svg>
