<svg xmlns="http://www.w3.org/2000/svg" viewBox="333.532 414.714 21.819 9.078">
  <path d="M336.344,416.185l-0.049,-0.108l0.024,-0.049l0.11,0.006l0.071,0.082l-0.008,0.065l-0.075,0.016l-0.014,0.061l-0.039,0.014l-0.02,-0.086Z M336.787,416.579h0.022l0.02,-0.047 l0.051,-0.002l0.063,0.051l0.088,-0.022l0.028,-0.072l-0.008,-0.046l-0.049,-0.022l-0.014,-0.023l0.029,-0.022l-0.008,-0.08l-0.088,-0.069l-0.055,0.025l0.01,0.08l-0.045,0.043l-0.01,0.098l-0.037,0.075l0.004,0.032Z M336.289,415.692l0.145,0.065l0.075,-0.049l-0.039,-0.188l-0.075,-0.063l-0.178,0.024l-0.022,0.102l0.094,0.11Z M337.247,416.578l0.076,0.01v-0.06l-0.086,-0.078l-0.052,0.003v0.055l0.063,0.071Z M336.708,415.958l0.029,-0.017l-0.045,-0.048l-0.061,-0.016l-0.03,0.004l0.025,0.046l0.081,0.031Z M336.81,416.041l0.008,-0.096l-0.073,-0.102l-0.078,-0.014l-0.051,-0.037l0.024,-0.027l0.182,0.027l0.204,0.123l0.024,0.038v0.045l-0.093,0.027 l-0.078,0.088h-0.043l-0.025,-0.073Z M353.246,417.361v-0.023l0.042,0.016l0.023,0.044l-0.018,0.008l-0.026,-0.021l-0.021,-0.023Z M349.152,419.459l-0.021,-0.039l0.008,-0.031l0.026,-0.005l0.026,0.023l-0.008,0.044l-0.031,0.008Z M346.403,417.89l-0.016,-0.039l0.023,-0.023l0.044,0.013l0.026,0.044l-0.026,0.013l-0.052,-0.008Z M340.307,422.447l0.035,-0.01l0.024,0.017l-0.01,0.042l-0.038,0.021l-0.035,-0.021l0.024,-0.049Z M340.613,421.85l-0.029,-0.081l0.031,-0.034l0.047,0.01l0.029,0.071l-0.013,0.034h-0.065Z M340.743,421.477l0.017,-0.037l0.021,-0.004l0.015,0.025l-0.017,0.025l-0.028,0.004l-0.008,-0.012Z M335.883,419.783l0.033,0.01l0.005,0.024l-0.038,0.018l-0.038,0.003l-0.013,-0.02l0.051,-0.035Z M336.096,420.374l0.018,-0.05l0.042,0.005l0.01,0.055l-0.042,0.097h-0.086l0.003,-0.052l0.055,-0.055Z M336.16,419.731l-0.012,-0.035l0.029,-0.031l0.049,0.005l0.028,0.029v0.036l-0.031,0.01l-0.062,-0.016Z M338.327,420.338l0.01,-0.042l0.044,0.005l0.071,0.128l-0.01,0.044l-0.034,-0.024l-0.039,-0.065l-0.042,-0.047Z M338.047,423.543l0.031,-0.059h0.122l-0.004,0.086l-0.067,0.102l-0.043,-0.027l-0.039,-0.102Z M348.045,419.315v-0.055l0.052,-0.003l0.086,0.078v0.06l-0.076,-0.01 l-0.063,-0.071Z M348.026,419.841l0.016,-0.125l0.06,-0.042l0.078,0.047l0.026,0.102l-0.06,0.068l-0.042,0.123l-0.089,0.003l-0.039,-0.081l0.05,-0.094Z M340.144,422.698l0.141,-0.098l0.141,-0.016l0.184,-0.161l0.196,-0.016l0.098,0.043l-0.008,0.075l-0.098,0.051l-0.094,-0.039h-0.094l-0.11,0.11l-0.216,0.11l-0.133,-0.004l-0.008,-0.055Z M337.877,422.867l-0.039,-0.196l0.133,-0.243l0.224,-0.153l0.078,-0.082h0.082l0.09,0.216l0.008,0.125l0.11,0.059l-0.004,0.075l-0.137,0.086l0.004,0.184l0.145,0.169l0.161,0.004l0.094,0.043l0.055,0.133l-0.063,0.078l-0.149,-0.008l-0.161,-0.067l-0.204,-0.02l-0.145,-0.071l-0.114,-0.18l-0.169,-0.153Z M346.287,418.664l0.016,-0.012l0.012,0.007l-0.014,0.031h-0.014v-0.026Z M348.36,418.871l0.039,-0.01l0.004,0.013l-0.031,0.02l-0.007,0.038l0.031,0.024l-0.004,0.021h-0.029l-0.026,-0.03 v-0.027l0.022,-0.047 Z M348.35,418.63l0.017,-0.037l0.021,-0.004l0.015,0.025l-0.017,0.025l-0.028,0.004l-0.008,-0.012Z M348.321,418.501l-0.003,-0.016l0.014,-0.019l0.035,-0.007l0.005,0.012l-0.026,0.021l-0.024,0.009Z M348.292,418.307l0.014,0.014l-0.003,0.024l-0.028,-0.003l-0.007,-0.024l0.024,-0.01Z M349.047,419.766l0.029,0.008l0.01,0.018l-0.021,0.021l-0.034,-0.008l-0.005,-0.021l0.021,-0.018Z M346.538,417.832l0.01,-0.031l0.035,-0.014l0.014,0.024l-0.031,0.028l-0.028,-0.007Z M348.221,418.471l0.025,-0.027l0.03,0.003l0.012,0.041l-0.022,0.037h-0.04l-0.004,-0.054 Z M348.218,419.002l0.011,-0.041l0.033,-0.005l0.028,0.037l-0.005,0.051l-0.029,-0.005l-0.037,-0.037Z M348.379,418.697l0.004,-0.031l0.022,-0.003l0.018,0.021l-0.014,0.02l-0.03,-0.007Z M348.289,418.894l0.005,-0.026l0.027,-0.008l0.018,0.014l-0.03,0.026l-0.021,-0.007Z M346.233,418.601l-0.016,-0.039l0.023,-0.023l0.044,0.013l0.026,0.044l-0.026,0.013l-0.052,-0.008Z M336.481,422.818v-0.029l0.023,-0.016l0.034,0.016l-0.008,0.029l-0.026,0.005l-0.023,-0.005Z M338.474,422.121l0.035,-0.01l0.024,0.017l-0.01,0.042l-0.038,0.021l-0.035,-0.021l0.024,-0.049Z M337.265,420.905l0.017,-0.037l0.021,-0.004l0.015,0.025l-0.017,0.025l-0.028,0.004l-0.008,-0.012Z M338.085,420.48l0.015,0.011l-0.007,0.022l-0.015,0.003l-0.007,-0.024l0.014,-0.012Z M336.906,420.168l0.012,-0.017l0.016,0.007l0.005,0.023l-0.012,0.023l-0.019,-0.002l-0.002,-0.033Z M336.395,420.47l0.008,-0.016l0.026,0.003l0.008,0.018l-0.026,0.005l-0.016,-0.01Z M337.176,420.99l-0.005,-0.021l0.017,-0.01l0.061,0.007l0.005,0.026l-0.014,0.014l-0.064,-0.016Z M337.345,420.999l0.016,-0.012l0.012,0.007l-0.014,0.031h-0.014v-0.026Z M338.258,421.505l0.031,-0.016l0.021,0.013l-0.014,0.04l-0.025,0.029l-0.024,-0.005l0.011,-0.061Z M338.147,421.305l0.04,-0.014l0.022,0.025l-0.015,0.043l-0.045,0.024l-0.012,-0.027l0.01,-0.051Z M338.741,421.936l0.047,-0.003l0.042,0.031l-0.003,0.023l-0.044,0.003l-0.049,-0.023l0.008,-0.031Z M348.543,419.143l0.029,-0.017l-0.045,-0.048l-0.061,-0.016l-0.03,0.004l0.025,0.046l0.081,0.031Z M348.63,419.276l0.018,0.094l-0.026,0.06v0.055l0.044,0.065l-0.003,0.044l-0.034,0.063l0.005,0.081l0.097,0.071l0.089,0.141l0.021,-0.026l-0.052,-0.146l0.055,-0.044l0.131,-0.008l0.081,-0.055l0.026,-0.12l-0.031,-0.099l0.034,-0.076l-0.003,-0.071l-0.139,-0.217l-0.081,-0.016l-0.097,0.031l-0.099,0.005l-0.044,0.052l0.008,0.115Z M351.224,419.128l0.057,0.024l0.035,-0.004l0.004,-0.075l-0.043,-0.045l-0.051,0.006l-0.022,0.063l0.02,0.031Z M350.895,419.548l0.023,0.005l0.009,-0.009l-0.02,-0.022h-0.025l-0.007,0.011 l0.021,0.015Z M351.58,419.247h0.019l0.017,-0.037 l-0.011,-0.048l-0.029,-0.006l-0.008,0.023l0.012,0.068Z M349.211,417.735l-0.023,0.057l0.004,0.035l0.075,0.004l0.045,-0.043l-0.006,-0.051l-0.063,-0.021l-0.031,0.02Z M336.341,420.078l0.074,0.074l0.061,0.019l0.009,-0.022l-0.055,-0.044l0.004,-0.04l0.073,-0.035l-0.006,-0.042l-0.142,-0.04l-0.124,0.029l-0.02,0.048l0.125,0.052Z M339.03,416.761l0.034,0.022l0.081,0.009v-0.022l-0.05,-0.034l-0.072,0.003l0.006,0.022Z  M352.631,423.735l0.27,-0.904l0.094,-0.026l0.047,0.052l0.099,-0.005l0.161,-0.119l0.037,-0.083l-0.089,-0.16l-0.078,-0.191l-0.01,-0.242l0.078,-0.067l0.135,0.01l0.161,0.15l0.172,0.439l0.104,0.087l0.078,-0.036l0.078,-0.181l0.047,-0.025l0.068,0.036l0.047,-0.021l0.047,-0.273l0.026,-0.052l0.067,0.01l0.037,-0.036l0.076,-0.175l0.073,-0.038l0.021,-0.11l0.069,-0.059l0.115,0.024l0.02,-0.079l-0.093,-0.151l-0.004,-0.035l0.084,-0.058l0.01,-0.073l0.066,-0.106l0.152,-0.031l0.077,-0.049l0.311,0.018l0.067,-0.042v-0.037l-0.041,0.003l-0.04,-0.069l0.044,-0.041l0.007,-0.038l-0.166,-0.096l-0.067,-0.083l0.015,-0.22l-0.048,-0.193l-0.067,-0.065l-0.003,-0.069l-0.041,-0.11l-0.063,-0.028l-0.048,-0.117l0.015,-0.052l-0.041,-0.058l-0.048,-0.014l-0.034,0.035l-0.048,-0.007l-0.022,-0.055l-0.059,-0.045l-0.022,-0.103l0.026,-0.055l-0.008,-0.042l-0.059,-0.02l-0.004,-0.028l0.045,-0.12l-0.026,-0.056l-0.061,-0.025l-0.072,-0.15l-0.078,-0.079l-0.078,0.014l-0.056,-0.012l0.004,-0.074l-0.033,-0.028l0.004,-0.041l0.063,-0.045l-0.008,-0.124l0.03,-0.021l0.044,0.011l0.037,-0.028l-0.041,-0.053l0.023,-0.021l0.061,0.021l0.039,-0.031l-0.078,-0.17l0.055,-0.042l0.084,0.047l0.039,-0.026l-0.028,-0.041l0.041,-0.08l-0.104,-0.034l-0.095,0.035l-0.134,-0.011l-0.312,-0.174l-0.009,-0.047l0.026,-0.085l-0.011,-0.077l-0.041,-0.011l-0.032,0.029l-0.034,-0.029l-0.035,-0.098l-0.148,-0.153l-0.034,0.004l-0.006,0.053h-0.049l-0.021,-0.054l-0.136,-0.119l-0.049,-0.02l-0.063,-0.066l-0.018,-0.053l-0.131,-0.154l0.004,-0.035l0.026,-0.028v-0.035l-0.178,-0.18l-0.044,-0.101l-0.19,-0.17l-0.014,-0.046l-0.046,-0.04l-0.006,0.027l0.043,0.087l0.006,0.073l-0.032,-0.004l-0.135,-0.166l-0.153,-0.12l-0.02,-0.06l-0.288,-0.279l-0.116,-0.052l-0.177,-0.016l-0.102,-0.076l-0.157,-0.068l-0.196,-0.044l-0.269,-0.123l-0.058,-0.05l-0.128,-0.031l-0.259,-0.133l-0.363,-0.105l-0.141,-0.063l-0.063,-0.002l-0.087,0.057l-0.175,-0.031l-0.073,0.018l-0.183,-0.091l-0.246,0.015l-0.068,0.063l-0.138,0.003l-0.162,0.06l-0.071,-0.018l-0.154,-0.136h-0.139l-0.102,0.065l-0.159,-0.026l-0.058,-0.068l0.008,-0.183l0.115,-0.1l0.194,-0.002l0.073,-0.092l-0.034,-0.026l-0.11,0.024l-0.546,0.021l-0.128,0.049l-0.183,-0.008l-0.385,-0.117l-0.175,-0.003l-0.196,-0.078l-0.073,0.002l-0.071,0.04l-0.204,-0.008l0.008,-0.045l0.05,-0.036l-0.06,-0.084l-0.134,0.047l-0.049,0.055l-0.084,-0.018l-0.078,0.002l-0.131,0.123l-0.003,0.045l0.042,0.028l-0.021,0.074l-0.285,0.308l-0.185,0.092l-0.097,0.12l0.003,0.086l-0.032,0.003l-0.086,-0.079l-0.123,0.011l-0.139,0.245l-0.005,0.176l-0.031,-0.013l-0.021,-0.079l-0.063,-0.047l-0.016,-0.078l0.029,-0.05l-0.034,-0.063l-0.076,0.019l-0.159,0.222l-0.115,0.068l-0.188,0.24l-0.28,0.121l-0.39,0.081l-0.081,0.06l-0.444,0.055l-0.152,0.091l-0.157,0.026l-0.546,0.249l-0.18,0.151l-0.108,0.021l-0.115,0.084l-0.044,0.099l-0.256,0.23l-0.186,0.019l-0.212,0.078l-0.156,0.107l-0.168,0.008l-0.159,0.092l-0.4,0.052l-0.578,0.021l-0.131,-0.058l-0.151,0.021l-0.16,-0.026l-0.212,-0.013l-0.405,-0.374l-0.332,-0.45l-0.212,-0.141l-0.17,-0.029l-0.049,-0.141l0.034,-0.057l-0.123,-0.1l-0.058,-0.096l-0.13,-0.024l-0.021,0.042l0.07,0.055l0.073,0.018v0.042l-0.109,0.008l-0.11,-0.024l-0.008,0.053l0.251,0.175l0.031,0.11l0.17,0.151l0.102,0.011l0.066,0.089l-0.011,0.125l-0.063,0.06l-0.073,-0.008l-0.091,-0.07l-0.189,-0.016l-0.062,-0.052l-0.076,-0.039l-0.018,0.034l0.041,0.065l-0.081,0.076l-0.12,0.01l-0.076,-0.052h-0.123l-0.18,0.097l-0.131,-0.04l-0.078,-0.151l-0.18,-0.066l-0.131,0.016l-0.139,-0.07l0.026,-0.087l-0.007,-0.188l-0.095,-0.094l0.04,-0.16l0.094,-0.073l0.141,0.029l0.052,0.047l0.026,-0.06l-0.07,-0.167l-0.102,-0.024l-0.016,0.034l0.008,0.06l-0.126,0.034l-0.052,-0.057l-0.099,-0.006l-0.066,0.04l-0.128,-0.081l-0.052,-0.134l-0.107,-0.081l-0.013,-0.086l0.055,-0.005l0.076,0.055l0.062,-0.066l-0.138,-0.154l0.049,-0.123l0.079,-0.029l0.034,-0.172l-0.042,-0.018l-0.073,0.044l-0.144,-0.081l-0.319,-0.28l-0.17,-0.185l-0.07,-0.034l0.002,0.052l0.037,0.057l-0.05,0.013l-0.05,-0.07l-0.078,0.008l-0.003,0.172l-0.072,0.047l-0.084,0.004l-0.059,-0.036l-0.074,0.006l-0.037,-0.052l0.002,-0.06l-0.026,-0.032l-0.05,0.008l-0.058,-0.046l0.01,-0.079l-0.057,-0.035l-0.076,0.016l-0.059,-0.006l-0.039,-0.088l-0.05,-0.005l-0.042,0.037l-0.078,-0.076l-0.087,0.01l-0.094,0.152l0.045,0.089l-0.013,0.099l0.096,0.032l0.008,0.06l-0.337,0.094v1.482l0.065,0.005l0.087,-0.048l0.039,0.008l0.031,0.095l0.188,0.1l0.079,0.091l0.091,0.011l0.131,0.078l0.018,0.073l0.093,0.054l0.01,0.11l-0.118,0.037l-0.017,0.053l-0.085,0.068l-0.109,0.008l-0.049,0.051l-0.169,0.026l-0.076,0.103l0.052,0.042l-0.018,0.063l-0.158,0.107l-0.014,0.089l0.109,0.172l0.058,0.005l0.039,0.034l-0.013,0.061l0.123,0.157l0.029,0.245l-0.057,0.065l0.026,0.182l-0.135,0.226l-0.23,0.027l-0.194,0.226l-0.231,0.111l0.002,0.087l0.131,0.066l0.069,0.106l0.047,-0.051l0.106,0.038l0.072,0.113l-0.014,0.112l0.083,0.067l0.002,0.151l0.1,0.186l-0.037,0.125l0.009,0.071l-0.047,0.055l0.1,0.025l0.075,-0.102l0.025,-0.052l-0.084,-0.214l0.014,-0.22l-0.016,-0.19l0.114,-0.167l0.206,-0.072l0.219,-0.069l0.216,-0.014l0.612,0.216l0.045,0.012l0.039,-0.012l0.034,-0.06l-0.155,-0.035v-0.019l0.185,0.002l0.045,-0.048l0.049,-0.091l0.004,-0.067l0.026,-0.004l0.022,0.076l-0.048,0.054l-0.003,0.057l0.071,0.02l-0.025,0.062l0.059,0.008l0.066,-0.031l0.093,0.008v0.058l-0.123,0.086l-0.037,0.006l-0.03,-0.02l-0.041,-0.009l-0.008,0.023l0.103,0.108l0.048,0.017l0.057,-0.054l0.164,-0.017l0.033,-0.091l-0.007,-0.069l-0.094,-0.019l-0.011,-0.066l0.031,-0.08l0.102,0.003l0.124,-0.082l0.035,0.001l0.013,0.029l-0.11,0.05l-0.027,0.029l0.099,0.071l0.068,0.014l0.061,-0.041l0.073,-0.178l0.03,-0.006l0.041,0.033l0.084,0.007l-0.004,0.024h-0.051l-0.025,0.044l0.032,0.007l0.028,0.025l-0.041,0.033l-0.028,-0.015l-0.034,0.004l-0.034,0.086l0.015,0.026l0.052,-0.033l0.042,-0.002l-0.008,0.069l-0.045,0.021l-0.017,0.04l0.067,0.016l0.009,0.02l-0.096,0.054l0.017,0.055l0.061,0.027l0.075,-0.009l0.045,-0.025l0.045,0.026l-0.022,0.043l0.043,0.019l-0.002,0.038l-0.044,0.032l0.004,0.033l0.065,-0.021l0.004,-0.119l0.059,-0.048l-0.006,-0.042l0.014,-0.006l0.089,0.041l0.08,0.003l0.059,0.021l0.117,0.004l0.037,-0.02l0.041,0.004l0.04,0.039l0.069,-0.002l0.071,-0.071l0.087,-0.042l0.025,0.008l-0.069,0.042l-0.01,0.094l0.037,0.025l0.071,0.002l0.128,0.079l0.143,0.022l0.197,0.101l0.093,0.026l0.007,-0.047l-0.08,-0.066l0.019,-0.017l0.07,0.028l0.023,-0.024l-0.054,-0.11l0.005,-0.065l0.029,-0.011l0.16,0.273l0.103,0.18l0.006,0.046l-0.09,0.049l-0.002,0.024l0.04,0.011l0.046,0.105l0.045,0.009l0.043,0.05l-0.022,0.013l-0.002,0.029l0.071,0.06l0.06,0.14l0.015,0.006l0.015,-0.055l0.007,-0.108l0.018,-0.004l0.059,0.145l-0.003,0.034l-0.027,0.021l-0.004,0.077l-0.023,0.031l0.006,0.038l0.113,0.008v0.025l-0.031,0.041l0.007,0.041l0.133,0.033l-0.006,0.017l-0.046,0.005l-0.023,0.036l-0.006,0.161l0.033,0.039l0.002,0.031l-0.021,0.025l-0.002,0.028l0.093,0.085l0.045,-0.013l0.013,-0.056l0.04,-0.019l0.151,0.058l-0.041,0.076l-0.1,0.04l-0.001,0.027l0.086,0.036l0.204,0.019l0.063,0.077l0.176,0.01l0.174,0.071l0.088,0.013l0.01,-0.032l0.048,0.004l0.054,0.084l0.094,0.015l0.093,0.066l0.052,0.012l0.067,-0.059l0.015,-0.085l-0.032,-0.065l0.031,-0.065l0.01,-0.078l-0.06,-0.051l0.002,-0.06l0.089,-0.034l0.061,-0.086l-0.001,-0.136l-0.044,-0.056l0.003,-0.089l-0.046,-0.014l-0.09,-0.074l-0.01,-0.055l0.058,-0.035l-0.02,-0.03l0.028,-0.008l0.03,0.05l-0.067,0.045l0.068,0.059l0.067,-0.011l0.124,0.054l0.116,0.013l0.093,-0.047l0.043,-0.136l0.05,-0.053l0.028,0.002l-0.043,0.167l0.028,0.168l-0.096,0.119l0.003,0.075l0.21,0.09l0.001,0.032l-0.037,0.042l-0.008,0.053l0.071,0.066l-0.006,0.032l-0.076,0.004l-0.007,0.039l0.031,0.078l0.212,0.143l-0.01,0.032l-0.002,0.079l0.106,0.122l0.004,0.043l-0.067,0.107l0.003,0.076l0.103,0.054l0.089,0.125v0.044l-0.048,0.077l0.002,0.064l0.099,0.085l0.027,0.086l0.002,0.07l-0.048,0.015l-0.054,0.069l0.002,0.121l-0.043,0.026l-0.01,0.04l0.149,0.075l0.019,0.066l0.066,0.033l0.07,-0.018l0.138,0.029l0.082,-0.002l0.047,-0.039l0.031,-0.001l0.024,0.017l0.124,0.006l0.037,0.019l0.062,-0.001l0.268,-0.095l0.17,-0.003l0.044,-0.02l0.201,0.002l0.047,-0.04l0.046,-0.001l0.053,0.016l0.171,-0.003l0.05,-0.092l0.058,-0.018l0.045,-0.039l0.009,-0.064l0.026,-0.017l0.135,-0.03l0.022,-0.039l-0.093,-0.119l0.011,-0.03l0.043,-0.004l0.161,-0.184l0.088,-0.045l0.114,-0.004l0.227,0.043l0.144,0.002l0.067,-0.042l0.178,-0.009l0.084,-0.064l0.149,-0.018l0.086,-0.037l0.032,-0.075v-0.145l-0.098,-0.135l-0.033,-0.127l-0.073,-0.171l-0.087,-0.033l-0.028,-0.096l-0.127,-0.123l-0.056,-0.13l-0.094,-0.05l-0.041,0.042l-0.026,-0.004l0.008,-0.092l-0.198,-0.23l-0.231,-0.132l-0.12,-0.147l-0.056,-0.231l-0.091,-0.118l-0.094,-0.011l-0.099,-0.034l-0.153,-0.091l-0.102,-0.161l-0.03,-0.36l0.042,-0.174l0.034,-0.015l0.04,0.018l0.037,-0.013l0.091,-0.176l0.089,-0.074l0.003,-0.075l0.022,-0.015l0.051,0.06l0.16,-0.002l0.081,-0.024l0.244,0.017l0.163,-0.052l0.434,-0.267l0.187,-0.103l0.278,-0.171l0.111,-0.149l0.172,-0.108l0.055,-0.1l0.238,-0.068l0.136,-0.072l0.24,-0.2l0.016,-0.042l-0.031,-0.004l-0.151,0.137l-0.128,0.033l-0.172,-0.071l-0.101,-0.056l0.016,-0.021l0.112,0.02l0.073,-0.042l-0.007,-0.059l0.015,-0.027l0.045,0.039l0.078,-0.031l0.046,-0.109l0.008,-0.072l-0.063,-0.197l0.046,-0.156l0.176,-0.201l0.081,-0.004l0.067,-0.031l0.12,-0.004l0.066,-0.029l0.121,-0.005l0.071,-0.045l0.011,-0.075l-0.062,-0.092l-0.026,-0.104l-0.127,-0.132l-0.043,-0.057l0.06,0.016l0.151,0.135l0.021,0.082l0.04,0.086l0.077,0.004l0.107,-0.14l0.12,-0.107l0.258,-0.048l0.428,-0.021l0.441,0.036l0.121,0.032l0.074,0.009l0.082,-0.14l0.011,-0.102l0.023,0.004l0.012,0.118l-0.084,0.15l0.018,0.029l0.076,-0.012l0.141,0.065l0.4,0.155l0.151,0.096l0.061,0.194l0.107,0.137l0.063,0.006l0.1,-0.116l0.069,0.002l0.123,0.114l0.012,0.167l0.077,0.062l0.201,0.044l0.075,0.07l0.09,0.014l-0.019,0.088l0.033,0.055h0.094l0.073,0.074l0.225,0.116l0.022,0.122l0.062,0.106l-0.037,0.031l-0.039,-0.055l-0.059,-0.035l-0.023,0.037l0.149,0.218l-0.016,0.243l0.153,0.088l0.045,0.165l0.174,0.163l0.051,-0.004l0.002,-0.097l0.044,-0.064l0.009,-0.073l-0.076,-0.141l-0.004,-0.165l-0.043,-0.08l-0.012,-0.09l0.043,-0.024l0.057,0.088l0.008,0.238l0.045,0.094l0.141,-0.133l0.075,0.017l0.013,0.063l0.075,0.012l0.065,-0.2l0.047,-0.036l0.06,0.038l0.047,0.002l0.014,-0.053l-0.057,-0.042l-0.011,-0.078l0.051,-0.008l0.072,0.159l-0.043,0.065l0.043,0.082l-0.014,0.088l-0.102,0.006l-0.082,0.057l0.008,0.092l0.135,0.028l0.128,-0.106l-0.01,-0.118l0.096,-0.09l0.08,0.016l0.108,0.16l0.053,0.018l-0.01,-0.11l-0.082,-0.125l0.031,-0.077l-0.004,-0.045l-0.051,-0.017l-0.005,-0.059l0.039,-0.012l0.094,0.086l-0.063,0.1l0.092,0.118l0.075,0.182l0.047,0.212l0.119,0.153l0.016,0.135l0.104,0.079l0.155,0.008l0.241,0.094l0.179,0.17l0.029,0.11l-0.033,0.045l-0.02,-0.088l-0.151,-0.167l-0.229,-0.094l-0.057,0.002l0.039,0.051l0.12,0.055l0.055,0.045l-0.099,0.006l-0.119,-0.092l-0.143,-0.035l-0.116,-0.106l-0.035,-0.163l-0.096,-0.133l-0.098,-0.022l-0.096,-0.098l-0.016,-0.11l-0.065,-0.067l-0.041,0.012l-0.016,0.104l-0.084,0.151v0.135l-0.053,0.079l-0.116,0.031l-0.094,-0.043l-0.029,0.01l-0.012,0.063l-0.053,0.043l-0.07,-0.008l-0.024,0.025l0.051,0.112l0.157,0.124l0.014,0.084l-0.044,0.186l-0.188,0.167l-0.182,0.035l-0.171,-0.031l-0.011,-0.116l-0.038,-0.01l-0.084,0.098l-0.014,0.122l0.081,0.127l0.007,0.13l0.057,0.17l0.047,0.112l0.159,0.092l0.043,0.069l0.022,0.126l0.176,0.272l0.016,0.112l-0.055,0.074l0.006,0.063l0.167,0.098l0.031,0.061l0.102,0.045l0.041,0.051l-0.017,0.076l0.033,0.053l0.084,0.022l0.014,0.051l-0.043,0.118l0.031,0.027l0.069,0.016l0.08,0.094l0.037,0.11l0.161,0.109l0.02,0.061l0.043,0.024l0.049,-0.036l0.029,0.028l-0.027,0.07l0.031,0.03l0.053,0.004l0.036,0.027l-0.028,0.039v0.075l0.153,0.202l0.065,0.033l0.204,0.193l0.097,0.042z"/>
</svg>
