<svg xmlns="http://www.w3.org/2000/svg" viewBox="67.732 532.776 41.935 24.881">
  <path d="M109.088,557.41l0.138,0.22l0.358,0.027l0.083-0.151l-0.165-0.179l-0.317-0.014L109.088,557.41z M106.046,556.336l0.124,0.179l0.289-0.028v-0.289l-0.303-0.041L106.046,556.336z M93.723,541.143l0.127,0.08h0.146l0.116-0.103l-0.117-0.109l-0.163,0.039L93.723,541.143z M86.876,539.122l0.171,0.171l0.21-0.023l0.132-0.163l-0.085-0.117l-0.264-0.054L86.876,539.122z M80.208,535.524l-0.016,0.155l0.101,0.062l0.085-0.109v-0.151l-0.071-0.125l-0.156,0.007l-0.044,0.082L80.208,535.524z M74.745,536.247l0.078,0.078l0.132-0.047l0.008-0.14l-0.155-0.016L74.745,536.247z M67.732,532.885l0.07,0.078l0.117-0.023l0.057-0.098l-0.063-0.066l-0.119,0.017L67.732,532.885z"/>
</svg>
