<svg xmlns="http://www.w3.org/2000/svg" viewBox="67.783 503.188 73.546 35.615">
  <path d="M82.636,516.826l0.101,0.06l0.075-0.026l0.026-0.086l-0.065-0.079l-0.06-0.013l-0.059,0.045L82.636,516.826L82.636,516.826z M68.224,509.686l0.018,0.043l0.038-0.007l0.027-0.047l-0.054-0.016L68.224,509.686L68.224,509.686z M67.801,512.3l0.024,0.056l0.049,0.031l0.01-0.049l-0.028-0.059l-0.049-0.035l-0.024,0.024L67.801,512.3z M70.553,513.593l-0.01,0.063l0.026-0.003l0.031-0.066l-0.019-0.081l-0.073-0.045l-0.024,0.017l0.063,0.066L70.553,513.593z M81.343,513.485l0.066,0.037l0.084-0.06l0.031-0.109l-0.082-0.085l-0.13,0.068l-0.029,0.074L81.343,513.485z M81.287,513.313l0.045-0.043l0.091-0.033l0.017-0.047l-0.021-0.039l0.017-0.122l-0.068-0.047l-0.132,0.018l-0.058,0.093l0.021,0.058l-0.033,0.087l0.006,0.119l0.047-0.004l0.023-0.035L81.287,513.313L81.287,513.313z M78.285,511.509l0.065,0.013l0.036-0.127l0.049-0.067l-0.047-0.054l-0.117-0.041l-0.044,0.065l0.021,0.08l0.026-0.003l-0.005-0.052l0.028-0.036l0.062,0.029l-0.028,0.142l-0.021,0.016l-0.031-0.026l-0.026,0.013L78.285,511.509L78.285,511.509z M76.667,512.138l0.062-0.014l-0.004-0.056l-0.064-0.029l-0.043,0.045l0.012,0.033L76.667,512.138L76.667,512.138z M76.587,512.045l0.054-0.048l-0.005-0.022L76.544,512l-0.025,0.074l0.023,0.068l0.039,0.002l-0.011-0.062L76.587,512.045z M76.756,512.033l0.006,0.047l0.027,0.01l0.014-0.05l-0.026-0.048l-0.044-0.034l-0.044,0.01l-0.011,0.021l0.048,0.005L76.756,512.033z M78.528,512.282l0.073,0.043l0.007,0.039l-0.042,0.059l0.035,0.021l0.081-0.06l0.005-0.118l-0.05-0.089l-0.059-0.025l-0.064,0.021l-0.012,0.056L78.528,512.282L78.528,512.282z M78.444,512.235l0.031-0.043l0.005-0.047l-0.026-0.021l-0.032,0.022l-0.014,0.06L78.444,512.235L78.444,512.235z M78.485,512.416l0.022,0.01l0.023-0.036l-0.01-0.052l-0.023-0.027l-0.021,0.012l0.017,0.047L78.485,512.416z M78.681,512.156l0.054,0.066l-0.013,0.074l0.026,0.093l-0.021,0.031l-0.006,0.039l0.035,0.023l0.029-0.013l-0.016-0.172l0.018-0.084l-0.066-0.087l-0.146-0.058l-0.041-0.003l-0.005,0.026L78.681,512.156L78.681,512.156z M86.607,514.326l0.049-0.108l0.035-0.025l0.066,0.011l0.032,0.019l0.018-0.014l-0.043-0.042l-0.073-0.013l-0.05,0.012l-0.026,0.026l0.001,0.051l-0.037,0.057l0.007,0.024L86.607,514.326z M86.722,514.371l0.047-0.033l-0.024-0.039l-0.035,0.005l-0.007,0.046L86.722,514.371z M91.611,509.935l0.104-0.077l-0.042-0.139l-0.176-0.083l-0.093,0.052v0.145L91.611,509.935L91.611,509.935z M89.949,506.312l0.196-0.031l0.062-0.145l-0.062-0.062l-0.196-0.021l-0.144,0.052v0.124L89.949,506.312L89.949,506.312z M126.605,506.018l0.103,0.022l0.085-0.054l-0.085-0.132l-0.101,0.008l-0.039,0.058L126.605,506.018z M117.654,503.495l0.095,0.043l0.074,0.072l0.058-0.002l-0.043-0.097l-0.078-0.073l-0.128-0.04l-0.023,0.04L117.654,503.495z M116.855,503.258l0.034,0.06l0.059,0.002l0.039-0.047l-0.047-0.085l-0.062,0.008L116.855,503.258L116.855,503.258z M121.704,510.444l0.155-0.039l0.078-0.14l-0.109-0.07l-0.218,0.062l0.016,0.124L121.704,510.444L121.704,510.444z M119.117,509.791l0.085-0.117l-0.054-0.062l-0.249,0.062l-0.016,0.062L119.117,509.791L119.117,509.791z M91.924,517.799l0.07-0.023v-0.109l-0.085-0.047l-0.039,0.124L91.924,517.799L91.924,517.799z M108.881,527.536v0.124l0.124-0.016l0.049-0.111l-0.021-0.125l-0.083-0.013L108.881,527.536L108.881,527.536z M135.332,520.281h0.165l-0.096-0.179l-0.295-0.142l-0.156,0.016v0.083l0.19,0.07L135.332,520.281z M128.18,515.64l0.047-0.073l-0.109-0.057l-0.298,0.01l-0.035,0.063l0.057,0.094L128.18,515.64z M133.334,519.351l0.071,0.146l0.095-0.01l0.026-0.072l-0.122-0.193l-0.238-0.147l-0.115-0.021l-0.089,0.036l0.01,0.078l0.156,0.067L133.334,519.351z M115.351,520.828l0.064-0.023l0.016-0.094l-0.041-0.069l-0.085,0.016v0.101L115.351,520.828L115.351,520.828z M115.475,521.023l0.093,0.039v-0.109l-0.077-0.094l-0.045-0.007l-0.025,0.054L115.475,521.023L115.475,521.023z M117.667,522.678l0.062-0.031l-0.039-0.086l-0.085-0.023l-0.008,0.086L117.667,522.678L117.667,522.678z M119.749,522.297l0.109-0.023l-0.078-0.062h-0.155l0.016,0.054L119.749,522.297L119.749,522.297z M124.912,523.332l0.098-0.002l0.019-0.075l-0.078-0.023l-0.073,0.043L124.912,523.332z M126.645,523.075l0.117-0.031v-0.062l-0.104-0.035l-0.105,0.027l-0.008,0.07L126.645,523.075L126.645,523.075z M126.506,521.102l0.101-0.039l0.016-0.062l-0.055-0.027l-0.108,0.027l-0.031,0.047L126.506,521.102L126.506,521.102z M125.091,520.301l0.031-0.047l-0.07-0.023l-0.063,0.02l-0.007,0.07L125.091,520.301L125.091,520.301z M115.143,513.589l0.093-0.031l-0.052-0.083l-0.093-0.01l-0.031,0.072L115.143,513.589L115.143,513.589z M116.722,515.622l0.083-0.01l-0.01-0.093l-0.093-0.052l-0.031,0.083L116.722,515.622L116.722,515.622z M112.715,516.333l0.044,0.115l0.055-0.021l-0.045-0.144l-0.06-0.059l-0.137-0.034l-0.015,0.034l0.052,0.057L112.715,516.333z M118.879,518.388l0.295,0.35l0.071,0.003l-0.019-0.089l-0.247-0.302l-0.216-0.15l-0.04,0l-0.024,0.049L118.879,518.388L118.879,518.388z M119.633,519.437l0.124,0.148l0.089,0.031l0.013-0.039l-0.148-0.187l-0.25-0.131l-0.064,0.003l-0.01,0.042L119.633,519.437L119.633,519.437z M110.867,514.161l0.065-0.043l-0.034-0.05l-0.131-0.053l-0.059,0.005l-0.012,0.049L110.867,514.161L110.867,514.161z M109.509,515.885l0.068,0.042l0.07-0.009l-0.124-0.101h-0.128l-0.047,0.032l0.016,0.047l0.089-0.026L109.509,515.885z M110.84,517.265l0.07-0.023l0.054,0.027v0.047l0.047,0.035l0.02-0.106l-0.047-0.068l-0.086-0.001l-0.061,0.036l-0.02,0.033L110.84,517.265L110.84,517.265z M113.96,517.965l0.066-0.097l-0.064-0.008l-0.046,0.037l-0.003,0.063L113.96,517.965L113.96,517.965z M114.034,517.835l0.051-0.014l0.047,0.258l-0.138,0.243l0.019,0.22l0.049-0.004l0.017-0.237l0.128-0.188l-0.052-0.173l0.006-0.146l-0.07-0.025l-0.059,0.006l-0.023,0.042L114.034,517.835z M114.296,519.117l0.019-0.045l-0.018-0.034l-0.045,0.009l-0.069,0.096l-0.005,0.046l0.044,0.014L114.296,519.117z M114.265,518.684l0.024,0.086l0.154,0.195l0.034-0.003l0.002-0.034l-0.15-0.264l-0.069-0.059l-0.05,0.008l-0.006,0.026L114.265,518.684L114.265,518.684z M113.509,518.305l0.054-0.023l-0.006-0.043l-0.062-0.01l-0.023,0.05L113.509,518.305L113.509,518.305z M113.391,518.159l0.058-0.004l-0.019-0.06l-0.056-0.01l-0.016,0.047L113.391,518.159L113.391,518.159z M113.437,518.042l0.043-0.031l0.012-0.041h-0.054l-0.037,0.054L113.437,518.042L113.437,518.042z M113.589,517.969l0.075-0.017l0.029-0.021l-0.029-0.018l-0.076,0.01l-0.03,0.021L113.589,517.969L113.589,517.969z M105.319,506.529l0.078,0.005l0.074-0.061l-0.062-0.062l-0.07,0.009l-0.034,0.053L105.319,506.529z M105,509.431l0.062-0.057l-0.005-0.062l-0.073,0.005l-0.026,0.088L105,509.431L105,509.431z M101.658,508.376l0.109,0.062l0.28,0.067l0.033-0.017l-0.019-0.039l-0.299-0.119l-0.176-0.003l-0.008,0.049H101.658L101.658,508.376z M101.871,508.99l0.049-0.13l-0.044-0.062l-0.041,0.005l-0.013,0.163L101.871,508.99L101.871,508.99z M98.126,509.604l0.015,0.083l-0.016,0.057l0.063,0.034l0.048-0.049l-0.055-0.156l-0.073-0.021l-0.024,0.028L98.126,509.604z M96.687,509.226l0.062-0.026l0.018-0.106l-0.044-0.044l-0.06,0.062l0.003,0.075L96.687,509.226L96.687,509.226z M101.545,515.64l-0.032-0.085l0.005-0.088l0.063-0.03l0.072,0.02l0.016-0.062l-0.087-0.036l-0.105,0.02l-0.062,0.135l0.083,0.155L101.545,515.64z M101.85,515.855l0.114,0.171l0.052-0.016l-0.104-0.181l-0.192-0.14l-0.005,0.067L101.85,515.855L101.85,515.855z M101.808,515.58l0.202,0.181l0.036-0.036l-0.114-0.088l-0.108-0.158l-0.051-0.027l-0.023,0.035L101.808,515.58L101.808,515.58z M102.187,515.927l0.021,0.104l0.073,0.026l0.005-0.083l-0.117-0.15l-0.045-0.017l-0.02,0.048L102.187,515.927L102.187,515.927z M106.134,511.798l0.28,0.28l0.057,0.119l0.062,0.021v-0.114l-0.295-0.337l-0.26-0.11l-0.044,0.004l-0.001,0.034L106.134,511.798L106.134,511.798z M106.73,512.866l0.041-0.021l-0.031-0.073l-0.088-0.031l-0.01,0.067L106.73,512.866L106.73,512.866z M106.996,513.127l0.056-0.023l0.088,0.005l0.016-0.041l-0.135-0.021l-0.068,0.039l-0.01,0.044L106.996,513.127z M106.336,513.508l0.098-0.031l0.005-0.041l-0.098-0.021l-0.052,0.067L106.336,513.508L106.336,513.508z M103.813,513.415l0.13-0.016l0.016-0.062l-0.166-0.01l-0.021,0.047L103.813,513.415L103.813,513.415z M102.772,513.031l0.109,0.067l0.035-0.031l-0.076-0.098l-0.132-0.014l-0.055,0.021l-0.005,0.045L102.772,513.031L102.772,513.031z M103.13,513.145l0.093,0.005l-0.057-0.067l-0.14-0.031l-0.005,0.041L103.13,513.145L103.13,513.145z M104.596,513.36l0.089,0.101l0.054-0.019l-0.101-0.136l-0.117-0.023l-0.016,0.043L104.596,513.36L104.596,513.36z M105.256,513.831l0.012,0.186l0.03,0.028l0.028-0.042l0.016-0.234l-0.08-0.099l-0.141-0.073l-0.156,0.001l0.008,0.047l0.169,0.041L105.256,513.831z M98.449,504.956l0.051,0.07l0.054,0.007l0.02-0.046l-0.027-0.058l0.066-0.124l0.009-0.043l-0.052-0.008l-0.053,0.029L98.449,504.956L98.449,504.956z M98.806,504.532l0.256-0.035l0.105,0.086l0.053-0.009l-0.01-0.057l-0.073-0.078l-0.086-0.015l-0.249,0.039l-0.145,0.101l-0.016,0.063l0.069-0.049L98.806,504.532L98.806,504.532z M99.976,504.381l0.035-0.047l-0.051-0.031l-0.255,0.151l-0.047,0.073l0.031,0.016l0.065-0.017L99.976,504.381L99.976,504.381z M100.147,504.291l0.085-0.031l-0.016-0.047l-0.124,0.019l-0.023,0.051L100.147,504.291L100.147,504.291z M100.384,504.159l0.124-0.004l0.066,0.062h0.051l-0.062-0.12l-0.105-0.023l-0.157,0.065l-0.038,0.044l0.024,0.015L100.384,504.159L100.384,504.159z M102.863,505.438l-0.07,0.051l-0.012-0.039l0.062-0.089l0.023-0.183l0.082-0.066l0.027-0.082l-0.051-0.008l-0.124,0.124l-0.027,0.159l-0.078,0.152l0.047,0.093l0.07,0.027l0.104-0.076l0.01-0.099l-0.036-0.016L102.863,505.438L102.863,505.438z M103.115,504.971l0.039,0.078l-0.07,0.066l-0.019,0.062l0.051,0.012l0.082-0.097l0.004-0.124l-0.089-0.054l-0.117,0.058l0.031,0.039L103.115,504.971L103.115,504.971z M103.442,504.824l0.12-0.008l0.019-0.047l-0.039-0.023l0.023-0.078l-0.043-0.027l-0.102,0.084l-0.011,0.056L103.442,504.824L103.442,504.824z M103.749,504.75l0.124-0.074l-0.051-0.039l-0.163,0.082l-0.004,0.039L103.749,504.75L103.749,504.75z M103.9,504.61l0.047,0.023l0.058-0.14l-0.051-0.023L103.9,504.61L103.9,504.61z M103.64,504.602l0.202-0.163l0.163-0.019l0.082-0.047l0.074,0.004l-0.035,0.058l0.031,0.016l0.078-0.023l0.017-0.053l-0.048-0.064l-0.152,0.004l-0.093,0.062l-0.144,0.012l-0.168,0.151l-0.027,0.044L103.64,504.602z M110.5,511.496l0.139,0.108l0.256,0.101l0.026-0.011l-0.049-0.046l-0.174-0.075l-0.166-0.142l-0.171-0.021l-0.083,0.041l0.021,0.026l0.103-0.011L110.5,511.496z M111.036,511.793l0.038,0.049l0.044-0.005l-0.01-0.057l-0.079-0.055l-0.052-0.005l-0.026,0.013L111.036,511.793z M107.797,512.076l0.215,0.088l0.047-0.021l-0.036-0.047l-0.249-0.088l-0.212,0.016l-0.005,0.03l0.059,0.017L107.797,512.076L107.797,512.076z M108.103,512.368l0.065,0.036l0.01-0.047l-0.049-0.049l-0.044-0.018l-0.015,0.029L108.103,512.368L108.103,512.368z M108.479,512.511l0.075,0.04l0.076,0.014l0.017-0.028l-0.114-0.065l-0.185-0.027l-0.028,0.019l0.01,0.024L108.479,512.511L108.479,512.511z M108.826,512.741l0.158,0.029l0.004-0.031l-0.041-0.023l-0.09-0.016l-0.15-0.104l-0.024,0.031l0.021,0.042L108.826,512.741L108.826,512.741z M109.282,512.749l0.122-0.039l0.122,0.01l0.182,0.139l0.002,0.037l-0.023,0.023l0.015,0.041l0.037-0.007l0.036-0.049l0.003-0.07l-0.228-0.177l-0.187-0.01l-0.078,0.049L109.1,512.7l-0.034,0.013l-0.005,0.031L109.282,512.749L109.282,512.749z M111.652,512.876l0.036-0.054l-0.07-0.008l-0.047,0.026l-0.009,0.043l0.052,0.009L111.652,512.876L111.652,512.876z M111.875,512.992l0.026-0.052l-0.025-0.116l-0.042-0.047l-0.034,0.033l0.023,0.096L111.875,512.992L111.875,512.992z M111.616,513.109l0.021-0.104l-0.018-0.049l-0.047,0.026l0.003,0.122L111.616,513.109L111.616,513.109z M111.631,513.275l0.013-0.078l-0.026-0.026l-0.041,0.031l0.005,0.052L111.631,513.275L111.631,513.275z M114.364,509.441l0.06-0.036l-0.005-0.057l-0.051-0.018l-0.065,0.021l-0.005,0.067L114.364,509.441L114.364,509.441z M113.992,509.872l0.069-0.028l0.228-0.276l-0.023-0.067l-0.075,0.021l-0.216,0.315L113.992,509.872z M113.843,509.845l0.088-0.078l0.016-0.062l-0.057,0.003l-0.083,0.122L113.843,509.845L113.843,509.845z M113.007,511.262l-0.034-0.311l0.08-0.275l0.109-0.186l-0.022-0.018l-0.134,0.137l-0.05,0.12l-0.045,0.227l0.025,0.173l0.049,0.149L113.007,511.262z M113.276,510.386l0.038-0.014l0.211-0.213l0.109-0.005l0.047,0.07l-0.039,0.075l0.023,0.031l0.07-0.085l-0.008-0.096l-0.098-0.065l-0.153,0.029l-0.213,0.232L113.276,510.386z M113.473,510.814l0.031-0.029l-0.018-0.096l-0.047,0.013l-0.01,0.091L113.473,510.814L113.473,510.814z M113.144,511.265l0.028,0.028l0.042-0.038l0.151-0.228l0.088-0.098l-0.06-0.013l-0.111,0.119L113.144,511.265L113.144,511.265z M102.808,510.034l0.082,0.058l0.051-0.012l-0.051-0.07l-0.062-0.016L102.808,510.034L102.808,510.034z M103.421,510.271l0.041-0.008l0.081-0.078v-0.167l-0.171-0.253l0.005-0.06l-0.036-0.122l-0.144-0.089l-0.066,0.023l0.039,0.051l0.101,0.054l0.028,0.049l-0.009,0.118l0.155,0.218l0.031,0.144l-0.076,0.089L103.421,510.271z M103.675,510.959l0.015-0.073l0.036-0.036l0.136-0.101l0.113-0.019l0.008-0.031l-0.026-0.018l-0.083-0.005l-0.206,0.117l-0.037,0.084l-0.002,0.068L103.675,510.959L103.675,510.959z M104.129,510.769l0.093,0.019v-0.054l-0.098-0.035l-0.041,0.003l-0.024,0.024L104.129,510.769L104.129,510.769z M104.421,510.914l0.041-0.009l-0.065-0.082l-0.09-0.041l-0.023,0.026l0.017,0.04L104.421,510.914L104.421,510.914z M104.341,511.366l0.029,0.025l0.114-0.09l0.044-0.068l0.043-0.114l-0.017-0.039l-0.049,0l-0.058,0.144l-0.086,0.085L104.341,511.366z M99.187,509.887l0.067-0.041l0.008-0.047l-0.049-0.021l-0.048,0.059L99.187,509.887L99.187,509.887z M99.379,509.628l0.047,0.026l0.038-0.011l0.024-0.051l-0.017-0.045l-0.063,0.016L99.379,509.628L99.379,509.628z M100.322,509.972h0.038l-0.07-0.132l-0.142-0.135l-0.167-0.087l-0.088-0.008l-0.006,0.039l0.094,0.024l0.16,0.111l0.13,0.155L100.322,509.972z M100.509,510.254l0.018-0.037l-0.063-0.14l-0.063-0.007l-0.01,0.039l0.052,0.107L100.509,510.254z M98.499,510.916l0.008,0.097l0.117,0.109l0.171-0.012l0.07-0.109l-0.023-0.105l-0.101-0.077h-0.155L98.499,510.916L98.499,510.916z M100.635,510.93l0.036,0.01l0.095-0.113l0.177-0.086l0.001-0.053l-0.042-0.01l-0.204,0.107l-0.057,0.092L100.635,510.93z M101.099,510.706l0.161-0.102l0.066-0.003l0.09,0.056l0.059,0.283l0.066,0.058l0.059,0.257l0.073,0.171l0.155,0.089l0.042-0.017l-0.017-0.042l-0.13-0.093l-0.061-0.091l-0.075-0.332l-0.089-0.101l-0.01-0.192l-0.139-0.108l-0.09,0.003l-0.163,0.11l-0.022,0.039L101.099,510.706z M101.852,511.701l0.075,0.071l0.045,0.021l0.028-0.028l-0.07-0.076l-0.039-0.117l-0.037-0.002l-0.037,0.037L101.852,511.701L101.852,511.701z M119.221,517.673l0.225-0.152l0.062-0.132l-0.058-0.023l-0.039,0.085l-0.167,0.136l-0.132,0.019l-0.012,0.05L119.221,517.673L119.221,517.673z M119.042,517.51l0.054,0.012l0.062-0.148l-0.043-0.039l-0.047,0.082L119.042,517.51L119.042,517.51z M119.159,517.296l0.043,0.023l0.109-0.155l0.117-0.062l0.097-0.012l0.165-0.158l0.031-0.083l-0.029-0.023l-0.233,0.194l-0.19,0.078L119.159,517.296L119.159,517.296z M119.843,516.904l0.008,0.066l-0.023,0.047l0.027,0.043l0.054-0.066l0.004-0.101l-0.078-0.07l-0.027,0.047L119.843,516.904L119.843,516.904z M99.042,508.737l0.046,0.02l0.044-0.044l0.06-0.146l-0.052-0.031l-0.045,0.037L99.042,508.737L99.042,508.737z M98.301,507.99l0.033,0.025l0.034-0.02l0.026-0.083l0.093-0.078l-0.025-0.035l-0.053,0.005l-0.088,0.066L98.301,507.99L98.301,507.99z M98.7,507.788l-0.06-0.061l-0.059-0.001l-0.007,0.043l0.049,0.059l0.063,0.017L98.7,507.788z M98.918,507.835l0.047-0.031l-0.064-0.062l-0.071,0.006l0.002,0.067L98.918,507.835L98.918,507.835z M99.234,508.051l0.031,0.049l0.039-0.042l0.018-0.119l-0.021-0.073l-0.06-0.024l-0.076,0.017l-0.019,0.027l0.075,0.018l0.024,0.039L99.234,508.051z M96.731,507.728l-0.057-0.032l-0.047,0.005l0.023,0.079l0.055,0.021l0.039-0.029L96.731,507.728z M97.596,507.56l0.109,0.093l0.021,0.251l0.031-0.002l0.049-0.23l-0.045-0.097l-0.159-0.097l-0.505-0.144l-0.136,0.018l-0.003,0.042l0.12,0.018L97.596,507.56L97.596,507.56z M91.685,507.099l0.052-0.041l-0.043-0.05l-0.086-0.007l-0.021,0.057l0.013,0.029L91.685,507.099L91.685,507.099z M91.595,506.451l0.018,0.048l0.076-0.017l0.194-0.185l-0.006-0.044l-0.129,0.039L91.595,506.451z M92.328,506.473l0.01,0.15l0.059,0.015l0.021-0.099l-0.018-0.113l-0.128-0.121l-0.131-0.039l-0.155,0.003l-0.021,0.028l0.214,0.045L92.328,506.473z M92.939,506.592l0.037,0.02l0.134-0.129l0.027-0.107l-0.015-0.066l-0.043-0.003l-0.019,0.118L92.939,506.592L92.939,506.592z M92.789,506.97l0.031-0.073l-0.036-0.047l-0.057,0.01l0.021,0.093L92.789,506.97L92.789,506.97z M93.514,507.566l0.01-0.062l-0.064-0.078l-0.055-0.005l-0.026,0.057l0.066,0.078L93.514,507.566L93.514,507.566z M94.483,507.825l0.259,0.005l0.048-0.04l-0.012-0.038l-0.233,0.021l-0.13-0.052l-0.041,0.036L94.483,507.825L94.483,507.825z M95.063,507.861l0.073-0.031l-0.031-0.052l-0.088,0.01l-0.026,0.031L95.063,507.861L95.063,507.861z M95.364,507.55l0.067,0.135h0.062l-0.052-0.13l-0.057-0.114l-0.073,0.01l-0.015,0.047L95.364,507.55L95.364,507.55z M93.353,506.405l0.295,0.021l0.13,0.03l0.246,0.146l0.025-0.026l-0.245-0.177l-0.12-0.035l-0.275-0.016l-0.117-0.038l-0.047,0.015l0.003,0.043L93.353,506.405L93.353,506.405z M94.358,506.996l0.249,0.15l0.166,0.187l0.228,0.13l0.05-0.016l-0.083-0.094l-0.096-0.04l-0.218-0.238l-0.212-0.124l-0.178-0.191l-0.109-0.036l-0.034,0.036l0.107,0.074L94.358,506.996L94.358,506.996z M119.333,532.331l0.078,0.07l0.093-0.124l-0.031-0.07L119.333,532.331L119.333,532.331z M125.208,528.912l0.085,0.062l0.079-0.022l0.015-0.102l-0.078-0.047l-0.093,0.039L125.208,528.912L125.208,528.912z M127.531,529.199l-0.047-0.124l0.033-0.123l0.067,0.001l0.079,0.059l-0.016,0.233l0.036,0.045l0.051-0.043l0.044-0.266l-0.038-0.087l-0.156-0.068l-0.117-0.016l-0.071,0.115l-0.022,0.164l0.053,0.086l0.063,0.041L127.531,529.199L127.531,529.199z M141.075,537.949l0.09,0.01l0.07-0.122l0.087-0.052l0.007-0.066l-0.092-0.047l-0.127,0.106h-0.087l-0.056,0.083L141.075,537.949z M126.21,532.762l0.124-0.023l-0.004-0.043l-0.111-0.019l-0.076,0.035l0.013,0.035L126.21,532.762L126.21,532.762z M126.517,532.852l0.033,0.033l0.019,0.049l-0.048,0.03l-0.012,0.054l0.144-0.027l0.041-0.057l-0.006-0.047l-0.072-0.083l-0.056-0.007l-0.148,0.012l0.012,0.039L126.517,532.852L126.517,532.852z M126.906,534.499l0.062,0.023l0.019-0.058l-0.175-0.167l-0.019,0.05L126.906,534.499L126.906,534.499z M126.758,534.682l0.097-0.07l-0.051-0.039l-0.07,0.043l-0.019,0.043L126.758,534.682L126.758,534.682z M125.686,533.108l0.074-0.027l0.054-0.054l-0.025-0.03l-0.049,0.01l-0.058,0.066L125.686,533.108L125.686,533.108z M125.763,533.17l0.066-0.027l0.015-0.021l-0.031-0.024l-0.089,0.03l-0.019,0.027L125.763,533.17L125.763,533.17z M126.109,533.104l0.054-0.054v-0.039L126.122,533l-0.072,0.069l0.008,0.039L126.109,533.104L126.109,533.104z M126.269,533.092l0.054-0.012l-0.031-0.051l-0.066-0.012l-0.016,0.047L126.269,533.092L126.269,533.092z M140.825,538.039l0.115-0.003l0.028-0.052l-0.014-0.062l-0.056-0.003l-0.08,0.059L140.825,538.039z M133.075,538.062l0.082-0.048l0.058-0.092l-0.024-0.072l-0.092,0.019l-0.058,0.15L133.075,538.062z M140.751,538.782l0.005-0.036l-0.042-0.016l-0.036,0.031l0.021,0.042L140.751,538.782z M135.388,531.753l0.056,0.002l0.036-0.061l-0.043-0.109l-0.04-0.031l-0.078,0.012l-0.038,0.035v0.045L135.388,531.753z M140.859,538.351l0.049,0.003l0.073-0.045l-0.003-0.031h-0.038l-0.063,0.038L140.859,538.351z M140.939,538.122l0.097,0.101l0.125,0.049l0.003-0.017l-0.118-0.07l-0.115-0.122l-0.014,0.014L140.939,538.122z M140.908,538.577l0.017-0.045l-0.024-0.028l-0.049,0.007l-0.007,0.035l0.024,0.042L140.908,538.577z M134.142,531.068l0.028-0.024l0.003-0.045l-0.052-0.038l-0.049,0.003l-0.028,0.045l0.038,0.042L134.142,531.068z M134.49,531.179l0.038-0.045l-0.003-0.063l-0.049-0.028l-0.08,0.017l-0.028,0.049l0.042,0.073L134.49,531.179z M134.869,531.238l0.07-0.08l0.003-0.052l-0.042-0.024l-0.122,0.035l-0.007,0.063l0.042,0.063L134.869,531.238z M136.105,533.87l0.065-0.018l0.031-0.135l-0.021-0.047h-0.052l-0.068,0.07l-0.008,0.081L136.105,533.87z M138.109,531.72l0.031-0.005l0.023-0.029l-0.016-0.026l-0.042,0.003l-0.023,0.047L138.109,531.72z M138.63,531.735l0.099,0.07l0.013-0.016l-0.042-0.05l-0.068-0.044l-0.083-0.013l0.003,0.016L138.63,531.735z M79.306,512.825l-0.003-0.101l0.069-0.104l0.083-0.042l0.188,0.045l0.087,0.087l0.003,0.076l-0.059,0.09l0.01,0.059l-0.038,0.049l-0.129,0.01l-0.156-0.097L79.306,512.825z M79.514,513.26l0.045-0.101l0.101-0.017l0.076,0.066l0.059,0.163l0.118,0.167l0.083,0.028l0.038,0.094l-0.014,0.059l-0.17,0.09l-0.073-0.014l-0.031,0.017l-0.028,0.08l-0.069,0.01l-0.052-0.076l-0.052-0.212v-0.115L79.514,513.26z M85.426,516.32l-0.039-0.102l0.026-0.068l0.099-0.021l0.068,0.026l0.036,0.086l0.021-0.008l-0.016-0.07l0.034-0.047l0.063-0.003l0.021,0.083l0.018-0.008v-0.06l0.018-0.029l0.06-0.005l0.07-0.031l0.042,0.008l0.023,0.042l-0.036,0.141l-0.005,0.078l-0.099,0.193l-0.094,0.036l-0.146-0.073l-0.055-0.083L85.426,516.32z M86.497,516.403l0.138-0.094l0.169-0.036l0.086-0.008l0.086-0.07l0.232,0.005l0.154,0.063l0.044,0.055l0.044,0.013l0.052-0.003l0.083,0.052l0.081,0.104l0.026,0.125l-0.039,0.154l0.003,0.055l0.023,0.052l0.008,0.107l-0.016,0.052l0.016,0.029l0.125,0.049l0.05-0.003l0.065-0.016l0.052,0.01l0.036,0.031l0.156,0.036l0.021-0.013l-0.003-0.023l0.009-0.01l0.02,0.023l0.003,0.026l0.09,0.084l0.032,0.111l-0.021,0.164l-0.065,0.12l-0.086,0.023l-0.235-0.07l-0.063-0.005l-0.141-0.117l-0.055-0.167l-0.112-0.162l0.018-0.042l0.024-0.014l-0.006-0.012l-0.034,0.005l-0.026,0.039l-0.005,0.049l-0.06,0.023l-0.117,0.003l-0.06,0.039l-0.141,0.013l-0.055,0.029l-0.081-0.016l-0.052-0.042l-0.125-0.044l-0.109-0.008l-0.081-0.044l-0.029-0.063l-0.01-0.146l-0.07-0.162l-0.039-0.049v-0.164l-0.029-0.094L86.497,516.403z M79.346,512.51l0.026-0.023l0.182,0.003l0.008,0.018l-0.052,0.018l-0.143,0.008L79.346,512.51z M79.223,512.697l0.01-0.031l0.029-0.01l0.01,0.021l-0.01,0.026l-0.031,0.013L79.223,512.697z"/>
</svg>
