<svg xmlns="http://www.w3.org/2000/svg" viewBox="1163.592 453.808 49.814 40.249">
  <path d="M1210.235,492.766l0.083,0.024l0.108,0.087l-0.017,0.024l-0.101-0.014l-0.163-0.073l0.003-0.035L1210.235,492.766L1210.235,492.766z M1212.427,492.754l0.028-0.004l0.008-0.012l-0.018-0.01l-0.017-0.001l-0.019,0.007l-0.001,0.012L1212.427,492.754L1212.427,492.754z M1212.334,493.044l0.073,0.08l0.108,0.052l0.174,0.01l0.083-0.038l0.003-0.049l0.024-0.003l0.052,0.049l0.132-0.028l0.059-0.024l0.132,0.014l0.083,0.052l0.045,0.003l0.09-0.052l0.014-0.094l-0.035-0.129l-0.062-0.08l-0.135-0.066l-0.028-0.042l-0.035-0.01l-0.035,0.021l-0.177,0.007l-0.156-0.024l-0.156,0.017l-0.01,0.049l0.177,0.108l0.01,0.038l-0.076,0.035h-0.212l-0.076-0.056l-0.028,0.01v0.042l-0.115,0.031v0.045L1212.334,493.044L1212.334,493.044z M1208.94,492.041l0.146,0.065l0.018-0.013l-0.073-0.06l-0.122-0.036l-0.018,0.01L1208.94,492.041L1208.94,492.041z M1208.505,490.994l0.122,0.042l0.023-0.008l-0.099-0.06l-0.057-0.013l-0.018,0.018L1208.505,490.994L1208.505,490.994z M1209.529,492.771l0.013,0.016l0.052-0.023l0.023-0.026l-0.005-0.044l-0.034-0.008l-0.023,0.018l-0.01,0.044L1209.529,492.771L1209.529,492.771z M1211.486,493.941l0.042-0.029l-0.003-0.047l-0.102-0.107l0.008-0.055l-0.026-0.013h-0.065l-0.055-0.052l-0.07-0.112l-0.044-0.021h-0.039l-0.05-0.028l-0.057-0.013h-0.047l-0.12-0.026l-0.125-0.05l-0.091-0.01l-0.208-0.078l-0.031-0.034l-0.057-0.026h-0.055l-0.13-0.049l-0.023-0.031l-0.021-0.008h-0.042l-0.138-0.052l-0.042-0.05l-0.068-0.047l-0.057,0.008l-0.026-0.01l-0.01-0.036l-0.023-0.01l-0.057,0.016l-0.057-0.026l-0.057-0.055l-0.107-0.06l-0.013-0.021h-0.047l-0.034,0.068l-0.034,0.018l-0.01,0.081l0.06,0.091l0.068,0.018l0.008,0.023l-0.013,0.06l0.055,0.057l0.073-0.013l0.042,0.026l0.008,0.05l0.052,0.049l0.107,0.029l0.01,0.021l-0.026,0.026l-0.094,0.044l0.003,0.023l0.065,0.003l0.063-0.039l0.047-0.003l0.062,0.031l0.036-0.008l0.013-0.023l0.036,0.008l0.01,0.034l-0.042,0.078l0.003,0.05l0.023,0.031l-0.005,0.042l0.034,0.018l0.06-0.01l0.151,0.039l0.021-0.023l-0.036-0.036l0.016-0.018l0.044,0.013l0.016,0.047l0.021,0.005l0.039-0.021l0.047,0.026l0.023,0.034l-0.01,0.021l-0.055,0.01v0.021l0.086,0.021l0.055-0.018l0.062,0.01l0.057,0.083l0.042,0.013l0.062-0.016l0.021,0.008l-0.003,0.057l-0.029,0.018l-0.076,0.003l-0.005,0.021l0.07,0.047l0.052-0.013l0.081-0.096l0.07-0.016l0.125,0.008l0.099,0.063l0.044-0.005l0.021-0.05l0.05-0.003l0.018,0.018h0.026l0.052-0.031l0.125-0.005L1211.486,493.941L1211.486,493.941z M1209.502,493.306h0.014l0.011-0.012l0.002-0.02l-0.013,0l-0.011,0.012L1209.502,493.306L1209.502,493.306z M1208.261,490.441l-0.031-0.094l-0.035-0.042l-0.288-0.184h-0.052l-0.07,0.063l-0.083,0.007l-0.202,0.097l-0.08-0.007l-0.146-0.07l-0.087-0.01l-0.17-0.049l-0.062-0.035l-0.066,0.014l-0.014,0.031l0.108,0.115l0.205,0.052l0.056,0.059h0.042l0.056-0.021l0.062,0.017l0.17,0.108l0.16,0.035l0.063-0.017l0.003-0.038l0.042-0.024l0.129,0.021l0.125-0.007l0.076-0.073h0.031l0.01,0.042l0.028,0.024L1208.261,490.441L1208.261,490.441z M1206.25,490.507l0.059-0.031l0.059-0.003l0.045,0.038l0.042,0.007l0.021-0.052l-0.004-0.042l-0.042-0.038l-0.049-0.073l-0.094-0.007l-0.087,0.104l0.003,0.08L1206.25,490.507L1206.25,490.507z M1206.347,490.754l0.038-0.007l0.042,0.021l0.059-0.007v-0.035l-0.042-0.063l-0.035-0.003l-0.066,0.069L1206.347,490.754L1206.347,490.754z M1206.778,491.985l-0.003,0.014l0.017,0.017l0.017-0.006l0.001-0.019l-0.014-0.014L1206.778,491.985L1206.778,491.985z M1207.755,492.035l-0.006,0.013l0,0.011l0.014-0.004l0.007-0.009l0-0.011L1207.755,492.035L1207.755,492.035z M1207.895,492.111l-0.005,0.012l0.01,0.009l0.016-0.01l-0.004-0.012L1207.895,492.111L1207.895,492.111z M1208.021,492.167l0.006-0.018l-0.01-0.01l-0.017,0.008l-0.015,0.025l0.009,0.013L1208.021,492.167L1208.021,492.167z M1206.915,491.846l0.018,0.01l0.01-0.006l-0.008-0.023l-0.017-0.008l-0.006,0.011L1206.915,491.846L1206.915,491.846z M1206.936,491.909l0.018-0.011l0-0.011l-0.024-0.005l-0.016,0.011l0.006,0.01L1206.936,491.909L1206.936,491.909z M1206.774,490.923l0.026,0.009l0.012-0.01l-0.016-0.022l-0.022-0.002l-0.013,0.013L1206.774,490.923L1206.774,490.923z M1206.247,492.664l0.015,0.01l0.012-0.012l0.003-0.024l-0.014-0.005l-0.015,0.012L1206.247,492.664L1206.247,492.664z M1208.994,491.146l-0.015,0.011l0.007,0.015l0.021,0.011l0.01-0.012l-0.006-0.018L1208.994,491.146L1208.994,491.146z M1206.738,491.761l0.017,0.012l0.011-0.005l-0.013-0.027l-0.022-0.015l-0.01,0.014L1206.738,491.761L1206.738,491.761z M1206.854,491.753l-0.005-0.022l-0.01-0.008l-0.007,0.015l0.007,0.024l0.011,0.004L1206.854,491.753L1206.854,491.753z M1207.94,492.113l0.012-0.006l0.004-0.012l-0.008-0.01l-0.015,0.007l-0.003,0.011L1207.94,492.113L1207.94,492.113z M1208.762,491.066l-0.004-0.018l-0.017-0.011l-0.014,0.007l0.006,0.017l0.013,0.008L1208.762,491.066L1208.762,491.066z M1207.396,492.094l-0.004-0.028l-0.012-0.008l-0.01,0.018l-0.001,0.017l0.007,0.019l0.012,0.001L1207.396,492.094L1207.396,492.094z M1207.678,491.428l0.017-0.001l0.007-0.014l-0.005-0.011h-0.015l-0.008,0.012L1207.678,491.428L1207.678,491.428z M1206.329,492.654l0.011-0.011l-0.004-0.015h-0.012l-0.01,0.012l0.003,0.017L1206.329,492.654L1206.329,492.654z M1209.003,492.531l0.003,0.033l-0.004,0.035h0.019l0.018-0.036l-0.018-0.042L1209.003,492.531L1209.003,492.531z M1207.806,492.198h0.042l0.021-0.018v-0.021l-0.026-0.003l-0.042,0.023L1207.806,492.198L1207.806,492.198z M1207.66,492.101l0.034-0.023l-0.003-0.029l-0.034-0.021l-0.023,0.008v0.055L1207.66,492.101L1207.66,492.101z M1208.984,492.338l0.039,0.044l-0.018,0.07l0.021,0.018l0.039-0.034l0.055,0.023l0.031,0.044l0.039,0.026l0.057,0.016l0.052,0.047l0.008,0.057l0.078,0.047l0.029-0.013l-0.008-0.039l0.01-0.021l0.065-0.003l0.068-0.047l-0.008-0.036h-0.047l-0.031-0.023l-0.026-0.042l-0.05-0.029l-0.052-0.008l-0.039-0.021l-0.044-0.052l-0.175-0.086l-0.094-0.003l-0.042,0.023l0.01,0.029L1208.984,492.338L1208.984,492.338z M1208.875,492.229l0.068-0.01l0.05-0.021l-0.018-0.044l-0.039-0.013l-0.07,0.023l-0.018,0.029L1208.875,492.229L1208.875,492.229z M1208.174,492.195l-0.003-0.036l-0.021-0.018l-0.016,0.018v0.029l0.023,0.026L1208.174,492.195L1208.174,492.195z M1208.397,492.238l0.005,0.017l0.04-0.005l0.014-0.016l-0.016-0.017l-0.024,0.003L1208.397,492.238L1208.397,492.238z M1208.672,492.328l0.052,0.052l0.031-0.01l-0.016-0.05l0.042-0.065l0.013-0.06l-0.013-0.023l-0.065,0.008l-0.052-0.023l-0.034,0.005v0.055l-0.026,0.044l-0.06,0.005v0.031L1208.672,492.328L1208.672,492.328z M1208.346,492.273l0.024-0.01l0.008-0.052l-0.031-0.023l-0.052-0.003l-0.003,0.023l0.029,0.047L1208.346,492.273L1208.346,492.273z M1207.447,492.135l0.057-0.005l0.062-0.016l0.005-0.029l-0.036-0.016l-0.021-0.036l-0.034-0.003l-0.047,0.044l-0.005,0.044L1207.447,492.135L1207.447,492.135z M1207.006,491.929l0.044,0.016l0.06-0.013l0.008-0.042l-0.068-0.031l-0.068,0.008l-0.005,0.039L1207.006,491.929L1207.006,491.929z M1206.589,491.799l0.029-0.005l0.023-0.036l-0.026-0.008l-0.047,0.018l-0.008,0.021L1206.589,491.799L1206.589,491.799z M1200.331,489.963l0.033,0.025l0.031-0.005l0.006-0.034l-0.029-0.027l-0.03-0.002l-0.022,0.015L1200.331,489.963L1200.331,489.963z M1202.003,490.081l0.011-0.016l-0.017-0.036l-0.044-0.023l-0.023,0.019l0.013,0.021L1202.003,490.081L1202.003,490.081z M1201.423,491.46l0.057-0.004l0.061-0.022l-0.014-0.017l-0.039,0l-0.073,0.027L1201.423,491.46L1201.423,491.46z M1202.164,490.519l0.007-0.02l-0.012-0.015l-0.035,0.012l-0.017,0.02l0.015,0.019L1202.164,490.519L1202.164,490.519z M1205.775,490.87l0.035-0.009l-0.001-0.017l-0.04-0.006l-0.026,0.011l0.001,0.016L1205.775,490.87L1205.775,490.87z M1204.461,489.108l0.028,0.001l0.021-0.022l-0.011-0.027l-0.021,0l-0.023,0.034L1204.461,489.108L1204.461,489.108z M1200.905,490.003l-0.003-0.022l-0.029,0.013l-0.013,0.026l0.018,0.01L1200.905,490.003L1200.905,490.003z M1204.33,490.609l-0.025-0.024l-0.032-0.012l0.001,0.015l0.032,0.031l0.025,0.009L1204.33,490.609L1204.33,490.609z M1203.844,490.708l-0.034-0.008l-0.034,0.006l0.008,0.012l0.043,0.011l0.026-0.005L1203.844,490.708L1203.844,490.708z M1204.403,488.797l0.013,0.014l0.024-0.009l0.01-0.021l-0.008-0.015l-0.02,0.005L1204.403,488.797L1204.403,488.797z M1205.458,492.568l0.011-0.009l0.001-0.016l-0.011-0.017l-0.01,0.009l0,0.017L1205.458,492.568L1205.458,492.568z M1205.043,492.296v0.014l0.014,0.008l0.012-0.008l-0.007-0.014H1205.043L1205.043,492.296z M1202.854,489.347l0.019,0.013l0.011-0.005l-0.01-0.028l-0.023-0.01l-0.011,0.008L1202.854,489.347L1202.854,489.347z M1205.64,490.875l-0.033,0.005l-0.002,0.013l0.033,0.011l0.021-0.01l0.005-0.015L1205.64,490.875L1205.64,490.875z M1201.421,488.898l0.014,0.004l-0.001-0.017l-0.017-0.017l-0.008,0.012L1201.421,488.898L1201.421,488.898z M1202.81,489.3l-0.028-0.031l-0.024,0.014l0.014,0.035l0.031,0.01L1202.81,489.3L1202.81,489.3z M1204.441,490.73l0.021,0.003l0.007-0.009l-0.016-0.019l-0.019-0.002l-0.002,0.012L1204.441,490.73L1204.441,490.73z M1200.187,489.914l-0.006,0.021l0.025,0.024l0.028-0.008l0-0.021l-0.021-0.021L1200.187,489.914L1200.187,489.914z M1206.188,492.115l0.036-0.018l0.01-0.022l-0.026-0.005l-0.048,0.025l-0.007,0.017L1206.188,492.115L1206.188,492.115z M1205.3,489.325l0.057-0.005l0.019-0.011l0-0.021l-0.039-0.009l-0.037,0.01l-0.012,0.021L1205.3,489.325L1205.3,489.325z M1203.904,490.616l0.011,0.015l0.015-0.007l0.011-0.022l-0.012-0.01l-0.018,0.006L1203.904,490.616L1203.904,490.616z M1204.66,490.849l-0.02-0.006l-0.009,0.008l0.022,0.021l0.026,0.006l0.004-0.016L1204.66,490.849L1204.66,490.849z M1201.462,490.377l0.019,0.007l0.013-0.013l-0.01-0.021l-0.028-0.009l-0.011,0.015L1201.462,490.377L1201.462,490.377z M1200.838,490.358l0.026-0.009l-0.001-0.018l-0.051-0.018l-0.02,0.006l0.003,0.019L1200.838,490.358L1200.838,490.358z M1202.615,490.053l0.002-0.018l-0.012-0.016l-0.016,0.001l0,0.018l0.01,0.012L1202.615,490.053L1202.615,490.053z M1201.407,488.958v0.018l0.018,0.003l0.008-0.018l-0.01-0.01L1201.407,488.958L1201.407,488.958z M1201.639,490.27l0.016,0.003l0.01-0.012l-0.01-0.012l-0.016,0.005V490.27L1201.639,490.27z M1202.641,490.122l0.014-0.011l-0.001-0.015l-0.018-0.006l-0.012,0.012l0.001,0.014L1202.641,490.122L1202.641,490.122z M1201.643,490.366l0.017-0.001l0.007-0.014l-0.006-0.011h-0.015l-0.008,0.012L1201.643,490.366L1201.643,490.366z M1206.051,492.059l0.017-0.001l0.007-0.014l-0.005-0.011h-0.015l-0.008,0.012L1206.051,492.059L1206.051,492.059z M1200.292,491.226l0.014-0.006v-0.014l-0.012-0.011l-0.012,0.008l0.001,0.014L1200.292,491.226L1200.292,491.226z M1202.177,492.151v0.014l0.012,0.007l0.011-0.01l0.001-0.014l-0.007-0.007L1202.177,492.151L1202.177,492.151z M1204.943,490.782v0.014l0.012,0.007l0.011-0.01l0.001-0.014l-0.007-0.007L1204.943,490.782L1204.943,490.782z M1202.37,490.635l0.027,0.032l0.027,0.004l0.016-0.013l-0.015-0.022l-0.045-0.017L1202.37,490.635L1202.37,490.635z M1195.152,489.249l-0.019,0.021l0.003,0.03l0.028,0.009l0.013-0.016l-0.011-0.039L1195.152,489.249L1195.152,489.249z M1195.509,489.312l0.017-0.001l0.007-0.014l-0.005-0.011h-0.015l-0.008,0.012L1195.509,489.312L1195.509,489.312z M1204.648,483.749l-0.009-0.041l-0.028-0.016l-0.026,0.022l0.005,0.04l0.021,0.021l0.027,0.002L1204.648,483.749L1204.648,483.749z M1211.224,485.118l-0.027-0.012l-0.017,0.048l0.018,0.042l0.033,0.003l0.02-0.037L1211.224,485.118L1211.224,485.118z M1209.484,485.022l0.028-0.021l0.017-0.029l-0.015-0.002l-0.036,0.026l-0.013,0.023L1209.484,485.022L1209.484,485.022z M1201.069,485.765l0.021,0.028l0.029,0.017l0.002-0.015l-0.026-0.036l-0.023-0.013L1201.069,485.765L1201.069,485.765z M1200.839,486.84l0.019,0.002l0.012-0.023l-0.005-0.023l-0.016-0.007l-0.012,0.017L1200.839,486.84L1200.839,486.84z M1200.565,484.873l0.016-0.011l-0.005-0.025l-0.018-0.014l-0.016,0.005l0.002,0.021L1200.565,484.873L1200.565,484.873z M1200.764,485.243l0.01,0.023l0.018-0.007l0.006-0.019l-0.021-0.009L1200.764,485.243L1200.764,485.243z M1209.042,484.89l-0.003,0.014l0.017,0.017l0.017-0.006l0.001-0.019l-0.014-0.014L1209.042,484.89L1209.042,484.89z M1200.607,482.421l-0.004,0.014l0.017,0.017l0.017-0.006l0.001-0.019l-0.014-0.014L1200.607,482.421L1200.607,482.421z M1206.521,484.453l0.003-0.036l-0.014-0.001l-0.016,0.038l0.003,0.023l0.012,0.003L1206.521,484.453L1206.521,484.453z M1198.874,485.91l-0.005,0.031l0.021,0.013l0.034-0.013v-0.023l-0.023-0.013L1198.874,485.91L1198.874,485.91z M1200.892,486.786l0.009-0.018l-0.01-0.019l-0.012,0.01l-0.006,0.016l0.006,0.014L1200.892,486.786L1200.892,486.786z M1204.613,483.331l0.017,0.013l0.031-0.015l0.004-0.029l-0.019-0.008l-0.027,0.011L1204.613,483.331L1204.613,483.331z M1200.828,482.075l-0.006-0.025l-0.012-0.012l-0.005,0.014l0.007,0.025l0.013,0.008L1200.828,482.075L1200.828,482.075z M1203.748,482.985l0.025-0.052l0-0.022l-0.018-0.01l-0.027,0.029l-0.01,0.037l0.013,0.021L1203.748,482.985L1203.748,482.985z M1211.15,485.087l0.026,0.01l0.01-0.014l-0.028-0.047l-0.019-0.008l-0.01,0.017L1211.15,485.087L1211.15,485.087z M1198.624,482.272v0.018l0.018,0.003l0.008-0.018l-0.01-0.01L1198.624,482.272L1198.624,482.272z M1199.926,481.796h0.012l0.007-0.014l-0.008-0.008l-0.014-0.003l-0.004,0.012L1199.926,481.796L1199.926,481.796z M1198.579,482.431l0.014-0.006v-0.014l-0.012-0.011l-0.012,0.008l0.001,0.014L1198.579,482.431L1198.579,482.431z M1202.462,482.751l0.073-0.024l0.035-0.094l-0.017-0.083l-0.038-0.01l-0.122,0.09l-0.007,0.069L1202.462,482.751L1202.462,482.751z M1200.954,482.452l0.035,0.014l0.118-0.049l0.049-0.146l-0.024-0.146l-0.069-0.01l-0.083,0.042l-0.024,0.087l0.028,0.097L1200.954,482.452L1200.954,482.452z M1204.87,484.016l0.066-0.028l-0.007-0.063l-0.069-0.049l-0.052,0.014l-0.017,0.052L1204.87,484.016L1204.87,484.016z M1206.508,486.183l0.044-0.023l0.109,0.018l0.026-0.013l-0.018-0.023l-0.12-0.026l-0.052,0.018l-0.01,0.047L1206.508,486.183L1206.508,486.183z M1204.557,485.102l0.052,0.003l0.071,0.038l0.092,0.005l0.014-0.014l-0.009-0.016l-0.075,0.003l-0.04-0.012l-0.066-0.054l-0.043-0.01l-0.057,0.019l-0.017,0.049l0.026,0.009L1204.557,485.102L1204.557,485.102z M1200.676,481.566l0.038,0.087l0.074,0.099l0.01-0.016l-0.067-0.153l-0.042-0.038L1200.676,481.566L1200.676,481.566z M1200.553,481.523l0.026,0.005l0.026-0.005l-0.008-0.021l-0.031-0.008l-0.029,0.008L1200.553,481.523L1200.553,481.523z M1199.665,481.539l0.013,0.034l0.021,0.003l0.008-0.016l-0.029-0.036L1199.665,481.539L1199.665,481.539z M1208.046,485.031l0.229-0.038l0.08-0.069l0.073-0.01l0.042,0.031l0.035,0.069l0.038-0.003l0.01-0.059l-0.056-0.066l-0.101-0.097l0.017-0.042l0.08,0.017l0.066,0.052l0.063-0.049l0.031-0.115h0.049l0.01-0.021l-0.038-0.031l-0.174-0.073l-0.038-0.042l-0.01-0.097l-0.073-0.052l-0.052-0.003l-0.09,0.035l-0.163-0.049l-0.059-0.149l-0.09-0.07l-0.111-0.014l-0.146,0.042l-0.403-0.125h-0.177l-0.111,0.038l-0.129-0.024l-0.149-0.146l-0.094-0.021l-0.094,0.09l-0.055,0.018l-0.049,0.069l0.021,0.076l0.059,0.094l0.031,0.17l0.01-0.08l-0.014-0.146l0.01-0.045l-0.01-0.094l0.073-0.069l0.09,0.017l0.122,0.097l-0.003,0.045l-0.09,0.111l0.017,0.028l0.111-0.021l0.174,0.059l0.073,0.066l0.163,0.076l0.069,0.073l0.076-0.01l0.104-0.083l0.042,0.014l-0.017,0.035l-0.069,0.031l-0.017,0.09l0.083,0.063l0.035,0.08l-0.094,0.076l-0.049-0.017l-0.031-0.045l0.028-0.031l-0.028-0.014l-0.038,0.021l-0.014,0.08l0.08,0.076l0.174,0.056l0.042,0.028l0.017,0.066l0.049,0.038l0.035-0.021v-0.101l-0.069-0.066l0.017-0.056l0.038,0.007l0.069,0.087l0.174,0.118L1208.046,485.031L1208.046,485.031z M1201.562,482.534l0.026,0.047l0.036-0.031l-0.01-0.089l-0.026-0.021l-0.026,0.036V482.534L1201.562,482.534z M1201.252,483.131l0.039-0.029l0.042-0.083l-0.01-0.013l-0.057,0.039l-0.031,0.063L1201.252,483.131L1201.252,483.131z M1201.234,482.336l0.068,0.016l0.06,0.042l0.177,0.01l0.081,0.023l0.036,0.06l0.07,0.034l0.003,0.042l-0.068,0.057l-0.023,0.128l-0.125,0.125l-0.104,0.156l0.016,0.052l0.167,0.107l0.107,0.107l0.021-0.005l-0.021-0.063l-0.068-0.065l0.01-0.133l0.042-0.128l0.01-0.162l0.013-0.076l0.089-0.115l0.008-0.154l-0.029-0.07l-0.125-0.089l0.003-0.047l0.052-0.039l0.016-0.039l-0.013-0.107l0.01-0.151l-0.039-0.039l-0.143,0.01l-0.18,0.133l-0.117,0.232l-0.026,0.091L1201.234,482.336L1201.234,482.336z M1201.744,483.321l0.057,0.104l0.07,0.057l-0.01,0.036l-0.057,0.021l-0.089-0.003l-0.044,0.042h0.031l0.036-0.018l0.047,0.005l0.062,0.026l0.102-0.008l0.021-0.044l-0.076-0.115l-0.055-0.034l-0.076-0.073L1201.744,483.321L1201.744,483.321z M1200.718,484.843l0.031,0.063l0.042-0.005l0.031-0.047l-0.057-0.031L1200.718,484.843L1200.718,484.843z M1200.853,484.942v0.094l0.036,0.005l0.057-0.031l-0.01-0.057l-0.031-0.036L1200.853,484.942L1200.853,484.942z M1200.473,485.198l0.031-0.021l0.01-0.042l-0.052-0.036l-0.036,0.021l0.005,0.063L1200.473,485.198L1200.473,485.198z M1200.379,485.166l-0.005-0.068l-0.052-0.078l-0.052,0.026l-0.01,0.063l0.073,0.078L1200.379,485.166L1200.379,485.166z M1200.092,485.187l0.073,0.057l0.036-0.016l-0.031-0.078l-0.047-0.016L1200.092,485.187L1200.092,485.187z M1201.171,486.396l0.078,0.042l0.073,0.115l0.062-0.026l-0.026-0.115l0.01-0.089l-0.021-0.057l-0.141-0.047l-0.125,0.052l-0.021,0.068L1201.171,486.396L1201.171,486.396z M1202.087,490.121l0.059,0.031h0.042v-0.031l-0.042-0.035l-0.066-0.003L1202.087,490.121L1202.087,490.121z M1202.267,490.177l0.076,0.003l0.042-0.007l-0.017-0.028l-0.094-0.007l-0.031,0.017L1202.267,490.177L1202.267,490.177z M1200.93,490.344l0.028,0.045l0.035,0.003v-0.038l-0.035-0.052l-0.031,0.003L1200.93,490.344L1200.93,490.344z M1201.565,490.344l0.045-0.007l-0.003-0.028l-0.035-0.017l-0.042,0.003l-0.01,0.028L1201.565,490.344L1201.565,490.344z M1201.305,488.926l0.056-0.028l0.017-0.045l-0.035-0.031l-0.087,0.003l-0.024,0.042l0.007,0.049L1201.305,488.926L1201.305,488.926z M1198.427,490.548l0.01-0.034l0.039-0.026l0.047,0.008l0.023-0.016l-0.031-0.026h-0.047l-0.06,0.052v0.042H1198.427L1198.427,490.548z M1198.625,490.582l0.036-0.016v-0.034l-0.023-0.008l-0.055,0.018l-0.013,0.023L1198.625,490.582L1198.625,490.582z M1198.899,490.707l0.034-0.005l0.073-0.044l-0.008-0.018l-0.047,0.005l-0.07,0.05L1198.899,490.707L1198.899,490.707z M1199.078,490.723l0.021-0.016v-0.021l-0.029-0.026l-0.018,0.013l0.008,0.042L1199.078,490.723L1199.078,490.723z M1199.858,490.196l0.029,0.049l0.055,0.013l0.039,0.052l0.031,0.013l0.013-0.01l-0.021-0.029l-0.021-0.034l-0.005-0.042l-0.07-0.073l-0.05-0.021l-0.013,0.021L1199.858,490.196L1199.858,490.196z M1200.157,490.48l0.029,0.005l0.05-0.018l0.01-0.034l-0.055-0.023l-0.044,0.018l-0.018,0.029L1200.157,490.48L1200.157,490.48z M1200.329,490.194l0.005-0.021l-0.076-0.036l0.01-0.021l0.039-0.013l-0.008-0.023l-0.036-0.003l-0.05,0.026l-0.026-0.005l0.016-0.065l-0.026-0.029l-0.073,0.026l-0.039,0.068l0.044,0.055l0.13,0.042l0.049-0.008L1200.329,490.194L1200.329,490.194z M1200.254,490.055l0.008-0.016v-0.021l-0.016-0.018l-0.018,0.013l0.005,0.034L1200.254,490.055L1200.254,490.055z M1200.903,490.28l0.039-0.005l0.01-0.044l0.057-0.018l0.122,0.031l0.063-0.013l0.068,0.031l0.026,0.07l0.07,0.026l0.107-0.047l0.01-0.039l-0.065-0.042l0.026-0.052l0.073-0.034l-0.016-0.073l-0.042-0.018l-0.052,0.031l-0.042-0.016l-0.01-0.055l-0.029-0.01l-0.081,0.034l-0.068-0.008l-0.13,0.021l-0.096,0.052l-0.018,0.047l-0.036,0.016l-0.008,0.039L1200.903,490.28L1200.903,490.28z M1200.415,490.16l0.023,0.021l0.005,0.042l0.031,0.018l0.052-0.016l0.081,0.021l0.036,0.023l0.167,0.021l0.042-0.013v-0.044l-0.036-0.047l-0.003-0.029l0.023-0.016l0.005-0.039l-0.024-0.029l0.005-0.081l0.034-0.029l0.008-0.039l-0.01-0.047l-0.078-0.031l-0.029-0.029l-0.026,0.005l-0.005,0.078l-0.026,0.018l-0.036-0.026l-0.089-0.026l-0.018-0.042l-0.042-0.003l-0.039,0.05l0.008,0.055l0.081,0.068l0.018,0.052l0.07,0.065l0.068,0.018l0.047,0.073l-0.016,0.042h-0.039l-0.034-0.023l-0.188-0.052l-0.029-0.039l-0.062-0.039l-0.029,0.013l-0.003,0.034l0.018,0.023L1200.415,490.16L1200.415,490.16z M1198.271,484.718v0.021l0.021,0.01l0.021-0.021l-0.018-0.021L1198.271,484.718L1198.271,484.718z M1200.348,487.064l0.073,0.047l0.031-0.036l0.062,0.005l0.151,0.136l0.094,0.146l0.016,0.219l0.068,0.198l0.083,0.057l0.104-0.01l0.026-0.063l0.057-0.016l0.068,0.047l-0.016,0.083l-0.063,0.005l-0.042,0.047l0.026,0.078l0.01,0.188l0.068,0.047h0.276l0.12,0.021l0.068,0.068l0.057,0.01l0.073-0.01l0.198,0.078l0.062,0.057h0.047l0.021-0.156l0.13-0.229l0.089-0.261l0.016-0.208l-0.068-0.094l-0.089-0.031l-0.099,0.068l-0.135,0.021l-0.125,0.172l-0.026,0.151l-0.057,0.063l-0.104-0.01l-0.208-0.141l-0.052-0.115l0.047-0.078l-0.01-0.057l-0.219-0.083l-0.135-0.203l-0.182-0.156l-0.151-0.031l-0.083-0.099l0.01-0.083l-0.047-0.083l-0.198-0.083l-0.073,0.016l-0.021,0.083l0.057,0.12L1200.348,487.064L1200.348,487.064z M1200.702,486.892l0.042,0.052l0.052-0.016v-0.063l-0.057-0.036l-0.042,0.01L1200.702,486.892L1200.702,486.892z M1198.674,484.942l-0.12-0.078l-0.219-0.068l-0.182,0.052l-0.167,0.146l-0.094,0.219l0.026,0.214l0.167,0.224l0.177,0.104l0.135,0.005l0.057,0.036l0.01,0.057l0.125,0.068l0.068,0.068l0.094,0.021l0.057-0.026l0.062-0.13l-0.026-0.036l-0.047,0.01l-0.021-0.036l0.042-0.109l0.12-0.146v-0.057l-0.052-0.057l-0.104-0.349L1198.674,484.942L1198.674,484.942z M1199.117,485.646l0.12,0.188l0.182,0.115l0.047,0.104l-0.036,0.094l-0.261,0.13l-0.026,0.115l0.062,0.073h0.094l0.089-0.042l0.177-0.016l0.24,0.057l0.089,0.078l0.219,0.036l0.172-0.021l0.151,0.068l0.078-0.01l0.036-0.068l0.089-0.01l0.047,0.026l-0.026,0.089l0.005,0.104h0.047l0.089-0.125l0.162-0.021l0.042-0.057v-0.068l-0.094-0.068l-0.01-0.104l-0.057-0.042l-0.057,0.005l-0.031-0.036l0.057-0.052l0.036-0.13l-0.036-0.104l-0.057-0.01l-0.099-0.073l-0.031-0.125l-0.172-0.167l-0.099-0.01l-0.089,0.078l-0.24,0.036l-0.13-0.057l-0.036-0.094l-0.094-0.063l-0.094-0.016l-0.271-0.156l-0.12,0.01l-0.172,0.151L1199.117,485.646L1199.117,485.646z M1201.162,485.84l0.035-0.003l0.017-0.021l-0.028-0.01l-0.042,0.014L1201.162,485.84L1201.162,485.84z M1190.197,472.678l0.017,0.008l0.019-0.017l0.003-0.023l-0.012-0.012l-0.017,0.012L1190.197,472.678L1190.197,472.678z M1189.873,472.446l0.011,0.01l0.024-0.006l0.003-0.017l-0.016-0.01l-0.019,0.005L1189.873,472.446L1189.873,472.446z M1186.233,469.608l0.073-0.016l0.021-0.057l-0.01-0.063l-0.068-0.016l-0.057,0.047l-0.005,0.073L1186.233,469.608L1186.233,469.608z M1188.568,470.384l0.089-0.016l0.068-0.104l-0.063-0.104l-0.104-0.021l-0.089,0.068l-0.01,0.104L1188.568,470.384L1188.568,470.384z M1190.403,470.754l0.089-0.01l0.042-0.099l-0.031-0.115l-0.083-0.047l-0.063,0.005l-0.057,0.073l-0.01,0.104L1190.403,470.754L1190.403,470.754z M1189.209,470.895l-0.031,0.141l0.036,0.313l0.146,0.208l0.172,0.109l0.073,0.068l-0.016,0.073l0.01,0.057l0.167,0.109l0.125,0.016l0.13,0.089l0.042,0.089l0.099,0.036l0.062-0.042l0.042-0.141l0.062-0.068l0.104-0.38v-0.115l-0.162-0.214l-0.276-0.151l-0.182-0.016l-0.141-0.057l-0.12-0.167l-0.109-0.052h-0.141L1189.209,470.895L1189.209,470.895z M1186.504,470.463l0.224,0.146l0.089,0.12l0.109,0.01l0.042-0.068l0.083-0.031h0.125l0.031-0.042l-0.042-0.083v-0.12l-0.089-0.203l-0.005-0.078l-0.042-0.073l-0.13-0.047l-0.109-0.125h-0.083l-0.135,0.109l-0.151,0.047l-0.047,0.109l0.031,0.141l-0.021,0.12l0.026,0.063L1186.504,470.463L1186.504,470.463z M1182.339,468.157l0.236,0.042l0.167-0.063l0.16-0.139l0.042-0.327l-0.083-0.229l-0.174-0.118l-0.118,0.007l-0.202,0.188l-0.111,0.229l-0.014,0.306L1182.339,468.157L1182.339,468.157z M1183.465,468.449l0.111,0.007l0.083-0.083l-0.007-0.125l-0.076-0.035l-0.118,0.056l-0.042,0.125L1183.465,468.449L1183.465,468.449z M1184.971,457.797l-0.012,0.015l0.012,0.022l0.022,0.008l0.014-0.009l-0.008-0.02L1184.971,457.797L1184.971,457.797z M1184.262,458.357l0.019,0.002l0.012-0.023l-0.005-0.023l-0.016-0.007l-0.012,0.017L1184.262,458.357L1184.262,458.357z M1189.188,458.769l0.002-0.014l-0.01-0.013l-0.019-0.006l-0.002,0.013l0.01,0.013L1189.188,458.769L1189.188,458.769z M1188.133,459.395l-0.003,0.014l0.017,0.017l0.017-0.006l0.001-0.019l-0.014-0.014L1188.133,459.395L1188.133,459.395z M1184.899,457.753l0.009,0.011l0.016-0.003l0.004-0.014l-0.014-0.006L1184.899,457.753L1184.899,457.753z M1185.94,457.65l0.048,0.044l0.02,0.006l-0.013-0.029l-0.051-0.043l-0.012,0.006L1185.94,457.65L1185.94,457.65z M1184.142,458.42l0.031,0.004l0.012-0.021l-0.014-0.033l-0.023,0.001l-0.012,0.024L1184.142,458.42L1184.142,458.42z M1184.736,458.325l0.021,0.017l0.009-0.018l-0.015-0.022l-0.017,0.004L1184.736,458.325L1184.736,458.325z M1187.21,458.83l0.012-0.016l-0.006-0.02l-0.013,0.008l-0.009,0.015l0.004,0.015L1187.21,458.83L1187.21,458.83z M1190.828,458.757l-0.009,0.019l0.021,0.028l0.029-0.003l0.004-0.021l-0.017-0.024L1190.828,458.757L1190.828,458.757z M1187.262,458.822l0.026-0.01l0.003-0.015l-0.026-0.007l-0.018,0.012l-0.001,0.018L1187.262,458.822L1187.262,458.822z M1185.759,459.406l-0.015,0.011l0.007,0.015l0.021,0.011l0.01-0.012l-0.006-0.018L1185.759,459.406L1185.759,459.406z M1188.421,458.998l0.005,0.018l0.017-0.002l0.018-0.017l-0.008-0.013l-0.019,0L1188.421,458.998L1188.421,458.998z M1185.765,459.362l0.006-0.02l-0.008-0.009l-0.021,0.022l-0.006,0.026l0.016,0.004L1185.765,459.362L1185.765,459.362z M1186.767,457.762v0.018l0.018,0.003l0.008-0.018l-0.01-0.01L1186.767,457.762L1186.767,457.762z M1187.446,457.85l0.016,0.003l0.01-0.012l-0.01-0.012l-0.016,0.005V457.85L1187.446,457.85z M1184.841,457.822v0.014l0.012,0.008l0.017-0.008l-0.004-0.018l-0.019-0.006L1184.841,457.822L1184.841,457.822z M1186.329,458.827v0.014l0.012,0.008l0.017-0.008l-0.004-0.018l-0.019-0.006L1186.329,458.827L1186.329,458.827z M1187.631,459.873l0.011-0.011l-0.004-0.015h-0.012l-0.01,0.012l0.003,0.017L1187.631,459.873L1187.631,459.873z M1189.191,458.705l0.003,0.016l0.013,0.015l0.008-0.009l-0.006-0.021l-0.012-0.01L1189.191,458.705L1189.191,458.705z M1176.013,463.04l0.037,0.019l0.03-0.011l0-0.034l-0.034-0.021l-0.03,0.003l-0.019,0.019L1176.013,463.04L1176.013,463.04z M1173.371,463.193l-0.006,0.024l0.019,0.005l0.016-0.012l-0.012-0.019L1173.371,463.193L1173.371,463.193z M1178.829,465.408l0.014,0.006l0.02-0.014l-0.003-0.017l-0.018-0.005l-0.016,0.011L1178.829,465.408L1178.829,465.408z M1169.597,462.183l0.014-0.014l-0.002-0.021l-0.015,0.005l-0.011,0.013l0.001,0.015L1169.597,462.183L1169.597,462.183z M1177.433,463.967l0.019,0.009l0.028-0.021l-0.003-0.029l-0.021-0.004l-0.024,0.017L1177.433,463.967L1177.433,463.967z M1169.657,462.26l0.018,0.004l0.007-0.015l-0.005-0.023h-0.015l-0.01,0.017L1169.657,462.26L1169.657,462.26z M1169.343,462.162l0.001-0.028l-0.011-0.01l-0.013,0.016l-0.004,0.016l0.004,0.02l0.012,0.004L1169.343,462.162L1169.343,462.162z M1173.224,463.168l0.028-0.004l0.008-0.012l-0.018-0.01l-0.017-0.001l-0.019,0.007l-0.001,0.012L1173.224,463.168L1173.224,463.168z M1173.72,455.442l0.014,0.006l0.008-0.006l-0.003-0.014h-0.014L1173.72,455.442L1173.72,455.442z M1181.095,453.822l-0.013-0.014l-0.038,0.01l-0.03,0.04l0.014,0.026l0.023-0.009L1181.095,453.822L1181.095,453.822z M1176.79,454.625l0.006-0.027l-0.018-0.024l-0.029,0.006l-0.003,0.021l0.029,0.028L1176.79,454.625L1176.79,454.625z M1179.005,456.299l0.021,0.003l0.007-0.009l-0.016-0.019l-0.019-0.002l-0.002,0.012L1179.005,456.299L1179.005,456.299z M1176.122,455.113l0.016-0.014l-0.002-0.011l-0.025,0l-0.014,0.013l0.008,0.009L1176.122,455.113L1176.122,455.113z M1175.375,456.684l0.013,0.025l0.015,0.004l0.003-0.02l-0.004-0.016l-0.013-0.016l-0.012,0.003L1175.375,456.684L1175.375,456.684z M1175.58,455.747l0.009,0.011l0.015-0.002l0.007-0.017l-0.015-0.011l-0.018,0.008L1175.58,455.747L1175.58,455.747z M1176.279,455.093v0.014l0.012,0.007l0.011-0.01l0.001-0.014l-0.007-0.007L1176.279,455.093L1176.279,455.093z M1176.351,455.112l0.015,0.004l0.011-0.011l-0.006-0.011l-0.016-0.002l-0.013,0.011L1176.351,455.112L1176.351,455.112z M1170.992,457.046l0.039-0.01l0.062,0.023l0.021-0.013l0.013-0.057l-0.021-0.021h-0.102l-0.042-0.018l-0.021,0.016l-0.01,0.112l0.034,0.003L1170.992,457.046L1170.992,457.046z M1171.852,456.006l0.013-0.021l-0.089-0.013l-0.024,0.01l-0.005,0.042l0.021,0.021L1171.852,456.006L1171.852,456.006z M1175.463,456.037l0.003,0.045l0.028,0.007l0.01-0.031l-0.007-0.038l-0.052-0.056l-0.014,0.021L1175.463,456.037L1175.463,456.037z M1175.873,455.505l0.038-0.01l-0.035-0.035l-0.031-0.003l-0.014,0.024L1175.873,455.505L1175.873,455.505z M1176.786,454.876l0.021,0.003l0.035-0.031l0.01-0.028l-0.014-0.052l-0.028,0.007l-0.01,0.052L1176.786,454.876L1176.786,454.876z M1177.096,454.685l-0.007,0.024l0.031,0.007l0.017,0.028l-0.01,0.021l-0.049,0.003l0.004,0.024l0.066,0.01l0.028-0.031v-0.038l-0.021-0.035L1177.096,454.685L1177.096,454.685z M1175.921,455.721l-0.014,0.017l0.014,0.049l0.07,0.028l0.049-0.014l-0.014-0.021l-0.052-0.003l-0.031-0.024L1175.921,455.721L1175.921,455.721z M1176.564,455.425l0.024-0.038l-0.004-0.028l-0.024,0.01l-0.028,0.059L1176.564,455.425L1176.564,455.425z M1177.169,455.766l-0.007,0.028l0.024,0.028l0.028-0.028l-0.014-0.035L1177.169,455.766L1177.169,455.766z M1178.896,456.447l0.038,0.028l0.028-0.003l-0.017-0.031l-0.042-0.021l-0.021,0.007L1178.896,456.447L1178.896,456.447z M1179.049,456.325l0.031-0.003l0.031-0.045l-0.014-0.024l-0.031,0.024L1179.049,456.325L1179.049,456.325z M1179.163,456.273l0.049,0.035l0.024-0.01l0.003-0.045l0.073-0.052l-0.004-0.031l-0.031-0.003l-0.031,0.031l-0.08,0.049L1179.163,456.273L1179.163,456.273z M1188.682,458.318h0.115l0.036-0.031l0.005-0.047l-0.057-0.005l-0.062,0.042l-0.115,0.021l-0.026,0.031L1188.682,458.318L1188.682,458.318z M1189.214,458.261l0.13-0.016l0.021-0.068l-0.042-0.068l-0.083,0.005l-0.089,0.042l-0.005,0.073L1189.214,458.261L1189.214,458.261z M1189.084,458.74l0.042-0.031l-0.016-0.042l-0.052,0.005l-0.01,0.042L1189.084,458.74L1189.084,458.74z M1189.248,458.774l0.023,0.026l0.029-0.023l-0.003-0.039l-0.042-0.021l-0.018,0.023L1189.248,458.774L1189.248,458.774z M1189.05,459.327l0.07-0.076l0.023,0.003l0.013,0.039l0.076,0.005l0.052-0.021l0.044-0.003l0.055,0.01l0.089-0.01l0.078-0.05l0.023-0.039l-0.034-0.031l0.005-0.018l0.042,0.01l0.06-0.021v-0.047l-0.081-0.044l-0.063-0.049l-0.039-0.081l-0.034-0.021l-0.031,0.003l-0.021,0.078l-0.047,0.013l-0.021,0.036l-0.008,0.112l-0.036,0.034l-0.115,0.01l-0.081,0.031l-0.052,0.052l-0.005,0.078L1189.05,459.327L1189.05,459.327z M1187.593,459.574l0.073-0.073l0.146-0.026l0.031-0.063l-0.026-0.042l-0.13-0.021l-0.063,0.031l-0.104,0.167l0.005,0.073l0.036,0.01L1187.593,459.574L1187.593,459.574z M1187.421,460.132l0.083-0.042l0.005-0.078l-0.036-0.026l-0.078,0.031l-0.021,0.083L1187.421,460.132L1187.421,460.132z M1179.08,465.878l0.118-0.021l0.09-0.111l-0.007-0.16l-0.132-0.069l-0.16,0.035l-0.049,0.111l0.042,0.16L1179.08,465.878L1179.08,465.878z M1175.681,462.639l0.062-0.049l0.028-0.111l-0.09-0.076l-0.125,0.028l-0.042,0.097l0.049,0.097L1175.681,462.639L1175.681,462.639z M1176.793,463.195l0.083-0.028l-0.042-0.056l-0.063-0.007l-0.056,0.056L1176.793,463.195L1176.793,463.195z M1177.551,463.626l0.056-0.028l-0.042-0.056l-0.077-0.007l-0.014,0.056L1177.551,463.626L1177.551,463.626z M1178.301,464.022l0.063-0.014v-0.056l-0.056-0.028l-0.042,0.035L1178.301,464.022L1178.301,464.022z M1172.512,462.503l0.035-0.014l-0.004-0.066l-0.035-0.007l-0.017,0.038L1172.512,462.503L1172.512,462.503z M1172.672,462.583l0.101,0.014l0.038-0.014l-0.052-0.017l-0.066-0.076l-0.062-0.003l-0.024,0.038L1172.672,462.583L1172.672,462.583z M1173.847,463.063l0.01-0.035l-0.08-0.049l-0.083-0.097l-0.188-0.049l-0.028,0.031l0.017,0.042l-0.01,0.031l-0.038,0.003l0.003,0.045l0.069,0.052l0.087,0.014l0.069,0.042h0.09L1173.847,463.063L1173.847,463.063z M1173.579,463.167l0.087,0.035l0.01,0.031l-0.062,0.038l0.007,0.063l0.076,0.014l0.146-0.035l0.08-0.07l-0.014-0.035l-0.056-0.007l-0.122-0.066l-0.135-0.017l-0.028,0.021L1173.579,463.167L1173.579,463.167z M1184.862,458.886l-0.035-0.07l0.07-0.118l0.125,0.007l0.083,0.049l0.202-0.056l0.035-0.056l-0.083-0.076l0.007-0.056h0.125l0.174,0.132l0.619,0.118l0.153,0.007l0.125-0.049l0.215,0.021l0.083-0.076h0.111l0.16,0.083l0.083-0.007l0.229-0.167l0.139-0.264l0.111-0.035l0.236,0.028l0.16-0.049l0.035-0.16l-0.063-0.104l-0.195-0.111l-0.118-0.028l0.028,0.049l0.16,0.076l0.056,0.118l-0.083,0.042l-0.299-0.028l-0.431-0.167l-0.375-0.07h-0.653l-0.146-0.049h-0.181l-0.257,0.111l-0.188,0.014l-0.16-0.063l-0.09,0.014l-0.069,0.097l-0.076,0.035l-0.056-0.09l-0.049,0.028l0.014,0.16l0.118,0.257l-0.035,0.063l-0.208,0.021l-0.083,0.111l-0.014,0.167l0.153,0.16l0.097,0.014L1184.862,458.886L1184.862,458.886z M1187.187,457.854l0.083,0.017l0.028-0.014l-0.038-0.028l-0.073-0.017l-0.028,0.017L1187.187,457.854L1187.187,457.854z M1167.757,484.779l0.019-0.04l0.103-0.026h0.089l0.012,0.017l-0.042,0.023l-0.071,0.012l-0.05,0.035l-0.04,0.005L1167.757,484.779L1167.757,484.779z M1168.051,484.8h0.045l0.033-0.016l0.007-0.038l-0.017-0.03l-0.056-0.002l-0.054,0.031v0.033L1168.051,484.8L1168.051,484.8z M1168.886,484.772l0.019,0.026l0.092,0.054l0.038-0.007l0.002-0.024l-0.026-0.016l-0.054-0.01l-0.054-0.03L1168.886,484.772L1168.886,484.772z M1172.259,484.379l0.005-0.044l0.044-0.034h0.081l0.055,0.034l-0.003,0.026l-0.078,0.057h-0.057L1172.259,484.379L1172.259,484.379z M1172.353,484.556l0.112,0.029l0.068-0.008l0.062-0.091v-0.065l-0.034-0.026h-0.083l-0.154,0.091l-0.008,0.042L1172.353,484.556L1172.353,484.556z M1173.059,484.168l0.034-0.013l0.031-0.031l0.06,0.003l0.029-0.023l0.023-0.078l0.008-0.091l-0.036-0.016l-0.07,0.013l-0.122,0.094l-0.031,0.065L1173.059,484.168L1173.059,484.168z M1173.776,480.651l-0.03,0.043l0.007,0.083l0.149,0.146l0.08,0.017l0.116-0.05l0.043-0.07l-0.01-0.086l-0.113-0.093l-0.113-0.023L1173.776,480.651L1173.776,480.651z M1173.613,480.415l0.066,0.133l0.09,0.03l0.166-0.017l0.14,0.03l0.083,0.053l0.026-0.027l-0.056-0.123l-0.223-0.156l-0.186-0.017l-0.106,0.047V480.415L1173.613,480.415z M1173.228,483.169l0.033-0.01l0.013-0.143l-0.036-0.066l-0.05-0.013l-0.023,0.03l0.037,0.179L1173.228,483.169L1173.228,483.169z M1173.032,482.946l0.033-0.023l-0.047-0.043l-0.116-0.05l-0.003,0.023l0.083,0.073L1173.032,482.946L1173.032,482.946z M1173.112,482.833l-0.036-0.063l-0.073-0.027l-0.066,0.007l0.003,0.03l0.149,0.073L1173.112,482.833L1173.112,482.833z M1174.537,482.292h0.036l0.03-0.08l-0.036-0.09l-0.03-0.007l-0.036,0.056l-0.003,0.073L1174.537,482.292L1174.537,482.292z M1174.457,482.156l0.047-0.04l-0.05-0.13l-0.133-0.06l-0.05,0.023l-0.017,0.073l0.086,0.106L1174.457,482.156L1174.457,482.156z M1173.849,482.259l0.08,0.037l0.066-0.023l0.063-0.113l-0.03-0.1l-0.128-0.053l-0.074,0.035l-0.029,0.126L1173.849,482.259L1173.849,482.259z M1172.849,481.541l0.063,0.066l0.093,0.023l0.186-0.023l-0.003-0.03l-0.269-0.066l-0.057,0.007L1172.849,481.541L1172.849,481.541z M1172.776,481.508l0.126-0.03l0.336,0.056l0.146,0.003l0.027-0.063l-0.04-0.027l-0.096,0.007l-0.345-0.027l-0.196,0.043l-0.003,0.027L1172.776,481.508L1172.776,481.508z M1173.653,481.597l0.107,0.057l0.179,0.199l0.113,0.033l0.05-0.037l-0.06-0.206l-0.11-0.083l-0.219-0.037l-0.147,0.024l-0.003,0.032L1173.653,481.597L1173.653,481.597z M1172.265,481.626l0.251,0.013l0.125-0.039l0.026-0.064l-0.035-0.035l-0.151,0.019l-0.238-0.01l-0.139,0.032v0.039L1172.265,481.626L1172.265,481.626z M1171.657,481.668l0.026,0.013l0.126-0.068l0.213-0.048l0.029-0.042l-0.019-0.029l-0.248,0.042l-0.113,0.09L1171.657,481.668L1171.657,481.668z M1171.538,481.807l0.119-0.013l0.241,0.029l0.158-0.01l0.006-0.032l-0.119-0.013l-0.048-0.026l-0.106-0.013l-0.286,0.026l-0.01,0.039L1171.538,481.807L1171.538,481.807z M1172.822,482.554l0.026-0.023l-0.042-0.119l-0.097-0.087l-0.132-0.055l-0.003,0.026l0.126,0.158L1172.822,482.554L1172.822,482.554z M1172.355,482.177l-0.093-0.113l-0.106-0.071h-0.042v0.042l0.109,0.106l0.122,0.052L1172.355,482.177L1172.355,482.177z M1172.504,481.868l0.064,0.061l0.09,0.006l0.006-0.029l-0.09-0.122l-0.064-0.006l-0.026,0.026L1172.504,481.868L1172.504,481.868z M1172.69,481.884l0.161,0.064l0.052-0.01l-0.01-0.055l-0.132-0.093h-0.097l-0.016,0.035L1172.69,481.884L1172.69,481.884z M1172.317,481.462l0.068,0.006l0.058-0.019l-0.019-0.023l-0.129-0.01l-0.023,0.023L1172.317,481.462L1172.317,481.462z M1172.365,481.987l0.254,0.151l0.145,0.045l0.145,0.087l0.097,0.142l0.087,0.058l0.174,0.064l0.161,0.109l0.206,0.068l0.158,0.1l0.058,0.087l0.061,0.019l0.039-0.052l-0.029-0.155l-0.061-0.045l-0.109-0.042l-0.271-0.209l-0.138-0.148l-0.209-0.113l-0.235-0.074l-0.277-0.055l-0.1-0.048l-0.074-0.126l-0.084-0.032l-0.061,0.019l-0.016,0.045L1172.365,481.987L1172.365,481.987z M1172.697,482.261l0.093,0.032l0.019-0.023l-0.068-0.045l-0.071-0.016l-0.019,0.019L1172.697,482.261L1172.697,482.261z M1172.793,481.713l0.216,0.148l0.142,0.045l0.155,0.09l0.251,0.1l0.071,0.087l0.071,0.019l0.048-0.055l0.042-0.129l0.084-0.087l0.01-0.052l-0.155-0.193l-0.103-0.048h-0.399l-0.19,0.045l-0.1-0.019l-0.09-0.068l-0.061,0.019l-0.026,0.052L1172.793,481.713L1172.793,481.713z M1172.011,481.713l0.097-0.003l0.035-0.048l0.01-0.035l-0.048-0.006l-0.106,0.071L1172.011,481.713L1172.011,481.713z M1172.182,481.723l0.052-0.006l0.032-0.023l-0.029-0.023l-0.071,0.01l-0.013,0.026L1172.182,481.723L1172.182,481.723z M1174.271,478.504l0.06,0.004l0.016-0.011l-0.016-0.018l-0.053-0.004l-0.024,0.016L1174.271,478.504L1174.271,478.504z M1174.342,478.639l0.016,0.073l0.086,0.122l0.031,0.073l0.02,0.004l0.011-0.058l-0.064-0.122l-0.04-0.115l-0.044-0.002L1174.342,478.639L1174.342,478.639z M1174.889,479.458l0.086,0.091l0.206,0.12l0.064,0.002l0.011-0.029l-0.053-0.137l-0.111-0.109l-0.066-0.035l-0.246-0.093l-0.011,0.02L1174.889,479.458L1174.889,479.458z M1174.723,479.501l-0.002,0.055l0.084,0.164l0.022,0.018l0.029-0.011l-0.011-0.08l-0.071-0.155l-0.022-0.013L1174.723,479.501L1174.723,479.501z M1175.979,479.442l0.036,0.1l0.066,0.017l0.133-0.03l0.06-0.053l-0.007-0.06l-0.08-0.047l-0.153-0.017l-0.047,0.017L1175.979,479.442L1175.979,479.442z M1176.623,479.292l-0.003,0.056l0.033,0.053l0.061,0.032l0.069-0.004l0.002-0.022l-0.073-0.02l-0.044-0.042l-0.024-0.06L1176.623,479.292L1176.623,479.292z M1177.752,478.599l0.033,0.044l0.069,0.004l0.02-0.042l-0.016-0.04l-0.08-0.038l-0.027,0.016V478.599L1177.752,478.599z M1176.906,479.523l0.024-0.002v-0.022l-0.022-0.007l-0.016,0.013L1176.906,479.523L1176.906,479.523z M1179.686,479.581l-0.01,0.066l0.017,0.12l0.043,0.02l0.033-0.027l0.003-0.05l-0.036-0.047l-0.023-0.08L1179.686,479.581L1179.686,479.581z M1184.589,483.272l0.018,0.08l0.058,0.095l0.036,0.002l0.018-0.028l-0.008-0.037l-0.055-0.066l-0.015-0.06l-0.033-0.03l-0.02,0.007V483.272L1184.589,483.272z M1186.834,485.853l-0.017,0.02l0.007,0.023l0.023,0.003l0.007-0.027L1186.834,485.853L1186.834,485.853z M1186.512,485.717l0.003,0.03l0.03,0.013l0.02-0.023l-0.023-0.033L1186.512,485.717L1186.512,485.717z M1186.578,486.016l0.07,0.007l0.047-0.023l-0.007-0.017l-0.05,0.01l-0.047-0.017l-0.037-0.003l-0.007,0.02L1186.578,486.016L1186.578,486.016z M1196.89,489.747l0.062,0.031l0.044-0.02l0.035-0.075l-0.02-0.042l-0.08-0.038l-0.033,0.016l-0.007,0.047l-0.016,0.044L1196.89,489.747L1196.89,489.747z M1197.854,489.583l0.029,0.013l0.038-0.024l0.004-0.047l-0.013-0.02l-0.022,0.009l-0.038,0.047L1197.854,489.583L1197.854,489.583z M1199.747,488.726l0.035-0.009l0.022-0.027l-0.013-0.024l-0.04,0.007l-0.027,0.038L1199.747,488.726L1199.747,488.726z M1188.728,479.27l0.028-0.021l0.017-0.029l-0.015-0.002l-0.036,0.026l-0.013,0.023L1188.728,479.27L1188.728,479.27z M1188.376,478.954l-0.005,0.013l0.007,0.015l0.018,0.009l0.005-0.013l-0.008-0.015L1188.376,478.954L1188.376,478.954z M1187.672,478.212l0.014,0.006l0.02-0.014l-0.003-0.017l-0.018-0.004l-0.016,0.011L1187.672,478.212L1187.672,478.212z M1187.2,477.891l0.024-0.01l0.01-0.014l-0.015-0.003l-0.023,0.011l-0.005,0.014L1187.2,477.891L1187.2,477.891z M1188.664,479.341l0.014-0.011l-0.001-0.015l-0.018-0.006l-0.013,0.012l0.001,0.014L1188.664,479.341L1188.664,479.341z M1187.746,478.321l0.004,0.016l0.015,0.004l0.01-0.007l-0.003-0.015l-0.014-0.006L1187.746,478.321L1187.746,478.321z M1187.746,478.321l0.004,0.016l0.015,0.004l0.01-0.007l-0.003-0.015l-0.014-0.006L1187.746,478.321L1187.746,478.321z M1187.33,478.19h0.029l0.007-0.031l0.022-0.016l0.04,0.004l0.016-0.024l-0.022-0.044l-0.042-0.024l-0.053-0.004l-0.049,0.035l0.002,0.062L1187.33,478.19L1187.33,478.19z M1164.155,460.186v13.816l-0.111,0.021l-0.028,0.041l0.021,0.066l0.054,0.018v0.036l-0.116,0.019l-0.004,0.031l0.035,0.014l0.083-0.01l0.007,0.035l-0.142,0.073l0.014,0.031l0.045,0.003l0.003,0.039l-0.034,0.021l-0.077-0.063l-0.031,0.014l-0.004,0.052l0.073,0.028l0.004,0.031l-0.052,0.042l0.031,0.028l0.045-0.028l0.028,0.028l-0.01,0.031l0.045,0.031l-0.035,0.021l-0.108,0.014l-0.014,0.045l0.042,0.083l-0.014,0.039l0.035,0.052l-0.017,0.024l-0.091-0.028l-0.052,0.028l0.011,0.028l0.041-0.007l0.011,0.035l-0.018,0.066l-0.048,0.045l-0.014-0.056l-0.028-0.007l-0.052,0.045l-0.091,0.032l0.011,0.028l0.101-0.004l0.014,0.031l-0.053,0.046l-0.007,0.027l0.042,0.014v0.028l-0.038,0.017l-0.007,0.028l0.035,0.025l-0.011,0.027h-0.062l-0.011,0.028l0.028,0.035l-0.01,0.045l-0.028,0.024l0.024,0.032l0.122,0.024l0.055,0.076l-0.013,0.046l-0.053,0.027l-0.017,0.084l0.052,0.055l0.066-0.014l0.038,0.021l0.007,0.049l-0.048,0.059l-0.045,0.004l-0.004,0.027l0.084,0.084h0.086l0.032-0.056l0.027,0.004v0.066l-0.041,0.038l-0.004,0.042l0.038,0.055l0.025-0.014l0.014-0.059l0.038-0.007l0.031,0.038l0.045,0.004l0.028-0.038l0.066,0.01v8.395l0.113,0.075l0.091,0.107l0.17,0.193l0.049,0.013l0.206-0.005l0.3-0.149l0.213-0.227h0.04l0.036,0.019l0.117-0.003l0.047-0.018l0.165,0.015l0.166,0.06l0.115,0.107l0.026,0.037l0.076,0.015l0.2-0.002l0.097,0.044l0.086,0.003l0.435-0.107l0.164,0.005l0.24,0.065l0.211-0.018l0.091-0.084l0.068-0.007l0.055,0.015l0.229-0.028l0.057,0.018h0.073l0.084-0.026l0.25-0.029l0.12-0.112l0.026-0.128l0.008-0.085l0.027,0.025l0.007,0.089l-0.01,0.133l0.041,0.072l0.07,0.023l0.141,0.1l0.06,0.024l0.094,0.002l0.153,0.034l0.04,0.034l0.164,0.034l0.2,0.102l0.238,0.203l0.062,0.065l0.073,0.021l0.123,0.003l0.07,0.018l0.055-0.013l0.135-0.081l0.089-0.021l0.177-0.141l0.089-0.031l0.331-0.195l0.065-0.055l0.148-0.065l0.094-0.123l0.177-0.122l0.339-0.125l0.154-0.016l0.049-0.031l0.081-0.078l0.047-0.024l0.177-0.01l0.131-0.045l0.114-0.013l0.104,0.029l0.066-0.016l0.146-0.096l0.12-0.115l0.01-0.047l-0.024-0.065l-0.005-0.333l-0.021-0.091l0.003-0.24l-0.055-0.097l-0.096-0.065l-0.097-0.122l-0.289-0.404l-0.151-0.138l-0.219-0.149l-0.161-0.156l-0.144-0.05l-0.289-0.034l-0.235-0.041l-0.18-0.139l-0.268-0.132l-0.133-0.118l-0.083-0.021l-0.157,0.003l-0.114-0.034l-0.17,0.008l-0.234,0.089l-0.162,0.122l-0.138,0.034l-0.154-0.018l-0.114-0.065l-0.107-0.126l-0.021-0.112l-0.018-0.198l-0.084-0.195l-0.049-0.013l-0.224,0.005l-0.073,0.029l-0.123,0.013l-0.159,0.117l-0.122,0.044l-0.183-0.021l-0.099-0.083l-0.182-0.062l-0.078-0.11l0.119,0.078l0.266,0.068l0.089,0.042l0.172-0.042l0.125-0.115l0.167-0.062l0.302-0.016l0.146,0.057l0.094,0.105l0.031,0.328l0.073,0.104l0.219,0.073l0.12-0.015l0.115-0.078l0.375-0.131h0.334l0.401,0.188l0.198,0.062l0.328,0.006l0.209-0.105l0.458-0.109l0.433-0.052l0.177-0.084l0.709-0.026l0.438,0.011l0.188-0.078l0.013-0.116l-0.039-0.04l-0.067,0.003l-0.106,0.063l-0.087-0.013l-0.216-0.196l-0.009-0.126l-0.06-0.06l-0.04-0.159l-0.07-0.053l-0.163-0.034l-0.116-0.089l-0.033-0.117l-0.017-0.109l-0.053-0.03h-0.156l-0.083-0.04l-0.027-0.07l-0.009-0.184l-0.034-0.028l-0.023,0.013l-0.007,0.07l-0.06,0.072l-0.168,0.009l-0.051-0.058v-0.189l0.027-0.09l0.01,0.06l-0.007,0.056l0.003,0.136l0.037,0.044l0.123-0.007l0.043-0.05l0.017-0.096l0.043-0.023l0.066,0.013l0.043,0.066l0.014,0.173l0.043,0.046l0.07,0.004l0.103-0.02l0.073,0.036l0.093,0.123l0.003,0.08l-0.007,0.05l0.04,0.056l0.19,0.034l0.099-0.024l0.09-0.053l0.133,0.003l0.202,0.07l0.216,0.126l0.137,0.02l0.338,0.004l0.05-0.067l-0.003-0.079l-0.043-0.057l-0.023-0.066l-0.04-0.024l-0.08,0.024l-0.083-0.04l-0.083-0.09l0.013-0.063l0.03-0.023l-0.013,0.066l0.079,0.08l0.057,0.03l0.076-0.027l0.057,0.014l0.05,0.089l0.109,0.05h0.07l0.017-0.06l-0.047-0.159l-0.229-0.362l-0.04-0.15v-0.143l-0.073-0.199l-0.282-0.482l-0.017-0.086l0.03-0.063l-0.033-0.033l-0.117-0.01l-0.089-0.057l-0.18-0.189l-0.01-0.086l0.06-0.074l0.126,0.017l0.037-0.04l-0.01-0.166l-0.043-0.026l-0.05,0.02l-0.093-0.047l-0.003-0.08l0.016-0.056l-0.046-0.073l0.056,0.023l0.033,0.056l-0.023,0.067l0.003,0.04l0.054,0.023l0.066-0.017l0.08,0.05l0.016,0.193l-0.043,0.07l-0.063,0.016l-0.093-0.023l-0.033,0.037l0.013,0.063l0.16,0.169l0.093,0.023l0.073-0.013l0.086,0.03l0.066,0.083l0.143,0.349l0.087,0.116l0.159,0.1l0.087,0.083l0.059,0.016l0.107-0.006l0.182,0.056l0.2,0.12l0.086,0.02l0.03-0.04l-0.01-0.087l-0.047-0.026l-0.083-0.013l-0.089-0.103l-0.004-0.137l0.027,0.037l0.007,0.08l0.066,0.083l0.096,0.016l0.067,0.04l0.04,0.133l0.059,0.066l0.097,0.047l0.059-0.01l0.07-0.139v-0.077l-0.159-0.176l-0.053-0.123l0.003-0.159l-0.023-0.09l-0.067-0.05l-0.02-0.053l-0.039,0.003l-0.047,0.054l0.003-0.054l0.047-0.036l0.076,0.01l0.043,0.033l0.01,0.04l0.063,0.073l0.02,0.269l0.047,0.066l0.11,0.103l0.03,0.057l0.039,0.046l0.1-0.003l0.103-0.05l0.007-0.089l-0.137-0.05l0.024-0.03l0.129-0.03l0.067-0.063l0.03,0.006l-0.004,0.113l0.06,0.133l0.063,0.014l0.06-0.034l-0.023-0.079l-0.073-0.113l-0.014-0.113l0.007-0.083l0.026,0.01l0.034,0.156l0.089,0.099l0.057-0.013l0.03-0.053l-0.05-0.063l-0.003-0.033l0.03-0.007l0.063,0.063l0.003,0.067l-0.066,0.122l0.01,0.074l0.05,0.087l0.092,0.042l0.087-0.053l0.036,0.003l0.11,0.14l0.013,0.07l0.063,0.029l0.087-0.013l0.003-0.036l-0.096-0.073l-0.06-0.093l-0.047-0.147l0.03-0.142l-0.026-0.093l-0.117-0.21l-0.03-0.089l-0.149-0.057l-0.027-0.083l0.014-0.036l0.036,0.036l0.024,0.06l0.046,0.023l0.06-0.01l0.003-0.036l-0.106-0.19l0.01-0.073l0.026,0.017l0.01,0.05l0.06,0.129l0.05,0.05l0.03,0.076l0.01,0.093l0.03,0.044l0.083,0.053l0.116,0.209l0.02,0.086l0.05,0.027l0.08-0.027l0.006-0.053l-0.096-0.103l-0.027-0.113l0.008-0.176l-0.031-0.192l0.018-0.091l-0.031-0.007l-0.08,0.041l-0.027-0.003l-0.004-0.044l0.014-0.056l0.02,0.023l-0.003,0.037l0.033-0.007l0.053-0.033l0.054,0.013l0.013,0.054h0.023l0.063-0.074l0.003-0.053l-0.083-0.099l-0.103-0.037l-0.016-0.061l0.023-0.078l0.012,0.016l-0.002,0.07l0.017,0.03l0.106,0.026l0.096,0.123l-0.006,0.08l-0.073,0.103l-0.018,0.093l0.029,0.089l0.048,0.066l0.014,0.091l0.066,0.091l0.009,0.042l0.095,0.048l0.113-0.004l0.042,0.02l0.056-0.007l0.028-0.055l0.005-0.062l-0.053-0.111l-0.005-0.073l-0.035-0.077l0.009-0.089l0.033-0.011v-0.033l-0.051-0.107l-0.058-0.079l0.025-0.096l0.04-0.028l0.011-0.056l-0.031-0.042l0.031,0.007l0.024,0.04l-0.015,0.079l-0.04,0.054l-0.003,0.037l0.058,0.071l0.044,0.106l0.06,0.043l0.029-0.007v-0.104l-0.029-0.067l0.013-0.062l0.073-0.064l0.091-0.004l0.016-0.029l0.02-0.097l0.02-0.029l-0.051-0.062l0.015-0.058l0.011,0.018v0.029l0.053,0.064v0.038l-0.026,0.035v0.095l-0.033,0.038l-0.107,0.006l-0.04,0.043l-0.004,0.037l0.033,0.06l-0.006,0.237l-0.031,0.064l-0.003,0.049l0.107,0.126l0.066,0.024l0.058-0.026l0.02-0.095l-0.054-0.098l0.02-0.006l0.038,0.028l0.024,0.078l-0.017,0.117l-0.045,0.098l0.011,0.037l0.116,0.073h0.082l0.062-0.053l0.017-0.091l0.018-0.035l0.004-0.126l-0.106-0.153v-0.148l0.049-0.062l0.115-0.049l0.007-0.067l0.015-0.015l0.009,0.077l-0.018,0.031l-0.104,0.049l-0.04,0.049l0.003,0.119l0.101,0.118l0.023,0.004l0.026-0.02h0.027l-0.058,0.062l-0.015,0.036l0.004,0.179l0.06,0.142l-0.005,0.069l-0.036,0.085l-0.067,0.043l-0.003,0.033l0.096,0.103l0.064,0.01l0.053-0.03l0.04,0.01l0.112,0.08l0.021,0.046l0.059,0.01l0.027-0.023l-0.073-0.086l0.026-0.01l0.127,0.073l0.053,0.1l0.01,0.063l0.036,0.026l0.163,0.01l0.133-0.099l0.007-0.097l-0.097-0.099l0.023-0.007l0.063,0.03l0.057,0.063l0.007,0.09l0.053,0.049l0.163,0.064l0.029-0.03l0.01-0.133l0.037-0.023l0.036,0.006l0.103,0.16l-0.013,0.053l0.03,0.013l0.176-0.033l0.166,0.02l0.123,0.076l0.143,0.216l0.1,0.063l0.704-0.056l0.099,0.023l0.067,0.053l0.282,0.013l0.111-0.057l0.062-0.005l0.027,0.045l-0.054,0.071l0.058,0.11l0.173,0.129l0.438,0.048l0.248,0.062l0.177,0.129l0.062,0.186l0.266,0.288l0.226,0.097l0.102,0.115l0.022,0.124l0.071,0.147l0.026,0.217l0.129,0.296l0.27,0.35l0.146,0.076l0.226,0.274v0.075l0.031,0.036l0.053,0.013l0.071,0.067l0.058,0.124l0.093,0.097l-0.005,0.093l0.049,0.027l0.062-0.022l0.031,0.026l-0.022,0.084l-0.049,0.049l-0.08-0.009l-0.044,0.062l0.005,0.098l0.066,0.097v0.102l0.093,0.181l0.191,0.116l0.217,0.044l0.132,0.053h0.12l0.111,0.044l0.119,0.111l0.182,0.071l0.035,0.035l-0.004,0.062l0.053,0.102l-0.027,0.222l0.049,0.084l-0.031,0.075l0.027,0.036l0.097-0.031l0.177,0.066l0.093,0.226l-0.026,0.133l0.04,0.044l0.075,0.022l0.089,0.146l0.004,0.062l0.137,0.08l0.053-0.027v-0.075l-0.084-0.049l0.009-0.057h0.111l0.049,0.031l0.053,0.115l-0.014,0.071l0.036,0.022h0.071l0.124,0.071l0.026,0.071l0.107,0.04l0.035-0.031l-0.04-0.098l0.022-0.044l0.054,0.004l0.212,0.2l0.022,0.066l0.115,0.102l0.024,0.082l0.139,0.163l0.02,0.099l0.146,0.153l0.093,0.05l0.097,0.136l0.059,0.196l-0.023,0.156l0.03,0.053l0.073,0.03l0.166,0.18l0.01,0.063l0.173,0.159l0.116,0.017l0.153,0.07l0.046,0.079l-0.003,0.166l0.043,0.054l0.034-0.007l0.053-0.096l0.152-0.047l0.13,0.023l0.07,0.077h0.03l0.066-0.14l0.047-0.003l0.066,0.08l-0.003,0.069l-0.057,0.047l-0.08-0.017l-0.009,0.027l0.093,0.03l0.099-0.037l0.09,0.027l0.1,0.139l0.006,0.06l0.08,0.037l0.08-0.027l0.049-0.083l0.064-0.013l0.086,0.026l0.223-0.033l0.152-0.123l0.223-0.01l0.09,0.053l0.079,0.09l0.073,0.013l0.073-0.033l0.094,0.037l0.033,0.133l0.063,0.043l0.063-0.004l0.066,0.027l0.017,0.056l0.033,0.014l0.09-0.04l0.249,0.01l0.206-0.043l0.037-0.044h0.043l0.073,0.03l0.126-0.006l0.066,0.023l0.06-0.003l0.07-0.097l0.123-0.059l0.066,0.026l0.034,0.057l-0.02,0.059l-0.034,0.02l0.014,0.047l0.053,0.036l0.003,0.067l0.03,0.01l0.083-0.017l0.057,0.023l0.016,0.044l0.03,0.003l0.06-0.04l0.246-0.01l0.113,0.033l0.119,0.08l0.06,0.08l0.037,0.003l0.109-0.1l0.226-0.089l0.212,0.01l0.181,0.04l0.075,0.062l0.355,0.141l0.166-0.002l0.095-0.064l0.104,0.011l0.089,0.093l0.145,0.064v0.027l-0.061,0.037l0.009,0.025l0.091-0.003l0.015-0.019l-0.002-0.047l0.061-0.02l0.056,0.043l-0.016,0.077l0.066,0.03l0.133-0.024l0.073-0.066l0.09-0.01l0.099,0.023l0.249-0.023l0.276,0.02l0.162,0.059l0.272,0.17l0.109,0.188l0.048,0.062l0.012,0.062l0.037,0.003l0.058-0.127l0.002-0.082l0.035-0.026l0.129,0.042l0.106,0.077h0.049l0.031-0.026l0.06,0.004l0.044,0.025h0.053l0.058-0.076l0.035-0.073l-0.007-0.035l0.018-0.016l0.018,0.053l-0.02,0.058l0.024,0.051l0.002,0.055l-0.037,0.042l-0.069,0.005l-0.04-0.02h-0.082l-0.048,0.046l-0.018,0.054l-0.073,0.044l-0.109,0.031l-0.064-0.007l-0.044-0.031h-0.091l-0.024,0.022l-0.045-0.002l-0.053-0.053l-0.068-0.002l-0.058,0.064l0.011,0.018l0.087-0.027l0.035,0.011l-0.002,0.027l-0.056,0.015l-0.086,0.084l0.015,0.018l0.042-0.009l0.034,0.02l0.035-0.015l0.009-0.047l0.038-0.002l0.046,0.035l-0.002,0.071l0.02,0.016l0.026-0.049h0.038l0.011,0.055l0.02,0.003l0.042-0.089l0.025-0.009l-0.005,0.058l-0.022,0.046l0.015,0.018l0.047-0.013l0.015,0.017l-0.017,0.045l0.024,0.024l0.058-0.031l0.033-0.064l0.026-0.009l0.027,0.042l0.027,0.013l0.011,0.042l-0.022,0.054l0.026,0.048l0.029,0.005l0.044-0.031l0.033,0.009l0.016,0.062l0.027,0.011l0.048-0.018l0.04,0.022l0.011,0.053l0.042,0.025l0.049-0.003l0.062-0.053l0.159-0.013l0.045,0.027l-0.005,0.024l-0.064,0.011l-0.022,0.049l0.029,0.031l0.071-0.005l0.015,0.018l-0.009,0.038l0.02,0.013l0.102-0.033l0.031-0.058l-0.018-0.031l0.014-0.018l0.039,0.023v0.057l0.02,0.011l0.091-0.046l0.087-0.005l0.07-0.082l0.058-0.002l0.047,0.024l0.019,0.078l0.04,0.018l0.113-0.003l0.036-0.019l0.028,0.004l0.025,0.035l0.018-0.002l-0.005-0.053l-0.022-0.038l0.035-0.035l0.109-0.004l0.026-0.025l-0.008-0.04l0.051-0.064l0.093-0.013l0.135,0.015l0.022,0.027l0.046,0.002l0.058-0.075l0.091-0.044l0.028-0.045l0.054-0.026l0.097,0.006l0.049,0.018l0.035-0.02l0.04-0.069l0.038-0.011l0.015-0.037l-0.062-0.073l-0.031-0.109l-0.037-0.04l-0.023-0.046l-0.093-0.025h-0.088l-0.315-0.113l-0.108-0.062l-0.242-0.068l-0.073,0.004l-0.186-0.029l-0.044-0.028l-0.009-0.118l0.029-0.035l0.013-0.071l0.069-0.062l0.073-0.016l0.031-0.042l0.04-0.008l0.049,0.037l0.093,0.002l0.059,0.038l0.182,0.049l0.075,0.002l0.129,0.044l0.192,0.018l0.073-0.02l0.087-0.066l0.204-0.054l0.059-0.046l0.116-0.02l0.037-0.022l0.031-0.044l0.149-0.078l0.084-0.02l0.044-0.053l0.051-0.029l0.002-0.017l-0.104,0.002l-0.042,0.022l-0.022,0.042l-0.086,0.038l-0.038-0.009l-0.033,0.004l-0.023,0.047l-0.035,0.015l-0.12-0.013l-0.035-0.022l-0.093-0.014l-0.155,0.091l-0.071,0.014l-0.117-0.023l-0.058-0.09l-0.064-0.018l-0.024-0.044l0.039-0.049l0.049-0.007l0.011-0.022l-0.026-0.029h-0.029l-0.024,0.022l-0.065-0.008l-0.037-0.027l-0.049,0.002l-0.035,0.064l-0.038,0.018l-0.155-0.057l-0.033-0.038l-0.04-0.002l-0.076,0.033l-0.106-0.002l-0.119-0.034l-0.045,0.009l-0.037-0.006l-0.038-0.038l-0.049-0.013l-0.066,0.011l-0.059-0.016l-0.056-0.089l-0.15-0.11l-0.096-0.003l-0.043-0.024l-0.004-0.063l-0.086-0.069l-0.047-0.004l-0.023,0.05l-0.086,0.047l-0.07-0.014l-0.103-0.089l-0.186-0.044l-0.103,0.027l-0.149-0.027l-0.19-0.103l-0.056-0.103l-0.047-0.023l-0.079,0.01l-0.027-0.023l0.007-0.08l-0.14-0.146l-0.056-0.146l-0.05-0.03l-0.057,0.007l-0.079-0.044l-0.097-0.139l-0.086-0.08l0.007-0.079l0.113-0.087l0.212-0.053l0.256-0.02l0.04-0.036l0.046-0.01l0.07,0.029l0.076-0.006l0.07-0.053l0.143-0.03l0.047-0.053l0.133-0.024l0.043-0.049l0.026-0.103l-0.03-0.057l-0.086-0.013l-0.043-0.047l-0.004-0.073l-0.026-0.026l-0.083-0.01l-0.043,0.05l-0.18,0.013l-0.173-0.013l-0.083-0.064l-0.083-0.016l-0.059,0.023l-0.16-0.056l-0.02-0.04l-0.076-0.02l-0.146,0.033l-0.057,0.043h-0.06l-0.053-0.03l-0.059-0.003l-0.07,0.063l-0.073,0.007l-0.127-0.07l-0.285-0.027l-0.133,0.054l-0.047-0.01l-0.033-0.05l-0.006-0.073l-0.107-0.097l-0.096-0.04l-0.113-0.079l-0.322-0.077l-0.11-0.01l-0.126-0.139l-0.09-0.312l0.023-0.147l0.13-0.089l0.063-0.156l0.04-0.218l0.089-0.133l0.172-0.078l0.049-0.122l-0.018-0.026l-0.115-0.011l-0.006-0.016l0.099-0.035l0.005-0.033l-0.036-0.039l-0.002-0.05l0.033-0.047l-0.002-0.05l-0.064-0.091l-0.182-0.067l-0.181,0.018l-0.08,0.049l-0.133-0.009l-0.031-0.067l-0.053-0.004l-0.044,0.062l-0.085,0.053l-0.066,0.093l-0.219,0.027l-0.113-0.047l-0.259-0.02l-0.058,0.038l-0.009,0.069l-0.073,0.059l-0.139,0.007l-0.167,0.086l-0.225,0.007l-0.492-0.139l-0.217-0.209l-0.053-0.108l0.024-0.095l-0.042-0.189l-0.091-0.09l-0.066-0.233l-0.007-0.292l-0.146-0.253l-0.339-0.232l-0.239-0.033l-0.199-0.18l-0.027-0.133l0.04-0.099l-0.026-0.279l-0.06-0.127l-0.014-0.358l-0.152-0.319l-0.014-0.14l-0.099-0.279l0.006-0.106l-0.059-0.067l-0.346-0.019l-0.106,0.046l-0.073-0.02l-0.034-0.159l-0.079-0.093l-0.153-0.067l-0.106-0.113l-0.073-0.013l-0.067,0.053l-0.086-0.006l-0.033-0.067l-0.12-0.013l-0.073,0.073l-0.153-0.04l-0.08-0.159l0.009-0.153l-0.034-0.126l-0.093-0.113l-0.101-0.052l-0.09-0.018l-0.029-0.037h-0.025l-0.035,0.035l-0.023-0.005l-0.002-0.052l0.036-0.057l-0.003-0.055l-0.026-0.06l-0.059-0.025l-0.083,0.009l-0.124-0.027l-0.051-0.071l0.007-0.028l0.044-0.011l0.009-0.025l-0.004-0.064l-0.089-0.104l-0.062-0.027l-0.046,0.02l-0.062,0.001l-0.005-0.017l0.033-0.02l0.009-0.028l0.051-0.02l0.005-0.016l-0.092-0.03l-0.048-0.047l-0.068-0.026l-0.04,0.035l-0.036-0.011l-0.013-0.115l-0.04-0.029l-0.062,0.009l-0.031-0.018l0.016-0.057l-0.041-0.019l-0.085,0.014l-0.055-0.019l-0.002-0.046l-0.023-0.007l-0.086,0.023l-0.015-0.018l0.04-0.036l-0.004-0.02l-0.041-0.01l-0.015-0.035l-0.03,0.001l-0.03,0.045l-0.074,0.038l-0.029-0.009l0.018-0.071l-0.036-0.024l-0.082,0.013l-0.048-0.009l0.004-0.026l0.064-0.027l0.02-0.031l-0.013-0.062l-0.031-0.009l-0.027,0.014l-0.042-0.027l-0.035-0.095l-0.06-0.036l-0.015-0.073l0.026-0.051l-0.004-0.031l-0.044-0.006l-0.016-0.042l0.044-0.056l-0.002-0.031l-0.057-0.035l-0.009-0.033l0.04-0.141l-0.01-0.116l-0.15-0.193l-0.13-0.073l-0.003-0.06l0.047-0.073l0.003-0.103l-0.06-0.02l-0.03-0.053l0.043-0.093l0.04-0.04l0.007-0.07l-0.027-0.006l-0.036,0.053l-0.033,0.083l-0.047,0.003l-0.176-0.129l-0.026-0.107l-0.047-0.029l-0.043,0.013l-0.04-0.027l0.02-0.299l-0.01-0.259l0.05-0.262l0.033-0.05l0.076,0.01l0.216-0.03l0.077-0.08l0.076-0.033h0.186l0.07,0.02l0.1,0.083l0.099,0.02l0.153-0.017l0.14,0.02l0.112,0.043l0.117-0.01l0.059-0.059l0.13-0.04l0.169,0.013l0.226,0.07l0.206,0.01l0.027-0.023l-0.003-0.083l0.049-0.034h0.22l0.099-0.026l0.286,0.02l0.232-0.067l0.067-0.079l0.08-0.05l0.056-0.143l-0.017-0.07l-0.066-0.023l-0.08,0.013l-0.011-0.026l0.102-0.076l-0.004-0.044l-0.04-0.053v-0.106l0.04-0.076l0.026-0.227l-0.06-0.186l-0.073-0.056l-0.036-0.057l-0.003-0.106l-0.12-0.13l-0.179-0.039l-0.127-0.103l-0.086-0.273l-0.12-0.126l-0.043-0.11l-0.189-0.196l-0.246-0.146l-0.046-0.079l-0.196-0.14l-0.15-0.017l-0.08-0.026l-0.113-0.1l-0.059-0.01l-0.06,0.033l-0.073,0.007l-0.093-0.05h-0.067l-0.169,0.16l-0.166,0.003l-0.037-0.046l-0.083-0.017l-0.083,0.033l-0.113-0.016l-0.02-0.094l-0.063-0.059l-0.076-0.007l-0.043,0.066l-0.057,0.027l-0.129-0.03l-0.196-0.129l-0.047-0.123l-0.139-0.073l-0.147-0.007l-0.139,0.05l-0.08-0.037l-0.01-0.069l-0.043-0.047l-0.1-0.043l-0.063-0.067l-0.119-0.053h-0.13l-0.076-0.026l-0.156-0.13l-0.02-0.063l-0.156-0.143l-0.22-0.116l-0.03-0.096l-0.073-0.027l-0.199,0.047l-0.086-0.02l-0.03-0.064l-0.077-0.063l-0.056-0.01l-0.13,0.073l-0.063-0.01l-0.02-0.046l-0.05-0.023l-0.109-0.004l-0.16-0.056l-0.036-0.057l-0.08-0.026l-0.06,0.02l-0.073-0.013l-0.083-0.074l-0.106-0.046l-0.233-0.04l-0.096-0.073h-0.149l-0.103,0.066l-0.163-0.023l-0.053-0.053h-0.077l-0.059,0.057l-0.087,0.019l-0.109-0.056l-0.07-0.1l-0.03-0.133l0.04-0.146l0.04-0.043l0.016-0.08l-0.013-0.113l0.046-0.149l0.097-0.14l0.089-0.066l0.014-0.053l-0.03-0.023l-0.04,0.016l-0.027-0.016l0.017-0.093l-0.003-0.266l0.036-0.09l0.007-0.053l-0.103-0.319l-0.013-0.153l0.036-0.156l0.06-0.086l0.003-0.087l-0.133-0.112l-0.146-0.064l-0.212-0.149l-0.044-0.083l-0.073-0.07l-0.099-0.066l-0.176-0.239l-0.01-0.09l-0.087-0.087l-0.063-0.019l-0.066-0.057l-0.017-0.063l-0.131-0.107l-0.01-0.056l-0.056-0.052h-0.073l-0.034-0.014l-0.004-0.052l-0.031-0.045l-0.108-0.035l-0.09-0.063l-0.066-0.118l-0.063-0.059l-0.139-0.031l-0.205,0.021l-0.059,0.041l-0.125,0.014l-0.083-0.045l-0.111-0.04l-0.073,0.03l-0.04-0.004l-0.05-0.063l-0.133-0.038l-0.073-0.003l-0.083-0.056l-0.018-0.066l-0.059-0.062l-0.059-0.024l-0.007-0.049l0.025-0.042v-0.052l-0.192-0.139l-0.045-0.066l-0.041-0.017l-0.105,0.014l-0.083-0.039l-0.031-0.1l0.014-0.06l0.059-0.02l0.014-0.028l-0.049-0.077l-0.514-0.285l-0.247-0.093l-0.104,0.01l-0.073-0.007l-0.174-0.125l-0.056-0.122l0.018-0.142l0.048-0.066v-0.049l-0.031-0.069l-0.024-0.004l-0.045,0.035l-0.018-0.024l0.031-0.101l-0.003-0.045l-0.08-0.049l-0.219-0.028l-0.33-0.069l-0.295-0.007l-0.004,0.031l0.066,0.024l0.084,0.066l0.1-0.017l0.039,0.007l-0.063,0.066l-0.097-0.003l-0.063-0.07l-0.149-0.045l-0.021-0.028l0.045-0.014l-0.007-0.024l-0.306,0.007l-0.003,0.035l0.052,0.076l0.108,0.014l0.073,0.059l0.003,0.097l-0.035,0.025l-0.083-0.039l-0.024-0.111l-0.039-0.01l-0.066,0.062l-0.132-0.01l-0.059-0.063l0.007-0.045l0.094-0.014l0.045-0.045l-0.003-0.031l-0.16,0.042l-0.177,0.01l-0.164,0.021l-0.017,0.042l-0.038,0.031l-0.035-0.007l-0.024-0.066l-0.077-0.038l-0.114-0.105l-0.073-0.142l-0.118-0.087l-0.192-0.063l-0.086-0.066l-0.011-0.066l-0.128-0.083l-0.219-0.066l-0.098-0.073l-0.003-0.056l0.031-0.041l-0.01-0.032l-0.035,0.004l-0.014,0.042l-0.031,0.034l-0.101-0.003l-0.146-0.083l-0.153-0.146l-0.062-0.132l-0.105-0.098l-0.09-0.041l-0.139-0.018l-0.059-0.059l-0.129-0.052l-0.257,0.003l-0.18-0.055l-0.244-0.031l-0.045-0.049l-0.25-0.07l-0.222,0.011l-0.07,0.028l-0.17-0.021l-0.087-0.042l-0.212-0.017l-0.365-0.077l-0.118-0.052l-0.275-0.055l-0.076-0.042l-0.354-0.129l-0.33-0.038l-0.233-0.128l-0.421-0.185l-0.01-0.059l-0.056-0.031l-0.177-0.01l-0.215-0.08l-0.115-0.014l-0.136-0.049l-0.309-0.254l-0.313-0.194l-0.177-0.024l-0.184,0.045l-0.097-0.018l-0.16-0.128l-0.063-0.073l-0.219-0.066l-0.611-0.303l-0.049-0.045l-0.42-0.194l-0.052-0.035l-0.091-0.042l-0.097-0.007l-0.236-0.059l-0.115-0.083l-0.003-0.066l-0.032-0.011l-0.034,0.032l-0.049-0.018l-0.018-0.041l-0.048-0.028l-0.063,0.003l-0.076-0.034l-0.017-0.032l-0.084-0.038l-0.104,0.014h-0.084l-0.163-0.035l-0.135-0.073l-0.112-0.003l-0.052,0.024h-0.025l-0.031-0.022l-0.024-0.002L1164.155,460.186z"/>
</svg>
