<svg xmlns="http://www.w3.org/2000/svg" viewBox="432.333 261.498 1.036 1.829">
  <path d="M432.543637,261.497895l0.019112,0.003475l0.005212,0.036486l-0.017374,0.022586l-0.043435,0.019112l-0.024324,0.027799l-0.050385,0.019112l-0.00695,0.026061l0.020849,0.04691l0.027934,0.025926l-0.009692,0.009692l-0.033228,-0.005538l-0.016614,0.008307l-0.001385,0.02769l0.013845,0.035997v0.041535h0.011076v-0.02769l0.012461,-0.020768l0.020768,-0.022152l0.006923,-0.029075l0.012461,-0.01523l0.040151,-0.017999l0.030459,0.005538l0.058149,0.037382l0.034613,0.034613l0.059534,0.034613l0.073379,0.02769l0.051227,0.009692l0.059534,0.033228l0.006923,0.034613l-0.002769,0.033228l0.005538,0.023537l-0.011076,0.037382l-0.035997,0.078917l-0.01523,0.058149l-0.013845,0.02769l-0.026306,0.029075l-0.029075,0.009692l-0.033228,0.024921l-0.024921,0.016614l-0.016614,-0.009692l0.012461,-0.016614l0.023537,-0.016614l0.004154,-0.020768l-0.013845,-0.034613l-0.016614,-0.005538l-0.026306,0.002769l-0.011076,0.012461l-0.035997,0.002769l-0.062303,-0.019383l-0.053996,-0.011076l-0.002769,0.009692l0.024921,0.045689l0.026306,0.063687l0.020768,0.023537l0.023537,0.006923l0.026306,-0.013845l0.019383,-0.024921l0.01523,-0.001385l0.022152,0.006923l0.012461,0.009692l-0.029075,0.04292l-0.040151,0.116299l-0.006923,0.091377l0.008307,0.049842l0.026306,0.049842l0.038766,0.013845l0.02769,0.016614l0.013845,0.01523l0.022152,0.006923l0.024921,-0.011076l0.04292,0.001385l0.035997,0.030459l0.019383,0.006923l0.016614,-0.004154l0.012461,0.011076l-0.002769,0.01523l0.008307,0.017999l0.023537,0.024921l0.001385,0.031844l-0.004154,0.038766l0.006923,0.013845l-0.01523,0.038766l-0.063687,0.058149l-0.074763,0.051227l-0.045689,0.022152l-0.05538,0.04292l-0.034613,0.01523l-0.029075,0.029075l-0.012461,0.026306l-0.016614,0.006923l-0.011076,-0.001385l-0.017999,0.008307l-0.016614,0.022152l-0.01523,0.005538l-0.009692,-0.009692v-0.02769l-0.013845,-0.016614l-0.034613,-0.01523l-0.01523,0.005538l-0.008307,0.01523l-0.011076,-0.001385l-0.009692,-0.044304l0.012461,-0.065072l0.009692,-0.013845l-0.005538,-0.020768l-0.035997,-0.01523l-0.04292,0.002769l-0.026306,0.019383l-0.011076,-0.005538l-0.011076,-0.038766l0.012461,-0.031844l0.056765,-0.049842l0.009692,-0.022152l0.031844,-0.023537l0.066456,-0.017999l0.037382,-0.023537l0.019383,-0.033228l0.001385,-0.041535l-0.008307,-0.01523l0.011076,-0.024921l0.029075,-0.011076l0.016614,-0.048458l0.001385,-0.033228l-0.002769,-0.048458l-0.008307,-0.074763l-0.012461,-0.074763l-0.033228,-0.092762l-0.030459,-0.071994l-0.030459,-0.062303l-0.020768,-0.019383l-0.017999,-0.004154l-0.045689,-0.04292l-0.011076,-0.049842l0.002769,-0.034613l-0.001385,-0.031844l-0.011076,-0.031844v-0.04292l0.017999,-0.04292l-0.004154,-0.045689l-0.009692,-0.040151l-0.008307,-0.053996l-0.013845,-0.017999l-0.024921,-0.006923l-0.004154,-0.024921l0.012461,-0.02769l0.01523,-0.011076l0.006923,-0.019383l0.005538,-0.024921l0.029075,-0.022152l0.02769,-0.004154l0.023537,0.002769l0.019383,-0.009692l0.002769,-0.009692l0.013845,-0.011076l0.019383,-0.004154l0.018134,-0.01979Z M433.228832,263.010183l0.017999,-0.009692l-0.001385,-0.011076l-0.029075,-0.002769l-0.024921,0.012461v0.011076h0.037382Z M433.363129,263.162478l0.005538,-0.013845l-0.002769,-0.011076l-0.009692,-0.001385l-0.005538,0.011076v0.012461l0.012461,0.002769Z M433.274521,263.194322l0.016614,-0.011076l0.005538,-0.020768l0.019383,-0.012461l-0.009692,-0.008307l-0.020768,0.011076l-0.006923,0.016614l-0.020768,0.006923l-0.001385,0.01523l0.017999,0.002769Z M432.957469,263.284315l0.023537,-0.001385l0.011076,0.013845l-0.001385,0.012461l0.009692,0.016614l0.01523,0.001385l0.013845,-0.009692l0.006923,-0.024921l0.01523,-0.006923l0.019383,0.002769l0.019383,-0.004154l0.022152,-0.017999l0.013845,0.002769v0.026306l0.01523,0.013845l0.023537,-0.006923l0.020768,-0.01523l0.01523,-0.001385l0.01523,0.006923h0.022152l0.030459,-0.01523l0.002769,-0.019383l-0.029075,-0.019383v-0.013845l-0.011076,-0.006923l-0.01523,0.006923h-0.02769l-0.004154,-0.009692l0.019383,-0.012461l0.006923,-0.01523l-0.004154,-0.01523l0.01523,-0.023537l0.030459,-0.019383l0.011076,-0.016614l-0.001385,-0.02769l-0.012461,-0.033228l-0.029075,-0.016614l-0.045689,0.002769l-0.05538,0.020768l-0.01523,0.023537l-0.013845,0.013845l-0.016614,0.005538l-0.048458,0.053996l-0.020768,0.048458l-0.040151,0.056765l-0.022152,0.006923l-0.004154,0.011076l0.019383,0.005538Z "/>
</svg>
