<svg xmlns="http://www.w3.org/2000/svg" viewBox="389.529 381.169 10.121 2.403">
  <path d="M391.250137,381.684058l0.003464,-0.022519l0.024251,-0.010393l0.027716,0.017322l-0.003464,0.022519l-0.03118,0.005197l-0.020787,-0.012126Z M389.539566,382.536312l0.018188,-0.002598l0.002598,-0.01559l-0.01559,-0.005197l-0.01559,0.010393l0.010393,0.012992Z M389.555156,382.811736l0.002598,0.020787l0.03118,0.005197l0.036377,0.038975l0.072753,0.028582l0.041573,0.020787l0.06236,-0.005197l0.041573,-0.020787l0.051967,-0.064958l0.038975,-0.023385l-0.002598,-0.06236l-0.049368,-0.067557l-0.041573,-0.002598l-0.028582,0.018188l-0.051967,0.002598l-0.06236,-0.020787l-0.085745,0.018188l-0.020787,0.023385l0.002598,0.033778l-0.012992,0.038975l-0.025983,0.018188Z M399.233953,382.011449l0.01559,-0.012992l0.002598,-0.041573l-0.020787,-0.01559l-0.023385,0.020787l0.005197,0.025983l0.020787,0.023385Z M399.501582,381.863343l0.036377,0.007795l0.018188,-0.01559l-0.023385,-0.023385l-0.038975,-0.002598l-0.010393,0.018188l0.018188,0.01559Z M399.623703,381.954285l0.025983,-0.005197v-0.033778l-0.018188,-0.012992l-0.041573,0.005197l-0.010393,0.01559l0.044172,0.03118Z M398.272569,382.19593l0.023385,-0.005197l0.007795,-0.020787l-0.028582,-0.01559l-0.028582,0.010393v0.020787l0.025983,0.010393 Z M398.298553,381.68146l0.010393,-0.018188l-0.023385,-0.012992l-0.018188,0.005197l0.007795,0.023385l0.023385,0.002598Z M398.379101,381.82177l-0.005197,-0.020787l-0.018188,-0.012992l-0.010393,0.01559l0.012992,0.023385l0.020787,-0.005197Z M398.350519,382.777957l0.07795,0.041573l0.101335,0.005197l0.041573,-0.036377l0.10913,-0.020787h0.07795l0.025983,0.018188l0.059762,0.002598l0.051967,-0.01559v-0.023385l-0.03118,-0.012992v-0.018188h0.023385l0.025983,0.018188l0.04677,-0.023385l0.085745,-0.002598l0.025983,-0.007795l0.007795,-0.036377l0.041573,-0.020787l0.04677,0.020787h0.057163l0.080548,-0.01559l0.012992,-0.028582l0.023385,-0.002598l0.018188,0.018188l0.023385,0.005197l0.057163,-0.005197l0.020787,-0.01559l-0.038975,-0.036377l-0.036377,-0.012992l-0.028582,0.012992h-0.03118l-0.07795,-0.020787l-0.036377,0.002598l-0.163695,-0.049368l-0.083147,-0.002598l-0.119523,0.018188l-0.03118,0.028582l-0.023385,0.012992l-0.028582,-0.005197l-0.036377,0.005197l-0.067557,0.036377l-0.067557,0.005197l-0.1559,0.059762l-0.085745,-0.002598l-0.028582,0.020787l0.005197,0.041573l0.023385,0.041573Z M399.174192,382.718196l0.025983,-0.005197l0.01559,-0.018188l-0.025983,-0.010393l-0.03118,0.018188l0.01559,0.01559Z M399.392452,382.05562l0.01559,-0.010393l-0.007795,-0.038975l-0.049368,-0.03118l0.010393,-0.023385l0.054565,0.010393l0.028582,0.038975l0.051967,0.018188l0.018188,-0.010393l-0.010393,-0.033778l0.023385,-0.007795l0.025983,0.005197l0.007795,-0.012992l-0.059762,-0.059762l-0.070155,-0.028582l-0.075352,0.002598l-0.028582,-0.018188l-0.020787,0.002598l-0.010393,0.023385l-0.025983,-0.007795l-0.03118,-0.028582l-0.023385,-0.041573l-0.012992,0.010393l0.044172,0.085745l0.038975,0.025983l0.018188,0.041573l0.033778,0.033778l0.038975,0.023385l0.01559,0.03118Z M394.847964,383.54793l0.034644,-0.034644l-0.024251,-0.013858l-0.048502,0.020787l-0.010393,0.051967l0.048502,-0.024251Z M395.083547,383.42321v-0.03118l-0.017322,-0.017322l-0.017322,0.024251l0.006929,0.027716l0.027716,-0.003464Z M392.104123,381.845155l0.067557,0.135113l0.04677,0.033778l0.090942,0.005197l0.038975,0.033778v0.049368l0.012992,0.038975l0.04677,0.054565v0.06236l0.018188,0.038975l0.057163,0.038975l-0.002598,0.059762l-0.041573,0.020787l-0.042439,0.06236l-0.027716,0.01559v0.025983l0.028582,0.01559l0.002598,0.044172l-0.03118,0.028582v0.03118l0.012992,0.041573l-0.010393,0.049368l-0.051967,0.054565l-0.000866,0.051967l0.01559,0.01559l0.024251,-0.005197l0.010393,0.025983l-0.051967,0.023385l-0.020787,0.072753l0.012992,0.041573l0.080548,0.019921l0.027716,0.019054l-0.010393,0.034644l-0.100469,0.040707l-0.04677,0.038975v0.09354l0.012992,0.049368l0.041573,0.002598l0.020787,0.028582l-0.012992,0.023385l0.007795,0.03118l0.04677,0.005197l0.010393,-0.023385l-0.028582,-0.03118l-0.002598,-0.036377l0.033778,-0.038975l0.049368,0.005197l0.028582,0.028582l0.111728,0.025983l0.103933,0.012992l0.070155,-0.049368l0.018188,-0.041573l0.059762,-0.018188l0.132515,0.012992l0.051967,0.028582l0.023385,-0.005197l0.018188,-0.023385l0.044172,0.007795l0.025983,0.049368l0.044172,0.020787l0.057163,0.06236l0.07795,0.020787l0.033778,0.002598l0.010393,-0.018188l-0.038975,-0.023385l0.005197,-0.020787l0.036377,-0.005197l0.03118,-0.023385l-0.012992,-0.023385l-0.039841,-0.024251l0.011259,-0.014724l0.057163,0.01559l0.009527,0.042439l0.022519,0.013858l0.053699,-0.006929l0.06236,0.007795l0.018188,-0.018188l0.033778,-0.005197l0.033778,0.018188l0.057163,-0.002598l0.070155,-0.049368l0.083147,-0.023385l0.018188,-0.051967h-0.025983l-0.03118,0.028582l-0.025983,-0.007795l0.023385,-0.04677l0.106532,-0.044172l0.03118,0.01559l0.010393,0.06236l0.020787,0.018188l0.03118,-0.044172l0.088343,-0.007795l0.038975,0.041573l0.096138,0.03118l0.041573,0.01559l0.038975,-0.010393l0.033778,-0.03118l0.06236,-0.01559l0.052833,0.010393l0.01559,0.022519l-0.005197,0.025983l0.019921,0.013858l0.04677,-0.023385h0.038975l0.020787,0.025117l0.024251,0.006929l0.095272,-0.045038l0.055431,-0.010393l0.188812,-0.059762l0.10913,0.011259l0.111728,0.103067l0.057163,0.01559l0.083147,0.057163l0.044172,0.002598l0.038975,-0.07795l0.103933,-0.059762l0.070155,0.005197l0.075352,0.054565l0.018188,0.044172l0.023385,0.020787l0.049368,-0.007795l0.038975,0.010393l0.028582,0.023385l0.038109,0.025117l0.057163,-0.013858l0.005197,-0.04677l0.068423,-0.052833l0.036377,0.005197l0.064958,0.03118l0.012992,0.025983l-0.033778,0.010393l-0.06236,-0.01559l-0.028582,0.010393l0.007795,0.03118l0.033778,0.023385l0.038975,-0.025983l0.059762,0.002598l0.051967,0.020787l0.03118,-0.005197l0.041573,-0.033778l0.103933,-0.03118l0.106532,-0.06236h0.080548l0.051967,0.028582l0.03118,-0.002598l0.075352,-0.080548h0.080548l0.044172,0.03118l0.038975,0.005197l0.038975,-0.01559l0.04677,0.007795l0.148105,-0.020787l0.067557,-0.049368l0.049368,-0.010393l0.01559,-0.033778l0.03118,-0.020787l0.03118,0.005197l0.03118,-0.005197l0.03118,-0.028582l0.038975,-0.007795l0.012992,-0.04677l-0.007795,-0.041573l0.007795,-0.051967l0.038975,-0.03118l0.041573,0.010393l0.025983,-0.007795l0.018188,-0.033778l0.002598,-0.054565l0.057163,-0.10913l0.007795,-0.054565l0.051967,-0.088343l0.07795,-0.049368l0.028582,-0.057163l0.072753,-0.036377l0.072753,0.033778h0.023385l-0.010393,-0.036377l0.020787,-0.03118l0.090942,-0.033778l0.049368,0.023385h0.059762l0.018188,-0.023385l-0.020787,-0.025983l-0.012992,-0.054565l0.028582,-0.023385l0.041573,0.01559l0.020787,0.057163l0.025983,0.002598l-0.002598,-0.033778l0.01559,-0.018188l0.03118,0.012992l0.012992,-0.018188l-0.038975,-0.036377l-0.023385,-0.04677l0.005197,-0.041573l-0.018188,-0.002598l-0.020787,0.025983l-0.03118,-0.010393l-0.01559,-0.033778l0.005197,-0.044172l-0.023385,-0.01559v-0.03118l0.025983,-0.028582v-0.106532l-0.023385,-0.041573l0.002598,-0.044172l0.049368,-0.067557l0.00812,-0.075676l-0.019325,-0.004141l-0.038163,0.059031l-0.025983,0.007795l-0.007795,-0.028582h-0.025983l-0.020787,0.036377l-0.049368,0.01559l-0.103933,-0.012992l-0.064958,-0.028582l-0.023385,-0.04677l-0.03118,-0.005197l-0.033778,0.023385l-0.033778,-0.002598l-0.085745,-0.067557v-0.036377l-0.025983,-0.012992l-0.06236,0.036377l-0.007795,-0.020787l0.017052,-0.041736l-0.014453,-0.005034l-0.041573,0.041573l-0.044172,-0.002598l-0.020787,-0.03118l-0.054565,-0.041573l-0.103933,-0.025983l-0.10913,-0.049368l-0.030314,-0.000866l-0.043306,0.017322l-0.071021,-0.005197l-0.166293,-0.050234l-0.057163,0.008661l-0.045038,0.045038l-0.06236,0.001732l-0.07795,-0.029448l-0.091835,-0.013641l-0.11457,-0.045552l-0.07454,-0.009663l-0.016564,0.015184l0.030368,0.03727l0.103527,0.040031l0.006902,0.026227l-0.053834,0.040031h-0.024847l-0.005521,-0.027607l-0.020705,-0.015184l-0.040031,0.006902l-0.033129,-0.040031l0.004141,-0.086963h-0.012423l-0.022086,0.040031l-0.034509,0.030368l-0.07454,0.009663l-0.040031,-0.03727v-0.030368l0.006902,-0.023466l-0.008282,-0.005521l-0.024847,0.033129l-0.024251,0.006198l-0.162829,-0.013858l-0.069289,-0.038109l-0.048502,-0.003464l-0.041573,0.024251l-0.114327,-0.003464l-0.197473,-0.045038l-0.211331,-0.006929l-0.055431,0.020787l-0.038109,0.051967l-0.065824,0.006929l-0.107398,-0.038109l-0.197473,-0.034644l-0.09354,0.010393l-0.065824,-0.006929l-0.086611,-0.027716l-0.194009,0.013858l-0.131649,0.058896l-0.121256,0.003464l-0.110862,-0.048502l-0.09354,-0.024251l-0.259833,0.003464l-0.12472,0.03118l-0.079682,-0.003464l-0.079682,-0.024251l-0.122122,-0.001732l-0.163695,-0.064958l-0.275423,-0.028582l-0.17149,0.028582l-0.098737,0.07795l-0.01559,0.088343l0.044172,0.114327l-0.018188,0.07795l-0.197473,0.119523l-0.197473,0.057163l-0.012992,0.04677l0.054565,0.064958Z M395.840528,383.452658l0.038109,0.013858l0.055431,-0.003464l-0.012126,-0.01559l-0.079682,-0.012126l-0.017322,0.003464l0.01559,0.013858Z "/>
</svg>
