<svg xmlns="http://www.w3.org/2000/svg" viewBox="577.504 323.110 3.595 3.007">
  <path d="M580.709131,323.57146l0.01559,0.003464l-0.001732,0.045038l0.006929,0.034644l-0.01559,0.006063l-0.036377,-0.026849l-0.001732,-0.025983l0.032912,-0.036377Z M580.610394,323.509966l0.025983,-0.010393l0.010393,-0.020787l-0.038975,-0.012992l-0.007795,0.023385l0.010393,0.020787Z M580.711729,323.533351l0.028582,0.007795l0.041573,-0.025983l0.072753,-0.075352l0.051967,-0.041573l0.054565,-0.005197l0.068423,0.012126l0.012126,-0.017322l-0.01559,-0.020787l0.023385,-0.041573l-0.023385,-0.033778l0.020787,-0.044172l-0.012126,-0.01559l-0.032046,0.01559l-0.049368,-0.033778h-0.033778l-0.090942,0.041573l-0.023385,0.036377l-0.041573,0.01559l-0.025983,0.03118l0.002598,0.030314l-0.013858,0.041573l-0.043306,0.052833l-0.012992,0.033778l0.041573,0.036377Z M581.070299,323.432016l0.028582,0.007795l-0.002598,-0.020787l-0.023385,-0.012992l-0.020787,0.010393l0.018188,0.01559Z M580.761097,323.230212l0.01559,-0.001732l0.001732,-0.013858l-0.013858,-0.008661l-0.013858,0.010393l0.010393,0.013858Z M581.069433,323.230212v-0.017322l-0.013858,-0.003464l-0.012126,0.010393l0.010393,0.012126l0.01559,-0.001732Z M581.072898,323.138404l0.012126,-0.012126l-0.010393,-0.01559l-0.01559,0.001732l-0.001732,0.017322l0.01559,0.008661Z M581.062504,323.186906l0.01559,-0.003464l0.003464,-0.013858l-0.01559,-0.005197l-0.012126,0.010393l0.008661,0.012126Z M580.108985,325.39847l0.019054,-0.001732l-0.012126,-0.057163l-0.020787,-0.003464l-0.010393,0.020787l0.024251,0.041573Z M580.285672,325.957978l0.032912,0.112595l0.057163,0.043306l0.03118,0.003464l-0.029448,-0.041573l-0.038109,-0.036377l-0.022519,-0.086611l-0.003464,-0.083147h-0.017322l-0.010393,0.088343Z M580.289136,325.798614l0.024251,-0.003464l-0.010393,-0.081414l-0.103933,-0.207867l-0.041573,-0.045038l-0.024251,-0.041573l-0.010393,0.006929l-0.003464,0.03118l0.017322,0.038109l-0.005197,0.051967l0.022519,0.024251l0.038109,0.013858l0.06236,0.114327l0.006929,0.045038l0.027716,0.053699Z M577.545295,324.469998l0.024251,0.083147l-0.006929,0.038109l0.100469,0.107398l0.024251,0.045038l0.266762,0.142042l0.114327,0.090076l0.06236,0.006929l0.148971,0.051967l0.072753,0.048502l0.055431,0.013858l0.048502,-0.006929l0.135113,0.038109l0.055431,0.038109l0.055431,0.003464l0.090076,-0.045038l0.076218,-0.010393l0.103933,0.034644l0.076218,-0.003464l0.086611,-0.051967l0.072753,-0.135113l0.065824,-0.027716l0.038109,-0.055431l0.003464,-0.048502l0.114327,-0.090076l0.083147,-0.003464l0.038109,-0.020787h0.027716l0.042439,0.043306l0.059762,0.025983l0.025983,-0.002598l-0.058896,-0.038975l-0.047636,-0.049368l-0.044172,-0.012992l-0.10913,0.012992l-0.070155,-0.033778l-0.272825,-0.048502l-0.055431,-0.072753l-0.048502,-0.017322l-0.152436,-0.166293l-0.072753,-0.020787l-0.204402,0.041573l-0.055431,-0.017322h-0.03118l-0.055431,0.045038l-0.173222,0.038109l-0.142042,-0.034644l-0.131649,-0.051967l-0.138578,-0.159365l-0.117791,-0.010393l-0.034644,0.055431l-0.183616,0.166293v0.041573l0.038109,0.024251Z "/>
</svg>
