<svg xmlns="http://www.w3.org/2000/svg" viewBox="1138.750 421.810 1.956 3.234">
  <path d="M1140.599,421.884l0.007,-0.014l0.011,0.003l0.004,0.011l-0.01,0.007l-0.012,-0.007Z M1140.602,421.848l0.007,-0.004v-0.023l-0.015,-0.011 l-0.011,0.004v0.016l0.019,0.018Z M1139.959,423.399l0.006,0.022l0.015,-0.003l0.017,-0.021l-0.004,-0.015l-0.014,-0.003l-0.014,0.007l-0.006,0.012Z M1139.951,423.341l0.028,0.004l0.017,-0.019h0.022l0.004,-0.011 l-0.052,-0.021l-0.04,-0.008l-0.004,0.012l0.022,0.015l0.004,0.027Z M1140.703,422.276l-0.019,-0.079l-0.01,-0.114l0.016,-0.036l-0.003,-0.028l-0.052,-0.078l-0.033,-0.024l-0.035,0.005l-0.016,0.052l0.042,0.078l0.031,0.028l0.01,0.024l-0.005,0.041l0.021,0.047l-0.023,0.062l-0.059,0.079l-0.049,0.021l-0.052,-0.023l-0.06,0.018l-0.038,0.059l-0.029,0.003l-0.033,-0.009l-0.031,0.028l0.021,0.076l-0.007,0.045l-0.031,0.016l-0.014,-0.016l-0.017,0.01l-0.003,0.04l-0.028,0.034h-0.042l-0.012,0.017l0.007,0.029l-0.007,0.04l0.012,0.031l0.078,0.021l0.005,0.024l-0.047,0.053l-0.019,-0.002v-0.026l0.024,-0.029l-0.012,-0.016l-0.035,-0.009l-0.01,0.021l-0.021,0.003l-0.024,-0.009l-0.021,0.022l0.021,0.04l-0.035,0.04l0.002,0.036l-0.038,0.043l0.002,0.024l0.023,0.007l0.023,-0.007l0.01,0.014l-0.017,0.019l0.005,0.021l0.028,0.009l0.069,0.034l0.009,0.022l-0.016,0.021l0.002,0.031l0.019,0.019l0.009,0.047l-0.016,0.021l0.009,0.05l0.033,0.024l0.021,0.002l0.026,0.019l0.019,0.043l-0.002,0.021l0.011,0.01h0.039l0.01,-0.015 l-0.038,-0.017l-0.023,-0.05l0.019,-0.003l0.021,0.01l0.055,-0.017l0.016,-0.026l-0.003,-0.022l0.028,-0.012l0.017,0.012l-0.002,0.041l0.017,0.021l0.033,-0.007l0.026,-0.036v-0.038l-0.033,-0.072v-0.021l0.021,-0.016l0.007,-0.045l-0.007,-0.062l0.021,-0.04l0.035,-0.012l0.014,-0.031l-0.01,-0.045l0.026,-0.04l0.026,-0.01l0.014,-0.031l0.042,-0.024l0.009,-0.028l-0.064,-0.064l-0.028,-0.048l0.021,-0.036h0.024l0.033,-0.019l0.012,-0.026l-0.01,-0.059l0.005,-0.031l-0.012,-0.014l0.005,-0.016l0.021,-0.01l0.012,-0.086l-0.002,-0.06l0.019,-0.034Z M1140.387,423.34l0.014,0.012h0.014v-0.012l-0.022,-0.021h-0.01l0.004,0.021 Z M1140.327,423.37l0.017,0.005l0.003,-0.011l-0.018,-0.012l-0.01,0.007l0.008,0.011Z M1139.893,423.275h0.011l0.004,-0.01l-0.01,-0.007l-0.01,0.004l0.004,0.012Z M1140.156,423.474l0.019,-0.007l0.023,-0.033v-0.032l-0.023,-0.045l0.007,-0.019v-0.019l-0.036,-0.01 l-0.017,0.012l-0.036,0.003l-0.026,0.023h-0.046l-0.004,0.012 l0.041,0.045l0.018,-0.004v-0.019l0.019,-0.01l0.036,0.011l0.037,0.005l0.006,0.016l-0.032,0.034l-0.004,0.021l0.017,0.014Z M1140.127,423.441l0.008,-0.012l-0.021,-0.021l-0.028,0.003v0.014l0.04,0.016 Z M1139.622,424.218l0.019,0.007l0.029,-0.01l-0.003,-0.014l-0.028,-0.008l-0.012,0.005l-0.006,0.019Z M1139.339,423.586l0.023,0.027l0.039,0.008l0.003,-0.005l-0.026,-0.01l-0.012,-0.012l0.003,-0.018l-0.025,-0.023l-0.011,0.005l0.007,0.027Z M1139.393,423.591l-0.004,0.008l0.041,0.012l0.019,-0.004l-0.003,-0.011l-0.019,0.003l-0.019,-0.004l-0.015,-0.004Z M1140.029,423.404l0.022,0.055l-0.008,0.026l0.012,0.03l0.028,0.01l0.05,-0.011l0.011,-0.021l-0.017,-0.026h-0.035l-0.019,-0.011 l-0.033,-0.058l-0.033,-0.026l-0.004,0.005l0.026,0.026Z M1139.887,423.362l0.006,0.007l0.014,-0.011l0.022,0.003l0.014,0.012h0.014l0.037,-0.005 v-0.01l-0.032,0.005 l-0.012,-0.004l-0.023,-0.011h-0.028l-0.011,0.014Z M1139.862,423.425l0.021,0.034l0.021,0.003l0.023,0.026v0.016l-0.014,0.018 l-0.012,0.03l0.003,0.036l-0.018,0.018h-0.022l-0.048,0.014l-0.018,0.022l-0.011,0.038l-0.017,0.026l-0.021,0.007l-0.025,0.026l-0.023,0.044l-0.028,-0.004l-0.012,-0.027l-0.022,-0.034l-0.028,-0.008l-0.015,-0.022l-0.029,-0.007l-0.023,-0.052l-0.012,-0.027h-0.01l0.003,0.027l0.039,0.066l0.019,0.003l0.011,0.008v0.016l0.015,0.008 h0.019l0.018,0.018l0.017,0.054l0.014,0.008l0.026,-0.011l0.011,0.004l-0.004,0.032h0.007l0.012,-0.038 l0.028,-0.034l0.003,-0.019l0.011,-0.007l0.008,0.015h0.018l0.035,-0.045 l-0.004,-0.021l0.011,-0.04l0.039,-0.011l0.036,0.011l0.035,0.055h0.022l0.011,-0.045 l-0.014,-0.015l-0.015,-0.003l-0.025,-0.033l-0.007,-0.047l0.018,-0.027l0.022,0.005l0.017,-0.01l-0.008,-0.038l-0.014,-0.016h-0.018l-0.046,-0.029 l-0.018,-0.03v-0.023l-0.01,-0.001 v0.038Z M1139.26,424.004l0.055,-0.012l0.006,-0.023l-0.043,-0.018l-0.022,0.01l-0.01,0.029l0.014,0.015Z M1139.472,424.115l0.015,-0.011l0.004,-0.027h-0.008l-0.006,0.019 l-0.01,0.01l0.004,0.01Z M1139.205,424.211l-0.021,-0.03l-0.004,0.008l0.011,0.025l-0.004,0.03l0.008,0.003l0.01,-0.025v-0.011Z M1139.216,424.257l0.025,-0.014l0.008,-0.027l-0.006,-0.005l-0.018,0.023l-0.014,0.005l-0.006,0.011l0.01,0.007Z M1139.433,424.136h0.015l-0.001,-0.011 l-0.015,-0.014l-0.007,0.011l0.008,0.014Z M1138.75,425.032l0.008,0.012h0.033l0.066,-0.055l0.018,-0.032l-0.039,-0.052l-0.019,-0.004l-0.012,0.01h-0.037l-0.008,0.012 l0.019,0.049l-0.01,0.037l-0.019,0.022Z M1139.249,424.415l0.018,0.016l0.025,-0.003l0.026,-0.027l0.018,-0.008l-0.003,-0.012h-0.018l-0.028,0.023h-0.019l-0.019,-0.021 l-0.011,0.007l0.011,0.025Z M1139.336,424.301l0.022,-0.008l-0.012,-0.026h-0.019l-0.019,0.019l0.006,0.015h0.023Z M1139.149,424.715l0.011,-0.03l0.012,-0.015h0.026l0.094,-0.066 l0.008,-0.03l0.039,-0.036l-0.011,-0.005l-0.047,0.022l-0.01,-0.011l0.029,-0.03l-0.008,-0.019l0.006,-0.044l-0.015,-0.005l-0.043,0.023l-0.012,0.034l-0.04,0.054l-0.057,0.019l-0.015,0.029l0.014,0.058l-0.003,0.065l0.022,-0.011Z M1139.28,424.296l0.017,-0.011l0.01,-0.016h-0.014l-0.022,0.023l0.01,0.004Z M1139.278,424.313l0.017,-0.004v-0.01l-0.026,0.003l-0.007,0.01h0.017Z M1139.634,423.93h0.01l0.032,-0.026 l0.003,-0.01h-0.015l-0.029,0.036Z M1139.628,423.964l-0.051,0.016l-0.011,0.033l0.007,0.073l0.044,0.016l0.052,-0.008l0.03,0.008l0.023,0.026l0.012,-0.008l-0.008,-0.023l-0.019,-0.015l-0.007,-0.032l0.017,-0.029v-0.047l-0.01,-0.019 v-0.043l-0.006,0.004 l-0.014,0.095l-0.028,0.025l-0.05,0.011l-0.015,-0.016l0.008,-0.037l0.026,-0.022l-0.003,-0.008Z M1139.683,423.864l0.012,-0.003l-0.006,-0.015l-0.015,-0.01l-0.006,0.01l0.014,0.018Z M1139.672,423.986l0.007,-0.005l0.006,-0.029l-0.01,-0.011l-0.007,0.011l0.004,0.034Z M1139.724,423.645l0.017,-0.003l0.006,-0.023l-0.004,-0.021l-0.015,0.004l-0.011,0.027l0.008,0.015Z M1139.705,423.679l-0.004,0.023l0.014,0.005l0.011,-0.016l0.003,-0.018l-0.018,-0.015l-0.011,0.004l0.006,0.016Z M1139.835,423.568l0.012,-0.01l-0.003,-0.014l-0.012,0.003l-0.008,0.018l0.011,0.003Z M1139.167,424.166l0.01,-0.007l-0.011,-0.029h-0.014l-0.004,0.011 l0.019,0.025Z M1139.458,424.077h0.007l0.011,-0.014l-0.004,-0.01l-0.01,0.008l-0.004,0.015Z M1139.668,423.654l0.008,-0.012l-0.01,-0.011l-0.012,0.004v0.014l0.014,0.005 Z M1139.679,423.719l-0.003,-0.016l-0.01,-0.011l-0.008,0.014l0.007,0.016l0.014,-0.003Z M1139.799,423.598v-0.014l-0.012,-0.008 l-0.007,0.01l0.01,0.012h0.01Z "/>
</svg>
