<svg xmlns="http://www.w3.org/2000/svg" viewBox="1138.750 421.819 1.953 3.253">
  <path d="M1140.599,421.893l0.007-0.014l0.011,0.003l0.004,0.011l-0.01,0.007L1140.599,421.893z M1140.602,421.857l0.007-0.004l-0.001-0.023l-0.014-0.011l-0.011,0.004v0.017L1140.602,421.857z M1139.959,423.417l0.005,0.022l0.015-0.003l0.017-0.021l-0.004-0.015l-0.014-0.003l-0.014,0.007L1139.959,423.417z M1139.951,423.359l0.028,0.004l0.016-0.019l0.022,0.001l0.004-0.012l-0.052-0.021l-0.04-0.008l-0.004,0.012l0.022,0.015L1139.951,423.359z M1140.703,422.288l-0.019-0.08l-0.01-0.114l0.016-0.036l-0.003-0.028l-0.052-0.078l-0.033-0.024l-0.035,0.005l-0.016,0.052l0.042,0.078l0.031,0.028l0.01,0.024l-0.005,0.042l0.021,0.047l-0.023,0.062l-0.059,0.08l-0.049,0.021l-0.052-0.023l-0.06,0.018l-0.038,0.059l-0.029,0.003l-0.033-0.009l-0.031,0.028l0.021,0.076l-0.007,0.045l-0.031,0.016l-0.014-0.016l-0.017,0.01l-0.003,0.04l-0.028,0.035h-0.042l-0.012,0.017l0.007,0.029l-0.007,0.04l0.012,0.031l0.078,0.021l0.005,0.024l-0.047,0.054l-0.019-0.002v-0.026l0.024-0.029l-0.012-0.016l-0.035-0.009l-0.01,0.021l-0.021,0.003l-0.024-0.009l-0.021,0.023l0.021,0.04l-0.035,0.04l0.002,0.036l-0.038,0.043l0.002,0.024l0.023,0.007l0.022-0.007l0.01,0.014l-0.017,0.019l0.005,0.021l0.028,0.009l0.069,0.035l0.009,0.023l-0.016,0.021l0.002,0.031l0.019,0.019l0.009,0.047l-0.016,0.021l0.009,0.05l0.033,0.024l0.021,0.002l0.026,0.019l0.019,0.043l-0.002,0.021l0.011,0.01l0.04,0l0.01-0.016l-0.038-0.017l-0.022-0.05l0.019-0.003l0.021,0.01l0.055-0.017l0.016-0.026l-0.003-0.023l0.028-0.012l0.017,0.012l-0.002,0.042l0.017,0.021l0.033-0.007l0.026-0.036v-0.038l-0.033-0.073v-0.021l0.021-0.016l0.007-0.045l-0.007-0.062l0.021-0.04l0.035-0.012l0.014-0.031l-0.01-0.045l0.026-0.04l0.026-0.01l0.014-0.031l0.042-0.024l0.009-0.028l-0.064-0.064l-0.028-0.048l0.021-0.036h0.024l0.033-0.019l0.012-0.026l-0.01-0.059l0.005-0.031l-0.012-0.014l0.005-0.016l0.021-0.01l0.012-0.087l-0.002-0.061L1140.703,422.288z M1140.387,423.358l0.014,0.012h0.014v-0.012l-0.022-0.021l-0.01,0.001L1140.387,423.358z M1140.327,423.388l0.017,0.006l0.003-0.011l-0.018-0.012l-0.01,0.007L1140.327,423.388z M1139.893,423.293h0.011l0.004-0.01l-0.01-0.007l-0.01,0.004L1139.893,423.293z M1140.156,423.493l0.019-0.007l0.023-0.033v-0.032l-0.023-0.046l0.007-0.019l-0.001-0.019l-0.035-0.01l-0.017,0.012l-0.036,0.003l-0.026,0.023l-0.046-0.001l-0.004,0.014l0.042,0.046l0.018-0.004v-0.019l0.019-0.01l0.036,0.011l0.037,0.006l0.006,0.017l-0.032,0.035l-0.004,0.021L1140.156,423.493z M1140.127,423.46l0.008-0.012l-0.021-0.021l-0.028,0.003l0.001,0.014L1140.127,423.46z M1139.622,424.241l0.019,0.007l0.029-0.01l-0.003-0.014l-0.028-0.008l-0.012,0.006L1139.622,424.241z M1139.339,423.605l0.023,0.028l0.039,0.008l0.003-0.006l-0.026-0.01l-0.012-0.012l0.003-0.018l-0.025-0.023l-0.011,0.005L1139.339,423.605z M1139.393,423.61l-0.004,0.008l0.041,0.012l0.019-0.004l-0.003-0.011l-0.019,0.003l-0.019-0.004L1139.393,423.61z M1140.029,423.423l0.022,0.055l-0.008,0.026l0.012,0.03l0.028,0.01l0.05-0.011l0.011-0.021l-0.016-0.026l-0.035-0.001l-0.019-0.01l-0.033-0.058l-0.033-0.026l-0.004,0.006L1140.029,423.423z M1139.887,423.38l0.005,0.007l0.014-0.011l0.022,0.003l0.014,0.012l0.014,0.001l0.037-0.007l-0.001-0.01l-0.03,0.006l-0.012-0.004l-0.023-0.011h-0.028L1139.887,423.38z M1139.862,423.443l0.021,0.035l0.021,0.003l0.023,0.026l0.001,0.017l-0.015,0.018l-0.012,0.03l0.003,0.036l-0.018,0.018h-0.022l-0.048,0.014l-0.018,0.022l-0.011,0.039l-0.017,0.026l-0.021,0.007l-0.025,0.026l-0.023,0.044l-0.028-0.004l-0.012-0.028l-0.022-0.035l-0.028-0.008l-0.015-0.022l-0.029-0.007l-0.024-0.052l-0.012-0.028h-0.01l0.003,0.028l0.039,0.066l0.019,0.003l0.011,0.008l0.001,0.017l0.014,0.008h0.019l0.018,0.018l0.017,0.054l0.014,0.008l0.026-0.011l0.011,0.004l-0.004,0.032l0.007-0.001l0.012-0.037l0.028-0.035l0.003-0.019l0.011-0.007l0.008,0.015l0.018-0.001l0.035-0.044l-0.004-0.021l0.011-0.04l0.039-0.011l0.036,0.011l0.034,0.055l0.022,0.001l0.011-0.047l-0.014-0.015l-0.015-0.003l-0.025-0.033l-0.007-0.047l0.018-0.028l0.022,0.006l0.017-0.01l-0.008-0.039l-0.014-0.017l-0.018-0.001l-0.046-0.028l-0.018-0.03l-0.001-0.023l-0.008-0.001V423.443z M1139.26,424.026l0.055-0.012l0.005-0.023l-0.043-0.018l-0.022,0.01l-0.01,0.029L1139.26,424.026z M1139.472,424.138l0.015-0.011l0.004-0.028l-0.008,0.001l-0.005,0.018l-0.01,0.01L1139.472,424.138z M1139.205,424.234l-0.021-0.03l-0.004,0.008l0.011,0.025l-0.004,0.03l0.008,0.003l0.01-0.025V424.234z M1139.216,424.28l0.025-0.014l0.008-0.028l-0.005-0.006l-0.018,0.023l-0.014,0.005l-0.006,0.011L1139.216,424.28z M1139.433,424.158l0.015,0.001l-0.001-0.012l-0.015-0.014l-0.007,0.011L1139.433,424.158z M1138.75,425.06l0.008,0.012h0.033l0.066-0.055l0.018-0.032l-0.039-0.052l-0.019-0.004l-0.012,0.01l-0.037-0.001l-0.008,0.014l0.019,0.05l-0.01,0.037L1138.75,425.06z M1139.249,424.439l0.018,0.017l0.025-0.003l0.026-0.028l0.018-0.008l-0.003-0.012h-0.018l-0.028,0.023l-0.019-0.001l-0.019-0.019l-0.011,0.007L1139.249,424.439z M1139.336,424.324l0.022-0.008l-0.012-0.026h-0.019l-0.019,0.019l0.005,0.015H1139.336z M1139.149,424.741l0.011-0.03l0.012-0.015l0.026-0.001l0.094-0.065l0.008-0.03l0.039-0.036l-0.011-0.006l-0.047,0.022l-0.01-0.011l0.029-0.03l-0.008-0.019l0.006-0.044l-0.015-0.006l-0.043,0.023l-0.012,0.035l-0.04,0.054l-0.057,0.019l-0.015,0.029l0.014,0.058l-0.003,0.065L1139.149,424.741z M1139.28,424.32l0.016-0.011l0.01-0.017h-0.014l-0.022,0.023L1139.28,424.32z M1139.278,424.336l0.017-0.004v-0.01l-0.026,0.003l-0.007,0.01L1139.278,424.336z M1139.635,423.951l0.01,0.001l0.032-0.028l0.003-0.01h-0.015L1139.635,423.951z M1139.628,423.986l-0.051,0.017l-0.011,0.033l0.007,0.073l0.044,0.017l0.052-0.008l0.03,0.008l0.024,0.026l0.012-0.008l-0.008-0.023l-0.019-0.015l-0.007-0.032l0.016-0.029l0.001-0.047l-0.011-0.019l0.001-0.043l-0.007,0.004l-0.014,0.095l-0.028,0.025l-0.05,0.011l-0.015-0.017l0.008-0.037l0.026-0.022L1139.628,423.986z M1139.683,423.885l0.012-0.003l-0.005-0.015l-0.015-0.01l-0.005,0.01L1139.683,423.885z M1139.672,424.008l0.007-0.006l0.005-0.029l-0.01-0.011l-0.007,0.011L1139.672,424.008z M1139.724,423.664l0.017-0.003l0.005-0.023l-0.004-0.021l-0.015,0.004l-0.011,0.028L1139.724,423.664z M1139.705,423.699l-0.004,0.023l0.014,0.006l0.011-0.017l0.003-0.018l-0.018-0.015l-0.011,0.004L1139.705,423.699z M1139.835,423.587l0.012-0.01l-0.003-0.014l-0.012,0.003l-0.008,0.018L1139.835,423.587z M1139.167,424.189l0.01-0.007l-0.011-0.029l-0.014-0.001l-0.004,0.012L1139.167,424.189z M1139.458,424.099h0.007l0.011-0.014l-0.004-0.01l-0.01,0.008L1139.458,424.099z M1139.668,423.674l0.008-0.012l-0.01-0.011l-0.012,0.004l-0.001,0.014L1139.668,423.674z M1139.679,423.739l-0.003-0.017l-0.01-0.011l-0.008,0.014l0.007,0.017L1139.679,423.739z M1139.799,423.617l-0.001-0.014l-0.011-0.008l-0.007,0.01l0.01,0.012H1139.799z"/>
</svg>
