<svg xmlns="http://www.w3.org/2000/svg" viewBox="716.530 256.373 35.073 21.325">
  <path d="M746.073153,269.394466l0.172,0.053l0.068,0.046l0.005,0.079l0.012,0.165l0.07,0.069l0.097,0.188l0.083,0.076l0.73,0.292l0.125,0.042l0.146,-0.007l0.125,0.021l0.16,0.076l0.091,0.007l0.048,-0.041l0.195,-0.028v-0.07l-0.111,-0.097l0.007,-0.056l0.132,-0.027l0.027,-0.077l-0.069,-0.042l0.007,-0.062l0.139,0.007l0.076,0.048l0.125,0.021l0.146,0.153l0.098,0.007l0.041,-0.055l0.007,-0.098l0.07,-0.076l0.16,-0.066l0.09,-0.059l0.167,-0.066l0.1,-0.021l0.199,-0.091l0.055,-0.048l0.122,-0.056l0.073,-0.048l0.087,-0.011l0.104,0.018l0.055,-0.014l0.049,-0.059l0.097,0.006l0.059,0.035l0.16,0.004l0.07,-0.028l0.059,0.01l0.038,0.028l0.153,0.056l0.281,0.076l0.15,0.097l0.17,0.192l0.094,0.156l0.024,0.142l-0.014,0.06l-0.041,0.024v0.062l0.031,0.112l0.051,0.082l-0.028,0.005l-0.073,-0.034l-0.073,-0.02l-0.026,0.046l0.052,0.157l0.067,0.026l0.047,-0.026l0.094,0.021l0.005,0.036l-0.073,0.058l-0.078,0.151l-0.062,0.208l-0.016,0.339l-0.047,0.438l-0.057,0.187l-0.089,0.094l-0.146,0.037l-0.271,0.01l-0.443,0.047l-0.49,0.073l-0.38,0.12l-0.277,0.188l-0.239,0.25l-0.178,0.234l-0.114,0.198l-0.146,0.256l-0.214,0.26l-0.316,0.311l-0.083,0.112l-0.028,0.09l-0.045,0.031l-0.073,0.004l-0.098,0.059l-0.048,0.156l-0.004,0.157l0.049,0.135l0.069,0.087l0.018,0.094l-0.025,0.17l-0.034,0.056v0.09l0.027,0.049l0.07,0.01v0.035l-0.066,0.028l-0.028,0.027l0.004,0.118l0.073,0.199l-0.007,0.118l-0.066,0.09l-0.025,0.063l0.007,0.083l-0.038,0.066l-0.066,0.066l-0.028,0.09l0.014,0.091l-0.017,0.055l-0.049,0.045l-0.031,0.115v0.087l-0.025,0.112l0.004,0.107l-0.49,0.026l-0.36,-0.083l-0.417,-0.026l-0.818,-0.35l-0.078,-0.021l-0.073,-0.244l-0.089,-0.209l-0.031,-0.177l-0.104,-0.11l-0.277,0.178l-0.302,0.036l-0.099,0.026l-0.094,-0.036l-0.13,-0.308l-0.104,-0.078l-0.12,0.156l-0.542,-0.047l-0.26,0.037l-0.115,-0.146l-0.126,-0.073l-0.13,-0.052l-0.047,-0.068v-0.068l-0.041,-0.052l-0.058,-0.021l-0.088,0.026h-0.167l-0.193,-0.093l-0.156,-0.006l-0.079,-0.031l-0.182,0.011l-0.12,0.041l-0.302,0.016l-0.266,0.088l-0.287,0.146l-0.099,0.016l-0.057,-0.005h-0.099l-0.146,0.068l-0.235,0.046l-0.161,-0.026l-0.125,0.016l-0.167,0.068l-0.162,0.005l-0.161,-0.021l-0.277,0.063l-0.119,0.073l-0.303,0.109l-0.198,0.011l-0.135,0.062l-0.084,0.089l-0.078,0.146l-0.099,0.088l-0.203,0.105l-0.214,0.156l-0.188,0.281l-0.093,0.079l-0.105,0.026l-0.083,0.067l-0.057,0.12l-0.209,0.089l-0.151,-0.011l-0.172,0.042l-0.255,0.167l-0.094,0.016l-0.099,-0.027l-0.136,0.006l-0.12,0.078l-0.13,0.042l-0.177,-0.042l-0.219,-0.13l-0.13,-0.11l-0.214,-0.062h-0.156l-0.157,0.041l-0.146,-0.026l-0.156,-0.078l-0.094,-0.078l-0.135,-0.016l-0.157,0.021l-0.125,0.078l-0.135,0.005l-0.094,-0.031l-0.136,0.005l-0.151,0.099l-0.115,0.011l-0.093,-0.026l-0.313,-0.23l-0.282,-0.078l-0.187,-0.005l-0.11,0.052l-0.213,0.058l-0.089,0.046l-0.063,0.089l-0.109,0.037l-0.136,-0.006l-0.37,0.078l-0.172,-0.015l-0.255,-0.068l-0.146,-0.094l-0.276,-0.088l-0.261,-0.011l-0.172,-0.047l-0.177,-0.083l-0.156,-0.042l-0.084,-0.073l-0.224,-0.015l-0.229,0.052l-0.094,-0.005l-0.24,-0.126l-0.13,-0.057l-0.151,-0.021l-0.063,-0.036l-0.094,-0.016l-0.182,0.016l-0.099,-0.016l-0.297,0.016l-0.188,0.052l-0.313,0.141l-0.281,0.031l-0.276,-0.047l-0.131,-0.063l-0.25,-0.046l-0.13,-0.141l0.005,-0.12l0.057,-0.099l0.068,-0.266l0.057,-0.078l0.12,-0.042l0.214,-0.015l0.125,-0.047l0.115,-0.172l0.005,-0.079l-0.052,-0.073l-0.162,-0.052l-0.104,0.006l-0.13,-0.026l-0.282,-0.183l-0.135,-0.036l-0.235,-0.183l-0.083,-0.042l-0.068,0.006l-0.068,-0.026l-0.064,-0.042l-0.007,-0.07l0.035,-0.055l0.01,-0.08l-0.024,-0.083l-0.09,-0.046h-0.084l-0.149,-0.027l-0.108,-0.039l-0.156,-0.17l-0.056,-0.146l-0.017,-0.139l-0.018,-0.066l-0.093,-0.08l-0.053,-0.101v-0.066l0.056,-0.02l0.108,0.02l0.083,-0.003l0.111,-0.087l0.045,-0.16l0.056,-0.062l0.077,-0.021l0.104,0.014l0.212,0.121l0.094,0.007l0.152,-0.069l0.042,-0.045l-0.031,-0.073l-0.181,-0.188l-0.167,-0.063l-0.093,0.007l-0.105,-0.014l-0.107,-0.069l-0.348,-0.33l-0.115,-0.035l-0.107,0.028l-0.084,0.09l-0.118,0.063l-0.153,0.007l-0.09,0.073l-0.031,0.08l-0.045,0.045l-0.032,0.003l-0.028,0.042l0.011,0.045l-0.077,0.146l-0.121,0.15l-0.139,0.281l-0.059,0.024l-0.077,0.004l-0.107,-0.028l-0.132,-0.101v-0.045l-0.06,-0.062l-0.083,-0.042l-0.049,-0.125l-0.013,-0.132l-0.056,-0.042l-0.049,-0.111l-0.069,-0.025l-0.066,-0.003l-0.157,-0.059l-0.062,0.007l-0.08,-0.014l-0.052,-0.021l-0.115,-0.01l-0.09,0.01l-0.198,-0.021l-0.091,0.018h-0.069l-0.066,-0.035l-0.097,-0.004l-0.091,0.021l-0.08,-0.024l-0.048,-0.122l0.007,-0.132l-0.059,-0.125l-0.07,-0.062l-0.177,-0.052l-0.462,-0.007l-0.07,-0.053l-0.014,-0.097l-0.097,-0.09l0.017,-0.129l0.046,-0.045l0.125,-0.007l0.055,-0.024h0.101l0.052,0.014l0.111,-0.007l0.059,-0.045l0.167,-0.039l0.018,-0.041l-0.025,-0.129l-0.073,-0.045l-0.066,-0.004l-0.18,-0.1l-0.126,-0.011l-0.09,-0.069l-0.014,-0.059l-0.076,-0.035l-0.087,-0.083l0.007,-0.039h0.08l0.038,-0.01l0.031,-0.031l0.052,-0.011l0.028,0.011l0.101,-0.021l0.01,-0.025l-0.021,-0.027l0.007,-0.046l0.098,-0.139l-0.014,-0.09l0.035,-0.059l0.119,-0.043l0.032,-0.053l-0.005,-0.067l-0.053,-0.042l-0.036,-0.005l-0.047,-0.031l-0.016,-0.042l-0.198,-0.094l-0.067,-0.068l-0.047,-0.01l-0.042,0.021l-0.11,-0.016l-0.083,-0.063l-0.146,-0.02l-0.042,0.031l-0.057,0.005l-0.151,-0.068l-0.078,-0.062v-0.068l-0.058,-0.062l-0.036,-0.126l-0.057,-0.02l-0.089,0.083l-0.13,0.036l-0.042,-0.015l-0.016,-0.042l-0.041,-0.021l-0.042,0.011l-0.037,-0.032l0.021,-0.036l-0.041,-0.026l-0.099,0.031l-0.068,-0.036l-0.261,-0.245l-0.068,-0.12l-0.161,-0.047l-0.031,-0.057l0.047,-0.037l-0.042,-0.083l-0.157,-0.063h-0.156l-0.042,-0.042l0.016,-0.067l0.177,-0.115l0.011,-0.078l-0.094,-0.162l-0.073,-0.01l-0.047,-0.037v-0.088l0.099,-0.198l0.031,-0.376l0.058,-0.135l-0.016,-0.052l-0.068,-0.032l-0.068,0.021l-0.015,0.068l-0.052,0.042l-0.141,0.015l-0.094,-0.031l-0.146,-0.208l-0.005,-0.089l-0.036,-0.078l-0.251,-0.172l-0.01,-0.11l-0.047,-0.036l-0.151,0.078l-0.073,-0.036l-0.099,-0.235l-0.151,-0.083l-0.131,-0.006l-0.166,-0.125l-0.016,-0.135l-0.068,-0.125l-0.203,-0.177l-0.031,-0.053l0.036,-0.031l-0.01,-0.036h-0.052l-0.037,-0.029l0.104,-0.124l0.056,-0.03l0.013,0.034l0.164,-0.089l0.038,0.058l0.125,0.007l0.146,0.055l0.08,-0.004l0.108,-0.109l0.007,-0.069l0.038,-0.024l0.157,0.045l0.139,0.113l0.094,0.034l0.083,0.079l0.046,-0.007l0.027,-0.069l0.063,-0.02h0.076l0.129,-0.182l0.017,-0.072h0.115l-0.038,-0.202l0.094,-0.117l0.066,0.011l0.296,-0.058l0.066,0.065l0.087,0.027l0.031,-0.014l0.024,-0.037h0.059l0.032,0.058l0.139,0.017l0.087,-0.021l0.045,0.014l0.024,0.048l0.08,0.034l0.045,-0.013l0.101,-0.069l0.08,-0.181l0.084,-0.014l0.027,0.027h0.08l0.032,-0.037l-0.021,-0.059l0.021,-0.075l0.041,-0.024l0.028,-0.045v-0.102l0.032,-0.127l0.08,-0.048l0.194,0.037l0.049,-0.017v-0.048l0.08,-0.147l-0.063,-0.113l-0.1,-0.028l-0.035,-0.096l0.048,-0.171l0.056,-0.034l0.101,-0.137l-0.004,-0.041l-0.041,-0.007l-0.014,-0.035l0.035,-0.082l0.066,-0.089l0.146,-0.017l0.125,0.051l0.035,-0.013l0.01,-0.059l0.045,-0.041l0.094,-0.044v-0.041l-0.049,-0.011l-0.045,-0.085l0.032,-0.038l0.066,0.024l0.059,-0.021l0.059,0.035l0.062,-0.021l0.08,-0.123l-0.003,-0.096l-0.136,-0.103l0.018,-0.065l0.062,-0.031l0.046,-0.137l-0.007,-0.103l0.059,-0.058l0.212,-0.062l0.038,-0.027l-0.003,-0.048l0.031,-0.038l-0.004,-0.082l-0.031,-0.011l-0.021,-0.072l0.045,-0.048l0.112,-0.017l0.073,-0.089h0.055l0.028,-0.055l-0.041,-0.024l0.017,-0.099l0.035,-0.034l-0.007,-0.072l-0.07,-0.035l-0.042,-0.048l0.007,-0.041l0.136,-0.044l0.083,-0.089l0.004,-0.062l0.035,-0.069l0.208,-0.041l0.046,-0.048l0.08,-0.233l0.156,-0.092l0.004,-0.124l-0.035,-0.031l-0.007,-0.044l0.076,-0.123l0.07,-0.042l0.014,-0.037l-0.028,-0.041l0.056,-0.161l0.149,-0.24l0.087,-0.059l0.087,-0.003l0.045,0.027h0.063l0.076,-0.171l-0.021,-0.154l-0.041,-0.038l-0.046,-0.106l0.042,-0.165l0.098,-0.123l0.059,0.044l0.034,-0.041l-0.038,-0.048l0.07,-0.058l0.066,-0.003l0.097,-0.103l0.007,-0.048l0.035,-0.028l0.094,0.035l0.059,-0.004l0.049,-0.075l0.041,-0.192l0.042,-0.021l0.038,-0.037l0.011,-0.093l0.031,-0.044l0.056,-0.004l0.045,-0.027l0.01,-0.12l0.039,-0.035l0.062,-0.003l0.094,-0.075v-0.065l0.035,-0.024l0.115,0.085l0.212,0.024l0.052,-0.024l0.087,-0.25l0.115,-0.031l0.212,0.11l0.059,0.055h0.215l0.192,-0.048l0.097,-0.065l0.049,-0.117l0.076,-0.065l0.077,0.007l0.087,-0.031l0.024,-0.045l-0.049,-0.154l0.011,-0.034l0.135,-0.004l0.073,-0.044l0.115,-0.034l0.094,-0.141l0.063,-0.082l0.068,-0.055h0.093l0.073,-0.026l-0.002,-0.021l-0.024,-0.021l0.003,-0.078l-0.029,-0.044l-0.036,-0.008l-0.031,-0.026v-0.034l0.036,-0.018l0.06,0.005l0.018,0.026l0.047,0.008l0.06,-0.013l0.05,0.021l0.02,0.046l0.05,0.026h0.055l0.039,-0.049l0.081,-0.005l0.028,-0.024l0.034,-0.005l0.047,0.013l0.036,-0.034l-0.005,-0.041l0.055,-0.047v-0.021l-0.029,-0.026l0.006,-0.026l0.023,-0.021v-0.055l0.021,-0.047l0.036,-0.018l0.003,-0.024l-0.034,-0.01v-0.021l0.044,-0.026l0.042,-0.005l0.029,-0.024l0.01,-0.046l0.065,-0.042l0.039,0.002l0.037,0.045l-0.005,0.031l0.028,0.029l0.185,0.015l0.066,-0.034l0.033,0.011l0.011,0.055l0.057,0.039l0.005,0.039l-0.041,0.049l0.026,0.058l0.054,0.026l0.034,-0.013l0.037,0.005l0.021,0.023l0.047,0.006l0.007,0.02l-0.031,0.019l-0.002,0.034l0.033,0.018h0.04l0.083,0.036l0.01,0.029l0.026,0.008l0.034,-0.005l0.047,0.02l0.031,0.05l0.034,0.005l0.037,-0.013l0.026,0.008l0.01,0.029l0.047,0.039l0.104,0.007l0.05,0.027l0.047,-0.016l0.003,-0.047l0.072,-0.094l0.003,-0.083l0.024,-0.003l0.065,0.055l0.052,0.021l0.174,-0.016l0.102,0.018l0.044,0.055l0.05,0.034h0.047l0.109,-0.037h0.102l0.062,-0.02h0.099l0.063,0.039l0.094,0.023l0.018,0.034l0.042,0.044l0.002,0.058l0.086,0.094h0.05l0.034,-0.037l0.107,-0.021h0.104l0.047,-0.021l0.008,-0.044l0.023,-0.021h0.07l0.021,0.026l0.039,-0.002l0.047,-0.029l0.029,-0.003l0.039,0.037l0.034,0.042h0.034l0.031,-0.016l0.06,0.005l0.037,0.031l0.078,0.037l0.023,0.065l0.052,0.044h0.118l0.039,-0.015l0.047,-0.005l0.046,0.023l0.066,-0.003l0.08,0.079h0.055l0.089,-0.04h0.088l0.133,-0.078l0.047,0.005l0.058,0.032h0.039l0.093,-0.055l0.006,-0.042l0.023,-0.062l0.052,-0.042l0.06,-0.018l0.042,-0.034h0.029l0.039,0.023l0.088,-0.002l0.094,0.055l0.06,-0.006l0.034,-0.036l0.039,-0.003l0.026,0.011h0.042l0.049,-0.034l0.052,0.002l0.055,0.042l0.01,0.05l0.029,0.005l0.05,-0.021l0.039,0.013l0.031,0.096l0.042,0.034l0.031,0.05l0.033,0.008l0.03,0.042l0.003,0.037l-0.021,0.069l0.026,0.061l0.103,0.056l0.012,0.055l0.042,0.012l0.038,-0.015l0.042,0.001l0.04,0.044h0.031l0.019,-0.028l0.055,0.007l0.018,0.045l0.024,0.019l0.051,-0.007l0.095,0.009l0.007,0.026l-0.024,0.038l0.001,0.026l0.047,0.033l0.007,0.077l0.044,0.012l0.026,0.023l0.005,0.033l0.087,0.071l0.016,0.054l-0.004,0.043l0.016,0.019l0.335,-0.022l0.061,0.021l0.024,-0.006l0.021,-0.022l0.035,-0.004l0.076,0.032l0.025,-0.002l0.045,-0.092l0.036,0.022l0.184,-0.064l0.014,-0.071l0.115,-0.104l0.029,0.01l0.041,-0.003l0.016,-0.034l-0.01,-0.033l0.01,-0.026l0.029,-0.027l0.015,-0.054l0.058,-0.05l0.028,-0.065l0.047,-0.023l0.029,-0.032l-0.003,-0.096l0.034,-0.047l0.057,-0.008l0.032,0.013l0.044,-0.002l0.156,-0.099l0.147,-0.007l0.685,-0.1l0.213,-0.006l0.148,-0.053h0.118l0.058,0.008l0.069,0.002l0.049,0.021l0.04,-0.002l0.033,-0.014l0.031,0.002l0.024,0.017l0.08,0.002l0.075,-0.01l0.123,-0.058l0.045,-0.05l0.086,-0.017l0.057,0.001l0.059,0.03l0.056,-0.002l0.04,-0.019l0.019,-0.042l0.027,-0.008l0.068,0.01l0.04,0.017l0.049,-0.001l0.325,-0.07l0.078,0.002l0.101,0.033l0.05,-0.007l0.035,-0.023l0.033,-0.001l0.04,0.007l0.099,-0.026l0.076,-0.035l0.045,-0.058l0.039,-0.177l0.029,-0.043l0.191,-0.106l0.021,-0.044l0.047,-0.149l0.049,-0.082l0.123,-0.095l0.002,-0.033l-0.016,-0.021l0.002,-0.038l0.04,-0.04l0.066,-0.005l0.038,-0.042l0.038,0.002l0.021,0.029l0.033,0.004l0.092,-0.049l0.056,0.012l0.017,-0.012l-0.001,-0.031l0.095,-0.049l0.12,-0.016l0.104,0.028l0.07,-0.009l0.015,-0.034l0.03,-0.012l0.049,0.015l0.019,-0.017l-0.004,-0.054l0.035,-0.033l0.073,0.009l0.085,-0.03l0.012,-0.04l0.02,-0.021l0.064,0.021l0.013,-0.031l0.032,-0.017l0.028,0.017l-0.021,0.049l0.031,0.02l0.049,-0.014l0.031,-0.052h0.038l0.028,0.052l0.049,0.007l0.027,-0.038l0.035,0.011l0.014,0.041l0.122,0.011l0.045,-0.032l0.076,0.004l0.049,0.038l0.007,0.052l0.035,0.011l0.041,-0.025l0.049,0.014l0.003,0.049l0.06,0.052l0.107,0.028v0.035l-0.035,0.003l-0.01,0.035l0.07,0.045l0.041,-0.017l-0.021,-0.049l0.021,-0.031l0.066,0.01l0.032,0.056l-0.056,0.083l0.038,0.028l0.136,0.007l0.034,0.055l-0.027,0.018l-0.07,-0.035l-0.049,0.014v0.059l0.049,0.028l0.059,-0.004l0.084,0.032l0.034,-0.045l0.052,-0.004l0.046,0.042v0.094l-0.035,0.086l0.042,0.028l0.027,0.063l0.101,0.062l0.042,0.084l0.049,0.014l0.02,0.034l-0.034,0.066l0.027,0.021l0.063,-0.031l0.028,0.035l-0.018,0.041l0.028,0.032l0.115,-0.011l0.014,0.035l-0.077,0.083l-0.007,0.039l0.046,0.027l0.09,0.025l-0.007,0.052l-0.031,0.052l-0.087,0.049l0.007,0.024l0.094,-0.028l0.118,0.063l0.021,0.073l-0.025,0.069l0.025,0.066l-0.028,0.028l-0.004,0.042l0.035,0.027l0.042,-0.013l0.052,0.007l0.035,0.031l-0.007,0.031l-0.08,0.004l-0.011,0.041l0.066,0.014l0.018,0.031l-0.032,0.021l0.007,0.042l0.077,0.038l0.048,0.108l0.049,0.017l0.028,0.066l-0.017,0.045l0.031,0.042l-0.025,0.025l-0.083,-0.018l-0.028,0.042l0.077,0.076l0.003,0.059l0.063,0.049l0.01,0.073l0.038,0.014l0.032,0.031l0.014,0.066l0.062,0.059l0.063,0.018l0.045,0.045l0.028,0.066l0.097,0.073l0.08,0.003l0.021,0.035l-0.025,0.038l0.028,0.066l0.066,0.052l0.045,0.077l-0.003,0.062l0.035,0.07l0.083,0.073l0.129,0.021l0.031,-0.035l0.059,0.014l0.087,0.097l0.003,0.045l-0.052,0.052v0.07l0.077,0.028l0.027,0.08l-0.052,0.059l0.011,0.073l0.055,0.007l0.052,0.048l0.021,0.108l-0.045,0.038l0.014,0.035l0.063,-0.003l0.048,0.045l0.014,0.052l0.049,0.007l0.028,-0.021l0.079,0.014l0.035,0.069h0.038l0.046,-0.031h0.048l0.073,0.035l0.052,0.118l-0.02,0.052l0.006,0.059l0.077,0.031l0.076,0.157l0.028,0.104l0.035,0.052l-0.014,0.056l-0.056,0.014l-0.01,0.038l0.104,0.028l0.07,-0.011l0.066,0.018l-0.007,0.034l-0.056,0.014l0.007,0.038l0.07,0.007l0.111,0.066l0.066,0.112l0.17,0.08l0.007,0.045l0.042,0.028l0.048,0.003l0.129,0.076l0.073,-0.017l0.076,0.004l0.011,0.038l-0.035,0.017l-0.003,0.045l0.135,0.059l0.049,0.063l-0.035,0.035v0.045l0.042,0.028l0.007,0.052l-0.032,0.021l0.004,0.034l0.066,0.018l0.017,0.055l-0.069,0.049l-0.004,0.038l0.087,0.035l0.004,0.052l-0.052,0.017v0.032l0.073,0.041l0.003,0.056l-0.035,0.021v0.066l0.073,0.111l0.115,0.077l0.049,0.076l0.003,0.101l0.097,0.18l0.007,0.073l0.038,0.049l0.056,0.028l0.024,0.059l-0.007,0.073l0.014,0.101l0.046,0.038l-0.035,0.142l-0.049,0.042l-0.014,0.038l0.028,0.045l-0.007,0.042l-0.045,0.024l-0.004,0.049l0.042,0.031l-0.003,0.046l-0.046,0.031l-0.01,0.062l0.042,0.032l0.024,0.073l0.066,0.024l0.017,0.063l-0.038,0.031l0.011,0.038l0.052,0.045l-0.028,0.084l-0.052,0.013l-0.018,0.032l0.018,0.052l-0.021,0.035l-0.059,0.034l-0.097,0.16v0.098l0.048,0.059l-0.08,0.118l-0.059,0.038l-0.094,0.007l-0.02,0.076l0.038,0.049l-0.018,0.031l-0.072,0.011l-0.033,0.043l0.005,0.12l0.094,0.099v0.089l-0.089,0.344l-0.068,0.067l-0.021,0.079l0.026,0.062l-0.015,0.203l0.083,0.225l0.021,0.151l-0.052,0.073v0.078l0.042,0.047l0.005,0.062l-0.044,0.04l-0.019,0.085l0.047,0.079l-0.008,0.077l0.021,0.07l0.077,0.044l0.025,0.043l0.007,0.077l0.062,0.093l0.012,0.093l-0.022,0.092l0.019,0.17l-0.03,0.076l-0.085,0.082h-0.114l-0.073,0.068v0.062l0.109,0.089l0.094,0.005l0.047,0.026l0.01,0.12l-0.015,0.104l0.015,0.089l0.078,0.125l0.115,0.036z"/>
</svg>
