<svg xmlns="http://www.w3.org/2000/svg" viewBox="714.203 221.520 12.079 5.029">
  <path d="M714.818,225.918l1.931,0.204l0.129,0.031l0.585,0.079l0.237,0.008l0.118,0.019l0.066,0.041l0.038,0.002l0.039,-0.023l0.345,0.012l0.268,0.047l0.502,0.017l0.044,0.016h0.186l0.096,0.023l0.22,0.008l0.168,0.022l0.083,0.031l0.151,0.002l0.227,0.041h0.065l0.06,-0.021l0.049,0.004l0.048,0.015l0.058,0.002l0.079,-0.013l0.094,0.004l0.076,0.019l0.094,0.002l0.05,0.037l0.043,0.002l0.213,-0.037l0.13,0.002l0.027,0.02l0.057,0.002l0.02,-0.02l0.759,-0.025l0.694,-0.008l0.184,-0.024l0.608,-0.004l0.166,-0.031l0.03,0.018l0.316,-0.004l0.035,-0.02l0.639,-0.022l0.31,-0.027l0.178,-0.002h0.087l0.09,-0.027l0.417,-0.018l-0.096,-0.112l-0.064,-0.178l-0.02,-0.083l-0.027,-0.041l-0.097,-0.033l-0.023,-0.033l-0.002,-0.089l-0.022,-0.047l-0.005,-0.045l0.019,-0.041l-0.004,-0.041l-0.053,-0.051l-0.002,-0.079l0.026,-0.041l0.006,-0.037l0.07,-0.055v-0.025l-0.039,-0.03l-0.002,-0.035l-0.051,-0.026v-0.041l0.124,-0.084l-0.002,-0.049l0.041,-0.043l0.063,-0.018l0.037,-0.104l-0.004,-0.033l-0.084,-0.047l-0.006,-0.028l0.031,-0.017l-0.004,-0.03l-0.041,-0.01l-0.012,-0.035l0.018,-0.057l0.067,-0.035l0.002,-0.039l-0.036,-0.028l0.014,-0.06l0.043,-0.012l0.108,-0.106l0.041,-0.004l0.018,0.024h0.029l0.01,-0.073l0.033,-0.02l0.061,0.004l0.069,-0.055l-0.014,-0.035l0.026,-0.025l0.058,0.002l0.016,-0.026l-0.018,-0.035l0.016,-0.051l0.028,-0.006l0.009,-0.022l-0.045,-0.021l-0.006,-0.022l0.03,-0.017l-0.01,-0.034l-0.063,-0.019v-0.026l0.024,-0.031l-0.008,-0.036l-0.086,-0.043v-0.051l0.047,-0.058l-0.016,-0.048l-0.1,-0.084l-0.051,-0.002l-0.022,0.028l-0.029,0.004l-0.027,-0.026l0.002,-0.063l-0.03,-0.017l-0.039,0.002l-0.024,0.031l-0.031,-0.004l-0.008,-0.043l0.045,-0.029l-0.008,-0.03l-0.06,-0.01l-0.063,-0.064l-0.012,-0.047l-0.065,-0.057l-0.072,-0.01l-0.039,-0.061l-0.042,0.002l-0.023,0.029l0.014,0.059l-0.02,0.018l-0.059,-0.018l-0.01,-0.076l-0.064,-0.053l-0.004,-0.057l-0.037,-0.041l-0.038,-0.002l-0.027,-0.049v-0.122l-0.024,-0.037v-0.082l-0.072,-0.002l-0.043,0.023l-0.077,0.004l-0.206,0.096h-0.086l-0.131,-0.043l-0.128,-0.002l-0.198,-0.045l-0.21,-0.008l-0.235,0.016l-0.082,0.035l-0.047,0.004l-0.089,-0.008l-0.078,0.032l-0.024,0.031l-0.013,0.059l-0.077,0.037l-0.117,0.002l-0.104,-0.047l-0.049,-0.073l-0.008,-0.072l0.029,-0.061v-0.041l-0.072,-0.029l-0.118,0.005l-0.065,0.047l-0.058,0.006l-0.134,-0.023l-0.106,-0.034l-0.023,-0.029l-0.059,-0.023l-0.051,-0.002l-0.047,-0.016l-0.063,-0.073l-0.059,-0.031l-0.123,0.002l-0.188,-0.065l-0.034,-0.025l-0.013,-0.061l-0.104,-0.088l-0.047,-0.024l-0.071,-0.051l-0.137,-0.039l-0.043,0.006l-0.048,-0.016l-0.072,-0.041h-0.104l-0.08,0.057l-0.067,-0.004l-0.047,-0.069l-0.155,-0.109l-0.045,-0.077l-0.014,-0.08l-0.068,-0.067l-0.024,-0.065l-0.084,-0.084h-0.036l-0.017,0.027l-0.053,0.006l-0.112,0.065l-0.012,0.033l-0.029,0.018l-0.031,0.002l-0.022,0.014l-0.016,0.037l-0.102,0.045l0.009,0.036l0.044,0.014l0.017,0.082l-0.052,0.116l-0.075,0.037l-0.054,-0.014l-0.045,0.007l-0.012,0.026l-0.021,0.001l-0.014,-0.029l0.013,-0.044l-0.013,-0.014l-0.081,0.016l-0.054,0.042l0.015,0.168l0.098,0.463l0.002,0.109l0.025,0.157l-0.023,0.044l0.011,0.051l0.031,0.021l0.021,0.069l0.039,0.032l0.035,0.083l-0.009,0.085l-0.086,0.102l-0.094,0.051l-0.122,0.006l-0.152,0.047l-0.044,-0.007l-0.051,0.021l-0.042,0.055l-0.059,-0.004l-0.039,-0.028l-0.028,-0.001l-0.026,0.032l-0.054,0.004l-0.036,-0.029l-0.029,0.001l-0.018,0.027l-0.049,0.005l-0.257,-0.043l-0.082,-0.026l-0.054,-0.003l-0.035,0.018h-0.042l-0.057,-0.029l-0.112,-0.134l-0.126,-0.061l-0.072,-0.004l-0.07,0.051l-0.065,0.023l-0.138,0.009l-0.062,-0.021l-0.088,-0.007l-0.058,-0.018h-0.151l-0.038,0.024l-0.075,-0.006l-0.133,-0.066l-0.015,-0.056l0.033,-0.07l0.037,-0.025l0.079,-0.009l0.068,-0.041l0.024,-0.036l0.042,-0.039l0.038,-0.008l0.021,-0.02l0.002,-0.049l0.038,-0.035l0.086,-0.033l0.26,-0.197l0.131,-0.136l0.039,-0.055l0.157,-0.134l0.138,-0.06l0.025,-0.04l-0.022,-0.043l0.005,-0.039l0.06,-0.048l0.028,-0.036l0.009,-0.039l0.166,-0.184l0.045,-0.021l0.045,-0.048l0.005,-0.033l0.019,-0.028l0.148,-0.054l0.007,-0.013l-0.048,-0.037l0.007,-0.023l-0.055,-0.014l-0.053,-0.013l-0.209,0.263l-0.227,0.258l-0.075,0.055l-0.209,0.227l-0.052,0.096l-0.128,0.151l-0.255,0.217l-0.078,0.031l-0.042,0.039l-0.029,0.052l-0.104,0.07l-0.313,0.172l-0.354,0.128h-0.116l-0.186,-0.021l-0.123,-0.042l-0.068,-0.067l-0.06,-0.006l-0.049,0.029h-0.163l-0.13,0.052l-0.141,0.008l-0.113,-0.01l-0.146,0.005l-0.139,-0.016l-0.112,-0.057l-0.053,0.005l-0.044,0.107l-0.105,0.154v0.259l0.108,0.28l0.007,0.144l-0.067,0.261l-0.084,0.173l-0.136,0.178l-0.021,0.081l0.055,0.031l0.112,0.026l0.118,-0.039l0.016,-0.045l-0.063,-0.057l0.008,-0.136l0.023,-0.112l0.11,-0.1l0.131,-0.005l0.091,0.021l0.06,0.133l-0.007,0.097l0.026,0.068l0.117,0.091l0.053,-0.005l0.151,-0.162l0.094,-0.047h0.071l0.052,0.018l0.058,-0.005l0.039,-0.018l0.222,0.008l0.079,0.021h0.086l0.05,-0.024l0.07,0.003l0.113,0.034l0.013,0.031l-0.034,0.05l-0.147,0.065l-0.078,-0.01l-0.021,-0.029h-0.034l-0.089,0.123l-0.115,0.091l-0.165,0.055l-0.224,0.058l-0.063,0.049l-0.021,0.05l-0.126,0.091l-0.136,0.066l-0.06,-0.016l-0.015,-0.05l-0.058,-0.049l-0.102,-0.029l-0.06,0.016l-0.078,0.112l-0.034,0.173l-0.074,0.11l-0.094,0.047l-0.167,0.015l-0.031,0.019l-0.014,0.028l-0.041,0.026l-0.068,0.016l-0.053,0.066l-0.028,0.074z M714.203,225.828l0.016,0.011l0.018,0.013l0.106,-0.085l0.077,-0.035l0.088,-0.085l0.037,-0.005l0.022,-0.024l0.023,-0.059l0.096,-0.094l0.022,-0.059l0.065,-0.051l0.041,-0.023l0.043,-0.036l0.037,-0.08l0.124,-0.122l0.062,-0.037l0.03,-0.041l0.006,-0.082l-0.032,-0.02l-0.039,0.051l-0.149,0.188l-0.208,0.224l-0.266,0.239l-0.067,0.084l-0.152,0.128z"/>
</svg>
