<svg xmlns="http://www.w3.org/2000/svg" viewBox="831.759 85.560 64.980 46.906">
  <path d="M884.793,88.541l0.031-0.287l0.646-0.484l0.552-0.049l0.771-0.369l0.264-0.316l1.014-0.435l0.764-0.092l0.111-0.079l0.069-0.198l0.278-0.158h0.25l0.25,0.132l0.292-0.026l0.597-0.343l1.167-0.277l1.292,0.053l0.292,0.185l0.472,0.079l0.472-0.013l0.361,0.119l0.056,0.211l0.125,0.066l0.278,0.013l0.722,0.409v0.092l-0.139,0.079l-0.014,0.211l0.403,0.329h0.264l0.083,0.119l-0.069,0.119v0.237l0.292,0.211l-0.056,0.158l-0.444,0.158l-0.361,0.474l-0.014,0.329l0.167,0.145l0.264,0.026l0.028,0.092l-0.361,0.171l-0.431,0.329l-0.056,0.277l-0.347,0.264l-0.278,0.013l-0.306,0.145v0.211l-0.347,0.303l-0.403,0.105l-0.125,0.105l0.014,0.132l0.333,0.158l-0.056,0.079h-0.542l-0.708,0.185l-1.403,0.567l-0.472,0.066l-0.306,0.105l-0.264,0.25l-1.028,0.343l-1.444,0.316l-0.278,0.013l-0.153,0.066l-0.083,0.105l-0.278,0.092l-0.319-0.066l-0.361,0.066l-0.097,0.119l-0.472,0.079l-0.264-0.079l-0.083,0.04l-0.069,0.185l-0.486,0.198l-0.347-0.013l-0.514,0.158l-0.361,0.211l-1.083,0.395l-0.083,0.105l-0.139,0.04l-0.319-0.04l-0.708,0.145l-0.514,0.171l-0.25,0.198l-0.278,0.053l-0.694,0.026l-0.583,0.105l-0.444,0.171l-0.222,0.211l-0.292,0.079l-0.25,0.013l-0.167,0.079l-0.125,0.185l-0.236,0.026v-0.105l0.153-0.066l-0.028-0.105l-0.278-0.132l-0.014-0.237l-0.111,0.013l-0.361,0.369l-0.097,0.25l-0.444,0.25l-0.861,0.185l-0.458-0.013l-0.764,0.224l-0.167,0.171l-0.403,0.132h-0.319l-0.597,0.211l-0.5,0.329l-0.208,0.013l-0.153-0.079l-0.875-0.053l-0.208,0.026l-0.056,0.079l0.042,0.237l-0.319,0.264l-0.194,0.013l-0.097-0.092h-0.181l-0.222,0.395l-0.153,0.474l-0.264,0.105l-0.194,0.198h-0.278l-0.083-0.211l0.028-0.435l-0.125-0.092l-0.167,0.026l-0.083,0.237l-0.625,0.567l-0.389,0.04l-0.292-0.105l-0.139,0.066l-0.014,0.277l-0.111,0.105l-0.153,0.026l-0.111,0.145l0.042,0.422l-0.194,0.329l-0.208,0.053l-0.389-0.105l-0.007-0.247l0.093-0.209l-0.01-0.098h-0.145l-0.354,0.297l-0.073,0.376l-0.24,0.168l-0.917,0.089l-0.49-0.069l-0.073,0.069l0.271,0.198l0.802,0.079l0.812-0.069l0.333,0.089l0.135,0.168l-0.052,0.247l-0.375,0.257l-0.615,0.049l-0.583-0.089l-0.042,0.089l0.115,0.237l0.323,0.188l-0.031,0.227l-0.344,0.188l-0.802,0.129l-1.073-0.178l-0.073,0.089l0.375,0.316l0.312,0.129l0.01,0.366l-0.479,0.277l-0.833-0.198l-0.792-0.643l-0.573-0.247l-0.052,0.089l0.198,0.366l-0.042,0.573l-0.271,0.643l0.021,0.208l0.156,0.119l-0.062,0.099l-0.812-0.079l-0.854-0.465l-1.448-0.415l-0.104,0.059l0.208,0.237l0.583,0.109l0.51,0.346l0.198,0.415l-0.031,0.158l0.198,0.791l-0.198,0.386l-0.604,0.287l-0.49-0.069l-0.094,0.079l0.083,0.188l-0.094,0.109l-0.49-0.099l-0.104,0.079l0.115,0.326l-0.021,0.119l0.167,0.326l-0.156,0.168l-0.354,0.04l-1.229-0.386l-0.323-0.316l-0.385-0.672l-0.406-0.129l-0.125,0.04l0.115,0.208l0.333,0.306l0.01,0.326l0.177,0.267l0.927,0.682l0.073,0.208l-0.094,0.237l0.021,0.326l0.104,0.178l-0.125,0.188l-0.594,0.227l-0.208-0.138l-0.521-0.563l-0.458-0.119l-1.438-0.079l-0.062,0.089l0.312,0.089l0.833,0.089l0.75,0.405l0.438,0.633l0.031,0.277l-0.219,0.208l-0.906,0.217l-1.24-0.257l-0.667-0.573l-0.271-0.119l-0.042,0.049l0.219,0.277l0.344,0.237l-0.042,0.079l-0.323,0.03l-0.031,0.079l0.167,0.059l0.312-0.03l0.594,0.217l0.646,0.425l0.021,0.237l-0.812,0.761l-0.375,0.099l-0.229-0.079l-0.125-0.178h-0.104l-0.062,0.227l0.062,0.178l-0.094,0.247l-0.344,0.119l-0.719-0.148l-0.615-0.04l-0.521,0.03l-0.354-0.138l-0.073-0.267v-0.376l-0.24-0.306l-0.219-0.109l-0.208-0.277h-0.083l0.073,0.316l0.385,0.247l0.073,0.554l-0.094,0.089l-0.219-0.04l-0.26-0.178l-0.542-0.059l-0.354,0.069l-0.51,0.01l-0.458-0.138l-0.219-0.227l-0.854-0.297l-0.604-0.049l-0.698,0.188l-0.188,0.119l-0.156,0.04l-0.208-0.02l-0.198,0.069l-0.49,0.306l-0.354,0.059l-0.302-0.099l-0.323-0.02l-0.031-0.138l0.229-0.178l0.542-0.049l0.25-0.247l0.375-0.148l-0.042-0.059l-0.156-0.03l-0.271,0.069l-0.385-0.119l0.042-0.099l0.365-0.208l0.198-0.277l0.844-0.395l0.677-0.178h0.552l0.635-0.277l-0.062-0.069h-0.354l-0.396,0.148l-0.323-0.02l-0.302-0.069l-0.896,0.069l-0.521,0.356l-0.417,0.168l-0.76-0.099l-0.552-0.435l-0.771-0.267l-0.021-0.227l0.104-0.198l0.115,0.02l0.052,0.089l0.562,0.069l0.635-0.316l0.24-0.336l0.865-0.425l1.198-0.178h0.646l0.042-0.059l-0.135-0.069l-0.552-0.059l-0.208-0.049l-0.031-0.099l0.323-0.336l1.25-0.652l0.594-0.079l0.375,0.129l0.542,0.119l0.396,0.01l0.562,0.148l0.562,0.287l0.167,0.158l0.49,0.069l0.729-0.059l0.375,0.069l0.042-0.059l-0.125-0.109l-0.375-0.049l-0.219,0.059l-0.458-0.03l-0.448-0.208l-0.333-0.247l-0.208-0.099l-0.25-0.01l-0.188-0.079l-0.042-0.158l-0.75-0.287l-0.646-0.129l-0.208,0.02l-0.188-0.109l0.042-0.129l0.406-0.188l0.115,0.02l0.062,0.109l0.354,0.03l0.708-0.109l0.167,0.03l0.062,0.069l0.271,0.049l0.365-0.079l-0.01-0.079l-0.458-0.227l-0.219-0.01l-0.156-0.059l-0.052-0.109l-0.125-0.03h-0.333l-0.417-0.059v-0.138l0.219-0.267l0.24-0.02l0.073,0.049h0.177l0.406-0.158l1.656-0.079l0.51-0.089v-0.069l-0.177-0.04l-0.219,0.04l-0.271-0.069l-0.01-0.129l0.042-0.129l-0.083-0.059l-0.656-0.02l-0.302,0.119l-0.26-0.079l-0.01-0.089l-0.323-0.148l-0.062-0.188l0.146-0.326l0.615-0.356l0.292-0.03l0.312,0.138l0.208-0.03l0.219-0.138l1.094-0.208l0.312,0.03l0.427,0.247l0.406,0.02l0.5-0.03l0.177-0.099l0.219,0.01l0.073-0.079l-0.135-0.079l-0.344,0.01l-0.208,0.079l-0.375-0.02l-0.208-0.109l-0.25-0.208l-0.281-0.02l-0.01-0.079l0.375-0.148l0.052-0.158l-0.094-0.03l-0.292,0.109l-0.75-0.03l-0.729,0.109l-0.573-0.099l-0.188,0.04l-0.083-0.059l0.083-0.148l0.958-0.386l0.833-0.198l0.188,0.04l0.094-0.069l-0.073-0.158l-0.271-0.04l-0.073-0.178l0.219-0.208l-0.042-0.138l-0.396-0.119l-0.656,0.148l-0.26,0.188l-0.469,0.04l-0.052-0.129l0.229-0.465l-0.062-0.158l-0.375-0.059l-0.125,0.079l-0.094-0.049l0.281-0.554l0.354-0.297l0.51-0.04l0.646,0.158l0.271-0.02l0.25,0.109l0.292,0.405v0.247l0.135,0.03l0.354-0.168l0.271-0.386l0.615-0.494l0.302-0.089l0.24-0.267l-0.083-0.099l-0.635-0.049l-0.188-0.168l0.073-0.257l0.833-0.415l0.562-0.03l0.396,0.109l0.354-0.03l0.24,0.089l0.094,0.138l0.448,0.168l1.062,0.049l0.229-0.089l0.062-0.168l-0.115-0.04l-0.292,0.059l-0.26-0.059l-0.073-0.198l0.083-0.306l-0.083-0.119l-0.365-0.138l-0.115-0.158l0.156-0.267l0.698-0.237l1.448-0.198l0.469-0.168l0.031-0.168l-0.24-0.099l-0.583,0.059l-0.396-0.089l0.031-0.129l0.344-0.119l0.625-0.079l0.635-0.227l0.698-0.148l0.125-0.208l-0.104-0.089l-0.219,0.04l0.01-0.079l0.229-0.158l0.26-0.02l0.073-0.079l0.115-0.227l0.458-0.267l0.625,0.049l0.323,0.03l0.615-0.178l0.177-0.297l0.354-0.129l0.677,0.119l1.323-0.366l0.812-0.069l0.385-0.129l0.01-0.138l-0.417-0.217l-0.417,0.02l-0.073-0.109l0.479-0.346l1.135-0.247l0.542,0.03l0.271,0.049v0.079l-0.76,0.474l-0.167,0.208l0.031,0.089l0.469,0.049l0.521-0.079l0.083-0.198l0.115-0.069l0.479,0.02l0.438-0.119l0.052-0.188l0.146-0.198l0.208-0.079l0.01-0.079l-0.219-0.138l-0.5,0.02l-0.26-0.089v-0.158l0.344-0.662l0.354-0.168l0.24-0.02l0.229,0.059l1.156-0.099l0.26-0.079l0.094-0.129l0.156-0.01l0.333,0.198h0.188l0.198-0.109l0.125,0.03l0.073,0.158l0.5,0.089l0.656,0.04l0.281-0.069l0.281,0.059l0.073,0.099l-0.125,0.376l0.125,0.099l0.312,0.01l0.219-0.109v-0.198l0.104-0.03l0.125,0.119l0.135-0.03l0.25-0.366l0.188-0.04l0.24,0.138l0.083,0.188l0.375,0.158l0.292-0.079l0.885-0.405l1.438-0.494l0.406-0.01l0.302-0.069l0.219,0.049l0.271,0.168l0.292,0.02l0.365-0.138l0.083-0.109l0.396-0.129l0.229,0.03l0.167-0.059l0.104-0.198l0.115-0.04l0.427,0.188l0.375,0.059l0.031-0.049l-0.229-0.188l-0.01-0.198l0.24-0.227l0.188,0.01l0.083-0.049l-0.01-0.188l0.219-0.178l0.656-0.04l0.229,0.119l0.094,0.148l0.302-0.049l0.604-0.326l0.125-0.346l0.208-0.099h0.542l0.198,0.119l0.844,0.168l0.448,0.168l0.24-0.04l0.021-0.109l-0.26-0.247v-0.109l0.094-0.099l-0.01-0.168l-0.51-0.336L884.793,88.541z M860.603,104.461l-0.141,0.164v0.094l0.068,0.114l0.078-0.025l0.099-0.218l-0.042-0.129H860.603z M860.362,104.938l-0.052,0.045l0.084,0.114l0.256,0.04v-0.069l-0.141-0.094L860.362,104.938z M860.629,105.632l0.167,0.055l0.225-0.065l0.047-0.144l-0.037-0.069l-0.45,0.045l-0.057,0.065L860.629,105.632z M858.956,106.208l0.131-0.03l0.005-0.094l-0.12-0.069l-0.136,0.035l0.016,0.094L858.956,106.208z M858.595,105.523l0.084-0.03l0.047-0.074l-0.037-0.04l-0.141,0.045l-0.021,0.06L858.595,105.523z M859.84,106.158l0.246-0.02l0.026-0.114l-0.141-0.273l-0.131-0.04l-0.188,0.144l-0.037,0.174L859.84,106.158z M841.479,112.331l0.267-0.04l0.102-0.032l-0.018-0.035l-0.403-0.01l-0.081,0.042l0.01,0.052L841.479,112.331z M859.418,94.551l1.156-0.316l0.094-0.119l-0.083-0.079l-0.604,0.099l-0.562,0.257l-0.292,0.02l-0.021,0.099L859.418,94.551z M860.376,94.7l0.333-0.109l-0.062-0.089l-0.292-0.059l-0.323,0.099l-0.042,0.109L860.376,94.7z M861.095,93.563l0.375-0.138l0.042-0.138l-0.094-0.04l-0.458,0.178l-0.052,0.109L861.095,93.563z M861.97,93.533l0.344-0.129l0.021-0.079l-0.24-0.059l-0.375,0.119l-0.052,0.119L861.97,93.533z M863.459,92.99l0.406,0.04l0.458-0.129l0.188-0.198l0.625-0.158v-0.138l-0.302-0.04l-1.125,0.237l-0.615,0.257l-0.01,0.168L863.459,92.99z M834.199,126.193l0.448-0.089l0.156-0.134l-0.167-0.279l0.083-0.256h0.156l0.031,0.167l0.281,0.279l0.146-0.022l0.062-0.279l0.344-0.134l0.021-0.234l-0.073-0.624l0.052-0.234l0.104-0.145l0.047,0.043l-0.057,0.292l0.094,0.602l0.365,0.513l0.302,0.591l0.115,0.067l0.135-0.067l0.021-0.1l0.188-0.011l0.125,0.123l0.021,0.323l0.156,0.033l0.156-0.145l0.052-0.212h0.271l0.104,0.089l0.177,0.022l0.083-0.056l-0.052-0.123l0.167-0.29l0.531-0.334l0.344,0.033l0.052,0.1l-0.479,0.334l-0.104,0.212l0.167,0.735l0.823,0.903l0.802,0.312l0.167-0.011l0.042-0.178l0.083-0.056l0.26,0.134l0.24-0.145l0.188-0.011l0.104,0.1l-0.25,0.301l-0.521,0.045l-0.115,0.123l0.198,0.156l0.156,0.279l-0.062,0.045l-0.469-0.279l-0.292-0.056l-0.469,0.123l-0.042,0.145l0.667,0.49l0.052,0.212l-0.208,0.212l-0.51,0.167l-0.375-0.045l-0.396,0.078l-0.01,0.111l0.479,0.245l0.167-0.045l0.385,0.022l0.448,0.201l0.604,0.033l0.177,0.067l0.042,0.123l0.406,0.134l0.656,0.022l0.25-0.089l0.354,0.156l0.354,0.056l0.083-0.056l-0.208-0.178l0.073-0.1h0.396l0.25,0.111l0.021,0.201l0.375,0.301l0.344,0.078l0.698,0.457l0.396,0.134l0.354-0.134l0.104-0.189l-0.229-0.245v-0.156l0.219-0.033l0.479,0.279l0.146-0.033v-0.156l-0.208-0.111l-0.188-0.189l0.073-0.089l0.156,0.011l0.958,0.657l0.719,0.245l0.448,0.045l0.062-0.1l-0.542-0.312l-0.073-0.167l0.083-0.056l0.188,0.134l0.229,0.067l0.167-0.078l0.521,0.067l0.396,0.301l0.323,0.089l0.885,0.067l0.031-0.089l-0.521-0.401l-0.438-0.167l-0.188,0.045l-0.292-0.134l-0.01-0.167l0.146-0.1l0.404,0.108l0.259-0.017l0.108-0.147l0.205-0.06l0.118,0.073l0.008,0.101l-0.113,0.143v0.212l0.135,0.167l0.198,0.1l0.021-0.078l-0.083-0.134l0.125-0.022l0.865,0.379l0.969,0.267l0.646,0.022l0.031-0.056l-0.365-0.234l-0.385-0.111l-0.229,0.056l-0.604-0.134l-0.281-0.178l0.042-0.067l0.323,0.123l0.24-0.045l0.51,0.045l0.772,0.216l0.188,0.05l0.227-0.055l0.165-0.264l0.11-0.034l0.058-0.126v-0.134l0.031-0.089l0.146-0.022l0.052-0.078l-0.146-0.178l-0.5-0.279l-0.26-0.011l-0.542-0.212l-0.333-0.056l-0.365-0.201l-0.427-0.368l-1.562-1.114l-0.594-0.368l-0.885-1.025l-0.042-0.301l-0.854-1.192l-0.365-0.29l-0.49-0.691l-0.24-0.78l0.01-0.345l-0.458-0.691l-0.062-0.323l0.125-0.691l0.115-0.201l0.312-0.178l0.062-0.134l-0.104-0.39l-0.219-0.234l-0.333-0.156l0.01-0.1l0.344-0.279l0.083-0.357l-0.104-0.279h-0.229l-0.135-0.067l0.062-0.1l0.396-0.033l0.156-0.1l0.021-0.223l-0.312-0.29l-0.271-0.056l-0.094-0.078h0.365l0.375,0.256l0.24-0.067l0.24-0.524l-0.052-0.189l0.062-0.111l0.74,0.011l0.115-0.111l-0.125-0.312l-0.25-0.167l-0.417-0.033l-0.375-0.111l-0.177-0.178l0.073-0.033l0.375,0.134l0.281,0.022l0.333-0.111l0.521,0.022l0.552-0.067l0.25-0.29l0.208-0.479l-0.031-0.379l-0.198-0.145l-0.281-0.011l-0.802,0.212l-0.938,0.022l-0.104-0.045l0.125-0.078l0.865-0.045l0.896-0.223l0.708-0.056l0.281-0.134l0.031-0.1l-0.51-0.145l-1.01-0.022l-0.167-0.045l0.115-0.067l0.76,0.011l0.302-0.145l1-0.201l0.073-0.301l-0.271-0.323l-0.729-0.245l-0.99-0.1l-0.615-0.29l-0.208-0.201l-0.312-0.1l-0.26,0.067l-0.781,0.011l-0.656-0.234l-0.167-0.201l-0.688-0.29l-0.5-0.067l-0.354,0.067l-0.344,0.201l-0.281,0.011l-0.365,0.123l-0.594,0.323l-0.292,0.357l-0.531,0.1l-1-0.212l-0.51,0.111l-0.417,0.29l-0.312,0.067l-0.208-0.045l-0.281,0.045l-0.615,0.435l-0.208,0.301l0.021,0.39l0.729,0.49l-0.052,0.078l-0.396,0.011l-0.271-0.067l-0.292,0.078l-0.094,0.245l0.135,0.234l0.896,0.301l0.417,0.045l0.167-0.089l0.125,0.022l-0.083,0.145l-0.344,0.089l-0.646-0.056l-0.896-0.256h-0.573l-1.083,0.412l-0.438,0.591l-0.271,0.223l0.052,0.111l0.333,0.123l0.104,0.234l0.229,0.033l0.542-0.045l0.562,0.022l0.021,0.111l-0.177,0.078l-0.302-0.033l-0.031,0.1l0.083,0.178l-0.083,0.223l-0.135,0.056l-0.01,0.111l0.229,0.067l0.417-0.267h0.25l0.073,0.134l-0.552,0.468l-0.354,0.056l-0.094,0.145l-0.042,0.579l-0.115,0.111l-0.167-0.045l-0.052,0.089l0.208,0.256l-0.188,0.279l-0.292,0.089l-0.24-0.078l-0.042,0.123l0.094,0.234l-0.021,0.212l0.219,0.39l-0.083,0.045l-0.177-0.167l-0.156,0.078l-0.062,0.312l0.083,0.178l-0.167,0.145l-0.344-0.089l-0.26-0.334l-0.229-0.022l-0.271,0.167l-0.573-0.056l-0.208-0.345l-0.219-0.011l-0.156,0.167l-0.729,0.368l-0.198,0.301l-0.323,1.315l0.031,0.446l0.5,1.148l0.083,0.379l0.188,0.134l0.396,0.067l0.292,0.178l0.125,0.167L834.199,126.193z M835.001,127.564l0.396,0.089l0.542-0.011l0.448,0.223l0.375,0.501l0.062,0.279l0.156,0.156l0.417,0.156l0.271,0.524l0.219,0.022l0.042-0.245l-0.198-0.334l0.042-0.167l0.323-0.056l0.26-0.435v-0.646l-0.104-0.123l-0.292-0.056l-0.74-0.68l-0.396-0.145l-0.604-0.011l-1.115,0.223l-0.396,0.29l-0.021,0.234L835.001,127.564z M853.751,132.257l0.204,0.042l0.063-0.042l-0.149-0.101l-0.201-0.034l-0.043,0.06L853.751,132.257z M851.155,131.745l0.078-0.017l-0.016-0.067l-0.125-0.025l-0.016,0.059L851.155,131.745z M848.904,131.686l0.259,0.076l0.118-0.034l0.008-0.084l-0.275-0.126l-0.18,0.008l-0.031,0.067L848.904,131.686z M850.229,132.131l0.361,0.067l0.251-0.092l-0.016-0.078l-0.528-0.073l-0.22,0.039v0.067L850.229,132.131z M850.982,132.374l0.118-0.017l0.071-0.067l-0.173-0.059l-0.11,0.025l-0.031,0.076L850.982,132.374z M851.288,132.198l0.149-0.05l-0.008-0.067l-0.173-0.025l-0.118,0.092l0.031,0.05H851.288z M851.735,131.938h0.102l0.102,0.05l-0.016,0.151l0.29,0.193l0.463,0.134l0.463-0.076l0.031-0.076l-0.267-0.193l-0.494-0.117l-0.463-0.185l-0.212-0.008l-0.047,0.059L851.735,131.938z M853.194,132.181l0.11,0.025l0.063-0.059l-0.047-0.059l-0.18-0.017l-0.047,0.042L853.194,132.181z M850.166,132.315l0.024,0.076l0.125,0.059l0.063-0.034l-0.055-0.101l-0.102-0.034L850.166,132.315z M849.813,132.349l0.078,0.017l0.102-0.05l-0.016-0.05l-0.11-0.008l-0.078,0.034L849.813,132.349z M843.491,131.397l0.188,0.056l0.354,0.011l0.031-0.078l-0.396-0.156l-0.312-0.045l-0.094,0.056L843.491,131.397z M839.602,128.565l0.267-0.05l0.071-0.159l-0.125-0.193l-0.18-0.042l-0.039,0.042l0.11,0.168l-0.055,0.05l-0.353-0.076l-0.008,0.084L839.602,128.565z M838.872,127.55l0.047,0.168l0.11,0.084l0.078-0.034l-0.039-0.168l-0.125-0.076L838.872,127.55z M835.664,126.383l0.102,0.101l0.094,0.025l0.023-0.05l-0.063-0.092l-0.094-0.025L835.664,126.383z M836.135,125.939l-0.016,0.076l0.071,0.109l0.086,0.008l0.016-0.143l-0.055-0.067L836.135,125.939z M837.821,126.627l0.11,0.042l0.047-0.042l-0.149-0.159h-0.071l-0.016,0.092L837.821,126.627z M838.292,126.685l0.267,0.151l0.118,0.008l-0.055-0.143l-0.298-0.21l-0.133,0.008l-0.024,0.067L838.292,126.685z M838.276,126.199l0.024,0.076l0.078,0.042l0.031-0.042l-0.024-0.067L838.276,126.199z M838.504,127.164l0.306,0.126l0.11-0.017l-0.086-0.126l-0.486-0.344l-0.173-0.034l-0.016,0.076L838.504,127.164z M838.245,127.122l-0.11,0.034l0.047,0.092l0.102,0.05l0.11-0.017v-0.067L838.245,127.122z"/>
</svg>
