<svg xmlns="http://www.w3.org/2000/svg" viewBox="1143.106 84.489 84.686 29.592">
  <path d="M1226.595269,87.540674l0.229166,-0.166666l0.645832,-0.0625l0.312499,0.083333l0.010417,0.135416l-0.312499,0.15625l-0.541666,0.041667l-0.229166,-0.0625l-0.114583,-0.125Z M1221.449446,84.863596l0.239583,0.09375l0.999998,-0.0625l0.270833,-0.166666l-0.041667,-0.15625l-0.249999,-0.083333l-0.979165,0.104166l-0.406249,0.177083l0.010417,0.09375h0.15625Z M1207.008801,91.981071l-0.055555,0.186115l0.180555,0.285377l0.444444,0.223338l0.527777,-0.049631l0.305555,-0.335008l0.125,-0.471492l-0.277777,-0.1613l-0.513888,0.024815l-0.73611,0.297785Z M1206.078247,94.921694l-0.166666,0.186115l0.083333,0.173708l0.333333,0.024815l0.694443,-0.124077l0.013889,-0.1613l-0.249999,-0.186115l-0.319444,-0.024815l-0.388888,0.111669Z M1191.786609,88.323284l-0.097222,0.186115l0.083333,0.186115l0.458332,0.124077l1.763885,-0.012408l0.861109,-0.198523l0.263888,-0.397046l0.263888,-0.235746l0.458332,-0.3226l-0.013889,-0.124077l-0.152777,-0.086854h-0.555554l-0.472221,0.148892l-1.013887,0.099262l-0.805554,0.198523l-0.36111,0.210931l-0.680554,0.223338Z M1143.633929,97.695851l-0.041667,0.343643l0.291666,0.222357l0.979165,-0.040429l0.479166,-0.404285l0.125,-0.525571l0.291666,-0.586214l0.395833,-0.262786l0.041667,-0.161714l-1.041665,-0.667071l-0.666665,-1.111785l-0.166666,0.020214l0.020833,0.525571l-0.270833,0.687285l-0.104166,0.444714l0.083333,0.303214l-0.229166,1.051142l-0.1875,0.161714Z M1143.217263,106.336725l-0.111111,0.166666l0.013889,0.263888l0.236111,0.541666l0.222222,0.138889l0.347222,0.041667l0.527777,0.472221l0.152777,0.416666l0.36111,0.249999l1.194442,0.402777l0.555554,-0.097222l0.097222,-0.208333l-0.263888,-0.73611l-0.722221,-0.597221l-1.236109,-0.597221l-0.291666,-0.305555l-0.347222,-0.138889l-0.73611,-0.013889Z M1160.946394,107.752001l0.604165,0.806684l0.635415,0.320464l0.468749,-0.022101l0.208333,-0.221009l0.479166,-0.287312l0.499999,-0.033151l0.343749,-0.221009l0.09375,-0.386766l-0.125,-0.309413l0.020833,-0.209959l0.197916,-0.309413l-0.052083,-0.375716l-0.552082,-0.298363l-0.718749,-0.099454l-1.020831,0.077353l-0.833332,0.254161l-0.229166,0.342565l-0.09375,0.530423l0.072917,0.442019Z M1163.060973,108.757594l0.09375,-0.022101l0.208333,-0.198908l-0.03125,-0.077353l-0.083333,0.01105l-0.197916,0.209959l0.010417,0.077353Z M1159.550563,112.326895l-0.083333,0.162074l0.055555,0.235743l0.374999,0.176808l0.749998,-0.088404l0.986109,-0.353615l1.013887,-0.14734l1.111109,0.14734l2.333329,0.810368l2.736106,0.338881l0.597221,0.162074l0.277777,0.029468l0.402777,-0.103138l1.22222,0.191541l0.97222,0.191541l0.416666,-0.044202l0.444444,-0.191541l0.444444,0.044202l0.027778,-0.088404l-0.249999,-0.235743l-0.236111,-0.471487v-0.898772l0.180555,-0.176808l-0.013889,-0.206275l-0.916665,-0.795634l-0.902776,-0.471487l-1.013887,-0.618826l-0.458332,-0.383083l-0.847221,-0.294679l-0.249999,0.029468l-0.291666,-0.058936l-0.430555,-0.265211l-0.555554,-0.132606l-1.624997,0.250477l-0.458332,0.221009l-0.48611,0.088404l-0.236111,-0.029468l-0.152777,-0.117872l-0.291666,0.014734l-0.583332,0.383083l-0.666665,1.046111l-0.236111,0.618826l-0.499999,0.471487l-0.666665,0.353615l-0.958331,0.117872h-0.97222l-0.263888,0.088404Z M1183.147738,99.144661l-0.041667,0.108469l0.749998,0.447434l1.472219,0.3932l1.083331,0.474551l0.333333,0.244055l0.777776,0.257614l0.694443,0.040676l0.388888,0.081352l1.277775,0.650813l0.277777,0.325407l0.652776,0.311848l1.333331,0.176262l0.597221,0.162703l1.777774,0.054234l0.583332,-0.108469l0.541666,0.108469l0.249999,-0.027117l0.208333,-0.189821l1.680552,-0.433876l1.722219,-0.271172l0.319444,-0.027117l0.125,-0.162703l0.125,-0.555903l-0.013889,-0.271172l0.125,-0.176262l0.333333,-0.230496l0.291666,-0.379641l0.263888,-0.09491v-0.135586l-0.277777,-0.108469l-0.416666,0.013559l-0.624999,0.298289l-0.277777,0.040676l-0.458332,-0.135586l-0.527777,-0.433876l-0.541666,-0.203379l-1.138887,-0.149145l-1.45833,-0.271172l-0.583332,0.013559l-0.652776,0.257614l-1.055553,0.162703l-0.583332,-0.067793l-0.388888,-0.271172l-0.097222,-0.406758l0.208333,-0.311848l-0.083333,-0.203379l-0.291666,-0.176262l-0.694443,-0.081352l-0.694443,0.09491l-0.583332,-0.027117l-0.555554,-0.257614l-0.541666,-0.067793l-0.305555,0.040676l-0.138889,0.09491h-0.513888l-0.249999,0.108469l-0.416666,0.284731l0.013889,0.203379l-0.166666,0.09491l-0.73611,0.054234l-0.666665,-0.230496l-0.472221,-0.542344l0.027778,-0.271172l0.305555,-0.244055l-0.055555,-0.257614l-0.722221,-0.447434l-0.416666,0.013559l-0.152777,0.189821l-0.041667,0.311848l0.083333,0.230496l-0.152777,0.338965l-0.36111,0.230496l-0.097222,0.230496l0.083333,0.338965l0.152777,0.189821l-0.083333,0.230496l-0.319444,0.271172l-0.208333,0.054234Z M1164.286665,92.772114l0.069444,-0.040676l-0.013889,-0.081352l-0.36111,-0.067793l-0.069444,0.054234l0.152777,0.09491l0.222222,0.040676Z M1180.321355,97.232897l0.083333,-0.081352l-0.333333,-0.447434l-0.416666,-0.223717l-1.229164,-0.325407l-0.437499,-0.325407l-0.541666,-0.183041h-0.604165l-0.604165,-0.244055l-0.958331,-0.549124l-1.416664,-0.325407l-0.874998,0.040676l-0.666665,0.305069l-0.645832,-0.040676l-1.541664,-0.38642l-0.624999,-0.264393l-0.437499,-0.48811l-2.020829,-1.240613l-0.791665,-0.183041l-0.645832,-0.284731l-0.145833,0.040676l0.083333,0.183041l0.624999,0.508448l0.458332,0.549124l-0.145833,0.040676l-1.166664,-0.366083l-0.749998,-0.020338l-0.437499,0.162703l-0.270833,0.610138l-0.104166,1.321965l0.125,0.691489l0.374999,0.366083l-0.125,0.10169l-0.395833,-0.020338l-0.333333,-0.366083l-0.770832,-0.142365l-0.0625,0.122028l0.020833,0.162703l-0.229166,-0.020338l-0.083333,-0.203379l0.1875,-0.244055l-0.166666,-0.366083l-0.604165,-0.244055h-0.666665l-1.208331,-0.48811l-0.020833,-0.203379l0.270833,-0.203379l0.374999,-0.081352l-0.041667,-0.142365l-0.729165,-0.203379h-0.479166l-0.354166,-0.122028l-0.249999,-0.305069l-0.583332,-0.264393l-0.437499,-0.081352l-0.604165,-0.467772l-0.104166,-0.244055l0.083333,-0.183041l-0.145833,-0.081352l-0.624999,-0.020338l-1.104164,0.284731l-0.229166,0.223717l-0.0625,0.366083l-0.166666,0.020338l-0.312499,-0.244055h-0.374999l-0.270833,0.223717l-0.125,0.38642l-0.354166,0.305069l-1.020831,0.10169h-0.562499l-0.791665,0.528786l0.020833,0.305069l0.541666,0.467772l-0.041667,0.264393l-0.104166,0.223717l-0.437499,0.020338l-0.458332,-0.10169l-0.416666,0.081352l-0.1875,0.366083l0.208333,0.244055v0.284731l-0.270833,0.223717l-0.437499,0.142365v0.162703l0.895832,0.447434l0.145833,0.244055l-0.041667,0.223717l-0.312499,0.142365l-0.020833,0.183041l0.208333,0.122028l0.291666,-0.081352l0.541666,0.122028l0.041667,0.244055l-0.395833,0.244055l-0.666665,-0.020338l-0.208333,-0.284731l-0.354166,-0.040676l-0.374999,0.122028l-0.020833,0.305069l0.249999,0.610138l0.666665,0.528786l0.354166,0.508448l0.541666,0.38642l0.729165,0.223717l0.874998,0.569462l0.354166,0.467772l0.874998,0.711827l1.333331,0.264393l1.124998,0.325407l0.812498,0.345745l0.749998,-0.040676l0.916665,-0.630475l0.374999,-0.630475l-0.041667,-0.162703l-0.270833,-0.223717l0.0625,-0.508448l0.395833,-0.203379l0.916665,0.223717l0.458332,0.38642l0.104166,0.427096l-0.229166,0.122028l-0.374999,-0.040676l-0.083333,0.10169l0.333333,0.122028l0.958331,-0.122028l1.437497,-0.447434l3.520826,-0.508448l1.229164,-0.508448l1.208331,-0.061014l0.291666,0.183041l0.374999,0.467772h-0.1875l-0.395833,-0.305069l-0.479166,-0.040676l-0.312499,0.162703l-0.041667,0.264393l0.666665,0.427096l0.812498,0.264393l0.854165,0.040676l0.354166,-0.162703l0.0625,-0.244055l0.1875,-0.122028l0.416666,0.122028l1.187498,-0.223717l1.124998,0.020338l0.645832,-0.244055l0.104166,-0.264393l-0.395833,-0.325407l-0.499999,-0.061014l-0.437499,0.061014l-1.479164,-0.447434h-0.541666l-0.645832,-0.305069l-1.041665,-1.321965l-0.437499,-0.366083l-0.312499,-0.528786l0.104166,-0.284731l-0.0625,-0.264393l-0.208333,-0.244055l0.083333,-0.366083l0.708332,-0.752503l0.833332,-0.467772l1.229164,-0.040676l0.645832,0.284731l0.125,0.366083l-0.1875,0.345745l-0.979165,0.406758l-0.666665,0.671151l-0.270833,0.630475l0.104166,0.244055l0.562499,0.244055l0.666665,0.671151l0.125,0.447434l0.395833,0.223717l1.45833,0.467772l1.479164,-0.081352l0.333333,0.162703l0.020833,0.203379l0.395833,0.142365l1.45833,-0.38642l1.041665,-0.671151l0.395833,-0.691489l0.333333,-0.142365l0.0625,-0.183041l-0.312499,-0.305069l-0.083333,-0.508448l0.687499,-0.549124l0.958331,-0.325407l0.479166,0.081352Z "/>
</svg>
