<svg xmlns="http://www.w3.org/2000/svg" viewBox="1143.106 84.490 84.686 29.591">
  <path d="M1226.595,87.541l0.229-0.167l0.646-0.062l0.312,0.083l0.01,0.135l-0.312,0.156l-0.542,0.042l-0.229-0.062L1226.595,87.541z M1221.449,84.864l0.24,0.094l1-0.062l0.271-0.167l-0.042-0.156l-0.25-0.083l-0.979,0.104l-0.406,0.177l0.01,0.094H1221.449z M1207.009,91.981l-0.056,0.186l0.181,0.285l0.444,0.223l0.528-0.05l0.306-0.335l0.125-0.471l-0.278-0.161l-0.514,0.025L1207.009,91.981z M1206.078,94.922l-0.167,0.186l0.083,0.174l0.333,0.025l0.694-0.124l0.014-0.161l-0.25-0.186l-0.319-0.025L1206.078,94.922z M1191.787,88.323l-0.097,0.186l0.083,0.186l0.458,0.124l1.764-0.012l0.861-0.199l0.264-0.397l0.264-0.236l0.458-0.323l-0.014-0.124l-0.153-0.087h-0.556l-0.472,0.149l-1.014,0.099l-0.806,0.199l-0.361,0.211L1191.787,88.323z M1143.634,97.696l-0.042,0.344l0.292,0.222l0.979-0.04l0.479-0.404l0.125-0.526l0.292-0.586l0.396-0.263l0.042-0.162l-1.042-0.667l-0.667-1.112l-0.167,0.02l0.021,0.526l-0.271,0.687l-0.104,0.445l0.083,0.303l-0.229,1.051L1143.634,97.696z M1143.217,106.337l-0.111,0.167l0.014,0.264l0.236,0.542l0.222,0.139l0.347,0.042l0.528,0.472l0.153,0.417l0.361,0.25l1.194,0.403l0.556-0.097l0.097-0.208l-0.264-0.736l-0.722-0.597l-1.236-0.597l-0.292-0.306l-0.347-0.139L1143.217,106.337z M1160.946,107.752l0.604,0.807l0.635,0.32l0.469-0.022l0.208-0.221l0.479-0.287l0.5-0.033l0.344-0.221l0.094-0.387l-0.125-0.309l0.021-0.21l0.198-0.309l-0.052-0.376l-0.552-0.298l-0.719-0.099l-1.021,0.077l-0.833,0.254l-0.229,0.343l-0.094,0.53L1160.946,107.752z M1163.061,108.758l0.094-0.022l0.208-0.199l-0.031-0.077l-0.083,0.011l-0.198,0.21L1163.061,108.758z M1159.551,112.327l-0.083,0.162l0.056,0.236l0.375,0.177l0.75-0.088l0.986-0.354l1.014-0.147l1.111,0.147l2.333,0.81l2.736,0.339l0.597,0.162l0.278,0.029l0.403-0.103l1.222,0.192l0.972,0.192l0.417-0.044l0.444-0.192l0.444,0.044l0.028-0.088l-0.25-0.236l-0.236-0.471v-0.899l0.181-0.177l-0.014-0.206l-0.917-0.796l-0.903-0.471l-1.014-0.619l-0.458-0.383l-0.847-0.295l-0.25,0.029l-0.292-0.059l-0.431-0.265l-0.556-0.133l-1.625,0.25l-0.458,0.221l-0.486,0.088l-0.236-0.029l-0.153-0.118l-0.292,0.015l-0.583,0.383l-0.667,1.046l-0.236,0.619l-0.5,0.471l-0.667,0.354l-0.958,0.118h-0.972L1159.551,112.327z M1183.148,99.145l-0.042,0.108l0.75,0.447l1.472,0.393l1.083,0.475l0.333,0.244l0.778,0.258l0.694,0.041l0.389,0.081l1.278,0.651l0.278,0.325l0.653,0.312l1.333,0.176l0.597,0.163l1.778,0.054l0.583-0.108l0.542,0.108l0.25-0.027l0.208-0.19l1.681-0.434l1.722-0.271l0.319-0.027l0.125-0.163l0.125-0.556l-0.014-0.271l0.125-0.176l0.333-0.23l0.292-0.38l0.264-0.095v-0.136l-0.278-0.108l-0.417,0.014l-0.625,0.298l-0.278,0.041l-0.458-0.136l-0.528-0.434l-0.542-0.203l-1.139-0.149l-1.458-0.271l-0.583,0.014l-0.653,0.258l-1.056,0.163l-0.583-0.068l-0.389-0.271l-0.097-0.407l0.208-0.312l-0.083-0.203l-0.292-0.176l-0.694-0.081l-0.694,0.095l-0.583-0.027l-0.556-0.258l-0.542-0.068l-0.306,0.041l-0.139,0.095h-0.514l-0.25,0.108l-0.417,0.285l0.014,0.203l-0.167,0.095l-0.736,0.054l-0.667-0.23l-0.472-0.542l0.028-0.271l0.306-0.244l-0.056-0.258l-0.722-0.447l-0.417,0.014l-0.153,0.19l-0.042,0.312l0.083,0.23l-0.153,0.339l-0.361,0.23l-0.097,0.23l0.083,0.339l0.153,0.19l-0.083,0.23l-0.319,0.271L1183.148,99.145z M1164.287,92.772l0.069-0.041l-0.014-0.081l-0.361-0.068l-0.069,0.054l0.153,0.095L1164.287,92.772z M1180.321,97.233l0.083-0.081l-0.333-0.447l-0.417-0.224l-1.229-0.325l-0.438-0.325l-0.542-0.183h-0.604l-0.604-0.244l-0.958-0.549l-1.417-0.325l-0.875,0.041l-0.667,0.305l-0.646-0.041l-1.542-0.386l-0.625-0.264l-0.438-0.488l-2.021-1.241l-0.792-0.183l-0.646-0.285l-0.146,0.041l0.083,0.183l0.625,0.508l0.458,0.549l-0.146,0.041l-1.167-0.366l-0.75-0.02l-0.438,0.163l-0.271,0.61l-0.104,1.322l0.125,0.691l0.375,0.366l-0.125,0.102l-0.396-0.02l-0.333-0.366l-0.771-0.142l-0.062,0.122l0.021,0.163l-0.229-0.02l-0.083-0.203l0.187-0.244l-0.167-0.366l-0.604-0.244h-0.667l-1.208-0.488l-0.021-0.203l0.271-0.203l0.375-0.081l-0.042-0.142l-0.729-0.203h-0.479l-0.354-0.122l-0.25-0.305l-0.583-0.264l-0.438-0.081l-0.604-0.468l-0.104-0.244l0.083-0.183l-0.146-0.081l-0.625-0.02l-1.104,0.285l-0.229,0.224l-0.062,0.366l-0.167,0.02l-0.312-0.244h-0.375l-0.271,0.224l-0.125,0.386l-0.354,0.305l-1.021,0.102h-0.562l-0.792,0.529l0.021,0.305l0.542,0.468l-0.042,0.264l-0.104,0.224l-0.438,0.02l-0.458-0.102l-0.417,0.081l-0.188,0.366l0.208,0.244v0.285l-0.271,0.224l-0.438,0.142v0.163l0.896,0.447l0.146,0.244l-0.042,0.224l-0.312,0.142l-0.021,0.183l0.208,0.122l0.292-0.081l0.542,0.122l0.042,0.244l-0.396,0.244l-0.667-0.02l-0.208-0.285l-0.354-0.041l-0.375,0.122l-0.021,0.305l0.25,0.61l0.667,0.529l0.354,0.508l0.542,0.386l0.729,0.224l0.875,0.569l0.354,0.468l0.875,0.712l1.333,0.264l1.125,0.325l0.812,0.346l0.75-0.041l0.917-0.63l0.375-0.63l-0.042-0.163l-0.271-0.224l0.062-0.508l0.396-0.203l0.917,0.224l0.458,0.386l0.104,0.427l-0.229,0.122l-0.375-0.041l-0.083,0.102l0.333,0.122l0.958-0.122l1.438-0.447l3.521-0.508l1.229-0.508l1.208-0.061l0.292,0.183l0.375,0.468h-0.188l-0.396-0.305l-0.479-0.041l-0.312,0.163l-0.042,0.264l0.667,0.427l0.812,0.264l0.854,0.041l0.354-0.163l0.062-0.244l0.188-0.122l0.417,0.122l1.188-0.224l1.125,0.02l0.646-0.244l0.104-0.264l-0.396-0.325l-0.5-0.061l-0.438,0.061l-1.479-0.447h-0.542l-0.646-0.305l-1.042-1.322l-0.438-0.366l-0.312-0.529l0.104-0.285l-0.062-0.264l-0.208-0.244l0.083-0.366l0.708-0.753l0.833-0.468l1.229-0.041l0.646,0.285l0.125,0.366l-0.188,0.346l-0.979,0.407l-0.667,0.671l-0.271,0.63l0.104,0.244l0.562,0.244l0.667,0.671l0.125,0.447l0.396,0.224l1.458,0.468l1.479-0.081l0.333,0.163l0.021,0.203l0.396,0.142l1.458-0.386l1.042-0.671l0.396-0.691l0.333-0.142l0.062-0.183l-0.312-0.305l-0.083-0.508l0.688-0.549l0.958-0.325L1180.321,97.233z"/>
</svg>
