<svg xmlns="http://www.w3.org/2000/svg" viewBox="1164.895 225.840 12.918 41.671">
  <path d="M1167.666,266.994l-0.136-0.095l-0.027-0.067l0.055-0.125l0.004-0.086l-0.125-0.529l-0.051-0.447l-0.275-0.898l0.016-0.275l-0.043-0.082l0.02-0.094l0.094-0.067l0.027-0.082l0.02-0.161l0.149-0.408l0.271-0.549l0.071-0.078l0.122-0.349l0.02-0.169l0.09-0.188l0.043-0.216l-0.035-0.349l-0.09-0.282l-0.173-0.212l0.008-0.173l0.063-0.169l0.008-0.063l-0.125-0.294l-0.016-0.6l0.016-0.173l-0.012-0.043l0.016-0.078l0.047-0.039l0.086-0.212l0.004-0.071l0.012-0.047l0.047-0.039l0.133-0.239l0.094-0.271l0.024-0.149l0.051-0.098l0.141-0.11l0.039-0.075l0.161-0.192l0.012-0.102l-0.047-0.098l-0.012-0.224l-0.035-0.11l-0.031-0.631l-0.051-0.204l0.004-0.165l-0.02-0.145l-0.169-0.365l-0.384-0.541l-0.357-0.616l-0.149-0.471l0.012-0.22l0.102-0.153l0.318-0.235l0.008-0.106l-0.059-0.106l0.024-0.047l0.086-0.027l0.055-0.071l0.004-0.255l0.012-0.098l0.094-0.224l0.012-0.11l-0.016-0.204l0.039-0.114l0.161-0.263l0.008-0.098l-0.059-0.141l0.004-0.455l0.09-0.31l0.09-0.157l0.067-0.278l0.012-0.416l0.035-0.224l0.008-0.584l0.031-0.129l-0.004-0.165l-0.082-0.2l-0.004-0.078l0.02-0.173l-0.027-0.118v-0.071l0.055-0.082l0.008-0.129l-0.035-0.071l0.008-0.067l0.078-0.106l0.012-0.514l-0.055-0.475l-0.082-0.176l0.008-0.055l0.055-0.078l0.004-0.231l-0.102-0.22l-0.086-0.09l-0.184-0.455l-0.02-0.145l0.043-0.412l0.078-0.275l0.039-0.29l-0.02-0.2l-0.012-0.086l0.023-0.055l0.039-0.039l0.027-0.09v-0.161l0.02-0.047l0.067-0.02l0.18-0.204l0.169-0.29l0.078-0.267l0.004-0.482l-0.09-0.2l-0.129-0.11l-0.082-0.188l-0.004-0.102l0.027-0.082l0.004-0.075l-0.023-0.09l-0.122-0.106l-0.192-0.271l-0.02-0.137l0.035-0.098l-0.008-0.086l-0.129-0.173l-0.177-0.106l-0.345-0.322l-0.322-0.416l-0.177-0.153l-0.244-0.132l-0.039-0.042l-0.01-0.042l0.027-0.008l0.157,0.082l0.11,0.012l0.103-0.042l0.05-0.071l0.031-0.139l-0.004-0.086l-0.145-0.188l-0.172-0.141l-0.157-0.024l-0.228-0.125v-0.047l0.078-0.051l0.067-0.18l0.008-0.231l-0.086-0.227l-0.004-0.141l-0.071-0.122l0.016-0.122l0.141-0.106l0.067-0.173l-0.016-0.122l-0.145-0.173l-0.012-0.094l0.067-0.094l0.02-0.114l-0.121-0.184v-0.125l0.063-0.141l0.016-0.133l0.039-0.075l0.114-0.027l0.169-0.165l0.161-0.227l0.169-0.451l-0.012-0.059l-0.063-0.043v-0.063l0.071-0.153l0.008-0.063l-0.035-0.047v-0.086l0.047-0.122v-0.051l-0.047-0.047v-0.055l0.086-0.2l0.008-0.494l0.031-0.114l0.043-0.055l0.071-0.192l-0.012-0.067l0.004-0.11l0.082-0.161l0.039-0.239l-0.024-0.129l-0.263-0.326l-0.063-0.204l0.02-0.098l-0.027-0.125l-0.125-0.184l-0.02-0.173l0.031-0.137l0.008-0.114l-0.118-0.192l0.016-0.075l0.133-0.086l0.004-0.031l-0.055-0.004l-0.2,0.047l-0.094,0.075l-0.047-0.016l0.008-0.082l0.173-0.098h0.274l0.114-0.02l0.078-0.063l0.463-0.239l0.718-0.294l0.184-0.02l0.059,0.024l-0.02,0.027l-0.114,0.004l-0.031,0.027l0.082,0.102v0.067l-0.051,0.039v0.063l0.035,0.067l0.004,0.118l-0.027,0.051l-0.008,0.082l0.059,0.133l0.149,0.094h0.129l0.067-0.075l0.114-0.016l0.157,0.039l0.094-0.016l0.188-0.165l0.247-0.447l0.133-0.133l0.118-0.012l0.106,0.067h0.047v-0.118l-0.043-0.047l-0.074-0.008l-0.169-0.129l-0.024-0.086l-0.055-0.043l-0.098,0.008l-0.035,0.059l0.039,0.063l-0.008,0.086l-0.082,0.051l-0.063-0.024l0.008-0.31l-0.055-0.173l0.016-0.102l0.137-0.071l0.184,0.016l0.173-0.075l0.086,0.024l0.122,0.208l0.11,0.027l0.071-0.024l0.153-0.278l0.031-0.173l-0.106-0.463l-0.067-0.106l-0.082,0.004l-0.09,0.255l-0.012,0.192l-0.078,0.176l-0.247,0.118l-0.047-0.031l0.02-0.106l0.22-0.345l0.149-0.314l0.039-0.263l-0.008-0.204l-0.071-0.141l-0.216-0.212l-0.373-0.42l-0.231-0.2l-0.169-0.271l-0.024-0.18l-0.11-0.192l-0.169-0.173l-0.18-0.11l-0.063-0.078l0.035-0.043h0.063l0.259,0.122l0.29,0.031l0.557-0.157l0.29-0.259l0.016-0.118l-0.031-0.102l0.031-0.102l0.141-0.031l0.094,0.063l0.008,0.133l0.125,0.141l0.078,0.173l0.024,0.18l0.698,0.925l0.031,0.251l-0.055,0.196l-0.228,0.22l-0.086,0.243l-0.008,0.424l0.052,0.29l0.261,0.648l0.403,0.884l0.319,0.79l0.178,0.507l0.141,0.596l0.105,0.633l0.084,0.601l0.047,0.46l-0.01,0.79l-0.042,0.601l-0.12,0.596l-0.157,0.382l-0.199,0.246l-0.042,0.115l-0.078,0.314l-0.016,0.413l0.021,0.528l0.141,0.512l0.246,0.633l0.329,0.622l0.235,0.659l0.173,0.742l0.12,0.654l0.199,0.591l0.288,1.103l0.115,0.622l0.063,0.12l0.031,0.439l0.068,0.23l0.047,0.408l0.214,0.878l0.204,0.601l0.35,0.722l0.298,0.476l0.016,0.105l-0.021,0.11l0.057,0.251l0.356,0.769l0.084,0.105l0.01,0.089l-0.031,0.146l0.016,0.329l0.188,0.366l0.214,0.241l-0.005,0.073l-0.042,0.089v0.256l0.094,0.22l0.089,0.361l0.021,0.256l0.235,0.429l0.078,0.256l0.099,0.157v0.058l-0.057,0.037l0.01,0.047l0.387,0.277l0.732,0.518l0.031,0.094l-0.047,0.099l0.016,0.12l0.078,0.115v0.052l-0.078,0.042l-0.031,0.11l0.016,0.136l0.167,0.246l-0.037,0.058l-0.099,0.005l-0.057-0.058l0.01-0.073l-0.01-0.063l-0.052-0.052l-0.01-0.073l0.01-0.188l-0.031-0.157l-0.183-0.272l-0.209-0.293l-0.356-0.371l-0.246-0.183l-0.084-0.016l-0.073-0.047l-0.037-0.078l-0.172-0.157l-0.084-0.099l-0.016-0.068l-0.084-0.115l-0.125-0.063l-0.084-0.099l-0.042-0.099l-0.094-0.099l-0.34-0.167l-0.538-0.157l-0.544-0.084l-0.591-0.039l-0.588,0.031l-0.549,0.125l-0.518,0.243l-0.322,0.235l-0.274,0.353l-0.094,0.376l0.008,0.125l0.094,0.149l0.024,0.235l-0.055,0.196l-0.502,0.824l-0.314,0.776l-0.086,0.416l-0.227,0.667l-0.063,0.094l-0.275,0.831l-0.201,1.007l-0.01,0.099l0.052,0.073v0.078l-0.016,0.084l0.047,0.361l0.267,0.685l0.46,0.664l0.376,0.251l0.335,0.173l0.094,0.115l0.063,0.235l0.031,0.057l0.146,0.126l0.099,0.429l-0.01,0.214l-0.063,0.141l0.016,0.12l0.094,0.105l0.131,0.309l0.042,0.261l0.052,0.078l0.24,0.204l0.46,0.225l0.314,0.021l0.131-0.063l0.01-0.084l-0.021-0.063l0.037-0.042l0.099,0.031l0.094,0.115l0.099,0.429l-0.01,0.11l-0.026,0.042l-0.005,0.094l0.047,0.371l0.105,0.486l0.099,0.199v0.078l-0.099,0.115l0.047,0.037l0.073-0.026l0.12,0.026l0.021,0.052l-0.031,0.058l-0.089,0.031l-0.047,0.084l-0.016,0.141l-0.047,0.052l-0.084,0.052l-0.052,0.141l-0.021,0.141l-0.057,0.078l-0.084,0.037l-0.037,0.131l0.031,0.214l-0.021,0.141l-0.11,0.136l-0.037,0.136l-0.047-0.005l-0.026-0.225l0.042-0.361l0.042-0.084v-0.141l-0.188-0.575l-0.136-0.225l-0.026-0.23l0.031-0.084l-0.01-0.068l-0.209-0.267l-0.335-0.256l-0.162-0.084h-0.089l-0.073,0.037l-0.193-0.005l-0.115-0.042l-0.45-0.078l-0.099,0.016l-0.146,0.068h-0.152l-0.068-0.063l-0.073-0.272l-0.078-0.146l0.005-0.078l-0.052-0.068l-0.058-0.005l-0.068,0.068l-0.125,0.016h-0.152l-0.277,0.115l-0.282,0.261l-0.209,0.366l-0.146,0.455l-0.188,0.376l-0.178,0.434l-0.031,0.183l0.01,0.173l-0.099,0.382l-0.084,0.094l-0.031,0.099l-0.01,0.199l-0.105,0.105l-0.141,0.042l-0.094,0.105l-0.037,0.152l-0.005,0.193l-0.031,0.016l-0.146-0.125l-0.136-0.178l-0.052-0.131L1167.666,266.994z M1168.903,230.4l-0.039,0.055l-0.016,0.129l0.023,0.027l0.035-0.016v-0.055l0.043-0.071l0.353-0.078l0.141-0.059l-0.008-0.043l-0.137-0.039l-0.184,0.016l-0.09,0.078L1168.903,230.4z M1164.916,265.88l-0.021,0.084l0.021,0.084l0.068,0.005l0.063-0.058l0.016-0.115l-0.073-0.115h-0.068l-0.026,0.047L1164.916,265.88z"/>
</svg>
