<svg xmlns="http://www.w3.org/2000/svg" viewBox="1164.895 225.840 13.124 41.671">
  <path d="M1167.71,266.994l-0.138-0.095l-0.028-0.067l0.056-0.125l0.004-0.086l-0.127-0.529l-0.052-0.447l-0.279-0.898l0.016-0.275l-0.044-0.082l0.02-0.094l0.096-0.067l0.028-0.082l0.02-0.161l0.151-0.408l0.275-0.549l0.072-0.078l0.124-0.349l0.02-0.169l0.092-0.188l0.044-0.216l-0.036-0.349l-0.092-0.282l-0.175-0.212l0.008-0.173l0.064-0.169l0.008-0.063l-0.127-0.294l-0.016-0.6l0.016-0.173l-0.012-0.043l0.016-0.078l0.048-0.039l0.088-0.212l0.004-0.071l0.012-0.047l0.048-0.039l0.135-0.239l0.096-0.271l0.024-0.149l0.052-0.098l0.143-0.11l0.04-0.075l0.163-0.192l0.012-0.102l-0.048-0.098l-0.012-0.224l-0.036-0.11l-0.032-0.631l-0.052-0.204l0.004-0.165l-0.02-0.145l-0.171-0.365l-0.391-0.541l-0.363-0.616l-0.151-0.471l0.012-0.22l0.104-0.153l0.323-0.235l0.008-0.106l-0.06-0.106l0.024-0.047l0.088-0.027l0.056-0.071l0.004-0.255l0.012-0.098l0.096-0.224l0.012-0.11l-0.016-0.204l0.04-0.114l0.163-0.263l0.008-0.098l-0.06-0.141l0.004-0.455l0.092-0.31l0.092-0.157l0.068-0.278l0.012-0.416l0.036-0.224l0.008-0.584l0.032-0.129l-0.004-0.165l-0.084-0.2l-0.004-0.078l0.02-0.173l-0.028-0.118v-0.071l0.056-0.082l0.008-0.129l-0.036-0.071l0.008-0.067l0.08-0.106l0.012-0.514l-0.056-0.475l-0.084-0.176l0.008-0.055l0.056-0.078l0.004-0.231l-0.104-0.22l-0.088-0.09l-0.187-0.455l-0.02-0.145l0.044-0.412l0.08-0.275l0.04-0.29l-0.02-0.2l-0.012-0.086l0.024-0.055l0.04-0.039l0.028-0.09v-0.161l0.02-0.047l0.068-0.02l0.183-0.204l0.171-0.29l0.08-0.267l0.004-0.482l-0.092-0.2l-0.131-0.11l-0.084-0.188l-0.004-0.102l0.028-0.082l0.004-0.075l-0.024-0.09l-0.123-0.106l-0.195-0.271l-0.02-0.137l0.036-0.098l-0.008-0.086l-0.131-0.173l-0.179-0.106l-0.351-0.322l-0.327-0.416l-0.179-0.153l-0.248-0.132l-0.04-0.042l-0.011-0.042l0.028-0.008l0.159,0.082l0.112,0.012l0.105-0.042l0.05-0.071l0.032-0.139l-0.004-0.086l-0.147-0.188l-0.175-0.141l-0.159-0.024l-0.231-0.125v-0.047l0.08-0.051l0.068-0.18l0.008-0.231l-0.088-0.227l-0.004-0.141l-0.072-0.122l0.016-0.122l0.143-0.106l0.068-0.173l-0.016-0.122l-0.147-0.173l-0.012-0.094l0.068-0.094l0.02-0.114l-0.124-0.184v-0.125l0.064-0.141l0.016-0.133l0.04-0.075l0.115-0.027l0.171-0.165l0.163-0.227l0.171-0.451l-0.012-0.059l-0.064-0.043v-0.063l0.072-0.153l0.008-0.063l-0.036-0.047v-0.086l0.048-0.122v-0.051l-0.048-0.047v-0.055l0.088-0.2l0.008-0.494l0.032-0.114l0.044-0.055l0.072-0.192l-0.012-0.067l0.004-0.11l0.084-0.161l0.04-0.239l-0.024-0.129l-0.267-0.326l-0.064-0.204l0.02-0.098l-0.028-0.125l-0.128-0.184l-0.02-0.173l0.032-0.137l0.008-0.114l-0.12-0.192l0.016-0.075l0.135-0.086l0.004-0.031l-0.056-0.004l-0.203,0.047l-0.096,0.075l-0.048-0.016l0.008-0.082l0.175-0.098h0.279l0.115-0.02l0.08-0.063l0.47-0.239l0.729-0.294l0.187-0.02l0.06,0.024l-0.02,0.027l-0.116,0.004l-0.032,0.027l0.084,0.102v0.067l-0.052,0.039v0.063l0.036,0.067l0.004,0.118l-0.028,0.051l-0.008,0.082l0.06,0.133l0.151,0.094h0.131l0.068-0.075l0.116-0.016l0.159,0.039l0.096-0.016l0.191-0.165l0.251-0.447l0.135-0.133l0.12-0.012l0.108,0.067h0.048v-0.118l-0.044-0.047l-0.076-0.008l-0.171-0.129l-0.024-0.086l-0.056-0.043l-0.1,0.008l-0.036,0.059l0.04,0.063l-0.008,0.086l-0.084,0.051l-0.064-0.024l0.008-0.31l-0.056-0.173l0.016-0.102l0.14-0.071l0.187,0.016l0.175-0.075l0.088,0.024l0.123,0.208l0.112,0.027l0.072-0.024l0.155-0.278l0.032-0.173l-0.108-0.463l-0.068-0.106l-0.084,0.004l-0.092,0.255l-0.012,0.192l-0.08,0.176l-0.251,0.118l-0.048-0.031l0.02-0.106l0.223-0.345l0.151-0.314l0.04-0.263l-0.008-0.204l-0.072-0.141l-0.219-0.212l-0.379-0.42l-0.235-0.2l-0.171-0.271l-0.024-0.18l-0.112-0.192l-0.171-0.173l-0.183-0.11l-0.064-0.078l0.036-0.043h0.064l0.263,0.122l0.295,0.031l0.566-0.157l0.295-0.259l0.016-0.118l-0.032-0.102l0.032-0.102l0.143-0.031l0.096,0.063l0.008,0.133l0.127,0.141l0.08,0.173l0.024,0.18l0.709,0.925l0.032,0.251l-0.056,0.196l-0.231,0.22l-0.088,0.243l-0.008,0.424l0.053,0.29l0.266,0.648l0.409,0.884l0.324,0.79l0.181,0.507l0.143,0.596l0.106,0.633l0.085,0.601l0.048,0.46l-0.011,0.79l-0.042,0.601l-0.122,0.596l-0.159,0.382l-0.202,0.246l-0.042,0.115l-0.08,0.314l-0.016,0.413l0.021,0.528l0.143,0.512l0.25,0.633l0.335,0.622l0.239,0.659l0.175,0.742l0.122,0.654l0.202,0.591l0.292,1.103l0.117,0.622l0.064,0.12l0.032,0.439l0.069,0.23l0.048,0.408l0.218,0.878l0.207,0.601l0.356,0.722l0.303,0.476l0.016,0.105l-0.021,0.11l0.058,0.251l0.361,0.769l0.085,0.105l0.011,0.089l-0.032,0.146l0.016,0.329l0.191,0.366l0.218,0.241l-0.005,0.073l-0.042,0.089v0.256l0.096,0.22l0.09,0.361l0.021,0.256l0.239,0.429l0.08,0.256l0.101,0.157v0.058l-0.058,0.037l0.011,0.047l0.393,0.277l0.744,0.518l0.032,0.094l-0.048,0.099l0.016,0.12l0.08,0.115v0.052l-0.08,0.042l-0.032,0.11l0.016,0.136l0.17,0.246l-0.037,0.058l-0.101,0.005l-0.058-0.058l0.011-0.073l-0.011-0.063l-0.053-0.052l-0.011-0.073l0.011-0.188l-0.032-0.157l-0.186-0.272l-0.213-0.293l-0.361-0.371l-0.25-0.183l-0.085-0.016l-0.074-0.047l-0.037-0.078l-0.175-0.157l-0.085-0.099l-0.016-0.068l-0.085-0.115l-0.128-0.063l-0.085-0.099l-0.042-0.099l-0.096-0.099l-0.345-0.167l-0.547-0.157l-0.552-0.084l-0.6-0.039l-0.598,0.031l-0.558,0.125l-0.526,0.243l-0.327,0.235l-0.279,0.353l-0.096,0.376l0.008,0.125l0.096,0.149l0.024,0.235l-0.056,0.196l-0.51,0.824l-0.319,0.776l-0.088,0.416l-0.231,0.667l-0.064,0.094l-0.279,0.831l-0.204,1.007l-0.011,0.099l0.053,0.073v0.078l-0.016,0.084l0.048,0.361l0.271,0.685l0.468,0.664l0.382,0.251l0.34,0.173l0.096,0.115l0.064,0.235l0.032,0.057l0.149,0.126l0.101,0.429l-0.011,0.214l-0.064,0.141l0.016,0.12l0.096,0.105l0.133,0.309l0.042,0.261l0.053,0.078l0.244,0.204l0.467,0.225l0.319,0.021l0.133-0.063l0.011-0.084l-0.021-0.063l0.037-0.042l0.101,0.031l0.096,0.115l0.101,0.429l-0.011,0.11l-0.026,0.042l-0.005,0.094l0.048,0.371l0.106,0.486l0.101,0.199v0.078l-0.101,0.115l0.048,0.037l0.074-0.026l0.122,0.026l0.021,0.052l-0.032,0.058l-0.09,0.031l-0.048,0.084l-0.016,0.141l-0.048,0.052l-0.085,0.052l-0.053,0.141l-0.021,0.141l-0.058,0.078l-0.085,0.037l-0.037,0.131l0.032,0.214l-0.021,0.141l-0.111,0.136l-0.037,0.136l-0.048-0.005l-0.026-0.225l0.042-0.361l0.042-0.084v-0.141l-0.191-0.575l-0.138-0.225l-0.026-0.23l0.032-0.084l-0.011-0.068l-0.213-0.267l-0.34-0.256l-0.165-0.084h-0.09l-0.074,0.037l-0.197-0.005l-0.117-0.042l-0.457-0.078l-0.101,0.016l-0.149,0.068h-0.154l-0.069-0.063l-0.074-0.272l-0.08-0.146l0.005-0.078l-0.053-0.068l-0.058-0.005l-0.069,0.068l-0.127,0.016h-0.154l-0.281,0.115l-0.287,0.261l-0.213,0.366l-0.149,0.455l-0.191,0.376l-0.181,0.434l-0.032,0.183l0.011,0.173l-0.101,0.382l-0.085,0.094l-0.032,0.099l-0.011,0.199l-0.106,0.105l-0.143,0.042l-0.096,0.105l-0.037,0.152l-0.005,0.193l-0.032,0.016l-0.149-0.125l-0.138-0.178l-0.053-0.131L1167.71,266.994z M1168.967,230.4l-0.04,0.055l-0.016,0.129l0.024,0.027l0.036-0.016v-0.055l0.044-0.071l0.359-0.078l0.143-0.059l-0.008-0.043l-0.139-0.039l-0.187,0.016l-0.092,0.078L1168.967,230.4z M1164.916,265.88l-0.021,0.084l0.021,0.084l0.069,0.005l0.064-0.058l0.016-0.115l-0.074-0.115h-0.069l-0.027,0.047L1164.916,265.88z"/>
</svg>
