<svg xmlns="http://www.w3.org/2000/svg" viewBox="1165.021 226.009 13.124 41.426">
  <path d="M1171.928,230.502l0.287,0.625l0.308,0.813l0.137,0.571l0.106,0.631l0.085,0.6l0.048,0.459l-0.011,0.437l-0.042,0.606l-0.122,0.601l-0.159,0.385l-0.202,0.248l-0.042,0.116l-0.08,0.316l-0.016,0.417l0.021,0.533l0.143,0.517l0.25,0.638l0.335,0.628l0.239,0.665l0.175,0.749l0.122,0.659l0.202,0.596l0.292,1.015l0.117,0.63l0.064,0.122l0.032,0.445l0.069,0.233l0.048,0.413l0.218,0.89l0.207,0.609l0.356,0.731l0.303,0.482l0.016,0.106l-0.021,0.111l0.058,0.254l0.361,0.778l0.085,0.106l0.011,0.09l-0.032,0.148l0.016,0.334l0.191,0.371l0.218,0.244l-0.005,0.074l-0.042,0.09v0.259l0.096,0.222l0.09,0.365l0.021,0.259l0.239,0.434l0.08,0.259l0.101,0.159v0.058l-0.058,0.037l0.011,0.048l1.137,0.805l0.032,0.095l-0.048,0.101l0.016,0.122l0.08,0.116v0.053l-0.08,0.042l-0.032,0.111l0.016,0.138l0.17,0.249l-0.037,0.058l-0.101,0.005l-0.058,-0.058l0.011,-0.074l-0.011,-0.064l-0.053,-0.053l-0.011,-0.074l0.011,-0.191l-0.032,-0.159l-0.186,-0.275l-0.212,-0.297l-0.361,-0.376l-0.25,-0.185l-0.085,-0.016l-0.074,-0.048l-0.037,-0.079l-0.175,-0.159l-0.085,-0.101l-0.016,-0.069l-0.085,-0.116l-0.127,-0.064l-0.085,-0.101l-0.042,-0.101l-0.096,-0.101l-0.345,-0.169l-0.547,-0.159l-0.552,-0.085l-0.6,-0.04l-0.598,0.032l-0.558,0.127l-0.526,0.246l-0.327,0.238l-0.279,0.357l-0.096,0.381l0.008,0.127l0.096,0.151l0.024,0.238l-0.056,0.199l-0.51,0.834l-0.319,0.786l-0.088,0.421l-0.231,0.675l-0.064,0.095l-0.279,0.842l-0.205,1.019l-0.011,0.101l0.053,0.074v0.079l-0.016,0.085l0.048,0.365l0.271,0.694l0.467,0.673l0.382,0.254l0.34,0.175l0.096,0.116l0.064,0.238l0.032,0.058l0.149,0.127l0.101,0.434l-0.011,0.217l-0.064,0.143l0.016,0.122l0.096,0.106l0.133,0.312l0.042,0.265l0.053,0.079l0.244,0.207l0.467,0.228l0.319,0.021l0.133,-0.064l0.011,-0.085l-0.021,-0.064l0.037,-0.042l0.101,0.032l0.096,0.116l0.101,0.434l-0.011,0.111l-0.027,0.042l-0.005,0.095l0.048,0.376l0.106,0.492l0.101,0.201v0.079l-0.101,0.116l0.048,0.037l0.074,-0.026l0.122,0.026l0.021,0.053l-0.032,0.058l-0.09,0.032l-0.048,0.085l-0.016,0.143l-0.048,0.053l-0.085,0.053l-0.053,0.143l-0.021,0.143l-0.058,0.079l-0.085,0.037l-0.037,0.132l0.032,0.217l-0.021,0.143l-0.112,0.138l-0.037,0.138l-0.048,-0.005l-0.027,-0.228l0.042,-0.365l0.042,-0.085v-0.143l-0.191,-0.582l-0.138,-0.228l-0.027,-0.233l0.032,-0.085l-0.011,-0.069l-0.212,-0.27l-0.34,-0.259l-0.165,-0.085h-0.09l-0.074,0.037l-0.197,-0.005l-0.117,-0.042l-0.457,-0.079l-0.101,0.016l-0.149,0.069h-0.154l-0.069,-0.064l-0.074,-0.275l-0.08,-0.148l0.005,-0.079l-0.053,-0.069l-0.058,-0.005l-0.069,0.069l-0.127,0.016h-0.154l-0.282,0.116l-0.287,0.265l-0.212,0.371l-0.149,0.461l-0.191,0.381l-0.181,0.44l-0.032,0.185l0.011,0.175l-0.101,0.387l-0.085,0.095l-0.032,0.101l-0.011,0.201l-0.106,0.106l-0.143,0.042l-0.096,0.106l-0.037,0.154l-0.005,0.196l-0.032,0.016l-0.149,-0.127l-0.138,-0.18l-0.053,-0.132l-0.08,-0.095l-0.138,-0.097l-0.028,-0.068l0.056,-0.127l0.004,-0.087l-0.127,-0.536l-0.052,-0.453l-0.279,-0.909l0.016,-0.278l-0.044,-0.083l0.02,-0.095l0.096,-0.068l0.028,-0.083l0.02,-0.163l0.151,-0.413l0.275,-0.556l0.072,-0.079l0.124,-0.353l0.02,-0.171l0.092,-0.191l0.044,-0.218l-0.036,-0.353l-0.092,-0.286l-0.175,-0.214l0.008,-0.175l0.064,-0.171l0.008,-0.064l-0.127,-0.298l-0.016,-0.608l0.016,-0.175l-0.012,-0.044l0.016,-0.079l0.048,-0.04l0.088,-0.214l0.004,-0.071l0.012,-0.048l0.048,-0.04l0.135,-0.242l0.096,-0.274l0.024,-0.151l0.052,-0.099l0.143,-0.111l0.04,-0.075l0.163,-0.195l0.012,-0.103l-0.048,-0.099l-0.012,-0.226l-0.036,-0.111l-0.032,-0.639l-0.052,-0.207l0.004,-0.167l-0.02,-0.147l-0.171,-0.369l-0.39,-0.548l-0.363,-0.624l-0.151,-0.477l0.012,-0.222l0.104,-0.155l0.323,-0.238l0.008,-0.107l-0.06,-0.107l0.024,-0.048l0.088,-0.028l0.056,-0.071l0.004,-0.258l0.012,-0.099l0.096,-0.226l0.012,-0.111l-0.016,-0.207l0.04,-0.115l0.163,-0.266l0.008,-0.099l-0.06,-0.143l0.004,-0.461l0.092,-0.314l0.092,-0.159l0.068,-0.282l0.012,-0.421l0.036,-0.226l0.008,-0.592l0.032,-0.131l-0.004,-0.167l-0.084,-0.203l-0.004,-0.079l0.02,-0.175l-0.028,-0.119v-0.071l0.056,-0.083l0.008,-0.131l-0.036,-0.071l0.008,-0.068l0.08,-0.107l0.012,-0.52l-0.056,-0.481l-0.084,-0.179l0.008,-0.056l0.056,-0.079l0.004,-0.234l-0.104,-0.222l-0.088,-0.091l-0.187,-0.461l-0.02,-0.147l0.044,-0.417l0.08,-0.278l0.04,-0.294l-0.02,-0.203l-0.012,-0.087l0.024,-0.056l0.04,-0.04l0.028,-0.091v-0.163l0.02,-0.048l0.068,-0.02l0.183,-0.207l0.171,-0.294l0.08,-0.27l0.004,-0.386l-0.092,-0.202l-0.131,-0.111l-0.084,-0.19l-0.004,-0.103l0.028,-0.083l0.004,-0.075l-0.024,-0.091l-0.124,-0.107l-0.195,-0.273l-0.02,-0.138l0.036,-0.099l-0.008,-0.087l-0.131,-0.174l-0.179,-0.107l-0.351,-0.324l-0.327,-0.419l-0.179,-0.154l-0.248,-0.133l-0.04,-0.042l-0.011,-0.042l0.028,-0.008l0.159,0.083l0.112,0.012l0.105,-0.042l0.05,-0.071l0.032,-0.14l-0.004,-0.087l-0.147,-0.19l-0.175,-0.142l-0.159,-0.024l-0.231,-0.127v-0.047l0.08,-0.051l0.068,-0.182l0.008,-0.233l-0.088,-0.219l-0.004,-0.136l-0.072,-0.117l0.016,-0.117l0.143,-0.102l0.068,-0.166l-0.016,-0.117l-0.147,-0.166l-0.012,-0.091l0.068,-0.091l0.02,-0.109l-0.124,-0.177v-0.121l0.064,-0.136l0.016,-0.128l0.04,-0.072l0.116,-0.026l0.171,-0.159l0.163,-0.219l0.171,-0.434l-0.012,-0.057l-0.064,-0.042v-0.06l0.072,-0.147l0.008,-0.06l-0.036,-0.045v-0.083l0.048,-0.117v-0.049l-0.048,-0.045v-0.053l0.088,-0.192l0.008,-0.476l0.032,-0.109l0.044,-0.053l0.072,-0.185l-0.012,-0.064l0.004,-0.106l0.084,-0.155l0.04,-0.23l-0.024,-0.125l-0.173,-0.223l-0.136,-0.235l-0.036,-0.208l-0.141,-0.302l-0.016,-0.245l0.042,-0.193l-0.036,-0.057l-0.073,-0.036l-0.021,-0.094l0.073,-0.104l0.198,-0.115l0.068,-0.089l0.474,-0.224l0.516,-0.208l0.339,-0.099l0.158,-0.007l0.04,0.015l-0.01,0.022l-0.061,-0.007l-0.087,0.015l-0.011,0.043l0.08,0.114l-0.008,0.058l-0.036,0.044l-0.003,0.073l0.021,0.045v0.076l-0.024,0.042l0.003,0.094l0.045,0.111l0.09,0.069l0.153,0.024l0.087,-0.031l0.052,-0.052l0.087,-0.003l0.08,0.038l0.101,-0.007l0.139,-0.08l0.174,-0.181l0.115,-0.191l0.115,-0.174l0.094,-0.101l0.069,-0.007l0.108,0.045l0.042,0.035l0.049,-0.003l0.007,-0.097l-0.014,-0.063h-0.045l-0.028,0.021l-0.049,-0.003l-0.174,-0.139l-0.08,-0.139l-0.045,-0.003l-0.066,0.066l-0.01,0.049l0.021,0.042l-0.017,0.056l-0.024,0.035h-0.035l-0.056,-0.08l-0.003,-0.156l-0.015,-0.167l-0.057,-0.117l0.018,-0.055l0.149,-0.057l0.089,-0.003l0.065,0.026l0.089,-0.003l0.128,-0.081l0.055,0.01l0.05,0.073l0.031,0.112l0.042,0.073l0.073,0.01l0.122,-0.042l0.136,-0.172l0.076,-0.18l-0.01,-0.19l-0.086,-0.281l-0.076,-0.12l-0.078,-0.026l-0.031,-0.036l-0.029,0.005l-0.052,0.305l-0.018,0.057l-0.01,0.102l0.008,0.063l-0.06,0.091l-0.12,0.055l-0.083,0.086l-0.042,-0.003l-0.044,-0.063l0.01,-0.102l0.229,-0.305l0.112,-0.258l0.063,-0.248l0.01,-0.198l-0.029,-0.117l-0.19,-0.175l-0.094,-0.112l-0.172,-0.188l-0.073,-0.034l-0.086,-0.089l-0.036,-0.076l-0.091,-0.094l-0.172,-0.115l-0.104,-0.159l-0.042,-0.104l-0.01,-0.104l-0.026,-0.078l-0.07,-0.099l-0.065,-0.05l-0.06,-0.063l-0.01,-0.039l-0.044,-0.05l-0.112,-0.052l-0.07,-0.06l-0.047,-0.018l-0.021,-0.036l0.018,-0.031l0.055,-0.003l0.091,0.05l0.115,0.081l0.143,0.031l0.164,0.01l0.136,-0.021l0.203,-0.068l0.216,-0.081l0.198,-0.098l0.146,-0.096l0.06,-0.086v-0.065l-0.05,-0.063l-0.003,-0.068l0.07,-0.073l0.068,-0.021l0.078,0.042l0.06,0.133l0.094,0.115l0.089,0.195l0.005,0.094l0.089,0.149l0.203,0.206l0.172,0.232l0.214,0.222l0.063,0.141l0.036,0.19l-0.01,0.086l-0.036,0.07l-0.01,0.086l-0.057,0.06l-0.112,0.057l-0.107,0.115l-0.047,0.149l-0.016,0.151l0.008,0.248l0.034,0.19l0.099,0.318l0.326,0.717l0.256,0.524Z M1165.042,265.779l-0.021,0.085l0.021,0.085l0.069,0.005l0.064,-0.058l0.016,-0.116l-0.074,-0.116h-0.069l-0.027,0.048l0.021,0.069Z M1168.965,230.436l0.01,0.083l0.042,0.01l0.031,-0.042v-0.08l0.045,-0.049l0.288,-0.05l0.118,-0.051l0.062,-0.006l0.05,0.013l0.013,-0.018l-0.098,-0.088l-0.125,-0.007l-0.292,0.104l-0.103,0.065l-0.042,0.115Z M1167.26,231.064l0.01,-0.018l-0.021,-0.023l-0.281,0.016l-0.164,0.089l-0.016,0.063l0.036,0.016l0.06,-0.047l0.143,-0.06l0.232,-0.034Z "/>
</svg>
