<svg xmlns="http://www.w3.org/2000/svg" viewBox="769.360 327.087 78.470 62.189">
  <path d="M827.978584,353.760084l-0.03388,-0.041698l-0.002606,-0.036486l0.028667,-0.013031l0.101639,0.031274l0.023455,0.041698v0.057335l0.036486,0.101639l-0.007818,0.018243l-0.031274,-0.013031l-0.059941,-0.122488l-0.054729,-0.023455Z M826.213366,345.099047l-0.031274,0.031274l-0.003475,0.031274l0.024324,0.00695l0.031274,-0.024324l0.00695,-0.041698l-0.027799,-0.003475Z M823.905204,346.361283l0.010425,0.044304l0.023455,0.005212l0.015637,-0.039092v-0.041698l-0.023455,-0.015637l-0.020849,0.013031l-0.005212,0.03388Z M824.18406,346.533287l0.005212,0.026061l0.028667,0.007818l0.057335,-0.023455l0.023455,-0.062547l-0.031274,-0.010425l-0.052123,0.023455l-0.031274,0.039092Z M824.382126,347.067544l0.028667,-0.023455l0.013031,-0.041698l-0.010425,-0.020849l-0.03388,0.005212l-0.018243,0.031274v0.044304l0.020849,0.005212Z M824.447279,347.174395l0.031274,-0.020849l0.023455,-0.036486l-0.005212,-0.018243l-0.026061,0.005212l-0.013031,0.026061l-0.026061,0.015637l-0.005212,0.020849l0.020849,0.007818Z M824.905958,346.937237l-0.039092,0.088608l0.023455,0.041698l0.088608,0.036486l0.109457,0.104245l0.04691,0.002606l0.018243,-0.031274l-0.015637,-0.093821l-0.028667,-0.039092l-0.062547,-0.013031l-0.044304,-0.036486l-0.04691,-0.145943l-0.031274,-0.005212l-0.026061,0.03388l0.007818,0.057335Z M824.952868,346.726141l0.054729,-0.052123l0.08079,-0.013031l0.078184,0.036486l0.018243,0.062547l-0.026061,0.036486l0.010425,0.028667l0.065153,0.013031l0.096427,-0.054729l0.091215,-0.03388l0.072972,0.005212l0.03388,0.028667l0.078184,0.020849l0.091215,-0.010425v-0.018243l-0.19546,-0.067759l-0.153762,-0.013031l-0.106851,-0.031274l-0.026061,-0.054729l-0.101639,-0.041698l-0.119882,0.013031l-0.086002,0.057335l-0.088608,0.169398l-0.005212,0.08079l0.026061,0.002606l0.070365,-0.072972l0.041698,-0.091215Z M769.408435,343.924552h0.101639l0.039092,0.03388l-0.015637,0.036486l-0.109457,0.031274l-0.005212,0.049516l0.106851,0.039092l0.101639,-0.013031l0.086002,0.031274l0.11467,0.125094l-0.026061,0.044304l-0.182429,0.013031l-0.172005,-0.072972l-0.088608,-0.122488l0.002606,-0.145943l0.04691,-0.049516Z M769.96354,344.28941l0.057335,-0.020849l0.028667,-0.044304l0.036486,0.007818l0.036486,0.088608l0.067759,0.015637l0.057335,-0.036486l0.005212,-0.054729l-0.065153,-0.088608l-0.088608,-0.023455l-0.109457,0.044304l-0.044304,0.083396l0.018243,0.028667Z M770.251083,343.736911l0.017374,0.010425l0.045173,-0.003475l0.057335,-0.017374l-0.027799,-0.039961l-0.001737,-0.041698l-0.041698,-0.029536l-0.041698,0.012162l-0.038223,0.022586l0.008687,0.019112l0.048648,-0.008687l0.001737,0.020849l-0.027799,0.034748v0.020849Z M770.496059,343.69l0.043435,-0.013899l0.038223,-0.031274l0.015637,-0.052123l-0.015637,-0.017374l-0.020849,0.00695l-0.008687,0.026061l-0.06081,0.027799l-0.012162,0.041698l0.020849,0.012162Z M771.328283,343.695212l-0.012162,0.041698l0.013899,0.034748l0.034748,0.012162l0.019112,-0.017374l-0.00695,-0.045173l-0.022586,-0.022586l-0.026061,-0.003475Z M771.898157,344.129567l0.057335,0.064285l0.081659,0.034748l0.010425,-0.013899l-0.050385,-0.039961l-0.027799,-0.064285l-0.039961,-0.029536l-0.029536,0.00695l-0.001737,0.041698Z M770.867867,344.266823l0.050385,-0.020849l-0.001737,-0.019112l-0.029536,-0.015637l-0.020849,0.008687l-0.015637,0.034748l0.017374,0.012162Z M771.491601,344.379756l0.024324,-0.017374l0.001737,-0.026061l-0.015637,-0.020849l-0.024324,0.003475l-0.010425,0.020849l0.005212,0.029536l0.019112,0.010425Z M771.708778,344.847122l0.050385,0.036486h0.019112v-0.022586l-0.029536,-0.045173l-0.052123,-0.017374l-0.00695,0.015637l0.019112,0.033011Z M771.854721,344.840172l0.043435,0.001737l0.00695,-0.013899l-0.015637,-0.017374l-0.050385,-0.00695l-0.013899,0.015637l0.029536,0.020849Z M773.992616,347.560102l0.093821,0.117276h0.028667l0.005212,-0.028667l-0.04691,-0.117276l-0.059941,-0.044304l-0.028667,0.005212l0.007818,0.067759Z M776.275585,351.268624l0.062547,0.007818l0.007818,-0.018243l-0.036486,-0.031274l-0.04691,-0.005212l-0.020849,0.015637l0.03388,0.031274Z M776.893238,352.941759l0.013031,0.072972l0.104245,0.101639l0.067759,0.03388l0.007818,-0.020849l-0.03388,-0.065153l0.015637,-0.08079l-0.015637,-0.028667l-0.026061,0.002606l-0.041698,0.049516l-0.026061,-0.005212l0.002606,-0.096427l-0.020849,-0.065153l-0.031274,0.002606l-0.015637,0.099033Z M776.710809,353.32486l-0.005212,0.049516l0.062547,0.096427l0.072972,0.020849l0.083396,-0.031274l-0.010425,-0.031274l-0.059941,-0.028667l-0.049516,-0.091215l-0.052123,-0.013031l-0.041698,0.028667Z M777.995631,353.788751l0.054729,-0.002606l0.052123,-0.023455l0.018243,-0.03388l-0.026061,-0.052123l-0.049516,-0.015637l-0.049516,0.026061l-0.026061,0.075578l0.026061,0.026061Z M778.290123,353.588079l0.04691,0.026061l0.018243,-0.026061l-0.015637,-0.036486l-0.036486,-0.018243l-0.023455,0.013031l0.010425,0.041698Z M778.256244,353.741841l0.015637,0.03388l0.039092,0.013031l0.036486,0.062547l0.028667,-0.013031l-0.031274,-0.101639l-0.054729,-0.059941l-0.020849,0.002606l-0.013031,0.062547Z M778.430854,353.806994l0.044304,0.031274l0.018243,-0.015637l-0.015637,-0.031274l-0.044304,-0.028667l-0.018243,0.010425l0.015637,0.03388Z M778.503826,353.973786l0.062547,-0.005212l0.005212,-0.026061l-0.101639,-0.059941h-0.041698l-0.023455,0.028667l0.018243,0.039092l0.08079,0.023455Z M778.540312,354.070213l0.015637,0.026061l-0.031274,0.026061v0.052123l0.041698,0.028667l0.041698,-0.013031l0.057335,0.039092l0.041698,-0.005212l0.015637,-0.041698l-0.015637,-0.028667l-0.052889,-0.004515l-0.033113,-0.021547l-0.007818,-0.059941l-0.039092,-0.031274l-0.062547,-0.010425l-0.007818,0.018243l0.036486,0.026061Z M778.861734,356.034366l0.045173,0.045173l0.10077,0.041698l0.041698,-0.013899l-0.00695,-0.055597l-0.10772,-0.086871l-0.049971,0.008891l-0.023,0.060606Z M778.048622,354.331695l0.132044,0.059072l0.041698,0.090346l0.055597,0.041698l0.038223,-0.024324l-0.052123,-0.149418l-0.111195,-0.10772l-0.086871,-0.017374l-0.048648,0.031274l0.031274,0.076446Z M777.537821,353.740972l0.135519,0.048648l0.027799,-0.017374l-0.062547,-0.048648l-0.10077,-0.031274l-0.034748,0.010425l0.034748,0.038223Z M777.916578,354.015484h0.069497v-0.024324l-0.059072,-0.027799h-0.034748l-0.013899,0.027799l0.038223,0.024324Z M777.860981,354.10583l0.048648,0.024324l0.024324,-0.024324l-0.027799,-0.048648l-0.038223,-0.013899l-0.013899,0.024324l0.00695,0.038223Z M785.189416,363.102189v0.055597l0.034748,0.045173l0.027799,-0.00695l-0.003475,-0.059072l-0.024324,-0.045173l-0.034748,0.010425Z M785.75929,364.228905l0.044304,0.026061l0.018243,-0.010425l-0.023455,-0.044304l-0.041698,-0.028667l-0.020849,0.013031l0.023455,0.044304Z M785.428311,363.955262l0.039092,0.026061l0.018243,-0.010425l-0.010425,-0.03388l-0.028667,-0.018243l-0.023455,0.005212l0.005212,0.031274Z M785.847898,367.463112l0.026061,-0.026061l-0.005212,-0.028667h-0.018243l-0.020849,0.018243l-0.002606,0.031274l0.020849,0.005212Z M790.504182,374.819346l0.043435,-0.001737l-0.001737,-0.019112l-0.026061,-0.017374l-0.05386,-0.001737l-0.003475,0.019112l0.041698,0.020849Z M790.181891,375.549931l0.072972,0.054729l0.023455,0.007818l0.005212,-0.023455l-0.039092,-0.054729l-0.04691,-0.023455l-0.023455,0.010425l0.007818,0.028667Z M791.969696,376.884269l0.143337,0.039092l0.018243,-0.013031l-0.018243,-0.028667l-0.140731,-0.054729l-0.052123,0.002606l-0.002606,0.023455l0.052123,0.031274Z M792.165156,376.576746l0.03388,0.002606l0.007818,-0.018243l-0.020849,-0.020849l-0.020849,-0.002606l-0.015637,0.018243l0.015637,0.020849Z M792.496134,376.725295l0.007818,0.031274l0.020849,0.002606l0.018243,-0.03388v-0.03388l-0.018243,-0.005212l-0.018243,0.013031l-0.010425,0.026061Z M793.014754,378.208183l0.026061,0.028667l0.020849,-0.007818l0.005212,-0.039092l-0.023455,-0.026061l-0.023455,0.005212l-0.005212,0.039092Z M795.405443,382.540438l0.027799,0.041698l0.024324,-0.013899v-0.041698l-0.020849,-0.027799l-0.024324,0.00695l-0.00695,0.034748Z M793.619376,380.886415l0.059072,0.048648l0.034748,-0.003475l0.00695,-0.041698l-0.024324,-0.083396l-0.048648,-0.024324l-0.048648,0.031274l0.020849,0.072972Z M793.681923,381.296446l0.069497,-0.135519l-0.003475,-0.048648l-0.024324,-0.003475l-0.038223,0.045173l-0.024324,0.128569l0.020849,0.013899Z M794.260483,381.504936l0.028667,0.005212l0.023455,-0.018243v-0.018243l-0.049516,-0.010425l-0.018243,0.007818l0.015637,0.03388Z M796.270678,387.408688l0.059072,0.038223l0.041698,0.097295l-0.048648,0.076446l0.01998,0.032142l0.062547,-0.020849l0.075578,0.031274l0.05386,0.065153l0.024324,0.097295l0.173742,0.152893l0.072972,0.013899l0.055597,0.038223l0.013899,0.041698l0.125094,0.090346l0.090346,0.003475l0.027799,-0.045173l0.104245,-0.010425l0.104245,-0.027799l0.111195,-0.003475l0.128569,0.052123l0.024324,0.072972l-0.034748,0.062547l-0.121619,0.034748l0.00695,0.027799l0.152893,0.013899l0.086871,0.045173l0.059072,0.090346l0.069497,0.027799l0.055597,-0.017374l0.013899,-0.072972l-0.062547,-0.11467l0.003475,-0.138994l0.052123,-0.045173l0.00695,-0.093821l-0.066022,-0.048648l-0.076446,-0.00695l-0.156368,-0.159843l-0.045173,-0.149418l-0.059072,-0.041698l-0.072972,0.010425l-0.069497,0.083396l-0.034748,0.159843l0.024324,0.045173l0.059072,0.013899l0.024324,-0.027799l-0.010425,-0.041698l0.027799,-0.010425l0.052123,0.083396l-0.034748,0.055597l-0.059072,-0.013899l-0.059072,0.034748l-0.059072,-0.020849l-0.024324,-0.079921l-0.090346,-0.031274l-0.069497,0.031274l-0.062547,-0.003475l-0.066022,-0.034748l-0.111195,-0.010425l-0.072972,-0.038223l-0.072972,-0.090346l-0.027799,-0.10772l-0.062547,-0.11467l-0.094689,-0.08079l-0.096427,-0.028667l-0.067759,-0.065153l-0.06081,-0.01998l-0.034748,0.020849l0.020849,0.072972Z M796.844026,387.679725l0.163317,0.052123l0.059072,-0.003475l0.052123,0.027799l0.024324,0.079921l0.034748,0.003475l0.010425,-0.041698l-0.041698,-0.086871l-0.069497,-0.072972l-0.138994,-0.055597l-0.059072,-0.066022l0.013899,-0.038223l0.104245,-0.024324l0.090346,0.020849l0.024324,-0.027799l-0.024324,-0.045173l-0.104245,-0.048648l-0.059072,-0.086871l0.003475,-0.048648l0.027799,-0.013899l0.00695,-0.045173l-0.059072,-0.069497l-0.052123,-0.00695l-0.034748,0.059072l-0.076446,0.086871h-0.104245l-0.076446,0.024324l0.003475,0.072972l0.111195,0.145943l0.048648,0.11467l0.121619,0.093821Z M796.908311,387.058598l0.020849,0.020849l0.023455,-0.007818v-0.052123l-0.036486,-0.036486l-0.067759,-0.028667l-0.091215,-0.083396l-0.132913,-0.03388l-0.015637,0.018243l0.031274,0.026061l0.096427,0.023455l0.099033,0.088608l0.020849,0.044304l0.052123,0.020849Z M796.24896,386.719801l0.054729,-0.020849l-0.005212,-0.023455l-0.072972,-0.013031l-0.036486,0.020849l0.002606,0.03388l0.057335,0.002606Z M796.392297,387.066416l0.04691,0.020849l0.031274,-0.010425l0.013031,-0.049516l-0.031274,-0.04691l-0.041698,-0.010425l-0.031274,0.018243l0.013031,0.078184Z M796.149927,387.668432l0.005212,0.039092l0.04691,0.015637l0.059941,-0.015637l0.005212,-0.03388l-0.044304,-0.026061l-0.072972,0.020849Z M795.886708,387.1446l-0.007818,0.075578l0.072972,0.078184l0.062547,0.005212l0.078184,-0.03388l0.049516,-0.062547l-0.007818,-0.041698l-0.109457,-0.099033l-0.062547,0.002606l-0.075578,0.075578Z M796.136897,387.926439l-0.007818,0.031274l0.075578,0.08079l0.091215,0.03388l0.135519,0.013031l0.083396,0.03388l0.020849,-0.010425l-0.018243,-0.03388l-0.072972,-0.052123l-0.023455,-0.054729l-0.172005,-0.057335l-0.112064,0.015637Z M796.598181,388.220931l0.070365,0.04691l0.049516,0.007818l0.013031,-0.018243l-0.052123,-0.052123l-0.078184,-0.028667l-0.020849,0.013031l0.018243,0.031274Z M797.179348,388.385118l0.072972,0.036486l0.036486,-0.018243l0.039092,-0.143337l-0.049516,-0.03388l-0.070365,0.010425l-0.057335,0.054729l0.005212,0.065153l0.023455,0.028667Z M797.343534,388.710884l0.044304,-0.002606l0.031274,-0.054729l0.007818,-0.062547l-0.044304,-0.023455l-0.067759,0.010425l-0.020849,0.059941l0.049516,0.072972Z M796.832733,388.374693l0.049516,0.015637l0.015637,-0.018243l-0.03388,-0.044304l-0.031274,-0.005212l-0.020849,0.020849l0.020849,0.031274Z M797.085528,388.486757l0.028667,-0.007818l0.023455,-0.026061l-0.013031,-0.018243l-0.049516,0.005212l-0.018243,0.031274l0.028667,0.015637Z M796.806672,389.075742l-0.015637,0.020849v0.039092l0.018243,0.010425l0.028667,-0.020849l-0.002606,-0.036486l-0.028667,-0.013031Z M795.605246,387.553762l0.1277,0.070365l0.067759,-0.005212l-0.002606,-0.049516l-0.145943,-0.224127l-0.059941,-0.041698l-0.031274,0.013031l0.007818,0.158974l0.036486,0.078184Z M795.860647,386.870956l0.03388,-0.002606l0.007818,-0.023455l-0.018243,-0.020849h-0.023455l-0.015637,0.026061l0.015637,0.020849Z M796.84837,386.597313l0.054729,0.031274l0.031274,-0.010425l-0.013031,-0.039092l-0.072972,-0.041698l-0.026061,0.015637l0.026061,0.044304Z M798.67266,387.371333l0.03388,0.005212l0.018243,-0.015637l-0.010425,-0.026061l-0.036486,-0.005212l-0.026061,0.018243l0.020849,0.023455Z M798.800361,387.684069l0.010425,0.036486l0.023455,0.020849l0.020849,-0.007818l-0.002606,-0.028667l-0.028667,-0.028667l-0.023455,0.007818Z M797.145469,387.569399l0.067759,-0.015637h0.083396l0.007818,-0.026061l-0.04691,-0.020849l-0.106851,0.018243l-0.023455,0.031274l0.018243,0.013031Z M797.168924,387.715342l0.028667,0.059941l0.026061,0.007818l0.015637,-0.044304l-0.036486,-0.057335l-0.026061,0.002606l-0.007818,0.031274Z M797.955975,387.879528l0.028667,-0.028667v-0.028667l-0.020849,-0.005212l-0.023455,0.013031l-0.010425,0.041698l0.026061,0.007818Z M798.088887,389.101803l0.078184,0.018243l0.007818,-0.018243l-0.04691,-0.03388l-0.070365,-0.015637l-0.026061,0.015637l0.057335,0.03388Z M799.201705,388.14796l0.031274,-0.023455l0.013031,-0.026061l-0.010425,-0.018243l-0.028667,0.007818l-0.028667,0.049516l0.023455,0.010425Z M789.710182,374.451013l0.03388,0.040829l0.089477,0.039092h0.082527l0.1277,0.039092l0.109457,0.078184l0.265825,0.139862l0.013031,-0.009556l-0.013031,-0.026061l-0.229339,-0.125963l-0.135519,-0.092952l-0.132044,-0.037355l-0.097295,-0.008687l-0.101639,-0.047779l-0.013031,0.011293Z  M800.009605,389.193018l0.104,0.008l0.117,0.073l0.107,0.002l0.352,-0.067l-0.005,-0.034l-0.032,-0.003l-0.015,-0.036l0.015,-0.06l-0.018,-0.063l0.029,-0.148l0.174,-0.12l0.279,-0.029l0.159,0.005l0.042,-0.041l0.042,-0.214l0.041,-0.123l-0.028,-0.122l0.036,-0.047l0.289,0.102l0.042,-0.032l-0.021,-0.156l-0.049,-0.039v-0.063l0.07,-0.086l0.07,-0.005l0.019,-0.042l-0.016,-0.073l0.024,-0.072l-0.042,-0.05h-0.047l-0.037,-0.029l-0.031,-0.086l-0.078,-0.044l-0.094,-0.034l-0.104,-0.104l-0.026,-0.107l0.034,-0.062l0.159,-0.063l0.005,-0.057l-0.042,-0.05l-0.002,-0.193l0.036,-0.008l0.052,0.032l0.084,0.002l0.052,-0.065l-0.042,-0.148l-0.089,-0.042l-0.054,-0.057h-0.032l-0.036,0.026l-0.047,-0.008l-0.021,-0.271l0.034,-0.063l0.091,-0.028l0.071,-0.092l-0.042,-0.12l0.031,-0.093l0.318,-0.146h0.104l0.011,-0.073l-0.37,-0.235v-0.057l0.041,-0.026l0.006,-0.047l-0.058,-0.037l0.006,-0.067l0.083,-0.032v-0.052l-0.037,-0.068l0.204,-0.187l0.198,-0.094l0.041,0.031l0.068,-0.005l0.032,-0.052l0.151,-0.01l0.208,0.067l0.12,0.136l0.052,0.005l0.157,0.136l0.14,0.182l0.256,0.224l0.385,-0.026l0.073,0.073l0.094,0.068l0.271,-0.011l0.224,0.042l0.167,-0.276l0.047,0.047l0.089,-0.058h0.073l0.114,0.146h0.047l0.073,-0.062l0.026,-0.104l0.839,-0.084l0.386,-0.005l0.36,0.109l0.302,-0.109h2.106l0.672,0.386l2.565,0.323l1.021,0.068l1.402,-0.193l0.928,1.282h0.678l1.047,-0.652l0.496,-1.282l2.147,-2.773l3.488,-1.688l6.244,-0.664l4.5,-0.803l11.154,-3.858l2.461,-7.67l-1.688,-2.739l-0.014,-0.023l-0.264,0.306l-9.459,-1.206l-3.688,-4.656v-0.496l-0.053,-0.005l-0.052,0.031l-0.073,-0.01l-0.13,-0.156l-0.151,-0.099l-0.193,-0.042l-0.125,0.042l-0.073,0.093h-0.177l-0.084,-0.062l-0.01,-0.141l0.062,-0.083l0.053,-0.204l0.06,-0.072l0.101,-0.058l0.097,-0.013l0.096,-0.143l0.016,-0.102l0.034,-0.065l0.057,-0.016l0.023,-0.026l0.008,-0.039l0.065,-0.026l0.073,-0.002l0.045,-0.053l-0.019,-0.041l-0.101,-0.026l-0.039,0.018l-0.032,-0.011l0.011,-0.091l-0.055,-0.028l-0.036,0.013l-0.032,-0.006l-0.028,-0.036h-0.021l-0.016,0.01l0.007,0.065l-0.019,0.06l-0.057,0.053l-0.061,0.022l-0.047,0.058l-0.005,0.071l-0.125,0.107l-0.039,0.007l-0.026,-0.012l-0.12,0.023l-0.062,0.031l-0.289,0.038l-0.073,0.042l-0.212,0.024l-0.365,-0.114l-0.256,-0.175l-0.255,-0.503l-0.18,-0.281l-0.069,0.007l-0.066,0.059l-0.032,-0.014v-0.077l-0.052,-0.08l-0.024,-0.17l-0.049,-0.094l-0.021,-0.125l-0.073,-0.083l-0.079,-0.021l-0.042,-0.063l-0.007,-0.121l-0.045,-0.136l-0.098,-0.073l-0.066,-0.153l-0.104,-0.121l-0.031,0.01l-0.004,0.056l0.028,0.052l-0.028,0.014l-0.055,-0.035l-0.011,-0.056l0.021,-0.038l0.004,-0.045l-0.035,-0.052l-0.021,-0.17l0.004,-0.052l0.027,-0.046l-0.003,-0.118l-0.066,-0.062l-0.059,-0.122l-0.004,-0.09l0.021,-0.073l-0.01,-0.177l-0.08,-0.126l-0.004,-0.097l-0.052,-0.121l-0.156,-0.153l-0.104,-0.042l-0.108,-0.118l0.007,-0.059l-0.042,-0.042l-0.049,0.004l-0.02,0.038l0.066,0.076l0.01,0.056l0.066,0.073l0.014,0.062l0.017,0.052l-0.024,0.018l-0.031,-0.025l-0.011,-0.076l-0.024,-0.028l-0.063,-0.028l-0.156,-0.212l-0.052,-0.031l-0.028,-0.048l-0.007,-0.06l-0.031,-0.041l-0.07,-0.025l-0.045,-0.052l-0.024,-0.09l-0.031,-0.045l-0.084,-0.049l-0.048,-0.111l0.021,-0.052l-0.011,-0.07l-0.031,-0.048l-0.031,0.003l-0.018,0.038l-0.042,-0.007l-0.104,-0.09l-0.083,-0.153l0.017,-0.028l0.08,0.032l0.056,0.076l0.142,0.094l0.059,0.017l0.042,0.045l0.028,0.084l0.048,0.094l0.007,0.055h0.028l0.011,-0.055l-0.021,-0.045l0.007,-0.087l-0.025,-0.059l-0.066,-0.028l-0.055,-0.08l0.003,-0.073l-0.048,-0.097l-0.073,-0.021l-0.08,-0.073l-0.24,-0.428l-0.028,-0.107l0.024,-0.073l0.053,-0.021l0.01,-0.028l-0.038,-0.063v-0.072l-0.021,-0.063l-0.056,-0.017l-0.048,0.007l-0.07,-0.021l-0.031,-0.045l-0.083,0.003l-0.06,0.073l-0.041,0.003l-0.028,-0.055l0.007,-0.264l0.038,-0.059l-0.003,-0.045l-0.073,-0.06l-0.004,-0.079l0.132,-0.278l0.049,-0.004l0.08,0.066l0.052,0.174l0.094,0.073l0.059,0.118l0.007,0.104l0.052,0.118l0.042,0.018l0.055,-0.035l0.014,-0.063l-0.021,-0.031l0.004,-0.059l0.024,-0.045l0.028,-0.219l-0.018,-0.038l0.014,-0.077l0.039,-0.007l0.038,0.046l0.042,-0.004l0.069,-0.101l0.01,-0.264l0.021,-0.066l0.007,-0.125l-0.021,-0.111v-0.08l0.049,-0.059l-0.003,-0.09l-0.06,-0.105l-0.048,-0.01l-0.059,0.007l-0.011,-0.035l0.084,-0.181l0.028,-0.121l-0.07,-0.087l-0.049,0.01l-0.038,0.167l-0.09,0.111l-0.035,0.007l-0.035,-0.045l0.007,-0.115l-0.021,-0.041l-0.031,0.014l-0.017,0.097l-0.049,0.038l-0.028,-0.017v-0.07h-0.034l-0.028,0.042h-0.038l-0.084,-0.115l-0.062,-0.173l0.031,-0.025l0.108,0.032l0.052,-0.018l0.021,-0.087l-0.004,-0.055l-0.038,-0.059l-0.073,-0.014l-0.097,0.041l-0.046,-0.007l-0.024,-0.163l0.021,-0.055l-0.007,-0.039h-0.066l-0.031,-0.038l-0.007,-0.188l0.031,-0.111l0.031,-0.007l0.063,0.07l0.052,0.187l0.052,0.021l0.049,-0.048l0.087,-0.004l0.107,0.035l0.091,0.073l0.048,0.08l0.028,0.048l0.028,-0.01l-0.014,-0.056l-0.146,-0.163l-0.17,-0.132l-0.299,-0.372l-0.156,-0.128l-0.108,-0.042l-0.115,0.007l-0.16,-0.042l-0.246,-0.118l-0.191,-0.167l-0.087,-0.038l-0.153,-0.146l-0.007,-0.042l0.042,-0.059l0.027,-0.066l-0.027,-0.021l-0.073,0.021l-0.06,-0.014l-0.055,-0.079l0.001,-0.04l0.131,-0.057l0.079,-0.001l0.067,-0.05l-0.024,-0.053l-0.028,-0.001l-0.045,0.052l-0.191,0.086l-0.07,-0.034l-0.125,-0.177v-0.115l0.035,-0.059l0.003,-0.062l-0.031,-0.004l-0.045,0.042l-0.042,0.003l-0.042,-0.055l-0.069,-0.011l-0.077,0.066l0.011,0.073l0.055,0.084l-0.017,0.028l-0.083,-0.049l-0.063,-0.014l-0.063,0.045l-0.02,0.073l-0.035,0.011l-0.021,-0.07l0.031,-0.073l-0.014,-0.038l-0.034,-0.004l-0.046,0.066l0.004,0.101l-0.024,0.018l-0.063,-0.049l-0.056,0.003l-0.059,-0.048l-0.007,-0.056l0.025,-0.069l0.045,-0.011l0.056,0.042l0.027,-0.017l-0.01,-0.049l0.035,-0.09l-0.028,-0.039l-0.115,-0.01l-0.048,0.035l0.01,0.083l-0.038,0.087l-0.038,-0.004l-0.073,-0.156l0.01,-0.281l-0.021,-0.07l-0.003,-0.146l-0.042,-0.073l-0.073,-0.014l-0.097,0.014l-0.063,0.063l-0.062,0.021l-0.004,-0.035l0.035,-0.031l0.014,-0.084l-0.007,-0.048l0.017,-0.032h0.038l0.042,-0.038l0.004,-0.049l-0.07,-0.055l-0.035,0.003l-0.017,0.066l-0.052,0.028h-0.059l-0.104,-0.087l-0.094,-0.028h-0.063l-0.01,-0.034l0.059,-0.045l0.048,0.006l0.032,-0.003l0.035,-0.038l0.048,0.003l0.024,0.042h0.025l0.038,-0.049l0.056,-0.003l0.073,0.031l0.104,-0.01l0.052,-0.073h0.031l0.021,0.045l-0.021,0.042l0.032,0.01l0.038,-0.045l-0.035,-0.108l-0.129,-0.094l-0.041,-0.083l0.003,-0.087l-0.042,-0.028l-0.072,0.018l-0.056,-0.032l-0.063,-0.107h-0.069l-0.014,0.076l-0.045,0.045l-0.209,-0.003l-0.094,-0.021l-0.031,-0.052l-0.069,-0.035h-0.066l-0.066,-0.024l-0.07,-0.108l-0.062,-0.063l-0.108,-0.013l-0.094,0.079l-0.028,0.105l-0.066,0.024l-0.024,-0.017l0.01,-0.16l0.028,-0.035l-0.014,-0.031l-0.041,0.024l-0.039,0.09l-0.059,0.011l-0.083,-0.052l-0.004,-0.052l0.035,-0.011l0.042,0.032h0.031l0.004,-0.035l-0.077,-0.052l0.007,-0.039l0.052,-0.003l0.011,0.028l0.027,0.007l0.021,-0.028l-0.014,-0.059l-0.031,-0.018l-0.055,0.011l-0.021,-0.024l0.007,-0.049l-0.007,-0.042l-0.032,-0.01l-0.045,0.031l-0.038,-0.014l-0.01,-0.049l0.02,-0.059l-0.003,-0.062l-0.031,-0.014l-0.028,0.028l-0.004,0.062l-0.055,0.035l-0.014,-0.031l0.024,-0.042l0.014,-0.118l0.045,-0.163l0.004,-0.094l0.038,-0.014l0.021,0.028l-0.018,0.177l-0.031,0.035l0.014,0.031l0.035,-0.017l0.031,-0.073l0.011,-0.12l0.057,-0.021l0.042,0.062l-0.037,0.209l-0.047,0.042l0.016,0.036l0.078,-0.042l0.037,-0.083v-0.099l0.041,-0.146l-0.01,-0.073l-0.172,-0.109l-0.063,-0.068l-0.005,-0.057l-0.021,-0.037l-0.083,-0.021l-0.162,-0.187l-0.01,-0.079l0.062,-0.031l0.052,0.005l0.047,-0.041l-0.015,-0.037l-0.266,-0.057l-0.219,-0.151l-0.125,-0.152l-0.047,-0.182l0.026,-0.146l0.037,-0.094v-0.062l-0.126,-0.151l-0.192,-0.162l-0.084,-0.235l0.047,-0.151l0.037,-0.083l-0.011,-0.063l-0.073,-0.062l-0.062,-0.131l0.005,-0.093l-0.021,-0.042l-0.125,-0.057l-0.11,-0.098l-2.689,0.045l0.016,-0.078l-0.193,-0.208l-0.063,-0.141l-0.12,-0.109l-0.052,-0.157v-0.151l0.016,-0.115l-0.031,-0.307l-0.282,-0.37l-0.057,-0.146l-0.131,-0.146l-3.363,-0.407l-0.555,0.193l-6.35,-0.554l-9.726,-7.738l-2.387,-1.074l-3.784,-2.387l-4.478,-0.878l-0.734,0.636l-7.407,2.091l3.669,4.126l-1.246,0.664l-0.604,1.391l-2.766,0.521l-0.917,1.487l-1.597,1.257l-4.133,-0.683l-0.042,0.12l-0.044,0.073l-0.026,0.114l0.031,0.073l-0.018,0.084l-0.076,0.104l-0.07,0.247l-0.047,0.073l-0.052,0.264l-0.039,0.06l-0.019,0.101l0.032,0.094l-0.011,0.073l-0.055,0.115l-0.046,0.279l0.023,0.093l-0.034,0.253l-0.047,0.123l-0.068,0.279l-0.054,0.083l-0.003,0.083l0.055,0.136l-0.003,0.081l-0.013,0.052v0.073l0.052,0.088l-0.005,0.081l-0.042,0.117l-0.065,0.071l-0.067,0.12l-0.021,0.127l-0.092,0.201l-0.018,0.102l-0.138,0.252l-0.039,0.118l-0.013,0.122l-0.036,0.068l-0.037,0.026l-0.008,0.031l0.031,0.065l-0.013,0.024l-0.041,-0.008l-0.021,-0.026l-0.029,0.005l-0.054,0.091l-0.071,0.04l-0.078,0.127l-0.008,0.055l0.037,0.021l0.052,-0.029l0.041,0.005l0.021,0.047l-0.015,0.068l0.002,0.042l0.05,0.052l-0.005,0.047l0.031,0.021l0.065,-0.026l0.031,-0.115l0.045,-0.024l0.013,-0.036l-0.055,-0.052l0.013,-0.047l0.07,-0.039l0.042,-0.063l0.076,-0.026l0.036,0.018l0.021,0.058l0.044,0.026l0.086,0.026l0.076,0.044l0.039,-0.008l0.029,-0.044l0.088,-0.036l0.104,-0.006l0.045,0.011l-0.003,0.029l-0.044,0.033l-0.013,0.06l0.041,0.026l0.079,-0.028l0.156,0.018l0.073,-0.016l0.047,-0.052l0.149,-0.055l0.059,0.006l0.056,0.036l0.016,-0.007l-0.026,-0.066l0.015,-0.012l0.041,0.028l0.036,0.013l0.032,-0.008l0.068,0.024l0.138,0.109l0.057,0.018h0.049l0.055,0.021l0.018,0.031l0.053,0.019l0.104,-0.008l0.078,0.034l0.021,0.034l-0.016,0.028l-0.143,0.039l-0.073,0.052l0.013,0.032l0.128,0.041l0.117,0.084l0.091,0.034l0.044,0.047l0.034,0.096l0.193,0.237l0.068,0.039l0.029,0.063l-0.008,0.101l0.047,0.06l0.148,0.047l0.081,0.05l0.149,0.275v0.097l0.053,0.108l0.118,0.104l0.041,0.098v0.177l0.08,0.208l0.088,0.064l0.042,0.073l0.015,0.096l0.258,0.305l0.204,0.107l0.12,0.107l0.065,0.135l0.167,0.201l0.033,0.096l-0.015,0.045l-0.052,0.041l-0.021,0.136l0.049,0.182l0.386,0.402l0.149,0.107l0.201,0.211l0.004,0.114l0.041,0.042l0.059,-0.003l0.042,0.045l0.031,0.167l0.138,0.26v0.089l0.078,0.099l0.104,0.031l0.063,0.068l0.005,0.068l0.088,0.099l0.115,0.052l0.188,0.292l0.302,0.578l0.016,0.146l0.231,0.435l0.121,0.139l0.108,0.215l0.042,0.208l0.156,0.202l0.175,0.122l0.127,0.034l0.129,-0.014l0.177,0.073l0.063,0.094l0.007,0.143l-0.056,0.26l-0.087,0.143l-0.062,0.048l-0.028,0.049l0.01,0.035l0.08,0.031l0.087,0.143v0.048l0.031,0.028l0.039,-0.003l0.027,0.024l0.025,0.094l0.066,0.059h0.066l0.048,0.035l0.07,0.09l0.038,-0.004l0.018,-0.059l-0.035,-0.1l0.021,-0.025l0.059,0.032l0.18,0.264l0.101,0.076l0.087,0.031l0.07,0.052l0.09,0.153l-0.004,0.059l0.042,0.059l-0.01,0.049l0.027,0.024l0.039,-0.007l0.038,0.042l-0.011,0.136l0.039,0.055l0.066,0.021l0.149,0.136l0.028,0.076v0.097l0.052,0.105l-0.007,0.069l0.024,0.07l0.056,0.048l0.021,0.042l0.003,0.076l0.129,0.157l0.243,0.247l0.077,0.048l0.097,0.191l0.021,0.16l-0.014,0.087l-0.059,0.056v0.097l0.128,0.198v0.139l-0.093,0.146l-0.014,0.09l0.038,0.111l-0.011,0.06l-0.145,0.173l-0.077,0.014l-0.014,-0.024l0.049,-0.031l-0.018,-0.028l-0.073,-0.021l-0.062,0.01l-0.017,0.063l0.062,0.125l0.083,0.024l0.049,-0.024l0.038,0.014l0.011,0.069l-0.028,0.046l0.021,0.159l0.055,0.059l0.178,0.101l0.073,0.091l0.041,0.104l0.028,0.014l0.031,-0.021l0.028,0.014l0.014,0.087l0.111,0.226l0.23,0.25l0.062,0.187l-0.014,0.063l-0.083,0.049l-0.014,0.09l0.118,0.139l0.146,0.243l0.271,0.111l0.139,0.014l0.049,-0.069l-0.007,-0.098l0.09,-0.034l0.188,0.062l0.236,0.153l0.097,0.188l0.271,0.187l0.237,0.028l0.201,0.104l0.188,0.146l0.125,0.07l0.118,0.021l0.236,0.167l0.125,0.187l0.139,0.097h0.112l0.111,0.063l0.09,0.104l0.243,0.209l0.028,0.076l0.07,0.063l0.083,0.014l0.111,0.153l0.014,0.159l0.292,0.556v0.16l0.104,0.08l0.059,-0.021l-0.007,-0.028l-0.066,-0.024l-0.02,-0.062l0.041,-0.035l0.091,-0.004l0.031,0.032l0.007,0.083l0.104,0.144l0.111,0.443l-0.007,0.101l0.105,0.275l0.041,0.034l0.032,0.066v0.073l0.118,0.216l0.083,0.059l0.031,-0.018l0.004,-0.045h0.035l0.048,0.101l0.042,0.33l-0.017,0.115l-0.042,0.055l0.003,0.07l0.106,0.14l0.24,0.055l0.11,0.08l0.19,0.329l-0.003,0.073l-0.036,0.005l-0.11,-0.052l-0.148,-0.25l-0.094,-0.06l-0.029,0.013l0.021,0.065l0.219,0.352l0.068,0.041l0.135,0.219l0.11,0.029l0.021,0.034l-0.019,0.044l-0.036,0.003l-0.008,0.039l0.112,0.141l0.031,0.088l0.006,0.07l0.066,0.13l0.101,0.115l0.025,0.118l-0.018,0.135l0.007,0.115l0.031,0.076l-0.004,0.091l-0.047,0.167l0.013,0.057l0.076,0.068l0.07,-0.037l0.024,-0.068l0.028,-0.007l0.021,0.044l-0.031,0.086l-0.081,0.052l-0.047,0.156l-0.008,0.133l-0.065,0.146l-0.12,0.125l-0.034,0.115l-0.002,0.146l-0.05,0.128l-0.008,0.07l0.027,0.005l0.026,-0.086l0.052,-0.117h0.021l0.007,0.081l-0.041,0.112v0.081l0.018,0.033l-0.018,0.029l-0.068,-0.026l-0.039,0.029l-0.029,0.114l0.018,0.066l-0.026,0.075l-0.052,0.037l-0.061,-0.025l-0.021,-0.059l0.052,-0.108l-0.024,-0.03h-0.068l-0.081,0.068l-0.021,0.081l0.057,0.138l0.029,0.083l-0.018,0.081l0.021,0.089l0.094,0.182l0.096,0.089l0.156,0.286l0.115,0.188l0.083,0.292l-0.015,0.266l0.057,0.119l0.106,0.071l0.067,0.14l-0.011,0.16l0.047,0.151l-0.026,0.13l-0.214,0.141l-0.016,0.114l0.209,0.313l0.031,0.125l-0.01,0.089l0.099,0.229l0.177,0.141l0.114,0.208l0.006,0.172l0.166,0.183l0.105,0.026l0.062,0.083l0.016,0.105l0.083,0.099l0.105,0.046l0.057,0.073l0.002,0.115l0.066,0.11l0.146,0.13l0.312,0.485l0.037,0.151l0.109,0.12l0.084,0.036l0.062,0.078l0.068,0.172l0.285,0.287l0.267,0.153l0.341,0.24l0.094,0.038l0.028,-0.011l-0.021,-0.048l-0.084,-0.052l0.011,-0.032l0.087,0.007l0.104,0.063l0.059,0.059l0.045,0.007l0.056,-0.052l0.16,-0.031l0.156,0.045l0.059,0.052l0.066,0.118l0.122,0.142l0.052,0.014l0.055,-0.017l0.115,0.007l0.035,0.024l0.01,0.07l-0.015,0.041l0.013,0.036l0.063,0.037l0.102,0.138l0.179,0.093l0.092,0.008l0.19,0.102l0.078,0.096l0.243,0.159l0.091,0.019l0.083,0.078l0.029,0.112l-0.039,0.094l0.018,0.034l0.06,0.02l0.039,0.034l0.047,0.12l0.002,0.055l0.047,0.06l0.047,0.008l0.034,0.031l0.058,0.13l0.112,0.104l0.015,-0.007l-0.028,-0.052l-0.068,-0.063l-0.011,-0.039l0.032,-0.016l0.062,0.039l0.089,0.003l0.088,-0.039l0.073,0.008l0.12,0.112l0.102,0.174l0.034,0.193l0.023,0.237l-0.023,0.013l-0.042,-0.023l-0.021,0.016l0.029,0.065l0.268,0.195l0.162,0.018l0.122,0.081l0.073,0.128l-0.031,0.232l0.068,0.271l0.151,0.12l0.136,0.276v0.287l0.093,0.167l0.146,0.099l0.136,0.041l0.057,0.089v0.141l-0.083,0.213l0.005,0.157l0.135,0.25l0.172,0.073l0.047,0.099l-0.083,0.318l0.01,0.161l0.183,0.365l0.115,0.089l0.192,0.021l0.245,0.234l0.021,0.125l0.104,0.198v0.198l0.034,0.133l0.068,0.076l0.008,0.049l-0.013,0.047l0.029,0.037l0.073,0.039l0.015,0.065l-0.06,0.097l0.024,0.02l0.057,-0.02l0.057,0.036l0.18,0.305l0.029,0.206l0.091,0.117l0.112,0.044l0.034,0.05l-0.037,0.141l0.011,0.049l0.039,0.005l0.031,-0.054l0.029,0.007l0.036,0.165l0.118,0.127l0.268,0.243l0.003,0.031l-0.021,0.026l0.013,0.026l0.096,0.021l0.11,0.068l0.141,0.044l0.104,0.081l0.104,0.117l0.28,0.195l0.08,0.031l0.066,0.049l0.024,0.062l0.028,0.024l0.062,0.014l0.223,0.198l0.021,0.105l0.052,0.045l0.107,0.049l0.261,0.246l0.056,0.118l0.034,0.021l0.07,-0.003l0.062,0.041l0.042,0.091l-0.014,0.139l-0.031,0.066l0.003,0.101l0.046,0.034l0.01,0.052l-0.052,0.105l0.017,0.027l0.045,-0.024l0.028,0.024v0.167l0.021,0.129l0.056,0.281l0.031,0.376h0.024l0.018,-0.07l-0.018,-0.219l0.052,-0.052v-0.056l-0.034,-0.097l-0.056,-0.062l0.011,-0.028l0.079,0.014l0.091,0.073l0.017,0.066l-0.021,0.045l0.011,0.076l0.121,0.184l0.091,0.06l0.114,0.017l0.165,0.158l0.014,0.038l-0.042,0.073v0.077l0.037,0.064v0.083l-0.024,0.066l0.014,0.066l0.139,0.143l0.16,0.066l0.149,0.135l0.153,0.275l0.045,0.135l0.052,0.028l0.004,0.045l-0.07,0.258l0.014,0.09l0.045,0.09l0.031,0.118l0.108,0.112l0.035,0.097l-0.038,0.125l0.014,0.099z"/>
</svg>
