<svg xmlns="http://www.w3.org/2000/svg" viewBox="812.756 468.749 37.331 19.979">
  <path d="M850.052,477.011l0.035-0.149l-0.026-0.033l-0.05,0.042l-0.092,0.261l0.019,0.019L850.052,477.011z M840.408,471.714l0.016-0.04l-0.038-0.005l-0.056,0.04l-0.045,0.007l-0.038,0.028l0.002,0.042l0.052,0.005l0.028-0.043L840.408,471.714z M846.739,472.352v-0.036l0.019-0.009l0.021,0.028l0.002,0.028l-0.016,0.012L846.739,472.352z M838.985,471.99l0.038-0.007l0.026,0.043l-0.016,0.04h-0.019l-0.035-0.028L838.985,471.99z M838.975,471.936l0.019-0.019h0.045l0.014,0.016l-0.024,0.021l-0.047,0.012L838.975,471.936z M839.228,470.784l0.004,0.032l-0.033,0.029l-0.017-0.004l0.015-0.035l-0.019-0.017l-0.025-0.007l0.015-0.014L839.228,470.784z M838.958,470.757l-0.013-0.031l0.047-0.023l0.029,0.013l-0.018,0.036L838.958,470.757z M839.021,469.607l0.031-0.005l0.012,0.026l-0.023,0.031l-0.031-0.029L839.021,469.607z M837.997,472.419l0.022,0.008l-0.011,0.024l-0.017-0.003l-0.007-0.018L837.997,472.419z M838.731,471.547l0.028-0.016l0.017,0.028l-0.023,0.024l-0.028-0.01L838.731,471.547z M838.41,473.484l0.021-0.007l0.014,0.03l-0.017,0.031l-0.028-0.014L838.41,473.484z M838.057,473.691l0.024,0.019l-0.019,0.026l-0.026-0.003l-0.012-0.024L838.057,473.691z M836.871,476.488l-0.019-0.017l0.003-0.033l0.028-0.007l0.026,0.021v0.021L836.871,476.488z M836.905,476.68l0.034,0.005l0.008,0.034l-0.023,0.016l-0.031-0.026L836.905,476.68z M836.925,476.991l0.023,0.008l0.025-0.019l0.004,0.012l-0.017,0.025l-0.038,0.019l-0.023-0.015l-0.012-0.036l0.012-0.036l0.021,0.007L836.925,476.991z M837.267,473.186l0.012-0.014l0.016,0.002l0.002,0.021l-0.014,0.003L837.267,473.186z M839.302,468.786l-0.016-0.021l0.021-0.016l0.023,0.013l-0.003,0.018L839.302,468.786z M813.843,486.908l0.049-0.047l-0.018-0.065l0.026-0.029l0.034,0.029l0.008,0.12l-0.06,0.083l-0.073-0.008l-0.021-0.039l0.016-0.026L813.843,486.908z M813.655,485.623l0.008-0.029l0.136,0.018l0.12,0.063l0.008,0.104l-0.07,0.073l-0.201,0.047l-0.138-0.034l-0.297,0.086l-0.117,0.083l-0.18,0.003l-0.089-0.052l-0.068-0.216l0.026-0.018l0.135,0.154l0.146,0.013l0.357-0.099l0.109-0.008l0.036-0.042l0.044-0.016l0.143,0.029l0.01-0.018l-0.068-0.104L813.655,485.623z M812.756,485.683v-0.057l0.052-0.049l0.065-0.003l0.029,0.034l-0.026,0.039l-0.073,0.044L812.756,485.683z M812.952,485.61l-0.016-0.018l0.034-0.029l0.133-0.002l0.146,0.013l0.25-0.01l0.099,0.031l0.003,0.023l-0.078,0.026l-0.276-0.023l-0.063,0.01l-0.112-0.008l-0.029-0.021l-0.052-0.003L812.952,485.61z M818.268,488.258l0.008-0.049l0.07-0.089l0.036-0.003l0.044,0.057l-0.003,0.073l-0.044,0.06l-0.083-0.008L818.268,488.258z M817.484,486.885l0.01-0.065l0.042-0.023l0.026,0.008l-0.01,0.036l-0.044,0.055L817.484,486.885z M817.729,487.052l0.018-0.008l0.073-0.005l-0.008,0.018l-0.06,0.008L817.729,487.052z M817.955,487.018l0.007-0.016l0.033-0.009l0.014-0.026l0.009-0.04l0.01-0.003l0.012,0.035l-0.03,0.049l-0.035,0.023L817.955,487.018z M818.039,486.875l-0.009-0.03l0.01-0.012l0.012,0.017l0.003,0.012l-0.003,0.021L818.039,486.875z M829.402,485.42l0.01-0.023l0.029-0.01l0.029,0.021l-0.005,0.023l-0.034,0.01L829.402,485.42z M830.54,485.097l-0.026-0.078l0.01-0.05l0.026-0.021l0.016,0.039l-0.003,0.089L830.54,485.097z M830.353,486.238l0.013-0.068l-0.01-0.06l0.021-0.049l0.023-0.008l-0.013,0.078l0.021,0.055l-0.023,0.044L830.353,486.238z M830.553,488.521l0.016-0.019h0.021l0.005,0.019l-0.021,0.012L830.553,488.521z M830.88,488.717l0.01-0.026l0.026,0.002l0.002,0.026l-0.023,0.009L830.88,488.717z M830.991,488.64l-0.023-0.017l0.007-0.033l0.059-0.083l0.026-0.076l0.026-0.045l0.002-0.049l-0.019-0.024l-0.021-0.003l-0.031,0.024L831,488.329l0.023-0.038l0.036-0.017l0.035,0.014l0.024,0.05l-0.007,0.082l-0.026,0.023l-0.005,0.042l-0.049,0.106L830.991,488.64z"/>
</svg>
