<svg xmlns="http://www.w3.org/2000/svg" viewBox="722.266 366.806 62.185 48.520">
  <path d="M779.637,372.151l0.038,0.028l-0.042,0.208l-0.042,0.097l-0.049-0.003l-0.021-0.049l0.007-0.191l0.056-0.08L779.637,372.151L779.637,372.151z M782.281,380.146l0.066,0.024l0.073-0.003l0.007-0.028l-0.035-0.038l-0.101-0.007l-0.024,0.021L782.281,380.146L782.281,380.146z M782.896,379.955l0.035,0.028l0.028-0.007l0.003-0.049l-0.021-0.031h-0.042l-0.014,0.028L782.896,379.955L782.896,379.955z M783.601,382.206l0.086,0.031l0.016-0.021l-0.063-0.063l-0.049-0.016l-0.021,0.021L783.601,382.206L783.601,382.206z M783.453,382.269l0.076,0.023l0.049-0.005l0.008-0.021l-0.036-0.031l-0.089-0.01l-0.023,0.018L783.453,382.269L783.453,382.269z M783.893,382.378l-0.012,0.015l0.028,0.04l0.005,0.031l-0.018,0.042l0.018,0.01l0.042-0.05h0.039l0.044,0.034l0.029,0.043l0.015,0.007l0.003-0.007l-0.039-0.08l-0.06-0.036l0.008-0.023l0.03,0.004l0.019-0.017l-0.016-0.036l-0.031-0.014l-0.017,0.009l-0.005,0.023l-0.026,0.021L783.893,382.378L783.893,382.378z M730.422,377.318v-1.935h3.684v-7.717h23.483l0.017-0.154l0.136-0.344l0.215-0.261l0.156-0.101l0.084,0.011l0.058,0.105l-0.009,0.084l-0.08,0.082l-0.181,0.285l-0.101,0.293h20.302l-0.031,0.068l-0.003,0.06l0.039,0.073l-0.003,0.063l-0.026,0.075l0.006,0.219l0.031,0.081l-0.003,0.088l-0.021,0.086l0.013,0.123l0.04,0.109l0.018,0.324l0.031,0.065l0.031,0.143l0.052,0.065l0.115,0.232l-0.002,0.042l-0.029,0.075l0.016,0.019l0.028-0.026l0.039,0.007l0.097,0.199l0.12,0.199l0.344,0.459l0.257,0.222l0.271,0.324l0.08,0.156l0.066,0.09v0.091l-0.07,0.083l-0.104,0.021l-0.021,0.038l-0.031,0.004l-0.16-0.296v-0.055l0.035-0.011l0.048,0.052l0.025,0.077l0.135,0.059l0.014-0.028l-0.042-0.066l-0.055-0.021l-0.056-0.125l-0.003-0.076l-0.063-0.039l-0.045,0.018l-0.035-0.021l0.004-0.059l-0.038-0.007l-0.032,0.049l-0.038-0.007l-0.017-0.07l0.024-0.132l-0.052-0.069l-0.073-0.035l-0.073,0.031l-0.066,0.115l0.017,0.111l0.059,0.031l0.028,0.077l-0.014,0.097l0.025,0.076l-0.032,0.059l-0.069-0.006l-0.035,0.045l0.014,0.114l0.146,0.205l0.111,0.348l0.014,0.354l0.038,0.108l0.007,0.181l-0.01,0.125l0.041,0.114l0.066,0.039l0.018,0.052l-0.004,0.087l0.056,0.17l0.035,0.045l0.01,0.125l-0.024,0.104l-0.004,0.073l0.018,0.066l-0.025,0.025l-0.114-0.018l-0.032,0.035l0.004,0.077l0.038,0.048l0.004,0.098l-0.042,0.083v0.236l0.045,0.125l0.004,0.125l-0.011,0.084l0.042,0.396l0.024,0.104l-0.014,0.125l-0.097,0.105l-0.003,0.055l0.072,0.278l0.223,0.417l0.007,0.372l-0.104,0.328l-0.011,0.23l0.058,0.239l0.145,0.204l0.136,0.755l0.021,0.407l0.042,0.167l0.057,0.094l0.151,0.458v0.198l0.042,0.073l0.015,0.079l0.006,0.119l0.067,0.157l0.323,0.391l0.193,0.083l0.297-0.052l0.193,0.057l0.068-0.005l0.083,0.047l0.131,0.235l0.125,0.088l0.333,0.12l0.204,0.146l0.182,0.24l0.172,0.146l0.209,0.104l0.005,0.047l-0.104,0.083l-0.011,0.177l0.073,0.214l0.24,0.177l0.208,0.032l0.086-0.034l0.019-0.052l-0.029-0.076l0.034-0.047l0.122-0.005l0.063,0.042l-0.005,0.026l-0.086-0.026l-0.058,0.005l-0.015,0.023l0.028,0.068l-0.023,0.07l0.026,0.073l0.248,0.141l0.099-0.013l0.013-0.031l-0.032-0.034l0.024-0.026l0.057,0.008l0.063,0.052l0.007,0.164l0.053,0.096l0.062,0.027l0.094-0.034l0.081,0.039l-0.003,0.036l-0.039,0.013l0.003,0.037l0.078,0.096l0.073,0.003l0.034-0.078l-0.026-0.053l0.028-0.018l0.107,0.065l0.06,0.115l0.047,0.123l-0.457,0.442l-0.226,0.55l-0.021,0.099l-0.125,0.256l-0.062,0.047l-0.183,0.057l-0.073,0.162l-0.026,0.109l-0.078,0.042l-0.135-0.021l-0.105-0.078l-0.182,0.031l-0.084,0.073v0.104l-0.046,0.021l-0.105-0.161l-0.062-0.006l-0.021,0.042l-0.042,0.011l-0.062-0.027l-0.052,0.011l-0.084,0.167l-0.005,0.099l-0.11,0.062l-0.229,0.073l-0.062-0.047l-0.037-0.146l-0.125-0.026l-0.115,0.026l-0.047,0.073l0.016,0.068l-0.052,0.24l-0.078,0.062l-0.48,0.032l-0.37,0.12l-0.042,0.104l-0.005,0.083l0.047,0.052v0.052l-0.073,0.063l-0.01,0.089l0.041,0.057v0.047l-0.078,0.057l-0.078,0.177l-0.01,0.068l-0.084,0.073l-0.057,0.011l-0.047,0.062l-0.01,0.073l-0.058,0.021l-0.12-0.026l-0.099-0.11l-0.093-0.01l-0.073,0.026l-0.225,0.016l-0.073,0.052l-0.166-0.014l-0.087-0.052l-0.097-0.014l-0.06,0.031l-0.076-0.003l-0.142-0.077l-0.06,0.004l-0.1,0.114l-0.004,0.101l0.063,0.08l0.01,0.08l-0.059,0.132l-0.014,0.129l0.056,0.08l0.014,0.121l0.041,0.073l0.004,0.052l-0.056,0.07l0.007,0.194l-0.035,0.132l-0.09,0.125l-0.146,0.035l-0.118,0.084l-0.056,0.163l0.018,0.122l-0.045,0.173l-0.07,0.07l-0.003,0.08l0.094,0.066l0.031,0.059l-0.007,0.128l0.054,0.039l0.095-0.018l0.101,0.056l0.021,0.094l-0.04,0.107l-0.057,0.073l-0.006,0.157l0.047,0.052l-0.007,0.083l-0.17,0.174l-0.507,1.539l-0.23,0.372l-0.274,0.883l0.017,0.052l-0.003,0.073l-0.073,0.101l-0.296,0.827l-0.121,0.031l-0.254,0.208l0.087,0.518l0.242,2.634l0.092,0.282l0.052,0.031l-0.355,1.053l0.105,0.545l-0.091,0.177l-0.073,0.066l-0.158,0.426l-0.078,0.448l-0.401,0.662l-0.407,1.314l-0.036,0.031l-0.011,0.172l-0.042,0.068v0.083l0.053,0.068l0.062,0.026l-0.068,0.771l-0.114,0.037l-0.094-0.021l-0.047-0.062l-0.25-0.047h-0.099l-0.782,0.208l-0.042-0.015l-0.047,0.01l-0.015,0.036h-0.047l-0.063-0.046l-0.104,0.005l-0.136,0.114l-1.303,2.236l-0.151,0.381l-0.703,0.521l-0.136,0.219l0.007,0.111l0.118,0.292l-0.021,0.396l-0.111,0.216l-0.007,0.229l-0.215,0.306l-0.07,0.201l-0.08,0.049l-0.014,0.052l-0.045,0.028v0.031l0.12,0.038l0.13,0.172l-0.166,0.887l0.121,0.158l-0.003,0.059l-0.171,0.087l-0.26,0.225l-0.011,0.16l0.046,0.018l0.003,0.031l-0.083,0.104l-0.059,0.042h-0.035l-0.052-0.049h-0.045l-0.056,0.056l-0.049,0.007l-0.014-0.028l0.056-0.049l0.01-0.076l-0.038-0.028l-0.073,0.004l-0.215-0.251l-0.372-0.316l-0.507,0.344l-0.278,0.508l-0.344,0.359l-0.058,0.193l0.089,0.297l-0.037,0.198l0.157,0.433l0.021,0.208l-0.042,0.266l-0.021,0.042l-0.005,0.047l0.021,0.041l-0.365,0.271l-0.068,0.454l0.026,0.146l-0.229,0.469l-0.219,0.771l0.018,0.198h-0.842l0.058-0.677l0.078-0.308l0.099-0.036l0.089-0.146l0.026-0.25l0.067-0.167v-0.167l0.032-0.156l-0.026-0.198l-0.084-0.099l-0.021-0.11l0.021-0.047l-0.031-0.052l-0.209-0.088l-0.385-0.621l-0.495-0.385l-0.563-0.756l-1.012-0.506l0.1-0.182l-0.506-2.997l0.177-0.469l0.282-1.522l-0.021-0.063l0.052-0.088l0.088-0.032l0.011-0.052l-2.075-0.062v0.052l0.042,0.078l-0.015,0.198l0.057,0.318l-0.005,0.104l0.026,0.11l-0.016,0.12l-0.057,0.093h-2.388l1.085,0.923v1.975l0.292,0.511l-0.214,0.162l-0.98,0.98l-0.6,0.333l-0.552,1.027l-0.214,0.318l-0.172,0.13l-1.36,1.632l-0.104,0.094l-0.099,0.073l-0.125,0.046l-0.376,0.037h-1.251l0.021,0.089l-0.036,0.046l-1.131-0.922l-1.96-1.225h-0.214l-1.501,0.777v1.235h-1.532l-0.266,0.052l-0.104,0.094l-0.106,0.181v-1.821h-4.323v1.383l0.264,0.674l-0.361,0.028l-1.126-0.07l-1.349-0.007l-0.437,0.084l-0.994,0.403l-0.236,0.014l-0.695-0.16l-0.494-0.146l-0.153-0.125l-0.097-0.153l-0.334-1.001l-0.382-0.327l-0.229-0.389l-0.216-0.187l-0.222-0.07v-0.737l-0.061-0.014l-0.031-0.072l-0.052-0.021l-0.099,0.021l-0.084-0.027l-0.067-0.052l-0.172-0.026l-0.126,0.011l-0.057,0.047l-0.182,0.031l-0.052-0.068l-0.063,0.005l-0.021,0.068l-0.297,0.011l-0.208,0.041l-0.058,0.047h-0.109l-0.084-0.026l-0.338,0.026l-0.12,0.078l-0.157,0.047l-0.093-0.005l-0.11-0.031l-0.115,0.041l-0.052,0.063l-0.078,0.005l-0.062-0.01l-0.053,0.026l0.006,0.047l-0.037,0.021l-0.062-0.021l-0.063,0.031l-0.068,0.146l-0.047,0.261l-0.047,0.083l0.037,0.063l0.068,0.026l0.057,0.151l-0.016,0.073l-0.099,0.052l-0.036,0.083l0.026,0.068l-0.026,0.068l-0.068,0.036l-0.026,0.047l0.016,0.052l-0.032,0.042l-0.062,0.01l-0.052,0.12l0.005,0.094l-0.036,0.031l-0.063,0.011l-0.172,0.151l-0.182,0.115l-0.126,0.02l-0.041,0.027l0.005,0.046l-0.052,0.027l-0.151-0.037l-0.105-0.089l-0.067-0.005l-0.063,0.047l-0.13,0.052l-0.157-0.01l-0.088-0.037l-0.089-0.005l-0.047,0.037l-0.062,0.005l-0.078-0.099l-0.105-0.011l-0.094,0.042l-0.088,0.01l-0.057,0.037l-0.037,0.057l-0.088,0.026l-0.084-0.01l-0.068-0.031l-0.083-0.006l-0.141,0.058l-0.177,0.01l-0.063,0.037l-0.062,0.094l-0.073,0.041l-0.104,0.016l-0.11-0.026l-0.062,0.047l-0.011,0.073l0.005,0.067l-0.046,0.084l-0.094,0.021l-0.12-0.042h-1.298l-0.09-0.829l-1.404-2.224l-0.106-0.074l-0.25-0.24l-0.089-0.047l-0.057-0.052l-0.052-0.099l-0.329-0.25l-0.141-0.037l-0.067-0.052l-0.089-0.261l-0.255-0.359l-0.12-0.105l-0.011-0.109l0.029-0.003l0.203-0.643l0.201-0.414l-0.035-0.337l-0.177-0.045l0.045-0.414l-0.431,0.032l-0.153,0.048l-0.007-0.146l-0.093-0.121l-0.383-0.15l-0.173-0.177l-0.181-0.253l-0.024-0.275l0.121-0.636l0.167-0.664l0.031-0.08l-0.027-0.017l-0.032,0.011l-0.021,0.045l-0.118,0.021l-0.1,0.003l-0.066-0.021l-0.07,0.021l-0.045,0.066l-0.08,0.014l-0.049-0.021l-0.007-0.052l0.025-0.045l0.007-0.129l0.031-0.073l0.003-0.191l-0.08-0.278l-0.093-0.177l-0.073-0.278l0.017-0.045v-0.052l-0.122-0.146l-0.048-0.004l-0.039-0.031l0.004-0.056l0.042-0.034l0.021-0.042l-0.004-0.038l0.094-0.101l0.073-0.024l0.017-0.035l-0.021-0.045l0.004-0.039l0.035-0.031l0.111-0.292l-0.549-0.187l-0.473-0.285l0.005,0.168l-0.178,0.159l-0.769,0.149l-0.031-0.018l-0.002-0.037l-0.063-0.081l-0.094-0.047l-0.031-0.044l0.003-0.047l-0.04-0.057l-0.054-0.037l-0.026-0.065l0.026-0.075l-0.026-0.045l-0.058-0.013l-0.091-0.099l0.008-0.052l0.091-0.039l0.039-0.055v-0.114l0.021-0.063l0.065-0.099l0.016-0.112l0.068-0.154l0.096-0.094l0.021-0.052l-0.018-0.065l0.015-0.052l0.071-0.047l0.062-0.005l0.06-0.042l0.016-0.049l0.07-0.076l0.013-0.073l0.037-0.031l0.101,0.01l0.084-0.013l0.068-0.07l0.07-0.013l0.044,0.01l0.084-0.028l0.049-0.089l0.107-0.117l0.003-0.071l0.02-0.034l0.071-0.028l0.109-0.138l0.052-0.013l0.021-0.021l0.003-0.039l0.104-0.092l0.029-0.075l-0.011-0.081l-0.086-0.091l-0.06-0.013l-0.031-0.044l0.011-0.045l-0.024-0.052l-0.036-0.018l-0.029-0.06l0.005-0.115l-0.018-0.052l0.01-0.081l-0.005-0.091l-0.083-0.101l-0.06-0.027l-0.029-0.026l-0.029-0.06l-0.044-0.02l-0.029-0.039l0.006-0.047l-0.021-0.039l-0.071-0.071v-0.068l0.042-0.047l0.005-0.049l-0.028-0.083l-0.144-0.126l-0.028-0.002l-0.021-0.018l0.503-0.548v-0.034l0.018-0.015l0.026-0.003l0.013-0.018l-0.021-0.044l0.006-0.032l0.143-0.005l0.018-0.026l0.047-0.021l0.081-0.005l0.104-0.141l0.138-0.041l0.125-0.123l0.175-0.002l0.169-0.193l0.191-0.039l0.135-0.279l-0.089-0.081l-0.002-0.039l0.023-0.026v-0.029l-0.198-0.052h-0.07l-0.029,0.029l-0.039-0.008l-0.143-0.196v-0.062l0.028-0.037l0.042-0.007l0.05-0.05v-0.057l-0.047-0.073l-0.037-0.144l0.026-0.292l-0.067-0.062l-0.115-0.063l-0.018,0.034l-0.031-0.003l0.104-0.351l0.122-0.024l0.08-0.077l0.125-0.042l0.313-0.034l0.5-0.181l-0.007-0.111l-0.151-0.48l0.037-0.104l0.135-0.068l0.089,0.011l0.041-0.032l0.011-0.062l-0.037-0.094l0.021-0.089l0.12-0.104l0.057-0.104l0.068-0.052l0.13-0.068l0.027-0.078l0.088-0.058l0.136-0.005l0.062-0.041l0.016-0.079l-0.042-0.099l0.016-0.062l0.088-0.047l0.073-0.063l0.026-0.067l0.063-0.047l0.005-0.058l-0.062-0.073l-0.006-0.083l0.068-0.109l0.005-0.068l-0.036-0.058l-0.026-0.213l-0.068-0.141l-0.146-0.12l-0.036-0.099l0.021-0.193l0.052-0.088l0.187-0.068l0.141-0.13l0.057-0.105l0.198-0.203l0.12-0.078l0.24,0.01l0.115,0.032l0.182,0.02l0.125,0.042l0.115,0.011l0.302-0.042l0.058-0.063l0.182-0.094l0.453-0.093l0.298,0.015l0.145,0.047l0.084,0.011l0.083-0.021l0.329,0.047l0.193,0.062l0.198,0.026l0.152,0.053v-14.586L730.422,377.318z"/>
</svg>
