<svg xmlns="http://www.w3.org/2000/svg" viewBox="722.266 366.806 62.185 48.520">
  <path d="M779.637,372.151l0.038,0.028l-0.042,0.208l-0.042,0.097l-0.049,-0.003l-0.021,-0.049l0.007,-0.191l0.056,-0.08l0.052,-0.01Z M782.281,380.146l0.066,0.024l0.073,-0.003l0.007,-0.028l-0.035,-0.038l-0.101,-0.007l-0.024,0.021l0.014,0.031Z M782.896,379.955l0.035,0.028l0.028,-0.007l0.003,-0.049l-0.021,-0.031h-0.042l-0.014,0.028l0.01,0.031Z M783.601,382.206l0.086,0.031l0.016,-0.021l-0.063,-0.063l-0.05,-0.016l-0.021,0.021l0.031,0.047Z M783.453,382.269l0.076,0.023l0.05,-0.005l0.008,-0.021l-0.036,-0.031l-0.089,-0.01l-0.023,0.018l0.016,0.026Z M783.893,382.378l-0.012,0.015l0.028,0.04l0.005,0.031l-0.018,0.042l0.018,0.01l0.042,-0.05h0.039l0.044,0.034l0.029,0.043l0.015,0.007l0.003,-0.007l-0.039,-0.08l-0.06,-0.036l0.008,-0.023l0.03,0.004l0.019,-0.017l-0.016,-0.036l-0.031,-0.014l-0.017,0.009l-0.005,0.023l-0.026,0.021l-0.056,-0.015Z  M748.923,414.638l0.106,-0.181l0.104,-0.094l0.266,-0.052h1.532v-1.235l1.501,-0.777h0.214l1.96,1.225l1.131,0.922l0.036,-0.046l-0.021,-0.089h1.251l0.376,-0.037l0.125,-0.047l0.099,-0.072l0.104,-0.094l1.36,-1.632l0.172,-0.13l0.214,-0.318l0.553,-1.027l0.599,-0.333l0.98,-0.98l0.214,-0.162l-0.292,-0.511v-1.975l-1.084,-0.923h2.387l0.057,-0.094l0.016,-0.119l-0.026,-0.11l0.005,-0.104l-0.057,-0.318l0.015,-0.198l-0.042,-0.078v-0.052l2.075,0.062l-0.011,0.052l-0.088,0.032l-0.052,0.088l0.021,0.063l-0.282,1.522l-0.177,0.469l0.506,2.997l-0.1,0.182l1.012,0.506l0.563,0.756l0.495,0.385l0.385,0.621l0.209,0.088l0.031,0.052l-0.021,0.047l0.021,0.11l0.084,0.099l0.026,0.198l-0.032,0.156v0.167l-0.067,0.167l-0.026,0.25l-0.089,0.146l-0.099,0.036l-0.078,0.308l-0.058,0.677h0.842l-0.018,-0.198l0.219,-0.771l0.229,-0.469l-0.026,-0.146l0.068,-0.454l0.365,-0.271l-0.021,-0.041l0.005,-0.047l0.021,-0.042l0.042,-0.266l-0.021,-0.208l-0.157,-0.433l0.037,-0.198l-0.089,-0.297l0.058,-0.193l0.344,-0.359l0.278,-0.508l0.507,-0.344l0.372,0.316l0.215,0.251l0.073,-0.004l0.038,0.028l-0.01,0.076l-0.056,0.049l0.014,0.028l0.049,-0.007l0.056,-0.056h0.045l0.052,0.049h0.035l0.059,-0.042l0.083,-0.104l-0.003,-0.031l-0.046,-0.018l0.011,-0.16l0.26,-0.225l0.171,-0.087l0.003,-0.059l-0.121,-0.158l0.166,-0.887l-0.13,-0.172l-0.12,-0.038v-0.031l0.045,-0.028l0.014,-0.052l0.08,-0.049l0.07,-0.201l0.215,-0.306l0.007,-0.229l0.111,-0.216l0.021,-0.396l-0.118,-0.292l-0.007,-0.111l0.136,-0.219l0.703,-0.521l0.151,-0.381l1.303,-2.236l0.136,-0.114l0.104,-0.005l0.063,0.046h0.047l0.015,-0.036l0.047,-0.01l0.042,0.015l0.782,-0.208h0.099l0.25,0.047l0.047,0.062l0.094,0.021l0.114,-0.037l0.068,-0.771l-0.062,-0.026l-0.053,-0.068v-0.083l0.042,-0.068l0.011,-0.172l0.036,-0.031l0.407,-1.314l0.401,-0.662l0.078,-0.448l0.158,-0.426l0.073,-0.066l0.091,-0.177l-0.105,-0.545l0.355,-1.053l-0.052,-0.031l-0.092,-0.282l-0.242,-2.634l-0.087,-0.518l0.254,-0.208l0.121,-0.031l0.296,-0.827l0.073,-0.101l0.003,-0.073l-0.017,-0.052l0.274,-0.883l0.23,-0.372l0.507,-1.539l0.17,-0.174l0.007,-0.083l-0.047,-0.052l0.006,-0.157l0.057,-0.073l0.04,-0.107l-0.021,-0.094l-0.101,-0.056l-0.095,0.018l-0.054,-0.039l0.007,-0.128l-0.031,-0.059l-0.094,-0.066l0.003,-0.08l0.07,-0.07l0.045,-0.173l-0.018,-0.122l0.056,-0.163l0.118,-0.084l0.146,-0.035l0.09,-0.125l0.035,-0.132l-0.007,-0.194l0.056,-0.07l-0.004,-0.052l-0.041,-0.073l-0.014,-0.121l-0.056,-0.08l0.014,-0.129l0.059,-0.132l-0.01,-0.08l-0.063,-0.08l0.004,-0.101l0.1,-0.114l0.06,-0.004l0.142,0.077l0.076,0.003l0.06,-0.031l0.097,0.014l0.087,0.052l0.166,0.014l0.073,-0.052l0.225,-0.016l0.073,-0.026l0.093,0.01l0.099,0.11l0.12,0.026l0.058,-0.021l0.01,-0.073l0.047,-0.062l0.057,-0.011l0.084,-0.073l0.01,-0.068l0.078,-0.177l0.078,-0.057v-0.047l-0.041,-0.057l0.01,-0.089l0.073,-0.063v-0.052l-0.047,-0.052l0.005,-0.083l0.042,-0.104l0.37,-0.12l0.48,-0.032l0.078,-0.062l0.052,-0.24l-0.016,-0.068l0.047,-0.073l0.115,-0.026l0.125,0.026l0.037,0.146l0.062,0.047l0.229,-0.073l0.11,-0.062l0.005,-0.099l0.084,-0.167l0.052,-0.011l0.062,0.027l0.042,-0.011l0.021,-0.042l0.062,0.006l0.105,0.161l0.046,-0.021v-0.104l0.084,-0.073l0.182,-0.031l0.105,0.078l0.135,0.021l0.078,-0.042l0.026,-0.109l0.073,-0.162l0.183,-0.057l0.062,-0.047l0.125,-0.256l0.021,-0.099l0.226,-0.55l0.457,-0.442l-0.047,-0.123l-0.06,-0.115l-0.107,-0.065l-0.028,0.018l0.026,0.053l-0.034,0.078l-0.073,-0.003l-0.078,-0.096l-0.003,-0.037l0.039,-0.013l0.003,-0.036l-0.081,-0.039l-0.094,0.034l-0.062,-0.027l-0.053,-0.096l-0.007,-0.164l-0.063,-0.052l-0.057,-0.008l-0.024,0.026l0.032,0.034l-0.013,0.031l-0.099,0.013l-0.248,-0.141l-0.026,-0.073l0.023,-0.07l-0.028,-0.068l0.015,-0.023l0.058,-0.005l0.086,0.026l0.005,-0.026l-0.063,-0.042l-0.122,0.005l-0.034,0.047l0.029,0.076l-0.019,0.052l-0.086,0.034l-0.208,-0.032l-0.24,-0.177l-0.073,-0.214l0.011,-0.177l0.104,-0.083l-0.005,-0.047l-0.209,-0.104l-0.172,-0.146l-0.182,-0.24l-0.204,-0.146l-0.333,-0.12l-0.125,-0.088l-0.131,-0.235l-0.083,-0.047l-0.068,0.005l-0.193,-0.057l-0.297,0.052l-0.193,-0.083l-0.323,-0.391l-0.067,-0.157l-0.006,-0.119l-0.015,-0.079l-0.042,-0.073v-0.198l-0.151,-0.458l-0.058,-0.094l-0.041,-0.167l-0.021,-0.407l-0.136,-0.755l-0.146,-0.204l-0.057,-0.239l0.011,-0.23l0.104,-0.328l-0.007,-0.372l-0.223,-0.417l-0.072,-0.278l0.003,-0.055l0.097,-0.105l0.014,-0.125l-0.024,-0.104l-0.042,-0.396l0.011,-0.084l-0.004,-0.125l-0.045,-0.125v-0.236l0.042,-0.083l-0.004,-0.098l-0.038,-0.048l-0.004,-0.077l0.032,-0.035l0.114,0.018l0.025,-0.025l-0.018,-0.066l0.004,-0.073l0.024,-0.104l-0.01,-0.125l-0.035,-0.045l-0.056,-0.17l0.004,-0.087l-0.018,-0.052l-0.066,-0.039l-0.041,-0.114l0.01,-0.125l-0.007,-0.181l-0.038,-0.108l-0.014,-0.354l-0.111,-0.348l-0.146,-0.205l-0.014,-0.114l0.035,-0.045l0.069,0.006l0.032,-0.059l-0.025,-0.076l0.014,-0.097l-0.028,-0.077l-0.059,-0.031l-0.017,-0.111l0.066,-0.115l0.073,-0.031l0.073,0.035l0.052,0.069l-0.024,0.132l0.017,0.07l0.038,0.007l0.032,-0.049l0.038,0.007l-0.004,0.059l0.035,0.021l0.045,-0.018l0.063,0.039l0.003,0.076l0.056,0.125l0.055,0.021l0.042,0.066l-0.014,0.028l-0.135,-0.059l-0.025,-0.077l-0.048,-0.052l-0.035,0.011v0.055l0.16,0.296l0.031,-0.004l0.021,-0.038l0.104,-0.021l0.07,-0.083v-0.091l-0.066,-0.09l-0.08,-0.156l-0.271,-0.324l-0.257,-0.222l-0.344,-0.459l-0.12,-0.199l-0.097,-0.199l-0.039,-0.007l-0.028,0.026l-0.016,-0.019l0.029,-0.075l0.002,-0.042l-0.115,-0.232l-0.052,-0.065l-0.031,-0.143l-0.031,-0.065l-0.018,-0.324l-0.04,-0.109l-0.013,-0.122l0.021,-0.087l0.003,-0.088l-0.031,-0.081l-0.006,-0.219l0.026,-0.075l0.003,-0.063l-0.039,-0.073l0.003,-0.06l0.031,-0.068h-20.302l0.101,-0.293l0.181,-0.285l0.08,-0.082l0.009,-0.084l-0.058,-0.105l-0.084,-0.011l-0.156,0.101l-0.215,0.261l-0.136,0.344l-0.017,0.154h-23.483v7.717h-3.684v1.935v14.586l-0.152,-0.053l-0.198,-0.026l-0.193,-0.062l-0.329,-0.047l-0.083,0.021l-0.083,-0.011l-0.146,-0.047l-0.298,-0.015l-0.453,0.093l-0.182,0.094l-0.058,0.063l-0.302,0.042l-0.115,-0.011l-0.125,-0.042l-0.182,-0.02l-0.115,-0.032l-0.24,-0.01l-0.12,0.078l-0.198,0.203l-0.057,0.105l-0.141,0.13l-0.187,0.068l-0.052,0.088l-0.021,0.193l0.036,0.099l0.146,0.12l0.068,0.141l0.026,0.213l0.036,0.058l-0.005,0.068l-0.068,0.109l0.006,0.083l0.062,0.073l-0.005,0.058l-0.063,0.047l-0.026,0.067l-0.073,0.063l-0.088,0.047l-0.016,0.062l0.042,0.099l-0.016,0.079l-0.062,0.041l-0.136,0.005l-0.088,0.058l-0.027,0.078l-0.13,0.068l-0.068,0.052l-0.057,0.104l-0.12,0.104l-0.021,0.089l0.037,0.094l-0.011,0.062l-0.041,0.032l-0.089,-0.011l-0.135,0.068l-0.037,0.104l0.151,0.48l0.007,0.111l-0.5,0.181l-0.313,0.034l-0.125,0.042l-0.08,0.077l-0.122,0.024l-0.104,0.351l0.031,0.003l0.018,-0.034l0.115,0.063l0.067,0.062l-0.026,0.292l0.037,0.144l0.047,0.073v0.057l-0.05,0.05l-0.042,0.007l-0.028,0.037v0.062l0.143,0.196l0.039,0.008l0.029,-0.029h0.07l0.198,0.052v0.029l-0.023,0.026l0.002,0.039l0.089,0.081l-0.135,0.279l-0.191,0.039l-0.169,0.193l-0.175,0.002l-0.125,0.123l-0.138,0.041l-0.104,0.141l-0.081,0.005l-0.047,0.021l-0.018,0.026l-0.143,0.005l-0.006,0.032l0.021,0.044l-0.013,0.018l-0.026,0.003l-0.018,0.015v0.034l-0.503,0.548l0.021,0.018l0.028,0.002l0.144,0.126l0.028,0.083l-0.005,0.049l-0.042,0.047v0.068l0.071,0.071l0.021,0.039l-0.006,0.047l0.029,0.039l0.044,0.02l0.029,0.06l0.029,0.026l0.06,0.027l0.083,0.101l0.005,0.091l-0.01,0.081l0.018,0.052l-0.005,0.115l0.029,0.06l0.036,0.018l0.024,0.052l-0.011,0.045l0.031,0.044l0.06,0.013l0.086,0.091l0.011,0.081l-0.029,0.075l-0.104,0.092l-0.003,0.039l-0.021,0.021l-0.052,0.013l-0.109,0.138l-0.071,0.028l-0.02,0.034l-0.003,0.071l-0.107,0.117l-0.049,0.089l-0.084,0.028l-0.044,-0.01l-0.07,0.013l-0.068,0.07l-0.084,0.013l-0.101,-0.01l-0.037,0.031l-0.013,0.073l-0.07,0.076l-0.016,0.049l-0.06,0.042l-0.062,0.005l-0.071,0.047l-0.015,0.052l0.018,0.065l-0.021,0.052l-0.096,0.094l-0.068,0.154l-0.016,0.112l-0.065,0.099l-0.021,0.063v0.114l-0.039,0.055l-0.091,0.039l-0.008,0.052l0.091,0.099l0.058,0.013l0.026,0.045l-0.026,0.075l0.026,0.065l0.055,0.037l0.039,0.057l-0.003,0.047l0.031,0.044l0.094,0.047l0.063,0.081l0.002,0.037l0.032,0.018l0.768,-0.149l0.178,-0.159l-0.005,-0.168l0.473,0.285l0.549,0.187l-0.111,0.292l-0.035,0.031l-0.004,0.039l0.021,0.045l-0.017,0.035l-0.073,0.024l-0.094,0.101l0.004,0.038l-0.021,0.042l-0.042,0.034l-0.003,0.056l0.038,0.031l0.048,0.004l0.122,0.146v0.052l-0.017,0.045l0.073,0.278l0.093,0.177l0.08,0.278l-0.003,0.191l-0.031,0.073l-0.007,0.129l-0.025,0.045l0.007,0.052l0.049,0.021l0.08,-0.014l0.045,-0.066l0.07,-0.021l0.066,0.021l0.1,-0.003l0.118,-0.021l0.021,-0.045l0.032,-0.011l0.027,0.017l-0.031,0.08l-0.167,0.664l-0.121,0.636l0.024,0.275l0.181,0.253l0.173,0.177l0.383,0.15l0.093,0.121l0.007,0.146l0.153,-0.048l0.431,-0.032l-0.045,0.414l0.177,0.045l0.035,0.337l-0.201,0.414l-0.203,0.643l-0.029,0.003l0.011,0.109l0.12,0.105l0.255,0.359l0.089,0.261l0.067,0.052l0.141,0.037l0.329,0.25l0.052,0.099l0.057,0.052l0.089,0.047l0.25,0.24l0.106,0.074l1.404,2.224l0.09,0.829h1.298l0.12,0.042l0.094,-0.021l0.046,-0.084l-0.005,-0.067l0.011,-0.073l0.062,-0.047l0.11,0.026l0.104,-0.016l0.073,-0.041l0.062,-0.094l0.063,-0.037l0.177,-0.01l0.141,-0.058l0.083,0.006l0.068,0.031l0.083,0.01l0.089,-0.026l0.037,-0.057l0.057,-0.037l0.089,-0.01l0.093,-0.042l0.105,0.011l0.078,0.099l0.062,-0.005l0.047,-0.037l0.089,0.005l0.088,0.037l0.157,0.01l0.13,-0.052l0.063,-0.047l0.067,0.005l0.105,0.089l0.151,0.036l0.052,-0.026l-0.005,-0.046l0.041,-0.027l0.126,-0.02l0.182,-0.115l0.172,-0.151l0.063,-0.011l0.036,-0.031l-0.005,-0.094l0.052,-0.12l0.062,-0.01l0.032,-0.042l-0.016,-0.052l0.026,-0.047l0.068,-0.036l0.026,-0.068l-0.026,-0.068l0.036,-0.083l0.099,-0.052l0.016,-0.073l-0.057,-0.151l-0.068,-0.026l-0.037,-0.063l0.047,-0.083l0.047,-0.261l0.068,-0.146l0.063,-0.031l0.062,0.021l0.037,-0.021l-0.006,-0.047l0.053,-0.026l0.062,0.01l0.078,-0.005l0.052,-0.063l0.115,-0.041l0.11,0.031l0.093,0.005l0.157,-0.047l0.12,-0.078l0.338,-0.026l0.084,0.026h0.109l0.058,-0.047l0.208,-0.041l0.297,-0.011l0.021,-0.068l0.063,-0.005l0.052,0.068l0.182,-0.031l0.057,-0.047l0.126,-0.011l0.172,0.026l0.067,0.052l0.084,0.027l0.099,-0.021l0.052,0.021l0.031,0.072l0.061,0.014v0.737l0.222,0.07l0.216,0.187l0.229,0.389l0.382,0.327l0.334,1.001l0.097,0.153l0.153,0.125l0.494,0.146l0.695,0.16l0.236,-0.014l0.994,-0.403l0.437,-0.084l1.349,0.007l1.126,0.07l0.361,-0.028l-0.264,-0.674v-1.383h4.323v1.821z"/>
</svg>
