<svg xmlns="http://www.w3.org/2000/svg" viewBox="1025.366 445.199 1.784 1.137">
  <path d="M1027.11,445.669l-0.019-0.035l-0.002-0.021l0.007-0.036l0.006,0.001l-0.002,0.025l0.004,0.031l0.028,0.054l-0.006,0.003L1027.11,445.669L1027.11,445.669z M1026.986,445.577l0.011,0.001l0.024-0.022l0.091-0.037l0.033-0.033l0.005-0.033l-0.018-0.054l-0.05-0.041l-0.034-0.013h-0.019l-0.019,0.01l-0.026-0.002l-0.009,0.001l-0.015,0.011l-0.024,0.002l-0.007,0.012l0.003,0.021l-0.004,0.002l-0.034-0.032l-0.019-0.003l-0.016,0.013l0.005,0.036l0.021,0.015l0.025-0.002l0.011-0.01l0.008,0.002l0.004,0.023l-0.01,0.011l-0.032-0.002l-0.008,0.007l0.012,0.038l0.013,0.01l0.009-0.006l-0.001-0.013l-0.007-0.009l0.014-0.01l0.024,0.003l0.014,0.02l-0.004,0.014l-0.019,0.023v0.007L1026.986,445.577L1026.986,445.577z M1026.989,445.332l0.004-0.005l-0.011-0.012l-0.023-0.004l-0.042,0.012l0.003,0.004l0.03-0.003l0.018,0.007L1026.989,445.332L1026.989,445.332z M1026.634,445.452l0.005,0.006l0.006,0.002l0.004-0.004l-0.009-0.008l-0.007-0.002V445.452L1026.634,445.452z M1026.666,445.457l0.019,0.006l0.04-0.012l0.005-0.011l0.016-0.006l0.036,0.002l0.008-0.011l0.005-0.018l-0.011-0.011l-0.02-0.002l-0.014,0.007l-0.025-0.001l-0.011-0.006h-0.023l-0.013,0.005l-0.039-0.007l-0.016-0.014l-0.034-0.014l-0.019,0.001l-0.013,0.012l0.002,0.013l0.021,0.015l0.025,0.004l0.039,0.025L1026.666,445.457L1026.666,445.457z M1026.566,445.451l-0.026-0.032l-0.025-0.018l-0.004,0.004l0.005,0.019l0.02,0.018l0.024,0.013L1026.566,445.451L1026.566,445.451z M1026.328,445.317l-0.008-0.023l-0.014-0.012l-0.005,0.001l0.006,0.02l0.017,0.02L1026.328,445.317L1026.328,445.317z M1025.527,445.572h0.008l0.007-0.006v-0.009l-0.009-0.003l-0.008,0.007L1025.527,445.572L1025.527,445.572z M1025.762,446.204l0.053-0.001l0.017-0.009l-0.001-0.01l-0.033-0.019l-0.028,0.002l-0.026,0.019l-0.001,0.011L1025.762,446.204L1025.762,446.204z M1025.811,446.272l0.011-0.014l-0.004-0.011h-0.013l-0.018,0.015l-0.002,0.012l0.009,0.004L1025.811,446.272L1025.811,446.272z M1025.835,446.33l0.014,0.006l0.01-0.004l-0.002-0.018l-0.009-0.009h-0.022l-0.004,0.007L1025.835,446.33L1025.835,446.33z M1026.265,446.154l0.01,0.001l-0.001-0.018l0.008-0.005l0.017,0.004l0.003-0.005l-0.007-0.018l0.006-0.016l-0.004-0.005l-0.028,0.004l-0.004,0.007l0.01,0.013l0.001,0.011l-0.009,0.004l-0.019-0.004l-0.002,0.008L1026.265,446.154L1026.265,446.154z M1026.198,446.001l0.025,0.002l0.013-0.005l0.001-0.007l-0.018-0.014l-0.026-0.002l-0.015,0.009l-0.003,0.007L1026.198,446.001L1026.198,446.001z M1026.155,446.023l0.043,0.041h0.02l0.024-0.016l0.015-0.029l-0.008-0.006h-0.036l-0.035-0.007l-0.024-0.016l-0.038-0.001l-0.002,0.006L1026.155,446.023L1026.155,446.023z M1026.077,446.206l0.006-0.004l-0.009-0.018l-0.018-0.011l-0.005,0.003l0.005,0.019L1026.077,446.206L1026.077,446.206z M1025.994,446.12l0.006-0.005l-0.004-0.014l-0.029-0.028l-0.026-0.009l-0.005,0.004l-0.001,0.016l0.015,0.01l0.015,0.002l0.012,0.009l0.007,0.012L1025.994,446.12L1025.994,446.12z M1025.968,446.118l0.002-0.01l-0.007-0.006l-0.019-0.002l-0.018-0.011l-0.008-0.01l-0.038-0.008l-0.016,0.006l-0.001,0.009l0.018,0.01l0.035,0.007l0.022,0.014H1025.968L1025.968,446.118z M1025.885,446.12l0.008,0.004l0.004-0.004l-0.002-0.006l-0.008-0.004l-0.004,0.004L1025.885,446.12L1025.885,446.12z M1025.904,446.114l-0.001,0.006l0.005,0.003l0.004-0.004l-0.003-0.006L1025.904,446.114L1025.904,446.114z M1025.944,446.22l0.006-0.017l0.016-0.004l0.018,0.008l0.026,0.004l0.008-0.008l-0.006-0.026l-0.016-0.005l-0.026,0.006l-0.026-0.005l-0.01-0.014h-0.004l-0.004,0.038l0.011,0.023H1025.944L1025.944,446.22z M1025.9,445.91l0.075,0.045l0.023-0.037l0.034,0.02l-0.026,0.051l0.028,0.014l0.031-0.056l0.031,0.022l0.01,0.002l0.022-0.008l0.014,0.003l0.011,0.008h0.017l0.039-0.015l0.021,0.001l0.02,0.019l0.019-0.001l0.005-0.034h0.011l0.019,0.009l0.042-0.031l0.001-0.013l-0.025-0.019l-0.018,0.001l-0.014,0.011l-0.011-0.007l0.003-0.015l0.027-0.006l0.007-0.011l0.004-0.023l0.015-0.007l0.025,0.004l-0.003,0.004l-0.019,0.003l-0.009,0.018l0.014,0.026l0.019,0.016h0.011l0.055-0.043l0.196-0.064l0.04-0.003l0.055-0.018l0.04-0.001l0.01,0.012l0.02,0.001l0.034,0.011h0.042l0.017-0.008l0.001-0.013l0.025-0.002v-0.015h0.019v0.014h0.012v-0.032h-0.028l-0.011-0.01l0.009-0.029l0.036-0.082h0.01l0.012,0.009l0.002-0.004l-0.017-0.016l-0.077-0.035l-0.011,0.001l-0.011-0.005l-0.007-0.014l-0.028-0.056l-0.035-0.011l-0.049,0.004l-0.032,0.032l-0.037,0.006l-0.038-0.009l-0.039-0.029l-0.023-0.028l-0.022-0.007l-0.033-0.028l-0.01-0.037l-0.011-0.01l-0.019-0.001l-0.016,0.01l-0.018,0.031l-0.007-0.005l0.001-0.011l0.011-0.011l-0.002-0.012l-0.058-0.036l-0.02-0.004l-0.02,0.01l-0.031,0.034l-0.034,0.041l-0.034,0.023l-0.013,0.016l-0.014-0.002l-0.004-0.021l-0.009-0.003l-0.012,0.008l-0.004-0.006l0.005-0.012l0.019-0.007l0.032,0.01l0.022-0.01l0.048-0.074l0.001-0.02l-0.011-0.011l-0.014,0.005l-0.015,0.015l-0.012-0.004l0.001-0.011l0.019-0.01l0.009-0.019l-0.005-0.012l-0.026,0.001l-0.003-0.005l0.012-0.007l0.01-0.003l-0.001-0.011l-0.034-0.028l-0.055-0.02l-0.013,0.011l-0.007-0.004l-0.001-0.013l-0.017-0.008l-0.046,0.004l-0.08,0.05l-0.013,0.013l-0.041,0.019l-0.03,0.034l-0.038,0.004l-0.014-0.006h-0.008l-0.004,0.009l0.011,0.017l-0.004,0.021l-0.019,0.034l-0.031,0.018l-0.005,0.019l0.019,0.043v0.019l-0.011,0.036l-0.003-0.013l0.005-0.026l-0.002-0.017l-0.012-0.019l-0.008,0.001l-0.005,0.011l-0.001,0.018l-0.019,0.008l0.003-0.008l0.01-0.007l-0.002-0.018l0.012-0.019l-0.008-0.013l-0.026-0.005l-0.01-0.007l-0.034,0.004l0.004-0.006l0.027-0.006l0.011,0.001l0.009,0.004h0.015l0.042-0.026l0.012-0.037l-0.003-0.043l-0.028-0.028l-0.029-0.009l-0.034,0.005l-0.047,0.046l-0.033,0.017l-0.052,0.018l-0.016,0.019l-0.009,0.037l-0.008,0.014l-0.015,0.007l-0.01,0.017l0.003,0.041l-0.007,0.016l-0.01,0.011l0.001,0.01l0.018,0.006l0.031-0.006l0.011,0.008l-0.001,0.011l-0.009,0.006v0.008l0.01,0.006l0.003,0.012l-0.006,0.009l-0.008-0.001l-0.01-0.016l-0.015-0.006l-0.028,0.002l-0.015,0.014l0.002,0.013l0.009,0.016l-0.004,0.004l-0.012-0.009l-0.018,0.002l-0.016,0.011l-0.002,0.014l0.015,0.022l0.018,0.009l0.009,0.01l0.001,0.014l0.006,0.004l0.01,0.001l0.001,0.005l-0.013,0.004l-0.013-0.009l-0.003-0.014l-0.006-0.005l-0.01,0.004l-0.009-0.007l-0.009-0.016l-0.016-0.008l-0.008,0.004l-0.004,0.009l0.004,0.016l-0.019,0.055l-0.017,0.011l-0.014,0.021l-0.001,0.015l0.005,0.002l0.005-0.011h0.005l-0.002,0.021l-0.026,0.06v0.013l0.007,0.009l-0.004,0.027l-0.01,0.017l-0.021,0.013l-0.014,0.038l0.011,0.002v0.036h0.011v0.009h-0.011v0.025h0.01v0.008h-0.02v0.011h0.02v0.011h-0.02v0.067l0.022,0.012l0.109,0.026l0.009-0.005v-0.011l-0.009-0.017l-0.022-0.004l-0.026,0.003l-0.008,0.012l-0.041-0.006v-0.048h0.018v-0.011h-0.009l-0.005-0.016v-0.026h0.052l0.03-0.012v-0.019h-0.084v-0.034h0.02v0.006h0.077v-0.032h-0.01v-0.02l0.01-0.019l0.02-0.003l0.008-0.01l-0.002-0.014l-0.052-0.089l0.009-0.019l0.018,0.012l0.022-0.022l0.011,0.011l-0.022,0.022l0.015,0.015l0.022-0.022l0.007,0.007l-0.028,0.028l0.01,0.01l0.007-0.008l0.019,0.025l0.022,0.013h0.015l0.016-0.014l-0.017-0.023l0.001-0.019h0.009l0.007,0.019l0.019,0.014l0.011-0.004l-0.004-0.017l0.003-0.02h0.007l0.003,0.026l0.01,0.007l0.022-0.004l0.003-0.025l0.013-0.003l0.018,0.017l0.018,0.001l0.012-0.019l0.022-0.001l0.033,0.026l0.008-0.005l-0.01-0.017l0.003-0.017l0.026-0.045v0.009l-0.012,0.029l-0.002,0.021l0.011,0.02l0.062,0.021l0.025-0.004l0.002-0.01l-0.01-0.022h-0.016l-0.009,0.006l-0.011-0.004l-0.024-0.021l0.001-0.021l0.009-0.013h0.017l0.017,0.011l0.004,0.025l0.016,0.007l0.028,0.044v0.022l0.043,0.026l-0.011,0.019l-0.042-0.023l-0.019-0.001L1025.9,445.91L1025.9,445.91z M1025.708,445.836l0.001-0.011l-0.009-0.01l-0.006,0.002l-0.001,0.009l0.004,0.009L1025.708,445.836L1025.708,445.836z M1025.766,445.838h0.02l0.003-0.006l-0.021-0.018h-0.012l-0.005,0.013L1025.766,445.838L1025.766,445.838z M1025.593,446.078l0.02,0.01l0.004,0.018l-0.008,0.014l0.007,0.009l0.057-0.058l0.003-0.025l-0.012-0.045l-0.016-0.027l0.007-0.01l0.029,0.018l0.012,0.03l0.009,0.01l0.05-0.024l0.001-0.013l-0.02-0.019l0.005-0.007l0.052,0.027h0.017l0.045-0.041l0.002-0.011l-0.015-0.016l-0.015-0.002l-0.015-0.017l0-0.013l-0.01-0.011l-0.044-0.009l-0.034,0.008l-0.032,0.053l-0.027,0.006l-0.004-0.012l0.032-0.039l-0.003-0.01l-0.038,0.003l-0.107,0.073l-0.002,0.016L1025.593,446.078L1025.593,446.078z"/>
</svg>
