<svg xmlns="http://www.w3.org/2000/svg" viewBox="588.004 479.863 0.461 0.387">
  <path d="M588.006,480.019l0.021-0.022l0.018-0.007l0.021-0.041l-0.003-0.026l0.047-0.046l0.03,0.006l0.014-0.006l-0.001-0.014h0.018l0.036,0.023l0.022,0.001l0.065,0.061l0.03,0.006l0.034,0.021l0.019,0.026l0.008,0.035l0.023,0.018l0.04,0.015l0.017,0.015l-0.004,0.023l-0.014,0.007l-0.015-0.003l-0.003-0.01l-0.018,0.004l-0.008,0.041l-0.022,0.018h-0.022l-0.054,0.028l-0.011,0.022h-0.015l-0.023-0.014l-0.054,0.025l-0.03-0.003l-0.011,0.01l-0.041,0.007l-0.017,0.011l-0.029-0.014l-0.05-0.047l0.001-0.017l0.014-0.015l-0.001-0.017l-0.026-0.048l-0.008-0.041L588.006,480.019z M588.412,480.04l0.011,0.006l0.005-0.012l-0.007-0.007l-0.008,0.004L588.412,480.04z"/>
</svg>
