<svg xmlns="http://www.w3.org/2000/svg" viewBox="619.953 510.024 0.587 0.486">
  <path d="M620.098901,510.505457l-0.033778,-0.054565l-0.025983,-0.023385l-0.085745,-0.025983v-0.028582l0.085745,-0.101335l0.010393,-0.049368l0.033778,-0.038975l0.057163,-0.018188l0.119523,-0.106532l0.007795,-0.028582l0.023385,-0.005197l0.020787,0.025983l0.067557,0.01559l0.054565,-0.018188l0.033778,0.025983l0.002598,0.064958l0.057163,0.057163l0.002598,0.025983l-0.010393,0.03118l0.018188,0.041573l-0.010393,0.016456l-0.038975,0.004331l-0.049368,0.041573l-0.036377,0.018188l-0.002598,0.025983l-0.025983,0.012992l-0.06236,0.012992l-0.038975,-0.007795l-0.044172,0.010393l-0.10913,0.080548l-0.020787,-0.005197Z "/>
</svg>
