<svg xmlns="http://www.w3.org/2000/svg" viewBox="594.415 594.514 10.336 14.533">
  <path d="M594.42923,595.664027l-0.013858,-0.076218l0.01559,-0.01559l0.020787,0.001732l0.041573,-0.04677l0.039841,-0.001732l0.045038,0.041573l0.043306,0.003464l0.034644,0.029448l-0.003464,0.025983l-0.036377,0.008661l-0.09354,0.055431l-0.013858,0.024251h-0.013858l-0.006929,-0.020787l-0.029448,-0.001732l-0.029448,-0.027716Z M595.213927,596.220071l0.017322,-0.012126l0.024251,0.006929l0.027716,-0.017322l-0.006929,-0.045038l-0.019054,-0.012126l-0.020787,0.012126l-0.032912,0.001732l-0.010393,0.020787l0.006929,0.032912l0.013858,0.012126Z M595.834929,594.533752l0.002598,0.036377l-0.036377,0.028582l-0.041573,0.054565l-0.012992,0.072753l-0.023385,0.044172l0.023385,0.054565l0.063497,0.087207l0.030368,0.056595l0.017945,0.00138l0.012423,-0.012423h0.026227l0.026227,0.015346l0.036377,0.038975l0.041573,-0.002598l0.023385,-0.020787l-0.002598,-0.023385l0.018188,-0.023385l0.020787,-0.002598l0.020787,-0.038975l0.044172,-0.025983l0.023385,-0.038975l0.057163,-0.051967l0.008039,-0.038244l-0.039219,-0.107263l-0.049368,-0.06236l-0.070155,-0.054565l-0.06236,-0.007795l-0.036377,0.012992l-0.096138,-0.007795l-0.025983,0.01559Z M595.206998,596.090154l0.020787,0.005197l0.005197,-0.013858l-0.022519,-0.012126l-0.012126,0.006929l0.008661,0.013858Z M595.252036,596.128263l0.013858,-0.003464l-0.005197,-0.010393l-0.01559,-0.005197l-0.008661,0.010393l0.01559,0.008661Z M604.238994,608.770939l0.013804,-0.002761l0.017945,0.016564l0.022086,-0.011043l0.022059,0.002842l0.019054,0.020787l0.025983,0.010393l0.038109,0.003464l0.03118,0.034644l0.008661,0.045038l0.050234,0.034644l0.024251,0.003464l0.029448,0.017322l0.019054,0.020787l0.008039,0.01919l-0.006902,0.019325l0.020705,0.012423l0.020705,-0.008282l0.060736,0.012423l0.01624,0.019406l0.020787,-0.001732l0.000244,-0.014913l0.023466,-0.027607l0.00747,-0.045823l0.020137,-0.025956l-0.008282,-0.053834l-0.067286,-0.041465l-0.005197,-0.034644l-0.022519,-0.024251l-0.006929,-0.050234l-0.04677,-0.048502l-0.00314,-0.032804l-0.015915,-0.029556l-0.03118,-0.020787l-0.027716,0.010393h-0.036377l-0.01559,-0.01559h-0.019054l-0.006009,0.012748l-0.012423,0.00138l-0.020705,-0.008282h-0.027607l-0.016402,0.011476l-0.032912,-0.008661l-0.034888,0.023412l-0.003221,0.04068l-0.029448,0.057163l-0.027716,0.027716l-0.007254,0.02076l0.011043,0.008282Z M604.542675,608.977994l0.009663,-0.006902l-0.006902,-0.009663l-0.011043,0.002761l-0.005521,0.011043l0.013804,0.002761Z M604.596509,609.047012l0.009663,-0.002761l0.005521,-0.008282l-0.009663,-0.005521l-0.009663,0.006902l0.004141,0.009663Z M604.672429,608.70054l0.009663,-0.006902l-0.002761,-0.012423l-0.011043,-0.002761l-0.005521,0.013804l0.009663,0.008282Z M604.243135,608.708823l0.011043,-0.005521v-0.011043l-0.011043,-0.00138l-0.005521,0.011043l0.005521,0.006902Z "/>
</svg>
