<svg xmlns="http://www.w3.org/2000/svg" viewBox="594.415 594.514 10.337 14.533">
  <path d="M594.429,595.664l-0.014-0.076l0.016-0.016l0.021,0.002l0.042-0.047l0.04-0.002l0.045,0.042l0.043,0.003l0.035,0.029l-0.003,0.026l-0.036,0.009l-0.094,0.055l-0.014,0.024h-0.014l-0.007-0.021l-0.029-0.002L594.429,595.664z M595.214,596.22l0.017-0.012l0.024,0.007l0.028-0.017l-0.007-0.045l-0.019-0.012l-0.021,0.012l-0.033,0.002l-0.01,0.021l0.007,0.033L595.214,596.22z M595.835,594.534l0.003,0.036l-0.036,0.029l-0.042,0.055l-0.013,0.073l-0.023,0.044l0.023,0.055l0.063,0.087l0.03,0.057l0.018,0.001l0.012-0.012h0.026l0.026,0.015l0.036,0.039l0.042-0.003l0.023-0.021l-0.003-0.023l0.018-0.023l0.021-0.003l0.021-0.039l0.044-0.026l0.023-0.039l0.057-0.052l0.008-0.038l-0.039-0.107l-0.049-0.062l-0.07-0.055l-0.062-0.008l-0.036,0.013l-0.096-0.008L595.835,594.534z M595.207,596.09l0.021,0.005l0.005-0.014l-0.023-0.012l-0.012,0.007L595.207,596.09z M595.252,596.128l0.014-0.003l-0.005-0.01l-0.016-0.005l-0.009,0.01L595.252,596.128z M604.239,608.771l0.014-0.003l0.018,0.017l0.022-0.011l0.022,0.003l0.019,0.021l0.026,0.01l0.038,0.003l0.031,0.035l0.009,0.045l0.05,0.035l0.024,0.003l0.029,0.017l0.019,0.021l0.008,0.019l-0.007,0.019l0.021,0.012l0.021-0.008l0.061,0.012l0.016,0.019l0.021-0.002l0-0.015l0.023-0.028l0.008-0.046l0.02-0.026l-0.008-0.054l-0.067-0.041l-0.005-0.035l-0.023-0.024l-0.007-0.05l-0.047-0.049l-0.003-0.033l-0.016-0.03l-0.031-0.021l-0.028,0.01h-0.036l-0.016-0.016h-0.019l-0.006,0.013l-0.012,0.001l-0.021-0.008h-0.028l-0.016,0.011l-0.033-0.009l-0.035,0.023l-0.003,0.041l-0.029,0.057l-0.028,0.028l-0.007,0.021L604.239,608.771z M604.543,608.978l0.01-0.007l-0.007-0.01l-0.011,0.003l-0.005,0.011L604.543,608.978z M604.596,609.047l0.01-0.003l0.005-0.008l-0.01-0.005l-0.01,0.007L604.596,609.047z M604.672,608.701l0.01-0.007l-0.003-0.012l-0.011-0.003l-0.005,0.014L604.672,608.701z M604.243,608.709l0.011-0.005v-0.011l-0.011-0.001l-0.006,0.011L604.243,608.709z"/>
</svg>
