<svg xmlns="http://www.w3.org/2000/svg" viewBox="680.127 54.440 85.542 35.581">
  <path d="M758.398,60.196l0.571-0.4l1.436-0.469l0.313-0.208l2.466-0.486l1.325,0.174l0.442,0.33l0.626,0.174l0.092,0.261l-0.442,0.521l-2.798,0.382l-1.031-0.035l-1.675,0.539l-1.104,0.035l-0.405-0.365L758.398,60.196z M733.864,89.872l0.11,0.149l0.184-0.149l0.166-0.39l0.405-0.204l0.46-0.446l0.92-0.724l-0.018-0.111l-0.368,0.093l-1.012,0.873l-0.331,0.204l-0.387,0.371L733.864,89.872z M744.797,60.369l-0.024,0.21l0.356,0.276l0.699,0.139l0.479-0.278l-0.037-0.313l-0.847-0.243L744.797,60.369z M739.57,72.044l1.141,0.556l0.92-0.069l0.11-0.278l-0.626-0.208l-1.178-0.834l-0.442,0.069l-0.147,0.347L739.57,72.044z M744.723,70.933l0.008,0.168l0.312,0.216l0.674-0.002l1.509-0.556l1.325-0.069l1.252,0.452l0.442-0.035l0.368-0.243l0.92-0.104l0.138-0.111l-0.064-0.167h-0.552l-0.883,0.174l-0.883-0.069l-0.626-0.347l-1.546-0.069l-0.589,0.278l-0.589,0.035l-0.515,0.382L744.723,70.933z M753.235,69.895l-0.046,0.203l0.442,0.035l0.823-0.122l0.061-0.156l-0.405-0.139l-0.69,0.054L753.235,69.895z M681.668,72.979l0.442,1.033l0.607,0.344l0.939,0.057l1.339,1.076l0.041,0.301l0.456,0.402l0.787,0.1l0.083-0.273l-0.925-1.276v-0.316l-0.11-0.115l-0.69-0.057l-1.034-0.709l-0.775-0.74l-0.08-0.181l-0.03-0.737l-0.552-0.861l-1.215-0.516l-0.718,0.115l-0.106,0.527l0.25,0.476L681.668,72.979z M716.287,69.279l0.607,0.201l1.16-0.172l0.414-0.244l-0.028-0.215l-0.607-0.273l-1.339-0.043l-0.4,0.287l-0.02,0.158L716.287,69.279z M695.377,61.155l0.24-0.148l-0.035-0.258h-0.497l-0.276,0.277l0.18,0.148L695.377,61.155z M708.66,58.906l0.271,0.14l0.503,0.002l0.452,0.282l0.602-0.154l0.201-0.308l-0.074-0.259l-0.562-0.312l-0.702-0.045l-0.613,0.378L708.66,58.906z M715.363,66.907l0.621,0.131l0.093-0.07l-0.106-0.133l-0.925-0.44h-0.442l-0.331,0.145l-0.014,0.355l0.194,0.103L715.363,66.907z M715.307,67.774l0.248,0.118l0.391,0.005l0.133-0.123l-0.083-0.381l-0.235-0.079l-0.331,0.118L715.307,67.774z M717.571,74.399l0.414,0.373l0.274,0.824l-0.221,0.66l0.193,0.086l0.525-0.229l0.773,0.086l2.374-0.402l1.132,0.086l0.525-0.229l0.331-0.918l-0.113-0.565l-0.865-0.961l-0.302-0.224l-0.527,0.052l-0.386,0.402h-0.607l-0.426-0.442l-0.352-0.165l-0.493-0.024l-0.373,0.531l-0.454,0.252l-2.4,0.183l-0.238,0.096l0.014,0.201L717.571,74.399z M725.398,82.454l-0.111,0.128l0.001,0.121l0.313,0.191l0.02,0.084l-0.185,0.203l-0.313,0.229l-0.037,0.249l0.276,0.21l0.773-0.306l0.507-0.054l0.193-0.137l0.276-0.402l1.123-0.459l1.178-0.822l1.144-1.16l0.571-0.148l0.11-0.292l-0.276-0.421l0.11-0.516l0.416-0.207l0.025-0.195l-0.221-0.344l-0.443-0.096l-1.333,0.332l-0.469-0.006l-0.773-0.402l-1.012-0.956l-0.037-0.325l0.166-0.382l-0.014-0.208l-0.281-0.193l-1.16-0.402l-0.74,0.104l-0.854,0.328l-2.381-0.069l-2.063,0.402l-1.14,0.44l-0.074,0.268l1.62,0.956l0.883,0.268l0.078,0.308l-0.133,0.437l-0.764,0.424l-0.18,0.235l-0.203,0.928l-0.178,0.192l-0.718,0.229l-0.414,0.746l0.147,0.347l0.824,0.108l1.188-0.366l2.202-0.289l1.645-0.743l0.276-0.019l0.368,0.21l0.046,0.255l0.083,0.063l0.129-0.012l0.153-0.207l0.188-0.083l0.745,0.042l0.162,0.104l0.004,0.125l-0.313,0.153l-0.847,0.057l-0.055,0.115l0.258,0.191l-0.129,0.363L725.398,82.454z M731.034,57.959l0.486,0.056l0.338-0.095l0.018-0.172l-0.272-0.247l-0.403-0.125l-0.309,0.205l0.003,0.267L731.034,57.959z M681.316,64.332l0.172,0.032l0.432-0.044l0.508-0.225l0.001-0.152l-0.55-0.216l-0.452-0.021l-0.166,0.122l-0.09,0.318L681.316,64.332z M681.419,63.506l0.667,0.05l0.052-0.052l-0.249-0.331l-0.488-0.172l-0.385,0.115l-0.038,0.223L681.419,63.506z M717.526,55.64l0.673,0.258l0.509-0.092l0.043-0.221l-0.497-0.208l-0.651,0.019L717.526,55.64z M720.08,55.585l0.663-0.208l0.02-0.148l-0.25-0.177l-0.709,0.013l-0.386,0.313l0.029,0.203L720.08,55.585z M718.641,55.22l0.465,0.002l0.132-0.1l-0.15-0.175l-0.834-0.248l-0.411-0.259l-0.149,0.032l-0.102,0.175l0.331,0.417L718.641,55.22z M726.001,67.646l0.777,0.281l2.91,0.315l0.624-0.106l0.442-0.469l2.65-0.625l1.491,0.052l1.988-0.782l0.272-0.317l-0.107-0.292l-0.33-0.277l0.11-0.365l1.325-0.313l1.656-0.573l0.607-0.521l1.56-0.471l0.096-0.154l0.11-0.73l-0.078-0.617l0.114-0.338l0.295-0.348l-0.009-0.19l-0.212-0.175l-0.828-0.104l-0.607-0.365l-2.393-0.295l-1.307,0.122l-0.074-0.104l0.221-0.139l0.018-0.139l-0.791-0.052l-0.571-0.156h-0.57l-0.129-0.122l0.147-0.174l-0.184-0.069l-1.012,0.208l-0.671,0.043l-0.065-0.095l0.239-0.243l0.037-0.539l-0.294-0.122l-0.124,0.083l-0.188,0.421l-0.709,0.291l-0.29-0.026l0.11-0.235l0.331-0.195l-0.055-0.274l-0.127-0.091l-1.074-0.092l-0.259,0.072l-0.01,0.147l0.145,0.132l0.4,0.143l-0.004,0.128l-0.134,0.081l-0.566,0.13l-0.415-0.251l-0.354-0.02l-0.49,0.128l-0.14,0.232l-0.078,0.445l-0.304,0.73l-0.276-0.052l-0.193-0.521h-0.469l-0.359,0.182l-0.359,0.026l-0.166,0.182v0.208h-0.166l-0.221-0.313l0.138-0.547l0.718-0.417l0.331-0.678l-0.198-0.789l-0.388-0.217l-0.905-0.141l-0.443-0.376l-0.279-0.023l-0.216,0.139l0.23,0.544l-0.063,0.257l-0.201,0.227l-0.264-0.026l-0.31-0.376l-0.718,0.104l-0.11,0.521l0.495,0.552l-0.01,0.313l-0.32,0.907l-0.055,1.199l-0.291,0.034l-0.32-0.147l-0.493-0.669l-0.773-0.156l-0.663,0.104l-0.141-0.072l0.03-0.189l0.773-0.365l0.055-0.417l-0.345-0.229l-0.639,0.026l-1.556,0.464l-0.763,0.113l-0.286-0.113l-0.166-0.678l-0.187-0.206l-0.264-0.013l-0.322,0.323l-0.345-0.048l-0.125-0.157l-0.009-0.438l-0.405-0.469l-0.589-0.174l-0.515,0.104l-0.294-0.226l-0.037-0.278l-0.221-0.104l-0.368,0.052l-0.258-0.104l-0.405-0.347l-0.276,0.069l-0.055,0.208l0.129,0.295h-0.129l-0.258-0.156l-0.276,0.104l-0.018,0.573l0.368,0.122l0.626-0.052l0.386,0.122l0.018,0.139l-0.294,0.122l-0.048,0.248l0.158,0.256l-0.092,0.226l-0.423,0.261l-0.423-0.017l-0.663-0.643l-0.902-0.434l-0.405,0.174l0.119,0.724l0.323,0.318l0.847,0.521l0.242,0.294l0.016,0.228l-0.313,0.156l-0.479-0.118l-0.828-0.525l-0.184-0.204l-0.483-0.117l-0.179,0.104l-0.11,0.208h-0.207l-0.4-0.195l-0.704-0.026l-0.414,0.117l-0.962,0.009l-0.736,0.226l-0.018,0.17l0.514,0.126l1.012,0.156l0.166,0.156l-0.099,0.112l-0.324,0.045l0.005,0.113l0.153,0.131l0.468,0.034l0.957-0.087l1.068,0.035l0.276-0.069l0.037,0.074l-0.055,0.047l-0.35,0.156l-0.258,0.156l-0.039,0.157l-0.291,0.111l-0.54-0.042l-0.208,0.083l-0.745,0.018l-0.497,0.289l0.055,0.17l0.294,0.085l0.313,0.442l0.718,0.408l1.472,0.187l1.785-0.068l0.3,0.09l0.109,0.24l0.125,0.094l0.164-0.016l0.239-0.221l1.252-0.017l1.159-0.255l3.074-0.187l0.994-0.153l0.755-0.017l0.147,0.153l-0.037,0.204l0.35,0.204h0.442l0.276,0.187l0.02,0.102l-0.223,0.136l-0.248,0.063l-2.941-0.016l-1.462,0.087l-0.181,0.128l-0.027,0.167l0.621,0.306l0.538,0.064l1.546,0.395l0.01,0.119l-0.493,0.111l-0.952-0.268l-1.656-0.102l-0.603-0.358l-0.469-0.113l-1.302,0.012l-0.392,0.334l0.097,0.295l0.908,0.563l0.508,0.194l1.75,0.297l0.773,0.166l0.097,0.115l-0.11,0.179l0.152,0.153l0.635,0.102l0.871-0.216h0.361l1.306,0.167l0.613-0.005l1.266-0.303l1.767,0.051l0.381,0.155l0.116,0.151l-0.038,0.35L726.001,67.646z M715.175,56.75l0.047,0.18l0.311,0.104l0.46-0.104l0.037-0.208l-0.239-0.208l-0.47,0.071L715.175,56.75z M711.153,64.018l0.331-0.035v-0.165l-0.119-0.057l-0.396-0.021l-0.221,0.069l0.028,0.106L711.153,64.018z M702.71,89.754l0.284,0.028l0.083-0.106l-0.201-0.199l-0.333-0.057l-0.076,0.142L702.71,89.754z M711.345,66.59l-0.076,0.432l-0.785,0.241v0.268h0.699l0.368,0.268l-0.105,0.303l0.147,0.306l0.626,0.082l0.221-0.121l0.331-0.535h0.479l0.405,0.268l0.736,0.076l0.341,0.177l0.071,0.156l-0.145,0.307l0.138,0.258l0.373-0.072l0.138,0.086l-0.11,0.258l0.083,0.186l0.437,0.134l0.479-0.115l0.92,0.344l0.258,0.497l0.368,0.153l0.736-0.229l0.847,0.153l0.294,0.306l1.169,0.091l0.387,0.115v0.201l-0.525,0.602l-0.041,0.33l0.124,0.158l-0.11,0.158l-0.248-0.086l-0.4,0.014l-0.221,0.143l-0.207,0.033l-0.359-0.191l-0.069-0.229l-0.607-0.072l-0.331,0.143l-0.207,0.014l-0.124-0.158l-0.456-0.115l-0.883,0.129l-0.124,0.192l0.069,0.195l-0.055,0.072l-0.318,0.029l-0.345,0.186l0.014,0.201l-0.166,0.086l-0.276-0.129l-0.814,0.029l-0.359,0.215l-0.966,0.1l-0.331-0.086l-0.387-0.043l-0.152,0.1l0.028,0.258l-0.083,0.115l-0.331-0.057l-0.773,0.172l-0.041,0.115l0.317,0.072l0.359,0.201l0.428,1.033l-0.014,0.129l-0.304,0.1h-0.221l-0.207-0.186l-0.497-0.057l0.014,0.115l0.732,0.445l0.511,0.516l-0.097,0.201l-0.4,0.1l-0.207-0.086l-0.386-0.057l-0.055,0.1l0.58,0.229l0.414,0.416l0.014,0.244l-0.345,0.33l-0.497,0.115h-0.317l-0.304-0.158l-0.4-0.029l-0.538,0.143l-0.055,0.186l0.29,0.33l-0.055,0.201l-0.4,0.301h-0.414l-0.359,0.057l-0.028,0.143l0.235,0.115l0.262-0.1l0.276-0.014l0.221,0.129l-0.069,0.115l-0.166-0.043l-0.152,0.057l0.069,0.129l0.414,0.086l0.124,0.258l-0.124,0.545l-0.276,0.172l-0.29-0.143l-0.193,0.029l-0.014,0.158l0.304,0.158l-0.014,0.129l-0.221,0.043l0.069,0.115h0.317l0.097,0.1l-0.221,0.258l-0.069,0.602l-0.304,0.186l-0.801-0.057l-0.359-0.186v-0.158l-0.207-0.086l-0.193,0.029l-0.469-0.229l-0.337-0.124l-0.105,0.038l0.028,0.287l0.262,0.215l0.253,0.398l-0.021,0.136l-0.439,0.37l-0.663,0.172l0.028,0.158l0.511-0.014l0.152,0.129l-0.016,0.113l-0.313,0.334l-0.615,0.229l-0.064,0.084l0.055,0.143l0.287-0.002l0.139,0.056l-0.012,0.09l-0.221,0.072l-0.069,0.129l0.221,0.057l-0.041,0.143l-0.276,0.115l-0.055,0.115l0.207,0.143l-0.152,0.43l-0.276,0.158l-0.179-0.1l-0.718-0.029l-0.138,0.1l0.069,0.115l0.704,0.057l0.414,0.373l-0.041,0.272l-0.262,0.1l-0.331,0.359l-0.345,0.201l-0.801,0.158l-0.055,0.258l0.207,0.229l0.456-0.014l0.359,0.043l0.331,0.273l-0.014,0.272l-0.69,0.645l-0.856,0.272l-0.305,0.022l-0.302-0.065l-0.174-0.231l-0.219-0.01l-0.396,0.292l-0.219,0.035l-0.11-0.158l0.166-0.559l0.124-0.158h0.373l0.202-0.071l0.019-0.058l-0.138-0.086l-1.173-0.115l-0.984-0.457l-0.87-0.588l-0.44-0.1l-0.07-0.087l0.069-0.229l0.481-0.198l1.188-0.299l0.277-0.005l0.525,0.158l0.331,0.301l0.146,0.011l0.047-0.068l-0.193-0.258l0.014-0.143l0.181-0.092l0.592,0.078l0.207,0.172l0.152-0.029l0.057-0.152l0.062-0.055l0.172-0.022l0.024-0.041l-0.111-0.063l-0.258-0.026l-0.014-0.143l0.276-0.115l0.083-0.1l-0.032-0.067l-0.244-0.019l-0.276,0.072l-0.193-0.029l-0.193-0.244l-0.276,0.029l-0.166,0.344l-0.428,0.201l-0.42-0.048l-0.105-0.081l0.001-0.274l-0.104-0.177l-0.17-0.111l-0.085,0.003l-0.097,0.086l0.055,0.244l-0.079,0.076l-0.087-0.018l-0.193-0.215L700,85.07l-0.06,0.016l-0.014,0.143l0.359,0.301l-0.028,0.161l-0.09,0.069l-1.248,0.056l-1.16-0.172l-0.479-0.739l-0.024-0.171l0.112-0.212l-0.013-0.073l-0.243-0.132l-0.132-0.007l-0.459,0.174l-0.147-0.019l-0.465-0.273h-0.181l-0.624,0.129l-0.552-0.201l-0.773-1.004l-0.745-0.602l0.083-0.258l0.359-0.029l0.027-0.146L693.366,82l-0.412-0.068l-0.112-0.161l0.193-0.344l1.227-0.288l0.58,0.064l0.402,0.252l0.359,0.488l0.266,0.116l0.203-0.087l-0.028-0.344l0.193-0.172l0.69-0.086l0.386,0.115l2.126,0.057l0.663,0.201l0.359,0.029l0.221-0.172l-0.016-0.123l-0.232-0.135l-2.595-0.344l-1.27-0.115l-0.509-0.103l-0.016-0.155l0.442-0.229l2.792-0.485l1.822-0.115l0.856-0.229l1.712-0.057l1.178,0.359l0.188-0.024l0.082-0.105l-0.198-0.177l-1.063-0.313l-0.131-0.083v-0.258l0.215-0.19l-0.01-0.146l-0.117-0.059l-0.247,0.086l-0.188,0.379l-0.259,0.11l-1.105,0.051l-1.298,0.172h-0.966l-1.159-0.316l-0.442,0.115l-0.58,0.43l-2.3,0.458l-0.429-0.028l-0.72-0.208l-0.36,0.036l-0.663,0.344l-0.801-0.029l-0.028-0.287l0.276-0.172l-0.055-0.258l-0.414-0.316l-0.276-1.348l0.138-0.344l0.911-0.287l0.58,0.172l0.795,0.835l0.226,0.054l0.052-0.198l-0.134-0.232l-0.386-0.43l0.138-0.229l0.939,0.086l1.104-0.172l0.469,0.086l0.304-0.057l0.138-0.316l1.132-0.717l0.635-0.115l0.609,0.286l0.229-0.037l0.1-0.134l-0.497-0.229l-0.083-0.287l0.607-0.373l1.38-0.172l1.546,0.287l1.353-0.057l1.049-0.516l0.965-0.148l0.084-0.11l-0.276-0.172h-0.635l-1.463,0.516l-1.38-0.316l-0.331-0.258l0.099-0.295l0.567-0.524l0.635-0.516l0.801-0.143l-0.055-0.229l-0.883-0.086l-0.276-0.201l-0.359,0.029l-0.525,0.918l-1.463,0.947l-1.794,0.201l-0.699-0.344l-0.166-0.555l0.092-0.402l0.497-0.21l0.221-0.841l-0.166-0.727l-0.442-0.076l-0.405,0.574l-0.018,0.631l-0.221,0.268l-0.681,0.497l-0.262-0.063l-0.235-0.243l0.074-0.325l-0.055-0.382l-0.321-0.083l-0.207,0.007l-0.344,0.249l-0.292-0.022l-0.5-0.336l-0.125,0.054l0.003,0.15l0.601,0.469l0.149,0.328l0.083,0.486l-0.042,0.108l-0.975,0.005l-0.085,0.125l0.327,0.103l0.094,0.093l-0.057,0.075l-0.372,0.008l-0.089,0.121l0.046,0.108l1.094,0.018l0.552,0.382l-0.037,0.344l-1.031,0.038l-0.626-0.268l-0.306,0.003l-0.083,0.151l0.551,0.605l-0.042,0.184l-0.499,0.184l-0.114,0.216l-0.208-0.043l-0.405-0.475l-0.572-0.367h-0.364l-0.042,0.162l0.322,0.27l0.547,0.125l0.129,0.153l-0.062,0.294l-0.187-0.011l-0.437-0.248l-0.11-0.007l-0.046,0.061l0.379,0.307l-0.026,0.157l-1.081,0.076l-1.226-0.216l-0.312-0.011l-0.239,0.184l-0.281,0.022l-0.22-0.244v-0.459l-0.179-0.559l-0.152-0.1l-0.497-0.029l-0.423-0.191l-0.764-0.741l0.11-0.143l0.387-0.086l1.077,0.091l1.472-0.229l0.447-0.231l0.031-0.189l-0.368-0.115l-1.031,0.382h-1.583l-0.439-0.038l-0.021-0.14l0.291-0.184v-0.13l-0.582,0.076l-0.943-0.119l-0.762-0.421l-0.042-0.238l0.281-0.173l-0.177-0.163l-0.322,0.077l-0.478-0.097l-0.12-0.362l0.479-0.459l0.654-0.02l0.033-0.097l-0.319-0.151l-0.736-0.115l-0.994-0.535l-0.184-0.306l0.06-0.116l0.382-0.075l1.436,0.268l0.724,0.259l1.19,0.219l0.649,0.219l0.128-0.02l0.125-0.214l-0.068-0.172l-0.115-0.047l-0.287-0.036l-0.099-0.151v-0.13l0.13-0.104l0.345-0.014l0.11-0.096l-0.008-0.078l-0.407-0.083l-0.322,0.047l-0.194-0.01l-0.542-0.238l-0.167-0.022l-0.643,0.06l-0.222-0.014l-0.735-0.388V68.81l0.495-0.343l0.13-0.352l0.638-0.512l0.062-0.374l-0.186-0.073l-0.686,0.117l-0.065,0.124l0.104,0.222l-0.018,0.112l-0.187,0.117l-0.287-0.091l-0.092-0.144l-0.055-0.534l0.07-0.124l0.235-0.099l0.025-0.103l-0.122-0.056l-0.689-0.135l-0.305,0.059l-0.104,0.118l0.014,0.089l0.213,0.101l0.308,0.268l0.181,0.347l0.063,0.591l-0.109,0.34l-0.618,0.444l-0.671,0.018l-0.513-0.336l-0.104-0.195l-0.008-0.61l-0.222-0.396l-0.698-0.509l-0.074-0.392l0.331-0.448l0.039-0.238l-0.208-0.169l-0.604-0.191l-0.258-0.262l0.055-0.224l0.18-0.063l1.09,0.213l0.865,0.019l0.018-0.093l-0.773-0.131l-0.736-0.262l0.018-0.149l0.46-0.064h0.681l1.086,0.223l0.368-0.019l0.037-0.13l-1.068-0.334l-0.345-0.346l-0.023-0.285l0.184-0.408l0.173-0.057l0.416,0.095l0.331,0.26l0.294-0.074l-0.09-0.361l0.137-0.256l0.395-0.199l0.626,0.111l0.525,0.798l0.221,0.835l0.166,0.084l0.11-0.362l0.221-0.083l0.166,0.223l0.028,0.306l0.184-0.019l0.155-0.348l-0.045-0.245l-0.515-0.612l-0.083-0.445l0.304-0.204l0.589,0.037l0.699,0.631l1.068-0.074l0.773-0.408l2.486-0.52l0.533,0.186l0.184,0.594l-0.184,0.52l-0.736,0.334h-1.436l-0.883,0.111l-1.227,0.705l-0.407,0.073l-0.407-0.021l-0.375,0.261l-0.027,0.283l0.167,0.127l0.472-0.077l0.578-0.363l1.557-0.31l0.994,0.112l0.118,0.257l-0.094,0.264l-0.539,0.151l-0.148,0.208l0.094,0.233l0.311,0.094l0.177-0.042l0.155-0.194l0.405-0.037l1.031,0.71l0.184,0.523l-0.013,0.427l0.307,0.134l0.442-0.318l0.074-0.43l-0.847-1.345l0.034-0.378l0.229-0.286l0.546-0.196l0.63-0.424l0.193-0.446l0.36-0.513l0.412-0.139l0.724,0.028l0.513,0.208l0.15,0.163l0.344,0.532l0.23,0.2l0.494,0.278l0.117,0.112l0.104,0.56l0.125,0.197l0.334,0.292l0.276,0.642l0.038,0.513l0.229,0.266l0.351,0.074l0.47,0.5l0.055,0.346l-0.322,0.36l-0.038,0.219l0.139,0.401h0.147l0.037-0.339l0.316-0.176l0.266,0.064l0.412,0.338l0.479,0.98l0.699,0.716l0.626,0.189l0.037-0.377l-1.104-1.659l-0.294-0.83l-0.479-0.49l-0.184-0.377l-0.078-0.563l-0.036-0.507l-0.401-1.49l-0.373-0.486l-0.179-0.493l-0.085-0.483l0.077-0.211l0.203-0.259l0.302-0.031l0.864,0.174l0.234-0.113l0.01-0.177l-0.502-0.262l0.037-0.479l0.773-0.736l0.626-0.074l0.847,0.258l0.213,0.187l0.228,0.807l0.424,0.497l0.281,0.052l0.141-0.107l-0.074-0.515l0.368-0.258l1.325,0.294l1.365,0.587l0.897,0.627l0.258,0.388l-0.098,0.327l-0.686,0.59l-0.264,0.606l0.221,0.934l-0.264,0.342l-0.265,0.197l0.04,0.112l0.158,0.022l0.663-0.262l0.442-0.486l0.304-1.182l0.25-0.296l0.55-0.054l1.325,0.635l0.663,0.972L711.345,66.59z M720.907,58.423l0.221-0.191l-0.129-0.122l-0.479,0.122l-0.182,0.179l-0.002,0.065l0.193,0.046L720.907,58.423z M716.803,56.999l0.037-0.174l-0.221-0.122l-0.184,0.104l0.092,0.208L716.803,56.999z M685.95,70.088l0.577,0.063l0.2-0.094l0.021-0.075l-0.248-0.141l-0.525,0.028l-0.093,0.121L685.95,70.088z M683.38,62.616l0.184-0.056l0.011-0.083l-0.103-0.158l-0.202-0.056l-0.108,0.158l0.042,0.125L683.38,62.616z M684.024,62.541l0.055-0.186l-0.11-0.13l-0.166,0.093l0.037,0.204L684.024,62.541z M683.583,63.062l0.128-0.038l0.017-0.082l-0.072-0.067l-0.239-0.056l-0.154,0.088l0.019,0.071L683.583,63.062z M714.493,64.291l0.29,0.026l0.262-0.026l-0.016-0.098l-0.453-0.071l-0.152,0.078L714.493,64.291z M714.042,66.294l0.313-0.053l-0.037-0.123l-0.386-0.035l-0.113,0.088l0.001,0.092L714.042,66.294z M721.74,69.838l0.345-0.029l0.331-0.043l-0.11-0.143l-0.649-0.014l-0.166,0.1L721.74,69.838z M719.241,69.394l0.525-0.043l0.221-0.1l-0.028-0.115l-0.856,0.1l-0.028,0.129L719.241,69.394z M713.72,67.587l0.235-0.072l-0.083-0.115l-0.58,0.043l-0.083,0.158L713.72,67.587z M719.821,67.601h0.193l-0.003-0.062l-0.163-0.069l-0.29-0.078l-0.047,0.084L719.821,67.601z M727.303,83.774l0.414-0.143v-0.143l-0.201-0.05l-0.461,0.107l-0.134,0.16l0.07,0.087L727.303,83.774z M730.685,57.164l0.387,0.039l0.032-0.133l-0.391-0.14l-0.304,0.039l-0.012,0.104L730.685,57.164z M747.746,71.654l0.235-0.039l-0.014-0.143l-0.262-0.013l-0.069,0.091L747.746,71.654z M738.171,59.796l0.184-0.069l-0.11-0.104l-0.202,0.017l-0.055,0.122L738.171,59.796z M737.876,57.433l0.166-0.017v-0.139l-0.239-0.087l-0.129,0.122L737.876,57.433z M738.521,57.485l0.147-0.104l-0.055-0.122l-0.166,0.017l-0.092,0.139L738.521,57.485z M724.772,82.875l0.22,0.017l0.021-0.097l-0.146-0.097l-0.294-0.059l-0.089,0.048l-0.006,0.093L724.772,82.875z M720.216,72.715l0.181-0.067l-0.052-0.151l-0.233-0.006l-0.081,0.042l-0.015,0.11L720.216,72.715z M708.576,61.724l0.011,0.087l0.081,0.015l0.386-0.17l0.318-0.017l0.11-0.064l-0.004-0.061l-0.129-0.045l-0.479,0.068L708.576,61.724z"/>
</svg>
