<svg xmlns="http://www.w3.org/2000/svg" viewBox="796.796 452.939 1.634 2.035">
  <path d="M798.422,452.939l0.008,0.029l-0.042,0.073l-0.044,0.029l-0.026,-0.016l0.016,-0.05l0.063,-0.065h0.026Z M797.635,453.966l0.031,-0.052l0.117,-0.128l-0.01,-0.018l-0.039,0.016l-0.091,0.115l-0.023,0.06l0.016,0.008h0Z M798.111,453.396l0.071,-0.068l0.063,-0.085l-0.005,-0.009l-0.049,0.038l-0.089,0.116l0.009,0.007h0Z M797.232,454.41l0.028,-0.006l0.058,-0.076v-0.029s-0.018,-0.005s-0.018,-0.005l-0.071,0.066l-0.011,0.04l0.015,0.01h0Z M797.041,454.682l0.047,-0.034v-0.021l-0.026,-0.005l-0.031,0.016l-0.008,0.035l0.018,0.01h0Z M796.809,454.974l0.047,-0.029l0.013,-0.026l-0.013,-0.013l-0.034,0.018l-0.026,0.036l0.013,0.013h0Z "/>
</svg>
