<svg xmlns="http://www.w3.org/2000/svg" viewBox="799.660 407.611 23.815 13.220">
  <path d="M802.538,407.936l0.005-0.042l0.031-0.031h0.034l0.013,0.031l-0.013,0.039l-0.039,0.013L802.538,407.936L802.538,407.936z M802.574,407.668l0.029-0.023l0.003-0.029l-0.021-0.005l-0.021,0.016l-0.01,0.034L802.574,407.668L802.574,407.668z M800.743,409.543l0.497-0.793l0.568-0.908l0.049,0.011l0.092-0.024l0.104,0.04l0.023,0.046l0.078,0.063l0.032,0.06l0.107,0.081l0.091,0.01l0.146,0.071l0.065,0.005l0.065-0.024l0.029,0.016l-0.013,0.062l-0.029,0.055l0.031,0.141l0.011,0.169l0.062,0.149l0.071,0.07l0.062,0.029l0.047,0.052l0.091,0.219l0.151,0.208l0.076,0.133l0.063,0.154l0.417,0.516l0.638,0.592l0.48,0.333l0.069,0.118l0.118,0.105l0.146,0.048l0.236,0.16l0.244,0.243l0.389,0.16l0.208-0.034l0.327,0.034l0.132,0.042l0.243-0.014l0.174-0.097l0.285-0.049l0.486,0.056l0.251-0.035l0.187-0.09l0.063-0.091l0.292-0.187l0.194-0.039l0.257-0.121l0.296-0.375l0.135-0.037l0.386-0.005l0.443-0.209l0.083-0.151l0.073-0.042l0.219-0.052l0.318-0.182l0.084-0.115l0.12-0.015l0.364,0.14l0.24,0.162l0.36,0.078l0.271,0.005l0.25-0.078l0.177,0.031l0.188,0.146l0.083,0.125l0.209,0.063l0.219,0.01l0.271-0.09l0.285-0.076l0.17-0.014l0.705-0.372l0.23-0.222l0.166-0.091l0.133-0.024l0.09-0.052l0.045-0.084l0.09-0.048l0.136-0.011l0.142-0.083l0.122-0.233l0.122-0.073l0.118-0.017l0.156-0.059l0.163-0.129l0.466-0.181l0.327-0.048l0.18,0.038l0.306,0.236l0.122,0.063l0.153,0.021l0.212-0.091l0.232-0.017l0.129,0.038l0.132-0.01l0.087-0.039h0.069l0.091,0.018h0.302l0.414-0.066l0.146-0.097l0.121-0.139l0.084-0.053l0.159-0.02l0.098-0.059l0.097-0.136l0.24-0.07l0.142,0.007l0.132-0.02l0.132-0.087l0.16-0.025l0.104,0.025l0.112-0.004l0.093-0.052l0.146,0.007l0.403,0.129l0.376,0.166l0.104,0.023l0.412,1.751l0.182,6.219l-4.378,4.181l-3.434,0.014l-11.09-3.682l-1.301-1.332h-0.172l-0.177-0.073l-0.14-0.026l-0.146-0.104l-0.131-0.136l-0.088-0.218l-0.037-0.141l-0.172-0.172l-0.214-0.073l-0.166-0.912l-0.282-0.162l-0.083-0.026l-0.068,0.005l-0.052,0.032l-0.141-0.063l-0.292-0.693l-0.151-0.162l-0.083-0.031l-0.104-0.156l-0.225-0.157l-0.01-0.104l-0.156-0.365l-0.047-0.031v-0.381l-0.068-0.099l-0.136-0.088v-0.052l-0.041-0.042l-0.063-0.016l-0.057-0.094l-0.005-0.078l-0.105-0.13l0.011-0.063l0.151-0.047l0.13-0.25l0.089-0.125l0.104-0.062l0.11-0.141l0.083-0.214l0.063-0.052l0.135-0.047l0.099-0.182l-0.021-0.12l0.129-0.223L800.743,409.543z"/>
</svg>
