<svg xmlns="http://www.w3.org/2000/svg" viewBox="407.097 382.635 0.676 0.469">
  <path d="M407.333,382.947l0.049-0.016l0.002-0.019l0.014-0.011h0.018l0.015-0.025l0.022,0.003l0.016-0.005l0.046,0.032l0.015-0.008l0.028,0.014l0.02-0.014l0.017,0.005l0.012,0.043l-0.008,0.022l-0.014,0.007l-0.004,0.017l0.01,0.009l-0.006,0.014l-0.012,0.008l-0.007,0.025l-0.048,0.056l-0.017-0.002l0.003-0.023l-0.008-0.013l0.005-0.022l-0.021-0.012l-0.024,0.004l-0.01,0.014l0.005,0.016l-0.005,0.014l-0.008-0.01l-0.002-0.015l-0.015-0.004l-0.014,0.011l-0.015-0.007v-0.011l-0.01-0.001l-0.008,0.014l-0.008-0.005v-0.018l-0.019-0.004l-0.017,0.003l-0.019-0.014l-0.002-0.013l0.01-0.007l-0.015-0.022l-0.028-0.007l-0.03,0.007l-0.007,0.024h-0.006v-0.016l-0.016-0.003l-0.021-0.023l0.001-0.014l-0.023-0.013l-0.012,0.002l-0.014-0.02l0.014-0.002h0.008l0.036,0.011l0.029,0.001l0.012,0.017l0.025,0.018l0.032-0.003l0.017,0.026l0.023,0.021h0.008l-0.012-0.028l-0.007-0.028L407.333,382.947z"/>
  <path fill="#999" d="M407.623,382.772l0.006-0.007l0.006,0.007l-0.006,0.012h-0.008L407.623,382.772z M407.759,382.67l0.014-0.014l-0.003-0.021l-0.033,0.001l-0.028,0.022l-0.003,0.023L407.759,382.67z M407.612,382.72l0.011-0.008l0.001-0.008l-0.014-0.003l-0.007,0.014L407.612,382.72z M407.243,382.835l0.01-0.003l0.002-0.01l-0.01-0.002l-0.005,0.008L407.243,382.835z M407.279,382.928l0.007-0.003l0.002-0.009l-0.01-0.002l-0.005,0.007L407.279,382.928z M407.623,382.772l0.006-0.007l0.006,0.007l-0.006,0.012h-0.008L407.623,382.772z M407.759,382.67l0.014-0.014l-0.003-0.021l-0.033,0.001l-0.028,0.022l-0.003,0.023L407.759,382.67z M407.612,382.72l0.011-0.008l0.001-0.008l-0.014-0.003l-0.007,0.014L407.612,382.72z M407.243,382.835l0.01-0.003l0.002-0.01l-0.01-0.002l-0.005,0.008L407.243,382.835z M407.279,382.928l0.007-0.003l0.002-0.009l-0.01-0.002l-0.005,0.007L407.279,382.928z M407.333,382.947l0.049-0.016l0.002-0.019l0.014-0.011h0.018l0.015-0.025l0.022,0.003l0.016-0.005l0.046,0.032l0.015-0.008l0.028,0.014l0.02-0.014l0.017,0.005l0.012-0.001l0.016,0.012l0.009-0.002l-0.016-0.031l0.009-0.011l-0.009-0.009l-0.014-0.005l-0.01-0.017l0.009-0.017h0.016l0.008-0.012l-0.034-0.029l-0.013-0.035l0.007-0.022l-0.011-0.011l0.006-0.011l0.015,0.003l0.006-0.013l-0.011-0.014l0.001-0.03l-0.021-0.011l-0.021,0.005l-0.024-0.002l-0.009,0.014l0.006,0.02l-0.014,0.004l-0.01-0.011l-0.019-0.007l-0.01,0.007v0.042l-0.022,0.02l-0.025,0.003l-0.015-0.008l-0.018,0.011v0.019l-0.02,0.011l-0.006,0.014l-0.011,0.006l-0.001,0.012l0.014,0.014l-0.002,0.016l-0.016,0.02l0.001,0.014l-0.017,0.013l-0.02,0.003l-0.011,0.011l-0.029-0.001l-0.031-0.018l-0.007-0.017l0.016-0.007l-0.006-0.006l-0.023,0.004l-0.018,0.012l-0.028-0.004l-0.03-0.017l-0.022,0.007l-0.007,0.02l-0.018,0.015l0.008,0.011l0.023,0.005l0.018,0.01l0.002,0.012l0.014-0.002h0.008l0.005-0.013l0.017-0.009l0.015-0.016l0.019-0.004l0.041,0.029h0.051l0.024-0.02l0.002,0.009l-0.015,0.036l-0.016,0.004l0.002,0.009l0.018,0.01L407.333,382.947z"/>
</svg>
