<svg xmlns="http://www.w3.org/2000/svg" viewBox="755.601 548.065 4.934 6.340">
  <path d="M760.016,548.991l-0.392,0.183l-1.69-1.109l-0.371,0.101l-0.173,0.237l-0.528,0.461l-0.05,0.248l-0.544,1.06l-0.282,0.276l-0.129,0.247l-0.096,0.103l-0.1,0.227l-0.06,0.385v0.586l0.047,0.433l0.04,0.07l0.029,0.002l0.08-0.076l0.067-0.001l0.096-0.072l0.01-0.091l0.016-0.001l0.039,0.3l0.267,0.206l0.002,0.198l-0.062,0.132l0.091,0.175l0.272,0.219l0.358,0.444l1.285,0.462l1.717,0.009l-0.011-0.797l0.032-0.219l0.01-0.209l0.055-0.268l0.003-0.036l-0.013-0.029l0.002-0.054l0.06-0.366l-0.015-0.023l0.002-0.039l0.071-0.008l0.073,0.047l0.047-0.003l0.06-0.049l0.063,0.003l0.042,0.018l0.021,0.075l0.034,0.044l0.044,0.005v-1.25l-0.206-0.474v-0.429l0.107-0.503l-0.071-0.524v-0.098l-0.16-0.045l-0.053-0.041l-0.028,0.025l-0.108-0.167L760.016,548.991z"/>
</svg>
