<svg xmlns="http://www.w3.org/2000/svg" viewBox="755.522 547.940 4.985 6.302">
  <path d="M759.925,548.862l-0.391,0.182l-1.685-1.104l-0.371,0.101l-0.172,0.236l-0.527,0.459l-0.049,0.247l-0.543,1.054l-0.282,0.275l-0.128,0.246l-0.096,0.103l-0.099,0.226l-0.06,0.383v0.583l0.047,0.431l0.039,0.07l0.029,0.002l0.08-0.075l0.067-0.002l0.096-0.072l0.01-0.09l0.015-0.001l0.039,0.298l0.266,0.205l0.003,0.198l-0.062,0.131l0.091,0.174l0.271,0.219l0.357,0.441l1.281,0.46h1.776l-0.01-0.794l0.031-0.218l0.011-0.208l0.055-0.267l0.002-0.035l-0.013-0.029l0.003-0.054l0.06-0.364l-0.016-0.023l0.003-0.039l0.07-0.007l0.073,0.046l0.047-0.003l0.06-0.049l0.063,0.003l0.041,0.018l0.021,0.074l0.034,0.044l0.045,0.005v-1.243l-0.206-0.472v-0.428l0.106-0.5l-0.07-0.521v-0.098l-0.224-0.036l-0.052-0.041l-0.029,0.026l-0.107-0.167L759.925,548.862z"/>
</svg>
