<svg xmlns="http://www.w3.org/2000/svg" viewBox="1002.359 373.794 30.769 55.973">
  <path d="M1011.633078,425.629037l0.023529,-0.015686l0.031372,0.013072l0.020915,0.044444l-0.020915,0.036601l-0.054902,-0.002614l-0.013072,-0.023529l0.013072,-0.052287Z M1009.098955,426.312951l0.010457,0.018301l0.08366,0.007843l0.188235,-0.049673l0.04183,-0.026144l-0.005229,-0.052287l-0.036601,-0.018301h-0.107189l-0.073202,0.020915l-0.057516,0.04183l-0.013072,0.036601l-0.031372,0.020915Z M1009.561699,426.548244l0.04183,-0.005229l0.007843,-0.018301l-0.007843,-0.015686l-0.026144,-0.002614l-0.033987,0.013072l-0.007843,0.015686l0.026144,0.013072Z M1009.62183,426.451513l0.044444,-0.047059l0.005229,-0.062745l-0.015686,-0.054902l-0.04183,-0.036601l-0.088889,-0.033987l-0.026144,0.005229l-0.007843,0.047059l0.023529,0.075817l0.007843,0.091503l0.031372,0.023529l0.067974,-0.007843Z M1010.8715,426.446284l0.036601,0.010457l0.039216,-0.010457l0.020915,-0.075817l0.018301,-0.018301l0.026144,0.005229l0.028758,0.002614l0.018301,-0.023529l-0.007843,-0.214379l-0.031372,-0.028758l-0.026144,-0.060131l0.002614,-0.049673l0.026144,-0.04183l-0.005229,-0.078431l-0.057516,-0.104575l-0.020915,-0.067974l-0.04183,-0.073202h-0.020915l-0.015686,0.031372v0.075817l0.007843,0.04183l-0.018301,0.062745l-0.067974,0.067974l-0.020915,0.049673l0.007843,0.047059l-0.015686,0.049673l-0.039216,0.031372l-0.015686,0.028758l-0.002614,0.047059l0.052287,0.078431l0.04183,0.020915l0.054902,0.075817l0.005229,0.052287l0.020915,0.067974Z M1008.604838,422.158711l-0.005229,0.04183l-0.036601,0.026144l-0.005229,0.020915l0.018301,0.039216l-0.002614,0.138562l0.033987,0.151634l0.133333,0.256209l0.08366,0.062745l0.026144,-0.005229l0.018301,-0.060131l-0.007843,-0.052287l-0.033987,-0.091503l-0.073202,-0.104575l-0.005229,-0.060131l0.018301,-0.081046l0.044444,-0.033987l0.060131,0.005229l0.036601,0.033987l0.015686,-0.005229l0.002614,-0.070588l-0.005229,-0.070588l0.010457,-0.091503l-0.028758,-0.073202l-0.047059,-0.020915h-0.044444l-0.08366,-0.023529l-0.065359,-0.002614l-0.04183,0.026144l-0.015686,0.044444Z M1007.598304,421.918188l0.018301,-0.005229l0.039216,0.013072l0.023529,-0.010457l0.002614,-0.026144l-0.04183,-0.096732l-0.054902,-0.047059l-0.013072,0.005229v0.033987l0.028758,0.073202l-0.005229,0.018301l-0.028758,0.002614l-0.015686,0.036601l0.013072,0.039216l0.020915,0.002614l0.013072,-0.039216Z M1008.393074,421.709039l0.026144,-0.002614l0.002614,-0.031372l-0.028758,-0.094117l-0.031372,-0.054902v-0.039216l-0.033987,-0.020915h-0.065359l-0.031372,0.028758l0.007843,0.031372l0.065359,0.049673l0.060131,0.101961l0.028758,0.031372Z M1008.434904,421.366556l0.007843,-0.049673v-0.052287l-0.028758,-0.052287l-0.044444,-0.005229l-0.015686,0.036601l0.005229,0.091503l0.054902,0.104575h0.018301l0.002614,-0.073202Z M1008.502878,421.492045l0.033987,0.036601l0.026144,-0.002614l0.026144,-0.062745l0.002614,-0.04183l-0.054902,-0.062745l-0.049673,0.005229l-0.015686,0.028758l0.031372,0.099346Z M1006.876737,420.516884l0.015686,0.039216l0.028758,0.005229l0.04183,-0.007843l0.036601,0.013072v0.026144l0.023529,0.033987l0.018301,-0.002614l0.002614,-0.062745l0.031372,-0.065359l0.039216,-0.146405l-0.007843,-0.099346l-0.026144,-0.010457l-0.023529,0.013072l-0.091503,0.122876l-0.010457,0.054902l-0.031372,0.04183l-0.065359,0.005229l-0.007843,0.018301l0.026144,0.020915Z M1006.714646,420.563943l-0.010457,0.036601l0.007843,0.044444l0.04183,0.033987l0.018301,0.075817l0.047059,0.062745l0.044444,0.002614l0.054902,0.047059l0.010457,0.036601l-0.020915,0.039216l-0.044444,0.013072l-0.013072,0.039216l0.010457,0.104575l0.018301,0.094117l-0.005229,0.049673l0.013072,0.04183l0.020915,0.002614l0.015686,-0.023529l0.020915,0.023529l0.010457,0.039216l0.015686,-0.007843l0.002614,-0.047059l0.04183,-0.130719l0.005229,-0.109804l-0.031372,-0.081046v-0.120261l0.010457,-0.039216l-0.005229,-0.044444l-0.028758,-0.039216l-0.013072,-0.060131l-0.018301,-0.013072l-0.054902,0.007843l-0.057516,-0.026144l-0.036601,-0.049673l-0.049673,-0.033987l-0.020915,0.002614v0.028758Z M1005.825759,420.276362l0.036601,0.198692l-0.005229,0.08366l-0.081046,0.067974l-0.023529,0.044444l0.002614,0.065359l0.010457,0.04183l0.033987,0.039216l0.028758,0.052287l-0.007843,0.062745l-0.060131,0.036601l-0.002614,0.036601l0.018301,0.031372v0.039216l-0.026144,0.036601l-0.039216,0.028758v0.04183l0.031372,0.031372l0.067974,0.028758l0.018301,0.054902l-0.036601,0.031372l-0.049673,0.005229l-0.010457,0.020915l0.036601,0.054902l0.070588,0.065359l0.005229,0.081046l-0.013072,0.156862l0.033987,0.073202l0.039216,0.013072l0.062745,-0.013072l0.028758,-0.08366l0.028758,-0.101961l0.060131,-0.073202l0.044444,-0.005229l0.026144,0.026144l0.005229,0.049673l0.020915,0.026144l0.028758,0.002614l0.039216,0.023529l0.013072,-0.005229l-0.020915,-0.099346l-0.031372,-0.060131l0.007843,-0.039216l0.036601,-0.047059l0.094117,-0.018301l0.033987,-0.039216v-0.062745l-0.013072,-0.020915l-0.020915,0.002614l-0.028758,0.031372l-0.020915,-0.013072l-0.002614,-0.036601l-0.015686,-0.039216l-0.062745,-0.086274v-0.08366l0.023529,-0.052287l0.047059,-0.015686l0.007843,-0.018301l-0.010457,-0.023529l-0.002614,-0.054902l0.018301,-0.067974l0.031372,-0.026144l0.033987,-0.075817l0.013072,-0.101961l-0.020915,-0.018301l-0.039216,0.005229l-0.054902,0.031372l-0.052287,-0.002614l-0.057516,-0.047059l-0.023529,-0.060131l-0.026144,-0.020915h-0.04183l-0.015686,-0.023529l-0.005229,-0.078431l-0.047059,-0.094117l-0.154248,-0.091503l-0.028758,0.005229l-0.005229,0.033987l0.018301,0.039216Z M1009.537516,423.256748l0.003922,0.043137l0.037255,0.019608l0.021569,-0.007843l0.013725,-0.037255l-0.015686,-0.047059l-0.054902,-0.029412l-0.019608,0.017647l0.013725,0.041176Z M1009.841437,423.692041l-0.015686,0.058823l0.003922,0.062745l0.029412,0.041176l0.043137,0.007843l0.019608,-0.005882l0.013725,-0.047059l0.02549,-0.05098l0.058823,-0.035294l0.084314,-0.007843l0.007843,-0.013725l-0.027451,-0.037255l-0.031372,-0.017647l-0.047059,0.005882l-0.058823,-0.003922l-0.031372,-0.031372l-0.037255,0.001961l-0.035294,0.029412l-0.001961,0.043137Z M1010.543396,424.221452l0.005882,0.043137l0.039216,0.029412l0.090196,0.019608l0.058823,0.02549l0.011765,-0.013725l-0.023529,-0.047059l-0.058823,-0.041176l-0.066667,-0.019608l-0.064706,-0.037255l-0.009804,0.009804l0.017647,0.031372Z M1006.051497,422.422124l0.034644,0.020787l0.038109,-0.020787l0.010393,-0.041573l-0.024251,-0.017322l-0.034644,0.010393l-0.024251,0.048502Z M1006.774275,420.347404l-0.016046,0.010858l0.0036,0.039363l0.03372,0.036319l0.027865,-0.009712l-0.004561,-0.024463l-0.044578,-0.052364Z M1009.068619,426.338712l-0.011364,0.015691l0.016846,0.035758l0.044108,0.022595l0.022863,-0.018657l-0.012653,-0.021428l-0.059799,-0.03396Z M1006.100918,421.874234l-0.004877,0.022053l0.038923,0.00058l0.053417,-0.030502l0.001771,-0.015392l-0.035075,-0.000138l-0.054159,0.023399Z M1006.595963,420.283221l0.016303,-0.003239l0.004137,-0.03565l-0.010848,-0.042841l-0.015932,-0.005483l-0.007357,0.039445l0.013697,0.047768Z M1006.907548,419.843099l0.005197,0.018188l0.025983,0.005197l0.025983,-0.01559v-0.018188l-0.03118,-0.005197l-0.025983,0.01559Z M1011.335688,425.41632l0.02381,0.014573l0.02866,-0.008386l0.004339,-0.028794l-0.018523,-0.010137l-0.036646,0.017903l-0.001641,0.01484Z M1006.62893,420.140845l0.010433,0.019268l0.022581,-0.021571l0.003717,-0.028798l-0.019968,-0.003515l-0.016762,0.034617Z M1010.4573,425.26866l0.02533,-0.006932l0.004519,-0.015721l-0.022492,-0.014537l-0.028396,0.012309l-0.000634,0.019704l0.021673,0.005177Z M1006.532617,421.821546l0.019054,0.001732l0.012126,-0.022519l-0.005197,-0.022519l-0.01559,-0.006929l-0.012126,0.017322l0.001732,0.032912Z M1007.065182,419.93307l0.013095,0.015799l0.009666,-0.013801l-0.009914,-0.02724l-0.016629,-0.001292l0.003782,0.026534Z M1006.959508,420.121089l0.009033,-0.002158l0.016762,-0.023102l-0.004745,-0.010369l-0.008397,0.003323l-0.01252,0.019542l-0.000134,0.012764Z M1011.061489,424.285032l0.006541,0.01762l0.011404,-0.001056l0.002761,-0.017945l-0.012423,-0.008282l-0.008282,0.009663Z M1009.421286,423.470506l-0.016609,-0.033218l-0.011626,-0.003322l-0.007153,0.010092l0.022101,0.048039h0.014948l-0.001661,-0.021592Z M1008.471468,421.240139l0.010646,0.031526l0.013172,-0.000736l0.005338,-0.034925l-0.013166,-0.019539l-0.015835,-0.002077l-0.000156,0.025751Z M1006.746208,420.26844l0.003464,0.019054l0.013858,0.003464l0.010393,-0.01559v-0.029448l-0.013858,-0.006929 l-0.013858,0.029448Z M1008.657362,423.8905l0.024404,0.02009l0.021644,-0.011506l0.005638,-0.035749l-0.020252,-0.011693l-0.022944,0.013756l-0.008491,0.025101Z M1006.560092,419.837266l0.008412,0.04086l0.027931,0.000124l0.005321,-0.036932l-0.021806,-0.024591l-0.019858,0.020538Z M1008.651625,421.363784l0.011723,-0.015837l-0.006077,-0.020128l-0.013406,0.007645l-0.008771,0.01508l0.003596,0.015056l0.012934,-0.001817Z M1007.14353,420.02658l0.019161,-0.004596l0.008282,-0.019325l-0.015184,-0.002761l-0.016412,0.005915l-0.006923,0.013845l0.011076,0.006923Z M1009.027289,422.454755l-0.001199,-0.019668l-0.017593,-0.011512l-0.005355,0.014474l0.002975,0.01719l0.012433,0.009222l0.008741,-0.009706Z M1007.605659,422.118677l-0.004596,-0.019161l-0.019325,-0.008282l-0.002761,0.015184l0.005915,0.016412l0.013845,0.006923l0.006923,-0.011076Z M1006.472926,420.707043l0.027893,0.062542l0.017799,0.005294l0.009913,-0.0203l-0.016542,-0.045992l-0.027996,-0.015302l-0.011066,0.013757Z M1012.475305,426.608794l0.014715,0.00212l0.005016,-0.011449l-0.003672,-0.021247l-0.0149,0.000961l-0.006582,0.016921l0.005422,0.012694Z M1006.549105,419.677853l0.020787,0.003464l0.006929,-0.008661l-0.01559,-0.019054l-0.019054,-0.001732l-0.001732,0.012126l0.008661,0.013858Z M1008.915764,422.6454l0.024421,0.031905l0.023663,0.00634l0.000742,-0.026431l-0.03285,-0.04304l-0.018064,-0.003572l0.002089,0.034798Z M1011.653774,425.896323l0.0522,-0.023987l0.014441,-0.016488l-0.007275,-0.019748l-0.039416,0.004701l-0.031271,0.022055l-0.003974,0.024297l0.015296,0.009171Z M1008.41899,421.594467l0.01806,0.012646l0.013248,-0.014649l-0.005715,-0.032412l-0.017257,-0.018064l-0.018464,0.005015l0.010128,0.047465Z M1008.751213,423.805801l0.005706,-0.021296l-0.018296,-0.007439l-0.028503,0.016456l-0.011073,0.022395l0.011027,0.015636l0.041138,-0.025751Z M1011.531783,425.675768l0.017241,-0.011548l-0.00074,-0.012324l-0.03012,0.003045l-0.021333,0.015504l0.009478,0.013655l0.025474,-0.008332Z M1008.993232,422.323504l0.017093,0.021378l0.016158,-0.006977l-0.000444,-0.054612l-0.012633,-0.016886l-0.0167,0.009542l-0.003475,0.047553Z M1011.727571,425.795659l0.000718,-0.027991l-0.010829,-0.010345l-0.01267,0.016042l-0.004248,0.016121l0.003452,0.020291l0.012031,0.003527l0.011547,-0.017646Z M1006.451,421.079757l-0.005673,-0.016798l-0.014785,-0.003908l-0.01136,0.015019l0.007447,0.015971l0.013484,0.003434l0.010886,-0.013718Z M1011.053094,426.417564l0.013845,-0.011076l-0.001385,-0.01523l-0.017999,-0.005538l-0.012461,0.012461l0.001385,0.013845l0.016614,0.005538Z M1011.097744,426.415689l0.009619,-0.013617l-0.006156,-0.014202l-0.012045,-0.002877l-0.009789,0.011667l0.004206,0.014373l0.014166,0.004657Z M1010.168596,426.186199l0.011837,-0.01174l-0.003596,-0.015056l-0.011362,-0.004925l-0.011667,0.009789l0.001646,0.014885l0.013142,0.007046Z M1010.248505,424.514463l-0.007729,-0.020944l-0.012386,-0.006778l-0.003938,0.011155l0.006327,0.016153l0.012898,0.01263l0.004828,-0.012215Z M1006.473778,419.773873l-0.032334,-0.011236l-0.02679,0.004185l0.001953,0.01673l0.04183,0.020915l0.023321,-0.007931l-0.00798,-0.022663Z M1009.752179,426.229572l-0.005864,0.026602l0.010267,0.017403l0.015721,-0.004519l0.002457,-0.028079l-0.006859,-0.015926l-0.015721,0.004519Z M1006.353112,421.154238l-0.036636,-0.005145l-0.023653,0.015987l0.015987,0.023653l0.034116,0.008149l0.021133,-0.012983l-0.010946,-0.029661Z M1005.926557,422.758434l-0.014123,0.040147l0.025256,0.008544l0.028314,-0.022898l0.00733,-0.044069l-0.016199,-0.003315l-0.030578,0.02159Z M1006.092898,421.715316l0.052259,0.024585l0.045792,-0.011155l0.006259,-0.017197l-0.026572,-0.026364l-0.041096,-0.009393l-0.033509,0.015625l-0.003134,0.023899Z M1011.049636,425.289031l0.020915,-0.047059l-0.005229,-0.054902l-0.026144,0.002614l-0.015686,0.04183v0.057516h0.026144Z M1009.240649,423.127825l0.006147,-0.035796l-0.024286,-0.044268l-0.023458,0.007619l-0.010152,0.032435l0.027324,0.036579l0.024424,0.00343Z M1010.152346,426.254595l0.011136,-0.019385l-0.001879,-0.027457l-0.011923,-0.000304l-0.014474,0.023815l0.001879,0.027457l0.015261,-0.004125Z M1013.328769,422.939189l0.036601,-0.02358l0.002614,-0.02882l-0.018301,-0.00786l-0.018301,0.01048l-0.013072,0.04192l0.010457,0.00786Z M1011.08065,424.774392l0.015686,0.031372l0.048366,0.037908l0.035294,0.011765l0.022222,-0.006536l-0.001961,-0.037255l-0.027451,-0.043137l-0.056863,-0.019608l-0.027451,0.007843l-0.007843,0.017647Z M1010.308899,423.312262l0.007292,-0.023958l0.002083,-0.029167l-0.007292,-0.0125l-0.010417,0.001042l-0.01875,0.020833l0.001042,0.028125l0.0125,0.060417l0.009375,-0.002083l0.004167,-0.042708Z M1010.332858,423.186221v0.013542l0.008333,0.002083l0.008333,-0.011458l-0.001042,-0.019792l-0.00625,-0.002083l-0.009375,0.017708Z M1010.725095,423.982237l-0.003922,0.026144l-0.00915,0.022222l0.013072,0.006536l0.027451,-0.007843l0.013072,-0.018301l-0.001307,-0.027451l-0.040523,-0.035294l-0.010457,0.005229l0.011765,0.028758Z M1008.725099,421.143027l0.010457,0.00915l0.015686,-0.011765l0.003922,-0.018301l-0.006536,-0.007843l-0.018301,0.005229l-0.006536,0.010457l0.001307,0.013072Z M1008.71072,421.271131l-0.005229,0.033987l-0.015686,0.036601l-0.003922,0.024837l0.011765,0.006536l0.016993,-0.010457l0.03268,-0.045752l0.010457,-0.039216l-0.003922,-0.028758l-0.018301,-0.015686h-0.024837l-0.006536,0.013072l0.006536,0.024837Z M1006.615333,414.583053l0.026173,0.00215l0.009624,-0.013228l-0.016164,-0.021353l-0.030893,0.001854l-0.007335,0.018299l0.018596,0.012278Z M1006.551234,413.820394l0.012721,-0.023245l-0.016884,-0.024343l-0.033655,0.015855l-0.003089,0.027935l0.021895,0.018372l0.019012,-0.014574Z M1007.261372,412.876168l0.003674,-0.021238l-0.01053,-0.006337l-0.01472,0.00726l-0.005109,0.01881l0.011533,0.007627l0.015151,-0.006123Z M1007.181832,412.942356l0.021373,-0.001508l0.013542,-0.031912l-0.016861,-0.02408l-0.019717,0.007077l-0.01264,0.026794l0.014302,0.023629Z M1006.430939,414.225193l0.004154,-0.011076l-0.009692,-0.005538l-0.009692,0.008307l0.002769,0.011076l0.012461,-0.002769Z M1006.472855,415.003051l-0.005958,0.020894l0.006505,0.012591l0.016102,-0.005892l0.004308,-0.0262l-0.010056,-0.012474l-0.010902,0.011081Z M1006.546409,415.047382l0.006932,-0.01583l-0.009688,-0.015205l-0.015051,-0.000473l-0.008962,0.011754l0.006586,0.014076l0.020182,0.005677Z M1006.173713,415.074411l0.007843,-0.009804l-0.003922,-0.015686l-0.019608,-0.001961l-0.005882,0.011765l0.005882,0.013725l0.015686,0.001961Z M1006.034497,415.562646l0.017647,0.001961l0.011765,-0.011765l-0.003922,-0.015686h-0.019608l-0.011765,0.009804l0.005882,0.015686Z M1005.997242,415.437156l0.027451,-0.019608l0.015686,-0.054902v-0.037255l-0.011765,-0.001961l-0.021569,0.021569l-0.027451,0.052941l-0.003922,0.037255l0.021569,0.001961Z M1006.163909,415.39794l0.003922,-0.009804l-0.007843,-0.017647l-0.023529,-0.013725l-0.011765,0.003922v0.017647l0.019608,0.019608h0.019608Z M1011.072861,414.676344l-0.008097,0.011288l-0.002302,0.010711l0.014762,-0.001905l0.008119,-0.007286l0.001249,-0.010492l-0.01373,-0.002316Z M1011.072861,414.676344l-0.008097,0.011288l-0.002302,0.010711l0.014762,-0.001905l0.008119,-0.007286l0.001249,-0.010492l-0.01373,-0.002316Z M1011.004133,414.712644l0.012173,0.014351l0.010355,-0.004903l-0.003543,-0.017845l-0.014507,-0.003541l-0.004478,0.011938Z M1011.031867,415.42646l0.020787,0.003472l0.006929,-0.00868l-0.01559,-0.019096l-0.019054,-0.001736l-0.001732,0.012152l0.008661,0.013888Z M1012.089444,416.016427l0.024471,-0.001952l0.003549,-0.010531l-0.012799,-0.012829l-0.020579,0.002801l-0.003615,0.010729l0.008974,0.011783Z M1011.042277,415.731022l0.005327,-0.057323l-0.007059,-0.020795l-0.02074,-0.003581l-0.015637,0.036565l0.003464,0.038191l0.019054,0.015624l0.01559,-0.00868Z M1010.995107,414.822506l0.047612,0.03107l0.043183,0.007768l0.014394,-0.023303l-0.028789,-0.037728l-0.054256,-0.018864l-0.02436,0.013316l0.002215,0.027741Z M1011.001976,415.212765l0.020915,0.0262l0.070588,0.01834l0.054902,-0.02882l0.023529,-0.08646l-0.026144,-0.03144h-0.062745l-0.039216,0.0393l-0.031372,0.0131l-0.010457,0.04978Z M1011.984981,415.799648l0.028758,0.02096l0.052287,-0.00786l0.026144,-0.03668l-0.023529,-0.06288l-0.033987,-0.00262l-0.033987,0.0393l-0.015686,0.04978Z M1012.48694,414.644222l0.039216,-0.00786l0.028758,-0.08384l0.002614,-0.165061l-0.036601,-0.08122l-0.04183,-0.02358l-0.007843,-0.0262l0.015686,-0.03144l-0.028758,-0.0262l-0.08366,-0.03144l-0.062745,0.00786l-0.023529,0.0262h-0.036601l-0.036601,-0.02358l-0.039216,0.00524l-0.062745,0.07336l-0.002614,0.0786l0.044444,0.0393l0.033987,0.091701l0.057516,0.05764l0.086274,0.02358l0.12549,0.05764l0.028758,0.0393Z M1012.013739,415.178705l-0.002614,0.102181l-0.033987,0.04978l-0.005229,0.03406l0.026144,0.0524l0.010457,0.133621l0.023529,0.03144l0.054902,0.00786l0.026144,0.0262l0.039216,0.00786l0.054902,-0.03406l0.065359,0.00524l0.036601,-0.01572l0.010457,-0.0393l0.096732,-0.104801l0.086274,-0.02358l0.010457,-0.03406l-0.044444,-0.123141l0.005229,-0.04716l0.075817,-0.096941l0.023529,-0.06288l-0.018301,-0.0655l-0.028758,-0.02358l-0.020915,0.00262l-0.007843,0.05502l-0.049673,0.04192l-0.065359,0.00262l-0.065359,-0.02096l-0.096732,-0.04978l-0.054902,-0.01572l-0.120261,0.00786l-0.096732,0.03144v0.02096l0.065359,0.144101Z M1011.57191,413.121993v0.02882l0.028758,0.03144l0.060131,-0.00524l0.047059,-0.0655l0.002614,-0.0786l-0.062745,-0.06812l-0.033987,-0.00262l-0.015686,0.02882l-0.002614,0.08646l-0.023529,0.04454Z M1009.836182,411.939676l0.011684,0.009213l0.010069,-0.007423l0.007443,-0.02028l-0.013384,-0.006632l-0.01416,0.011388l-0.001651,0.013734Z M1010.538698,409.492651l0.014617,-0.023882l-0.004206,-0.014373l-0.018993,0.007558l-0.01174,0.011837l-0.007156,0.019298l0.008655,0.00907l0.018823,-0.009509Z M1010.270767,410.330751l0.019931,-0.031003l-0.004429,-0.015502l-0.031003,0.017716l-0.015502,0.031003l0.008858,0.013287l0.022145,-0.015502Z M1009.647084,411.803186l0.017365,-0.032738l-0.006933,-0.027755l-0.027695,0.006948l-0.019326,0.029334l0.004972,0.024351l0.031616,-0.000141Z M1009.512742,412.520087h0.012461l0.006923,-0.013875l-0.008307,-0.008325l-0.013845,-0.002775l-0.004154,0.012487l0.006923,0.012487Z M1011.063921,414.551798l0.006902,0.0083l0.011043,-0.002767l-0.00138,-0.013833l-0.013804,-0.002767l-0.002761,0.011067Z M1011.091557,414.618832l0.003167,0.011799l0.016158,-0.002116v-0.01245l-0.011043,-0.006917l-0.008282,0.009683Z M1011.042565,415.56369l0.017246,0.001103l0.010975,-0.014335l-0.004703,-0.014335l-0.01411,-0.004411l-0.010975,0.011027l0.001568,0.020952Z M1011.945263,415.992584v0.013833l0.013804,0.0083l0.012423,-0.0083l-0.006902,-0.013833h-0.019325Z M1012.202263,415.782958l-0.001438,-0.014864l-0.01593,0.006819l-0.010625,0.021915l0.013733,0.003937l0.01426,-0.017808Z M1011.892093,416.008637l0.001385,-0.012487l-0.012461,-0.002775l-0.011076,0.008325l0.008307,0.009712l0.013845,-0.002775Z M1011.220429,414.886655l-0.002239,0.021658l0.008593,0.011294l0.014834,-0.008617l-0.000307,-0.026608l-0.012069,-0.010561l-0.008812,0.012833Z M1015.721398,403.972708l0.014128,0.027172l0.021703,0.003471l0.009954,-0.032925l-0.028918,-0.082696l-0.020855,-0.004182l-0.010724,0.014781l0.014713,0.07438Z M1020.880755,406.397094l0.006802,0.021537l0.033998,-0.018959l0.031009,-0.053124l-0.006162,-0.014215l-0.030444,0.017418l-0.035203,0.047344Z M1014.605175,402.4508l-0.005197,0.012126l0.010393,0.008661l0.01559,-0.010393l-0.003464,-0.012126l-0.017322,0.001732Z M1021.098449,406.436202l0.034509,-0.009663l-0.004141,-0.013804l-0.041411,-0.00138l-0.020705,0.011043l0.00138,0.012423l0.030368,0.00138Z M1021.319401,406.440214l-0.000804,-0.012465l-0.014832,0.001438l-0.007393,0.019734l0.012867,0.005429l0.010161,-0.014135Z M1015.766863,404.153663l-0.016609,-0.066436l-0.016609,-0.008304l-0.013287,0.01827l0.008304,0.048166l0.024913,0.019931l0.013287,-0.011626Z M1021.036534,406.871113l0.020129,0.000603l0.007629,-0.033684l-0.017271,-0.049182l-0.016951,0.00289l-0.012284,0.026783l0.018748,0.05259Z M1014.669953,402.532403l0.032687,0.047241l0.018745,0.011358l0.018185,-0.010594l-0.011474,-0.038001l-0.02715,-0.026966l-0.024618,0.000305l-0.006375,0.016656Z M1014.669953,402.532403l0.032687,0.047241l0.018745,0.011358l0.018185,-0.010594l-0.011474,-0.038001l-0.02715,-0.026966l-0.024618,0.000305l-0.006375,0.016656Z M1021.549652,407.117121l-0.01407,-0.024151l-0.015433,-0.000082l-0.002243,0.027027l0.015351,0.015515l0.017912,-0.001757l-0.001517,-0.016552Z M1015.495489,403.658148v0.018243l0.018243,0.002606l0.007818,-0.018243l-0.010425,-0.010425l-0.015637,0.007818Z M1015.082666,402.568268l-0.022265,0.052273l-0.000134,0.043873l0.025399,0.010138l0.032076,-0.034889l0.009116,-0.0567l-0.017315,-0.021682l-0.026877,0.006988Z M1021.591136,406.65801l-0.007695,-0.036187l-0.023113,-0.016759l-0.016759,0.023113l0.00401,0.034846l0.019428,0.015418l0.024129,-0.02043Z M1021.392845,406.270163l-0.001517,-0.032834l-0.012735,-0.012058l-0.02797,0.020613l-0.000325,0.033504l0.014246,0.021941l0.022781,-0.006205l0.005521,-0.024962Z M1015.172852,401.688379l0.000269,0.067644l0.029169,0.068675l0.027475,0.006693l0.012044,-0.058636l-0.006042,-0.039533l-0.039885,-0.052255l-0.023029,0.007412Z M1015.231226,401.911336l0.013542,-0.004167l0.005208,-0.008333l-0.003125,-0.015625l-0.014583,-0.004167l-0.010417,0.011458v0.013542l0.009375,0.007292Z M1015.421821,403.697012l0.013542,0.001042l0.015625,-0.007292l0.002083,-0.017708l-0.01875,-0.007292l-0.016667,0.010417l-0.002083,0.0125l0.00625,0.008333Z M1021.276811,406.734649l0.002614,0.018301l0.060131,0.013072l0.049673,0.036601h0.023529l0.04183,-0.04183l0.039216,-0.010457l0.013072,-0.020915l-0.033987,-0.028758l-0.075817,-0.005229l-0.062745,0.028758l-0.057516,0.010457Z M1021.619294,407.152949l-0.013072,0.028758l-0.020915,0.007843l-0.010457,0.028758l0.020915,0.054902l-0.002614,0.081046l0.04183,0.065359l-0.005229,0.049673l-0.044444,0.04183l0.002614,0.026144l0.062745,0.033987l0.04183,0.002614l0.039216,0.015686l0.015686,0.057516l0.052287,0.033987l0.023529,-0.002614l0.015686,-0.075817l0.002614,-0.057516l-0.028758,-0.028758v-0.020915l0.049673,-0.052287l0.018301,-0.120261l-0.010457,-0.088889l-0.026144,-0.033987l-0.052287,-0.039216l-0.033987,-0.010457l-0.031372,0.018301l-0.013072,-0.010457l0.018301,-0.096732l-0.015686,-0.073202l-0.044444,-0.023529l-0.018301,0.010457l-0.013072,0.047059l-0.028758,0.04183l-0.005229,0.054902l0.013072,0.033987Z M1020.591846,405.589553l0.023529,0.044444l-0.002614,0.039216l0.031372,0.109804l0.044444,0.049673l0.028758,0.065359l-0.013072,0.054902l0.010457,0.138562l0.060131,0.099346l0.020915,0.005229l0.023529,-0.044444l0.052287,0.002614l0.054902,0.031372l0.075817,0.007843l0.023529,-0.026144l-0.018301,-0.047059l-0.007843,-0.044444l0.018301,-0.013072l0.04183,0.015686l0.133333,0.128104l0.047059,0.013072l0.028758,-0.047059v-0.04183l-0.044444,-0.033987l-0.101961,-0.149019l-0.015686,-0.054902l-0.154248,-0.206536l-0.101961,-0.107189l-0.112418,-0.054902h-0.081046l-0.086274,0.026144l-0.005229,0.028758l0.026144,0.010457Z M1015.072902,403.487597l0.031372,0.036601l0.028758,-0.002614l0.057516,-0.062745l0.005229,-0.054902l-0.023529,-0.039216l-0.04183,-0.002614l-0.054902,0.018301l-0.013072,0.049673l0.010457,0.057516Z M1017.569629,403.95557l-0.015686,0.075817l-0.002614,0.057516l0.020915,0.015686v-0.039216l0.028758,-0.096732l0.036601,-0.020915l0.007843,-0.026144l-0.033987,-0.031372l-0.028758,-0.002614l-0.013072,0.026144v0.04183Z M1004.18156,415.678332l0.047059,0.011765l0.02549,0.021569l0.009804,0.035294l0.017647,0.019608l0.023529,0.001961l0.005882,-0.015686l-0.009804,-0.039216l-0.023529,-0.029412l-0.023529,-0.007843l-0.005882,-0.013725l0.007843,-0.029412l-0.017647,-0.02549l-0.027451,-0.001961l-0.043137,0.023529l-0.007843,0.031372l0.021569,0.017647Z M1004.287442,415.615587l0.005882,-0.009804l-0.013725,-0.035294l0.003922,-0.027451l0.017647,-0.001961l0.052941,0.047059l0.021569,0.001961l0.003922,-0.017647l-0.021569,-0.037255l0.005882,-0.017647l0.019608,-0.013725l-0.005882,-0.019608l-0.023529,-0.013725l-0.066667,-0.001961l-0.052941,0.017647l-0.013725,0.027451l0.019608,0.04902l0.047059,0.052941Z M1003.424168,418.370573l0.006638,0.013265l0.024436,0.002229l0.009167,-0.014922l-0.010985,-0.015098l-0.019523,-0.001708l-0.009734,0.016234Z M1003.416187,418.781854l-0.015959,-0.029198l-0.012844,0.003012l0.000808,0.035321l0.016359,0.016956l0.015955,-0.000705l-0.004318,-0.025387Z M1003.414425,418.703637l-0.001199,-0.019668l-0.017593,-0.011512l-0.005355,0.014474l0.002975,0.01719l0.012433,0.009222l0.008741,-0.009706Z M1003.439561,419.019391l-0.02426,-0.01388l-0.013406,0.007645l0.011571,0.024527l0.021051,0.005761l0.014634,-0.010477l-0.00959,-0.013576Z M1003.428984,419.110211l0.015872,0.016415l0.006778,-0.007643l-0.000235,-0.014252l-0.01684,-0.015323l-0.013053,-0.000457l0.007479,0.021261Z M1003.999225,417.824057v0.018243l0.018243,0.002606l0.007818,-0.018243l-0.010425,-0.010425l-0.015637,0.007818Z M1004.0372,416.916079l0.008899,0.026548l0.013714,0.006017l0.006419,-0.019408l-0.001522,-0.016602l-0.010183,-0.017887l-0.012512,0.0008l-0.004815,0.020531Z M1003.406797,418.465193l0.019532,0.049314l0.033617,0.009456l0.006637,-0.037643l-0.025169,-0.057365l-0.031402,-0.002009l-0.003215,0.038246Z M1003.406797,418.465193l0.019532,0.049314l0.033617,0.009456l0.006637,-0.037643l-0.025169,-0.057365l-0.031402,-0.002009l-0.003215,0.038246Z M1005.720143,417.599977l-0.037908,-0.094117v-0.035294l0.03268,-0.065359l0.003922,-0.120261l-0.013072,-0.081046l-0.030065,-0.037908l0.002614,-0.016993l0.019608,-0.016993h0.061438l0.115032,0.04183l0.066667,0.05098l0.001307,0.030065l-0.043137,0.079738l-0.078431,0.105882l-0.022222,0.054902l-0.001307,0.057516l-0.014379,0.061438l-0.022222,0.031372l-0.014379,0.001307l-0.026144,-0.047059Z M1005.722757,416.505861l0.013072,0.026144l0.045752,0.001307l0.036601,-0.039216l0.010457,-0.048366l-0.006536,-0.04183l0.003922,-0.028758l0.027451,-0.031372l0.028758,-0.013072l0.040523,-0.065359l-0.001307,-0.033987l-0.028758,-0.028758l-0.015686,0.003922l-0.005229,0.030065l-0.024837,0.047059l-0.035294,0.035294l-0.023529,0.040523l-0.010457,0.033987l-0.013072,0.018301l-0.026144,0.005229l-0.014379,0.030065l-0.001307,0.058823Z M1005.896613,416.57122l0.031372,0.084967l0.044444,0.037908l0.014379,-0.001307l0.007843,-0.027451l-0.003922,-0.037908l-0.061438,-0.077124l-0.014379,-0.020915l-0.013072,0.003922l-0.005229,0.037908Z M1005.709685,416.61305l0.006536,0.04183l-0.013072,0.03268l-0.026144,0.022222l-0.00915,0.062745l0.018301,0.037908l0.002614,0.094117l-0.013072,0.037908l-0.002614,0.044444l-0.00915,0.033987l0.003922,0.030065l0.031372,0.018301l0.09281,0.001307l0.024837,-0.006536v-0.016993l-0.023529,-0.031372l-0.005229,-0.015686h0.011765l0.028758,0.033987l0.016993,0.006536l0.022222,-0.002614l0.00915,-0.020915l0.001307,-0.036601l0.010457,-0.024837l0.014379,-0.001307l0.007843,0.015686l0.013072,0.002614l0.035294,-0.031372l0.023529,-0.054902l-0.002614,-0.064052l-0.039216,-0.100653l-0.053595,-0.040523l-0.013072,0.001307l-0.003922,0.015686l-0.047059,0.047059l-0.011765,0.031372l-0.00915,0.010457l-0.007843,-0.007843l0.005229,-0.028758l0.052287,-0.065359l0.005229,-0.047059l-0.022222,-0.056209l-0.030065,-0.016993l-0.058823,-0.002614l-0.028758,0.013072l-0.007843,0.037908Z M1006.22341,414.547695l0.017647,0.001961l0.084314,-0.07451l0.003922,-0.033333l-0.033333,-0.072549l-0.007843,-0.060784h-0.017647l-0.017647,0.017647l-0.003922,0.017647l0.011765,0.015686l-0.003922,0.02549l-0.021569,0.019608l-0.035294,0.007843l-0.021569,0.023529v0.02549l0.02549,0.033333l0.019608,0.052941Z M1006.39988,414.194755l0.013725,-0.021569l0.02549,-0.035294l0.035294,-0.019608l0.003922,-0.019608l-0.009804,-0.027451v-0.019608l0.015686,-0.017647l0.007843,-0.039216l-0.011765,-0.021569l-0.029412,-0.005882l-0.02549,-0.019608l-0.02549,-0.001961l-0.023529,0.029412l-0.007843,0.029412l0.013725,0.041176v0.031372l-0.02549,0.031372l-0.001961,0.064706l0.015686,0.021569h0.029412Z M1006.541032,415.298594h0.015686l0.018301,-0.026144v-0.049673l-0.018301,-0.031372l-0.018301,0.002614l-0.007843,0.028758l0.010457,0.075817Z  M1022.961775,407.362099l0.019,-0.008l0.018,-0.019l-0.01,-0.342l-0.025,-0.081l-0.056,-0.073l-0.025,-0.004l-0.009,-0.013l0.013,-0.018l-0.008,-0.016l-0.044,-0.013l-0.02,-0.026l-0.006,-0.03l-0.021,-0.018l-0.021,-0.004l-0.012,-0.019l-0.008,-0.035l-0.022,-0.031l-0.025,-0.021l-0.051,-0.124l-0.002,-0.038l0.009,-0.026l-0.003,-0.024l-0.022,-0.042l-0.006,-0.049l-0.024,-0.044l-0.026,-0.01l-0.012,-0.026l-0.01,-0.046l-0.041,-0.047l-0.026,-0.086l-0.001,-0.046l0.011,-0.024l-0.001,-0.019l-0.021,-0.039l-0.008,-0.115l-0.017,-0.028l-0.026,-0.013l-0.018,-0.022l-0.012,-0.035l-0.064,-0.064l-0.005,-0.034l-0.009,-0.025l-0.044,-0.036l-0.024,-0.057l-0.002,-0.035l-0.015,-0.021v-0.021l0.023,-0.06l-0.002,-0.03l-0.008,-0.019l-0.001,-0.021l0.033,-0.06l0.001,-0.039l-0.014,-0.084l0.002,-0.039l0.038,-0.121l0.006,-0.232l0.059,-0.082l0.05,-0.026l0.089,-0.002l0.034,-0.018l0.018,-0.031l-0.005,-0.075l-0.032,-0.03l-0.004,-0.042l-0.035,-0.034l-0.073,-0.017l-0.025,-0.002l-0.031,-0.016l-0.004,-0.029l0.009,-0.028l-0.007,-0.021l-0.021,-0.016h-0.021l-0.015,0.01l-0.008,-0.002l0.005,-0.035l0.024,-0.052l-0.008,-0.004l-0.032,0.013l-0.02,-0.002l-0.05,-0.045l-0.007,-0.034l-0.033,-0.024l-0.035,-0.011v-0.01l0.022,-0.02l-0.002,-0.015l-0.057,-0.056l-0.013,-0.049l-0.021,-0.015l-0.032,-0.003l-0.019,-0.014l-0.001,-0.03l0.012,-0.023l-0.002,-0.023l-0.019,-0.01l-0.044,-0.002l-0.029,-0.016l-0.029,-0.004l-0.119,-0.11l-0.011,-0.026l-0.04,-0.014l-0.021,0.001l-0.021,0.015h-0.016l-0.013,-0.012l-0.026,-0.001l-0.018,0.008l-0.023,-0.001l-0.081,-0.064l-0.017,-0.034l0.001,-0.016l0.016,-0.017l-0.001,-0.014l-0.041,-0.042l0.001,-0.015l0.017,-0.03l-0.001,-0.07l-0.01,-0.015l-0.003,-0.017l0.022,-0.026l0.019,-0.013l0.026,-0.004l0.026,-0.028l0.025,-0.012l0.021,-0.05l-0.003,-0.028l-0.032,-0.038l-0.001,-0.021l0.016,-0.027l-0.001,-0.021l-0.021,-0.023l-0.029,-0.008l-0.013,-0.015l-0.001,-0.05l-0.013,-0.023l-0.038,-0.023l-0.004,-0.029l0.007,-0.016l0.022,-0.019l0.002,-0.075l0.01,-0.018l-0.001,-0.014l-0.024,-0.021l-0.011,-0.023l-0.001,-0.037l-0.029,-0.031l-0.013,-0.042l-0.001,-0.016l0.038,-0.043v-0.027l-0.046,-0.057v-0.013l0.067,-0.056h0.013l0.016,0.012l0.013,-0.001l0.027,-0.028l0.02,-0.002l0.002,-0.01l-0.097,-0.028l-0.04,-0.022l-0.101,-0.197l-0.003,-0.032l-0.03,-0.02l-0.044,-0.003l-0.034,-0.034l-0.013,-0.044l-0.042,-0.046l-0.012,-0.036v-0.032l-0.01,-0.018l-0.038,-0.033l-0.008,-0.069l-0.034,-0.065l-0.004,-0.098l-0.017,-0.034l-0.065,-0.091l-0.011,-0.066l-0.061,-0.072l-0.002,-0.046l0.037,-0.057l-0.003,-0.041l-0.044,-0.095l-0.001,-0.037l0.044,-0.133l0.008,-0.079l-0.005,-0.125l-0.013,-0.047l0.004,-0.079l0.023,-0.058l-0.003,-0.045l-0.043,-0.065l-0.019,-0.037l-0.042,-0.025l-0.003,-0.026l0.029,-0.052l0.031,-0.008l0.03,0.003l0.024,-0.024l-0.003,-0.02l0.016,-0.015l0.031,0.002l0.051,0.04h0.036l0.049,-0.012h0.044l0.069,0.04l0.049,0.002l0.067,-0.012l0.028,-0.022h0.036l0.136,0.025l0.043,-0.004l0.05,-0.041l0.043,-0.003l0.033,-0.035l0.012,-0.051l0.032,-0.022l0.151,-0.001v-0.011l-0.113,-0.07l-0.052,-0.007l-0.017,-0.016l-0.005,-0.024l-0.025,-0.021l-0.028,-0.008l-0.038,-0.033v-0.017l0.049,-0.086l0.029,-0.029l0.026,-0.001l0.013,-0.009l0.013,-0.028l0.285,-0.15l0.083,-0.028l0.028,-0.02l0.038,-0.048l0.025,-0.007h0.057l0.035,-0.02v-0.043l-0.032,-0.026l-0.001,-0.014l0.117,-0.189l0.043,-0.046l0.055,-0.268l0.018,-0.024l0.057,-0.024l0.018,-0.02l0.035,-0.073l0.183,-0.149l0.147,-0.039l0.021,-0.036l-0.021,-0.099l0.006,-0.121l0.033,-0.066l0.055,-0.057l0.015,-0.073l0.042,-0.069v-0.051l-0.027,-0.057l0.027,-0.061l0.102,-0.054l0.097,-0.024l0.069,-0.045l0.06,-0.015l0.033,-0.036l0.018,-0.067l0.055,-0.057l0.021,-0.045l0.096,-0.048l0.112,-0.006l0.027,-0.018l0.018,-0.046l0.03,-0.024l0.045,0.015l0.03,-0.009l0.021,-0.042l0.051,-0.009l0.094,0.033l0.09,-0.012l0.112,-0.069l0.223,-0.021l0.31,-0.009l0.039,-0.033l0.024,-0.061l0.042,-0.018l0.033,0.006l0.046,0.055h0.045l0.199,-0.145l0.117,-0.051l0.117,-0.006l0.106,0.045l0.021,0.045h0.039l0.066,-0.054l0.018,-0.06l0.067,-0.039l0.108,0.009l0.039,0.054l-0.024,0.129l0.027,0.039l0.058,0.004l0.054,-0.019l0.193,0.073l0.105,0.003l0.075,-0.03l0.057,0.006l0.082,0.078l0.15,0.051l0.094,0.003l0.06,-0.051l0.105,0.003l0.049,-0.021l0.042,0.006l0.045,0.039h0.09l0.142,-0.03l0.054,-0.042l0.027,-0.054l0.082,-0.015l0.024,0.021l-0.006,0.039l0.015,0.024l0.093,-0.003l0.033,-0.033l0.003,-0.048l0.042,-0.025l0.052,0.009l0.054,0.049l0.063,-0.003l0.072,-0.049l0.031,-0.069l0.063,-0.015l0.138,0.096l0.112,0.046l0.22,-0.006l0.189,0.042l0.021,0.036l0.043,-0.003l0.027,-0.048l0.069,-0.039l0.063,0.006l0.048,0.054l0.109,0.015l0.078,-0.033l0.027,-0.07l0.196,-0.159l0.042,0.003l0.048,0.078l0.061,0.009l0.045,-0.036l0.021,-0.06l0.066,-0.039l0.027,0.015l-0.006,0.081l0.018,0.009l0.043,-0.027l0.033,0.003l0.012,0.024l0.024,-0.003l0.063,-0.069l0.1,-0.045l0.048,0.015l0.027,0.045l0.069,0.033l0.009,0.036l0.021,0.009l0.076,-0.042h0.057l0.153,0.045l0.073,0.06l0.036,-0.003l0.033,-0.027l0.051,0.009l0.072,0.049l0.028,0.057l-0.031,0.12l-0.021,0.027l0.003,0.033l0.052,0.058l0.072,0.135l0.009,0.082l0.09,0.078l0.091,0.033l0.12,-0.009l0.096,-0.057l0.064,-0.088l-0.006,-0.057l0.063,-0.126l0.033,-0.018l0.012,-0.031l-0.03,-0.063l0.027,-0.045l0.075,-0.012l0.038,0.012h0.02l0.033,0.027h0.028l0.034,-0.05l0.054,-0.043h0.042l0.048,0.019l0.027,-0.01l0.014,-0.035l0.025,-0.009l0.028,0.011l0.021,-0.014l0.016,-0.051l0.032,-0.033l0.04,0.001l0.04,0.026l0.067,-0.008l0.043,-0.039l0.048,-0.007l0.055,-0.033l0.034,-0.068h0.027l0.03,0.024l0.024,-0.002l0.047,-0.042l0.015,-0.054l0.051,-0.074l0.041,-0.022l0.054,-0.097l-0.008,-0.021l0.011,-0.018l0.042,-0.012l0.039,-0.044l0.032,-0.054l0.031,-0.019l0.033,-0.061l-0.001,-0.063l0.015,-0.036l-0.006,-0.026l-0.021,-0.018l0.001,-0.036l0.035,-0.036l-0.003,-0.021l-0.033,-0.014l-0.014,-0.031l0.011,-0.033l-0.005,-0.026l-0.033,-0.02l-0.001,-0.042l0.022,-0.048l-0.001,-0.027l-0.026,-0.036l0.002,-0.02l0.021,-0.018l0.003,-0.026l-0.018,-0.04l0.012,-0.021l0.074,-0.015l0.012,-0.023l-0.017,-0.01l-0.038,-0.003l-0.063,-0.05v-0.065l0.027,-0.054l-0.003,-0.032l-0.027,-0.027v-0.032l0.023,-0.052l0.024,-0.008l0.03,0.014l0.03,-0.012l0.05,-0.042l0.001,-0.023l-0.033,-0.036l-0.012,-0.045l0.029,-0.043l0.06,-0.024l0.032,0.009l0.015,-0.01l-0.012,-0.062l-0.064,-0.092l-0.043,-0.009l-0.005,-0.019l0.017,-0.043l0.007,-0.04l0.018,-0.017l0.043,0.002l0.039,0.045h0.016l0.03,-0.06l0.055,-0.041l0.055,-0.015v-0.014l-0.054,-0.052l-0.035,-0.012h-0.067l-0.021,-0.017l-0.006,-0.072l-0.037,-0.035l-0.037,-0.01l-0.021,-0.023l0.001,-0.033l0.021,-0.029v-0.034l-0.028,-0.023l-0.026,0.002l-0.021,0.016h-0.05l-0.018,-0.016v-0.052l-0.031,-0.027l-0.089,-0.046l-0.009,-0.044l-0.039,-0.045l0.001,-0.032l0.05,-0.05l0.001,-0.021l-0.042,-0.024l0.018,-0.077l0.051,-0.073l0.032,-0.04l0.056,-0.033l0.022,-0.03l0.015,-0.042l0.041,-0.048l0.051,-0.015l0.032,-0.023l0.047,-0.007l0.033,0.004l0.022,-0.007l0.023,-0.038l-0.002,-0.035l-0.031,-0.07l-0.002,-0.035l0.009,-0.026l-0.018,-0.04l-0.03,-0.006l-0.041,0.021l-0.158,0.004l-0.037,0.011l-0.031,-0.003l-0.099,-0.062l-0.018,-0.039l0.006,-0.045l0.039,-0.064l0.063,-0.048l0.217,-0.04l0.071,-0.035l0.056,-0.056l0.042,-0.179l-0.003,-0.053l-0.027,-0.069l0.001,-0.054l0.055,-0.124l0.052,-0.045l0.012,-0.044l0.014,-0.143l0.027,-0.085l-0.003,-0.098l-0.029,-0.046l-0.066,-0.093l-0.03,-0.087l-0.053,-0.045l-0.09,-0.035l-0.03,-0.029l-0.039,-0.018h-0.049l-0.033,-0.009l-0.061,-0.05h-0.049l-0.075,0.064l-0.045,0.003l-0.092,-0.024l-0.053,-0.053l-0.012,-0.068l-0.033,-0.021l-0.042,-0.009l-0.035,-0.044l-0.009,-0.092l-0.042,-0.093l-0.092,-0.181l-0.022,-0.081l0.009,-0.062l0.07,-0.09l0.034,-0.069l0.045,-0.032h0.04l0.055,0.018l0.034,-0.003l0.018,-0.029l-0.007,-0.042l-0.054,-0.037l-0.149,-0.018l-0.068,-0.029l-0.158,-0.015l-0.05,-0.024l-0.255,-0.03l-0.085,-0.02l-0.243,-0.105l-0.035,-0.002l-0.016,0.009l-0.03,-0.001l-0.056,-0.045h-0.032l-0.03,0.01l-0.043,-0.006l-0.101,-0.051l-0.036,-0.056l-0.019,-0.108l-0.072,-0.166l-0.006,-0.083l0.017,-0.109l-0.018,-0.04l-0.093,-0.1l-0.12,-0.067l-0.074,-0.1l-0.017,-0.042l-0.044,-0.028l-0.066,-0.004l-0.04,-0.046l-0.03,-0.085l-0.069,-0.106l-0.026,-0.129l-0.058,-0.094l-0.092,-0.06l-0.141,-0.069l-0.102,-0.104l-0.052,-0.084l-0.016,-0.087l0.016,-0.134l0.05,-0.249l0.038,-0.133l-0.004,-0.136l-0.056,-0.133l-0.022,-0.12l0.012,-0.081l0.058,-0.064l0.002,-0.052l-0.046,-0.111l-0.042,-0.18l-0.019,-0.275l0.015,-0.087l0.102,-0.174l0.147,-0.354l0.02,-0.229l-0.006,-0.223v-0.321l-0.025,-0.118l-0.058,-0.089l-0.098,-0.096l-0.056,-0.075l-0.055,-0.144l-0.08,-0.086l-0.317,-0.197l-0.079,-0.022l-0.333,-0.177l-0.144,-0.096l-0.259,-0.354l-0.157,-0.287l-0.064,-0.052l-0.077,-0.024l-0.074,-0.016l-0.086,-0.069l-0.063,-0.134l-0.112,-0.279l-0.084,-0.137l-0.219,-0.245l-0.135,-0.144l-0.052,-0.091l-0.054,-0.158l-0.068,-0.119l-0.017,-0.062l-0.265,-0.39l-0.052,-0.046l-0.068,-0.008l-0.078,0.006l-0.151,0.135l-0.096,0.052h-0.039l-0.04,-0.038l-0.028,-0.089l-0.07,-0.064l-0.102,-0.024l-0.133,0.004l-0.054,-0.01l-0.161,-0.004l-0.054,-0.03l-0.157,-0.129l-0.124,-0.064l-0.121,-0.008l-0.056,-0.018l-0.076,-0.04l-0.099,-0.02l-0.112,0.004l-0.1,-0.006l-0.149,-0.071l-0.072,-0.002l-0.085,0.023l-0.108,0.014h-0.101l-0.074,0.03l-0.044,0.082l-0.09,0.08l-0.051,0.045l-0.01,0.068l0.012,0.054l0.063,0.036l0.09,0.03l0.018,0.044l-0.006,0.039l-0.114,0.058l-0.237,0.06l-0.111,0.054l-0.058,0.095l-0.006,0.066l0.012,0.068l-0.01,0.077l-0.068,0.07l-0.159,0.09l-0.042,0.06l-0.022,0.135v0.062l0.024,0.071l-0.012,0.084l-0.117,0.179l-0.038,0.032l-0.058,0.002l-0.058,-0.024l-0.067,-0.061l-0.076,-0.026l-0.086,0.005l-0.15,0.077l-0.132,0.029l-0.104,0.063l-0.034,0.041l-0.058,0.026l-0.068,0.01l-0.045,0.036l-0.056,0.109l-0.076,0.05l-0.088,0.02l-0.073,0.016l-0.07,0.042l-0.022,0.063l0.006,0.054l0.058,0.048l0.002,0.04l-0.04,0.038l-0.052,-0.002l-0.054,-0.034l-0.047,-0.054l-0.048,-0.016h-0.09l-0.05,-0.022l-0.016,-0.046l0.08,-0.181l0.012,-0.117l-0.02,-0.084l-0.088,-0.056l-0.081,-0.018h-0.054l-0.034,0.022l-0.05,-0.002l-0.053,-0.028l-0.048,-0.002l-0.046,0.018l-0.066,-0.01l-0.133,-0.054l-0.108,-0.065l-0.181,-0.152l-0.096,-0.034l-0.083,-0.012l-0.076,-0.035l-0.151,-0.154l-0.186,-0.149l-0.063,-0.086l-0.052,-0.149l-0.05,-0.036l-0.09,-0.022l-0.038,0.012l-0.039,-0.002l-0.052,-0.022l-0.06,0.002l-0.086,0.048l-0.045,0.05l-0.03,0.109l-0.06,0.064l-0.106,0.092l-0.051,0.018l-0.074,0.061l-0.128,0.176l-0.041,0.079l-0.048,0.024l-0.086,-0.002l-0.064,-0.052l-0.087,-0.035l-0.054,-0.03l-0.084,-0.016l-0.03,-0.02l-0.03,-0.002l-0.061,0.052l-0.036,0.093l-0.02,0.114l-0.074,0.189l-0.008,0.056l0.012,0.048l-0.012,0.047l-0.046,0.04h-0.037l-0.034,-0.022h-0.06l-0.068,0.036l-0.085,0.026h-0.072l-0.03,0.032l-0.042,0.115l-0.028,0.026h-0.028l-0.029,-0.071l-0.024,-0.004l-0.02,0.032l-0.016,0.081l-0.042,0.07l0.002,0.034l0.054,0.036l0.026,0.065l-0.024,0.006l-0.038,-0.012l-0.04,0.008l-0.032,0.036l-0.048,-0.002l-0.036,0.018l-0.053,0.076l-0.026,0.078l-0.022,0.031l-0.018,-0.01l0.01,-0.057l-0.03,-0.018l0.014,-0.034l-0.012,-0.014l-0.044,0.004l-0.05,0.056l-0.01,0.038l-0.033,0.01l-0.09,-0.018l-0.06,0.01l-0.012,0.021l0.03,0.016h0.052l0.038,0.024l-0.004,0.026l-0.05,0.008l-0.026,0.052l-0.004,0.034l-0.034,0.006l-0.044,-0.04l-0.029,0.008l-0.006,0.046l-0.068,0.034l-0.066,0.049l-0.121,0.024l-0.016,0.024l0.02,0.032l-0.012,0.022l-0.042,0.008l-0.038,0.036l-0.002,0.026l-0.03,0.024l-0.036,0.004l-0.03,0.041l-0.02,0.052l-0.043,0.1l-0.04,0.012l-0.014,0.028l-0.004,0.042l-0.05,0.019l-0.094,0.002l-0.037,0.016l-0.008,0.032l0.019,0.056l-0.006,0.028l-0.053,0.016l-0.01,0.026l0.01,0.032l-0.004,0.026l-0.036,0.013l-0.024,-0.031l-0.028,-0.006l-0.022,0.012l-0.02,-0.006l0.006,-0.022l-0.024,-0.008l-0.047,0.006l-0.046,-0.046l-0.002,-0.048l-0.02,-0.01l-0.064,0.008l-0.05,-0.024l-0.008,-0.044l-0.02,-0.016h-0.034l-0.017,-0.016l-0.006,-0.039l-0.072,-0.052l-0.084,-0.02l-0.072,-0.036l-0.043,-0.002l-0.018,-0.026l0.008,-0.054l0.042,-0.022l0.049,-0.065l0.014,-0.058l-0.004,-0.153l0.012,-0.042l0.034,-0.06v-0.086l0.014,-0.038l-0.012,-0.021l-0.05,-0.016l-0.022,-0.046l-0.033,-0.02v-0.034l0.043,-0.024h0.042l0.018,-0.032l-0.002,-0.038l-0.036,-0.063l0.014,-0.054l0.058,-0.04h0.056l0.008,-0.024l-0.006,-0.04l0.01,-0.044l-0.006,-0.031l-0.046,-0.064l0.01,-0.044l0.105,-0.084h0.068l0.03,-0.028l0.046,-0.009l0.032,-0.064l0.03,-0.03l0.033,-0.008l0.016,-0.032v-0.104l0.034,-0.091l0.082,-0.1l0.024,-0.002l0.01,0.02h0.018l0.075,-0.105l-0.004,-0.038l-0.033,-0.05l-0.002,-0.05l-0.036,-0.068l-0.002,-0.083l0.107,-0.293l-0.008,-0.034l-0.022,-0.024l-0.025,0.002l-0.018,0.022l-0.026,-0.002l-0.006,-0.06l-0.05,-0.079l-0.002,-0.038l0.04,-0.036v-0.03l-0.034,-0.036v-0.034l0.06,-0.069l0.03,-0.012l0.021,-0.03l0.002,-0.038l-0.033,-0.03l-0.094,-0.024l-0.072,-0.054l-0.153,-0.073l-0.016,-0.058l-0.028,-0.034l-0.036,-0.01l-0.046,-0.056l0.004,-0.069l0.096,-0.126l0.046,-0.016l0.01,-0.022l-0.004,-0.052l0.038,-0.075l0.045,-0.03l0.072,-0.012l0.044,-0.046l0.004,-0.034l0.028,-0.028l0.097,-0.018l0.018,-0.063l-0.025,-0.048l0.003,-0.068l0.036,-0.034l0.14,-0.032l0.052,-0.057l0.008,-0.052l0.063,-0.094l0.038,-0.03l-0.01,-0.047l-0.068,-0.05l-0.037,-0.002l-0.028,-0.024l-0.026,-0.046l0.004,-0.026l0.038,-0.044l0.018,-0.077l0.027,-0.028l0.004,-0.082l0.026,-0.03v-0.028l-0.041,-0.044l0.002,-0.047l0.031,-0.06v-0.074l-0.028,-0.056l0.016,-0.079l0.064,-0.05l0.026,-0.054l0.068,-0.044l0.008,-0.061l-0.018,-0.04l0.006,-0.054l0.046,-0.034l0.008,-0.036l0.027,-0.024l0.072,-0.002l0.018,-0.024l0.022,-0.071l0.038,-0.052l-0.002,-0.03l-0.06,-0.07l-0.052,-0.038l-0.045,-0.008l-0.056,-0.051l-0.018,-0.042l-0.112,-0.064l-0.02,-0.04l-0.002,-0.095l-0.022,-0.088l0.012,-0.165l0.022,-0.02v-0.028l-0.036,-0.05l-0.039,-0.137l-0.04,-0.066v-0.05l0.034,-0.046v-0.028l-0.024,-0.057l-0.03,-0.01l-0.032,0.006l-0.036,-0.016l-0.02,-0.064l-0.038,-0.058l-0.012,-0.064l0.024,-0.031l0.032,-0.008l0.052,-0.078v-0.024l-0.024,-0.038l0.004,-0.109l0.028,-0.02l0.066,0.002l0.03,0.02l0.073,0.006l0.022,-0.038l0.006,-0.096l0.048,-0.064l0.006,-0.055l-0.034,-0.05l0.006,-0.034l0.034,-0.036l0.002,-0.028l-0.04,-0.056l-0.042,-0.024l-0.036,0.006l-0.03,-0.013l-0.023,-0.028l-0.104,-0.012l-0.036,0.022l-0.004,0.047l-0.018,0.034h-0.181l-0.064,0.024l-0.038,-0.004l-0.01,-0.034l-0.031,-0.014l-0.048,0.002l-0.022,-0.014l-0.012,-0.035l-0.036,-0.028l-0.036,0.002l-0.026,-0.02l-0.01,-0.032l-0.093,-0.046l-0.04,-0.004l-0.03,0.028h-0.04l-0.06,-0.026h-0.032l-0.029,0.024l-0.184,-0.01l-0.091,-0.036l-0.026,0.014l-0.106,0.163l-0.006,0.038l-0.018,0.026l-0.043,0.026l-0.106,0.144l-0.098,0.071l-0.055,0.072l-0.02,-0.004l-0.046,-0.068l-0.146,-0.087l-0.077,-0.018l-0.076,-0.052l-0.034,0.004l-0.028,-0.006l-0.034,-0.03l-0.067,-0.004l-0.082,0.046l-0.022,0.06l-0.008,0.067l-0.022,0.032l-0.05,0.02l-0.041,-0.004l-0.082,-0.072l-0.052,-0.012l-0.046,0.006l-0.048,-0.023l-0.039,-0.046l-0.05,-0.024l-0.014,-0.038l0.028,-0.084l-0.016,-0.115l-0.094,-0.058l-0.052,-0.068l-0.008,-0.079l-0.039,-0.054l0.004,-0.072l0.031,-0.044l0.002,-0.034l-0.037,-0.047l-0.084,-0.044l-0.02,-0.048l0.024,-0.102l0.03,-0.039l0.056,-0.034l0.027,-0.044l0.01,-0.12l0.028,-0.055l0.07,-0.042l0.088,-0.022l0.022,-0.032v-0.038l0.016,-0.026l0.041,-0.034l0.014,-0.097l-0.012,-0.04l0.004,-0.046l0.088,-0.239l-0.002,-0.04l0.008,-0.03l0.032,-0.042l0.034,-0.183l0.032,-0.076l0.01,-0.149l0.017,-0.076l-0.007,-0.037l-0.03,-0.022l-0.052,0.002l-0.028,0.02l-0.054,0.091l-0.054,-0.002l-0.073,-0.066l-0.07,-0.103l-0.048,-0.032l-0.028,-0.004l-0.018,-0.022l0.01,-0.054l-0.01,-0.051l-0.113,-0.06l-0.026,-0.055l-0.009,-0.048l-0.096,-0.124l-0.021,-0.138l-0.058,-0.063l-0.027,-0.073l-0.081,-0.06l-0.081,-0.021l-0.142,0.003l-0.072,0.048l-0.027,0.066l-0.067,0.055l-0.015,0.048l0.018,0.048l-0.027,0.054l-0.135,0.03l-0.061,0.046v0.045l0.028,0.027l0.018,0.051l-0.018,0.069l-0.058,0.024l-0.171,-0.024l-0.079,-0.066l-0.012,-0.066l0.015,-0.067v-0.093l-0.042,-0.126l0.012,-0.04l-0.027,-0.039l-0.06,-0.054l-0.048,-0.006l-0.127,-0.081l-0.054,-0.009l-0.039,-0.027l-0.045,-0.109l-0.064,-0.057h-0.039l-0.042,0.042l-0.081,0.027l-0.103,0.006l-0.09,0.039l-0.084,0.139l-0.015,0.09l-0.073,0.127l-0.054,0.036l-0.108,0.003l-0.033,-0.024l-0.112,-0.027l-0.06,0.018l-0.027,0.063l-0.094,0.03l-0.051,-0.003l-0.093,-0.075l-0.045,-0.009l-0.028,0.027h-0.072l-0.06,-0.036l-0.13,-0.048l-0.066,-0.003l-0.081,-0.028l-0.072,-0.075l-0.118,-0.045l-0.03,0.018l-0.006,0.069l0.021,0.055l0.096,0.042l0.076,0.087l0.006,0.051l-0.015,0.042v0.052l0.038,0.072l0.006,0.088l0.022,0.032l0.03,0.004l0.034,0.049l0.052,0.016l0.026,0.066l-0.04,0.09l-0.03,0.006l-0.028,0.028v0.069l-0.018,0.014l-0.034,-0.014l-0.038,0.002l-0.059,0.062l-0.002,0.056l-0.032,0.034l-0.052,0.008l-0.074,0.053l-0.074,0.02l-0.029,-0.012l-0.03,0.004l-0.02,0.016l-0.1,-0.002l-0.06,-0.028l-0.087,-0.016l-0.11,-0.045l-0.143,-0.014l-0.1,0.008l-0.087,-0.032l-0.036,-0.032l-0.044,-0.006l-0.044,0.016h-0.05l-0.026,-0.02l-0.053,-0.002l-0.068,0.05l-0.036,0.004l-0.02,0.063l-0.06,0.014l-0.046,-0.016l-0.059,0.01l-0.044,0.054l0.004,0.06l-0.014,0.024l-0.03,0.014l-0.052,0.091l-0.002,0.072l0.03,0.048l-0.002,0.04l-0.052,0.024l-0.01,0.075l0.038,0.07v0.066l-0.03,0.034h-0.034l-0.013,0.022l0.006,0.193l0.033,0.066l-0.006,0.079l-0.057,0.102l0.002,0.042l-0.03,0.048l-0.062,0.023l-0.018,0.062l0.02,0.064l-0.008,0.028h-0.036l-0.08,-0.048l-0.027,-0.048l-0.048,-0.03l-0.04,0.004l-0.03,0.032h-0.038l-0.042,-0.016l-0.065,-0.073l-0.076,-0.046l-0.046,-0.056l-0.034,-0.004l-0.022,0.018l-0.016,0.058l-0.057,0.053l-0.05,0.012l-0.062,0.08l-0.034,0.002l-0.052,-0.024h-0.033l-0.03,0.018l-0.034,0.002l-0.062,-0.038l-0.034,0.004l-0.03,0.032l-0.111,0.034l-0.016,0.03l-0.022,0.014l-0.034,-0.004l-0.07,0.042l-0.032,0.047l-0.039,0.024l-0.062,-0.026l-0.04,0.004l-0.042,0.058l-0.016,0.086l-0.028,0.002l-0.067,-0.042l-0.082,-0.09l-0.036,-0.004l-0.018,0.012l-0.046,0.002l-0.097,0.052l-0.181,0.008l-0.072,-0.03h-0.048l-0.046,0.042h-0.024l-0.026,-0.016l-0.133,-0.006l-0.098,0.05l-0.073,0.002l-0.076,0.014l-0.04,-0.01l-0.036,-0.046l0.006,-0.068l-0.028,-0.053l-0.069,-0.018l-0.088,-0.064l-0.01,-0.048l-0.048,-0.046l-0.06,-0.016l-0.045,-0.037l-0.042,-0.004l-0.08,0.039l-0.048,-0.002l-0.04,-0.067l-0.002,-0.042l-0.019,-0.026l-0.038,-0.006l-0.036,0.026l-0.024,0.002l-0.023,-0.017l-0.023,-0.002l-0.028,0.027l-0.004,0.05l0.014,0.069l-0.002,0.052l-0.034,0.078l0.002,0.109l0.014,0.134l0.046,0.048v0.047l-0.048,0.042l-0.105,0.018l-0.07,-0.012l-0.028,0.014l-0.002,0.108l-0.024,0.038l-0.038,0.014l-0.036,-0.01h-0.043l-0.128,0.073l-0.04,0.002l-0.03,-0.014l-0.051,0.002l-0.032,0.032v0.04l-0.024,0.068l0.014,0.066l0.095,0.087l-0.002,0.022l-0.033,0.014l-0.008,0.032l-0.044,0.052l-0.04,0.02l-0.072,0.091l-0.016,0.062l-0.077,0.082l-0.058,0.012l-0.003,0.016l0.055,0.049l0.004,0.036l-0.012,0.028l0.002,0.082l0.073,0.097l0.03,0.08l0.036,0.026l-0.006,0.028l-0.044,0.03l-0.057,0.004l-0.026,-0.02l-0.052,0.014l-0.024,0.054l0.01,0.029l0.054,0.018l0.032,0.024l0.021,0.04l0.046,0.04l0.062,0.038l0.002,0.063l-0.018,0.038l0.01,0.172l-0.022,0.028l-0.004,0.039l0.018,0.038l-0.006,0.076l-0.026,0.03l-0.081,0.018l-0.04,0.052l-0.034,0.015l-0.07,0.002l-0.016,0.028l0.016,0.036l-0.008,0.034l-0.038,0.028l-0.057,0.002l-0.026,0.014l-0.006,0.229l-0.028,0.02l-0.05,0.004l-0.022,0.02l-0.01,0.028l-0.032,0.03l-0.052,-0.006l-0.043,0.018l-0.014,0.039l0.012,0.028l0.049,0.01l0.02,0.016l0.004,0.028l0.038,0.052l0.07,0.054l0.05,0.008l0.028,0.023v0.04l0.023,0.046l0.002,0.056l-0.023,0.056l0.002,0.038l0.031,0.049l0.014,0.126l0.028,0.036l0.006,0.026l-0.036,0.091l0.008,0.068l0.042,0.03l0.028,0.056l-0.002,0.055l-0.018,0.034l-0.002,0.058l0.016,0.181l-0.014,0.056l0.004,0.04l-0.01,0.022l-0.083,0.002l-0.04,-0.02l-0.026,0.002l-0.022,0.038l-0.064,0.012l-0.109,-0.024l-0.078,0.006l-0.05,0.044l-0.022,0.004l-0.026,-0.014l-0.032,0.01l-0.006,0.031l0.024,0.042l-0.012,0.012l-0.032,-0.008l-0.021,0.004l-0.026,0.022l-0.092,0.018l-0.028,0.024l-0.024,0.004l-0.03,-0.018l-0.031,0.01l-0.02,0.135l-0.018,-0.002l-0.02,-0.019l-0.03,-0.002l-0.024,0.015l-0.032,-0.005l-0.046,-0.054l-0.036,-0.006l-0.041,0.036l-0.074,0.026l-0.026,-0.006l-0.026,-0.092l-0.024,-0.022l-0.002,-0.058l-0.018,-0.024l-0.044,-0.024l-0.021,-0.035l-0.024,-0.014l-0.04,0.02l-0.066,0.006l-0.026,-0.014v-0.1l-0.008,-0.032l-0.016,-0.002l-0.038,0.048l-0.012,0.06l0.014,0.101l0.05,0.056l0.056,0.036l0.042,0.064l0.046,0.185l0.051,0.054l0.024,0.045l0.01,0.054l0.022,0.028l0.044,0.018l0.032,0.038l0.002,0.054l-0.03,0.061l0.002,0.092l0.072,0.122l0.093,0.079l0.054,0.072l0.028,0.002l0.072,-0.05l0.032,-0.04l0.037,-0.141l0.032,-0.036h0.068l0.126,0.056l0.055,0.04l0.046,0.095l-0.01,0.044l-0.089,0.11l-0.002,0.04l0.019,0.051l0.092,0.106l0.03,0.054l0.064,0.055l0.028,0.036l0.008,0.181l0.032,0.071l-0.003,0.045l-0.027,0.02l-0.006,0.033l0.01,0.021l0.025,0.005l0.019,-0.015l0.024,0.001l0.029,0.03l0.004,0.036l0.047,0.083l0.002,0.051l0.055,0.118l-0.006,0.087l-0.037,0.036l-0.073,0.014l-0.066,0.077l-0.007,0.055l-0.047,0.098l0.001,0.056l0.061,0.107l0.006,0.044l0.021,0.039l0.028,0.013h0.033l0.017,0.012l0.005,0.035l0.078,0.078l0.013,0.047l0.017,0.014l0.047,0.003l0.046,0.069l-0.007,0.017l-0.027,0.003l-0.011,0.019l0.002,0.063l0.027,0.047l0.075,0.08l0.011,0.042l0.084,0.068l0.015,0.034l0.017,0.013l0.019,0.007l0.097,0.107l0.155,0.114l0.03,0.038l0.013,0.059l0.033,0.034l0.014,0.049l0.027,0.027l0.051,0.027l0.052,0.004l0.028,0.023l0.018,0.048l0.023,0.009l0.044,-0.007l0.037,0.018l0.146,0.203l0.076,0.042l-0.002,0.02l-0.033,0.01l-0.003,0.018l0.045,0.028l0.071,0.102l0.024,0.01l0.032,-0.007l0.054,0.032l0.012,0.025l0.028,0.026l0.002,0.016l-0.056,0.052v0.081l0.021,0.051l0.017,0.005l0.015,-0.018l0.026,0.009l0.01,0.034l0.024,0.032l0.002,0.039l0.01,0.011h0.044l0.06,0.06l0.008,0.04l0.016,0.017l0.091,0.026l0.036,0.028l0.028,0.062l0.046,0.026l0.03,-0.002l0.018,-0.021l0.022,0.001l0.005,0.02l-0.048,0.029l-0.017,0.031l0.015,0.009l0.035,-0.012l0.018,0.011l-0.006,0.04l0.025,0.034l0.025,0.001l0.013,0.008l0.005,0.021l0.043,0.019l0.005,0.027l-0.026,0.037l0.014,0.015l0.06,-0.005l0.029,0.015l0.009,0.029l-0.02,0.007l-0.021,-0.006l-0.012,0.008v0.039l-0.026,0.027l0.003,0.029l0.027,0.013l0.023,-0.009l0.002,-0.037l0.012,-0.023l0.016,0.009l-0.001,0.069l0.015,0.008l0.018,-0.017h0.047l0.013,0.014l-0.035,0.036l-0.037,0.003l-0.006,0.024l0.022,0.018l0.005,0.032l0.034,0.049l0.094,0.068l0.054,0.003l0.03,-0.028l0.05,-0.017l0.032,0.011l0.015,0.031h0.022l0.009,-0.022l0.021,-0.002l0.021,0.026l0.047,0.033l0.039,0.015l0.002,0.017l-0.024,0.024l0.01,0.01l0.063,0.002l0.016,0.021l-0.019,0.066l0.022,0.018l0.04,-0.007l0.024,0.009l0.018,0.045l-0.006,0.012l-0.033,0.003l-0.004,0.021l0.03,0.012l0.036,-0.003l0.015,0.007l-0.003,0.028l0.017,0.012l0.034,0.003l0.026,0.027l-0.009,0.01l-0.035,-0.012l-0.038,0.023l-0.006,0.036l0.028,0.033l0.031,-0.003l0.017,0.006l-0.008,0.032l0.015,0.012l0.035,-0.015l0.019,0.015l-0.021,0.027l-0.001,0.018l0.063,0.015l0.003,0.018l-0.019,0.024v0.029l0.045,0.06l-0.002,0.015h-0.013l-0.059,-0.072l-0.035,-0.005l-0.006,0.011l0.024,0.047l-0.006,0.034h-0.012l-0.01,-0.034l-0.021,-0.009l-0.027,0.021l-0.012,0.057l0.009,0.036l0.033,0.012l0.04,-0.014l0.027,0.013l0.004,0.019l0.025,0.014l0.027,-0.008l0.042,0.039l-0.003,0.023l-0.093,0.016l-0.026,0.016l0.009,0.012l0.026,0.001l0.012,0.014l-0.018,0.021l-0.018,0.001l-0.023,-0.019l-0.015,0.001l-0.009,0.027l-0.015,0.003l-0.015,-0.015l-0.03,0.005l-0.017,0.018l0.006,0.052l-0.028,0.04l-0.003,0.045l-0.009,0.009l-0.03,-0.017l-0.017,0.012l0.017,0.076l0.039,0.054l0.056,-0.003h0.027l0.007,0.015l-0.016,0.027l-0.002,0.041l0.015,0.001l0.029,-0.019l0.021,0.004v0.054l-0.015,0.13l0.012,0.007l0.03,-0.003l0.045,0.04l0.094,0.012l0.042,0.016l0.009,0.026l-0.012,0.024l0.004,0.033l0.05,0.036l0.009,0.03l-0.021,0.056l-0.009,0.056l0.021,0.043l0.047,0.021l0.004,0.037l0.032,0.039l0.024,0.062l0.05,0.051l0.018,0.046l0.015,0.018l0.025,0.002l0.03,0.024l0.005,0.033l0.02,0.021v0.02l-0.068,0.077l-0.003,0.058l0.018,0.049l0.043,0.007l-0.001,0.014l-0.014,0.018l0.023,0.046l-0.011,0.025v0.016l0.034,0.014l0.001,0.018l-0.027,0.025l0.005,0.021l0.033,0.019l0.009,0.063l-0.015,0.025l-0.003,0.018l0.019,0.017l0.005,0.114l0.019,0.04l0.015,0.001l0.017,-0.022h0.029l0.012,0.027l0.024,-0.002l0.024,-0.075l0.027,-0.017l0.013,-0.016l0.003,-0.038l0.023,-0.03l0.006,-0.038l0.023,-0.037l0.027,-0.003l0.01,-0.011l0.002,-0.018l0.015,-0.009l0.047,0.017h0.031l0.047,-0.037l0.006,-0.037l0.018,-0.027l0.107,-0.05l0.001,-0.018l-0.01,-0.018l0.004,-0.021l0.03,-0.03l0.019,-0.052l0.019,-0.012l0.06,0.009h0.055l0.037,-0.007h0.035l0.024,0.03l0.001,0.021l0.013,0.011h0.019l0.071,0.076l0.001,0.059l-0.04,0.092l0.016,0.012l0.014,-0.006l0.036,0.002l0.014,0.037l0.004,0.038l-0.022,0.054l-0.034,0.014l-0.022,0.037l-0.011,0.071l0.009,0.027l-0.001,0.02l-0.023,0.037l-0.056,0.037l-0.03,0.055h-0.013l-0.011,-0.021l-0.019,-0.001l-0.052,0.063l-0.003,0.022l0.028,0.05v0.015l-0.02,0.017l-0.002,0.012l0.019,0.012l0.001,0.06l-0.024,0.041l-0.014,0.107l-0.013,0.018l-0.036,0.003l-0.02,0.012l-0.01,0.027l-0.076,0.039l-0.033,0.003l-0.033,-0.019l-0.035,-0.053l-0.018,-0.003l-0.03,0.018l-0.113,0.003l-0.063,-0.011l-0.044,-0.046l-0.049,-0.003l-0.055,0.025l-0.01,0.015l0.018,0.035l-0.012,0.017l-0.036,0.001l-0.009,0.012l0.018,0.035v0.03l-0.044,0.03l-0.006,0.032l-0.072,0.046l-0.038,0.002l-0.007,0.01l0.012,0.034l-0.012,0.027l-0.055,0.001l-0.016,-0.016l-0.005,-0.053l-0.034,-0.054l-0.035,-0.003l-0.023,0.018l-0.006,0.024l-0.015,0.022l-0.033,0.009l-0.022,0.065l0.006,0.032l0.122,0.084l0.034,0.071l0.015,0.06l-0.015,0.032l-0.03,0.021l-0.039,0.138l-0.006,0.038l0.012,0.032l-0.005,0.036l0.019,0.039l0.006,0.048l0.018,0.003l0.015,-0.01h0.028l-0.129,0.277l-0.106,0.44l0.052,0.171l-0.034,0.145l0.116,0.483l-0.007,0.332l-0.012,0.067l-0.071,0.13h-0.02l-0.015,-0.017l-0.015,-0.073l-0.03,-0.035l-0.051,-0.012l-0.036,-0.023h-0.032l-0.034,-0.051l-0.037,-0.004l-0.019,0.012l-0.009,0.051l-0.029,0.013l-0.019,-0.004l-0.026,-0.039h-0.021l-0.011,0.012l0.008,0.037l-0.026,0.021l-0.034,0.005l-0.035,-0.012l-0.038,0.012l-0.009,0.029l-0.078,0.067l-0.001,0.041l0.025,0.032v0.039l0.008,0.027l0.037,0.03l0.015,0.084l-0.003,0.038l-0.039,0.03l-0.019,-0.001l-0.038,-0.053l-0.032,-0.012l-0.013,-0.023l-0.042,-0.03l-0.074,-0.028l-0.033,-0.003l-0.061,-0.026l-0.048,-0.045l-0.033,-0.002l-0.016,0.017l0.003,0.048l0.018,0.036l0.001,0.03l-0.016,0.015l-0.038,0.008l-0.021,0.015l-0.003,0.026l-0.074,0.099l-0.007,0.044l-0.023,0.016l-0.071,0.003l-0.042,-0.018l-0.012,-0.023l-0.026,-0.022h-0.034l-0.015,0.022l0.003,0.064l0.031,0.049l0.002,0.037l0.019,0.024l-0.001,0.021l-0.039,0.045l-0.009,0.027l-0.038,0.038l-0.003,0.028l0.014,0.018l-0.002,0.017l-0.036,0.053l0.001,0.075l0.034,0.044l0.004,0.03l0.015,0.013l0.044,0.005l0.036,0.041l0.011,0.034l0.03,0.032v0.025l-0.014,0.041l-0.035,0.029l-0.019,0.03l-0.006,0.086l0.01,0.039l0.07,0.048l0.004,0.024l-0.012,0.047l0.011,0.024l0.027,0.01l0.013,0.015l0.005,0.044l0.019,0.029l0.002,0.024l-0.054,0.066l0.004,0.037l0.083,0.1l0.002,0.042l-0.046,0.053l-0.001,0.021l0.024,0.042l0.027,0.014l0.044,0.036l0.025,0.036l0.006,0.048l0.018,0.023l0.023,0.012l0.012,0.02l0.011,0.06l0.027,0.033l0.004,0.013l-0.007,0.011l0.001,0.011l0.044,0.024l0.01,0.03l0.026,0.039l0.017,0.003l0.019,-0.014l0.014,0.003l0.004,0.021l0.064,0.043l0.019,0.028l0.002,0.035l0.018,0.038l0.241,0.186l0.018,0.027l0.018,0.056l0.06,0.063v0.021l-0.009,0.031l0.003,0.081l0.014,0.042l0.013,0.002l0.018,-0.017l0.048,0.002l0.028,-0.019l0.012,0.002l0.01,0.096l0.008,0.015l0.022,0.015l0.005,0.037l0.016,0.022l0.002,0.044l0.024,0.018l0.021,0.029l0.006,0.033l0.036,0.042l0.035,0.012l0.021,0.029l-0.002,0.031l0.008,0.024l0.021,0.011l0.009,0.016l-0.003,0.038l0.021,0.029l0.006,0.031l0.03,0.033l0.006,0.031l0.02,0.012l0.033,-0.011l0.009,-0.02h0.015l0.009,0.035l-0.015,0.062v0.036l0.032,0.069l0.046,0.041l0.033,0.003l0.019,-0.017l0.015,0.002l0.046,0.059l0.085,0.045l0.045,0.045l0.054,0.012l0.02,0.014l0.015,0.051l0.058,0.048l0.04,0.011l0.039,0.022l0.031,0.048l0.03,0.023l0.032,0.012l0.039,0.026l0.008,0.021l0.021,0.015l0.05,0.015l0.04,0.043l0.033,0.02l0.031,0.002l0.039,0.013l0.066,0.068l0.027,0.01l0.033,0.023l0.015,0.058l0.053,0.05l0.045,0.021l0.068,0.005l0.047,0.027l0.019,0.004l0.03,0.031l0.014,0.001l0.026,-0.015h0.016l0.035,0.054v0.102l0.014,0.036l-0.001,0.019l-0.014,0.009l0.001,0.012l0.065,0.045l0.041,0.011l0.001,0.009l-0.008,0.011l-0.001,0.012l0.035,0.032l0.003,0.021l0.018,0.027l0.034,0.157l0.015,0.015l0.055,0.007l0.027,0.008l0.024,0.033l0.024,0.012l0.021,0.038l0.011,0.045l0.042,0.049l0.037,0.015l0.022,0.001l0.022,-0.016l0.021,-0.001l0.011,0.008l0.005,0.035l-0.007,0.062l-0.032,0.056l0.001,0.049l0.024,0.024l0.02,0.004l0.011,0.007l0.002,0.031l0.024,0.031l0.001,0.039l-0.014,0.027l0.002,0.047l0.016,0.045l0.058,0.043l0.029,0.006l0.023,0.013l0.005,0.054l0.012,0.033l0.028,0.023l0.008,0.022l0.002,0.08l0.011,0.029v0.019l-0.017,0.015l-0.002,0.017l0.015,0.022l0.003,0.017l-0.007,0.046l0.007,0.095l-0.018,0.051l0.002,0.026l0.039,0.072v0.02l-0.045,0.03v0.018l0.019,0.023l0.026,0.007l0.021,0.014l0.009,0.025l0.042,0.046l0.004,0.108l-0.014,0.031l-0.002,0.035l0.048,0.053l0.021,0.053l-0.004,0.041l-0.029,0.018v0.022l0.021,0.023v0.024l-0.015,0.015v0.018l0.035,0.02l0.006,0.031l-0.014,0.033v0.077l-0.012,0.037l0.006,0.096l-0.006,0.049l-0.029,0.043l-0.01,0.083l-0.019,0.025l-0.004,0.024l0.076,0.082l0.002,0.018l-0.035,0.017l-0.002,0.024l0.041,0.066l0.004,0.032l-0.018,0.015v0.018l0.016,0.018v0.021l-0.033,0.036l-0.036,0.013l-0.033,-0.002l-0.022,-0.039l-0.051,-0.015l-0.094,0.007l-0.047,0.038l-0.008,0.049l-0.013,0.019v0.016l0.068,0.049v0.027l-0.023,0.028l0.002,0.016l0.017,0.019l0.004,0.026l-0.015,0.043l-0.006,0.055l-0.01,0.021l-0.041,0.014l-0.057,0.051v0.031l0.016,0.032l0.029,0.021l0.025,0.053l0.053,0.039l0.046,0.008l0.076,0.057l0.012,0.037l0.035,0.049l0.047,0.01l0.002,0.016l-0.022,0.027v0.024l0.02,0.035l0.002,0.033l-0.025,0.028l-0.036,0.004l-0.017,0.012l-0.01,0.027l-0.022,0.024v0.011l0.038,0.016l0.023,0.041l0.004,0.085l0.016,0.035l0.002,0.082l0.009,0.041l0.055,0.036l0.012,0.037l0.014,0.004l0.012,-0.008h0.017l0.02,0.027l0.01,0.083l0.025,0.07l0.002,0.098l-0.018,0.022v0.022l0.024,0.041l0.037,0.037l0.03,0.002l0.053,-0.027l0.023,0.003l0.014,0.03l0.039,0.021l0.002,0.028l0.008,0.027l0.031,0.022l0.002,0.019l-0.014,0.018l0.002,0.024l0.038,0.029l0.041,0.002l0.055,0.018l0.027,0.023l0.002,0.041l0.03,0.028l0.039,0.004l0.023,0.015l0.004,0.03l0.049,0.033l0.055,0.01l0.067,0.006l0.037,0.025l0.008,0.034l0.045,0.047l-0.004,0.012h-0.023l-0.004,0.021l0.019,0.024l0.002,0.027l-0.014,0.024l-0.021,0.005l-0.01,0.018l0.004,0.055l-0.02,0.033l-0.002,0.03l0.03,0.072l-0.008,0.032l-0.049,0.023l-0.024,0.03l-0.003,0.06l0.025,0.03l0.039,0.008l0.02,0.015l0.002,0.055l0.01,0.036l0.066,0.051v0.017l-0.017,0.01l0.002,0.065l-0.028,0.051l-0.002,0.029l0.026,0.026v0.019l-0.022,0.012l-0.002,0.023l0.034,0.032l0.005,0.057l0.022,0.019l0.029,0.049l0.026,0.049l0.063,0.028l0.004,0.019l-0.014,0.022v0.053l-0.034,0.053l0.002,0.025l0.047,0.042l0.01,0.037l0.03,0.037l0.002,0.028l-0.022,0.037l-0.014,0.066l-0.029,0.02l-0.018,0.027v0.069l0.018,0.018l0.061,0.002l0.013,-0.03l0.024,-0.029l0.043,-0.006l0.059,0.012l0.035,0.002l0.022,-0.02l0.029,-0.002l0.043,0.016l0.006,0.021l-0.047,0.091l-0.004,0.072l-0.021,0.032l-0.004,0.027l-0.053,0.061l-0.004,0.053l0.027,0.047l0.002,0.025l-0.013,0.039l0.007,0.022l0.124,0.028l0.057,0.035l0.016,0.037l0.005,0.098l-0.011,0.031l-0.036,0.024l-0.002,0.025l0.018,0.03v0.069l-0.023,0.033v0.021l0.025,0.046l0.004,0.039l0.018,0.015l0.027,-0.015l0.018,0.004l0.066,0.098v0.043l0.014,0.019l0.045,0.014h0.055l0.037,0.012l-0.002,0.027l-0.009,0.024h-0.022l-0.012,0.012l-0.004,0.043l-0.023,0.035l-0.004,0.069l-0.014,0.035l-0.002,0.029l0.014,0.036l-0.008,0.043l-0.022,0.021h-0.029l-0.02,0.016l-0.009,0.024l-0.022,0.017l-0.022,0.004l-0.015,0.018l-0.008,0.027l-0.039,0.03l-0.018,0.039l0.004,0.047l-0.01,0.041l-0.029,0.035l-0.008,0.038l-0.026,0.039l-0.031,0.004l-0.025,-0.008h-0.036l-0.023,0.018l-0.028,-0.002l-0.021,-0.032l-0.026,-0.015l-0.043,0.002l-0.047,0.031l-0.057,0.008l-0.023,0.027l-0.004,0.036l-0.026,0.054v0.044l0.024,0.033v0.029l-0.016,0.034l0.008,0.019l0.024,0.006l0.011,0.03l-0.006,0.039l-0.086,0.096l-0.019,0.057l0.003,0.029l-0.013,0.006l-0.032,-0.016l-0.041,0.006l-0.01,0.024l-0.041,0.033l-0.039,0.01l-0.012,0.021l0.02,0.028v0.021l-0.014,0.018v0.026l0.028,0.047l-0.004,0.102l-0.014,0.025l-0.077,0.028l-0.056,0.037l-0.046,0.055l-0.021,0.037l-0.002,0.029l-0.02,0.012l-0.025,-0.006l-0.032,0.01l-0.037,0.048l-0.003,0.027l0.05,0.062v0.047l-0.04,0.04l-0.018,0.041l-0.034,0.034l-0.057,0.021l-0.042,0.037l-0.042,0.084l-0.008,0.05l-0.021,0.029v0.033l-0.057,0.099l-0.017,0.004l-0.025,0.039l-0.02,0.003l-0.016,0.017l0.001,0.016l0.023,0.027l-0.014,0.054l-0.028,0.015l-0.029,0.03l-0.036,0.014l-0.049,0.035l-0.039,0.008l-0.016,0.018l-0.001,0.063l-0.019,0.02l-0.003,0.03l-0.009,0.024l-0.056,0.035l-0.074,0.008l-0.042,0.013l-0.048,0.041l-0.03,0.005l-0.007,0.01v0.025l-0.011,0.044l-0.025,0.046l-0.006,0.04l-0.035,0.05l-0.032,0.023l-0.057,0.013l-0.015,-0.008l-0.01,-0.033l-0.016,-0.013l-0.04,-0.001l-0.038,-0.021l-0.02,0.001l-0.021,0.034l-0.015,0.057l-0.033,0.028l-0.002,0.018l0.008,0.014l-0.001,0.023l-0.018,0.019l-0.002,0.018l0.025,0.039l0.001,0.03l-0.012,0.029l-0.002,0.021l0.037,0.026l0.002,0.046l-0.017,0.032l-0.049,0.022l-0.023,0.018l-0.005,0.022l-0.012,0.011l-0.027,0.003l-0.022,0.013l-0.025,0.031l-0.037,0.009l-0.059,-0.007l-0.009,-0.02l-0.028,-0.02l-0.023,-0.001l-0.026,0.041l-0.004,0.033l-0.022,0.027l-0.009,0.019l-0.002,0.029l-0.012,0.02l-0.03,0.011l-0.019,-0.002l-0.02,-0.041l-0.019,-0.003l-0.024,0.012l-0.041,0.034l-0.009,0.027l-0.044,0.031l-0.022,0.008l-0.015,0.015l-0.003,0.02l-0.05,0.052l-0.011,0.035l-0.055,0.055l-0.027,0.015l-0.013,0.018l-0.007,0.038l-0.016,0.005l-0.014,-0.009l-0.017,0.005l-0.004,0.02l0.02,0.049l-0.003,0.038l-0.029,0.022v0.024l0.017,0.024v0.037l-0.016,0.032l0.002,0.045l0.009,0.002l0.015,-0.011l0.031,-0.002l0.021,0.005v0.016l-0.012,0.009l0.001,0.013l0.044,0.039l0.002,0.03l-0.008,0.058l0.004,0.017l0.027,0.001l0.025,0.017l0.001,0.028l-0.019,0.017l-0.003,0.015l0.02,0.031l0.001,0.095l-0.015,0.038l-0.026,0.014l-0.008,0.024l0.013,0.034l-0.001,0.015l-0.03,0.031l-0.004,0.021l0.006,0.022l-0.009,0.011l-0.048,0.013l-0.022,0.024l-0.017,0.064l-0.024,0.059l0.004,0.008l-0.032,0.056l-0.012,0.043l-0.013,0.077v0.067l-0.007,0.051l-0.036,0.043l-0.019,0.045l-0.006,0.063l-0.03,0.124l-0.107,0.233l-0.006,0.053l-0.059,0.125l-0.012,0.061l-0.041,0.073l-0.029,0.009l-0.012,0.012v0.049l-0.065,0.13l-0.096,0.155l-0.008,0.041l-0.018,0.033l-0.027,0.029l-0.016,0.065l0.016,0.032l-0.012,0.064l-0.027,0.039l-0.073,0.032l-0.021,0.033l-0.004,0.063l-0.036,0.033l-0.045,0.01l-0.023,0.037l-0.004,0.036l-0.014,0.025l-0.035,0.014v0.029l0.031,0.043l0.045,0.108l0.02,0.006l0.027,-0.006l0.036,-0.057l0.043,-0.037l0.016,0.004l-0.032,0.069l-0.049,0.07l-0.002,0.028h-0.01l-0.017,-0.024l-0.032,-0.012l-0.072,0.01l-0.028,0.018l-0.007,0.057l0.017,0.035l-0.002,0.025l-0.015,0.022l0.001,0.026l0.014,0.005l0.028,-0.031l0.021,-0.002l0.026,0.012l0.035,0.006l0.031,-0.008l0.024,0.01l-0.004,0.051l-0.031,0.055l-0.02,0.062l-0.039,0.057l-0.069,0.026l-0.041,-0.002l-0.041,-0.024l-0.012,0.006l0.018,0.051l0.027,0.041l0.039,0.016v0.014l-0.019,0.029l-0.002,0.031l0.012,0.022l-0.016,0.01l-0.067,-0.01l-0.015,-0.02l-0.022,-0.004l-0.031,0.016l-0.01,0.041l0.01,0.061l0.037,0.022l0.065,0.006l0.058,0.009l0.059,0.042l0.106,0.035l0.047,0.025l-0.004,0.01l-0.043,-0.002l-0.039,-0.018l-0.069,0.002l-0.076,0.04l-0.02,0.033l0.002,0.086l0.018,0.034l-0.002,0.017l-0.03,0.012l-0.035,0.051l0.002,0.039l-0.01,0.01l-0.01,-0.016v-0.043l-0.007,-0.004l-0.02,0.022l-0.006,0.037l-0.012,0.002l-0.011,-0.029l0.004,-0.04l0.025,-0.092l-0.008,-0.059l-0.033,-0.051l0.002,-0.023l-0.008,-0.016l-0.016,0.002l-0.017,0.034l-0.03,0.111l-0.031,0.057l-0.01,0.067l0.008,0.035l-0.002,0.063l-0.02,0.096l-0.039,0.096l-0.037,0.037l-0.032,0.008l-0.015,0.016l-0.004,0.151l-0.014,0.09l-0.029,0.057l-0.006,0.08l-0.014,0.016l-0.027,0.002l-0.018,0.018l-0.002,0.027l0.018,0.025l-0.028,0.048l-0.037,0.025l-0.022,0.039l0.004,0.026l0.057,0.021l0.034,0.047l0.025,0.073l-0.012,0.008l-0.057,-0.028l-0.019,-0.045l-0.026,-0.01l-0.019,0.016l-0.008,0.061l0.016,0.025l0.005,0.022l-0.015,0.004l-0.028,-0.028l0.002,-0.084l-0.015,-0.029l-0.028,0.002l-0.021,0.029l-0.006,0.069l0.021,0.074l0.063,0.083l0.016,0.054v0.071l0.021,0.057l0.018,0.02l0.033,0.003l0.014,0.016l0.002,0.035l0.014,0.006l0.035,-0.041h0.047l0.022,0.026l-0.006,0.013l-0.043,0.008l-0.032,0.014l-0.002,0.014l0.018,0.021l-0.004,0.016h-0.02l-0.037,-0.033l-0.035,-0.004l-0.043,0.013l-0.063,0.06l-0.021,0.066l0.023,0.063l0.05,0.044h0.039l0.034,-0.042l0.076,-0.055l0.045,-0.01l0.018,0.01l-0.037,0.019l-0.096,0.078l-0.021,0.042l0.005,0.039l0.034,0.024l0.036,0.06l0.027,0.083l-0.003,0.055l-0.01,0.037l-0.014,-0.008l-0.013,-0.078l-0.044,-0.068l-0.05,-0.047l-0.062,-0.027l-0.024,0.006l-0.029,0.062l-0.026,0.042l-0.052,0.068l-0.026,0.063l0.002,0.052l-0.01,0.068l-0.034,0.039l-0.045,0.014l-0.028,0.023l-0.003,0.044l0.011,0.04l-0.006,0.042l-0.042,0.054l0.006,0.032l0.01,0.026l0.003,0.076l-0.02,0.077l-0.036,0.067l-0.057,0.03l-0.021,-0.002l-0.015,0.004v0.011l0.034,0.043l0.011,0.12l0.025,0.072l0.002,0.063l-0.013,0.052l-0.033,0.037l0.001,0.032l0.018,0.034l0.004,0.051l-0.009,0.036l-0.046,0.03l-0.001,0.024l0.05,0.061l0.072,0.044l0.009,0.037l-0.012,0.051l-0.014,0.03l-0.008,-0.006l0.001,-0.04l-0.01,-0.035l-0.034,-0.037l-0.019,-0.001l-0.026,0.026l-0.001,0.043l0.037,0.075l0.001,0.04l-0.008,-0.001l-0.022,-0.036l-0.028,-0.081v-0.036l0.019,-0.035v-0.016l-0.036,-0.037l-0.005,-0.042l0.005,-0.038l-0.006,-0.002l-0.018,0.033l-0.003,0.069l0.012,0.069l0.034,0.111l0.025,0.136l0.154,0.422l0.039,0.196l0.03,0.078l0.018,0.132l0.007,0.133l0.017,0.014h0.036l0.05,0.017h0.029l0.022,-0.021l0.012,-0.001l0.004,0.012l-0.011,0.023l0.005,0.029l0.034,0.028l0.021,-0.002l0.024,-0.022h0.025l0.032,0.018l0.025,0.058l0.015,0.099l0.026,0.045l0.018,0.005l0.02,-0.011l0.068,-0.09l0.019,-0.005l0.018,0.008l0.012,0.034l0.022,0.03l0.014,-0.001l0.024,-0.04l0.004,-0.027l-0.008,-0.024v-0.036l0.028,-0.069l0.03,-0.029l0.033,-0.002l0.017,-0.013l0.001,-0.019l-0.026,-0.022l0.001,-0.023l0.018,-0.018l-0.001,-0.031l-0.021,-0.029l-0.001,-0.021l0.008,-0.018v-0.083l-0.011,-0.06l-0.034,-0.049l-0.032,-0.02h-0.025l-0.025,0.008l-0.011,-0.004l0.003,-0.009l0.02,-0.023l0.04,-0.019l0.062,-0.001l0.033,0.006l0.025,-0.004l0.027,-0.026l0.004,-0.019l-0.011,-0.033l-0.003,-0.035l-0.008,-0.027l-0.013,-0.009l-0.023,-0.032l-0.002,-0.01l0.012,-0.003l0.038,0.034l0.005,0.029l0.007,0.029l0.022,0.008l0.018,0.012l0.008,-0.007l-0.002,-0.017l0.006,-0.01l0.015,0.001l0.007,-0.006l0.003,-0.045l0.031,-0.056l0.013,-0.034l0.006,-0.006v0.019l-0.015,0.046l-0.018,0.064l0.003,0.071l0.01,0.028l0.031,0.012l0.035,-0.007l0.064,-0.035l0.01,-0.027l-0.01,-0.038l-0.019,-0.018l-0.021,-0.029l0.005,-0.006l0.03,0.02l0.046,0.04l0.028,-0.001l0.042,-0.023l0.048,-0.004l0.029,-0.012l0.023,-0.026l0.008,-0.031l0.001,-0.03l0.009,-0.028v-0.084l0.009,-0.034h0.014l0.003,0.015l-0.002,0.031l0.024,0.1l0.026,0.029l0.028,0.002l0.019,-0.011l0.032,-0.002l0.029,-0.012l0.002,-0.016l-0.019,-0.014l-0.033,-0.038v-0.022l0.017,-0.039l0.018,-0.013h0.026l-0.001,0.009l-0.021,0.013l-0.018,0.03l0.002,0.018l0.029,0.013l0.029,0.033l0.002,0.023l-0.01,0.033l-0.032,0.024l-0.032,0.002l-0.033,0.011l-0.003,0.015l0.013,0.025l-0.001,0.053l-0.01,0.04l-0.027,0.047l-0.013,0.092l0.008,0.047l0.024,0.022l0.011,-0.001l0.006,-0.025l0.011,-0.026l0.01,-0.001l0.003,0.023l0.012,0.019h0.016l0.06,-0.05l0.056,-0.037l0.067,-0.027l0.008,-0.022l-0.005,-0.021l-0.014,-0.015l0.002,-0.008l0.021,0.004l0.012,0.024l-0.003,0.108l0.016,0.055l0.024,0.05l-0.002,0.053l-0.027,0.045l-0.006,0.039l0.012,0.015l0.022,-0.006l0.02,-0.072l0.013,-0.029h0.013l0.034,0.104l0.036,0.092l0.002,0.06l-0.043,0.08l-0.001,0.042l0.011,0.033l0.017,0.002l0.012,-0.014l0.012,0.001l0.012,0.029v0.024l-0.021,0.034l-0.016,0.058l-0.001,0.112l0.017,0.074l0.035,0.034l0.021,0.035l0.002,0.032l0.008,0.022l0.013,-0.001l0.007,-0.013l-0.007,-0.033l0.012,-0.025l0.021,-0.012l0.081,-0.005l0.054,0.024l0.048,0.062l0.034,0.034l0.025,-0.001l0.019,-0.025l0.048,-0.026l0.028,0.001l0.038,0.013l0.02,-0.002l0.051,-0.049l0.004,-0.027l-0.025,-0.042l0.005,-0.005l0.02,0.006l0.017,0.024l0.025,0.009l0.01,-0.003l0.02,-0.052l0.013,0.004l-0.007,0.072l0.008,0.038l0.095,0.086l0.019,-0.002l0.006,-0.032l0.004,-0.053l0.011,-0.017l0.013,0.002v0.045l-0.017,0.081l-0.02,0.015l-0.022,0.004l-0.016,0.023v0.026l0.093,0.159l0.027,0.008l0.058,-0.012l0.034,0.005l0.038,0.036l0.035,0.047l0.007,0.069l0.019,0.014l0.034,-0.002l0.072,-0.058l0.029,-0.066l0.01,-0.037l-0.011,-0.05l0.011,-0.014l0.053,0.001l0.043,-0.005l0.019,-0.017l0.015,-0.027h0.01v0.039l-0.017,0.031l-0.055,0.026l-0.027,0.042l-0.005,0.032l0.022,0.002l0.029,-0.034l0.015,-0.005l0.01,0.004l-0.034,0.042l-0.006,0.038l-0.015,0.068l-0.044,0.058l-0.017,0.061l0.012,0.018l0.029,0.004l0.012,0.023l-0.003,0.02l-0.012,0.001l-0.055,-0.035l-0.04,0.001l-0.01,0.012l-0.008,0.03l-0.024,0.026l-0.068,0.032v0.019l0.033,0.058v0.026l-0.017,0.034l-0.005,0.063l0.007,0.095l0.054,0.141l0.039,0.03l0.058,0.003l0.035,0.017l0.058,0.009l0.04,-0.012l0.034,-0.059l0.013,-0.107l-0.004,-0.056l0.007,-0.03l0.022,-0.017l0.021,-0.033l0.001,-0.044l0.005,-0.042l0.011,-0.001l0.006,0.013l0.02,0.159l0.037,0.04l0.052,0.018l0.037,0.034l0.017,0.059l0.027,0.032l0.068,0.04l0.01,0.023l-0.02,0.027l-0.002,0.023l0.015,0.008l0.028,-0.019l0.028,-0.002l0.022,0.013h0.021l0.026,-0.029l0.021,-0.005l0.017,0.011l0.001,0.027l0.009,0.026l0.037,0.019l0.009,0.019l-0.026,0.065l-0.018,0.016l-0.029,0.001l-0.005,0.011l0.064,0.036h0.023l0.021,-0.022l0.024,-0.004l0.021,0.017l0.005,0.025l-0.012,0.051l0.024,0.089l0.07,0.099l0.016,0.048l-0.003,0.044l-0.027,0.039l-0.026,0.005l-0.012,-0.008l-0.009,0.003l-0.003,0.013l0.024,0.034l0.014,0.001l0.018,-0.018l0.034,0.002l0.044,0.04l0.024,0.035l0.004,0.044l0.038,0.074l0.019,0.107v0.074l-0.025,0.049l0.001,0.043l0.048,0.053l0.033,0.051l0.088,0.093l0.022,0.059l0.016,0.008l0.015,-0.009l0.019,-0.04h0.01l0.009,0.044l0.029,0.035l0.061,0.012l0.026,0.018l0.093,0.029h0.032l0.028,-0.017l0.021,-0.041l0.008,-0.069l-0.025,-0.079l-0.002,-0.108l0.012,-0.033l0.037,-0.035l0.027,-0.046l0.006,-0.064l0.012,-0.04l0.034,-0.023l0.022,0.002l0.003,0.014l-0.025,0.018l-0.02,0.057l-0.002,0.085l-0.015,0.058l-0.008,0.078l0.004,0.117l0.023,0.055l0.048,0.022l0.031,-0.004l0.081,-0.06l0.03,-0.035l0.027,-0.112l0.017,-0.057l0.047,-0.061l0.054,-0.06l0.014,-0.032l0.01,-0.003l-0.005,0.037l-0.05,0.062l-0.01,0.033l0.008,0.007l0.064,-0.021l0.051,0.002l0.017,0.006l-0.012,0.012l-0.054,-0.003l-0.047,0.014l-0.043,0.028l0.001,0.016l0.043,0.029l0.015,0.001l0.017,-0.013l0.035,-0.005l0.058,0.005l0.007,0.016l-0.018,0.036l-0.018,0.002l-0.03,-0.021l-0.028,-0.007l-0.03,0.009l-0.023,-0.005l-0.032,-0.021l-0.014,0.003l-0.046,0.108l-0.026,0.103l-0.018,0.024l-0.072,0.017l-0.028,0.02l-0.031,0.099l0.004,0.03l0.043,0.029l0.088,0.11l0.028,0.094l0.055,0.111l0.021,0.005l0.025,-0.016l0.022,-0.048l0.006,-0.03l-0.01,-0.017l-0.004,-0.026l0.01,-0.064l0.015,-0.075l0.009,-0.014v0.036l-0.009,0.066l0.011,0.036l0.059,0.045l0.007,0.035l-0.024,0.042l-0.053,0.016l-0.013,0.014l0.009,0.033l0.023,0.011l0.035,-0.009l0.061,-0.057l0.008,-0.034l-0.022,-0.052l-0.065,-0.063l-0.011,-0.037l0.005,-0.036l0.069,-0.066l0.027,-0.051l0.006,-0.049l0.01,-0.012l0.01,0.065l-0.027,0.054l-0.075,0.075l0.002,0.023l0.023,0.022l0.055,0.063l0.02,0.043l0.022,0.004l0.023,-0.035l0.033,-0.024l0.012,-0.025v-0.04l0.014,-0.002l0.016,0.045l-0.006,0.024l-0.055,0.039l-0.008,0.053l0.035,0.081v0.064l0.016,0.014l0.061,-0.024l0.041,-0.043l0.006,-0.041l0.017,0.004l0.016,0.051l0.053,0.01l0.031,-0.018l0.03,-0.061l-0.021,-0.009l0.002,0.143l-0.025,0.023l-0.054,0.01l-0.009,0.022l0.013,0.029l-0.005,0.038l-0.049,0.055l-0.062,0.017l-0.043,0.057l0.002,0.066l0.023,0.044l-0.005,0.019l-0.024,0.014l-0.004,0.041l0.018,0.071l0.033,0.055l0.018,0.003l0.037,-0.045l0.059,-0.004l0.074,0.03l0.034,0.053l-0.006,0.066l-0.036,0.04l-0.021,-0.002l-0.01,-0.028l-0.076,-0.043l-0.023,-0.028l-0.026,-0.001l-0.04,0.033l-0.004,0.029l0.012,0.024l0.004,0.057l-0.008,0.029l0.004,0.041l0.049,0.077l0.03,0.002l0.037,-0.02l0.029,-0.033l0.006,-0.059l-0.017,-0.021l-0.01,-0.022l0.025,0.004l0.028,0.035l-0.006,0.084l-0.051,0.042l-0.045,0.021l-0.01,0.018l0.014,0.008l0.037,-0.006l0.037,0.008l0.128,0.06l0.047,0.003l0.016,-0.019h0.022l0.031,0.023l0.059,0.108l0.018,0.098l0.033,0.028h0.049l0.031,-0.03l0.016,-0.017l0.014,0.004l0.013,0.041l0.071,0.088l0.033,0.073l0.032,0.037h0.043l0.031,-0.014l0.024,-0.033l0.025,-0.006l0.014,0.008l-0.02,0.068l0.004,0.04l0.026,0.043l-0.004,0.037l0.01,0.039l0.051,0.041l0.019,-0.002l0.014,-0.029l0.022,-0.022l0.015,0.004l0.002,0.061l0.018,0.047l0.035,0.043v0.022l-0.019,0.018l-0.026,-0.002l-0.02,0.015l-0.011,0.057l0.011,0.035l0.022,0.01l0.039,-0.027l0.055,-0.036l0.039,-0.003l0.065,0.043l0.006,0.025l-0.016,0.004l-0.047,-0.029l-0.027,0.004l-0.002,0.023l0.074,0.135l0.11,0.104l0.065,0.032l0.023,-0.004l0.018,-0.079l0.037,-0.062h0.026l0.025,0.027l-0.002,0.11l-0.031,0.043l-0.006,0.043l0.018,0.016l0.041,0.014l0.054,0.101l0.047,0.137l0.026,-0.014l0.008,-0.08l0.031,-0.038l0.015,-0.062l0.029,-0.031l0.009,-0.042l-0.024,-0.122l0.002,-0.124l0.02,-0.035l-0.016,-0.04l0.011,-0.006l0.06,0.039l0.025,-0.015v-0.084l-0.009,-0.029l-0.031,-0.024l-0.013,-0.078l0.013,-0.053l0.031,-0.013l0.013,-0.031l-0.009,-0.078l-0.033,-0.024v-0.029l0.033,-0.02l0.025,-0.058l0.062,-0.028l0.049,0.015l0.016,0.064l0.038,0.023h0.042l0.042,-0.069l0.02,0.002l0.013,0.038l0.029,0.002l0.029,-0.031l0.051,-0.007l0.014,0.022l-0.014,0.04l0.016,0.049l0.033,0.009l0.027,0.044l0.045,0.011l0.008,0.029l-0.017,0.017l-0.01,0.053l0.025,0.047l-0.01,0.031l-0.058,0.019l-0.002,0.024l0.04,0.014l0.018,0.066l0.017,0.012l0.04,0.005l0.058,0.045l0.022,0.088l0.028,0.016l0.039,-0.003l0.081,0.017l0.07,0.051l0.035,0.002l0.049,-0.027l0.067,-0.003l0.036,0.022l0.04,0.003l0.045,-0.022l0.02,0.012l-0.005,0.055l0.027,0.036l0.059,0.046l0.09,0.009l0.044,-0.023l0.026,0.005l0.037,0.041l0.09,0.03l0.052,0.043l0.047,0.015l0.061,-0.005l0.012,0.013l-0.007,0.025l0.024,0.022l0.051,-0.023l0.065,-0.014l0.02,-0.04l0.037,-0.023h0.039l0.021,-0.015l0.014,-0.035l0.053,-0.074l0.028,-0.012l0.022,0.013l-0.015,0.057l0.008,0.07l0.034,0.043l0.056,0.013l0.027,-0.027l0.025,0.005l0.045,0.049l0.05,0.008l0.027,0.021l0.006,0.07l0.022,0.056l0.002,0.117l-0.011,0.035l0.004,0.038l0.043,0.042l0.026,0.074l0.045,0.035l-0.005,0.027l-0.025,0.01l-0.027,0.038v0.041l0.04,0.072l0.005,0.033l-0.005,0.033l0.028,0.047l0.024,0.001l0.028,-0.024l0.008,-0.079l0.017,-0.001l0.057,0.041l0.018,0.045l0.027,0.013l0.05,-0.033l0.038,-0.005l0.057,0.012l0.022,-0.012l0.001,-0.053l0.061,-0.041l0.015,-0.037l0.025,-0.007l0.041,0.017l0.032,0.052l0.075,0.033l0.013,0.025l0.057,0.01l0.069,-0.034l0.093,-0.005l0.06,-0.02l0.068,0.02l0.005,0.024l-0.016,0.04l0.04,0.094l-0.005,0.02l0.005,0.023l0.026,0.015l0.002,0.027l-0.053,0.043l-0.059,0.013l-0.033,-0.005l-0.04,0.027v0.033l-0.048,0.038l-0.005,0.029l0.096,0.036l0.062,0.038l0.003,0.029l0.019,0.006l0.041,0.007l0.03,0.03l-0.005,0.028l-0.031,0.015l-0.012,0.05l-0.042,0.055l-0.005,0.043l0.042,0.041l0.003,0.02l-0.025,0.03l-0.001,0.048l0.021,0.019l-0.001,0.018l-0.024,0.02l0.004,0.036l0.051,0.029l0.007,0.033l-0.043,0.065l-0.044,0.005l-0.01,0.019l0.002,0.037l-0.033,0.06l-0.004,0.043l-0.018,0.005l-0.023,-0.027l-0.044,-0.003l-0.03,0.027h-0.026l-0.044,-0.024l-0.038,0.02v0.047l-0.048,0.062l-0.023,0.058l-0.005,0.071l0.018,0.032l-0.006,0.02l-0.033,0.029l-0.006,0.028l-0.054,0.028l-0.002,0.029l0.028,0.069l0.091,0.069l0.014,0.046l0.041,0.051l0.025,0.009l0.071,-0.022l0.017,0.012l-0.001,0.044l0.011,0.006h0.023l0.045,0.029l0.003,0.031l0.043,0.035l0.008,0.041l0.085,0.086l0.049,0.189l0.034,0.005l0.011,-0.026l0.033,-0.009l0.042,-0.032l0.004,-0.035l0.018,-0.018l0.096,-0.004l0.06,-0.047l0.029,-0.056l-0.012,-0.032l0.013,-0.015h0.055l0.05,-0.032l0.035,-0.048l0.008,-0.025l-0.01,-0.024l0.004,-0.04l-0.027,-0.084l-0.001,-0.036l0.026,-0.034l0.004,-0.058l0.026,-0.05l0.044,-0.033l0.047,-0.005l0.045,0.006l0.022,0.034l0.019,0.001l0.033,-0.032l0.023,0.002l0.024,0.018l0.036,-0.009l0.018,-0.057l0.036,-0.027l0.044,-0.002l0.016,-0.013l0.017,-0.054l0.036,-0.029l0.004,-0.054l0.014,-0.007l0.047,0.011l0.069,-0.011l0.033,0.015l0.07,0.01l0.036,-0.028l0.018,0.001l0.023,0.021l0.032,-0.001l0.011,-0.037l0.011,-0.01l0.029,-0.003l0.062,-0.066l0.015,-0.003l0.021,0.014l0.012,-0.009l0.004,-0.028l0.049,-0.041l0.097,-0.011l0.052,-0.035l0.03,0.004l0.005,0.044l0.029,0.021l0.048,-0.005l0.022,0.015l-0.004,0.042l0.027,0.025l0.007,0.059l0.055,0.025l0.03,-0.007l0.021,-0.02l0.021,0.005l0.016,0.032l-0.017,0.032l-0.001,0.018l0.016,0.014l-0.002,0.018l-0.015,0.023l0.002,0.098l0.026,0.003l0.01,0.021l-0.005,0.025l0.02,0.046l0.03,0.02l0.025,0.001l0.009,0.011l0.009,0.086l0.034,0.009l0.056,-0.038l0.003,-0.09l0.011,0.001l0.005,0.022h0.01l0.013,-0.012l0.017,-0.001l0.015,0.012l0.016,-0.006l0.025,-0.045l0.041,-0.002l0.074,0.053v0.052l0.03,0.032l0.097,0.065l0.02,0.03l0.031,0.006l0.015,-0.021l-0.005,-0.035l-0.03,-0.032v-0.021l0.074,-0.107l0.057,-0.012l0.032,0.01l0.009,-0.006l-0.014,-0.023l0.011,-0.018l0.041,-0.001l0.021,-0.024l-0.016,-0.044l0.035,-0.059l0.04,-0.024l0.037,0.01l0.041,-0.005l0.041,-0.029l0.003,-0.031l0.01,-0.008l0.024,-0.003l0.02,-0.038l-0.015,-0.032l-0.001,-0.034l-0.021,-0.034l0.002,-0.023l-0.014,-0.012l-0.033,-0.01l0.001,-0.032l0.026,-0.042l-0.001,-0.059l0.009,-0.01l0.024,0.002l0.023,-0.029l-0.008,-0.052l0.015,-0.025l-0.009,-0.023l0.023,-0.029l0.026,-0.005l0.054,-0.05l0.003,-0.053l0.024,-0.036l0.024,-0.003l0.033,-0.034l0.025,-0.001l0.015,-0.013l0.002,-0.021l0.011,-0.007l0.038,0.001l0.011,-0.01l0.004,-0.029l0.038,-0.031l0.025,-0.004l0.06,-0.036l0.02,-0.068l0.023,-0.032l0.019,-0.005l0.044,-0.1l0.016,-0.007l0.023,-0.046l-0.016,-0.031l-0.018,-0.011l-0.006,-0.033l-0.016,-0.01l-0.002,-0.017l0.012,-0.022l-0.013,-0.075l0.032,-0.088l-0.03,-0.01l0.004,-0.017l0.027,-0.001l0.016,-0.021l-0.006,-0.021l-0.263,-0.172l-0.241,-0.206l-0.188,-0.206l-0.047,-0.067l-0.089,-0.043l-0.08,-0.008l-0.047,-0.03l-0.059,-0.086l-0.282,-0.385l-0.275,-0.437l-0.031,-0.087l-0.016,-0.015l-0.029,-0.013l-0.078,-0.095l-0.105,-0.18l-0.089,-0.171l-0.039,-0.023l-0.034,-0.006l-0.034,-0.021l-0.023,-0.039l-0.026,-0.01l-0.042,0.008l-0.045,-0.014l-0.039,-0.026l-0.17,-0.052l-0.212,-0.037l-0.109,-0.034l-0.079,-0.058l-0.104,-0.076l-0.081,-0.034l-0.076,0.006l-0.084,0.042l0.003,0.015l0.028,0.003l0.061,-0.016l0.065,0.003l0.105,0.055l0.054,0.021l0.061,0.057l0.013,0.055l-0.04,0.037l-0.034,-0.002l-0.036,-0.021l-0.034,-0.006l-0.032,0.011l-0.041,-0.008l-0.053,-0.039l-0.065,-0.024l-0.063,0.003l-0.018,0.015l0.005,0.029l-0.036,0.037l-0.181,0.06l-0.227,0.016l-0.178,0.002l-0.094,0.019l-0.11,-0.008l-0.175,-0.068l-0.188,-0.115l-0.173,-0.163l-0.06,-0.021l-0.11,-0.002l-0.083,-0.029l-0.11,-0.071l-0.149,-0.152l-0.155,-0.217l-0.219,-0.328l-0.1,-0.115l-0.034,-0.042l-0.028,-0.005l-0.013,0.013l0.005,0.044l0.029,0.066l-0.024,0.057l-0.036,0.011l-0.05,0.031l-0.034,0.037l-0.079,0.029l-0.107,0.002l-0.081,-0.018l-0.034,-0.042l-0.063,-0.013l-0.041,0.005l-0.076,-0.023l-0.042,-0.068l-0.008,-0.037l-0.021,-0.024l-0.034,-0.018l-0.029,-0.037l0.006,-0.044l0.055,-0.05l0.075,-0.047l-0.018,-0.032l-0.052,-0.028v-0.042l0.055,-0.055l-0.003,-0.074l-0.06,-0.057l-0.021,-0.055l0.005,-0.105l-0.018,-0.094l-0.029,-0.027l-0.036,-0.005l-0.034,0.029l-0.042,0.102l-0.021,0.011l-0.018,-0.021l0.013,-0.11l0.052,-0.074l0.003,-0.102l-0.042,-0.068v-0.053l0.023,-0.015l0.042,-0.013l0.039,-0.04l-0.01,-0.018l-0.026,0.005l-0.032,0.032l-0.052,0.015l-0.037,0.003l-0.013,0.021l0.008,0.066l-0.008,0.073l0.013,0.029l0.027,0.026l-0.011,0.031l-0.044,0.021l-0.019,0.053l-0.01,0.128l0.021,0.037l0.065,0.013l0.011,0.016l-0.013,0.023l-0.066,-0.021l-0.034,0.003l-0.031,0.029l-0.031,-0.008l-0.024,-0.04l-0.105,-0.12l-0.034,-0.016l-0.026,-0.039l-0.002,-0.037l-0.089,-0.175l-0.008,-0.076l0.01,-0.053l-0.023,-0.013h-0.047l-0.06,-0.036l-0.037,-0.014l-0.021,-0.039l-0.076,-0.39l-0.034,-0.123l-0.005,-0.223l0.042,-0.084l0.144,-0.094l0.034,-0.053l0.052,-0.01l0.042,0.005l0.063,-0.013l0.052,-0.045l0.044,-0.007l0.04,0.015l0.073,0.139l0.055,0.231l0.01,0.23l-0.021,0.129l-0.023,0.034l-0.024,0.002l-0.036,-0.021l-0.027,0.003l-0.013,0.055l-0.023,0.042l-0.034,0.026l-0.013,0.042l0.018,0.089l0.037,0.021l0.041,0.003l0.027,-0.047l0.034,-0.11l0.06,-0.055l0.07,-0.011l0.108,0.013l0.075,0.042l0.032,0.087l0.042,0.254l0.005,0.251l-0.016,0.047l0.008,0.053l0.047,0.044l0.018,0.066l-0.008,0.078l0.019,0.053l0.005,0.078l-0.01,0.045l-0.016,0.021l-0.005,0.029l0.028,0.026l0.06,0.021l0.079,-0.003l0.073,0.019l0.183,0.133l0.026,0.05l-0.018,0.121l-0.029,0.036l-0.013,0.026l0.016,0.011l0.055,-0.016l0.031,-0.037l-0.008,-0.034l-0.021,-0.026l0.006,-0.039l0.028,-0.024h0.037l0.023,0.019l0.014,-0.01l-0.006,-0.069l-0.04,-0.104l-0.037,-0.047l-0.064,-0.064l-0.118,-0.196l-0.116,-0.267l-0.121,-0.348l-0.1,-0.416l-0.197,-0.788l-0.1,-0.482l-0.074,-0.438l-0.092,-0.552l-0.092,-0.348l-0.145,-0.42l-0.104,-0.224l-0.147,-0.144l-0.112,-0.037l-0.057,0.002l-0.01,0.01l0.018,0.01l0.057,0.007l0.08,0.032l0.028,0.035v0.081l-0.036,0.065l-0.01,0.068l0.022,0.077l0.063,0.094l0.011,0.071l-0.015,-0.002l-0.026,-0.037l-0.051,-0.022h-0.035l-0.031,-0.018l-0.034,-0.039l-0.037,-0.018l-0.055,-0.013l-0.049,-0.026l-0.035,-0.057l-0.055,-0.181l-0.051,-0.123l-0.08,-0.124l-0.038,-0.041l-0.015,-0.046l-0.043,-0.051l-0.073,-0.041l-0.067,-0.059l-0.035,-0.108l-0.018,-0.161l-0.041,-0.281l-0.017,-0.171l-0.055,-0.322l-0.008,-0.358l0.039,-0.079v-0.035l-0.02,-0.043l-0.004,-0.153l-0.019,-0.134l-0.043,-0.06l-0.039,-0.027l-0.034,-0.06v-0.16l0.01,-0.065l-0.003,-0.068l-0.096,-0.142l-0.021,-0.065l-0.003,-0.068l-0.034,-0.048l-0.026,-0.002l-0.024,0.021h-0.044l-0.123,-0.06l-0.036,-0.006l-0.016,0.011l-0.032,-0.003l-0.034,-0.018h-0.039l-0.031,0.021l-0.058,-0.005l-0.068,-0.037l-0.018,0.008l-0.021,0.044l-0.047,0.032l-0.07,0.005l-0.05,0.018l-0.073,0.092l-0.053,0.024l-0.089,-0.006l-0.088,-0.042l-0.074,-0.005l-0.062,0.032l-0.053,0.083l-0.013,0.082l-0.023,0.044l-0.084,0.05l-0.078,0.008l-0.157,-0.008l-0.058,0.018l-0.07,0.063l-0.019,-0.005l-0.015,-0.079l-0.032,-0.028l-0.065,-0.016l-0.063,-0.032l-0.021,-0.031l-0.036,-0.021l-0.058,0.003l-0.065,0.052l-0.042,-0.003l-0.071,-0.044l-0.06,-0.073l-0.026,-0.118l-0.008,-0.147l0.029,-0.06l0.078,-0.053l0.048,-0.005l0.028,-0.021l0.021,-0.058l0.068,-0.081l0.024,-0.005l0.028,0.018h0.016l-0.005,-0.021l-0.133,-0.131l-0.11,-0.17l-0.107,-0.259l-0.019,-0.092l0.008,-0.066l-0.016,-0.055l-0.107,-0.131l-0.052,-0.128l-0.024,-0.149l-0.041,-0.108l-0.021,-0.162l0.008,-0.121l0.034,-0.068l0.041,-0.023l0.013,-0.045l-0.02,-0.081l-0.003,-0.089l0.016,-0.053l-0.011,-0.125l-0.029,-0.074v-0.071l0.032,-0.065l0.018,-0.005l0.021,0.015l0.021,-0.007v-0.066l0.013,-0.042l-0.008,-0.016l-0.042,-0.015l-0.049,-0.079l-0.024,-0.168l0.005,-0.073l0.06,-0.058l0.063,-0.112l0.016,-0.084l0.039,-0.06h0.031l0.04,0.013l0.081,-0.034l0.039,-0.045l-0.021,-0.005l-0.047,0.021l-0.037,-0.003l-0.049,-0.047l-0.011,-0.044l0.016,-0.042l-0.021,-0.021l-0.084,-0.029l-0.044,-0.003l-0.05,-0.052l-0.018,-0.087v-0.083l0.031,-0.074l0.079,-0.039l0.091,-0.011l0.087,0.05l0.026,0.047l0.018,0.003l0.047,-0.05l0.037,-0.002l0.036,0.015l0.032,-0.005l0.018,-0.055l-0.003,-0.123l-0.044,-0.066l-0.139,-0.131l-0.026,-0.078l0.008,-0.053l0.029,-0.013l0.057,-0.008l0.042,-0.044l-0.018,-0.011l-0.026,0.006l-0.029,-0.008l-0.029,-0.047l0.011,-0.047l0.023,-0.014l0.063,0.011l0.031,-0.018l0.037,-0.113l0.008,-0.094l0.009,-0.154l0.025,-0.091l0.052,-0.037h0.032l0.028,0.026l0.008,0.037l0.019,0.005l0.02,-0.034l-0.002,-0.021l-0.021,-0.026l0.013,-0.044l0.052,-0.032l0.045,-0.038l0.099,-0.155l0.09,-0.192l0.013,-0.123l0.021,-0.055l0.047,-0.026h0.052l0.034,-0.026l0.039,0.002l0.037,0.024v0.029l0.013,0.008l0.039,-0.032l0.021,-0.065l-0.013,-0.063l-0.086,-0.152l0.013,-0.099l0.039,-0.102l-0.005,-0.196l-0.047,-0.218l0.013,-0.143l0.078,-0.154l0.097,-0.058l0.052,0.003l0.029,0.021l-0.003,0.029v0.026l0.026,0.012l0.033,-0.026l0.01,-0.047l-0.022,-0.053l-0.049,-0.086l-0.009,-0.12l0.015,-0.133l0.043,-0.116l0.075,-0.094l0.076,-0.174l0.02,-0.085l0.027,-0.068l0.03,-0.024l0.015,-0.037l0.006,-0.075l0.045,-0.115l0.149,-0.279l0.132,-0.215l0.031,-0.083l0.063,-0.084l0.082,-0.082l0.092,-0.059l0.034,-0.002l0.017,0.012l0.012,-0.002l-0.008,-0.02l-0.023,-0.027l-0.018,-0.051l0.004,-0.032l0.037,-0.021l0.004,-0.024l-0.027,-0.045l-0.01,-0.045l0.006,-0.039l0.047,-0.049l0.035,-0.004l0.032,0.021l0.013,-0.006v-0.035l-0.029,-0.041l-0.004,-0.026l-0.018,-0.017l-0.027,-0.016l-0.012,-0.035l0.008,-0.061l0.098,-0.235l0.108,-0.167l0.172,-0.167l0.089,-0.105l0.037,-0.026l0.043,-0.016l0.026,-0.029v-0.035l-0.012,-0.028l0.004,-0.041l0.039,-0.072l0.049,-0.059l0.088,-0.059l0.028,-0.047l-0.004,-0.037l-0.053,-0.049l-0.014,-0.038v-0.029l-0.023,-0.03l-0.036,-0.019l-0.027,-0.043l-0.008,-0.069l0.039,-0.174l0.026,-0.047l0.023,-0.016l0.01,-0.034l-0.012,-0.049v-0.133l-0.019,-0.082l-0.04,-0.053l-0.017,-0.098l-0.012,-0.094l-0.002,-0.069l0.012,-0.045l-0.006,-0.051l-0.037,-0.09l-0.03,-0.149l-0.002,-0.224l0.024,-0.155v-0.127l0.019,-0.137l0.075,-0.163l0.053,-0.135l0.035,-0.055l0.035,-0.106l0.018,-0.083l-0.002,-0.082l0.039,-0.139l0.075,-0.124l0.163,-0.213l-0.002,-0.018l-0.043,-0.016l-0.059,-0.055l-0.038,-0.109l-0.003,-0.1l0.021,-0.063l-0.006,-0.041l-0.096,-0.073l-0.063,-0.018l-0.068,-0.062l-0.022,-0.079l-0.072,-0.08l-0.047,-0.02l-0.049,-0.049l-0.04,-0.01l-0.002,-0.015l0.028,-0.049l0.017,-0.073l0.038,-0.043l0.102,-0.049l0.023,-0.047l0.006,-0.098l0.014,-0.016h0.043l0.025,0.01l0.024,-0.008l0.033,-0.035l0.008,-0.063l0.028,-0.063l0.121,-0.066l0.285,-0.094l0.147,-0.032l0.068,-0.021l0.051,-0.03l0.098,-0.019l0.047,-0.038l0.018,-0.074l-0.031,-0.067l0.005,-0.029l0.026,-0.018l0.014,0.002l-0.004,0.018l-0.016,0.017l0.002,0.022l0.053,0.069l0.116,0.053l0.133,0.011l0.243,-0.023l0.108,-0.033l0.071,-0.006l0.031,0.009l0.053,-0.002l0.068,-0.025l0.195,-0.012l0.078,-0.041l0.018,-0.047l-0.014,-0.037l-0.035,-0.039v-0.065l0.035,-0.067l0.018,-0.021l-0.002,-0.03l-0.032,-0.014l-0.053,-0.007l-0.074,-0.047l-0.012,-0.026l0.01,-0.012l0.017,0.018l0.01,0.014l0.053,0.029l0.067,0.012l0.035,0.023l0.01,0.026l-0.004,0.045l-0.043,0.063l-0.002,0.029l0.018,0.035l0.08,0.045l0.075,0.071l0.205,0.063l0.561,0.089l0.309,0.071l0.117,0.001l0.068,-0.036l0.026,-0.031l-0.002,-0.026l-0.012,-0.019l0.008,-0.028l0.057,-0.002l0.043,0.032l0.004,0.017h-0.024l-0.027,-0.021l-0.018,0.004l-0.004,0.025l0.012,0.022l-0.008,0.027l-0.033,0.032l-0.02,0.045l0.002,0.1l0.043,0.129l0.002,0.061l-0.027,0.047l-0.12,0.067l-0.059,0.011l-0.029,0.032l-0.006,0.059l-0.016,0.009l-0.023,-0.003l-0.026,0.015l0.002,0.036l0.071,0.088l0.027,0.082l0.028,0.155l-0.002,0.051l-0.024,0.063l-0.009,0.043l-0.065,0.09l-0.024,0.041l-0.009,0.039l-0.055,0.057l-0.022,0.059l-0.008,0.071l0.022,0.041l0.025,0.018l0.012,0.049l-0.01,0.033l0.01,0.016l0.051,-0.02l0.049,0.002l0.024,0.043l-0.006,0.108l-0.049,0.086l-0.032,0.018l-0.051,0.008l-0.015,0.033l-0.002,0.069l-0.041,0.057l-0.044,0.019l-0.013,0.043l0.009,0.036l0.108,0.109l0.065,0.134l0.016,0.113l-0.01,0.077l-0.065,0.09l-0.033,0.004l-0.032,-0.018l-0.041,0.002l-0.041,0.043l-0.031,0.018l-0.02,0.047l-0.008,0.079l0.016,0.068l0.043,0.014l0.002,0.016l-0.025,0.031l0.004,0.02l0.051,0.017l0.007,0.026l-0.015,0.027l-0.032,0.016l0.002,0.016l0.034,0.007l0.098,-0.015l0.037,-0.026h0.067l0.058,0.039l0.006,0.028l-0.017,0.033l-0.032,0.01l-0.01,0.02l0.014,0.045l0.026,0.017l0.043,0.002l0.063,0.036l0.025,-0.004l0.016,-0.036l0.004,-0.082l0.027,-0.059l0.082,-0.043l0.149,-0.016l0.081,-0.023l0.031,-0.024l0.11,-0.011h0.102l0.037,0.027l0.024,0.002l0.029,-0.008l0.02,0.01l0.015,0.043l0.004,0.057l0.012,0.012l0.02,-0.006l0.006,-0.059l-0.02,-0.033l0.006,-0.016l0.084,-0.004l0.061,0.012l0.135,-0.002l0.04,0.018l0.078,0.021l0.045,0.006l0.145,0.057l0.21,0.1l0.125,0.084l0.02,0.008l0.016,-0.01l0.008,-0.053l0.027,-0.053l0.065,-0.031l0.119,-0.01l0.163,0.008l0.08,0.014l0.055,-0.006l0.014,-0.024l0.002,-0.041l0.033,-0.019l0.116,-0.006l0.1,0.031l0.039,-0.002l0.049,-0.051l0.049,-0.088l0.053,-0.039l0.085,-0.03l0.078,-0.004l0.047,-0.017l0.065,0.002l0.053,0.015l0.088,0.055l0.076,0.028l0.14,0.1l0.031,0.053l0.006,0.072l0.029,0.045l0.049,0.022l0.026,-0.002l0.045,0.019l0.016,0.04l-0.014,0.029l-0.03,0.006l-0.029,-0.016l-0.014,0.01l0.004,0.018l0.059,0.029l0.071,0.065l0.017,0.033l0.022,0.014l0.023,0.006l0.024,0.025l0.012,0.002l0.004,-0.025l-0.018,-0.049l-0.01,-0.085l-0.021,-0.039v-0.037l0.035,-0.033l0.021,0.006l0.032,0.039l-0.002,0.025l-0.02,0.032l0.002,0.06l-0.01,0.024l0.004,0.023l0.032,0.006l0.031,-0.009l0.053,0.005l0.147,0.081l0.055,0.061l0.004,0.039l-0.004,0.035l0.01,0.033l0.049,0.024l0.016,-0.012l-0.004,-0.033l-0.018,-0.026v-0.041l0.02,-0.037v-0.053l-0.022,-0.018l0.008,-0.021l0.047,-0.01l0.053,0.033l0.055,0.006l0.037,-0.029h0.016l-0.004,0.025l-0.036,0.03l-0.054,0.004l-0.044,0.021l-0.023,0.047v0.045l-0.012,0.014v0.016l0.053,0.027l0.092,0.079l0.075,0.107l0.004,0.038l0.009,0.008l0.044,0.005l0.072,0.03l0.1,0.094l0.108,0.127l0.067,0.079l0.07,0.047h0.043l0.038,-0.018l0.009,-0.031l-0.009,-0.035l-0.049,-0.065l-0.02,-0.069l-0.004,-0.059l-0.016,-0.031l-0.021,-0.018l-0.006,-0.025l0.012,-0.024l-0.01,-0.029l-0.031,-0.01l-0.053,0.024l-0.01,-0.016l0.002,-0.039l0.023,-0.004l0.024,0.01l0.045,-0.006l0.045,-0.022l0.039,-0.002l0.004,0.02l-0.019,0.031l0.001,0.036l0.034,0.045l0.006,0.031l0.017,0.027l0.024,0.008l0.008,0.018l-0.008,0.023l-0.047,0.006l-0.006,0.018l0.006,0.055l0.039,0.051l0.02,0.059l0.033,0.025l0.029,0.002l0.034,-0.037l0.064,-0.037l0.018,-0.043l-0.004,-0.057l0.026,-0.043l0.049,-0.026l0.013,0.004l-0.004,0.02l-0.015,0.019l0.004,0.035l0.043,0.034l-0.008,0.015l-0.035,0.02l-0.085,0.092l-0.023,0.047l-0.035,0.018l-0.128,0.041l-0.029,0.002l-0.032,-0.016l-0.008,0.006l0.004,0.049l0.018,0.038l0.035,0.033l0.03,0.061l0.002,0.041l-0.02,0.039l0.002,0.049l0.057,0.071l0.065,0.013l0.035,-0.005l0.023,-0.034l0.059,-0.023l0.075,0.008l0.082,0.052l0.026,0.04l0.029,0.011h0.139l0.11,0.018l0.018,0.014l-0.002,0.012l-0.012,0.015v0.022l0.029,0.035l0.163,0.071l0.059,0.053l0.037,0.086l0.006,0.069l0.028,0.033l0.062,0.014l0.026,0.017l0.017,0.002l0.012,-0.029l-0.008,-0.053l-0.051,-0.079l-0.049,-0.037l-0.002,-0.027l0.02,-0.034v-0.033l-0.02,-0.051l-0.005,-0.076l0.007,-0.028l0.028,-0.016l0.002,-0.029l-0.006,-0.025l0.025,-0.059l0.053,-0.036h0.03l0.043,0.036l0.102,0.051l0.045,0.057l-0.002,0.045l-0.02,0.009l-0.041,0.002l-0.017,0.016l-0.002,0.014l0.039,0.016l0.082,0.066l0.149,0.139l0.139,0.112l0.077,0.084l0.04,0.075l-0.005,0.099l0.02,0.074l0.034,0.049l0.003,0.039l-0.031,0.081l0.005,0.05l0.416,0.578l0.044,0.112v0.053l-0.016,0.062l0.006,0.079l0.022,0.086z"/>
</svg>
