<svg xmlns="http://www.w3.org/2000/svg" viewBox="1002.359 373.794 30.769 55.973">
  <path d="M1011.633,425.629l0.024-0.016l0.031,0.013l0.021,0.044l-0.021,0.037l-0.055-0.003l-0.013-0.024L1011.633,425.629L1011.633,425.629z M1009.099,426.313l0.01,0.018l0.084,0.008l0.188-0.05l0.042-0.026l-0.005-0.052l-0.037-0.018h-0.107l-0.073,0.021l-0.058,0.042l-0.013,0.037L1009.099,426.313L1009.099,426.313z M1009.562,426.548l0.042-0.005l0.008-0.018l-0.008-0.016l-0.026-0.003l-0.034,0.013l-0.008,0.016L1009.562,426.548L1009.562,426.548z M1009.622,426.452l0.044-0.047l0.005-0.063l-0.016-0.055l-0.042-0.037l-0.089-0.034l-0.026,0.005l-0.008,0.047l0.024,0.076l0.008,0.091l0.031,0.024L1009.622,426.452L1009.622,426.452z M1010.872,426.446l0.037,0.01l0.039-0.01l0.021-0.076l0.018-0.018l0.026,0.005l0.029,0.003l0.018-0.024l-0.008-0.214l-0.031-0.029l-0.026-0.06l0.003-0.05l0.026-0.042l-0.005-0.078l-0.057-0.105l-0.021-0.068l-0.042-0.073h-0.021l-0.016,0.031v0.076l0.008,0.042l-0.018,0.063l-0.068,0.068l-0.021,0.05l0.008,0.047l-0.016,0.05l-0.039,0.031l-0.016,0.029l-0.003,0.047l0.052,0.078l0.042,0.021l0.055,0.076l0.005,0.052L1010.872,426.446L1010.872,426.446z M1008.605,422.159l-0.005,0.042l-0.037,0.026l-0.005,0.021l0.018,0.039l-0.003,0.139l0.034,0.152l0.133,0.256l0.084,0.063l0.026-0.005l0.018-0.06l-0.008-0.052l-0.034-0.091l-0.073-0.105l-0.005-0.06l0.018-0.081l0.044-0.034l0.06,0.005l0.037,0.034l0.016-0.005l0.003-0.071l-0.005-0.071l0.01-0.092l-0.029-0.073l-0.047-0.021h-0.044l-0.084-0.024l-0.065-0.003l-0.042,0.026L1008.605,422.159L1008.605,422.159z M1007.598,421.918l0.018-0.005l0.039,0.013l0.023-0.01l0.003-0.026l-0.042-0.097l-0.055-0.047l-0.013,0.005v0.034l0.029,0.073l-0.005,0.018l-0.029,0.003l-0.016,0.037l0.013,0.039l0.021,0.003L1007.598,421.918L1007.598,421.918z M1008.393,421.709l0.026-0.003l0.003-0.031l-0.029-0.094l-0.031-0.055v-0.039l-0.034-0.021h-0.065l-0.031,0.029l0.008,0.031l0.065,0.05l0.06,0.102L1008.393,421.709L1008.393,421.709z M1008.435,421.367l0.008-0.05v-0.052l-0.029-0.052l-0.044-0.005l-0.016,0.037l0.005,0.091l0.055,0.105h0.018L1008.435,421.367L1008.435,421.367z M1008.503,421.492l0.034,0.037l0.026-0.003l0.026-0.063l0.003-0.042l-0.055-0.063l-0.05,0.005l-0.016,0.029L1008.503,421.492L1008.503,421.492z M1006.877,420.517l0.016,0.039l0.029,0.005l0.042-0.008l0.037,0.013v0.026l0.023,0.034l0.018-0.003l0.003-0.063l0.031-0.065l0.039-0.146l-0.008-0.099l-0.026-0.01l-0.024,0.013l-0.091,0.123l-0.01,0.055l-0.031,0.042l-0.065,0.005l-0.008,0.018L1006.877,420.517L1006.877,420.517z M1006.715,420.564l-0.01,0.037l0.008,0.044l0.042,0.034l0.018,0.076l0.047,0.063l0.044,0.003l0.055,0.047l0.01,0.037l-0.021,0.039l-0.044,0.013l-0.013,0.039l0.01,0.105l0.018,0.094l-0.005,0.05l0.013,0.042l0.021,0.003l0.016-0.024l0.021,0.024l0.01,0.039l0.016-0.008l0.003-0.047l0.042-0.131l0.005-0.11l-0.031-0.081v-0.12l0.01-0.039l-0.005-0.044l-0.029-0.039l-0.013-0.06l-0.018-0.013l-0.055,0.008l-0.057-0.026l-0.037-0.05l-0.05-0.034l-0.021,0.003V420.564L1006.715,420.564z M1005.826,420.276l0.037,0.199l-0.005,0.084l-0.081,0.068l-0.023,0.044l0.003,0.065l0.01,0.042l0.034,0.039l0.029,0.052l-0.008,0.063l-0.06,0.037l-0.003,0.037l0.018,0.031v0.039l-0.026,0.037l-0.039,0.029v0.042l0.031,0.031l0.068,0.029l0.018,0.055l-0.037,0.031l-0.05,0.005l-0.01,0.021l0.037,0.055l0.071,0.065l0.005,0.081l-0.013,0.157l0.034,0.073l0.039,0.013l0.063-0.013l0.029-0.084l0.029-0.102l0.06-0.073l0.044-0.005l0.026,0.026l0.005,0.05l0.021,0.026l0.029,0.003l0.039,0.024l0.013-0.005l-0.021-0.099l-0.031-0.06l0.008-0.039l0.037-0.047l0.094-0.018l0.034-0.039v-0.063l-0.013-0.021l-0.021,0.003l-0.029,0.031l-0.021-0.013l-0.003-0.037l-0.016-0.039l-0.063-0.086v-0.084l0.024-0.052l0.047-0.016l0.008-0.018l-0.01-0.024l-0.003-0.055l0.018-0.068l0.031-0.026l0.034-0.076l0.013-0.102l-0.021-0.018l-0.039,0.005l-0.055,0.031l-0.052-0.003l-0.058-0.047l-0.023-0.06l-0.026-0.021h-0.042l-0.016-0.024l-0.005-0.078l-0.047-0.094l-0.154-0.091l-0.029,0.005l-0.005,0.034L1005.826,420.276L1005.826,420.276z M1009.538,423.257l0.004,0.043l0.037,0.02l0.022-0.008l0.014-0.037l-0.016-0.047l-0.055-0.029l-0.02,0.018L1009.538,423.257L1009.538,423.257z M1009.841,423.692l-0.016,0.059l0.004,0.063l0.029,0.041l0.043,0.008l0.02-0.006l0.014-0.047l0.026-0.051l0.059-0.035l0.084-0.008l0.008-0.014l-0.027-0.037l-0.031-0.018l-0.047,0.006l-0.059-0.004l-0.031-0.031l-0.037,0.002l-0.035,0.029L1009.841,423.692L1009.841,423.692z M1010.543,424.221l0.006,0.043l0.039,0.029l0.09,0.02l0.059,0.026l0.012-0.014l-0.023-0.047l-0.059-0.041l-0.067-0.02l-0.065-0.037l-0.01,0.01L1010.543,424.221L1010.543,424.221z M1006.052,422.422l0.035,0.021l0.038-0.021l0.01-0.042l-0.024-0.017l-0.035,0.01L1006.052,422.422L1006.052,422.422z M1006.774,420.347l-0.016,0.011l0.004,0.039l0.034,0.036l0.028-0.01l-0.005-0.024L1006.774,420.347L1006.774,420.347z M1009.069,426.339l-0.011,0.016l0.017,0.036l0.044,0.023l0.023-0.019l-0.013-0.021L1009.069,426.339L1009.069,426.339z M1006.101,421.874l-0.005,0.022l0.039,0.001l0.053-0.031l0.002-0.015l-0.035,0L1006.101,421.874L1006.101,421.874z M1006.596,420.283l0.016-0.003l0.004-0.036l-0.011-0.043l-0.016-0.005l-0.007,0.039L1006.596,420.283L1006.596,420.283z M1006.908,419.843l0.005,0.018l0.026,0.005l0.026-0.016v-0.018l-0.031-0.005L1006.908,419.843L1006.908,419.843z M1011.336,425.416l0.024,0.015l0.029-0.008l0.004-0.029l-0.019-0.01l-0.037,0.018L1011.336,425.416L1011.336,425.416z M1006.629,420.141l0.01,0.019l0.023-0.022l0.004-0.029l-0.02-0.004L1006.629,420.141L1006.629,420.141z M1010.457,425.269l0.025-0.007l0.005-0.016l-0.022-0.015l-0.028,0.012l-0.001,0.02L1010.457,425.269L1010.457,425.269z M1006.533,421.822l0.019,0.002l0.012-0.023l-0.005-0.023l-0.016-0.007l-0.012,0.017L1006.533,421.822L1006.533,421.822z M1007.065,419.933l0.013,0.016l0.01-0.014l-0.01-0.027l-0.017-0.001L1007.065,419.933L1007.065,419.933z M1006.96,420.121l0.009-0.002l0.017-0.023l-0.005-0.01l-0.008,0.003l-0.013,0.02L1006.96,420.121L1006.96,420.121z M1011.061,424.285l0.007,0.018l0.011-0.001l0.003-0.018l-0.012-0.008L1011.061,424.285L1011.061,424.285z M1009.421,423.471l-0.017-0.033l-0.012-0.003l-0.007,0.01l0.022,0.048h0.015L1009.421,423.471L1009.421,423.471z M1008.471,421.24l0.011,0.032l0.013-0.001l0.005-0.035l-0.013-0.02l-0.016-0.002L1008.471,421.24L1008.471,421.24z M1006.746,420.268l0.003,0.019l0.014,0.003l0.01-0.016v-0.029l-0.014-0.007L1006.746,420.268L1006.746,420.268z M1008.657,423.891l0.024,0.02l0.022-0.012l0.006-0.036l-0.02-0.012l-0.023,0.014L1008.657,423.891L1008.657,423.891z M1006.56,419.837l0.008,0.041l0.028,0l0.005-0.037l-0.022-0.025L1006.56,419.837L1006.56,419.837z M1008.652,421.364l0.012-0.016l-0.006-0.02l-0.013,0.008l-0.009,0.015l0.004,0.015L1008.652,421.364L1008.652,421.364z M1007.144,420.027l0.019-0.005l0.008-0.019l-0.015-0.003l-0.016,0.006l-0.007,0.014L1007.144,420.027L1007.144,420.027z M1009.027,422.455l-0.001-0.02l-0.018-0.012l-0.005,0.014l0.003,0.017l0.012,0.009L1009.027,422.455L1009.027,422.455z M1007.606,422.119l-0.005-0.019l-0.019-0.008l-0.003,0.015l0.006,0.016l0.014,0.007L1007.606,422.119L1007.606,422.119z M1006.473,420.707l0.028,0.063l0.018,0.005l0.01-0.02l-0.017-0.046l-0.028-0.015L1006.473,420.707L1006.473,420.707z M1012.475,426.609l0.015,0.002l0.005-0.011l-0.004-0.021l-0.015,0.001l-0.007,0.017L1012.475,426.609L1012.475,426.609z M1006.549,419.678l0.021,0.003l0.007-0.009l-0.016-0.019l-0.019-0.002l-0.002,0.012L1006.549,419.678L1006.549,419.678z M1008.916,422.645l0.024,0.032l0.024,0.006l0.001-0.026l-0.033-0.043l-0.018-0.004L1008.916,422.645L1008.916,422.645z M1011.654,425.896l0.052-0.024l0.014-0.017l-0.007-0.02l-0.039,0.005l-0.031,0.022l-0.004,0.024L1011.654,425.896L1011.654,425.896z M1008.419,421.594l0.018,0.013l0.013-0.015l-0.006-0.032l-0.017-0.018l-0.018,0.005L1008.419,421.594L1008.419,421.594z M1008.751,423.806l0.006-0.021l-0.018-0.007l-0.029,0.016l-0.011,0.022l0.011,0.016L1008.751,423.806L1008.751,423.806z M1011.532,425.676l0.017-0.012l-0.001-0.012l-0.03,0.003l-0.021,0.016l0.009,0.014L1011.532,425.676L1011.532,425.676z M1008.993,422.324l0.017,0.021l0.016-0.007l0-0.055l-0.013-0.017l-0.017,0.01L1008.993,422.324L1008.993,422.324z M1011.728,425.796l0.001-0.028l-0.011-0.01l-0.013,0.016l-0.004,0.016l0.003,0.02l0.012,0.004L1011.728,425.796L1011.728,425.796z M1006.451,421.08l-0.006-0.017l-0.015-0.004l-0.011,0.015l0.007,0.016l0.013,0.003L1006.451,421.08L1006.451,421.08z M1011.053,426.418l0.014-0.011l-0.001-0.015l-0.018-0.006l-0.012,0.012l0.001,0.014L1011.053,426.418L1011.053,426.418z M1011.098,426.416l0.01-0.014l-0.006-0.014l-0.012-0.003l-0.01,0.012l0.004,0.014L1011.098,426.416L1011.098,426.416z M1010.169,426.186l0.012-0.012l-0.004-0.015l-0.011-0.005l-0.012,0.01l0.002,0.015L1010.169,426.186L1010.169,426.186z M1010.249,424.514l-0.008-0.021l-0.012-0.007l-0.004,0.011l0.006,0.016l0.013,0.013L1010.249,424.514L1010.249,424.514z M1006.474,419.774l-0.032-0.011l-0.027,0.004l0.002,0.017l0.042,0.021l0.023-0.008L1006.474,419.774L1006.474,419.774z M1009.752,426.23l-0.006,0.027l0.01,0.017l0.016-0.005l0.003-0.028l-0.007-0.016L1009.752,426.23L1009.752,426.23z M1006.353,421.154l-0.037-0.005l-0.024,0.016l0.016,0.024l0.034,0.008l0.021-0.013L1006.353,421.154L1006.353,421.154z M1005.927,422.758l-0.014,0.04l0.025,0.009l0.028-0.023l0.007-0.044l-0.016-0.003L1005.927,422.758L1005.927,422.758z M1006.093,421.715l0.052,0.025l0.046-0.011l0.006-0.017l-0.027-0.026l-0.041-0.009l-0.034,0.016L1006.093,421.715L1006.093,421.715z M1011.05,425.289l0.021-0.047l-0.005-0.055l-0.026,0.003l-0.016,0.042v0.058H1011.05L1011.05,425.289z M1009.241,423.128l0.006-0.036l-0.024-0.044l-0.023,0.008l-0.01,0.032l0.027,0.037L1009.241,423.128L1009.241,423.128z M1010.152,426.255l0.011-0.019l-0.002-0.027l-0.012,0l-0.014,0.024l0.002,0.027L1010.152,426.255L1010.152,426.255z M1013.329,422.939l0.037-0.024l0.003-0.029l-0.018-0.008l-0.018,0.01l-0.013,0.042L1013.329,422.939L1013.329,422.939z M1011.081,424.774l0.016,0.031l0.048,0.038l0.035,0.012l0.022-0.007l-0.002-0.037l-0.027-0.043l-0.057-0.02l-0.027,0.008L1011.081,424.774L1011.081,424.774z M1010.309,423.312l0.007-0.024l0.002-0.029l-0.007-0.012l-0.01,0.001l-0.019,0.021l0.001,0.028l0.013,0.06l0.009-0.002L1010.309,423.312L1010.309,423.312z M1010.333,423.186v0.014l0.008,0.002l0.008-0.011l-0.001-0.02l-0.006-0.002L1010.333,423.186L1010.333,423.186z M1010.725,423.982l-0.004,0.026l-0.009,0.022l0.013,0.007l0.027-0.008l0.013-0.018l-0.001-0.027l-0.04-0.035l-0.01,0.005L1010.725,423.982L1010.725,423.982z M1008.725,421.143l0.01,0.009l0.016-0.012l0.004-0.018l-0.007-0.008l-0.018,0.005l-0.007,0.01L1008.725,421.143L1008.725,421.143z M1008.711,421.271l-0.005,0.034l-0.016,0.037l-0.004,0.025l0.012,0.007l0.017-0.01l0.033-0.046l0.01-0.039l-0.004-0.029l-0.018-0.016h-0.025l-0.007,0.013L1008.711,421.271L1008.711,421.271z M1006.615,414.583l0.026,0.002l0.01-0.013l-0.016-0.021l-0.031,0.002l-0.007,0.018L1006.615,414.583L1006.615,414.583z M1006.551,413.82l0.013-0.023l-0.017-0.024l-0.034,0.016l-0.003,0.028l0.022,0.018L1006.551,413.82L1006.551,413.82z M1007.261,412.876l0.004-0.021l-0.011-0.006l-0.015,0.007l-0.005,0.019l0.012,0.008L1007.261,412.876L1007.261,412.876z M1007.182,412.942l0.021-0.001l0.014-0.032l-0.017-0.024l-0.02,0.007l-0.013,0.027L1007.182,412.942L1007.182,412.942z M1006.431,414.225l0.004-0.011l-0.01-0.006l-0.01,0.008l0.003,0.011L1006.431,414.225L1006.431,414.225z M1006.473,415.003l-0.006,0.021l0.006,0.013l0.016-0.006l0.004-0.026l-0.01-0.012L1006.473,415.003L1006.473,415.003z M1006.546,415.047l0.007-0.016l-0.01-0.015l-0.015,0l-0.009,0.012l0.007,0.014L1006.546,415.047L1006.546,415.047z M1006.174,415.074l0.008-0.01l-0.004-0.016l-0.02-0.002l-0.006,0.012l0.006,0.014L1006.174,415.074L1006.174,415.074z M1006.034,415.563l0.018,0.002l0.012-0.012l-0.004-0.016h-0.02l-0.012,0.01L1006.034,415.563L1006.034,415.563z M1005.997,415.437l0.027-0.02l0.016-0.055v-0.037l-0.012-0.002l-0.022,0.022l-0.027,0.053l-0.004,0.037L1005.997,415.437L1005.997,415.437z M1006.164,415.398l0.004-0.01l-0.008-0.018l-0.023-0.014l-0.012,0.004v0.018l0.02,0.02H1006.164L1006.164,415.398z M1011.073,414.676l-0.008,0.011l-0.002,0.011l0.015-0.002l0.008-0.007l0.001-0.01L1011.073,414.676L1011.073,414.676z M1011.073,414.676l-0.008,0.011l-0.002,0.011l0.015-0.002l0.008-0.007l0.001-0.01L1011.073,414.676L1011.073,414.676z M1011.004,414.713l0.012,0.014l0.01-0.005l-0.004-0.018l-0.015-0.004L1011.004,414.713L1011.004,414.713z M1011.032,415.426l0.021,0.003l0.007-0.009l-0.016-0.019l-0.019-0.002l-0.002,0.012L1011.032,415.426L1011.032,415.426z M1012.089,416.016l0.024-0.002l0.004-0.011l-0.013-0.013l-0.021,0.003l-0.004,0.011L1012.089,416.016L1012.089,416.016z M1011.042,415.731l0.005-0.057l-0.007-0.021l-0.021-0.004l-0.016,0.037l0.003,0.038l0.019,0.016L1011.042,415.731L1011.042,415.731z M1010.995,414.823l0.048,0.031l0.043,0.008l0.014-0.023l-0.029-0.038l-0.054-0.019l-0.024,0.013L1010.995,414.823L1010.995,414.823z M1011.002,415.213l0.021,0.026l0.071,0.018l0.055-0.029l0.024-0.086l-0.026-0.031h-0.063l-0.039,0.039l-0.031,0.013L1011.002,415.213L1011.002,415.213z M1011.985,415.8l0.029,0.021l0.052-0.008l0.026-0.037l-0.023-0.063l-0.034-0.003l-0.034,0.039L1011.985,415.8L1011.985,415.8z M1012.487,414.644l0.039-0.008l0.029-0.084l0.003-0.165l-0.037-0.081l-0.042-0.024l-0.008-0.026l0.016-0.031l-0.029-0.026l-0.084-0.031l-0.063,0.008l-0.023,0.026h-0.037l-0.037-0.024l-0.039,0.005l-0.063,0.073l-0.003,0.079l0.044,0.039l0.034,0.092l0.057,0.058l0.086,0.024l0.125,0.058L1012.487,414.644L1012.487,414.644z M1012.014,415.179l-0.003,0.102l-0.034,0.05l-0.005,0.034l0.026,0.052l0.01,0.134l0.024,0.031l0.055,0.008l0.026,0.026l0.039,0.008l0.055-0.034l0.065,0.005l0.037-0.016l0.01-0.039l0.097-0.105l0.086-0.024l0.01-0.034l-0.044-0.123l0.005-0.047l0.076-0.097l0.024-0.063l-0.018-0.065l-0.029-0.024l-0.021,0.003l-0.008,0.055l-0.05,0.042l-0.065,0.003l-0.065-0.021l-0.097-0.05l-0.055-0.016l-0.12,0.008l-0.097,0.031v0.021L1012.014,415.179L1012.014,415.179z M1011.572,413.122v0.029l0.029,0.031l0.06-0.005l0.047-0.065l0.003-0.079l-0.063-0.068l-0.034-0.003l-0.016,0.029l-0.003,0.086L1011.572,413.122L1011.572,413.122z M1009.836,411.94l0.012,0.009l0.01-0.007l0.007-0.02l-0.013-0.007l-0.014,0.011L1009.836,411.94L1009.836,411.94z M1010.539,409.493l0.015-0.024l-0.004-0.014l-0.019,0.008l-0.012,0.012l-0.007,0.019l0.009,0.009L1010.539,409.493L1010.539,409.493z M1010.271,410.331l0.02-0.031l-0.004-0.016l-0.031,0.018l-0.016,0.031l0.009,0.013L1010.271,410.331L1010.271,410.331z M1009.647,411.803l0.017-0.033l-0.007-0.028l-0.028,0.007l-0.019,0.029l0.005,0.024L1009.647,411.803L1009.647,411.803z M1009.513,412.52h0.012l0.007-0.014l-0.008-0.008l-0.014-0.003l-0.004,0.012L1009.513,412.52L1009.513,412.52z M1011.064,414.552l0.007,0.008l0.011-0.003l-0.001-0.014l-0.014-0.003L1011.064,414.552L1011.064,414.552z M1011.092,414.619l0.003,0.012l0.016-0.002v-0.012l-0.011-0.007L1011.092,414.619L1011.092,414.619z M1011.043,415.564l0.017,0.001l0.011-0.014l-0.005-0.014l-0.014-0.004l-0.011,0.011L1011.043,415.564L1011.043,415.564z M1011.945,415.993v0.014l0.014,0.008l0.012-0.008l-0.007-0.014H1011.945L1011.945,415.993z M1012.202,415.783l-0.001-0.015l-0.016,0.007l-0.011,0.022l0.014,0.004L1012.202,415.783L1012.202,415.783z M1011.892,416.009l0.001-0.012l-0.012-0.003l-0.011,0.008l0.008,0.01L1011.892,416.009L1011.892,416.009z M1011.22,414.887l-0.002,0.022l0.009,0.011l0.015-0.009l0-0.027l-0.012-0.011L1011.22,414.887L1011.22,414.887z M1015.721,403.973l0.014,0.027l0.022,0.003l0.01-0.033l-0.029-0.083l-0.021-0.004l-0.011,0.015L1015.721,403.973L1015.721,403.973z M1020.881,406.397l0.007,0.022l0.034-0.019l0.031-0.053l-0.006-0.014l-0.03,0.017L1020.881,406.397L1020.881,406.397z M1014.605,402.451l-0.005,0.012l0.01,0.009l0.016-0.01l-0.003-0.012L1014.605,402.451L1014.605,402.451z M1021.098,406.436l0.034-0.01l-0.004-0.014l-0.041-0.001l-0.021,0.011l0.001,0.012L1021.098,406.436L1021.098,406.436z M1021.319,406.44l-0.001-0.012l-0.015,0.001l-0.007,0.02l0.013,0.005L1021.319,406.44L1021.319,406.44z M1015.767,404.154l-0.017-0.066l-0.017-0.008l-0.013,0.018l0.008,0.048l0.025,0.02L1015.767,404.154L1015.767,404.154z M1021.037,406.871l0.02,0.001l0.008-0.034l-0.017-0.049l-0.017,0.003l-0.012,0.027L1021.037,406.871L1021.037,406.871z M1014.67,402.532l0.033,0.047l0.019,0.011l0.018-0.011l-0.011-0.038l-0.027-0.027l-0.025,0L1014.67,402.532L1014.67,402.532z M1014.67,402.532l0.033,0.047l0.019,0.011l0.018-0.011l-0.011-0.038l-0.027-0.027l-0.025,0L1014.67,402.532L1014.67,402.532z M1021.55,407.117l-0.014-0.024l-0.015,0l-0.002,0.027l0.015,0.016l0.018-0.002L1021.55,407.117L1021.55,407.117z M1015.495,403.658v0.018l0.018,0.003l0.008-0.018l-0.01-0.01L1015.495,403.658L1015.495,403.658z M1015.083,402.568l-0.022,0.052l0,0.044l0.025,0.01l0.032-0.035l0.009-0.057l-0.017-0.022L1015.083,402.568L1015.083,402.568z M1021.591,406.658l-0.008-0.036l-0.023-0.017l-0.017,0.023l0.004,0.035l0.019,0.015L1021.591,406.658L1021.591,406.658z M1021.393,406.27l-0.001-0.033l-0.013-0.012l-0.028,0.021l0,0.034l0.014,0.022l0.023-0.006L1021.393,406.27L1021.393,406.27z M1015.173,401.688l0,0.068l0.029,0.069l0.027,0.007l0.012-0.059l-0.006-0.04l-0.04-0.052L1015.173,401.688L1015.173,401.688z M1015.231,401.911l0.014-0.004l0.005-0.008l-0.003-0.016l-0.015-0.004l-0.01,0.011v0.014L1015.231,401.911L1015.231,401.911z M1015.422,403.697l0.014,0.001l0.016-0.007l0.002-0.018l-0.019-0.007l-0.017,0.01l-0.002,0.013L1015.422,403.697L1015.422,403.697z M1021.277,406.735l0.003,0.018l0.06,0.013l0.05,0.037h0.024l0.042-0.042l0.039-0.01l0.013-0.021l-0.034-0.029l-0.076-0.005l-0.063,0.029L1021.277,406.735L1021.277,406.735z M1021.619,407.153l-0.013,0.029l-0.021,0.008l-0.01,0.029l0.021,0.055l-0.003,0.081l0.042,0.065l-0.005,0.05l-0.044,0.042l0.003,0.026l0.063,0.034l0.042,0.003l0.039,0.016l0.016,0.058l0.052,0.034l0.024-0.003l0.016-0.076l0.003-0.058l-0.029-0.029v-0.021l0.05-0.052l0.018-0.12l-0.01-0.089l-0.026-0.034l-0.052-0.039l-0.034-0.01l-0.031,0.018l-0.013-0.01l0.018-0.097l-0.016-0.073l-0.044-0.024l-0.018,0.01l-0.013,0.047l-0.029,0.042l-0.005,0.055L1021.619,407.153L1021.619,407.153z M1020.592,405.59l0.023,0.044l-0.003,0.039l0.031,0.11l0.044,0.05l0.029,0.065l-0.013,0.055l0.01,0.139l0.06,0.099l0.021,0.005l0.023-0.044l0.052,0.003l0.055,0.031l0.076,0.008l0.023-0.026l-0.018-0.047l-0.008-0.044l0.018-0.013l0.042,0.016l0.133,0.128l0.047,0.013l0.029-0.047v-0.042l-0.044-0.034l-0.102-0.149l-0.016-0.055l-0.154-0.207l-0.102-0.107l-0.112-0.055h-0.081l-0.086,0.026l-0.005,0.029L1020.592,405.59L1020.592,405.59z M1015.073,403.488l0.031,0.037l0.029-0.003l0.057-0.063l0.005-0.055l-0.024-0.039l-0.042-0.003l-0.055,0.018l-0.013,0.05L1015.073,403.488L1015.073,403.488z M1017.57,403.956l-0.016,0.076l-0.003,0.058l0.021,0.016v-0.039l0.029-0.097l0.037-0.021l0.008-0.026l-0.034-0.031l-0.029-0.003l-0.013,0.026V403.956L1017.57,403.956z M1004.182,415.678l0.047,0.012l0.025,0.022l0.01,0.035l0.018,0.02l0.024,0.002l0.006-0.016l-0.01-0.039l-0.023-0.029l-0.024-0.008l-0.006-0.014l0.008-0.029l-0.018-0.025l-0.027-0.002l-0.043,0.024l-0.008,0.031L1004.182,415.678L1004.182,415.678z M1004.287,415.616l0.006-0.01l-0.014-0.035l0.004-0.027l0.018-0.002l0.053,0.047l0.022,0.002l0.004-0.018l-0.022-0.037l0.006-0.018l0.02-0.014l-0.006-0.02l-0.023-0.014l-0.067-0.002l-0.053,0.018l-0.014,0.027l0.02,0.049L1004.287,415.616L1004.287,415.616z M1003.424,418.371l0.007,0.013l0.024,0.002l0.009-0.015l-0.011-0.015l-0.02-0.002L1003.424,418.371L1003.424,418.371z M1003.416,418.782l-0.016-0.029l-0.013,0.003l0.001,0.035l0.016,0.017l0.016-0.001L1003.416,418.782L1003.416,418.782z M1003.414,418.704l-0.001-0.02l-0.018-0.012l-0.005,0.014l0.003,0.017l0.012,0.009L1003.414,418.704L1003.414,418.704z M1003.44,419.019l-0.024-0.014l-0.013,0.008l0.012,0.025l0.021,0.006l0.015-0.01L1003.44,419.019L1003.44,419.019z M1003.429,419.11l0.016,0.016l0.007-0.008l0-0.014l-0.017-0.015l-0.013,0L1003.429,419.11L1003.429,419.11z M1003.999,417.824v0.018l0.018,0.003l0.008-0.018l-0.01-0.01L1003.999,417.824L1003.999,417.824z M1004.037,416.916l0.009,0.027l0.014,0.006l0.006-0.019l-0.002-0.017l-0.01-0.018l-0.013,0.001L1004.037,416.916L1004.037,416.916z M1003.407,418.465l0.02,0.049l0.034,0.009l0.007-0.038l-0.025-0.057l-0.031-0.002L1003.407,418.465L1003.407,418.465z M1003.407,418.465l0.02,0.049l0.034,0.009l0.007-0.038l-0.025-0.057l-0.031-0.002L1003.407,418.465L1003.407,418.465z M1005.72,417.6l-0.038-0.094v-0.035l0.033-0.065l0.004-0.12l-0.013-0.081l-0.03-0.038l0.003-0.017l0.02-0.017h0.061l0.115,0.042l0.067,0.051l0.001,0.03l-0.043,0.08l-0.078,0.106l-0.022,0.055l-0.001,0.058l-0.014,0.061l-0.022,0.031l-0.014,0.001L1005.72,417.6L1005.72,417.6z M1005.723,416.506l0.013,0.026l0.046,0.001l0.037-0.039l0.01-0.048l-0.007-0.042l0.004-0.029l0.027-0.031l0.029-0.013l0.04-0.065l-0.001-0.034l-0.029-0.029l-0.016,0.004l-0.005,0.03l-0.025,0.047l-0.035,0.035l-0.024,0.041l-0.01,0.034l-0.013,0.018l-0.026,0.005l-0.014,0.03L1005.723,416.506L1005.723,416.506z M1005.897,416.571l0.031,0.085l0.044,0.038l0.014-0.001l0.008-0.027l-0.004-0.038l-0.061-0.077l-0.014-0.021l-0.013,0.004L1005.897,416.571L1005.897,416.571z M1005.71,416.613l0.007,0.042l-0.013,0.033l-0.026,0.022l-0.009,0.063l0.018,0.038l0.003,0.094l-0.013,0.038l-0.003,0.044l-0.009,0.034l0.004,0.03l0.031,0.018l0.093,0.001l0.025-0.007v-0.017l-0.024-0.031l-0.005-0.016h0.012l0.029,0.034l0.017,0.007l0.022-0.003l0.009-0.021l0.001-0.037l0.01-0.025l0.014-0.001l0.008,0.016l0.013,0.003l0.035-0.031l0.024-0.055l-0.003-0.064l-0.039-0.101l-0.054-0.041l-0.013,0.001l-0.004,0.016l-0.047,0.047l-0.012,0.031l-0.009,0.01l-0.008-0.008l0.005-0.029l0.052-0.065l0.005-0.047l-0.022-0.056l-0.03-0.017l-0.059-0.003l-0.029,0.013L1005.71,416.613L1005.71,416.613z M1006.223,414.548l0.018,0.002l0.084-0.074l0.004-0.033l-0.033-0.073l-0.008-0.061h-0.018l-0.018,0.018l-0.004,0.018l0.012,0.016l-0.004,0.025l-0.022,0.02l-0.035,0.008l-0.022,0.024v0.025l0.026,0.033L1006.223,414.548L1006.223,414.548z M1006.4,414.195l0.014-0.022l0.025-0.035l0.035-0.02l0.004-0.02l-0.01-0.027v-0.02l0.016-0.018l0.008-0.039l-0.012-0.022l-0.029-0.006l-0.026-0.02l-0.025-0.002l-0.024,0.029l-0.008,0.029l0.014,0.041v0.031l-0.026,0.031l-0.002,0.065l0.016,0.022H1006.4L1006.4,414.195z M1006.541,415.299h0.016l0.018-0.026v-0.05l-0.018-0.031l-0.018,0.003l-0.008,0.029L1006.541,415.299L1006.541,415.299z M1022.962,407.362l0.019-0.008l0.018-0.019l-0.01-0.342l-0.025-0.081l-0.056-0.073l-0.025-0.004l-0.009-0.013l0.013-0.018l-0.008-0.016l-0.044-0.013l-0.02-0.026l-0.006-0.03l-0.021-0.018l-0.021-0.004l-0.012-0.019l-0.008-0.035l-0.022-0.031l-0.025-0.021l-0.051-0.124l-0.002-0.038l0.009-0.026l-0.003-0.024l-0.022-0.042l-0.006-0.049l-0.024-0.044l-0.026-0.01l-0.012-0.026l-0.01-0.046l-0.041-0.047l-0.026-0.086l-0.001-0.046l0.011-0.024l-0.001-0.019l-0.021-0.039l-0.008-0.115l-0.017-0.028l-0.026-0.013l-0.018-0.022l-0.012-0.035l-0.064-0.064l-0.005-0.034l-0.009-0.025l-0.044-0.036l-0.024-0.057l-0.002-0.035l-0.015-0.021v-0.021l0.023-0.06l-0.002-0.03l-0.008-0.019l-0.001-0.021l0.033-0.06l0.001-0.039l-0.014-0.084l0.002-0.039l0.038-0.121l0.006-0.232l0.059-0.082l0.05-0.026l0.089-0.002l0.034-0.018l0.018-0.031l-0.005-0.075l-0.032-0.03l-0.004-0.042l-0.035-0.034l-0.073-0.017l-0.025-0.002l-0.031-0.016l-0.004-0.029l0.009-0.028l-0.007-0.021l-0.021-0.016h-0.02l-0.016,0.01l-0.008-0.002l0.005-0.035l0.024-0.052l-0.008-0.004l-0.032,0.013l-0.02-0.002l-0.05-0.045l-0.007-0.034l-0.033-0.024l-0.035-0.011v-0.01l0.022-0.02l-0.002-0.015l-0.057-0.056l-0.013-0.049l-0.021-0.015l-0.032-0.003l-0.019-0.014l-0.001-0.03l0.012-0.023l-0.002-0.023l-0.019-0.01l-0.044-0.002l-0.029-0.016l-0.029-0.004l-0.119-0.11l-0.011-0.026l-0.04-0.014l-0.021,0.001l-0.021,0.015h-0.016l-0.013-0.012l-0.026-0.001l-0.018,0.008l-0.023-0.001l-0.081-0.064l-0.017-0.034l0.001-0.016l0.016-0.017l-0.001-0.014l-0.041-0.042l0.001-0.015l0.017-0.03l-0.001-0.07l-0.01-0.015l-0.003-0.017l0.022-0.026l0.019-0.013l0.026-0.004l0.026-0.028l0.025-0.012l0.021-0.05l-0.003-0.028l-0.032-0.038l-0.001-0.021l0.016-0.027l-0.001-0.021l-0.021-0.023l-0.029-0.008l-0.013-0.015l-0.001-0.05l-0.013-0.023l-0.038-0.023l-0.004-0.029l0.007-0.016l0.022-0.019l0.002-0.075l0.01-0.018l-0.001-0.014l-0.024-0.021l-0.011-0.023l-0.001-0.037l-0.029-0.031l-0.013-0.042l-0.001-0.016l0.038-0.043v-0.027l-0.046-0.057v-0.013l0.067-0.056h0.013l0.016,0.012l0.013-0.001l0.027-0.028l0.021-0.002l0.001-0.01l-0.097-0.028l-0.04-0.022l-0.101-0.197l-0.003-0.032l-0.03-0.02l-0.044-0.003l-0.034-0.033l-0.013-0.045l-0.042-0.046l-0.012-0.036v-0.032l-0.01-0.018l-0.038-0.033l-0.008-0.069l-0.034-0.065l-0.004-0.098l-0.017-0.034l-0.065-0.091l-0.011-0.066l-0.061-0.072l-0.002-0.046l0.037-0.057l-0.003-0.041l-0.044-0.095l-0.001-0.037l0.044-0.133l0.008-0.079l-0.005-0.125l-0.013-0.047l0.004-0.079l0.023-0.058l-0.003-0.045l-0.043-0.065l-0.019-0.037l-0.042-0.025l-0.003-0.026l0.029-0.052l0.031-0.008l0.03,0.003l0.024-0.024l-0.003-0.02l0.016-0.015l0.031,0.002l0.051,0.04h0.036l0.049-0.012h0.044l0.069,0.04l0.05,0.002l0.066-0.012l0.028-0.022h0.036l0.136,0.025l0.043-0.004l0.05-0.041l0.043-0.003l0.033-0.035l0.012-0.051l0.032-0.022l0.151-0.001v-0.011l-0.113-0.07l-0.052-0.007l-0.017-0.016l-0.005-0.024l-0.025-0.021l-0.028-0.008l-0.038-0.033v-0.017l0.049-0.086l0.029-0.029l0.026-0.001l0.013-0.009l0.013-0.028l0.285-0.15l0.083-0.028l0.028-0.02l0.038-0.048l0.025-0.007h0.057l0.036-0.02v-0.043l-0.033-0.026l-0.001-0.014l0.117-0.189l0.043-0.046l0.055-0.268l0.018-0.024l0.057-0.024l0.018-0.02l0.035-0.073l0.183-0.149l0.147-0.039l0.021-0.036l-0.021-0.1l0.006-0.12l0.033-0.066l0.055-0.057l0.015-0.073l0.042-0.069v-0.051l-0.027-0.057l0.027-0.061l0.102-0.054l0.097-0.024l0.069-0.045l0.06-0.015l0.033-0.036l0.018-0.067l0.055-0.057l0.021-0.045l0.096-0.048l0.112-0.006l0.027-0.018l0.018-0.046l0.03-0.024l0.045,0.015l0.03-0.009l0.021-0.042l0.051-0.009l0.094,0.033l0.09-0.012l0.112-0.069l0.223-0.021l0.31-0.009l0.039-0.033l0.024-0.061l0.042-0.018l0.033,0.006l0.045,0.055h0.046l0.199-0.145l0.117-0.051l0.117-0.006l0.106,0.045l0.021,0.045h0.039l0.066-0.054l0.018-0.06l0.067-0.039l0.108,0.009l0.039,0.054l-0.024,0.129l0.027,0.04l0.058,0.002l0.054-0.018l0.192,0.073l0.106,0.003l0.075-0.03l0.058,0.006l0.081,0.078l0.15,0.051l0.094,0.003l0.06-0.051l0.105,0.003l0.049-0.021l0.042,0.006l0.045,0.039h0.09l0.142-0.03l0.054-0.042l0.027-0.054l0.082-0.016l0.024,0.022l-0.006,0.039l0.015,0.024l0.093-0.003l0.033-0.033l0.003-0.049l0.042-0.024l0.052,0.009l0.054,0.049l0.063-0.003l0.072-0.049l0.03-0.069l0.064-0.015l0.138,0.096l0.112,0.046l0.22-0.006l0.189,0.042l0.021,0.036l0.043-0.003l0.027-0.048l0.069-0.039l0.063,0.006l0.048,0.054l0.109,0.015l0.078-0.033l0.027-0.07l0.196-0.159l0.042,0.003l0.048,0.078l0.061,0.009l0.045-0.036l0.021-0.06l0.066-0.039l0.027,0.015l-0.006,0.081l0.018,0.009l0.043-0.027l0.033,0.003l0.012,0.024l0.024-0.003l0.063-0.069l0.099-0.045l0.049,0.015l0.027,0.045l0.069,0.033l0.009,0.036l0.021,0.009l0.075-0.042h0.058l0.153,0.045l0.073,0.06l0.036-0.003l0.033-0.027l0.051,0.009l0.072,0.049l0.028,0.057l-0.031,0.12l-0.021,0.027l0.003,0.033l0.052,0.058l0.072,0.135l0.009,0.082l0.09,0.078l0.091,0.033l0.12-0.009l0.096-0.057l0.064-0.088l-0.006-0.057l0.063-0.126l0.033-0.018l0.012-0.031l-0.03-0.063l0.027-0.045l0.075-0.012l0.038,0.012h0.02l0.033,0.027h0.028l0.034-0.05l0.054-0.043h0.042l0.048,0.019l0.027-0.01l0.014-0.035l0.025-0.009l0.028,0.011l0.021-0.014l0.016-0.051l0.032-0.033l0.041,0.001l0.039,0.026l0.067-0.008l0.043-0.039l0.048-0.007l0.055-0.033l0.034-0.068h0.027l0.03,0.024l0.024-0.002l0.047-0.042l0.015-0.054l0.051-0.074l0.04-0.022l0.055-0.097l-0.008-0.021l0.011-0.018l0.042-0.012l0.039-0.044l0.032-0.054l0.031-0.019l0.033-0.061l-0.001-0.063l0.015-0.036l-0.006-0.026l-0.021-0.018l0.001-0.036l0.035-0.036l-0.003-0.021l-0.033-0.014l-0.014-0.031l0.011-0.033l-0.005-0.026l-0.033-0.02l-0.001-0.042l0.022-0.048l-0.001-0.027l-0.026-0.036l0.002-0.02l0.021-0.018l0.003-0.026l-0.018-0.04l0.012-0.021l0.074-0.015l0.012-0.023l-0.017-0.01l-0.038-0.003l-0.063-0.05v-0.065l0.027-0.054l-0.003-0.032l-0.027-0.027v-0.032l0.023-0.052l0.024-0.008l0.03,0.014l0.03-0.012l0.05-0.042l0.001-0.023l-0.033-0.036l-0.012-0.045l0.029-0.043l0.06-0.024l0.032,0.009l0.015-0.01l-0.012-0.062l-0.064-0.092l-0.043-0.009l-0.005-0.019l0.017-0.043l0.007-0.04l0.018-0.017l0.043,0.002l0.039,0.045h0.016l0.03-0.06l0.055-0.041l0.055-0.015v-0.014l-0.054-0.052l-0.035-0.012h-0.067l-0.021-0.017l-0.006-0.072l-0.037-0.035l-0.037-0.01l-0.021-0.023l0.001-0.033l0.021-0.029v-0.034l-0.028-0.023l-0.026,0.002l-0.021,0.016h-0.05l-0.018-0.016v-0.052l-0.031-0.027l-0.089-0.046l-0.009-0.044l-0.039-0.045l0.001-0.032l0.05-0.05l0.001-0.021l-0.042-0.024l0.018-0.077l0.051-0.073l0.032-0.04l0.056-0.033l0.022-0.03l0.015-0.042l0.041-0.048l0.051-0.015l0.032-0.023l0.047-0.007l0.033,0.004l0.022-0.007l0.023-0.038l-0.002-0.035l-0.031-0.07l-0.002-0.035l0.009-0.026l-0.018-0.04l-0.03-0.006l-0.041,0.021l-0.158,0.004l-0.037,0.011l-0.031-0.003l-0.099-0.062l-0.018-0.039l0.006-0.045l0.039-0.064l0.063-0.048l0.217-0.04l0.071-0.035l0.056-0.056l0.042-0.179l-0.003-0.053l-0.027-0.069l0.001-0.054l0.055-0.124l0.052-0.045l0.012-0.044l0.014-0.143l0.027-0.085l-0.003-0.098l-0.029-0.046l-0.066-0.093l-0.03-0.087l-0.053-0.045l-0.09-0.035l-0.03-0.029l-0.039-0.018h-0.048l-0.034-0.009l-0.061-0.05h-0.049l-0.075,0.064l-0.045,0.003l-0.092-0.024l-0.053-0.053l-0.012-0.068l-0.033-0.021l-0.042-0.009l-0.035-0.044l-0.009-0.092l-0.042-0.093l-0.092-0.181l-0.022-0.081l0.009-0.062l0.071-0.09l0.033-0.069l0.045-0.032h0.04l0.055,0.018l0.034-0.003l0.018-0.029l-0.007-0.042l-0.054-0.037l-0.149-0.018l-0.068-0.029l-0.158-0.015l-0.05-0.024l-0.255-0.03l-0.085-0.02l-0.243-0.105l-0.035-0.002l-0.016,0.009l-0.03-0.001l-0.056-0.045h-0.032l-0.03,0.01l-0.043-0.006l-0.101-0.051l-0.036-0.056l-0.019-0.108l-0.072-0.166l-0.006-0.083l0.017-0.109l-0.018-0.04l-0.093-0.1l-0.12-0.067l-0.074-0.1l-0.016-0.042l-0.045-0.028l-0.066-0.004l-0.04-0.046l-0.03-0.085l-0.069-0.106l-0.026-0.129l-0.058-0.094l-0.092-0.06l-0.141-0.069l-0.102-0.104l-0.052-0.084l-0.017-0.087l0.017-0.134l0.05-0.249l0.038-0.133l-0.004-0.136l-0.056-0.133l-0.022-0.12l0.012-0.081l0.058-0.064l0.002-0.052l-0.046-0.111l-0.042-0.18l-0.019-0.275l0.015-0.087l0.102-0.174l0.147-0.354l0.02-0.229l-0.006-0.223v-0.321l-0.025-0.118l-0.058-0.089l-0.098-0.096l-0.056-0.075l-0.055-0.144l-0.08-0.086l-0.317-0.197l-0.079-0.022l-0.333-0.177l-0.144-0.096l-0.259-0.354l-0.157-0.287l-0.064-0.052l-0.077-0.024l-0.074-0.016l-0.086-0.069l-0.063-0.134l-0.112-0.279l-0.084-0.137l-0.219-0.245l-0.135-0.144l-0.052-0.091l-0.054-0.158l-0.068-0.119l-0.017-0.062l-0.265-0.39l-0.052-0.046l-0.068-0.008l-0.078,0.006l-0.151,0.135l-0.096,0.052h-0.039l-0.04-0.038l-0.028-0.089l-0.07-0.064l-0.103-0.024l-0.132,0.004l-0.054-0.01l-0.161-0.004l-0.054-0.03l-0.157-0.129l-0.124-0.064l-0.121-0.008l-0.056-0.018l-0.076-0.04l-0.099-0.02l-0.112,0.004l-0.1-0.006l-0.149-0.071l-0.072-0.002l-0.085,0.023l-0.108,0.014h-0.101l-0.074,0.03l-0.044,0.082l-0.09,0.08l-0.051,0.045l-0.01,0.068l0.012,0.054l0.063,0.036l0.09,0.03l0.018,0.044l-0.006,0.039l-0.114,0.058l-0.237,0.06l-0.111,0.054l-0.058,0.095l-0.006,0.066l0.012,0.068l-0.01,0.077l-0.068,0.07l-0.159,0.09l-0.042,0.06l-0.022,0.135v0.062l0.024,0.071l-0.012,0.084l-0.117,0.179l-0.038,0.032l-0.058,0.002l-0.058-0.024l-0.066-0.061l-0.077-0.026l-0.086,0.005l-0.15,0.077l-0.132,0.029l-0.104,0.063l-0.034,0.041l-0.058,0.026l-0.068,0.01l-0.045,0.036l-0.056,0.109l-0.076,0.05l-0.088,0.02l-0.073,0.016l-0.07,0.042l-0.022,0.063l0.006,0.054l0.058,0.048l0.002,0.04l-0.04,0.038l-0.052-0.002l-0.054-0.034l-0.047-0.054l-0.048-0.016h-0.09l-0.05-0.022l-0.016-0.046l0.08-0.181l0.012-0.117l-0.02-0.084l-0.088-0.056l-0.081-0.018h-0.054l-0.034,0.022l-0.05-0.002l-0.053-0.028l-0.048-0.002l-0.046,0.018l-0.066-0.01l-0.133-0.054l-0.108-0.065l-0.181-0.152l-0.096-0.034l-0.083-0.012l-0.076-0.035l-0.15-0.154l-0.187-0.149l-0.063-0.086l-0.052-0.149l-0.05-0.036l-0.09-0.022l-0.038,0.012l-0.039-0.002l-0.052-0.022l-0.06,0.002l-0.086,0.048l-0.045,0.05l-0.03,0.109l-0.06,0.064l-0.106,0.092l-0.051,0.018l-0.074,0.061l-0.128,0.176l-0.041,0.079l-0.048,0.024l-0.086-0.002l-0.064-0.052l-0.087-0.035l-0.054-0.03l-0.084-0.016l-0.03-0.02l-0.03-0.002l-0.061,0.052l-0.036,0.093l-0.02,0.114l-0.074,0.189l-0.008,0.056l0.012,0.048l-0.012,0.047l-0.046,0.04h-0.037l-0.034-0.022h-0.06l-0.068,0.036l-0.085,0.026h-0.072l-0.03,0.032l-0.042,0.115l-0.028,0.026h-0.028l-0.028-0.071l-0.025-0.004l-0.02,0.032l-0.016,0.081l-0.042,0.07l0.002,0.034l0.054,0.036l0.026,0.065l-0.024,0.006l-0.038-0.012l-0.04,0.008l-0.032,0.036l-0.048-0.002l-0.036,0.018l-0.053,0.076l-0.026,0.078l-0.022,0.031l-0.018-0.01l0.01-0.057l-0.03-0.018l0.014-0.034l-0.012-0.014l-0.044,0.004l-0.05,0.056l-0.01,0.038l-0.033,0.01l-0.09-0.018l-0.06,0.01l-0.012,0.02l0.03,0.017h0.052l0.038,0.024l-0.004,0.026l-0.05,0.008l-0.026,0.052l-0.004,0.034l-0.034,0.006l-0.044-0.04l-0.028,0.008l-0.007,0.046l-0.068,0.034l-0.066,0.049l-0.121,0.024l-0.016,0.024l0.02,0.032l-0.012,0.022l-0.042,0.008l-0.038,0.036l-0.002,0.026l-0.03,0.024l-0.036,0.004l-0.03,0.041l-0.02,0.052l-0.043,0.1l-0.04,0.012l-0.014,0.028l-0.004,0.042l-0.05,0.019l-0.094,0.002l-0.037,0.016l-0.008,0.032l0.019,0.056l-0.006,0.028l-0.053,0.016l-0.01,0.026l0.01,0.032l-0.004,0.027l-0.036,0.012l-0.024-0.031l-0.028-0.006l-0.022,0.012l-0.02-0.006l0.006-0.022l-0.024-0.008l-0.047,0.006l-0.046-0.046l-0.002-0.048l-0.02-0.01l-0.064,0.008l-0.05-0.024l-0.008-0.044l-0.02-0.016h-0.034l-0.017-0.016l-0.006-0.039l-0.072-0.052l-0.084-0.02l-0.072-0.036l-0.043-0.002l-0.018-0.026l0.008-0.054l0.042-0.022l0.049-0.065l0.014-0.058l-0.004-0.153l0.012-0.042l0.034-0.06v-0.086l0.014-0.039l-0.012-0.02l-0.05-0.016l-0.022-0.046l-0.033-0.02v-0.034l0.043-0.024h0.042l0.018-0.032l-0.002-0.038l-0.036-0.063l0.014-0.054l0.058-0.04h0.056l0.008-0.024l-0.006-0.04l0.01-0.044l-0.006-0.031l-0.046-0.064l0.01-0.044l0.105-0.084h0.068l0.03-0.028l0.046-0.009l0.032-0.064l0.03-0.03l0.032-0.008l0.017-0.032v-0.104l0.034-0.091l0.082-0.1l0.024-0.002l0.01,0.02h0.018l0.075-0.105l-0.004-0.038l-0.033-0.05l-0.002-0.05l-0.036-0.068l-0.002-0.083l0.107-0.293l-0.008-0.034l-0.022-0.024l-0.025,0.002l-0.018,0.022l-0.026-0.002l-0.006-0.06l-0.05-0.079l-0.002-0.038l0.04-0.036v-0.03l-0.034-0.036v-0.034l0.06-0.069l0.03-0.012l0.021-0.03l0.002-0.038l-0.033-0.03l-0.094-0.024l-0.072-0.054l-0.153-0.073l-0.016-0.058l-0.028-0.034l-0.036-0.01l-0.046-0.056l0.004-0.069l0.096-0.126l0.046-0.016l0.01-0.022l-0.004-0.052l0.038-0.075l0.045-0.03l0.072-0.012l0.044-0.046l0.004-0.034l0.028-0.028l0.097-0.018l0.018-0.063l-0.025-0.048l0.003-0.068l0.036-0.034l0.14-0.032l0.052-0.057l0.008-0.052l0.063-0.094l0.038-0.03l-0.01-0.047l-0.068-0.05l-0.037-0.002l-0.028-0.024l-0.026-0.046l0.004-0.026l0.038-0.044l0.018-0.077l0.027-0.028l0.004-0.082l0.026-0.03v-0.028l-0.04-0.044l0.002-0.047l0.03-0.06v-0.074l-0.029-0.056l0.017-0.079l0.064-0.05l0.026-0.054l0.068-0.044l0.008-0.061l-0.018-0.04l0.006-0.054l0.046-0.034l0.008-0.036l0.027-0.024l0.072-0.002l0.018-0.024l0.022-0.071l0.038-0.052l-0.002-0.03l-0.06-0.07l-0.052-0.038l-0.045-0.008l-0.056-0.051l-0.018-0.042l-0.112-0.064l-0.02-0.04l-0.002-0.095l-0.022-0.088l0.012-0.165l0.022-0.02v-0.028l-0.036-0.05l-0.039-0.137l-0.04-0.066v-0.05l0.034-0.046v-0.028l-0.024-0.057l-0.03-0.01l-0.032,0.006l-0.036-0.016l-0.02-0.064l-0.038-0.058l-0.012-0.064l0.024-0.031l0.032-0.008l0.052-0.078v-0.024l-0.024-0.038l0.004-0.109l0.028-0.02l0.066,0.002l0.03,0.02l0.073,0.006l0.022-0.038l0.006-0.096l0.048-0.064l0.006-0.055l-0.034-0.05l0.006-0.034l0.034-0.036l0.002-0.028l-0.04-0.056l-0.042-0.024l-0.036,0.006l-0.031-0.013l-0.022-0.028l-0.104-0.012l-0.036,0.022l-0.004,0.047l-0.018,0.034h-0.181l-0.064,0.024l-0.038-0.004l-0.01-0.034l-0.031-0.014l-0.048,0.002l-0.022-0.014l-0.012-0.035l-0.036-0.028l-0.036,0.002l-0.026-0.02l-0.01-0.032l-0.093-0.046l-0.04-0.004l-0.03,0.028h-0.04l-0.06-0.026h-0.032l-0.029,0.024l-0.184-0.01l-0.091-0.036l-0.026,0.014l-0.106,0.163l-0.006,0.038l-0.018,0.026l-0.042,0.026l-0.107,0.145l-0.098,0.07l-0.055,0.072l-0.02-0.004l-0.046-0.068l-0.146-0.087l-0.077-0.018l-0.076-0.052l-0.034,0.004l-0.028-0.006l-0.034-0.03l-0.067-0.004l-0.082,0.046l-0.022,0.06l-0.008,0.067l-0.022,0.032l-0.05,0.02l-0.041-0.004l-0.082-0.072l-0.052-0.012l-0.046,0.006l-0.048-0.023l-0.039-0.046l-0.05-0.024l-0.014-0.038l0.028-0.084l-0.016-0.115l-0.094-0.058l-0.052-0.068l-0.008-0.079l-0.039-0.054l0.004-0.072l0.031-0.044l0.002-0.034l-0.037-0.047l-0.084-0.044l-0.02-0.048l0.024-0.102l0.03-0.039l0.056-0.034l0.026-0.044l0.011-0.12l0.028-0.055l0.07-0.042l0.088-0.022l0.022-0.032v-0.038l0.016-0.026l0.041-0.034l0.014-0.097l-0.012-0.04l0.004-0.046l0.088-0.239l-0.002-0.04l0.008-0.03l0.032-0.042l0.034-0.183l0.032-0.076l0.01-0.149l0.016-0.076l-0.005-0.037l-0.031-0.022l-0.052,0.002l-0.028,0.02l-0.054,0.091l-0.054-0.002l-0.073-0.066l-0.07-0.103l-0.048-0.032l-0.028-0.004l-0.018-0.022l0.01-0.054l-0.01-0.051l-0.113-0.06l-0.026-0.055l-0.009-0.048l-0.096-0.124l-0.021-0.138l-0.058-0.063l-0.027-0.073l-0.081-0.06l-0.081-0.021l-0.142,0.003l-0.072,0.048l-0.027,0.066l-0.067,0.055l-0.015,0.048l0.018,0.048l-0.027,0.054l-0.135,0.03l-0.06,0.045v0.046l0.027,0.027l0.018,0.051l-0.018,0.069l-0.058,0.024l-0.171-0.024l-0.079-0.066l-0.012-0.066l0.015-0.067v-0.093l-0.042-0.126l0.012-0.04l-0.027-0.039l-0.06-0.054l-0.048-0.006l-0.127-0.081l-0.054-0.009l-0.039-0.027l-0.045-0.109l-0.064-0.057h-0.039l-0.042,0.042l-0.081,0.027l-0.103,0.006l-0.09,0.039l-0.084,0.139l-0.015,0.09l-0.073,0.127l-0.054,0.036l-0.108,0.003l-0.033-0.024l-0.112-0.027l-0.06,0.018l-0.027,0.063l-0.094,0.03l-0.051-0.003l-0.093-0.075l-0.045-0.009l-0.028,0.027h-0.072l-0.06-0.036l-0.13-0.048l-0.066-0.003l-0.081-0.027l-0.072-0.076l-0.118-0.045l-0.03,0.018l-0.006,0.069l0.021,0.055l0.096,0.042l0.076,0.087l0.006,0.051l-0.015,0.042v0.052l0.038,0.072l0.006,0.088l0.022,0.032l0.03,0.004l0.034,0.049l0.052,0.016l0.026,0.066l-0.04,0.09l-0.03,0.006l-0.028,0.028v0.069l-0.018,0.014l-0.034-0.014l-0.038,0.002l-0.059,0.062l-0.002,0.056l-0.032,0.034l-0.052,0.008l-0.074,0.053l-0.074,0.02l-0.029-0.012l-0.03,0.004l-0.02,0.016l-0.1-0.002l-0.06-0.028l-0.087-0.016l-0.11-0.045l-0.143-0.014l-0.1,0.008l-0.087-0.032l-0.036-0.032l-0.044-0.006l-0.044,0.016h-0.05l-0.026-0.02l-0.053-0.002l-0.068,0.05l-0.036,0.004l-0.02,0.063l-0.06,0.014l-0.046-0.016l-0.059,0.01l-0.044,0.054l0.004,0.06l-0.014,0.024l-0.03,0.014l-0.052,0.091l-0.002,0.072l0.03,0.048l-0.002,0.04l-0.052,0.024l-0.01,0.075l0.038,0.07v0.066l-0.03,0.034h-0.034l-0.013,0.022l0.006,0.193l0.033,0.066l-0.006,0.079l-0.057,0.102l0.002,0.042l-0.03,0.048l-0.062,0.023l-0.018,0.062l0.02,0.064l-0.008,0.028h-0.036l-0.081-0.048l-0.026-0.048l-0.048-0.03l-0.04,0.004l-0.03,0.032h-0.038l-0.042-0.016l-0.065-0.073l-0.076-0.046l-0.046-0.056l-0.034-0.004l-0.022,0.018l-0.016,0.058l-0.057,0.053l-0.05,0.012l-0.062,0.08l-0.034,0.002l-0.052-0.024h-0.033l-0.03,0.018l-0.034,0.002l-0.062-0.038l-0.034,0.004l-0.03,0.032l-0.111,0.034l-0.016,0.03l-0.022,0.014l-0.034-0.004l-0.07,0.042l-0.033,0.047l-0.038,0.024l-0.062-0.026l-0.04,0.004l-0.042,0.058l-0.016,0.086l-0.028,0.002l-0.067-0.042l-0.082-0.09l-0.036-0.004l-0.018,0.012l-0.046,0.002l-0.097,0.052l-0.181,0.008l-0.072-0.03h-0.048l-0.046,0.042h-0.024l-0.026-0.016l-0.133-0.006l-0.098,0.05l-0.073,0.002l-0.076,0.014l-0.04-0.01l-0.036-0.046l0.006-0.068l-0.028-0.053l-0.069-0.018l-0.088-0.064l-0.01-0.048l-0.048-0.046l-0.06-0.016l-0.045-0.037l-0.042-0.004l-0.08,0.039l-0.048-0.002l-0.04-0.067l-0.002-0.042l-0.019-0.026l-0.038-0.006l-0.036,0.026l-0.024,0.002l-0.023-0.017l-0.023-0.002l-0.028,0.027l-0.004,0.05l0.014,0.069l-0.002,0.052l-0.034,0.078l0.002,0.109l0.014,0.134l0.046,0.048v0.047l-0.048,0.042l-0.105,0.018l-0.07-0.012l-0.028,0.014l-0.002,0.108l-0.024,0.038l-0.038,0.014l-0.036-0.01h-0.043l-0.128,0.073l-0.04,0.002l-0.03-0.014l-0.051,0.002l-0.032,0.032v0.04l-0.024,0.068l0.014,0.066l0.095,0.087l-0.002,0.022l-0.033,0.014l-0.008,0.032l-0.044,0.052l-0.04,0.02l-0.072,0.091l-0.016,0.062l-0.077,0.082l-0.058,0.012l-0.003,0.016l0.055,0.049l0.004,0.036l-0.012,0.028l0.002,0.082l0.073,0.097l0.03,0.08l0.036,0.026l-0.006,0.028l-0.044,0.03l-0.056,0.004l-0.027-0.02l-0.052,0.014l-0.024,0.055l0.01,0.028l0.054,0.018l0.032,0.024l0.021,0.04l0.046,0.04l0.062,0.038l0.002,0.063l-0.018,0.038l0.01,0.172l-0.022,0.028l-0.004,0.039l0.018,0.038l-0.006,0.076l-0.026,0.03l-0.081,0.018l-0.04,0.052l-0.034,0.015l-0.07,0.002l-0.016,0.028l0.016,0.036l-0.008,0.034l-0.038,0.028l-0.057,0.002l-0.026,0.014l-0.006,0.229l-0.028,0.02l-0.05,0.004l-0.022,0.02l-0.01,0.028l-0.032,0.03l-0.052-0.006l-0.043,0.019l-0.014,0.038l0.012,0.028l0.049,0.01l0.02,0.016l0.004,0.028l0.038,0.052l0.07,0.054l0.05,0.008l0.028,0.023v0.04l0.023,0.046l0.002,0.056l-0.023,0.056l0.002,0.038l0.031,0.049l0.014,0.126l0.028,0.036l0.006,0.026l-0.036,0.091l0.008,0.068l0.042,0.03l0.028,0.056l-0.002,0.055l-0.018,0.034l-0.002,0.058l0.016,0.181l-0.014,0.056l0.004,0.04l-0.01,0.022l-0.082,0.002l-0.041-0.02l-0.026,0.002l-0.022,0.038l-0.064,0.012l-0.109-0.024l-0.078,0.006l-0.05,0.044l-0.022,0.004l-0.026-0.014l-0.032,0.01l-0.006,0.031l0.024,0.042l-0.012,0.012l-0.032-0.008l-0.021,0.004l-0.026,0.022l-0.092,0.018l-0.028,0.024l-0.024,0.004l-0.03-0.018l-0.031,0.01l-0.02,0.135l-0.018-0.002l-0.02-0.019l-0.03-0.002l-0.024,0.014l-0.032-0.004l-0.046-0.054l-0.036-0.006l-0.041,0.036l-0.074,0.027l-0.026-0.007l-0.026-0.092l-0.024-0.022l-0.002-0.058l-0.018-0.024l-0.044-0.024l-0.021-0.035l-0.024-0.014l-0.04,0.02l-0.066,0.006l-0.026-0.014v-0.1l-0.008-0.032l-0.016-0.002l-0.038,0.048l-0.012,0.06l0.014,0.101l0.05,0.056l0.056,0.036l0.042,0.064l0.046,0.185l0.051,0.054l0.024,0.045l0.01,0.054l0.022,0.028l0.044,0.018l0.032,0.038l0.002,0.054l-0.03,0.061l0.002,0.092l0.072,0.122l0.093,0.079l0.054,0.072l0.028,0.002l0.072-0.05l0.032-0.04l0.037-0.141l0.032-0.036h0.068l0.127,0.056l0.054,0.04l0.046,0.095l-0.01,0.044l-0.088,0.11l-0.002,0.04l0.018,0.051l0.092,0.106l0.03,0.054l0.064,0.055l0.028,0.036l0.008,0.181l0.032,0.071l-0.003,0.045l-0.027,0.02l-0.006,0.033l0.011,0.021l0.024,0.005l0.019-0.015l0.024,0.001l0.029,0.03l0.004,0.036l0.047,0.083l0.002,0.051l0.055,0.118l-0.006,0.087l-0.037,0.036l-0.073,0.014l-0.066,0.077l-0.007,0.055l-0.047,0.098l0.001,0.056l0.061,0.107l0.006,0.044l0.021,0.039l0.028,0.013h0.033l0.017,0.012l0.005,0.035l0.078,0.078l0.013,0.047l0.017,0.014l0.047,0.003l0.046,0.069l-0.007,0.017l-0.027,0.003l-0.011,0.019l0.002,0.063l0.027,0.047l0.075,0.08l0.011,0.042l0.084,0.068l0.015,0.034l0.017,0.013l0.019,0.007l0.097,0.107l0.155,0.114l0.03,0.038l0.013,0.059l0.034,0.034l0.013,0.049l0.027,0.027l0.051,0.027l0.052,0.004l0.028,0.023l0.018,0.048l0.023,0.009l0.043-0.007l0.038,0.018l0.146,0.203l0.076,0.042l-0.002,0.02l-0.033,0.01l-0.003,0.018l0.045,0.028l0.071,0.102l0.024,0.01l0.032-0.007l0.054,0.032l0.012,0.025l0.028,0.026l0.002,0.016l-0.056,0.052v0.081l0.021,0.051l0.017,0.005l0.015-0.018l0.026,0.009l0.01,0.034l0.024,0.032l0.002,0.039l0.01,0.011h0.044l0.06,0.06l0.008,0.04l0.016,0.017l0.091,0.026l0.036,0.028l0.028,0.062l0.046,0.026l0.03-0.002l0.018-0.021l0.022,0.001l0.005,0.02l-0.048,0.029l-0.017,0.031l0.015,0.009l0.035-0.012l0.018,0.011l-0.006,0.04l0.025,0.034l0.025,0.001l0.013,0.008l0.005,0.021l0.043,0.019l0.005,0.027l-0.026,0.037l0.014,0.015l0.06-0.005l0.029,0.015l0.009,0.029l-0.02,0.007l-0.021-0.006l-0.012,0.008v0.039l-0.026,0.027l0.003,0.029l0.027,0.013l0.023-0.009l0.002-0.037l0.012-0.023l0.016,0.009l-0.001,0.069l0.015,0.008l0.018-0.017h0.047l0.013,0.014l-0.035,0.036l-0.037,0.003l-0.006,0.024l0.022,0.018l0.005,0.032l0.035,0.049l0.093,0.068l0.054,0.003l0.03-0.028l0.05-0.017l0.032,0.011l0.015,0.031h0.022l0.009-0.022l0.021-0.002l0.021,0.026l0.047,0.033l0.039,0.015l0.002,0.017l-0.024,0.024l0.01,0.01l0.063,0.002l0.016,0.021l-0.019,0.066l0.022,0.018l0.04-0.007l0.024,0.009l0.018,0.045l-0.006,0.012l-0.033,0.003l-0.004,0.021l0.03,0.012l0.036-0.003l0.015,0.007l-0.003,0.028l0.017,0.012l0.034,0.003l0.026,0.027l-0.009,0.01l-0.035-0.012l-0.038,0.023l-0.006,0.036l0.028,0.033l0.031-0.003l0.017,0.006l-0.008,0.032l0.015,0.012l0.035-0.015l0.019,0.015l-0.021,0.027l-0.001,0.018l0.063,0.015l0.003,0.018l-0.019,0.024v0.029l0.045,0.06l-0.002,0.015h-0.013l-0.059-0.072l-0.035-0.005l-0.006,0.011l0.024,0.047l-0.006,0.034h-0.012l-0.01-0.034l-0.021-0.009l-0.027,0.021l-0.012,0.057l0.009,0.036l0.033,0.012l0.04-0.014l0.027,0.013l0.004,0.019l0.025,0.014l0.027-0.008l0.042,0.039l-0.003,0.023l-0.093,0.016l-0.026,0.016l0.009,0.012l0.026,0.001l0.012,0.014l-0.018,0.021l-0.018,0.001l-0.023-0.019l-0.015,0.001l-0.009,0.027l-0.015,0.003l-0.015-0.015l-0.03,0.005l-0.017,0.018l0.006,0.052l-0.028,0.04l-0.003,0.045l-0.009,0.009l-0.03-0.017l-0.017,0.012l0.017,0.076l0.039,0.054l0.056-0.003h0.027l0.007,0.015l-0.016,0.027l-0.002,0.041l0.015,0.001l0.029-0.019l0.021,0.004v0.054l-0.015,0.13l0.012,0.007l0.03-0.003l0.045,0.04l0.094,0.012l0.042,0.016l0.009,0.026l-0.012,0.024l0.004,0.033l0.05,0.036l0.009,0.03l-0.021,0.056l-0.009,0.056l0.021,0.043l0.047,0.021l0.004,0.037l0.032,0.039l0.024,0.062l0.05,0.051l0.018,0.046l0.015,0.018l0.025,0.002l0.03,0.024l0.005,0.033l0.02,0.021v0.02l-0.068,0.077l-0.003,0.058l0.018,0.049l0.043,0.007l-0.001,0.014l-0.014,0.018l0.023,0.046l-0.011,0.025v0.016l0.034,0.014l0.001,0.018l-0.027,0.025l0.005,0.021l0.033,0.019l0.009,0.063l-0.015,0.025l-0.003,0.018l0.019,0.017l0.005,0.114l0.019,0.04l0.015,0.001l0.017-0.022h0.029l0.012,0.027l0.024-0.002l0.024-0.075l0.027-0.017l0.013-0.016l0.003-0.038l0.023-0.03l0.006-0.038l0.023-0.037l0.027-0.003l0.01-0.011l0.002-0.018l0.015-0.009l0.047,0.017h0.031l0.047-0.037l0.006-0.037l0.018-0.027l0.107-0.05l0.001-0.018l-0.01-0.018l0.004-0.021l0.03-0.03l0.019-0.052l0.019-0.012l0.06,0.009h0.055l0.037-0.007h0.035l0.024,0.03l0.001,0.021l0.013,0.011h0.019l0.071,0.076l0.001,0.059l-0.04,0.092l0.016,0.012l0.014-0.006l0.036,0.002l0.014,0.037l0.004,0.038l-0.023,0.054l-0.033,0.014l-0.022,0.037l-0.011,0.071l0.009,0.027l-0.001,0.02l-0.023,0.037l-0.056,0.037l-0.03,0.055h-0.013l-0.011-0.021l-0.019-0.001l-0.052,0.063l-0.003,0.023l0.028,0.049v0.015l-0.02,0.017l-0.002,0.012l0.019,0.012l0.001,0.06l-0.024,0.041l-0.014,0.107l-0.013,0.018l-0.036,0.003l-0.02,0.012l-0.01,0.027l-0.076,0.039l-0.033,0.003l-0.033-0.019l-0.035-0.053l-0.018-0.003l-0.03,0.018l-0.113,0.003l-0.063-0.011l-0.044-0.046l-0.049-0.003l-0.055,0.025l-0.01,0.015l0.018,0.035l-0.012,0.017l-0.036,0.001l-0.009,0.012l0.018,0.035v0.03l-0.044,0.03l-0.006,0.032l-0.072,0.046l-0.038,0.002l-0.007,0.01l0.012,0.034l-0.012,0.027l-0.055,0.001l-0.016-0.016l-0.005-0.053l-0.034-0.054l-0.035-0.003l-0.023,0.018l-0.006,0.024l-0.015,0.022l-0.033,0.009l-0.022,0.065l0.006,0.032l0.122,0.084l0.034,0.071l0.015,0.06l-0.015,0.032l-0.03,0.021l-0.039,0.138l-0.006,0.038l0.012,0.032l-0.005,0.036l0.019,0.039l0.006,0.048l0.018,0.003l0.015-0.01h0.028l-0.129,0.277l-0.106,0.44l0.052,0.171l-0.034,0.145l0.116,0.483l-0.007,0.332l-0.012,0.067l-0.071,0.13h-0.02l-0.015-0.017l-0.015-0.073l-0.03-0.035l-0.051-0.012l-0.036-0.023h-0.032l-0.034-0.051l-0.037-0.004l-0.019,0.012l-0.009,0.051l-0.029,0.013l-0.019-0.004l-0.026-0.039h-0.021l-0.011,0.012l0.008,0.037l-0.026,0.021l-0.034,0.005l-0.035-0.012l-0.038,0.012l-0.009,0.029l-0.078,0.067l-0.001,0.041l0.025,0.032v0.039l0.008,0.027l0.037,0.03l0.015,0.084l-0.003,0.038l-0.039,0.03l-0.019-0.001l-0.038-0.053l-0.032-0.012l-0.013-0.023l-0.042-0.03l-0.074-0.028l-0.033-0.003l-0.06-0.026l-0.049-0.045l-0.033-0.002l-0.016,0.017l0.003,0.048l0.018,0.036l0.001,0.03l-0.016,0.015l-0.038,0.008l-0.021,0.015l-0.003,0.026l-0.074,0.099l-0.007,0.044l-0.023,0.016l-0.071,0.003l-0.042-0.018l-0.012-0.023l-0.026-0.022h-0.034l-0.015,0.022l0.003,0.064l0.031,0.049l0.002,0.037l0.019,0.024l-0.001,0.021l-0.039,0.045l-0.009,0.027l-0.038,0.038l-0.003,0.028l0.014,0.018l-0.002,0.017l-0.036,0.053l0.001,0.075l0.034,0.044l0.004,0.03l0.015,0.013l0.044,0.005l0.036,0.041l0.011,0.034l0.03,0.032v0.025l-0.014,0.041l-0.035,0.029l-0.019,0.03l-0.006,0.086l0.01,0.039l0.07,0.048l0.004,0.024l-0.012,0.047l0.011,0.024l0.027,0.01l0.013,0.015l0.005,0.044l0.019,0.029l0.002,0.024l-0.054,0.066l0.004,0.037l0.083,0.1l0.002,0.042l-0.046,0.053l-0.001,0.021l0.024,0.042l0.027,0.014l0.044,0.036l0.025,0.036l0.006,0.048l0.018,0.023l0.023,0.012l0.012,0.02l0.011,0.06l0.027,0.033l0.004,0.013l-0.007,0.011l0.001,0.011l0.044,0.024l0.01,0.03l0.026,0.039l0.017,0.003l0.019-0.014l0.014,0.003l0.004,0.021l0.064,0.043l0.019,0.028l0.002,0.035l0.018,0.038l0.241,0.186l0.018,0.027l0.018,0.056l0.06,0.063v0.021l-0.009,0.031l0.003,0.081l0.014,0.042l0.013,0.002l0.018-0.017l0.048,0.002l0.028-0.019l0.012,0.002l0.01,0.096l0.008,0.015l0.022,0.015l0.005,0.037l0.016,0.022l0.002,0.044l0.024,0.018l0.021,0.029l0.006,0.033l0.036,0.042l0.035,0.012l0.021,0.029l-0.002,0.031l0.008,0.024l0.021,0.011l0.009,0.016l-0.003,0.038l0.021,0.029l0.006,0.031l0.03,0.033l0.006,0.031l0.02,0.012l0.033-0.011l0.009-0.02h0.015l0.009,0.035l-0.015,0.062v0.036l0.032,0.069l0.046,0.041l0.034,0.003l0.018-0.017l0.015,0.002l0.046,0.059l0.085,0.045l0.045,0.045l0.054,0.012l0.02,0.014l0.015,0.051l0.058,0.048l0.04,0.011l0.039,0.022l0.031,0.048l0.03,0.023l0.032,0.012l0.039,0.026l0.008,0.021l0.021,0.015l0.05,0.015l0.04,0.043l0.033,0.02l0.031,0.002l0.039,0.013l0.066,0.068l0.027,0.01l0.033,0.023l0.015,0.058l0.053,0.05l0.045,0.021l0.068,0.005l0.047,0.027l0.019,0.004l0.03,0.031l0.014,0.001l0.026-0.015h0.016l0.035,0.054v0.102l0.014,0.036l-0.001,0.019l-0.014,0.009l0.001,0.012l0.065,0.045l0.041,0.011l0.001,0.009l-0.008,0.011l-0.001,0.012l0.035,0.032l0.003,0.021l0.018,0.027l0.034,0.157l0.015,0.015l0.055,0.007l0.027,0.008l0.024,0.033l0.024,0.012l0.021,0.038l0.011,0.045l0.042,0.049l0.037,0.015l0.021,0.001l0.023-0.016l0.021-0.001l0.011,0.008l0.005,0.035l-0.007,0.062l-0.032,0.056l0.001,0.049l0.024,0.024l0.02,0.004l0.011,0.007l0.002,0.031l0.024,0.031l0.001,0.039l-0.014,0.027l0.002,0.047l0.016,0.045l0.058,0.043l0.029,0.006l0.023,0.013l0.005,0.054l0.012,0.033l0.028,0.023l0.008,0.022l0.002,0.08l0.011,0.029v0.019l-0.017,0.015l-0.002,0.017l0.015,0.022l0.003,0.017l-0.007,0.046l0.007,0.095l-0.018,0.051l0.002,0.026l0.039,0.072v0.02l-0.045,0.03v0.018l0.019,0.023l0.026,0.007l0.021,0.014l0.009,0.025l0.042,0.046l0.004,0.108l-0.014,0.031l-0.002,0.035l0.048,0.053l0.021,0.053l-0.004,0.041l-0.029,0.018v0.022l0.021,0.023v0.024l-0.015,0.015v0.018l0.035,0.02l0.006,0.031l-0.014,0.033v0.077l-0.012,0.037l0.006,0.096l-0.006,0.049l-0.029,0.043l-0.01,0.083l-0.019,0.025l-0.004,0.024l0.076,0.082l0.002,0.018l-0.035,0.017l-0.002,0.024l0.041,0.066l0.004,0.032l-0.018,0.016v0.017l0.016,0.018v0.021l-0.033,0.036l-0.036,0.013l-0.033-0.002l-0.022-0.039l-0.051-0.015l-0.094,0.007l-0.047,0.038l-0.008,0.049l-0.013,0.019v0.016l0.068,0.049v0.027l-0.023,0.028l0.002,0.016l0.017,0.019l0.004,0.026l-0.015,0.043l-0.006,0.055l-0.01,0.021l-0.041,0.014l-0.057,0.051v0.031l0.016,0.032l0.029,0.021l0.025,0.053l0.053,0.039l0.046,0.008l0.076,0.057l0.012,0.037l0.035,0.049l0.047,0.01l0.002,0.016l-0.022,0.027v0.024l0.02,0.035l0.002,0.034l-0.025,0.027l-0.036,0.004l-0.017,0.012l-0.01,0.027l-0.022,0.024v0.011l0.037,0.016l0.024,0.041l0.004,0.085l0.016,0.035l0.002,0.082l0.009,0.041l0.055,0.036l0.012,0.037l0.014,0.004l0.012-0.008h0.017l0.02,0.027l0.01,0.083l0.025,0.07l0.002,0.098l-0.018,0.022v0.022l0.024,0.041l0.037,0.037l0.03,0.002l0.053-0.027l0.023,0.003l0.014,0.03l0.039,0.021l0.002,0.028l0.008,0.027l0.031,0.022l0.002,0.019l-0.014,0.018l0.002,0.024l0.038,0.029l0.041,0.002l0.055,0.018l0.027,0.023l0.002,0.041l0.03,0.028l0.039,0.004l0.023,0.015l0.004,0.03l0.049,0.033l0.055,0.01l0.067,0.006l0.037,0.025l0.008,0.034l0.045,0.047l-0.004,0.012h-0.023l-0.004,0.021l0.019,0.024l0.002,0.027l-0.014,0.024l-0.021,0.005l-0.01,0.018l0.004,0.055l-0.02,0.033l-0.002,0.03l0.03,0.072l-0.008,0.032l-0.049,0.023l-0.023,0.03l-0.004,0.06l0.025,0.03l0.039,0.008l0.02,0.015l0.002,0.055l0.01,0.036l0.066,0.051v0.017l-0.017,0.01l0.002,0.065l-0.028,0.051l-0.002,0.029l0.026,0.026v0.019l-0.022,0.012l-0.002,0.023l0.033,0.032l0.006,0.057l0.022,0.019l0.029,0.049l0.026,0.049l0.063,0.028l0.004,0.019l-0.014,0.022v0.053l-0.034,0.053l0.002,0.025l0.047,0.042l0.01,0.037l0.03,0.037l0.002,0.028l-0.022,0.037l-0.014,0.066l-0.029,0.02l-0.018,0.027v0.069l0.018,0.018l0.061,0.002l0.013-0.03l0.024-0.029l0.043-0.006l0.059,0.012l0.035,0.002l0.022-0.02l0.029-0.002l0.043,0.016l0.006,0.021l-0.047,0.091l-0.004,0.072l-0.021,0.032l-0.004,0.027l-0.053,0.061l-0.004,0.053l0.027,0.047l0.002,0.025l-0.013,0.039l0.007,0.022l0.124,0.028l0.057,0.035l0.016,0.037l0.005,0.098l-0.011,0.031l-0.036,0.024l-0.002,0.025l0.018,0.03v0.069l-0.024,0.033v0.021l0.026,0.046l0.004,0.039l0.018,0.015l0.027-0.015l0.018,0.004l0.066,0.098v0.043l0.014,0.019l0.045,0.014h0.055l0.037,0.012l-0.002,0.027l-0.009,0.024h-0.022l-0.012,0.012l-0.004,0.043l-0.023,0.035l-0.004,0.069l-0.014,0.035l-0.002,0.029l0.014,0.036l-0.008,0.043l-0.022,0.021h-0.029l-0.02,0.016l-0.009,0.024l-0.022,0.017l-0.022,0.004l-0.015,0.018l-0.008,0.027l-0.039,0.03l-0.018,0.039l0.004,0.047l-0.01,0.041l-0.029,0.035l-0.008,0.038l-0.026,0.039l-0.031,0.004l-0.025-0.008h-0.036l-0.023,0.018l-0.028-0.002l-0.021-0.032l-0.026-0.015l-0.043,0.002l-0.047,0.031l-0.057,0.008l-0.023,0.027l-0.004,0.036l-0.026,0.054v0.044l0.024,0.033v0.029l-0.016,0.034l0.008,0.019l0.024,0.006l0.011,0.03l-0.006,0.039l-0.086,0.096l-0.02,0.057l0.004,0.029l-0.013,0.006l-0.032-0.016l-0.041,0.006l-0.01,0.024l-0.041,0.033l-0.039,0.01l-0.012,0.021l0.02,0.028v0.021l-0.014,0.018v0.026l0.027,0.047l-0.003,0.102l-0.014,0.025l-0.077,0.028l-0.056,0.037l-0.046,0.055l-0.021,0.037l-0.002,0.029l-0.02,0.012l-0.025-0.006l-0.032,0.01l-0.037,0.048l-0.003,0.027l0.05,0.062v0.047l-0.04,0.04l-0.018,0.041l-0.034,0.034l-0.057,0.021l-0.042,0.037l-0.042,0.084l-0.008,0.05l-0.022,0.029v0.033l-0.056,0.099l-0.017,0.004l-0.025,0.039l-0.02,0.003l-0.016,0.017l0.001,0.016l0.023,0.027l-0.014,0.054l-0.027,0.015l-0.03,0.03l-0.036,0.014l-0.049,0.035l-0.039,0.008l-0.016,0.018l-0.001,0.063l-0.019,0.02l-0.003,0.03l-0.009,0.024l-0.056,0.035l-0.074,0.008l-0.042,0.013l-0.048,0.041l-0.03,0.005l-0.007,0.01v0.025l-0.011,0.044l-0.025,0.046l-0.006,0.04l-0.036,0.05l-0.031,0.023l-0.057,0.013l-0.015-0.008l-0.01-0.033l-0.016-0.013l-0.04-0.001l-0.038-0.021l-0.02,0.001l-0.021,0.034l-0.015,0.057l-0.033,0.028l-0.002,0.018l0.008,0.014l-0.001,0.023l-0.018,0.019l-0.002,0.018l0.025,0.039l0.001,0.03l-0.012,0.029l-0.002,0.021l0.037,0.026l0.002,0.046l-0.017,0.032l-0.049,0.022l-0.023,0.018l-0.005,0.022l-0.012,0.011l-0.027,0.003l-0.022,0.013l-0.025,0.031l-0.037,0.009l-0.059-0.007l-0.009-0.02l-0.028-0.02l-0.023-0.001l-0.026,0.041l-0.004,0.033l-0.022,0.027l-0.009,0.019l-0.002,0.029l-0.012,0.02l-0.03,0.011l-0.019-0.002l-0.02-0.041l-0.019-0.003l-0.024,0.012l-0.041,0.034l-0.009,0.027l-0.044,0.031l-0.022,0.008l-0.015,0.015l-0.003,0.02l-0.05,0.052l-0.011,0.035l-0.055,0.055l-0.027,0.015l-0.013,0.018l-0.007,0.038l-0.016,0.005l-0.014-0.009l-0.017,0.005l-0.004,0.02l0.019,0.049l-0.002,0.038l-0.029,0.022v0.024l0.017,0.024v0.037l-0.016,0.032l0.002,0.045l0.009,0.002l0.015-0.011l0.031-0.002l0.021,0.006v0.015l-0.012,0.009l0.001,0.013l0.044,0.039l0.003,0.03l-0.009,0.058l0.004,0.017l0.027,0.001l0.025,0.017l0.001,0.028l-0.019,0.017l-0.003,0.015l0.02,0.031l0.001,0.095l-0.015,0.038l-0.026,0.014l-0.008,0.024l0.013,0.034l-0.001,0.015l-0.03,0.031l-0.004,0.021l0.006,0.022l-0.009,0.011l-0.048,0.013l-0.022,0.024l-0.017,0.064l-0.024,0.059l0.004,0.008l-0.032,0.056l-0.012,0.043l-0.013,0.077v0.067l-0.007,0.051l-0.036,0.043l-0.019,0.045l-0.006,0.063l-0.03,0.124l-0.107,0.233l-0.006,0.053l-0.059,0.125l-0.012,0.061l-0.041,0.073l-0.029,0.009l-0.012,0.012v0.049l-0.065,0.13l-0.096,0.155l-0.008,0.041l-0.018,0.033l-0.027,0.029l-0.016,0.065l0.016,0.032l-0.012,0.064l-0.027,0.039l-0.073,0.032l-0.021,0.033l-0.004,0.063l-0.036,0.033l-0.045,0.01l-0.023,0.037l-0.004,0.036l-0.014,0.025l-0.035,0.014v0.029l0.031,0.043l0.045,0.108l0.02,0.006l0.027-0.006l0.036-0.057l0.043-0.037l0.016,0.004l-0.032,0.069l-0.049,0.07l-0.002,0.028h-0.01l-0.017-0.024l-0.032-0.012l-0.072,0.01l-0.028,0.018l-0.007,0.057l0.017,0.035l-0.002,0.025l-0.015,0.022l0.002,0.026l0.013,0.005l0.028-0.031l0.021-0.002l0.026,0.012l0.035,0.006l0.031-0.008l0.024,0.01l-0.004,0.051l-0.031,0.055l-0.02,0.062l-0.039,0.057l-0.069,0.026l-0.041-0.002l-0.041-0.024l-0.012,0.006l0.018,0.051l0.027,0.041l0.039,0.016v0.014l-0.019,0.029l-0.002,0.031l0.012,0.022l-0.016,0.01l-0.067-0.01l-0.015-0.02l-0.022-0.004l-0.031,0.016l-0.01,0.041l0.01,0.061l0.037,0.022l0.065,0.006l0.058,0.009l0.059,0.042l0.106,0.035l0.047,0.025l-0.004,0.01l-0.043-0.002l-0.039-0.018l-0.069,0.002l-0.076,0.04l-0.02,0.033l0.002,0.086l0.018,0.034l-0.002,0.017l-0.03,0.012l-0.035,0.051l0.002,0.039l-0.01,0.01l-0.01-0.016v-0.043l-0.007-0.004l-0.02,0.022l-0.006,0.037l-0.012,0.002l-0.011-0.029l0.004-0.04l0.025-0.092l-0.008-0.059l-0.033-0.051l0.002-0.023l-0.008-0.016l-0.016,0.002l-0.017,0.034l-0.03,0.111l-0.031,0.057l-0.01,0.067l0.008,0.035l-0.002,0.063l-0.02,0.096l-0.039,0.096l-0.037,0.037l-0.032,0.008l-0.015,0.016l-0.004,0.151l-0.014,0.09l-0.029,0.057l-0.006,0.08l-0.014,0.016l-0.027,0.002l-0.018,0.018l-0.002,0.027l0.018,0.026l-0.028,0.047l-0.037,0.025l-0.022,0.039l0.004,0.026l0.057,0.021l0.034,0.047l0.025,0.073l-0.012,0.008l-0.057-0.028l-0.019-0.045l-0.026-0.01l-0.019,0.016l-0.008,0.061l0.016,0.025l0.005,0.022l-0.015,0.004l-0.028-0.028l0.002-0.084l-0.015-0.029l-0.028,0.002l-0.021,0.029l-0.006,0.069l0.021,0.074l0.063,0.083l0.016,0.054v0.071l0.021,0.057l0.018,0.02l0.033,0.003l0.014,0.016l0.002,0.035l0.014,0.006l0.035-0.041h0.047l0.022,0.026l-0.006,0.013l-0.043,0.008l-0.032,0.014l-0.002,0.014l0.018,0.021l-0.004,0.016h-0.02l-0.037-0.033l-0.035-0.004l-0.043,0.013l-0.063,0.06l-0.021,0.066l0.024,0.063l0.049,0.044h0.039l0.034-0.042l0.076-0.055l0.045-0.01l0.018,0.01l-0.037,0.019l-0.096,0.078l-0.021,0.042l0.005,0.039l0.034,0.024l0.036,0.06l0.027,0.083l-0.003,0.055l-0.01,0.037l-0.014-0.008l-0.013-0.078l-0.044-0.068l-0.05-0.047l-0.062-0.027l-0.024,0.006l-0.029,0.062l-0.026,0.042l-0.052,0.068l-0.026,0.063l0.002,0.052l-0.01,0.068l-0.034,0.039l-0.045,0.014l-0.028,0.023l-0.003,0.044l0.011,0.04l-0.006,0.042l-0.042,0.054l0.006,0.032l0.01,0.026l0.003,0.076l-0.02,0.077l-0.036,0.067l-0.057,0.03l-0.021-0.002l-0.015,0.004v0.011l0.034,0.043l0.011,0.12l0.025,0.072l0.002,0.063l-0.013,0.052l-0.033,0.037l0.001,0.032l0.018,0.034l0.004,0.051l-0.009,0.036l-0.046,0.03l-0.001,0.024l0.05,0.061l0.072,0.044l0.009,0.037l-0.012,0.051l-0.014,0.03l-0.008-0.006l0.001-0.04l-0.01-0.035l-0.034-0.037l-0.019-0.001l-0.026,0.026l-0.001,0.043l0.037,0.075l0.001,0.04l-0.008-0.001l-0.022-0.036l-0.028-0.081v-0.036l0.019-0.036v-0.015l-0.036-0.037l-0.005-0.042l0.005-0.038l-0.006-0.002l-0.018,0.033l-0.003,0.069l0.012,0.069l0.034,0.111l0.025,0.136l0.154,0.422l0.039,0.196l0.03,0.078l0.018,0.132l0.007,0.133l0.017,0.014h0.036l0.05,0.017h0.029l0.022-0.021l0.012-0.001l0.004,0.012l-0.011,0.023l0.005,0.029l0.034,0.028l0.021-0.002l0.024-0.022h0.025l0.032,0.018l0.025,0.058l0.015,0.099l0.026,0.045l0.018,0.005l0.02-0.011l0.068-0.09l0.019-0.005l0.018,0.008l0.012,0.034l0.022,0.03l0.014-0.001l0.024-0.04l0.004-0.027l-0.008-0.024v-0.036l0.028-0.069l0.03-0.029l0.033-0.002l0.017-0.013l0.001-0.019l-0.026-0.022l0.001-0.023l0.018-0.018l-0.001-0.031l-0.021-0.029l-0.001-0.021l0.008-0.018v-0.083l-0.011-0.06l-0.034-0.049l-0.032-0.02h-0.025l-0.025,0.008l-0.01-0.004l0.002-0.009l0.02-0.023l0.04-0.019l0.062-0.001l0.033,0.006l0.025-0.004l0.027-0.026l0.004-0.019l-0.011-0.033l-0.003-0.035l-0.008-0.027l-0.013-0.009l-0.023-0.032l-0.002-0.01l0.012-0.003l0.038,0.034l0.005,0.029l0.007,0.029l0.022,0.008l0.018,0.012l0.008-0.007l-0.002-0.017l0.006-0.01l0.015,0.001l0.007-0.006l0.003-0.045l0.031-0.056l0.013-0.034l0.006-0.006v0.019l-0.015,0.046l-0.018,0.064l0.003,0.071l0.01,0.028l0.031,0.012l0.035-0.007l0.064-0.035l0.01-0.027l-0.01-0.038l-0.019-0.018l-0.021-0.029l0.005-0.006l0.03,0.02l0.046,0.04l0.028-0.001l0.042-0.023l0.048-0.004l0.029-0.012l0.023-0.026l0.008-0.031l0.001-0.03l0.009-0.028v-0.084l0.009-0.034h0.014l0.003,0.015l-0.002,0.031l0.024,0.1l0.026,0.029l0.028,0.002l0.019-0.011l0.032-0.002l0.029-0.012l0.002-0.016l-0.019-0.014l-0.033-0.038v-0.022l0.017-0.039l0.018-0.013h0.026l-0.001,0.009l-0.021,0.013l-0.018,0.03l0.002,0.018l0.029,0.013l0.029,0.033l0.002,0.023l-0.01,0.033l-0.032,0.024l-0.032,0.002l-0.033,0.011l-0.003,0.015l0.013,0.025l-0.001,0.053l-0.01,0.04l-0.027,0.047l-0.013,0.092l0.008,0.047l0.024,0.022l0.011-0.001l0.006-0.025l0.011-0.026l0.01-0.001l0.003,0.023l0.012,0.019h0.016l0.06-0.05l0.056-0.037l0.067-0.027l0.008-0.022l-0.005-0.021l-0.014-0.015l0.002-0.008l0.021,0.004l0.012,0.024l-0.003,0.108l0.016,0.055l0.024,0.05l-0.002,0.053l-0.027,0.045l-0.006,0.039l0.012,0.015l0.022-0.006l0.02-0.072l0.013-0.029h0.013l0.034,0.104l0.036,0.092l0.002,0.06l-0.043,0.08l-0.001,0.042l0.011,0.033l0.017,0.002l0.012-0.014l0.012,0.001l0.012,0.029v0.024l-0.021,0.034l-0.016,0.058l-0.001,0.112l0.017,0.074l0.035,0.034l0.021,0.035l0.002,0.032l0.008,0.022l0.013-0.001l0.007-0.013l-0.007-0.033l0.012-0.025l0.021-0.012l0.081-0.005l0.054,0.024l0.048,0.062l0.034,0.034l0.025-0.001l0.02-0.025l0.047-0.026l0.028,0.001l0.038,0.013l0.02-0.002l0.051-0.049l0.004-0.027l-0.025-0.042l0.005-0.005l0.02,0.006l0.017,0.024l0.025,0.009l0.01-0.003l0.02-0.052l0.013,0.004l-0.007,0.072l0.008,0.038l0.095,0.086l0.019-0.002l0.006-0.032l0.004-0.053l0.011-0.017l0.013,0.002v0.045l-0.017,0.081l-0.02,0.015l-0.022,0.004l-0.016,0.023v0.026l0.093,0.159l0.027,0.008l0.058-0.012l0.034,0.005l0.038,0.036l0.035,0.047l0.007,0.069l0.019,0.014l0.034-0.002l0.072-0.058l0.029-0.066l0.01-0.037l-0.011-0.05l0.011-0.014l0.053,0.001l0.043-0.005l0.019-0.017l0.015-0.027h0.01v0.039l-0.017,0.031l-0.055,0.026l-0.027,0.042l-0.005,0.032l0.022,0.002l0.029-0.034l0.015-0.005l0.009,0.004l-0.033,0.042l-0.006,0.038l-0.015,0.068l-0.044,0.058l-0.016,0.061l0.011,0.018l0.029,0.004l0.012,0.023l-0.003,0.02l-0.012,0.001l-0.055-0.035l-0.04,0.001l-0.01,0.012l-0.008,0.03l-0.024,0.026l-0.068,0.032v0.019l0.033,0.058v0.026l-0.017,0.034l-0.005,0.063l0.007,0.095l0.054,0.141l0.039,0.03l0.058,0.003l0.035,0.017l0.058,0.009l0.04-0.012l0.034-0.059l0.013-0.107l-0.004-0.056l0.007-0.03l0.022-0.017l0.021-0.033l0.001-0.044l0.005-0.042l0.011-0.001l0.006,0.013l0.02,0.159l0.037,0.039l0.052,0.019l0.037,0.034l0.017,0.059l0.027,0.032l0.068,0.04l0.01,0.023l-0.02,0.028l-0.002,0.022l0.015,0.008l0.028-0.019l0.028-0.002l0.022,0.013h0.021l0.026-0.029l0.021-0.005l0.017,0.012l0.001,0.026l0.009,0.026l0.037,0.019l0.009,0.019l-0.026,0.065l-0.018,0.016l-0.029,0.001l-0.005,0.01l0.064,0.037h0.023l0.021-0.022l0.024-0.004l0.021,0.017l0.005,0.025l-0.012,0.051l0.024,0.089l0.07,0.099l0.016,0.048l-0.003,0.044l-0.027,0.039l-0.026,0.005l-0.012-0.008l-0.009,0.003l-0.003,0.013l0.024,0.034l0.014,0.001l0.018-0.018l0.034,0.002l0.044,0.04l0.024,0.035l0.004,0.044l0.038,0.074l0.019,0.107v0.074l-0.025,0.049l0.001,0.043l0.048,0.053l0.033,0.051l0.088,0.093l0.022,0.059l0.016,0.008l0.015-0.009l0.019-0.04h0.01l0.009,0.044l0.029,0.035l0.061,0.012l0.026,0.018l0.093,0.029h0.032l0.028-0.017l0.021-0.041l0.008-0.069l-0.025-0.079l-0.002-0.108l0.011-0.033l0.038-0.035l0.027-0.046l0.006-0.064l0.012-0.04l0.034-0.023l0.022,0.002l0.003,0.014l-0.025,0.018l-0.02,0.057l-0.002,0.085l-0.015,0.058l-0.008,0.078l0.004,0.117l0.023,0.055l0.048,0.022l0.031-0.004l0.081-0.06l0.03-0.035l0.027-0.112l0.017-0.057l0.047-0.061l0.055-0.06l0.013-0.032l0.01-0.003l-0.005,0.037l-0.05,0.062l-0.01,0.033l0.008,0.007l0.064-0.021l0.051,0.002l0.017,0.006l-0.012,0.012l-0.054-0.003l-0.047,0.014l-0.043,0.028l0.001,0.016l0.043,0.029l0.015,0.001l0.017-0.013l0.035-0.005l0.058,0.005l0.007,0.016l-0.018,0.036l-0.018,0.002l-0.03-0.021l-0.028-0.007l-0.03,0.009l-0.023-0.005l-0.032-0.021l-0.014,0.003l-0.046,0.108l-0.026,0.103l-0.018,0.024l-0.072,0.017l-0.028,0.02l-0.031,0.099l0.004,0.03l0.043,0.029l0.088,0.11l0.028,0.094l0.055,0.111l0.021,0.005l0.025-0.016l0.022-0.048l0.006-0.03l-0.01-0.017l-0.004-0.026l0.01-0.064l0.015-0.075l0.009-0.014v0.036l-0.009,0.066l0.011,0.036l0.059,0.045l0.007,0.035l-0.024,0.042l-0.053,0.016l-0.013,0.014l0.009,0.033l0.023,0.011l0.035-0.009l0.061-0.057l0.008-0.033l-0.022-0.053l-0.065-0.063l-0.012-0.037l0.006-0.036l0.069-0.066l0.027-0.051l0.006-0.049l0.01-0.012l0.01,0.065l-0.027,0.054l-0.075,0.075l0.002,0.023l0.024,0.022l0.054,0.063l0.02,0.043l0.022,0.004l0.023-0.035l0.033-0.024l0.012-0.025v-0.04l0.014-0.002l0.016,0.045l-0.006,0.024l-0.055,0.039l-0.008,0.053l0.035,0.081v0.064l0.016,0.014l0.061-0.024l0.041-0.043l0.006-0.041l0.017,0.004l0.016,0.051l0.053,0.01l0.031-0.018l0.03-0.061l-0.021-0.009l0.002,0.143l-0.025,0.023l-0.054,0.01l-0.009,0.022l0.013,0.029l-0.005,0.038l-0.05,0.055l-0.061,0.017l-0.043,0.057l0.002,0.066l0.023,0.044l-0.005,0.019l-0.024,0.014l-0.004,0.041l0.018,0.071l0.033,0.055l0.018,0.003l0.037-0.045l0.059-0.004l0.074,0.03l0.034,0.053l-0.006,0.066l-0.036,0.04l-0.021-0.002l-0.01-0.028l-0.076-0.043l-0.023-0.028l-0.026-0.001l-0.04,0.033l-0.004,0.029l0.012,0.024l0.004,0.057l-0.008,0.029l0.004,0.041l0.049,0.077l0.03,0.002l0.037-0.02l0.029-0.033l0.006-0.059l-0.017-0.021l-0.01-0.022l0.025,0.004l0.028,0.035l-0.006,0.084l-0.051,0.042l-0.045,0.021l-0.01,0.018l0.014,0.008l0.037-0.006l0.037,0.008l0.128,0.06l0.047,0.003l0.016-0.019h0.022l0.031,0.023l0.059,0.108l0.018,0.098l0.033,0.028h0.049l0.031-0.03l0.016-0.017l0.014,0.004l0.013,0.041l0.071,0.088l0.033,0.073l0.032,0.037h0.043l0.031-0.014l0.024-0.033l0.025-0.006l0.014,0.008l-0.02,0.068l0.004,0.04l0.026,0.043l-0.004,0.037l0.01,0.039l0.051,0.041l0.019-0.002l0.014-0.029l0.022-0.022l0.015,0.004l0.002,0.061l0.018,0.047l0.035,0.043v0.022l-0.019,0.017l-0.026-0.001l-0.02,0.015l-0.011,0.057l0.011,0.035l0.022,0.01l0.039-0.027l0.055-0.036l0.039-0.003l0.065,0.043l0.006,0.025l-0.016,0.004l-0.047-0.029l-0.027,0.004l-0.002,0.023l0.074,0.135l0.11,0.104l0.065,0.032l0.023-0.004l0.018-0.079l0.037-0.062h0.026l0.025,0.027l-0.002,0.11l-0.031,0.043l-0.006,0.043l0.018,0.016l0.041,0.014l0.054,0.101l0.047,0.137l0.026-0.014l0.008-0.08l0.031-0.038l0.015-0.062l0.029-0.031l0.009-0.042l-0.024-0.122l0.002-0.124l0.02-0.035l-0.016-0.04l0.011-0.006l0.06,0.039l0.025-0.015v-0.084l-0.009-0.029l-0.031-0.024l-0.013-0.078l0.013-0.053l0.031-0.013l0.013-0.031l-0.008-0.078l-0.034-0.024v-0.029l0.034-0.02l0.024-0.058l0.062-0.028l0.049,0.015l0.016,0.064l0.038,0.023h0.042l0.042-0.069l0.02,0.002l0.013,0.038l0.029,0.002l0.029-0.031l0.051-0.007l0.014,0.022l-0.014,0.04l0.016,0.049l0.033,0.009l0.027,0.044l0.045,0.011l0.008,0.029l-0.017,0.017l-0.01,0.053l0.025,0.047l-0.01,0.031l-0.058,0.019l-0.002,0.024l0.04,0.014l0.018,0.066l0.017,0.012l0.04,0.005l0.058,0.045l0.022,0.088l0.028,0.016l0.039-0.003l0.081,0.017l0.07,0.051l0.035,0.002l0.049-0.027l0.067-0.003l0.036,0.022l0.04,0.003l0.045-0.022l0.02,0.012l-0.005,0.055l0.027,0.036l0.059,0.046l0.09,0.009l0.044-0.023l0.026,0.004l0.037,0.042l0.09,0.03l0.052,0.043l0.047,0.015l0.061-0.005l0.012,0.013l-0.007,0.025l0.024,0.022l0.051-0.023l0.065-0.014l0.02-0.04l0.037-0.023h0.039l0.021-0.015l0.014-0.035l0.053-0.074l0.028-0.012l0.022,0.013l-0.015,0.057l0.008,0.07l0.034,0.043l0.056,0.013l0.027-0.027l0.025,0.005l0.045,0.049l0.05,0.008l0.027,0.021l0.005,0.07l0.023,0.056l0.002,0.117l-0.011,0.035l0.004,0.038l0.043,0.042l0.026,0.074l0.045,0.035l-0.005,0.027l-0.025,0.01l-0.027,0.038v0.041l0.04,0.072l0.005,0.033l-0.005,0.033l0.028,0.047l0.024,0.001l0.028-0.024l0.008-0.078l0.017-0.002l0.057,0.041l0.018,0.045l0.027,0.013l0.05-0.033l0.038-0.005l0.057,0.012l0.022-0.012l0.001-0.053l0.061-0.041l0.015-0.037l0.025-0.007l0.041,0.017l0.032,0.052l0.075,0.033l0.013,0.025l0.057,0.01l0.069-0.034l0.093-0.005l0.06-0.019l0.068,0.019l0.005,0.024l-0.016,0.04l0.04,0.094l-0.005,0.02l0.005,0.023l0.026,0.015l0.002,0.027l-0.053,0.043l-0.059,0.013l-0.033-0.005l-0.04,0.027v0.033l-0.048,0.038l-0.005,0.029l0.096,0.036l0.062,0.038l0.003,0.029l0.019,0.006l0.041,0.007l0.03,0.03l-0.005,0.028l-0.031,0.015l-0.012,0.05l-0.042,0.055l-0.005,0.043l0.042,0.041l0.003,0.02l-0.025,0.03l-0.001,0.048l0.021,0.019l-0.001,0.018l-0.024,0.02l0.004,0.036l0.051,0.029l0.007,0.033l-0.043,0.065l-0.044,0.005l-0.01,0.019l0.002,0.037l-0.033,0.06l-0.004,0.043l-0.018,0.005l-0.023-0.027l-0.044-0.003l-0.03,0.027h-0.026l-0.044-0.024l-0.038,0.02v0.047l-0.048,0.062l-0.023,0.058l-0.005,0.071l0.018,0.032l-0.006,0.02l-0.033,0.029l-0.006,0.028l-0.054,0.028l-0.002,0.029l0.028,0.069l0.091,0.069l0.014,0.046l0.041,0.051l0.025,0.009l0.071-0.022l0.017,0.012l-0.001,0.044l0.011,0.006h0.023l0.045,0.029l0.003,0.031l0.043,0.035l0.008,0.041l0.085,0.086l0.049,0.189l0.034,0.005l0.011-0.026l0.033-0.009l0.042-0.032l0.004-0.035l0.018-0.018l0.096-0.004l0.06-0.047l0.029-0.056l-0.012-0.032l0.013-0.015h0.055l0.05-0.032l0.035-0.048l0.008-0.025l-0.01-0.024l0.004-0.04l-0.027-0.084l-0.001-0.036l0.026-0.034l0.004-0.058l0.026-0.05l0.044-0.033l0.047-0.005l0.044,0.006l0.023,0.034l0.019,0.001l0.033-0.032l0.023,0.002l0.024,0.018l0.036-0.009l0.018-0.057l0.036-0.027l0.044-0.002l0.016-0.013l0.017-0.054l0.036-0.029l0.004-0.054l0.014-0.007l0.047,0.011l0.069-0.011l0.033,0.015l0.07,0.01l0.036-0.028l0.018,0.001l0.023,0.021l0.032-0.001l0.011-0.037l0.011-0.01l0.029-0.003l0.062-0.066l0.015-0.003l0.021,0.014l0.012-0.009l0.004-0.028l0.049-0.041l0.097-0.011l0.052-0.035l0.03,0.004l0.005,0.044l0.029,0.021l0.048-0.005l0.022,0.015l-0.004,0.042l0.027,0.025l0.007,0.059l0.055,0.025l0.03-0.007l0.021-0.02l0.021,0.005l0.016,0.032l-0.017,0.032l-0.001,0.018l0.016,0.014l-0.002,0.018l-0.015,0.023l0.002,0.098l0.026,0.003l0.01,0.021l-0.005,0.025l0.02,0.046l0.03,0.02l0.025,0.001l0.009,0.011l0.009,0.086l0.034,0.009l0.056-0.038l0.003-0.09l0.011,0.001l0.005,0.022h0.01l0.013-0.012l0.017-0.001l0.015,0.012l0.016-0.006l0.025-0.045l0.041-0.002l0.074,0.053v0.052l0.03,0.032l0.097,0.065l0.02,0.03l0.031,0.006l0.015-0.021l-0.005-0.035l-0.03-0.032v-0.021l0.074-0.107l0.057-0.012l0.032,0.01l0.009-0.006l-0.014-0.023l0.011-0.018l0.041-0.001l0.021-0.024l-0.016-0.044l0.035-0.059l0.04-0.024l0.037,0.01l0.041-0.005l0.041-0.029l0.004-0.031l0.01-0.008l0.023-0.003l0.02-0.038l-0.015-0.032l-0.001-0.034l-0.021-0.034l0.002-0.023l-0.014-0.012l-0.033-0.01l0.001-0.032l0.026-0.042l-0.001-0.059l0.009-0.01l0.024,0.002l0.023-0.029l-0.008-0.052l0.015-0.025l-0.009-0.023l0.023-0.029l0.026-0.005l0.054-0.05l0.003-0.053l0.024-0.036l0.024-0.003l0.033-0.034l0.025-0.001l0.015-0.013l0.002-0.021l0.011-0.007l0.038,0.001l0.011-0.01l0.004-0.029l0.038-0.031l0.025-0.004l0.06-0.036l0.02-0.068l0.023-0.031l0.019-0.006l0.044-0.1l0.016-0.007l0.023-0.046l-0.016-0.031l-0.018-0.011l-0.006-0.033l-0.016-0.01l-0.002-0.017l0.012-0.022l-0.013-0.075l0.032-0.088l-0.03-0.01l0.004-0.017l0.027-0.001l0.016-0.021l-0.006-0.021l-0.263-0.172l-0.241-0.206l-0.188-0.206l-0.047-0.067l-0.089-0.043l-0.08-0.008l-0.047-0.03l-0.059-0.086l-0.282-0.385l-0.275-0.437l-0.031-0.087l-0.016-0.015l-0.029-0.013l-0.078-0.095l-0.105-0.18l-0.089-0.171l-0.039-0.023l-0.034-0.006l-0.034-0.021l-0.023-0.039l-0.026-0.01l-0.042,0.008l-0.045-0.014l-0.039-0.026l-0.17-0.052l-0.212-0.037l-0.109-0.034l-0.079-0.058l-0.104-0.076l-0.081-0.034l-0.076,0.006l-0.084,0.042l0.003,0.015l0.028,0.003l0.061-0.016l0.065,0.003l0.105,0.055l0.054,0.021l0.061,0.057l0.013,0.055l-0.04,0.037l-0.034-0.003l-0.036-0.02l-0.034-0.006l-0.031,0.011l-0.042-0.008l-0.053-0.039l-0.065-0.024l-0.063,0.003l-0.018,0.015l0.005,0.029l-0.036,0.037l-0.181,0.06l-0.227,0.016l-0.178,0.002l-0.094,0.019l-0.11-0.008l-0.175-0.068l-0.188-0.115l-0.173-0.163l-0.06-0.021l-0.11-0.002l-0.084-0.029l-0.109-0.071l-0.149-0.152l-0.155-0.217l-0.219-0.328l-0.099-0.115l-0.034-0.042l-0.029-0.005l-0.013,0.013l0.005,0.044l0.029,0.066l-0.024,0.057l-0.036,0.011l-0.05,0.031l-0.034,0.037l-0.079,0.029l-0.107,0.002l-0.081-0.018l-0.034-0.042l-0.063-0.013l-0.041,0.005l-0.076-0.023l-0.042-0.068l-0.008-0.037l-0.021-0.024l-0.034-0.018l-0.029-0.037l0.006-0.044l0.055-0.05l0.075-0.047l-0.018-0.032l-0.052-0.028v-0.042l0.055-0.055l-0.003-0.074l-0.06-0.057l-0.021-0.055l0.005-0.105l-0.018-0.094l-0.029-0.027l-0.036-0.005l-0.034,0.029l-0.042,0.102l-0.021,0.011l-0.018-0.021l0.013-0.11l0.052-0.074l0.003-0.102l-0.042-0.068v-0.052l0.023-0.016l0.042-0.013l0.039-0.04l-0.01-0.018l-0.026,0.005l-0.032,0.032l-0.052,0.015l-0.037,0.003l-0.013,0.021l0.008,0.065l-0.008,0.074l0.013,0.029l0.027,0.026l-0.011,0.031l-0.044,0.021l-0.019,0.053l-0.01,0.128l0.021,0.037l0.065,0.013l0.011,0.016l-0.013,0.023l-0.066-0.021l-0.034,0.003l-0.031,0.029l-0.031-0.008l-0.024-0.04l-0.105-0.12l-0.034-0.016l-0.026-0.039l-0.002-0.037l-0.089-0.175l-0.008-0.076l0.01-0.053l-0.023-0.013h-0.047l-0.06-0.036l-0.037-0.014l-0.021-0.039l-0.076-0.39l-0.034-0.123l-0.005-0.223l0.042-0.084l0.144-0.094l0.034-0.053l0.052-0.01l0.042,0.005l0.063-0.013l0.052-0.045l0.044-0.007l0.04,0.015l0.073,0.139l0.055,0.231l0.01,0.23l-0.021,0.129l-0.023,0.034l-0.024,0.002l-0.036-0.021l-0.027,0.003l-0.013,0.055l-0.023,0.042l-0.034,0.026l-0.013,0.042l0.018,0.089l0.037,0.021l0.041,0.003l0.027-0.047l0.034-0.11l0.06-0.055l0.07-0.011l0.108,0.013l0.075,0.042l0.032,0.087l0.042,0.254l0.005,0.251l-0.016,0.047l0.008,0.053l0.047,0.044l0.018,0.066l-0.008,0.078l0.019,0.053l0.005,0.078l-0.01,0.045l-0.016,0.021l-0.005,0.029l0.028,0.026l0.06,0.021l0.079-0.003l0.073,0.019l0.183,0.133l0.026,0.05l-0.018,0.121l-0.029,0.036l-0.013,0.026l0.016,0.011l0.055-0.016l0.031-0.037l-0.008-0.034l-0.021-0.026l0.006-0.039l0.028-0.024h0.037l0.023,0.019l0.014-0.01l-0.006-0.069l-0.04-0.104l-0.037-0.047l-0.064-0.064l-0.118-0.196l-0.116-0.267l-0.121-0.348l-0.1-0.416l-0.197-0.788l-0.099-0.482l-0.075-0.438l-0.092-0.552l-0.092-0.348l-0.145-0.42l-0.104-0.224l-0.147-0.144l-0.112-0.037l-0.057,0.002l-0.01,0.01l0.018,0.01l0.057,0.007l0.08,0.032l0.028,0.035v0.081l-0.036,0.065l-0.01,0.068l0.022,0.077l0.063,0.094l0.011,0.071l-0.015-0.002l-0.026-0.037l-0.051-0.022h-0.035l-0.031-0.018l-0.034-0.039l-0.037-0.018l-0.055-0.013l-0.049-0.026l-0.035-0.057l-0.055-0.181l-0.051-0.123l-0.08-0.124l-0.038-0.041l-0.015-0.046l-0.043-0.051l-0.073-0.041l-0.067-0.059l-0.035-0.108l-0.018-0.161l-0.041-0.281l-0.017-0.171l-0.055-0.322l-0.008-0.358l0.039-0.079v-0.035l-0.02-0.043l-0.004-0.153l-0.019-0.134l-0.043-0.06l-0.039-0.027l-0.034-0.06v-0.16l0.01-0.065l-0.003-0.068l-0.096-0.142l-0.021-0.065l-0.003-0.068l-0.034-0.048l-0.026-0.002l-0.024,0.021h-0.044l-0.123-0.06l-0.036-0.006l-0.016,0.011l-0.032-0.003l-0.034-0.018h-0.039l-0.031,0.021l-0.058-0.005l-0.068-0.037l-0.018,0.008l-0.021,0.044l-0.047,0.032l-0.07,0.005l-0.05,0.018l-0.073,0.092l-0.053,0.024l-0.089-0.006l-0.088-0.042l-0.074-0.005l-0.062,0.032l-0.053,0.083l-0.013,0.082l-0.023,0.044l-0.084,0.05l-0.078,0.008l-0.157-0.008l-0.058,0.018l-0.07,0.063l-0.019-0.005l-0.015-0.079l-0.032-0.028l-0.065-0.016l-0.063-0.032l-0.021-0.031l-0.036-0.021l-0.058,0.003l-0.065,0.052l-0.042-0.003l-0.071-0.044l-0.06-0.073l-0.026-0.118l-0.008-0.147l0.029-0.06l0.078-0.053l0.048-0.005l0.028-0.021l0.021-0.058l0.068-0.081l0.024-0.005l0.029,0.018h0.015l-0.005-0.021l-0.133-0.131l-0.11-0.17l-0.107-0.259l-0.019-0.092l0.008-0.066l-0.016-0.055l-0.107-0.131l-0.052-0.128l-0.024-0.149l-0.041-0.108l-0.021-0.162l0.008-0.121l0.034-0.068l0.041-0.023l0.013-0.045l-0.02-0.081l-0.003-0.089l0.016-0.053l-0.011-0.125l-0.029-0.074v-0.071l0.032-0.065l0.018-0.005l0.021,0.015l0.021-0.007v-0.066l0.013-0.042l-0.008-0.016l-0.042-0.015l-0.049-0.079l-0.024-0.168l0.005-0.073l0.06-0.058l0.063-0.112l0.016-0.084l0.039-0.06h0.031l0.04,0.013l0.081-0.034l0.039-0.045l-0.021-0.005l-0.047,0.021l-0.037-0.003l-0.049-0.047l-0.011-0.044l0.016-0.042l-0.021-0.021l-0.084-0.029l-0.044-0.003l-0.05-0.052l-0.018-0.087v-0.083l0.031-0.074l0.079-0.039l0.091-0.011l0.087,0.05l0.026,0.047l0.018,0.003l0.047-0.05l0.037-0.002l0.036,0.015l0.032-0.005l0.018-0.055l-0.003-0.123l-0.044-0.066l-0.139-0.131l-0.026-0.078l0.008-0.053l0.029-0.013l0.057-0.008l0.042-0.044l-0.018-0.011l-0.026,0.006l-0.029-0.008l-0.029-0.047l0.011-0.047l0.023-0.014l0.063,0.011l0.031-0.018l0.037-0.113l0.008-0.094l0.009-0.154l0.025-0.091l0.052-0.037h0.032l0.028,0.026l0.008,0.037l0.019,0.005l0.02-0.034l-0.002-0.021l-0.021-0.026l0.013-0.044l0.052-0.032l0.045-0.038l0.099-0.155l0.09-0.192l0.013-0.123l0.021-0.055l0.047-0.026h0.052l0.034-0.026l0.039,0.002l0.037,0.024v0.029l0.013,0.008l0.039-0.032l0.021-0.065l-0.013-0.063l-0.086-0.152l0.013-0.099l0.039-0.102l-0.005-0.196l-0.047-0.218l0.013-0.143l0.078-0.154l0.097-0.058l0.052,0.003l0.029,0.021l-0.003,0.029v0.026l0.026,0.012l0.033-0.026l0.01-0.047l-0.022-0.053l-0.049-0.086l-0.009-0.12l0.015-0.133l0.043-0.116l0.075-0.094l0.076-0.174l0.02-0.085l0.027-0.068l0.03-0.024l0.016-0.037l0.005-0.075l0.045-0.115l0.15-0.279l0.131-0.215l0.031-0.083l0.063-0.084l0.082-0.082l0.092-0.059l0.034-0.002l0.018,0.012l0.011-0.002l-0.008-0.02l-0.023-0.027l-0.018-0.051l0.004-0.032l0.037-0.021l0.004-0.024l-0.027-0.045l-0.01-0.045l0.006-0.039l0.047-0.049l0.035-0.004l0.032,0.021l0.013-0.006v-0.035l-0.029-0.041l-0.004-0.026l-0.018-0.017l-0.027-0.016l-0.012-0.035l0.008-0.061l0.098-0.235l0.108-0.167l0.172-0.167l0.089-0.105l0.037-0.026l0.043-0.016l0.026-0.029v-0.035l-0.012-0.028l0.004-0.041l0.039-0.072l0.049-0.059l0.088-0.059l0.028-0.047l-0.004-0.037l-0.053-0.049l-0.014-0.038v-0.029l-0.023-0.03l-0.036-0.019l-0.027-0.043l-0.008-0.069l0.039-0.174l0.026-0.047l0.023-0.016l0.01-0.034l-0.012-0.049v-0.133l-0.019-0.082l-0.04-0.053l-0.017-0.098l-0.012-0.094l-0.002-0.069l0.012-0.045l-0.006-0.051l-0.037-0.09l-0.03-0.149l-0.002-0.224l0.024-0.155v-0.127l0.019-0.137l0.075-0.163l0.053-0.135l0.035-0.055l0.035-0.106l0.018-0.083l-0.002-0.082l0.039-0.139l0.075-0.124l0.163-0.213l-0.002-0.018l-0.043-0.016l-0.059-0.055l-0.038-0.109l-0.003-0.1l0.021-0.063l-0.006-0.041l-0.096-0.073l-0.063-0.018l-0.068-0.062l-0.022-0.079l-0.072-0.08l-0.047-0.02l-0.049-0.049l-0.04-0.01l-0.002-0.015l0.028-0.049l0.018-0.073l0.037-0.043l0.102-0.049l0.023-0.047l0.006-0.098l0.014-0.016h0.043l0.025,0.01l0.024-0.008l0.033-0.035l0.008-0.063l0.028-0.063l0.121-0.066l0.285-0.094l0.147-0.032l0.068-0.021l0.051-0.03l0.098-0.019l0.047-0.038l0.018-0.074l-0.031-0.067l0.005-0.029l0.026-0.018l0.014,0.002l-0.004,0.018l-0.016,0.017l0.002,0.022l0.053,0.069l0.116,0.053l0.133,0.011l0.243-0.023l0.108-0.033l0.071-0.006l0.031,0.009l0.053-0.002l0.068-0.025l0.195-0.012l0.078-0.041l0.018-0.047l-0.014-0.037l-0.035-0.039v-0.065l0.035-0.067l0.018-0.021l-0.002-0.03l-0.032-0.014l-0.053-0.007l-0.074-0.047l-0.012-0.026l0.01-0.012l0.017,0.018l0.01,0.014l0.053,0.029l0.067,0.012l0.035,0.023l0.01,0.026l-0.004,0.045l-0.043,0.063l-0.002,0.029l0.018,0.035l0.08,0.045l0.075,0.071l0.205,0.063l0.561,0.089l0.309,0.071l0.117,0.001l0.068-0.036l0.026-0.031l-0.002-0.026l-0.012-0.019l0.008-0.028l0.057-0.002l0.043,0.032l0.004,0.017h-0.024l-0.027-0.021l-0.018,0.004l-0.004,0.025l0.012,0.022l-0.008,0.027l-0.033,0.032l-0.02,0.045l0.002,0.1l0.043,0.129l0.002,0.061l-0.027,0.047l-0.12,0.067l-0.059,0.011l-0.029,0.032l-0.006,0.059l-0.016,0.009l-0.023-0.003l-0.026,0.015l0.002,0.036l0.071,0.088l0.027,0.082l0.028,0.155l-0.002,0.051l-0.024,0.063l-0.009,0.043l-0.065,0.09l-0.024,0.041l-0.009,0.039l-0.055,0.057l-0.022,0.059l-0.008,0.071l0.022,0.041l0.025,0.018l0.012,0.049l-0.01,0.033l0.01,0.016l0.051-0.02l0.049,0.002l0.024,0.043l-0.006,0.108l-0.049,0.086l-0.032,0.018l-0.051,0.008l-0.015,0.033l-0.002,0.069l-0.041,0.057l-0.044,0.019l-0.013,0.043l0.009,0.036l0.108,0.109l0.065,0.134l0.016,0.113l-0.01,0.077l-0.065,0.09l-0.033,0.004l-0.032-0.018l-0.041,0.002l-0.041,0.043l-0.031,0.018l-0.02,0.047l-0.008,0.079l0.016,0.068l0.043,0.014l0.002,0.016l-0.025,0.031l0.004,0.02l0.051,0.017l0.007,0.026l-0.015,0.027l-0.032,0.016l0.002,0.016l0.034,0.007l0.098-0.015l0.037-0.026h0.067l0.058,0.039l0.006,0.028l-0.017,0.033l-0.032,0.01l-0.01,0.02l0.014,0.045l0.026,0.017l0.043,0.002l0.063,0.036l0.025-0.004l0.016-0.036l0.004-0.082l0.027-0.059l0.082-0.043l0.149-0.016l0.081-0.023l0.031-0.024l0.11-0.011h0.102l0.037,0.027l0.024,0.002l0.029-0.008l0.02,0.01l0.015,0.043l0.004,0.057l0.012,0.012l0.02-0.006l0.006-0.059l-0.02-0.033l0.006-0.016l0.084-0.004l0.061,0.012l0.135-0.002l0.04,0.018l0.078,0.021l0.045,0.006l0.145,0.057l0.21,0.1l0.125,0.084l0.02,0.008l0.016-0.01l0.008-0.053l0.027-0.053l0.065-0.031l0.119-0.01l0.163,0.008l0.08,0.014l0.055-0.006l0.014-0.024l0.002-0.041l0.033-0.019l0.116-0.006l0.1,0.031l0.039-0.002l0.049-0.051l0.049-0.088l0.053-0.039l0.085-0.03l0.078-0.004l0.047-0.017l0.065,0.002l0.053,0.015l0.088,0.055l0.076,0.028l0.14,0.1l0.031,0.053l0.006,0.072l0.029,0.045l0.049,0.022l0.026-0.002l0.045,0.019l0.016,0.04l-0.014,0.029l-0.03,0.006l-0.029-0.016l-0.014,0.01l0.004,0.018l0.059,0.029l0.071,0.065l0.017,0.033l0.022,0.014l0.023,0.006l0.024,0.025l0.012,0.002l0.004-0.025l-0.018-0.049l-0.01-0.085l-0.021-0.039v-0.037l0.035-0.033l0.021,0.006l0.032,0.039l-0.002,0.025l-0.02,0.032l0.002,0.06l-0.01,0.024l0.004,0.023l0.032,0.006l0.031-0.009l0.053,0.005l0.147,0.081l0.055,0.061l0.004,0.039l-0.004,0.035l0.01,0.033l0.049,0.024l0.015-0.012l-0.003-0.033l-0.018-0.026v-0.041l0.02-0.037v-0.053l-0.022-0.018l0.008-0.021l0.047-0.01l0.053,0.033l0.055,0.006l0.037-0.029h0.016l-0.004,0.025l-0.036,0.03l-0.054,0.004l-0.044,0.021l-0.023,0.047v0.045l-0.012,0.014v0.016l0.053,0.027l0.092,0.079l0.075,0.107l0.004,0.038l0.009,0.008l0.044,0.005l0.072,0.03l0.1,0.094l0.108,0.127l0.067,0.079l0.07,0.047h0.043l0.038-0.018l0.009-0.031l-0.009-0.035l-0.049-0.065l-0.02-0.069l-0.004-0.059l-0.016-0.031l-0.021-0.018l-0.006-0.025l0.012-0.024l-0.01-0.029l-0.031-0.01l-0.053,0.024l-0.01-0.016l0.002-0.039l0.023-0.004l0.024,0.01l0.045-0.006l0.045-0.022l0.039-0.002l0.004,0.02l-0.019,0.031l0.002,0.036l0.033,0.045l0.006,0.031l0.017,0.027l0.024,0.008l0.008,0.018l-0.008,0.023l-0.047,0.006l-0.006,0.018l0.006,0.055l0.039,0.051l0.02,0.059l0.033,0.025l0.029,0.002l0.034-0.037l0.064-0.037l0.018-0.043l-0.004-0.057l0.026-0.043l0.049-0.026l0.013,0.004l-0.004,0.02l-0.015,0.019l0.004,0.035l0.043,0.034l-0.008,0.015l-0.035,0.02l-0.085,0.092l-0.023,0.047l-0.035,0.018l-0.128,0.041l-0.029,0.002l-0.032-0.016l-0.007,0.006l0.003,0.049l0.018,0.038l0.035,0.033l0.03,0.061l0.002,0.041l-0.02,0.039l0.002,0.049l0.057,0.071l0.065,0.013l0.035-0.005l0.024-0.034l0.058-0.023l0.075,0.008l0.082,0.052l0.026,0.04l0.029,0.011h0.139l0.11,0.018l0.018,0.014l-0.002,0.012l-0.012,0.015v0.022l0.029,0.035l0.163,0.071l0.059,0.053l0.037,0.086l0.006,0.069l0.028,0.033l0.062,0.014l0.026,0.017l0.017,0.002l0.012-0.029l-0.008-0.053l-0.051-0.079l-0.049-0.037l-0.002-0.027l0.02-0.034v-0.033l-0.02-0.051l-0.005-0.076l0.007-0.028l0.028-0.016l0.002-0.029l-0.006-0.025l0.025-0.059l0.053-0.036h0.03l0.043,0.036l0.102,0.051l0.045,0.057l-0.002,0.045l-0.02,0.009l-0.041,0.002l-0.017,0.016l-0.002,0.014l0.039,0.016l0.082,0.066l0.149,0.139l0.139,0.112l0.077,0.085l0.04,0.074l-0.006,0.099l0.021,0.074l0.034,0.049l0.003,0.039l-0.031,0.081l0.005,0.05l0.416,0.578l0.044,0.112v0.053l-0.016,0.062l0.006,0.079l0.022,0.086L1022.962,407.362z"/>
</svg>
