<svg xmlns="http://www.w3.org/2000/svg" viewBox="669.276 305.340 15.178 29.637">
  <path d="M681.476,306.25l0.049-0.003l0.042,0.059l-0.017,0.035l-0.059,0.007l-0.045-0.021l0.003-0.049L681.476,306.25L681.476,306.25z M682.317,312.022l0.069-0.014l0.017-0.038l-0.028-0.021l-0.045,0.003l-0.038,0.038L682.317,312.022L682.317,312.022z M682.23,312.123l0.031,0.014l0.031-0.017v-0.031l-0.028-0.014l-0.028,0.017L682.23,312.123L682.23,312.123z M682.15,316.839l0.232,0.099l0.094-0.01l0.052-0.078l0.151-0.089l-0.013-0.031l-0.073-0.026l-0.321-0.005l-0.107,0.029l-0.039,0.063L682.15,316.839L682.15,316.839z M682.822,316.667l0.185-0.094l0.13-0.01l0.203-0.115l0.016-0.049l-0.068-0.055l-0.008-0.06l0.057-0.099l-0.042-0.073l-0.089-0.055l-0.044-0.005l-0.021,0.026l0.026,0.06l-0.031,0.07l-0.07,0.023l-0.016,0.05l0.031,0.081l-0.047,0.05l-0.078-0.01l-0.039-0.055l-0.049-0.021l-0.016,0.023l0.031,0.044l0.003,0.063l-0.13,0.125l-0.07,0.133l0.023,0.023L682.822,316.667L682.822,316.667z M683.362,316.094l0.057,0.026l0.06-0.003l-0.01-0.023l-0.086-0.049l-0.029,0.01L683.362,316.094L683.362,316.094z M683.435,316.388l0.052-0.031l-0.008-0.021h-0.063l-0.044,0.034l0.01,0.026L683.435,316.388L683.435,316.388z M679.648,317.985l0.028,0.035l0.038,0.003l0.01-0.038l-0.035-0.049l-0.031,0.003L679.648,317.985L679.648,317.985z M681.173,320.652l0.026-0.013v-0.042l-0.023-0.013l-0.031,0.018l-0.005,0.026L681.173,320.652L681.173,320.652z M681.384,320.821h0.026l0.01-0.026l-0.01-0.023l-0.031-0.003l-0.018,0.018L681.384,320.821L681.384,320.821z M681.736,321.23l0.026-0.003l0.003-0.057l-0.018-0.026l-0.029-0.003l-0.013,0.029L681.736,321.23L681.736,321.23z M682.213,320.938l0.018-0.044l-0.026-0.063l-0.044-0.013l-0.01,0.018l0.034,0.036l0.008,0.057L682.213,320.938L682.213,320.938z M682.158,321.009l0.021,0.003l0.018-0.021l-0.01-0.021l-0.023-0.003l-0.01,0.021L682.158,321.009L682.158,321.009z M681.78,321.014l0.031-0.013l0.021-0.107l0.18-0.141l0.036-0.089l0.042-0.01l0.031,0.044l-0.016,0.086l0.034,0.01l0.031-0.05l0.036-0.172l0.078-0.073l0.138-0.083l0.023-0.063l-0.021-0.117l-0.057-0.034l-0.076-0.01l-0.242-0.177l-0.078-0.096l-0.12-0.06l-0.039,0.005l0.005,0.021l0.057,0.023l0.073,0.044l0.029,0.039l-0.029,0.039l-0.13-0.003l-0.307-0.107l-0.198,0.026l-0.036,0.044l-0.005,0.117l0.018,0.06l-0.005,0.195l-0.057,0.104l-0.005,0.081l0.076,0.156l0.065,0.039l0.073-0.013l0.026-0.065l0.083-0.057l0.091,0.008l0.133,0.162l0.003,0.086l-0.026,0.036l0.003,0.081L681.78,321.014L681.78,321.014z M673.555,307.07v0.053l0.03,0.029l-0.002,0.035l-0.07,0.042l-0.019,0.069l0.011,0.111l0.066,0.045l0.059,0.004l0.054,0.031l-0.002,0.04l-0.089,0.11l-0.135,0.057l-0.063-0.007l-0.052,0.012l-0.043,0.073l-0.068,0.009l-0.242-0.018l-0.222,0.072l-0.012,0.029l0.015,0.03l0.094-0.007l0.025,0.036l-0.011,0.049l0.047,0.099l0.033,0.035l-0.01,0.085l-0.075,0.061l-0.017,0.045l-0.011,0.107l-0.062,0.039l-0.058-0.016l-0.06,0.029l-0.018,0.06l-0.047,0.026l-0.044,0.002l-0.183,0.089l-0.049,0.096l-0.089,0.058l-0.101,0.008l-0.211,0.104l-0.094-0.003l-0.078,0.06v0.094l0.159,0.102l0.205,0.054l0.097-0.015l0.167,0.039l0.08-0.039l0.053,0.005l0.044,0.049l0.104,0.037l0.011,0.052l-0.029,0.047l-0.013,0.107l-0.055,0.07l-0.018,0.123l0.031,0.08l-0.026,0.047l-0.075,0.019l-0.04,0.091l0.032,0.127l-0.086,0.204l-0.068,0.07l-0.011,0.065l0.107,0.107l0.003,0.138l-0.076,0.073l-0.067,0.167l-0.006,0.146l-0.041,0.216l-0.076,0.052l-0.031,0.06l0.026,0.112l-0.003,0.045l-0.041,0.044l0.005,0.042l0.039,0.036l0.013,0.203l-0.042,0.227l0.042,0.162l0.159,0.18l0.081,0.01l0.073,0.065l0.021,0.146l-0.037,0.154l0.044,0.393l0.055,0.06l-0.008,0.079l-0.101,0.033l-0.089,0.12l-0.01,0.154l-0.055,0.302v0.139l0.078,0.106l0.076,0.021l0.172,0.11l0.13,0.044h0.107l0.013,0.018l-0.097,0.055l-0.109,0.195l-0.044,0.136l-0.042,0.075l-0.167,0.113l-0.148,0.357l-0.013,0.229l-0.027,0.049l-0.08-0.002l-0.12,0.088l-0.016,0.05l0.042,0.047l0.078,0.367l0.01,0.154l0.029,0.125l0.089,0.06l-0.013,0.031l-0.076,0.016l-0.075,0.117l-0.099,0.021l-0.034,0.034l0.031,0.06l0.125,0.047l0.003,0.039l-0.131,0.081l-0.117,0.125l0.018,0.057l-0.034,0.031l-0.112,0.003l-0.054,0.037l-0.013,0.073l-0.144,0.125l-0.266,0.106l-0.179,0.157l-0.193,0.073l-0.133,0.104l-0.177,0.016l-0.058,0.054v0.162l-0.138,0.391l-0.036,0.164l-0.068,0.094l-0.248,0.146l-0.255-0.117l-0.169,0.294l-0.12,0.146l-0.141,0.057l-0.037,0.073l0.094,0.178l-0.062,0.151l0.01,0.167l-0.083,0.145l0.088,0.282l-0.062,0.156l0.182,0.125l0.021,0.094l-0.036,0.078l0.078,0.324l0.125,0.307l0.448,0.626l0.256,0.875l0.151,0.115l0.156-0.005l0.792,0.333l-0.01,0.214l0.823,0.917l0.11,1.324l2.674,1.72l1.786,7.586l0.194-0.059l0.223-0.125l0.597-0.254l0.146-0.003l0.265-0.174l0.145-0.184l0.084-0.146l0.055-0.063l0.174-0.118l0.514-0.764l0.084-0.063l0.191-0.386l0.059-0.288l0.028-0.07l0.003-0.052l-0.031-0.045l-0.073-0.497l0.066-0.191l-0.01-0.059l-0.084-0.094l-0.014-0.174l0.011-0.059l-0.011-0.048l-0.062-0.039l-0.143-0.323l-0.024-0.125l-0.156-0.396l-0.021-0.132l-0.059-0.129l0.01-0.072l0.129-0.178l0.118-0.104l0.226-0.337l0.038-0.132l0.125-0.122l0.271-0.139l0.073-0.003l0.052,0.017l0.209,0.004l0.132-0.059l0.066,0.007l0.048-0.014l0.073-0.108l0.014-0.094l0.08-0.115l0.098-0.079l0.083-0.115l0.007-0.094l-0.052-0.049l-0.004-0.059l0.066-0.076l0.015-0.081l0.065-0.07l0.073-0.011l0.123,0.047l0.06-0.005l0.08-0.07h0.058l0.122-0.045l0.243-0.37l0.002-0.094l0.461-0.307l0.105-0.044l0.203-0.133l0.086-0.021l0.289-0.143l0.58-0.231l0.239-0.125l0.244-0.08l0.187-0.104l0.198-0.09l0.132-0.153l0.018-0.268l-0.17-0.257l-0.178-0.125l-0.055-0.146l0.028-0.198v-0.118l-0.014-0.146l0.041-0.351l-0.014-0.297l0.068-0.214l0.038-0.047l0.009-0.045l-0.029-0.073l0.027-0.254l0.099-0.227l0.011-0.101l0.014-0.042l-0.056-0.024l-0.16-0.021l-0.25-0.128l-0.313-0.209l-0.08-0.028l0.011,0.032l0.316,0.205l0.08,0.076l-0.031,0.049h-0.066l-0.038-0.025l-0.063-0.007l-0.08,0.021l-0.403-0.104h-0.24l-0.076-0.056l-0.035-0.135l-0.125-0.163l0.028-0.066l0.135-0.032l0.216,0.091l0.229,0.073l0.003-0.032l-0.403-0.201l-0.104-0.118l-0.059-0.021l-0.069,0.035h-0.06v-0.032l0.06-0.024l0.007-0.09l-0.112-0.125l-0.003-0.087l0.08-0.188l-0.011-0.153l-0.041-0.17l-0.192-0.233l-0.107-0.021l-0.045-0.059l-0.042,0.007l-0.021,0.063l-0.052,0.014l-0.115-0.025l-0.128,0.045l-0.011,0.059l0.059,0.011l0.049,0.097l0.007,0.084l-0.087,0.114l-0.382,0.129l-0.111,0.104l-0.132,0.004l-0.032-0.046l-0.069-0.034l-0.063,0.01l-0.031-0.028l-0.003-0.104l-0.049-0.059l0.01-0.09l0.125-0.091l0.066-0.135l-0.013-0.15l0.024-0.156l-0.08-0.08h-0.129l-0.135,0.09l-0.44,0.139l-0.167,0.081l-0.125,0.013l-0.013-0.031l0.097-0.047l-0.005-0.031l-0.258-0.115l-0.256-0.125l-0.571-0.469l-0.239-0.287l-0.261-0.552l-0.062-0.313l0.006-0.174l-0.031-0.118l0.021-0.028l0.035,0.014l0.042-0.024l0.052-0.17l0.069-0.115l0.07-0.146l0.104-0.108l0.191-0.09l0.038-0.08l0.038-0.017l0.07,0.048l0.052-0.014l0.038-0.052l0.143-0.073l0.017-0.087l0.049-0.02l0.107,0.045l0.07-0.014l0.031-0.042l-0.014-0.028l0.007-0.028h0.094l0.136-0.173l0.159-0.157l0.199-0.09l0.232-0.017l0.098-0.063l0.024-0.125l0.08-0.118l0.094-0.084l0.191-0.052l0.104-0.062l0.031-0.077l0.042-0.045l0.035-0.121l0.073-0.077l0.034-0.062l0.195-0.212l0.094-0.028l0.031-0.035l0.007-0.069l0.118-0.195l0.059-0.139v-0.215l0.039-0.091l0.073-0.076l0.166-0.087l0.077-0.104l0.028-0.178l-0.014-0.073l0.034-0.118l0.094-0.149l0.094-0.018l0.094-0.138l0.014-0.067l0.062-0.059l0.098-0.007l0.003-0.031l-0.174-0.118l-0.18-0.184l-0.105-0.177l0.004-0.108l0.045-0.066l0.007-0.045l-0.017-0.129l0.062-0.226l0.056-0.062l-0.004-0.035l-0.076-0.024l-0.07-0.105l-0.003-0.125l0.052-0.132l0.007-0.1l-0.038-0.039l-0.073-0.003l-0.066-0.035l-0.035-0.038l-0.129-0.052l-0.253-0.045l-0.17-0.098l-0.073-0.083l0.017-0.115l0.066-0.111l-0.017-0.038h-0.181l-0.191,0.045l-0.146-0.052l-0.174-0.129l-0.031-0.08l-0.202-0.33l-0.222-0.288l-0.028-0.157l-0.049-0.093l-0.062-0.046l-0.066-0.128l-0.031-0.289l0.017-0.274l0.09-0.348l0.122-0.267l0.108-0.149l0.1-0.053l0.091,0.011l0.142-0.031l0.174-0.108l0.271-0.087l0.136-0.021l0.059-0.052l0.073-0.229l0.118-0.247l0.271-0.48l0.285-0.41l0.173-0.166l0.136-0.028l0.097-0.094l0.011-0.097l-0.077-0.101l-0.045-0.136v-0.111l-0.045-0.097l-0.111-0.118v-0.091l0.041-0.09v-0.069l-0.09-0.094l-0.049,0.007l-0.013,0.045l-0.16,0.076l-0.223,0.014l-0.073,0.052l0.004,0.094l-0.073,0.125l-0.327,0.219l-0.101,0.111l-0.229,0.132l-0.129,0.018l-0.104-0.025l-0.212,0.07l-0.062,0.101l-0.021,0.142l-0.084,0.188l-0.083,0.073l-0.097,0.01l-0.084,0.035l-0.059,0.066l-0.18,0.031l-0.195-0.024l-0.198-0.143l-0.049-0.121l0.035-0.111l0.181-0.271v-0.039l-0.077-0.02l-0.017-0.056l0.007-0.038l-0.038-0.052l-0.146-0.035l-0.216-0.17l-0.09-0.174l-0.059-0.202l0.031-0.135l0.087-0.087l-0.007-0.028l-0.101-0.01l-0.156-0.091v-0.062l0.069-0.056l0.202-0.003l0.049,0.031l0.041,0.003l0.049-0.052l0.097-0.017l0.018-0.031l-0.035-0.018l-0.129,0.011l-0.066-0.014l-0.031-0.056l-0.306-0.167l-0.094-0.01l-0.069-0.028l-0.045-0.062l-0.056-0.025l-0.219,0.077l-0.24-0.035l-0.128-0.076l-0.049-0.115l-0.003-0.118l-0.035-0.035l-0.139-0.007l-0.108,0.024l-0.114-0.017l-0.035-0.045l-0.056-0.007l-0.073,0.035l-0.066,0.01l-0.073-0.021l-0.118,0.025l-0.048,0.066l-0.153,0.08l-0.091,0.01l-0.038-0.024l-0.101,0.014l-0.073,0.073l-0.229,0.086l-0.09-0.038l-0.15,0.045l-0.066,0.073l-0.146,0.049l-0.076-0.007l-0.08,0.021l-0.038,0.031l-0.118,0.028l-0.091-0.035l-0.007-0.052l-0.045-0.014l-0.069,0.063l-0.112,0.156l-0.166,0.118l-0.105,0.004l-0.142,0.052l-0.226,0.177l-0.142,0.202l-0.414,0.364l-0.15,0.08l-0.118,0.013l-0.08-0.028l-0.191-0.009l-0.093,0.061l-0.089,0.022L673.555,307.07z"/>
</svg>
