<svg xmlns="http://www.w3.org/2000/svg" viewBox="1322.769 508.731 9.352 26.073">
  <path d="M1324.754,508.901l0.035,-0.102l0.173,-0.068l0.111,0.094l-0.026,0.147l-0.121,0.066l-0.08,-0.014l-0.092,-0.123Z M1332.045,509.877l0.024,0.033l0.045,-0.014l0.007,-0.035l-0.054,-0.054l-0.028,0.009l0.005,0.061Z M1331.841,510.262l0.033,0.062l0.05,0.036l0.049,-0.007l0.1,-0.12l0.005,-0.049l-0.021,-0.035l-0.024,0.003l-0.01,0.045l-0.026,0.019l-0.133,0.012l-0.023,0.031Z M1329.789,518.08l0.054,-0.021l0.01,-0.038l-0.029,-0.035l-0.045,0.007l-0.024,0.054l0.035,0.033Z M1330.312,518.611l0.029,-0.003l0.007,-0.021l-0.016,-0.01l-0.026,0.016l0.005,0.019Z M1328.575,521.202h0.076l0.048,-0.081v-0.035l-0.086,-0.061 l-0.073,0.015l-0.032,0.066l0.066,0.095Z M1330.989,521.089l0.019,-0.01l-0.006,-0.017h-0.021l-0.009,0.013 l0.016,0.013Z M1330.871,520.953h0.022l0.007,-0.017l-0.014,-0.021h-0.019l-0.007,0.014l0.011,0.023Z M1331.259,520.509l0.021,0.014l0.012,-0.007l-0.004,-0.014l0.01,-0.007h0.021l0.029,0.019 l0.003,-0.012l-0.043,-0.032l-0.023,0.006l-0.029,-0.003l-0.011,0.014l0.015,0.022Z M1330.967,520.577l0.007,-0.008l-0.029,-0.006l-0.018,0.014l-0.018,0.033l0.015,0.035l0.021,0.01l0.014,-0.01l-0.03,-0.04l0.017,-0.025l0.022,-0.003Z M1330.847,520.661l0.022,0.004l0.035,0.03v0.015l-0.017,-0.004 l-0.011,0.014l-0.006,0.043l0.046,0.048l0.018,-0.006l0.012,-0.08l-0.014,-0.033l-0.057,-0.05l-0.033,-0.014l-0.01,0.014l0.014,0.018Z M1330.596,520.904l0.008,-0.014h0.023l0.022,0.006 l0.028,-0.008l-0.004,-0.015l-0.039,-0.008l-0.052,0.017l-0.003,0.018l0.017,0.006Z M1330.705,520.792l0.014,-0.007l-0.004,-0.015l-0.019,-0.006l-0.01,0.014l0.019,0.014Z M1331.169,520.617l0.019,-0.007l0.006,-0.025l-0.01,-0.007l-0.022,0.017l-0.004,0.015l0.011,0.007Z M1331.147,520.722l0.021,0.026l0.011,-0.012l-0.007,-0.03l0.007,-0.015h0.014l0.007,-0.015 l-0.017,-0.006l-0.029,0.023l-0.007,0.029Z M1330.977,520.64l0.04,0.036v0.018l-0.032,0.017 l0.007,0.008l0.05,-0.007l0.018,0.006l0.011,0.014l0.01,-0.011l-0.026,-0.039l-0.022,-0.007v-0.014l0.032,-0.015 v-0.015l-0.008,-0.015l-0.04,0.011l-0.003,-0.012l0.036,-0.029l0.007,-0.025l-0.015,-0.033l-0.011,-0.006l-0.028,0.017l-0.015,0.015l0.003,0.018l-0.017,0.017l-0.008,0.032l0.012,0.021Z M1330.531,520.654h0.015l0.01,0.014 l-0.014,0.015l0.004,0.018l-0.007,0.017l-0.014,0.004l-0.003,0.012l0.021,0.003l0.017,-0.023v-0.021l0.032,-0.068 l0.047,-0.019l0.03,0.007l0.03,-0.011l-0.008,-0.012l-0.076,-0.007l-0.065,0.021l-0.011,0.026l-0.025,0.021v0.014l0.017,-0.01 Z M1330.628,520.741l0.01,0.007l0.041,-0.044l0.044,-0.01l0.029,0.03l0.003,0.032l0.023,0.015l0.012,-0.003l-0.025,-0.025l0.003,-0.028l-0.018,-0.018l0.017,-0.032l-0.003,-0.015l-0.046,0.019l-0.019,0.015l-0.023,0.003l-0.026,0.018h-0.014l-0.008,0.008 v0.026Z M1330.944,520.981l0.011,-0.011l-0.01,-0.015h-0.011l-0.003,0.018l0.012,0.008Z M1330.593,521.08l0.015,-0.004v-0.014l-0.011,-0.003 l-0.01,0.01l0.006,0.011Z M1330.981,521.297l-0.006,-0.023l-0.011,-0.01l-0.004,0.008l0.008,0.018l0.012,0.007Z M1330.81,520.726l0.004,-0.017l-0.008,-0.014l-0.014,0.007l0.003,0.018l0.015,0.006Z M1330.849,520.737l0.011,-0.014l-0.012,-0.011l-0.018,0.004l-0.004,0.017l0.023,0.004Z M1330.967,520.882v0.01l-0.006,0.015 l0.007,0.01l0.01,-0.011l0.004,-0.021v-0.014l-0.029,-0.015 l-0.003,0.009l0.016,0.018Z M1331.052,520.775l0.01,-0.007l-0.007,-0.015l-0.025,-0.004v0.015l0.022,0.011 Z M1331.18,520.644l0.018,0.011l0.011,-0.003l-0.007,-0.015l-0.015,-0.007h-0.025l-0.001,0.012 h0.019Z M1331.306,520.581l-0.003,-0.011l0.012,-0.017l-0.011,-0.003l-0.011,0.014l0.006,0.026l0.007,-0.01Z M1331.297,520.637l-0.008,0.017l0.004,0.012l0.012,-0.006l0.008,-0.029l-0.007,-0.023l-0.012,0.007l0.003,0.022Z M1331.278,520.702l0.007,0.026l0.011,-0.003l-0.006,-0.019l0.012,-0.011l-0.003,-0.018l-0.014,0.003l-0.008,0.022Z M1330.468,520.774l0.011,0.006l0.012,-0.012l-0.006,-0.011l-0.012,0.003l-0.006,0.015Z M1330.512,520.733l0.006,-0.022l-0.021,-0.018l-0.014,0.006l-0.003,0.018l0.019,0.019l0.012,-0.003Z M1330.603,520.81l0.007,0.01l0.021,-0.01l0.032,0.003l0.007,-0.011l-0.01,-0.008l-0.014,0.006l-0.014,-0.003v-0.033l-0.008,0.003l-0.006,0.028l-0.015,0.017Z M1330.912,520.472l0.01,-0.015l0.047,-0.011l0.013,0.015l0.014,0.002l0.035,-0.023l0.003,0.009l-0.012,0.021l0.006,0.002l0.037,-0.025l0.025,-0.023l0.007,-0.028l-0.019,-0.018l-0.037,-0.008l-0.043,0.026l-0.011,-0.006l0.035,-0.044l0.029,-0.014l0.04,0.01l0.028,0.036l-0.01,0.047l-0.028,0.039l-0.028,0.004l-0.014,0.015l-0.04,0.006l-0.01,0.017l0.018,0.01l0.015,-0.01l0.015,-0.003l0.039,0.018l0.007,0.051l-0.018,0.039l0.01,0.018l0.029,-0.012l0.007,-0.017l-0.004,-0.053l-0.01,-0.016l0.01,-0.015l0.025,0.007l0.01,0.018l-0.011,0.039l0.015,0.008l0.017,-0.039l-0.008,-0.043l0.028,-0.008l0.01,0.021l-0.01,0.015l0.01,0.01l0.028,-0.017l-0.022,-0.05l0.007,-0.025l-0.012,-0.01l-0.008,0.011l-0.014,-0.004l-0.004,-0.028l0.012,-0.007l0.052,0.036h0.017l0.008,-0.021l-0.01,-0.072l0.017,-0.006l0.035,0.043l0.017,0.054l0.021,0.017h0.035l0.008,-0.03 l-0.003,-0.05l-0.017,-0.017l-0.023,0.006l-0.029,-0.014l-0.003,-0.018l0.018,-0.019l-0.008,-0.015l-0.022,-0.003l-0.004,-0.015l0.017,-0.022v-0.032l-0.048,-0.04 l-0.062,0.004l-0.012,0.014l-0.023,-0.004l-0.017,-0.023l-0.019,-0.012l-0.023,-0.002l-0.057,0.043l-0.021,0.002l-0.021,-0.017l-0.005,0.005l0.006,0.021l0.004,0.04l-0.022,0.059l-0.075,0.08h-0.029l-0.046,-0.021 l-0.054,0.011l-0.022,0.035l0.01,0.066l0.026,0.008l0.01,0.015l-0.007,0.066l0.015,0.008l0.069,-0.007l0.036,-0.046l0.026,-0.01l0.003,-0.012l-0.03,-0.007v-0.043Z M1330.712,521.184l0.008,-0.007l-0.003,-0.011h-0.01l-0.006,0.011l0.01,0.007Z M1330.777,521.176h0.011l0.001,-0.01 l-0.012,-0.004l-0.01,0.007l0.01,0.007Z M1330.622,520.648h0.012l-0.004,-0.014l-0.011,-0.008l-0.006,0.01l0.008,0.012Z M1330.822,520.831l0.006,-0.01l-0.007,-0.008l-0.01,0.006v0.015l0.011,-0.003 Z M1330.72,520.911l0.01,-0.006l-0.003,-0.01h-0.01l-0.007,0.01l0.01,0.006Z M1330.69,520.815l0.01,-0.006l-0.006,-0.01h-0.011l-0.004,0.011 l0.011,0.004Z M1325.779,527.869l0.012,-0.015l-0.003,-0.015l-0.011,0.003l-0.01,0.028h0.011Z M1326.962,524.899l0.118,0.017l0.076,-0.034l0.031,-0.088l-0.08,-0.163l-0.107,-0.027l-0.08,0.024l-0.045,0.16l0.087,0.112Z M1327.194,524.543l0.076,-0.048l0.024,-0.058l-0.035,-0.065l-0.049,-0.017l-0.055,0.061l-0.003,0.098l0.042,0.027Z M1328.075,526.785l0.031,-0.013l0.029,-0.092l-0.018,-0.028l-0.107,0.031l-0.016,0.043l0.081,0.059Z M1328.272,527.715l0.013,-0.013l-0.013,-0.025l-0.018,0.003l-0.003,0.025l0.021,0.01Z M1328.184,527.541l0.013,-0.013l-0.008,-0.018h-0.018l-0.008,0.023l0.021,0.008Z M1328.007,526.867l0.023,-0.003l0.003,-0.025l-0.023,-0.02l-0.023,0.005l0.021,0.043Z M1328.376,527.045l0.018,-0.013l-0.031,-0.036h-0.023l-0.008,0.023l0.044,0.025Z M1328.675,526.833l0.026,-0.02l-0.021,-0.01l-0.044,0.013l-0.008,0.018h0.047Z M1329.039,527.294l0.029,-0.031l-0.018,-0.01l-0.042,0.028l-0.008,0.02l0.039,-0.008Z M1329.07,527.103l0.016,-0.025l-0.013,-0.018l-0.021,0.025l-0.003,0.031l0.021,-0.013Z M1329.07,526.984l0.013,-0.013l0.005,-0.02l-0.023,-0.003l-0.016,0.02l0.021,0.015Z M1329.187,524.356l0.031,-0.01l0.013,-0.036l-0.018,-0.01l-0.031,0.013l-0.013,0.028l0.018,0.015Z M1329.317,524.211l0.023,-0.015l-0.013,-0.038l-0.018,0.003l-0.008,0.031l0.016,0.02Z M1328.337,525.028l0.018,-0.018l-0.034,-0.025l-0.023,0.003l0.003,0.028l0.036,0.013Z M1328.68,524.85h0.029l-0.003,-0.025l-0.034,-0.003l-0.013,0.018l0.021,0.01Z M1328.93,525.082l0.036,0.003l0.026,-0.018l-0.023,-0.025l-0.031,-0.005l-0.018,0.025l0.01,0.02Z M1328.025,525.553l0.018,-0.023l0.003,-0.023l-0.021,0.003l-0.021,0.043h0.021Z M1328.145,525.823l0.034,-0.005l0.008,-0.028l-0.023,-0.015h-0.023l-0.018,0.023l0.023,0.025Z M1328.451,525.907l0.029,0.003l0.016,-0.023l-0.018,-0.02l-0.029,-0.003l-0.013,0.02l0.016,0.023Z M1328.337,525.568l0.026,-0.008l0.029,-0.031l-0.01,-0.033l-0.023,-0.008l-0.023,0.023l-0.016,0.038l0.018,0.018Z M1329.137,525.626l0.086,-0.008l0.057,-0.036l-0.029,-0.003l-0.042,0.02l-0.052,0.008l-0.021,0.018Z M1329.449,525.397l-0.005,0.028l0.031,0.008l0.034,-0.046l0.042,-0.041v-0.038l-0.055,-0.02l-0.016,0.02l-0.003,0.059l-0.029,0.031Z M1329.444,525.27l0.023,-0.003l-0.016,-0.033l-0.029,-0.013v0.023l0.021,0.025Z M1329.454,525.171l0.005,0.02l0.06,-0.023l0.042,-0.053l-0.023,-0.005l-0.062,0.025l-0.021,0.036Z M1329.647,525.069l0.06,0.02h0.039l0.026,-0.028l-0.026,-0.036l-0.008,-0.046l0.026,-0.084v-0.053l-0.021,-0.015l-0.034,0.025l0.018,0.033l-0.039,0.112l-0.034,0.033l-0.044,0.013l-0.008,0.023l0.044,0.003Z M1329.756,524.799l0.021,0.018l0.086,-0.013l0.06,0.005l0.039,-0.031v-0.059l0.023,-0.036l-0.018,-0.036l-0.039,0.018l-0.005,0.038l-0.039,0.023h-0.039l-0.088,0.071Z M1329.917,524.43l0.013,0.015v0.02l0.01,0.023l0.034,0.023l0.021,0.048l0.023,-0.01l0.005,-0.043l-0.016,-0.028l-0.042,-0.028l-0.044,-0.087l-0.023,0.013l-0.008,0.036l0.026,0.018Z M1330,524.626l-0.003,-0.023l-0.018,-0.003l-0.013,0.025l0.021,0.015l0.013,-0.015Z M1322.782,534.796l0.031,0.008l0.023,-0.023v-0.028l-0.036,-0.015l-0.031,0.02l0.013,0.038Z M1326.332,529.78l0.026,-0.03l0.004,-0.016l-0.014,-0.014l-0.014,0.003l-0.006,0.012l0.01,0.016l-0.014,0.024l0.007,0.004Z M1326.512,530.221l0.011,-0.009l-0.004,-0.024l-0.008,-0.012l-0.01,0.003l-0.003,0.031l0.014,0.012Z M1326.701,530.047l0.012,-0.009l-0.007,-0.012l-0.014,0.005l-0.003,0.012l0.011,0.004Z M1327.356,530.038h0.019l0.011,-0.018 v-0.02l-0.018,-0.011 l-0.025,0.011v0.014l0.012,0.024 Z M1326.698,529.907l0.011,-0.004l0.003,-0.009l-0.017,-0.005l-0.004,0.011l0.007,0.008Z M1326.877,529.899l0.019,-0.011l-0.012,-0.005l-0.029,0.005v0.012h0.022Z M1327.082,529.922l0.014,-0.008l-0.01,-0.008h-0.019l-0.006,0.014 l0.021,0.003Z M1327.175,529.928l0.014,-0.007l-0.003,-0.012h-0.017l-0.008,0.012 l0.014,0.007Z M1327.286,529.785l0.011,-0.009l-0.007,-0.012h-0.015l-0.006,0.016l0.017,0.005Z M1327.211,529.904l0.007,-0.005l-0.006,-0.008l-0.011,0.003v0.011l0.01,0 Z M1327.457,531.413l0.017,-0.007l0.003,-0.015l-0.014,-0.01l-0.014,0.002l-0.003,0.017l0.01,0.014Z M1327.551,530.69l-0.033,0.095l-0.033,0.054l-0.061,0.061l-0.038,0.078l-0.009,0.095l0.019,0.066l0.057,0.056l0.021,0.037l0.035,0.008l0.109,0.105h0.026l0.017,-0.024l0.005,-0.085l-0.014,-0.032l0.009,-0.076l-0.002,-0.053l-0.014,-0.034l0.003,-0.037l-0.014,-0.105l0.005,-0.019l-0.033,-0.143l0.014,-0.046l-0.007,-0.031l-0.028,-0.005l-0.036,0.032Z M1326.754,530.129l0.009,-0.014l-0.002,-0.024l-0.012,-0.007l-0.01,0.014l0.003,0.025l0.012,0.005Z M1326.048,529.816l-0.037,0.053l-0.043,0.038l-0.007,0.024l0.028,0.073l0.003,0.053l0.023,0.081l0.043,0.048l0.059,0.024l0.024,0.032l0.069,0.042l0.047,0.044l0.028,0.012l0.064,-0.007l0.09,0.022l0.095,0.048l0.036,0.034l0.045,0.098l0.087,0.056l0.094,0.034l0.057,-0.01l0.057,-0.059l0.017,-0.076l-0.028,-0.081l0.012,-0.027l0.017,-0.012l0.043,-0.059l0.016,-0.044l0.05,-0.039l0.062,-0.005l0.057,-0.032l0.019,-0.032l-0.005,-0.025l-0.073,-0.056l-0.126,-0.037l-0.045,-0.003l-0.052,0.024l-0.033,0.005l-0.01,0.012l0.007,0.036l-0.021,0.035l-0.008,0.024l0.008,0.015l0.011,-0.003l0.008,-0.018h0.01l0.001,0.019 l0.016,0.019l-0.002,0.034l-0.036,0.039l-0.007,0.027l-0.036,0.01l-0.028,-0.008l-0.043,0.01l-0.017,0.025l-0.042,-0.01l-0.007,-0.037l0.033,-0.022l0.036,0.01l0.038,-0.01l0.023,-0.032l-0.019,-0.017l-0.033,0.003l-0.047,-0.024l-0.036,-0.002l-0.024,0.017l-0.033,-0.005l-0.009,-0.025l-0.017,-0.005l-0.023,0.046l0.003,0.025l0.019,0.002l0.014,0.007l-0.012,0.015l-0.026,0.005l-0.073,-0.015l-0.036,-0.02v-0.027l0.08,-0.068l0.035,-0.007l0.042,0.022l0.024,0.019l0.019,0.002l0.035,-0.019l0.054,-0.003l0.012,-0.029l-0.007,-0.024l-0.031,0.007l-0.036,-0.003l-0.012,-0.012l-0.021,-0.005l-0.021,0.005l-0.035,-0.024l-0.104,-0.037l-0.014,0.003l0.008,0.018l-0.007,0.007l-0.017,-0.024l-0.017,-0.003l-0.016,0.012l-0.055,-0.002l-0.118,0.008l-0.033,-0.017l-0.064,-0.015l-0.061,-0.003l-0.019,-0.025l-0.009,-0.073l0.017,-0.056l0.029,-0.034l0.005,-0.024l-0.015,-0.008l-0.026,0.02Z M1326.365,530.027l0.012,0.007l0.01,-0.014l0.01,0.003l0.006,-0.005l-0.017,-0.014l-0.014,0.003l-0.007,0.02Z "/>
</svg>
