<svg xmlns="http://www.w3.org/2000/svg" viewBox="736.634 284.713 71.031 27.169">
  <path d="M740.23,296.86l-0.055,-0.021l-0.026,-0.06l0.008,-0.07l-0.01,-0.096l-0.05,-0.018l0.01,-0.023l0.044,-0.018l0.073,0.005l0.023,0.029l0.029,0.008l0.034,-0.016l0.023,0.008l-0.003,0.029l-0.042,0.018l-0.07,-0.016l-0.029,0.013l0.013,0.052l0.034,0.029l0.039,-0.01l0.029,0.008l0.018,0.06l0.026,0.01l0.031,-0.005l0.029,0.021l-0.013,0.031l-0.081,0.003l-0.034,0.021l-0.052,0.01Z M766.669,310.33l0.042,-0.031v-0.042l-0.024,-0.007l-0.035,0.021l-0.01,0.045l0.028,0.014Z M752.071,310.398l0.002,-0.016l0.122,-0.064l0.061,-0.005l0.049,-0.035l0.014,0.007l-0.05,0.064l-0.045,0.026l-0.045,-0.003l-0.066,0.024l-0.04,0.002Z M751.723,310.528l0.019,-0.005l0.024,0.017l-0.01,0.017l-0.026,0.009l-0.023,0.019l-0.017,-0.002l0.005,-0.026l0.028,-0.03Z M751.365,310.542l0.016,-0.009l0.014,0.002l0.003,0.016l-0.014,0.005l-0.016,0.002l-0.003,-0.016Z M750.596,310.187l0.011,0.006l-0.004,0.014l-0.019,0.014l-0.011,-0.006l0.004,-0.019l0.019,-0.008Z M750.234,310.226l-0.007,-0.011l0.044,-0.03l0.029,-0.003l0.003,0.01l-0.042,0.028l-0.028,0.007Z M748.563,308.304l-0.024,-0.019l0.005,-0.014l0.035,0.005l0.023,0.026v0.028l-0.021,0.002l-0.017,-0.028Z M748.651,308.328h-0.017l-0.014,-0.038l0.003,-0.043l0.028,-0.016l0.047,0.009l0.003,0.016l-0.012,0.024l-0.021,0.017l-0.017,0.031Z M748.709,308l0.021,-0.003l0.023,0.023l-0.003,0.017l-0.019,0.023h-0.016l-0.012,-0.023l0.007,-0.036Z M748.657,308.151l0.016,-0.01l0.016,0.009l-0.005,0.014l-0.012,0.007l-0.014,-0.005v-0.014Z M749.093,308.335l-0.002,-0.024l0.019,-0.014l0.021,0.005l0.009,0.017l-0.012,0.017l-0.017,0.007l-0.017,-0.009Z M748.964,308.175l-0.003,-0.019l0.014,-0.007l0.016,0.007l0.003,0.012l-0.014,0.012l-0.016,-0.005Z M746.843,307.837l0.007,-0.021l0.019,-0.009l0.014,0.009v0.016l-0.021,0.014l-0.019,-0.009Z M746.254,307.732l-0.017,-0.038l0.012,-0.026l0.071,-0.033l0.04,0.009l0.016,0.023v0.043l0.019,0.012l-0.002,0.012h-0.054l-0.05,0.007l-0.035,-0.009Z M745.416,308.014l0.014,-0.023l0.03,-0.007l0.017,0.012l-0.009,0.019l-0.043,0.017l-0.009,-0.019Z M745.286,308.064l0.023,-0.03l0.042,-0.003l0.016,0.012l-0.03,0.031l-0.045,0.009l-0.005,-0.019Z M745.364,308.287l0.016,-0.007l0.035,0.04l-0.003,0.023l-0.024,0.002l-0.028,-0.023l0.005,-0.035Z M745.474,308.36l0.017,0.01l-0.016,0.028l-0.021,0.009l-0.012,-0.01l0.007,-0.023l0.024,-0.014Z M743.738,306.949l0.021,0.029l-0.008,0.018l-0.018,-0.003l-0.013,-0.023v-0.021h0.018Z M742.941,306.891l0.008,-0.026h0.018l0.008,0.023l-0.016,0.018l-0.018,-0.016Z M743.12,306.902l0.01,-0.018l0.063,0.01l0.156,0.083l0.008,0.036l-0.039,0.016l-0.12,-0.047l-0.023,-0.047l-0.055,-0.034Z M749.115,289.879l0.016,-0.021h0.029l0.01,0.018l-0.008,0.023l-0.029,0.003l-0.018,-0.023Z M749.169,290.009l0.013,-0.026h0.034l0.008,0.021l-0.01,0.021h-0.023l-0.021,-0.016Z M749.258,290.053l0.013,-0.029l0.039,-0.026l0.021,0.003l0.005,0.029l-0.029,0.034l-0.026,0.003l-0.023,-0.013Z M749.393,290.199l-0.01,-0.073l0.023,-0.07l0.039,-0.023l0.021,0.005l0.003,0.034l-0.026,0.031l-0.005,0.06l-0.018,0.039l-0.026,-0.003Z M749.5,290.126v0.015l-0.011,0.006 l-0.012,-0.004l-0.003,-0.015l0.014,-0.006l0.012,0.004Z M747.209,291.527l0.007,-0.063l-0.007,-0.035l0.021,-0.028l0.08,0.003l0.003,0.024l-0.045,0.035l-0.003,0.049l0.007,0.083l-0.035,0.042l-0.031,-0.003l-0.017,-0.052l0.021,-0.056Z M745.5,291.882l0.01,-0.017l0.023,-0.003l0.029,0.023l-0.008,0.018l-0.034,-0.003l-0.021,-0.019Z M743.517,291.122l0.021,-0.068l0.047,-0.021l0.042,0.018l0.052,-0.005l0.034,-0.034l0.138,-0.016l0.042,-0.029l0.034,0.003l0.016,0.021l0.021,0.003l0.021,-0.016l0.065,0.01l0.026,0.036l0.026,0.005l0.047,-0.008l0.136,0.039l0.031,0.05l-0.016,0.031l-0.201,0.096h-0.042l-0.023,0.013l-0.029,0.05l-0.138,0.057l-0.052,0.003l-0.036,-0.018l-0.096,-0.003l-0.102,-0.044l-0.034,-0.036l-0.01,-0.042l0.016,-0.031l-0.01,-0.034l-0.023,-0.031Z M743.391,291.633l0.068,-0.083l0.044,-0.005l0.068,0.039l0.008,0.039l-0.044,0.044l-0.008,0.031l0.013,0.031l-0.01,0.031l-0.12,0.06l-0.031,-0.005l-0.003,-0.042l-0.026,-0.026l0.003,-0.031l0.029,-0.036l0.01,-0.047Z M743.728,291.784l0.026,-0.013l0.039,0.016l0.018,-0.01l-0.013,-0.094l0.036,-0.026l0.031,0.01l0.008,0.034l0.018,0.013l0.063,0.005l0.023,0.018l-0.008,0.029l-0.044,0.023l-0.008,0.042l0.052,0.065l0.021,0.003l0.016,-0.039h0.023l0.005,0.023l-0.016,0.05l-0.023,0.003l-0.015,-0.018l-0.022,-0.006l-0.072,-0.035l-0.04,-0.003l-0.029,0.012l-0.068,-0.01l-0.036,-0.012l-0.008,-0.028l0.022,-0.053Z M743.685,291.696l0.015,-0.064l0.018,-0.014l0.018,0.006l-0.007,0.025l0.01,0.025l-0.003,0.026l-0.017,0.014l-0.024,-0.003l-0.011,-0.015Z M743.389,291.46l0.017,0.008l-0.003,0.014l-0.057,0.015l-0.024,0.022l-0.019,-0.007v-0.021l0.011,-0.014 l0.075,-0.018Z M743.355,291.081v-0.015l0.018,-0.021 h0.012v0.018l-0.003,0.017 l-0.015,0.007l-0.012,-0.006Z M738.09,294.172l0.017,-0.009l0.023,0.009l0.01,0.014l-0.01,0.014l-0.026,-0.005l-0.014,-0.023Z M737.742,294.634l0.017,-0.019l0.144,-0.024l0.179,-0.007l0.075,0.045l0.012,0.035l-0.019,0.031l0.005,0.033l0.021,0.03l-0.005,0.036l-0.068,0.033l-0.035,-0.002l-0.028,-0.031l-0.155,-0.069l-0.012,-0.028l-0.023,-0.007l-0.026,0.009l-0.059,-0.024l-0.024,-0.04Z M740.034,297.03l0.019,-0.028v-0.023l0.012,-0.017h0.016l0.003,0.052l-0.01,0.023l-0.054,0.03l-0.01,-0.009l0.024,-0.028Z M739.827,296.837l0.016,-0.007l0.026,0.014v0.014l-0.019,0.005l-0.024,-0.01l0.002,-0.016Z M740.086,296.552l-0.017,0.038v0.047l-0.012,0.007l-0.038,-0.026l-0.014,-0.038l0.016,-0.012l0.016,0.007l0.014,-0.01l0.007,-0.017l0.017,-0.007l0.012,0.012Z M740.072,296.745l0.023,0.016l-0.007,0.014l-0.031,0.002l-0.016,-0.014l0.003,-0.014l0.028,-0.003Z M740.088,296.806l0.009,-0.017l0.014,-0.002l0.012,0.012l-0.002,0.014l-0.019,0.002l-0.014,-0.009Z M740.42,296.755h0.019l0.009,0.006l-0.01,0.012h-0.023l-0.005,-0.009 l0.009,-0.009Z M740.465,296.609l0.012,-0.009h0.012l0.003,0.019l-0.012,0.021l-0.014,-0.002l-0.002,-0.03Z M740.9,298.594l0.018,0.008v0.034l-0.021,0.013l-0.026,-0.008l0.005,-0.029l0.023,-0.018Z M741.108,298.917l0.016,-0.018l0.018,-0.005l0.018,0.013l-0.008,0.021l-0.026,0.008l-0.018,-0.018Z M740.501,299.603l-0.016,-0.024l0.012,-0.007l0.03,0.017l0.017,0.028l-0.012,0.006l-0.031,-0.02Z M740.677,300.692l0.005,-0.042l0.026,-0.01l0.028,0.005l0.005,0.023l-0.017,0.03l-0.024,0.005l-0.023,-0.01Z M740.435,300.465l0.01,-0.096l0.03,-0.052l0.007,-0.05l0.026,-0.003l0.043,0.03l0.012,0.043l-0.005,0.054l0.016,0.059l0.054,0.045l0.007,0.057l-0.014,0.049l-0.03,0.01l-0.035,-0.024l-0.012,-0.035l-0.05,-0.026l-0.038,-0.009l-0.021,-0.052Z M740.814,300.791l0.007,0.019l-0.01,0.012l-0.012,-0.002l-0.003,-0.012l0.005,-0.014l0.014,-0.003Z M740.764,300.871l0.007,-0.012l0.016,-0.005l0.012,0.007l-0.005,0.014l-0.016,0.005l-0.014,-0.009Z M740.758,300.979l0.01,-0.019l0.017,-0.007l0.012,0.009l-0.007,0.014l-0.021,0.012l-0.012,-0.009Z M739.587,300.878l0.002,0.023l-0.012,0.007l-0.014,-0.019v-0.023l0.014,-0.003l0.01,0.016Z M739.53,300.993l0.014,0.007l-0.005,0.024l-0.012,0.005l-0.014,-0.009v-0.017l0.017,-0.01Z M739.257,300.758l0.012,-0.017l0.021,-0.009l0.023,0.01v0.023l-0.014,0.009h-0.028l-0.014,-0.016Z M739.222,300.726l0.003,-0.012l0.015,-0.011h0.017l0.001,0.011 l-0.021,0.015l-0.015,-0.003Z M739.081,300.709l0.014,-0.028l0.078,-0.051h0.025l0.014,0.024l-0.018,0.079l-0.019,0.011l-0.051,0.008l-0.03,-0.007l-0.011,-0.036Z M736.634,293.315l0.019,-0.061l0.231,-0.182l0.24,-0.103l0.136,0.003l0.092,-0.026l0.165,-0.08l0.158,-0.014l0.016,0.014l0.002,0.024l0.023,0.028l0.033,0.003l0.031,0.024l-0.003,0.129l-0.028,0.096l0.01,0.076l0.043,0.017l0.057,-0.04l0.059,-0.012l0.014,0.021l-0.035,0.043l-0.057,0.043l-0.075,0.017l-0.038,0.017l-0.106,-0.003l-0.255,0.071l-0.045,0.028l-0.076,0.007l-0.061,-0.01l-0.05,0.007l-0.021,0.019l-0.033,0.002l-0.045,-0.009l-0.057,0.002l-0.054,0.033l-0.043,-0.009l-0.033,-0.057l-0.097,-0.056l-0.094,-0.019l-0.021,-0.045Z M742.365,306.825l-0.023,0.04l-0.019,0.007l-0.009,-0.012l0.023,-0.036l0.017,-0.01l0.01,0.012Z M742.339,306.468l-0.014,0.016l-0.023,0.003l-0.002,-0.014l0.016,-0.019l0.017,-0.002l0.005,0.016Z  M774.639,311.39l0.026,0.028h0.036l0.042,-0.026l0.063,-0.005l0.039,-0.034l0.075,-0.01l0.045,0.008l0.028,0.049l-0.002,0.039l-0.037,0.047l-0.015,0.076l0.02,0.028l0.071,-0.013l0.099,0.019l0.052,0.039l0.039,0.007l0.031,-0.015l0.084,0.018l0.096,0.096l0.029,0.092l0.031,0.049h0.031l0.026,-0.021l0.04,-0.208l-0.008,-0.081l0.013,-0.044v-0.084l0.047,-0.106l0.054,-0.045l0.167,-0.041l0.06,0.005l0.047,0.039l0.034,-0.003l0.031,-0.031l0.011,-0.039l-0.047,-0.073l0.008,-0.073l0.02,-0.026l0.045,-0.003l0.125,0.076l0.049,-0.005l0.078,-0.063l0.032,-0.109l0.018,-0.029l0.003,-0.039l-0.021,-0.029l-0.003,-0.044l0.037,-0.034l0.002,-0.044l-0.047,-0.071l-0.002,-0.086l0.028,-0.06l0.003,-0.052l-0.063,-0.065l0.016,-0.062l0.081,-0.034l0.013,-0.037l-0.034,-0.052v-0.044l0.037,-0.018l0.106,0.062l0.097,0.013l0.034,0.026l0.036,-0.005l0.021,-0.05l0.06,-0.052l0.042,-0.062l0.104,-0.008l0.07,0.065l0.026,-0.003l0.008,-0.023l0.034,-0.005l0.169,0.065l0.037,-0.003l0.013,-0.036l-0.008,-0.029l0.013,-0.018l0.115,0.039l0.075,-0.021l0.053,-0.049l0.005,-0.042l-0.045,-0.078l0.003,-0.029l0.029,-0.042l-0.011,-0.026l-0.099,-0.007l-0.026,-0.024l0.003,-0.042l0.015,-0.054l-0.031,-0.045l-0.107,-0.005l-0.06,0.034l-0.028,-0.016l0.008,-0.057l0.041,-0.023l0.003,-0.032l-0.031,-0.007l-0.024,-0.037l0.021,-0.047l-0.016,-0.039l-0.065,-0.01l-0.018,-0.084l-0.042,-0.031l-0.039,-0.102l0.005,-0.065l-0.041,-0.122l0.005,-0.068l0.094,-0.086l0.047,-0.183l0.01,-0.083l-0.039,-0.062l-0.018,-0.191l0.01,-0.039l0.044,-0.018l0.073,-0.07l0.029,-0.058l0.042,-0.044l0.008,-0.07l-0.04,-0.026l-0.018,-0.063l0.013,-0.037l0.078,-0.091l0.019,-0.054l0.028,-0.024l0.047,-0.023l0.026,-0.05l-0.008,-0.049l-0.02,-0.034l0.02,-0.013l0.063,0.018h0.099l0.057,0.023l0.086,0.003l0.131,0.089l0.052,0.018l0.101,0.002l0.217,0.066h0.065l0.047,-0.024l0.034,0.003l0.028,0.026l0.06,0.005l0.099,0.052l0.068,0.008l0.013,0.031l-0.018,0.047l0.018,0.021l0.057,0.01l0.102,0.008l0.039,0.037l-0.023,0.078l-0.037,0.034l-0.049,0.013l-0.016,0.042l0.011,0.075l0.031,0.018h0.036l0.055,0.026l0.034,0.053l0.06,0.028l0.044,-0.002l0.034,-0.04l0.018,-0.088l0.037,-0.011l0.034,0.019h0.021l0.039,-0.026l0.031,0.002l0.049,0.058l0.034,0.002l0.141,-0.06h0.06l0.198,0.032l0.031,-0.019l0.282,0.065l0.164,0.047h0.052l0.047,0.016l0.042,0.031h0.088l0.045,-0.026l0.039,-0.055v-0.062l0.031,-0.037l0.453,-0.203l0.123,-0.096l0.044,-0.011l0.05,0.024l0.039,-0.011l0.036,-0.044l0.042,-0.005l0.073,0.023l0.18,0.011l0.036,-0.013l0.039,-0.042l0.042,-0.021l0.065,-0.008l0.177,-0.08l0.073,-0.008l0.042,-0.016l0.104,-0.091l0.05,-0.024l0.068,-0.002l0.12,-0.034l0.088,-0.003l0.034,-0.036l0.003,-0.058l0.028,-0.033l0.055,-0.024l0.047,0.003l0.034,-0.013l0.01,-0.029l0.037,-0.013l0.047,0.003l0.044,-0.016l0.06,-0.047l0.031,-0.01l0.037,0.002l0.047,-0.015l0.033,-0.042l0.034,-0.011l0.099,0.008l0.05,-0.01l0.065,-0.05l0.044,-0.005l0.065,0.031l0.206,0.055l0.092,0.011l0.106,-0.011l0.081,0.008l0.48,0.19l0.12,0.063l0.031,0.06l0.036,0.013l0.045,-0.005l0.023,0.013l0.008,0.067l0.128,0.094l0.148,0.136l0.224,0.172l0.076,0.026l0.597,0.015l0.409,-0.039l0.169,0.024l0.25,0.086l0.258,0.065l0.052,-0.001l0.577,-0.101l0.437,-0.031l0.381,-0.091l0.187,-0.011l0.227,-0.096l0.065,-0.013l0.352,-0.026l0.094,-0.034l0.078,-0.055l0.243,-0.081l0.26,-0.109l0.102,-0.013l0.062,-0.029l0.099,-0.078l0.17,-0.073l0.195,-0.021l0.089,-0.031l0.112,-0.094l0.094,-0.052l0.154,-0.068l0.195,-0.112l0.07,-0.026l0.065,-0.047l0.024,-0.062l0.06,-0.084l0.075,-0.034l0.378,-0.041l0.066,-0.024l0.172,-0.114l0.039,-0.019l0.073,0.003l0.044,-0.018l0.266,-0.162l0.133,-0.029l0.06,0.008l0.026,-0.01l0.023,-0.057l0.021,-0.008l0.039,0.02l0.056,0.003l0.02,-0.024h0.035l0.021,0.052l0.038,0.017l0.045,-0.01l0.039,-0.059l0.111,-0.028l0.17,0.004l0.216,0.062l0.093,-0.003l0.379,0.09l0.104,-0.004l0.091,0.011l0.177,0.09l0.063,0.007l0.1,-0.035h0.316l0.08,0.018l0.042,-0.021l0.5,0.007l0.067,-0.024l0.086,-0.011l0.157,-0.08l0.073,-0.017l0.069,-0.004l0.038,-0.024l0.084,-0.01l0.146,0.007l0.316,-0.053l0.149,-0.048l0.087,-0.007l0.268,-0.073l0.097,0.007l0.063,-0.018l0.08,-0.072l0.076,-0.021l0.09,0.003l0.198,-0.121l0.046,-0.07l0.305,-0.271l0.042,-0.08l0.049,-0.038l0.045,0.007l0.003,0.035l-0.034,0.055l0.003,0.052l0.042,0.021l0.073,-0.017l0.08,0.021l0.055,-0.028l0.032,0.007l0.017,0.059l0.181,0.139l0.007,0.055l0.007,0.046l-0.035,0.013l-0.056,0.087l0.004,0.094l0.09,0.143l0.01,0.062l-0.006,0.052l0.024,0.025l0.045,-0.059l0.045,-0.018l0.073,0.031l0.059,-0.017l0.028,-0.045l0.174,-0.056l0.08,0.014l0.066,-0.007l0.028,-0.031l0.135,-0.014l0.09,0.021l0.025,-0.024l-0.007,-0.049l0.052,-0.09l0.076,-0.098l-0.003,-0.038l0.024,-0.031l0.045,-0.011l0.07,-0.097l0.01,-0.076l0.045,-0.042l0.046,0.007l0.031,-0.021v-0.031l0.028,-0.035l-0.025,-0.059l0.025,-0.028h0.083l0.059,-0.038l0.014,-0.07l0.031,-0.045l0.052,-0.017l0.08,-0.104l0.08,-0.028l0.091,0.045l0.003,0.076l0.052,0.032h0.042l0.174,0.069l0.163,0.038l0.083,0.011l0.039,-0.038l0.086,-0.007l0.056,-0.039l0.028,-0.048l0.038,-0.024l0.094,-0.007l0.062,-0.039h0.212l0.105,0.021l0.121,0.014l0.077,0.045l0.08,-0.007l0.114,0.077l0.025,0.055l0.1,0.052l0.066,-0.003l0.011,-0.042l0.052,-0.045l0.108,0.004l0.045,0.069l0.146,0.097l0.219,0.084l0.021,0.066l0.135,0.048l0.045,-0.027l0.132,-0.021l0.07,0.017l0.003,0.045l0.045,0.014l0.049,-0.017l0.042,0.01l0.028,0.07l0.059,0.003l0.034,-0.021l0.08,-0.007l0.07,-0.038h0.201l0.174,0.028l0.08,0.031l0.066,0.108l0.028,-0.003l0.014,-0.073l0.038,-0.042l0.087,-0.007l0.069,0.021l0.105,-0.021l0.118,-0.191l0.003,-0.07l0.045,-0.038l0.073,-0.014l0.039,-0.038l0.045,-0.073l0.073,-0.021l0.104,0.018l0.056,0.034l0.093,0.007l0.063,-0.024l0.073,0.007l0.274,0.149l0.084,0.007l0.055,0.063l0.004,0.062l0.031,0.028l0.056,0.024l0.003,0.101l-0.021,0.038l0.018,0.049l0.048,0.042l-0.041,0.101l-0.08,0.027l-0.052,-0.02l-0.056,0.024l-0.125,0.215l0.017,0.111l0.139,0.112l0.011,0.059l-0.038,0.045l0.031,0.069l0.042,0.014l0.045,0.045v0.06l0.059,0.031l0.069,0.01l0.066,0.063l0.025,-0.021l-0.014,-0.031l0.017,-0.032l0.049,-0.01l0.028,-0.028l0.003,-0.035l0.101,-0.107l0.007,-0.035l-0.028,-0.049l0.017,-0.041l0.084,-0.025l0.059,0.021l0.073,-0.003l0.09,-0.07l0.084,-0.021l0.187,-0.107l0.014,-0.059l0.042,-0.039l0.062,0.004l0.032,-0.018l-0.004,-0.073l0.087,-0.09l0.073,-0.017l0.108,-0.084l0.08,0.004l0.083,0.062l0.045,0.004l0.028,-0.018l0.087,0.007l0.108,0.032l0.055,-0.004l0.042,0.018l0.003,0.041l0.045,0.042l0.025,-0.038l-0.018,-0.087l-0.055,-0.045l-0.038,-0.209l0.08,-0.094l0.059,-0.003l0.048,-0.066l0.011,-0.07l-0.039,-0.086l-0.118,-0.101l-0.066,-0.004l-0.097,-0.083l-0.007,-0.08l-0.042,-0.045l-0.093,-0.028l-0.084,0.017l-0.035,-0.031l-0.014,-0.059l-0.059,-0.059l-0.007,-0.056l-0.045,-0.034l-0.062,0.007l-0.073,-0.028l-0.014,-0.049l0.021,-0.09l0.062,-0.032v-0.045l-0.052,-0.038v-0.045l0.049,-0.021l0.035,-0.111l-0.035,-0.038l0.003,-0.039l0.032,-0.01v-0.042l-0.035,-0.021l-0.004,-0.045l0.028,-0.048l-0.007,-0.052l-0.066,-0.046l-0.069,-0.093l0.014,-0.091l0.184,-0.16v-0.087l-0.098,-0.111l-0.017,-0.059l-0.045,-0.028h-0.035l-0.028,-0.01l-0.027,-0.042l-0.108,-0.024l-0.049,0.035l-0.132,0.017l-0.031,0.031l-0.08,-0.017l-0.017,-0.042l0.034,-0.1l-0.031,-0.014l-0.052,0.02l-0.049,-0.013l-0.014,-0.049l-0.038,-0.021l-0.038,-0.007l-0.014,-0.031l0.045,-0.056v-0.035l-0.031,-0.052l-0.066,-0.017l-0.052,0.01l-0.195,-0.083l-0.028,0.021l0.025,0.038l-0.035,0.014l-0.031,-0.028l-0.046,-0.003l-0.038,0.014l-0.128,-0.025l-0.073,-0.062l-0.007,-0.045l0.035,-0.119l0.034,-0.02l0.014,-0.063l-0.035,-0.059l0.021,-0.042l0.038,-0.038l0.094,-0.184l0.052,-0.024l0.035,-0.056l0.007,-0.066l0.042,-0.083l0.038,-0.025l0.035,-0.073l0.069,-0.017l0.035,-0.045l-0.049,-0.087l0.032,-0.038l0.045,0.003l0.055,-0.035l0.039,-0.212l0.038,-0.045l-0.004,-0.066l-0.031,-0.076l0.028,-0.063l0.257,-0.201l0.059,-0.011l0.035,-0.045l-0.028,-0.045l0.021,-0.031l0.031,-0.011l0.007,-0.042l-0.076,-0.055l-0.056,0.003l-0.045,-0.027l-0.014,-0.066l-0.049,-0.028l-0.205,0.1h-0.055l-0.035,-0.059l-0.042,-0.013l-0.073,0.034l-0.076,-0.017l-0.035,-0.056l0.004,-0.048l0.048,-0.039l-0.003,-0.09l-0.056,-0.045l-0.003,-0.042l0.031,-0.028l0.014,-0.111l0.042,-0.028v-0.09l-0.042,-0.038l-0.01,-0.101l0.01,-0.125l0.038,-0.028l0.007,-0.048l-0.031,-0.046l0.003,-0.111l-0.052,-0.042l-0.125,-0.048v-0.038l0.031,-0.025v-0.076l-0.066,-0.139l0.004,-0.056l0.076,-0.062l0.025,-0.118l-0.004,-0.066l0.042,-0.091l0.042,-0.017l0.01,-0.038l-0.059,-0.066v-0.053l-0.073,-0.052l-0.059,0.021l-0.059,-0.035l-0.004,-0.055l-0.041,-0.049l-0.063,-0.014l-0.028,-0.055l0.035,-0.042l-0.01,-0.052l-0.063,-0.028l-0.028,-0.052l0.031,-0.035l-0.01,-0.035l-0.038,-0.013l-0.014,-0.049l0.031,-0.031l-0.007,-0.039l-0.055,-0.031l-0.011,-0.038l0.032,-0.056l0.104,-0.021v-0.048l-0.049,-0.049l0.007,-0.048l0.024,-0.021l-0.003,-0.039l-0.038,-0.034l0.007,-0.059l0.093,-0.025l0.007,-0.055l-0.041,-0.073v-0.056l-0.087,-0.142l-0.125,-0.084l-0.084,-0.007l-0.09,-0.052l-0.035,-0.083l0.038,-0.091l-0.024,-0.034l-0.042,-0.007l-0.02,-0.035l0.083,-0.118l-0.024,-0.042l-0.063,-0.01l-0.024,-0.066l0.031,-0.056l-0.035,-0.066l-0.128,-0.118l-0.021,-0.056l0.028,-0.031h0.034l0.028,-0.021l-0.024,-0.062l0.035,-0.045h0.128l0.07,0.038l0.066,0.01l0.003,0.045h0.025l0.041,-0.041l0.105,-0.004l0.079,-0.066l0.098,0.011l0.045,0.055l0.038,0.024l0.045,-0.01l0.045,0.024l0.046,0.063l0.048,0.01l0.059,-0.055l0.153,-0.035l0.073,-0.052l0.17,-0.028l0.035,-0.09l-0.014,-0.063l-0.062,-0.083l-0.004,-0.052l0.091,-0.101l-0.004,-0.084l-0.042,-0.048v-0.136l0.084,-0.055l0.125,-0.143l0.035,-0.132l-0.018,-0.125l-0.055,-0.066l0.535,-0.431l0.059,0.08l0.003,0.08l0.084,0.083l0.062,0.056l0.087,0.01l0.063,-0.006l0.132,0.09l0.05,0.108l0.094,0.06l0.06,0.036l0.004,0.06l0.025,0.021l0.036,-0.076l-0.018,-0.049h-0.037l-0.013,-0.026l0.019,-0.045l-0.019,-0.047l-0.052,-0.031l-0.07,-0.07l-0.005,-0.047l-0.047,0.005l-0.026,-0.021l0.002,-0.083l-0.026,-0.021l-0.036,0.008l-0.034,-0.026l-0.021,-0.081l-0.047,-0.023h-0.044l-0.018,-0.027l0.033,-0.052l-0.039,-0.028l-0.039,0.023l-0.052,-0.005l-0.151,-0.097v-0.046l-0.029,-0.013l-0.039,0.023l-0.031,-0.026l0.01,-0.107l-0.036,-0.049l-0.044,-0.008l-0.073,-0.073l-0.008,-0.076l-0.05,-0.083l-0.062,-0.024l-0.131,-0.174l-0.065,-0.039l-0.031,0.01l-0.026,-0.013l-0.018,-0.036l-0.086,-0.05l-0.024,-0.034l-0.039,-0.021l-0.086,0.008l-0.036,-0.008l-0.068,-0.075l-0.149,-0.071l-0.047,0.008l-0.033,-0.005l-0.024,-0.037l-0.057,-0.013l-0.185,0.013l-0.016,0.037l-0.026,0.005l-0.039,-0.021l-0.031,0.008l-0.008,0.031l-0.05,0.013l-0.044,-0.01l-0.117,0.003l-0.039,-0.019h-0.029l-0.021,0.019l-0.031,0.005l-0.034,-0.024l-0.086,0.003l-0.044,0.029l-0.144,0.01l-0.07,-0.021l-0.05,0.005l-0.041,0.042h-0.058l-0.088,-0.015l-0.107,-0.006l-0.151,-0.052l-0.042,-0.036l-0.065,-0.006l-0.034,-0.02l-0.023,-0.047l-0.141,-0.047l-0.06,-0.05l-0.094,-0.005l-0.052,0.018l-0.125,-0.067h-0.042l-0.026,-0.013l-0.008,-0.037l-0.06,-0.039l-0.02,-0.099l0.015,-0.06l0.219,-0.057l-0.01,-0.047l-0.076,-0.091l-0.125,-0.105l0.01,-0.036l0.071,-0.011l0.005,-0.119l-0.06,-0.06l-0.075,-0.006l-0.047,-0.065l-0.019,-0.088l-0.062,-0.05l-0.058,-0.12l0.037,-0.153l0.042,-0.055l0.003,-0.111l-0.184,-0.15l-0.094,-0.028l0.007,-0.076l0.24,-0.15l0.094,-0.003l0.034,-0.063l-0.024,-0.086l0.049,-0.073l0.094,-0.042l0.152,-0.24l-0.017,-0.073l0.045,-0.066l0.059,-0.021l0.035,-0.066l-0.045,-0.121v-0.122l-0.111,-0.344l-0.118,-0.111l-0.021,-0.282l0.01,-0.073l-0.007,-0.055l-0.34,-0.247l-0.198,-0.083l-0.119,-0.011l-0.09,-0.059l-0.024,-0.094l0.021,-0.031l-0.004,-0.059l-0.076,-0.083l0.007,-0.091l0.076,-0.073l-0.099,-0.233l-0.248,-0.111h-0.171l-0.09,0.045l-0.08,0.004l-0.108,0.052l-0.1,0.031l-0.028,-0.01l0.017,-0.049l-0.114,-0.212l-0.021,-0.069l-0.063,-0.021l-0.069,0.031l-0.094,0.004l-0.025,-0.021l0.046,-0.063l0.121,-0.021l0.125,-0.073l-0.01,-0.055l-0.108,-0.031l-0.076,0.003l-0.108,-0.031l-0.125,-0.17l-0.177,-0.073l-0.084,0.02l-0.048,-0.02l-0.063,-0.132l-0.118,-0.112l-0.014,-0.066l-0.142,-0.107l-0.07,-0.014l-0.042,-0.039l0.007,-0.055l-0.048,-0.024l-0.073,0.02l-0.021,0.098l-0.052,0.017l-0.139,-0.083l-0.038,-0.115l0.073,-0.174l0.048,-0.041l0.007,-0.077l-0.059,-0.021l-0.101,0.004l-0.069,0.038l-0.087,-0.021l-0.052,-0.045l-0.136,-0.024l-0.09,0.003l-0.066,0.038l-0.188,0.025l-0.097,0.073l-0.021,0.052l0.014,0.034l-0.014,0.049l-0.035,0.035l-0.007,0.038l0.032,0.024l-0.014,0.035l-0.073,0.031l-0.122,0.094l-0.01,0.045l0.041,0.091l-0.017,0.031l-0.087,-0.007l-0.062,0.021l-0.084,0.003l-0.128,-0.066l-0.045,-0.048l-0.126,-0.025h-0.118l-0.09,-0.02l-0.045,-0.049l-0.118,-0.045l-0.178,-0.021l-0.048,0.024h-0.045l-0.059,-0.073l-0.063,-0.01l-0.069,0.031h-0.105l-0.069,-0.021l-0.111,0.007l-0.105,0.056l-0.163,-0.025l-0.049,-0.072l-0.104,-0.021l-0.115,0.027l-0.121,0.143l-0.042,0.073l-0.149,0.118l-0.066,0.028l-0.052,-0.007l-0.066,-0.052l-0.028,-0.049l-0.063,-0.028l-0.18,-0.017l-0.053,-0.024l0.018,-0.046l-0.052,-0.034l-0.115,0.045l-0.118,-0.007l-0.073,-0.077l-0.111,-0.031l-0.042,-0.052l-0.035,-0.003l-0.041,0.02l-0.049,-0.031l-0.087,0.157l-0.104,0.059l-0.164,0.149l-0.163,0.226l-0.083,0.038l-0.167,0.017l-0.268,0.136l-0.09,0.094l-0.236,0.142l-0.077,0.011l-0.087,0.052l-0.031,0.069l-0.243,0.167l-0.222,0.097l-0.143,0.021l-0.094,0.059l-0.052,-0.003l-0.045,-0.021h-0.129l-0.267,0.087l-0.132,0.097l-0.132,0.188l-0.129,0.08l-0.153,0.024l-0.198,0.101h-0.055l-0.084,0.028l-0.069,0.059h-0.077l-0.055,-0.038l-0.112,-0.007l-0.201,0.059l-0.163,0.007l-0.112,0.062l-0.18,0.177l-0.268,0.164l-0.205,0.069l-0.229,-0.003l-0.136,-0.045l-0.118,-0.122l-0.247,-0.038l-0.201,0.048l-0.216,-0.01l-0.086,-0.035l-0.032,-0.066l-0.17,-0.083l-0.163,-0.021l-0.063,-0.038l-0.094,-0.004l-0.107,0.056h-0.091l-0.226,-0.077l-0.097,-0.055l-0.045,-0.07l-0.212,-0.174l-0.108,-0.052l-0.125,-0.01l-0.042,-0.021l-0.066,0.004l-0.184,0.146l-0.306,0.09l-0.145,-0.021l-0.098,-0.073l-0.107,-0.017l-0.077,0.007l-0.177,0.107l-0.327,0.059l-0.201,-0.01l-0.105,-0.014l-0.104,0.021l-0.118,0.087l-0.135,0.048l-0.091,-0.003l-0.09,0.035l-0.264,0.191l-0.077,0.007l-0.132,-0.021l-0.045,-0.052l-0.104,-0.018l-0.084,0.039l-0.059,0.073l-0.198,0.125l-0.149,0.021l-0.063,-0.011l-0.18,0.011l-0.08,-0.032h-0.073l-0.052,0.045h-0.059l-0.139,-0.048l-0.07,-0.059l-0.083,-0.032h-0.122l-0.104,0.018l-0.091,-0.004l-0.1,-0.048l-0.306,-0.073l-0.316,-0.049l-0.362,-0.003l-0.069,-0.035l-0.025,-0.073l-0.055,-0.038l-0.129,-0.021l-0.087,-0.049l-0.086,-0.142l-0.004,-0.073l0.031,-0.108l-0.01,-0.038l-0.122,-0.014l-0.125,0.017l-0.073,-0.014l-0.028,-0.038l-0.062,-0.003l-0.08,0.059l-0.118,0.17l-0.035,0.097l-0.073,0.07l-0.153,0.042l-0.128,-0.014l-0.098,-0.059l-0.01,-0.049l-0.052,-0.052l-0.198,-0.073l-0.035,-0.052l-0.125,-0.059l-0.222,-0.032l-0.056,-0.034l-0.014,-0.056l-0.045,-0.035l-0.302,0.004l-0.247,-0.021l-0.268,-0.09l-0.107,-0.07l-0.032,-0.083l-0.014,-0.212l-0.017,-0.059l-0.066,-0.056l-0.334,-0.184l-0.166,-0.073l-0.379,-0.094l-0.309,-0.035l-0.063,-0.038l-0.062,-0.003l-0.084,0.055l-0.066,0.122l-0.09,0.101l-0.07,0.118l-0.205,0.139l-0.142,0.038l-0.212,-0.004l-0.07,-0.031l-0.017,-0.038l-0.052,-0.042l-0.08,-0.021l-0.038,-0.055l0.003,-0.045l-0.014,-0.063l-0.062,-0.045l-0.066,-0.01l-0.15,-0.067l-0.073,-0.052l-0.059,-0.093l-0.215,-0.233l-0.118,-0.101l-0.07,-0.136l-0.007,-0.073l0.045,-0.104l0.011,-0.139l-0.052,-0.24l-0.059,-0.125l-0.119,-0.17l-0.128,-0.076l-0.049,-0.004l-0.035,-0.014l-0.017,-0.048l-0.076,-0.049l-0.094,-0.049h-0.049l-0.069,0.042l-0.341,0.156l-0.479,0.16l-0.403,0.091l-0.254,-0.004l-0.219,-0.062l-0.129,-0.08l-0.052,-0.063l-0.052,-0.024l-0.069,-0.007l-0.372,-0.115l-0.094,-0.048l-0.014,-0.046l-0.059,-0.076l-0.087,-0.038l-0.08,-0.118v-0.06l-0.034,-0.048l-0.063,-0.038l-0.056,-0.084l-0.062,-0.031l-0.056,-0.063l-0.003,-0.066l-0.018,-0.041l-0.052,-0.037l-0.052,-0.141l0.011,-0.161l0.046,-0.063l0.027,-0.104l0.072,-0.073l0.089,-0.01l0.151,0.026l0.037,-0.037l-0.052,-0.073l-0.089,-0.005l-0.089,0.042l-0.166,0.031l-0.183,-0.042l-0.031,-0.052l0.01,-0.062l-0.036,-0.073l-0.13,-0.078l-0.172,-0.006l-0.037,0.032l-0.005,0.073l-0.151,0.218l-0.224,0.209l-0.214,0.094l-0.422,0.041l-0.329,-0.01l-0.276,-0.073l-0.031,-0.047l-0.052,-0.005l-0.063,0.026h-0.099l-0.141,0.047l-0.245,0.047l-0.172,0.005l-0.437,-0.068l-0.277,-0.073l-0.469,-0.015l-0.448,0.031l-0.516,-0.016l-0.386,-0.041l-0.203,-0.058l-0.599,-0.067h-0.199l-0.166,0.041l-0.146,0.094l-0.37,0.13l-0.152,0.032l-0.338,0.13l-0.245,0.156l-0.282,0.078l-0.213,0.037l-0.115,-0.01l-0.287,0.057l-0.104,0.052l-0.083,0.021l-0.219,-0.016l-0.079,0.031l-0.036,0.047l-0.057,0.016h-0.099l-0.089,0.042l-0.12,0.109l-0.104,0.037l-0.141,0.099l-0.146,0.015l-0.156,0.084l-0.115,0.021l-0.214,0.146l-0.046,0.067l-0.131,0.105l-0.021,0.072l-0.135,0.105l-0.125,0.052l-0.204,0.042l-0.109,0.057l-0.063,0.083l-0.072,0.042l-0.178,0.047l-0.302,0.099l-0.281,0.177l-0.24,0.177l-0.177,0.076l-0.116,0.035l-0.07,0.065l-0.12,0.042l-0.097,-0.003l-0.185,0.06l-0.099,0.052l-0.044,0.063l-0.031,0.02l-0.052,-0.005l-0.053,0.016l-0.028,0.031l-0.073,0.016l-0.05,0.052l-0.002,0.088l0.026,0.016l0.039,-0.01l0.039,0.013l-0.016,0.065l-0.049,0.049l-0.013,0.123l0.023,0.031l-0.002,0.031l-0.107,0.146l-0.084,0.06l-0.057,0.071l-0.069,0.069l-0.133,0.068l-0.287,0.086l-0.073,-0.003l-0.334,0.024l-0.091,0.031l-0.13,0.021l-0.534,0.005l-0.438,-0.044l-0.138,-0.05l-0.29,-0.138l-0.192,-0.034l-0.285,-0.026l-0.271,-0.06l-0.284,-0.104l-0.114,-0.076l-0.099,-0.028l-0.071,-0.003l-0.044,-0.008l-0.047,-0.023l-0.042,0.01l-0.02,0.058l-0.063,0.026h-0.044l-0.021,0.028l0.008,0.063l-0.024,0.016l-0.029,-0.011l-0.054,0.011l-0.032,0.054l-0.036,0.006l-0.057,0.041l-0.037,0.008l-0.031,-0.01h-0.128l-0.023,0.018l-0.032,0.002l-0.02,-0.013l-0.039,0.003l-0.024,0.018h-0.034l-0.041,-0.026l-0.113,-0.002l-0.08,0.031l-0.081,-0.008l-0.042,-0.026l-0.302,-0.013l-0.071,0.021l-0.127,-0.011l-0.209,-0.075l-0.117,-0.005l-0.047,0.018l-0.047,-0.005l-0.036,-0.019l-0.105,-0.013l-0.125,-0.036l-0.153,-0.021l-0.099,0.016l-0.305,-0.063l-0.222,-0.078l-0.18,-0.039l-0.093,0.01l-0.269,-0.052l-0.068,-0.034l-0.14,-0.013l-0.063,0.018l-0.026,0.032l-0.091,0.008l-0.029,-0.016l-0.036,0.005l-0.154,0.089l-0.026,0.057l-0.031,0.034l-0.073,0.018l-0.037,0.05l-0.021,0.083l0.018,0.034l0.058,0.029l0.002,0.057l-0.031,0.055l-0.044,0.008l-0.031,0.033l-0.006,0.071l-0.028,0.049l-0.016,0.11l-0.049,0.047l-0.092,0.044l-0.026,0.052l0.008,0.07l0.016,0.055l0.028,0.037l0.034,0.002l0.026,0.021l-0.002,0.024l0.018,0.013h0.039l0.107,0.049l0.086,0.065l0.128,0.162l0.164,0.088h0.068l0.096,0.055l0.062,0.008l0.152,0.091l0.005,0.032l-0.06,0.02l-0.008,0.029l0.026,0.021l-0.013,0.026l-0.036,0.01l-0.026,0.024v0.034l0.023,0.002l0.044,-0.031l0.196,-0.005l0.057,0.026l0.011,0.055l-0.024,0.026v0.023l0.044,0.021l-0.002,0.07l0.039,0.039l0.07,0.006l0.068,-0.006l0.055,-0.033l0.065,-0.024h0.062l0.058,-0.008l0.07,-0.034l0.078,0.006l0.063,0.047l0.055,0.002l0.049,-0.013l0.112,-0.005l0.11,-0.039l0.109,-0.003l0.3,0.026l0.12,0.05l0.07,0.086l0.068,0.008l0.094,-0.034l0.099,-0.003l0.117,-0.034l0.159,-0.008l0.076,0.024l0.01,0.062l-0.024,0.079l-0.07,0.026l-0.135,0.002l-0.081,-0.039h-0.11l-0.034,-0.015h-0.036l-0.057,0.028l-0.146,0.011l-0.477,0.114l-0.198,0.019l-0.065,-0.016l-0.058,-0.097l-0.026,-0.005l-0.023,0.013l-0.034,-0.013l-0.003,-0.026l0.024,-0.018l0.007,-0.037l-0.013,-0.044h-0.023l-0.034,0.05l-0.088,0.057l-0.071,0.104l-0.101,0.021l-0.079,-0.005l-0.067,-0.044l-0.055,0.002l-0.05,0.06l-0.125,0.076l-0.198,0.057l-0.425,0.01l-0.031,-0.018h-0.031l-0.058,0.06l-0.208,0.011l-0.052,-0.013l-0.274,0.015l-0.068,0.045l-0.08,0.104l-0.196,0.112l-0.198,0.078l-0.081,0.008l-0.096,0.065l-0.052,0.096l0.013,0.05l0.039,0.016l0.162,0.015l0.096,0.052l0.06,0.063l0.104,0.062l0.203,0.045l0.084,-0.003l0.122,-0.042l0.055,-0.023l0.115,-0.008l0.114,0.024l0.159,0.117l0.045,0.075l-0.029,0.029l-0.078,0.021l-0.081,-0.003l-0.057,0.026l-0.047,0.097v0.075l-0.052,0.042l-0.261,0.029l-0.18,0.005l-0.081,-0.023l-0.075,-0.084l-0.078,-0.015l-0.05,0.01l-0.06,-0.005l-0.075,-0.037l-0.115,-0.018l-0.159,0.023l-0.057,0.05l-0.063,0.013l-0.107,-0.005l-0.039,0.018l0.005,0.034l-0.047,0.013l-0.125,-0.003l-0.359,-0.117l-0.151,-0.023l-0.386,0.002l-0.193,-0.026l-0.662,0.016l-0.594,0.117l-0.128,0.065l-0.083,-0.005l-0.112,-0.078l-0.026,-0.073l0.041,-0.052l0.144,-0.071l0.031,-0.018l0.06,-0.008l0.161,-0.125l0.05,-0.096l-0.008,-0.031l-0.068,-0.029l-0.093,0.002l-0.066,-0.018l-0.148,-0.065l-0.18,-0.042l-0.133,-0.007l-0.031,0.026l-0.024,-0.003l-0.023,-0.026l-0.065,-0.003l-0.047,0.026h-0.042l-0.039,-0.044l-0.146,-0.008l-0.107,0.026l-0.07,0.065l-0.003,0.066l0.032,0.075l0.138,0.071l0.075,0.01l0.024,0.036l-0.029,0.053l0.011,0.047l0.096,0.049l0.052,0.047l0.029,0.057l0.039,0.003l0.015,-0.024l0.037,-0.007l0.188,0.07l-0.003,0.039l-0.094,0.047l-0.167,0.125l-0.075,0.083l-0.089,0.032l-0.115,-0.011l-0.039,-0.028h-0.054l-0.034,0.018h-0.073l-0.065,-0.013l-0.107,-0.06l-0.089,0.003l-0.164,0.096l-0.149,0.003l-0.224,-0.058l-0.234,-0.109l-0.258,-0.144l-0.063,-0.088l0.008,-0.047l0.047,-0.031l0.008,-0.039l-0.034,-0.105l-0.065,-0.054l-0.042,-0.063l-0.044,-0.003l-0.047,0.05l-0.107,0.026l-0.107,0.086h-0.052l-0.073,-0.042l-0.128,-0.018l-0.161,0.01l-0.094,0.06l-0.021,0.063l-0.034,0.06l-0.091,0.062l-0.253,0.021l-0.081,-0.018l-0.06,-0.057l-0.078,-0.011l-0.049,0.024h-0.047l-0.031,-0.016l-0.071,-0.002l-0.109,0.015l-0.157,-0.026l-0.14,0.031l-0.149,0.128l-0.031,0.05l-0.17,0.161l-0.031,0.06l-0.117,0.117h-0.086l-0.05,0.037l-0.02,0.07l-0.045,0.034l-0.034,0.078l-0.062,0.06l-0.131,0.071l-0.145,0.033l-0.086,-0.005l-0.042,0.008l-0.034,0.05v0.093l-0.01,0.094l0.026,0.084l-0.034,0.062l-0.052,0.024l-0.037,-0.008l-0.034,0.028l-0.005,0.068l-0.023,0.034l-0.034,0.133l-0.097,0.115l-0.172,0.078l-0.143,0.01l-0.07,-0.031l-0.092,-0.003l-0.057,0.063l-0.013,0.078l-0.034,0.06l-0.013,0.11l-0.036,0.07l-0.003,0.055l0.023,0.049v0.06l-0.049,0.117l-0.003,0.081l0.052,0.063l-0.007,0.216l-0.063,0.063l0.003,0.044l0.062,0.089l0.026,0.211l-0.031,0.182l-0.068,0.149l-0.104,0.075l-0.047,0.136l-0.013,0.091l-0.102,0.208l0.024,0.076l0.13,0.052l0.123,0.018l0.041,-0.013l0.201,-0.021l0.05,-0.039h0.057l0.023,0.019l0.026,-0.003l0.029,-0.044l0.063,-0.032l0.13,-0.005l0.042,0.013h0.034l0.026,-0.013l0.046,-0.002l0.053,0.005l0.044,-0.003l0.034,-0.041l0.109,-0.027l0.107,-0.067l0.315,-0.063l0.058,0.003l0.062,-0.005l0.256,-0.086l0.461,-0.073l0.261,0.007l0.047,0.032h0.033l0.034,-0.029l0.06,-0.021l0.052,-0.047l0.149,0.005l0.091,0.089v0.047l-0.029,0.036l-0.028,0.191l-0.031,0.052l-0.118,0.047h-0.112l-0.036,0.044l0.01,0.086l-0.062,0.06l-0.066,0.008l-0.031,-0.026l-0.042,0.002l-0.01,0.045l0.026,0.096l-0.016,0.063l-0.177,0.119l-0.065,0.006l-0.115,0.094l-0.041,0.07l-0.081,0.047l-0.037,0.062l-0.062,0.021l-0.031,-0.018l0.018,-0.034l0.044,-0.005l0.005,-0.026l-0.02,-0.021l-0.079,0.034l-0.026,0.073l-0.028,0.031l-0.003,0.039l0.068,0.024l0.172,0.01l0.12,0.042l0.073,0.07l0.023,0.17l0.11,0.143l0.041,0.026l0.084,0.008l0.101,0.067l0.172,0.199l0.021,0.083l-0.034,0.081l-0.172,0.104h-0.047l-0.028,0.013l-0.016,0.055l0.013,0.075l-0.029,0.11l0.037,0.13l0.091,0.065h0.057l0.04,0.021l0.036,0.047l0.073,-0.008l0.034,-0.036l0.083,-0.024l0.196,0.021l0.127,0.068l0.053,-0.011l0.005,-0.039l0.062,-0.049l0.055,0.015l0.016,0.066l-0.045,0.06l0.006,0.07l0.052,0.039l-0.021,0.05l-0.047,0.002l-0.034,0.039l-0.039,0.003l-0.024,-0.034h-0.026l-0.018,0.042l-0.13,0.078l-0.003,0.036l0.047,0.019v0.052l-0.036,0.036l-0.065,0.003l-0.029,-0.032l0.002,-0.049l-0.018,-0.037l-0.039,-0.002l-0.049,0.049l-0.026,0.011h-0.058l-0.008,0.023l0.047,0.039l0.102,0.131l0.013,0.062l-0.023,0.013l-0.058,-0.026l-0.031,0.018l-0.039,0.089l-0.037,0.005l-0.083,-0.057l-0.034,-0.008l-0.029,0.021l-0.028,-0.005l-0.026,-0.037l-0.042,-0.008l-0.036,0.037l-0.162,0.052l-0.065,-0.003l-0.065,0.055v0.102l0.036,0.088l0.005,0.066l-0.041,0.028l0.002,0.039l0.05,0.045l0.07,0.007l0.016,0.021l-0.06,0.047l0.018,0.029l0.034,0.008l0.057,-0.006l0.065,0.027l0.029,0.052l0.128,0.065l0.015,0.039l-0.007,0.081l0.049,0.065l0.081,0.023l0.026,0.029l-0.018,0.055l0.023,0.07l0.058,0.034l0.065,0.083l0.007,0.052l0.027,0.024l0.07,0.034h0.052l0.044,0.031l0.026,-0.005l-0.002,-0.06l0.117,-0.052l0.11,-0.011l0.054,0.032l0.039,0.002l0.026,-0.021l0.029,-0.002l0.094,0.062l0.075,-0.007l0.058,-0.045l0.068,0.011l0.018,0.062l-0.021,0.018l-0.037,-0.01l-0.036,0.018l-0.055,0.099l-0.125,0.063l-0.052,0.005l-0.138,-0.047l-0.149,0.011l-0.14,0.083l-0.524,0.096l-0.042,0.045l-0.044,0.013l-0.104,-0.039l-0.024,-0.034v-0.034l-0.01,-0.026l-0.047,-0.031l-0.05,-0.141l-0.047,-0.037l-0.08,0.016l-0.06,0.078l-0.019,0.107l0.019,0.042l-0.008,0.06l-0.013,0.036l0.015,0.037l0.039,0.018l0.016,0.099l-0.034,0.039l-0.062,-0.01l-0.099,-0.126l-0.019,-0.148l-0.109,-0.175l-0.068,-0.015l-0.002,-0.037l0.031,-0.028l0.002,-0.081l-0.02,-0.042l0.005,-0.031l0.086,0.002l0.042,0.024l0.031,-0.003v-0.086l-0.044,-0.164l-0.089,-0.047l-0.123,-0.148l-0.026,-0.11l-0.018,-0.026l-0.042,-0.016l-0.046,-0.112l-0.06,-0.073l-0.118,-0.067l-0.013,-0.034l-0.028,-0.008l-0.029,0.021l-0.107,-0.005l-0.047,-0.037h-0.062l-0.066,0.052l-0.114,0.031l-0.026,0.094l0.034,0.214l-0.003,0.068l0.065,0.114l0.005,0.073l0.042,0.089l0.052,0.034l0.013,0.06l-0.055,0.104l0.014,0.063l0.02,-0.003l0.05,-0.099l0.036,-0.021l0.073,0.008l0.201,0.13l0.042,0.071l-0.045,0.106l-0.033,0.011l-0.032,-0.07l-0.039,-0.032l-0.062,-0.008l-0.011,0.026l0.052,0.037l0.042,0.078l-0.005,0.107l-0.091,0.091l-0.097,0.021l-0.047,0.052l-0.041,-0.002l-0.003,-0.024l-0.031,-0.031l-0.032,0.005l-0.015,0.102l-0.026,0.039l-0.065,-0.005l-0.131,-0.112l-0.005,-0.073l-0.018,-0.053h-0.029l-0.01,0.024l-0.021,0.002l-0.034,-0.033l-0.021,0.005l-0.002,0.07l0.039,0.068v0.052l-0.042,0.021l0.003,0.062l-0.032,0.045l-0.073,0.028l-0.034,-0.026l-0.036,0.006l-0.008,0.054l0.013,0.055l0.039,0.003l0.024,-0.021h0.065l0.099,0.044l0.021,0.052l0.086,0.063l0.075,0.026l0.084,-0.011l0.044,-0.07l0.008,-0.052l0.021,-0.018l0.041,0.034l0.006,0.039l-0.032,0.06l0.021,0.052l0.102,0.086l0.021,-0.013l-0.024,-0.071l0.016,-0.018l0.044,0.016l0.031,0.07l0.05,0.047h0.07l0.034,0.01l0.005,0.032l0.05,0.013l0.031,-0.032l0.024,0.008l-0.019,0.081l0.021,0.091l0.094,0.105l0.063,-0.003l0.026,-0.078l0.026,-0.005l0.036,0.138l0.034,0.018l0.042,-0.021l0.023,-0.109l0.047,-0.04l0.018,-0.125l-0.005,-0.06l0.016,-0.059l0.075,-0.032l0.292,-0.01l0.065,-0.042h0.045l0.07,0.063l0.003,0.039l-0.034,0.031l-0.008,0.076l0.036,0.018l0.055,-0.018l0.076,0.039l0.015,0.034l-0.01,0.02l0.016,0.037l0.049,0.031l0.05,0.141l-0.008,0.115l0.018,0.086l0.068,0.078h0.026l0.044,-0.097l0.17,-0.075l0.172,0.005l0.062,0.049l0.094,0.042l0.057,0.005l0.115,0.086l0.013,0.05l0.039,0.021l0.052,0.002l0.06,0.071l0.084,0.044l0.127,0.018l0.045,-0.028l0.112,-0.003l0.099,0.031l0.07,0.063l0.042,0.075l0.002,0.099l-0.026,0.05l-0.005,0.175l-0.021,0.049l-0.055,0.031l-0.018,0.092l0.021,0.028l0.047,0.016l0.036,0.036l0.003,0.167l-0.089,0.188l-0.101,0.094l-0.318,0.083l-0.086,0.044h-0.05l-0.036,-0.015l-0.06,-0.003l-0.042,0.018l-0.034,-0.002l-0.06,-0.021l-0.052,0.008l-0.026,0.07l0.024,0.063l0.13,0.047h0.104l0.407,0.143l0.096,0.086l-0.013,0.049l-0.055,0.021l-0.093,0.081l-0.016,0.055l0.029,0.008l0.026,-0.027l0.028,0.006l0.04,0.133l-0.008,0.091l0.026,0.036l0.036,0.008l0.032,0.039l-0.016,0.24l-0.031,0.164l-0.047,0.065l0.013,0.042l0.138,0.055l0.081,0.005l0.073,-0.068l0.093,0.005l0.029,0.029l0.039,0.005l0.021,-0.028l-0.029,-0.052l0.016,-0.05l0.031,-0.016l0.047,0.021l0.052,-0.013l0.055,-0.115l0.115,-0.041l0.067,0.034l-0.005,0.078l-0.151,0.141l-0.008,0.106l0.091,0.113l0.139,0.015l0.086,-0.075l0.015,-0.079l0.019,-0.023l0.033,0.01l0.026,0.118l-0.088,0.114l-0.024,0.071l-0.044,0.067l0.024,0.013l0.036,-0.01l0.081,-0.083l0.068,-0.013l0.036,0.02l-0.018,0.105l-0.018,0.036l-0.034,0.016l-0.003,0.018l0.057,0.018l0.024,-0.015l0.005,-0.026l0.013,-0.024l0.037,-0.01l0.023,-0.037l0.024,-0.078l0.041,-0.018l0.065,0.01l0.029,-0.01l0.018,-0.034l0.029,-0.003l0.044,0.039l-0.031,0.11l-0.12,0.182l-0.086,0.073l-0.023,0.076l0.028,0.104l0.05,0.044l0.044,0.019l-0.01,0.021l-0.115,0.002l-0.151,0.078l-0.063,0.086l-0.06,0.026l-0.031,-0.015l0.005,-0.032l-0.01,-0.023l-0.029,-0.01l-0.026,-0.058l-0.081,-0.054l-0.065,-0.006l-0.018,0.032h-0.029l-0.044,-0.045l-0.003,-0.039l-0.018,-0.039l-0.036,-0.003l-0.06,0.073l-0.026,-0.002l-0.003,-0.063l-0.026,-0.015l-0.052,0.057l-0.013,0.073l-0.063,0.016l-0.031,-0.047l-0.057,-0.039l-0.037,0.015l-0.023,0.065l0.028,0.021l0.084,-0.013l0.01,0.045l-0.065,0.031l-0.117,0.101l-0.018,0.052l-0.025,0.014l-0.003,0.017l0.028,0.01l0.003,0.025l-0.021,0.017l0.005,0.035l0.04,0.015l0.03,0.058l0.014,0.073l-0.004,0.101l0.025,0.057l0.031,0.009l0.024,-0.013h0.065l0.029,0.013l0.014,-0.004l0.007,-0.04l0.038,-0.024l0.04,-0.045l0.009,-0.07l0.035,-0.049l0.1,-0.031l0.03,0.004l0.029,0.067l0.016,0.002l0.014,-0.014l-0.002,-0.041l0.023,-0.021l0.085,-0.012l0.062,0.013l0.084,0.084l0.13,0.075l0.061,0.001l0.031,-0.021h0.03l0.043,0.025l0.063,0.008l0.036,0.03l0.019,-0.002l0.004,-0.022l-0.026,-0.012l0.005,-0.02l0.059,-0.013l0.089,0.015l0.024,0.028l0.049,0.017l0.067,0.006l0.013,-0.013l-0.013,-0.019l0.009,-0.029l0.033,-0.016l0.116,-0.023h0.034l0.031,0.021l0.04,-0.001l0.04,-0.02l0.031,0.007l0.009,0.02l0.019,0.003l0.045,-0.01l0.023,0.005v0.019l0.026,0.007l0.059,-0.021l0.019,-0.033l0.015,-0.007l0.042,0.021l0.024,-0.009l0.035,-0.033l0.066,-0.014l0.038,-0.024l0.138,-0.038l0.055,0.002l0.028,0.012h0.038l0.037,-0.021h0.026l0.022,0.035l0.037,0.008l0.064,-0.012l0.033,-0.038l0.026,-0.002l0.082,0.033l0.148,0.004l0.043,-0.009l0.113,0.002l0.035,0.026l0.04,0.017l0.024,-0.012v-0.021l-0.035,-0.016l-0.019,-0.019l0.011,-0.019l0.165,0.018l0.125,-0.007l0.048,-0.032l0.054,-0.005l0.063,0.012l0.108,-0.005l0.112,-0.042l0.115,-0.001l0.045,0.027l-0.008,0.063l-0.063,0.03l-0.135,0.013l-0.086,0.068l0.014,0.028l-0.007,0.017l-0.04,0.004l-0.078,-0.035l-0.019,0.011l0.005,0.027l-0.014,0.016l-0.024,0.007l-0.003,0.017l0.02,0.018l0.002,0.015l-0.029,0.037l0.012,0.028l-0.023,0.034l-0.064,0.018l-0.054,-0.021l-0.024,0.012l0.007,0.054l0.026,0.029l-0.002,0.018l-0.012,0.022l0.007,0.04l-0.014,0.011l-0.021,-0.021l-0.009,-0.066l-0.029,-0.007l-0.012,0.014l-0.019,-0.002l-0.049,-0.042l-0.021,-0.003l-0.012,0.009h-0.023l-0.033,-0.021h-0.017l-0.004,0.015h-0.019l-0.029,-0.022l-0.042,0.002l-0.088,0.019l-0.013,0.014l0.073,0.005l0.014,0.012l-0.074,0.024h-0.046l-0.01,0.012l0.026,0.023l-0.012,0.024l-0.059,0.006l-0.009,0.015l0.042,0.021l0.069,0.007l0.005,0.019l-0.022,0.026l0.002,0.018l0.04,0.017v0.023l-0.059,0.059l-0.034,0.005l-0.046,-0.018l-0.021,0.002l0.003,0.049l0.035,0.038l-0.002,0.016l-0.057,0.005l-0.005,0.016l0.057,0.013l0.089,-0.008l0.062,0.017l0.007,0.017l-0.031,0.032l-0.002,0.028l0.016,0.015l-0.014,0.018l-0.075,0.02l-0.017,0.025l-0.018,0.001l-0.066,-0.029l-0.286,0.002l-0.056,-0.018l-0.036,-0.029l-0.04,-0.007l-0.065,0.021h-0.092l-0.067,-0.028h-0.091l-0.153,0.097l-0.14,0.014l-0.15,-0.009l-0.033,-0.019v-0.019l-0.022,-0.019l-0.101,-0.033l-0.021,0.002l-0.012,0.033l-0.033,0.015l-0.016,0.023l0.004,0.05l-0.042,0.051l-0.045,0.01l-0.072,-0.007l-0.086,0.011l-0.119,0.043h-0.187l-0.044,-0.029l-0.029,0.007l-0.031,0.041l-0.039,0.012l-0.036,-0.005l-0.023,0.014l-0.022,0.059l0.015,0.03l-0.014,0.048l-0.064,0.044l-0.028,0.001l-0.04,-0.019l-0.05,0.002l-0.012,0.014l0.028,0.059l0.081,0.028l0.03,0.036l0.007,0.032l0.024,0.005l0.033,-0.023l0.042,0.004l0.015,0.024l0.056,0.009l0.038,-0.012l0.033,0.014l0.016,0.034h0.024l0.026,-0.034l0.04,-0.016l0.04,-0.047l0.051,-0.009l0.027,0.012l0.044,-0.007l0.026,-0.019l0.024,-0.003l0.035,0.014l0.078,-0.011l0.049,-0.008l0.042,0.012l0.024,0.022l0.047,0.014l0.031,-0.008l0.028,0.01l0.012,0.028l0.042,0.014l0.041,-0.002l0.011,-0.021l-0.011,-0.017l0.007,-0.111l0.009,-0.023l0.056,-0.019l0.015,-0.042l-0.003,-0.064l0.073,-0.099l0.055,-0.024l0.132,-0.004l0.042,0.017h0.07l0.033,-0.02l0.031,-0.004l0.059,0.021l0.045,0.045l0.078,0.007l0.054,-0.04l0.042,0.004l0.019,0.04l0.019,-0.002v-0.033l0.012,-0.012h0.035l0.049,0.041h0.047l0.066,-0.052l0.107,-0.001l0.052,-0.013l0.037,-0.003l0.028,0.009l0.027,-0.004l0.046,-0.04l0.031,-0.005l0.068,0.017l0.061,-0.04l0.006,-0.055l0.056,-0.035l0.08,-0.012l0.04,0.009l0.012,0.034l-0.017,0.058l0.015,0.029l0.007,0.052l-0.017,0.011l-0.05,-0.039h-0.06l-0.036,0.079l0.019,0.022l0.092,0.023l0.026,0.024l-0.008,0.018l-0.032,0.003l-0.015,0.024l-0.007,0.044l-0.026,0.014l-0.037,-0.03l0.002,-0.05l-0.016,-0.012l-0.102,0.02l-0.047,0.026l-0.014,0.033l-0.019,0.011l-0.085,0.005l-0.141,0.064l-0.047,0.042l0.005,0.019l0.045,-0.007l0.037,0.004l0.014,0.014h0.019l0.016,-0.009l0.019,0.002l0.017,0.017l0.059,0.002l0.042,-0.016l0.005,-0.035l-0.016,-0.012l0.002,-0.015h0.026l0.031,0.019l-0.001,0.026l0.014,0.015l0.036,0.002l0.012,0.016l-0.014,0.028l0.007,0.041h0.023l0.021,-0.024l0.028,0.003l0.031,0.051l-0.002,0.033l-0.026,0.024l-0.059,0.096l-0.035,0.017l-0.041,-0.002l-0.044,0.018l-0.135,-0.007l-0.044,-0.021l-0.04,-0.002l-0.066,0.033l-0.002,0.021l0.059,0.043l-0.001,0.018l-0.021,0.012l-0.002,0.016l0.03,0.022l0.019,0.051l0.019,0.001l0.028,-0.031l0.029,-0.003l0.021,0.007l0.016,-0.007l-0.007,-0.023l0.012,-0.01l0.08,0.041l0.024,-0.005l0.007,-0.024l0.092,-0.096h0.03l0.022,0.038l0.042,0.006l0.057,-0.047l0.044,-0.084l0.073,-0.107l0.015,-0.049l0.061,-0.056l-0.001,-0.024l-0.014,-0.009l0.008,-0.029l0.026,-0.011l0.052,0.002l0.061,-0.031l0.072,0.002l0.019,-0.013v-0.029l0.069,-0.063l0.03,-0.059l0.019,-0.015l0.047,0.001l0.021,-0.012l0.024,0.004l0.015,0.048l0.032,0.006l0.036,-0.04l0.004,-0.023l-0.038,-0.052l-0.032,-0.007l-0.026,0.014l-0.026,-0.016v-0.05l-0.021,-0.028l-0.041,-0.026l-0.011,-0.037l0.019,-0.039l-0.01,-0.028l-0.054,-0.016l-0.009,-0.029l0.03,-0.04l0.012,-0.058l0.054,-0.069l0.048,-0.007l0.042,0.007l0.066,0.081l0.035,0.007l0.017,0.019l0.002,0.028l0.05,0.032l0.056,0.005l0.082,0.045h0.029l0.016,0.005l0.012,0.028l0.059,0.012l0.033,-0.021l0.016,-0.066l0.028,-0.045l0.015,-0.075l-0.014,-0.015l-0.054,-0.002l-0.062,0.014l-0.031,-0.03l0.007,-0.019l0.031,-0.024l0.038,-0.05l0.019,-0.002l0.007,0.033l0.019,0.007l0.071,-0.012l0.051,-0.037l0.002,-0.042l0.02,-0.005l0.056,0.066l-0.009,0.044l-0.038,0.019l-0.012,0.095l0.026,0.049l0.031,0.003l0.018,-0.012l0.085,-0.005l0.019,0.03l-0.019,0.027v0.026l0.031,0.011l0.033,-0.012l0.026,0.005l0.016,0.035l0.041,0.008l0.016,-0.008l-0.002,-0.025l-0.024,-0.019l-0.007,-0.029l0.016,-0.023l0.043,-0.009l0.016,-0.029l0.009,-0.038l0.022,-0.006l0.024,0.044l0.039,0.019l0.038,0.002l0.026,0.026v0.028l0.023,0.012l0.024,-0.011l0.022,0.004l0.061,0.083l-0.005,0.04l-0.031,0.021v0.026l0.038,0.016v0.019l-0.035,0.042l-0.005,0.05l0.021,0.031l-0.002,0.026l-0.016,0.014v0.04l0.032,0.021l0.028,-0.01l0.046,-0.073l0.035,-0.004l0.031,0.016l0.025,0.092l0.021,0.007l0.093,-0.04l0.07,-0.004l0.104,0.018l0.155,0.067l0.047,0.07l-0.037,0.049l0.012,0.015l0.073,-0.017l0.032,0.019l0.012,0.047l0.017,0.005l0.021,-0.01l0.03,0.01v0.017l-0.051,0.028l-0.021,0.035l0.013,0.068l0.048,0.043l0.028,0.004l0.038,-0.025l0.023,-0.034l-0.011,-0.052l0.013,-0.014l0.043,-0.009l0.033,-0.023l0.01,-0.027l0.044,-0.027l-0.007,-0.013l-0.063,0.003l-0.021,0.007l-0.008,0.028l-0.026,0.005l-0.04,-0.028l-0.005,-0.021l0.013,-0.014v-0.013l-0.029,-0.03l0.005,-0.019l0.031,-0.012l0.004,-0.012l-0.024,-0.016l0.003,-0.014l0.024,-0.003l0.007,-0.018l-0.001,-0.022l0.029,-0.033l0.033,-0.02h0.044l0.048,-0.034l0.031,-0.085l0.028,-0.014l0.011,-0.025l-0.009,-0.027l0.024,-0.028h0.03l0.029,0.054l0.053,0.031l0.039,0.005l0.042,0.024l0.028,0.049l0.031,0.016l0.049,-0.004l0.054,0.012l0.017,0.033l0.077,0.077l0.038,0.003l0.036,-0.007l0.099,0.032l0.058,0.137l-0.018,0.068l-0.031,0.019l-0.033,-0.007l0.002,-0.021l0.017,-0.012l0.004,-0.024l-0.025,-0.025h-0.054l-0.01,0.031l0.021,0.058l-0.03,0.029l-0.074,0.002l-0.021,-0.017l-0.025,0.003l-0.029,0.052l-0.005,0.059l-0.011,0.032l0.023,0.052l0.045,0.043l-0.016,0.028l-0.057,0.026l-0.057,0.012l-0.002,0.018l0.092,0.01l0.059,-0.014l0.011,-0.026l-0.009,-0.024l0.007,-0.014l0.068,0.007l0.034,-0.016h0.033l0.019,0.061l0.033,0.007l0.033,-0.01l0.033,0.019l-0.012,0.156l-0.045,0.069l0.002,0.091l0.068,0.109l-0.004,0.094l-0.076,0.07l0.003,0.041l0.059,0.056l0.045,0.019l0.023,0.017l-0.016,0.044l0.021,0.021l0.047,0.008l0.024,0.016l0.013,0.026l0.055,0.023l0.165,0.052l0.337,0.325l0.052,0.008l0.07,0.047l0.052,-0.003l0.026,-0.051l-0.005,-0.045l0.016,-0.012l0.095,0.009h0.038l0.018,0.012l-0.028,0.069l0.009,0.047l0.027,0.007l0.04,-0.007l0.059,0.009l0.134,0.096l0.139,0.008l0.08,-0.028l0.084,0.004l0.039,0.031l0.058,0.004l0.059,-0.025l0.054,0.002l-0.004,0.016l-0.054,0.012l-0.045,0.043l0.016,0.011l0.087,-0.035l0.074,-0.01l0.044,0.024l-0.004,0.071l-0.02,0.009l-0.02,-0.019l-0.019,0.003l-0.003,0.035l0.062,0.085l0.033,0.008l0.037,-0.011l0.029,0.013l0.02,0.055l0.029,-0.002l0.021,-0.045l0.045,-0.021l0.031,-0.018l0.023,-0.041l0.04,-0.004l0.033,0.023l0.068,0.005l0.031,-0.011l0.036,0.002l0.006,0.014l-0.052,0.043l0.007,0.021l0.09,-0.007l0.078,-0.057l0.024,-0.076l0.094,-0.08l0.077,-0.021l0.062,0.01l0.038,-0.015l0.009,-0.051l0.097,-0.07l0.049,-0.005l0.06,0.031l0.086,0.016l0.076,-0.019l0.153,-0.101l0.086,-0.029l0.081,-0.003l0.068,0.032l0.088,-0.011l0.06,-0.091l0.055,-0.07l0.029,-0.065l0.091,-0.042l0.295,-0.011l0.172,0.032l0.211,0.148l0.034,0.005l0.039,-0.018l0.078,0.013l0.015,0.039l-0.028,0.086l0.005,0.112l0.026,0.008l0.12,-0.146l0.146,-0.127l0.01,-0.05l-0.018,-0.023l-0.047,-0.024l-0.016,-0.047l0.019,-0.023l0.047,0.01l0.034,-0.013l0.015,-0.026l0.044,-0.018l0.042,-0.003l0.037,-0.015l0.002,-0.024l-0.057,-0.029l-0.018,-0.02l0.002,-0.037l-0.026,-0.034l-0.068,-0.06l-0.026,-0.083l0.029,-0.076l-0.003,-0.049l0.019,-0.029l0.065,-0.005l0.018,-0.034l-0.01,-0.081l0.01,-0.028l0.034,-0.016l0.086,-0.138l0.005,-0.05l0.141,-0.229l0.023,-0.065l-0.018,-0.021h-0.052l-0.036,-0.039l-0.021,-0.089l0.018,-0.135l0.026,-0.045l0.013,-0.122l-0.036,-0.107l0.002,-0.036l0.034,-0.063l0.044,-0.237l0.12,-0.175l0.188,-0.146l0.096,-0.023l0.058,0.013l0.101,0.099l0.089,0.042l0.036,0.002l0.06,-0.023l0.034,0.002l0.037,0.016l0.099,0.005l0.297,-0.044l0.331,-0.008l0.216,0.039l0.083,0.039l0.199,0.037l0.208,0.016l0.349,0.044l0.193,0.044l0.149,0.084l0.06,0.088l0.101,0.055l0.151,0.026l0.277,0.099l0.182,0.094l0.07,0.073l0.159,0.073l0.079,0.075l0.046,0.019l0.032,-0.006l0.068,0.029l0.117,0.003l0.07,0.031l0.05,0.086l0.19,0.086l0.125,0.005l0.109,0.044l0.047,0.039l0.092,0.037l0.153,0.029l0.079,0.044l0.036,0.049h0.026l0.024,-0.031h0.057l0.094,0.055l0.258,0.271l0.018,0.055l0.039,0.049l0.057,0.031l0.079,0.073l0.086,0.144l0.044,0.12l0.091,0.114l0.133,0.097l0.052,0.075l0.034,0.128l0.096,0.107l0.141,0.078l0.104,0.099l0.019,0.047l0.065,0.06l0.065,0.016l0.321,0.213l0.132,0.045l0.084,-0.008l0.065,0.013l0.073,0.073l0.373,0.167l0.125,0.01l0.258,0.055l0.026,-0.005l0.01,-0.032l0.031,-0.031l0.042,-0.01l0.071,-0.042l0.039,-0.055l0.083,-0.057l0.149,-0.045l0.067,-0.044l0.071,-0.013l0.062,0.021l0.172,0.013l0.052,-0.016l0.071,0.008l0.087,0.077l0.045,-0.011l0.083,-0.163l0.073,-0.063l0.15,-0.003l0.118,0.021l0.316,-0.004l0.149,-0.066l0.157,0.007l0.066,0.056h0.059l0.167,-0.098h0.139l0.142,0.056l0.073,0.063l0.066,-0.028l0.07,-0.139l0.079,-0.08l0.115,-0.031l0.077,0.031l0.034,0.083l0.049,0.018l0.007,0.024l-0.024,0.028v0.035l0.041,0.017l0.049,-0.021v-0.038l-0.028,-0.021l-0.003,-0.031l0.052,-0.077l0.16,-0.114l0.173,-0.101l0.066,-0.066l0.035,-0.07l-0.021,-0.031l0.018,-0.024l0.045,-0.014l0.111,-0.132l0.056,-0.021l0.093,0.01l0.098,0.08l0.073,0.098l0.007,0.104l0.027,0.052l0.035,-0.01l0.042,-0.126l0.129,-0.128l0.066,-0.011l0.041,0.021l0.042,-0.01l0.069,-0.073l0.035,-0.066l-0.003,-0.271l0.014,-0.07l0.045,-0.048l0.045,-0.014l0.035,-0.035l0.014,-0.045l0.052,-0.052l0.087,-0.018l0.041,-0.034l0.035,-0.07l0.118,-0.135l0.059,-0.035l0.038,-0.049l0.066,-0.114l0.115,-0.108l0.087,-0.031l0.073,-0.053l0.049,-0.062l0.128,-0.084l0.181,-0.076l0.042,-0.031l0.017,-0.042l0.104,-0.108l0.104,-0.073l0.136,-0.059l0.038,-0.028l0.021,-0.045l0.031,-0.045l0.091,-0.052l0.118,-0.024l0.048,-0.028l0.039,-0.042l0.069,-0.035l0.303,-0.02l0.201,0.031l0.226,0.104l0.149,0.132l0.059,0.084l0.053,0.017l0.107,0.003l0.181,0.056l0.386,0.215l0.444,0.226l0.393,0.23l0.017,0.045l0.035,0.003l0.031,-0.031l0.066,-0.014l0.077,-0.052l0.042,-0.063l0.048,-0.031l0.188,-0.014l0.222,0.056l0.101,0.045l0.063,-0.014l0.038,-0.059l0.073,-0.049l0.09,-0.048l0.052,-0.073v-0.104l0.021,-0.073l0.063,-0.063l0.08,-0.014l0.107,-0.076l0.014,-0.052l-0.035,-0.011l-0.1,0.035l-0.063,-0.011l-0.003,-0.052l-0.025,-0.031l-0.027,-0.003l-0.032,0.045l-0.052,0.003l-0.031,-0.021l0.035,-0.076l0.159,-0.104h0.094l0.039,0.024l0.076,-0.003l0.08,-0.025l0.101,0.004l0.08,-0.007l0.173,-0.111l0.025,-0.049l0.038,-0.038l0.108,-0.084l0.125,-0.163l0.062,-0.038l0.104,-0.098l0.122,-0.093l0.059,-0.004l0.205,0.084l0.202,0.146l0.149,0.159l0.143,0.219v0.073l-0.028,0.052l-0.004,0.084l0.032,0.031v0.035l-0.025,0.035v0.052l0.063,0.156l-0.011,0.09l-0.041,0.039l-0.007,0.031l0.017,0.045l-0.035,0.059l-0.055,0.038h-0.073l-0.094,0.042l-0.198,0.143l-0.09,0.027l-0.094,0.08l-0.157,0.177l-0.1,0.066l-0.115,0.032l-0.087,0.073l-0.031,0.069l-0.115,0.104l-0.035,0.101l-0.041,0.038l-0.052,0.004l-0.053,0.042l-0.031,0.055l-0.101,0.091l-0.006,0.07l0.034,0.109l0.282,0.368l0.211,0.3l0.206,0.44l-0.003,0.042l-0.062,0.086l-0.12,0.094l-0.039,0.072l-0.003,0.066z"/>
</svg>
