<svg xmlns="http://www.w3.org/2000/svg" viewBox="738.008 284.536 11.370 9.172">
  <path d="M738.008,290.673l0.064,0.001l0.033,0.015l0.043,-0.001l0.047,-0.042l0.119,-0.019l0.024,-0.05l-0.001,-0.066l0.012,-0.043l0.039,-0.031l0.005,-0.044l0.044,-0.052l0.005,-0.03l0.023,-0.01l0.038,0.003l0.11,-0.047l0.055,-0.062l-0.005,-0.037l-0.021,-0.034l0.011,-0.044l0.04,-0.031l0.01,-0.068l0.028,-0.005l0.038,0.014l0.023,-0.014l0.007,-0.063l0.027,-0.047l0.021,0.006l0.004,0.033l0.045,0.031l0.055,0.003l0.023,-0.022l-0.007,-0.042l-0.042,-0.068l0.014,-0.036l0.025,-0.002l0.019,0.018l0.028,-0.004l0.045,-0.054l0.054,-0.012l0.06,0.012l0.032,-0.024l-0.042,-0.085l-0.076,-0.056l-0.006,-0.036l0.021,-0.019l0.04,0.001l0.05,-0.047l0.027,-0.069l-0.009,-0.037l-0.049,-0.022l-0.125,-0.153l-0.007,-0.066l0.026,-0.049l0.045,-0.033l0.013,-0.04l-0.021,-0.022l-0.066,0.007l-0.03,-0.014l0.004,-0.026l0.057,-0.025l0.017,-0.045l0.033,-0.017l0.004,-0.038l-0.075,-0.059l-0.028,-0.053l0.007,-0.043l0.044,-0.031l-0.002,-0.066l0.023,-0.047l0.005,-0.033l-0.03,-0.056v-0.059l0.044,-0.05l0.05,-0.004l0.035,0.028l0.052,0.007l0.122,-0.003l0.111,-0.105l0.097,-0.031l0.024,-0.024l-0.003,-0.037l0.016,-0.022l0.059,-0.02l0.029,-0.039l0.011,-0.056l0.029,-0.011l0.044,0.004l0.053,-0.021l0.032,-0.022l0.059,0.001l0.041,0.04l0.06,0.021l0.06,-0.005l0.087,-0.059l0.042,-0.111l0.012,-0.099l-0.014,-0.06v-0.052l-0.014,-0.045l-0.031,-0.014l-0.021,-0.04l0.004,-0.104l-0.013,-0.056l-0.029,-0.048l-0.004,-0.03l0.004,-0.06l-0.002,-0.051l-0.031,-0.043l-0.002,-0.051l0.012,-0.057v-0.031l-0.027,-0.035l0.001,-0.056l0.026,-0.048l-0.015,-0.136l-0.026,-0.017l-0.086,-0.004l-0.13,-0.047l-0.156,-0.139l-0.007,-0.029l0.024,-0.023l-0.009,-0.026l-0.074,-0.001l-0.058,-0.023l-0.04,-0.042h-0.033l-0.033,0.025l-0.085,-0.023l-0.095,-0.043l-0.03,-0.051l-0.045,-0.003l-0.017,-0.028l-0.083,-0.087l-0.006,-0.068l0.035,-0.118l0.123,-0.188l0.07,-0.013l0.528,-0.011l0.035,-0.028l0.08,-0.146l0.045,-0.031l0.003,-0.035l-0.035,-0.024l0.004,-0.031l0.042,-0.032l0.003,-0.034l-0.059,-0.056l0.007,-0.049l0.066,-0.086l0.108,-0.063l0.014,-0.049l0.041,-0.017l0.118,0.042l0.199,0.007l0.066,0.031h0.066l0.135,-0.118h0.038l0.073,0.048l0.087,0.021l0.031,-0.007l0.035,-0.045l0.059,-0.031l0.094,0.003l0.077,-0.013l0.027,-0.032l0.042,-0.014l0.073,0.011l0.09,-0.066l0.004,-0.073l0.035,-0.025h0.052l0.073,-0.086l-0.011,-0.077l0.028,-0.028h0.042l0.083,-0.052h0.049l0.177,0.052l0.028,0.049l0.038,0.007l0.042,-0.014l0.1,0.01l0.066,0.042l0.028,-0.017l-0.021,-0.049l0.028,-0.042l0.104,-0.09l0.143,0.017l0.198,0.098l0.021,0.052l0.035,0.024l0.055,0.004l0.063,0.055l0.09,0.181l0.101,0.069l0.055,0.077l0.171,0.09l0.066,-0.014l0.045,0.021l0.062,0.084l0.046,0.069l0.055,0.042l0.038,0.01l0.014,-0.024l-0.02,-0.035l0.013,-0.055l0.056,-0.018l0.049,-0.045l0.048,0.017l0.045,-0.034l-0.017,-0.032l0.031,-0.017l0.063,0.017l0.122,-0.034l0.055,-0.053h0.16l0.181,0.08l0.034,0.039l0.122,0.01l0.031,-0.024l-0.052,-0.08l0.004,-0.097l0.031,-0.021l0.056,0.021l0.038,-0.011l0.021,-0.038l0.08,0.014l0.086,0.094l0.046,0.007l0.055,-0.032l0.104,0.021l0.056,-0.031h0.042l0.038,0.035h0.052l0.073,-0.021l0.01,0.052l0.046,0.104l0.003,0.163l0.035,0.077v0.042l-0.035,0.01l-0.104,-0.038l-0.073,0.007l-0.066,0.121l0.007,0.146l0.087,0.198l0.128,0.139l0.018,0.046l-0.011,0.041l0.059,0.101l0.143,0.129l0.014,0.041l-0.035,0.042v0.069l0.09,0.136l0.077,0.049l0.024,0.041l-0.007,0.042l0.052,0.066l0.066,0.01l0.031,0.035l0.007,0.045l0.178,0.171l0.444,0.253l0.661,0.317l0.434,0.191l0.104,-0.007l0.038,0.021l0.014,0.034l0.091,0.049h0.066l0.038,0.017l0.007,0.039l0.059,0.034l0.042,-0.01l0.038,0.007l0.021,0.024l0.361,0.129l0.132,0.01l0.191,0.07l0.178,0.038l0.118,-0.035l0.09,0.007l0.101,0.063l0.007,0.067l-0.029,0.076l-0.083,0.083l-0.047,0.068l-0.094,0.057l-0.005,0.024l0.057,0.049l0.044,0.071l-0.005,0.044l-0.044,0.063l-0.008,0.073l-0.034,0.054l-0.026,0.076l-0.042,0.044l-0.109,0.06l-0.026,0.029l-0.042,0.018l-0.034,-0.01l-0.073,-0.067l-0.015,0.001l0.01,0.028l0.068,0.063l0.05,0.01l0.032,0.021l-0.002,0.026l-0.035,0.028h-0.063l-0.088,0.026l-0.188,0.102l-0.088,0.007l-0.051,0.016l-0.031,0.045l-0.049,0.016l-0.083,-0.021l-0.111,-0.073l-0.085,0.004l-0.042,0.024l-0.068,0.007l-0.059,-0.014l-0.068,0.003l-0.052,0.033l-0.113,0.011l-0.095,-0.004l-0.049,-0.027l-0.023,-0.065l0.007,-0.116l-0.048,-0.033l-0.07,0.009l-0.054,0.039l-0.024,0.061l-0.028,0.009l-0.085,-0.031l-0.144,-0.096l-0.221,-0.101l-0.17,-0.048l-0.106,-0.025h-0.089l-0.21,-0.041l-0.061,-0.019l-0.278,-0.007l-0.135,0.021l-0.021,0.02l-0.035,0.013l-0.073,0.001l-0.139,0.042l-0.191,0.096l-0.076,0.066l-0.018,0.043l-0.001,0.085l-0.03,0.033l-0.031,0.005l-0.019,0.023l0.012,0.021l-0.009,0.015l-0.075,0.007l-0.05,-0.031l-0.075,-0.002l-0.048,0.016l-0.099,-0.009l-0.07,-0.074l-0.088,-0.049l-0.198,-0.064l-0.099,-0.006l-0.176,0.04l-0.094,0.009l-0.325,0.075l-0.191,0.024l-0.101,0.04l-0.043,0.061l-0.092,0.193l-0.023,0.111l-0.014,0.142l-0.017,0.051l-0.215,0.167l-0.162,0.152l-0.045,0.054l-0.035,0.101l-0.022,0.035l-0.014,0.052l-0.046,0.066l-0.196,0.125l-0.022,0.037l-0.04,0.026l-0.049,0.01l-0.125,0.071l-0.033,0.051l-0.044,0.026l-0.139,0.055l-0.192,0.035l-0.072,0.004l-0.107,0.046l-0.117,0.113l-0.01,0.035l-0.03,0.014l-0.048,0.009l-0.197,0.069h-0.052l-0.075,0.032l-0.135,0.092l-0.167,0.067l-0.068,0.019l-0.153,0.051l-0.086,0.064l-0.023,0.028l-0.028,0.016l-0.033,0.001l-0.038,0.03l0.007,0.068l0.009,0.053l-0.035,0.027l-0.104,0.024l-0.065,0.047l-0.038,0.078l0.002,0.076l-0.031,0.054l-0.106,0.087l-0.02,0.045l-0.015,0.011l-0.026,0.001l-0.023,0.021l-0.019,0.033l-0.097,0.054l-0.051,0.004l-0.119,0.092l-0.042,0.074l-0.139,0.099l-0.042,0.013l-0.017,0.012l-0.011,0.031l-0.021,0.016l-0.106,0.029l-0.067,0.038l-0.04,-0.001l-0.016,0.017l0.005,0.059l0.075,0.151l-0.019,0.052l-0.089,0.051l-0.036,0.038l-0.037,0.054l-0.036,0.031l-0.023,0.005l-0.019,0.016l-0.021,0.035l-0.113,0.054l-0.135,0.05l-0.028,0.023l-0.012,0.031l-0.028,0.014l-0.04,-0.014l-0.035,0.007l-0.031,0.021l-0.04,0.005l-0.035,-0.019l-0.003,-0.04l0.035,-0.033l0.021,-0.054l0.026,-0.042l0.04,-0.029l0.02,-0.038l0.007,-0.049l0.092,-0.169l0.051,-0.062l0.073,-0.117l-0.002,-0.029l-0.01,-0.014v-0.017l0.038,-0.032l0.014,-0.055v-0.098l-0.045,-0.085l-0.119,-0.073l-0.001,-0.021l0.034,-0.053l-0.003,-0.039l-0.026,-0.024l-0.059,-0.002l-0.002,-0.014l0.063,-0.064l0.1,-0.055l0.079,-0.011l0.034,-0.017l0.044,-0.051l0.036,-0.017l0.028,0.009l0.03,-0.006l0.1,-0.073l0.014,-0.026l0.063,-0.043l0.035,-0.005l0.024,-0.018l0.005,-0.026l0.019,-0.01l0.035,-0.002l0.036,-0.026l0.054,-0.062l0.07,-0.042l0.114,-0.018l0.136,-0.064l0.068,-0.064l0.048,-0.026l0.023,0.002l0.028,-0.006l0.071,-0.059l0.155,-0.054l0.062,0.009l0.184,-0.012l0.049,-0.026l0.031,-0.08l0.063,-0.078l0.038,-0.007l0.031,0.024h0.063l0.092,-0.045l0.142,-0.122l0.009,-0.055l-0.054,-0.202l-0.047,-0.047l-0.066,-0.022l-0.088,0.005l-0.071,0.043l-0.042,0.011l-0.04,-0.007l-0.047,0.003l-0.035,0.023l-0.319,0.01l-0.091,0.033l-0.108,0.089l-0.046,0.012l-0.051,0.056l-0.024,0.003l-0.019,-0.012l-0.051,-0.002l-0.041,-0.015l-0.061,-0.042l-0.07,-0.023l-0.069,0.004l-0.037,0.021l-0.033,0.036l-0.052,0.005l-0.109,-0.034l-0.091,0.007l-0.08,0.047l-0.123,0.015l-0.229,-0.021l-0.158,-0.003l-0.146,0.033l-0.153,-0.018l-0.16,-0.104l-0.054,-0.068l-0.003,-0.041l0.017,-0.026l0.01,-0.098l-0.062,-0.206l-0.052,-0.047l-0.002,-0.019z"/>
</svg>
