<svg xmlns="http://www.w3.org/2000/svg" viewBox="1294.169 471.565 14.296 19.113">
  <path d="M1306.936,490.666l0.007,-0.011h0.03l0.007,0.011 l-0.007,0.012l-0.028,-0.003l-0.01,-0.01Z M1308.243,485.441l-0.008,-0.017v-0.011l0.006,-0.01l-0.003,-0.01l-0.017,0.008v0.018l0.014,0.023l0.008,-0.003Z M1308.406,485.633l-0.007,0.01l0.01,0.007l0.012,-0.004l-0.003,-0.012h-0.012Z M1308.362,485.425l0.01,-0.003l-0.017,-0.028l-0.003,-0.047l-0.023,-0.028h-0.036l-0.001,0.01 l0.033,0.004l0.018,0.017v0.039l0.004,0.022 l0.015,0.014Z M1308.429,485.49l0.022,0.059v0.048l-0.011,0.022 l-0.014,0.007v0.01l0.021,-0.001 l0.015,-0.033l0.003,-0.054l-0.022,-0.059l-0.032,-0.032l-0.004,0.01l0.022,0.023Z M1308.342,485.603l0.006,0.01l0.015,-0.006v-0.011l-0.012,-0.003 l-0.008,0.01Z M1308.239,485.345l0.004,0.008l0.012,0.006v-0.01l-0.007,-0.007 l-0.01,0.003Z M1308.25,485.325v0.008l0.011,0.006l0.006,-0.003l-0.007,-0.008l-0.01,-0.003Z M1308.265,485.318l0.003,0.008l0.011,0.006v-0.008l-0.008,-0.008 l-0.006,0.003Z M1308.374,485.622l0.008,-0.007v-0.01l-0.008,0.003l-0.004,0.008l0.004,0.006Z M1305.882,482.143l0.025,0.063l-0.003,0.033l0.029,0.097v0.019l-0.021,0.03l-0.04,0.037l-0.026,0.008v0.01l0.032,-0.006 l0.051,-0.044l0.018,-0.007l0.014,-0.026l-0.014,-0.023l-0.028,-0.092l0.003,-0.041l-0.03,-0.073l-0.023,-0.033l-0.007,0.01l0.021,0.039Z M1305.844,482.084l0.004,-0.011l-0.011,-0.021l-0.018,-0.01l-0.004,0.01l0.018,0.012l0.011,0.019Z M1305.501,482.167l0.011,-0.006l0.004,-0.012l-0.014,-0.01l-0.01,0.008l0.008,0.019Z M1305.654,482.032l0.015,-0.01l-0.011,-0.008h-0.023l-0.003,0.012 l0.022,0.006Z M1305.487,482.817l0.007,-0.011l-0.007,-0.012l0.007,-0.018h-0.01l-0.008,0.018 v0.018l0.011,0.006 Z M1305.351,482.337l0.011,-0.007l-0.003,-0.011l-0.011,0.004l-0.008,0.014h0.011Z M1305.436,482.263l0.012,-0.006l-0.007,-0.01h-0.011l-0.006,0.01l0.011,0.006Z M1305.785,482.469v0.01l0.015,-0.004 l0.023,-0.017l-0.012,-0.003l-0.026,0.014Z M1305.72,482.511h0.014l0.025,-0.008 l0.006,-0.012h-0.012l-0.032,0.021Z M1305.698,482.535l0.015,-0.01l-0.011,-0.003l-0.019,0.006v0.01l0.015,-0.003 Z M1305.625,482.598h0.011l0.012,-0.012 v-0.012l-0.011,0.006l-0.012,0.019Z M1305.517,482.824l0.039,-0.026l0.022,-0.008l0.015,-0.011v-0.017l-0.022,-0.033v-0.021l0.014,-0.025l-0.006,-0.03h-0.008l0.001,0.03 l-0.012,0.017l-0.003,0.03l0.018,0.03l-0.012,0.019l-0.047,0.032h-0.011l-0.004,0.008l0.017,0.004Z M1305.491,482.76l0.008,0.003l0.006,-0.01l-0.003,-0.011l-0.008,0.007l-0.003,0.011Z M1305.469,482.655l0.01,-0.006l-0.006,-0.01h-0.01l-0.004,0.01 l0.01,0.006Z M1305.456,482.574l0.007,-0.008l-0.008,-0.007l-0.011,0.003v0.01l0.012,0.003 Z M1305.397,482.515l0.007,-0.004v-0.011l-0.01,0.003 l-0.004,0.007l0.007,0.006Z M1302.791,480.099h0.019l-0.006,-0.014l-0.015,-0.008l-0.011,0.01l0.012,0.012Z M1302.983,480.229l-0.006,0.025l-0.039,0.058l-0.026,0.019l-0.037,0.046l-0.023,0.035l-0.01,0.035l-0.026,0.025l-0.012,0.025l0.004,0.022l-0.015,0.021l-0.011,0.033l-0.017,0.012v0.029l0.012,0.017l0.018,-0.006l0.006,-0.021l-0.006,-0.028l0.006,-0.025l0.018,-0.025v-0.029l0.029,-0.039 l0.029,-0.061l0.037,-0.044l0.025,-0.021l0.04,-0.059l0.028,-0.019v-0.018l-0.023,-0.035 l-0.011,0.006l0.011,0.022Z M1302.642,480.313l0.007,-0.008v-0.01h-0.01l-0.006,0.011 l0.008,0.007Z M1302.669,480.321h0.011l0.001,-0.014 l-0.011,-0.003l-0.007,0.007l0.006,0.01Z M1302.946,480.186l0.011,-0.007v-0.01l-0.01,0 l-0.008,0.01l0.007,0.007Z M1302.929,480.174l0.008,-0.011l-0.004,-0.01l-0.007,0.006l-0.004,0.011l0.007,0.004Z M1302.961,480.198l0.011,-0.003l0.008,-0.011l-0.01,-0.004l-0.01,0.004v0.014Z M1302.671,480.194h0.011v-0.014h-0.011l-0.006,0.007 l0.006,0.007Z M1302.603,480.508l0.011,-0.006l-0.004,-0.01l-0.018,-0.006l-0.007,0.011l0.018,0.01Z M1303.925,478.441l0.021,-0.009l0.021,-0.035l-0.005,-0.024l-0.024,-0.016l-0.019,0.003l-0.014,-0.01l-0.003,-0.028l-0.047,-0.043l-0.019,0.002l-0.007,0.017l0.031,0.054l0.024,0.038l0.016,0.04l0.026,0.01Z M1302.515,480.472l0.017,0.008l0.011,-0.007l-0.012,-0.008l0.004,-0.01l-0.007,-0.011h-0.01l-0.008,0.017 l0.006,0.011Z M1302.566,480.488l0.01,-0.007v-0.011h-0.011l-0.007,0.012l0.008,0.006Z M1302.558,480.459l0.007,-0.006l-0.007,-0.014l-0.01,-0.007l-0.01,0.006v0.011l0.019,0.01 Z M1298.218,477.536l0.051,0.012l0.019,-0.012l0.003,-0.019l-0.008,-0.003l-0.006,0.011l-0.01,0.007l-0.037,-0.012v-0.017l-0.012,-0.006 l-0.012,0.019l0.012,0.019Z M1298.272,477.493l0.01,0.006l0.01,-0.015l-0.006,-0.011l-0.011,0.003l-0.003,0.018Z M1298.215,477.366l0.012,-0.007l-0.003,-0.017l0.011,-0.018l-0.007,-0.018l-0.014,0.003l-0.01,0.023l0.01,0.033Z M1298.248,477.352l0.007,0.011l-0.003,0.014l0.01,0.008l0.006,-0.023l-0.011,-0.019l-0.011,-0.01l-0.01,0.006v0.012l0.012,0.001 Z M1298.272,477.409l0.011,-0.004v-0.011l-0.008,-0.006 l-0.007,0.01l0.004,0.011Z M1298.276,477.454h0.008l0.004,-0.007 l-0.011,-0.003l-0.008,0.006l0.007,0.004Z M1298.27,477.431h0.014l0.004,-0.008l-0.01,-0.004l-0.01,0.003v0.01Z M1298.926,473.314l0.029,0.007l0.036,-0.007l0.012,-0.016l-0.012,-0.023l-0.052,-0.007l-0.028,0.003l-0.003,0.021l0.017,0.021Z M1295.101,474.027l0.023,-0.009l0.01,-0.026l-0.002,-0.042l-0.012,-0.033h-0.017l-0.023,0.04l-0.003,0.035l0.024,0.035Z M1294.179,471.589l0.051,0.021l0.018,-0.003v-0.011l-0.029,-0.021 l-0.04,-0.01l-0.01,0.011l0.01,0.012Z M1294.384,471.644l0.01,-0.007l-0.025,-0.014l-0.011,0.003l0.004,0.01l0.022,0.008Z M1294.398,471.676l0.022,0.039l-0.012,-0.003l-0.025,-0.035l-0.018,-0.011l-0.006,0.011l0.028,0.025l0.039,0.044l0.026,0.039h0.012l-0.021,-0.04 v-0.019l-0.021,-0.057 l-0.021,-0.022l-0.008,0.007l0.004,0.022Z "/>
</svg>
