<svg xmlns="http://www.w3.org/2000/svg" viewBox="1294.169 471.565 14.295 19.113">
  <path d="M1306.936223,490.666027l0.006902,-0.011043l0.030368,0.00138l0.006902,0.009663l-0.006902,0.012423l-0.027607,-0.002761l-0.009663,-0.009663Z M1308.243007,485.441342l-0.008282,-0.016564v-0.011043l0.005521,-0.009663l-0.002761,-0.009663l-0.016564,0.008282v0.017945l0.013804,0.023466l0.008282,-0.002761Z M1308.40589,485.633213l-0.006902,0.009663l0.009663,0.006902l0.012423,-0.004141l-0.002761,-0.012423h-0.012423Z M1308.361718,485.424778l0.009663,-0.002761l-0.016564,-0.027607l-0.002761,-0.046932l-0.023466,-0.027607l-0.035889,-0.00138l-0.00138,0.011043l0.033129,0.004141l0.017945,0.016564l-0.00138,0.03865l0.005521,0.022086l0.015184,0.013804Z M1308.429356,485.489655l0.022086,0.059356l-0.00138,0.048313l-0.009663,0.022086l-0.013804,0.006902l0.00138,0.009663l0.019325,-0.00138l0.015184,-0.033129l0.002761,-0.053834l-0.022086,-0.059356l-0.031748,-0.031748l-0.004141,0.009663l0.022086,0.023466Z M1308.342393,485.602845l0.005521,0.009663l0.015184,-0.005521l-0.00138,-0.011043l-0.011043,-0.002761l-0.008282,0.009663Z M1308.238866,485.344716l0.004141,0.008282l0.012423,0.005521l0.00138,-0.009663l-0.008282,-0.006902l-0.009663,0.002761Z M1308.249909,485.325391v0.008282l0.011043,0.005521l0.005521,-0.002761l-0.006902,-0.008282l-0.009663,-0.002761Z M1308.265093,485.31849l0.002761,0.008282l0.011043,0.005521l0.00138,-0.008282l-0.009663,-0.008282l-0.005521,0.002761Z M1308.374141,485.62217l0.008282,-0.006902v-0.009663l-0.008282,0.002761l-0.004141,0.008282l0.004141,0.005521Z M1305.881557,482.143364l0.024847,0.063497l-0.002761,0.033129l0.028988,0.096626v0.019325l-0.020705,0.030368l-0.040031,0.03727l-0.026227,0.008282l-0.00138,0.009663l0.033129,-0.005521l0.051074,-0.044172l0.017945,-0.006902l0.013804,-0.026227l-0.013804,-0.023466l-0.027607,-0.092484l0.002761,-0.041411l-0.030368,-0.073159l-0.023466,-0.033129l-0.006902,0.009663l0.020705,0.03865Z M1305.844287,482.084008l0.004141,-0.011043l-0.011043,-0.020705l-0.017945,-0.009663l-0.004141,0.009663l0.017945,0.012423l0.011043,0.019325Z M1305.500576,482.16683l0.011043,-0.005521l0.004141,-0.012423l-0.013804,-0.009663l-0.009663,0.008282l0.008282,0.019325Z M1305.653797,482.031554l0.015184,-0.009663l-0.011043,-0.008282l-0.023466,0.00138l-0.002761,0.011043l0.022086,0.005521Z M1305.486773,482.816982l0.006902,-0.011043l-0.006902,-0.012423l0.006902,-0.017945l-0.009663,0.00138l-0.008282,0.016564l0.00138,0.017945l0.009663,0.005521Z M1305.351497,482.336615l0.011043,-0.006902l-0.002761,-0.011043l-0.011043,0.004141l-0.008282,0.013804h0.011043Z M1305.435699,482.263455l0.012423,-0.005521l-0.006902,-0.009663h-0.011043l-0.005521,0.009663l0.011043,0.005521Z M1305.784932,482.46913l-0.00138,0.009663l0.016564,-0.004141l0.023466,-0.016564l-0.012423,-0.002761l-0.026227,0.013804Z M1305.720054,482.510541l0.013804,0.00138l0.024847,-0.009663l0.005521,-0.012423h-0.012423l-0.031748,0.020705Z M1305.697969,482.535387l0.015184,-0.009663l-0.011043,-0.002761l-0.019325,0.005521l-0.00138,0.009663l0.016564,-0.002761Z M1305.624809,482.597504l0.011043,-0.00138l0.012423,-0.011043v-0.012423l-0.011043,0.005521l-0.012423,0.019325Z M1305.517141,482.823884l0.03865,-0.026227l0.022086,-0.008282l0.015184,-0.011043v-0.016564l-0.022086,-0.033129v-0.020705l0.013804,-0.024847l-0.005521,-0.030368l-0.008282,0.00138l0.00138,0.028988l-0.012423,0.016564l-0.002761,0.030368l0.017945,0.030368l-0.012423,0.019325l-0.046932,0.031748h-0.011043l-0.004141,0.008282l0.016564,0.004141Z M1305.490914,482.760387l0.008282,0.002761l0.005521,-0.009663l-0.002761,-0.011043l-0.008282,0.006902l-0.002761,0.011043Z M1305.468828,482.655479l0.009663,-0.005521l-0.005521,-0.009663l-0.009663,0.00138l-0.004141,0.008282l0.009663,0.005521Z M1305.456405,482.574038l0.006902,-0.008282l-0.008282,-0.006902l-0.011043,0.002761l0.00138,0.009663l0.011043,0.002761Z M1305.397049,482.514682l0.006902,-0.004141l0.00138,-0.011043l-0.011043,0.002761l-0.004141,0.006902l0.006902,0.005521Z M1302.790919,480.099043h0.019325l-0.005521,-0.013804l-0.015184,-0.008282l-0.011043,0.009663l0.012423,0.012423Z M1302.98279,480.228797l-0.005521,0.024847l-0.03865,0.057975l-0.026227,0.019325l-0.03727,0.045552l-0.023466,0.034509l-0.009663,0.034509l-0.026227,0.024847l-0.012423,0.024847l0.004141,0.022086l-0.015184,0.020705l-0.011043,0.033129l-0.016564,0.012423v0.028988l0.012423,0.016564l0.017945,-0.005521l0.005521,-0.020705l-0.005521,-0.027607l0.005521,-0.024847l0.017945,-0.024847l0.00138,-0.028988l0.027607,-0.03865l0.028988,-0.060736l0.03727,-0.044172l0.024847,-0.020705l0.040031,-0.059356l0.027607,-0.019325l0.00138,-0.017945l-0.024847,-0.034509l-0.011043,0.005521l0.011043,0.022086Z M1302.64184,480.312999l0.006902,-0.008282v-0.009663l-0.009663,0.00138l-0.005521,0.009663l0.008282,0.006902Z M1302.669447,480.321281l0.011043,-0.00138l0.00138,-0.012423l-0.011043,-0.002761l-0.006902,0.006902l0.005521,0.009663Z M1302.94552,480.186006l0.011043,-0.006902l0.00138,-0.009663h-0.011043l-0.008282,0.009663l0.006902,0.006902Z M1302.928956,480.173582l0.008282,-0.011043l-0.004141,-0.009663l-0.006902,0.005521l-0.004141,0.011043l0.006902,0.004141Z M1302.960704,480.198429l0.011043,-0.002761l0.008282,-0.011043l-0.009663,-0.004141l-0.009663,0.004141v0.013804Z M1302.670827,480.194288h0.011043v-0.013804l-0.011043,-0.00138l-0.005521,0.008282l0.005521,0.006902Z M1302.60319,480.507631l0.011043,-0.005521l-0.004141,-0.009663l-0.017945,-0.005521l-0.006902,0.011043l0.017945,0.009663Z M1303.92493,478.441197l0.020787,-0.008661l0.020787,-0.034644l-0.005197,-0.024251l-0.024251,-0.01559l-0.019054,0.003464l-0.013858,-0.010393l-0.003464,-0.027716l-0.04677,-0.043306l-0.019054,0.001732l-0.006929,0.017322l0.03118,0.053699l0.024251,0.038109l0.01559,0.039841l0.025983,0.010393Z M1302.514846,480.471741l0.016564,0.008282l0.011043,-0.006902l-0.012423,-0.008282l0.004141,-0.009663l-0.006902,-0.011043l-0.009663,0.00138l-0.008282,0.015184l0.005521,0.011043Z M1302.56592,480.488306l0.009663,-0.006902l-0.00138,-0.011043h-0.009663l-0.006902,0.012423l0.008282,0.005521Z M1302.557637,480.459318l0.006902,-0.005521l-0.006902,-0.013804l-0.009663,-0.006902l-0.009663,0.005521l0.00138,0.011043l0.017945,0.009663Z M1298.217769,477.535704l0.051074,0.012423l0.019325,-0.012423l0.002761,-0.019325l-0.008282,-0.002761l-0.005521,0.011043l-0.009663,0.006902l-0.03727,-0.012423l0.00138,-0.016564l-0.013804,-0.005521l-0.012423,0.019325l0.012423,0.019325Z M1298.271603,477.492913l0.009663,0.005521l0.009663,-0.015184l-0.005521,-0.011043l-0.011043,0.002761l-0.002761,0.017945Z M1298.215008,477.365919l0.012423,-0.006902l-0.002761,-0.016564l0.011043,-0.017945l-0.006902,-0.017945l-0.013804,0.002761l-0.009663,0.023466l0.009663,0.033129Z M1298.248137,477.352116l0.006902,0.011043l-0.002761,0.013804l0.009663,0.008282l0.005521,-0.023466l-0.011043,-0.019325l-0.011043,-0.009663l-0.009663,0.005521l0.00138,0.012423l0.011043,0.00138Z M1298.271603,477.408711l0.011043,-0.004141l-0.00138,-0.011043l-0.006902,-0.005521l-0.006902,0.009663l0.004141,0.011043Z M1298.275744,477.454263l0.008282,0.00138l0.004141,-0.008282l-0.011043,-0.002761l-0.008282,0.005521l0.006902,0.004141Z M1298.270223,477.430796h0.013804l0.004141,-0.008282l-0.009663,-0.004141l-0.009663,0.002761l0.00138,0.009663Z M1298.925734,473.313816l0.029448,0.006929l0.036377,-0.006929l0.012126,-0.01559l-0.012126,-0.022519l-0.051967,-0.006929l-0.027716,0.003464l-0.003464,0.020787l0.017322,0.020787Z M1295.100985,474.027492l0.022519,-0.008661l0.010393,-0.025983l-0.001732,-0.041573l-0.012126,-0.032912h-0.017322l-0.022519,0.039841l-0.003464,0.034644l0.024251,0.034644Z M1294.17882,471.58909l0.051074,0.020705l0.017945,-0.002761l-0.00138,-0.011043l-0.027607,-0.020705l-0.040031,-0.009663l-0.009663,0.011043l0.009663,0.012423Z M1294.384494,471.644305l0.009663,-0.006902l-0.024847,-0.013804l-0.011043,0.002761l0.004141,0.009663l0.022086,0.008282Z M1294.398298,471.676053l0.022086,0.03865l-0.012423,-0.002761l-0.024847,-0.034509l-0.017945,-0.011043l-0.005521,0.011043l0.027607,0.024847l0.03865,0.044172l0.026227,0.03865l0.012423,0.00138l-0.020705,-0.041411l0.00138,-0.019325l-0.022086,-0.056595l-0.020705,-0.022086l-0.008282,0.006902l0.004141,0.022086Z "/>
</svg>
