<svg xmlns="http://www.w3.org/2000/svg" viewBox="1083.582 354.709 10.006 13.776">
  <path d="M1086.778,361.216l-0.014-0.052l-0.04-0.012l-0.009-0.031l0.01-0.05l0.061-0.026l0.007-0.054l-0.036-0.026l0-0.03l0.052-0.125l0.035-0.039l0.069-0.042l0.093-0.034l0.067-0.11l0.052-0.047l0.079-0.036l0.034-0.038l0.065-0.155l-0.018-0.078l0.083-0.169l0.068-0.052l0.094-0.187l-0.021-0.078l0.036-0.133l0.138-0.208l0.065-0.052l0.106-0.013l0.069-0.097l-0.003-0.058l-0.046-0.074l0.023-0.081l0.052-0.023l0.085-0.209l0.071-0.063l0.057-0.014l0.036-0.04l0.078-0.22l0.073-0.112l0.143-0.148l0.081-0.099l0.109-0.2l0.104-0.314l0.068-0.052l0.039,0.008l0.042-0.026l0.031-0.114l0.07-0.075l0.159-0.034l0.12-0.122l0.018-0.073l0.036-0.055l0.117-0.073l0.047-0.127l-0.021-0.112l0.005-0.068l0.029-0.075l0.075-0.083l0.086-0.151l0.01-0.073l0.023-0.044l0.049-0.039l0.107-0.146l0.034-0.125l0.091-0.127l0.203-0.13l0.262-0.081l0.15-0.098l0.085-0.024l0.04-0.026l0.064-0.007l0.052,0.019l0.054-0.005l0.022-0.023l0.059-0.007l0.062,0.01l0.118-0.054l0.007-0.038l0.11-0.043l0.008-0.019l-0.018-0.01l-0.076,0.026l-0.08,0.014l0-0.019l0.057-0.044l0.044-0.012l0.058,0.005l0.036,0.036l0.037-0.017l0.061,0.014l0.044,0.026l0.028,0.032l0.018,0.055l0.023,0.064l0.01,0.061l0.028,0.023l0.052,0.007l0.011-0.007l-0.048-0.014l-0.025-0.023l-0.01-0.058l-0.026-0.065l-0.012-0.065l-0.029-0.039l-0.041-0.028l-0.043-0.007l-0.033-0.05l0.01-0.046l0.048-0.044l0.041-0.055l0.03-0.102l0.014-0.023l0.023-0.004l0.021,0.008l0.04-0.022l0.004-0.034l0.032-0.035l0.073-0.025l0.015-0.017l0.002-0.026l0.011-0.006l0.014,0.015l0.015,0.002l0.031-0.006l0.014-0.015l0.01-0.031l0.012-0.005l0.008,0.005l0.005,0.013l0.036,0.014l0.055-0.006l0.013-0.015l0.012-0.005h0.032l0.032,0.022l0.037,0.008l0.023,0.021l0.012,0.021l0.014,0.009l0.026,0.007l0.036,0.039l0.013,0.026l0.009,0.044l-0.008,0.059l0.021,0.022l0.025,0.006l0.015-0.011l0.018,0.008l-0.014,0.032l0.022,0.044l0.039,0.029l0.024,0.001l0.049-0.021l0.02,0.003l0.006,0.014l-0.022,0.046l-0.003,0.023l0.016,0.025l0.015,0.005l0.014,0.001l0.033,0.026l-0.007,0.03l0.025,0.008l0.032-0.007l0.108,0.041l0.015,0.034l0.021,0.001l0.017-0.008l0.003-0.012l-0.015-0.013l-0.002-0.018l0.016-0.015l0.029,0.007l0.015,0.015l0.006,0.022l0.037,0.015l0.022,0.003l0.037-0.006l0.01,0.015l-0.011,0.019l-0.001,0.016l0.017,0.015l0.027-0.012l0.02,0.001l0.01,0.019l-0.015,0.023l0.011,0.019l0.023-0.01l0.035-0.022l0.024,0l0.069,0.021l0.047-0.005l0.083,0.021l0.045-0.014l0.03-0.015l0.017,0l0.007,0.008l-0.016,0.024l-0.03,0.021l0.005,0.012l0.031-0.003l0.008,0.01l-0.006,0.018l-0.017,0.026l-0.016,0.05l0.007,0.048l0.054,0.045l0.006,0.023l-0.013,0.056l0.005,0.026l0.056,0.064l0.055,0.007l0.048-0.016l0.026,0.001l0.027,0.013l0.002,0.017l0.007,0.013l0.013-0.001l0.016-0.021l0.023,0.002l0.014,0.022l-0.002,0.04l-0.016,0.01l-0.031,0.002l-0.047,0.048l-0.057,0.028h-0.043l-0.092,0.036l-0.029,0.031l-0.003,0.024l-0.035,0.036l-0.087,0.055l-0.016,0.035l0.003,0.038l-0.021,0.029l-0.102,0.085l-0.075,0.147l-0.029,0.111l-0.021,0.17l0.005,0.132l0.021,0.087l0.036,0.064l0.01,0.047l-0.005,0.062l0.012,0.114l0.047,0.156l0.048,0.066l0.048,0.011l0.019,0.017l0.005,0.044l-0.049,0.077l0.012,0.14l-0.014,0.042l-0.069,0.011l-0.044,0.034l-0.003,0.044l0.047,0.055v0.039l-0.026,0.039l-0.085,0.051l-0.081,0.123l-0.047,0.133l-0.014,0.126l-0.028,0.099l0.01,0.087l-0.035,0.076l-0.043,0.041l-0.023,0.035l-0.02,0.07l-0.142,0.146l-0.091,0.051l-0.057,0.057l-0.028,0.096l0.028,0.085l-0.005,0.052l-0.043,0.081l-0.09,0.073l-0.049,0.132l0.042,0.142l0.053,0.058l0.017,0.053l-0.011,0.042l-0.094,0.094l-0.035,0.1l-0.003,0.197l-0.045,0.229l-0.073,0.156l-0.021,0.097l0.007,0.09l-0.024,0.107l-0.049,0.062l-0.01,0.049v0.066l-0.059,0.232l-0.007,0.156l-0.038,0.114l-0.042,0.08l-0.021,0.132l0.024,0.1l-0.017,0.09l-0.114,0.343l-0.038,0.274l-0.024,0.028l-0.055,0.017l-0.069,0.125l-0.035,0.17l0.014,0.031l-0.028,0.045l-0.048,0.028l-0.01,0.062l0.048,0.094l-0.01,0.052l-0.024,0.031v0.062l0.038,0.021l0.006,0.027l-0.039,0.052l-0.07,0.042h-0.045l-0.042,0.035l-0.087,0.284l-0.035,0.035l-0.062,0.156l-0.083,0.069l-0.035,0.069l-0.028,0.107l-0.092,0.139l-0.057,0.031l-0.083,0.021l-0.03,0.024l-0.037,0.063l-0.003,0.053l0.035,0.102l-0.013,0.043l-0.044,0.026l-0.021,0.031l-0.003,0.062l-0.036,0.047l-0.06,0.029l-0.138,0.133l-0.078,0.029l-0.065,0.036l-0.036,0.044l-0.044,0.031l-0.081,0.031l-0.039,0.047l-0.042,0.143l0.005,0.096l-0.013,0.044l-0.086,0.062l-0.029,0.042l-0.127,0.434l-0.12,0.286l-0.016,0.094l-0.026,0.029l-0.031,0.094l-0.01,0.192l0.023,0.146l0.013,0.029l-0.003,0.026l-0.016,0.023v0.06l0.008,0.021l-0.003,0.026l-0.019,0.023l0.01,0.168l0.011,0.024l-0.003,0.023l-0.034,0.029l0.01,0.078l0.034,0.031v0.042l-0.029,0.034l0.005,0.133l0.026,0.049l-0.005,0.029l-0.034,0.026l-0.005,0.034l-0.016,0.018l-0.021,0.013l-0.005,0.036l-0.018,0.016l-0.078,0.034l-0.021,0.023l-0.003,0.052l-0.013,0.042l0.008,0.055l0.022,0.05l0.021,0.022l0.018,0.032l0.011,0.026l-0.001,0.031l0.018,0.023l-0.023,0.018l-0.034-0.003l-0.018-0.031l0.003-0.029l-0.015-0.016l-0.022-0.006l-0.035-0.05l-0.025-0.018l-0.036-0.005l-0.065-0.039l-0.042-0.008l-0.044-0.023l-0.016-0.029l-0.023-0.003l-0.044,0.039l-0.013,0.042l0.003,0.031l-0.023,0.047l-0.044,0.008l-0.049-0.065l-0.013-0.088l0.016-0.083l-0.029-0.07l-0.046-0.035l-0.039-0.079l0.007-0.043l0.03-0.022l0.008-0.017l-0.008-0.023l0.01-0.023l0.033-0.011l0.004-0.019l-0.005-0.034l-0.023-0.036l0.01-0.026l0.049-0.021l0.002-0.05l-0.03-0.093l-0.026-0.018l-0.013-0.052l0.005-0.044l-0.026-0.114l-0.026-0.018l-0.013-0.031l0.013-0.044l-0.057-0.117l-0.038-0.045l-0.036-0.021l-0.002-0.021l0.016-0.024l-0.041-0.152l-0.036-0.068l-0.083-0.06l-0.031-0.039l-0.016-0.055l-0.049-0.06l-0.153-0.109l-0.242-0.13l-0.192-0.146l-0.114-0.052l-0.207-0.144l-0.035-0.009l-0.049,0.003l-0.039-0.01l-0.034-0.053l0.024-0.064v-0.06l-0.026-0.052l-0.114-0.125l-0.049-0.138l-0.002-0.065l0.03-0.054l0.017-0.046l0.002-0.055l-0.043-0.08l-0.144-0.339l-0.039-0.018l-0.005-0.031l0.013-0.034l-0.114-0.356v-0.109l-0.021-0.075l-0.094-0.156l-0.122-0.104l-0.168-0.087l-0.079-0.057l-0.04-0.057l-0.004-0.114l0.022-0.068l0.068-0.094l0.015-0.047l0.015-0.001l-0.007,0.047l-0.055,0.088l0.007,0.015l0.117-0.054l0.012-0.043l-0.019-0.033l0.008-0.032l0.041-0.019l0.011-0.039l-0.015-0.019h-0.052l-0.032,0.033l-0.01-0.008l0.004-0.043l0.042-0.107l0.044-0.21l0.016-0.135l0.021-0.034l0.026-0.018l0.035-0.098l0.004-0.097l0.04-0.118l0.096-0.03l0.029-0.037l0-0.034l-0.055-0.038l-0.013-0.032l0.011-0.077l0.042-0.033l-0.002-0.024l-0.071,0.005l-0.024-0.028l0.021-0.052l0.056-0.043l-0.001-0.025l-0.07,0.004l-0.049-0.034l0.003-0.073l0.083-0.031l0.018-0.055l-0.039-0.094l0.002-0.302l0.031-0.105l0.086-0.136L1086.778,361.216z M1092.758,355.172l0.016-0.003l0.01-0.012l-0.003-0.016l-0.024,0.005l-0.005,0.017L1092.758,355.172z M1093.34,356.6l0.007,0.016l0.073,0.007l0.012-0.014l-0.021-0.042l-0.026-0.01l-0.024,0.007l-0.007,0.017L1093.34,356.6z M1086.34,362.269l0.007-0.062l0.031-0.061l0.198-0.239l0.004-0.019l-0.043,0.016l-0.185,0.225l-0.033,0.085l0.005,0.062L1086.34,362.269z M1083.619,362.453l0.038-0.024l-0.003-0.031l-0.048-0.007l-0.024,0.048L1083.619,362.453z M1083.955,363.174l0.007,0.083l0.045,0.028l0.066-0.055l0.014-0.045l-0.052-0.031L1083.955,363.174z M1084.238,362.611l0.029,0.02l0.045,0.002l0.024-0.045l-0.021-0.118l-0.032-0.009l-0.027,0.011l-0.014,0.088L1084.238,362.611z M1084.426,362.595l0.028-0.042l-0.035-0.024l-0.052,0.024v0.045L1084.426,362.595z M1084.703,363.073l0.049-0.014l-0.007-0.031l-0.038-0.007l-0.028,0.028L1084.703,363.073z M1084.89,363.052l0.038,0.007l0.021-0.055l-0.028-0.024l-0.031,0.017V363.052z M1084.647,361.053l0.004,0.035l0.048-0.014l0.042-0.035l-0.007-0.035l-0.045-0.007L1084.647,361.053z M1084.405,362.089l0.052-0.045l-0.042-0.01l-0.09,0.028l-0.014,0.038L1084.405,362.089z M1084.668,361.587l0.035-0.007l0.017-0.031l-0.031-0.014l-0.038,0.031L1084.668,361.587z M1084.183,361.788l0.128-0.017l0.031-0.045l0.021-0.201l0.076-0.035l0.004-0.035l-0.073-0.038l-0.048,0.01l-0.038,0.08l0.01,0.184l-0.031,0.035l-0.097,0.031l-0.004,0.023L1084.183,361.788z M1084.516,361.403l0.031-0.021h0.031l0.045,0.073l0.01,0.062l0.035-0.007l-0.004-0.059l0.031-0.042l-0.017-0.069l-0.087-0.035l-0.118,0.045v0.045L1084.516,361.403z M1084.436,361.857l0.042,0.08l0.048-0.003l0.024,0.021l-0.01,0.038l0.031,0.017l0.083-0.014l0.045-0.028l0.009-0.029l-0.012-0.037l0.038-0.039l0.086-0.064l0.066-0.016l0.052,0.031h0.052l0.017-0.028l-0.045-0.059l-0.003-0.055l-0.038-0.048l-0.087-0.01l-0.032,0.024l-0.023,0.052l-0.031-0.003l0.01-0.073l-0.019-0.013l-0.033,0.009l-0.028,0.038l-0.022,0.064l-0.016,0.012l-0.024-0.006l-0.024-0.055l-0.038-0.001l-0.028,0.022l-0.021,0.076l0.015,0.046l0.037,0.014l0.063,0.002l0.031,0.038l-0.028,0.048l-0.049,0.007l-0.035-0.021l-0.042-0.007l-0.045-0.048L1084.436,361.857z M1084.322,363.035l0.045-0.021l0.007-0.035l-0.038,0.007l-0.024,0.031L1084.322,363.035z M1087.46,366.777l0.034,0.008l0.042-0.042l0.044-0.021l0.008-0.044l-0.042-0.031l-0.068,0.031l-0.01,0.031l-0.003,0.036L1087.46,366.777z M1092.103,368.3l0.031-0.005l0.008-0.023l-0.023-0.016l-0.026,0.023L1092.103,368.3z M1091.841,367.973h0.047l0.047,0.016l0.047,0.07l0.047,0.013l0.031-0.005l0.029-0.055l-0.003-0.029l-0.096-0.044l-0.039-0.052v-0.029l0.031-0.005l0.021-0.018l-0.026-0.016l-0.01-0.036l0.008-0.034l-0.013-0.021l-0.036,0.018h-0.14l-0.052-0.008l-0.021,0.013l0.034,0.034l0.013,0.039l0.005,0.06L1091.841,367.973z M1091.659,365.489l0.047,0.047l0.029-0.008l-0.013-0.06l0.029-0.021l0.01-0.052l-0.026-0.042l-0.138,0.003l-0.013,0.034l0.039,0.091L1091.659,365.489z"/>
</svg>
