<svg xmlns="http://www.w3.org/2000/svg" viewBox="1083.744 354.763 10.009 13.346">
  <path d="M1086.941,361.051l-0.014-0.05l-0.04-0.011l-0.01-0.03l0.01-0.049l0.061-0.025l0.007-0.052l-0.036-0.025l0-0.029l0.052-0.121l0.035-0.038l0.069-0.04l0.093-0.033l0.067-0.106l0.052-0.046l0.079-0.034l0.034-0.036l0.065-0.15l-0.018-0.075l0.083-0.164l0.068-0.05l0.094-0.181l-0.021-0.075l0.036-0.128l0.138-0.201l0.065-0.051l0.106-0.012l0.069-0.094l-0.003-0.056l-0.046-0.072l0.023-0.078l0.052-0.023l0.085-0.202l0.071-0.061l0.057-0.014l0.036-0.038l0.078-0.213l0.073-0.109l0.143-0.143l0.081-0.096l0.109-0.194l0.104-0.304l0.068-0.05l0.039,0.008l0.042-0.025l0.031-0.111l0.07-0.073l0.158-0.033l0.12-0.118l0.018-0.07l0.036-0.053l0.117-0.07l0.047-0.123l-0.021-0.108l0.005-0.065l0.029-0.073l0.075-0.08l0.086-0.146l0.01-0.07l0.023-0.043l0.049-0.038l0.106-0.141l0.034-0.121l0.091-0.123l0.203-0.126l0.262-0.078l0.15-0.095l0.085-0.023l0.04-0.025l0.064-0.007l0.052,0.018l0.054-0.005l0.023-0.022l0.059-0.007l0.062,0.01l0.118-0.052l0.007-0.037l0.11-0.041l0.008-0.019l-0.018-0.009l-0.076,0.025l-0.08,0.013l0-0.019l0.057-0.043l0.044-0.011l0.058,0.005l0.036,0.035l0.037-0.016l0.061,0.013l0.044,0.025l0.028,0.031l0.018,0.053l0.023,0.061l0.01,0.059l0.028,0.023l0.052,0.006l0.011-0.006l-0.048-0.013l-0.025-0.023l-0.01-0.056l-0.026-0.063l-0.012-0.063l-0.029-0.037l-0.041-0.027l-0.043-0.007l-0.033-0.048l0.01-0.044l0.048-0.043l0.041-0.053l0.03-0.099l0.014-0.023l0.023-0.004l0.021,0.008l0.04-0.021l0.004-0.033l0.032-0.033l0.073-0.024l0.015-0.016l0.003-0.025l0.011-0.005l0.014,0.015l0.015,0.002l0.031-0.006l0.014-0.014l0.01-0.03l0.012-0.004l0.008,0.005l0.005,0.013l0.036,0.013l0.055-0.005l0.013-0.015l0.013-0.005h0.032l0.032,0.021l0.037,0.008l0.024,0.02l0.012,0.02l0.014,0.008l0.026,0.007l0.036,0.038l0.013,0.025l0.009,0.043l-0.008,0.057l0.021,0.021l0.025,0.005l0.015-0.011l0.018,0.008l-0.014,0.031l0.022,0.043l0.039,0.028l0.024,0.001l0.049-0.02l0.02,0.003l0.006,0.014l-0.022,0.044l-0.003,0.022l0.016,0.024l0.015,0.005l0.014,0.001l0.033,0.025l-0.007,0.029l0.025,0.008l0.032-0.007l0.108,0.04l0.015,0.033l0.021,0.001l0.017-0.007l0.003-0.011l-0.015-0.012l-0.002-0.017l0.016-0.015l0.029,0.007l0.015,0.014l0.006,0.022l0.037,0.015l0.022,0.003l0.037-0.006l0.01,0.015l-0.011,0.019l-0.001,0.015l0.017,0.014l0.027-0.012l0.02,0.001l0.01,0.019l-0.015,0.023l0.011,0.019l0.024-0.009l0.034-0.021l0.024,0l0.069,0.02l0.047-0.005l0.083,0.02l0.045-0.013l0.03-0.014l0.017,0l0.007,0.008l-0.016,0.023l-0.029,0.02l0.005,0.012l0.031-0.003l0.008,0.01l-0.006,0.017l-0.017,0.025l-0.016,0.049l0.007,0.047l0.054,0.044l0.006,0.022l-0.013,0.054l0.005,0.025l0.055,0.062l0.055,0.007l0.048-0.015l0.026,0.001l0.027,0.013l0.002,0.017l0.008,0.012l0.013,0l0.016-0.02l0.023,0.002l0.014,0.021l-0.002,0.039l-0.016,0.01l-0.031,0.002l-0.047,0.047l-0.057,0.027h-0.043l-0.092,0.035l-0.029,0.03l-0.004,0.023l-0.035,0.035l-0.087,0.054l-0.016,0.034l0.004,0.037l-0.021,0.029l-0.102,0.082l-0.074,0.143l-0.029,0.107l-0.021,0.164l0.005,0.127l0.021,0.084l0.036,0.062l0.01,0.045l-0.005,0.06l0.012,0.111l0.047,0.151l0.049,0.064l0.048,0.011l0.019,0.016l0.005,0.043l-0.049,0.074l0.012,0.136l-0.014,0.04l-0.069,0.01l-0.044,0.033l-0.003,0.043l0.047,0.053v0.038l-0.026,0.038l-0.085,0.05l-0.081,0.119l-0.047,0.129l-0.014,0.122l-0.028,0.096l0.01,0.084l-0.035,0.074l-0.043,0.04l-0.023,0.033l-0.02,0.068l-0.142,0.141l-0.091,0.05l-0.058,0.056l-0.028,0.093l0.028,0.082l-0.005,0.051l-0.043,0.079l-0.09,0.07l-0.048,0.127l0.042,0.138l0.053,0.056l0.017,0.051l-0.011,0.04l-0.094,0.091l-0.035,0.097l-0.004,0.191l-0.045,0.221l-0.073,0.151l-0.021,0.094l0.007,0.087l-0.024,0.104l-0.048,0.06l-0.01,0.047v0.064l-0.059,0.225l-0.007,0.151l-0.038,0.111l-0.042,0.077l-0.021,0.127l0.024,0.097l-0.017,0.087l-0.114,0.332l-0.038,0.265l-0.024,0.027l-0.055,0.017l-0.069,0.121l-0.035,0.164l0.014,0.03l-0.028,0.044l-0.049,0.027l-0.01,0.06l0.049,0.091l-0.01,0.05l-0.024,0.03v0.06l0.038,0.02l0.006,0.026l-0.039,0.051l-0.07,0.04h-0.045l-0.042,0.034l-0.087,0.275l-0.035,0.034l-0.062,0.151l-0.083,0.067l-0.035,0.067l-0.028,0.104l-0.092,0.135l-0.057,0.03l-0.083,0.021l-0.03,0.023l-0.036,0.061l-0.003,0.052l0.035,0.099l-0.013,0.042l-0.044,0.025l-0.021,0.03l-0.003,0.06l-0.036,0.045l-0.06,0.028l-0.138,0.128l-0.078,0.028l-0.065,0.035l-0.036,0.043l-0.044,0.03l-0.08,0.03l-0.039,0.045l-0.042,0.138l0.005,0.093l-0.013,0.043l-0.086,0.06l-0.029,0.04l-0.127,0.42l-0.12,0.277l-0.016,0.091l-0.026,0.028l-0.031,0.091l-0.01,0.186l0.023,0.141l0.013,0.028l-0.003,0.025l-0.016,0.023v0.058l0.008,0.02l-0.003,0.025l-0.019,0.022l0.01,0.163l0.011,0.023l-0.003,0.023l-0.034,0.028l0.01,0.075l0.034,0.03v0.04l-0.029,0.033l0.005,0.128l0.026,0.048l-0.005,0.028l-0.034,0.025l-0.005,0.033l-0.016,0.018l-0.021,0.013l-0.005,0.035l-0.018,0.015l-0.078,0.033l-0.021,0.023l-0.003,0.05l-0.013,0.04l0.008,0.053l0.022,0.049l0.021,0.021l0.018,0.031l0.011,0.025l-0.001,0.03l0.018,0.023l-0.023,0.018l-0.034-0.003l-0.018-0.03l0.003-0.028l-0.015-0.015l-0.022-0.005l-0.034-0.048l-0.025-0.017l-0.036-0.005l-0.065-0.038l-0.042-0.008l-0.044-0.023l-0.016-0.028l-0.023-0.003l-0.044,0.038l-0.013,0.04l0.003,0.03l-0.023,0.045l-0.044,0.008l-0.049-0.063l-0.013-0.086l0.016-0.081l-0.029-0.068l-0.046-0.034l-0.039-0.076l0.007-0.041l0.03-0.021l0.008-0.016l-0.008-0.023l0.01-0.023l0.033-0.011l0.004-0.019l-0.005-0.033l-0.023-0.035l0.01-0.025l0.049-0.02l0.002-0.049l-0.03-0.09l-0.026-0.018l-0.013-0.05l0.005-0.043l-0.026-0.111l-0.026-0.018l-0.013-0.03l0.013-0.043l-0.057-0.113l-0.038-0.044l-0.036-0.02l-0.002-0.02l0.016-0.023l-0.041-0.147l-0.036-0.065l-0.083-0.058l-0.031-0.038l-0.016-0.053l-0.049-0.058l-0.153-0.106l-0.242-0.126l-0.192-0.141l-0.114-0.05l-0.207-0.139l-0.035-0.008l-0.049,0.003l-0.039-0.01l-0.034-0.052l0.024-0.062V365.5l-0.026-0.051l-0.115-0.121l-0.049-0.133l-0.002-0.063l0.03-0.052l0.017-0.044l0.002-0.053l-0.043-0.078l-0.144-0.328l-0.039-0.018l-0.005-0.03l0.013-0.033l-0.114-0.345v-0.106l-0.021-0.073l-0.094-0.151l-0.123-0.101l-0.168-0.084l-0.079-0.055l-0.04-0.055l-0.004-0.11l0.022-0.065l0.068-0.091l0.015-0.045l0.015-0.001l-0.007,0.045l-0.055,0.086l0.007,0.015l0.117-0.052l0.012-0.041l-0.019-0.032l0.008-0.031l0.041-0.019l0.011-0.037l-0.015-0.019h-0.052l-0.032,0.032l-0.01-0.008l0.004-0.042l0.042-0.103l0.044-0.204l0.016-0.131l0.021-0.033l0.026-0.018l0.035-0.095l0.003-0.094l0.04-0.114l0.096-0.029l0.029-0.035l0-0.033l-0.055-0.037l-0.013-0.031l0.011-0.074l0.042-0.032l-0.002-0.023l-0.071,0.005l-0.025-0.027l0.021-0.051l0.055-0.041l0-0.024l-0.07,0.004l-0.049-0.033l0.003-0.07l0.083-0.03l0.018-0.053l-0.039-0.091l0.002-0.292l0.031-0.101l0.086-0.132L1086.941,361.051z M1092.921,355.2l0.016-0.003l0.01-0.012l-0.003-0.015l-0.024,0.005l-0.005,0.017L1092.921,355.2z M1093.503,356.582l0.007,0.015l0.073,0.007l0.012-0.013l-0.021-0.04l-0.026-0.01l-0.024,0.007l-0.007,0.017L1093.503,356.582z M1086.503,362.071l0.007-0.06l0.031-0.059l0.198-0.231l0.003-0.018l-0.043,0.015l-0.185,0.218l-0.033,0.082l0.005,0.06L1086.503,362.071z M1083.782,362.249l0.038-0.023l-0.003-0.03l-0.049-0.007l-0.024,0.047L1083.782,362.249z M1084.118,362.946l0.007,0.081l0.045,0.027l0.066-0.054l0.014-0.044l-0.052-0.03L1084.118,362.946z M1084.401,362.402l0.029,0.019l0.045,0.002l0.024-0.044l-0.021-0.114l-0.032-0.008l-0.027,0.011l-0.014,0.085L1084.401,362.402z M1084.589,362.386l0.028-0.04l-0.035-0.023l-0.052,0.023v0.044L1084.589,362.386z M1084.866,362.849l0.048-0.013l-0.007-0.03l-0.038-0.007l-0.028,0.027L1084.866,362.849z M1085.053,362.829l0.038,0.007l0.021-0.054l-0.028-0.023l-0.031,0.017V362.829z M1084.811,360.894l0.003,0.034l0.049-0.013l0.042-0.034l-0.007-0.034l-0.045-0.007L1084.811,360.894z M1084.568,361.896l0.052-0.044l-0.042-0.01l-0.09,0.027l-0.014,0.037L1084.568,361.896z M1084.831,361.41l0.035-0.007l0.017-0.03l-0.031-0.013l-0.038,0.03L1084.831,361.41z M1084.346,361.605l0.128-0.017l0.031-0.044l0.021-0.195l0.076-0.034l0.003-0.034l-0.073-0.037l-0.048,0.01l-0.038,0.077l0.01,0.178l-0.031,0.034l-0.097,0.03l-0.004,0.022L1084.346,361.605z M1084.679,361.232l0.031-0.02h0.031l0.045,0.07l0.01,0.06l0.035-0.007l-0.003-0.057l0.031-0.04l-0.017-0.067l-0.087-0.034l-0.118,0.044v0.044L1084.679,361.232z M1084.599,361.672l0.042,0.077l0.049-0.003l0.024,0.02l-0.01,0.037l0.031,0.017l0.083-0.013l0.045-0.027l0.009-0.028l-0.012-0.036l0.038-0.037l0.086-0.061l0.066-0.015l0.052,0.03h0.052l0.017-0.027l-0.045-0.057l-0.003-0.054l-0.038-0.047l-0.087-0.01l-0.032,0.023l-0.023,0.05l-0.031-0.003l0.01-0.07l-0.019-0.012l-0.033,0.009l-0.028,0.037l-0.022,0.062l-0.016,0.012l-0.024-0.006l-0.024-0.054l-0.038-0.001l-0.028,0.021l-0.021,0.074l0.015,0.044l0.037,0.014l0.063,0.002l0.031,0.037l-0.028,0.047l-0.048,0.007l-0.035-0.02l-0.042-0.007l-0.045-0.047L1084.599,361.672z M1084.485,362.812l0.045-0.02l0.007-0.034l-0.038,0.007l-0.024,0.03L1084.485,362.812z M1087.623,366.435l0.034,0.008l0.042-0.04l0.044-0.02l0.008-0.043l-0.042-0.03l-0.068,0.03l-0.01,0.03l-0.003,0.035L1087.623,366.435z M1092.266,367.909l0.031-0.005l0.008-0.023l-0.023-0.015l-0.026,0.023L1092.266,367.909z M1092.004,367.592h0.047l0.047,0.015l0.047,0.068l0.047,0.013l0.031-0.005l0.029-0.053l-0.003-0.028l-0.096-0.043l-0.039-0.05v-0.028l0.031-0.005l0.021-0.018l-0.026-0.015l-0.01-0.035l0.008-0.033l-0.013-0.02l-0.036,0.018h-0.14l-0.052-0.008l-0.021,0.013l0.034,0.033l0.013,0.038l0.005,0.058L1092.004,367.592z M1091.822,365.187l0.047,0.045l0.029-0.008l-0.013-0.058l0.029-0.02l0.01-0.05l-0.026-0.04l-0.138,0.003l-0.013,0.033l0.039,0.088L1091.822,365.187z"/>
</svg>
