<svg xmlns="http://www.w3.org/2000/svg" viewBox="786.695 468.585 2.593 5.981">
  <path d="M789.198512,469.48178l0.034748,-0.031274l0.027799,-0.079921l-0.013899,-0.093821l-0.027799,-0.00695l-0.034748,0.048648l0.003475,0.066022l-0.031274,0.045173l-0.003475,0.045173l0.045173,0.00695Z M788.284629,470.520757l0.062547,0.00695l0.017374,-0.024324l-0.041698,-0.041698h-0.038223l-0.031274,0.024324l0.031274,0.034748Z M788.135211,470.663225l0.083396,0.062547l0.069497,0.086871l0.11467,0.066022l0.045173,-0.00695l0.017374,-0.083396l-0.027799,-0.034748l-0.059072,-0.00695l-0.052123,-0.031274l-0.093821,-0.10077l-0.093821,-0.031274l-0.027799,0.020849l0.024324,0.059072Z M788.242931,470.02733l0.031274,-0.013899l0.017374,-0.027799l-0.013899,-0.024324l-0.038223,0.00695l-0.024324,0.045173l0.027799,0.013899Z M788.500069,468.95013l-0.038223,0.083396l0.003475,0.052123l0.020849,-0.003475l0.017374,-0.048648l0.031274,-0.055597l-0.010425,-0.031274l-0.024324,0.003475Z M788.374106,469.319331l-0.007818,0.104245l0.026061,0.002606l0.020849,-0.023455l0.065153,-0.205884v-0.070365l-0.020849,-0.002606l-0.083396,0.19546Z M788.350651,469.50176l0.015637,0.052123l0.026061,0.002606l0.013031,-0.04691l-0.020849,-0.049516l-0.026061,-0.002606l-0.007818,0.044304Z M788.392349,469.66334l0.028667,-0.026061l0.007818,-0.04691l-0.020849,-0.010425l-0.028667,0.023455l-0.005212,0.052123l0.018243,0.007818Z M788.465321,469.655522l0.028667,-0.026061l0.005212,-0.03388l-0.018243,-0.013031l-0.023455,0.015637l-0.015637,0.04691l0.023455,0.010425Z M788.82236,470.713611l0.062547,-0.041698l0.072972,-0.104245v-0.067759l0.013031,-0.03388l0.028667,-0.007818l0.015637,-0.049516l-0.023455,-0.049516l0.005212,-0.026061l0.044304,-0.03388l0.072972,-0.148549l0.013031,-0.091215l0.062547,-0.20849l0.028667,-0.278856l-0.026061,-0.054729h-0.039092l-0.010425,0.078184l-0.041698,0.026061l-0.023455,-0.015637l0.013031,-0.04691l-0.002606,-0.075578l0.023455,-0.059941l0.013031,-0.059941l-0.010425,-0.054729l0.007818,-0.119882l0.018243,-0.039092l0.039092,-0.002606l0.044304,0.028667l0.028667,-0.002606l0.03388,-0.125094l-0.018243,-0.130306l0.010425,-0.174611l-0.028667,-0.057335l-0.039092,0.005212v0.054729l-0.04691,0.062547l-0.099033,0.031274l-0.023455,0.036486l0.026061,0.104245l0.026061,0.049516l-0.020849,0.015637l-0.052123,-0.049516l-0.062547,-0.122488l-0.140731,-0.109457l-0.091215,-0.023455l-0.039092,0.018243l-0.04691,-0.010425l-0.054729,-0.052123l-0.015637,-0.106851l-0.023455,-0.002606l-0.020849,0.039092l0.015637,0.062547l-0.015637,0.145943l0.031274,0.091215l0.083396,0.08079l-0.007818,0.018243l-0.065153,-0.007818l-0.031274,0.023455l0.013031,0.059941l0.039092,0.026061l-0.010425,0.062547l-0.059941,0.049516l0.002606,0.031274l0.109457,0.020849l0.067759,0.052123l-0.007818,0.026061l-0.057335,0.005212l-0.054729,0.101639l0.023455,0.03388l-0.007818,0.028667l-0.028667,0.023455l0.010425,0.03388l0.101639,0.057335v0.039092l-0.023455,0.031274l0.018243,0.015637l0.057335,-0.039092l0.026061,-0.054729l0.023455,0.005212l0.002606,0.044304l-0.015637,0.096427l-0.065153,0.062547h-0.106851l-0.04691,0.018243l-0.049516,-0.020849l-0.036486,-0.070365h-0.026061l-0.015637,0.049516l0.031274,0.044304l0.08079,0.036486l0.08079,-0.007818l0.039092,0.015637l0.065153,0.062547l-0.028667,0.052123l-0.03388,0.015637l-0.044304,-0.010425l-0.028667,0.023455l0.007818,0.065153l-0.028667,0.028667l-0.059941,-0.005212l-0.026061,0.023455l0.028667,0.093821l0.03388,0.028667l-0.005212,0.028667l-0.049516,0.018243l-0.031274,-0.007818l-0.036486,0.039092v0.132913l0.028667,0.031274l-0.015637,0.020849h-0.026061l-0.026061,0.036486l0.013031,0.072972l0.039092,0.036486l0.062547,-0.023455l0.08079,0.020849l0.065153,0.062547l0.026061,-0.007818l-0.010425,-0.04691l0.03388,-0.015637l0.039092,0.028667l-0.002606,0.03388l-0.023455,0.03388l0.002606,0.041698h0.023455l0.010425,-0.044304l0.044304,-0.031274l-0.005212,-0.028667l0.020849,-0.023455l0.028667,0.007818Z M786.813903,471.908955h0.027799l0.024324,0.076446l0.00695,0.066022l0.022586,0.036486l0.001737,0.029536l-0.020849,0.020849l-0.005212,0.033011l0.026061,0.06081l-0.005212,0.029536l-0.031274,0.008687l-0.041698,-0.008687l-0.019112,-0.038223l0.008687,-0.059072l-0.005212,-0.175479l0.010425,-0.079921Z M786.940735,472.167831l0.015637,-0.00695l0.012162,-0.027799l-0.008687,-0.013899l-0.017374,0.003475l-0.017374,0.033011l0.015637,0.012162Z M787.075629,474.215705l0.019383,0.005538l0.002769,-0.011076l-0.012461,-0.017999l-0.011076,-0.004154l-0.01189,0.009121l0.013275,0.018569Z M787.244539,474.080024l0.017999,0.008307l0.009692,-0.008307l-0.008307,-0.01523l-0.013845,-0.002769l-0.011076,0.005538l0.005538,0.012461Z M787.309611,474.127097l0.016614,0.008307l0.009692,-0.006923l-0.009692,-0.017999l-0.012461,-0.004154l-0.009692,0.008307l0.005538,0.012461Z M787.248693,474.359694l0.006923,0.023537l0.009692,0.006923l0.011076,-0.008307l-0.004154,-0.019383l-0.013845,-0.008307l-0.009692,0.005538Z M787.079729,471.874207l0.010425,0.086871l0.022586,0.052123l-0.020849,0.147681l-0.031274,0.036486l-0.022586,0.093821l-0.064285,0.048648l-0.085134,0.017374l-0.036486,0.031274l-0.020849,0.085134l-0.029536,0.048648l0.001737,0.041698l-0.015637,0.045173l-0.013899,-0.00695l0.003475,-0.043435l-0.022586,-0.069497l0.008687,-0.04691l-0.024324,-0.019112l-0.026061,0.012162l-0.010425,0.048648l0.008687,0.041698v0.04691l-0.017374,0.039961l0.005212,0.152893l0.031274,0.104245l0.038223,0.04691l0.005212,0.029536l-0.010425,0.026061l0.001737,0.038223l0.036486,0.076446l0.003475,0.165055l-0.017374,0.064285l-0.071234,0.059072l-0.001737,0.048648l0.052123,0.050385l0.00695,0.057335l-0.010425,0.033011v0.045173l0.031274,0.029536l0.008687,0.039961l-0.001737,0.029536l0.027799,0.027799l0.029536,0.003475l0.072972,0.069497l0.055597,0.104245l0.067759,0.06081l0.04691,0.00695l0.024324,-0.013899l-0.00695,-0.067759l-0.049516,-0.075578v-0.059941l0.013031,-0.018243l0.026061,0.015637l0.036486,0.041698l0.010425,-0.007818l-0.010425,-0.04691l-0.031274,-0.041698l0.007818,-0.020849l0.054729,-0.002606l0.075578,0.093821l0.013031,0.070365l0.04691,0.072972l0.041698,0.005212l0.075578,0.072972l0.026061,0.083396l-0.015637,0.062547l0.020849,0.023455l0.023455,-0.010425l0.020849,0.007818l0.005212,0.049516l0.028125,0.041354l0.013573,-0.004868l-0.010425,-0.052123l0.015637,-0.031274l0.002606,-0.065153l-0.036486,-0.078184l-0.065153,-0.052123l-0.015637,-0.036486l0.020849,-0.018243l0.020849,0.004344l0.020849,0.021718h0.018243l0.007818,-0.02693l0.024324,-0.019112l0.024324,-0.001737l0.034748,-0.038223l0.015637,0.008687l-0.019112,0.039961l-0.038223,0.019112l-0.031274,0.036486l0.005212,0.03388l0.028667,0.013031l0.03388,0.065153l0.03388,0.179823l0.049516,0.075578l0.059941,0.140731l0.104245,0.091215l0.065153,0.002606l0.065153,-0.031274l0.132913,-0.1277l0.041698,-0.138125l-0.002606,-0.067759l-0.078184,-0.130306l-0.078184,-0.211096l-0.015637,-0.156368l0.010425,-0.166792l-0.007818,-0.078184l-0.036486,-0.065153l-0.03388,-0.096427l-0.052123,-0.031274l-0.031274,0.010425l-0.002606,0.059941l0.036486,0.03388l0.023455,0.101639l-0.020849,0.036486l-0.059941,0.005212l-0.031274,-0.039092l-0.031274,-0.002606l-0.031274,0.039092h-0.03388l-0.015637,-0.03388l-0.041698,-0.005212l-0.041698,0.044304l-0.026061,-0.005212l0.002606,-0.031274l0.062547,-0.075578l0.007818,-0.049516l-0.03388,-0.04691l0.002606,-0.166792l0.015637,-0.088608l-0.020849,-0.039092l-0.044304,-0.005212l-0.026061,-0.023455l0.010425,-0.044304l-0.026061,-0.072972l-0.052123,-0.044304l-0.093821,-0.239764l-0.04691,-0.234552l0.026061,-0.117276l0.005212,-0.148549l-0.059072,-0.135519l-0.147681,-0.177217l-0.038223,0.007818l-0.024324,0.098164Z M787.566206,474.310069l0.005212,-0.029536l-0.00695,-0.015637l-0.010425,0.003475l-0.008687,0.019112l0.010425,0.024324l0.010425,-0.001737Z "/>
</svg>
