<svg xmlns="http://www.w3.org/2000/svg" viewBox="758.441 483.344 31.926 17.507">
  <path d="M770.68,500.851l-0.001-0.02l-0.03-0.044v-0.043l0.027-0.081l0.002-0.03l-0.03-0.031l0.001-0.031l0.021-0.026l0.001-0.022l-0.145-0.128l-0.051-0.016l-0.08-0.086l-0.01-0.072l0.056-0.139l0.007-0.089l0.03-0.062l0.001-0.044l-0.037-0.045l-0.027-0.198l0.003-0.111l0.037-0.068l0.004-0.106l-0.028-0.115l-0.027-0.019l-0.015-0.041l-0.002-0.039l-0.026-0.047l-0.023-0.008l-0.013-0.018l-0.003-0.043l-0.009-0.028l-0.029-0.039l-0.009-0.214l-0.018-0.027l0.001-0.064l0.06-0.077v-0.015l-0.012-0.021l0.002-0.038l0.059-0.101l0.005-0.142l0.021-0.054l0.083-0.143l0.013-0.154l-0.014-0.009l-0.023,0.02l-0.029,0.004l-0.015-0.024l0.025-0.04l-0.057-0.177l-0.051-0.021l-0.017-0.043l0.004-0.06l0.013-0.033l-0.012-0.074l-0.047-0.034l-0.012-0.024l-0.004-0.052l-0.145-0.107l-0.04-0.07l-0.004-0.045l-0.021-0.043l0.004-0.071l-0.04-0.076l0.003-0.03l0.045-0.014l0.024-0.047l-0.001-0.036l-0.01-0.026l0.001-0.052l0.013-0.029l0.001-0.035l-0.039-0.084v-0.034l0.086-0.258l-0.002-0.047l-0.078-0.204l0.002-0.035l0.116-0.098l0.035-0.016l0.102-0.104l0.014-0.035l0.027-0.022h0.057l0.041-0.043l0.012-0.07l0.023-0.03l0.079-0.006l0.066-0.019l0.057-0.04l0.055-0.102l0.006-0.041l-0.02-0.047v-0.031l0.02-0.028l0.006-0.098l0.025-0.041v-0.053l0.022-0.113l0.067-0.071l0.025-0.041l0.096-0.332l0.002-0.07l-0.019-0.085l0.004-0.047l0.013-0.045l0.032-0.064l0.017-0.114l0.004-0.063l-0.006-0.086l-0.025-0.049l0.002-0.035l0.012-0.032l0.007-0.07l-0.017-0.026v-0.025h1.419l0.116,0.017l0.029,0.034l0.034,0.002l0.055-0.03l0.019-0.041l0.018-0.002l0.027,0.031v0.03l0.049,0.006l0.02-0.014h0.027l0.048,0.029l0.055-0.005l0.013-0.021l-0.018-0.031l0.016-0.024l0.054-0.005l0.034,0.016l-0.005,0.034l0.024,0.039l0.047,0.005l0.015-0.023l-0.02-0.024l0.023-0.036h0.052l0.04,0.02l0.055-0.005l0.013-0.044l0.034-0.003l0.068,0.032l0.12-0.021l0.044,0.023l0.032-0.005l0.023-0.039l0.141-0.097v-0.034l0.016-0.018h0.042l0.016-0.04l-0.011-0.054l0.013-0.029l0.06,0.008l0.024-0.026l0.123-0.008l0.062-0.045l0.079-0.099l0.01-0.037l0.055-0.031h0.045l0.044,0.018l0.005,0.032l0.037,0.023h0.039l0.024-0.018l0.049,0.002l0.076,0.034h0.071l0.029-0.039l0.028,0.003l0.029,0.042l0.008,0.102l0.031,0.007l0.032-0.026l0.047,0.003l0.015,0.047l0.053,0.042h0.055l0.086,0.042l0.015,0.052l0.061,0.112l0.041,0.006l0.04-0.029l0.065-0.013l0.034-0.066l0.034-0.005l0.029,0.024l0.01,0.049l-0.026,0.034v0.034l0.113,0.074l0.047-0.008l0.036-0.073l0.032,0.01v0.034l-0.024,0.016v0.018l0.078,0.044l0.003,0.032l-0.044,0.044v0.058l-0.019,0.07l0.008,0.139l0.06,0.094l0.039,0.039l0.048,0.003l0.041-0.039l0.108-0.021l0.039,0.015l0.013,0.063l0.057,0.026l0.079-0.013l0.057-0.036l0.084,0.021l0.105-0.118l0.034-0.003l0.028,0.032h0.024l0.021-0.029l0.031-0.003l0.034,0.016l0.246-0.011l0.065,0.042l0.008,0.037l-0.044,0.138l0.023,0.061l0.034,0.01l0.037-0.013l0.052-0.076l0.063-0.042l0.01-0.034l0.042-0.057h0.034l0.078,0.05l0.019,0.036l0.044,0.05h0.055l0.034-0.039l0.063-0.008l0.128-0.089l0.05-0.068l0.086-0.066l0.141-0.057l0.026-0.076l0.066-0.076l0.023-0.149l0.021-0.055h0.029l0.034,0.019l0.005,0.055l0.047,0.049l0.126,0.04l0.031-0.003l0.026-0.026h0.031l0.053,0.055l0.06,0.005l0.031-0.021l0.081-0.003l0.081-0.062h0.037l0.055,0.021l0.063-0.006l0.078,0.024l0.118,0.104l0.062,0.024h0.074l0.065,0.018l0.086-0.002l0.097,0.018l0.133,0.065l0.058,0.005l0.115-0.073l0.06-0.005l0.076,0.021l0.052,0.042l0.034,0.06l0.055,0.039l0.057,0.003l0.061,0.01l0.06,0.037l0.06,0.002l0.065-0.026l0.042-0.083l0.036-0.057l0.053-0.047l0.104-0.021l0.067-0.039l0.147-0.004l0.149,0.029h0.062l0.098-0.045l0.093-0.102l0.054-0.033l0.061-0.01l0.041-0.028l0.083-0.009l0.135-0.049l0.055-0.04l0.1-0.123l0.008-0.104l-0.041-0.045v-0.037l0.019-0.03l0.01-0.066l0.02-0.046l0.053-0.023l0.029-0.051l0.012-0.059l0.015-0.027l0.026-0.016l0.01-0.206l0.027-0.027l0.079-0.012l0.037-0.033l0.012-0.034l0.039-0.029l0.072-0.006l0.063-0.057l0.104-0.01l0.057,0.036l0.063,0.003l0.06-0.027h0.046l0.045,0.041h0.084l0.041,0.012l0.057-0.002l0.114-0.051l0.066,0.004l0.018,0.023l0.022-0.002l0.009-0.021l0.038-0.002l0.031,0.029l0.077,0.002l0.037,0.018h0.041l0.043-0.02l0.1,0.014l0.082,0.045l0.051,0.006l0.034,0.035l0.012,0.073l0.023,0.045l0.039,0.004l0.026-0.014l0.061-0.002l0.058,0.022l0.089,0.086l0.011,0.039l0.045,0.041l0.112,0.042l0.088,0.004l0.051,0.019l0.018,0.043l0.055,0.04l0.053,0.003l0.071-0.015l0.051-0.075l0.049-0.031l0.007-0.031l0.051-0.038l0.098-0.037l0.128-0.096l0.023-0.057l0.108-0.102l0.083-0.053l0.033-0.004l0.027,0.01l0.063,0.002l0.059-0.041l0.116,0.006l0.051,0.021l0.027-0.004l0.033-0.037l0.012-0.041l0.081-0.043l0.068-0.018l0.084-0.078l0.071-0.018l0.045-0.041l0.014-0.045l0.067-0.047l0.107-0.02h0.093l0.054,0.02l0.1-0.002l0.03-0.024l0.035,0.002l0.043,0.018l0.03-0.004l0.031-0.033l0.2-0.008l0.161-0.055l0.147,0.014l0.121,0.047l0.036,0.031l0.119,0.029l0.036-0.003l0.021-0.026l0.071-0.031l0.027-0.043l0.059-0.042l0.051-0.023l0.075-0.1l0.07-0.037l0.01-0.026l0.314-0.137l0.104-0.073l0.017-0.029l0.092-0.035l0.118-0.118l0.069-0.031l0.106-0.01l0.056-0.022l0.051-0.053l0.051-0.004l0.059-0.025l0.132-0.004l0.062-0.028l0.094-0.002l0.051-0.031l0.061-0.021l0.079-0.006l0.111-0.063l0.049-0.006l0.038-0.016l0.012-0.027l0.105-0.063l0.071-0.07l0.053-0.014l0.045,0.006l0.031-0.01l0.03-0.043l0.082-0.038l0.261-0.06l0.145-0.108l0.018-0.047l0.074-0.053l0.043,0.006l0.032-0.018l0.019-0.057l0.181-0.161l0.064-0.025l0.095-0.065L770.68,500.851z M758.446,483.344l-0.002,0.044l0.023,0.092l-0.023,0.036l-0.003,0.034l0.031,0.021l0.006,0.031l0.021,0.037l0.049,0.016l0.055,0.057l0.086,0.053l0.084,0.02l0.034,0.058l0.031,0.026l0.016,0.042l0.06,0.013l0.026,0.018l0.024,0.003l0.026-0.016h0.026l0.037,0.016h0.029l0.06-0.06l0.026-0.037l0.081-0.01l0.026-0.019l0.23,0.034l0.348,0.136l0.002,0.029l-0.065,0.118l-0.003,0.031l0.032,0.066l0.01,0.083l0.094,0.123l0.087,0.063l0.09-0.012l0.004-0.035l0.204-0.047l0.251,0.055l0.078-0.024l0.055,0.031l0.067,0.11l0.235,0.134l0.318-0.008l0.353-0.036l0.047,0.032l0.051,0.012l0.106,0.07l-0.02,0.086l0.231,0.306l0.114-0.027l0.118,0.023l0.125,0.059l0.269,0.015l0.128,0.028l0.028,0.041l0.018,0.082l0.027,0.016l0.104,0.006l0.044,0.044l0.007,0.043l0.177,0.108l0.035,0.003l0.07-0.034l0.02,0.004l0.014,0.066l0.029,0.003l0.02-0.026h0.017l0.038,0.058l0.025,0.013l0.097,0.001l0.145-0.12l0.025,0.002l0.032,0.035l0.037,0.089l0.059,0.049l0.039,0.013l0.096,0.097l0.055,0.019l0.033,0.032l0.065,0.035l0.037,0.047l0.091,0.051l0.127,0.01l0.084,0.033l0.028-0.002l0.033-0.037l0.051-0.012l0.018-0.016l0.033-0.002l0.051,0.036l0.045,0.002l0.071-0.051l0.033,0.005l0.016,0.016h0.019l0.016-0.016l0.031,0.002l0.034,0.026l0.011,0.033l0.038,0.03l0.006,0.029l0.043,0.026l0.029-0.004l0.026,0.013l0.008,0.022l0.015,0.01l0.03-0.006l0.017,0.008l0.004,0.037l0.041,0.025l0.061,0.073l-0.002,0.018l-0.021,0.015l0.006,0.045l0.025,0.008l0.027,0.041l0.044,0.03l0.066-0.002l0.065,0.029h0.025l0.02-0.013l0.029,0.002l0.02,0.011l0.031-0.002l0.081-0.043l0.051-0.084l0.027-0.004l0.026,0.006l0.031-0.004l0.037-0.026l0.03,0.002l0.023,0.028l0.028,0.004l0.049,0.037l0.086,0.006l0.055,0.014l0.016,0.021l0.019,0.002l0.026-0.021l0.055,0.004l0.033,0.019l0.024-0.002l0.019-0.031l0.045-0.061l0.077-0.014l0.11,0.018l0.017,0.031l0.047,0.036l0.037,0.007l0.046,0.036l0.007,0.039l0.047,0.035l0.036,0.014l0.066,0.055l0.038,0.01l0.021,0.015l0.02,0.038l0.053,0.037l0.063,0.037l0.021,0.063l0.03,0.006l0.017-0.016l0.03,0.002l0.005,0.024l0.026,0.009l0.004-0.039l0.012-0.1l0.045-0.084l0.004-0.026l-0.012-0.027l0.004-0.035l0.035-0.034l0.002-0.023l-0.037-0.037l-0.002-0.046l-0.026-0.058l-0.002-0.038l0.036-0.084l0.086-0.094l0.11-0.053l0.062-0.041h0.038l0.039,0.019l0.041,0.053l0.008,0.022l0.018,0.018l0.029,0.003l0.027,0.022l0.012,0.029l0.034,0.03l0.035,0.014l0.043,0.037l0.035,0.053l0.085,0.072l0.1,0.063l0.211,0.204l0.183,0.182l0.125,0.102l0.055,0.065l0.018,0.08l0.055,0.085l0.082,0.086l0.235,0.288l0.038,0.085l0.06,0.082l0.094,0.074l0.073,0.085l0.004,0.031l-0.014,0.024l0.002,0.025l0.132,0.167l0.009,0.064l-0.011,0.046l-0.063,0.072l-0.006,0.035l0.022,0.051l0.051,0.03l0.111,0.237v0.112l-0.013,0.045v0.045l0.053,0.073l0.015,0.078l-0.012,0.088l-0.031,0.065l-0.025,0.165l-0.026,0.049v0.057l0.01,0.084l0.029,0.053l0.022,0.002l0.021-0.024l0.03,0.016l0.006,0.098l-0.008,0.035l-0.068,0.054l-0.021,0.048l0.001,0.046l0.028,0.029l-0.002,0.019l-0.011,0.013l0.001,0.044l0.035,0.045l0.115,0.059l0.036,0.034v0.03l-0.023,0.034v0.024l0.096,0.079l0.001,0.017l-0.006,0.013v0.021l0.04,0.033l0.001,0.017l-0.01,0.016l0.001,0.025l0.021,0.015v0.03l-0.026,0.047l-0.001,0.037l0.083,0.075l0.032,0.071l-0.003,0.037l-0.03,0.051l-0.001,0.026l0.017,0.033l0.005,0.065l-0.008,0.102l-0.022,0.025l0.001,0.022l0.019,0.018l0.002,0.04l-0.025,0.052l-0.002,0.039l0.03,0.032v0.034l-0.03,0.04l-0.002,0.026l0.012,0.021l-0.002,0.013l-0.048,0.036l-0.033,0.044l-0.051,0.116l-0.045,0.024l-0.033,0.068l-0.019,0.056l0.005,0.047l0.02,0.014l0.034-0.001l0.038,0.008l0.002,0.017l-0.006,0.029l0.002,0.045l0.016,0.041l-0.001,0.035l-0.015,0.025l0.011,0.047l0.055,0.066l0.166,0.1l0.017,0.033l0.006,0.042l0.054,0.047l0.123,0.051l0.022,0.022l0.004,0.034l0.039,0.048l0.016,0.034l-0.004,0.046l0.022,0.017h0.026l0.046,0.038l0.004,0.029l-0.015,0.036l-0.023,0.019l-0.008,0.039l0.013,0.053l0.025,0.015l0.035-0.001l0.32,0.18l0.132,0.097l0.002,0.026l-0.022,0.048l0.002,0.06l0.034,0.038l0.021,0.079l0.064,0.086l0.02,0.091l0.006,0.147l-0.006,0.04v0.019L758.446,483.344z"/>
</svg>
