<svg xmlns="http://www.w3.org/2000/svg" viewBox="1347.511 387.841 0.234 0.168">
  <path d="M1347.514,387.979h0.014l0.041,-0.029 l0.025,-0.011h0.015l0.01,0.01v0.018l-0.008,0.007l-0.011,-0.004l-0.021,0.011l-0.006,0.01l-0.041,0.018h-0.014l-0.007,-0.017 l0.003,-0.012Z M1347.618,387.847l0.007,0.01h0.011v-0.012l-0.01,-0.004 l-0.008,0.007Z M1347.723,387.873l0.011,0.01l0.011,-0.007l-0.006,-0.011h-0.008l-0.008,0.008 Z M1347.637,387.918l0.006,-0.004h0.008l0.008,0.006l0.008,-0.004v-0.008l-0.035,-0.001 l-0.004,0.01l0.008,0.003Z "/>
</svg>
