<svg xmlns="http://www.w3.org/2000/svg" viewBox="1318.162 343.231 0.284 0.093">
  <path d="M1318.168,343.324l-0.006-0.01l0.03-0.035l0.006-0.019l-0.001-0.015l0.027-0.012l0.043-0.001l0.011,0.009l0.02-0.003l0.008,0.002l0,0.007l-0.028,0.001l-0.005,0.012l0.016,0.004l0.014,0l0.003,0.007l-0.049,0.02l-0.001,0.012l-0.006,0.003l-0.006-0.008l-0.022,0.012L1318.168,343.324z M1318.341,343.292l0.01-0.01l-0.001-0.01l-0.011-0.002l-0.005,0.004l0.004,0.008l-0.002,0.007L1318.341,343.292z M1318.378,343.286l0.024,0.001l0.042-0.009l0.002-0.013l-0.014-0.033l-0.009-0.001l-0.002,0.009l-0.013,0.016l-0.014,0.009l-0.032,0.01l-0.001,0.006L1318.378,343.286z"/>
</svg>
