<svg xmlns="http://www.w3.org/2000/svg" viewBox="1259.139 343.143 124.119 108.926">
  <path d="M1375.549,428.907457l0.048776,-0.032646l-0.020849,-0.039092l0.052123,-0.054729l0.054729,-0.023455l0.005212,-0.028667l-0.091215,-0.031274l-0.079861,-0.002549l-0.079113,0.033823h-0.078184l-0.054729,0.015637l0.015637,0.023455l0.057335,0.005212l0.031274,0.023455l0.005008,0.024037l-0.012826,0.017661l0.020849,0.020849l0.070365,0.010425l0.055469,0.037858Z Z M1374.260,426.757765l0.104245,0.031274l0.11467,-0.031274l0.026061,-0.093821l-0.073218,-0.053669l-0.13006,0.001546l-0.062547,0.062547l0.020849,0.083396Z Z M1383.056,452.036812l0.013845,0.026306l0.058149,0.005538l0.11353,-0.013845l0.015912,-0.02802l-0.006221,-0.064742l-0.022152,-0.029075l-0.081686,-0.009692l-0.037382,0.017999l-0.022152,0.056765l-0.031844,0.038766Z Z M1321.244032,447.652495l-0.004141,-0.030368l-0.011043,-0.028988l0.009663,-0.009663l0.022086,0.008282l0.016564,0.035889v0.028988l-0.009663,0.015184l-0.016564,-0.00138l-0.006902,-0.017945Z  M1321.842721,449.869042l-0.006902,-0.012423l0.017945,-0.028988l0.020705,-0.004141l0.024847,0.011043l0.008282,0.016564l-0.006902,0.015184l-0.022086,0.005521l-0.035889,-0.002761Z  M1259.196882,378.100469l0.002227,-0.007793l0.009402,-0.000566l0.035687,0.021162l0.022823,0.02171l0.003897,0.014473l-0.006123,0.007237l-0.012246,-0.005567l-0.02004,0.004453l-0.006123,-0.005567l0.008906,-0.008906l-0.01336,-0.017813l-0.00668,-0.012246l-0.01837,-0.010576Z M1259.278154,378.140548l-0.002227,0.01503l0.00334,0.00835l0.008906,-0.00167l0.008906,-0.010576l0.007791,0.000465l0.004467,0.0067l-0.007248,0.018441l0.019483,0.040636l-0.006123,0.019483l-0.081272,-0.017813l-0.017256,-0.017813l-0.018926,-0.005567l-0.036183,-0.026163l-0.004453,-0.013916l-0.011133,-0.002227l-0.007793,0.014473l0.00501,0.012803l0.077932,0.055109l0.026163,0.006123l0.107991,0.051769l0.00668,-0.003897l-0.01169,-0.032286l0.00167,-0.043976l-0.02171,-0.047872l0.001113,-0.027833l-0.009463,-0.01002l-0.033399,0.004453l-0.010576,0.007793Z  M1318.446902,343.236123l-0.00649,-0.010096l0.030288,-0.035336l0.005769,-0.019471l-0.000721,-0.015144l0.026682,-0.011538l0.043268,-0.000721l0.010817,0.009375l0.019991,-0.002656l0.007956,0.00217l0.000177,0.006976l-0.028124,0.001442l-0.005048,0.011538l0.015865,0.004327l0.013832,-0.000401l0.003476,0.006891l-0.049037,0.020192l-0.001442,0.012259l-0.005769,0.002885l-0.00649,-0.007932l-0.022355,0.011538l-0.052643,0.013702Z M1318.619975,343.203672l0.010055,-0.009738l-0.001447,-0.010126l-0.010772,-0.00177l-0.005048,0.004327l0.003606,0.007932l-0.002163,0.007211l0.005769,0.002163Z M1318.657474,343.197903l0.023797,0.001442l0.041826,-0.009375l0.002163,-0.01298l-0.013702,-0.033172l-0.009375,-0.001442l-0.002163,0.008654l-0.01298,0.015865l-0.014423,0.008654l-0.03173,0.010096l-0.000721,0.00649l0.017307,0.005769Z  M1347.514191,387.979173l0.013804,-0.00138l0.041411,-0.027607l0.024847,-0.011043h0.015184l0.009663,0.009663v0.017945l-0.008282,0.006902l-0.011043,-0.004141l-0.020705,0.011043l-0.005521,0.009663l-0.041411,0.017945l-0.013804,-0.00138l-0.006902,-0.015184l0.002761,-0.012423Z M1347.617719,387.846658l0.006902,0.009663h0.011043l0.00138,-0.012423l-0.011043,-0.004141l-0.008282,0.006902Z M1347.722626,387.872885l0.011043,0.009663l0.011043,-0.006902l-0.005521,-0.011043l-0.008282,-0.00138l-0.008282,0.009663Z M1347.637044,387.918437l0.005521,-0.004141h0.008282l0.008282,0.005521l0.008282,-0.004141l-0.00138,-0.008282l-0.033129,-0.00138l-0.004141,0.009663l0.008282,0.002761Z "/>
</svg>
