<svg xmlns="http://www.w3.org/2000/svg" viewBox="-54.018 222.842 93.492 19.048">
  <path d="M-53.866,233.659l0.133,-0.098l0.102,-0.082l0.192,-0.094l0.176,-0.035l0.141,0.008l0.169,-0.043l0.149,0.008l0.063,0.027l0.267,0.024l0.11,0.051l0.024,0.035l0.118,0.012l0.094,-0.02l0.145,-0.055l0.408,0.012l0.137,0.078l0.047,0.078l-0.067,0.106l0.016,0.051l0.086,0.02l0.169,-0.098l0.133,0.008l0.176,0.098l-0.035,0.118l-0.106,0.067l-0.004,0.063l0.063,0.031l0.239,0.008l0.216,0.051l0.039,0.067l-0.039,0.039l-0.169,-0.02l-0.173,0.027l-0.114,-0.02l-0.153,-0.071l-0.102,-0.012l-0.078,0.055l-0.153,0.216l-0.137,0.024l-0.086,-0.043l-0.086,-0.137l-0.078,-0.02l-0.157,0.078l-0.2,0.271l-0.149,0.051l-0.035,-0.024l-0.004,-0.125l-0.074,-0.082l-0.082,-0.02l-0.055,0.027h-0.047l-0.039,-0.031l-0.039,0.012l-0.02,0.063l-0.047,0.012l-0.075,-0.027l-0.118,-0.012l-0.016,-0.031l0.086,-0.09l0.016,-0.059l-0.012,-0.098l0.031,-0.071l0.059,-0.059l0.023,-0.055l-0.031,-0.008l-0.094,0.039l-0.482,0.047l-0.016,-0.027l0.067,-0.192l-0.035,-0.035h-0.192l-0.176,0.067h-0.098l-0.173,-0.051l0.008,-0.051L-53.866,233.659L-53.866,233.659z M-50.685,236.207l0.036,0.052l0.23,0.089l0.261,0.021l0.246,-0.047l0.11,0.031l0.136,0.094l0.094,0.031l0.099,-0.005l0.089,0.026l0.047,-0.016l-0.01,-0.173l-0.084,-0.214l0.042,-0.11l0.099,-0.115l0.157,-0.094l-0.021,-0.042l-0.146,-0.026l-0.413,0.052l-0.256,0.157l-0.031,0.078l-0.209,0.078l-0.146,-0.042h-0.089l-0.073,0.068l-0.125,0.031L-50.685,236.207L-50.685,236.207z M-48.795,234.463l-0.016,0.024l0.055,0.078l0.078,0.027l0.09,0.004l0.023,-0.027l-0.118,-0.078L-48.795,234.463L-48.795,234.463z M-48.478,234.577l-0.016,0.027l0.035,0.055l0.169,0.075l0.035,-0.024l-0.004,-0.051l-0.118,-0.055L-48.478,234.577L-48.478,234.577z M-48.074,234.691l0.004,0.031l0.129,0.055l0.18,0.024l0.012,-0.043l-0.059,-0.063l-0.122,-0.051h-0.078l-0.027,0.02L-48.074,234.691L-48.074,234.691z M-41.391,236.408l-0.031,0.047l0.063,0.133l0.086,0.024l0.149,-0.024l0.047,-0.071l-0.024,-0.063l-0.149,-0.063L-41.391,236.408L-41.391,236.408z M-32.516,239.187l0.094,0.094l0.089,0.021l0.115,-0.021l0.01,-0.026l-0.136,-0.146l-0.256,-0.089l-0.183,-0.031l-0.005,0.031L-32.516,239.187L-32.516,239.187z M-31.854,238.259l-0.063,0.082l-0.008,0.114l0.129,0.192l0.157,0.035l0.192,-0.169l0.047,-0.078l-0.012,-0.043l-0.259,-0.129L-31.854,238.259L-31.854,238.259z M-33.133,238.228l0.141,0.02l0.098,-0.059l-0.008,-0.094l-0.039,-0.09l-0.106,-0.051l-0.157,0.039l-0.039,0.075l0.012,0.122L-33.133,238.228L-33.133,238.228z M-32.533,238.357l0.063,-0.004l0.004,-0.031l-0.027,-0.035l-0.043,-0.016l-0.043,0.02l-0.012,0.031L-32.533,238.357L-32.533,238.357z M-32.372,238.389l-0.012,0.031l0.004,0.039h0.031l0.09,-0.059l0.008,-0.027l-0.051,-0.012L-32.372,238.389L-32.372,238.389z M-34.929,238.326l-0.039,0.035l-0.004,0.035l0.063,0.043l0.145,0.024l0.106,-0.02v-0.02l-0.122,-0.039l-0.059,-0.008l-0.039,-0.035L-34.929,238.326L-34.929,238.326z M-36.505,238.706l0.008,0.055l0.027,0.024l0.086,0.008l0.212,0.145l0.027,0.055l0.067,0.012l0.047,-0.047l-0.004,-0.145l0.09,-0.165l0.129,-0.082l0.141,-0.039l0.086,0.02l0.027,0.075l0.051,0.008l0.024,-0.016l0.027,-0.078l0.082,-0.004l0.114,0.055l0.125,-0.004l0.098,-0.051l0.004,-0.059l-0.039,-0.035l-0.125,-0.027l-0.067,-0.086l0.024,-0.043l0.094,0.012l0.027,-0.043l-0.004,-0.059l0.11,-0.118l0.114,-0.067l0.122,-0.184l-0.004,-0.102l-0.153,-0.137l-0.114,-0.024l-0.114,0.031l-0.063,0.133l-0.012,0.09l-0.125,0.141l-0.039,0.176l-0.063,0.102l-0.078,0.035l-0.302,0.02l-0.118,0.059l-0.074,0.082l-0.02,0.063l-0.098,0.078l-0.204,0.039l-0.106,0.059L-36.505,238.706L-36.505,238.706z M-31.254,239.898v0.043l0.114,0.086l0.216,0.122l0.22,0.071l0.098,0.008l0.102,-0.027l0.118,0.039l0.216,0.118l0.098,0.02l0.078,0.051l0.016,0.051l0.267,0.239l0.059,0.063l0.463,0.29l0.145,0.039l0.008,0.02l-0.043,0.063l0.027,0.063l0.09,0.024l0.141,-0.051l0.231,-0.008l0.102,-0.055l0.059,-0.02l0.016,0.016l-0.035,0.051l0.008,0.024l0.098,0.012l0.196,-0.051l0.027,-0.027l-0.008,-0.02l-0.11,-0.035l-0.078,0.004l-0.031,-0.027l-0.008,-0.071l-0.067,-0.027l-0.228,0.039l-0.122,0.035l-0.035,-0.008l0.008,-0.024l0.082,-0.055l-0.016,-0.027l-0.102,0.012l-0.051,0.016l-0.082,-0.016l-0.055,-0.043l-0.008,-0.039l-0.094,-0.075l-0.004,-0.063l-0.051,-0.016h-0.082l-0.247,-0.133l-0.114,-0.114l-0.067,-0.027l-0.059,-0.039l-0.106,-0.133v-0.063l-0.075,-0.047l-0.086,0.012l-0.09,-0.027l-0.047,-0.09l-0.11,-0.067l-0.451,-0.09l-0.098,0.02l-0.141,-0.043l-0.059,-0.051l-0.086,-0.024l-0.074,0.024l-0.02,0.035L-31.254,239.898L-31.254,239.898z M-28.035,238.267l-0.027,0.031l-0.004,0.059l0.035,0.059l-0.008,0.043l-0.039,0.047l0.051,0.082l0.22,0.145l0.11,0.012l0.196,0.067l0.106,-0.027l0.063,-0.09l0.22,-0.071l0.043,-0.039l-0.012,-0.039l-0.043,-0.027l0.008,-0.039l0.106,-0.016l0.016,-0.082l-0.086,-0.078l-0.141,-0.063l-0.055,-0.071l-0.184,-0.106h-0.106l-0.169,0.094l-0.11,0.102l-0.094,0.024L-28.035,238.267L-28.035,238.267z M-21.891,240.176l-0.021,0.031l0.094,0.141l0.11,0.047l0.178,-0.016l0.042,-0.037l-0.068,-0.073l-0.178,-0.01L-21.891,240.176L-21.891,240.176z M-19.878,240.677l0.042,0.016l0.078,-0.01l0.005,-0.026l-0.052,-0.016l-0.047,0.005L-19.878,240.677L-19.878,240.677z M-22.659,240.212l0.063,0.021l0.047,-0.01l-0.037,-0.078l-0.078,-0.01l-0.026,0.031L-22.659,240.212L-22.659,240.212z M-21.211,240.139l0.099,0.005l0.078,-0.042l-0.01,-0.052l-0.12,-0.026l-0.105,0.021v0.063L-21.211,240.139L-21.211,240.139z M-20.965,240.139l0.057,0.021l0.052,-0.016v-0.063l-0.052,-0.026l-0.063,0.01l-0.016,0.037L-20.965,240.139L-20.965,240.139z M-21.791,239.365h0.172l0.12,-0.063l0.037,-0.125l-0.11,-0.146l-0.188,-0.058l-0.136,0.031l-0.068,0.125l-0.01,0.11L-21.791,239.365L-21.791,239.365z M-22.968,241.723l-0.021,0.094l0.042,0.073h0.094l0.12,-0.115l0.026,-0.125l-0.073,-0.131l-0.089,-0.026l-0.105,0.052l-0.052,0.115L-22.968,241.723L-22.968,241.723z M-22.414,241.425l0.047,0.01l0.105,-0.11l0.11,-0.01l0.026,-0.063l-0.068,-0.141l-0.115,-0.078l-0.063,0.016l-0.031,0.115l0.026,0.089L-22.414,241.425L-22.414,241.425z M-19.580,238.774l0.031,0.094l0.429,0.188l0.047,0.084l0.084,0.047l0.005,0.026l0.068,0.016l0.094,-0.021l0.183,0.042l0.084,0.094l-0.031,0.178l-0.256,0.063l-0.277,-0.01l-0.052,0.047l-0.026,0.089l0.052,0.068l0.115,0.016l0.084,-0.026l0.235,0.084l0.146,0.11l0.073,0.12l0.084,0.021l0.026,-0.037l-0.084,-0.188l0.031,-0.162l0.068,-0.052l0.136,0.047l0.12,-0.078l0.021,-0.063l-0.031,-0.089l0.037,-0.089l0.12,-0.073v-0.042l-0.073,-0.047l0.031,-0.047l0.303,-0.115l0.272,-0.01l0.11,-0.105l-0.047,-0.037l-0.209,0.005l-0.115,0.068l-0.136,0.01l-0.078,-0.047h-0.11l-0.099,0.052l-0.146,-0.047l-0.162,-0.084v-0.063l-0.115,-0.173l-0.089,-0.058l-0.157,0.016l-0.413,-0.031l-0.293,0.073L-19.580,238.774L-19.580,238.774z M-17.556,239.705l-0.005,0.084l0.063,0.047l0.078,-0.031l0.037,-0.11l0.104,-0.068h0.397l0.152,-0.089l0.199,-0.042l0.172,0.031l0.256,0.167l0.105,-0.005l0.131,-0.089l0.298,-0.031l0.073,-0.099l0.031,-0.261l-0.063,-0.12l0.037,-0.105l0.199,-0.12l0.063,-0.126l-0.005,-0.11l-0.251,-0.162l-0.214,-0.016l-0.078,0.099l-0.026,0.371l-0.063,0.183l-0.152,0.094l-0.34,0.063l-0.423,0.11l-0.084,0.063l-0.12,0.047h-0.267l-0.136,-0.047l-0.073,0.01l-0.047,0.063l-0.131,0.063l-0.005,0.068L-17.556,239.705L-17.556,239.705z M-13.661,239.796l0.029,-0.034l-0.011,-0.033l-0.025,-0.008l-0.022,0.023l-0.001,0.044L-13.661,239.796L-13.661,239.796z M-5.669,238.109l0.011,-0.027l-0.048,-0.017l-0.042,0.018l-0.003,0.033l0.037,0.02L-5.669,238.109L-5.669,238.109z M-11.967,238.427l0.049,0.023l0.044,-0.003l0.003,-0.023l-0.042,-0.031l-0.047,0.003L-11.967,238.427L-11.967,238.427z M-13.239,239.462l0.021,0.003l0.012,-0.015l-0.018,-0.032l-0.022,-0.013l-0.016,0.018L-13.239,239.462L-13.239,239.462z M-14.398,239.153l0.036,-0.003l0.002,-0.017l-0.038,-0.012l-0.028,0.007l-0.002,0.016L-14.398,239.153L-14.398,239.153z M-10.955,238.007l0.024,-0.012l-0.01,-0.012l-0.045,0.005l0.002,0.014L-10.955,238.007L-10.955,238.007z M-11.723,238.517l0.026,0.01l0.027,-0.013l-0.001,-0.029l-0.02,-0.007l-0.033,0.024L-11.723,238.517L-11.723,238.517z M-14.254,239.096l-0.002,-0.019l-0.024,-0.008l-0.021,0.009l-0.004,0.017l0.019,0.009L-14.254,239.096L-14.254,239.096z M-14.309,239.002l0.019,-0.003l0.003,-0.014l-0.016,-0.01h-0.029l-0.007,0.014L-14.309,239.002L-14.309,239.002z M-13.743,239.822l0.024,0.007l0.007,-0.009l-0.008,-0.016l-0.02,-0.004l-0.007,0.009L-13.743,239.822L-13.743,239.822z M-14.283,239.167l0.04,-0.005l0.017,-0.017l-0.022,-0.014l-0.054,0.007l-0.012,0.014L-14.283,239.167L-14.283,239.167z M-8.124,237.142l0.045,-0.007l-0.004,-0.028l-0.035,-0.017l-0.042,0.003l-0.01,0.028L-8.124,237.142L-8.124,237.142z M-9.320,238.307l0.057,-0.016l0.02,-0.024l-0.022,-0.025l-0.066,-0.009l-0.055,0.033l0.007,0.031L-9.320,238.307L-9.320,238.307z M-6.386,237.373l0.034,0.012l0.048,-0.016l-0.003,-0.024l-0.03,-0.016l-0.041,0.021L-6.386,237.373L-6.386,237.373z M-11.191,238.255l-0.002,0.029l0.11,0.053l0.171,0.025l0.027,-0.022l-0.002,-0.049l0.043,-0.014l0.069,0.012l0.137,-0.031l-0.002,-0.027l-0.073,-0.02l-0.398,-0.002L-11.191,238.255L-11.191,238.255z M-11.815,238.389l-0.01,0.016l0.027,0.024l0.11,-0.004l0.018,-0.027l-0.035,-0.02l-0.057,-0.002L-11.815,238.389L-11.815,238.389z M-11.527,238.41l-0.02,0.071l0.014,0.027l0.067,0.012l0.022,-0.059l-0.016,-0.061l-0.037,-0.004L-11.527,238.41L-11.527,238.41z M-11.390,238.371l-0.02,0.016l0.026,0.053l0.039,0.008l0.047,-0.035l-0.014,-0.027L-11.390,238.371L-11.390,238.371z M-10.799,238.481l0.063,0.016l0.051,0.043l0.139,0.051l0.106,-0.016l0.002,-0.041l-0.02,-0.012l-0.039,0.008l-0.045,-0.022l-0.049,-0.116l-0.043,-0.022l-0.159,0.029l-0.065,0.041l-0.002,0.035L-10.799,238.481L-10.799,238.481z M-10.385,238.371l-0.022,0.02l0.002,0.055l0.043,0.047l0.047,0.008l0.033,-0.024l-0.008,-0.037l0.018,-0.025l0.198,-0.037l0.01,-0.029l-0.033,-0.029l-0.037,-0.004l-0.018,0.025l-0.035,0.004l-0.069,-0.027l-0.086,-0.01l-0.045,0.018L-10.385,238.371L-10.385,238.371z M-9.572,237.285l-0.022,0.027l0.014,0.051l0.045,0.027l0.055,-0.008l0.014,-0.033l-0.01,-0.043l-0.045,-0.022H-9.572L-9.572,237.285z M1.095,236.803l0.005,0.099l0.136,0.078l0.235,0.005l0.512,-0.157l0.314,-0.178l0.026,-0.105l-0.078,-0.089l-0.199,-0.047l-0.193,-0.084l-0.209,0.026l-0.314,0.162l-0.099,0.167L1.095,236.803L1.095,236.803z M-13.291,239.473l-0.027,0.031l-0.01,0.055l0.014,0.035l0.031,0.01l0.018,-0.018l-0.004,-0.047l0.022,-0.029l-0.01,-0.029L-13.291,239.473L-13.291,239.473z M-15.033,239.948l-0.005,0.058l0.039,0.078l0.125,0.042l0.047,-0.024l0.123,-0.209l0.099,-0.097l0.034,-0.047l0.034,-0.102l0.071,-0.123l0.024,-0.008l0.021,0.055l-0.031,0.123l0.01,0.06l0.047,0.055l0.003,0.065l-0.034,0.037l0.003,0.052l0.057,0.065h0.039l0.086,-0.091l0.078,-0.008l0.081,0.034l0.037,-0.018l0.008,-0.055l-0.044,-0.076l0.026,-0.078l0.052,-0.039l0.063,-0.016l0.105,0.018l0.165,-0.042l0.029,-0.068l0.05,-0.008l0.057,0.078l0.052,-0.008l0.118,-0.167l0.05,-0.12l0.065,-0.034l0.057,0.005l0.065,0.076l-0.013,0.06l0.042,0.01l0.125,-0.065l0.026,-0.081l-0.023,-0.097l0.029,-0.039l-0.024,-0.086l0.01,-0.136l-0.037,-0.05l-0.115,-0.039l-0.12,0.016l-0.057,0.068l-0.084,-0.003l-0.159,-0.034l-0.065,-0.047l-0.081,-0.01l-0.089,0.018l-0.01,-0.031l0.073,-0.052l0.018,-0.105l0.086,-0.078l0.097,-0.026l0.063,0.008l0.042,-0.05l-0.003,-0.044l-0.055,-0.05l0.003,-0.081l0.037,-0.107l-0.029,-0.076l-0.123,-0.016l-0.097,0.037l-0.036,0.105l0.013,0.071l0.026,0.031l-0.013,0.071l-0.044,0.052l-0.029,-0.005l-0.065,-0.076l-0.034,-0.058l-0.212,-0.078l-0.178,0.016l-0.091,0.089l-0.026,0.12l0.055,0.112l0.146,0.071l0.092,0.044l0.005,0.047l-0.047,0.034l-0.123,0.008l-0.029,0.06l-0.005,0.078l0.078,0.099l0.178,0.063l-0.013,0.024l-0.076,0.018l-0.178,-0.01l-0.05,0.024l-0.042,-0.01l-0.141,-0.102l-0.044,-0.078l-0.047,-0.008l-0.021,0.037l-0.063,0.026l-0.052,0.003l-0.026,0.05l0.005,0.091l0.112,0.071l0.144,0.071l0.026,0.047l-0.024,0.016l-0.06,-0.034l-0.084,-0.024l-0.01,0.021l0.055,0.044l-0.013,0.063l-0.097,0.105l-0.092,0.013l-0.149,0.081l-0.05,0.105l0.013,0.047l-0.021,0.055L-15.033,239.948L-15.033,239.948z M-12.024,238.16l0.055,0.037l0.196,0.01l0.097,0.039l0.024,0.068l0.063,0.026l0.141,-0.024l0.026,-0.065l-0.047,-0.052l-0.029,0.003l-0.029,-0.018l0.016,-0.052l0.034,-0.031l0.052,0.005l0.031,-0.01v-0.037l0.021,-0.016l0.052,0.021l0.081,-0.021l0.01,-0.05l-0.021,-0.008l-0.026,0.021l-0.063,-0.01l-0.042,-0.047l0.018,-0.05l-0.013,-0.065l-0.144,-0.141l-0.303,-0.055l-0.112,0.018l-0.149,0.146l-0.044,0.107L-12.024,238.16L-12.024,238.16z M-11.744,238.714l-0.005,0.029l0.141,0.055l0.018,0.037l0.086,0.016l0.097,-0.005l0.128,0.037l0.063,0.037l0.031,-0.024l0.042,-0.162l-0.021,-0.026l-0.05,-0.005l-0.05,0.031l-0.115,-0.005l0.003,-0.034l0.073,-0.024l0.008,-0.034l-0.081,-0.031l-0.251,0.05L-11.744,238.714L-11.744,238.714z M-12.191,238.826l0.003,0.047l0.068,0.05l-0.016,0.026l-0.05,0.003l-0.058,0.021l-0.003,0.044l0.086,0.063l0.115,0.026l0.031,0.044l-0.008,0.034l0.052,0.076l0.05,0.021l0.029,-0.016v-0.021l-0.042,-0.018l0.003,-0.068l0.031,-0.131l0.016,-0.003l0.005,0.063l0.031,0.047l0.118,0.039l0.042,-0.005l-0.01,-0.044l-0.065,-0.071l0.005,-0.021l0.094,-0.008l0.186,0.034l0.044,0.052l0.065,0.013l0.018,-0.013l-0.031,-0.018l-0.003,-0.078l-0.076,-0.084l-0.188,-0.055l-0.107,0.013l-0.044,0.034l-0.039,-0.005l-0.097,-0.12l-0.141,-0.031l-0.097,0.013L-12.191,238.826L-12.191,238.826z M-12.887,239.033l-0.024,0.047l0.01,0.076l0.039,0.039l0.013,0.094l-0.024,0.044l0.005,0.081l0.05,0.021l0.042,-0.005l0.055,0.003l0.042,0.039l0.06,0.008l0.089,-0.052l0.068,-0.008l0.042,-0.018l-0.003,-0.06l0.013,-0.05l0.084,-0.039v-0.044l-0.013,-0.039l0.008,-0.089l-0.063,-0.039l-0.188,-0.024l-0.029,-0.016l0.021,-0.024l0.133,0.01l0.057,-0.031l0.037,-0.094l-0.034,-0.037l-0.152,-0.016l-0.254,0.008l-0.105,0.037l-0.018,0.039l0.024,0.076L-12.887,239.033L-12.887,239.033z M-8.885,238.067l-0.024,0.031l0.035,0.055l0.074,0.004l0.114,-0.027l0.404,0.008l0.204,0.043l0.082,-0.004l0.09,-0.039l0.129,0.008l0.055,-0.016l0.024,-0.047l0.051,0.004l0.039,0.02l0.059,-0.012l0.094,-0.055l0.235,-0.035l0.255,0.039l0.2,0.071l0.043,0.039l0.102,0.008l0.125,-0.055l0.008,-0.09l0.035,-0.004l0.125,0.051l0.102,-0.027l0.031,-0.039l0.082,-0.012l0.114,0.027l0.043,-0.016l0.008,-0.071l0.027,-0.008l0.11,0.071l0.016,-0.016l-0.047,-0.09l0.02,-0.035l0.102,0.004l0.094,0.063l0.074,0.094h0.067l0.13,-0.18l0.027,-0.118l0.102,-0.059l0.137,-0.004l0.09,0.071l0.177,0.02l0.074,-0.027l0.016,-0.063l0.059,-0.012l0.071,0.035l0.035,-0.012l0.043,-0.035l0.106,0.008l0.067,0.063l0.067,-0.008l0.031,-0.082l-0.027,-0.094l-0.188,-0.157l-0.177,-0.082l-0.043,-0.11l0.031,-0.071h0.055l0.098,0.031l0.188,-0.004l0.149,0.016l0.043,-0.043l0.039,-0.118l0.035,-0.067l0.106,-0.071l0.035,-0.098l0.004,-0.075l-0.078,-0.106v-0.043l0.02,-0.02l-0.008,-0.035l-0.106,-0.027l-0.063,-0.043l-0.027,-0.051l-0.122,-0.059l-0.059,-0.004l-0.075,-0.024l-0.047,-0.051l-0.145,-0.035l-0.094,0.024l-0.059,0.059l-0.122,0.012l-0.063,-0.004l-0.039,0.024l0.004,0.051l-0.027,0.024h-0.114l-0.063,0.063l0.004,0.071l0.02,0.047l-0.051,0.094l-0.082,0.024l-0.216,-0.008l-0.11,-0.012l-0.055,0.043l0.016,0.067l0.161,0.063l0.212,0.039l0.114,-0.02l0.188,0.051l0.11,-0.008l0.059,0.047l-0.02,0.071l-0.129,0.078l-0.024,0.043l-0.129,0.082l-0.137,-0.004l-0.102,-0.051l-0.267,-0.012l-0.047,0.039l0.012,0.039l0.149,0.086l0.012,0.059l-0.043,0.024l-0.051,-0.004l-0.051,-0.059l-0.11,-0.012l-0.055,0.039l-0.063,0.012l-0.11,-0.035l-0.059,0.004l-0.016,0.059l0.024,0.058l0.052,0.031l0.084,0.005l0.063,0.037l-0.016,0.018l-0.157,0.016l-0.068,-0.024l-0.037,-0.026l-0.076,0.008l-0.029,0.063l0.021,0.065l0.057,0.034l0.01,0.026l-0.021,0.005l-0.106,-0.026l-0.262,0.01l-0.042,0.021l-0.026,-0.013l0.029,-0.039l-0.031,-0.018h-0.125l-0.016,0.024l0.016,0.06l-0.052,0.037l-0.086,0.013l-0.118,-0.018l-0.097,-0.005l-0.052,-0.029l-0.131,-0.003l-0.024,-0.024l-0.014,-0.037l-0.041,-0.01l-0.068,0.029l-0.013,0.065l0.026,0.042l-0.013,0.024h-0.094l-0.068,0.024v0.034l-0.039,0.021l-0.055,-0.01l-0.024,-0.037l-0.063,-0.018l-0.05,0.013l-0.044,0.063l0.008,0.081h-0.031l-0.039,-0.013l-0.06,0.005l-0.076,0.052l-0.081,0.013l-0.003,-0.018l0.044,-0.039l-0.008,-0.037l-0.039,-0.026l-0.141,0.008l-0.115,0.026l-0.052,0.068l-0.091,0.021l-0.065,-0.024l-0.029,-0.031h-0.034l-0.057,0.063l-0.086,0.026L-8.885,238.067L-8.885,238.067z M-4.117,237.542l-0.035,0.027l0.051,0.078l0.095,0.052l0.084,0.005l0.094,0.039l0.118,0.167l0.11,0.031l0.086,0.003l0.12,0.037l0.065,-0.003l0.078,-0.034l0.238,0.003l0.139,-0.071l0.026,0.005l0.037,0.065l0.057,0.01l0.112,-0.031l0.246,-0.003l0.021,0.016l-0.013,0.044l0.024,0.029l0.063,0.026l0.076,-0.003l0.081,0.031l0.081,0.003l0.034,-0.018l-0.01,-0.018l-0.034,-0.013l0.003,-0.037l0.063,-0.018l0.217,0.029l0.063,0.024l0.086,-0.008l0.099,-0.078l0.052,-0.013h0.141l0.094,-0.029l0.102,-0.008l0.037,-0.018l0.037,0.003l0.128,0.042l0.076,0.003l0.162,-0.076l0.086,-0.01l0.118,0.018l0.146,-0.016l0.055,-0.034l0.154,-0.005l0.047,-0.031l-0.013,-0.021l-0.146,-0.031l-0.355,0.005l-0.081,-0.044l-0.055,-0.003l-0.024,0.037h-0.039l-0.06,-0.031l-0.092,-0.005l-0.107,0.047h-0.057l-0.078,-0.044h-0.17l-0.06,0.042l-0.089,0.021l-0.05,-0.013l-0.063,-0.063l-0.031,-0.008l-0.052,0.029l-0.052,-0.005l-0.065,-0.037l-0.05,-0.003l-0.021,0.039l-0.044,-0.003l-0.042,-0.039l-0.044,0.005l-0.05,0.039h-0.052l-0.102,-0.055l0.008,-0.039l0.071,-0.05l-0.013,-0.05l-0.034,-0.016l-0.071,0.005l-0.042,0.039l-0.05,0.008l-0.034,-0.008l-0.052,-0.031l-0.099,-0.008l-0.199,0.063l-0.034,0.029l-0.136,0.01l-0.102,-0.016l-0.084,0.008l-0.06,0.034l-0.065,0.073l-0.052,0.005l-0.039,-0.01l-0.003,-0.034l0.024,-0.029l-0.026,-0.018l-0.044,0.013l-0.065,0.047l-0.115,0.003l-0.005,-0.026l0.034,-0.055l0.031,-0.013l-0.005,-0.018l-0.06,-0.008l-0.115,0.037l-0.175,0.013l-0.133,-0.037L-4.117,237.542L-4.117,237.542z M6.020,235.932l0.026,0.081l0.042,0.021l0.024,-0.024h0.039l0.063,0.037h0.105l0.099,-0.078l0.018,-0.115l-0.047,-0.105l-0.089,-0.073l-0.065,-0.01l-0.133,0.065l-0.081,0.115V235.932L6.020,235.932z M6.556,235.493l0.029,0.031l0.125,0.013l0.044,-0.042l0.024,-0.065l-0.073,-0.037l-0.078,0.013l-0.047,0.044L6.556,235.493L6.556,235.493z M7.741,235.506l0.023,0.029l0.068,0.003l0.065,0.034l0.01,0.031l0.044,-0.01l0.238,-0.217l0.118,-0.042l0.259,0.008l0.084,-0.05l0.123,-0.191l0.008,-0.099l-0.089,-0.089l-0.112,-0.037l-0.102,-0.003l-0.071,-0.021l-0.06,0.018l-0.034,0.042l-0.154,0.018l-0.039,0.024l-0.016,0.073l-0.05,0.058l-0.125,0.042l-0.089,0.01l-0.057,0.055l-0.029,0.136L7.741,235.506L7.741,235.506z M11.654,233.041v0.05l0.081,0.047l0.073,0.003l0.029,-0.05l-0.01,-0.06l-0.073,-0.06l-0.05,0.005L11.654,233.041L11.654,233.041z M10.418,233.862l-0.003,0.034l0.123,0.115l0.131,0.044l0.081,-0.013l0.12,-0.073l0.01,-0.118l-0.052,-0.06l-0.201,-0.06l-0.084,0.013l-0.026,0.026l-0.018,0.052L10.418,233.862L10.418,233.862z M10.201,234.722l0.018,0.024l0.055,-0.01l0.227,0.016l0.092,-0.034l0.076,-0.144l-0.016,-0.073l-0.071,-0.042l-0.201,-0.044l-0.118,0.008l-0.031,0.029l-0.031,0.128l0.018,0.06l-0.008,0.058L10.201,234.722L10.201,234.722z M11.845,233.616l0.031,0.013l0.105,-0.044l0.05,-0.063l0.005,-0.055l0.047,-0.071l0.047,-0.034l-0.005,-0.06l-0.031,-0.081l-0.112,-0.026l-0.125,0.037l-0.047,0.068l-0.057,0.162l0.021,0.073l0.068,0.05L11.845,233.616L11.845,233.616z M10.870,234.254l0.01,0.044l0.073,0.081l0.086,0.026l0.102,-0.01l0.133,-0.073l0.042,-0.065l0.039,-0.029l0.06,0.005l0.016,0.029l0.152,0.06l0.065,-0.01l0.068,0.01l0.091,0.071l0.026,0.063l0.071,0.013l0.068,-0.026l0.005,-0.029l-0.026,-0.052l0.008,-0.034l0.097,-0.073l0.01,-0.029l-0.029,-0.039l0.005,-0.042l0.039,-0.042l0.01,-0.068l-0.031,-0.039l-0.044,-0.003l-0.031,-0.018l-0.013,-0.042l-0.139,-0.044l-0.149,0.008l-0.029,0.039l-0.06,0.026l-0.107,-0.013l-0.115,0.008l-0.018,0.034l0.018,0.039l0.003,0.034l-0.037,0.026l-0.097,0.003l-0.162,-0.042l-0.178,0.034l-0.081,0.081v0.052L10.870,234.254L10.870,234.254z M21.47,230.893l0.024,0.007l0.007-0.009l-0.008-0.016l-0.02-0.004l-0.007,0.009L21.47,230.893z M20.272,231.255l0.014-0.011l-0.001-0.015l-0.018-0.006l-0.012,0.012l0.001,0.014L20.272,231.255z M22.79,229.808v0.014l0.012,0.008l0.017-0.008l-0.004-0.018l-0.019-0.006L22.79,229.808z M22.705,231.102l0.024-0.027l0.004-0.039l-0.031-0.051H22.67l-0.012,0.024l0.004,0.075L22.705,231.102z M30.199,227.176l0.153-0.073l0.12-0.022l0.084,0.02l-0.002,0.055l-0.045,0.016l-0.043-0.016h-0.067l-0.151,0.075l-0.088,0.012l-0.037-0.022L30.12,227.2L30.199,227.176z M30.019,227.488l0.018,0.018v0.014l-0.031,0.004l-0.018-0.014l0.008-0.02L30.019,227.488z M30.326,227.272l0.024,0.016l-0.024,0.018l-0.055,0.006l-0.024-0.018l0.014-0.024L30.326,227.272z M25.743,228.985l0.013-0.034l0.024-0.005l0.018,0.01v0.026l-0.024,0.016L25.743,228.985z M27.828,227.563v0.012l-0.018,0.006l-0.018-0.008v-0.014l0.016-0.004L27.828,227.563z M27.707,227.898l0.037-0.012l0.016,0.016l-0.004,0.031l0.025,0.027l0.073,0.022l0.008,0.033l-0.024,0.025l-0.106,0.027l-0.1,0.018l-0.022-0.006l-0.008-0.031l-0.049-0.033l0.022-0.029L27.707,227.898z M27.96,227.816l0.082-0.008l0.076,0.01l0.094-0.006l0.114-0.061l0.031-0.004l0.053,0.029l0.051,0.002l0.035-0.014l0.094-0.01l0.116,0.012l0.02,0.029l0.055,0.041l0.016,0.055l-0.01,0.035l-0.035,0.008l-0.049-0.031l-0.059,0.004l-0.022,0.031l-0.01,0.067l-0.024,0.002l-0.051-0.02l-0.049-0.033l-0.031-0.065l-0.057-0.024l-0.118-0.002l-0.082-0.008l-0.088-0.004l-0.047,0.016l-0.114,0.006l-0.057-0.022v-0.014L27.96,227.816z M28.907,227.708l0.004-0.031l0.027-0.039l0.066-0.02l0.042,0.007l0.027,0.025h0.035l0.022-0.022l0.008-0.037l0.031-0.018l0.069,0.007l0.043,0.033l0.033,0.006l0.018-0.024l0.055-0.012l0.094,0.02l0.024,0.031l0.049,0.016l0.029-0.006l0.002-0.031l0.022-0.008l0.059,0.014l0.075,0.006l0.025-0.012l0.002-0.016l-0.031-0.031l-0.057-0.022l0.01-0.01h0.051l0.025,0.01l0.025,0.024l0.025-0.004l0.033-0.022l0.088,0.002l0.031,0.037l0.002,0.076l-0.058,0.072l-0.062,0.108l-0.061,0.02l-0.055-0.012l-0.145,0.014l-0.043,0.027l-0.045-0.004l-0.014-0.02l-0.039-0.008l-0.057,0.022l-0.098-0.025l-0.045-0.045l-0.053-0.004l-0.057,0.025l-0.029-0.002l-0.025-0.024l-0.157-0.024l-0.055-0.02l-0.006-0.024L28.907,227.708z M25.29,228.337l0.024-0.005l0.008-0.037l0.044-0.01l0.191,0.047l0.11,0.078v0.042l-0.099,0.044l-0.22,0.003l-0.12-0.052l-0.005-0.081l0.029-0.039L25.29,228.337z M24.841,229.31l0.029-0.003l0.039,0.055l0.031-0.013l0.026-0.076l0.063-0.042l0.037,0.018l0.008,0.078l-0.01,0.047l0.031,0.003l0.063-0.078l0.013-0.131l0.047-0.068h0.037l0.044,0.034l0.016-0.01l0.005-0.05l0.06-0.026l0.047,0.008h0.042l0.042-0.026l0.078,0.018l0.018,0.024l-0.01,0.021l-0.131,0.086l-0.026,0.065l0.018,0.031l0.073,0.029l-0.003,0.024l-0.037,0.013l0.008,0.024l0.031,0.026l-0.008,0.034l-0.102,0.029l-0.081-0.013l-0.058-0.013l-0.031,0.008l0.008,0.031l0.084,0.086l-0.021,0.052l-0.073,0.039l-0.086-0.008l-0.021,0.021l0.039,0.071l-0.039,0.013l-0.081-0.024l-0.05-0.052l-0.003-0.037l-0.034-0.021l-0.063-0.01l-0.058-0.044l-0.018-0.12L24.841,229.31z M23.85,228.917l0.024-0.047l0.047-0.039l0.005-0.042l-0.01-0.047l0.05-0.071l0.081-0.01l0.031,0.021l-0.003,0.042l-0.089,0.063l-0.01,0.078l-0.031,0.024h-0.031l-0.044,0.039L23.85,228.917z M23.819,228.755l0.024-0.018l0.016,0.01l-0.016,0.047l-0.016,0.005l-0.013-0.018L23.819,228.755z M27.149,226.912l0.06-0.065l0.099-0.024l0.016-0.047l-0.008-0.034l0.013-0.021l0.052,0.008l0.047,0.031l0.016,0.092l0.024,0.016l0.052-0.037l0.068-0.076l0.123-0.039l0.146,0.01l0.055,0.034l-0.008,0.031l-0.073,0.005l-0.055,0.029l-0.027,0.051l-0.045,0.039l-0.127,0.038l-0.01,0.029l0.11,0.042l0.008,0.031l-0.044,0.052l-0.076,0.039l-0.008,0.024l0.024,0.01l0.128-0.052l0.056,0.004l0.065,0.03l0.175-0.014l0.145,0.009l0.063,0.031l0.018,0.052l-0.021,0.052l-0.052,0.031l-0.146-0.024l-0.131,0.037l-0.018,0.029l0.018,0.039l-0.008,0.021l-0.052-0.008l-0.039,0.029l-0.003,0.039l-0.026,0.013l-0.12-0.021l-0.018,0.029l0.029,0.037l0.029,0.044l-0.05,0.076l-0.11,0.005l-0.123-0.052l-0.076-0.099l0.005-0.029l0.052-0.013l0.068-0.065l0.005-0.06l-0.01-0.024h-0.031l-0.071-0.044l-0.01-0.042l0.058-0.071l0.118-0.081l-0.008-0.052l-0.06-0.042l-0.055,0.008l-0.055,0.055h-0.141l-0.055-0.039l-0.003-0.052L27.149,226.912z M25.56,227.589l0.018-0.084l0.021-0.037l0.047-0.01l0.026-0.042l-0.005-0.073l0.052-0.06l0.154-0.037l0.06-0.044l0.068-0.081l0.17-0.024l0.063,0.013l0.013,0.031h0.044l0.05-0.016l0.107,0.018l0.021,0.047l-0.013,0.044l-0.026,0.031l-0.003,0.044l0.058,0.068l0.068,0.018l0.05-0.013l0.081-0.086l0.026-0.003l0.01,0.016l-0.021,0.026l0.01,0.021l0.078,0.01l0.105,0.042l0.042,0.055l-0.008,0.029l-0.123,0.06l-0.146-0.005l-0.021,0.021l0.029,0.013l0.128,0.016l0.118,0.037l0.063-0.013h0.063l0.128-0.055l0.042,0.005l0.021,0.026l-0.01,0.026l-0.037,0.016l-0.003,0.031l0.01,0.034l-0.021,0.042l-0.065,0.018l-0.094,0.005l-0.101,0.054l-0.027,0.037l-0.029,0.022l-0.057-0.004l-0.049-0.025l-0.107-0.016l-0.026-0.01l-0.003-0.016l-0.047-0.013l-0.031,0.016l-0.024,0.105l-0.081,0.11l-0.047,0.01l-0.039-0.021l-0.013-0.084l-0.071-0.042l-0.078-0.005l-0.039,0.026l-0.037-0.018l-0.013-0.024l-0.047-0.005l-0.081,0.068l-0.075,0.044l-0.069,0.003l-0.042-0.029l-0.024-0.055l0.013-0.044l-0.024-0.055l-0.071-0.042l-0.084-0.044L25.56,227.589z M19.175,231.661l0.114-0.094l0.145-0.067l0.122-0.133l0.078-0.043l0.173,0.004l0.063,0.047l0.039,0.004l0.09-0.043l0.031-0.067l0.075-0.035l0.098,0.059l0.157,0.043l0.035-0.024l-0.051-0.075l0.012-0.039l0.11-0.043l-0.004-0.098l0.047-0.016l0.118,0.043l0.082,0.075l0.063,0.035l0.027-0.016l-0.027-0.09l0.004-0.047l0.024-0.008l0.098,0.11l0.118,0.071l0.027-0.008l-0.075-0.153l0.008-0.051l0.051-0.008l0.059,0.047l0.059,0.008l0.039-0.051l-0.051-0.047l-0.008-0.047l0.039-0.024l0.263,0.071l0.129-0.027h0.09l0.024-0.027l-0.106-0.059v-0.031l0.063-0.024l0.004-0.043L21.56,230.7l-0.02-0.031l0.039-0.02l0.325,0.067l0.114-0.012l0.051-0.047l0.161-0.031l0.09,0.012l0.012-0.035l-0.067-0.031l-0.051,0.024l-0.157,0.012l-0.063,0.039l-0.063-0.004l-0.145-0.075l-0.051-0.067v-0.063l-0.098-0.153l0.004-0.063l0.071-0.071l0.173-0.02l0.125,0.078l0.035,0.067l0.031,0.008l0.02-0.082l-0.039-0.067l0.024-0.02l0.118,0.047l0.031-0.012l-0.082-0.114l-0.122-0.059l-0.047-0.094l0.055-0.094l0.18-0.086l0.341-0.012l0.09,0.047l0.106,0.141l-0.004,0.082l0.024,0.102l0.027,0.016l0.063-0.078l0.051,0.004l0.071,0.118l0.047,0.012l-0.02-0.125l-0.086-0.098l-0.039-0.118l0.004-0.043l0.078,0.004l0.082,0.055l0.098,0.012l0.051-0.035l-0.027-0.016l-0.063,0.004l-0.067-0.031L23.03,229.7l0.043-0.02l0.118,0.024l0.149,0.004l0.024-0.02l-0.075-0.039l-0.353-0.059l-0.184-0.008l-0.024-0.012l0.012-0.039l-0.059-0.024h-0.047l-0.122-0.031l-0.114-0.055l-0.071-0.004l-0.039,0.047l-0.063,0.043l-0.102-0.016l-0.035-0.059l-0.137-0.067l-0.051-0.047l0.02-0.051l-0.012-0.059l-0.047-0.039l-0.153-0.008l-0.043-0.031l-0.02-0.11l0.063-0.059l0.082-0.016l0.071-0.086l0.051-0.153l0.063-0.059l0.086-0.02l0.063-0.043l0.012-0.067l0.09-0.031l0.067,0.008l0.114-0.031l0.169-0.102h0.125l0.078,0.027l0.063-0.016l0.043-0.035l0.259-0.122h0.059l0.047,0.039l0.086,0.012l0.11-0.067l0.157,0.024l0.11,0.11l0.039,0.114v0.055l-0.09,0.012l-0.09,0.098l-0.016,0.055l0.078,0.086l0.016,0.055l-0.043,0.063l0.012,0.043l0.059,0.004l0.059-0.047l0.051,0.024l0.008,0.039l-0.11,0.149v0.047l0.078-0.012l0.165-0.161l0.286-0.18h0.075l0.027-0.09l-0.02-0.059l0.012-0.098l0.035-0.012l0.043,0.027l0.027-0.004l0.012-0.051l-0.012-0.047l0.027-0.078l0.11-0.106h0.055l0.039,0.071l-0.071,0.133l-0.02,0.067l0.031,0.027l0.129-0.031l0.067-0.075l0.071-0.027l0.047-0.051h0.039l0.031,0.024l0.055,0.18l-0.012,0.098l0.031,0.012l0.047-0.082l0.055-0.008l0.027,0.039l-0.02,0.09l-0.047,0.031l-0.039,0.035l0.004,0.047l-0.024,0.051l-0.208,0.039l-0.118-0.02l-0.051-0.047l-0.024,0.004l-0.031,0.141l-0.122,0.129l-0.094,0.008l-0.031,0.027l0.031,0.051l-0.012,0.043l-0.133,0.067l-0.18-0.012l-0.051,0.02l-0.016,0.024l0.122,0.027l0.016,0.027l-0.141,0.09l-0.275,0.071l0.016,0.027h0.122l0.039,0.02l-0.035,0.043l-0.106,0.047l0.012,0.024l0.106-0.012l0.055,0.008l0.027,0.055l0.027-0.004l0.027-0.086l0.043-0.039l0.051-0.004l0.067,0.047l0.031-0.004v-0.082l0.043-0.082l0.141-0.063l0.059,0.031l0.02,0.063l0.055,0.071l0.039,0.016l0.02-0.051l-0.024-0.051l-0.008-0.086l0.055-0.094l0.075-0.016l0.075,0.059l0.02,0.118l-0.051,0.063l0.004,0.027l0.114-0.016l0.098,0.063l0.031,0.09l-0.067,0.106l-0.149,0.039l-0.063-0.035h-0.035l-0.016,0.059l-0.043,0.008l-0.043-0.043l-0.078,0.012l-0.031,0.031l0.027,0.051l-0.012,0.031l-0.051-0.024h-0.043l-0.024,0.043l-0.094,0.051l-0.075-0.024l-0.129,0.008l-0.106,0.071l-0.016,0.043l0.063,0.035l0.067,0.063v0.071h-0.059l-0.031-0.055l-0.086-0.031l-0.027,0.016l0.004,0.122l-0.051,0.078H23.76l-0.012,0.02l0.043,0.067l-0.012,0.031l-0.047-0.012l-0.106-0.11l-0.02-0.059l-0.078-0.094l-0.031-0.004l0.004,0.078l0.09,0.188l-0.016,0.059l-0.067,0.004l-0.137-0.051l-0.027-0.059l-0.031-0.027l-0.02,0.039l0.047,0.071l0.137,0.059l0.067,0.071l-0.027,0.071l-0.075,0.012l-0.196-0.114l-0.129-0.106l-0.051-0.106l-0.039-0.02l-0.027,0.035l0.059,0.09l-0.008,0.09l0.031,0.071l0.078,0.063l0.031,0.051l-0.031,0.137l-0.031,0.024l-0.11-0.063l-0.047-0.047l-0.024,0.004l-0.02,0.102l-0.02,0.02l-0.055-0.016l-0.063-0.094l-0.075-0.055l-0.075,0.055l-0.031,0.098l-0.039,0.031l-0.063-0.031v-0.035l-0.031-0.039l-0.067,0.024l-0.059,0.125l-0.071,0.008l-0.024-0.043l0.02-0.071l-0.024-0.016l-0.063,0.012l-0.035-0.027l0.024-0.071l-0.024-0.012l-0.118,0.082l0.016,0.039l-0.016,0.086l-0.063,0.043l-0.169,0.012l-0.059-0.016l-0.047,0.012l-0.11,0.114l-0.196,0.094l-0.212,0.035l-0.035,0.031l-0.039,0.129l-0.055,0.039h-0.18l-0.02-0.027l-0.039-0.016l-0.145,0.043l-0.102,0.063l-0.008,0.055l-0.133,0.149l0.004,0.051l-0.031,0.035l-0.055-0.012l-0.125-0.078l-0.18-0.027l-0.067,0.012l-0.055,0.122l-0.114,0.059l-0.047-0.004l-0.063-0.067l-0.184-0.059l-0.224-0.02l-0.047-0.016l-0.02-0.047l-0.106-0.047l-0.059-0.055l0.008-0.039L19.175,231.661z M32.136,225.566l0.051,0.042v0.031l-0.027,0.024l-0.02,0.125l-0.141,0.122l-0.175,0.115l-0.136,0.057l-0.206,0.02l-0.243,0.043l-0.169,0.071l-0.11,0.004l-0.075-0.035l-0.114-0.008l-0.09,0.012l-0.173-0.016l-0.224-0.086l-0.122-0.141l-0.051-0.137l-0.059-0.012l-0.027-0.039l0.012-0.063l-0.004-0.055l-0.051-0.047l-0.075-0.11l-0.02-0.188l0.008-0.067l0.071-0.075l0.118-0.027l0.071-0.039l0.043-0.063l0.047-0.02h0.067l0.047-0.016l0.031-0.031l0.082-0.024l0.071,0.008l0.086-0.016l0.161-0.125l0.184-0.298l0.118-0.263l0.055-0.051l0.153-0.298v-0.149l0.027-0.075l0.043-0.008l0.063-0.031l0.063-0.078l0.192-0.082l0.137-0.008l0.176,0.09l0.071,0.059l0.094,0.02l0.196-0.039l0.251-0.122l0.153-0.125l0.122-0.067l0.055-0.004l0.051,0.027l0.106,0.004l0.2-0.051l0.263-0.149l0.192-0.173l0.078-0.02l0.063,0.012l0.078-0.004l0.208-0.075h0.059l0.082,0.024l0.29,0.024l0.361-0.024l0.145-0.024l0.255,0.035l0.072,0.041l0.008,0.021l-0.013,0.017h-0.027l-0.008-0.024l-0.078-0.027l-0.188-0.012l-0.039,0.031l0.004,0.071l0.098,0.051l0.286,0.227l0.149,0.319l-0.01,0.089l-0.031,0.084l0.005,0.141l0.099,0.115l0.016,0.125l0.131,0.183l0.12,0.042l0.282-0.005l0.157-0.073l0.173,0.042l0.152,0.173l0.031,0.162l0.047,0.037l0.099,0.016l0.01,0.052l-0.047,0.063l-0.282-0.016l-0.026-0.042l0.089-0.058l-0.005-0.031l-0.167-0.047l-0.099,0.016l-0.047,0.084h-0.042l-0.068-0.058l-0.23-0.078l-0.099-0.125l0.016-0.058l-0.105-0.031l-0.141,0.021l-0.12,0.11v0.058l0.058,0.084l-0.037,0.183l-0.068,0.021l-0.204,0.01l-0.063,0.031l-0.026,0.058L35.141,225L35,225.027l-0.031,0.052l-0.068,0.01l-0.356-0.073l-0.601-0.026l-0.695,0.031l-0.523,0.12l-0.366,0.173l-0.209,0.18L32.136,225.566z M37.683,226.088l-0.01-0.037l0.039-0.029l0.063,0.026l0.112,0.11l0.005,0.05l-0.037,0.003l-0.097-0.068L37.683,226.088z M37.905,226.268l0.026-0.044h0.029l0.029,0.039v0.037l-0.047,0.005L37.905,226.268z M38.911,226.328l0.005-0.018l0.076-0.013l0.112,0.029l-0.005,0.021l-0.084,0.005L38.911,226.328z M38.977,226.407l0.018-0.016h0.018l0.016,0.018l-0.013,0.01l-0.018-0.003L38.977,226.407z M39.048,226.118l0.02-0.031h0.069l0.125,0.038l0.042,0.031l0.008,0.063l0.044,0.024l0.076-0.01l0.042,0.016l-0.005,0.029l-0.063,0.052l-0.029-0.003l-0.039-0.029h-0.073l-0.024,0.016l-0.055-0.013l-0.105-0.107l-0.013-0.037L39.048,226.118z M37.738,225.894l0.008-0.031l0.043-0.008l0.01-0.024l-0.022-0.053l0.037-0.051l0.108,0.002l0.28,0.098l0.02,0.047l0.112,0.041l0.08-0.016l0.141-0.002l0.041,0.025l0.01,0.047l0.063,0.045l0.047,0.004l0.055,0.035l0.006,0.135l0.059,0.049l-0.002,0.018l-0.057,0.004l-0.167-0.051l-0.047-0.029l-0.033-0.002l-0.004,0.018l0.043,0.047l-0.006,0.016l-0.045-0.012l-0.031-0.035l-0.071,0.002l0.004,0.025l0.1,0.065l-0.01,0.014l-0.129-0.049l-0.031-0.043l-0.049-0.022l-0.053,0.012l-0.076-0.024l-0.18-0.086l-0.057-0.006l-0.061-0.035l-0.098-0.106l-0.014-0.033L37.738,225.894z M16.758,233.343l-0.02,0.021l0.04,0.033l0.046-0.003l0.014-0.03l-0.028-0.031L16.758,233.343z M14.198,233.752l0.03-0.021l-0.007-0.016l-0.039,0.009l-0.021,0.02l0.006,0.014L14.198,233.752z M15.131,233.277l-0.005,0.027l0.016,0.008l0.042-0.035l0.005-0.021l-0.018-0.007L15.131,233.277z M13.917,234.408l0.003,0.018l0.063-0.01l0.152-0.068l0.084-0.068l-0.016-0.016l-0.099,0.021l-0.081,0.073L13.917,234.408z M19.347,230.773l-0.025-0.047l-0.031-0.01l-0.051,0.01l-0.261-0.004l-0.247-0.061l-0.059-0.043l0.004-0.041l-0.024-0.035l-0.094-0.033l-0.069,0.004l-0.141,0.045l-0.088-0.01l-0.025-0.027l-0.02-0.002l-0.039,0.039l-0.078,0.006l-0.133,0.031l-0.045,0.029l-0.194,0.035l-0.059,0.031l-0.092,0.098l-0.192,0.131l-0.1,0.004l-0.033,0.024l-0.018,0.051l-0.143,0.161l-0.043,0.029l-0.031,0.057l0.014,0.069l0.071,0.063l0.012,0.051l-0.02,0.073l-0.063,0.086l-0.063,0.033l-0.035,0.035v0.035l0.078,0.033l0.086,0.004l0.053,0.014l0.029,0.035l-0.01,0.049l0.027,0.024l0.055,0.002l0.033,0.029v0.033l-0.022,0.008l-0.014,0.024l0.002,0.051l-0.025,0.039l-0.051,0.006l-0.053-0.025l-0.088-0.008l-0.09,0.033l-0.049-0.008l-0.024-0.045l-0.049-0.035l-0.067,0.006l-0.082,0.071l-0.112,0.029l-0.129-0.016l-0.065-0.063l-0.075-0.027l-0.041,0.016l-0.002,0.039l-0.063,0.086l-0.096,0.061l-0.1,0.004l-0.025,0.016l-0.016,0.049l-0.061,0.061l-0.147,0.071l-0.061,0.067l-0.016,0.055l-0.029,0.033l-0.071,0.035l-0.014,0.061l0.016,0.041l-0.002,0.043l-0.031,0.053l0.012,0.037l0.08,0.033l0.071,0.055l0.004,0.059l-0.078,0.139l-0.069,0.063l-0.124,0.057l-0.043-0.012l-0.043,0.016l-0.041,0.063l-0.002,0.049l0.045,0.039l0.004,0.031l-0.022,0.061l0.002,0.025l0.043,0.02v0.045l-0.02,0.025l-0.055,0.002l-0.069,0.018l-0.055,0.029l-0.049,0.002l-0.053-0.025h-0.08l-0.033,0.031l-0.022,0.061l0.014,0.025l0.039,0.012l0.008,0.045l-0.02,0.073l-0.039,0.045l-0.133,0.033l-0.078,0.006l-0.071-0.012l-0.061,0.008l-0.004,0.024l0.024,0.012l0.039,0.002l0.031-0.01l0.01,0.008l-0.014,0.018l-0.049,0.025l-0.041,0.075l-0.029,0.014l-0.047-0.004l-0.059,0.008l-0.035,0.022l-0.018,0.039l0.014,0.008l0.022-0.012l0.016-0.027l0.051-0.01l0.106-0.002l0.035-0.022l0.016-0.055l0.075-0.073l0.047-0.004l0.08,0.014l0.159-0.047l0.276-0.153l0.022-0.049l0.043-0.022l0.053,0.006l0.059-0.018l0.031-0.033l0.045,0.002l0.047,0.069l0.055,0.008l0.076-0.014l0.01-0.033l-0.027-0.047l-0.069-0.035l-0.025-0.041l0.018-0.035l0.051-0.025l0.063,0.006l0.043,0.027h0.063l0.018-0.016l0.02-0.043l0.029-0.016l0.045,0.018l0.02,0.041h0.022l0.002-0.031l-0.008-0.037l0.033-0.029l0.078-0.016l0.114-0.098l0.114-0.141l0.1-0.035l0.129-0.008l0.041-0.024l0.035-0.037l0.035-0.01l0.016,0.012l-0.004,0.029l0.008,0.008l0.025-0.008l0.025-0.043l0.061-0.024l0.041-0.043l0.049-0.104l0.114-0.145l0.065-0.061l0.076-0.018l0.022-0.029l0.002-0.076l-0.016-0.069l0.006-0.024l0.022-0.002l0.059,0.045h0.022l0.018-0.071l-0.014-0.035l0.025-0.043l0.059-0.029l0.002-0.012l-0.031-0.022l0.008-0.027l0.096-0.071l0.033-0.047l0.12-0.082l0.257-0.067l0.016-0.025l0.004-0.033l0.035-0.02l0.155-0.024l0.049,0.012l0.051-0.01l0.102-0.045l0.075-0.012l0.18-0.075l0.049-0.051l0.198-0.106l0.104-0.024l0.053-0.027l0.029-0.035l0.049-0.018l0.059-0.018l0.086-0.071l0.02-0.082l-0.012-0.057l-0.078-0.092l0.01-0.055l0.243-0.198l0.031-0.075L19.347,230.773z M18.412,228.616l0.041,0.024l-0.002,0.061l-0.022,0.006l-0.057-0.043l-0.008-0.029l0.016-0.018H18.412z M-53.866,233.659l0.133,-0.098l0.102,-0.082l0.192,-0.094l0.176,-0.035l0.141,0.008l0.169,-0.043l0.149,0.008l0.063,0.027l0.267,0.024l0.11,0.051l0.024,0.035l0.118,0.012l0.094,-0.02l0.145,-0.055l0.408,0.012l0.137,0.078l0.047,0.078l-0.067,0.106l0.016,0.051l0.086,0.02l0.169,-0.098l0.133,0.008l0.176,0.098l-0.035,0.118l-0.106,0.067l-0.004,0.063l0.063,0.031l0.239,0.008l0.216,0.051l0.039,0.067l-0.039,0.039l-0.169,-0.02l-0.173,0.027l-0.114,-0.02l-0.153,-0.071l-0.102,-0.012l-0.078,0.055l-0.153,0.216l-0.137,0.024l-0.086,-0.043l-0.086,-0.137l-0.078,-0.02l-0.157,0.078l-0.2,0.271l-0.149,0.051l-0.035,-0.024l-0.004,-0.125l-0.074,-0.082l-0.082,-0.02l-0.055,0.027h-0.047l-0.039,-0.031l-0.039,0.012l-0.02,0.063l-0.047,0.012l-0.075,-0.027l-0.118,-0.012l-0.016,-0.031l0.086,-0.09l0.016,-0.059l-0.012,-0.098l0.031,-0.071l0.059,-0.059l0.023,-0.055l-0.031,-0.008l-0.094,0.039l-0.482,0.047l-0.016,-0.027l0.067,-0.192l-0.035,-0.035h-0.192l-0.176,0.067h-0.098l-0.173,-0.051l0.008,-0.051L-53.866,233.659L-53.866,233.659z M-50.685,236.207l0.036,0.052l0.23,0.089l0.261,0.021l0.246,-0.047l0.11,0.031l0.136,0.094l0.094,0.031l0.099,-0.005l0.089,0.026l0.047,-0.016l-0.01,-0.173l-0.084,-0.214l0.042,-0.11l0.099,-0.115l0.157,-0.094l-0.021,-0.042l-0.146,-0.026l-0.413,0.052l-0.256,0.157l-0.031,0.078l-0.209,0.078l-0.146,-0.042h-0.089l-0.073,0.068l-0.125,0.031L-50.685,236.207L-50.685,236.207z M-48.795,234.463l-0.016,0.024l0.055,0.078l0.078,0.027l0.09,0.004l0.023,-0.027l-0.118,-0.078L-48.795,234.463L-48.795,234.463z M-48.478,234.577l-0.016,0.027l0.035,0.055l0.169,0.075l0.035,-0.024l-0.004,-0.051l-0.118,-0.055L-48.478,234.577L-48.478,234.577z M-48.074,234.691l0.004,0.031l0.129,0.055l0.18,0.024l0.012,-0.043l-0.059,-0.063l-0.122,-0.051h-0.078l-0.027,0.02L-48.074,234.691L-48.074,234.691z M-41.391,236.408l-0.031,0.047l0.063,0.133l0.086,0.024l0.149,-0.024l0.047,-0.071l-0.024,-0.063l-0.149,-0.063L-41.391,236.408L-41.391,236.408z M-32.516,239.187l0.094,0.094l0.089,0.021l0.115,-0.021l0.01,-0.026l-0.136,-0.146l-0.256,-0.089l-0.183,-0.031l-0.005,0.031L-32.516,239.187L-32.516,239.187z M-31.854,238.259l-0.063,0.082l-0.008,0.114l0.129,0.192l0.157,0.035l0.192,-0.169l0.047,-0.078l-0.012,-0.043l-0.259,-0.129L-31.854,238.259L-31.854,238.259z M-33.133,238.228l0.141,0.02l0.098,-0.059l-0.008,-0.094l-0.039,-0.09l-0.106,-0.051l-0.157,0.039l-0.039,0.075l0.012,0.122L-33.133,238.228L-33.133,238.228z M-32.533,238.357l0.063,-0.004l0.004,-0.031l-0.027,-0.035l-0.043,-0.016l-0.043,0.02l-0.012,0.031L-32.533,238.357L-32.533,238.357z M-32.372,238.389l-0.012,0.031l0.004,0.039h0.031l0.09,-0.059l0.008,-0.027l-0.051,-0.012L-32.372,238.389L-32.372,238.389z M-34.929,238.326l-0.039,0.035l-0.004,0.035l0.063,0.043l0.145,0.024l0.106,-0.02v-0.02l-0.122,-0.039l-0.059,-0.008l-0.039,-0.035L-34.929,238.326L-34.929,238.326z M-36.505,238.706l0.008,0.055l0.027,0.024l0.086,0.008l0.212,0.145l0.027,0.055l0.067,0.012l0.047,-0.047l-0.004,-0.145l0.09,-0.165l0.129,-0.082l0.141,-0.039l0.086,0.02l0.027,0.075l0.051,0.008l0.024,-0.016l0.027,-0.078l0.082,-0.004l0.114,0.055l0.125,-0.004l0.098,-0.051l0.004,-0.059l-0.039,-0.035l-0.125,-0.027l-0.067,-0.086l0.024,-0.043l0.094,0.012l0.027,-0.043l-0.004,-0.059l0.11,-0.118l0.114,-0.067l0.122,-0.184l-0.004,-0.102l-0.153,-0.137l-0.114,-0.024l-0.114,0.031l-0.063,0.133l-0.012,0.09l-0.125,0.141l-0.039,0.176l-0.063,0.102l-0.078,0.035l-0.302,0.02l-0.118,0.059l-0.074,0.082l-0.02,0.063l-0.098,0.078l-0.204,0.039l-0.106,0.059L-36.505,238.706L-36.505,238.706z M-31.254,239.898v0.043l0.114,0.086l0.216,0.122l0.22,0.071l0.098,0.008l0.102,-0.027l0.118,0.039l0.216,0.118l0.098,0.02l0.078,0.051l0.016,0.051l0.267,0.239l0.059,0.063l0.463,0.29l0.145,0.039l0.008,0.02l-0.043,0.063l0.027,0.063l0.09,0.024l0.141,-0.051l0.231,-0.008l0.102,-0.055l0.059,-0.02l0.016,0.016l-0.035,0.051l0.008,0.024l0.098,0.012l0.196,-0.051l0.027,-0.027l-0.008,-0.02l-0.11,-0.035l-0.078,0.004l-0.031,-0.027l-0.008,-0.071l-0.067,-0.027l-0.228,0.039l-0.122,0.035l-0.035,-0.008l0.008,-0.024l0.082,-0.055l-0.016,-0.027l-0.102,0.012l-0.051,0.016l-0.082,-0.016l-0.055,-0.043l-0.008,-0.039l-0.094,-0.075l-0.004,-0.063l-0.051,-0.016h-0.082l-0.247,-0.133l-0.114,-0.114l-0.067,-0.027l-0.059,-0.039l-0.106,-0.133v-0.063l-0.075,-0.047l-0.086,0.012l-0.09,-0.027l-0.047,-0.09l-0.11,-0.067l-0.451,-0.09l-0.098,0.02l-0.141,-0.043l-0.059,-0.051l-0.086,-0.024l-0.074,0.024l-0.02,0.035L-31.254,239.898L-31.254,239.898z M-28.035,238.267l-0.027,0.031l-0.004,0.059l0.035,0.059l-0.008,0.043l-0.039,0.047l0.051,0.082l0.22,0.145l0.11,0.012l0.196,0.067l0.106,-0.027l0.063,-0.09l0.22,-0.071l0.043,-0.039l-0.012,-0.039l-0.043,-0.027l0.008,-0.039l0.106,-0.016l0.016,-0.082l-0.086,-0.078l-0.141,-0.063l-0.055,-0.071l-0.184,-0.106h-0.106l-0.169,0.094l-0.11,0.102l-0.094,0.024L-28.035,238.267L-28.035,238.267z M-21.891,240.176l-0.021,0.031l0.094,0.141l0.11,0.047l0.178,-0.016l0.042,-0.037l-0.068,-0.073l-0.178,-0.01L-21.891,240.176L-21.891,240.176z M-19.878,240.677l0.042,0.016l0.078,-0.01l0.005,-0.026l-0.052,-0.016l-0.047,0.005L-19.878,240.677L-19.878,240.677z M-22.659,240.212l0.063,0.021l0.047,-0.01l-0.037,-0.078l-0.078,-0.01l-0.026,0.031L-22.659,240.212L-22.659,240.212z M-21.211,240.139l0.099,0.005l0.078,-0.042l-0.01,-0.052l-0.12,-0.026l-0.105,0.021v0.063L-21.211,240.139L-21.211,240.139z M-20.965,240.139l0.057,0.021l0.052,-0.016v-0.063l-0.052,-0.026l-0.063,0.01l-0.016,0.037L-20.965,240.139L-20.965,240.139z M-21.791,239.365h0.172l0.12,-0.063l0.037,-0.125l-0.11,-0.146l-0.188,-0.058l-0.136,0.031l-0.068,0.125l-0.01,0.11L-21.791,239.365L-21.791,239.365z M-22.968,241.723l-0.021,0.094l0.042,0.073h0.094l0.12,-0.115l0.026,-0.125l-0.073,-0.131l-0.089,-0.026l-0.105,0.052l-0.052,0.115L-22.968,241.723L-22.968,241.723z M-22.414,241.425l0.047,0.01l0.105,-0.11l0.11,-0.01l0.026,-0.063l-0.068,-0.141l-0.115,-0.078l-0.063,0.016l-0.031,0.115l0.026,0.089L-22.414,241.425L-22.414,241.425z M-19.580,238.774l0.031,0.094l0.429,0.188l0.047,0.084l0.084,0.047l0.005,0.026l0.068,0.016l0.094,-0.021l0.183,0.042l0.084,0.094l-0.031,0.178l-0.256,0.063l-0.277,-0.01l-0.052,0.047l-0.026,0.089l0.052,0.068l0.115,0.016l0.084,-0.026l0.235,0.084l0.146,0.11l0.073,0.12l0.084,0.021l0.026,-0.037l-0.084,-0.188l0.031,-0.162l0.068,-0.052l0.136,0.047l0.12,-0.078l0.021,-0.063l-0.031,-0.089l0.037,-0.089l0.12,-0.073v-0.042l-0.073,-0.047l0.031,-0.047l0.303,-0.115l0.272,-0.01l0.11,-0.105l-0.047,-0.037l-0.209,0.005l-0.115,0.068l-0.136,0.01l-0.078,-0.047h-0.11l-0.099,0.052l-0.146,-0.047l-0.162,-0.084v-0.063l-0.115,-0.173l-0.089,-0.058l-0.157,0.016l-0.413,-0.031l-0.293,0.073L-19.580,238.774L-19.580,238.774z M-17.556,239.705l-0.005,0.084l0.063,0.047l0.078,-0.031l0.037,-0.11l0.104,-0.068h0.397l0.152,-0.089l0.199,-0.042l0.172,0.031l0.256,0.167l0.105,-0.005l0.131,-0.089l0.298,-0.031l0.073,-0.099l0.031,-0.261l-0.063,-0.12l0.037,-0.105l0.199,-0.12l0.063,-0.126l-0.005,-0.11l-0.251,-0.162l-0.214,-0.016l-0.078,0.099l-0.026,0.371l-0.063,0.183l-0.152,0.094l-0.34,0.063l-0.423,0.11l-0.084,0.063l-0.12,0.047h-0.267l-0.136,-0.047l-0.073,0.01l-0.047,0.063l-0.131,0.063l-0.005,0.068L-17.556,239.705L-17.556,239.705z M-13.661,239.796l0.029,-0.034l-0.011,-0.033l-0.025,-0.008l-0.022,0.023l-0.001,0.044L-13.661,239.796L-13.661,239.796z M-5.669,238.109l0.011,-0.027l-0.048,-0.017l-0.042,0.018l-0.003,0.033l0.037,0.02L-5.669,238.109L-5.669,238.109z M-11.967,238.427l0.049,0.023l0.044,-0.003l0.003,-0.023l-0.042,-0.031l-0.047,0.003L-11.967,238.427L-11.967,238.427z M-13.239,239.462l0.021,0.003l0.012,-0.015l-0.018,-0.032l-0.022,-0.013l-0.016,0.018L-13.239,239.462L-13.239,239.462z M-14.398,239.153l0.036,-0.003l0.002,-0.017l-0.038,-0.012l-0.028,0.007l-0.002,0.016L-14.398,239.153L-14.398,239.153z M-10.955,238.007l0.024,-0.012l-0.01,-0.012l-0.045,0.005l0.002,0.014L-10.955,238.007L-10.955,238.007z M-11.723,238.517l0.026,0.01l0.027,-0.013l-0.001,-0.029l-0.02,-0.007l-0.033,0.024L-11.723,238.517L-11.723,238.517z M-14.254,239.096l-0.002,-0.019l-0.024,-0.008l-0.021,0.009l-0.004,0.017l0.019,0.009L-14.254,239.096L-14.254,239.096z M-14.309,239.002l0.019,-0.003l0.003,-0.014l-0.016,-0.01h-0.029l-0.007,0.014L-14.309,239.002L-14.309,239.002z M-13.743,239.822l0.024,0.007l0.007,-0.009l-0.008,-0.016l-0.02,-0.004l-0.007,0.009L-13.743,239.822L-13.743,239.822z M-14.283,239.167l0.04,-0.005l0.017,-0.017l-0.022,-0.014l-0.054,0.007l-0.012,0.014L-14.283,239.167L-14.283,239.167z M-8.124,237.142l0.045,-0.007l-0.004,-0.028l-0.035,-0.017l-0.042,0.003l-0.01,0.028L-8.124,237.142L-8.124,237.142z M-9.320,238.307l0.057,-0.016l0.02,-0.024l-0.022,-0.025l-0.066,-0.009l-0.055,0.033l0.007,0.031L-9.320,238.307L-9.320,238.307z M-6.386,237.373l0.034,0.012l0.048,-0.016l-0.003,-0.024l-0.03,-0.016l-0.041,0.021L-6.386,237.373L-6.386,237.373z M-11.191,238.255l-0.002,0.029l0.11,0.053l0.171,0.025l0.027,-0.022l-0.002,-0.049l0.043,-0.014l0.069,0.012l0.137,-0.031l-0.002,-0.027l-0.073,-0.02l-0.398,-0.002L-11.191,238.255L-11.191,238.255z M-11.815,238.389l-0.01,0.016l0.027,0.024l0.11,-0.004l0.018,-0.027l-0.035,-0.02l-0.057,-0.002L-11.815,238.389L-11.815,238.389z M-11.527,238.41l-0.02,0.071l0.014,0.027l0.067,0.012l0.022,-0.059l-0.016,-0.061l-0.037,-0.004L-11.527,238.41L-11.527,238.41z M-11.390,238.371l-0.02,0.016l0.026,0.053l0.039,0.008l0.047,-0.035l-0.014,-0.027L-11.390,238.371L-11.390,238.371z M-10.799,238.481l0.063,0.016l0.051,0.043l0.139,0.051l0.106,-0.016l0.002,-0.041l-0.02,-0.012l-0.039,0.008l-0.045,-0.022l-0.049,-0.116l-0.043,-0.022l-0.159,0.029l-0.065,0.041l-0.002,0.035L-10.799,238.481L-10.799,238.481z M-10.385,238.371l-0.022,0.02l0.002,0.055l0.043,0.047l0.047,0.008l0.033,-0.024l-0.008,-0.037l0.018,-0.025l0.198,-0.037l0.01,-0.029l-0.033,-0.029l-0.037,-0.004l-0.018,0.025l-0.035,0.004l-0.069,-0.027l-0.086,-0.01l-0.045,0.018L-10.385,238.371L-10.385,238.371z M-9.572,237.285l-0.022,0.027l0.014,0.051l0.045,0.027l0.055,-0.008l0.014,-0.033l-0.01,-0.043l-0.045,-0.022H-9.572L-9.572,237.285z M1.095,236.803l0.005,0.099l0.136,0.078l0.235,0.005l0.512,-0.157l0.314,-0.178l0.026,-0.105l-0.078,-0.089l-0.199,-0.047l-0.193,-0.084l-0.209,0.026l-0.314,0.162l-0.099,0.167L1.095,236.803L1.095,236.803z M-13.291,239.473l-0.027,0.031l-0.01,0.055l0.014,0.035l0.031,0.01l0.018,-0.018l-0.004,-0.047l0.022,-0.029l-0.01,-0.029L-13.291,239.473L-13.291,239.473z M-15.033,239.948l-0.005,0.058l0.039,0.078l0.125,0.042l0.047,-0.024l0.123,-0.209l0.099,-0.097l0.034,-0.047l0.034,-0.102l0.071,-0.123l0.024,-0.008l0.021,0.055l-0.031,0.123l0.01,0.06l0.047,0.055l0.003,0.065l-0.034,0.037l0.003,0.052l0.057,0.065h0.039l0.086,-0.091l0.078,-0.008l0.081,0.034l0.037,-0.018l0.008,-0.055l-0.044,-0.076l0.026,-0.078l0.052,-0.039l0.063,-0.016l0.105,0.018l0.165,-0.042l0.029,-0.068l0.05,-0.008l0.057,0.078l0.052,-0.008l0.118,-0.167l0.05,-0.12l0.065,-0.034l0.057,0.005l0.065,0.076l-0.013,0.06l0.042,0.01l0.125,-0.065l0.026,-0.081l-0.023,-0.097l0.029,-0.039l-0.024,-0.086l0.01,-0.136l-0.037,-0.05l-0.115,-0.039l-0.12,0.016l-0.057,0.068l-0.084,-0.003l-0.159,-0.034l-0.065,-0.047l-0.081,-0.01l-0.089,0.018l-0.01,-0.031l0.073,-0.052l0.018,-0.105l0.086,-0.078l0.097,-0.026l0.063,0.008l0.042,-0.05l-0.003,-0.044l-0.055,-0.05l0.003,-0.081l0.037,-0.107l-0.029,-0.076l-0.123,-0.016l-0.097,0.037l-0.036,0.105l0.013,0.071l0.026,0.031l-0.013,0.071l-0.044,0.052l-0.029,-0.005l-0.065,-0.076l-0.034,-0.058l-0.212,-0.078l-0.178,0.016l-0.091,0.089l-0.026,0.12l0.055,0.112l0.146,0.071l0.092,0.044l0.005,0.047l-0.047,0.034l-0.123,0.008l-0.029,0.06l-0.005,0.078l0.078,0.099l0.178,0.063l-0.013,0.024l-0.076,0.018l-0.178,-0.01l-0.05,0.024l-0.042,-0.01l-0.141,-0.102l-0.044,-0.078l-0.047,-0.008l-0.021,0.037l-0.063,0.026l-0.052,0.003l-0.026,0.05l0.005,0.091l0.112,0.071l0.144,0.071l0.026,0.047l-0.024,0.016l-0.06,-0.034l-0.084,-0.024l-0.01,0.021l0.055,0.044l-0.013,0.063l-0.097,0.105l-0.092,0.013l-0.149,0.081l-0.05,0.105l0.013,0.047l-0.021,0.055L-15.033,239.948L-15.033,239.948z M-12.024,238.16l0.055,0.037l0.196,0.01l0.097,0.039l0.024,0.068l0.063,0.026l0.141,-0.024l0.026,-0.065l-0.047,-0.052l-0.029,0.003l-0.029,-0.018l0.016,-0.052l0.034,-0.031l0.052,0.005l0.031,-0.01v-0.037l0.021,-0.016l0.052,0.021l0.081,-0.021l0.01,-0.05l-0.021,-0.008l-0.026,0.021l-0.063,-0.01l-0.042,-0.047l0.018,-0.05l-0.013,-0.065l-0.144,-0.141l-0.303,-0.055l-0.112,0.018l-0.149,0.146l-0.044,0.107L-12.024,238.16L-12.024,238.16z M-11.744,238.714l-0.005,0.029l0.141,0.055l0.018,0.037l0.086,0.016l0.097,-0.005l0.128,0.037l0.063,0.037l0.031,-0.024l0.042,-0.162l-0.021,-0.026l-0.05,-0.005l-0.05,0.031l-0.115,-0.005l0.003,-0.034l0.073,-0.024l0.008,-0.034l-0.081,-0.031l-0.251,0.05L-11.744,238.714L-11.744,238.714z M-12.191,238.826l0.003,0.047l0.068,0.05l-0.016,0.026l-0.05,0.003l-0.058,0.021l-0.003,0.044l0.086,0.063l0.115,0.026l0.031,0.044l-0.008,0.034l0.052,0.076l0.05,0.021l0.029,-0.016v-0.021l-0.042,-0.018l0.003,-0.068l0.031,-0.131l0.016,-0.003l0.005,0.063l0.031,0.047l0.118,0.039l0.042,-0.005l-0.01,-0.044l-0.065,-0.071l0.005,-0.021l0.094,-0.008l0.186,0.034l0.044,0.052l0.065,0.013l0.018,-0.013l-0.031,-0.018l-0.003,-0.078l-0.076,-0.084l-0.188,-0.055l-0.107,0.013l-0.044,0.034l-0.039,-0.005l-0.097,-0.12l-0.141,-0.031l-0.097,0.013L-12.191,238.826L-12.191,238.826z M-12.887,239.033l-0.024,0.047l0.01,0.076l0.039,0.039l0.013,0.094l-0.024,0.044l0.005,0.081l0.05,0.021l0.042,-0.005l0.055,0.003l0.042,0.039l0.06,0.008l0.089,-0.052l0.068,-0.008l0.042,-0.018l-0.003,-0.06l0.013,-0.05l0.084,-0.039v-0.044l-0.013,-0.039l0.008,-0.089l-0.063,-0.039l-0.188,-0.024l-0.029,-0.016l0.021,-0.024l0.133,0.01l0.057,-0.031l0.037,-0.094l-0.034,-0.037l-0.152,-0.016l-0.254,0.008l-0.105,0.037l-0.018,0.039l0.024,0.076L-12.887,239.033L-12.887,239.033z M-8.885,238.067l-0.024,0.031l0.035,0.055l0.074,0.004l0.114,-0.027l0.404,0.008l0.204,0.043l0.082,-0.004l0.09,-0.039l0.129,0.008l0.055,-0.016l0.024,-0.047l0.051,0.004l0.039,0.02l0.059,-0.012l0.094,-0.055l0.235,-0.035l0.255,0.039l0.2,0.071l0.043,0.039l0.102,0.008l0.125,-0.055l0.008,-0.09l0.035,-0.004l0.125,0.051l0.102,-0.027l0.031,-0.039l0.082,-0.012l0.114,0.027l0.043,-0.016l0.008,-0.071l0.027,-0.008l0.11,0.071l0.016,-0.016l-0.047,-0.09l0.02,-0.035l0.102,0.004l0.094,0.063l0.074,0.094h0.067l0.13,-0.18l0.027,-0.118l0.102,-0.059l0.137,-0.004l0.09,0.071l0.177,0.02l0.074,-0.027l0.016,-0.063l0.059,-0.012l0.071,0.035l0.035,-0.012l0.043,-0.035l0.106,0.008l0.067,0.063l0.067,-0.008l0.031,-0.082l-0.027,-0.094l-0.188,-0.157l-0.177,-0.082l-0.043,-0.11l0.031,-0.071h0.055l0.098,0.031l0.188,-0.004l0.149,0.016l0.043,-0.043l0.039,-0.118l0.035,-0.067l0.106,-0.071l0.035,-0.098l0.004,-0.075l-0.078,-0.106v-0.043l0.02,-0.02l-0.008,-0.035l-0.106,-0.027l-0.063,-0.043l-0.027,-0.051l-0.122,-0.059l-0.059,-0.004l-0.075,-0.024l-0.047,-0.051l-0.145,-0.035l-0.094,0.024l-0.059,0.059l-0.122,0.012l-0.063,-0.004l-0.039,0.024l0.004,0.051l-0.027,0.024h-0.114l-0.063,0.063l0.004,0.071l0.02,0.047l-0.051,0.094l-0.082,0.024l-0.216,-0.008l-0.11,-0.012l-0.055,0.043l0.016,0.067l0.161,0.063l0.212,0.039l0.114,-0.02l0.188,0.051l0.11,-0.008l0.059,0.047l-0.02,0.071l-0.129,0.078l-0.024,0.043l-0.129,0.082l-0.137,-0.004l-0.102,-0.051l-0.267,-0.012l-0.047,0.039l0.012,0.039l0.149,0.086l0.012,0.059l-0.043,0.024l-0.051,-0.004l-0.051,-0.059l-0.11,-0.012l-0.055,0.039l-0.063,0.012l-0.11,-0.035l-0.059,0.004l-0.016,0.059l0.024,0.058l0.052,0.031l0.084,0.005l0.063,0.037l-0.016,0.018l-0.157,0.016l-0.068,-0.024l-0.037,-0.026l-0.076,0.008l-0.029,0.063l0.021,0.065l0.057,0.034l0.01,0.026l-0.021,0.005l-0.106,-0.026l-0.262,0.01l-0.042,0.021l-0.026,-0.013l0.029,-0.039l-0.031,-0.018h-0.125l-0.016,0.024l0.016,0.06l-0.052,0.037l-0.086,0.013l-0.118,-0.018l-0.097,-0.005l-0.052,-0.029l-0.131,-0.003l-0.024,-0.024l-0.014,-0.037l-0.041,-0.01l-0.068,0.029l-0.013,0.065l0.026,0.042l-0.013,0.024h-0.094l-0.068,0.024v0.034l-0.039,0.021l-0.055,-0.01l-0.024,-0.037l-0.063,-0.018l-0.05,0.013l-0.044,0.063l0.008,0.081h-0.031l-0.039,-0.013l-0.06,0.005l-0.076,0.052l-0.081,0.013l-0.003,-0.018l0.044,-0.039l-0.008,-0.037l-0.039,-0.026l-0.141,0.008l-0.115,0.026l-0.052,0.068l-0.091,0.021l-0.065,-0.024l-0.029,-0.031h-0.034l-0.057,0.063l-0.086,0.026L-8.885,238.067L-8.885,238.067z M-4.117,237.542l-0.035,0.027l0.051,0.078l0.095,0.052l0.084,0.005l0.094,0.039l0.118,0.167l0.11,0.031l0.086,0.003l0.12,0.037l0.065,-0.003l0.078,-0.034l0.238,0.003l0.139,-0.071l0.026,0.005l0.037,0.065l0.057,0.01l0.112,-0.031l0.246,-0.003l0.021,0.016l-0.013,0.044l0.024,0.029l0.063,0.026l0.076,-0.003l0.081,0.031l0.081,0.003l0.034,-0.018l-0.01,-0.018l-0.034,-0.013l0.003,-0.037l0.063,-0.018l0.217,0.029l0.063,0.024l0.086,-0.008l0.099,-0.078l0.052,-0.013h0.141l0.094,-0.029l0.102,-0.008l0.037,-0.018l0.037,0.003l0.128,0.042l0.076,0.003l0.162,-0.076l0.086,-0.01l0.118,0.018l0.146,-0.016l0.055,-0.034l0.154,-0.005l0.047,-0.031l-0.013,-0.021l-0.146,-0.031l-0.355,0.005l-0.081,-0.044l-0.055,-0.003l-0.024,0.037h-0.039l-0.06,-0.031l-0.092,-0.005l-0.107,0.047h-0.057l-0.078,-0.044h-0.17l-0.06,0.042l-0.089,0.021l-0.05,-0.013l-0.063,-0.063l-0.031,-0.008l-0.052,0.029l-0.052,-0.005l-0.065,-0.037l-0.05,-0.003l-0.021,0.039l-0.044,-0.003l-0.042,-0.039l-0.044,0.005l-0.05,0.039h-0.052l-0.102,-0.055l0.008,-0.039l0.071,-0.05l-0.013,-0.05l-0.034,-0.016l-0.071,0.005l-0.042,0.039l-0.05,0.008l-0.034,-0.008l-0.052,-0.031l-0.099,-0.008l-0.199,0.063l-0.034,0.029l-0.136,0.01l-0.102,-0.016l-0.084,0.008l-0.06,0.034l-0.065,0.073l-0.052,0.005l-0.039,-0.01l-0.003,-0.034l0.024,-0.029l-0.026,-0.018l-0.044,0.013l-0.065,0.047l-0.115,0.003l-0.005,-0.026l0.034,-0.055l0.031,-0.013l-0.005,-0.018l-0.06,-0.008l-0.115,0.037l-0.175,0.013l-0.133,-0.037L-4.117,237.542L-4.117,237.542z M6.020,235.932l0.026,0.081l0.042,0.021l0.024,-0.024h0.039l0.063,0.037h0.105l0.099,-0.078l0.018,-0.115l-0.047,-0.105l-0.089,-0.073l-0.065,-0.01l-0.133,0.065l-0.081,0.115V235.932L6.020,235.932z M6.556,235.493l0.029,0.031l0.125,0.013l0.044,-0.042l0.024,-0.065l-0.073,-0.037l-0.078,0.013l-0.047,0.044L6.556,235.493L6.556,235.493z M7.741,235.506l0.023,0.029l0.068,0.003l0.065,0.034l0.01,0.031l0.044,-0.01l0.238,-0.217l0.118,-0.042l0.259,0.008l0.084,-0.05l0.123,-0.191l0.008,-0.099l-0.089,-0.089l-0.112,-0.037l-0.102,-0.003l-0.071,-0.021l-0.06,0.018l-0.034,0.042l-0.154,0.018l-0.039,0.024l-0.016,0.073l-0.05,0.058l-0.125,0.042l-0.089,0.01l-0.057,0.055l-0.029,0.136L7.741,235.506L7.741,235.506z M11.654,233.041v0.05l0.081,0.047l0.073,0.003l0.029,-0.05l-0.01,-0.06l-0.073,-0.06l-0.05,0.005L11.654,233.041L11.654,233.041z M10.418,233.862l-0.003,0.034l0.123,0.115l0.131,0.044l0.081,-0.013l0.12,-0.073l0.01,-0.118l-0.052,-0.06l-0.201,-0.06l-0.084,0.013l-0.026,0.026l-0.018,0.052L10.418,233.862L10.418,233.862z M10.201,234.722l0.018,0.024l0.055,-0.01l0.227,0.016l0.092,-0.034l0.076,-0.144l-0.016,-0.073l-0.071,-0.042l-0.201,-0.044l-0.118,0.008l-0.031,0.029l-0.031,0.128l0.018,0.06l-0.008,0.058L10.201,234.722L10.201,234.722z M11.845,233.616l0.031,0.013l0.105,-0.044l0.05,-0.063l0.005,-0.055l0.047,-0.071l0.047,-0.034l-0.005,-0.06l-0.031,-0.081l-0.112,-0.026l-0.125,0.037l-0.047,0.068l-0.057,0.162l0.021,0.073l0.068,0.05L11.845,233.616L11.845,233.616z M10.870,234.254l0.01,0.044l0.073,0.081l0.086,0.026l0.102,-0.01l0.133,-0.073l0.042,-0.065l0.039,-0.029l0.06,0.005l0.016,0.029l0.152,0.06l0.065,-0.01l0.068,0.01l0.091,0.071l0.026,0.063l0.071,0.013l0.068,-0.026l0.005,-0.029l-0.026,-0.052l0.008,-0.034l0.097,-0.073l0.01,-0.029l-0.029,-0.039l0.005,-0.042l0.039,-0.042l0.01,-0.068l-0.031,-0.039l-0.044,-0.003l-0.031,-0.018l-0.013,-0.042l-0.139,-0.044l-0.149,0.008l-0.029,0.039l-0.06,0.026l-0.107,-0.013l-0.115,0.008l-0.018,0.034l0.018,0.039l0.003,0.034l-0.037,0.026l-0.097,0.003l-0.162,-0.042l-0.178,0.034l-0.081,0.081v0.052L10.870,234.254L10.870,234.254z M21.47,230.893l0.024,0.007l0.007-0.009l-0.008-0.016l-0.02-0.004l-0.007,0.009L21.47,230.893z M20.272,231.255l0.014-0.011l-0.001-0.015l-0.018-0.006l-0.012,0.012l0.001,0.014L20.272,231.255z M22.79,229.808v0.014l0.012,0.008l0.017-0.008l-0.004-0.018l-0.019-0.006L22.79,229.808z M22.705,231.102l0.024-0.027l0.004-0.039l-0.031-0.051H22.67l-0.012,0.024l0.004,0.075L22.705,231.102z M30.199,227.176l0.153-0.073l0.12-0.022l0.084,0.02l-0.002,0.055l-0.045,0.016l-0.043-0.016h-0.067l-0.151,0.075l-0.088,0.012l-0.037-0.022L30.12,227.2L30.199,227.176z M30.019,227.488l0.018,0.018v0.014l-0.031,0.004l-0.018-0.014l0.008-0.02L30.019,227.488z M30.326,227.272l0.024,0.016l-0.024,0.018l-0.055,0.006l-0.024-0.018l0.014-0.024L30.326,227.272z M25.743,228.985l0.013-0.034l0.024-0.005l0.018,0.01v0.026l-0.024,0.016L25.743,228.985z M27.828,227.563v0.012l-0.018,0.006l-0.018-0.008v-0.014l0.016-0.004L27.828,227.563z M27.707,227.898l0.037-0.012l0.016,0.016l-0.004,0.031l0.025,0.027l0.073,0.022l0.008,0.033l-0.024,0.025l-0.106,0.027l-0.1,0.018l-0.022-0.006l-0.008-0.031l-0.049-0.033l0.022-0.029L27.707,227.898z M27.96,227.816l0.082-0.008l0.076,0.01l0.094-0.006l0.114-0.061l0.031-0.004l0.053,0.029l0.051,0.002l0.035-0.014l0.094-0.01l0.116,0.012l0.02,0.029l0.055,0.041l0.016,0.055l-0.01,0.035l-0.035,0.008l-0.049-0.031l-0.059,0.004l-0.022,0.031l-0.01,0.067l-0.024,0.002l-0.051-0.02l-0.049-0.033l-0.031-0.065l-0.057-0.024l-0.118-0.002l-0.082-0.008l-0.088-0.004l-0.047,0.016l-0.114,0.006l-0.057-0.022v-0.014L27.96,227.816z M28.907,227.708l0.004-0.031l0.027-0.039l0.066-0.02l0.042,0.007l0.027,0.025h0.035l0.022-0.022l0.008-0.037l0.031-0.018l0.069,0.007l0.043,0.033l0.033,0.006l0.018-0.024l0.055-0.012l0.094,0.02l0.024,0.031l0.049,0.016l0.029-0.006l0.002-0.031l0.022-0.008l0.059,0.014l0.075,0.006l0.025-0.012l0.002-0.016l-0.031-0.031l-0.057-0.022l0.01-0.01h0.051l0.025,0.01l0.025,0.024l0.025-0.004l0.033-0.022l0.088,0.002l0.031,0.037l0.002,0.076l-0.058,0.072l-0.062,0.108l-0.061,0.02l-0.055-0.012l-0.145,0.014l-0.043,0.027l-0.045-0.004l-0.014-0.02l-0.039-0.008l-0.057,0.022l-0.098-0.025l-0.045-0.045l-0.053-0.004l-0.057,0.025l-0.029-0.002l-0.025-0.024l-0.157-0.024l-0.055-0.02l-0.006-0.024L28.907,227.708z M25.29,228.337l0.024-0.005l0.008-0.037l0.044-0.01l0.191,0.047l0.11,0.078v0.042l-0.099,0.044l-0.22,0.003l-0.12-0.052l-0.005-0.081l0.029-0.039L25.29,228.337z M24.841,229.31l0.029-0.003l0.039,0.055l0.031-0.013l0.026-0.076l0.063-0.042l0.037,0.018l0.008,0.078l-0.01,0.047l0.031,0.003l0.063-0.078l0.013-0.131l0.047-0.068h0.037l0.044,0.034l0.016-0.01l0.005-0.05l0.06-0.026l0.047,0.008h0.042l0.042-0.026l0.078,0.018l0.018,0.024l-0.01,0.021l-0.131,0.086l-0.026,0.065l0.018,0.031l0.073,0.029l-0.003,0.024l-0.037,0.013l0.008,0.024l0.031,0.026l-0.008,0.034l-0.102,0.029l-0.081-0.013l-0.058-0.013l-0.031,0.008l0.008,0.031l0.084,0.086l-0.021,0.052l-0.073,0.039l-0.086-0.008l-0.021,0.021l0.039,0.071l-0.039,0.013l-0.081-0.024l-0.05-0.052l-0.003-0.037l-0.034-0.021l-0.063-0.01l-0.058-0.044l-0.018-0.12L24.841,229.31z M23.85,228.917l0.024-0.047l0.047-0.039l0.005-0.042l-0.01-0.047l0.05-0.071l0.081-0.01l0.031,0.021l-0.003,0.042l-0.089,0.063l-0.01,0.078l-0.031,0.024h-0.031l-0.044,0.039L23.85,228.917z M23.819,228.755l0.024-0.018l0.016,0.01l-0.016,0.047l-0.016,0.005l-0.013-0.018L23.819,228.755z M27.149,226.912l0.06-0.065l0.099-0.024l0.016-0.047l-0.008-0.034l0.013-0.021l0.052,0.008l0.047,0.031l0.016,0.092l0.024,0.016l0.052-0.037l0.068-0.076l0.123-0.039l0.146,0.01l0.055,0.034l-0.008,0.031l-0.073,0.005l-0.055,0.029l-0.027,0.051l-0.045,0.039l-0.127,0.038l-0.01,0.029l0.11,0.042l0.008,0.031l-0.044,0.052l-0.076,0.039l-0.008,0.024l0.024,0.01l0.128-0.052l0.056,0.004l0.065,0.03l0.175-0.014l0.145,0.009l0.063,0.031l0.018,0.052l-0.021,0.052l-0.052,0.031l-0.146-0.024l-0.131,0.037l-0.018,0.029l0.018,0.039l-0.008,0.021l-0.052-0.008l-0.039,0.029l-0.003,0.039l-0.026,0.013l-0.12-0.021l-0.018,0.029l0.029,0.037l0.029,0.044l-0.05,0.076l-0.11,0.005l-0.123-0.052l-0.076-0.099l0.005-0.029l0.052-0.013l0.068-0.065l0.005-0.06l-0.01-0.024h-0.031l-0.071-0.044l-0.01-0.042l0.058-0.071l0.118-0.081l-0.008-0.052l-0.06-0.042l-0.055,0.008l-0.055,0.055h-0.141l-0.055-0.039l-0.003-0.052L27.149,226.912z M25.56,227.589l0.018-0.084l0.021-0.037l0.047-0.01l0.026-0.042l-0.005-0.073l0.052-0.06l0.154-0.037l0.06-0.044l0.068-0.081l0.17-0.024l0.063,0.013l0.013,0.031h0.044l0.05-0.016l0.107,0.018l0.021,0.047l-0.013,0.044l-0.026,0.031l-0.003,0.044l0.058,0.068l0.068,0.018l0.05-0.013l0.081-0.086l0.026-0.003l0.01,0.016l-0.021,0.026l0.01,0.021l0.078,0.01l0.105,0.042l0.042,0.055l-0.008,0.029l-0.123,0.06l-0.146-0.005l-0.021,0.021l0.029,0.013l0.128,0.016l0.118,0.037l0.063-0.013h0.063l0.128-0.055l0.042,0.005l0.021,0.026l-0.01,0.026l-0.037,0.016l-0.003,0.031l0.01,0.034l-0.021,0.042l-0.065,0.018l-0.094,0.005l-0.101,0.054l-0.027,0.037l-0.029,0.022l-0.057-0.004l-0.049-0.025l-0.107-0.016l-0.026-0.01l-0.003-0.016l-0.047-0.013l-0.031,0.016l-0.024,0.105l-0.081,0.11l-0.047,0.01l-0.039-0.021l-0.013-0.084l-0.071-0.042l-0.078-0.005l-0.039,0.026l-0.037-0.018l-0.013-0.024l-0.047-0.005l-0.081,0.068l-0.075,0.044l-0.069,0.003l-0.042-0.029l-0.024-0.055l0.013-0.044l-0.024-0.055l-0.071-0.042l-0.084-0.044L25.56,227.589z M19.175,231.661l0.114-0.094l0.145-0.067l0.122-0.133l0.078-0.043l0.173,0.004l0.063,0.047l0.039,0.004l0.09-0.043l0.031-0.067l0.075-0.035l0.098,0.059l0.157,0.043l0.035-0.024l-0.051-0.075l0.012-0.039l0.11-0.043l-0.004-0.098l0.047-0.016l0.118,0.043l0.082,0.075l0.063,0.035l0.027-0.016l-0.027-0.09l0.004-0.047l0.024-0.008l0.098,0.11l0.118,0.071l0.027-0.008l-0.075-0.153l0.008-0.051l0.051-0.008l0.059,0.047l0.059,0.008l0.039-0.051l-0.051-0.047l-0.008-0.047l0.039-0.024l0.263,0.071l0.129-0.027h0.09l0.024-0.027l-0.106-0.059v-0.031l0.063-0.024l0.004-0.043L21.56,230.7l-0.02-0.031l0.039-0.02l0.325,0.067l0.114-0.012l0.051-0.047l0.161-0.031l0.09,0.012l0.012-0.035l-0.067-0.031l-0.051,0.024l-0.157,0.012l-0.063,0.039l-0.063-0.004l-0.145-0.075l-0.051-0.067v-0.063l-0.098-0.153l0.004-0.063l0.071-0.071l0.173-0.02l0.125,0.078l0.035,0.067l0.031,0.008l0.02-0.082l-0.039-0.067l0.024-0.02l0.118,0.047l0.031-0.012l-0.082-0.114l-0.122-0.059l-0.047-0.094l0.055-0.094l0.18-0.086l0.341-0.012l0.09,0.047l0.106,0.141l-0.004,0.082l0.024,0.102l0.027,0.016l0.063-0.078l0.051,0.004l0.071,0.118l0.047,0.012l-0.02-0.125l-0.086-0.098l-0.039-0.118l0.004-0.043l0.078,0.004l0.082,0.055l0.098,0.012l0.051-0.035l-0.027-0.016l-0.063,0.004l-0.067-0.031L23.03,229.7l0.043-0.02l0.118,0.024l0.149,0.004l0.024-0.02l-0.075-0.039l-0.353-0.059l-0.184-0.008l-0.024-0.012l0.012-0.039l-0.059-0.024h-0.047l-0.122-0.031l-0.114-0.055l-0.071-0.004l-0.039,0.047l-0.063,0.043l-0.102-0.016l-0.035-0.059l-0.137-0.067l-0.051-0.047l0.02-0.051l-0.012-0.059l-0.047-0.039l-0.153-0.008l-0.043-0.031l-0.02-0.11l0.063-0.059l0.082-0.016l0.071-0.086l0.051-0.153l0.063-0.059l0.086-0.02l0.063-0.043l0.012-0.067l0.09-0.031l0.067,0.008l0.114-0.031l0.169-0.102h0.125l0.078,0.027l0.063-0.016l0.043-0.035l0.259-0.122h0.059l0.047,0.039l0.086,0.012l0.11-0.067l0.157,0.024l0.11,0.11l0.039,0.114v0.055l-0.09,0.012l-0.09,0.098l-0.016,0.055l0.078,0.086l0.016,0.055l-0.043,0.063l0.012,0.043l0.059,0.004l0.059-0.047l0.051,0.024l0.008,0.039l-0.11,0.149v0.047l0.078-0.012l0.165-0.161l0.286-0.18h0.075l0.027-0.09l-0.02-0.059l0.012-0.098l0.035-0.012l0.043,0.027l0.027-0.004l0.012-0.051l-0.012-0.047l0.027-0.078l0.11-0.106h0.055l0.039,0.071l-0.071,0.133l-0.02,0.067l0.031,0.027l0.129-0.031l0.067-0.075l0.071-0.027l0.047-0.051h0.039l0.031,0.024l0.055,0.18l-0.012,0.098l0.031,0.012l0.047-0.082l0.055-0.008l0.027,0.039l-0.02,0.09l-0.047,0.031l-0.039,0.035l0.004,0.047l-0.024,0.051l-0.208,0.039l-0.118-0.02l-0.051-0.047l-0.024,0.004l-0.031,0.141l-0.122,0.129l-0.094,0.008l-0.031,0.027l0.031,0.051l-0.012,0.043l-0.133,0.067l-0.18-0.012l-0.051,0.02l-0.016,0.024l0.122,0.027l0.016,0.027l-0.141,0.09l-0.275,0.071l0.016,0.027h0.122l0.039,0.02l-0.035,0.043l-0.106,0.047l0.012,0.024l0.106-0.012l0.055,0.008l0.027,0.055l0.027-0.004l0.027-0.086l0.043-0.039l0.051-0.004l0.067,0.047l0.031-0.004v-0.082l0.043-0.082l0.141-0.063l0.059,0.031l0.02,0.063l0.055,0.071l0.039,0.016l0.02-0.051l-0.024-0.051l-0.008-0.086l0.055-0.094l0.075-0.016l0.075,0.059l0.02,0.118l-0.051,0.063l0.004,0.027l0.114-0.016l0.098,0.063l0.031,0.09l-0.067,0.106l-0.149,0.039l-0.063-0.035h-0.035l-0.016,0.059l-0.043,0.008l-0.043-0.043l-0.078,0.012l-0.031,0.031l0.027,0.051l-0.012,0.031l-0.051-0.024h-0.043l-0.024,0.043l-0.094,0.051l-0.075-0.024l-0.129,0.008l-0.106,0.071l-0.016,0.043l0.063,0.035l0.067,0.063v0.071h-0.059l-0.031-0.055l-0.086-0.031l-0.027,0.016l0.004,0.122l-0.051,0.078H23.76l-0.012,0.02l0.043,0.067l-0.012,0.031l-0.047-0.012l-0.106-0.11l-0.02-0.059l-0.078-0.094l-0.031-0.004l0.004,0.078l0.09,0.188l-0.016,0.059l-0.067,0.004l-0.137-0.051l-0.027-0.059l-0.031-0.027l-0.02,0.039l0.047,0.071l0.137,0.059l0.067,0.071l-0.027,0.071l-0.075,0.012l-0.196-0.114l-0.129-0.106l-0.051-0.106l-0.039-0.02l-0.027,0.035l0.059,0.09l-0.008,0.09l0.031,0.071l0.078,0.063l0.031,0.051l-0.031,0.137l-0.031,0.024l-0.11-0.063l-0.047-0.047l-0.024,0.004l-0.02,0.102l-0.02,0.02l-0.055-0.016l-0.063-0.094l-0.075-0.055l-0.075,0.055l-0.031,0.098l-0.039,0.031l-0.063-0.031v-0.035l-0.031-0.039l-0.067,0.024l-0.059,0.125l-0.071,0.008l-0.024-0.043l0.02-0.071l-0.024-0.016l-0.063,0.012l-0.035-0.027l0.024-0.071l-0.024-0.012l-0.118,0.082l0.016,0.039l-0.016,0.086l-0.063,0.043l-0.169,0.012l-0.059-0.016l-0.047,0.012l-0.11,0.114l-0.196,0.094l-0.212,0.035l-0.035,0.031l-0.039,0.129l-0.055,0.039h-0.18l-0.02-0.027l-0.039-0.016l-0.145,0.043l-0.102,0.063l-0.008,0.055l-0.133,0.149l0.004,0.051l-0.031,0.035l-0.055-0.012l-0.125-0.078l-0.18-0.027l-0.067,0.012l-0.055,0.122l-0.114,0.059l-0.047-0.004l-0.063-0.067l-0.184-0.059l-0.224-0.02l-0.047-0.016l-0.02-0.047l-0.106-0.047l-0.059-0.055l0.008-0.039L19.175,231.661z M32.136,225.566l0.051,0.042v0.031l-0.027,0.024l-0.02,0.125l-0.141,0.122l-0.175,0.115l-0.136,0.057l-0.206,0.02l-0.243,0.043l-0.169,0.071l-0.11,0.004l-0.075-0.035l-0.114-0.008l-0.09,0.012l-0.173-0.016l-0.224-0.086l-0.122-0.141l-0.051-0.137l-0.059-0.012l-0.027-0.039l0.012-0.063l-0.004-0.055l-0.051-0.047l-0.075-0.11l-0.02-0.188l0.008-0.067l0.071-0.075l0.118-0.027l0.071-0.039l0.043-0.063l0.047-0.02h0.067l0.047-0.016l0.031-0.031l0.082-0.024l0.071,0.008l0.086-0.016l0.161-0.125l0.184-0.298l0.118-0.263l0.055-0.051l0.153-0.298v-0.149l0.027-0.075l0.043-0.008l0.063-0.031l0.063-0.078l0.192-0.082l0.137-0.008l0.176,0.09l0.071,0.059l0.094,0.02l0.196-0.039l0.251-0.122l0.153-0.125l0.122-0.067l0.055-0.004l0.051,0.027l0.106,0.004l0.2-0.051l0.263-0.149l0.192-0.173l0.078-0.02l0.063,0.012l0.078-0.004l0.208-0.075h0.059l0.082,0.024l0.29,0.024l0.361-0.024l0.145-0.024l0.255,0.035l0.072,0.041l0.008,0.021l-0.013,0.017h-0.027l-0.008-0.024l-0.078-0.027l-0.188-0.012l-0.039,0.031l0.004,0.071l0.098,0.051l0.286,0.227l0.149,0.319l-0.01,0.089l-0.031,0.084l0.005,0.141l0.099,0.115l0.016,0.125l0.131,0.183l0.12,0.042l0.282-0.005l0.157-0.073l0.173,0.042l0.152,0.173l0.031,0.162l0.047,0.037l0.099,0.016l0.01,0.052l-0.047,0.063l-0.282-0.016l-0.026-0.042l0.089-0.058l-0.005-0.031l-0.167-0.047l-0.099,0.016l-0.047,0.084h-0.042l-0.068-0.058l-0.23-0.078l-0.099-0.125l0.016-0.058l-0.105-0.031l-0.141,0.021l-0.12,0.11v0.058l0.058,0.084l-0.037,0.183l-0.068,0.021l-0.204,0.01l-0.063,0.031l-0.026,0.058L35.141,225L35,225.027l-0.031,0.052l-0.068,0.01l-0.356-0.073l-0.601-0.026l-0.695,0.031l-0.523,0.12l-0.366,0.173l-0.209,0.18L32.136,225.566z M37.683,226.088l-0.01-0.037l0.039-0.029l0.063,0.026l0.112,0.11l0.005,0.05l-0.037,0.003l-0.097-0.068L37.683,226.088z M37.905,226.268l0.026-0.044h0.029l0.029,0.039v0.037l-0.047,0.005L37.905,226.268z M38.911,226.328l0.005-0.018l0.076-0.013l0.112,0.029l-0.005,0.021l-0.084,0.005L38.911,226.328z M38.977,226.407l0.018-0.016h0.018l0.016,0.018l-0.013,0.01l-0.018-0.003L38.977,226.407z M39.048,226.118l0.02-0.031h0.069l0.125,0.038l0.042,0.031l0.008,0.063l0.044,0.024l0.076-0.01l0.042,0.016l-0.005,0.029l-0.063,0.052l-0.029-0.003l-0.039-0.029h-0.073l-0.024,0.016l-0.055-0.013l-0.105-0.107l-0.013-0.037L39.048,226.118z M37.738,225.894l0.008-0.031l0.043-0.008l0.01-0.024l-0.022-0.053l0.037-0.051l0.108,0.002l0.28,0.098l0.02,0.047l0.112,0.041l0.08-0.016l0.141-0.002l0.041,0.025l0.01,0.047l0.063,0.045l0.047,0.004l0.055,0.035l0.006,0.135l0.059,0.049l-0.002,0.018l-0.057,0.004l-0.167-0.051l-0.047-0.029l-0.033-0.002l-0.004,0.018l0.043,0.047l-0.006,0.016l-0.045-0.012l-0.031-0.035l-0.071,0.002l0.004,0.025l0.1,0.065l-0.01,0.014l-0.129-0.049l-0.031-0.043l-0.049-0.022l-0.053,0.012l-0.076-0.024l-0.18-0.086l-0.057-0.006l-0.061-0.035l-0.098-0.106l-0.014-0.033L37.738,225.894z M16.758,233.343l-0.02,0.021l0.04,0.033l0.046-0.003l0.014-0.03l-0.028-0.031L16.758,233.343z M14.198,233.752l0.03-0.021l-0.007-0.016l-0.039,0.009l-0.021,0.02l0.006,0.014L14.198,233.752z M15.131,233.277l-0.005,0.027l0.016,0.008l0.042-0.035l0.005-0.021l-0.018-0.007L15.131,233.277z M13.917,234.408l0.003,0.018l0.063-0.01l0.152-0.068l0.084-0.068l-0.016-0.016l-0.099,0.021l-0.081,0.073L13.917,234.408z M19.347,230.773l-0.025-0.047l-0.031-0.01l-0.051,0.01l-0.261-0.004l-0.247-0.061l-0.059-0.043l0.004-0.041l-0.024-0.035l-0.094-0.033l-0.069,0.004l-0.141,0.045l-0.088-0.01l-0.025-0.027l-0.02-0.002l-0.039,0.039l-0.078,0.006l-0.133,0.031l-0.045,0.029l-0.194,0.035l-0.059,0.031l-0.092,0.098l-0.192,0.131l-0.1,0.004l-0.033,0.024l-0.018,0.051l-0.143,0.161l-0.043,0.029l-0.031,0.057l0.014,0.069l0.071,0.063l0.012,0.051l-0.02,0.073l-0.063,0.086l-0.063,0.033l-0.035,0.035v0.035l0.078,0.033l0.086,0.004l0.053,0.014l0.029,0.035l-0.01,0.049l0.027,0.024l0.055,0.002l0.033,0.029v0.033l-0.022,0.008l-0.014,0.024l0.002,0.051l-0.025,0.039l-0.051,0.006l-0.053-0.025l-0.088-0.008l-0.09,0.033l-0.049-0.008l-0.024-0.045l-0.049-0.035l-0.067,0.006l-0.082,0.071l-0.112,0.029l-0.129-0.016l-0.065-0.063l-0.075-0.027l-0.041,0.016l-0.002,0.039l-0.063,0.086l-0.096,0.061l-0.1,0.004l-0.025,0.016l-0.016,0.049l-0.061,0.061l-0.147,0.071l-0.061,0.067l-0.016,0.055l-0.029,0.033l-0.071,0.035l-0.014,0.061l0.016,0.041l-0.002,0.043l-0.031,0.053l0.012,0.037l0.08,0.033l0.071,0.055l0.004,0.059l-0.078,0.139l-0.069,0.063l-0.124,0.057l-0.043-0.012l-0.043,0.016l-0.041,0.063l-0.002,0.049l0.045,0.039l0.004,0.031l-0.022,0.061l0.002,0.025l0.043,0.02v0.045l-0.02,0.025l-0.055,0.002l-0.069,0.018l-0.055,0.029l-0.049,0.002l-0.053-0.025h-0.08l-0.033,0.031l-0.022,0.061l0.014,0.025l0.039,0.012l0.008,0.045l-0.02,0.073l-0.039,0.045l-0.133,0.033l-0.078,0.006l-0.071-0.012l-0.061,0.008l-0.004,0.024l0.024,0.012l0.039,0.002l0.031-0.01l0.01,0.008l-0.014,0.018l-0.049,0.025l-0.041,0.075l-0.029,0.014l-0.047-0.004l-0.059,0.008l-0.035,0.022l-0.018,0.039l0.014,0.008l0.022-0.012l0.016-0.027l0.051-0.01l0.106-0.002l0.035-0.022l0.016-0.055l0.075-0.073l0.047-0.004l0.08,0.014l0.159-0.047l0.276-0.153l0.022-0.049l0.043-0.022l0.053,0.006l0.059-0.018l0.031-0.033l0.045,0.002l0.047,0.069l0.055,0.008l0.076-0.014l0.01-0.033l-0.027-0.047l-0.069-0.035l-0.025-0.041l0.018-0.035l0.051-0.025l0.063,0.006l0.043,0.027h0.063l0.018-0.016l0.02-0.043l0.029-0.016l0.045,0.018l0.02,0.041h0.022l0.002-0.031l-0.008-0.037l0.033-0.029l0.078-0.016l0.114-0.098l0.114-0.141l0.1-0.035l0.129-0.008l0.041-0.024l0.035-0.037l0.035-0.01l0.016,0.012l-0.004,0.029l0.008,0.008l0.025-0.008l0.025-0.043l0.061-0.024l0.041-0.043l0.049-0.104l0.114-0.145l0.065-0.061l0.076-0.018l0.022-0.029l0.002-0.076l-0.016-0.069l0.006-0.024l0.022-0.002l0.059,0.045h0.022l0.018-0.071l-0.014-0.035l0.025-0.043l0.059-0.029l0.002-0.012l-0.031-0.022l0.008-0.027l0.096-0.071l0.033-0.047l0.12-0.082l0.257-0.067l0.016-0.025l0.004-0.033l0.035-0.02l0.155-0.024l0.049,0.012l0.051-0.01l0.102-0.045l0.075-0.012l0.18-0.075l0.049-0.051l0.198-0.106l0.104-0.024l0.053-0.027l0.029-0.035l0.049-0.018l0.059-0.018l0.086-0.071l0.02-0.082l-0.012-0.057l-0.078-0.092l0.01-0.055l0.243-0.198l0.031-0.075L19.347,230.773z M18.412,228.616l0.041,0.024l-0.002,0.061l-0.022,0.006l-0.057-0.043l-0.008-0.029l0.016-0.018H18.412z"/>
</svg>
