<svg xmlns="http://www.w3.org/2000/svg" viewBox="1280.921 232.842 66.199 9.089">
  <path d="M1318.155,238.663l0.078,-0.052h0.109l0.047,0.073l-0.073,0.073l-0.146,-0.021l-0.016,-0.073Z M1281.074,233.524l-0.145,0.051l-0.008,0.051l0.173,0.051h0.098l0.176,-0.067h0.192l0.035,0.035l-0.067,0.192l0.016,0.027l0.482,-0.047l0.094,-0.039l0.031,0.008l-0.024,0.055l-0.059,0.059l-0.031,0.071l0.012,0.098l-0.016,0.059l-0.086,0.09l0.016,0.031l0.118,0.012l0.075,0.027l0.047,-0.012l0.02,-0.063l0.039,-0.012l0.039,0.031h0.047l0.055,-0.027l0.082,0.02l0.075,0.082l0.004,0.125l0.035,0.024l0.149,-0.051l0.2,-0.271l0.157,-0.078l0.078,0.02l0.086,0.137l0.086,0.043l0.137,-0.024l0.153,-0.216l0.078,-0.055l0.102,0.012l0.153,0.071l0.114,0.02l0.173,-0.027l0.169,0.02l0.039,-0.039l-0.039,-0.067l-0.216,-0.051l-0.239,-0.008l-0.063,-0.031l0.004,-0.063l0.106,-0.067l0.035,-0.118l-0.176,-0.098l-0.133,-0.008l-0.169,0.098l-0.086,-0.02l-0.016,-0.051l0.067,-0.106l-0.047,-0.078l-0.137,-0.078l-0.408,-0.012l-0.145,0.055l-0.094,0.02l-0.118,-0.012l-0.024,-0.035l-0.11,-0.051l-0.267,-0.024l-0.063,-0.027l-0.149,-0.008l-0.169,0.043l-0.141,-0.008l-0.176,0.035l-0.192,0.094l-0.102,0.082l-0.133,0.098h0Z M1284.254,236.072l0.042,-0.073l0.125,-0.031l0.073,-0.068h0.089l0.146,0.042l0.209,-0.078l0.031,-0.078l0.256,-0.157l0.413,-0.052l0.146,0.026l0.021,0.042l-0.157,0.094l-0.099,0.115l-0.042,0.11l0.084,0.214l0.01,0.173l-0.047,0.016l-0.089,-0.026l-0.099,0.005l-0.094,-0.031l-0.136,-0.094l-0.11,-0.031l-0.246,0.047l-0.261,-0.021l-0.23,-0.089l-0.037,-0.052h0Z M1286.144,234.328l0.114,0.027l0.118,0.078l-0.024,0.027l-0.09,-0.004l-0.078,-0.027l-0.055,-0.078l0.016,-0.024h0Z M1286.462,234.442l0.102,0.027l0.118,0.055l0.004,0.051l-0.035,0.024l-0.169,-0.075l-0.035,-0.055l0.016,-0.027h0Z M1286.866,234.556l0.039,-0.027l0.027,-0.02h0.078l0.122,0.051l0.059,0.063l-0.012,0.043l-0.18,-0.024l-0.129,-0.055l-0.004,-0.031h0Z M1293.583,236.341l0.141,-0.016l0.149,0.063l0.024,0.063l-0.047,0.071l-0.149,0.024l-0.086,-0.024l-0.063,-0.133l0.031,-0.047h0Z M1302.484,239.187l-0.272,-0.167l0.005,-0.031l0.183,0.031l0.256,0.089l0.136,0.146l-0.01,0.026l-0.115,0.021l-0.089,-0.021l-0.094,-0.094h0Z M1303.146,238.259l0.184,0.004l0.259,0.129l0.012,0.043l-0.047,0.078l-0.192,0.169l-0.157,-0.035l-0.129,-0.192l0.008,-0.114l0.063,-0.082h0Z M1301.867,238.228l-0.098,-0.039l-0.012,-0.122l0.039,-0.075l0.157,-0.039l0.106,0.051l0.039,0.09l0.008,0.094l-0.098,0.059l-0.141,-0.02h0Z M1302.467,238.357l-0.059,-0.035l0.012,-0.031l0.043,-0.02l0.043,0.016l0.027,0.035l-0.004,0.031l-0.063,0.004h0Z M1302.628,238.389l0.071,-0.027l0.051,0.012l-0.008,0.027l-0.09,0.059h-0.031l-0.004,-0.039l0.012,-0.031h0Z M1300.071,238.326l0.051,0.016l0.039,0.035l0.059,0.008l0.122,0.039v0.02l-0.106,0.02l-0.145,-0.024l-0.063,-0.043l0.004,-0.035l0.039,-0.035h0Z M1298.495,238.706l0.039,-0.039l0.106,-0.059l0.204,-0.039l0.098,-0.078l0.02,-0.063l0.075,-0.082l0.118,-0.059l0.302,-0.02l0.078,-0.035l0.063,-0.102l0.039,-0.176l0.125,-0.141l0.012,-0.09l0.063,-0.133l0.114,-0.031l0.114,0.024l0.153,0.137l0.004,0.102l-0.122,0.184l-0.114,0.067l-0.11,0.118l0.004,0.059l-0.027,0.043l-0.094,-0.012l-0.024,0.043l0.067,0.086l0.125,0.027l0.039,0.035l-0.004,0.059l-0.098,0.051l-0.125,0.004l-0.114,-0.055l-0.082,0.004l-0.027,0.078l-0.024,0.016l-0.051,-0.008l-0.027,-0.075l-0.086,-0.02l-0.141,0.039l-0.129,0.082l-0.09,0.165l0.004,0.145l-0.047,0.047l-0.067,-0.012l-0.027,-0.055l-0.212,-0.145l-0.086,-0.008l-0.027,-0.024l-0.008,-0.055h0Z M1303.746,239.898l0.063,-0.027l0.02,-0.035l0.075,-0.024l0.086,0.024l0.059,0.051l0.141,0.043l0.098,-0.02l0.451,0.09l0.11,0.067l0.047,0.09l0.09,0.027l0.086,-0.012l0.075,0.047v0.063l0.106,0.133l0.059,0.039l0.067,0.027l0.114,0.114l0.247,0.133h0.082l0.051,0.016l0.004,0.063l0.094,0.075l0.008,0.039l0.055,0.043l0.082,0.016l0.051,-0.016l0.102,-0.012l0.016,0.027l-0.082,0.055l-0.008,0.024l0.035,0.008l0.122,-0.035l0.227,-0.039l0.067,0.027l0.008,0.071l0.031,0.027l0.078,-0.004l0.11,0.035l0.008,0.02l-0.027,0.027l-0.196,0.051l-0.098,-0.012l-0.008,-0.024l0.035,-0.051l-0.016,-0.016l-0.059,0.02l-0.102,0.055l-0.231,0.008l-0.141,0.051l-0.09,-0.024l-0.027,-0.063l0.043,-0.063l-0.008,-0.02l-0.145,-0.039l-0.463,-0.29l-0.059,-0.063l-0.267,-0.239l-0.016,-0.051l-0.078,-0.051l-0.098,-0.02l-0.216,-0.118l-0.118,-0.039l-0.102,0.027l-0.098,-0.008l-0.22,-0.071l-0.216,-0.122l-0.114,-0.086v-0.043h0Z M1306.965,238.267l0.094,0.016l0.094,-0.024l0.11,-0.102l0.169,-0.094h0.106l0.184,0.106l0.055,0.071l0.141,0.063l0.086,0.078l-0.016,0.082l-0.106,0.016l-0.008,0.039l0.043,0.027l0.012,0.039l-0.043,0.039l-0.22,0.071l-0.063,0.09l-0.106,0.027l-0.196,-0.067l-0.11,-0.012l-0.22,-0.145l-0.051,-0.082l0.039,-0.047l0.008,-0.043l-0.035,-0.059l0.004,-0.059l0.027,-0.031h0Z M1313.109,240.204l0.157,0.084l0.178,0.011l0.068,0.074l-0.042,0.037l-0.178,0.016l-0.11,-0.047l-0.094,-0.142l0.021,-0.032h0Z M1315.122,240.709l0.026,-0.032l0.047,-0.005l0.052,0.016l-0.005,0.026l-0.078,0.011l-0.042,-0.016h0Z M1312.341,240.241l-0.031,-0.047l0.026,-0.032l0.078,0.011l0.037,0.079l-0.047,0.011l-0.063,-0.021h0Z M1313.789,240.167l-0.058,-0.032v-0.063l0.105,-0.021l0.12,0.026l0.01,0.053l-0.078,0.042l-0.099,-0.005h0Z M1314.035,240.167l-0.021,-0.037l0.016,-0.037l0.063,-0.011l0.052,0.026v0.063l-0.052,0.016l-0.058,-0.021h0Z M1313.209,239.388l-0.183,-0.126l0.01,-0.111l0.068,-0.126l0.136,-0.032l0.188,0.058l0.11,0.147l-0.037,0.126l-0.12,0.063h-0.173Z M1312.032,241.763l-0.058,-0.063l0.052,-0.116l0.105,-0.053l0.089,0.026l0.073,0.132l-0.026,0.126l-0.12,0.116h-0.094l-0.042,-0.074l0.021,-0.095h0Z M1312.586,241.462l0.037,-0.174l-0.026,-0.09l0.031,-0.116l0.063,-0.016l0.115,0.079l0.068,0.142l-0.026,0.063l-0.11,0.011l-0.105,0.111l-0.047,-0.011h0Z M1315.42,238.793l0.089,-0.137l0.293,-0.074l0.413,0.032l0.157,-0.016l0.089,0.058l0.115,0.174v0.063l0.162,0.084l0.146,0.047l0.099,-0.053h0.11l0.078,0.047l0.136,-0.011l0.115,-0.068l0.209,-0.005l0.047,0.037l-0.11,0.105l-0.272,0.011l-0.303,0.116l-0.031,0.047l0.073,0.047v0.042l-0.12,0.074l-0.037,0.09l0.031,0.09l-0.021,0.063l-0.12,0.079l-0.136,-0.047l-0.068,0.053l-0.031,0.163l0.084,0.19l-0.026,0.037l-0.084,-0.021l-0.073,-0.121l-0.146,-0.111l-0.235,-0.084l-0.084,0.026l-0.115,-0.016l-0.052,-0.068l0.026,-0.09l0.052,-0.047l0.277,0.011l0.256,-0.063l0.031,-0.179l-0.084,-0.095l-0.183,-0.042l-0.094,0.021l-0.068,-0.016l-0.005,-0.026l-0.084,-0.047l-0.047,-0.084l-0.429,-0.19l-0.031,-0.095h0Z M1317.444,239.73l-0.089,-0.068l0.005,-0.068l0.131,-0.063l0.047,-0.063l0.073,-0.011l0.136,0.047h0.267l0.12,-0.047l0.084,-0.063l0.424,-0.111l0.34,-0.063l0.152,-0.095l0.063,-0.184l0.026,-0.374l0.078,-0.1l0.214,0.016l0.251,0.163l0.005,0.111l-0.063,0.126l-0.199,0.121l-0.037,0.105l0.063,0.121l-0.031,0.263l-0.073,0.1l-0.298,0.032l-0.131,0.09l-0.105,0.005l-0.256,-0.169l-0.173,-0.032l-0.199,0.042l-0.152,0.09h-0.397l-0.105,0.068l-0.037,0.111l-0.078,0.032l-0.063,-0.047l0.005,-0.084h0Z M1321.339,239.821l-0.031,-0.009v-0.044s0.024,-0.023s0.024,-0.023l0.025,0.009l0.011,0.033l-0.029,0.035h0Z M1329.331,238.123l-0.045,0.028l-0.037,-0.02l0.003,-0.033l0.042,-0.019l0.048,0.017l-0.012,0.027h0Z M1323.033,238.443l0.008,-0.031l0.047,-0.003l0.042,0.031l-0.003,0.024l-0.044,0.003l-0.049,-0.024h0Z M1321.761,239.485l-0.024,-0.039l0.016,-0.018l0.022,0.013l0.018,0.033l-0.012,0.015l-0.021,-0.003h0Z M1320.602,239.174l-0.029,-0.01l0.002,-0.016l0.028,-0.007l0.038,0.012l-0.002,0.017l-0.036,0.003h0Z M1324.045,238.02l-0.029,-0.005l-0.002,-0.014l0.045,-0.005l0.01,0.012l-0.024,0.012h0Z M1323.277,238.534v-0.015s0.032,-0.024s0.032,-0.024l0.02,0.007v0.029s-0.026,0.013s-0.026,0.013l-0.026,-0.01h0Z M1320.746,239.117l-0.032,0.007l-0.019,-0.009l0.004,-0.017l0.021,-0.009l0.024,0.008l0.002,0.019h0Z M1320.691,239.022l-0.029,-0.014l0.007,-0.014h0.029l0.016,0.01l-0.003,0.014l-0.019,0.003h0Z M1321.257,239.847l-0.004,-0.014l0.007,-0.009l0.02,0.004l0.008,0.017l-0.007,0.009l-0.024,-0.007h0Z M1320.717,239.188l-0.031,-0.016l0.012,-0.014l0.054,-0.007l0.023,0.014l-0.017,0.017l-0.04,0.005h0Z M1326.876,237.149l-0.045,-0.021l0.01,-0.028l0.042,-0.003l0.035,0.017l0.003,0.028l-0.045,0.007h0Z M1325.68,238.322l-0.059,-0.012l-0.007,-0.031l0.055,-0.033l0.066,0.009l0.022,0.026l-0.02,0.024l-0.057,0.017h0Z M1328.614,237.382l0.008,-0.024l0.041,-0.021l0.03,0.016l0.003,0.025l-0.048,0.016l-0.034,-0.012h0Z M1323.809,238.27l0.08,-0.045l0.398,0.002l0.073,0.02l0.002,0.028l-0.137,0.032l-0.069,-0.012l-0.043,0.014l0.002,0.049l-0.027,0.022l-0.171,-0.026l-0.11,-0.053l0.002,-0.03h0Z M1323.185,238.404l0.053,-0.014l0.057,0.002l0.035,0.02l-0.018,0.028l-0.11,0.004l-0.027,-0.024l0.01,-0.016h0Z M1323.473,238.426l0.029,-0.014l0.037,0.004l0.016,0.061l-0.022,0.059l-0.067,-0.012l-0.014,-0.028l0.02,-0.071h0Z M1323.611,238.387l0.078,0.014l0.014,0.028l-0.047,0.036l-0.039,-0.008l-0.025,-0.053l0.02,-0.016h0Z M1324.201,238.497l-0.061,-0.004l0.002,-0.036l0.065,-0.041l0.159,-0.03l0.043,0.022l0.049,0.117l0.045,0.022l0.039,-0.008l0.02,0.012l-0.002,0.041l-0.106,0.016l-0.139,-0.051l-0.051,-0.043l-0.063,-0.016h0Z M1324.614,238.387l-0.002,-0.047l0.045,-0.018l0.086,0.01l0.069,0.028l0.035,-0.004l0.018,-0.026l0.037,0.004l0.033,0.03l-0.01,0.03l-0.198,0.038l-0.018,0.026l0.008,0.038l-0.033,0.024l-0.047,-0.008l-0.043,-0.047l-0.002,-0.055l0.022,-0.02h0Z M1325.428,237.293h0.051l0.045,0.022l0.01,0.043l-0.014,0.034l-0.055,0.008l-0.045,-0.028l-0.014,-0.051l0.022,-0.028h0Z M1336.095,236.803l0.136,-0.12l0.099,-0.167l0.314,-0.162l0.209,-0.026l0.193,0.084l0.199,0.047l0.078,0.089l-0.026,0.105l-0.314,0.178l-0.512,0.157l-0.235,-0.005l-0.136,-0.078l-0.005,-0.099h0Z M1321.709,239.496l0.033,0.008l0.01,0.03l-0.022,0.03l0.004,0.047l-0.018,0.018l-0.031,-0.01l-0.014,-0.036l0.01,-0.055l0.027,-0.032h0Z M1319.967,239.975l0.037,-0.026l0.021,-0.055l-0.013,-0.047l0.05,-0.105l0.149,-0.082l0.092,-0.013l0.097,-0.105l0.013,-0.063l-0.055,-0.045l0.01,-0.021l0.084,0.024l0.06,0.034l0.024,-0.016l-0.026,-0.047l-0.144,-0.071l-0.112,-0.071l-0.005,-0.092l0.026,-0.05l0.052,-0.003l0.063,-0.026l0.021,-0.037l0.047,0.008l0.044,0.079l0.141,0.103l0.042,0.011l0.05,-0.024l0.178,0.011l0.076,-0.018l0.013,-0.024l-0.178,-0.063l-0.078,-0.1l0.005,-0.079l0.029,-0.061l0.123,-0.008l0.047,-0.034l-0.005,-0.047l-0.092,-0.045l-0.146,-0.071l-0.055,-0.113l0.026,-0.121l0.092,-0.09l0.178,-0.016l0.212,0.079l0.034,0.058l0.065,0.076l0.029,0.005l0.044,-0.053l0.013,-0.071l-0.026,-0.032l-0.013,-0.071l0.037,-0.105l0.097,-0.037l0.123,0.016l0.029,0.076l-0.037,0.108l-0.003,0.082l0.055,0.05l0.003,0.045l-0.042,0.05l-0.063,-0.008l-0.097,0.026l-0.086,0.079l-0.018,0.105l-0.073,0.053l0.01,0.032l0.089,-0.018l0.081,0.011l0.065,0.047l0.159,0.034l0.084,0.003l0.058,-0.068l0.12,-0.016l0.115,0.039l0.037,0.05l-0.01,0.137l0.024,0.087l-0.029,0.039l0.024,0.097l-0.026,0.082l-0.125,0.066l-0.042,-0.011l0.013,-0.061l-0.065,-0.076l-0.058,-0.005l-0.065,0.034l-0.05,0.121l-0.118,0.169l-0.052,0.008l-0.058,-0.079l-0.05,0.008l-0.029,0.068l-0.165,0.042l-0.105,-0.018l-0.063,0.016l-0.052,0.039l-0.026,0.079l0.044,0.076l-0.008,0.055l-0.037,0.018l-0.081,-0.034l-0.078,0.008l-0.086,0.092h-0.039l-0.058,-0.066l-0.003,-0.053l0.034,-0.037l-0.003,-0.066l-0.047,-0.055l-0.01,-0.061l0.031,-0.124l-0.021,-0.055l-0.024,0.008l-0.071,0.124l-0.034,0.103l-0.034,0.047l-0.099,0.097l-0.123,0.211l-0.047,0.024l-0.125,-0.042l-0.039,-0.079l0.005,-0.058h0Z M1322.976,238.174l-0.105,-0.253l0.044,-0.108l0.149,-0.147l0.112,-0.018l0.303,0.055l0.144,0.142l0.013,0.066l-0.018,0.05l0.042,0.047l0.063,0.011l0.026,-0.021l0.021,0.008l-0.01,0.05l-0.081,0.021l-0.052,-0.021l-0.021,0.016v0.037l-0.031,0.011l-0.052,-0.005l-0.034,0.032l-0.016,0.053l0.029,0.018l0.029,-0.003l0.047,0.053l-0.026,0.066l-0.141,0.024l-0.063,-0.026l-0.024,-0.068l-0.097,-0.039l-0.196,-0.011l-0.055,-0.037h0Z M1323.256,238.732l0.118,-0.061l0.251,-0.05l0.081,0.032l-0.008,0.034l-0.073,0.024l-0.003,0.034l0.115,0.005l0.05,-0.032l0.05,0.005l0.021,0.026l-0.042,0.163l-0.031,0.024l-0.063,-0.037l-0.128,-0.037l-0.097,0.005l-0.086,-0.016l-0.018,-0.037l-0.141,-0.055l0.005,-0.029h0Z M1322.809,238.845l0.018,-0.047l0.097,-0.013l0.141,0.032l0.097,0.121l0.039,0.005l0.044,-0.034l0.107,-0.013l0.188,0.055l0.076,0.084l0.003,0.079l0.031,0.018l-0.018,0.013l-0.065,-0.013l-0.044,-0.053l-0.186,-0.034l-0.094,0.008l-0.005,0.021l0.065,0.071l0.01,0.045l-0.042,0.005l-0.118,-0.039l-0.031,-0.047l-0.005,-0.063l-0.016,0.003l-0.031,0.132l-0.003,0.068l0.042,0.018v0.021l-0.029,0.016l-0.05,-0.021l-0.052,-0.076l0.008,-0.034l-0.031,-0.045l-0.115,-0.026l-0.086,-0.063l0.003,-0.045l0.058,-0.021l0.05,-0.003l0.016,-0.026l-0.068,-0.05l-0.003,-0.047h0Z M1322.113,239.053l-0.013,-0.063l-0.024,-0.076l0.018,-0.039l0.105,-0.037l0.254,-0.008l0.152,0.016l0.034,0.037l-0.037,0.095l-0.058,0.032l-0.133,-0.011l-0.021,0.024l0.029,0.016l0.188,0.024l0.063,0.039l-0.008,0.09l0.013,0.039v0.045l-0.084,0.039l-0.013,0.05l0.003,0.061l-0.042,0.018l-0.068,0.008l-0.089,0.053l-0.06,-0.008l-0.042,-0.039l-0.055,-0.003l-0.042,0.005l-0.05,-0.021l-0.005,-0.082l0.024,-0.045l-0.013,-0.095l-0.039,-0.039l-0.01,-0.076l0.024,-0.047h0Z M1326.114,238.08l0.095,-0.012l0.086,-0.026l0.058,-0.063h0.034l0.029,0.032l0.065,0.024l0.092,-0.021l0.052,-0.068l0.115,-0.026l0.141,-0.008l0.039,0.026l0.008,0.037l-0.044,0.039l0.003,0.018l0.081,-0.013l0.076,-0.053l0.06,-0.005l0.039,0.013h0.031l-0.008,-0.082l0.044,-0.063l0.05,-0.013l0.063,0.018l0.024,0.037l0.055,0.011l0.039,-0.021v-0.034l0.068,-0.024h0.094l0.013,-0.024l-0.026,-0.042l0.013,-0.066l0.068,-0.029l0.041,0.01l0.014,0.038l0.024,0.024l0.131,0.003l0.052,0.029l0.097,0.005l0.118,0.018l0.086,-0.013l0.052,-0.037l-0.016,-0.061l0.016,-0.024h0.125l0.031,0.018l-0.029,0.039l0.026,0.013l0.042,-0.021l0.262,-0.011l0.107,0.026l0.021,-0.005l-0.01,-0.026l-0.058,-0.034l-0.021,-0.066l0.029,-0.063l0.076,-0.008l0.037,0.026l0.068,0.024l0.157,-0.016l0.016,-0.018l-0.063,-0.037l-0.084,-0.005l-0.052,-0.032l-0.024,-0.058l0.016,-0.059l0.059,-0.004l0.11,0.036l0.063,-0.012l0.055,-0.039l0.11,0.012l0.051,0.059l0.051,0.004l0.043,-0.024l-0.012,-0.059l-0.149,-0.087l-0.012,-0.039l0.047,-0.039l0.267,0.012l0.102,0.051l0.137,0.004l0.129,-0.083l0.024,-0.043l0.129,-0.079l0.02,-0.071l-0.059,-0.047l-0.11,0.008l-0.188,-0.051l-0.114,0.02l-0.212,-0.039l-0.161,-0.063l-0.016,-0.067l0.055,-0.043l0.11,0.012l0.216,0.008l0.082,-0.024l0.051,-0.095l-0.02,-0.047l-0.004,-0.071l0.063,-0.063h0.114l0.027,-0.024l-0.004,-0.051l0.039,-0.024l0.063,0.004l0.122,-0.012l0.059,-0.059l0.094,-0.024l0.145,0.036l0.047,0.051l0.075,0.024l0.059,0.004l0.122,0.059l0.027,0.051l0.063,0.043l0.106,0.028l0.008,0.036l-0.02,0.02v0.043l0.078,0.107l-0.004,0.075l-0.035,0.099l-0.106,0.071l-0.035,0.067l-0.039,0.118l-0.043,0.043l-0.149,-0.016l-0.188,0.004l-0.098,-0.032h-0.055l-0.031,0.071l0.043,0.111l0.176,0.083l0.188,0.158l0.027,0.095l-0.031,0.083l-0.067,0.008l-0.067,-0.063l-0.106,-0.008l-0.043,0.036l-0.035,0.012l-0.071,-0.036l-0.059,0.012l-0.016,0.063l-0.075,0.028l-0.176,-0.02l-0.09,-0.071l-0.137,0.004l-0.102,0.059l-0.027,0.118l-0.129,0.182h-0.067l-0.075,-0.095l-0.094,-0.063l-0.102,-0.004l-0.02,0.036l0.047,0.091l-0.016,0.016l-0.11,-0.071l-0.027,0.008l-0.008,0.071l-0.043,0.016l-0.114,-0.028l-0.082,0.012l-0.031,0.039l-0.102,0.028l-0.125,-0.051l-0.035,0.004l-0.008,0.091l-0.125,0.055l-0.102,-0.008l-0.043,-0.039l-0.2,-0.071l-0.255,-0.039l-0.235,0.036l-0.094,0.055l-0.059,0.012l-0.039,-0.02l-0.051,-0.004l-0.024,0.047l-0.055,0.016l-0.129,-0.008l-0.09,0.039l-0.082,0.004l-0.204,-0.043l-0.404,-0.008l-0.114,0.028l-0.075,-0.004l-0.035,-0.055l0.024,-0.032h0Z M1330.883,237.551l0.116,-0.004l0.133,0.037l0.175,-0.013l0.115,-0.037l0.06,0.008l0.005,0.018l-0.031,0.013l-0.034,0.055l0.005,0.026l0.115,-0.003l0.065,-0.047l0.044,-0.013l0.026,0.018l-0.024,0.029l0.003,0.034l0.039,0.011l0.052,-0.005l0.065,-0.074l0.06,-0.034l0.084,-0.008l0.102,0.016l0.136,-0.011l0.034,-0.029l0.199,-0.063l0.099,0.008l0.052,0.032l0.034,0.008l0.05,-0.008l0.042,-0.039l0.071,-0.005l0.034,0.016l0.013,0.05l-0.071,0.05l-0.008,0.039l0.102,0.055h0.052l0.05,-0.039l0.044,-0.005l0.042,0.039l0.044,0.003l0.021,-0.039l0.05,0.003l0.065,0.037l0.052,0.005l0.052,-0.029l0.031,0.008l0.063,0.063l0.05,0.013l0.089,-0.021l0.06,-0.042h0.17l0.078,0.045h0.058l0.107,-0.047l0.092,0.005l0.06,0.032h0.039l0.024,-0.037l0.055,0.003l0.081,0.045l0.356,-0.005l0.146,0.032l0.013,0.021l-0.047,0.032l-0.154,0.005l-0.055,0.034l-0.146,0.016l-0.118,-0.018l-0.086,0.011l-0.162,0.076l-0.076,-0.003l-0.128,-0.042l-0.037,-0.003l-0.037,0.018l-0.102,0.008l-0.094,0.029h-0.141l-0.052,0.013l-0.099,0.079l-0.086,0.008l-0.063,-0.024l-0.217,-0.029l-0.063,0.018l-0.003,0.037l0.034,0.013l0.01,0.018l-0.034,0.018l-0.081,-0.003l-0.081,-0.032l-0.076,0.003l-0.063,-0.026l-0.024,-0.029l0.013,-0.045l-0.021,-0.016l-0.246,0.003l-0.112,0.032l-0.058,-0.011l-0.037,-0.066l-0.026,-0.005l-0.139,0.071l-0.238,-0.003l-0.078,0.034l-0.065,0.003l-0.12,-0.037l-0.086,-0.003l-0.11,-0.032l-0.118,-0.169l-0.094,-0.039l-0.084,-0.005l-0.095,-0.053l-0.051,-0.079l0.035,-0.028h0Z M1341,235.862v-0.089l0.081,-0.119l0.134,-0.068l0.065,0.011l0.089,0.076l0.047,0.108l-0.018,0.119l-0.099,0.081h-0.105l-0.063,-0.038h-0.039l-0.024,0.024l-0.042,-0.022l-0.026,-0.084h0Z M1341.537,235.408l0.024,-0.043l0.047,-0.046l0.079,-0.014l0.073,0.038l-0.024,0.068l-0.045,0.043l-0.126,-0.014l-0.029,-0.032h0Z M1342.723,235.422l0.013,-0.184l0.029,-0.141l0.058,-0.057l0.089,-0.011l0.126,-0.043l0.05,-0.059l0.016,-0.076l0.039,-0.024l0.154,-0.019l0.034,-0.043l0.06,-0.019l0.071,0.022l0.102,0.003l0.113,0.038l0.089,0.092l-0.008,0.103l-0.123,0.197l-0.084,0.051l-0.259,-0.008l-0.118,0.043l-0.238,0.224l-0.045,0.011l-0.01,-0.032l-0.065,-0.035l-0.068,-0.003l-0.024,-0.03h0Z M1346.643,232.913l0.05,-0.066l0.05,-0.005l0.073,0.061l0.01,0.061l-0.029,0.05l-0.073,-0.003l-0.081,-0.048v-0.05h0Z M1345.404,233.746l0.081,-0.04l0.018,-0.053l0.026,-0.027l0.084,-0.013l0.202,0.061l0.052,0.061l-0.01,0.119l-0.12,0.074l-0.081,0.013l-0.131,-0.045l-0.123,-0.117l0.003,-0.034h0Z M1345.187,234.619l0.01,-0.027l0.008,-0.058l-0.018,-0.061l0.031,-0.13l0.031,-0.029l0.118,-0.008l0.202,0.045l0.071,0.042l0.016,0.074l-0.076,0.146l-0.092,0.034l-0.228,-0.016l-0.055,0.011l-0.018,-0.024h0Z M1346.834,233.496l-0.005,-0.032l-0.068,-0.05l-0.021,-0.074l0.058,-0.165l0.047,-0.069l0.126,-0.037l0.113,0.027l0.031,0.082l0.005,0.061l-0.047,0.034l-0.047,0.072l-0.005,0.056l-0.05,0.064l-0.105,0.045l-0.031,-0.013h0Z M1345.857,234.144l-0.047,-0.037v-0.053l0.081,-0.082l0.178,-0.034l0.162,0.042l0.097,-0.003l0.037,-0.027l-0.003,-0.034l-0.018,-0.04l0.018,-0.034l0.115,-0.008l0.107,0.013l0.06,-0.027l0.029,-0.04l0.149,-0.008l0.139,0.045l0.013,0.042l0.031,0.019l0.045,0.003l0.031,0.04l-0.01,0.069l-0.039,0.042l-0.005,0.042l0.029,0.04l-0.01,0.029l-0.097,0.074l-0.008,0.034l0.026,0.053l-0.005,0.029l-0.068,0.027l-0.071,-0.013l-0.026,-0.064l-0.092,-0.072l-0.068,-0.011l-0.065,0.011l-0.152,-0.061l-0.016,-0.029l-0.06,-0.005l-0.039,0.029l-0.042,0.066l-0.134,0.074l-0.102,0.011l-0.086,-0.027l-0.073,-0.082l-0.01,-0.045h0Z "/>
</svg>
