<svg xmlns="http://www.w3.org/2000/svg" viewBox="1344.338 211.198 1.205 1.159">
  <path d="M1344.408195,212.344548v-0.011765l0.013725,-0.017647l0.023529,-0.001961l0.02549,0.013725l0.001961,0.013725l-0.015686,0.015686l-0.031372,-0.001961l-0.017647,-0.009804Z M1344.866364,211.944549l-0.022222,0.019608l-0.027451,-0.001307l-0.023529,0.010457l-0.003922,0.00915l0.024837,0.003922l0.056209,-0.020915l0.044444,-0.060131l0.027451,-0.018301l0.010457,-0.014379l-0.013072,-0.032026l0.007843,-0.023529l0.072549,-0.045098l0.072549,-0.005882l0.031372,-0.011765l0.02549,-0.033333l0.054902,-0.019608l0.070588,-0.02549l0.037255,-0.054902l-0.003922,-0.04902l0.015686,-0.070588l0.068627,-0.127451l0.058823,-0.066667l0.035294,-0.009804l0.043137,-0.043137l0.013725,-0.041176l-0.011765,-0.015686l-0.064706,0.005882l-0.023529,0.029412l-0.015686,0.043137l-0.041176,0.031372l-0.207843,0.07647l-0.188235,0.037255l-0.123529,-0.009804l-0.04902,-0.031372l-0.060784,-0.009804l-0.056863,0.013725l-0.096078,0.066667l-0.096078,0.003922l-0.02549,-0.017647l-0.02549,-0.001961l-0.031372,0.015686l-0.033717,0.043634l-0.021185,0.016497l-0.011765,0.026144l-0.019608,0.096078l0.007843,0.024183l-0.003922,0.026144l0.007843,0.011765l0.024837,0.002614l0.05098,-0.002614l0.035294,0.011765l0.015686,0.013072l0.03268,0.005229l0.04183,-0.001307l0.031372,0.010457l0.007843,0.018301l-0.001307,0.022222l0.014379,0.010457l0.028758,-0.002614l0.023529,-0.014379l0.002614,-0.015686l0.024837,-0.013072l0.078431,-0.006536l0.045752,0.016993l0.026144,0.035294v0.020915l-0.03268,0.015686l-0.002614,0.013072l0.057516,0.024837l0.010457,-0.007843l0.001307,-0.018301l0.010457,-0.019608h0.024837l0.003922,0.018301l-0.011765,0.020915l-0.014379,0.003922l-0.006536,0.015686l0.00915,0.018301l-0.007843,0.013072l-0.016993,-0.006536l-0.00915,0.00915l0.002614,0.015686l0.014379,0.005229l-0.001307,0.016993Z "/>
</svg>
