<svg xmlns="http://www.w3.org/2000/svg" viewBox="1346.666 214.604 1.180 0.463">
  <path d="M1346.73397,214.60445l0.052287,0.005229l0.036601,0.015686l0.033987,0.005229l0.028758,-0.007843l0.094117,0.010457l0.141176,0.028758l0.193464,0.015686l0.070588,-0.002614l0.028758,-0.020915h0.04183l0.026144,0.018301l0.033987,0.013072l0.067974,-0.010457l0.036601,-0.020915l0.094117,0.005229l0.036601,0.020915l0.073202,0.023529l0.020915,0.013072l-0.010457,0.020915l-0.047059,0.023529l-0.015686,0.052287l-0.065359,0.049673l-0.060131,0.007843l-0.057516,0.023529l-0.078431,0.12549l-0.073202,0.047059l-0.196078,-0.031372l-0.086274,-0.028758l-0.052287,-0.062745l-0.002614,-0.052287l-0.018301,-0.057516l-0.052287,-0.036601l-0.154248,-0.031372h-0.062745l-0.039216,-0.015686l-0.033987,-0.057516l-0.075817,-0.060131l0.007843,-0.018301l0.062745,-0.010457Z "/>
</svg>
