<svg xmlns="http://www.w3.org/2000/svg" viewBox="1334.353 192.381 3.328 2.784">
  <path d="M1334.399,192.522l0.059,-0.102l0.061,-0.039l0.029,0.008l0.016,0.076l-0.014,0.025l-0.006,0.027l0.02,0.031l0.002,0.033l-0.008,0.053l0.008,0.063l0.041,0.059l-0.002,0.025l-0.02,0.006l-0.065,-0.02l-0.039,-0.029l-0.053,-0.073l-0.059,-0.037l-0.016,-0.025l0.002,-0.037l0.043,-0.045Z M1335.629,195.148l-0.003,0.012l0.021,0.005l0.022,-0.005l0.009,-0.013l0.007,-0.022l0.051,-0.052l-0.009,-0.005l-0.026,0.007l-0.047,0.047l-0.01,0.02l-0.014,0.008Z M1334.529,193.462l-0.01,0.018l0.021,0.029l0.081,0.018l0.063,-0.003l0.071,0.024l0.044,0.037l0.052,0.008l0.084,-0.005l0.068,0.021l0.094,0.097l0.013,0.034l0.193,0.125l0.042,0.042l0.282,0.186l0.06,0.058l0.076,0.094l0.034,0.016l0.039,0.003l0.272,0.118l0.06,0.042l0.016,0.031l0.073,0.034l0.094,-0.003l0.23,-0.071l0.029,-0.016l0.196,-0.013l0.05,0.01l0.042,0.003l0.055,-0.013l0.125,0.003l0.186,0.042l0.058,0.034l0.024,0.037l-0.008,0.029l0.013,0.029l0.037,0.037l0.05,0.013l0.128,-0.008l0.115,-0.076l-0.003,-0.016l-0.029,-0.024l-0.047,-0.016l-0.026,0.003l-0.058,-0.024l-0.217,-0.136l-0.212,-0.144l-0.024,-0.037l0.003,-0.013l-0.029,-0.021l-0.12,-0.026l-0.034,0.003l-0.037,0.037l-0.12,0.016l-0.146,0.01l-0.209,-0.042l-0.133,-0.042l-0.086,-0.05l-0.282,-0.131l-0.23,-0.097l-0.047,-0.029l-0.055,-0.063l-0.144,-0.105l-0.055,-0.016l-0.133,-0.094l-0.073,-0.092l-0.029,-0.081l-0.047,-0.081l-0.039,-0.044l-0.013,-0.039l0.031,-0.055l0.029,-0.029l0.016,-0.065l-0.016,-0.05l0.008,-0.021l-0.016,-0.01l-0.105,-0.008l-0.042,0.018l-0.052,0.092l-0.026,0.029l-0.065,0.03l-0.008,0.014l0.016,0.012l0.014,-0.002l0.016,0.014v0.02l-0.024,0.014l-0.086,-0.01l-0.09,0.006l-0.012,0.024l0.004,0.024l0.012,0.018l-0.002,0.022l-0.022,0.012h-0.033l-0.002,0.01l0.022,0.016l0.012,0.029l-0.004,0.027l-0.018,0.039l-0.004,0.031l0.027,0.035l-0.002,0.022l-0.024,0.022l-0.031,0.003Z "/>
</svg>
