<svg xmlns="http://www.w3.org/2000/svg" viewBox="848.989 268.887 63.865 37.176">
  <path fill-rule="evenodd" d="M849.037,288.094l2.926,0.166l0.771,0.149l0.11,0.039l0.074,-0.008l0.059,-0.074l0.039,-0.082l0.004,-0.078l-0.051,-0.079l0.012,-0.047l0.109,-0.058l0.141,-0.008l0.09,-0.031l0.043,-0.083l-0.008,-0.062h-0.043l-0.062,0.066l-0.083,0.004l-0.05,-0.031l-0.024,-0.059l-0.184,-0.234v-0.169l0.032,-0.039l-0.055,-0.145l0.015,-0.219l-0.172,-0.375l-0.054,-0.028l-0.024,-0.074l0.024,-0.055l0.007,-0.148l-0.074,-0.513l0.012,-0.172l0.078,-0.141l0.117,-0.074l0.129,-0.039l0.262,-0.004l0.592,-0.914l0.114,-0.063l0.354,-0.051l0.519,0.01l0.395,0.052l0.19,-0.094l0.168,-0.051h0.317l0.015,-0.05l0.024,-0.002l0.017,0.044l0.03,-0.011l-0.015,-0.105l-0.06,-0.094l0.034,-0.042l0.075,0.018l0.05,0.055l0.054,-0.013l0.204,-0.532l0.018,-0.206l-0.13,-0.169l-0.063,-0.029l0.024,-0.05l0.117,-0.031l0.07,0.037l0.04,-0.029l0.033,-0.183l0.066,-0.036l0.013,-0.058l0.034,-0.018l0.036,0.013l0.068,-0.029l0.036,-0.093h0.037l0.018,0.093l0.17,0.063l0.049,-0.023l0.055,0.02l-0.018,0.193l0.036,0.014l0.144,-0.066l0.049,-0.031l0.068,-0.003l0.318,0.066l0.136,0.075l0.159,0.193l0.076,0.266l-0.021,0.209l0.023,0.018l0.154,-0.034l0.133,0.024l0.084,0.047l0.039,-0.021l0.036,-0.112l-0.034,-0.076l-0.289,-0.19l-0.06,-0.003l-0.039,-0.065l0.01,-0.073l-0.297,-0.457l-0.071,-0.2l-0.065,-0.06l-0.104,-0.013l-0.313,-0.139l-0.099,-0.065l-0.026,-0.094l0.06,-0.047l0.057,0.008l0.222,-0.18l0.055,-0.008l0.047,-0.034h0.221l0.24,0.06l0.086,0.06l0.105,0.013l0.07,0.034l0.068,0.003l0.055,0.016l0.13,-0.027l0.141,0.003l0.065,0.018l0.044,-0.026l0.037,-0.195l-0.011,-0.05l-0.046,-0.042l0.018,-0.041l0.091,0.028l0.078,-0.008l0.024,-0.083l-0.078,-0.073l-0.019,-0.177l0.034,-0.013l0.172,0.177l0.259,0.196l0.088,0.101l0.373,0.363l0.11,0.042l0.125,0.086l0.003,0.031l0.146,0.117l0.174,0.105l0.141,0.002l0.063,0.021l0.344,-0.044l0.206,0.274l0.047,0.02l0.016,0.05l0.099,0.112l-0.005,0.047l-0.032,0.018l0.05,0.107l0.12,0.128l0.412,0.18l0.016,0.073l0.075,0.078l0.282,0.006l0.068,-0.024l0.065,0.003l0.062,0.031l0.089,-0.005l0.034,-0.029l0.068,-0.008l0.062,0.021h0.076l0.175,-0.049l0.096,0.005l0.186,0.109l0.093,0.006l0.076,-0.058l0.047,-0.078l0.078,-0.06l0.152,0.016l0.044,0.034l-0.018,0.062l0.013,0.057l0.101,0.04l0.05,0.06l0.008,0.065l0.034,0.018l0.044,-0.029l0.073,0.032l-0.009,0.047l0.023,0.035l0.043,0.004l0.055,0.086l-0.008,0.058l0.032,0.028l0.054,0.008l0.004,0.043l-0.066,0.058l-0.149,-0.023l-0.078,0.047l-0.012,0.07l0.098,0.059l0.102,0.012l0.117,0.082l0.016,0.078l-0.032,0.071l-0.031,0.277l-0.043,0.082l-0.063,0.012l-0.172,-0.094l-0.113,0.004l-0.027,0.063l0.105,0.172l0.067,0.035l0.121,-0.066l0.063,0.019l0.027,0.075l0.004,0.074l0.105,0.082h0.149l0.133,0.07l0.012,0.075l0.121,0.152l0.137,0.071l0.133,0.004l0.098,0.054l0.152,0.169l0.059,0.031l-0.015,0.051l-0.071,0.012l-0.012,0.058l-0.054,0.012l-0.04,-0.07l-0.066,-0.028l-0.035,0.024l-0.059,-0.016l-0.121,-0.121l-0.188,-0.059l-0.051,0.012l-0.094,-0.024l-0.031,-0.043h-0.059l-0.039,0.079l0.024,0.078l-0.04,0.039h-0.066l-0.031,0.07l0.141,0.227l0.242,0.196l0.098,0.192l0.004,0.113l-0.031,0.047l-0.083,0.02l-0.113,0.105l-0.059,0.129l-0.082,0.262l-0.008,0.122l0.055,0.086l0.153,0.062l0.129,0.122l0.25,0.172l0.473,0.16l0.137,0.102l0.141,0.152l0.125,0.087l0.098,0.035l0.325,-0.032l0.368,-0.156l0.516,-0.008l0.638,0.063l0.094,0.082l0.039,-0.02l0.008,-0.144l0.05,0.003l0.079,0.059l0.027,0.11l0.071,0.027l0.14,0.125l0.388,0.188h0.352l0.258,-0.231l0.016,-0.242l0.058,-0.133l0.122,-0.051l0.062,0.008l0.086,0.047l0.215,0.015l0.087,0.055l0.215,0.063l0.109,0.109l0.161,0.051l0.062,0.047l0.016,0.059l0.047,0.047l0.176,0.082l0.066,0.062l0.008,0.047l0.051,0.039l0.18,0.059l0.094,0.086l0.016,0.121l0.058,0.083l0.075,0.047l0.043,0.058l0.015,0.075l0.035,0.062l0.079,0.055l0.047,0.121l0.015,0.215l-0.039,0.282l0.032,0.114l0.082,0.078l0.066,0.137l-0.004,0.277l0.082,0.106l0.106,0.035l0.043,0.059l0.043,0.356l0.067,0.145l0.164,0.105l0.07,0.11l0.09,0.055l0.122,-0.02l0.121,0.043l0.223,0.219l0.012,0.122l-0.024,0.066l0.051,0.141l0.14,0.099l0.015,0.094l-0.031,0.141l0.01,0.125l0.058,0.083l0.036,0.36l-0.047,0.131l0.006,0.088l0.088,0.089l0.021,0.12v0.177l0.141,0.209l4.549,2.973l0.036,0.204l1.231,0.803l0.48,0.271l0.057,0.047h0.079l0.339,-0.109h0.146l0.694,0.61l0.537,0.339l0.193,0.073l0.193,0.136l0.12,0.135l0.057,0.032h0.146l0.172,0.068l0.152,0.135l0.172,0.094l0.151,0.026l0.433,0.344l0.083,0.11l1.436,0.909l0.376,0.074l0.598,0.067l0.028,0.023l0.043,-0.004l0.035,-0.094l0.176,-0.027l0.125,0.051l0.043,0.07l0.129,0.09l0.114,-0.004l0.309,0.137l0.043,0.063l0.078,0.043l0.071,-0.004l0.078,0.055l0.106,0.027l0.129,-0.004l0.09,0.047l0.113,0.184l0.196,0.164l0.32,0.165l0.188,-0.028l0.098,-0.047l0.11,0.036l0.066,0.05l0.102,0.016l0.207,0.094l0.165,0.129l0.093,0.188l-0.015,0.039l-0.09,0.004l-0.161,0.102l-0.18,0.207l-0.152,0.301v0.125l0.027,0.137l-0.004,0.09l-0.027,0.063l-0.008,0.164l-0.063,0.133v0.071l0.024,0.047l-0.016,0.129l0.071,0.188l0.098,0.066l0.046,0.098l-0.039,0.086l-0.082,0.027l-0.168,0.204l0.004,0.043l0.109,0.062l0.071,0.063l0.051,-0.047l0.092,-0.008l0.051,0.031l0.054,0.122l0.098,0.041l0.086,-0.028l0.082,-0.123l0.133,-0.023l0.039,0.035l0.049,0.002l0.057,-0.026l0.131,-0.001l0.104,0.039l0.08,-0.012l0.063,-0.067l0.123,-0.011l0.125,-0.096h0.063l0.185,0.084l0.059,0.006l0.047,-0.016l0.071,0.014l0.133,0.105l0.091,0.108l-0.005,0.133l0.052,0.088l0.067,0.043l0.078,0.024h0.082l0.184,0.117l0.049,0.092l0.018,0.084l0.058,0.035l0.13,-0.01l0.082,-0.08l0.203,-0.068l0.094,-0.004l0.168,-0.069l0.067,-0.066l0.039,-0.072l0.053,-0.045l0.064,0.001l0.078,0.04l0.024,0.058l0.115,0.131h0.083l0.056,-0.056l0.075,0.002l0.041,0.052l0.043,0.004l0.051,-0.029h0.06l0.051,0.025l0.108,0.014l0.107,0.076l0.11,0.147h0.029l-0.001,-0.06l0.079,-0.106l0.133,-0.368l0.004,-0.16l-0.101,-0.345l0.003,-0.109l0.106,-0.344l0.082,-0.176l0.079,-0.071l0.258,-0.419l0.105,-0.039l0.079,-0.105l0.004,-0.067l0.109,-0.125l0.047,-0.141l0.102,-0.133l0.015,-0.086l0.141,-0.239l0.012,-0.14l0.047,-0.059l0.274,-0.012l0.129,0.047l0.039,0.047l0.059,-0.008l0.031,-0.141l-0.012,-0.101l0.067,-0.196l0.148,-0.176l0.122,-0.063l0.1,-0.255l0.026,-0.193l-0.036,-0.073h-0.058l-0.052,-0.037l-0.026,-0.088l-0.172,-0.11l-0.073,-0.156l0.01,-0.084l-0.062,-0.057h-0.136l-0.25,-0.219l-0.058,-0.11l-0.099,-0.042l-0.172,0.063l-0.047,-0.037l0.037,-0.104l0.151,-0.141l-0.063,-0.224l-0.141,-0.099l-0.015,-0.167l0.057,-0.063l0.016,-0.328l-0.078,-0.167l0.026,-0.073l0.172,-0.037l0.026,-0.078l-0.084,-0.151l-0.104,-0.073l0.026,-0.058l0.308,-0.057l0.13,-0.099l0.011,-0.073l-0.078,-0.063v-0.062l0.083,-0.053l0.005,-0.114l-0.151,-0.063l-0.084,-0.078l-0.031,-0.146l-0.083,-0.078l-0.157,-0.011l-0.068,0.042l-0.135,-0.005l-0.105,-0.068l-0.307,0.026l-0.063,0.073h-0.12l-0.089,-0.042l-0.208,0.005l-0.073,0.053h-0.125l-0.131,-0.105l-0.036,-0.276l0.041,-0.172l-0.041,-0.063l-0.094,0.011l-0.073,-0.047l-0.026,-0.089l-0.157,-0.073l-0.12,0.036l-0.167,-0.026l-0.354,-0.156l-0.188,-0.011l-0.037,-0.057l0.063,-0.057v-0.115l-0.063,-0.094l0.021,-0.042l0.423,-0.005l0.036,-0.063l-0.026,-0.062l0.031,-0.073l0.053,-0.068l-0.021,-0.141l-0.063,-0.047l-0.026,-0.078l0.016,-0.099l-0.058,-0.157l-0.146,-0.057l-0.021,-0.073l0.047,-0.047l0.183,0.005l0.026,-0.042l-0.063,-0.057l0.006,-0.047l0.073,-0.057l0.281,-0.052l0.133,0.005l0.095,-0.014l0.028,-0.025l0.006,-0.045l0.06,-0.077l0.075,-0.031l0.045,0.008l0.029,-0.002l0.047,-0.078l0.045,-0.004l0.172,0.074l0.047,0.002l0.033,-0.027l0.03,-0.037l0.037,-0.004l0.074,0.037l0.059,0.076l0.105,0.022l0.044,-0.012l0.031,0.021v0.024l0.043,0.027l0.064,0.006l0.071,0.051l0.037,0.002l0.022,-0.022l0.123,0.014l0.07,0.035h0.057l0.049,0.024l0.043,0.041l0.1,0.014l0.037,-0.02l0.039,0.004l0.094,0.064l0.058,0.004l0.036,-0.033h0.039l0.021,0.026h0.034l0.037,-0.022l0.045,0.008l0.054,0.047l0.151,-0.002l0.047,-0.026l0.121,0.008l0.032,0.035l0.041,0.004l0.047,-0.005l0.115,0.046l0.043,0.04h0.049l0.07,-0.051l0.178,0.015l0.059,0.02l0.094,-0.006l0.029,-0.018l0.047,0.004l0.036,0.036h0.052l0.028,-0.051l0.043,-0.028l0.008,-0.049l-0.036,-0.029l0.014,-0.07l0.051,-0.063l0.051,-0.008l0.029,-0.023l0.004,-0.043l0.037,-0.034l0.061,-0.009l0.057,-0.067l0.013,-0.105l0.034,-0.067l-0.02,-0.066l-0.041,-0.014l-0.059,-0.055l0.004,-0.037l0.022,-0.022l0.019,-0.068l0.051,-0.053l0.016,-0.045l0.039,-0.043l0.01,-0.031l-0.014,-0.035l0.014,-0.114l-0.026,-0.088l0.008,-0.061l0.033,-0.019l0.071,0.027l0.054,0.051l0.055,-0.004l0.071,-0.068l0.121,-0.032l0.043,-0.06l0.051,0.008l0.01,0.086l0.05,0.06l0.026,-0.015l-0.008,-0.051l0.043,-0.057l0.084,-0.008l0.053,-0.078l0.008,-0.086l-0.024,-0.119l-0.076,-0.157l0.002,-0.037l0.024,-0.035l0.015,0.002l0.006,0.058l0.059,0.09l0.011,0.071l0.038,0.051l0.005,0.054l-0.021,0.047l0.004,0.118l0.029,0.029h0.082l0.041,-0.039l0.01,-0.035l0.071,-0.051l0.039,-0.084l0.047,-0.008l0.004,-0.018l-0.041,-0.015l0.003,-0.032l-0.058,-0.097l-0.004,-0.067l-0.051,-0.121l-0.065,-0.067l-0.09,-0.156l0.018,-0.029l-0.006,-0.022h-0.033l-0.025,-0.039l0.011,-0.026l0.163,0.022l0.004,0.027l-0.02,0.014l0.002,0.031l0.025,0.026l0.02,-0.004l-0.006,-0.049l0.018,-0.039h0.023l0.029,0.023l0.149,0.006l0.037,0.041l0.018,-0.008l-0.006,-0.05l-0.053,-0.075l0.004,-0.031l0.039,-0.018l0.098,-0.006l0.11,-0.127l-0.004,-0.125l-0.028,-0.023l-0.062,0.004l-0.075,0.033l-0.103,-0.014l-0.096,0.008l-0.112,0.033l-0.191,0.084l-0.2,0.032l-0.104,0.054l-0.144,0.002l-0.051,0.022l-0.08,0.004l-0.208,0.09l-0.381,-0.2l0.017,-0.101l0.208,-0.047l0.266,-0.086h0.072l0.053,-0.014l0.029,-0.028l0.241,-0.068l0.047,0.004l0.055,0.113l0.035,0.004l0.037,-0.021l0.098,-0.028l0.008,-0.054l0.078,-0.065l0.681,-0.08l0.076,0.029l0.282,0.024l0.068,0.031l0.074,0.006l0.087,-0.022l0.158,0.024l0.055,0.035l0.058,0.002l0.088,0.047l0.012,-0.02l-0.053,-0.086v-0.053l0.028,-0.052l-0.01,-0.043l-0.117,-0.059l-0.041,-0.051v-0.063l-0.024,-0.047l0.022,-0.019l0.185,0.084l0.02,-0.008l0.002,-0.023l0.019,-0.014l0.028,0.002l0.027,-0.022l0.002,-0.056l0.03,-0.043l-0.008,-0.125l-0.061,-0.032l-0.057,-0.041l-0.004,-0.033l0.018,-0.031l-0.002,-0.04l-0.055,-0.037l-0.002,-0.031l0.026,-0.014l0.002,-0.029l-0.057,-0.045l-0.008,-0.104l-0.037,-0.037v-0.113l0.025,-0.028v-0.025l-0.052,-0.026l-0.079,-0.084l-0.037,-0.011l-0.033,-0.028l-0.033,-0.053l0.002,-0.037l0.066,-0.025l0.067,-0.08l0.041,-0.012l0.039,0.006l0.029,-0.01l0.004,-0.022l0.035,-0.005l0.071,0.011l0.096,-0.004l0.043,-0.031l0.002,-0.121l-0.041,-0.114l-0.002,-0.115l0.039,-0.11l-0.002,-0.138l0.049,-0.055l0.007,-0.098l-0.041,-0.049l0.01,-0.043l0.063,-0.041l0.035,-0.004l0.039,0.023l0.02,0.081l0.037,0.051h0.027l0.033,-0.036l0.036,-0.103l0.047,-0.014l0.039,0.01l0.029,-0.012l0.059,-0.094l0.053,0.002l0.027,0.119l0.043,0.024l0.027,-0.016l0.065,0.022l0.072,0.039l0.069,0.135v0.066l0.025,0.065l0.067,0.045l0.035,0.008l0.041,0.029l0.014,0.043l0.041,0.02l0.051,0.007l0.054,0.063l0.018,0.072l0.047,0.04l0.057,0.015l0.107,-0.004l0.071,-0.058l0.051,-0.012l0.019,-0.02l-0.002,-0.045l0.031,-0.027l0.018,-0.043l0.055,-0.055l0.045,-0.074l0.066,-0.006l0.024,0.023h0.041l0.059,-0.054l0.072,-0.002l0.045,-0.043h0.031l0.03,0.015l0.135,0.004l0.035,-0.027l0.047,-0.004l0.06,-0.051l0.131,0.004l0.043,-0.027l0.04,-0.006l0.031,-0.037h0.084l0.043,-0.022l0.082,-0.108l0.061,-0.035l0.047,-0.121l0.103,-0.061h0.098l0.071,0.028l0.076,-0.014l0.178,-0.106l0.023,-0.052l0.038,-0.036l0.054,-0.009l0.067,-0.038l0.205,-0.068l0.032,-0.086l-0.026,-0.08l0.01,-0.036l0.045,-0.035v-0.096l-0.037,-0.09l0.008,-0.062l0.039,-0.031l0.019,-0.047l0.055,-0.042l0.074,-0.005l0.038,-0.03l0.037,0.002l0.015,0.024l0.028,0.002l0.021,-0.024l0.028,0.002l0.031,0.028l0.018,0.05l0.037,0.03l0.039,0.011l0.031,0.04l0.022,0.076l0.047,0.035l0.066,0.01l0.049,0.047l-0.002,0.035l0.029,0.031l0.043,0.01l0.061,0.114l0.004,0.06l0.031,0.03l0.055,0.027l0.065,0.086l0.009,0.049l0.116,0.111l0.082,0.03l0.098,0.101l-0.004,0.032l-0.035,0.019l-0.047,-0.004l-0.069,-0.06l-0.021,-0.037l-0.028,0.005l0.002,0.157l0.024,0.029l0.299,0.088l0.115,0.081l0.03,0.062l-0.024,0.043l-0.037,0.004l-0.023,0.027l-0.012,0.042l-0.045,0.039l-0.07,0.009l-0.034,0.028l-0.004,0.045l0.028,0.047l-0.016,0.033l-0.033,0.002l-0.031,-0.027h-0.051l-0.096,0.068l-0.043,0.063l-0.037,0.025l-0.045,0.004l-0.041,0.035l-0.077,0.143l-0.088,0.08l-0.107,0.053l-0.124,0.006l-0.054,0.033l-0.022,0.076l-0.074,0.104l-0.047,0.027l-0.082,-0.001l-0.067,0.021l-0.152,0.088l-0.194,0.049l-0.039,0.039l0.002,0.045l0.041,0.125l0.051,0.047l0.058,0.09l0.038,0.012l0.031,-0.012l0.033,0.014l0.028,0.029l0.031,0.004l0.021,-0.021l0.043,0.009l0.03,0.042l0.156,0.07l0.294,0.004l0.066,0.055v0.031l-0.061,0.059l-0.001,0.041l0.046,0.097l-0.005,0.175l0.037,0.097l0.103,0.128l0.094,0.062l0.09,0.004l0.18,-0.043h0.086l0.063,0.01l0.07,-0.002l0.294,-0.09l0.092,-0.051l0.305,0.004l0.121,-0.02l-0.003,-0.103l-0.031,-0.054l-0.058,-0.042v-0.071l0.034,-0.013l0.047,0.013h0.047l0.057,-0.036h0.05l0.039,0.018l0.123,-0.021l0.219,-0.177l0.049,-0.005l0.034,0.008l0.047,-0.003l0.133,-0.031l0.131,0.007l0.067,0.047h0.037l0.023,-0.039h0.055l0.06,0.032l-0.013,0.065l0.047,0.028l0.065,-0.02l0.11,-0.003l0.075,0.034l0.066,-0.011l0.062,0.068l0.094,0.05l0.149,0.039l0.104,-0.016l0.05,0.045l-0.029,0.062l0.018,0.102l0.039,0.029l0.045,0.002l0.133,0.039l0.028,-0.015l0.06,0.005l0.047,0.039l0.066,-0.005l0.023,-0.05l-0.039,-0.07l-0.003,-0.12l0.026,-0.021l0.032,0.018h0.028l0.026,-0.028l0.097,0.01l0.029,0.055l0.06,0.042l0.013,0.046l-0.019,0.037v0.044l0.016,0.066l-0.039,0.031l-0.073,-0.031l-0.021,0.018l0.11,0.081l0.054,0.002l0.037,0.029l0.005,0.07l0.029,0.045l0.021,-0.011l0.01,-0.068l0.063,-0.06l0.101,-0.007l0.058,-0.032l0.028,-0.047l0.042,-0.023l0.071,-0.005l0.018,-0.032l-0.026,-0.028l-0.011,-0.094l0.034,-0.055l0.12,-0.029l0.092,-0.002l0.086,0.023l0.034,0.05l0.049,0.021l0.068,-0.011l0.01,-0.021l-0.052,-0.031l0.018,-0.021l0.068,0.005l0.06,-0.028l0.034,-0.05l0.05,0.003l0.041,0.031l0.045,-0.01l0.065,-0.047l-0.003,-0.039l-0.057,-0.029l-0.144,-0.005l-0.106,-0.086l0.005,-0.047l0.107,-0.047l0.159,-0.133l0.028,-0.052l0.066,-0.058l0.068,-0.018l0.057,-0.05l0.003,-0.036l0.049,-0.034l-0.003,-0.031l-0.036,-0.013l0.003,-0.034l0.161,-0.141l0.076,-0.042l0.039,-0.047l0.034,-0.002l0.013,0.049l0.036,0.008l0.024,-0.021l0.133,0.005l0.044,0.034l-0.021,0.05l0.013,0.039l0.068,0.031l0.016,0.05l0.034,0.015h0.047l0.047,-0.036l0.043,-0.004l0.203,0.188l0.121,0.019l0.028,-0.035l-0.028,-0.086l0.04,-0.113l0.054,-0.051v-0.09l-0.066,-0.102l-0.106,-0.035l-0.004,-0.043l0.118,-0.086l-0.012,-0.083l-0.149,-0.082l-0.082,-0.078l0.008,-0.031l0.09,0.004l0.055,-0.051h0.078l0.07,0.074l0.055,0.106l0.086,0.086l0.059,0.004l0.027,-0.059h0.039l0.063,0.098l0.168,0.043h0.063l0.168,0.094l0.098,0.004l0.055,-0.071l-0.008,-0.234l0.031,-0.047l0.067,0.004l0.027,0.054l0.035,0.004l0.028,-0.043l0.07,0.016l0.051,0.047l0.031,-0.024l-0.031,-0.097l0.023,-0.09l0.11,-0.114l0.008,-0.074l0.062,-0.047h0.141l0.055,-0.055l-0.008,-0.09l0.055,-0.039l0.125,-0.004l0.125,-0.063l0.168,-0.136l0.122,-0.02l0.148,0.02l0.028,0.046h0.031l0.024,-0.054l0.09,0.019l0.027,0.09l0.059,0.078l0.047,0.004l0.007,-0.066l-0.054,-0.09l0.039,-0.055h0.078l0.059,0.051l0.094,0.016l0.039,-0.036l-0.02,-0.05l-0.117,-0.055l-0.004,-0.047l-0.035,-0.028l-0.063,0.036l-0.023,-0.032l0.035,-0.074l-0.032,-0.082l-0.086,-0.031l-0.344,-0.012l-0.16,0.074l-0.086,0.102l-0.063,0.019l-0.129,-0.054l-0.094,-0.11l-0.149,-0.07l-0.18,0.004l-0.164,0.054l-0.242,-0.015l-0.161,-0.075l-0.145,-0.003l-0.082,-0.036l-0.004,-0.047l0.051,-0.051v-0.078l-0.113,-0.18l-0.094,-0.066l-0.149,-0.02l-0.043,-0.027l0.012,-0.078l-0.129,-0.137l-0.125,-0.047l-0.051,0.035l-0.102,-0.012l-0.11,-0.105l-0.043,0.003l-0.043,0.063l-0.137,0.043l-0.117,0.102l-0.219,0.023l-0.063,0.043l-0.062,-0.011l-0.028,-0.043l0.024,-0.047l0.059,0.011l0.09,-0.101l0.004,-0.106l-0.13,-0.231l-0.117,-0.07l0.012,-0.043l0.055,-0.032l0.007,-0.066l-0.039,-0.024l-0.184,0.055l-0.047,0.082l-0.062,0.055l-0.063,-0.008l-0.055,-0.051l-0.105,-0.023l-0.071,-0.067l-0.133,-0.003l-0.047,0.043l-0.066,-0.004l-0.129,-0.063l-0.043,-0.063l0.012,-0.164l0.078,-0.07l-0.004,-0.047l-0.031,-0.055l0.003,-0.074l0.071,-0.079v-0.05l-0.074,-0.047l-0.059,-0.106l0.031,-0.051l-0.031,-0.055h-0.047l-0.055,0.036l-0.066,-0.004l-0.024,-0.039l0.031,-0.063l-0.027,-0.051l-0.07,-0.019l-0.079,-0.118l0.02,-0.051l-0.023,-0.047l-0.047,-0.004l-0.051,0.075l-0.071,0.008l-0.086,-0.055l-0.023,0.039l0.027,0.059l-0.019,0.047l-0.059,0.007l-0.063,-0.07l0.004,-0.063l0.047,-0.09l0.067,-0.027l0.015,-0.051l-0.015,-0.043l0.031,-0.113l-0.02,-0.059l0.016,-0.035l0.043,-0.035l-0.027,-0.043l-0.063,-0.004l-0.094,0.078l-0.047,0.094l-0.07,0.062l-0.153,0.016l-0.031,0.043l0.035,0.02l0.106,-0.032l0.055,0.055l0.047,0.184l-0.004,0.074l-0.071,0.028l-0.008,0.047l0.032,0.047l-0.094,0.183l-0.039,0.004l-0.012,-0.039h-0.031l-0.094,0.184l-0.129,0.051l-0.231,-0.012l-0.035,-0.039l-0.059,-0.008l-0.086,0.063l-0.02,0.07l0.032,0.047l-0.008,0.118l0.055,0.078l-0.004,0.074l-0.083,0.063l0.008,0.066l0.047,0.039l0.008,0.083l-0.141,0.148l-0.066,0.008l-0.047,-0.051l-0.082,-0.015l-0.102,-0.13l-0.043,0.004l-0.028,0.118l-0.07,0.004l-0.043,-0.059l-0.023,-0.137l-0.118,-0.063l-0.184,-0.031l-0.058,0.012l-0.012,0.059l-0.043,0.011l-0.031,-0.023l-0.044,0.023l-0.035,0.122l-0.066,0.004l-0.145,-0.137l-0.125,-0.051l-0.102,-0.004l-0.078,0.062l-0.11,0.04l-0.09,-0.044l-0.019,-0.058l-0.18,-0.125l-0.031,-0.071l-0.075,-0.058h-0.086l-0.078,0.078l-0.094,0.019l-0.051,-0.027l-0.008,-0.133l0.028,-0.059l0.004,-0.07l-0.032,-0.047l0.008,-0.055l0.039,-0.043l-0.015,-0.266l-0.083,-0.082l-0.129,-0.192v-0.055l-0.031,-0.031l-0.141,-0.008l-0.145,0.055h-0.148l-0.09,0.067l-0.024,0.07l-0.09,0.082l-0.195,0.039l-0.071,-0.039l-0.015,-0.074l-0.137,-0.11l-0.055,-0.066l-0.063,-0.024l-0.043,0.008l-0.035,-0.027l-0.004,-0.051l-0.047,-0.031l-0.047,-0.004l-0.098,-0.047l-0.058,-0.051l-0.067,-0.004l-0.058,0.07l-0.106,0.039l-0.098,-0.015l-0.051,-0.047l-0.105,-0.024l-0.008,-0.047l0.035,-0.031l0.012,-0.059l-0.012,-0.066l0.039,-0.055l0.063,-0.027l0.023,-0.051l-0.023,-0.059l0.023,-0.043l0.09,-0.012l0.086,0.024l0.153,-0.102l0.133,-0.027l0.094,-0.055l0.058,-0.109l0.067,-0.051l0.074,-0.02l0.165,-0.117l0.105,-0.016l0.047,-0.066l0.016,-0.165l0.059,-0.098l0.144,-0.074l0.098,-0.016l0.035,-0.039l-0.011,-0.058l0.047,-0.055l0.066,-0.016l0.137,-0.219l0.106,-0.059l0.133,-0.003l0.05,0.027l0.047,-0.016l0.02,-0.074l0.055,-0.008l0.141,0.055l0.09,-0.016l0.062,-0.101l-0.008,-0.153l-0.043,-0.067l0.024,-0.086l0.043,-0.047l0.008,-0.086l0.058,-0.011l0.216,0.086l0.16,0.008l0.078,-0.028l0.059,-0.105l0.192,-0.118l0.074,-0.008l0.055,-0.043l0.031,-0.066l0.156,-0.106l0.102,-0.019l0.086,0.015l0.078,-0.011l0.094,-0.114v-0.063l0.063,-0.058l-0.016,-0.051l-0.051,-0.074l-0.058,-0.028l-0.063,0.02l-0.051,-0.032l-0.031,-0.062l-0.258,-0.149l-0.098,0.008l-0.098,-0.031l-0.039,-0.039h-0.133l-0.063,0.066l0.004,0.055l-0.047,0.055h-0.109l-0.09,-0.036l-0.106,0.137l-0.223,0.129l-0.086,0.012l-0.051,-0.031l-0.176,0.008l-0.098,0.082l-0.003,0.078l-0.086,0.129l-0.102,0.075l-0.051,0.086l-0.012,0.07l-0.098,0.141l-0.043,0.156l-0.105,0.047l-0.102,-0.011l-0.098,-0.094l0.008,-0.059l-0.023,-0.098l-0.098,-0.098l-0.149,-0.078l-0.055,0.016l-0.008,0.055l-0.043,0.019l-0.047,-0.004l-0.136,0.09h-0.118l-0.152,0.098l-0.028,0.067l0.035,0.058l0.004,0.149l-0.043,0.066l-0.168,0.028l-0.18,0.109l-0.016,0.082l-0.136,0.137l-0.032,0.126l-0.09,0.078l-0.078,-0.016l-0.117,0.035l-0.032,0.071l-0.203,0.18l-0.055,-0.008l-0.023,-0.047l-0.059,0.004l-0.102,0.078l-0.062,0.165l-0.184,0.113l-0.125,-0.004l-0.118,-0.035l-0.137,0.039l-0.058,0.059l-0.071,0.011l-0.062,-0.023l-0.122,0.019l-0.07,0.079l-0.274,0.066l-0.16,0.106l-0.133,0.203l-0.024,0.098l-0.082,0.067l-0.113,0.019l-0.102,-0.07l-0.086,0.023l-0.149,0.204l0.024,0.047h0.074l0.109,0.074l-0.003,0.059l-0.043,0.023l-0.231,-0.016l-0.118,0.012l-0.125,0.098l-0.062,0.008l-0.153,-0.078l-0.125,-0.02l-0.219,0.106l-0.024,0.078l0.02,0.083l-0.055,0.05l-0.081,-0.024l-0.083,0.058l-0.047,0.094l-0.052,-0.006l-0.042,-0.067l-0.125,0.031l-0.026,0.057l0.057,0.068l-0.016,0.141l-0.068,0.063l-0.005,0.083l0.073,0.089l-0.031,0.099l-0.052,0.036l-0.068,-0.052l-0.042,0.026l0.016,0.063l-0.104,0.078l-0.115,0.037l-0.073,0.047l-0.058,0.083l-0.344,0.198l-0.328,0.313l-0.006,0.084l0.068,0.073l0.063,0.005l0.036,0.026l-0.057,0.146l-0.104,0.042l-0.068,-0.011l-0.105,0.032l-0.057,0.067l-0.057,-0.005l-0.032,-0.078l0.021,-0.047l0.099,-0.026l0.016,-0.037l-0.042,-0.031l-0.109,0.011l-0.063,-0.032l-0.01,-0.125l-0.052,-0.016l-0.079,0.089l-0.073,0.005l-0.094,-0.026l-0.062,0.021l-0.063,0.131l-0.083,0.041l0.021,0.047h0.109l0.042,0.063l0.047,0.021l0.073,-0.011l0.083,0.084l0.016,0.094l0.036,0.099l-0.01,0.115l-0.078,0.057l-0.005,0.151l0.078,0.115l0.026,0.318l0.162,0.057l0.073,0.079l-0.037,0.151l-0.068,0.052l0.005,0.047l0.115,0.073l-0.015,0.047l-0.068,0.011l-0.12,0.109h-0.099l-0.058,-0.036l-0.172,-0.006l-0.068,0.026l-0.036,-0.005l-0.031,-0.062l-0.131,-0.021l-0.083,-0.078l-0.068,-0.021l-0.131,-0.011l-0.224,-0.146l-0.323,-0.151l-0.245,-0.183l-0.287,-0.276l-0.199,-0.042l-0.151,-0.125l-0.042,-0.078l0.021,-0.042l0.089,0.01l0.209,-0.172l0.067,-0.13l0.058,-0.021l0.021,-0.047l-0.063,-0.042l0.011,-0.224l-0.068,-0.047l-0.016,-0.042l0.141,-0.083l0.099,0.015l0.042,-0.046l-0.052,-0.073l-0.12,-0.074l-0.068,0.006l-0.052,0.12l-0.099,0.047l-0.027,0.067l-0.104,-0.005l-0.031,-0.036l0.01,-0.261l-0.078,-0.271l-0.266,0.005l-0.094,0.073l-0.485,-0.219l-0.203,0.068l-0.413,0.005l-0.751,0.177l-0.187,-0.031h-1.117l-0.062,-0.026l-1.068,-0.017l-0.249,-0.904l-0.426,-2.37l-1.943,-0.27v-1.891l0.239,0.093l0.083,-1.008v-1.725l-0.935,0.333l-0.385,-0.624l-0.655,-1.267l-0.135,-0.146l-1.278,-0.779l-0.686,-0.998l-0.26,-0.083l-1.496,0.748l-2.505,-0.135l-1.912,-0.239l-4.136,0.603l-0.893,0.052l-2.099,-2.172l-1.102,-1.039l-0.114,-0.603l-0.167,-0.052l-1.787,-1.226l-5.84,-3.222l-1.517,-1.039l-9.539,2.68l0.048,16.527z M904.728,292.842l0.005,-0.063l0.037,-0.042l0.031,0.006l0.003,0.052l-0.011,0.062l-0.036,0.013l-0.029,-0.028z M904.637,293.113l0.026,-0.031h0.133l0.117,0.086l0.071,0.24v0.088l0.031,0.065l0.013,0.092l0.049,0.065l-0.002,0.057l0.036,0.034l0.073,-0.047l0.136,-0.005l0.06,-0.039l0.026,0.018l-0.031,0.084l-0.065,0.049h-0.113l-0.007,0.029l0.075,0.047l-0.002,0.057l-0.089,0.039v0.026l0.245,0.016l0.024,0.039v0.042l0.034,0.029l-0.003,0.026l-0.026,0.015l-0.008,0.026l0.018,0.032l-0.018,0.018l-0.042,-0.026l-0.028,0.005l-0.013,0.034l-0.149,0.008l-0.037,0.016l-0.036,-0.008l-0.008,-0.068l-0.023,-0.034l-0.037,-0.005l-0.044,0.042l-0.013,0.052l0.013,0.041l-0.019,0.019l-0.036,-0.039l-0.102,-0.011l-0.026,-0.031l0.047,-0.068l0.039,-0.003l0.031,-0.026l0.003,-0.065l0.044,-0.052l0.087,-0.021l0.005,-0.039l-0.102,-0.081v-0.047l0.023,-0.021l0.027,0.006l0.007,0.026l0.032,-0.006l-0.003,-0.062l-0.055,-0.052l-0.177,-0.013l-0.055,-0.05l-0.06,-0.016l-0.047,-0.041l-0.023,-0.136l0.044,-0.091l0.003,-0.131l-0.034,-0.156l-0.039,-0.047z M907.305,294.034l0.018,0.028l0.065,0.011l0.024,0.028v0.05l0.031,0.016l0.076,-0.058l0.028,-0.062l0.037,-0.008l0.023,0.026l0.107,0.013l0.039,0.029h0.034l0.037,-0.115l-0.029,-0.039l-0.065,-0.013l-0.042,-0.024l-0.002,-0.034l-0.029,-0.021l-0.031,-0.002l-0.06,-0.06l-0.024,0.008l0.024,0.062l-0.026,0.073l-0.058,0.039l-0.081,0.003l-0.096,0.05z"/>
</svg>
