<svg xmlns="http://www.w3.org/2000/svg" viewBox="400.142 380.267 3.033 4.092">
  <path d="M400.844921,384.357745l-0.01559,-0.025983l0.067557,-0.070155l0.012992,-0.059762l-0.038975,-0.114327l0.020787,-0.07795l0.054565,-0.025983l0.129917,0.028582l0.09354,-0.03118l0.018188,-0.028582l0.020787,-0.007795l0.028582,0.002598l0.059762,-0.018188l0.070155,0.01559l0.016456,0.025983l0.012126,-0.007795v-0.025117l0.019054,-0.005197 l0.061494,0.077084l0.080548,0.054565l0.038109,0.005197l0.024251,-0.03118l0.085745,-0.025983l0.103933,0.010393l0.103933,-0.002598l0.025983,0.01559h0.054565l0.036377,-0.01559l0.051967,0.007795l0.007795,0.018188l-0.044172,0.033778l-0.057163,-0.002598l-0.036377,0.010393l-0.028582,0.036377l-0.070155,0.023385l-0.01559,0.020787l-0.025983,0.005197l-0.03118,-0.005197l-0.04677,0.012992l-0.005197,0.023385l-0.023385,0.005197l-0.023385,-0.005197l-0.028582,0.01559l-0.018188,0.018188l-0.076218,0.004331l-0.025117,0.019054l-0.018188,-0.002598l-0.038109,-0.018188l-0.027716,0.008661l-0.004331,0.022519l-0.011259,0.005197l-0.013858,-0.017322l-0.050234,0.013858l-0.01559,-0.006929l-0.017322,-0.032912v0.019054l0.017322,0.034644l-0.008661,0.006929l-0.034644,-0.017322l-0.045038,-0.005197l-0.150703,0.044172l-0.028582,0.018188l-0.020787,-0.005197v-0.023385l-0.150703,0.012992l-0.070155,0.038975Z M401.35073,384.310109l0.006929,0.01559l0.013858,0.003464l0.006929,-0.012126l-0.019054,-0.010393l-0.008661,0.003464Z M401.006018,382.292069l0.012126,0.001732l0.005197,-0.008661l-0.006929,-0.005197h-0.012126l0.001732,0.012126Z M401.759535,381.928302l0.010393,-0.008661v-0.012126l-0.012126,-0.001732l-0.006929,0.013858l0.008661,0.008661Z M401.617492,381.962946h0.012126v-0.010393l-0.012126,-0.005197l-0.006929,0.010393l0.006929,0.005197Z M400.843189,382.108453l0.006929,0.010393l0.017322,-0.010393l-0.001732,-0.012126l-0.012126,0.001732l-0.010393,0.010393Z M400.877833,382.125775l0.012126,-0.001732l0.006929,-0.008661l-0.008661,-0.006929l-0.017322,0.006929l0.006929,0.010393Z M400.233446,381.718703l0.013858,-0.008661l-0.003464,-0.013858l-0.013858,0.003464l-0.006929,0.012126l0.010393,0.006929Z M400.245572,381.621698l0.010393,-0.006929l-0.008661,-0.010393l-0.010393,0.005197l-0.001732,0.010393l0.010393,0.001732Z M400.572962,381.665004l0.012126,-0.006929l-0.010393,-0.01559l-0.006929,-0.017322l-0.010393,0.001732v0.025983l0.01559,0.012126Z M400.562568,381.703113l0.020787,0.01559l0.010393,0.001732l-0.006929,-0.029448l-0.020787,-0.010393l-0.008661,0.003464l0.005197,0.019054Z M400.928068,381.787992h0.024251l0.027716,0.010393l0.041573,0.006929l0.010393,-0.01559l-0.01559,-0.010393l-0.029448,0.003464l-0.034644,-0.008661l-0.025983,0.006929l0.001732,0.006929Z M401.080503,381.800117l0.027716,-0.010393h0.038109l0.001732,-0.006929l-0.036377,-0.005197l-0.050234,0.010393l-0.008661,0.012126h0.027716Z M401.161918,381.775866l-0.003464,0.012126l0.017322,0.003464l0.024251,-0.008661l0.019054,-0.012126l-0.016727,-0.004358l-0.023114,0.007822l-0.017322,0.001732Z M400.465564,382.009716l0.013858,-0.010393l-0.008661,-0.01559h-0.012126l-0.005197,0.019054l0.012126,0.006929Z M400.701146,381.905783l0.003464,0.020787l0.012126,0.006929l0.008661,-0.013858l-0.010393,-0.025983l-0.012126,-0.013858l-0.010393,0.012126l0.008661,0.013858Z M400.623196,381.999323l0.017322,-0.008661l0.006929,-0.04677l0.019054,-0.006929l0.01559,0.017322l0.010393,-0.001732l-0.01559,-0.043306l-0.017322,-0.003464l-0.029448,0.029448l-0.017322,0.022519l-0.001732,0.027716l0.012126,0.013858Z M400.157228,381.884996l0.020787,-0.006929l0.01559,-0.010393l-0.001732,-0.027716l-0.010393,-0.003464l-0.027716,0.022519l-0.012126,0.027716l0.01559,-0.001732Z M400.798151,381.597447l0.01559,0.006929l0.012126,-0.005197l-0.003464,-0.019054l-0.017322,-0.005197l-0.008661,0.008661l0.001732,0.013858Z M400.784293,381.626895l0.001732,0.017322l0.017322,0.03118h0.017322l0.012126,-0.013858l0.001732,-0.020787l-0.017322,-0.024251l-0.03118,-0.010393l-0.012126,0.008661l0.010393,0.012126Z M400.262894,381.78626l0.01559,-0.003464v-0.012126l-0.020787,-0.005197l-0.005197,0.010393l0.010393,0.010393Z M400.292342,381.80185h0.012126l0.005197,-0.012126l-0.01559,-0.006929l-0.010393,0.008661l0.008661,0.010393Z M401.080503,382.007984l0.022519,-0.012126l0.017322,-0.029448l-0.01559,-0.010393l-0.01559,0.008661v0.020787l-0.017322,0.017322l0.008661,0.005197Z M401.120344,382.033967l0.008661,-0.006929l-0.010393,-0.020787l-0.019054,0.005197l-0.005197,0.017322l0.025983,0.005197Z M401.142863,382.042629h0.012126v-0.012126l-0.010393,-0.003464l-0.008661,0.008661l0.006929,0.006929Z M401.369784,381.753347l0.003464,-0.012126h-0.013858l-0.008661,0.006929l0.006929,0.006929l0.012126,-0.001732Z M401.238135,381.819172v-0.012126h-0.010393l-0.006929,0.005197l0.008661,0.008661l0.008661,-0.001732Z M401.213884,381.878067l-0.003464,0.036377l0.01559,0.020787l0.017322,-0.003464l0.010393,0.005197l-0.012126,0.019054l0.005197,0.012126h0.03118l0.025983,-0.024251l0.017322,0.001732l0.006929,0.013858v0.019054l0.006929,-0.005197l0.001732,-0.041573l0.010393,0.003464l0.003464,0.019054h0.022519l0.022519,-0.027716 l0.017322,0.005197l0.017322,0.020787l0.025983,0.008661l0.022519,-0.017322l0.019054,0.008661l0.001732,0.01559l-0.005197,0.017322l0.008661,0.005197l0.013858,-0.008661l0.012126,0.008661l0.019054,-0.003464l0.010393,0.013858l0.003464,0.027716l0.013858,-0.003464l0.001732,-0.022519l-0.005197,-0.04677l0.012126,-0.024251l-0.006929,-0.024251l-0.020787,-0.010393l-0.025983,-0.025983l-0.010393,-0.027716l0.010393,-0.005197l0.022519,0.020787l0.01559,-0.006929l-0.006929,-0.020787l0.003464,-0.019054l0.027716,-0.008661l0.013858,0.013858l-0.003464,0.032912l0.008661,0.012126l0.022519,-0.022519l0.025983,0.010393l0.012126,0.022519l-0.005197,0.017322l0.010393,0.017322l0.01559,-0.005197l0.003464,-0.022519l0.019054,-0.012126l-0.001732,-0.020787l-0.017322,-0.013858l-0.022519,-0.006929l-0.012126,0.005197l-0.013858,-0.005197l-0.020787,-0.019054l-0.001732,-0.017322l-0.03118,-0.01559l-0.024251,0.005197l-0.019054,-0.005197l-0.020787,-0.019054h-0.024251l-0.017322,0.01559l-0.058896,-0.003464l0.008661,-0.012126l0.01559,0.001732l0.001732,-0.006929l-0.017322,-0.012126l-0.041573,-0.003464l-0.012126,0.012126l0.005197,0.013858l0.017322,0.001732l0.006929,0.01559l-0.006929,0.01559l-0.022519,0.003464l-0.01559,0.01559l-0.019054,-0.001732l-0.012126,-0.010393l-0.013858,0.001732l-0.005197,0.01559l-0.01559,0.003464l-0.012126,-0.012126l-0.006929,0.006929l0.001732,0.013858l-0.012126,0.008661l-0.01559,-0.020787l-0.006929,0.005197l0.001732,0.020787l-0.012126,0.017322l-0.027716,0.017322Z M401.181649,381.756649l0.022086,-0.00138l0.011043,-0.005521l-0.022086,-0.00138l-0.019325,0.005521l0.008282,0.002761Z M400.347908,381.842232l0.013804,0.016564l0.020705,-0.00138l0.005521,-0.009663l0.019325,-0.004141l0.006902,0.011043l0.011043,0.00138l0.006902,-0.009663l0.03727,-0.013804l0.015184,-0.013804l0.024847,0.006902l0.011043,0.015184l0.027607,0.005521v0.023466l-0.024847,0.002761l-0.00138,0.009663l0.034509,-0.00138l0.006902,0.017945l0.009663,0.005521l0.009663,-0.023466l0.016564,0.005521l-0.004141,0.031748l0.009663,0.005521l0.006902,-0.012423l0.016564,-0.002761l0.012423,-0.020705l0.017945,-0.008282l0.011043,0.006902h0.012423l0.006902,-0.015184l0.022086,-0.006902l0.031748,0.005521l0.016564,0.011043v0.009663l-0.013804,0.008282v0.013804l0.008282,0.015184l-0.008282,0.012423l0.004141,0.005521l0.019325,-0.002761l0.042791,0.033129l0.027607,0.009663l0.011043,-0.012423l0.017945,-0.004141l0.016564,0.015184l0.019325,0.006902l0.015184,0.015184l0.022086,-0.00138l0.006902,-0.012423l-0.008282,-0.022086l0.011043,-0.017945l0.053834,-0.004141l0.031748,0.024847l0.009663,-0.002761l-0.004141,-0.009663l0.005521,-0.009663l0.017945,0.006902l0.005521,-0.008282l-0.020705,-0.015184l0.015184,-0.008282l0.017945,0.002761l0.009663,-0.005521l-0.024847,-0.008282l-0.024847,0.009663h-0.015184l-0.013804,0.004141l-0.019325,-0.002761l0.024847,-0.013804h0.015184l0.005521,-0.015184l-0.024847,-0.017945l0.008282,-0.012423l-0.009663,-0.005521l-0.016564,0.005521l-0.019325,-0.020705l-0.019325,-0.009663l-0.002761,-0.012423l-0.055215,-0.022086l-0.015184,0.002761l-0.009663,-0.002761l-0.00138,-0.016564l-0.013804,-0.011043l-0.013804,0.004141l-0.024847,-0.013804l-0.03727,-0.004141l-0.026227,-0.015184l-0.012423,-0.016564l-0.035889,-0.016564l-0.009663,-0.011043l-0.019325,-0.005521l0.019325,0.022086l0.042791,0.031748l0.011043,0.015184l-0.009663,0.017945l-0.015184,0.004141l-0.040031,-0.019325l-0.009663,-0.020705l-0.020705,-0.012423l-0.016564,-0.016564l-0.004141,0.002761l0.004141,0.009663l0.004141,0.012423l-0.009663,0.006902l-0.035889,-0.005521l-0.017945,0.002761l-0.044172,-0.012423l-0.017945,0.005521l-0.016564,-0.002761l-0.011043,0.006902l-0.008282,0.031748l-0.012423,0.00138l-0.006902,-0.015184l-0.019325,-0.004141l-0.012423,0.016564l-0.066258,0.004141l-0.020705,0.011043l-0.012423,0.019325l-0.019325,0.002761l-0.002761,0.009663l0.034509,0.020705Z  M401.853887,381.886404l0.008282,0.005521l-0.002761,0.009663l-0.011043,-0.002761l-0.004141,-0.009663l0.009663,-0.002761Z M402.637934,380.310026l0.017945,0.012423l0.008282,0.016564l0.013804,0.009663l0.009663,0.016564l0.012423,0.004141l0.026227,-0.013804l0.027607,0.004141l0.004141,0.012423h0.006902l0.005521,-0.008282l0.030368,-0.004141l0.006902,0.009663l0.009663,0.006902l0.019325,-0.004141l0.020705,0.011043l0.031748,0.008282l0.03727,-0.002761l0.053834,0.006902l0.03727,0.011043l0.004141,0.017945l0.004141,0.002761l0.019325,0.00138l0.046932,0.031748l0.015184,0.005521l0.009663,0.013804l0.031748,0.024847l0.017945,-0.004141l0.008282,-0.016564l-0.011043,-0.041411l-0.027607,-0.040031l-0.015184,-0.009663l-0.030368,-0.045552l-0.009663,-0.008282l-0.013804,-0.002761l-0.011043,-0.008282l-0.004141,-0.013804l-0.011043,-0.008282l-0.011043,0.002761l-0.011043,-0.005521l-0.008282,-0.012423l-0.071779,-0.024847l-0.024847,0.005521l-0.013804,0.022086l-0.017945,0.004141l-0.028988,-0.012423l-0.017945,-0.002761l-0.011043,0.009663h-0.022086l-0.015184,-0.013804l-0.033129,-0.011043l-0.026227,0.00138l-0.017945,0.012423l-0.03727,0.004141l-0.015184,-0.006902l-0.013804,0.002761l-0.012423,0.015184l0.006902,0.013804Z M402.080267,381.775974l0.015184,-0.005521v-0.011043l-0.016564,-0.004141l-0.008282,0.012423l0.009663,0.008282Z M402.494376,381.575821l0.009663,-0.005521l0.006902,-0.017945l-0.009663,-0.008282l-0.011043,0.005521l-0.002761,0.019325l0.006902,0.006902Z M401.848365,381.98579l0.008282,0.008282l0.034509,-0.012423l0.017945,0.006902l0.006902,-0.008282l-0.009663,-0.013804l0.033129,-0.023466l0.030368,0.009663l0.016564,-0.004141l-0.002761,-0.019325l-0.048313,-0.002761l-0.026227,0.011043l-0.034509,-0.008282l-0.004141,0.005521l0.019325,0.013804l0.00138,0.009663l-0.015184,0.008282l-0.013804,-0.012423l-0.005521,0.002761v0.017945l-0.008282,0.011043Z M402.197598,381.752508l0.015184,-0.006902l0.008282,0.017945l0.012423,0.008282l0.005521,-0.006902l-0.009663,-0.012423v-0.012423l0.012423,-0.006902l0.002761,-0.011043l-0.026227,0.00138l-0.022086,0.011043l-0.008282,0.015184l0.009663,0.002761Z M402.465388,381.636558l0.005521,0.009663l0.011043,-0.008282l0.00138,-0.011043l-0.011043,0.00138l-0.006902,0.008282Z M401.902199,381.816005l0.020705,0.015184l0.019325,-0.00138l0.023466,0.006902l0.041411,-0.017945l0.024847,0.002761l0.015184,0.015184l0.008282,0.031748l-0.009663,0.015184l0.005521,0.016564l0.024847,0.006902l0.011043,-0.009663l-0.011043,-0.019325l-0.004141,-0.041411l0.005521,-0.03865l-0.008282,-0.004141l-0.011043,0.006902l-0.020705,-0.009663l-0.023466,-0.019325l-0.004141,0.005521l0.009663,0.016564l-0.004141,0.009663l-0.022086,0.002761l-0.015184,-0.013804l-0.027607,0.002761l-0.012423,0.015184l-0.020705,-0.002761l-0.015184,0.008282Z M402.279039,381.726281l0.002761,0.023466l0.041411,0.011043l0.004141,-0.015184l-0.009663,-0.013804h-0.019325l-0.006902,-0.009663l0.009663,-0.019325v-0.012423l-0.016564,-0.009663l-0.009663,-0.012423l-0.005521,0.002761v0.017945l-0.009663,0.016564l0.019325,0.020705Z M402.385327,381.677969l0.011043,0.019325l0.027607,0.00138l0.00138,-0.009663l-0.013804,-0.008282v-0.009663l0.016564,-0.006902l0.004141,-0.009663l-0.027607,-0.00138l-0.048313,0.023466l-0.004141,0.011043l0.033129,-0.009663Z M402.686274,381.199036l0.003464,0.010393l0.012126,0.003464l0.017322,-0.008661l0.010393,-0.022519l-0.013858,-0.003464l-0.013858,0.012126l-0.01559,0.008661Z M402.831781,381.136676l0.010393,0.012126l0.020787,-0.017322l-0.006929,-0.013858l-0.020787,0.003464l-0.003464,0.01559Z M402.800601,381.223287l0.013858,0.008661l0.022519,-0.005197l0.001732,-0.010393l-0.022519,-0.008661l-0.010393,-0.019054l-0.017322,-0.006929l-0.001732,0.017322l0.013858,0.024251Z M402.831781,381.200768l0.013858,0.005197l0.012126,-0.010393l-0.006929,-0.008661l-0.010393,0.001732l-0.008661,0.012126Z M402.055745,381.37399l0.01559,0.001732l0.008661,-0.020787l0.022519,-0.012126l-0.001732,-0.017322l-0.020787,-0.013858l-0.020787,0.006929l-0.017322,-0.006929l-0.003464,-0.027716l-0.017322,-0.006929l-0.013858,0.012126l0.019054,0.012126l0.001732,0.017322l-0.022519,0.017322l0.008661,0.008661l0.022519,-0.001732l0.019054,0.03118Z M402.151017,381.406903l0.012126,0.008661l0.003464,-0.012126l-0.005197,-0.013858l-0.013858,0.001732l0.003464,0.01559Z M402.468014,381.275254h0.017322l0.005197,-0.012126l-0.01559,-0.006929l-0.01559,0.006929l0.008661,0.012126Z M402.419512,381.315095l0.008661,-0.005197v-0.012126l-0.010393,-0.001732l-0.006929,0.013858l0.008661,0.005197Z M402.461085,381.323756l0.013858,-0.008661l0.025983,-0.001732l0.003464,-0.008661l-0.029448,-0.006929h-0.012126l-0.008661,0.019054l0.006929,0.006929Z M402.556357,381.219823l0.01559,-0.001732l0.003464,-0.010393l-0.017322,-0.003464l-0.008661,0.006929l0.006929,0.008661Z M401.035465,381.526426l0.012126,-0.013858l-0.005197,-0.012126l-0.019054,0.006929l-0.003464,0.01559l0.01559,0.003464Z M401.388839,381.701381l0.027716,-0.006929l0.017322,0.008661l0.010393,-0.001732l0.001732,-0.013858l0.048502,-0.019054l-0.01559,-0.003464l-0.029448,0.008661h-0.032912l-0.038109,0.019054l0.010393,0.008661Z M401.097825,381.477924l0.025983,0.001732l0.012126,-0.012126l-0.020787,-0.041573l-0.01559,-0.001732l-0.008661,0.012126l0.012126,0.020787l-0.005197,0.020787Z M401.499701,381.429422l0.024251,-0.003464l0.008661,-0.012126l-0.032912,-0.013858l-0.019054,0.005197l0.001732,0.019054l0.017322,0.005197Z M401.544739,381.496978l0.010393,-0.006929l-0.006929,-0.012126l-0.013858,0.001732l-0.001732,0.01559l0.012126,0.001732Z M401.517023,381.711774l0.020787,-0.003464l-0.003464,-0.013858l-0.017322,-0.001732l-0.017322,0.012126l0.017322,0.006929Z M401.271048,381.453673l0.005197,0.013858l0.025983,0.008661l0.025983,-0.001732l0.017322,-0.010393l0.01559,0.005197l0.008661,0.012126l0.010393,0.001732l0.005197,-0.022519h0.010393l0.008661,0.020787l0.045038,0.013858l0.017322,-0.008661l-0.005197,-0.012126l0.008661,-0.005197l0.017322,0.017322l0.01559,-0.008661l-0.005197,-0.020787l-0.013858,-0.001732l-0.012126,-0.013858l-0.005197,-0.020787l-0.036377,-0.012126l-0.064092,-0.001732l-0.025983,0.03118l-0.034644,0.012126l-0.034644,0.003464Z M402.178733,381.406903l0.01559,-0.003464l0.027716,-0.027716l-0.006929,-0.019054l-0.01559,-0.005197v-0.017322l0.020787,-0.039841l-0.019054,-0.020787l0.008661,-0.012126l-0.012126,-0.012126l-0.022519,0.013858l-0.001732,0.01559l0.006929,0.038109l0.005197,0.038109l-0.010393,0.022519l0.003464,0.029448Z M402.249754,381.370526l0.017322,0.005197l0.024251,-0.001732l0.020787,-0.010393l0.005197,-0.012126l-0.034644,-0.003464l-0.027716,0.010393l-0.013858,-0.003464l-0.012126,0.005197l0.003464,0.010393h0.017322Z M402.519981,381.521229l0.012126,0.010393l0.013858,-0.01559l0.020787,-0.006929l0.024251,0.005197l0.013858,-0.008661l-0.005197,-0.017322l-0.017322,-0.012126l0.012126,-0.067557l0.01559,-0.017322l0.043306,-0.029448l0.07795,0.003464l0.012126,-0.013858l-0.017322,-0.01559l0.010393,-0.036377l0.020787,-0.003464l0.020787,0.017322l0.01559,-0.001732l0.013858,-0.013858l0.034644,-0.001732l0.01559,-0.010393l0.003464,-0.01559l0.027716,-0.010393l0.029448,0.006929l0.039841,-0.01559l0.034644,-0.025983l-0.019054,-0.005197l-0.060628,0.008661l-0.036377,0.022519l-0.006929,-0.001732l0.010393,-0.019054l-0.006929,-0.005197l-0.029448,0.013858l0.001732,0.022519l-0.012126,0.006929l-0.065824,0.010393l-0.01559,-0.008661l0.013858,-0.01559l-0.01559,-0.010393l-0.025983,0.001732l-0.010393,-0.01559l-0.025983,-0.010393l-0.053699,0.003464l-0.003464,0.008661l0.017322,0.012126l-0.01559,0.074486l0.003464,0.038109l-0.029448,0.019054l-0.022519,-0.001732l-0.043306,0.01559l-0.005197,0.01559l0.01559,0.022519l-0.006929,0.024251l-0.012126,0.010393l-0.012126,0.058896Z M402.091309,381.520607l0.005521,0.020705l0.016564,0.004141l0.00138,-0.008282l-0.008282,-0.006902l-0.008282,-0.011043l-0.006902,0.00138Z M402.117536,381.439165l0.011043,0.020705l0.024847,0.016564l0.041411,-0.00138l0.028988,0.019325l0.005521,0.027607h0.012423l0.022086,-0.020705l-0.00138,-0.028988l-0.041411,-0.035889l-0.011043,0.002761l-0.012423,0.015184l-0.008282,-0.004141l0.00138,-0.015184l-0.017945,-0.004141l-0.020705,0.019325l-0.012423,-0.005521l-0.004141,-0.017945l-0.013804,-0.00138l-0.004141,0.013804Z M401.547446,381.677969l0.042791,0.00138l0.046932,-0.011043l0.019325,0.00138l0.005521,0.013804l0.016564,0.015184l0.033129,-0.00138l0.009663,-0.015184l0.035889,-0.023466l0.023466,0.00138l0.022086,-0.009663l0.016564,-0.002761l0.009663,-0.012423v-0.016564l-0.009663,-0.015184l0.004141,-0.013804l0.008282,-0.00138l0.00138,0.011043l0.008282,0.009663h0.033129l0.017945,-0.005521l0.011043,-0.016564l0.00138,-0.012423l-0.015184,-0.002761l-0.005521,-0.016564l0.011043,-0.011043l-0.002761,-0.011043l0.011043,-0.012423l0.020705,0.012423l0.012423,0.022086l0.041411,0.024847h0.015184l0.00138,-0.012423l0.012423,-0.00138l0.006902,0.009663l0.019325,-0.004141l0.044172,-0.03865l0.00138,-0.023466l-0.011043,-0.005521l0.002761,-0.019325l0.019325,-0.009663l0.023466,0.004141l0.006902,-0.012423l-0.015184,-0.024847l-0.004141,-0.03727l-0.023466,-0.009663l-0.031748,0.008282l-0.011043,0.016564l-0.024847,0.013804l-0.013804,-0.006902l-0.008282,0.002761l-0.00138,0.015184l-0.031748,-0.00138l-0.012423,-0.015184l-0.00138,-0.013804h-0.006902l-0.009663,0.017945l-0.041411,0.005521l-0.056595,-0.008282l-0.013804,-0.008282l-0.023466,-0.00138l-0.005521,0.011043l-0.009663,0.006902l-0.016564,-0.002761l-0.004141,0.006902l0.016564,0.005521l0.002761,0.016564l-0.012423,0.008282l-0.027607,-0.016564l-0.005521,0.004141l-0.00138,0.011043l-0.016564,0.013804l0.00138,0.024847l0.020705,0.002761l0.006902,0.009663l-0.008282,0.017945l-0.023466,0.013804l-0.017945,0.00138l-0.008282,0.011043l0.005521,0.012423l-0.015184,0.033129l-0.024847,0.023466l-0.044172,0.004141l-0.016564,-0.008282l-0.013804,0.005521l-0.004141,0.016564l-0.046932,0.012423l-0.006902,0.009663l0.034509,0.002761Z M401.552967,381.694533l-0.00138,0.009663l0.023466,0.002761l0.023466,-0.002761l0.005521,-0.015184l-0.024847,-0.002761l-0.026227,0.008282Z "/>
</svg>
