<svg xmlns="http://www.w3.org/2000/svg" viewBox="1020.126 362.287 27.209 57.069">
  <path d="M1027.057192,413.633981l0.028758,0.036601l0.023529,0.002614l-0.002614,-0.039216l-0.013072,-0.04183l-0.028758,-0.002614l-0.007843,0.026144v0.018301Z M1026.414056,412.117645l0.015686,0.019608l0.052941,0.166666l0.023529,0.017647l0.031372,-0.003922l0.039216,0.015686l0.021569,0.031372l0.018301,0.011765l0.037908,0.002614l0.036601,0.006536l0.023529,0.018301l0.035294,0.064052l0.019608,0.026144l0.031372,0.020915l0.033987,0.054902l0.037908,0.11634l0.07647,0.331372l0.023529,0.213725l0.023529,0.054902l0.029412,0.029412l0.009804,0.052941l0.017647,0.039216l0.027451,0.001961l0.011765,-0.017647l0.043137,0.001961l0.043137,0.02549l0.011765,-0.007843l-0.052941,-0.070588l-0.001961,-0.019608l0.019608,-0.023529v-0.041176l0.015686,-0.027451l-0.001307,-0.026797l-0.065359,-0.039216v-0.023529l0.031372,-0.104575l0.005229,-0.075817l0.010457,-0.033987l0.033987,-0.039216l0.026144,-0.117647l0.033987,-0.078431l0.033987,-0.026144l0.039216,-0.075817l0.002614,-0.081046l-0.015686,-0.062745v-0.04183l0.010457,-0.047059l0.005229,-0.060131l-0.023529,-0.075817v-0.044444l0.013072,-0.044444l-0.005229,-0.067974l-0.138562,-0.151634l-0.073202,-0.036601l-0.054902,-0.075817l-0.081046,-0.002614l-0.036601,0.039216l-0.007843,0.067974l-0.026144,0.039216l-0.047059,0.015686l-0.031372,0.031372l-0.013072,0.067974l-0.060131,0.052287h-0.054902l-0.156862,-0.049673l-0.088889,0.002614l-0.024837,0.029412l0.003922,0.02549Z M1027.000756,413.739384l0.003167,0.011774l0.016158,-0.002111v-0.012423l-0.011043,-0.006902l-0.008282,0.009663Z M1026.969686,413.788649l0.012416,0.001373l0.001159,-0.014856l-0.01815,-0.010707l-0.007581,0.011729l0.012156,0.012461Z M1028.223059,412.412016l0.013899,-0.010425l-0.005212,-0.012162l-0.019112,0.005212l-0.003475,0.013899l0.013899,0.003475Z M1028.285228,412.374168l-0.005031,-0.011483l-0.012176,0.003832l-0.005439,0.012732l0.01204,0.00424l0.010606,-0.009321Z M1027.031846,413.469957l0.013845,-0.005538v-0.013845l-0.012461,-0.011076l-0.012461,0.008307l0.001385,0.013845l0.009692,0.008307Z M1027.054739,413.522091l0.016609,0.021592l0.019931,0.003322l0.006644,-0.014948l-0.019931,-0.019931l-0.016609,-0.004983l-0.006644,0.014948Z M1028.212742,412.298144l0.014583,0.004167l0.016667,-0.00625l0.001042,-0.011458l-0.011458,-0.010417l-0.01875,0.002083l-0.005208,0.010417l0.003125,0.011458Z M1030.101974,413.657406l-0.019038,-0.018992l-0.002876,-0.029663l0.021421,-0.033637l0.034164,-0.000278l0.010609,0.030127l-0.019287,0.03687l-0.024993,0.015573Z M1028.430695,414.573958l-0.002426,-0.016494l0.008576,-0.010414l0.013391,0.014388l0.001586,0.016269l-0.008908,0.010616l-0.012221,-0.014365Z M1036.271614,414.072086l-0.017071,-0.015723l-0.001814,-0.008846l0.011035,-0.002873l0.01984,0.020519l0.000556,0.009271l-0.012547,-0.002348Z M1036.435284,418.241783l0.015056,-0.003596l0.01508,0.008771l0.007645,0.013406l-0.020128,0.006077l-0.015837,-0.011723l-0.001817,-0.012934Z M1036.435284,418.241783l0.015056,-0.003596l0.01508,0.008771l0.007645,0.013406l-0.020128,0.006077l-0.015837,-0.011723l-0.001817,-0.012934Z M1028.941353,412.895601l0.013449,-0.001582l0.008282,0.012423l-0.006731,0.012982l-0.016765,0.000882l-0.007059,-0.013235l0.008824,-0.011471Z M1028.848202,413.06771l0.010013,-0.011805l0.017528,-0.00267l0.004054,0.01513l-0.013289,0.014709l-0.018035,0.000778l-0.000272,-0.016144Z M1028.952071,417.35303l0.012776,0.002717l0.013924,0.018015l-0.002243,0.014077l-0.008002,0.00635l-0.012781,-0.018922l-0.003673,-0.022237Z M1028.313657,414.482249h0.013899l0.005212,0.012162l-0.00695,0.012162l-0.012162,-0.00695v-0.017374Z M1027.055946,413.728984l0.010648,-0.008934l0.01181,0.005966l0.002494,0.013784l-0.013784,0.002494l-0.011168,-0.013309Z M1028.910386,413.087134l0.012215,-0.004828l0.006778,0.012386l-0.001024,0.011703l-0.015056,0.003596l-0.008009,-0.009545l0.005096,-0.013312Z M1027.352319,414.030612l0.004154,-0.012461l0.013845,0.002769l0.008307,0.008307l-0.006923,0.013845h-0.012461l-0.006923,-0.012461Z M1028.967505,412.783995l0.012183,-0.002961l0.013134,0.015846l0.004381,0.016086l-0.002951,0.020228l-0.01455,-0.003544l-0.013374,-0.0246l0.001177,-0.021055Z M1028.506834,414.727442l-0.012031,-0.003527l-0.003452,-0.020291l0.004248,-0.016121l0.01267,-0.016042l0.010829,0.010345l-0.000718,0.027991l-0.011547,0.017646Z M1028.494702,414.806449l0.009753,0.000853l0.007839,0.011496l-0.002255,0.014544l-0.013995,0.002707l-0.008899,-0.010606l0.007558,-0.018993Z M1036.771822,418.540785l-0.002769,-0.016614l0.009692,-0.012461h0.012461l0.004154,0.01523l-0.011076,0.011076l-0.012461,0.002769Z M1028.47559,414.654048l-0.014507,-0.008558l-0.003316,-0.015434l0.008009,-0.009545l0.014336,0.006608l0.001365,0.015604l-0.005888,0.011325Z M1029.129778,412.894366l0.013004,-0.010705l0.015637,0.002163l0.00623,0.010791l-0.011112,0.011212l-0.01513,-0.004054l-0.008628,-0.009407Z M1025.244016,415.981624l0.016875,-0.003989l0.027226,0.007295l0.001721,0.016267l-0.018921,0.007089l-0.02518,-0.010394l-0.001721,-0.016267Z M1037.316253,412.680517l0.013463,-0.019397l0.025016,0.007651l0.021287,0.025875l-0.008176,0.033769l-0.017506,-0.001051l-0.022267,-0.024177l-0.011816,-0.022671Z M1037.316253,412.680517l0.013463,-0.019397l0.025016,0.007651l0.021287,0.025875l-0.008176,0.033769l-0.017506,-0.001051l-0.022267,-0.024177l-0.011816,-0.022671Z M1029.041984,413.364774l0.019285,-0.013622l0.020891,0.015745l0.011154,0.031595l-0.019233,0.028936l-0.016091,-0.006975l-0.012656,-0.030335l-0.00335,-0.025345Z M1036.398194,414.205526l0.019164,0.007049l0.022222,0.03849l-0.005742,0.021428l-0.018463,0.004622l-0.014379,-0.024905l-0.008894,-0.031091l0.006092,-0.015592Z M1025.291984,415.950407l0.004167,-0.011458l0.015625,-0.005208l0.010417,0.005208l0.003125,0.014583l-0.010417,0.008333l-0.014583,-0.001042l-0.008333,-0.010417Z M1030.167716,419.351792l-0.004632,-0.010685l0.010456,-0.015702l0.015345,-0.002082l0.008108,0.008163l-0.005925,0.016785l-0.012566,0.008493l-0.010786,-0.004971Z M1029.03399,412.974579l0.010417,0.005208l0.002083,0.01875l-0.010417,0.011458l-0.011458,-0.001042l-0.00625,-0.016667l0.004167,-0.014583l0.011458,-0.003125Z M1037.160805,418.275033l0.010161,0.00648l0.005243,0.019992l-0.014862,0.029368l-0.011168,0.000108l-0.008373,-0.011394l0.005704,-0.027137l0.013295,-0.017418Z M1029.305307,414.221816l-0.006644,-0.029896l0.026574,-0.043183l0.05647,-0.023253l0.063114,0.016609l0.003322,0.029896l-0.023253,0.043183l-0.076401,0.013287l-0.043183,-0.006644Z M1028.330361,414.557317l0.009965,-0.004983l0.014948,0.028235v0.024913l-0.008304,0.019931l-0.001661,0.048166l0.014948,0.044844l-0.008304,0.006644l-0.038201,-0.01827l-0.013287,-0.033218l0.006644,-0.039862l0.024913,-0.028235l0.001661,-0.029896l-0.003322,-0.01827Z M1025.023517,416.036622v-0.019931l0.035432,-0.031003l0.086367,-0.008858l0.04872,0.008858l0.002215,0.02436l-0.050934,0.064221l-0.028789,0.019931l-0.031003,-0.011073l-0.004429,-0.028789l-0.015502,-0.011073l-0.042076,-0.006644Z M1030.059354,419.275923v-0.026574l0.041522,-0.053149l0.021592,-0.013287l0.011626,0.001661l0.006644,0.031557l-0.01827,0.053149l-0.01827,0.013287h-0.026574l-0.01827,-0.006644Z M1036.872351,418.370735l0.013287,-0.019931l0.026574,-0.006644l0.026574,0.013287l0.003322,0.03654l-0.013287,0.016609l-0.03654,-0.006644l-0.019931,-0.033218Z M1036.988614,418.403953l-0.009965,-0.029896l0.03654,-0.019931l0.026574,0.006644v0.026574l-0.019931,0.019931l-0.033218,-0.003322Z M1036.427231,418.41724l0.019931,-0.009965l0.033218,0.006644l0.053149,0.049827l-0.003322,0.016609l-0.029896,0.006644l-0.05647,-0.026574l-0.016609,-0.043183Z M1036.516919,418.374057l0.006644,-0.049827l0.112941,-0.159446l0.176055,-0.112941l0.069758,-0.003322l0.009965,0.019931l-0.03654,0.066436l-0.043183,0.043183l-0.003322,0.043183l0.029896,0.039862l-0.023253,0.016609l-0.066436,-0.006644l-0.063114,0.03654l-0.026574,0.063114l-0.003322,0.033218l0.026574,0.04872l-0.006644,0.017716l-0.037647,0.004429l-0.077508,-0.028789l-0.044291,-0.071972Z M1034.71839,414.3677l0.014056,-0.012048l0.06225,0.028113l0.222894,0.234943l0.2992,0.2992l0.164661,0.098395l0.020081,0.06225l-0.032129,0.138556l-0.06225,0.086346l-0.07229,0.040161h-0.038153l-0.030121,-0.034137l-0.024097,-0.088354l-0.136548,-0.234943l-0.1245,-0.164661l-0.104419,-0.112451l-0.064258,-0.110443l-0.060242,-0.166669l-0.034137,-0.064258Z M1033.947297,413.517288l0.112953,0.061748l0.117471,0.106929l0.088857,0.118977l0.001506,0.021085l-0.183737,-0.140062l-0.111447,-0.060242l-0.091869,-0.08735l-0.013554,-0.034639l0.009036,-0.006024l0.027109,0.010542l0.043675,0.009036Z M1034.632044,414.277337l-0.036145,-0.014056l-0.038153,-0.052209l-0.004016,-0.018073l0.022089,0.006024l0.042169,0.042169l0.014056,0.036145Z M1036.170215,415.161886l-0.048193,-0.00753l-0.06476,0.004518l-0.05723,0.018073l-0.084338,0.004518l-0.046687,0.021085l-0.042169,0.003012l-0.025603,-0.01506l-0.021085,-0.054218l-0.037651,-0.046687l-0.109941,-0.085844l-0.191267,-0.103917l-0.134038,-0.094881l-0.215364,-0.182231l-0.191267,-0.198798l-0.024097,-0.046687l-0.037651,-0.030121l-0.088857,-0.043675l-0.058736,-0.052711l-0.242473,-0.29669l-0.045181,-0.099399l-0.05723,-0.067772l-0.256027,-0.21687l-0.117471,-0.06476l-0.061748,-0.013554l-0.082832,-0.036145l-0.05723,-0.051205l-0.036145,-0.085844l-0.039157,-0.051205l-0.103917,-0.08735l-0.355426,-0.230425l-0.088857,-0.07982l-0.106929,-0.132532l-0.043675,-0.115965l-0.188255,-0.185243l-0.194279,-0.141568l-0.114459,-0.117471l-0.100905,-0.146086l-0.00753,-0.060242l0.021085,-0.097893l-0.021085,-0.027109l-0.028615,-0.009036l-0.075302,0.00753l-0.076808,-0.024097l-0.132532,-0.114459l-0.07982,-0.093375l-0.045181,-0.117471l0.006024,-0.025603l0.108435,-0.081326l0.024097,-0.038153l-0.006024,-0.048193l-0.088354,-0.232935l0.004016,-0.114459l0.030121,-0.106427l0.022089,-0.004016l0.042169,0.068274l0.076306,0.220886l0.120483,0.228918l0.066266,0.074298l0.114459,0.070282l0.024097,0.030121l0.028113,0.004016l0.044177,-0.020081l0.102411,-0.004016l0.074298,0.054218l0.070282,0.140564l0.030121,0.202814l0.044177,0.036145l0.088354,0.014056l0.096387,-0.006024l0.112451,0.018073l0.14458,0.042169l0.076306,0.068274l0.032129,0.066266l0.048193,0.054218l0.052209,0.146588l0.068274,0.068274l0.06225,0.020081l0.048193,-0.008032l0.058234,-0.040161l0.092371,0.002008l0.086346,0.028113l0.044177,0.040161l0.044177,0.01004l0.114459,-0.004016l0.054218,0.018073l0.026105,0.030121l0.056226,0.012048l0.084338,-0.014056l0.088354,0.008032l0.148596,0.048193l0.178717,0.026105l0.08233,0.040161l0.168677,0.180725l0.014056,0.080322l0.040161,0.098395l0.204822,0.21687l0.118475,0.056226l0.166669,0.138556l0.522095,0.524103l0.162653,0.186749l0.052209,0.040161l0.020081,0.034137l-0.002008,0.098395l0.028113,0.042169l0.126508,0.084338l0.034137,0.050201l-0.002008,0.088354l0.030121,0.058234v0.120483l-0.080322,0.158636l-0.054218,0.074298l-0.038153,0.084338l-0.138054,0.099901l-0.082832,0.00753Z M1034.165673,413.773315l0.115965,0.07982l0.043675,0.049699l-0.004518,0.010542l-0.108435,-0.066266l-0.048193,-0.045181l-0.01506,-0.028615h0.016566Z M1034.27712,413.753737l0.08735,0.085844l0.042169,0.061748l-0.003012,0.012048l-0.027109,-0.010542l-0.100905,-0.114459l-0.021085,-0.043675l0.022591,0.009036Z M1032.341855,411.981125l-0.054218,-0.052711l-0.025603,-0.043675l0.01506,-0.013554l0.055724,-0.001506l0.046687,0.042169l0.001506,0.034639l-0.010542,0.034639h-0.028615Z M1032.537641,411.46907l0.027109,-0.010542l0.067772,0.010542l0.012048,0.009036l-0.00753,0.010542l-0.07982,0.001506l-0.019579,-0.021085Z M1032.8765,411.863653l0.037651,0.028615l0.016566,0.037651l-0.009036,0.004518l-0.031627,-0.012048l-0.024097,-0.021085l-0.00753,-0.036145l0.018073,-0.001506Z M1032.927706,411.88022l0.010542,-0.01506l0.028615,0.003012l0.046687,0.034639l0.012048,0.025603l-0.009036,0.009036l-0.043675,0.001506l-0.027109,-0.027109l-0.018073,-0.031627Z M1034.640076,412.562457l-0.022591,-0.01506l0.001506,-0.018073l0.022591,-0.006024l0.051205,0.006024l0.039157,0.022591l-0.001506,0.009036l-0.049699,0.00753l-0.040663,-0.006024Z M1034.762066,412.425407l-0.036145,0.009036l-0.05723,-0.01506l-0.081326,-0.051205l-0.069278,-0.06476l0.001506,-0.013554l0.034639,-0.003012l0.084338,0.027109l0.118977,0.088857l0.004518,0.022591Z M1035.713884,412.210043l0.046687,0.003012l-0.003012,0.012048l-0.176207,0.055724l-0.043675,0.001506l-0.006024,-0.012048l0.024097,-0.016566l0.158134,-0.043675Z M1036.856971,412.598602l0.034639,0.001506l0.055724,0.019579l0.018073,0.022591l-0.010542,0.006024l-0.051205,-0.016566l-0.043675,-0.021085l-0.003012,-0.012048Z M1036.137082,412.37119l0.00753,-0.012048l0.040663,-0.004518l0.052711,0.021085l0.085844,0.05723l-0.00753,0.00753l-0.090363,-0.013554l-0.06476,-0.030121l-0.024097,-0.025603Z M1036.236481,412.360647l0.003012,-0.012048l0.094881,0.010542l0.161147,0.052711l0.117471,0.018073l0.096387,0.001506l0.045181,0.010542l0.036145,0.018073l0.05723,0.003012l0.048193,-0.024097l0.033133,-0.037651h0.019579l0.058736,0.043675l0.061748,0.031627l0.100905,0.027109l0.022591,0.030121l-0.009036,0.082832l-0.027109,0.042169l-0.030121,0.01506l-0.036145,-0.003012l-0.176207,-0.103917l-0.081326,-0.012048h-0.075302l-0.305727,-0.078314l-0.06476,-0.028615l-0.05723,-0.039157l-0.093375,-0.048193Z M1035.816295,413.60012l-0.078314,-0.07229v-0.010542l0.019579,0.003012l0.037651,0.024097l0.022591,0.028615l0.00753,0.019579l-0.009036,0.00753Z M1035.855452,413.612169l0.010542,-0.004518l0.043675,0.019579l0.012048,0.018073v0.033133l-0.012048,0.001506l-0.040663,-0.033133l-0.013554,-0.034639Z M1035.963887,413.663374l0.15211,0.067772l0.070784,0.048193l0.121989,0.117471l0.045181,0.058736l0.078314,0.069278l0.006024,0.024097l-0.010542,0.028615l-0.022591,0.019579l-0.028615,-0.004518l-0.031627,-0.016566l-0.030121,-0.052711l-0.171689,-0.161147l-0.105423,-0.082832l-0.073796,-0.039157l-0.025603,-0.033133l0.003012,-0.037651l0.022591,-0.006024Z M1035.066286,412.780833l0.021085,0.01506l0.003012,0.01506l-0.012048,0.001506l-0.016566,-0.012048l-0.006024,-0.018073l0.010542,-0.001506Z M1035.094901,412.842581l0.013554,-0.003012l0.054218,0.027109l0.099399,0.103917l0.085844,0.132532l0.060242,0.06476l-0.001506,0.018073l-0.046687,-0.010542l-0.102411,-0.075302l-0.123495,-0.121989l-0.036145,-0.081326l-0.003012,-0.054218Z M1035.534665,413.295398l0.01004,-0.004016l0.048695,0.028615l0.045181,0.043675l0.006024,0.018073l-0.009036,0.006024l-0.043675,-0.019579l-0.043675,-0.042169l-0.013554,-0.030623Z M1036.888598,414.063981l-0.132532,0.147592l-0.048193,0.025603l-0.037651,-0.010542l-0.043675,-0.073796l-0.120483,-0.134038l-0.245485,-0.236449l-0.103917,-0.075302l-0.158134,-0.07229l-0.192773,-0.138556l-0.185243,-0.168677l-0.090363,-0.06476l-0.061748,-0.054218l-0.019579,-0.042169l-0.06476,-0.070784l-0.126508,-0.179219l-0.14458,-0.128014l-0.161147,-0.170183l-0.090363,-0.045181l-0.051205,-0.00753l-0.048193,-0.016566l-0.039157,-0.028615l-0.147592,-0.040663h-0.168677l-0.063254,0.019579h-0.045181l-0.039157,-0.013554l-0.052711,-0.050703l0.003012,-0.027109l0.056226,-0.06727l0.108435,-0.073294h0.018073l0.042169,0.023093l0.060242,0.070282l0.131528,0.068274l0.095383,0.027109l0.039157,0.001004l0.060242,-0.020081l0.056226,0.003012l0.078314,0.016064l0.084338,0.05723l0.070282,0.056226l0.069278,0.020081l0.06476,-0.001506l0.176207,-0.060242l0.081326,0.001506l0.112953,0.049699l0.051205,0.048193l0.045181,0.081326l0.039157,0.132532l0.093375,0.165665l0.210846,0.237955l0.176207,0.176207l0.105423,0.060242l0.120483,0.027109l0.076808,0.033133l0.117471,0.078314l0.109941,0.046687l0.08735,0.046687l0.039157,0.046687l0.028615,0.07229l0.045181,0.061748l-0.006024,0.031627l-0.066266,0.138556Z M1036.978458,413.244192l-0.023595,0.01255l-0.012048,0.037651l0.009036,0.046687l0.019579,0.024097v0.042169l-0.021085,0.037651l-0.049699,0.018073l-0.039157,0.048193l-0.036145,0.052711l-0.05723,0.013554l-0.112953,-0.033133l-0.108435,-0.055222l-0.101407,-0.079318l-0.069278,-0.030121l-0.142572,-0.044177l-0.107431,-0.095383l-0.043173,-0.080322l-0.113455,-0.118475l-0.153616,-0.223898l-0.014056,-0.058234l-0.023093,-0.043173l-0.08735,-0.095383l-0.058234,-0.06225l-0.064258,-0.047189l-0.07731,-0.027109l-0.106427,0.007028l-0.037149,0.033133l-0.08233,0.035141l-0.074298,0.002008l-0.064258,-0.020081l-0.137552,-0.090363l0.004518,-0.024097l0.155122,-0.07982l0.121989,-0.031627l0.132532,-0.016566l0.120483,0.00753l0.073796,-0.006024l0.138556,-0.043675l0.091869,-0.003012l0.06476,0.009036l0.12952,0.076808l0.090363,0.067772l0.177713,0.069278l0.365968,0.093375l0.180725,0.05723l0.140062,0.05723l0.236449,0.126508l0.07229,0.018073l0.021085,0.016566l0.004518,0.019579l0.046687,0.046687l0.013554,0.048193v0.067772l-0.019579,0.049699l-0.031627,0.025603l-0.024097,0.060242l-0.027109,0.019579l-0.045181,0.004518l-0.054218,0.037651l-0.039157,0.05723l-0.039157,0.022591l-0.081326,0.019579l-0.022591,-0.012048l-0.003012,-0.028615l0.025603,-0.030121l0.00502,-0.044679l-0.030121,-0.054218l-0.048193,-0.056226l-0.052209,-0.093375l-0.05723,-0.046185l-0.060242,-0.029117l-0.044177,-0.064258l-0.006024,0.011044l0.012048,0.050201l0.027109,0.028113l0.055222,0.026105l0.053214,0.043173l0.049197,0.08735l0.049197,0.051205l0.030121,0.044177l-0.001004,0.017068l-0.014056,0.020081Z M1035.778644,412.793384l0.01506,0.029117l-0.001004,0.022089l-0.007028,0.002008l-0.01506,-0.029117v-0.021085l0.008032,-0.003012Z M1035.808765,412.860653h0.009036l0.111447,0.159641l0.002008,0.024097l-0.011044,-0.002008l-0.06225,-0.065262l-0.040161,-0.06727l-0.009036,-0.049197Z M1035.966398,413.064471l0.08233,0.08233l0.01506,0.021085l-0.004016,0.01004l-0.024097,-0.01004l-0.054218,-0.048193l-0.022089,-0.047189l0.007028,-0.008032Z M1036.316803,413.420901l0.003012,-0.01004l0.029117,-0.002008l0.037149,0.012048l0.008032,0.016064l-0.011044,0.01004l-0.043173,-0.004016l-0.023093,-0.022089Z M1038.318836,411.73313l0.040161,-0.028113l0.090363,0.002008l0.100403,0.034137l0.020081,0.046185l-0.012048,0.040161l-0.066266,0.036145l-0.088354,-0.008032l-0.086346,-0.08233l0.002008,-0.040161Z M1045.458863,411.621446l-0.002088,0.02005l-0.017004,0.007216l-0.011066,-0.014919l0.006017,-0.013714l0.013635,-0.002404l0.010506,0.003771Z M1045.458863,411.621446l-0.002088,0.02005l-0.017004,0.007216l-0.011066,-0.014919l0.006017,-0.013714l0.013635,-0.002404l0.010506,0.003771Z M1044.917933,408.902677l0.002083,-0.0125l0.016667,-0.010417l0.01875,0.007292l-0.002083,0.017708l-0.015625,0.007292l-0.013542,-0.001042l-0.00625,-0.008333Z M1045.318921,411.397784l0.06225,0.012048l0.060242,0.096387l-0.002008,0.058234l-0.040161,0.028113l-0.06225,-0.018073l-0.040161,-0.060242l-0.006024,-0.094379l0.028113,-0.022089Z M1046.407901,406.838244l-0.017335,0.00484l-0.017812,-0.012614l-0.002485,-0.027006l0.015213,-0.002599l0.01805,0.02134l0.004368,0.016038Z M1046.397885,406.637549l0.00548,-0.027202l0.049295,-0.029463l0.047344,0.002145l0.00856,0.025973l-0.033695,0.028098l-0.054355,0.016545l-0.022629,-0.016097Z M1046.760706,403.726004l0.008032,-0.041165l0.055222,-0.032129l0.056226,0.008032l0.043173,0.023093l0.032129,0.001004l0.040161,-0.007028l0.061246,0.037149l0.022089,0.075302l0.034137,0.046185l0.021085,0.070282l0.028113,0.032129l-0.004016,0.021085l-0.034137,0.007028l-0.054218,-0.021085l-0.111447,-0.102411l-0.047189,-0.019077l-0.019077,-0.019077l-0.00502,-0.026105l-0.034137,-0.020081l-0.066266,-0.009036l-0.026105,-0.024097Z M1046.498655,405.194897l0.009036,-0.019579l0.033133,-0.00753l0.031627,0.019579l0.043675,-0.004518l0.049699,-0.021085l0.073796,0.003012l0.019579,0.030121l0.024097,0.003012l0.028615,-0.013554l0.036145,0.016566l0.024097,0.082832l-0.021085,0.036145l-0.048193,0.004518l-0.052711,-0.021085l-0.018073,0.003012l-0.012048,0.031627l-0.043675,0.003012l-0.055724,-0.051205l-0.058736,-0.034639l-0.063254,-0.060242Z M1043.811875,391.220329l-0.013554,-0.042169l-0.030121,-0.022591l-0.027109,-0.001506l-0.010542,-0.016566l0.018073,-0.052711l0.030121,-0.010542l0.027109,0.010542l0.006024,0.025603l0.034639,0.031627l0.043675,0.009036l0.031627,0.036145l-0.00753,0.090363l-0.016566,0.006024l-0.085844,-0.063254Z M1043.066384,391.504971l0.006024,-0.01506l0.06476,0.021085l0.048193,0.036145l-0.001506,0.021085l-0.019579,0.013554l-0.028615,-0.010542l-0.037651,-0.042169l-0.031627,-0.024097Z M1043.671403,391.246286l-0.00993,-0.009687l0.005927,-0.024265l0.025929,-0.01508l0.006928,0.010404l-0.009734,0.021453l-0.01912,0.017174Z M1039.469247,386.566857l0.005079,0.026265l-0.017914,0.015032l-0.031665,-0.017525l-0.003409,-0.024274l0.027226,-0.016061l0.020683,0.016564Z M1043.532304,391.107332l0.005521,-0.017945l0.028988,-0.00138l0.016564,0.016564l-0.008282,0.016564h-0.020705l-0.022086,-0.013804Z M1045.904068,393.156012l0.014373,-0.004206l0.011667,0.009789l-0.002877,0.012045l-0.014202,0.006156l-0.013617,-0.009619l0.004657,-0.014166Z M1045.904068,393.156012l0.014373,-0.004206l0.011667,0.009789l-0.002877,0.012045l-0.014202,0.006156l-0.013617,-0.009619l0.004657,-0.014166Z M1045.988575,393.353409l0.003922,-0.031372l0.062745,-0.011765l0.058823,0.031372l0.011765,0.031372l-0.027451,0.015686l-0.058823,-0.003922l-0.05098,-0.031372Z M1043.908413,391.371825l-0.011034,-0.006233l-0.004088,-0.019224l0.013265,-0.015125l0.015928,0.008014l0.001508,0.017177l-0.00561,0.012369l-0.009968,0.003023Z M1043.908413,391.371825l-0.011034,-0.006233l-0.004088,-0.019224l0.013265,-0.015125l0.015928,0.008014l0.001508,0.017177l-0.00561,0.012369l-0.009968,0.003023Z M1046.949309,399.986801l0.000243,0.024884l-0.029128,0.004726l-0.026901,-0.041622l0.00329,-0.03939l0.017688,-0.007907l0.034808,0.05931Z M1046.739644,405.409171l0.000799,-0.024484l0.025387,-0.004318l0.034621,0.01314l0.000103,0.019367l-0.01776,0.01094l-0.04315,-0.014644Z M1046.834324,405.853388l0.013858,0.013858l-0.00129,0.018627l-0.016614,0.005538l-0.017286,-0.017415l0.003441,-0.014429l0.017891,-0.006179Z M1047.00139,404.64455l0.013354,-0.003756l0.01805,0.017265l0.000095,0.029995l-0.012474,0.000798l-0.013712,-0.019157l-0.005313,-0.025145Z M1047.00139,404.64455l0.013354,-0.003756l0.01805,0.017265l0.000095,0.029995l-0.012474,0.000798l-0.013712,-0.019157l-0.005313,-0.025145Z M1046.514911,404.571163l-0.002286,0.020662l-0.025206,0.0048l-0.022362,-0.025446l0.00691,-0.02125l0.022725,-0.004756l0.020219,0.02599Z M1046.514911,404.571163l-0.002286,0.020662l-0.025206,0.0048l-0.022362,-0.025446l0.00691,-0.02125l0.022725,-0.004756l0.020219,0.02599Z M1046.758273,403.332152l0.011641,0.003811l-0.005015,0.018464l-0.021472,0.012044l-0.007326,-0.008328l0.007021,-0.019869l0.015151,-0.006123Z M1046.758273,403.332152l0.011641,0.003811l-0.005015,0.018464l-0.021472,0.012044l-0.007326,-0.008328l0.007021,-0.019869l0.015151,-0.006123Z M1046.865366,401.235551l0.007059,-0.008824l0.020294,0.004412l0.007649,0.016407l-0.006929,0.008661l-0.023661,-0.006539l-0.004412,-0.014118Z M1046.909789,403.619875l0.000882,-0.013235l0.015882,-0.004412l0.012353,0.010588l-0.003529,0.015882l-0.014118,0.001765l-0.011471,-0.010588Z M1046.917968,404.197154l0.015636,-0.011027l0.022395,0.011073l0.016456,0.028503l-0.007439,0.018296l-0.021296,-0.005706l-0.025751,-0.041138Z M1046.917968,404.197154l0.015636,-0.011027l0.022395,0.011073l0.016456,0.028503l-0.007439,0.018296l-0.021296,-0.005706l-0.025751,-0.041138Z M1046.476933,405.33928l-0.017945,-0.005521l-0.00138,-0.028988l0.016564,-0.016564l0.016564,0.008282v0.020705l-0.013804,0.022086 Z M1046.948929,405.008481l0.010947,-0.012801l0.015775,-0.000585l0.008009,0.009545l-0.008997,0.012971l-0.015604,-0.001365l-0.010131,-0.007765Z M1046.948929,405.008481l0.010947,-0.012801l0.015775,-0.000585l0.008009,0.009545l-0.008997,0.012971l-0.015604,-0.001365l-0.010131,-0.007765Z M1046.727278,404.209549l-0.003779,-0.015516l0.025171,-0.023832l0.035193,-0.006044l-0.00114,0.016082l-0.029333,0.022317l-0.026112,0.006993Z M1047.099409,403.581093l0.004167,-0.011458l0.015625,-0.005208l0.010417,0.005208l0.003125,0.014583l-0.010417,0.008333l-0.014583,-0.001042l-0.008333,-0.010417Z M1046.513255,405.349372l0.009565,-0.007332l0.02058,0.001911l0.022513,0.02401l-0.003718,0.010532l-0.01357,0.003971l-0.023549,-0.014641l-0.011821,-0.018451Z M1046.513255,405.349372l0.009565,-0.007332l0.02058,0.001911l0.022513,0.02401l-0.003718,0.010532l-0.01357,0.003971l-0.023549,-0.014641l-0.011821,-0.018451Z M1036.146192,383.028238l0.010435,-0.006949l0.017762,0.010399l0.009619,0.013617l0.004145,0.020017l-0.014885,0.001646l-0.020981,-0.018542l-0.006096,-0.020188Z M1036.164638,382.938491l-0.001732,-0.019054l0.020787,-0.013858h0.032912l0.012126,0.01559l-0.01559,0.01559l-0.048502,0.001732Z M1034.306245,380.27086l0.002614,-0.011765l0.016993,-0.011765l0.03268,0.003922l0.003922,0.010457l-0.007843,0.011765l-0.027451,0.003922l-0.020915,-0.006536Z M1033.630842,380.270833l0.00138,-0.017945l0.017945,-0.012423l0.026227,0.006902l-0.002761,0.015184l-0.026227,0.009663l-0.016564,-0.00138Z M1034.154759,378.065845l0.007843,-0.047059l0.035294,-0.027451l0.043137,0.015686l0.007843,0.039216l-0.047059,0.035294l-0.047059,-0.015686Z M1034.237492,378.153631l-0.011034,-0.006233l-0.004088,-0.019224l0.013265,-0.015125l0.015928,0.008014l0.001508,0.017177l-0.00561,0.012369l-0.009968,0.003023Z M1034.112802,378.136804l0.013714,0.006017l0.002645,0.014998l-0.009946,0.007377l-0.014837,-0.004413l-0.004248,-0.016121l0.012673,-0.007858Z M1034.690445,376.093312l0.017335,-0.00484l0.017812,0.012614l0.002485,0.027006l-0.015213,0.002599l-0.01805,-0.02134l-0.004368,-0.016038Z M1034.776339,376.077009l0.007628,0.017155l-0.01702,0.015676l-0.014475,-0.004701l0.005701,-0.024274l0.018166,-0.003857Z M1040.891156,375.057983l0.054218,-0.024097l0.024097,0.008032l-0.004016,0.038153l-0.038153,0.040161l-0.050201,0.004016l-0.018073,-0.016064l0.032129,-0.050201Z M1040.431312,370.85512l0.038153,0.002008l0.004016,0.026105l-0.07229,0.104419l-0.132532,0.110443l-0.046185,0.01004l-0.026105,-0.012048l-0.036145,0.006024l-0.080322,0.08233l-0.012048,0.040161l-0.054218,0.052209l-0.036145,0.054218l-0.024097,0.016064h-0.048193l-0.080322,0.060242l-0.024097,0.048193l-0.100403,0.074298l-0.046185,0.006024l-0.020081,-0.038153l0.008032,-0.086346l0.038153,-0.102411l0.132532,-0.160645l0.008032,-0.034137l-0.040161,-0.026105l-0.004016,-0.030121l0.032129,-0.012048l0.040161,0.008032l0.032129,-0.036145l0.032129,-0.102411v-0.052209l-0.034137,-0.056226l0.004016,-0.110443l0.022089,-0.052209l0.048193,-0.006024l0.084338,0.054218l0.096387,0.1245l0.042169,0.030121l0.030121,0.044177v0.040161l0.034137,0.014056l0.078314,-0.020081l0.066266,-0.024097l0.046185,-0.046185Z M1039.654194,370.915362l0.002008,-0.036145l0.032129,-0.030121l0.090363,-0.026105l0.048193,-0.074298l-0.012048,-0.030121h-0.048193l-0.050201,0.026105l-0.034137,-0.002008l-0.026105,0.022089l-0.048193,0.110443l0.006024,0.040161l0.020081,0.012048l0.020081,-0.012048Z M1040.722982,370.611643l0.081326,-0.05723l-0.003012,-0.021085l-0.024097,0.001506l-0.073796,0.033133l-0.022591,0.036145l0.010542,0.012048l0.031627,-0.004518Z M1037.367519,372.021299l-0.010542,0.052711l-0.036145,0.042169l-0.021085,0.069278l0.061748,0.117471l0.046687,0.021085l0.12952,0.004518l0.031627,0.018073l0.022591,0.040663l0.028615,0.004518l0.073796,-0.043675l0.010542,-0.022591l-0.013554,-0.052711l-0.043675,-0.037651l-0.036145,-0.07982l0.003012,-0.037651l-0.022591,-0.049699l-0.048193,-0.046687l-0.063254,-0.028615l-0.093375,-0.024097l-0.018073,0.01506l-0.001506,0.037651Z M1037.643972,372.403363l0.004801,0.012001l0.038404,-0.0016l0.047205,-0.016002l0.0008,-0.014402l-0.023202,-0.011201l-0.035204,0.006401l-0.032803,0.024803Z M1037.62957,372.471371l0.008801,0.029603l0.015202,0.012801l0.038404,0.004l0.081609,-0.008001l0.052006,-0.028803l0.0024,-0.015202l-0.036004,-0.046405l-0.022402,-0.0024l-0.031203,0.011201l-0.083209,0.0032l-0.041604,0.012801v0.016802l0.016002,0.010401Z M1038.664222,372.582049h0.011044l0.020081,-0.033133v-0.049197l-0.01506,-0.01506l-0.030121,-0.008032l-0.014056,-0.018073l-0.012048,0.001004l-0.001004,0.039157l0.025101,0.068274l0.016064,0.01506Z M1037.796741,371.948507l0.01506,-0.001004l0.006024,0.009036l-0.012048,0.012048l0.003012,0.023093l0.055222,0.054218l0.032129,0.012048h0.098395l0.008032,-0.011044l-0.020081,-0.025101l-0.017068,-0.00502l-0.01004,0.008032h-0.017068l-0.00502,-0.008032l0.007028,-0.032129l-0.039157,-0.064258l-0.056226,-0.029117l-0.032129,0.001004l-0.024097,0.016064l-0.003012,0.025101l0.011044,0.01506Z M1037.883088,372.440481l0.013052,0.028113l-0.004016,0.020081l0.012048,0.011044l0.08233,0.006024l0.024097,0.011044l0.024097,0.037149l0.046185,0.054218l0.00502,0.039157l0.040161,0.051205l0.05723,0.034137l0.008032,-0.004016l-0.002008,-0.019077l0.007028,-0.018073l0.019077,-0.008032l0.028113,0.011044l0.019077,0.019077l0.003012,0.028113l0.024097,0.026105l0.032129,0.004016l0.008032,-0.013052h0.01004l0.024097,0.034137l0.020081,0.011044l0.024097,-0.007028l0.011044,-0.059238l-0.003012,-0.036145l-0.043173,-0.061246l-0.001004,-0.029117l0.019077,-0.034137l0.066266,-0.038153l0.003012,-0.018073l-0.01506,-0.01506l-0.030121,-0.051205l-0.001004,-0.014056l0.008032,-0.001004l0.028113,0.031125l0.031125,0.059238l0.035141,0.026105l0.031125,0.003012l0.007028,-0.007028l-0.008032,-0.037149l-0.027109,-0.025101l-0.003012,-0.011044l0.008032,-0.001004l0.021085,0.013052l0.034137,0.011044l0.006024,-0.009036l-0.024097,-0.039157l-0.035141,-0.035141l-0.041165,-0.012048l-0.022089,0.00502l-0.012048,0.014056l-0.012048,-0.002008l-0.002008,-0.018073l-0.028113,-0.027109l-0.035141,-0.011044l-0.017068,0.011044l-0.007028,-0.006024l0.009036,-0.034137v-0.041165l-0.034137,-0.047189l-0.036145,-0.009036l-0.040161,0.018073l-0.004016,0.016064l0.00502,0.011044l-0.007028,0.018073l-0.01004,-0.003012l-0.011044,-0.025101l-0.023093,-0.020081l-0.041165,-0.009036l-0.026105,0.024097h-0.040161l-0.047189,-0.009036l-0.026105,-0.031125h-0.017068l-0.008032,0.014056l0.004016,0.028113l-0.028113,0.031125l-0.035141,0.001004l-0.016064,-0.00502l-0.021085,0.002008l-0.037149,0.063254l-0.002008,0.045181l0.026105,0.030121Z M1039.688331,372.561969l0.01506,0.021085h0.023093l0.029117,-0.05723l0.001004,-0.037149l-0.038153,-0.039157l-0.017068,0.002008l-0.022089,0.025101l-0.003012,0.044177l0.012048,0.041165Z M1039.462424,372.329034l0.014056,0.06727l-0.00502,0.056226l0.016064,0.013052l0.020081,-0.007028l0.060242,0.002008l0.029117,0.023093l0.013052,-0.004016l-0.004016,-0.095383l-0.014056,-0.012048l-0.020081,0.002008l-0.071286,-0.041165l-0.027109,-0.037149l-0.024097,-0.006024l-0.003012,0.01004l0.016064,0.029117Z M1039.333909,372.096099l-0.01506,-0.016064l-0.008032,0.01004l0.006024,0.038153l0.026105,0.016064l0.029117,0.032129l0.011044,-0.002008l-0.014056,-0.032129l-0.031125,-0.027109l-0.004016,-0.019077Z M1039.387624,371.958547l0.078314,0.020081l0.053214,0.006024l0.073294,-0.046185l0.046185,-0.07731l-0.013052,-0.01004l-0.026105,0.007028l-0.073294,0.078314l-0.037149,0.004016l-0.032129,-0.012048l-0.071286,-0.003012l-0.011044,0.016064l0.013052,0.017068Z M1039.495557,372.231643l0.032129,0.017068h0.059238l0.054218,-0.028113l0.037149,-0.055222l-0.006024,-0.023093l-0.037149,-0.01506l-0.101407,-0.004016l-0.047189,0.028113l-0.01004,0.035141l0.019077,0.045181Z M1041.887153,369.867659l-0.048193,0.052711l-0.027109,0.046687l0.009036,0.022591l0.024097,-0.001506l0.094881,-0.097893l0.078314,-0.05723l0.051205,-0.016566l0.031627,0.001506l0.078314,-0.021085l0.009036,-0.01506l-0.019579,-0.019579l-0.049699,-0.001506l-0.027109,0.021085l-0.058736,0.024097l-0.058736,-0.004518l-0.060242,0.013554l-0.021085,0.022591l-0.006024,0.030121Z M1040.860032,370.510739l0.036145,-0.009036l0.036145,0.001506l0.167171,-0.067772l0.140062,-0.090363l0.012048,-0.025603l-0.016566,-0.01506l-0.055724,0.004518l-0.231931,0.126508l-0.091869,0.069278l0.004518,0.006024Z M1041.289254,370.260736l0.003012,0.009036l0.06476,-0.018073l0.025603,0.004518l0.018073,0.028615l-0.001506,0.030121l-0.043675,0.028615l-0.003012,0.013554l0.019579,0.003012l0.108435,-0.051205l0.103917,-0.012048l0.117471,0.003012l0.040663,-0.016566l0.085844,-0.073796l0.103917,-0.052711v-0.012048l-0.084338,-0.009036l-0.134038,0.019579l-0.093375,0.040663l-0.078314,0.00753l-0.114459,-0.001506l-0.096387,0.031627l-0.042169,0.027109Z M1040.17177,370.634234l0.016566,0.009036l0.061748,-0.019579l0.006024,-0.018073l-0.048193,-0.016566l-0.019579,0.004518l-0.016566,0.040663Z M1040.253096,370.68544l0.018073,0.018073l0.040663,0.006024l0.069278,-0.024097l0.00753,-0.013554l-0.039157,-0.034639l-0.037651,-0.009036l-0.081326,0.030121l0.001506,0.021085l0.021085,0.006024Z M1040.421773,370.751705l0.00753,0.013554l0.042169,0.006024l0.063254,-0.046687l0.00753,-0.01506l-0.016566,-0.004518l-0.085844,0.024097l-0.018073,0.022591Z M1040.182312,371.378219l0.001506,0.030121l0.028615,0.018073l0.055724,-0.012048l0.070784,-0.069278l0.027109,-0.091869l-0.019579,-0.010542l-0.070784,0.010542l-0.039157,0.033133l-0.054218,0.091869Z M1040.048275,371.528823l0.009036,0.013554l0.094881,-0.040663l0.036145,-0.036145l-0.003012,-0.019579l-0.025603,-0.00753l-0.037651,0.019579l-0.073796,0.070784Z M1040.661234,371.14177l0.012048,-0.030121l0.004518,-0.081326l0.033133,-0.112953l0.022591,-0.048193l-0.009036,-0.004518l-0.031627,0.01506l-0.024097,0.048193l-0.040663,0.195786l0.012048,0.019579l0.021085,-0.001506Z M1041.198891,371.745693l0.016566,0.019579l0.025603,-0.006024l0.140062,-0.161147l0.004518,-0.058736l-0.022591,-0.010542l-0.06476,0.027109l-0.093375,0.13705l-0.006024,0.052711Z M1040.975997,371.748706l0.040663,0.042169l0.001506,0.033133l-0.051205,0.052711l-0.012048,0.030121l0.01506,0.006024l0.049699,-0.042169l0.075302,-0.042169l0.004518,-0.030121l-0.049699,-0.046687l-0.010542,-0.018073l0.010542,-0.013554l0.027109,0.004518l0.004518,-0.009036l-0.030121,-0.046687l-0.076808,-0.045181l-0.025603,0.001506l-0.033133,0.069278l0.013554,0.040663l0.046687,0.013554Z M1039.950382,372.406846l0.01506,0.001506l0.043675,-0.046687l0.042169,-0.126508l0.066266,-0.081326l0.034639,-0.066266l0.067772,-0.085844l0.048193,-0.022591l0.00753,-0.030121l-0.009036,-0.055724l0.037651,-0.070784l0.040663,-0.045181l0.042169,-0.138556l0.040663,-0.075302l0.009036,-0.075302l0.108435,-0.259039l-0.012048,-0.004518l-0.105423,0.121989l-0.043675,0.093375l-0.013554,0.096387l-0.01506,0.049699l-0.027109,0.037651l-0.027109,0.081326l0.00753,0.033133l-0.012048,0.028615l-0.140062,0.254521l-0.033133,0.036145l-0.018073,0.033133l-0.001506,0.024097l-0.01506,0.024097l-0.040663,0.00753l-0.069278,0.001506l-0.00753,0.013554l0.013554,0.024097l0.027109,0.016566l0.001506,0.030121l-0.031627,0.108435l-0.022591,0.013554l-0.010542,0.022591l0.001506,0.030121Z M1039.501581,372.075517l0.031627,0.006024l0.07982,-0.010542l0.140062,-0.054218l0.082832,-0.06476l0.043675,-0.088857l-0.001506,-0.034639l-0.01506,-0.003012l-0.049699,0.043675l-0.054218,0.060242l-0.028615,0.061748l-0.138556,0.060242l-0.090363,0.010542v0.013554Z M1039.676282,372.10865l0.013554,0.004518l0.039157,-0.025603l0.128014,-0.045181l0.048193,0.00753l0.045181,-0.001506l0.042169,-0.021085l0.112953,-0.019579l0.040663,-0.043675l0.043675,-0.14458l0.037651,-0.063254l0.025603,-0.019579l0.001506,-0.021085l-0.019579,-0.021085l-0.006024,-0.030121l0.030121,-0.058736l-0.009036,-0.009036l-0.013554,0.00753l-0.013554,0.018073l-0.010542,0.001506l-0.009036,-0.019579l0.006024,-0.046687l-0.012048,-0.012048l-0.022591,0.01506l-0.049699,0.073796l-0.018073,0.063254l-0.012048,0.022591l-0.009036,-0.016566l0.01506,-0.049699l-0.009036,-0.009036l-0.033133,0.036145l-0.037651,0.054218l-0.001506,0.042169l0.009036,0.046687l-0.025603,0.049699l-0.149098,0.118977l-0.060242,0.024097l-0.097893,0.060242l-0.019579,0.031627Z M1039.89767,371.927925l0.082832,-0.067772l0.00753,-0.043675l-0.01506,-0.012048l-0.01506,0.004518l-0.045181,0.058736l-0.028615,0.060242h0.013554Z M1041.755881,370.795459l0.006929,-0.025983l0.024251,-0.017322l0.039841,0.001732l0.017322,0.029448l-0.020787,0.024251l-0.041573,0.001732l-0.025983,-0.013858Z M1038.143608,372.021946l-0.020787,-0.038975l0.007795,-0.03118l0.025983,-0.005197l0.025983,0.023385l-0.007795,0.044172l-0.03118,0.007795Z M1039.247367,372.293411l0.041548,0.005986l0.008559,0.031945l-0.033337,0.031758l-0.051245,0.000416l0.001741,-0.028998l0.032734,-0.041107Z M1039.402682,372.155026l-0.035436,-0.039647l-0.023053,-0.048799l0.012859,-0.00986l0.026441,0.021176l0.031823,0.04051l0.005631,0.029966l-0.018266,0.006654Z M1039.882279,372.819657l0.032891,-0.041782l0.044055,-0.031177l0.011943,0.010952l-0.016263,0.029717l-0.034368,0.038374l-0.028533,0.010749l-0.009725,-0.016833Z M1039.443102,372.040167l-0.061706,-0.029828l0.004016,-0.018073l0.068274,0.006024l0.04049,0.025312l-0.00138,0.016564h-0.049693Z M1040.992882,370.305811l-0.018242,-0.016351l0.01301,-0.022223l0.03232,-0.018075l0.014902,0.01237l-0.003035,0.020637l-0.038955,0.023642Z M1038.799278,372.379551l0.016564,-0.03727l0.020705,-0.004141l0.015184,0.024847l-0.016564,0.024847l-0.027607,0.004141l-0.008282,-0.012423Z M1038.439627,372.188685l0.017531,0.020206l0.011975,0.04307l-0.006664,0.013243l-0.021747,-0.026349l-0.010054,-0.033154l0.008959,-0.017017Z M1038.830411,372.455776l-0.004042,-0.015006l0.010867,-0.010019l0.01474,0.003079l0.006901,0.016657l-0.009576,0.014385l-0.01889,-0.009096Z M1038.331235,372.203746l0.002669,-0.017462l0.019533,0.007109l0.011388,0.024422l-0.015392,0.001771l-0.018199,-0.015841Z M1039.349588,371.837492l0.013858,0.013858l-0.00129,0.018627l-0.016614,0.005538l-0.017286,-0.017415l0.003441,-0.014429l0.017891,-0.006179Z M1039.877852,370.894921l0.007218,0.007686l0.000351,0.010893l-0.008033,0.01253l-0.006708,-0.008634l-0.003424,-0.013443l0.010596,-0.009032Z M1041.239629,371.553321l0.014792,-0.0044l0.005999,0.013673l-0.010553,0.012156l-0.013594,-0.002397l0.003356,-0.019032Z M1038.785135,373.179533l0.013953,0.002698l0.000644,0.01856l-0.011328,0.00491l-0.013029,-0.014537l0.00976,-0.011632Z M1039.713655,370.905191l-0.007698,0.009989l-0.017621,-0.00637l0.000796,-0.013506l0.012842,-0.00302l0.011681,0.012908Z M1038.225947,372.183582l-0.011461,-0.007815l0.001623,-0.024925l0.022917,-0.019353l0.00863,0.009043l-0.005861,0.022818l-0.015847,0.020233Z M1038.963343,372.345348l0.011264,-0.008097l0.022867,0.01005l0.010348,0.028154l-0.011449,0.005016l-0.019437,-0.013312l-0.013593,-0.021811Z M1040.606719,370.645966v-0.014948l0.048039,-0.022101l0.010092,0.007153l-0.003322,0.011626l-0.033218,0.016609l-0.021592,0.001661Z M1040.134158,371.196426l-0.007407,-0.010069l0.01241,-0.019916l0.036553,-0.01951l0.010488,0.009884l-0.025055,0.025623l-0.02699,0.013989Z M1038.840932,372.299558l0.013465,-0.008588l0.022645,0.006505l0.01836,0.030185l-0.009617,0.00903l-0.02842,-0.017307l-0.016433,-0.019826Z M1040.600451,371.193609l-0.013733,-0.003929l0.010625,-0.021868l0.01593,-0.006805l0.001438,0.014832l-0.01426,0.01777Z M1038.178082,372.163439l-0.004641,0.023398l-0.023195,0.004387l-0.014405,-0.016423l-0.002047,-0.023399l0.018105,-0.008658l0.026183,0.020695Z M1039.684429,371.110356l0.016748,-0.024243l0.017195,0.000098l0.008468,0.051434l-0.013362,0.031847l-0.019718,-0.004089l-0.009331,-0.055047Z M1038.965393,372.185659l0.007806,0.028413l-0.011127,0.013109l-0.044844,-0.026574l-0.015807,-0.030707l0.015807,-0.012477l0.048166,0.028235Z M1038.743005,372.229968l0.001732,-0.012126l0.019054,0.001732l0.01559,0.019054l-0.006929,0.008661l-0.020787,-0.003464l-0.008661,-0.013858Z M1040.472486,371.21418l0.012126,0.001732l-0.001732,0.019054l-0.019054,0.01559l-0.008661,-0.006929l0.003464,-0.020787l0.013858,-0.008661Z M1038.078541,372.137269l0.008824,0.007059l-0.004412,0.020294l-0.016407,0.007649l-0.008661,-0.006929l0.006539,-0.023661l0.014118,-0.004412Z M1039.638811,371.959935l-0.007464,-0.008484l0.007869,-0.01922l0.017486,-0.004684l0.007326,0.008328l-0.010549,0.022166l-0.014669,0.001893Z M1040.111582,370.587023l0.007059,-0.008824l0.020294,0.004412l0.007649,0.016407l-0.006929,0.008661l-0.023661,-0.006539l-0.004412,-0.014118Z M1040.272346,371.448895l0.013446,0.003223l0.001633,0.019423l-0.011349,0.011857l-0.012062,-0.002353l-0.003811,-0.021214l0.012143,-0.010936Z M1040.015004,372.106087l0.006655,-0.017169l0.048091,-0.024877l0.0259,0.00532l-0.010353,0.022202l-0.035661,0.01851l-0.034632,-0.003986Z M1039.806722,371.026847l-0.018498,-0.004889l-0.005913,-0.024273l0.011257,-0.030927l0.018797,-0.006062l0.009318,0.019982l-0.014961,0.04617Z M1040.060768,371.419612l0.010168,-0.01485l0.021752,-0.001787l0.019262,0.019091l-0.009983,0.011769l-0.027544,-0.004745l-0.013655,-0.009478Z M1038.476513,372.671976l0.016231,-0.007777l0.019731,0.009329l0.007136,0.026164l-0.01453,0.005201l-0.021481,-0.017882l-0.007087,-0.015035Z M1039.663642,372.716902l-0.010477,-0.014634l0.005761,-0.021051l0.024527,-0.011571l0.007645,0.013406l-0.01388,0.02426l-0.013576,0.00959Z M1038.0869,372.259802l-0.01278,-0.013754l0.013298,-0.025794l0.022627,-0.006063l0.010204,0.015455l-0.010353,0.017931l-0.022997,0.012225Z M1038.54641,372.290694l0.019035,0.002762l-0.000441,0.021084l-0.033273,0.043308l-0.017028,-0.00445l-0.000308,-0.02737l0.032015,-0.035333Z M1041.590953,370.011913l0.020445,-0.008862l0.0689,0.041915l0.007985,0.028381l-0.017009,0.016746l-0.033037,-0.01002l-0.043695,-0.040268l-0.003589,-0.027892Z M1039.642527,370.984104l-0.011389,-0.000804l-0.009462,-0.013796l0.008102,-0.009864l0.012993,0.001927l0.007618,0.01131l-0.007861,0.011227Z M1041.071101,371.434996l0.015637,-0.005212l0.010425,0.012162l-0.010425,0.012162l-0.015637,-0.003475v-0.015637Z M1039.73539,372.287102l0.004154,-0.012461l0.013845,0.002769l0.008307,0.008307l-0.006923,0.013845h-0.012461l-0.006923,-0.012461Z M1038.656195,372.34531l0.01455,0.003544l0.005209,0.014311l-0.008514,0.008992l-0.015378,-0.00177l-0.006983,-0.015139l0.011116,-0.009939Z M1041.424652,371.166195l-0.001385,-0.013845l0.012461,-0.008307l0.012461,0.011076v0.013845l-0.013845,0.005538l-0.009692,-0.008307Z M1042.006947,370.957106l-0.000853,0.009753l-0.011496,0.007839l-0.014544,-0.002255l-0.002707,-0.013995l0.010606,-0.008899l0.018993,0.007558Z M1041.414975,371.095924l-0.005547,0.015226l-0.017592,0.012349l-0.011155,-0.003938l0.009277,-0.017518l0.014032,-0.008107l0.010984,0.001987Z M1039.790212,372.156797l-0.009883,-0.027996l0.029709,-0.029465l0.037787,-0.009026l0.020531,0.019061l-0.030137,0.03436l-0.048006,0.013065Z M1041.004882,370.579217l0.000365,-0.015965l0.030481,-0.016505l0.035558,0.003271l-0.005263,0.015239l-0.034109,0.013965l-0.027032,-0.000004Z M1039.446633,372.12384l0.014315,0.007078l0.002077,0.034601l-0.017992,0.030844l-0.011587,-0.01121l0.001759,-0.036815l0.011428,-0.024498Z M1038.293238,372.05797l0.003989,0.016875l-0.007295,0.027226l-0.016267,0.001721l-0.007089,-0.018921l0.010394,-0.02518l0.016267,-0.001721Z M1039.846451,370.911477l0.006859,0.015926l-0.002457,0.028079l-0.015721,0.004519l-0.010267,-0.017403l0.005864,-0.026602l0.015721,-0.004519Z M1040.534438,370.806261l0.007791,-0.015491l0.023089,-0.016167l0.013567,0.009138l-0.006732,0.019051l-0.024148,0.012607l-0.013567,-0.009138Z M1041.254578,371.279253l-0.007791,0.015491l-0.023089,0.016167l-0.013567,-0.009138l0.006732,-0.019051l0.024148,-0.012607l0.013567,0.009138Z M1037.842071,371.846314l0.017312,-0.000998l0.025546,0.011912l-0.00113,0.016319l-0.019865,0.003695l-0.022992,-0.014609l0.00113,-0.016319Z M1037.954214,371.903824l0.024534,0.003638l0.020896,0.028172l-0.002957,0.028396l-0.028396,-0.002957l-0.024758,-0.027491l0.010681,-0.029758Z M1037.954214,371.903824l0.024534,0.003638l0.020896,0.028172l-0.002957,0.028396l-0.028396,-0.002957l-0.024758,-0.027491l0.010681,-0.029758Z M1040.331973,371.221816l-0.039216,0.007843l-0.015686,-0.015686l0.023529,-0.031372l0.039216,-0.015686l0.023529,0.015686l-0.031372,0.039216Z M1038.685308,372.736108v-0.057516l0.015686,-0.04183l0.026144,-0.002614l0.005229,0.054902l-0.020915,0.047059h-0.026144Z M1041.047412,371.545211l0.036579,-0.027324l0.032435,0.010152l0.007619,0.023458l-0.044268,0.024286l-0.035796,-0.006147l0.00343,-0.024424Z M1038.613738,372.389663l-0.025125,-0.011231l-0.014232,-0.02396l0.005866,-0.010385l0.025125,0.011231l0.011888,0.018933l-0.003522,0.015411Z M1037.808284,372.232479l0.017172,0.069014l-0.02553,0.026358l-0.04116,-0.003822l-0.017311,-0.028177l0.020627,-0.061187l0.024494,-0.016989l0.021708,0.014802Z M1039.976492,372.670132l-0.003477,-0.020121l0.022222,-0.03849l0.021428,-0.005742l0.013234,0.013679l-0.014379,0.024905l-0.022479,0.023248l-0.016549,0.002521Z M1039.011587,372.261936l0.004167,-0.011458l0.015625,-0.005208l0.010417,0.005208l0.003125,0.014583l-0.010417,0.008333l-0.014583,-0.001042l-0.008333,-0.010417Z M1039.115717,372.325165l0.003125,-0.015625l0.010417,-0.00625l0.013542,0.003125l0.004167,0.010417l-0.005208,0.010417l-0.0125,0.004167l-0.013542,-0.00625Z M1041.05137,370.208318l-0.008704,-0.010373l0.000614,-0.015473l0.01385,-0.006182l0.012437,0.009961l0.001367,0.009732l-0.007695,0.011896l-0.011869,0.00044Z M1039.21015,372.265533l-0.009784,-0.008054l-0.000688,-0.019642l0.01569,-0.012592l0.014294,0.010658l-0.001498,0.017177l-0.007673,0.011207l-0.010342,0.001246Z M1038.506556,372.620491l0.006536,-0.014379l0.020915,-0.005229l0.011765,0.007843l0.002614,0.016993l-0.010457,0.010457h-0.019608l-0.011765,-0.015686Z M1040.370446,371.155033l-0.001299,-0.015822l0.009171,-0.017892l0.016494,-0.012505l0.007826,0.004518l-0.001444,0.016557l-0.009538,0.016521l-0.009937,0.008175l-0.011272,0.000448Z  M1020.125843,366.188397l0.036,-0.078l0.034,-0.028l0.084,-0.01l0.063,0.014l0.038,-0.008l0.086,0.016l0.038,0.022l0.057,0.022l0.018,-0.008l0.012,-0.024l-0.059,-0.134l0.019,-0.033l0.064,-0.056l0.01,-0.048l0.018,-0.036l0.032,-0.026l0.056,-0.107l0.065,-0.078l0.09,-0.038l0.018,-0.024l-0.02,-0.044l0.012,-0.031l0.078,-0.018l0.113,-0.136l0.06,-0.026l-0.002,-0.018l-0.05,-0.008l-0.024,-0.016l-0.002,-0.037l-0.045,-0.054l0.006,-0.052l0.031,-0.02l0.04,0.014h0.032l0.06,-0.05l0.046,-0.095l0.04,-0.026l0.011,-0.026l-0.027,-0.03l0.012,-0.052l0.039,-0.038l0.04,-0.006l0.022,-0.014l0.008,-0.022l0.096,-0.003l0.028,0.037l0.107,0.076l0.014,0.036l0.062,0.06l0.01,0.057l0.02,0.018l0.038,-0.006l0.014,-0.069l0.041,-0.028l0.042,0.006l0.156,0.135l0.043,0.008l0.062,-0.028l0.048,0.004l0.056,0.034l0.016,0.042l0.079,0.046l0.042,0.002l0.026,0.014l0.032,0.05l0.062,0.033l0.052,0.062l0.083,0.018l0.048,-0.01l0.04,0.02l0.014,0.032l0.028,0.014l0.043,0.006l0.042,0.03l0.02,0.051l-0.008,0.046l0.018,0.048l0.044,0.05l0.008,0.026l-0.01,0.024l0.01,0.028l0.062,0.043l0.036,0.048l0.016,0.062l0.053,0.03h0.066l0.102,0.012l0.026,0.026l-0.002,0.032l0.025,0.016l0.05,0.009l0.05,0.06l0.04,0.006l0.034,-0.02l0.111,-0.004l0.02,-0.022v-0.049l-0.024,-0.038l0.006,-0.056l0.022,-0.054l0.042,-0.032l0.07,-0.012l0.05,-0.03l0.061,-0.069l0.052,-0.006l0.082,-0.046l0.008,-0.036l-0.062,-0.08l-0.004,-0.059l0.092,-0.162l0.041,-0.03l0.084,0.012l0.04,-0.022l0.012,-0.037l0.074,-0.044l0.047,-0.014l0.064,-0.048l0.026,-0.111l-0.01,-0.064l0.008,-0.04l0.07,-0.08l0.018,-0.05l0.026,-0.025l0.002,-0.092l0.045,-0.016l0.08,0.016l0.094,0.038l0.022,0.038l0.026,0.014l0.037,0.004l0.042,0.023l0.022,0.046l0.072,0.046l0.002,0.044l-0.038,0.044l0.008,0.085l0.032,0.046l0.05,0.03l0.018,0.046l-0.012,0.036l0.01,0.044l0.181,0.193l0.056,0.034l0.047,-0.006l0.044,-0.062l0.014,-0.056l0.028,-0.032l0.046,-0.018l0.032,-0.067v-0.048l-0.046,-0.044l-0.004,-0.084l0.03,-0.059l0.07,-0.06l0.093,-0.15l0.022,-0.057l0.074,-0.026l0.05,0.012l0.031,0.032l0.006,0.037l0.066,0.064l0.068,0.04l0.131,0.133l0.01,0.052l0.048,0.04l0.038,-0.002l0.028,0.012l0.034,0.064l0.107,0.111l0.054,0.09l0.142,0.127l0.053,0.076l0.058,0.002l0.08,0.08l0.006,0.04l0.02,0.01l0.026,-0.012l0.067,0.048l0.06,0.063l0.056,0.002l0.054,-0.032l0.055,-0.006l0.024,-0.02l-0.02,-0.043l0.004,-0.03l0.024,-0.012v-0.076l-0.026,-0.032v-0.022l0.026,-0.022l0.05,-0.139l0.014,-0.165l0.026,-0.05l-0.002,-0.03l-0.026,-0.024l-0.002,-0.032l0.018,-0.03l0.024,-0.079l0.082,-0.116l0.071,-0.048l0.028,-0.034l0.01,-0.051l0.08,-0.1l0.044,-0.002l0.018,0.02l0.031,0.006l0.078,-0.032l0.022,-0.032l0.064,-0.01l0.052,0.002l0.189,-0.073l0.064,0.009l0.017,0.046l-0.051,0.176v0.057l0.036,0.054l0.007,0.044l0.018,0.014h0.028l0.08,0.044l0.068,0.006l0.063,0.038l0.052,0.087l0.082,0.026l0.036,-0.04l0.042,-0.008l0.035,-0.02l0.022,-0.067l0.048,-0.046l0.199,-0.1l0.076,-0.075l0.076,-0.044l0.056,-0.12l0.065,-0.044l0.028,-0.035l0.048,-0.016l0.036,-0.032l0.048,-0.002l0.043,0.034l0.012,0.053l-0.019,0.034l0.017,0.018l0.05,-0.008l0.026,-0.036l-0.012,-0.034l0.002,-0.029l0.024,-0.002l0.024,0.024l0.082,0.031l0.047,0.036l0.044,0.006l0.056,-0.022h0.044l0.054,0.02l0.034,-0.004l0.021,-0.038l-0.029,-0.053l0.004,-0.032l0.031,-0.026l0.04,0.002l0.036,-0.014l0.052,-0.144l0.03,-0.025h0.044l0.077,-0.062l0.05,-0.01l0.042,0.008l0.022,-0.008l0.014,-0.042l0.056,-0.052l0.008,-0.068l-0.018,-0.053l-0.052,-0.016l-0.058,-0.072l-0.002,-0.088l-0.03,-0.043v-0.056l-0.018,-0.032l-0.002,-0.068l-0.032,-0.038l-0.014,-0.103l0.01,-0.032l0.042,-0.004l0.028,0.014l0.058,-0.004l0.058,-0.042l0.073,-0.006l0.018,-0.068l0.004,-0.075l0.04,-0.056l0.036,-0.006l0.052,0.014l0.042,0.062l0.061,0.031l0.028,-0.013l0.002,-0.022l-0.012,-0.032l0.004,-0.024l0.018,-0.02l0.006,-0.04l0.028,-0.04l0.056,-0.012l0.042,0.008l0.03,-0.01l0.006,-0.032l0.025,-0.018l0.058,-0.011l0.108,-0.112l0.089,-0.068l0.042,-0.004l0.044,0.028l0.002,0.026l0.014,0.014l0.04,0.004l0.159,-0.084l0.064,-0.073l0.024,0.004l0.008,0.027l0.02,0.006l0.036,-0.002l0.079,0.038l0.036,0.038l0.02,-0.002l0.016,-0.062l-0.008,-0.035l0.008,-0.022l0.026,-0.014l0.014,-0.05l0.026,-0.022l0.006,-0.026l-0.018,-0.038l0.004,-0.028l0.038,-0.032l0.047,0.004l0.03,-0.027l0.018,-0.06l0.106,-0.104l0.028,-0.002l0.055,0.042l0.032,0.052l0.01,0.082l0.038,0.067l0.062,0.058h0.026l0.071,0.082l0.062,0.024l0.022,-0.014l-0.002,-0.03l0.018,-0.018l0.03,0.002l0.04,0.084l0.147,0.185l0.006,0.044l0.038,0.081l0.092,0.046l0.067,0.002l0.034,0.02l0.03,0.054l0.036,0.04l0.004,0.037l-0.04,0.094l0.018,0.112l-0.014,0.032l0.012,0.043l0.052,0.042l0.048,0.004l0.018,-0.02l0.033,-0.004l0.044,0.032l0.03,-0.002l0.026,-0.04l0.034,-0.006l0.058,0.016l0.083,0.05h0.098l0.012,-0.026l0.016,-0.004l0.05,0.06l0.002,0.054l0.049,0.032l0.08,0.016l0.078,0.041l0.076,0.11l0.031,0.006l0.032,-0.022l0.034,0.008l0.03,0.046v0.038l0.018,0.012l0.032,-0.01l0.016,0.008l-0.028,0.057l0.028,0.042l0.036,0.024l0.018,0.03l-0.002,0.036l0.043,0.018l0.016,-0.016l-0.008,-0.024l0.012,-0.03l0.026,-0.016l0.064,0.004l0.034,-0.026l0.028,-0.002l0.047,0.022l0.05,-0.006l0.024,-0.034l0.068,0.008l0.036,0.022l0.038,-0.004l0.024,-0.046l0.009,-0.073l-0.025,-0.038l0.008,-0.026h0.059l0.042,-0.014l0.102,0.008l0.065,-0.024h0.048l0.086,0.04h0.052l0.042,-0.026l0.047,-0.002l0.058,0.042l0.046,0.002l0.032,-0.016l0.058,0.009l0.03,0.047l0.033,0.015l0.059,0.06l0.012,0.041l0.081,0.092l0.017,0.048l-0.012,0.045l-0.03,0.011l0.001,0.024l0.08,0.066l0.044,0.011l0.022,-0.017h0.032l0.042,0.029l0.03,-0.002l0.011,-0.018l0.025,-0.005l0.054,0.058l0.03,0.004l0.034,-0.028l0.014,-0.046l0.032,-0.03h0.082l0.048,0.022l0.025,-0.006l0.004,-0.038l0.019,-0.011l0.035,0.025l0.032,-0.004l0.024,-0.044l-0.002,-0.027l0.022,-0.004l0.032,0.021l0.034,-0.004l0.01,-0.031l0.023,-0.004l0.028,0.016l0.04,-0.002l0.02,-0.032l0.012,-0.074l0.034,-0.052l0.05,-0.004l0.05,0.028l0.019,0.044l0.056,0.028l0.038,0.002l0.07,-0.038l0.046,0.018l0.039,0.094l0.086,0.065l0.042,0.058l0.038,0.01l0.03,-0.026l0.002,-0.032l0.016,-0.024l0.063,-0.008l0.07,0.01l0.036,0.048l-0.002,0.024l-0.024,0.008l-0.008,0.014l0.126,0.074l0.085,0.081v0.048l0.016,0.006l0.028,-0.014l0.056,0.004l0.05,-0.02l0.057,0.004l0.046,0.044l0.004,0.03l-0.024,0.03l-0.016,0.05l-0.028,0.029l-0.075,0.022l-0.036,0.05l-0.062,0.066l-0.012,0.06l0.04,0.047l-0.008,0.024l-0.062,0.022l-0.012,0.026l0.024,0.034l-0.014,0.038l-0.063,0.032l-0.052,0.103l0.012,0.044l-0.01,0.034l-0.03,0.024l-0.002,0.018l0.052,0.03l-0.008,0.036l-0.068,0.053l-0.026,0.002l-0.026,-0.016h-0.05l-0.073,0.032l-0.056,-0.01l-0.044,-0.055l-0.018,-0.048l-0.036,-0.012l-0.04,0.018l-0.025,0.085v0.058l-0.014,0.052l-0.032,0.018l-0.036,0.119l0.008,0.142l-0.012,0.036l-0.036,0.004l-0.038,0.036l-0.004,0.053l0.018,0.028l0.01,0.05l-0.018,0.03l0.034,0.064l0.046,0.053l-0.014,0.086l-0.056,0.02l-0.024,0.038l0.008,0.028l0.078,0.03l0.143,0.016l0.058,-0.014l0.064,0.012l0.026,0.031l-0.002,0.04l0.02,0.03l-0.002,0.064l0.018,0.03l0.063,0.026l0.01,0.026l-0.012,0.033l0.024,0.078l-0.004,0.04l0.034,0.06l-0.006,0.046l-0.032,0.019l-0.026,-0.004l-0.016,0.01v0.03l-0.031,0.026l-0.002,0.02l0.029,0.036l0.054,0.044l0.046,0.008v0.02l-0.024,0.014l-0.02,0.059l0.014,0.098l0.052,0.04l0.006,0.028l-0.024,0.032v0.079l-0.026,0.05l0.002,0.038l0.024,0.03v0.048l-0.076,0.091l-0.004,0.07l0.028,0.032l0.004,0.04l0.026,0.01l0.096,-0.078l0.044,-0.082l0.059,-0.034l0.054,0.004l0.058,0.032l0.02,0.038l0.08,0.07l0.069,0.002l0.014,-0.022l0.03,-0.008l0.124,0.012l0.087,0.026l0.042,-0.008l0.03,0.006l0.018,0.034l-0.008,0.04l0.022,0.033l0.006,0.044l0.02,0.012l0.063,0.014l0.042,0.028l0.058,-0.012l0.04,-0.052l-0.002,-0.038l0.02,-0.01l0.036,0.016l0.065,0.008l0.116,0.074l0.05,0.088l-0.014,0.044l-0.08,0.077l-0.08,0.042l-0.043,0.072l0.014,0.052l0.085,0.059l0.158,0.026l0.141,0.064l0.028,0.038l0.048,0.024l0.044,0.053l0.135,0.05l0.048,0.05l0.018,0.054l0.073,0.048l0.094,0.024l0.02,-0.014l0.006,-0.032l0.07,-0.064l0.087,-0.028l0.044,0.002l0.07,0.07l-0.004,0.044l0.088,0.121l0.045,0.038l0.018,0.098l-0.022,0.065l0.004,0.062l0.024,0.05l0.062,0.012l0.05,-0.046l0.012,-0.048l0.083,-0.081l0.142,-0.078h0.044l0.038,0.028l0.017,0.087l0.042,0.06l-0.01,0.042l-0.028,0.024l0.002,0.012l0.166,0.026l0.054,-0.014l0.061,-0.074l0.066,-0.01l0.058,0.032l0.189,-0.006l0.042,-0.02h0.042l0.036,0.01l0.119,-0.032l0.034,-0.038l0.092,-0.045l0.057,-0.006l0.158,-0.062l0.075,0.006l0.038,0.048l0.028,0.006l0.04,-0.04l0.056,0.008l0.071,0.083l0.01,0.072l0.047,0.071l0.087,0.028l0.059,0.059l0.062,0.124l0.043,0.004l0.032,-0.024l0.075,-0.015h0.097l-0.003,0.022l0.052,0.031l0.007,0.035l-0.022,0.046l0.012,0.03l-0.019,0.035l-0.065,0.03l-0.104,0.009l-0.079,0.049l-0.042,0.106l-0.037,0.043l-0.062,-0.02l-0.024,-0.041l0.01,-0.054l0.042,-0.026l0.022,-0.054l-0.036,-0.07l-0.078,-0.043h-0.052l-0.053,0.039l-0.134,-0.006l-0.054,-0.037h-0.032l-0.018,0.033l-0.049,0.002l-0.028,-0.019l-0.038,0.002l-0.012,0.027l0.072,0.098v0.036l-0.044,0.024l-0.024,0.05l-0.042,0.029l-0.03,0.042l0.006,0.062l-0.036,0.06h-0.022l-0.019,-0.022l-0.066,0.002l-0.036,0.018l-0.104,0.002l-0.029,-0.02l-0.044,-0.002l-0.018,0.034l0.026,0.038l0.002,0.041l-0.032,0.034l-0.032,-0.006l-0.036,-0.036l-0.018,0.008v0.078l-0.038,0.096l-0.038,0.026l-0.041,0.071l0.006,0.054l-0.02,0.014l-0.042,-0.02l-0.076,-0.008l-0.062,-0.018l-0.024,-0.055l-0.057,-0.034l-0.04,0.008l-0.04,0.065l-0.006,0.042l-0.038,0.012l-0.044,-0.012l-0.103,0.008l-0.038,0.028l-0.008,0.036l-0.05,0.016l-0.036,0.034l-0.024,-0.004l-0.01,-0.024l-0.039,-0.008l-0.06,0.018l-0.022,0.034l0.01,0.049l-0.042,0.084l-0.034,0.106l0.008,0.065l0.038,0.03l0.048,0.008l0.016,0.02l-0.022,0.062l0.006,0.066l-0.024,0.101l-0.036,0.046l-0.026,0.092l-0.002,0.157l0.01,0.048l-0.032,0.076l-0.077,0.049l-0.134,0.004l-0.058,-0.02l-0.133,0.004l-0.078,0.028l-0.02,0.036l-0.079,0.06l-0.064,0.078l-0.074,0.033l-0.155,-0.013l-0.156,-0.036l-0.053,-0.032v-0.04l0.041,-0.064l0.036,-0.024l0.062,-0.063l0.05,-0.028l0.002,-0.016l-0.064,0.016l-0.056,0.053l-0.02,-0.002l0.002,-0.021l-0.018,-0.012l-0.095,0.022l-0.078,0.025l-0.078,-0.01l-0.039,-0.037l-0.016,0.014l0.022,0.045l0.125,0.036l0.078,0.066v0.036l-0.05,0.056l-0.054,0.002l-0.04,-0.024l-0.083,-0.018l-0.172,0.006l-0.081,-0.028l-0.048,-0.034l-0.058,-0.01l-0.028,-0.034l0.004,-0.056l0.026,-0.012l0.068,0.042l0.093,0.01l0.024,-0.024l-0.012,-0.024l-0.101,-0.008l-0.096,-0.041l-0.038,0.018l0.004,0.059l-0.039,0.032l0.015,0.048l0.05,0.02l-0.006,0.014l-0.032,0.014l-0.014,0.03l0.036,0.145l-0.018,0.046l-0.035,0.034l-0.014,0.071l-0.038,0.004l-0.02,-0.035l-0.006,-0.062l-0.034,-0.064l-0.05,-0.048l-0.074,-0.034l-0.081,-0.017l-0.044,-0.036l-0.008,-0.104l-0.086,-0.088l-0.113,-0.014l-0.028,0.014l0.127,0.022l0.056,0.074l-0.002,0.221l-0.054,0.144l0.066,0.137l0.09,0.066l0.107,0.008l0.044,0.038l-0.02,0.071l-0.085,0.03l-0.082,-0.022l-0.036,-0.038l-0.026,0.006l-0.028,0.088l0.014,0.032l0.044,0.02l0.032,0.028l0.008,0.055l0.058,0.066l0.018,0.066l-0.012,0.06l0.018,0.067l-0.012,0.021l-0.06,-0.052l-0.033,-0.066l-0.039,-0.009l-0.075,0.036l-0.07,0.067l-0.039,0.012l-0.024,0.039l-0.006,0.057l-0.102,0.129l-0.091,0.025l-0.12,0.09l-0.097,0.108l-0.054,0.136l0.003,0.054l0.115,0.097l0.003,0.069l-0.031,0.042l-0.003,0.042l0.019,0.027l-0.009,0.051l-0.064,0.064l-0.045,0.126l-0.006,0.118l0.048,0.15l0.045,0.042l0.022,0.049l-0.025,0.093l-0.06,0.051l-0.009,0.027l0.018,0.027l-0.018,0.052l-0.051,0.06l-0.051,-0.003l-0.033,-0.045l-0.058,-0.03h-0.06l-0.072,0.048l-0.057,0.015l-0.106,-0.012l-0.162,0.036l-0.163,0.099l-0.274,0.268l-0.389,0.467l-0.18,0.283l-0.067,0.067l-0.024,-0.009l-0.024,-0.036l-0.045,-0.016l-0.075,0.016l-0.064,-0.028l-0.099,-0.138l-0.042,-0.009l-0.115,0.036l-0.117,0.069l-0.024,0.073l0.006,0.06l-0.009,0.075l-0.055,0.124l-0.021,0.114l0.009,0.063l-0.024,0.1l-0.084,0.147l-0.051,0.039l-0.06,0.003l-0.067,0.076l-0.088,0.205l-0.08,0.329l-0.016,0.199l0.003,0.249l-0.013,0.11l-0.05,0.069l-0.023,0.12l0.043,0.123l0.046,0.05h0.04l0.024,0.016l0.01,0.073l-0.024,0.014l-0.03,-0.014l-0.029,0.017l0.003,0.08l-0.04,0.056l-0.047,0.007l-0.026,0.033l-0.017,0.093l-0.03,0.037l-0.046,0.01l-0.047,0.046l-0.036,0.13l0.006,0.225l0.02,0.064l-0.016,0.029l-0.06,-0.003l-0.03,0.013l-0.03,0.044h-0.04l-0.033,-0.03l-0.05,-0.004l-0.056,0.044l-0.093,0.162l-0.037,0.173l0.014,0.186l0.049,0.15l0.08,0.083l0.14,0.083l0.066,0.079l0.033,0.103l0.067,0.107l0.116,0.103l0.053,0.083l0.073,0.345l0.087,0.226l0.139,0.266l0.166,0.222l0.04,0.077l-0.027,0.043v0.06l-0.023,0.056l0.01,0.037l0.07,-0.11l-0.003,-0.076l0.02,-0.034l0.026,-0.003l0.047,0.073l0.176,0.256l0.242,0.266l0.156,0.129l0.057,0.024l0.063,-0.004l0.096,0.017l0.12,0.083l0.139,0.09l0.063,0.01l0.067,0.043l0.249,0.275l0.138,0.106l0.071,0.013l0.04,-0.018l0.009,-0.044l0.031,-0.036l0.049,0.014l0.013,0.031l-0.031,0.048l-0.004,0.045l0.097,0.217l0.102,0.15l0.119,0.147l0.009,0.075l-0.031,0.044l-0.075,0.031l-0.115,0.186l-0.013,0.164l0.031,0.128l0.079,0.231l0.177,0.332l0.098,0.115l0.164,0.292l0.239,0.333l0.261,0.31l0.337,0.288l0.589,0.456l0.372,0.252l0.111,0.075l0.031,0.071l-0.018,0.124l0.027,0.155l0.168,0.226l0.177,0.191l0.368,0.327l0.531,0.412l0.399,0.297l0.354,0.208l0.306,0.217l0.34,0.295l0.245,0.217l0.162,0.089l0.053,0.01l0.028,0.02l0.02,0.05l0.058,0.046l0.056,0.008l0.078,-0.018l0.015,-0.026l-0.015,-0.034l0.007,-0.03l0.026,-0.002l0.044,0.04l0.024,0.128l0.153,0.229l0.086,0.065l0.092,0.022l0.034,-0.016l0.039,0.002l0.052,0.022l0.098,0.002l0.008,0.024l-0.014,0.024l-0.1,0.038l-0.03,0.03l0.004,0.082l-0.016,0.011l-0.019,-0.009l-0.026,0.013l-0.042,0.104l0.012,0.05l0.119,0.115l0.078,0.03l0.052,-0.008l0.054,-0.069l0.077,-0.036l-0.004,-0.018l-0.036,-0.014l-0.039,-0.006l-0.006,-0.022l0.065,-0.076l0.058,-0.034l0.046,-0.004l0.07,0.062l0.059,0.008l0.044,0.026l0.018,-0.004l0.022,-0.06l0.018,-0.002l0.038,0.024l0.028,0.064l-0.01,0.02l-0.034,-0.006l-0.038,0.024l-0.012,0.05l-0.024,0.006l-0.04,-0.016l-0.022,-0.002l-0.029,0.026h-0.042l-0.026,-0.016l-0.022,0.002l-0.03,0.085l0.006,0.114l0.098,0.209l0.085,0.147l0.11,0.116l0.119,0.074l0.05,0.045l0.006,0.048l-0.018,0.026l-0.032,0.002l-0.022,-0.014l-0.117,-0.012l-0.07,0.004l-0.036,0.026l-0.061,0.018l-0.048,0.026v0.024l0.038,-0.022l0.083,-0.004l0.054,0.02l0.048,0.046l0.06,0.014l0.041,-0.01l0.052,-0.054l0.082,-0.052l0.05,-0.002l0.014,0.022l-0.01,0.028l0.02,0.117l0.059,0.132l0.15,0.259l0.207,0.327l0.211,0.294l0.144,0.154l0.105,0.061l0.058,0.004l0.04,-0.013l0.022,0.013l-0.004,0.072l-0.014,0.014l-0.048,-0.038l-0.054,-0.006l-0.028,0.018l-0.012,0.046l-0.022,0.014l-0.01,0.038l0.042,0.042l0.022,-0.002l0.002,-0.036l0.032,-0.044h0.018l0.006,0.036l0.038,0.034l0.018,-0.008v-0.04l0.024,-0.03l0.041,0.002l0.032,0.034l-0.012,0.052l0.014,0.055l0.122,0.124l0.052,0.026l0.081,0.016l0.07,-0.01l0.038,-0.048l-0.004,-0.05l0.014,-0.01l0.032,0.024l0.038,-0.002l0.019,0.012l-0.004,0.03l0.026,0.036l0.006,0.076l0.062,0.087l0.038,0.022l0.036,0.046l0.04,0.014l0.014,0.02l-0.012,0.03l-0.03,0.059l0.008,0.042l0.103,0.134l0.054,0.026l0.058,0.006l0.036,0.031l0.002,0.046l-0.026,0.03l-0.052,0.014l-0.072,0.054l-0.026,0.042l-0.006,0.117l-0.022,0.02l-0.089,0.002l-0.064,0.022l-0.032,0.038l-0.032,0.014l-0.022,0.024l0.034,-0.002l0.086,-0.054l0.121,0.008l0.04,0.03l0.008,0.095l-0.02,0.042l0.004,0.028l0.03,0.04l0.086,0.341l0.117,0.29l0.164,0.317l0.155,0.275l0.106,0.167l0.018,0.09l0.022,0.026l0.006,0.024l-0.018,0.012l-0.028,-0.016l-0.01,-0.058l-0.014,0.002l-0.004,0.112l0.02,0.091v0.106l0.03,0.064v0.035l-0.034,0.026l0.008,0.096l0.073,0.205l0.122,0.173l0.008,0.064l-0.024,0.046l0.006,0.044l0.022,0.03l0.006,0.042l-0.014,0.039l0.012,0.064l0.125,0.191l0.078,0.122l0.052,0.139l-0.012,0.038l-0.032,0.012l-0.016,0.03l0.016,0.076l0.086,0.157l0.051,0.06l0.004,0.028l-0.041,0.022l-0.022,0.051l0.01,0.072l0.149,0.263l0.026,0.159l-0.004,0.07l-0.046,0.044l-0.004,0.046l0.076,0.115l0.088,0.084l0.039,0.118l0.006,0.087l-0.049,0.092l0.002,0.038l0.023,0.028l-0.004,0.079l-0.023,0.042l-0.066,0.002l-0.04,-0.026l0.008,-0.068l0.016,-0.033l0.046,-0.014l-0.002,-0.018l-0.034,-0.014l-0.038,-0.058l-0.018,-0.141l-0.034,-0.026l-0.034,0.008l-0.026,0.065l-0.002,0.074l0.026,0.132l0.032,0.023l0.002,0.032l-0.083,0.09l-0.004,0.054l0.037,0.137l0.03,0.05l0.008,0.082l-0.026,0.063l0.002,0.054l0.056,0.106l0.08,0.087l0.095,0.032l0.006,0.022l-0.061,0.058l-0.022,-0.004l-0.006,-0.028l-0.056,-0.038l-0.03,0.006v0.03l0.042,0.02l0.002,0.02l-0.036,0.042l0.004,0.04l0.078,0.039l0.069,0.054l0.07,0.195l0.004,0.092l-0.02,0.052l-0.044,0.01l-0.123,-0.042l-0.012,-0.026l0.02,-0.026l0.036,-0.004l0.028,-0.016l0.026,-0.053l-0.008,-0.036l-0.072,-0.06l-0.076,-0.024l-0.044,0.02l-0.03,0.072l0.002,0.077l0.02,0.048l-0.002,0.07l0.014,0.058l0.054,0.049l0.032,0.07l0.024,0.002l0.022,-0.016l0.064,0.002l0.033,0.016l0.004,0.07l-0.016,0.022l-0.033,0.006l-0.014,0.03l0.022,0.083l0.069,0.076l0.024,0.084l-0.012,0.083l-0.046,0.092l0.004,0.03l0.018,0.036l0.004,0.038l-0.032,0.063v0.066l0.034,0.088l0.07,0.105l0.008,0.036l-0.048,0.028l-0.004,0.03l0.02,0.008l0.04,-0.018l0.034,0.012l0.101,0.161l0.122,0.162l0.115,0.129l0.106,0.155l0.01,0.082l-0.016,0.082l-0.032,0.042l-0.058,0.035l-0.016,-0.004l0.004,-0.023l0.048,-0.052l0.006,-0.032l-0.014,-0.012l-0.04,0.008l-0.055,0.04l-0.018,0.04l-0.082,0.079l-0.052,0.008l-0.026,0.032l-0.006,0.104l0.028,0.105l0.094,0.186l0.052,0.059l0.054,0.102l0.041,0.016l0.062,0.004l0.03,0.02l-0.004,0.04l-0.056,0.039l-0.022,0.042l-0.006,0.102l0.016,0.095l-0.008,0.042h-0.022l-0.055,-0.057v-0.046l-0.016,-0.03l-0.048,-0.024l-0.02,-0.056l0.012,-0.026l0.036,-0.012l0.014,-0.03v-0.069l-0.036,-0.07h-0.016l-0.01,0.028l-0.026,0.012l-0.034,-0.002l-0.022,0.01l-0.008,0.048l-0.03,0.008l-0.017,-0.024l-0.032,-0.006l-0.016,0.018l-0.024,0.002l-0.002,-0.022l0.028,-0.032l0.012,-0.052l0.018,-0.018l0.039,-0.006l0.014,-0.014l-0.002,-0.036l0.032,-0.028v-0.035l-0.083,-0.168v-0.107l-0.016,-0.018l-0.038,0.008l-0.026,0.034v0.047l-0.028,0.044l-0.068,0.03l-0.157,0.161l-0.114,0.056l-0.049,0.084l-0.01,0.056l-0.02,0.037l-0.05,0.03l-0.01,0.042l0.026,0.066l-0.006,0.115l0.02,0.042l0.034,0.002l0.063,-0.067l0.04,0.01l0.002,0.033l-0.026,0.038l-0.018,0.08l0.012,0.086l0.034,0.041l0.058,0.022l0.125,0.098l0.01,0.04l-0.025,0.068l0.013,0.071l0.052,0.044l0.058,0.006l0.068,0.052l0.002,0.042l-0.044,0.047l-0.03,0.004l-0.02,-0.021l-0.024,-0.002l-0.028,0.031l-0.012,0.094l-0.028,0.016l-0.069,-0.034l-0.032,-0.028l-0.066,-0.143l-0.111,-0.102l-0.11,-0.077l-0.044,-0.002l-0.069,0.079l-0.002,0.032l0.049,0.046l0.072,0.028l0.036,0.036l0.014,0.125l0.038,0.092l0.107,0.097l-0.002,0.028l-0.085,0.03l-0.036,0.032l-0.028,0.094l-0.002,0.077l0.052,0.09l0.002,0.056l-0.02,0.052l0.01,0.059l0.042,0.04l0.001,0.037l-0.036,0.075l-0.063,0.046l-0.018,0.069l0.009,0.072l0.057,0.142l0.124,0.207l0.072,0.046l0.024,0.075l-0.006,0.048l-0.048,0.051v0.049l0.081,0.096l0.006,0.042l-0.06,0.036l-0.057,-0.006l-0.069,-0.048l-0.097,-0.03l-0.018,-0.018l0.03,-0.094l0.018,-0.153l-0.012,-0.169l-0.033,-0.126l-0.042,-0.039l-0.015,-0.037v-0.051l-0.036,-0.096l0.006,-0.045v-0.021l-0.048,-0.013l-0.034,0.019l-0.003,0.027l0.052,0.06l0.015,0.057l-0.006,0.063l0.009,0.043l0.06,0.054l0.024,0.081l-0.006,0.139l-0.144,0.203l-0.046,0.039h-0.038l-0.036,0.014l-0.05,0.154l0.006,0.091l0.04,0.046l0.04,0.008l0.046,-0.028l0.061,-0.123l0.06,-0.052l0.022,0.004l0.002,0.02l-0.042,0.074l0.004,0.101l0.024,0.1l0.118,0.131l0.057,0.034l0.016,0.068l-0.023,0.048l-0.054,0.016l-0.032,0.021l-0.128,0.136l-0.018,0.046l-0.008,0.109l-0.023,0.036l-0.036,0.01l-0.034,0.044l-0.02,0.08l-0.044,0.049l-0.04,0.002l-0.061,-0.037l-0.062,-0.008l-0.056,0.014l-0.048,-0.002l-0.058,-0.04l-0.029,0.004l-0.024,0.046l-0.006,0.065l0.006,0.048l-0.014,0.066l-0.036,0.083l-0.018,0.291l-0.02,0.08l0.006,0.106l0.03,0.065l-0.01,0.038l-0.068,0.034l-0.02,0.036l-0.093,0.076l-0.12,0.023l-0.076,-0.019l-0.077,-0.06l-0.034,-0.008l-0.032,0.012l-0.084,-0.004l-0.155,0.034l-0.08,0.037l-0.016,0.044l-0.04,0.044l-0.033,0.014l-0.036,0.038l-0.062,0.195l-0.018,0.102l-0.034,0.056l-0.04,0.017l-0.01,0.026l-0.016,-0.002l-0.047,-0.055l-0.118,-0.03l-0.093,0.004l-0.044,0.034l-0.038,0.002l-0.044,-0.01l-0.068,0.012l-0.065,0.047l-0.126,0.042l-0.092,0.074l-0.095,0.195l-0.01,0.096l-0.026,0.053l-0.048,0.016l-0.038,-0.018h-0.052l-0.039,0.04l-0.048,0.012l-0.056,-0.014l-0.09,0.012l-0.089,0.104l-0.021,0.136l-0.026,0.052l-0.027,0.003l-0.036,-0.018l-0.03,0.005l-0.041,0.05l-0.027,0.102l-0.024,0.009l-0.02,-0.021l-0.003,-0.066l-0.034,-0.034l-0.116,-0.03l-0.095,0.015l-0.073,0.047l-0.066,0.02l-0.119,-0.009l-0.054,0.003l-0.115,0.049l-0.067,0.046l-0.112,0.181l-0.085,0.217l-0.038,0.203l-0.022,0.068l-0.046,0.056l-0.066,0.041h-0.058l-0.075,-0.043l-0.112,-0.024l-0.141,0.006l-0.164,0.055l-0.071,0.044l-0.078,0.1l-0.062,0.054l-0.111,0.055l-0.178,0.018l-0.055,0.024l-0.05,0.044l-0.06,0.034l-0.137,0.046l-0.138,0.063l-0.113,0.1l-0.114,0.153l-0.042,0.028l-0.123,0.008l-0.046,0.024l-0.034,0.044l-0.054,0.032l-0.263,0.01l-0.091,0.028l-0.116,0.079l-0.155,0.168l-0.066,0.042l-0.05,-0.002l-0.055,-0.056l-0.076,-0.03l-0.116,0.004l-0.044,0.046l-0.087,0.05l-0.094,0.079l-0.089,0.108l-0.034,0.002l-0.02,-0.028l-0.004,-0.036l-0.04,-0.044l-0.016,-0.058l0.01,-0.043l0.04,-0.024l0.085,-0.004l0.072,-0.058l0.03,-0.092l0.026,-0.087l-0.04,-0.07l-0.111,-0.038h-0.12l-0.052,0.03l-0.073,-0.002l-0.052,-0.062l-0.002,-0.042l0.04,-0.023l0.047,-0.07l0.004,-0.062l-0.033,-0.034l-0.004,-0.036l0.025,-0.067l-0.004,-0.036l-0.055,0.095l-0.004,0.044l0.026,0.036l0.006,0.032l-0.038,0.056l-0.046,0.016l-0.048,0.033l-0.014,0.076l-0.034,0.078l-0.036,0.006l-0.029,-0.016l-0.004,-0.024l0.018,-0.034l-0.004,-0.093l-0.032,-0.058l-0.062,-0.04l-0.064,0.008l-0.042,0.036l-0.097,-0.008l-0.078,-0.068l-0.01,-0.03l-0.028,-0.014l0.01,0.048l0.104,0.102l0.119,0.012l0.05,-0.04l0.046,0.008l0.042,0.053v0.076l-0.034,0.04l-0.016,0.094l0.02,0.051l0.081,0.048l0.046,0.054l-0.016,0.032l-0.203,0.084l-0.089,0.008l-0.026,-0.018l-0.002,-0.04l-0.058,-0.12v-0.073l0.016,-0.04l-0.004,-0.018l-0.036,0.038l-0.006,0.089l-0.022,0.074l-0.036,0.024l-0.052,-0.006l-0.107,-0.09l-0.1,-0.123l-0.042,-0.092l-0.004,-0.145l-0.031,-0.108l0.004,-0.042l0.027,-0.032l0.078,-0.008l0.028,-0.023l0.004,-0.042l-0.03,-0.09l-0.016,-0.082l-0.044,-0.053l-0.055,-0.018l-0.016,-0.022l0.018,-0.006l0.043,0.012h0.03l0.02,-0.016l0.048,0.002l0.064,0.038l0.026,0.036l0.024,0.013l-0.02,-0.057l-0.138,-0.094l-0.048,-0.066l0.002,-0.073l0.07,-0.098l0.09,-0.046l0.05,0.002l0.037,-0.002l0.032,-0.028l0.038,-0.006l0.032,0.016h0.042l0.028,-0.036l0.002,-0.061l0.032,-0.062l-0.008,-0.056l-0.072,-0.08l-0.034,-0.087l-0.006,-0.09l-0.046,-0.103l-0.04,-0.032l-0.006,0.022l0.05,0.093l0.01,0.106l0.03,0.099l0.078,0.088l0.008,0.038l-0.032,0.046l-0.012,0.067l-0.02,0.004l-0.072,-0.019l-0.093,0.007l-0.054,0.044l-0.116,0.054l-0.065,0.07l-0.02,0.076l0.016,0.087l0.045,0.054l-0.004,0.016l-0.047,-0.008l-0.048,0.016l-0.004,0.032l0.028,0.048l0.044,0.021l0.039,0.04l0.012,0.082l0.028,0.066l-0.008,0.02l-0.069,0.002l-0.048,0.039l-0.026,0.068l0.016,0.116l-0.022,0.069l-0.062,0.048l-0.076,0.088l-0.039,0.07l-0.03,0.014l-0.026,-0.01l-0.01,-0.03l-0.002,-0.096l-0.02,-0.022l-0.052,0.008l-0.056,0.048l-0.024,0.056l-0.045,0.038l-0.066,0.025l-0.022,-0.013l-0.004,-0.088l-0.042,-0.074l-0.052,-0.046v-0.02l0.012,-0.045l-0.002,-0.03l-0.038,0.054l0.002,0.061l0.042,0.048l0.044,0.072l0.012,0.107l0.036,0.014l0.084,-0.028l0.073,-0.045l0.024,-0.064l0.032,-0.03l0.014,0.012l-0.002,0.074l0.034,0.055l0.052,0.018l0.057,-0.016l0.042,-0.071l0.09,-0.086l0.028,0.004l0.04,0.106l0.103,0.119l0.044,0.076l-0.004,0.311l-0.028,0.095l-0.072,0.078l-0.043,-0.002l-0.032,-0.02l-0.128,-0.04l-0.071,-0.042l-0.04,-0.004l-0.092,0.064h-0.036l-0.032,-0.022l-0.047,-0.012l-0.124,-0.002l-0.096,-0.014l-0.139,-0.05l-0.229,-0.019l-0.086,-0.018l-0.125,-0.072l-0.124,-0.04l-0.093,0.002l-0.341,0.088l-0.137,0.01l-0.102,0.028l-0.163,0.089l-0.124,0.006l-0.05,-0.016l-0.157,-0.119l-0.096,-0.018l-0.043,0.012l-0.04,-0.004l-0.056,-0.026l-0.048,-0.004l-0.054,0.024l-0.091,0.105l-0.126,0.074l-0.044,-0.002l-0.073,-0.05l-0.092,-0.03l-0.09,-0.002l-0.061,0.034l-0.074,-0.004l-0.062,-0.042l-0.048,-0.149l-0.063,-0.108l-0.12,-0.099l-0.115,-0.038l-0.144,-0.014l-0.034,-0.012l-0.018,-0.036l-0.065,-0.042l-0.066,-0.019l-0.036,-0.036l-0.01,-0.076l-0.088,-0.165l-0.121,-0.1l-0.088,-0.016l-0.069,0.032l-0.04,-0.004l-0.08,-0.048l-0.173,-0.283l-0.104,-0.302l-0.006,-0.09l-0.068,-0.177l-0.065,-0.034l-0.074,0.01l-0.044,0.026l0.104,0.002l0.054,0.033l0.019,0.146l-0.053,0.211l-0.004,0.12l0.091,0.249l-0.008,0.047l-0.085,0.066l-0.032,0.002l-0.034,-0.018l-0.126,-0.02l-0.115,-0.056l-0.068,-0.071l-0.042,-0.018l0.09,0.105l0.127,0.066l0.124,0.028l0.04,0.044l0.038,0.147l0.024,0.04l0.051,0.024l0.168,0.151l0.123,0.15l0.148,0.201l0.137,0.135l0.177,0.118l0.168,0.171l0.049,0.12l0.102,0.137l0.064,0.058l0.323,0.225l0.073,0.036l0.058,0.046l0.108,0.181l0.185,0.187l0.121,0.094l0.313,0.295l0.205,0.235l0.116,0.153l0.169,0.311l0.076,0.104l0.171,0.233l0.11,0.223l0.01,0.109l-0.038,0.106l-0.11,0.113l-0.006,0.026l0.064,0.07l-0.008,0.078l-0.1,0.101l-0.123,0.062l-0.052,0.002l-0.032,-0.012l-0.038,0.002l-0.161,0.05l-0.213,0.078l-0.393,0.117l-0.249,0.1l-0.163,0.087l-0.317,0.138l-0.217,0.083l-0.263,0.082l-0.157,0.084l-0.209,0.169l-0.175,0.185l-0.066,0.086l-0.028,0.082l0.004,0.045l-0.018,0.056l-0.058,0.088l-0.028,0.098l-0.075,0.149l-0.052,0.068l-0.048,0.026l-0.024,0.023l-0.036,0.064l-0.095,0.102l-0.074,0.042l-0.09,0.014l-0.089,0.031l-0.088,0.05l-0.159,0.164l-0.036,0.061l0.004,0.036l-0.016,0.048l-0.068,0.058l-0.082,0.018l-0.123,0.047l-0.086,0.044l-0.05,0.016l-0.073,0.004l-0.062,0.018l-0.062,0.038l-0.107,0.01l-0.12,0.032l-0.181,0.026l-0.05,0.014l-0.07,-0.014l-0.083,-0.046l-0.219,-0.052l-0.064,-0.034l-0.02,-0.069l0.002,-0.05l0.042,-0.052h0.04l0.057,0.026h0.04l0.078,-0.014l0.046,-0.03l0.002,-0.026l-0.042,-0.084l-0.006,-0.061l0.048,-0.084l0.079,-0.038l0.114,-0.016l0.09,-0.067l0.083,-0.102l0.03,-0.056l-0.002,-0.026l-0.014,0.002l-0.046,0.046l-0.177,0.066l-0.102,0.012l-0.067,-0.039l-0.042,-0.096l0.003,-0.097l0.048,-0.15l0.024,-0.211l0.006,-0.268l0.009,-0.069l0.025,-0.025l0.003,-0.024l-0.018,-0.024l0.009,-0.235l-0.013,-0.108l0.01,-0.148l0.042,-0.183l0.024,-0.257l0.006,-0.46l0.021,-0.531l0.063,-0.466l0.066,-0.244l0.037,-0.178l0.041,-0.113l0.042,-0.044l0.058,-0.002l0.034,0.008h0.054l0.079,-0.048l0.175,-0.191l0.154,-0.114l0.074,-0.01l0.039,0.018l0.012,0.052l0.036,0.064h0.022l0.02,-0.028l-0.016,-0.116l-0.082,-0.179l-0.103,-0.134l-0.17,-0.184l-0.075,-0.03l-0.111,-0.009l-0.232,0.024l-0.048,-0.009l-0.058,-0.048l-0.093,-0.172l-0.13,-0.169l-0.104,-0.07l-0.108,-0.035l-0.059,-0.002l-0.063,0.025l-0.11,0.086l-0.106,0.134l-0.054,0.091l-0.012,-0.001l-0.021,-0.018l-0.045,-0.011l-0.043,0.003l-0.029,-0.014l-0.003,-0.018l0.015,-0.036v-0.019l-0.041,-0.055l-0.01,-0.052l-0.005,-0.065l-0.033,-0.133l-0.042,-0.079l-0.078,-0.071l-0.027,-0.002l-0.013,0.02l-0.016,-0.005l0.001,-0.046l-0.048,-0.109l-0.114,-0.127l-0.034,0.002l-0.005,-0.012l0.024,-0.028l0.035,-0.014l0.081,-0.089l0.016,-0.037l-0.007,-0.013l-0.044,0.014l-0.035,0.045l-0.008,0.035l-0.018,0.02l-0.041,0.008l-0.102,0.055l-0.03,-0.001l-0.003,-0.02l0.024,-0.093l-0.001,-0.05l-0.037,-0.056l0.115,-0.02l0.038,0.003l0.047,0.074l0.013,0.002l0.076,-0.115l0.045,-0.029l0.048,-0.009l0.032,-0.039l0.025,-0.104l0.029,-0.034l0.051,-0.024l0.018,-0.027l0.006,-0.052l0.032,-0.025h0.059l0.054,0.015l0.072,-0.009l0.005,-0.03l0.165,0.001l0.225,0.072l0.429,-0.012l0.119,-0.107l0.156,-0.266l0.073,-0.075l0.509,-0.299l-0.018,-0.141l-0.118,-0.163l-0.021,-0.09l-0.081,-0.178l-0.003,-0.06l0.038,-0.05l0.006,-0.033l0.03,-0.03l0.01,-0.036l0.046,-0.032l0.03,0.006l0.017,-0.01l0.012,-0.056l0.026,-0.018l0.074,-0.004l0.026,0.014v0.044l-0.044,0.056v0.024l0.02,0.014l0.143,-0.012l0.05,0.008l0.058,0.026l0.082,0.01l0.135,0.067l0.038,0.002l0.034,-0.016h0.032l0.028,0.026l0.073,0.02l0.144,0.086l0.028,-0.004l0.079,-0.086l0.034,-0.018l0.036,-0.05l0.02,-0.041l0.032,-0.036l0.056,-0.036l0.031,-0.056l0.026,-0.082h0.036l0.058,0.05h0.034l0.026,-0.02l0.044,0.002l0.033,0.038l0.046,0.012l0.142,-0.012l0.097,-0.038l0.391,-0.097l0.123,-0.066l0.068,-0.052l0.046,-0.02l0.087,-0.006l0.062,-0.018l0.03,0.008l0.104,0.215l0.205,0.271l-0.05,0.118l0.008,0.024l0.169,0.067l0.134,0.014l0.006,-0.014l-0.018,-0.027l-0.002,-0.042l0.087,-0.062v-0.022l-0.015,-0.024l0.005,-0.05l0.02,-0.004l0.21,0.196l0.205,0.147l0.091,0.02l0.269,-0.004l0.088,0.066v-0.174l-0.082,-0.163l-0.099,-0.117v-0.026l0.04,-0.062v-0.024l-0.02,-0.032l-0.002,-0.088l0.02,-0.023h0.047l0.096,0.033l0.05,-0.006l0.004,-0.027l-0.038,-0.076l-0.024,-0.183l-0.112,-0.18l-0.035,-0.002l-0.092,0.04l-0.032,0.044h-0.02l-0.056,-0.074l-0.026,-0.012h-0.033l-0.022,-0.01l-0.042,-0.059l-0.066,-0.048l-0.054,-0.02l-0.022,-0.026l-0.033,-0.165l-0.024,-0.014l-0.05,-0.004l-0.046,-0.018l-0.036,-0.002l-0.02,0.006l-0.046,-0.01l-0.101,-0.064l-0.06,-0.104l-0.004,-0.047l0.01,-0.046l-0.006,-0.046l-0.028,-0.03l-0.073,-0.002l-0.034,0.022h-0.02l-0.008,-0.02l0.016,-0.042l0.002,-0.063l0.036,-0.1l0.017,-0.06l-0.006,-0.028l-0.031,-0.03v-0.069l0.045,-0.082l0.054,-0.046l0.002,-0.048l-0.02,-0.035l-0.057,-0.02l-0.01,-0.038l0.021,-0.068l-0.004,-0.04l-0.015,-0.016l-0.002,-0.034l0.023,-0.047l-0.009,-0.086l-0.07,-0.08h-0.034l-0.03,0.01l-0.072,-0.01l-0.038,-0.024l-0.021,-0.069v-0.08l0.016,-0.022l0.045,-0.006l0.028,-0.044l0.018,-0.065l0.06,-0.062l0.09,-0.042l0.051,0.008l0.102,0.082l0.09,0.041l0.035,-0.002l0.09,-0.085l0.004,-0.08l0.05,-0.052l0.034,-0.018l0.036,-0.073l0.01,-0.052l-0.016,-0.046l0.016,-0.05l0.055,-0.038l0.13,-0.01l0.087,0.042l0.05,0.056l0.06,0.026h0.06l0.056,0.018l0.031,-0.002l0.086,-0.048l0.032,0.004l0.02,0.04l0.058,0.04l0.039,0.002l0.04,-0.01l0.11,0.026l0.04,0.038l0.002,0.043l0.089,0.076l0.008,0.032l0.022,0.008l0.048,-0.014l0.026,-0.032l0.024,-0.002l0.02,0.01l0.03,-0.002l0.079,-0.044l0.094,0.006l0.09,0.056l0.043,0.008l0.034,0.02l0.042,0.002l0.018,-0.022l-0.002,-0.044l-0.06,-0.08l-0.012,-0.051l-0.042,-0.064l-0.021,-0.08l0.002,-0.052l0.103,-0.153v-0.04l-0.022,-0.05l0.006,-0.061l0.03,-0.03l0.038,0.002l0.024,-0.022l-0.189,-0.375l0.01,-0.012l0.063,-0.002l0.026,-0.019l0.018,-0.028l0.048,-0.004l0.038,0.018l0.03,0.039l0.038,0.012l0.051,-0.004l0.042,-0.037l0.054,0.002l0.05,0.029l0.348,-0.004l0.014,0.014l0.004,0.028h0.012l0.016,-0.042l0.014,0.002l0.016,0.026l0.044,0.006l0.004,-0.018l-0.03,-0.03l0.004,-0.041l0.026,0.002l0.066,0.045l0.021,0.04l0.044,0.002l0.106,-0.042l0.105,-0.111l-0.002,-0.042l0.024,-0.032l0.036,-0.028l0.03,-0.044l0.012,-0.051l0.072,-0.076l0.044,-0.022l0.073,0.004l0.054,0.03l0.076,0.016l0.066,-0.008l0.063,0.004l0.076,0.026l0.072,-0.002l0.109,-0.042l0.028,-0.032l0.112,-0.054l0.028,-0.065l0.055,-0.032l0.038,-0.004l0.068,-0.052l0.052,-0.076l0.051,-0.008l0.002,-0.018l-0.023,-0.038l0.004,-0.031l0.025,-0.006l0.031,0.015l0.03,-0.009l0.018,-0.021l0.002,-0.036l0.039,-0.049l0.08,-0.037l0.021,-0.03l0.004,-0.047l0.038,-0.093l0.041,-0.029l0.059,-0.015l0.069,-0.047l0.065,-0.012l0.046,0.012l0.033,-0.006l0.109,-0.072l0.025,-0.03l0.112,-0.009l0.025,-0.011l0.022,0.005l0.009,0.022l0.043,0.002l0.062,-0.033l0.023,0.003l0.025,0.045l0.074,0.057l0.036,0.071l0.017,0.068l0.089,0.081h0.046l0.032,-0.026l0.009,-0.084l0.048,-0.074l0.098,-0.072l0.104,-0.044l0.08,-0.066l0.048,-0.024l0.018,-0.036v-0.036l0.021,-0.029l0.002,-0.033l-0.032,-0.059l0.003,-0.049l0.083,-0.15l0.004,-0.058l0.033,-0.041l-0.003,-0.063l-0.051,-0.06v-0.034l0.048,-0.039l0.014,-0.048l0.03,-0.036l0.002,-0.024l-0.026,-0.032v-0.048l0.017,-0.047l-0.002,-0.057l-0.051,-0.075l-0.002,-0.115l0.032,-0.046l-0.005,-0.038l-0.066,-0.081l-0.003,-0.038l0.026,-0.033l0.001,-0.029l-0.024,-0.056l0.002,-0.164l-0.026,-0.087l-0.051,-0.051l-0.039,-0.018l-0.036,-0.071l-0.071,-0.08l-0.02,-0.081l0.002,-0.039l0.021,-0.027l-0.003,-0.029l-0.045,-0.071v-0.086l0.03,-0.031l0.006,-0.067l-0.026,-0.049l0.005,-0.073l0.506,-1.278l-0.042,-0.606l-0.172,-0.384l-0.003,-0.129l-0.081,-0.143l-0.05,-0.143l-0.155,-0.122l-0.089,-0.024l-0.057,-0.044v-0.026l0.027,-0.043l-0.002,-0.032l-0.018,-0.026v-0.024l0.056,-0.063v-0.024l-0.051,-0.048l0.001,-0.036l0.047,-0.059v-0.074l-0.048,-0.051l-0.014,-0.053l0.002,-0.147l-0.041,-0.053l-0.065,-0.009l-0.068,0.021l-0.073,-0.003l-0.109,-0.092l0.003,-0.039l0.023,-0.035l0.007,-0.105l0.015,-0.027l-0.007,-0.04l-0.084,-0.087l-0.035,-0.003l-0.014,-0.013l0.014,-0.077l0.069,-0.085l0.015,-0.064l0.033,-0.036l0.041,-0.017l0.042,-0.098l0.053,-0.072l0.004,-0.033l-0.022,-0.024v-0.029l0.033,-0.042l-0.005,-0.106l-0.061,-0.087l0.004,-0.047l0.054,-0.081l0.002,-0.045l0.053,-0.056l0.051,-0.015l0.015,-0.021l0.009,-0.062l0.018,-0.05l0.015,-0.001l0.051,0.033l0.059,0.011l0.026,-0.008l0.006,-0.081l0.034,-0.036l0.017,-0.068l-0.008,-0.053l0.033,-0.113l-0.007,-0.027l0.006,-0.019l0.044,-0.032l0.031,-0.089l0.003,-0.045l-0.024,-0.033l-0.006,-0.047l-0.016,-0.032l0.012,-0.033l0.042,-0.016l0.031,-0.032l0.011,-0.035l0.024,-0.025l0.027,-0.003l0.002,-0.03l-0.035,-0.085l0.002,-0.025l0.015,-0.011v-0.022l-0.015,-0.023l0.003,-0.02l0.022,-0.015v-0.016l0.001,-0.115l-0.018,-0.016l-0.102,0.001l-0.01,-0.011l0.012,-0.03l0.054,-0.034l0.006,-0.035l-0.045,-0.085l-0.045,-0.022l-0.028,-0.029l0.001,-0.028l0.063,-0.074l0.125,-0.086l0.048,-0.066l0.037,-0.014l0.03,-0.038l-0.002,-0.032l-0.015,-0.047l-0.024,-0.017l-0.032,-0.003l-0.037,-0.029l-0.062,-0.009l-0.05,-0.051l-0.006,-0.029l-0.019,-0.013l-0.067,-0.003l-0.019,-0.015l-0.002,-0.026l-0.018,-0.012l-0.027,-0.005l-0.034,-0.04l-0.005,-0.023l0.011,-0.019l-0.002,-0.019l-0.046,-0.044l-0.001,-0.012l0.027,-0.006l0.001,-0.017l-0.025,-0.024l-0.001,-0.054l0.02,-0.032l0.044,-0.013l0.025,0.002l0.012,0.015h0.014l0.132,-0.098h0.03l0.107,0.059l0.038,0.008l0.024,-0.014l0.012,-0.062l0.018,-0.005l0.033,0.017l0.039,-0.002l0.017,-0.018l-0.001,-0.028l-0.02,-0.033l-0.03,-0.014l-0.026,-0.049l0.003,-0.024l0.073,-0.056l0.004,-0.033l-0.036,-0.053l0.001,-0.018l0.04,-0.018l0.013,-0.036l-0.009,-0.02l-0.037,-0.025l-0.033,-0.082l-0.033,-0.034l-0.046,-0.026l0.002,-0.017l0.041,-0.027h0.036l0.019,-0.014l0.031,-0.002l0.011,-0.023l-0.001,-0.022l0.036,-0.017v-0.01l-0.028,-0.018l-0.012,-0.045l-0.002,-0.07l-0.016,-0.029l0.001,-0.062l0.025,-0.067l0.025,-0.015l0.02,-0.005l0.001,-0.021l-0.03,-0.036l-0.055,-0.024l-0.022,-0.033l-0.003,-0.048l0.011,-0.025l-0.001,-0.025l-0.033,-0.04l0.001,-0.018l0.045,-0.027l0.013,-0.02l0.004,-0.024l0.024,-0.033l-0.002,-0.016l-0.039,-0.003l-0.02,-0.01l-0.014,0.002l-0.015,0.019l-0.033,0.006l-0.057,0.058l-0.034,0.009l-0.028,-0.003l-0.03,-0.028l-0.027,-0.008h-0.042l-0.044,-0.037l-0.001,-0.041l0.031,-0.048l0.001,-0.017l-0.015,-0.016l-0.001,-0.036l-0.021,-0.018l-0.012,-0.037l-0.042,-0.023l-0.046,-0.006l-0.033,0.01l-0.008,-0.012l0.01,-0.022l-0.003,-0.017l-0.049,-0.036l-0.097,-0.013h-0.027l-0.017,0.015l-0.001,0.022l-0.021,0.009l-0.063,-0.003l-0.03,-0.014l-0.03,-0.001l-0.02,0.01l-0.019,-0.006l-0.006,-0.074l-0.053,-0.145l0.002,-0.05l-0.015,-0.015l-0.028,-0.001l-0.028,-0.016l-0.004,-0.018l0.029,-0.047l-0.007,-0.027l-0.025,-0.011l-0.009,-0.018v-0.035l-0.035,-0.031l-0.043,-0.012h-0.059l-0.032,0.011l-0.027,-0.002l-0.042,-0.039l-0.001,-0.053l-0.014,-0.018l-0.028,-0.012l-0.001,-0.045l0.032,-0.059v-0.078l-0.025,-0.034l-0.005,-0.023l-0.024,-0.014l-0.028,-0.001l-0.011,-0.014l0.009,-0.043l-0.023,-0.023l-0.029,-0.001l-0.068,0.022l-0.025,-0.011l-0.003,-0.049l0.023,-0.036l0.003,-0.044l0.032,-0.034l-0.002,-0.08l-0.046,-0.063l0.005,-0.023l0.055,-0.049l0.025,-0.004l0.028,0.012l0.022,-0.005l0.04,-0.035l0.031,-0.008l0.014,-0.03l0.017,-0.004l0.023,0.005l0.04,-0.027l0.041,-0.008l0.027,-0.026l0.01,-0.03l0.055,-0.023l0.069,-0.012l0.044,-0.002l0.021,-0.015l0.026,0.001l0.029,0.032l0.018,-0.001l0.046,-0.024l0.038,-0.058l0.027,-0.014l0.036,-0.061l0.019,-0.088l0.054,-0.107l-0.009,-0.021l0.011,-0.016l0.028,-0.013l0.045,-0.1l-0.003,-0.025l-0.057,-0.038l-0.008,-0.03l0.005,-0.059l0.035,-0.033v-0.026l-0.025,-0.05h-0.017l-0.019,0.025l-0.037,0.017h-0.044l-0.024,-0.014l-0.021,0.004l-0.041,0.069l-0.028,0.001l-0.036,-0.034h-0.019l-0.041,0.038h-0.061l-0.04,0.025l-0.014,-0.005l-0.007,-0.032l-0.027,-0.016l-0.028,-0.007l-0.059,-0.065l-0.053,-0.104l-0.025,-0.006l-0.017,0.007l-0.025,-0.011l-0.012,-0.058l-0.022,-0.012l-0.026,-0.004l-0.027,-0.033l-0.034,-0.001l-0.037,0.029l-0.022,-0.001l-0.042,-0.019l-0.042,-0.001l-0.031,-0.013l-0.067,-0.064l-0.042,-0.016l-0.04,-0.082l-0.012,-0.066l0.002,-0.035l0.032,-0.037l-0.001,-0.018l-0.017,-0.017v-0.013l0.023,-0.022v-0.047l-0.027,-0.042l-0.218,-0.156l-0.048,-0.001l-0.014,0.024h-0.017l-0.035,-0.01l-0.023,0.001l-0.014,0.019h-0.017l-0.053,-0.034l-0.017,-0.001l-0.02,0.029l-0.014,-0.002l-0.011,-0.019l-0.026,-0.016h-0.024l-0.096,0.038l-0.017,-0.001l-0.016,-0.027l-0.002,-0.152l-0.038,-0.034l-0.114,-0.034l-0.099,-0.092l-0.019,-0.05l-0.002,-0.027l0.025,-0.039l-0.002,-0.015l-0.025,-0.001l-0.014,0.015l-0.029,-0.001l-0.026,-0.027l-0.005,-0.029l0.041,-0.044l0.001,-0.048l-0.018,-0.033l-0.021,-0.012l0.003,-0.029l0.044,-0.048l0.004,-0.078l-0.025,-0.053l-0.08,-0.065l-0.088,-0.026l-0.024,0.008l-0.006,0.035l-0.027,0.019l0.003,0.02l0.021,0.016l-0.083,0.214l-0.022,-0.001l-0.047,-0.026h-0.035l-0.028,0.02v0.021l0.019,0.033l-0.006,0.062l-0.028,0.039l-0.066,0.007l-0.011,0.02l-0.003,0.023l-0.015,0.018l-0.017,-0.006l-0.009,-0.055l0.003,-0.042l-0.015,-0.007l-0.016,0.001v0.017l0.009,0.015l-0.003,0.018l-0.02,-0.003l-0.031,-0.03l-0.049,-0.024l-0.033,0.006l-0.019,-0.012l0.012,-0.027l-0.011,-0.026l-0.021,-0.005l-0.01,0.02l-0.014,-0.002l-0.006,-0.07l-0.017,-0.015l-0.021,0.004l-0.012,-0.015v-0.066l0.015,-0.015v-0.021l-0.043,-0.029l-0.02,-0.048l0.005,-0.069l0.049,-0.049l0.03,-0.01l0.003,-0.021l-0.024,-0.038l0.012,-0.027l-0.013,-0.009l-0.032,-0.006l-0.028,-0.024l-0.037,-0.006l-0.021,0.013v0.021l-0.012,0.003l-0.018,-0.025l0.003,-0.033l-0.019,-0.024l-0.064,-0.008l-0.04,0.018l-0.02,-0.001l-0.015,-0.021l0.005,-0.023l0.018,-0.014l-0.003,-0.027l-0.079,-0.079l-0.006,-0.053l-0.031,-0.063l-0.018,-0.098v-0.63l-0.121,-0.086l-0.01,-0.037l0.007,-0.074l0.032,-0.027l0.075,-0.001l0.012,-0.312l-0.007,-0.007l-0.014,0.001l-0.02,0.048l-0.047,0.071l-0.039,0.019l-0.031,-0.001l-0.071,-0.033l-0.059,-0.005l-0.035,-0.024l-0.008,-0.034l-0.02,-0.008l-0.046,0.014l-0.029,-0.004l-0.033,-0.039v-0.07l-0.021,-0.037l-0.062,-0.045v-0.027l0.038,-0.056l-0.006,-0.036l-0.079,-0.089l-0.057,-0.029l-0.023,-0.022l-0.001,-0.029l-0.014,-0.015l-0.03,-0.019l-0.027,-0.061l0.01,-0.029l-0.016,-0.022l-0.051,-0.028l-0.042,-0.072l0.004,-0.028l-0.014,-0.02l-0.048,-0.017l-0.012,-0.03l0.022,-0.022l0.042,0.002l0.036,-0.024l0.008,-0.028l-0.022,-0.016l-0.058,0.002l-0.012,-0.016l0.027,-0.025l-0.006,-0.02l-0.028,-0.021l-0.007,-0.028l0.009,-0.046l-0.011,-0.052l-0.03,-0.018h-0.07l-0.013,0.012l0.003,0.034l0.017,0.026v0.035l-0.054,0.054l-0.039,0.001l-0.012,0.027l-0.014,0.002l-0.023,-0.02l-0.037,-0.006l-0.091,-0.071l-0.037,-0.01l-0.089,-0.086l-0.032,-0.007l-0.07,-0.064l-0.009,-0.037l-0.04,-0.043l-0.043,-0.021l-0.038,-0.039l-0.063,-0.024l-0.871,-1.012l-0.027,0.006l-0.009,-0.012l0.02,-0.029l-0.015,-0.009l-0.046,0.009l-0.019,-0.015l-0.014,-0.06l-0.016,-0.006l-0.027,0.023l-0.024,-0.008l-0.101,-0.087l-0.038,-0.009l-0.05,0.024l-0.027,-0.002l-0.019,-0.028l-0.012,-0.175l-0.018,-0.004l-0.016,0.007l-0.021,-0.006l-0.01,-0.029l0.007,-0.051l-0.037,-0.049l-0.053,-0.011l-0.042,-0.038l-0.011,-0.037l-0.018,-0.03l-0.027,-0.02l-0.01,-0.027l0.024,-0.075l-0.003,-0.056l-0.032,-0.05l-0.044,-0.036l-0.064,-0.008l-0.032,-0.021l-0.023,-0.04l-0.025,-0.018l-0.032,-0.008l-0.027,-0.033l0.002,-0.024l0.042,-0.044l0.015,-0.051l0.004,-0.081l0.035,-0.061l0.03,-0.013l0.014,-0.098l-0.017,-0.027l-0.044,-0.011l-0.048,-0.051h-0.037l-0.022,0.02l-0.025,-0.005l-0.039,-0.046l-0.005,-0.053l0.014,-0.044l-0.009,-0.056l-0.039,-0.085l-0.028,-0.011l-0.039,0.008l-0.036,-0.006l-0.019,-0.023l-0.003,-0.078l-0.059,-0.064l-0.027,-0.001l-0.012,0.018l-0.02,-0.002l-0.018,-0.028l0.001,-0.05l0.026,-0.05l-0.02,-0.126h-0.018l-0.015,0.035l-0.015,0.003l-0.015,-0.016l0.024,-0.06l-0.009,-0.012l-0.033,0.008l-0.039,-0.003l-0.044,-0.017l-0.049,-0.003l-0.008,0.011l0.003,0.028l-0.022,0.045l-0.059,0.016l-0.028,0.033l-0.005,0.048l-0.02,0.006l-0.052,-0.015l-0.029,-0.034l-0.023,-0.001l-0.02,0.032l-0.034,-0.008l-0.049,-0.068l-0.064,-0.022l-0.052,-0.044l-0.003,-0.024l0.014,-0.037v-0.077l0.023,-0.068l-0.001,-0.037l-0.021,-0.016l-0.046,-0.002l-0.02,0.025l-0.02,0.087l-0.012,-0.002l-0.01,-0.031l-0.001,-0.033l-0.039,-0.018l-0.084,-0.005l-0.021,-0.013l-0.006,-0.045l-0.039,-0.076l-0.049,-0.027l-0.039,-0.003l-0.03,-0.013l-0.018,-0.031l-0.073,-0.033l-0.012,-0.039l0.009,-0.075l-0.025,-0.059l0.004,-0.065l-0.027,-0.03h-0.029l-0.027,0.017l-0.034,-0.006l-0.006,-0.051l-0.027,-0.021l0.001,-0.026l-0.015,-0.011l-0.033,0.006l-0.03,-0.016l-0.012,-0.045l-0.035,-0.015l-0.012,-0.043l0.006,-0.113l0.023,-0.058l0.001,-0.088l0.02,-0.021v-0.016l-0.012,-0.023l0.001,-0.03l0.033,-0.018l0.014,-0.039v-0.028l0.029,-0.012l0.004,-0.024l-0.019,-0.031l0.015,-0.068l0.054,-0.06l0.056,-0.01l0.056,0.018l0.032,-0.004l0.016,-0.032l-0.01,-0.038l0.008,-0.035l0.016,-0.022l-0.012,-0.038l-0.044,-0.028l-0.042,-0.002l-0.032,-0.02l-0.01,-0.038l-0.04,-0.022l-0.038,-0.01l-0.012,-0.03l0.018,-0.043l-0.012,-0.03l-0.043,-0.026l-0.054,0.008l-0.038,0.026l-0.084,-0.004l-0.024,0.008l-0.065,-0.002l-0.01,-0.02l0.026,-0.04l-0.034,-0.03l-0.072,-0.002l-0.046,-0.024l0.012,-0.036l-0.016,-0.004l-0.046,0.02h-0.081l-0.096,-0.004l-0.034,0.01l-0.03,-0.004l-0.025,-0.054l0.011,-0.061l-0.013,-0.04l-0.052,-0.034l-0.05,-0.004l-0.038,0.02h-0.034l-0.038,-0.012l-0.035,0.002l-0.022,0.036l-0.03,0.002l-0.056,-0.032l-0.114,0.006l-0.047,-0.01l-0.03,-0.028l-0.002,-0.022l-0.032,-0.01l-0.072,0.012l-0.06,-0.014l-0.018,-0.016v-0.026l-0.027,-0.018l-0.028,-0.002l-0.02,-0.012l-0.006,-0.061l-0.024,-0.014l-0.07,0.01l-0.058,-0.012l-0.024,-0.02l-0.017,-0.042l-0.036,-0.034l-0.058,-0.014l-0.032,-0.03l-0.014,-0.046l-0.107,-0.055l-0.044,0.002l-0.022,-0.012l-0.016,-0.044l-0.042,-0.048l-0.014,-0.052l-0.058,-0.061v-0.062l-0.034,-0.036h-0.027l-0.014,0.01l-0.036,-0.004l-0.038,-0.068l-0.044,-0.02l-0.032,0.002l-0.034,0.058l-0.022,0.002l-0.019,-0.008h-0.018l-0.014,0.016l-0.022,-0.004l-0.028,-0.03l-0.058,-0.04l-0.014,-0.051l-0.072,-0.084l-0.019,-0.064l-0.092,-0.05l-0.088,-0.014l-0.119,-0.059l-0.03,-0.002l-0.028,-0.03l-0.014,-0.056l-0.048,-0.028l-0.052,-0.002l-0.079,0.028l-0.066,-0.006l-0.052,-0.026l-0.006,-0.042l0.03,-0.077l-0.006,-0.03l-0.07,-0.018l-0.029,-0.04l-0.014,-0.054l-0.042,-0.032l-0.099,-0.007l-0.084,-0.036l-0.056,-0.05l-0.028,-0.008l-0.02,0.024l-0.018,-0.004l-0.04,-0.062l-0.068,-0.048l-0.083,0.002l-0.134,0.054l-0.04,-0.004l-0.037,-0.036l-0.11,-0.042l-0.155,-0.153l-0.016,-0.044l-0.048,-0.02h-0.034l-0.014,0.022l-0.028,-0.002l-0.028,-0.024v-0.038l0.052,-0.05l0.084,-0.004l0.042,-0.047l0.045,-0.006l0.064,-0.044l0.03,-0.064l-0.002,-0.038l0.062,-0.06l0.074,-0.023l0.043,0.009l0.028,-0.011l0.028,-0.04l0.038,-0.004l0.052,-0.04l0.026,0.008l0.012,0.024l0.039,0.006l0.018,-0.02l0.012,-0.092l-0.03,-0.026l0.004,-0.026l0.048,-0.043l0.016,-0.062l0.03,-0.026h0.038l0.028,0.01l0.02,-0.004l0.016,-0.036l-0.008,-0.034l-0.066,-0.05l-0.002,-0.024l0.02,-0.033l0.002,-0.1l-0.03,-0.052l-0.06,-0.042l-0.068,-0.101l-0.005,-0.056l0.023,-0.028l-0.002,-0.026l-0.037,-0.044l0.002,-0.028l0.049,-0.037v-0.034l0.018,-0.004l0.048,0.048l0.104,0.022l0.089,-0.008l0.05,-0.032l0.008,-0.062l0.022,-0.028h0.108l0.067,-0.034l0.096,-0.022l0.09,0.01l0.047,0.03l0.12,0.01l0.042,0.024l0.008,0.072l0.022,0.004l0.045,-0.026l0.054,-0.058l0.086,-0.026h0.091l0.034,-0.028l0.046,0.004l0.01,0.03v0.066l0.032,0.026l0.036,-0.004l0.022,0.022l0.002,0.039l0.03,0.024l0.049,0.006l0.044,-0.018l0.046,0.018l0.058,0.106l0.08,0.036h0.041l0.014,-0.018l0.03,0.006l0.028,0.024l0.034,-0.004l0.038,-0.066l0.083,-0.018l0.092,0.012l0.038,0.024h0.034l0.022,-0.038l-0.026,-0.072l0.012,-0.018l0.032,-0.006l0.01,-0.017l0.012,-0.056l0.021,-0.018l0.002,-0.03l-0.021,-0.038l0.006,-0.028l0.099,-0.067l0.03,-0.052l0.072,-0.066l0.042,-0.006l0.033,0.018l0.05,0.002l0.038,-0.044v-0.04l0.018,-0.02l0.038,-0.002l0.062,-0.057h0.023l0.026,0.016h0.064l0.04,-0.034l0.004,-0.112l0.03,-0.036l0.002,-0.036l-0.04,-0.029l0.004,-0.026l0.036,-0.022l0.01,-0.048l-0.022,-0.066l0.014,-0.115l0.044,-0.062l0.123,-0.052l0.072,-0.086l0.028,-0.085l0.006,-0.07l0.061,-0.08l0.102,-0.061l0.04,-0.052l0.012,-0.046l0.044,-0.052l-0.016,-0.024l-0.05,-0.004l-0.024,-0.016l-0.014,-0.041l-0.127,-0.086l-0.01,-0.042l0.018,-0.024l-0.008,-0.024l-0.062,-0.002l-0.068,0.04l-0.113,0.012l-0.13,-0.058l-0.034,-0.05l-0.135,-0.093l-0.064,-0.016l-0.155,-0.008l-0.12,-0.056l-0.046,0.002l-0.026,-0.01l-0.033,-0.044l-0.042,-0.018l-0.054,0.012l-0.032,-0.004l-0.062,-0.057l0.006,-0.112l0.028,-0.103l0.008,-0.138l-0.016,-0.042l0.012,-0.048l0.197,-0.115l0.038,-0.042l0.026,-0.012l0.054,0.016l0.05,-0.02l-0.006,-0.024l-0.036,-0.022l-0.078,-0.091l-0.083,-0.056l0.002,-0.026l0.017,-0.014l-0.006,-0.022l-0.043,-0.014l-0.048,0.004l-0.068,0.052l-0.01,0.032l-0.02,0.008l-0.008,0.018l0.014,0.024l-0.008,0.041l-0.042,0.03l-0.071,0.024l-0.06,-0.01l-0.042,0.002l-0.028,0.03l-0.032,0.002l-0.036,-0.016l-0.019,0.008l-0.006,0.046l-0.034,0.048l-0.05,0.01l-0.036,0.01l-0.022,0.024l-0.046,0.02l-0.071,-0.014l-0.024,-0.02l-0.024,-0.004l-0.04,0.006l-0.054,-0.004l-0.038,-0.036l-0.012,-0.082l0.042,-0.06l-0.012,-0.012l-0.032,-0.017l-0.053,-0.04l-0.028,0.006l-0.012,-0.014v-0.028l-0.014,-0.05l0.018,-0.034l0.024,-0.012l0.012,-0.016l-0.008,-0.022l0.014,-0.014l0.087,-0.004l0.038,-0.021l0.052,-0.044l0.107,-0.03l0.048,-0.03l0.06,-0.076l0.064,-0.024h0.032l0.016,-0.022l-0.004,-0.047l0.041,-0.096l0.044,-0.046l0.124,-0.028l0.056,0.01l0.025,-0.006l0.044,-0.049l0.036,-0.02l0.028,-0.05l0.028,-0.096l-0.014,-0.026l-0.048,-0.012l-0.07,0.004l-0.047,-0.016l-0.022,-0.035l-0.006,-0.048l-0.074,-0.082l-0.05,-0.012l-0.034,0.024l-0.034,0.002l-0.037,0.038l-0.028,-0.002l-0.036,-0.034l-0.036,-0.008l-0.026,-0.034v-0.084l-0.028,-0.077l-0.044,-0.048l-0.039,-0.008l-0.024,-0.012l-0.01,-0.046l-0.028,-0.014l-0.038,0.006l-0.014,0.014h-0.03l-0.097,-0.113l-0.04,-0.024l-0.014,0.004v0.022l-0.018,0.002l-0.054,-0.062l-0.088,-0.078l-0.025,0.01l-0.01,-0.014l0.021,-0.052l-0.025,-0.069l-0.06,-0.062l-0.036,-0.006l-0.024,-0.02l-0.006,-0.038l-0.038,-0.014l-0.06,0.02l-0.021,0.022l0.002,0.028l-0.012,0.024l-0.022,-0.002l-0.042,-0.038l-0.012,-0.03l0.016,-0.032l-0.02,-0.028l-0.149,-0.05l-0.026,-0.035l-0.022,-0.006l-0.034,0.014l-0.08,-0.008l-0.056,0.022l-0.033,-0.014l-0.02,-0.054l-0.05,-0.028l-0.034,0.002l-0.036,0.042l-0.088,0.018l-0.049,0.028l-0.006,0.018l0.012,0.02l-0.004,0.019l-0.02,0.012l-0.01,0.032l0.002,0.046l-0.028,0.028l-0.066,0.016l-0.086,-0.002l-0.039,-0.024l-0.058,-0.008l-0.046,0.046l-0.048,0.018l-0.022,-0.008l-0.018,-0.018l-0.026,-0.008l-0.045,0.008l-0.064,-0.014l-0.034,0.004l-0.058,0.052l-0.081,0.099l-0.028,0.012l-0.04,-0.012l-0.024,-0.02l-0.038,0.004l-0.036,0.03l0.004,0.028l-0.01,0.012h-0.022l-0.01,0.016l0.014,0.066l-0.022,0.03l-0.079,0.063l0.002,0.056l0.042,0.046l0.002,0.036l-0.01,0.026l0.002,0.026l0.016,0.022l-0.002,0.023l-0.056,0.034h-0.042l-0.034,0.018l-0.066,-0.004l-0.026,0.05l0.02,0.054l-0.004,0.05l0.012,0.02l0.024,0.012l0.01,0.041l-0.03,0.034l-0.051,0.006l-0.034,-0.008l-0.104,0.026l-0.04,-0.024l-0.008,-0.065l-0.02,-0.052l-0.022,-0.008l-0.027,0.006l-0.032,-0.018l-0.05,-0.068l-0.094,-0.056l-0.026,-0.032l-0.031,-0.014l-0.106,-0.013l-0.026,0.015l-0.032,-0.002l-0.03,-0.023l-0.032,-0.004l-0.041,0.012l-0.044,-0.018l-0.064,-0.112l-0.032,-0.016l-0.014,-0.034l0.008,-0.04l-0.014,-0.035l-0.046,-0.042l-0.029,-0.006l-0.052,0.052l-0.01,0.065l-0.036,0.014l-0.068,0.002l-0.028,0.034l-0.091,-0.002l-0.056,-0.074l-0.03,-0.004l-0.018,0.014l-0.04,0.002l-0.03,-0.041l-0.065,-0.034l-0.074,-0.006l-0.02,-0.022l0.002,-0.028l-0.036,-0.01l-0.066,0.05h-0.037l-0.066,-0.038l-0.042,-0.05l-0.002,-0.044l0.018,-0.044l-0.006,-0.039l-0.078,-0.088l-0.085,-0.016l-0.058,-0.036h-0.024l-0.024,0.034l-0.042,0.004l-0.044,-0.018l-0.026,0.002l-0.027,0.036h-0.024l-0.028,-0.074l0.002,-0.046l-0.016,-0.018l-0.04,-0.004l-0.024,-0.031l0.006,-0.068l-0.02,-0.046l-0.036,-0.036l-0.051,-0.115l-0.082,-0.142v-0.028l-0.016,-0.014l-0.038,-0.004l-0.022,-0.018l-0.03,-0.005l-0.034,0.015l-0.061,-0.008l-0.046,-0.023l-0.022,-0.05l0.01,-0.046l-0.016,-0.064l-0.06,-0.05l-0.004,-0.035l0.016,-0.022l-0.002,-0.03l-0.038,-0.046l-0.036,-0.014l-0.031,0.004l-0.056,-0.024l-0.002,-0.066l0.028,-0.091l-0.012,-0.096l-0.05,-0.054l-0.088,-0.047h-0.077l-0.04,0.031l-0.058,-0.004l-0.042,-0.033l0.004,-0.038l0.086,-0.08l0.085,-0.05l0.102,-0.004l0.046,-0.028l0.002,-0.034l-0.028,-0.069l0.016,-0.189l0.082,-0.112l0.014,-0.072l0.063,-0.091l-0.004,-0.024h-0.04l-0.075,0.089l-0.052,0.014l-0.032,0.024l-0.036,0.004l-0.01,-0.02l0.022,-0.056l0.038,-0.091l-0.006,-0.024l0.012,-0.022l0.048,-0.002l0.042,-0.066l0.006,-0.038l0.145,-0.139l0.046,-0.102l0.082,-0.067l0.011,-0.058l-0.025,-0.153l-0.02,-0.04v-0.062l0.026,-0.036v-0.042l-0.034,-0.024v-0.032l0.03,-0.039l0.002,-0.046l-0.048,-0.068l-0.006,-0.028l-0.022,-0.002l-0.042,0.054l-0.064,0.02l-0.081,0.002l-0.11,0.048l-0.02,0.034h-0.014l-0.06,-0.056l-0.025,-0.082l0.021,-0.086l-0.004,-0.127l-0.021,-0.066l-0.008,-0.101l-0.026,-0.03l-0.046,-0.004l-0.05,0.028l-0.024,0.063l0.02,0.07l0.004,0.088l0.032,0.161l-0.008,0.026l-0.04,0.018l-0.026,0.052l-0.036,0.036l-0.039,0.008l-0.054,0.063l-0.024,0.046l-0.07,0.06l-0.032,0.008l-0.036,-0.01l-0.127,0.004l-0.03,0.022l-0.034,-0.002l-0.036,-0.068l-0.03,-0.153l-0.051,-0.088l0.002,-0.092l0.055,-0.085v-0.056l-0.037,-0.042l-0.01,-0.048l0.008,-0.045l-0.026,-0.11l-0.104,-0.064l-0.012,-0.032l0.022,-0.073l-0.026,-0.076l-0.109,-0.04l-0.07,-0.042l-0.086,-0.079l-0.064,-0.028l-0.039,-0.004l-0.088,-0.092l-0.012,-0.054l0.022,-0.036l0.052,-0.007l0.044,-0.03v-0.028l-0.038,-0.026l-0.032,-0.006l-0.02,0.006l-0.04,-0.03l-0.046,-0.064l-0.095,-0.06l-0.024,-0.061l-0.002,-0.06l-0.026,-0.036l-0.092,-0.046l-0.038,0.004l-0.037,-0.018l-0.017,-0.069l-0.079,-0.059l-0.064,-0.001l-0.036,-0.026l-0.004,-0.069l-0.041,-0.048l-0.041,-0.025l-0.039,0.019l-0.071,-0.025l-0.013,-0.043l-0.026,-0.028l0.006,-0.03l-0.018,-0.01l-0.032,0.008l-0.055,-0.01l-0.022,-0.04l0.01,-0.024l-0.006,-0.022l-0.027,-0.016l-0.009,-0.036l0.012,-0.033l-0.01,-0.012l-0.076,-0.016l-0.068,-0.052l-0.047,-0.008l-0.006,-0.052l0.016,-0.032l0.045,-0.035l-0.008,-0.02l-0.055,-0.012l-0.038,-0.04l-0.01,-0.044l0.018,-0.018l-0.006,-0.026l-0.072,-0.062l-0.018,-0.049z"/>
</svg>
