<svg xmlns="http://www.w3.org/2000/svg" viewBox="1020.019 362.287 27.209 57.069">
  <path d="M1026.95,413.634l0.029,0.037l0.024,0.003l-0.003-0.039l-0.013-0.042l-0.029-0.003l-0.008,0.026V413.634L1026.95,413.634z M1026.307,412.118l0.016,0.02l0.053,0.167l0.024,0.018l0.031-0.004l0.039,0.016l0.022,0.031l0.018,0.012l0.038,0.003l0.037,0.007l0.024,0.018l0.035,0.064l0.02,0.026l0.031,0.021l0.034,0.055l0.038,0.116l0.077,0.331l0.023,0.214l0.024,0.055l0.029,0.029l0.01,0.053l0.018,0.039l0.027,0.002l0.012-0.018l0.043,0.002l0.043,0.026l0.012-0.008l-0.053-0.071l-0.002-0.02l0.02-0.024v-0.041l0.016-0.027l-0.001-0.027l-0.065-0.039v-0.024l0.031-0.105l0.005-0.076l0.01-0.034l0.034-0.039l0.026-0.118l0.034-0.078l0.034-0.026l0.039-0.076l0.003-0.081l-0.016-0.063v-0.042l0.01-0.047l0.005-0.06l-0.023-0.076v-0.044l0.013-0.044l-0.005-0.068l-0.139-0.152l-0.073-0.037l-0.055-0.076l-0.081-0.003l-0.036,0.039l-0.008,0.068l-0.026,0.039l-0.047,0.016l-0.031,0.031l-0.013,0.068l-0.06,0.052h-0.055l-0.157-0.05l-0.089,0.003l-0.025,0.029L1026.307,412.118L1026.307,412.118z M1026.894,413.739l0.003,0.012l0.016-0.002v-0.012l-0.011-0.007L1026.894,413.739L1026.894,413.739z M1026.863,413.789l0.012,0.001l0.001-0.015l-0.018-0.011l-0.008,0.012L1026.863,413.789L1026.863,413.789z M1028.116,412.412l0.014-0.01l-0.005-0.012l-0.019,0.005l-0.004,0.014L1028.116,412.412L1028.116,412.412z M1028.178,412.374l-0.005-0.012l-0.012,0.004l-0.005,0.013l0.012,0.004L1028.178,412.374L1028.178,412.374z M1026.925,413.47l0.014-0.006v-0.014l-0.012-0.011l-0.012,0.008l0.001,0.014L1026.925,413.47L1026.925,413.47z M1026.948,413.522l0.017,0.022l0.02,0.003l0.007-0.015l-0.02-0.02l-0.017-0.005L1026.948,413.522L1026.948,413.522z M1028.106,412.298l0.015,0.004l0.017-0.006l0.001-0.011l-0.011-0.01l-0.019,0.002l-0.005,0.01L1028.106,412.298L1028.106,412.298z M1029.995,413.657l-0.019-0.019l-0.003-0.03l0.021-0.034l0.034,0l0.011,0.03l-0.019,0.037L1029.995,413.657L1029.995,413.657z M1028.324,414.574l-0.002-0.016l0.009-0.01l0.013,0.014l0.002,0.016l-0.009,0.011L1028.324,414.574L1028.324,414.574z M1036.165,414.072l-0.017-0.016l-0.002-0.009l0.011-0.003l0.02,0.021l0.001,0.009L1036.165,414.072L1036.165,414.072z M1036.328,418.242l0.015-0.004l0.015,0.009l0.008,0.013l-0.02,0.006l-0.016-0.012L1036.328,418.242L1036.328,418.242z M1036.328,418.242l0.015-0.004l0.015,0.009l0.008,0.013l-0.02,0.006l-0.016-0.012L1036.328,418.242L1036.328,418.242z M1028.834,412.896l0.013-0.002l0.008,0.012l-0.007,0.013l-0.017,0.001l-0.007-0.013L1028.834,412.896L1028.834,412.896z M1028.741,413.068l0.01-0.012l0.018-0.003l0.004,0.015l-0.013,0.015l-0.018,0.001L1028.741,413.068L1028.741,413.068z M1028.845,417.353l0.013,0.003l0.014,0.018l-0.002,0.014l-0.008,0.006l-0.013-0.019L1028.845,417.353L1028.845,417.353z M1028.207,414.482h0.014l0.005,0.012l-0.007,0.012l-0.012-0.007V414.482L1028.207,414.482z M1026.949,413.729l0.011-0.009l0.012,0.006l0.002,0.014l-0.014,0.002L1026.949,413.729L1026.949,413.729z M1028.804,413.087l0.012-0.005l0.007,0.012l-0.001,0.012l-0.015,0.004l-0.008-0.01L1028.804,413.087L1028.804,413.087z M1027.245,414.031l0.004-0.012l0.014,0.003l0.008,0.008l-0.007,0.014h-0.012L1027.245,414.031L1027.245,414.031z M1028.861,412.784l0.012-0.003l0.013,0.016l0.004,0.016l-0.003,0.02l-0.015-0.004l-0.013-0.025L1028.861,412.784L1028.861,412.784z M1028.4,414.727l-0.012-0.004l-0.003-0.02l0.004-0.016l0.013-0.016l0.011,0.01l-0.001,0.028L1028.4,414.727L1028.4,414.727z M1028.388,414.806l0.01,0.001l0.008,0.011l-0.002,0.015l-0.014,0.003l-0.009-0.011L1028.388,414.806L1028.388,414.806z M1036.665,418.541l-0.003-0.017l0.01-0.012h0.012l0.004,0.015l-0.011,0.011L1036.665,418.541L1036.665,418.541z M1028.369,414.654l-0.015-0.009l-0.003-0.015l0.008-0.01l0.014,0.007l0.001,0.016L1028.369,414.654L1028.369,414.654z M1029.023,412.894l0.013-0.011l0.016,0.002l0.006,0.011l-0.011,0.011l-0.015-0.004L1029.023,412.894L1029.023,412.894z M1025.137,415.982l0.017-0.004l0.027,0.007l0.002,0.016l-0.019,0.007l-0.025-0.01L1025.137,415.982L1025.137,415.982z M1037.209,412.681l0.014-0.019l0.025,0.008l0.021,0.026l-0.008,0.034l-0.017-0.001l-0.022-0.024L1037.209,412.681L1037.209,412.681z M1037.209,412.681l0.014-0.019l0.025,0.008l0.021,0.026l-0.008,0.034l-0.017-0.001l-0.022-0.024L1037.209,412.681L1037.209,412.681z M1028.935,413.365l0.019-0.014l0.021,0.016l0.011,0.032l-0.019,0.029l-0.016-0.007l-0.013-0.03L1028.935,413.365L1028.935,413.365z M1036.291,414.206l0.019,0.007l0.022,0.038l-0.006,0.021l-0.019,0.005l-0.014-0.025l-0.009-0.031L1036.291,414.206L1036.291,414.206z M1025.185,415.95l0.004-0.011l0.016-0.005l0.01,0.005l0.003,0.015l-0.01,0.008l-0.015-0.001L1025.185,415.95L1025.185,415.95z M1030.061,419.352l-0.005-0.011l0.01-0.016l0.015-0.002l0.008,0.008l-0.006,0.017l-0.013,0.008L1030.061,419.352L1030.061,419.352z M1028.927,412.975l0.01,0.005l0.002,0.019l-0.01,0.011l-0.011-0.001l-0.006-0.017l0.004-0.015L1028.927,412.975L1028.927,412.975z M1037.054,418.275l0.01,0.007l0.005,0.02l-0.015,0.029l-0.011,0l-0.008-0.011l0.006-0.027L1037.054,418.275L1037.054,418.275z M1029.198,414.222l-0.007-0.03l0.027-0.043l0.057-0.023l0.063,0.017l0.003,0.03l-0.023,0.043l-0.076,0.013L1029.198,414.222L1029.198,414.222z M1028.224,414.557l0.01-0.005l0.015,0.028v0.025l-0.008,0.02l-0.002,0.048l0.015,0.045l-0.008,0.007l-0.038-0.018l-0.013-0.033l0.007-0.04l0.025-0.028l0.002-0.03L1028.224,414.557L1028.224,414.557z M1024.917,416.037v-0.02l0.036-0.031l0.086-0.009l0.049,0.009l0.002,0.024l-0.051,0.064l-0.029,0.02l-0.031-0.011l-0.004-0.029l-0.016-0.011L1024.917,416.037L1024.917,416.037z M1029.953,419.276v-0.027l0.042-0.053l0.022-0.013l0.012,0.002l0.007,0.032l-0.018,0.053l-0.018,0.013h-0.026L1029.953,419.276L1029.953,419.276z M1036.766,418.371l0.013-0.02l0.027-0.007l0.026,0.013l0.003,0.037l-0.013,0.017l-0.037-0.007L1036.766,418.371L1036.766,418.371z M1036.882,418.404l-0.01-0.03l0.036-0.02l0.027,0.007v0.027l-0.02,0.02L1036.882,418.404L1036.882,418.404z M1036.32,418.417l0.02-0.01l0.033,0.007l0.053,0.05l-0.003,0.017l-0.03,0.007l-0.056-0.027L1036.32,418.417L1036.32,418.417z M1036.41,418.374l0.007-0.05l0.113-0.159l0.176-0.113l0.07-0.003l0.01,0.02l-0.036,0.066l-0.043,0.043l-0.003,0.043l0.03,0.04l-0.023,0.017l-0.066-0.007l-0.063,0.037l-0.027,0.063l-0.003,0.033l0.027,0.049l-0.007,0.018l-0.038,0.004l-0.078-0.029L1036.41,418.374L1036.41,418.374z M1034.612,414.368l0.014-0.012l0.062,0.028l0.223,0.235l0.299,0.299l0.165,0.098l0.02,0.062l-0.032,0.139l-0.062,0.086l-0.072,0.04h-0.038l-0.03-0.034l-0.024-0.088l-0.136-0.235l-0.125-0.165l-0.104-0.112l-0.064-0.11l-0.06-0.167L1034.612,414.368L1034.612,414.368z M1033.84,413.517l0.113,0.062l0.118,0.107l0.089,0.119l0.002,0.021l-0.184-0.14l-0.111-0.06l-0.092-0.087l-0.014-0.035l0.009-0.006l0.027,0.011L1033.84,413.517L1033.84,413.517z M1034.525,414.277l-0.036-0.014l-0.038-0.052l-0.004-0.018l0.022,0.006l0.042,0.042L1034.525,414.277L1034.525,414.277z M1036.063,415.162l-0.048-0.008l-0.065,0.005l-0.057,0.018l-0.084,0.005l-0.047,0.021l-0.042,0.003l-0.026-0.015l-0.021-0.054l-0.038-0.047l-0.11-0.086l-0.191-0.104l-0.134-0.095l-0.215-0.182l-0.191-0.199l-0.024-0.047l-0.038-0.03l-0.089-0.044l-0.059-0.053l-0.243-0.297l-0.045-0.099l-0.057-0.068l-0.256-0.217l-0.117-0.065l-0.062-0.014l-0.083-0.036l-0.057-0.051l-0.036-0.086l-0.039-0.051l-0.104-0.087l-0.355-0.23l-0.089-0.08l-0.107-0.133l-0.044-0.116l-0.188-0.185l-0.194-0.142l-0.114-0.117l-0.101-0.146l-0.008-0.06l0.021-0.098l-0.021-0.027l-0.029-0.009l-0.075,0.008l-0.077-0.024l-0.133-0.114l-0.08-0.093l-0.045-0.117l0.006-0.026l0.109-0.081l0.024-0.038l-0.006-0.048l-0.088-0.233l0.004-0.114l0.03-0.106l0.022-0.004l0.042,0.068l0.076,0.221l0.12,0.229l0.066,0.074l0.115,0.07l0.024,0.03l0.028,0.004l0.044-0.02l0.102-0.004l0.074,0.054l0.07,0.141l0.03,0.203l0.044,0.036l0.088,0.014l0.096-0.006l0.112,0.018l0.145,0.042l0.076,0.068l0.032,0.066l0.048,0.054l0.052,0.147l0.068,0.068l0.062,0.02l0.048-0.008l0.058-0.04l0.092,0.002l0.086,0.028l0.044,0.04l0.044,0.01l0.115-0.004l0.054,0.018l0.026,0.03l0.056,0.012l0.084-0.014l0.088,0.008l0.149,0.048l0.179,0.026l0.082,0.04l0.169,0.181l0.014,0.08l0.04,0.098l0.205,0.217l0.118,0.056l0.167,0.139l0.522,0.524l0.163,0.187l0.052,0.04l0.02,0.034l-0.002,0.098l0.028,0.042l0.126,0.084l0.034,0.05l-0.002,0.088l0.03,0.058v0.12l-0.08,0.159l-0.054,0.074l-0.038,0.084l-0.138,0.1L1036.063,415.162L1036.063,415.162z M1034.059,413.773l0.116,0.08l0.044,0.05l-0.005,0.011l-0.109-0.066l-0.048-0.045l-0.015-0.029H1034.059L1034.059,413.773z M1034.17,413.754l0.087,0.086l0.042,0.062l-0.003,0.012l-0.027-0.011l-0.101-0.114l-0.021-0.044L1034.17,413.754L1034.17,413.754z M1032.235,411.981l-0.054-0.053l-0.026-0.044l0.015-0.014l0.056-0.001l0.047,0.042l0.001,0.035l-0.01,0.035H1032.235L1032.235,411.981z M1032.431,411.469l0.027-0.011l0.068,0.011l0.012,0.009l-0.008,0.011l-0.08,0.001L1032.431,411.469L1032.431,411.469z M1032.77,411.864l0.038,0.029l0.017,0.038l-0.009,0.005l-0.032-0.012l-0.024-0.021l-0.008-0.036L1032.77,411.864L1032.77,411.864z M1032.821,411.88l0.011-0.015l0.029,0.003l0.047,0.035l0.012,0.026l-0.009,0.009l-0.044,0.002l-0.027-0.027L1032.821,411.88L1032.821,411.88z M1034.533,412.562l-0.023-0.015l0.001-0.018l0.023-0.006l0.051,0.006l0.039,0.023l-0.002,0.009l-0.05,0.008L1034.533,412.562L1034.533,412.562z M1034.655,412.425l-0.036,0.009l-0.057-0.015l-0.081-0.051l-0.069-0.065l0.001-0.014l0.035-0.003l0.084,0.027l0.119,0.089L1034.655,412.425L1034.655,412.425z M1035.607,412.21l0.047,0.003l-0.003,0.012l-0.176,0.056l-0.044,0.001l-0.006-0.012l0.024-0.017L1035.607,412.21L1035.607,412.21z M1036.75,412.599l0.035,0.001l0.056,0.02l0.018,0.023l-0.01,0.006l-0.051-0.017l-0.044-0.021L1036.75,412.599L1036.75,412.599z M1036.03,412.371l0.007-0.012l0.041-0.005l0.053,0.021l0.086,0.057l-0.008,0.008l-0.09-0.014l-0.065-0.03L1036.03,412.371L1036.03,412.371z M1036.13,412.361l0.003-0.012l0.095,0.011l0.161,0.053l0.117,0.018l0.096,0.001l0.045,0.011l0.036,0.018l0.057,0.003l0.048-0.024l0.033-0.038h0.02l0.059,0.044l0.062,0.032l0.101,0.027l0.023,0.03l-0.009,0.083l-0.027,0.042l-0.03,0.015l-0.036-0.003l-0.176-0.104l-0.081-0.012h-0.075l-0.306-0.078l-0.065-0.029l-0.057-0.039L1036.13,412.361L1036.13,412.361z M1035.709,413.6l-0.078-0.072v-0.011l0.02,0.003l0.038,0.024l0.023,0.029l0.008,0.02L1035.709,413.6L1035.709,413.6z M1035.749,413.612l0.01-0.005l0.044,0.02l0.012,0.018v0.033l-0.012,0.001l-0.041-0.033L1035.749,413.612L1035.749,413.612z M1035.857,413.663l0.152,0.068l0.071,0.048l0.122,0.117l0.045,0.059l0.078,0.069l0.006,0.024l-0.01,0.029l-0.023,0.02l-0.029-0.005l-0.032-0.017l-0.03-0.053l-0.172-0.161l-0.105-0.083l-0.074-0.039l-0.026-0.033l0.003-0.038L1035.857,413.663L1035.857,413.663z M1034.959,412.781l0.021,0.015l0.003,0.015l-0.012,0.002l-0.016-0.012l-0.006-0.018L1034.959,412.781L1034.959,412.781z M1034.988,412.843l0.014-0.003l0.054,0.027l0.099,0.104l0.086,0.133l0.06,0.065l-0.001,0.018l-0.047-0.011l-0.102-0.075l-0.124-0.122l-0.036-0.081L1034.988,412.843L1034.988,412.843z M1035.428,413.295l0.01-0.004l0.049,0.029l0.045,0.044l0.006,0.018l-0.009,0.006l-0.044-0.02l-0.044-0.042L1035.428,413.295L1035.428,413.295z M1036.782,414.064l-0.133,0.148l-0.048,0.026l-0.038-0.011l-0.044-0.074l-0.12-0.134l-0.245-0.236l-0.104-0.075l-0.158-0.072l-0.193-0.139l-0.185-0.169l-0.09-0.065l-0.062-0.054l-0.02-0.042l-0.065-0.071l-0.126-0.179l-0.145-0.128l-0.161-0.17l-0.09-0.045l-0.051-0.008l-0.048-0.017l-0.039-0.029l-0.148-0.041h-0.169l-0.063,0.02h-0.045l-0.039-0.014l-0.053-0.051l0.003-0.027l0.056-0.067l0.109-0.073h0.018l0.042,0.023l0.06,0.07l0.131,0.068l0.095,0.027l0.039,0.001l0.06-0.02l0.056,0.003l0.078,0.016l0.084,0.057l0.07,0.056l0.069,0.02l0.065-0.001l0.176-0.06l0.081,0.001l0.113,0.05l0.051,0.048l0.045,0.081l0.039,0.133l0.093,0.166l0.211,0.238l0.176,0.176l0.105,0.06l0.12,0.027l0.077,0.033l0.118,0.078l0.11,0.047l0.087,0.047l0.039,0.047l0.029,0.072l0.045,0.062l-0.006,0.032L1036.782,414.064L1036.782,414.064z M1036.872,413.244l-0.024,0.013l-0.012,0.038l0.009,0.047l0.02,0.024v0.042l-0.021,0.038l-0.05,0.018l-0.039,0.048l-0.036,0.053l-0.057,0.014l-0.113-0.033l-0.109-0.055l-0.101-0.079l-0.069-0.03l-0.143-0.044l-0.107-0.095l-0.043-0.08l-0.114-0.118l-0.154-0.224l-0.014-0.058l-0.023-0.043l-0.087-0.095l-0.058-0.062l-0.064-0.047l-0.077-0.027l-0.106,0.007l-0.037,0.033l-0.082,0.035l-0.074,0.002l-0.064-0.02l-0.138-0.09l0.005-0.024l0.155-0.08l0.122-0.032l0.132-0.017l0.12,0.008l0.074-0.006l0.139-0.044l0.092-0.003l0.065,0.009l0.13,0.077l0.09,0.068l0.178,0.069l0.366,0.093l0.181,0.057l0.14,0.057l0.236,0.126l0.072,0.018l0.021,0.017l0.005,0.02l0.047,0.047l0.014,0.048v0.068l-0.02,0.05l-0.032,0.026l-0.024,0.06l-0.027,0.02l-0.045,0.005l-0.054,0.038l-0.039,0.057l-0.039,0.023l-0.081,0.02l-0.023-0.012l-0.003-0.029l0.026-0.03l0.005-0.045l-0.03-0.054l-0.048-0.056l-0.052-0.093l-0.057-0.046l-0.06-0.029l-0.044-0.064l-0.006,0.011l0.012,0.05l0.027,0.028l0.055,0.026l0.053,0.043l0.049,0.087l0.049,0.051l0.03,0.044l-0.001,0.017L1036.872,413.244L1036.872,413.244z M1035.672,412.793l0.015,0.029l-0.001,0.022l-0.007,0.002l-0.015-0.029v-0.021L1035.672,412.793L1035.672,412.793z M1035.702,412.861h0.009l0.111,0.16l0.002,0.024l-0.011-0.002l-0.062-0.065l-0.04-0.067L1035.702,412.861L1035.702,412.861z M1035.859,413.064l0.082,0.082l0.015,0.021l-0.004,0.01l-0.024-0.01l-0.054-0.048l-0.022-0.047L1035.859,413.064L1035.859,413.064z M1036.21,413.421l0.003-0.01l0.029-0.002l0.037,0.012l0.008,0.016l-0.011,0.01l-0.043-0.004L1036.21,413.421L1036.21,413.421z M1038.212,411.733l0.04-0.028l0.09,0.002l0.1,0.034l0.02,0.046l-0.012,0.04l-0.066,0.036l-0.088-0.008l-0.086-0.082L1038.212,411.733L1038.212,411.733z M1045.352,411.621l-0.002,0.02l-0.017,0.007l-0.011-0.015l0.006-0.014l0.014-0.002L1045.352,411.621L1045.352,411.621z M1045.352,411.621l-0.002,0.02l-0.017,0.007l-0.011-0.015l0.006-0.014l0.014-0.002L1045.352,411.621L1045.352,411.621z M1044.811,408.903l0.002-0.013l0.017-0.01l0.019,0.007l-0.002,0.018l-0.016,0.007l-0.014-0.001L1044.811,408.903L1044.811,408.903z M1045.212,411.398l0.062,0.012l0.06,0.096l-0.002,0.058l-0.04,0.028l-0.062-0.018l-0.04-0.06l-0.006-0.094L1045.212,411.398L1045.212,411.398z M1046.301,406.838l-0.017,0.005l-0.018-0.013l-0.002-0.027l0.015-0.003l0.018,0.021L1046.301,406.838L1046.301,406.838z M1046.291,406.638l0.005-0.027l0.049-0.029l0.047,0.002l0.009,0.026l-0.034,0.028l-0.054,0.017L1046.291,406.638L1046.291,406.638z M1046.654,403.726l0.008-0.041l0.055-0.032l0.056,0.008l0.043,0.023l0.032,0.001l0.04-0.007l0.061,0.037l0.022,0.075l0.034,0.046l0.021,0.07l0.028,0.032l-0.004,0.021l-0.034,0.007l-0.054-0.021l-0.111-0.102l-0.047-0.019l-0.019-0.019l-0.005-0.026l-0.034-0.02l-0.066-0.009L1046.654,403.726L1046.654,403.726z M1046.392,405.195l0.009-0.02l0.033-0.008l0.032,0.02l0.044-0.005l0.05-0.021l0.074,0.003l0.02,0.03l0.024,0.003l0.029-0.014l0.036,0.017l0.024,0.083l-0.021,0.036l-0.048,0.005l-0.053-0.021l-0.018,0.003l-0.012,0.032l-0.044,0.003l-0.056-0.051l-0.059-0.035L1046.392,405.195L1046.392,405.195z M1043.705,391.22l-0.014-0.042l-0.03-0.023l-0.027-0.002l-0.011-0.017l0.018-0.053l0.03-0.011l0.027,0.011l0.006,0.026l0.035,0.032l0.044,0.009l0.032,0.036l-0.007,0.09l-0.017,0.006L1043.705,391.22L1043.705,391.22z M1042.959,391.505l0.006-0.015l0.065,0.021l0.048,0.036l-0.001,0.021l-0.02,0.014l-0.029-0.011l-0.038-0.042L1042.959,391.505L1042.959,391.505z M1043.565,391.246l-0.01-0.01l0.006-0.024l0.026-0.015l0.007,0.01l-0.01,0.021L1043.565,391.246L1043.565,391.246z M1039.362,386.567l0.005,0.026l-0.018,0.015l-0.032-0.018l-0.003-0.024l0.027-0.016L1039.362,386.567L1039.362,386.567z M1043.425,391.107l0.006-0.018l0.029-0.001l0.017,0.017l-0.008,0.017h-0.021L1043.425,391.107L1043.425,391.107z M1045.797,393.156l0.014-0.004l0.012,0.01l-0.003,0.012l-0.014,0.006l-0.014-0.01L1045.797,393.156L1045.797,393.156z M1045.797,393.156l0.014-0.004l0.012,0.01l-0.003,0.012l-0.014,0.006l-0.014-0.01L1045.797,393.156L1045.797,393.156z M1045.882,393.353l0.004-0.031l0.063-0.012l0.059,0.031l0.012,0.031l-0.027,0.016l-0.059-0.004L1045.882,393.353L1045.882,393.353z M1043.802,391.372l-0.011-0.006l-0.004-0.019l0.013-0.015l0.016,0.008l0.001,0.017l-0.006,0.012L1043.802,391.372L1043.802,391.372z M1043.802,391.372l-0.011-0.006l-0.004-0.019l0.013-0.015l0.016,0.008l0.001,0.017l-0.006,0.012L1043.802,391.372L1043.802,391.372z M1046.842,399.987l0,0.025l-0.029,0.005l-0.027-0.042l0.003-0.039l0.018-0.008L1046.842,399.987L1046.842,399.987z M1046.633,405.409l0.001-0.025l0.025-0.004l0.035,0.013l0,0.019l-0.018,0.011L1046.633,405.409L1046.633,405.409z M1046.727,405.853l0.014,0.014l-0.001,0.019l-0.017,0.006l-0.017-0.017l0.003-0.014L1046.727,405.853L1046.727,405.853z M1046.895,404.645l0.013-0.004l0.018,0.017l0,0.03l-0.012,0.001l-0.014-0.019L1046.895,404.645L1046.895,404.645z M1046.895,404.645l0.013-0.004l0.018,0.017l0,0.03l-0.012,0.001l-0.014-0.019L1046.895,404.645L1046.895,404.645z M1046.408,404.571l-0.002,0.021l-0.025,0.005l-0.022-0.025l0.007-0.021l0.023-0.005L1046.408,404.571L1046.408,404.571z M1046.408,404.571l-0.002,0.021l-0.025,0.005l-0.022-0.025l0.007-0.021l0.023-0.005L1046.408,404.571L1046.408,404.571z M1046.651,403.332l0.012,0.004l-0.005,0.018l-0.021,0.012l-0.007-0.008l0.007-0.02L1046.651,403.332L1046.651,403.332z M1046.651,403.332l0.012,0.004l-0.005,0.018l-0.021,0.012l-0.007-0.008l0.007-0.02L1046.651,403.332L1046.651,403.332z M1046.759,401.236l0.007-0.009l0.02,0.004l0.008,0.016l-0.007,0.009l-0.024-0.007L1046.759,401.236L1046.759,401.236z M1046.803,403.62l0.001-0.013l0.016-0.004l0.012,0.011l-0.004,0.016l-0.014,0.002L1046.803,403.62L1046.803,403.62z M1046.811,404.197l0.016-0.011l0.022,0.011l0.016,0.029l-0.007,0.018l-0.021-0.006L1046.811,404.197L1046.811,404.197z M1046.811,404.197l0.016-0.011l0.022,0.011l0.016,0.029l-0.007,0.018l-0.021-0.006L1046.811,404.197L1046.811,404.197z M1046.37,405.339l-0.018-0.006l-0.001-0.029l0.017-0.017l0.017,0.008v0.021L1046.37,405.339L1046.37,405.339z M1046.842,405.008l0.011-0.013l0.016-0.001l0.008,0.01l-0.009,0.013l-0.016-0.001L1046.842,405.008L1046.842,405.008z M1046.842,405.008l0.011-0.013l0.016-0.001l0.008,0.01l-0.009,0.013l-0.016-0.001L1046.842,405.008L1046.842,405.008z M1046.62,404.21l-0.004-0.016l0.025-0.024l0.035-0.006l-0.001,0.016l-0.029,0.022L1046.62,404.21L1046.62,404.21z M1046.993,403.581l0.004-0.011l0.016-0.005l0.01,0.005l0.003,0.015l-0.01,0.008l-0.015-0.001L1046.993,403.581L1046.993,403.581z M1046.406,405.349l0.01-0.007l0.021,0.002l0.023,0.024l-0.004,0.011l-0.014,0.004l-0.024-0.015L1046.406,405.349L1046.406,405.349z M1046.406,405.349l0.01-0.007l0.021,0.002l0.023,0.024l-0.004,0.011l-0.014,0.004l-0.024-0.015L1046.406,405.349L1046.406,405.349z M1036.039,383.028l0.01-0.007l0.018,0.01l0.01,0.014l0.004,0.02l-0.015,0.002l-0.021-0.019L1036.039,383.028L1036.039,383.028z M1036.058,382.938l-0.002-0.019l0.021-0.014h0.033l0.012,0.016l-0.016,0.016L1036.058,382.938L1036.058,382.938z M1034.199,380.271l0.003-0.012l0.017-0.012l0.033,0.004l0.004,0.01l-0.008,0.012l-0.027,0.004L1034.199,380.271L1034.199,380.271z M1033.524,380.271l0.001-0.018l0.018-0.012l0.026,0.007l-0.003,0.015l-0.026,0.01L1033.524,380.271L1033.524,380.271z M1034.048,378.066l0.008-0.047l0.035-0.027l0.043,0.016l0.008,0.039l-0.047,0.035L1034.048,378.066L1034.048,378.066z M1034.131,378.154l-0.011-0.006l-0.004-0.019l0.013-0.015l0.016,0.008l0.002,0.017l-0.006,0.012L1034.131,378.154L1034.131,378.154z M1034.006,378.137l0.014,0.006l0.003,0.015l-0.01,0.007l-0.015-0.004l-0.004-0.016L1034.006,378.137L1034.006,378.137z M1034.584,376.093l0.017-0.005l0.018,0.013l0.002,0.027l-0.015,0.003l-0.018-0.021L1034.584,376.093L1034.584,376.093z M1034.669,376.077l0.008,0.017l-0.017,0.016l-0.015-0.005l0.006-0.024L1034.669,376.077L1034.669,376.077z M1040.784,375.058l0.054-0.024l0.024,0.008l-0.004,0.038l-0.038,0.04l-0.05,0.004l-0.018-0.016L1040.784,375.058L1040.784,375.058z M1040.324,370.855l0.038,0.002l0.004,0.026l-0.072,0.104l-0.132,0.11l-0.046,0.01l-0.026-0.012l-0.036,0.006l-0.08,0.082l-0.012,0.04l-0.054,0.052l-0.036,0.054l-0.024,0.016h-0.048l-0.08,0.06l-0.024,0.048l-0.1,0.074l-0.046,0.006l-0.02-0.038l0.008-0.086l0.038-0.102l0.132-0.161l0.008-0.034l-0.04-0.026l-0.004-0.03l0.032-0.012l0.04,0.008l0.032-0.036l0.032-0.102v-0.052l-0.034-0.056l0.004-0.11l0.022-0.052l0.048-0.006l0.084,0.054l0.096,0.124l0.042,0.03l0.03,0.044v0.04l0.034,0.014l0.078-0.02l0.066-0.024L1040.324,370.855L1040.324,370.855z M1039.547,370.915l0.002-0.036l0.032-0.03l0.09-0.026l0.048-0.074l-0.012-0.03h-0.048l-0.05,0.026l-0.034-0.002l-0.026,0.022l-0.048,0.11l0.006,0.04l0.02,0.012L1039.547,370.915L1039.547,370.915z M1040.616,370.612l0.081-0.057l-0.003-0.021l-0.024,0.001l-0.074,0.033l-0.023,0.036l0.01,0.012L1040.616,370.612L1040.616,370.612z M1037.261,372.021l-0.01,0.053l-0.036,0.042l-0.021,0.069l0.062,0.117l0.047,0.021l0.13,0.005l0.032,0.018l0.023,0.041l0.029,0.005l0.074-0.044l0.01-0.023l-0.014-0.053l-0.044-0.038l-0.036-0.08l0.003-0.038l-0.023-0.05l-0.048-0.047l-0.063-0.029l-0.093-0.024l-0.018,0.015L1037.261,372.021L1037.261,372.021z M1037.537,372.403l0.005,0.012l0.038-0.002l0.047-0.016l0.001-0.014l-0.023-0.011l-0.035,0.006L1037.537,372.403L1037.537,372.403z M1037.523,372.471l0.009,0.03l0.015,0.013l0.038,0.004l0.082-0.008l0.052-0.029l0.002-0.015l-0.036-0.046l-0.022-0.002l-0.031,0.011l-0.083,0.003l-0.042,0.013v0.017L1037.523,372.471L1037.523,372.471z M1038.557,372.582h0.011l0.02-0.033V372.5l-0.015-0.015l-0.03-0.008l-0.014-0.018l-0.012,0.001l-0.001,0.039l0.025,0.068L1038.557,372.582L1038.557,372.582z M1037.69,371.949l0.015-0.001l0.006,0.009l-0.012,0.012l0.003,0.023l0.055,0.054l0.032,0.012h0.098l0.008-0.011l-0.02-0.025l-0.017-0.005l-0.01,0.008h-0.017l-0.005-0.008l0.007-0.032l-0.039-0.064l-0.056-0.029l-0.032,0.001l-0.024,0.016l-0.003,0.025L1037.69,371.949L1037.69,371.949z M1037.776,372.44l0.013,0.028l-0.004,0.02l0.012,0.011l0.082,0.006l0.024,0.011l0.024,0.037l0.046,0.054l0.005,0.039l0.04,0.051l0.057,0.034l0.008-0.004l-0.002-0.019l0.007-0.018l0.019-0.008l0.028,0.011l0.019,0.019l0.003,0.028l0.024,0.026l0.032,0.004l0.008-0.013h0.01l0.024,0.034l0.02,0.011l0.024-0.007l0.011-0.059l-0.003-0.036l-0.043-0.061l-0.001-0.029l0.019-0.034l0.066-0.038l0.003-0.018l-0.015-0.015l-0.03-0.051l-0.001-0.014l0.008-0.001l0.028,0.031l0.031,0.059l0.035,0.026l0.031,0.003l0.007-0.007l-0.008-0.037l-0.027-0.025l-0.003-0.011l0.008-0.001l0.021,0.013l0.034,0.011l0.006-0.009l-0.024-0.039l-0.035-0.035l-0.041-0.012l-0.022,0.005l-0.012,0.014l-0.012-0.002l-0.002-0.018l-0.028-0.027l-0.035-0.011l-0.017,0.011l-0.007-0.006l0.009-0.034v-0.041l-0.034-0.047l-0.036-0.009l-0.04,0.018l-0.004,0.016l0.005,0.011l-0.007,0.018l-0.01-0.003l-0.011-0.025l-0.023-0.02l-0.041-0.009l-0.026,0.024h-0.04l-0.047-0.009l-0.026-0.031h-0.017l-0.008,0.014l0.004,0.028l-0.028,0.031l-0.035,0.001l-0.016-0.005l-0.021,0.002l-0.037,0.063l-0.002,0.045L1037.776,372.44L1037.776,372.44z M1039.581,372.562l0.015,0.021h0.023l0.029-0.057l0.001-0.037l-0.038-0.039l-0.017,0.002l-0.022,0.025l-0.003,0.044L1039.581,372.562L1039.581,372.562z M1039.356,372.329l0.014,0.067l-0.005,0.056l0.016,0.013l0.02-0.007l0.06,0.002l0.029,0.023l0.013-0.004l-0.004-0.095l-0.014-0.012l-0.02,0.002l-0.071-0.041l-0.027-0.037l-0.024-0.006l-0.003,0.01L1039.356,372.329L1039.356,372.329z M1039.227,372.096l-0.015-0.016l-0.008,0.01l0.006,0.038l0.026,0.016l0.029,0.032l0.011-0.002l-0.014-0.032l-0.031-0.027L1039.227,372.096L1039.227,372.096z M1039.281,371.959l0.078,0.02l0.053,0.006l0.073-0.046l0.046-0.077l-0.013-0.01l-0.026,0.007l-0.073,0.078l-0.037,0.004l-0.032-0.012l-0.071-0.003l-0.011,0.016L1039.281,371.959L1039.281,371.959z M1039.389,372.232l0.032,0.017h0.059l0.054-0.028l0.037-0.055l-0.006-0.023l-0.037-0.015l-0.101-0.004l-0.047,0.028l-0.01,0.035L1039.389,372.232L1039.389,372.232z M1041.78,369.868l-0.048,0.053l-0.027,0.047l0.009,0.023l0.024-0.002l0.095-0.098l0.078-0.057l0.051-0.017l0.032,0.001l0.078-0.021l0.009-0.015l-0.02-0.02l-0.05-0.001l-0.027,0.021l-0.059,0.024l-0.059-0.005l-0.06,0.014l-0.021,0.023L1041.78,369.868L1041.78,369.868z M1040.753,370.511l0.036-0.009l0.036,0.001l0.167-0.068l0.14-0.09l0.012-0.026l-0.017-0.015l-0.056,0.005l-0.232,0.126l-0.092,0.069L1040.753,370.511L1040.753,370.511z M1041.182,370.261l0.003,0.009l0.065-0.018l0.026,0.005l0.018,0.029l-0.001,0.03l-0.044,0.029l-0.003,0.014l0.02,0.003l0.108-0.051l0.104-0.012l0.118,0.003l0.041-0.017l0.086-0.074l0.104-0.053v-0.012l-0.084-0.009l-0.134,0.02l-0.093,0.041l-0.078,0.008l-0.115-0.001l-0.096,0.032L1041.182,370.261L1041.182,370.261z M1040.065,370.634l0.017,0.009l0.062-0.02l0.006-0.018l-0.048-0.017l-0.02,0.005L1040.065,370.634L1040.065,370.634z M1040.146,370.685l0.018,0.018l0.041,0.006l0.069-0.024l0.007-0.014l-0.039-0.035l-0.038-0.009l-0.081,0.03l0.001,0.021L1040.146,370.685L1040.146,370.685z M1040.315,370.752l0.008,0.014l0.042,0.006l0.063-0.047l0.008-0.015l-0.017-0.005l-0.086,0.024L1040.315,370.752L1040.315,370.752z M1040.075,371.378l0.002,0.03l0.029,0.018l0.056-0.012l0.071-0.069l0.027-0.092l-0.02-0.011l-0.071,0.011l-0.039,0.033L1040.075,371.378L1040.075,371.378z M1039.941,371.529l0.009,0.014l0.095-0.041l0.036-0.036l-0.003-0.02l-0.026-0.008l-0.038,0.02L1039.941,371.529L1039.941,371.529z M1040.554,371.142l0.012-0.03l0.005-0.081l0.033-0.113l0.023-0.048l-0.009-0.005l-0.032,0.015l-0.024,0.048l-0.041,0.196l0.012,0.02L1040.554,371.142L1040.554,371.142z M1041.092,371.746l0.017,0.02l0.026-0.006l0.14-0.161l0.005-0.059l-0.023-0.011l-0.065,0.027l-0.093,0.137L1041.092,371.746L1041.092,371.746z M1040.869,371.749l0.041,0.042l0.001,0.033l-0.051,0.053l-0.012,0.03l0.015,0.006l0.05-0.042l0.075-0.042l0.005-0.03l-0.05-0.047l-0.011-0.018l0.011-0.014l0.027,0.005l0.005-0.009l-0.03-0.047l-0.077-0.045l-0.026,0.001l-0.033,0.069l0.014,0.041L1040.869,371.749L1040.869,371.749z M1039.844,372.407l0.015,0.001l0.044-0.047l0.042-0.126l0.066-0.081l0.035-0.066l0.068-0.086l0.048-0.023l0.008-0.03l-0.009-0.056l0.038-0.071l0.041-0.045l0.042-0.139l0.041-0.075l0.009-0.075l0.109-0.259l-0.012-0.005l-0.105,0.122l-0.044,0.093l-0.014,0.096l-0.015,0.05l-0.027,0.038l-0.027,0.081l0.008,0.033l-0.012,0.029l-0.14,0.255l-0.033,0.036l-0.018,0.033l-0.001,0.024l-0.015,0.024l-0.041,0.008l-0.069,0.001l-0.008,0.014l0.014,0.024l0.027,0.017l0.001,0.03l-0.032,0.108l-0.023,0.014l-0.01,0.023L1039.844,372.407L1039.844,372.407z M1039.395,372.076l0.032,0.006l0.08-0.011l0.14-0.054l0.083-0.065l0.044-0.089l-0.001-0.035l-0.015-0.003l-0.05,0.044l-0.054,0.06l-0.029,0.062l-0.139,0.06l-0.09,0.011V372.076L1039.395,372.076z M1039.569,372.109l0.014,0.005l0.039-0.026l0.128-0.045l0.048,0.008l0.045-0.002l0.042-0.021l0.113-0.02l0.041-0.044l0.044-0.145l0.038-0.063l0.026-0.02l0.001-0.021l-0.02-0.021l-0.006-0.03l0.03-0.059l-0.009-0.009l-0.014,0.008l-0.014,0.018l-0.01,0.002l-0.009-0.02l0.006-0.047l-0.012-0.012l-0.023,0.015l-0.05,0.074l-0.018,0.063l-0.012,0.023l-0.009-0.017l0.015-0.05l-0.009-0.009l-0.033,0.036l-0.038,0.054l-0.001,0.042l0.009,0.047l-0.026,0.05l-0.149,0.119l-0.06,0.024l-0.098,0.06L1039.569,372.109L1039.569,372.109z M1039.791,371.928l0.083-0.068l0.008-0.044l-0.015-0.012l-0.015,0.005l-0.045,0.059l-0.029,0.06H1039.791L1039.791,371.928z M1041.649,370.795l0.007-0.026l0.024-0.017l0.04,0.002l0.017,0.029l-0.021,0.024l-0.042,0.002L1041.649,370.795L1041.649,370.795z M1038.037,372.022l-0.021-0.039l0.008-0.031l0.026-0.005l0.026,0.023l-0.008,0.044L1038.037,372.022L1038.037,372.022z M1039.141,372.293l0.042,0.006l0.009,0.032l-0.033,0.032l-0.051,0l0.002-0.029L1039.141,372.293L1039.141,372.293z M1039.296,372.155l-0.035-0.04l-0.023-0.049l0.013-0.01l0.026,0.021l0.032,0.04l0.006,0.03L1039.296,372.155L1039.296,372.155z M1039.775,372.82l0.033-0.042l0.044-0.031l0.012,0.011l-0.016,0.03l-0.034,0.038l-0.029,0.011L1039.775,372.82L1039.775,372.82z M1039.336,372.04l-0.062-0.03l0.004-0.018l0.068,0.006l0.041,0.025l-0.001,0.017H1039.336L1039.336,372.04z M1040.886,370.306l-0.018-0.016l0.013-0.022l0.032-0.018l0.015,0.012l-0.003,0.021L1040.886,370.306L1040.886,370.306z M1038.692,372.38l0.017-0.037l0.021-0.004l0.015,0.025l-0.017,0.025l-0.028,0.004L1038.692,372.38L1038.692,372.38z M1038.333,372.189l0.018,0.02l0.012,0.043l-0.007,0.013l-0.022-0.026l-0.01-0.033L1038.333,372.189L1038.333,372.189z M1038.724,372.456l-0.004-0.015l0.011-0.01l0.015,0.003l0.007,0.017l-0.01,0.014L1038.724,372.456L1038.724,372.456z M1038.224,372.204l0.003-0.017l0.02,0.007l0.011,0.024l-0.015,0.002L1038.224,372.204L1038.224,372.204z M1039.243,371.837l0.014,0.014l-0.001,0.019l-0.017,0.006l-0.017-0.017l0.003-0.014L1039.243,371.837L1039.243,371.837z M1039.771,370.895l0.007,0.008l0,0.011l-0.008,0.013l-0.007-0.009l-0.003-0.013L1039.771,370.895L1039.771,370.895z M1041.133,371.553l0.015-0.004l0.006,0.014l-0.01,0.012l-0.014-0.002L1041.133,371.553L1041.133,371.553z M1038.678,373.18l0.014,0.003l0.001,0.019l-0.011,0.005l-0.013-0.015L1038.678,373.18L1038.678,373.18z M1039.607,370.905l-0.008,0.01l-0.018-0.006l0.001-0.014l0.013-0.003L1039.607,370.905L1039.607,370.905z M1038.119,372.184l-0.011-0.008l0.002-0.025l0.023-0.019l0.009,0.009l-0.006,0.023L1038.119,372.184L1038.119,372.184z M1038.856,372.345l0.011-0.008l0.023,0.01l0.01,0.028l-0.011,0.005l-0.019-0.013L1038.856,372.345L1038.856,372.345z M1040.5,370.646v-0.015l0.048-0.022l0.01,0.007l-0.003,0.012l-0.033,0.017L1040.5,370.646L1040.5,370.646z M1040.027,371.196l-0.007-0.01l0.012-0.02l0.036-0.02l0.01,0.01l-0.025,0.026L1040.027,371.196L1040.027,371.196z M1038.734,372.3l0.013-0.009l0.023,0.007l0.018,0.03l-0.01,0.009l-0.028-0.017L1038.734,372.3L1038.734,372.3z M1040.494,371.194l-0.014-0.004l0.011-0.022l0.016-0.007l0.001,0.015L1040.494,371.194L1040.494,371.194z M1038.071,372.163l-0.005,0.023l-0.023,0.004l-0.014-0.016l-0.002-0.023l0.018-0.009L1038.071,372.163L1038.071,372.163z M1039.578,371.11l0.017-0.024l0.017,0l0.008,0.051l-0.013,0.032l-0.02-0.004L1039.578,371.11L1039.578,371.11z M1038.859,372.186l0.008,0.028l-0.011,0.013l-0.045-0.027l-0.016-0.031l0.016-0.012L1038.859,372.186L1038.859,372.186z M1038.636,372.23l0.002-0.012l0.019,0.002l0.016,0.019l-0.007,0.009l-0.021-0.003L1038.636,372.23L1038.636,372.23z M1040.366,371.214l0.012,0.002l-0.002,0.019l-0.019,0.016l-0.009-0.007l0.004-0.021L1040.366,371.214L1040.366,371.214z M1037.972,372.137l0.009,0.007l-0.004,0.02l-0.016,0.008l-0.009-0.007l0.006-0.024L1037.972,372.137L1037.972,372.137z M1039.532,371.96l-0.007-0.008l0.008-0.019l0.017-0.005l0.007,0.008l-0.01,0.022L1039.532,371.96L1039.532,371.96z M1040.005,370.587l0.007-0.009l0.02,0.004l0.008,0.016l-0.007,0.009l-0.024-0.007L1040.005,370.587L1040.005,370.587z M1040.166,371.449l0.013,0.003l0.002,0.019l-0.011,0.012l-0.012-0.002l-0.004-0.021L1040.166,371.449L1040.166,371.449z M1039.908,372.106l0.007-0.017l0.048-0.025l0.026,0.005l-0.01,0.022l-0.036,0.019L1039.908,372.106L1039.908,372.106z M1039.7,371.027l-0.018-0.005l-0.006-0.024l0.011-0.031l0.019-0.006l0.009,0.02L1039.7,371.027L1039.7,371.027z M1039.954,371.42l0.01-0.015l0.022-0.002l0.019,0.019l-0.01,0.012l-0.028-0.005L1039.954,371.42L1039.954,371.42z M1038.37,372.672l0.016-0.008l0.02,0.009l0.007,0.026l-0.015,0.005l-0.021-0.018L1038.37,372.672L1038.37,372.672z M1039.557,372.717l-0.01-0.015l0.006-0.021l0.025-0.012l0.008,0.013l-0.014,0.024L1039.557,372.717L1039.557,372.717z M1037.98,372.26l-0.013-0.014l0.013-0.026l0.023-0.006l0.01,0.015l-0.01,0.018L1037.98,372.26L1037.98,372.26z M1038.44,372.291l0.019,0.003l0,0.021l-0.033,0.043l-0.017-0.004l0-0.027L1038.44,372.291L1038.44,372.291z M1041.484,370.012l0.02-0.009l0.069,0.042l0.008,0.028l-0.017,0.017l-0.033-0.01l-0.044-0.04L1041.484,370.012L1041.484,370.012z M1039.536,370.984l-0.011-0.001l-0.01-0.014l0.008-0.01l0.013,0.002l0.008,0.011L1039.536,370.984L1039.536,370.984z M1040.964,371.435l0.016-0.005l0.01,0.012l-0.01,0.012l-0.016-0.003V371.435L1040.964,371.435z M1039.629,372.287l0.004-0.012l0.014,0.003l0.008,0.008l-0.007,0.014h-0.012L1039.629,372.287L1039.629,372.287z M1038.549,372.345l0.015,0.004l0.005,0.014l-0.009,0.009l-0.015-0.002l-0.007-0.015L1038.549,372.345L1038.549,372.345z M1041.318,371.166l-0.001-0.014l0.012-0.008l0.012,0.011v0.014l-0.014,0.006L1041.318,371.166L1041.318,371.166z M1041.9,370.957l-0.001,0.01l-0.012,0.008l-0.015-0.002l-0.003-0.014l0.011-0.009L1041.9,370.957L1041.9,370.957z M1041.308,371.096l-0.005,0.015l-0.018,0.012l-0.011-0.004l0.009-0.018l0.014-0.008L1041.308,371.096L1041.308,371.096z M1039.683,372.157l-0.01-0.028l0.03-0.029l0.038-0.009l0.021,0.019l-0.03,0.034L1039.683,372.157L1039.683,372.157z M1040.898,370.579l0-0.016l0.03-0.017l0.036,0.003l-0.005,0.015l-0.034,0.014H1040.898L1040.898,370.579z M1039.34,372.124l0.014,0.007l0.002,0.035l-0.018,0.031l-0.012-0.011l0.002-0.037L1039.34,372.124L1039.34,372.124z M1038.186,372.058l0.004,0.017l-0.007,0.027l-0.016,0.002l-0.007-0.019l0.01-0.025L1038.186,372.058L1038.186,372.058z M1039.74,370.911l0.007,0.016l-0.002,0.028l-0.016,0.005l-0.01-0.017l0.006-0.027L1039.74,370.911L1039.74,370.911z M1040.428,370.806l0.008-0.016l0.023-0.016l0.014,0.009l-0.007,0.019l-0.024,0.013L1040.428,370.806L1040.428,370.806z M1041.148,371.279l-0.008,0.015l-0.023,0.016l-0.014-0.009l0.007-0.019l0.024-0.013L1041.148,371.279L1041.148,371.279z M1037.735,371.846l0.017-0.001l0.026,0.012l-0.001,0.016l-0.02,0.004l-0.023-0.015L1037.735,371.846L1037.735,371.846z M1037.847,371.904l0.025,0.004l0.021,0.028l-0.003,0.028l-0.028-0.003l-0.025-0.027L1037.847,371.904L1037.847,371.904z M1037.847,371.904l0.025,0.004l0.021,0.028l-0.003,0.028l-0.028-0.003l-0.025-0.027L1037.847,371.904L1037.847,371.904z M1040.225,371.222l-0.039,0.008l-0.016-0.016l0.024-0.031l0.039-0.016l0.024,0.016L1040.225,371.222L1040.225,371.222z M1038.578,372.736v-0.058l0.016-0.042l0.026-0.003l0.005,0.055l-0.021,0.047H1038.578L1038.578,372.736z M1040.941,371.545l0.037-0.027l0.032,0.01l0.008,0.023l-0.044,0.024l-0.036-0.006L1040.941,371.545L1040.941,371.545z M1038.507,372.39l-0.025-0.011l-0.014-0.024l0.006-0.01l0.025,0.011l0.012,0.019L1038.507,372.39L1038.507,372.39z M1037.701,372.232l0.017,0.069l-0.026,0.026l-0.041-0.004l-0.017-0.028l0.021-0.061l0.024-0.017L1037.701,372.232L1037.701,372.232z M1039.87,372.67l-0.003-0.02l0.022-0.039l0.021-0.006l0.013,0.014l-0.014,0.025l-0.022,0.023L1039.87,372.67L1039.87,372.67z M1038.905,372.262l0.004-0.011l0.016-0.005l0.01,0.005l0.003,0.015l-0.01,0.008l-0.015-0.001L1038.905,372.262L1038.905,372.262z M1039.009,372.325l0.003-0.016l0.01-0.006l0.013,0.003l0.004,0.01l-0.005,0.01l-0.012,0.004L1039.009,372.325L1039.009,372.325z M1040.944,370.208l-0.009-0.01l0.001-0.015l0.014-0.006l0.012,0.01l0.001,0.01l-0.008,0.012L1040.944,370.208L1040.944,370.208z M1039.103,372.266l-0.01-0.008l-0.001-0.02l0.016-0.013l0.014,0.011l-0.001,0.017l-0.008,0.011L1039.103,372.266L1039.103,372.266z M1038.4,372.62l0.007-0.014l0.021-0.005l0.012,0.008l0.003,0.017l-0.01,0.01h-0.02L1038.4,372.62L1038.4,372.62z M1040.264,371.155l-0.001-0.016l0.009-0.018l0.016-0.012l0.008,0.005l-0.001,0.017l-0.01,0.017l-0.01,0.008L1040.264,371.155L1040.264,371.155z M1020.019,366.188l0.036-0.078l0.034-0.028l0.085-0.01l0.062,0.014l0.038-0.008l0.086,0.016l0.038,0.022l0.057,0.022l0.018-0.008l0.012-0.024l-0.058-0.134l0.018-0.033l0.064-0.056l0.01-0.048l0.018-0.036l0.032-0.026l0.056-0.107l0.065-0.078l0.09-0.038l0.018-0.024l-0.02-0.044l0.012-0.031l0.078-0.018l0.113-0.136l0.06-0.026l-0.002-0.018l-0.05-0.008l-0.024-0.016l-0.002-0.037l-0.044-0.054l0.006-0.052l0.03-0.02l0.04,0.014h0.032l0.06-0.05l0.046-0.095l0.041-0.026l0.01-0.026l-0.026-0.03l0.012-0.052l0.038-0.038l0.04-0.006l0.022-0.014l0.008-0.022l0.096-0.002l0.029,0.036l0.106,0.076l0.014,0.036l0.062,0.06l0.01,0.057l0.02,0.018l0.039-0.006l0.014-0.069l0.04-0.028l0.042,0.006l0.157,0.135l0.042,0.008l0.062-0.028l0.048,0.004l0.056,0.034l0.016,0.042l0.079,0.046l0.042,0.002l0.026,0.014l0.032,0.05l0.062,0.033l0.053,0.062l0.082,0.018l0.048-0.01l0.04,0.02l0.014,0.032l0.029,0.014l0.042,0.006l0.042,0.03l0.02,0.05l-0.008,0.047l0.018,0.048l0.044,0.05l0.008,0.026l-0.01,0.024l0.01,0.028l0.062,0.043l0.037,0.048l0.016,0.062l0.052,0.03h0.066l0.103,0.012l0.026,0.026l-0.002,0.032l0.024,0.016l0.05,0.008l0.05,0.061l0.04,0.006l0.034-0.02l0.111-0.004l0.02-0.022v-0.049l-0.024-0.038l0.006-0.056l0.022-0.054l0.042-0.032l0.07-0.012l0.051-0.031l0.06-0.068l0.052-0.006l0.082-0.046l0.008-0.036l-0.062-0.08l-0.004-0.059l0.092-0.162l0.041-0.03l0.084,0.012l0.04-0.022l0.012-0.037l0.075-0.044l0.046-0.014l0.064-0.048l0.026-0.111l-0.01-0.064l0.008-0.04l0.07-0.08l0.018-0.05l0.027-0.025l0.002-0.092l0.044-0.016l0.08,0.016l0.094,0.038l0.022,0.038l0.027,0.014l0.036,0.004l0.042,0.023l0.022,0.046l0.072,0.046l0.002,0.044l-0.038,0.044l0.008,0.085l0.032,0.046l0.051,0.03l0.018,0.046l-0.012,0.036l0.01,0.044l0.18,0.193l0.057,0.034l0.046-0.006l0.044-0.062l0.014-0.056l0.028-0.032l0.046-0.018l0.032-0.067v-0.048l-0.046-0.044l-0.004-0.084l0.03-0.059l0.071-0.06l0.092-0.15l0.022-0.057l0.074-0.026l0.051,0.012l0.03,0.032l0.006,0.037l0.066,0.064l0.068,0.04l0.131,0.133l0.01,0.052l0.048,0.04l0.038-0.002l0.028,0.012l0.034,0.064l0.107,0.111l0.054,0.09l0.143,0.126l0.052,0.077l0.058,0.002l0.08,0.08l0.006,0.04l0.02,0.01l0.027-0.012l0.066,0.048l0.06,0.063l0.056,0.002l0.054-0.032l0.055-0.006l0.024-0.02l-0.02-0.043l0.004-0.03l0.024-0.012v-0.076l-0.026-0.032v-0.022l0.026-0.022l0.05-0.139l0.014-0.165l0.026-0.05l-0.002-0.03l-0.026-0.024l-0.002-0.032l0.018-0.03l0.024-0.079l0.083-0.116l0.07-0.048l0.028-0.034l0.01-0.051l0.08-0.1l0.045-0.002l0.018,0.02l0.03,0.006l0.078-0.032l0.022-0.032l0.064-0.01l0.053,0.002l0.188-0.073l0.065,0.008l0.016,0.047l-0.05,0.176v0.057l0.036,0.054l0.006,0.044l0.018,0.014h0.028l0.08,0.044l0.068,0.006l0.063,0.038l0.052,0.087l0.082,0.026l0.036-0.04l0.042-0.008l0.035-0.02l0.022-0.067l0.048-0.046l0.199-0.1l0.076-0.075l0.076-0.044l0.057-0.12l0.064-0.044l0.028-0.035l0.048-0.016l0.036-0.032l0.049-0.002l0.042,0.034l0.012,0.053l-0.018,0.034l0.016,0.018l0.05-0.008l0.026-0.036l-0.012-0.034l0.002-0.029l0.024-0.002l0.024,0.025l0.082,0.03l0.047,0.036l0.044,0.006l0.056-0.022h0.044l0.054,0.02l0.035-0.004l0.02-0.038l-0.028-0.053l0.004-0.032l0.03-0.026l0.04,0.002l0.036-0.014l0.052-0.144l0.03-0.025h0.045l0.076-0.062l0.05-0.01l0.042,0.008l0.022-0.008l0.014-0.042l0.057-0.052l0.008-0.069l-0.019-0.052l-0.052-0.016l-0.058-0.072l-0.002-0.088l-0.03-0.043v-0.056l-0.018-0.032l-0.002-0.068l-0.032-0.038l-0.014-0.103l0.01-0.032l0.042-0.004l0.028,0.014l0.058-0.004l0.059-0.042l0.072-0.006l0.018-0.068l0.004-0.075l0.04-0.056l0.036-0.006l0.052,0.014l0.043,0.062l0.06,0.031l0.028-0.013l0.002-0.022l-0.012-0.032l0.004-0.024l0.018-0.02l0.006-0.04l0.028-0.04l0.056-0.012l0.042,0.008l0.031-0.01l0.006-0.032l0.024-0.019l0.058-0.01l0.108-0.112l0.089-0.068l0.042-0.004l0.044,0.028l0.002,0.026l0.014,0.014l0.04,0.004l0.159-0.084l0.064-0.073l0.024,0.004l0.008,0.027l0.02,0.006l0.037-0.002l0.078,0.038l0.036,0.038l0.02-0.002l0.016-0.062l-0.008-0.035l0.008-0.022l0.026-0.014l0.014-0.05l0.026-0.022l0.007-0.026l-0.019-0.038l0.004-0.028l0.039-0.033l0.046,0.005l0.03-0.027l0.018-0.06l0.106-0.104l0.028-0.002l0.055,0.042l0.032,0.052l0.01,0.082l0.038,0.067l0.062,0.058h0.026l0.071,0.082l0.062,0.024l0.022-0.014l-0.002-0.03l0.018-0.018l0.03,0.002l0.04,0.084l0.147,0.185l0.006,0.044l0.038,0.081l0.093,0.046l0.066,0.002l0.034,0.02l0.03,0.054l0.036,0.04l0.004,0.037l-0.04,0.094l0.018,0.112l-0.014,0.032l0.012,0.043l0.052,0.042l0.048,0.004l0.019-0.02l0.032-0.004l0.044,0.032l0.03-0.002l0.026-0.04l0.034-0.006l0.059,0.016l0.082,0.05h0.098l0.012-0.026l0.016-0.004l0.051,0.06l0.001,0.054l0.049,0.032l0.08,0.016l0.078,0.041l0.077,0.11l0.03,0.006l0.032-0.022l0.034,0.008l0.03,0.046v0.038l0.018,0.012l0.032-0.01l0.016,0.008l-0.028,0.057l0.028,0.042l0.037,0.024l0.018,0.03l-0.002,0.036l0.042,0.018l0.016-0.016l-0.008-0.024l0.012-0.03l0.026-0.016l0.064,0.004l0.034-0.026l0.029-0.002l0.046,0.022l0.05-0.006l0.024-0.034l0.068,0.008l0.036,0.022l0.038-0.004l0.025-0.046l0.008-0.073l-0.024-0.038l0.008-0.026h0.058l0.042-0.014l0.102,0.008l0.065-0.024h0.048l0.086,0.04h0.052l0.043-0.026l0.046-0.002l0.058,0.042l0.046,0.002l0.032-0.016l0.058,0.009l0.03,0.047l0.033,0.015l0.059,0.06l0.012,0.041l0.081,0.092l0.017,0.048l-0.012,0.045l-0.03,0.011l0.001,0.024l0.08,0.066l0.044,0.011l0.022-0.017h0.032l0.042,0.029l0.03-0.002l0.011-0.018l0.025-0.005l0.054,0.058l0.03,0.004l0.034-0.028l0.014-0.046l0.032-0.03h0.082l0.049,0.022l0.024-0.006l0.004-0.038l0.019-0.011l0.035,0.025l0.032-0.004l0.024-0.044l-0.002-0.027l0.022-0.004l0.032,0.021l0.034-0.004l0.011-0.031l0.022-0.004l0.028,0.016l0.04-0.002l0.02-0.032l0.012-0.074l0.034-0.052l0.05-0.004l0.051,0.028l0.018,0.044l0.056,0.028l0.038,0.002l0.07-0.038l0.047,0.018l0.038,0.095l0.086,0.064l0.042,0.058l0.038,0.01l0.03-0.026l0.003-0.032l0.016-0.024l0.062-0.008l0.07,0.01l0.036,0.048l-0.002,0.024l-0.024,0.008l-0.008,0.014l0.127,0.074l0.084,0.081v0.048l0.016,0.006l0.028-0.014l0.056,0.004l0.05-0.02l0.057,0.004l0.046,0.044l0.004,0.03l-0.024,0.03l-0.016,0.05l-0.028,0.029l-0.075,0.022l-0.036,0.05l-0.062,0.066l-0.012,0.06l0.04,0.047l-0.008,0.024l-0.062,0.022l-0.012,0.026l0.024,0.034l-0.014,0.038l-0.062,0.032l-0.053,0.103l0.012,0.044l-0.01,0.034l-0.03,0.024l-0.002,0.018l0.052,0.03l-0.008,0.036l-0.068,0.053l-0.026,0.002l-0.026-0.016h-0.05l-0.073,0.032l-0.056-0.01l-0.044-0.055l-0.018-0.048l-0.036-0.012l-0.04,0.018l-0.024,0.085v0.058l-0.015,0.052l-0.032,0.018l-0.036,0.119l0.008,0.142l-0.012,0.036l-0.036,0.004l-0.038,0.036l-0.004,0.053l0.018,0.028l0.01,0.05l-0.018,0.03l0.034,0.064l0.046,0.053l-0.014,0.086l-0.056,0.02l-0.024,0.038l0.008,0.028l0.078,0.03l0.143,0.016l0.058-0.014l0.064,0.012l0.026,0.031l-0.002,0.04l0.02,0.03l-0.001,0.064l0.018,0.03l0.062,0.026l0.01,0.026l-0.012,0.033l0.024,0.078l-0.004,0.04l0.034,0.06l-0.006,0.046l-0.032,0.019l-0.026-0.004l-0.016,0.01v0.03l-0.03,0.026l-0.002,0.02l0.028,0.036l0.054,0.044l0.046,0.008v0.02l-0.024,0.014l-0.02,0.059l0.014,0.098l0.052,0.04l0.006,0.028l-0.024,0.032v0.079l-0.026,0.05l0.002,0.038l0.024,0.03v0.048l-0.076,0.091l-0.004,0.07l0.028,0.032l0.004,0.04l0.026,0.01l0.096-0.078l0.045-0.082l0.058-0.034l0.054,0.004l0.058,0.032l0.02,0.038l0.081,0.07l0.068,0.002l0.014-0.022l0.03-0.008l0.125,0.012l0.086,0.026l0.042-0.008l0.03,0.006l0.018,0.034l-0.008,0.04l0.022,0.033l0.006,0.044l0.02,0.012l0.063,0.014l0.042,0.028l0.058-0.012l0.04-0.052l-0.002-0.038l0.02-0.01l0.037,0.016l0.064,0.008l0.116,0.074l0.05,0.088l-0.014,0.044l-0.08,0.077l-0.08,0.042l-0.042,0.072l0.014,0.052l0.084,0.059l0.159,0.026l0.14,0.064l0.028,0.038l0.048,0.024l0.045,0.052l0.134,0.051l0.048,0.05l0.018,0.054l0.073,0.048l0.094,0.024l0.02-0.014l0.006-0.032l0.071-0.064l0.086-0.028l0.044,0.002l0.07,0.07l-0.004,0.044l0.089,0.121l0.044,0.038l0.018,0.098l-0.022,0.065l0.004,0.062l0.024,0.05l0.062,0.012l0.05-0.046l0.012-0.048l0.083-0.081l0.142-0.078h0.044l0.039,0.028l0.016,0.087l0.042,0.06l-0.01,0.042l-0.028,0.024l0.002,0.012l0.166,0.026l0.055-0.014l0.06-0.074l0.066-0.01l0.058,0.032l0.189-0.006l0.042-0.02h0.042l0.037,0.01l0.118-0.032l0.034-0.038l0.093-0.045l0.056-0.006l0.158-0.062l0.075,0.006l0.038,0.048l0.028,0.006l0.04-0.04l0.056,0.008l0.071,0.083l0.01,0.072l0.047,0.071l0.087,0.028l0.059,0.059l0.062,0.124l0.043,0.004l0.032-0.024l0.075-0.015h0.097l-0.003,0.022l0.052,0.031l0.007,0.035l-0.022,0.046l0.012,0.03l-0.019,0.035l-0.065,0.03l-0.104,0.009l-0.079,0.049l-0.042,0.106l-0.037,0.043l-0.062-0.02l-0.024-0.041l0.01-0.054l0.042-0.026l0.023-0.054l-0.037-0.07l-0.078-0.043h-0.052l-0.052,0.039l-0.135-0.006l-0.054-0.037h-0.032l-0.018,0.033l-0.049,0.002l-0.028-0.019l-0.038,0.002l-0.012,0.027l0.072,0.098v0.036l-0.044,0.024l-0.024,0.05l-0.042,0.029l-0.03,0.042l0.006,0.062l-0.036,0.06h-0.022l-0.018-0.022l-0.067,0.002l-0.036,0.018l-0.104,0.002l-0.028-0.02l-0.045-0.002l-0.018,0.034l0.026,0.038l0.002,0.041l-0.032,0.034l-0.032-0.006l-0.036-0.036l-0.018,0.008v0.078l-0.038,0.096l-0.038,0.026l-0.04,0.071l0.006,0.054l-0.02,0.014l-0.043-0.02l-0.076-0.008l-0.062-0.018l-0.024-0.055l-0.057-0.034l-0.04,0.008l-0.04,0.065l-0.006,0.042l-0.038,0.012l-0.044-0.012l-0.103,0.008l-0.038,0.028l-0.008,0.036l-0.05,0.016l-0.036,0.034l-0.024-0.004l-0.01-0.024l-0.038-0.008l-0.061,0.018l-0.022,0.034l0.01,0.049l-0.042,0.084l-0.034,0.106l0.008,0.065l0.038,0.03l0.048,0.008l0.016,0.02l-0.022,0.062l0.006,0.066l-0.024,0.101l-0.036,0.046l-0.026,0.092l-0.002,0.157l0.01,0.048l-0.032,0.076l-0.076,0.049l-0.135,0.004l-0.058-0.02l-0.133,0.004l-0.078,0.028l-0.02,0.036l-0.078,0.06l-0.065,0.078l-0.074,0.033l-0.155-0.013l-0.156-0.036l-0.052-0.032v-0.04l0.04-0.064l0.036-0.024l0.062-0.063l0.05-0.028l0.002-0.016l-0.064,0.016l-0.056,0.053l-0.02-0.002l0.002-0.021l-0.018-0.012l-0.095,0.022l-0.078,0.025l-0.078-0.01l-0.039-0.037l-0.016,0.014l0.023,0.045l0.124,0.036l0.078,0.066v0.036l-0.05,0.056l-0.054,0.002l-0.04-0.024l-0.083-0.018l-0.172,0.006l-0.081-0.028l-0.048-0.034l-0.058-0.01l-0.028-0.034l0.004-0.056l0.026-0.012l0.068,0.042l0.093,0.01l0.024-0.024l-0.012-0.024l-0.101-0.008l-0.096-0.041l-0.038,0.018l0.004,0.059l-0.038,0.032l0.014,0.048l0.05,0.02l-0.006,0.014l-0.032,0.014l-0.014,0.03l0.036,0.145l-0.018,0.046l-0.034,0.034l-0.014,0.071l-0.039,0.004l-0.02-0.035l-0.006-0.062l-0.034-0.064l-0.05-0.048l-0.074-0.034l-0.081-0.017l-0.044-0.036l-0.008-0.104l-0.086-0.088l-0.113-0.014l-0.028,0.014l0.127,0.022l0.056,0.074l-0.002,0.221l-0.054,0.144l0.066,0.137l0.09,0.066l0.107,0.008l0.044,0.038l-0.02,0.071l-0.084,0.03l-0.083-0.022l-0.036-0.038l-0.026,0.006l-0.028,0.088l0.014,0.032l0.044,0.02l0.032,0.028l0.008,0.054l0.058,0.067l0.019,0.066l-0.012,0.06l0.018,0.067l-0.012,0.021l-0.061-0.052l-0.033-0.066l-0.039-0.009l-0.075,0.036l-0.07,0.067l-0.039,0.012l-0.024,0.039l-0.006,0.057l-0.102,0.129l-0.091,0.025l-0.12,0.09l-0.096,0.108l-0.055,0.136l0.003,0.054l0.115,0.097l0.003,0.069l-0.03,0.042l-0.003,0.042l0.018,0.027l-0.009,0.051l-0.064,0.064l-0.045,0.126l-0.006,0.118l0.048,0.15l0.046,0.042l0.021,0.049l-0.024,0.093l-0.061,0.051l-0.009,0.027l0.018,0.027l-0.018,0.052l-0.051,0.06l-0.051-0.003l-0.033-0.045l-0.057-0.03h-0.061l-0.072,0.048l-0.057,0.015l-0.106-0.012l-0.162,0.036l-0.163,0.099l-0.274,0.268l-0.389,0.467l-0.18,0.283l-0.067,0.067l-0.024-0.009l-0.024-0.036l-0.045-0.016l-0.075,0.016l-0.064-0.028l-0.099-0.138l-0.042-0.009l-0.115,0.036l-0.117,0.069l-0.024,0.073l0.006,0.06l-0.009,0.075l-0.054,0.124l-0.021,0.114l0.009,0.063l-0.025,0.1l-0.084,0.147l-0.051,0.039l-0.06,0.003l-0.067,0.076l-0.088,0.205l-0.079,0.329l-0.017,0.199l0.003,0.249l-0.013,0.11l-0.05,0.069l-0.023,0.12l0.043,0.123l0.047,0.05h0.039l0.024,0.016l0.01,0.073l-0.024,0.014l-0.029-0.014l-0.03,0.017l0.003,0.08l-0.04,0.056l-0.046,0.007l-0.027,0.033l-0.017,0.093l-0.029,0.037l-0.047,0.01l-0.046,0.046l-0.037,0.13l0.007,0.225l0.02,0.064l-0.017,0.029l-0.06-0.003l-0.03,0.013l-0.03,0.044h-0.04l-0.033-0.03l-0.05-0.004l-0.056,0.044l-0.093,0.162l-0.037,0.173l0.014,0.186l0.05,0.15l0.079,0.083l0.14,0.083l0.066,0.079l0.033,0.103l0.067,0.107l0.116,0.103l0.053,0.083l0.073,0.345l0.087,0.226l0.139,0.266l0.166,0.222l0.04,0.077l-0.026,0.043v0.06l-0.024,0.056l0.01,0.037l0.07-0.11l-0.003-0.076l0.02-0.034l0.026-0.003l0.047,0.073l0.176,0.256l0.242,0.266l0.156,0.129l0.057,0.024l0.063-0.004l0.096,0.017l0.12,0.083l0.139,0.09l0.064,0.01l0.066,0.043l0.249,0.275l0.139,0.106l0.07,0.013l0.04-0.018l0.009-0.044l0.031-0.036l0.049,0.014l0.013,0.031l-0.031,0.048l-0.004,0.045l0.097,0.217l0.102,0.15l0.12,0.147l0.009,0.075l-0.031,0.044l-0.076,0.031l-0.115,0.186l-0.013,0.164l0.031,0.128l0.079,0.231l0.178,0.332l0.097,0.115l0.164,0.292l0.239,0.333l0.261,0.31l0.337,0.288l0.589,0.456l0.372,0.252l0.111,0.075l0.031,0.071l-0.018,0.124l0.027,0.155l0.168,0.226l0.177,0.191l0.368,0.327l0.531,0.412l0.399,0.297l0.354,0.208l0.306,0.217l0.34,0.295l0.245,0.217l0.162,0.089l0.053,0.01l0.028,0.02l0.02,0.05l0.058,0.046l0.056,0.008l0.079-0.018l0.014-0.026l-0.014-0.034l0.006-0.03l0.026-0.002l0.044,0.04l0.024,0.128l0.153,0.229l0.086,0.065l0.092,0.022l0.035-0.016l0.038,0.002l0.052,0.022l0.098,0.002l0.008,0.024l-0.014,0.024l-0.1,0.038l-0.03,0.03l0.004,0.082l-0.016,0.011l-0.018-0.009l-0.027,0.013l-0.042,0.104l0.012,0.05l0.119,0.115l0.078,0.03l0.052-0.008l0.055-0.069l0.076-0.036l-0.004-0.018l-0.036-0.014l-0.038-0.006l-0.006-0.022l0.064-0.076l0.058-0.034l0.046-0.004l0.071,0.062l0.058,0.008l0.044,0.026l0.018-0.004l0.022-0.06l0.018-0.002l0.038,0.024l0.028,0.064l-0.01,0.02l-0.034-0.006l-0.038,0.024l-0.012,0.05l-0.024,0.006l-0.04-0.016l-0.022-0.002l-0.028,0.026h-0.043l-0.026-0.016l-0.022,0.002l-0.03,0.085l0.006,0.114l0.098,0.209l0.085,0.147l0.11,0.116l0.119,0.074l0.05,0.045l0.006,0.048l-0.018,0.026l-0.032,0.002l-0.022-0.014l-0.117-0.012l-0.07,0.004l-0.036,0.026l-0.06,0.018l-0.049,0.026v0.024l0.039-0.022l0.082-0.004l0.054,0.02l0.048,0.046l0.06,0.014l0.041-0.01l0.052-0.054l0.082-0.052l0.05-0.002l0.015,0.022l-0.011,0.028l0.021,0.117l0.058,0.132l0.15,0.259l0.207,0.327l0.211,0.294l0.145,0.154l0.104,0.061l0.058,0.004l0.04-0.013l0.022,0.013l-0.004,0.072l-0.014,0.014l-0.048-0.038l-0.054-0.006l-0.028,0.018l-0.012,0.046l-0.022,0.014l-0.01,0.038l0.042,0.042l0.022-0.002l0.002-0.036l0.032-0.044h0.018l0.006,0.036l0.038,0.034l0.018-0.008v-0.04l0.025-0.03l0.04,0.002l0.032,0.034l-0.012,0.052l0.014,0.055l0.122,0.124l0.053,0.026l0.08,0.016l0.07-0.01l0.038-0.048l-0.004-0.05l0.014-0.01l0.032,0.024l0.039-0.002l0.018,0.012l-0.004,0.03l0.026,0.036l0.006,0.076l0.062,0.087l0.038,0.022l0.036,0.046l0.041,0.014l0.014,0.02l-0.012,0.03l-0.031,0.059l0.008,0.042l0.103,0.134l0.054,0.026l0.058,0.006l0.036,0.031l0.002,0.046l-0.026,0.03l-0.052,0.014l-0.072,0.054l-0.026,0.042l-0.006,0.117l-0.022,0.02l-0.089,0.002l-0.064,0.022l-0.032,0.038l-0.032,0.014l-0.022,0.024l0.034-0.002l0.086-0.054l0.121,0.008l0.04,0.03l0.008,0.095l-0.02,0.042l0.004,0.028l0.03,0.04l0.086,0.341l0.117,0.289l0.164,0.318l0.155,0.275l0.106,0.167l0.018,0.09l0.023,0.026l0.006,0.024l-0.019,0.012l-0.028-0.016l-0.01-0.058l-0.014,0.002l-0.004,0.112l0.02,0.091v0.106l0.031,0.064v0.035l-0.035,0.026l0.008,0.096l0.073,0.205l0.122,0.173l0.008,0.064l-0.024,0.046l0.006,0.044l0.022,0.03l0.006,0.042l-0.014,0.039l0.012,0.064l0.125,0.191l0.078,0.122l0.052,0.139l-0.012,0.038l-0.032,0.012l-0.016,0.03l0.016,0.076l0.086,0.157l0.051,0.06l0.004,0.028l-0.041,0.022l-0.022,0.051l0.011,0.072l0.148,0.263l0.026,0.159l-0.004,0.07l-0.046,0.044l-0.004,0.046l0.076,0.115l0.089,0.084l0.038,0.118l0.006,0.087l-0.048,0.092l0.002,0.038l0.022,0.028l-0.004,0.079l-0.022,0.042l-0.067,0.002l-0.04-0.026l0.008-0.068l0.016-0.033l0.046-0.014l-0.002-0.018l-0.034-0.014l-0.038-0.058l-0.018-0.141l-0.034-0.026l-0.034,0.008l-0.026,0.065l-0.002,0.074l0.026,0.132l0.032,0.023l0.002,0.032l-0.082,0.09l-0.004,0.054l0.036,0.137l0.03,0.05l0.008,0.082l-0.026,0.063l0.002,0.054l0.056,0.106l0.08,0.087l0.095,0.032l0.006,0.022l-0.06,0.058l-0.023-0.004l-0.006-0.028l-0.056-0.038l-0.03,0.006v0.03l0.042,0.02l0.002,0.02l-0.036,0.042l0.004,0.04l0.078,0.039l0.069,0.054l0.07,0.195l0.004,0.092l-0.02,0.052l-0.044,0.01l-0.123-0.042l-0.012-0.026l0.02-0.026l0.036-0.004l0.029-0.016l0.026-0.053l-0.008-0.036l-0.073-0.06l-0.076-0.024l-0.044,0.02l-0.03,0.072l0.002,0.077l0.02,0.048l-0.002,0.07l0.014,0.058l0.054,0.049l0.032,0.07l0.024,0.002l0.022-0.016l0.065,0.002l0.032,0.016l0.004,0.07l-0.016,0.022l-0.032,0.006l-0.014,0.03l0.022,0.083l0.068,0.076l0.024,0.084l-0.012,0.083l-0.046,0.092l0.004,0.03l0.018,0.036l0.004,0.038l-0.032,0.063v0.066l0.034,0.088l0.07,0.105l0.008,0.036l-0.048,0.028l-0.004,0.03l0.02,0.008l0.04-0.018l0.034,0.012l0.101,0.161l0.122,0.162l0.115,0.129l0.106,0.155l0.01,0.082l-0.016,0.082l-0.032,0.042l-0.058,0.035l-0.016-0.004l0.004-0.023l0.048-0.052l0.006-0.032l-0.014-0.012l-0.04,0.008l-0.055,0.04l-0.018,0.04l-0.082,0.079l-0.052,0.008l-0.026,0.032l-0.006,0.104l0.028,0.105l0.094,0.186l0.052,0.059l0.055,0.102l0.04,0.016l0.062,0.004l0.03,0.02l-0.004,0.04l-0.056,0.039l-0.022,0.042l-0.006,0.102l0.016,0.095l-0.008,0.042h-0.022l-0.054-0.057v-0.046l-0.017-0.03l-0.048-0.024l-0.02-0.056l0.012-0.026l0.036-0.012l0.014-0.03v-0.069l-0.036-0.07h-0.016l-0.01,0.028l-0.026,0.012l-0.034-0.002l-0.022,0.01l-0.008,0.048l-0.03,0.008l-0.016-0.024l-0.033-0.006l-0.016,0.018l-0.024,0.002l-0.002-0.022l0.028-0.032l0.013-0.052l0.018-0.018l0.038-0.006l0.014-0.014l-0.002-0.036l0.032-0.028v-0.035l-0.082-0.168v-0.107l-0.017-0.018l-0.038,0.008l-0.026,0.034v0.047l-0.028,0.044l-0.068,0.03l-0.157,0.161l-0.114,0.056l-0.048,0.084l-0.011,0.056l-0.02,0.036l-0.05,0.031l-0.01,0.042l0.026,0.066l-0.006,0.115l0.02,0.042l0.035,0.002l0.062-0.067l0.04,0.01l0.002,0.033l-0.026,0.038l-0.018,0.08l0.012,0.086l0.034,0.041l0.058,0.022l0.125,0.098l0.01,0.04l-0.024,0.069l0.012,0.07l0.052,0.044l0.058,0.006l0.068,0.052l0.002,0.042l-0.044,0.047l-0.03,0.004l-0.02-0.021l-0.024-0.002l-0.028,0.031l-0.012,0.094l-0.028,0.016l-0.069-0.034l-0.032-0.028l-0.066-0.143l-0.11-0.102l-0.111-0.076l-0.044-0.003l-0.068,0.079l-0.002,0.032l0.048,0.046l0.072,0.028l0.036,0.036l0.014,0.125l0.038,0.092l0.107,0.097l-0.002,0.028l-0.084,0.03l-0.037,0.032l-0.028,0.094l-0.002,0.077l0.053,0.09l0.001,0.056l-0.02,0.052l0.01,0.059l0.043,0.04l0.001,0.037l-0.036,0.075l-0.064,0.045l-0.018,0.07l0.009,0.072l0.057,0.142l0.124,0.207l0.072,0.046l0.024,0.075l-0.006,0.048l-0.048,0.051v0.049l0.081,0.096l0.006,0.042l-0.06,0.036l-0.057-0.006l-0.069-0.048l-0.097-0.03l-0.018-0.018l0.03-0.094l0.018-0.153l-0.012-0.169l-0.033-0.126l-0.042-0.039l-0.015-0.037v-0.051l-0.036-0.096l0.006-0.045v-0.022l-0.048-0.012l-0.033,0.019l-0.003,0.027l0.051,0.06l0.015,0.057l-0.006,0.063l0.009,0.043l0.06,0.054l0.024,0.081l-0.006,0.139l-0.143,0.203l-0.047,0.039h-0.038l-0.036,0.014l-0.05,0.154l0.006,0.091l0.04,0.046l0.04,0.008l0.046-0.028l0.061-0.123l0.06-0.052l0.022,0.004l0.002,0.02l-0.042,0.074l0.004,0.101l0.024,0.1l0.118,0.131l0.057,0.034l0.016,0.068l-0.022,0.048l-0.055,0.016l-0.032,0.021l-0.128,0.136l-0.018,0.046l-0.008,0.109l-0.022,0.036l-0.037,0.01l-0.034,0.044l-0.02,0.08l-0.044,0.049l-0.04,0.002l-0.06-0.037l-0.063-0.008l-0.056,0.014l-0.048-0.002l-0.058-0.04l-0.028,0.004l-0.025,0.046l-0.005,0.065l0.005,0.048l-0.014,0.066l-0.036,0.083l-0.018,0.291l-0.02,0.08l0.006,0.106l0.03,0.065l-0.01,0.038l-0.068,0.034l-0.02,0.036l-0.092,0.076l-0.121,0.023l-0.076-0.019l-0.077-0.06l-0.034-0.008l-0.032,0.012l-0.084-0.004l-0.155,0.034l-0.08,0.037l-0.016,0.044l-0.04,0.044l-0.033,0.014l-0.036,0.038l-0.062,0.195l-0.018,0.102l-0.034,0.056l-0.04,0.017l-0.01,0.026l-0.016-0.002l-0.047-0.055l-0.118-0.03l-0.092,0.004l-0.045,0.034l-0.038,0.002l-0.044-0.01l-0.068,0.012l-0.064,0.047l-0.127,0.042l-0.092,0.074l-0.095,0.195l-0.01,0.096l-0.026,0.053l-0.048,0.016l-0.038-0.019h-0.052l-0.039,0.041l-0.048,0.012l-0.056-0.014l-0.09,0.012l-0.089,0.104l-0.021,0.136l-0.026,0.052l-0.027,0.003l-0.036-0.018l-0.03,0.005l-0.041,0.05l-0.027,0.102l-0.024,0.009l-0.02-0.021l-0.003-0.066l-0.034-0.033l-0.116-0.031l-0.095,0.015l-0.072,0.047l-0.067,0.02l-0.119-0.009l-0.054,0.003l-0.114,0.049l-0.068,0.046l-0.112,0.181l-0.084,0.217l-0.039,0.203l-0.022,0.068l-0.046,0.056l-0.066,0.041h-0.058l-0.075-0.043l-0.112-0.024l-0.141,0.006l-0.164,0.055l-0.071,0.044l-0.078,0.1l-0.062,0.054l-0.111,0.055l-0.178,0.018l-0.055,0.024l-0.05,0.044l-0.06,0.034l-0.137,0.046l-0.138,0.063l-0.113,0.1l-0.114,0.153l-0.042,0.028l-0.123,0.008l-0.046,0.024l-0.034,0.044l-0.054,0.032l-0.263,0.01l-0.091,0.028l-0.116,0.079l-0.155,0.168l-0.066,0.042l-0.05-0.002l-0.054-0.056l-0.077-0.03l-0.116,0.004l-0.044,0.046l-0.087,0.05l-0.094,0.079l-0.088,0.108l-0.035,0.002l-0.02-0.028l-0.004-0.036l-0.04-0.044l-0.016-0.058l0.01-0.043l0.04-0.024l0.085-0.004l0.072-0.058l0.03-0.092l0.026-0.087l-0.04-0.07l-0.11-0.038h-0.121l-0.052,0.03l-0.072-0.002l-0.053-0.062l-0.002-0.042l0.04-0.023l0.047-0.07l0.004-0.062l-0.032-0.034l-0.004-0.036l0.024-0.067l-0.004-0.036l-0.055,0.095l-0.004,0.044l0.027,0.036l0.006,0.032l-0.039,0.056l-0.046,0.016l-0.048,0.033l-0.014,0.076l-0.034,0.078l-0.036,0.006l-0.028-0.016l-0.004-0.024l0.018-0.034l-0.004-0.093l-0.033-0.058l-0.062-0.04l-0.064,0.008l-0.042,0.036l-0.097-0.008l-0.078-0.068l-0.01-0.03l-0.028-0.014l0.01,0.048l0.104,0.102l0.119,0.012l0.05-0.04l0.046,0.008l0.042,0.053v0.076l-0.034,0.04l-0.016,0.094l0.02,0.051l0.081,0.048l0.046,0.054l-0.016,0.032l-0.203,0.084l-0.088,0.008l-0.026-0.018l-0.002-0.04l-0.059-0.12v-0.073l0.016-0.04l-0.004-0.018l-0.036,0.038l-0.006,0.089l-0.022,0.074l-0.036,0.024l-0.052-0.006l-0.107-0.09l-0.1-0.123l-0.042-0.092l-0.004-0.145l-0.03-0.108l0.004-0.042l0.026-0.032l0.078-0.008l0.028-0.023l0.004-0.042l-0.03-0.09l-0.016-0.082l-0.044-0.053l-0.054-0.018l-0.017-0.022l0.019-0.006l0.042,0.012h0.03l0.02-0.016l0.048,0.002l0.064,0.038l0.027,0.037l0.024,0.012l-0.02-0.057l-0.139-0.094l-0.048-0.066l0.002-0.073l0.07-0.098l0.09-0.046l0.051,0.002l0.036-0.002l0.032-0.028l0.038-0.006l0.032,0.016h0.042l0.028-0.036l0.002-0.061l0.033-0.062l-0.008-0.056l-0.073-0.08l-0.034-0.087l-0.006-0.09l-0.046-0.103l-0.04-0.032l-0.006,0.022l0.05,0.093l0.01,0.106l0.03,0.099l0.078,0.088l0.008,0.038l-0.032,0.046l-0.012,0.067l-0.02,0.004l-0.072-0.019l-0.092,0.007l-0.055,0.044l-0.116,0.054l-0.064,0.07l-0.021,0.077l0.017,0.086l0.044,0.054l-0.004,0.016l-0.046-0.008l-0.049,0.016l-0.004,0.032l0.028,0.048l0.045,0.021l0.038,0.04l0.012,0.082l0.028,0.066l-0.008,0.02l-0.068,0.002l-0.049,0.039l-0.026,0.068l0.016,0.116l-0.022,0.069l-0.062,0.048l-0.076,0.088l-0.038,0.07l-0.031,0.014l-0.026-0.01l-0.01-0.03l-0.002-0.096l-0.02-0.022l-0.052,0.008l-0.056,0.048l-0.024,0.056l-0.044,0.038l-0.067,0.025l-0.022-0.013l-0.004-0.088l-0.042-0.074l-0.052-0.046v-0.02l0.012-0.045l-0.002-0.03l-0.038,0.054l0.002,0.061l0.042,0.048l0.044,0.072l0.012,0.107l0.036,0.014l0.085-0.028l0.072-0.045l0.024-0.064l0.032-0.03l0.014,0.012l-0.002,0.074l0.034,0.055l0.052,0.018l0.057-0.016l0.042-0.071l0.09-0.086l0.028,0.004l0.04,0.106l0.103,0.119l0.044,0.076l-0.004,0.311l-0.028,0.095l-0.072,0.078l-0.043-0.002l-0.032-0.02l-0.128-0.04l-0.07-0.042l-0.041-0.004l-0.092,0.064h-0.036l-0.032-0.022l-0.046-0.012l-0.125-0.002l-0.096-0.014l-0.139-0.05l-0.229-0.019l-0.086-0.018l-0.125-0.072l-0.124-0.04l-0.092,0.002l-0.342,0.088l-0.136,0.01l-0.103,0.028l-0.163,0.089l-0.124,0.006l-0.05-0.016l-0.157-0.119l-0.096-0.018l-0.042,0.012l-0.041-0.004l-0.056-0.026l-0.048-0.004l-0.054,0.024l-0.091,0.105l-0.126,0.074l-0.044-0.002l-0.072-0.05l-0.093-0.03l-0.09-0.002l-0.061,0.034l-0.074-0.004l-0.062-0.042l-0.048-0.149l-0.062-0.108l-0.121-0.099l-0.114-0.038l-0.145-0.014l-0.034-0.012l-0.018-0.036l-0.064-0.042l-0.067-0.019l-0.036-0.036l-0.01-0.076l-0.088-0.165l-0.121-0.1l-0.088-0.016l-0.068,0.032l-0.04-0.004l-0.081-0.048l-0.173-0.283l-0.104-0.301l-0.006-0.091l-0.068-0.177l-0.065-0.034l-0.074,0.01l-0.044,0.026l0.104,0.002l0.055,0.033l0.018,0.146l-0.052,0.211l-0.005,0.12l0.091,0.249l-0.008,0.047l-0.085,0.066l-0.032,0.002l-0.034-0.018l-0.126-0.02l-0.115-0.056l-0.068-0.071l-0.042-0.018l0.09,0.105l0.127,0.066l0.124,0.028l0.04,0.044l0.038,0.147l0.025,0.04l0.05,0.024l0.168,0.151l0.123,0.15l0.149,0.201l0.136,0.135l0.177,0.118l0.168,0.171l0.049,0.12l0.102,0.137l0.064,0.058l0.324,0.225l0.072,0.036l0.058,0.046l0.109,0.181l0.184,0.187l0.121,0.094l0.313,0.295l0.205,0.235l0.116,0.153l0.169,0.311l0.076,0.104l0.171,0.233l0.111,0.223l0.01,0.109l-0.039,0.106l-0.11,0.113l-0.006,0.026l0.064,0.07l-0.008,0.078l-0.1,0.101l-0.123,0.062l-0.052,0.002l-0.032-0.012l-0.038,0.002l-0.161,0.05l-0.213,0.078l-0.393,0.117l-0.249,0.1l-0.163,0.087l-0.317,0.138l-0.217,0.083l-0.263,0.082l-0.157,0.084l-0.209,0.169l-0.174,0.185l-0.067,0.086l-0.028,0.082l0.004,0.045l-0.018,0.056l-0.058,0.088l-0.028,0.098l-0.074,0.149l-0.053,0.068l-0.048,0.026l-0.024,0.023l-0.036,0.064l-0.094,0.102l-0.075,0.042l-0.09,0.014l-0.088,0.031l-0.089,0.05l-0.158,0.164l-0.037,0.061l0.004,0.036l-0.016,0.048l-0.068,0.058l-0.082,0.018l-0.123,0.047l-0.086,0.044l-0.05,0.016l-0.073,0.004l-0.062,0.018l-0.062,0.038l-0.106,0.01l-0.121,0.032l-0.181,0.026l-0.05,0.014l-0.07-0.014l-0.083-0.046l-0.218-0.052l-0.065-0.034l-0.02-0.069l0.002-0.05l0.042-0.052h0.041l0.056,0.026h0.04l0.078-0.014l0.046-0.03l0.003-0.026l-0.043-0.084l-0.006-0.061l0.049-0.084l0.078-0.038l0.114-0.016l0.091-0.067l0.082-0.102l0.03-0.056l-0.002-0.026l-0.014,0.002l-0.046,0.046l-0.177,0.066l-0.102,0.012l-0.067-0.039l-0.042-0.096l0.003-0.097l0.048-0.15l0.025-0.211l0.006-0.268l0.009-0.069l0.024-0.025l0.003-0.024l-0.018-0.024l0.009-0.235l-0.012-0.108l0.009-0.148l0.042-0.184l0.024-0.256l0.006-0.46l0.021-0.531l0.063-0.466l0.067-0.244l0.036-0.178l0.041-0.113l0.042-0.044l0.058-0.002l0.034,0.008h0.055l0.078-0.048l0.175-0.191l0.154-0.114l0.075-0.01l0.038,0.018l0.012,0.052l0.036,0.064h0.022l0.02-0.028l-0.016-0.116l-0.082-0.179l-0.103-0.134l-0.169-0.184l-0.076-0.03l-0.111-0.009l-0.232,0.024l-0.048-0.009l-0.057-0.048l-0.094-0.172l-0.129-0.169l-0.105-0.07l-0.108-0.035l-0.059-0.002l-0.063,0.025l-0.11,0.086l-0.106,0.134l-0.054,0.091l-0.012-0.001l-0.021-0.018l-0.045-0.011l-0.043,0.003l-0.029-0.014l-0.003-0.018l0.015-0.036v-0.019l-0.04-0.055l-0.011-0.052l-0.005-0.065l-0.033-0.133l-0.042-0.079l-0.078-0.071l-0.027-0.002l-0.012,0.02l-0.017-0.005l0.002-0.046l-0.049-0.109l-0.114-0.127l-0.034,0.002l-0.005-0.012l0.024-0.028l0.035-0.014l0.081-0.089l0.016-0.037l-0.007-0.013l-0.044,0.014l-0.035,0.045l-0.008,0.035l-0.018,0.02l-0.041,0.008l-0.102,0.055l-0.03-0.001l-0.003-0.02l0.024-0.093l-0.001-0.05l-0.037-0.056l0.116-0.02l0.037,0.003l0.047,0.074l0.014,0.002l0.075-0.115l0.045-0.029l0.048-0.009l0.032-0.039l0.025-0.104l0.029-0.034l0.051-0.024l0.018-0.027l0.006-0.052l0.032-0.025h0.059l0.054,0.015l0.072-0.009l0.005-0.03l0.165,0.001l0.225,0.072l0.429-0.012l0.119-0.107l0.157-0.266l0.072-0.075l0.509-0.299l-0.018-0.141l-0.118-0.163l-0.021-0.09l-0.081-0.178l-0.003-0.06l0.038-0.05l0.006-0.033l0.03-0.03l0.01-0.036l0.047-0.032l0.03,0.006l0.016-0.01l0.012-0.056l0.026-0.018l0.074-0.004l0.026,0.014v0.044l-0.044,0.056v0.024l0.02,0.014l0.143-0.012l0.05,0.008l0.058,0.026l0.083,0.011l0.134,0.066l0.038,0.002l0.034-0.016h0.032l0.029,0.026l0.072,0.02l0.144,0.086l0.029-0.004l0.078-0.086l0.034-0.018l0.036-0.05l0.02-0.041l0.032-0.036l0.057-0.036l0.03-0.056l0.026-0.082h0.036l0.058,0.05h0.034l0.026-0.02l0.045,0.002l0.032,0.038l0.046,0.012l0.143-0.012l0.096-0.038l0.391-0.097l0.123-0.066l0.068-0.052l0.046-0.02l0.087-0.006l0.062-0.018l0.03,0.008l0.105,0.215l0.204,0.271l-0.05,0.118l0.008,0.024l0.169,0.067l0.134,0.014l0.006-0.014l-0.018-0.027l-0.002-0.042l0.087-0.062v-0.022l-0.014-0.024l0.004-0.05l0.02-0.004l0.211,0.196l0.204,0.147l0.091,0.02l0.269-0.004l0.088,0.066v-0.174l-0.082-0.163l-0.099-0.117v-0.026l0.041-0.062v-0.024l-0.02-0.032l-0.002-0.088l0.02-0.023h0.046l0.096,0.033l0.05-0.006l0.004-0.027l-0.038-0.076l-0.024-0.183l-0.112-0.18l-0.034-0.002l-0.093,0.04l-0.032,0.044h-0.02l-0.056-0.074l-0.026-0.012h-0.032l-0.023-0.01l-0.042-0.059l-0.066-0.048l-0.054-0.02l-0.022-0.026l-0.032-0.165l-0.025-0.014l-0.05-0.004l-0.046-0.018l-0.036-0.002l-0.02,0.006l-0.046-0.01l-0.101-0.064l-0.06-0.104l-0.004-0.047l0.01-0.046l-0.006-0.046l-0.028-0.03l-0.072-0.002l-0.034,0.022h-0.021l-0.008-0.02l0.016-0.042l0.002-0.063l0.037-0.1l0.016-0.06l-0.006-0.028l-0.03-0.03v-0.069l0.044-0.082l0.054-0.046l0.002-0.048l-0.02-0.035l-0.056-0.02l-0.01-0.038l0.02-0.068l-0.004-0.04l-0.014-0.016l-0.002-0.034l0.022-0.047l-0.008-0.086l-0.071-0.08h-0.034l-0.03,0.01l-0.072-0.01l-0.038-0.024l-0.02-0.069v-0.08l0.016-0.022l0.044-0.006l0.028-0.044l0.018-0.065l0.06-0.062l0.091-0.042l0.05,0.008l0.102,0.082l0.091,0.041l0.034-0.002l0.09-0.085l0.004-0.08l0.05-0.052l0.035-0.018l0.036-0.073l0.01-0.052l-0.016-0.046l0.016-0.05l0.054-0.038l0.13-0.01l0.087,0.042l0.05,0.056l0.06,0.026h0.06l0.057,0.018l0.03-0.002l0.086-0.048l0.032,0.004l0.02,0.04l0.058,0.04l0.039,0.002l0.04-0.01l0.11,0.026l0.041,0.038l0.001,0.043l0.089,0.076l0.008,0.032l0.022,0.008l0.048-0.014l0.026-0.032l0.024-0.002l0.02,0.01l0.031-0.002l0.078-0.044l0.094,0.006l0.091,0.056l0.042,0.008l0.034,0.02l0.042,0.002l0.018-0.022l-0.002-0.044l-0.06-0.08l-0.012-0.051l-0.042-0.064l-0.02-0.08l0.002-0.052l0.102-0.153v-0.04l-0.022-0.05l0.006-0.061l0.03-0.03l0.038,0.002l0.024-0.022l-0.188-0.375l0.01-0.012l0.062-0.002l0.026-0.019l0.018-0.028l0.048-0.004l0.038,0.018l0.03,0.039l0.039,0.012l0.05-0.004l0.042-0.037l0.054,0.002l0.05,0.029l0.348-0.004l0.014,0.014l0.004,0.028h0.012l0.016-0.042l0.014,0.002l0.016,0.026l0.044,0.006l0.004-0.018l-0.03-0.03l0.004-0.041l0.026,0.002l0.067,0.045l0.02,0.04l0.044,0.002l0.106-0.042l0.105-0.111l-0.002-0.042l0.024-0.032l0.036-0.028l0.03-0.044l0.012-0.051l0.072-0.076l0.045-0.022l0.072,0.004l0.054,0.03l0.076,0.016l0.067-0.008l0.062,0.004l0.076,0.026l0.072-0.002l0.109-0.042l0.028-0.032l0.112-0.054l0.029-0.065l0.054-0.032l0.038-0.004l0.068-0.052l0.052-0.076l0.051-0.008l0.002-0.018l-0.022-0.038l0.004-0.031l0.024-0.006l0.031,0.015l0.03-0.009l0.019-0.021l0.001-0.036l0.039-0.049l0.08-0.037l0.021-0.03l0.005-0.047l0.037-0.093l0.041-0.029l0.059-0.015l0.069-0.047l0.065-0.012l0.046,0.012l0.033-0.006l0.109-0.072l0.025-0.03l0.112-0.009l0.026-0.011l0.021,0.005l0.009,0.022l0.043,0.002l0.062-0.033l0.023,0.003l0.025,0.045l0.074,0.057l0.036,0.071l0.017,0.068l0.089,0.081h0.046l0.032-0.026l0.009-0.084l0.048-0.074l0.098-0.072l0.104-0.044l0.08-0.066l0.048-0.024l0.018-0.036v-0.036l0.021-0.029l0.002-0.033l-0.032-0.059l0.003-0.049l0.083-0.15l0.004-0.058l0.034-0.041l-0.003-0.063l-0.052-0.06v-0.034l0.049-0.039l0.013-0.048l0.03-0.036l0.002-0.024l-0.026-0.032v-0.048l0.017-0.047l-0.002-0.057l-0.051-0.075l-0.002-0.115l0.032-0.046l-0.004-0.038l-0.067-0.081l-0.003-0.038l0.026-0.033l0.001-0.029l-0.024-0.055l0.002-0.165l-0.026-0.087l-0.051-0.051l-0.039-0.018l-0.036-0.071l-0.071-0.08l-0.02-0.081l0.002-0.039l0.021-0.027l-0.003-0.029l-0.045-0.071v-0.086l0.03-0.031l0.006-0.067l-0.026-0.049l0.005-0.073l0.506-1.278l-0.042-0.606l-0.172-0.384l-0.003-0.129l-0.081-0.143l-0.05-0.143l-0.155-0.122l-0.089-0.024l-0.057-0.044v-0.026l0.027-0.043l-0.002-0.032l-0.018-0.026v-0.024l0.056-0.063v-0.024l-0.051-0.048l0.001-0.036l0.047-0.059v-0.074l-0.048-0.051l-0.014-0.053l0.002-0.147l-0.041-0.053l-0.065-0.009l-0.067,0.021l-0.074-0.003l-0.109-0.092l0.003-0.039l0.023-0.035l0.007-0.105l0.016-0.027l-0.008-0.04l-0.084-0.087l-0.035-0.003l-0.014-0.013l0.014-0.077l0.069-0.085l0.015-0.064l0.033-0.036l0.041-0.017l0.042-0.098l0.053-0.072l0.005-0.033l-0.023-0.024v-0.029l0.033-0.042l-0.004-0.106l-0.062-0.087l0.004-0.047l0.055-0.081l0.001-0.045l0.053-0.056l0.051-0.015l0.015-0.021l0.009-0.062l0.018-0.05l0.015-0.001l0.051,0.033l0.059,0.011l0.026-0.008l0.006-0.081l0.034-0.036l0.017-0.068l-0.008-0.053l0.034-0.113l-0.008-0.027l0.006-0.019l0.044-0.032l0.031-0.089l0.003-0.045l-0.024-0.033l-0.006-0.047l-0.016-0.032l0.012-0.033l0.042-0.016l0.032-0.032l0.01-0.035l0.024-0.025l0.027-0.003l0.002-0.03l-0.035-0.085l0.002-0.025l0.015-0.011v-0.022l-0.015-0.023l0.003-0.02l0.022-0.015v-0.016l0.001-0.115l-0.018-0.016l-0.102,0.001l-0.01-0.011l0.012-0.03l0.055-0.034l0.006-0.035l-0.046-0.085l-0.045-0.022l-0.028-0.029l0.001-0.028l0.063-0.074l0.125-0.086l0.048-0.066l0.037-0.014l0.03-0.038l-0.002-0.032l-0.015-0.047l-0.024-0.017l-0.032-0.003l-0.037-0.029l-0.061-0.009l-0.051-0.051l-0.006-0.029l-0.019-0.013l-0.067-0.003l-0.019-0.015l-0.002-0.026l-0.018-0.012l-0.027-0.005l-0.033-0.04l-0.005-0.023l0.01-0.019l-0.002-0.019l-0.046-0.044v-0.012l0.027-0.006l0.001-0.017l-0.026-0.024l-0.001-0.054l0.021-0.032l0.043-0.013l0.025,0.002l0.012,0.015h0.014l0.132-0.098h0.031l0.106,0.059l0.038,0.008l0.024-0.014l0.012-0.062l0.018-0.005l0.034,0.017l0.038-0.002l0.017-0.018l-0.001-0.028l-0.02-0.033l-0.029-0.014l-0.027-0.049l0.003-0.024l0.073-0.056l0.004-0.033l-0.035-0.053l0.001-0.018l0.039-0.018l0.013-0.036l-0.009-0.02l-0.036-0.025l-0.033-0.082l-0.034-0.034l-0.046-0.026l0.002-0.017l0.041-0.027h0.037l0.019-0.014l0.03-0.002l0.011-0.023l-0.001-0.022l0.036-0.017v-0.01l-0.028-0.018l-0.012-0.045l-0.002-0.07l-0.016-0.029l0.001-0.062l0.025-0.067l0.025-0.015l0.02-0.005l0.001-0.021l-0.03-0.036l-0.054-0.024l-0.023-0.033l-0.002-0.048l0.011-0.025l-0.001-0.025l-0.034-0.04l0.001-0.018l0.046-0.027l0.012-0.02l0.004-0.024l0.024-0.033l-0.002-0.016l-0.038-0.003l-0.021-0.01l-0.014,0.002l-0.015,0.019l-0.033,0.006l-0.057,0.058l-0.034,0.009l-0.028-0.003l-0.03-0.028l-0.026-0.008h-0.043l-0.044-0.037l-0.001-0.041l0.031-0.048l0.001-0.017l-0.015-0.016l-0.001-0.036l-0.021-0.018l-0.012-0.037l-0.042-0.023l-0.046-0.006l-0.033,0.01l-0.007-0.012l0.009-0.022l-0.003-0.017l-0.049-0.036l-0.097-0.013h-0.027l-0.017,0.015l-0.001,0.022l-0.021,0.009l-0.062-0.003l-0.031-0.014l-0.03-0.001l-0.02,0.01l-0.019-0.006l-0.006-0.074l-0.053-0.145l0.002-0.05l-0.015-0.015l-0.028-0.001l-0.027-0.016l-0.004-0.018l0.028-0.047l-0.007-0.027l-0.024-0.011l-0.009-0.018v-0.035l-0.036-0.031l-0.043-0.012h-0.059l-0.032,0.011l-0.027-0.002l-0.041-0.039l-0.001-0.053l-0.014-0.018l-0.029-0.012l-0.001-0.045l0.033-0.059v-0.078l-0.025-0.034l-0.005-0.023l-0.025-0.014l-0.028-0.001l-0.011-0.014l0.009-0.043l-0.023-0.023l-0.029-0.001l-0.068,0.022l-0.025-0.011l-0.002-0.049l0.022-0.036l0.003-0.044l0.032-0.034l-0.002-0.08l-0.046-0.063l0.005-0.023l0.055-0.049l0.025-0.004l0.028,0.012l0.022-0.005l0.04-0.035l0.032-0.008l0.014-0.03l0.017-0.004l0.022,0.005l0.04-0.027l0.041-0.008l0.027-0.026l0.01-0.03l0.055-0.023l0.069-0.012l0.044-0.002l0.021-0.015l0.026,0.001l0.029,0.032l0.018-0.001l0.046-0.025l0.039-0.057l0.026-0.014l0.036-0.061l0.019-0.088l0.054-0.107l-0.009-0.021l0.011-0.016l0.028-0.013l0.045-0.1l-0.003-0.025l-0.057-0.038l-0.008-0.03l0.005-0.059l0.035-0.033v-0.026l-0.025-0.05h-0.017l-0.019,0.025l-0.037,0.017h-0.044l-0.024-0.014l-0.02,0.004l-0.042,0.069l-0.028,0.001l-0.036-0.034h-0.019l-0.041,0.038h-0.061l-0.04,0.025l-0.014-0.005l-0.007-0.032l-0.027-0.016l-0.028-0.007l-0.059-0.065l-0.053-0.104l-0.025-0.006l-0.016,0.007l-0.026-0.011l-0.012-0.058l-0.022-0.012l-0.026-0.004l-0.027-0.033l-0.034-0.001l-0.037,0.029l-0.022-0.001l-0.041-0.019l-0.043-0.001l-0.031-0.013l-0.067-0.064l-0.042-0.016l-0.04-0.082l-0.012-0.066l0.002-0.035l0.032-0.037l-0.001-0.018l-0.017-0.017v-0.013l0.023-0.022v-0.047l-0.027-0.042l-0.218-0.156l-0.047-0.001l-0.014,0.024h-0.017l-0.036-0.01l-0.023,0.001l-0.014,0.019h-0.017l-0.053-0.034l-0.017-0.001l-0.02,0.029l-0.014-0.002l-0.011-0.019l-0.025-0.016h-0.025l-0.096,0.038l-0.017-0.001l-0.016-0.027l-0.002-0.152l-0.038-0.034l-0.114-0.034l-0.099-0.092l-0.019-0.05l-0.002-0.027l0.025-0.039l-0.002-0.015l-0.025-0.001l-0.014,0.015l-0.029-0.001l-0.025-0.027l-0.006-0.029l0.041-0.044l0.001-0.048l-0.018-0.033l-0.021-0.012l0.003-0.029l0.044-0.048l0.004-0.078l-0.025-0.053l-0.08-0.065l-0.087-0.026l-0.025,0.008l-0.006,0.035l-0.027,0.019l0.003,0.02l0.021,0.016l-0.082,0.214l-0.023-0.001l-0.047-0.026h-0.034l-0.029,0.02v0.021l0.02,0.033l-0.006,0.062l-0.029,0.039l-0.066,0.007l-0.011,0.02l-0.003,0.023l-0.015,0.018l-0.016-0.006l-0.009-0.055l0.002-0.042l-0.015-0.007l-0.016,0.001v0.017l0.009,0.015l-0.003,0.018l-0.02-0.003l-0.031-0.03l-0.049-0.024l-0.033,0.006l-0.019-0.012l0.012-0.027l-0.011-0.026l-0.021-0.005l-0.01,0.02l-0.014-0.002l-0.006-0.07l-0.016-0.015l-0.022,0.004l-0.012-0.015v-0.066l0.015-0.015v-0.021l-0.043-0.029l-0.02-0.048l0.005-0.069l0.049-0.049l0.03-0.01l0.004-0.021l-0.025-0.038l0.012-0.027l-0.013-0.009l-0.032-0.006l-0.028-0.024l-0.036-0.006l-0.022,0.013v0.021l-0.012,0.003l-0.018-0.025l0.003-0.033l-0.019-0.024l-0.064-0.008l-0.04,0.018l-0.02-0.001l-0.015-0.021l0.005-0.023l0.018-0.014l-0.003-0.027l-0.079-0.079l-0.006-0.053l-0.031-0.063l-0.018-0.098v-0.63l-0.121-0.086l-0.01-0.037l0.007-0.074l0.032-0.027l0.075-0.001l0.012-0.312l-0.007-0.007l-0.014,0.001l-0.019,0.048l-0.048,0.071l-0.039,0.019l-0.031-0.001l-0.071-0.033l-0.058-0.005l-0.036-0.024l-0.008-0.034l-0.02-0.008l-0.046,0.014l-0.029-0.004l-0.033-0.039v-0.07l-0.021-0.037l-0.061-0.045v-0.027l0.037-0.056l-0.006-0.036l-0.079-0.089l-0.057-0.029l-0.022-0.022l-0.002-0.029l-0.014-0.015l-0.03-0.019l-0.027-0.061l0.01-0.029l-0.016-0.022l-0.05-0.028l-0.043-0.072l0.004-0.028l-0.014-0.02l-0.048-0.017l-0.012-0.03l0.022-0.022l0.042,0.002l0.036-0.024l0.009-0.028l-0.023-0.016l-0.058,0.002l-0.012-0.016l0.027-0.025l-0.006-0.02l-0.027-0.021l-0.008-0.028l0.009-0.046l-0.01-0.052l-0.031-0.018h-0.07l-0.012,0.012l0.003,0.034l0.016,0.026v0.035l-0.054,0.054l-0.039,0.001l-0.012,0.027l-0.014,0.002l-0.022-0.02l-0.038-0.006l-0.09-0.071l-0.038-0.01l-0.089-0.086l-0.032-0.007l-0.07-0.064l-0.009-0.037l-0.04-0.043l-0.043-0.021l-0.038-0.039l-0.063-0.024l-0.871-1.012l-0.027,0.006l-0.009-0.012l0.02-0.029l-0.015-0.009l-0.045,0.009l-0.02-0.015l-0.014-0.06l-0.016-0.006l-0.027,0.023l-0.024-0.008l-0.101-0.087l-0.038-0.009l-0.05,0.024l-0.027-0.002l-0.019-0.028l-0.012-0.175l-0.018-0.004l-0.015,0.007l-0.021-0.006l-0.011-0.029l0.008-0.051l-0.038-0.049l-0.053-0.011l-0.042-0.038l-0.011-0.037l-0.018-0.03l-0.027-0.02l-0.01-0.027l0.024-0.075l-0.003-0.056l-0.032-0.05l-0.044-0.036l-0.064-0.008l-0.032-0.021l-0.022-0.04l-0.026-0.018l-0.032-0.008l-0.027-0.033l0.002-0.024l0.042-0.044l0.015-0.051l0.004-0.081l0.035-0.061l0.03-0.013l0.014-0.098l-0.017-0.027l-0.043-0.011l-0.049-0.051h-0.037l-0.021,0.02l-0.026-0.005l-0.039-0.046l-0.005-0.053l0.014-0.044l-0.009-0.056l-0.039-0.085l-0.027-0.011l-0.04,0.008l-0.036-0.006l-0.019-0.023l-0.003-0.078l-0.059-0.064l-0.027-0.001l-0.012,0.018l-0.02-0.002l-0.018-0.028l0.002-0.05l0.025-0.05l-0.019-0.126h-0.018l-0.015,0.035l-0.016,0.003l-0.015-0.016l0.024-0.06l-0.009-0.012l-0.033,0.008l-0.039-0.003l-0.044-0.017l-0.049-0.003l-0.008,0.011l0.003,0.028l-0.022,0.045l-0.059,0.016l-0.028,0.033l-0.005,0.048l-0.02,0.006l-0.052-0.015l-0.029-0.034l-0.023-0.001l-0.02,0.032l-0.034-0.008l-0.049-0.068l-0.063-0.022l-0.053-0.044l-0.003-0.024l0.014-0.037v-0.077l0.024-0.068l-0.001-0.037l-0.022-0.016l-0.046-0.002l-0.02,0.025l-0.02,0.087l-0.012-0.002l-0.01-0.031l-0.001-0.033l-0.039-0.018l-0.083-0.005l-0.021-0.013l-0.007-0.045l-0.039-0.076l-0.049-0.027l-0.039-0.003l-0.03-0.013l-0.018-0.031l-0.073-0.033l-0.012-0.039l0.009-0.075l-0.025-0.059l0.004-0.065l-0.027-0.03h-0.028l-0.027,0.017l-0.035-0.006l-0.006-0.051l-0.027-0.021l0.001-0.026l-0.015-0.011l-0.033,0.006l-0.03-0.016l-0.012-0.045l-0.035-0.015l-0.012-0.043l0.006-0.113l0.023-0.058l0.001-0.088l0.02-0.021v-0.016l-0.012-0.023l0.001-0.03l0.033-0.018l0.014-0.039l0.001-0.028l0.028-0.012l0.004-0.024l-0.018-0.031l0.014-0.068l0.054-0.06l0.056-0.01l0.056,0.018l0.032-0.004l0.017-0.032l-0.01-0.038l0.008-0.035l0.016-0.022l-0.013-0.038l-0.044-0.028l-0.042-0.002l-0.032-0.02l-0.01-0.038l-0.04-0.022l-0.038-0.01l-0.012-0.03l0.018-0.043l-0.012-0.03l-0.043-0.026l-0.054,0.008l-0.038,0.026l-0.084-0.004l-0.024,0.008l-0.065-0.002l-0.01-0.02l0.026-0.04l-0.034-0.03l-0.072-0.002l-0.046-0.024l0.012-0.036l-0.016-0.004l-0.046,0.02h-0.081l-0.096-0.004l-0.034,0.01l-0.03-0.004l-0.024-0.054l0.01-0.061l-0.012-0.04l-0.053-0.034l-0.05-0.004l-0.038,0.02h-0.034l-0.038-0.012l-0.034,0.002l-0.022,0.036l-0.031,0.002l-0.056-0.032l-0.114,0.006l-0.046-0.01l-0.031-0.028l-0.002-0.022l-0.032-0.01l-0.072,0.012l-0.06-0.014l-0.018-0.016v-0.026l-0.026-0.018l-0.029-0.002l-0.02-0.012l-0.006-0.061l-0.024-0.014l-0.07,0.01l-0.058-0.012l-0.024-0.02l-0.016-0.042l-0.037-0.034l-0.058-0.014l-0.032-0.03l-0.014-0.046l-0.106-0.055l-0.045,0.002l-0.022-0.012l-0.016-0.044l-0.042-0.048l-0.014-0.052l-0.058-0.061v-0.062l-0.034-0.036h-0.026l-0.014,0.01l-0.037-0.004l-0.038-0.068l-0.044-0.02l-0.032,0.002l-0.034,0.058l-0.022,0.002l-0.018-0.008h-0.018l-0.015,0.016l-0.022-0.004l-0.028-0.03l-0.058-0.04l-0.014-0.051l-0.072-0.084l-0.018-0.064l-0.093-0.05l-0.088-0.014l-0.119-0.059l-0.03-0.002l-0.028-0.03l-0.014-0.056l-0.048-0.028l-0.052-0.002l-0.079,0.028l-0.066-0.006l-0.052-0.026l-0.006-0.042l0.03-0.077l-0.006-0.03l-0.07-0.018l-0.028-0.04l-0.014-0.054l-0.043-0.032l-0.099-0.007l-0.084-0.036l-0.056-0.05l-0.028-0.008l-0.02,0.024l-0.018-0.004l-0.04-0.062l-0.068-0.048l-0.083,0.002l-0.134,0.054l-0.04-0.004l-0.036-0.036l-0.111-0.042l-0.154-0.153l-0.017-0.044l-0.048-0.02h-0.034l-0.014,0.022l-0.028-0.002l-0.028-0.024v-0.038l0.052-0.05l0.084-0.004l0.043-0.047l0.044-0.006l0.064-0.044l0.03-0.064l-0.002-0.038l0.062-0.06l0.075-0.023l0.042,0.009l0.028-0.011l0.028-0.04l0.038-0.004l0.052-0.04l0.026,0.008l0.013,0.024l0.038,0.006l0.018-0.02l0.012-0.092l-0.03-0.026l0.004-0.026l0.048-0.043l0.016-0.062l0.03-0.026h0.038l0.028,0.01l0.02-0.004l0.016-0.036l-0.007-0.034l-0.067-0.05l-0.002-0.024l0.02-0.033l0.002-0.1l-0.03-0.052l-0.06-0.042l-0.068-0.101l-0.004-0.056l0.022-0.028l-0.002-0.026l-0.036-0.044l0.002-0.029l0.048-0.036v-0.034l0.018-0.004l0.048,0.048l0.105,0.022l0.088-0.008l0.05-0.032l0.008-0.062l0.022-0.028h0.109l0.066-0.034l0.096-0.022l0.091,0.01l0.046,0.03l0.12,0.01l0.042,0.024l0.008,0.072l0.023,0.004l0.044-0.026l0.054-0.058l0.086-0.026h0.091l0.034-0.028l0.046,0.004l0.01,0.03v0.066l0.032,0.026l0.036-0.004l0.022,0.022l0.002,0.039l0.03,0.024l0.049,0.006l0.044-0.018l0.046,0.018l0.058,0.106l0.081,0.036h0.04l0.014-0.018l0.03,0.006l0.028,0.024l0.034-0.004l0.038-0.066l0.083-0.018l0.092,0.012l0.038,0.024h0.034l0.022-0.038l-0.026-0.072l0.012-0.018l0.032-0.006l0.01-0.017l0.013-0.056l0.02-0.018l0.002-0.03l-0.02-0.038l0.006-0.028l0.098-0.067l0.03-0.052l0.072-0.066l0.043-0.006l0.032,0.018l0.05,0.002l0.038-0.044v-0.04l0.018-0.02l0.038-0.002l0.063-0.057h0.022l0.026,0.016h0.064l0.04-0.034l0.004-0.112l0.03-0.036l0.002-0.036l-0.04-0.029l0.004-0.026l0.036-0.022l0.01-0.048l-0.022-0.066l0.014-0.115l0.045-0.062l0.122-0.052l0.072-0.086l0.028-0.085l0.006-0.07l0.061-0.08l0.102-0.061l0.04-0.052l0.012-0.046l0.044-0.052l-0.016-0.024l-0.05-0.004l-0.024-0.016l-0.014-0.041l-0.126-0.086l-0.01-0.042l0.018-0.024l-0.008-0.024l-0.063-0.002l-0.068,0.04l-0.112,0.012l-0.131-0.058l-0.034-0.05l-0.135-0.093l-0.064-0.016l-0.154-0.008l-0.121-0.056l-0.046,0.002l-0.026-0.01l-0.032-0.044l-0.043-0.018l-0.054,0.012l-0.032-0.004l-0.062-0.057l0.006-0.112l0.028-0.103l0.008-0.138l-0.016-0.042l0.012-0.048l0.197-0.115l0.038-0.042l0.026-0.012l0.054,0.016l0.05-0.02l-0.006-0.024l-0.036-0.022l-0.078-0.091l-0.082-0.056l0.002-0.026l0.016-0.014l-0.006-0.022l-0.042-0.014l-0.049,0.004l-0.068,0.052l-0.01,0.032l-0.02,0.008l-0.008,0.018l0.014,0.024l-0.008,0.04l-0.042,0.031l-0.071,0.024l-0.06-0.01l-0.042,0.002l-0.028,0.03l-0.032,0.002l-0.036-0.016l-0.018,0.008l-0.006,0.046l-0.035,0.048l-0.05,0.01l-0.036,0.01l-0.022,0.024l-0.046,0.02l-0.071-0.014l-0.024-0.02l-0.024-0.004l-0.04,0.006l-0.054-0.004l-0.038-0.036l-0.012-0.082l0.042-0.06l-0.012-0.012l-0.032-0.017l-0.052-0.04l-0.029,0.006l-0.012-0.014v-0.028l-0.014-0.05l0.018-0.034l0.024-0.012l0.013-0.016l-0.009-0.022l0.015-0.014l0.086-0.004l0.038-0.021l0.052-0.044l0.107-0.03l0.048-0.03l0.06-0.076l0.064-0.024h0.033l0.016-0.022l-0.004-0.047l0.04-0.096l0.044-0.046l0.124-0.028l0.057,0.01l0.024-0.006l0.044-0.049l0.036-0.02l0.028-0.05l0.028-0.096l-0.014-0.026l-0.048-0.012l-0.07,0.004l-0.046-0.016l-0.023-0.035l-0.006-0.048l-0.074-0.082l-0.05-0.012l-0.034,0.024l-0.034,0.002l-0.036,0.038l-0.029-0.002l-0.036-0.034l-0.036-0.008l-0.026-0.034v-0.084l-0.028-0.077l-0.044-0.048l-0.038-0.008l-0.024-0.012l-0.011-0.046l-0.028-0.014l-0.038,0.006l-0.014,0.014h-0.03l-0.096-0.113l-0.041-0.024l-0.014,0.004v0.022l-0.018,0.002l-0.054-0.062l-0.088-0.078l-0.024,0.01l-0.01-0.014l0.02-0.052l-0.024-0.069l-0.061-0.062l-0.036-0.006l-0.024-0.02l-0.006-0.038l-0.038-0.014l-0.06,0.02l-0.02,0.022l0.002,0.028l-0.012,0.024l-0.023-0.002l-0.042-0.038l-0.012-0.03l0.016-0.032l-0.02-0.028l-0.148-0.05l-0.026-0.035l-0.023-0.006l-0.034,0.014l-0.08-0.008l-0.056,0.022l-0.032-0.014l-0.02-0.054l-0.051-0.028l-0.034,0.002l-0.036,0.042l-0.088,0.018l-0.049,0.028l-0.006,0.018l0.013,0.02l-0.004,0.019l-0.021,0.012l-0.01,0.032l0.002,0.046l-0.028,0.028l-0.066,0.016l-0.086-0.002l-0.038-0.024l-0.059-0.008l-0.046,0.046l-0.048,0.018l-0.022-0.008l-0.018-0.018l-0.026-0.008l-0.044,0.008l-0.065-0.014l-0.034,0.004l-0.058,0.052l-0.08,0.099l-0.029,0.012l-0.04-0.012l-0.024-0.02l-0.038,0.004l-0.036,0.03l0.004,0.028l-0.01,0.012h-0.022l-0.01,0.016l0.014,0.066l-0.022,0.03l-0.079,0.063l0.002,0.056l0.043,0.046l0.002,0.036l-0.011,0.026l0.003,0.026l0.016,0.022l-0.002,0.022l-0.057,0.035h-0.042l-0.034,0.018l-0.066-0.004l-0.026,0.05l0.02,0.054l-0.004,0.05l0.012,0.02l0.024,0.012l0.01,0.041l-0.03,0.034l-0.05,0.006l-0.035-0.008l-0.104,0.026l-0.04-0.024l-0.008-0.065l-0.02-0.052l-0.022-0.008l-0.026,0.006l-0.033-0.018l-0.05-0.068l-0.094-0.056l-0.026-0.032l-0.03-0.014l-0.107-0.013l-0.026,0.015l-0.032-0.002l-0.03-0.023l-0.032-0.004l-0.04,0.012l-0.045-0.018l-0.064-0.112l-0.032-0.016l-0.014-0.034l0.008-0.04l-0.014-0.035l-0.046-0.042l-0.028-0.006l-0.053,0.052l-0.01,0.065l-0.036,0.014l-0.068,0.002l-0.028,0.034l-0.09-0.002l-0.057-0.074l-0.03-0.004l-0.018,0.014l-0.04,0.002l-0.03-0.041l-0.064-0.034l-0.075-0.006l-0.02-0.022l0.002-0.028l-0.036-0.01l-0.066,0.05h-0.036l-0.067-0.038l-0.042-0.05l-0.002-0.044l0.018-0.044l-0.006-0.039l-0.078-0.088l-0.084-0.016l-0.059-0.036h-0.024l-0.024,0.034l-0.042,0.004l-0.044-0.018l-0.026,0.002l-0.026,0.036h-0.025l-0.028-0.074l0.002-0.046l-0.016-0.018l-0.04-0.004l-0.024-0.031l0.006-0.068l-0.02-0.046l-0.036-0.036l-0.05-0.115l-0.083-0.142v-0.028l-0.016-0.014l-0.038-0.004l-0.022-0.019l-0.03-0.004l-0.034,0.015l-0.06-0.008l-0.047-0.023l-0.022-0.05l0.01-0.046l-0.016-0.064l-0.06-0.05l-0.004-0.035l0.016-0.022l-0.002-0.03l-0.038-0.046l-0.036-0.014l-0.03,0.004l-0.057-0.024l-0.002-0.066l0.028-0.091l-0.012-0.096l-0.05-0.054l-0.088-0.047h-0.076l-0.041,0.031l-0.058-0.004l-0.042-0.033l0.004-0.038l0.086-0.08l0.085-0.05l0.102-0.004l0.046-0.028l0.002-0.034l-0.028-0.069l0.016-0.188l0.083-0.113l0.014-0.072l0.062-0.091l-0.004-0.024h-0.04l-0.075,0.089l-0.052,0.014l-0.032,0.024l-0.036,0.004l-0.01-0.02l0.022-0.056l0.038-0.091l-0.006-0.024l0.012-0.022l0.048-0.002l0.043-0.066l0.006-0.038l0.144-0.139l0.046-0.102l0.083-0.067l0.01-0.058l-0.024-0.153l-0.02-0.04v-0.062l0.026-0.036v-0.042l-0.035-0.024v-0.032l0.031-0.039l0.002-0.046l-0.049-0.068l-0.006-0.028l-0.022-0.002l-0.042,0.054l-0.064,0.02l-0.08,0.002l-0.111,0.048l-0.02,0.034h-0.014l-0.06-0.056l-0.024-0.082l0.02-0.087l-0.004-0.126l-0.02-0.066l-0.008-0.101l-0.027-0.03l-0.046-0.004l-0.05,0.028l-0.024,0.063l0.02,0.07l0.004,0.088l0.032,0.161l-0.008,0.026l-0.04,0.018l-0.026,0.052l-0.036,0.036l-0.038,0.008l-0.055,0.063l-0.024,0.046l-0.07,0.06l-0.032,0.008l-0.036-0.01l-0.127,0.004l-0.03,0.022l-0.034-0.002l-0.036-0.068l-0.03-0.153l-0.05-0.088l0.002-0.092l0.054-0.085v-0.056l-0.036-0.042l-0.01-0.048l0.008-0.045l-0.027-0.11l-0.104-0.064l-0.012-0.032l0.022-0.073l-0.026-0.076l-0.108-0.04l-0.071-0.042l-0.086-0.079l-0.064-0.028l-0.039-0.004l-0.088-0.092l-0.012-0.054l0.022-0.036l0.052-0.007l0.045-0.03v-0.028l-0.039-0.026l-0.032-0.006l-0.02,0.006l-0.04-0.03l-0.046-0.064l-0.094-0.06l-0.025-0.061l-0.002-0.06l-0.026-0.036l-0.092-0.046l-0.038,0.004l-0.036-0.018l-0.017-0.069l-0.08-0.059l-0.064-0.001l-0.036-0.026l-0.004-0.069l-0.041-0.048l-0.04-0.025l-0.04,0.019l-0.07-0.025l-0.014-0.043l-0.026-0.028l0.006-0.03l-0.018-0.01l-0.032,0.008l-0.055-0.01l-0.022-0.04l0.01-0.024l-0.006-0.022l-0.027-0.016l-0.009-0.036l0.012-0.033l-0.01-0.012l-0.076-0.016l-0.068-0.052l-0.046-0.008l-0.006-0.052l0.016-0.032l0.044-0.035l-0.008-0.02l-0.054-0.012l-0.039-0.04l-0.01-0.044l0.018-0.018l-0.006-0.026l-0.072-0.062l-0.018-0.049L1020.019,366.188z"/>
</svg>
