<svg xmlns="http://www.w3.org/2000/svg" viewBox="1258.826 499.297 13.779 27.458">
  <path d="M1272.448223,523.939422l0.06449,-0.056559l0.076691,0.023995l0.015687,0.089123l-0.041831,0.03085l-0.078434,-0.015425l-0.036602,-0.071984Z M1270.178878,522.921358l0.031373,0.051417l0.052289,-0.010283l0.04706,-0.200528l-0.041831,-0.025709l-0.041831,0.051417l-0.04706,0.133685Z M1268.024569,521.096041l0.010458,0.138827l-0.073205,0.077126l0.020916,0.133685l0.198698,0.061701l0.057518,0.071984l0.250987,0.102835l0.130723,0.005142l0.418312,0.200528l0.078434,-0.020567l0.172554,-0.169677l-0.010458,-0.159394l-0.146409,-0.185103l-0.271903,-0.123402l-0.088891,-0.11826l0.020916,-0.046276l0.130723,-0.03085l0.09412,0.010283l0.036602,-0.035992l-0.083662,-0.128543l-0.062747,-0.005142l-0.125494,0.051417l-0.109807,-0.092551l-0.020916,-0.169677l-0.088891,-0.164536l-0.167325,-0.056559l-0.230072,0.020567l-0.177783,0.205669l-0.052289,0.323929l0.088891,0.102835Z M1268.814133,523.694333l0.104578,0.226236l0.167325,0.219381l0.313734,0.253659l0.250987,0.04799l0.097606,-0.089123l0.006972,-0.164536l0.027887,-0.10969l0.069719,-0.054845l0.013944,-0.102835l-0.244016,-0.143969l-0.202184,-0.061701l-0.11155,-0.143969l-0.006972,-0.26737l0.048803,-0.075412l-0.006972,-0.082268l-0.153381,-0.020567l-0.237044,0.075412l-0.055775,0.102835l0.041831,0.075412l-0.034859,0.10969l-0.069719,0.10969l-0.020916,0.095979Z M1270.860379,526.655974l-0.020916,0.041134l0.012201,0.018853l0.057518,-0.022281l0.153381,0.041134l0.177783,0.010283l0.083662,-0.082268l0.048803,-0.133685l-0.052289,-0.116546l-0.188241,-0.10969l-0.247502,0.003428l-0.104578,0.068556l-0.01743,0.130257l0.097606,0.150824Z M1270.787174,526.721102l-0.010458,0.027423l0.038345,0.006856l0.019173,-0.023995l-0.019173,-0.013711l-0.027887,0.003428Z M1265.566983,516.03143l0.104578,0.020567l0.036602,-0.025709l-0.146409,-0.226236l-0.078434,0.005142l-0.031373,0.077126l0.115036,0.14911Z M1265.729079,516.11884l0.052289,0.020567l0.052289,-0.03085l-0.083662,-0.066843l-0.036602,0.03085l0.015687,0.046276Z M1266.074187,516.108556l0.062747,-0.041134v-0.061701l-0.088891,-0.010283l-0.036602,0.061701l0.062747,0.051417Z M1264.970887,516.50447l0.083662,0.046276l0.041831,-0.03085l-0.036602,-0.08741h-0.04706l-0.041831,0.071984Z M1265.049321,516.355359l0.04706,0.010283l0.062747,-0.061701l0.198698,-0.102835l-0.026145,-0.056559l-0.188241,0.056559l-0.052289,0.056559l-0.041831,0.097693Z M1265.038863,512.277962l0.036602,0.051417l0.067976,0.005142l0.057518,-0.071984l0.026145,-0.200528l-0.036602,-0.041134l-0.073205,0.010283l-0.078434,0.246803Z M1265.43626,512.375655l0.125494,0.035992l0.078434,-0.035992l-0.015687,-0.077126l-0.073205,-0.071984l-0.099349,0.010283l-0.062747,0.061701l0.04706,0.077126Z M1266.278114,513.954168l0.109807,-0.041134l0.09412,-0.102835l-0.026145,-0.092551l-0.099349,-0.041134l-0.104578,0.056559l-0.041831,0.077126l0.010458,0.11826l0.057518,0.025709Z M1266.518644,514.22668l0.036602,0.041134l0.104578,-0.041134v-0.041134l-0.088891,-0.005142l-0.052289,0.046276Z M1265.499007,514.483767l-0.010458,0.061701l0.073205,0.03085l0.067976,-0.020567l0.067976,-0.082268l0.04706,-0.035992l0.067976,0.005142l0.052289,-0.035992l-0.067976,-0.082268l-0.104578,0.010283l-0.19347,0.14911Z M1265.870259,514.745996l0.052289,0.005142l0.010458,-0.041134l-0.057518,-0.03085l-0.036602,0.020567l0.031373,0.046276Z M1265.823199,515.20361l0.057518,0.020567l0.010458,-0.056559l-0.04706,-0.046276l-0.036602,0.025709l0.015687,0.056559Z M1264.850623,512.715009l-0.099349,0.097693l-0.057518,0.205669l0.083662,0.128543l0.04706,0.174819l0.088891,0.113118l0.19347,0.066843l0.109807,-0.005142l0.188241,-0.113118l0.151638,-0.015425l0.214385,0.133685l0.230072,0.071984l0.041831,-0.061701l-0.015687,-0.143969l-0.109807,-0.071984l-0.142923,0.046276l-0.118522,-0.020567l-0.146409,-0.143969l-0.041831,-0.138827l-0.062747,-0.066843l-0.104578,-0.005142l-0.099349,0.03085l-0.062747,-0.061701l-0.083662,-0.293079l-0.09412,-0.107976l-0.104578,0.035992l0.015687,0.071984l-0.020916,0.071984Z M1264.052343,511.429575l0.062747,0.075412l0.306762,0.178247l0.299791,0.10969l0.125494,-0.034278l0.188241,-0.027423l0.167325,0.027423l0.181269,-0.075412l0.041831,-0.116546l-0.048803,-0.123402l-0.244016,-0.10969l-0.090634,-0.102835l-0.083662,-0.431906l-0.090634,-0.054845l-0.11155,0.027423l-0.167325,0.260515l-0.146409,0.089123l-0.230072,0.013711l-0.237044,0.061701l-0.055775,0.061701l0.034859,0.137113l0.097606,0.034278Z M1263.07628,511.518698l-0.020916,-0.058273l0.031373,-0.044562l-0.031373,-0.034278l-0.104578,0.017139l-0.160353,-0.154252l-0.386939,-0.246803l-0.036602,-0.061701l0.033988,-0.020567l-0.005229,-0.02828l-0.041831,-0.041134l-0.054904,-0.092551l-0.018301,0.012854l0.02353,0.071984l0.005229,0.053988l-0.041831,0.007713l-0.203927,-0.174819l0.010458,-0.08741l-0.036602,-0.025709l-0.052289,0.015425l-0.010458,-0.041134l0.060324,-0.072858l-0.008035,-0.071111l-0.271903,-0.303363l0.036602,-0.071984l-0.036602,-0.03085l-0.099128,-0.005424l-0.036823,-0.040852l-0.250987,-0.092551l-0.146409,0.082268l-0.057518,0.123402l0.057518,0.226236l-0.125494,0.349638l0.104578,0.205669l0.177783,0.102835l0.209156,-0.020567l0.052289,-0.123402l0.115036,0.005142l0.198012,0.222014l0.055942,0.213163l-0.060485,0.423494l0.015687,0.066843l0.062747,0.051417l0.015687,0.164536l0.125494,0.159394v0.082268l-0.083662,0.066843l0.026145,0.11826l0.209156,0.164536l0.177783,0.010283l0.167325,-0.102835l0.04706,-0.077126l-0.015687,-0.066843l0.088891,-0.092551l0.083662,0.035992l0.214385,0.015425l0.24053,0.185103l0.083662,-0.020567l0.010458,-0.133685l0.203927,-0.154252l0.010458,-0.08741l-0.057518,-0.101121l-0.048803,-0.017139l-0.048803,0.023995l-0.038345,-0.051417l0.024402,-0.071984l-0.041831,-0.092551l-0.003486,-0.089123l-0.041831,-0.041134l-0.052289,0.020567l-0.247502,-0.154252Z M1264.958687,517.054636l0.048803,-0.034278l0.020916,-0.054845l0.125494,-0.119974l0.069719,-0.003428l0.09412,0.058273l0.034859,0.058273l-0.038345,0.12683l-0.087148,0.071984l0.013944,0.034278l0.062747,0.006856l0.073205,-0.03085l0.034859,0.006856l-0.003486,0.054845l0.024402,0.013711l0.055775,-0.041134l0.076691,0.03085v0.04799l0.020916,0.013711l0.052289,-0.044562l0.041831,0.003428l-0.024402,0.07884l0.034859,0.044562l0.163839,-0.018853l0.09412,-0.041134l0.151638,0.020567l0.198698,-0.071984l0.04706,-0.077126v-0.11826l0.120265,-0.185103l-0.015687,-0.061701l-0.146409,-0.03085l-0.151638,-0.143969l-0.052289,-0.185103l-0.177783,-0.221095l-0.151638,-0.03085l-0.09412,0.051417l-0.120265,0.020567l-0.050546,-0.006856l-0.020916,-0.058273l-0.045317,-0.010283l-0.102835,0.049703l-0.033053,0.029547l-0.000063,0.037295l-0.031373,0.037706l-0.054279,0.001623l-0.053785,0.04808v0.082268l-0.020916,0.082268l-0.099349,0.03085l-0.078434,0.061701l-0.020916,0.113118l-0.066233,0.138827l0.010458,0.075412l0.069719,0.058273Z M1263.600914,512.30367l0.057518,-0.046276l-0.04706,-0.025709l-0.062747,0.03085v0.046276l0.052289,-0.005142Z M1262.278001,512.673875l0.052289,0.010283l0.015687,-0.035992l-0.052289,-0.041134l-0.041831,0.025709l0.026145,0.041134Z M1261.699335,501.158097l0.130723,0.005142l0.078434,-0.097693l-0.041831,-0.102835l-0.083662,-0.051417l-0.115036,0.025709l-0.062747,0.097693l0.09412,0.123402Z M1262.849694,501.703122l0.083662,-0.051417l0.109807,-0.010283l0.162096,-0.071984l-0.005229,-0.097693l-0.125494,-0.010283l-0.09412,0.020567l-0.015687,0.071984l-0.130723,0.123402l0.015687,0.025709Z M1263.06408,502.268713h0.078434l0.04706,-0.035992l-0.020916,-0.066843l-0.078434,-0.005142l-0.052289,0.056559l0.026145,0.051417Z M1262.781719,502.376689l0.04706,-0.03085l-0.036602,-0.03085l-0.057518,0.005142l-0.026145,0.046276l0.073205,0.010283Z M1262.636617,502.341072l-0.011765,-0.036367h-0.041831l-0.04706,-0.107976l0.041831,-0.066843l-0.010458,-0.077126l-0.146409,-0.272512l-0.167325,-0.056559l-0.135952,0.025709l-0.115036,0.107976l-0.041831,0.164536l-0.013944,0.152538l0.038345,0.089123l0.11155,0.133685l0.073205,0.046276l0.026145,0.056559l-0.015687,0.097693l0.026145,0.061701l0.073205,0.010283l0.078434,-0.066843l-0.005229,-0.061701l-0.052289,-0.061701l0.041831,-0.041134l0.088891,0.015425l0.130723,-0.035992l0.031373,-0.046276l0.043138,-0.030476Z M1259.129328,500.322565l0.052289,0.017996l0.026145,0.033421l-0.000871,0.05913l0.037474,0.002571l0.02353,-0.069413l-0.020916,-0.051417l-0.043574,-0.022281l0.010458,-0.03085l-0.031373,-0.034278h-0.052289l-0.027016,0.053988l0.026145,0.041134Z M1259.314954,500.623357l0.054904,0.079697l0.060132,-0.007713v-0.051417l0.039217,-0.056559l-0.026145,-0.066843l-0.054904,-0.017996l-0.062747,0.02828l-0.02353,0.041134l0.013072,0.051417Z M1263.501565,504.025473l0.020916,-0.017139l-0.003486,-0.023995h-0.024402l-0.010458,0.027423l0.01743,0.013711Z M1264.345162,504.587636l0.041831,0.023995l0.069719,-0.010283l0.059261,-0.065129l-0.006972,-0.065129l-0.076691,-0.017139l-0.073205,0.020567l-0.024402,0.054845l0.010458,0.058273Z M1262.086274,504.118024l0.073205,0.065129l0.139437,-0.013711l0.24053,0.034278l0.142923,-0.054845l0.034859,-0.178247l0.059261,-0.054845l0.024402,-0.113118l-0.038345,-0.140541l-0.160353,-0.099407l-0.160353,-0.006856l-0.261445,0.07884l-0.076691,0.133685l0.003486,0.130257l0.031373,0.092551l-0.052289,0.12683Z M1263.173887,508.365099l0.132466,0.010283l0.090634,-0.020567l0.160353,0.003428l0.062747,0.027423l0.108064,-0.034278l0.271903,-0.274226l0.045317,-0.143969l0.083662,-0.099407l0.11155,-0.164536l-0.031373,-0.034278l-0.11155,-0.003428l-0.216128,0.034278l-0.184755,0.092551l-0.125494,0.027423l-0.170811,0.147396l-0.083662,0.023995l-0.254473,0.209097l-0.020916,0.113118l0.132466,0.085696Z M1264.442768,506.308405l0.027887,0.089123l-0.006972,0.130257l0.069719,0.431906l0.097606,0.15768l0.062747,0.377061l-0.027887,0.178247l0.090634,0.370205l0.118522,0.013711l0.062747,-0.130257l-0.048803,-0.281082l0.041831,-0.178247l-0.041831,-0.185103l-0.076691,-0.075412l-0.076691,-0.479895l-0.153381,-0.479895l-0.062747,-0.075412l-0.083662,0.006856l-0.041831,0.075412l0.048803,0.054845Z M1264.67284,509.139788l0.097606,0.287937l0.076691,0.082268l0.034859,0.123402l-0.020916,0.15768l0.104578,0.31536l-0.027887,0.178247l0.097606,0.137113l0.118522,0.006856l0.125494,-0.15768l-0.020916,-0.438762l-0.055775,-0.089123l-0.034859,-0.26737l-0.195212,-0.58273l0.034859,-0.123402l-0.048803,-0.212525l-0.080612,-0.071609l-0.010458,-0.041134l0.028323,-0.106637l-0.020916,-0.054845h-0.069719l-0.027887,0.185103l0.006972,0.185103l-0.097606,0.349638l-0.013944,0.137113Z M1260.932429,506.376961l0.045317,0.075412l0.125494,0.068556l0.048803,-0.034278l-0.020916,-0.044562l-0.062747,-0.013711l-0.108064,-0.068556l-0.027887,0.017139Z M1260.90977,509.251192l0.125494,0.051417l0.271903,0.138827l0.099349,-0.012854l0.052289,-0.066843l-0.010458,-0.05913l-0.052289,-0.071984l0.010458,-0.061701l0.057518,-0.051417l0.010458,-0.082268l-0.057518,-0.041134l-0.104578,0.005142l-0.14118,-0.035992l-0.167325,-0.005142l-0.135952,0.056559l-0.020916,0.138827l0.062747,0.097693Z M1261.030035,508.875845l0.078434,0.03085l0.230072,-0.015425l0.057518,-0.077126l-0.026145,-0.051417h-0.062747l-0.036602,-0.082268l0.036602,-0.056559l-0.04706,-0.025709l-0.115036,0.077126l-0.130723,0.14911l0.015687,0.051417Z M1261.518066,508.821l0.038345,0.003428l0.054032,-0.041134l0.036602,-0.061701l-0.036602,-0.082268h-0.041831l-0.010458,0.082268l-0.073205,0.061701l0.033116,0.037706Z M1260.914999,506.731741v-0.046276l-0.041831,-0.015425l-0.026145,0.035992l0.026145,0.046276l0.041831,-0.020567Z M1261.275794,507.610978l0.010458,-0.041134l-0.036602,-0.020567l-0.041831,0.025709l0.026145,0.035992h0.041831Z M1261.422203,508.073734l0.020916,-0.041134l-0.041831,-0.041134l-0.052289,0.015425l0.015687,0.056559l0.057518,0.010283Z M1261.43789,508.227986l0.041831,0.075412h0.027887l0.013944,-0.054845l-0.020916,-0.077126l-0.036602,-0.035992l-0.036602,0.025709l0.010458,0.066843Z M1260.998662,507.014536l0.036602,-0.015425l0.005229,-0.041134l-0.041831,-0.005142l-0.036602,0.025709l0.036602,0.035992Z M1260.365964,509.019814l0.036602,-0.020567l-0.026145,-0.041134h-0.041831l-0.010458,0.041134l0.041831,0.020567Z M1259.705379,508.920407l-0.038345,0.058273l0.006972,0.065129l0.146409,0.075412l0.104578,0.006856l0.038345,-0.04799l-0.003486,-0.051417l0.024402,-0.037706l0.083662,-0.027423l0.080177,0.013711l0.031373,-0.037706l-0.01743,-0.04799l0.020916,-0.034278l0.125494,-0.051417h0.310248l0.076691,0.010283l0.059261,0.04799l0.122008,0.010283l0.080177,-0.027423l0.104578,-0.130257l0.066233,-0.10969l0.076691,-0.027423l0.244016,0.010283l0.041831,-0.010283l0.024402,-0.051417l-0.013944,-0.12683l-0.024402,0.010283l-0.003486,0.044562l-0.027887,0.013711l-0.045317,-0.061701l0.010458,-0.058273l-0.024402,-0.027423l-0.034859,-0.003428l-0.045317,-0.119974l0.010458,-0.04799l-0.020916,-0.061701l-0.034859,-0.037706l-0.006972,-0.116546l-0.041831,-0.041134l-0.01743,-0.095979l-0.034859,-0.068556l-0.003486,-0.034278l0.052289,0.04799l0.020916,0.075412l0.031373,0.041134l0.041831,-0.003428l0.006972,-0.092551l-0.062747,-0.106263l-0.104578,-0.041134l-0.062747,-0.037706l0.020916,-0.034278l0.062747,-0.006856l0.013944,-0.04799l-0.01743,-0.03085l0.010458,-0.099407l-0.069719,-0.167963l0.006972,-0.07884l-0.041831,-0.044562h-0.041831l-0.031373,0.058273l-0.045317,0.013711l-0.027887,-0.017139l-0.031373,-0.130257l-0.055775,-0.051417l-0.031373,-0.202242l0.01743,-0.07884l-0.01743,-0.058273l-0.041831,-0.03085l-0.020916,-0.089123l0.026145,-0.056559l0.104578,-0.025709l-0.026145,-0.035992l-0.125494,0.005142l-0.067976,-0.041134l-0.057518,-0.005142l-0.104578,0.066843l-0.031373,0.077126l0.026145,0.082268l0.010458,0.061701l-0.052289,0.138827l0.031373,0.046276l0.010458,0.159394l-0.109807,0.190244l-0.104578,0.077126l-0.198698,0.005142l-0.146409,-0.020567l-0.083662,-0.097693l-0.020916,-0.329071l-0.057518,-0.11826l0.010458,-0.133685l-0.036602,-0.11826l0.005229,-0.133685l-0.099349,-0.272512l0.010458,-0.066843l-0.04706,-0.046276l-0.146409,-0.082268l-0.109807,-0.226236l-0.099349,-0.077126l-0.115036,-0.262229l-0.04706,-0.010283l-0.135952,0.102835l-0.073205,0.190244l-0.04706,0.462756l0.125494,0.395914l0.109807,0.190244l0.005229,0.143969l0.088891,0.257087l0.020916,0.200528l0.125494,0.262229l0.010458,0.14911l-0.04706,0.061701l-0.005229,0.097693l0.026145,0.11826l-0.078434,0.133685l0.015687,0.107976l0.130723,0.179961l0.120265,0.282796l0.125494,0.102835l0.104578,0.138827l-0.001743,0.111404Z M1261.315882,507.676107l0.024402,0.027423l0.027887,-0.017139l-0.003486,-0.034278l-0.031373,-0.010283l-0.01743,0.034278Z M1260.629152,508.927263l0.041831,-0.003428l0.003486,-0.023995l-0.041831,-0.013711l-0.027887,0.020567l0.024402,0.020567Z M1262.009584,510.339527v-0.03085l-0.024402,-0.013711l-0.024402,0.017139l0.024402,0.03085l0.024402,-0.003428Z M1262.215254,510.740582l0.038345,0.003428l0.006972,-0.023995l-0.048803,-0.020567l-0.027887,0.006856l0.031373,0.034278Z M1262.190852,510.661742h0.031373l0.013944,-0.023995l-0.027887,-0.013711l-0.031373,0.017139l0.013944,0.020567Z M1263.620087,512.413361l0.024402,-0.006856l-0.006972,-0.037706l-0.031373,-0.020567l-0.01743,0.023995l0.031373,0.041134Z M1263.459734,512.502484l0.024402,-0.020567l-0.013944,-0.03085l-0.024402,0.003428l-0.01743,0.034278l0.031373,0.013711Z M1263.658432,512.348232l0.010458,0.051417l0.027887,0.023995l-0.003486,-0.04799l-0.013944,-0.027423h-0.020916Z M1266.405351,514.062145l0.034859,0.010283l-0.003486,-0.03085l-0.038345,-0.037706l-0.024402,0.006856l0.031373,0.051417Z M1266.443696,514.312376l0.027887,-0.013711l-0.003486,-0.03085l-0.031373,-0.010283l-0.020916,0.03085l0.027887,0.023995Z M1261.453577,508.842424l0.015687,-0.020567l-0.013072,-0.017996l-0.026145,0.007713l-0.002614,0.023138l0.026145,0.007713Z M1261.498022,509.328318l0.015687,-0.017996l-0.007843,-0.033421l-0.020916,0.007713l-0.002614,0.033421l0.015687,0.010283Z M1262.473213,501.348342l0.031373,0.003428l0.006972,-0.034278l-0.027887,-0.020567l-0.027887,0.027423l0.01743,0.023995Z M1258.985097,499.975873l0.083662,0.066843l0.083662,0.005142l0.104578,-0.061701l-0.005229,-0.102835l-0.067976,-0.03085l-0.130723,0.015425l-0.067976,0.046276v0.061701Z M1258.917121,499.749636l0.057518,-0.020567l0.026145,-0.318788l-0.052289,-0.08741l-0.099349,-0.025709l-0.010458,0.046276l0.036602,0.066843l-0.005229,0.08741l-0.036602,0.041134l0.010458,0.14911l0.073205,0.061701Z M1259.000784,499.780487l0.005229,0.046276l0.067976,-0.005142l0.026145,-0.035992l-0.052289,-0.020567l-0.04706,0.015425Z "/>
</svg>
