<svg xmlns="http://www.w3.org/2000/svg" viewBox="715.631 279.303 6.591 6.356">
  <path d="M715.813,282.576l0.093-0.082l-0.003-0.058l-0.048-0.076l0.011-0.071l0.114-0.115l0.009-0.042l-0.067-0.05l-0.032-0.042l-0.088-0.029l-0.083-0.055l-0.024-0.05l-0.04-0.008l-0.003-0.021l0.035-0.011v-0.023l-0.056-0.024v-0.058l0.024-0.044l0.011-0.056l0.056-0.042l0.066-0.023l0.056,0.013h0.094l0.059,0.039l0.104,0.042h0.032l0.021-0.034l0.024-0.002l0.117,0.073l0.035-0.002l0.056,0.007l0.131-0.055l0.053-0.081v-0.105l-0.029-0.026l0.003-0.035l0.061-0.015l0.027-0.032l0.032,0.008l0.032-0.008l0.008-0.039l0.053-0.003l0.029,0.026h0.022l0.029-0.026l0.062,0.005l0.048,0.011l0.07-0.042l0.09-0.017l0.083,0.041l0.059-0.003l0.112-0.115l0.121-0.08l0.111-0.035l0.011-0.048l-0.097-0.028l-0.063-0.087v-0.049l0.038-0.059l0.014-0.055l0.049-0.063l0.041-0.007l0.053,0.035l0.048-0.01l0.024-0.087l0.077-0.136l0.073-0.01l0.059,0.031l0.052-0.007l0.021-0.066l0.069-0.104l0.018-0.115l-0.042-0.052l0.011-0.035l0.093-0.021l0.014-0.069l-0.007-0.08l-0.08-0.087l-0.038-0.094l-0.163-0.083l-0.007-0.07l-0.059-0.055l0.028-0.028l0.059,0.01l0.028-0.017l0.121,0.004l0.108-0.025l0.128-0.118l0.049-0.014l0.056,0.007l0.1-0.003l0.063-0.045l0.049-0.063h0.066l0.099,0.063l0.109,0.156l-0.021,0.062l-0.078,0.006l-0.052,0.078l0.005,0.052l0.36,0.182l0.099,0.021l0.094-0.036l0.104,0.031l0.094,0.094l0.052,0.005l0.047-0.031l0.047-0.068l0.041-0.016l0.084,0.099l0.057,0.006l0.047,0.041l-0.01,0.136l0.083,0.302l0.057,0.026l0.063-0.083l0.057-0.016l0.068,0.042l0.037,0.141l-0.016,0.182l0.12,0.182l0.057,0.021l0.104-0.031l0.125,0.047l0.053,0.083l0.135,0.026l0.11-0.015l0.057,0.057l-0.057,0.089l-0.058,0.297l-0.052,0.099l0.021,0.036l0.162-0.005l0.036,0.037l0.047,0.005l0.042-0.031l0.219,0.088l0.099-0.036l0.104,0.057l0.021,0.063l0.062,0.041l0.057-0.015l0.047,0.02l-0.005,0.053l0.073,0.067l0.042-0.005l0.021-0.062l0.067-0.032l0.157-0.026l0.083,0.032l0.089,0.166l-0.026,0.068l-0.084,0.047l-0.057,0.125l0.021,0.167l-0.047,0.062l-0.078,0.011l-0.047,0.062l0.005,0.068l-0.052,0.089l-0.156,0.135l-0.063,0.094l0.042,0.089l-0.005,0.114l-0.084,0.11h-0.088l-0.094,0.047l-0.094-0.016l-0.052,0.042l-0.011,0.151l0.068,0.062h0.057l0.037,0.027l0.005,0.067l0.068,0.068v0.089l-0.042,0.031l-0.057-0.01l-0.047,0.015l-0.052,0.047l-0.052-0.021l-0.011-0.062l-0.073-0.068l-0.166-0.01l-0.047,0.067l0.005,0.099l-0.042,0.026l-0.088-0.057l-0.094,0.016l-0.11,0.146l-0.062,0.026l-0.032,0.047l-0.062,0.224l0.031,0.12l-0.026,0.047l-0.13,0.062h-0.177l-0.058-0.078l0.016-0.099l-0.177-0.24l-0.094-0.062l-0.172,0.005l-0.146,0.073l-0.12,0.13l-0.162,0.073l-0.13-0.005l-0.094,0.047l-0.054,0.096l-0.073,0.039l-0.133-0.01l-0.045,0.015l-0.033,0.055l-0.17,0.034l-0.086,0.102l0.008,0.054l-0.05,0.089l-0.005,0.169l0.055,0.086v0.06l-0.024,0.016l-0.005,0.039l0.055,0.055v0.068l-0.107,0.099l-0.036,0.088l-0.037,0.034l-0.109,0.018l-0.05-0.008l-0.055-0.044l-0.075,0.005l-0.047,0.045l-0.062,0.001l-0.083-0.076l-0.056-0.125l0.014-0.077l0.118-0.048l0.042-0.167l-0.069-0.097l-0.056-0.216l-0.104-0.097l-0.014-0.083l0.014-0.07l-0.014-0.208l-0.216-0.431l-0.18-0.167l-0.098-0.007l-0.215-0.118l-0.035-0.056l-0.125-0.055l-0.139,0.041l-0.153-0.027l-0.035-0.077l0.028-0.062l-0.021-0.098l-0.09-0.041l-0.007-0.056l0.042-0.049l-0.014-0.069l-0.076-0.063l-0.126-0.243l-0.278-0.125l-0.119-0.115L715.813,282.576z"/>
</svg>
