<svg xmlns="http://www.w3.org/2000/svg" viewBox="834.308 403.188 9.078 2.282">
  <path d="M834.55,404.238l0.017-0.028h0.028v0.021l-0.024,0.017L834.55,404.238z M834.315,405.035l0.078,0.031l0.029,0.029l0.088,0.018l0.052-0.005l0.042,0.018l0.031,0.049l0.036,0.01l0.023-0.01l0.12,0.023l0.075-0.003l0.023,0.005l0.031,0.073l0.036,0.013l0.088,0.005l0.055,0.023l0.161-0.005l0.078-0.029l0.044-0.003l0.042,0.016l0.021-0.013l-0.039-0.034l-0.003-0.026l0.013-0.029l0.078-0.044l0.005-0.024l-0.087,0.038l-0.114-0.017l-0.049,0.021l-0.038-0.003l-0.062-0.031l-0.08-0.024l-0.049,0.014l-0.215-0.007l-0.087-0.042l-0.045-0.007L834.626,405l-0.132-0.038l-0.069,0.014l-0.055-0.014l-0.052,0.017l-0.01,0.029L834.315,405.035z M837.733,405.27l0.059,0.024l0.045,0.052l0.132,0.045l0.094-0.01l0.017-0.055l-0.017-0.059l-0.066-0.042l-0.163-0.024l-0.066,0.024l-0.076,0.017v0.024L837.733,405.27z M838.662,405.426l0.024,0.024l0.049,0.01l0.035-0.014l0.049,0.003l0.042,0.021l0.024-0.01l-0.052-0.035l-0.038-0.031l-0.055-0.003l-0.069,0.014L838.662,405.426z M839.135,404.063l0.296,0.146l0.052,0.068l0.151,0.104l0.109,0.14l-0.01,0.057l0.031,0.036l0.062-0.01l0.333,0.12l0.255,0.026l0.322-0.036h0.083l0.255-0.068l0.239-0.026l0.114,0.031l0.055-0.017l0.017-0.042l0.031-0.029l0.239-0.021l0.163,0.019l0.081-0.029l0.109-0.099l0.12-0.047l0.042-0.099l0.161-0.073h0.14l0.272-0.066l0.184-0.094l0.012-0.028v-0.068l0.073-0.052l0.14-0.026l0.12-0.042l-0.016-0.042l-0.057-0.016l-0.052,0.036l-0.083,0.005l-0.094-0.031l-0.099-0.083l-0.099-0.026l-0.114-0.073l-0.104-0.01l-0.161-0.036l-0.13-0.094l-0.13-0.021l-0.083-0.088l-0.047-0.016l-0.054,0.026l-0.069-0.007l-0.159-0.125l-0.09,0.007l-0.035,0.069l-0.201,0.104l-0.305,0.048l-0.118-0.042l-0.104,0.042l-0.104,0.152l-0.076,0.014l-0.152-0.048l-0.277-0.166l-0.208-0.173l-0.055-0.014l-0.125,0.021l-0.125-0.021l-0.118-0.042h-0.111l-0.083,0.035l-0.076,0.111l-0.097,0.014l-0.146,0.042l-0.028,0.048l0.014,0.277l-0.062,0.097l-0.146,0.035l-0.097-0.014l-0.049,0.035L839.135,404.063z"/>
</svg>
