<svg xmlns="http://www.w3.org/2000/svg" viewBox="834.479 403.112 9.097 2.309">
  <path d="M834.724939,404.188325l0.017322,-0.027716h0.027716v0.020787l-0.024251,0.017322l-0.020787,-0.010393Z M834.490223,404.985148l0.07795,0.03118l0.028582,0.028582l0.088343,0.018188l0.051967,-0.005197l0.041573,0.018188l0.03118,0.049368l0.036377,0.010393l0.023385,-0.010393l0.119523,0.023385l0.075352,-0.002598l0.01841,0.008329l0.008687,0.026061l0.027468,0.04356l0.036377,0.012992l0.088343,0.005197l0.054565,0.023385l0.161097,-0.005197l0.07795,-0.028582l0.044172,-0.002598l0.03758,0.015528h0.01523l0.006923,-0.016614l-0.036347,-0.030094l-0.002598,-0.025983l0.012992,-0.028582l0.066104,-0.034409l0.013845,-0.017999l-0.006923,-0.008307l-0.063089,0.024504l-0.02552,0.001802l-0.052611,-0.012461l-0.049598,-0.000767l-0.048502,0.020787l-0.038109,-0.003464l-0.057621,-0.040092l-0.084421,-0.015339l-0.048502,0.013858l-0.214796,-0.006929l-0.086611,-0.041573l-0.045038,-0.006929l-0.072753,-0.065824l-0.131649,-0.038109l-0.069289,0.013858l-0.055431,-0.013858l-0.051967,0.017322l-0.010393,0.029448l0.007795,0.025983Z M837.908766,405.22073l0.058896,0.024251l0.045038,0.051967l0.131649,0.045038l0.09354,-0.010393l0.017322,-0.055431l-0.017322,-0.058896l-0.065824,-0.041573l-0.162829,-0.024251l-0.065824,0.024251l-0.076218,0.017322v0.024251l0.041573,0.003464Z M838.837237,405.376631l0.024251,0.024251l0.048502,0.010393l0.034644,-0.013858l0.048502,0.003464l0.041573,0.020787l0.024251,-0.010393l-0.051967,-0.034644l-0.038109,-0.03118l-0.055431,-0.003464l-0.069289,0.013858l-0.006929,0.020787Z M839.332935,403.98644l0.29621,0.145507l0.051967,0.067557l0.150703,0.103933l0.10913,0.14031l-0.010393,0.057163l0.03118,0.036377l0.06236,-0.010393l0.332587,0.119523l0.254637,0.025983l0.322194,-0.036377h0.083147l0.254637,-0.067557l0.239047,-0.025983l0.114327,0.03118l0.055431,-0.017322l0.017322,-0.041573l0.03118,-0.029448l0.239047,-0.020787l0.162829,0.019054l0.081414,-0.029448l0.10913,-0.098737l0.119523,-0.04677l0.041573,-0.098737l0.161097,-0.072753h0.14031l0.271959,-0.065824l0.183616,-0.09354l0.012126,-0.027716v-0.067557l0.072753,-0.051967l0.164523,-0.017254l0.086871,-0.052123l-0.007151,-0.039753l-0.057163,-0.01559l-0.051967,0.036377l-0.083147,0.005197l-0.09354,-0.03118l-0.098737,-0.083147l-0.098737,-0.025983l-0.114327,-0.072753l-0.103933,-0.010393l-0.161097,-0.036377l-0.129917,-0.09354l-0.129917,-0.020787l-0.083147,-0.088343l-0.04677,-0.01559l-0.053699,0.025983l-0.069289,-0.006929l-0.159365,-0.12472l-0.090076,0.006929l-0.034644,0.069289l-0.200938,0.103933l-0.304871,0.048502l-0.117791,-0.041573l-0.103933,0.041573l-0.103933,0.152436l-0.076218,0.013858l-0.152436,-0.048502l-0.277156,-0.166293l-0.207867,-0.173222l-0.055431,-0.013858l-0.12472,0.020787l-0.12472,-0.020787l-0.117791,-0.041573h-0.110862l-0.083147,0.034644l-0.076218,0.110862l-0.097004,0.013858l-0.145507,0.041573l-0.027716,0.048502l0.013858,0.277156l-0.06236,0.097004l-0.145507,0.034644l-0.097004,-0.013858l-0.048502,0.034644l0.0944,0.088619l0.177559,0.103658Z "/>
</svg>
