<svg xmlns="http://www.w3.org/2000/svg" viewBox="796.496 379.241 41.841 24.367">
  <path d="M802.384,403.318l0.081,0.018l0.031,0.06l-0.023,0.039l-0.102,-0.018l-0.05,-0.044l0.005,-0.036l0.057,-0.018Z M799.796,398.382l0.104,0.125l0.031,0.13l0.094,0.021l0.042,-0.047l0.026,-0.401l-0.073,-0.125l-0.115,-0.016l-0.229,0.203l0.005,0.089l0.115,0.021Z M800.046,398.909l0.063,-0.021l0.036,-0.078l-0.021,-0.036h-0.047l-0.073,0.083l0.042,0.052Z M799.64,399.618l0.068,-0.01l0.156,-0.083l0.146,-0.156l0.052,-0.188l-0.042,-0.031l-0.219,0.146l-0.063,0.136l-0.125,0.146l0.026,0.042Z M799.864,399.814l0.049,-0.042l-0.007,-0.059l-0.035,0.003l-0.042,0.076l0.035,0.021Z M800.517,395.992l0.076,0.045l0.052,-0.007l-0.01,-0.028l-0.045,-0.01l-0.08,-0.063l-0.017,0.014l0.024,0.049Z M800.659,396.141l-0.014,0.031l0.007,0.042h0.024l0.007,-0.031l-0.007,-0.038l-0.017,-0.003Z M797.772,394.268v0.073l0.028,0.056l0.049,0.003l0.035,-0.069l-0.028,-0.087l-0.045,-0.007l-0.038,0.031Z M797.734,394.417v0.042l0.028,0.028l0.024,-0.014v-0.038l-0.024,-0.031l-0.028,0.014Z M799.415,393.444l0.024,-0.073l-0.014,-0.056l0.066,-0.184l0.003,-0.101l-0.042,-0.014l-0.069,0.045l-0.042,-0.024l0.007,-0.035l0.073,-0.047l0.032,-0.058l0.069,-0.042l0.014,-0.045l-0.024,-0.017l-0.118,0.056l-0.149,0.181l-0.014,0.094l0.031,0.059l-0.028,0.129l-0.063,0.045l-0.014,0.052l0.104,0.104l0.094,-0.003l0.059,-0.066Z M798.224,391.929l0.038,0.073h0.035l0.01,-0.049l-0.042,-0.132h-0.042v0.108Z M799.37,392.148l0.045,0.014h0.08l0.014,-0.028l-0.08,-0.063l-0.052,-0.014l-0.024,0.024l0.017,0.066Z M798.581,391.749l-0.017,0.049l0.014,0.042l0.045,0.017l0.073,-0.014l0.215,0.035l0.052,-0.042l-0.014,-0.031l-0.129,-0.01l-0.104,-0.037l-0.115,-0.074l-0.035,0.017l0.014,0.049Z M798.515,392.548l0.01,0.052l0.035,0.056l0.101,0.08l0.031,-0.014l-0.115,-0.108l-0.028,-0.108l-0.042,-0.017l-0.024,0.021l0.031,0.038Z M798.957,392.642l0.003,0.024l0.024,0.01l0.035,-0.021l0.073,0.003l0.017,-0.024l-0.056,-0.031l-0.056,0.003l-0.042,0.035Z M799.457,391.61l-0.045,0.063l-0.01,0.049l0.028,0.007l0.052,-0.08l0.003,-0.035l-0.028,-0.003Z M799.481,392.982l0.023,-0.008l0.01,-0.023l-0.003,-0.021h-0.021l-0.023,0.031l0.013,0.021Z M796.538,392.409l-0.042,0.068l0.031,0.042l0.057,-0.005l0.021,-0.036l-0.016,-0.057l-0.052,-0.01Z M797.026,389.56l0.018,0.029l0.021,-0.005l0.003,-0.042l-0.021,-0.031l-0.023,0.008l0.003,0.042Z M797.875,389.623l0.036,0.021l0.029,-0.018l0.005,-0.06l-0.034,-0.055l-0.034,0.003l-0.003,0.109Z M798.047,389.534l-0.005,0.044l0.013,0.018l0.021,-0.013l0.023,-0.055l0.076,-0.065l-0.021,-0.01l-0.052,0.023l-0.055,0.057Z M798.263,389.61l0.01,0.031l0.065,0.026l0.052,-0.018l0.055,-0.078l-0.008,-0.05l-0.036,-0.01l-0.096,0.05l-0.042,0.05Z M798.514,389.918l-0.005,0.055l0.021,0.057l0.042,0.005l0.026,-0.039l-0.008,-0.05l-0.042,-0.044l-0.034,0.016Z M798.488,389.73l0.039,-0.029l0.005,-0.042l-0.021,-0.008l-0.026,0.018l-0.026,0.039l0.029,0.021Z M798.868,389.696l0.042,0.005l0.029,-0.018l0.115,0.023l0.021,-0.021l-0.026,-0.031l-0.117,-0.031l-0.018,-0.044h-0.026l-0.029,0.026l-0.021,0.05l0.031,0.042Z M798.967,389.753l0.05,0.005l0.013,-0.018l-0.042,-0.026l-0.034,-0.003l-0.021,0.018l0.034,0.023Z  M800.01,389.193l0.104,0.008l0.117,0.073l0.107,0.002l0.352,-0.067l-0.005,-0.034l-0.032,-0.003l-0.015,-0.036l0.015,-0.06l-0.018,-0.063l0.029,-0.148l0.174,-0.12l0.279,-0.029l0.159,0.005l0.042,-0.041l0.042,-0.214l0.041,-0.123l-0.028,-0.122l0.036,-0.047l0.289,0.102l0.042,-0.032l-0.021,-0.156l-0.049,-0.039v-0.063l0.07,-0.086l0.07,-0.005l0.019,-0.042l-0.016,-0.073l0.024,-0.072l-0.042,-0.05h-0.047l-0.037,-0.029l-0.031,-0.086l-0.078,-0.044l-0.094,-0.034l-0.104,-0.104l-0.026,-0.107l0.034,-0.062l0.159,-0.063l0.005,-0.057l-0.042,-0.05l-0.002,-0.193l0.036,-0.008l0.052,0.032l0.084,0.002l0.052,-0.065l-0.042,-0.148l-0.089,-0.042l-0.054,-0.057h-0.032l-0.036,0.026l-0.047,-0.008l-0.021,-0.271l0.034,-0.063l0.091,-0.028l0.071,-0.092l-0.042,-0.12l0.031,-0.093l0.318,-0.146h0.104l0.011,-0.073l-0.37,-0.235v-0.057l0.041,-0.026l0.006,-0.047l-0.058,-0.037l0.006,-0.067l0.083,-0.032v-0.052l-0.037,-0.068l0.204,-0.187l0.198,-0.094l0.041,0.031l0.068,-0.005l0.032,-0.052l0.151,-0.01l0.208,0.067l0.12,0.136l0.052,0.005l0.157,0.136l0.14,0.182l0.256,0.224l0.385,-0.026l0.073,0.073l0.094,0.068l0.271,-0.011l0.224,0.042l0.167,-0.276l0.047,0.047l0.089,-0.058h0.073l0.114,0.146h0.047l0.073,-0.062l0.026,-0.104l0.839,-0.084l0.386,-0.005l0.36,0.109l0.302,-0.109h2.106l0.672,0.386l2.565,0.323l1.021,0.068l1.402,-0.193l0.928,1.282h0.678l1.047,-0.652l0.496,-1.282l2.147,-2.773l3.488,-1.688l6.244,-0.664l4.5,-0.803l2.908,6.327l-0.148,0.194l0.257,0.048l1.105,2.419l-0.236,0.055l-0.375,0.098l-1.516,0.59l-0.375,0.181l-0.306,0.285l-0.271,0.327l-0.236,0.347l-0.042,0.139l0.021,0.097l-0.041,0.125l-0.153,0.292l-0.007,0.153l0.062,0.042l0.007,0.069l-0.035,0.153l0.042,0.098l0.084,0.069l0.041,0.139l-0.041,0.132l0.076,0.278l0.03,0.213l-0.086,0.107l-0.417,0.104l-0.576,0.216l-0.271,0.159l-0.014,0.105l-0.056,0.027l-0.104,-0.055l-0.285,0.076l-0.327,0.181l-0.014,0.111l0.049,0.084l-0.049,0.041h-0.173l-0.167,0.028l-0.334,0.174l-1.028,0.368l-1.495,0.41l-0.778,0.111l-0.368,0.098l-0.285,0.146l-0.16,0.166l-0.104,0.056l-0.16,0.028l-0.299,0.146l-0.104,0.111l-0.077,0.042l-0.222,-0.007l-0.181,0.083l-0.097,-0.014l-0.083,-0.069h-0.223l-0.882,0.243l-0.431,0.132l-0.334,0.195l-0.792,0.333l-0.403,0.25l-0.035,0.112h-0.049l-0.069,-0.049l-0.188,0.028l-0.194,0.222l-0.153,0.334l-0.007,0.139l-0.042,0.083l-0.132,0.056l-0.097,0.118l-0.125,0.055l-0.077,0.077l-0.034,0.118l-0.16,0.202l-0.195,0.125l-0.125,0.173l-0.202,0.105l-0.278,-0.021l-0.25,0.041l-0.118,0.091l-0.229,0.035l-0.195,-0.042l-0.215,0.014l-0.111,0.079l-0.237,0.032l-0.118,0.049l-0.097,-0.035l-0.125,-0.139l-0.285,-0.153l-0.129,-0.035l-0.128,0.018l-0.195,0.097l-0.056,0.062l-0.333,0.258l-0.118,0.052l-0.153,0.007l-0.163,0.048l-0.23,0.157l-0.392,0.392l-0.494,0.396l-0.243,0.07l-0.41,0.139l-0.226,0.035l-0.32,0.093l-0.434,0.073l-0.257,0.084l-0.223,0.167l-0.493,0.215h-0.094l-0.125,-0.035l-0.184,0.004l-0.358,0.08l-0.486,0.01l-0.24,-0.062l-0.226,-0.018l-0.181,0.032l-0.594,0.031l-0.608,0.08l-0.712,0.156l-0.15,0.077l-0.431,0.41l-0.187,0.298l-0.233,0.278l-0.184,0.084l-0.456,0.097l-0.337,0.146l-0.149,0.156l-0.188,0.39l-0.041,0.17l0.031,0.08l-0.042,0.059l-0.104,0.021l-0.059,-0.025l-0.049,-0.09l0.031,-0.042l0.087,-0.007l0.028,-0.038l0.004,-0.094l-0.049,-0.062l-0.052,0.007l-0.021,0.052l-0.038,0.021h-0.153l-0.104,0.059l-0.046,0.135l0.046,0.052l-0.014,0.059l-0.188,0.06l-0.083,-0.039l-0.021,-0.066l-0.108,-0.041l-0.149,0.017l-0.098,0.066l-0.027,-0.021l-0.007,-0.069l-0.112,-0.101l-0.267,-0.063l-0.188,0.018l-0.166,0.069l-0.206,0.198l-0.159,0.23l-0.039,0.01l-0.048,-0.024l-0.157,0.045l-0.267,0.142l-0.146,0.014l-0.063,-0.021h-0.073l-0.059,0.032l-0.031,-0.011l-0.017,-0.069l-0.098,-0.035l-0.062,0.01l-0.108,0.087l-0.212,0.091l-0.17,0.007l-0.118,0.027l-0.143,-0.01l-0.076,-0.063l-0.035,-0.097l-0.108,-0.052h-0.076l-0.073,-0.028l-0.014,-0.028l-0.163,-0.08l-0.063,0.007l-0.073,-0.024l-0.028,-0.035l-0.212,-0.069l-0.1,0.003l-0.08,-0.027l-0.073,-0.042l-0.125,-0.011l-0.084,0.053l-0.101,0.132l-0.111,0.062l-0.139,-0.007l-0.052,-0.028l0.007,-0.045l0.049,-0.035l0.104,0.025v-0.031l-0.08,-0.039l-0.028,-0.041l0.011,-0.098l0.069,-0.219l-0.007,-0.066l-0.062,-0.055l-0.237,-0.379l-0.031,-0.139l-0.194,-0.341l-0.139,-0.156l-0.209,-0.375l-0.073,-0.271l-0.003,-0.111l0.041,-0.056l0.032,-0.156v-0.32l0.01,-0.16l0.073,-0.288l0.049,-0.056l0.007,-0.045l-0.025,-0.056l0.004,-0.184l-0.021,-0.121l-0.136,-0.376l-0.048,-0.087l-0.007,-0.104l0.014,-0.09l-0.039,-0.073l-0.059,-0.045l-0.034,-0.042l-0.018,-0.049l-0.087,-0.073l-0.069,-0.1l-0.094,-0.251l-0.083,-0.069l-0.007,-0.031l0.028,-0.042v-0.066l-0.053,-0.097l-0.079,-0.386l-0.126,-0.271v-0.073l-0.045,-0.153l-0.09,-0.177l-0.017,-0.108l-0.105,-0.236l-0.041,-0.171l0.017,-0.017l0.038,0.045l0.038,0.146l0.073,0.084l0.021,0.1l0.031,0.011l0.011,-0.042l-0.007,-0.285l-0.132,-0.479l-0.07,-0.153l-0.02,-0.202l-0.087,-0.212l-0.174,-0.153l-0.059,-0.132l-0.004,-0.083l0.046,-0.059l0.031,0.017l-0.014,0.104l0.035,0.119l0.121,0.083l0.032,-0.003l0.048,-0.122l-0.028,-0.222l-0.104,-0.219l-0.101,-0.063l-0.079,-0.125l0.003,-0.33l-0.056,-0.094l-0.239,-0.153l-0.337,-0.097l-0.091,0.017l-0.048,0.084l-0.084,0.017l-0.069,-0.052l-0.052,-0.115v-0.083l0.048,-0.004l0.08,0.049l0.122,-0.01l0.062,-0.087v-0.073l-0.062,-0.073l0.003,-0.063l0.038,-0.035l0.042,-0.132l0.035,-0.02l0.017,0.027l-0.041,0.059l-0.032,0.136l0.021,0.024l0.042,-0.028l0.059,0.011l0.024,0.076l0.035,0.032l0.063,0.01l0.052,0.042l0.003,0.097l0.038,0.007l0.098,-0.136l0.003,-0.066l-0.038,-0.097v-0.177l-0.038,-0.056l-0.049,-0.191l0.014,-0.048l-0.004,-0.098l-0.079,-0.229l-0.108,-0.108l-0.066,-0.014l-0.014,-0.031l0.031,-0.035l0.038,-0.097v-0.045l-0.073,-0.094l-0.003,-0.122l0.021,-0.055l-0.004,-0.042l-0.038,-0.035l-0.017,-0.076l0.024,-0.045l0.136,-0.073l0.027,-0.038l-0.003,-0.046l0.021,-0.034l0.034,-0.014l0.018,-0.028l-0.004,-0.031l0.025,-0.028l0.041,-0.011l0.021,-0.041l-0.003,-0.039l0.031,-0.052l0.063,-0.038l0.038,-0.08l0.01,-0.194l0.028,-0.059l0.01,-0.115l-0.017,-0.049l0.004,-0.062l0.038,-0.087v-0.157l-0.038,-0.083l-0.028,-0.285l0.017,-0.059v-0.063l-0.045,-0.041l-0.035,-0.125l0.004,-0.077l-0.039,-0.187l0.011,-0.077l-0.024,-0.094l-0.084,-0.059l-0.01,-0.055l0.021,-0.082z"/>
</svg>
