<svg xmlns="http://www.w3.org/2000/svg" viewBox="808.317 497.646 1.065 1.479">
  <path d="M809.27171,498.243342l0.002672,-0.036872l0.042746,-0.081646l0.021373,-0.005267l0.042746,0.055308l-0.005343,0.084279l-0.037403,0.026337l0.008015,0.044773l-0.024044,-0.002634l-0.01603,-0.050041l-0.034731,-0.034238Z M809.135458,498.335522l0.018701,-0.002634l0.013358,-0.018436l-0.01603,-0.026337h-0.021373l-0.005343,0.026337l0.010686,0.02107Z M808.364253,497.713084l0.012468,0.001756l0.030278,-0.024581l-0.003562,-0.015802l-0.037403,-0.028093l-0.024044,0.001756l-0.024044,0.023704l0.005343,0.018436l0.021373,-0.007023l0.017811,0.010535l0.001781,0.019314Z M808.786367,498.74375l0.012468,-0.007023l0.001781,-0.014047l-0.01603,-0.003512l-0.010686,0.014047l0.012468,0.010535Z M809.117647,499.124763l0.01603,-0.008779l-0.005343,-0.012291l-0.019592,-0.001756l-0.007124,0.017558l0.01603,0.005267Z M809.130114,498.666494l0.012468,-0.008779l0.001781,-0.015802l-0.008905,-0.014047l-0.012468,0.005267v0.02107l0.007124,0.012291Z M808.683065,497.800875l0.021373,-0.003512v-0.014047l-0.021373,-0.001756l-0.01603,0.010535l0.01603,0.008779Z M809.009001,498.792913l0.019592,-0.001756v-0.014047l-0.023154,-0.008779l-0.012468,0.010535l0.01603,0.014047Z M809.137211,498.424081l0.014193,0.001399l0.004258,-0.009794l-0.016642,-0.012565l-0.010325,0.011166l0.008516,0.009794Z M809.186886,498.429678l0.018451,-0.008395l-0.008516,-0.009794h-0.022709l-0.002839,0.011193l0.015612,0.006996Z M809.213853,498.383506l0.011354,-0.002798l-0.002839,-0.015391l-0.015612,-0.001399l-0.007096,0.012593l0.014193,0.006996Z M808.589364,498.454863l0.012774,-0.005597l-0.002839,-0.011193l-0.012774,-0.002798l-0.007096,0.011193l0.009935,0.008395Z M809.069558,498.989565l0.012468,-0.007023l-0.001781,-0.014047l-0.014249,0.001756l-0.007124,0.014047l0.010686,0.005267Z M808.734716,497.85355h0.01603l0.007124,-0.012291l-0.017811,-0.008779l-0.012468,0.010535l0.007124,0.010535Z M808.424809,497.788584h0.017811l0.003562,-0.014047l-0.017811,-0.008779l-0.008905,0.012291l0.005343,0.010535Z M808.472898,497.81141l0.012468,-0.008779v-0.015802h-0.017811l-0.008905,0.014047l0.014249,0.010535Z M809.208482,498.167842l0.007124,-0.010535l-0.001781,-0.012291h-0.010686l-0.008905,0.015802l0.014249,0.007023Z M809.236561,498.165235l0.009935,-0.008395v-0.009794l-0.012774,0.001399l-0.005677,0.013992l0.008516,0.002798Z M809.267786,498.085483l0.014193,-0.002798l0.002839,-0.012593l-0.012217,-0.004088l-0.006234,0.008285l0.001419,0.011193Z M808.545922,498.685808l0.012468,0.04214l0.044527,0.033361l0.021373,-0.010535l0.019592,0.022826l-0.010686,0.049163l-0.023154,0.04214l-0.042746,0.010535l-0.008905,0.017558l0.03384,0.010535h0.032059l0.021373,-0.02107l0.021373,-0.001756l0.005343,0.028093l-0.01603,0.033361l-0.001781,0.061454l0.017811,0.007023l0.001781,-0.022826l0.017811,-0.028093l0.028497,0.005267l0.003562,0.040384l0.01603,0.014047l0.017811,-0.017558l0.01603,0.003512l0.007124,0.017558l0.017811,0.012291h0.023154l0.026716,-0.036872l-0.003562,-0.029849l0.01603,-0.02107l0.028497,-0.003512l0.019592,0.022826l0.005343,0.052675l0.01603,-0.005267v-0.026337l0.01603,-0.014047l0.024935,0.010535l0.023154,0.001756l0.03384,-0.036872l-0.007124,-0.015802l-0.030278,0.003512l-0.0659,-0.036872l-0.028497,-0.050919l0.005343,-0.026337l0.024935,-0.003512l0.008905,-0.012291l-0.010686,-0.022826l0.026716,-0.052675l0.023154,-0.017558l0.030278,0.019314l0.021373,0.001756l0.001781,-0.014047l-0.039184,-0.040384l0.021373,-0.047407l0.039184,-0.008779l0.024935,-0.022826l-0.003562,-0.02107l0.021373,-0.026337l-0.003562,-0.015802l-0.026716,0.008779l-0.008905,-0.014047l0.01603,-0.02107l-0.014249,-0.008779l-0.017811,0.007023l-0.017811,-0.003512l-0.03384,-0.073744h-0.030278l-0.007124,-0.014047l0.032059,-0.001756l0.014249,-0.019314l-0.010686,-0.015802l0.010686,-0.022826l0.030278,-0.017558l0.037403,-0.059698l0.012468,-0.026337l0.039184,-0.033361l0.044527,-0.008779l0.012468,-0.012291l-0.023154,-0.014047l-0.003562,-0.017558l0.010686,-0.036872l-0.010686,-0.043895l-0.035621,-0.036872l-0.0723,-0.049026l-0.063868,-0.006996l-0.049675,0.001399l-0.01987,-0.011193l-0.018451,-0.029383l-0.012774,0.006996l-0.007096,0.047572l-0.021289,0.015391l-0.021289,-0.006996l-0.001419,-0.020988l-0.014193,-0.005597l-0.005677,0.019588l-0.021289,0.005597l-0.045417,-0.025185v-0.013992l0.014193,-0.008395l0.001419,-0.023786l-0.025547,-0.018189l0.008516,-0.022387l0.01987,-0.001399l0.004258,-0.015391l-0.029805,-0.001399l-0.045417,-0.023786l-0.002839,-0.023786l-0.024128,-0.019588l-0.014193,-0.025185l-0.018451,-0.015391h-0.021289l-0.001419,-0.015391l0.043998,-0.025185l0.018451,-0.037778l-0.011354,-0.005597l-0.025547,0.026584l-0.046837,0.027983l-0.014193,0.023786l0.001419,0.032181l-0.017032,0.015391l-0.035482,-0.008395l-0.009935,0.004198l0.01987,0.011193l0.007096,0.015391l-0.028386,0.041975h-0.046837l-0.012774,0.013992l0.002839,0.018189l-0.014193,0.026584l-0.024128,0.023786l0.014193,0.012593l0.041159,-0.004198l0.012774,0.013992l-0.018451,0.034979l-0.022709,0.006996l-0.015612,0.015391v0.026584l0.024128,0.020988l0.015612,0.002798l0.004258,-0.015391l0.018451,-0.001399l0.017032,0.013992l0.015612,0.030782l0.025547,0.01679l0.017032,-0.009794h0.015612l0.018451,0.020988l0.021289,0.001399l0.007096,-0.020988l0.018451,-0.001399l0.004258,0.020988l-0.005677,0.036378l-0.024128,0.022387l0.012774,0.025185l0.025547,-0.001399l0.01987,0.002798l-0.002839,0.012593l-0.021289,-0.001399l-0.012774,0.009794l-0.001419,0.027983l0.022709,0.025185l0.002839,0.026584l-0.018451,0.041975l0.009935,0.020988l0.048256,0.013992l-0.002839,0.020988l-0.049675,0.001399l-0.032644,0.019588l-0.012189,0.01465l0.032059,0.023704l0.050761,0.023704l0.045417,0.060576l0.074805,0.065843l0.034731,0.081646l-0.01603,0.052675l-0.061447,0.007901l-0.040074,-0.023704l-0.058775,-0.018436l-0.013358,-0.028971l0.005343,-0.036872l-0.024044,-0.04214l-0.089054,0.000878l-0.020482,0.017558l0.027607,0.026337Z M808.763213,499.045751l0.001781,0.015802l0.012468,0.005267l0.007124,-0.024581l-0.012468,-0.007023l-0.008905,0.010535Z "/>
</svg>
