<svg xmlns="http://www.w3.org/2000/svg" viewBox="722.985 481.265 43.398 37.040">
  <path d="M743.637,515.618l-0.077,-0.022l-0.003,-0.025l0.027,-0.026l0.005,-0.04l0.025,-0.02l0.023,0.009l0.022,-0.004l0.047,-0.039l0.052,-0.003l0.078,0.033l0.005,0.022l-0.029,0.036l-0.037,0.023l-0.064,0.003l-0.018,0.018v0.029l-0.013,0.013 l-0.046,-0.008Z M743.562,515.816l0.02,-0.016v-0.036l-0.069,-0.06 l-0.068,-0.01l-0.056,0.013l-0.008,0.016l0.014,0.009l0.029,-0.012l0.04,0.003l0.03,0.021l0.004,0.046l0.03,0.023l0.034,0.004Z M743.125,515.883l0.03,0.008v-0.012l-0.021,-0.017 v-0.013l0.023,-0.005 v-0.014l-0.034,-0.004 l-0.029,0.013l-0.008,0.018l0.038,0.026Z M743.151,515.776l0.035,-0.005l0.013,-0.017l-0.007,-0.008l-0.042,0.007l-0.009,0.013l0.009,0.01Z M743.209,515.907l0.012,0.023h0.013l0.003,-0.021 l-0.016,-0.026l-0.021,-0.008l-0.008,0.013l0.017,0.018Z M743.881,515.374v-0.036l-0.007,-0.021 l-0.008,0.003l-0.005,0.033l0.004,0.032h0.008l0.008,-0.011 Z M743.834,514.712h0.026l0.01,-0.013 l-0.009,-0.011h-0.025l-0.016,0.013 l0.014,0.011Z M744.709,513.791l0.02,0.019l0.031,0.003l0.039,-0.011l0.002,-0.011l-0.055,-0.004l-0.025,-0.015l-0.012,0.004v0.016Z M744.861,513.538l0.037,-0.003l0.031,-0.033l-0.003,-0.015h-0.024l-0.039,0.013 l-0.012,0.03l0.01,0.007Z M747.324,512.462h0.02l0.01,-0.011 l-0.007,-0.009l-0.026,0.006l-0.005,0.008l0.008,0.006Z M747.748,512.419l0.009,0.009l0.026,-0.003l0.026,-0.035l0.008,-0.043l-0.007,-0.005l-0.022,0.037l-0.027,0.011l-0.014,0.028Z M746.966,512.641l0.008,0.005l0.024,-0.008l0.006,-0.007l-0.006,-0.005l-0.027,0.007l-0.005,0.008Z M747.529,512.399l-0.047,-0.005l-0.002,0.007l0.02,0.012l0.021,0.002l0.011,-0.007l-0.003,-0.009Z M747.304,512.475v0.007l0.018,0.006 l0.016,-0.004v-0.008l-0.015,-0.003 l-0.019,0.002Z M756.785,483.08l0.009,-0.009l-0.018,-0.032l-0.026,-0.003l-0.017,0.013l0.007,0.009h0.021l0.025,0.021 Z M756.888,482.902l0.003,-0.021l-0.01,-0.024l-0.009,0.004v0.03l0.005,0.02 l0.012,-0.009Z M747.689,485.405l-0.004,0.016l0.014,0.014l0.049,-0.01l0.106,-0.077l-0.014,-0.008l-0.068,0.018l-0.082,0.047Z M747.072,485.109l0.035,-0.091l-0.006,-0.047l-0.033,-0.03l-0.014,-0.038l0.008,-0.047l-0.018,-0.012l-0.151,0.012l-0.065,0.032l-0.041,0.002l-0.035,-0.008l-0.023,0.008l-0.006,0.028l0.037,0.051l0.059,0.026l0.08,0.059l0.018,0.034l0.057,0.034l0.08,0.032l0.022,-0.01l-0.004,-0.034Z  M735.156,517.229l0.091,0.051l0.103,0.077l0.101,0.043l0.032,0.002l0.042,-0.015l0.038,0.005l0.099,0.056l0.034,0.001l0.026,-0.013h0.025l0.032,0.016l0.03,0.001l0.054,-0.029l0.042,0.003l0.095,0.031l0.051,0.035l0.054,0.006l0.04,-0.016l0.052,-0.062l0.048,-0.024l0.067,0.004l0.032,0.025l0.028,0.002l0.054,-0.023l0.103,-0.001l0.081,-0.038l0.062,-0.065l0.045,-0.016l0.055,0.021l0.012,0.03l-0.011,0.026l0.004,0.027l0.03,0.025l0.034,0.001l0.02,-0.007l0.043,0.001l0.047,0.023l0.04,0.005l0.029,-0.005l0.04,0.018l0.062,0.059l0.014,0.049l0.077,0.062l0.09,0.006l0.038,0.033l0.017,0.052l-0.007,0.044l-0.029,0.026l0.002,0.02l0.052,0.023v0.023l-0.016,0.029l0.012,0.03l0.033,0.013l0.137,0.03l0.018,0.018l0.005,0.026l0.031,0.008l0.047,-0.013l0.037,0.001l0.022,0.015l0.042,0.006l0.026,0.01h0.034l0.034,-0.016l0.013,-0.046l0.04,-0.03l0.071,0.001l0.028,0.008l0.028,-0.002l0.014,-0.017h0.022l0.024,0.015l0.112,0.02l0.038,-0.016l0.021,-0.071l0.036,-0.039l-0.002,-0.015l-0.049,-0.006l-0.017,-0.024l0.006,-0.023l0.04,-0.024l0.04,-0.003l0.038,-0.021l0.025,-0.002l0.013,0.013h0.02l0.005,-0.018l0.023,-0.002l0.015,0.01l0.021,-0.003l0.035,-0.036l0.048,-0.007l0.068,-0.055l0.074,-0.032l0.026,0.006l0.012,0.015l0.001,0.034l0.068,0.064l0.029,0.011l0.111,-0.001l0.036,0.017l0.036,0.038l0.044,0.009l0.104,-0.024l0.048,0.002l0.077,0.024l0.111,0.007l0.028,0.012l0.041,0.036l0.037,0.011l0.031,-0.002l0.024,0.013l0.017,0.025l0.025,0.005l0.02,-0.004l0.02,0.012l0.031,0.048l0.097,0.042l0.038,-0.003l0.057,-0.012l0.113,0.004l0.034,0.033l0.008,0.074l0.024,0.025l0.078,0.044l0.003,0.023l-0.016,0.028l0.005,0.017l0.041,0.014l0.121,0.001l0.046,0.013l0.104,0.06l0.027,0.005l0.022,-0.014v-0.038l0.025,-0.024l0.062,-0.032l0.083,-0.085l0.041,-0.014l0.075,-0.001l0.052,0.018l0.042,-0.005l0.018,-0.035l0.028,-0.013l0.048,0.004l0.016,-0.01v-0.017l-0.02,-0.015l0.001,-0.019l0.026,-0.022h0.046l0.052,0.017l0.033,-0.003l0.025,-0.027l0.031,-0.004l0.027,0.01l0.03,-0.004l0.094,-0.047l0.141,-0.04l0.037,0.001l0.031,0.017l0.022,-0.001l0.047,-0.039l0.051,-0.02h0.031l0.006,-0.009l0.051,0.013l0.027,-0.027l0.008,-0.029l-0.015,-0.026l0.011,-0.025l0.04,-0.016l0.045,-0.07l0.009,-0.037l0.024,-0.019l0.041,-0.004l0.019,-0.026l0.002,-0.027l0.016,-0.025l0.055,-0.02v-0.016l-0.029,-0.015l0.007,-0.02l0.059,-0.013l0.031,-0.02l0.004,-0.021l0.02,-0.014l0.029,0.01l0.014,-0.008l-0.014,-0.047l-0.028,-0.01l-0.031,0.005l-0.15,0.097l-0.032,-0.002l0.002,-0.022l0.034,-0.013l0.064,-0.084l0.004,-0.037l-0.059,-0.026l0.004,-0.025l0.043,-0.006l0.014,-0.016v-0.025l0.055,-0.068l0.035,-0.024v-0.031l-0.021,-0.025l0.009,-0.031l0.057,-0.014l0.014,-0.022l-0.01,-0.027l0.01,-0.016h0.049l0.006,-0.013l-0.01,-0.024l0.025,-0.033l0.004,-0.025l0.018,-0.02l0.025,0.004l0.014,-0.011l0.01,-0.034l0.07,-0.076l0.08,-0.064h0.034l0.013,-0.016l-0.037,-0.082l0.012,-0.006l0.039,0.018h0.051l0.061,-0.035l0.015,-0.024l0.02,-0.004l0.035,0.022l0.024,-0.006l0.003,-0.019l-0.023,-0.03l0.004,-0.035l0.057,-0.025l-0.006,-0.02h-0.037l-0.01,-0.019l0.037,-0.037l0.021,0.006l0.006,0.019l0.024,0.004l0.023,-0.014l0.049,0.004l0.02,-0.013l-0.004,-0.032l-0.045,-0.011l-0.026,0.003l-0.007,-0.023l0.023,-0.027l0.051,-0.006l0.021,0.021l0.03,0.002l0.051,-0.015l0.008,-0.037l-0.027,-0.016l-0.001,-0.015l0.016,-0.019l-0.003,-0.03l-0.014,-0.018l0.007,-0.022l0.049,-0.017l0.045,-0.04l0.002,-0.057l-0.023,-0.014h-0.061l-0.026,-0.016l-0.027,0.007l-0.007,0.02l-0.062,0.051l-0.024,-0.007l-0.012,-0.031l-0.005,-0.061l0.013,-0.02l0.027,-0.005l0.007,-0.02l-0.012,-0.048l0.012,-0.048l0.028,-0.038l0.046,-0.022l0.042,-0.049l0.027,-0.007l0.012,-0.015l-0.016,-0.025l0.012,-0.014l0.068,-0.004l0.012,-0.016l-0.011,-0.018l0.016,-0.013l0.028,0.01l0.054,-0.019l0.083,-0.087l0.03,-0.077l-0.026,-0.013l-0.052,0.015l-0.023,-0.015l0.007,-0.029l-0.002,-0.019l-0.042,-0.015l0.007,-0.024l0.071,-0.022l0.038,0.011l0.065,-0.006l0.053,-0.055l0.023,-0.047l0.029,-0.035l0.051,-0.027l0.036,-0.057l-0.014,-0.121l0.019,-0.047l0.087,-0.019l0.025,-0.029l0.002,-0.022l-0.026,-0.014l-0.046,0.02l-0.014,-0.014l0.031,-0.051l0.035,-0.019l0.024,-0.033l0.008,-0.039l0.023,-0.026l0.053,-0.015l0.127,-0.117l0.084,-0.106l0.024,-0.004l0.033,0.02l0.006,0.041l0.019,0.014l0.024,-0.002l0.01,0.017l-0.026,0.047l0.01,0.027l0.029,0.008l0.069,-0.055l0.068,-0.007l0.036,-0.026l-0.002,-0.027l-0.049,-0.047l-0.057,-0.008l-0.065,-0.023l-0.031,-0.041l0.014,-0.014l0.045,-0.008l0.041,-0.029l0.045,-0.014l0.057,-0.044l0.013,-0.036l0.01,-0.083l-0.029,-0.039l-0.033,-0.002l-0.036,0.029l-0.068,0.027l-0.012,-0.017l0.072,-0.09l0.04,-0.022l0.017,-0.019l-0.004,-0.026l0.014,-0.007l0.027,0.013l0.034,-0.011l0.009,-0.024l-0.013,-0.015l0.011,-0.02l0.063,-0.004l0.006,0.018l-0.027,0.029l-0.02,0.059l0.016,0.013l0.064,-0.006l0.065,-0.047l0.017,-0.064l0.018,-0.019l0.014,0.005l-0.004,0.032l0.019,0.015l0.055,-0.011l0.049,-0.045l0.071,-0.039l-0.002,-0.02l-0.059,-0.012l-0.043,0.01l-0.043,-0.017l-0.096,-0.08l0.016,-0.018l0.062,-0.004l0.008,-0.016l-0.018,-0.027l0.008,-0.019l0.024,-0.012l0.006,-0.039l-0.038,-0.049v-0.033l0.016,-0.002l0.033,0.039l0.012,0.029l0.08,0.051l0.055,0.002l0.055,-0.018l0.037,0.014l0.02,-0.014l-0.006,-0.043l0.035,-0.039v-0.044l0.016,-0.026l0.025,-0.002l0.018,-0.027l0.016,0.002l0.008,0.027l0.017,0.003l0.041,-0.041l0.015,0.001v0.037l-0.048,0.067l0.006,0.017l0.038,-0.001l0.056,-0.026l0.073,-0.005l0.05,0.018l0.002,0.027l-0.019,0.038l-0.038,0.023l0.004,0.025l0.04,0.036l0.044,0.015l0.047,-0.02l0.023,0.004l-0.002,0.017l-0.032,0.012l0.001,0.024l0.02,0.023l0.043,-0.006l0.118,-0.065l0.05,-0.007l0.044,-0.025l0.017,-0.038l0.064,-0.029l0.001,-0.019l-0.043,-0.025l-0.047,0.007l-0.087,-0.017l-0.008,-0.015l0.026,-0.028l-0.021,-0.029l-0.078,-0.012l-0.006,-0.019l0.015,-0.02l0.062,-0.014l0.017,0.009l0.003,0.022l0.023,0.012l0.061,-0.019l0.047,-0.038l-0.008,-0.017l-0.035,-0.001l-0.017,-0.017l0.017,-0.029l0.13,-0.068l0.077,-0.015l0.054,-0.028l0.028,-0.046l0.024,-0.017l0.068,-0.011l0.109,-0.047l-0.001,-0.018l-0.036,-0.015l-0.042,0.005l-0.039,0.038l-0.03,0.002l-0.036,0.016l-0.065,0.008l-0.015,-0.012l0.02,-0.024l0.04,-0.007l0.026,0.004l0.026,-0.012l0.002,-0.02l-0.011,-0.019l0.006,-0.018l0.041,-0.023l0.003,-0.022l-0.045,-0.028l-0.018,-0.041l0.009,-0.048l0.019,-0.002l0.024,0.018l0.074,0.004l0.05,-0.009l0.018,0.01l-0.013,0.017l0.012,0.009h0.037l0.023,0.013l0.006,0.025l0.038,0.005l0.01,-0.021l-0.022,-0.043l-0.04,-0.011v-0.02l0.045,-0.021l0.012,-0.043l-0.012,-0.056l0.011,-0.01l0.055,0.022l0.013,0.026l0.001,0.027l0.018,0.008l0.056,-0.03l-0.014,-0.034l0.012,-0.013l0.095,0.01l0.057,0.037l0.021,-0.009l-0.002,-0.031l-0.033,-0.021l0.007,-0.017l0.039,-0.001l0.01,-0.025l-0.026,-0.045l-0.07,-0.016l-0.072,0.023l-0.017,-0.009l0.004,-0.027l0.028,-0.02l0.04,0.004l0.032,-0.001l0.024,-0.016l-0.002,-0.014l-0.035,-0.006l-0.079,0.01l-0.012,-0.019l0.035,-0.029l0.115,-0.005l0.027,0.015l0.022,0.073l0.025,0.003l0.028,-0.026v-0.028l-0.016,-0.022l0.009,-0.013l0.026,-0.015h0.034l0.028,0.017h0.031l0.008,0.011l-0.02,0.05l-0.01,0.075l-0.038,0.051l0.006,0.014l0.046,0.008l0.043,-0.012l0.031,0.006l0.028,0.019l0.044,0.003l0.001,-0.017l-0.052,-0.028l0.002,-0.013l0.09,-0.009l0.003,-0.018l-0.047,-0.023l0.008,-0.017l0.066,-0.021l0.031,-0.034v-0.023l0.031,-0.02l0.071,0.008l0.066,-0.022l0.018,-0.026l-0.017,-0.011h-0.05l-0.012,-0.016l0.03,-0.02l0.072,0.004l0.054,0.025l0.036,0.043l-0.008,0.036l-0.043,0.044v0.024l0.021,0.008l0.108,-0.073l-0.003,-0.019l-0.031,-0.011l-0.004,-0.035l0.029,-0.024h0.045l0.041,-0.014l0.025,-0.03l0.061,-0.01l0.145,0.006l0.04,-0.027l0.017,-0.037l-0.018,-0.021l-0.041,-0.001l-0.004,-0.017l0.053,-0.036l0.084,-0.016l0.047,0.017l-0.002,0.018l-0.028,0.015l0.002,0.02l0.064,0.041l0.044,0.001l0.036,0.022l0.012,0.069l-0.012,0.037l-0.044,0.037l0.005,0.017l0.06,0.002l0.063,-0.02h0.046l0.018,0.007l0.025,-0.002l0.047,-0.049l0.018,-0.002l0.03,-0.039l0.074,-0.039l0.073,-0.059l0.027,-0.045l0.006,-0.048l-0.02,-0.057l0.004,-0.041l0.03,-0.059l0.037,-0.029l0.019,-0.041l0.01,-0.08l0.02,-0.027v-0.024l-0.028,-0.041l-0.006,-0.035l0.012,-0.033l-0.002,-0.035l-0.057,-0.035v-0.061l0.014,-0.078l0.096,-0.133v-0.037l-0.049,-0.021l-0.029,-0.047l-0.006,-0.045l0.021,-0.043l0.004,-0.052l-0.013,-0.057l0.009,-0.047l0.077,-0.082l0.009,-0.064l-0.052,-0.256l0.006,-0.047l0.088,-0.08l0.062,-0.121l0.127,-0.133l0.09,-0.044l0.139,-0.004l0.067,0.029l0.047,-0.004l0.049,-0.057l0.017,-0.062l0.102,-0.104l0.08,-0.025l0.155,-0.148l0.282,-0.215l0.088,-0.049l0.125,-0.017l0.088,-0.032l0.137,-0.085l0.266,-0.086l0.092,-0.069l0.129,-0.017l0.139,0.01l0.092,-0.022l0.055,-0.037l0.053,-0.076l0.062,-0.031h0.077l0.05,0.048l0.063,0.016l0.07,0.004l0.19,-0.08l0.122,-0.016l0.182,-0.045l0.093,-0.06l0.177,-0.006l0.16,0.02l0.045,0.031l0.037,0.004l0.069,-0.006l0.08,0.014l0.074,0.06l0.073,0.004l0.256,-0.027l0.057,-0.028l0.18,-0.002l0.068,-0.027l0.116,-0.006l0.056,0.029l0.041,0.09l0.075,0.055h0.027l0.065,-0.043l0.078,-0.1l0.029,0.002l0.012,0.026l0.051,0.041l0.137,0.004l0.117,0.025h0.051l0.118,-0.049l0.054,-0.049l0.045,-0.011l-0.04,-0.032l-0.021,-0.039l0.003,-0.05l-0.069,-0.063l-0.037,-0.009l-0.057,-0.073l0.001,-0.036l0.074,-0.113l0.021,-0.078l0.041,-0.034l0.004,-0.034l-0.021,-0.037l-0.05,-0.024l-0.019,-0.048l0.011,-0.193l0.022,-0.031l0.002,-0.031l-0.019,-0.043l-0.002,-0.069l-0.012,-0.023l-0.053,-0.039l-0.015,-0.024l-0.012,-0.035l-0.129,-0.078l-0.043,-0.045l-0.012,-0.039l-0.072,-0.058l-0.022,-0.043l-0.004,-0.053l-0.019,-0.031l-0.047,-0.033l-0.002,-0.028l0.035,-0.074l-0.004,-0.035l-0.039,-0.053l-0.004,-0.046l-0.039,-0.063l-0.057,-0.043l-0.004,-0.041l0.031,-0.055l-0.003,-0.019l-0.059,-0.01l-0.008,-0.021l0.006,-0.034l-0.014,-0.034l0.01,-0.029l0.037,-0.029l0.018,-0.059l-0.003,-0.033l-0.021,-0.035l-0.001,-0.035l-0.037,-0.031v-0.02l0.024,-0.024l0.604,-0.149l0.321,-0.171l1.21,-0.464l1.075,-0.252l0.676,-0.224l0.587,-0.112l0.303,-0.106l0.628,-0.354l0.514,-0.105l0.509,-0.265l0.394,-0.096l0.248,-0.099l0.464,-0.148l0.605,-0.123l0.126,-0.018l0.701,-0.307l2.188,-0.781l-0.12,-0.003l-0.018,0.014h-0.025l-0.043,-0.063l-0.019,-0.08l-0.043,-0.038l-0.05,-0.016l-0.033,-0.04l-0.027,0.002l-0.037,0.056l-0.027,0.022l-0.063,-0.01l-0.04,0.004l-0.07,0.054l-0.06,0.059l-0.008,0.03l-0.006,0.108l-0.06,0.06l-0.027,0.051l-0.022,0.002l-0.021,-0.057l-0.051,-0.048l-0.04,-0.018l-0.029,-0.062l0.003,-0.077l0.031,-0.072l-0.005,-0.046l-0.105,-0.056h-0.055l-0.021,0.022h-0.017l-0.012,-0.079l0.025,-0.06l-0.002,-0.032l-0.021,-0.032l-0.008,-0.044l-0.031,-0.026l-0.039,-0.005l-0.048,-0.036l-0.037,-0.07l0.006,-0.032l-0.044,-0.074l-0.037,-0.012l-0.022,-0.027l-0.036,-0.005l-0.021,-0.021l-0.041,-0.003l-0.047,-0.044h-0.064l-0.025,0.056l-0.024,-0.001l-0.048,-0.053l-0.073,-0.016l-0.001,-0.02l0.036,-0.061l0.003,-0.036l0.013,-0.011l0.035,0.008l0.02,-0.01l0.033,-0.067l0.037,-0.014l0.067,0.004l0.032,-0.014l0.001,-0.017l-0.067,-0.09l-0.061,-0.047l-0.056,-0.013l-0.004,-0.025l0.03,-0.039l-0.007,-0.019l-0.134,-0.083l-0.03,0.006l-0.019,0.043l-0.042,0.003l-0.036,-0.016l-0.04,-0.004l-0.02,-0.02l-0.054,-0.009l-0.047,-0.052l-0.044,-0.005l-0.007,-0.019l0.029,-0.053l0.025,-0.006l0.001,-0.019l-0.027,-0.027l0.001,-0.014l0.034,-0.007l0.014,-0.018l-0.015,-0.028l0.008,-0.016l0.04,0.002l0.083,0.052l0.036,0.003l0.048,-0.004l0.048,-0.045l0.003,-0.032l0.025,-0.023l0.044,0.006l0.054,-0.028l0.037,-0.028l0.051,-0.007l0.032,-0.021l0.032,-0.049l0.037,-0.02l0.006,-0.019l-0.031,-0.038v-0.02l0.02,-0.02l0.003,-0.025l-0.014,-0.04l0.014,-0.042l0.03,-0.011l0.032,0.016l0.059,-0.007l0.07,-0.077l0.016,-0.049l0.019,-0.023l0.04,-0.029l0.039,-0.169l-0.002,-0.05l0.019,-0.049l-0.005,-0.086l0.01,-0.03l0.029,-0.018l0.006,-0.017l-0.022,-0.028l0.003,-0.025l0.021,-0.027l0.006,-0.041l0.027,-0.026l0.058,-0.018l0.038,-0.075l0.003,-0.033l0.018,-0.018l0.097,-0.033l0.02,-0.022l0.002,-0.018l-0.043,-0.045l-0.013,-0.066l-0.071,-0.07l-0.004,-0.026l0.012,-0.018v-0.02l-0.026,-0.028l-0.003,-0.094l0.016,-0.04l-0.002,-0.068l0.037,-0.046l0.024,-0.075l-0.001,-0.023l-0.043,-0.044v-0.023l0.031,-0.017l0.011,-0.019l0.002,-0.045l0.06,-0.059l-0.005,-0.023l-0.016,-0.017l0.004,-0.023l0.023,-0.038l0.013,-0.13l0.029,-0.039l0.002,-0.037l-0.02,-0.025l0.002,-0.032l-0.022,-0.017l-0.158,-0.039l-0.093,-0.115l0.001,-0.027l0.025,-0.064v-0.023l-0.025,-0.04l-0.002,-0.085l-0.034,-0.039l0.003,-0.024l0.137,-0.14l0.062,-0.028l0.017,-0.023l0.008,-0.03l0.037,-0.048l0.025,-0.163l0.013,-0.012l0.028,-0.004l0.065,-0.109l0.059,-0.053l0.033,-0.011l0.027,-0.034l0.023,-0.01l0.018,0.004l0.029,0.046l0.044,0.027h0.028l0.056,-0.047l0.084,-0.016l0.035,0.005l0.062,0.049l-0.001,0.024l-0.018,0.061l0.004,0.016l0.015,0.005l0.04,-0.029l0.038,-0.089l0.07,-0.049l0.045,-0.007l0.016,-0.015l0.007,-0.028l0.083,-0.083l0.012,-0.025l-0.001,-0.04l0.031,-0.018l0.066,-0.004l0.076,-0.04l0.026,-0.003l0.04,0.027l0.007,0.033l0.018,0.012l0.041,0.004l0.057,0.044l0.027,-0.003l0.115,-0.123l0.031,-0.011l0.013,-0.029v-0.017l-0.02,-0.019l0.007,-0.015l0.038,-0.009l0.058,-0.061l-0.005,-0.017l0.014,-0.011l0.084,0.023l0.011,-0.02l-0.002,-0.037l0.017,-0.023l0.033,-0.016l0.007,-0.021l-0.037,-0.085l0.015,-0.044l0.042,-0.006l0.03,-0.02l0.028,-0.002l0.018,-0.016l0.024,-0.05l0.02,-0.015l0.034,-0.008l0.074,-0.05l0.007,-0.037l-0.027,-0.033l-0.008,-0.044l-0.016,-0.023l-0.024,0.002l-0.04,0.018h-0.024l-0.021,-0.017l-0.057,-0.005l-0.053,-0.043l-0.062,0.003l-0.117,0.06l-0.053,0.004l-0.074,-0.004l-0.059,0.018l-0.02,-0.003l-0.028,-0.114l-0.105,-0.122l-0.013,-0.083l-0.022,-0.007l-0.035,-0.061v-0.08l0.023,-0.026l-0.002,-0.024l-0.035,-0.081v-0.032l0.017,-0.026l-0.001,-0.016l-0.061,-0.006l-0.027,0.018l-0.029,-0.004l-0.087,-0.109v-0.034l0.064,-0.171l-0.004,-0.058l0.01,-0.032l0.046,-0.046l0.016,-0.079l0.06,-0.092l0.006,-0.054l-0.016,-0.026v-0.023l0.029,-0.04v-0.074l0.037,-0.092v-0.083l-0.021,-0.054l-0.043,-0.048l0.002,-0.055l0.084,-0.114l0.017,-0.08l-0.004,-0.059l-0.039,-0.036l-0.002,-0.03l0.016,-0.042l-0.002,-0.026l-0.031,-0.041l-0.016,-0.084l0.008,-0.131l-0.012,-0.046l0.004,-0.046l0.024,-0.088l0.002,-0.039l-0.022,-0.11l-0.017,-0.024l-0.031,-0.002l-0.027,-0.016l-0.014,-0.042l-0.033,-0.006l-0.018,0.02h-0.017l-0.017,-0.016h-0.022l-0.068,0.042h-0.029l-0.027,-0.034l0.002,-0.045l0.021,-0.05l0.06,-0.066l0.018,-0.048l-0.064,-0.131l0.002,-0.018l0.015,-0.01v-0.014l-0.023,-0.004v-0.022l0.035,-0.042l-0.002,-0.029l-0.037,-0.038l-0.013,-0.06l0.007,-0.038l0.022,-0.018l0.029,0.002l0.021,0.032l0.049,0.02l0.048,0.046l0.051,0.004l0.019,-0.018l-0.019,-0.038l-0.012,-0.191l0.008,-0.022h0.021l0.01,0.014h0.025l0.031,-0.02v-0.032l-0.025,-0.059l0.006,-0.034l0.015,-0.016l0.031,-0.004l0.022,-0.05l0.035,-0.028l0.029,-0.072l0.008,-0.047l0.021,-0.032l0.012,-0.052l0.069,-0.05l0.016,-0.028l0.008,-0.049l0.029,-0.034l0.008,-0.026l-0.01,-0.03l0.008,-0.034l0.05,-0.093l-0.006,-0.03l-0.039,-0.034l-0.036,-0.01l-0.02,-0.02l-0.01,-0.062l-0.029,-0.063l-0.134,-0.112l-0.011,-0.038l-0.002,-0.049l-0.025,-0.018l-0.014,-0.034l-0.002,-0.044l-0.037,-0.082l-0.031,-0.024v-0.027l-0.029,-0.02l0.012,-0.012l0.04,0.012l0.018,-0.016l0.01,-0.062l-0.008,-0.078l-0.027,-0.023l-0.035,-0.06l-0.037,-0.04l-0.006,-0.03l-0.018,-0.006l-0.021,0.016l-0.041,-0.002l-0.015,0.018l-0.018,-0.002l-0.015,-0.038l0.01,-0.036l0.066,-0.085h0.06l0.017,0.01l-0.008,0.028l0.012,0.012l0.037,-0.032l0.041,-0.006l0.035,-0.066l0.023,-0.016l0.002,-0.048l0.023,-0.042h0.027l0.024,0.018l0.072,-0.006l0.089,-0.069l0.033,0.002l0.037,0.02l0.124,0.029l0.039,-0.003l0.041,-0.032l0.009,-0.04l0.039,-0.036l0.051,-0.006l0.027,-0.016l0.021,-0.036l0.043,-0.014l0.054,-0.043l0.016,-0.042l-0.02,-0.026l0.01,-0.032l0.031,0.006l0.035,-0.02l0.033,-0.07l0.093,-0.119l0.035,-0.078l0.039,-0.012l0.027,0.022l0.024,-0.006l0.079,-0.089l0.033,-0.058l0.051,-0.01l0.033,-0.034l0.035,-0.01l0.005,-0.036l0.018,-0.02h0.023l0.035,-0.037l0.012,-0.05l-0.01,-0.014l-0.039,0.006l-0.035,0.03h-0.023l-0.01,-0.028l0.016,-0.038v-0.024l-0.031,-0.014l-0.004,-0.026l0.013,-0.039l-0.013,-0.008l-0.027,0.01l-0.024,-0.02l-0.033,-0.018l-0.021,-0.054l-0.065,-0.026l-0.003,-0.024l0.036,-0.016l0.021,-0.048l-0.016,-0.053l-0.046,-0.029l-0.057,-0.008l-0.054,-0.037l-0.03,-0.002l-0.021,-0.022l-0.004,-0.05l-0.029,-0.059l0.002,-0.078l-0.049,-0.042v-0.028l0.026,-0.053l-0.002,-0.03l-0.053,-0.014l-0.005,-0.022l0.009,-0.026v-0.03l-0.023,-0.038v-0.024l0.033,-0.033l0.015,-0.11l0.037,-0.05l0.006,-0.043l-0.011,-0.022l-0.032,-0.006l-0.015,0.016l-0.019,-0.002l-0.022,-0.078l-0.031,-0.018h-0.027l-0.031,-0.03l0.002,-0.046l-0.029,-0.026l-0.055,-0.021l-0.087,-0.012l-0.051,-0.034l-0.036,-0.008l-0.018,-0.016l-0.008,-0.054l-0.081,-0.062l-0.031,-0.049l-0.066,-0.048l-0.049,-0.002l-0.029,0.016h-0.033l-0.017,0.026l-0.016,-0.002v-0.066l-0.031,-0.042l-0.047,-0.024l-0.005,-0.032l-0.043,-0.031l0.002,-0.018l0.025,-0.01l0.029,-0.052v-0.088l0.01,-0.029l0.033,-0.036l0.045,-0.096l0.005,-0.046l-0.004,-0.067l0.028,-0.058l0.066,-0.032l0.004,-0.028l-0.037,-0.068l0.005,-0.079l-0.054,-0.12l-0.035,-0.029l-0.12,-0.026l-0.041,-0.026l-0.033,-0.078l-0.004,-0.066l-0.031,-0.025l-0.124,-0.046l-0.037,-0.034l-0.033,-0.008l-0.01,-0.026l0.024,-0.024l-0.002,-0.024l-0.02,-0.036l-0.008,-0.071l-0.04,-0.05l0.003,-0.032l0.016,-0.024l0.023,-0.006l0.014,-0.034l-0.043,-0.071l-0.002,-0.032l0.014,-0.018v-0.022l-0.105,-0.08l-0.074,-0.002l-0.052,0.06h-0.018l-0.015,-0.028l-0.049,-0.008l-0.041,-0.035l-0.021,-0.002l-0.035,0.089l0.002,0.024l0.031,0.03v0.02l-0.027,0.002l-0.01,0.018l0.014,0.044l-0.008,0.031l-0.031,0.024l-0.004,0.028l-0.023,0.006l-0.041,-0.018v-0.024l0.012,-0.028l-0.07,-0.077l-0.006,-0.038l-0.037,-0.022h-0.033l-0.029,0.06h-0.023l-0.039,-0.03l-0.004,-0.05l-0.035,-0.042l-0.017,-0.093l-0.03,-0.044l0.02,-0.054l0.041,-0.032l0.058,-0.097l-0.002,-0.078l-0.045,-0.032l-0.037,-0.004l-0.036,0.012h-0.022l-0.043,-0.049l-0.056,-0.002l-0.033,0.029h-0.021l-0.016,-0.024v-0.029l0.018,-0.024l-0.002,-0.022l-0.022,-0.03l-0.003,-0.036l0.013,-0.034l-0.002,-0.028l-0.015,-0.025l0.002,-0.03l0.054,-0.058l-0.096,-0.001l-0.025,-0.013l-0.037,-0.058h-0.017l-0.02,0.026l-0.028,-0.003l-0.015,-0.066l-0.019,-0.004l-0.069,0.033l-0.035,-0.002l-0.176,-0.109l-0.007,-0.043l-0.043,-0.045l-0.103,-0.005l-0.027,-0.017l-0.018,-0.082l-0.028,-0.042l-0.126,-0.028l-0.266,-0.015l-0.124,-0.059l-0.117,-0.024l-0.113,0.028l-0.229,-0.308l0.02,-0.087l-0.105,-0.071l-0.051,-0.012l-0.046,-0.031l-0.35,0.035l-0.314,0.008l-0.233,-0.134l-0.066,-0.111l-0.055,-0.031l-0.077,0.024l-0.249,-0.056l-0.202,0.048l-0.004,0.035l-0.089,0.012l-0.085,-0.063l-0.093,-0.124l-0.011,-0.084l-0.031,-0.066l0.003,-0.031l0.054,-0.133l-0.003,-0.029l-0.354,-0.158l-0.228,-0.034l-0.026,0.018l-0.08,0.011l-0.026,0.036l-0.06,0.061h-0.028l-0.036,-0.016h-0.026l-0.026,0.016l-0.023,-0.003l-0.026,-0.018l-0.06,-0.013l-0.015,-0.042l-0.031,-0.027l-0.034,-0.058l-0.083,-0.021l-0.085,-0.052l-0.055,-0.058l-0.049,-0.016l-0.021,-0.037l-0.005,-0.031l-0.031,-0.021l0.003,-0.035l0.023,-0.037l-0.023,-0.092l-0.001,-0.063l0.036,-0.079l-0.002,-0.035l-0.025,-0.046l-0.009,-0.059l-0.035,-0.018l-0.026,-0.037l-0.044,-0.016l-0.026,-0.022l-0.097,-0.002l-0.027,0.016l-0.05,-0.02l-0.041,-0.075l-0.051,-0.059l-0.035,-0.014h-0.147l-0.062,-0.035l-0.022,-0.059l-0.044,-0.048l-0.008,-0.037l-0.016,-0.006l-0.034,0.014l-0.012,0.019l0.017,0.028l-0.009,0.014h-0.026l-0.015,0.022l-0.027,0.002l-0.039,-0.012l-0.016,0.015l-0.013,-0.003v-0.026l-0.041,-0.008l-0.074,0.087l-0.062,0.006l-0.052,-0.026l-0.024,-0.097l-0.027,-0.023l-0.023,-0.004l-0.01,0.021l-0.021,-0.002l-0.049,-0.043l-0.044,-0.006l-0.037,0.047l-0.027,-0.011l-0.024,0.006l-0.006,0.029l0.029,0.005l0.035,0.055v0.097l-0.011,0.029l-0.01,0.116l0.024,0.051v0.023l-0.018,0.045l-0.003,0.032l0.008,0.036l-0.013,0.075l-0.058,0.038l-0.015,-0.006l0.004,-0.049l-0.015,-0.012l-0.024,-0.007l-0.06,-0.09l-0.025,-0.008l-0.016,0.02l0.001,0.09l-0.014,0.008l-0.027,-0.008l-0.024,0.006l-0.055,0.063l-0.013,0.029l-0.044,0.035l-0.033,0.008l-0.074,0.069l-0.068,0.029l-0.04,-0.003l-0.046,-0.033l-0.038,-0.071l-0.091,-0.082l-0.089,-0.037l-0.018,-0.017l-0.012,-0.042l-0.049,-0.068l-0.034,-0.013l-0.022,-0.019l-0.006,-0.035l-0.02,-0.027l-0.034,-0.014l-0.069,-0.074l-0.04,-0.069l-0.082,-0.075l-0.028,-0.012l-0.024,-0.027l-0.003,-0.022l-0.022,-0.021l-0.077,-0.021l-0.031,-0.021l-0.046,-0.103l-0.031,-0.01l-0.094,0.001l-0.039,0.012l-0.047,-0.002l-0.041,-0.028l-0.004,-0.031l0.014,-0.05l-0.01,-0.023l-0.045,-0.004l-0.065,0.027l-0.039,-0.004l-0.033,-0.033l0.002,-0.055l0.047,-0.058l-0.004,-0.029l-0.033,-0.01l-0.077,0.008l-0.062,0.061l0.002,0.026l0.07,0.005l0.002,0.02l-0.029,0.038l-0.035,0.002l-0.077,0.049l-0.035,0.073l-0.049,0.034l-0.221,0.108l-0.035,-0.002l-0.016,-0.043l0.026,-0.046l0.084,-0.081l0.033,0.002l0.018,-0.019l0.009,-0.103l0.024,-0.024l-0.006,-0.017l-0.067,-0.014l-0.09,0.008l-0.031,0.023l-0.086,0.03h-0.045l-0.065,-0.034l-0.007,-0.041l0.021,-0.034l-0.012,-0.025l-0.08,-0.028l-0.023,-0.031v-0.052l0.025,-0.021l0.004,-0.022l-0.014,-0.032l0.053,-0.225l0.033,-0.055l0.235,-0.168l0.08,-0.01l0.028,-0.033v-0.04h-0.04l-0.057,-0.065l-0.033,-0.001l-0.031,0.025l-0.052,0.005l-0.03,0.032l-0.029,-0.003l-0.08,-0.068l-0.075,-0.002l-0.028,0.025l-0.03,-0.002l-0.042,-0.032l-2.682,0.353l-0.051,-0.002l-0.039,0.021l-0.051,0.008l-0.026,0.027l-0.001,0.029l0.026,0.018l-0.011,0.022l-0.087,0.058l-0.042,-0.002l-0.081,-0.069l-0.075,-0.012l-0.075,-0.059l-1.989,0.287h-0.042l-0.023,-0.01h-0.031l-0.021,0.039l-0.006,0.061l-0.133,0.121l0.265,0.142l0.037,0.027l0.026,0.038l0.111,0.079l0.098,0.057l0.12,0.107l0.048,0.083l-0.005,0.049l-0.042,0.073l-0.066,0.274l-0.131,0.354l-0.061,0.049l-0.119,0.286l-0.055,0.164l-0.041,0.061l-0.088,0.048l-0.098,0.033l-0.102,0.008l-0.007,0.024l0.025,0.031l-0.002,0.063l-0.041,0.079l-0.121,0.101l-0.202,0.229l-0.035,0.061l-0.123,0.16l-0.047,0.008l-0.024,0.031l-0.004,0.046l-0.019,0.029l-0.086,0.072l-0.04,0.057l-0.058,0.116l-0.041,0.048l0.004,0.011l0.05,-0.002l0.026,0.032l-0.008,0.081l-0.037,0.118l0.004,0.054l0.035,0.031l0.008,0.063l-0.024,0.034h-0.047l-0.076,-0.036l-0.039,-0.057v-0.041l-0.069,-0.042l-0.025,0.012l-0.006,0.053l-0.033,0.03l-0.047,-0.016l-0.026,-0.045l0.012,-0.016l0.039,-0.002l0.016,-0.027l-0.031,-0.032l-0.037,-0.004l-0.106,0.045l-0.088,0.02l-0.18,0.097l-0.016,-0.008l0.033,-0.067l-0.003,-0.038l-0.018,-0.046l-0.012,-0.003l-0.015,0.107l-0.024,0.043l-0.002,0.032l0.012,0.015l0.043,0.002l0.031,0.022l-0.002,0.077l0.018,0.01l0.053,-0.014l0.031,0.004l0.031,0.047v0.227l0.016,0.032l0.021,0.014l0.026,-0.002l0.062,-0.059l0.036,0.002l0.013,0.037l-0.021,0.032l-0.069,0.008l-0.041,0.023l-0.002,0.022l0.039,0.014l0.065,0.047v0.046l-0.016,0.033v0.034l0.043,0.063l0.028,0.079l0.017,0.126l-0.005,0.03l-0.03,0.039l0.002,0.034l0.078,0.09l0.096,0.012l0.032,0.044v0.027l-0.018,0.028l0.002,0.02l0.094,0.069l-0.004,0.029l-0.016,0.018l-0.021,0.002l-0.018,-0.018h-0.017l-0.014,0.016l-0.002,0.085l-0.047,0.115l-0.006,0.071l-0.068,0.092l-0.053,0.139l-0.002,0.045l0.021,0.061l-0.004,0.028l-0.029,0.031v0.02l0.067,0.066l0.015,0.031l-0.01,0.093l-0.041,0.033l-0.002,0.028l0.008,0.059l-0.019,0.15v0.156l-0.01,0.014l-0.035,-0.008l-0.012,0.014l-0.004,0.047l-0.059,0.047l-0.068,0.107v0.032l0.068,0.059l0.002,0.031l0.045,0.044l0.008,0.057l0.022,0.024l0.033,0.004l0.037,0.029l0.004,0.138l-0.055,0.095l-0.004,0.032l0.02,0.027v0.026l-0.008,0.032l0.008,0.035l0.074,0.089l0.014,0.075l-0.051,0.085l-0.002,0.039l0.029,0.069l-0.003,0.036l-0.038,0.043v0.024l0.061,0.041h0.027l0.026,0.022l0.004,0.05l0.041,0.045v0.037l-0.047,0.099v0.075l0.09,0.059l0.031,0.052l0.01,0.075l-0.023,0.037l-0.083,0.014l-0.015,0.024l0.007,0.092l-0.013,0.024l-0.125,-0.02l-0.036,0.002l-0.037,0.03l-0.015,0.154l-0.032,0.053l-0.041,0.022l-0.017,0.032l0.003,0.045l-0.027,0.035l-0.049,0.024l-0.061,0.136l-0.003,0.081l0.013,0.071l-0.029,0.206l-0.039,0.045l-0.057,0.018l-0.016,0.041l0.006,0.176l-0.058,0.13l-0.01,0.095l-0.051,0.061l-0.01,0.043l0.069,0.109l0.015,0.053l-0.01,0.115l-0.056,0.071l-0.002,0.087l0.025,0.059l-0.006,0.041l-0.049,0.062l-0.013,0.067l-0.057,0.045l-0.004,0.038l0.012,0.023l-0.002,0.024l-0.02,0.018v0.039l0.037,0.028l0.002,0.029l-0.019,0.038l-0.004,0.045l-0.022,0.018l-0.078,0.036l-0.01,0.043l0.026,0.057l-0.004,0.032l-0.029,0.045l-0.008,0.063l-0.088,0.089l-0.01,0.042l0.004,0.085l-0.026,0.029l-0.002,0.026l0.01,0.014v0.025l-0.019,0.04v0.179l0.07,0.113l0.072,0.043l0.034,0.071l-0.006,0.034l-0.03,0.037l-0.013,0.04l0.008,0.028l0.047,0.031l0.002,0.034l-0.055,0.069l0.002,0.018l0.045,0.029l0.078,0.132l-0.004,0.034l-0.049,0.049l-0.019,0.073l0.002,0.032l0.06,0.079h0.02l0.035,-0.042h0.037l0.055,0.056l0.008,0.035l-0.013,0.095l0.014,0.014l0.054,-0.017l0.032,0.008l0.038,0.041l0.059,0.02l0.056,0.008l0.028,0.01l0.019,0.029l0.028,0.001l0.045,-0.013l0.079,0.004l0.03,0.032l0.037,0.081l0.032,0.027l0.064,0.025l0.024,0.022l0.012,0.024l0.035,0.019l0.025,-0.001l0.03,0.019l0.033,0.042l0.055,0.019h0.033l0.059,-0.041l0.051,0.004l0.046,0.051l0.004,0.032l-0.011,0.029l0.006,0.022l0.046,0.034v0.023l-0.007,0.022l0.007,0.038l0.096,0.063l0.036,0.037l0.021,0.048l0.055,0.039l0.107,0.178l0.044,0.031l0.099,0.036l0.051,0.033l0.127,0.131l0.106,0.195l0.053,0.065l0.053,0.044l0.015,0.027l0.006,0.105l0.033,0.077l0.049,0.031l0.008,0.03l-0.015,0.042l0.002,0.027l0.041,0.036l0.119,0.015l0.025,-0.005l0.034,-0.034l0.045,-0.008l0.031,0.012l0.041,0.059h0.018l0.033,-0.037l0.147,-0.048l0.191,0.01l0.034,0.018l0.049,-0.006l0.047,-0.059l0.033,-0.002l0.129,0.11v0.026l-0.018,0.018v0.023l0.069,0.046l0.109,-0.002l0.061,-0.032l0.069,0.006l0.095,0.083l0.069,0.028l0.098,0.019l0.068,0.04h0.037l0.067,-0.055l0.059,-0.016l0.056,-0.079v-0.053l-0.019,-0.04l-0.026,-0.002l-0.052,0.032l-0.034,-0.002l-0.033,-0.042l-0.106,-0.211l-0.004,-0.065l0.09,-0.253l0.077,-0.067l0.098,-0.004l0.037,-0.023l0.037,-0.071l0.047,-0.016l0.014,-0.016l-0.022,-0.02l0.006,-0.019l0.055,-0.022l0.021,0.004l0.006,0.029l-0.017,0.036l0.011,0.006l0.03,-0.022l0.037,0.01l0.041,0.043l0.021,0.05l0.016,0.002l0.014,-0.032h0.021l0.03,0.024l0.002,0.025l0.035,0.02l0.119,-0.006l0.055,-0.039l0.031,-0.002l0.053,-0.004l0.008,-0.012l-0.014,-0.024l0.033,-0.029l0.03,0.01l0.012,-0.01l-0.006,-0.05l0.035,-0.069l0.096,-0.077l0.039,-0.004l0.041,0.02h0.043l0.029,-0.02h0.016v4.897h-0.078l-0.049,-0.043l-0.057,0.004l-0.084,0.069l-0.051,0.022l-0.035,-0.002l-0.09,-0.03l-0.08,-0.093l-0.024,-0.002l-0.031,0.038l-0.027,0.008l-0.061,-0.028l-0.01,-0.037l-0.021,-0.024l-0.055,-0.038l-0.002,-0.055l0.027,-0.037l-0.002,-0.02l-0.043,-0.02l-0.01,-0.027l0.018,-0.02l0.074,0.006l0.075,-0.04l0.023,-0.138l-0.033,-0.043v-0.028l0.133,-0.14l0.002,-0.026l-0.018,-0.002l-0.023,0.018l-0.016,-0.012l0.026,-0.089l-0.01,-0.006l-0.074,0.034l-0.026,0.03h-0.037l-0.129,-0.075l-0.049,-0.064l-0.041,-0.002l-0.059,0.068l-0.031,0.019l-0.055,-0.002l-0.043,0.016l-0.051,0.059l-0.037,0.016l-0.037,0.073l-0.082,0.065l-0.03,0.04l-0.029,0.004l-0.03,0.019l-0.007,0.024l-0.028,0.016l-0.092,0.006l-0.07,0.037l-0.041,0.006l-0.065,-0.008l-0.021,0.014l-0.018,0.067l-0.023,0.018l-0.114,-0.061l-0.019,0.039l-0.008,0.04l-0.043,0.045l-0.014,0.026l-0.069,0.01l-0.078,0.065l-0.041,0.012l-0.041,0.037l-0.059,0.006l-0.054,0.034l-0.081,0.11h-0.017l-0.02,-0.051l0.008,-0.041l-0.027,-0.068l-0.045,-0.029l-0.032,-0.061l-0.023,-0.008l-0.026,0.006l-0.035,-0.018l0.004,-0.026h-0.027l-0.026,0.022l-0.07,0.014l-0.302,0.166l-0.021,-0.002l-0.065,-0.064l-0.007,-0.051l0.041,-0.039l0.009,-0.04l-0.021,-0.006l-0.051,0.03l-0.047,-0.002l-0.029,-0.028l0.011,-0.089l-0.009,-0.037l-0.041,-0.051l-0.014,-0.148l-0.073,-0.182l-0.023,-0.022l-0.002,-0.025l0.022,-0.026l-0.02,-0.115l-0.041,-0.075l-0.035,-0.043l-0.026,-0.002l-0.025,0.028l-0.041,0.002l-0.01,-0.032l-0.018,-0.012l-0.056,0.014l-0.034,-0.035l-0.004,-0.064l0.028,-0.055l-0.002,-0.035l-0.028,-0.036l-0.041,-0.01l-0.009,-0.041l0.054,-0.028l0.004,-0.024l-0.049,-0.027l-0.004,-0.152l-0.019,-0.107l-0.02,-0.018l-0.039,-0.009l-0.023,-0.02l-0.024,-0.061l-0.025,-0.04l-0.004,-0.043l-0.018,-0.01l-0.08,0.01l-0.02,-0.014l-0.011,-0.042l-0.03,-0.023l-0.052,-0.101l0.005,-0.037l-0.015,-0.014l-0.022,0.002l-0.015,-0.014l-0.004,-0.03l-0.02,-0.011l-0.029,-0.002l-0.02,-0.012l-0.015,-0.036l-0.063,-0.033l-0.078,-0.105l-0.061,-0.002l-0.043,0.043l-0.045,0.016l-0.025,0.03l-0.087,0.209l-0.017,0.014l-0.065,-0.016l-0.015,-0.055l-0.059,-0.055l-0.016,-0.054l0.022,-0.031l-0.004,-0.075l-0.088,-0.109l-0.018,-0.053l-0.015,-0.004l-0.012,0.018l-0.032,-0.012l-0.056,-0.109l-0.073,-0.053l-0.039,-0.055l0.002,-0.038l0.024,-0.01l0.011,-0.017l-0.004,-0.034l0.028,-0.03l0.051,-0.002l0.017,-0.017h0.03l0.037,0.017h0.027l0.016,-0.031l0.008,-0.101l0.049,-0.039v-0.032l-0.039,-0.041l-0.005,-0.033l-0.112,-0.086l-0.031,-0.006l-0.022,-0.016l-0.025,-0.04l-0.042,-0.033l-0.043,-0.01l-0.034,-0.033l-0.003,-0.029l0.033,-0.049l-0.009,-0.043l0.01,-0.018l-0.002,-0.012l-0.113,-0.05l-0.043,0.001l-0.031,-0.013l-0.008,-0.048l-0.066,-0.068l-0.003,-0.024l-0.05,-0.035l-0.04,0.003l-0.033,-0.029l-0.006,-0.04l-0.121,-0.054l-0.059,0.003l-0.025,0.021l-0.023,-0.003l-0.037,-0.047l-0.051,-0.011l-0.06,0.045l-0.052,-0.016l-0.008,-0.033l-0.035,-0.019l-0.073,-0.002l-0.031,-0.026v-0.028l0.019,-0.022l-0.004,-0.014h-0.071l-0.038,0.042l-0.049,0.021l-0.024,0.063l0.037,0.047l-0.01,0.013l-0.042,0.002l-0.035,0.033l-0.019,-0.004l-0.049,-0.125l-0.04,-0.042l-0.018,-0.07l-0.05,-0.086l-0.068,-0.021l-0.03,0.002l-0.029,0.03h-0.027l-0.053,-0.032l-0.029,-0.001l-0.014,0.013h-0.02l-0.027,-0.033l-0.045,0.001l-0.075,0.075l-0.025,0.003l-0.043,-0.028l-0.008,-0.06l0.049,-0.083l-0.009,-0.032l-0.049,-0.059l0.002,-0.033l-0.018,-0.014l-0.025,-0.009l-0.011,-0.033l0.005,-0.029l-0.001,-0.017l-0.016,-0.015l-0.002,-0.015l0.015,-0.014l-0.001,-0.012l-0.191,-0.022l-0.145,-0.001l-0.098,-0.053l-0.006,0.007l0.016,0.027l0.001,0.012l-0.014,0.018v0.038l-0.013,0.028l-0.052,0.037l-0.048,0.005l-0.045,0.024l-0.018,0.056l-0.019,0.013l-0.099,-0.038h-0.023l-0.009,0.016l-0.024,0.001l-0.05,-0.019h-0.033l-0.028,0.022l-0.029,-0.001l-0.033,-0.018l-0.032,0.001l-0.03,0.013l-0.024,-0.001l-0.043,-0.043l-0.045,-0.006l-0.008,-0.018l0.021,-0.029l-0.004,-0.023l-0.039,-0.033l-0.006,-0.021l0.008,-0.048l-0.018,-0.024l-0.054,-0.02l-0.01,-0.025l-0.026,-0.004l-0.021,0.01l-0.053,-0.013l-0.06,-0.069l-0.031,-0.026l-0.043,-0.019l-0.041,-0.069l-0.045,-0.134l-0.002,-0.082l0.014,-0.036l-0.01,-0.022l-0.046,-0.034l-0.006,-0.026l0.004,-0.029l-0.02,-0.033l-0.03,-0.007l-0.028,0.012l-0.021,-0.005l-0.017,-0.037l-0.01,-0.158l0.019,-0.034l-0.001,-0.023l-0.009,-0.017l0.002,-0.023l0.036,-0.06l-0.003,-0.052l-0.049,-0.069l-0.101,-0.063l-0.031,-0.044l-0.031,-0.018l-0.044,-0.006l-0.023,-0.015l-0.012,-0.046l-0.022,-0.018l-0.03,-0.003l-0.022,-0.012l-0.016,-0.034l-0.122,-0.064l-0.002,-0.026l-0.021,-0.016l-0.04,-0.007l-0.134,-0.092l-0.076,-0.027l-0.017,0.002l-0.01,0.017h-0.02l-0.078,-0.045l-0.01,-0.017l-0.003,-0.085l-0.03,-0.037l-0.006,-0.037l0.015,-0.053l0.03,-0.03l0.001,-0.022l-0.021,-0.056v-0.026l0.017,-0.024l0.014,-0.003l0.005,-0.019l-0.034,-0.078l-0.001,-0.086l-0.02,-0.04l-0.004,-0.059l-0.049,-0.17l-0.013,-0.001l-0.023,0.052l-0.024,0.014l-0.036,0.002l-0.027,0.013l-0.039,0.047l-0.026,0.006l-0.091,-0.017l-0.028,-0.023l-0.025,-0.003l-0.119,0.06l-0.026,0.002l-0.089,-0.044h-0.026l-0.103,0.074l-0.006,0.021l0.004,0.025l0.043,0.031l-0.001,0.015l-0.027,0.03v0.016l0.02,0.022l0.014,0.051l0.03,0.013l0.008,0.024l-0.007,0.032l0.024,0.061l-0.002,0.021l-0.05,0.055l-0.005,0.044l-0.043,0.021l-0.001,0.015l-0.009,0.007l-0.03,-0.01l-0.021,0.012l0.012,0.059l-0.015,0.127v0.032l0.022,0.026l-0.002,0.013l-0.044,0.018l-0.001,0.023l0.037,0.05l-0.002,0.022l-0.029,0.026l-0.043,0.013l-0.007,0.013l-0.001,0.023l-0.054,0.044l-0.011,0.03l-0.004,0.068l-0.02,0.053l-0.036,0.029l-0.025,0.002l-0.011,0.014l-0.001,0.027l-0.011,0.008l-0.074,-0.009l-0.009,0.007v0.045l-0.021,0.016l-0.031,0.002l-0.017,0.017l-0.019,0.065l-0.036,0.023h-0.03l-0.049,-0.016l-0.022,0.002l-0.029,0.027l-0.089,-0.002l-0.03,-0.023l-0.054,-0.018l-0.091,-0.073h-0.026l-0.048,0.027l-0.026,0.039l-0.036,0.01l-0.025,0.039l-0.025,0.009l-0.024,0.046l-0.028,0.017l-0.02,-0.001l-0.061,-0.051l-0.073,-0.012l-0.047,-0.002l-0.035,0.008l-0.045,-0.002l-0.046,-0.022l-0.052,-0.05l-0.017,-0.002l-0.009,0.012l-0.014,-0.001l-0.022,-0.02h-0.012l-0.045,0.059l-0.04,0.001l-0.032,-0.023l-0.037,-0.004l-0.026,-0.046l-0.038,-0.021l-0.104,-0.022l-0.02,-0.017l-0.061,-0.103l-0.024,-0.011l-0.135,-0.011l-0.02,-0.017h-0.029l-0.013,0.013l0.001,0.019l-0.011,0.006l-0.021,-0.006l-0.021,0.005l-0.008,0.024l-0.018,0.012l-0.059,0.004l-0.201,0.106l-0.05,0.012h-0.028l-0.02,-0.014l-0.004,-0.039l-0.037,-0.027l-0.064,-0.008h-0.046l-0.032,0.011l-0.02,-0.002l-0.031,-0.052l-0.013,0.001l-0.011,0.021l-0.017,0.002l-0.049,-0.051h-0.036l-0.064,0.06h-0.021l-0.039,-0.019l-0.024,0.001l-0.022,0.017l-0.107,0.011l-0.224,0.001l-0.04,-0.012h-0.047l-0.025,0.022l-0.12,0.002l-0.084,0.018l-0.022,-0.002l-0.006,-0.06l0.013,-0.018l0.03,-0.012l0.011,-0.031l-0.006,-0.032l-0.034,-0.038l-0.028,-0.008l-0.033,-0.051l-0.024,-0.01l-0.018,0.002l-0.023,0.019h-0.036l-0.022,0.014h-0.016l-0.094,-0.08l-0.004,-0.04l-0.019,-0.014l-0.034,-0.006l-0.007,-0.023l0.015,-0.042l-0.001,-0.02l-0.012,-0.028l0.001,-0.038l-0.017,-0.011l-0.058,-0.005l-0.053,0.012l-0.077,0.076l-0.035,0.003l-0.091,-0.026h-0.026l-0.03,0.019h-0.043l-0.085,-0.047l-0.034,-0.002l-0.057,0.009l-0.041,-0.002l-0.036,-0.026l-0.015,-0.041l-0.117,-0.102l-0.01,-0.028l-0.001,-0.053l-0.038,-0.069l-0.021,-0.002l-0.032,0.011l-0.164,0.002l-0.037,0.029l-0.004,0.045l-0.025,0.021l-0.09,0.01l-0.017,0.015l-0.052,0.07l-0.02,0.002l-0.04,-0.015l-0.024,0.002l-0.02,0.029l-0.017,-0.001l-0.056,-0.058l-0.001,-0.025l0.04,-0.068l-0.01,-0.136l-0.045,-0.078l-0.079,-0.065h-0.031l-0.049,0.024l-0.031,-0.004l-0.127,-0.101l-0.041,-0.012l-0.069,-0.006l-0.108,-0.053l-0.031,-0.024v-0.019l0.022,-0.018v-0.018l-0.022,-0.031v-0.095l-0.023,-0.032l-0.067,-0.022v-0.025l0.014,-0.04l-0.004,-0.059l-0.057,-0.043l0.002,-0.026l0.031,-0.018l0.022,0.022h0.021l0.061,-0.076l-0.004,-0.009l-0.031,0.006l-0.037,-0.016l-0.034,-0.043l0.002,-0.036l0.02,-0.037l-0.006,-0.083l-0.041,-0.028l-0.002,-0.023l0.024,-0.038l-0.012,-0.028l-0.047,-0.015l-0.01,-0.036l0.012,-0.039v-0.034l-0.03,-0.063l0.006,-0.016l0.086,0.012l0.034,-0.036l0.007,-0.057l-0.007,-0.021l-0.047,-0.028l-0.008,-0.026l-0.022,-0.016l0.006,-0.023l0.078,-0.026l0.083,-0.043l0.002,-0.022l-0.071,-0.042v-0.027l0.049,-0.024l0.01,-0.025l0.004,-0.075l0.068,-0.089l-0.008,-0.018l-0.043,0.012l-0.029,-0.002l-0.041,-0.038l-0.061,0.004l-0.045,0.036l-0.054,0.012l-0.032,0.021l-0.049,0.008l-0.027,0.03l-0.027,0.004l-0.026,0.023l-0.078,0.008l-0.039,0.026l-0.174,0.014l-0.034,-0.01l-0.017,0.008v0.02l-0.043,0.002l-0.03,0.011l-0.008,0.02l-0.027,0.006l-0.049,-0.01l-0.043,0.002l-0.074,0.03l-0.028,-0.002l-0.009,-0.024l-0.03,-0.006l-0.041,0.012l-0.023,-0.004l-0.018,-0.028l-0.029,-0.002l-0.071,0.026l-0.082,0.002l-0.035,0.026l-0.024,0.006l-0.049,-0.008l-0.093,0.006l-0.049,0.045l-0.069,0.004l-0.064,-0.028l-0.026,0.006l-0.012,0.028l0.012,0.032l-0.019,0.033l-0.081,0.024l-0.06,-0.008l-0.036,0.006l-0.06,0.037h-0.03l-0.031,-0.019l-0.135,-0.002l-0.064,0.035v0.018l0.035,0.033l-0.006,0.018h-0.057l-0.062,-0.008l-0.042,0.016l-0.013,0.03l-0.069,0.035l-0.031,0.052l-0.025,0.021l-0.049,0.103l-0.04,0.026l-0.076,0.013l-0.07,0.04l-0.014,0.022v0.079l-0.023,0.033h-0.049l-0.069,-0.033h-0.039l-0.025,0.019l-0.024,0.042l-0.029,0.016h-0.102l-0.037,-0.022h-0.028l-0.031,0.014l-0.064,-0.004l-0.026,0.015l-0.023,-0.017v-0.065l-0.02,-0.016l-0.027,0.004l-0.022,-0.014l0.002,-0.03l-0.021,-0.017l-0.038,-0.004l-0.062,-0.052l-0.094,-0.031l-0.026,0.006l-0.009,0.023l-0.039,0.016l-0.096,-0.012l-0.045,-0.031l-0.069,-0.03l-0.019,-0.024l0.004,-0.021l0.068,-0.04l0.131,-0.01l0.022,-0.013l0.002,-0.026l0.019,-0.022h0.033l0.02,-0.016l0.012,-0.071l0.025,-0.039l0.053,-0.05l0.006,-0.059l0.025,-0.045l0.024,-0.065l-0.012,-0.03l0.008,-0.018l0.031,-0.004l0.012,-0.025l-0.006,-0.018l-0.041,-0.016l-0.008,-0.037l0.02,-0.054l-0.004,-0.033l-0.073,-0.071l-0.004,-0.034l0.036,-0.047l0.013,-0.134l-0.019,-0.016v-0.03l0.025,-0.027l-0.002,-0.03l-0.041,-0.026l-0.015,-0.019l-0.04,-0.022l-0.06,-0.016l-0.065,-0.065l-0.098,-0.045l-0.07,-0.006l-0.127,0.011l-0.02,0.016l-0.025,-0.002l-0.057,-0.051l-0.082,-0.016l-0.049,-0.031l-0.035,-0.002l-0.036,0.017l-0.027,0.05l-0.029,0.01l-0.037,-0.016l-0.016,-0.115l-0.026,-0.027v-0.022l0.024,-0.028v-0.019l-0.018,-0.026l-0.004,-0.034l-0.05,-0.047l0.001,-0.041l0.028,-0.046v-0.027l-0.051,-0.058h-0.051l-0.041,-0.006l-0.104,-0.063l-0.119,-0.002l-0.037,0.022h-0.033l-0.053,-0.014l-0.064,0.066v0.018l0.05,0.021l0.078,0.09l0.003,0.061l0.018,0.039l-0.002,0.109l-0.037,0.063l0.01,0.259l0.027,0.05l-0.003,0.034l-0.052,0.014l-0.013,0.05l0.018,0.026l0.097,0.029l-0.008,0.52l0.091,0.13l0.112,0.339l-0.001,0.02l-0.085,0.065l-0.055,0.001l-0.031,0.024l-0.052,0.066l-0.011,0.063l0.011,0.119l0.047,0.106l-0.005,0.037l-0.034,0.023l-0.06,0.117l-0.011,0.042l-0.034,0.047l-0.005,0.045l-0.044,0.058l-0.003,0.037l-0.044,0.077l-0.032,0.013l-0.015,0.032l0.045,0.067l0.004,0.042l0.037,0.034l0.002,0.059l0.029,0.04v0.079l0.032,0.033l0.005,0.08l0.038,0.021l-0.002,0.016l-0.02,0.012l0.02,0.075l0.035,0.05l-0.004,0.036l-0.026,0.035l-0.039,0.016l-0.023,0.075l-0.065,0.883l0.008,0.337l0.011,0.015l0.023,0.007l0.027,0.048l0.004,0.068l0.046,0.051l0.041,0.004l0.018,0.01l0.012,0.025l0.042,0.025l0.075,0.124l-0.003,0.032l-0.017,0.022l0.004,0.026l0.032,0.055l-0.006,0.021l-0.083,0.07l0.003,0.013l0.069,0.035l0.056,0.063v0.02l-0.01,0.031l0.001,0.043l-0.019,0.036l0.005,0.041l-0.011,0.036l-0.031,0.039l-0.1,0.048l0.004,0.024l-0.011,0.012l-0.027,0.006l-0.059,0.062l-0.02,0.054l-0.022,0.026l-0.048,0.035l-0.003,0.039l-0.014,0.015l-0.076,0.022l-0.013,0.017l-0.002,0.029l-0.022,0.023l-0.008,0.072l0.04,0.127l-0.006,0.059l-0.024,0.029l-0.004,0.059l-0.023,0.048l-0.024,0.017l-0.018,0.035l-0.008,0.027l-0.026,0.05l0.004,0.051l0.037,0.029l-0.002,0.019l-0.045,0.079l-0.024,0.012l-0.033,0.108l-0.016,0.015l-0.004,0.048l0.017,0.016l-0.002,0.023l-0.022,0.059v0.037l0.013,0.044l-0.001,0.027l-0.028,0.045l0.01,0.021l0.032,0.003l0.009,0.013l-0.001,0.021l0.017,0.012l0.033,0.004l0.018,0.023l0.008,0.062l0.064,0.054l0.031,0.002l0.01,-0.016l0.024,0.002l0.025,0.022h0.028l0.012,-0.009l0.017,0.004l0.031,0.031l0.017,0.056l0.033,0.04l0.089,0.044l0.014,0.029l-0.013,0.062l0.002,0.018l0.042,0.029l0.054,0.056l0.018,0.008l0.001,0.014h-7.637v12.036l0.01,0.008v0.016l-0.025,0.013l0.002,0.012l0.053,0.01l0.054,0.033l0.001,0.037l0.013,0.013l0.037,0.004l0.052,0.068l0.004,0.023l0.014,0.006l0.038,-0.013l0.023,0.005l0.006,0.019l-0.03,0.042l0.003,0.012l0.021,0.001l0.002,0.012l-0.026,0.026l0.002,0.015l0.028,0.012l0.03,0.038l0.031,0.007l0.012,0.016v0.024l-0.015,0.01l0.004,0.021l0.033,0.028l0.022,0.006l0.009,0.009l0.005,0.032l0.021,0.018l0.004,0.052l0.017,0.034l-0.001,0.017l-0.03,0.027l0.002,0.011l0.032,0.007l0.007,0.059l0.021,0.022l-0.001,0.056l-0.014,0.02v0.014l0.027,0.015l-0.003,0.017l-0.041,0.01v0.016l0.04,0.035l0.008,0.024l-0.003,0.029l0.01,0.01h0.019l0.001,0.011l-0.027,0.029l-0.022,0.01l-0.038,0.004l-0.004,0.012l0.009,0.009l0.022,0.002l0.015,-0.009l0.022,-0.001l0.01,0.009l0.012,0.001l0.004,-0.011l0.013,0.004l0.039,0.055l0.024,0.005v0.016l-0.028,0.03l0.005,0.009l0.045,0.001l0.027,0.041l0.007,0.039l0.017,0.016l0.055,0.005l0.056,0.046v0.04l0.01,0.01l0.117,0.006l0.041,0.038l0.01,0.068l0.05,0.047l-0.001,0.016l-0.01,0.012l0.011,0.009l0.036,-0.011l0.034,0.002l0.075,0.06l0.053,0.082l-0.016,0.028l0.007,0.01l0.052,0.008l0.042,0.036v0.026l-0.021,0.034l0.005,0.008l0.076,-0.002l0.175,0.171l0.193,0.23l0.094,0.052l-0.013,0.074l0.107,0.091l0.135,0.076l0.159,0.152l0.094,0.118l-0.002,0.015l-0.018,0.006v0.017l0.08,0.038l0.01,0.027l0.182,0.185l-0.027,0.016l0.111,0.051l0.03,0.039l-0.022,0.023l0.016,0.018l0.06,0.002l-0.035,0.045l0.229,0.163l0.053,0.124l-0.026,0.006l0.016,0.049l0.223,0.106l0.12,0.029l0.06,0.085l0.307,0.192l0.008,0.049l0.045,-0.002l-0.037,0.046l0.016,0.017l0.076,0.04l0.059,0.07l0.019,0.063l0.057,-0.033l0.031,0.165l0.077,0.127l0.127,0.047l0.006,0.069l0.062,0.034l0.01,0.027l-0.021,0.026l0.144,0.033l0.057,0.047l-0.002,0.026l0.045,0.037l0.016,0.045l0.051,0.033l0.002,0.034l0.074,0.051l0.172,-0.018l-0.015,0.028l0.211,0.015l0.031,0.05l0.057,0.031l0.057,-0.004l0.062,0.02l0.012,0.021l-0.006,0.032l0.016,0.013l0.027,-0.009l0.028,0.019l-0.004,0.024l0.035,0.037l-0.002,0.045l0.023,0.056l3.068,-0.615l0.014,0.001l0.041,0.048l0.029,0.001l0.033,-0.02l0.072,0.002l0.078,0.02l0.059,-0.001l0.18,-0.076l0.029,-0.001l0.215,0.039l0.038,0.002l0.208,0.131h0.029l0.047,-0.025l0.031,0.001l0.02,0.023l0.014,0.065l0.022,0.022l0.04,0.003l0.048,-0.017l0.104,-0.002l0.029,-0.019l0.014,-0.046l0.022,-0.01l0.048,-0.003l0.005,-0.01l-0.017,-0.029l0.01,-0.021l0.051,-0.008l0.057,0.002l0.058,0.019h0.052l0.035,-0.013l0.055,0.003l0.124,0.068l0.033,0.001l0.034,-0.027l0.032,0.004l0.038,0.091l0.035,0.01l0.083,-0.051l0.051,-0.004l0.06,0.028l0.042,0.001l0.034,-0.015l0.029,0.006l0.094,0.099l0.034,0.003l0.094,-0.027l0.017,0.006v0.016l-0.013,0.022l0.002,0.025l0.02,0.009l0.042,-0.006l0.058,-0.045l0.024,0.002l0.027,0.034l0.023,0.091l0.036,0.031l0.048,0.001l0.03,-0.024v-0.021l0.012,-0.004l0.019,0.011l0.043,0.011l0.019,0.036l-0.004,0.037l-0.021,0.039l0.002,0.037l0.013,0.009l0.022,-0.004l0.015,-0.054l0.021,-0.004l0.012,0.015l0.006,0.049l0.053,0.036l0.011,0.03l0.006,0.046l0.037,0.012l0.027,0.002l0.009,0.015l0.002,0.053l-0.047,0.076l0.003,0.021l0.029,0.004l0.069,-0.059l0.039,-0.001l0.012,0.017l-0.003,0.046l0.012,0.002l0.021,-0.023l0.027,0.003l0.041,0.056l-0.001,0.035l-0.017,0.032l0.002,0.021l0.036,0.005l0.077,0.084l0.037,0.014l0.096,-0.005l0.044,0.015l0.106,0.069z"/>
</svg>
