<svg xmlns="http://www.w3.org/2000/svg" viewBox="722.799 481.477 43.562 36.810">
  <path d="M743.495,515.588l-0.077-0.022l-0.003-0.025l0.027-0.026l0.005-0.041l0.025-0.02l0.024,0.009l0.022-0.004l0.047-0.039l0.052-0.003l0.078,0.033l0.005,0.022l-0.029,0.037l-0.037,0.024l-0.064,0.003l-0.018,0.018l0.001,0.029l-0.014,0.013L743.495,515.588z M743.419,515.787l0.02-0.016l0.001-0.037l-0.071-0.06l-0.068-0.01l-0.056,0.013l-0.008,0.016l0.014,0.009l0.029-0.012l0.041,0.003l0.03,0.021l0.004,0.046l0.03,0.023L743.419,515.787z M742.981,515.853l0.03,0.008l0.001-0.012l-0.022-0.017l0.001-0.013l0.022-0.005l-0.001-0.014l-0.033-0.004l-0.029,0.013l-0.008,0.018L742.981,515.853z M743.007,515.746l0.035-0.005l0.013-0.017l-0.007-0.008l-0.042,0.007l-0.009,0.013L743.007,515.746z M743.066,515.878l0.012,0.023l0.013,0.001l0.003-0.022l-0.016-0.026l-0.021-0.008l-0.008,0.013L743.066,515.878z M743.739,515.342l0.001-0.036l-0.008-0.021l-0.008,0.003l-0.005,0.033l0.004,0.032l0.008,0.001L743.739,515.342z M743.692,514.678l0.026,0.001l0.01-0.015l-0.009-0.011l-0.025-0.001l-0.016,0.015L743.692,514.678z M744.569,513.752l0.02,0.019l0.031,0.003l0.04-0.011l0.002-0.011l-0.055-0.004l-0.025-0.015l-0.013,0.004V513.752z M744.721,513.498l0.037-0.003l0.031-0.033l-0.003-0.015l-0.024,0.001l-0.04,0.013l-0.013,0.03L744.721,513.498z M747.189,512.417l0.02-0.001l0.01-0.01l-0.007-0.009l-0.026,0.006l-0.005,0.008L747.189,512.417z M747.614,512.374l0.009,0.009l0.026-0.003l0.026-0.035l0.008-0.043l-0.007-0.005l-0.022,0.037l-0.027,0.011L747.614,512.374z M746.831,512.597l0.008,0.005l0.024-0.008l0.006-0.007l-0.006-0.005l-0.027,0.007L746.831,512.597z M747.395,512.354l-0.047-0.005l-0.002,0.007l0.02,0.013l0.021,0.002l0.011-0.007L747.395,512.354z M747.169,512.43l-0.001,0.007l0.019,0.006l0.016-0.004l0.001-0.008l-0.016-0.003L747.169,512.43z M756.67,483.28l0.009-0.009l-0.018-0.031l-0.026-0.003l-0.017,0.013l0.007,0.009l0.021,0.001L756.67,483.28z M756.773,483.103l0.003-0.021l-0.01-0.024l-0.009,0.004l-0.001,0.03l0.007,0.02L756.773,483.103z M747.555,485.59l-0.004,0.016l0.014,0.014l0.049-0.01l0.106-0.076l-0.014-0.008l-0.069,0.018L747.555,485.59z M746.937,485.296l0.035-0.09l-0.006-0.047l-0.033-0.029l-0.014-0.037l0.008-0.047l-0.018-0.012l-0.151,0.012l-0.065,0.031l-0.041,0.002l-0.035-0.008l-0.023,0.008l-0.006,0.027l0.037,0.051l0.059,0.025l0.08,0.059l0.018,0.033l0.057,0.033l0.08,0.031l0.022-0.01L746.937,485.296z M754.131,508.941l-0.04-0.031l-0.021-0.04l0.002-0.051l-0.069-0.062l-0.036-0.009l-0.058-0.074l0.001-0.036l0.075-0.114l0.021-0.078l0.04-0.034l0.004-0.034l-0.021-0.037l-0.049-0.025l-0.02-0.048l0.012-0.194l0.022-0.031l0.002-0.031l-0.02-0.044l-0.002-0.068l-0.011-0.024l-0.053-0.039l-0.016-0.023l-0.012-0.036l-0.129-0.078l-0.043-0.045l-0.012-0.04l-0.073-0.058l-0.021-0.043l-0.004-0.053l-0.02-0.032l-0.047-0.033l-0.002-0.028l0.036-0.074l-0.004-0.035l-0.04-0.053l-0.003-0.047l-0.04-0.063l-0.057-0.043l-0.004-0.041l0.032-0.055l-0.004-0.02l-0.059-0.01l-0.008-0.021l0.006-0.034l-0.014-0.034l0.01-0.029l0.037-0.03l0.018-0.059l-0.002-0.033l-0.021-0.035l-0.002-0.035l-0.036-0.032v-0.019l0.023-0.025l0.605-0.149l0.322-0.173l1.213-0.465l1.077-0.254l0.677-0.224l0.589-0.113l0.303-0.107l0.63-0.356l0.515-0.104l0.51-0.267l0.395-0.097l0.248-0.099l0.465-0.149l0.607-0.123l0.125-0.018l0.704-0.309l2.227-0.773l-0.097-0.003l-0.018,0.014h-0.026l-0.043-0.062l-0.019-0.079l-0.043-0.037l-0.051-0.016l-0.034-0.039l-0.027,0.002l-0.037,0.055l-0.028,0.021l-0.063-0.009l-0.041,0.004l-0.07,0.053l-0.061,0.058l-0.008,0.03l-0.006,0.106l-0.061,0.058l-0.027,0.051l-0.022,0.002l-0.021-0.056l-0.051-0.048l-0.041-0.017l-0.03-0.061l0.004-0.076l0.031-0.071l-0.005-0.045l-0.106-0.055h-0.055l-0.022,0.022h-0.017l-0.012-0.079l0.025-0.059l-0.002-0.031l-0.021-0.031l-0.008-0.044l-0.031-0.025l-0.04-0.006l-0.049-0.035l-0.037-0.069l0.006-0.031l-0.045-0.073l-0.036-0.012l-0.022-0.026l-0.037-0.006l-0.021-0.02l-0.042-0.003l-0.047-0.043h-0.065l-0.025,0.055l-0.025-0.002l-0.048-0.052l-0.073-0.016l-0.002-0.019l0.037-0.06l0.003-0.036l0.013-0.01l0.035,0.008l0.021-0.011l0.033-0.065l0.037-0.014l0.068,0.003l0.032-0.013l0.001-0.017l-0.068-0.088l-0.061-0.046l-0.057-0.013l-0.003-0.025l0.03-0.038l-0.007-0.02l-0.136-0.081l-0.03,0.005l-0.02,0.044l-0.041,0.002l-0.037-0.015l-0.04-0.004l-0.02-0.02l-0.055-0.009l-0.047-0.051l-0.044-0.005l-0.008-0.019l0.03-0.052l0.025-0.006l0.001-0.019l-0.028-0.026l0.002-0.014l0.034-0.007l0.014-0.018l-0.016-0.028l0.008-0.015l0.041,0.002l0.083,0.051l0.037,0.003l0.048-0.004l0.049-0.044l0.004-0.032l0.025-0.022l0.044,0.005l0.055-0.027l0.036-0.028l0.053-0.006l0.031-0.021l0.033-0.048l0.038-0.02l0.005-0.018l-0.031-0.038v-0.02l0.02-0.02l0.003-0.024l-0.014-0.04l0.014-0.041l0.03-0.011l0.033,0.016l0.06-0.007l0.071-0.076l0.015-0.048l0.019-0.023l0.041-0.028l0.04-0.167l-0.003-0.049l0.02-0.048l-0.006-0.085l0.011-0.03l0.029-0.017l0.006-0.017l-0.022-0.027l0.003-0.025l0.02-0.026l0.007-0.041l0.027-0.026l0.059-0.017l0.038-0.075l0.003-0.032l0.018-0.017l0.098-0.033l0.021-0.022l0.001-0.017l-0.043-0.045l-0.013-0.065l-0.072-0.069l-0.004-0.025l0.012-0.018v-0.02l-0.026-0.027l-0.003-0.093l0.016-0.039l-0.001-0.067l0.036-0.046l0.025-0.073l-0.001-0.024l-0.043-0.043v-0.022l0.031-0.017l0.011-0.018l0.002-0.045l0.06-0.058l-0.005-0.023l-0.016-0.017l0.004-0.022l0.024-0.038l0.013-0.128l0.029-0.038l0.002-0.036l-0.021-0.025l0.003-0.032l-0.022-0.017l-0.16-0.038l-0.094-0.113l0.001-0.026l0.025-0.063v-0.024l-0.025-0.039l-0.002-0.084l-0.034-0.037l0.002-0.024l0.139-0.139l0.063-0.027l0.017-0.022l0.008-0.03l0.037-0.047l0.025-0.161l0.013-0.012l0.029-0.004l0.065-0.107l0.061-0.052l0.032-0.011l0.028-0.034l0.023-0.009l0.019,0.004l0.028,0.044l0.045,0.028h0.029l0.056-0.047l0.085-0.016l0.035,0.005l0.063,0.049l-0.002,0.023l-0.018,0.06l0.004,0.016l0.016,0.005l0.04-0.028l0.038-0.088l0.071-0.048l0.046-0.007l0.015-0.016l0.008-0.027l0.084-0.081l0.012-0.025l-0.002-0.039l0.032-0.018l0.066-0.004l0.077-0.04l0.027-0.002l0.04,0.026l0.007,0.033l0.018,0.011l0.042,0.004l0.057,0.043l0.028-0.002l0.116-0.122l0.031-0.01l0.013-0.029v-0.017l-0.02-0.018l0.007-0.015l0.038-0.009l0.059-0.06l-0.005-0.017l0.014-0.01l0.085,0.022l0.011-0.02l-0.002-0.036l0.017-0.023l0.033-0.015l0.008-0.021l-0.038-0.084l0.016-0.043l0.041-0.007l0.031-0.019l0.028-0.001l0.019-0.016l0.023-0.05l0.021-0.014l0.034-0.008l0.075-0.05l0.007-0.036l-0.027-0.033l-0.008-0.043l-0.017-0.022l-0.023,0.001l-0.041,0.018h-0.025l-0.021-0.017l-0.057-0.005l-0.054-0.042l-0.063,0.003l-0.117,0.059l-0.054,0.004l-0.074-0.004l-0.06,0.018l-0.02-0.003l-0.029-0.112l-0.106-0.12l-0.013-0.083l-0.022-0.006l-0.036-0.06v-0.079l0.024-0.025l-0.002-0.024l-0.036-0.08v-0.032l0.018-0.025l-0.002-0.016l-0.061-0.006l-0.027,0.018l-0.03-0.004l-0.088-0.108v-0.033l0.065-0.169l-0.004-0.057l0.01-0.031l0.047-0.045l0.016-0.078l0.06-0.091l0.006-0.053l-0.016-0.025v-0.024l0.03-0.039v-0.072l0.037-0.091v-0.082l-0.021-0.053l-0.044-0.047l0.002-0.055l0.085-0.112l0.017-0.078l-0.004-0.059l-0.039-0.035l-0.002-0.03l0.016-0.041l-0.002-0.025l-0.031-0.041l-0.016-0.083l0.008-0.129l-0.012-0.045l0.004-0.045l0.023-0.087l0.002-0.039l-0.021-0.108l-0.018-0.023l-0.031-0.002l-0.028-0.016l-0.013-0.041l-0.034-0.006l-0.017,0.02h-0.018l-0.018-0.016h-0.021l-0.069,0.041h-0.029l-0.028-0.033l0.002-0.045l0.022-0.049l0.061-0.065l0.017-0.047l-0.064-0.129l0.002-0.018l0.015-0.01v-0.014l-0.023-0.004v-0.021l0.035-0.041l-0.002-0.03l-0.037-0.037l-0.014-0.059l0.008-0.037l0.021-0.018l0.03,0.002l0.021,0.032l0.049,0.019l0.049,0.045l0.051,0.004l0.02-0.017l-0.02-0.038l-0.011-0.188l0.008-0.021h0.021l0.01,0.013h0.025l0.032-0.019v-0.032l-0.026-0.058l0.006-0.034l0.016-0.016l0.031-0.003l0.022-0.049l0.035-0.028l0.029-0.07l0.008-0.048l0.022-0.031l0.012-0.051l0.07-0.049l0.016-0.027l0.008-0.049l0.029-0.034l0.008-0.025l-0.01-0.03l0.008-0.033l0.051-0.092l-0.006-0.03l-0.039-0.033l-0.037-0.01l-0.02-0.019l-0.01-0.061l-0.029-0.063l-0.135-0.11l-0.012-0.037l-0.002-0.049l-0.026-0.018l-0.013-0.033l-0.002-0.043l-0.038-0.08l-0.031-0.024v-0.027l-0.029-0.02l0.011-0.012l0.042,0.012l0.017-0.016l0.01-0.06l-0.008-0.077l-0.027-0.023l-0.036-0.059l-0.037-0.039l-0.006-0.03l-0.017-0.006l-0.022,0.016l-0.041-0.002l-0.016,0.018l-0.017-0.002l-0.016-0.038l0.01-0.035l0.066-0.084h0.061l0.018,0.01l-0.008,0.027l0.012,0.012l0.037-0.032l0.041-0.005l0.035-0.065l0.024-0.016l0.002-0.047l0.023-0.041h0.028l0.023,0.018l0.073-0.006l0.09-0.069l0.034,0.002l0.037,0.02l0.125,0.029l0.039-0.004l0.042-0.031l0.009-0.039l0.04-0.036l0.051-0.006l0.027-0.015l0.022-0.036l0.043-0.013l0.055-0.044l0.015-0.041l-0.019-0.025l0.01-0.032l0.031,0.006l0.035-0.019l0.034-0.069l0.094-0.118l0.035-0.076l0.039-0.012l0.028,0.022l0.023-0.006l0.081-0.088l0.033-0.057l0.051-0.01l0.033-0.033l0.036-0.01l0.005-0.035l0.018-0.02h0.024l0.035-0.037l0.012-0.049l-0.01-0.014l-0.039,0.006l-0.036,0.029h-0.023l-0.01-0.027l0.016-0.037v-0.024l-0.032-0.014l-0.004-0.025l0.014-0.039l-0.014-0.008l-0.027,0.01l-0.024-0.02l-0.033-0.018l-0.021-0.053l-0.066-0.025l-0.003-0.024l0.037-0.015l0.02-0.047l-0.015-0.053l-0.047-0.028l-0.058-0.008l-0.055-0.037l-0.029-0.002l-0.022-0.021l-0.004-0.049l-0.029-0.059l0.002-0.077l-0.049-0.041v-0.027l0.025-0.053l-0.002-0.03l-0.053-0.013l-0.005-0.022l0.009-0.026v-0.029l-0.023-0.037v-0.024l0.033-0.033l0.016-0.108l0.037-0.049l0.006-0.043l-0.012-0.022l-0.031-0.005l-0.016,0.015l-0.019-0.002l-0.022-0.076l-0.031-0.018h-0.028l-0.031-0.029l0.002-0.045l-0.03-0.026l-0.055-0.021l-0.088-0.012l-0.051-0.034l-0.037-0.007l-0.018-0.016l-0.007-0.053l-0.083-0.061l-0.031-0.049l-0.067-0.047l-0.049-0.002l-0.029,0.016h-0.034l-0.017,0.025l-0.016-0.002v-0.064l-0.031-0.042l-0.047-0.023l-0.006-0.031l-0.043-0.032l0.002-0.017l0.025-0.01l0.029-0.051v-0.086l0.01-0.03l0.034-0.035l0.045-0.094l0.006-0.045l-0.004-0.067l0.027-0.057l0.067-0.031l0.004-0.028l-0.038-0.066l0.006-0.079l-0.055-0.117l-0.035-0.03l-0.121-0.025l-0.042-0.026l-0.033-0.076l-0.004-0.065l-0.031-0.026l-0.126-0.045l-0.037-0.033l-0.033-0.008l-0.01-0.025l0.023-0.024l-0.002-0.023l-0.019-0.036l-0.008-0.07l-0.041-0.049l0.004-0.032l0.015-0.023l0.024-0.006l0.014-0.033l-0.043-0.071l-0.002-0.031l0.013-0.018v-0.022l-0.106-0.078l-0.074-0.002l-0.053,0.059h-0.018l-0.015-0.028l-0.049-0.007l-0.042-0.036l-0.021-0.002l-0.035,0.089l0.002,0.023l0.031,0.029v0.02l-0.028,0.002l-0.009,0.018l0.013,0.043l-0.007,0.031l-0.032,0.024l-0.004,0.027l-0.023,0.006l-0.041-0.018v-0.023l0.011-0.028l-0.07-0.076l-0.006-0.037l-0.037-0.022h-0.034l-0.029,0.059h-0.024l-0.039-0.029l-0.004-0.049l-0.035-0.042l-0.018-0.092l-0.029-0.043l0.019-0.053l0.042-0.031l0.058-0.096l-0.002-0.077l-0.045-0.031l-0.037-0.004l-0.037,0.012h-0.022l-0.043-0.049l-0.057-0.002l-0.033,0.029h-0.022l-0.015-0.023v-0.03l0.017-0.023l-0.002-0.022l-0.021-0.029l-0.004-0.036l0.014-0.033l-0.002-0.027l-0.016-0.026l0.002-0.029l0.055-0.057l-0.097-0.001l-0.025-0.013l-0.038-0.058h-0.017l-0.02,0.026l-0.029-0.003l-0.014-0.066l-0.02-0.004l-0.07,0.034l-0.035-0.003l-0.177-0.108l-0.007-0.043l-0.044-0.044l-0.104-0.006l-0.027-0.016l-0.018-0.082l-0.028-0.041l-0.128-0.028l-0.269-0.015l-0.125-0.059l-0.118-0.023l-0.114,0.027l-0.231-0.306l0.02-0.086l-0.106-0.07l-0.051-0.012l-0.047-0.032l-0.353,0.036l-0.318,0.008l-0.235-0.134l-0.067-0.11l-0.055-0.031l-0.078,0.024l-0.251-0.055l-0.204,0.047l-0.004,0.035l-0.09,0.012l-0.087-0.063l-0.094-0.123l-0.01-0.083l-0.032-0.066l0.003-0.031l0.055-0.132l-0.003-0.029l-0.358-0.157l-0.23-0.034l-0.026,0.018l-0.081,0.011l-0.026,0.037l-0.06,0.06h-0.029l-0.037-0.016h-0.026l-0.026,0.016l-0.024-0.003l-0.026-0.018l-0.06-0.013l-0.015-0.042l-0.032-0.026l-0.034-0.058l-0.083-0.021l-0.087-0.052l-0.055-0.058l-0.049-0.015l-0.021-0.037l-0.005-0.031l-0.032-0.021l0.003-0.034l0.023-0.037l-0.023-0.091l-0.002-0.063l0.038-0.078l-0.002-0.036l-0.026-0.045l-0.01-0.059l-0.035-0.017l-0.025-0.038l-0.045-0.015l-0.026-0.022l-0.098-0.002l-0.027,0.016l-0.051-0.02l-0.042-0.074l-0.051-0.059l-0.035-0.014h-0.149l-0.063-0.035l-0.021-0.059l-0.045-0.047l-0.008-0.037l-0.016-0.006l-0.035,0.014l-0.012,0.019l0.018,0.028l-0.01,0.013h-0.025l-0.016,0.022l-0.028,0.002l-0.039-0.012l-0.016,0.016l-0.013-0.004v-0.025l-0.041-0.008l-0.075,0.086l-0.063,0.006l-0.053-0.026l-0.023-0.096l-0.028-0.023l-0.023-0.004l-0.01,0.021l-0.022-0.002l-0.049-0.043l-0.045-0.006l-0.037,0.047l-0.027-0.011l-0.024,0.006l-0.006,0.029l0.029,0.005l0.035,0.054v0.097l-0.011,0.029l-0.01,0.115l0.024,0.051v0.022l-0.018,0.045l-0.003,0.032l0.008,0.036l-0.013,0.074l-0.058,0.038l-0.015-0.006l0.003-0.049l-0.014-0.012l-0.025-0.006l-0.06-0.09l-0.025-0.008l-0.015,0.019l0.001,0.091l-0.014,0.007l-0.028-0.007l-0.023,0.005l-0.055,0.063l-0.013,0.028l-0.045,0.036l-0.033,0.007l-0.074,0.068l-0.068,0.029l-0.041-0.002l-0.045-0.033l-0.038-0.071l-0.092-0.081l-0.089-0.036l-0.018-0.017l-0.012-0.042l-0.049-0.068l-0.034-0.013l-0.023-0.018l-0.005-0.036l-0.021-0.026l-0.034-0.014l-0.069-0.073l-0.039-0.07l-0.082-0.074l-0.029-0.012l-0.024-0.026l-0.002-0.022l-0.023-0.021l-0.077-0.021l-0.031-0.021l-0.046-0.102l-0.031-0.011l-0.094,0.002l-0.04,0.011l-0.047-0.001l-0.041-0.028l-0.004-0.031l0.014-0.049l-0.01-0.024l-0.045-0.004l-0.065,0.028l-0.039-0.004l-0.033-0.034l0.002-0.054l0.047-0.057l-0.004-0.03l-0.033-0.01l-0.077,0.008l-0.063,0.061l0.002,0.026l0.071,0.005l0.002,0.02l-0.03,0.037l-0.035,0.002l-0.076,0.049l-0.036,0.073l-0.049,0.033l-0.221,0.108l-0.035-0.002l-0.016-0.043l0.025-0.045l0.085-0.081l0.033,0.002l0.018-0.019l0.009-0.102l0.024-0.024l-0.006-0.017l-0.067-0.014l-0.09,0.008l-0.031,0.023l-0.086,0.03h-0.046l-0.064-0.034l-0.008-0.041l0.021-0.033l-0.011-0.026l-0.081-0.027l-0.023-0.031v-0.051l0.025-0.022l0.004-0.022l-0.013-0.031l0.052-0.223l0.034-0.055l0.235-0.167l0.08-0.01l0.028-0.033v-0.04h-0.04l-0.058-0.064l-0.032-0.001l-0.031,0.025l-0.052,0.005l-0.03,0.031l-0.03-0.003l-0.08-0.068l-0.075-0.001l-0.028,0.024l-0.03-0.002l-0.042-0.031l-2.688,0.35l-0.051-0.001l-0.039,0.021l-0.051,0.008l-0.026,0.026l-0.001,0.029l0.026,0.018l-0.011,0.022l-0.087,0.058l-0.042-0.003l-0.081-0.068l-0.076-0.012l-0.074-0.058l-1.994,0.284h-0.042l-0.023-0.01h-0.032l-0.021,0.039l-0.005,0.06l-0.133,0.121l0.265,0.141l0.037,0.027l0.026,0.038l0.112,0.078l0.098,0.057l0.119,0.106l0.049,0.082l-0.005,0.049l-0.042,0.073l-0.066,0.272l-0.132,0.351l-0.061,0.049l-0.119,0.284l-0.055,0.163l-0.041,0.061l-0.088,0.047l-0.098,0.033l-0.102,0.008l-0.008,0.024l0.025,0.031l-0.002,0.063l-0.041,0.078l-0.121,0.1l-0.202,0.228l-0.036,0.061l-0.123,0.158l-0.047,0.008l-0.024,0.032l-0.004,0.045l-0.019,0.029l-0.087,0.071l-0.039,0.057l-0.059,0.115l-0.041,0.047l0.004,0.012l0.051-0.002l0.025,0.031l-0.007,0.081l-0.038,0.118l0.004,0.052l0.036,0.032l0.007,0.063l-0.023,0.033h-0.047l-0.077-0.035l-0.039-0.057v-0.041l-0.068-0.042l-0.026,0.012l-0.006,0.053l-0.033,0.03l-0.047-0.016l-0.026-0.045l0.012-0.016l0.039-0.002l0.016-0.027l-0.031-0.032l-0.038-0.004l-0.106,0.045l-0.088,0.02l-0.18,0.096l-0.016-0.008l0.034-0.066l-0.004-0.038l-0.018-0.045l-0.012-0.004l-0.016,0.106l-0.023,0.043l-0.002,0.032l0.012,0.015l0.043,0.002l0.031,0.022l-0.002,0.076l0.018,0.01l0.053-0.013l0.031,0.003l0.032,0.047v0.226l0.015,0.031l0.022,0.014l0.025-0.002l0.063-0.059l0.035,0.002l0.014,0.037l-0.021,0.032l-0.069,0.008l-0.041,0.023l-0.002,0.022l0.039,0.014l0.065,0.047v0.045l-0.016,0.033v0.033l0.043,0.063l0.028,0.079l0.017,0.125l-0.006,0.029l-0.029,0.04l0.002,0.033l0.078,0.09l0.096,0.012l0.032,0.043v0.028l-0.018,0.027l0.002,0.02l0.094,0.068l-0.004,0.03l-0.015,0.017l-0.022,0.002l-0.018-0.017h-0.017l-0.014,0.015l-0.002,0.085l-0.047,0.113l-0.006,0.071l-0.068,0.092l-0.053,0.137l-0.002,0.045l0.021,0.061l-0.004,0.028l-0.029,0.031v0.02l0.067,0.065l0.015,0.031l-0.01,0.092l-0.041,0.033l-0.002,0.028l0.008,0.058l-0.019,0.15v0.154l-0.01,0.014l-0.036-0.008l-0.011,0.014l-0.004,0.047l-0.059,0.047l-0.069,0.106v0.031l0.069,0.059l0.002,0.032l0.045,0.043l0.008,0.057l0.021,0.023l0.034,0.004l0.037,0.029l0.004,0.138l-0.055,0.094l-0.004,0.031l0.02,0.028v0.025l-0.008,0.031l0.008,0.036l0.074,0.088l0.014,0.075l-0.051,0.084l-0.002,0.039l0.029,0.069l-0.004,0.035l-0.037,0.043v0.024l0.061,0.041h0.027l0.026,0.021l0.004,0.049l0.041,0.046v0.037l-0.047,0.098v0.074l0.09,0.059l0.032,0.051l0.009,0.075l-0.023,0.037l-0.083,0.014l-0.015,0.023l0.008,0.092l-0.014,0.024l-0.126-0.02l-0.035,0.002l-0.037,0.03l-0.016,0.153l-0.031,0.052l-0.041,0.022l-0.018,0.031l0.004,0.046l-0.028,0.035l-0.049,0.023l-0.06,0.136l-0.004,0.08l0.013,0.071l-0.029,0.204l-0.039,0.045l-0.057,0.017l-0.016,0.041l0.006,0.175l-0.059,0.129l-0.009,0.094l-0.051,0.061l-0.01,0.043l0.068,0.108l0.016,0.053l-0.01,0.114l-0.057,0.071l-0.002,0.086l0.026,0.059l-0.006,0.041l-0.049,0.061l-0.014,0.066l-0.057,0.045l-0.004,0.038l0.012,0.023l-0.002,0.024l-0.019,0.017v0.04l0.037,0.027l0.002,0.029l-0.02,0.038l-0.004,0.045l-0.021,0.017l-0.079,0.036l-0.009,0.043l0.025,0.057l-0.004,0.031l-0.029,0.045l-0.008,0.063l-0.088,0.088l-0.01,0.041l0.004,0.085l-0.026,0.029l-0.002,0.025l0.01,0.014v0.026l-0.02,0.039v0.178l0.071,0.112l0.073,0.043l0.033,0.071l-0.006,0.033l-0.029,0.037l-0.014,0.04l0.008,0.027l0.047,0.031l0.002,0.034l-0.055,0.068l0.002,0.018l0.045,0.029l0.078,0.132l-0.004,0.033l-0.049,0.049l-0.019,0.073l0.002,0.031l0.061,0.079h0.019l0.035-0.042h0.038l0.055,0.055l0.008,0.036l-0.014,0.094l0.015,0.014l0.053-0.017l0.033,0.008l0.038,0.04l0.059,0.02l0.056,0.008l0.029,0.01l0.018,0.029l0.029,0.001l0.044-0.013l0.08,0.004l0.03,0.032l0.037,0.081l0.032,0.026l0.064,0.025l0.024,0.022l0.012,0.023l0.035,0.02l0.026-0.002l0.029,0.02l0.033,0.041l0.055,0.019h0.033l0.059-0.041l0.051,0.004l0.047,0.051l0.004,0.032l-0.011,0.029l0.005,0.022l0.047,0.033v0.023l-0.007,0.022l0.007,0.037l0.097,0.063l0.035,0.037l0.021,0.047l0.055,0.04l0.108,0.176l0.043,0.031l0.1,0.036l0.051,0.033l0.128,0.129l0.106,0.195l0.053,0.064l0.052,0.043l0.016,0.028l0.006,0.104l0.033,0.076l0.049,0.032l0.008,0.029l-0.015,0.041l0.002,0.028l0.041,0.035l0.119,0.016l0.026-0.006l0.033-0.034l0.045-0.007l0.032,0.011l0.041,0.059h0.017l0.034-0.037l0.147-0.047l0.192,0.01l0.033,0.017l0.049-0.006l0.047-0.058l0.034-0.002l0.129,0.109v0.026l-0.018,0.018v0.023l0.069,0.045l0.11-0.002l0.061-0.031l0.068,0.006l0.096,0.082l0.069,0.028l0.098,0.019l0.069,0.039h0.037l0.067-0.055l0.058-0.015l0.057-0.079v-0.053l-0.019-0.039l-0.026-0.002l-0.053,0.032l-0.033-0.002l-0.033-0.042l-0.106-0.209l-0.004-0.065l0.09-0.251l0.076-0.067l0.098-0.004l0.038-0.023l0.037-0.071l0.047-0.015l0.014-0.016l-0.022-0.02l0.006-0.019l0.055-0.022l0.022,0.004l0.005,0.029l-0.017,0.036l0.012,0.006l0.029-0.022l0.037,0.01l0.041,0.043l0.022,0.049l0.016,0.002l0.013-0.031h0.022l0.029,0.023l0.002,0.026l0.036,0.019l0.119-0.006l0.055-0.039l0.032-0.002l0.052-0.004l0.008-0.012l-0.013-0.023l0.033-0.029l0.029,0.009l0.012-0.009l-0.006-0.05l0.035-0.068l0.097-0.077l0.039-0.004l0.041,0.02h0.043l0.029-0.02h0.016v4.865h-0.078l-0.049-0.043l-0.057,0.004l-0.084,0.069l-0.051,0.021l-0.036-0.002l-0.09-0.029l-0.08-0.092l-0.024-0.002l-0.031,0.037l-0.028,0.008l-0.06-0.028l-0.01-0.037l-0.022-0.023l-0.055-0.038l-0.002-0.055l0.028-0.037l-0.002-0.019l-0.043-0.02l-0.01-0.028l0.018-0.019l0.074,0.006l0.075-0.04l0.023-0.137l-0.033-0.043v-0.027l0.133-0.14l0.002-0.025l-0.018-0.002l-0.023,0.018l-0.016-0.012l0.026-0.088l-0.01-0.006l-0.075,0.033l-0.025,0.03h-0.037l-0.13-0.075l-0.049-0.063l-0.041-0.002l-0.059,0.067l-0.031,0.02l-0.055-0.002l-0.043,0.015l-0.051,0.059l-0.037,0.016l-0.038,0.072l-0.082,0.065l-0.03,0.039l-0.029,0.004l-0.029,0.02l-0.008,0.023l-0.028,0.016l-0.092,0.006l-0.07,0.037l-0.042,0.006l-0.064-0.008l-0.022,0.014l-0.017,0.067l-0.024,0.017l-0.114-0.061l-0.019,0.04l-0.008,0.039l-0.043,0.045l-0.014,0.025l-0.069,0.01l-0.078,0.065l-0.041,0.012l-0.041,0.037l-0.059,0.006l-0.055,0.033l-0.081,0.11h-0.017l-0.02-0.051l0.008-0.041l-0.027-0.067l-0.045-0.029l-0.032-0.061l-0.023-0.008l-0.026,0.006l-0.035-0.018l0.004-0.025h-0.028l-0.025,0.021l-0.071,0.014l-0.302,0.165l-0.021-0.002l-0.065-0.063l-0.008-0.051l0.041-0.039l0.01-0.039l-0.021-0.006l-0.051,0.029l-0.048-0.002l-0.029-0.027l0.012-0.088l-0.01-0.038l-0.041-0.051l-0.014-0.147l-0.072-0.18l-0.024-0.022l-0.002-0.025l0.022-0.026l-0.02-0.113l-0.041-0.075l-0.035-0.043l-0.026-0.002l-0.025,0.028l-0.042,0.002l-0.009-0.032l-0.018-0.012l-0.057,0.014l-0.033-0.035l-0.004-0.063l0.027-0.055l-0.002-0.035l-0.027-0.035l-0.041-0.01l-0.01-0.041l0.055-0.028l0.004-0.023l-0.049-0.028l-0.004-0.151l-0.02-0.106l-0.019-0.017l-0.04-0.01l-0.023-0.02l-0.024-0.061l-0.025-0.039l-0.004-0.043l-0.018-0.01l-0.08,0.01l-0.02-0.014l-0.011-0.041l-0.03-0.023l-0.053-0.1l0.006-0.038l-0.016-0.013l-0.021,0.002l-0.016-0.014l-0.004-0.029l-0.019-0.012l-0.03-0.002l-0.019-0.012l-0.016-0.035l-0.063-0.034l-0.078-0.104l-0.061-0.002l-0.043,0.044l-0.045,0.015l-0.026,0.03l-0.086,0.208l-0.018,0.013l-0.064-0.015l-0.016-0.055l-0.059-0.055l-0.016-0.053l0.022-0.031l-0.004-0.075l-0.088-0.108l-0.018-0.053l-0.016-0.004l-0.011,0.018l-0.032-0.012l-0.057-0.108l-0.072-0.053l-0.039-0.055l0.002-0.037l0.023-0.01l0.012-0.017l-0.004-0.034l0.027-0.029l0.051-0.002l0.018-0.018h0.029l0.038,0.018h0.027l0.016-0.031l0.008-0.1l0.049-0.04v-0.031l-0.04-0.041l-0.004-0.033l-0.113-0.085l-0.031-0.006l-0.022-0.016l-0.025-0.04l-0.041-0.032l-0.044-0.01l-0.033-0.033l-0.004-0.029l0.033-0.048l-0.009-0.043l0.011-0.019l-0.003-0.011l-0.113-0.05l-0.042,0.001l-0.032-0.013l-0.008-0.047l-0.067-0.068l-0.002-0.023l-0.05-0.036l-0.04,0.003l-0.033-0.029l-0.007-0.039l-0.121-0.054l-0.059,0.003l-0.025,0.021l-0.023-0.003l-0.037-0.047l-0.051-0.01l-0.06,0.044l-0.052-0.015l-0.008-0.033l-0.035-0.02l-0.074-0.001l-0.031-0.026v-0.028l0.02-0.022l-0.004-0.014h-0.072l-0.038,0.042l-0.049,0.021l-0.024,0.062l0.038,0.047l-0.011,0.013l-0.042,0.002l-0.035,0.032l-0.02-0.003l-0.048-0.125l-0.041-0.041l-0.018-0.07l-0.049-0.085l-0.068-0.021l-0.031,0.002l-0.028,0.03h-0.028l-0.053-0.032l-0.029-0.001l-0.014,0.013h-0.02l-0.028-0.033l-0.044,0.002l-0.076,0.074l-0.025,0.003l-0.043-0.028l-0.008-0.06l0.05-0.082l-0.009-0.031l-0.05-0.059l0.003-0.033l-0.018-0.014l-0.025-0.009l-0.012-0.033l0.005-0.029l-0.001-0.016l-0.015-0.016l-0.003-0.015l0.015-0.013l-0.001-0.013l-0.191-0.021l-0.145-0.002l-0.098-0.052l-0.007,0.008l0.016,0.026l0.001,0.012l-0.014,0.018v0.037l-0.013,0.029l-0.052,0.036l-0.048,0.005l-0.045,0.024l-0.018,0.055l-0.019,0.014l-0.099-0.039h-0.023l-0.01,0.017l-0.024,0.001l-0.05-0.02h-0.033l-0.028,0.022l-0.028-0.001l-0.033-0.018l-0.033,0.002l-0.03,0.013l-0.024-0.001l-0.043-0.043l-0.045-0.006l-0.008-0.018l0.021-0.029l-0.004-0.023l-0.039-0.032l-0.006-0.021l0.007-0.048l-0.017-0.024l-0.054-0.02l-0.01-0.025l-0.026-0.004l-0.022,0.011l-0.053-0.014l-0.059-0.068l-0.032-0.026l-0.043-0.018l-0.041-0.069l-0.045-0.133l-0.002-0.082l0.014-0.035l-0.01-0.022l-0.046-0.034l-0.006-0.026l0.003-0.029l-0.019-0.033l-0.031-0.006l-0.028,0.011l-0.02-0.005l-0.017-0.036l-0.011-0.158l0.02-0.033l-0.001-0.023l-0.009-0.016l0.002-0.023l0.035-0.06l-0.002-0.052l-0.05-0.069l-0.101-0.062l-0.031-0.044l-0.03-0.018l-0.045-0.006l-0.023-0.014l-0.011-0.046l-0.023-0.018l-0.03-0.003l-0.022-0.012l-0.016-0.034l-0.122-0.063l-0.002-0.027l-0.021-0.015l-0.04-0.007l-0.135-0.091l-0.076-0.027l-0.017,0.002l-0.01,0.017h-0.02l-0.078-0.045l-0.01-0.017l-0.003-0.084l-0.031-0.037l-0.005-0.037l0.015-0.052l0.03-0.03l0.001-0.022l-0.021-0.056v-0.026l0.017-0.024l0.014-0.003l0.005-0.018l-0.034-0.078l-0.001-0.085l-0.021-0.04l-0.003-0.059l-0.05-0.169l-0.012-0.001l-0.023,0.052l-0.024,0.014l-0.037,0.002l-0.027,0.013l-0.038,0.046l-0.026,0.007l-0.092-0.017l-0.028-0.023l-0.025-0.003l-0.119,0.059l-0.026,0.002l-0.089-0.043h-0.027l-0.103,0.074l-0.006,0.02l0.004,0.025l0.043,0.031l-0.001,0.014l-0.027,0.03v0.016l0.021,0.022l0.013,0.051l0.03,0.013l0.009,0.023l-0.008,0.033l0.024,0.06l-0.002,0.021l-0.05,0.054l-0.005,0.044l-0.043,0.021l-0.001,0.015l-0.009,0.007l-0.03-0.01l-0.021,0.012l0.012,0.059l-0.015,0.126v0.031l0.022,0.026l-0.002,0.013l-0.044,0.019l-0.001,0.022l0.037,0.05l-0.002,0.021l-0.029,0.026l-0.043,0.013l-0.007,0.013l-0.001,0.023l-0.054,0.044l-0.012,0.029l-0.004,0.068l-0.02,0.053l-0.035,0.028l-0.025,0.002l-0.011,0.015l-0.001,0.026l-0.012,0.008l-0.074-0.009l-0.008,0.007v0.045l-0.022,0.016l-0.03,0.002l-0.018,0.016l-0.019,0.065l-0.036,0.023h-0.03l-0.049-0.016l-0.022,0.002l-0.029,0.027l-0.089-0.002l-0.03-0.023l-0.054-0.017l-0.092-0.073h-0.026l-0.048,0.027l-0.026,0.038l-0.036,0.01l-0.025,0.039l-0.025,0.009l-0.024,0.046l-0.029,0.016l-0.019-0.001l-0.062-0.05l-0.073-0.012l-0.047-0.002l-0.035,0.008l-0.045-0.002l-0.046-0.022l-0.052-0.05l-0.017-0.001l-0.009,0.011l-0.014-0.001l-0.022-0.019h-0.013l-0.044,0.058l-0.04,0.001l-0.032-0.023l-0.038-0.004l-0.026-0.045l-0.037-0.021l-0.105-0.022l-0.02-0.017l-0.061-0.102l-0.024-0.011l-0.135-0.011l-0.02-0.017h-0.029l-0.014,0.013l0.001,0.018l-0.01,0.007l-0.022-0.007l-0.021,0.005l-0.008,0.024l-0.018,0.013l-0.059,0.003l-0.201,0.105l-0.05,0.013h-0.028l-0.02-0.014l-0.004-0.039l-0.038-0.026l-0.063-0.009h-0.047l-0.031,0.011l-0.021-0.001l-0.031-0.052l-0.013,0.001l-0.01,0.02l-0.018,0.003l-0.049-0.052h-0.037l-0.063,0.06h-0.021l-0.04-0.019l-0.024,0.001l-0.021,0.017l-0.108,0.011l-0.225,0.001l-0.039-0.012h-0.047l-0.025,0.022l-0.121,0.002l-0.084,0.019l-0.022-0.003l-0.006-0.06l0.013-0.018l0.03-0.011l0.011-0.031l-0.005-0.032l-0.035-0.038l-0.028-0.007l-0.033-0.051l-0.024-0.01l-0.018,0.002l-0.023,0.019h-0.036l-0.022,0.013h-0.016l-0.095-0.079l-0.004-0.039l-0.019-0.015l-0.034-0.005l-0.006-0.023l0.014-0.042l-0.001-0.02l-0.012-0.028l0.001-0.037l-0.017-0.011l-0.058-0.006l-0.053,0.013l-0.077,0.075l-0.035,0.003l-0.091-0.026h-0.026l-0.031,0.019h-0.042l-0.086-0.046l-0.034-0.002l-0.057,0.008l-0.041-0.002l-0.037-0.025l-0.014-0.042l-0.118-0.101l-0.009-0.028l-0.001-0.052l-0.039-0.069l-0.021-0.002l-0.032,0.012l-0.164,0.002l-0.037,0.028l-0.004,0.045l-0.025,0.02l-0.091,0.011l-0.016,0.014l-0.052,0.07l-0.02,0.002l-0.041-0.015l-0.024,0.002l-0.02,0.029l-0.016-0.001l-0.057-0.057l-0.001-0.025l0.04-0.068l-0.009-0.135l-0.046-0.077l-0.079-0.065h-0.031l-0.049,0.023l-0.031-0.004l-0.128-0.1l-0.041-0.011l-0.069-0.006l-0.108-0.053l-0.031-0.024v-0.019l0.022-0.018v-0.018l-0.022-0.031v-0.094l-0.023-0.031l-0.067-0.022v-0.026l0.014-0.039l-0.004-0.059l-0.057-0.043l0.002-0.025l0.031-0.018l0.022,0.022h0.021l0.061-0.075l-0.004-0.01l-0.031,0.006l-0.037-0.015l-0.034-0.044l0.002-0.035l0.02-0.037l-0.006-0.082l-0.041-0.028l-0.002-0.023l0.023-0.038l-0.011-0.027l-0.048-0.016l-0.009-0.035l0.011-0.039v-0.034l-0.029-0.062l0.006-0.016l0.086,0.012l0.033-0.036l0.008-0.056l-0.008-0.022l-0.047-0.027l-0.007-0.026l-0.022-0.016l0.006-0.023l0.078-0.026l0.083-0.043l0.002-0.021l-0.071-0.042v-0.027l0.049-0.024l0.01-0.025l0.004-0.075l0.068-0.088l-0.007-0.017l-0.044,0.011l-0.029-0.002l-0.041-0.037l-0.061,0.004l-0.045,0.035l-0.055,0.012l-0.031,0.022l-0.049,0.008l-0.028,0.029l-0.027,0.004l-0.026,0.023l-0.078,0.008l-0.039,0.026l-0.175,0.013l-0.033-0.009l-0.018,0.007v0.02l-0.043,0.002l-0.029,0.012l-0.008,0.019l-0.028,0.006l-0.049-0.01l-0.043,0.002l-0.074,0.03l-0.028-0.002l-0.01-0.024l-0.029-0.006l-0.041,0.012l-0.024-0.004l-0.017-0.027l-0.03-0.002l-0.07,0.025l-0.083,0.002l-0.035,0.026l-0.024,0.006l-0.049-0.008l-0.094,0.006l-0.049,0.045l-0.068,0.004l-0.065-0.028l-0.026,0.006l-0.011,0.028l0.011,0.031l-0.019,0.033l-0.081,0.024l-0.06-0.008l-0.036,0.006l-0.06,0.037h-0.03l-0.031-0.019l-0.135-0.002l-0.065,0.035v0.018l0.035,0.033l-0.006,0.018h-0.057l-0.062-0.008l-0.042,0.015l-0.013,0.03l-0.069,0.035l-0.031,0.051l-0.026,0.022l-0.049,0.102l-0.039,0.025l-0.076,0.014l-0.071,0.039l-0.014,0.022v0.078l-0.023,0.033h-0.049l-0.069-0.033h-0.039l-0.026,0.02l-0.023,0.041l-0.03,0.016h-0.102l-0.037-0.022h-0.027l-0.032,0.014l-0.064-0.004l-0.026,0.015l-0.023-0.017v-0.065l-0.02-0.016l-0.027,0.004l-0.022-0.013l0.002-0.03l-0.022-0.017l-0.037-0.004l-0.063-0.051l-0.094-0.032l-0.025,0.006l-0.01,0.024l-0.039,0.015l-0.096-0.011l-0.045-0.032l-0.069-0.029l-0.02-0.024l0.004-0.021l0.069-0.039l0.131-0.01l0.022-0.014l0.002-0.026l0.019-0.021h0.034l0.019-0.016l0.012-0.07l0.026-0.04l0.053-0.049l0.005-0.058l0.026-0.045l0.023-0.065l-0.011-0.03l0.007-0.017l0.032-0.004l0.012-0.026l-0.006-0.017l-0.041-0.016l-0.008-0.037l0.019-0.053l-0.004-0.034l-0.072-0.07l-0.004-0.033l0.035-0.048l0.014-0.133l-0.02-0.016v-0.029l0.026-0.027l-0.002-0.03l-0.041-0.025l-0.016-0.02l-0.039-0.021l-0.061-0.016l-0.065-0.065l-0.098-0.045l-0.07-0.006l-0.128,0.012l-0.019,0.016l-0.026-0.002l-0.057-0.051l-0.082-0.016l-0.049-0.031l-0.035-0.002l-0.036,0.017l-0.027,0.049l-0.03,0.01l-0.037-0.016l-0.015-0.113l-0.026-0.028v-0.021l0.024-0.028v-0.019l-0.018-0.026l-0.004-0.033l-0.051-0.047l0.002-0.041l0.027-0.046v-0.027l-0.051-0.057h-0.051l-0.041-0.006l-0.104-0.062l-0.119-0.002l-0.037,0.021h-0.034l-0.053-0.014l-0.063,0.065v0.018l0.049,0.021l0.079,0.089l0.003,0.06l0.018,0.04l-0.003,0.107l-0.036,0.063l0.01,0.256l0.026,0.049l-0.002,0.034l-0.053,0.013l-0.013,0.05l0.019,0.026l0.096,0.029l-0.008,0.515l0.092,0.128l0.112,0.336l-0.001,0.02l-0.085,0.064l-0.055,0.001l-0.031,0.024l-0.052,0.065l-0.011,0.063l0.011,0.117l0.047,0.105l-0.006,0.037l-0.034,0.023l-0.06,0.115l-0.01,0.042l-0.034,0.047l-0.005,0.044l-0.045,0.058l-0.002,0.037l-0.045,0.075l-0.031,0.013l-0.016,0.032l0.045,0.066l0.004,0.042l0.037,0.033l0.002,0.059l0.03,0.039v0.078l0.031,0.034l0.006,0.078l0.037,0.022l-0.002,0.015l-0.019,0.012l0.019,0.075l0.036,0.049l-0.004,0.035l-0.026,0.035l-0.039,0.016l-0.024,0.075l-0.064,0.798l0.007,0.337l0.012,0.014l0.023,0.008l0.027,0.048l0.004,0.067l0.046,0.051l0.041,0.004l0.018,0.01l0.012,0.025l0.042,0.025l0.076,0.124l-0.004,0.032l-0.017,0.022l0.004,0.026l0.032,0.055l-0.006,0.021l-0.083,0.069l0.003,0.013l0.069,0.036l0.056,0.062v0.02l-0.01,0.031l0.001,0.043l-0.019,0.036l0.005,0.041l-0.011,0.036l-0.031,0.039l-0.101,0.048l0.004,0.024l-0.01,0.012l-0.028,0.006l-0.058,0.062l-0.02,0.053l-0.022,0.026l-0.049,0.036l-0.002,0.039l-0.015,0.014l-0.075,0.022l-0.013,0.017l-0.003,0.029l-0.022,0.024l-0.008,0.072l0.04,0.126l-0.006,0.059l-0.024,0.029l-0.004,0.059l-0.023,0.048l-0.024,0.017l-0.018,0.034l-0.008,0.028l-0.026,0.049l0.004,0.051l0.037,0.029l-0.002,0.02l-0.046,0.078l-0.023,0.012l-0.033,0.108l-0.017,0.015l-0.004,0.048l0.017,0.016l-0.001,0.023l-0.022,0.059v0.037l0.013,0.044l-0.001,0.026l-0.028,0.046l0.009,0.021l0.033,0.003l0.009,0.013l-0.001,0.021l0.017,0.011l0.032,0.004l0.019,0.024l0.008,0.061l0.064,0.054l0.031,0.002l0.011-0.015l0.023,0.001l0.025,0.022h0.029l0.011-0.009l0.017,0.004l0.032,0.031l0.017,0.057l0.032,0.039l0.089,0.044l0.015,0.029l-0.013,0.062l0.002,0.018l0.042,0.029l0.054,0.056l0.018,0.008l0.001,0.014h-7.653v12.018l0.01,0.008v0.016l-0.025,0.013l0.002,0.012l0.053,0.01l0.054,0.033l0.001,0.036l0.013,0.013l0.037,0.004l0.052,0.068l0.004,0.024l0.014,0.005l0.038-0.013l0.024,0.005l0.005,0.02l-0.03,0.042l0.004,0.011l0.021,0.002l0.001,0.012l-0.026,0.026l0.003,0.014l0.027,0.012l0.03,0.038l0.031,0.008l0.012,0.015v0.024l-0.014,0.01l0.004,0.021l0.032,0.028l0.023,0.006l0.009,0.009l0.005,0.032l0.021,0.018l0.004,0.052l0.017,0.034l-0.001,0.017l-0.03,0.026l0.002,0.012l0.032,0.007l0.007,0.059l0.021,0.022l-0.001,0.056l-0.014,0.02v0.014l0.027,0.014l-0.003,0.017l-0.041,0.011v0.015l0.04,0.036l0.008,0.023l-0.003,0.029l0.009,0.011h0.02l0.001,0.01l-0.027,0.029l-0.022,0.01l-0.038,0.004l-0.004,0.012l0.009,0.009l0.022,0.003l0.015-0.01l0.022-0.001l0.01,0.009l0.012,0.002l0.004-0.012l0.013,0.004l0.039,0.055l0.024,0.005v0.016l-0.028,0.03l0.006,0.009l0.044,0.001l0.028,0.041l0.006,0.039l0.017,0.016l0.055,0.005l0.056,0.046v0.04l0.011,0.009l0.117,0.007l0.041,0.038l0.01,0.068l0.05,0.047l-0.001,0.015l-0.01,0.012l0.011,0.009l0.036-0.01l0.034,0.001l0.075,0.06l0.054,0.083l-0.016,0.027l0.006,0.011l0.053,0.007l0.042,0.036v0.026l-0.021,0.034l0.005,0.008l0.076-0.002l0.175,0.17l0.193,0.23l0.094,0.053l-0.013,0.073l0.108,0.091l0.135,0.076l0.16,0.152l0.094,0.117l-0.003,0.015l-0.017,0.006v0.018l0.08,0.037l0.01,0.028l0.182,0.184l-0.027,0.016l0.112,0.051l0.029,0.039l-0.021,0.023l0.015,0.018l0.061,0.002l-0.035,0.045l0.229,0.163l0.053,0.123l-0.025,0.006l0.015,0.049l0.224,0.106l0.119,0.03l0.061,0.084l0.308,0.192l0.008,0.049l0.045-0.002l-0.037,0.045l0.015,0.018l0.077,0.039l0.059,0.071l0.019,0.062l0.057-0.033l0.032,0.165l0.076,0.127l0.127,0.047l0.006,0.069l0.063,0.033l0.01,0.028l-0.022,0.025l0.145,0.033l0.057,0.048l-0.002,0.025l0.045,0.037l0.016,0.045l0.051,0.034l0.002,0.033l0.075,0.051l0.172-0.018l-0.016,0.028l0.212,0.016l0.032,0.049l0.056,0.031l0.057-0.004l0.063,0.02l0.012,0.021l-0.006,0.032l0.016,0.013l0.027-0.01l0.028,0.02l-0.004,0.024l0.035,0.037l-0.002,0.045l0.023,0.036l3.075-0.618h0.014l0.04,0.049l0.029,0.001l0.034-0.021l0.072,0.002l0.078,0.021l0.059-0.001l0.18-0.077l0.029-0.001l0.216,0.04l0.039,0.002l0.208,0.131h0.029l0.047-0.025l0.031,0.001l0.02,0.023l0.014,0.066l0.022,0.021l0.04,0.004l0.048-0.017l0.104-0.002l0.029-0.02l0.015-0.046l0.022-0.01l0.048-0.002l0.005-0.011l-0.018-0.029l0.011-0.021l0.051-0.008l0.057,0.002l0.058,0.019h0.052l0.035-0.013l0.055,0.003l0.125,0.068l0.032,0.001l0.035-0.027l0.032,0.004l0.037,0.092l0.036,0.009l0.083-0.051l0.051-0.004l0.061,0.028l0.041,0.001l0.035-0.014l0.029,0.006l0.094,0.099l0.034,0.003l0.094-0.027l0.017,0.006v0.016l-0.013,0.022l0.002,0.025l0.02,0.009l0.042-0.006l0.059-0.045l0.024,0.002l0.027,0.034l0.023,0.091l0.035,0.031l0.049,0.001l0.029-0.024v-0.02l0.013-0.005l0.019,0.012l0.043,0.01l0.019,0.037l-0.004,0.037l-0.021,0.039l0.002,0.037l0.013,0.01l0.021-0.005l0.016-0.054l0.021-0.004l0.012,0.015l0.006,0.05l0.053,0.035l0.011,0.03l0.006,0.047l0.037,0.012l0.027,0.002l0.009,0.015l0.002,0.053l-0.046,0.077l0.003,0.02l0.028,0.005l0.07-0.06l0.038-0.001l0.013,0.018l-0.003,0.046l0.012,0.002l0.021-0.023l0.027,0.003l0.041,0.056l-0.001,0.035l-0.017,0.032l0.002,0.021l0.036,0.006l0.077,0.083l0.037,0.015l0.097-0.006l0.043,0.016l0.107,0.069l0.091,0.051l0.103,0.077l0.101,0.044l0.032,0.002l0.042-0.015l0.038,0.005l0.1,0.056l0.034,0.001l0.026-0.013h0.025l0.032,0.016l0.03,0.001l0.054-0.029l0.042,0.003l0.095,0.031l0.051,0.036l0.055,0.005l0.039-0.016l0.053-0.063l0.048-0.023l0.067,0.004l0.032,0.025l0.028,0.002l0.055-0.023l0.103-0.002l0.081-0.037l0.061-0.066l0.046-0.015l0.055,0.02l0.012,0.031l-0.011,0.026l0.004,0.027l0.03,0.025l0.034,0.001l0.02-0.008l0.043,0.002l0.047,0.023l0.041,0.005l0.028-0.005l0.041,0.019l0.061,0.058l0.015,0.05l0.077,0.061l0.09,0.007l0.038,0.033l0.017,0.052l-0.007,0.044l-0.028,0.027l0.001,0.019l0.052,0.024v0.023l-0.015,0.029l0.011,0.03l0.033,0.013l0.137,0.03l0.019,0.019l0.005,0.026l0.031,0.008l0.047-0.014l0.037,0.002l0.022,0.014l0.042,0.007l0.026,0.01h0.034l0.034-0.017l0.013-0.046l0.041-0.03l0.07,0.002l0.029,0.007l0.027-0.002l0.015-0.017h0.022l0.023,0.016l0.113,0.019l0.038-0.016l0.021-0.071l0.036-0.04l-0.002-0.014l-0.049-0.007l-0.017-0.023l0.006-0.024l0.04-0.023l0.041-0.004l0.038-0.021l0.024-0.001l0.013,0.013h0.02l0.005-0.019l0.024-0.002l0.014,0.01l0.021-0.002l0.035-0.037l0.049-0.006l0.068-0.057l0.074-0.031l0.026,0.005l0.012,0.016l0.001,0.034l0.068,0.064l0.029,0.012l0.111-0.002l0.037,0.017l0.035,0.038l0.045,0.009l0.104-0.023l0.049,0.001l0.077,0.025l0.111,0.007l0.027,0.011l0.042,0.037l0.037,0.01l0.031-0.001l0.024,0.013l0.017,0.025l0.024,0.005l0.021-0.004l0.02,0.012l0.031,0.048l0.097,0.042l0.038-0.002l0.057-0.012l0.114,0.004l0.034,0.033l0.008,0.074l0.024,0.025l0.078,0.044l0.003,0.024l-0.016,0.027l0.005,0.017l0.041,0.015l0.121,0.001l0.046,0.013l0.105,0.06l0.027,0.005l0.022-0.014v-0.038l0.025-0.025l0.062-0.031l0.083-0.086l0.041-0.013l0.075-0.002l0.053,0.018l0.042-0.005l0.018-0.035l0.027-0.013l0.049,0.004l0.015-0.011v-0.017l-0.019-0.014l0.001-0.02l0.026-0.022h0.046l0.052,0.017l0.033-0.002l0.025-0.028l0.031-0.004l0.028,0.011l0.03-0.004l0.094-0.047l0.141-0.041l0.037,0.001l0.031,0.017l0.022-0.001l0.047-0.039l0.051-0.02h0.032l0.005-0.009l0.052,0.013l0.027-0.027l0.008-0.03l-0.016-0.025l0.012-0.026l0.039-0.015l0.045-0.071l0.01-0.037l0.023-0.02l0.042-0.004l0.019-0.025l0.002-0.028l0.016-0.025l0.055-0.02v-0.015l-0.03-0.016l0.008-0.02l0.059-0.013l0.031-0.02l0.004-0.022l0.02-0.013l0.029,0.01l0.014-0.008l-0.014-0.047l-0.028-0.011l-0.031,0.005l-0.15,0.098l-0.032-0.002l0.002-0.022l0.034-0.013l0.064-0.085l0.004-0.037l-0.059-0.026l0.004-0.025l0.043-0.006l0.014-0.016v-0.025l0.055-0.069l0.035-0.023v-0.032l-0.021-0.025l0.01-0.032l0.056-0.013l0.014-0.022l-0.01-0.027l0.01-0.016h0.049l0.006-0.014l-0.01-0.023l0.026-0.034l0.004-0.025l0.017-0.02l0.026,0.004l0.014-0.011l0.009-0.034l0.071-0.077l0.08-0.064h0.034l0.013-0.016l-0.037-0.082l0.012-0.006l0.039,0.018h0.051l0.061-0.036l0.016-0.023l0.019-0.004l0.035,0.022l0.024-0.006l0.004-0.02l-0.024-0.029l0.004-0.036l0.057-0.025l-0.006-0.02h-0.037l-0.01-0.019l0.037-0.038l0.022,0.006l0.006,0.02l0.023,0.004l0.024-0.014l0.049,0.004l0.02-0.014l-0.004-0.031l-0.045-0.012l-0.026,0.004l-0.008-0.023l0.024-0.028l0.051-0.006l0.021,0.022l0.03,0.002l0.051-0.016l0.008-0.037l-0.027-0.016l-0.001-0.014l0.016-0.02l-0.003-0.03l-0.014-0.018l0.007-0.022l0.049-0.018l0.045-0.039l0.002-0.058l-0.023-0.014h-0.061l-0.026-0.016l-0.027,0.007l-0.007,0.02l-0.062,0.051l-0.025-0.007l-0.011-0.031l-0.006-0.061l0.013-0.02l0.028-0.005l0.006-0.02l-0.011-0.048l0.011-0.049l0.029-0.038l0.046-0.022l0.042-0.049l0.027-0.007l0.012-0.016l-0.016-0.024l0.012-0.015l0.068-0.004l0.012-0.015l-0.011-0.019l0.016-0.013l0.029,0.011l0.053-0.02l0.084-0.088l0.03-0.077l-0.026-0.013l-0.052,0.016l-0.024-0.016l0.008-0.029l-0.003-0.019l-0.042-0.015l0.007-0.024l0.072-0.023l0.038,0.012l0.065-0.006l0.052-0.055l0.024-0.047l0.029-0.036l0.051-0.027l0.036-0.057l-0.014-0.121l0.02-0.048l0.086-0.019l0.025-0.03l0.002-0.021l-0.025-0.014l-0.047,0.02l-0.014-0.014l0.031-0.051l0.036-0.02l0.023-0.033l0.008-0.039l0.024-0.026l0.053-0.015l0.127-0.118l0.084-0.106l0.024-0.004l0.033,0.02l0.006,0.041l0.02,0.014l0.023-0.002l0.01,0.017l-0.025,0.047l0.009,0.028l0.03,0.008l0.068-0.055l0.069-0.008l0.035-0.025l-0.002-0.028l-0.049-0.047l-0.057-0.008l-0.064-0.023l-0.032-0.041l0.014-0.014l0.045-0.008l0.041-0.029l0.045-0.014l0.057-0.045l0.014-0.036l0.01-0.084l-0.03-0.039l-0.033-0.002l-0.035,0.029l-0.069,0.028l-0.012-0.018l0.073-0.09l0.039-0.022l0.018-0.019l-0.004-0.026l0.014-0.008l0.027,0.014l0.033-0.012l0.01-0.023l-0.013-0.016l0.011-0.019l0.063-0.004l0.006,0.017l-0.028,0.03l-0.019,0.059l0.016,0.013l0.064-0.006l0.065-0.047l0.018-0.064l0.017-0.02l0.014,0.006l-0.004,0.031l0.02,0.016l0.055-0.012l0.049-0.045l0.07-0.039l-0.002-0.02l-0.059-0.012l-0.043,0.01l-0.043-0.017l-0.096-0.081l0.016-0.017l0.062-0.004l0.008-0.016l-0.017-0.027l0.007-0.02l0.024-0.012l0.006-0.039l-0.037-0.049v-0.033l0.015-0.002l0.034,0.039l0.011,0.029l0.081,0.051l0.055,0.002l0.055-0.017l0.037,0.013l0.019-0.013l-0.005-0.044l0.035-0.039v-0.045l0.016-0.026l0.025-0.001l0.018-0.028l0.016,0.003l0.008,0.026l0.017,0.004l0.042-0.042l0.014,0.001v0.037l-0.048,0.068l0.006,0.017l0.038-0.001l0.056-0.027l0.074-0.005l0.049,0.019l0.003,0.027l-0.02,0.038l-0.038,0.023l0.004,0.025l0.041,0.037l0.044,0.014l0.047-0.019l0.023,0.004l-0.002,0.017l-0.032,0.011l0.001,0.025l0.019,0.022l0.044-0.005l0.119-0.065l0.049-0.008l0.045-0.025l0.017-0.038l0.064-0.029l0.001-0.019l-0.043-0.025l-0.047,0.007l-0.088-0.017l-0.008-0.015l0.027-0.029l-0.021-0.028l-0.079-0.012l-0.006-0.02l0.015-0.019l0.062-0.015l0.017,0.009l0.004,0.023l0.022,0.011l0.061-0.019l0.047-0.038l-0.007-0.017l-0.036-0.001l-0.017-0.017l0.017-0.029l0.131-0.068l0.077-0.016l0.054-0.027l0.028-0.047l0.024-0.017l0.068-0.011l0.11-0.047l-0.002-0.018l-0.036-0.016l-0.042,0.005l-0.039,0.038l-0.03,0.003l-0.036,0.016l-0.065,0.008l-0.016-0.012l0.021-0.024l0.04-0.008l0.026,0.004l0.026-0.012l0.002-0.019l-0.011-0.02l0.006-0.018l0.041-0.022l0.004-0.022l-0.046-0.029l-0.018-0.041l0.009-0.048l0.019-0.003l0.024,0.019l0.074,0.004l0.05-0.01l0.018,0.011l-0.013,0.017l0.012,0.009h0.038l0.022,0.013l0.007,0.025l0.038,0.005l0.01-0.021l-0.022-0.043l-0.041-0.012v-0.019l0.046-0.021l0.012-0.043l-0.012-0.057l0.011-0.01l0.054,0.022l0.014,0.026l0.001,0.028l0.018,0.008l0.056-0.03l-0.014-0.034l0.012-0.014l0.095,0.01l0.058,0.038l0.021-0.01l-0.003-0.031l-0.033-0.021l0.007-0.017l0.039-0.001l0.011-0.025l-0.027-0.046l-0.07-0.015l-0.072,0.023l-0.017-0.009l0.004-0.028l0.029-0.019l0.039,0.004l0.032-0.002l0.024-0.015l-0.001-0.015l-0.036-0.006l-0.079,0.01l-0.012-0.019l0.035-0.029l0.115-0.005l0.028,0.015l0.022,0.074l0.025,0.002l0.027-0.026v-0.027l-0.015-0.023l0.009-0.013l0.026-0.015h0.034l0.027,0.017h0.032l0.007,0.011l-0.019,0.05l-0.011,0.076l-0.037,0.051l0.006,0.014l0.046,0.008l0.043-0.012l0.031,0.006l0.028,0.019l0.044,0.003l0.001-0.017l-0.052-0.028l0.001-0.013l0.091-0.009l0.004-0.018l-0.047-0.024l0.007-0.017l0.066-0.021l0.031-0.034v-0.023l0.032-0.02l0.07,0.008l0.067-0.022l0.018-0.026l-0.017-0.011h-0.051l-0.012-0.017l0.03-0.019l0.072,0.004l0.055,0.024l0.035,0.044l-0.007,0.036l-0.043,0.045v0.023l0.02,0.008l0.109-0.073l-0.003-0.019l-0.031-0.011l-0.004-0.036l0.029-0.023h0.046l0.04-0.014l0.025-0.031l0.061-0.01l0.145,0.007l0.041-0.028l0.017-0.037l-0.018-0.02l-0.041-0.002l-0.004-0.017l0.052-0.036l0.085-0.016l0.048,0.017l-0.003,0.018l-0.028,0.015l0.002,0.021l0.064,0.04l0.044,0.001l0.037,0.023l0.012,0.069l-0.012,0.037l-0.045,0.037l0.006,0.017l0.06,0.002l0.062-0.02h0.046l0.019,0.007l0.024-0.002l0.047-0.049l0.019-0.002l0.03-0.039l0.074-0.04l0.073-0.059l0.027-0.045l0.006-0.049l-0.019-0.057l0.004-0.041l0.029-0.059l0.037-0.029l0.02-0.041l0.01-0.081l0.019-0.027v-0.024l-0.027-0.041l-0.006-0.035l0.012-0.033l-0.002-0.036l-0.057-0.035v-0.061l0.014-0.078l0.096-0.133v-0.038l-0.049-0.021l-0.03-0.047l-0.006-0.045l0.022-0.044l0.004-0.052l-0.014-0.057l0.01-0.047l0.076-0.083l0.01-0.064l-0.053-0.257l0.006-0.047l0.088-0.081l0.063-0.121l0.127-0.134l0.091-0.045l0.139-0.004l0.067,0.03l0.047-0.004l0.049-0.057l0.017-0.063l0.102-0.104l0.081-0.025l0.155-0.149l0.282-0.216l0.088-0.049l0.126-0.018l0.088-0.031l0.137-0.086l0.267-0.087l0.092-0.068l0.129-0.018l0.14,0.01l0.092-0.022l0.055-0.037l0.053-0.076l0.062-0.032h0.077l0.051,0.049l0.063,0.016l0.07,0.004l0.19-0.08l0.122-0.016l0.182-0.045l0.094-0.061l0.177-0.006l0.161,0.02l0.045,0.031l0.037,0.004l0.069-0.006l0.08,0.014l0.075,0.061l0.072,0.004l0.257-0.028l0.057-0.027l0.18-0.002l0.069-0.028l0.115-0.006l0.057,0.03l0.042,0.09l0.074,0.055h0.027l0.065-0.043l0.079-0.1l0.029,0.002l0.012,0.025l0.051,0.041l0.137,0.004l0.118,0.026h0.051l0.117-0.049l0.055-0.049l0.045-0.012L754.131,508.941z"/>
</svg>
