<svg xmlns="http://www.w3.org/2000/svg" viewBox="734.908 508.884 29.011 26.239">
  <path d="M741.667,517.813l0.004-0.016l0.016-0.008l0.014,0.009l-0.007,0.018l-0.02,0.008L741.667,517.813z M741.657,517.839l0.003-0.012l-0.008-0.014l-0.012-0.001l-0.004,0.014l0.01,0.014L741.657,517.839z M743.025,516.307l0.015-0.001l0.039-0.042l-0.001-0.015l-0.022-0.005l-0.025,0.022l-0.014,0.032L743.025,516.307z M743.048,516.347l0.018,0.002l0.019-0.021l0.043-0.015l0.008-0.024l-0.02-0.016l-0.022,0.007l-0.052,0.053L743.048,516.347z M743.768,515.304l-0.001,0.029l0.009,0.004l0.01-0.017v-0.018l-0.01-0.007L743.768,515.304z M744.896,514.252h0.02l0.007-0.012l-0.008-0.012l-0.03-0.004l-0.013,0.009L744.896,514.252z M745.529,514.21l-0.026-0.007l-0.047,0.02v0.017l0.033,0.007l0.043-0.013L745.529,514.21z M745.752,513.585l0.055,0.001l0.061-0.02l0.007-0.016l-0.038-0.029l-0.088,0.004l-0.023,0.017v0.02L745.752,513.585z M745.926,513.536l0.09-0.052l0.077-0.017l0.03-0.02l-0.008-0.027l-0.026-0.004l-0.033,0.016l-0.081,0.007l-0.085,0.043l-0.017,0.039l0.016,0.02L745.926,513.536z M745.768,513.498l0.022-0.007v-0.009l-0.035-0.004l-0.018,0.007v0.012L745.768,513.498z M746.429,513.342h0.014l0.016-0.008l-0.004-0.009l-0.017-0.001l-0.013,0.009L746.429,513.342z M746.177,513.423l0.03-0.013l-0.001-0.012l-0.024,0.001l-0.038,0.016l0.007,0.008H746.177z M747.581,512.528l0.021-0.004l0.03-0.012l0.003-0.012l-0.009-0.005l-0.034,0.008l-0.018,0.02L747.581,512.528z M747.582,513.085l0.007-0.017l0.021-0.012l0.001-0.013l-0.027-0.01h-0.017l-0.008,0.018l0.012,0.037L747.582,513.085z M747.676,513.132l0.014-0.001l0.004-0.008l-0.01-0.013l-0.012,0.001l-0.005,0.013L747.676,513.132z M748.425,513.074l0.026,0.005l0.016-0.004l-0.001-0.018l-0.016-0.017l-0.026,0.005l-0.009,0.016L748.425,513.074z M748.399,513.034l0.017-0.009v-0.021l-0.038-0.037l-0.018,0.003l-0.001,0.02l0.018,0.033L748.399,513.034z M748.32,512.6l0.065-0.005l0.043-0.025l-0.003-0.025l-0.016-0.004l-0.033,0.012l-0.075,0.003l-0.027,0.014l-0.005,0.016L748.32,512.6z M748.482,512.553l0.026-0.014l0.005-0.018l-0.025-0.01l-0.022,0.008l-0.008,0.027L748.482,512.553z M750.241,534.261l0.126-0.044l0.079-0.053l0.148-0.024l0.075,0.006l0.102,0.043h0.048l0.023-0.028l0.01-0.049l0.031-0.023l0.052,0.001l0.066-0.037l0.037,0.002l0.074,0.048l0.025-0.001l0.074-0.08l0.076-0.026l0.033,0.004l0.036,0.035l0.035,0.008l0.057-0.009l0.081,0.021h0.169l0.061,0.017l0.117,0.089l0.089,0.019l0.076,0.002l0.047,0.022l0.047,0.041l0.043,0.01l0.096-0.012l0.055,0.018l0.122,0.096l0.059,0.019l0.106,0.006l0.033,0.018l0.023,0.07l0.032,0.018l0.08,0.012l0.047,0.029l0.038,0.045l0.094,0.043l0.072,0.075l0.045,0.008l0.102-0.043l0.19-0.014l0.083,0.014l0.025,0.041l0.057,0.033l0.059,0.102l0.055,0.035l0.035,0.002l0.053-0.023l0.279,0.006l0.125-0.045l0.082-0.008l0.134-0.073l0.057-0.002l0.18,0.047l0.043-0.002l0.051-0.029l0.114-0.006l0.104,0.051h0.031l0.09-0.082l0.047-0.002l0.12,0.021l0.043-0.002l0.055-0.025l0.231-0.03l0.12-0.037l0.084,0.004l0.122,0.039l0.031-0.004l0.041-0.019h0.067l0.057,0.017l0.035,0.038l0.028,0.011l0.059,0.002l0.029,0.014l0.016,0.028l0.031,0.005l0.031-0.011l0.006-0.024l0.03-0.008l0.294,0.118l0.078-0.002l0.183-0.067l0.062,0.002l0.073,0.04l0.035,0.064l0.053,0.041l0.079,0.004l0.052-0.023l0.079,0.017l0.072,0.132l0.083,0.076l0.251-0.156l3.814-4.126l0.03-0.006h0.036l0.03-0.021l0.043-0.004l0.051,0.011l0.011,0.019l0.002,0.028l0.055,0.042l0.033,0.011l0.009-0.01l-0.137-0.207l-0.122-0.141l-0.002-0.025l0.015-0.022l-0.004-0.019l-0.045-0.028l-0.009-0.026l-0.061-0.055l-0.006-0.052l0.026-0.042l0.038-0.004l0.003-0.016l-0.059-0.032l-0.034,0.003l-0.019-0.009l0.003-0.013l0.02-0.005v-0.014l-0.037-0.038l-0.052-0.009l-0.002-0.021l0.046-0.045l0.022-0.001l0.007-0.013l-0.017-0.016l0.007-0.022l0.398-0.476l0.127-0.318l-0.085-0.371l-0.022-0.359l0.021-0.026v-0.017l-0.028-0.036l-0.004-0.074l-0.027-0.02l0.003-0.013l0.024-0.006l0.002-0.016l-0.021-0.021l-0.004-0.026l0.033-0.072l0.018-0.009l0.009-0.015l-0.026-0.015l0.006-0.011l0.021,0.003l0.007-0.011l-0.024-0.023l0.006-0.008l0.023,0.001l0.009-0.01l-0.009-0.017l0.013-0.024l0.048-0.018l0.168-0.151h0.374l0.329-0.517l0.178-0.21l-0.007-0.093l0.254-0.25l-0.027-0.02l-0.002-0.053l0.028-0.041l0.005-0.055l-0.043-0.026l-0.017,0.012l-0.036-0.035l0.006-0.051l-0.004-0.047l0.042-0.02l0.054-0.002l-0.009-0.086l-0.03-0.053l0.026-0.037l-0.032-0.037l0.024-0.026l-0.004-0.053l0.053-0.07l0.041-0.012l0.01,0.065l0.055,0.005l0.055-0.047h0.062l-0.021-0.029l-0.065-0.161l0.033-0.033h0.069l0.016-0.022h0.021l0.022,0.016l0.047-0.002l0.049-0.037l0.051-0.008l0.092,0.029l0.012-0.015l-0.014-0.308l0.083-0.394l0.003-0.157l0.049-0.126l-0.174-0.104l-0.031,0.012l-0.085-0.037l-0.102-0.092v-0.024l0.104-0.074l0.01-0.04l-0.037-0.117l-0.073,0.017l-0.08,0.067l-0.073,0.012l-0.03,0.027l-0.016-0.013l-0.054,0.012l-0.021,0.001l-0.022-0.013l-0.059,0.004l-0.025,0.013l-0.048-0.018l-0.028-0.023l-0.001-0.019l0.026-0.044l0.02-0.012l0.004-0.071l0.025-0.022l0.011-0.046l-0.039-0.038l0.016-0.027l0.031-0.211l-0.031-0.025l-0.037-0.1l0.024-0.078l0.018-0.034l-0.053-0.035l-0.141-0.003l-0.057-0.021l-0.027-0.04l0.002-0.03l0.01-0.034l0.006-0.063l-0.009-0.049l0.047-0.092l-0.019-0.024l-0.003-0.031l-0.034-0.072l0.033-0.011l0.1-0.07l0.038-0.06l0.056-0.036l0.071-0.124l-0.027-0.131l0.006-0.053l0.033-0.027l0.034-0.322l0.057-0.135l-0.042-0.069l0.005-0.037l-0.018-0.013h-0.05l-0.037-0.042l-0.021-0.191l-0.033-0.015l-0.113,0.031l-0.112,0.003l-0.009,0.029h-0.217l-0.034-0.206l-0.041-0.133l0.155-0.036l0.002-0.017l-0.035-0.022l-0.024-0.068l0.002-0.079l-0.022-0.055l-0.06-0.076l0.002-0.026l0.064-0.06h0.034l0.064-0.046l0.024,0.006l0.031-0.004l0.049-0.053l0.073-0.017l0.082-0.053l0.102-0.01l0.126,0.077l0.117-0.018l0.083-0.09l0.025-0.004l0.057-0.216l0.016-0.006l0.023-0.09l-0.178-0.245l-0.026-0.067l0.006-0.068l-0.055-0.03l-0.017-0.031l0.031-0.108l-0.088-0.104l0.066-0.022l0.022-0.035l0.031-0.015l0.032,0.017l0.029-0.002l0.051-0.033l0.037-0.01l0.024-0.027l0.088-0.053l0.012,0.01l-0.012,0.027l0.018,0.041l0.16-0.093l0.01-0.031l-0.001-0.092l0.008-0.019l-0.017-0.016l-0.022,0.004l-0.013-0.014l0.015-0.028l0.037-0.046l0.012-0.064l0.038-0.045l0.014,0.001l0.01,0.026h0.019l0.011-0.017l0.004-0.059l0.028-0.045v-0.024l-0.045-0.038l-0.003-0.026l0.01-0.031l-0.01-0.01l-0.057-0.003l-0.082-0.074l-0.005-0.021l0.013-0.011l-0.003-0.013l-0.016-0.014l0.002-0.016l0.014-0.011l0.003-0.016l-0.012-0.015l0.004-0.036l0.02-0.019v-0.017l-0.024-0.018l0.001-0.019l0.02-0.013l0.001-0.035l-0.017-0.034l0.003-0.032l-0.007-0.019l-0.022-0.029l-0.005-0.014l0.009-0.047l-0.008-0.021l-0.036-0.041l0.004-0.019l-0.015-0.013h-0.039l-0.018-0.019l0.002-0.021l-0.008-0.018l-0.021-0.008l-0.003-0.027l0.017-0.03l-0.002-0.036l-0.025-0.035l-0.006-0.064l-0.037-0.017v-0.013l0.019-0.011l-0.003-0.024l-0.024-0.025l-0.024-0.05l0.009-0.004l0.019,0.003l0.007-0.008l-0.033-0.044l0.003-0.038l-0.015-0.011l-0.034,0.012l-0.011-0.008l0.015-0.031l0.002-0.028l0.049-0.049l-0.005-0.027l-0.04-0.009l-0.008-0.024l0.021-0.029l0.005-0.034l0.014-0.021l0.024-0.004l0.026,0.012l0.02-0.013l0.001-0.038l0.021-0.053v-0.061l0.009-0.014l0.025-0.004v-0.016l-0.022-0.013l-0.036,0.009l-0.049,0.003l-0.006-0.02l0.006-0.033v-0.019l-0.017-0.021l0.001-0.021l0.043-0.055l0.018-0.093l-0.002-0.034l-0.015-0.061l0.008-0.045l0.029-0.032l0.034-0.003l0.014-0.01l0.019,0.001l0.021,0.022h0.031l0.008-0.016h0.01l0.018,0.02l0.014-0.003l-0.011-0.031l0.008-0.034l0.023-0.008l0.002-0.021l-0.02-0.018v-0.034l0.017-0.02l0.024-0.003l0.011-0.015l-0.002-0.035l-0.017-0.005l-0.018,0.024l-0.021-0.003l-0.028-0.027l-0.002-0.028l0.018-0.057l0.013-0.002l0.021,0.016l0.022-0.007l0.001-0.018l-0.022-0.03l-0.022-0.007v-0.073l0.021-0.009l0.004-0.02l-0.007-0.022l0.012-0.047l0.026-0.018l0.005-0.036l0.009-0.023l0.04-0.032l0.006-0.102l0.021-0.01v-0.016l-0.042-0.031l-0.001-0.026l-0.084-0.07l-0.056-0.009l-0.036,0.002l-0.037-0.031l-0.007-0.056l-0.057-0.095l-0.016-0.081l0.003-0.056l0.013-0.021l0.029-0.004l0.066-0.093l0.02,0.003l0.008-0.011l-0.009-0.018l0.009-0.022l0.022-0.021l0.014-0.064l-0.023-0.061l0.009-0.022l0.027-0.002l0.014-0.015l0.005-0.034l0.033-0.039l0.018-0.048l0.063-0.042l0.003-0.022l-0.2-0.153l-0.024-0.46l-0.194-0.449l-0.388-0.546l0.306-0.109l0.208-0.486l0.094-0.261l-0.011-0.008l-0.044,0.021l-0.167-0.037l-0.034,0.003l-0.034,0.031l-0.042,0.011l-0.024,0.036h-0.031l-0.058-0.034l-0.062-0.01l-0.037-0.024l-0.042-0.002l-0.05,0.031l-0.096,0.013l-0.118-0.016l-0.209-0.094l-0.011-0.036l0.037-0.283l-0.552-0.269l-0.651-0.248l-0.428-0.115l-0.879,0.028l-0.447-0.123l-0.038-0.042v-0.022l0.03-0.031v-0.053l-0.028-0.022l-0.011-0.019l0.001-0.049l-0.017-0.039l-0.035-0.028l-0.042-0.006l-0.074-0.057l-0.076-0.024l-0.043-0.03l-0.029-0.061l-0.132-0.119l-0.012-0.042l-0.053-0.034l-0.053-0.007l-0.047-0.036l0.002-0.021l-0.019-0.02l-0.035-0.008l-0.035-0.024l-0.123-0.015l-0.043-0.027l-0.037-0.003l-0.036,0.015l-0.046-0.008l-0.024-0.03l-0.026-0.004l-0.047,0.012l-0.127-0.015l-0.027,0.013l-0.028-0.005l-0.03-0.022l-0.132-0.043l-0.044,0.014l-0.035-0.005l-0.023-0.046l-0.026-0.003l-0.032,0.015l-0.129-0.012l-0.045,0.016l-0.011-0.009l0.032-0.029l-0.002-0.038l-0.025-0.016h-0.026l-0.024,0.02l-0.031-0.008l-0.009-0.038l0.002-0.052l-0.13-0.1l-0.067-0.07l-0.015-0.043l0.005-0.028l-0.01-0.023l-0.059-0.019l-0.02-0.024l-0.001-0.037l-0.038-0.043l-0.037-0.012l-0.018,0.007l-0.007,0.022l-0.018-0.001l-0.036-0.046l-0.034-0.002l-0.025,0.014l-0.06-0.002l-0.032-0.018l-0.027-0.004l-0.017,0.02h-0.025l-0.047-0.02l-0.039-0.001l-0.026,0.013l-0.02-0.005l-0.005-0.047l-0.033-0.016l-0.067-0.004l-0.021,0.016l-0.019-0.002l-0.016-0.015l-0.084,0.011l-0.061,0.03l-0.03,0.04l-0.021,0.001l-0.01,0.012l0.006,0.025l-0.021,0.003l-0.014-0.018l-0.021-0.004l-0.024,0.017l-0.015-0.009l0.013-0.034l-0.008-0.018l-0.014-0.001l-0.024,0.06l-0.034,0.015l-0.047-0.005l-0.026,0.02l-0.008,0.047l-0.038,0.057l-0.052,0.024h-0.05l-0.061-0.041l-0.049-0.059l-0.001-0.053l-0.029-0.034l-0.064-0.012l-0.053-0.035h-1.748l-0.027,0.031l-0.033,0.001l-0.024-0.019v-1.438l-0.045,0.012l-0.055,0.049l-0.117,0.049h-0.051l-0.118-0.026l-0.137-0.004l-0.051-0.041l-0.012-0.025l-0.029-0.002l-0.079,0.1l-0.065,0.043h-0.027l-0.074-0.055l-0.042-0.09l-0.057-0.03l-0.115,0.006l-0.069,0.028l-0.18,0.002l-0.057,0.027l-0.257,0.028l-0.072-0.004l-0.075-0.061l-0.08-0.014l-0.069,0.006l-0.037-0.004l-0.045-0.031l-0.161-0.02l-0.177,0.006l-0.094,0.061l-0.182,0.045l-0.122,0.016l-0.19,0.08l-0.07-0.004l-0.063-0.016l-0.051-0.049h-0.077l-0.062,0.032l-0.053,0.076l-0.055,0.037l-0.092,0.022l-0.14-0.01l-0.129,0.018l-0.092,0.068l-0.267,0.087l-0.137,0.086l-0.088,0.031l-0.126,0.018l-0.088,0.049l-0.282,0.216l-0.155,0.149l-0.081,0.025l-0.102,0.104l-0.017,0.063l-0.049,0.057l-0.047,0.004l-0.067-0.03l-0.139,0.004l-0.091,0.045l-0.127,0.134l-0.063,0.121l-0.088,0.081l-0.006,0.047l0.053,0.257l-0.01,0.064l-0.076,0.083l-0.01,0.047l0.014,0.057l-0.004,0.052l-0.022,0.044l0.006,0.045l0.03,0.047l0.049,0.021v0.038l-0.096,0.133l-0.014,0.078v0.061l0.057,0.035l0.002,0.036l-0.012,0.033l0.006,0.035l0.027,0.041v0.024l-0.019,0.027l-0.01,0.081l-0.02,0.041l-0.037,0.029l-0.029,0.059l-0.004,0.041l0.019,0.057l-0.006,0.049l-0.027,0.045l-0.073,0.059l-0.074,0.04l-0.03,0.039l0.002,0.011l-0.016,0.028l-0.018,0.042l0.009,0.005l0.033-0.02l0.024-0.038l0.023-0.005l0.078,0.03l0.045-0.001l0.097-0.032l0.039,0.005l0.048,0.029l0.014,0.037l0.091,0.035l0.086-0.003l0.03-0.012l0.064,0.006l0.038,0.031l0.012,0.055l-0.013,0.031l-0.086,0.017l-0.029,0.034l0.014,0.016l0.091-0.01l0.099,0.028l0.14,0.013l0.111-0.04l0.017,0.012l-0.035,0.073l-0.076,0.035l-0.118,0.012l-0.188-0.025l-0.08,0.038l0.004,0.018l0.058,0.005l0.126-0.01l0.055,0.03l0.008,0.039l-0.013,0.128l-0.044,0.049h-0.046l-0.072-0.028l-0.025,0.016l-0.003,0.035l0.027,0.028l0.055,0.026l0.006,0.036l-0.023,0.008l-0.093-0.049l-0.072,0.009l-0.038,0.034l-0.018,0.059l0.005,0.058l-0.031,0.032l-0.102,0.031l-0.095,0.076l-0.102,0.029l-0.02,0.029l-0.082,0.002l-0.011,0.009h-0.02l-0.035-0.01l-0.111-0.001l-0.049-0.029l-0.011-0.036l-0.064-0.031l-0.025-0.031l-0.091-0.051l-0.037-0.007l-0.008-0.015l0.015-0.025l0.078-0.032l0.03-0.019l-0.006-0.029l-0.043-0.018l-0.125-0.011l-0.041,0.021l-0.018,0.05l-0.043,0.021l-0.02-0.012l0.003-0.026l-0.016-0.025l-0.04-0.003l-0.007,0.012l0.024,0.017l0.005,0.02l-0.029,0.017l-0.022,0.001l-0.016-0.039h-0.017l-0.012,0.046l-0.02-0.002l-0.042-0.038l-0.028,0.002l-0.012,0.039l-0.035,0.026l-0.043,0.008l-0.031,0.019l-0.04-0.001l-0.018-0.023l-0.021,0.001l-0.026,0.026v0.025l0.018,0.027l-0.005,0.025l-0.042,0.008l-0.018,0.025l-0.014,0.069l-0.024,0.001l-0.027-0.035l-0.023,0.001l-0.01,0.028l-0.043,0.004l-0.005,0.013l0.028,0.039h0.045l0.025,0.012l0.004,0.018l0.024,0.012l0.021-0.003l0.023,0.011l-0.011,0.042l0.016,0.043l0.026,0.009l0.013,0.016l-0.018,0.045l-0.03,0.015l-0.013,0.025l0.006,0.035l-0.009,0.019l-0.02,0.007l-0.056,0.081l0.001,0.038l-0.015,0.035l-0.013-0.002v-0.061l0.014-0.054l0.051-0.047l-0.001-0.029l-0.029-0.028l-0.007-0.045l-0.019-0.019l-0.007-0.022l0.012-0.042l-0.004-0.027l-0.081-0.056l-0.018,0.004v0.019l0.027,0.034l-0.005,0.052l-0.017,0.003l-0.034-0.031l0.005-0.049l-0.012-0.03l-0.023-0.002l-0.02,0.017l-0.032-0.003l-0.03-0.02l-0.049-0.004l-0.006-0.011l0.038-0.034l-0.002-0.045l-0.03-0.038l-0.025-0.011l-0.065,0.019l-0.04,0.051l-0.054,0.035l-0.063,0.002l-0.055,0.014l-0.008,0.026l-0.02,0.003l-0.024-0.016h-0.021l-0.018,0.015h-0.02l-0.022-0.02l-0.047,0.006l-0.03,0.048l-0.005,0.064l0.026,0.036l-0.002,0.02l-0.019,0.009l-0.012,0.021l0.008,0.021l0.027,0.015l-0.004,0.012l-0.049-0.012l-0.019-0.019l0.03-0.055l-0.009-0.009l-0.027,0.002l-0.026,0.032h-0.02l-0.043-0.022l-0.056-0.007l-0.042,0.014l-0.047,0.003l-0.042-0.02l-0.008-0.014l0.046-0.063l0.024-0.008l0.009-0.022l-0.006-0.021l-0.048-0.011l-0.067,0.018l-0.032,0.027v0.033l-0.012,0.024l-0.089,0.075v0.021l0.09,0.042l0.064,0.009l0.02,0.013v0.021l-0.058,0.021l-0.015,0.035v0.032l-0.02,0.026l-0.043,0.003l-0.031,0.022l-0.021,0.066l0.008,0.036l-0.008,0.015l-0.056,0.012l-0.042,0.032l0.006,0.013l0.106-0.002l0.069-0.022l0.064-0.051l0.016,0.007l-0.048,0.062l-0.005,0.053l0.015,0.028l-0.004,0.021l-0.051,0.034l-0.031,0.05l-0.115,0.046l-0.029,0.034l0.009,0.059l-0.018,0.048l-0.059,0.035l0.004,0.016l0.052-0.003l0.062-0.026h0.036l0.034,0.026l0.021,0.091l-0.005,0.04l-0.013-0.01l-0.02-0.076l-0.04-0.026l-0.048,0.002l-0.04,0.059l-0.027,0.008l-0.024-0.013l0.003-0.032l-0.025-0.027l-0.033-0.01l-0.011-0.023l0.031-0.036l0.038-0.002l0.033-0.011l0.006-0.028l-0.04-0.056l-0.002-0.046l-0.021-0.009l-0.032,0.018l-0.022-0.004l-0.029-0.047l-0.029-0.009l-0.03,0.009l-0.016-0.009v-0.026l-0.022-0.016h-0.021l-0.069,0.059l-0.022,0.033l-0.067,0.061l-0.001,0.016l0.021,0.009l-0.006,0.012l-0.052,0.013l-0.024,0.021l-0.019,0.039l-0.02,0.009l-0.021-0.004l-0.018,0.015l-0.006,0.029l-0.054,0.04l-0.041,0.012l-0.039-0.012l-0.025,0.009l-0.008,0.039l-0.014,0.007l-0.025-0.01l-0.01,0.009l0.006,0.03l-0.014,0.012l-0.056-0.017l-0.005,0.007l0.02,0.03l0.057,0.012l0.009,0.021l-0.028,0.03l-0.023-0.001l-0.007-0.025l-0.062-0.042l-0.07,0.001l-0.062,0.033l-0.046,0.047l-0.007,0.037l-0.014,0.008l-0.041-0.024l-0.044-0.001l-0.018,0.016l-0.002,0.022l-0.015,0.015l-0.064,0.012l-0.028,0.024l-0.002,0.027l0.049,0.028l-0.005,0.015l-0.037-0.001l-0.023,0.024v0.036l-0.012,0.012l-0.042,0.004l-0.017,0.04l0.012,0.013l0.031-0.007l0.026,0.018l-0.001,0.018l-0.068,0.039l-0.031,0.064l-0.055,0.058l0.001,0.026l0.019,0.017l0.005,0.025l0.038,0.032l-0.006,0.022l-0.113,0.016l-0.028,0.024l-0.045,0.019l-0.021,0.029l0.018,0.022l-0.002,0.014l-0.017,0.008l0.004,0.022l0.043,0.022v0.015l-0.017,0.013l-0.008,0.025v0.044l-0.009,0.022l-0.024,0.018l-0.043,0.087l-0.01,0.047l-0.029,0.034l-0.005,0.03l0.013,0.02l-0.006,0.022l-0.012,0.001l-0.027-0.042l0.001-0.023l0.015-0.024l0.004-0.035l-0.012-0.018l-0.043-0.004l-0.029,0.019l-0.001,0.021l0.037,0.02l0.001,0.019l-0.018,0.051l-0.027,0.028l-0.006,0.029l0.017,0.024l-0.002,0.018l-0.018,0.011l-0.124,0.01l-0.045,0.022l-0.025,0.001l-0.024-0.01l-0.059,0.004l-0.038,0.04l-0.016,0.054l0.01,0.012l0.038-0.015l0.006,0.009l-0.036,0.037l0.009,0.022l0.042,0.005l0.018,0.024l-0.01,0.019l-0.041,0.013l-0.01,0.025l0.01,0.036l-0.01,0.006l-0.042-0.027l-0.023-0.001l-0.014,0.016l-0.069,0.029l-0.004,0.023l-0.018,0.025l-0.031,0.002l-0.005-0.011l0.031-0.026l-0.002-0.013l-0.027-0.006l-0.002-0.013l0.017-0.015l-0.008-0.019l-0.053-0.013l-0.033,0.008l-0.018-0.008v-0.018l-0.017-0.001l-0.028,0.036l0.002,0.03l-0.019,0.01l-0.032-0.009l-0.017,0.012l-0.009,0.042l-0.056,0.074l-0.051,0.018l-0.017,0.017l0.005,0.038l-0.009,0.022l-0.259,0.257l-0.065,0.084l-0.046,0.084l0.013,0.031l0.027,0.004l0.048-0.012l0.03,0.005v0.015l-0.024,0.009l-0.002,0.023l-0.021,0.02l-0.064,0.007l-0.055-0.011l-0.05,0.009l-0.022,0.023l-0.014,0.028l-0.033,0.012l-0.024,0.023l-0.049,0.025l-0.003,0.014l0.054,0.051l0.029,0.005l0.009,0.01l-0.021,0.02l0.009,0.022l0.017,0.004l0.006,0.018l-0.026,0.024l0.007,0.035l0.017,0.004l0.021-0.009l0.048,0.016l0.022,0.015l-0.006,0.015h-0.029l-0.027-0.017h-0.015l-0.001,0.019l-0.016,0.007l-0.093-0.026l-0.028,0.004l-0.062,0.053l-0.029,0.033l-0.052,0.029l-0.042,0.009l-0.045,0.047l-0.029,0.064l-0.007,0.04l0.015,0.034l0.028,0.016l-0.006,0.022l-0.022,0.008l-0.029-0.012l-0.021,0.008l-0.026,0.054l-0.018,0.001l-0.004-0.046l-0.016-0.001l-0.008,0.01l-0.027,0.002l-0.064-0.045h-0.032l-0.051,0.02l-0.047,0.039l-0.022,0.001l-0.031-0.017l-0.037-0.001l-0.141,0.041l-0.094,0.047l-0.03,0.004l-0.028-0.011l-0.031,0.004l-0.025,0.028l-0.033,0.002l-0.052-0.017h-0.046l-0.026,0.022l-0.001,0.02l0.019,0.014v0.017l-0.015,0.011l-0.049-0.004l-0.027,0.013l-0.018,0.035l-0.042,0.005l-0.053-0.018l-0.075,0.002l-0.041,0.013l-0.083,0.086l-0.062,0.031l-0.025,0.025v0.038l-0.022,0.014l-0.027-0.005l-0.105-0.06l-0.046-0.013l-0.121-0.001l-0.041-0.015l-0.005-0.017l0.016-0.027l-0.003-0.024l-0.078-0.044l-0.024-0.025l-0.008-0.074l-0.034-0.033l-0.114-0.004l-0.057,0.012l-0.038,0.002l-0.097-0.042l-0.031-0.048l-0.02-0.012l-0.021,0.004l-0.024-0.005l-0.017-0.025l-0.024-0.013l-0.031,0.001l-0.037-0.01l-0.042-0.037l-0.027-0.011l-0.111-0.007l-0.077-0.025l-0.049-0.001l-0.104,0.023l-0.045-0.009l-0.035-0.038l-0.037-0.017l-0.111,0.002l-0.029-0.012l-0.068-0.064l-0.001-0.034l-0.012-0.016l-0.026-0.005l-0.074,0.031l-0.068,0.057l-0.049,0.006l-0.035,0.037l-0.021,0.002l-0.014-0.01l-0.024,0.002l-0.005,0.019h-0.02l-0.013-0.013l-0.024,0.001l-0.038,0.021l-0.041,0.004l-0.04,0.023l-0.006,0.024l0.017,0.023l0.049,0.007l0.002,0.014l-0.036,0.04l-0.021,0.071l-0.038,0.016l-0.113-0.019l-0.023-0.016h-0.022l-0.015,0.017l-0.027,0.002l-0.029-0.007l-0.07-0.002l-0.041,0.03l-0.013,0.046l-0.034,0.017h-0.034l-0.026-0.01l-0.042-0.007l-0.022-0.014l-0.037-0.002l-0.047,0.014l-0.031-0.008l-0.005-0.026l-0.019-0.019l-0.137-0.03l-0.033-0.013l-0.011-0.03l0.015-0.029v-0.023l-0.052-0.024l-0.001-0.019l0.028-0.027l0.007-0.044l-0.017-0.052l-0.038-0.033l-0.09-0.007l-0.077-0.061l-0.015-0.05l-0.061-0.058l-0.041-0.019l-0.028,0.005l-0.041-0.005l-0.047-0.023l-0.043-0.002l-0.02,0.008l-0.034-0.001l-0.03-0.025l-0.004-0.027l0.011-0.026l-0.012-0.031l-0.055-0.02l-0.046,0.015l-0.061,0.066l-0.081,0.037l-0.103,0.002l-0.055,0.023l-0.028-0.002l-0.032-0.025l-0.067-0.004l-0.048,0.023l-0.053,0.063l-0.039,0.016l-0.055-0.005l-0.051-0.036l-0.095-0.031l-0.042-0.003l-0.054,0.029l-0.03-0.001l-0.032-0.016h-0.025l-0.026,0.013l-0.034-0.001l-0.1-0.056l-0.038-0.005l-0.042,0.015l-0.032-0.002l-0.101-0.044l-0.103-0.077l-0.091-0.051v0.082l-0.08,0.225l-0.002,0.067l0.019,0.03l-0.004,0.025l-0.019,0.006l-0.002,0.029l0.064,0.11l0.048,0.026l0.054,0.143l-0.001,0.088l0.043,0.108l0.062,0.061l0.018,0.033l0.004,0.045l0.027,0.026l0.11,0.035l0.045,0.037l-0.002,0.041l0.032,0.03l0.07,0.008l0.085,0.105l0.123,0.279l0.037,0.041l0.03,0.118l0.092,0.143l0.116,0.325l0.176,0.183l0.102,0.16l0.037,0.028l0.112,0.041l0.039,0.031l0.038,0.095l0.119,0.182l0.088,0.074l0.167,0.067l0.073,0.057l0.033,0.088l0.016,0.098l0.035,0.047l-0.004,0.024l-0.035,0.029v0.116l0.051,0.243l0.047,0.069l0.014,0.033l0.007,0.067l0.026,0.029l0.159,0.082l0.178,0.132l0.067,0.021l0.051,0.045l0.119,0.236l0.016,0.116l0.024,0.088l-0.006,0.027l-0.098,0.11l-0.024,0.076l0.006,0.098l0.049,0.104l0.231,0.271l0.018,0.029l0.008,0.091l0.014,0.033l0.08,0.098l0.016,0.037v0.063l0.076,0.186l0.049,0.077l0.065,0.237l0.051,0.055l0.023,0.096l0.01,0.11l0.071,0.186l0.031,0.035l0.094,0.047l0.055,0.014l0.081,0.069l0.051,0.01l0.203-0.034l0.032,0.012l0.031,0.047l0.112,0.071l0.006,0.021l-0.041,0.034l-0.057,0.09l-0.002,0.057l0.01,0.011l0.051,0.018l0.027,0.018l0.041,0.006l0.085-0.024l0.025,0.016l0.006,0.035l0.039,0.045l0.051,0.139l0.077,0.065l0.2,0.043l0.084,0.037l0.037,0.002l0.032,0.016l0.003,0.031l0.026,0.012h0.051l0.071,0.035l0.047,0.097l0.039,0.139l0.066,0.108l0.034,0.005l0.047-0.025l0.049-0.004l0.176,0.049l0.014,0.026l0.006,0.041l0.057,0.123l0.031,0.014l0.065-0.014l0.09,0.012l0.098,0.033l0.073,0.042l0.057,0.013l0.054-0.002l0.061,0.016l0.063,0.035l0.086,0.028l0.12,0.066l0.143,0.059h0.041l0.069-0.023l0.129,0.006l0.155,0.076l0.024,0.027l0.029,0.067l0.075,0.055l0.117,0.043l0.057,0.01l0.069-0.016l0.064,0.008l0.079,0.063l0.021,0.069l0.057,0.054l0.028,0.081l0.008,0.088l0.053,0.075l0.009,0.039l-0.006,0.053l0.01,0.021l0.063,0.059l0.025,0.112v0.039l-0.009,0.026l0.004,0.021l0.041,0.053l0.008,0.137l-0.02,0.096l-0.004,0.279l-0.039,0.202l0.006,0.059l0.021,0.008l0.232-0.11l0.031-0.002l0.055,0.029l0.198,0.016l0.12-0.051h0.049l0.245,0.047l0.098,0.047h0.041l0.084-0.049l0.067,0.002l0.07,0.057l0.044,0.012l0.072-0.012l0.035-0.032l0.04,0.004l0.127,0.114l0.01,0.033l-0.008,0.122l-0.021,0.059l-0.014,0.059l-0.051,0.074l0.002,0.051l0.017,0.03l-0.009,0.08l-0.012,0.033l0.008,0.051l0.094,0.134l0.002,0.047l-0.012,0.019l-0.004,0.028l0.02,0.06l-0.006,0.081l-0.012,0.041l0.004,0.063l-0.01,0.019l-0.027,0.006l-0.006,0.024l0.01,0.025l-0.022,0.065l0.002,0.022l0.01,0.015v0.02l-0.09,0.102l0.004,0.066l0.027,0.044l0.002,0.039l-0.018,0.029l-0.006,0.051l-0.015,0.022l-0.004,0.023l0.049,0.063l0.021,0.018v0.047l-0.027,0.039v0.047l0.014,0.024l-0.004,0.015l-0.034,0.01l-0.002,0.02l0.036,0.094l-0.004,0.039l-0.032,0.022l-0.031-0.002l-0.009,0.017l0.012,0.049l0.028,0.029l0.003,0.025l-0.004,0.036l0.032,0.051l0.034,0.014l0.013,0.015l-0.003,0.016l0.01,0.01l0.021,0.007l0.015,0.018l0.002,0.026l0.068,0.057l0.007,0.034l0.017,0.015l0.072,0.011l0.03,0.022l0.016,0.042l0.031,0.013l0.034-0.002l0.025,0.012l0.066,0.101l0.033,0.065l0.079,0.083l0.02,0.031l0.019,0.061l0.051,0.054l0.013,0.035l0.026,0.024l0.033,0.018l0.065,0.089l0.008,0.039v0.11l0.009,0.026l0.073,0.069l0.051,0.093l-0.001,0.026l-0.017,0.025l0.002,0.037l0.04,0.021l0.015,0.021l0.003,0.026l0.037,0.034l-0.011,0.017l-0.04,0.005l-0.021,0.033l0.013,0.028l0.074,0.02l0.005,0.024l-0.035,0.031l-0.009,0.077l0.021,0.021h0.013l0.02-0.025l0.057-0.004l0.007,0.013l-0.029,0.029l0.003,0.025l0.034,0.044l0.011,0.057l0.051,0.066l0.079,0.019l0.062-0.01l0.033,0.004l0.03,0.017h0.034l0.038-0.017l0.035,0.004l0.14,0.055l0.106,0.005l0.081,0.028l0.047,0.001l0.164-0.03l0.124-0.004l0.021-0.013l0.027,0.001l0.06,0.027l0.077,0.003l0.044,0.033l0.031-0.001l0.03-0.016l0.03,0.005l0.144,0.109l0.046,0.016l0.065,0.013l0.035,0.021l0.033,0.04l0.15,0.059h0.033l0.029-0.024l0.026-0.009l0.055-0.064l0.027-0.006h0.047l0.03-0.016l0.024-0.033h0.034l0.057,0.05l0.049,0.016l0.14,0.026l0.034,0.019l0.051,0.072l0.065,0.025l0.221,0.071l0.111,0.057l0.068,0.06l0.031,0.008l0.089,0.004l0.052,0.025l0.07,0.055l0.073,0.025l0.069,0.001l0.204,0.056l0.037-0.001l0.07-0.024l0.042,0.002l0.033,0.027l0.017,0.045l0.025,0.013l0.127,0.02l0.055,0.016l0.047,0.045l-0.004,0.019l-0.092,0.1l-0.076,0.138l-0.032,0.125v0.122l0.024,0.113l0.053,0.112l0.111,0.133l0.169,0.098l0.147,0.042l0.198-0.008l0.126-0.049l0.023,0.004l0.082,0.076l0.046,0.135l0.031,0.042l0.123,0.09l0.127,0.148l0.044,0.017L750.241,534.261z"/>
</svg>
