<svg xmlns="http://www.w3.org/2000/svg" viewBox="1230.194 675.541 0.598 1.504">
  <path d="M1230.546,675.612l0.003-0.023l0.038-0.012l0.066,0.017l0.03,0.026l0.042,0.002l0.03-0.029l0.007-0.047l0.016-0.005l0.014,0.028l-0.012,0.033l-0.019,0.009l-0.017,0.029l0.012,0.055l-0.005,0.066l-0.048,0.178l-0.016,0.01l-0.002,0.017l0.028,0.052l-0.004,0.012l-0.014,0.01l-0.014,0.04l-0.016,0.121l-0.021,0.059l-0.017,0.012l-0.005,0.024l0.005,0.019l-0.048,0.158l-0.04,0.049l-0.031,0.062l-0.054,0.142l-0.007,0.043l0.007,0.057l-0.01,0.08l-0.014,0.055l-0.023,0.05l0.005,0.029l-0.009,0.005l-0.012-0.019l-0.028-0.005l-0.054,0.01l-0.036-0.009l-0.014-0.024h-0.019l-0.017,0.01l-0.029-0.019l0.003-0.019l0.016-0.014l0.019,0.005l0.017-0.007l0.024-0.035l-0.004-0.028l-0.038-0.023l0.009-0.016l0.024-0.007l0.028-0.08l0.017-0.097l-0.023-0.047l0.004-0.016l0.016-0.007l0.002-0.016l-0.021-0.014l0.009-0.014l0.068-0.028l0.012-0.042l-0.019-0.033l0.005-0.036l-0.024-0.035l-0.002-0.021l0.019-0.005l0.007-0.016l-0.012-0.026l0.009-0.038l-0.003-0.029l0.009-0.049l0.023-0.009l0.005-0.021l-0.023-0.01l0.005-0.012l0.026-0.014l0.009-0.054l0.023-0.052l0.019-0.01l0.029-0.059l-0.009-0.024l0.009-0.024l0.036-0.007l0.01-0.023l-0.045-0.05l0.007-0.038l-0.026-0.022l0.009-0.012l0.042-0.012l0.009-0.016l-0.014-0.012l-0.036-0.005v-0.019l0.017-0.01l0.033-0.002l0.024-0.029l0.03-0.01l0.002-0.016L1230.546,675.612z"/>
</svg>
