<svg xmlns="http://www.w3.org/2000/svg" viewBox="341.592 579.953 7.721 0.839">
  <path d="M348.611,580.369l-0.001-0.01l0.01-0.017l0.018-0.001l0.028,0.018l0.004,0.029l0.029,0.015l0.012,0.011l0.021,0.011l-0.006,0.007l-0.026-0.01l-0.028,0.004l-0.039-0.019l-0.006-0.032L348.611,580.369z M348.638,580.271l0.025,0.018l0.018,0.004l0.007-0.01l-0.01-0.021l0.021-0.021h0.023l0.018-0.023l-0.006-0.021l0.019-0.021l0.017,0.004l0.012,0.021l0.017-0.001l0.004-0.029l0.017-0.012l0.022,0.011l0.003,0.018l0.019-0.003l0.021-0.018l0.014-0.029l0.033-0.015l0.025,0.01l0.001,0.026l0.001,0.03l0.004,0.022l0.014,0.008l0.035-0.012l0.03-0.001l0.041-0.015l0.018,0.001l0.007,0.011l0.014,0.006l0.022,0.003l0.035,0.019l0.017,0.017l0.057,0.029l0.028-0.001l0.032-0.03l-0.004-0.03l-0.022-0.021l-0.006-0.022l-0.033-0.041l-0.003-0.022l-0.019-0.011l-0.04-0.003l-0.043,0.005l-0.025,0.011l-0.019-0.001l-0.017-0.018l0.008-0.019l-0.006-0.015l-0.065-0.046l-0.008-0.026l-0.043-0.025l-0.028-0.001l-0.018-0.008l-0.021,0.003l-0.019,0.017l-0.006,0.011l-0.018,0.004l0.003,0.005l0.017,0.003l0.017,0.026l-0.007,0.011v0.012l0.01,0.01l-0.005,0.025l-0.023,0.018l-0.011,0.018l-0.046,0.014l-0.023-0.007l-0.028,0.007l-0.021,0.023l-0.006,0.015l-0.018,0.01l-0.018,0.003l-0.026,0.026l-0.003,0.018l0.011,0.012l-0.001,0.01l-0.015,0.004l-0.014-0.001l-0.014,0.011L348.638,580.271z M341.594,580.509l-0.002,0.023l0.036,0.031l0.002,0.024l-0.014,0.033l0.012,0.031l0.016-0.002l0.019,0.007l-0.004,0.02l0.01,0.021l0.024-0.003l0.024,0.023l0.002,0.023l0.008,0.014l0.018,0.003l0.008,0.008l-0.001,0.014l0.01,0.006l0.052,0.007h0.023l0.05-0.043l0.016-0.045l-0.005-0.031l0.002-0.052l0.011-0.034l-0.007-0.025l-0.028-0.044l-0.021-0.051l-0.006-0.046l-0.012-0.014l0.001-0.015l-0.012-0.008l-0.077,0l-0.026,0.017h-0.023l-0.04,0.024l-0.009,0.029l-0.021,0.019l-0.01,0.021L341.594,580.509z"/>
</svg>
