<svg xmlns="http://www.w3.org/2000/svg" viewBox="1040.090 374.798 8.903 7.770">
  <path d="M1046.773,380.527l-0.097,0.09l-0.506,0.007l-0.596,0.478l-0.173,0.582l-0.215,0.069l-0.208-0.159l-0.152-0.007l-0.249,0.125l-0.118-0.076l-0.118,0.007l-0.187,0.388l0.005,0.139l0.07,0.008l0.022,0.061l-0.079,0.126l-0.057-0.026l-0.016,0.026l0.016,0.052l-0.031,0.021l-0.049-0.06l0.026-0.062l-0.049-0.039l-0.19,0.026l-0.06,0.065l-0.016,0.062l0.052,0.068l-0.026,0.029l-0.086-0.016l-0.073,0.057l-0.065-0.029l0.031-0.125l-0.052-0.081l-0.039-0.031l-0.044,0.052l-0.158,0.101l-0.047-0.062l0.101-0.12l-0.091-0.122l-0.135-0.058l-0.541-0.097l-0.388,0.097l-0.152-0.048l0.007-0.125l-0.187-0.152l-0.353,0.014l-0.18-0.159l-0.291-0.09l-0.27-0.201l-0.367-0.055l-0.083-0.215l0.09-0.201l0.007-0.277l-0.104-0.45l-0.165-0.114l-0.01-0.125l0.083-0.114l0.031-0.171l-0.151-0.572v-0.094l0.172-0.151l0.031-0.208l-0.104-0.057l-0.052-0.26l0.187-0.374l0.229-0.016l0.244-0.208l0.234-0.12l0.359-0.301l0.135-0.208l0.52-0.187l0.234-0.197l-0.026-0.146l-0.104-0.021l-0.068-0.197l0.203-0.296l0.146-0.042l0.069-0.146l0.187-0.049l0.338,0.182l0.14-0.002l0.111,0.111l0.152-0.076l0.021-0.301l0.224-0.187l0.426-0.073l0.208,0.166l0.338,0.052l0.104-0.14l0.203-0.01l0.161,0.187h0.146l0.135-0.161l0.281-0.114l0.075-0.205l0.187,0.021l0.239,0.114l0.127-0.044l0.016-0.14l0.21-0.055l0.486,0.273l0.135,0.003l0.018,0.052l0.006,0.117l0.045,0.021l0.079-0.096l0.036,0.039l0.031,0.226l0.078,0.039l0.031,0.07l0.047-0.023l-0.016-0.107l-0.055-0.094l-0.034-0.239l-0.106-0.016l-0.04-0.042l0.001-0.197l0.109-0.12l0.159,0.016l0.12-0.112l-0.018-0.068l0.062-0.029l0.06,0.13l0.036,0.195l0.091,0.104l0.099,0.055l0.091,0.12l0.281,0.057l0.164-0.034l0.049-0.049l0.049,0.026l0.062,0.127l0.007,0.139l0.146,0.416l0.028,0.499l0.09,0.104l0.038,0.152l-0.049,0.024l-0.087-0.035l-0.094,0.017l-0.114,0.173l-0.097,0.042l-0.18,0.232l-0.097-0.045l-0.059-0.229l0.062-0.062l0.149,0.01l0.031-0.076l-0.003-0.09h-0.052l-0.052,0.076l-0.232-0.003l-0.055,0.08l0.09,0.107l0.038,0.097l0.003,0.08l-0.055,0.073l0.014,0.08l-0.073,0.135l-0.09,0.042l-0.031,0.125l-0.104,0.062l-0.107-0.017l-0.114,0.145l0.055,0.18l-0.059,0.073l-0.094-0.003l-0.045,0.08l0.01,0.149l-0.201,0.409l-0.035,0.371l-0.104,0.052l-0.08,0.173l-0.021,0.409l0.021,0.229l0.059,0.125l-0.014,0.042l-0.229,0.055l-0.132,0.201L1046.773,380.527L1046.773,380.527z M1042.848,382.239l-0.01,0.062l0.055,0.024v-0.052L1042.848,382.239L1042.848,382.239z M1046.908,380.529l0.008,0.094l0.032,0.026l0.028-0.018l-0.04-0.097L1046.908,380.529L1046.908,380.529z M1047.202,375.356l0.012,0.028l0.05-0.035l-0.035-0.021L1047.202,375.356L1047.202,375.356z"/>
</svg>
