<svg xmlns="http://www.w3.org/2000/svg" viewBox="344.408 404.269 45.002 61.581">
  <path d="M346.059,441.323l0.208-0.218l0.088,0.016l0.125,0.239l0.156-0.036l0.13,0.031l0.052,0.14l0.047,0.301l0.088-0.031l0.026-0.4l0.192-0.083v-0.177l-0.064-0.161l0.066-0.038l0.111,0.042l0.104,0.194l0.017-0.038l-0.016-0.268l-0.052-0.083l0.01-0.104l0.12-0.031l0.078,0.161l0.182,0.026l0.114,0.073l0.156-0.12l0.255-0.026l0.099-0.129l0.239-0.063l0.177,0.062v0.146l0.036,0.047l0.114-0.26l0.01-0.317l0.334-0.512l-0.038-0.33l0.328-0.443l0.4-0.732l0.308-0.221l0.128-0.374l0.225-0.26l0.395-0.177l0.038-0.17l0.069-0.031l0.007-0.111l-0.097-0.031l0.007-0.184l0.173-0.038l0.059-0.076l-0.031-0.087l0.125-0.191l0.152-0.019l0.042-0.12l-0.166-0.036l-0.171,0.156l-0.449,0.102l-0.149-0.139l-0.052-0.229l0.12-0.203l0.203-0.054l0.132-0.18l-0.021-0.066l-0.152-0.028l-0.173,0.038l-0.222,0.437l-0.083-0.007l-0.062-0.146l-0.177-0.132l-0.017-0.09l0.048-0.028l0.08,0.055l-0.003-0.052l-0.069-0.1V435.3l-0.042-0.191l-0.104-0.062l-0.215,0.118l-0.038-0.021l0.01-0.146l0.173-0.073l0.021-0.073l-0.177,0.042l-0.014-0.177l0.114-0.125l0.028,0.045l-0.035,0.076l0.073,0.052l0.128-0.01l0.038-0.017l-0.066-0.007l-0.076-0.028l0.125-0.107l0.014-0.118l0.222-0.201l0.104-0.236l0.094-0.655v-0.152l0.076-0.014v-0.104l-0.076-0.042l0.01-0.17l0.062-0.035l-0.028-0.107l-0.1-0.031l-0.066-0.277h0.038l0.035,0.048l0.031-0.042l-0.059-0.083l-0.048-0.003l-0.09-0.409l0.035-0.36l-0.042-0.111l-0.042-0.499l0.083-0.097l-0.014-0.118l-0.076-0.042l-0.049-0.229l0.097-0.083v-0.104l-0.132-0.055l-0.111-0.125l-0.18,0.018l-0.105-0.06l0.083-0.395l0.301-0.104l0.315,0.007l0.201-0.249l0.107-0.329l-0.254-0.435l-0.11-0.48l-0.45-0.461l-0.028-0.433l0.132-0.059l0.062,0.111l0.097,0.035l0.058-0.141l0.041-0.303l-0.148-0.082l0.035-0.055l0.128,0.025l0.059-0.441l0.09-0.118l-0.048-0.139l-0.236-0.18l-0.007-0.222l-0.229-0.097l-0.139,0.159l-0.099,0.003l-0.123-0.475l-0.284-0.27l-0.118-0.007l-0.062,0.076l-0.069-0.042l0.042-0.346l0.118-0.062l-0.028-0.146l-0.873-0.811l0.246-0.81l0.074-0.037l0.275,0.092l0.097-0.069v-0.243l-0.18-0.339l0.166-0.256l0.222,0.042l0.125,0.43l0.187,0.146l0.651-0.908l0.17-0.003l0.017-0.104l-0.083-0.156l0.139-0.229l0.589-0.083v-0.194l-0.249-0.194l0.028-0.416l-0.242-0.464l-0.128,0.01l-0.08-0.152l0.047-0.148l-0.247-0.445l-0.152,0.007l-0.014-0.128l0.204-0.3l-0.036-0.159l0.062-0.039l0.094,0.01l0.014-0.144l0.056,0.021l0.015,0.153l0.027,0.025l0.262,0.223l0.016,0.257l0.262,0.213l0.216,0.062l0.068,0.065l0.029,0.161l0.294,0.413l0.282,0.003l0.028,0.052l-0.066,0.055l0.069,0.17l0.066-0.048l0.055,0.024l-0.024,0.055l-0.086,0.039l-0.008,0.1l0.042,0.108l0.057,0.016l0.094-0.055l0.021-0.078l0.215-0.005l0.021,0.033l-0.095,0.019l-0.008,0.112l0.044,0.006l0.006,0.035l-0.075,0.023l-0.01,0.017l0.035,0.031l-0.012,0.016l-0.035,0.005l0.003,0.026l0.054,0.076l-0.009,0.031l-0.066-0.014l-0.057-0.078l-0.073-0.003l-0.073,0.081l-0.013,0.249l0.046,0.135l0.194,0.048l0.355-0.041l0.052-0.162l0.067-0.078l-0.003-0.121l0.06-0.125l-0.005-0.107l-0.096-0.166l-0.005-0.21l-0.093-0.244l0.062-0.187l-0.028-0.374l-0.09-0.062l-0.118-0.277l-0.367-0.166l-0.069-0.09l0.132-0.104l0.062-0.139l0.833-0.144l0.104-0.249l0.095-0.081l0.305-0.107l0.305-0.291l0.028-0.111l0.36-0.104l0.035-0.118l0.229-0.191l0.026-0.161l0.265-0.281l0.047-0.338l0.047-0.114l0.203-0.13l-0.047-0.187l0.068-0.135h0.317l0.161-0.104l0.016-0.099l0.047-0.104l0.114-0.01l0.114,0.062l0.364-0.01l0.021,0.052l-0.083,0.021l-0.031,0.062l0.114,0.016l0.14-0.094l0.307-0.005l0.182-0.156l0.109-0.234l0.068-0.405l-0.197-0.26l-0.234,0.01l-0.031-0.062l0.223-0.197l0.094-0.405l0.156-0.348l-0.036-0.12l0.021-0.416l0.177-0.249l-0.005-0.177l-0.062-0.026l-0.27,0.177l-0.109,0.151l-0.172,0.083l-0.01-0.062l0.156-0.088l0.146-0.213l-0.026-0.109l0.094-0.042l0.031-0.094l0.042-0.016l0.047,0.062l0.078,0.005l0.109-0.135l0.021-0.218l-0.068-0.12l-0.114-0.026v-0.125l0.234-0.187l-0.005-0.171l-0.068-0.052l0.021-0.099l0.151-0.057l0.062-0.135l0.249-0.213l0.286-0.052l0.125-0.156l0.005-0.208l0.14-0.021l0.312-0.159l0.377-0.22l0.044-0.164l0.094-0.104l0.146-0.008l0.164-0.172l0.031-0.086l0.156-0.003l0.122-0.049l0.013-0.068l-0.052-0.065l0.036-0.036l0.291,0.133l0.138,0.078l-0.044,0.042l0.057,0.047l0.091-0.044l0.416,0.091l0.421,0.083l0.325,0.031l0.213-0.013l0.018,0.068l-0.239,0.044l-0.33-0.008l-0.047,0.034l-0.044,0.174l0.114,0.265l0.073,0.338l0.083,0.057l0.192-0.052l0.088-0.239l0.088-0.13l0.026-0.166l0.125-0.151l0.026-0.187l-0.094,0.005l-0.01-0.068l0.149-0.074l0.152-0.18l-0.048-0.457l0.215-0.513l0.617-0.118l0.693,0.305l0.575,0.062l0.104-0.069l0.256-0.021l0.118,0.083l0.854-0.047l0.322-0.114l0.151-0.281l0.39-0.286l0.639-0.374l0.572-0.488l0.956-0.291l0.972-0.509l0.385-0.769l-0.036-0.333l-0.099-0.031l-0.021-0.052l0.146-0.114l0.197,0.021l0.301-0.026l0.107-0.06l0.075,0.042l-0.016,0.086l-0.083,0.042l-0.052,0.073l0.055,0.068l0.021,0.091l0.148-0.013l0.039-0.096l0.094-0.055l0.104-0.008l0.055-0.153l0.083-0.057l-0.005-0.047l-0.073,0.034l-0.197,0.003l-0.062-0.031l-0.055,0.008l-0.042-0.026l0.247-0.252l0.229-0.138l0.075,0.029l-0.112,0.109l0.094,0.107l0.073-0.086l0.12-0.016l0.057-0.047l0.005-0.114l-0.044-0.005l-0.018-0.036l0.151-0.031l-0.026,0.049l0.01,0.06l0.099,0.008l0.047-0.073l0.156-0.075l-0.07-0.075l-0.2,0.057l-0.075-0.018l0.023-0.062l0.229-0.099l0.132,0.057l0.388,0.029l0.319,0.172l0.229,0.014l0.544,0.284l0.031,0.229l0.437,0.613l-0.094,0.312l-0.312,0.114l-0.414,0.411l-2.48,0.814l-1.012,1.822l-0.801,0.248l-0.69,0.801l-0.4,1.008l-0.515,0.626l-0.017,1.306l-0.329,0.672l0.204,0.326l-0.499,1.008l-0.208,0.073l-0.804,1.26l0.003,0.195l0.558-0.05l0.482-0.335l0.414,0.227l-0.099,0.217l0.236,0.236l0.27-0.222l0.281,0.146l0.48,1.828l0.957,0.957l0.075,0.993l0.094,0.265l-0.031,0.109l-0.222-0.115l-0.219,0.356l0.049,1.891l0.539,0.165l0.331-0.054l0.179,0.179l0.014,0.304l0.479,0.879l0.389,0.122l0.395-0.057l0.083-0.223l0.286,0.026l0.135,0.233l0.171-0.036l0.052-0.135l0.203,0.026l0.021,0.13l1.471-0.109l0.218,0.073l0,0.127l0.463,0.024l0.509-0.296l1.144-0.069l0.306,0.365l0.676,0.156l0.26-0.146l0.379,0.036l2.557,3.177l0.343-0.059l0.156,0.279l0.249,0.001l0.359-0.493l0.232-0.073l0.531,0.223l0.998,0.021l0.706-0.107l0.728,0.023l0.301-0.177l0.779-0.003l0.566-0.336l0.9,0.062l0.409,0.294l0.062,0.152l-0.132,0.173l0.211,0.468l-0.021,0.156l-0.52,0.364l-0.104,0.197l-0.01,1.05l-0.114,0.322l-0.603,0.333l-0.114,0.322l0.01,2.824l0.215,0.333l-0.069,0.797l0.319,0.617l0.34,1.074l0.45-0.04l0.313,1.012l0.325,0.199l0.062,0.152l-0.236,0.547l-0.263,0.049l-1.538,1.337l-0.007,0.312l0.145-0.007l0.083-0.194l0.443,0.18l0.263-0.028l0.194,0.54l0.249,0.014l1.129,1.171l-0.111,0.388l0.166,0.402l0.215,0.055l0.055,0.166l-0.102,0.383l0.386,0.525l0.45,1.524l0.17,0.135l0.038,0.227l-0.104,0.151l0.041,0.129l-0.823,0.2l-0.046-0.28l-0.229-0.187l0.042-0.187l0.249-0.062l-0.073-0.738l-0.156-0.114v-0.686l-0.27-0.426l-0.468-0.177l-0.062-0.904l-0.156-0.066l-0.363,0.243l-0.197-0.031l-0.135,0.062l0.042,0.218l-0.291,0.291l-0.39-0.101l-0.597,0.786l-0.364,0.021l-0.132-0.326l-0.554-0.443l-0.291,0.53l0.443,0.537l-4.462,0.007l-0.624-0.152l-0.398,0.159l-0.703,0.104v2.245l0.146,0.069l0.298-0.173l0.18-0.007l0.104,0.118l0.818-0.014l-0.007,0.139l0.125,0.028l0.298-0.173l0.166,0.007l0.298,0.291l0.152,0.852l-0.139,0.097l0.028,0.111l0.263,0.208l-0.021,0.083l-0.229-0.044l-0.166,0.134l-0.457-0.055l-0.43-0.388l-0.132-0.028l-0.433,0.294l-0.246-0.031l-0.381,0.298l-0.936,0.08l-0.062,2.668l1.632,1.185l0.146,0.437l-0.156,0.333l0.312,0.625l0.405,0.331l0.125,1.237l-0.312,0.409l-1.699,9.916l-0.078,0.061l-1.168-1.327l-0.368-0.129L376,464.652l-0.957-0.258l2.503-3.828l-0.152-0.239l-0.814-0.552l-0.87-0.193l-1.118-0.773l-0.69-0.069l-0.704,0.483l-0.621-0.014l-0.966-0.704l-0.704,0.055l-0.331,0.456l-0.833,0.446l-0.768,0.078l-0.649-0.29l-0.704-0.014l-0.768,0.207l-0.773-0.681l0.202-1.288l-0.387-0.46l-0.626,0.11l-0.663-0.405l0.253-0.658l-0.525-1.035l-0.828-0.152l-0.538-0.525l-1.104-0.354l-0.014-0.709l-0.465-0.893l-1.067-0.778l-0.138-0.345l-0.175-0.055l-0.336,0.041l-0.248-0.041l-0.233-0.343l-0.673-0.283l-0.35,0.276l-1.325-0.571l-0.644-0.037l-1.192-1.21l-0.759-0.097l-0.368,0.626l-1.109-0.046l-1.187-0.152l-0.193-0.29l-1.463-0.179l0.069-0.814l-0.594-0.304l-0.028-0.276l-0.221-0.179l-0.943,0.124l-0.934-0.566l0.028-0.345l-0.359-0.373l-0.414,0.041l-1.424-0.935l-0.028-0.225l-0.187-0.177l-0.298-0.173l-0.185-0.248l0.031-0.14l0.494-0.514h0.27l0.197,0.171l0.166-0.005l0.104-0.104l0.156-0.01l0.139,0.081l0.074-0.087l-0.021-0.301l-0.088-0.031l-0.073-0.073l0.021-0.223l-0.104-0.094l-0.151,0.026l-0.199-0.527l0.048-0.326l0.256-0.277L346.059,441.323L346.059,441.323z M357.102,412.154l-0.01-0.068l-0.114-0.031l-0.047,0.099l0.052,0.099L357.102,412.154L357.102,412.154z M354.779,415.711v-0.052l-0.036,0.01l-0.021,0.035l0.028,0.035L354.779,415.711L354.779,415.711z M355.976,414.198l0.069-0.007l0.017-0.024l-0.069-0.01l-0.048,0.024L355.976,414.198L355.976,414.198z M351.129,436.527l0.059-0.104l-0.083-0.028l-0.024,0.035L351.129,436.527L351.129,436.527z M349.842,435.259l0.151,0.122l0.096,0.01l0.026-0.083l-0.039-0.169l-0.073-0.039l-0.166,0.13L349.842,435.259L349.842,435.259z M346.626,441.256l0.047-0.13l-0.099-0.177l-0.068-0.036l-0.099,0.088l-0.005,0.094l0.156,0.151L346.626,441.256L346.626,441.256z M346.906,441.053l-0.042-0.042l0.005-0.099l-0.057-0.14l-0.114-0.026l-0.078,0.161l0.114,0.156l0.125,0.031L346.906,441.053L346.906,441.053z M347.093,441.219l-0.01-0.156l-0.094-0.13l-0.062,0.016l0.062,0.083l0.021,0.218L347.093,441.219L347.093,441.219z M346.917,441.609l0.01-0.14l-0.016-0.13l-0.057,0.083l0.031,0.218L346.917,441.609L346.917,441.609z M346.795,441.29l0.028-0.083l-0.016-0.071l-0.057,0.005l-0.057,0.125L346.795,441.29L346.795,441.29z M346.88,441.287l0.057-0.026l0.017-0.133l-0.049,0.017l-0.031,0.048L346.88,441.287L346.88,441.287z M347.09,440.878l0.066-0.038l0.024-0.128l-0.055-0.066l-0.173,0.017l0.045,0.149L347.09,440.878L347.09,440.878z M347.274,439.561v0.069l0.118-0.09l0.014-0.159l-0.062,0.028L347.274,439.561L347.274,439.561z"/>
</svg>
