<svg xmlns="http://www.w3.org/2000/svg" viewBox="322.358 362.770 40.161 13.444">
  <path d="M329.95,365.556l-0.629,0.234l-0.26,0.53l-0.166,0.104l-0.177-0.083l-0.187,0.104l-0.249,0.457l-0.447,0.156l-0.281-0.073l0.021-0.104l-0.114-0.073l-0.197,0.197l-1.039,0.052l-0.239,0.166v0.478l-0.218,0.353l-0.322-0.062l-0.582,0.187l-0.644,0.471l-0.184,0.045l-0.08-0.045l-0.007-0.18l0.187-0.291l-0.073-0.146l-0.333-0.031l-0.52,0.182l-0.291,0.265l-0.457-0.042l-0.104-0.166l0.073-0.177l0.073,0.005l0.042,0.094l0.215-0.016l-0.048-0.107l0.048-0.014l0.069,0.097l0.09-0.033l0.26-0.187l0.54-0.161l0.088-0.099l0.197-0.083h0.088l-0.036,0.078l0.172,0.036l0.125-0.088l0.213,0.062l0.068,0.12l0.197-0.099l0.026-0.171l-0.052-0.026l-0.042,0.114l-0.068,0.016l-0.078-0.12l-0.021-0.229l-0.192-0.099l-0.13-0.239l0.073-0.473l0.333-0.421l0.4-0.343l-0.01-0.104l0.021-0.073l0.249-0.036l0.364-0.317l0.052-0.135l0.073-0.026l0.104,0.052l0.437-0.26l0.249,0.01l0.634-0.317l0.213-0.016l0.12-0.14l0.192-0.026l0.13-0.104l0.244,0.036l0.469-0.362l0.229-0.055l0.111,0.042l-0.055,0.09l-0.007,0.111l0.083,0.035l0.069-0.109l-0.007-0.14l0.672-0.083l0.021,0.062l-0.078,0.036l0.005,0.088l0.14-0.01l0.073-0.094l-0.064-0.104l0.769-0.069l0.485-0.083l0.236-0.173l0.242-0.048l0.159-0.187l0.499-0.09l0.949-0.076l0.693,0.187l1.032,0.014l0.152,0.132l0.021,0.132l-0.104,0.048l-0.048,0.069l0.208-0.007l0.111-0.194l0.637-0.187l0.485-0.236l0.159,0.007l0.111,0.069l-0.277,0.048l-0.319,0.18l0.052,0.08h0.125l0.197,0.301h0.208l0.083-0.194l0.298-0.055l0.499-0.215l0.242,0.035l-0.125,0.097l-0.145-0.014l-0.326,0.118l-0.014,0.139l0.437-0.007l0.346-0.139l0.36,0.048l0.173-0.125l-0.005-0.083l0.083,0.021l0.026,0.076l-0.111,0.125l0.305,0.312l0.561,0.236l0.069-0.159l0.534-0.215l0.125,0.194l-0.187,0.125l-0.277-0.007l-0.014,0.118l0.222,0.069l0.388-0.104l0.055-0.111l0.071-0.014l0.074,0.104l0.298,0.014l0.014,0.111l0.395,0.236l0.222-0.194l-0.083-0.229l0.118-0.028l0.076,0.055l-0.076,0.076l0.062,0.18l-0.132,0.104l0.035,0.194l0.166,0.028l0.36,0.194l0.222-0.048l0.146,0.423l0.187,0.132l0.222,0.353l0.152,0.021l0.256,0.319l0.409,0.256l0.326,0.021l0.166-0.055l1.372,0.021l0.055,0.215l0.132,0.09l0.048-0.132l-0.014-0.104l0.125,0.007l0.686,0.416l0.27,0.028l0.395,0.346l0.34,0.132l0.208-0.028l0.36,0.215l0.631,0.686l0.062-0.215l0.208,0.007l0.042,0.111l-0.152,0.062l0.333,0.243l0.057,0.187l0.366,0.173l0.36,0.014l0.367,0.277l0.146,0.166l0.215,0.021l0.042,0.166l0.194,0.146l0.201,0.021l-0.097,0.208l0.097,0.159l0.201,0.028l0.166-0.09l0.083-0.305l0.201-0.159l0.423,0.513l0.478,0.291l-0.028,0.139l-0.187,0.09l-0.042,0.097l0.291-0.132l0.062-0.173l0.139,0.062l0.319,0.021l0.139,0.173l-0.062,0.069l-0.152,0.014l-0.028,0.139l0.097,0.035l0.194-0.166l0.249,0.014l0.187,0.09l-0.09,0.097l-0.076,0.104l0.166,0.083l0.083-0.083l-0.049-0.097l0.042-0.104l0.457-0.014l0.873,0.457l0.055,0.187l0.464,0.104l0.242-0.118l0.215,0.007l0.18-0.09l0.173,0.055l0.208-0.021l0.194,0.194l0.139,0.014l0.18,0.152l-0.007,0.243l-0.249,0.36l0.208,0.062l0.159,0.242l-0.104,0.007l-0.173-0.18l-0.18,0.042l-0.367,0.035l-0.007,0.312l0.132,0.139l0.139,0.021l0.256-0.194l0.118,0.007l0.09,0.236l0.305-0.028l0.035-0.09l-0.236-0.042l-0.076-0.132l0.201-0.042l0.125,0.111l0.173,0.048l0.728,0.042l0.416,0.104l0.554-0.014l0.104,0.111l0.236,0.021l0.194,0.159l0.346,0.028l0.069,0.083l-0.035,0.111l0.52,0.298l0.395,0.561l0.139-0.014l0.242,0.194h0.291l0.146-0.069l0.159-0.014l0.236,0.166l0.118,0.222l-0.007,0.146l-0.305,0.187l-0.049,0.132l-0.111,0.139h-0.714l-0.152,0.055l-0.831,0.042l-0.409,0.042l-0.201,0.201l-0.249,0.035l-0.125,0.215l-0.617,0.069l-0.042-0.069l0.166-0.111l-0.055-0.139l0.146-0.097l-0.035-0.139l-0.125-0.042l-0.173,0.166l0.083,0.083l0.021,0.125l-0.197,0.218l-0.793,0.07l-0.09-0.053l-0.126,0.056l-0.56-0.073l-0.379-0.182l-0.46-0.016l0.003-0.075l0.044-0.07l0.005-0.068l-0.044-0.008l-0.049,0.06l0.008,0.078l-0.029,0.08l-0.049-0.002l-0.13,0.021l-0.587-0.104l-0.691-0.036l-0.899,0.14l-0.566-0.016l-0.759,0.083l-0.54,0.197l-0.461-0.076l-0.62-0.007l-0.152,0.184l-0.97,0.024l-0.291,0.104l-0.312-0.104l0.634-0.946l0.281-0.062l0.509-0.468l0.395-0.094l0.53-0.333l0.156-0.437l-0.166-0.26l-0.353-0.062l-0.125-0.114l0.166-0.197l-0.083-0.125l-0.135-0.031l-0.239-0.197l-0.52,0.146l-0.405-0.083l-0.572,0.021l-0.353-0.146l-0.197-0.01l-0.062,0.104h-0.52l-0.301-0.218l-0.146-0.208l-0.12-0.109h-0.125l-0.068-0.042l-0.052-0.161l-0.426-0.229l-0.208-0.197l-0.208-0.094l-0.114-0.915l-0.301-0.894l-0.265-0.26l-0.234-0.052l-0.173,0.121v-0.062l0.106-0.137h0.239l-0.021-0.057l-0.218-0.109l-0.296,0.021l-0.291,0.094l-0.587,0.021l-0.255,0.156l-0.4,0.005l-0.424-0.18l-0.355-0.017l-0.192-0.146l-0.062,0.057l-0.192-0.021l-0.203-0.192h-0.298l-0.18-0.09l-0.12-0.04l-0.137,0.137l-0.194-0.097l0.035-0.173l-0.055-0.069l-0.083,0.09l-0.386-0.007l-0.078-0.234l-0.317-0.036l-0.4-0.171l-0.641-0.584l-0.045-0.139l-0.135-0.026l-0.021-0.094l0.031-0.062l0.125,0.026l0.026-0.088l-0.182-0.227l-0.243-0.09l-0.076,0.062l0.277,0.291l-0.031,0.078l0.024,0.102l-0.748-0.048l-0.852,0.097l-0.637-0.152l-0.249-0.312l-0.028-0.27l-0.152-0.242l-0.104,0.069l0.09,0.256l-0.055,0.177l0.024,0.194l-0.038,0.003l-0.09-0.125L336,367.227l-0.021,0.139l-0.295,0.037l-0.081-0.083l-0.078-0.273l-0.395-0.094l-0.208,0.083l-0.294-0.104l-0.037,0.018l0.021,0.04l-0.014,0.033l-0.074-0.079l-0.052,0.047l-0.085-0.033l-0.161,0.016l0.003,0.068l-0.047,0.036l-0.325-0.143l-0.068-0.21l-0.249-0.052l-0.717-0.385l-0.073-0.156l0.094-0.083l0.707,0.01l0.437-0.017l0.239-0.1l0.27-0.007l0.114-0.249l-0.135-0.249l-0.551-0.343l-0.447-0.031l-0.452,0.073l-0.608-0.104l-1.185,0.031l-0.551-0.094l-0.249,0.021l-0.042,0.291L329.95,365.556z M351.278,369.476l0.021-0.083l0.159-0.118l-0.506-0.346l-0.152-0.028l-0.111-0.173l-0.222-0.083l-0.076,0.118l0.118,0.229l0.263,0.263l0.18,0.007L351.278,369.476z M350.315,368.686l0.069-0.083l-0.201-0.139l-0.319-0.333l-0.27-0.194l-0.083,0.055l-0.021,0.208l0.298,0.076l0.381,0.333L350.315,368.686z M350.222,368.772l0.104-0.01l-0.151-0.083l-0.047,0.052L350.222,368.772z M349.084,366.98l-0.203-0.171l-0.177-0.338l-0.083-0.031l0.078,0.26l0.146,0.218l0.197,0.114L349.084,366.98z M348.803,367.837l0.078,0.057l0.187,0.005l0.135,0.171l0.161,0.005l0.104-0.275l0.094-0.114l-0.182-0.208l-0.385-0.047l-0.213-0.161l-0.005-0.125l-0.208-0.187l0.057-0.104l-0.177-0.223l-0.166,0.016l-0.125-0.146l-0.052,0.016l-0.016,0.083l-0.197-0.135l-0.016-0.208l-0.213-0.239l-0.192-0.005l-0.229,0.031l-0.192-0.135l-0.036-0.114l-0.177-0.114l-0.01-0.078l-0.223-0.068l-0.187,0.109l-0.405-0.01l-0.249-0.14l-0.208,0.01l0.01,0.265l0.161,0.052l0.244,0.177l0.452,0.016l0.078-0.062l0.359,0.13l0.13-0.057l0.01,0.057l-0.062,0.094l0.192,0.073l0.239,0.333l0.431,0.01l0.146,0.161l-0.016,0.135l-0.104,0.094l0.062,0.052h0.073l0.146,0.213l0.171,0.016l0.094,0.088l0.005,0.218l0.286,0.192l0.094-0.099l0.068,0.057L348.803,367.837z M345.654,365.441l0.078-0.01l-0.088-0.135l-0.114,0.036l0.062,0.083L345.654,365.441z M342.687,365.057l0.14-0.016l0.327,0.255l0.114-0.016l-0.39-0.327l-0.374-0.192l-0.026,0.151L342.687,365.057z M343.908,365.327l0.182-0.109l-0.114-0.042l-0.275,0.083l-0.016,0.083L343.908,365.327z M344.334,365.161l0.114,0.036l0.104-0.047l-0.036-0.083h-0.369l-0.01,0.104L344.334,365.161z M344.37,365.509l0.109,0.182l0.172,0.031l0.348,0.156l0.286-0.052l0.021-0.062l-0.379-0.01l-0.156-0.099l-0.249-0.021l-0.057-0.135l0.036-0.208h-0.099L344.37,365.509z M345.41,365.738l0.068-0.01l-0.005-0.083l-0.094,0.052L345.41,365.738z M337.667,362.973l0.229,0.062l0.146,0.005v-0.078l-0.156,0.016L337.667,362.973z M338.358,363.061l0.14-0.021l0.171,0.036l0.078,0.052l0.166-0.005l-0.265-0.177l-0.156-0.052l-0.104,0.073l-0.265,0.01L338.358,363.061z M339.948,363.467l0.172,0.099l0.073-0.068l-0.094-0.094l-0.12-0.005L339.948,363.467z M340.156,363.877l0.083-0.016l-0.104-0.166l-0.031,0.088L340.156,363.877z M341.102,364.033l0.021-0.099l-0.281-0.047l0.047,0.078L341.102,364.033z M340.525,363.669l-0.021-0.109l-0.104-0.026l-0.005,0.114L340.525,363.669z M340.753,363.773l-0.005-0.094l-0.094-0.036l-0.021,0.104L340.753,363.773z M337.568,362.942l0.052-0.047l-0.073-0.068l-0.203-0.057l-0.031,0.078L337.568,362.942z M331.321,365.527l0.034,0.057l0.081-0.122l-0.021-0.086l-0.057,0.018L331.321,365.527z M328.921,369.225l0.016,0.13l0.367,0.468l0.537,0.042l0.125,0.09l0.551-0.111l0.502-0.191l0.308-0.267l-0.094-0.239l-0.139-0.1l0.083-0.236l-0.146-0.201l-0.236-0.104l-0.073-0.111l0.083-0.125l-0.052-0.073l-0.596-0.204l-0.381-0.007l-0.43,0.353l-0.104,0.249l0.388,0.488l0.104,0.267l-0.163,0.146l-0.371-0.021l-0.208-0.222L328.921,369.225z M342.971,371.194l0.204,0.114l0.177,0.125l0.031-0.104l-0.208-0.156L342.971,371.194z M343.986,371.984l0.551,0.301l-0.007-0.121l-0.326-0.18l-0.395-0.374l-0.197-0.062v0.125L343.986,371.984z M345.721,373.003l0.177,0.052l0.146-0.01l-0.073-0.104l-0.499-0.01l0.052,0.083L345.721,373.003z M346.357,372.812l0.289-0.09l0.073-0.104l-0.217,0.074l-0.137-0.092l-0.047,0.003l0.012,0.102l-0.184,0.068L346.357,372.812z M346.277,373.143l0.073,0.031l0.073,0.005l0.125,0.083l0.187,0.187l0.182,0.068l0.057-0.094l-0.208-0.13l-0.016-0.229l0.068-0.104l-0.104-0.114l-0.073,0.047l0.036,0.109l-0.016,0.244l-0.172-0.13L346.277,373.143z M345.347,372.905l-0.035-0.09l0.104-0.111h-0.083l-0.083,0.132L345.347,372.905z M345.631,372.594l0.083,0.042l-0.007-0.159l-0.097,0.048L345.631,372.594z M345.735,372.22l0.035-0.111l-0.111-0.104l-0.111,0.042l0.111,0.042L345.735,372.22z M345.139,372.698l0.069-0.083l-0.048-0.104l-0.097-0.035l-0.139-0.173l-0.222-0.069l-0.049,0.09l0.236,0.083L345.139,372.698z M334.864,369.185l0.074,0.149l0.317-0.078l0.412-0.355l-0.18,0.014l-0.146,0.18l-0.236,0.097l-0.173-0.028L334.864,369.185z M332.893,369.441l0.09,0.024l0.433-0.21l0.031-0.151l-0.062-0.016l-0.057,0.12L332.893,369.441z M333.598,369.261l0.078,0.042l0.135-0.146l0.099-0.036l0.042-0.073l-0.177,0.031L333.598,369.261z M331.592,369.391l0.013,0.049l0.107,0.055l0.073-0.052l-0.099-0.049L331.592,369.391z M332.127,369.438l0.166-0.034l-0.036-0.088l-0.109,0.073l-0.07,0.013l-0.023,0.036H332.127z M331.666,368.942l0.01,0.045l-0.076,0.031l-0.01,0.055l0.156-0.087v-0.052l-0.194-0.097l-0.09-0.003l-0.028,0.031l0.104,0.028L331.666,368.942z M331.69,369.084l-0.017,0.031l0.052,0.094l0.087,0.055h0.066l0.035-0.076l-0.049,0.014l-0.035,0.031l-0.08-0.066L331.69,369.084z M332.508,369.424l0.055-0.045l-0.007-0.052l-0.055,0.049l-0.104-0.014l-0.014,0.031L332.508,369.424z M331.233,368.717l0.021,0.121l0.049,0.028l0.083-0.021v-0.076l-0.087,0.035l-0.028-0.08L331.233,368.717z M332.903,369.285l0.038,0.035l0.166-0.052l-0.094-0.017L332.903,369.285z M327.304,367.834l0.024,0.076h0.288l0.007-0.035l-0.239-0.01L327.304,367.834z M327.765,367.962l0.139-0.028l-0.014-0.028l-0.128,0.021l-0.107-0.01l-0.007,0.035L327.765,367.962z M328.011,367.989l0.1-0.038l0.107,0.003l0.035-0.024l-0.159-0.024l-0.087,0.048l-0.055-0.024l-0.014,0.028L328.011,367.989z M328.832,368.485l0.062,0.139h0.042l-0.055-0.125l-0.024-0.08h-0.031L328.832,368.485z M329.723,367.989l0.031-0.021l-0.069-0.021l-0.1,0.028l0.01,0.031l0.069-0.028L329.723,367.989z M335.397,367.508l0.125,0.111l0.066,0.042l0.076-0.035l0.073,0.042l0.114-0.042l0.003-0.028l-0.062,0.007l-0.049-0.028l-0.01-0.042l-0.052-0.007v0.048l-0.1,0.038l-0.035-0.042l-0.204-0.146l-0.031,0.038L335.397,367.508z M336.229,367.446l-0.052,0.066l0.038,0.024l0.059-0.104v-0.083l-0.035,0.003L336.229,367.446z M335.928,367.577l-0.01,0.026h0.06l0.073-0.023l0.003-0.029l-0.065,0.021L335.928,367.577z M336.092,367.551l-0.008,0.029h0.06l0.047-0.021l-0.047-0.021L336.092,367.551z M334.699,367.12l0.01,0.052l-0.036,0.052l0.034,0.07l0.026-0.021l0.008-0.062l0.021-0.042l0.008-0.065l-0.044-0.057l-0.06,0.01L334.699,367.12z M334.727,367.32l-0.019,0.068l0.068,0.035l0.025-0.03L334.727,367.32z M334.837,367.432l-0.016,0.039l0.047,0.023l-0.034,0.034l0.044,0.029l0.031-0.042l0.036,0.01l0.026,0.073l0.047-0.06l-0.104-0.091L334.837,367.432z M330.724,365.213l0.073,0.073l0.01-0.047l-0.034-0.034L330.724,365.213z M330.742,365.478l0.039-0.042l0.01-0.042l-0.049-0.003l-0.026,0.073L330.742,365.478z M331.311,365.197l0.047,0.099l-0.005,0.049l0.055-0.013v-0.083l-0.057-0.052H331.311z M331.909,365.8l-0.023,0.065l0.044,0.042l0.003-0.088L331.909,365.8z M331.384,366.146l-0.016,0.039l0.036,0.023l0.003-0.047L331.384,366.146z M333.651,367.161l-0.01,0.073l0.048-0.007l-0.01-0.048L333.651,367.161z M332.196,365.939l0.059-0.045l-0.028-0.031l-0.038,0.042L332.196,365.939z M334.375,367.04v0.038l0.087,0.045l-0.035-0.062L334.375,367.04z M334.497,367.037l0.01,0.035h0.045l0.045,0.042l0.028-0.014l-0.062-0.055L334.497,367.037z M334.022,367.144l-0.031,0.066l0.042,0.01l0.007-0.052L334.022,367.144z M329.847,367.238l0.01,0.031h0.076l-0.007-0.035l-0.042-0.009L329.847,367.238z M330.097,367.546l0.01,0.052l0.045-0.014l0.01-0.052l-0.062-0.014l-0.003-0.045l-0.08,0.049L330.097,367.546z M330.357,367.497l0.068,0.013l0.023,0.034l0.047-0.056l-0.066-0.021l-0.159,0.017l-0.042,0.031L330.357,367.497z M330.53,367.705l0.107,0.003l0.035-0.024l-0.128-0.007l-0.073-0.061l-0.024,0.024L330.53,367.705z M330.793,367.761v0.048l0.062,0.024l0.073-0.007l-0.048-0.024l-0.059-0.01l-0.01-0.029L330.793,367.761z M330.977,367.958l0.007-0.045l-0.017-0.031l-0.035,0.01L330.977,367.958z M330.932,368.069l0.024-0.048l-0.024-0.024l-0.038,0.076L330.932,368.069z M331.069,368.133l-0.002,0.088l0.035,0.01l0.038-0.036L331.069,368.133z M329.861,367.331l0.045-0.007l-0.019-0.025l-0.039-0.003l-0.018,0.028L329.861,367.331z M329.885,367.394l0.024-0.021l-0.038-0.014l-0.021,0.031L329.885,367.394z M329.885,367.48l0.028-0.017l-0.024-0.028l-0.031,0.031L329.885,367.48z M329.972,367.491l0.01-0.038l-0.038,0.007l-0.01,0.045L329.972,367.491z M332.039,369.289l0.021,0.047l0.021-0.06l-0.034-0.026l-0.094,0.031l-0.003,0.039L332.039,369.289z M331.909,369.461l0.065,0.016l0.029-0.055l-0.008-0.031l-0.091,0.042L331.909,369.461z M333.478,368.918v0.039l0.055,0.016l-0.003-0.047L333.478,368.918z M333.904,368.928l0.008-0.026l-0.068,0.003l-0.016,0.044L333.904,368.928z M334.019,369.082l0.029,0.065l0.06-0.013l-0.044-0.036L334.019,369.082z M332.688,369.526l0.005-0.042l-0.021-0.034l-0.047,0.003L332.688,369.526z M333.941,368.248l0.042-0.031l-0.042-0.016l-0.052,0.031L333.941,368.248z M334.569,369.199l0.031-0.036l-0.057-0.016l-0.026,0.042L334.569,369.199z M331.077,368.474l0.007-0.038l-0.035,0.007l-0.014,0.028L331.077,368.474z M330.736,367.719l0.038,0.019l0.026,0.005l-0.017-0.024l-0.087-0.033l-0.016,0.016L330.736,367.719z M331.056,368.279l-0.005,0.044l0.052,0.057l0.021-0.023l-0.044-0.034v-0.039L331.056,368.279z M332.096,365.755l0.052-0.021l-0.087-0.01l-0.028,0.021L332.096,365.755z M334.753,369.185l0.066,0.01l-0.003-0.038h-0.042L334.753,369.185z M335.28,367.414l0.01-0.035l-0.066-0.031l0.003,0.035L335.28,367.414z M334.49,367.335v0.055l0.035-0.021l0.003-0.042L334.49,367.335z M334.5,367.435l0.024,0.038l0.035-0.038l-0.031-0.01L334.5,367.435z M334.829,367.574l0.031,0.069l0.018-0.035l-0.023-0.03L334.829,367.574z M334.712,367.416l0.006,0.029l0.021,0.019l0.015-0.026L334.712,367.416z M342.922,371.256l-0.062-0.09l-0.146-0.007l0.09,0.083L342.922,371.256z M345.472,371.303l-0.005-0.062l-0.068-0.052l-0.052,0.04L345.472,371.303z M344.433,371.506l0.042-0.031l-0.047-0.047l-0.036,0.068L344.433,371.506z M345.306,369.796l-0.028-0.064l-0.062-0.028l0.055,0.132L345.306,369.796z M345.285,370.046l-0.005-0.099l-0.042-0.036l0.01,0.104l-0.073,0.073L345.285,370.046z M345.082,370.217l0.052-0.021l-0.052-0.099l-0.016,0.062L345.082,370.217z M344.978,369.786l0.057,0.057l0.036-0.057l-0.094-0.047V369.786z"/>
</svg>
