<svg xmlns="http://www.w3.org/2000/svg" viewBox="1032.602 489.360 0.676 0.610">
  <path d="M1032.664,489.662l0.026-0.062l-0.007-0.033l-0.025-0.018l-0.008-0.025l0.011-0.048l0.023-0.007l0.023,0.017l0.017,0.029l0.072,0.036l0.086,0.014l0.105-0.032l0.086-0.058l0.014-0.028l-0.003-0.023l0.01-0.006l0.014,0.006l0.012-0.006l-0.001-0.029l0.01-0.019l0.015-0.004l0.023,0.011l0.058-0.017l0.018,0.01l-0.004,0.039l0.025,0.061l-0.004,0.037l-0.01,0.012l0.003,0.03l0.025,0.018l-0.001,0.014l-0.033,0.022l-0.032,0.004l-0.074,0.091v0.035l0.012,0.032l-0.032,0.062l-0.012,0.077l0.01,0.03l-0.01,0.026l-0.062,0.01l-0.032-0.012l-0.022-0.058l-0.007-0.09l-0.019-0.035l-0.029-0.019l-0.076-0.017l-0.033,0.01l-0.019-0.008l-0.014-0.021l-0.088-0.008l-0.023,0.011l-0.021,0.028l-0.029,0.01l-0.03-0.01v-0.029l0.035-0.043L1032.664,489.662z"/>
</svg>
