<svg xmlns="http://www.w3.org/2000/svg" viewBox="766.321 314.758 0.914 0.773">
  <path d="M767.177,315.437l-0.189-0.041l-0.04-0.011l0.024-0.034l0.042-0.004l-0.012-0.081l-0.059-0.001l-0.033-0.026l-0.006-0.093l-0.12-0.06l0.017-0.042l0.076-0.051l0.073,0.039l0.067-0.022l0.068-0.061l0.067,0.052l0.035-0.038l0.048-0.021v-0.035l-0.05-0.029v-0.054l-0.088-0.066l-0.028,0.011l-0.019,0.086l0.023,0.083l-0.065,0.06l-0.055,0.015l-0.075-0.041l-0.096,0.06l-0.029,0.049l-0.046-0.003l-0.032,0.034l-0.096-0.062l-0.101,0.072l-0.029-0.007l0.042-0.125l-0.045-0.017l-0.039,0.028l-0.069,0.017l-0.017,0.069l0.038,0.035l0.076,0.038l0.004,0.024l-0.025,0.018l0.004,0.034l0.055,0.025v0.028l-0.052,0.013v0.066l0.228-0.003l0.247,0.072l0.097,0.083l0.087,0.011l0.058-0.034l0.039-0.06L767.177,315.437z"/>
</svg>
