<svg xmlns="http://www.w3.org/2000/svg" viewBox="760.995 314.431 6.902 2.405">
  <path d="M767.892,315.437l0.005,0.021l-0.01,0.021l-0.023-0.005l-0.002-0.021l-0.021-0.007l-0.023,0.016l-0.026-0.003l-0.012-0.017l-0.052-0.026l-0.08-0.021l-0.026-0.028l-0.031-0.009l-0.024,0.009l-0.031-0.002l-0.031-0.017l-0.092,0.002l-0.062,0.035l-0.149,0.023l-0.026,0.031l-0.188-0.041l-0.04-0.011l0.024-0.035l0.042-0.003l-0.012-0.081l-0.059-0.001l-0.033-0.026l-0.006-0.092l-0.12-0.061l0.017-0.041l0.076-0.051l0.073,0.039l0.068-0.022l0.068-0.061l0.067,0.052l0.035-0.038l0.018,0.025l0.059,0.011l0.058-0.001l0.058-0.026h0.047l0.065,0.03l0.056-0.01l0.053,0.048l0.064,0.033l0.088,0.107l0.01,0.048l0.095,0.109l-0.002,0.019h-0.026l-0.002,0.026l0.016,0.007l0.003,0.012l-0.002,0.021l0.019,0.016l0.012-0.005L767.892,315.437z M766.473,315.289l0-0.028l-0.055-0.024l-0.003-0.035l0.024-0.017l-0.003-0.024l-0.076-0.038l-0.139,0.01l-0.062-0.017l-0.035-0.035l-0.055-0.007l-0.049,0.045h-0.042l-0.062-0.055l-0.007-0.045l-0.111-0.073l-0.055,0.007l-0.038,0.035l-0.08,0.007l-0.021,0.055l0.003,0.066l-0.035,0.128l-0.01,0.028l-0.062,0.007l-0.035-0.024l0.017-0.066l0.055-0.035l0.031-0.062l0.014-0.097l-0.048-0.139l-0.118-0.17l-0.059-0.076h-0.031l-0.007-0.024l0.031-0.017l-0.003-0.031l-0.045-0.048l0.003-0.042l-0.031-0.017h-0.055l-0.031,0.028l-0.024,0.083l-0.052,0.007l-0.035-0.035l-0.097,0.003l-0.021,0.042l-0.097,0.028l-0.149-0.028l-0.166-0.083l-0.146-0.028l-0.076,0.01l-0.083,0.087l-0.017,0.052l-0.049,0.024l-0.031-0.014l-0.035-0.048l-0.097-0.003l-0.18,0.069l-0.107,0.069l-0.024,0.062l-0.114,0.094l-0.107,0.028l-0.035-0.007l-0.107-0.042l-0.09,0.024l-0.017,0.031l0.014,0.042l-0.038,0.021l-0.066-0.01l-0.139-0.118l-0.024-0.045l-0.132-0.038l-0.038-0.038l-0.118-0.014l-0.045-0.062l0.017-0.111l-0.093-0.005l-0.07-0.031l-0.083-0.008l-0.036,0.021l-0.047-0.01l-0.031,0.013l-0.026,0.036l-0.075,0.016l-0.044,0.023l-0.052,0.008l-0.026-0.01l-0.005-0.021l-0.021,0.003l-0.039,0.101l-0.06,0.044l-0.06,0.122l-0.086,0.143l-0.13,0.104l-0.151,0.06l-0.133-0.008l-0.086-0.034l-0.185-0.14l-0.049-0.083l-0.044-0.003l-0.036,0.083l0.005,0.166l0.133,0.169l0.018,0.081l0.003,0.089l-0.009,0.029l-0.029,0.005l-0.003,0.027l0.044,0.023l0.049,0.091l-0.008,0.055l-0.029,0.023l0.005,0.039l0.078,0.104l0.023,0.06l0.039,0.01l0.031-0.008l0.078,0.047l0.026,0.081l0.008,0.12l0.049,0.14l-0.021,0.039l0.01,0.018l0.049-0.008l0.073,0.075l0.07,0.018l0.101,0.094l0.065,0.021l0.047-0.013l0.081,0.036l0.055,0.003l0.172,0.068l0.104,0.073l0.159,0.055l0.086,0.01l0.073,0.036h0.055l0.039-0.026l0.078,0.005l0.043-0.026l0.006-0.105l0.028-0.017l0.107,0.014l0.044-0.064l0.062-0.013l0.026-0.039l0.114,0.003l0.018,0.073l0.094,0.075l0.065,0.018l0.042-0.039l0.073,0.016l0.07-0.057l0.125,0.016l0.005,0.096l-0.057,0.008l-0.044-0.016l-0.039,0.036l0.013,0.057l0.034,0.01l0.026-0.029l0.062-0.013l0.083-0.003l0.092-0.091l0.13-0.086l0.203-0.081l0.138-0.021l0.156,0.023l0.244,0.005l0.031-0.018l0.023-0.042l0.062-0.021l0.083,0.023l0.052-0.008l0.062-0.044l0.09-0.01l0.159-0.076l0.059-0.055l0.156-0.052l0.097-0.003l0.045-0.045l0.1-0.069l0.052-0.052l0.069-0.017l0.09,0.003l0.042,0.028l0.028-0.021l0.003-0.052l0.042-0.062l0.073-0.066l0.007-0.038l-0.017-0.045l0.014-0.152l0.031-0.128l0.114-0.111l0.09-0.038v-0.066L766.473,315.289z"/>
</svg>
