<svg xmlns="http://www.w3.org/2000/svg" viewBox="1151.028 413.273 94.876 23.449">
  <path d="M1215.947,436.678l0.019-0.017l0.007-0.033l-0.024-0.053l-0.055-0.039l-0.068-0.001l-0.001-0.008l0.069-0.008l0.068,0.044l0.031,0.066l-0.007,0.039l-0.026,0.021l-0.046,0.015l-0.003-0.008L1215.947,436.678L1215.947,436.678z M1215.839,436.717l-0.006-0.011l-0.033-0.002l-0.01,0.011l0.018,0.007L1215.839,436.717L1215.839,436.717z M1245.859,431.117l0.032,0.006l0.006-0.017l-0.017-0.012l-0.026,0.001l-0.011,0.008L1245.859,431.117L1245.859,431.117z M1245.82,431.124l0.007-0.037l0.026-0.044l-0.004-0.068l-0.048-0.021l-0.091,0.011l-0.055,0.024h-0.021l-0.047,0.033l0.01,0.01l0.019-0.011l0.014,0.011l-0.014,0.028l-0.065,0.072l-0.065,0.047l-0.061,0.017l-0.024,0.021l-0.003,0.035l0.035,0.064l0.09,0.036h0.065l0.062-0.037l0.021,0.007l0.007,0.026l0.05,0.03h0.057l0.083-0.083l0.036-0.118l-0.008-0.033l-0.021-0.006l-0.03,0.008L1245.82,431.124L1245.82,431.124z M1237.182,427.766l0.008-0.012l0.015-0.003l0.012,0.003l0.005-0.01l-0.021-0.015l-0.024,0.007l-0.007,0.033L1237.182,427.766L1237.182,427.766z M1237.214,427.805l0.003,0.043l0.011,0.01l0.01-0.014l0.005-0.021l0.019-0.019l0.008-0.024l-0.005-0.015l-0.026-0.001l-0.001,0.012l0.014,0.015l-0.01,0.011l-0.018-0.006L1237.214,427.805L1237.214,427.805z M1233.684,426.113l0.007,0.01l0.025-0.001l0.012-0.012l-0.005-0.012l-0.022,0.001L1233.684,426.113L1233.684,426.113z M1233.698,426.036l0.01-0.001l0.007-0.033l-0.012-0.006l-0.008,0.012L1233.698,426.036L1233.698,426.036z M1233.717,426.063l0.007,0.006l0.028-0.019l0.011-0.035l-0.006-0.017l-0.028,0.001v0.014l0.014,0.007l-0.008,0.025L1233.717,426.063L1233.717,426.063z M1224.022,429.398l0.011-0.016l-0.013-0.022l-0.022-0.007l-0.014,0.01l0.009,0.019L1224.022,429.398L1224.022,429.398z M1224.51,429.124l0.003,0.012l0.016-0.002v-0.012l-0.011-0.007L1224.51,429.124L1224.51,429.124z M1224.721,429.375l0.01-0.014l-0.015-0.003l-0.023,0.011l-0.005,0.014L1224.721,429.375L1224.721,429.375z M1228.535,425.356l-0.006,0.024l0.019,0.005l0.016-0.012l-0.012-0.019L1228.535,425.356L1228.535,425.356z M1226.538,424.653l-0.003,0.019l0.011,0.006l0.014-0.012l-0.007-0.012H1226.538L1226.538,424.653z M1228.058,424.815l0.007,0.018l0.011-0.001l0.003-0.018l-0.012-0.008L1228.058,424.815L1228.058,424.815z M1226.5,424.558l0.014,0.006l0.008-0.006l-0.003-0.014h-0.014L1226.5,424.558L1226.5,424.558z M1227.248,425.536l-0.015-0.007l0,0.015l0.015,0.021l0.015,0.003L1227.248,425.536L1227.248,425.536z M1226.344,424.495l-0.011-0.017l-0.012,0.001l0.003,0.03l0.016,0.021l0.014-0.009L1226.344,424.495L1226.344,424.495z M1226.539,424.599l0.016,0.016l0.007-0.01l-0.017-0.027l-0.013,0L1226.539,424.599L1226.539,424.599z M1226.921,425.844l0.033,0.007l0.024-0.01l0.017-0.045l0.028-0.021l0.068-0.003l0.035-0.009l0.031-0.021l0.047-0.003l0.023-0.012l0.059-0.069l0.007-0.036l-0.012-0.014h-0.014l-0.005,0.016l0.002,0.031l-0.063,0.063l-0.043,0.003l-0.047,0.024l-0.087,0.007l-0.043,0.033l-0.012,0.04l-0.021,0.007l-0.021,0.003L1226.921,425.844L1226.921,425.844z M1228.139,424.843l0.007-0.019l0.021-0.005l0.021-0.024l-0.017-0.031l-0.017-0.002l-0.026,0.031l-0.002,0.045L1228.139,424.843L1228.139,424.843z M1228.261,424.894h0.023l0.007-0.016l-0.017-0.019h-0.019l-0.01,0.023L1228.261,424.894L1228.261,424.894z M1228.317,424.862l0.021-0.012l-0.004-0.019h-0.031l-0.017,0.019l0.012,0.014L1228.317,424.862L1228.317,424.862z M1228.299,425.064l0.028-0.012l0.031-0.087l-0.009-0.019l-0.019,0.005l-0.045,0.078l-0.007,0.023L1228.299,425.064L1228.299,425.064z M1227.966,424.887l0.042-0.002l0.023-0.021l-0.007-0.016l-0.035-0.009l-0.033,0.007l-0.007,0.023L1227.966,424.887L1227.966,424.887z M1228.042,424.793l0.014-0.003l0.007-0.012l-0.012-0.009l-0.01,0.009L1228.042,424.793L1228.042,424.793z M1227.696,425.26l0.01-0.012l-0.005-0.014h-0.014l-0.007,0.019L1227.696,425.26L1227.696,425.26z M1227.774,425.509l0.01-0.003l-0.002-0.014h-0.012l-0.007,0.012L1227.774,425.509L1227.774,425.509z M1227.778,425.606l-0.004,0.012l0.01,0.014l0.009-0.012l-0.002-0.017L1227.778,425.606L1227.778,425.606z M1227.708,425.218l-0.064-0.021l-0.026-0.064l0.01-0.076l0.085-0.052l0.03-0.031h0.052l0.04,0.049l0.036-0.007l0.016-0.054l-0.035-0.052l0.014-0.049l0.036,0.003l0.05,0.045l0.068,0.007l0.016-0.014l0.026-0.002l0.045,0.052l0.024-0.003l0.026-0.036l0.043-0.002l0.052,0.045l0.005,0.108l0.028,0.021l0.062-0.002l0.05-0.036l0.019,0.01l0.021,0.066l0.01,0.123l0.026,0.028l-0.007,0.028l-0.038,0.024l-0.016-0.012l-0.016-0.026l-0.035-0.003l-0.047,0.038l0.007,0.031l0.04,0.024l0.045-0.024l0.042,0.003l0.023,0.03l-0.009,0.03h-0.028l-0.026-0.012l-0.016,0.012v0.042l-0.024,0.059l-0.026,0.01l-0.007,0.028l0.01,0.036l-0.035,0.023l-0.05-0.01l-0.057-0.054l-0.035-0.002l-0.007,0.012l0.019,0.016l-0.014,0.024l-0.113,0.019l-0.066-0.017l-0.007-0.047l-0.023-0.005l-0.023,0.016l-0.099-0.019l-0.03-0.052l-0.04-0.042l-0.002-0.04l0.017-0.021l-0.005-0.028l-0.042-0.031l0.002-0.023l0.026-0.024v-0.066l-0.024-0.009L1227.708,425.218L1227.708,425.218z M1216.655,422.551l0.002-0.011l-0.009-0.007l-0.01,0.01l0.007,0.012L1216.655,422.551L1216.655,422.551z M1209.229,428.885l-0.007,0.012l0.02,0.028l0.012-0.007l-0.003-0.02L1209.229,428.885L1209.229,428.885z M1209.224,429.009l0.011,0.009l0.015-0.005l0.002-0.015l-0.015-0.004L1209.224,429.009L1209.224,429.009z M1209.117,428.909l-0.016-0.016l-0.012,0.004l0.006,0.015l0.015,0.007L1209.117,428.909L1209.117,428.909z M1211.315,430.47l0.015,0.001l-0.007-0.026l-0.018-0.01l-0.006,0.017L1211.315,430.47L1211.315,430.47z M1210.493,430.473l-0.012-0.004l-0.026,0.02l0,0.015l0.018-0.007L1210.493,430.473L1210.493,430.473z M1210.37,430.637l-0.003,0.019l0.011,0.006l0.014-0.012l-0.007-0.012H1210.37L1210.37,430.637z M1210.679,430.102l0.007,0.008l0.011-0.003l-0.001-0.014l-0.014-0.003L1210.679,430.102L1210.679,430.102z M1210.632,430.519l0.007,0.008l0.011-0.003l-0.001-0.014l-0.014-0.003L1210.632,430.519L1210.632,430.519z M1210.372,430.607l0.003,0.012l0.016-0.002v-0.012l-0.011-0.007L1210.372,430.607L1210.372,430.607z M1210.703,430.523l0.012-0.009l-0.014-0.01l-0.024,0.002l0.003,0.014L1210.703,430.523L1210.703,430.523z M1211.647,430.407l0.012-0.006l0.004-0.012l-0.008-0.01l-0.015,0.007l-0.003,0.011L1211.647,430.407L1211.647,430.407z M1210.784,430.034l0.012,0.012l0.049,0.142l-0.01,0.038l-0.017,0.003l-0.012,0.009l0.016,0.01l0.03-0.012l0.013-0.039v-0.024l-0.053-0.137l-0.023-0.024l-0.017,0.002l-0.003,0.015L1210.784,430.034L1210.784,430.034z M1211.582,430.33l-0.012,0.002l0.004,0.014l0.013,0.007l0.01-0.005L1211.582,430.33L1211.582,430.33z M1211.528,430.506l0.075-0.01l0.01-0.007l-0.012-0.004l-0.083,0.01l-0.01,0.01L1211.528,430.506L1211.528,430.506z M1211.647,430.497l0.026,0.004l0.043-0.012l0.012-0.026l-0.01-0.029l-0.018-0.007l-0.006,0.01l0.006,0.011l-0.001,0.024l-0.022,0.015l-0.042,0.004L1211.647,430.497L1211.647,430.497z M1211.38,431.153l0.037-0.029l0.004-0.03l-0.024-0.017l-0.011,0.01v0.022l-0.014,0.028l-0.026,0.007l-0.005,0.01H1211.38L1211.38,431.153z M1211.064,431.283l0.014,0.01l0.031-0.001l0.047-0.017l0.042-0.008l0.036-0.021l0.008-0.024l0.075-0.058l-0.012-0.003l-0.071,0.048l-0.021,0.03l-0.058,0.014l-0.057,0.022l-0.026-0.004L1211.064,431.283L1211.064,431.283z M1211.033,431.276l0.011-0.001l0.003-0.01l-0.012-0.007l-0.005,0.008L1211.033,431.276L1211.033,431.276z M1204.539,423.724l-0.028-0.007l-0.009,0.051l0.026,0.038l0.033-0.003l0.013-0.04L1204.539,423.724L1204.539,423.724z M1207.676,425.286l0.005,0.018l0.026,0.005l0.026-0.016v-0.018l-0.031-0.005L1207.676,425.286L1207.676,425.286z M1203.764,423.589l0.001-0.028l-0.022-0.021l-0.027,0.011l0,0.021l0.034,0.023L1203.764,423.589L1203.764,423.589z M1207.125,424.951l0.014-0.013l-0.009-0.024l-0.021-0.01l-0.015,0.008l0.005,0.02L1207.125,424.951L1207.125,424.951z M1204.541,423.563l0.002,0.015l0.024-0.011l0.007-0.02l-0.017-0.003L1204.541,423.563L1204.541,423.563z M1203.634,424.064l0.019-0.007l-0.01-0.014h-0.029l-0.007,0.015L1203.634,424.064L1203.634,424.064z M1204.532,424.482l-0.002-0.024l-0.012-0.001l-0.005,0.016l0.009,0.015L1204.532,424.482L1204.532,424.482z M1204.99,424.004l-0.003,0.019l0.01,0.005l0.011-0.014l-0.007-0.013L1204.99,424.004L1204.99,424.004z M1204.846,422.972l0.007,0.008l0.011-0.003l-0.001-0.014l-0.014-0.003L1204.846,422.972L1204.846,422.972z M1204.954,424.051l-0.005,0.011l0.014,0.009l0.008-0.01l-0.004-0.012L1204.954,424.051L1204.954,424.051z M1204.863,422.916l0.014,0.006l0.008-0.006l-0.003-0.014h-0.014L1204.863,422.916L1204.863,422.916z M1204.922,424.121l0.001,0.013l0.013,0.003l0.009-0.016l-0.009-0.009L1204.922,424.121L1204.922,424.121z M1204.099,422.351l-0.005,0.012l0.01,0.009l0.016-0.01l-0.004-0.012L1204.099,422.351L1204.099,422.351z M1204.562,424.319l-0.012,0.002l0.004,0.014l0.013,0.007l0.011-0.005L1204.562,424.319L1204.562,424.319z M1204.313,423.783l0.016,0.032l0.013-0.006l-0.006-0.041l-0.014-0.018l-0.012,0.004L1204.313,423.783L1204.313,423.783z M1204.761,422.652l0.015,0.001l-0.004-0.017l-0.02-0.014l-0.006,0.013L1204.761,422.652L1204.761,422.652z M1203.759,423.373l0.019-0.003l0.003-0.014l-0.016-0.01h-0.029l-0.007,0.014L1203.759,423.373L1203.759,423.373z M1204.001,423.46l0.014,0.005l0.007-0.01l0-0.022l-0.015-0.002l-0.009,0.016L1204.001,423.46L1204.001,423.46z M1207.582,425.513l0.01-0.014l-0.015-0.003l-0.023,0.011l-0.005,0.014L1207.582,425.513L1207.582,425.513z M1204.171,423.626l0.009-0.019l-0.007-0.01l-0.025,0.018l-0.011,0.024l0.015,0.007L1204.171,423.626L1204.171,423.626z M1204.552,423.082l-0.009-0.01l-0.013,0l-0.006,0.011l0.012,0.012l0.011-0.001L1204.552,423.082L1204.552,423.082z M1204.875,424.946l0.022-0.006l-0.006-0.011l-0.032,0.001l-0.007,0.011L1204.875,424.946L1204.875,424.946z M1203.195,423.616l0.012-0.006l0.004-0.012l-0.008-0.01l-0.015,0.007l-0.003,0.011L1203.195,423.616L1203.195,423.616z M1204.179,423.568l0.014,0.003l0.035-0.019l0.007-0.012l-0.024-0.028l-0.026,0.007l-0.003,0.019l0.007,0.014L1204.179,423.568L1204.179,423.568z M1203.881,423.5l0.021-0.014l0.023-0.002l0.014,0.021l0.033,0.012l0.03-0.007l0.012-0.012l-0.014-0.019l-0.057-0.021l-0.023-0.038l-0.019-0.005l-0.016,0.017l-0.002,0.035l-0.012,0.028L1203.881,423.5L1203.881,423.5z M1204.326,423.577l0.038,0.026l0.021,0.028l-0.003,0.063l0.007,0.026l0.035-0.002l0.007-0.017l-0.004-0.099l0.01-0.035l-0.01-0.023l-0.05-0.014l-0.028-0.019l-0.03,0.002l-0.017,0.021L1204.326,423.577L1204.326,423.577z M1204.076,423.545l0.014-0.01l-0.005-0.014l-0.012,0.003l-0.007,0.012L1204.076,423.545L1204.076,423.545z M1204.53,423.531l0.026-0.017l0.036-0.007l0.026-0.023l-0.021-0.04l-0.023-0.007l-0.033,0.003l-0.045-0.012l-0.024,0.019l-0.007,0.064l0.03,0.023L1204.53,423.531L1204.53,423.531z M1204.415,423.352l0.031-0.024l0.025-0.007l0.016-0.014l-0.007-0.021l0.009-0.021l0.052-0.03l0.054-0.002l0.023-0.016l-0.009-0.016h-0.043l-0.028-0.026l-0.059-0.009l-0.03-0.021h-0.045l-0.033,0.03l-0.002,0.078l0.023,0.096L1204.415,423.352L1204.415,423.352z M1203.371,423.646l0.03,0.023l0.043,0.01l0.049-0.016l0.005-0.03l0.035-0.052l0.01-0.002l-0.009,0.057l-0.017,0.03l0.003,0.028l0.023,0.009l0.089-0.038l0.005-0.017l-0.028-0.05l-0.021-0.019l0.002-0.01l0.038,0.021l0.017-0.009l-0.009-0.068l-0.045-0.033l-0.04-0.012l-0.036-0.052l-0.031,0.002l-0.01,0.028l0.016,0.026l-0.014,0.005l-0.033-0.019h-0.024l-0.026,0.028v0.026l0.03,0.024l0.035-0.005l0.012-0.028l0.038-0.007l0.031,0.026v0.028l-0.078,0.045l-0.116,0.028l-0.004,0.021L1203.371,423.646L1203.371,423.646z M1204.622,424.357l0.036,0.003l0.021-0.009l0.017-0.017l-0.017-0.002l-0.026,0.012l-0.04-0.009l-0.012,0.009L1204.622,424.357L1204.622,424.357z M1204.726,424.311l0.076-0.054l0.004-0.014l-0.016,0.002l-0.063,0.042l-0.01,0.021L1204.726,424.311L1204.726,424.311z M1204.884,424.207l0.023-0.01l0.026-0.021l-0.002-0.019l-0.012,0.003l-0.016,0.017l-0.036,0.028L1204.884,424.207L1204.884,424.207z M1202.474,419.042l0.005-0.007l-0.005-0.043l-0.01-0.005l-0.004,0.008l0.006,0.038L1202.474,419.042L1202.474,419.042z M1205.035,418.847l0.007,0.024l0.015-0.003l0.007-0.022l-0.015-0.011L1205.035,418.847L1205.035,418.847z M1203.964,419.447l-0.003,0.019l0.011,0.006l0.014-0.012l-0.007-0.012H1203.964L1203.964,419.447z M1204.144,419.367l0.001-0.015l-0.017,0.004l-0.014,0.02l0.013,0.006L1204.144,419.367L1204.144,419.367z M1206.185,418.455l-0.018-0.004l-0.007,0.015l0.005,0.023h0.015l0.01-0.017L1206.185,418.455L1206.185,418.455z M1205.796,418.794l0.023,0.002l0.011-0.006l-0.012-0.012l-0.025-0.002l-0.008,0.009L1205.796,418.794L1205.796,418.794z M1204.593,418.984l0.044-0.029l-0.01-0.013l-0.068,0.023l-0.01,0.026L1204.593,418.984L1204.593,418.984z M1196.318,418.945l0.021,0.005l0.023-0.016l-0.016-0.036l0.01-0.034l0.05-0.063h-0.021l-0.076,0.063l-0.008,0.042L1196.318,418.945L1196.318,418.945z M1198.758,418.271l0.004-0.008l-0.007-0.028l-0.011-0.003l-0.003,0.009l0.007,0.022L1198.758,418.271L1198.758,418.271z M1197.738,417.544l0.019-0.014l-0.005-0.011l-0.017,0.004l-0.008,0.015L1197.738,417.544L1197.738,417.544z M1198.572,418.076l-0.007,0.01l0.012,0.007l0.014-0.004l0.004-0.011L1198.572,418.076L1198.572,418.076z M1197.975,417.397l0.019-0.009l-0.01-0.012l-0.026-0.004l-0.008,0.011L1197.975,417.397L1197.975,417.397z M1199.055,418.953l0.017,0.001l-0.005-0.015l-0.021-0.015l-0.015,0.002L1199.055,418.953L1199.055,418.953z M1195.319,422.815l0.032,0.014l0.034,0l-0.006-0.014l-0.041-0.019l-0.027,0L1195.319,422.815L1195.319,422.815z M1195.402,422.439l-0.004-0.019l-0.014-0.003l-0.01,0.016v0.029l0.014,0.007L1195.402,422.439L1195.402,422.439z M1194.515,423.526l0.034-0.034l0.003-0.034l-0.026-0.013l-0.021,0.018l-0.005,0.049L1194.515,423.526L1194.515,423.526z M1194.471,423.477l0.016-0.018l-0.013-0.029l-0.044-0.008l-0.013,0.018l0.021,0.023L1194.471,423.477L1194.471,423.477z M1194.903,426.052l0.023-0.039l0.01-0.057l-0.01-0.023l-0.029,0.003l-0.018,0.021l0.003,0.089L1194.903,426.052L1194.903,426.052z M1188.743,420.758l0.007,0.008l0.011-0.003l-0.001-0.014l-0.014-0.003L1188.743,420.758L1188.743,420.758z M1185.35,420.838l0.007,0.008l0.011-0.003l-0.001-0.014l-0.014-0.003L1185.35,420.838L1185.35,420.838z M1183.289,422.964l-0.018,0.005l0.002,0.017l0.017,0.018l0.013-0.008l0-0.019L1183.289,422.964L1183.289,422.964z M1184.07,423.165l-0.018-0.001l-0.004,0.016l0.01,0.022l0.015-0.003l0.007-0.018L1184.07,423.165L1184.07,423.165z M1183.86,422.954l0.012,0.006l0.012-0.005l0.002-0.013l-0.015-0.007l-0.01,0.005L1183.86,422.954L1183.86,422.954z M1186.467,423.5l0.044-0.026l0.005-0.021l-0.031-0.008l-0.031,0.01l-0.01,0.039L1186.467,423.5L1186.467,423.5z M1182.197,422.268l0.024,0.014l0.014-0.024l-0.018-0.011l-0.021,0.005L1182.197,422.268L1182.197,422.268z M1180.369,416.435v0.018l0.018,0.003l0.008-0.018l-0.01-0.01L1180.369,416.435L1180.369,416.435z M1177.195,418.847l0.007-0.012l-0.012-0.007l-0.012,0.005v0.014H1177.195L1177.195,418.847z M1177.123,418.811l0.016,0.003l0.01-0.012l-0.01-0.012l-0.016,0.005V418.811L1177.123,418.811z M1177.165,418.889l0.014-0.01l-0.005-0.012l-0.019,0.005l-0.004,0.014L1177.165,418.889L1177.165,418.889z M1174.618,423.586l0.007,0.018l0.011-0.001l0.003-0.018l-0.012-0.008L1174.618,423.586L1174.618,423.586z M1174.601,423.41l-0.012,0.018l0.015,0.005l0.024-0.01l0.001-0.014L1174.601,423.41L1174.601,423.41z M1171.794,426.003l0.01,0.001l0.007-0.011l-0.014-0.007l-0.01,0.006L1171.794,426.003L1171.794,426.003z M1176.878,423.91l0.004-0.011l-0.01-0.006l-0.01,0.008l0.003,0.011L1176.878,423.91L1176.878,423.91z M1171.63,425.934l0.004-0.011l-0.01-0.006l-0.01,0.008l0.003,0.011L1171.63,425.934L1171.63,425.934z M1176.926,423.922l0.021-0.003l-0.005-0.026l-0.018-0.023l-0.013-0.029l-0.029-0.005v0.021l0.018,0.016l0.008,0.029L1176.926,423.922L1176.926,423.922z M1174.671,423.426l0.021,0.003l0.004-0.011l-0.021-0.011l-0.018,0.006v0.01L1174.671,423.426L1174.671,423.426z M1174.716,423.459l0.011-0.004l-0.003-0.011l-0.012-0.003l-0.007,0.011L1174.716,423.459L1174.716,423.459z M1174.759,423.487l0.018-0.003l0.017-0.01l-0.011-0.006l-0.029,0.003l-0.01,0.01L1174.759,423.487L1174.759,423.487z M1174.811,423.444l0.018-0.008l-0.003-0.017l-0.012,0.001l-0.011,0.014L1174.811,423.444L1174.811,423.444z M1174.877,423.438l0.021,0.033l0.001,0.021l-0.01,0.021v0.017l0.011-0.003l0.014-0.042l-0.001-0.021l-0.011-0.019l0.006-0.036l-0.015-0.021l-0.018,0.001l-0.015,0.025l0.003,0.018L1174.877,423.438L1174.877,423.438z M1161.7,420.518l0.007,0.008l0.011-0.003l-0.001-0.014l-0.014-0.003L1161.7,420.518L1161.7,420.518z M1161.611,420.493l-0.007,0.01l0.012,0.007l0.014-0.004l0.004-0.011L1161.611,420.493L1161.611,420.493z M1161.861,420.625l0.016,0.032l0.013-0.006l-0.006-0.041l-0.014-0.018l-0.012,0.004L1161.861,420.625L1161.861,420.625z M1162.299,414.532l0.021,0.012l0.033-0.019l0.026-0.033l-0.015-0.019l-0.035,0.006L1162.299,414.532L1162.299,414.532z M1159.559,413.516l0.014-0.007l-0.019-0.019h-0.021l0.004,0.017L1159.559,413.516L1159.559,413.516z M1159.43,413.302v0.014l0.012,0.011l0.019,0.002l0-0.013l-0.012-0.011L1159.43,413.302L1159.43,413.302z M1159.766,413.89l-0.005-0.008l-0.027-0.008l-0.008,0.008l0.006,0.007l0.023,0.005L1159.766,413.89L1159.766,413.89z M1159.184,413.317v0.014l0.014,0.008l0.012-0.008l-0.007-0.014H1159.184L1159.184,413.317z M1159.286,414.117l0.007,0.018l0.011-0.001l0.003-0.018l-0.012-0.008L1159.286,414.117L1159.286,414.117z M1158.99,413.593l0.007,0.008l0.011-0.003l-0.001-0.014l-0.014-0.003L1158.99,413.593L1158.99,413.593z M1160.047,413.876l0.003,0.012l0.016-0.002v-0.012l-0.011-0.007L1160.047,413.876L1160.047,413.876z M1159.239,413.816l0.003,0.012l0.016-0.002v-0.012l-0.011-0.007L1159.239,413.816L1159.239,413.816z M1160.065,413.822l0.014,0.006l0.008-0.006l-0.003-0.014h-0.014L1160.065,413.822L1160.065,413.822z M1159.319,413.273l-0.007,0.01l0.012,0.007l0.014-0.004l0.004-0.011L1159.319,413.273L1159.319,413.273z M1159.623,413.532l-0.005,0.031l0.021,0.013l0.034-0.013v-0.023l-0.023-0.013L1159.623,413.532L1159.623,413.532z M1159.85,413.933l0.022,0.006l0.001-0.012l-0.028-0.015l-0.012,0.006L1159.85,413.933L1159.85,413.933z M1159.241,414.05l0.007-0.012l-0.012-0.007l-0.012,0.005v0.014H1159.241L1159.241,414.05z M1158.89,413.445l0.01,0.001l0.007-0.011l-0.014-0.007l-0.01,0.006L1158.89,413.445L1158.89,413.445z M1158.848,413.47l0.004-0.011l-0.01-0.006l-0.01,0.008l0.003,0.011L1158.848,413.47L1158.848,413.47z M1158.955,413.449l0.014-0.009l-0.007-0.014l-0.016,0.005l-0.007,0.012L1158.955,413.449L1158.955,413.449z M1159.039,413.659l-0.005-0.019h-0.012l-0.005,0.014l0.009,0.017L1159.039,413.659L1159.039,413.659z M1159.15,413.988l0.003-0.017l0.01-0.021l0.017-0.022l-0.007-0.003l-0.026,0.019l-0.012,0.028l0.005,0.023L1159.15,413.988L1159.15,413.988z M1151.045,419.985l0.007-0.012l-0.012-0.007l-0.012,0.005v0.014H1151.045L1151.045,419.985z M1153.152,415.685l0.029-0.002l0.026-0.035v-0.04l0.021-0.056l0.056-0.026l0.064-0.064l0.036-0.003l0.023-0.019l0.005-0.118l0.021-0.035l0.014,0.005l0.021,0.099l0.047,0.024l0.036-0.012l0.014-0.023l0.068-0.033l0.021-0.021l-0.002-0.035l0.024-0.026l0.009-0.047l-0.014-0.019l-0.028-0.002l-0.043,0.042l-0.026-0.007l0.002-0.057l0.024-0.038l0.012-0.057l-0.023-0.059l-0.03,0.003l-0.062,0.092l-0.024,0.08l-0.023,0.002l-0.004-0.066l-0.021-0.021l-0.056,0.016l-0.054,0.116l-0.066,0.089l-0.021,0.064l-0.057,0.078l-0.007,0.057l-0.023,0.031l-0.005,0.096L1153.152,415.685L1153.152,415.685z M1153.522,415.042l0.016-0.014l0.004-0.052l-0.021-0.035h-0.028l-0.017,0.028l0.009,0.036L1153.522,415.042L1153.522,415.042z"/>
</svg>
