<svg xmlns="http://www.w3.org/2000/svg" viewBox="1146.645 412.737 103.534 18.863">
  <path d="M1149.048,415.254l0.005-0.124l0.234-0.358l0.075,0.013l-0.004,0.057l0.049,0.004l0.026-0.128l0.11-0.066l0.026,0.097l-0.049,0.04l-0.004,0.066l0.088,0.004l0.044,0.071l-0.137,0.141l-0.102,0.013l-0.026-0.062l-0.04-0.018l-0.013,0.097l-0.168,0.11l-0.075,0.159L1149,415.36L1149.048,415.254z M1149.419,414.658l0.049-0.018l0.004-0.079l-0.062-0.004l-0.018,0.075L1149.419,414.658z M1159.21,414.085l0.04,0.033l0.08-0.046l-0.007-0.046l-0.066,0.007L1159.21,414.085z M1147.03,418.971v0.035l0.033-0.011l-0.007-0.029L1147.03,418.971z M1146.977,419.046l-0.026,0.031l0.031,0.013l0.022-0.018L1146.977,419.046z M1146.652,419.987l-0.007,0.029l0.029,0.018l0.016-0.035L1146.652,419.987z M1167.61,426.127l0.156-0.02l-0.007-0.043l-0.176,0.003l-0.033,0.04L1167.61,426.127z M1146.745,419.965l0.018-0.018l-0.024-0.018l-0.02,0.009L1146.745,419.965z M1155.497,412.918l0.013-0.053l-0.128,0.04l0.013,0.071L1155.497,412.918z M1156.243,412.975l-0.04,0.031l0.057,0.035l0.044-0.04L1156.243,412.975z M1156.124,412.962l0.04-0.035l-0.066-0.137l-0.155-0.053l-0.04,0.035l0.168,0.075L1156.124,412.962z M1155.868,413.201l-0.071,0.115l0.044,0.009l0.057-0.079L1155.868,413.201z M1156.393,413.426l0.049-0.013l-0.062-0.031l-0.057,0.031L1156.393,413.426z M1155.823,413.625l0.035,0.102l0.035-0.026l-0.022-0.079L1155.823,413.625z M1155.965,413.17l0.031-0.04l-0.035-0.018l-0.026,0.031L1155.965,413.17z M1158.725,420.742l0.044-0.007l-0.046-0.077l-0.053-0.051l-0.04,0.04L1158.725,420.742z M1171.09,423.4l0.062-0.027l0.146,0.018l0.035,0.035l0.035-0.049l-0.093-0.062l-0.163,0.018L1171.09,423.4z M1173.484,423.793l0.066,0.115l0.04-0.035l-0.018-0.093l-0.062-0.022L1173.484,423.793z M1173.784,418.422l0.035-0.031l-0.049-0.027l-0.022,0.044L1173.784,418.422z M1180.85,422.31l0.03-0.046l-0.033-0.026l-0.06,0.046L1180.85,422.31z M1182.291,423.161l0.03-0.04l-0.043-0.017l-0.026,0.03L1182.291,423.161z M1182.152,423.29l-0.017,0.026l0.017,0.02l0.026-0.033L1182.152,423.29z M1182.258,423.529l-0.026,0.046l0.033,0.017l0.023-0.046L1182.258,423.529z M1182.775,423.132l-0.02,0.023l0.026,0.03l0.026-0.026L1182.775,423.132z M1183.321,423.39h0.036l-0.003-0.053l-0.036-0.007l-0.017,0.036L1183.321,423.39z M1185.077,420.667l0.046-0.06l-0.04-0.026l-0.04,0.046L1185.077,420.667z M1186.594,423.734l0.04-0.044l-0.053-0.044l-0.044,0.009l-0.009,0.071L1186.594,423.734z M1194.358,423.761l0.102,0.071l0.044-0.022l-0.031-0.057l-0.093-0.031L1194.358,423.761z M1195.365,422.705l0.026,0.026l0.031-0.035l-0.035-0.031L1195.365,422.705z M1195.321,423.059l-0.013,0.026l0.049,0.026l0.013-0.031L1195.321,423.059z M1196.456,419.15l-0.009-0.093l0.04-0.071l-0.018-0.026l-0.075,0.062l0.009,0.11L1196.456,419.15z M1198.143,417.476l0.022,0.035l0.066-0.035l-0.04-0.022L1198.143,417.476z M1198.987,418.355l0.013,0.053l0.035-0.013l-0.018-0.066L1198.987,418.355z M1199.283,419.084l0.031,0.027l0.053-0.018l-0.031-0.031L1199.283,419.084z M1207.867,425.179l0.04,0.053l0.046-0.026l-0.046-0.066L1207.867,425.179z M1204.985,423.37l-0.033,0.113l0.04,0.106l0.113-0.05l0.04-0.073l0.099-0.02l-0.033-0.043l-0.179-0.05L1204.985,423.37z M1203.987,423.836l-0.068-0.002l-0.051,0.024l0.13,0.062l0.053-0.086l-0.009-0.02L1203.987,423.836z M1203.965,423.756l0.044-0.018l-0.018-0.051l-0.035-0.009l-0.04,0.042L1203.965,423.756z M1204.044,423.714l0.035-0.011l-0.02-0.057l-0.035-0.007l-0.018,0.02L1204.044,423.714z M1204.082,423.814l-0.033,0.077l0.029,0.06l0.102-0.051l-0.015-0.062l-0.046-0.033l0.009-0.022l0.046,0.02l0.011-0.038l-0.031-0.044l-0.051-0.011l-0.024,0.031L1204.082,423.814z M1204.437,423.734l0.033-0.022l0.029,0.02l0.073,0.018l0.013-0.035l-0.06-0.018l-0.064-0.051l-0.031,0.053L1204.437,423.734z M1204.322,423.591l0.011-0.022l-0.042-0.009l-0.016,0.029L1204.322,423.591z M1204.278,423.812l0.035,0.018l0.009-0.033l-0.037-0.027l-0.02,0.011L1204.278,423.812z M1204.907,423.807l0.06,0.042l0.009,0.095l0.055-0.002l0.013-0.077l-0.009-0.077l-0.091-0.051l-0.055,0.018L1204.907,423.807z M1205.073,423.759l0.082,0.004l0.053-0.053l0.011-0.044l-0.121-0.011l-0.046,0.051L1205.073,423.759z M1205.106,424.013l0.033,0.049l0.04-0.024l0.005-0.053l-0.044-0.029l-0.026,0.015L1205.106,424.013z M1204.771,423.794h0.04l0.011-0.026l-0.04-0.026l-0.018,0.022L1204.771,423.794z M1204.722,423.858l0.018,0.015l0.031-0.02l-0.011-0.026L1204.722,423.858z M1204.919,424.046l0.022-0.022l-0.02-0.046l-0.018,0.02L1204.919,424.046z M1205.168,423.812l0.035-0.015l-0.024-0.02l-0.029,0.02L1205.168,423.812z M1205.164,423.302l-0.002-0.018l-0.031-0.004l0.005,0.031L1205.164,423.302z M1205.248,424.618l0.053-0.015l0.005-0.018h-0.075l-0.013,0.02L1205.248,424.618z M1205.345,424.54l0.011,0.013l0.068-0.035l-0.024-0.018L1205.345,424.54z M1205.51,424.443l0.007,0.02l0.035-0.02l0.002-0.033L1205.51,424.443z M1205.654,424.271l0.002-0.029l-0.018-0.007l-0.011,0.035H1205.654z M1205.139,424.748l0.004-0.031l-0.02-0.011l-0.02,0.031L1205.139,424.748z M1205.32,419.132l-0.009-0.031l-0.093,0.022l0.013,0.035L1205.32,419.132z M1204.614,419.649l0.022-0.026l-0.026-0.018l-0.022,0.022L1204.614,419.649z M1206.557,418.949l0.042-0.01l0.002-0.018l-0.065,0.005l-0.008,0.013L1206.557,418.949z M1211.755,430.443l0.181-0.018l-0.018-0.071l-0.133,0.018L1211.755,430.443z M1212.815,430.717l0.119-0.11l-0.044-0.044l-0.159,0.128L1212.815,430.717z M1212.4,430.978l-0.124,0.132h0.088l0.044-0.079L1212.4,430.978z M1226.344,429.491l-0.026,0.066l0.06-0.007l0.046-0.06H1226.344z M1226.734,429.372l-0.04,0.053l0.086,0.007l0.007-0.06H1226.734z M1228.914,424.9l0.192,0.02l0.007-0.106l-0.205-0.126l-0.099,0.093L1228.914,424.9z M1230.153,425.344c0,0,0.152,0.325,0.172,0.338s0.477,0.146,0.477,0.146l0.245-0.152l0.026-0.398l-0.411-0.219l-0.391,0.099L1230.153,425.344z M1229.616,426.013l0.086-0.179l-0.073,0.02l-0.139,0.205L1229.616,426.013z M1236.818,426.099l-0.013,0.079l0.086,0.013l0.013-0.119L1236.818,426.099z M1240.7,427.954l-0.079,0.086l0.086,0.04l0.066-0.079L1240.7,427.954z M1249.545,431.45l0.229,0.15l0.282-0.026l0.123-0.202l-0.026-0.255l-0.22-0.009l-0.185,0.194l-0.194,0.044L1249.545,431.45z"/>
</svg>
