<svg xmlns="http://www.w3.org/2000/svg" viewBox="608.922 183.072 5.403 5.615">
  <path d="M609.185,184.655l0.163-0.007l0.187,0.118l-0.038,0.031l-0.159-0.024l-0.156,0.007l-0.125-0.028l-0.08,0.024l-0.055-0.017L609.185,184.655z M611.511,187.407l0.076,0.066l-0.007,0.023l-0.036,0.017l0.007,0.036l0.067,0.03l0.008,0.016l-0.019,0.052l0.033,0.04l0.06,0.018l0.044,0.039l0.008,0.057l0.073,0.062l0.084,0.047l0.028,0.045l-0.052,0.104l0.132,0.192l0.36,0.239l0.031,0.075l0.234,0.117l0.094,0.005l0.034-0.055l-0.036-0.088l-0.055-0.023l-0.016-0.026l0.016-0.049l-0.021-0.037l-0.087,0.003l-0.01-0.042l0.031-0.024l-0.038-0.042l-0.146,0.038l-0.021,0.055l-0.042-0.024v-0.049l-0.071-0.05l-0.076-0.015l-0.007-0.023l0.205,0.029l0.094-0.059l0.135-0.042l-0.021-0.035l-0.104,0.003l-0.104-0.049l0.019-0.026l0.095,0.009l0.033-0.016l-0.031-0.048l-0.012-0.054l-0.062-0.012l-0.097-0.005l-0.047-0.028l-0.043,0.007l-0.019-0.021l0.038-0.016l-0.005-0.028l-0.132-0.068l0.008-0.023l0.03,0.006l0.173,0.095l0.097-0.001l0.059-0.052l-0.024-0.035l-0.052-0.003l-0.021-0.031l0.049-0.035l-0.028-0.038l-0.125-0.028l-0.083,0.024l-0.083-0.028l-0.055-0.08l-0.187-0.007l-0.158,0.03l-0.04-0.039l0.015-0.015l0.068-0.012l0.075-0.064l0.102-0.052l-0.017-0.017l-0.088,0.021l-0.066-0.003l-0.002-0.031l0.121-0.042l-0.014-0.042l-0.094-0.021l-0.191,0.017l-0.028,0.021l0.021,0.042l-0.021,0.021l-0.043,0.011L611.511,187.407z M612.026,186.592l0.055,0.066l0.107,0.059h0.097l0.024-0.052l-0.073-0.121l-0.1-0.038l-0.076,0.024L612.026,186.592z M612.386,186.966l0.011,0.095l0.026,0.023l0.062,0.003l0.023-0.025l-0.028-0.072l-0.072-0.047L612.386,186.966z M612.561,187.353l0.009,0.025l0.062,0.007l0.028-0.024l-0.023-0.032l-0.05-0.001L612.561,187.353z M614.029,183.487l0.078,0.031l0.174-0.062l0.044-0.068l-0.047-0.039l-0.078,0.031l-0.052-0.018l0.013-0.026l-0.023-0.039l-0.057-0.003l-0.06,0.034l-0.013,0.117L614.029,183.487z M613.712,183.793l0.083,0.057l0.005,0.055l0.021,0.075l0.055,0.003l0.179-0.049l0.031-0.099v-0.036l-0.088-0.044l0.013-0.026l0.086-0.008l0.065,0.021l0.042-0.013v-0.057l-0.042-0.044l-0.07-0.008l-0.034-0.044l-0.099,0.008l-0.055,0.109l-0.039,0.023l-0.049-0.018l-0.065,0.016l-0.036,0.047L613.712,183.793z M611.483,185.303l-0.016,0.026l0.049,0.034l0.073,0.016l0.055,0.036l0.023,0.036l0.026-0.018l-0.049-0.075l-0.094-0.047L611.483,185.303z M611.821,185.539l0.091,0.07l0.06,0.07l0.055,0.01l0.013-0.031l-0.07-0.109l-0.078-0.068l-0.099-0.021l-0.036,0.018l0.005,0.036L611.821,185.539z M612.715,185.223l0.026,0.062l-0.012,0.101l0.012,0.043l0.061,0.018l0.058,0.075v0.047l0.03,0.032l0.086-0.05l-0.004-0.057l-0.052-0.048l-0.008-0.063l-0.041-0.048l-0.05-0.015l-0.032-0.035l-0.011-0.065l-0.079-0.044l-0.017,0.021L612.715,185.223z M609.903,184.842l-0.059-0.003l-0.032,0.014l-0.003,0.031l0.103-0.001l0.029-0.02L609.903,184.842z M611.738,185.843l0.062,0.091v0.06l0.091,0.158l-0.016,0.044l0.091,0.122l0.042-0.003l0.003-0.049l0.117-0.034l0.042,0.016l0.049,0.042l0.031-0.01l-0.018-0.039l0.029-0.018l0.099,0.039l0.057,0.075l0.01,0.099l0.125,0.143l0.065,0.031l0.065,0.075l0.065-0.003l0.049-0.049l-0.008-0.073l-0.027-0.04l0.013-0.026l0.043-0.017l-0.013-0.075l-0.042-0.01l-0.01-0.023l0.094-0.039l0.052-0.057l-0.034-0.036l-0.07-0.003l-0.073-0.114l-0.086-0.062l-0.075,0.003l-0.229-0.086l-0.031-0.052l-0.117-0.052l-0.14,0.005l-0.099-0.06l-0.104-0.005l-0.135-0.031l-0.021,0.029L611.738,185.843z M612.234,183.342l0.003,0.062l0.1,0.166l0.08,0.055l0.159,0.184l-0.017,0.087l0.014,0.08l0.097,0.062l0.097,0.017l0.042-0.042l-0.01-0.1l-0.069-0.042l-0.066-0.069l-0.007-0.062l-0.222-0.274l-0.069-0.187l-0.094-0.083h-0.062l-0.014,0.069L612.234,183.342z M612.646,183.567l0.097,0.083l0.038,0.142l0.142,0.097l0.094,0.003l0.017-0.055l-0.055-0.201l-0.043-0.078l-0.071-0.054l-0.069-0.111l0.007-0.045l-0.021-0.083l-0.101-0.055l-0.062,0.038l-0.017,0.166L612.646,183.567z M613.197,183.238l0.017,0.049l-0.038,0.048l0.017,0.08l0.049,0.031l0.055,0.146l0.049,0.076l0.267,0.076l0.052-0.014l-0.003-0.038l0.087-0.069l-0.007-0.055l-0.101-0.069l-0.087,0.01l-0.017,0.08l-0.038,0.003v-0.107l-0.024-0.062l-0.069-0.035l-0.059-0.08l-0.028-0.139l-0.09-0.083l-0.1-0.014l-0.08,0.042l-0.007,0.055L613.197,183.238z M609.773,184.635l0.143,0.138l0.281,0.068l0.13,0.057l-0.017,0.015l-0.11-0.028l-0.151-0.027l-0.081,0.01l-0.008,0.034l0.068,0.049l0.026,0.042l0.208,0.034l0.039,0.034l0.203,0.039l0.112,0.083l0.127,0.013l0.198-0.065l0.016-0.023l-0.042-0.031l-0.101-0.021v-0.021l0.081,0.008l0.023-0.039h0.026l0.005,0.029l0.081,0.034l0.166-0.013l0.034-0.044l-0.013-0.055l0.021-0.031l0.049-0.023l0.008-0.047l-0.036-0.078l-0.094-0.042H611l-0.127-0.07l-0.034-0.073l-0.062-0.044l-0.083-0.016l-0.094-0.065l0.013-0.052l-0.039-0.018l-0.265,0.094l-0.052-0.01l-0.042,0.018l0.016,0.042l-0.052,0.055l-0.122-0.008l-0.049-0.049l-0.174-0.062l-0.065,0.036L609.773,184.635z M613.02,183.519l0.031,0.1l-0.017,0.12l0.01,0.047l0.033,0.023l0.016,0.064l-0.05,0.068l0.005,0.048l-0.019-0.003l-0.016-0.04l-0.055-0.012l-0.045,0.01l-0.014,0.028l0.029,0.1l0.059,0.05l0.066,0.097l0.073,0.055l0.052,0.068l0.048,0.024l0.042-0.016l0.002-0.036l-0.035-0.036l-0.031-0.05l-0.01-0.068l-0.04-0.045l-0.029-0.059l0.029-0.009l0.038,0.016l0.069,0.118l0.106,0.092l0.061,0.033l0.142,0.005l0.045-0.029l-0.002-0.031l-0.042-0.031v-0.023l0.028-0.031l-0.007-0.049l-0.045-0.023l-0.081-0.002l-0.095-0.052l-0.094-0.097l-0.021-0.055l0.012-0.016l0.047,0.019l0.047,0.057l0.128,0.066l0.121-0.017l0.047-0.04l0.024-0.08l-0.029-0.036l-0.057-0.005l-0.101-0.047l-0.137-0.035l-0.059-0.054l0.005-0.059l-0.029-0.054l-0.026-0.01l-0.144-0.184l-0.007-0.085l-0.017-0.031l-0.059-0.017l-0.045,0.021l-0.029,0.083l0.002,0.073L613.02,183.519z M611.104,183.622h0.055l0.052,0.035l0.104,0.211l0.014,0.066l0.142,0.139l0.055,0.118l0.052,0.052l0.073,0.024l0.121,0.118l0.049,0.017l0.107-0.007l0.09,0.052l0.059,0.1l0.069,0.055l0.128,0.069l0.097,0.121l0.048,0.003l-0.017-0.062l0.042-0.09l-0.01-0.128l-0.107-0.135l-0.149-0.08l-0.121-0.087l0.024-0.021l0.066,0.01l0.232,0.121l0.149,0.191l0.021,0.152l-0.045,0.003l-0.028,0.031l0.024,0.121l0.083,0.111l0.08,0.059l0.038-0.031l-0.017-0.052l0.014-0.118l-0.024-0.055l0.021-0.024l0.076,0.021l0.121-0.017l0.024-0.042l-0.042-0.055l-0.09-0.048l-0.097-0.017l-0.059-0.028l0.021-0.031l0.139,0.003l0.246,0.08l0.035-0.01l-0.059-0.049l-0.08-0.021l-0.118-0.076l-0.132-0.035l-0.038-0.045l-0.18-0.055l-0.01-0.042l0.031-0.045l0.211,0.031l0.18,0.059l0.042-0.028l-0.014-0.062l-0.062-0.042l-0.243-0.059l-0.031-0.038l-0.104-0.021l-0.059,0.035l-0.107-0.003l-0.08-0.052l-0.024-0.059l0.031-0.017l0.042,0.031h0.073l0.055-0.049l-0.003-0.083l-0.059-0.045l-0.142-0.021l-0.121,0.045l-0.035-0.014l0.038-0.066l0.069-0.035l-0.003-0.042l-0.08-0.021l-0.288,0.059l-0.052,0.104l-0.007,0.062l0.042,0.069l0.003,0.038l-0.062-0.049l-0.035-0.107l0.021-0.038l0.007-0.055l-0.024-0.049l0.097-0.08l0.114-0.052l-0.014-0.042l-0.097-0.028l-0.059-0.055l-0.128-0.052l-0.128,0.052l-0.042,0.052l-0.132,0.073l-0.076,0.003l-0.042-0.055h-0.045l-0.042,0.097L611.104,183.622z M610.533,184.284l0.003,0.045l0.073,0.003l0.062,0.045l0.01,0.055l0.049,0.042l0.118,0.014l0.028-0.049l0.055-0.01l0.035,0.024l-0.059,0.021l-0.031,0.073l0.08,0.094l0.159,0.031l0.111-0.017l0.118,0.007l0.111,0.087l0.069,0.125v0.146l0.087,0.08l0.132-0.017l0.045,0.045l0.055,0.17l0.187,0.118l0.09,0.028l0.055,0.066l0.177,0.118l0.135,0.024l0.035-0.045l-0.031-0.048l0.003-0.066l0.024-0.055l-0.01-0.031l-0.107-0.035l-0.045-0.052l0.017-0.028l0.042-0.003l0.035-0.042l0.003-0.097l-0.062-0.1l-0.142-0.031l-0.114,0.028l-0.139-0.052l-0.069,0.003l-0.083-0.031l0.007-0.031l0.069,0.021h0.059l0.08,0.028l0.087-0.003l0.094-0.031l0.028-0.038l-0.114-0.139l-0.146-0.069h-0.097l-0.083,0.055l-0.087-0.003l-0.017-0.024l0.066-0.007l0.097-0.08l0.097-0.007l0.014-0.042l-0.042-0.062l-0.114-0.073l-0.073,0.007l-0.035-0.017l-0.007-0.055l-0.125-0.09l-0.184-0.045l0.007-0.031l0.049-0.01l0.021-0.042l-0.052-0.09l-0.062-0.021l-0.139-0.166l-0.049-0.139l-0.062-0.083l-0.087-0.031l-0.059,0.021l-0.031-0.014l0.017-0.048l-0.09-0.045l-0.104,0.042l-0.076-0.01l-0.05,0.065l-0.042,0.19l0.031,0.049l0.044,0.01l0.006,0.015l-0.042,0.022l-0.034,0.186L610.533,184.284z"/>
</svg>
