<svg xmlns="http://www.w3.org/2000/svg" viewBox="621.519 231.137 9.985 10.186">
  <path d="M624.455,232.06l-0.013-0.05l-0.041-0.036l-0.004-0.024l-0.032-0.029l-0.027-0.008l-0.003-0.032l0.022-0.033l0.001-0.064l-0.041-0.024l-0.045,0.003l-0.029-0.035l-0.13-0.042l-0.091-0.001l-0.031,0.036l-0.034,0.006l-0.011,0.035l0.048,0.05l0.006,0.043l0.076,0.037l0.052-0.021l0.094,0.014l0.017,0.019l-0.018,0.021l0.001,0.029l0.027,0.026l0.02,0.071l0.049,0.039l0.097,0.004L624.455,232.06z M625.256,232.625l0.032-0.029l0.095-0.016l0.222-0.162l0.079-0.029l0.047-0.05l0.008-0.073l0.098-0.073l0.322-0.169l0.077-0.094l0.024-0.065l0.061-0.076l0.048-0.036l-0.016-0.029l-0.119-0.008l-0.098-0.026l-0.092,0.018l-0.053,0.05l-0.166,0.052l-0.066-0.003l-0.008-0.023l0.024-0.063l-0.108-0.201l-0.111-0.047l-0.045-0.078l0.024-0.065l-0.04-0.089l-0.114-0.052h-0.169l-0.069-0.031l-0.206-0.021l-0.061,0.013l-0.021,0.034l-0.04,0.003l-0.063-0.008l-0.137,0.021l-0.05,0.036l-0.124,0.013l-0.021,0.052l0.037,0.115l-0.005,0.065l-0.048,0.086v0.102l0.04,0.063l0.005,0.065l-0.037,0.089l0.021,0.076l0.032,0.029l0.021,0.06l0.092,0.073l0.082,0.099l0.011,0.065l-0.008,0.052l0.071,0.055l0.055,0.003l0.045,0.031l0.008,0.05l0.058,0.031l0.048-0.003l0.034,0.023l0.013,0.042l0.061,0.031h0.061l0.069,0.039l0.055,0.018l0.024-0.01L625.256,232.625z M623.939,240.069l0.045,0.029l0.04-0.013l0.003-0.023l-0.024-0.021h-0.098l-0.003,0.016L623.939,240.069z M621.778,239.778l0.032-0.003l0.023-0.016l0.002-0.017l-0.019-0.009l-0.033,0.005l-0.018,0.028L621.778,239.778z M621.709,239.607h0.033l0.058-0.03l0.007-0.014l-0.081-0.033l-0.049,0.009l-0.023,0.03l0.016,0.026L621.709,239.607z M621.542,238.996l0.025,0.002l0.021-0.019l0.002-0.043l0.018-0.045l-0.026-0.016l-0.037,0.012l-0.026,0.049v0.036L621.542,238.996z M624.818,234.28l0.018-0.01l-0.008-0.021h-0.024l-0.011,0.021L624.818,234.28z M623.569,234.57l0.055-0.031l0.034-0.05l-0.016-0.042l-0.047-0.005l-0.024,0.021l0.003,0.047l-0.026,0.055L623.569,234.57z M624.784,234.322l0.018-0.016l-0.013-0.018l-0.018,0.003l-0.011,0.021L624.784,234.322z M623.952,234.377l0.013-0.016l-0.013-0.01l-0.018,0.005v0.018L623.952,234.377z M629.77,241.323l0.019-0.014l-0.011-0.014h-0.023l-0.011,0.017L629.77,241.323z M629.856,231.957l0.094,0.066l0.123,0.001l0.084,0.035l0.263,0.176l0.104,0.126l-0.009,0.059l-0.079,0.054l-0.175,0.04l-0.003,0.021l0.054,0.026l0.125,0.106l0.099,0.037l0.058,0.007l0.062-0.037l0.017,0.012l-0.03,0.073l-0.044,0.042l0.002,0.028l0.085,0.045l0.052,0.109l0.007,0.183l0.027,0.019h0.037l0.026,0.031l-0.01,0.059l0.052,0.033l0.108,0.011l0.039-0.025l0.084,0.009l0.025,0.031l0.114,0.012l0.004,0.025l-0.02,0.033l0.02,0.09l-0.013,0.033l0.007,0.115l-0.021,0.024l-0.09,0.002l-0.137,0.113l-0.012,0.028l-0.023-0.002l-0.032-0.082l-0.098-0.109l-0.014-0.038l-0.044-0.027h-0.106l-0.025-0.02l-0.037,0.003l-0.031,0.028l-0.06-0.004l-0.032,0.016l-0.09-0.047l-0.047-0.047v-0.043l-0.02-0.002l-0.035,0.04l-0.072,0.004l-0.072,0.066l-0.023,0.05l-0.12,0.04l-0.056,0.012l-0.055-0.016l-0.04,0.009l-0.039,0.066l-0.005,0.092l-0.111,0.011l-0.011,0.024l0.034,0.016l-0.046,0.027v0.021l0.076,0.038l-0.002,0.025l-0.1,0.066l-0.004,0.019l0.021,0.026l-0.01,0.052l-0.036,0.03l-0.012,0.088l0.014,0.014l0.028-0.007l0.009,0.012l-0.016,0.026l0.007,0.028l0.05,0.023l0.098,0.01l0.095-0.045l0.025,0.017l-0.018,0.054l0.051,0.056l0.21,0.033l0.03,0.028l-0.037,0.045l0.019,0.017l0.03-0.007l0.06,0.03l-0.01,0.04l0.028,0.012l0.054-0.009l0.028,0.023l0.015,0.057l-0.011,0.023l-0.039-0.002l-0.016-0.016l0.011-0.024l-0.021-0.017l-0.067,0.026l-0.067-0.011l-0.026,0.009l-0.007,0.035l0.014,0.038l-0.043,0.07l-0.038,0.003l-0.007,0.026l0.015,0.064l-0.038,0.131l-0.109,0.02l0.001,0.018l0.043,0.005l0.038,0.026l-0.012,0.026l-0.042,0.007l-0.055,0.073l-0.005,0.044l-0.019,0.033l-0.073,0.043l-0.074,0.01l-0.01,0.07l0.065,0.073l0.026,0.087l-0.077,0.029l0.005,0.023l0.076-0.002l0.098-0.028l0.013-0.019l-0.03-0.033l0.025-0.036l0.093-0.025l0.074-0.062l0.065-0.023l0.06,0.009l0.03,0.092l-0.028,0.148l-0.023,0.015l-0.065-0.005l-0.029,0.047l0.021,0.052l-0.028,0.019l-0.264-0.003l-0.118,0.043l-0.155,0.084l-0.067,0.003l-0.118,0.104l-0.007,0.056l0.018,0.016v0.036l0.046,0.05l0.132,0.053l0.076,0.053v0.039l0.042,0.027l0.07,0.013l0.083,0.038l0.053,0.062l0.098,0.046l0.048,0.045l0.081,0.012l0.116-0.042l0.106-0.008l0.061,0.019l0.004,0.026l-0.03,0.064l-0.134,0.059l-0.014,0.054l0.012,0.04l-0.012,0.047l-0.028,0.028l0.003,0.041l0.066,0.028l0.089,0.005l0.007,0.032l-0.04,0.024l-0.108-0.016l-0.132,0.052l-0.008,0.053l-0.027,0.022l-0.049,0.002l-0.026,0.021l-0.025,0.095l-0.076,0.058l-0.007,0.026l0.018,0.027l-0.006,0.061l-0.086,0.063l-0.003,0.028l0.082,0.031l0.059-0.03l0.044,0.011l-0.004,0.024l-0.053,0.044l-0.105,0.033l-0.066,0.01l-0.026,0.038l0.018,0.03l0.033-0.004l0.074,0.026l-0.002,0.045l-0.042,0.021l-0.011,0.03l-0.012,0.106l0.035,0.062l0.087,0.061l0.015,0.063l-0.042,0.081l0.007,0.025l0.046,0.038l0.062,0.109l0.007,0.037l0.109,0.094l0.042,0.021l0.063,0.085l-0.008,0.045l0.038,0.033l0.074-0.014l0.027,0.023l0.001,0.078l0.059,0.008l0.151-0.081l0.062-0.004l0.038-0.033l0.009-0.022l0.046,0.005l0.102,0.049l-0.002,0.015l-0.049,0.011l-0.005,0.024l0.038,0.003l0.027-0.017l0.104,0.085l0.165,0.078l0.005,0.025l-0.028,0.027l0.004,0.035l0.132,0.12l0.051-0.002l0.014-0.031l0.023-0.002l0.019,0.032l0.02,0.001l0.019-0.024l0.025,0.004l0.005,0.045l0.03,0.003l0.03-0.017l0.068,0.022l0.009,0.04l-0.017,0.087l-0.059,0.012l-0.003,0.03l0.018,0.045l-0.03,0.089l0.005,0.036l0.06,0.037l-0.006,0.06l-0.07,0.067l0.007,0.064l0.058,0.059v0.062l-0.012,0.058l0.046,0.034l-0.006,0.034l-0.031,0.022v0.044l-0.034,0.034l0.009,0.054l0.065,0.066l-0.009,0.066l-0.076,0.034l-0.093,0.089l-0.071,0.031l-0.114,0.008l-0.314,0.161l-0.327,0.097l-0.09-0.005l-0.082-0.063v-0.042l0.023-0.032l-0.012-0.007l-0.061,0.037l-0.024,0.08l-0.05,0.045l-0.277,0.091l-0.169,0.102l-0.032,0.091l-0.063,0.073l-0.035-0.011l0.003-0.031l-0.05-0.005l-0.029,0.016l0.008,0.041l0.042,0.003l0.032,0.026l-0.031,0.167l-0.067,0.041l-0.116-0.024l-0.097,0.016l-0.051,0.05l-0.095,0.017l-0.079-0.026l-0.048,0.006l-0.046,0.031l-0.227,0.007l-0.095-0.024l-0.153-0.009l-0.188-0.044l-0.101,0.004l-0.088-0.03l-0.116-0.163l-0.13-0.085l-0.044-0.061l-0.062-0.036l-0.146,0.005l-0.09-0.026l-0.045-0.085l-0.057-0.039l-0.125-0.29l-0.195-0.196l-0.099-0.063l-0.098-0.003l-0.062,0.019h-0.172l-0.113,0.03l-0.042,0.057l-0.011,0.09l0.063,0.042l-0.007,0.016l-0.047,0.013l-0.129-0.029l-0.044,0.002l-0.063,0.041l-0.039,0.007l-0.116-0.033l-0.028-0.022l-0.048-0.009l-0.126,0.04l-0.011,0.038l0.039,0.035l-0.004,0.029l-0.026,0.014l-0.057-0.024l-0.075-0.016l-0.046,0.016l-0.007,0.031l-0.019,0.009l-0.111-0.028l-0.099-0.064l-0.081-0.033h-0.06l-0.007-0.014l0.039-0.042l0.011-0.062l-0.05-0.089l0.011-0.038l0.067-0.024l0.058-0.077l0.039-0.012l0.042-0.057l0.088-0.002l0.181,0.059l0.076-0.002l0.123-0.041l0.053-0.046l0.086-0.027l0.037-0.032l0.007-0.036l-0.019-0.045l0.009-0.016h0.021l0.019-0.028l0.002-0.031l-0.023,0.031l-0.03,0.002l-0.023,0.021v0.083l-0.026,0.033l-0.197,0.042l-0.06-0.014l-0.05-0.083l-0.056-0.039l-0.109-0.012l-0.106,0.019l-0.114,0.053l-0.09-0.002l-0.137-0.087l-0.116-0.12l-0.032-0.076l0.023-0.014l0.053,0.014l0.042-0.025l-0.002-0.017l-0.081-0.024l-0.026-0.084l0.037-0.068l0.001-0.06l0.027-0.032l0.046-0.019l0.026-0.028l-0.084,0.023l-0.043,0.036l-0.005,0.053l-0.083,0.08l-0.065,0.013l-0.095-0.038l-0.011-0.033l0.013-0.022l-0.021-0.04l-0.025-0.006l0.016,0.037l-0.018,0.026l-0.003,0.038l0.112,0.08l-0.01,0.026l-0.122,0.045l-0.359-0.024l-0.084,0.03l-0.087-0.013l-0.217,0.031l-0.09,0.036l-0.026,0.063l0.026,0.055l-0.039,0.132l-0.082,0.081l-0.127,0.024l-0.098,0.062h-0.06l-0.098-0.036l-0.156,0.005l-0.121,0.089l-0.021,0.054l-0.082,0.086l-0.058,0.006l-0.114-0.05l-0.185-0.026l-0.156-0.055l-0.005-0.041l0.026-0.021l0.006-0.032l-0.024-0.08l-0.055-0.029l-0.096-0.003l-0.068-0.039l-0.013-0.041l0.074-0.045l0.074,0.011l0.044,0.054h0.064l0.024-0.023l-0.024-0.037l0.021-0.033l0.071-0.008l0.114,0.036l0.074,0.005l0.074-0.041l0.076-0.029l0.05,0.005l0.037-0.01l-0.079-0.016l-0.098,0.016l-0.066,0.026l-0.058-0.003l-0.084-0.036h-0.248l-0.156-0.044h-0.135l-0.005,0.023l0.053,0.063l-0.029,0.062l-0.069,0.011l-0.034-0.024l-0.008-0.091l-0.08-0.063l-0.076-0.013l-0.066-0.049l-0.003-0.026l0.122,0.005l0.047-0.018l0.006-0.052l0.082-0.081l0.106-0.028l0.123,0.01l0.049-0.034l0.011-0.108l-0.07-0.247l-0.088-0.059l-0.191-0.028l-0.271-0.003l-0.148,0.035l-0.024-0.028l0.042-0.091l0.014-0.097l0.042-0.045l0.261-0.094l0.095-0.062l0.306-0.087l0.067-0.087l0.039-0.212l0.077-0.038l0.064,0.031l0.211,0.021l0.021,0.042l-0.028,0.048l0.042,0.028l0.204-0.073l0.053-0.108l0.043-0.003l0.049,0.062l0.148,0.014l0.028-0.021l-0.028-0.086l0.042-0.063l0.109-0.017l0.085-0.042l0.13-0.15l0.028-0.09l0.056-0.01l0.127,0.087l0.039,0.055v-0.073l-0.039-0.076l0.018-0.066l0.183-0.049l0.25-0.01l0.112,0.036l0.128-0.026l0.094-0.115l0.131-0.041l0.218-0.209l0.074-0.017l0.091,0.024l0.5-0.274l0.247-0.313l0.06-0.181l0.102-0.173l0.028-0.226l0.043-0.102l0.055-0.055l-0.005-0.174l0.005-0.071l0.029-0.002l0.072,0.023l0.1-0.023l0.129-0.058l0.043-0.057l-0.04-0.01l-0.113,0.036l-0.206,0.039l-0.08-0.036l-0.071-0.153l-0.12-0.136l-0.014-0.08l0.095-0.215l0.161-0.112l0.023-0.071l0.08-0.065l0.113-0.047l0.037-0.044l0.087-0.036l0.024-0.06l-0.048,0.039l-0.14,0.039l-0.036,0.039l-0.059,0.023l-0.104-0.028l-0.293-0.358l-0.003-0.08l0.081-0.104l0.003-0.101l-0.074-0.155l0.026-0.039l0.066-0.005l0.103-0.029l0.058-0.049l0.016-0.047l-0.034,0.002l-0.056,0.042h-0.042l-0.016-0.031l-0.045-0.005l-0.095,0.06l-0.066,0.005l-0.082-0.039l-0.142-0.023l-0.31,0.045l-0.046,0.063l-0.042,0.014l-0.19-0.004l-0.264,0.118l-0.138,0.16l-0.01,0.105l0.049,0.062l-0.018,0.045l-0.081,0.025l-0.038,0.048l-0.057-0.003l-0.035-0.115l-0.113-0.08l-0.126,0.007l-0.095,0.073l-0.275,0.024l-0.106,0.08l-0.088-0.031l-0.003-0.028l0.13-0.191l0.039-0.097l0.246-0.25l0.293-0.167l0.133-0.011l0.106-0.045l0.246-0.229l0.117-0.038l0.186-0.146l0.071-0.098l0.017-0.132l-0.031-0.128l0.024-0.056l0.039-0.003l0.028,0.066l0.042-0.007l0.025-0.125l0.085-0.052l0.123-0.129l0.095-0.049l0.063-0.066l0.004-0.066l0.088-0.062l0.207-0.097l0.233,0.006l0.186-0.072l0.032-0.053l0.155-0.069h0.074l0.201-0.097l0.102-0.014l0.063-0.045l-0.005-0.07l-0.029-0.039l-0.066-0.016l-0.032-0.049l0.019-0.031l0.095-0.003l0.066,0.031l0.01,0.037l0.035,0.018l0.058-0.018h0.074l0.15,0.073l0.029,0.054l0.066,0.029l0.367,0.026l0.127-0.018l0.203-0.078l0.117-0.076l0.066-0.021l0.108-0.01l0.29-0.097l0.164-0.023l0.061,0.023l0.01,0.058l0.043,0.049l0.367,0.204l0.25,0.198l0.132,0.062l0.008-0.023l-0.039-0.039l-0.005-0.079L629.856,231.957z"/>
</svg>
