<svg xmlns="http://www.w3.org/2000/svg" viewBox="408.162 388.800 3.012 2.637">
  <path d="M408.487,390.865l-0.09-0.062l-0.09-0.229l-0.076-0.603l-0.062-0.152l-0.007-0.222l0.132-0.215l0.18-0.007l0.069,0.076l0.368,0.152l0.026,0.052l-0.055,0.053l0.097,0.035l0.132-0.076l0.083-0.194l0.104-0.042l0.021-0.111l-0.104-0.048l-0.048-0.243l0.229-0.215l0.055-0.014l0.208,0.132l0.062,0.173l-0.042,0.18l0.118,0.159l0.194,0.035l0.215,0.097l0.097,0.152l0.215,0.055l-0.028,0.055l-0.249-0.028l-0.263,0.028l-0.443,0.18l-0.222-0.021l-0.18-0.132l-0.111,0.014l-0.007,0.132l0.111,0.45l-0.014,0.194l-0.18,0.159l-0.028,0.069l-0.312,0.111l-0.069-0.021L408.487,390.865z M409.009,389.46l0.034-0.018l-0.057-0.031l-0.021,0.052L409.009,389.46z M410.74,390.133l0.026-0.023l-0.073-0.008l0.005,0.029L410.74,390.133z M410.844,389.585l-0.005,0.065l0.174-0.049l0.091-0.083l0.07-0.021l-0.013-0.068l-0.086,0.018l-0.143,0.104L410.844,389.585z M410.004,391.264l0.163,0.042l0.246-0.104l0.045-0.08l-0.003-0.128l-0.083-0.052l-0.038-0.104l-0.142-0.073l-0.139,0.01l-0.076,0.09l0.003,0.073l-0.083,0.087L410.004,391.264z M408.75,391.364l0.09,0.038l0.066-0.073l-0.024-0.049l-0.104-0.003L408.75,391.364z M408.941,391.309l0.024,0.038l0.083-0.014l0.038-0.062l-0.049-0.035l-0.031,0.052L408.941,391.309z M409.02,391.437l-0.01-0.031l-0.024-0.021l-0.031,0.035L409.02,391.437z"/>
</svg>