<svg xmlns="http://www.w3.org/2000/svg" viewBox="675.857 441.811 7.828 5.420">
  <path d="M677.628,441.9l0.076-0.038l0.059-0.009l0.031-0.042l0.062,0.088l-0.031,0.13l0.062,0.171l0.14,0.055l0.068,0.075l-0.005,0.042l0.029,0.013l0.036-0.032l0.146,0.045l0.136,0.071l0.062-0.003l0.076,0.031l0.001,0.078l0.016-0.003l0.017-0.057l0.035-0.028l0.15,0.018l0.052-0.016l0.042,0.031l-0.01,0.034l0.031,0.016l0.06-0.052l0.088,0.023l0.081-0.055h3.583l0.161-0.096l0.122,0.049h0.075l0.057,0.031h0.343l-0.005,0.094l0.021,0.021l-0.109,0.174l-0.039,0.255l0.057,0.112l-0.008,0.049l-0.026,0.055l0.06,0.182l0.065,0.044l0.078,0.01l0.057,0.088l0.039,0.003l0.016,0.026l-0.029,0.036l0.003,0.107l-0.031,0.021l-0.021,0.065l0.008,0.036l-0.018,0.026l-0.026,0.021l-0.021,0.057l0.023,0.14l-0.026,0.036l0.013,0.146l-0.018,0.016l-0.078-0.005l-0.075,0.088v2.445h-1.414v-0.104h-0.618l-0.385,0.101h-2.536l-0.036,0.081l0.018,0.081l-0.01,0.052l0.023,0.016l-0.01,0.023l-0.047,0.01l-0.029-0.01l-0.049,0.01l-0.026,0.023l-0.081-0.034l-0.018-0.036L678.061,447l-0.029-0.06l-0.005-0.052l-0.049-0.049l-0.078-0.013l-0.042-0.031l-0.086,0.003l-0.034,0.018h-0.044l0.005-0.094l-0.042-0.101l0.016-0.026l0.088,0.005l0.13-0.057l0.062-0.003l0.036-0.047l-0.023-0.013l-0.06,0.018l-0.073,0.044l-0.075-0.003l-0.187-0.065l-0.114-0.016l-0.062,0.047l-0.062,0.008l-0.021-0.031l0.005-0.088l0.023-0.047l0.088-0.047l0.081-0.086l-0.034,0.003l-0.06,0.036l-0.016,0.029l-0.026,0.018l-0.055,0.016l-0.06,0.06l0.003,0.101l-0.036,0.052l-0.109,0.078l-0.148,0.062l-0.023,0.029h-0.031l-0.026-0.044l-0.008-0.062l-0.036-0.101l-0.073-0.114l-0.073-0.047l-0.171-0.02l-0.167,0.087l-0.065,0.003l-0.016,0.031l-0.029,0.003l-0.07-0.021l-0.047-0.094l-0.073-0.016l-0.005-0.029l0.021-0.026l-0.013-0.039l-0.055-0.034l0.008-0.029l0.075-0.018l0.042-0.047l0.075-0.268l0.047-0.055l0.057,0.005l0.031-0.021l0.008-0.055l0.034-0.052l0.049-0.021l0.034-0.14l-0.021-0.109l0.062-0.107l0.217-0.14l0.024-0.048v-0.042l0.024-0.024l0.055-0.017l0.111-0.26l0.014-0.062l0.045-0.045l0.045-0.014l-0.003-0.049l-0.055-0.062l-0.003-0.142l0.042-0.066l0.146-0.104l0.104-0.149l0.062-0.021l0.121-0.118l0.038-0.097l-0.024-0.055l0.052-0.111l0.128-0.08l0.021-0.076l0.024-0.038l0.038-0.014l0.024-0.076l-0.066-0.26l-0.121-0.319l0.021-0.076l0.062-0.048l0.038-0.163l-0.01-0.208l-0.024-0.107l0.003-0.073l-0.055-0.156L677.628,441.9z M677.444,446.53l0.019-0.002l0.009-0.017l-0.021-0.007l-0.016,0.016L677.444,446.53z M677.647,446.645l-0.024-0.062l-0.036-0.029l-0.028,0.007l-0.005,0.023l0.031,0.042l0.052,0.036L677.647,446.645z M676.588,446.916l0.036,0.005l0.021-0.014l-0.014-0.068l-0.024-0.002l-0.023,0.047L676.588,446.916z M676.656,446.828h0.021l0.007-0.017l-0.026-0.026l-0.014,0.019L676.656,446.828z M675.907,447.201l0.019,0.028l0.038,0.002l0.024-0.012l0.049,0.01l0.017-0.007l-0.057-0.038l-0.014-0.04l0.003-0.047l-0.016-0.033l-0.033-0.017l-0.04,0.005l-0.023,0.023l-0.017,0.1l0.019,0.024L675.907,447.201z"/>
</svg>
