<svg xmlns="http://www.w3.org/2000/svg" viewBox="305.981 388.901 23.111 13.293">
  <path d="M314.787,390.498l-0.003-0.073l0.194-0.08l0.218,0.003l0.035,0.111h-0.184l-0.128,0.08L314.787,390.498z M316.284,389.767l0.121-0.135l0.423-0.201l0.547-0.187l0.256-0.014l0.097-0.045l-0.249-0.024l-0.263,0.014l-0.922,0.364l-0.08,0.204L316.284,389.767z M323.204,391.256l-1.099-0.408l-0.247,0.034l-0.328,0.239l-0.195,0.109l-0.364,0.036l-0.356,0.005l-0.114,0.052l-0.408-0.075l-0.598-0.327l-0.707-0.223l-0.333,0.003l-0.036,0.036l0.068,0.055l0.203-0.013l0.083,0.081l-0.065,0.179l-0.21,0.122l-0.738,0.052l-0.359,0.265l-0.309,0.148h-0.221l-0.182-0.099l-0.14-0.013l-0.598,0.096l-0.296-0.034l-0.158,0.013l-0.086,0.081l-0.382,0.057l-1.133-0.189l-0.509-0.139l-0.044,0.005l-0.081,0.086l-0.107,0.016l-0.091,0.101l-0.252-0.005l-0.35-0.281l-0.048-0.145l0.012-0.033l0.062-0.045l-0.083,0.01l-0.045,0.08l-0.049,0.033l-0.193-0.095l-0.104-0.007l-0.083,0.069l-0.346,0.003l-0.222,0.104l-0.194,0.038l-0.003,0.062l0.083,0.035l0.002,0.068l-0.532,0.23l-0.166,0.253l-0.146,0.01l-0.274-0.152l-0.055,0.121l-0.267,0.118l-0.139,0.277l-1.14,0.946l-0.665,0.398l-0.468,0.409l-0.655,0.256l-0.118,0.215l0.111,0.104l-0.083,0.236l-0.187,0.132v0.187l0.238,0.241l-0.003,0.151l0.125,0.075l-0.099,0.122l-0.026,0.416l-0.27-0.047l-0.195,0.216l-0.247,0.195l-0.009,0.149l0.741,0.241l0.14-0.166l0.13,0.042l0.042,0.213l0.177,0.068l0.052,0.249l0.546,0.301l0.14,0.251l0.329-0.017l0.052,0.045l-0.038,0.187l0.87,0.346l0.011,0.362l0.182,0.057l0.826-0.338l-0.029-0.196l0.291,0.031l0.291-0.049l0.028,0.173l0.246,0.274l0.599-0.068l0.083-0.094l0.12,0.005v0.14l0.304,0.32l-0.122,0.231l-0.171,0.795l0.069,0.078l0.144-0.016v0.239l-0.371,0.146l0.298,0.191l0.194-0.003l0.149-0.125v-0.166l0.055-0.094l0.1,0.014l-0.042,0.146l0.073,0.114l-0.049,0.073l-0.097,0.031l-0.035,0.132l0.066,0.042l0.201,0.042l0.156-0.145l0.146-0.052l0.135-0.08l0.128,0.014l0.017,0.073l-0.094,0.017l-0.087,0.173l-0.087,0.035l-0.028,0.09l0.203,0.166l0.104,0.416l0.187,0.068l0.217,0.244l0.023,0.151l0.878-0.043l0.114,0.064l0.346-0.196l0.121-0.856l0.322-0.196l0.307,0.192l0.123-0.104l0.014-0.253l-0.111-0.09l-0.021-0.107l0.052-0.135l-0.083-0.662l-0.1-0.135l0.014-0.385l0.17-0.083l0.246,0.055l0.423-0.08l0.745,0.113l0.686-0.857l0.035-0.204l0.464-0.142l0.097,0.045l-0.159,0.26l0.707,0.34l0.118,0.256l0.26,0.045l0.059-0.125l-0.111-0.08l0.059-0.326l1.213-0.499l0.288-0.544l0.575,0.003l0.121-0.191l-0.194-0.284l0.246-0.482l-0.048-0.253l0.114-0.059l0.125,0.132l0.253-0.17l-0.052-0.305l0.516-0.502l0.274-0.073l0.277,0.166l0.017,0.27l1.07,0.36l0.345-0.4l0.092,0.061l-0.014,0.09l0.197,0.076l0.107-0.052l-0.035-0.218l0.111-0.087l0.177,0.152l0.315-0.08l-0.024-0.194l0.118,0.007l0.149,0.114l0.405,0.017l1.154-0.454l0.449-0.473l0.411-0.062l0.494,0.088l0.475-0.057l-0.042-0.029l-0.303-0.085l-0.195-0.135l-0.187-0.255l-0.171-0.434l-0.286-0.125l-0.592-0.192l-0.385-0.216l-0.052,0.078l0.016,0.055l0.309,0.151l-0.047,0.203l-0.166,0.073l-0.078,0.153l-0.14-0.01l-0.057-0.083l0.005-0.166l-0.67-0.431l-0.2-0.06l-0.151,0.081l0.034,0.153l-0.156,0.003l-0.18-0.166l-0.028-0.166l0.127-0.052l-0.013-0.096l0.083-0.018l0.065,0.081l0.062,0.159l0.042-0.036l-0.041-0.147l-0.055-0.118l0.09-0.118l0.263,0.055l0.198,0.213l0.325,0.107l0.26,0.164l0.047-0.023l0.018-0.057l-0.275-0.112l-0.317-0.177l-0.317-0.301l-1.148-0.99l-0.808-0.094l-0.434-0.101l0.01,0.055l0.379,0.098l0.084,0.047l-0.001,0.058l-0.088,0.036l-0.031,0.052l-0.166-0.011l-0.055-0.091l-0.07-0.031l0.008,0.086l-0.052,0.036l-0.094-0.003l-0.073-0.096l0.01-0.138l0.052-0.055l-0.01-0.049L323.204,391.256z M318.844,389.123l0.242-0.083l0.059-0.139L319,388.828l-0.184,0.094l-0.208,0.336l0.111,0.014L318.844,389.123z M312.208,401.018l0.052,0.047l0.036-0.083l-0.042-0.036L312.208,401.018z M312.414,401.231l0.042-0.062l-0.049-0.09l-0.073-0.01l-0.052,0.135L312.414,401.231z M317.937,389.164l0.062-0.042l-0.094-0.024l-0.09,0.048L317.937,389.164z M316.596,390.99l0.007-0.035l-0.021-0.024l-0.028,0.042L316.596,390.99z M316.665,390.928l0.042-0.017l-0.028-0.048l-0.031,0.028L316.665,390.928z"/>
</svg>