<svg xmlns="http://www.w3.org/2000/svg" viewBox="979.497 398.054 7.213 27.296">
  <path d="M982.688,419.658l0.078,0.296l0.324,0.165l0.076-0.104l-0.312-0.18l0.042-0.213l-0.042-0.099L982.688,419.658z M983.595,420.957l0.137,0.255l0.385,0.047l-0.036-0.177l-0.159-0.263l-0.187-0.097L983.595,420.957z M985.161,423.091l-0.104-0.152h-0.083l-0.055,0.152l-0.173,0.069l-0.028,0.346l0.083,0.062l0.251-0.201L985.161,423.091z M984.884,423.84l-0.066,0.485l0.057,0.12l0.133,0.054l0.256,0.437l0.126,0.414l0.105-0.001l0.028-0.155l0.041-0.029l0.073,0.059l0.102-0.098l-0.052-0.246l0.134-0.28l-0.12-0.447l-0.035-0.326l-0.208-0.159L984.884,423.84z M982.4,400.947l-0.076-0.062l0.01-0.111l0.052-0.099l-0.005-0.255l-0.049-0.104l-0.034,0.104l-0.029,0.013l-0.046-0.079l-0.024,0.105l-0.036,0.049l-0.042-0.052l-0.133,0.042l-0.164,0.244l0.01,0.135l-0.128,0.173l-0.069,0.218l0.024,0.218l-0.04,0.271l-0.016,0.203l-0.06,0.223l-0.016,0.218l0.023,0.377l0.042,0.057l-0.065,0.062l-0.008,0.081l-0.073,0.003l-0.156,0.158l0.008,0.126l0.062,0.235l-0.024,0.249l-0.1,0.059l-0.055,0.152l0.042,0.066l-0.003,0.367l-0.028,0.485l0.052,0.114l0.134,0.094l-0.03,0.177l-0.09,0.017l0.021,0.156l-0.035,0.062l-0.049-0.173l-0.038-0.024l-0.135,0.159l-0.1,0.315l-0.038,0.52l-0.01,0.253l-0.059-0.028l-0.042-0.149l-0.107,0.021l-0.114,0.308l0.048,0.056l0.042-0.025l0.035,0.114l0.014,0.388l0.045,0.031l0.035-0.052l0.059,0.024l0.01,0.146l0.062,0.097l-0.01,0.048l0.003,0.087l0.035,0.087l0.045-0.024l0.035,0.087l-0.01,0.111l0.1,0.075l0.035-0.03l0.055,0.028l0.003,0.036l0.056,0.005l0.114-0.343l0.007-0.395l0.062-0.242l0.073-0.568l-0.076-0.055l-0.08,0.052l-0.028,0.229l-0.076,0.135l0.038-0.149l-0.014-0.315l0.031-0.18l0.055-0.107l0.08-0.001l0.031-0.08l-0.017-0.083l0.135-0.253l0.201-0.187l0.01-0.073l-0.045-0.097l0.09-0.111v-0.076l-0.076-0.038l-0.028-0.042l0.097-0.014l0.031-0.068l-0.013-0.055l-0.094-0.04l-0.1-0.135l0.031-0.09l0.1-0.014l0.088,0.031l0.087,0.003l0.039-0.101l0.133-0.166l0.028-0.19l-0.076-0.288l0.049-0.447l-0.083-0.163l0.027-0.08l-0.106-0.325l-0.039-0.007l0.023-0.052l-0.031-0.013l-0.058,0.053l-0.088-0.016l0.003-0.087l0.031-0.068l0.01-0.117l0.057-0.021l0.04,0.008l0.01,0.097l0.042-0.014l0.045-0.076l-0.1-0.111l0.01-0.104l0.057-0.094l0.042,0.094l0.094,0.042l0.14-0.031l0.073-0.161l0.042-0.488l0.078-0.182l-0.161-0.184l-0.182-0.092l-0.005-0.083l0.094,0.057l0.062-0.047l0.109,0.036l0.052,0.12l0.109-0.005l-0.005-0.125l-0.104-0.14L982.4,400.947z M981.163,402.499l-0.069,0.104l0.014,0.194l-0.08,0.26l0.072,0.162l0.062-0.06l0.01-0.091l0.094-0.153l0.003-0.381L981.163,402.499z M980.938,407.938l-0.051,0.194l0.048,0.18l-0.128,0.028l0.003,0.166l0.156,0.01l0.198-0.062l-0.014-0.094l-0.08-0.055l0.049-0.09v-0.142l-0.1-0.121L980.938,407.938z M981.375,416.665l0.326,0.021l0.104-0.135l-0.042-0.27l-0.222-0.038l-0.152,0.173L981.375,416.665z M980.071,410.575l0.034,0.405l0.088,0.135l0.021,0.151l-0.114,0.239l0.078,0.021l0.094-0.052l0.291,0.125l0.171-0.27l-0.078-0.057l-0.005-0.083l0.187-0.203l-0.036-0.385l-0.058-0.037l-0.066-0.295l-0.166-0.083l-0.138,0.122l-0.034,0.112l-0.151,0.156L980.071,410.575z M979.497,407.659l0.012,0.214l0.175,0.015l0.031-0.078l-0.01-0.151l-0.073-0.062L979.497,407.659z M984.122,420.438l0.152,0.146l-0.062,0.076l-0.035,0.118l0.152-0.069l0.069-0.166l-0.152-0.256l0.145-0.173l-0.042-0.118l-0.097-0.007l-0.208,0.222L984.122,420.438z M984.524,421.054l-0.014-0.229l-0.104-0.055l-0.166,0.104L984.524,421.054z M980.614,407.607l0.016,0.14l0.076-0.035l0.024-0.087l-0.075-0.04L980.614,407.607z M982.199,406.341l0.166,0.232l0.055-0.08l-0.146-0.419l-0.163-0.069l-0.1,0.121v0.066L982.199,406.341z M982.376,406.822l0.12-0.026l-0.047-0.068l-0.125-0.005l-0.042,0.047L982.376,406.822z M982.272,405.873l0.101,0.076l0.038,0.003l-0.01-0.094l-0.087-0.281l-0.052,0.028L982.272,405.873z M982.566,405.748l-0.029-0.303l-0.042-0.068l-0.057,0.031l-0.042,0.239l0.099,0.187L982.566,405.748z M982.459,405.291l0.135,0.094l-0.007-0.087l0.031-0.076l-0.128-0.021L982.459,405.291z M985.169,405.152l0.062,0.052l0.083-0.06l-0.049-0.068l-0.055,0.005L985.169,405.152z M981.428,406.334l-0.01-0.055l-0.057-0.007l-0.033,0.059L981.428,406.334z M981.212,405.187l0.035,0.048l0.024-0.156l-0.062-0.01L981.212,405.187z M981.977,404.792l0.042,0.035l0.049-0.087l0.048-0.124l-0.023-0.026l-0.077,0.053L981.977,404.792z M981.714,404.688l0.045,0.066l0.073,0.017l0.045-0.073l-0.125-0.045L981.714,404.688z M981.807,405.287l0.018,0.063l0.049-0.059l0.052,0.007l-0.028-0.097L981.807,405.287z M981.905,405.132l0.048,0.052l-0.003,0.073l0.038-0.01l0.055-0.114l-0.035-0.083l-0.028,0.052l-0.073-0.014L981.905,405.132z M981.236,403.49l0.033-0.019l0.008-0.101l-0.03-0.064l-0.011-0.099v-0.073l-0.038,0.042l-0.007,0.08l0.021,0.055L981.236,403.49z M982.331,400.119l0.031-0.024l-0.017-0.076l-0.076-0.028l-0.111,0.066l0.101,0.021L982.331,400.119z M982.206,402.7l-0.007-0.094l0.017-0.08l-0.104,0.021v0.132L982.206,402.7z M981.964,402.443l0.062,0.042l0.01-0.08l-0.045-0.007L981.964,402.443z M981.17,402.132l0.038,0.052l0.042-0.059l-0.038-0.028L981.17,402.132z M982.475,400.067l-0.042-0.016l-0.033,0.05l0.024,0.073L982.475,400.067z M981.617,400.888l0.052,0.021l0.036-0.047l-0.052-0.021L981.617,400.888z M981.854,400.337l0.036-0.049l-0.013-0.029l-0.052,0.068L981.854,400.337z M986.705,400.836l0.005-0.078l-0.052-0.01l-0.047,0.068l0.036,0.047L986.705,400.836z M983.025,398.851l0.047-0.016l-0.038-0.102l-0.021,0.028L983.025,398.851z M983.533,398.487l0.024-0.059l0.014-0.111l-0.052-0.107l0.003,0.073l0.014,0.104l-0.031,0.1H983.533z M983.516,398.082l0.042,0.007v-0.035l-0.028,0.003L983.516,398.082z M981.236,403.07l0.059-0.104l0.028,0.021l-0.045,0.083H981.236z M981.111,404.169l0.049,0.003l-0.014,0.076l-0.035-0.028V404.169z M982.043,405.35l-0.003,0.035l-0.038,0.031l-0.01-0.052L982.043,405.35z M981.487,402.824v-0.029l0.039-0.005l0.036,0.052l-0.042,0.029L981.487,402.824z M982.164,405.925l-0.059-0.035l0.003-0.118l0.118-0.01v0.191l-0.049,0.024L982.164,405.925z M982.078,405.655l0.017-0.066l0.114,0.035l0.01,0.09l-0.083,0.01L982.078,405.655z M980.817,406.317l-0.017-0.059l0.048-0.017l0.01,0.132l-0.035,0.038L980.817,406.317z M980.716,407.82l0.024,0.048l-0.035,0.017l-0.024-0.069L980.716,407.82z M980.799,407.817l0.01-0.121l0.024,0.055v0.076L980.799,407.817z M980.879,407.844l-0.021-0.087l0.048-0.003l0.007,0.059L980.879,407.844z M980.851,407.709l-0.014-0.062l0.045-0.003l0.021,0.073L980.851,407.709z M981.163,408.866l0.024-0.107l0.028-0.038l0.021,0.031l-0.028,0.09L981.163,408.866z M979.549,409.966h0.094l-0.026,0.057h-0.052L979.549,409.966z M984.662,418.934l0.062-0.049l0.055,0.146l-0.069,0.125l-0.035-0.069l0.021-0.076L984.662,418.934z M983.304,419.856l0.028,0.104l-0.042,0.062l-0.055-0.111L983.304,419.856z M984.545,420.583l-0.049-0.132l0.049-0.076l0.049,0.118L984.545,420.583z"/>
</svg>
