<svg xmlns="http://www.w3.org/2000/svg" viewBox="899.908 467.492 6.239 10.954">
  <path d="M905.812,477.414l0.003-0.059l0.128,0.062l0.017,0.104l0.187,0.149l-0.024,0.163l-0.062,0.055l-0.007,0.104l0.083,0.087l0.007,0.073l-0.173,0.128l-0.118,0.166l-0.097-0.007l-0.021-0.149l0.028-0.225l0.038-0.052l-0.017-0.135l-0.156-0.139l-0.201-0.125l0.007-0.073l0.125-0.073l0.048,0.031l-0.038,0.062l0.024,0.048l0.121,0.049l0.121,0.18l0.035,0.166l-0.042,0.104l-0.038,0.18l0.01,0.073l0.038-0.014l0.087-0.132l0.114-0.09v-0.045l-0.059-0.104v-0.09l0.08-0.09l0.024-0.111l-0.177-0.132l-0.014-0.097L905.812,477.414z M900.338,472.335l0.132-0.132l0.014-0.083l-0.083,0.007l-0.139,0.194L900.338,472.335z M899.971,473.257l0.021-0.09l-0.035-0.055l-0.049,0.055l0.007,0.09H899.971z M900.154,472.467l0.052,0.042l0.036-0.078l-0.047-0.026L900.154,472.467z M900.414,474.452l0.031-0.031l-0.12-0.016l-0.057,0.099l0.104,0.13l0.099-0.005l0.197,0.114l0.073-0.01l0.021-0.057l-0.099-0.156l-0.01,0.047l0.026,0.068l-0.042,0.021l-0.146-0.099l-0.094-0.005l-0.042-0.052l0.016-0.052L900.414,474.452z M905.262,469.728l0.047-0.021l-0.049-0.034l-0.047,0.003l-0.023,0.042L905.262,469.728z M902.477,468.543l0.036,0.049l0.109,0.029v-0.029l-0.021-0.029l-0.073-0.01l-0.031-0.047L902.477,468.543z M902.456,468.398l0.031-0.005l0.023-0.101l-0.029-0.016l-0.029,0.034l-0.011,0.047L902.456,468.398z M902.48,468.195l0.034-0.01l0.005-0.091l-0.021-0.055l-0.039-0.06l-0.029,0.016l0.039,0.107L902.48,468.195z M902.441,468.468l0.021,0.029l0.021-0.026l0.005-0.047l-0.036,0.008L902.441,468.468z M902.69,468.608l-0.016,0.034l0.036,0.008l0.052-0.018l-0.021-0.029L902.69,468.608z M902.888,468.398l-0.039,0.026l0.029,0.026l0.034-0.01l0.018-0.029L902.888,468.398z M902.82,468.606l0.021,0.036l0.07-0.008l0.016-0.023l-0.052-0.01L902.82,468.606z M903.516,468.211l0.036,0.01l0.031-0.073l-0.022-0.038l-0.021,0.008L903.516,468.211z M903.558,467.94h0.042v-0.068l-0.036-0.021l-0.021,0.036L903.558,467.94z M902.406,467.97l0.024-0.028l-0.024-0.031l-0.017,0.031L902.406,467.97z M902.371,467.873h0.035l0.024-0.097l0.049-0.062l-0.035-0.007l-0.066,0.038L902.371,467.873z M902.448,467.637l0.035,0.021l0.021-0.027l-0.029-0.016L902.448,467.637z M902.496,467.596l0.035,0.021l0.069-0.049l-0.028-0.035L902.496,467.596z M902.808,467.526l-0.003-0.028l-0.03,0.01l-0.012,0.023l0.009,0.036L902.808,467.526z M902.896,467.511l0.016-0.019l-0.073,0.002v0.029L902.896,467.511z M903.004,467.653l0.088-0.009l0.014-0.017h-0.078l-0.021,0.009L903.004,467.653z M903.189,467.658l0.024-0.01l-0.009-0.013l-0.025-0.008l-0.021,0.031H903.189z M903.303,467.637l0.05-0.021l0.002-0.022l-0.021-0.01l-0.062,0.042L903.303,467.637z M903.48,467.552l0.055,0.02l0.018-0.013l-0.033-0.054l-0.04,0.018V467.552z M904.66,468.063l0.013,0.039l0.026,0.031l0.06,0.018l0.013-0.029l-0.036-0.021l-0.008-0.036l-0.047-0.021L904.66,468.063z M904.753,468.005l0.031,0.005l0.031-0.075l0.039-0.049l-0.021-0.018l-0.047,0.036l-0.013,0.062L904.753,468.005z M904.956,467.85l0.018-0.031l-0.013-0.023l-0.044,0.018l0.005,0.026L904.956,467.85z M905.018,467.881l0.012-0.016l-0.015-0.017l-0.018,0.023L905.018,467.881z M905.008,467.982l0.06,0.018l0.013-0.021l-0.023-0.008l-0.023-0.042l-0.029,0.008L905.008,467.982z M904.992,468.031l-0.026,0.021l0.013,0.018l0.044-0.034l-0.003-0.029l-0.023-0.003L904.992,468.031z M904.79,468.108l0.007,0.016l0.019-0.014l-0.013-0.014L904.79,468.108z M904.825,468.077l0.006,0.019l0.015-0.003l-0.008-0.022L904.825,468.077z M904.712,468.039l0.005-0.021l-0.018-0.013l-0.005,0.021L904.712,468.039z M904.945,468.086l-0.001-0.03l-0.017,0.001l0.007,0.025L904.945,468.086z M904.908,468.088l0.001-0.025l-0.017-0.004l0.007,0.033L904.908,468.088z M902.957,467.61l0.016-0.005v-0.017l-0.021-0.002l-0.014,0.019L902.957,467.61z"/>
</svg>
