<svg xmlns="http://www.w3.org/2000/svg" viewBox="1164.136 348.035 3.152 10.698">
  <path d="M1167.098,348.044l0.023,0.003l0.009,0.007l-0.018,0.008l-0.001,0.019l0.022,0.021l-0.006,0.039l-0.026,0.029h-0.011l-0.004,0.01l0.004,0.012l-0.005,0.004l-0.021-0.011v-0.012h0.014l0.003-0.014l-0.004-0.017l-0.004-0.03l0.014-0.014l-0.004-0.033l-0.012-0.014l0.019-0.016L1167.098,348.044z M1167.008,348.278l0.002,0.014l-0.004,0.019l0.026-0.01l0.003-0.023L1167.008,348.278z M1167.26,348.372l0.017,0.019l0.011-0.006l-0.008-0.014H1167.26z M1167.047,348.554l-0.008,0.005l0.003,0.019l0.01,0.026l0.004-0.011v-0.015L1167.047,348.554z M1167.13,348.317l0.061,0.007l0.007-0.011l0.043,0.008l0.001-0.018l-0.025-0.003l-0.003-0.029l-0.035-0.033l-0.03,0.003l-0.032-0.019l-0.008-0.023l-0.011,0.004l-0.005,0.043l-0.003,0.03l0.012,0.006l0.022-0.007l0.025,0.017l-0.018,0.012L1167.13,348.317z M1167.067,348.376l0.022,0.025l0.014-0.006l0.022-0.032h0.012l-0.001,0.036l0.022,0.022l-0.015,0.033l-0.043-0.01l-0.028,0.003v0.01l0.032,0.018l0.01,0.028l-0.023-0.003l-0.004,0.015l0.008,0.025l-0.015,0.017l0.029,0.008l0.014-0.008l0.029,0.008l0.014,0.012l0.051,0.014l0.01-0.012l-0.021-0.022l0.015-0.029l0.022,0.014l0.01-0.017l-0.021-0.032l0.006-0.047l-0.015-0.025l-0.014-0.01v-0.019l-0.036-0.044l-0.063-0.014l-0.039,0.017L1167.067,348.376z M1166.897,350.204l-0.018,0.019l0.015,0.036l0.024-0.003l0.004-0.036L1166.897,350.204z M1166.975,350.408l-0.008,0.021l0.014,0.018l0.021-0.022l-0.004-0.05l-0.026-0.006L1166.975,350.408z M1167.126,350.405h0.026l0.035-0.029l-0.025-0.007l-0.029,0.011L1167.126,350.405z M1167.207,350.336l-0.001,0.041l0.021-0.015l0.026-0.007l-0.023-0.026L1167.207,350.336z M1167.003,350.295l0.018-0.022l-0.006-0.011l-0.018,0.018l-0.032,0.008l-0.007,0.021L1167.003,350.295z M1166.879,349.835l-0.001,0.03l0.037,0.084l0.032,0.028l-0.008,0.021l0.004,0.011h0.015l0.003,0.017l-0.007,0.021l0.025,0.065l0.017-0.004l0.004,0.007l-0.001,0.017l0.012,0.007l0.023,0.001l0.019,0.044l-0.015,0.032l0.021,0.004l0.014-0.026l-0.003-0.05l-0.032-0.032l0.01-0.041l-0.007-0.015h0.028l0.019,0.005l0.006-0.025l-0.022-0.003l-0.014,0.011l-0.024-0.003l-0.025-0.012l-0.008-0.043l0.022-0.036l0.001-0.022l-0.029,0.008l-0.025,0.011l-0.015-0.01v-0.028l0.035-0.018l0.016,0.003l0.008-0.008l-0.029-0.025h-0.046v0.018l-0.034-0.011l-0.014-0.03L1166.879,349.835z M1164.142,354.31l-0.006,0.056l0.012,0.039l0.054-0.021l-0.006-0.06l-0.029-0.017L1164.142,354.31z M1164.163,356.811l0.008,0.029l0.047-0.013l0.08-0.062h0.052l0.034-0.034l-0.034-0.106l-0.052-0.01l-0.117,0.075l0.013,0.034L1164.163,356.811z M1164.769,358.733l0.026-0.049l-0.018-0.026l-0.041,0.005l-0.008,0.057L1164.769,358.733z"/>
</svg>
