<svg xmlns="http://www.w3.org/2000/svg" viewBox="1092.837 332.271 31.359 27.615">
  <path d="M1120.493,332.427l0.135,0.021l-0.031,0.114l-0.172,0.005l-0.016-0.078L1120.493,332.427z M1119.105,332.333l0.083,0.094l0.109,0.005l0.078-0.073l-0.078-0.088h-0.099L1119.105,332.333z M1120.004,333.804l0.182,0.234l0.203-0.036l-0.026-0.125l-0.265-0.104L1120.004,333.804z M1122.452,332.78l0.104-0.005l-0.021-0.135l-0.052-0.01L1122.452,332.78z M1120.929,332.396l0.005,0.057l0.078,0.016v-0.057L1120.929,332.396z M1122.514,333.861l0.021,0.447l0.078,0.068l0.14-0.104l0.177-0.021l0.01-0.483l0.114-0.234l0.135-0.094l0.052-0.223l-0.021-0.073l0.036-0.156l0.057-0.078l-0.047-0.452l-0.031-0.12l-0.052,0.01l-0.146,0.239l-0.005,0.094l-0.224,0.265l-0.042,0.275l0.047,0.177l-0.229,0.442L1122.514,333.861z M1120.789,334.235l0.182,0.499l0.13,0.109l0.379-0.005l0.198-0.12l0.177-0.275v-0.296l-0.514-0.203l-0.224-0.031l-0.14,0.218h-0.14L1120.789,334.235z M1119.111,335.888l0.052,0.083l0.146,0.021l-0.114-0.229L1119.111,335.888z M1117.78,336.127l0.01,0.104l0.114-0.021l-0.052-0.094L1117.78,336.127z M1118.83,336.376l0.156,0.156l0.208-0.01l-0.218-0.322L1118.83,336.376z M1118.331,337.208l0.031,0.156l0.094,0.031l0.114-0.114l-0.135-0.177L1118.331,337.208z M1118.03,337.904l-0.042,0.104l0.094,0.073l0.01-0.104L1118.03,337.904z M1116.627,339.37l0.083-0.031l0.01-0.104l-0.166,0.021L1116.627,339.37z M1118.986,342.675l0.135,0.146l0.146-0.062l0.218-0.291l-0.114-0.042L1118.986,342.675z M1114.08,346.319l-0.035,0.166l0.125,0.152l0.146-0.028l0.277-0.229l0.055-0.083l0.139-0.111l-0.09-0.035l-0.229,0.159l-0.25,0.048l-0.09-0.048L1114.08,346.319z M1115.376,344.435l-0.035,0.152l0.104,0.312l-0.076,0.118l-0.007,0.09l0.09,0.055l0.069,0.146l0.187-0.014l0.146-0.194l0.021-0.27l-0.194-0.18l-0.028-0.284h-0.208L1115.376,344.435z M1116.28,343.877l0.069-0.021l0.035-0.128l-0.021-0.066l-0.045,0.059L1116.28,343.877z M1116.606,343.839l0.059,0.059h0.059l-0.017-0.08l-0.18-0.08l-0.021,0.08L1116.606,343.839z M1116.412,343.215l0.121,0.184l0.066,0.149l0.191,0.09l0.191-0.017l0.035-0.094l-0.049-0.042h-0.152l-0.177-0.097l-0.114-0.156l0.01-0.076l-0.059-0.017L1116.412,343.215z M1116.301,342.893l0.024,0.094l0.336,0.055l0.087-0.031l0.053,0.048l-0.063,0.104l0.083,0.177l0.215,0.069l0.054,0.068l0.039-0.013l-0.037-0.097l-0.076-0.076l0.066-0.028l0.104,0.031l0.048-0.023l0.016-0.086l0.105-0.051l0.095-0.09l-0.056-0.065l-0.102-0.007l-0.018-0.044l0.066-0.012l0.068-0.068l-0.011-0.076l0.031-0.026l0.075,0.007l0.225-0.076l-0.03-0.048l0.042-0.034l0.055-0.029l0.163-0.24l0.218,0.007l0.142-0.142l0.007-0.18l-0.08-0.118l0.017-0.104l-0.066,0.003l-0.104,0.139l0.073,0.191l-0.09,0.118l-0.149,0.003l-0.024-0.069l0.087-0.142l-0.073-0.042l-0.135,0.104l-0.073-0.01l-0.107,0.125l0.007,0.118l-0.066,0.035l-0.048-0.111l-0.088,0.048l-0.05,0.083l-0.295,0.119l-0.069-0.048l-0.052,0.031l-0.097,0.111l-0.277,0.111l0.031,0.069l0.076,0.038l0.121-0.031l0.007,0.042l-0.121,0.052l-0.132-0.035L1116.301,342.893z M1116.54,342.779l-0.031-0.059l-0.087-0.003l0.017,0.073L1116.54,342.779z M1111.329,349.16l0.083-0.062l-0.035-0.076l-0.208-0.028l-0.021,0.097L1111.329,349.16z M1111.766,348.155l0.007,0.097h0.111l0.028-0.069l-0.055-0.062L1111.766,348.155z M1112.071,347.691l0.035-0.097l-0.097,0.007l-0.146,0.173l0.014,0.076L1112.071,347.691z M1113.498,347.774l0.09,0.062l0.132,0.007l-0.014-0.125l-0.097-0.062L1113.498,347.774z M1109.273,349.664l0.036-0.036l-0.021-0.052l-0.094-0.005l-0.031,0.083L1109.273,349.664z M1107.382,350.48l0.026,0.104l0.109,0.031l0.088,0.166l0.13,0.021l-0.026-0.135l0.036-0.146l-0.135-0.099l-0.12,0.047L1107.382,350.48z M1108.936,350.418l-0.026,0.052l0.057,0.094l0.068-0.057L1108.936,350.418z M1123.767,352.535l-0.021,0.222l0.132,0.048l0.118-0.125l-0.035-0.139L1123.767,352.535z M1124.034,352.181l-0.042,0.069l0.09,0.048l0.114-0.042l-0.007-0.09L1124.034,352.181z M1112.911,348.615l-0.327,0.437l-0.109,0.057l-0.109,0.177l-0.27,0.14l-0.021-0.073l0.042-0.12l-0.161-0.109l-0.229-0.005l-0.156,0.203l0.068,0.244l0.218,0.005l0.094,0.088l-0.239,0.218l-0.151,0.021l-0.286,0.338h-0.208l-0.057,0.104l0.13,0.379l-0.005,0.099l-0.322,0.265l-0.068,0.172l0.068,0.249l-0.036,0.109l0.062,0.078l0.218-0.026l0.416-0.364l-0.109-0.094l-0.083,0.068l-0.057-0.094l0.068-0.197l0.229-0.291l0.182,0.099l0.068-0.062l-0.125-0.135l0.005-0.078l-0.177-0.234l0.088-0.114l0.255,0.078l0.405-0.385l0.146-0.036l0.197-0.109l0.005-0.109l0.073-0.094l0.296-0.062l0.286-0.411l0.042-0.275l-0.239-0.322l-0.109,0.031L1112.911,348.615z M1111.882,350.581l0.026,0.052l0.109-0.097l-0.009-0.061l-0.036,0.005L1111.882,350.581z M1109.691,351.242l-0.024,0.139l0.062,0.01l0.014-0.097l0.031-0.042l0.01-0.121l-0.094,0.007V351.242z M1109.452,351.066l0.069,0.035l0.107-0.073l-0.045-0.045l-0.083,0.038L1109.452,351.066z M1109.417,351.26l0.022,0.073l0.043,0.038v-0.152l-0.062-0.076l-0.059,0.052L1109.417,351.26z M1109.198,351.135l0.018-0.042l0.005-0.036l-0.049,0.01l-0.003,0.055L1109.198,351.135z M1109.198,351.377l0.031-0.016l-0.003-0.065l-0.044,0.016L1109.198,351.377z M1109.951,351.189l0.039-0.003l0.042-0.122l-0.021-0.039L1109.951,351.189z M1093.112,358.208l0.182-0.094l-0.13-0.073l-0.213-0.005l-0.114,0.12L1093.112,358.208z M1102.121,357.045l0.596-0.055v-0.146l-0.353-0.194l-0.242-0.437l-0.166,0.021l0.146,0.222l-0.187,0.166l0.021,0.291L1102.121,357.045z M1099.821,357.343l0.09-0.097l-0.076-0.076h-0.187l-0.007,0.146L1099.821,357.343z M1095.76,358.895l0.201-0.042l0.416,0.118l0.208-0.048l0.222-0.416l-0.423-0.173l-0.104-0.125l-0.166-0.021l-0.111,0.381l-0.333,0.187L1095.76,358.895z M1097.333,358.286l0.152-0.049l0.085,0.1l-0.114,0.135l0.189,0.194l0.326-0.085l0.055-0.497l0.308-0.454l0.047-0.166l-0.114-0.036l-0.12,0.234v0.088l-0.068,0.104l-0.079,0.013l-0.141,0.232l-0.237,0.01l-0.135-0.073l-0.21,0.159L1097.333,358.286z M1101.58,356.636l0.236-0.049l-0.014-0.166l-0.215-0.062l-0.146,0.146L1101.58,356.636z M1096.273,359.872l-0.062-0.104l-0.187,0.021l0.042,0.097L1096.273,359.872z M1096.959,358.68l0.062-0.042l-0.125-0.104l-0.021,0.104L1096.959,358.68z M1097.354,358.764l0.069-0.097l-0.076-0.055l-0.048,0.062L1097.354,358.764z M1097.084,359.145l0.062-0.111l-0.125-0.048l-0.048,0.083L1097.084,359.145z"/>
</svg>
