<svg xmlns="http://www.w3.org/2000/svg" viewBox="1274.131 438.804 22.954 22.792">
  <path d="M1296.889,461.344l0.08,0.026l0.096,0.113l0.02,0.093l-0.03,0.02l-0.086-0.159l-0.089-0.073L1296.889,461.344L1296.889,461.344z M1294.372,460.99l0.043,0.003l0.003-0.046l-0.066-0.079h-0.053l0.007,0.033L1294.372,460.99L1294.372,460.99z M1293.053,458.856l0.043,0.023l0.136-0.113l0.007-0.136l-0.05-0.086l-0.073-0.02l-0.017,0.023l0.063,0.04l0.03,0.056l-0.01,0.113l-0.079,0.079L1293.053,458.856L1293.053,458.856z M1293.053,458.442v-0.099l-0.04-0.06l-0.069-0.003l-0.003,0.033l0.06,0.007l0.017,0.086l-0.017,0.046l0.02,0.026L1293.053,458.442L1293.053,458.442z M1295.862,456.674l0.06,0.109l0.05,0.017l-0.013-0.083l-0.076-0.093l-0.046-0.172l-0.119-0.023l-0.036,0.043L1295.862,456.674L1295.862,456.674z M1294.349,456.571l0.04,0.06l0.096,0.063l0.036-0.03l-0.159-0.315l-0.08-0.056l-0.04,0.063l0.086,0.05l0.046,0.103L1294.349,456.571L1294.349,456.571z M1290.377,455.885l0.235,0.308l0.033,0.202l0.04-0.007l-0.026-0.209l-0.199-0.331l-0.176-0.166l-0.06,0.01l0.01,0.096L1290.377,455.885L1290.377,455.885z M1291.478,457.082l0.011,0.093l0.046,0.027l0.009-0.102l-0.06-0.106l-0.155-0.091l-0.044,0.024L1291.478,457.082L1291.478,457.082z M1289.559,454.55l0.05,0.023l0.053-0.146l-0.02-0.126l-0.036-0.132v-0.176l-0.315-0.335l-0.079,0.007l0.02,0.046l0.142,0.083l0.166,0.202l0.01,0.275l0.063,0.156L1289.559,454.55L1289.559,454.55z M1286.203,450.539l0.086,0.093l0.03,0.133l0.076,0.02l0.073-0.083l-0.129-0.099l-0.056-0.113l-0.073-0.017L1286.203,450.539L1286.203,450.539z M1286.829,450.897l0.04-0.043l-0.063-0.066l-0.083-0.003l-0.01,0.046L1286.829,450.897L1286.829,450.897z M1286.919,451.052l0.063,0.01l0.053-0.07l0.02-0.162l-0.033-0.093l-0.04,0.04l0.026,0.096l-0.04,0.126L1286.919,451.052L1286.919,451.052z M1287.419,450.075l0.083,0.026l0.03-0.026l-0.079-0.066l-0.053,0.036L1287.419,450.075L1287.419,450.075z M1287.863,450.33l0.017,0.043h0.083l0.033-0.083l-0.017-0.212l-0.093-0.258l-0.238-0.202l-0.083,0.043l-0.033,0.142l0.066-0.01l0.02-0.076l0.043-0.02l0.179,0.185l0.089,0.248l0.01,0.156L1287.863,450.33L1287.863,450.33z M1285.005,448.317l0.04-0.009l0.093-0.269l0.119-0.128l0.009-0.102l-0.146-0.15l-0.031,0.044l0.106,0.097v0.093l-0.106,0.093L1285.005,448.317L1285.005,448.317z M1285.014,446.529l0.148-0.022l0.11-0.091l0.113,0.004l0.163-0.022l0.007-0.084l-0.06-0.049l-0.157-0.179l-0.197-0.188l-0.099-0.236l-0.068-0.068l-0.022-0.208l-0.04-0.029l-0.022,0.038l0.02,0.201l0.097,0.095l0.099,0.261l0.34,0.333v0.075l-0.194,0.013l-0.121,0.093l-0.152,0.04L1285.014,446.529L1285.014,446.529z M1284.802,446.438l0.066-0.015l-0.033-0.046l-0.062,0.007l-0.009,0.033L1284.802,446.438L1284.802,446.438z M1284.764,444.19l0.175,0.214l0.214,0.362l-0.015,0.155l-0.082,0.082l-0.051-0.02l-0.044,0.044l0.066,0.046l0.073-0.004l0.079-0.119l0.024-0.219l-0.245-0.4l-0.185-0.185L1284.764,444.19L1284.764,444.19z M1285.807,444.051l0.057,0.046l0.124,0.004l0.015-0.066l-0.033-0.075l-0.024,0.009l0.016,0.051l-0.007,0.042h-0.077l-0.031-0.026l0.004-0.208l0.024-0.027l0.031,0.013l0.031,0.119l0.029-0.004l-0.038-0.168l-0.053-0.042l-0.053,0.049L1285.807,444.051L1285.807,444.051z M1284.199,439.912l0.076,0.119l0.08-0.036l0.132-0.129l0.209-0.007l0.099-0.172l0.166-0.139l-0.03-0.03l-0.199,0.136l-0.079,0.129l-0.179,0.02l-0.136,0.123h-0.053l-0.056-0.043L1284.199,439.912L1284.199,439.912z M1284.886,438.883l0.044,0.049l0.071-0.075l0.013-0.053h-0.057L1284.886,438.883L1284.886,438.883z M1274.131,454.743l0.06,0.068l0.042-0.007v-0.104l-0.046-0.04l-0.046,0.029L1274.131,454.743L1274.131,454.743z"/>
</svg>
