<svg xmlns="http://www.w3.org/2000/svg" viewBox="1281.654 438.071 61.611 29.806">
  <path d="M1339.469,460.837l0.007-0.01l-0.001-0.012l-0.011-0.007l-0.01-0.032l0.008-0.017v-0.069l0.018-0.007l0.043,0.012l0.037,0.006l0.069,0.037l0.028,0.028l0.054,0.043l0.061,0.022l0.019,0.023l0.007,0.026l0.026,0.048l0.001,0.029l0.008,0.032l0.033,0.059l0.001,0.032l-0.01,0.011l-0.017-0.001l-0.021-0.017l-0.022-0.011l-0.021-0.019l-0.025-0.033l-0.057-0.036l-0.07-0.023h-0.059l-0.033,0.007l-0.019-0.012l-0.017-0.025l-0.005-0.025l0.003-0.019l0.014,0.003v0.018l0.025,0.041l0.014,0.006l0.012-0.006h0.061l0.077,0.023l0.062,0.036l0.034,0.04l0.012,0.006l0.032,0.029h0.01l-0.006-0.011l0.003-0.018l-0.023-0.036l-0.017-0.037l-0.004-0.04l-0.029-0.068l-0.029-0.022l-0.047-0.018l-0.061-0.054l-0.059-0.041l-0.029-0.004l-0.051-0.015l-0.012,0.011l-0.001,0.026l0.018,0.014l-0.004,0.012h-0.015l-0.004,0.012l0.01,0.014l-0.001,0.032l0.01,0.025l-0.011,0.008L1339.469,460.837z M1340.205,463.768l0.021,0.034l0.018-0.008l0.003-0.023l-0.016-0.018l-0.021-0.003L1340.205,463.768z M1341.819,462.102l0.013,0.031l0.047-0.005l0.013-0.021l-0.021-0.049l-0.005-0.062l0.008-0.026l-0.034-0.013l-0.026,0.026l0.005,0.049V462.102z M1343.222,464.289l0.016,0.021l0.017-0.002l0.01-0.012l-0.007-0.019l-0.028-0.01l-0.01,0.009L1343.222,464.289z M1337.8,467.142l0.007,0.014l0.024-0.01h0.04l0.05,0.026h0.017l0.006,0.009l-0.013,0.017l-0.002,0.029l-0.012,0.016l-0.023-0.003l0.002,0.017l0.021,0.002l0.029-0.014l0.005-0.042l0.012-0.029l-0.014-0.017l-0.028-0.003l-0.042-0.024l-0.045-0.002L1337.8,467.142z M1337.855,467.251l-0.036,0.019l0.009,0.012l0.024-0.01l0.03-0.012v-0.015L1337.855,467.251z M1337.757,467.166l-0.139,0.057l-0.011,0.023l0.011,0.033l0.051,0.043l0.046,0.022l0.043,0.001l0.022-0.017l0.037-0.043l-0.01-0.01l-0.05,0.048l-0.022-0.001l-0.052-0.015l-0.037-0.032l-0.008-0.025l0.008-0.018l0.13-0.051l0.019-0.023l-0.005-0.014L1337.757,467.166z M1341.362,467.047l-0.016,0.021l-0.07,0.003l-0.042-0.016l-0.029-0.034l0.008-0.029l0.068-0.044l0.034,0.01L1341.362,467.047z M1341.318,467.018l-0.016-0.023l-0.023-0.01l-0.036,0.018l-0.003,0.026l0.023,0.021l0.047-0.008L1341.318,467.018z M1330.577,463.819l0.002,0.019l0.014,0.014l0.014-0.009l0.002-0.019l-0.014-0.012L1330.577,463.819z M1329.036,467.771l-0.003,0.012l0.012,0.021l0.03,0.022h0.041l0.046,0.022l0.042,0.029l0.014-0.007l-0.002-0.029l-0.028-0.033l-0.038-0.031l-0.05-0.024l-0.054-0.036l-0.014,0.002l-0.008,0.017l0.009,0.02l0.018,0.003l0.011-0.008l0.015,0.003l0.014,0.015l0.029,0.011l0.038,0.019l0.033,0.031l0.013,0.026l-0.004,0.006l-0.018-0.016l-0.043-0.029l-0.028-0.007l-0.026,0.003l-0.019-0.007l-0.01-0.021l0.003-0.014l-0.008-0.004L1329.036,467.771z M1288.996,454.696l0.015-0.075l0.026-0.006l0.073,0.097l0.003,0.025l0.023,0.017l0.029-0.004l0.072,0.04l0.036,0.039l0.011,0.044l0.11,0.131l0.046,0.029l0.061,0.091l0.005,0.062l0.024,0.054l0.007,0.087l-0.008,0.029l-0.022,0.001l-0.01-0.022l0.014-0.043l-0.008-0.064l-0.022-0.028l-0.008-0.03l0.005-0.035l-0.063-0.086l-0.044-0.015l-0.077-0.086l-0.033-0.025l-0.012-0.026l-0.006-0.043l-0.066-0.054l-0.033-0.006l-0.077-0.061l-0.046-0.006L1288.996,454.696z M1295.499,455.413l0.081,0.073l0.009,0.017l0.059,0.055l0.043,0.026l0.035,0.033l0.009,0.062l0.045,0.043l0.022,0.01l0.014-0.009v-0.017l-0.028-0.068l-0.045-0.028l-0.04-0.038l-0.024-0.047l-0.023-0.088l-0.036-0.04l-0.047-0.017l-0.076-0.006l-0.023,0.01l0.005,0.023L1295.499,455.413z M1290.543,456.212l0.015,0.006l0.004-0.012l-0.004-0.023l-0.015,0.004V456.212z M1290.449,455.985l0.025,0.033l0.048,0.003l0.005,0.015l-0.008,0.03l0.022,0.087l-0.003,0.012l0.015,0.006l-0.007-0.081l0.018-0.05l-0.004-0.039l-0.041-0.04l-0.051,0.001L1290.449,455.985z M1293.823,455.341l0.029-0.01l0.042,0.01l0.042,0.057l0.026,0.065l-0.018,0.01l-0.029,0.003l-0.005,0.026l0.036,0.047l0.042,0.025l0.062,0.052l0.042-0.003v-0.035l-0.09-0.107l-0.01-0.049l-0.069-0.118l-0.09-0.087l-0.042,0.003l-0.024,0.048v0.042L1293.823,455.341z M1292.303,457.254l-0.004,0.045l-0.028,0.014l0.004,0.052l0.035,0.007l0.035,0.038l0.014,0.055l0.028,0.024l0.087,0.007l0.059,0.045l-0.003,0.076l-0.038,0.073l-0.038,0.007l-0.031-0.028l-0.031,0.007v0.035l-0.028,0.024l0.01,0.035l0.049,0.01l0.08-0.048l0.076-0.139l-0.01-0.087l-0.052-0.045l-0.128-0.045l-0.048-0.059l-0.007-0.055l0.021-0.049l-0.017-0.048l-0.083-0.017l-0.045-0.028l-0.042,0.028l0.003,0.031l0.052,0.045l0.028-0.017L1292.303,457.254z M1292.154,457.452l0.035-0.007l0.01-0.028l-0.042-0.007l-0.028,0.024L1292.154,457.452z M1290.496,456.204l0.011,0.025l0.021,0.008l0.017-0.007l-0.022-0.015l-0.008-0.05l-0.012-0.01l-0.012,0.014L1290.496,456.204z M1292.297,457.618l0.028,0.014l0.024-0.014l-0.01-0.055l-0.031-0.003l-0.017,0.024L1292.297,457.618z M1292.189,457.504l0.031,0.014l0.038-0.01l-0.004-0.035l-0.045-0.017l-0.035,0.021L1292.189,457.504z M1290.422,455.964l0.016,0.005l0.026-0.019l-0.01-0.023h-0.021l-0.019,0.023L1290.422,455.964z M1290.391,455.934l0.028-0.01l0.005-0.017l-0.036-0.036l-0.022,0.012l-0.01,0.019L1290.391,455.934z M1290.346,455.881l0.016-0.021l-0.042-0.023l-0.024,0.007l0.004,0.029L1290.346,455.881z M1289.568,455.446l0.019,0.002l0.023-0.029l-0.024-0.009l-0.019,0.023L1289.568,455.446z M1289.714,455.51l0.019-0.021v-0.017l-0.029,0.009l-0.009,0.021L1289.714,455.51z M1289.762,455.512l0.014-0.01l-0.014-0.016l-0.016,0.002l-0.009,0.023L1289.762,455.512z M1290.247,455.86l0.022,0.009l0.014-0.014l0.007-0.033l-0.017,0.007l-0.009,0.019L1290.247,455.86z M1290.214,455.829l0.031,0.002l0.012-0.009l-0.022-0.019h-0.028l-0.005,0.016L1290.214,455.829z M1289.655,455.486l0.019-0.014v-0.017l-0.019,0.003l-0.016,0.023L1289.655,455.486z M1289.786,455.536l0.019-0.007l-0.002-0.016h-0.019l-0.014,0.014L1289.786,455.536z M1289.812,455.564l0.014-0.012l-0.007-0.014l-0.021,0.007l-0.005,0.016L1289.812,455.564z M1289.847,455.595l0.014-0.007l0.002-0.017l-0.021-0.002l-0.009,0.019L1289.847,455.595z M1289.868,455.624l0.021-0.002v-0.014l-0.016-0.01l-0.012,0.014L1289.868,455.624z M1289.868,455.669l0.017-0.002l0.017-0.023l-0.017-0.002l-0.021,0.012L1289.868,455.669z M1289.915,455.688l0.016-0.009v-0.023l-0.016-0.002l-0.014,0.021L1289.915,455.688z M1290.112,455.801l0.017-0.005v-0.016l-0.021-0.003l-0.01,0.017L1290.112,455.801z M1290.079,455.775l0.012-0.012l-0.007-0.014h-0.019l-0.007,0.016L1290.079,455.775z M1289.948,455.713l0.016-0.007l0.002-0.016h-0.019l-0.01,0.012L1289.948,455.713z M1289.984,455.721l0.007-0.016v-0.016l-0.012,0.003l-0.009,0.026L1289.984,455.721z M1290.036,455.753l0.021-0.007l0.005-0.017l-0.014-0.002l-0.014,0.016L1290.036,455.753z M1290,455.735l0.012-0.01l0.003-0.017h-0.014l-0.009,0.017L1290,455.735z M1290.169,455.811l0.005-0.019l-0.012-0.012l-0.012,0.009l0.007,0.029L1290.169,455.811z M1290.18,455.836l0.014-0.012l-0.002-0.014l-0.017,0.002l-0.005,0.017L1290.18,455.836z M1289.553,455.416l0.014-0.014l0.005-0.017l-0.016,0.003l-0.017,0.023L1289.553,455.416z M1289.612,455.479l0.012-0.01l0.002-0.014h-0.016l-0.01,0.017L1289.612,455.479z M1287.828,452.73l0.062,0.005l0.062,0.029l0.06,0.055l0.039,0.01l0.047,0.073l0.143,0.112l0.023,0.117l-0.01,0.127l0.018,0.065l0.049,0.062l0.026,0.122l-0.018,0.031l-0.021-0.005l0.003-0.036h-0.023l-0.021,0.034l0.003,0.039l0.052,0.023l0.042-0.013l0.016-0.07l-0.039-0.171l-0.042-0.07l-0.016-0.057l0.016-0.075l-0.013-0.122l-0.042-0.06l-0.114-0.07l-0.029-0.047l-0.133-0.109l-0.068-0.026l-0.047,0.008l-0.052-0.018l-0.003,0.021L1287.828,452.73z M1287.667,452.644l0.026-0.005l0.057,0.042l0.005-0.023l-0.073-0.052l-0.034,0.005l-0.003,0.023L1287.667,452.644z M1287.758,452.699l0.021,0.003l0.008-0.013l-0.013-0.01l-0.018,0.005L1287.758,452.699z M1287.446,452.574l0.039-0.003l0.008-0.018l-0.029-0.039l-0.026,0.003l-0.013,0.039L1287.446,452.574z M1287.511,452.613l0.023-0.003v-0.021l-0.029-0.01l-0.021,0.016L1287.511,452.613z M1287.626,452.636l0.008-0.021l-0.005-0.016l-0.021,0.005v0.023L1287.626,452.636z M1287.566,452.631l0.021-0.008l-0.01-0.021l-0.023,0.003l-0.008,0.018L1287.566,452.631z M1287.407,452.628l0.016-0.01l0.003-0.021l-0.021-0.003l-0.01,0.021L1287.407,452.628z M1287.4,452.79l0.016-0.01v-0.018h-0.023l-0.008,0.021L1287.4,452.79z M1296.987,460.286l0.048,0.073l0.08,0.08l0.024-0.007l-0.014-0.048l-0.111-0.146l-0.083-0.024l-0.017,0.024L1296.987,460.286z M1293.887,459.79l0.035,0.052l0.024,0.021l0.035-0.003l0.003-0.031l-0.08-0.08l-0.059-0.01l-0.007,0.028L1293.887,459.79z M1285.721,449.158l0.073,0.01l0.052-0.003l-0.065-0.057l-0.036-0.013l-0.037,0.008l-0.01,0.031L1285.721,449.158z M1286.016,449.314l0.038-0.003l-0.003-0.028l-0.031-0.014l-0.024,0.021L1286.016,449.314z M1286.282,449.439l0.083,0.007l0.035-0.062v-0.132l-0.042-0.111l-0.035-0.121l-0.042-0.076l-0.263-0.218l-0.076,0.003l-0.052,0.052l-0.038,0.111l0.024,0.01l0.066-0.114l0.035-0.024l0.045,0.01l0.045,0.048l0.194,0.18l0.01,0.048l0.076,0.177l0.004,0.146l-0.028,0.021l-0.073,0.003l-0.024,0.024L1286.282,449.439z M1284.363,449.66l0.035,0.052l0.007,0.066l0.024,0.055l0.042,0.014l0.083-0.062l0.007-0.028l-0.052-0.038l-0.087-0.028l-0.038-0.097l-0.062-0.035l-0.038,0.021l0.007,0.038L1284.363,449.66z M1284.91,449.927l0.08,0.024l0.071-0.012l-0.003-0.018l-0.086-0.056l-0.083-0.003l-0.024,0.031L1284.91,449.927z M1285.139,450.121l0.028,0.017l0.076-0.052l0.045-0.146l-0.017-0.1l-0.059-0.045l-0.031,0.028l0.059,0.09l0.004,0.066l-0.042,0.08L1285.139,450.121z M1282.865,446.776l0.012-0.01l-0.009-0.023l0.012-0.01l0.043,0.016l0.035,0.036l-0.009,0.019l0.014,0.024l0.068,0.029l0.059,0.062l0.012,0.045l-0.023,0.04l-0.099,0.061l-0.033,0.061l-0.024,0.094l-0.042,0.08l-0.022,0.017l-0.005,0.019l0.016,0.017l-0.019,0.033l-0.023,0.017l-0.028-0.002l-0.021-0.031l-0.014,0.01l0.019,0.043l0.038,0.01l0.047-0.028l0.04-0.085l0.083-0.218l0.05-0.052l0.081-0.043l0.024-0.062l-0.016-0.054l-0.17-0.146l-0.09-0.035l-0.026,0.024l0.003,0.035L1282.865,446.776z M1282.891,446.811l0.014-0.019l-0.014-0.012l-0.016,0.01l-0.004,0.024L1282.891,446.811z M1282.811,447.356h0.017l0.017-0.009l-0.017-0.019l-0.016,0.01L1282.811,447.356z M1282.925,446.825l0.018-0.011l-0.007-0.014l-0.021,0.003l-0.004,0.015L1282.925,446.825z M1282.582,445.526l0.048-0.007l0.054,0.029l0.062,0.059l0.062,0.014l0.115-0.019l0.094-0.052l0.019-0.032l0.018-0.007l0.035,0.008l0.115-0.03h0.102l0.023-0.011l0.019,0.001l0.023,0.015l0.091,0.012l0.026-0.028l-0.003-0.046l-0.083-0.068l-0.061-0.018l-0.018,0.015l0.029,0.021l0.008,0.026l0.041,0.031l-0.005,0.023l-0.023,0.001l-0.018-0.014l-0.032-0.001l-0.022,0.012h-0.055l-0.079,0.006l-0.077,0.026l-0.043-0.008l-0.026,0.011l-0.021,0.033l-0.083,0.047l-0.109,0.022l-0.055-0.014l-0.043-0.046l-0.069-0.05l-0.063,0.001l-0.028,0.014l0.004,0.015L1282.582,445.526z M1282.828,445.402l0.068,0.003l0.011-0.028l-0.017-0.011l-0.023,0.017l-0.019-0.014l-0.003-0.032l-0.025,0.003l-0.015,0.043L1282.828,445.402z M1283.31,445.347l0.019-0.012l0.001-0.012l-0.022-0.011l-0.044-0.061l-0.052-0.05l-0.015-0.001l-0.017,0.022l0.008,0.018l0.035,0.012l0.039,0.03L1283.31,445.347z M1283.089,445.148l0.032,0.017l0.014-0.006l-0.023-0.035l-0.032-0.008l-0.021,0.019l0.007,0.015L1283.089,445.148z M1283.163,445.214l0.019-0.022l-0.005-0.012l-0.017,0.003l-0.008,0.026L1283.163,445.214z M1283.01,445.137l0.001-0.032l-0.014-0.012l-0.01,0.008l0.006,0.03L1283.01,445.137z M1283.026,445.162l0.018,0.004l0.001-0.011l-0.023-0.012l-0.004,0.01L1283.026,445.162z M1283.003,445.079l0.019-0.011l-0.011-0.023l-0.018-0.019l-0.021-0.044l-0.035-0.019l-0.012-0.026l0.003-0.026l-0.008-0.015l-0.021-0.017l-0.032-0.069l-0.007-0.036l-0.023-0.017l-0.035-0.012l-0.022-0.043l0.007-0.044l-0.036-0.112l0.001-0.052l-0.028-0.033l-0.019,0.001v0.019l0.013,0.013v0.026l-0.022,0.031l0.005,0.021l0.025,0.012l0.03,0.076l-0.007,0.043l0.04,0.069l0.043,0.023l0.046,0.113l0.021,0.021l0.01,0.043l0.017,0.026l0.034,0.023l0.011,0.019l0.004,0.026l0.013,0.006L1283.003,445.079z M1283.042,445.107l0.018,0.001l-0.001-0.015l-0.025-0.025l-0.015,0.014L1283.042,445.107z M1283.126,445.203l0.011-0.004l0.01-0.028l-0.008-0.001l-0.018,0.017L1283.126,445.203z M1283.798,443.17l0.011,0.036l0.03,0.015l0.151,0.011l0.028-0.019l0.001-0.03l-0.037-0.051h-0.03l-0.005,0.01l0.03,0.032l0.004,0.019l-0.005,0.018l-0.04,0.004l-0.086-0.017l-0.016-0.018l-0.001-0.05l-0.022-0.006l-0.008,0.01L1283.798,443.17z M1283.81,443.115l0.019,0.004l0.007-0.01l0.012-0.025l0.003-0.04l-0.008-0.032l0.005-0.04l0.028-0.01l0.033,0.006l0.023,0.061l-0.001,0.022l0.005,0.026l0.014,0.046h0.018l0.004-0.018l-0.015-0.041l-0.008-0.051l-0.024-0.087l-0.028-0.036l-0.036,0.001l-0.03,0.04l-0.01,0.088l0.008,0.036l-0.003,0.023L1283.81,443.115z M1282.354,443.28l0.021-0.018l0.016-0.031l-0.021-0.016l-0.023,0.023l-0.008,0.036L1282.354,443.28z M1282.504,443.303l0.01-0.018l-0.023-0.013l-0.018,0.005v0.023L1282.504,443.303z M1282.572,443.888h0.029l0.018-0.013l-0.047-0.013l-0.018,0.01L1282.572,443.888z M1282.393,443.63l0.023,0.005l0.005-0.018l-0.023-0.01l-0.026,0.01L1282.393,443.63z M1282.104,443.547l0.138,0.01l0.034-0.005l-0.036-0.021l-0.14-0.013l-0.018,0.013L1282.104,443.547z M1282.832,444.181l0.047,0.013l0.07-0.013l0.096-0.138l0.016-0.091l-0.018-0.099l-0.117-0.125l-0.086-0.13l-0.005-0.042l-0.042-0.06l-0.078-0.057l-0.096-0.112l-0.06-0.044h-0.026l0.003,0.031l0.031,0.003l0.088,0.094v0.034l0.023,0.021l0.047,0.013l0.075,0.083l0.01,0.052l0.078,0.12l0.127,0.138l0.016,0.096l-0.023,0.088l-0.062,0.088l-0.039,0.021l-0.044-0.01l-0.013-0.018l-0.021-0.01l-0.021,0.016l0.003,0.021L1282.832,444.181z M1282.055,443.521l0.013-0.013l0.01-0.018h-0.023l-0.01,0.018L1282.055,443.521z M1282.411,443.272l0.018-0.005l-0.003-0.018l-0.021-0.01l-0.013,0.023L1282.411,443.272z M1282.804,438.179l0.028-0.036l0.028-0.003l0.016-0.01l0.005-0.042l-0.016-0.017l-0.022,0.007h-0.033l-0.064,0.055l-0.002,0.024l0.019,0.026l0.005,0.031h0.016L1282.804,438.179z M1282.775,438.274l0.017-0.014l-0.009-0.014l-0.017,0.003l-0.005,0.019L1282.775,438.274z M1282.726,438.387l0.014-0.002l0.019-0.029l0.007-0.036l-0.016-0.003l-0.021,0.033L1282.726,438.387z M1282.716,438.465l0.023-0.021l-0.002-0.033l-0.016,0.002l-0.021,0.043L1282.716,438.465z M1281.94,439.338l-0.002,0.038l0.009,0.021l0.017-0.007l0.004-0.036l0.036-0.04l0.045-0.009l0.029-0.017l0.035-0.045l0.043-0.017l0.028-0.021l0.076-0.017l0.097-0.007l0.109,0.026l0.007-0.014l-0.033-0.042l-0.014,0.005l0.007,0.016l-0.017,0.005l-0.024-0.016l-0.12-0.003l-0.099,0.017l-0.023,0.029l-0.045,0.019l-0.052,0.048l-0.074,0.019l-0.038-0.007l-0.048-0.043l-0.007,0.014L1281.94,439.338z M1281.785,439.05l0.016-0.009l-0.019-0.01l-0.009-0.016l0.009-0.012l-0.01-0.012l-0.016,0.019l0.003,0.029L1281.785,439.05z M1281.668,438.583l0.021-0.003l-0.002-0.017l-0.026-0.033l-0.007,0.014L1281.668,438.583z M1281.709,438.559l0.022-0.002l0.059,0.031l0.038,0.055l0.099,0.069l0.069,0.019l0.012-0.012l-0.016-0.007l-0.05-0.014l-0.081-0.052l-0.036-0.036l-0.014-0.029l-0.031-0.023l-0.038-0.016l-0.022-0.021l-0.005-0.017h-0.016l0.002,0.04L1281.709,438.559z M1282.697,438.87l-0.01,0.009l-0.021,0.038l-0.042,0.038l-0.078,0.048l-0.042,0.014l-0.035,0.038l-0.01,0.035l-0.019,0.028l0.014,0.016l0.014-0.007l0.024-0.059l0.026-0.029l0.123-0.068l0.062-0.057l0.036-0.026l0.005-0.023l-0.014-0.033l-0.009,0.003l0.005,0.028l-0.009,0.01L1282.697,438.87z M1282.677,438.746l0.017-0.007l0.002-0.014l-0.021-0.003l-0.01,0.012L1282.677,438.746z M1282.66,438.701l0.017-0.002l0.01-0.017l-0.017-0.01l-0.031,0.002l0.003,0.014L1282.66,438.701z M1282.523,438.716l0.024-0.023l0.033-0.014l-0.003-0.014l-0.045,0.017l-0.023,0.035L1282.523,438.716z M1282.416,439.146l0.023-0.007l-0.01-0.014l-0.017,0.002l-0.007,0.014L1282.416,439.146z M1281.874,439.127l0.012-0.002l-0.003-0.016l-0.012-0.005l-0.009,0.014L1281.874,439.127z M1281.706,438.74l0.016,0.019l0.022,0.005l-0.003-0.016l-0.026-0.016L1281.706,438.74z M1281.771,438.863l0.012-0.007l0.002-0.014h-0.019l-0.005,0.012L1281.771,438.863z M1281.668,438.624l0.017,0.003l0.016-0.01l-0.012-0.01l-0.016,0.003L1281.668,438.624z M1281.687,438.659h0.012l0.005-0.009l-0.01-0.009l-0.01,0.005L1281.687,438.659z"/>
</svg>
