<svg xmlns="http://www.w3.org/2000/svg" viewBox="1109.036 321.364 3.053 1.858">
  <path d="M1111.833,321.563l-0.023,0.018l-0.012,0.023l0.003,0.021l0.022-0.028l0.025-0.008l0.028,0.019l-0.011,0.057l-0.028,0.028l0.012,0.029l0.057,0.035l0.028-0.016l0.029,0.007l0.039,0.055l-0.012,0.014l-0.028-0.014l-0.029,0.007l-0.017,0.033l0.007,0.048l0.032,0.029l-0.01,0.028l-0.023-0.012l-0.003-0.021l-0.015-0.014l-0.023,0.022l-0.036,0.108l0.013,0.034l-0.023,0.023l-0.075,0.026l-0.047,0.081l0.003,0.039l-0.091,0.083l-0.031,0.016v0.017l0.034-0.003l0.003,0.026l-0.068,0.056l-0.036-0.003l-0.04,0.012l-0.08-0.01l-0.052,0.016l-0.073,0.081l-0.04,0.021h-0.057l-0.142,0.036l-0.102-0.005l-0.056,0.016l-0.016,0.038l-0.05,0.024l-0.036,0.041l-0.075,0.013l-0.031-0.021l-0.046-0.002l-0.021,0.01v0.023l-0.023,0.004l-0.048-0.021l-0.112,0.001l-0.05,0.033l-0.095,0.019l-0.047-0.007l-0.026-0.042l-0.038-0.01l-0.048,0.029l-0.047-0.01l-0.022-0.029l-0.047-0.002l-0.087,0.049l-0.166-0.014l-0.016-0.016l-0.047,0.002l-0.085,0.066l-0.02,0.074l0.011,0.029l-0.014,0.01l-0.029-0.019l-0.023,0.003l-0.022,0.017l-0.03-0.022l-0.005-0.036l-0.069-0.044l-0.015-0.05l-0.051-0.039l-0.058,0l-0.109-0.083l-0.06-0.13l0.016-0.096l-0.016-0.055l0.029-0.058l0.03-0.013l0.016-0.047l0.118-0.072l0.028-0.051l0.099-0.054l0.026-0.031l0.021-0.097l0.031-0.023l0.121-0.05l0.025-0.063l0.036-0.016l0.07,0.005l0.187-0.081l0.044,0.01l0.291-0.101l0.029-0.034l0.044-0.01l0.049,0.013l0.257-0.039l0.062-0.039l0.114-0.013l0.042-0.047l0.042-0.005l0.055,0.034l0.225-0.063l0.047,0.008l0.052-0.007l0.03-0.022l0.063,0.006l0.07,0.023l0.052-0.01l0.039,0.013l0.016,0.052l0.119,0.074l0.033-0.018l0.065,0.01l0.039,0.021L1111.833,321.563z M1109.062,322.416l0.011-0.008l-0.007-0.01l-0.03,0.006v0.011L1109.062,322.416z M1109.344,322.027l0.019-0.008l0.001-0.017l-0.014-0.01l-0.015,0.006l-0.005,0.021L1109.344,322.027z M1112.05,321.673l0.026-0.007l0.013-0.042l-0.013-0.047l-0.031-0.024l-0.012-0.029l-0.026,0.007l-0.025,0.081l0.016,0.043L1112.05,321.673z M1109.481,323.007l0.028,0.007l0.022-0.016l-0.005-0.028l-0.023-0.005l-0.022,0.016V323.007z M1109.49,323.184l-0.007,0.017l0.007,0.021l0.014-0.002l0.003-0.029L1109.49,323.184z M1110.407,322.78l-0.007,0.012l0.015,0.008l0.01-0.007l-0.007-0.015L1110.407,322.78z M1110.596,322.765l0.014-0.003l-0.003-0.014l-0.018-0.003l-0.008,0.01L1110.596,322.765z M1110.716,322.751l0.011-0.008l-0.003-0.011l-0.017-0.001l-0.007,0.014L1110.716,322.751z M1110.92,322.773l0.014-0.006v-0.014h-0.018l-0.008,0.012L1110.92,322.773z"/>
</svg>
