<svg xmlns="http://www.w3.org/2000/svg" viewBox="335.462 376.522 6.276 1.913">
  <path d="M335.474,377.936l0.097-0.028l0.069,0.062l0.042,0.139l0.014,0.132l0.09,0.048l0.111-0.021l0.055-0.095l0.062,0.012l0.028-0.062l-0.038-0.043l-0.01-0.068l0.132,0.062l0.222,0.028l0.187-0.042l0.139,0.014l0.042,0.132l-0.09,0.111l-0.194,0.007l-0.09-0.042l-0.201,0.042l-0.097,0.097l-0.139,0.014l-0.18-0.055l-0.104,0.055l-0.062-0.09l0.035-0.152l-0.035-0.146l-0.097-0.042L335.474,377.936z M340.83,376.678l-0.423,0.1l-0.083,0.104l0.083,0.028l0.291-0.135l0.139-0.024L340.83,376.678z M341.131,376.803l0.163-0.01l0.17-0.094l0.191-0.042l0.083-0.104l-0.062-0.031l-0.114,0.073l-0.159,0.021l-0.114,0.111l-0.139,0.035L341.131,376.803z"/>
</svg>
