<svg xmlns="http://www.w3.org/2000/svg" viewBox="414.943 397.959 0.761 1.517">
  <path d="M414.948,398.882l-0.005-0.059l0.047-0.121l0.029-0.041l-0.001-0.023l0.011-0.018l0.032-0.012l0.066-0.111l0.012-0.066l0.014-0.009l0.028,0.017l0.016-0.01l-0.017-0.038l0.012-0.055l0.028-0.019l0.017,0.002l0.023,0.017l0.014-0.007l-0.023-0.021l-0.028-0.01l0.002-0.021l0.021-0.002l0.012,0.014l0.024-0.002l0.055-0.05l0.007-0.047l-0.021-0.045l0.007-0.028l0.061-0.017l0.021-0.031l-0.017-0.035l-0.017-0.007l-0.021,0.007l-0.003-0.01l0.021-0.014l0.033,0.007l0.028-0.048l0.026-0.01l0.074,0.019l0.012,0.036l-0.017,0.014l-0.024,0.002l0.003,0.017l0.021,0.003l0.038,0.036l-0.007,0.052h0.012l0.028-0.021l0.024,0.007l0.038,0.05l-0.009,0.045l-0.019,0.017l0.002,0.023l0.023,0.01l0.012,0.054l-0.009,0.026l0.012,0.054l0.026,0.021l0.002,0.062l-0.01,0.024l0.003,0.097l-0.019,0.033l-0.023,0.005l-0.009,0.023l0.026,0.024l-0.002,0.017l-0.017,0.005l-0.002,0.017l0.035,0.028v0.026l-0.019,0.033l-0.033,0.009l-0.009,0.026l0.009,0.014l0.026-0.002l0.014,0.016l-0.007,0.104l-0.035,0.047l-0.024,0.124l0.01,0.047l-0.035,0.064l-0.028,0.004l-0.036-0.017l-0.018,0.017l0.003,0.024l-0.04,0.066l-0.002,0.028l-0.023,0.029l0.005,0.029l0.021,0.012l-0.003,0.017h-0.047l-0.026-0.014l0.005-0.014l0.017-0.009l-0.012-0.033l-0.045-0.014l-0.038-0.003l-0.059-0.04l-0.002-0.017l-0.029-0.023l-0.08-0.005l-0.099-0.071l-0.003-0.028l-0.054-0.047l-0.002-0.036l-0.036-0.017l0.002-0.019L415,399.06l0.009-0.035l-0.017-0.021v-0.024l0.031-0.05l-0.017-0.024l-0.028,0.002L414.948,398.882z"/>
</svg>
