<svg xmlns="http://www.w3.org/2000/svg" viewBox="403.120 382.691 0.660 0.309">
  <path d="M403.179,382.982l-0.059-0.033l0.029-0.045l0.066,0.003l0.024-0.023l0.014,0.012l-0.003,0.019l0.047,0.019l0.049-0.003l0.033-0.045l-0.009-0.033l0.062-0.076l0.028,0.009l0.031-0.021l0.01-0.047l0.054-0.019l0.047,0.005l0.021,0.048l-0.024,0.021l0.014,0.064l0.029,0.029l-0.014,0.047l0.008,0.022l-0.014,0.032l-0.095-0.006l-0.023-0.025h-0.052l-0.041,0.054l-0.07,0.01l-0.062-0.023L403.179,382.982z M403.78,382.693l-0.023-0.002l-0.028,0.017l-0.014,0.026l0.061-0.014L403.78,382.693z"/>
</svg>