<svg xmlns="http://www.w3.org/2000/svg" viewBox="850.034 524.841 1.896 2.768">
  <path d="M850.304,526.502l0.024-0.113l0.043-0.033l0.012-0.023l-0.002-0.043l0.123-0.121l0.118-0.048l0.038,0.021l0.024-0.021l-0.017-0.031l0.017-0.013l0.043,0.034l0.016-0.005l-0.036-0.043l0.036-0.033l-0.017-0.063l0.045-0.065h0.026l0.007-0.019l-0.018-0.043l0.05-0.192l0.058-0.022l0.064-0.083l-0.026-0.05l0.005-0.035l0.048,0.012l0.009,0.023l-0.016,0.024l0.014,0.019l0.066-0.007l0.002-0.023l-0.021-0.014l0.009-0.026l0.076-0.071l0.064-0.005l0.083,0.023l0.014,0.042l0.031,0.019l0.047-0.005l0.087,0.052l0.023,0.139l-0.019,0.049l0.111,0.168h0.069l0.074,0.024l0.035,0.083l-0.023,0.076l-0.031,0.038l0.01,0.026l0.05-0.01l0.052,0.052l0.01,0.09l0.107,0.123l-0.009,0.054l-0.045,0.007v0.023l0.029,0.021l-0.003,0.019l-0.017,0.028l0.003,0.1l-0.026,0.038l-0.033-0.016l-0.012,0.021l0.023,0.023l-0.003,0.057l-0.035,0.016l-0.003,0.033l0.033,0.012l0.005,0.035l-0.059,0.002l0.01,0.026l-0.029,0.035l-0.051,0.011l-0.046,0.073L851.583,527l-0.05-0.018l-0.007,0.017l0.011,0.026l-0.01,0.079l0.039,0.029l0.001,0.023l0.061,0.034l-0.001,0.052l-0.04,0.036l-0.119,0.072l-0.003,0.037l-0.182,0.093l-0.138,0.028l-0.052,0.044l-0.233,0.057l-0.041-0.023l-0.144-0.003l-0.087-0.057l-0.047-0.001l-0.073,0.035l-0.184-0.08l-0.108-0.03l-0.047-0.105l-0.046-0.006l-0.023,0.032l-0.026-0.009l0.002-0.042l0.045-0.085l0.015,0.012l-0.004,0.022l0.069,0.001l0.076-0.127l0.001-0.084l0.03-0.011l-0.004-0.018l-0.033-0.01l0.008-0.055l0.022-0.003l-0.001-0.028l-0.033-0.023l0.012-0.109l0.043-0.019l-0.004-0.019l-0.023-0.012l-0.02-0.118L850.304,526.502z M850.169,527.193l0.014-0.04l-0.019,0.002l-0.021,0.035l0.005,0.028L850.169,527.193z M851.93,526.608l-0.011-0.028l-0.001-0.037l-0.018,0.004l0.002,0.066L851.93,526.608z M851.52,525.636l0.026,0.005l0.016-0.014l-0.028-0.021l-0.016-0.028l-0.029,0.029l0.005,0.038L851.52,525.636z M851.207,525.221l0.029,0.018l-0.003-0.062l-0.047,0.008l-0.003,0.034L851.207,525.221z M851.355,525.005l0.029-0.021l-0.026-0.042l-0.026,0.008L851.318,525L851.355,525.005z M851.854,524.906l0.031-0.036l-0.008-0.029l-0.047,0.005l-0.008,0.047L851.854,524.906z M851.39,525.005l-0.01,0.023l0.028,0.005V525L851.39,525.005z M851.667,527.158v-0.017l-0.023-0.003l-0.012,0.019l0.016,0.019L851.667,527.158z M851.758,527.098l0.023-0.017l0.003-0.019l-0.031,0.021L851.758,527.098z"/>
</svg>
