<svg xmlns="http://www.w3.org/2000/svg" viewBox="906.745 424.342 3.906 28.977">
  <path d="M908.702,452.876l0.018-0.023l0.066,0.004l0.008,0.023l-0.047,0.06l0.006,0.109l-0.021,0.058l-0.018-0.012l0.016-0.066l-0.012-0.103l0.012-0.035L908.702,452.876z M908.601,453.274l0.027-0.027l0.006-0.035l-0.027-0.01l-0.004,0.037l-0.016,0.027L908.601,453.274z M908.445,453.315l0.06,0.004l0.029-0.027l-0.029-0.023l-0.08-0.023l-0.087-0.084l-0.053-0.096v-0.045l-0.035-0.072l-0.039-0.041l0.012-0.021l-0.01-0.031l-0.037,0.019l0.004,0.041l0.052,0.113l0.033,0.035l0.057,0.116l0.043,0.051l0.016,0.037L908.445,453.315z M909.461,451.821l0.025,0.047l0.043,0.006l0.016-0.017l-0.082-0.109l-0.021-0.014l-0.025,0.019l0.002,0.037L909.461,451.821z M907.901,448.928l0.004-0.037l-0.014-0.023l-0.025-0.004l-0.021,0.031l0.016,0.043L907.901,448.928z M907.925,449.087l0.002-0.043l-0.012-0.014l-0.019,0.014l-0.004,0.023l0.014,0.033L907.925,449.087z M907.88,449.017l0.014,0.01l0.016-0.01l-0.01-0.017l-0.015-0.001L907.88,449.017z M907.893,448.769l0.014-0.026l-0.003-0.021h-0.03l-0.005,0.04L907.893,448.769z M908.26,448.716l0.002-0.019l-0.005-0.007l-0.011,0.013l0.003,0.019L908.26,448.716z M907.882,448.801l-0.003-0.015l-0.01-0.001l-0.002,0.015L907.882,448.801z M907.875,448.843l-0.008-0.016h-0.01v0.019L907.875,448.843z M907.922,449.131l-0.002-0.014h-0.009l-0.006,0.011L907.922,449.131z M907.91,449.233l0.019-0.003l0.004-0.008l-0.008-0.006l-0.019,0.011L907.91,449.233z M907.922,449.258l0.018-0.008l-0.004-0.011l-0.014,0.001l-0.006,0.009L907.922,449.258z M907.947,449.277l0.022-0.011l-0.012-0.018l-0.024,0.013l-0.001,0.013L907.947,449.277z M908.001,449.503l0.001-0.014l-0.007-0.004l-0.007,0.012L908.001,449.503z M907.998,449.586l0.015-0.012l-0.014-0.007l-0.016,0.012L907.998,449.586z M909.008,449.776l0.004-0.009l-0.016-0.014l-0.012,0.009L909.008,449.776z M909.113,449.79l0.034-0.017l0.002-0.016l-0.043,0.009l-0.005,0.014L909.113,449.79z M909.179,449.784l0.02-0.006l-0.002-0.019l-0.027,0.002l-0.009,0.01L909.179,449.784z M909.227,449.696l0.007-0.009l-0.008-0.019l-0.01,0.003v0.021L909.227,449.696z M909.487,449.735l0.022-0.022l0.045-0.057l-0.007-0.012l-0.047,0.004l-0.027,0.046v0.032L909.487,449.735z M908.914,449.897l0.045-0.039l-0.008-0.017l-0.025-0.001l-0.04,0.024l-0.002,0.029L908.914,449.897z M909.505,449.479l0.016,0.004l0.009-0.014l-0.007-0.004L909.505,449.479z M908.493,448.246l0.009,0.007l0.015-0.005l-0.002-0.017l-0.019,0.002L908.493,448.246z M908.618,448.602l0.007-0.006l-0.01-0.011l-0.009,0.001l-0.002,0.017H908.618z M908.805,448.655l0.004-0.011l-0.009-0.011l-0.013,0.006v0.017H908.805z M908.615,448.739l0.003-0.006l-0.02-0.015l-0.005,0.009l0.006,0.013L908.615,448.739z M908.568,447.601l0.021,0.012l0.004-0.009l-0.005-0.013l-0.014-0.001L908.568,447.601z M908.635,447.664l0.013,0.017l0.013-0.004l-0.014-0.021l-0.01-0.001L908.635,447.664z M908.798,447.571l0.011,0.003l-0.001-0.014l-0.011-0.011l-0.01,0.009L908.798,447.571z M909.41,447.588l0.009,0.001l0.007-0.01l-0.014-0.024l-0.012,0.002l0.01,0.018V447.588z M909.528,447.939l0.008-0.036l-0.003-0.023l-0.031-0.012l-0.013,0.002l0.019,0.026l0.002,0.04L909.528,447.939z M909.51,448.024l0.017-0.013l-0.011-0.011v-0.032l-0.021,0.001l-0.005,0.014L909.51,448.024z M908.613,449.995l0.019,0.019l0.028-0.007l-0.011-0.014l-0.024-0.006L908.613,449.995z M908.577,449.973l0.021,0.017l0.014-0.014l-0.015-0.014l-0.019-0.002L908.577,449.973z M908.464,449.933l0.024,0.02l0.026-0.025l-0.006-0.007l-0.018,0.011l-0.011-0.007l0.003-0.032l-0.013-0.005l-0.005,0.032L908.464,449.933z M908.537,449.941l0.002-0.013l-0.011,0.004l-0.002,0.014L908.537,449.941z M908.559,449.939l-0.001-0.009l-0.01,0.001l-0.001,0.019L908.559,449.939z M908.03,449.625l0.003-0.017l-0.008-0.014l-0.013,0.01l0.002,0.014L908.03,449.625z M908.409,449.915l0.016-0.007l-0.004-0.034l-0.043-0.024l-0.029-0.043l-0.031-0.012l-0.01,0.008l0.043,0.034l0.028,0.044l0.023,0.013L908.409,449.915z M908.28,449.785l0.019-0.009l-0.016-0.029l-0.021-0.003l-0.004,0.014l0.012,0.009L908.28,449.785z M908.237,449.741l0.013-0.007l-0.018-0.021l-0.007,0.007l0.003,0.013L908.237,449.741z M908.203,449.725l0.01-0.011l-0.024-0.014l-0.033-0.007l-0.025-0.032l-0.013-0.004l-0.002,0.017l0.033,0.043l0.027,0.001L908.203,449.725z M908.067,449.633l0.026,0.015l0.01-0.005l-0.024-0.023l-0.032-0.008l-0.008,0.012L908.067,449.633z M909.697,449.527l0.031-0.012l0.021-0.029l-0.018-0.01l-0.027,0.01l-0.019,0.026L909.697,449.527z M909.79,449.473l0.039-0.025l-0.008-0.009l-0.045,0.021l-0.016,0.017l0.008,0.023L909.79,449.473z M909.93,449.335l0.014,0.014l0.016-0.035v-0.032l0.021-0.025l-0.012-0.017l-0.026,0.041L909.93,449.335z M909.999,449.19l0.021-0.003l0.008-0.038l-0.001-0.021l-0.014-0.003l-0.003,0.031L909.999,449.19z M910.013,449.084l0.003-0.022l-0.008-0.012l-0.009,0.016l-0.001,0.025L910.013,449.084z M909.749,448.847l0.013-0.008l-0.016-0.009l-0.014,0.013L909.749,448.847z M909.983,449.008l0.021-0.001l-0.009-0.019l-0.014-0.001L909.983,449.008z M909.961,448.956l0.014-0.005l-0.001-0.019l-0.016-0.013l-0.008,0.012L909.961,448.956z M909.939,448.89l0.021,0.003l0.001-0.016l-0.027-0.041l-0.022-0.006v0.016L909.939,448.89z M909.882,448.724l0.008-0.009l-0.001-0.023l-0.013,0.001L909.882,448.724z M909.536,448.082l0.003-0.021l-0.009-0.013l-0.01,0.01l0.005,0.028L909.536,448.082z M909.543,448.17l0.003-0.025l-0.008-0.017l-0.009,0.01l0.001,0.039L909.543,448.17z M909.527,448.28l0.008-0.01l-0.006-0.017l-0.009-0.001l-0.001,0.022L909.527,448.28z M909.548,448.354l0.005,0.019l0.019-0.003v-0.022l-0.03-0.019l-0.008,0.01L909.548,448.354z M909.606,448.424l0.019-0.001v-0.014l-0.025-0.012l-0.01,0.01L909.606,448.424z M909.696,448.479l0.019,0.006l0.007-0.013l-0.03-0.016l-0.008,0.01L909.696,448.479z M909.798,448.556l0.012,0.004l-0.001-0.017l-0.012-0.016l-0.008,0.005L909.798,448.556z M909.836,448.605l0.009-0.014l-0.016-0.004l-0.012,0.013L909.836,448.605z M909.847,448.639l0.01-0.003l0.001-0.014l-0.013-0.012l-0.005,0.021L909.847,448.639z M907.192,438.704l0.016-0.015l-0.008-0.014l-0.014,0.01l-0.004,0.016L907.192,438.704z M907.858,438.631l0.012,0.016l0.008-0.009l-0.003-0.016L907.858,438.631z M907.998,438.851l0.016-0.003l-0.003-0.012l-0.019-0.001l-0.009,0.01L907.998,438.851z M907.791,439.199l0.016,0.008l0.012-0.013l-0.014-0.005L907.791,439.199z M907.561,439.397l0.026,0.009l0.019-0.004l-0.007-0.017l-0.023,0.001L907.561,439.397z M907.438,439.422l0.016,0.013l0.016-0.004v-0.021l-0.016-0.004L907.438,439.422z M907.925,439.707l-0.001-0.012l-0.01-0.001l-0.004,0.014L907.925,439.707z M907.829,439.741l0.009-0.006l-0.008-0.01l-0.017,0.013L907.829,439.741z M907.818,439.871l0.018-0.005l0.008-0.009l-0.021-0.005l-0.012,0.012L907.818,439.871z M907.477,439.915l0.014-0.009l-0.008-0.012l-0.014-0.001l-0.005,0.014L907.477,439.915z M907.367,439.963l0.012-0.004l-0.001-0.017l-0.012-0.004l-0.004,0.018L907.367,439.963z M907.266,440.066l0.008-0.016l-0.003-0.013l-0.016-0.001l-0.003,0.027L907.266,440.066z M907.306,440.156l0.008-0.008l-0.008-0.01l-0.017,0.004l-0.004,0.012L907.306,440.156z M909.755,438.364l0.013,0.01l0.018-0.013l-0.018-0.01L909.755,438.364z M910.201,439.301l-0.005,0.023l0.018,0.01l0.01-0.049l-0.023-0.008l-0.013,0.008L910.201,439.301z M909.24,439.997l0.016,0.019l0.012-0.008l-0.006-0.021l-0.012-0.002L909.24,439.997z M910.05,439.803l0.012,0.012l0.017-0.045l-0.01-0.006L910.05,439.803z M909.998,439.83l0.016,0.008l0.01-0.017l-0.023-0.023l-0.006,0.016L909.998,439.83z M909.984,439.932l0.009,0.011l0.023-0.024l-0.001-0.02l-0.021-0.01l-0.01,0.012L909.984,439.932z M909.977,440.064l0.002-0.03l-0.012-0.006v0.03L909.977,440.064z M909.98,440.021l0.011,0.003l-0.002-0.021l-0.008-0.008L909.98,440.021z M909.852,440.164v-0.009l-0.016,0.002l-0.003,0.011L909.852,440.164z M909.215,440.426l0.01,0.025l0.012-0.003v-0.013l-0.013-0.012L909.215,440.426z M909.415,440.497l-0.004-0.016l-0.008-0.001l0.003,0.022L909.415,440.497z M909.407,440.467l0.012,0.007l0.008-0.009l-0.006-0.025h-0.013V440.467z M909.42,440.422l0.014,0.012l0.008-0.017l-0.005-0.021h-0.012L909.42,440.422z M909.438,440.367l0.014,0.005l0.016-0.03l-0.009-0.01l-0.012,0.012L909.438,440.367z M909.479,440.307l0.014,0.001l0.013-0.021l-0.008-0.01l-0.014,0.013L909.479,440.307z M907.35,440.779l0.012-0.001l-0.026-0.016l-0.005,0.006L907.35,440.779z M907.445,440.862h0.036l0.013-0.017l-0.012-0.025l-0.019-0.004l-0.019,0.013L907.445,440.862z M907.608,440.82l0.029-0.026l-0.004-0.013l-0.035,0.022l-0.002,0.022L907.608,440.82z M907.814,440.699l0.018-0.021l-0.01-0.006l-0.013,0.015l-0.003,0.011H907.814z M907.882,440.638l-0.002-0.012l-0.009-0.004l-0.005,0.023L907.882,440.638z M907.897,440.609l0.012,0.006l0.024-0.023l0.011-0.043l-0.012-0.004l-0.012,0.035L907.897,440.609z M907.938,440.529l0.013,0.007l0.004-0.007l-0.01-0.011L907.938,440.529z M907.956,440.487l-0.002-0.01l-0.01-0.003v0.017L907.956,440.487z M907.952,440.43l-0.001-0.03l0.008,0.005l0.003,0.027l-0.006,0.013h-0.009L907.952,440.43z M908.228,441.252l0.026,0.006l0.017-0.001l0.006-0.016l-0.023-0.003L908.228,441.252z M908.416,441.291l0.009,0.016l0.01-0.004l0.001-0.017l-0.01-0.001L908.416,441.291z M908.788,441.444l0.013,0.008l0.009-0.003l0.005-0.01l-0.016-0.003L908.788,441.444z M909.003,441.466l-0.001-0.017l-0.008-0.009l-0.014,0.006l0.01,0.016L909.003,441.466z M909.13,441.673l0.026,0.03l0.027,0.101l0.001,0.102l0.009,0.004l0.008-0.062l-0.003-0.049l-0.035-0.105l-0.023-0.022L909.13,441.673z M907.544,442.144l0.021,0.008l0.01-0.034l-0.018-0.023l-0.014,0.001l0.005,0.025L907.544,442.144z M907.634,442.232l0.016,0.013l0.009-0.01v-0.019l-0.016-0.003L907.634,442.232z M907.617,442.317l0.006-0.016l-0.013-0.01l-0.013,0.005l0.001,0.016L907.617,442.317z M907.896,442.682l0.007,0.012l0.013-0.008l-0.016-0.012L907.896,442.682z M907.966,442.682l-0.009-0.011l-0.023,0.008l0.003,0.02L907.966,442.682z M908.142,442.676l0.009,0.009l0.011-0.011l0.005-0.023l-0.014,0.001L908.142,442.676z M908.095,442.688l0.007,0.018l0.019-0.023l-0.003-0.017l-0.014,0.005L908.095,442.688z M908.249,442.577l0.025,0.023l0.023-0.004l-0.008-0.014l-0.035-0.022L908.249,442.577z M908.325,442.573l0.005,0.014l0.012-0.002l0.001-0.021l-0.01-0.002L908.325,442.573z M908.395,442.55l0.009-0.022l-0.004-0.008l-0.019,0.019l0.001,0.017L908.395,442.55z M908.425,442.548l0.001-0.012l0.018-0.015l0.001-0.011l-0.017,0.001l-0.016,0.026l0.004,0.013L908.425,442.548z M908.641,442.385l0.011-0.007l-0.005-0.01l-0.014,0.003l-0.006,0.011L908.641,442.385z M908.799,442.274l0.005-0.008l-0.003-0.007l-0.012,0.004l-0.003,0.01L908.799,442.274z M908.961,442.168l0.004-0.01l-0.005-0.007l-0.014,0.006l-0.003,0.009C908.938,442.164,908.961,442.168,908.961,442.168z M909.031,442.117l0.018-0.013l-0.001-0.009l-0.016,0.003l-0.012,0.014L909.031,442.117z M909.085,442.062l0.011,0.009l0.019-0.017v-0.013l-0.008-0.005L909.085,442.062z M909.115,442.027l0.009,0.007l0.012-0.02l-0.003-0.01l-0.012,0.005L909.115,442.027z M909.152,441.997l0.009,0.009l0.009-0.011l-0.004-0.017L909.152,441.997z M909.182,441.976l0.009,0.005l0.013-0.01l-0.007-0.014l-0.012,0.006L909.182,441.976z M909.183,443.247l0.008-0.017l-0.012-0.006l-0.01,0.014L909.183,443.247z M908.793,443.649l0.01,0.008l0.002-0.035l-0.01-0.004L908.793,443.649z M908.785,443.862l0.013,0.008l0.01-0.005l-0.006-0.016l-0.01,0.001L908.785,443.862z M908.849,443.908v0.01l0.018,0.004l0.005-0.009l-0.017-0.01L908.849,443.908z M908.92,444.029l0.031,0.022l0.008-0.004l-0.009-0.021l-0.019-0.006L908.92,444.029z M909.066,444.081l0.017,0.009l0.008-0.01l-0.005-0.01L909.066,444.081z M909.121,444.082l-0.003-0.009h-0.014l-0.003,0.01L909.121,444.082z M909.157,444.083l0.005-0.009h-0.019l-0.001,0.01L909.157,444.083z M909.224,444.116l0.013-0.018l0.001-0.017l-0.026-0.001l-0.029,0.016l0.003,0.021H909.224z M909.279,444.096l-0.008-0.03l-0.014-0.013l-0.01,0.014l0.012,0.031L909.279,444.096z M909.276,444.055l0.014,0.012l0.029-0.018l-0.01-0.019h-0.022L909.276,444.055z M909.285,443.98l0.019,0.006l-0.009-0.021l-0.01-0.006V443.98z M909.303,443.951l0.005,0.009l0.019-0.01l-0.009-0.006L909.303,443.951z M909.354,443.989l0.01-0.008l-0.009-0.016l-0.018,0.001l-0.003,0.006L909.354,443.989z M909.522,443.977l0.032-0.03l-0.012-0.009l-0.049,0.021l0.003,0.014L909.522,443.977z M909.648,443.956l0.021,0.01l0.049-0.04l0.029-0.049l-0.009-0.019l-0.018,0.019l-0.026,0.043L909.648,443.956z M909.76,443.841l0.023,0.006l0.006-0.026l-0.001-0.026l-0.017-0.009L909.76,443.841z M909.783,443.766l0.016,0.017l0.017-0.001l0.007-0.04l0.036-0.097l0.035-0.052v-0.048l-0.027-0.032l-0.025,0.009l0.003,0.073l-0.006,0.052l-0.034,0.089l-0.019,0.008L909.783,443.766z M909.837,443.46l0.023-0.013l0.001-0.029l-0.018-0.026l-0.013,0.003l0.006,0.034V443.46z M909.849,443.352l-0.013-0.013l-0.01,0.001l0.005,0.018L909.849,443.352z M909.827,443.319l0.009-0.005l-0.003-0.016l-0.014,0.007L909.827,443.319z M909.823,443.28l0.009-0.003l0.003-0.039l-0.016-0.003l-0.005,0.016L909.823,443.28z M909.811,443.214l0.021,0.001l-0.009-0.03l0.01-0.014l-0.014-0.005l-0.013,0.014L909.811,443.214z M909.818,443.111l0.013-0.001l0.004-0.014l-0.01-0.016l-0.008,0.005L909.818,443.111z M909.836,443.034l0.018,0.009l0.014-0.036l-0.017-0.012l-0.012,0.008L909.836,443.034z M909.855,442.98l0.013-0.008l0.008-0.036l-0.012-0.006l-0.01,0.023L909.855,442.98z M909.898,442.91l0.022,0.001l0.027-0.027l0.069-0.028l0.005-0.026l-0.013-0.014l-0.022,0.023l-0.071,0.017l-0.019,0.026L909.898,442.91z M909.865,442.881l-0.009-0.01l-0.012,0.003l-0.003,0.013L909.865,442.881z M910.641,437.945l0.01,0.004v-0.03l-0.012-0.009L910.641,437.945z M909.89,437.899l-0.01-0.006l-0.014,0.008l-0.001,0.014L909.89,437.899z M909.837,437.815l0.009-0.012l-0.013-0.006l-0.017,0.006v0.012H909.837z M909.865,437.874l0.012-0.006l-0.014-0.01l-0.009,0.003v0.01L909.865,437.874z M909.397,437.096l-0.01-0.008l-0.022,0.001l0.008,0.013L909.397,437.096z M909.669,437.42l0.014,0.006l0.009-0.009l-0.01-0.01L909.669,437.42z M909.184,436.368l0.016,0.008l0.009-0.013l-0.006-0.008L909.184,436.368z M909.428,436.571l0.008,0.008l0.041-0.018l-0.013-0.014l-0.021,0.008L909.428,436.571z M909.514,436.475l0.01,0.005l0.013-0.034l-0.005-0.023l-0.009,0.003L909.514,436.475z M909.548,436.487l0.008-0.025l0.001-0.013l-0.013,0.008l-0.005,0.027L909.548,436.487z M909.527,436.399l0.008-0.001l0.01-0.013l-0.005-0.016l-0.009,0.005L909.527,436.399z M909.568,436.286h0.01l0.021-0.017l-0.006-0.013l-0.018,0.006L909.568,436.286z M909.513,436.205l0.016,0.007l0.009-0.009l-0.006-0.014l-0.01,0.005L909.513,436.205z M909.63,436.14l0.017,0.008l0.018-0.017l0.006-0.018l-0.017-0.001L909.63,436.14z M909.711,435.952l0.014,0.004l0.01-0.014l-0.012-0.013l-0.009,0.009L909.711,435.952z M906.82,436.662l0.006,0.005l0.025-0.001l0.012-0.013l-0.025-0.001L906.82,436.662z M907.544,436.734l0.001,0.009l0.022,0.008l0.008-0.006l-0.012-0.014L907.544,436.734z M907.682,436.681l0.009,0.009h0.018l0.008-0.008l-0.014-0.012L907.682,436.681z M907.706,436.802v0.01l0.014,0.008l0.019-0.001l0.001-0.014l-0.021-0.007L907.706,436.802z M907.653,437.198l0.016,0.006l0.016-0.01l-0.009-0.008l-0.014,0.003L907.653,437.198z M906.745,437.015l0.01,0.012v0.018l0.01,0.005l0.012-0.018l-0.006-0.025l-0.014-0.003L906.745,437.015z M906.804,437.317l0.008,0.016l0.012,0.001l0.005-0.009l-0.01-0.013L906.804,437.317z M906.787,437.499l0.01,0.014l0.009-0.001l0.001-0.012l-0.007-0.006L906.787,437.499z M906.797,437.603l0.016,0.006v-0.017l-0.013-0.01l-0.007,0.005L906.797,437.603z M907.022,437.787l-0.002,0.01l0.018,0.013l0.016-0.001l0.002-0.012L907.022,437.787z M907.08,437.815l0.002,0.01l0.024,0.008l0.016-0.003l0.003-0.01l-0.023-0.006L907.08,437.815z M907.669,437.382l0.01,0.004l0.006-0.019l-0.002-0.016l-0.011-0.002l-0.008,0.008L907.669,437.382z M907.525,437.702l0.012,0.002l0.043-0.048l0.011-0.031l-0.02,0.004l-0.011,0.026L907.525,437.702z M907.435,437.78l0.005,0.009l0.038-0.029v-0.012l-0.021,0.006L907.435,437.78z M907.371,437.829l0.013,0.007l0.032-0.023l-0.006-0.011l-0.019,0.013l-0.016-0.001L907.371,437.829z M907.232,437.879l0.036-0.007l-0.002-0.034l-0.02-0.009l-0.049,0.023l-0.001,0.018L907.232,437.879z M907.31,437.871l0.004-0.027l-0.014-0.004l-0.004,0.011l0.003,0.021L907.31,437.871z M906.882,436.206l0.02,0.005l0.004-0.012l-0.012-0.014l-0.009,0.004L906.882,436.206z M907.641,435.888l0.016,0.005l0.009-0.009l-0.007-0.014l-0.011-0.001L907.641,435.888z M906.801,435.717l0.004,0.014l0.03,0.001l0.012-0.011l-0.012-0.017l-0.016,0.001L906.801,435.717z M906.887,435.199l0.011,0.009l0.011-0.005l-0.003-0.014l-0.01-0.003L906.887,435.199z M906.988,435.226l0.01,0.005l0.014-0.006l-0.002-0.011l-0.012-0.001L906.988,435.226z M907.153,435.19l0.012,0.007l0.016-0.006l-0.001-0.01l-0.016-0.001L907.153,435.19z M907.326,435.109l0.012,0.016l0.012-0.004l-0.01-0.019h-0.01L907.326,435.109z M907.74,434.94l-0.002,0.013l0.026,0.004l0.028-0.004l-0.012-0.014L907.74,434.94z M907.799,434.929l0.009,0.015l0.022-0.008l-0.004-0.026h-0.014L907.799,434.929z M907.662,434.274l0.001,0.022l0.03,0.025l0.022-0.001l0.005-0.043l-0.021-0.018L907.662,434.274z M907.596,432.635l0.026-0.001l-0.022-0.017l-0.041-0.001l-0.005,0.01L907.596,432.635z M907.722,432.645l0.029,0.003l0.006-0.008l-0.057-0.017l-0.004,0.012L907.722,432.645z M907.818,432.679l0.001,0.031l0.026-0.003l0.001-0.035l-0.013-0.026l-0.018-0.004l-0.012,0.014L907.818,432.679z M909.922,433.568l0.018-0.014l-0.004-0.016l-0.025,0.016L909.922,433.568z M909.305,435.548l0.018,0.013l0.013-0.006l-0.016-0.018l-0.01,0.001L909.305,435.548z M909.442,435.46l0.01,0.012l0.013-0.013l-0.004-0.012l-0.012-0.001L909.442,435.46z M909.56,435.464l0.011-0.004l-0.006-0.021l-0.017-0.003l-0.005,0.016L909.56,435.464z M909.594,435.458l0.007-0.013l-0.013-0.005l-0.007,0.013l0.001,0.011L909.594,435.458z M909.73,435.607h0.013l0.002-0.01l-0.018-0.009l-0.004,0.008L909.73,435.607z M909.723,435.289l0.042-0.01l-0.002-0.026l-0.035-0.017l-0.023,0.005l-0.019,0.02l0.002,0.022L909.723,435.289z M909.632,435.282l0.018-0.004l-0.004-0.023l-0.012-0.003l-0.011,0.013L909.632,435.282z M909.485,435.246l0.024-0.008l-0.007-0.02l-0.033-0.006l-0.042,0.01l-0.011,0.014L909.485,435.246z M909.537,435.26l0.013-0.005l-0.014-0.009l0.002-0.012l-0.002-0.013l-0.014,0.008l0.004,0.025L909.537,435.26z M909.785,435.241l0.01,0.02l0.03-0.027l0.027-0.073l0.024-0.107l0.019-0.031l-0.038-0.008l-0.019,0.007l-0.035,0.077l-0.018,0.065V435.241z M909.633,435.131l0.01-0.012l-0.006-0.009l-0.016,0.009v0.01L909.633,435.131z M909.77,435.079l0.002-0.013l-0.005-0.009l-0.009,0.01l-0.003,0.012H909.77z M909.654,434.9l-0.006,0.011l0.009,0.01l0.013-0.006l-0.001-0.013L909.654,434.9z M909.88,434.868h0.013l0.004-0.015l-0.004-0.014l-0.007,0.004L909.88,434.868z M909.896,434.821l0.005,0.005l0.012-0.009v-0.012l-0.009,0.001L909.896,434.821z M909.947,434.782l0.022-0.009l0.001-0.015l-0.018-0.009l-0.018,0.009l-0.002,0.018L909.947,434.782z M910.038,434.699l0.016,0.003l0.016-0.026l-0.003-0.017l-0.012,0.002l-0.004,0.018L910.038,434.699z M910.076,434.644l0.01,0.006l0.012-0.012l0.001-0.013l-0.008-0.001L910.076,434.644z M910.118,434.619l0.014,0.005l0.003-0.012l-0.005-0.014l-0.011,0.003L910.118,434.619z M910.247,434.54l0.018-0.017l-0.008-0.012l-0.025,0.002l-0.021,0.01l0.001,0.014L910.247,434.54z M910.297,434.523l0.012-0.015l-0.008-0.009l-0.011,0.007l-0.003,0.013L910.297,434.523z M910.468,434.282l0.01,0.006l0.011-0.009l0.002-0.022l-0.011-0.002L910.468,434.282z M910.482,434.237l0.013,0.002l0.006-0.01v-0.019l-0.012-0.002l-0.007,0.012V434.237z M909.669,433.182l0.012,0.01l0.018-0.004l0.01-0.021l-0.023-0.002L909.669,433.182z M909.694,433.401l0.002-0.016h-0.012l-0.002,0.017L909.694,433.401z M909.494,433.343l0.006,0.016l0.012-0.002l-0.006-0.017L909.494,433.343z M909.31,433.547l0.004,0.012l0.01-0.002l0.002-0.016L909.31,433.547z M909.383,433.642l0.006,0.007l0.004-0.005l-0.001-0.006L909.383,433.642z M909.367,433.69l0.013,0.004l0.002-0.005l-0.008-0.007L909.367,433.69z M909.205,434.548l0.007,0.006l0.011-0.005l-0.004-0.008L909.205,434.548z M909.271,434.321l0.011-0.004l-0.017-0.011l-0.009-0.002l0.001,0.014L909.271,434.321z M909.299,434.134l0.01-0.008l-0.007-0.007l-0.014,0.001l-0.003,0.012L909.299,434.134z M909.207,434.061l0.006-0.011l-0.007-0.007l-0.008,0.004l0.001,0.014H909.207z M909.198,434.025l0.007,0.004l0.016-0.005l-0.001-0.04l-0.016-0.018l-0.013,0.006l0.007,0.029V434.025z M909.211,433.941l0.007,0.003l0.01-0.012l-0.004-0.009l-0.009,0.001L909.211,433.941z M909.553,432.3l-0.002,0.019l0.023,0.012l0.041-0.004l0.035-0.039l-0.016-0.029l-0.029,0.01l-0.019,0.021L909.553,432.3z M909.584,430.102l0.012,0.004l0.038-0.01v-0.016l-0.019,0.001L909.584,430.102z M909.763,430.168l0.013,0.006l0.001-0.016l-0.021-0.019l-0.01,0.004L909.763,430.168z M909.96,430.398l0.023,0.008l0.01-0.006l-0.053-0.031l-0.009,0.005L909.96,430.398z M910.137,430.505l0.018-0.001l0.001-0.009l-0.027-0.013l-0.005,0.01L910.137,430.505z M910.223,430.539l0.013-0.003l-0.001-0.012l-0.022-0.004l-0.001,0.009L910.223,430.539z M909.404,430.318l0.013,0.004l0.016-0.016v-0.014h-0.014L909.404,430.318z M909.298,430.372l0.008,0.01l0.027-0.016l0.012-0.018l-0.016-0.001L909.298,430.372z M909.256,430.452l0.009,0.007l0.008-0.011l0.003-0.043l-0.01,0.002l-0.009,0.023L909.256,430.452z M909.232,430.496l0.02,0.009l0.014-0.011l-0.01-0.027l-0.013-0.003l-0.009,0.009L909.232,430.496z M909.233,430.564l0.01-0.003l-0.01-0.019l-0.011-0.005l-0.004,0.008L909.233,430.564z M909.195,430.592l0.009,0.002l0.013-0.009l-0.004-0.01l-0.01,0.004L909.195,430.592z M909.116,430.779l0.008,0.014l0.036-0.01l0.044-0.025l-0.013-0.004l-0.045,0.02l-0.019-0.003L909.116,430.779z M909.293,430.737l0.005,0.007l0.029-0.002l0.007-0.007l-0.014-0.006L909.293,430.737z M910.267,430.582l0.022,0.079l0.001,0.054h0.01l0.005-0.023l-0.002-0.039l-0.026-0.081l-0.008-0.019l-0.016-0.001l-0.006,0.011L910.267,430.582z M910.302,430.885l-0.008,0.013l0.011,0.008l0.014-0.02l-0.002-0.023l-0.01-0.005l-0.007,0.008L910.302,430.885z M910.308,430.795l-0.003,0.025l0.013,0.003l0.009-0.018v-0.029l-0.02-0.02l-0.008,0.002l-0.003,0.023L910.308,430.795z M910.194,431.099l0.017-0.007l-0.006-0.01l-0.01,0.002l-0.008,0.01L910.194,431.099z M910.121,431.109l0.006,0.007l0.022-0.01l0.009-0.013l-0.013-0.003l-0.016,0.007L910.121,431.109z M909.742,431.067l-0.004,0.011l0.005,0.011l0.016-0.001l0.007-0.013l-0.012-0.009L909.742,431.067z M909.682,431.002l0.018,0.002l0.001-0.01l-0.012-0.011l-0.026,0.002v0.01L909.682,431.002z M909.639,430.95l0.015-0.002v-0.01l-0.014-0.005l-0.009,0.008L909.639,430.95z M909.438,430.81l0.021,0.008l0.016-0.005l-0.005-0.017l-0.018-0.004l-0.032-0.032h-0.011v0.014L909.438,430.81z M909.498,430.816l0.005-0.015l-0.008-0.011l-0.014,0.004l0.006,0.021L909.498,430.816z M909.594,430.89l0.012,0.018l0.018-0.002l-0.002-0.01l-0.016-0.01L909.594,430.89z M907.318,432.069l0.013-0.008l-0.019-0.022l-0.014,0.001l-0.004,0.013L907.318,432.069z M907.428,431.844l0.004,0.008l0.017-0.001l0.012-0.009l-0.014-0.005L907.428,431.844z M907.557,431.644l0.017,0.001l0.004-0.013l-0.025-0.001l-0.007,0.007L907.557,431.644z M907.446,431.283l0.017,0.001l-0.008-0.014l-0.017-0.005l-0.009,0.01L907.446,431.283z M907.88,431.497l0.014-0.003l-0.01-0.019l-0.014-0.003l-0.004,0.012L907.88,431.497z M907.456,432.003l0.012-0.001l0.001-0.023l-0.012-0.003l-0.008,0.008L907.456,432.003z M907.538,432.13l0.006,0.011l0.018-0.003l0.003-0.018h-0.017L907.538,432.13z M907.606,432.115l0.011,0.007l0.013-0.008l-0.006-0.02l-0.014-0.001L907.606,432.115z M907.666,432.11l0.015,0.007l0.018-0.004l0.001-0.012l-0.012-0.009L907.666,432.11z M907.714,432.088l0.003,0.011l0.05-0.004l-0.01-0.008l-0.026,0.001l-0.01-0.006L907.714,432.088z M908.125,431.777l-0.014,0.005l0.008,0.012l0.023,0.009l0.009-0.01L908.125,431.777z M908.102,431.542l0.011-0.006l-0.01-0.01l-0.023-0.001l-0.002,0.008L908.102,431.542z M908.206,431.377l0.015,0.001l0.008-0.007l-0.011-0.01l-0.022-0.002l0.001,0.012L908.206,431.377z M908.324,431.278l0.011-0.005l-0.008-0.011l-0.019-0.007l-0.005,0.01L908.324,431.278z M908.489,431.192l0.017,0.009l0.009-0.013l-0.003-0.014l-0.009,0.001L908.489,431.192z M908.307,431.076l0.012,0.007l0.012-0.002l0.001-0.012l-0.013-0.007l-0.024,0.005l-0.003,0.009H908.307z M908.354,431.448l0.014-0.004l-0.011-0.015l-0.014-0.002l-0.007,0.008L908.354,431.448z M908.398,431.435l0.003-0.009l-0.017-0.008l-0.007,0.004l0.003,0.009L908.398,431.435z M907.707,430.889l0.004,0.01l0.015,0.004l0.013-0.009l-0.006-0.011h-0.012L907.707,430.889z M907.772,430.861l-0.003,0.009l0.007,0.007l0.018-0.003l0.002-0.011l-0.01-0.005L907.772,430.861z M908.155,431.031l0.016-0.001l-0.003-0.017l-0.014-0.005l-0.004,0.008L908.155,431.031z M908.112,431.049l0.011-0.006l-0.016-0.019h-0.009l0.002,0.013L908.112,431.049z M907.914,431.108l0.001,0.011l0.014,0.006l0.016-0.005l0.001-0.011l-0.016-0.007L907.914,431.108z M908.002,431.111l0.001,0.01l0.014,0.004l0.007-0.003l-0.001-0.012L908.002,431.111z M908.044,431.112l0.003,0.008l0.011,0.005l0.009-0.008l-0.011-0.013L908.044,431.112z M907.599,430.814l0.013-0.009l-0.004-0.018l-0.017-0.004l-0.006,0.01L907.599,430.814z M907.872,430.656l0.003-0.01l-0.012-0.006l-0.01,0.008l0.003,0.013L907.872,430.656z M907.241,430.239l0.013,0.004l0.021-0.014l-0.006-0.014l-0.012,0.003L907.241,430.239z M907.304,430.191l0.009,0.01l0.022-0.013l-0.003-0.016l-0.016,0.006L907.304,430.191z M907.462,430.312l0.014-0.008l-0.003-0.01l-0.026,0.001v0.013L907.462,430.312z M907.588,430.424l0.008-0.013l-0.013-0.006l-0.018,0.004l0.001,0.014L907.588,430.424z M907.565,430.511l0.01-0.013l-0.013-0.008l-0.012,0.006l-0.005,0.014H907.565z M907.666,430.479l0.013,0.009l0.012-0.01l-0.001-0.013l-0.012,0.003L907.666,430.479z M907.985,430.48l0.044,0.004l0.009-0.01l-0.014-0.009h-0.043l-0.008,0.009L907.985,430.48z M908.013,430.428l0.029,0.004l0.012-0.01l-0.008-0.016l-0.041,0.003l-0.005,0.01L908.013,430.428z M908.05,430.378l0.014-0.01l-0.014-0.012l-0.034-0.004l-0.004,0.014L908.05,430.378z M907.716,430.431l0.001,0.013l0.014,0.01l0.017-0.012l0.002-0.014l-0.016-0.007L907.716,430.431z M907.808,430.445l0.016,0.01l0.013-0.006l0.002-0.009l-0.02-0.005L907.808,430.445z M907.696,430.374l0.007,0.008h0.034l0.011-0.01l-0.019-0.009L907.696,430.374z M907.798,430.33l-0.002,0.009l0.018,0.008l0.009-0.009l-0.009-0.01L907.798,430.33z M907.508,430.344l0.013-0.001l0.003-0.013l-0.011-0.01l-0.01,0.004l-0.003,0.011L907.508,430.344z M907.655,430.311l0.01,0.008h0.015l0.006-0.009l-0.011-0.009l-0.013,0.002L907.655,430.311z M907.773,430.244l-0.003,0.01l0.012,0.006l0.012-0.007l-0.011-0.01L907.773,430.244z M907.816,430.233l-0.003,0.009l0.008,0.006l0.014-0.005v-0.009L907.816,430.233z M908.061,430.174l0.014-0.003l-0.001-0.012l-0.037-0.006l-0.006,0.01L908.061,430.174z M908.053,430.108l0.018,0.002l0.012-0.014l-0.01-0.01l-0.026,0.001l-0.006,0.011L908.053,430.108z M908.067,430.056l0.011-0.004l-0.006-0.016l-0.021-0.002l-0.006,0.013L908.067,430.056z M908.063,429.988l0.011-0.01v-0.019l-0.006-0.011l-0.019,0.008v0.02L908.063,429.988z M908.062,429.906l0.01-0.004l0.003-0.023l-0.009-0.009l-0.014,0.009l-0.002,0.013L908.062,429.906z M908.052,429.825l0.012-0.005v-0.027l-0.008-0.015l-0.013,0.009l-0.005,0.018L908.052,429.825z M907.358,429.85l0.01,0.004l0.005-0.01l-0.005-0.013h-0.008L907.358,429.85z M907.471,429.731l0.014-0.002l0.001-0.008l-0.023-0.008l-0.004,0.004L907.471,429.731z M907.722,429.892l0.011-0.006l-0.005-0.014h-0.011l-0.008,0.016L907.722,429.892z M907.849,429.75l0.013-0.001v-0.011l-0.016-0.009l-0.006,0.011L907.849,429.75z M908,429.674l0.015,0.001l0.008-0.013l-0.009-0.02l-0.013,0.003L908,429.674z M908.004,429.578l0.006-0.011l-0.009-0.007l-0.011,0.004l-0.003,0.014H908.004z M907.984,429.531l0.017-0.005l0.001-0.037l-0.013-0.004l-0.011,0.014L907.984,429.531z M907.359,429.457l0.013-0.008l-0.005-0.009l-0.02,0.001l-0.003,0.011L907.359,429.457z M907.66,429.43l0.007-0.008l-0.008-0.011l-0.013,0.004l0.001,0.012L907.66,429.43z M907.76,429.359l0.011-0.01l-0.005-0.012h-0.019l-0.004,0.013L907.76,429.359z M907.959,429.363l0.007-0.009l-0.003-0.009l-0.014,0.003l-0.003,0.01L907.959,429.363z M907.943,429.325l0.014-0.005l-0.009-0.025l0.005-0.028l-0.01-0.004l-0.014,0.022l0.004,0.025L907.943,429.325z M907.773,429.293l0.007-0.003l-0.008-0.019l-0.008,0.001l-0.002,0.01L907.773,429.293z M907.923,429.211l0.011-0.006l-0.003-0.024l-0.014-0.003l-0.005,0.017L907.923,429.211z M907.906,429.141l0.012-0.003v-0.014l-0.011-0.011l-0.011,0.005L907.906,429.141z M907.871,428.98l0.008-0.002l0.002-0.027l-0.012-0.017l-0.012,0.003l0.003,0.023L907.871,428.98z M907.672,428.51l0.011-0.006l-0.008-0.01h-0.013l-0.003,0.01L907.672,428.51z M907.72,428.561l0.021-0.003l0.01-0.013l-0.009-0.015l-0.025,0.001l-0.007,0.017L907.72,428.561z M906.788,426.925l0.019,0.001l0.019-0.031l-0.001-0.019l-0.017,0.001L906.788,426.925z M907.533,426.654h0.017l0.001-0.012l-0.018-0.008l-0.008,0.01L907.533,426.654z M907.555,426.796l0.025,0.009l0.029-0.005l0.01-0.023l-0.023-0.009l-0.029,0.008L907.555,426.796z M907.608,426.831l0.013,0.012l0.029-0.003l0.019-0.019l-0.014-0.016l-0.03,0.009L907.608,426.831z M908.104,426.756l0.014,0.009l0.013-0.012l-0.01-0.012l-0.013,0.003L908.104,426.756z M908.138,426.815l0.008,0.01l0.019-0.005l0.004-0.017l-0.017-0.001L908.138,426.815z M909.106,429.724l-0.001,0.013l0.007,0.01l0.012-0.003l0.003-0.019L909.106,429.724z M908.989,429.72l-0.003,0.01l0.011,0.012l0.015-0.007l-0.002-0.014L908.989,429.72z M909.305,429.665l0.016,0.004l0.023-0.019l-0.004-0.017l-0.019-0.006l-0.006,0.021L909.305,429.665z M909.393,429.573h0.012l0.011-0.015l-0.01-0.02l-0.01,0.002L909.393,429.573z M909.417,429.509l0.009,0.009l0.016-0.016l0.003-0.039l-0.016-0.007L909.417,429.509z M908.906,429.688l0.019-0.001l0.001-0.018l-0.02-0.02l-0.016,0.003L908.906,429.688z M908.846,429.605h0.016l-0.008-0.03l-0.014-0.002l-0.005,0.01L908.846,429.605z M908.683,429.376l0.002,0.011l0.012,0.001l0.01-0.019l-0.009-0.012L908.683,429.376z M908.824,429.357l0.007-0.011l-0.012-0.013l-0.013,0.001l-0.001,0.01L908.824,429.357z M908.876,429.337l0.002-0.014l-0.01-0.003l-0.016,0.018l0.008,0.011L908.876,429.337z M909.091,429.385l0.013-0.003l-0.001-0.013l-0.016-0.013l-0.008,0.008L909.091,429.385z M909.235,429.442l0.008-0.011l-0.015-0.035h-0.02v0.018L909.235,429.442z M909.385,429.281l0.014,0.024l0.025,0.01l0.016-0.011v-0.018l-0.036-0.021L909.385,429.281z M909.153,429.273l0.005,0.024l0.014,0.001l0.012-0.012l-0.021-0.021L909.153,429.273z M909.247,429.264l0.001-0.017l-0.012-0.008l-0.013,0.005l0.001,0.017L909.247,429.264z M909.243,429.213l0.011-0.007l-0.009-0.012l-0.018-0.001l-0.005,0.012L909.243,429.213z M909.179,429.181l0.004-0.008l-0.012-0.007l-0.008,0.005l-0.003,0.011L909.179,429.181z M909.071,429.116l0.009-0.008l-0.006-0.007l-0.011,0.001l-0.001,0.01L909.071,429.116z M909.11,429.115l0.001-0.01l-0.008-0.004l-0.009,0.004l0.001,0.01H909.11z M909.302,429.118l0.002-0.012l-0.012-0.013l-0.011,0.002l-0.004,0.009L909.302,429.118z M909.325,429.09l0.013-0.005l-0.004-0.013h-0.011l-0.003,0.011L909.325,429.09z M909.583,429.128v0.01l0.013-0.001l0.075-0.059l0.012-0.03l-0.003-0.035l-0.01,0.003l-0.009,0.029l-0.027,0.036L909.583,429.128z M909.542,429.003l0.009-0.004l-0.007-0.011l-0.01-0.001l-0.003,0.009L909.542,429.003z M908.995,429.166l0.011-0.009l-0.009-0.009l-0.013,0.003v0.009L908.995,429.166z M908.908,429.226h0.017l0.002-0.013l-0.016-0.006l-0.005,0.008L908.908,429.226z M908.725,429.181l0.006,0.007l0.019-0.005v-0.012l-0.012-0.001L908.725,429.181z M908.523,429.155l0.021,0.004l0.008-0.011l-0.012-0.017l-0.023-0.002l-0.005,0.007L908.523,429.155z M908.685,429.05l-0.009-0.012l-0.01,0.003l-0.002,0.012l0.007,0.008L908.685,429.05z M908.426,428.903l0.012-0.006l-0.001-0.01l-0.019-0.001l-0.003,0.007L908.426,428.903z M909.015,429.032l0.007,0.008l0.016-0.003v-0.012h-0.016L909.015,429.032z M909.145,428.982l0.006-0.011l-0.004-0.011l-0.019,0.002v0.013L909.145,428.982z M909.251,428.949l0.013-0.004l-0.003-0.012l-0.021-0.006l-0.003,0.014L909.251,428.949z M909.17,428.895l0.008-0.008l-0.009-0.008l-0.016,0.002l0.001,0.008L909.17,428.895z M909.296,428.861l0.007-0.007l-0.007-0.014l-0.011,0.001l-0.002,0.008L909.296,428.861z M909.386,428.865v-0.016l-0.016-0.003l-0.008,0.006l0.007,0.018L909.386,428.865z M909.051,428.757l0.01,0.004l0.014-0.025l-0.006-0.008l-0.011,0.001L909.051,428.757z M908.354,428.55l0.007-0.003l0.001-0.017l-0.009-0.003l-0.005,0.01L908.354,428.55z M908.323,428.408l0.006-0.014l-0.021-0.01l-0.012,0.009l0.005,0.012L908.323,428.408z M908.216,428.353l0.013-0.001l-0.049-0.026l-0.01,0.001l0.001,0.008L908.216,428.353z M908.102,428.225l0.009-0.007l-0.012-0.008l-0.014,0.003l0.003,0.011L908.102,428.225z M908.067,428.219l0.008-0.007l-0.005-0.011l-0.012-0.001l-0.005,0.009L908.067,428.219z M907.897,427.672l0.003-0.009l-0.011-0.004l-0.005,0.005l0.004,0.011L907.897,427.672z M908.025,427.701l0.009-0.009l-0.011-0.013l-0.02,0.004l-0.015,0.013l0.008,0.009L908.025,427.701z M908.14,427.651l-0.002-0.018l-0.017-0.004l-0.012,0.017l0.006,0.012L908.14,427.651z M907.932,427.366l0.009,0.009l0.009-0.012l-0.002-0.015l-0.012-0.008L907.932,427.366z M907.783,427.182l0.01,0.006l0.027-0.013l0.009-0.017l-0.017-0.012l-0.014,0.004L907.783,427.182z M908.051,427.079l0.005,0.018l0.025,0.008l0.018-0.017l-0.001-0.021l-0.031-0.004L908.051,427.079z M908.28,427.311l0.012,0.014l0.016-0.003l0.014-0.027l-0.005-0.018h-0.025L908.28,427.311z M908.442,427.357l0.001,0.019l0.017,0.006l0.013-0.017l-0.014-0.016L908.442,427.357z M908.609,427.373l-0.004,0.013l0.012,0.008l0.016-0.004l-0.004-0.017H908.609z M908.429,427.204l0.001,0.016l0.018,0.008l0.013-0.005l0.005-0.018l-0.005-0.014l-0.017,0.003L908.429,427.204z M908.648,427.121l0.01,0.019l0.017,0.003l0.017-0.014l-0.008-0.019l-0.029-0.005L908.648,427.121z M908.724,427.217l0.016,0.025l0.021-0.001v-0.032l-0.017-0.019h-0.014L908.724,427.217z M908.779,427.344l0.014,0.022l-0.003,0.019l0.017,0.008l0.018-0.017l-0.004-0.026l-0.027-0.027l-0.017,0.001L908.779,427.344z M908.872,427.539v0.025l0.013,0.008l0.019-0.014l-0.001-0.014l-0.01-0.01L908.872,427.539z M908.81,427.729l0.01-0.006l-0.022-0.013l-0.008,0.014L908.81,427.729z M908.837,427.826l0.004-0.016l-0.01-0.012l-0.017,0.008l0.003,0.017L908.837,427.826z M908.741,428.01l0.012-0.01l-0.008-0.017h-0.013l-0.004,0.019L908.741,428.01z M908.831,427.971l0.014,0.002l0.004-0.02l-0.016-0.012l-0.01,0.01L908.831,427.971z M908.667,428.454l0.011,0.004l0.027-0.022l-0.008-0.013l-0.024,0.011L908.667,428.454z M908.971,428.054l0.003-0.027l-0.013-0.009l-0.013,0.008l0.009,0.035L908.971,428.054z M908.945,428.186h0.018l0.002-0.041l-0.011-0.017l-0.017,0.001l-0.008,0.018L908.945,428.186z M908.934,428.275v0.014l0.016,0.009l0.014-0.005v-0.014l-0.011-0.008L908.934,428.275z M908.984,428.357l-0.003,0.011l0.021,0.009l0.009-0.01l-0.014-0.012L908.984,428.357z M909.001,428.416l0.007,0.015l0.026-0.008l0.002-0.016l-0.018-0.002L909.001,428.416z M909.036,428.619l0.01-0.008l-0.005-0.012l-0.016-0.001l-0.006,0.018L909.036,428.619z M909.1,428.498l0.005-0.014l-0.01-0.013l-0.012,0.003l-0.002,0.018L909.1,428.498z M909.181,428.533l0.01-0.013l-0.018-0.009l-0.012,0.012l0.002,0.013L909.181,428.533z M909.264,428.561l0.01-0.012l-0.013-0.011l-0.019,0.002l-0.001,0.013L909.264,428.561z M909.602,428.851v0.015l0.011,0.017l0.019-0.002l0.009-0.021l-0.008-0.022h-0.014L909.602,428.851z M909.572,428.773l0.005,0.029l0.009,0.008l0.01-0.008l-0.011-0.03L909.572,428.773z M909.506,428.704l-0.005,0.005l0.008,0.021l0.011-0.004l-0.002-0.014L909.506,428.704z M909.327,428.572l0.006-0.009l-0.009-0.008h-0.01l0.001,0.015L909.327,428.572z M909.345,428.552h0.013l-0.002-0.014l-0.011-0.005l-0.006,0.009L909.345,428.552z M909.404,428.565l0.039,0.072l0.036,0.026l0.009-0.019l-0.029-0.029l-0.046-0.072l-0.025-0.01l-0.004,0.011L909.404,428.565z M908.078,426.515l0.02,0.003l0.008-0.01l-0.006-0.014l-0.022-0.001l-0.005,0.012L908.078,426.515z M907.508,426.417l0.026,0.003l0.005-0.02l-0.024-0.006l-0.01,0.011l-0.035,0.004l0.011,0.017L907.508,426.417z M907.707,426.392l0.03-0.005l0.009-0.019l-0.033-0.008l-0.026,0.01l-0.004,0.012L907.707,426.392z M907.817,426.426l0.026-0.013l0.003-0.025l-0.03-0.011l-0.025,0.013v0.029L907.817,426.426z M908.082,426.328l0.019,0.001l0.014-0.036l-0.019-0.023l-0.019-0.01l-0.018,0.01l-0.002,0.028L908.082,426.328z M907.606,426.039l0.009-0.009l-0.018-0.011l-0.023,0.007l0.004,0.011L907.606,426.039z M907.541,425.943l0.043-0.022l-0.009-0.011l-0.042,0.017l-0.033-0.004l-0.009,0.014l0.011,0.009L907.541,425.943z M907.667,425.988l0.004-0.019l-0.014-0.01l-0.016,0.006l0.004,0.02L907.667,425.988z M907.874,425.959l0.013-0.001l0.005-0.013l-0.011-0.013l-0.016,0.005l-0.003,0.014L907.874,425.959z M907.682,425.754v0.01l0.01,0.014l0.011-0.003l0.004-0.019l-0.011-0.009L907.682,425.754z M907.631,425.649l0.013,0.009l0.013-0.009l0.003-0.017l-0.01-0.008l-0.013,0.007L907.631,425.649z M907.904,426.167l0.002,0.014l0.019,0.02l0.016-0.004l0.003-0.019l-0.016-0.02L907.904,426.167z M907.99,425.987l0.014-0.001l0.001-0.017l-0.011-0.015l-0.014,0.004l0.001,0.018L907.99,425.987z M908.15,426.144h0.015l0.006-0.024l-0.002-0.032l-0.03-0.027l-0.018,0.005l-0.002,0.028l0.009,0.042L908.15,426.144z M908.203,425.997l0.012-0.014l0.004-0.03l-0.019-0.028l-0.016-0.004l-0.012,0.014l0.001,0.042l0.01,0.02H908.203z M908.305,425.901l0.013,0.002l0.036-0.061v-0.049l-0.011-0.01l-0.027,0.015l-0.002,0.02l0.01,0.021l-0.003,0.031L908.305,425.901z M907.984,425.746l0.014-0.008l-0.01-0.023l-0.013-0.009l-0.008,0.01l0.008,0.024L907.984,425.746z M908.026,425.688l-0.001-0.021l-0.012-0.024L908,425.645v0.025l0.013,0.019H908.026z M908.104,425.67l0.002-0.018l-0.009-0.026l-0.015-0.008l-0.011,0.014l-0.003,0.02l0.021,0.022L908.104,425.67z M908.471,425.714l0.016-0.012l0.052-0.066l0.033-0.072l0.001-0.028l-0.02,0.001l-0.029,0.032l-0.011,0.061l-0.041,0.065L908.471,425.714z M908.102,425.508l-0.004-0.016l-0.014-0.002l-0.007,0.009l0.009,0.014L908.102,425.508z M908.226,425.565l-0.009-0.016h-0.011l-0.003,0.009l0.013,0.012L908.226,425.565z M908.325,425.526l0.006,0.014l0.015,0.009l0.009-0.002l-0.02-0.047l-0.01-0.004L908.325,425.526z M907.818,425.259l0.013,0.009l0.018-0.017l-0.009-0.019l-0.016-0.001L907.818,425.259z M907.859,425.275l0.008,0.022l0.018,0.008l0.003-0.017l-0.019-0.023L907.859,425.275z M907.915,425.289l0.001,0.03l0.014,0.017l0.014-0.005l0.003-0.021l-0.022-0.026L907.915,425.289z M908.094,425.298l-0.009-0.013v-0.023l-0.014,0.005l-0.004,0.018l0.012,0.019L908.094,425.298z M908.287,425.312l0.01,0.019h0.017l0.008-0.018l-0.018-0.014L908.287,425.312z M908.445,425.319v0.029l0.023,0.013h0.023l-0.001-0.016l-0.029-0.026H908.445z M908.492,425.295v0.016l0.013,0.012l0.01-0.004l-0.003-0.019l-0.013-0.012L908.492,425.295z M908.446,425.253v0.021l0.013,0.003l0.004-0.009l-0.006-0.014H908.446z M908.294,425.123l0.014,0.026l0.016-0.005l-0.01-0.04l-0.025-0.014l-0.017,0.008l0.003,0.019L908.294,425.123z M908.367,425.097l-0.004-0.016l-0.017,0.004l0.005,0.017L908.367,425.097z M908.445,425.083l0.006,0.01h0.031l0.018-0.007l0.006-0.017l-0.016,0.003l-0.018,0.009L908.445,425.083z M908.676,424.879l-0.005,0.043l0.012,0.009l0.021-0.04l0.001-0.047l-0.026-0.01l-0.019,0.013v0.022L908.676,424.879z M908.74,425.001l0.008,0.016l-0.001,0.101l-0.012,0.018l-0.027,0l-0.008,0.023l0.014,0.023l0.038,0.003l0.013-0.049l-0.006-0.139l-0.021-0.014l-0.026,0.008l0.005,0.014L908.74,425.001z M907.177,424.433l0.01,0.012l0.016-0.008l0.002-0.021h-0.016L907.177,424.433z M907.427,424.342v0.019l0.008,0.01l0.012-0.01l-0.006-0.017L907.427,424.342z M907.365,424.682l-0.004,0.01l0.016,0.012l0.017-0.002l-0.012-0.021L907.365,424.682z M907.501,424.789l0.019-0.01l-0.01-0.027l-0.033-0.008l0.002,0.019L907.501,424.789z M907.606,424.859l-0.006,0.019l0.016,0.023l0.023-0.008l-0.004-0.023l-0.014-0.016L907.606,424.859z M907.827,424.888l-0.008,0.014l0.014,0.012l0.006-0.012L907.827,424.888z M907.676,424.719l-0.006-0.014l-0.014,0.004l0.002,0.017L907.676,424.719z M907.655,424.67v-0.012l-0.014-0.004l-0.004,0.016H907.655z M908.632,425.379l-0.021,0.012l0.018,0.027l0.045,0.006l0.029-0.039l-0.006-0.027l-0.029-0.012l-0.019,0.01l0.012,0.019l-0.014,0.014L908.632,425.379z M907.876,424.684l0.021,0.008l0.014-0.017l-0.008-0.035l-0.039-0.033l-0.014,0.006l0.021,0.035L907.876,424.684z M907.839,424.577l0.017-0.006l-0.025-0.033l-0.016,0.002L907.839,424.577z M907.785,424.54l0.012-0.014l-0.016-0.016l-0.012,0.002L907.785,424.54z M907.717,424.511l0.014-0.008l-0.016-0.019l-0.014,0.004L907.717,424.511z M907.61,424.424l0.025,0.004l0.014-0.031l-0.043-0.043l-0.016,0.008l0.027,0.031L907.61,424.424z"/>
</svg>
