<svg xmlns="http://www.w3.org/2000/svg" viewBox="310.735 381.237 4.829 2.634">
  <path d="M315.515,382.42l0.014,0.026h0.02l0.015-0.015L315.515,382.42z M310.735,383.871v-0.476l0.151-0.144l0.214-0.102l0.099,0.003l0.156,0.172l0.169,0.026l0.194,0.188l0.084,0.014l0.048-0.042l0.014-0.104l0.174-0.098l0.146-0.271l0.167-0.132l0.034-0.222l0.098-0.167l-0.042-0.076l0.042-0.056l0.243-0.097l0.042-0.084l0.034-0.201l0.188-0.25v-0.091l0.083-0.146l0.021-0.166l0.146-0.112l0.07,0.011l0.021,0.038h0.055l0.08-0.042l0.052-0.003l0.056,0.048h0.062l0.146-0.034l0.056,0.014L310.735,383.871z"/>
</svg>
