<svg xmlns="http://www.w3.org/2000/svg" viewBox="1243.934 523.853 16.649 12.319">
  <path d="M1243.989,523.863l0.124,0.168l-0.072,0.038l-0.086-0.089l-0.021-0.127L1243.989,523.863z M1244.178,524.296l-0.027,0.158l0.083,0.124l-0.004,0.076l0.083,0.086l0.124-0.024l-0.01-0.131l-0.1-0.089l-0.007-0.137l-0.144-0.203l-0.031,0.041L1244.178,524.296z M1254.196,528.403l0.151,0.076l0.186-0.11l0.275-0.034l0.151-0.144l0.089-0.227l-0.138-0.124l0.096-0.344l0.213-0.069l0.007-0.089l-0.206-0.213l-0.192,0.021l-0.014,0.083l0.11,0.103l-0.117,0.378l-0.021,0.234l-0.165,0.296l-0.254,0.131l-0.117-0.014L1254.196,528.403z M1259.454,530.018l0.062-0.089l-0.103-0.11l-0.096,0.048L1259.454,530.018z M1259.493,531.212l-0.014,0.202l0.115,0.206l-0.037,0.202l0.298,0.046l0.023,0.092l0.096,0.133l0.344-0.018l0.192-0.188l0.032-0.509l0.041-0.092l-0.032-0.055l-0.396,0.06l-0.172-0.179l0.007-0.151l-0.062-0.041l-0.296,0.096l-0.103-0.055h-0.137l-0.027,0.131L1259.493,531.212z M1257.983,535.748l-0.025,0.06v0.174l0.387,0.19l0.119-0.032l0.027-0.309l-0.188-0.215l-0.156-0.069l-0.151-0.005l-0.037,0.121L1257.983,535.748z M1255.618,535.235l0.158,0.034l0.096-0.186l-0.082-0.089l-0.179,0.048L1255.618,535.235z M1246.172,526.103l0.16,0.087l0.005-0.119l-0.183-0.229l-0.055-0.018l-0.041,0.133L1246.172,526.103z M1245.302,525.86l0.073,0.05l0.078-0.073l0.009-0.115l-0.101-0.133l-0.037,0.064l0.018,0.105L1245.302,525.86z M1244.807,525.874l0.06-0.014l-0.005-0.133l-0.101-0.014l-0.027,0.073L1244.807,525.874z M1252.706,533.306l0.014,0.055l0.06,0.023l0.064-0.069l-0.073-0.027L1252.706,533.306z M1252.88,533.37l-0.005,0.133l0.092-0.023l0.08-0.042l-0.028-0.043l-0.062-0.038L1252.88,533.37z M1252.936,533.654l0.069-0.032l-0.009-0.073l-0.046-0.009l-0.05,0.073L1252.936,533.654z M1256.931,528.651l0.165,0.11l-0.096,0.227l-0.275,0.213l-0.13-0.062l-0.131,0.041l0.172,0.151l-0.014,0.124l0.323,0.371l0.495,0.096l0.247,0.309l0.254-0.069l0.034-0.247l0.131-0.131l-0.062-0.172l-0.172-0.089l-0.034-0.199l-0.282-0.179h-0.11l-0.041-0.048l0.103-0.103l-0.007-0.488l-0.179-0.241l-0.22-0.027l-0.062,0.117l-0.089,0.048l-0.316-0.021l-0.13,0.186l0.076,0.089L1256.931,528.651z M1245.559,526.022l0.165,0.179l0.024,0.244l-0.027,0.072l-0.144-0.058l-0.072,0.103l0.141,0.179l0.089-0.031l0.028-0.113l0.065,0.017l0.003,0.103l0.165,0.045l0.155,0.124l0.034,0.186l-0.089,0.062l-0.134-0.041l-0.01,0.069l0.134,0.103l0.062,0.237l0.179,0.203l0.254,0.172l0.251,0.402l0.158,0.127l0.024,0.107l-0.151,0.024l-0.021,0.065l0.141,0.027l0.217,0.272l0.436,0.285h0.158l0.148,0.144l-0.031,0.041l0.024,0.055l0.144-0.003l0.021,0.086l-0.127,0.027l0.1,0.168l0.237,0.021l0.21,0.172l0.017,0.258l0.131,0.22l0.241,0.261l0.021,0.223c0,0,0.113,0.041,0.124,0.041c0.01,0,0.038-0.093,0.038-0.093l0.089-0.069l0.151,0.12l0.021,0.113l0.069,0.058l0.089-0.079l0.069,0.021l-0.031,0.083l0.072,0.065l0.021,0.127l0.086,0.127l0.313,0.093l0.076,0.058l-0.017,0.089l0.048,0.113l0.55,0.216l0.055-0.062l0.072,0.01l0.021,0.058l0.093,0.003l0.01,0.041l-0.083,0.048l0.089,0.117l0.371,0.158l0.234-0.014l0.137,0.12l0.107-0.028l0.12,0.086l-0.017,0.082l0.052,0.038l0.082-0.01l0.141,0.172l-0.058,0.086l0.038,0.072l0.12-0.056l0.19,0.041l0.131,0.199l0.167,0.103l0.08,0.005l0.101-0.172l0.092-0.007l0.011,0.066l0.101,0.092l0.11-0.002l0.073,0.094l-0.028,0.041l0.025,0.131l0.069,0.032l-0.011,0.195l-0.062,0.018l-0.089-0.023l-0.021,0.073l0.094,0.064l0.071-0.046l0.043,0.064l0.103,0.018l0.034,0.064l0.195,0.167l0.192-0.057l0.039-0.06l0.046-0.011l0.078,0.062l-0.021,0.044l-0.046-0.011l-0.076,0.011l-0.005,0.08l0.087,0.05l-0.018,0.092l0.037,0.007l0.092-0.117l-0.009-0.05l0.032-0.025l0.172,0.044l0.007,0.089l0.064,0.025l0.027,0.041l-0.112-0.005l-0.048,0.08l0.053,0.076l0.011,0.133l0.076,0.03l0.092-0.048l0.099-0.197l0.193,0.011l0.005,0.064l0.142,0.126l0.137-0.039l0.229,0.181l0.144,0.064l-0.007,0.085l0.066,0.071l0.11,0.023l0.103-0.053l0.08,0.025l0.055-0.014l-0.101-0.11l0.055-0.135l0.041-0.016l0.007,0.103l0.046,0.032l0.023-0.087l0.05,0.005l0.064,0.234l0.124,0.046l0.105-0.16l0.174-0.06l0.078-0.33l-0.211-0.334l-0.11-0.083l0.055-0.041l-0.014-0.165l-0.316-0.28l-0.362-0.073l-0.101-0.096l-0.124,0.005l-0.041-0.055l0.083-0.078l-0.133-0.101l-0.082,0.032l-0.312-0.229l-0.312-0.371l-0.028-0.115l-0.215-0.188l-0.124-0.005l-0.151-0.119l0.041-0.073L1254.04,532h-0.124l-0.247-0.124l-0.39-0.334l-0.092-0.037l-0.092,0.055h-0.073l0.018-0.11l-0.037-0.133l-0.137-0.05l-0.142-0.147l-0.073-0.009l0.023,0.16l0.069,0.064l-0.073,0.041l-0.087-0.041l0.023-0.115l-0.096-0.105l-0.055-0.142l-0.257-0.032l-0.28-0.298l-0.082,0.014l-0.385-0.133l-0.083-0.133l-0.137-0.11l-0.018-0.041l0.183,0.082l0.005-0.092l-0.25-0.227l-0.199-0.034l-0.296-0.289l0.055-0.357l-0.103-0.11l-0.254-0.028l-0.24-0.247l0.007-0.241l-0.186-0.165l-0.172,0.014l-0.44-0.144l-0.674-0.412l-0.385-0.529l-0.529-0.275l-0.083-0.172l-0.309-0.268l-0.488-0.213l-0.186-0.041l-0.055,0.096l0.11,0.227l-0.083,0.027l-0.083-0.124l-0.089,0.007l-0.234-0.124l-0.22-0.289l-0.371-0.385l-0.124-0.034l-0.048,0.082L1245.559,526.022z M1253.146,533.352l0.009-0.069l-0.037-0.023l-0.032,0.105L1253.146,533.352z M1245.219,526.224l0.11,0.089l0.069,0.01l-0.1-0.11l-0.052-0.014L1245.219,526.224z"/>
</svg>
