<svg xmlns="http://www.w3.org/2000/svg" viewBox="1260.023 561.304 0.349 0.672">
  <path d="M1260.176,561.89l0.068,0.018l-0.007,0.027l-0.03-0.001l-0.019,0.012v0.023l-0.017,0.007l-0.035-0.039l0.008-0.037L1260.176,561.89z M1260.051,561.593l0.025-0.004l0.025,0.012l0.008,0.032l0.019,0.007l0.03-0.023h0.023l0.037,0.023l0.03-0.003l0.004-0.022l0.018-0.004l0.014,0.007l0.043-0.004l0.005-0.022l-0.015-0.017l0.005-0.011l0.021,0.005l0.022-0.005l0.007-0.037l-0.005-0.054l-0.044-0.03l-0.046-0.003l-0.037-0.019l-0.012-0.037l-0.07-0.043l-0.057-0.003l-0.021-0.026l-0.034-0.008l-0.023,0.06l0.023,0.026l-0.009,0.107l0.011,0.057l-0.008,0.031L1260.051,561.593z M1260.237,561.701l0.007-0.022l-0.01-0.006l-0.012,0.01l0.004,0.017L1260.237,561.701z"/>
</svg>
