<svg xmlns="http://www.w3.org/2000/svg" viewBox="1320.245 623.600 3.409 3.397">
  <path d="M1320.449,624.351l-0.055-0.055v-0.045l0.048-0.038l0.007-0.112l0.049-0.029l0.166-0.001l0.035-0.062l-0.048-0.121l0.031-0.036l0.042,0.005l0.008,0.042l0.086,0.052l0.193,0.01l0.236-0.083l0.111-0.104l-0.035-0.132l0.062-0.042l0.076,0.055l0.132,0.014l0.118,0.062l0.139,0.021l0.042,0.069l0.146,0.038l0.128,0.01l0.191-0.028l0.042-0.042l0.069,0.007l0.062,0.055l0.132-0.021l0.048-0.062l0.08-0.017l0.069,0.024h0.1l0.014,0.038l-0.118,0.028l-0.055,0.073l0.024,0.069l-0.021,0.021l-0.052-0.055l-0.059-0.017l-0.1,0.038l-0.146,0.118l-0.087,0.106l-0.099,0.187l-0.062,0.14l-0.047,0.208l-0.029-0.01l0.023-0.153l-0.021-0.174l0.078-0.156l0.125-0.061l0.017-0.052l-0.095-0.152l-0.151-0.073l-0.142-0.024l-0.052,0.014l-0.066,0.059l-0.026-0.028l0.009-0.049l-0.094-0.055l-0.076,0.01l-0.036,0.151l0.068,0.114l0.104,0.031l0.229,0.021l0.021,0.036l-0.114,0.083l-0.099,0.036l-0.068,0.114l0.052,0.177l0.125,0.099l0.026,0.094l-0.047,0.062l0.005,0.068l0.13,0.073l0.052-0.031l0.016-0.195l0.034,0.003l0.018,0.192l0.042,0.208l0.094,0.12l0.172,0.047l0.003,0.062l-0.107,0.052h-0.135l-0.229,0.073l-0.12,0.062l-0.151,0.109l-0.026,0.062l-0.14,0.078l-0.151-0.026l-0.109-0.109l-0.01-0.114l-0.036-0.068l-0.01-0.135l-0.078-0.109l0.005-0.094l0.12-0.057l0.234-0.151l0.057-0.104l0.031,0.005l-0.005,0.047h0.052l0.052-0.073l-0.005-0.161l-0.094-0.229l-0.177-0.249l-0.146-0.036l-0.14,0.026l-0.094,0.094l-0.151,0.01l-0.135-0.052l-0.036,0.026l0.029,0.054l-0.007,0.028l-0.116,0.017L1320.449,624.351z M1323.615,626.296l-0.003,0.023l0.021,0.008l0.021-0.016l-0.018-0.021L1323.615,626.296z M1323.017,626.974l0.052,0.023l0.026-0.029l-0.031-0.029l-0.01-0.044l-0.031,0.005l-0.018,0.052L1323.017,626.974z M1322.62,626.566l0.008-0.031l-0.018-0.021l-0.029,0.01l-0.003,0.036l-0.029,0.021l-0.003,0.021L1322.62,626.566z M1322.734,626.449l0.068,0.075l-0.01,0.049l-0.065,0.026l-0.008,0.036l0.021,0.018l-0.018,0.052l0.029,0.055l-0.018,0.052l-0.029,0.01l0.01,0.023l0.047,0.01l0.008,0.042l-0.026,0.031l0.023,0.039l0.044,0.008l0.016-0.031l0.112-0.088l0.026-0.086l-0.01-0.039l0.042-0.081l0.122-0.091l-0.008-0.044l-0.039-0.003l-0.049-0.049l-0.057-0.112l-0.044-0.026l-0.055-0.003l-0.023,0.047l-0.044,0.036l-0.078,0.005l-0.042-0.016l-0.013,0.016L1322.734,626.449z M1322.446,626.657l0.023-0.008l-0.013-0.018l-0.029,0.003l-0.01,0.018L1322.446,626.657z M1320.263,624.532l0.021-0.005v-0.018l-0.021-0.008l-0.018,0.018L1320.263,624.532z"/>
</svg>
