<svg xmlns="http://www.w3.org/2000/svg" viewBox="119.649 479.670 7.702 9.726">
  <path d="M119.649,480.186l0.031-0.209l0.19-0.12l0.145,0.039l-0.084,0.109l-0.114,0.05l-0.061,0.137L119.649,480.186z M120.103,479.753l0.062,0.036l0.093-0.057l-0.031-0.062L120.103,479.753z M127.067,489.318l0.085,0.078l0.082-0.019l0.117-0.175l-0.004-0.155l-0.136-0.128l-0.159,0.016l-0.004,0.051l0.062,0.066l-0.031,0.155L127.067,489.318z M126.558,487.359l0.051,0.058h0.051l-0.082-0.14l-0.016-0.101l-0.054,0.019l-0.004,0.144L126.558,487.359z M125.435,487.262l0.016,0.136l0.062-0.012l0.136-0.179l0.105-0.012l0.043-0.101l-0.051-0.089l-0.19-0.039l-0.058,0.058l0.027,0.074l-0.027,0.082L125.435,487.262z M125.419,486.726l0.237,0.105l0.074,0.012l0.035-0.043l-0.043-0.051l0.066-0.062l0.113-0.012l0.078-0.027h0.14l0.074,0.019l0.124-0.004l0.105-0.082l0.19-0.066l0.054-0.066l-0.051-0.019l-0.089,0.051h-0.152l-0.066-0.089l-0.229-0.023l-0.089-0.101l-0.241,0.019l-0.163,0.144l-0.124,0.012l-0.117,0.062l-0.016,0.124L125.419,486.726z M121.814,485.078l0.004,0.12l0.183,0.19l0.124-0.008l0.058-0.163l0.016-0.19l-0.144-0.085l-0.12-0.008L121.814,485.078z M123.694,483.446l0.089,0.074l0.078-0.008l0.12-0.074h0.074l0.027,0.035l0.074-0.035l-0.012-0.105l-0.124-0.117h-0.233l-0.093,0.136V483.446z M121.689,483.54l0.152-0.058l0.051-0.105l0.058,0.004l-0.004,0.047l0.021,0.008l0.146-0.054l-0.008-0.078l0.035-0.031l0.074,0.054l0.058-0.027l-0.016-0.155l-0.093-0.016l-0.039-0.043l0.101-0.074l0.016-0.058l-0.078-0.023l-0.136,0.093l-0.21-0.027l-0.12-0.085l-0.206-0.019l-0.12,0.066l-0.016,0.14l0.078,0.128l0.004,0.132l0.148,0.19L121.689,483.54z"/>
</svg>
