<svg xmlns="http://www.w3.org/2000/svg" viewBox="115.648 480.030 7.702 9.726">
  <path d="M115.648,480.547l0.031-0.209l0.19-0.12l0.145,0.039l-0.084,0.109l-0.114,0.05l-0.061,0.137L115.648,480.547z M116.102,480.113l0.062,0.036l0.093-0.057l-0.031-0.062L116.102,480.113z M123.066,489.678l0.085,0.078l0.082-0.019l0.117-0.175l-0.004-0.155l-0.136-0.128l-0.159,0.016l-0.004,0.051l0.062,0.066l-0.031,0.155L123.066,489.678z M122.557,487.72l0.051,0.058h0.051l-0.082-0.14l-0.016-0.101l-0.054,0.019l-0.004,0.144L122.557,487.72z M121.434,487.623l0.016,0.136l0.062-0.012l0.136-0.179l0.105-0.012l0.043-0.101l-0.051-0.089l-0.19-0.039l-0.058,0.058l0.027,0.074l-0.027,0.082L121.434,487.623z M121.418,487.086l0.237,0.105l0.074,0.012l0.035-0.043l-0.043-0.051l0.066-0.062l0.113-0.012l0.078-0.027h0.14l0.074,0.019l0.124-0.004l0.105-0.082l0.19-0.066l0.054-0.066l-0.051-0.019l-0.089,0.051h-0.152l-0.066-0.089l-0.229-0.023l-0.089-0.101l-0.241,0.019l-0.163,0.144l-0.124,0.012l-0.117,0.062l-0.016,0.124L121.418,487.086z M117.813,485.439l0.004,0.12l0.183,0.19l0.124-0.008l0.058-0.163l0.016-0.19l-0.144-0.085l-0.12-0.008L117.813,485.439z M119.693,483.807l0.089,0.074l0.078-0.008l0.12-0.074h0.074l0.027,0.035l0.074-0.035l-0.012-0.105l-0.124-0.117h-0.233l-0.093,0.136V483.807z M117.688,483.9l0.152-0.058l0.051-0.105l0.058,0.004l-0.004,0.047l0.021,0.008l0.146-0.054l-0.008-0.078l0.035-0.031l0.074,0.054l0.058-0.027l-0.016-0.155l-0.093-0.016l-0.039-0.043l0.101-0.074l0.016-0.058l-0.078-0.023l-0.136,0.093l-0.21-0.027l-0.12-0.085l-0.206-0.019l-0.12,0.066l-0.016,0.14l0.078,0.128l0.004,0.132l0.148,0.19L117.688,483.9z"/>
</svg>
