<svg xmlns="http://www.w3.org/2000/svg" viewBox="1187.247 455.451 28.294 20.618">
  <path d="M1212.76,474.343l-0.016-0.088l0.068-0.125l-0.078-0.187l-0.166-0.088l-0.364-0.073l-0.094-0.047l-0.016-0.068l-0.182-0.114l-0.068-0.073l-0.01-0.249l-0.135-0.13l-0.078-0.01l-0.172-0.13l-0.104-0.026l-0.062-0.052l-0.047-0.109l-0.187-0.146l-0.042-0.249l0.031-0.13l-0.036-0.146l-0.12-0.135v-0.125l0.052-0.052l0.016-0.094l-0.036-0.068l-0.005-0.088l0.068-0.088l0.031-0.135l-0.094-0.109l0.005-0.052l0.078,0.016l0.062,0.078l0.042-0.016l0.005-0.12l-0.052-0.151l-0.078-0.021l-0.083-0.135l-0.083-0.016l-0.042-0.057l0.104-0.12l0.073-0.01l0.094,0.068l0.094,0.14l0.104,0.026l0.078,0.13l0.057-0.017l0.059,0.031l0.024,0.059l0.107,0.048l0.106-0.043l0.31,0.04l0.01,0.045l0.035,0.007l0.052-0.066l0.042,0.003l0.087,0.048l-0.035,0.073l0.014,0.035l0.057,0.022l0.057,0.187l0.078,0.052l0.083,0.223l0.13,0.104l0.083,0.286l-0.021,0.094l0.073,0.104l0.083-0.016l0.26,0.182l0.021,0.094l0.062,0.052l0.068-0.016l0.083,0.01l0.172,0.166l0.062,0.353l0.114,0.197l0.171,0.13l0.104-0.016l0.083,0.052l-0.021,0.062l0.078,0.073l0.229-0.031l0.12,0.036l0.026,0.078l0.151,0.078l0.177,0.265l0.166,0.068l0.094,0.068l0.099,0.301l0.052,0.083l0.14,0.073l0.078,0.083l0.01,0.171l-0.036,0.094l0.057,0.208l0.073,0.083l0.042,0.109l-0.047,0.208l-0.104,0.135l-0.047-0.042l0.026-0.094l0.005-0.104l-0.042-0.021l-0.01,0.078l-0.104,0.151h-0.057l-0.042-0.088l-0.099,0.021l-0.369,0.317l-0.047,0.104l-0.042,0.01l-0.13-0.094l-0.052-0.01l-0.031,0.047l-0.088,0.01l-0.431-0.135l-0.379-0.255l-0.182-0.088l-0.099-0.088l-0.094-0.146l-0.244-0.197l-0.281-0.369l0.047-0.042l0.099,0.052l0.146-0.286l-0.031-0.088L1212.76,474.343z M1214.29,473.561h0.036l0.005-0.099l-0.039-0.016l-0.021,0.06L1214.29,473.561z M1214.428,473.589l0.039-0.018l-0.052-0.078l-0.034,0.023l0.02,0.059L1214.428,473.589z M1210.629,470.845l0.052-0.026l-0.021-0.039l-0.034,0.01l-0.031,0.047L1210.629,470.845z M1210.647,470.983l-0.003,0.075l0.055,0.044l0.021,0.042l-0.01,0.083l0.036,0.003l0.049-0.112l0.003-0.047l-0.044-0.029l-0.01-0.091l-0.06-0.01L1210.647,470.983z M1210.151,469.816l0.073,0.088l0.005,0.135l0.047,0.016l-0.01-0.192l-0.094-0.182l-0.026,0.031L1210.151,469.816z M1210.224,470.139l0.042,0.01l0.005-0.047l-0.042-0.01L1210.224,470.139z M1210.265,470.258l0.031,0.078h0.047l-0.062-0.114L1210.265,470.258z M1210.546,470.715l0.073-0.01l0.01-0.057h0.073l-0.01,0.062l0.036,0.021l0.099-0.12v-0.244l0.109-0.385l-0.021-0.239l-0.114-0.057l-0.026-0.073l0.042-0.166l-0.031-0.068l-0.073-0.052l-0.031-0.177l-0.083-0.057l-0.094,0.005l-0.088,0.161l-0.094,0.047l-0.099,0.166l-0.016,0.083l0.042,0.01l0.099-0.057l0.057,0.026l-0.057,0.073l0.047,0.27l-0.057,0.083l0.062,0.348l0.104,0.234L1210.546,470.715z M1208.795,466.979h0.031l-0.045-0.184l0.01-0.073l-0.042-0.014l-0.055,0.042l0.004,0.031l0.052,0.017L1208.795,466.979z M1208.923,467.197l0.028-0.003l0.017-0.055l0.052,0.01l0.083,0.08l0.024,0.208l0.021,0.049l-0.028,0.01l-0.083-0.035l-0.031-0.107l-0.055-0.059l-0.028,0.024l0.059,0.066l0.024,0.094l0.107,0.062l0.09-0.024l-0.035-0.08l0.038-0.073l-0.035-0.173l-0.132-0.118l-0.087-0.01l-0.042,0.042L1208.923,467.197z M1206.83,465.503l-0.132,0.18l-0.01,0.073l0.031,0.045l0.066,0.01l0.049,0.107l0.097,0.007l0.042-0.087l0.055-0.007l0.021-0.132l-0.069-0.146l0.014-0.1l-0.059-0.028L1206.83,465.503z M1207.069,465.469l0.087-0.007l0.08,0.069l0.087-0.024l0.021-0.059l-0.055-0.066h-0.073l-0.049,0.035l-0.097,0.021V465.469z M1205.195,463.383l0.118,0.132l0.222,0.007l-0.042-0.152l-0.09-0.111l-0.104-0.007L1205.195,463.383z M1205.562,463.154l0.125-0.014l0.118,0.076l0.042-0.132l-0.139-0.083l-0.111-0.014l-0.09,0.118L1205.562,463.154z M1205.244,463.66l0.09-0.007l0.055-0.048l-0.125-0.021L1205.244,463.66z M1203.255,460.909l0.049,0.062l0.062-0.049l-0.028-0.076l-0.062,0.014L1203.255,460.909z M1203.248,461.491l0.042,0.083l0.076-0.014l-0.014-0.104l-0.069-0.021L1203.248,461.491z M1202.825,461.983l0.021,0.139l0.146,0.111l0.083,0.222l0.132,0.111l0.083-0.048l0.062-0.326l-0.097-0.139l0.021-0.159l-0.125-0.076l-0.222,0.069L1202.825,461.983z M1200.781,460.466l0.208-0.028l0.007-0.166l-0.18-0.076l-0.132,0.076l-0.014,0.118L1200.781,460.466z M1200.636,460.743l-0.069,0.111l-0.021,0.173l0.118,0.097l0.249-0.125l0.014-0.187l-0.09-0.152l-0.18-0.083l-0.069,0.062L1200.636,460.743z M1200.74,461.353l0.076-0.035l0.076,0.055l0.028,0.229l0.132,0.083l0.118-0.055l0.028-0.146l-0.083-0.132l-0.187-0.076l-0.097-0.146l-0.069,0.007l-0.083,0.146L1200.74,461.353z M1195.543,460.57l0.097,0.097l0.09-0.062l0.014-0.083l-0.222-0.069l-0.056,0.069L1195.543,460.57z M1195.73,460.417l0.076-0.028l-0.062-0.146l-0.132,0.021l-0.014,0.083L1195.73,460.417z M1195.966,460.771l0.139,0.035l0.007-0.069l-0.146-0.125l-0.111-0.042l-0.048,0.083L1195.966,460.771z M1196.056,460.591l0.049,0.055l0.118-0.069l-0.042-0.083l-0.083,0.028L1196.056,460.591z M1196.236,461.63l0.09,0.048l0.229-0.09l0.36,0.042l0.132-0.028l0.104,0.042l0.069-0.055l-0.305-0.208l-0.187-0.007l-0.159,0.083l-0.187,0.042L1196.236,461.63z M1195.453,460.085l0.048-0.049l-0.062-0.242l-0.076-0.021l-0.014,0.055L1195.453,460.085z M1195.28,459.759l0.048-0.048l-0.125-0.062l-0.007,0.055L1195.28,459.759z M1195.496,460.27l0.042-0.036l-0.01-0.073l-0.052,0.005l-0.026,0.068L1195.496,460.27z M1195.335,460.473l0.047-0.026l-0.052-0.078l-0.047,0.016l0.01,0.068L1195.335,460.473z M1195.148,460.525l0.057,0.005l0.052-0.031l-0.026-0.052l-0.073,0.021L1195.148,460.525z M1193.293,459.73l0.052,0.14l0.13,0.026h0.161l0.125,0.099l0.109,0.301l0.281,0.203l0.317-0.042l0.348,0.052l0.161-0.078h0.135l0.083-0.083l-0.042-0.171l0.052-0.192l-0.062-0.192l-0.333-0.151l-0.052-0.073l-0.213-0.052l-0.239-0.104l-0.073-0.099l-0.135,0.036l-0.026,0.088l-0.249,0.094l-0.083-0.021l-0.104,0.052l-0.078,0.104l-0.146,0.078l-0.057-0.083L1193.293,459.73z M1191.808,455.948l0.076,0.125l0.215,0.132l0.125,0.014l-0.007-0.083l0.055-0.014l0.049,0.125l0.201,0.049l0.076-0.069l-0.152-0.152l-0.09-0.305l-0.187-0.166l-0.118-0.035l-0.146-0.118l-0.104,0.028l0.007,0.146l-0.097,0.083l-0.007,0.194L1191.808,455.948z M1192.141,456.399l0.083,0.118l0.069-0.021l-0.104-0.139l-0.125-0.048l-0.021,0.048L1192.141,456.399z M1191.968,456.461l0.09,0.035l0.028-0.048l-0.132-0.035L1191.968,456.461z M1193.284,456.87l0.021-0.076l0.166,0.055l0.09-0.042l-0.111-0.048v-0.111l-0.069-0.035l-0.069,0.09l-0.104-0.014l-0.042,0.048l0.035,0.132H1193.284z M1190.18,468.691l0.062,0.111l0.152-0.007l0.09-0.125l-0.111-0.139l-0.152,0.035L1190.18,468.691z M1191.476,468.032l0.256,0.014l0.173-0.152l-0.007-0.125l-0.423,0.021l-0.104,0.173L1191.476,468.032z M1197.593,468.83l0.179,0.138l0.177-0.035l0.114-0.104l-0.062-0.104l-0.229-0.075L1197.593,468.83z M1202.659,466.207l0.083-0.235l-0.152-0.124l-0.262,0.207l0.055,0.179L1202.659,466.207z M1196.465,460.916l0.142-0.003l0.073-0.049l0.232-0.01l0.215,0.045l0.166,0.159l0.225,0.059l0.08,0.038l0.09,0.159l0.048,0.031l0.097-0.003l0.094,0.121l0.398,0.229l0.132,0.021l0.308,0.201l0.045,0.146l0.187,0.121l0.378,0.132l0.094,0.055l0.346,0.426l0.087,0.076l0.149,0.042l0.114,0.062l0.322,0.281l0.09,0.062l0.225,0.073l0.1-0.017l0.146,0.087l0.454,0.083l0.44,0.336l0.01,0.076l0.031,0.052l0.114,0.038l0.062,0.062l-0.028,0.097l0.007,0.055l0.076,0.059l0.166,0.187l0.128,0.243l0.225,0.128l0.146,0.308l0.076,0.045l0.104,0.156l0.104,0.218l0.024,0.132l0.236,0.336l-0.052,0.087l0.007,0.066l0.045,0.076l-0.003,0.43l-0.042,0.263l-0.09,0.059v0.055l0.087,0.125l0.003,0.166l0.038,0.09l0.094,0.045l0.031,0.298l0.087,0.083l0.125,0.017l0.184,0.288l0.118,0.066l0.066,0.111l0.01,0.094l0.035,0.042l0.073-0.049l0.004-0.146l0.076-0.014l0.142-0.107l0.1-0.26l0.073-0.007l0.035-0.045l0.003-0.128l0.142-0.18l0.017-0.166l-0.097-0.18l-0.007-0.09l0.08-0.166l0.239-0.163v-0.094l-0.042-0.087l0.052-0.26l-0.08-0.17l-0.239-0.149l-0.097-0.308l-0.225-0.236l-0.007-0.184l-0.09-0.083l-0.107,0.09l-0.111-0.031l-0.135-0.191l-0.021-0.229l-0.128-0.055l-0.163,0.111l-0.45-0.253l-0.1,0.007l-0.166-0.066l-0.017-0.243l-0.173-0.34l-0.09-0.045l-0.135,0.104l-0.087-0.014l-0.038-0.166l-0.163-0.135l0.031-0.097l-0.187-0.152l-0.149-0.042l-0.26-0.194l-0.052-0.097l-0.114-0.042l-0.18-0.312l-0.198-0.128l-0.021-0.111l-0.135-0.09l-0.132-0.01l-0.076-0.021l-0.052-0.069l-0.184-0.059l-0.35-0.045l-0.121-0.146l-0.114-0.031l-0.073-0.045l-0.035-0.121l-0.163-0.163l-0.152-0.028l-0.329-0.191l-0.173-0.059l-0.076-0.062l-0.028-0.066l-0.184-0.128l-0.204,0.017l-0.055-0.021l-0.035-0.076l-0.139-0.052l-0.229,0.035l-0.159-0.09l0.004-0.146l-0.118-0.125l-0.114-0.007l-0.256-0.146l-0.042-0.125l-0.087-0.073l-0.246-0.014l-0.062-0.083l-0.125-0.055l-0.104-0.111l-0.114-0.031l-0.101-0.132l-0.114-0.004l-0.044,0.13l0.088,0.164l0.216,0.156l-0.016,0.062h-0.151l-0.083,0.091l-0.065,0.031l-0.14-0.065l-0.086,0.052l0.021,0.099L1196.465,460.916z M1187.309,471.721l0.153,0.169l0.299,0.143l0.151,0.013l0.099,0.034l0.029,0.07l0.161,0.052l0.088-0.101l0.104,0.029l0.083,0.122l0.07,0.029l0.081-0.031l0.255,0.091l0.023,0.086l0.055,0.065l-0.052,0.07l0.021,0.031l0.073-0.044l0.013-0.052h0.078l0.172,0.096l0.029,0.052l-0.068,0.065l-0.003,0.065l0.055,0.013l0.049-0.049l0.055,0.044l0.221,0.101l0.281,0.057l0.018-0.042l0.029-0.005l0.01,0.078l-0.052,0.039l-0.034,0.078l0.026,0.039l0.081-0.013l0.052,0.052l-0.031,0.104l0.044,0.057l-0.044,0.034l-0.021-0.021l-0.044,0.003l0.044,0.081l0.07-0.055l0.057-0.023l0.114,0.039l0.081-0.049l0.01-0.081l0.114-0.109l0.192,0.018l0.078-0.008l0.192-0.127l0.325,0.042l0.288,0.114l0.184,0.26l0.081,0.055l0.192,0.335l0.117,0.06l0.26-0.018l0.101-0.044l0.187-0.008l0.086,0.036l0.231,0.003l0.057-0.039l0.055-0.003l0.091,0.068l0.068,0.005l0.109-0.083l0.112,0.005l0.091,0.068l-0.013,0.055l0.029,0.042l0.127-0.094l-0.036-0.083l0.068-0.086l0.075,0.039l0.039,0.101l0.114,0.013l0.158-0.104l0.236-0.003l0.031,0.086l0.184,0.013l0.101-0.039l0.372,0.003l0.065-0.047l0.164-0.031l0.034-0.07l0.21-0.114l0.114-0.161l0.19-0.099l0.065,0.005l-0.047,0.06l0.029,0.034l0.158-0.083l0.081-0.003l0.26-0.114l0.073-0.114l-0.034-0.143l0.099-0.047l0.096,0.068l0.198-0.073l0.369-0.01l0.099,0.052l0.146-0.047l0.062-0.125l0.291-0.125l0.12,0.036l0.146-0.104l0.052-0.088l0.53-0.348l0.114-0.135l0.073-0.275l0.135-0.062l0.13,0.021l0.099-0.068l-0.01-0.135l-0.182-0.057l-0.078-0.14l0.073-0.197l0.151-0.042l0.281,0.036l0.125,0.114l0.088-0.005l0.042-0.135l0.083-0.036l0.224,0.021l0.057,0.114l0.135,0.12h0.166l0.109-0.12l0.104-0.005l0.265-0.099l0.13-0.14l0.39-0.203l0.146-0.213l-0.016-0.197l-0.156-0.249l-0.182-0.156l-0.13-0.031l-0.213-0.223l-0.01-0.13l0.068-0.161l0.01-0.094l-0.062-0.104l0.078-0.12l0.223-0.047l0.25,0.078l0.156,0.005l0.12-0.057l0.182-0.016l0.249-0.327l0.125-0.078l0.218-0.535l0.005-0.327l-0.166-0.4v-0.151l0.182-0.291l0.052-0.197l-0.073-0.088l-0.374,0.052l-0.395-0.125l-0.088-0.229l0.036-0.13h0.068l0.104,0.171l0.104-0.021l-0.073-0.218l-0.13-0.229l-0.083-0.01l-0.068,0.234l-0.114,0.057l-0.187-0.01l-0.135-0.057l-0.146,0.042l-0.01,0.104l0.13,0.062l0.052,0.083l-0.094,0.192l-0.156,0.062l-0.244-0.057l-0.166-0.161l0.021-0.109l-0.052-0.083l-0.14-0.047l-0.561-0.057l-0.161,0.026l-0.166-0.057l-0.286,0.062l-0.021,0.088l0.094,0.182l-0.005,0.114l0.062,0.12l0.026,0.166l0.125,0.083l0.192,0.223l0.031,0.171l-0.047,0.135l0.052,0.151l0.114,0.073l0.031,0.208l-0.047,0.213l0.021,0.187l0.099,0.094l-0.005,0.281l-0.172,0.265l-0.198,0.073l-0.114-0.109l-0.099-0.031l-0.13,0.078h-0.109l-0.4-0.146l-0.057,0.036l0.052,0.088l-0.047,0.047l-0.234,0.068l-0.223,0.182l-0.172,0.255l-0.192,0.099l-0.172,0.166l-0.094,0.27l-0.14,0.208l-0.036,0.244l0.052,0.042l-0.187,0.265l-0.221,0.171h-0.195l-0.086-0.133l-0.252-0.016l-0.055,0.057l0.021,0.044l-0.101,0.158l-0.117,0.091l-0.127-0.013l-0.091,0.026l-0.094-0.021l-0.073-0.208l-0.195-0.153l-0.205-0.073l-0.221,0.008l-0.125,0.174l-0.159,0.073l-0.161,0.221l-0.073,0.016l-0.133-0.044l-0.158-0.008l-0.099,0.034l-0.07-0.013l-0.107-0.086l-0.088-0.01l-0.023-0.049l0.039-0.062l-0.07-0.359l-0.107-0.096l-0.01-0.062l0.016-0.083l-0.042-0.091l-0.091-0.021l0.013-0.057l0.191-0.056l0.035-0.229l-0.076-0.145l0.069-0.125l0.347-0.132l0.069-0.132l-0.062-0.125l-0.249-0.125l-0.243,0.042l-0.118,0.146l0.042,0.173l-0.104,0.159l0.083,0.27l-0.118,0.201l-0.125,0.007l-0.201,0.263l0.076,0.173l0.132,0.028l0.062,0.062l-0.104,0.249l-0.284,0.18l-0.076-0.076l-0.229-0.055l-0.076,0.146l-0.263,0.062l-0.055-0.062l0.014-0.111l-0.374-0.021l-0.346,0.215l-0.97,0.104l-0.049-0.09l-0.769-0.326l-0.243-0.007l-0.333,0.194l-0.194,0.048l-0.236-0.159l-0.443,0.055l-0.118,0.118l-0.201-0.021l-0.049-0.146l-0.346-0.166l-0.249,0.083l-0.166,0.66L1187.309,471.721z M1193.743,470.266l0.068,0.029l0.047-0.049l-0.021-0.065l-0.083,0.003l-0.034,0.044L1193.743,470.266z"/>
</svg>
