<svg xmlns="http://www.w3.org/2000/svg" viewBox="1159.551 457.806 49.815 36.155">
  <path d="M1183.619,459.6l-0.069-0.014l0.007-0.125l0.125-0.104l0.201,0.021l-0.042,0.09l-0.125,0.035L1183.619,459.6L1183.619,459.6z M1178.713,468.143l0.201-0.159l0.014-0.437l-0.18-0.222h-0.222l-0.256,0.27l-0.028,0.45l0.139,0.111L1178.713,468.143L1178.713,468.143z M1179.565,468.448l0.09-0.097l-0.014-0.125l-0.146-0.021l-0.111,0.083l0.042,0.132L1179.565,468.448L1179.565,468.448z M1175.013,465.829l0.146,0.028l0.111-0.104v-0.201l-0.173-0.076l-0.173,0.076l0.014,0.215L1175.013,465.829L1175.013,465.829z M1171.77,462.552l-0.014-0.104l-0.139-0.069l-0.118,0.069l0.139,0.132L1171.77,462.552L1171.77,462.552z M1183.397,460.002l-0.007,0.118l0.104,0.007l0.069-0.09l-0.048-0.062L1183.397,460.002L1183.397,460.002z M1182.77,470.69l0.187,0.031l0.25-0.114l-0.104-0.509l-0.312-0.218l-0.312,0.094l-0.125,0.166l0.083,0.281L1182.77,470.69L1182.77,470.69z M1182.084,469.453l-0.052,0.114l0.094,0.125h0.146l0.104-0.146l-0.135-0.125L1182.084,469.453L1182.084,469.453z M1169.695,463.139l-0.083,0.091l0.018,0.062l0.073,0.021l0.177-0.039l0.023-0.075l-0.091-0.065L1169.695,463.139L1169.695,463.139z M1181.741,459.413l0.069-0.007l0.014-0.083l-0.111,0.021L1181.741,459.413L1181.741,459.413z M1180.14,458.339l-0.069-0.049l-0.014,0.062l0.048,0.042L1180.14,458.339L1180.14,458.339z M1180.251,458.325l0.021-0.055l-0.076,0.007l0.007,0.055L1180.251,458.325L1180.251,458.325z M1169.601,463.002l0.07,0.059l0.161-0.008l0.023-0.055l-0.255-0.17l-0.146-0.014l-0.028,0.097l0.048,0.076L1169.601,463.002L1169.601,463.002z M1169.019,484.007l-0.069,0.049l-0.004,0.062l0.097,0.031l0.142-0.073l0.024-0.135l-0.083-0.055L1169.019,484.007L1169.019,484.007z M1169.123,482.896v0.208l0.094,0.01l0.021-0.14l-0.057-0.083L1169.123,482.896L1169.123,482.896z M1169.269,482.216l-0.468-0.177l-0.307-0.068l-0.119-0.156l-0.078-0.021l-0.052,0.078l0.083,0.036l0.146,0.182l0.213,0.052l0.198,0.125l0.146,0.171l0.218,0.057l0.4,0.213l0.182,0.156l0.078-0.047l-0.151-0.208L1169.269,482.216L1169.269,482.216z M1168.406,484.391l-0.114,0.076l-0.007,0.062l0.125,0.042l0.062-0.003l0.073-0.087l-0.017-0.087L1168.406,484.391L1168.406,484.391z M1169.035,482.735l-0.12-0.042l-0.042,0.042l0.078,0.052l0.099,0.026L1169.035,482.735L1169.035,482.735z M1166.577,485.358l-0.367,0.024l-0.139,0.055l-0.021,0.114l0.225,0.08l0.298-0.031l0.111-0.097l0.104-0.031l-0.01-0.08L1166.577,485.358L1166.577,485.358z M1163.708,484.715l-0.021,0.047l0.042,0.021l0.152-0.042l-0.031-0.042L1163.708,484.715L1163.708,484.715z M1163.954,484.717l-0.024,0.038l0.059,0.028l0.09-0.028l0.014-0.052l-0.062-0.01L1163.954,484.717L1163.954,484.717z M1168.361,484.346l-0.01-0.066l-0.1-0.003l-0.049,0.045l0.038,0.059l0.052,0.007L1168.361,484.346L1168.361,484.346z M1164.897,485.057l0.021-0.062l-0.05-0.047l-0.09,0.028l-0.052-0.01l-0.054-0.088h-0.08l-0.137,0.088l-0.126,0.023l0.024,0.059l0.149,0.052l0.298,0.01L1164.897,485.057L1164.897,485.057z M1168.818,462.565l-0.104-0.125l-0.09-0.007l-0.055,0.062l0.111,0.09L1168.818,462.565L1168.818,462.565z M1196.666,484.863l0.069-0.028l-0.007-0.062h-0.09L1196.666,484.863L1196.666,484.863z M1196.139,485.202l-0.021-0.097l-0.069-0.048l-0.048,0.062l0.055,0.09L1196.139,485.202L1196.139,485.202z M1196.326,485.119l-0.014-0.09l-0.055-0.055l-0.055,0.049l0.048,0.118L1196.326,485.119L1196.326,485.119z M1196.596,486.823l0.035,0.097l0.104,0.014l0.014-0.104l-0.097-0.042L1196.596,486.823L1196.596,486.823z M1194.663,484.939l-0.319-0.166l-0.277,0.042l-0.249,0.298l0.048,0.291l0.312,0.284l0.18,0.035l0.146,0.173l0.208,0.076l0.132-0.111l-0.021-0.208l0.042-0.208L1194.663,484.939L1194.663,484.939z M1196.499,485.126l0.007-0.062l-0.097-0.021l-0.007,0.111l0.055,0.021L1196.499,485.126L1196.499,485.126z M1196.718,481.589l-0.048-0.045l-0.031,0.017l0.035,0.031l0.045,0.125l0.035,0.014L1196.718,481.589L1196.718,481.589z M1196.926,486.576l0.021-0.151l-0.104-0.036l-0.062-0.151l0.021-0.239l-0.036-0.088l-0.109-0.031l-0.062-0.042l-0.094-0.229l-0.192-0.094l-0.088,0.078l-0.187,0.047l-0.161-0.047l-0.088-0.12l-0.426-0.208h-0.182l-0.135,0.125l0.042,0.281l0.307,0.286l-0.016,0.135l-0.161,0.052l-0.125,0.166l0.088,0.104l0.187-0.036l0.234-0.005l0.203,0.104l0.223,0.057l0.203-0.01l0.109,0.073l0.114,0.005l0.044-0.091l0.101-0.01l0.035,0.035l-0.029,0.128l0.062,0.021l0.078-0.073l0.088,0.016L1196.926,486.576L1196.926,486.576z M1200.527,483.697l0.023,0.044l0.073-0.052l-0.016-0.073l-0.052,0.003L1200.527,483.697L1200.527,483.697z M1206.318,492.831l-0.049-0.083l-0.146-0.035l-0.042,0.048l0.083,0.042L1206.318,492.831L1206.318,492.831z M1180.833,458.907l0.069-0.208l0.132-0.021l0.125,0.09l0.215-0.035v-0.132l-0.111-0.083l0.055-0.062l0.152,0.042l0.035,0.111l0.208,0.09l0.63,0.104l0.125-0.069l0.243-0.007l0.069-0.062l0.125-0.007l0.146,0.111l0.111-0.021l0.305-0.298l0.049-0.201l0.104-0.014l0.097,0.104l0.236-0.021l0.097-0.18l-0.055-0.146l-0.222-0.152l-0.028,0.069l0.153,0.132l0.014,0.097l-0.111,0.042l-0.152-0.076l-0.097,0.028l-0.235-0.097l-0.346-0.042l-0.159-0.083l-0.326-0.035l-0.159,0.014l-0.367-0.028l-0.146-0.055l-0.09,0.014l-0.18,0.118l-0.229,0.035l-0.25-0.118l-0.069,0.069l-0.055,0.118l-0.125-0.035l-0.014,0.111l0.166,0.229l-0.035,0.118h-0.25l-0.055,0.132l-0.014,0.194l0.152,0.146L1180.833,458.907L1180.833,458.907z M1197.726,483.549l0.135,0.031l0.065-0.031l-0.036-0.117l-0.177-0.153l-0.031,0.031l0.08,0.078l0.052,0.096l-0.07,0.013L1197.726,483.549L1197.726,483.549z M1168.853,482.816l0.042,0.049l0.057,0.023l0.023-0.034l-0.101-0.06L1168.853,482.816L1168.853,482.816z M1197.64,482.712l0.101-0.226l-0.013-0.174l-0.135-0.104l-0.005-0.052l0.065-0.112l0.016-0.229l-0.034-0.042l-0.117,0.016l-0.182,0.114l-0.083,0.075l-0.094,0.159l0.005,0.138l0.086,0.065l0.099-0.023l0.179-0.003l0.117,0.125l0.013,0.065l-0.057,0.083l-0.049,0.156l-0.192,0.21l-0.021,0.07l0.075,0.086l0.083,0.021l0.094,0.078l0.039-0.049l-0.06-0.101l0.06-0.159L1197.64,482.712L1197.64,482.712z M1185.306,470.814l-0.146,0.156l0.021,0.343l0.302,0.343l0.083,0.177l0.322,0.146l0.146,0.114l0.218,0.031l0.094-0.156l0.125-0.54l-0.395-0.312l-0.312-0.073l-0.187-0.197L1185.306,470.814L1185.306,470.814z M1185.119,459.298l0.146,0.01l0.27-0.047l0.135-0.135l-0.005-0.068l-0.094-0.026l-0.14-0.151l-0.109,0.057l0.016,0.109l-0.052,0.12l-0.177,0.01l-0.083,0.13l0.021,0.047L1185.119,459.298L1185.119,459.298z M1185.718,475.675l0.069-0.021l0.021-0.049l-0.132-0.028l-0.028,0.069L1185.718,475.675L1185.718,475.675z M1185.378,458.221l-0.014-0.083l-0.138-0.028l-0.083,0.083l0.076,0.083L1185.378,458.221L1185.378,458.221z M1196.825,484.849l0.007,0.111l0.069,0.007l0.049-0.069L1196.825,484.849L1196.825,484.849z M1184.703,470.378l0.073-0.156l-0.166-0.073l-0.156,0.052l0.01,0.156L1184.703,470.378L1184.703,470.378z M1184.845,458.311l0.062-0.055l-0.069-0.055l-0.083,0.055l-0.215,0.042l0.049,0.055L1184.845,458.311L1184.845,458.311z M1186.587,470.658l-0.138-0.187l-0.156,0.052l-0.01,0.166l0.171,0.096L1186.587,470.658L1186.587,470.658z M1197.076,482.32l0.01-0.208l-0.081-0.031l-0.057,0.023l-0.008,0.158l-0.049,0.127l0.07,0.023L1197.076,482.32L1197.076,482.32z M1197.255,486.526l0.111-0.021l-0.062-0.125l-0.007-0.166l-0.09-0.076l-0.201,0.035l-0.007,0.111l0.125,0.062L1197.255,486.526L1197.255,486.526z M1186.924,458.748l-0.076-0.035l-0.069,0.035l0.069,0.055L1186.924,458.748L1186.924,458.748z M1197.583,482.463l-0.052-0.026l-0.026,0.034l0.005,0.07l0.026,0.016L1197.583,482.463L1197.583,482.463z M1164.782,486.079l0.01,0.049l0.128,0.049l0.087-0.014l-0.038-0.062L1164.782,486.079L1164.782,486.079z M1198.432,482.517l0.005,0.088l-0.036,0.029l-0.06,0.01l0.026,0.047l0.099-0.016l0.031-0.049l0.016-0.138l-0.044-0.023L1198.432,482.517L1198.432,482.517z M1167.434,481.717l0.016,0.062l0.198,0.016l0.12-0.042l-0.073-0.057L1167.434,481.717L1167.434,481.717z M1202.34,490.619l-0.057,0.062l0.073,0.052l0.109-0.016l-0.062-0.088L1202.34,490.619L1202.34,490.619z M1197.982,490.087l0.007,0.031l0.132,0.014l0.042-0.014l-0.035-0.031H1197.982L1197.982,490.087z M1200.753,483.92l0.06,0.073l0.081-0.01l0.021-0.078l-0.086-0.052L1200.753,483.92L1200.753,483.92z M1202.382,490.468l0.062-0.052l-0.088-0.13l-0.135-0.021l-0.088,0.083l0.036,0.104l0.119-0.036L1202.382,490.468L1202.382,490.468z M1200.54,485.012l-0.099-0.008l-0.036,0.062l0.047,0.021l0.049-0.018l0.195,0.034l0.031-0.023l-0.151-0.026L1200.54,485.012L1200.54,485.012z M1196.796,489.829l-0.083-0.021l-0.031,0.094l-0.068,0.005l-0.099-0.088l-0.104-0.016l-0.036,0.114l0.255,0.172l0.016,0.083l-0.249-0.073l-0.026,0.057l0.348,0.114l0.078-0.057l-0.036-0.203l0.052-0.094L1196.796,489.829L1196.796,489.829z M1197.388,489.974l-0.208-0.005l-0.239,0.068l-0.088,0.146l0.057,0.052l0.094-0.073h0.135l0.104,0.125l0.12-0.026l-0.01-0.12l0.083-0.088L1197.388,489.974L1197.388,489.974z M1197.823,490.018l0.024,0.045l0.066,0.031l0.014-0.028l-0.052-0.034L1197.823,490.018L1197.823,490.018z M1197.698,489.928l0.014,0.038l0.08,0.031v-0.028l-0.042-0.045L1197.698,489.928L1197.698,489.928z M1197.341,488.789l-0.109-0.031l-0.094,0.031l0.031,0.068l0.078,0.005L1197.341,488.789L1197.341,488.789z M1197.902,487.532l-0.161,0.156l-0.016,0.182l-0.14,0.052l-0.239-0.161l-0.042-0.135l0.068-0.042v-0.057l-0.223-0.062l-0.307-0.364l-0.265-0.125l-0.026-0.12l-0.042-0.083l-0.239-0.083l-0.068,0.088l0.068,0.062l0.01,0.12l0.068,0.068l0.078-0.016l0.192,0.146l0.099,0.187l0.005,0.275l0.078,0.13l0.146,0.036l0.047-0.036l-0.016-0.073l0.042-0.026l0.114,0.172l-0.042,0.068l-0.052-0.057l-0.036,0.026l0.026,0.104l-0.052,0.156l0.047,0.057l0.135,0.036l0.224-0.005l0.275,0.068l0.239,0.099l0.057,0.104l0.047-0.016l-0.005-0.078l0.052-0.156l0.12-0.182l0.021-0.135l0.073-0.135l0.016-0.249l-0.151-0.078L1197.902,487.532L1197.902,487.532z M1204.62,491.002l-0.191-0.128l-0.038,0.035l0.038,0.035l0.031-0.003l0.1,0.062H1204.62L1204.62,491.002z M1204.911,492.089l-0.125,0.014l0.028,0.083l0.104-0.035L1204.911,492.089L1204.911,492.089z M1204.544,492.117l-0.042,0.125l0.166,0.083l0.062-0.132l-0.055-0.083L1204.544,492.117L1204.544,492.117z M1205.438,492.547l0.014-0.062l-0.395-0.242l-0.132-0.021l-0.042,0.062l0.152,0.166l0.25,0.125L1205.438,492.547L1205.438,492.547z M1209.19,492.699l-0.534-0.028l-0.111,0.083l0.021,0.069l0.059,0.052l-0.069,0.038l-0.139-0.042l-0.17,0.028l0.01,0.097l0.194,0.139h0.236l0.163-0.09l0.225,0.017l0.177,0.059l0.114-0.087l-0.003-0.152L1209.19,492.699L1209.19,492.699z M1202.479,483.962l-0.028-0.049l-0.073,0.003l-0.028,0.049l0.007,0.087l0.09,0.152l0.038,0.007l-0.031-0.125L1202.479,483.962L1202.479,483.962z M1206.851,493.35h-0.284l-0.783-0.374l-0.236-0.062l-0.125-0.125l-0.125-0.014l-0.049,0.146l0.062,0.152l0.499,0.339l0.062,0.173l0.201,0.09l0.09-0.062l0.111,0.028l0.09,0.132l0.201,0.042l0.014,0.118l0.076,0.028l0.159-0.069l0.256,0.049l0.18-0.055l0.166,0.035l0.055-0.09l-0.284-0.333L1206.851,493.35L1206.851,493.35z M1204.44,484.977l0.059-0.024l-0.007-0.066l-0.135-0.104l-0.024-0.055l0.069-0.024l0.052,0.042l0.101-0.01l0.052-0.118l-0.021-0.083l-0.149-0.08l-0.014-0.121l-0.125-0.059l-0.101,0.048l-0.194-0.055l0.004-0.118l-0.177-0.097l-0.163,0.028l-0.229-0.014l-0.274-0.073h-0.333l-0.059-0.021l-0.128-0.159l-0.1-0.017l-0.052,0.066l0.031,0.049l0.024-0.024l0.073,0.014l0.073,0.076l0.073,0.038l-0.028,0.059l-0.094,0.076l0.035,0.035l0.187-0.01l0.135,0.087l0.118,0.021l0.125,0.142l0.204,0.059l0.062,0.111l0.007,0.107l-0.08,0.003l-0.042,0.042l0.004,0.066l0.142,0.042l0.007,0.052l0.045,0.059l0.052-0.014v-0.087l-0.052-0.055l0.014-0.076l0.062-0.007l0.184,0.163l0.038,0.08l0.1,0.038l0.073-0.052l0.173-0.01l0.1-0.069l0.08,0.035L1204.44,484.977L1204.44,484.977z M1203.39,492.051l0.017,0.038l0.069-0.003l0.003-0.049l-0.055-0.024L1203.39,492.051L1203.39,492.051z M1168.536,482.242l-0.01,0.052l0.187,0.177h0.073l-0.016-0.083l-0.088-0.094L1168.536,482.242L1168.536,482.242z M1204.277,492.252l0.024-0.024l0.003-0.045h-0.073L1204.277,492.252L1204.277,492.252z M1203.78,490.099l-0.255,0.13l-0.13,0.01l-0.14-0.062l-0.343-0.088l-0.088,0.062l0.348,0.172l0.13-0.005l0.234,0.125l0.161,0.01l0.083-0.094l0.14,0.031l0.146-0.042l0.031-0.12l-0.198-0.125L1203.78,490.099L1203.78,490.099z M1202.95,491.819l-0.017,0.055l0.076,0.024l0.066-0.024l-0.017-0.045L1202.95,491.819L1202.95,491.819z M1169.825,481.504l-0.296-0.005l0.005,0.052l0.13,0.057l0.286,0.244l0.109-0.01l-0.068-0.229L1169.825,481.504L1169.825,481.504z M1170.422,481.977l-0.114-0.078h-0.099l-0.021,0.052l0.062,0.094l0.166,0.078l0.036-0.026L1170.422,481.977L1170.422,481.977z M1169.814,482.008l-0.047,0.13l0.042,0.073l0.109,0.042l0.094-0.068l0.016-0.125l-0.109-0.068L1169.814,482.008L1169.814,482.008z M1168.021,481.473l-0.125-0.016l-0.187,0.094l0.088,0.062L1168.021,481.473L1168.021,481.473z M1171.046,479.351l-0.135-0.035l-0.146-0.069l-0.055,0.003l0.038,0.09l0.128,0.149l0.27,0.149l0.066-0.014l-0.042-0.132L1171.046,479.351L1171.046,479.351z M1170.433,482.179l0.052,0.088l0.052-0.031l0.005-0.12l-0.042-0.016L1170.433,482.179L1170.433,482.179z M1168.125,481.488l-0.036,0.062l0.109,0.047l0.275,0.01l0.13-0.047l-0.036-0.078L1168.125,481.488L1168.125,481.488z M1168.957,481.816l0.161,0.036l0.333,0.182l0.135,0.12l0.13-0.021l0.094-0.275l-0.197-0.197l-0.12-0.057l-0.182-0.021l-0.104,0.088l-0.099-0.005l-0.177-0.14l-0.187-0.005l-0.036,0.094L1168.957,481.816L1168.957,481.816z M1168.936,481.457l0.218,0.047l0.156-0.005l0.036-0.073l-0.301-0.042l-0.327,0.026l0.026,0.052L1168.936,481.457L1168.936,481.457z M1168.671,481.878l0.172,0.057l0.026-0.057l-0.146-0.109l-0.114,0.005L1168.671,481.878L1168.671,481.878z M1168.437,481.779l0.036,0.094l0.088,0.057l0.073-0.01l-0.088-0.135L1168.437,481.779L1168.437,481.779z M1170.679,479.5l0.003,0.059l0.087,0.135l0.038-0.017l0.01-0.059l-0.08-0.139L1170.679,479.5L1170.679,479.5z M1168.068,482.018l0.135,0.12l0.094,0.01l-0.208-0.192L1168.068,482.018L1168.068,482.018z M1196.097,490.375l-0.007,0.055l0.045,0.007l0.042-0.024l-0.004-0.035L1196.097,490.375L1196.097,490.375z M1196.593,488.628l-0.234,0.146l-0.291-0.031l-0.172,0.094l-0.171-0.021l-0.12-0.12l0.005-0.073l0.088-0.031l-0.062-0.052l-0.177,0.01l-0.062,0.078l-0.234-0.099l-0.566-0.052l-0.192-0.203l-0.166-0.031l-0.073-0.104l-0.099-0.016l-0.104,0.083l-0.099-0.026l-0.088-0.078l-0.161-0.042l-0.182,0.005l-0.286-0.135l-0.322-0.353l-0.057-0.135l-0.099-0.047l-0.135-0.073l-0.13-0.208l0.094-0.114l0.743-0.104l0.369-0.171l0.078-0.099l-0.042-0.083l-0.125-0.057v-0.104l-0.099-0.036l-0.12,0.068l-0.338,0.005l-0.4-0.14l-0.223-0.01l-0.229,0.062l-0.125-0.005l-0.203-0.078h-0.239l-0.047,0.042l-0.109-0.031l-0.057-0.12l-0.431-0.229l-0.208,0.016l-0.197-0.234l-0.062-0.218l0.016-0.197l0.146-0.099l0.094-0.281l0.005-0.125l0.104-0.14l0.151-0.026l0.057-0.14l-0.068-0.333l-0.198-0.109l-0.239,0.016l-0.203,0.062l-0.01-0.109l-0.088-0.005l-0.13,0.13v0.109l-0.25,0.016l-0.379-0.057l-0.073,0.062l-0.031,0.078l-0.411,0.109l-0.223-0.01l-0.26-0.099l-0.12,0.01l-0.307-0.296l-0.016-0.338l-0.109-0.13l-0.062-0.229l-0.005-0.301l-0.166-0.239l-0.301-0.213l-0.182-0.016l-0.244-0.135l-0.047-0.203l0.031-0.327l-0.073-0.161l-0.016-0.462l-0.125-0.151l-0.14-0.551l-0.119-0.099l-0.348-0.016l-0.066,0.052l-0.094-0.087l-0.083-0.198l-0.263-0.194l-0.437,0.038l-0.243-0.194l0.01-0.208l-0.166-0.249l-0.239-0.114l-0.229-0.229l-0.062-0.229l-0.738-0.52l-0.343-0.104l-0.301-0.468l0.01-0.405l-0.249-0.312l0.01-0.184l-0.118-0.166l-0.208-0.139l-0.146-0.353l0.083-0.547l0.222-0.149l0.437-0.062l0.353,0.125l0.447,0.01l0.187-0.083l0.603,0.062l0.156-0.114l0.644-0.031l0.284-0.194l-0.021-0.18l-0.097-0.218l0.094-0.426l-0.166-0.395l-0.364-0.218l-0.333-0.592l-0.603-0.509l-0.696-0.239l-0.166,0.166h-0.551l-0.114-0.156l-0.114,0.01l-0.083,0.073l-0.291-0.135l-0.073-0.146l-0.229-0.073l-0.177,0.042l-0.094-0.062l-0.052-0.099l-0.286-0.161l-0.146-0.005l-0.224-0.182l-0.114-0.161l-0.338-0.223l-0.229,0.005l-0.109-0.114l-0.099-0.021l-0.171,0.047l-0.644-0.197l-0.156-0.104l-0.255-0.052l-0.104-0.068l-0.156,0.01l-0.125,0.052l-0.286-0.047l-0.125,0.042l-0.114-0.057l-0.094-0.203l0.099-0.234l0.021-0.234l0.068-0.151l0.083-0.078l0.021-0.083l-0.057-0.151l-0.002-0.234l0.08-0.118l-0.014-0.128l-0.087-0.232l-0.007-0.229l0.087-0.17l-0.007-0.125l-0.565-0.371l-0.253-0.294l-0.09-0.225l-0.142-0.09l-0.069-0.118l-0.097-0.073l-0.08-0.128l-0.121-0.042l-0.024-0.066l-0.204-0.076l-0.111-0.194l-0.218-0.062l-0.367,0.08l-0.146-0.066l-0.107-0.003l-0.083-0.062l-0.242-0.094l-0.142-0.194l-0.007-0.128l-0.236-0.215l-0.177-0.007l-0.059-0.094l0.052-0.139l-0.305-0.201l-0.509-0.232l-0.163-0.003l-0.142-0.083l-0.069-0.159l0.003-0.104l0.048-0.094l-0.042-0.107l-0.038-0.045l-0.007-0.104l-0.34-0.09l-0.434-0.036l-0.166,0.01l0.016,0.036l0.203,0.044l0.146,0.07l-0.044,0.036l-0.208-0.047l-0.127-0.057l-0.182-0.023l-0.021-0.044l0.158-0.01l-0.008-0.034h-0.247l-0.042,0.039l0.029,0.086h0.086l0.117,0.083l0.003,0.049l0.068,0.062l-0.044,0.005l-0.164-0.073l-0.013-0.075l-0.057,0.003l-0.044,0.052l-0.184-0.083l-0.036-0.052l0.158-0.047l-0.026-0.039l-0.187,0.047l-0.249,0.003l-0.057,0.088l-0.065-0.008l-0.047-0.073l-0.135-0.086l-0.125-0.213l-0.213-0.112l-0.166-0.078l-0.057-0.104l-0.392-0.184l0.005-0.078l0.034-0.055l-0.029-0.039l-0.047,0.026l-0.008,0.099l-0.164-0.036l-0.169-0.083l-0.14-0.231l-0.198-0.153l-0.161-0.026l-0.156-0.107l-0.099-0.016l-0.27,0.01l-0.312-0.062l-0.086-0.075l-0.449-0.055l-0.096,0.034l-0.169-0.026l-0.112-0.057l-0.198-0.005l-0.327-0.062l-0.265-0.101l-0.12-0.01l-0.442-0.182l-0.317-0.031l-0.187-0.083l-0.408-0.224l-0.08-0.029l-0.065-0.06l-0.2-0.029l-0.2-0.091l-0.249-0.029l-0.33-0.286l-0.348-0.179l-0.369,0.042l-0.086-0.029l-0.159-0.192l-0.234-0.068l-0.551-0.26l-0.488-0.281l-0.504-0.14l-0.239-0.122l-0.156-0.125l-0.122-0.049l-0.195-0.005l-0.304-0.107l-0.26,0.013v13.768l-0.132,0.048l-0.118,0.776l-0.243,0.291l-0.055,0.443l0.374,0.631l0.235,0.035v8.273l0.142,0.128l0.229,0.315l0.409,0.007l0.291-0.163l0.146-0.159l0.412,0.007l0.163,0.08l0.132,0.104l0.34,0.045l0.533-0.09l0.156,0.003l0.27,0.069l0.18-0.028l0.159-0.09l0.624-0.021l0.159-0.064l0.172,0.021l0.234,0.156l0.244,0.026l0.364,0.125l0.218,0.156l0.166,0.151l0.348,0.057l0.437-0.301h0.088l0.546-0.307l0.047-0.109l0.483-0.249l0.208-0.01l0.197-0.151l0.187-0.036l0.203-0.01l0.151,0.016l0.159-0.113l0.116-0.116l-0.031-0.146l-0.01-0.592l-0.068-0.104l-0.488-0.629l-0.146-0.125l-0.276-0.177l-0.119-0.135l-0.177-0.052l-0.385-0.031l-0.14-0.062l-0.213-0.187l-0.213-0.068l-0.125-0.109l-0.452-0.036l-0.187,0.047l-0.25,0.187l-0.223,0.016l-0.255-0.114l-0.083-0.229l-0.036-0.286l-0.119-0.104l-0.343,0.021l-0.239,0.187l-0.296-0.01l-0.12-0.099l0.062-0.016l0.26,0.026l0.301-0.203l0.385-0.016l0.234,0.125l0.062,0.348l0.078,0.125l0.317,0.052l0.291-0.187l0.327-0.047l0.348,0.062l0.535,0.223l0.239-0.021l0.577-0.177l0.54-0.047l0.203-0.104l0.722-0.021h0.478l0.114-0.078l0.021-0.13l-0.109-0.109l-0.01-0.156l-0.182-0.083l-0.156,0.031l-0.156-0.031l-0.068-0.197l-0.244-0.078l-0.12-0.286l-0.068-0.042l-0.109,0.016l-0.14-0.104l-0.005-0.187l-0.055-0.005l-0.055,0.097l-0.166,0.021l0.125-0.055l0.066-0.132l0.08-0.01l0.066,0.059l0.028,0.194l0.08,0.052l0.128-0.024l0.146,0.111l0.028,0.09l0.007,0.107l0.187,0.066l0.198-0.069l0.225,0.017l0.284,0.152l0.229,0.045l0.326-0.007l0.045-0.094l-0.031-0.09l0.045-0.031l0.097,0.052l0.073-0.073l-0.173-0.367l-0.17-0.284l0.024-0.156l-0.135-0.312l-0.253-0.423l0.024-0.083l-0.052-0.038l-0.142-0.049l-0.201-0.191l-0.024-0.135l0.076-0.048h0.152l-0.049,0.031l-0.087,0.014l-0.031,0.028l0.028,0.083l0.18,0.159l0.173,0.024l0.107,0.087l0.184,0.433l0.308,0.222l0.152,0.01l0.409,0.198l0.128,0.01l0.152,0.076l0.114-0.052l0.031-0.163l-0.198-0.27l-0.014-0.218l-0.076-0.104l0.007-0.066l0.08,0.062l0.059,0.1l0.024,0.211l0.187,0.253l0.125,0.042l0.121-0.076l-0.01-0.201l0.045-0.059l0.125,0.225l0.097,0.007l0.097-0.042l0.073,0.083l0.003,0.156l0.118-0.007l0.094-0.073l0.097,0.069l0.087,0.135l0.104,0.007v-0.069l-0.09-0.048l-0.121-0.243l0.045-0.156l-0.055-0.121l-0.1-0.146v-0.08l-0.062-0.042l-0.121-0.028l-0.007-0.121l-0.132-0.194l-0.114-0.021l-0.094,0.014l-0.107-0.107l0.066,0.021l0.055,0.048l0.097-0.021l0.152,0.049l0.097-0.024l0.08,0.035l0.083,0.191l0.066,0.042l0.014,0.152l0.028,0.076l0.094,0.08l0.166,0.288l0.066,0.01l0.028-0.09l-0.104-0.128l0.014-0.263l-0.038-0.17l0.069-0.069l0.083-0.045l-0.042-0.135l0.055,0.052l0.035,0.111l-0.08,0.107l-0.007,0.111l0.132,0.315l0.142,0.066l0.194,0.014l0.017-0.107l-0.087-0.263l0.017-0.09l0.031,0.035l0.014,0.066l0.094,0.017l-0.007-0.087l-0.159-0.191l-0.048-0.118l0.059-0.09l-0.014,0.094l0.055,0.118l0.09,0.094l0.024-0.049l0.017-0.18l0.132-0.052l0.062-0.142l0.017,0.073l-0.049,0.132l-0.111,0.038l-0.01,0.222l0.021,0.139l-0.038,0.062l0.007,0.062l0.087,0.083l0.107-0.003l0.031,0.052l-0.01,0.114l0.114,0.055l0.118-0.017l0.069-0.149l-0.003-0.125l0.059-0.049l-0.014,0.066l-0.003,0.249l0.055,0.139l-0.042,0.1l-0.066,0.024l0.007,0.069l0.125,0.087l0.36,0.052l0.159,0.18l0.215-0.01l0.066-0.149l-0.073-0.094l0.062,0.028l0.083,0.08l0.031,0.094l0.284,0.104l0.211,0.01l0.173-0.028l0.184,0.076l0.18,0.239l0.163,0.052l0.648-0.049l0.128,0.083l0.305-0.007l0.118-0.094l0.104,0.062l-0.038,0.031l-0.066-0.003l-0.007,0.083l0.308,0.236l0.232,0.007l0.395,0.066l0.229,0.142l0.087,0.288l0.246,0.225l0.111,0.031l0.173,0.139l0.017,0.166l0.09,0.118v0.201l0.326,0.62l0.187,0.09l0.433,0.509l0.146,0.281l0.121,0.059l-0.059,0.104l-0.101,0.055l0.038,0.301l0.25,0.288l0.627,0.142l0.409,0.301l-0.062,0.284l0.073,0.191l0.243,0.038l0.059,0.09l0.021,0.301l0.229,0.281l0.149,0.055l0.017-0.066l-0.083-0.121l0.125-0.014l0.09,0.132l-0.01,0.107l0.128,0.014l0.208,0.163l0.059-0.038l-0.045-0.097l0.055-0.031l0.218,0.152l0.024,0.118l0.25,0.267l0.107,0.229l0.229,0.201l0.128,0.288v0.197l0.222,0.204l0.035,0.104l0.229,0.173l0.222,0.069l0.042,0.263h0.076l0.146-0.125l0.277,0.021l0.104-0.076l0.062,0.076l0.007,0.132l0.159,0.035l0.083,0.166l0.166,0.021l0.139-0.062l0.277-0.021l0.173-0.146l0.236,0.021l0.326,0.146l0.423,0.284h0.083l0.402-0.139l0.312,0.021l0.215-0.146l0.118,0.042l-0.021,0.152l0.083,0.132l0.236,0.042h0.346l0.173,0.159l0.104-0.014l0.25-0.166l0.416,0.035l0.575,0.263l0.187-0.111l0.263,0.18l0.367,0.09l0.353-0.035l0.423,0.007l0.443,0.208l0.159,0.319l0.09-0.021l0.028-0.173l0.104-0.007l0.187,0.097l0.097-0.028l0.194,0.062l-0.056,0.042l-0.125-0.021l-0.118,0.146l-0.256-0.014l-0.173,0.042l-0.118,0.055l0.014,0.076l0.429,0.146l0.561,0.27l0.492,0.069l0.215-0.132l0.09,0.035l0.021,0.083l0.18-0.007l0.215-0.215l0.173-0.028l0.111,0.045l0.088-0.01l0.177-0.172l0.156,0.005l0.12-0.104l-0.109-0.27l-0.161-0.062l-0.177-0.016l-0.566-0.223l-0.27-0.021l-0.036-0.094l0.109-0.203l0.218-0.047l0.572,0.156l0.244-0.01l0.317-0.166l0.156-0.01l0.405-0.27H1196.593L1196.593,488.628z M1196.084,489.98l-0.088,0.057l0.094,0.094l0.151,0.036l0.01-0.062l-0.083-0.042L1196.084,489.98L1196.084,489.98z M1172.647,478.277l-0.062,0.017l0.014,0.052l0.087,0.1l0.004,0.104l0.055,0.024l0.059-0.014v-0.045l-0.045-0.045l-0.066-0.17L1172.647,478.277L1172.647,478.277z M1169.705,480.314l-0.112,0.044l-0.026,0.044l0.07,0.122l0.109,0.029l0.14-0.023l0.205,0.075l0.039-0.023l-0.099-0.148l-0.148-0.083L1169.705,480.314L1169.705,480.314z M1172.072,479.344l-0.097-0.017l-0.042,0.003l-0.007,0.052l0.003,0.09l0.094,0.066l0.166-0.042l0.045-0.055l-0.083-0.104L1172.072,479.344L1172.072,479.344z M1170.343,478.62l-0.031,0.042l0.08,0.142l0.042,0.01v-0.062l-0.038-0.107L1170.343,478.62L1170.343,478.62z M1182.513,485.708l-0.028-0.01l-0.024,0.052l0.031,0.024l0.031-0.024L1182.513,485.708L1182.513,485.708z M1180.539,483.189l0.007,0.062l0.076,0.121l0.055-0.045l-0.069-0.104L1180.539,483.189L1180.539,483.189z M1195.838,490.104l-0.024,0.035l0.08,0.083l0.052-0.021l-0.021-0.048L1195.838,490.104L1195.838,490.104z M1192.827,489.581l0.007,0.09l0.09,0.049l0.069-0.069l-0.083-0.076L1192.827,489.581L1192.827,489.581z M1182.541,485.867l-0.024,0.031l0.104,0.031l0.045-0.021l0.003-0.031l-0.042,0.017L1182.541,485.867L1182.541,485.867z"/>
</svg>
