<svg xmlns="http://www.w3.org/2000/svg" viewBox="606.029 284.411 12.265 22.634">
  <path d="M606.029,296.572l0.005-0.018l0.025-0.011l0.021,0.005l-0.01,0.018l-0.022,0.012L606.029,296.572z M607.947,298.969l0.031-0.017l-0.003-0.033l-0.026-0.042l-0.04,0.01l-0.033,0.054l0.01,0.033L607.947,298.969z M607.71,299.104l0.031-0.019l0.035-0.033l0.024-0.064l-0.016-0.005l-0.069,0.057l-0.03,0.054L607.71,299.104z M607.911,298.832l0.012,0.006l0.024-0.071l0.004-0.04l-0.011-0.007l-0.018,0.032L607.911,298.832z M608.784,285.488l0.106-0.085l0.021-0.111l0.048-0.068l0.199-0.089l0.073-0.062l0.02-0.127l0.068-0.076l0.137-0.037l0.088,0.029l0.15-0.038l0.065-0.078l0.221-0.031l0.116,0.043l0.149-0.013l0.045-0.053l0.046-0.01l0.067,0.028l0.063-0.018l0.083-0.086l0.19-0.113l0.09-0.006l0.062-0.067l0.032-0.009l0.022,0.056l-0.014,0.13l0.021,0.191l0.045,0.019l0.103-0.068l0.056,0.014l0.067-0.026l0.084,0.045l0.04,0.077l-0.002,0.161l-0.052,0.047l-0.113,0.014l-0.035,0.025l-0.012,0.059l-0.033,0.024h-0.059l-0.024,0.023l-0.006,0.069l-0.159,0.221l-0.002,0.059l0.04,0.021l0.028,0.033l0.003,0.053l0.031,0.016l0.078-0.019l0.027,0.038l-0.009,0.223l0.128,0.05l0.167-0.012l0.122-0.042l0.048-0.043l0.093-0.021l0.02-0.066l0.094-0.111l0.08-0.011l0.052,0.016l0.07-0.019l0.078-0.221l0.062,0.01l0.011,0.209l-0.014,0.075l0.045,0.055l0.03-0.001l0.08-0.061l0.034-0.084l0.186-0.01l0.059-0.066h0.051l0.036,0.036l0.045-0.003l0.073-0.071l0.06,0.003l0.156,0.117l0.108,0.012l0.128-0.026l0.031,0.029l-0.069,0.07l-0.057,0.133l0.022,0.025l0.059-0.018l0.094,0.011l0.21-0.078l0.012-0.03l-0.02-0.05l0.05-0.03l0.061,0.035l0.094-0.012l0.041,0.031l-0.01,0.073l0.071,0.049l-0.007,0.093l0.037,0.02l0.085-0.073l0.033-0.094l0.078-0.03l0.061,0.033l0.138,0.003l0.219-0.115l0.101-0.005l0.115-0.06l0.068-0.162l-0.024-0.122l-0.002-0.145l0.045-0.023l0.031,0.013l0.042-0.004l0.017-0.049l0.061-0.005l0.15,0.07l0.071,0.1l0.224,0.007l0.07-0.084l0.107-0.005l0.086,0.107l0.188,0.028l0.046-0.025l0.049-0.003l0.074,0.017l0.068-0.012l0.056-0.111l-0.013-0.087l0.155,0.029l0.064,0.171l0.101,0.038l0.139,0.01l0.276-0.036l0.089-0.103l0.141,0.089l0.014,0.063l-0.084,0.213l0.184,0.04l0.011,0.03l-0.037,0.062l-0.024,0.172l-0.09,0.277l-0.039,0.022l-0.005,0.037l0.052,0.034l0.045,0.155l-0.013,0.016l-0.033-0.009l-0.007,0.029l0.048,0.061l0.146,0.101l0.07,0.002l0.095-0.044l0.018-0.06l0.036-0.013l0.05,0.019l0.195,0.019l0.101-0.005l0.194,0.066l0.15,0.11l0.08,0.134l0.121,0.043l0.038,0.091l-0.079,0.086l-0.035,0.099l-0.301,0.388l0.021,0.087l-0.055,0.062l-0.056,0.009l-0.01,0.033l0.048,0.043l-0.001,0.058l-0.112,0.026l-0.092-0.045l-0.064,0.027l0.003,0.058l0.042,0.036l-0.007,0.047l-0.123,0.016l-0.038,0.055l0.019,0.059l-0.118,0.11l-0.065-0.002l-0.064,0.033l0.012,0.085l-0.087,0.042l-0.029-0.047h-0.037l-0.1,0.123l-0.261-0.003l-0.122,0.049l-0.115,0.124l-0.081,0.159l-0.214,0.169l-0.01,0.055l0.052,0.104l-0.115,0.201l-0.133,0.109l-0.206,0.008l-0.106-0.039l-0.079,0.039l0.006,0.081l0.271,0.289l0.026,0.198l0.14,0.102l0.029,0.135l-0.078,0.032l-0.011,0.041l0.037,0.099l-0.003,0.079l-0.039,0.051l0.002,0.179l0.063,0.134l0.048,0.241l-0.078,0.207l-0.08,0.076l0.004,0.105l0.128,0.059l0.018,0.194l-0.188,0.223l0.049,0.222l0.19,0.175l0.002,0.042l-0.03,0.035v0.1l-0.042,0.032l-0.081,0.019l-0.126,0.091l0.003,0.114l-0.052,0.064l-0.116,0.023l-0.073-0.024l-0.082,0.01l-0.045,0.083l-0.045,0.007l-0.052-0.014l-0.091,0.06l-0.019,0.118l-0.042,0.048l0.003,0.031l0.039,0.032l0.021,0.177l0.087,0.066l0.139,0.016l0.087,0.064l0.05,0.13l0.08,0.068l0.076,0.167l0.004,0.085l-0.05,0.116v0.12l-0.016,0.044l-0.047,0.015l-0.016,0.051l0.03,0.073l-0.011,0.118l-0.034,0.057l-0.065,0.033l-0.062,0.104l-0.096,0.03l-0.062,0.085l0.038,0.146l-0.035,0.037l-0.024,0.121l0.014,0.031l-0.031,0.066l-0.054,0.172l-0.176,0.06l-0.092-0.023l-0.135-0.002l-0.091,0.044l-0.2-0.037l-0.074,0.005l-0.106-0.024l-0.078,0.005l-0.216,0.105h-0.043l-0.113-0.039l-0.035-0.001l-0.066,0.019l-0.064-0.007l-0.115-0.054l-0.297-0.035l-0.044,0.005v0.018l0.051,0.032v0.105l0.063,0.065l0.062,0.126l0.078,0.031l0.073,0.068l0.024,0.077l0.062,0.04l0.098,0.003l0.051,0.038l0.009,0.145l0.079,0.047l0.063-0.007l0.183,0.098v0.034l-0.035,0.031l-0.004,0.061l0.024,0.045l-0.006,0.055l-0.076,0.1l0.001,0.033l0.046,0.037l0.021,0.093l-0.017,0.032v0.025l0.142,0.108l0.011,0.047l0.135,0.095l-0.055,0.107l0.018,0.062l-0.001,0.13l0.074,0.079l0.316,0.088l0.014,0.055l-0.056,0.158l0.016,0.063l0.128,0.038l0.064-0.039l0.143-0.043l0.091,0.006l0.187,0.128l0.073,0.139l-0.03,0.073l0.049,0.063l-0.049,0.062l-0.071,0.136l-0.136,0.167l-0.029,0.083l-0.078,0.054l0.061,0.123l-0.018,0.059l-0.106,0.049l-0.073,0.137l-0.04,0.026l-0.102-0.001l-0.108,0.09l-0.04,0.068l-0.104,0.057l-0.014,0.042l-0.115,0.083l-0.061,0.007l-0.052,0.056l-0.028,0.102l-0.017,0.252l0.023,0.047l0.064,0.007l0.014,0.033l-0.056,0.052l-0.024,0.084l-0.133,0.192l-0.079,0.263l0.03,0.019l0.049-0.018l0.024,0.028l-0.133,0.131l0.007,0.031l0.06,0.008l0.131,0.075l0.028,0.115l0.25,0.266l0.126,0.195l0.065,0.029l0.026,0.068v0.073l0.148,0.255l0.079,0.039l0.208-0.049l0.07-0.079l0.225-0.062l0.049,0.047l-0.034,0.062l-0.06,0.039l-0.036,0.084l0.031,0.07l-0.047,0.175l-0.062,0.047l-0.003,0.177l-0.039,0.034l-0.024,0.101l-0.078-0.005l-0.075,0.034l-0.052-0.013l-0.042-0.065l-0.097-0.037l-0.109,0.055l0.01,0.084l-0.027,0.035l-0.125,0.037l-0.085-0.037l-0.064,0.005l-0.059,0.047l-0.071-0.003l-0.075,0.042l-0.002,0.038l0.043,0.042l-0.03,0.159l-0.074,0.121l-0.008,0.095l-0.143,0.227l-0.175,0.115l-0.111,0.111l-0.049,0.004l-0.042,0.043l-0.117,0.438l-0.052,0.047l-0.073,0.146l-0.06,0.002l-0.011,0.029l0.034,0.031l-0.036,0.12l-0.05,0.024l0.021,0.127l0.073,0.029l0.099,0.123l0.042,0.161v0.11l0.047,0.028v0.032l-0.06,0.015v0.031l0.075,0.047l0.021,0.165l-0.028,0.031l0.002,0.141l0.077,0.151v0.048l-0.038,0.032l0.001,0.052l0.07,0.071l0.017,0.167l0.054,0.087l-0.097-0.035l-0.094-0.005l-0.201,0.031l-0.323,0.151l-0.128,0.115l-0.445,0.258l-0.193,0.164l-0.29,0.18l-0.062,0.01l-0.169-0.049l-0.086-0.076l-0.165-0.112l-0.385-0.221l-0.261-0.086l-0.221,0.005l-0.162,0.062l-0.09-0.008l-0.08-0.062l-0.101-0.032h-0.082l-0.086,0.044l-0.176,0.003l-0.12-0.053l-0.273-0.08l-0.227-0.015l-0.094,0.016l-0.091,0.08l-0.003,0.074l-0.023,0.007l-0.036-0.021l-0.134-0.007l-0.17,0.056l-0.047,0.03l-0.059,0.012l-0.099-0.002l-0.106,0.033l-0.042,0.047l-0.027,0.006l-0.044-0.006l-0.049,0.012l-0.041,0.077l-0.12,0.088l-0.042-0.003l-0.037-0.061l-0.046-0.03h-0.061l-0.004-0.027l0.091-0.16l0.012-0.065l0.021-0.04l0.07-0.061l0.107-0.201l0.005-0.049l-0.023-0.032l-0.003-0.065l0.044-0.039l0.115-0.172l0.031-0.125l-0.047-0.125l-0.002-0.065l0.096-0.123l0.128-0.24l0.057-0.198l0.039-0.336l-0.015-0.107l-0.084-0.125l-0.005-0.109l0.099-0.415l-0.01-0.08l-0.058-0.052l-0.007-0.037l0.013-0.117l0.054-0.235l-0.018-0.302l-0.06-0.115l-0.175-0.078l-0.072-0.013l-0.032-0.029l0.003-0.036l0.06-0.026l0.148-0.266l0.136-0.361l0.057-0.364v-0.364l-0.083-0.355l-0.157-0.276l-0.198-0.146l-0.019-0.066l0.025-0.017l0.239,0.182l0.094,0.165l0.025-0.007l0.017-0.031l-0.037-0.064l0.02-0.016l0.09,0.104l0.059,0.011l0.059-0.039l0.252,0.039l0.042-0.021l-0.193-0.131l-0.026-0.057l0.01-0.151l-0.057-0.198l-0.052-0.031l-0.12,0.052l-0.026,0.057l0.088,0.104l-0.057,0.078l-0.068,0.011l-0.29-0.172l-0.073-0.004l-0.076,0.049l-0.049,0.077l-0.059,0.034l-0.097,0.004l-0.278,0.177l-0.077,0.021l-0.121-0.018l-0.244,0.042l-0.097,0.073h-0.08l-0.01-0.035l0.111-0.219l0.017-0.215l-0.034-0.177l-0.091-0.221l-0.122-0.182l0.002-0.037l0.047-0.047l0.201-0.015l0.12-0.034l0.028,0.008l-0.007,0.052l0.041,0.057l0.162,0.065l0.078,0.052l0.044,0.097l0.034,0.021l-0.031-0.125l-0.076-0.081v-0.045l0.045-0.046l0.049-0.008l0.068,0.034l0.078-0.011l0.029-0.057l0.094-0.031l0.002-0.034l-0.081-0.013l-0.169,0.034l-0.013-0.019l0.034-0.07l0.089-0.055l0.112-0.088l0.151-0.066l0.049-0.088l-0.015-0.094l-0.162-0.143l-0.013-0.052l0.018-0.032v-0.044l-0.041-0.047l-0.008-0.047l0.015-0.06v-0.094l0.029-0.08l0.117-0.086l0.045-0.068l0.023-0.12l0.055-0.055l0.112-0.023l0.115,0.015l0.132-0.002l0.04-0.065l0.002-0.047l-0.057,0.075l-0.115,0.003l-0.109-0.026l-0.141,0.036l-0.078,0.076l-0.018,0.117l-0.027,0.042l-0.122,0.099l-0.086,0.133l-0.029,0.109l-0.044,0.099l-0.136,0.099l-0.062,0.131l-0.018,0.112l-0.026,0.219l-0.086,0.127l-0.136,0.058l-0.219,0.034l-0.122-0.032l-0.086,0.003l-0.091,0.034l-0.079,0.057l-0.065,0.003l-0.219-0.102l-0.075,0.008l-0.021,0.031l-0.029,0.005l-0.128-0.013l-0.083-0.054l-0.005-0.047l0.047-0.079v-0.075l-0.084-0.078l-0.005-0.065l0.164-0.311l0.131-0.328l0.002-0.12l-0.023-0.138v-0.135l0.023-0.058l0.005-0.088l-0.013-0.053l0.011-0.07l0.198-0.328l0.083-0.266l0.019-0.24l-0.04-0.117l-0.044-0.073l-0.013-0.076l-0.052-0.036l-0.06-0.003l-0.06-0.023l-0.008-0.034l0.021-0.029l0.068-0.01l0.068,0.029l0.07,0.002l0.211-0.102l0.206-0.166l0.039,0.023l0.034,0.057v0.045l0.029,0.015l0.036-0.026l-0.021-0.073l-0.062-0.039l-0.021-0.031l0.184-0.257l0.09-0.058l0.044,0.007l0.018-0.02l-0.016-0.037l0.222-0.279l0.01-0.057l-0.018-0.096l0.109-0.329l0.021-0.142l0.326-0.765l0.341-0.91l0.007-0.115l-0.025-0.08l-0.125-0.111l-0.003-0.069l0.233-0.596l0.341-1.126l0.037-0.243l-0.011-0.054l0.292-1.014l0.094-0.456l0.01-0.224l-0.039-0.107l-0.005-0.18l-0.13-0.374l-0.059-0.043l-0.065-0.228l0.002-0.119l-0.064-0.308l-0.15-0.327l-0.008-0.066l0.038-0.159l0.002-0.103l-0.042-0.073l-0.014-0.233l-0.052-0.242l-0.057-0.125l-0.009-0.128l-0.011-0.061l-0.081-0.074l-0.092-0.171l-0.016-0.161l0.033-0.172l0.004-0.051l-0.021-0.04l-0.004-0.054l0.04-0.137l0.167-0.17l0.132-0.068L608.784,285.488z"/>
</svg>
