<svg xmlns="http://www.w3.org/2000/svg" viewBox="602.139 284.468 12.126 22.466">
  <path d="M602.193,296.505l-0.029,0.023l-0.025-0.014l0.011-0.034l0.037-0.004L602.193,296.505z M608.311,306.696l-0.068,0.04v0.035l0.08-0.024l0.062-0.042l-0.009-0.023L608.311,306.696z M608.278,306.804l-0.085,0.052l-0.005,0.035l0.19-0.1l0.007-0.028l-0.049-0.002L608.278,306.804z M609.664,304.649l-0.124-0.147l-0.004-0.235l0.274-0.754l0.471-0.381l0.125-0.561l0.166-0.104l0.277,0.028l0.042-0.132l0.118-0.062l0.187,0.125l0.146-0.028l0.062-0.305l0.139-0.215l-0.035-0.104l0.111-0.118l-0.062-0.118l-0.45,0.215l-0.132-0.042l-0.125-0.367l-0.111-0.021l-0.381-0.603l-0.152-0.083l0.014-0.312l0.222-0.478l-0.062-0.104l0.035-0.319l0.173-0.062l0.305-0.34l0.139-0.021l0.201-0.194l-0.055-0.152l0.367-0.478l-0.062-0.09l0.028-0.104l-0.263-0.242l-0.222,0.076l-0.152-0.028l-0.014-0.27l-0.236-0.062l-0.139-0.125l0.021-0.291l-0.242-0.208l-0.076-0.27l0.062-0.19l-0.02-0.108l-0.693-0.554l-0.125-0.208l0.035-0.111l0.236-0.007l0.18,0.076l0.284,0.014l0.166-0.055l0.305-0.028l0.222,0.049l0.492-0.083l0.104-0.353v-0.173l0.083-0.187l0.18-0.152l0.076-0.464l0.076-0.132l-0.249-0.443h-0.215l-0.097-0.139l-0.028-0.288l0.284-0.177l0.17-0.017l0.142-0.087l0.028-0.114l0.225-0.121l0.047-0.146l-0.254-0.36l0.135-0.253l0.087-0.042l-0.031-0.177l-0.149-0.073l0.149-0.405l-0.107-0.319l-0.007-0.464l0.114-0.038l-0.01-0.149l-0.168-0.092l-0.015-0.16l-0.018-0.019l-0.232-0.251l-0.017-0.125l0.483-0.055l0.127-0.27l-0.031-0.107l0.026-0.083l0.205-0.138l0.076-0.179l0.156-0.13l0.236,0.016l0.316-0.136l0.337-0.375l0.047-0.114l0.211-0.055l0.134-0.32l0.292-0.364l0.015-0.161l-0.269-0.276l-0.634-0.145l-0.156,0.062l-0.203-0.104l-0.031-0.213l0.172-0.572l-0.183-0.119l0.083-0.179l-0.179-0.124l-0.152,0.138l-0.4-0.028l-0.097-0.179l-0.152-0.014l-0.097,0.207l-0.363-0.03l-0.076-0.128h-0.118l-0.09,0.106l-0.209-0.017l-0.179-0.124l-0.248,0.014l-0.014,0.193l0.056,0.119l-0.143,0.143l-0.444,0.151l-0.081-0.042l-0.062,0.023l-0.073,0.093l-0.109,0.037l-0.086-0.224l-0.221-0.008l-0.018,0.107l-0.281,0.068l-0.07-0.023l0.107-0.159l-0.036-0.065l-0.21,0.01l-0.164-0.096l-0.496,0.081l-0.036,0.101l-0.172,0.084l0.008-0.365l-0.094-0.018l-0.055,0.213l-0.203,0.042l-0.213,0.268l-0.468,0.01l0.005-0.275l-0.14-0.026l-0.029-0.165l0.206-0.303l0.291-0.234l-0.156-0.184l-0.177,0.044l-0.094-0.066l0.035-0.269l-0.073-0.039l-0.512,0.312l-0.67,0.031l-0.535,0.218l-0.021,0.135l-0.322,0.172l-0.01,0.112l-0.161,0.078l-0.062,0.109l-0.138,0.073l-0.063,0.12l-0.007,0.469l0.267,0.684l0.097,0.457l-0.043,0.263l0.016,0.092l0.146,0.338l0.111,0.66l0.071,0.035l0.066,0.102l0.106-0.003l0.087,0.033l-0.09-0.005l-0.057,0.016l-0.016,0.047l0.036,0.146l0.036,0.348l-0.039,0.426l-0.255,0.844l-0.075,0.322l0.07-0.021l0.052-0.07l0.013-0.109l0.06-0.104l-0.003-0.179l0.06-0.088l0.052-0.044l-0.044,0.096l0.031,0.247l0.083,0.179l-0.039,0.096l-0.099,0.052l-0.044-0.047l-0.07-0.01l-0.039,0.029l-0.083,0.031l-0.057,0.444l-0.506,1.528l0.028,0.081l0.118,0.111l0.017,0.083l-0.525,1.364l-0.088,0.138l-0.2,0.681l0.008,0.133l-0.062,0.13l-0.396,0.446l-0.072,0.116l0.017,0.025l0.052,0.022l0.035,0.077l-0.032,0.05l-0.037,0.011l0.026-0.055l-0.048-0.079l-0.043-0.017l-0.277,0.202l-0.094,0.015l-0.041,0.048l-0.032-0.001l-0.047-0.045l-0.13-0.021l-0.044,0.06l0.07,0.055l0.096,0.016l0.06,0.039l0.039,0.203l-0.031,0.336l-0.298,0.658l0.021,0.537l-0.042,0.197l-0.236,0.416l-0.007,0.066l0.062,0.121l0.024,0.073l-0.059,0.042l0.01,0.118l0.249,0.055l0.114-0.031l0.204,0.083l0.055,0.007l0.135-0.094l0.246,0.007l0.308-0.066l0.156-0.19l0.003-0.263l0.211-0.319l0.152-0.312l0.118-0.028l-0.118,0.201l-0.017,0.201l0.09,0.201l0.121,0.118l-0.021,0.156l-0.353,0.194l-0.263,0.353l-0.097-0.045l-0.052-0.166l-0.315,0.059l-0.052,0.076l0.159,0.191l0.087,0.329l-0.017,0.236l-0.107,0.267l0.104,0.021l0.104-0.076l0.426-0.066l0.346-0.142l0.187-0.149l0.312,0.111l0.159-0.031l0.024-0.052l-0.135-0.104l0.107-0.09l0.121-0.021l0.087,0.426l0.031,0.066l0.156,0.076l-0.035,0.045l-0.395-0.01l-0.177-0.139l-0.229-0.152l-0.007,0.083l0.298,0.319l0.102,0.343l0.021,0.598l-0.234,0.696l-0.177,0.114l-0.005,0.109l0.281,0.104l0.062,0.109l-0.01,0.462l0.064,0.353l-0.095,0.348l0.01,0.146l0.052,0.166l-0.009,0.366l-0.126,0.456l-0.12,0.109l-0.026,0.068l0.021,0.149l-0.156,0.5l-0.296,0.463v0.073l0.073,0.031l0.062,0.073l0.104,0.01l0.104-0.13l0.223-0.104l0.369-0.099l0.192,0.042l0.036-0.031l0.031-0.099l0.177-0.073l0.322,0.036l0.364,0.114l0.203-0.036l0.077,0.007l0.146,0.061l0.135,0.005l0.244-0.036l0.192,0.01l0.322,0.126l0.434,0.305l0.151,0.068l0.129,0.003l0.018-0.026l0.001-0.055l0.057-0.047v-0.074l0.087-0.057l0.085-0.011l0.048,0.053l0.039-0.003l0.597-0.398l0.506-0.249l0.336-0.132l-0.159-0.534L609.664,304.649z M605.199,291.004l0.023-0.052l-0.047-0.109l-0.031-0.003l-0.039,0.081l-0.013,0.127l0.034,0.003L605.199,291.004z M603.913,298.881l-0.055,0.017l-0.111,0.18l0.031,0.01l0.087-0.069L603.913,298.881z"/>
</svg>
