<svg xmlns="http://www.w3.org/2000/svg" viewBox="1213.794 474.948 43.392 19.875">
  <path d="M1255.658,493.825l0.125-0.156l0.385,0.094l0.021,0.197l0.239,0.073v0.146l-0.362,0.036l-0.345-0.179L1255.658,493.825z M1256.261,493.898l0.114,0.031l0.114-0.083l-0.114-0.073l-0.094,0.042L1256.261,493.898z M1254.515,492.547l0.156,0.094l0.146-0.031l0.062-0.249l-0.198-0.114l-0.166,0.083V492.547z M1251.823,490.53v0.218l0.177,0.114l0.291,0.01l0.229-0.27l0.208-0.042l0.218,0.052l0.312-0.312l-0.114-0.135l-0.624-0.052l-0.343,0.177l-0.052,0.218l-0.094,0.01l-0.125-0.062L1251.823,490.53z M1252.894,490.832l0.146-0.01l0.042-0.114l-0.094-0.021l-0.156,0.073L1252.894,490.832z M1251.958,489.242l0.114-0.021l0.01-0.114l-0.083-0.042l-0.104,0.104L1251.958,489.242z M1253.871,488.691l0.062-0.146l-0.114-0.073l-0.021,0.249L1253.871,488.691z M1253.964,488.836l0.094-0.042l0.052-0.114l-0.156,0.031l-0.062,0.104L1253.964,488.836z M1257.176,487.34l0.01-0.135l-0.094-0.083l-0.062,0.094L1257.176,487.34z M1215.789,475.758l0.062-0.097l-0.118-0.048l-0.09,0.076l0.055,0.097L1215.789,475.758z M1215.976,475.294l0.097,0.042l0.104-0.028l-0.194-0.146l-0.035,0.076L1215.976,475.294z M1215.2,476.444l0.111,0.048l0.069-0.152l-0.062-0.055l-0.035,0.076L1215.2,476.444z M1214.792,476.894l0.353-0.083l0.062-0.173l-0.104-0.132l-0.187-0.007l-0.18-0.201l-0.187,0.083l0.048,0.146l-0.104,0.159l0.007,0.139L1214.792,476.894z M1214.12,477.968l0.152-0.111l-0.048-0.139l-0.284-0.035l-0.146,0.062l0.014,0.146L1214.12,477.968z M1213.96,478.058l0.132,0.028l0.069-0.048l-0.208-0.049L1213.96,478.058z M1215.173,476.964l0.111-0.049l0.035-0.111l-0.069-0.042l-0.035,0.09l-0.194,0.048l0.007,0.069L1215.173,476.964z M1215.963,475.689l-0.166,0.152l0.111,0.201l-0.062,0.083l0.014,0.139l-0.083,0.097l0.035,0.076l0.076-0.014l0.028-0.083l0.083,0.021l0.125-0.152l-0.055-0.222l-0.125-0.042l-0.049-0.111l0.083-0.076L1215.963,475.689z M1216.219,475.834l0.062-0.014l-0.028-0.069l-0.076-0.028l-0.028,0.069L1216.219,475.834z M1216.198,476l0.028,0.055l0.069-0.083v-0.062l-0.069,0.021L1216.198,476z M1229.571,492.505l0.073,0.104l0.156,0.062l0.114-0.021l-0.146-0.125L1229.571,492.505z M1230.527,493.721l0.572,0.291l0.291,0.062l0.114-0.114l0.146,0.062l0.021,0.125l0.353,0.156l0.104,0.281l0.416,0.229l0.104,0.01v-0.146l0.062-0.073l0.146,0.073l0.114-0.073l-0.624-0.488l-0.54-0.166l-0.946-0.644l-0.364-0.083l-0.177,0.187L1230.527,493.721z M1236.961,488.873l0.138-0.179l-0.097-0.179l-0.166-0.014l0.028,0.276L1236.961,488.873z M1237.733,486.976l0.125,0.227l0.083-0.102l-0.062-0.222l0.007-0.229h-0.111l-0.055,0.13L1237.733,486.976z M1239.652,490.946l0.083-0.094l-0.042-0.114l-0.114,0.021v0.114L1239.652,490.946z M1239.59,491.123l0.073-0.083l-0.125-0.031l-0.042,0.073L1239.59,491.123z M1237.73,488.608l0.104,0.135l0.042-0.104l-0.073-0.094L1237.73,488.608z M1235.464,489.013l0.291-0.021l0.239,0.135l0.01,0.291l0.146,0.125l-0.021,0.281l0.894,0.613l0.644,0.281l0.114-0.052l0.146,0.021l0.094,0.12l0.291,0.073l0.187,0.005l0.109-0.078l0.146,0.016l0.088,0.073l0.473,0.016l0.005-0.073l-0.385-0.057l-0.052-0.052l0.094-0.114l-0.042-0.291l-0.146-0.021l-0.104-0.083l-0.031-0.177l-0.395-0.572l-0.177-0.021l-0.01,0.156l-0.218-0.031l-0.031-0.135l-0.27-0.094l-0.239,0.052l-0.894-0.478l-0.156-0.197l-0.696-0.343l-0.312,0.114l-0.042,0.478L1235.464,489.013z M1232.696,479.776l0.097,0.152l0.11-0.055l-0.083-0.193L1232.696,479.776z M1233.396,481.343l0.135,0.146l0.042-0.104l-0.094-0.094L1233.396,481.343z M1229.673,484.428l0.097,0.124l0.166-0.041l-0.028-0.166l-0.138-0.028L1229.673,484.428z M1231.379,484.627l0.125,0.021l0.135-0.083l0.218,0.073l0.177-0.146l-0.062-0.125l-0.166-0.042l-0.062-0.146l-0.104,0.042l0.021,0.146l-0.177,0.166h-0.146L1231.379,484.627z M1231.379,484.43l0.198-0.114v-0.177l-0.187-0.135l-0.364-0.042l-0.125,0.208l0.042,0.125l0.229-0.031L1231.379,484.43z M1230.818,484.035l0.083-0.156l-0.094-0.146l-0.083,0.052l0.052,0.104l-0.073,0.114L1230.818,484.035z M1230.423,483.598l0.229,0.01v-0.114l-0.166,0.01L1230.423,483.598z M1227.575,484.471l0.094-0.187l-0.042-0.135l-0.125,0.062l-0.135,0.249L1227.575,484.471z M1227.284,484.367l0.166-0.26l-0.135-0.156l-0.166-0.031l-0.104,0.229l-0.135,0.042l0.042,0.104L1227.284,484.367z M1223.574,482.964l-0.01,0.177l0.094,0.156l0.197-0.01l0.114-0.177l-0.083-0.187l-0.146-0.042L1223.574,482.964z M1224.083,483.037l0.042,0.083l0.083-0.01l0.01-0.114L1224.083,483.037z M1217.619,479.628l0.166-0.052l-0.031-0.125h-0.114l-0.073,0.083L1217.619,479.628z M1217.671,481.343l0.073-0.156l-0.094-0.094l-0.062,0.114l-0.01,0.146L1217.671,481.343z M1218.72,480.605l0.083-0.104l-0.094-0.135l-0.177,0.01l-0.01,0.125L1218.72,480.605z M1217.65,480.127v0.27l0.146,0.281l0.01,0.197l0.146-0.052v-0.343l-0.114-0.374l-0.125-0.135l-0.135,0.042L1217.65,480.127z M1219.178,480.303l0.312,0.343l0.499,0.021l0.146-0.197l-0.021-0.561l-0.249-0.26l-0.364-0.031l-0.27,0.218L1219.178,480.303z M1220.186,482.455l0.177,0.094l0.125,0.197l0.27,0.187l0.156-0.031l-0.27-0.197v-0.249l0.146-0.094l0.125-0.301l-0.083-0.27l-0.187-0.062l-0.177,0.26l-0.177,0.073l-0.125,0.239L1220.186,482.455z M1221.048,482.839l0.031,0.135l0.322,0.073l0.125,0.114l0.26,0.052l0.062-0.114l-0.26-0.229l-0.208-0.083l-0.156,0.062L1221.048,482.839z M1218.066,479.95l0.229,0.094l0.062-0.135l0.01-0.218l0.281-0.374l-0.094-0.229l-0.27-0.01l-0.249-0.353l-0.021-0.146l-0.208-0.01l-0.197,0.156l-0.042,0.291l0.374,0.416l-0.031,0.177l0.156,0.177V479.95z M1219.469,481.083l0.146,0.052l0.062,0.166l0.208,0.208l0.083-0.094l-0.146-0.114l-0.062-0.218l-0.146-0.146l-0.146,0.042V481.083z M1222.846,483.006l0.374,0.094l0.249-0.281l-0.021-0.156l-0.135-0.052l0.021-0.114l0.208-0.083l-0.031-0.218l-0.218-0.021l-0.094,0.114l-0.073-0.031l-0.021-0.156l-0.198,0.031l-0.01,0.156l-0.249,0.146l-0.021,0.312L1222.846,483.006z M1222.42,482.403l0.146-0.166l0.156-0.218l-0.114-0.374l-0.353-0.374l-0.031-0.208l-0.239-0.094l-0.104,0.114l-0.177-0.083l-0.073-0.229l0.062-0.229l-0.083-0.26l-0.281-0.197l-0.208-0.01l-0.353,0.187l-0.218,0.551l-0.187,0.114h-0.146l-0.021,0.322l0.114,0.166l0.187,0.01l0.198-0.187l0.52-0.104l0.239,0.073l0.114,0.322l0.156,0.073l-0.073,0.083l-0.146-0.042l-0.021,0.156l0.312,0.281l0.177,0.083l0.249,0.031l0.062,0.146L1222.42,482.403z M1220.071,481.228l0.021-0.301l-0.083-0.156l-0.208,0.01l-0.031,0.156l0.166,0.249L1220.071,481.228z M1233.64,486.862l-0.031-0.047l-0.078,0.114l0.057,0.068L1233.64,486.862z M1233.676,487.137h0.083l0.052-0.073l-0.068-0.12l-0.083-0.005l0.062,0.125L1233.676,487.137z M1232.746,487.459l0.156,0.005l0.177-0.109l0.286-0.026l0.218-0.109l-0.005-0.13l-0.088-0.052l-0.047-0.166l0.047-0.057l-0.094-0.14l-0.281-0.078l-0.12-0.005l-0.057-0.068l0.016-0.156l-0.301-0.369l-0.249-0.042l-0.083-0.036l-0.125-0.197l-0.224-0.135l-0.042-0.083l-0.12-0.031l-0.166,0.062l-0.083-0.047l-0.229,0.042l-0.14-0.052l-0.166-0.01l-0.073,0.083l-0.12-0.005l-0.166-0.083l-0.088,0.01l-0.13,0.114l-0.275-0.031l-0.203-0.286l-0.083-0.026l-0.177-0.208l-0.182-0.068l-0.062-0.094l-0.13,0.016l-0.312,0.171l-0.042,0.177l0.073,0.249l-0.062,0.088l0.083,0.208l-0.099,0.026l0.031,0.12l0.156,0.109l0.109,0.218l-0.047,0.078l0.021,0.052l0.104,0.005l0.088,0.13l-0.031,0.099l0.047,0.042h0.125l0.151,0.187l0.198,0.094l0.177-0.052l0.39,0.114l0.27,0.036l0.634-0.057l0.374,0.026l0.197,0.135l0.094,0.14l0.073,0.016l0.203-0.016l0.213,0.114L1232.746,487.459z M1232.06,487.438l0.083,0.005l0.036-0.036l-0.146-0.01L1232.06,487.438z M1232.757,485.81l0.052-0.014l-0.036-0.042h-0.078l-0.005,0.042L1232.757,485.81z M1223.619,477.989l0.042-0.139l-0.062-0.042l-0.062,0.028l0.035,0.125L1223.619,477.989z M1223.044,478.211h0.076l-0.049-0.132l-0.076-0.014l-0.042,0.062L1223.044,478.211z M1222.628,478.315l0.049-0.062l-0.042-0.055l-0.055,0.021l-0.028,0.076L1222.628,478.315z M1222.164,478.252h0.215l0.042-0.09l-0.021-0.146l-0.159-0.083l-0.173,0.097l0.007,0.111L1222.164,478.252z M1221.513,478.121l0.201,0.014l0.069-0.09l-0.076-0.083l-0.187,0.021l-0.18-0.048l-0.055,0.069L1221.513,478.121z M1221.464,477.892l0.055-0.055l-0.062-0.236l-0.118-0.069l-0.312,0.118l-0.27-0.076l-0.187-0.152l-0.036-0.132l-0.14-0.083l-0.301-0.078l-0.222-0.262l-0.08-0.419l0.016-0.083l-0.348-0.298l-0.094-0.017l-0.187-0.166l-0.187-0.028l-0.201-0.118l-0.132-0.111l-0.381-0.111l-0.104-0.069l-0.007-0.097l-0.152-0.166l-0.208-0.035l-0.256-0.201l-0.249,0.035l-0.18,0.159l0.007,0.083l0.069,0.069l0.007,0.166l0.346,0.222l0.083,0.152l0.291,0.187h0.118l0.125,0.118l0.104,0.208l0.388,0.402l0.25,0.333l0.256,0.187l0.256,0.118l-0.014,0.166l0.083,0.007l0.09-0.076l0.166,0.097l0.007,0.159l0.111,0.021l0.222-0.028l0.215,0.09l0.284-0.111l0.021,0.069l-0.035,0.125l0.159,0.076l0.423,0.021l0.146-0.139L1221.464,477.892z M1224.083,478.313l0.151,0.036l0.198,0.156l0.182,0.036l0.042-0.031v-0.109l-0.166-0.104l-0.135,0.026l-0.291-0.192l0.036-0.13l-0.109-0.068l-0.172,0.031l-0.016,0.135L1224.083,478.313z M1224.52,478.821l0.34,0.055l0.069-0.042l-0.097-0.09l0.042-0.069l0.298,0.166l0.055,0.333l0.152,0.166l0.18,0.049l0.215,0.18l0.028,0.111l0.076,0.069h0.111l0.312,0.333l0.146,0.035l0.187,0.146l0.028,0.083l0.242,0.18l0.159,0.028l0.568,0.409l0.25,0.083l0.291,0.201l0.388,0.125l0.111,0.132l0.187,0.111l0.168-0.031l0.171,0.042l0.166,0.163l0.139,0.18l0.215,0.097l0.104,0.18l0.222,0.097l0.097-0.083l-0.139-0.104l0.021-0.159l-0.173-0.146l-0.194-0.021l-0.097-0.118l0.062-0.042l0.208,0.035l0.125-0.152l-0.014-0.125l-0.374-0.284l-0.284-0.166l-0.118-0.159l-0.34-0.166l-0.076-0.146l-0.478-0.305l-0.437-0.069l-0.388-0.236l-0.125,0.035l-0.222-0.09l-0.021-0.118l-0.118-0.104l-0.158-0.005l-0.062-0.125l0.057-0.031l-0.016-0.057l-0.229-0.177h-0.161l-0.125-0.042l-0.369-0.478l-0.13-0.062l-0.083,0.036h-0.12l-0.135-0.12l-0.099-0.016l-0.068,0.094l-0.156-0.094l-0.172-0.036l-0.094-0.104l-0.094,0.026l0.01,0.177l-0.094,0.036l-0.218-0.083l-0.177,0.014l0.028,0.104L1224.52,478.821z M1225.731,478.417l-0.042-0.057l-0.088-0.01l-0.031,0.057l0.135,0.083L1225.731,478.417z M1225.881,478.588l-0.026-0.062l-0.088-0.062l-0.021,0.068l0.104,0.094L1225.881,478.588z M1225.98,478.698l0.052-0.026l-0.042-0.031l-0.042-0.068l-0.016,0.062L1225.98,478.698z M1224.79,479.021l0.097,0.014l0.028-0.062l-0.118-0.062l-0.062,0.055L1224.79,479.021z M1225.012,478.869l0.007,0.111l0.042,0.104l0.069-0.042l-0.028-0.146L1225.012,478.869z M1228.724,481.774l0.016,0.172l0.172,0.135l0.146,0.021l0.146,0.172l0.109-0.01l0.109-0.13l-0.083-0.114l-0.161-0.104l0.005-0.197l-0.166-0.068l-0.114,0.073l-0.094-0.005L1228.724,481.774z M1232.828,481.786l0.395,0.45l-0.035,0.097l-0.104-0.021l-0.132,0.146l0.055,0.256l-0.021,0.242l0.291,0.43l-0.021,0.159l0.076,0.132l-0.014,0.146l0.256,0.561l0.229,0.229l0.097-0.035l0.166,0.111l0.028,0.111l0.132,0.069l0.062,0.187l0.686,0.395l0.173,0.312l0.236,0.263l0.291,0.166l0.083-0.146l-0.132-0.201v-0.18l-0.08-0.052h-0.094l-0.218-0.395l-0.229-0.135v-0.094l0.125,0.062l0.083-0.042l-0.073-0.353l-0.353-0.676l0.021-0.146l-0.457-0.426l-0.208-0.01l-0.166-0.208l0.042-0.343l0.166-0.083l0.021-0.197l-0.333-0.457l-0.229-0.177l-0.156-0.333l-0.281-0.239l-0.146,0.007l0.007,0.076l0.083,0.028l0.035,0.097l-0.135,0.021l-0.35-0.187l-0.097,0.021l-0.01,0.125L1232.828,481.786z M1232.699,481.343l0.042-0.036l-0.073-0.057l-0.047,0.026l0.016,0.042L1232.699,481.343z M1235.688,485.646l-0.005,0.146l0.13,0.265l-0.047,0.109l0.01,0.156l0.114,0.151l0.068,0.01l0.021-0.114l0.062-0.021l0.166,0.239l0.114,0.057l0.078-0.083l-0.083-0.275l0.005-0.187l-0.312-0.333l-0.031-0.125l-0.182-0.223l-0.12-0.12l-0.088-0.016l-0.073-0.094l-0.062,0.026L1235.688,485.646z"/>
</svg>
