<svg xmlns="http://www.w3.org/2000/svg" viewBox="680.233 53.726 85.436 36.294">
  <path d="M758.398,60.002l0.571-0.423l1.436-0.497l0.313-0.221l2.466-0.515l1.325,0.184l0.442,0.35l0.626,0.184l0.092,0.276l-0.442,0.552l-2.798,0.405l-1.031-0.037l-1.675,0.571l-1.104,0.037l-0.405-0.387L758.398,60.002z M733.864,89.873l0.11,0.147l0.184-0.147l0.166-0.387l0.405-0.202l0.46-0.442l0.92-0.718l-0.018-0.11l-0.368,0.092l-1.012,0.865l-0.331,0.202l-0.387,0.368L733.864,89.873z M744.797,60.186l0.331,0.515l0.699,0.147l0.479-0.294l-0.037-0.331l-0.847-0.258L744.797,60.186z M739.57,72.554l1.141,0.589l0.92-0.074l0.11-0.294l-0.626-0.221l-1.178-0.883l-0.442,0.074l-0.147,0.368L739.57,72.554z M744.723,71.377l0.221,0.331l0.773,0.074l1.509-0.589l1.325-0.074l1.252,0.479l0.442-0.037l0.368-0.258l0.92-0.11l0.074-0.294h-0.552l-0.883,0.184l-0.883-0.074l-0.626-0.368l-1.546-0.074l-0.589,0.294l-0.589,0.037l-0.515,0.405L744.723,71.377z M753.226,70.162l-0.037,0.331l0.442,0.037l0.883-0.294l-0.405-0.147L753.226,70.162z M681.668,73.604l0.442,0.994l0.607,0.331l0.939,0.055l1.339,1.035l0.041,0.29l0.456,0.387l0.787,0.097l0.083-0.262l-0.925-1.229v-0.304l-0.11-0.11l-0.69-0.055l-1.008-0.718l-0.801-0.676l-0.11-0.883l-0.552-0.828l-1.215-0.497l-0.718,0.11v0.883L681.668,73.604z M716.287,70.042l0.607,0.193l1.16-0.166l0.414-0.235l-0.028-0.207l-0.607-0.262l-1.339-0.041l-0.4,0.276L716.287,70.042z M695.14,61.346l0.442-0.166v-0.331h-0.497l-0.276,0.276L695.14,61.346z M708.613,58.567l1.031,0.442l0.902-0.202l0.069-0.483l-1.173-0.511l-0.607,0.221L708.613,58.567z M715.363,67.309l0.621,0.138l0.138-0.138l-1.077-0.538h-0.442l-0.331,0.152l-0.014,0.373l0.194,0.108L715.363,67.309z M715.307,68.22l0.248,0.124l0.525-0.124l-0.083-0.4l-0.235-0.083l-0.331,0.124L715.307,68.22z M717.571,74.97l0.414,0.359l0.29,0.87l-0.221,0.635l0.193,0.083l0.525-0.221l0.773,0.083l2.374-0.386l1.132,0.083l0.525-0.221l0.331-0.883l-0.994-1.546l-0.828-0.166l-0.386,0.386h-0.607l-0.607-0.607h-0.663l-0.373,0.511l-3.092,0.511l0.014,0.193L717.571,74.97z M725.453,82.88l-0.11,0.239l0.313,0.184l-0.166,0.276l-0.313,0.221l-0.037,0.239l0.276,0.202l0.773-0.294l0.699-0.184l0.276-0.387l1.123-0.442l1.178-0.791l1.104-1.196l0.479-0.11l0.202-0.313l-0.276-0.405l0.11-0.497l0.442-0.386l-0.221-0.331l-2.245,0.221l-0.773-0.387l-1.012-0.92l-0.037-0.313l0.166-0.368l-0.294-0.386l-1.159-0.387l-1.822,0.442l-2.264,0.028l-1.951,0.34l-1.141,0.35l-0.074,0.258l1.62,0.92l0.883,0.258l-0.055,0.718l-0.883,0.497l-0.442,1.215l-0.718,0.221l-0.414,0.718l0.11,0.386l0.861,0.051l1.43-0.327l1.96-0.304l1.684-0.635l0.276-0.018l0.368,0.202l0.055,0.294h0.202l0.166-0.276l0.92,0.037l0.166,0.221l-0.313,0.147l-0.847,0.055l-0.055,0.11l0.258,0.184l-0.129,0.35L725.453,82.88z M731.002,57.591l0.58,0.11l0.276-0.11l-0.221-0.469l-0.414-0.166l-0.331,0.276L731.002,57.591z M681.4,64.58l0.52-0.052l0.457-0.166l0.052-0.208l-0.651-0.268l-0.497,0.083l-0.11,0.387L681.4,64.58z M681.419,63.72l0.667,0.049l0.052-0.052l-0.249-0.329l-0.488-0.17l-0.385,0.114l-0.038,0.222L681.419,63.72z M717.447,55.107l0.773,0.221l0.552-0.331l-0.497-0.221l-0.663-0.055L717.447,55.107z M720.153,54.996l0.663-0.221l-0.166-0.387l-0.773,0.055l-0.387,0.331L720.153,54.996z M718.662,54.61l0.663-0.166l-1.049-0.387l-0.497-0.331l-0.166,0.276l0.331,0.442L718.662,54.61z M713.564,56.929l-0.018,0.607l0.368,0.129l0.626-0.055l0.386,0.129l0.018,0.147l-0.294,0.129l-0.048,0.262l0.158,0.271l-0.092,0.239l-0.423,0.276l-0.423-0.018l-0.663-0.681l-0.902-0.46l-0.405,0.184l0.442,1.104l0.847,0.552l0.258,0.552l-0.313,0.166l-1.307-0.681l-0.184-0.216l-0.483-0.124l-0.179,0.11l-0.11,0.221h-0.207l-0.4-0.207l-0.704-0.028l-0.414,0.124l-0.962,0.009l-0.736,0.239l-0.092,0.202l0.589,0.11l1.012,0.166l0.166,0.166l-0.423,0.166l0.11,0.166l0.515,0.129l0.957-0.092l1.068,0.037l0.276-0.074l-0.018,0.129l-0.35,0.166l-0.258,0.166l-0.074,0.239l-1.748,0.258l-0.497,0.313l0.055,0.184l0.294,0.092l0.313,0.479l0.718,0.442l1.472,0.202l1.785-0.074l0.368,0.147l0.11,0.294h0.221l0.239-0.239l1.252-0.018l1.159-0.276l3.074-0.202l0.994-0.166l0.755-0.018l0.147,0.166l-0.037,0.221l0.35,0.221h0.442l0.276,0.202l-0.202,0.258l-3.147-0.018l-1.712,0.235v0.248l0.621,0.331l0.538,0.069l1.546,0.428l-0.083,0.11l-0.4,0.138l-0.952-0.29l-1.656-0.11l-0.773-0.497h-1.601l-0.442,0.442l1.27,0.994l2.043,0.387l0.773,0.179l0.097,0.124l-0.11,0.193l0.152,0.166l0.635,0.11l0.994-0.221l1.932,0.221l1.491-0.386l1.767,0.055l0.497,0.331l-0.055,0.552l0.939,0.331l3.534,0.221l0.442-0.497l2.65-0.663l1.491,0.055l1.988-0.828l0.331-0.497l-0.497-0.442l0.11-0.386l1.325-0.331l1.656-0.607l0.607-0.552l1.656-0.663l0.11-0.773l-0.11-0.828l0.442-0.552l-0.221-0.387l-0.828-0.11l-0.607-0.387l-2.393-0.313l-1.307,0.129l-0.074-0.11l0.221-0.147l0.018-0.147l-0.791-0.055l-0.571-0.166h-0.57l-0.129-0.129l0.147-0.184l-0.184-0.074l-1.012,0.221l-0.736,0.074v-0.129l0.239-0.258l0.037-0.571l-0.294-0.129l-0.313,0.534l-0.709,0.308l-0.29-0.028l0.11-0.248l0.331-0.207l-0.055-0.29l-1.201-0.193l-0.318,0.166l0.193,0.207l0.4,0.152l-0.138,0.221l-0.566,0.138l-0.649-0.29l-0.718,0.193l-0.11,0.663l-0.304,0.773l-0.276-0.055l-0.193-0.552h-0.469l-0.359,0.193l-0.359,0.028l-0.166,0.193v0.221h-0.166l-0.221-0.331l0.138-0.58l0.718-0.442l0.331-0.718l-0.166-0.939l-1.325-0.276l-0.552-0.497l-0.386,0.221l0.331,0.828l-0.442,0.276l-0.497-0.442l-0.718,0.11l-0.11,0.552l0.607,0.718l-0.442,1.16l-0.055,1.27l-0.442,0.055l-0.663-0.883l-0.773-0.166l-0.663,0.11l-0.11-0.276l0.773-0.387l0.055-0.442l-0.663-0.276l-1.877,0.552h-1.049l-0.166-0.718l-0.386-0.276l-0.387,0.387l-0.442-0.11l-0.037-0.571l-0.405-0.497l-0.589-0.184l-0.515,0.11l-0.294-0.239l-0.037-0.294l-0.221-0.11l-0.368,0.055l-0.258-0.11l-0.405-0.368l-0.276,0.074l-0.055,0.221l0.129,0.313h-0.129l-0.258-0.166L713.564,56.929z M715.128,56.432l0.405,0.221l0.46-0.11l0.037-0.221l-0.239-0.221h-0.442L715.128,56.432z M711.153,64.051l0.331-0.037v-0.221l-0.515-0.037l-0.221,0.074L711.153,64.051z M702.71,89.756l0.284,0.028l0.083-0.104l-0.201-0.194l-0.333-0.055l-0.076,0.139L702.71,89.756z M721.174,71.685l-0.387-0.11l-1.169-0.087l-0.294-0.294l-0.847-0.147l-0.736,0.221l-0.368-0.147l-0.258-0.479l-0.92-0.331l-0.479,0.11l-0.437-0.129l-0.083-0.179l0.11-0.248l-0.138-0.083l-0.373,0.069l-0.138-0.248l0.175-0.396l-0.442-0.221l-0.736-0.074l-0.405-0.258h-0.479l-0.331,0.515l-0.847,0.037l-0.147-0.294l0.147-0.442l-0.368-0.258h-0.699v-0.258l0.773-0.405v-1.141l-0.663-0.957l-1.325-0.626l-0.773,0.184l-0.331,1.325l-0.442,0.479l-0.663,0.258l-0.331-0.147l0.663-0.515l-0.221-0.92l0.184-0.736l0.699-0.626l0.074-0.479l-0.773-0.81l-1.656-0.847l-1.325-0.294l-0.368,0.258l0.074,0.515l-0.368,0.037l-0.479-0.479l-0.442-0.994l-0.847-0.258l-0.626,0.074l-0.773,0.736l-0.037,0.479l0.552,0.405l-0.294,0.147l-1.068-0.147l-0.405,0.331l0.11,0.626l0.552,1.362l0.331,1.436l0.184,1.288l0.184,0.368l0.479,0.479l0.294,0.81l1.104,1.62l-0.037,0.368l-0.626-0.184l-0.699-0.699l-0.479-0.957l-0.552-0.442l-0.442,0.221l-0.037,0.331h-0.147l-0.184-0.515l0.405-0.442l-0.147-0.368l-0.957-0.994l-0.368-1.215l-0.405-0.405l-0.221-0.663l-1.068-1.178l-0.663-0.368l-0.847-0.037l-1.472,1.693l-0.736,0.331l-0.074,0.515l0.847,1.325l-0.074,0.423l-0.442,0.313l-0.331-0.074l0.037-0.479l-0.184-0.515l-1.031-0.699l-0.405,0.037l-0.258,0.221l-0.405-0.11l0.074-0.405l0.699-0.331l-0.184-0.331l-0.994-0.11l-1.509,0.221l-0.626,0.442l-0.626,0.037l-0.074-0.368l0.515-0.331l1.988-0.847l0.883-0.11h1.436l0.736-0.331l0.184-0.515l-0.184-0.589l-0.663-0.147l-2.356,0.479l-0.773,0.405l-1.068,0.074l-0.699-0.626l-0.589-0.037l-0.304,0.202l0.083,0.442l0.515,0.607l-0.11,0.589l-0.184,0.018l-0.028-0.304l-0.166-0.221l-0.221,0.083l-0.11,0.359l-0.166-0.083l-0.221-0.828l-0.525-0.791l-0.626-0.11l-0.589,0.294l0.147,0.515l-0.294,0.074l-0.331-0.258l-0.589-0.037l-0.184,0.405l0.368,0.626l1.068,0.331l-0.037,0.129l-0.368,0.018l-1.086-0.221h-0.681l-0.46,0.239l-0.018,0.147l0.736,0.258l0.773,0.129l-0.018,0.092l-0.865-0.018l-1.27-0.147l-0.055,0.221l0.258,0.258l0.773,0.258v0.331l-0.331,0.442l0.074,0.589l0.92,0.883l0.074,0.773l0.663,0.331l1.178-0.442l0.11-0.442l-0.552-1.067l-0.213-0.099l0.052-0.156l0.343-0.104l0.811,0.187l0.01,0.125l-0.27,0.073l-0.07,0.121l0.147,0.663l0.287,0.089l0.187-0.114l-0.062-0.291l0.042-0.156l0.686-0.114l0.186,0.071l-0.062,0.366l-0.638,0.5l-0.626,0.957v0.184l0.957,0.387l0.81-0.037l0.736,0.239l0.331-0.018l0.405,0.129l-0.11,0.092h-0.368l-0.092,0.202l0.037,0.202l0.386,0.018l0.092,0.239l-0.129,0.221l-0.736-0.239l-1.914-0.46l-1.436-0.258l-0.442,0.184l0.184,0.294l0.994,0.515l0.736,0.11l0.331,0.258h-0.699l-0.479,0.442l0.12,0.349l0.478,0.094l0.322-0.074l0.177,0.157l-0.281,0.166l0.042,0.229l0.762,0.405l0.943,0.115l0.582-0.073v0.125l-0.291,0.177l0.021,0.135l0.439,0.037h1.583l1.031-0.368l0.368,0.11l-0.479,0.405l-1.472,0.221l-1.077-0.087l-0.387,0.083l-0.11,0.138l0.764,0.713l0.423,0.184l0.497,0.028l0.152,0.097l0.179,0.538v0.442l0.22,0.235l0.281-0.021l0.239-0.177l0.312,0.01l1.226,0.208l1.081-0.073l0.031-0.208l-0.385-0.239l0.156-0.052l0.437,0.239l0.187,0.01l0.062-0.283l-0.129-0.147l-0.547-0.12l-0.322-0.26l0.042-0.156h0.364l0.572,0.353l0.405,0.457l0.208,0.042l0.114-0.208l0.499-0.177l0.042-0.177l-0.551-0.582l0.083-0.146l0.306-0.003l0.626,0.258l1.031-0.037l0.037-0.331l-0.552-0.368l-1.094-0.017l-0.031-0.125l0.447-0.104l0.083-0.125l-0.447-0.135l0.085-0.12l0.975-0.005l0.042-0.104l-0.083-0.468l-0.149-0.316l-0.601-0.451v-0.184l0.755,0.368l0.589-0.313l0.442,0.11l0.055,0.368l-0.074,0.313l0.497,0.294l0.681-0.479l0.221-0.258l0.018-0.607l0.405-0.552l0.442,0.074l0.166,0.699l-0.221,0.81l-0.497,0.202l-0.092,0.386l0.166,0.534l0.699,0.331l1.794-0.193l1.463-0.911l0.525-0.883l0.359-0.028l0.276,0.193l0.883,0.083l0.055,0.221l-0.801,0.138l-0.635,0.497l-0.635,0.883l0.331,0.248l1.38,0.304l1.463-0.497h0.635l0.276,0.166l-1.049,0.248l-1.049,0.497l-1.353,0.055l-1.546-0.276l-1.38,0.166l-0.607,0.359l0.083,0.276l0.497,0.221l-0.248,0.11l-0.69-0.221l-0.635,0.11l-1.132,0.69l-0.138,0.304l-0.304,0.055l-0.469-0.083l-1.104,0.166l-0.939-0.083l-0.138,0.221l0.386,0.414l0.083,0.414h-0.248l-0.773-0.856l-0.58-0.166l-0.911,0.276l-0.138,0.331l0.276,1.298l0.414,0.304l0.055,0.248l-0.276,0.166l0.028,0.276l0.801,0.028l0.663-0.331l1.38,0.166l2.429-0.414l0.58-0.414l0.442-0.11l1.159,0.304h0.966l1.298-0.166l1.215-0.055l0.442-0.442h0.276l-0.221,0.276v0.248l1.436,0.552l-0.442,0.055l-1.049-0.276l-1.712,0.055l-0.856,0.221l-1.822,0.11l-2.733,0.58l-0.442,0.221l0.525,0.248l1.27,0.11l2.595,0.331l0.248,0.248l-0.221,0.166l-0.359-0.028l-0.663-0.193l-2.126-0.055l-0.387-0.11l-0.69,0.083l-0.193,0.166l0.028,0.331l-0.469-0.028l-0.359-0.469l-0.607-0.276l-1.601,0.248l-0.193,0.331l0.193,0.193l0.331,0.028l0.11,0.221l-0.359,0.028l-0.083,0.248l0.745,0.58l0.773,0.966l0.552,0.193l0.69-0.138l0.58,0.276l0.663-0.138l0.331,0.193l-0.193,0.331l0.525,0.635l1.16,0.166l1.367-0.11v-0.166l-0.359-0.29l0.014-0.138l0.235,0.069l0.193,0.207l0.166-0.055l-0.055-0.235l0.097-0.083l0.331,0.221l0.028,0.317l0.525,0.124l0.428-0.193l0.166-0.331l0.276-0.028l0.193,0.235l0.193,0.028l0.276-0.069l0.276,0.083l-0.083,0.097l-0.276,0.11l0.014,0.138l0.317,0.055l0.028,0.069l-0.221,0.028l-0.069,0.193l-0.152,0.028l-0.207-0.166l-0.773,0.014l-0.014,0.138l0.193,0.248l-0.193,0.055l-0.331-0.29l-0.525-0.152l-1.311,0.304l-0.635,0.179l-0.069,0.221l0.511,0.179l0.87,0.566l0.952,0.345l1.173,0.11l0.138,0.083l-0.221,0.124h-0.373l-0.124,0.152l-0.166,0.538l0.11,0.152l0.248-0.11l0.414-0.248l0.221,0.097l0.124,0.179l0.607,0.041l0.856-0.262l0.69-0.621l0.014-0.262l-0.331-0.262l-0.359-0.041l-0.456,0.014l-0.207-0.221l0.055-0.248l0.801-0.152l0.345-0.193l0.331-0.345l0.262-0.097l0.041-0.262l-0.414-0.359l-0.704-0.055l-0.069-0.11l0.138-0.097l0.718,0.028l0.179,0.097l0.276-0.152l0.152-0.414l-0.207-0.138l0.055-0.11l0.276-0.11l0.041-0.138l-0.221-0.055l0.069-0.124l0.221-0.069l-0.055-0.124l-0.359-0.014l-0.055-0.138l0.621-0.359l0.386-0.373l-0.152-0.124l-0.511,0.014l-0.028-0.152l0.663-0.166l0.483-0.4l-0.276-0.469l-0.262-0.207l-0.028-0.276l0.442,0.083l0.469,0.221l0.193-0.028l0.207,0.083v0.152l0.359,0.179l0.801,0.055l0.304-0.179l0.069-0.58l0.221-0.248l-0.097-0.097h-0.317l-0.069-0.11l0.221-0.041l0.014-0.124l-0.304-0.152l0.014-0.152l0.193-0.028l0.29,0.138l0.276-0.166l0.124-0.525l-0.124-0.248l-0.414-0.083l-0.069-0.124l0.152-0.055l0.166,0.041l0.069-0.11l-0.221-0.124l-0.276,0.014l-0.262,0.097l-0.235-0.11l0.028-0.138l0.359-0.055h0.414l0.4-0.29l0.055-0.193l-0.29-0.317l0.055-0.179l0.538-0.138l0.4,0.028l0.304,0.152h0.317l0.497-0.11l0.345-0.317l-0.014-0.235l-0.414-0.4l-0.58-0.221l0.055-0.097l0.386,0.055l0.207,0.083l0.4-0.097l0.097-0.193l-0.511-0.497l-0.732-0.428l-0.014-0.11l0.497,0.055l0.207,0.179h0.221l0.304-0.097l0.014-0.124l-0.428-0.994l-0.359-0.193l-0.317-0.069l0.041-0.11l0.773-0.166l0.331,0.055l0.083-0.11l-0.028-0.248l0.152-0.097l0.387,0.041l0.331,0.083l0.966-0.097l0.359-0.207l0.814-0.028l0.276,0.124l0.166-0.083l-0.014-0.193l0.345-0.179l0.318-0.028l0.055-0.069l-0.069-0.188l0.124-0.185l0.883-0.124l0.456,0.11l0.124,0.152l0.207-0.014l0.331-0.138l0.607,0.069l0.069,0.221l0.359,0.184l0.207-0.032l0.221-0.138l0.4-0.014l0.248,0.083l0.11-0.152l-0.124-0.152l0.041-0.317l0.525-0.58V71.685z M720.907,58.125l0.221-0.202l-0.129-0.129l-0.479,0.129l-0.184,0.258L720.907,58.125z M716.803,56.616l0.037-0.184l-0.221-0.129l-0.184,0.11l0.092,0.221L716.803,56.616z M686.002,70.622h0.525l0.221-0.166l-0.248-0.138l-0.525,0.028l-0.138,0.166L686.002,70.622z M683.38,62.837l0.184-0.055l-0.092-0.239l-0.202-0.055l-0.129,0.202L683.38,62.837z M684.024,62.763l0.055-0.184l-0.11-0.129l-0.166,0.092l0.037,0.202L684.024,62.763z M683.453,63.26l0.258-0.018l-0.055-0.147l-0.239-0.055l-0.184,0.092L683.453,63.26z M714.493,64.341l0.29,0.028l0.262-0.028l-0.055-0.124l-0.414-0.055l-0.152,0.083L714.493,64.341z M714.042,66.665l0.313-0.055l-0.037-0.129l-0.386-0.037l-0.202,0.166L714.042,66.665z M721.74,70.581l0.345-0.028l0.331-0.041l-0.11-0.138l-0.649-0.014l-0.166,0.097L721.74,70.581z M719.241,70.153l0.525-0.041l0.221-0.097l-0.028-0.11l-0.856,0.097l-0.028,0.124L719.241,70.153z M713.72,68.413l0.235-0.069l-0.083-0.11l-0.58,0.041l-0.083,0.152L713.72,68.413z M719.821,67.847h0.193l-0.166-0.138l-0.29-0.083v0.124L719.821,67.847z M727.358,84.15l0.414-0.138v-0.138l-0.663,0.055l-0.138,0.221H727.358z M730.685,56.791l0.387,0.041l0.097-0.097l-0.456-0.193l-0.304,0.041L730.685,56.791z M747.746,72.14l0.235-0.041l-0.014-0.152l-0.262-0.014l-0.069,0.097L747.746,72.14z M738.171,59.579l0.184-0.074l-0.11-0.11l-0.202,0.018l-0.055,0.129L738.171,59.579z M737.876,57.076l0.166-0.018V56.91l-0.239-0.092l-0.129,0.129L737.876,57.076z M738.521,57.131l0.147-0.11l-0.055-0.129l-0.166,0.018l-0.092,0.147L738.521,57.131z M724.827,83.285l0.294-0.037l-0.074-0.129l-0.479-0.074l-0.037,0.147L724.827,83.285z M720.216,73.35l0.181-0.065l-0.052-0.145l-0.233-0.006l-0.081,0.04l-0.015,0.106L720.216,73.35z M708.576,61.769l0.092,0.11l0.386-0.184l0.318-0.018l0.11-0.069l-0.133-0.115l-0.479,0.074L708.576,61.769z"/>
</svg>
