<svg xmlns="http://www.w3.org/2000/svg" viewBox="421.905 428.525 15.287 15.388">
  <path d="M437.024,430.314l-0.192,0.242l-0.153,0.153l-0.042,0.13l-0.177,0.187l-0.184,0.13l-0.091,0.016l-0.197,0.244l-0.096,0.223l-0.262,0.288l-0.269,0.605l0.02,0.605l0.166,0.104l0.056,0.47l-0.129,0.258l0.156,0.644l0.036,0.551l0.171,0.068l0.062,0.109l-0.109,0.364l0.281,0.278l0.112,0.182l-0.01,0.161l0.2,0.26l0.216,0.039l0.205,0.304l-0.003,0.125l0.127,0.166l0.161-0.023l0.083,0.143l-0.094,0.647l-0.192,0.255l0.049,0.164l-0.078,0.096l-0.117-0.01l-0.402,0.483l0.147,0.485l-0.128,0.878l-0.405,0.624l-0.08,0.293l-0.318,0.424l-0.222,0.028l-0.107,0.181v0.14l-0.14-0.003l-0.034,0.08l-0.506-0.028l-0.062-0.156l0.048-0.3l-0.318-0.041l-0.122,0.143l-0.14-0.005l-0.433-0.478l0.151-0.171l-0.062-0.088l-0.244,0.14l-0.203,0.208l-0.197,0.057l-0.047-0.197l-0.229,0.052l-0.026,0.166l-0.213,0.083l-0.177-0.156l-0.244,0.171l0.104,0.156l-0.14,0.125l-0.171-0.094l-1.055,0.099l-0.764-0.421l-0.281,0.078l-0.161,0.587l-0.192-0.052l-0.203,0.359l0.418,0.234l0.4,0.511l0.11,0.594l-0.482,0.232l-1.154-0.364l-0.587-0.042l-0.191-0.244l-0.486-0.051l-1.739-2.913l-0.224-0.154l-0.042-0.748l-0.249-0.468l0.079-0.594l-0.161-0.177l-0.977,0.135l-0.4-0.244l0.073-0.416l-0.273-0.4l-0.247-0.078l-0.109-0.13l-0.023-0.347l-0.522-0.492l-0.178-0.041l-0.181-0.198l0.069-0.255l-0.173-0.295l0.87-1.838l-0.14-0.494l-0.17-0.071l-0.035-0.173l0.34-0.353l0.291,0.021l0.062-0.152l0.243-0.187l0.282,0.059l0.812,0.038l0.263-0.125l0.187,0.042l0.021-0.097l-0.146-0.125l0.069-0.374l0.159-0.042l0.118,0.187l0.191-0.118l-0.156-0.367l-0.125-0.002l-0.052,0.146l-0.135-0.036l0.014-0.301l-0.118,0.035l-0.049-0.069l0.263-0.222l0.048-0.266l0.094-0.036l0.107-0.088l0.143-0.042l0.169-0.452l-0.016-0.382l0.083-0.421l0.171-0.307l0.364-0.223l0.4,0.052l0.359-0.01l0.442,0.042l0.218,0.114l0.379,0.012l1.029,0.218l0.603,0.177l0.166,0.083l0.182,0.005l0.068,0.042l0.128,0.17l0.007,0.163l-0.055,0.156l-0.128,0.003l0.052,0.024l0.111-0.003l0.073-0.173l0.007-0.173l-0.156-0.274l0.038-0.052l0.308-0.031l0.26,0.014l0.187-0.059l-0.094,0.003l-0.097,0.028l-0.263-0.024l-0.398,0.028l-0.052-0.028l-0.038-0.097l0.156-0.229l0.104-0.09l0.152-0.055l0.509-0.021l0.066-0.035l0.301-0.017l0.972,0.14l0.353,0.192l0.249,0.052l0.083-0.036l0.094,0.016l0.088,0.068l0.047,0.071l-0.002,0.062l-0.071,0.054l-0.151,0.062l-0.003,0.095l0.26,0.326l0.168,0.045l-0.049-0.042l-0.1-0.04l-0.241-0.319v-0.047l0.036-0.019l0.092,0.009l0.043-0.026l0.062-0.097l-0.003-0.122l0.021-0.034l0.148,0.023l0.086,0.088h0.07l0.065-0.044l-0.052,0.005l-0.034,0.018l-0.039-0.003l-0.042-0.068l-0.122-0.073l-0.148-0.003l-0.099-0.094l-0.065-0.016l-0.049-0.07l0.127-0.096l0.127-0.039l0.431-0.026l0.993,0.068l0.792,0.131l0.533,0.086l0.605,0.14l0.299,0.096l0.262,0.065l0.104,0.088l0.101,0.219l-0.004,0.044l-0.079,0.129l-0.07,0.184l-0.013,0.317l0.021,0.127L437.024,430.314z M425.296,430.315l0.044-0.034l0.042-0.125l-0.031-0.013l-0.068,0.127l-0.044,0.062L425.296,430.315z M425.431,429.795l0.031-0.096l-0.016-0.062l-0.01-0.166l-0.052-0.023l-0.018,0.049l0.013,0.052l0.034,0.114l-0.003,0.101L425.431,429.795z M437.12,430.166l-0.016-0.042l-0.018-0.109l-0.023-0.01l0.003,0.151l0.031,0.052L437.12,430.166z M437.084,429.937l0.003,0.035l0.017,0.042l0.012-0.033l-0.017-0.049L437.084,429.937z"/>
</svg>
