<svg xmlns="http://www.w3.org/2000/svg" viewBox="665.224 444.294 3.749 6.466">
  <path d="M668.827,445.002l0.021-0.016l0.018,0.01l0.003,0.026l-0.023,0.003L668.827,445.002z M668.286,445.514l0.018-0.005l0.005-0.013l-0.016-0.01l-0.013,0.01L668.286,445.514z M668.315,445.665l0.023,0.003l0.01-0.016l-0.013-0.016l-0.021,0.008V445.665z M668.572,444.678l-0.047,0.005l-0.018-0.026l-0.029-0.003l-0.016,0.023l0.026,0.021l-0.003,0.034l0.021,0.065l-0.01,0.031l0.016,0.031l0.023,0.005l0.003-0.023l0.029-0.005l0.026,0.036l0.023,0.01l0.023-0.008l0.018,0.016v0.023l0.018,0.016l0.021-0.016h0.026l0.01,0.044h0.016l0.008-0.031l-0.01-0.042l0.039-0.044l0.031,0.021l0.018-0.013l-0.008-0.026l0.023-0.073l-0.021-0.044l0.003-0.031l0.042-0.042l0.029-0.013l0.034,0.005l0.036-0.039l-0.023-0.047l-0.018-0.01l-0.023,0.008l-0.023-0.026l-0.036,0.005l-0.021,0.018l-0.005-0.01l0.023-0.047l0.021-0.023l0.026,0.003l0.021-0.008l-0.005-0.026l0.018-0.016l0.023,0.016h0.023l-0.003-0.042l-0.039-0.013l-0.031-0.026l-0.029,0.016l-0.036,0.005l-0.086-0.026l-0.027,0.003l-0.007,0.021l-0.018,0.015l-0.036,0.005l-0.026-0.016l-0.023,0.018l0.003,0.073l0.018,0.026l-0.003,0.023l-0.023,0.008l-0.008,0.034l0.021,0.044l-0.021,0.06L668.572,444.678z M668.738,444.32l0.014,0.002l0.003-0.019l-0.01-0.009l-0.007,0.01V444.32z M666.158,449.186l0.016,0.003l0.036-0.034l-0.021-0.003l-0.021,0.01L666.158,449.186z M665.413,450.739l0.023,0.021l0.031-0.005l0.018-0.031l-0.018-0.026l-0.036,0.003L665.413,450.739z M665.966,450.193l0.014-0.015l0.022-0.004l0.007-0.011l-0.003-0.027l0.022-0.029l0.025,0.001l0.004-0.014l-0.01-0.014l0.005-0.009l0.019,0.003l0.014-0.013l-0.009-0.02l0.036-0.022l0.015-0.015l0.014-0.046l0.018-0.008h0.018l0.02-0.014l0.06-0.084l0.033-0.024l0.017-0.035l-0.014-0.025l0.016-0.055l-0.008-0.029l0.01-0.047l0.036-0.01l0.005-0.026l-0.029-0.023l-0.013-0.042l-0.026-0.026v-0.042l-0.005-0.06l-0.018-0.013l-0.01,0.026h-0.021l-0.016-0.029l0.018-0.029l-0.013-0.018l-0.021,0.008l-0.021-0.01l-0.003-0.029l0.026-0.023l-0.008-0.021l-0.042-0.003l-0.042-0.031l-0.016-0.049L666,449.155l-0.057-0.005l-0.055,0.023l-0.044-0.008l-0.068,0.016l-0.018,0.036l-0.057,0.044l-0.044,0.06l-0.06,0.034l-0.047-0.005l-0.021,0.013l-0.023,0.031l-0.026,0.013l-0.01,0.039l-0.018,0.016l-0.021-0.01l-0.021,0.01l-0.018,0.031l-0.044,0.013l-0.021,0.031l0.003,0.057l-0.036,0.088l-0.039,0.016l-0.031,0.104l0.018,0.192l0.031,0.036l0.013,0.044l0.005,0.083l0.018,0.042l0.029,0.021l0.018,0.018l-0.005,0.042l0.023,0.029l0.036,0.003l0.023,0.049l-0.013,0.143l-0.023,0.003l-0.008,0.021l0.023,0.026v0.055l0.016,0.023l0.057-0.021l0.017-0.023l-0.003-0.047l0.026-0.005l0.021,0.028l0.003,0.018l0.028-0.002l0.016-0.017l-0.003-0.035l0.023-0.035l0.007-0.062l0.016-0.041l0.036-0.003l0.018,0.023l0.044,0.005l0.016-0.018h0.034l0.047-0.047l0.059-0.042l0.052-0.005l0.007-0.042l-0.028-0.026l0.009-0.018l0.024,0.003l0.01-0.009L665.966,450.193z M666.347,449.809h0.014l0.002-0.012l-0.014-0.007l-0.009,0.01L666.347,449.809z M665.817,450.575h0.014l0.01-0.014l-0.01-0.009l-0.012,0.01L665.817,450.575z"/>
</svg>
