<svg xmlns="http://www.w3.org/2000/svg" viewBox="303.156 396.703 9.010 4.866">
  <path d="M310.66,401.53l-0.377,0.039l-0.486-0.036l-0.013-0.026l0.016-0.023l-0.016-0.026l-0.14,0.013l-0.01,0.036l0.052,0.003l0.023,0.023l-0.127,0.026l-0.088-0.01l-0.114-0.07l-0.008-0.055l0.078-0.068l-0.055-0.021l-0.078,0.023l-0.172-0.018l-0.205-0.192l-0.203-0.039l-0.081,0.057l-0.135-0.008l-0.047,0.036l0.104,0.044l0.184-0.039l0.109,0.01l0.146,0.156l0.21,0.083l-0.023,0.057l-0.65-0.133l-0.568-0.157l-0.897-0.426l-0.731-0.385l-0.159-0.048l-0.641-0.08l-0.191,0.017l-0.274-0.038l-0.184-0.08h-0.475l-0.146-0.038l-0.076-0.225l-0.606-0.385l-0.45-0.163l0.081-0.038l0.021-0.073l-0.045-0.095l0.019-0.185l0.215-0.197l0.073-0.146l0.679-0.492l0.253,0.097l0.142-0.003l-0.014-0.156l0.322-0.471l0.437-0.055l0.035-0.111l-0.118-0.229l-0.139-0.035l0.062-0.385l0.142,0l0.042,0.145l0.06-0.005l0.079-0.109l0.343-0.118l0.139,0.049l0.741,0.241l0.14-0.166l0.13,0.042l0.042,0.213l0.177,0.068l0.052,0.249l0.546,0.301l0.14,0.251l0.329-0.017l0.052,0.045l-0.038,0.187l0.87,0.346l0.011,0.362l0.182,0.057l0.826-0.338l-0.029-0.196l0.291,0.031l0.291-0.049l0.028,0.173l0.246,0.274l0.599-0.068l0.083-0.094l0.12,0.005v0.14l0.304,0.32l-0.122,0.231l-0.171,0.795l0.069,0.078l0.144-0.016v0.239l-0.371,0.146l-0.104-0.007l-0.031,0.128l0.031,0.114l0.236,0.197l0.007,0.08l-0.107,0.142l-0.329,0.142l-0.017,0.069l0.055,0.045l0.003,0.055L310.66,401.53z M311.888,401.006l0.076,0.049l0.007-0.1l-0.052-0.003L311.888,401.006z M311.86,401.255l0.021,0.083l0.048-0.007l0.038-0.035l-0.052-0.059L311.86,401.255z M312.061,401.356l-0.017,0.104l0.035,0.08l0.087-0.038l-0.024-0.125L312.061,401.356z"/>
</svg>