<svg xmlns="http://www.w3.org/2000/svg" viewBox="407.148 382.874 0.459 0.230">
  <path d="M407.333,382.947l0.049-0.016l0.002-0.019l0.014-0.011h0.018l0.015-0.025l0.022,0.003l0.016-0.005l0.046,0.032l0.015-0.008l0.028,0.014l0.02-0.014l0.017,0.005l0.012,0.043l-0.008,0.022l-0.014,0.007l-0.004,0.017l0.01,0.009l-0.006,0.014l-0.012,0.008l-0.007,0.025l-0.048,0.056l-0.017-0.002l0.003-0.023l-0.008-0.013l0.005-0.022l-0.021-0.012l-0.024,0.004l-0.01,0.014l0.005,0.016l-0.005,0.014l-0.008-0.01l-0.002-0.015l-0.015-0.004l-0.014,0.011l-0.015-0.007v-0.011l-0.01-0.001l-0.008,0.014l-0.008-0.005v-0.018l-0.019-0.004l-0.017,0.003l-0.019-0.014l-0.002-0.013l0.01-0.007l-0.015-0.022l-0.028-0.007l-0.03,0.007l-0.007,0.024h-0.006v-0.016l-0.016-0.003l-0.021-0.023l0.001-0.014l-0.023-0.013l-0.012,0.002l-0.014-0.02l0.014-0.002h0.008l0.036,0.011l0.029,0.001l0.012,0.017l0.025,0.018l0.032-0.003l0.017,0.026l0.023,0.021h0.008l-0.012-0.028l-0.007-0.028L407.333,382.947z"/>
</svg>
