<svg xmlns="http://www.w3.org/2000/svg" viewBox="827.084 633.777 7.977 2.556">
  <path d="M827.976,633.881l0.011-0.015l0.021,0.001l0.004,0.019l-0.008,0.021l-0.014-0.006l-0.001-0.012L827.976,633.881z M827.084,634.505l0.01,0.022l0.003,0.023l0.026,0.033l0.046,0.037l-0.004,0.014l0.007,0.007l0.014-0.004l0.012,0.007l-0.003,0.01l0.021,0.007l0.019-0.004l0.055,0.023h0.018l0.044,0.007l0.036,0.03l0.012,0.04l0.01,0.008l0.008-0.015l0.037-0.014l0.018-0.037l0.014-0.007l0.022,0.003l0.022-0.012l0.021-0.064l0.015-0.021l-0.005-0.055l-0.008-0.023l0.01-0.032l-0.014-0.032l-0.054-0.026l-0.012-0.018l-0.003-0.037l-0.025-0.028l-0.039-0.005l-0.023,0.012l-0.026,0.001l-0.032,0.017l-0.061-0.014l-0.091,0.008l-0.065,0.051l-0.034,0.065V634.505z M828.042,633.89l0.021,0.004l0.003-0.012l0.015-0.014l0.066-0.028l-0.012-0.011l-0.026,0.006l-0.021-0.012l-0.058,0.029l-0.004,0.019L828.042,633.89z M828.067,633.799l0.015-0.001l-0.001-0.015l-0.01-0.006l-0.011,0.012L828.067,633.799z M827.926,633.872l0.014-0.003l0.007-0.007l-0.011-0.003l-0.017,0.008L827.926,633.872z M827.907,633.961l0.011-0.001l0.003-0.01l-0.01-0.006l-0.008,0.007L827.907,633.961z M827.862,633.963l0.011-0.004l0.001-0.01l-0.008-0.003l-0.008,0.005L827.862,633.963z M827.934,633.927l0.015-0.001l0.003-0.01l-0.011-0.005l-0.012,0.007L827.934,633.927z M827.983,636.058l0.043,0.022l0.02,0l0.009-0.015l-0.007-0.021l-0.025-0.015l0.007-0.014l-0.008-0.01l-0.023,0.007l-0.019-0.003l-0.008-0.012l-0.018-0.01l-0.021-0.025l-0.019-0.004l-0.005,0.011l0.023,0.018l-0.007,0.036l0.014,0.022L827.983,636.058z M832.545,635.84l0.018,0.01l0.016-0.023l-0.016-0.016l-0.018,0.01V635.84z M832.554,635.937h0.017l0.03,0.019l0.003,0.022l-0.011,0.012l-0.003,0.017l0.05,0.035l0.021,0.029l0.003,0.036l0.046,0.054l0.025,0.003l0.021-0.008l0.017,0.007l0.006,0.019l-0.008,0.022l0.018,0.012l0.033-0.003l0.034,0.019l0.008,0.04l-0.008,0.025l0.011,0.003l0.019-0.015l0.021-0.003l0.043-0.028h0.023l0.035,0.012l0.051,0.007l0.036-0.001l0.034,0.017l0.029,0.028h0.01l0.006-0.017l0.021-0.017l0.04-0.001l0.03-0.017l0.037-0.047l0.018-0.006l0.015-0.01l-0.008-0.014l0.006-0.011l0.017-0.004l0.021-0.025l0.028-0.01l0.001-0.022l-0.017-0.015l0.001-0.021l0.026-0.029v-0.021l-0.019-0.004l-0.05-0.037l-0.001-0.018l-0.033-0.034h-0.028l-0.04,0.022l-0.022-0.015l-0.007-0.021l-0.023-0.01l-0.017,0.007l-0.023-0.01l-0.003-0.02l0.018-0.039l-0.01-0.013l-0.026,0.008l-0.034-0.013l-0.01-0.026l0.015-0.042l0.004-0.032l-0.021-0.01l-0.04,0.031l-0.023-0.01l0.005-0.022l-0.008-0.018l-0.095-0.014l-0.014-0.011l-0.019,0.001l-0.001,0.036l-0.011,0.012l-0.018,0.006l-0.011,0.025l-0.019,0.005l-0.015-0.011l-0.019-0.003l-0.087,0.063l-0.048,0.018l-0.009,0.026l-0.065,0.031l-0.029,0.031L832.554,635.937z M834.216,636.096l0.033,0.037l0.033,0.022l0.015,0.028l-0.003,0.023l0.011,0.001l0.007-0.017h0.012l-0.001,0.012l0.007,0.001l0.015-0.012l0.014,0.003l0.001,0.011l0.023,0.017l0.033,0.003l0.099,0.058v0.011l-0.008,0.012l0.007,0.005l0.017-0.01l0.065,0.032l0.033-0.003l0.019-0.011l0.012-0.026l0.015-0.012l0.036-0.001l0.037,0.015l0.059,0.03h0.025l0.066-0.026l0.033-0.024l0.043-0.003l0.023-0.016l0.003-0.021l0.059-0.054l0.002-0.014l-0.023-0.019l-0.007-0.047l0.01-0.019l-0.007-0.023l-0.042-0.036l-0.029-0.005l-0.076-0.062l-0.024-0.029l-0.055-0.014l-0.054,0.003l-0.045,0.016l-0.035-0.012l-0.005-0.028l-0.014-0.012l-0.073-0.002l-0.038,0.007l-0.05,0.029l-0.021,0.024l-0.026,0.005l-0.014-0.012l-0.019-0.002l-0.021,0.016l-0.076,0.017l-0.035,0.028l-0.021,0.003l-0.029-0.003l-0.026,0.021l-0.006,0.041L834.216,636.096z"/>
</svg>
