<svg xmlns="http://www.w3.org/2000/svg" viewBox="399.922 381.572 1.948 2.783">
  <path d="M400.624,384.355l-0.016-0.026l0.068-0.07l0.013-0.06l-0.039-0.114l0.021-0.078l0.055-0.026l0.13,0.029l0.094-0.031l0.018-0.029l0.021-0.008l0.029,0.003l0.06-0.018l0.07,0.016l0.016,0.026l0.012-0.008v-0.025l0.019-0.005l0.061,0.077l0.081,0.055l0.038,0.005l0.024-0.031l0.086-0.026l0.104,0.01l0.104-0.003l0.026,0.016h0.055l0.036-0.016l0.052,0.008l0.008,0.018l-0.044,0.034l-0.057-0.003l-0.036,0.01l-0.029,0.036l-0.07,0.023l-0.016,0.021l-0.026,0.005l-0.031-0.005l-0.047,0.013l-0.005,0.023l-0.023,0.005l-0.023-0.005l-0.029,0.016l-0.018,0.018l-0.076,0.004l-0.025,0.019l-0.018-0.003l-0.038-0.018l-0.028,0.009l-0.004,0.023l-0.011,0.005l-0.014-0.017l-0.05,0.014l-0.016-0.007l-0.017-0.033v0.019l0.017,0.035l-0.009,0.007l-0.035-0.017l-0.045-0.005l-0.151,0.044l-0.029,0.018l-0.021-0.005v-0.023l-0.151,0.013L400.624,384.355z M401.13,384.307l0.007,0.016l0.014,0.003l0.007-0.012l-0.019-0.01L401.13,384.307z M400.785,382.289l0.012,0.002l0.005-0.009l-0.007-0.005h-0.012L400.785,382.289z M401.539,381.925l0.01-0.009v-0.012l-0.012-0.002l-0.007,0.014L401.539,381.925z M401.397,381.96h0.012v-0.01l-0.012-0.005l-0.007,0.01L401.397,381.96z M400.623,382.105l0.007,0.01l0.017-0.01l-0.002-0.012l-0.012,0.002L400.623,382.105z M400.657,382.123l0.012-0.002l0.007-0.009l-0.009-0.007l-0.017,0.007L400.657,382.123z M400.013,381.716l0.014-0.009l-0.003-0.014l-0.014,0.003l-0.007,0.012L400.013,381.716z M400.025,381.619l0.01-0.007l-0.009-0.01l-0.01,0.005l-0.002,0.01L400.025,381.619z M400.352,381.662l0.012-0.007l-0.01-0.016l-0.007-0.017l-0.01,0.002v0.026L400.352,381.662z M400.342,381.7l0.021,0.016l0.01,0.002l-0.007-0.029l-0.021-0.01l-0.009,0.003L400.342,381.7z M400.707,381.785h0.024l0.028,0.01l0.042,0.007l0.01-0.016l-0.016-0.01l-0.029,0.003l-0.035-0.009l-0.026,0.007L400.707,381.785z M400.86,381.797l0.028-0.01h0.038l0.002-0.007l-0.036-0.005l-0.05,0.01l-0.009,0.012H400.86z M400.941,381.773l-0.003,0.012l0.017,0.003l0.024-0.009l0.019-0.012l-0.017-0.004l-0.023,0.008L400.941,381.773z M400.245,382.007l0.014-0.01l-0.009-0.016h-0.012L400.233,382L400.245,382.007z M400.48,381.903l0.003,0.021l0.012,0.007l0.009-0.014l-0.01-0.026l-0.012-0.014l-0.01,0.012L400.48,381.903z M400.403,381.996l0.017-0.009l0.007-0.047l0.019-0.007l0.016,0.017l0.01-0.002l-0.016-0.043l-0.017-0.003l-0.029,0.029l-0.017,0.022l-0.002,0.028L400.403,381.996z M399.937,381.882l0.021-0.007l0.016-0.01l-0.002-0.028l-0.01-0.003l-0.028,0.023l-0.012,0.028L399.937,381.882z M400.577,381.594l0.016,0.007l0.012-0.005l-0.003-0.019l-0.017-0.005l-0.009,0.009L400.577,381.594z M400.564,381.624l0.002,0.017l0.017,0.031h0.017l0.012-0.014l0.002-0.021l-0.017-0.024l-0.031-0.01l-0.012,0.009L400.564,381.624z M400.042,381.783l0.016-0.003v-0.012l-0.021-0.005l-0.005,0.01L400.042,381.783z M400.072,381.799h0.012l0.005-0.012l-0.016-0.007l-0.01,0.009L400.072,381.799z M400.86,382.005l0.023-0.012l0.017-0.029l-0.016-0.01l-0.016,0.009v0.021L400.851,382L400.86,382.005z M400.9,382.031l0.009-0.007l-0.01-0.021l-0.019,0.005l-0.005,0.017L400.9,382.031z M400.922,382.04h0.012v-0.012l-0.01-0.003l-0.009,0.009L400.922,382.04z M401.149,381.75l0.003-0.012h-0.014l-0.009,0.007l0.007,0.007L401.149,381.75z M401.017,381.816v-0.012h-0.01L401,381.809l0.009,0.009L401.017,381.816z M400.993,381.875l-0.003,0.036l0.016,0.021l0.017-0.003l0.01,0.005l-0.012,0.019l0.005,0.012h0.031l0.026-0.024l0.017,0.002l0.007,0.014v0.019l0.007-0.005l0.002-0.042l0.01,0.003l0.003,0.019h0.023l0.023-0.028l0.017,0.005l0.017,0.021l0.026,0.009l0.022-0.017l0.019,0.009l0.002,0.016l-0.005,0.017l0.009,0.005l0.014-0.009l0.012,0.009l0.019-0.003l0.01,0.014l0.003,0.028l0.014-0.003l0.002-0.023l-0.005-0.047l0.012-0.024l-0.007-0.024l-0.021-0.01l-0.026-0.026l-0.01-0.028l0.01-0.005l0.023,0.021l0.016-0.007l-0.007-0.021l0.003-0.019l0.028-0.009l0.014,0.014l-0.003,0.033l0.009,0.012l0.023-0.023l0.026,0.01l0.012,0.023l-0.005,0.017l0.01,0.017l0.016-0.005l0.003-0.023l0.019-0.012l-0.002-0.021l-0.017-0.014l-0.022-0.007l-0.012,0.005l-0.014-0.005l-0.021-0.019l-0.002-0.017l-0.031-0.016l-0.024,0.005l-0.019-0.005l-0.021-0.019h-0.024l-0.017,0.016l-0.059-0.003l0.009-0.012l0.016,0.002l0.002-0.007l-0.017-0.012l-0.042-0.003l-0.012,0.012l0.005,0.014l0.017,0.002l0.007,0.016l-0.007,0.016l-0.023,0.003l-0.016,0.016l-0.019-0.002l-0.012-0.01l-0.014,0.002l-0.005,0.016l-0.016,0.003l-0.012-0.012l-0.007,0.007l0.002,0.014l-0.012,0.009l-0.016-0.021l-0.007,0.005l0.002,0.021l-0.012,0.017L400.993,381.875z M400.961,381.754l0.022-0.001l0.011-0.006l-0.022-0.001l-0.019,0.006L400.961,381.754z M400.127,381.839l0.014,0.017l0.021-0.001l0.006-0.01l0.019-0.004l0.007,0.011l0.011,0.001l0.007-0.01l0.037-0.014l0.015-0.014l0.025,0.007l0.011,0.015l0.028,0.006v0.023l-0.025,0.003l-0.001,0.01l0.035-0.001l0.007,0.018l0.01,0.006l0.01-0.023l0.017,0.006l-0.004,0.032l0.01,0.006l0.007-0.012l0.017-0.003l0.012-0.021l0.018-0.008l0.011,0.007h0.012l0.007-0.015l0.022-0.007l0.032,0.006l0.017,0.011v0.01l-0.014,0.008v0.014l0.008,0.015l-0.008,0.012l0.004,0.006l0.019-0.003l0.043,0.033l0.028,0.01l0.011-0.012l0.018-0.004l0.017,0.015l0.019,0.007l0.015,0.015l0.022-0.001l0.007-0.012l-0.008-0.022l0.011-0.018l0.054-0.004l0.032,0.025l0.01-0.003l-0.004-0.01l0.006-0.01l0.018,0.007l0.006-0.008l-0.021-0.015l0.015-0.008l0.018,0.003l0.01-0.006l-0.025-0.008l-0.025,0.01h-0.015l-0.014,0.004l-0.019-0.003l0.025-0.014h0.015l0.006-0.015l-0.025-0.018l0.008-0.012l-0.01-0.006l-0.017,0.006l-0.019-0.021l-0.019-0.01l-0.003-0.012l-0.055-0.022l-0.015,0.003l-0.01-0.003l-0.001-0.017l-0.014-0.011l-0.014,0.004l-0.025-0.014l-0.037-0.004l-0.026-0.015l-0.012-0.017l-0.036-0.017l-0.01-0.011l-0.019-0.006l0.019,0.022l0.043,0.032l0.011,0.015l-0.01,0.018l-0.015,0.004l-0.04-0.019l-0.01-0.021l-0.021-0.012l-0.017-0.017l-0.004,0.003l0.004,0.01l0.004,0.012l-0.01,0.007l-0.036-0.006l-0.018,0.003l-0.044-0.012l-0.018,0.006l-0.017-0.003l-0.011,0.007l-0.008,0.032l-0.012,0.001l-0.007-0.015l-0.019-0.004l-0.012,0.017l-0.066,0.004l-0.021,0.011l-0.012,0.019l-0.019,0.003l-0.003,0.01L400.127,381.839z"/>
</svg>
