<svg xmlns="http://www.w3.org/2000/svg" viewBox="396.015 381.527 1.954 2.970">
  <path d="M396.219,381.74l0.133-0.009l0.035-0.029l0.158-0.003l0.044,0.047l0.031-0.008v-0.026l-0.055-0.052l0.036,0.01l0.065,0.052l0.073,0.01l0.179,0.114l0.031,0.073l-0.034,0.023l-0.039-0.029l-0.081,0.013l0.034,0.039l-0.023,0.008l-0.062-0.034l-0.031,0.005l-0.077-0.049l-0.014-0.05l-0.029-0.016l-0.122,0.044l-0.062-0.036l-0.031-0.055l-0.132,0.043l-0.05-0.033L396.219,381.74z M397.08,381.85l0.034,0.068l0.057,0.013l0.07-0.026l0.117,0.018l0.042,0.034l0.049,0.021l0.021-0.008l-0.01-0.044l0.008-0.047l-0.068-0.062l0.047-0.034l0.047,0.003l0.055,0.044l-0.003,0.029l0.031,0.008l0.026-0.034l-0.016-0.031l-0.095-0.06l-0.052-0.003l-0.036-0.021l-0.133-0.023l-0.013,0.021l0.039,0.018l-0.026,0.034l-0.117,0.013l-0.031,0.042L397.08,381.85z M396.69,384.461l0.042,0.036l0.057-0.047l0.187,0.01l0.161-0.052l0.104,0.021l0.359-0.104l0.026-0.042l0.073,0.01l0.109-0.052l0.026-0.042l0.104-0.005l0.031-0.036l-0.068-0.026l-0.369,0.005l-0.047,0.042l-0.073,0.005l-0.13-0.13h-0.213l-0.078,0.078h-0.083l-0.094-0.026l-0.083,0.042l0.005,0.104l0.036,0.094l-0.021,0.062L396.69,384.461z M397.719,384.025l0.003,0.023h0.042l0.024-0.024l-0.048-0.01L397.719,384.025z M396.046,381.845l0.023-0.013l-0.01-0.036l-0.044,0.049H396.046z M396.657,381.567l0.008,0.047l0.026,0.026l0.031-0.023l-0.016-0.039L396.657,381.567z M396.976,381.925l-0.021,0.049l0.031-0.008l0.018-0.034L396.976,381.925z M396.877,381.764l0.036-0.008l-0.016-0.018l-0.065-0.008l-0.018,0.016L396.877,381.764z M396.498,381.902l-0.013,0.057l0.036-0.003l0.008-0.047l0.029-0.008v-0.031l-0.034,0.008L396.498,381.902z M396.472,381.676v-0.021l-0.039-0.021l-0.005,0.026L396.472,381.676z M396.436,381.585v0.029l0.021,0.013l0.01-0.018L396.436,381.585z M397.088,381.743l0.013-0.021l-0.057,0.01v0.021L397.088,381.743z M396.675,381.546l0.017,0.014l0.017-0.017l-0.026-0.016L396.675,381.546z M396.124,381.738l0.029,0.021l0.007-0.017l-0.023-0.012L396.124,381.738z M396.98,382l0.024-0.01L397,381.975l-0.017,0.009L396.98,382z M396.959,381.759l0.014-0.009h-0.028l-0.005,0.012L396.959,381.759z M397.009,381.752l0.016-0.007l-0.023-0.005l-0.01,0.012H397.009z M396.592,381.897l0.01-0.016l-0.009-0.033l-0.017,0.009L396.592,381.897z"/>
</svg>