<svg xmlns="http://www.w3.org/2000/svg" viewBox="1258.826 499.297 13.694 27.752">
  <path d="M1272.364,524.203l0.064-0.057l0.076,0.024l0.016,0.09l-0.042,0.031l-0.078-0.016L1272.364,524.203z M1270.109,523.174l0.031,0.052l0.052-0.01l0.047-0.203l-0.042-0.026l-0.042,0.052L1270.109,523.174z M1267.968,521.329l0.01,0.14l-0.073,0.078l0.021,0.135l0.198,0.062l0.057,0.073l0.25,0.104l0.13,0.005l0.416,0.203l0.078-0.021l0.172-0.172l-0.01-0.161l-0.146-0.187l-0.27-0.125l-0.088-0.12l0.021-0.047l0.13-0.031l0.094,0.01l0.036-0.036l-0.083-0.13l-0.062-0.005l-0.125,0.052l-0.109-0.094l-0.021-0.172l-0.088-0.166l-0.166-0.057l-0.229,0.021l-0.177,0.208l-0.052,0.327L1267.968,521.329z M1268.753,523.955l0.104,0.229l0.166,0.222l0.312,0.256l0.249,0.048l0.097-0.09l0.007-0.166l0.028-0.111l0.069-0.055l0.014-0.104l-0.243-0.146l-0.201-0.062l-0.111-0.146l-0.007-0.27l0.049-0.076l-0.007-0.083l-0.152-0.021l-0.236,0.076l-0.055,0.104l0.042,0.076l-0.035,0.111l-0.069,0.111L1268.753,523.955z M1270.786,526.948l-0.021,0.042l0.012,0.019l0.057-0.023l0.152,0.042l0.177,0.01l0.083-0.083l0.049-0.135l-0.052-0.118l-0.187-0.111l-0.246,0.003l-0.104,0.069l-0.017,0.132L1270.786,526.948z M1270.714,527.014l-0.01,0.028l0.038,0.007l0.019-0.024l-0.019-0.014L1270.714,527.014z M1265.525,516.21l0.104,0.021l0.036-0.026l-0.146-0.229l-0.078,0.005l-0.031,0.078L1265.525,516.21z M1265.687,516.299l0.052,0.021l0.052-0.031l-0.083-0.068l-0.036,0.031L1265.687,516.299z M1266.03,516.288l0.062-0.042v-0.062l-0.088-0.01l-0.036,0.062L1266.03,516.288z M1264.933,516.688l0.083,0.047l0.042-0.031l-0.036-0.088h-0.047L1264.933,516.688z M1265.011,516.538l0.047,0.01l0.062-0.062l0.198-0.104l-0.026-0.057l-0.187,0.057l-0.052,0.057L1265.011,516.538z M1265.001,512.417l0.036,0.052l0.068,0.005l0.057-0.073l0.026-0.203l-0.036-0.042l-0.073,0.01L1265.001,512.417z M1265.396,512.515l0.125,0.036l0.078-0.036l-0.016-0.078l-0.073-0.073l-0.099,0.01l-0.062,0.062L1265.396,512.515z M1266.232,514.111l0.109-0.042l0.094-0.104l-0.026-0.094l-0.099-0.042l-0.104,0.057l-0.042,0.078l0.01,0.12L1266.232,514.111z M1266.471,514.386l0.036,0.042l0.104-0.042v-0.042l-0.088-0.005L1266.471,514.386z M1265.458,514.646l-0.01,0.062l0.073,0.031l0.068-0.021l0.068-0.083l0.047-0.036l0.068,0.005l0.052-0.036l-0.068-0.083l-0.104,0.01L1265.458,514.646z M1265.827,514.911l0.052,0.005l0.01-0.042l-0.057-0.031l-0.036,0.021L1265.827,514.911z M1265.78,515.374l0.057,0.021l0.01-0.057l-0.047-0.047l-0.036,0.026L1265.78,515.374z M1264.813,512.858l-0.099,0.099l-0.057,0.208l0.083,0.13l0.047,0.177l0.088,0.114l0.192,0.068l0.109-0.005l0.187-0.114l0.151-0.016l0.213,0.135l0.229,0.073l0.042-0.062l-0.016-0.146l-0.109-0.073l-0.142,0.047l-0.118-0.021l-0.146-0.146l-0.042-0.14l-0.062-0.068l-0.104-0.005l-0.099,0.031l-0.062-0.062l-0.083-0.296l-0.094-0.109l-0.104,0.036l0.016,0.073L1264.813,512.858z M1264.02,511.559l0.062,0.076l0.305,0.18l0.298,0.111l0.125-0.035l0.187-0.028l0.166,0.028l0.18-0.076l0.042-0.118l-0.048-0.125l-0.243-0.111l-0.09-0.104l-0.083-0.437l-0.09-0.055l-0.111,0.028l-0.166,0.263l-0.146,0.09l-0.229,0.014l-0.235,0.062l-0.055,0.062l0.035,0.139L1264.02,511.559z M1263.05,511.649l-0.021-0.059l0.031-0.045l-0.031-0.035l-0.104,0.017l-0.159-0.156l-0.385-0.249l-0.036-0.062l0.034-0.021l-0.005-0.029l-0.042-0.042l-0.055-0.094l-0.018,0.013l0.023,0.073l0.005,0.055l-0.042,0.008l-0.203-0.177l0.01-0.088l-0.036-0.026l-0.052,0.016l-0.01-0.042l0.06-0.074l-0.008-0.072l-0.27-0.307l0.036-0.073l-0.036-0.031l-0.099-0.005l-0.037-0.041l-0.249-0.094l-0.146,0.083l-0.057,0.125l0.057,0.229l-0.125,0.353l0.104,0.208l0.177,0.104l0.208-0.021l0.052-0.125l0.114,0.005l0.208,0.307l-0.016,0.561l0.016,0.068l0.062,0.052l0.016,0.166l0.125,0.161v0.083l-0.083,0.068l0.026,0.12l0.208,0.166l0.177,0.01l0.166-0.104l0.047-0.078l-0.016-0.068l0.088-0.094l0.083,0.036l0.213,0.016l0.239,0.187l0.083-0.021l0.01-0.135l0.203-0.156l0.01-0.088l-0.057-0.102l-0.049-0.017l-0.048,0.024l-0.038-0.052l0.024-0.073l-0.042-0.094l-0.003-0.09l-0.042-0.042l-0.052,0.021L1263.05,511.649z M1264.921,517.244l0.048-0.035l0.021-0.055l0.125-0.121l0.069-0.003l0.094,0.059l0.035,0.059l-0.038,0.128l-0.087,0.073l0.014,0.035l0.062,0.007l0.073-0.031l0.035,0.007l-0.003,0.055l0.024,0.014l0.055-0.042l0.076,0.031v0.049l0.021,0.014l0.052-0.045l0.042,0.003l-0.024,0.08l0.035,0.045l0.163-0.019l0.094-0.042l0.151,0.021l0.197-0.073l0.047-0.078v-0.12l0.12-0.187l-0.016-0.062l-0.146-0.031l-0.151-0.146l-0.052-0.187l-0.177-0.223l-0.151-0.031l-0.094,0.052l-0.12,0.021l-0.05-0.007l-0.021-0.059l-0.045-0.01l-0.102,0.05l-0.033,0.03v0.038l-0.031,0.038l-0.054,0.002l-0.053,0.049v0.083l-0.021,0.083l-0.099,0.031l-0.078,0.062l-0.021,0.114l-0.066,0.14l0.01,0.076L1264.921,517.244z M1263.572,512.443l0.057-0.047l-0.047-0.026l-0.062,0.031v0.047L1263.572,512.443z M1262.257,512.817l0.052,0.01l0.016-0.036l-0.052-0.042l-0.042,0.026L1262.257,512.817z M1261.682,501.178l0.13,0.005l0.078-0.099l-0.042-0.104l-0.083-0.052l-0.114,0.026l-0.062,0.099L1261.682,501.178z M1262.825,501.729l0.083-0.052l0.109-0.01l0.161-0.073l-0.005-0.099l-0.125-0.01l-0.094,0.021l-0.016,0.073l-0.13,0.125L1262.825,501.729z M1263.038,502.3h0.078l0.047-0.036l-0.021-0.068l-0.078-0.005l-0.052,0.057L1263.038,502.3z M1262.757,502.41l0.047-0.031l-0.036-0.031l-0.057,0.005l-0.026,0.047L1262.757,502.41z M1262.613,502.374l-0.012-0.037h-0.042l-0.047-0.109l0.042-0.068l-0.01-0.078l-0.146-0.275l-0.166-0.057l-0.135,0.026l-0.114,0.109l-0.042,0.166l-0.014,0.154l0.038,0.09l0.111,0.135l0.073,0.047l0.026,0.057l-0.016,0.099l0.026,0.062l0.073,0.01l0.078-0.068l-0.005-0.062l-0.052-0.062l0.042-0.042l0.088,0.016l0.13-0.036l0.031-0.047L1262.613,502.374z M1259.127,500.334l0.052,0.018l0.026,0.034l-0.001,0.06l0.037,0.003l0.023-0.07l-0.021-0.052l-0.043-0.023l0.01-0.031l-0.031-0.035h-0.052l-0.027,0.055L1259.127,500.334z M1259.312,500.638l0.055,0.081l0.06-0.008v-0.052l0.039-0.057l-0.026-0.068l-0.055-0.018l-0.062,0.029l-0.023,0.042L1259.312,500.638z M1263.473,504.076l0.021-0.017l-0.003-0.024h-0.024l-0.01,0.028L1263.473,504.076z M1264.311,504.644l0.042,0.024l0.069-0.01l0.059-0.066l-0.007-0.066l-0.076-0.017l-0.073,0.021l-0.024,0.055L1264.311,504.644z M1262.066,504.17l0.073,0.066l0.139-0.014l0.239,0.035l0.142-0.055l0.035-0.18l0.059-0.055l0.024-0.114l-0.038-0.142l-0.159-0.1l-0.159-0.007l-0.26,0.08l-0.076,0.135l0.004,0.132l0.031,0.094L1262.066,504.17z M1263.147,508.462l0.132,0.01l0.09-0.021l0.159,0.003l0.062,0.028l0.107-0.035l0.27-0.277l0.045-0.146l0.083-0.1l0.111-0.166l-0.031-0.035l-0.111-0.003l-0.215,0.035l-0.184,0.094l-0.125,0.028l-0.17,0.149l-0.083,0.024l-0.253,0.211l-0.021,0.114L1263.147,508.462z M1264.408,506.383l0.028,0.09l-0.007,0.132l0.069,0.437l0.097,0.159l0.062,0.381l-0.028,0.18l0.09,0.374l0.118,0.014l0.062-0.132l-0.049-0.284l0.042-0.18l-0.042-0.187l-0.076-0.076l-0.076-0.485l-0.152-0.485l-0.062-0.076l-0.083,0.007l-0.042,0.076L1264.408,506.383z M1264.637,509.245l0.097,0.291l0.076,0.083l0.035,0.125l-0.021,0.159l0.104,0.319l-0.028,0.18l0.097,0.139l0.118,0.007l0.125-0.159l-0.021-0.443l-0.055-0.09l-0.035-0.27l-0.194-0.589l0.035-0.125l-0.048-0.215l-0.08-0.072l-0.01-0.042l0.028-0.108l-0.021-0.055h-0.069l-0.028,0.187l0.007,0.187l-0.097,0.353L1264.637,509.245z M1260.919,506.453l0.045,0.076l0.125,0.069l0.048-0.035l-0.021-0.045l-0.062-0.014l-0.107-0.069L1260.919,506.453z M1260.897,509.358l0.125,0.052l0.27,0.14l0.099-0.013l0.052-0.068l-0.01-0.06l-0.052-0.073l0.01-0.062l0.057-0.052l0.01-0.083l-0.057-0.042l-0.104,0.005l-0.14-0.036l-0.166-0.005l-0.135,0.057l-0.021,0.14L1260.897,509.358z M1261.016,508.978l0.078,0.031l0.229-0.016l0.057-0.078l-0.026-0.052h-0.062l-0.036-0.083l0.036-0.057l-0.047-0.026l-0.114,0.078l-0.13,0.151L1261.016,508.978z M1261.501,508.923l0.038,0.003l0.054-0.042l0.036-0.062l-0.036-0.083h-0.042l-0.01,0.083l-0.073,0.062L1261.501,508.923z M1260.902,506.811v-0.047l-0.042-0.016l-0.026,0.036l0.026,0.047L1260.902,506.811z M1261.261,507.7l0.01-0.042l-0.036-0.021l-0.042,0.026l0.026,0.036H1261.261z M1261.406,508.168l0.021-0.042l-0.042-0.042l-0.052,0.016l0.016,0.057L1261.406,508.168z M1261.422,508.323l0.042,0.076h0.028l0.014-0.055l-0.021-0.078l-0.036-0.036l-0.036,0.026L1261.422,508.323z M1260.985,507.097l0.036-0.016l0.005-0.042l-0.042-0.005l-0.036,0.026L1260.985,507.097z M1260.356,509.124l0.036-0.021l-0.026-0.042h-0.042l-0.01,0.042L1260.356,509.124z M1259.7,509.023l-0.038,0.059l0.007,0.066l0.146,0.076l0.104,0.007l0.038-0.048l-0.003-0.052l0.024-0.038l0.083-0.028l0.08,0.014l0.031-0.038l-0.017-0.048l0.021-0.035l0.125-0.052h0.308l0.076,0.01l0.059,0.048l0.121,0.01l0.08-0.028l0.104-0.132l0.066-0.111l0.076-0.028l0.243,0.01l0.042-0.01l0.024-0.052l-0.014-0.128l-0.024,0.01l-0.004,0.045l-0.028,0.014l-0.045-0.062l0.01-0.059l-0.024-0.028l-0.035-0.003l-0.045-0.121l0.01-0.048l-0.021-0.062l-0.035-0.038l-0.007-0.118l-0.042-0.042l-0.017-0.097l-0.035-0.069l-0.003-0.035l0.052,0.048l0.021,0.076l0.031,0.042l0.042-0.003l0.007-0.094l-0.062-0.107l-0.104-0.042l-0.062-0.038l0.021-0.035l0.062-0.007l0.014-0.049l-0.017-0.031l0.01-0.1l-0.069-0.17l0.007-0.08l-0.042-0.045h-0.042l-0.031,0.059l-0.045,0.014l-0.028-0.017l-0.031-0.132l-0.055-0.052l-0.031-0.204l0.017-0.08l-0.017-0.059l-0.042-0.031l-0.021-0.09l0.026-0.057l0.104-0.026l-0.026-0.036l-0.125,0.005l-0.068-0.042l-0.057-0.005l-0.104,0.068l-0.031,0.078l0.026,0.083l0.01,0.062l-0.052,0.14l0.031,0.047l0.01,0.161l-0.109,0.192l-0.104,0.078l-0.197,0.005l-0.146-0.021l-0.083-0.099l-0.021-0.333l-0.057-0.12l0.01-0.135l-0.036-0.12l0.005-0.135l-0.099-0.275l0.01-0.068l-0.047-0.047l-0.146-0.083l-0.109-0.229l-0.099-0.078l-0.114-0.265l-0.047-0.01l-0.135,0.104l-0.073,0.192l-0.047,0.468l0.052,0.104l0.073,0.296l0.109,0.192l0.005,0.146l0.088,0.26l0.021,0.203l0.125,0.265l0.01,0.151l-0.047,0.062l-0.005,0.099l0.026,0.12l-0.078,0.135l0.016,0.109l0.13,0.182l0.12,0.286l0.125,0.104l0.104,0.14L1259.7,509.023z M1261.301,507.766l0.024,0.028l0.028-0.017l-0.004-0.035l-0.031-0.01L1261.301,507.766z M1260.618,509.03l0.042-0.003l0.003-0.024l-0.042-0.014l-0.028,0.021L1260.618,509.03z M1261.99,510.457v-0.031l-0.024-0.014l-0.024,0.017l0.024,0.031L1261.99,510.457z M1262.194,510.863l0.038,0.003l0.007-0.024l-0.048-0.021l-0.028,0.007L1262.194,510.863z M1262.17,510.783h0.031l0.014-0.024l-0.028-0.014l-0.031,0.017L1262.17,510.783z M1263.591,512.553l0.024-0.007l-0.007-0.038l-0.031-0.021l-0.017,0.024L1263.591,512.553z M1263.431,512.644l0.024-0.021l-0.014-0.031l-0.024,0.003l-0.017,0.035L1263.431,512.644z M1263.629,512.488l0.01,0.052l0.028,0.024l-0.003-0.049l-0.014-0.028H1263.629z M1266.359,514.22l0.035,0.01l-0.004-0.031l-0.038-0.038l-0.024,0.007L1266.359,514.22z M1266.397,514.473l0.028-0.014l-0.003-0.031l-0.031-0.01l-0.021,0.031L1266.397,514.473z M1261.437,508.944l0.016-0.021l-0.013-0.018l-0.026,0.008l-0.003,0.023L1261.437,508.944z M1261.482,509.435l0.016-0.018l-0.008-0.034l-0.021,0.008l-0.003,0.034L1261.482,509.435z M1262.451,501.37l0.031,0.003l0.007-0.035l-0.028-0.021l-0.028,0.028L1262.451,501.37z M1258.984,499.983l0.083,0.068l0.083,0.005l0.104-0.062l-0.005-0.104l-0.068-0.031l-0.13,0.016l-0.068,0.047V499.983z M1258.917,499.754l0.057-0.021l0.026-0.322l-0.052-0.088l-0.099-0.026l-0.01,0.047l0.036,0.068l-0.005,0.088l-0.036,0.042l0.01,0.151L1258.917,499.754z M1259,499.786l0.005,0.047l0.068-0.005l0.026-0.036l-0.052-0.021L1259,499.786z"/>
</svg>
