<svg xmlns="http://www.w3.org/2000/svg" viewBox="1254.806 499.146 13.664 27.637">
  <path d="M1266.062,522.729l0.062,0.047l-0.021,0.218l-0.088-0.083L1266.062,522.729z M1268.283,524.018l0.114,0.01l0.073-0.142l-0.076-0.052l-0.097,0.08L1268.283,524.018z M1266.592,526.471l0.156,0.27l0.343,0.042l0.146-0.26l-0.281-0.187h-0.208L1266.592,526.471z M1264.721,523.903l0.561,0.53l0.27-0.031l0.187-0.457l-0.229-0.197h-0.218l-0.125-0.322l0.073-0.26l-0.208-0.042l-0.239,0.114l-0.01,0.208l-0.135,0.177L1264.721,523.903z M1260.858,516.467l0.119,0.061l0.045-0.042l-0.046-0.047l0.028-0.06l-0.072-0.031L1260.858,516.467z M1260.793,516.878l0.052,0.111l0.094-0.007l0.118-0.146l0.142,0.003l0.146,0.135l-0.087,0.163l0.104,0.1l0.177,0.014l0.135,0.111l0.357-0.049l0.242-0.146l0.028-0.215l0.121-0.163l-0.066-0.049l-0.087,0.017l-0.211-0.184l-0.01-0.163l-0.142-0.118l-0.038-0.1l-0.263-0.007l-0.055,0.059l-0.087,0.007l-0.059-0.038l-0.132,0.031l-0.132,0.187l-0.021,0.08l-0.073,0.076l-0.104,0.028l-0.062,0.18L1260.793,516.878z M1263.911,521.035l0.031,0.156l-0.114,0.062v0.146l0.457,0.27l0.26,0.01l0.395,0.229l0.208-0.198l-0.031-0.27l-0.343-0.208l-0.125-0.146l0.27-0.114l-0.083-0.125h-0.27l-0.01-0.218l-0.187-0.229l-0.343,0.021l-0.166,0.166l-0.062,0.395L1263.911,521.035z M1254.806,499.375l0.031,0.177l0.125,0.01l0.021-0.374l-0.114-0.042L1254.806,499.375z M1254.993,499.77l0.094,0.156l0.197-0.083l-0.073-0.166h-0.146L1254.993,499.77z M1255.076,500.165l0.156,0.135l0.052-0.135l-0.208-0.114V500.165z M1255.326,500.581l0.094-0.021l0.062-0.125l-0.114-0.135l-0.073,0.114L1255.326,500.581z M1257.55,500.913l0.125,0.125l0.146-0.021l0.031-0.208l-0.177-0.062L1257.55,500.913z M1258.932,501.558l0.26-0.146l-0.052-0.114l-0.198,0.021l-0.166,0.218L1258.932,501.558z M1260.418,504.478l0.062-0.135l-0.125-0.042l-0.094,0.042l-0.01,0.125L1260.418,504.478z M1259.021,502.02l-0.042,0.104l0.061,0.04l0.104-0.076l-0.042-0.09L1259.021,502.02z M1258.104,502.33l0.069,0.242l0.159-0.083l-0.014-0.152l0.277-0.048l0.062-0.09l-0.132-0.048l0.048-0.249l-0.187-0.305l-0.256-0.021l-0.194,0.208l-0.021,0.36L1258.104,502.33z M1258.069,504.078l0.156-0.047l0.187,0.062l0.25-0.099l0.12-0.364l-0.172-0.192l-0.348,0.016l-0.182,0.109l0.016,0.249l-0.068,0.187L1258.069,504.078z M1261.052,512.273l0.114-0.125l0.021-0.146l-0.156-0.062l-0.073,0.239L1261.052,512.273z M1261.312,512.232l0.094,0.094l0.156-0.01l-0.031-0.161l-0.073-0.021L1261.312,512.232z M1262.279,513.874l0.125-0.114l-0.083-0.156l-0.166,0.052l-0.021,0.218H1262.279z M1261.52,514.529l0.26-0.125l0.042-0.104l-0.177-0.031l-0.26,0.187L1261.52,514.529z M1262.559,514.196l0.073-0.042l-0.083-0.078l-0.078-0.005l-0.057,0.114L1262.559,514.196z M1261.395,515.797l0.12,0.203l0.123-0.019l-0.097-0.184l-0.088-0.042L1261.395,515.797z M1261.077,516.299l0.073-0.049l0.163-0.09l-0.076-0.09l-0.152,0.09l-0.069,0.097L1261.077,516.299z M1261.894,515.994l0.09,0.083l0.097-0.094l-0.021-0.047l-0.088,0.005L1261.894,515.994z M1257.113,508.823l0.198-0.021l0.052-0.099l-0.151-0.104l-0.094-0.01l-0.094,0.166L1257.113,508.823z M1257.456,508.682l0.052,0.062l0.104-0.062l0.016-0.135l-0.073,0.005L1257.456,508.682z M1256.828,508.953l0.005,0.14l0.135,0.14l0.338,0.135l0.125-0.083l-0.031-0.197l0.042-0.156l-0.187-0.052l-0.333-0.005L1256.828,508.953z M1260.678,512.705l-0.047,0.218l0.088,0.286l0.161,0.224l0.286,0.036l0.146-0.125h0.223l0.374,0.182l0.088-0.036l-0.026-0.182l-0.13-0.078l-0.187,0.042l-0.161-0.146l-0.057-0.12l-0.088-0.088l-0.177,0.01l-0.083-0.052l-0.016-0.13l-0.172-0.286l-0.135,0.021l0.016,0.13L1260.678,512.705z M1260.008,511.364l0.099,0.12l0.452,0.213l0.198,0.016l0.125-0.052l0.244,0.005l0.203-0.083l-0.01-0.187l-0.307-0.197l-0.057-0.307l-0.083-0.203l-0.197-0.016l-0.047,0.203l-0.229,0.182l-0.255-0.005l-0.239,0.094l-0.005,0.182L1260.008,511.364z M1260.751,508.546l-0.083,0.048l-0.042,0.201l-0.042,0.242l0.09,0.27l0.139,0.187l-0.007,0.249l0.069,0.409l0.083,0.194h0.139l0.104-0.159l-0.014-0.499l-0.152-0.554l-0.173-0.353l0.062-0.083v-0.18l-0.118-0.132v-0.201l-0.118,0.028l0.028,0.242L1260.751,508.546z M1259.005,508.067l0.014,0.152l0.201,0.069l0.471-0.007l0.256-0.312l0.048-0.152l0.187-0.166l-0.021-0.132l-0.291,0.035l-0.471,0.222l-0.125,0.139L1259.005,508.067z M1260.398,506.307l0.076,0.52l0.132,0.34v0.492l0.118,0.305l0.111-0.014l0.035-0.249l-0.042-0.062l-0.014-0.111l0.042-0.104l-0.007-0.229l-0.111-0.055l-0.09-0.54l-0.166-0.513h-0.125l-0.021,0.076L1260.398,506.307z M1257.363,510.915h0.139l0.076-0.166l0.139-0.021l0.035,0.09l0.159,0.194l0.048,0.305l-0.055,0.284l0.069,0.27l0.146,0.159l0.007,0.125l-0.083,0.028l-0.007,0.125l0.166,0.194l0.208,0.042l0.076-0.125l0.097,0.028l0.111-0.069l-0.055-0.09l0.076-0.09l0.326,0.042l0.201,0.132l0.146-0.007l0.166-0.291l-0.048-0.132l-0.09,0.028l-0.028,0.104l-0.035,0.069l-0.042-0.152l0.132-0.125l-0.097-0.27h-0.097l-0.236-0.166l0.076-0.048l-0.055-0.062l-0.152-0.007l-0.208-0.187l-0.423-0.291l0.083-0.069l-0.069-0.076l-0.146,0.028l-0.173-0.173l0.062-0.125l-0.236-0.249l-0.083-0.201l-0.312-0.152l-0.187,0.083l-0.049,0.166l0.069,0.166l-0.146,0.333l0.083,0.229L1257.363,510.915z M1255.045,506.443l0.104,0.634l0.125,0.27l0.021,0.426l-0.094,0.073l-0.01,0.125l0.218,0.437l0.26,0.281l-0.031,0.218l0.198,0.083l0.146-0.104l0.114,0.031l0.083-0.052l-0.062-0.073l0.104-0.094l0.333-0.031l0.125,0.083l0.218,0.01l0.073-0.166l0.146-0.156l0.312,0.042l0.042-0.114l-0.146-0.104l-0.135-0.405l0.083-0.062l-0.031-0.166l-0.187-0.114l-0.031-0.094l0.094-0.052l0.031-0.385l-0.114-0.042l-0.083,0.114l-0.094-0.021l-0.052-0.468l-0.104-0.156l0.094-0.083l0.021-0.083l-0.218-0.042l-0.156,0.083l0.01,0.603l-0.177,0.249l-0.229,0.01l-0.177-0.083l-0.052-0.405l-0.177-0.863l-0.218-0.135l-0.312-0.509l-0.198,0.083l-0.104,0.644L1255.045,506.443z M1257.025,506.406l0.088-0.026l-0.005-0.042l-0.057,0.005l-0.13-0.114l-0.01,0.078L1257.025,506.406z M1257.439,508.123l-0.028-0.125l-0.059,0.028l0.052,0.128L1257.439,508.123z M1257.325,507.946l0.052-0.021l-0.035-0.062h-0.042L1257.325,507.946z"/>
</svg>
