<svg xmlns="http://www.w3.org/2000/svg" viewBox="1335.512 500.725 5.203 2.426">
  <path d="M1337.939,502.167l0.01,0.016l-0.01,0.026l-0.026,0.002l-0.012-0.017l0.012-0.028L1337.939,502.167z M1338.076,502.326l0.028-0.002l0.014-0.036l-0.036-0.043l-0.038,0.01v0.05L1338.076,502.326z M1340.605,503.12l0.026,0.007l0.019-0.014l-0.012-0.031l-0.026-0.005l-0.019,0.01v0.019L1340.605,503.12z M1340.662,503.151l0.019-0.002l-0.005-0.024h-0.016l-0.01,0.017L1340.662,503.151z M1340.639,502.934l-0.001,0.021l0.011,0.011l0.008-0.015l-0.004-0.018L1340.639,502.934z M1340.707,502.925l0.008-0.014l-0.007-0.011l-0.012,0.007v0.012L1340.707,502.925z M1335.559,501.09l0.097,0.114l0.05,0.012l0.073,0.059l0.021,0.045l0.083,0.071l0.057,0.016l0.026,0.028l0.002,0.026l0.038,0.05l0.042,0.021l0.031,0.029l0.009,0.033l0.083,0.099l0.069,0.031l0.038,0.062l0.003,0.073l0.062,0.107l0.059,0.021l0.049,0.089l0.086,0.039l0.119-0.024l0.058-0.033l0.055-0.003l0.033,0.022l0.343-0.073l0.09,0.017l0.052-0.028l0.007-0.035l0.045-0.028l0.066,0.021l0.069,0.121l0.159,0.048l0.066-0.052l0.007-0.09l-0.031-0.069l0.01-0.059l0.08-0.038l0.007-0.038l-0.028-0.01l0.014-0.066l0.062-0.048l0.014-0.054l-0.071-0.139l0.005-0.036l-0.035-0.105l-0.033-0.036l0.012-0.021l-0.011-0.015l-0.04-0.012l-0.018-0.025l0.011-0.018l-0.01-0.017l-0.024-0.008l-0.007-0.033l-0.079-0.086l-0.018-0.05l-0.015-0.014l-0.025-0.008l-0.117-0.177l-0.057-0.036l-0.128-0.035l-0.033,0.028l-0.03,0.002l-0.038-0.014l-0.125,0.024l-0.031,0.057l-0.149,0.007l-0.038-0.023l-0.036-0.002l-0.022,0.02l-0.092,0.029l-0.071-0.005l-0.201,0.073l-0.076-0.003l-0.094,0.045l-0.002,0.038l-0.038,0.012l-0.045-0.033l-0.047-0.003l-0.1,0.04l-0.076-0.007l-0.12-0.068l-0.014-0.028l-0.028-0.002l-0.007,0.028h-0.024l-0.017-0.019l-0.042,0.01l-0.066,0.078L1335.559,501.09z M1338.235,502.411l0.005,0.036l0.036,0.047l0.106,0.038l0.035-0.009l0.047,0.024l-0.016,0.029l0.028,0.04l0.024-0.003l0.019,0.021l-0.002,0.026l0.028,0.019l0.021-0.024l0.002-0.038l0.021-0.002l0.038,0.047l0.035,0.104l0.04,0.047l0.028,0.009l0.042,0.047l0.064,0.019l0.064-0.012l0.118-0.071l0.052,0.012l0.004,0.021l0.047,0.057l0.092,0.009l0.042-0.007l0.056,0.028l0.042,0.059l-0.012,0.028l0.028,0.019h0.12l0.05-0.033l0.031-0.002l0.028-0.019l0.033,0.002l0.04,0.026l0.088,0.019l0.035,0.002l0.111-0.031l0.024,0.005l0.014,0.019l0.078,0.007l0.073,0.012l0.092-0.003l0.028-0.017l0.022-0.002l0.019,0.009l0.083,0.005l0.031-0.012l0.18,0.024l0.026-0.006l0.012-0.046l0.028-0.032l0.01-0.037l-0.008-0.07l-0.042-0.031l-0.014-0.05l-0.036-0.012l-0.016,0.021l-0.029-0.002l-0.028-0.021l0.002-0.017l-0.042-0.042l-0.048-0.023h-0.074l-0.002-0.016l0.024-0.014l-0.007-0.016l-0.036,0.003l-0.01-0.017v-0.028l-0.021-0.003l-0.01,0.019l-0.054,0.038l-0.069,0.007l-0.021-0.009l0.024-0.028l0.052-0.028l0.033-0.047l-0.029-0.023l-0.038,0.009l-0.019-0.017l0.002-0.024l-0.029-0.036l-0.035,0.003l-0.021-0.012l0.005-0.036l-0.026-0.021l-0.054-0.005l-0.05,0.043l-0.024-0.005l-0.017-0.033l-0.033-0.009l-0.019,0.016l-0.023-0.003l-0.021-0.029l-0.045-0.023l-0.064,0.009l-0.042-0.016l-0.043,0.009l-0.033-0.033l-0.009-0.029l-0.028-0.016l-0.031,0.005l-0.021-0.012l-0.003-0.028l-0.057-0.038l-0.017,0.003l0.012,0.023l-0.016,0.009l-0.024-0.012l-0.016-0.042l-0.021-0.016l-0.01,0.014l0.023,0.035l-0.014,0.014l-0.038-0.014l-0.059-0.036l-0.002-0.028l-0.073-0.054l-0.033-0.002l-0.023,0.016l-0.04,0.003l-0.022-0.01h-0.069l-0.028,0.017l-0.031,0.002l-0.017-0.01l-0.049,0.003l-0.109,0.048l-0.047,0.007l-0.059,0.05l-0.144,0.003l-0.048-0.019l-0.064,0.021l-0.026,0.052l-0.066,0.061l-0.038,0.026l-0.002,0.035L1338.235,502.411z"/>
</svg>
