<svg xmlns="http://www.w3.org/2000/svg" viewBox="1331.535 500.721 5.227 2.461">
  <path d="M1331.535,501.028l0.057-0.094l0.062-0.007l0.042,0.01l0.038-0.007l0.123,0.087l0.099,0.007l0.106-0.024l0.031,0.002l0.03,0.025l0.052-0.016l0.017-0.047l0.087-0.045l0.08,0.01l0.196-0.074l0.088,0.016l0.14-0.062l0.094,0.026l0.099-0.031l0.073-0.057l0.177-0.026l0.166,0.062l0.276,0.348l0.166,0.296l-0.01,0.057l0.073,0.104l-0.01,0.073l-0.057,0.042l-0.028,0.045l0.021,0.055l-0.021,0.035l-0.062,0.021l-0.017,0.069l0.028,0.045l0.007,0.097l-0.059,0.062l-0.092-0.016l-0.078-0.034l-0.076-0.109l-0.08-0.021l-0.038,0.028l-0.029,0.045l-0.047,0.016l-0.08-0.026l-0.152,0.055l-0.194,0.024l-0.045-0.017l-0.035,0.003l-0.045,0.035l-0.146,0.014l-0.08-0.035v-0.048l-0.035-0.035l-0.049-0.012l-0.028-0.031l-0.016-0.061l-0.043-0.029l-0.016-0.029l0.01-0.059l-0.049-0.062l-0.076-0.045l-0.198-0.249l-0.09-0.035l-0.062-0.069l-0.024-0.055l-0.09-0.048l-0.135-0.118L1331.535,501.028z M1333.969,502.233l0.03-0.018l0.003-0.021l-0.016-0.017l-0.025,0.004l-0.01,0.025L1333.969,502.233z M1334.076,502.297l0.015,0.004l0.01,0.032l0.05,0.021l0.019-0.037l-0.036-0.05l-0.057,0.019L1334.076,502.297z M1336.686,503.147l0.033,0.001l0.008-0.018l-0.015-0.029l-0.035,0.001l-0.008,0.021L1336.686,503.147z M1334.362,502.537l0.117,0.01l0.047,0.023l-0.021,0.034l0.099,0.096l0.031-0.023l-0.021-0.036l0.029-0.008l0.039,0.049l0.039,0.112l0.117,0.107l0.083,0.005l0.14-0.075l0.091,0.005l0.019,0.052l0.059,0.028l0.065-0.002l0.073,0.021l0.01,0.055l0.036,0.065l0.132,0.008l0.099-0.065l0.034-0.003l0.049,0.039l0.104,0.018l0.132-0.021l0.044,0.018l0.125,0.016l0.158-0.018l0.127-0.005l0.22,0.039l0.019-0.012l0.039-0.089l-0.013-0.101l-0.055-0.096l-0.047-0.005l-0.023,0.021l-0.036-0.013l-0.008-0.039l-0.091-0.055l-0.062,0.013l-0.013-0.023l0.013-0.026l-0.047-0.036l-0.026,0.005l-0.049,0.044l-0.083,0.01l-0.016-0.031l0.073-0.034l0.057-0.055l-0.036-0.029l-0.051,0.012l-0.019-0.049l-0.036-0.028l-0.032,0.001l-0.007-0.017l0.018-0.024l-0.036-0.042h-0.044l-0.049,0.034h-0.031l-0.094-0.031l-0.039-0.036l-0.052-0.01l-0.049,0.005l-0.081-0.016l-0.112-0.068l-0.034-0.039l-0.073-0.008l-0.044-0.055l-0.023,0.013l0.018,0.036l-0.021,0.013l-0.042-0.021l-0.017-0.042l-0.104-0.073l-0.284,0.007l-0.17,0.059l-0.1,0.055l-0.159-0.01l-0.073,0.021l-0.121,0.128l-0.017,0.052l0.028,0.083L1334.362,502.537z M1336.745,503.153l-0.018,0.016l0.031,0.013l0.004-0.022L1336.745,503.153z"/>
</svg>
