<svg xmlns="http://www.w3.org/2000/svg" viewBox="295.283 381.294 56.530 42.546">
  <path data-id="PA" d="M334.046,423.514l0.069,0.083l-0.125,0.152l-0.083-0.139L334.046,423.514z M332.34,415.631l-0.187-0.031l-0.094,0.099l0.281,0.234l0.088-0.13L332.34,415.631z M340.825,416.051l-0.008-0.036L340.83,416l-0.015-0.068l0.025-0.035l-0.012-0.05l-0.039-0.004l-0.083,0.034l-0.07,0.115l-0.419,0.406l-0.826,0.262l-0.242,0.021l-0.251,0.099l-0.079,0.005l-0.564,0.255l-0.174,0.135l-0.242,0.117l-0.029,0.086l-0.27,0.234l-0.169,0.026l-0.416,0.179l-0.517,0.156L335.666,418l-0.125-0.044l-0.452-0.013l-0.2-0.13l-0.257-0.262l-0.395-0.512l-0.304-0.068l-0.065-0.159l0.065-0.049l-0.029-0.034l-0.094-0.047l-0.088-0.127l-0.133-0.023l-0.003,0.065l0.127,0.052l-0.013,0.042l-0.171-0.026l-0.026,0.047l0.184,0.135l0.054,0.117l0.14,0.148l0.161,0.073l0.07,0.094l-0.044,0.114l-0.12,0.008l-0.179-0.06l-0.114,0.018l-0.034-0.078l-0.055-0.023l-0.01,0.075l-0.096,0.078l-0.14,0.005l-0.065-0.034l-0.083,0.003l-0.172,0.083l-0.127-0.026l-0.078-0.138l-0.192-0.078l-0.104,0.021l-0.151-0.062l0.002-0.281l-0.08-0.083l0.017-0.159l0.045-0.074l0.255,0.031l0.026-0.088l-0.166-0.114l-0.161,0.088l-0.208-0.016l-0.286-0.244l0.016-0.088h0.151l0.005-0.109l-0.12-0.094l0.031-0.088l0.094-0.094l0.01-0.13l-0.13,0.01l-0.644-0.582l-0.099,0.054l-0.083,0.197l-0.197,0.01l-0.187-0.211l-0.411-0.22l-0.121-0.007l-0.099,0.258l0.135,0.097l0.022,0.081l-0.35,0.104l0.009,1.512l0.18-0.052l0.083,0.146l0.423,0.208l0.132,0.253l-0.194,0.173l-0.267,0.042l-0.156,0.121l0.052,0.087l-0.055,0.121l-0.128,0.028l-0.017,0.1l0.343,0.398l0.014,0.236l-0.052,0.139l-0.055,0.319l-0.282,0.083l-0.424,0.329l0.01,0.09l0.198,0.135l0.165,0.043l0.206,0.532l-0.035,0.32l0.107,0.033l0.052-0.08l-0.059-0.412l0.01-0.357l0.163-0.156l0.471-0.135l0.523,0.133l0.226,0.112l0.122-0.101l-0.003-0.086l0.073-0.013l0.107,0.122l0.218-0.023l0.042-0.117l0.112-0.005l0.133,0.107l0.109-0.016l0.088-0.174l0.049,0.018l0.016,0.086l-0.039,0.094l0.026,0.088l-0.049,0.159l0.005,0.057h0.177l0.096,0.039l0.117-0.075l0.26,0.049l0.247-0.003l0.109-0.125l0.026,0.044l-0.036,0.047l0.01,0.094l0.213,0.091l0.265,0.055l0.049,0.065l0.108,0.029l0.037-0.117l-0.042-0.13l0.039-0.07l0.044,0.146l0.143,0.166l0.073,0.192l-0.075,0.042l0.013,0.062l0.14,0.148l0.104,0.234l0.036-0.068l-0.005-0.101l0.031-0.013l0.055,0.182l-0.042,0.153l0.138,0.192l0.01,0.262l0.091,0.143l0.057-0.021l0.052-0.044l0.081,0.021l0.01,0.052l-0.109,0.07l0.021,0.034l0.32,0.089l0.284,0.121l0.246,0.024l0.218,0.149l0.125-0.094v-0.291l-0.069-0.003l-0.017-0.048l0.156-0.062l0.049-0.215l-0.045-0.163l0.038-0.048l0.114,0.055h0.146l0.107-0.236l0.076-0.042l-0.048,0.118l-0.014,0.111l0.038,0.111l-0.055,0.045l-0.045,0.149l0.156,0.159l-0.014,0.243l0.222,0.204l0.111,0.249l-0.055,0.094l0.007,0.087l0.1,0.08l0.073,0.125l-0.028,0.125l0.01,0.052l0.073,0.083l0.042,0.149l-0.097,0.055l-0.059,0.187l0.163,0.18l0.624,0.035l0.402-0.104l0.624-0.021l0.057-0.04l0.033-0.092l0.071-0.069l0.166-0.088l0.031-0.073l-0.052-0.114l0.173-0.159l0.137-0.045l0.074-0.007l0.012-0.021l-0.078-0.005l-0.047,0.028l-0.033-0.003l0.066-0.04l0.095-0.005l0.038,0.043l0.106,0.009l0.047-0.031h0.047l0.007,0.026l0.061,0.033l0.085-0.019l0.066-0.042l0.081-0.002l0.08-0.01l0.045-0.048l0.055-0.024l0.061,0.01l0.106-0.042l0.045-0.045l0.007-0.201l-0.265-0.49l-0.473-0.525l-0.149-0.131l-0.091-0.056l-0.147-0.154l-0.099-0.262l-0.042-0.035l-0.029-0.069l-0.042-0.036l-0.088,0.031l-0.166-0.088l-0.137-0.282l-0.024-0.126l-0.012-0.17l0.026-0.01l0.019-0.029l-0.023-0.048l0.031-0.066l0.047,0.01l0.04-0.01l0.01-0.055l0.147-0.196l0.034,0.004l0.013-0.031l-0.01-0.049l0.031,0.044l0.01,0.036l0.094-0.021l0.114-0.029l0.078-0.01l0.034,0.021l-0.078,0.003l-0.005,0.018l0.184-0.007l0.173-0.049l0.752-0.443l0.473-0.369l0.088-0.104l0.312-0.088l0.288-0.274l-0.059,0.003l-0.166,0.125l-0.166-0.016l-0.114-0.057l0.073-0.078l0.156-0.042l0.062-0.171l-0.068-0.249l0.236-0.333l0.081-0.01l0.036,0.039l0.031-0.013l0.008-0.078l0.026-0.016l0.03,0.029l0.214-0.04l0.091-0.036l0.013-0.06l-0.055-0.107l-0.031-0.107l-0.049-0.062l-0.044-0.021l-0.083-0.104l0.091,0.042l0.112,0.112l0.042,0.099l0.018,0.049l0.036,0.034l0.035-0.011l0.232-0.229l0.288-0.048l0.398-0.021l0.197,0.024l0.281,0.019l0.15,0.039l0.039-0.06l0.04-0.045l0.023-0.116l-0.023-0.054l-0.024-0.012l-0.023,0.016l-0.04-0.009l-0.016-0.059l0.031-0.003l0.029,0.009l-0.035,0.009l0.014,0.031l0.031-0.017l0.048,0.004l0.038,0.068l-0.01,0.126l-0.069,0.12l0.039,0.034l0.081,0.01l0.144,0.046l0.201,0.109l0.274,0.088l0.102,0.265l0.109,0.121l0.043-0.007l0.033-0.062l0.059-0.007l0.021-0.026l-0.007-0.059l0.014-0.021l0.019,0.061l0.045,0.042l0.003,0.05l0.085,0.05l0.016,0.125l0.18,0.106l0.171,0.042l0.114,0.078l-0.005,0.099l0.369,0.156l0.01,0.296l0.109,0.146l-0.031,0.187l0.156,0.135l0.161,0.301l0.156,0.036l-0.005-0.13l0.068-0.203l0.057-0.114l0.094-0.01l0.042,0.068l0.057,0.01l0.073-0.047l0.12,0.042l-0.068,0.125l0.062,0.099l0.187-0.109l0.036-0.14l0.083-0.068l0.073,0.036l0.052,0.088l0.088,0.047l-0.016-0.114l-0.052-0.104l0.104,0.094l0.062,0.182l0.192,0.488l0.135,0.073l0.104-0.01l0.27,0.114l0.135,0.114l0.06,0.146l0.088,0.068l-0.112-0.031l-0.06-0.133l-0.117-0.107l-0.249-0.104l-0.065,0.013l0.052,0.055l0.117,0.052l0.057,0.057l-0.177-0.06l-0.091-0.06h-0.065l-0.12-0.088l-0.13-0.312l-0.146-0.057l-0.104-0.197l-0.068-0.042l-0.088,0.192l-0.024,0.213l-0.111,0.09l-0.132-0.035l-0.215,0.132l0.215,0.236l-0.048,0.27l-0.222,0.166l-0.27-0.021l-0.021-0.104l-0.076-0.035l-0.083,0.173l0.152,0.478l0.222,0.208l0.215,0.568l0.589,0.852l0.284,0.236l0.18,0.36l0.395,0.312l0.246-0.81l0.074-0.037l0.275,0.092l0.097-0.069v-0.243l-0.18-0.339l0.166-0.256l0.222,0.042l0.125,0.43l0.187,0.146l0.651-0.908l0.17-0.003l0.017-0.104l-0.083-0.156l0.139-0.229l0.589-0.083v-0.194l-0.249-0.194l0.028-0.416l-0.242-0.464l-0.128,0.01l-0.08-0.152l0.047-0.148l-0.247-0.445l-0.152,0.007l-0.014-0.128l0.204-0.3l-0.036-0.159l0.062-0.039l0.094,0.01l0.014-0.144h-0.045l-0.01,0.045l-0.036,0.016l-0.047-0.028l-0.116,0.054l-0.095,0.003l-0.343-0.201l-0.009-0.04l0.018-0.106l-0.049-0.045l-0.038,0.038l-0.059-0.128l-0.17-0.173l-0.048-0.017l0.038,0.083l-0.048,0.017l-0.194-0.166l-0.236-0.305l0.031-0.066l-0.211-0.305l-0.232-0.243l-0.035,0.021l0.055,0.142l-0.042,0.003l-0.315-0.336l-0.365-0.329l-0.203-0.016l-0.223-0.151l-0.161-0.01l-0.754-0.359l-0.544-0.17l-0.087,0.057l-0.239-0.012l-0.211-0.073l-0.239-0.009l-0.09,0.069l-0.31,0.043l-0.182-0.133l-0.159-0.017l-0.095,0.057l-0.204-0.028l-0.007-0.213l0.1-0.099l0.192-0.026l0.055-0.076l-0.326-0.009l-0.265,0.024l-0.149,0.038l-0.189,0.007l-0.378-0.107l-0.22-0.007l-0.223-0.087l-0.074,0.042l-0.126-0.019l-0.088,0.007l-0.031-0.005l0.049-0.054l-0.071-0.092l-0.171,0.092l-0.123-0.026l-0.197,0.156l0.01,0.05l0.107-0.008l0.052,0.031l-0.085,0.019l-0.292,0.307l-0.038,0.074l-0.036,0.014h-0.092l-0.126,0.123l0.005,0.054l0.033,0.099l-0.024-0.021l-0.024-0.066l-0.023-0.003l-0.023,0.028l0.009,0.026l-0.014,0.024l-0.016-0.019l0.014-0.012l-0.017-0.036l0.023-0.023l-0.045-0.026l-0.022,0.003l-0.004,0.025l-0.021,0.016l-0.024-0.035l-0.064,0.009l-0.031,0.052l-0.005,0.036l0.021,0.05h-0.028l-0.024-0.022l-0.024,0.005l-0.016,0.042l-0.004,0.066l-0.02,0.021l0.008,0.126l0.011,0.044l-0.011,0.025l-0.012-0.049l-0.009,0.046l-0.01-0.004l0.003-0.048v-0.064l-0.026-0.012l-0.022,0.011L340.825,416.051z M340.208,423.007 M332.543,415.891l-0.083,0.125l0.161,0.099l0.088,0.14l0.135-0.031l0.109-0.12l-0.197-0.151L332.543,415.891z M332.699,416.603l-0.073,0.078l0.057,0.047l0.088-0.047l0.161,0.026l0.005-0.135l-0.073-0.052l0.036-0.146l-0.114-0.021L332.699,416.603z M332.158,416.228l0.125,0.182l0.078-0.031l0.052-0.099l-0.057-0.114l-0.14-0.016L332.158,416.228z M334.289,422.884l0.146-0.236l-0.159-0.326l-0.187-0.048l-0.381,0.395l0.007,0.242l0.478,0.43l0.582,0.069l-0.104-0.215l-0.243-0.062L334.289,422.884z M336.492,421.761l-0.062,0.111l0.083,0.104l0.047-0.042l-0.005-0.12L336.492,421.761z M336.056,422.693l-0.029,0.14l0.118,0.031l0.327-0.239l0.161,0.047l0.144-0.139l-0.035-0.048l-0.166-0.042l-0.291,0.197L336.056,422.693z M336.212,422.464l-0.066,0.021l-0.03,0.111l0.121-0.038L336.212,422.464z M333.083,416.556l-0.01,0.114l0.104,0.062l0.057-0.068L333.083,416.556z M334.902,416.878l0.052-0.021l-0.094-0.057l-0.031,0.047L334.902,416.878z M348.964,417.441l0.08,0.09l0.045-0.038l-0.097-0.062L348.964,417.441z M331.924,420.555l0.117,0.005l0.031-0.06l-0.008-0.086l-0.062-0.003l-0.018,0.062l-0.042,0.026L331.924,420.555z M332.423,420.113l-0.151-0.047h-0.14l-0.034,0.062l0.13,0.06l0.088,0.088l0.029-0.034l-0.026-0.044l0.044-0.065l0.073,0.021L332.423,420.113z M332.127,419.866l0.066-0.014l-0.073-0.094l-0.062,0.003l-0.024,0.066L332.127,419.866z M331.794,420.103l0.099-0.049l0.127-0.005l0.055-0.044l-0.01-0.082l-0.08-0.035l-0.237,0.02l-0.07,0.068L331.794,420.103z M334.236,420.509l0.042,0.083l0.042-0.026l-0.039-0.094l-0.07-0.073l-0.055,0.065L334.236,420.509z M343.818,419.385l0.196,0.132l0.007-0.142l-0.139-0.073L343.818,419.385z M343.89,420.112l0.036-0.166l0.083-0.026l-0.073-0.182l-0.114,0.016v0.14l-0.062,0.109L343.89,420.112z M344.446,419.463l-0.031,0.052l0.005,0.044l0.047,0.06l-0.03,0.171l0.14,0.229l0.052-0.036l-0.016-0.156l0.182-0.021l0.083-0.192l-0.021-0.213l-0.099-0.234l-0.114-0.021l-0.097,0.05l-0.096,0.003l-0.034,0.068L344.446,419.463z M342.281,418.037l0.044-0.036l-0.07-0.07l-0.04-0.004L342.203,418L342.281,418.037z M344.37,419.242l0.045-0.076l-0.021-0.062l-0.1-0.021l-0.045,0.09L344.37,419.242z M344.961,419.514l0.036-0.047l-0.068-0.062l-0.026,0.088L344.961,419.514z M344.053,418.616l0.031,0.042l0.029-0.034l0.016-0.052l-0.056-0.009L344.053,418.616z M344.214,419.084l0.049-0.104l-0.114-0.026l-0.021,0.049L344.214,419.084z M344.18,418.705l0.014,0.046l0.06-0.01l-0.008-0.047L344.18,418.705z M342.403,417.948l0.047-0.029l-0.034-0.025l-0.034,0.033L342.403,417.948z M344.059,419.08l0.017,0.038l0.059,0.003l0.01-0.045l-0.045-0.028L344.059,419.08z M344.093,418.428l0.014,0.038l0.066,0.003l-0.031-0.038L344.093,418.428z M342.101,418.754v0.045l0.038,0.017l0.007-0.052L342.101,418.754z M342.108,418.664l-0.014,0.035l0.031,0.014l0.01-0.035L342.108,418.664z M344.212,418.58l-0.018-0.023l-0.029,0.023l-0.013,0.047L344.212,418.58z M344.207,418.811l0.044,0.003l0.008-0.029l-0.034-0.016l-0.031,0.013L344.207,418.811z M344.949,417.869l0.031,0.017l-0.003,0.05h0.047l0.033-0.052l-0.002-0.057l-0.019-0.021l-0.026,0.026l-0.064,0.005L344.949,417.869z M343.822,417.385l-0.013-0.039l-0.026,0.01v0.06l0.026,0.003L343.822,417.385z M342.333,417.507l0.016,0.029l0.044,0.005l-0.021-0.023L342.333,417.507z M340.608,422.257l0.021,0.024l0.014-0.042l-0.035-0.014V422.257z M341.348,415.639l0.012-0.014l-0.01-0.014l-0.014,0.003l-0.002,0.019L341.348,415.639z M341.354,415.601l0.011,0.011l0.015-0.012v-0.015l-0.014,0.003L341.354,415.601z"/>
  <path data-id="SV" d="M310.66,401.53l-0.377,0.039l-0.486-0.036l-0.013-0.026l0.016-0.023l-0.016-0.026l-0.14,0.013l-0.01,0.036l0.052,0.003l0.023,0.023l-0.127,0.026l-0.088-0.01l-0.114-0.07l-0.008-0.055l0.078-0.068l-0.055-0.021l-0.078,0.023l-0.172-0.018l-0.205-0.192l-0.203-0.039l-0.081,0.057l-0.135-0.008l-0.047,0.036l0.104,0.044l0.184-0.039l0.109,0.01l0.146,0.156l0.21,0.083l-0.023,0.057l-0.65-0.133l-0.568-0.157l-0.897-0.426l-0.731-0.385l-0.159-0.048l-0.641-0.08l-0.191,0.017l-0.274-0.038l-0.184-0.08h-0.475l-0.146-0.038l-0.076-0.225l-0.606-0.385l-0.45-0.163l0.081-0.038l0.021-0.073l-0.045-0.095l0.019-0.185l0.215-0.197l0.073-0.146l0.679-0.492l0.253,0.097l0.142-0.003l-0.014-0.156l0.322-0.471l0.437-0.055l0.035-0.111l-0.118-0.229l-0.139-0.035l0.062-0.385l0.142,0l0.042,0.145l0.06-0.005l0.079-0.109l0.343-0.118l0.139,0.049l0.741,0.241l0.14-0.166l0.13,0.042l0.042,0.213l0.177,0.068l0.052,0.249l0.546,0.301l0.14,0.251l0.329-0.017l0.052,0.045l-0.038,0.187l0.87,0.346l0.011,0.362l0.182,0.057l0.826-0.338l-0.029-0.196l0.291,0.031l0.291-0.049l0.028,0.173l0.246,0.274l0.599-0.068l0.083-0.094l0.12,0.005v0.14l0.304,0.32l-0.122,0.231l-0.171,0.795l0.069,0.078l0.144-0.016v0.239l-0.371,0.146l-0.104-0.007l-0.031,0.128l0.031,0.114l0.236,0.197l0.007,0.08l-0.107,0.142l-0.329,0.142l-0.017,0.069l0.055,0.045l0.003,0.055L310.66,401.53z M311.888,401.006l0.076,0.049l0.007-0.1l-0.052-0.003L311.888,401.006z M311.86,401.255l0.021,0.083l0.048-0.007l0.038-0.035l-0.052-0.059L311.86,401.255z M312.061,401.356l-0.017,0.104l0.035,0.08l0.087-0.038l-0.024-0.125L312.061,401.356z"/>
  <path data-id="NI" d="M329.373,405.227l0.083,0.016l-0.057,0.088l-0.073,0.016L329.373,405.227z M328.711,394.846l0.211-0.083l0.199-0.144l-0.028-0.035l-0.475,0.057l-0.494-0.088l-0.411,0.062l-0.449,0.473l-1.154,0.454l-0.405-0.017l-0.149-0.114l-0.118-0.007l0.024,0.194l-0.315,0.08l-0.177-0.152l-0.111,0.087l0.035,0.218l-0.107,0.052l-0.197-0.076l0.014-0.09l-0.092-0.061l-0.345,0.4l-1.07-0.36l-0.017-0.27l-0.277-0.166l-0.274,0.073l-0.516,0.502l0.052,0.305l-0.253,0.17l-0.125-0.132l-0.114,0.059l0.048,0.253l-0.246,0.482l0.194,0.284l-0.121,0.191l-0.575-0.003l-0.288,0.544l-1.213,0.499l-0.059,0.326l0.111,0.08l-0.059,0.125l-0.26-0.045l-0.118-0.256l-0.707-0.34l0.159-0.26l-0.097-0.045l-0.464,0.142l-0.035,0.204l-0.686,0.857l-0.745-0.113l-0.423,0.08l-0.246-0.055l-0.17,0.083l-0.014,0.385l0.1,0.135l0.083,0.662l-0.052,0.135l0.021,0.107l0.111,0.09l-0.014,0.253l-0.123,0.104l-0.307-0.192l-0.322,0.196l-0.121,0.856l-0.346,0.196l-0.114-0.064l-0.878,0.043l-0.078,0.109l-0.177,0.052l-0.066,0.139l-0.319-0.076v-0.166l-0.218-0.239l-0.218-0.021l-0.073,0.177l-0.208,0.135l-0.042,0.27l0.977,0.676l0.267,0.346l0.568,0.437l0.333,0.34l1.066,0.719l0.136,0.154l0.349,0.723l0.555,0.774l0.678,0.644l0.548,0.354l0.09,0.166l0.825,0.596l0.395,0.437l0.187,0.374l0.346,0.118l0.319-0.516l0.166,0.01l0.125,0.156l0.385,0.156l0.281,0.01l0.343,0.198l1.31,0.492l0.863-0.52l0.274,0.163l0.121-0.035l0.534,0.353l0.229-0.107l0.107,0.021l-0.024,0.152l0.506,0.281l-0.059,0.194l0.139,0.121l0.336,0.073l0.243-0.073l0.125,0.028l0.229,0.215l0.288-0.007l0.243-0.191l0.488-0.139l-0.062-0.457l0.064-0.042l-0.27-0.101l-0.343-0.566l-0.14-0.956l0.183-0.299l0.087-0.008l0.255-0.457l0.296-0.088l0.031-0.114l-0.218-0.868l-0.135-0.047l-0.052,0.229l-0.146-0.01l-0.135-0.218l0.213-0.385l0.104-0.4l0.088,0.01l0.083,0.197l0.052-0.104l0.026-0.644l0.109-0.317l0.114-0.192l-0.097-0.055l-0.239,0.099l-0.106-0.147l0.05-0.345l-0.166-0.076l0.021-0.229l0.36-0.09l0.222-0.249l-0.007-0.305l-0.146-0.173l0.035-0.173l0.166-0.028l0.132,0.111l-0.028,0.686l-0.076,0.118l-0.146,0.021l-0.035,0.333l0.111,0.194l-0.083,0.146l0.09,0.076l0.242-0.09l0.194,0.021v-0.353l-0.201-0.36l0.038-0.724l0.073-0.431l-0.177-0.946l-0.029-1.005l0.192-0.684l0.104-0.741l0.185-0.625l0.644-0.831l0.213-0.457l0.021-0.431l-0.296-0.899l-0.092-0.445l-0.111-0.017l-0.035,0.024l0.04,0.095l-0.073,0.031l-0.114-0.083l-0.099-0.213l0.021-0.177l0.203-0.197l0.114,0.036l0.061,0.213l0.059,0.042L328.711,394.846z M329.634,404.778l0.057,0.062l0.026-0.057l-0.042-0.042L329.634,404.778z M326.909,405.939l-0.062,0.078l-0.042,0.171l0.057,0.177l0.052,0.031l-0.016-0.307l0.052-0.099L326.909,405.939z M330.319,397.06h0.256l0.014-0.229l-0.139-0.028l-0.097,0.104L330.319,397.06z M328.382,395.435l0.08,0.024l0.038-0.142l-0.076-0.052l-0.059,0.028l0.038,0.052L328.382,395.435z"/>
  <path data-id="HN" d="M314.787,390.498l-0.003-0.073l0.194-0.08l0.218,0.003l0.035,0.111h-0.184l-0.128,0.08L314.787,390.498z M316.284,389.767l0.121-0.135l0.423-0.201l0.547-0.187l0.256-0.014l0.097-0.045l-0.249-0.024l-0.263,0.014l-0.922,0.364l-0.08,0.204L316.284,389.767z M323.204,391.256l-1.099-0.408l-0.247,0.034l-0.328,0.239l-0.195,0.109l-0.364,0.036l-0.356,0.005l-0.114,0.052l-0.408-0.075l-0.598-0.327l-0.707-0.223l-0.333,0.003l-0.036,0.036l0.068,0.055l0.203-0.013l0.083,0.081l-0.065,0.179l-0.21,0.122l-0.738,0.052l-0.359,0.265l-0.309,0.148h-0.221l-0.182-0.099l-0.14-0.013l-0.598,0.096l-0.296-0.034l-0.158,0.013l-0.086,0.081l-0.382,0.057l-1.133-0.189l-0.509-0.139l-0.044,0.005l-0.081,0.086l-0.107,0.016l-0.091,0.101l-0.252-0.005l-0.35-0.281l-0.048-0.145l0.012-0.033l0.062-0.045l-0.083,0.01l-0.045,0.08l-0.049,0.033l-0.193-0.095l-0.104-0.007l-0.083,0.069l-0.346,0.003l-0.222,0.104l-0.194,0.038l-0.003,0.062l0.083,0.035l0.002,0.068l-0.532,0.23l-0.166,0.253l-0.146,0.01l-0.274-0.152l-0.055,0.121l-0.267,0.118l-0.139,0.277l-1.14,0.946l-0.665,0.398l-0.468,0.409l-0.655,0.256l-0.118,0.215l0.111,0.104l-0.083,0.236l-0.187,0.132v0.187l0.238,0.241l-0.003,0.151l0.125,0.075l-0.099,0.122l-0.026,0.416l-0.27-0.047l-0.195,0.216l-0.247,0.195l-0.009,0.149l0.741,0.241l0.14-0.166l0.13,0.042l0.042,0.213l0.177,0.068l0.052,0.249l0.546,0.301l0.14,0.251l0.329-0.017l0.052,0.045l-0.038,0.187l0.87,0.346l0.011,0.362l0.182,0.057l0.826-0.338l-0.029-0.196l0.291,0.031l0.291-0.049l0.028,0.173l0.246,0.274l0.599-0.068l0.083-0.094l0.12,0.005v0.14l0.304,0.32l-0.122,0.231l-0.171,0.795l0.069,0.078l0.144-0.016v0.239l-0.371,0.146l0.298,0.191l0.194-0.003l0.149-0.125v-0.166l0.055-0.094l0.1,0.014l-0.042,0.146l0.073,0.114l-0.049,0.073l-0.097,0.031l-0.035,0.132l0.066,0.042l0.201,0.042l0.156-0.145l0.146-0.052l0.135-0.08l0.128,0.014l0.017,0.073l-0.094,0.017l-0.087,0.173l-0.087,0.035l-0.028,0.09l0.203,0.166l0.104,0.416l0.187,0.068l0.217,0.244l0.023,0.151l0.878-0.043l0.114,0.064l0.346-0.196l0.121-0.856l0.322-0.196l0.307,0.192l0.123-0.104l0.014-0.253l-0.111-0.09l-0.021-0.107l0.052-0.135l-0.083-0.662l-0.1-0.135l0.014-0.385l0.17-0.083l0.246,0.055l0.423-0.08l0.745,0.113l0.686-0.857l0.035-0.204l0.464-0.142l0.097,0.045l-0.159,0.26l0.707,0.34l0.118,0.256l0.26,0.045l0.059-0.125l-0.111-0.08l0.059-0.326l1.213-0.499l0.288-0.544l0.575,0.003l0.121-0.191l-0.194-0.284l0.246-0.482l-0.048-0.253l0.114-0.059l0.125,0.132l0.253-0.17l-0.052-0.305l0.516-0.502l0.274-0.073l0.277,0.166l0.017,0.27l1.07,0.36l0.345-0.4l0.092,0.061l-0.014,0.09l0.197,0.076l0.107-0.052l-0.035-0.218l0.111-0.087l0.177,0.152l0.315-0.08l-0.024-0.194l0.118,0.007l0.149,0.114l0.405,0.017l1.154-0.454l0.449-0.473l0.411-0.062l0.494,0.088l0.475-0.057l-0.042-0.029l-0.303-0.085l-0.195-0.135l-0.187-0.255l-0.171-0.434l-0.286-0.125l-0.592-0.192l-0.385-0.216l-0.052,0.078l0.016,0.055l0.309,0.151l-0.047,0.203l-0.166,0.073l-0.078,0.153l-0.14-0.01l-0.057-0.083l0.005-0.166l-0.67-0.431l-0.2-0.06l-0.151,0.081l0.034,0.153l-0.156,0.003l-0.18-0.166l-0.028-0.166l0.127-0.052l-0.013-0.096l0.083-0.018l0.065,0.081l0.062,0.159l0.042-0.036l-0.041-0.147l-0.055-0.118l0.09-0.118l0.263,0.055l0.198,0.213l0.325,0.107l0.26,0.164l0.047-0.023l0.018-0.057l-0.275-0.112l-0.317-0.177l-0.317-0.301l-1.148-0.99l-0.808-0.094l-0.434-0.101l0.01,0.055l0.379,0.098l0.084,0.047l-0.001,0.058l-0.088,0.036l-0.031,0.052l-0.166-0.011l-0.055-0.091l-0.07-0.031l0.008,0.086l-0.052,0.036l-0.094-0.003l-0.073-0.096l0.01-0.138l0.052-0.055l-0.01-0.049L323.204,391.256z M318.844,389.123l0.242-0.083l0.059-0.139L319,388.828l-0.184,0.094l-0.208,0.336l0.111,0.014L318.844,389.123z M312.208,401.018l0.052,0.047l0.036-0.083l-0.042-0.036L312.208,401.018z M312.414,401.231l0.042-0.062l-0.049-0.09l-0.073-0.01l-0.052,0.135L312.414,401.231z M317.937,389.164l0.062-0.042l-0.094-0.024l-0.09,0.048L317.937,389.164z M316.596,390.99l0.007-0.035l-0.021-0.024l-0.028,0.042L316.596,390.99z M316.665,390.928l0.042-0.017l-0.028-0.048l-0.031,0.028L316.665,390.928z"/>
  <path data-id="GT" d="M308.908,390.999l0.457,0.364l0.305,0.169l0.464,0.308l-0.055,0.121l-0.267,0.118l-0.139,0.277l-1.14,0.946l-0.665,0.398l-0.468,0.409l-0.655,0.256l-0.118,0.215l0.111,0.104l-0.083,0.236l-0.187,0.132v0.187l0.238,0.241l-0.003,0.151l0.125,0.075l-0.099,0.122l-0.026,0.416l-0.27-0.047l-0.195,0.216l-0.247,0.195l-0.009,0.149l-0.139-0.049l-0.343,0.118l-0.079,0.109l-0.06,0.005l-0.042-0.145l-0.142,0l-0.062,0.385l0.139,0.035l0.118,0.229l-0.035,0.111l-0.437,0.055l-0.322,0.471l0.014,0.156l-0.142,0.003l-0.253-0.097l-0.679,0.492l-0.073,0.146l-0.215,0.197l-0.019,0.185l0.045,0.095l-0.021,0.073l-0.081,0.038l-1.372-0.582l-0.672-0.132l-1.503,0.059l-0.828-0.147l-0.902-0.35l-0.957-0.626l-1.225-0.973l-0.412-0.253l0.137-0.064l0.033-0.21l0.156-0.35l-0.146-0.561l0.149-0.085l0.047-0.12l-0.095-0.197l0.087-0.222l0.173-0.021l0.097-0.208l-0.547-0.7l1.815-3.094h4.816l0.014-0.776l0.173-0.312l-0.152-0.277l-0.734-0.201l-0.139-0.554l-0.215-0.388l-0.922-0.485l0.088-0.121l-0.13-0.042l-0.062,0.104l-0.679-0.523l-0.152-0.277l-0.187-0.083l-0.01-0.239l-0.551-0.135l-0.062-0.156h1.663v-2.193l6.79,0.005v2.988l-0.249,4.358l0.658-0.069l0.305,0.097l0.146-0.055l0.144,0.129l0.147-0.045l0.301,0.123l0.086,0.107l0.397,0.236l-0.036,0.161l0.078,0.062l0.078-0.036l0.016-0.14l0.197-0.385l0.125,0.026l0.073-0.036l-0.177-0.109l-0.291-0.249l0.031-0.088L308.908,390.999z"/>
  <path data-id="CR" d="M321.422,413.012l0.173,0.012l0.132,0.055l-0.019,0.104l-0.197-0.021l-0.099-0.083L321.422,413.012z M327.183,418.11l-0.045,0.226l-0.208,0.089l-0.08,0.277l0.615,0.603l0.359,0.005l0.66,0.244l0.083-0.166l-0.042-0.395l-0.226-0.19l-0.184-0.07l-0.122-0.125l-0.013-0.083l-0.184-0.197l0.065-0.073l0.169,0.016l0.164-0.068l0.169,0.068l0.005,0.146l0.255,0.114l0.088,0.094l0.283,0.138l0.203,0.429l0.007,0.146l-0.152,0.192l0.036,0.135l0.618,0.393l0.213,0.433l-0.023,0.255l0.069,0.052l0.035-0.32l-0.206-0.532l-0.165-0.043l-0.198-0.135l-0.01-0.09l0.424-0.329l0.282-0.083l0.055-0.319l0.052-0.139l-0.014-0.236l-0.343-0.398l0.017-0.1l0.128-0.028l0.055-0.121l-0.052-0.087l0.156-0.121l0.267-0.042l0.194-0.173l-0.132-0.253l-0.423-0.208l-0.083-0.146l-0.18,0.052l-0.009-1.512l0.35-0.104l-0.022-0.081l-0.135-0.097l0.099-0.258l0.121,0.007l0.411,0.22l0.187,0.211l0.197-0.01l0.083-0.197l0.099-0.054l-0.223-0.218l-0.525-0.114l-0.499-0.528l-0.445-0.61l-0.021-0.139l-0.097-0.048l-0.159,0.007l-1.026-1.179l-0.552-1.031l-0.272-0.853l-0.296-0.413l-0.064,0.042l0.062,0.457l-0.488,0.139l-0.243,0.191l-0.288,0.007l-0.229-0.215l-0.125-0.028l-0.243,0.073l-0.336-0.073l-0.139-0.121l0.059-0.194l-0.506-0.281l0.024-0.152l-0.107-0.021l-0.229,0.107l-0.534-0.353l-0.121,0.035l-0.274-0.163l-0.863,0.52l-1.31-0.492l-0.343-0.198l-0.281-0.01l-0.385-0.156l-0.125-0.156l-0.166-0.01l-0.319,0.516l0.09,0.071l-0.031,0.114l-0.104,0.016l-0.062-0.068l-0.088,0.073l0.223,0.177l-0.052,0.151l-0.202-0.01l-0.135,0.057l-0.083-0.068l-0.156,0.016l-0.197,0.114l0.005,0.062l0.234,0.156l0.13-0.005l0.062,0.036l-0.005,0.062l0.13,0.088l0.078-0.036l0.239,0.073l0.078,0.135l0.014,0.31l-0.083,0.076l-0.007,0.09l0.152-0.021l0.035,0.076l-0.326,0.256l-0.194,0.035l-0.125,0.118l0.069,0.229l-0.284,0.34l0.042,0.485l0.277,0.582l0.319,0.367l0.111,0.243l0.734,0.222l0.353,0.055l0.367,0.263l0.402,0.506l0.145,0.242l0.111-0.048l0.159-0.346l0.312-0.194l0.185-0.232l0.151-0.13l-0.036-0.052l-0.135-0.016v-0.265l-0.104-0.109l-0.566-0.146l-0.229-0.177l0.005-0.088l-0.289-0.227l-0.048-0.443l-0.104-0.177l0.166,0.078l0.068,0.234l0.249,0.088l0.213-0.01l0.837,0.639l0.416,0.094l0.12,0.171l-0.01,0.135l0.317,0.447l-0.13,0.291l0.052,0.255l0.514,0.4l0.187-0.01l1.117,0.327l0.062,0.161l0.779,0.322l0.551,0.431l0.608,0.535l0.095,0.504l0.125,0.069l0.007,0.049l-0.066,0.038l0.003,0.055l0.059,0.042l-0.007,0.048l-0.194,0.045l-0.062,0.09l0.035,0.057l0.055-0.016l0.011-0.052l0.204-0.024l0.062,0.038l-0.204,0.021l-0.045,0.062L327.183,418.11z M322.498,413.776l0.042-0.047l-0.021-0.068l-0.083,0.036L322.498,413.776z M321.843,413.521l0.146,0.026l-0.021-0.057l-0.104-0.005L321.843,413.521z M322.253,413.547l0.021-0.036l-0.229-0.088l0.047,0.062L322.253,413.547z"/>
  <path data-id="BZ" d="M310.717,385.599l-0.008-0.062l0.034-0.008l0.023,0.065L310.717,385.599z M310.433,382.024l0.066-0.08l0.111-0.042l0.028-0.094l-0.104-0.007l-0.333,0.152l-0.132-0.107l-0.288,0.097l-0.048-0.042l0.073-0.052l-0.028-0.045l-0.194,0.073l-0.104-0.097l0.26-0.146l0.14-0.184l-0.068-0.088l-0.54-0.068l-0.191,0.139l-0.097,0.423l-0.208,0.208l-0.055,0.256l-0.27,0.194l-0.104,0.449l-0.196,0.26l-0.296,0.227l-0.021,0.146l-0.095-0.003l-0.229-0.229l-0.154,0.003l-0.173-0.18l-0.301,0.094l-0.142,0.149v0.449v2.988l-0.249,4.358l0.658-0.069l0.305,0.097l0.146-0.055l-0.028-0.291l0.246-0.199l0.234-0.275l0.182-0.156l0.003-0.291l0.353-0.173l-0.003-0.081l0.068-0.01l0.161,0.161l0.172-0.099l0.504-0.76l0.083-0.374l0.275-0.419l0.005-0.301l0.161-0.161v-0.094l-0.099-0.187l0.135-0.203l0.097-0.007l0.035-0.111l-0.085-0.35l-0.171-0.14l-0.057-0.27l0.085-0.785l0.1-0.391l0.08-0.062l0.1,0.035l0.08-0.045l-0.024-0.081l-0.048-0.035l-0.095,0.007l-0.052-0.09l-0.146-0.078l-0.01-0.282l0.195-0.286l0.094-0.509l0.099-0.385l0.14-0.146l0.194-0.672v-0.367l-0.031-0.076l0.003-0.135l-0.059-0.035l-0.094,0.055L310.433,382.024z M310.831,384.411l0.009-0.076l-0.024-0.014l-0.016,0.104L310.831,384.411z M310.873,386.67l-0.066-0.014l-0.007,0.049l0.073,0.021V386.67z M310.875,384.173l-0.057,0.07l0.044,0.013l0.034-0.047L310.875,384.173z M311.112,382.918l0.018-0.068l-0.057-0.003l-0.044,0.075L311.112,382.918z M310.673,384.227l-0.039,0.083l-0.099,0.042l-0.166,0.109l-0.026,0.062h0.068l0.14-0.068l0.166-0.161l-0.005-0.047L310.673,384.227z M310.524,385.061l0.031,0.023l0.029-0.055h-0.039L310.524,385.061z M310.63,384.667l0.04,0.08l-0.006,0.05l0.037,0.007l0.002-0.13l-0.072-0.055l-0.047,0.021L310.63,384.667z M311.296,382.905l-0.254,0.491l0.014,0.111l-0.128,0.173l0.085,0.002l0.361-0.553l0.135-0.304l0.104-0.07l0.021-0.036l-0.065-0.216l-0.111,0.021L311.296,382.905z M311.212,386.209l0.062,0.104l0.031-0.028l-0.042-0.069l0.024-0.152l-0.035-0.031l-0.048,0.031L311.212,386.209z M312.466,386.171l-0.042,0.107l0.031-0.003l0.045-0.073L312.466,386.171z M311.462,386.271l0.062,0.014l-0.01-0.076h-0.042L311.462,386.271z M310.918,384.002l-0.031-0.007l-0.028,0.055l-0.01,0.087h0.031l0.007-0.069L310.918,384.002z M312.792,385.281l-0.017,0.059l0.083,0.017l-0.003-0.055L312.792,385.281z M311.295,385.821l0.094-0.166l-0.028-0.142l0.059-0.111l0.118-0.021l0.087,0.031l0.01-0.042l0.066-0.003l0.028-0.08l0.083-0.142l0.076-0.028v-0.038l-0.076-0.01l-0.01-0.062l-0.09-0.049l-0.059,0.08l-0.01,0.076l0.069-0.1l0.038,0.017l-0.003,0.087l-0.083,0.035l0.003,0.073l-0.097,0.055l-0.073-0.007l0.059-0.111l-0.09,0.076l-0.069,0.125l-0.1,0.125l-0.017,0.118l0.055,0.049l-0.111,0.197L311.295,385.821z M311.593,386.057l0.028-0.069l-0.059-0.024l-0.059,0.08l0.031,0.045L311.593,386.057z M311.669,384.806l-0.003,0.038h0.035l0.028-0.021L311.669,384.806z M311.642,385.835l0.035-0.003l0.024-0.038l0.031,0.024l0.042,0.003l0.014-0.08l-0.1-0.274l0.01-0.055h-0.035l-0.038,0.059l0.035,0.017l0.031,0.128l-0.031,0.028L311.642,385.835z M310.735,384.635l0.016-0.047l-0.042-0.003v0.062L310.735,384.635z M310.74,385.386l0.013-0.075l-0.044,0.021l0.01,0.065L310.74,385.386z M310.091,384.867l0.026-0.024l-0.019-0.005l-0.024,0.024L310.091,384.867z M310.225,384.849l0.016-0.016l0.002-0.019l-0.017,0.002l-0.014,0.024L310.225,384.849z M310.341,384.903l0.016-0.031l-0.007-0.024l-0.026,0.036L310.341,384.903z M310.315,385.005l0.014-0.003l-0.003-0.054h-0.023l-0.002,0.042L310.315,385.005z M310.71,384.86l0.026-0.009l-0.012-0.031l-0.033,0.002l-0.012,0.017L310.71,384.86z M311.192,382.809l0.005-0.039l-0.044,0.013l0.008,0.055L311.192,382.809z"/>
</svg>